<?xml version="1.0" encoding="UTF-8"?>
<svg height="600" width="800" xmlns="http://www.w3.org/2000/svg" xmlns:xlink="http://www.w3.org/1999/xlink">
    <g id="Notes" font-family="LucidaGrande, 'Lucida Grande', sans-serif" font-size="13">
        <rect fill="white" height="600.0" width="800.0" x="0.0" y="0.0" />
        <g font-size="13">
            <text x="18.0" y="176.0">Small</text>
            <text x="18.0" y="376.0">Medium</text>
            <text x="18.0" y="576.0">Large</text>
        </g>
        <g font-size="9">
            <text x="250.0" y="30.0">Ultralight</text>
            <text x="450.0" y="30.0">Regular</text>
            <text x="650.0" y="30.0">Black</text>
            <text id="template-version" fill="#505050" text-anchor="end" x="785.0" y="575.0">Template v.3.0</text>
            <a href="https://github.com/swhitty/SwiftDraw">
                <text fill="#505050" text-anchor="end" x="785.0" y="590.0">https://github.com/swhitty/SwiftDraw</text>
            </a>
        </g>
    </g>
    <g id="Guides" stroke="rgb(39, 170, 225)" stroke-width="0.5">
        <path id="Capline-S" d="M18,76 l800,0" />
        <path id="H-reference" d="M85,145.755 L87.685,145.755 L113.369,79.287 L114.052,79.287 L114.052,76 L112.148,76 L85,145.755 Z M95.693,121.536 L130.996,121.536 L130.263,119.313 L96.474,119.313 L95.693,121.536 Z M139.15,145.755 L141.787,145.755 L114.638,76 L113.466,76 L113.466,79.287 L139.15,145.755 Z" stroke="none" transform="translate(0,200)" />
        <path id="Baseline-S" d="M18,146 l800,0" />
        <path id="left-margin-Ultralight-M" d="M243.333,256 l0,110" />
        <path id="right-margin-Ultralight-M" d="M286.667,256 l0,110" />
        <path id="left-margin-Regular-M" d="M443.333,256 l0,110" />
        <path id="right-margin-Regular-M" d="M486.667,256 l0,110" />
        <path id="left-margin-Black-M" d="M643.333,256 l0,110" />
        <path id="right-margin-Black-M" d="M686.667,256 l0,110" />
        <path id="Capline-M" d="M18,276 l800,0" />
        <path id="Baseline-M" d="M18,346 l800,0" />
        <path id="Capline-L" d="M18,476 l800,0" />
        <path id="Baseline-L" d="M18,546 l800,0" />
    </g>
    <g id="Symbols">
        <g id="Ultralight-M" transform="translate(0,200)">
            <path d="M280,89.386 L280,125.261 C280,133.191 273.284,139.619 265,139.619 C256.716,139.619 250,133.191 250,125.261 L250,90.697 C250.08,86.106 254.036,82.381 258.888,82.381 C263.741,82.381 267.697,86.106 267.777,90.75 L267.777,125.089 C267.777,126.557 266.534,127.747 265,127.747 C263.466,127.747 262.223,126.557 262.223,125.089 L262.223,93.834 C262.223,92.072 260.731,90.643 258.89,90.643 C257.049,90.643 255.557,92.072 255.557,93.834 L255.557,125.089 C255.557,130.081 259.785,134.128 265,134.128 C270.215,134.128 274.443,130.081 274.443,125.089 L274.443,90.697 C274.303,82.518 267.38,76 258.888,76 C250.397,76 243.474,82.518 243.334,90.645 L243.333,125.261 C243.333,136.715 253.034,146 265,146 C276.966,146 286.667,136.715 286.667,125.261 L286.667,89.386 C286.667,87.624 285.174,86.195 283.333,86.195 C281.492,86.195 280,87.624 280,89.386 Z" />
        </g>
        <g id="Regular-M" transform="translate(0,200)">
            <path d="M480,89.386 L480,125.261 C480,133.191 473.284,139.619 465,139.619 C456.716,139.619 450,133.191 450,125.261 L450,90.697 C450.08,86.106 454.036,82.381 458.888,82.381 C463.741,82.381 467.697,86.106 467.777,90.75 L467.777,125.089 C467.777,126.557 466.534,127.747 465,127.747 C463.466,127.747 462.223,126.557 462.223,125.089 L462.223,93.834 C462.223,92.072 460.731,90.643 458.89,90.643 C457.049,90.643 455.557,92.072 455.557,93.834 L455.557,125.089 C455.557,130.081 459.785,134.128 465,134.128 C470.215,134.128 474.443,130.081 474.443,125.089 L474.443,90.697 C474.303,82.518 467.38,76 458.888,76 C450.397,76 443.474,82.518 443.334,90.645 L443.333,125.261 C443.333,136.715 453.034,146 465,146 C476.966,146 486.667,136.715 486.667,125.261 L486.667,89.386 C486.667,87.624 485.174,86.195 483.333,86.195 C481.492,86.195 480,87.624 480,89.386 Z" />
        </g>
        <g id="Black-M" transform="translate(0,200)">
            <path d="M680,89.386 L680,125.261 C680,133.191 673.284,139.619 665,139.619 C656.716,139.619 650,133.191 650,125.261 L650,90.697 C650.08,86.106 654.036,82.381 658.888,82.381 C663.741,82.381 667.697,86.106 667.777,90.75 L667.777,125.089 C667.777,126.557 666.534,127.747 665,127.747 C663.466,127.747 662.223,126.557 662.223,125.089 L662.223,93.834 C662.223,92.072 660.731,90.643 658.89,90.643 C657.049,90.643 655.557,92.072 655.557,93.834 L655.557,125.089 C655.557,130.081 659.785,134.128 665,134.128 C670.215,134.128 674.443,130.081 674.443,125.089 L674.443,90.697 C674.303,82.518 667.38,76 658.888,76 C650.397,76 643.474,82.518 643.334,90.645 L643.333,125.261 C643.333,136.715 653.034,146 665,146 C676.966,146 686.667,136.715 686.667,125.261 L686.667,89.386 C686.667,87.624 685.174,86.195 683.333,86.195 C681.492,86.195 680,87.624 680,89.386 Z" />
        </g>
    </g>
</svg>