<?xml version="1.0" encoding="UTF-8"?>
<svg height="600" width="800" xmlns="http://www.w3.org/2000/svg" xmlns:xlink="http://www.w3.org/1999/xlink">
    <g id="Notes" font-family="LucidaGrande, 'Lucida Grande', sans-serif" font-size="13">
        <rect fill="white" height="600.0" width="800.0" x="0.0" y="0.0" />
        <g font-size="13">
            <text x="18.0" y="176.0">Small</text>
            <text x="18.0" y="376.0">Medium</text>
            <text x="18.0" y="576.0">Large</text>
        </g>
        <g font-size="9">
            <text x="250.0" y="30.0">Ultralight</text>
            <text x="450.0" y="30.0">Regular</text>
            <text x="650.0" y="30.0">Black</text>
            <text id="template-version" fill="#505050" text-anchor="end" x="785.0" y="575.0">Template v.3.0</text>
            <a href="https://github.com/swhitty/SwiftDraw">
                <text fill="#505050" text-anchor="end" x="785.0" y="590.0">https://github.com/swhitty/SwiftDraw</text>
            </a>
        </g>
    </g>
    <g id="Guides" stroke="rgb(39, 170, 225)" stroke-width="0.5">
        <path id="Capline-S" d="M18,76 l800,0" />
        <path id="H-reference" d="M85,145.755 L87.685,145.755 L113.369,79.287 L114.052,79.287 L114.052,76 L112.148,76 L85,145.755 Z M95.693,121.536 L130.996,121.536 L130.263,119.313 L96.474,119.313 L95.693,121.536 Z M139.15,145.755 L141.787,145.755 L114.638,76 L113.466,76 L113.466,79.287 L139.15,145.755 Z" stroke="none" transform="translate(0,200)" />
        <path id="Baseline-S" d="M18,146 l800,0" />
        <path id="left-margin-Ultralight-M" d="M230,256 l0,110" />
        <path id="right-margin-Ultralight-M" d="M300,256 l0,110" />
        <path id="left-margin-Regular-M" d="M430,256 l0,110" />
        <path id="right-margin-Regular-M" d="M500,256 l0,110" />
        <path id="left-margin-Black-M" d="M630,256 l0,110" />
        <path id="right-margin-Black-M" d="M700,256 l0,110" />
        <path id="Capline-M" d="M18,276 l800,0" />
        <path id="Baseline-M" d="M18,346 l800,0" />
        <path id="Capline-L" d="M18,476 l800,0" />
        <path id="Baseline-L" d="M18,546 l800,0" />
    </g>
    <g id="Symbols">
        <g id="Ultralight-M" transform="translate(0,200)">
            <path d="M265,100.5 L233.5,100.5 C231.567,100.5 230,102.067 230,104 C230,105.933 231.567,107.5 233.5,107.5 L265,107.5 C266.933,107.5 268.5,105.933 268.5,104 C268.5,102.067 266.933,100.5 265,100.5 Z M265,82.125 L233.5,82.125 C231.567,82.125 230,83.692 230,85.625 C230,87.558 231.567,89.125 233.5,89.125 L265,89.125 C266.933,89.125 268.5,87.558 268.5,85.625 C268.5,83.692 266.933,82.125 265,82.125 Z M296.5,119.75 L233.5,119.75 C231.567,119.75 230,121.317 230,123.25 C230,125.183 231.567,126.75 233.5,126.75 L296.5,126.75 C298.433,126.75 300,125.183 300,123.25 C300,121.317 298.433,119.75 296.5,119.75 Z M296.5,138.125 L233.5,138.125 C231.567,138.125 230,139.692 230,141.625 C230,143.558 231.567,145.125 233.5,145.125 L296.5,145.125 C298.433,145.125 300,143.558 300,141.625 C300,139.692 298.433,138.125 296.5,138.125 Z M289.92,79.185 L276.386,89.335 C274.444,90.788 274.038,91.154 273.525,92.467 C273.047,93.697 273.047,95.053 273.522,96.276 C274.038,97.596 274.416,97.937 276.384,99.414 L289.92,109.565 C292.676,111.632 293.118,111.905 294.846,111.875 C296.433,111.843 297.914,111.103 298.887,109.858 C299.954,108.489 300,107.985 300,104.525 L300,84.225 C300,80.75 299.955,80.252 298.882,78.886 C297.914,77.648 296.433,76.907 294.855,76.876 C293.126,76.836 292.713,77.091 289.92,79.185 Z M294.12,84.785 C295.016,84.113 295.316,83.896 295.556,83.747 C295.484,83.792 295.233,83.887 294.704,83.874 C294.189,83.864 293.695,83.617 293.371,83.202 C293.05,82.793 292.976,82.538 292.968,82.454 C292.994,82.736 293,83.115 293,84.225 L293,104.525 C293,105.635 292.994,106.013 292.968,106.294 C292.975,106.214 293.049,105.962 293.368,105.552 C293.695,105.133 294.189,104.886 294.715,104.876 C295.243,104.867 295.487,104.959 295.554,105 C295.313,104.851 295.001,104.626 294.12,103.965 L280.585,93.815 C279.992,93.37 279.79,93.213 279.666,93.1 C279.749,93.176 279.902,93.369 280.044,93.734 C280.205,94.149 280.205,94.601 280.047,95.009 C279.903,95.378 279.75,95.572 279.666,95.648 C279.79,95.536 280.002,95.372 280.582,94.937 L294.12,84.785 Z" />
        </g>
        <g id="Regular-M" transform="translate(0,200)">
            <path d="M465,100.5 L433.5,100.5 C431.567,100.5 430,102.067 430,104 C430,105.933 431.567,107.5 433.5,107.5 L465,107.5 C466.933,107.5 468.5,105.933 468.5,104 C468.5,102.067 466.933,100.5 465,100.5 Z M465,82.125 L433.5,82.125 C431.567,82.125 430,83.692 430,85.625 C430,87.558 431.567,89.125 433.5,89.125 L465,89.125 C466.933,89.125 468.5,87.558 468.5,85.625 C468.5,83.692 466.933,82.125 465,82.125 Z M496.5,119.75 L433.5,119.75 C431.567,119.75 430,121.317 430,123.25 C430,125.183 431.567,126.75 433.5,126.75 L496.5,126.75 C498.433,126.75 500,125.183 500,123.25 C500,121.317 498.433,119.75 496.5,119.75 Z M496.5,138.125 L433.5,138.125 C431.567,138.125 430,139.692 430,141.625 C430,143.558 431.567,145.125 433.5,145.125 L496.5,145.125 C498.433,145.125 500,143.558 500,141.625 C500,139.692 498.433,138.125 496.5,138.125 Z M489.92,79.185 L476.386,89.335 C474.444,90.788 474.038,91.154 473.525,92.467 C473.047,93.697 473.047,95.053 473.522,96.276 C474.038,97.596 474.416,97.937 476.384,99.414 L489.92,109.565 C492.676,111.632 493.118,111.905 494.846,111.875 C496.433,111.843 497.914,111.103 498.887,109.858 C499.954,108.489 500,107.985 500,104.525 L500,84.225 C500,80.75 499.955,80.252 498.882,78.886 C497.914,77.648 496.433,76.907 494.855,76.876 C493.126,76.836 492.713,77.091 489.92,79.185 Z M494.12,84.785 C495.016,84.113 495.316,83.896 495.556,83.747 C495.484,83.792 495.233,83.887 494.704,83.874 C494.189,83.864 493.695,83.617 493.371,83.202 C493.05,82.793 492.976,82.538 492.968,82.454 C492.994,82.736 493,83.115 493,84.225 L493,104.525 C493,105.635 492.994,106.013 492.968,106.294 C492.975,106.214 493.049,105.962 493.368,105.552 C493.695,105.133 494.189,104.886 494.715,104.876 C495.243,104.867 495.487,104.959 495.554,105 C495.313,104.851 495.001,104.626 494.12,103.965 L480.585,93.815 C479.992,93.37 479.79,93.213 479.666,93.1 C479.749,93.176 479.902,93.369 480.044,93.734 C480.205,94.149 480.205,94.601 480.047,95.009 C479.903,95.378 479.75,95.572 479.666,95.648 C479.79,95.536 480.002,95.372 480.582,94.937 L494.12,84.785 Z" />
        </g>
        <g id="Black-M" transform="translate(0,200)">
            <path d="M665,100.5 L633.5,100.5 C631.567,100.5 630,102.067 630,104 C630,105.933 631.567,107.5 633.5,107.5 L665,107.5 C666.933,107.5 668.5,105.933 668.5,104 C668.5,102.067 666.933,100.5 665,100.5 Z M665,82.125 L633.5,82.125 C631.567,82.125 630,83.692 630,85.625 C630,87.558 631.567,89.125 633.5,89.125 L665,89.125 C666.933,89.125 668.5,87.558 668.5,85.625 C668.5,83.692 666.933,82.125 665,82.125 Z M696.5,119.75 L633.5,119.75 C631.567,119.75 630,121.317 630,123.25 C630,125.183 631.567,126.75 633.5,126.75 L696.5,126.75 C698.433,126.75 700,125.183 700,123.25 C700,121.317 698.433,119.75 696.5,119.75 Z M696.5,138.125 L633.5,138.125 C631.567,138.125 630,139.692 630,141.625 C630,143.558 631.567,145.125 633.5,145.125 L696.5,145.125 C698.433,145.125 700,143.558 700,141.625 C700,139.692 698.433,138.125 696.5,138.125 Z M689.92,79.185 L676.386,89.335 C674.444,90.788 674.038,91.154 673.525,92.467 C673.047,93.697 673.047,95.053 673.522,96.276 C674.038,97.596 674.416,97.937 676.384,99.414 L689.92,109.565 C692.676,111.632 693.118,111.905 694.846,111.875 C696.433,111.843 697.914,111.103 698.887,109.858 C699.954,108.489 700,107.985 700,104.525 L700,84.225 C700,80.75 699.955,80.252 698.882,78.886 C697.914,77.648 696.433,76.907 694.855,76.876 C693.126,76.836 692.713,77.091 689.92,79.185 Z M694.12,84.785 C695.016,84.113 695.316,83.896 695.556,83.747 C695.484,83.792 695.233,83.887 694.704,83.874 C694.189,83.864 693.695,83.617 693.371,83.202 C693.05,82.793 692.976,82.538 692.968,82.454 C692.994,82.736 693,83.115 693,84.225 L693,104.525 C693,105.635 692.994,106.013 692.968,106.294 C692.975,106.214 693.049,105.962 693.368,105.552 C693.695,105.133 694.189,104.886 694.715,104.876 C695.243,104.867 695.487,104.959 695.554,105 C695.313,104.851 695.001,104.626 694.12,103.965 L680.585,93.815 C679.992,93.37 679.79,93.213 679.666,93.1 C679.749,93.176 679.902,93.369 680.044,93.734 C680.205,94.149 680.205,94.601 680.047,95.009 C679.903,95.378 679.75,95.572 679.666,95.648 C679.791,95.536 680.002,95.372 680.582,94.937 L694.12,84.785 Z" />
        </g>
    </g>
</svg>