<?xml version="1.0" encoding="UTF-8"?>
<svg height="600" width="800" xmlns="http://www.w3.org/2000/svg" xmlns:xlink="http://www.w3.org/1999/xlink">
    <g id="Notes" font-family="LucidaGrande, 'Lucida Grande', sans-serif" font-size="13">
        <rect fill="white" height="600.0" width="800.0" x="0.0" y="0.0" />
        <g font-size="13">
            <text x="18.0" y="176.0">Small</text>
            <text x="18.0" y="376.0">Medium</text>
            <text x="18.0" y="576.0">Large</text>
        </g>
        <g font-size="9">
            <text x="250.0" y="30.0">Ultralight</text>
            <text x="450.0" y="30.0">Regular</text>
            <text x="650.0" y="30.0">Black</text>
            <text id="template-version" fill="#505050" text-anchor="end" x="785.0" y="575.0">Template v.3.0</text>
            <a href="https://github.com/swhitty/SwiftDraw">
                <text fill="#505050" text-anchor="end" x="785.0" y="590.0">https://github.com/swhitty/SwiftDraw</text>
            </a>
        </g>
    </g>
    <g id="Guides" stroke="rgb(39, 170, 225)" stroke-width="0.5">
        <path id="Capline-S" d="M18,76 l800,0" />
        <path id="H-reference" d="M85,145.755 L87.685,145.755 L113.369,79.287 L114.052,79.287 L114.052,76 L112.148,76 L85,145.755 Z M95.693,121.536 L130.996,121.536 L130.263,119.313 L96.474,119.313 L95.693,121.536 Z M139.15,145.755 L141.787,145.755 L114.638,76 L113.466,76 L113.466,79.287 L139.15,145.755 Z" stroke="none" transform="translate(0,200)" />
        <path id="Baseline-S" d="M18,146 l800,0" />
        <path id="left-margin-Ultralight-M" d="M230,256 l0,110" />
        <path id="right-margin-Ultralight-M" d="M300,256 l0,110" />
        <path id="left-margin-Regular-M" d="M430,256 l0,110" />
        <path id="right-margin-Regular-M" d="M500,256 l0,110" />
        <path id="left-margin-Black-M" d="M630,256 l0,110" />
        <path id="right-margin-Black-M" d="M700,256 l0,110" />
        <path id="Capline-M" d="M18,276 l800,0" />
        <path id="Baseline-M" d="M18,346 l800,0" />
        <path id="Capline-L" d="M18,476 l800,0" />
        <path id="Baseline-L" d="M18,546 l800,0" />
    </g>
    <g id="Symbols">
        <g id="Ultralight-M" transform="translate(0,200)">
            <path d="M253.29,121.729 C254.052,122.6 255.363,123.773 257.207,124.923 C260.269,126.832 263.801,127.985 267.736,127.985 C271.67,127.985 275.202,126.832 278.264,124.923 C280.108,123.774 281.419,122.601 282.182,121.73 C283.418,120.318 283.275,118.172 281.863,116.936 C280.452,115.701 278.305,115.843 277.07,117.255 C276.717,117.658 275.892,118.396 274.67,119.157 C272.623,120.433 270.303,121.191 267.736,121.191 C265.168,121.191 262.848,120.433 260.801,119.158 C259.58,118.396 258.756,117.659 258.404,117.256 C257.168,115.844 255.022,115.7 253.61,116.936 C252.198,118.171 252.054,120.317 253.29,121.729 Z M277.078,105.904 L277.112,105.904 C278.988,105.904 280.509,104.384 280.509,102.507 C280.509,100.631 278.988,99.11 277.112,99.11 L277.078,99.11 C275.202,99.11 273.681,100.631 273.681,102.507 C273.681,104.384 275.202,105.904 277.078,105.904 Z M258.394,105.904 L258.428,105.904 C260.304,105.904 261.825,104.384 261.825,102.507 C261.825,100.631 260.304,99.11 258.428,99.11 L258.394,99.11 C256.518,99.11 254.997,100.631 254.997,102.507 C254.997,104.384 256.518,105.904 258.394,105.904 Z M267.737,143.272 C281.751,143.267 294.159,134.219 298.449,120.879 C302.738,107.538 297.928,92.954 286.544,84.783 C275.16,76.611 259.803,76.721 248.536,85.053 C237.27,93.386 232.668,108.037 237.147,121.316 C237.478,122.294 237.568,122.601 237.565,122.557 C237.566,122.57 237.569,122.528 237.58,122.487 C237.571,122.519 237.484,122.699 237.076,123.457 L231.521,133.735 C229.989,136.576 229.8,137.018 230.053,138.641 C230.284,140.124 231.156,141.429 232.437,142.209 C233.848,143.061 234.362,143.055 237.533,142.723 L254.925,140.927 C255.38,140.88 255.489,140.872 255.46,140.87 C255.515,140.872 255.469,140.866 255.498,140.873 C255.439,140.859 255.553,140.9 256.153,141.128 C259.84,142.547 263.773,143.276 267.74,143.272 Z M267.732,136.478 C264.603,136.481 261.499,135.906 258.579,134.782 C257.428,134.345 257.435,134.348 257.008,134.249 C256.541,134.144 256.156,134.094 255.702,134.081 C255.305,134.063 255.084,134.08 254.227,134.169 L236.831,135.966 C235.823,136.071 235.468,136.102 235.211,136.105 C235.295,136.104 235.545,136.149 235.961,136.4 C236.398,136.666 236.689,137.101 236.766,137.595 C236.841,138.078 236.786,138.329 236.753,138.408 C236.854,138.172 237.01,137.87 237.5,136.963 L243.056,126.682 C243.815,125.272 243.962,124.967 244.151,124.213 C244.34,123.53 244.408,122.737 244.332,121.951 C244.273,121.229 244.164,120.859 243.585,119.143 C240.049,108.661 243.682,97.094 252.576,90.516 C261.471,83.937 273.595,83.851 282.582,90.302 C291.57,96.753 295.367,108.267 291.981,118.799 C288.594,129.331 278.798,136.474 267.735,136.478 Z M275.379,102.507 C275.379,101.569 276.14,100.809 277.078,100.809 C278.016,100.809 278.777,101.569 278.777,102.507 C278.777,103.445 278.016,104.206 277.078,104.206 C276.14,104.206 275.379,103.445 275.379,102.507 Z M282.174,102.507 C282.174,99.693 279.892,97.412 277.078,97.412 C274.264,97.412 271.982,99.693 271.982,102.507 C271.982,105.322 274.264,107.603 277.078,107.603 C279.892,107.603 282.174,105.322 282.174,102.507 Z M256.696,102.507 C256.696,101.569 257.456,100.809 258.394,100.809 C259.332,100.809 260.093,101.569 260.093,102.507 C260.093,103.445 259.332,104.206 258.394,104.206 C257.456,104.206 256.696,103.445 256.696,102.507 Z M263.49,102.507 C263.49,99.693 261.209,97.412 258.394,97.412 C255.58,97.412 253.299,99.693 253.299,102.507 C253.299,105.322 255.58,107.603 258.394,107.603 C261.209,107.603 263.49,105.322 263.49,102.507 Z" />
        </g>
        <g id="Regular-M" transform="translate(0,200)">
            <path d="M453.29,121.729 C454.052,122.6 455.363,123.773 457.207,124.923 C460.269,126.832 463.801,127.985 467.736,127.985 C471.67,127.985 475.202,126.832 478.264,124.923 C480.108,123.774 481.419,122.601 482.182,121.73 C483.418,120.318 483.275,118.172 481.863,116.936 C480.452,115.701 478.305,115.843 477.07,117.255 C476.717,117.658 475.892,118.396 474.67,119.157 C472.623,120.433 470.303,121.191 467.736,121.191 C465.168,121.191 462.848,120.433 460.801,119.158 C459.58,118.396 458.756,117.659 458.404,117.256 C457.168,115.844 455.022,115.7 453.61,116.936 C452.198,118.171 452.054,120.317 453.29,121.729 Z M477.078,105.904 L477.112,105.904 C478.988,105.904 480.509,104.384 480.509,102.507 C480.509,100.631 478.988,99.11 477.112,99.11 L477.078,99.11 C475.202,99.11 473.681,100.631 473.681,102.507 C473.681,104.384 475.202,105.904 477.078,105.904 Z M458.394,105.904 L458.428,105.904 C460.304,105.904 461.825,104.384 461.825,102.507 C461.825,100.631 460.304,99.11 458.428,99.11 L458.394,99.11 C456.518,99.11 454.997,100.631 454.997,102.507 C454.997,104.384 456.518,105.904 458.394,105.904 Z M467.737,143.272 C481.751,143.267 494.159,134.219 498.449,120.879 C502.738,107.538 497.928,92.954 486.544,84.783 C475.16,76.611 459.803,76.721 448.536,85.053 C437.27,93.386 432.668,108.037 437.147,121.316 C437.478,122.294 437.568,122.601 437.565,122.557 C437.566,122.57 437.569,122.528 437.58,122.487 C437.571,122.519 437.484,122.699 437.076,123.457 L431.521,133.735 C429.989,136.576 429.8,137.018 430.053,138.641 C430.284,140.124 431.156,141.429 432.437,142.209 C433.848,143.061 434.362,143.055 437.533,142.723 L454.925,140.927 C455.38,140.88 455.489,140.872 455.46,140.87 C455.515,140.872 455.469,140.866 455.498,140.873 C455.439,140.859 455.553,140.9 456.153,141.128 C459.84,142.547 463.773,143.276 467.74,143.272 Z M467.732,136.478 C464.603,136.481 461.499,135.906 458.579,134.782 C457.428,134.345 457.435,134.348 457.008,134.249 C456.541,134.144 456.156,134.094 455.702,134.081 C455.305,134.063 455.084,134.08 454.227,134.169 L436.831,135.966 C435.823,136.071 435.468,136.102 435.211,136.105 C435.295,136.104 435.545,136.149 435.961,136.4 C436.398,136.666 436.689,137.101 436.766,137.595 C436.841,138.078 436.786,138.329 436.753,138.408 C436.854,138.172 437.01,137.87 437.5,136.963 L443.056,126.682 C443.815,125.272 443.962,124.967 444.151,124.213 C444.34,123.53 444.408,122.737 444.332,121.951 C444.273,121.229 444.164,120.859 443.585,119.143 C440.049,108.661 443.682,97.094 452.576,90.516 C461.471,83.937 473.595,83.851 482.582,90.302 C491.57,96.753 495.367,108.267 491.981,118.799 C488.594,129.331 478.798,136.474 467.735,136.478 Z M475.379,102.507 C475.379,101.569 476.14,100.809 477.078,100.809 C478.016,100.809 478.777,101.569 478.777,102.507 C478.777,103.445 478.016,104.206 477.078,104.206 C476.14,104.206 475.379,103.445 475.379,102.507 Z M482.174,102.507 C482.174,99.693 479.892,97.412 477.078,97.412 C474.264,97.412 471.982,99.693 471.982,102.507 C471.982,105.322 474.264,107.603 477.078,107.603 C479.892,107.603 482.174,105.322 482.174,102.507 Z M456.696,102.507 C456.696,101.569 457.456,100.809 458.394,100.809 C459.332,100.809 460.093,101.569 460.093,102.507 C460.093,103.445 459.332,104.206 458.394,104.206 C457.456,104.206 456.696,103.445 456.696,102.507 Z M463.49,102.507 C463.49,99.693 461.209,97.412 458.394,97.412 C455.58,97.412 453.299,99.693 453.299,102.507 C453.299,105.322 455.58,107.603 458.394,107.603 C461.209,107.603 463.49,105.322 463.49,102.507 Z" />
        </g>
        <g id="Black-M" transform="translate(0,200)">
            <path d="M653.29,121.729 C654.052,122.6 655.363,123.773 657.207,124.923 C660.269,126.832 663.801,127.985 667.736,127.985 C671.67,127.985 675.202,126.832 678.264,124.923 C680.108,123.774 681.419,122.601 682.182,121.73 C683.418,120.318 683.275,118.172 681.863,116.936 C680.452,115.701 678.305,115.843 677.07,117.255 C676.717,117.658 675.892,118.396 674.67,119.157 C672.623,120.433 670.303,121.191 667.736,121.191 C665.168,121.191 662.848,120.433 660.801,119.158 C659.58,118.396 658.756,117.659 658.404,117.256 C657.168,115.844 655.022,115.7 653.61,116.936 C652.198,118.171 652.054,120.317 653.29,121.729 Z M677.078,105.904 L677.112,105.904 C678.988,105.904 680.509,104.384 680.509,102.507 C680.509,100.631 678.988,99.11 677.112,99.11 L677.078,99.11 C675.202,99.11 673.681,100.631 673.681,102.507 C673.681,104.384 675.202,105.904 677.078,105.904 Z M658.394,105.904 L658.428,105.904 C660.304,105.904 661.825,104.384 661.825,102.507 C661.825,100.631 660.304,99.11 658.428,99.11 L658.394,99.11 C656.518,99.11 654.997,100.631 654.997,102.507 C654.997,104.384 656.518,105.904 658.394,105.904 Z M667.737,143.272 C681.751,143.267 694.159,134.219 698.449,120.879 C702.738,107.538 697.928,92.954 686.544,84.783 C675.16,76.611 659.803,76.721 648.536,85.053 C637.27,93.386 632.668,108.037 637.147,121.316 C637.478,122.294 637.568,122.601 637.565,122.557 C637.565,122.57 637.569,122.528 637.58,122.487 C637.571,122.519 637.484,122.699 637.076,123.457 L631.521,133.735 C629.989,136.576 629.8,137.018 630.053,138.641 C630.284,140.124 631.156,141.429 632.437,142.209 C633.848,143.061 634.362,143.055 637.533,142.723 L654.925,140.927 C655.38,140.88 655.489,140.872 655.46,140.87 C655.515,140.872 655.469,140.866 655.498,140.873 C655.439,140.859 655.553,140.9 656.153,141.128 C659.84,142.547 663.773,143.276 667.74,143.272 Z M667.732,136.478 C664.603,136.481 661.499,135.906 658.579,134.782 C657.428,134.345 657.435,134.348 657.008,134.249 C656.541,134.144 656.156,134.094 655.702,134.081 C655.305,134.063 655.084,134.08 654.227,134.169 L636.831,135.966 C635.823,136.071 635.468,136.102 635.211,136.105 C635.295,136.104 635.545,136.149 635.961,136.4 C636.398,136.666 636.689,137.101 636.766,137.595 C636.841,138.078 636.786,138.329 636.753,138.408 C636.854,138.172 637.01,137.87 637.5,136.963 L643.056,126.682 C643.815,125.272 643.962,124.967 644.151,124.213 C644.34,123.53 644.408,122.737 644.332,121.951 C644.273,121.229 644.164,120.859 643.585,119.143 C640.049,108.661 643.682,97.094 652.576,90.516 C661.471,83.937 673.595,83.851 682.582,90.302 C691.57,96.753 695.367,108.267 691.981,118.799 C688.594,129.331 678.798,136.474 667.735,136.478 Z M675.379,102.507 C675.379,101.569 676.14,100.809 677.078,100.809 C678.016,100.809 678.776,101.569 678.776,102.507 C678.776,103.445 678.016,104.206 677.078,104.206 C676.14,104.206 675.379,103.445 675.379,102.507 Z M682.174,102.507 C682.174,99.693 679.892,97.412 677.078,97.412 C674.264,97.412 671.982,99.693 671.982,102.507 C671.982,105.322 674.264,107.603 677.078,107.603 C679.892,107.603 682.174,105.322 682.174,102.507 Z M656.696,102.507 C656.696,101.569 657.456,100.809 658.394,100.809 C659.332,100.809 660.093,101.569 660.093,102.507 C660.093,103.445 659.332,104.206 658.394,104.206 C657.456,104.206 656.696,103.445 656.696,102.507 Z M663.49,102.507 C663.49,99.693 661.208,97.412 658.394,97.412 C655.58,97.412 653.299,99.693 653.299,102.507 C653.299,105.322 655.58,107.603 658.394,107.603 C661.208,107.603 663.49,105.322 663.49,102.507 Z" />
        </g>
    </g>
</svg>