<?xml version="1.0" encoding="UTF-8"?>
<svg height="600" width="800" xmlns="http://www.w3.org/2000/svg" xmlns:xlink="http://www.w3.org/1999/xlink">
    <g id="Notes" font-family="LucidaGrande, 'Lucida Grande', sans-serif" font-size="13">
        <rect fill="white" height="600.0" width="800.0" x="0.0" y="0.0" />
        <g font-size="13">
            <text x="18.0" y="176.0">Small</text>
            <text x="18.0" y="376.0">Medium</text>
            <text x="18.0" y="576.0">Large</text>
        </g>
        <g font-size="9">
            <text x="250.0" y="30.0">Ultralight</text>
            <text x="450.0" y="30.0">Regular</text>
            <text x="650.0" y="30.0">Black</text>
            <text id="template-version" fill="#505050" text-anchor="end" x="785.0" y="575.0">Template v.3.0</text>
            <a href="https://github.com/swhitty/SwiftDraw">
                <text fill="#505050" text-anchor="end" x="785.0" y="590.0">https://github.com/swhitty/SwiftDraw</text>
            </a>
        </g>
    </g>
    <g id="Guides" stroke="rgb(39, 170, 225)" stroke-width="0.5">
        <path id="Capline-S" d="M18,76 l800,0" />
        <path id="H-reference" d="M85,145.755 L87.685,145.755 L113.369,79.287 L114.052,79.287 L114.052,76 L112.148,76 L85,145.755 Z M95.693,121.536 L130.996,121.536 L130.263,119.313 L96.474,119.313 L95.693,121.536 Z M139.15,145.755 L141.787,145.755 L114.638,76 L113.466,76 L113.466,79.287 L139.15,145.755 Z" stroke="none" transform="translate(0,200)" />
        <path id="Baseline-S" d="M18,146 l800,0" />
        <path id="left-margin-Ultralight-M" d="M230,256 l0,110" />
        <path id="right-margin-Ultralight-M" d="M300,256 l0,110" />
        <path id="left-margin-Regular-M" d="M430,256 l0,110" />
        <path id="right-margin-Regular-M" d="M500,256 l0,110" />
        <path id="left-margin-Black-M" d="M630,256 l0,110" />
        <path id="right-margin-Black-M" d="M700,256 l0,110" />
        <path id="Capline-M" d="M18,276 l800,0" />
        <path id="Baseline-M" d="M18,346 l800,0" />
        <path id="Capline-L" d="M18,476 l800,0" />
        <path id="Baseline-L" d="M18,546 l800,0" />
    </g>
    <g id="Symbols">
        <g id="Ultralight-M" transform="translate(0,200)">
            <path d="M291.25,99.333 L291.25,111 C291.25,112.611 292.556,113.917 294.167,113.917 C295.777,113.917 297.083,112.611 297.083,111 L297.083,99.333 C297.083,97.723 295.777,96.417 294.167,96.417 C292.556,96.417 291.25,97.723 291.25,99.333 Z M259.896,89.125 L249.833,89.125 C243.122,89.125 241.527,89.255 239.287,90.396 C237.093,91.514 235.308,93.297 234.189,95.491 C233.047,97.736 232.917,99.332 232.917,106.042 L232.917,109.542 C232.917,113.429 232.979,114.351 233.582,115.806 C234.47,117.951 236.174,119.655 238.32,120.543 C239.774,121.146 240.696,121.208 244.583,121.208 L244.583,118.292 L241.667,118.292 L241.667,130.688 C241.667,131.66 241.671,131.891 241.711,132.284 C242.12,136.428 245.405,139.714 249.559,140.123 C249.942,140.163 250.174,140.167 251.146,140.167 C252.118,140.167 252.35,140.163 252.743,140.122 C256.886,139.714 260.172,136.428 260.582,132.275 C260.621,131.891 260.625,131.66 260.625,130.688 L260.625,118.292 L257.708,118.292 L257.708,121.208 L259.896,121.208 C263.765,121.208 269.033,123.112 274.815,126.266 C279.297,128.707 279.993,129.021 281.753,128.805 C283.362,128.648 284.881,127.744 285.828,126.347 C286.814,124.978 286.875,124.21 286.875,119.383 L286.875,90.951 C286.875,86.131 286.814,85.361 285.784,83.923 C284.881,82.589 283.362,81.685 281.682,81.521 C279.991,81.313 279.305,81.622 274.816,84.067 C269.033,87.221 263.765,89.125 259.896,89.125 Z M259.896,94.958 C264.99,94.958 271.034,92.774 277.608,89.189 C280.22,87.766 281.177,87.335 281.044,87.318 C281.066,87.322 281.024,87.296 280.998,87.258 C280.924,87.157 280.951,87.258 280.983,87.662 C281.032,88.279 281.042,88.952 281.042,90.951 L281.042,119.383 C281.042,121.382 281.032,122.056 280.983,122.673 C280.951,123.075 280.925,123.176 281.045,123.008 C281.024,123.037 281.066,123.012 281.113,123.007 C281.178,122.998 280.214,122.564 277.607,121.144 C271.034,117.56 264.99,115.375 259.896,115.375 L257.708,115.375 C256.098,115.375 254.792,116.681 254.792,118.292 L254.792,130.688 C254.792,131.407 254.788,131.585 254.778,131.692 C254.64,133.086 253.545,134.182 252.16,134.318 C252.043,134.33 251.865,134.333 251.146,134.333 C250.426,134.333 250.248,134.33 250.141,134.319 C248.747,134.182 247.652,133.086 247.515,131.702 C247.503,131.585 247.5,131.407 247.5,130.688 L247.5,118.292 C247.5,116.681 246.194,115.375 244.583,115.375 C241.675,115.375 240.97,115.327 240.551,115.154 C239.836,114.857 239.268,114.289 238.972,113.574 C238.798,113.155 238.75,112.45 238.75,109.542 L238.75,106.042 C238.75,100.501 238.858,99.178 239.387,98.138 C239.945,97.045 240.837,96.153 241.934,95.595 C242.971,95.066 244.294,94.958 249.833,94.958 L259.896,94.958 Z" />
        </g>
        <g id="Regular-M" transform="translate(0,200)">
            <path d="M491.25,99.333 L491.25,111 C491.25,112.611 492.556,113.917 494.167,113.917 C495.777,113.917 497.083,112.611 497.083,111 L497.083,99.333 C497.083,97.723 495.777,96.417 494.167,96.417 C492.556,96.417 491.25,97.723 491.25,99.333 Z M459.896,89.125 L449.833,89.125 C443.122,89.125 441.527,89.255 439.287,90.396 C437.093,91.514 435.308,93.297 434.189,95.491 C433.047,97.736 432.917,99.332 432.917,106.042 L432.917,109.542 C432.917,113.429 432.979,114.351 433.582,115.806 C434.47,117.951 436.174,119.655 438.32,120.543 C439.774,121.146 440.696,121.208 444.583,121.208 L444.583,118.292 L441.667,118.292 L441.667,130.688 C441.667,131.66 441.671,131.891 441.711,132.284 C442.12,136.428 445.405,139.714 449.559,140.123 C449.942,140.163 450.174,140.167 451.146,140.167 C452.118,140.167 452.35,140.163 452.743,140.122 C456.886,139.714 460.172,136.428 460.582,132.275 C460.621,131.891 460.625,131.66 460.625,130.688 L460.625,118.292 L457.708,118.292 L457.708,121.208 L459.896,121.208 C463.765,121.208 469.033,123.112 474.815,126.266 C479.297,128.707 479.993,129.021 481.753,128.805 C483.362,128.648 484.881,127.744 485.828,126.347 C486.814,124.978 486.875,124.21 486.875,119.383 L486.875,90.951 C486.875,86.131 486.814,85.361 485.784,83.923 C484.881,82.589 483.362,81.685 481.682,81.521 C479.991,81.313 479.305,81.622 474.816,84.067 C469.033,87.221 463.765,89.125 459.896,89.125 Z M459.896,94.958 C464.99,94.958 471.034,92.774 477.608,89.189 C480.22,87.766 481.177,87.335 481.044,87.318 C481.066,87.322 481.024,87.296 480.998,87.258 C480.924,87.157 480.951,87.258 480.983,87.662 C481.032,88.279 481.042,88.952 481.042,90.951 L481.042,119.383 C481.042,121.382 481.032,122.056 480.983,122.673 C480.951,123.075 480.925,123.176 481.045,123.008 C481.024,123.037 481.066,123.012 481.113,123.007 C481.178,122.998 480.214,122.564 477.607,121.144 C471.034,117.56 464.99,115.375 459.896,115.375 L457.708,115.375 C456.098,115.375 454.792,116.681 454.792,118.292 L454.792,130.688 C454.792,131.407 454.788,131.585 454.778,131.692 C454.64,133.086 453.545,134.182 452.16,134.318 C452.043,134.33 451.865,134.333 451.146,134.333 C450.426,134.333 450.248,134.33 450.141,134.319 C448.747,134.182 447.652,133.086 447.515,131.702 C447.503,131.585 447.5,131.407 447.5,130.688 L447.5,118.292 C447.5,116.681 446.194,115.375 444.583,115.375 C441.675,115.375 440.97,115.327 440.551,115.154 C439.836,114.857 439.268,114.289 438.972,113.574 C438.798,113.155 438.75,112.45 438.75,109.542 L438.75,106.042 C438.75,100.501 438.858,99.178 439.387,98.138 C439.945,97.045 440.837,96.153 441.934,95.595 C442.971,95.066 444.294,94.958 449.833,94.958 L459.896,94.958 Z" />
        </g>
        <g id="Black-M" transform="translate(0,200)">
            <path d="M691.25,99.333 L691.25,111 C691.25,112.611 692.556,113.917 694.167,113.917 C695.777,113.917 697.083,112.611 697.083,111 L697.083,99.333 C697.083,97.723 695.777,96.417 694.167,96.417 C692.556,96.417 691.25,97.723 691.25,99.333 Z M659.896,89.125 L649.833,89.125 C643.122,89.125 641.527,89.255 639.287,90.396 C637.093,91.514 635.308,93.297 634.189,95.491 C633.047,97.736 632.917,99.332 632.917,106.042 L632.917,109.542 C632.917,113.429 632.979,114.351 633.582,115.806 C634.47,117.951 636.174,119.655 638.32,120.543 C639.774,121.146 640.696,121.208 644.583,121.208 L644.583,118.292 L641.667,118.292 L641.667,130.688 C641.667,131.66 641.671,131.891 641.711,132.284 C642.12,136.428 645.405,139.714 649.559,140.123 C649.942,140.163 650.174,140.167 651.146,140.167 C652.118,140.167 652.35,140.163 652.743,140.122 C656.886,139.714 660.172,136.428 660.582,132.275 C660.621,131.891 660.625,131.66 660.625,130.688 L660.625,118.292 L657.708,118.292 L657.708,121.208 L659.896,121.208 C663.765,121.208 669.033,123.112 674.815,126.266 C679.297,128.707 679.993,129.021 681.753,128.805 C683.362,128.648 684.881,127.744 685.828,126.347 C686.814,124.978 686.875,124.21 686.875,119.383 L686.875,90.951 C686.875,86.131 686.814,85.361 685.784,83.923 C684.881,82.589 683.362,81.685 681.682,81.521 C679.991,81.313 679.305,81.622 674.816,84.067 C669.033,87.221 663.765,89.125 659.896,89.125 Z M659.896,94.958 C664.99,94.958 671.034,92.774 677.608,89.189 C680.22,87.766 681.177,87.335 681.044,87.318 C681.066,87.322 681.024,87.296 680.998,87.258 C680.924,87.157 680.951,87.258 680.983,87.662 C681.032,88.279 681.042,88.952 681.042,90.951 L681.042,119.383 C681.042,121.382 681.032,122.056 680.983,122.673 C680.951,123.075 680.925,123.176 681.045,123.008 C681.024,123.037 681.066,123.012 681.113,123.007 C681.178,122.998 680.214,122.564 677.607,121.144 C671.034,117.56 664.99,115.375 659.896,115.375 L657.708,115.375 C656.097,115.375 654.792,116.681 654.792,118.292 L654.792,130.688 C654.792,131.407 654.789,131.585 654.778,131.692 C654.64,133.086 653.545,134.182 652.16,134.318 C652.043,134.33 651.865,134.333 651.146,134.333 C650.426,134.333 650.248,134.33 650.141,134.319 C648.747,134.182 647.652,133.086 647.515,131.702 C647.503,131.585 647.5,131.407 647.5,130.688 L647.5,118.292 C647.5,116.681 646.194,115.375 644.583,115.375 C641.675,115.375 640.97,115.327 640.551,115.154 C639.836,114.857 639.268,114.289 638.972,113.574 C638.798,113.155 638.75,112.45 638.75,109.542 L638.75,106.042 C638.75,100.501 638.858,99.178 639.387,98.138 C639.945,97.045 640.837,96.153 641.934,95.595 C642.971,95.066 644.294,94.958 649.833,94.958 L659.896,94.958 Z" />
        </g>
    </g>
</svg>