<?xml version="1.0" encoding="UTF-8"?>
<svg height="600" width="800" xmlns="http://www.w3.org/2000/svg" xmlns:xlink="http://www.w3.org/1999/xlink">
    <g id="Notes" font-family="LucidaGrande, 'Lucida Grande', sans-serif" font-size="13">
        <rect fill="white" height="600.0" width="800.0" x="0.0" y="0.0" />
        <g font-size="13">
            <text x="18.0" y="176.0">Small</text>
            <text x="18.0" y="376.0">Medium</text>
            <text x="18.0" y="576.0">Large</text>
        </g>
        <g font-size="9">
            <text x="250.0" y="30.0">Ultralight</text>
            <text x="450.0" y="30.0">Regular</text>
            <text x="650.0" y="30.0">Black</text>
            <text id="template-version" fill="#505050" text-anchor="end" x="785.0" y="575.0">Template v.3.0</text>
            <a href="https://github.com/swhitty/SwiftDraw">
                <text fill="#505050" text-anchor="end" x="785.0" y="590.0">https://github.com/swhitty/SwiftDraw</text>
            </a>
        </g>
    </g>
    <g id="Guides" stroke="rgb(39, 170, 225)" stroke-width="0.5">
        <path id="Capline-S" d="M18,76 l800,0" />
        <path id="H-reference" d="M85,145.755 L87.685,145.755 L113.369,79.287 L114.052,79.287 L114.052,76 L112.148,76 L85,145.755 Z M95.693,121.536 L130.996,121.536 L130.263,119.313 L96.474,119.313 L95.693,121.536 Z M139.15,145.755 L141.787,145.755 L114.638,76 L113.466,76 L113.466,79.287 L139.15,145.755 Z" stroke="none" transform="translate(0,200)" />
        <path id="Baseline-S" d="M18,146 l800,0" />
        <path id="left-margin-Ultralight-M" d="M221,256 l0,110" />
        <path id="right-margin-Ultralight-M" d="M309,256 l0,110" />
        <path id="left-margin-Regular-M" d="M421,256 l0,110" />
        <path id="right-margin-Regular-M" d="M509,256 l0,110" />
        <path id="left-margin-Black-M" d="M621,256 l0,110" />
        <path id="right-margin-Black-M" d="M709,256 l0,110" />
        <path id="Capline-M" d="M18,276 l800,0" />
        <path id="Baseline-M" d="M18,346 l800,0" />
        <path id="Capline-L" d="M18,476 l800,0" />
        <path id="Baseline-L" d="M18,546 l800,0" />
    </g>
    <g id="Symbols">
        <g id="Ultralight-M" transform="translate(0,200)">
            <path d="M271.72,118.767 L278.005,112.482 C278.824,111.663 278.824,110.337 278.005,109.518 L271.72,103.233 C270.901,102.414 269.575,102.414 268.757,103.233 C267.938,104.051 267.938,105.378 268.757,106.196 L275.042,112.482 L275.042,109.518 L268.757,115.804 C267.938,116.622 267.938,117.949 268.757,118.767 C269.575,119.586 270.901,119.586 271.72,118.767 Z M258.28,103.233 L251.995,109.518 C251.176,110.337 251.176,111.663 251.995,112.482 L258.28,118.767 C259.099,119.586 260.425,119.586 261.243,118.767 C262.062,117.949 262.062,116.622 261.243,115.804 L254.958,109.518 L254.958,112.482 L261.243,106.196 C262.062,105.378 262.062,104.051 261.243,103.233 C260.425,102.414 259.099,102.414 258.28,103.233 Z M283.857,111 C283.857,121.415 275.415,129.857 265,129.857 C254.585,129.857 246.143,121.415 246.143,111 C246.143,100.585 254.585,92.143 265,92.143 C275.415,92.143 283.857,100.585 283.857,111 Z M288.048,111 C288.048,98.271 277.729,87.952 265,87.952 C252.271,87.952 241.952,98.271 241.952,111 C241.952,123.729 252.271,134.048 265,134.048 C277.729,134.048 288.048,123.729 288.048,111 Z" />
        </g>
        <g id="Regular-M" transform="translate(0,200)">
            <path d="M471.72,118.767 L478.005,112.482 C478.824,111.663 478.824,110.337 478.005,109.518 L471.72,103.233 C470.901,102.414 469.575,102.414 468.757,103.233 C467.938,104.051 467.938,105.378 468.757,106.196 L475.042,112.482 L475.042,109.518 L468.757,115.804 C467.938,116.622 467.938,117.949 468.757,118.767 C469.575,119.586 470.901,119.586 471.72,118.767 Z M458.28,103.233 L451.995,109.518 C451.176,110.337 451.176,111.663 451.995,112.482 L458.28,118.767 C459.099,119.586 460.425,119.586 461.243,118.767 C462.062,117.949 462.062,116.622 461.243,115.804 L454.958,109.518 L454.958,112.482 L461.243,106.196 C462.062,105.378 462.062,104.051 461.243,103.233 C460.425,102.414 459.099,102.414 458.28,103.233 Z M483.857,111 C483.857,121.415 475.415,129.857 465,129.857 C454.585,129.857 446.143,121.415 446.143,111 C446.143,100.585 454.585,92.143 465,92.143 C475.415,92.143 483.857,100.585 483.857,111 Z M488.048,111 C488.048,98.271 477.729,87.952 465,87.952 C452.271,87.952 441.952,98.271 441.952,111 C441.952,123.729 452.271,134.048 465,134.048 C477.729,134.048 488.048,123.729 488.048,111 Z" />
        </g>
        <g id="Black-M" transform="translate(0,200)">
            <path d="M671.72,118.767 L678.005,112.482 C678.824,111.663 678.824,110.337 678.005,109.518 L671.72,103.233 C670.901,102.414 669.575,102.414 668.757,103.233 C667.938,104.051 667.938,105.378 668.757,106.196 L675.042,112.482 L675.042,109.518 L668.757,115.804 C667.938,116.622 667.938,117.949 668.757,118.767 C669.575,119.586 670.901,119.586 671.72,118.767 Z M658.28,103.233 L651.995,109.518 C651.176,110.337 651.176,111.663 651.995,112.482 L658.28,118.767 C659.099,119.586 660.425,119.586 661.243,118.767 C662.062,117.949 662.062,116.622 661.243,115.804 L654.958,109.518 L654.958,112.482 L661.243,106.196 C662.062,105.378 662.062,104.051 661.243,103.233 C660.425,102.414 659.099,102.414 658.28,103.233 Z M683.857,111 C683.857,121.415 675.415,129.857 665,129.857 C654.585,129.857 646.143,121.415 646.143,111 C646.143,100.585 654.585,92.143 665,92.143 C675.415,92.143 683.857,100.585 683.857,111 Z M688.048,111 C688.048,98.271 677.729,87.952 665,87.952 C652.271,87.952 641.952,98.271 641.952,111 C641.952,123.729 652.271,134.048 665,134.048 C677.729,134.048 688.048,123.729 688.048,111 Z" />
        </g>
    </g>
</svg>