<?xml version="1.0" encoding="UTF-8"?>
<svg height="600" width="800" xmlns="http://www.w3.org/2000/svg" xmlns:xlink="http://www.w3.org/1999/xlink">
    <g id="Notes" font-family="LucidaGrande, 'Lucida Grande', sans-serif" font-size="13">
        <rect fill="white" height="600.0" width="800.0" x="0.0" y="0.0" />
        <g font-size="13">
            <text x="18.0" y="176.0">Small</text>
            <text x="18.0" y="376.0">Medium</text>
            <text x="18.0" y="576.0">Large</text>
        </g>
        <g font-size="9">
            <text x="250.0" y="30.0">Ultralight</text>
            <text x="450.0" y="30.0">Regular</text>
            <text x="650.0" y="30.0">Black</text>
            <text id="template-version" fill="#505050" text-anchor="end" x="785.0" y="575.0">Template v.3.0</text>
            <a href="https://github.com/swhitty/SwiftDraw">
                <text fill="#505050" text-anchor="end" x="785.0" y="590.0">https://github.com/swhitty/SwiftDraw</text>
            </a>
        </g>
    </g>
    <g id="Guides" stroke="rgb(39, 170, 225)" stroke-width="0.5">
        <path id="Capline-S" d="M18,76 l800,0" />
        <path id="H-reference" d="M85,145.755 L87.685,145.755 L113.369,79.287 L114.052,79.287 L114.052,76 L112.148,76 L85,145.755 Z M95.693,121.536 L130.996,121.536 L130.263,119.313 L96.474,119.313 L95.693,121.536 Z M139.15,145.755 L141.787,145.755 L114.638,76 L113.466,76 L113.466,79.287 L139.15,145.755 Z" stroke="none" transform="translate(0,200)" />
        <path id="Baseline-S" d="M18,146 l800,0" />
        <path id="left-margin-Ultralight-M" d="M221,256 l0,110" />
        <path id="right-margin-Ultralight-M" d="M309,256 l0,110" />
        <path id="left-margin-Regular-M" d="M421,256 l0,110" />
        <path id="right-margin-Regular-M" d="M509,256 l0,110" />
        <path id="left-margin-Black-M" d="M621,256 l0,110" />
        <path id="right-margin-Black-M" d="M709,256 l0,110" />
        <path id="Capline-M" d="M18,276 l800,0" />
        <path id="Baseline-M" d="M18,346 l800,0" />
        <path id="Capline-L" d="M18,476 l800,0" />
        <path id="Baseline-L" d="M18,546 l800,0" />
    </g>
    <g id="Symbols">
        <g id="Ultralight-M" transform="translate(0,200)">
            <path d="M247.4,101.76 C247.4,97.582 247.482,96.584 247.88,95.802 C248.301,94.975 248.975,94.301 249.802,93.88 C250.584,93.482 251.582,93.4 255.76,93.4 L274.24,93.4 C278.418,93.4 279.416,93.482 280.198,93.88 C281.025,94.301 281.699,94.975 282.12,95.802 C282.518,96.584 282.6,97.582 282.6,101.76 L282.6,120.24 C282.6,124.418 282.518,125.416 282.12,126.198 C281.699,127.025 281.025,127.699 280.198,128.12 C279.416,128.518 278.418,128.6 274.24,128.6 L255.76,128.6 C251.582,128.6 250.584,128.518 249.802,128.12 C248.975,127.699 248.301,127.025 247.88,126.198 C247.482,125.416 247.4,124.418 247.4,120.24 L247.4,101.76 Z M243,101.76 L243,120.24 C243,125.302 243.098,126.505 243.959,128.195 C244.803,129.851 246.149,131.197 247.805,132.041 C249.495,132.902 250.698,133 255.76,133 L274.24,133 C279.302,133 280.505,132.902 282.195,132.041 C283.851,131.197 285.197,129.851 286.041,128.195 C286.902,126.505 287,125.302 287,120.24 L287,101.76 C287,96.698 286.902,95.495 286.041,93.805 C285.197,92.149 283.851,90.803 282.195,89.959 C280.505,89.098 279.302,89 274.24,89 L255.76,89 C250.698,89 249.495,89.098 247.805,89.959 C246.149,90.803 244.803,92.149 243.959,93.805 C243.098,95.495 243,96.698 243,101.76 Z" />
            <path d="M258.4,105.72 C258.4,104.622 258.422,104.358 258.4,104.4 C258.4,104.4 258.4,104.4 258.4,104.4 C258.358,104.422 258.622,104.4 259.72,104.4 L270.28,104.4 C271.378,104.4 271.642,104.422 271.6,104.4 C271.6,104.4 271.6,104.4 271.6,104.4 C271.578,104.358 271.6,104.622 271.6,105.72 L271.6,116.28 C271.6,117.378 271.578,117.642 271.6,117.6 C271.6,117.6 271.6,117.6 271.6,117.6 C271.642,117.578 271.378,117.6 270.28,117.6 L259.72,117.6 C258.622,117.6 258.358,117.578 258.4,117.6 C258.4,117.6 258.4,117.6 258.4,117.6 C258.422,117.642 258.4,117.378 258.4,116.28 L258.4,105.72 Z M254,105.72 L254,116.28 C254,118.262 254.038,118.731 254.479,119.597 C254.901,120.425 255.575,121.099 256.402,121.52 C257.269,121.962 257.738,122 259.72,122 L270.28,122 C272.262,122 272.731,121.962 273.597,121.521 C274.425,121.099 275.099,120.425 275.52,119.598 C275.962,118.731 276,118.262 276,116.28 L276,105.72 C276,103.738 275.962,103.269 275.521,102.403 C275.099,101.575 274.425,100.901 273.598,100.48 C272.731,100.038 272.262,100 270.28,100 L259.72,100 C257.738,100 257.269,100.038 256.403,100.479 C255.575,100.901 254.901,101.575 254.48,102.402 C254.038,103.269 254,103.738 254,105.72 Z" />
        </g>
        <g id="Regular-M" transform="translate(0,200)">
            <path d="M447.4,101.76 C447.4,97.582 447.482,96.584 447.88,95.802 C448.301,94.975 448.975,94.301 449.802,93.88 C450.584,93.482 451.582,93.4 455.76,93.4 L474.24,93.4 C478.418,93.4 479.416,93.482 480.198,93.88 C481.025,94.301 481.699,94.975 482.12,95.802 C482.518,96.584 482.6,97.582 482.6,101.76 L482.6,120.24 C482.6,124.418 482.518,125.416 482.12,126.198 C481.699,127.025 481.025,127.699 480.198,128.12 C479.416,128.518 478.418,128.6 474.24,128.6 L455.76,128.6 C451.582,128.6 450.584,128.518 449.802,128.12 C448.975,127.699 448.301,127.025 447.88,126.198 C447.482,125.416 447.4,124.418 447.4,120.24 L447.4,101.76 Z M443,101.76 L443,120.24 C443,125.302 443.098,126.505 443.959,128.195 C444.803,129.851 446.149,131.197 447.805,132.041 C449.495,132.902 450.698,133 455.76,133 L474.24,133 C479.302,133 480.505,132.902 482.195,132.041 C483.851,131.197 485.197,129.851 486.041,128.195 C486.902,126.505 487,125.302 487,120.24 L487,101.76 C487,96.698 486.902,95.495 486.041,93.805 C485.197,92.149 483.851,90.803 482.195,89.959 C480.505,89.098 479.302,89 474.24,89 L455.76,89 C450.698,89 449.495,89.098 447.805,89.959 C446.149,90.803 444.803,92.149 443.959,93.805 C443.098,95.495 443,96.698 443,101.76 Z" />
            <path d="M458.4,105.72 C458.4,104.622 458.422,104.358 458.4,104.4 C458.4,104.4 458.4,104.4 458.4,104.4 C458.358,104.422 458.622,104.4 459.72,104.4 L470.28,104.4 C471.378,104.4 471.642,104.422 471.6,104.4 C471.6,104.4 471.6,104.4 471.6,104.4 C471.578,104.358 471.6,104.622 471.6,105.72 L471.6,116.28 C471.6,117.378 471.578,117.642 471.6,117.6 C471.6,117.6 471.6,117.6 471.6,117.6 C471.642,117.578 471.378,117.6 470.28,117.6 L459.72,117.6 C458.622,117.6 458.358,117.578 458.4,117.6 C458.4,117.6 458.4,117.6 458.4,117.6 C458.422,117.642 458.4,117.378 458.4,116.28 L458.4,105.72 Z M454,105.72 L454,116.28 C454,118.262 454.038,118.731 454.479,119.597 C454.901,120.425 455.575,121.099 456.402,121.52 C457.269,121.962 457.738,122 459.72,122 L470.28,122 C472.262,122 472.731,121.962 473.597,121.521 C474.425,121.099 475.099,120.425 475.52,119.598 C475.962,118.731 476,118.262 476,116.28 L476,105.72 C476,103.738 475.962,103.269 475.521,102.403 C475.099,101.575 474.425,100.901 473.598,100.48 C472.731,100.038 472.262,100 470.28,100 L459.72,100 C457.738,100 457.269,100.038 456.403,100.479 C455.575,100.901 454.901,101.575 454.48,102.402 C454.038,103.269 454,103.738 454,105.72 Z" />
        </g>
        <g id="Black-M" transform="translate(0,200)">
            <path d="M647.4,101.76 C647.4,97.582 647.482,96.584 647.88,95.802 C648.301,94.975 648.974,94.301 649.802,93.88 C650.584,93.482 651.582,93.4 655.76,93.4 L674.24,93.4 C678.418,93.4 679.416,93.482 680.198,93.88 C681.025,94.301 681.699,94.975 682.12,95.802 C682.518,96.584 682.6,97.582 682.6,101.76 L682.6,120.24 C682.6,124.418 682.518,125.416 682.12,126.198 C681.699,127.025 681.025,127.699 680.198,128.12 C679.416,128.518 678.418,128.6 674.24,128.6 L655.76,128.6 C651.582,128.6 650.584,128.518 649.802,128.12 C648.974,127.699 648.301,127.025 647.88,126.198 C647.482,125.416 647.4,124.418 647.4,120.24 L647.4,101.76 Z M643,101.76 L643,120.24 C643,125.302 643.098,126.505 643.959,128.195 C644.803,129.851 646.149,131.197 647.805,132.041 C649.495,132.902 650.698,133 655.76,133 L674.24,133 C679.302,133 680.505,132.902 682.195,132.041 C683.851,131.197 685.197,129.851 686.041,128.195 C686.902,126.505 687,125.302 687,120.24 L687,101.76 C687,96.698 686.902,95.495 686.041,93.805 C685.197,92.149 683.851,90.803 682.195,89.959 C680.505,89.098 679.302,89 674.24,89 L655.76,89 C650.698,89 649.495,89.098 647.805,89.959 C646.149,90.803 644.803,92.149 643.959,93.805 C643.098,95.495 643,96.698 643,101.76 Z" />
            <path d="M658.4,105.72 C658.4,104.622 658.422,104.358 658.4,104.4 C658.4,104.4 658.4,104.4 658.4,104.4 C658.358,104.422 658.622,104.4 659.72,104.4 L670.28,104.4 C671.378,104.4 671.642,104.422 671.6,104.4 C671.6,104.4 671.6,104.4 671.6,104.4 C671.578,104.358 671.6,104.622 671.6,105.72 L671.6,116.28 C671.6,117.378 671.578,117.642 671.6,117.6 C671.6,117.6 671.6,117.6 671.6,117.6 C671.642,117.578 671.378,117.6 670.28,117.6 L659.72,117.6 C658.622,117.6 658.358,117.578 658.4,117.6 C658.4,117.6 658.4,117.6 658.4,117.6 C658.422,117.642 658.4,117.378 658.4,116.28 L658.4,105.72 Z M654,105.72 L654,116.28 C654,118.262 654.038,118.731 654.479,119.597 C654.901,120.425 655.575,121.099 656.402,121.52 C657.269,121.962 657.738,122 659.72,122 L670.28,122 C672.262,122 672.731,121.962 673.597,121.521 C674.425,121.099 675.099,120.425 675.52,119.598 C675.962,118.731 676,118.262 676,116.28 L676,105.72 C676,103.738 675.962,103.269 675.521,102.403 C675.099,101.575 674.425,100.901 673.598,100.48 C672.731,100.038 672.262,100 670.28,100 L659.72,100 C657.738,100 657.269,100.038 656.403,100.479 C655.575,100.901 654.901,101.575 654.48,102.402 C654.038,103.269 654,103.738 654,105.72 Z" />
        </g>
    </g>
</svg>