<?xml version="1.0" encoding="UTF-8"?>
<svg height="600" width="800" xmlns="http://www.w3.org/2000/svg" xmlns:xlink="http://www.w3.org/1999/xlink">
    <g id="Notes" font-family="LucidaGrande, 'Lucida Grande', sans-serif" font-size="13">
        <rect fill="white" height="600.0" width="800.0" x="0.0" y="0.0" />
        <g font-size="13">
            <text x="18.0" y="176.0">Small</text>
            <text x="18.0" y="376.0">Medium</text>
            <text x="18.0" y="576.0">Large</text>
        </g>
        <g font-size="9">
            <text x="250.0" y="30.0">Ultralight</text>
            <text x="450.0" y="30.0">Regular</text>
            <text x="650.0" y="30.0">Black</text>
            <text id="template-version" fill="#505050" text-anchor="end" x="785.0" y="575.0">Template v.3.0</text>
            <a href="https://github.com/swhitty/SwiftDraw">
                <text fill="#505050" text-anchor="end" x="785.0" y="590.0">https://github.com/swhitty/SwiftDraw</text>
            </a>
        </g>
    </g>
    <g id="Guides" stroke="rgb(39, 170, 225)" stroke-width="0.5">
        <path id="Capline-S" d="M18,76 l800,0" />
        <path id="H-reference" d="M85,145.755 L87.685,145.755 L113.369,79.287 L114.052,79.287 L114.052,76 L112.148,76 L85,145.755 Z M95.693,121.536 L130.996,121.536 L130.263,119.313 L96.474,119.313 L95.693,121.536 Z M139.15,145.755 L141.787,145.755 L114.638,76 L113.466,76 L113.466,79.287 L139.15,145.755 Z" stroke="none" transform="translate(0,200)" />
        <path id="Baseline-S" d="M18,146 l800,0" />
        <path id="left-margin-Ultralight-M" d="M230,256 l0,110" />
        <path id="right-margin-Ultralight-M" d="M300,256 l0,110" />
        <path id="left-margin-Regular-M" d="M430,256 l0,110" />
        <path id="right-margin-Regular-M" d="M500,256 l0,110" />
        <path id="left-margin-Black-M" d="M630,256 l0,110" />
        <path id="right-margin-Black-M" d="M700,256 l0,110" />
        <path id="Capline-M" d="M18,276 l800,0" />
        <path id="Baseline-M" d="M18,346 l800,0" />
        <path id="Capline-L" d="M18,476 l800,0" />
        <path id="Baseline-L" d="M18,546 l800,0" />
    </g>
    <g id="Symbols">
        <g id="Ultralight-M" transform="translate(0,200)">
            <path d="M276.666,97.955 C269.65,91.681 258.928,92.08 252.398,98.858 C245.867,105.635 245.867,116.365 252.398,123.142 C258.928,129.92 269.65,130.319 276.666,124.045 C277.866,122.971 277.969,121.127 276.895,119.926 C275.822,118.725 273.978,118.623 272.777,119.696 C268.1,123.879 260.952,123.613 256.598,119.095 C252.245,114.576 252.245,107.424 256.598,102.905 C260.952,98.387 268.1,98.121 272.777,102.304 C273.978,103.377 275.822,103.275 276.895,102.074 C277.969,100.873 277.866,99.029 276.666,97.955 Z M247.5,118.292 L262.083,118.292 C263.694,118.292 265,116.986 265,115.375 C265,113.764 263.694,112.458 262.083,112.458 L247.5,112.458 C245.889,112.458 244.583,113.764 244.583,115.375 C244.583,116.986 245.889,118.292 247.5,118.292 Z M247.5,109.542 L262.083,109.542 C263.694,109.542 265,108.236 265,106.625 C265,105.014 263.694,103.708 262.083,103.708 L247.5,103.708 C245.889,103.708 244.583,105.014 244.583,106.625 C244.583,108.236 245.889,109.542 247.5,109.542 Z M291.25,111 C291.25,125.498 279.498,137.25 265,137.25 C250.502,137.25 238.75,125.498 238.75,111 C238.75,96.502 250.502,84.75 265,84.75 C279.498,84.75 291.25,96.502 291.25,111 Z M297.083,111 C297.083,93.28 282.72,78.917 265,78.917 C247.28,78.917 232.917,93.28 232.917,111 C232.917,128.72 247.28,143.083 265,143.083 C282.72,143.083 297.083,128.72 297.083,111 Z" />
        </g>
        <g id="Regular-M" transform="translate(0,200)">
            <path d="M476.666,97.955 C469.65,91.681 458.928,92.08 452.398,98.858 C445.867,105.635 445.867,116.365 452.398,123.142 C458.928,129.92 469.65,130.319 476.666,124.045 C477.866,122.971 477.969,121.127 476.895,119.926 C475.822,118.725 473.978,118.623 472.777,119.696 C468.1,123.879 460.952,123.613 456.598,119.095 C452.245,114.576 452.245,107.424 456.598,102.905 C460.952,98.387 468.1,98.121 472.777,102.304 C473.978,103.377 475.822,103.275 476.895,102.074 C477.969,100.873 477.866,99.029 476.666,97.955 Z M447.5,118.292 L462.083,118.292 C463.694,118.292 465,116.986 465,115.375 C465,113.764 463.694,112.458 462.083,112.458 L447.5,112.458 C445.889,112.458 444.583,113.764 444.583,115.375 C444.583,116.986 445.889,118.292 447.5,118.292 Z M447.5,109.542 L462.083,109.542 C463.694,109.542 465,108.236 465,106.625 C465,105.014 463.694,103.708 462.083,103.708 L447.5,103.708 C445.889,103.708 444.583,105.014 444.583,106.625 C444.583,108.236 445.889,109.542 447.5,109.542 Z M491.25,111 C491.25,125.498 479.498,137.25 465,137.25 C450.502,137.25 438.75,125.498 438.75,111 C438.75,96.502 450.502,84.75 465,84.75 C479.498,84.75 491.25,96.502 491.25,111 Z M497.083,111 C497.083,93.28 482.72,78.917 465,78.917 C447.28,78.917 432.917,93.28 432.917,111 C432.917,128.72 447.28,143.083 465,143.083 C482.72,143.083 497.083,128.72 497.083,111 Z" />
        </g>
        <g id="Black-M" transform="translate(0,200)">
            <path d="M676.666,97.955 C669.65,91.681 658.928,92.08 652.398,98.858 C645.867,105.635 645.867,116.365 652.398,123.142 C658.928,129.92 669.65,130.319 676.666,124.045 C677.866,122.971 677.969,121.127 676.895,119.926 C675.822,118.725 673.978,118.623 672.777,119.696 C668.1,123.879 660.952,123.613 656.598,119.095 C652.245,114.576 652.245,107.424 656.598,102.905 C660.952,98.387 668.1,98.121 672.777,102.304 C673.978,103.377 675.822,103.275 676.895,102.074 C677.969,100.873 677.866,99.029 676.666,97.955 Z M647.5,118.292 L662.083,118.292 C663.694,118.292 665,116.986 665,115.375 C665,113.764 663.694,112.458 662.083,112.458 L647.5,112.458 C645.889,112.458 644.583,113.764 644.583,115.375 C644.583,116.986 645.889,118.292 647.5,118.292 Z M647.5,109.542 L662.083,109.542 C663.694,109.542 665,108.236 665,106.625 C665,105.014 663.694,103.708 662.083,103.708 L647.5,103.708 C645.889,103.708 644.583,105.014 644.583,106.625 C644.583,108.236 645.889,109.542 647.5,109.542 Z M691.25,111 C691.25,125.498 679.498,137.25 665,137.25 C650.502,137.25 638.75,125.498 638.75,111 C638.75,96.502 650.502,84.75 665,84.75 C679.498,84.75 691.25,96.502 691.25,111 Z M697.083,111 C697.083,93.28 682.72,78.917 665,78.917 C647.28,78.917 632.917,93.28 632.917,111 C632.917,128.72 647.28,143.083 665,143.083 C682.72,143.083 697.083,128.72 697.083,111 Z" />
        </g>
    </g>
</svg>