<?xml version="1.0" encoding="UTF-8"?>
<svg height="600" width="800" xmlns="http://www.w3.org/2000/svg" xmlns:xlink="http://www.w3.org/1999/xlink">
    <g id="Notes" font-family="LucidaGrande, 'Lucida Grande', sans-serif" font-size="13">
        <rect fill="white" height="600.0" width="800.0" x="0.0" y="0.0" />
        <g font-size="13">
            <text x="18.0" y="176.0">Small</text>
            <text x="18.0" y="376.0">Medium</text>
            <text x="18.0" y="576.0">Large</text>
        </g>
        <g font-size="9">
            <text x="250.0" y="30.0">Ultralight</text>
            <text x="450.0" y="30.0">Regular</text>
            <text x="650.0" y="30.0">Black</text>
            <text id="template-version" fill="#505050" text-anchor="end" x="785.0" y="575.0">Template v.3.0</text>
            <a href="https://github.com/swhitty/SwiftDraw">
                <text fill="#505050" text-anchor="end" x="785.0" y="590.0">https://github.com/swhitty/SwiftDraw</text>
            </a>
        </g>
    </g>
    <g id="Guides" stroke="rgb(39, 170, 225)" stroke-width="0.5">
        <path id="Capline-S" d="M18,76 l800,0" />
        <path id="H-reference" d="M85,145.755 L87.685,145.755 L113.369,79.287 L114.052,79.287 L114.052,76 L112.148,76 L85,145.755 Z M95.693,121.536 L130.996,121.536 L130.263,119.313 L96.474,119.313 L95.693,121.536 Z M139.15,145.755 L141.787,145.755 L114.638,76 L113.466,76 L113.466,79.287 L139.15,145.755 Z" stroke="none" transform="translate(0,200)" />
        <path id="Baseline-S" d="M18,146 l800,0" />
        <path id="left-margin-Ultralight-M" d="M230,256 l0,110" />
        <path id="right-margin-Ultralight-M" d="M300,256 l0,110" />
        <path id="left-margin-Regular-M" d="M430,256 l0,110" />
        <path id="right-margin-Regular-M" d="M500,256 l0,110" />
        <path id="left-margin-Black-M" d="M630,256 l0,110" />
        <path id="right-margin-Black-M" d="M700,256 l0,110" />
        <path id="Capline-M" d="M18,276 l800,0" />
        <path id="Baseline-M" d="M18,346 l800,0" />
        <path id="Capline-L" d="M18,476 l800,0" />
        <path id="Baseline-L" d="M18,546 l800,0" />
    </g>
    <g id="Symbols">
        <g id="Ultralight-M" transform="translate(0,200)">
            <path d="M277.726,96.77 C270.073,89.925 258.376,90.36 251.252,97.754 C244.128,105.148 244.128,116.852 251.252,124.246 C258.376,131.64 270.073,132.075 277.726,125.23 C279.036,124.059 279.148,122.047 277.977,120.738 C276.805,119.428 274.794,119.315 273.484,120.487 C268.382,125.05 260.584,124.76 255.835,119.831 C251.085,114.901 251.085,107.099 255.835,102.169 C260.584,97.24 268.382,96.95 273.484,101.513 C274.794,102.685 276.805,102.572 277.977,101.262 C279.148,99.953 279.036,97.941 277.726,96.77 Z M245.909,118.955 L261.818,118.955 C263.575,118.955 265,117.53 265,115.773 C265,114.015 263.575,112.591 261.818,112.591 L245.909,112.591 C244.152,112.591 242.727,114.015 242.727,115.773 C242.727,117.53 244.152,118.955 245.909,118.955 Z M245.909,109.409 L261.818,109.409 C263.575,109.409 265,107.985 265,106.227 C265,104.47 263.575,103.045 261.818,103.045 L245.909,103.045 C244.152,103.045 242.727,104.47 242.727,106.227 C242.727,107.985 244.152,109.409 245.909,109.409 Z M293.636,111 C293.636,126.816 280.816,139.636 265,139.636 C249.184,139.636 236.364,126.816 236.364,111 C236.364,95.184 249.184,82.364 265,82.364 C280.816,82.364 293.636,95.184 293.636,111 Z M300,111 C300,91.67 284.33,76 265,76 C245.67,76 230,91.67 230,111 C230,130.33 245.67,146 265,146 C284.33,146 300,130.33 300,111 Z" />
        </g>
        <g id="Regular-M" transform="translate(0,200)">
            <path d="M477.726,96.77 C470.073,89.925 458.376,90.36 451.252,97.754 C444.128,105.148 444.128,116.852 451.252,124.246 C458.376,131.64 470.073,132.075 477.726,125.23 C479.036,124.059 479.148,122.047 477.977,120.738 C476.805,119.428 474.794,119.315 473.484,120.487 C468.382,125.05 460.584,124.76 455.835,119.831 C451.085,114.901 451.085,107.099 455.835,102.169 C460.584,97.24 468.382,96.95 473.484,101.513 C474.794,102.685 476.805,102.572 477.977,101.262 C479.148,99.953 479.036,97.941 477.726,96.77 Z M445.909,118.955 L461.818,118.955 C463.575,118.955 465,117.53 465,115.773 C465,114.015 463.575,112.591 461.818,112.591 L445.909,112.591 C444.152,112.591 442.727,114.015 442.727,115.773 C442.727,117.53 444.152,118.955 445.909,118.955 Z M445.909,109.409 L461.818,109.409 C463.575,109.409 465,107.985 465,106.227 C465,104.47 463.575,103.045 461.818,103.045 L445.909,103.045 C444.152,103.045 442.727,104.47 442.727,106.227 C442.727,107.985 444.152,109.409 445.909,109.409 Z M493.636,111 C493.636,126.816 480.816,139.636 465,139.636 C449.184,139.636 436.364,126.816 436.364,111 C436.364,95.184 449.184,82.364 465,82.364 C480.816,82.364 493.636,95.184 493.636,111 Z M500,111 C500,91.67 484.33,76 465,76 C445.67,76 430,91.67 430,111 C430,130.33 445.67,146 465,146 C484.33,146 500,130.33 500,111 Z" />
        </g>
        <g id="Black-M" transform="translate(0,200)">
            <path d="M677.726,96.77 C670.073,89.925 658.376,90.36 651.252,97.754 C644.128,105.148 644.128,116.852 651.252,124.246 C658.376,131.64 670.073,132.075 677.726,125.23 C679.036,124.059 679.148,122.047 677.977,120.738 C676.805,119.428 674.794,119.315 673.484,120.487 C668.382,125.05 660.584,124.76 655.835,119.831 C651.085,114.901 651.085,107.099 655.835,102.169 C660.584,97.24 668.382,96.95 673.484,101.513 C674.794,102.685 676.805,102.572 677.977,101.262 C679.148,99.953 679.036,97.941 677.726,96.77 Z M645.909,118.955 L661.818,118.955 C663.575,118.955 665,117.53 665,115.773 C665,114.015 663.575,112.591 661.818,112.591 L645.909,112.591 C644.152,112.591 642.727,114.015 642.727,115.773 C642.727,117.53 644.152,118.955 645.909,118.955 Z M645.909,109.409 L661.818,109.409 C663.575,109.409 665,107.985 665,106.227 C665,104.47 663.575,103.045 661.818,103.045 L645.909,103.045 C644.152,103.045 642.727,104.47 642.727,106.227 C642.727,107.985 644.152,109.409 645.909,109.409 Z M693.636,111 C693.636,126.816 680.816,139.636 665,139.636 C649.184,139.636 636.364,126.816 636.364,111 C636.364,95.184 649.184,82.364 665,82.364 C680.816,82.364 693.636,95.184 693.636,111 Z M700,111 C700,91.67 684.33,76 665,76 C645.67,76 630,91.67 630,111 C630,130.33 645.67,146 665,146 C684.33,146 700,130.33 700,111 Z" />
        </g>
    </g>
</svg>