<?xml version="1.0" encoding="UTF-8"?>
<svg height="600" width="800" xmlns="http://www.w3.org/2000/svg" xmlns:xlink="http://www.w3.org/1999/xlink">
    <g id="Notes" font-family="LucidaGrande, 'Lucida Grande', sans-serif" font-size="13">
        <rect fill="white" height="600.0" width="800.0" x="0.0" y="0.0" />
        <g font-size="13">
            <text x="18.0" y="176.0">Small</text>
            <text x="18.0" y="376.0">Medium</text>
            <text x="18.0" y="576.0">Large</text>
        </g>
        <g font-size="9">
            <text x="250.0" y="30.0">Ultralight</text>
            <text x="450.0" y="30.0">Regular</text>
            <text x="650.0" y="30.0">Black</text>
            <text id="template-version" fill="#505050" text-anchor="end" x="785.0" y="575.0">Template v.3.0</text>
            <a href="https://github.com/swhitty/SwiftDraw">
                <text fill="#505050" text-anchor="end" x="785.0" y="590.0">https://github.com/swhitty/SwiftDraw</text>
            </a>
        </g>
    </g>
    <g id="Guides" stroke="rgb(39, 170, 225)" stroke-width="0.5">
        <path id="Capline-S" d="M18,76 l800,0" />
        <path id="H-reference" d="M85,145.755 L87.685,145.755 L113.369,79.287 L114.052,79.287 L114.052,76 L112.148,76 L85,145.755 Z M95.693,121.536 L130.996,121.536 L130.263,119.313 L96.474,119.313 L95.693,121.536 Z M139.15,145.755 L141.787,145.755 L114.638,76 L113.466,76 L113.466,79.287 L139.15,145.755 Z" stroke="none" transform="translate(0,200)" />
        <path id="Baseline-S" d="M18,146 l800,0" />
        <path id="left-margin-Ultralight-M" d="M226.5,256 l0,110" />
        <path id="right-margin-Ultralight-M" d="M303.5,256 l0,110" />
        <path id="left-margin-Regular-M" d="M426.5,256 l0,110" />
        <path id="right-margin-Regular-M" d="M503.5,256 l0,110" />
        <path id="left-margin-Black-M" d="M626.5,256 l0,110" />
        <path id="right-margin-Black-M" d="M703.5,256 l0,110" />
        <path id="Capline-M" d="M18,276 l800,0" />
        <path id="Baseline-M" d="M18,346 l800,0" />
        <path id="Capline-L" d="M18,476 l800,0" />
        <path id="Baseline-L" d="M18,546 l800,0" />
    </g>
    <g id="Symbols">
        <g id="Ultralight-M" transform="translate(0,200)">
            <path d="M281.475,134.475 L291.975,123.975 C293.342,122.608 293.342,120.392 291.975,119.025 C290.608,117.658 288.392,117.658 287.025,119.025 L276.525,129.525 C275.158,130.892 275.158,133.108 276.525,134.475 C277.892,135.842 280.108,135.842 281.475,134.475 Z M287.025,123.975 L297.525,134.475 C298.892,135.842 301.108,135.842 302.475,134.475 C303.842,133.108 303.842,130.892 302.475,129.525 L291.975,119.025 C290.608,117.658 288.392,117.658 287.025,119.025 C285.658,120.392 285.658,122.608 287.025,123.975 Z M286,121.5 L286,142.5 C286,144.433 287.567,146 289.5,146 C291.433,146 293,144.433 293,142.5 L293,121.5 C293,119.567 291.433,118 289.5,118 C287.567,118 286,119.567 286,121.5 Z M265,119.75 L249.25,119.75 C242.705,119.75 241.142,119.83 238.922,120.502 C233.327,122.199 228.949,126.577 227.253,132.171 C226.58,134.392 226.5,135.955 226.5,142.5 C226.5,144.433 228.067,146 230,146 C231.933,146 233.5,144.433 233.5,142.5 C233.5,136.833 233.57,135.461 233.952,134.201 C234.969,130.846 237.596,128.219 240.952,127.201 C242.211,126.82 243.583,126.75 249.25,126.75 L265,126.75 C266.933,126.75 268.5,125.183 268.5,123.25 C268.5,121.317 266.933,119.75 265,119.75 Z M270.25,95.25 C270.25,102.015 264.765,107.5 258,107.5 C251.235,107.5 245.75,102.015 245.75,95.25 C245.75,88.485 251.235,83 258,83 C264.766,83 270.25,88.485 270.25,95.25 Z M277.25,95.25 C277.25,84.619 268.631,76 258,76 C247.369,76 238.75,84.619 238.75,95.25 C238.75,105.881 247.369,114.5 258,114.5 C268.631,114.5 277.25,105.881 277.25,95.25 Z" />
        </g>
        <g id="Regular-M" transform="translate(0,200)">
            <path d="M481.475,134.475 L491.975,123.975 C493.342,122.608 493.342,120.392 491.975,119.025 C490.608,117.658 488.392,117.658 487.025,119.025 L476.525,129.525 C475.158,130.892 475.158,133.108 476.525,134.475 C477.892,135.842 480.108,135.842 481.475,134.475 Z M487.025,123.975 L497.525,134.475 C498.892,135.842 501.108,135.842 502.475,134.475 C503.842,133.108 503.842,130.892 502.475,129.525 L491.975,119.025 C490.608,117.658 488.392,117.658 487.025,119.025 C485.658,120.392 485.658,122.608 487.025,123.975 Z M486,121.5 L486,142.5 C486,144.433 487.567,146 489.5,146 C491.433,146 493,144.433 493,142.5 L493,121.5 C493,119.567 491.433,118 489.5,118 C487.567,118 486,119.567 486,121.5 Z M465,119.75 L449.25,119.75 C442.705,119.75 441.142,119.83 438.922,120.502 C433.327,122.199 428.949,126.577 427.253,132.171 C426.58,134.392 426.5,135.955 426.5,142.5 C426.5,144.433 428.067,146 430,146 C431.933,146 433.5,144.433 433.5,142.5 C433.5,136.833 433.57,135.461 433.952,134.201 C434.969,130.846 437.596,128.219 440.952,127.201 C442.211,126.82 443.583,126.75 449.25,126.75 L465,126.75 C466.933,126.75 468.5,125.183 468.5,123.25 C468.5,121.317 466.933,119.75 465,119.75 Z M470.25,95.25 C470.25,102.015 464.765,107.5 458,107.5 C451.234,107.5 445.75,102.015 445.75,95.25 C445.75,88.485 451.235,83 458,83 C464.766,83 470.25,88.485 470.25,95.25 Z M477.25,95.25 C477.25,84.619 468.631,76 458,76 C447.369,76 438.75,84.619 438.75,95.25 C438.75,105.881 447.369,114.5 458,114.5 C468.631,114.5 477.25,105.881 477.25,95.25 Z" />
        </g>
        <g id="Black-M" transform="translate(0,200)">
            <path d="M681.475,134.475 L691.975,123.975 C693.342,122.608 693.342,120.392 691.975,119.025 C690.608,117.658 688.392,117.658 687.025,119.025 L676.525,129.525 C675.158,130.892 675.158,133.108 676.525,134.475 C677.892,135.842 680.108,135.842 681.475,134.475 Z M687.025,123.975 L697.525,134.475 C698.892,135.842 701.108,135.842 702.475,134.475 C703.842,133.108 703.842,130.892 702.475,129.525 L691.975,119.025 C690.608,117.658 688.392,117.658 687.025,119.025 C685.658,120.392 685.658,122.608 687.025,123.975 Z M686,121.5 L686,142.5 C686,144.433 687.567,146 689.5,146 C691.433,146 693,144.433 693,142.5 L693,121.5 C693,119.567 691.433,118 689.5,118 C687.567,118 686,119.567 686,121.5 Z M665,119.75 L649.25,119.75 C642.705,119.75 641.142,119.83 638.922,120.502 C633.327,122.199 628.949,126.577 627.253,132.171 C626.58,134.392 626.5,135.955 626.5,142.5 C626.5,144.433 628.067,146 630,146 C631.933,146 633.5,144.433 633.5,142.5 C633.5,136.833 633.57,135.461 633.952,134.201 C634.969,130.846 637.596,128.219 640.952,127.201 C642.211,126.82 643.583,126.75 649.25,126.75 L665,126.75 C666.933,126.75 668.5,125.183 668.5,123.25 C668.5,121.317 666.933,119.75 665,119.75 Z M670.25,95.25 C670.25,102.015 664.766,107.5 658,107.5 C651.234,107.5 645.75,102.015 645.75,95.25 C645.75,88.485 651.234,83 658,83 C664.766,83 670.25,88.485 670.25,95.25 Z M677.25,95.25 C677.25,84.619 668.631,76 658,76 C647.369,76 638.75,84.619 638.75,95.25 C638.75,105.881 647.369,114.5 658,114.5 C668.631,114.5 677.25,105.881 677.25,95.25 Z" />
        </g>
    </g>
</svg>