<?xml version="1.0" encoding="UTF-8"?>
<svg height="600" width="800" xmlns="http://www.w3.org/2000/svg" xmlns:xlink="http://www.w3.org/1999/xlink">
    <g id="Notes" font-family="LucidaGrande, 'Lucida Grande', sans-serif" font-size="13">
        <rect fill="white" height="600.0" width="800.0" x="0.0" y="0.0" />
        <g font-size="13">
            <text x="18.0" y="176.0">Small</text>
            <text x="18.0" y="376.0">Medium</text>
            <text x="18.0" y="576.0">Large</text>
        </g>
        <g font-size="9">
            <text x="250.0" y="30.0">Ultralight</text>
            <text x="450.0" y="30.0">Regular</text>
            <text x="650.0" y="30.0">Black</text>
            <text id="template-version" fill="#505050" text-anchor="end" x="785.0" y="575.0">Template v.3.0</text>
            <a href="https://github.com/swhitty/SwiftDraw">
                <text fill="#505050" text-anchor="end" x="785.0" y="590.0">https://github.com/swhitty/SwiftDraw</text>
            </a>
        </g>
    </g>
    <g id="Guides" stroke="rgb(39, 170, 225)" stroke-width="0.5">
        <path id="Capline-S" d="M18,76 l800,0" />
        <path id="H-reference" d="M85,145.755 L87.685,145.755 L113.369,79.287 L114.052,79.287 L114.052,76 L112.148,76 L85,145.755 Z M95.693,121.536 L130.996,121.536 L130.263,119.313 L96.474,119.313 L95.693,121.536 Z M139.15,145.755 L141.787,145.755 L114.638,76 L113.466,76 L113.466,79.287 L139.15,145.755 Z" stroke="none" transform="translate(0,200)" />
        <path id="Baseline-S" d="M18,146 l800,0" />
        <path id="left-margin-Ultralight-M" d="M230,256 l0,110" />
        <path id="right-margin-Ultralight-M" d="M300,256 l0,110" />
        <path id="left-margin-Regular-M" d="M430,256 l0,110" />
        <path id="right-margin-Regular-M" d="M500,256 l0,110" />
        <path id="left-margin-Black-M" d="M630,256 l0,110" />
        <path id="right-margin-Black-M" d="M700,256 l0,110" />
        <path id="Capline-M" d="M18,276 l800,0" />
        <path id="Baseline-M" d="M18,346 l800,0" />
        <path id="Capline-L" d="M18,476 l800,0" />
        <path id="Baseline-L" d="M18,546 l800,0" />
    </g>
    <g id="Symbols">
        <g id="Ultralight-M" transform="translate(0,200)">
            <path d="M298.975,140.025 L286.725,127.775 C285.358,126.408 283.142,126.408 281.775,127.775 C280.408,129.142 280.408,131.358 281.775,132.725 L294.025,144.975 C295.392,146.342 297.608,146.342 298.975,144.975 C300.342,143.608 300.342,141.392 298.975,140.025 Z M289.5,109.25 C289.5,123.747 277.747,135.5 263.25,135.5 C248.753,135.5 237,123.747 237,109.25 C237,94.753 248.753,83 263.25,83 C277.747,83 289.5,94.753 289.5,109.25 Z M296.5,109.25 C296.5,90.887 281.613,76 263.25,76 C244.887,76 230,90.887 230,109.25 C230,127.613 244.887,142.5 263.25,142.5 C281.613,142.5 296.5,127.613 296.5,109.25 Z" />
        </g>
        <g id="Regular-M" transform="translate(0,200)">
            <path d="M498.975,140.025 L486.725,127.775 C485.358,126.408 483.142,126.408 481.775,127.775 C480.408,129.142 480.408,131.358 481.775,132.725 L494.025,144.975 C495.392,146.342 497.608,146.342 498.975,144.975 C500.342,143.608 500.342,141.392 498.975,140.025 Z M489.5,109.25 C489.5,123.747 477.747,135.5 463.25,135.5 C448.753,135.5 437,123.747 437,109.25 C437,94.753 448.753,83 463.25,83 C477.747,83 489.5,94.753 489.5,109.25 Z M496.5,109.25 C496.5,90.887 481.613,76 463.25,76 C444.887,76 430,90.887 430,109.25 C430,127.613 444.887,142.5 463.25,142.5 C481.613,142.5 496.5,127.613 496.5,109.25 Z" />
        </g>
        <g id="Black-M" transform="translate(0,200)">
            <path d="M698.975,140.025 L686.725,127.775 C685.358,126.408 683.142,126.408 681.775,127.775 C680.408,129.142 680.408,131.358 681.775,132.725 L694.025,144.975 C695.392,146.342 697.608,146.342 698.975,144.975 C700.342,143.608 700.342,141.392 698.975,140.025 Z M689.5,109.25 C689.5,123.747 677.747,135.5 663.25,135.5 C648.753,135.5 637,123.747 637,109.25 C637,94.753 648.753,83 663.25,83 C677.747,83 689.5,94.753 689.5,109.25 Z M696.5,109.25 C696.5,90.887 681.613,76 663.25,76 C644.887,76 630,90.887 630,109.25 C630,127.613 644.887,142.5 663.25,142.5 C681.613,142.5 696.5,127.613 696.5,109.25 Z" />
        </g>
    </g>
</svg>