<?xml version="1.0" encoding="UTF-8"?>
<svg height="600" width="800" xmlns="http://www.w3.org/2000/svg" xmlns:xlink="http://www.w3.org/1999/xlink">
    <g id="Notes" font-family="LucidaGrande, 'Lucida Grande', sans-serif" font-size="13">
        <rect fill="white" height="600.0" width="800.0" x="0.0" y="0.0" />
        <g font-size="13">
            <text x="18.0" y="176.0">Small</text>
            <text x="18.0" y="376.0">Medium</text>
            <text x="18.0" y="576.0">Large</text>
        </g>
        <g font-size="9">
            <text x="250.0" y="30.0">Ultralight</text>
            <text x="450.0" y="30.0">Regular</text>
            <text x="650.0" y="30.0">Black</text>
            <text id="template-version" fill="#505050" text-anchor="end" x="785.0" y="575.0">Template v.3.0</text>
            <a href="https://github.com/swhitty/SwiftDraw">
                <text fill="#505050" text-anchor="end" x="785.0" y="590.0">https://github.com/swhitty/SwiftDraw</text>
            </a>
        </g>
    </g>
    <g id="Guides" stroke="rgb(39, 170, 225)" stroke-width="0.5">
        <path id="Capline-S" d="M18,76 l800,0" />
        <path id="H-reference" d="M85,145.755 L87.685,145.755 L113.369,79.287 L114.052,79.287 L114.052,76 L112.148,76 L85,145.755 Z M95.693,121.536 L130.996,121.536 L130.263,119.313 L96.474,119.313 L95.693,121.536 Z M139.15,145.755 L141.787,145.755 L114.638,76 L113.466,76 L113.466,79.287 L139.15,145.755 Z" stroke="none" transform="translate(0,200)" />
        <path id="Baseline-S" d="M18,146 l800,0" />
        <path id="left-margin-Ultralight-M" d="M221,256 l0,110" />
        <path id="right-margin-Ultralight-M" d="M309,256 l0,110" />
        <path id="left-margin-Regular-M" d="M421,256 l0,110" />
        <path id="right-margin-Regular-M" d="M509,256 l0,110" />
        <path id="left-margin-Black-M" d="M621,256 l0,110" />
        <path id="right-margin-Black-M" d="M709,256 l0,110" />
        <path id="Capline-M" d="M18,276 l800,0" />
        <path id="Baseline-M" d="M18,346 l800,0" />
        <path id="Capline-L" d="M18,476 l800,0" />
        <path id="Baseline-L" d="M18,546 l800,0" />
    </g>
    <g id="Symbols">
        <g id="Ultralight-M" transform="translate(0,200)">
            <path d="M287,130.8 L287,91.2 C287,89.985 286.015,89 284.8,89 C283.585,89 282.6,89.985 282.6,91.2 L282.6,130.8 C282.6,132.015 283.585,133 284.8,133 C286.015,133 287,132.015 287,130.8 Z M247.4,130.8 L247.4,91.2 C247.4,89.985 246.415,89 245.2,89 C243.985,89 243,89.985 243,91.2 L243,130.8 C243,132.015 243.985,133 245.2,133 C246.415,133 247.4,132.015 247.4,130.8 Z M256.2,102.2 L256.2,119.8 C256.2,122.732 256.247,123.428 256.702,124.525 C257.372,126.143 258.657,127.428 260.276,128.098 C261.372,128.553 262.068,128.6 265,128.6 C267.932,128.6 268.628,128.553 269.725,128.098 C271.343,127.428 272.628,126.143 273.298,124.524 C273.753,123.428 273.8,122.732 273.8,119.8 L273.8,102.2 C273.8,99.268 273.753,98.572 273.298,97.475 C272.628,95.857 271.343,94.572 269.724,93.902 C268.628,93.447 267.932,93.4 265,93.4 C262.068,93.4 261.372,93.447 260.275,93.902 C258.657,94.572 257.372,95.857 256.702,97.476 C256.247,98.572 256.2,99.268 256.2,102.2 Z M260.6,102.2 C260.6,100.006 260.636,99.475 260.767,99.159 C260.99,98.619 261.419,98.19 261.958,97.967 C262.275,97.836 262.806,97.8 265,97.8 C267.194,97.8 267.725,97.836 268.041,97.967 C268.581,98.19 269.01,98.619 269.233,99.158 C269.364,99.475 269.4,100.006 269.4,102.2 L269.4,119.8 C269.4,121.994 269.364,122.525 269.233,122.841 C269.01,123.381 268.581,123.81 268.042,124.033 C267.725,124.164 267.194,124.2 265,124.2 C262.806,124.2 262.275,124.164 261.959,124.033 C261.419,123.81 260.99,123.381 260.767,122.842 C260.636,122.525 260.6,121.994 260.6,119.8 L260.6,102.2 Z" />
        </g>
        <g id="Regular-M" transform="translate(0,200)">
            <path d="M487,130.8 L487,91.2 C487,89.985 486.015,89 484.8,89 C483.585,89 482.6,89.985 482.6,91.2 L482.6,130.8 C482.6,132.015 483.585,133 484.8,133 C486.015,133 487,132.015 487,130.8 Z M447.4,130.8 L447.4,91.2 C447.4,89.985 446.415,89 445.2,89 C443.985,89 443,89.985 443,91.2 L443,130.8 C443,132.015 443.985,133 445.2,133 C446.415,133 447.4,132.015 447.4,130.8 Z M456.2,102.2 L456.2,119.8 C456.2,122.732 456.247,123.428 456.702,124.525 C457.372,126.143 458.657,127.428 460.276,128.098 C461.372,128.553 462.068,128.6 465,128.6 C467.932,128.6 468.628,128.553 469.725,128.098 C471.343,127.428 472.628,126.143 473.298,124.524 C473.753,123.428 473.8,122.732 473.8,119.8 L473.8,102.2 C473.8,99.268 473.753,98.572 473.298,97.475 C472.628,95.857 471.343,94.572 469.724,93.902 C468.628,93.447 467.932,93.4 465,93.4 C462.068,93.4 461.372,93.447 460.275,93.902 C458.657,94.572 457.372,95.857 456.702,97.476 C456.247,98.572 456.2,99.268 456.2,102.2 Z M460.6,102.2 C460.6,100.006 460.636,99.475 460.767,99.159 C460.99,98.619 461.419,98.19 461.958,97.967 C462.275,97.836 462.806,97.8 465,97.8 C467.194,97.8 467.725,97.836 468.041,97.967 C468.581,98.19 469.01,98.619 469.233,99.158 C469.364,99.475 469.4,100.006 469.4,102.2 L469.4,119.8 C469.4,121.994 469.364,122.525 469.233,122.841 C469.01,123.381 468.581,123.81 468.042,124.033 C467.725,124.164 467.194,124.2 465,124.2 C462.806,124.2 462.275,124.164 461.959,124.033 C461.419,123.81 460.99,123.381 460.767,122.842 C460.636,122.525 460.6,121.994 460.6,119.8 L460.6,102.2 Z" />
        </g>
        <g id="Black-M" transform="translate(0,200)">
            <path d="M687,130.8 L687,91.2 C687,89.985 686.015,89 684.8,89 C683.585,89 682.6,89.985 682.6,91.2 L682.6,130.8 C682.6,132.015 683.585,133 684.8,133 C686.015,133 687,132.015 687,130.8 Z M647.4,130.8 L647.4,91.2 C647.4,89.985 646.415,89 645.2,89 C643.985,89 643,89.985 643,91.2 L643,130.8 C643,132.015 643.985,133 645.2,133 C646.415,133 647.4,132.015 647.4,130.8 Z M656.2,102.2 L656.2,119.8 C656.2,122.732 656.247,123.428 656.702,124.525 C657.372,126.143 658.657,127.428 660.276,128.098 C661.372,128.553 662.068,128.6 665,128.6 C667.932,128.6 668.628,128.553 669.725,128.098 C671.343,127.428 672.628,126.143 673.298,124.524 C673.753,123.428 673.8,122.732 673.8,119.8 L673.8,102.2 C673.8,99.268 673.753,98.572 673.298,97.475 C672.628,95.857 671.343,94.572 669.724,93.902 C668.628,93.447 667.932,93.4 665,93.4 C662.068,93.4 661.372,93.447 660.275,93.902 C658.657,94.572 657.372,95.857 656.702,97.476 C656.247,98.572 656.2,99.268 656.2,102.2 Z M660.6,102.2 C660.6,100.006 660.636,99.475 660.767,99.159 C660.99,98.619 661.419,98.19 661.958,97.967 C662.274,97.836 662.806,97.8 665,97.8 C667.194,97.8 667.725,97.836 668.041,97.967 C668.581,98.19 669.01,98.619 669.233,99.158 C669.364,99.475 669.4,100.006 669.4,102.2 L669.4,119.8 C669.4,121.994 669.364,122.525 669.233,122.841 C669.01,123.381 668.581,123.81 668.042,124.033 C667.725,124.164 667.194,124.2 665,124.2 C662.806,124.2 662.274,124.164 661.959,124.033 C661.419,123.81 660.99,123.381 660.767,122.842 C660.636,122.525 660.6,121.994 660.6,119.8 L660.6,102.2 Z" />
        </g>
    </g>
</svg>