<?xml version="1.0" encoding="UTF-8"?>
<svg height="600" width="800" xmlns="http://www.w3.org/2000/svg" xmlns:xlink="http://www.w3.org/1999/xlink">
    <g id="Notes" font-family="LucidaGrande, 'Lucida Grande', sans-serif" font-size="13">
        <rect fill="white" height="600.0" width="800.0" x="0.0" y="0.0" />
        <g font-size="13">
            <text x="18.0" y="176.0">Small</text>
            <text x="18.0" y="376.0">Medium</text>
            <text x="18.0" y="576.0">Large</text>
        </g>
        <g font-size="9">
            <text x="250.0" y="30.0">Ultralight</text>
            <text x="450.0" y="30.0">Regular</text>
            <text x="650.0" y="30.0">Black</text>
            <text id="template-version" fill="#505050" text-anchor="end" x="785.0" y="575.0">Template v.3.0</text>
            <a href="https://github.com/swhitty/SwiftDraw">
                <text fill="#505050" text-anchor="end" x="785.0" y="590.0">https://github.com/swhitty/SwiftDraw</text>
            </a>
        </g>
    </g>
    <g id="Guides" stroke="rgb(39, 170, 225)" stroke-width="0.5">
        <path id="Capline-S" d="M18,76 l800,0" />
        <path id="H-reference" d="M85,145.755 L87.685,145.755 L113.369,79.287 L114.052,79.287 L114.052,76 L112.148,76 L85,145.755 Z M95.693,121.536 L130.996,121.536 L130.263,119.313 L96.474,119.313 L95.693,121.536 Z M139.15,145.755 L141.787,145.755 L114.638,76 L113.466,76 L113.466,79.287 L139.15,145.755 Z" stroke="none" transform="translate(0,200)" />
        <path id="Baseline-S" d="M18,146 l800,0" />
        <path id="left-margin-Ultralight-M" d="M230,256 l0,110" />
        <path id="right-margin-Ultralight-M" d="M300,256 l0,110" />
        <path id="left-margin-Regular-M" d="M430,256 l0,110" />
        <path id="right-margin-Regular-M" d="M500,256 l0,110" />
        <path id="left-margin-Black-M" d="M630,256 l0,110" />
        <path id="right-margin-Black-M" d="M700,256 l0,110" />
        <path id="Capline-M" d="M18,276 l800,0" />
        <path id="Baseline-M" d="M18,346 l800,0" />
        <path id="Capline-L" d="M18,476 l800,0" />
        <path id="Baseline-L" d="M18,546 l800,0" />
    </g>
    <g id="Symbols">
        <g id="Ultralight-M" transform="translate(0,200)">
            <path d="M234.872,146 L295.128,146 C296.977,146 298.476,144.501 298.476,142.652 C298.476,140.804 296.977,139.305 295.128,139.305 L234.872,139.305 C233.023,139.305 231.524,140.804 231.524,142.652 C231.524,144.501 233.023,146 234.872,146 Z M248.262,132.61 L248.262,105.829 C248.262,103.98 246.763,102.481 244.914,102.481 C243.066,102.481 241.567,103.98 241.567,105.829 L241.567,132.61 C241.567,134.458 243.066,135.957 244.914,135.957 C246.763,135.957 248.262,134.458 248.262,132.61 Z M261.652,132.61 L261.652,105.829 C261.652,103.98 260.154,102.481 258.305,102.481 C256.456,102.481 254.957,103.98 254.957,105.829 L254.957,132.61 C254.957,134.458 256.456,135.957 258.305,135.957 C260.154,135.957 261.652,134.458 261.652,132.61 Z M275.043,132.61 L275.043,105.829 C275.043,103.98 273.544,102.481 271.695,102.481 C269.846,102.481 268.348,103.98 268.348,105.829 L268.348,132.61 C268.348,134.458 269.846,135.957 271.695,135.957 C273.544,135.957 275.043,134.458 275.043,132.61 Z M288.433,132.61 L288.433,105.829 C288.433,103.98 286.934,102.481 285.086,102.481 C283.237,102.481 281.738,103.98 281.738,105.829 L281.738,132.61 C281.738,134.458 283.237,135.957 285.086,135.957 C286.934,135.957 288.433,134.458 288.433,132.61 Z M293.555,92.947 L268.194,77.096 C267.248,76.507 267.021,76.38 266.372,76.192 C266.247,76.157 266.247,76.157 266.119,76.126 C265.381,75.958 264.619,75.958 263.885,76.125 C263.115,76.304 262.791,76.479 261.801,77.099 L236.445,92.947 C233.593,94.73 234.856,99.134 238.219,99.134 L291.781,99.134 C295.144,99.134 296.407,94.73 293.555,92.947 Z M290.007,98.625 L291.781,92.438 L238.219,92.438 L239.993,98.625 L265.355,82.774 C265.62,82.607 265.657,82.587 265.384,82.651 C265.127,82.709 264.873,82.709 264.628,82.653 C264.565,82.638 264.565,82.638 264.507,82.622 C264.297,82.561 264.365,82.599 264.648,82.776 L290.007,98.625 Z" />
        </g>
        <g id="Regular-M" transform="translate(0,200)">
            <path d="M434.872,146 L495.128,146 C496.977,146 498.476,144.501 498.476,142.652 C498.476,140.804 496.977,139.305 495.128,139.305 L434.872,139.305 C433.023,139.305 431.524,140.804 431.524,142.652 C431.524,144.501 433.023,146 434.872,146 Z M448.262,132.61 L448.262,105.829 C448.262,103.98 446.763,102.481 444.914,102.481 C443.066,102.481 441.567,103.98 441.567,105.829 L441.567,132.61 C441.567,134.458 443.066,135.957 444.914,135.957 C446.763,135.957 448.262,134.458 448.262,132.61 Z M461.652,132.61 L461.652,105.829 C461.652,103.98 460.154,102.481 458.305,102.481 C456.456,102.481 454.957,103.98 454.957,105.829 L454.957,132.61 C454.957,134.458 456.456,135.957 458.305,135.957 C460.154,135.957 461.652,134.458 461.652,132.61 Z M475.043,132.61 L475.043,105.829 C475.043,103.98 473.544,102.481 471.695,102.481 C469.846,102.481 468.348,103.98 468.348,105.829 L468.348,132.61 C468.348,134.458 469.846,135.957 471.695,135.957 C473.544,135.957 475.043,134.458 475.043,132.61 Z M488.433,132.61 L488.433,105.829 C488.433,103.98 486.934,102.481 485.086,102.481 C483.237,102.481 481.738,103.98 481.738,105.829 L481.738,132.61 C481.738,134.458 483.237,135.957 485.086,135.957 C486.934,135.957 488.433,134.458 488.433,132.61 Z M493.555,92.947 L468.194,77.096 C467.248,76.507 467.021,76.38 466.372,76.192 C466.247,76.157 466.247,76.157 466.119,76.126 C465.381,75.958 464.619,75.958 463.885,76.125 C463.115,76.304 462.791,76.479 461.801,77.099 L436.445,92.947 C433.593,94.73 434.856,99.134 438.219,99.134 L491.781,99.134 C495.144,99.134 496.407,94.73 493.555,92.947 Z M490.007,98.625 L491.781,92.438 L438.219,92.438 L439.993,98.625 L465.355,82.774 C465.62,82.607 465.657,82.587 465.384,82.651 C465.127,82.709 464.873,82.709 464.628,82.653 C464.565,82.638 464.565,82.638 464.507,82.622 C464.297,82.561 464.365,82.599 464.648,82.776 L490.007,98.625 Z" />
        </g>
        <g id="Black-M" transform="translate(0,200)">
            <path d="M634.872,146 L695.128,146 C696.977,146 698.476,144.501 698.476,142.652 C698.476,140.804 696.977,139.305 695.128,139.305 L634.872,139.305 C633.023,139.305 631.524,140.804 631.524,142.652 C631.524,144.501 633.023,146 634.872,146 Z M648.262,132.61 L648.262,105.829 C648.262,103.98 646.763,102.481 644.914,102.481 C643.066,102.481 641.567,103.98 641.567,105.829 L641.567,132.61 C641.567,134.458 643.066,135.957 644.914,135.957 C646.763,135.957 648.262,134.458 648.262,132.61 Z M661.652,132.61 L661.652,105.829 C661.652,103.98 660.154,102.481 658.305,102.481 C656.456,102.481 654.957,103.98 654.957,105.829 L654.957,132.61 C654.957,134.458 656.456,135.957 658.305,135.957 C660.154,135.957 661.652,134.458 661.652,132.61 Z M675.043,132.61 L675.043,105.829 C675.043,103.98 673.544,102.481 671.695,102.481 C669.846,102.481 668.348,103.98 668.348,105.829 L668.348,132.61 C668.348,134.458 669.846,135.957 671.695,135.957 C673.544,135.957 675.043,134.458 675.043,132.61 Z M688.433,132.61 L688.433,105.829 C688.433,103.98 686.934,102.481 685.086,102.481 C683.237,102.481 681.738,103.98 681.738,105.829 L681.738,132.61 C681.738,134.458 683.237,135.957 685.086,135.957 C686.934,135.957 688.433,134.458 688.433,132.61 Z M693.555,92.947 L668.194,77.096 C667.248,76.507 667.021,76.38 666.372,76.192 C666.247,76.157 666.247,76.157 666.119,76.126 C665.381,75.958 664.619,75.958 663.885,76.125 C663.115,76.304 662.791,76.479 661.801,77.099 L636.445,92.947 C633.593,94.73 634.856,99.134 638.219,99.134 L691.781,99.134 C695.144,99.134 696.407,94.73 693.555,92.947 Z M690.007,98.625 L691.781,92.438 L638.219,92.438 L639.993,98.625 L665.355,82.774 C665.62,82.607 665.657,82.587 665.384,82.651 C665.127,82.709 664.873,82.709 664.628,82.653 C664.565,82.638 664.565,82.638 664.507,82.622 C664.297,82.561 664.365,82.599 664.648,82.776 L690.007,98.625 Z" />
        </g>
    </g>
</svg>