<?xml version="1.0" encoding="UTF-8"?>
<svg height="600" width="800" xmlns="http://www.w3.org/2000/svg" xmlns:xlink="http://www.w3.org/1999/xlink">
    <g id="Notes" font-family="LucidaGrande, 'Lucida Grande', sans-serif" font-size="13">
        <rect fill="white" height="600.0" width="800.0" x="0.0" y="0.0" />
        <g font-size="13">
            <text x="18.0" y="176.0">Small</text>
            <text x="18.0" y="376.0">Medium</text>
            <text x="18.0" y="576.0">Large</text>
        </g>
        <g font-size="9">
            <text x="250.0" y="30.0">Ultralight</text>
            <text x="450.0" y="30.0">Regular</text>
            <text x="650.0" y="30.0">Black</text>
            <text id="template-version" fill="#505050" text-anchor="end" x="785.0" y="575.0">Template v.3.0</text>
            <a href="https://github.com/swhitty/SwiftDraw">
                <text fill="#505050" text-anchor="end" x="785.0" y="590.0">https://github.com/swhitty/SwiftDraw</text>
            </a>
        </g>
    </g>
    <g id="Guides" stroke="rgb(39, 170, 225)" stroke-width="0.5">
        <path id="Capline-S" d="M18,76 l800,0" />
        <path id="H-reference" d="M85,145.755 L87.685,145.755 L113.369,79.287 L114.052,79.287 L114.052,76 L112.148,76 L85,145.755 Z M95.693,121.536 L130.996,121.536 L130.263,119.313 L96.474,119.313 L95.693,121.536 Z M139.15,145.755 L141.787,145.755 L114.638,76 L113.466,76 L113.466,79.287 L139.15,145.755 Z" stroke="none" transform="translate(0,200)" />
        <path id="Baseline-S" d="M18,146 l800,0" />
        <path id="left-margin-Ultralight-M" d="M230,256 l0,110" />
        <path id="right-margin-Ultralight-M" d="M300,256 l0,110" />
        <path id="left-margin-Regular-M" d="M430,256 l0,110" />
        <path id="right-margin-Regular-M" d="M500,256 l0,110" />
        <path id="left-margin-Black-M" d="M630,256 l0,110" />
        <path id="right-margin-Black-M" d="M700,256 l0,110" />
        <path id="Capline-M" d="M18,276 l800,0" />
        <path id="Baseline-M" d="M18,346 l800,0" />
        <path id="Capline-L" d="M18,476 l800,0" />
        <path id="Baseline-L" d="M18,546 l800,0" />
    </g>
    <g id="Symbols">
        <g id="Ultralight-M" transform="translate(0,200)">
            <path d="M255.455,142.5 L255.455,93.5 C255.455,89.823 255.492,88.925 255.671,88.189 C256.259,85.773 257.974,83.885 260.17,83.238 C260.84,83.041 261.655,83 265,83 C268.345,83 269.16,83.041 269.833,83.239 C272.024,83.886 273.738,85.773 274.326,88.189 C274.508,88.93 274.545,89.826 274.545,93.5 L274.545,142.5 C274.545,144.433 275.97,146 277.727,146 C279.485,146 280.909,144.433 280.909,142.5 L280.909,93.5 C280.909,89.036 280.865,87.972 280.471,86.371 C279.298,81.548 275.87,77.774 271.479,76.477 C270.021,76.048 269.053,76 265,76 C260.947,76 259.979,76.048 258.525,76.475 C254.13,77.772 250.699,81.547 249.524,86.379 C249.135,87.976 249.091,89.04 249.091,93.5 L249.091,142.5 C249.091,144.433 250.515,146 252.273,146 C254.03,146 255.455,144.433 255.455,142.5 Z M243.364,146 L286.636,146 C291.73,146 292.939,145.891 294.788,144.856 C296.584,143.849 298.044,142.243 298.96,140.267 C299.901,138.233 300,136.903 300,131.3 L300,104.7 C300,99.097 299.901,97.767 298.96,95.733 C298.044,93.757 296.584,92.151 294.788,91.144 C292.939,90.109 291.73,90 286.636,90 L243.364,90 C238.27,90 237.061,90.109 235.212,91.144 C233.416,92.151 231.956,93.757 231.04,95.733 C230.099,97.767 230,99.097 230,104.7 L230,131.3 C230,136.903 230.099,138.233 231.04,140.267 C231.956,142.243 233.416,143.849 235.212,144.855 C237.061,145.891 238.27,146 243.364,146 Z M243.364,139 C239.548,139 238.635,138.918 238.1,138.618 C237.502,138.283 237.016,137.748 236.71,137.089 C236.438,136.501 236.364,135.497 236.364,131.3 L236.364,104.7 C236.364,100.503 236.438,99.499 236.711,98.911 C237.016,98.252 237.502,97.717 238.101,97.382 C238.635,97.082 239.548,97 243.364,97 L286.636,97 C290.452,97 291.365,97.082 291.9,97.382 C292.498,97.717 292.984,98.252 293.29,98.911 C293.562,99.499 293.636,100.503 293.636,104.7 L293.636,131.3 C293.636,135.497 293.562,136.501 293.289,137.089 C292.984,137.748 292.498,138.283 291.899,138.618 C291.365,138.918 290.452,139 286.636,139 L243.364,139 Z" />
        </g>
        <g id="Regular-M" transform="translate(0,200)">
            <path d="M455.455,142.5 L455.455,93.5 C455.455,89.823 455.492,88.925 455.671,88.189 C456.259,85.773 457.974,83.885 460.17,83.238 C460.84,83.041 461.655,83 465,83 C468.345,83 469.16,83.041 469.833,83.239 C472.024,83.886 473.738,85.773 474.326,88.189 C474.508,88.93 474.545,89.826 474.545,93.5 L474.545,142.5 C474.545,144.433 475.97,146 477.727,146 C479.485,146 480.909,144.433 480.909,142.5 L480.909,93.5 C480.909,89.036 480.865,87.972 480.471,86.371 C479.298,81.548 475.87,77.774 471.479,76.477 C470.021,76.048 469.053,76 465,76 C460.947,76 459.979,76.048 458.525,76.475 C454.13,77.772 450.699,81.547 449.524,86.379 C449.135,87.976 449.091,89.04 449.091,93.5 L449.091,142.5 C449.091,144.433 450.515,146 452.273,146 C454.03,146 455.455,144.433 455.455,142.5 Z M443.364,146 L486.636,146 C491.73,146 492.939,145.891 494.788,144.856 C496.584,143.849 498.044,142.243 498.96,140.267 C499.901,138.233 500,136.903 500,131.3 L500,104.7 C500,99.097 499.901,97.767 498.96,95.733 C498.044,93.757 496.584,92.151 494.788,91.144 C492.939,90.109 491.73,90 486.636,90 L443.364,90 C438.27,90 437.061,90.109 435.212,91.144 C433.416,92.151 431.956,93.757 431.04,95.733 C430.099,97.767 430,99.097 430,104.7 L430,131.3 C430,136.903 430.099,138.233 431.04,140.267 C431.956,142.243 433.416,143.849 435.212,144.855 C437.061,145.891 438.27,146 443.364,146 Z M443.364,139 C439.548,139 438.635,138.918 438.1,138.618 C437.502,138.283 437.016,137.748 436.71,137.089 C436.438,136.501 436.364,135.497 436.364,131.3 L436.364,104.7 C436.364,100.503 436.438,99.499 436.711,98.911 C437.016,98.252 437.502,97.717 438.101,97.382 C438.635,97.082 439.548,97 443.364,97 L486.636,97 C490.452,97 491.365,97.082 491.9,97.382 C492.498,97.717 492.984,98.252 493.29,98.911 C493.562,99.499 493.636,100.503 493.636,104.7 L493.636,131.3 C493.636,135.497 493.562,136.501 493.289,137.089 C492.984,137.748 492.498,138.283 491.899,138.618 C491.365,138.918 490.452,139 486.636,139 L443.364,139 Z" />
        </g>
        <g id="Black-M" transform="translate(0,200)">
            <path d="M655.455,142.5 L655.455,93.5 C655.455,89.823 655.492,88.925 655.671,88.189 C656.259,85.773 657.974,83.885 660.17,83.238 C660.84,83.041 661.655,83 665,83 C668.345,83 669.16,83.041 669.833,83.239 C672.024,83.886 673.738,85.773 674.326,88.189 C674.508,88.93 674.545,89.826 674.545,93.5 L674.545,142.5 C674.545,144.433 675.97,146 677.727,146 C679.485,146 680.909,144.433 680.909,142.5 L680.909,93.5 C680.909,89.036 680.865,87.972 680.471,86.371 C679.298,81.548 675.87,77.774 671.479,76.477 C670.021,76.048 669.053,76 665,76 C660.947,76 659.979,76.048 658.525,76.475 C654.13,77.772 650.699,81.547 649.524,86.379 C649.135,87.976 649.091,89.04 649.091,93.5 L649.091,142.5 C649.091,144.433 650.515,146 652.273,146 C654.03,146 655.455,144.433 655.455,142.5 Z M643.364,146 L686.636,146 C691.73,146 692.939,145.891 694.788,144.856 C696.584,143.849 698.044,142.243 698.96,140.267 C699.901,138.233 700,136.903 700,131.3 L700,104.7 C700,99.097 699.901,97.767 698.96,95.733 C698.044,93.757 696.584,92.151 694.788,91.144 C692.939,90.109 691.73,90 686.636,90 L643.364,90 C638.27,90 637.061,90.109 635.212,91.144 C633.416,92.151 631.956,93.757 631.04,95.733 C630.099,97.767 630,99.097 630,104.7 L630,131.3 C630,136.903 630.099,138.233 631.04,140.267 C631.956,142.243 633.416,143.849 635.212,144.855 C637.061,145.891 638.27,146 643.364,146 Z M643.364,139 C639.548,139 638.635,138.918 638.1,138.618 C637.502,138.283 637.016,137.748 636.71,137.089 C636.438,136.501 636.364,135.497 636.364,131.3 L636.364,104.7 C636.364,100.503 636.438,99.499 636.711,98.911 C637.016,98.252 637.502,97.717 638.101,97.382 C638.635,97.082 639.548,97 643.364,97 L686.636,97 C690.452,97 691.365,97.082 691.9,97.382 C692.498,97.717 692.984,98.252 693.29,98.911 C693.562,99.499 693.636,100.503 693.636,104.7 L693.636,131.3 C693.636,135.497 693.562,136.501 693.289,137.089 C692.984,137.748 692.498,138.283 691.899,138.618 C691.365,138.918 690.452,139 686.636,139 L643.364,139 Z" />
        </g>
    </g>
</svg>