<?xml version="1.0" encoding="UTF-8"?>
<svg height="600" width="800" xmlns="http://www.w3.org/2000/svg" xmlns:xlink="http://www.w3.org/1999/xlink">
    <g id="Notes" font-family="LucidaGrande, 'Lucida Grande', sans-serif" font-size="13">
        <rect fill="white" height="600.0" width="800.0" x="0.0" y="0.0" />
        <g font-size="13">
            <text x="18.0" y="176.0">Small</text>
            <text x="18.0" y="376.0">Medium</text>
            <text x="18.0" y="576.0">Large</text>
        </g>
        <g font-size="9">
            <text x="250.0" y="30.0">Ultralight</text>
            <text x="450.0" y="30.0">Regular</text>
            <text x="650.0" y="30.0">Black</text>
            <text id="template-version" fill="#505050" text-anchor="end" x="785.0" y="575.0">Template v.3.0</text>
            <a href="https://github.com/swhitty/SwiftDraw">
                <text fill="#505050" text-anchor="end" x="785.0" y="590.0">https://github.com/swhitty/SwiftDraw</text>
            </a>
        </g>
    </g>
    <g id="Guides" stroke="rgb(39, 170, 225)" stroke-width="0.5">
        <path id="Capline-S" d="M18,76 l800,0" />
        <path id="H-reference" d="M85,145.755 L87.685,145.755 L113.369,79.287 L114.052,79.287 L114.052,76 L112.148,76 L85,145.755 Z M95.693,121.536 L130.996,121.536 L130.263,119.313 L96.474,119.313 L95.693,121.536 Z M139.15,145.755 L141.787,145.755 L114.638,76 L113.466,76 L113.466,79.287 L139.15,145.755 Z" stroke="none" transform="translate(0,200)" />
        <path id="Baseline-S" d="M18,146 l800,0" />
        <path id="left-margin-Ultralight-M" d="M221,256 l0,110" />
        <path id="right-margin-Ultralight-M" d="M309,256 l0,110" />
        <path id="left-margin-Regular-M" d="M421,256 l0,110" />
        <path id="right-margin-Regular-M" d="M509,256 l0,110" />
        <path id="left-margin-Black-M" d="M621,256 l0,110" />
        <path id="right-margin-Black-M" d="M709,256 l0,110" />
        <path id="Capline-M" d="M18,276 l800,0" />
        <path id="Baseline-M" d="M18,346 l800,0" />
        <path id="Capline-L" d="M18,476 l800,0" />
        <path id="Baseline-L" d="M18,546 l800,0" />
    </g>
    <g id="Symbols">
        <g id="Ultralight-M" transform="translate(0,200)">
            <path d="M256.205,107.7 L265.005,107.7 C266.22,107.7 267.205,106.715 267.205,105.5 C267.205,104.285 266.22,103.3 265.005,103.3 L256.205,103.3 C254.99,103.3 254.006,104.285 254.006,105.5 C254.006,106.715 254.99,107.7 256.205,107.7 Z M256.205,115.4 L271.605,115.4 C272.82,115.4 273.805,114.415 273.805,113.2 C273.805,111.985 272.82,111 271.605,111 L256.205,111 C254.99,111 254.006,111.985 254.006,113.2 C254.006,114.415 254.99,115.4 256.205,115.4 Z M265.006,132.999 C274.681,132.997 283.218,126.674 286.042,117.42 C288.865,108.166 285.311,98.154 277.285,92.751 C269.26,87.348 258.646,87.822 251.135,93.92 C243.623,100.018 240.977,110.307 244.615,119.272 C244.778,119.674 244.819,119.784 244.814,119.76 C244.816,119.77 244.814,119.753 244.814,119.737 C244.814,119.75 244.803,119.83 244.745,120.179 L243.441,128.007 C243.174,129.608 243.15,129.928 243.515,130.769 C243.846,131.54 244.465,132.159 245.242,132.493 C246.082,132.854 246.401,132.83 247.997,132.565 L255.826,131.26 C256.175,131.202 256.255,131.191 256.241,131.191 C256.261,131.191 256.227,131.187 256.234,131.189 C256.216,131.185 256.328,131.227 256.733,131.391 C259.36,132.457 262.171,133.003 265.008,132.999 Z M265.002,128.599 C262.734,128.603 260.487,128.166 258.385,127.313 C257.65,127.015 257.533,126.971 257.205,126.898 C256.877,126.823 256.584,126.791 256.241,126.791 C255.907,126.791 255.743,126.813 255.102,126.92 L247.275,128.225 C246.789,128.305 246.624,128.33 246.512,128.338 C246.584,128.333 246.743,128.349 246.978,128.45 C247.237,128.562 247.444,128.768 247.555,129.027 C247.656,129.261 247.672,129.421 247.667,129.493 C247.675,129.381 247.7,129.214 247.781,128.729 L249.085,120.903 C249.192,120.262 249.214,120.099 249.214,119.765 C249.218,119.451 249.181,119.111 249.103,118.779 C249.035,118.473 248.99,118.353 248.692,117.619 C245.782,110.445 247.899,102.214 253.908,97.336 C259.917,92.458 268.408,92.078 274.828,96.401 C281.249,100.723 284.092,108.733 281.833,116.136 C279.575,123.539 272.744,128.597 265.005,128.599 Z" />
        </g>
        <g id="Regular-M" transform="translate(0,200)">
            <path d="M456.205,107.7 L465.005,107.7 C466.22,107.7 467.205,106.715 467.205,105.5 C467.205,104.285 466.22,103.3 465.005,103.3 L456.205,103.3 C454.99,103.3 454.005,104.285 454.005,105.5 C454.005,106.715 454.99,107.7 456.205,107.7 Z M456.205,115.4 L471.605,115.4 C472.82,115.4 473.805,114.415 473.805,113.2 C473.805,111.985 472.82,111 471.605,111 L456.205,111 C454.99,111 454.005,111.985 454.005,113.2 C454.005,114.415 454.99,115.4 456.205,115.4 Z M465.006,132.999 C474.681,132.997 483.218,126.674 486.042,117.42 C488.865,108.166 485.311,98.154 477.285,92.751 C469.26,87.348 458.646,87.822 451.135,93.92 C443.623,100.018 440.977,110.307 444.615,119.272 C444.778,119.674 444.819,119.784 444.814,119.76 C444.816,119.77 444.814,119.753 444.814,119.737 C444.814,119.75 444.803,119.83 444.745,120.179 L443.441,128.007 C443.174,129.608 443.15,129.928 443.515,130.769 C443.846,131.54 444.465,132.159 445.241,132.493 C446.082,132.854 446.401,132.83 447.997,132.565 L455.826,131.26 C456.175,131.202 456.255,131.191 456.241,131.191 C456.261,131.191 456.227,131.187 456.234,131.189 C456.216,131.185 456.328,131.227 456.733,131.391 C459.36,132.457 462.171,133.003 465.008,132.999 Z M465.002,128.599 C462.734,128.603 460.487,128.166 458.385,127.313 C457.65,127.015 457.533,126.971 457.205,126.898 C456.877,126.823 456.584,126.791 456.241,126.791 C455.907,126.791 455.743,126.813 455.102,126.92 L447.275,128.225 C446.789,128.305 446.624,128.33 446.512,128.338 C446.584,128.333 446.743,128.349 446.978,128.45 C447.237,128.562 447.444,128.768 447.555,129.027 C447.656,129.261 447.672,129.421 447.667,129.493 C447.675,129.381 447.7,129.214 447.781,128.729 L449.085,120.903 C449.192,120.262 449.214,120.099 449.214,119.765 C449.218,119.451 449.181,119.111 449.103,118.779 C449.035,118.473 448.99,118.353 448.692,117.619 C445.782,110.445 447.899,102.214 453.908,97.336 C459.917,92.458 468.408,92.078 474.828,96.401 C481.249,100.723 484.092,108.733 481.833,116.136 C479.575,123.539 472.744,128.597 465.005,128.599 Z" />
        </g>
        <g id="Black-M" transform="translate(0,200)">
            <path d="M656.205,107.7 L665.005,107.7 C666.22,107.7 667.205,106.715 667.205,105.5 C667.205,104.285 666.22,103.3 665.005,103.3 L656.205,103.3 C654.99,103.3 654.005,104.285 654.005,105.5 C654.005,106.715 654.99,107.7 656.205,107.7 Z M656.205,115.4 L671.605,115.4 C672.82,115.4 673.805,114.415 673.805,113.2 C673.805,111.985 672.82,111 671.605,111 L656.205,111 C654.99,111 654.005,111.985 654.005,113.2 C654.005,114.415 654.99,115.4 656.205,115.4 Z M665.006,132.999 C674.681,132.997 683.218,126.674 686.042,117.42 C688.865,108.166 685.311,98.154 677.285,92.751 C669.26,87.348 658.646,87.822 651.135,93.92 C643.623,100.018 640.977,110.307 644.615,119.272 C644.778,119.674 644.819,119.784 644.814,119.76 C644.816,119.77 644.814,119.753 644.814,119.737 C644.814,119.75 644.803,119.83 644.745,120.179 L643.441,128.007 C643.174,129.608 643.15,129.928 643.515,130.769 C643.846,131.54 644.465,132.159 645.242,132.493 C646.082,132.854 646.401,132.83 647.997,132.565 L655.826,131.26 C656.175,131.202 656.255,131.191 656.241,131.191 C656.261,131.191 656.227,131.187 656.234,131.189 C656.216,131.185 656.328,131.227 656.733,131.391 C659.36,132.457 662.171,133.003 665.008,132.999 Z M665.002,128.599 C662.734,128.603 660.487,128.166 658.385,127.313 C657.65,127.015 657.533,126.971 657.205,126.898 C656.877,126.823 656.584,126.791 656.241,126.791 C655.907,126.791 655.743,126.813 655.102,126.92 L647.275,128.225 C646.789,128.305 646.624,128.33 646.512,128.338 C646.584,128.333 646.743,128.349 646.978,128.45 C647.237,128.562 647.444,128.768 647.555,129.027 C647.656,129.261 647.672,129.421 647.667,129.493 C647.675,129.381 647.7,129.214 647.781,128.729 L649.085,120.903 C649.192,120.262 649.214,120.099 649.214,119.765 C649.218,119.451 649.181,119.111 649.103,118.779 C649.035,118.473 648.99,118.353 648.692,117.619 C645.782,110.445 647.899,102.214 653.908,97.336 C659.917,92.458 668.408,92.078 674.828,96.401 C681.249,100.723 684.092,108.733 681.833,116.136 C679.575,123.539 672.744,128.597 665.005,128.599 Z" />
        </g>
    </g>
</svg>