<?xml version="1.0" encoding="UTF-8"?>
<svg height="600" width="800" xmlns="http://www.w3.org/2000/svg" xmlns:xlink="http://www.w3.org/1999/xlink">
    <g id="Notes" font-family="LucidaGrande, 'Lucida Grande', sans-serif" font-size="13">
        <rect fill="white" height="600.0" width="800.0" x="0.0" y="0.0" />
        <g font-size="13">
            <text x="18.0" y="176.0">Small</text>
            <text x="18.0" y="376.0">Medium</text>
            <text x="18.0" y="576.0">Large</text>
        </g>
        <g font-size="9">
            <text x="250.0" y="30.0">Ultralight</text>
            <text x="450.0" y="30.0">Regular</text>
            <text x="650.0" y="30.0">Black</text>
            <text id="template-version" fill="#505050" text-anchor="end" x="785.0" y="575.0">Template v.3.0</text>
            <a href="https://github.com/swhitty/SwiftDraw">
                <text fill="#505050" text-anchor="end" x="785.0" y="590.0">https://github.com/swhitty/SwiftDraw</text>
            </a>
        </g>
    </g>
    <g id="Guides" stroke="rgb(39, 170, 225)" stroke-width="0.5">
        <path id="Capline-S" d="M18,76 l800,0" />
        <path id="H-reference" d="M85,145.755 L87.685,145.755 L113.369,79.287 L114.052,79.287 L114.052,76 L112.148,76 L85,145.755 Z M95.693,121.536 L130.996,121.536 L130.263,119.313 L96.474,119.313 L95.693,121.536 Z M139.15,145.755 L141.787,145.755 L114.638,76 L113.466,76 L113.466,79.287 L139.15,145.755 Z" stroke="none" transform="translate(0,200)" />
        <path id="Baseline-S" d="M18,146 l800,0" />
        <path id="left-margin-Ultralight-M" d="M221,256 l0,110" />
        <path id="right-margin-Ultralight-M" d="M309,256 l0,110" />
        <path id="left-margin-Regular-M" d="M421,256 l0,110" />
        <path id="right-margin-Regular-M" d="M509,256 l0,110" />
        <path id="left-margin-Black-M" d="M621,256 l0,110" />
        <path id="right-margin-Black-M" d="M709,256 l0,110" />
        <path id="Capline-M" d="M18,276 l800,0" />
        <path id="Baseline-M" d="M18,346 l800,0" />
        <path id="Capline-L" d="M18,476 l800,0" />
        <path id="Baseline-L" d="M18,546 l800,0" />
    </g>
    <g id="Symbols">
        <g id="Ultralight-M" transform="translate(0,200)">
            <path d="M255.1,93.4 L270.72,93.4 C276.438,93.4 277.803,93.512 278.997,94.12 C280.238,94.752 281.248,95.762 281.881,97.004 C282.488,98.197 282.6,99.562 282.6,105.28 L282.6,120.9 C282.6,122.115 283.585,123.1 284.8,123.1 C286.015,123.1 287,122.115 287,120.9 L287,105.28 C287,98.678 286.872,97.108 285.801,95.006 C284.746,92.936 283.064,91.254 280.994,90.199 C278.892,89.128 277.322,89 270.72,89 L255.1,89 C253.885,89 252.9,89.985 252.9,91.2 C252.9,92.415 253.885,93.4 255.1,93.4 Z M252.24,133 L270.06,133 C273.582,133 274.418,132.932 275.696,132.281 C276.938,131.648 277.948,130.638 278.581,129.396 C279.232,128.118 279.3,127.282 279.3,123.76 L279.3,105.94 C279.3,102.418 279.232,101.582 278.581,100.304 C277.948,99.062 276.938,98.052 275.696,97.419 C274.418,96.768 273.582,96.7 270.06,96.7 L252.24,96.7 C248.718,96.7 247.882,96.768 246.604,97.419 C245.362,98.052 244.352,99.062 243.719,100.304 C243.068,101.582 243,102.418 243,105.94 L243,123.76 C243,127.282 243.068,128.118 243.719,129.396 C244.352,130.638 245.362,131.648 246.604,132.281 C247.882,132.932 248.718,133 252.24,133 Z M252.24,128.6 C249.602,128.6 248.971,128.548 248.601,128.36 C248.187,128.149 247.851,127.813 247.64,127.399 C247.452,127.029 247.4,126.398 247.4,123.76 L247.4,105.94 C247.4,103.302 247.452,102.671 247.64,102.301 C247.851,101.887 248.187,101.551 248.601,101.34 C248.971,101.152 249.602,101.1 252.24,101.1 L270.06,101.1 C272.698,101.1 273.329,101.152 273.699,101.34 C274.113,101.551 274.449,101.887 274.66,102.301 C274.848,102.671 274.9,103.302 274.9,105.94 L274.9,123.76 C274.9,126.398 274.848,127.029 274.66,127.399 C274.449,127.813 274.113,128.149 273.699,128.36 C273.329,128.548 272.698,128.6 270.06,128.6 L252.24,128.6 Z" />
        </g>
        <g id="Regular-M" transform="translate(0,200)">
            <path d="M455.1,93.4 L470.72,93.4 C476.438,93.4 477.803,93.512 478.997,94.12 C480.238,94.752 481.248,95.762 481.881,97.004 C482.488,98.197 482.6,99.562 482.6,105.28 L482.6,120.9 C482.6,122.115 483.585,123.1 484.8,123.1 C486.015,123.1 487,122.115 487,120.9 L487,105.28 C487,98.678 486.872,97.108 485.801,95.006 C484.746,92.936 483.064,91.254 480.994,90.199 C478.892,89.128 477.322,89 470.72,89 L455.1,89 C453.885,89 452.9,89.985 452.9,91.2 C452.9,92.415 453.885,93.4 455.1,93.4 Z M452.24,133 L470.06,133 C473.582,133 474.418,132.932 475.696,132.281 C476.938,131.648 477.948,130.638 478.581,129.396 C479.232,128.118 479.3,127.282 479.3,123.76 L479.3,105.94 C479.3,102.418 479.232,101.582 478.581,100.304 C477.948,99.062 476.938,98.052 475.696,97.419 C474.418,96.768 473.582,96.7 470.06,96.7 L452.24,96.7 C448.718,96.7 447.882,96.768 446.604,97.419 C445.362,98.052 444.352,99.062 443.719,100.304 C443.068,101.582 443,102.418 443,105.94 L443,123.76 C443,127.282 443.068,128.118 443.719,129.396 C444.352,130.638 445.362,131.648 446.604,132.281 C447.882,132.932 448.718,133 452.24,133 Z M452.24,128.6 C449.602,128.6 448.971,128.548 448.601,128.36 C448.187,128.149 447.851,127.813 447.64,127.399 C447.452,127.029 447.4,126.398 447.4,123.76 L447.4,105.94 C447.4,103.302 447.452,102.671 447.64,102.301 C447.851,101.887 448.187,101.551 448.601,101.34 C448.971,101.152 449.602,101.1 452.24,101.1 L470.06,101.1 C472.698,101.1 473.329,101.152 473.699,101.34 C474.113,101.551 474.449,101.887 474.66,102.301 C474.848,102.671 474.9,103.302 474.9,105.94 L474.9,123.76 C474.9,126.398 474.848,127.029 474.66,127.399 C474.449,127.813 474.113,128.149 473.699,128.36 C473.329,128.548 472.698,128.6 470.06,128.6 L452.24,128.6 Z" />
        </g>
        <g id="Black-M" transform="translate(0,200)">
            <path d="M655.1,93.4 L670.72,93.4 C676.438,93.4 677.803,93.512 678.997,94.12 C680.238,94.752 681.248,95.762 681.881,97.004 C682.488,98.197 682.6,99.562 682.6,105.28 L682.6,120.9 C682.6,122.115 683.585,123.1 684.8,123.1 C686.015,123.1 687,122.115 687,120.9 L687,105.28 C687,98.678 686.872,97.108 685.801,95.006 C684.746,92.936 683.064,91.254 680.994,90.199 C678.892,89.128 677.322,89 670.72,89 L655.1,89 C653.885,89 652.9,89.985 652.9,91.2 C652.9,92.415 653.885,93.4 655.1,93.4 Z M652.24,133 L670.06,133 C673.582,133 674.418,132.932 675.696,132.281 C676.938,131.648 677.948,130.638 678.581,129.396 C679.232,128.118 679.3,127.282 679.3,123.76 L679.3,105.94 C679.3,102.418 679.232,101.582 678.581,100.304 C677.948,99.062 676.938,98.052 675.696,97.419 C674.418,96.768 673.582,96.7 670.06,96.7 L652.24,96.7 C648.718,96.7 647.882,96.768 646.604,97.419 C645.362,98.052 644.352,99.062 643.719,100.304 C643.068,101.582 643,102.418 643,105.94 L643,123.76 C643,127.282 643.068,128.118 643.719,129.396 C644.352,130.638 645.362,131.648 646.604,132.281 C647.882,132.932 648.718,133 652.24,133 Z M652.24,128.6 C649.602,128.6 648.971,128.548 648.601,128.36 C648.187,128.149 647.851,127.813 647.64,127.399 C647.452,127.029 647.4,126.398 647.4,123.76 L647.4,105.94 C647.4,103.302 647.452,102.671 647.64,102.301 C647.851,101.887 648.187,101.551 648.601,101.34 C648.971,101.152 649.602,101.1 652.24,101.1 L670.06,101.1 C672.698,101.1 673.329,101.152 673.699,101.34 C674.113,101.551 674.449,101.887 674.66,102.301 C674.848,102.671 674.9,103.302 674.9,105.94 L674.9,123.76 C674.9,126.398 674.848,127.029 674.66,127.399 C674.449,127.813 674.113,128.149 673.699,128.36 C673.329,128.548 672.698,128.6 670.06,128.6 L652.24,128.6 Z" />
        </g>
    </g>
</svg>