<?xml version="1.0" encoding="UTF-8"?>
<svg height="600" width="800" xmlns="http://www.w3.org/2000/svg" xmlns:xlink="http://www.w3.org/1999/xlink">
    <g id="Notes" font-family="LucidaGrande, 'Lucida Grande', sans-serif" font-size="13">
        <rect fill="white" height="600.0" width="800.0" x="0.0" y="0.0" />
        <g font-size="13">
            <text x="18.0" y="176.0">Small</text>
            <text x="18.0" y="376.0">Medium</text>
            <text x="18.0" y="576.0">Large</text>
        </g>
        <g font-size="9">
            <text x="250.0" y="30.0">Ultralight</text>
            <text x="450.0" y="30.0">Regular</text>
            <text x="650.0" y="30.0">Black</text>
            <text id="template-version" fill="#505050" text-anchor="end" x="785.0" y="575.0">Template v.3.0</text>
            <a href="https://github.com/swhitty/SwiftDraw">
                <text fill="#505050" text-anchor="end" x="785.0" y="590.0">https://github.com/swhitty/SwiftDraw</text>
            </a>
        </g>
    </g>
    <g id="Guides" stroke="rgb(39, 170, 225)" stroke-width="0.5">
        <path id="Capline-S" d="M18,76 l800,0" />
        <path id="H-reference" d="M85,145.755 L87.685,145.755 L113.369,79.287 L114.052,79.287 L114.052,76 L112.148,76 L85,145.755 Z M95.693,121.536 L130.996,121.536 L130.263,119.313 L96.474,119.313 L95.693,121.536 Z M139.15,145.755 L141.787,145.755 L114.638,76 L113.466,76 L113.466,79.287 L139.15,145.755 Z" stroke="none" transform="translate(0,200)" />
        <path id="Baseline-S" d="M18,146 l800,0" />
        <path id="left-margin-Ultralight-M" d="M230,256 l0,110" />
        <path id="right-margin-Ultralight-M" d="M300,256 l0,110" />
        <path id="left-margin-Regular-M" d="M430,256 l0,110" />
        <path id="right-margin-Regular-M" d="M500,256 l0,110" />
        <path id="left-margin-Black-M" d="M630,256 l0,110" />
        <path id="right-margin-Black-M" d="M700,256 l0,110" />
        <path id="Capline-M" d="M18,276 l800,0" />
        <path id="Baseline-M" d="M18,346 l800,0" />
        <path id="Capline-L" d="M18,476 l800,0" />
        <path id="Baseline-L" d="M18,546 l800,0" />
    </g>
    <g id="Symbols">
        <g id="Ultralight-M" transform="translate(0,200)">
            <path d="M273.959,128.875 L271.042,136.167 C270.444,137.662 271.171,139.36 272.667,139.958 C274.162,140.556 275.86,139.829 276.458,138.333 L279.375,131.042 C279.973,129.546 279.246,127.849 277.75,127.25 C276.254,126.652 274.557,127.379 273.959,128.875 Z M250.625,128.875 L247.709,136.167 C247.11,137.662 247.838,139.36 249.333,139.958 C250.829,140.556 252.526,139.829 253.125,138.333 L256.041,131.042 C256.64,129.546 255.912,127.849 254.417,127.25 C252.921,126.652 251.224,127.379 250.625,128.875 Z M262.292,128.875 L259.375,136.167 C258.777,137.662 259.504,139.36 261,139.958 C262.496,140.556 264.193,139.829 264.791,138.333 L267.708,131.042 C268.306,129.546 267.579,127.849 266.083,127.25 C264.588,126.652 262.89,127.379 262.292,128.875 Z M250.417,116.833 C246.221,116.833 242.348,114.58 240.274,110.932 C238.201,107.285 238.246,102.805 240.392,99.199 C242.538,95.594 246.455,93.418 250.65,93.502 C251.767,93.525 252.798,92.907 253.306,91.912 C255.762,87.101 260.913,84.284 266.289,84.814 C271.664,85.343 276.167,89.11 277.637,94.308 C278.006,95.613 279.226,96.492 280.581,96.428 C284.283,96.253 287.789,98.099 289.741,101.25 C291.692,104.401 291.783,108.362 289.977,111.599 C288.171,114.836 284.753,116.839 281.046,116.833 L250.414,116.833 L250.414,119.75 L250.414,122.667 L250.417,122.667 L250.417,119.75 L250.417,116.833 Z M250.417,122.667 C254.306,122.667 254.306,116.833 250.417,116.833 L250.414,116.833 C246.525,116.833 246.525,122.667 250.414,122.667 L281.042,122.667 C286.861,122.676 292.233,119.527 295.071,114.441 C297.909,109.355 297.767,103.13 294.7,98.179 C291.634,93.227 286.124,90.327 280.306,90.601 L283.25,92.721 C281.128,85.214 274.624,79.773 266.86,79.008 C259.097,78.244 251.657,82.312 248.111,89.26 L250.767,87.67 C244.474,87.544 238.599,90.807 235.379,96.215 C232.16,101.624 232.093,108.344 235.203,113.815 C238.314,119.287 244.123,122.667 250.417,122.667 Z" />
        </g>
        <g id="Regular-M" transform="translate(0,200)">
            <path d="M473.959,128.875 L471.042,136.167 C470.444,137.662 471.171,139.36 472.667,139.958 C474.162,140.556 475.86,139.829 476.458,138.333 L479.375,131.042 C479.973,129.546 479.246,127.849 477.75,127.25 C476.254,126.652 474.557,127.379 473.959,128.875 Z M450.625,128.875 L447.709,136.167 C447.11,137.662 447.838,139.36 449.333,139.958 C450.829,140.556 452.526,139.829 453.125,138.333 L456.041,131.042 C456.64,129.546 455.912,127.849 454.417,127.25 C452.921,126.652 451.224,127.379 450.625,128.875 Z M462.292,128.875 L459.375,136.167 C458.777,137.662 459.504,139.36 461,139.958 C462.496,140.556 464.193,139.829 464.791,138.333 L467.708,131.042 C468.306,129.546 467.579,127.849 466.083,127.25 C464.588,126.652 462.89,127.379 462.292,128.875 Z M450.417,116.833 C446.221,116.833 442.348,114.58 440.274,110.932 C438.201,107.285 438.246,102.805 440.392,99.199 C442.538,95.594 446.455,93.418 450.65,93.502 C451.767,93.525 452.798,92.907 453.306,91.912 C455.762,87.101 460.913,84.284 466.289,84.814 C471.664,85.343 476.167,89.11 477.637,94.308 C478.006,95.613 479.226,96.492 480.581,96.428 C484.283,96.253 487.789,98.099 489.741,101.25 C491.692,104.401 491.783,108.362 489.977,111.599 C488.171,114.836 484.753,116.839 481.046,116.833 L450.414,116.833 L450.414,119.75 L450.414,122.667 L450.417,122.667 L450.417,119.75 L450.417,116.833 Z M450.417,122.667 C454.306,122.667 454.306,116.833 450.417,116.833 L450.414,116.833 C446.525,116.833 446.525,122.667 450.414,122.667 L481.042,122.667 C486.861,122.676 492.233,119.527 495.071,114.441 C497.909,109.355 497.767,103.13 494.7,98.179 C491.634,93.227 486.124,90.327 480.306,90.601 L483.25,92.721 C481.128,85.214 474.624,79.773 466.86,79.008 C459.097,78.244 451.657,82.312 448.111,89.26 L450.767,87.67 C444.474,87.544 438.599,90.807 435.379,96.215 C432.16,101.624 432.093,108.344 435.203,113.815 C438.314,119.287 444.123,122.667 450.417,122.667 Z" />
        </g>
        <g id="Black-M" transform="translate(0,200)">
            <path d="M673.959,128.875 L671.042,136.167 C670.444,137.662 671.171,139.36 672.667,139.958 C674.162,140.556 675.86,139.829 676.458,138.333 L679.375,131.042 C679.973,129.546 679.245,127.849 677.75,127.25 C676.254,126.652 674.557,127.379 673.959,128.875 Z M650.625,128.875 L647.709,136.167 C647.11,137.662 647.838,139.36 649.333,139.958 C650.829,140.556 652.526,139.829 653.125,138.333 L656.041,131.042 C656.64,129.546 655.912,127.849 654.417,127.25 C652.921,126.652 651.224,127.379 650.625,128.875 Z M662.292,128.875 L659.375,136.167 C658.777,137.662 659.505,139.36 661,139.958 C662.496,140.556 664.193,139.829 664.791,138.333 L667.708,131.042 C668.306,129.546 667.579,127.849 666.083,127.25 C664.588,126.652 662.89,127.379 662.292,128.875 Z M650.417,116.833 C646.221,116.833 642.348,114.58 640.274,110.932 C638.201,107.285 638.245,102.805 640.392,99.199 C642.538,95.594 646.455,93.418 650.65,93.502 C651.767,93.525 652.798,92.907 653.306,91.912 C655.762,87.101 660.913,84.284 666.289,84.814 C671.664,85.343 676.167,89.11 677.637,94.308 C678.006,95.613 679.226,96.492 680.581,96.428 C684.283,96.253 687.789,98.099 689.741,101.25 C691.692,104.401 691.783,108.362 689.977,111.599 C688.171,114.836 684.753,116.839 681.046,116.833 L650.414,116.833 L650.414,119.75 L650.414,122.667 L650.417,122.667 L650.417,119.75 L650.417,116.833 Z M650.417,122.667 C654.306,122.667 654.306,116.833 650.417,116.833 L650.414,116.833 C646.525,116.833 646.525,122.667 650.414,122.667 L681.042,122.667 C686.861,122.676 692.233,119.527 695.071,114.441 C697.909,109.355 697.767,103.13 694.7,98.179 C691.634,93.227 686.124,90.327 680.306,90.601 L683.25,92.721 C681.128,85.214 674.624,79.773 666.86,79.008 C659.097,78.244 651.657,82.312 648.111,89.26 L650.767,87.67 C644.474,87.544 638.599,90.807 635.379,96.215 C632.16,101.624 632.093,108.344 635.203,113.815 C638.314,119.287 644.123,122.667 650.417,122.667 Z" />
        </g>
    </g>
</svg>