<?xml version="1.0" encoding="UTF-8"?>
<svg height="600" width="800" xmlns="http://www.w3.org/2000/svg" xmlns:xlink="http://www.w3.org/1999/xlink">
    <g id="Notes" font-family="LucidaGrande, 'Lucida Grande', sans-serif" font-size="13">
        <rect fill="white" height="600.0" width="800.0" x="0.0" y="0.0" />
        <g font-size="13">
            <text x="18.0" y="176.0">Small</text>
            <text x="18.0" y="376.0">Medium</text>
            <text x="18.0" y="576.0">Large</text>
        </g>
        <g font-size="9">
            <text x="250.0" y="30.0">Ultralight</text>
            <text x="450.0" y="30.0">Regular</text>
            <text x="650.0" y="30.0">Black</text>
            <text id="template-version" fill="#505050" text-anchor="end" x="785.0" y="575.0">Template v.3.0</text>
            <a href="https://github.com/swhitty/SwiftDraw">
                <text fill="#505050" text-anchor="end" x="785.0" y="590.0">https://github.com/swhitty/SwiftDraw</text>
            </a>
        </g>
    </g>
    <g id="Guides" stroke="rgb(39, 170, 225)" stroke-width="0.5">
        <path id="Capline-S" d="M18,76 l800,0" />
        <path id="H-reference" d="M85,145.755 L87.685,145.755 L113.369,79.287 L114.052,79.287 L114.052,76 L112.148,76 L85,145.755 Z M95.693,121.536 L130.996,121.536 L130.263,119.313 L96.474,119.313 L95.693,121.536 Z M139.15,145.755 L141.787,145.755 L114.638,76 L113.466,76 L113.466,79.287 L139.15,145.755 Z" stroke="none" transform="translate(0,200)" />
        <path id="Baseline-S" d="M18,146 l800,0" />
        <path id="left-margin-Ultralight-M" d="M221,256 l0,110" />
        <path id="right-margin-Ultralight-M" d="M309,256 l0,110" />
        <path id="left-margin-Regular-M" d="M421,256 l0,110" />
        <path id="right-margin-Regular-M" d="M509,256 l0,110" />
        <path id="left-margin-Black-M" d="M621,256 l0,110" />
        <path id="right-margin-Black-M" d="M709,256 l0,110" />
        <path id="Capline-M" d="M18,276 l800,0" />
        <path id="Baseline-M" d="M18,346 l800,0" />
        <path id="Capline-L" d="M18,476 l800,0" />
        <path id="Baseline-L" d="M18,546 l800,0" />
    </g>
    <g id="Symbols">
        <g id="Ultralight-M" transform="translate(0,200)">
            <path d="M248.67,120.427 C246.595,116.835 247.649,112.25 251.084,109.926 L251.392,109.672 L251.396,109.668 L249.914,108.186 L251.087,109.922 C253.847,108.058 257.479,108.12 260.173,110.078 L267.363,115.308 C271.485,118.304 277.04,118.399 281.262,115.546 L281.57,115.292 L281.574,115.288 L280.092,113.806 L281.266,115.542 C286.525,111.986 288.138,104.968 284.959,99.473 C284.38,98.471 283.098,98.129 282.096,98.708 C281.094,99.288 280.752,100.569 281.332,101.571 C283.409,105.161 282.355,109.747 278.919,112.07 L278.611,112.324 L278.607,112.328 L280.088,113.81 L278.915,112.074 C276.155,113.939 272.522,113.877 269.828,111.918 L262.637,106.689 C258.516,103.694 252.962,103.598 248.741,106.45 L248.433,106.705 L248.428,106.709 L249.91,108.19 L248.736,106.455 C243.48,110.012 241.867,117.027 245.041,122.522 C245.62,123.525 246.901,123.868 247.903,123.289 C248.905,122.71 249.248,121.429 248.67,120.427 Z M274.433,127.329 C270.841,129.402 266.257,128.348 263.932,124.914 L263.936,124.92 C262.065,122.149 262.128,118.518 264.086,115.824 L269.314,108.633 C272.309,104.512 272.404,98.958 269.552,94.737 C269.351,94.439 269.076,94.197 268.753,94.036 L268.745,94.032 L267.808,95.906 L269.543,94.732 C265.986,89.475 258.97,87.863 253.475,91.039 C252.473,91.618 252.131,92.9 252.71,93.902 C253.289,94.903 254.57,95.246 255.572,94.667 C259.163,92.592 263.748,93.645 266.073,97.08 C266.274,97.378 266.549,97.619 266.871,97.78 L266.879,97.784 L267.816,95.91 L266.08,97.083 C267.945,99.843 267.883,103.475 265.924,106.169 L260.697,113.359 C257.701,117.479 257.605,123.034 260.456,127.255 L260.453,127.25 C264.019,132.518 271.033,134.131 276.528,130.958 C277.531,130.379 277.874,129.098 277.295,128.096 C276.717,127.093 275.435,126.75 274.433,127.329 Z M278.332,97.666 C285.698,105.03 285.698,116.968 278.332,124.332 C270.968,131.698 259.03,131.698 251.666,124.332 C244.302,116.968 244.302,105.03 251.666,97.666 C259.03,90.302 270.968,90.302 278.332,97.666 Z M281.295,94.703 C272.295,85.703 257.703,85.703 248.703,94.703 C239.703,103.703 239.703,118.295 248.703,127.295 C257.703,136.298 272.295,136.298 281.296,127.295 C290.298,118.295 290.298,103.703 281.295,94.703 Z" />
        </g>
        <g id="Regular-M" transform="translate(0,200)">
            <path d="M448.67,120.427 C446.595,116.835 447.649,112.25 451.084,109.926 L451.392,109.672 L451.396,109.668 L449.914,108.186 L451.087,109.922 C453.847,108.058 457.479,108.12 460.173,110.078 L467.363,115.308 C471.485,118.304 477.04,118.399 481.262,115.546 L481.57,115.292 L481.574,115.288 L480.092,113.806 L481.266,115.542 C486.525,111.986 488.138,104.968 484.959,99.473 C484.38,98.471 483.098,98.129 482.096,98.708 C481.094,99.288 480.752,100.569 481.332,101.571 C483.409,105.161 482.355,109.747 478.919,112.07 L478.611,112.324 L478.607,112.328 L480.088,113.81 L478.915,112.074 C476.155,113.939 472.522,113.877 469.828,111.918 L462.637,106.689 C458.516,103.694 452.962,103.598 448.741,106.45 L448.433,106.705 L448.428,106.709 L449.91,108.19 L448.736,106.455 C443.48,110.012 441.867,117.027 445.041,122.522 C445.62,123.525 446.901,123.868 447.903,123.289 C448.905,122.71 449.248,121.429 448.67,120.427 Z M474.433,127.329 C470.841,129.402 466.257,128.348 463.932,124.914 L463.936,124.92 C462.065,122.149 462.128,118.518 464.086,115.824 L469.314,108.633 C472.309,104.512 472.404,98.958 469.552,94.737 C469.351,94.439 469.076,94.197 468.753,94.036 L468.745,94.032 L467.808,95.906 L469.543,94.732 C465.986,89.475 458.97,87.863 453.475,91.039 C452.473,91.618 452.131,92.9 452.71,93.902 C453.289,94.903 454.57,95.246 455.572,94.667 C459.163,92.592 463.748,93.645 466.073,97.08 C466.274,97.378 466.549,97.619 466.871,97.78 L466.879,97.784 L467.816,95.91 L466.08,97.083 C467.945,99.843 467.883,103.475 465.924,106.169 L460.697,113.359 C457.701,117.479 457.605,123.034 460.456,127.255 L460.453,127.25 C464.019,132.518 471.033,134.131 476.528,130.958 C477.531,130.379 477.874,129.098 477.295,128.096 C476.717,127.093 475.435,126.75 474.433,127.329 Z M478.332,97.666 C485.698,105.03 485.698,116.968 478.332,124.332 C470.968,131.698 459.03,131.698 451.666,124.332 C444.302,116.968 444.302,105.03 451.666,97.666 C459.03,90.302 470.968,90.302 478.332,97.666 Z M481.295,94.703 C472.295,85.703 457.703,85.703 448.703,94.703 C439.703,103.703 439.703,118.295 448.703,127.295 C457.703,136.298 472.295,136.298 481.296,127.295 C490.298,118.295 490.298,103.703 481.295,94.703 Z" />
        </g>
        <g id="Black-M" transform="translate(0,200)">
            <path d="M648.67,120.427 C646.595,116.835 647.649,112.25 651.084,109.926 L651.392,109.672 L651.396,109.668 L649.914,108.186 L651.087,109.922 C653.847,108.058 657.479,108.12 660.173,110.078 L667.363,115.308 C671.485,118.304 677.04,118.399 681.262,115.546 L681.57,115.292 L681.574,115.288 L680.092,113.806 L681.266,115.542 C686.525,111.986 688.138,104.968 684.959,99.473 C684.38,98.471 683.098,98.129 682.096,98.708 C681.094,99.288 680.752,100.569 681.332,101.571 C683.409,105.161 682.355,109.747 678.919,112.07 L678.611,112.324 L678.607,112.328 L680.088,113.81 L678.915,112.074 C676.155,113.939 672.522,113.877 669.828,111.918 L662.637,106.689 C658.516,103.694 652.962,103.598 648.741,106.45 L648.433,106.705 L648.428,106.709 L649.91,108.19 L648.736,106.455 C643.48,110.012 641.867,117.027 645.041,122.522 C645.62,123.525 646.901,123.868 647.903,123.289 C648.905,122.71 649.248,121.429 648.67,120.427 Z M674.433,127.329 C670.841,129.402 666.257,128.348 663.932,124.914 L663.936,124.92 C662.065,122.149 662.128,118.518 664.086,115.824 L669.314,108.633 C672.309,104.512 672.404,98.958 669.552,94.737 C669.351,94.439 669.076,94.197 668.753,94.036 L668.745,94.032 L667.808,95.906 L669.543,94.732 C665.986,89.475 658.97,87.863 653.475,91.039 C652.473,91.618 652.131,92.9 652.71,93.902 C653.289,94.903 654.57,95.246 655.572,94.667 C659.163,92.592 663.748,93.645 666.073,97.08 C666.274,97.378 666.549,97.619 666.871,97.78 L666.879,97.784 L667.816,95.91 L666.08,97.083 C667.945,99.843 667.883,103.475 665.924,106.169 L660.697,113.359 C657.701,117.479 657.605,123.034 660.456,127.255 L660.453,127.25 C664.019,132.518 671.033,134.131 676.528,130.958 C677.531,130.379 677.874,129.098 677.295,128.096 C676.717,127.093 675.435,126.75 674.433,127.329 Z M678.332,97.666 C685.698,105.03 685.698,116.968 678.332,124.332 C670.968,131.698 659.03,131.698 651.666,124.332 C644.302,116.968 644.302,105.03 651.666,97.666 C659.03,90.302 670.968,90.302 678.332,97.666 Z M681.295,94.703 C672.295,85.703 657.703,85.703 648.703,94.703 C639.703,103.703 639.703,118.295 648.703,127.295 C657.703,136.298 672.295,136.298 681.296,127.295 C690.298,118.295 690.298,103.703 681.295,94.703 Z" />
        </g>
    </g>
</svg>