<?xml version="1.0" encoding="UTF-8"?>
<svg height="600" width="800" xmlns="http://www.w3.org/2000/svg" xmlns:xlink="http://www.w3.org/1999/xlink">
    <g id="Notes" font-family="LucidaGrande, 'Lucida Grande', sans-serif" font-size="13">
        <rect fill="white" height="600.0" width="800.0" x="0.0" y="0.0" />
        <g font-size="13">
            <text x="18.0" y="176.0">Small</text>
            <text x="18.0" y="376.0">Medium</text>
            <text x="18.0" y="576.0">Large</text>
        </g>
        <g font-size="9">
            <text x="250.0" y="30.0">Ultralight</text>
            <text x="450.0" y="30.0">Regular</text>
            <text x="650.0" y="30.0">Black</text>
            <text id="template-version" fill="#505050" text-anchor="end" x="785.0" y="575.0">Template v.3.0</text>
            <a href="https://github.com/swhitty/SwiftDraw">
                <text fill="#505050" text-anchor="end" x="785.0" y="590.0">https://github.com/swhitty/SwiftDraw</text>
            </a>
        </g>
    </g>
    <g id="Guides" stroke="rgb(39, 170, 225)" stroke-width="0.5">
        <path id="Capline-S" d="M18,76 l800,0" />
        <path id="H-reference" d="M85,145.755 L87.685,145.755 L113.369,79.287 L114.052,79.287 L114.052,76 L112.148,76 L85,145.755 Z M95.693,121.536 L130.996,121.536 L130.263,119.313 L96.474,119.313 L95.693,121.536 Z M139.15,145.755 L141.787,145.755 L114.638,76 L113.466,76 L113.466,79.287 L139.15,145.755 Z" stroke="none" transform="translate(0,200)" />
        <path id="Baseline-S" d="M18,146 l800,0" />
        <path id="left-margin-Ultralight-M" d="M230,256 l0,110" />
        <path id="right-margin-Ultralight-M" d="M300,256 l0,110" />
        <path id="left-margin-Regular-M" d="M430,256 l0,110" />
        <path id="right-margin-Regular-M" d="M500,256 l0,110" />
        <path id="left-margin-Black-M" d="M630,256 l0,110" />
        <path id="right-margin-Black-M" d="M700,256 l0,110" />
        <path id="Capline-M" d="M18,276 l800,0" />
        <path id="Baseline-M" d="M18,346 l800,0" />
        <path id="Capline-L" d="M18,476 l800,0" />
        <path id="Baseline-L" d="M18,546 l800,0" />
    </g>
    <g id="Symbols">
        <g id="Ultralight-M" transform="translate(0,200)">
            <path d="M278.414,99.069 L259.104,118.379 C257.847,119.636 257.847,121.674 259.104,122.931 C260.361,124.188 262.398,124.188 263.655,122.931 L282.965,103.621 C284.222,102.364 284.222,100.326 282.965,99.069 C281.709,97.812 279.671,97.812 278.414,99.069 Z M259.104,103.621 L278.414,122.931 C279.671,124.188 281.709,124.188 282.965,122.931 C284.222,121.674 284.222,119.636 282.965,118.379 L263.655,99.069 C262.398,97.812 260.361,97.812 259.104,99.069 C257.847,100.326 257.847,102.364 259.104,103.621 Z M232.157,116.021 L246.06,134.559 C247.674,136.714 248.137,137.266 249.108,138.002 C250.065,138.727 251.143,139.267 252.295,139.595 C253.46,139.928 254.158,139.965 256.874,139.965 L281.333,139.965 C288.739,139.965 290.498,139.822 292.971,138.562 C295.393,137.328 297.363,135.359 298.597,132.936 C299.856,130.464 300,128.704 300,121.299 L300,100.701 C300,93.296 299.856,91.536 298.597,89.064 C297.363,86.641 295.393,84.672 292.971,83.438 C290.498,82.178 288.739,82.035 281.333,82.035 L256.874,82.035 C254.16,82.035 253.461,82.072 252.29,82.406 C251.136,82.736 250.058,83.276 249.105,84 C248.856,84.188 248.618,84.393 248.384,84.617 C247.736,85.238 247.36,85.709 246.061,87.441 L232.157,105.979 C230.944,107.595 230.655,108.03 230.332,108.967 C230.268,109.159 230.268,109.159 230.213,109.356 C229.929,110.434 229.929,111.566 230.213,112.641 C230.271,112.849 230.271,112.849 230.338,113.05 C230.661,113.977 230.931,114.382 232.154,116.017 Z M237.309,112.162 C236.59,111.201 236.423,110.95 236.416,110.932 C236.426,110.963 236.426,110.963 236.436,110.998 C236.437,111 236.437,111 236.437,111 C236.427,111.036 236.427,111.036 236.417,111.065 C236.423,111.047 236.595,110.79 237.306,109.841 L251.209,91.304 C252.251,89.916 252.554,89.536 252.838,89.263 C252.896,89.208 252.946,89.165 252.996,89.128 C253.316,88.885 253.675,88.705 254.059,88.595 C254.405,88.496 254.866,88.471 256.874,88.471 L281.333,88.471 C287.445,88.471 288.906,88.591 290.049,89.173 C291.26,89.79 292.245,90.775 292.862,91.986 C293.444,93.129 293.563,94.589 293.563,100.701 L293.563,121.299 C293.563,127.411 293.444,128.871 292.861,130.015 C292.245,131.225 291.26,132.21 290.049,132.827 C288.906,133.409 287.445,133.529 281.333,133.529 L256.874,133.529 C254.868,133.529 254.407,133.504 254.061,133.405 C253.676,133.295 253.318,133.116 252.995,132.872 C252.707,132.653 252.405,132.293 251.211,130.698 L237.306,112.159 Z" />
        </g>
        <g id="Regular-M" transform="translate(0,200)">
            <path d="M478.414,99.069 L459.104,118.379 C457.847,119.636 457.847,121.674 459.104,122.931 C460.361,124.188 462.398,124.188 463.655,122.931 L482.965,103.621 C484.222,102.364 484.222,100.326 482.965,99.069 C481.709,97.812 479.671,97.812 478.414,99.069 Z M459.104,103.621 L478.414,122.931 C479.671,124.188 481.709,124.188 482.965,122.931 C484.222,121.674 484.222,119.636 482.965,118.379 L463.655,99.069 C462.398,97.812 460.361,97.812 459.104,99.069 C457.847,100.326 457.847,102.364 459.104,103.621 Z M432.156,116.021 L446.06,134.559 C447.674,136.714 448.137,137.266 449.108,138.002 C450.065,138.727 451.143,139.267 452.295,139.595 C453.46,139.928 454.158,139.965 456.874,139.965 L481.333,139.965 C488.739,139.965 490.498,139.822 492.971,138.562 C495.393,137.328 497.363,135.359 498.597,132.936 C499.856,130.464 500,128.704 500,121.299 L500,100.701 C500,93.296 499.856,91.536 498.597,89.064 C497.363,86.641 495.393,84.672 492.971,83.438 C490.498,82.178 488.739,82.035 481.333,82.035 L456.874,82.035 C454.16,82.035 453.461,82.072 452.29,82.406 C451.136,82.736 450.058,83.276 449.105,84 C448.856,84.188 448.617,84.393 448.384,84.617 C447.736,85.238 447.36,85.709 446.061,87.441 L432.156,105.979 C430.944,107.595 430.655,108.03 430.332,108.967 C430.268,109.159 430.268,109.159 430.213,109.356 C429.929,110.434 429.929,111.566 430.213,112.641 C430.271,112.849 430.271,112.849 430.338,113.05 C430.661,113.977 430.931,114.382 432.154,116.017 Z M437.309,112.162 C436.59,111.201 436.423,110.95 436.416,110.932 C436.426,110.963 436.426,110.963 436.436,110.998 C436.437,111 436.437,111 436.437,111 C436.427,111.036 436.427,111.036 436.417,111.065 C436.423,111.047 436.595,110.79 437.306,109.841 L451.209,91.304 C452.251,89.916 452.554,89.536 452.838,89.263 C452.896,89.208 452.946,89.165 452.996,89.128 C453.316,88.885 453.675,88.705 454.059,88.595 C454.405,88.496 454.866,88.471 456.874,88.471 L481.333,88.471 C487.445,88.471 488.906,88.591 490.049,89.173 C491.26,89.79 492.245,90.775 492.862,91.986 C493.444,93.129 493.563,94.589 493.563,100.701 L493.563,121.299 C493.563,127.411 493.444,128.871 492.861,130.015 C492.245,131.225 491.26,132.21 490.049,132.827 C488.906,133.409 487.445,133.529 481.333,133.529 L456.874,133.529 C454.868,133.529 454.407,133.504 454.061,133.405 C453.676,133.295 453.318,133.116 452.995,132.872 C452.707,132.653 452.405,132.293 451.211,130.698 L437.306,112.159 Z" />
        </g>
        <g id="Black-M" transform="translate(0,200)">
            <path d="M678.414,99.069 L659.104,118.379 C657.847,119.636 657.847,121.674 659.104,122.931 C660.361,124.188 662.398,124.188 663.655,122.931 L682.965,103.621 C684.222,102.364 684.222,100.326 682.965,99.069 C681.709,97.812 679.671,97.812 678.414,99.069 Z M659.104,103.621 L678.414,122.931 C679.671,124.188 681.709,124.188 682.965,122.931 C684.222,121.674 684.222,119.636 682.965,118.379 L663.655,99.069 C662.398,97.812 660.361,97.812 659.104,99.069 C657.847,100.326 657.847,102.364 659.104,103.621 Z M632.156,116.021 L646.06,134.559 C647.674,136.714 648.137,137.266 649.108,138.002 C650.065,138.727 651.143,139.267 652.295,139.595 C653.46,139.928 654.158,139.965 656.874,139.965 L681.333,139.965 C688.739,139.965 690.498,139.822 692.971,138.562 C695.393,137.328 697.363,135.359 698.597,132.936 C699.856,130.464 700,128.704 700,121.299 L700,100.701 C700,93.296 699.856,91.536 698.597,89.064 C697.363,86.641 695.393,84.672 692.971,83.438 C690.498,82.178 688.739,82.035 681.333,82.035 L656.874,82.035 C654.16,82.035 653.461,82.072 652.29,82.406 C651.136,82.736 650.058,83.276 649.105,84 C648.856,84.188 648.617,84.393 648.384,84.617 C647.736,85.238 647.36,85.709 646.061,87.441 L632.156,105.979 C630.945,107.595 630.655,108.03 630.332,108.967 C630.268,109.159 630.268,109.159 630.213,109.356 C629.929,110.434 629.929,111.566 630.213,112.641 C630.271,112.849 630.271,112.849 630.338,113.05 C630.661,113.977 630.931,114.382 632.154,116.017 Z M637.309,112.162 C636.59,111.201 636.423,110.95 636.416,110.932 C636.426,110.963 636.426,110.963 636.436,110.998 C636.437,111 636.437,111 636.437,111 C636.427,111.036 636.427,111.036 636.417,111.065 C636.423,111.047 636.595,110.79 637.306,109.841 L651.209,91.304 C652.251,89.916 652.554,89.536 652.839,89.263 C652.896,89.208 652.946,89.165 652.996,89.128 C653.316,88.885 653.675,88.705 654.059,88.595 C654.405,88.496 654.866,88.471 656.874,88.471 L681.333,88.471 C687.445,88.471 688.906,88.591 690.049,89.173 C691.26,89.79 692.245,90.775 692.862,91.986 C693.444,93.129 693.563,94.589 693.563,100.701 L693.563,121.299 C693.563,127.411 693.444,128.871 692.861,130.015 C692.245,131.225 691.26,132.21 690.049,132.827 C688.906,133.409 687.445,133.529 681.333,133.529 L656.874,133.529 C654.868,133.529 654.407,133.504 654.061,133.405 C653.676,133.295 653.318,133.116 652.995,132.872 C652.707,132.653 652.405,132.293 651.211,130.698 L637.306,112.159 Z" />
        </g>
    </g>
</svg>