<?xml version="1.0" encoding="UTF-8"?>
<svg height="600" width="800" xmlns="http://www.w3.org/2000/svg" xmlns:xlink="http://www.w3.org/1999/xlink">
    <g id="Notes" font-family="LucidaGrande, 'Lucida Grande', sans-serif" font-size="13">
        <rect fill="white" height="600.0" width="800.0" x="0.0" y="0.0" />
        <g font-size="13">
            <text x="18.0" y="176.0">Small</text>
            <text x="18.0" y="376.0">Medium</text>
            <text x="18.0" y="576.0">Large</text>
        </g>
        <g font-size="9">
            <text x="250.0" y="30.0">Ultralight</text>
            <text x="450.0" y="30.0">Regular</text>
            <text x="650.0" y="30.0">Black</text>
            <text id="template-version" fill="#505050" text-anchor="end" x="785.0" y="575.0">Template v.3.0</text>
            <a href="https://github.com/swhitty/SwiftDraw">
                <text fill="#505050" text-anchor="end" x="785.0" y="590.0">https://github.com/swhitty/SwiftDraw</text>
            </a>
        </g>
    </g>
    <g id="Guides" stroke="rgb(39, 170, 225)" stroke-width="0.5">
        <path id="Capline-S" d="M18,76 l800,0" />
        <path id="H-reference" d="M85,145.755 L87.685,145.755 L113.369,79.287 L114.052,79.287 L114.052,76 L112.148,76 L85,145.755 Z M95.693,121.536 L130.996,121.536 L130.263,119.313 L96.474,119.313 L95.693,121.536 Z M139.15,145.755 L141.787,145.755 L114.638,76 L113.466,76 L113.466,79.287 L139.15,145.755 Z" stroke="none" transform="translate(0,200)" />
        <path id="Baseline-S" d="M18,146 l800,0" />
        <path id="left-margin-Ultralight-M" d="M221,256 l0,110" />
        <path id="right-margin-Ultralight-M" d="M309,256 l0,110" />
        <path id="left-margin-Regular-M" d="M421,256 l0,110" />
        <path id="right-margin-Regular-M" d="M509,256 l0,110" />
        <path id="left-margin-Black-M" d="M621,256 l0,110" />
        <path id="right-margin-Black-M" d="M709,256 l0,110" />
        <path id="Capline-M" d="M18,276 l800,0" />
        <path id="Baseline-M" d="M18,346 l800,0" />
        <path id="Capline-L" d="M18,476 l800,0" />
        <path id="Baseline-L" d="M18,546 l800,0" />
    </g>
    <g id="Symbols">
        <g id="Ultralight-M" transform="translate(0,200)">
            <path d="M238.6,115.4 L291.4,115.4 C293.83,115.4 295.8,113.43 295.8,111 C295.8,108.57 293.83,106.6 291.4,106.6 L238.6,106.6 C236.17,106.6 234.2,108.57 234.2,111 C234.2,113.43 236.17,115.4 238.6,115.4 Z M225.4,89 L304.6,89 C307.03,89 309,87.03 309,84.6 C309,82.17 307.03,80.2 304.6,80.2 L225.4,80.2 C222.97,80.2 221,82.17 221,84.6 C221,87.03 222.97,89 225.4,89 Z M251.8,141.8 L278.2,141.8 C280.63,141.8 282.6,139.83 282.6,137.4 C282.6,134.97 280.63,133 278.2,133 L251.8,133 C249.37,133 247.4,134.97 247.4,137.4 C247.4,139.83 249.37,141.8 251.8,141.8 Z" />
        </g>
        <g id="Regular-M" transform="translate(0,200)">
            <path d="M438.6,115.4 L491.4,115.4 C493.83,115.4 495.8,113.43 495.8,111 C495.8,108.57 493.83,106.6 491.4,106.6 L438.6,106.6 C436.17,106.6 434.2,108.57 434.2,111 C434.2,113.43 436.17,115.4 438.6,115.4 Z M425.4,89 L504.6,89 C507.03,89 509,87.03 509,84.6 C509,82.17 507.03,80.2 504.6,80.2 L425.4,80.2 C422.97,80.2 421,82.17 421,84.6 C421,87.03 422.97,89 425.4,89 Z M451.8,141.8 L478.2,141.8 C480.63,141.8 482.6,139.83 482.6,137.4 C482.6,134.97 480.63,133 478.2,133 L451.8,133 C449.37,133 447.4,134.97 447.4,137.4 C447.4,139.83 449.37,141.8 451.8,141.8 Z" />
        </g>
        <g id="Black-M" transform="translate(0,200)">
            <path d="M638.6,115.4 L691.4,115.4 C693.83,115.4 695.8,113.43 695.8,111 C695.8,108.57 693.83,106.6 691.4,106.6 L638.6,106.6 C636.17,106.6 634.2,108.57 634.2,111 C634.2,113.43 636.17,115.4 638.6,115.4 Z M625.4,89 L704.6,89 C707.03,89 709,87.03 709,84.6 C709,82.17 707.03,80.2 704.6,80.2 L625.4,80.2 C622.97,80.2 621,82.17 621,84.6 C621,87.03 622.97,89 625.4,89 Z M651.8,141.8 L678.2,141.8 C680.63,141.8 682.6,139.83 682.6,137.4 C682.6,134.97 680.63,133 678.2,133 L651.8,133 C649.37,133 647.4,134.97 647.4,137.4 C647.4,139.83 649.37,141.8 651.8,141.8 Z" />
        </g>
    </g>
</svg>