<?xml version="1.0" encoding="UTF-8"?>
<svg height="600" width="800" xmlns="http://www.w3.org/2000/svg" xmlns:xlink="http://www.w3.org/1999/xlink">
    <g id="Notes" font-family="LucidaGrande, 'Lucida Grande', sans-serif" font-size="13">
        <rect fill="white" height="600.0" width="800.0" x="0.0" y="0.0" />
        <g font-size="13">
            <text x="18.0" y="176.0">Small</text>
            <text x="18.0" y="376.0">Medium</text>
            <text x="18.0" y="576.0">Large</text>
        </g>
        <g font-size="9">
            <text x="250.0" y="30.0">Ultralight</text>
            <text x="450.0" y="30.0">Regular</text>
            <text x="650.0" y="30.0">Black</text>
            <text id="template-version" fill="#505050" text-anchor="end" x="785.0" y="575.0">Template v.3.0</text>
            <a href="https://github.com/swhitty/SwiftDraw">
                <text fill="#505050" text-anchor="end" x="785.0" y="590.0">https://github.com/swhitty/SwiftDraw</text>
            </a>
        </g>
    </g>
    <g id="Guides" stroke="rgb(39, 170, 225)" stroke-width="0.5">
        <path id="Capline-S" d="M18,76 l800,0" />
        <path id="H-reference" d="M85,145.755 L87.685,145.755 L113.369,79.287 L114.052,79.287 L114.052,76 L112.148,76 L85,145.755 Z M95.693,121.536 L130.996,121.536 L130.263,119.313 L96.474,119.313 L95.693,121.536 Z M139.15,145.755 L141.787,145.755 L114.638,76 L113.466,76 L113.466,79.287 L139.15,145.755 Z" stroke="none" transform="translate(0,200)" />
        <path id="Baseline-S" d="M18,146 l800,0" />
        <path id="left-margin-Ultralight-M" d="M230,256 l0,110" />
        <path id="right-margin-Ultralight-M" d="M300,256 l0,110" />
        <path id="left-margin-Regular-M" d="M430,256 l0,110" />
        <path id="right-margin-Regular-M" d="M500,256 l0,110" />
        <path id="left-margin-Black-M" d="M630,256 l0,110" />
        <path id="right-margin-Black-M" d="M700,256 l0,110" />
        <path id="Capline-M" d="M18,276 l800,0" />
        <path id="Baseline-M" d="M18,346 l800,0" />
        <path id="Capline-L" d="M18,476 l800,0" />
        <path id="Baseline-L" d="M18,546 l800,0" />
    </g>
    <g id="Symbols">
        <g id="Ultralight-M" transform="translate(0,200)">
            <path d="M255.455,134.333 L249.091,134.333 C242.062,134.333 236.364,123.887 236.364,111 C236.364,98.113 242.062,87.667 249.091,87.667 L255.455,87.667 C257.212,87.667 258.636,85.055 258.636,81.833 C258.636,78.612 257.212,76 255.455,76 L249.091,76 C238.547,76 230,91.67 230,111 C230,130.33 238.547,146 249.091,146 L255.455,146 C257.212,146 258.636,143.388 258.636,140.167 C258.636,136.945 257.212,134.333 255.455,134.333 Z M252.273,116.833 L284.091,116.833 C285.848,116.833 287.273,114.222 287.273,111 C287.273,107.778 285.848,105.167 284.091,105.167 L252.273,105.167 C250.515,105.167 249.091,107.778 249.091,111 C249.091,114.222 250.515,116.833 252.273,116.833 Z M277.021,146 L280.909,146 C291.453,146 300,130.33 300,111 C300,91.67 291.453,76 280.909,76 L277.021,76 C273.896,76 271.364,80.644 271.364,86.372 L271.364,135.628 C271.364,141.358 273.895,146 277.021,146 Z M277.021,134.333 C277.41,134.333 277.727,134.915 277.727,135.628 L277.727,86.372 C277.727,87.087 277.411,87.667 277.021,87.667 L280.909,87.667 C287.938,87.667 293.636,98.113 293.636,111 C293.636,123.887 287.938,134.333 280.909,134.333 L277.021,134.333 Z" />
        </g>
        <g id="Regular-M" transform="translate(0,200)">
            <path d="M455.455,134.333 L449.091,134.333 C442.062,134.333 436.364,123.887 436.364,111 C436.364,98.113 442.062,87.667 449.091,87.667 L455.455,87.667 C457.212,87.667 458.636,85.055 458.636,81.833 C458.636,78.612 457.212,76 455.455,76 L449.091,76 C438.547,76 430,91.67 430,111 C430,130.33 438.547,146 449.091,146 L455.455,146 C457.212,146 458.636,143.388 458.636,140.167 C458.636,136.945 457.212,134.333 455.455,134.333 Z M452.273,116.833 L484.091,116.833 C485.848,116.833 487.273,114.222 487.273,111 C487.273,107.778 485.848,105.167 484.091,105.167 L452.273,105.167 C450.515,105.167 449.091,107.778 449.091,111 C449.091,114.222 450.515,116.833 452.273,116.833 Z M477.021,146 L480.909,146 C491.453,146 500,130.33 500,111 C500,91.67 491.453,76 480.909,76 L477.021,76 C473.896,76 471.364,80.644 471.364,86.372 L471.364,135.628 C471.364,141.358 473.895,146 477.021,146 Z M477.021,134.333 C477.41,134.333 477.727,134.915 477.727,135.628 L477.727,86.372 C477.727,87.087 477.411,87.667 477.021,87.667 L480.909,87.667 C487.938,87.667 493.636,98.113 493.636,111 C493.636,123.887 487.938,134.333 480.909,134.333 L477.021,134.333 Z" />
        </g>
        <g id="Black-M" transform="translate(0,200)">
            <path d="M655.455,134.333 L649.091,134.333 C642.062,134.333 636.364,123.887 636.364,111 C636.364,98.113 642.062,87.667 649.091,87.667 L655.455,87.667 C657.212,87.667 658.636,85.055 658.636,81.833 C658.636,78.612 657.212,76 655.455,76 L649.091,76 C638.547,76 630,91.67 630,111 C630,130.33 638.547,146 649.091,146 L655.455,146 C657.212,146 658.636,143.388 658.636,140.167 C658.636,136.945 657.212,134.333 655.455,134.333 Z M652.273,116.833 L684.091,116.833 C685.848,116.833 687.273,114.222 687.273,111 C687.273,107.778 685.848,105.167 684.091,105.167 L652.273,105.167 C650.515,105.167 649.091,107.778 649.091,111 C649.091,114.222 650.515,116.833 652.273,116.833 Z M677.021,146 L680.909,146 C691.453,146 700,130.33 700,111 C700,91.67 691.453,76 680.909,76 L677.021,76 C673.896,76 671.364,80.644 671.364,86.372 L671.364,135.628 C671.364,141.358 673.895,146 677.021,146 Z M677.021,134.333 C677.41,134.333 677.727,134.915 677.727,135.628 L677.727,86.372 C677.727,87.087 677.411,87.667 677.021,87.667 L680.909,87.667 C687.938,87.667 693.636,98.113 693.636,111 C693.636,123.887 687.938,134.333 680.909,134.333 L677.021,134.333 Z" />
        </g>
    </g>
</svg>