<?xml version="1.0" encoding="UTF-8"?>
<svg height="600" width="800" xmlns="http://www.w3.org/2000/svg" xmlns:xlink="http://www.w3.org/1999/xlink">
    <g id="Notes" font-family="LucidaGrande, 'Lucida Grande', sans-serif" font-size="13">
        <rect fill="white" height="600.0" width="800.0" x="0.0" y="0.0" />
        <g font-size="13">
            <text x="18.0" y="176.0">Small</text>
            <text x="18.0" y="376.0">Medium</text>
            <text x="18.0" y="576.0">Large</text>
        </g>
        <g font-size="9">
            <text x="250.0" y="30.0">Ultralight</text>
            <text x="450.0" y="30.0">Regular</text>
            <text x="650.0" y="30.0">Black</text>
            <text id="template-version" fill="#505050" text-anchor="end" x="785.0" y="575.0">Template v.3.0</text>
            <a href="https://github.com/swhitty/SwiftDraw">
                <text fill="#505050" text-anchor="end" x="785.0" y="590.0">https://github.com/swhitty/SwiftDraw</text>
            </a>
        </g>
    </g>
    <g id="Guides" stroke="rgb(39, 170, 225)" stroke-width="0.5">
        <path id="Capline-S" d="M18,76 l800,0" />
        <path id="H-reference" d="M85,145.755 L87.685,145.755 L113.369,79.287 L114.052,79.287 L114.052,76 L112.148,76 L85,145.755 Z M95.693,121.536 L130.996,121.536 L130.263,119.313 L96.474,119.313 L95.693,121.536 Z M139.15,145.755 L141.787,145.755 L114.638,76 L113.466,76 L113.466,79.287 L139.15,145.755 Z" stroke="none" transform="translate(0,200)" />
        <path id="Baseline-S" d="M18,146 l800,0" />
        <path id="left-margin-Ultralight-M" d="M230,256 l0,110" />
        <path id="right-margin-Ultralight-M" d="M300,256 l0,110" />
        <path id="left-margin-Regular-M" d="M430,256 l0,110" />
        <path id="right-margin-Regular-M" d="M500,256 l0,110" />
        <path id="left-margin-Black-M" d="M630,256 l0,110" />
        <path id="right-margin-Black-M" d="M700,256 l0,110" />
        <path id="Capline-M" d="M18,276 l800,0" />
        <path id="Baseline-M" d="M18,346 l800,0" />
        <path id="Capline-L" d="M18,476 l800,0" />
        <path id="Baseline-L" d="M18,546 l800,0" />
    </g>
    <g id="Symbols">
        <g id="Ultralight-M" transform="translate(0,200)">
            <path d="M285.417,90.583 C285.417,93.025 276.371,96.417 265,96.417 C253.629,96.417 244.583,93.025 244.583,90.583 C244.583,88.973 243.277,87.667 241.667,87.667 C240.056,87.667 238.75,88.973 238.75,90.583 C238.75,97.807 250.598,102.25 265,102.25 C279.402,102.25 291.25,97.807 291.25,90.583 C291.25,88.973 289.944,87.667 288.333,87.667 C286.723,87.667 285.417,88.973 285.417,90.583 Z M291.25,90.583 C291.25,83.359 279.402,78.917 265,78.917 C250.598,78.917 238.75,83.359 238.75,90.583 C238.75,92.194 240.056,93.5 241.667,93.5 C243.277,93.5 244.583,92.194 244.583,90.583 C244.583,88.142 253.629,84.75 265,84.75 C276.371,84.75 285.417,88.142 285.417,90.583 C285.417,92.194 286.723,93.5 288.333,93.5 C289.944,93.5 291.25,92.194 291.25,90.583 Z M285.417,90.583 L285.417,131.417 C285.417,133.858 276.371,137.25 265,137.25 C253.629,137.25 244.583,133.858 244.583,131.417 L244.583,90.583 C244.583,88.973 243.277,87.667 241.667,87.667 C240.056,87.667 238.75,88.973 238.75,90.583 L238.75,131.417 C238.75,138.641 250.598,143.083 265,143.083 C279.402,143.083 291.25,138.641 291.25,131.417 L291.25,90.583 C291.25,88.973 289.944,87.667 288.333,87.667 C286.723,87.667 285.417,88.973 285.417,90.583 Z M285.417,104.195 C285.417,106.635 276.369,110.029 265,110.029 C253.631,110.029 244.583,106.635 244.583,104.195 C244.583,102.585 243.277,101.279 241.667,101.279 C240.056,101.279 238.75,102.585 238.75,104.195 C238.75,111.417 250.601,115.862 265,115.862 C279.399,115.862 291.25,111.417 291.25,104.195 C291.25,102.585 289.944,101.279 288.333,101.279 C286.723,101.279 285.417,102.585 285.417,104.195 Z M285.417,117.796 C285.417,120.237 276.371,123.629 265,123.629 C253.629,123.629 244.583,120.237 244.583,117.796 C244.583,116.185 243.277,114.879 241.667,114.879 C240.056,114.879 238.75,116.185 238.75,117.796 C238.75,125.02 250.598,129.462 265,129.462 C279.402,129.462 291.25,125.02 291.25,117.796 C291.25,116.185 289.944,114.879 288.333,114.879 C286.723,114.879 285.417,116.185 285.417,117.796 Z" />
        </g>
        <g id="Regular-M" transform="translate(0,200)">
            <path d="M485.417,90.583 C485.417,93.025 476.371,96.417 465,96.417 C453.629,96.417 444.583,93.025 444.583,90.583 C444.583,88.973 443.277,87.667 441.667,87.667 C440.056,87.667 438.75,88.973 438.75,90.583 C438.75,97.807 450.598,102.25 465,102.25 C479.402,102.25 491.25,97.807 491.25,90.583 C491.25,88.973 489.944,87.667 488.333,87.667 C486.723,87.667 485.417,88.973 485.417,90.583 Z M491.25,90.583 C491.25,83.359 479.402,78.917 465,78.917 C450.598,78.917 438.75,83.359 438.75,90.583 C438.75,92.194 440.056,93.5 441.667,93.5 C443.277,93.5 444.583,92.194 444.583,90.583 C444.583,88.142 453.629,84.75 465,84.75 C476.371,84.75 485.417,88.142 485.417,90.583 C485.417,92.194 486.723,93.5 488.333,93.5 C489.944,93.5 491.25,92.194 491.25,90.583 Z M485.417,90.583 L485.417,131.417 C485.417,133.858 476.371,137.25 465,137.25 C453.629,137.25 444.583,133.858 444.583,131.417 L444.583,90.583 C444.583,88.973 443.277,87.667 441.667,87.667 C440.056,87.667 438.75,88.973 438.75,90.583 L438.75,131.417 C438.75,138.641 450.598,143.083 465,143.083 C479.402,143.083 491.25,138.641 491.25,131.417 L491.25,90.583 C491.25,88.973 489.944,87.667 488.333,87.667 C486.723,87.667 485.417,88.973 485.417,90.583 Z M485.417,104.195 C485.417,106.635 476.369,110.029 465,110.029 C453.631,110.029 444.583,106.635 444.583,104.195 C444.583,102.585 443.277,101.279 441.667,101.279 C440.056,101.279 438.75,102.585 438.75,104.195 C438.75,111.417 450.601,115.862 465,115.862 C479.399,115.862 491.25,111.417 491.25,104.195 C491.25,102.585 489.944,101.279 488.333,101.279 C486.723,101.279 485.417,102.585 485.417,104.195 Z M485.417,117.796 C485.417,120.237 476.371,123.629 465,123.629 C453.629,123.629 444.583,120.237 444.583,117.796 C444.583,116.185 443.277,114.879 441.667,114.879 C440.056,114.879 438.75,116.185 438.75,117.796 C438.75,125.02 450.598,129.462 465,129.462 C479.402,129.462 491.25,125.02 491.25,117.796 C491.25,116.185 489.944,114.879 488.333,114.879 C486.723,114.879 485.417,116.185 485.417,117.796 Z" />
        </g>
        <g id="Black-M" transform="translate(0,200)">
            <path d="M685.417,90.583 C685.417,93.025 676.371,96.417 665,96.417 C653.629,96.417 644.583,93.025 644.583,90.583 C644.583,88.973 643.278,87.667 641.667,87.667 C640.056,87.667 638.75,88.973 638.75,90.583 C638.75,97.807 650.598,102.25 665,102.25 C679.402,102.25 691.25,97.807 691.25,90.583 C691.25,88.973 689.944,87.667 688.333,87.667 C686.723,87.667 685.417,88.973 685.417,90.583 Z M691.25,90.583 C691.25,83.359 679.402,78.917 665,78.917 C650.598,78.917 638.75,83.359 638.75,90.583 C638.75,92.194 640.056,93.5 641.667,93.5 C643.278,93.5 644.583,92.194 644.583,90.583 C644.583,88.142 653.629,84.75 665,84.75 C676.371,84.75 685.417,88.142 685.417,90.583 C685.417,92.194 686.723,93.5 688.333,93.5 C689.944,93.5 691.25,92.194 691.25,90.583 Z M685.417,90.583 L685.417,131.417 C685.417,133.858 676.371,137.25 665,137.25 C653.629,137.25 644.583,133.858 644.583,131.417 L644.583,90.583 C644.583,88.973 643.278,87.667 641.667,87.667 C640.056,87.667 638.75,88.973 638.75,90.583 L638.75,131.417 C638.75,138.641 650.598,143.083 665,143.083 C679.402,143.083 691.25,138.641 691.25,131.417 L691.25,90.583 C691.25,88.973 689.944,87.667 688.333,87.667 C686.723,87.667 685.417,88.973 685.417,90.583 Z M685.417,104.195 C685.417,106.635 676.369,110.029 665,110.029 C653.631,110.029 644.583,106.635 644.583,104.195 C644.583,102.585 643.278,101.279 641.667,101.279 C640.056,101.279 638.75,102.585 638.75,104.195 C638.75,111.417 650.601,115.862 665,115.862 C679.399,115.862 691.25,111.417 691.25,104.195 C691.25,102.585 689.944,101.279 688.333,101.279 C686.723,101.279 685.417,102.585 685.417,104.195 Z M685.417,117.796 C685.417,120.237 676.371,123.629 665,123.629 C653.629,123.629 644.583,120.237 644.583,117.796 C644.583,116.185 643.278,114.879 641.667,114.879 C640.056,114.879 638.75,116.185 638.75,117.796 C638.75,125.02 650.598,129.462 665,129.462 C679.402,129.462 691.25,125.02 691.25,117.796 C691.25,116.185 689.944,114.879 688.333,114.879 C686.723,114.879 685.417,116.185 685.417,117.796 Z" />
        </g>
    </g>
</svg>