<?xml version="1.0" encoding="UTF-8"?>
<svg height="600" width="800" xmlns="http://www.w3.org/2000/svg" xmlns:xlink="http://www.w3.org/1999/xlink">
    <g id="Notes" font-family="LucidaGrande, 'Lucida Grande', sans-serif" font-size="13">
        <rect fill="white" height="600.0" width="800.0" x="0.0" y="0.0" />
        <g font-size="13">
            <text x="18.0" y="176.0">Small</text>
            <text x="18.0" y="376.0">Medium</text>
            <text x="18.0" y="576.0">Large</text>
        </g>
        <g font-size="9">
            <text x="250.0" y="30.0">Ultralight</text>
            <text x="450.0" y="30.0">Regular</text>
            <text x="650.0" y="30.0">Black</text>
            <text id="template-version" fill="#505050" text-anchor="end" x="785.0" y="575.0">Template v.3.0</text>
            <a href="https://github.com/swhitty/SwiftDraw">
                <text fill="#505050" text-anchor="end" x="785.0" y="590.0">https://github.com/swhitty/SwiftDraw</text>
            </a>
        </g>
    </g>
    <g id="Guides" stroke="rgb(39, 170, 225)" stroke-width="0.5">
        <path id="Capline-S" d="M18,76 l800,0" />
        <path id="H-reference" d="M85,145.755 L87.685,145.755 L113.369,79.287 L114.052,79.287 L114.052,76 L112.148,76 L85,145.755 Z M95.693,121.536 L130.996,121.536 L130.263,119.313 L96.474,119.313 L95.693,121.536 Z M139.15,145.755 L141.787,145.755 L114.638,76 L113.466,76 L113.466,79.287 L139.15,145.755 Z" stroke="none" transform="translate(0,200)" />
        <path id="Baseline-S" d="M18,146 l800,0" />
        <path id="left-margin-Ultralight-M" d="M221,256 l0,110" />
        <path id="right-margin-Ultralight-M" d="M309,256 l0,110" />
        <path id="left-margin-Regular-M" d="M421,256 l0,110" />
        <path id="right-margin-Regular-M" d="M509,256 l0,110" />
        <path id="left-margin-Black-M" d="M621,256 l0,110" />
        <path id="right-margin-Black-M" d="M709,256 l0,110" />
        <path id="Capline-M" d="M18,276 l800,0" />
        <path id="Baseline-M" d="M18,346 l800,0" />
        <path id="Capline-L" d="M18,476 l800,0" />
        <path id="Baseline-L" d="M18,546 l800,0" />
    </g>
    <g id="Symbols">
        <g id="Ultralight-M" transform="translate(0,200)">
            <path d="M259.211,101.737 L270.789,101.737 C272.068,101.737 273.105,100.7 273.105,99.421 C273.105,98.142 272.068,97.105 270.789,97.105 L259.211,97.105 C257.932,97.105 256.895,98.142 256.895,99.421 C256.895,100.7 257.932,101.737 259.211,101.737 Z M259.211,111 L270.789,111 C272.068,111 273.105,109.963 273.105,108.684 C273.105,107.405 272.068,106.368 270.789,106.368 L259.211,106.368 C257.932,106.368 256.895,107.405 256.895,108.684 C256.895,109.963 257.932,111 259.211,111 Z M259.211,120.263 L270.789,120.263 C272.068,120.263 273.105,119.226 273.105,117.947 C273.105,116.668 272.068,115.632 270.789,115.632 L259.211,115.632 C257.932,115.632 256.895,116.668 256.895,117.947 C256.895,119.226 257.932,120.263 259.211,120.263 Z M281.211,131.842 L281.211,97.568 C281.211,93.861 281.139,92.981 280.453,91.636 C279.787,90.328 278.724,89.265 277.417,88.599 C276.072,87.914 275.192,87.842 271.484,87.842 L258.516,87.842 C254.808,87.842 253.928,87.914 252.583,88.599 C251.276,89.265 250.213,90.328 249.547,91.635 C248.861,92.981 248.789,93.861 248.789,97.568 L248.789,131.842 C248.789,133.121 249.826,134.158 251.105,134.158 C252.384,134.158 253.421,133.121 253.421,131.842 L253.421,97.568 C253.421,94.792 253.475,94.127 253.674,93.738 C253.895,93.302 254.25,92.948 254.685,92.726 C255.074,92.528 255.739,92.474 258.516,92.474 L271.484,92.474 C274.261,92.474 274.926,92.528 275.315,92.726 C275.75,92.948 276.104,93.302 276.327,93.738 C276.525,94.127 276.579,94.792 276.579,97.568 L276.579,131.842 C276.579,133.121 277.616,134.158 278.895,134.158 C280.174,134.158 281.211,133.121 281.211,131.842 Z M283.526,129.526 L246.474,129.526 C245.195,129.526 244.158,130.563 244.158,131.842 C244.158,133.121 245.195,134.158 246.474,134.158 L283.526,134.158 C284.805,134.158 285.842,133.121 285.842,131.842 C285.842,130.563 284.805,129.526 283.526,129.526 Z" />
        </g>
        <g id="Regular-M" transform="translate(0,200)">
            <path d="M459.211,101.737 L470.789,101.737 C472.068,101.737 473.105,100.7 473.105,99.421 C473.105,98.142 472.068,97.105 470.789,97.105 L459.211,97.105 C457.932,97.105 456.895,98.142 456.895,99.421 C456.895,100.7 457.932,101.737 459.211,101.737 Z M459.211,111 L470.789,111 C472.068,111 473.105,109.963 473.105,108.684 C473.105,107.405 472.068,106.368 470.789,106.368 L459.211,106.368 C457.932,106.368 456.895,107.405 456.895,108.684 C456.895,109.963 457.932,111 459.211,111 Z M459.211,120.263 L470.789,120.263 C472.068,120.263 473.105,119.226 473.105,117.947 C473.105,116.668 472.068,115.632 470.789,115.632 L459.211,115.632 C457.932,115.632 456.895,116.668 456.895,117.947 C456.895,119.226 457.932,120.263 459.211,120.263 Z M481.211,131.842 L481.211,97.568 C481.211,93.861 481.139,92.981 480.453,91.636 C479.787,90.328 478.724,89.265 477.417,88.599 C476.072,87.914 475.192,87.842 471.484,87.842 L458.516,87.842 C454.808,87.842 453.928,87.914 452.583,88.599 C451.276,89.265 450.213,90.328 449.547,91.635 C448.861,92.981 448.789,93.861 448.789,97.568 L448.789,131.842 C448.789,133.121 449.826,134.158 451.105,134.158 C452.384,134.158 453.421,133.121 453.421,131.842 L453.421,97.568 C453.421,94.792 453.475,94.127 453.674,93.738 C453.895,93.302 454.25,92.948 454.685,92.726 C455.074,92.528 455.739,92.474 458.516,92.474 L471.484,92.474 C474.261,92.474 474.926,92.528 475.315,92.726 C475.75,92.948 476.104,93.302 476.327,93.738 C476.525,94.127 476.579,94.792 476.579,97.568 L476.579,131.842 C476.579,133.121 477.616,134.158 478.895,134.158 C480.174,134.158 481.211,133.121 481.211,131.842 Z M483.526,129.526 L446.474,129.526 C445.195,129.526 444.158,130.563 444.158,131.842 C444.158,133.121 445.195,134.158 446.474,134.158 L483.526,134.158 C484.805,134.158 485.842,133.121 485.842,131.842 C485.842,130.563 484.805,129.526 483.526,129.526 Z" />
        </g>
        <g id="Black-M" transform="translate(0,200)">
            <path d="M659.211,101.737 L670.789,101.737 C672.068,101.737 673.105,100.7 673.105,99.421 C673.105,98.142 672.068,97.105 670.789,97.105 L659.211,97.105 C657.932,97.105 656.895,98.142 656.895,99.421 C656.895,100.7 657.932,101.737 659.211,101.737 Z M659.211,111 L670.789,111 C672.068,111 673.105,109.963 673.105,108.684 C673.105,107.405 672.068,106.368 670.789,106.368 L659.211,106.368 C657.932,106.368 656.895,107.405 656.895,108.684 C656.895,109.963 657.932,111 659.211,111 Z M659.211,120.263 L670.789,120.263 C672.068,120.263 673.105,119.226 673.105,117.947 C673.105,116.668 672.068,115.632 670.789,115.632 L659.211,115.632 C657.932,115.632 656.895,116.668 656.895,117.947 C656.895,119.226 657.932,120.263 659.211,120.263 Z M681.211,131.842 L681.211,97.568 C681.211,93.861 681.139,92.981 680.453,91.636 C679.787,90.328 678.724,89.265 677.417,88.599 C676.072,87.914 675.192,87.842 671.484,87.842 L658.516,87.842 C654.808,87.842 653.928,87.914 652.583,88.599 C651.276,89.265 650.213,90.328 649.547,91.635 C648.861,92.981 648.789,93.861 648.789,97.568 L648.789,131.842 C648.789,133.121 649.826,134.158 651.105,134.158 C652.384,134.158 653.421,133.121 653.421,131.842 L653.421,97.568 C653.421,94.792 653.475,94.127 653.674,93.738 C653.896,93.302 654.25,92.948 654.685,92.726 C655.074,92.528 655.739,92.474 658.516,92.474 L671.484,92.474 C674.261,92.474 674.926,92.528 675.315,92.726 C675.75,92.948 676.104,93.302 676.327,93.738 C676.525,94.127 676.579,94.792 676.579,97.568 L676.579,131.842 C676.579,133.121 677.616,134.158 678.895,134.158 C680.174,134.158 681.211,133.121 681.211,131.842 Z M683.526,129.526 L646.474,129.526 C645.195,129.526 644.158,130.563 644.158,131.842 C644.158,133.121 645.195,134.158 646.474,134.158 L683.526,134.158 C684.805,134.158 685.842,133.121 685.842,131.842 C685.842,130.563 684.805,129.526 683.526,129.526 Z" />
        </g>
    </g>
</svg>