<?xml version="1.0" encoding="UTF-8"?>
<svg height="600" width="800" xmlns="http://www.w3.org/2000/svg" xmlns:xlink="http://www.w3.org/1999/xlink">
    <g id="Notes" font-family="LucidaGrande, 'Lucida Grande', sans-serif" font-size="13">
        <rect fill="white" height="600.0" width="800.0" x="0.0" y="0.0" />
        <g font-size="13">
            <text x="18.0" y="176.0">Small</text>
            <text x="18.0" y="376.0">Medium</text>
            <text x="18.0" y="576.0">Large</text>
        </g>
        <g font-size="9">
            <text x="250.0" y="30.0">Ultralight</text>
            <text x="450.0" y="30.0">Regular</text>
            <text x="650.0" y="30.0">Black</text>
            <text id="template-version" fill="#505050" text-anchor="end" x="785.0" y="575.0">Template v.3.0</text>
            <a href="https://github.com/swhitty/SwiftDraw">
                <text fill="#505050" text-anchor="end" x="785.0" y="590.0">https://github.com/swhitty/SwiftDraw</text>
            </a>
        </g>
    </g>
    <g id="Guides" stroke="rgb(39, 170, 225)" stroke-width="0.5">
        <path id="Capline-S" d="M18,76 l800,0" />
        <path id="H-reference" d="M85,145.755 L87.685,145.755 L113.369,79.287 L114.052,79.287 L114.052,76 L112.148,76 L85,145.755 Z M95.693,121.536 L130.996,121.536 L130.263,119.313 L96.474,119.313 L95.693,121.536 Z M139.15,145.755 L141.787,145.755 L114.638,76 L113.466,76 L113.466,79.287 L139.15,145.755 Z" stroke="none" transform="translate(0,200)" />
        <path id="Baseline-S" d="M18,146 l800,0" />
        <path id="left-margin-Ultralight-M" d="M230,256 l0,110" />
        <path id="right-margin-Ultralight-M" d="M300,256 l0,110" />
        <path id="left-margin-Regular-M" d="M430,256 l0,110" />
        <path id="right-margin-Regular-M" d="M500,256 l0,110" />
        <path id="left-margin-Black-M" d="M630,256 l0,110" />
        <path id="right-margin-Black-M" d="M700,256 l0,110" />
        <path id="Capline-M" d="M18,276 l800,0" />
        <path id="Baseline-M" d="M18,346 l800,0" />
        <path id="Capline-L" d="M18,476 l800,0" />
        <path id="Baseline-L" d="M18,546 l800,0" />
    </g>
    <g id="Symbols">
        <g id="Ultralight-M" transform="translate(0,200)">
            <path d="M255.455,126.909 C269.513,126.909 280.909,115.513 280.909,101.455 C280.909,87.396 269.513,76 255.455,76 C241.396,76 230,87.396 230,101.455 C230,115.513 241.396,126.909 255.455,126.909 Z M255.455,120.545 C244.911,120.545 236.364,111.998 236.364,101.455 C236.364,90.911 244.911,82.364 255.455,82.364 C265.998,82.364 274.545,90.911 274.545,101.455 C274.545,111.998 265.998,120.545 255.455,120.545 Z" />
            <path d="M274.545,146 C288.604,146 300,134.604 300,120.545 C300,106.487 288.604,95.091 274.545,95.091 C260.487,95.091 249.091,106.487 249.091,120.545 C249.091,134.604 260.487,146 274.545,146 Z M274.545,139.636 C264.002,139.636 255.455,131.089 255.455,120.545 C255.455,110.002 264.002,101.455 274.545,101.455 C285.089,101.455 293.636,110.002 293.636,120.545 C293.636,131.089 285.089,139.636 274.545,139.636 Z" />
        </g>
        <g id="Regular-M" transform="translate(0,200)">
            <path d="M455.455,126.909 C469.513,126.909 480.909,115.513 480.909,101.455 C480.909,87.396 469.513,76 455.455,76 C441.396,76 430,87.396 430,101.455 C430,115.513 441.396,126.909 455.455,126.909 Z M455.455,120.545 C444.911,120.545 436.364,111.998 436.364,101.455 C436.364,90.911 444.911,82.364 455.455,82.364 C465.998,82.364 474.545,90.911 474.545,101.455 C474.545,111.998 465.998,120.545 455.455,120.545 Z" />
            <path d="M474.545,146 C488.604,146 500,134.604 500,120.545 C500,106.487 488.604,95.091 474.545,95.091 C460.487,95.091 449.091,106.487 449.091,120.545 C449.091,134.604 460.487,146 474.545,146 Z M474.545,139.636 C464.002,139.636 455.455,131.089 455.455,120.545 C455.455,110.002 464.002,101.455 474.545,101.455 C485.089,101.455 493.636,110.002 493.636,120.545 C493.636,131.089 485.089,139.636 474.545,139.636 Z" />
        </g>
        <g id="Black-M" transform="translate(0,200)">
            <path d="M655.455,126.909 C669.513,126.909 680.909,115.513 680.909,101.455 C680.909,87.396 669.513,76 655.455,76 C641.396,76 630,87.396 630,101.455 C630,115.513 641.396,126.909 655.455,126.909 Z M655.455,120.545 C644.911,120.545 636.364,111.998 636.364,101.455 C636.364,90.911 644.911,82.364 655.455,82.364 C665.998,82.364 674.545,90.911 674.545,101.455 C674.545,111.998 665.998,120.545 655.455,120.545 Z" />
            <path d="M674.545,146 C688.604,146 700,134.604 700,120.545 C700,106.487 688.604,95.091 674.545,95.091 C660.487,95.091 649.091,106.487 649.091,120.545 C649.091,134.604 660.487,146 674.545,146 Z M674.545,139.636 C664.002,139.636 655.455,131.089 655.455,120.545 C655.455,110.002 664.002,101.455 674.545,101.455 C685.089,101.455 693.636,110.002 693.636,120.545 C693.636,131.089 685.089,139.636 674.545,139.636 Z" />
        </g>
    </g>
</svg>