<?xml version="1.0" encoding="UTF-8"?>
<svg height="600" width="800" xmlns="http://www.w3.org/2000/svg" xmlns:xlink="http://www.w3.org/1999/xlink">
    <g id="Notes" font-family="LucidaGrande, 'Lucida Grande', sans-serif" font-size="13">
        <rect fill="white" height="600.0" width="800.0" x="0.0" y="0.0" />
        <g font-size="13">
            <text x="18.0" y="176.0">Small</text>
            <text x="18.0" y="376.0">Medium</text>
            <text x="18.0" y="576.0">Large</text>
        </g>
        <g font-size="9">
            <text x="250.0" y="30.0">Ultralight</text>
            <text x="450.0" y="30.0">Regular</text>
            <text x="650.0" y="30.0">Black</text>
            <text id="template-version" fill="#505050" text-anchor="end" x="785.0" y="575.0">Template v.3.0</text>
            <a href="https://github.com/swhitty/SwiftDraw">
                <text fill="#505050" text-anchor="end" x="785.0" y="590.0">https://github.com/swhitty/SwiftDraw</text>
            </a>
        </g>
    </g>
    <g id="Guides" stroke="rgb(39, 170, 225)" stroke-width="0.5">
        <path id="Capline-S" d="M18,76 l800,0" />
        <path id="H-reference" d="M85,145.755 L87.685,145.755 L113.369,79.287 L114.052,79.287 L114.052,76 L112.148,76 L85,145.755 Z M95.693,121.536 L130.996,121.536 L130.263,119.313 L96.474,119.313 L95.693,121.536 Z M139.15,145.755 L141.787,145.755 L114.638,76 L113.466,76 L113.466,79.287 L139.15,145.755 Z" stroke="none" transform="translate(0,200)" />
        <path id="Baseline-S" d="M18,146 l800,0" />
        <path id="left-margin-Ultralight-M" d="M230,256 l0,110" />
        <path id="right-margin-Ultralight-M" d="M300,256 l0,110" />
        <path id="left-margin-Regular-M" d="M430,256 l0,110" />
        <path id="right-margin-Regular-M" d="M500,256 l0,110" />
        <path id="left-margin-Black-M" d="M630,256 l0,110" />
        <path id="right-margin-Black-M" d="M700,256 l0,110" />
        <path id="Capline-M" d="M18,276 l800,0" />
        <path id="Baseline-M" d="M18,346 l800,0" />
        <path id="Capline-L" d="M18,476 l800,0" />
        <path id="Baseline-L" d="M18,546 l800,0" />
    </g>
    <g id="Symbols">
        <g id="Ultralight-M" transform="translate(0,200)">
            <path d="M237,96.3 C237,89.653 237.13,88.065 237.763,86.822 C238.434,85.505 239.505,84.434 240.822,83.763 C242.065,83.13 243.653,83 250.3,83 L279.7,83 C286.347,83 287.935,83.13 289.178,83.763 C290.495,84.434 291.566,85.505 292.237,86.822 C292.87,88.065 293,89.653 293,96.3 L293,125.7 C293,132.347 292.87,133.935 292.237,135.178 C291.566,136.495 290.495,137.566 289.178,138.237 C287.935,138.87 286.347,139 279.7,139 L250.3,139 C243.653,139 242.065,138.87 240.822,138.237 C239.505,137.566 238.434,136.495 237.763,135.178 C237.13,133.935 237,132.347 237,125.7 L237,96.3 Z M230,96.3 L230,125.7 C230,133.753 230.156,135.667 231.526,138.356 C232.868,140.99 235.01,143.132 237.644,144.474 C240.333,145.844 242.247,146 250.3,146 L279.7,146 C287.753,146 289.667,145.844 292.356,144.474 C294.99,143.132 297.132,140.99 298.474,138.356 C299.844,135.667 300,133.753 300,125.7 L300,96.3 C300,88.247 299.844,86.333 298.474,83.644 C297.132,81.01 294.99,78.868 292.356,77.526 C289.667,76.156 287.753,76 279.7,76 L250.3,76 C242.247,76 240.333,76.156 237.644,77.526 C235.01,78.868 232.868,81.01 231.526,83.644 C230.156,86.333 230,88.247 230,96.3 Z" />
            <path d="M274.915,94.55 C274.915,92.626 274.879,92.174 274.351,91.129 C273.836,90.123 273.031,89.321 272.042,88.82 C271.006,88.288 270.548,88.25 268.616,88.25 L261.384,88.25 C259.461,88.25 259.009,88.287 257.963,88.814 C256.963,89.323 256.158,90.128 255.654,91.119 C255.121,92.174 255.085,92.626 255.085,94.55 L255.085,101.785 C255.085,102.345 255.081,102.534 255.072,102.646 C255.082,102.528 255.133,102.313 255.279,102.029 C255.442,101.709 255.709,101.442 256.038,101.275 C256.313,101.133 256.528,101.082 256.646,101.072 C256.534,101.081 256.345,101.085 255.785,101.085 L248.55,101.085 C246.626,101.085 246.174,101.121 245.129,101.649 C244.123,102.164 243.321,102.969 242.82,103.958 C242.288,104.994 242.25,105.452 242.25,107.385 L242.25,114.616 C242.25,116.539 242.287,116.991 242.814,118.037 C243.323,119.037 244.128,119.842 245.119,120.346 C246.174,120.879 246.626,120.916 248.55,120.916 L255.785,120.916 C256.345,120.916 256.534,120.919 256.646,120.928 C256.528,120.918 256.313,120.867 256.029,120.721 C255.709,120.558 255.442,120.291 255.275,119.962 C255.133,119.687 255.082,119.472 255.072,119.354 C255.081,119.466 255.085,119.655 255.085,120.216 L255.085,127.45 C255.085,129.374 255.121,129.826 255.649,130.871 C256.164,131.877 256.969,132.679 257.958,133.18 C258.994,133.712 259.452,133.75 261.385,133.75 L268.616,133.75 C270.548,133.75 271.006,133.712 272.06,133.17 C273.031,132.679 273.836,131.877 274.341,130.891 C274.879,129.826 274.915,129.374 274.915,127.45 L274.915,120.216 C274.915,119.655 274.919,119.466 274.928,119.354 C274.918,119.472 274.867,119.687 274.721,119.971 C274.557,120.291 274.291,120.557 273.964,120.724 C273.687,120.867 273.472,120.918 273.354,120.928 C273.466,120.919 273.655,120.916 274.216,120.916 L281.45,120.916 C283.374,120.916 283.826,120.879 284.871,120.351 C285.877,119.836 286.679,119.031 287.18,118.042 C287.712,117.006 287.75,116.548 287.75,114.616 L287.75,107.385 C287.75,105.452 287.712,104.994 287.17,103.94 C286.679,102.969 285.877,102.164 284.891,101.659 C283.826,101.121 283.374,101.085 281.45,101.085 L274.216,101.085 C273.655,101.085 273.466,101.081 273.354,101.072 C273.472,101.082 273.687,101.133 273.971,101.279 C274.291,101.443 274.557,101.709 274.724,102.036 C274.867,102.313 274.918,102.528 274.928,102.646 C274.919,102.534 274.915,102.345 274.915,101.784 L274.915,94.55 Z M267.915,94.55 L267.915,101.784 C267.915,103.717 267.953,104.175 268.495,105.229 C268.994,106.206 269.794,107.006 270.778,107.508 C271.825,108.047 272.283,108.085 274.216,108.085 L281.45,108.085 C282.012,108.085 282.203,108.087 282.317,108.097 C282.206,108.088 281.997,108.039 281.718,107.898 C281.37,107.72 281.102,107.452 280.935,107.122 C280.799,106.856 280.747,106.641 280.738,106.523 C280.747,106.635 280.75,106.824 280.75,107.385 L280.75,114.616 C280.75,115.176 280.747,115.365 280.738,115.477 C280.747,115.359 280.799,115.144 280.945,114.86 C281.102,114.548 281.37,114.28 281.698,114.112 C281.997,113.961 282.206,113.912 282.317,113.903 C282.203,113.913 282.012,113.916 281.45,113.916 L274.216,113.916 C272.283,113.916 271.825,113.953 270.771,114.495 C269.794,114.994 268.995,115.794 268.492,116.778 C267.953,117.825 267.916,118.283 267.916,120.216 L267.916,127.45 C267.916,128.012 267.913,128.203 267.903,128.317 C267.912,128.206 267.961,127.997 268.102,127.718 C268.28,127.369 268.548,127.102 268.878,126.935 C269.144,126.799 269.359,126.747 269.477,126.738 C269.365,126.747 269.176,126.75 268.616,126.75 L261.385,126.75 C260.824,126.75 260.635,126.747 260.523,126.738 C260.641,126.747 260.856,126.799 261.14,126.945 C261.452,127.102 261.72,127.369 261.888,127.698 C262.039,127.997 262.088,128.206 262.097,128.317 C262.087,128.203 262.085,128.012 262.085,127.45 L262.085,120.216 C262.085,118.283 262.047,117.825 261.505,116.771 C261.006,115.795 260.205,114.994 259.22,114.491 C258.175,113.953 257.717,113.916 255.785,113.916 L248.55,113.916 C247.988,113.916 247.797,113.913 247.683,113.903 C247.794,113.912 248.003,113.961 248.282,114.102 C248.622,114.275 248.891,114.543 249.059,114.873 C249.204,115.162 249.253,115.371 249.262,115.482 C249.253,115.368 249.25,115.178 249.25,114.616 L249.25,107.385 C249.25,106.824 249.253,106.635 249.262,106.523 C249.253,106.641 249.201,106.856 249.055,107.14 C248.898,107.452 248.631,107.72 248.302,107.888 C248.003,108.039 247.794,108.088 247.683,108.097 C247.797,108.087 247.988,108.085 248.55,108.085 L255.785,108.085 C257.717,108.085 258.175,108.047 259.229,107.505 C260.205,107.006 261.007,106.205 261.509,105.22 C262.047,104.175 262.085,103.717 262.085,101.785 L262.085,94.55 C262.085,93.988 262.087,93.797 262.097,93.683 C262.088,93.794 262.039,94.003 261.898,94.282 C261.725,94.622 261.457,94.891 261.127,95.059 C260.838,95.204 260.629,95.253 260.518,95.262 C260.632,95.253 260.822,95.25 261.384,95.25 L268.616,95.25 C269.176,95.25 269.365,95.253 269.477,95.262 C269.359,95.253 269.144,95.201 268.86,95.055 C268.548,94.898 268.28,94.631 268.112,94.302 C267.961,94.003 267.912,93.794 267.903,93.683 C267.913,93.797 267.915,93.988 267.915,94.55 Z" />
        </g>
        <g id="Regular-M" transform="translate(0,200)">
            <path d="M437,96.3 C437,89.653 437.13,88.065 437.763,86.822 C438.434,85.505 439.505,84.434 440.822,83.763 C442.065,83.13 443.653,83 450.3,83 L479.7,83 C486.347,83 487.935,83.13 489.178,83.763 C490.495,84.434 491.566,85.505 492.237,86.822 C492.87,88.065 493,89.653 493,96.3 L493,125.7 C493,132.347 492.87,133.935 492.237,135.178 C491.566,136.495 490.495,137.566 489.178,138.237 C487.935,138.87 486.347,139 479.7,139 L450.3,139 C443.653,139 442.065,138.87 440.822,138.237 C439.505,137.566 438.434,136.495 437.763,135.178 C437.13,133.935 437,132.347 437,125.7 L437,96.3 Z M430,96.3 L430,125.7 C430,133.753 430.156,135.667 431.526,138.356 C432.868,140.99 435.01,143.132 437.644,144.474 C440.333,145.844 442.247,146 450.3,146 L479.7,146 C487.753,146 489.667,145.844 492.356,144.474 C494.99,143.132 497.132,140.99 498.474,138.356 C499.844,135.667 500,133.753 500,125.7 L500,96.3 C500,88.247 499.844,86.333 498.474,83.644 C497.132,81.01 494.99,78.868 492.356,77.526 C489.667,76.156 487.753,76 479.7,76 L450.3,76 C442.247,76 440.333,76.156 437.644,77.526 C435.01,78.868 432.868,81.01 431.526,83.644 C430.156,86.333 430,88.247 430,96.3 Z" />
            <path d="M474.915,94.55 C474.915,92.626 474.879,92.174 474.351,91.129 C473.836,90.123 473.031,89.321 472.042,88.82 C471.006,88.288 470.548,88.25 468.616,88.25 L461.384,88.25 C459.461,88.25 459.009,88.287 457.963,88.814 C456.963,89.323 456.158,90.128 455.654,91.119 C455.121,92.174 455.085,92.626 455.085,94.55 L455.085,101.785 C455.085,102.345 455.082,102.534 455.072,102.646 C455.082,102.528 455.133,102.313 455.279,102.029 C455.442,101.709 455.709,101.442 456.038,101.275 C456.313,101.133 456.528,101.082 456.646,101.072 C456.534,101.081 456.345,101.085 455.785,101.085 L448.55,101.085 C446.626,101.085 446.174,101.121 445.129,101.649 C444.123,102.164 443.321,102.969 442.82,103.958 C442.288,104.994 442.25,105.452 442.25,107.385 L442.25,114.616 C442.25,116.539 442.287,116.991 442.814,118.037 C443.323,119.037 444.128,119.842 445.119,120.346 C446.174,120.879 446.626,120.916 448.55,120.916 L455.785,120.916 C456.345,120.916 456.534,120.919 456.646,120.928 C456.528,120.918 456.313,120.867 456.029,120.721 C455.709,120.558 455.442,120.291 455.275,119.962 C455.133,119.687 455.082,119.472 455.072,119.354 C455.082,119.466 455.085,119.655 455.085,120.216 L455.085,127.45 C455.085,129.374 455.121,129.826 455.649,130.871 C456.164,131.877 456.969,132.679 457.958,133.18 C458.994,133.712 459.452,133.75 461.385,133.75 L468.616,133.75 C470.548,133.75 471.006,133.712 472.06,133.17 C473.031,132.679 473.836,131.877 474.341,130.891 C474.879,129.826 474.915,129.374 474.915,127.45 L474.915,120.216 C474.915,119.655 474.919,119.466 474.928,119.354 C474.918,119.472 474.867,119.687 474.721,119.971 C474.557,120.291 474.291,120.557 473.964,120.724 C473.687,120.867 473.472,120.918 473.354,120.928 C473.466,120.919 473.655,120.916 474.216,120.916 L481.45,120.916 C483.374,120.916 483.826,120.879 484.871,120.351 C485.877,119.836 486.679,119.031 487.18,118.042 C487.712,117.006 487.75,116.548 487.75,114.616 L487.75,107.385 C487.75,105.452 487.712,104.994 487.17,103.94 C486.679,102.969 485.877,102.164 484.891,101.659 C483.826,101.121 483.374,101.085 481.45,101.085 L474.216,101.085 C473.655,101.085 473.466,101.081 473.354,101.072 C473.472,101.082 473.687,101.133 473.971,101.279 C474.291,101.443 474.557,101.709 474.724,102.036 C474.867,102.313 474.918,102.528 474.928,102.646 C474.919,102.534 474.915,102.345 474.915,101.784 L474.915,94.55 Z M467.915,94.55 L467.915,101.784 C467.915,103.717 467.953,104.175 468.495,105.229 C468.994,106.206 469.794,107.006 470.778,107.508 C471.825,108.047 472.283,108.085 474.216,108.085 L481.45,108.085 C482.012,108.085 482.203,108.087 482.317,108.097 C482.206,108.088 481.997,108.039 481.718,107.898 C481.37,107.72 481.102,107.452 480.935,107.122 C480.799,106.856 480.747,106.641 480.738,106.523 C480.747,106.635 480.75,106.824 480.75,107.385 L480.75,114.616 C480.75,115.176 480.747,115.365 480.738,115.477 C480.747,115.359 480.799,115.144 480.945,114.86 C481.102,114.548 481.37,114.28 481.698,114.112 C481.997,113.961 482.206,113.912 482.317,113.903 C482.203,113.913 482.012,113.916 481.45,113.916 L474.216,113.916 C472.283,113.916 471.825,113.953 470.771,114.495 C469.794,114.994 468.995,115.794 468.492,116.778 C467.953,117.825 467.916,118.283 467.916,120.216 L467.916,127.45 C467.916,128.012 467.913,128.203 467.903,128.317 C467.912,128.206 467.961,127.997 468.102,127.718 C468.28,127.369 468.548,127.102 468.878,126.935 C469.144,126.799 469.359,126.747 469.477,126.738 C469.365,126.747 469.176,126.75 468.616,126.75 L461.385,126.75 C460.824,126.75 460.635,126.747 460.523,126.738 C460.641,126.747 460.856,126.799 461.14,126.945 C461.452,127.102 461.72,127.369 461.888,127.698 C462.039,127.997 462.088,128.206 462.097,128.317 C462.087,128.203 462.085,128.012 462.085,127.45 L462.085,120.216 C462.085,118.283 462.047,117.825 461.505,116.771 C461.006,115.795 460.205,114.994 459.22,114.491 C458.175,113.953 457.717,113.916 455.785,113.916 L448.55,113.916 C447.988,113.916 447.797,113.913 447.683,113.903 C447.794,113.912 448.003,113.961 448.282,114.102 C448.622,114.275 448.891,114.543 449.059,114.873 C449.204,115.162 449.253,115.371 449.262,115.482 C449.253,115.368 449.25,115.178 449.25,114.616 L449.25,107.385 C449.25,106.824 449.253,106.635 449.262,106.523 C449.253,106.641 449.201,106.856 449.055,107.14 C448.898,107.452 448.631,107.72 448.302,107.888 C448.003,108.039 447.794,108.088 447.683,108.097 C447.797,108.087 447.988,108.085 448.55,108.085 L455.785,108.085 C457.717,108.085 458.175,108.047 459.229,107.505 C460.205,107.006 461.007,106.205 461.509,105.22 C462.047,104.175 462.085,103.717 462.085,101.785 L462.085,94.55 C462.085,93.988 462.087,93.797 462.097,93.683 C462.088,93.794 462.039,94.003 461.898,94.282 C461.725,94.622 461.457,94.891 461.127,95.059 C460.838,95.204 460.629,95.253 460.518,95.262 C460.632,95.253 460.822,95.25 461.384,95.25 L468.616,95.25 C469.176,95.25 469.365,95.253 469.477,95.262 C469.359,95.253 469.144,95.201 468.86,95.055 C468.548,94.898 468.28,94.631 468.112,94.302 C467.961,94.003 467.912,93.794 467.903,93.683 C467.913,93.797 467.915,93.988 467.915,94.55 Z" />
        </g>
        <g id="Black-M" transform="translate(0,200)">
            <path d="M637,96.3 C637,89.653 637.13,88.065 637.763,86.822 C638.434,85.505 639.505,84.434 640.822,83.763 C642.065,83.13 643.653,83 650.3,83 L679.7,83 C686.347,83 687.935,83.13 689.178,83.763 C690.495,84.434 691.566,85.505 692.237,86.822 C692.87,88.065 693,89.653 693,96.3 L693,125.7 C693,132.347 692.87,133.935 692.237,135.178 C691.566,136.495 690.495,137.566 689.178,138.237 C687.935,138.87 686.347,139 679.7,139 L650.3,139 C643.653,139 642.065,138.87 640.822,138.237 C639.505,137.566 638.434,136.495 637.763,135.178 C637.13,133.935 637,132.347 637,125.7 L637,96.3 Z M630,96.3 L630,125.7 C630,133.753 630.156,135.667 631.526,138.356 C632.868,140.99 635.01,143.132 637.644,144.474 C640.333,145.844 642.247,146 650.3,146 L679.7,146 C687.753,146 689.667,145.844 692.356,144.474 C694.99,143.132 697.132,140.99 698.474,138.356 C699.844,135.667 700,133.753 700,125.7 L700,96.3 C700,88.247 699.844,86.333 698.474,83.644 C697.132,81.01 694.99,78.868 692.356,77.526 C689.667,76.156 687.753,76 679.7,76 L650.3,76 C642.247,76 640.333,76.156 637.644,77.526 C635.01,78.868 632.868,81.01 631.526,83.644 C630.156,86.333 630,88.247 630,96.3 Z" />
            <path d="M674.916,94.55 C674.916,92.626 674.879,92.174 674.351,91.129 C673.836,90.123 673.031,89.321 672.042,88.82 C671.006,88.288 670.548,88.25 668.615,88.25 L661.385,88.25 C659.461,88.25 659.009,88.287 657.963,88.814 C656.963,89.323 656.158,90.128 655.654,91.119 C655.121,92.174 655.084,92.626 655.084,94.55 L655.084,101.785 C655.084,102.345 655.081,102.534 655.072,102.646 C655.082,102.528 655.133,102.313 655.279,102.029 C655.442,101.709 655.709,101.442 656.038,101.275 C656.313,101.133 656.528,101.082 656.646,101.072 C656.534,101.081 656.345,101.085 655.784,101.085 L648.55,101.085 C646.626,101.085 646.174,101.121 645.129,101.649 C644.123,102.164 643.321,102.969 642.82,103.958 C642.288,104.994 642.25,105.452 642.25,107.385 L642.25,114.616 C642.25,116.539 642.287,116.991 642.814,118.037 C643.323,119.037 644.128,119.842 645.119,120.346 C646.174,120.879 646.626,120.916 648.55,120.916 L655.784,120.916 C656.345,120.916 656.534,120.919 656.646,120.928 C656.528,120.918 656.313,120.867 656.029,120.721 C655.709,120.558 655.442,120.291 655.275,119.962 C655.133,119.687 655.082,119.472 655.072,119.354 C655.081,119.466 655.085,119.655 655.085,120.216 L655.085,127.45 C655.085,129.374 655.121,129.826 655.649,130.871 C656.164,131.877 656.969,132.679 657.958,133.18 C658.994,133.712 659.452,133.75 661.385,133.75 L668.615,133.75 C670.548,133.75 671.006,133.712 672.06,133.17 C673.031,132.679 673.836,131.877 674.341,130.891 C674.879,129.826 674.916,129.374 674.916,127.45 L674.916,120.216 C674.916,119.655 674.919,119.466 674.928,119.354 C674.918,119.472 674.867,119.687 674.721,119.971 C674.557,120.291 674.291,120.557 673.964,120.724 C673.687,120.867 673.472,120.918 673.354,120.928 C673.466,120.919 673.655,120.916 674.216,120.916 L681.45,120.916 C683.374,120.916 683.826,120.879 684.871,120.351 C685.877,119.836 686.679,119.031 687.18,118.042 C687.712,117.006 687.75,116.548 687.75,114.616 L687.75,107.385 C687.75,105.452 687.712,104.994 687.17,103.94 C686.679,102.969 685.877,102.164 684.891,101.659 C683.826,101.121 683.374,101.085 681.45,101.085 L674.216,101.085 C673.655,101.085 673.466,101.081 673.354,101.072 C673.472,101.082 673.687,101.133 673.971,101.279 C674.291,101.443 674.557,101.709 674.724,102.036 C674.867,102.313 674.918,102.528 674.928,102.646 C674.919,102.534 674.916,102.345 674.916,101.784 L674.916,94.55 Z M667.916,94.55 L667.916,101.784 C667.916,103.717 667.953,104.175 668.495,105.229 C668.995,106.206 669.794,107.006 670.778,107.508 C671.825,108.047 672.283,108.085 674.216,108.085 L681.45,108.085 C682.012,108.085 682.203,108.087 682.317,108.097 C682.206,108.088 681.997,108.039 681.718,107.898 C681.37,107.72 681.102,107.452 680.935,107.122 C680.799,106.856 680.747,106.641 680.738,106.523 C680.747,106.635 680.75,106.824 680.75,107.385 L680.75,114.616 C680.75,115.176 680.747,115.365 680.738,115.477 C680.747,115.359 680.799,115.144 680.945,114.86 C681.102,114.548 681.37,114.28 681.698,114.112 C681.997,113.961 682.206,113.912 682.317,113.903 C682.203,113.913 682.012,113.916 681.45,113.916 L674.216,113.916 C672.283,113.916 671.825,113.953 670.771,114.495 C669.794,114.994 668.995,115.794 668.492,116.778 C667.953,117.825 667.916,118.283 667.916,120.216 L667.916,127.45 C667.916,128.012 667.913,128.203 667.903,128.317 C667.912,128.206 667.961,127.997 668.102,127.718 C668.28,127.369 668.549,127.102 668.878,126.935 C669.144,126.799 669.359,126.747 669.477,126.738 C669.365,126.747 669.176,126.75 668.615,126.75 L661.385,126.75 C660.824,126.75 660.635,126.747 660.523,126.738 C660.641,126.747 660.856,126.799 661.14,126.945 C661.452,127.102 661.72,127.369 661.888,127.698 C662.039,127.997 662.088,128.206 662.097,128.317 C662.087,128.203 662.085,128.012 662.085,127.45 L662.085,120.216 C662.085,118.283 662.047,117.825 661.505,116.771 C661.006,115.795 660.205,114.994 659.22,114.491 C658.175,113.953 657.717,113.916 655.784,113.916 L648.55,113.916 C647.988,113.916 647.797,113.913 647.683,113.903 C647.794,113.912 648.003,113.961 648.282,114.102 C648.622,114.275 648.891,114.543 649.059,114.873 C649.204,115.162 649.253,115.371 649.262,115.482 C649.253,115.368 649.25,115.178 649.25,114.616 L649.25,107.385 C649.25,106.824 649.253,106.635 649.262,106.523 C649.253,106.641 649.201,106.856 649.055,107.14 C648.898,107.452 648.63,107.72 648.302,107.888 C648.003,108.039 647.794,108.088 647.683,108.097 C647.797,108.087 647.988,108.085 648.55,108.085 L655.784,108.085 C657.717,108.085 658.175,108.047 659.229,107.505 C660.205,107.006 661.006,106.205 661.509,105.22 C662.047,104.175 662.084,103.717 662.084,101.785 L662.084,94.55 C662.084,93.988 662.087,93.797 662.097,93.683 C662.088,93.794 662.039,94.003 661.898,94.282 C661.725,94.622 661.457,94.891 661.127,95.059 C660.838,95.204 660.629,95.253 660.518,95.262 C660.632,95.253 660.822,95.25 661.385,95.25 L668.615,95.25 C669.176,95.25 669.365,95.253 669.477,95.262 C669.359,95.253 669.144,95.201 668.86,95.055 C668.548,94.898 668.28,94.631 668.112,94.302 C667.961,94.003 667.912,93.794 667.903,93.683 C667.913,93.797 667.916,93.988 667.916,94.55 Z" />
        </g>
    </g>
</svg>