<?xml version="1.0" encoding="UTF-8"?>
<svg height="600" width="800" xmlns="http://www.w3.org/2000/svg" xmlns:xlink="http://www.w3.org/1999/xlink">
    <g id="Notes" font-family="LucidaGrande, 'Lucida Grande', sans-serif" font-size="13">
        <rect fill="white" height="600.0" width="800.0" x="0.0" y="0.0" />
        <g font-size="13">
            <text x="18.0" y="176.0">Small</text>
            <text x="18.0" y="376.0">Medium</text>
            <text x="18.0" y="576.0">Large</text>
        </g>
        <g font-size="9">
            <text x="250.0" y="30.0">Ultralight</text>
            <text x="450.0" y="30.0">Regular</text>
            <text x="650.0" y="30.0">Black</text>
            <text id="template-version" fill="#505050" text-anchor="end" x="785.0" y="575.0">Template v.3.0</text>
            <a href="https://github.com/swhitty/SwiftDraw">
                <text fill="#505050" text-anchor="end" x="785.0" y="590.0">https://github.com/swhitty/SwiftDraw</text>
            </a>
        </g>
    </g>
    <g id="Guides" stroke="rgb(39, 170, 225)" stroke-width="0.5">
        <path id="Capline-S" d="M18,76 l800,0" />
        <path id="H-reference" d="M85,145.755 L87.685,145.755 L113.369,79.287 L114.052,79.287 L114.052,76 L112.148,76 L85,145.755 Z M95.693,121.536 L130.996,121.536 L130.263,119.313 L96.474,119.313 L95.693,121.536 Z M139.15,145.755 L141.787,145.755 L114.638,76 L113.466,76 L113.466,79.287 L139.15,145.755 Z" stroke="none" transform="translate(0,200)" />
        <path id="Baseline-S" d="M18,146 l800,0" />
        <path id="left-margin-Ultralight-M" d="M221,256 l0,110" />
        <path id="right-margin-Ultralight-M" d="M309,256 l0,110" />
        <path id="left-margin-Regular-M" d="M421,256 l0,110" />
        <path id="right-margin-Regular-M" d="M509,256 l0,110" />
        <path id="left-margin-Black-M" d="M621,256 l0,110" />
        <path id="right-margin-Black-M" d="M709,256 l0,110" />
        <path id="Capline-M" d="M18,276 l800,0" />
        <path id="Baseline-M" d="M18,346 l800,0" />
        <path id="Capline-L" d="M18,476 l800,0" />
        <path id="Baseline-L" d="M18,546 l800,0" />
    </g>
    <g id="Symbols">
        <g id="Ultralight-M" transform="translate(0,200)">
            <path d="M284.178,106.487 L284.178,99.267 C284.178,94.075 284.077,92.841 283.195,91.108 C282.329,89.41 280.949,88.029 279.25,87.164 C277.517,86.281 276.283,86.18 271.091,86.18 L256.651,86.18 C251.459,86.18 250.225,86.281 248.492,87.164 C246.793,88.029 245.413,89.41 244.547,91.108 C243.664,92.841 243.564,94.075 243.564,99.267 L243.564,122.733 C243.564,127.925 243.664,129.159 244.547,130.892 C245.413,132.59 246.793,133.971 248.492,134.836 C250.225,135.719 251.459,135.82 256.651,135.82 L263.871,135.82 C265.117,135.82 266.127,134.81 266.127,133.564 C266.127,132.318 265.117,131.307 263.871,131.307 L256.651,131.307 C252.366,131.307 251.342,131.224 250.54,130.815 C249.691,130.383 249.001,129.692 248.568,128.843 C248.16,128.042 248.076,127.018 248.076,122.733 L248.076,99.267 C248.076,94.982 248.16,93.958 248.568,93.156 C249.001,92.308 249.691,91.617 250.54,91.185 C251.342,90.776 252.366,90.693 256.651,90.693 L271.091,90.693 C275.376,90.693 276.4,90.776 277.202,91.185 C278.051,91.617 278.741,92.308 279.174,93.157 C279.582,93.958 279.666,94.982 279.666,99.267 L279.666,106.487 C279.666,107.733 280.676,108.744 281.922,108.744 C283.168,108.744 284.178,107.733 284.178,106.487 Z M264.999,106.487 L254.846,106.487 C253.599,106.487 252.589,107.497 252.589,108.744 C252.589,109.99 253.599,111 254.846,111 L264.999,111 C266.245,111 267.256,109.99 267.256,108.744 C267.256,107.497 266.245,106.487 264.999,106.487 Z M257.102,115.513 L254.846,115.513 C253.599,115.513 252.589,116.523 252.589,117.769 C252.589,119.015 253.599,120.025 254.846,120.025 L257.102,120.025 C258.348,120.025 259.358,119.015 259.358,117.769 C259.358,116.523 258.348,115.513 257.102,115.513 Z M272.896,97.462 L254.846,97.462 C253.599,97.462 252.589,98.472 252.589,99.718 C252.589,100.964 253.599,101.975 254.846,101.975 L272.896,101.975 C274.143,101.975 275.153,100.964 275.153,99.718 C275.153,98.472 274.143,97.462 272.896,97.462 Z M276.839,115.894 C274.171,112.866 269.779,112.311 266.63,114.928 C263.44,117.577 262.95,122.111 265.506,125.31 C266.184,126.157 267.334,127.317 268.885,128.761 C269.066,128.93 269.252,129.102 269.442,129.276 C270.371,130.129 271.364,131.014 272.357,131.88 C272.952,132.4 273.417,132.799 273.685,133.027 C274.527,133.743 275.764,133.743 276.607,133.027 C276.875,132.799 277.34,132.4 277.935,131.88 C278.928,131.014 279.921,130.13 280.851,129.277 C281.041,129.102 281.227,128.93 281.409,128.761 C282.96,127.317 284.111,126.158 284.787,125.311 C286.025,123.803 286.61,121.831 286.391,119.864 C286.173,117.896 285.171,116.101 283.611,114.883 C280.451,112.333 276.11,112.877 273.452,115.897 L275.146,117.388 L277.402,117.388 L277.402,117.386 C277.402,116.836 277.202,116.306 276.839,115.894 Z M273.453,118.877 L275.146,117.386 L272.89,117.386 L272.89,117.388 C272.89,119.468 275.465,120.44 276.84,118.878 C277.951,117.616 279.562,117.414 280.805,118.417 C281.435,118.91 281.822,119.602 281.906,120.361 C281.99,121.12 281.765,121.881 281.281,122.471 C280.766,123.115 279.73,124.159 278.334,125.458 C278.16,125.62 277.982,125.784 277.8,125.952 C276.901,126.777 275.935,127.637 274.969,128.48 C274.389,128.985 273.939,129.372 273.685,129.588 L276.607,129.588 C276.353,129.372 275.903,128.985 275.324,128.48 C274.358,127.637 273.392,126.777 272.494,125.952 C272.311,125.784 272.133,125.62 271.96,125.458 C270.564,124.159 269.529,123.115 269.031,122.493 C268.018,121.225 268.206,119.485 269.514,118.399 C270.708,117.407 272.339,117.613 273.453,118.877 Z" />
        </g>
        <g id="Regular-M" transform="translate(0,200)">
            <path d="M484.178,106.487 L484.178,99.267 C484.178,94.075 484.077,92.841 483.195,91.108 C482.329,89.41 480.949,88.029 479.25,87.164 C477.517,86.281 476.283,86.18 471.091,86.18 L456.651,86.18 C451.459,86.18 450.225,86.281 448.492,87.164 C446.793,88.029 445.413,89.41 444.547,91.108 C443.664,92.841 443.564,94.075 443.564,99.267 L443.564,122.733 C443.564,127.925 443.664,129.159 444.547,130.892 C445.413,132.59 446.793,133.971 448.492,134.836 C450.225,135.719 451.459,135.82 456.651,135.82 L463.871,135.82 C465.117,135.82 466.127,134.81 466.127,133.564 C466.127,132.318 465.117,131.307 463.871,131.307 L456.651,131.307 C452.366,131.307 451.342,131.224 450.54,130.815 C449.691,130.383 449.001,129.692 448.568,128.843 C448.16,128.042 448.076,127.018 448.076,122.733 L448.076,99.267 C448.076,94.982 448.16,93.958 448.568,93.156 C449.001,92.308 449.691,91.617 450.54,91.185 C451.342,90.776 452.366,90.693 456.651,90.693 L471.091,90.693 C475.376,90.693 476.4,90.776 477.202,91.185 C478.051,91.617 478.741,92.308 479.174,93.157 C479.582,93.958 479.666,94.982 479.666,99.267 L479.666,106.487 C479.666,107.733 480.676,108.744 481.922,108.744 C483.168,108.744 484.178,107.733 484.178,106.487 Z M464.999,106.487 L454.845,106.487 C453.599,106.487 452.589,107.497 452.589,108.744 C452.589,109.99 453.599,111 454.845,111 L464.999,111 C466.245,111 467.255,109.99 467.255,108.744 C467.255,107.497 466.245,106.487 464.999,106.487 Z M457.102,115.513 L454.845,115.513 C453.599,115.513 452.589,116.523 452.589,117.769 C452.589,119.015 453.599,120.025 454.845,120.025 L457.102,120.025 C458.348,120.025 459.358,119.015 459.358,117.769 C459.358,116.523 458.348,115.513 457.102,115.513 Z M472.896,97.462 L454.845,97.462 C453.599,97.462 452.589,98.472 452.589,99.718 C452.589,100.964 453.599,101.975 454.845,101.975 L472.896,101.975 C474.143,101.975 475.153,100.964 475.153,99.718 C475.153,98.472 474.143,97.462 472.896,97.462 Z M476.839,115.894 C474.171,112.866 469.779,112.311 466.63,114.928 C463.44,117.577 462.95,122.111 465.506,125.31 C466.184,126.157 467.334,127.317 468.885,128.761 C469.066,128.93 469.252,129.102 469.442,129.276 C470.371,130.129 471.364,131.014 472.357,131.88 C472.952,132.4 473.417,132.799 473.685,133.027 C474.527,133.743 475.764,133.743 476.607,133.027 C476.875,132.799 477.34,132.4 477.935,131.88 C478.928,131.014 479.921,130.13 480.851,129.277 C481.041,129.102 481.227,128.93 481.409,128.761 C482.96,127.317 484.111,126.158 484.787,125.311 C486.025,123.803 486.61,121.831 486.391,119.864 C486.173,117.896 485.171,116.101 483.611,114.883 C480.451,112.333 476.11,112.877 473.452,115.897 L475.146,117.388 L477.402,117.388 L477.402,117.386 C477.402,116.836 477.202,116.306 476.839,115.894 Z M473.453,118.877 L475.146,117.386 L472.89,117.386 L472.89,117.388 C472.89,119.468 475.465,120.44 476.84,118.878 C477.951,117.616 479.562,117.414 480.805,118.417 C481.435,118.91 481.822,119.602 481.906,120.361 C481.99,121.12 481.765,121.881 481.281,122.471 C480.766,123.115 479.73,124.159 478.334,125.458 C478.16,125.62 477.982,125.784 477.8,125.952 C476.901,126.777 475.935,127.637 474.969,128.48 C474.389,128.985 473.939,129.372 473.685,129.588 L476.607,129.588 C476.353,129.372 475.903,128.985 475.324,128.48 C474.358,127.637 473.392,126.777 472.494,125.952 C472.311,125.784 472.133,125.62 471.96,125.458 C470.564,124.159 469.529,123.115 469.031,122.493 C468.018,121.225 468.206,119.485 469.514,118.399 C470.708,117.407 472.339,117.613 473.453,118.877 Z" />
        </g>
        <g id="Black-M" transform="translate(0,200)">
            <path d="M684.178,106.487 L684.178,99.267 C684.178,94.075 684.077,92.841 683.195,91.108 C682.329,89.41 680.949,88.029 679.25,87.164 C677.517,86.281 676.283,86.18 671.091,86.18 L656.651,86.18 C651.459,86.18 650.225,86.281 648.492,87.164 C646.793,88.029 645.413,89.41 644.547,91.108 C643.664,92.841 643.564,94.075 643.564,99.267 L643.564,122.733 C643.564,127.925 643.664,129.159 644.547,130.892 C645.413,132.59 646.793,133.971 648.492,134.836 C650.225,135.719 651.459,135.82 656.651,135.82 L663.871,135.82 C665.117,135.82 666.127,134.81 666.127,133.564 C666.127,132.318 665.117,131.307 663.871,131.307 L656.651,131.307 C652.366,131.307 651.342,131.224 650.54,130.815 C649.691,130.383 649.001,129.692 648.568,128.843 C648.16,128.042 648.076,127.018 648.076,122.733 L648.076,99.267 C648.076,94.982 648.16,93.958 648.568,93.156 C649.001,92.308 649.691,91.617 650.54,91.185 C651.342,90.776 652.366,90.693 656.651,90.693 L671.091,90.693 C675.376,90.693 676.4,90.776 677.202,91.185 C678.051,91.617 678.741,92.308 679.174,93.157 C679.582,93.958 679.666,94.982 679.666,99.267 L679.666,106.487 C679.666,107.733 680.676,108.744 681.922,108.744 C683.168,108.744 684.178,107.733 684.178,106.487 Z M664.999,106.487 L654.845,106.487 C653.599,106.487 652.589,107.497 652.589,108.744 C652.589,109.99 653.599,111 654.845,111 L664.999,111 C666.245,111 667.255,109.99 667.255,108.744 C667.255,107.497 666.245,106.487 664.999,106.487 Z M657.102,115.513 L654.845,115.513 C653.599,115.513 652.589,116.523 652.589,117.769 C652.589,119.015 653.599,120.025 654.845,120.025 L657.102,120.025 C658.348,120.025 659.358,119.015 659.358,117.769 C659.358,116.523 658.348,115.513 657.102,115.513 Z M672.896,97.462 L654.845,97.462 C653.599,97.462 652.589,98.472 652.589,99.718 C652.589,100.964 653.599,101.975 654.845,101.975 L672.896,101.975 C674.143,101.975 675.153,100.964 675.153,99.718 C675.153,98.472 674.143,97.462 672.896,97.462 Z M676.839,115.894 C674.171,112.866 669.779,112.311 666.63,114.928 C663.44,117.577 662.95,122.111 665.506,125.31 C666.184,126.157 667.334,127.317 668.885,128.761 C669.066,128.93 669.252,129.102 669.442,129.276 C670.371,130.129 671.364,131.014 672.357,131.88 C672.952,132.4 673.417,132.799 673.685,133.027 C674.527,133.743 675.764,133.743 676.607,133.027 C676.875,132.799 677.34,132.4 677.935,131.88 C678.928,131.014 679.921,130.13 680.851,129.277 C681.041,129.102 681.227,128.93 681.409,128.761 C682.96,127.317 684.11,126.158 684.787,125.311 C686.025,123.803 686.61,121.831 686.391,119.864 C686.173,117.896 685.171,116.101 683.61,114.883 C680.451,112.333 676.11,112.877 673.452,115.897 L675.146,117.388 L677.402,117.388 L677.402,117.386 C677.402,116.836 677.202,116.306 676.839,115.894 Z M673.453,118.877 L675.146,117.386 L672.89,117.386 L672.89,117.388 C672.89,119.468 675.465,120.44 676.84,118.878 C677.951,117.616 679.562,117.414 680.805,118.417 C681.435,118.91 681.822,119.602 681.906,120.361 C681.99,121.12 681.765,121.881 681.281,122.471 C680.766,123.115 679.73,124.159 678.334,125.458 C678.16,125.62 677.982,125.784 677.8,125.952 C676.901,126.777 675.935,127.637 674.969,128.48 C674.389,128.985 673.939,129.372 673.685,129.588 L676.607,129.588 C676.353,129.372 675.903,128.985 675.324,128.48 C674.358,127.637 673.392,126.777 672.494,125.952 C672.311,125.784 672.133,125.62 671.96,125.458 C670.564,124.159 669.529,123.115 669.031,122.493 C668.018,121.225 668.206,119.485 669.514,118.399 C670.708,117.407 672.339,117.613 673.453,118.877 Z" />
        </g>
    </g>
</svg>