<?xml version="1.0" encoding="UTF-8"?>
<svg height="600" width="800" xmlns="http://www.w3.org/2000/svg" xmlns:xlink="http://www.w3.org/1999/xlink">
    <g id="Notes" font-family="LucidaGrande, 'Lucida Grande', sans-serif" font-size="13">
        <rect fill="white" height="600.0" width="800.0" x="0.0" y="0.0" />
        <g font-size="13">
            <text x="18.0" y="176.0">Small</text>
            <text x="18.0" y="376.0">Medium</text>
            <text x="18.0" y="576.0">Large</text>
        </g>
        <g font-size="9">
            <text x="250.0" y="30.0">Ultralight</text>
            <text x="450.0" y="30.0">Regular</text>
            <text x="650.0" y="30.0">Black</text>
            <text id="template-version" fill="#505050" text-anchor="end" x="785.0" y="575.0">Template v.3.0</text>
            <a href="https://github.com/swhitty/SwiftDraw">
                <text fill="#505050" text-anchor="end" x="785.0" y="590.0">https://github.com/swhitty/SwiftDraw</text>
            </a>
        </g>
    </g>
    <g id="Guides" stroke="rgb(39, 170, 225)" stroke-width="0.5">
        <path id="Capline-S" d="M18,76 l800,0" />
        <path id="H-reference" d="M85,145.755 L87.685,145.755 L113.369,79.287 L114.052,79.287 L114.052,76 L112.148,76 L85,145.755 Z M95.693,121.536 L130.996,121.536 L130.263,119.313 L96.474,119.313 L95.693,121.536 Z M139.15,145.755 L141.787,145.755 L114.638,76 L113.466,76 L113.466,79.287 L139.15,145.755 Z" stroke="none" transform="translate(0,200)" />
        <path id="Baseline-S" d="M18,146 l800,0" />
        <path id="left-margin-Ultralight-M" d="M226.5,256 l0,110" />
        <path id="right-margin-Ultralight-M" d="M303.5,256 l0,110" />
        <path id="left-margin-Regular-M" d="M426.5,256 l0,110" />
        <path id="right-margin-Regular-M" d="M503.5,256 l0,110" />
        <path id="left-margin-Black-M" d="M626.5,256 l0,110" />
        <path id="right-margin-Black-M" d="M703.5,256 l0,110" />
        <path id="Capline-M" d="M18,276 l800,0" />
        <path id="Baseline-M" d="M18,346 l800,0" />
        <path id="Capline-L" d="M18,476 l800,0" />
        <path id="Baseline-L" d="M18,546 l800,0" />
    </g>
    <g id="Symbols">
        <g id="Ultralight-M" transform="translate(0,200)">
            <path d="M284.975,130.975 L302.475,113.475 C303.842,112.108 303.842,109.892 302.475,108.525 L284.975,91.025 C283.608,89.658 281.392,89.658 280.025,91.025 C278.658,92.392 278.658,94.608 280.025,95.975 L297.525,113.475 L297.525,108.525 L280.025,126.025 C278.658,127.392 278.658,129.608 280.025,130.975 C281.392,132.342 283.608,132.342 284.975,130.975 Z M245.025,91.025 L227.525,108.525 C226.158,109.892 226.158,112.108 227.525,113.475 L245.025,130.975 C246.392,132.342 248.608,132.342 249.975,130.975 C251.342,129.608 251.342,127.392 249.975,126.025 L232.475,108.525 L232.475,113.475 L249.975,95.975 C251.342,94.608 251.342,92.392 249.975,91.025 C248.608,89.658 246.392,89.658 245.025,91.025 Z M268.583,78.741 L254.583,141.741 C254.164,143.628 255.354,145.497 257.241,145.917 C259.128,146.336 260.997,145.146 261.417,143.259 L275.417,80.259 C275.836,78.372 274.646,76.503 272.759,76.083 C270.872,75.664 269.003,76.854 268.583,78.741 Z" />
        </g>
        <g id="Regular-M" transform="translate(0,200)">
            <path d="M484.975,130.975 L502.475,113.475 C503.842,112.108 503.842,109.892 502.475,108.525 L484.975,91.025 C483.608,89.658 481.392,89.658 480.025,91.025 C478.658,92.392 478.658,94.608 480.025,95.975 L497.525,113.475 L497.525,108.525 L480.025,126.025 C478.658,127.392 478.658,129.608 480.025,130.975 C481.392,132.342 483.608,132.342 484.975,130.975 Z M445.025,91.025 L427.525,108.525 C426.158,109.892 426.158,112.108 427.525,113.475 L445.025,130.975 C446.392,132.342 448.608,132.342 449.975,130.975 C451.342,129.608 451.342,127.392 449.975,126.025 L432.475,108.525 L432.475,113.475 L449.975,95.975 C451.342,94.608 451.342,92.392 449.975,91.025 C448.608,89.658 446.392,89.658 445.025,91.025 Z M468.583,78.741 L454.583,141.741 C454.164,143.628 455.354,145.497 457.241,145.917 C459.128,146.336 460.997,145.146 461.417,143.259 L475.417,80.259 C475.836,78.372 474.646,76.503 472.759,76.083 C470.872,75.664 469.003,76.854 468.583,78.741 Z" />
        </g>
        <g id="Black-M" transform="translate(0,200)">
            <path d="M684.975,130.975 L702.475,113.475 C703.842,112.108 703.842,109.892 702.475,108.525 L684.975,91.025 C683.608,89.658 681.392,89.658 680.025,91.025 C678.658,92.392 678.658,94.608 680.025,95.975 L697.525,113.475 L697.525,108.525 L680.025,126.025 C678.658,127.392 678.658,129.608 680.025,130.975 C681.392,132.342 683.608,132.342 684.975,130.975 Z M645.025,91.025 L627.525,108.525 C626.158,109.892 626.158,112.108 627.525,113.475 L645.025,130.975 C646.392,132.342 648.608,132.342 649.975,130.975 C651.342,129.608 651.342,127.392 649.975,126.025 L632.475,108.525 L632.475,113.475 L649.975,95.975 C651.342,94.608 651.342,92.392 649.975,91.025 C648.608,89.658 646.392,89.658 645.025,91.025 Z M668.583,78.741 L654.583,141.741 C654.164,143.628 655.354,145.497 657.241,145.917 C659.128,146.336 660.997,145.146 661.417,143.259 L675.417,80.259 C675.836,78.372 674.646,76.503 672.759,76.083 C670.872,75.664 669.003,76.854 668.583,78.741 Z" />
        </g>
    </g>
</svg>