<?xml version="1.0" encoding="UTF-8"?>
<svg height="600" width="800" xmlns="http://www.w3.org/2000/svg" xmlns:xlink="http://www.w3.org/1999/xlink">
    <g id="Notes" font-family="LucidaGrande, 'Lucida Grande', sans-serif" font-size="13">
        <rect fill="white" height="600.0" width="800.0" x="0.0" y="0.0" />
        <g font-size="13">
            <text x="18.0" y="176.0">Small</text>
            <text x="18.0" y="376.0">Medium</text>
            <text x="18.0" y="576.0">Large</text>
        </g>
        <g font-size="9">
            <text x="250.0" y="30.0">Ultralight</text>
            <text x="450.0" y="30.0">Regular</text>
            <text x="650.0" y="30.0">Black</text>
            <text id="template-version" fill="#505050" text-anchor="end" x="785.0" y="575.0">Template v.3.0</text>
            <a href="https://github.com/swhitty/SwiftDraw">
                <text fill="#505050" text-anchor="end" x="785.0" y="590.0">https://github.com/swhitty/SwiftDraw</text>
            </a>
        </g>
    </g>
    <g id="Guides" stroke="rgb(39, 170, 225)" stroke-width="0.5">
        <path id="Capline-S" d="M18,76 l800,0" />
        <path id="H-reference" d="M85,145.755 L87.685,145.755 L113.369,79.287 L114.052,79.287 L114.052,76 L112.148,76 L85,145.755 Z M95.693,121.536 L130.996,121.536 L130.263,119.313 L96.474,119.313 L95.693,121.536 Z M139.15,145.755 L141.787,145.755 L114.638,76 L113.466,76 L113.466,79.287 L139.15,145.755 Z" stroke="none" transform="translate(0,200)" />
        <path id="Baseline-S" d="M18,146 l800,0" />
        <path id="left-margin-Ultralight-M" d="M230,256 l0,110" />
        <path id="right-margin-Ultralight-M" d="M300,256 l0,110" />
        <path id="left-margin-Regular-M" d="M430,256 l0,110" />
        <path id="right-margin-Regular-M" d="M500,256 l0,110" />
        <path id="left-margin-Black-M" d="M630,256 l0,110" />
        <path id="right-margin-Black-M" d="M700,256 l0,110" />
        <path id="Capline-M" d="M18,276 l800,0" />
        <path id="Baseline-M" d="M18,346 l800,0" />
        <path id="Capline-L" d="M18,476 l800,0" />
        <path id="Baseline-L" d="M18,546 l800,0" />
    </g>
    <g id="Symbols">
        <g id="Ultralight-M" transform="translate(0,200)">
            <path d="M279.7,139 L247.258,139 C245.93,139 245.478,138.993 245.123,138.961 C245.17,138.965 245.41,139.035 245.855,139.415 C246.29,139.787 246.515,140.334 246.47,140.892 C246.426,141.471 246.304,141.694 246.27,141.735 C246.499,141.462 246.814,141.136 247.756,140.194 L277.516,110.433 C278.699,109.25 279.055,108.933 279.126,108.899 C279.089,108.917 279.046,108.934 278.999,108.95 C279,108.949 279,108.949 279,108.949 C278.954,108.934 278.911,108.917 278.874,108.899 C278.945,108.933 279.301,109.25 280.484,110.433 L294.025,123.975 L293,121.5 L293,125.7 C293,127.633 294.567,129.2 296.5,129.2 C298.433,129.2 300,127.633 300,125.7 L300,121.5 C300,120.572 299.631,119.682 298.975,119.025 L285.433,105.484 C283.528,103.578 283.022,103.127 281.912,102.593 C281.668,102.475 281.418,102.375 281.162,102.291 C279.757,101.835 278.243,101.835 276.837,102.292 C276.582,102.375 276.332,102.475 276.088,102.593 C274.978,103.127 274.472,103.578 272.567,105.484 L242.806,135.244 C239.929,138.121 239.635,138.473 239.492,140.343 C239.357,142.004 240.033,143.643 241.309,144.738 C242.744,145.958 243.215,146 247.258,146 L279.7,146 C281.633,146 283.2,144.433 283.2,142.5 C283.2,140.567 281.633,139 279.7,139 Z M279.7,146 C287.753,146 289.667,145.844 292.356,144.474 C294.99,143.132 297.132,140.99 298.474,138.356 C299.844,135.667 300,133.753 300,125.7 C300,123.767 298.433,122.2 296.5,122.2 C294.567,122.2 293,123.767 293,125.7 C293,132.347 292.87,133.935 292.237,135.178 C291.566,136.495 290.495,137.566 289.178,138.237 C287.935,138.87 286.347,139 279.7,139 C277.767,139 276.2,140.567 276.2,142.5 C276.2,144.433 277.767,146 279.7,146 Z M279.7,139 L250.3,139 C243.653,139 242.065,138.87 240.822,138.237 C239.505,137.566 238.434,136.495 237.763,135.178 C237.13,133.935 237,132.347 237,125.7 L237,96.3 C237,89.653 237.13,88.065 237.763,86.822 C238.434,85.505 239.505,84.434 240.822,83.763 C242.065,83.13 243.653,83 250.3,83 L279.7,83 C286.347,83 287.935,83.13 289.178,83.763 C290.495,84.434 291.566,85.505 292.237,86.822 C292.87,88.065 293,89.653 293,96.3 L293,125.7 C293,127.633 294.567,129.2 296.5,129.2 C298.433,129.2 300,127.633 300,125.7 L300,96.3 C300,88.247 299.844,86.333 298.474,83.644 C297.132,81.01 294.99,78.868 292.356,77.526 C289.667,76.156 287.753,76 279.7,76 L250.3,76 C242.247,76 240.333,76.156 237.644,77.526 C235.01,78.868 232.868,81.01 231.526,83.644 C230.156,86.333 230,88.247 230,96.3 L230,125.7 C230,133.753 230.156,135.667 231.526,138.356 C232.868,140.99 235.01,143.132 237.644,144.474 C240.333,145.844 242.247,146 250.3,146 L279.7,146 C281.633,146 283.2,144.433 283.2,142.5 C283.2,140.567 281.633,139 279.7,139 Z M256.25,98.75 C256.25,100.683 254.683,102.25 252.75,102.25 C250.817,102.25 249.25,100.683 249.25,98.75 C249.25,96.817 250.817,95.25 252.75,95.25 C254.683,95.25 256.25,96.817 256.25,98.75 Z M263.25,98.75 C263.25,92.951 258.549,88.25 252.75,88.25 C246.951,88.25 242.25,92.951 242.25,98.75 C242.25,104.549 246.951,109.25 252.75,109.25 C258.549,109.25 263.25,104.549 263.25,98.75 Z" />
        </g>
        <g id="Regular-M" transform="translate(0,200)">
            <path d="M479.7,139 L447.259,139 C445.93,139 445.478,138.993 445.123,138.961 C445.17,138.965 445.41,139.035 445.855,139.415 C446.29,139.787 446.515,140.334 446.47,140.892 C446.426,141.471 446.304,141.694 446.27,141.735 C446.499,141.462 446.814,141.136 447.756,140.194 L477.516,110.433 C478.699,109.25 479.055,108.933 479.126,108.899 C479.089,108.917 479.046,108.934 478.999,108.95 C479,108.949 479,108.949 479,108.949 C478.954,108.934 478.911,108.917 478.874,108.899 C478.945,108.933 479.301,109.25 480.484,110.433 L494.025,123.975 L493,121.5 L493,125.7 C493,127.633 494.567,129.2 496.5,129.2 C498.433,129.2 500,127.633 500,125.7 L500,121.5 C500,120.572 499.631,119.682 498.975,119.025 L485.433,105.484 C483.528,103.578 483.022,103.127 481.912,102.593 C481.668,102.475 481.418,102.375 481.162,102.291 C479.757,101.835 478.243,101.835 476.837,102.292 C476.582,102.375 476.332,102.475 476.088,102.593 C474.978,103.127 474.472,103.578 472.567,105.484 L442.806,135.244 C439.929,138.121 439.635,138.473 439.492,140.343 C439.357,142.004 440.033,143.643 441.309,144.738 C442.744,145.958 443.215,146 447.259,146 L479.7,146 C481.633,146 483.2,144.433 483.2,142.5 C483.2,140.567 481.633,139 479.7,139 Z M479.7,146 C487.753,146 489.667,145.844 492.356,144.474 C494.99,143.132 497.132,140.99 498.474,138.356 C499.844,135.667 500,133.753 500,125.7 C500,123.767 498.433,122.2 496.5,122.2 C494.567,122.2 493,123.767 493,125.7 C493,132.347 492.87,133.935 492.237,135.178 C491.566,136.495 490.495,137.566 489.178,138.237 C487.935,138.87 486.347,139 479.7,139 C477.767,139 476.2,140.567 476.2,142.5 C476.2,144.433 477.767,146 479.7,146 Z M479.7,139 L450.3,139 C443.653,139 442.065,138.87 440.822,138.237 C439.505,137.566 438.434,136.495 437.763,135.178 C437.13,133.935 437,132.347 437,125.7 L437,96.3 C437,89.653 437.13,88.065 437.763,86.822 C438.434,85.505 439.505,84.434 440.822,83.763 C442.065,83.13 443.653,83 450.3,83 L479.7,83 C486.347,83 487.935,83.13 489.178,83.763 C490.495,84.434 491.566,85.505 492.237,86.822 C492.87,88.065 493,89.653 493,96.3 L493,125.7 C493,127.633 494.567,129.2 496.5,129.2 C498.433,129.2 500,127.633 500,125.7 L500,96.3 C500,88.247 499.844,86.333 498.474,83.644 C497.132,81.01 494.99,78.868 492.356,77.526 C489.667,76.156 487.753,76 479.7,76 L450.3,76 C442.247,76 440.333,76.156 437.644,77.526 C435.01,78.868 432.868,81.01 431.526,83.644 C430.156,86.333 430,88.247 430,96.3 L430,125.7 C430,133.753 430.156,135.667 431.526,138.356 C432.868,140.99 435.01,143.132 437.644,144.474 C440.333,145.844 442.247,146 450.3,146 L479.7,146 C481.633,146 483.2,144.433 483.2,142.5 C483.2,140.567 481.633,139 479.7,139 Z M456.25,98.75 C456.25,100.683 454.683,102.25 452.75,102.25 C450.817,102.25 449.25,100.683 449.25,98.75 C449.25,96.817 450.817,95.25 452.75,95.25 C454.683,95.25 456.25,96.817 456.25,98.75 Z M463.25,98.75 C463.25,92.951 458.549,88.25 452.75,88.25 C446.951,88.25 442.25,92.951 442.25,98.75 C442.25,104.549 446.951,109.25 452.75,109.25 C458.549,109.25 463.25,104.549 463.25,98.75 Z" />
        </g>
        <g id="Black-M" transform="translate(0,200)">
            <path d="M679.7,139 L647.258,139 C645.93,139 645.478,138.993 645.123,138.961 C645.17,138.965 645.41,139.035 645.855,139.415 C646.29,139.787 646.515,140.334 646.47,140.892 C646.426,141.471 646.304,141.694 646.27,141.735 C646.499,141.462 646.814,141.136 647.756,140.194 L677.516,110.433 C678.699,109.25 679.055,108.933 679.126,108.899 C679.089,108.917 679.046,108.934 678.999,108.95 C679,108.949 679,108.949 679,108.949 C678.954,108.934 678.911,108.917 678.874,108.899 C678.945,108.933 679.301,109.25 680.484,110.433 L694.025,123.975 L693,121.5 L693,125.7 C693,127.633 694.567,129.2 696.5,129.2 C698.433,129.2 700,127.633 700,125.7 L700,121.5 C700,120.572 699.631,119.682 698.975,119.025 L685.433,105.484 C683.528,103.578 683.022,103.127 681.912,102.593 C681.668,102.475 681.418,102.375 681.162,102.291 C679.757,101.835 678.243,101.835 676.837,102.292 C676.582,102.375 676.332,102.475 676.088,102.593 C674.978,103.127 674.472,103.578 672.567,105.484 L642.806,135.244 C639.929,138.121 639.635,138.473 639.492,140.343 C639.357,142.004 640.033,143.643 641.309,144.738 C642.744,145.958 643.215,146 647.258,146 L679.7,146 C681.633,146 683.2,144.433 683.2,142.5 C683.2,140.567 681.633,139 679.7,139 Z M679.7,146 C687.753,146 689.667,145.844 692.356,144.474 C694.99,143.132 697.132,140.99 698.474,138.356 C699.844,135.667 700,133.753 700,125.7 C700,123.767 698.433,122.2 696.5,122.2 C694.567,122.2 693,123.767 693,125.7 C693,132.347 692.87,133.935 692.237,135.178 C691.566,136.495 690.495,137.566 689.178,138.237 C687.935,138.87 686.347,139 679.7,139 C677.767,139 676.2,140.567 676.2,142.5 C676.2,144.433 677.767,146 679.7,146 Z M679.7,139 L650.3,139 C643.653,139 642.065,138.87 640.822,138.237 C639.505,137.566 638.434,136.495 637.763,135.178 C637.13,133.935 637,132.347 637,125.7 L637,96.3 C637,89.653 637.13,88.065 637.763,86.822 C638.434,85.505 639.505,84.434 640.822,83.763 C642.065,83.13 643.653,83 650.3,83 L679.7,83 C686.347,83 687.935,83.13 689.178,83.763 C690.495,84.434 691.566,85.505 692.237,86.822 C692.87,88.065 693,89.653 693,96.3 L693,125.7 C693,127.633 694.567,129.2 696.5,129.2 C698.433,129.2 700,127.633 700,125.7 L700,96.3 C700,88.247 699.844,86.333 698.474,83.644 C697.132,81.01 694.99,78.868 692.356,77.526 C689.667,76.156 687.753,76 679.7,76 L650.3,76 C642.247,76 640.333,76.156 637.644,77.526 C635.01,78.868 632.868,81.01 631.526,83.644 C630.156,86.333 630,88.247 630,96.3 L630,125.7 C630,133.753 630.156,135.667 631.526,138.356 C632.868,140.99 635.01,143.132 637.644,144.474 C640.333,145.844 642.247,146 650.3,146 L679.7,146 C681.633,146 683.2,144.433 683.2,142.5 C683.2,140.567 681.633,139 679.7,139 Z M656.25,98.75 C656.25,100.683 654.683,102.25 652.75,102.25 C650.817,102.25 649.25,100.683 649.25,98.75 C649.25,96.817 650.817,95.25 652.75,95.25 C654.683,95.25 656.25,96.817 656.25,98.75 Z M663.25,98.75 C663.25,92.951 658.549,88.25 652.75,88.25 C646.951,88.25 642.25,92.951 642.25,98.75 C642.25,104.549 646.951,109.25 652.75,109.25 C658.549,109.25 663.25,104.549 663.25,98.75 Z" />
        </g>
    </g>
</svg>