<?xml version="1.0" encoding="UTF-8"?>
<svg height="600" width="800" xmlns="http://www.w3.org/2000/svg" xmlns:xlink="http://www.w3.org/1999/xlink">
    <g id="Notes" font-family="LucidaGrande, 'Lucida Grande', sans-serif" font-size="13">
        <rect fill="white" height="600.0" width="800.0" x="0.0" y="0.0" />
        <g font-size="13">
            <text x="18.0" y="176.0">Small</text>
            <text x="18.0" y="376.0">Medium</text>
            <text x="18.0" y="576.0">Large</text>
        </g>
        <g font-size="9">
            <text x="250.0" y="30.0">Ultralight</text>
            <text x="450.0" y="30.0">Regular</text>
            <text x="650.0" y="30.0">Black</text>
            <text id="template-version" fill="#505050" text-anchor="end" x="785.0" y="575.0">Template v.3.0</text>
            <a href="https://github.com/swhitty/SwiftDraw">
                <text fill="#505050" text-anchor="end" x="785.0" y="590.0">https://github.com/swhitty/SwiftDraw</text>
            </a>
        </g>
    </g>
    <g id="Guides" stroke="rgb(39, 170, 225)" stroke-width="0.5">
        <path id="Capline-S" d="M18,76 l800,0" />
        <path id="H-reference" d="M85,145.755 L87.685,145.755 L113.369,79.287 L114.052,79.287 L114.052,76 L112.148,76 L85,145.755 Z M95.693,121.536 L130.996,121.536 L130.263,119.313 L96.474,119.313 L95.693,121.536 Z M139.15,145.755 L141.787,145.755 L114.638,76 L113.466,76 L113.466,79.287 L139.15,145.755 Z" stroke="none" transform="translate(0,200)" />
        <path id="Baseline-S" d="M18,146 l800,0" />
        <path id="left-margin-Ultralight-M" d="M230,256 l0,110" />
        <path id="right-margin-Ultralight-M" d="M300,256 l0,110" />
        <path id="left-margin-Regular-M" d="M430,256 l0,110" />
        <path id="right-margin-Regular-M" d="M500,256 l0,110" />
        <path id="left-margin-Black-M" d="M630,256 l0,110" />
        <path id="right-margin-Black-M" d="M700,256 l0,110" />
        <path id="Capline-M" d="M18,276 l800,0" />
        <path id="Baseline-M" d="M18,346 l800,0" />
        <path id="Capline-L" d="M18,476 l800,0" />
        <path id="Baseline-L" d="M18,546 l800,0" />
    </g>
    <g id="Symbols">
        <g id="Ultralight-M" transform="translate(0,200)">
            <path d="M291.25,111 C291.25,125.498 279.498,137.25 265,137.25 C263.389,137.25 262.083,138.556 262.083,140.167 C262.083,141.777 263.389,143.083 265,143.083 C282.72,143.083 297.083,128.72 297.083,111 C297.083,109.389 295.777,108.083 294.167,108.083 C292.556,108.083 291.25,109.389 291.25,111 Z M297.083,111 C297.083,93.28 282.72,78.917 265,78.917 C263.389,78.917 262.083,80.223 262.083,81.833 C262.083,83.444 263.389,84.75 265,84.75 C279.498,84.75 291.25,96.502 291.25,111 C291.25,112.611 292.556,113.917 294.167,113.917 C295.777,113.917 297.083,112.611 297.083,111 Z M294.167,108.083 L288.333,108.083 C286.723,108.083 285.417,109.389 285.417,111 C285.417,112.611 286.723,113.917 288.333,113.917 L294.167,113.917 C295.777,113.917 297.083,112.611 297.083,111 C297.083,109.389 295.777,108.083 294.167,108.083 Z M265,137.25 C250.502,137.25 238.75,125.498 238.75,111 C238.75,109.389 237.444,108.083 235.833,108.083 C234.223,108.083 232.917,109.389 232.917,111 C232.917,128.72 247.28,143.083 265,143.083 C266.611,143.083 267.917,141.777 267.917,140.167 C267.917,138.556 266.611,137.25 265,137.25 Z M267.917,140.167 L267.917,134.333 C267.917,132.723 266.611,131.417 265,131.417 C263.389,131.417 262.083,132.723 262.083,134.333 L262.083,140.167 C262.083,141.777 263.389,143.083 265,143.083 C266.611,143.083 267.917,141.777 267.917,140.167 Z M238.75,111 C238.75,96.502 250.502,84.75 265,84.75 C266.611,84.75 267.917,83.444 267.917,81.833 C267.917,80.223 266.611,78.917 265,78.917 C247.28,78.917 232.917,93.28 232.917,111 C232.917,112.611 234.223,113.917 235.833,113.917 C237.444,113.917 238.75,112.611 238.75,111 Z M235.833,113.917 L241.667,113.917 C243.277,113.917 244.583,112.611 244.583,111 C244.583,109.389 243.277,108.083 241.667,108.083 L235.833,108.083 C234.223,108.083 232.917,109.389 232.917,111 C232.917,112.611 234.223,113.917 235.833,113.917 Z M262.083,81.833 L262.083,87.667 C262.083,89.277 263.389,90.583 265,90.583 C266.611,90.583 267.917,89.277 267.917,87.667 L267.917,81.833 C267.917,80.223 266.611,78.917 265,78.917 C263.389,78.917 262.083,80.223 262.083,81.833 Z M287.686,129.561 L283.562,125.437 C282.423,124.298 280.576,124.298 279.437,125.437 C278.298,126.576 278.298,128.423 279.437,129.562 L283.561,133.686 C284.7,134.825 286.547,134.825 287.686,133.686 C288.825,132.547 288.825,130.7 287.686,129.561 Z M250.563,92.438 L246.442,88.317 C245.303,87.178 243.456,87.178 242.317,88.317 C241.178,89.456 241.178,91.303 242.317,92.442 L246.438,96.563 C247.577,97.702 249.424,97.702 250.563,96.563 C251.702,95.424 251.702,93.577 250.563,92.438 Z M283.566,96.564 L287.685,92.44 C288.823,91.3 288.822,89.454 287.682,88.315 C286.542,87.177 284.695,87.178 283.557,88.318 L279.439,92.442 C278.3,93.582 278.302,95.429 279.442,96.567 C280.581,97.705 282.428,97.704 283.566,96.564 Z M246.442,133.683 L250.566,129.559 C251.705,128.42 251.705,126.573 250.566,125.434 C249.427,124.295 247.58,124.295 246.441,125.434 L242.317,129.558 C241.178,130.697 241.178,132.544 242.317,133.683 C243.456,134.822 245.303,134.822 246.442,133.683 Z M254.834,113.501 L262.126,109.126 C262.536,108.88 262.88,108.536 263.126,108.126 L267.501,100.834 L262.499,100.834 L266.874,108.126 C267.12,108.536 267.464,108.88 267.874,109.126 L275.166,113.501 L275.166,108.499 L267.874,112.874 C267.464,113.12 267.12,113.464 266.874,113.874 L262.499,121.166 L267.501,121.166 L263.126,113.874 C262.88,113.464 262.536,113.12 262.126,112.874 L254.834,108.499 L254.834,113.501 Z M251.833,108.499 C249.945,109.632 249.945,112.368 251.833,113.501 L259.124,117.876 L258.124,116.876 L262.499,124.167 C263.632,126.055 266.368,126.055 267.501,124.167 L271.876,116.876 L270.876,117.876 L278.167,113.501 C280.055,112.368 280.055,109.632 278.167,108.499 L270.876,104.124 L271.876,105.124 L267.501,97.833 C266.368,95.945 263.632,95.945 262.499,97.833 L258.124,105.124 L259.124,104.124 L251.833,108.499 Z" />
        </g>
        <g id="Regular-M" transform="translate(0,200)">
            <path d="M491.25,111 C491.25,125.498 479.498,137.25 465,137.25 C463.389,137.25 462.083,138.556 462.083,140.167 C462.083,141.777 463.389,143.083 465,143.083 C482.72,143.083 497.083,128.72 497.083,111 C497.083,109.389 495.777,108.083 494.167,108.083 C492.556,108.083 491.25,109.389 491.25,111 Z M497.083,111 C497.083,93.28 482.72,78.917 465,78.917 C463.389,78.917 462.083,80.223 462.083,81.833 C462.083,83.444 463.389,84.75 465,84.75 C479.498,84.75 491.25,96.502 491.25,111 C491.25,112.611 492.556,113.917 494.167,113.917 C495.777,113.917 497.083,112.611 497.083,111 Z M494.167,108.083 L488.333,108.083 C486.723,108.083 485.417,109.389 485.417,111 C485.417,112.611 486.723,113.917 488.333,113.917 L494.167,113.917 C495.777,113.917 497.083,112.611 497.083,111 C497.083,109.389 495.777,108.083 494.167,108.083 Z M465,137.25 C450.502,137.25 438.75,125.498 438.75,111 C438.75,109.389 437.444,108.083 435.833,108.083 C434.223,108.083 432.917,109.389 432.917,111 C432.917,128.72 447.28,143.083 465,143.083 C466.611,143.083 467.917,141.777 467.917,140.167 C467.917,138.556 466.611,137.25 465,137.25 Z M467.917,140.167 L467.917,134.333 C467.917,132.723 466.611,131.417 465,131.417 C463.389,131.417 462.083,132.723 462.083,134.333 L462.083,140.167 C462.083,141.777 463.389,143.083 465,143.083 C466.611,143.083 467.917,141.777 467.917,140.167 Z M438.75,111 C438.75,96.502 450.502,84.75 465,84.75 C466.611,84.75 467.917,83.444 467.917,81.833 C467.917,80.223 466.611,78.917 465,78.917 C447.28,78.917 432.917,93.28 432.917,111 C432.917,112.611 434.223,113.917 435.833,113.917 C437.444,113.917 438.75,112.611 438.75,111 Z M435.833,113.917 L441.667,113.917 C443.277,113.917 444.583,112.611 444.583,111 C444.583,109.389 443.277,108.083 441.667,108.083 L435.833,108.083 C434.223,108.083 432.917,109.389 432.917,111 C432.917,112.611 434.223,113.917 435.833,113.917 Z M462.083,81.833 L462.083,87.667 C462.083,89.277 463.389,90.583 465,90.583 C466.611,90.583 467.917,89.277 467.917,87.667 L467.917,81.833 C467.917,80.223 466.611,78.917 465,78.917 C463.389,78.917 462.083,80.223 462.083,81.833 Z M487.686,129.561 L483.562,125.437 C482.423,124.298 480.576,124.298 479.437,125.437 C478.298,126.576 478.298,128.423 479.437,129.562 L483.561,133.686 C484.7,134.825 486.547,134.825 487.686,133.686 C488.825,132.547 488.825,130.7 487.686,129.561 Z M450.563,92.438 L446.442,88.317 C445.303,87.178 443.456,87.178 442.317,88.317 C441.178,89.456 441.178,91.303 442.317,92.442 L446.438,96.563 C447.577,97.702 449.424,97.702 450.563,96.563 C451.702,95.424 451.702,93.577 450.563,92.438 Z M483.566,96.564 L487.685,92.44 C488.823,91.3 488.822,89.454 487.682,88.315 C486.542,87.177 484.695,87.178 483.557,88.318 L479.439,92.442 C478.3,93.582 478.302,95.429 479.442,96.567 C480.581,97.705 482.428,97.704 483.566,96.564 Z M446.442,133.683 L450.566,129.559 C451.705,128.42 451.705,126.573 450.566,125.434 C449.427,124.295 447.58,124.295 446.441,125.434 L442.317,129.558 C441.178,130.697 441.178,132.544 442.317,133.683 C443.456,134.822 445.303,134.822 446.442,133.683 Z M454.834,113.501 L462.126,109.126 C462.536,108.88 462.88,108.536 463.126,108.126 L467.501,100.834 L462.499,100.834 L466.874,108.126 C467.12,108.536 467.464,108.88 467.874,109.126 L475.166,113.501 L475.166,108.499 L467.874,112.874 C467.464,113.12 467.12,113.464 466.874,113.874 L462.499,121.166 L467.501,121.166 L463.126,113.874 C462.88,113.464 462.536,113.12 462.126,112.874 L454.834,108.499 L454.834,113.501 Z M451.833,108.499 C449.945,109.632 449.945,112.368 451.833,113.501 L459.124,117.876 L458.124,116.876 L462.499,124.167 C463.632,126.055 466.368,126.055 467.501,124.167 L471.876,116.876 L470.876,117.876 L478.167,113.501 C480.055,112.368 480.055,109.632 478.167,108.499 L470.876,104.124 L471.876,105.124 L467.501,97.833 C466.368,95.945 463.632,95.945 462.499,97.833 L458.124,105.124 L459.124,104.124 L451.833,108.499 Z" />
        </g>
        <g id="Black-M" transform="translate(0,200)">
            <path d="M691.25,111 C691.25,125.498 679.498,137.25 665,137.25 C663.389,137.25 662.083,138.556 662.083,140.167 C662.083,141.777 663.389,143.083 665,143.083 C682.72,143.083 697.083,128.72 697.083,111 C697.083,109.389 695.777,108.083 694.167,108.083 C692.556,108.083 691.25,109.389 691.25,111 Z M697.083,111 C697.083,93.28 682.72,78.917 665,78.917 C663.389,78.917 662.083,80.223 662.083,81.833 C662.083,83.444 663.389,84.75 665,84.75 C679.498,84.75 691.25,96.502 691.25,111 C691.25,112.611 692.556,113.917 694.167,113.917 C695.777,113.917 697.083,112.611 697.083,111 Z M694.167,108.083 L688.333,108.083 C686.723,108.083 685.417,109.389 685.417,111 C685.417,112.611 686.723,113.917 688.333,113.917 L694.167,113.917 C695.777,113.917 697.083,112.611 697.083,111 C697.083,109.389 695.777,108.083 694.167,108.083 Z M665,137.25 C650.502,137.25 638.75,125.498 638.75,111 C638.75,109.389 637.444,108.083 635.833,108.083 C634.222,108.083 632.917,109.389 632.917,111 C632.917,128.72 647.28,143.083 665,143.083 C666.611,143.083 667.917,141.777 667.917,140.167 C667.917,138.556 666.611,137.25 665,137.25 Z M667.917,140.167 L667.917,134.333 C667.917,132.723 666.611,131.417 665,131.417 C663.389,131.417 662.083,132.723 662.083,134.333 L662.083,140.167 C662.083,141.777 663.389,143.083 665,143.083 C666.611,143.083 667.917,141.777 667.917,140.167 Z M638.75,111 C638.75,96.502 650.502,84.75 665,84.75 C666.611,84.75 667.917,83.444 667.917,81.833 C667.917,80.223 666.611,78.917 665,78.917 C647.28,78.917 632.917,93.28 632.917,111 C632.917,112.611 634.222,113.917 635.833,113.917 C637.444,113.917 638.75,112.611 638.75,111 Z M635.833,113.917 L641.667,113.917 C643.278,113.917 644.583,112.611 644.583,111 C644.583,109.389 643.278,108.083 641.667,108.083 L635.833,108.083 C634.222,108.083 632.917,109.389 632.917,111 C632.917,112.611 634.222,113.917 635.833,113.917 Z M662.083,81.833 L662.083,87.667 C662.083,89.277 663.389,90.583 665,90.583 C666.611,90.583 667.917,89.277 667.917,87.667 L667.917,81.833 C667.917,80.223 666.611,78.917 665,78.917 C663.389,78.917 662.083,80.223 662.083,81.833 Z M687.686,129.561 L683.562,125.437 C682.423,124.298 680.576,124.298 679.437,125.437 C678.298,126.576 678.298,128.423 679.437,129.562 L683.561,133.686 C684.7,134.825 686.547,134.825 687.686,133.686 C688.825,132.547 688.825,130.7 687.686,129.561 Z M650.563,92.438 L646.442,88.317 C645.303,87.178 643.456,87.178 642.317,88.317 C641.178,89.456 641.178,91.303 642.317,92.442 L646.438,96.563 C647.577,97.702 649.424,97.702 650.563,96.563 C651.702,95.424 651.702,93.577 650.563,92.438 Z M683.566,96.564 L687.685,92.44 C688.823,91.3 688.822,89.454 687.682,88.315 C686.542,87.177 684.695,87.178 683.557,88.318 L679.439,92.442 C678.3,93.582 678.302,95.429 679.442,96.567 C680.581,97.705 682.428,97.704 683.566,96.564 Z M646.442,133.683 L650.566,129.559 C651.705,128.42 651.705,126.573 650.566,125.434 C649.427,124.295 647.58,124.295 646.441,125.434 L642.317,129.558 C641.178,130.697 641.178,132.544 642.317,133.683 C643.456,134.822 645.303,134.822 646.442,133.683 Z M654.834,113.501 L662.126,109.126 C662.536,108.88 662.88,108.536 663.126,108.126 L667.501,100.834 L662.499,100.834 L666.874,108.126 C667.12,108.536 667.464,108.88 667.874,109.126 L675.166,113.501 L675.166,108.499 L667.874,112.874 C667.464,113.12 667.12,113.464 666.874,113.874 L662.499,121.166 L667.501,121.166 L663.126,113.874 C662.88,113.464 662.536,113.12 662.126,112.874 L654.834,108.499 L654.834,113.501 Z M651.833,108.499 C649.945,109.632 649.945,112.368 651.833,113.501 L659.124,117.876 L658.124,116.876 L662.499,124.167 C663.632,126.055 666.368,126.055 667.501,124.167 L671.876,116.876 L670.876,117.876 L678.167,113.501 C680.055,112.368 680.055,109.632 678.167,108.499 L670.876,104.124 L671.876,105.124 L667.501,97.833 C666.368,95.945 663.632,95.945 662.499,97.833 L658.124,105.124 L659.124,104.124 L651.833,108.499 Z" />
        </g>
    </g>
</svg>