<?xml version="1.0" encoding="UTF-8"?>
<svg height="600" width="800" xmlns="http://www.w3.org/2000/svg" xmlns:xlink="http://www.w3.org/1999/xlink">
    <g id="Notes" font-family="LucidaGrande, 'Lucida Grande', sans-serif" font-size="13">
        <rect fill="white" height="600.0" width="800.0" x="0.0" y="0.0" />
        <g font-size="13">
            <text x="18.0" y="176.0">Small</text>
            <text x="18.0" y="376.0">Medium</text>
            <text x="18.0" y="576.0">Large</text>
        </g>
        <g font-size="9">
            <text x="250.0" y="30.0">Ultralight</text>
            <text x="450.0" y="30.0">Regular</text>
            <text x="650.0" y="30.0">Black</text>
            <text id="template-version" fill="#505050" text-anchor="end" x="785.0" y="575.0">Template v.3.0</text>
            <a href="https://github.com/swhitty/SwiftDraw">
                <text fill="#505050" text-anchor="end" x="785.0" y="590.0">https://github.com/swhitty/SwiftDraw</text>
            </a>
        </g>
    </g>
    <g id="Guides" stroke="rgb(39, 170, 225)" stroke-width="0.5">
        <path id="Capline-S" d="M18,76 l800,0" />
        <path id="H-reference" d="M85,145.755 L87.685,145.755 L113.369,79.287 L114.052,79.287 L114.052,76 L112.148,76 L85,145.755 Z M95.693,121.536 L130.996,121.536 L130.263,119.313 L96.474,119.313 L95.693,121.536 Z M139.15,145.755 L141.787,145.755 L114.638,76 L113.466,76 L113.466,79.287 L139.15,145.755 Z" stroke="none" transform="translate(0,200)" />
        <path id="Baseline-S" d="M18,146 l800,0" />
        <path id="left-margin-Ultralight-M" d="M230,256 l0,110" />
        <path id="right-margin-Ultralight-M" d="M300,256 l0,110" />
        <path id="left-margin-Regular-M" d="M430,256 l0,110" />
        <path id="right-margin-Regular-M" d="M500,256 l0,110" />
        <path id="left-margin-Black-M" d="M630,256 l0,110" />
        <path id="right-margin-Black-M" d="M700,256 l0,110" />
        <path id="Capline-M" d="M18,276 l800,0" />
        <path id="Baseline-M" d="M18,346 l800,0" />
        <path id="Capline-L" d="M18,476 l800,0" />
        <path id="Baseline-L" d="M18,546 l800,0" />
    </g>
    <g id="Symbols">
        <g id="Ultralight-M" transform="translate(0,200)">
            <path d="M262.083,96.417 L262.083,111 C262.083,112.611 263.389,113.917 265,113.917 C266.611,113.917 267.917,112.611 267.917,111 L267.917,96.417 C267.917,94.806 266.611,93.5 265,93.5 C263.389,93.5 262.083,94.806 262.083,96.417 Z M251,100.5 C245.585,107.72 246.549,117.873 253.225,123.946 C259.901,130.018 270.099,130.018 276.775,123.946 C283.451,117.873 284.415,107.72 279,100.5 C278.034,99.211 276.205,98.95 274.917,99.917 C273.628,100.883 273.367,102.711 274.333,104 C277.943,108.813 277.301,115.582 272.85,119.63 C268.4,123.679 261.6,123.679 257.15,119.63 C252.699,115.582 252.057,108.813 255.667,104 C256.633,102.711 256.372,100.883 255.083,99.917 C253.795,98.95 251.966,99.211 251,100.5 Z M291.25,111 C291.25,125.498 279.498,137.25 265,137.25 C250.502,137.25 238.75,125.498 238.75,111 C238.75,96.502 250.502,84.75 265,84.75 C279.498,84.75 291.25,96.502 291.25,111 Z M297.083,111 C297.083,93.28 282.72,78.917 265,78.917 C247.28,78.917 232.917,93.28 232.917,111 C232.917,128.72 247.28,143.083 265,143.083 C282.72,143.083 297.083,128.72 297.083,111 Z" />
        </g>
        <g id="Regular-M" transform="translate(0,200)">
            <path d="M462.083,96.417 L462.083,111 C462.083,112.611 463.389,113.917 465,113.917 C466.611,113.917 467.917,112.611 467.917,111 L467.917,96.417 C467.917,94.806 466.611,93.5 465,93.5 C463.389,93.5 462.083,94.806 462.083,96.417 Z M451,100.5 C445.585,107.72 446.549,117.873 453.225,123.946 C459.901,130.018 470.099,130.018 476.775,123.946 C483.451,117.873 484.415,107.72 479,100.5 C478.034,99.211 476.205,98.95 474.917,99.917 C473.628,100.883 473.367,102.711 474.333,104 C477.943,108.813 477.301,115.582 472.85,119.63 C468.4,123.679 461.6,123.679 457.15,119.63 C452.699,115.582 452.057,108.813 455.667,104 C456.633,102.711 456.372,100.883 455.083,99.917 C453.795,98.95 451.966,99.211 451,100.5 Z M491.25,111 C491.25,125.498 479.498,137.25 465,137.25 C450.502,137.25 438.75,125.498 438.75,111 C438.75,96.502 450.502,84.75 465,84.75 C479.498,84.75 491.25,96.502 491.25,111 Z M497.083,111 C497.083,93.28 482.72,78.917 465,78.917 C447.28,78.917 432.917,93.28 432.917,111 C432.917,128.72 447.28,143.083 465,143.083 C482.72,143.083 497.083,128.72 497.083,111 Z" />
        </g>
        <g id="Black-M" transform="translate(0,200)">
            <path d="M662.083,96.417 L662.083,111 C662.083,112.611 663.389,113.917 665,113.917 C666.611,113.917 667.917,112.611 667.917,111 L667.917,96.417 C667.917,94.806 666.611,93.5 665,93.5 C663.389,93.5 662.083,94.806 662.083,96.417 Z M651,100.5 C645.585,107.72 646.549,117.873 653.225,123.946 C659.901,130.018 670.099,130.018 676.775,123.946 C683.451,117.873 684.415,107.72 679,100.5 C678.034,99.211 676.205,98.95 674.917,99.917 C673.628,100.883 673.367,102.711 674.333,104 C677.943,108.813 677.301,115.582 672.85,119.63 C668.4,123.679 661.6,123.679 657.15,119.63 C652.699,115.582 652.057,108.813 655.667,104 C656.633,102.711 656.372,100.883 655.083,99.917 C653.795,98.95 651.966,99.211 651,100.5 Z M691.25,111 C691.25,125.498 679.498,137.25 665,137.25 C650.502,137.25 638.75,125.498 638.75,111 C638.75,96.502 650.502,84.75 665,84.75 C679.498,84.75 691.25,96.502 691.25,111 Z M697.083,111 C697.083,93.28 682.72,78.917 665,78.917 C647.28,78.917 632.917,93.28 632.917,111 C632.917,128.72 647.28,143.083 665,143.083 C682.72,143.083 697.083,128.72 697.083,111 Z" />
        </g>
    </g>
</svg>