<?xml version="1.0" encoding="UTF-8"?>
<svg height="600" width="800" xmlns="http://www.w3.org/2000/svg" xmlns:xlink="http://www.w3.org/1999/xlink">
    <g id="Notes" font-family="LucidaGrande, 'Lucida Grande', sans-serif" font-size="13">
        <rect fill="white" height="600.0" width="800.0" x="0.0" y="0.0" />
        <g font-size="13">
            <text x="18.0" y="176.0">Small</text>
            <text x="18.0" y="376.0">Medium</text>
            <text x="18.0" y="576.0">Large</text>
        </g>
        <g font-size="9">
            <text x="250.0" y="30.0">Ultralight</text>
            <text x="450.0" y="30.0">Regular</text>
            <text x="650.0" y="30.0">Black</text>
            <text id="template-version" fill="#505050" text-anchor="end" x="785.0" y="575.0">Template v.3.0</text>
            <a href="https://github.com/swhitty/SwiftDraw">
                <text fill="#505050" text-anchor="end" x="785.0" y="590.0">https://github.com/swhitty/SwiftDraw</text>
            </a>
        </g>
    </g>
    <g id="Guides" stroke="rgb(39, 170, 225)" stroke-width="0.5">
        <path id="Capline-S" d="M18,76 l800,0" />
        <path id="H-reference" d="M85,145.755 L87.685,145.755 L113.369,79.287 L114.052,79.287 L114.052,76 L112.148,76 L85,145.755 Z M95.693,121.536 L130.996,121.536 L130.263,119.313 L96.474,119.313 L95.693,121.536 Z M139.15,145.755 L141.787,145.755 L114.638,76 L113.466,76 L113.466,79.287 L139.15,145.755 Z" stroke="none" transform="translate(0,200)" />
        <path id="Baseline-S" d="M18,146 l800,0" />
        <path id="left-margin-Ultralight-M" d="M221,256 l0,110" />
        <path id="right-margin-Ultralight-M" d="M309,256 l0,110" />
        <path id="left-margin-Regular-M" d="M421,256 l0,110" />
        <path id="right-margin-Regular-M" d="M509,256 l0,110" />
        <path id="left-margin-Black-M" d="M621,256 l0,110" />
        <path id="right-margin-Black-M" d="M709,256 l0,110" />
        <path id="Capline-M" d="M18,276 l800,0" />
        <path id="Baseline-M" d="M18,346 l800,0" />
        <path id="Capline-L" d="M18,476 l800,0" />
        <path id="Baseline-L" d="M18,546 l800,0" />
    </g>
    <g id="Symbols">
        <g id="Ultralight-M" transform="translate(0,200)">
            <path d="M284.8,102.75 L271.6,102.75 C270.385,102.75 269.4,103.735 269.4,104.95 C269.4,106.165 270.385,107.15 271.6,107.15 L284.8,107.15 C286.015,107.15 287,106.165 287,104.95 C287,103.735 286.015,102.75 284.8,102.75 Z M284.8,91.2 L245.2,91.2 C243.985,91.2 243,92.185 243,93.4 C243,94.615 243.985,95.6 245.2,95.6 L284.8,95.6 C286.015,95.6 287,94.615 287,93.4 C287,92.185 286.015,91.2 284.8,91.2 Z M284.8,114.85 L271.6,114.85 C270.385,114.85 269.4,115.835 269.4,117.05 C269.4,118.265 270.385,119.25 271.6,119.25 L284.8,119.25 C286.015,119.25 287,118.265 287,117.05 C287,115.835 286.015,114.85 284.8,114.85 Z M284.8,126.4 L245.2,126.4 C243.985,126.4 243,127.385 243,128.6 C243,129.815 243.985,130.8 245.2,130.8 L284.8,130.8 C286.015,130.8 287,129.815 287,128.6 C287,127.385 286.015,126.4 284.8,126.4 Z M248.72,122 L259.28,122 C261.262,122 261.731,121.962 262.597,121.521 C263.425,121.099 264.099,120.425 264.52,119.598 C264.962,118.731 265,118.262 265,116.28 L265,105.72 C265,103.738 264.962,103.269 264.521,102.403 C264.099,101.575 263.425,100.901 262.598,100.48 C261.731,100.038 261.262,100 259.28,100 L248.72,100 C246.738,100 246.269,100.038 245.403,100.479 C244.575,100.901 243.901,101.575 243.48,102.402 C243.038,103.269 243,103.738 243,105.72 L243,116.28 C243,118.262 243.038,118.731 243.479,119.597 C243.901,120.425 244.575,121.099 245.402,121.52 C246.269,121.962 246.738,122 248.72,122 Z M248.72,117.6 C247.622,117.6 247.358,117.578 247.4,117.6 C247.4,117.6 247.4,117.6 247.4,117.6 C247.422,117.642 247.4,117.378 247.4,116.28 L247.4,105.72 C247.4,104.622 247.422,104.358 247.4,104.4 C247.4,104.4 247.4,104.4 247.4,104.4 C247.358,104.422 247.622,104.4 248.72,104.4 L259.28,104.4 C260.378,104.4 260.642,104.422 260.6,104.4 C260.6,104.4 260.6,104.4 260.6,104.4 C260.578,104.358 260.6,104.622 260.6,105.72 L260.6,116.28 C260.6,117.378 260.578,117.642 260.6,117.6 C260.6,117.6 260.6,117.6 260.6,117.6 C260.642,117.578 260.378,117.6 259.28,117.6 L248.72,117.6 Z" />
        </g>
        <g id="Regular-M" transform="translate(0,200)">
            <path d="M484.8,102.75 L471.6,102.75 C470.385,102.75 469.4,103.735 469.4,104.95 C469.4,106.165 470.385,107.15 471.6,107.15 L484.8,107.15 C486.015,107.15 487,106.165 487,104.95 C487,103.735 486.015,102.75 484.8,102.75 Z M484.8,91.2 L445.2,91.2 C443.985,91.2 443,92.185 443,93.4 C443,94.615 443.985,95.6 445.2,95.6 L484.8,95.6 C486.015,95.6 487,94.615 487,93.4 C487,92.185 486.015,91.2 484.8,91.2 Z M484.8,114.85 L471.6,114.85 C470.385,114.85 469.4,115.835 469.4,117.05 C469.4,118.265 470.385,119.25 471.6,119.25 L484.8,119.25 C486.015,119.25 487,118.265 487,117.05 C487,115.835 486.015,114.85 484.8,114.85 Z M484.8,126.4 L445.2,126.4 C443.985,126.4 443,127.385 443,128.6 C443,129.815 443.985,130.8 445.2,130.8 L484.8,130.8 C486.015,130.8 487,129.815 487,128.6 C487,127.385 486.015,126.4 484.8,126.4 Z M448.72,122 L459.28,122 C461.262,122 461.731,121.962 462.597,121.521 C463.425,121.099 464.099,120.425 464.52,119.598 C464.962,118.731 465,118.262 465,116.28 L465,105.72 C465,103.738 464.962,103.269 464.521,102.403 C464.099,101.575 463.425,100.901 462.598,100.48 C461.731,100.038 461.262,100 459.28,100 L448.72,100 C446.738,100 446.269,100.038 445.403,100.479 C444.575,100.901 443.901,101.575 443.48,102.402 C443.038,103.269 443,103.738 443,105.72 L443,116.28 C443,118.262 443.038,118.731 443.479,119.597 C443.901,120.425 444.575,121.099 445.402,121.52 C446.269,121.962 446.738,122 448.72,122 Z M448.72,117.6 C447.622,117.6 447.358,117.578 447.4,117.6 C447.4,117.6 447.4,117.6 447.4,117.6 C447.422,117.642 447.4,117.378 447.4,116.28 L447.4,105.72 C447.4,104.622 447.422,104.358 447.4,104.4 C447.4,104.4 447.4,104.4 447.4,104.4 C447.358,104.422 447.622,104.4 448.72,104.4 L459.28,104.4 C460.378,104.4 460.642,104.422 460.6,104.4 C460.6,104.4 460.6,104.4 460.6,104.4 C460.578,104.358 460.6,104.622 460.6,105.72 L460.6,116.28 C460.6,117.378 460.578,117.642 460.6,117.6 C460.6,117.6 460.6,117.6 460.6,117.6 C460.642,117.578 460.378,117.6 459.28,117.6 L448.72,117.6 Z" />
        </g>
        <g id="Black-M" transform="translate(0,200)">
            <path d="M684.8,102.75 L671.6,102.75 C670.385,102.75 669.4,103.735 669.4,104.95 C669.4,106.165 670.385,107.15 671.6,107.15 L684.8,107.15 C686.015,107.15 687,106.165 687,104.95 C687,103.735 686.015,102.75 684.8,102.75 Z M684.8,91.2 L645.2,91.2 C643.985,91.2 643,92.185 643,93.4 C643,94.615 643.985,95.6 645.2,95.6 L684.8,95.6 C686.015,95.6 687,94.615 687,93.4 C687,92.185 686.015,91.2 684.8,91.2 Z M684.8,114.85 L671.6,114.85 C670.385,114.85 669.4,115.835 669.4,117.05 C669.4,118.265 670.385,119.25 671.6,119.25 L684.8,119.25 C686.015,119.25 687,118.265 687,117.05 C687,115.835 686.015,114.85 684.8,114.85 Z M684.8,126.4 L645.2,126.4 C643.985,126.4 643,127.385 643,128.6 C643,129.815 643.985,130.8 645.2,130.8 L684.8,130.8 C686.015,130.8 687,129.815 687,128.6 C687,127.385 686.015,126.4 684.8,126.4 Z M648.72,122 L659.28,122 C661.262,122 661.731,121.962 662.597,121.521 C663.425,121.099 664.099,120.425 664.52,119.598 C664.962,118.731 665,118.262 665,116.28 L665,105.72 C665,103.738 664.962,103.269 664.521,102.403 C664.099,101.575 663.425,100.901 662.598,100.48 C661.731,100.038 661.262,100 659.28,100 L648.72,100 C646.738,100 646.269,100.038 645.403,100.479 C644.575,100.901 643.901,101.575 643.48,102.402 C643.038,103.269 643,103.738 643,105.72 L643,116.28 C643,118.262 643.038,118.731 643.479,119.597 C643.901,120.425 644.575,121.099 645.402,121.52 C646.269,121.962 646.738,122 648.72,122 Z M648.72,117.6 C647.622,117.6 647.358,117.578 647.4,117.6 C647.4,117.6 647.4,117.6 647.4,117.6 C647.422,117.642 647.4,117.378 647.4,116.28 L647.4,105.72 C647.4,104.622 647.422,104.358 647.4,104.4 C647.4,104.4 647.4,104.4 647.4,104.4 C647.358,104.422 647.622,104.4 648.72,104.4 L659.28,104.4 C660.378,104.4 660.642,104.422 660.6,104.4 C660.6,104.4 660.6,104.4 660.6,104.4 C660.578,104.358 660.6,104.622 660.6,105.72 L660.6,116.28 C660.6,117.378 660.578,117.642 660.6,117.6 C660.6,117.6 660.6,117.6 660.6,117.6 C660.642,117.578 660.378,117.6 659.28,117.6 L648.72,117.6 Z" />
        </g>
    </g>
</svg>