<?xml version="1.0" encoding="UTF-8"?>
<svg height="600" width="800" xmlns="http://www.w3.org/2000/svg" xmlns:xlink="http://www.w3.org/1999/xlink">
    <g id="Notes" font-family="LucidaGrande, 'Lucida Grande', sans-serif" font-size="13">
        <rect fill="white" height="600.0" width="800.0" x="0.0" y="0.0" />
        <g font-size="13">
            <text x="18.0" y="176.0">Small</text>
            <text x="18.0" y="376.0">Medium</text>
            <text x="18.0" y="576.0">Large</text>
        </g>
        <g font-size="9">
            <text x="250.0" y="30.0">Ultralight</text>
            <text x="450.0" y="30.0">Regular</text>
            <text x="650.0" y="30.0">Black</text>
            <text id="template-version" fill="#505050" text-anchor="end" x="785.0" y="575.0">Template v.3.0</text>
            <a href="https://github.com/swhitty/SwiftDraw">
                <text fill="#505050" text-anchor="end" x="785.0" y="590.0">https://github.com/swhitty/SwiftDraw</text>
            </a>
        </g>
    </g>
    <g id="Guides" stroke="rgb(39, 170, 225)" stroke-width="0.5">
        <path id="Capline-S" d="M18,76 l800,0" />
        <path id="H-reference" d="M85,145.755 L87.685,145.755 L113.369,79.287 L114.052,79.287 L114.052,76 L112.148,76 L85,145.755 Z M95.693,121.536 L130.996,121.536 L130.263,119.313 L96.474,119.313 L95.693,121.536 Z M139.15,145.755 L141.787,145.755 L114.638,76 L113.466,76 L113.466,79.287 L139.15,145.755 Z" stroke="none" transform="translate(0,200)" />
        <path id="Baseline-S" d="M18,146 l800,0" />
        <path id="left-margin-Ultralight-M" d="M230,256 l0,110" />
        <path id="right-margin-Ultralight-M" d="M300,256 l0,110" />
        <path id="left-margin-Regular-M" d="M430,256 l0,110" />
        <path id="right-margin-Regular-M" d="M500,256 l0,110" />
        <path id="left-margin-Black-M" d="M630,256 l0,110" />
        <path id="right-margin-Black-M" d="M700,256 l0,110" />
        <path id="Capline-M" d="M18,276 l800,0" />
        <path id="Baseline-M" d="M18,346 l800,0" />
        <path id="Capline-L" d="M18,476 l800,0" />
        <path id="Baseline-L" d="M18,546 l800,0" />
    </g>
    <g id="Symbols">
        <g id="Ultralight-M" transform="translate(0,200)">
            <path d="M291.25,106.625 L291.25,95.833 C291.25,89.122 291.12,87.527 289.979,85.287 C288.86,83.092 287.075,81.307 284.88,80.188 C282.639,79.047 281.044,78.917 274.333,78.917 L255.667,78.917 C248.956,78.917 247.361,79.047 245.12,80.188 C242.925,81.307 241.14,83.092 240.022,85.287 C238.88,87.527 238.75,89.122 238.75,95.833 L238.75,126.167 C238.75,132.878 238.88,134.473 240.021,136.713 C241.14,138.908 242.925,140.693 245.12,141.812 C247.361,142.953 248.956,143.083 255.667,143.083 L263.542,143.083 C265.152,143.083 266.458,141.777 266.458,140.167 C266.458,138.556 265.152,137.25 263.542,137.25 L255.667,137.25 C250.128,137.25 248.804,137.142 247.768,136.614 C246.671,136.055 245.778,135.163 245.219,134.065 C244.691,133.029 244.583,131.706 244.583,126.167 L244.583,95.833 C244.583,90.294 244.691,88.971 245.219,87.935 C245.778,86.837 246.671,85.945 247.768,85.386 C248.804,84.858 250.128,84.75 255.667,84.75 L274.333,84.75 C279.872,84.75 281.196,84.858 282.232,85.386 C283.329,85.945 284.222,86.837 284.781,87.935 C285.309,88.971 285.417,90.294 285.417,95.833 L285.417,106.625 C285.417,108.236 286.723,109.542 288.333,109.542 C289.944,109.542 291.25,108.236 291.25,106.625 Z M296.229,138.104 L291.854,133.729 C290.715,132.59 288.868,132.59 287.729,133.729 C286.59,134.868 286.59,136.715 287.729,137.854 L292.104,142.229 C293.243,143.368 295.09,143.368 296.229,142.229 C297.368,141.09 297.368,139.243 296.229,138.104 Z M289.792,128.5 C289.792,132.527 286.527,135.792 282.5,135.792 C278.473,135.792 275.208,132.527 275.208,128.5 C275.208,124.473 278.473,121.208 282.5,121.208 C286.527,121.208 289.792,124.473 289.792,128.5 Z M295.625,128.5 C295.625,121.251 289.749,115.375 282.5,115.375 C275.251,115.375 269.375,121.251 269.375,128.5 C269.375,135.749 275.251,141.625 282.5,141.625 C289.749,141.625 295.625,135.749 295.625,128.5 Z" />
        </g>
        <g id="Regular-M" transform="translate(0,200)">
            <path d="M491.25,106.625 L491.25,95.833 C491.25,89.122 491.12,87.527 489.979,85.287 C488.86,83.092 487.075,81.307 484.88,80.188 C482.639,79.047 481.044,78.917 474.333,78.917 L455.667,78.917 C448.956,78.917 447.361,79.047 445.12,80.188 C442.925,81.307 441.14,83.092 440.022,85.287 C438.88,87.527 438.75,89.122 438.75,95.833 L438.75,126.167 C438.75,132.878 438.88,134.473 440.021,136.713 C441.14,138.908 442.925,140.693 445.12,141.812 C447.361,142.953 448.956,143.083 455.667,143.083 L463.542,143.083 C465.152,143.083 466.458,141.777 466.458,140.167 C466.458,138.556 465.152,137.25 463.542,137.25 L455.667,137.25 C450.128,137.25 448.804,137.142 447.768,136.614 C446.671,136.055 445.778,135.163 445.219,134.065 C444.691,133.029 444.583,131.706 444.583,126.167 L444.583,95.833 C444.583,90.294 444.691,88.971 445.219,87.935 C445.778,86.837 446.671,85.945 447.768,85.386 C448.804,84.858 450.128,84.75 455.667,84.75 L474.333,84.75 C479.872,84.75 481.196,84.858 482.232,85.386 C483.329,85.945 484.222,86.837 484.781,87.935 C485.309,88.971 485.417,90.294 485.417,95.833 L485.417,106.625 C485.417,108.236 486.723,109.542 488.333,109.542 C489.944,109.542 491.25,108.236 491.25,106.625 Z M496.229,138.104 L491.854,133.729 C490.715,132.59 488.868,132.59 487.729,133.729 C486.59,134.868 486.59,136.715 487.729,137.854 L492.104,142.229 C493.243,143.368 495.09,143.368 496.229,142.229 C497.368,141.09 497.368,139.243 496.229,138.104 Z M489.792,128.5 C489.792,132.527 486.527,135.792 482.5,135.792 C478.473,135.792 475.208,132.527 475.208,128.5 C475.208,124.473 478.473,121.208 482.5,121.208 C486.527,121.208 489.792,124.473 489.792,128.5 Z M495.625,128.5 C495.625,121.251 489.749,115.375 482.5,115.375 C475.251,115.375 469.375,121.251 469.375,128.5 C469.375,135.749 475.251,141.625 482.5,141.625 C489.749,141.625 495.625,135.749 495.625,128.5 Z" />
        </g>
        <g id="Black-M" transform="translate(0,200)">
            <path d="M691.25,106.625 L691.25,95.833 C691.25,89.122 691.12,87.527 689.979,85.287 C688.86,83.092 687.075,81.307 684.88,80.188 C682.639,79.047 681.044,78.917 674.333,78.917 L655.667,78.917 C648.956,78.917 647.361,79.047 645.12,80.188 C642.925,81.307 641.14,83.092 640.022,85.287 C638.88,87.527 638.75,89.122 638.75,95.833 L638.75,126.167 C638.75,132.878 638.88,134.473 640.021,136.713 C641.14,138.908 642.925,140.693 645.12,141.812 C647.361,142.953 648.956,143.083 655.667,143.083 L663.542,143.083 C665.153,143.083 666.458,141.777 666.458,140.167 C666.458,138.556 665.153,137.25 663.542,137.25 L655.667,137.25 C650.128,137.25 648.804,137.142 647.768,136.614 C646.671,136.055 645.778,135.163 645.219,134.065 C644.691,133.029 644.583,131.706 644.583,126.167 L644.583,95.833 C644.583,90.294 644.691,88.971 645.219,87.935 C645.778,86.837 646.671,85.945 647.768,85.386 C648.804,84.858 650.128,84.75 655.667,84.75 L674.333,84.75 C679.872,84.75 681.196,84.858 682.232,85.386 C683.329,85.945 684.222,86.837 684.781,87.935 C685.309,88.971 685.417,90.294 685.417,95.833 L685.417,106.625 C685.417,108.236 686.723,109.542 688.333,109.542 C689.944,109.542 691.25,108.236 691.25,106.625 Z M696.229,138.104 L691.854,133.729 C690.715,132.59 688.868,132.59 687.729,133.729 C686.59,134.868 686.59,136.715 687.729,137.854 L692.104,142.229 C693.243,143.368 695.09,143.368 696.229,142.229 C697.368,141.09 697.368,139.243 696.229,138.104 Z M689.792,128.5 C689.792,132.527 686.527,135.792 682.5,135.792 C678.473,135.792 675.208,132.527 675.208,128.5 C675.208,124.473 678.473,121.208 682.5,121.208 C686.527,121.208 689.792,124.473 689.792,128.5 Z M695.625,128.5 C695.625,121.251 689.749,115.375 682.5,115.375 C675.251,115.375 669.375,121.251 669.375,128.5 C669.375,135.749 675.251,141.625 682.5,141.625 C689.749,141.625 695.625,135.749 695.625,128.5 Z" />
        </g>
    </g>
</svg>