<?xml version="1.0" encoding="UTF-8"?>
<svg height="600" width="800" xmlns="http://www.w3.org/2000/svg" xmlns:xlink="http://www.w3.org/1999/xlink">
    <g id="Notes" font-family="LucidaGrande, 'Lucida Grande', sans-serif" font-size="13">
        <rect fill="white" height="600.0" width="800.0" x="0.0" y="0.0" />
        <g font-size="13">
            <text x="18.0" y="176.0">Small</text>
            <text x="18.0" y="376.0">Medium</text>
            <text x="18.0" y="576.0">Large</text>
        </g>
        <g font-size="9">
            <text x="250.0" y="30.0">Ultralight</text>
            <text x="450.0" y="30.0">Regular</text>
            <text x="650.0" y="30.0">Black</text>
            <text id="template-version" fill="#505050" text-anchor="end" x="785.0" y="575.0">Template v.3.0</text>
            <a href="https://github.com/swhitty/SwiftDraw">
                <text fill="#505050" text-anchor="end" x="785.0" y="590.0">https://github.com/swhitty/SwiftDraw</text>
            </a>
        </g>
    </g>
    <g id="Guides" stroke="rgb(39, 170, 225)" stroke-width="0.5">
        <path id="Capline-S" d="M18,76 l800,0" />
        <path id="H-reference" d="M85,145.755 L87.685,145.755 L113.369,79.287 L114.052,79.287 L114.052,76 L112.148,76 L85,145.755 Z M95.693,121.536 L130.996,121.536 L130.263,119.313 L96.474,119.313 L95.693,121.536 Z M139.15,145.755 L141.787,145.755 L114.638,76 L113.466,76 L113.466,79.287 L139.15,145.755 Z" stroke="none" transform="translate(0,200)" />
        <path id="Baseline-S" d="M18,146 l800,0" />
        <path id="left-margin-Ultralight-M" d="M236.364,256 l0,110" />
        <path id="right-margin-Ultralight-M" d="M293.636,256 l0,110" />
        <path id="left-margin-Regular-M" d="M436.364,256 l0,110" />
        <path id="right-margin-Regular-M" d="M493.636,256 l0,110" />
        <path id="left-margin-Black-M" d="M636.364,256 l0,110" />
        <path id="right-margin-Black-M" d="M693.636,256 l0,110" />
        <path id="Capline-M" d="M18,276 l800,0" />
        <path id="Baseline-M" d="M18,346 l800,0" />
        <path id="Capline-L" d="M18,476 l800,0" />
        <path id="Baseline-L" d="M18,546 l800,0" />
    </g>
    <g id="Symbols">
        <g id="Ultralight-M" transform="translate(0,200)">
            <path d="M290.996,103.045 L290.996,94.455 C290.996,87.133 290.86,85.394 289.673,82.95 C288.509,80.554 286.651,78.607 284.367,77.387 C282.035,76.142 280.376,76 273.392,76 L253.967,76 C246.984,76 245.324,76.142 242.993,77.387 C240.708,78.607 238.851,80.554 237.687,82.949 C236.499,85.394 236.364,87.133 236.364,94.455 L236.364,127.545 C236.364,134.867 236.499,136.606 237.687,139.05 C238.851,141.446 240.708,143.393 242.992,144.613 C245.324,145.858 246.984,146 253.967,146 L269.75,146 C271.426,146 272.785,144.575 272.785,142.818 C272.785,141.061 271.426,139.636 269.75,139.636 L253.967,139.636 C248.203,139.636 246.826,139.518 245.748,138.943 C244.606,138.333 243.678,137.359 243.096,136.162 C242.546,135.032 242.434,133.588 242.434,127.545 L242.434,94.455 C242.434,88.412 242.546,86.968 243.096,85.838 C243.678,84.641 244.606,83.667 245.748,83.057 C246.826,82.482 248.203,82.364 253.967,82.364 L273.392,82.364 C279.156,82.364 280.533,82.482 281.612,83.058 C282.753,83.667 283.682,84.641 284.264,85.838 C284.813,86.968 284.926,88.412 284.926,94.455 L284.926,103.045 C284.926,104.803 286.284,106.227 287.961,106.227 C289.637,106.227 290.996,104.803 290.996,103.045 Z M269.75,104.636 L251.539,104.636 C249.863,104.636 248.504,106.061 248.504,107.818 C248.504,109.575 249.863,111 251.539,111 L269.75,111 C271.426,111 272.785,109.575 272.785,107.818 C272.785,106.061 271.426,104.636 269.75,104.636 Z M257.609,117.364 L251.539,117.364 C249.863,117.364 248.504,118.788 248.504,120.545 C248.504,122.303 249.863,123.727 251.539,123.727 L257.609,123.727 C259.286,123.727 260.645,122.303 260.645,120.545 C260.645,118.788 259.286,117.364 257.609,117.364 Z M275.82,91.909 L251.539,91.909 C249.863,91.909 248.504,93.334 248.504,95.091 C248.504,96.848 249.863,98.273 251.539,98.273 L275.82,98.273 C277.496,98.273 278.855,96.848 278.855,95.091 C278.855,93.334 277.496,91.909 275.82,91.909 Z M280.2,121.61 C280.815,119.783 282.596,118.687 284.417,119.015 C286.237,119.342 287.568,120.998 287.566,122.935 C287.566,123.736 286.88,124.694 285.504,125.655 C284.486,126.366 283.433,126.856 282.814,127.072 C281.223,127.627 280.363,129.429 280.892,131.096 C281.422,132.763 283.14,133.665 284.731,133.11 C285.818,132.73 287.326,132.029 288.869,130.951 C291.761,128.932 293.636,126.313 293.636,122.938 C293.641,117.903 290.18,113.595 285.443,112.743 C280.707,111.891 276.074,114.742 274.475,119.494 C273.918,121.151 274.748,122.968 276.328,123.553 C277.909,124.137 279.643,123.267 280.2,121.61 Z M283.863,142.818 L283.894,142.818 C285.57,142.818 286.929,141.394 286.929,139.636 C286.929,137.879 285.57,136.455 283.894,136.455 L283.863,136.455 C282.187,136.455 280.828,137.879 280.828,139.636 C280.828,141.394 282.187,142.818 283.863,142.818 Z" />
        </g>
        <g id="Regular-M" transform="translate(0,200)">
            <path d="M490.996,103.045 L490.996,94.455 C490.996,87.133 490.86,85.394 489.673,82.95 C488.509,80.554 486.651,78.607 484.367,77.387 C482.035,76.142 480.376,76 473.392,76 L453.967,76 C446.984,76 445.324,76.142 442.993,77.387 C440.708,78.607 438.851,80.554 437.687,82.949 C436.499,85.394 436.364,87.133 436.364,94.455 L436.364,127.545 C436.364,134.867 436.499,136.606 437.687,139.05 C438.851,141.446 440.708,143.393 442.992,144.613 C445.324,145.858 446.984,146 453.967,146 L469.75,146 C471.426,146 472.785,144.575 472.785,142.818 C472.785,141.061 471.426,139.636 469.75,139.636 L453.967,139.636 C448.203,139.636 446.826,139.518 445.748,138.943 C444.606,138.333 443.678,137.359 443.096,136.162 C442.546,135.032 442.434,133.588 442.434,127.545 L442.434,94.455 C442.434,88.412 442.546,86.968 443.096,85.838 C443.678,84.641 444.606,83.667 445.748,83.057 C446.826,82.482 448.203,82.364 453.967,82.364 L473.392,82.364 C479.156,82.364 480.533,82.482 481.612,83.058 C482.753,83.667 483.682,84.641 484.264,85.838 C484.813,86.968 484.926,88.412 484.926,94.455 L484.926,103.045 C484.926,104.803 486.284,106.227 487.961,106.227 C489.637,106.227 490.996,104.803 490.996,103.045 Z M469.75,104.636 L451.539,104.636 C449.863,104.636 448.504,106.061 448.504,107.818 C448.504,109.575 449.863,111 451.539,111 L469.75,111 C471.426,111 472.785,109.575 472.785,107.818 C472.785,106.061 471.426,104.636 469.75,104.636 Z M457.609,117.364 L451.539,117.364 C449.863,117.364 448.504,118.788 448.504,120.545 C448.504,122.303 449.863,123.727 451.539,123.727 L457.609,123.727 C459.286,123.727 460.645,122.303 460.645,120.545 C460.645,118.788 459.286,117.364 457.609,117.364 Z M475.82,91.909 L451.539,91.909 C449.863,91.909 448.504,93.334 448.504,95.091 C448.504,96.848 449.863,98.273 451.539,98.273 L475.82,98.273 C477.496,98.273 478.855,96.848 478.855,95.091 C478.855,93.334 477.496,91.909 475.82,91.909 Z M480.2,121.61 C480.815,119.783 482.596,118.687 484.417,119.015 C486.237,119.342 487.568,120.998 487.566,122.935 C487.566,123.736 486.88,124.694 485.504,125.655 C484.486,126.366 483.433,126.856 482.814,127.072 C481.223,127.627 480.363,129.429 480.892,131.096 C481.422,132.763 483.14,133.665 484.731,133.11 C485.818,132.73 487.326,132.029 488.869,130.951 C491.761,128.932 493.636,126.313 493.636,122.938 C493.641,117.903 490.18,113.595 485.443,112.743 C480.707,111.891 476.074,114.742 474.475,119.494 C473.918,121.151 474.748,122.968 476.328,123.553 C477.909,124.137 479.643,123.267 480.2,121.61 Z M483.863,142.818 L483.894,142.818 C485.57,142.818 486.929,141.394 486.929,139.636 C486.929,137.879 485.57,136.455 483.894,136.455 L483.863,136.455 C482.187,136.455 480.828,137.879 480.828,139.636 C480.828,141.394 482.187,142.818 483.863,142.818 Z" />
        </g>
        <g id="Black-M" transform="translate(0,200)">
            <path d="M690.996,103.045 L690.996,94.455 C690.996,87.133 690.86,85.394 689.673,82.95 C688.509,80.554 686.651,78.607 684.367,77.387 C682.035,76.142 680.376,76 673.392,76 L653.967,76 C646.984,76 645.324,76.142 642.993,77.387 C640.708,78.607 638.851,80.554 637.687,82.949 C636.499,85.394 636.364,87.133 636.364,94.455 L636.364,127.545 C636.364,134.867 636.499,136.606 637.687,139.05 C638.851,141.446 640.708,143.393 642.992,144.613 C645.324,145.858 646.984,146 653.967,146 L669.75,146 C671.426,146 672.785,144.575 672.785,142.818 C672.785,141.061 671.426,139.636 669.75,139.636 L653.967,139.636 C648.203,139.636 646.826,139.518 645.748,138.943 C644.606,138.333 643.677,137.359 643.096,136.162 C642.546,135.032 642.434,133.588 642.434,127.545 L642.434,94.455 C642.434,88.412 642.546,86.968 643.096,85.838 C643.677,84.641 644.606,83.667 645.748,83.057 C646.826,82.482 648.203,82.364 653.967,82.364 L673.392,82.364 C679.156,82.364 680.533,82.482 681.612,83.058 C682.753,83.667 683.682,84.641 684.264,85.838 C684.813,86.968 684.926,88.412 684.926,94.455 L684.926,103.045 C684.926,104.803 686.284,106.227 687.961,106.227 C689.637,106.227 690.996,104.803 690.996,103.045 Z M669.75,104.636 L651.539,104.636 C649.863,104.636 648.504,106.061 648.504,107.818 C648.504,109.575 649.863,111 651.539,111 L669.75,111 C671.426,111 672.785,109.575 672.785,107.818 C672.785,106.061 671.426,104.636 669.75,104.636 Z M657.609,117.364 L651.539,117.364 C649.863,117.364 648.504,118.788 648.504,120.545 C648.504,122.303 649.863,123.727 651.539,123.727 L657.609,123.727 C659.286,123.727 660.645,122.303 660.645,120.545 C660.645,118.788 659.286,117.364 657.609,117.364 Z M675.82,91.909 L651.539,91.909 C649.863,91.909 648.504,93.334 648.504,95.091 C648.504,96.848 649.863,98.273 651.539,98.273 L675.82,98.273 C677.496,98.273 678.855,96.848 678.855,95.091 C678.855,93.334 677.496,91.909 675.82,91.909 Z M680.2,121.61 C680.815,119.783 682.596,118.687 684.417,119.015 C686.237,119.342 687.568,120.998 687.566,122.935 C687.566,123.736 686.88,124.694 685.504,125.655 C684.486,126.366 683.433,126.856 682.814,127.072 C681.223,127.627 680.363,129.429 680.892,131.096 C681.422,132.763 683.14,133.665 684.731,133.11 C685.818,132.73 687.326,132.029 688.869,130.951 C691.761,128.932 693.636,126.313 693.636,122.938 C693.641,117.903 690.18,113.595 685.443,112.743 C680.707,111.891 676.074,114.742 674.475,119.494 C673.918,121.151 674.748,122.968 676.328,123.553 C677.909,124.137 679.643,123.267 680.2,121.61 Z M683.863,142.818 L683.894,142.818 C685.57,142.818 686.929,141.394 686.929,139.636 C686.929,137.879 685.57,136.455 683.894,136.455 L683.863,136.455 C682.187,136.455 680.828,137.879 680.828,139.636 C680.828,141.394 682.187,142.818 683.863,142.818 Z" />
        </g>
    </g>
</svg>