<?xml version="1.0" encoding="UTF-8"?>
<svg height="600" width="800" xmlns="http://www.w3.org/2000/svg" xmlns:xlink="http://www.w3.org/1999/xlink">
    <g id="Notes" font-family="LucidaGrande, 'Lucida Grande', sans-serif" font-size="13">
        <rect fill="white" height="600.0" width="800.0" x="0.0" y="0.0" />
        <g font-size="13">
            <text x="18.0" y="176.0">Small</text>
            <text x="18.0" y="376.0">Medium</text>
            <text x="18.0" y="576.0">Large</text>
        </g>
        <g font-size="9">
            <text x="250.0" y="30.0">Ultralight</text>
            <text x="450.0" y="30.0">Regular</text>
            <text x="650.0" y="30.0">Black</text>
            <text id="template-version" fill="#505050" text-anchor="end" x="785.0" y="575.0">Template v.3.0</text>
            <a href="https://github.com/swhitty/SwiftDraw">
                <text fill="#505050" text-anchor="end" x="785.0" y="590.0">https://github.com/swhitty/SwiftDraw</text>
            </a>
        </g>
    </g>
    <g id="Guides" stroke="rgb(39, 170, 225)" stroke-width="0.5">
        <path id="Capline-S" d="M18,76 l800,0" />
        <path id="H-reference" d="M85,145.755 L87.685,145.755 L113.369,79.287 L114.052,79.287 L114.052,76 L112.148,76 L85,145.755 Z M95.693,121.536 L130.996,121.536 L130.263,119.313 L96.474,119.313 L95.693,121.536 Z M139.15,145.755 L141.787,145.755 L114.638,76 L113.466,76 L113.466,79.287 L139.15,145.755 Z" stroke="none" transform="translate(0,200)" />
        <path id="Baseline-S" d="M18,146 l800,0" />
        <path id="left-margin-Ultralight-M" d="M230,256 l0,110" />
        <path id="right-margin-Ultralight-M" d="M300,256 l0,110" />
        <path id="left-margin-Regular-M" d="M430,256 l0,110" />
        <path id="right-margin-Regular-M" d="M500,256 l0,110" />
        <path id="left-margin-Black-M" d="M630,256 l0,110" />
        <path id="right-margin-Black-M" d="M700,256 l0,110" />
        <path id="Capline-M" d="M18,276 l800,0" />
        <path id="Baseline-M" d="M18,346 l800,0" />
        <path id="Capline-L" d="M18,476 l800,0" />
        <path id="Baseline-L" d="M18,546 l800,0" />
    </g>
    <g id="Symbols">
        <g id="Ultralight-M" transform="translate(0,200)">
            <path d="M296.818,111 C296.818,128.573 282.573,142.818 265,142.818 C247.427,142.818 233.182,128.573 233.182,111 C233.182,93.427 247.427,79.182 265,79.182 C282.573,79.182 296.818,93.427 296.818,111 Z M277.727,103.045 C277.727,96.016 272.029,90.318 265,90.318 C257.971,90.318 252.273,96.016 252.273,103.045 C252.273,110.075 257.971,115.773 265,115.773 C272.029,115.773 277.727,110.075 277.727,103.045 Z M243.733,134.666 C255.828,145.535 274.172,145.535 286.267,134.666 C284.271,129.962 279.655,126.908 274.545,126.909 L255.455,126.909 C250.344,126.908 245.729,129.962 243.733,134.666 Z" />
            <path d="M293.636,111 C293.636,126.816 280.816,139.636 265,139.636 C249.184,139.636 236.364,126.816 236.364,111 C236.364,95.184 249.184,82.364 265,82.364 C280.816,82.364 293.636,95.184 293.636,111 Z M300,111 C300,91.67 284.33,76 265,76 C245.67,76 230,91.67 230,111 C230,130.33 245.67,146 265,146 C284.33,146 300,130.33 300,111 Z" />
        </g>
        <g id="Regular-M" transform="translate(0,200)">
            <path d="M496.818,111 C496.818,128.573 482.573,142.818 465,142.818 C447.427,142.818 433.182,128.573 433.182,111 C433.182,93.427 447.427,79.182 465,79.182 C482.573,79.182 496.818,93.427 496.818,111 Z M477.727,103.045 C477.727,96.016 472.029,90.318 465,90.318 C457.971,90.318 452.273,96.016 452.273,103.045 C452.273,110.075 457.971,115.773 465,115.773 C472.029,115.773 477.727,110.075 477.727,103.045 Z M443.733,134.666 C455.828,145.535 474.172,145.535 486.267,134.666 C484.271,129.962 479.655,126.908 474.545,126.909 L455.455,126.909 C450.345,126.908 445.729,129.962 443.733,134.666 Z" />
            <path d="M493.636,111 C493.636,126.816 480.816,139.636 465,139.636 C449.184,139.636 436.364,126.816 436.364,111 C436.364,95.184 449.184,82.364 465,82.364 C480.816,82.364 493.636,95.184 493.636,111 Z M500,111 C500,91.67 484.33,76 465,76 C445.67,76 430,91.67 430,111 C430,130.33 445.67,146 465,146 C484.33,146 500,130.33 500,111 Z" />
        </g>
        <g id="Black-M" transform="translate(0,200)">
            <path d="M696.818,111 C696.818,128.573 682.573,142.818 665,142.818 C647.427,142.818 633.182,128.573 633.182,111 C633.182,93.427 647.427,79.182 665,79.182 C682.573,79.182 696.818,93.427 696.818,111 Z M677.727,103.045 C677.727,96.016 672.029,90.318 665,90.318 C657.971,90.318 652.273,96.016 652.273,103.045 C652.273,110.075 657.971,115.773 665,115.773 C672.029,115.773 677.727,110.075 677.727,103.045 Z M643.733,134.666 C655.828,145.535 674.172,145.535 686.267,134.666 C684.271,129.962 679.656,126.908 674.545,126.909 L655.455,126.909 C650.344,126.908 645.729,129.962 643.733,134.666 Z" />
            <path d="M693.636,111 C693.636,126.816 680.816,139.636 665,139.636 C649.184,139.636 636.364,126.816 636.364,111 C636.364,95.184 649.184,82.364 665,82.364 C680.816,82.364 693.636,95.184 693.636,111 Z M700,111 C700,91.67 684.33,76 665,76 C645.67,76 630,91.67 630,111 C630,130.33 645.67,146 665,146 C684.33,146 700,130.33 700,111 Z" />
        </g>
    </g>
</svg>