<?xml version="1.0" encoding="UTF-8"?>
<svg height="600" width="800" xmlns="http://www.w3.org/2000/svg" xmlns:xlink="http://www.w3.org/1999/xlink">
    <g id="Notes" font-family="LucidaGrande, 'Lucida Grande', sans-serif" font-size="13">
        <rect fill="white" height="600.0" width="800.0" x="0.0" y="0.0" />
        <g font-size="13">
            <text x="18.0" y="176.0">Small</text>
            <text x="18.0" y="376.0">Medium</text>
            <text x="18.0" y="576.0">Large</text>
        </g>
        <g font-size="9">
            <text x="250.0" y="30.0">Ultralight</text>
            <text x="450.0" y="30.0">Regular</text>
            <text x="650.0" y="30.0">Black</text>
            <text id="template-version" fill="#505050" text-anchor="end" x="785.0" y="575.0">Template v.3.0</text>
            <a href="https://github.com/swhitty/SwiftDraw">
                <text fill="#505050" text-anchor="end" x="785.0" y="590.0">https://github.com/swhitty/SwiftDraw</text>
            </a>
        </g>
    </g>
    <g id="Guides" stroke="rgb(39, 170, 225)" stroke-width="0.5">
        <path id="Capline-S" d="M18,76 l800,0" />
        <path id="H-reference" d="M85,145.755 L87.685,145.755 L113.369,79.287 L114.052,79.287 L114.052,76 L112.148,76 L85,145.755 Z M95.693,121.536 L130.996,121.536 L130.263,119.313 L96.474,119.313 L95.693,121.536 Z M139.15,145.755 L141.787,145.755 L114.638,76 L113.466,76 L113.466,79.287 L139.15,145.755 Z" stroke="none" transform="translate(0,200)" />
        <path id="Baseline-S" d="M18,146 l800,0" />
        <path id="left-margin-Ultralight-M" d="M230,256 l0,110" />
        <path id="right-margin-Ultralight-M" d="M300,256 l0,110" />
        <path id="left-margin-Regular-M" d="M430,256 l0,110" />
        <path id="right-margin-Regular-M" d="M500,256 l0,110" />
        <path id="left-margin-Black-M" d="M630,256 l0,110" />
        <path id="right-margin-Black-M" d="M700,256 l0,110" />
        <path id="Capline-M" d="M18,276 l800,0" />
        <path id="Baseline-M" d="M18,346 l800,0" />
        <path id="Capline-L" d="M18,476 l800,0" />
        <path id="Baseline-L" d="M18,546 l800,0" />
    </g>
    <g id="Symbols">
        <g id="Ultralight-M" transform="translate(0,200)">
            <path d="M290.455,88.727 C290.455,91.295 279.066,95.091 265,95.091 C250.934,95.091 239.545,91.295 239.545,88.727 C239.545,86.97 238.121,85.545 236.364,85.545 C234.606,85.545 233.182,86.97 233.182,88.727 C233.182,96.703 247.436,101.455 265,101.455 C282.564,101.455 296.818,96.703 296.818,88.727 C296.818,86.97 295.394,85.545 293.636,85.545 C291.879,85.545 290.455,86.97 290.455,88.727 Z M296.818,88.727 C296.818,80.751 282.564,76 265,76 C247.436,76 233.182,80.751 233.182,88.727 C233.182,90.485 234.606,91.909 236.364,91.909 C238.121,91.909 239.545,90.485 239.545,88.727 C239.545,86.16 250.934,82.364 265,82.364 C279.066,82.364 290.455,86.16 290.455,88.727 C290.455,90.485 291.879,91.909 293.636,91.909 C295.394,91.909 296.818,90.485 296.818,88.727 Z M290.455,88.727 L290.455,133.273 C290.455,135.859 279.139,139.636 265,139.636 C250.861,139.636 239.545,135.859 239.545,133.273 L239.545,88.727 C239.545,86.97 238.121,85.545 236.364,85.545 C234.606,85.545 233.182,86.97 233.182,88.727 L233.182,133.273 C233.182,141.265 247.365,146 265,146 C282.635,146 296.818,141.265 296.818,133.273 L296.818,88.727 C296.818,86.97 295.394,85.545 293.636,85.545 C291.879,85.545 290.455,86.97 290.455,88.727 Z M290.455,111 C290.455,113.586 279.139,117.364 265,117.364 C250.861,117.364 239.545,113.586 239.545,111 C239.545,109.243 238.121,107.818 236.364,107.818 C234.606,107.818 233.182,109.243 233.182,111 C233.182,118.992 247.365,123.727 265,123.727 C282.635,123.727 296.818,118.992 296.818,111 C296.818,109.243 295.394,107.818 293.636,107.818 C291.879,107.818 290.455,109.243 290.455,111 Z" />
        </g>
        <g id="Regular-M" transform="translate(0,200)">
            <path d="M490.455,88.727 C490.455,91.295 479.066,95.091 465,95.091 C450.934,95.091 439.545,91.295 439.545,88.727 C439.545,86.97 438.121,85.545 436.364,85.545 C434.606,85.545 433.182,86.97 433.182,88.727 C433.182,96.703 447.436,101.455 465,101.455 C482.564,101.455 496.818,96.703 496.818,88.727 C496.818,86.97 495.394,85.545 493.636,85.545 C491.879,85.545 490.455,86.97 490.455,88.727 Z M496.818,88.727 C496.818,80.751 482.564,76 465,76 C447.436,76 433.182,80.751 433.182,88.727 C433.182,90.485 434.606,91.909 436.364,91.909 C438.121,91.909 439.545,90.485 439.545,88.727 C439.545,86.16 450.934,82.364 465,82.364 C479.066,82.364 490.455,86.16 490.455,88.727 C490.455,90.485 491.879,91.909 493.636,91.909 C495.394,91.909 496.818,90.485 496.818,88.727 Z M490.455,88.727 L490.455,133.273 C490.455,135.859 479.139,139.636 465,139.636 C450.861,139.636 439.545,135.859 439.545,133.273 L439.545,88.727 C439.545,86.97 438.121,85.545 436.364,85.545 C434.606,85.545 433.182,86.97 433.182,88.727 L433.182,133.273 C433.182,141.265 447.365,146 465,146 C482.635,146 496.818,141.265 496.818,133.273 L496.818,88.727 C496.818,86.97 495.394,85.545 493.636,85.545 C491.879,85.545 490.455,86.97 490.455,88.727 Z M490.455,111 C490.455,113.586 479.139,117.364 465,117.364 C450.861,117.364 439.545,113.586 439.545,111 C439.545,109.243 438.121,107.818 436.364,107.818 C434.606,107.818 433.182,109.243 433.182,111 C433.182,118.992 447.365,123.727 465,123.727 C482.635,123.727 496.818,118.992 496.818,111 C496.818,109.243 495.394,107.818 493.636,107.818 C491.879,107.818 490.455,109.243 490.455,111 Z" />
        </g>
        <g id="Black-M" transform="translate(0,200)">
            <path d="M690.455,88.727 C690.455,91.295 679.066,95.091 665,95.091 C650.934,95.091 639.545,91.295 639.545,88.727 C639.545,86.97 638.121,85.545 636.364,85.545 C634.606,85.545 633.182,86.97 633.182,88.727 C633.182,96.703 647.436,101.455 665,101.455 C682.564,101.455 696.818,96.703 696.818,88.727 C696.818,86.97 695.394,85.545 693.636,85.545 C691.879,85.545 690.455,86.97 690.455,88.727 Z M696.818,88.727 C696.818,80.751 682.564,76 665,76 C647.436,76 633.182,80.751 633.182,88.727 C633.182,90.485 634.606,91.909 636.364,91.909 C638.121,91.909 639.545,90.485 639.545,88.727 C639.545,86.16 650.934,82.364 665,82.364 C679.066,82.364 690.455,86.16 690.455,88.727 C690.455,90.485 691.879,91.909 693.636,91.909 C695.394,91.909 696.818,90.485 696.818,88.727 Z M690.455,88.727 L690.455,133.273 C690.455,135.859 679.139,139.636 665,139.636 C650.861,139.636 639.545,135.859 639.545,133.273 L639.545,88.727 C639.545,86.97 638.121,85.545 636.364,85.545 C634.606,85.545 633.182,86.97 633.182,88.727 L633.182,133.273 C633.182,141.265 647.365,146 665,146 C682.635,146 696.818,141.265 696.818,133.273 L696.818,88.727 C696.818,86.97 695.394,85.545 693.636,85.545 C691.879,85.545 690.455,86.97 690.455,88.727 Z M690.455,111 C690.455,113.586 679.139,117.364 665,117.364 C650.861,117.364 639.545,113.586 639.545,111 C639.545,109.243 638.121,107.818 636.364,107.818 C634.606,107.818 633.182,109.243 633.182,111 C633.182,118.992 647.365,123.727 665,123.727 C682.635,123.727 696.818,118.992 696.818,111 C696.818,109.243 695.394,107.818 693.636,107.818 C691.879,107.818 690.455,109.243 690.455,111 Z" />
        </g>
    </g>
</svg>