<?xml version="1.0" encoding="UTF-8"?>
<svg height="600" width="800" xmlns="http://www.w3.org/2000/svg" xmlns:xlink="http://www.w3.org/1999/xlink">
    <g id="Notes" font-family="LucidaGrande, 'Lucida Grande', sans-serif" font-size="13">
        <rect fill="white" height="600.0" width="800.0" x="0.0" y="0.0" />
        <g font-size="13">
            <text x="18.0" y="176.0">Small</text>
            <text x="18.0" y="376.0">Medium</text>
            <text x="18.0" y="576.0">Large</text>
        </g>
        <g font-size="9">
            <text x="250.0" y="30.0">Ultralight</text>
            <text x="450.0" y="30.0">Regular</text>
            <text x="650.0" y="30.0">Black</text>
            <text id="template-version" fill="#505050" text-anchor="end" x="785.0" y="575.0">Template v.3.0</text>
            <a href="https://github.com/swhitty/SwiftDraw">
                <text fill="#505050" text-anchor="end" x="785.0" y="590.0">https://github.com/swhitty/SwiftDraw</text>
            </a>
        </g>
    </g>
    <g id="Guides" stroke="rgb(39, 170, 225)" stroke-width="0.5">
        <path id="Capline-S" d="M18,76 l800,0" />
        <path id="H-reference" d="M85,145.755 L87.685,145.755 L113.369,79.287 L114.052,79.287 L114.052,76 L112.148,76 L85,145.755 Z M95.693,121.536 L130.996,121.536 L130.263,119.313 L96.474,119.313 L95.693,121.536 Z M139.15,145.755 L141.787,145.755 L114.638,76 L113.466,76 L113.466,79.287 L139.15,145.755 Z" stroke="none" transform="translate(0,200)" />
        <path id="Baseline-S" d="M18,146 l800,0" />
        <path id="left-margin-Ultralight-M" d="M230,256 l0,110" />
        <path id="right-margin-Ultralight-M" d="M300,256 l0,110" />
        <path id="left-margin-Regular-M" d="M430,256 l0,110" />
        <path id="right-margin-Regular-M" d="M500,256 l0,110" />
        <path id="left-margin-Black-M" d="M630,256 l0,110" />
        <path id="right-margin-Black-M" d="M700,256 l0,110" />
        <path id="Capline-M" d="M18,276 l800,0" />
        <path id="Baseline-M" d="M18,346 l800,0" />
        <path id="Capline-L" d="M18,476 l800,0" />
        <path id="Baseline-L" d="M18,546 l800,0" />
    </g>
    <g id="Symbols">
        <g id="Ultralight-M" transform="translate(0,200)">
            <path d="M294.432,124.523 L294.432,118.955 C294.432,114.122 290.514,110.205 285.682,110.205 C280.849,110.205 276.932,114.122 276.932,118.955 L276.932,124.523 C276.932,126.28 278.356,127.705 280.114,127.705 C281.871,127.705 283.295,126.28 283.295,124.523 L283.295,118.955 C283.295,117.637 284.364,116.568 285.682,116.568 C287,116.568 288.068,117.637 288.068,118.955 L288.068,124.523 C288.068,126.28 289.493,127.705 291.25,127.705 C293.007,127.705 294.432,126.28 294.432,124.523 Z M296.818,97.477 L233.182,97.477 C231.425,97.477 230,98.902 230,100.659 C230,102.416 231.425,103.841 233.182,103.841 L296.818,103.841 C298.575,103.841 300,102.416 300,100.659 C300,98.902 298.575,97.477 296.818,97.477 Z M300,103.841 L300,94.932 C300,89.838 299.901,88.629 298.96,86.78 C298.044,84.984 296.584,83.524 294.788,82.609 C292.939,81.667 291.73,81.568 286.636,81.568 L243.364,81.568 C238.27,81.568 237.061,81.667 235.212,82.608 C233.416,83.524 231.956,84.984 231.04,86.78 C230.099,88.629 230,89.838 230,94.932 L230,119.114 C230,124.207 230.099,125.417 231.04,127.265 C231.956,129.061 233.416,130.522 235.212,131.437 C237.061,132.378 238.27,132.477 243.364,132.477 L261.818,132.477 C263.575,132.477 265,131.053 265,129.295 C265,127.538 263.575,126.114 261.818,126.114 L243.364,126.114 C239.548,126.114 238.635,126.039 238.1,125.767 C237.502,125.462 237.016,124.975 236.71,124.376 C236.438,123.842 236.364,122.929 236.364,119.114 L236.364,94.932 C236.364,91.117 236.438,90.204 236.711,89.669 C237.016,89.07 237.502,88.584 238.101,88.279 C238.635,88.006 239.548,87.932 243.364,87.932 L286.636,87.932 C290.452,87.932 291.365,88.006 291.9,88.279 C292.498,88.584 292.984,89.07 293.29,89.669 C293.562,90.204 293.636,91.117 293.636,94.932 L293.636,103.841 C293.636,105.598 295.061,107.023 296.818,107.023 C298.575,107.023 300,105.598 300,103.841 Z M279.636,140.432 L291.727,140.432 C294.594,140.432 295.273,140.376 296.525,139.738 C297.723,139.128 298.696,138.155 299.306,136.957 C299.945,135.704 300,135.026 300,132.159 L300,129.614 C300,126.747 299.945,126.068 299.307,124.816 C298.696,123.618 297.723,122.645 296.525,122.035 C295.273,121.396 294.594,121.341 291.727,121.341 L279.636,121.341 C276.77,121.341 276.091,121.396 274.839,122.034 C273.641,122.645 272.667,123.618 272.057,124.815 C271.419,126.068 271.364,126.747 271.364,129.614 L271.364,132.159 C271.364,135.026 271.419,135.704 272.057,136.957 C272.667,138.155 273.641,139.128 274.838,139.738 C276.091,140.376 276.77,140.432 279.636,140.432 Z M279.636,134.068 C278.048,134.068 277.666,134.037 277.727,134.068 C277.727,134.068 277.727,134.068 277.727,134.068 C277.759,134.13 277.727,133.747 277.727,132.159 L277.727,129.614 C277.727,128.026 277.759,127.643 277.728,127.704 C277.727,127.705 277.727,127.705 277.727,127.705 C277.666,127.736 278.048,127.705 279.636,127.705 L291.727,127.705 C293.315,127.705 293.698,127.736 293.637,127.705 C293.636,127.705 293.636,127.705 293.636,127.705 C293.605,127.643 293.636,128.026 293.636,129.614 L293.636,132.159 C293.636,133.747 293.605,134.13 293.636,134.069 C293.636,134.068 293.636,134.068 293.636,134.068 C293.698,134.037 293.315,134.068 291.727,134.068 L279.636,134.068 Z" />
        </g>
        <g id="Regular-M" transform="translate(0,200)">
            <path d="M494.432,124.523 L494.432,118.955 C494.432,114.122 490.514,110.205 485.682,110.205 C480.849,110.205 476.932,114.122 476.932,118.955 L476.932,124.523 C476.932,126.28 478.356,127.705 480.114,127.705 C481.871,127.705 483.295,126.28 483.295,124.523 L483.295,118.955 C483.295,117.637 484.364,116.568 485.682,116.568 C487,116.568 488.068,117.637 488.068,118.955 L488.068,124.523 C488.068,126.28 489.493,127.705 491.25,127.705 C493.007,127.705 494.432,126.28 494.432,124.523 Z M496.818,97.477 L433.182,97.477 C431.425,97.477 430,98.902 430,100.659 C430,102.416 431.425,103.841 433.182,103.841 L496.818,103.841 C498.575,103.841 500,102.416 500,100.659 C500,98.902 498.575,97.477 496.818,97.477 Z M500,103.841 L500,94.932 C500,89.838 499.901,88.629 498.96,86.78 C498.044,84.984 496.584,83.524 494.788,82.609 C492.939,81.667 491.73,81.568 486.636,81.568 L443.364,81.568 C438.27,81.568 437.061,81.667 435.212,82.608 C433.416,83.524 431.956,84.984 431.04,86.78 C430.099,88.629 430,89.838 430,94.932 L430,119.114 C430,124.207 430.099,125.417 431.04,127.265 C431.956,129.061 433.416,130.522 435.212,131.437 C437.061,132.378 438.27,132.477 443.364,132.477 L461.818,132.477 C463.575,132.477 465,131.053 465,129.295 C465,127.538 463.575,126.114 461.818,126.114 L443.364,126.114 C439.548,126.114 438.635,126.039 438.1,125.767 C437.502,125.462 437.016,124.975 436.71,124.376 C436.438,123.842 436.364,122.929 436.364,119.114 L436.364,94.932 C436.364,91.117 436.438,90.204 436.711,89.669 C437.016,89.07 437.502,88.584 438.101,88.279 C438.635,88.006 439.548,87.932 443.364,87.932 L486.636,87.932 C490.452,87.932 491.365,88.006 491.9,88.279 C492.498,88.584 492.984,89.07 493.29,89.669 C493.562,90.204 493.636,91.117 493.636,94.932 L493.636,103.841 C493.636,105.598 495.061,107.023 496.818,107.023 C498.575,107.023 500,105.598 500,103.841 Z M479.636,140.432 L491.727,140.432 C494.594,140.432 495.273,140.376 496.525,139.738 C497.723,139.128 498.696,138.155 499.306,136.957 C499.945,135.704 500,135.026 500,132.159 L500,129.614 C500,126.747 499.945,126.068 499.307,124.816 C498.696,123.618 497.723,122.645 496.525,122.035 C495.273,121.396 494.594,121.341 491.727,121.341 L479.636,121.341 C476.77,121.341 476.091,121.396 474.839,122.034 C473.641,122.645 472.667,123.618 472.057,124.815 C471.419,126.068 471.364,126.747 471.364,129.614 L471.364,132.159 C471.364,135.026 471.419,135.704 472.057,136.957 C472.667,138.155 473.641,139.128 474.838,139.738 C476.091,140.376 476.77,140.432 479.636,140.432 Z M479.636,134.068 C478.048,134.068 477.666,134.037 477.727,134.068 C477.727,134.068 477.727,134.068 477.727,134.068 C477.759,134.13 477.727,133.747 477.727,132.159 L477.727,129.614 C477.727,128.026 477.759,127.643 477.728,127.704 C477.727,127.705 477.727,127.705 477.727,127.705 C477.666,127.736 478.048,127.705 479.636,127.705 L491.727,127.705 C493.315,127.705 493.698,127.736 493.637,127.705 C493.636,127.705 493.636,127.705 493.636,127.705 C493.605,127.643 493.636,128.026 493.636,129.614 L493.636,132.159 C493.636,133.747 493.605,134.13 493.636,134.069 C493.636,134.068 493.636,134.068 493.636,134.068 C493.698,134.037 493.315,134.068 491.727,134.068 L479.636,134.068 Z" />
        </g>
        <g id="Black-M" transform="translate(0,200)">
            <path d="M694.432,124.523 L694.432,118.955 C694.432,114.122 690.514,110.205 685.682,110.205 C680.849,110.205 676.932,114.122 676.932,118.955 L676.932,124.523 C676.932,126.28 678.356,127.705 680.114,127.705 C681.871,127.705 683.295,126.28 683.295,124.523 L683.295,118.955 C683.295,117.637 684.364,116.568 685.682,116.568 C687,116.568 688.068,117.637 688.068,118.955 L688.068,124.523 C688.068,126.28 689.493,127.705 691.25,127.705 C693.007,127.705 694.432,126.28 694.432,124.523 Z M696.818,97.477 L633.182,97.477 C631.425,97.477 630,98.902 630,100.659 C630,102.416 631.425,103.841 633.182,103.841 L696.818,103.841 C698.575,103.841 700,102.416 700,100.659 C700,98.902 698.575,97.477 696.818,97.477 Z M700,103.841 L700,94.932 C700,89.838 699.901,88.629 698.96,86.78 C698.044,84.984 696.584,83.524 694.788,82.609 C692.939,81.667 691.73,81.568 686.636,81.568 L643.364,81.568 C638.27,81.568 637.061,81.667 635.212,82.608 C633.416,83.524 631.956,84.984 631.04,86.78 C630.099,88.629 630,89.838 630,94.932 L630,119.114 C630,124.207 630.099,125.417 631.04,127.265 C631.956,129.061 633.416,130.522 635.212,131.437 C637.061,132.378 638.27,132.477 643.364,132.477 L661.818,132.477 C663.575,132.477 665,131.053 665,129.295 C665,127.538 663.575,126.114 661.818,126.114 L643.364,126.114 C639.548,126.114 638.635,126.039 638.1,125.767 C637.502,125.462 637.016,124.975 636.71,124.376 C636.438,123.842 636.364,122.929 636.364,119.114 L636.364,94.932 C636.364,91.117 636.438,90.204 636.711,89.669 C637.016,89.07 637.502,88.584 638.101,88.279 C638.635,88.006 639.548,87.932 643.364,87.932 L686.636,87.932 C690.452,87.932 691.365,88.006 691.9,88.279 C692.498,88.584 692.984,89.07 693.29,89.669 C693.562,90.204 693.636,91.117 693.636,94.932 L693.636,103.841 C693.636,105.598 695.061,107.023 696.818,107.023 C698.575,107.023 700,105.598 700,103.841 Z M679.636,140.432 L691.727,140.432 C694.594,140.432 695.273,140.376 696.525,139.738 C697.723,139.128 698.696,138.155 699.306,136.957 C699.945,135.704 700,135.026 700,132.159 L700,129.614 C700,126.747 699.945,126.068 699.307,124.816 C698.696,123.618 697.723,122.645 696.525,122.035 C695.273,121.396 694.594,121.341 691.727,121.341 L679.636,121.341 C676.77,121.341 676.091,121.396 674.839,122.034 C673.641,122.645 672.667,123.618 672.057,124.815 C671.419,126.068 671.364,126.747 671.364,129.614 L671.364,132.159 C671.364,135.026 671.419,135.704 672.057,136.957 C672.667,138.155 673.641,139.128 674.838,139.738 C676.091,140.376 676.77,140.432 679.636,140.432 Z M679.636,134.068 C678.048,134.068 677.666,134.037 677.727,134.068 C677.727,134.068 677.727,134.068 677.727,134.068 C677.759,134.13 677.727,133.747 677.727,132.159 L677.727,129.614 C677.727,128.026 677.759,127.643 677.727,127.704 C677.727,127.705 677.727,127.705 677.727,127.705 C677.666,127.736 678.048,127.705 679.636,127.705 L691.727,127.705 C693.315,127.705 693.698,127.736 693.637,127.705 C693.636,127.705 693.636,127.705 693.636,127.705 C693.605,127.643 693.636,128.026 693.636,129.614 L693.636,132.159 C693.636,133.747 693.605,134.13 693.636,134.069 C693.636,134.068 693.636,134.068 693.636,134.068 C693.698,134.037 693.315,134.068 691.727,134.068 L679.636,134.068 Z" />
        </g>
    </g>
</svg>