<?xml version="1.0" encoding="UTF-8"?>
<svg height="600" width="800" xmlns="http://www.w3.org/2000/svg" xmlns:xlink="http://www.w3.org/1999/xlink">
    <g id="Notes" font-family="LucidaGrande, 'Lucida Grande', sans-serif" font-size="13">
        <rect fill="white" height="600.0" width="800.0" x="0.0" y="0.0" />
        <g font-size="13">
            <text x="18.0" y="176.0">Small</text>
            <text x="18.0" y="376.0">Medium</text>
            <text x="18.0" y="576.0">Large</text>
        </g>
        <g font-size="9">
            <text x="250.0" y="30.0">Ultralight</text>
            <text x="450.0" y="30.0">Regular</text>
            <text x="650.0" y="30.0">Black</text>
            <text id="template-version" fill="#505050" text-anchor="end" x="785.0" y="575.0">Template v.3.0</text>
            <a href="https://github.com/swhitty/SwiftDraw">
                <text fill="#505050" text-anchor="end" x="785.0" y="590.0">https://github.com/swhitty/SwiftDraw</text>
            </a>
        </g>
    </g>
    <g id="Guides" stroke="rgb(39, 170, 225)" stroke-width="0.5">
        <path id="Capline-S" d="M18,76 l800,0" />
        <path id="H-reference" d="M85,145.755 L87.685,145.755 L113.369,79.287 L114.052,79.287 L114.052,76 L112.148,76 L85,145.755 Z M95.693,121.536 L130.996,121.536 L130.263,119.313 L96.474,119.313 L95.693,121.536 Z M139.15,145.755 L141.787,145.755 L114.638,76 L113.466,76 L113.466,79.287 L139.15,145.755 Z" stroke="none" transform="translate(0,200)" />
        <path id="Baseline-S" d="M18,146 l800,0" />
        <path id="left-margin-Ultralight-M" d="M221,256 l0,110" />
        <path id="right-margin-Ultralight-M" d="M309,256 l0,110" />
        <path id="left-margin-Regular-M" d="M421,256 l0,110" />
        <path id="right-margin-Regular-M" d="M509,256 l0,110" />
        <path id="left-margin-Black-M" d="M621,256 l0,110" />
        <path id="right-margin-Black-M" d="M709,256 l0,110" />
        <path id="Capline-M" d="M18,276 l800,0" />
        <path id="Baseline-M" d="M18,346 l800,0" />
        <path id="Capline-L" d="M18,476 l800,0" />
        <path id="Baseline-L" d="M18,546 l800,0" />
    </g>
    <g id="Symbols">
        <g id="Ultralight-M" transform="translate(0,200)">
            <path d="M267.316,88.467 L267.316,98.032 C267.316,100.118 267.356,100.612 267.82,101.523 C268.265,102.395 268.973,103.104 269.845,103.548 C270.752,104.014 271.247,104.055 273.337,104.055 L282.901,104.055 C284.18,104.055 285.217,103.018 285.217,101.739 C285.217,100.46 284.18,99.423 282.901,99.423 L273.337,99.423 C272.184,99.423 271.908,99.401 271.955,99.425 C271.947,99.421 271.947,99.421 271.947,99.421 C271.97,99.466 271.947,99.187 271.947,98.032 L271.947,88.467 C271.947,87.188 270.911,86.152 269.632,86.152 C268.353,86.152 267.316,87.188 267.316,88.467 Z M262.207,111.769 C262.673,110.437 264.033,109.636 265.424,109.874 C266.815,110.113 267.83,111.322 267.825,112.733 C267.825,113.322 267.302,114.02 266.252,114.719 C265.475,115.236 264.672,115.593 264.199,115.75 C262.986,116.154 262.329,117.465 262.733,118.679 C263.137,119.892 264.448,120.549 265.662,120.145 C266.492,119.868 267.642,119.358 268.819,118.574 C271.026,117.104 272.457,115.198 272.457,112.741 C272.47,109.076 269.828,105.931 266.207,105.31 C262.587,104.688 259.047,106.773 257.835,110.24 C257.413,111.448 258.049,112.768 259.257,113.191 C260.464,113.613 261.785,112.976 262.207,111.769 Z M265,127.211 L265.023,127.211 C266.302,127.211 267.339,126.174 267.339,124.895 C267.339,123.616 266.302,122.579 265.023,122.579 L265,122.579 C263.721,122.579 262.684,123.616 262.684,124.895 C262.684,126.174 263.721,127.211 265,127.211 Z M269.632,85.526 L257.589,85.526 C252.261,85.526 250.995,85.63 249.216,86.536 C247.473,87.424 246.056,88.841 245.168,90.584 C244.261,92.363 244.158,93.629 244.158,98.958 L244.158,123.042 C244.158,128.371 244.261,129.637 245.167,131.416 C246.056,133.159 247.473,134.576 249.216,135.464 C250.995,136.37 252.261,136.474 257.589,136.474 L272.411,136.474 C277.739,136.474 279.005,136.37 280.784,135.464 C282.527,134.576 283.944,133.159 284.832,131.416 C285.739,129.637 285.842,128.371 285.842,123.042 L285.842,101.737 C285.842,101.123 285.598,100.534 285.164,100.099 L271.269,86.205 C270.835,85.77 270.246,85.526 269.632,85.526 Z M269.632,90.158 L267.994,89.48 L281.889,103.374 L281.211,101.737 L281.211,123.042 C281.211,127.44 281.125,128.491 280.706,129.314 C280.262,130.185 279.553,130.893 278.682,131.337 C277.859,131.756 276.808,131.842 272.411,131.842 L257.589,131.842 C253.192,131.842 252.141,131.756 251.318,131.337 C250.447,130.893 249.738,130.185 249.294,129.313 C248.875,128.491 248.789,127.44 248.789,123.042 L248.789,98.958 C248.789,94.56 248.875,93.509 249.294,92.686 C249.738,91.815 250.447,91.107 251.318,90.663 C252.141,90.244 253.192,90.158 257.589,90.158 L269.632,90.158 Z" />
        </g>
        <g id="Regular-M" transform="translate(0,200)">
            <path d="M467.316,88.467 L467.316,98.032 C467.316,100.118 467.356,100.612 467.82,101.523 C468.265,102.395 468.973,103.104 469.845,103.548 C470.752,104.014 471.247,104.055 473.337,104.055 L482.901,104.055 C484.18,104.055 485.217,103.018 485.217,101.739 C485.217,100.46 484.18,99.423 482.901,99.423 L473.337,99.423 C472.184,99.423 471.908,99.401 471.955,99.425 C471.947,99.421 471.947,99.421 471.947,99.421 C471.97,99.466 471.947,99.187 471.947,98.032 L471.947,88.467 C471.947,87.188 470.911,86.152 469.632,86.152 C468.353,86.152 467.316,87.188 467.316,88.467 Z M462.207,111.769 C462.673,110.437 464.033,109.636 465.424,109.874 C466.815,110.113 467.83,111.322 467.825,112.733 C467.825,113.322 467.302,114.02 466.252,114.719 C465.475,115.236 464.672,115.593 464.199,115.75 C462.986,116.154 462.329,117.465 462.733,118.679 C463.137,119.892 464.448,120.549 465.662,120.145 C466.492,119.868 467.642,119.358 468.819,118.574 C471.026,117.104 472.457,115.198 472.457,112.741 C472.47,109.076 469.828,105.931 466.207,105.31 C462.587,104.688 459.047,106.773 457.835,110.24 C457.413,111.448 458.049,112.768 459.257,113.191 C460.464,113.613 461.785,112.976 462.207,111.769 Z M465,127.211 L465.023,127.211 C466.302,127.211 467.339,126.174 467.339,124.895 C467.339,123.616 466.302,122.579 465.023,122.579 L465,122.579 C463.721,122.579 462.684,123.616 462.684,124.895 C462.684,126.174 463.721,127.211 465,127.211 Z M469.632,85.526 L457.589,85.526 C452.261,85.526 450.995,85.63 449.216,86.536 C447.473,87.424 446.056,88.841 445.168,90.584 C444.261,92.363 444.158,93.629 444.158,98.958 L444.158,123.042 C444.158,128.371 444.261,129.637 445.167,131.416 C446.056,133.159 447.473,134.576 449.216,135.464 C450.995,136.37 452.261,136.474 457.589,136.474 L472.411,136.474 C477.739,136.474 479.005,136.37 480.784,135.464 C482.527,134.576 483.944,133.159 484.832,131.416 C485.739,129.637 485.842,128.371 485.842,123.042 L485.842,101.737 C485.842,101.123 485.598,100.534 485.164,100.099 L471.269,86.205 C470.835,85.77 470.246,85.526 469.632,85.526 Z M469.632,90.158 L467.994,89.48 L481.889,103.374 L481.211,101.737 L481.211,123.042 C481.211,127.44 481.125,128.491 480.706,129.314 C480.262,130.185 479.553,130.893 478.682,131.337 C477.859,131.756 476.808,131.842 472.411,131.842 L457.589,131.842 C453.192,131.842 452.141,131.756 451.318,131.337 C450.447,130.893 449.738,130.185 449.294,129.313 C448.875,128.491 448.789,127.44 448.789,123.042 L448.789,98.958 C448.789,94.56 448.875,93.509 449.294,92.686 C449.738,91.815 450.447,91.107 451.318,90.663 C452.141,90.244 453.192,90.158 457.589,90.158 L469.632,90.158 Z" />
        </g>
        <g id="Black-M" transform="translate(0,200)">
            <path d="M667.316,88.467 L667.316,98.032 C667.316,100.118 667.356,100.612 667.82,101.523 C668.265,102.395 668.973,103.104 669.845,103.548 C670.752,104.014 671.247,104.055 673.337,104.055 L682.901,104.055 C684.18,104.055 685.217,103.018 685.217,101.739 C685.217,100.46 684.18,99.423 682.901,99.423 L673.337,99.423 C672.184,99.423 671.908,99.401 671.955,99.425 C671.947,99.421 671.947,99.421 671.947,99.421 C671.97,99.466 671.947,99.187 671.947,98.032 L671.947,88.467 C671.947,87.188 670.911,86.152 669.632,86.152 C668.353,86.152 667.316,87.188 667.316,88.467 Z M662.207,111.769 C662.673,110.437 664.033,109.636 665.424,109.874 C666.815,110.113 667.83,111.322 667.825,112.733 C667.825,113.322 667.302,114.02 666.252,114.719 C665.475,115.236 664.672,115.593 664.199,115.75 C662.986,116.154 662.329,117.465 662.733,118.679 C663.137,119.892 664.448,120.549 665.662,120.145 C666.492,119.868 667.642,119.358 668.819,118.574 C671.026,117.104 672.457,115.198 672.457,112.741 C672.47,109.076 669.828,105.931 666.207,105.31 C662.587,104.688 659.047,106.773 657.835,110.24 C657.413,111.448 658.049,112.768 659.257,113.191 C660.464,113.613 661.785,112.976 662.207,111.769 Z M665,127.211 L665.023,127.211 C666.302,127.211 667.339,126.174 667.339,124.895 C667.339,123.616 666.302,122.579 665.023,122.579 L665,122.579 C663.721,122.579 662.684,123.616 662.684,124.895 C662.684,126.174 663.721,127.211 665,127.211 Z M669.632,85.526 L657.589,85.526 C652.261,85.526 650.995,85.63 649.216,86.536 C647.473,87.424 646.056,88.841 645.168,90.584 C644.261,92.363 644.158,93.629 644.158,98.958 L644.158,123.042 C644.158,128.371 644.261,129.637 645.167,131.416 C646.056,133.159 647.473,134.576 649.216,135.464 C650.995,136.37 652.261,136.474 657.589,136.474 L672.411,136.474 C677.739,136.474 679.005,136.37 680.784,135.464 C682.527,134.576 683.944,133.159 684.832,131.416 C685.739,129.637 685.842,128.371 685.842,123.042 L685.842,101.737 C685.842,101.123 685.598,100.534 685.164,100.099 L671.269,86.205 C670.835,85.77 670.246,85.526 669.632,85.526 Z M669.632,90.158 L667.994,89.48 L681.889,103.374 L681.211,101.737 L681.211,123.042 C681.211,127.44 681.125,128.491 680.706,129.314 C680.262,130.185 679.553,130.893 678.682,131.337 C677.859,131.756 676.808,131.842 672.411,131.842 L657.589,131.842 C653.192,131.842 652.141,131.756 651.318,131.337 C650.447,130.893 649.738,130.185 649.294,129.313 C648.875,128.491 648.789,127.44 648.789,123.042 L648.789,98.958 C648.789,94.56 648.875,93.509 649.294,92.686 C649.738,91.815 650.447,91.107 651.318,90.663 C652.141,90.244 653.192,90.158 657.589,90.158 L669.632,90.158 Z" />
        </g>
    </g>
</svg>