<?xml version="1.0" encoding="UTF-8"?>
<svg height="600" width="800" xmlns="http://www.w3.org/2000/svg" xmlns:xlink="http://www.w3.org/1999/xlink">
    <g id="Notes" font-family="LucidaGrande, 'Lucida Grande', sans-serif" font-size="13">
        <rect fill="white" height="600.0" width="800.0" x="0.0" y="0.0" />
        <g font-size="13">
            <text x="18.0" y="176.0">Small</text>
            <text x="18.0" y="376.0">Medium</text>
            <text x="18.0" y="576.0">Large</text>
        </g>
        <g font-size="9">
            <text x="250.0" y="30.0">Ultralight</text>
            <text x="450.0" y="30.0">Regular</text>
            <text x="650.0" y="30.0">Black</text>
            <text id="template-version" fill="#505050" text-anchor="end" x="785.0" y="575.0">Template v.3.0</text>
            <a href="https://github.com/swhitty/SwiftDraw">
                <text fill="#505050" text-anchor="end" x="785.0" y="590.0">https://github.com/swhitty/SwiftDraw</text>
            </a>
        </g>
    </g>
    <g id="Guides" stroke="rgb(39, 170, 225)" stroke-width="0.5">
        <path id="Capline-S" d="M18,76 l800,0" />
        <path id="H-reference" d="M85,145.755 L87.685,145.755 L113.369,79.287 L114.052,79.287 L114.052,76 L112.148,76 L85,145.755 Z M95.693,121.536 L130.996,121.536 L130.263,119.313 L96.474,119.313 L95.693,121.536 Z M139.15,145.755 L141.787,145.755 L114.638,76 L113.466,76 L113.466,79.287 L139.15,145.755 Z" stroke="none" transform="translate(0,200)" />
        <path id="Baseline-S" d="M18,146 l800,0" />
        <path id="left-margin-Ultralight-M" d="M230,256 l0,110" />
        <path id="right-margin-Ultralight-M" d="M300,256 l0,110" />
        <path id="left-margin-Regular-M" d="M430,256 l0,110" />
        <path id="right-margin-Regular-M" d="M500,256 l0,110" />
        <path id="left-margin-Black-M" d="M630,256 l0,110" />
        <path id="right-margin-Black-M" d="M700,256 l0,110" />
        <path id="Capline-M" d="M18,276 l800,0" />
        <path id="Baseline-M" d="M18,346 l800,0" />
        <path id="Capline-L" d="M18,476 l800,0" />
        <path id="Baseline-L" d="M18,546 l800,0" />
    </g>
    <g id="Symbols">
        <g id="Ultralight-M" transform="translate(0,200)">
            <path d="M298.291,136.042 L239.958,77.709 C237.68,75.43 233.987,75.43 231.709,77.709 C229.43,79.987 229.43,83.68 231.709,85.958 L290.042,144.291 C292.32,146.57 296.013,146.57 298.291,144.291 C300.57,142.013 300.57,138.32 298.291,136.042 Z M230,81.833 L230,140.167 C230,143.388 232.612,146 235.833,146 C239.055,146 241.667,143.388 241.667,140.167 L241.667,81.833 C241.667,78.612 239.055,76 235.833,76 C232.612,76 230,78.612 230,81.833 Z M235.833,87.667 L294.167,87.667 C297.388,87.667 300,85.055 300,81.833 C300,78.612 297.388,76 294.167,76 L235.833,76 C232.612,76 230,78.612 230,81.833 C230,85.055 232.612,87.667 235.833,87.667 Z" />
        </g>
        <g id="Regular-M" transform="translate(0,200)">
            <path d="M498.291,136.042 L439.958,77.709 C437.68,75.43 433.987,75.43 431.709,77.709 C429.43,79.987 429.43,83.68 431.709,85.958 L490.042,144.291 C492.32,146.57 496.013,146.57 498.291,144.291 C500.57,142.013 500.57,138.32 498.291,136.042 Z M430,81.833 L430,140.167 C430,143.388 432.612,146 435.833,146 C439.055,146 441.667,143.388 441.667,140.167 L441.667,81.833 C441.667,78.612 439.055,76 435.833,76 C432.612,76 430,78.612 430,81.833 Z M435.833,87.667 L494.167,87.667 C497.388,87.667 500,85.055 500,81.833 C500,78.612 497.388,76 494.167,76 L435.833,76 C432.612,76 430,78.612 430,81.833 C430,85.055 432.612,87.667 435.833,87.667 Z" />
        </g>
        <g id="Black-M" transform="translate(0,200)">
            <path d="M698.291,136.042 L639.958,77.709 C637.68,75.43 633.987,75.43 631.709,77.709 C629.43,79.987 629.43,83.68 631.709,85.958 L690.042,144.291 C692.32,146.57 696.013,146.57 698.291,144.291 C700.57,142.013 700.57,138.32 698.291,136.042 Z M630,81.833 L630,140.167 C630,143.388 632.612,146 635.833,146 C639.055,146 641.667,143.388 641.667,140.167 L641.667,81.833 C641.667,78.612 639.055,76 635.833,76 C632.612,76 630,78.612 630,81.833 Z M635.833,87.667 L694.167,87.667 C697.388,87.667 700,85.055 700,81.833 C700,78.612 697.388,76 694.167,76 L635.833,76 C632.612,76 630,78.612 630,81.833 C630,85.055 632.612,87.667 635.833,87.667 Z" />
        </g>
    </g>
</svg>