<?xml version="1.0" encoding="UTF-8"?>
<svg height="600" width="800" xmlns="http://www.w3.org/2000/svg" xmlns:xlink="http://www.w3.org/1999/xlink">
    <g id="Notes" font-family="LucidaGrande, 'Lucida Grande', sans-serif" font-size="13">
        <rect fill="white" height="600.0" width="800.0" x="0.0" y="0.0" />
        <g font-size="13">
            <text x="18.0" y="176.0">Small</text>
            <text x="18.0" y="376.0">Medium</text>
            <text x="18.0" y="576.0">Large</text>
        </g>
        <g font-size="9">
            <text x="250.0" y="30.0">Ultralight</text>
            <text x="450.0" y="30.0">Regular</text>
            <text x="650.0" y="30.0">Black</text>
            <text id="template-version" fill="#505050" text-anchor="end" x="785.0" y="575.0">Template v.3.0</text>
            <a href="https://github.com/swhitty/SwiftDraw">
                <text fill="#505050" text-anchor="end" x="785.0" y="590.0">https://github.com/swhitty/SwiftDraw</text>
            </a>
        </g>
    </g>
    <g id="Guides" stroke="rgb(39, 170, 225)" stroke-width="0.5">
        <path id="Capline-S" d="M18,76 l800,0" />
        <path id="H-reference" d="M85,145.755 L87.685,145.755 L113.369,79.287 L114.052,79.287 L114.052,76 L112.148,76 L85,145.755 Z M95.693,121.536 L130.996,121.536 L130.263,119.313 L96.474,119.313 L95.693,121.536 Z M139.15,145.755 L141.787,145.755 L114.638,76 L113.466,76 L113.466,79.287 L139.15,145.755 Z" stroke="none" transform="translate(0,200)" />
        <path id="Baseline-S" d="M18,146 l800,0" />
        <path id="left-margin-Ultralight-M" d="M221,256 l0,110" />
        <path id="right-margin-Ultralight-M" d="M309,256 l0,110" />
        <path id="left-margin-Regular-M" d="M421,256 l0,110" />
        <path id="right-margin-Regular-M" d="M509,256 l0,110" />
        <path id="left-margin-Black-M" d="M621,256 l0,110" />
        <path id="right-margin-Black-M" d="M709,256 l0,110" />
        <path id="Capline-M" d="M18,276 l800,0" />
        <path id="Baseline-M" d="M18,346 l800,0" />
        <path id="Capline-L" d="M18,476 l800,0" />
        <path id="Baseline-L" d="M18,546 l800,0" />
    </g>
    <g id="Symbols">
        <g id="Ultralight-M" transform="translate(0,200)">
            <path d="M257.667,129.333 L272.333,129.333 C273.683,129.333 274.778,128.239 274.778,126.889 C274.778,125.539 273.683,124.444 272.333,124.444 L257.667,124.444 C256.317,124.444 255.222,125.539 255.222,126.889 C255.222,128.239 256.317,129.333 257.667,129.333 Z M251.8,89 L278.2,89 C279.42,89 279.714,89.024 279.667,89 C279.667,89 279.667,89 279.667,89 C279.643,88.953 279.667,89.247 279.667,90.467 L279.667,95.539 C279.667,96.808 279.653,97.098 279.599,97.324 C279.538,97.574 279.439,97.814 279.307,98.028 C279.292,98.054 279.277,98.076 279.26,98.1 C279.121,98.297 278.909,98.523 278.092,99.34 L270.923,106.509 C269.592,107.84 269.277,108.193 268.903,108.969 C268.821,109.139 268.751,109.313 268.693,109.492 C268.374,110.474 268.374,111.531 268.693,112.513 C268.751,112.691 268.821,112.866 268.903,113.036 C269.277,113.812 269.592,114.165 270.923,115.496 L278.09,122.663 C278.906,123.479 279.119,123.706 279.258,123.902 C279.275,123.926 279.289,123.948 279.303,123.97 C279.437,124.191 279.537,124.431 279.6,124.689 C279.651,124.902 279.664,125.194 279.664,126.466 L279.664,131.533 C279.664,132.753 279.64,133.047 279.664,133 C279.664,133 279.664,133 279.664,133 C279.711,132.976 279.417,133 278.2,133 L251.8,133 C250.58,133 250.286,132.976 250.333,133 C250.333,133 250.333,133 250.333,133 C250.357,133.047 250.333,132.753 250.333,131.533 L250.333,126.464 C250.333,125.191 250.347,124.901 250.401,124.671 C250.461,124.427 250.561,124.186 250.693,123.972 C250.815,123.772 251.011,123.557 251.908,122.66 L259.077,115.491 C260.408,114.16 260.723,113.807 261.097,113.031 C261.179,112.861 261.249,112.687 261.307,112.508 C261.626,111.526 261.626,110.469 261.307,109.487 C261.249,109.309 261.179,109.134 261.097,108.964 C260.723,108.188 260.408,107.835 259.077,106.504 L251.907,99.339 C251.091,98.523 250.879,98.297 250.74,98.1 C250.723,98.076 250.708,98.054 250.695,98.032 C250.559,97.811 250.46,97.572 250.4,97.322 C250.347,97.098 250.333,96.808 250.333,95.539 L250.333,90.467 C250.333,89.247 250.357,88.953 250.334,89 C250.333,89 250.333,89 250.333,89 C250.286,89.024 250.58,89 251.8,89 Z M251.8,84.111 C249.598,84.111 249.076,84.154 248.114,84.644 C247.194,85.113 246.446,85.861 245.977,86.78 C245.487,87.743 245.444,88.264 245.444,90.467 L245.444,95.539 C245.444,97.257 245.465,97.704 245.646,98.461 C245.826,99.213 246.123,99.929 246.526,100.587 C246.595,100.699 246.669,100.811 246.747,100.922 C247.116,101.444 247.397,101.743 248.451,102.797 L255.621,109.962 C256.447,110.788 256.668,111.036 256.692,111.085 C256.679,111.06 256.667,111.03 256.657,110.997 C256.657,110.998 256.657,110.998 256.657,110.998 C256.667,110.966 256.679,110.935 256.692,110.91 C256.668,110.959 256.447,111.207 255.62,112.034 L248.451,119.203 C247.233,120.421 246.932,120.752 246.525,121.416 C246.127,122.063 245.832,122.775 245.649,123.523 C245.465,124.297 245.444,124.744 245.444,126.464 L245.444,131.533 C245.444,133.736 245.487,134.257 245.977,135.219 C246.446,136.139 247.194,136.887 248.114,137.356 C249.076,137.846 249.598,137.889 251.8,137.889 L278.2,137.889 C280.406,137.889 280.926,137.846 281.888,137.354 C282.804,136.887 283.552,136.139 284.02,135.22 C284.511,134.257 284.553,133.736 284.553,131.533 L284.553,126.466 C284.553,124.744 284.533,124.296 284.352,123.539 C284.166,122.78 283.873,122.073 283.473,121.42 C283.402,121.304 283.329,121.192 283.25,121.081 C282.881,120.559 282.601,120.26 281.547,119.206 L274.38,112.039 C273.553,111.212 273.332,110.964 273.308,110.915 C273.321,110.94 273.333,110.97 273.343,111.003 C273.343,111.002 273.343,111.002 273.343,111.002 C273.333,111.034 273.321,111.065 273.308,111.09 C273.332,111.041 273.553,110.793 274.38,109.966 L281.549,102.797 C282.603,101.743 282.884,101.444 283.253,100.922 C283.331,100.811 283.405,100.699 283.475,100.584 C283.874,99.935 284.168,99.223 284.352,98.472 C284.535,97.704 284.556,97.257 284.556,95.539 L284.556,90.467 C284.556,88.264 284.513,87.743 284.023,86.781 C283.554,85.861 282.806,85.113 281.886,84.644 C280.924,84.154 280.402,84.111 278.2,84.111 L251.8,84.111 Z" />
        </g>
        <g id="Regular-M" transform="translate(0,200)">
            <path d="M457.667,129.333 L472.333,129.333 C473.683,129.333 474.778,128.239 474.778,126.889 C474.778,125.539 473.683,124.444 472.333,124.444 L457.667,124.444 C456.317,124.444 455.222,125.539 455.222,126.889 C455.222,128.239 456.317,129.333 457.667,129.333 Z M451.8,89 L478.2,89 C479.42,89 479.714,89.024 479.667,89 C479.667,89 479.667,89 479.667,89 C479.643,88.953 479.667,89.247 479.667,90.467 L479.667,95.539 C479.667,96.808 479.653,97.098 479.599,97.324 C479.538,97.574 479.439,97.814 479.307,98.028 C479.292,98.054 479.277,98.076 479.26,98.1 C479.121,98.297 478.909,98.523 478.092,99.34 L470.923,106.509 C469.592,107.84 469.277,108.193 468.903,108.969 C468.821,109.139 468.751,109.313 468.693,109.492 C468.374,110.474 468.374,111.531 468.693,112.513 C468.751,112.691 468.821,112.866 468.903,113.036 C469.277,113.812 469.592,114.165 470.923,115.496 L478.09,122.663 C478.906,123.479 479.119,123.706 479.258,123.902 C479.275,123.926 479.289,123.948 479.303,123.97 C479.437,124.191 479.537,124.431 479.6,124.689 C479.651,124.902 479.664,125.194 479.664,126.466 L479.664,131.533 C479.664,132.753 479.64,133.047 479.664,133 C479.664,133 479.664,133 479.664,133 C479.711,132.976 479.417,133 478.2,133 L451.8,133 C450.58,133 450.286,132.976 450.333,133 C450.333,133 450.333,133 450.333,133 C450.357,133.047 450.333,132.753 450.333,131.533 L450.333,126.464 C450.333,125.191 450.346,124.901 450.401,124.671 C450.461,124.427 450.561,124.186 450.693,123.972 C450.815,123.772 451.011,123.557 451.908,122.66 L459.077,115.491 C460.408,114.16 460.723,113.807 461.097,113.031 C461.179,112.861 461.249,112.687 461.307,112.508 C461.626,111.526 461.626,110.469 461.307,109.487 C461.249,109.309 461.179,109.134 461.097,108.964 C460.723,108.188 460.408,107.835 459.077,106.504 L451.907,99.339 C451.091,98.523 450.879,98.297 450.74,98.1 C450.723,98.076 450.708,98.054 450.695,98.032 C450.559,97.811 450.46,97.572 450.4,97.322 C450.347,97.098 450.333,96.808 450.333,95.539 L450.333,90.467 C450.333,89.247 450.357,88.953 450.333,89 C450.333,89 450.333,89 450.333,89 C450.286,89.024 450.58,89 451.8,89 Z M451.8,84.111 C449.598,84.111 449.076,84.154 448.114,84.644 C447.194,85.113 446.446,85.861 445.977,86.78 C445.487,87.743 445.444,88.264 445.444,90.467 L445.444,95.539 C445.444,97.257 445.465,97.704 445.646,98.461 C445.826,99.213 446.123,99.929 446.526,100.587 C446.595,100.699 446.669,100.811 446.747,100.922 C447.116,101.444 447.397,101.743 448.451,102.797 L455.621,109.962 C456.447,110.788 456.668,111.036 456.692,111.085 C456.679,111.06 456.667,111.03 456.657,110.997 C456.657,110.998 456.657,110.998 456.657,110.998 C456.667,110.966 456.679,110.935 456.692,110.91 C456.668,110.959 456.447,111.207 455.62,112.034 L448.451,119.203 C447.233,120.421 446.932,120.752 446.525,121.416 C446.127,122.063 445.832,122.775 445.649,123.523 C445.465,124.297 445.444,124.744 445.444,126.464 L445.444,131.533 C445.444,133.736 445.487,134.257 445.977,135.219 C446.446,136.139 447.194,136.887 448.114,137.356 C449.076,137.846 449.598,137.889 451.8,137.889 L478.2,137.889 C480.406,137.889 480.926,137.846 481.888,137.354 C482.804,136.887 483.552,136.139 484.02,135.22 C484.51,134.257 484.553,133.736 484.553,131.533 L484.553,126.466 C484.553,124.744 484.533,124.296 484.352,123.539 C484.166,122.78 483.873,122.073 483.473,121.42 C483.402,121.304 483.328,121.192 483.25,121.081 C482.881,120.559 482.601,120.26 481.547,119.206 L474.38,112.039 C473.553,111.212 473.332,110.964 473.308,110.915 C473.321,110.94 473.333,110.97 473.343,111.003 C473.343,111.002 473.343,111.002 473.343,111.002 C473.333,111.034 473.321,111.065 473.308,111.09 C473.332,111.041 473.553,110.793 474.38,109.966 L481.549,102.797 C482.603,101.743 482.884,101.444 483.253,100.922 C483.331,100.811 483.405,100.699 483.475,100.584 C483.874,99.935 484.168,99.223 484.352,98.472 C484.535,97.704 484.556,97.257 484.556,95.539 L484.556,90.467 C484.556,88.264 484.513,87.743 484.023,86.781 C483.554,85.861 482.806,85.113 481.886,84.644 C480.924,84.154 480.402,84.111 478.2,84.111 L451.8,84.111 Z" />
        </g>
        <g id="Black-M" transform="translate(0,200)">
            <path d="M657.667,129.333 L672.333,129.333 C673.683,129.333 674.778,128.239 674.778,126.889 C674.778,125.539 673.683,124.444 672.333,124.444 L657.667,124.444 C656.317,124.444 655.222,125.539 655.222,126.889 C655.222,128.239 656.317,129.333 657.667,129.333 Z M651.8,89 L678.2,89 C679.42,89 679.714,89.024 679.667,89 C679.667,89 679.667,89 679.667,89 C679.643,88.953 679.667,89.247 679.667,90.467 L679.667,95.539 C679.667,96.808 679.654,97.098 679.599,97.324 C679.538,97.574 679.439,97.814 679.307,98.028 C679.292,98.054 679.277,98.076 679.26,98.1 C679.121,98.297 678.909,98.523 678.092,99.34 L670.923,106.509 C669.592,107.84 669.277,108.193 668.904,108.969 C668.821,109.139 668.751,109.313 668.693,109.492 C668.374,110.474 668.374,111.531 668.693,112.513 C668.751,112.691 668.821,112.866 668.904,113.036 C669.277,113.812 669.592,114.165 670.923,115.496 L678.09,122.663 C678.906,123.479 679.119,123.706 679.258,123.902 C679.275,123.926 679.289,123.948 679.303,123.97 C679.437,124.191 679.537,124.431 679.6,124.689 C679.651,124.902 679.664,125.194 679.664,126.466 L679.664,131.533 C679.664,132.753 679.64,133.047 679.664,133 C679.664,133 679.664,133 679.664,133 C679.711,132.976 679.417,133 678.2,133 L651.8,133 C650.58,133 650.286,132.976 650.333,133 C650.333,133 650.333,133 650.333,133 C650.357,133.047 650.333,132.753 650.333,131.533 L650.333,126.464 C650.333,125.191 650.347,124.901 650.401,124.671 C650.461,124.427 650.561,124.186 650.693,123.972 C650.815,123.772 651.011,123.557 651.908,122.66 L659.077,115.491 C660.408,114.16 660.723,113.807 661.097,113.031 C661.179,112.861 661.249,112.687 661.307,112.508 C661.626,111.526 661.626,110.469 661.307,109.487 C661.249,109.309 661.179,109.134 661.097,108.964 C660.723,108.188 660.408,107.835 659.077,106.504 L651.907,99.339 C651.091,98.523 650.879,98.297 650.74,98.1 C650.723,98.076 650.708,98.054 650.695,98.032 C650.559,97.811 650.46,97.572 650.4,97.322 C650.347,97.098 650.333,96.808 650.333,95.539 L650.333,90.467 C650.333,89.247 650.357,88.953 650.334,89 C650.333,89 650.333,89 650.333,89 C650.286,89.024 650.58,89 651.8,89 Z M651.8,84.111 C649.598,84.111 649.076,84.154 648.114,84.644 C647.194,85.113 646.446,85.861 645.977,86.78 C645.487,87.743 645.444,88.264 645.444,90.467 L645.444,95.539 C645.444,97.257 645.465,97.704 645.646,98.461 C645.826,99.213 646.123,99.929 646.526,100.587 C646.595,100.699 646.669,100.811 646.747,100.922 C647.116,101.444 647.397,101.743 648.451,102.797 L655.621,109.962 C656.447,110.788 656.668,111.036 656.692,111.085 C656.68,111.06 656.667,111.03 656.657,110.997 C656.657,110.998 656.657,110.998 656.657,110.998 C656.667,110.966 656.68,110.935 656.692,110.91 C656.668,110.959 656.447,111.207 655.62,112.034 L648.451,119.203 C647.233,120.421 646.932,120.752 646.525,121.416 C646.127,122.063 645.832,122.775 645.649,123.523 C645.465,124.297 645.444,124.744 645.444,126.464 L645.444,131.533 C645.444,133.736 645.487,134.257 645.977,135.219 C646.446,136.139 647.194,136.887 648.114,137.356 C649.076,137.846 649.598,137.889 651.8,137.889 L678.2,137.889 C680.406,137.889 680.926,137.846 681.888,137.354 C682.804,136.887 683.552,136.139 684.02,135.22 C684.511,134.257 684.553,133.736 684.553,131.533 L684.553,126.466 C684.553,124.744 684.533,124.296 684.352,123.539 C684.166,122.78 683.873,122.073 683.473,121.42 C683.402,121.304 683.329,121.192 683.25,121.081 C682.881,120.559 682.601,120.26 681.547,119.206 L674.38,112.039 C673.553,111.212 673.332,110.964 673.308,110.915 C673.321,110.94 673.333,110.97 673.343,111.003 C673.343,111.002 673.343,111.002 673.343,111.002 C673.333,111.034 673.321,111.065 673.308,111.09 C673.332,111.041 673.553,110.793 674.38,109.966 L681.549,102.797 C682.603,101.743 682.884,101.444 683.253,100.922 C683.331,100.811 683.405,100.699 683.475,100.584 C683.874,99.935 684.168,99.223 684.352,98.472 C684.535,97.704 684.556,97.257 684.556,95.539 L684.556,90.467 C684.556,88.264 684.513,87.743 684.023,86.781 C683.554,85.861 682.806,85.113 681.886,84.644 C680.924,84.154 680.402,84.111 678.2,84.111 L651.8,84.111 Z" />
        </g>
    </g>
</svg>