<?xml version="1.0" encoding="UTF-8"?>
<svg height="600" width="800" xmlns="http://www.w3.org/2000/svg" xmlns:xlink="http://www.w3.org/1999/xlink">
    <g id="Notes" font-family="LucidaGrande, 'Lucida Grande', sans-serif" font-size="13">
        <rect fill="white" height="600.0" width="800.0" x="0.0" y="0.0" />
        <g font-size="13">
            <text x="18.0" y="176.0">Small</text>
            <text x="18.0" y="376.0">Medium</text>
            <text x="18.0" y="576.0">Large</text>
        </g>
        <g font-size="9">
            <text x="250.0" y="30.0">Ultralight</text>
            <text x="450.0" y="30.0">Regular</text>
            <text x="650.0" y="30.0">Black</text>
            <text id="template-version" fill="#505050" text-anchor="end" x="785.0" y="575.0">Template v.3.0</text>
            <a href="https://github.com/swhitty/SwiftDraw">
                <text fill="#505050" text-anchor="end" x="785.0" y="590.0">https://github.com/swhitty/SwiftDraw</text>
            </a>
        </g>
    </g>
    <g id="Guides" stroke="rgb(39, 170, 225)" stroke-width="0.5">
        <path id="Capline-S" d="M18,76 l800,0" />
        <path id="H-reference" d="M85,145.755 L87.685,145.755 L113.369,79.287 L114.052,79.287 L114.052,76 L112.148,76 L85,145.755 Z M95.693,121.536 L130.996,121.536 L130.263,119.313 L96.474,119.313 L95.693,121.536 Z M139.15,145.755 L141.787,145.755 L114.638,76 L113.466,76 L113.466,79.287 L139.15,145.755 Z" stroke="none" transform="translate(0,200)" />
        <path id="Baseline-S" d="M18,146 l800,0" />
        <path id="left-margin-Ultralight-M" d="M230,256 l0,110" />
        <path id="right-margin-Ultralight-M" d="M300,256 l0,110" />
        <path id="left-margin-Regular-M" d="M430,256 l0,110" />
        <path id="right-margin-Regular-M" d="M500,256 l0,110" />
        <path id="left-margin-Black-M" d="M630,256 l0,110" />
        <path id="right-margin-Black-M" d="M700,256 l0,110" />
        <path id="Capline-M" d="M18,276 l800,0" />
        <path id="Baseline-M" d="M18,346 l800,0" />
        <path id="Capline-L" d="M18,476 l800,0" />
        <path id="Baseline-L" d="M18,546 l800,0" />
    </g>
    <g id="Symbols">
        <g id="Ultralight-M" transform="translate(0,200)">
            <path d="M281.775,89.275 L243.275,127.775 C241.908,129.142 241.908,131.358 243.275,132.725 C244.642,134.092 246.858,134.092 248.225,132.725 L286.725,94.225 C288.092,92.858 288.092,90.642 286.725,89.275 C285.358,87.908 283.142,87.908 281.775,89.275 Z M256.25,105.75 L256.25,91.75 C256.25,89.817 254.683,88.25 252.75,88.25 C250.817,88.25 249.25,89.817 249.25,91.75 L249.25,105.75 C249.25,107.683 250.817,109.25 252.75,109.25 C254.683,109.25 256.25,107.683 256.25,105.75 Z M245.75,102.25 L259.75,102.25 C261.683,102.25 263.25,100.683 263.25,98.75 C263.25,96.817 261.683,95.25 259.75,95.25 L245.75,95.25 C243.817,95.25 242.25,96.817 242.25,98.75 C242.25,100.683 243.817,102.25 245.75,102.25 Z M270.25,126.75 L284.25,126.75 C286.183,126.75 287.75,125.183 287.75,123.25 C287.75,121.317 286.183,119.75 284.25,119.75 L270.25,119.75 C268.317,119.75 266.75,121.317 266.75,123.25 C266.75,125.183 268.317,126.75 270.25,126.75 Z M250.3,146 L279.7,146 C287.753,146 289.667,145.844 292.356,144.474 C294.99,143.132 297.132,140.99 298.474,138.356 C299.844,135.667 300,133.753 300,125.7 L300,96.3 C300,88.247 299.844,86.333 298.474,83.644 C297.132,81.01 294.99,78.868 292.356,77.526 C289.667,76.156 287.753,76 279.7,76 L250.3,76 C242.247,76 240.333,76.156 237.644,77.526 C235.01,78.868 232.868,81.01 231.526,83.644 C230.156,86.333 230,88.247 230,96.3 L230,125.7 C230,133.753 230.156,135.667 231.526,138.356 C232.868,140.99 235.01,143.132 237.644,144.474 C240.333,145.844 242.247,146 250.3,146 Z M250.3,139 C243.653,139 242.065,138.87 240.822,138.237 C239.505,137.566 238.434,136.495 237.763,135.178 C237.13,133.935 237,132.347 237,125.7 L237,96.3 C237,89.653 237.13,88.065 237.763,86.822 C238.434,85.505 239.505,84.434 240.822,83.763 C242.065,83.13 243.653,83 250.3,83 L279.7,83 C286.347,83 287.935,83.13 289.178,83.763 C290.495,84.434 291.566,85.505 292.237,86.822 C292.87,88.065 293,89.653 293,96.3 L293,125.7 C293,132.347 292.87,133.935 292.237,135.178 C291.566,136.495 290.495,137.566 289.178,138.237 C287.935,138.87 286.347,139 279.7,139 L250.3,139 Z" />
        </g>
        <g id="Regular-M" transform="translate(0,200)">
            <path d="M481.775,89.275 L443.275,127.775 C441.908,129.142 441.908,131.358 443.275,132.725 C444.642,134.092 446.858,134.092 448.225,132.725 L486.725,94.225 C488.092,92.858 488.092,90.642 486.725,89.275 C485.358,87.908 483.142,87.908 481.775,89.275 Z M456.25,105.75 L456.25,91.75 C456.25,89.817 454.683,88.25 452.75,88.25 C450.817,88.25 449.25,89.817 449.25,91.75 L449.25,105.75 C449.25,107.683 450.817,109.25 452.75,109.25 C454.683,109.25 456.25,107.683 456.25,105.75 Z M445.75,102.25 L459.75,102.25 C461.683,102.25 463.25,100.683 463.25,98.75 C463.25,96.817 461.683,95.25 459.75,95.25 L445.75,95.25 C443.817,95.25 442.25,96.817 442.25,98.75 C442.25,100.683 443.817,102.25 445.75,102.25 Z M470.25,126.75 L484.25,126.75 C486.183,126.75 487.75,125.183 487.75,123.25 C487.75,121.317 486.183,119.75 484.25,119.75 L470.25,119.75 C468.317,119.75 466.75,121.317 466.75,123.25 C466.75,125.183 468.317,126.75 470.25,126.75 Z M450.3,146 L479.7,146 C487.753,146 489.667,145.844 492.356,144.474 C494.99,143.132 497.132,140.99 498.474,138.356 C499.844,135.667 500,133.753 500,125.7 L500,96.3 C500,88.247 499.844,86.333 498.474,83.644 C497.132,81.01 494.99,78.868 492.356,77.526 C489.667,76.156 487.753,76 479.7,76 L450.3,76 C442.247,76 440.333,76.156 437.644,77.526 C435.01,78.868 432.868,81.01 431.526,83.644 C430.156,86.333 430,88.247 430,96.3 L430,125.7 C430,133.753 430.156,135.667 431.526,138.356 C432.868,140.99 435.01,143.132 437.644,144.474 C440.333,145.844 442.247,146 450.3,146 Z M450.3,139 C443.653,139 442.065,138.87 440.822,138.237 C439.505,137.566 438.434,136.495 437.763,135.178 C437.13,133.935 437,132.347 437,125.7 L437,96.3 C437,89.653 437.13,88.065 437.763,86.822 C438.434,85.505 439.505,84.434 440.822,83.763 C442.065,83.13 443.653,83 450.3,83 L479.7,83 C486.347,83 487.935,83.13 489.178,83.763 C490.495,84.434 491.566,85.505 492.237,86.822 C492.87,88.065 493,89.653 493,96.3 L493,125.7 C493,132.347 492.87,133.935 492.237,135.178 C491.566,136.495 490.495,137.566 489.178,138.237 C487.935,138.87 486.347,139 479.7,139 L450.3,139 Z" />
        </g>
        <g id="Black-M" transform="translate(0,200)">
            <path d="M681.775,89.275 L643.275,127.775 C641.908,129.142 641.908,131.358 643.275,132.725 C644.642,134.092 646.858,134.092 648.225,132.725 L686.725,94.225 C688.092,92.858 688.092,90.642 686.725,89.275 C685.358,87.908 683.142,87.908 681.775,89.275 Z M656.25,105.75 L656.25,91.75 C656.25,89.817 654.683,88.25 652.75,88.25 C650.817,88.25 649.25,89.817 649.25,91.75 L649.25,105.75 C649.25,107.683 650.817,109.25 652.75,109.25 C654.683,109.25 656.25,107.683 656.25,105.75 Z M645.75,102.25 L659.75,102.25 C661.683,102.25 663.25,100.683 663.25,98.75 C663.25,96.817 661.683,95.25 659.75,95.25 L645.75,95.25 C643.817,95.25 642.25,96.817 642.25,98.75 C642.25,100.683 643.817,102.25 645.75,102.25 Z M670.25,126.75 L684.25,126.75 C686.183,126.75 687.75,125.183 687.75,123.25 C687.75,121.317 686.183,119.75 684.25,119.75 L670.25,119.75 C668.317,119.75 666.75,121.317 666.75,123.25 C666.75,125.183 668.317,126.75 670.25,126.75 Z M650.3,146 L679.7,146 C687.753,146 689.667,145.844 692.356,144.474 C694.99,143.132 697.132,140.99 698.474,138.356 C699.844,135.667 700,133.753 700,125.7 L700,96.3 C700,88.247 699.844,86.333 698.474,83.644 C697.132,81.01 694.99,78.868 692.356,77.526 C689.667,76.156 687.753,76 679.7,76 L650.3,76 C642.247,76 640.333,76.156 637.644,77.526 C635.01,78.868 632.868,81.01 631.526,83.644 C630.156,86.333 630,88.247 630,96.3 L630,125.7 C630,133.753 630.156,135.667 631.526,138.356 C632.868,140.99 635.01,143.132 637.644,144.474 C640.333,145.844 642.247,146 650.3,146 Z M650.3,139 C643.653,139 642.065,138.87 640.822,138.237 C639.505,137.566 638.434,136.495 637.763,135.178 C637.13,133.935 637,132.347 637,125.7 L637,96.3 C637,89.653 637.13,88.065 637.763,86.822 C638.434,85.505 639.505,84.434 640.822,83.763 C642.065,83.13 643.653,83 650.3,83 L679.7,83 C686.347,83 687.935,83.13 689.178,83.763 C690.495,84.434 691.566,85.505 692.237,86.822 C692.87,88.065 693,89.653 693,96.3 L693,125.7 C693,132.347 692.87,133.935 692.237,135.178 C691.566,136.495 690.495,137.566 689.178,138.237 C687.935,138.87 686.347,139 679.7,139 L650.3,139 Z" />
        </g>
    </g>
</svg>