<?xml version="1.0" encoding="UTF-8"?>
<svg height="600" width="800" xmlns="http://www.w3.org/2000/svg" xmlns:xlink="http://www.w3.org/1999/xlink">
    <g id="Notes" font-family="LucidaGrande, 'Lucida Grande', sans-serif" font-size="13">
        <rect fill="white" height="600.0" width="800.0" x="0.0" y="0.0" />
        <g font-size="13">
            <text x="18.0" y="176.0">Small</text>
            <text x="18.0" y="376.0">Medium</text>
            <text x="18.0" y="576.0">Large</text>
        </g>
        <g font-size="9">
            <text x="250.0" y="30.0">Ultralight</text>
            <text x="450.0" y="30.0">Regular</text>
            <text x="650.0" y="30.0">Black</text>
            <text id="template-version" fill="#505050" text-anchor="end" x="785.0" y="575.0">Template v.3.0</text>
            <a href="https://github.com/swhitty/SwiftDraw">
                <text fill="#505050" text-anchor="end" x="785.0" y="590.0">https://github.com/swhitty/SwiftDraw</text>
            </a>
        </g>
    </g>
    <g id="Guides" stroke="rgb(39, 170, 225)" stroke-width="0.5">
        <path id="Capline-S" d="M18,76 l800,0" />
        <path id="H-reference" d="M85,145.755 L87.685,145.755 L113.369,79.287 L114.052,79.287 L114.052,76 L112.148,76 L85,145.755 Z M95.693,121.536 L130.996,121.536 L130.263,119.313 L96.474,119.313 L95.693,121.536 Z M139.15,145.755 L141.787,145.755 L114.638,76 L113.466,76 L113.466,79.287 L139.15,145.755 Z" stroke="none" transform="translate(0,200)" />
        <path id="Baseline-S" d="M18,146 l800,0" />
        <path id="left-margin-Ultralight-M" d="M230,256 l0,110" />
        <path id="right-margin-Ultralight-M" d="M300,256 l0,110" />
        <path id="left-margin-Regular-M" d="M430,256 l0,110" />
        <path id="right-margin-Regular-M" d="M500,256 l0,110" />
        <path id="left-margin-Black-M" d="M630,256 l0,110" />
        <path id="right-margin-Black-M" d="M700,256 l0,110" />
        <path id="Capline-M" d="M18,276 l800,0" />
        <path id="Baseline-M" d="M18,346 l800,0" />
        <path id="Capline-L" d="M18,476 l800,0" />
        <path id="Baseline-L" d="M18,546 l800,0" />
    </g>
    <g id="Symbols">
        <g id="Ultralight-M" transform="translate(0,200)">
            <path d="M286.005,95.249 C293.001,104.587 292.999,117.421 286,126.756 C285.033,128.045 285.295,129.873 286.584,130.839 C287.873,131.806 289.701,131.544 290.667,130.255 C299.221,118.847 299.223,103.163 290.673,91.751 C289.707,90.462 287.879,90.2 286.59,91.166 C285.301,92.132 285.039,93.96 286.005,95.249 Z M264.996,143.083 C269.867,143.09 274.675,141.984 279.054,139.848 C281.895,138.463 280.81,134.179 277.652,134.313 C269.089,134.674 261.017,130.311 256.627,122.95 C252.238,115.588 252.238,106.412 256.627,99.05 C261.017,91.689 269.089,87.326 277.652,87.687 C280.81,87.821 281.895,83.537 279.054,82.152 C274.675,80.016 269.867,78.91 264.996,78.917 C247.28,78.917 232.917,93.28 232.917,111 C232.917,128.72 247.28,143.083 265,143.083 Z M265,137.25 C250.502,137.25 238.75,125.498 238.75,111 C238.75,96.502 250.502,84.75 265,84.75 C268.986,84.744 272.917,85.649 276.496,87.395 L277.898,81.859 C267.194,81.408 257.104,86.861 251.617,96.063 C246.13,105.265 246.13,116.735 251.617,125.937 C257.104,135.139 267.194,140.592 277.898,140.141 L276.496,134.605 C272.917,136.351 268.986,137.256 265.004,137.25 Z" />
        </g>
        <g id="Regular-M" transform="translate(0,200)">
            <path d="M486.005,95.249 C493.001,104.587 492.999,117.421 486,126.756 C485.033,128.045 485.295,129.873 486.584,130.839 C487.873,131.806 489.701,131.544 490.667,130.255 C499.221,118.847 499.223,103.163 490.673,91.751 C489.707,90.462 487.879,90.2 486.59,91.166 C485.301,92.132 485.039,93.96 486.005,95.249 Z M464.996,143.083 C469.867,143.09 474.675,141.984 479.054,139.848 C481.895,138.463 480.81,134.179 477.652,134.313 C469.089,134.674 461.017,130.311 456.627,122.95 C452.238,115.588 452.238,106.412 456.627,99.05 C461.017,91.689 469.089,87.326 477.652,87.687 C480.81,87.821 481.895,83.537 479.054,82.152 C474.675,80.016 469.867,78.91 464.996,78.917 C447.28,78.917 432.917,93.28 432.917,111 C432.917,128.72 447.28,143.083 465,143.083 Z M465,137.25 C450.502,137.25 438.75,125.498 438.75,111 C438.75,96.502 450.502,84.75 465,84.75 C468.986,84.744 472.917,85.649 476.496,87.395 L477.898,81.859 C467.194,81.408 457.104,86.861 451.617,96.063 C446.13,105.265 446.13,116.735 451.617,125.937 C457.104,135.139 467.194,140.592 477.898,140.141 L476.496,134.605 C472.917,136.351 468.986,137.256 465.004,137.25 Z" />
        </g>
        <g id="Black-M" transform="translate(0,200)">
            <path d="M686.005,95.249 C693.001,104.587 692.999,117.421 686,126.756 C685.033,128.045 685.295,129.873 686.584,130.839 C687.872,131.806 689.701,131.544 690.667,130.255 C699.221,118.847 699.223,103.163 690.673,91.751 C689.708,90.462 687.879,90.2 686.59,91.166 C685.301,92.132 685.039,93.96 686.005,95.249 Z M664.996,143.083 C669.867,143.09 674.675,141.984 679.054,139.848 C681.895,138.463 680.81,134.179 677.652,134.313 C669.089,134.674 661.017,130.311 656.627,122.95 C652.238,115.588 652.238,106.412 656.627,99.05 C661.017,91.689 669.089,87.326 677.652,87.687 C680.81,87.821 681.895,83.537 679.054,82.152 C674.675,80.016 669.867,78.91 664.996,78.917 C647.28,78.917 632.917,93.28 632.917,111 C632.917,128.72 647.28,143.083 665,143.083 Z M665,137.25 C650.502,137.25 638.75,125.498 638.75,111 C638.75,96.502 650.502,84.75 665,84.75 C668.986,84.744 672.917,85.649 676.496,87.395 L677.898,81.859 C667.194,81.408 657.104,86.861 651.617,96.063 C646.13,105.265 646.13,116.735 651.617,125.937 C657.104,135.139 667.194,140.592 677.898,140.141 L676.496,134.605 C672.917,136.351 668.986,137.256 665.004,137.25 Z" />
        </g>
    </g>
</svg>