<?xml version="1.0" encoding="UTF-8"?>
<svg height="600" width="800" xmlns="http://www.w3.org/2000/svg" xmlns:xlink="http://www.w3.org/1999/xlink">
    <g id="Notes" font-family="LucidaGrande, 'Lucida Grande', sans-serif" font-size="13">
        <rect fill="white" height="600.0" width="800.0" x="0.0" y="0.0" />
        <g font-size="13">
            <text x="18.0" y="176.0">Small</text>
            <text x="18.0" y="376.0">Medium</text>
            <text x="18.0" y="576.0">Large</text>
        </g>
        <g font-size="9">
            <text x="250.0" y="30.0">Ultralight</text>
            <text x="450.0" y="30.0">Regular</text>
            <text x="650.0" y="30.0">Black</text>
            <text id="template-version" fill="#505050" text-anchor="end" x="785.0" y="575.0">Template v.3.0</text>
            <a href="https://github.com/swhitty/SwiftDraw">
                <text fill="#505050" text-anchor="end" x="785.0" y="590.0">https://github.com/swhitty/SwiftDraw</text>
            </a>
        </g>
    </g>
    <g id="Guides" stroke="rgb(39, 170, 225)" stroke-width="0.5">
        <path id="Capline-S" d="M18,76 l800,0" />
        <path id="H-reference" d="M85,145.755 L87.685,145.755 L113.369,79.287 L114.052,79.287 L114.052,76 L112.148,76 L85,145.755 Z M95.693,121.536 L130.996,121.536 L130.263,119.313 L96.474,119.313 L95.693,121.536 Z M139.15,145.755 L141.787,145.755 L114.638,76 L113.466,76 L113.466,79.287 L139.15,145.755 Z" stroke="none" transform="translate(0,200)" />
        <path id="Baseline-S" d="M18,146 l800,0" />
        <path id="left-margin-Ultralight-M" d="M221,256 l0,110" />
        <path id="right-margin-Ultralight-M" d="M309,256 l0,110" />
        <path id="left-margin-Regular-M" d="M421,256 l0,110" />
        <path id="right-margin-Regular-M" d="M509,256 l0,110" />
        <path id="left-margin-Black-M" d="M621,256 l0,110" />
        <path id="right-margin-Black-M" d="M709,256 l0,110" />
        <path id="Capline-M" d="M18,276 l800,0" />
        <path id="Baseline-M" d="M18,346 l800,0" />
        <path id="Capline-L" d="M18,476 l800,0" />
        <path id="Baseline-L" d="M18,546 l800,0" />
    </g>
    <g id="Symbols">
        <g id="Ultralight-M" transform="translate(0,200)">
            <path d="M288.048,106.81 L288.048,100.943 C288.048,97.589 287.983,96.792 287.363,95.575 C286.76,94.392 285.798,93.431 284.616,92.828 C283.398,92.208 282.602,92.143 279.248,92.143 L250.752,92.143 C247.398,92.143 246.602,92.208 245.385,92.828 C244.202,93.431 243.24,94.392 242.638,95.575 C242.017,96.792 241.952,97.589 241.952,100.943 L241.952,108.486 C241.952,111.84 242.017,112.636 242.637,113.853 C243.24,115.036 244.202,115.998 245.384,116.601 C246.602,117.221 247.398,117.286 250.752,117.286 L262.905,117.286 C264.062,117.286 265,116.348 265,115.19 C265,114.033 264.062,113.095 262.905,113.095 L250.752,113.095 C248.24,113.095 247.639,113.046 247.287,112.867 C246.893,112.666 246.572,112.345 246.371,111.951 C246.192,111.599 246.143,110.998 246.143,108.486 L246.143,100.943 C246.143,98.431 246.192,97.829 246.371,97.477 C246.572,97.083 246.893,96.763 247.287,96.562 C247.639,96.382 248.24,96.333 250.752,96.333 L279.248,96.333 C281.76,96.333 282.361,96.382 282.713,96.562 C283.107,96.763 283.428,97.083 283.629,97.477 C283.808,97.829 283.857,98.431 283.857,100.943 L283.857,106.81 C283.857,107.967 284.795,108.905 285.952,108.905 C287.11,108.905 288.048,107.967 288.048,106.81 Z M265,106.81 L265.01,106.81 C266.168,106.81 267.106,105.871 267.106,104.714 C267.106,103.557 266.168,102.619 265.01,102.619 L265,102.619 C263.843,102.619 262.905,103.557 262.905,104.714 C262.905,105.871 263.843,106.81 265,106.81 Z M275.476,106.81 L275.487,106.81 C276.644,106.81 277.582,105.871 277.582,104.714 C277.582,103.557 276.644,102.619 275.487,102.619 L275.476,102.619 C274.319,102.619 273.381,103.557 273.381,104.714 C273.381,105.871 274.319,106.81 275.476,106.81 Z M254.524,106.81 L254.534,106.81 C255.691,106.81 256.63,105.871 256.63,104.714 C256.63,103.557 255.691,102.619 254.534,102.619 L254.524,102.619 C253.367,102.619 252.429,103.557 252.429,104.714 C252.429,105.871 253.367,106.81 254.524,106.81 Z M282.286,119.381 L282.286,115.714 C282.286,112.532 279.706,109.952 276.524,109.952 C273.342,109.952 270.762,112.532 270.762,115.714 L270.762,119.381 C270.762,120.538 271.7,121.476 272.857,121.476 C274.014,121.476 274.952,120.538 274.952,119.381 L274.952,115.714 C274.952,114.846 275.656,114.143 276.524,114.143 C277.392,114.143 278.095,114.846 278.095,115.714 L278.095,119.381 C278.095,120.538 279.033,121.476 280.19,121.476 C281.348,121.476 282.286,120.538 282.286,119.381 Z M263.429,104.714 C263.429,103.846 264.132,103.143 265,103.143 C265.868,103.143 266.571,103.846 266.571,104.714 C266.571,105.582 265.868,106.286 265,106.286 C264.132,106.286 263.429,105.582 263.429,104.714 Z M267.619,104.714 C267.619,103.268 266.446,102.095 265,102.095 C263.554,102.095 262.381,103.268 262.381,104.714 C262.381,106.161 263.554,107.333 265,107.333 C266.446,107.333 267.619,106.161 267.619,104.714 Z M273.905,104.714 C273.905,103.846 274.608,103.143 275.476,103.143 C276.344,103.143 277.048,103.846 277.048,104.714 C277.048,105.582 276.344,106.286 275.476,106.286 C274.608,106.286 273.905,105.582 273.905,104.714 Z M278.095,104.714 C278.095,103.268 276.923,102.095 275.476,102.095 C274.03,102.095 272.857,103.268 272.857,104.714 C272.857,106.161 274.03,107.333 275.476,107.333 C276.923,107.333 278.095,106.161 278.095,104.714 Z M252.952,104.714 C252.952,103.846 253.656,103.143 254.524,103.143 C255.392,103.143 256.095,103.846 256.095,104.714 C256.095,105.582 255.392,106.286 254.524,106.286 C253.656,106.286 252.952,105.582 252.952,104.714 Z M257.143,104.714 C257.143,103.268 255.97,102.095 254.524,102.095 C253.077,102.095 251.905,103.268 251.905,104.714 C251.905,106.161 253.077,107.333 254.524,107.333 C255.97,107.333 257.143,106.161 257.143,104.714 Z M272.543,129.857 L280.505,129.857 C282.392,129.857 282.839,129.821 283.664,129.401 C284.453,128.999 285.094,128.358 285.496,127.569 C285.916,126.744 285.952,126.297 285.952,124.41 L285.952,122.733 C285.952,120.846 285.916,120.399 285.496,119.574 C285.094,118.785 284.453,118.144 283.664,117.742 C282.839,117.322 282.392,117.286 280.505,117.286 L272.543,117.286 C270.655,117.286 270.208,117.322 269.384,117.742 C268.595,118.144 267.954,118.785 267.552,119.574 C267.132,120.399 267.095,120.846 267.095,122.733 L267.095,124.41 C267.095,126.297 267.132,126.744 267.552,127.569 C267.954,128.358 268.595,128.999 269.383,129.4 C270.208,129.821 270.655,129.857 272.543,129.857 Z M272.543,125.667 C271.497,125.667 271.245,125.646 271.285,125.667 C271.286,125.667 271.286,125.667 271.286,125.667 C271.306,125.707 271.286,125.455 271.286,124.41 L271.286,122.733 C271.286,121.688 271.306,121.436 271.286,121.476 C271.286,121.476 271.286,121.476 271.286,121.476 C271.245,121.497 271.497,121.476 272.543,121.476 L280.505,121.476 C281.55,121.476 281.802,121.497 281.762,121.476 C281.762,121.476 281.762,121.476 281.762,121.476 C281.741,121.436 281.762,121.688 281.762,122.733 L281.762,124.41 C281.762,125.455 281.741,125.707 281.762,125.667 C281.762,125.667 281.762,125.667 281.762,125.667 C281.802,125.646 281.55,125.667 280.505,125.667 L272.543,125.667 Z" />
        </g>
        <g id="Regular-M" transform="translate(0,200)">
            <path d="M488.048,106.81 L488.048,100.943 C488.048,97.589 487.983,96.792 487.363,95.575 C486.76,94.392 485.798,93.431 484.616,92.828 C483.398,92.208 482.602,92.143 479.248,92.143 L450.752,92.143 C447.398,92.143 446.602,92.208 445.385,92.828 C444.202,93.431 443.24,94.392 442.638,95.575 C442.017,96.792 441.952,97.589 441.952,100.943 L441.952,108.486 C441.952,111.84 442.017,112.636 442.637,113.853 C443.24,115.036 444.202,115.998 445.384,116.601 C446.602,117.221 447.398,117.286 450.752,117.286 L462.905,117.286 C464.062,117.286 465,116.348 465,115.19 C465,114.033 464.062,113.095 462.905,113.095 L450.752,113.095 C448.24,113.095 447.639,113.046 447.287,112.867 C446.893,112.666 446.572,112.345 446.371,111.951 C446.192,111.599 446.143,110.998 446.143,108.486 L446.143,100.943 C446.143,98.431 446.192,97.829 446.371,97.477 C446.572,97.083 446.893,96.763 447.287,96.562 C447.639,96.382 448.24,96.333 450.752,96.333 L479.248,96.333 C481.76,96.333 482.361,96.382 482.713,96.562 C483.107,96.763 483.428,97.083 483.629,97.477 C483.808,97.829 483.857,98.431 483.857,100.943 L483.857,106.81 C483.857,107.967 484.795,108.905 485.952,108.905 C487.11,108.905 488.048,107.967 488.048,106.81 Z M465,106.81 L465.01,106.81 C466.168,106.81 467.106,105.871 467.106,104.714 C467.106,103.557 466.168,102.619 465.01,102.619 L465,102.619 C463.843,102.619 462.905,103.557 462.905,104.714 C462.905,105.871 463.843,106.81 465,106.81 Z M475.476,106.81 L475.487,106.81 C476.644,106.81 477.582,105.871 477.582,104.714 C477.582,103.557 476.644,102.619 475.487,102.619 L475.476,102.619 C474.319,102.619 473.381,103.557 473.381,104.714 C473.381,105.871 474.319,106.81 475.476,106.81 Z M454.524,106.81 L454.534,106.81 C455.691,106.81 456.63,105.871 456.63,104.714 C456.63,103.557 455.691,102.619 454.534,102.619 L454.524,102.619 C453.367,102.619 452.429,103.557 452.429,104.714 C452.429,105.871 453.367,106.81 454.524,106.81 Z M482.286,119.381 L482.286,115.714 C482.286,112.532 479.706,109.952 476.524,109.952 C473.342,109.952 470.762,112.532 470.762,115.714 L470.762,119.381 C470.762,120.538 471.7,121.476 472.857,121.476 C474.014,121.476 474.952,120.538 474.952,119.381 L474.952,115.714 C474.952,114.846 475.656,114.143 476.524,114.143 C477.392,114.143 478.095,114.846 478.095,115.714 L478.095,119.381 C478.095,120.538 479.033,121.476 480.19,121.476 C481.348,121.476 482.286,120.538 482.286,119.381 Z M463.429,104.714 C463.429,103.846 464.132,103.143 465,103.143 C465.868,103.143 466.571,103.846 466.571,104.714 C466.571,105.582 465.868,106.286 465,106.286 C464.132,106.286 463.429,105.582 463.429,104.714 Z M467.619,104.714 C467.619,103.268 466.446,102.095 465,102.095 C463.554,102.095 462.381,103.268 462.381,104.714 C462.381,106.161 463.554,107.333 465,107.333 C466.446,107.333 467.619,106.161 467.619,104.714 Z M473.905,104.714 C473.905,103.846 474.608,103.143 475.476,103.143 C476.344,103.143 477.048,103.846 477.048,104.714 C477.048,105.582 476.344,106.286 475.476,106.286 C474.608,106.286 473.905,105.582 473.905,104.714 Z M478.095,104.714 C478.095,103.268 476.923,102.095 475.476,102.095 C474.03,102.095 472.857,103.268 472.857,104.714 C472.857,106.161 474.03,107.333 475.476,107.333 C476.923,107.333 478.095,106.161 478.095,104.714 Z M452.952,104.714 C452.952,103.846 453.656,103.143 454.524,103.143 C455.392,103.143 456.095,103.846 456.095,104.714 C456.095,105.582 455.392,106.286 454.524,106.286 C453.656,106.286 452.952,105.582 452.952,104.714 Z M457.143,104.714 C457.143,103.268 455.97,102.095 454.524,102.095 C453.077,102.095 451.905,103.268 451.905,104.714 C451.905,106.161 453.077,107.333 454.524,107.333 C455.97,107.333 457.143,106.161 457.143,104.714 Z M472.543,129.857 L480.505,129.857 C482.392,129.857 482.839,129.821 483.664,129.401 C484.453,128.999 485.094,128.358 485.496,127.569 C485.916,126.744 485.952,126.297 485.952,124.41 L485.952,122.733 C485.952,120.846 485.916,120.399 485.496,119.574 C485.094,118.785 484.453,118.144 483.664,117.742 C482.839,117.322 482.392,117.286 480.505,117.286 L472.543,117.286 C470.655,117.286 470.208,117.322 469.384,117.742 C468.595,118.144 467.954,118.785 467.552,119.574 C467.132,120.399 467.095,120.846 467.095,122.733 L467.095,124.41 C467.095,126.297 467.132,126.744 467.552,127.569 C467.954,128.358 468.595,128.999 469.383,129.4 C470.208,129.821 470.655,129.857 472.543,129.857 Z M472.543,125.667 C471.497,125.667 471.245,125.646 471.285,125.667 C471.286,125.667 471.286,125.667 471.286,125.667 C471.306,125.707 471.286,125.455 471.286,124.41 L471.286,122.733 C471.286,121.688 471.306,121.436 471.286,121.476 C471.286,121.476 471.286,121.476 471.286,121.476 C471.245,121.497 471.497,121.476 472.543,121.476 L480.505,121.476 C481.55,121.476 481.802,121.497 481.762,121.476 C481.762,121.476 481.762,121.476 481.762,121.476 C481.741,121.436 481.762,121.688 481.762,122.733 L481.762,124.41 C481.762,125.455 481.741,125.707 481.762,125.667 C481.762,125.667 481.762,125.667 481.762,125.667 C481.802,125.646 481.55,125.667 480.505,125.667 L472.543,125.667 Z" />
        </g>
        <g id="Black-M" transform="translate(0,200)">
            <path d="M688.048,106.81 L688.048,100.943 C688.048,97.589 687.983,96.792 687.363,95.575 C686.76,94.392 685.798,93.431 684.616,92.828 C683.398,92.208 682.602,92.143 679.248,92.143 L650.752,92.143 C647.398,92.143 646.602,92.208 645.385,92.828 C644.202,93.431 643.24,94.392 642.638,95.575 C642.017,96.792 641.952,97.589 641.952,100.943 L641.952,108.486 C641.952,111.84 642.017,112.636 642.637,113.853 C643.24,115.036 644.202,115.998 645.384,116.601 C646.602,117.221 647.398,117.286 650.752,117.286 L662.905,117.286 C664.062,117.286 665,116.348 665,115.19 C665,114.033 664.062,113.095 662.905,113.095 L650.752,113.095 C648.24,113.095 647.639,113.046 647.287,112.867 C646.893,112.666 646.572,112.345 646.371,111.951 C646.192,111.599 646.143,110.998 646.143,108.486 L646.143,100.943 C646.143,98.431 646.192,97.829 646.371,97.477 C646.572,97.083 646.893,96.763 647.287,96.562 C647.639,96.382 648.24,96.333 650.752,96.333 L679.248,96.333 C681.76,96.333 682.361,96.382 682.713,96.562 C683.107,96.763 683.428,97.083 683.629,97.477 C683.808,97.829 683.857,98.431 683.857,100.943 L683.857,106.81 C683.857,107.967 684.795,108.905 685.952,108.905 C687.109,108.905 688.048,107.967 688.048,106.81 Z M665,106.81 L665.01,106.81 C666.168,106.81 667.106,105.871 667.106,104.714 C667.106,103.557 666.168,102.619 665.01,102.619 L665,102.619 C663.843,102.619 662.905,103.557 662.905,104.714 C662.905,105.871 663.843,106.81 665,106.81 Z M675.476,106.81 L675.487,106.81 C676.644,106.81 677.582,105.871 677.582,104.714 C677.582,103.557 676.644,102.619 675.487,102.619 L675.476,102.619 C674.319,102.619 673.381,103.557 673.381,104.714 C673.381,105.871 674.319,106.81 675.476,106.81 Z M654.524,106.81 L654.534,106.81 C655.691,106.81 656.63,105.871 656.63,104.714 C656.63,103.557 655.691,102.619 654.534,102.619 L654.524,102.619 C653.367,102.619 652.429,103.557 652.429,104.714 C652.429,105.871 653.367,106.81 654.524,106.81 Z M682.286,119.381 L682.286,115.714 C682.286,112.532 679.706,109.952 676.524,109.952 C673.342,109.952 670.762,112.532 670.762,115.714 L670.762,119.381 C670.762,120.538 671.7,121.476 672.857,121.476 C674.014,121.476 674.952,120.538 674.952,119.381 L674.952,115.714 C674.952,114.846 675.656,114.143 676.524,114.143 C677.392,114.143 678.095,114.846 678.095,115.714 L678.095,119.381 C678.095,120.538 679.033,121.476 680.19,121.476 C681.348,121.476 682.286,120.538 682.286,119.381 Z M663.429,104.714 C663.429,103.846 664.132,103.143 665,103.143 C665.868,103.143 666.571,103.846 666.571,104.714 C666.571,105.582 665.868,106.286 665,106.286 C664.132,106.286 663.429,105.582 663.429,104.714 Z M667.619,104.714 C667.619,103.268 666.446,102.095 665,102.095 C663.554,102.095 662.381,103.268 662.381,104.714 C662.381,106.161 663.554,107.333 665,107.333 C666.446,107.333 667.619,106.161 667.619,104.714 Z M673.905,104.714 C673.905,103.846 674.608,103.143 675.476,103.143 C676.344,103.143 677.048,103.846 677.048,104.714 C677.048,105.582 676.344,106.286 675.476,106.286 C674.608,106.286 673.905,105.582 673.905,104.714 Z M678.095,104.714 C678.095,103.268 676.923,102.095 675.476,102.095 C674.03,102.095 672.857,103.268 672.857,104.714 C672.857,106.161 674.03,107.333 675.476,107.333 C676.923,107.333 678.095,106.161 678.095,104.714 Z M652.952,104.714 C652.952,103.846 653.656,103.143 654.524,103.143 C655.392,103.143 656.095,103.846 656.095,104.714 C656.095,105.582 655.392,106.286 654.524,106.286 C653.656,106.286 652.952,105.582 652.952,104.714 Z M657.143,104.714 C657.143,103.268 655.97,102.095 654.524,102.095 C653.077,102.095 651.905,103.268 651.905,104.714 C651.905,106.161 653.077,107.333 654.524,107.333 C655.97,107.333 657.143,106.161 657.143,104.714 Z M672.543,129.857 L680.505,129.857 C682.392,129.857 682.839,129.821 683.664,129.401 C684.453,128.999 685.094,128.358 685.496,127.569 C685.916,126.744 685.952,126.297 685.952,124.41 L685.952,122.733 C685.952,120.846 685.916,120.399 685.496,119.574 C685.094,118.785 684.453,118.144 683.664,117.742 C682.839,117.322 682.392,117.286 680.505,117.286 L672.543,117.286 C670.655,117.286 670.208,117.322 669.383,117.742 C668.595,118.144 667.954,118.785 667.552,119.574 C667.132,120.399 667.095,120.846 667.095,122.733 L667.095,124.41 C667.095,126.297 667.132,126.744 667.552,127.569 C667.954,128.358 668.595,128.999 669.383,129.4 C670.208,129.821 670.655,129.857 672.543,129.857 Z M672.543,125.667 C671.497,125.667 671.245,125.646 671.285,125.667 C671.286,125.667 671.286,125.667 671.286,125.667 C671.306,125.707 671.286,125.455 671.286,124.41 L671.286,122.733 C671.286,121.688 671.306,121.436 671.286,121.476 C671.286,121.476 671.286,121.476 671.286,121.476 C671.245,121.497 671.497,121.476 672.543,121.476 L680.505,121.476 C681.55,121.476 681.802,121.497 681.762,121.476 C681.762,121.476 681.762,121.476 681.762,121.476 C681.741,121.436 681.762,121.688 681.762,122.733 L681.762,124.41 C681.762,125.455 681.741,125.707 681.762,125.667 C681.762,125.667 681.762,125.667 681.762,125.667 C681.802,125.646 681.55,125.667 680.505,125.667 L672.543,125.667 Z" />
        </g>
    </g>
</svg>