<?xml version="1.0" encoding="UTF-8"?>
<svg height="600" width="800" xmlns="http://www.w3.org/2000/svg" xmlns:xlink="http://www.w3.org/1999/xlink">
    <g id="Notes" font-family="LucidaGrande, 'Lucida Grande', sans-serif" font-size="13">
        <rect fill="white" height="600.0" width="800.0" x="0.0" y="0.0" />
        <g font-size="13">
            <text x="18.0" y="176.0">Small</text>
            <text x="18.0" y="376.0">Medium</text>
            <text x="18.0" y="576.0">Large</text>
        </g>
        <g font-size="9">
            <text x="250.0" y="30.0">Ultralight</text>
            <text x="450.0" y="30.0">Regular</text>
            <text x="650.0" y="30.0">Black</text>
            <text id="template-version" fill="#505050" text-anchor="end" x="785.0" y="575.0">Template v.3.0</text>
            <a href="https://github.com/swhitty/SwiftDraw">
                <text fill="#505050" text-anchor="end" x="785.0" y="590.0">https://github.com/swhitty/SwiftDraw</text>
            </a>
        </g>
    </g>
    <g id="Guides" stroke="rgb(39, 170, 225)" stroke-width="0.5">
        <path id="Capline-S" d="M18,76 l800,0" />
        <path id="H-reference" d="M85,145.755 L87.685,145.755 L113.369,79.287 L114.052,79.287 L114.052,76 L112.148,76 L85,145.755 Z M95.693,121.536 L130.996,121.536 L130.263,119.313 L96.474,119.313 L95.693,121.536 Z M139.15,145.755 L141.787,145.755 L114.638,76 L113.466,76 L113.466,79.287 L139.15,145.755 Z" stroke="none" transform="translate(0,200)" />
        <path id="Baseline-S" d="M18,146 l800,0" />
        <path id="left-margin-Ultralight-M" d="M230,256 l0,110" />
        <path id="right-margin-Ultralight-M" d="M300,256 l0,110" />
        <path id="left-margin-Regular-M" d="M430,256 l0,110" />
        <path id="right-margin-Regular-M" d="M500,256 l0,110" />
        <path id="left-margin-Black-M" d="M630,256 l0,110" />
        <path id="right-margin-Black-M" d="M700,256 l0,110" />
        <path id="Capline-M" d="M18,276 l800,0" />
        <path id="Baseline-M" d="M18,346 l800,0" />
        <path id="Capline-L" d="M18,476 l800,0" />
        <path id="Baseline-L" d="M18,546 l800,0" />
    </g>
    <g id="Symbols">
        <g id="Ultralight-M" transform="translate(0,200)">
            <path d="M262.083,105.167 L248.083,105.167 C243.414,105.167 242.306,105.257 240.611,106.12 C238.964,106.959 237.626,108.298 236.787,109.944 C235.924,111.639 235.833,112.747 235.833,117.417 L235.833,137.25 C235.833,138.861 237.139,140.167 238.75,140.167 C240.361,140.167 241.667,138.861 241.667,137.25 L241.667,117.417 C241.667,113.919 241.735,113.082 241.985,112.592 C242.264,112.044 242.71,111.598 243.259,111.318 C243.749,111.068 244.586,111 248.083,111 L262.083,111 C263.694,111 265,109.694 265,108.083 C265,106.473 263.694,105.167 262.083,105.167 Z M294.167,137.25 L294.167,94.083 C294.167,89.414 294.076,88.306 293.213,86.611 C292.374,84.964 291.036,83.626 289.389,82.787 C287.694,81.924 286.586,81.833 281.917,81.833 L271.417,81.833 C266.747,81.833 265.639,81.924 263.945,82.787 C262.298,83.626 260.959,84.964 260.12,86.611 C259.257,88.306 259.167,89.414 259.167,94.083 L259.167,137.25 C259.167,138.861 260.473,140.167 262.083,140.167 C263.694,140.167 265,138.861 265,137.25 L265,94.083 C265,90.586 265.068,89.749 265.318,89.259 C265.598,88.71 266.044,88.264 266.592,87.985 C267.082,87.735 267.919,87.667 271.417,87.667 L281.917,87.667 C285.414,87.667 286.251,87.735 286.741,87.985 C287.29,88.264 287.736,88.71 288.015,89.259 C288.265,89.749 288.333,90.586 288.333,94.083 L288.333,137.25 C288.333,138.861 289.639,140.167 291.25,140.167 C292.861,140.167 294.167,138.861 294.167,137.25 Z M294.167,134.333 L235.833,134.333 C234.223,134.333 232.917,135.639 232.917,137.25 C232.917,138.861 234.223,140.167 235.833,140.167 L294.167,140.167 C295.777,140.167 297.083,138.861 297.083,137.25 C297.083,135.639 295.777,134.333 294.167,134.333 Z M272.292,99.333 L281.042,99.333 C282.652,99.333 283.958,98.027 283.958,96.417 C283.958,94.806 282.652,93.5 281.042,93.5 L272.292,93.5 C270.681,93.5 269.375,94.806 269.375,96.417 C269.375,98.027 270.681,99.333 272.292,99.333 Z M272.292,111 L281.042,111 C282.652,111 283.958,109.694 283.958,108.083 C283.958,106.473 282.652,105.167 281.042,105.167 L272.292,105.167 C270.681,105.167 269.375,106.473 269.375,108.083 C269.375,109.694 270.681,111 272.292,111 Z M272.292,122.667 L281.042,122.667 C282.652,122.667 283.958,121.361 283.958,119.75 C283.958,118.139 282.652,116.833 281.042,116.833 L272.292,116.833 C270.681,116.833 269.375,118.139 269.375,119.75 C269.375,121.361 270.681,122.667 272.292,122.667 Z" />
        </g>
        <g id="Regular-M" transform="translate(0,200)">
            <path d="M462.083,105.167 L448.083,105.167 C443.414,105.167 442.306,105.257 440.611,106.12 C438.964,106.959 437.626,108.298 436.787,109.944 C435.924,111.639 435.833,112.747 435.833,117.417 L435.833,137.25 C435.833,138.861 437.139,140.167 438.75,140.167 C440.361,140.167 441.667,138.861 441.667,137.25 L441.667,117.417 C441.667,113.919 441.735,113.082 441.985,112.592 C442.264,112.044 442.71,111.598 443.259,111.318 C443.749,111.068 444.586,111 448.083,111 L462.083,111 C463.694,111 465,109.694 465,108.083 C465,106.473 463.694,105.167 462.083,105.167 Z M494.167,137.25 L494.167,94.083 C494.167,89.414 494.076,88.306 493.213,86.611 C492.374,84.964 491.036,83.626 489.389,82.787 C487.694,81.924 486.586,81.833 481.917,81.833 L471.417,81.833 C466.747,81.833 465.639,81.924 463.945,82.787 C462.298,83.626 460.959,84.964 460.12,86.611 C459.257,88.306 459.167,89.414 459.167,94.083 L459.167,137.25 C459.167,138.861 460.473,140.167 462.083,140.167 C463.694,140.167 465,138.861 465,137.25 L465,94.083 C465,90.586 465.068,89.749 465.318,89.259 C465.598,88.71 466.044,88.264 466.592,87.985 C467.082,87.735 467.919,87.667 471.417,87.667 L481.917,87.667 C485.414,87.667 486.251,87.735 486.741,87.985 C487.29,88.264 487.736,88.71 488.015,89.259 C488.265,89.749 488.333,90.586 488.333,94.083 L488.333,137.25 C488.333,138.861 489.639,140.167 491.25,140.167 C492.861,140.167 494.167,138.861 494.167,137.25 Z M494.167,134.333 L435.833,134.333 C434.223,134.333 432.917,135.639 432.917,137.25 C432.917,138.861 434.223,140.167 435.833,140.167 L494.167,140.167 C495.777,140.167 497.083,138.861 497.083,137.25 C497.083,135.639 495.777,134.333 494.167,134.333 Z M472.292,99.333 L481.042,99.333 C482.652,99.333 483.958,98.027 483.958,96.417 C483.958,94.806 482.652,93.5 481.042,93.5 L472.292,93.5 C470.681,93.5 469.375,94.806 469.375,96.417 C469.375,98.027 470.681,99.333 472.292,99.333 Z M472.292,111 L481.042,111 C482.652,111 483.958,109.694 483.958,108.083 C483.958,106.473 482.652,105.167 481.042,105.167 L472.292,105.167 C470.681,105.167 469.375,106.473 469.375,108.083 C469.375,109.694 470.681,111 472.292,111 Z M472.292,122.667 L481.042,122.667 C482.652,122.667 483.958,121.361 483.958,119.75 C483.958,118.139 482.652,116.833 481.042,116.833 L472.292,116.833 C470.681,116.833 469.375,118.139 469.375,119.75 C469.375,121.361 470.681,122.667 472.292,122.667 Z" />
        </g>
        <g id="Black-M" transform="translate(0,200)">
            <path d="M662.083,105.167 L648.083,105.167 C643.414,105.167 642.305,105.257 640.611,106.12 C638.964,106.959 637.626,108.298 636.787,109.944 C635.924,111.639 635.833,112.747 635.833,117.417 L635.833,137.25 C635.833,138.861 637.139,140.167 638.75,140.167 C640.361,140.167 641.667,138.861 641.667,137.25 L641.667,117.417 C641.667,113.919 641.735,113.082 641.985,112.592 C642.264,112.044 642.71,111.598 643.259,111.318 C643.749,111.068 644.586,111 648.083,111 L662.083,111 C663.694,111 665,109.694 665,108.083 C665,106.473 663.694,105.167 662.083,105.167 Z M694.167,137.25 L694.167,94.083 C694.167,89.414 694.076,88.306 693.213,86.611 C692.374,84.964 691.036,83.626 689.389,82.787 C687.695,81.924 686.586,81.833 681.917,81.833 L671.417,81.833 C666.747,81.833 665.639,81.924 663.945,82.787 C662.298,83.626 660.959,84.964 660.12,86.611 C659.257,88.306 659.167,89.414 659.167,94.083 L659.167,137.25 C659.167,138.861 660.472,140.167 662.083,140.167 C663.694,140.167 665,138.861 665,137.25 L665,94.083 C665,90.586 665.068,89.749 665.318,89.259 C665.598,88.71 666.044,88.264 666.593,87.985 C667.082,87.735 667.919,87.667 671.417,87.667 L681.917,87.667 C685.414,87.667 686.251,87.735 686.741,87.985 C687.29,88.264 687.736,88.71 688.015,89.259 C688.265,89.749 688.333,90.586 688.333,94.083 L688.333,137.25 C688.333,138.861 689.639,140.167 691.25,140.167 C692.861,140.167 694.167,138.861 694.167,137.25 Z M694.167,134.333 L635.833,134.333 C634.222,134.333 632.917,135.639 632.917,137.25 C632.917,138.861 634.222,140.167 635.833,140.167 L694.167,140.167 C695.777,140.167 697.083,138.861 697.083,137.25 C697.083,135.639 695.777,134.333 694.167,134.333 Z M672.292,99.333 L681.042,99.333 C682.652,99.333 683.958,98.027 683.958,96.417 C683.958,94.806 682.652,93.5 681.042,93.5 L672.292,93.5 C670.681,93.5 669.375,94.806 669.375,96.417 C669.375,98.027 670.681,99.333 672.292,99.333 Z M672.292,111 L681.042,111 C682.652,111 683.958,109.694 683.958,108.083 C683.958,106.473 682.652,105.167 681.042,105.167 L672.292,105.167 C670.681,105.167 669.375,106.473 669.375,108.083 C669.375,109.694 670.681,111 672.292,111 Z M672.292,122.667 L681.042,122.667 C682.652,122.667 683.958,121.361 683.958,119.75 C683.958,118.139 682.652,116.833 681.042,116.833 L672.292,116.833 C670.681,116.833 669.375,118.139 669.375,119.75 C669.375,121.361 670.681,122.667 672.292,122.667 Z" />
        </g>
    </g>
</svg>