<?xml version="1.0" encoding="UTF-8"?>
<svg height="600" width="800" xmlns="http://www.w3.org/2000/svg" xmlns:xlink="http://www.w3.org/1999/xlink">
    <g id="Notes" font-family="LucidaGrande, 'Lucida Grande', sans-serif" font-size="13">
        <rect fill="white" height="600.0" width="800.0" x="0.0" y="0.0" />
        <g font-size="13">
            <text x="18.0" y="176.0">Small</text>
            <text x="18.0" y="376.0">Medium</text>
            <text x="18.0" y="576.0">Large</text>
        </g>
        <g font-size="9">
            <text x="250.0" y="30.0">Ultralight</text>
            <text x="450.0" y="30.0">Regular</text>
            <text x="650.0" y="30.0">Black</text>
            <text id="template-version" fill="#505050" text-anchor="end" x="785.0" y="575.0">Template v.3.0</text>
            <a href="https://github.com/swhitty/SwiftDraw">
                <text fill="#505050" text-anchor="end" x="785.0" y="590.0">https://github.com/swhitty/SwiftDraw</text>
            </a>
        </g>
    </g>
    <g id="Guides" stroke="rgb(39, 170, 225)" stroke-width="0.5">
        <path id="Capline-S" d="M18,76 l800,0" />
        <path id="H-reference" d="M85,145.755 L87.685,145.755 L113.369,79.287 L114.052,79.287 L114.052,76 L112.148,76 L85,145.755 Z M95.693,121.536 L130.996,121.536 L130.263,119.313 L96.474,119.313 L95.693,121.536 Z M139.15,145.755 L141.787,145.755 L114.638,76 L113.466,76 L113.466,79.287 L139.15,145.755 Z" stroke="none" transform="translate(0,200)" />
        <path id="Baseline-S" d="M18,146 l800,0" />
        <path id="left-margin-Ultralight-M" d="M221,256 l0,110" />
        <path id="right-margin-Ultralight-M" d="M309,256 l0,110" />
        <path id="left-margin-Regular-M" d="M421,256 l0,110" />
        <path id="right-margin-Regular-M" d="M509,256 l0,110" />
        <path id="left-margin-Black-M" d="M621,256 l0,110" />
        <path id="right-margin-Black-M" d="M709,256 l0,110" />
        <path id="Capline-M" d="M18,276 l800,0" />
        <path id="Baseline-M" d="M18,346 l800,0" />
        <path id="Capline-L" d="M18,476 l800,0" />
        <path id="Baseline-L" d="M18,546 l800,0" />
    </g>
    <g id="Symbols">
        <g id="Ultralight-M" transform="translate(0,200)">
            <path d="M283.118,105.824 L283.118,89.259 C283.118,86.927 283.073,86.375 282.554,85.356 C282.057,84.382 281.265,83.59 280.291,83.094 C279.272,82.575 278.72,82.529 276.388,82.529 L253.612,82.529 C251.28,82.529 250.728,82.575 249.709,83.093 C248.735,83.59 247.943,84.382 247.447,85.356 C246.927,86.375 246.882,86.927 246.882,89.259 L246.882,105.824 C246.882,107.253 248.041,108.412 249.471,108.412 C250.9,108.412 252.059,107.253 252.059,105.824 L252.059,89.259 C252.059,87.967 252.084,87.656 252.059,87.706 C252.059,87.706 252.059,87.706 252.059,87.706 C252.009,87.731 252.32,87.706 253.612,87.706 L276.388,87.706 C277.68,87.706 277.991,87.731 277.942,87.706 C277.941,87.706 277.941,87.706 277.941,87.706 C277.916,87.656 277.941,87.967 277.941,89.259 L277.941,105.824 C277.941,107.253 279.1,108.412 280.529,108.412 C281.959,108.412 283.118,107.253 283.118,105.824 Z M280.529,103.235 L249.471,103.235 C248.041,103.235 246.882,104.394 246.882,105.824 C246.882,107.253 248.041,108.412 249.471,108.412 L280.529,108.412 C281.959,108.412 283.118,107.253 283.118,105.824 C283.118,104.394 281.959,103.235 280.529,103.235 Z M277.941,105.824 L277.941,106.341 C277.941,111.256 277.845,112.431 277.377,113.35 C276.881,114.324 276.089,115.116 275.115,115.612 C274.195,116.081 273.021,116.176 268.106,116.176 L261.894,116.176 C256.979,116.176 255.805,116.081 254.885,115.612 C253.911,115.116 253.119,114.324 252.623,113.35 C252.155,112.431 252.059,111.256 252.059,106.341 L252.059,105.824 C252.059,104.394 250.9,103.235 249.471,103.235 C248.041,103.235 246.882,104.394 246.882,105.824 L246.882,106.341 C246.882,112.297 246.998,113.712 248.011,115.7 C249.003,117.648 250.587,119.232 252.535,120.224 C254.524,121.237 255.939,121.353 261.894,121.353 L268.106,121.353 C274.061,121.353 275.476,121.237 277.465,120.225 C279.413,119.232 280.997,117.648 281.989,115.7 C283.002,113.712 283.118,112.297 283.118,106.341 L283.118,105.824 C283.118,104.394 281.959,103.235 280.529,103.235 C279.1,103.235 277.941,104.394 277.941,105.824 Z M268.882,118.765 L268.882,130.412 C268.882,132.556 267.144,134.294 265,134.294 C262.856,134.294 261.118,132.556 261.118,130.412 L261.118,118.765 C261.118,117.335 259.959,116.176 258.529,116.176 C257.1,116.176 255.941,117.335 255.941,118.765 L255.941,130.412 C255.941,135.415 259.997,139.471 265,139.471 C270.003,139.471 274.059,135.415 274.059,130.412 L274.059,118.765 C274.059,117.335 272.9,116.176 271.471,116.176 C270.041,116.176 268.882,117.335 268.882,118.765 Z" />
        </g>
        <g id="Regular-M" transform="translate(0,200)">
            <path d="M483.118,105.824 L483.118,89.259 C483.118,86.927 483.073,86.375 482.554,85.356 C482.057,84.382 481.265,83.59 480.291,83.094 C479.272,82.575 478.72,82.529 476.388,82.529 L453.612,82.529 C451.28,82.529 450.728,82.575 449.709,83.093 C448.735,83.59 447.943,84.382 447.447,85.356 C446.927,86.375 446.882,86.927 446.882,89.259 L446.882,105.824 C446.882,107.253 448.041,108.412 449.471,108.412 C450.9,108.412 452.059,107.253 452.059,105.824 L452.059,89.259 C452.059,87.967 452.084,87.656 452.059,87.706 C452.059,87.706 452.059,87.706 452.059,87.706 C452.009,87.731 452.32,87.706 453.612,87.706 L476.388,87.706 C477.68,87.706 477.991,87.731 477.942,87.706 C477.941,87.706 477.941,87.706 477.941,87.706 C477.916,87.656 477.941,87.967 477.941,89.259 L477.941,105.824 C477.941,107.253 479.1,108.412 480.529,108.412 C481.959,108.412 483.118,107.253 483.118,105.824 Z M480.529,103.235 L449.471,103.235 C448.041,103.235 446.882,104.394 446.882,105.824 C446.882,107.253 448.041,108.412 449.471,108.412 L480.529,108.412 C481.959,108.412 483.118,107.253 483.118,105.824 C483.118,104.394 481.959,103.235 480.529,103.235 Z M477.941,105.824 L477.941,106.341 C477.941,111.256 477.845,112.431 477.377,113.35 C476.881,114.324 476.089,115.116 475.115,115.612 C474.195,116.081 473.021,116.176 468.106,116.176 L461.894,116.176 C456.979,116.176 455.805,116.081 454.885,115.612 C453.911,115.116 453.119,114.324 452.623,113.35 C452.155,112.431 452.059,111.256 452.059,106.341 L452.059,105.824 C452.059,104.394 450.9,103.235 449.471,103.235 C448.041,103.235 446.882,104.394 446.882,105.824 L446.882,106.341 C446.882,112.297 446.998,113.712 448.011,115.7 C449.003,117.648 450.587,119.232 452.535,120.224 C454.524,121.237 455.939,121.353 461.894,121.353 L468.106,121.353 C474.061,121.353 475.476,121.237 477.465,120.225 C479.413,119.232 480.997,117.648 481.989,115.7 C483.002,113.712 483.118,112.297 483.118,106.341 L483.118,105.824 C483.118,104.394 481.959,103.235 480.529,103.235 C479.1,103.235 477.941,104.394 477.941,105.824 Z M468.882,118.765 L468.882,130.412 C468.882,132.556 467.144,134.294 465,134.294 C462.856,134.294 461.118,132.556 461.118,130.412 L461.118,118.765 C461.118,117.335 459.959,116.176 458.529,116.176 C457.1,116.176 455.941,117.335 455.941,118.765 L455.941,130.412 C455.941,135.415 459.997,139.471 465,139.471 C470.003,139.471 474.059,135.415 474.059,130.412 L474.059,118.765 C474.059,117.335 472.9,116.176 471.471,116.176 C470.041,116.176 468.882,117.335 468.882,118.765 Z" />
        </g>
        <g id="Black-M" transform="translate(0,200)">
            <path d="M683.118,105.824 L683.118,89.259 C683.118,86.927 683.073,86.375 682.554,85.356 C682.057,84.382 681.265,83.59 680.291,83.094 C679.272,82.575 678.72,82.529 676.388,82.529 L653.612,82.529 C651.28,82.529 650.728,82.575 649.709,83.093 C648.735,83.59 647.943,84.382 647.447,85.356 C646.927,86.375 646.882,86.927 646.882,89.259 L646.882,105.824 C646.882,107.253 648.041,108.412 649.471,108.412 C650.9,108.412 652.059,107.253 652.059,105.824 L652.059,89.259 C652.059,87.967 652.084,87.656 652.059,87.706 C652.059,87.706 652.059,87.706 652.059,87.706 C652.009,87.731 652.32,87.706 653.612,87.706 L676.388,87.706 C677.68,87.706 677.991,87.731 677.942,87.706 C677.941,87.706 677.941,87.706 677.941,87.706 C677.916,87.656 677.941,87.967 677.941,89.259 L677.941,105.824 C677.941,107.253 679.1,108.412 680.529,108.412 C681.959,108.412 683.118,107.253 683.118,105.824 Z M680.529,103.235 L649.471,103.235 C648.041,103.235 646.882,104.394 646.882,105.824 C646.882,107.253 648.041,108.412 649.471,108.412 L680.529,108.412 C681.959,108.412 683.118,107.253 683.118,105.824 C683.118,104.394 681.959,103.235 680.529,103.235 Z M677.941,105.824 L677.941,106.341 C677.941,111.256 677.845,112.431 677.377,113.35 C676.881,114.324 676.089,115.116 675.115,115.612 C674.195,116.081 673.021,116.176 668.106,116.176 L661.894,116.176 C656.979,116.176 655.805,116.081 654.885,115.612 C653.911,115.116 653.119,114.324 652.623,113.35 C652.155,112.431 652.059,111.256 652.059,106.341 L652.059,105.824 C652.059,104.394 650.9,103.235 649.471,103.235 C648.041,103.235 646.882,104.394 646.882,105.824 L646.882,106.341 C646.882,112.297 646.998,113.712 648.011,115.7 C649.003,117.648 650.587,119.232 652.535,120.224 C654.524,121.237 655.939,121.353 661.894,121.353 L668.106,121.353 C674.061,121.353 675.476,121.237 677.465,120.225 C679.413,119.232 680.997,117.648 681.989,115.7 C683.002,113.712 683.118,112.297 683.118,106.341 L683.118,105.824 C683.118,104.394 681.959,103.235 680.529,103.235 C679.1,103.235 677.941,104.394 677.941,105.824 Z M668.882,118.765 L668.882,130.412 C668.882,132.556 667.144,134.294 665,134.294 C662.856,134.294 661.118,132.556 661.118,130.412 L661.118,118.765 C661.118,117.335 659.959,116.176 658.529,116.176 C657.1,116.176 655.941,117.335 655.941,118.765 L655.941,130.412 C655.941,135.415 659.997,139.471 665,139.471 C670.003,139.471 674.059,135.415 674.059,130.412 L674.059,118.765 C674.059,117.335 672.9,116.176 671.471,116.176 C670.041,116.176 668.882,117.335 668.882,118.765 Z" />
        </g>
    </g>
</svg>