<?xml version="1.0" encoding="UTF-8"?>
<svg height="600" width="800" xmlns="http://www.w3.org/2000/svg" xmlns:xlink="http://www.w3.org/1999/xlink">
    <g id="Notes" font-family="LucidaGrande, 'Lucida Grande', sans-serif" font-size="13">
        <rect fill="white" height="600.0" width="800.0" x="0.0" y="0.0" />
        <g font-size="13">
            <text x="18.0" y="176.0">Small</text>
            <text x="18.0" y="376.0">Medium</text>
            <text x="18.0" y="576.0">Large</text>
        </g>
        <g font-size="9">
            <text x="250.0" y="30.0">Ultralight</text>
            <text x="450.0" y="30.0">Regular</text>
            <text x="650.0" y="30.0">Black</text>
            <text id="template-version" fill="#505050" text-anchor="end" x="785.0" y="575.0">Template v.3.0</text>
            <a href="https://github.com/swhitty/SwiftDraw">
                <text fill="#505050" text-anchor="end" x="785.0" y="590.0">https://github.com/swhitty/SwiftDraw</text>
            </a>
        </g>
    </g>
    <g id="Guides" stroke="rgb(39, 170, 225)" stroke-width="0.5">
        <path id="Capline-S" d="M18,76 l800,0" />
        <path id="H-reference" d="M85,145.755 L87.685,145.755 L113.369,79.287 L114.052,79.287 L114.052,76 L112.148,76 L85,145.755 Z M95.693,121.536 L130.996,121.536 L130.263,119.313 L96.474,119.313 L95.693,121.536 Z M139.15,145.755 L141.787,145.755 L114.638,76 L113.466,76 L113.466,79.287 L139.15,145.755 Z" stroke="none" transform="translate(0,200)" />
        <path id="Baseline-S" d="M18,146 l800,0" />
        <path id="left-margin-Ultralight-M" d="M230,256 l0,110" />
        <path id="right-margin-Ultralight-M" d="M300,256 l0,110" />
        <path id="left-margin-Regular-M" d="M430,256 l0,110" />
        <path id="right-margin-Regular-M" d="M500,256 l0,110" />
        <path id="left-margin-Black-M" d="M630,256 l0,110" />
        <path id="right-margin-Black-M" d="M700,256 l0,110" />
        <path id="Capline-M" d="M18,276 l800,0" />
        <path id="Baseline-M" d="M18,346 l800,0" />
        <path id="Capline-L" d="M18,476 l800,0" />
        <path id="Baseline-L" d="M18,546 l800,0" />
    </g>
    <g id="Symbols">
        <g id="Ultralight-M" transform="translate(0,200)">
            <path d="M287.273,104.636 L287.273,84.273 C287.273,81.406 287.217,80.727 286.579,79.475 C285.969,78.277 284.996,77.304 283.798,76.694 C282.545,76.055 281.867,76 279,76 L251,76 C248.133,76 247.455,76.055 246.202,76.693 C245.004,77.304 244.031,78.277 243.421,79.475 C242.783,80.727 242.727,81.406 242.727,84.273 L242.727,104.636 C242.727,106.394 244.152,107.818 245.909,107.818 C247.666,107.818 249.091,106.394 249.091,104.636 L249.091,84.273 C249.091,82.685 249.122,82.302 249.091,82.363 C249.091,82.364 249.091,82.364 249.091,82.364 C249.03,82.395 249.412,82.364 251,82.364 L279,82.364 C280.588,82.364 280.97,82.395 280.91,82.364 C280.909,82.364 280.909,82.364 280.909,82.364 C280.878,82.302 280.909,82.685 280.909,84.273 L280.909,104.636 C280.909,106.394 282.334,107.818 284.091,107.818 C285.848,107.818 287.273,106.394 287.273,104.636 Z M284.091,101.455 L245.909,101.455 C244.152,101.455 242.727,102.879 242.727,104.636 C242.727,106.394 244.152,107.818 245.909,107.818 L284.091,107.818 C285.848,107.818 287.273,106.394 287.273,104.636 C287.273,102.879 285.848,101.455 284.091,101.455 Z M280.909,104.636 L280.909,105.273 C280.909,111.315 280.791,112.759 280.215,113.89 C279.605,115.086 278.632,116.06 277.435,116.67 C276.304,117.246 274.861,117.364 268.818,117.364 L261.182,117.364 C255.139,117.364 253.696,117.246 252.565,116.67 C251.368,116.06 250.395,115.086 249.785,113.889 C249.209,112.759 249.091,111.315 249.091,105.273 L249.091,104.636 C249.091,102.879 247.666,101.455 245.909,101.455 C244.152,101.455 242.727,102.879 242.727,104.636 L242.727,105.273 C242.727,112.594 242.869,114.334 244.114,116.778 C245.335,119.173 247.282,121.12 249.676,122.34 C252.121,123.585 253.861,123.727 261.182,123.727 L268.818,123.727 C276.139,123.727 277.879,123.585 280.323,122.34 C282.718,121.12 284.665,119.173 285.885,116.778 C287.131,114.334 287.273,112.594 287.273,105.273 L287.273,104.636 C287.273,102.879 285.848,101.455 284.091,101.455 C282.334,101.455 280.909,102.879 280.909,104.636 Z M269.773,120.545 L269.773,134.864 C269.773,137.5 267.636,139.636 265,139.636 C262.364,139.636 260.227,137.5 260.227,134.864 L260.227,120.545 C260.227,118.788 258.803,117.364 257.045,117.364 C255.288,117.364 253.864,118.788 253.864,120.545 L253.864,134.864 C253.864,141.014 258.85,146 265,146 C271.15,146 276.136,141.014 276.136,134.864 L276.136,120.545 C276.136,118.788 274.712,117.364 272.955,117.364 C271.197,117.364 269.773,118.788 269.773,120.545 Z" />
        </g>
        <g id="Regular-M" transform="translate(0,200)">
            <path d="M487.273,104.636 L487.273,84.273 C487.273,81.406 487.217,80.727 486.579,79.475 C485.969,78.277 484.996,77.304 483.798,76.694 C482.545,76.055 481.867,76 479,76 L451,76 C448.133,76 447.455,76.055 446.202,76.693 C445.004,77.304 444.031,78.277 443.421,79.475 C442.783,80.727 442.727,81.406 442.727,84.273 L442.727,104.636 C442.727,106.394 444.152,107.818 445.909,107.818 C447.666,107.818 449.091,106.394 449.091,104.636 L449.091,84.273 C449.091,82.685 449.122,82.302 449.091,82.363 C449.091,82.364 449.091,82.364 449.091,82.364 C449.03,82.395 449.412,82.364 451,82.364 L479,82.364 C480.588,82.364 480.97,82.395 480.91,82.364 C480.909,82.364 480.909,82.364 480.909,82.364 C480.878,82.302 480.909,82.685 480.909,84.273 L480.909,104.636 C480.909,106.394 482.334,107.818 484.091,107.818 C485.848,107.818 487.273,106.394 487.273,104.636 Z M484.091,101.455 L445.909,101.455 C444.152,101.455 442.727,102.879 442.727,104.636 C442.727,106.394 444.152,107.818 445.909,107.818 L484.091,107.818 C485.848,107.818 487.273,106.394 487.273,104.636 C487.273,102.879 485.848,101.455 484.091,101.455 Z M480.909,104.636 L480.909,105.273 C480.909,111.315 480.791,112.759 480.215,113.89 C479.605,115.086 478.632,116.06 477.435,116.67 C476.304,117.246 474.861,117.364 468.818,117.364 L461.182,117.364 C455.139,117.364 453.696,117.246 452.565,116.67 C451.368,116.06 450.395,115.086 449.785,113.889 C449.209,112.759 449.091,111.315 449.091,105.273 L449.091,104.636 C449.091,102.879 447.666,101.455 445.909,101.455 C444.152,101.455 442.727,102.879 442.727,104.636 L442.727,105.273 C442.727,112.594 442.869,114.334 444.114,116.778 C445.335,119.173 447.282,121.12 449.676,122.34 C452.121,123.585 453.861,123.727 461.182,123.727 L468.818,123.727 C476.139,123.727 477.879,123.585 480.323,122.34 C482.718,121.12 484.665,119.173 485.885,116.778 C487.131,114.334 487.273,112.594 487.273,105.273 L487.273,104.636 C487.273,102.879 485.848,101.455 484.091,101.455 C482.334,101.455 480.909,102.879 480.909,104.636 Z M469.773,120.545 L469.773,134.864 C469.773,137.5 467.636,139.636 465,139.636 C462.364,139.636 460.227,137.5 460.227,134.864 L460.227,120.545 C460.227,118.788 458.803,117.364 457.045,117.364 C455.288,117.364 453.864,118.788 453.864,120.545 L453.864,134.864 C453.864,141.014 458.85,146 465,146 C471.15,146 476.136,141.014 476.136,134.864 L476.136,120.545 C476.136,118.788 474.712,117.364 472.955,117.364 C471.197,117.364 469.773,118.788 469.773,120.545 Z" />
        </g>
        <g id="Black-M" transform="translate(0,200)">
            <path d="M687.273,104.636 L687.273,84.273 C687.273,81.406 687.217,80.727 686.579,79.475 C685.969,78.277 684.996,77.304 683.798,76.694 C682.545,76.055 681.867,76 679,76 L651,76 C648.133,76 647.455,76.055 646.202,76.693 C645.004,77.304 644.031,78.277 643.421,79.475 C642.783,80.727 642.727,81.406 642.727,84.273 L642.727,104.636 C642.727,106.394 644.152,107.818 645.909,107.818 C647.666,107.818 649.091,106.394 649.091,104.636 L649.091,84.273 C649.091,82.685 649.122,82.302 649.091,82.363 C649.091,82.364 649.091,82.364 649.091,82.364 C649.03,82.395 649.412,82.364 651,82.364 L679,82.364 C680.588,82.364 680.97,82.395 680.91,82.364 C680.909,82.364 680.909,82.364 680.909,82.364 C680.878,82.302 680.909,82.685 680.909,84.273 L680.909,104.636 C680.909,106.394 682.334,107.818 684.091,107.818 C685.848,107.818 687.273,106.394 687.273,104.636 Z M684.091,101.455 L645.909,101.455 C644.152,101.455 642.727,102.879 642.727,104.636 C642.727,106.394 644.152,107.818 645.909,107.818 L684.091,107.818 C685.848,107.818 687.273,106.394 687.273,104.636 C687.273,102.879 685.848,101.455 684.091,101.455 Z M680.909,104.636 L680.909,105.273 C680.909,111.315 680.791,112.759 680.215,113.89 C679.605,115.086 678.632,116.06 677.435,116.67 C676.304,117.246 674.861,117.364 668.818,117.364 L661.182,117.364 C655.139,117.364 653.696,117.246 652.565,116.67 C651.368,116.06 650.395,115.086 649.785,113.889 C649.209,112.759 649.091,111.315 649.091,105.273 L649.091,104.636 C649.091,102.879 647.666,101.455 645.909,101.455 C644.152,101.455 642.727,102.879 642.727,104.636 L642.727,105.273 C642.727,112.594 642.869,114.334 644.114,116.778 C645.335,119.173 647.282,121.12 649.676,122.34 C652.121,123.585 653.861,123.727 661.182,123.727 L668.818,123.727 C676.139,123.727 677.879,123.585 680.323,122.34 C682.718,121.12 684.665,119.173 685.885,116.778 C687.131,114.334 687.273,112.594 687.273,105.273 L687.273,104.636 C687.273,102.879 685.848,101.455 684.091,101.455 C682.334,101.455 680.909,102.879 680.909,104.636 Z M669.773,120.545 L669.773,134.864 C669.773,137.5 667.636,139.636 665,139.636 C662.364,139.636 660.227,137.5 660.227,134.864 L660.227,120.545 C660.227,118.788 658.803,117.364 657.045,117.364 C655.288,117.364 653.864,118.788 653.864,120.545 L653.864,134.864 C653.864,141.014 658.85,146 665,146 C671.15,146 676.136,141.014 676.136,134.864 L676.136,120.545 C676.136,118.788 674.712,117.364 672.955,117.364 C671.197,117.364 669.773,118.788 669.773,120.545 Z" />
        </g>
    </g>
</svg>