<?xml version="1.0" encoding="UTF-8"?>
<svg height="600" width="800" xmlns="http://www.w3.org/2000/svg" xmlns:xlink="http://www.w3.org/1999/xlink">
    <g id="Notes" font-family="LucidaGrande, 'Lucida Grande', sans-serif" font-size="13">
        <rect fill="white" height="600.0" width="800.0" x="0.0" y="0.0" />
        <g font-size="13">
            <text x="18.0" y="176.0">Small</text>
            <text x="18.0" y="376.0">Medium</text>
            <text x="18.0" y="576.0">Large</text>
        </g>
        <g font-size="9">
            <text x="250.0" y="30.0">Ultralight</text>
            <text x="450.0" y="30.0">Regular</text>
            <text x="650.0" y="30.0">Black</text>
            <text id="template-version" fill="#505050" text-anchor="end" x="785.0" y="575.0">Template v.3.0</text>
            <a href="https://github.com/swhitty/SwiftDraw">
                <text fill="#505050" text-anchor="end" x="785.0" y="590.0">https://github.com/swhitty/SwiftDraw</text>
            </a>
        </g>
    </g>
    <g id="Guides" stroke="rgb(39, 170, 225)" stroke-width="0.5">
        <path id="Capline-S" d="M18,76 l800,0" />
        <path id="H-reference" d="M85,145.755 L87.685,145.755 L113.369,79.287 L114.052,79.287 L114.052,76 L112.148,76 L85,145.755 Z M95.693,121.536 L130.996,121.536 L130.263,119.313 L96.474,119.313 L95.693,121.536 Z M139.15,145.755 L141.787,145.755 L114.638,76 L113.466,76 L113.466,79.287 L139.15,145.755 Z" stroke="none" transform="translate(0,200)" />
        <path id="Baseline-S" d="M18,146 l800,0" />
        <path id="left-margin-Ultralight-M" d="M230,256 l0,110" />
        <path id="right-margin-Ultralight-M" d="M300,256 l0,110" />
        <path id="left-margin-Regular-M" d="M430,256 l0,110" />
        <path id="right-margin-Regular-M" d="M500,256 l0,110" />
        <path id="left-margin-Black-M" d="M630,256 l0,110" />
        <path id="right-margin-Black-M" d="M700,256 l0,110" />
        <path id="Capline-M" d="M18,276 l800,0" />
        <path id="Baseline-M" d="M18,346 l800,0" />
        <path id="Capline-L" d="M18,476 l800,0" />
        <path id="Baseline-L" d="M18,546 l800,0" />
    </g>
    <g id="Symbols">
        <g id="Ultralight-M" transform="translate(0,200)">
            <path d="M267.905,130.091 L290.731,130.091 C292.489,130.091 293.913,128.666 293.913,126.909 C293.913,125.152 292.489,123.727 290.731,123.727 L267.905,123.727 C266.148,123.727 264.723,125.152 264.723,126.909 C264.723,128.666 266.148,130.091 267.905,130.091 Z M265.035,125.536 L258.948,138.264 C258.19,139.849 258.86,141.749 260.445,142.507 C262.031,143.265 263.93,142.594 264.689,141.009 L270.775,128.282 C271.534,126.697 270.863,124.797 269.278,124.039 C267.693,123.28 265.793,123.951 265.035,125.536 Z M270.775,128.282 L279.891,109.22 C280.34,108.282 280.505,107.952 280.644,107.719 C280.608,107.778 280.448,107.957 280.007,108.169 C279.572,108.378 279.064,108.378 278.628,108.168 C278.188,107.957 278.028,107.778 277.992,107.719 C278.132,107.952 278.297,108.282 278.745,109.22 L287.861,128.282 C288.619,129.867 290.519,130.538 292.104,129.78 C293.689,129.021 294.36,127.122 293.602,125.536 L284.486,106.474 C283.084,103.543 282.839,103.132 281.388,102.434 C280.081,101.804 278.556,101.804 277.247,102.435 C275.797,103.132 275.552,103.543 274.15,106.474 L265.035,125.536 C264.276,127.122 264.947,129.021 266.532,129.78 C268.118,130.538 270.017,129.867 270.775,128.282 Z M287.861,128.282 L293.948,141.009 C294.706,142.594 296.606,143.265 298.191,142.507 C299.776,141.749 300.447,139.849 299.689,138.264 L293.602,125.536 C292.844,123.951 290.944,123.28 289.359,124.039 C287.773,124.797 287.103,126.697 287.861,128.282 Z M233.182,91.909 L252.273,91.909 C254.03,91.909 255.455,90.485 255.455,88.727 C255.455,86.97 254.03,85.545 252.273,85.545 L233.182,85.545 C231.425,85.545 230,86.97 230,88.727 C230,90.485 231.425,91.909 233.182,91.909 Z M252.273,91.909 L263.409,91.909 C265.166,91.909 266.591,90.485 266.591,88.727 C266.591,86.97 265.166,85.545 263.409,85.545 L252.273,85.545 C250.515,85.545 249.091,86.97 249.091,88.727 C249.091,90.485 250.515,91.909 252.273,91.909 Z M255.455,88.727 L255.455,82.364 C255.455,80.606 254.03,79.182 252.273,79.182 C250.515,79.182 249.091,80.606 249.091,82.364 L249.091,88.727 C249.091,90.485 250.515,91.909 252.273,91.909 C254.03,91.909 255.455,90.485 255.455,88.727 Z M263.409,91.909 L271.364,91.909 C273.121,91.909 274.545,90.485 274.545,88.727 C274.545,86.97 273.121,85.545 271.364,85.545 L263.409,85.545 C261.652,85.545 260.227,86.97 260.227,88.727 C260.227,90.485 261.652,91.909 263.409,91.909 Z M260.271,88.201 C258.791,97.028 255.365,105.094 250.256,111.903 C249.201,113.308 249.486,115.303 250.891,116.358 C252.297,117.412 254.291,117.128 255.346,115.723 C261.071,108.094 264.899,99.077 266.547,89.254 C266.838,87.521 265.669,85.88 263.935,85.589 C262.202,85.299 260.562,86.468 260.271,88.201 Z M259.969,114.474 C258.115,113.619 256.366,112.555 254.755,111.301 C253.368,110.222 251.369,110.472 250.29,111.859 C249.211,113.246 249.46,115.245 250.847,116.324 C252.842,117.876 255.009,119.194 257.304,120.253 C258.899,120.989 260.79,120.292 261.526,118.696 C262.262,117.101 261.565,115.21 259.969,114.474 Z M254.735,111.286 C250.682,108.183 247.284,104.064 245.658,100.216 C244.974,98.597 243.107,97.84 241.489,98.524 C239.87,99.208 239.112,101.074 239.796,102.693 C241.881,107.627 245.983,112.6 250.867,116.339 C252.262,117.407 254.259,117.142 255.327,115.747 C256.396,114.352 256.131,112.355 254.735,111.286 Z M250.257,111.901 C245.381,118.39 239.05,123.643 231.773,127.238 C230.197,128.017 229.551,129.925 230.329,131.5 C231.107,133.076 233.016,133.722 234.591,132.944 C242.761,128.907 249.87,123.009 255.345,115.724 C256.4,114.319 256.117,112.325 254.712,111.269 C253.308,110.213 251.313,110.496 250.257,111.901 Z" />
        </g>
        <g id="Regular-M" transform="translate(0,200)">
            <path d="M467.905,130.091 L490.731,130.091 C492.489,130.091 493.913,128.666 493.913,126.909 C493.913,125.152 492.489,123.727 490.731,123.727 L467.905,123.727 C466.148,123.727 464.723,125.152 464.723,126.909 C464.723,128.666 466.148,130.091 467.905,130.091 Z M465.035,125.536 L458.948,138.264 C458.19,139.849 458.86,141.749 460.445,142.507 C462.031,143.265 463.93,142.594 464.689,141.009 L470.775,128.282 C471.534,126.697 470.863,124.797 469.278,124.039 C467.693,123.28 465.793,123.951 465.035,125.536 Z M470.775,128.282 L479.891,109.22 C480.34,108.282 480.505,107.952 480.644,107.719 C480.608,107.778 480.448,107.957 480.007,108.169 C479.572,108.378 479.064,108.378 478.628,108.168 C478.188,107.957 478.028,107.778 477.992,107.719 C478.132,107.952 478.297,108.282 478.745,109.22 L487.861,128.282 C488.619,129.867 490.519,130.538 492.104,129.78 C493.689,129.021 494.36,127.122 493.602,125.536 L484.486,106.474 C483.084,103.543 482.839,103.132 481.388,102.434 C480.081,101.804 478.556,101.804 477.247,102.435 C475.797,103.132 475.552,103.543 474.15,106.474 L465.035,125.536 C464.276,127.122 464.947,129.021 466.532,129.78 C468.118,130.538 470.017,129.867 470.775,128.282 Z M487.861,128.282 L493.948,141.009 C494.706,142.594 496.606,143.265 498.191,142.507 C499.776,141.749 500.447,139.849 499.689,138.264 L493.602,125.536 C492.844,123.951 490.944,123.28 489.359,124.039 C487.773,124.797 487.103,126.697 487.861,128.282 Z M433.182,91.909 L452.273,91.909 C454.03,91.909 455.455,90.485 455.455,88.727 C455.455,86.97 454.03,85.545 452.273,85.545 L433.182,85.545 C431.425,85.545 430,86.97 430,88.727 C430,90.485 431.425,91.909 433.182,91.909 Z M452.273,91.909 L463.409,91.909 C465.166,91.909 466.591,90.485 466.591,88.727 C466.591,86.97 465.166,85.545 463.409,85.545 L452.273,85.545 C450.515,85.545 449.091,86.97 449.091,88.727 C449.091,90.485 450.515,91.909 452.273,91.909 Z M455.455,88.727 L455.455,82.364 C455.455,80.606 454.03,79.182 452.273,79.182 C450.515,79.182 449.091,80.606 449.091,82.364 L449.091,88.727 C449.091,90.485 450.515,91.909 452.273,91.909 C454.03,91.909 455.455,90.485 455.455,88.727 Z M463.409,91.909 L471.364,91.909 C473.121,91.909 474.545,90.485 474.545,88.727 C474.545,86.97 473.121,85.545 471.364,85.545 L463.409,85.545 C461.652,85.545 460.227,86.97 460.227,88.727 C460.227,90.485 461.652,91.909 463.409,91.909 Z M460.271,88.201 C458.791,97.028 455.365,105.094 450.256,111.903 C449.201,113.308 449.486,115.303 450.891,116.358 C452.297,117.412 454.291,117.128 455.346,115.723 C461.071,108.094 464.899,99.077 466.547,89.254 C466.838,87.521 465.669,85.88 463.935,85.589 C462.202,85.299 460.562,86.468 460.271,88.201 Z M459.969,114.474 C458.115,113.619 456.366,112.555 454.755,111.301 C453.368,110.222 451.369,110.472 450.29,111.859 C449.211,113.246 449.46,115.245 450.847,116.324 C452.842,117.876 455.009,119.194 457.304,120.253 C458.899,120.989 460.79,120.292 461.526,118.696 C462.262,117.101 461.565,115.21 459.969,114.474 Z M454.735,111.286 C450.682,108.183 447.284,104.064 445.658,100.216 C444.974,98.597 443.107,97.84 441.489,98.524 C439.87,99.208 439.112,101.074 439.796,102.693 C441.881,107.627 445.983,112.6 450.867,116.339 C452.262,117.407 454.259,117.142 455.327,115.747 C456.396,114.352 456.131,112.355 454.735,111.286 Z M450.257,111.901 C445.381,118.39 439.05,123.643 431.773,127.238 C430.197,128.017 429.551,129.925 430.329,131.5 C431.107,133.076 433.016,133.722 434.591,132.944 C442.761,128.907 449.87,123.009 455.345,115.724 C456.4,114.319 456.117,112.325 454.712,111.269 C453.308,110.213 451.313,110.496 450.257,111.901 Z" />
        </g>
        <g id="Black-M" transform="translate(0,200)">
            <path d="M667.905,130.091 L690.731,130.091 C692.489,130.091 693.913,128.666 693.913,126.909 C693.913,125.152 692.489,123.727 690.731,123.727 L667.905,123.727 C666.148,123.727 664.723,125.152 664.723,126.909 C664.723,128.666 666.148,130.091 667.905,130.091 Z M665.035,125.536 L658.948,138.264 C658.19,139.849 658.86,141.749 660.445,142.507 C662.031,143.265 663.93,142.594 664.689,141.009 L670.775,128.282 C671.534,126.697 670.863,124.797 669.278,124.039 C667.693,123.28 665.793,123.951 665.035,125.536 Z M670.775,128.282 L679.891,109.22 C680.34,108.282 680.505,107.952 680.644,107.719 C680.608,107.778 680.448,107.957 680.007,108.169 C679.572,108.378 679.064,108.378 678.628,108.168 C678.188,107.957 678.028,107.778 677.992,107.719 C678.132,107.952 678.297,108.282 678.745,109.22 L687.861,128.282 C688.619,129.867 690.519,130.538 692.104,129.78 C693.689,129.021 694.36,127.122 693.602,125.536 L684.486,106.474 C683.084,103.543 682.839,103.132 681.388,102.434 C680.081,101.804 678.556,101.804 677.247,102.435 C675.797,103.132 675.552,103.543 674.151,106.474 L665.035,125.536 C664.276,127.122 664.947,129.021 666.532,129.78 C668.118,130.538 670.017,129.867 670.775,128.282 Z M687.861,128.282 L693.948,141.009 C694.706,142.594 696.606,143.265 698.191,142.507 C699.776,141.749 700.447,139.849 699.689,138.264 L693.602,125.536 C692.844,123.951 690.944,123.28 689.359,124.039 C687.773,124.797 687.103,126.697 687.861,128.282 Z M633.182,91.909 L652.273,91.909 C654.03,91.909 655.455,90.485 655.455,88.727 C655.455,86.97 654.03,85.545 652.273,85.545 L633.182,85.545 C631.425,85.545 630,86.97 630,88.727 C630,90.485 631.425,91.909 633.182,91.909 Z M652.273,91.909 L663.409,91.909 C665.166,91.909 666.591,90.485 666.591,88.727 C666.591,86.97 665.166,85.545 663.409,85.545 L652.273,85.545 C650.515,85.545 649.091,86.97 649.091,88.727 C649.091,90.485 650.515,91.909 652.273,91.909 Z M655.455,88.727 L655.455,82.364 C655.455,80.606 654.03,79.182 652.273,79.182 C650.515,79.182 649.091,80.606 649.091,82.364 L649.091,88.727 C649.091,90.485 650.515,91.909 652.273,91.909 C654.03,91.909 655.455,90.485 655.455,88.727 Z M663.409,91.909 L671.364,91.909 C673.121,91.909 674.545,90.485 674.545,88.727 C674.545,86.97 673.121,85.545 671.364,85.545 L663.409,85.545 C661.652,85.545 660.227,86.97 660.227,88.727 C660.227,90.485 661.652,91.909 663.409,91.909 Z M660.271,88.201 C658.791,97.028 655.365,105.094 650.256,111.903 C649.201,113.308 649.486,115.303 650.891,116.358 C652.297,117.412 654.291,117.128 655.346,115.723 C661.071,108.094 664.899,99.077 666.547,89.254 C666.838,87.521 665.669,85.88 663.935,85.589 C662.202,85.299 660.562,86.468 660.271,88.201 Z M659.969,114.474 C658.115,113.619 656.366,112.555 654.755,111.301 C653.368,110.222 651.369,110.472 650.29,111.859 C649.211,113.246 649.46,115.245 650.847,116.324 C652.842,117.876 655.008,119.194 657.304,120.253 C658.899,120.989 660.79,120.292 661.526,118.696 C662.262,117.101 661.565,115.21 659.969,114.474 Z M654.735,111.286 C650.682,108.183 647.284,104.064 645.658,100.216 C644.974,98.597 643.107,97.84 641.489,98.524 C639.87,99.208 639.112,101.074 639.796,102.693 C641.881,107.627 645.983,112.6 650.867,116.339 C652.262,117.407 654.259,117.142 655.327,115.747 C656.396,114.352 656.13,112.355 654.735,111.286 Z M650.257,111.901 C645.381,118.39 639.05,123.643 631.773,127.238 C630.197,128.017 629.551,129.925 630.329,131.5 C631.107,133.076 633.016,133.722 634.591,132.944 C642.761,128.907 649.87,123.009 655.345,115.724 C656.4,114.319 656.117,112.325 654.712,111.269 C653.308,110.213 651.313,110.496 650.257,111.901 Z" />
        </g>
    </g>
</svg>