<?xml version="1.0" encoding="UTF-8"?>
<svg height="600" width="800" xmlns="http://www.w3.org/2000/svg" xmlns:xlink="http://www.w3.org/1999/xlink">
    <g id="Notes" font-family="LucidaGrande, 'Lucida Grande', sans-serif" font-size="13">
        <rect fill="white" height="600.0" width="800.0" x="0.0" y="0.0" />
        <g font-size="13">
            <text x="18.0" y="176.0">Small</text>
            <text x="18.0" y="376.0">Medium</text>
            <text x="18.0" y="576.0">Large</text>
        </g>
        <g font-size="9">
            <text x="250.0" y="30.0">Ultralight</text>
            <text x="450.0" y="30.0">Regular</text>
            <text x="650.0" y="30.0">Black</text>
            <text id="template-version" fill="#505050" text-anchor="end" x="785.0" y="575.0">Template v.3.0</text>
            <a href="https://github.com/swhitty/SwiftDraw">
                <text fill="#505050" text-anchor="end" x="785.0" y="590.0">https://github.com/swhitty/SwiftDraw</text>
            </a>
        </g>
    </g>
    <g id="Guides" stroke="rgb(39, 170, 225)" stroke-width="0.5">
        <path id="Capline-S" d="M18,76 l800,0" />
        <path id="H-reference" d="M85,145.755 L87.685,145.755 L113.369,79.287 L114.052,79.287 L114.052,76 L112.148,76 L85,145.755 Z M95.693,121.536 L130.996,121.536 L130.263,119.313 L96.474,119.313 L95.693,121.536 Z M139.15,145.755 L141.787,145.755 L114.638,76 L113.466,76 L113.466,79.287 L139.15,145.755 Z" stroke="none" transform="translate(0,200)" />
        <path id="Baseline-S" d="M18,146 l800,0" />
        <path id="left-margin-Ultralight-M" d="M221,256 l0,110" />
        <path id="right-margin-Ultralight-M" d="M309,256 l0,110" />
        <path id="left-margin-Regular-M" d="M421,256 l0,110" />
        <path id="right-margin-Regular-M" d="M509,256 l0,110" />
        <path id="left-margin-Black-M" d="M621,256 l0,110" />
        <path id="right-margin-Black-M" d="M709,256 l0,110" />
        <path id="Capline-M" d="M18,276 l800,0" />
        <path id="Baseline-M" d="M18,346 l800,0" />
        <path id="Capline-L" d="M18,476 l800,0" />
        <path id="Baseline-L" d="M18,546 l800,0" />
    </g>
    <g id="Symbols">
        <g id="Ultralight-M" transform="translate(0,200)">
            <path d="M274.444,90.556 L283.244,99.356 C284.104,100.215 285.496,100.215 286.356,99.356 C287.215,98.496 287.215,97.104 286.356,96.244 L277.556,87.444 C276.696,86.585 275.304,86.585 274.444,87.444 C273.585,88.304 273.585,89.696 274.444,90.556 Z M283.244,96.244 L274.444,105.044 C273.585,105.904 273.585,107.296 274.444,108.156 C275.304,109.015 276.696,109.015 277.556,108.156 L286.356,99.356 C287.215,98.496 287.215,97.104 286.356,96.244 C285.496,95.385 284.104,95.385 283.244,96.244 Z M284.8,95.6 L255.76,95.6 C250.698,95.6 249.495,95.698 247.805,96.559 C246.149,97.403 244.803,98.749 243.959,100.405 C243.098,102.095 243,103.298 243,108.36 L243,108.8 C243,110.015 243.985,111 245.2,111 C246.415,111 247.4,110.015 247.4,108.8 L247.4,108.36 C247.4,104.182 247.482,103.184 247.88,102.402 C248.301,101.575 248.975,100.901 249.802,100.48 C250.584,100.082 251.582,100 255.76,100 L284.8,100 C286.015,100 287,99.015 287,97.8 C287,96.585 286.015,95.6 284.8,95.6 Z M245.2,126.4 L274.24,126.4 C279.302,126.4 280.505,126.302 282.195,125.441 C283.851,124.597 285.197,123.251 286.041,121.595 C286.902,119.905 287,118.702 287,113.64 L287,113.2 C287,111.985 286.015,111 284.8,111 C283.585,111 282.6,111.985 282.6,113.2 L282.6,113.64 C282.6,117.818 282.518,118.816 282.12,119.598 C281.699,120.425 281.025,121.099 280.198,121.52 C279.416,121.918 278.418,122 274.24,122 L245.2,122 C243.985,122 243,122.985 243,124.2 C243,125.415 243.985,126.4 245.2,126.4 Z M243.644,125.756 L252.444,134.556 C253.304,135.415 254.696,135.415 255.556,134.556 C256.415,133.696 256.415,132.304 255.556,131.444 L246.756,122.644 C245.896,121.785 244.504,121.785 243.644,122.644 C242.785,123.504 242.785,124.896 243.644,125.756 Z M246.756,125.756 L255.556,116.956 C256.415,116.096 256.415,114.704 255.556,113.844 C254.696,112.985 253.304,112.985 252.444,113.844 L243.644,122.644 C242.785,123.504 242.785,124.896 243.644,125.756 C244.504,126.615 245.896,126.615 246.756,125.756 Z" />
        </g>
        <g id="Regular-M" transform="translate(0,200)">
            <path d="M474.444,90.556 L483.244,99.356 C484.104,100.215 485.496,100.215 486.356,99.356 C487.215,98.496 487.215,97.104 486.356,96.244 L477.556,87.444 C476.696,86.585 475.304,86.585 474.444,87.444 C473.585,88.304 473.585,89.696 474.444,90.556 Z M483.244,96.244 L474.444,105.044 C473.585,105.904 473.585,107.296 474.444,108.156 C475.304,109.015 476.696,109.015 477.556,108.156 L486.356,99.356 C487.215,98.496 487.215,97.104 486.356,96.244 C485.496,95.385 484.104,95.385 483.244,96.244 Z M484.8,95.6 L455.76,95.6 C450.698,95.6 449.495,95.698 447.805,96.559 C446.149,97.403 444.803,98.749 443.959,100.405 C443.098,102.095 443,103.298 443,108.36 L443,108.8 C443,110.015 443.985,111 445.2,111 C446.415,111 447.4,110.015 447.4,108.8 L447.4,108.36 C447.4,104.182 447.482,103.184 447.88,102.402 C448.301,101.575 448.975,100.901 449.802,100.48 C450.584,100.082 451.582,100 455.76,100 L484.8,100 C486.015,100 487,99.015 487,97.8 C487,96.585 486.015,95.6 484.8,95.6 Z M445.2,126.4 L474.24,126.4 C479.302,126.4 480.505,126.302 482.195,125.441 C483.851,124.597 485.197,123.251 486.041,121.595 C486.902,119.905 487,118.702 487,113.64 L487,113.2 C487,111.985 486.015,111 484.8,111 C483.585,111 482.6,111.985 482.6,113.2 L482.6,113.64 C482.6,117.818 482.518,118.816 482.12,119.598 C481.699,120.425 481.025,121.099 480.198,121.52 C479.416,121.918 478.418,122 474.24,122 L445.2,122 C443.985,122 443,122.985 443,124.2 C443,125.415 443.985,126.4 445.2,126.4 Z M443.644,125.756 L452.444,134.556 C453.304,135.415 454.696,135.415 455.556,134.556 C456.415,133.696 456.415,132.304 455.556,131.444 L446.756,122.644 C445.896,121.785 444.504,121.785 443.644,122.644 C442.785,123.504 442.785,124.896 443.644,125.756 Z M446.756,125.756 L455.556,116.956 C456.415,116.096 456.415,114.704 455.556,113.844 C454.696,112.985 453.304,112.985 452.444,113.844 L443.644,122.644 C442.785,123.504 442.785,124.896 443.644,125.756 C444.504,126.615 445.896,126.615 446.756,125.756 Z" />
        </g>
        <g id="Black-M" transform="translate(0,200)">
            <path d="M674.444,90.556 L683.244,99.356 C684.104,100.215 685.496,100.215 686.356,99.356 C687.215,98.496 687.215,97.104 686.356,96.244 L677.556,87.444 C676.696,86.585 675.303,86.585 674.444,87.444 C673.585,88.304 673.585,89.696 674.444,90.556 Z M683.244,96.244 L674.444,105.044 C673.585,105.904 673.585,107.296 674.444,108.156 C675.303,109.015 676.696,109.015 677.556,108.156 L686.356,99.356 C687.215,98.496 687.215,97.104 686.356,96.244 C685.496,95.385 684.104,95.385 683.244,96.244 Z M684.8,95.6 L655.76,95.6 C650.698,95.6 649.495,95.698 647.805,96.559 C646.149,97.403 644.803,98.749 643.959,100.405 C643.098,102.095 643,103.298 643,108.36 L643,108.8 C643,110.015 643.985,111 645.2,111 C646.415,111 647.4,110.015 647.4,108.8 L647.4,108.36 C647.4,104.182 647.482,103.184 647.88,102.402 C648.301,101.575 648.974,100.901 649.802,100.48 C650.584,100.082 651.582,100 655.76,100 L684.8,100 C686.015,100 687,99.015 687,97.8 C687,96.585 686.015,95.6 684.8,95.6 Z M645.2,126.4 L674.24,126.4 C679.302,126.4 680.505,126.302 682.195,125.441 C683.851,124.597 685.197,123.251 686.041,121.595 C686.902,119.905 687,118.702 687,113.64 L687,113.2 C687,111.985 686.015,111 684.8,111 C683.585,111 682.6,111.985 682.6,113.2 L682.6,113.64 C682.6,117.818 682.518,118.816 682.12,119.598 C681.699,120.425 681.025,121.099 680.198,121.52 C679.416,121.918 678.418,122 674.24,122 L645.2,122 C643.985,122 643,122.985 643,124.2 C643,125.415 643.985,126.4 645.2,126.4 Z M643.644,125.756 L652.444,134.556 C653.303,135.415 654.696,135.415 655.556,134.556 C656.415,133.696 656.415,132.304 655.556,131.444 L646.756,122.644 C645.896,121.785 644.503,121.785 643.644,122.644 C642.785,123.504 642.785,124.896 643.644,125.756 Z M646.756,125.756 L655.556,116.956 C656.415,116.096 656.415,114.704 655.556,113.844 C654.696,112.985 653.303,112.985 652.444,113.844 L643.644,122.644 C642.785,123.504 642.785,124.896 643.644,125.756 C644.503,126.615 645.896,126.615 646.756,125.756 Z" />
        </g>
    </g>
</svg>