<?xml version="1.0" encoding="UTF-8"?>
<svg height="600" width="800" xmlns="http://www.w3.org/2000/svg" xmlns:xlink="http://www.w3.org/1999/xlink">
    <g id="Notes" font-family="LucidaGrande, 'Lucida Grande', sans-serif" font-size="13">
        <rect fill="white" height="600.0" width="800.0" x="0.0" y="0.0" />
        <g font-size="13">
            <text x="18.0" y="176.0">Small</text>
            <text x="18.0" y="376.0">Medium</text>
            <text x="18.0" y="576.0">Large</text>
        </g>
        <g font-size="9">
            <text x="250.0" y="30.0">Ultralight</text>
            <text x="450.0" y="30.0">Regular</text>
            <text x="650.0" y="30.0">Black</text>
            <text id="template-version" fill="#505050" text-anchor="end" x="785.0" y="575.0">Template v.3.0</text>
            <a href="https://github.com/swhitty/SwiftDraw">
                <text fill="#505050" text-anchor="end" x="785.0" y="590.0">https://github.com/swhitty/SwiftDraw</text>
            </a>
        </g>
    </g>
    <g id="Guides" stroke="rgb(39, 170, 225)" stroke-width="0.5">
        <path id="Capline-S" d="M18,76 l800,0" />
        <path id="H-reference" d="M85,145.755 L87.685,145.755 L113.369,79.287 L114.052,79.287 L114.052,76 L112.148,76 L85,145.755 Z M95.693,121.536 L130.996,121.536 L130.263,119.313 L96.474,119.313 L95.693,121.536 Z M139.15,145.755 L141.787,145.755 L114.638,76 L113.466,76 L113.466,79.287 L139.15,145.755 Z" stroke="none" transform="translate(0,200)" />
        <path id="Baseline-S" d="M18,146 l800,0" />
        <path id="left-margin-Ultralight-M" d="M233.182,256 l0,110" />
        <path id="right-margin-Ultralight-M" d="M296.818,256 l0,110" />
        <path id="left-margin-Regular-M" d="M433.182,256 l0,110" />
        <path id="right-margin-Regular-M" d="M496.818,256 l0,110" />
        <path id="left-margin-Black-M" d="M633.182,256 l0,110" />
        <path id="right-margin-Black-M" d="M696.818,256 l0,110" />
        <path id="Capline-M" d="M18,276 l800,0" />
        <path id="Baseline-M" d="M18,346 l800,0" />
        <path id="Capline-L" d="M18,476 l800,0" />
        <path id="Baseline-L" d="M18,546 l800,0" />
    </g>
    <g id="Symbols">
        <g id="Ultralight-M" transform="translate(0,200)">
            <path d="M278.659,81.432 L291.386,94.159 C292.629,95.402 294.644,95.402 295.886,94.159 C297.129,92.916 297.129,90.902 295.886,89.659 L283.159,76.932 C281.916,75.689 279.902,75.689 278.659,76.932 C277.417,78.175 277.417,80.189 278.659,81.432 Z M291.386,89.659 L278.659,102.386 C277.417,103.629 277.417,105.644 278.659,106.886 C279.902,108.129 281.916,108.129 283.159,106.886 L295.886,94.159 C297.129,92.916 297.129,90.902 295.886,89.659 C294.644,88.417 292.629,88.417 291.386,89.659 Z M293.636,88.727 L251.636,88.727 C244.315,88.727 242.575,88.869 240.131,90.114 C237.736,91.335 235.789,93.282 234.569,95.676 C233.324,98.121 233.182,99.861 233.182,107.182 L233.182,107.818 C233.182,109.575 234.606,111 236.364,111 C238.121,111 239.545,109.575 239.545,107.818 L239.545,107.182 C239.545,101.139 239.663,99.696 240.239,98.565 C240.849,97.368 241.823,96.395 243.02,95.785 C244.15,95.209 245.594,95.091 251.636,95.091 L293.636,95.091 C295.394,95.091 296.818,93.666 296.818,91.909 C296.818,90.152 295.394,88.727 293.636,88.727 Z M236.364,133.273 L278.364,133.273 C285.685,133.273 287.425,133.131 289.869,131.886 C292.264,130.665 294.211,128.718 295.431,126.324 C296.676,123.879 296.818,122.139 296.818,114.818 L296.818,114.182 C296.818,112.425 295.394,111 293.636,111 C291.879,111 290.455,112.425 290.455,114.182 L290.455,114.818 C290.455,120.861 290.337,122.304 289.761,123.435 C289.151,124.632 288.177,125.605 286.98,126.215 C285.85,126.791 284.406,126.909 278.364,126.909 L236.364,126.909 C234.606,126.909 233.182,128.334 233.182,130.091 C233.182,131.848 234.606,133.273 236.364,133.273 Z M234.114,132.341 L246.841,145.068 C248.084,146.311 250.098,146.311 251.341,145.068 C252.583,143.825 252.583,141.811 251.341,140.568 L238.614,127.841 C237.371,126.598 235.356,126.598 234.114,127.841 C232.871,129.084 232.871,131.098 234.114,132.341 Z M238.614,132.341 L251.341,119.614 C252.583,118.371 252.583,116.356 251.341,115.114 C250.098,113.871 248.084,113.871 246.841,115.114 L234.114,127.841 C232.871,129.084 232.871,131.098 234.114,132.341 C235.356,133.583 237.371,133.583 238.614,132.341 Z" />
        </g>
        <g id="Regular-M" transform="translate(0,200)">
            <path d="M478.659,81.432 L491.386,94.159 C492.629,95.402 494.644,95.402 495.886,94.159 C497.129,92.916 497.129,90.902 495.886,89.659 L483.159,76.932 C481.916,75.689 479.902,75.689 478.659,76.932 C477.417,78.175 477.417,80.189 478.659,81.432 Z M491.386,89.659 L478.659,102.386 C477.417,103.629 477.417,105.644 478.659,106.886 C479.902,108.129 481.916,108.129 483.159,106.886 L495.886,94.159 C497.129,92.916 497.129,90.902 495.886,89.659 C494.644,88.417 492.629,88.417 491.386,89.659 Z M493.636,88.727 L451.636,88.727 C444.315,88.727 442.575,88.869 440.131,90.114 C437.736,91.335 435.789,93.282 434.569,95.676 C433.324,98.121 433.182,99.861 433.182,107.182 L433.182,107.818 C433.182,109.575 434.606,111 436.364,111 C438.121,111 439.545,109.575 439.545,107.818 L439.545,107.182 C439.545,101.139 439.663,99.696 440.239,98.565 C440.849,97.368 441.823,96.395 443.02,95.785 C444.15,95.209 445.594,95.091 451.636,95.091 L493.636,95.091 C495.394,95.091 496.818,93.666 496.818,91.909 C496.818,90.152 495.394,88.727 493.636,88.727 Z M436.364,133.273 L478.364,133.273 C485.685,133.273 487.425,133.131 489.869,131.886 C492.264,130.665 494.211,128.718 495.431,126.324 C496.676,123.879 496.818,122.139 496.818,114.818 L496.818,114.182 C496.818,112.425 495.394,111 493.636,111 C491.879,111 490.455,112.425 490.455,114.182 L490.455,114.818 C490.455,120.861 490.337,122.304 489.761,123.435 C489.151,124.632 488.177,125.605 486.98,126.215 C485.85,126.791 484.406,126.909 478.364,126.909 L436.364,126.909 C434.606,126.909 433.182,128.334 433.182,130.091 C433.182,131.848 434.606,133.273 436.364,133.273 Z M434.114,132.341 L446.841,145.068 C448.084,146.311 450.098,146.311 451.341,145.068 C452.583,143.825 452.583,141.811 451.341,140.568 L438.614,127.841 C437.371,126.598 435.356,126.598 434.114,127.841 C432.871,129.084 432.871,131.098 434.114,132.341 Z M438.614,132.341 L451.341,119.614 C452.583,118.371 452.583,116.356 451.341,115.114 C450.098,113.871 448.084,113.871 446.841,115.114 L434.114,127.841 C432.871,129.084 432.871,131.098 434.114,132.341 C435.356,133.583 437.371,133.583 438.614,132.341 Z" />
        </g>
        <g id="Black-M" transform="translate(0,200)">
            <path d="M678.659,81.432 L691.386,94.159 C692.629,95.402 694.644,95.402 695.886,94.159 C697.129,92.916 697.129,90.902 695.886,89.659 L683.159,76.932 C681.916,75.689 679.902,75.689 678.659,76.932 C677.417,78.175 677.417,80.189 678.659,81.432 Z M691.386,89.659 L678.659,102.386 C677.417,103.629 677.417,105.644 678.659,106.886 C679.902,108.129 681.916,108.129 683.159,106.886 L695.886,94.159 C697.129,92.916 697.129,90.902 695.886,89.659 C694.644,88.417 692.629,88.417 691.386,89.659 Z M693.636,88.727 L651.636,88.727 C644.315,88.727 642.575,88.869 640.131,90.114 C637.736,91.335 635.789,93.282 634.569,95.676 C633.324,98.121 633.182,99.861 633.182,107.182 L633.182,107.818 C633.182,109.575 634.606,111 636.364,111 C638.121,111 639.545,109.575 639.545,107.818 L639.545,107.182 C639.545,101.139 639.663,99.696 640.239,98.565 C640.849,97.368 641.823,96.395 643.02,95.785 C644.15,95.209 645.594,95.091 651.636,95.091 L693.636,95.091 C695.394,95.091 696.818,93.666 696.818,91.909 C696.818,90.152 695.394,88.727 693.636,88.727 Z M636.364,133.273 L678.364,133.273 C685.685,133.273 687.425,133.131 689.869,131.886 C692.264,130.665 694.211,128.718 695.431,126.324 C696.676,123.879 696.818,122.139 696.818,114.818 L696.818,114.182 C696.818,112.425 695.394,111 693.636,111 C691.879,111 690.455,112.425 690.455,114.182 L690.455,114.818 C690.455,120.861 690.337,122.304 689.761,123.435 C689.151,124.632 688.177,125.605 686.98,126.215 C685.85,126.791 684.406,126.909 678.364,126.909 L636.364,126.909 C634.606,126.909 633.182,128.334 633.182,130.091 C633.182,131.848 634.606,133.273 636.364,133.273 Z M634.114,132.341 L646.841,145.068 C648.084,146.311 650.098,146.311 651.341,145.068 C652.583,143.825 652.583,141.811 651.341,140.568 L638.614,127.841 C637.371,126.598 635.356,126.598 634.114,127.841 C632.871,129.084 632.871,131.098 634.114,132.341 Z M638.614,132.341 L651.341,119.614 C652.583,118.371 652.583,116.356 651.341,115.114 C650.098,113.871 648.084,113.871 646.841,115.114 L634.114,127.841 C632.871,129.084 632.871,131.098 634.114,132.341 C635.356,133.583 637.371,133.583 638.614,132.341 Z" />
        </g>
    </g>
</svg>