<?xml version="1.0" encoding="UTF-8"?>
<svg height="600" width="800" xmlns="http://www.w3.org/2000/svg" xmlns:xlink="http://www.w3.org/1999/xlink">
    <g id="Notes" font-family="LucidaGrande, 'Lucida Grande', sans-serif" font-size="13">
        <rect fill="white" height="600.0" width="800.0" x="0.0" y="0.0" />
        <g font-size="13">
            <text x="18.0" y="176.0">Small</text>
            <text x="18.0" y="376.0">Medium</text>
            <text x="18.0" y="576.0">Large</text>
        </g>
        <g font-size="9">
            <text x="250.0" y="30.0">Ultralight</text>
            <text x="450.0" y="30.0">Regular</text>
            <text x="650.0" y="30.0">Black</text>
            <text id="template-version" fill="#505050" text-anchor="end" x="785.0" y="575.0">Template v.3.0</text>
            <a href="https://github.com/swhitty/SwiftDraw">
                <text fill="#505050" text-anchor="end" x="785.0" y="590.0">https://github.com/swhitty/SwiftDraw</text>
            </a>
        </g>
    </g>
    <g id="Guides" stroke="rgb(39, 170, 225)" stroke-width="0.5">
        <path id="Capline-S" d="M18,76 l800,0" />
        <path id="H-reference" d="M85,145.755 L87.685,145.755 L113.369,79.287 L114.052,79.287 L114.052,76 L112.148,76 L85,145.755 Z M95.693,121.536 L130.996,121.536 L130.263,119.313 L96.474,119.313 L95.693,121.536 Z M139.15,145.755 L141.787,145.755 L114.638,76 L113.466,76 L113.466,79.287 L139.15,145.755 Z" stroke="none" transform="translate(0,200)" />
        <path id="Baseline-S" d="M18,146 l800,0" />
        <path id="left-margin-Ultralight-M" d="M221,256 l0,110" />
        <path id="right-margin-Ultralight-M" d="M309,256 l0,110" />
        <path id="left-margin-Regular-M" d="M421,256 l0,110" />
        <path id="right-margin-Regular-M" d="M509,256 l0,110" />
        <path id="left-margin-Black-M" d="M621,256 l0,110" />
        <path id="right-margin-Black-M" d="M709,256 l0,110" />
        <path id="Capline-M" d="M18,276 l800,0" />
        <path id="Baseline-M" d="M18,346 l800,0" />
        <path id="Capline-L" d="M18,476 l800,0" />
        <path id="Baseline-L" d="M18,546 l800,0" />
    </g>
    <g id="Symbols">
        <g id="Ultralight-M" transform="translate(0,200)">
            <path d="M283.857,109.084 L283.857,111.012 C283.852,119.362 278.355,126.715 270.346,129.083 C262.338,131.451 253.726,128.269 249.18,121.263 C244.635,114.257 245.24,105.096 250.666,98.747 C256.092,92.399 265.047,90.376 272.675,93.775 C273.732,94.246 274.971,93.771 275.442,92.714 C275.913,91.657 275.438,90.419 274.381,89.948 C265.058,85.793 254.112,88.266 247.48,96.025 C240.848,103.784 240.11,114.981 245.665,123.543 C251.22,132.106 261.746,135.995 271.534,133.102 C281.323,130.208 288.042,121.22 288.048,111.013 L288.048,109.084 C288.048,107.927 287.11,106.989 285.952,106.989 C284.795,106.989 283.857,107.927 283.857,109.084 Z M284.47,92.756 L263.518,113.73 L266.482,113.729 L260.196,107.443 C259.378,106.625 258.051,106.625 257.233,107.443 C256.415,108.261 256.415,109.588 257.233,110.406 L263.518,116.692 C264.337,117.511 265.664,117.51 266.482,116.691 L287.435,95.718 C288.253,94.899 288.252,93.573 287.433,92.755 C286.615,91.937 285.288,91.938 284.47,92.756 Z" />
        </g>
        <g id="Regular-M" transform="translate(0,200)">
            <path d="M483.857,109.084 L483.857,111.012 C483.852,119.362 478.355,126.715 470.346,129.083 C462.338,131.451 453.726,128.269 449.18,121.263 C444.635,114.257 445.24,105.096 450.666,98.747 C456.092,92.399 465.047,90.376 472.675,93.775 C473.732,94.246 474.971,93.771 475.442,92.714 C475.913,91.657 475.438,90.419 474.381,89.948 C465.058,85.793 454.112,88.266 447.48,96.025 C440.848,103.784 440.11,114.981 445.665,123.543 C451.22,132.106 461.746,135.995 471.534,133.102 C481.323,130.208 488.042,121.22 488.048,111.013 L488.048,109.084 C488.048,107.927 487.11,106.989 485.952,106.989 C484.795,106.989 483.857,107.927 483.857,109.084 Z M484.47,92.756 L463.518,113.73 L466.482,113.729 L460.196,107.443 C459.378,106.625 458.051,106.625 457.233,107.443 C456.415,108.261 456.415,109.588 457.233,110.406 L463.518,116.692 C464.337,117.511 465.664,117.51 466.482,116.691 L487.435,95.718 C488.253,94.899 488.252,93.573 487.433,92.755 C486.615,91.937 485.288,91.938 484.47,92.756 Z" />
        </g>
        <g id="Black-M" transform="translate(0,200)">
            <path d="M683.857,109.084 L683.857,111.012 C683.852,119.362 678.355,126.715 670.346,129.083 C662.338,131.451 653.726,128.269 649.18,121.263 C644.635,114.257 645.24,105.096 650.666,98.747 C656.092,92.399 665.047,90.376 672.675,93.775 C673.732,94.246 674.971,93.771 675.442,92.714 C675.913,91.657 675.438,90.419 674.381,89.948 C665.058,85.793 654.112,88.266 647.48,96.025 C640.848,103.784 640.11,114.981 645.665,123.543 C651.22,132.106 661.746,135.995 671.534,133.102 C681.323,130.208 688.042,121.22 688.048,111.013 L688.048,109.084 C688.048,107.927 687.11,106.989 685.952,106.989 C684.795,106.989 683.857,107.927 683.857,109.084 Z M684.47,92.756 L663.518,113.73 L666.482,113.729 L660.196,107.443 C659.378,106.625 658.051,106.625 657.233,107.443 C656.415,108.261 656.415,109.588 657.233,110.406 L663.518,116.692 C664.337,117.511 665.664,117.51 666.482,116.691 L687.435,95.718 C688.253,94.899 688.252,93.573 687.433,92.755 C686.615,91.937 685.288,91.938 684.47,92.756 Z" />
        </g>
    </g>
</svg>