<?xml version="1.0" encoding="UTF-8"?>
<svg height="600" width="800" xmlns="http://www.w3.org/2000/svg" xmlns:xlink="http://www.w3.org/1999/xlink">
    <g id="Notes" font-family="LucidaGrande, 'Lucida Grande', sans-serif" font-size="13">
        <rect fill="white" height="600.0" width="800.0" x="0.0" y="0.0" />
        <g font-size="13">
            <text x="18.0" y="176.0">Small</text>
            <text x="18.0" y="376.0">Medium</text>
            <text x="18.0" y="576.0">Large</text>
        </g>
        <g font-size="9">
            <text x="250.0" y="30.0">Ultralight</text>
            <text x="450.0" y="30.0">Regular</text>
            <text x="650.0" y="30.0">Black</text>
            <text id="template-version" fill="#505050" text-anchor="end" x="785.0" y="575.0">Template v.3.0</text>
            <a href="https://github.com/swhitty/SwiftDraw">
                <text fill="#505050" text-anchor="end" x="785.0" y="590.0">https://github.com/swhitty/SwiftDraw</text>
            </a>
        </g>
    </g>
    <g id="Guides" stroke="rgb(39, 170, 225)" stroke-width="0.5">
        <path id="Capline-S" d="M18,76 l800,0" />
        <path id="H-reference" d="M85,145.755 L87.685,145.755 L113.369,79.287 L114.052,79.287 L114.052,76 L112.148,76 L85,145.755 Z M95.693,121.536 L130.996,121.536 L130.263,119.313 L96.474,119.313 L95.693,121.536 Z M139.15,145.755 L141.787,145.755 L114.638,76 L113.466,76 L113.466,79.287 L139.15,145.755 Z" stroke="none" transform="translate(0,200)" />
        <path id="Baseline-S" d="M18,146 l800,0" />
        <path id="left-margin-Ultralight-M" d="M230,256 l0,110" />
        <path id="right-margin-Ultralight-M" d="M300,256 l0,110" />
        <path id="left-margin-Regular-M" d="M430,256 l0,110" />
        <path id="right-margin-Regular-M" d="M500,256 l0,110" />
        <path id="left-margin-Black-M" d="M630,256 l0,110" />
        <path id="right-margin-Black-M" d="M700,256 l0,110" />
        <path id="Capline-M" d="M18,276 l800,0" />
        <path id="Baseline-M" d="M18,346 l800,0" />
        <path id="Capline-L" d="M18,476 l800,0" />
        <path id="Baseline-L" d="M18,546 l800,0" />
    </g>
    <g id="Symbols">
        <g id="Ultralight-M" transform="translate(0,200)">
            <path d="M293.636,108.091 L293.636,111.018 C293.629,123.698 285.281,134.864 273.119,138.459 C260.957,142.055 247.879,137.223 240.977,126.584 C234.074,115.945 234.992,102.034 243.232,92.394 C251.472,82.755 265.072,79.683 276.656,84.844 C278.261,85.559 280.142,84.838 280.857,83.233 C281.572,81.628 280.851,79.747 279.246,79.032 C265.088,72.723 248.466,76.478 238.395,88.26 C228.323,100.042 227.202,117.045 235.638,130.047 C244.074,143.05 260.059,148.956 274.923,144.561 C289.787,140.167 299.991,126.52 300,111.02 L300,108.091 C300,106.333 298.575,104.909 296.818,104.909 C295.061,104.909 293.636,106.333 293.636,108.091 Z M294.567,83.297 L262.749,115.145 L267.25,115.144 L257.705,105.599 C256.462,104.357 254.447,104.357 253.205,105.599 C251.962,106.842 251.962,108.856 253.205,110.099 L262.75,119.643 C263.993,120.886 266.009,120.886 267.251,119.642 L299.069,87.794 C300.311,86.551 300.31,84.537 299.067,83.295 C297.824,82.053 295.809,82.054 294.567,83.297 Z" />
        </g>
        <g id="Regular-M" transform="translate(0,200)">
            <path d="M493.636,108.091 L493.636,111.018 C493.629,123.698 485.281,134.864 473.119,138.459 C460.957,142.055 447.879,137.223 440.977,126.584 C434.074,115.945 434.992,102.034 443.232,92.394 C451.472,82.755 465.072,79.683 476.656,84.844 C478.261,85.559 480.142,84.838 480.857,83.233 C481.572,81.628 480.851,79.747 479.246,79.032 C465.088,72.723 448.466,76.478 438.395,88.26 C428.323,100.042 427.202,117.045 435.638,130.047 C444.074,143.05 460.059,148.956 474.923,144.561 C489.787,140.167 499.991,126.52 500,111.02 L500,108.091 C500,106.333 498.575,104.909 496.818,104.909 C495.061,104.909 493.636,106.333 493.636,108.091 Z M494.567,83.297 L462.749,115.145 L467.25,115.144 L457.705,105.599 C456.462,104.357 454.447,104.357 453.205,105.599 C451.962,106.842 451.962,108.856 453.205,110.099 L462.75,119.643 C463.993,120.886 466.009,120.886 467.251,119.642 L499.069,87.794 C500.311,86.551 500.31,84.537 499.067,83.295 C497.824,82.053 495.809,82.054 494.567,83.297 Z" />
        </g>
        <g id="Black-M" transform="translate(0,200)">
            <path d="M693.636,108.091 L693.636,111.018 C693.629,123.698 685.281,134.864 673.119,138.459 C660.957,142.055 647.879,137.223 640.977,126.584 C634.074,115.945 634.992,102.034 643.232,92.394 C651.472,82.755 665.072,79.683 676.656,84.844 C678.261,85.559 680.142,84.838 680.857,83.233 C681.572,81.628 680.851,79.747 679.246,79.032 C665.088,72.723 648.466,76.478 638.395,88.26 C628.323,100.042 627.202,117.045 635.638,130.047 C644.074,143.05 660.059,148.956 674.923,144.561 C689.787,140.167 699.991,126.52 700,111.02 L700,108.091 C700,106.333 698.575,104.909 696.818,104.909 C695.061,104.909 693.636,106.333 693.636,108.091 Z M694.567,83.297 L662.749,115.145 L667.25,115.144 L657.705,105.599 C656.462,104.357 654.447,104.357 653.205,105.599 C651.962,106.842 651.962,108.856 653.205,110.099 L662.75,119.643 C663.993,120.886 666.009,120.886 667.251,119.642 L699.069,87.794 C700.311,86.551 700.31,84.537 699.067,83.295 C697.824,82.053 695.809,82.054 694.567,83.297 Z" />
        </g>
    </g>
</svg>