<?xml version="1.0" encoding="UTF-8"?>
<svg height="600" width="800" xmlns="http://www.w3.org/2000/svg" xmlns:xlink="http://www.w3.org/1999/xlink">
    <g id="Notes" font-family="LucidaGrande, 'Lucida Grande', sans-serif" font-size="13">
        <rect fill="white" height="600.0" width="800.0" x="0.0" y="0.0" />
        <g font-size="13">
            <text x="18.0" y="176.0">Small</text>
            <text x="18.0" y="376.0">Medium</text>
            <text x="18.0" y="576.0">Large</text>
        </g>
        <g font-size="9">
            <text x="250.0" y="30.0">Ultralight</text>
            <text x="450.0" y="30.0">Regular</text>
            <text x="650.0" y="30.0">Black</text>
            <text id="template-version" fill="#505050" text-anchor="end" x="785.0" y="575.0">Template v.3.0</text>
            <a href="https://github.com/swhitty/SwiftDraw">
                <text fill="#505050" text-anchor="end" x="785.0" y="590.0">https://github.com/swhitty/SwiftDraw</text>
            </a>
        </g>
    </g>
    <g id="Guides" stroke="rgb(39, 170, 225)" stroke-width="0.5">
        <path id="Capline-S" d="M18,76 l800,0" />
        <path id="H-reference" d="M85,145.755 L87.685,145.755 L113.369,79.287 L114.052,79.287 L114.052,76 L112.148,76 L85,145.755 Z M95.693,121.536 L130.996,121.536 L130.263,119.313 L96.474,119.313 L95.693,121.536 Z M139.15,145.755 L141.787,145.755 L114.638,76 L113.466,76 L113.466,79.287 L139.15,145.755 Z" stroke="none" transform="translate(0,200)" />
        <path id="Baseline-S" d="M18,146 l800,0" />
        <path id="left-margin-Ultralight-M" d="M230,256 l0,110" />
        <path id="right-margin-Ultralight-M" d="M300,256 l0,110" />
        <path id="left-margin-Regular-M" d="M430,256 l0,110" />
        <path id="right-margin-Regular-M" d="M500,256 l0,110" />
        <path id="left-margin-Black-M" d="M630,256 l0,110" />
        <path id="right-margin-Black-M" d="M700,256 l0,110" />
        <path id="Capline-M" d="M18,276 l800,0" />
        <path id="Baseline-M" d="M18,346 l800,0" />
        <path id="Capline-L" d="M18,476 l800,0" />
        <path id="Baseline-L" d="M18,546 l800,0" />
    </g>
    <g id="Symbols">
        <g id="Ultralight-M" transform="translate(0,200)">
            <path d="M241.836,79.309 L236.873,85.927 C234.994,88.433 234.746,88.835 234.773,90.405 C234.802,91.849 235.475,93.195 236.606,94.079 C237.851,95.049 238.309,95.091 241.455,95.091 L288.545,95.091 C291.705,95.091 292.157,95.05 293.4,94.074 C294.525,93.195 295.198,91.849 295.227,90.413 C295.254,88.835 295.006,88.433 293.127,85.927 L288.164,79.309 C287.109,77.903 285.115,77.618 283.709,78.673 C282.303,79.727 282.018,81.721 283.073,83.127 L288.036,89.745 C288.637,90.546 288.842,90.83 288.977,91.049 C288.94,90.988 288.856,90.766 288.864,90.295 C288.874,89.808 289.098,89.36 289.475,89.065 C289.847,88.773 290.079,88.705 290.155,88.698 C289.899,88.722 289.555,88.727 288.545,88.727 L241.455,88.727 C240.446,88.727 240.102,88.722 239.846,88.698 C239.919,88.705 240.149,88.772 240.521,89.062 C240.902,89.36 241.126,89.808 241.136,90.287 C241.144,90.766 241.06,90.988 241.023,91.049 C241.158,90.83 241.363,90.546 241.964,89.745 L246.927,83.127 C247.982,81.721 247.697,79.727 246.291,78.673 C244.885,77.618 242.891,77.903 241.836,79.309 Z M246.929,83.126 C247.416,82.475 247.525,82.345 247.502,82.362 C247.502,82.362 247.502,82.362 247.502,82.362 C247.466,82.372 247.633,82.364 248.455,82.364 L281.545,82.364 C282.367,82.364 282.538,82.373 282.513,82.366 C282.501,82.362 282.501,82.362 282.501,82.362 C282.471,82.339 282.582,82.472 283.071,83.126 C284.125,84.532 286.119,84.818 287.526,83.765 C288.932,82.712 289.218,80.717 288.165,79.311 C287.266,78.111 286.999,77.792 286.359,77.302 C285.72,76.816 285.008,76.46 284.249,76.243 C283.46,76.021 283.056,76 281.545,76 L248.455,76 C246.937,76 246.538,76.021 245.76,76.242 C244.996,76.46 244.283,76.816 243.655,77.293 C243.006,77.785 242.737,78.107 241.835,79.311 C240.782,80.717 241.068,82.712 242.474,83.765 C243.881,84.818 245.875,84.532 246.929,83.126 Z M241.836,79.309 L235.854,87.286 C234.773,88.728 234.496,89.129 234.135,89.877 C233.779,90.609 233.518,91.39 233.359,92.195 C233.2,93.015 233.182,93.491 233.182,95.304 L233.182,132.636 C233.182,137.73 233.281,138.939 234.222,140.788 C235.137,142.584 236.598,144.044 238.394,144.96 C240.242,145.901 241.452,146 246.545,146 L283.455,146 C288.548,146 289.758,145.901 291.606,144.96 C293.402,144.044 294.863,142.584 295.778,140.788 C296.719,138.939 296.818,137.73 296.818,132.636 L296.818,95.304 C296.818,93.491 296.8,93.015 296.642,92.201 C296.482,91.391 296.221,90.609 295.862,89.871 C295.806,89.756 295.806,89.756 295.745,89.637 C295.404,88.988 295.148,88.624 294.148,87.287 L288.163,79.309 C287.109,77.903 285.114,77.618 283.709,78.673 C282.303,79.728 282.018,81.722 283.073,83.128 L289.055,91.101 C289.81,92.112 289.994,92.373 290.111,92.596 C290.123,92.62 290.123,92.62 290.135,92.643 C290.257,92.895 290.344,93.155 290.397,93.423 C290.443,93.662 290.455,93.967 290.455,95.304 L290.455,132.636 C290.455,136.452 290.38,137.365 290.108,137.9 C289.803,138.498 289.316,138.984 288.717,139.29 C288.183,139.562 287.27,139.636 283.455,139.636 L246.545,139.636 C242.73,139.636 241.817,139.562 241.282,139.289 C240.684,138.984 240.197,138.498 239.892,137.899 C239.62,137.365 239.545,136.452 239.545,132.636 L239.545,95.304 C239.545,93.967 239.557,93.662 239.605,93.418 C239.656,93.155 239.743,92.895 239.863,92.649 C239.973,92.421 240.15,92.165 240.945,91.104 L246.927,83.127 C247.982,81.721 247.697,79.727 246.291,78.673 C244.885,77.618 242.891,77.903 241.836,79.309 Z M274.545,104.636 C274.545,109.908 270.272,114.182 265,114.182 C259.728,114.182 255.455,109.908 255.455,104.636 C255.455,102.879 254.03,101.455 252.273,101.455 C250.515,101.455 249.091,102.879 249.091,104.636 C249.091,113.423 256.214,120.545 265,120.545 C273.786,120.545 280.909,113.423 280.909,104.636 C280.909,102.879 279.485,101.455 277.727,101.455 C275.97,101.455 274.545,102.879 274.545,104.636 Z" />
        </g>
        <g id="Regular-M" transform="translate(0,200)">
            <path d="M441.836,79.309 L436.873,85.927 C434.994,88.433 434.746,88.835 434.773,90.405 C434.802,91.849 435.475,93.195 436.606,94.079 C437.851,95.049 438.309,95.091 441.455,95.091 L488.545,95.091 C491.705,95.091 492.157,95.05 493.4,94.074 C494.525,93.195 495.198,91.849 495.227,90.413 C495.254,88.835 495.006,88.433 493.127,85.927 L488.164,79.309 C487.109,77.903 485.115,77.618 483.709,78.673 C482.303,79.727 482.018,81.721 483.073,83.127 L488.036,89.745 C488.637,90.546 488.842,90.83 488.977,91.049 C488.94,90.988 488.856,90.766 488.864,90.295 C488.874,89.808 489.098,89.36 489.475,89.065 C489.847,88.773 490.079,88.705 490.155,88.698 C489.899,88.722 489.555,88.727 488.545,88.727 L441.455,88.727 C440.446,88.727 440.102,88.722 439.846,88.698 C439.919,88.705 440.149,88.772 440.521,89.062 C440.902,89.36 441.126,89.808 441.136,90.287 C441.144,90.766 441.06,90.988 441.023,91.049 C441.158,90.83 441.363,90.546 441.964,89.745 L446.927,83.127 C447.982,81.721 447.697,79.727 446.291,78.673 C444.885,77.618 442.891,77.903 441.836,79.309 Z M446.929,83.126 C447.416,82.475 447.525,82.345 447.502,82.362 C447.502,82.362 447.502,82.362 447.502,82.362 C447.466,82.372 447.633,82.364 448.455,82.364 L481.545,82.364 C482.367,82.364 482.538,82.373 482.513,82.366 C482.501,82.362 482.501,82.362 482.501,82.362 C482.471,82.339 482.582,82.472 483.071,83.126 C484.125,84.532 486.119,84.818 487.526,83.765 C488.932,82.712 489.218,80.717 488.165,79.311 C487.266,78.111 486.999,77.792 486.359,77.302 C485.72,76.816 485.008,76.46 484.249,76.243 C483.46,76.021 483.056,76 481.545,76 L448.455,76 C446.937,76 446.538,76.021 445.76,76.242 C444.996,76.46 444.283,76.816 443.655,77.293 C443.006,77.785 442.737,78.107 441.835,79.311 C440.782,80.717 441.068,82.712 442.474,83.765 C443.881,84.818 445.875,84.532 446.929,83.126 Z M441.836,79.309 L435.854,87.286 C434.773,88.728 434.496,89.129 434.135,89.877 C433.779,90.609 433.518,91.39 433.359,92.195 C433.2,93.015 433.182,93.491 433.182,95.304 L433.182,132.636 C433.182,137.73 433.281,138.939 434.222,140.788 C435.137,142.584 436.598,144.044 438.394,144.96 C440.242,145.901 441.452,146 446.545,146 L483.455,146 C488.548,146 489.758,145.901 491.606,144.96 C493.402,144.044 494.863,142.584 495.778,140.788 C496.719,138.939 496.818,137.73 496.818,132.636 L496.818,95.304 C496.818,93.491 496.8,93.015 496.642,92.201 C496.482,91.391 496.221,90.609 495.862,89.871 C495.806,89.756 495.806,89.756 495.745,89.637 C495.404,88.988 495.148,88.624 494.148,87.287 L488.163,79.309 C487.109,77.903 485.114,77.618 483.709,78.673 C482.303,79.728 482.018,81.722 483.073,83.128 L489.055,91.101 C489.81,92.112 489.994,92.373 490.111,92.596 C490.123,92.62 490.123,92.62 490.135,92.643 C490.257,92.895 490.344,93.155 490.397,93.423 C490.443,93.662 490.455,93.967 490.455,95.304 L490.455,132.636 C490.455,136.452 490.38,137.365 490.108,137.9 C489.803,138.498 489.316,138.984 488.717,139.29 C488.183,139.562 487.27,139.636 483.455,139.636 L446.545,139.636 C442.73,139.636 441.817,139.562 441.282,139.289 C440.684,138.984 440.197,138.498 439.892,137.899 C439.62,137.365 439.545,136.452 439.545,132.636 L439.545,95.304 C439.545,93.967 439.557,93.662 439.605,93.418 C439.656,93.155 439.743,92.895 439.863,92.649 C439.973,92.421 440.15,92.165 440.945,91.104 L446.927,83.127 C447.982,81.721 447.697,79.727 446.291,78.673 C444.885,77.618 442.891,77.903 441.836,79.309 Z M474.545,104.636 C474.545,109.908 470.272,114.182 465,114.182 C459.728,114.182 455.455,109.908 455.455,104.636 C455.455,102.879 454.03,101.455 452.273,101.455 C450.515,101.455 449.091,102.879 449.091,104.636 C449.091,113.423 456.214,120.545 465,120.545 C473.786,120.545 480.909,113.423 480.909,104.636 C480.909,102.879 479.485,101.455 477.727,101.455 C475.97,101.455 474.545,102.879 474.545,104.636 Z" />
        </g>
        <g id="Black-M" transform="translate(0,200)">
            <path d="M641.836,79.309 L636.873,85.927 C634.994,88.433 634.746,88.835 634.773,90.405 C634.802,91.849 635.475,93.195 636.606,94.079 C637.851,95.049 638.309,95.091 641.455,95.091 L688.545,95.091 C691.705,95.091 692.157,95.05 693.4,94.074 C694.525,93.195 695.198,91.849 695.227,90.413 C695.254,88.835 695.006,88.433 693.127,85.927 L688.164,79.309 C687.109,77.903 685.115,77.618 683.709,78.673 C682.303,79.727 682.018,81.721 683.073,83.127 L688.036,89.745 C688.637,90.546 688.842,90.83 688.977,91.049 C688.94,90.988 688.856,90.766 688.864,90.295 C688.874,89.808 689.098,89.36 689.475,89.065 C689.847,88.773 690.079,88.705 690.155,88.698 C689.899,88.722 689.555,88.727 688.545,88.727 L641.455,88.727 C640.446,88.727 640.102,88.722 639.846,88.698 C639.919,88.705 640.149,88.772 640.521,89.062 C640.902,89.36 641.126,89.808 641.136,90.287 C641.144,90.766 641.06,90.988 641.023,91.049 C641.158,90.83 641.363,90.546 641.964,89.745 L646.927,83.127 C647.982,81.721 647.697,79.727 646.291,78.673 C644.885,77.618 642.891,77.903 641.836,79.309 Z M646.929,83.126 C647.416,82.475 647.525,82.345 647.502,82.362 C647.502,82.362 647.502,82.362 647.502,82.362 C647.466,82.372 647.633,82.364 648.455,82.364 L681.545,82.364 C682.367,82.364 682.538,82.373 682.513,82.366 C682.501,82.362 682.501,82.362 682.501,82.362 C682.471,82.339 682.582,82.472 683.071,83.126 C684.125,84.532 686.119,84.818 687.526,83.765 C688.932,82.712 689.218,80.717 688.165,79.311 C687.266,78.111 686.999,77.792 686.359,77.302 C685.72,76.816 685.008,76.46 684.249,76.243 C683.46,76.021 683.056,76 681.545,76 L648.455,76 C646.937,76 646.538,76.021 645.76,76.242 C644.996,76.46 644.283,76.816 643.655,77.293 C643.006,77.785 642.737,78.107 641.835,79.311 C640.782,80.717 641.068,82.712 642.474,83.765 C643.881,84.818 645.875,84.532 646.929,83.126 Z M641.836,79.309 L635.854,87.286 C634.773,88.728 634.496,89.129 634.135,89.877 C633.779,90.609 633.518,91.39 633.359,92.195 C633.2,93.015 633.182,93.491 633.182,95.304 L633.182,132.636 C633.182,137.73 633.281,138.939 634.222,140.788 C635.137,142.584 636.598,144.044 638.394,144.96 C640.242,145.901 641.452,146 646.545,146 L683.455,146 C688.548,146 689.758,145.901 691.606,144.96 C693.402,144.044 694.863,142.584 695.778,140.788 C696.719,138.939 696.818,137.73 696.818,132.636 L696.818,95.304 C696.818,93.491 696.8,93.015 696.642,92.201 C696.482,91.391 696.221,90.609 695.862,89.871 C695.806,89.756 695.806,89.756 695.745,89.637 C695.404,88.988 695.148,88.624 694.148,87.287 L688.163,79.309 C687.109,77.903 685.114,77.618 683.709,78.673 C682.303,79.728 682.018,81.722 683.073,83.128 L689.055,91.101 C689.81,92.112 689.994,92.373 690.111,92.596 C690.123,92.62 690.123,92.62 690.135,92.643 C690.257,92.895 690.344,93.155 690.397,93.423 C690.443,93.662 690.455,93.967 690.455,95.304 L690.455,132.636 C690.455,136.452 690.38,137.365 690.107,137.9 C689.803,138.498 689.316,138.984 688.717,139.29 C688.183,139.562 687.27,139.636 683.455,139.636 L646.545,139.636 C642.73,139.636 641.817,139.562 641.282,139.289 C640.684,138.984 640.197,138.498 639.892,137.899 C639.62,137.365 639.545,136.452 639.545,132.636 L639.545,95.304 C639.545,93.967 639.557,93.662 639.604,93.418 C639.656,93.155 639.743,92.895 639.863,92.649 C639.973,92.421 640.15,92.165 640.945,91.104 L646.927,83.127 C647.982,81.721 647.697,79.727 646.291,78.673 C644.885,77.618 642.891,77.903 641.836,79.309 Z M674.545,104.636 C674.545,109.908 670.272,114.182 665,114.182 C659.728,114.182 655.455,109.908 655.455,104.636 C655.455,102.879 654.03,101.455 652.273,101.455 C650.515,101.455 649.091,102.879 649.091,104.636 C649.091,113.423 656.214,120.545 665,120.545 C673.786,120.545 680.909,113.423 680.909,104.636 C680.909,102.879 679.485,101.455 677.727,101.455 C675.97,101.455 674.545,102.879 674.545,104.636 Z" />
        </g>
    </g>
</svg>