<?xml version="1.0" encoding="UTF-8"?>
<svg height="600" width="800" xmlns="http://www.w3.org/2000/svg" xmlns:xlink="http://www.w3.org/1999/xlink">
    <g id="Notes" font-family="LucidaGrande, 'Lucida Grande', sans-serif" font-size="13">
        <rect fill="white" height="600.0" width="800.0" x="0.0" y="0.0" />
        <g font-size="13">
            <text x="18.0" y="176.0">Small</text>
            <text x="18.0" y="376.0">Medium</text>
            <text x="18.0" y="576.0">Large</text>
        </g>
        <g font-size="9">
            <text x="250.0" y="30.0">Ultralight</text>
            <text x="450.0" y="30.0">Regular</text>
            <text x="650.0" y="30.0">Black</text>
            <text id="template-version" fill="#505050" text-anchor="end" x="785.0" y="575.0">Template v.3.0</text>
            <a href="https://github.com/swhitty/SwiftDraw">
                <text fill="#505050" text-anchor="end" x="785.0" y="590.0">https://github.com/swhitty/SwiftDraw</text>
            </a>
        </g>
    </g>
    <g id="Guides" stroke="rgb(39, 170, 225)" stroke-width="0.5">
        <path id="Capline-S" d="M18,76 l800,0" />
        <path id="H-reference" d="M85,145.755 L87.685,145.755 L113.369,79.287 L114.052,79.287 L114.052,76 L112.148,76 L85,145.755 Z M95.693,121.536 L130.996,121.536 L130.263,119.313 L96.474,119.313 L95.693,121.536 Z M139.15,145.755 L141.787,145.755 L114.638,76 L113.466,76 L113.466,79.287 L139.15,145.755 Z" stroke="none" transform="translate(0,200)" />
        <path id="Baseline-S" d="M18,146 l800,0" />
        <path id="left-margin-Ultralight-M" d="M221,256 l0,110" />
        <path id="right-margin-Ultralight-M" d="M309,256 l0,110" />
        <path id="left-margin-Regular-M" d="M421,256 l0,110" />
        <path id="right-margin-Regular-M" d="M509,256 l0,110" />
        <path id="left-margin-Black-M" d="M621,256 l0,110" />
        <path id="right-margin-Black-M" d="M709,256 l0,110" />
        <path id="Capline-M" d="M18,276 l800,0" />
        <path id="Baseline-M" d="M18,346 l800,0" />
        <path id="Capline-L" d="M18,476 l800,0" />
        <path id="Baseline-L" d="M18,546 l800,0" />
    </g>
    <g id="Symbols">
        <g id="Ultralight-M" transform="translate(0,200)">
            <path d="M256.2,89 L252.24,89 C248.718,89 247.882,89.068 246.604,89.719 C245.362,90.352 244.352,91.362 243.719,92.604 C243.068,93.882 243,94.718 243,98.24 L243,102.2 C243,103.415 243.985,104.4 245.2,104.4 C246.415,104.4 247.4,103.415 247.4,102.2 L247.4,98.24 C247.4,95.602 247.452,94.971 247.64,94.601 C247.851,94.187 248.187,93.851 248.601,93.64 C248.971,93.452 249.602,93.4 252.24,93.4 L256.2,93.4 C257.415,93.4 258.4,92.415 258.4,91.2 C258.4,89.985 257.415,89 256.2,89 Z M256.2,128.6 L252.24,128.6 C249.602,128.6 248.971,128.548 248.601,128.36 C248.187,128.149 247.851,127.813 247.64,127.399 C247.452,127.029 247.4,126.398 247.4,123.76 L247.4,119.8 C247.4,118.585 246.415,117.6 245.2,117.6 C243.985,117.6 243,118.585 243,119.8 L243,123.76 C243,127.282 243.068,128.118 243.719,129.396 C244.352,130.638 245.362,131.648 246.604,132.281 C247.882,132.932 248.718,133 252.24,133 L256.2,133 C257.415,133 258.4,132.015 258.4,130.8 C258.4,129.585 257.415,128.6 256.2,128.6 Z M287,102.2 L287,98.24 C287,94.718 286.932,93.882 286.281,92.604 C285.648,91.362 284.638,90.352 283.396,89.719 C282.118,89.068 281.282,89 277.76,89 L273.8,89 C272.585,89 271.6,89.985 271.6,91.2 C271.6,92.415 272.585,93.4 273.8,93.4 L277.76,93.4 C280.398,93.4 281.029,93.452 281.399,93.64 C281.813,93.851 282.149,94.187 282.36,94.601 C282.548,94.971 282.6,95.602 282.6,98.24 L282.6,102.2 C282.6,103.415 283.585,104.4 284.8,104.4 C286.015,104.4 287,103.415 287,102.2 Z M282.6,119.8 L282.6,123.76 C282.6,126.398 282.548,127.029 282.36,127.399 C282.149,127.813 281.813,128.149 281.399,128.36 C281.029,128.548 280.398,128.6 277.76,128.6 L273.8,128.6 C272.585,128.6 271.6,129.585 271.6,130.8 C271.6,132.015 272.585,133 273.8,133 L277.76,133 C281.282,133 282.118,132.932 283.396,132.281 C284.638,131.648 285.648,130.638 286.281,129.396 C286.932,128.118 287,127.282 287,123.76 L287,119.8 C287,118.585 286.015,117.6 284.8,117.6 C283.585,117.6 282.6,118.585 282.6,119.8 Z M271.6,111 C271.6,114.645 268.645,117.6 265,117.6 C261.355,117.6 258.4,114.645 258.4,111 C258.4,107.355 261.355,104.4 265,104.4 C268.645,104.4 271.6,107.355 271.6,111 Z M276,111 C276,104.925 271.075,100 265,100 C258.925,100 254,104.925 254,111 C254,117.075 258.925,122 265,122 C271.075,122 276,117.075 276,111 Z" />
        </g>
        <g id="Regular-M" transform="translate(0,200)">
            <path d="M456.2,89 L452.24,89 C448.718,89 447.882,89.068 446.604,89.719 C445.362,90.352 444.352,91.362 443.719,92.604 C443.068,93.882 443,94.718 443,98.24 L443,102.2 C443,103.415 443.985,104.4 445.2,104.4 C446.415,104.4 447.4,103.415 447.4,102.2 L447.4,98.24 C447.4,95.602 447.452,94.971 447.64,94.601 C447.851,94.187 448.187,93.851 448.601,93.64 C448.971,93.452 449.602,93.4 452.24,93.4 L456.2,93.4 C457.415,93.4 458.4,92.415 458.4,91.2 C458.4,89.985 457.415,89 456.2,89 Z M456.2,128.6 L452.24,128.6 C449.602,128.6 448.971,128.548 448.601,128.36 C448.187,128.149 447.851,127.813 447.64,127.399 C447.452,127.029 447.4,126.398 447.4,123.76 L447.4,119.8 C447.4,118.585 446.415,117.6 445.2,117.6 C443.985,117.6 443,118.585 443,119.8 L443,123.76 C443,127.282 443.068,128.118 443.719,129.396 C444.352,130.638 445.362,131.648 446.604,132.281 C447.882,132.932 448.718,133 452.24,133 L456.2,133 C457.415,133 458.4,132.015 458.4,130.8 C458.4,129.585 457.415,128.6 456.2,128.6 Z M487,102.2 L487,98.24 C487,94.718 486.932,93.882 486.281,92.604 C485.648,91.362 484.638,90.352 483.396,89.719 C482.118,89.068 481.282,89 477.76,89 L473.8,89 C472.585,89 471.6,89.985 471.6,91.2 C471.6,92.415 472.585,93.4 473.8,93.4 L477.76,93.4 C480.398,93.4 481.029,93.452 481.399,93.64 C481.813,93.851 482.149,94.187 482.36,94.601 C482.548,94.971 482.6,95.602 482.6,98.24 L482.6,102.2 C482.6,103.415 483.585,104.4 484.8,104.4 C486.015,104.4 487,103.415 487,102.2 Z M482.6,119.8 L482.6,123.76 C482.6,126.398 482.548,127.029 482.36,127.399 C482.149,127.813 481.813,128.149 481.399,128.36 C481.029,128.548 480.398,128.6 477.76,128.6 L473.8,128.6 C472.585,128.6 471.6,129.585 471.6,130.8 C471.6,132.015 472.585,133 473.8,133 L477.76,133 C481.282,133 482.118,132.932 483.396,132.281 C484.638,131.648 485.648,130.638 486.281,129.396 C486.932,128.118 487,127.282 487,123.76 L487,119.8 C487,118.585 486.015,117.6 484.8,117.6 C483.585,117.6 482.6,118.585 482.6,119.8 Z M471.6,111 C471.6,114.645 468.645,117.6 465,117.6 C461.355,117.6 458.4,114.645 458.4,111 C458.4,107.355 461.355,104.4 465,104.4 C468.645,104.4 471.6,107.355 471.6,111 Z M476,111 C476,104.925 471.075,100 465,100 C458.925,100 454,104.925 454,111 C454,117.075 458.925,122 465,122 C471.075,122 476,117.075 476,111 Z" />
        </g>
        <g id="Black-M" transform="translate(0,200)">
            <path d="M656.2,89 L652.24,89 C648.718,89 647.882,89.068 646.604,89.719 C645.362,90.352 644.352,91.362 643.719,92.604 C643.068,93.882 643,94.718 643,98.24 L643,102.2 C643,103.415 643.985,104.4 645.2,104.4 C646.415,104.4 647.4,103.415 647.4,102.2 L647.4,98.24 C647.4,95.602 647.452,94.971 647.64,94.601 C647.851,94.187 648.187,93.851 648.601,93.64 C648.971,93.452 649.602,93.4 652.24,93.4 L656.2,93.4 C657.415,93.4 658.4,92.415 658.4,91.2 C658.4,89.985 657.415,89 656.2,89 Z M656.2,128.6 L652.24,128.6 C649.602,128.6 648.971,128.548 648.601,128.36 C648.187,128.149 647.851,127.813 647.64,127.399 C647.452,127.029 647.4,126.398 647.4,123.76 L647.4,119.8 C647.4,118.585 646.415,117.6 645.2,117.6 C643.985,117.6 643,118.585 643,119.8 L643,123.76 C643,127.282 643.068,128.118 643.719,129.396 C644.352,130.638 645.362,131.648 646.604,132.281 C647.882,132.932 648.718,133 652.24,133 L656.2,133 C657.415,133 658.4,132.015 658.4,130.8 C658.4,129.585 657.415,128.6 656.2,128.6 Z M687,102.2 L687,98.24 C687,94.718 686.932,93.882 686.281,92.604 C685.648,91.362 684.638,90.352 683.396,89.719 C682.118,89.068 681.282,89 677.76,89 L673.8,89 C672.585,89 671.6,89.985 671.6,91.2 C671.6,92.415 672.585,93.4 673.8,93.4 L677.76,93.4 C680.398,93.4 681.029,93.452 681.399,93.64 C681.813,93.851 682.149,94.187 682.36,94.601 C682.548,94.971 682.6,95.602 682.6,98.24 L682.6,102.2 C682.6,103.415 683.585,104.4 684.8,104.4 C686.015,104.4 687,103.415 687,102.2 Z M682.6,119.8 L682.6,123.76 C682.6,126.398 682.548,127.029 682.36,127.399 C682.149,127.813 681.813,128.149 681.399,128.36 C681.029,128.548 680.398,128.6 677.76,128.6 L673.8,128.6 C672.585,128.6 671.6,129.585 671.6,130.8 C671.6,132.015 672.585,133 673.8,133 L677.76,133 C681.282,133 682.118,132.932 683.396,132.281 C684.638,131.648 685.648,130.638 686.281,129.396 C686.932,128.118 687,127.282 687,123.76 L687,119.8 C687,118.585 686.015,117.6 684.8,117.6 C683.585,117.6 682.6,118.585 682.6,119.8 Z M671.6,111 C671.6,114.645 668.645,117.6 665,117.6 C661.355,117.6 658.4,114.645 658.4,111 C658.4,107.355 661.355,104.4 665,104.4 C668.645,104.4 671.6,107.355 671.6,111 Z M676,111 C676,104.925 671.075,100 665,100 C658.925,100 654,104.925 654,111 C654,117.075 658.925,122 665,122 C671.075,122 676,117.075 676,111 Z" />
        </g>
    </g>
</svg>