<?xml version="1.0" encoding="UTF-8"?>
<svg height="600" width="800" xmlns="http://www.w3.org/2000/svg" xmlns:xlink="http://www.w3.org/1999/xlink">
    <g id="Notes" font-family="LucidaGrande, 'Lucida Grande', sans-serif" font-size="13">
        <rect fill="white" height="600.0" width="800.0" x="0.0" y="0.0" />
        <g font-size="13">
            <text x="18.0" y="176.0">Small</text>
            <text x="18.0" y="376.0">Medium</text>
            <text x="18.0" y="576.0">Large</text>
        </g>
        <g font-size="9">
            <text x="250.0" y="30.0">Ultralight</text>
            <text x="450.0" y="30.0">Regular</text>
            <text x="650.0" y="30.0">Black</text>
            <text id="template-version" fill="#505050" text-anchor="end" x="785.0" y="575.0">Template v.3.0</text>
            <a href="https://github.com/swhitty/SwiftDraw">
                <text fill="#505050" text-anchor="end" x="785.0" y="590.0">https://github.com/swhitty/SwiftDraw</text>
            </a>
        </g>
    </g>
    <g id="Guides" stroke="rgb(39, 170, 225)" stroke-width="0.5">
        <path id="Capline-S" d="M18,76 l800,0" />
        <path id="H-reference" d="M85,145.755 L87.685,145.755 L113.369,79.287 L114.052,79.287 L114.052,76 L112.148,76 L85,145.755 Z M95.693,121.536 L130.996,121.536 L130.263,119.313 L96.474,119.313 L95.693,121.536 Z M139.15,145.755 L141.787,145.755 L114.638,76 L113.466,76 L113.466,79.287 L139.15,145.755 Z" stroke="none" transform="translate(0,200)" />
        <path id="Baseline-S" d="M18,146 l800,0" />
        <path id="left-margin-Ultralight-M" d="M221,256 l0,110" />
        <path id="right-margin-Ultralight-M" d="M309,256 l0,110" />
        <path id="left-margin-Regular-M" d="M421,256 l0,110" />
        <path id="right-margin-Regular-M" d="M509,256 l0,110" />
        <path id="left-margin-Black-M" d="M621,256 l0,110" />
        <path id="right-margin-Black-M" d="M709,256 l0,110" />
        <path id="Capline-M" d="M18,276 l800,0" />
        <path id="Baseline-M" d="M18,346 l800,0" />
        <path id="Capline-L" d="M18,476 l800,0" />
        <path id="Baseline-L" d="M18,546 l800,0" />
    </g>
    <g id="Symbols">
        <g id="Ultralight-M" transform="translate(0,200)">
            <path d="M243.644,97.156 L265.644,119.156 C266.504,120.015 267.896,120.015 268.756,119.156 C269.615,118.296 269.615,116.904 268.756,116.044 L246.756,94.044 C245.896,93.185 244.504,93.185 243.644,94.044 C242.785,94.904 242.785,96.296 243.644,97.156 Z M265.644,94.044 L243.644,116.044 C242.785,116.904 242.785,118.296 243.644,119.156 C244.504,120.015 245.896,120.015 246.756,119.156 L268.756,97.156 C269.615,96.296 269.615,94.904 268.756,94.044 C267.896,93.185 266.504,93.185 265.644,94.044 Z M284.8,124.2 L276,124.2 L278.2,126.4 C278.2,124.158 278.485,123.717 280.239,122.89 C281.052,122.506 281.384,122.346 281.848,122.104 C285.118,120.404 287,118.456 287,115.4 C287,113.836 286.435,112.316 285.411,111.126 C283.254,108.683 279.711,108.088 276.897,109.679 C275.509,110.472 274.456,111.724 273.927,113.211 C273.52,114.356 274.118,115.614 275.263,116.021 C276.408,116.428 277.666,115.83 278.073,114.685 C278.248,114.194 278.602,113.772 279.072,113.504 C280.067,112.941 281.331,113.154 282.095,114.018 C282.414,114.388 282.6,114.89 282.6,115.4 C282.6,116.327 281.771,117.185 279.819,118.2 C279.423,118.406 279.123,118.551 278.361,118.91 C275.082,120.457 273.8,122.439 273.8,126.4 C273.8,127.615 274.785,128.6 276,128.6 L284.8,128.6 C286.015,128.6 287,127.615 287,126.4 C287,125.185 286.015,124.2 284.8,124.2 Z" />
        </g>
        <g id="Regular-M" transform="translate(0,200)">
            <path d="M443.644,97.156 L465.644,119.156 C466.504,120.015 467.896,120.015 468.756,119.156 C469.615,118.296 469.615,116.904 468.756,116.044 L446.756,94.044 C445.896,93.185 444.504,93.185 443.644,94.044 C442.785,94.904 442.785,96.296 443.644,97.156 Z M465.644,94.044 L443.644,116.044 C442.785,116.904 442.785,118.296 443.644,119.156 C444.504,120.015 445.896,120.015 446.756,119.156 L468.756,97.156 C469.615,96.296 469.615,94.904 468.756,94.044 C467.896,93.185 466.504,93.185 465.644,94.044 Z M484.8,124.2 L476,124.2 L478.2,126.4 C478.2,124.158 478.485,123.717 480.239,122.89 C481.052,122.506 481.384,122.346 481.848,122.104 C485.118,120.404 487,118.456 487,115.4 C487,113.836 486.435,112.316 485.411,111.126 C483.254,108.683 479.711,108.088 476.897,109.679 C475.509,110.472 474.456,111.724 473.927,113.211 C473.52,114.356 474.118,115.614 475.263,116.021 C476.408,116.428 477.666,115.83 478.073,114.685 C478.248,114.194 478.602,113.772 479.072,113.504 C480.067,112.941 481.331,113.154 482.095,114.018 C482.414,114.388 482.6,114.89 482.6,115.4 C482.6,116.327 481.771,117.185 479.819,118.2 C479.423,118.406 479.123,118.551 478.361,118.91 C475.082,120.457 473.8,122.439 473.8,126.4 C473.8,127.615 474.785,128.6 476,128.6 L484.8,128.6 C486.015,128.6 487,127.615 487,126.4 C487,125.185 486.015,124.2 484.8,124.2 Z" />
        </g>
        <g id="Black-M" transform="translate(0,200)">
            <path d="M643.644,97.156 L665.644,119.156 C666.503,120.015 667.896,120.015 668.756,119.156 C669.615,118.296 669.615,116.904 668.756,116.044 L646.756,94.044 C645.896,93.185 644.503,93.185 643.644,94.044 C642.785,94.904 642.785,96.296 643.644,97.156 Z M665.644,94.044 L643.644,116.044 C642.785,116.904 642.785,118.296 643.644,119.156 C644.503,120.015 645.896,120.015 646.756,119.156 L668.756,97.156 C669.615,96.296 669.615,94.904 668.756,94.044 C667.896,93.185 666.503,93.185 665.644,94.044 Z M684.8,124.2 L676,124.2 L678.2,126.4 C678.2,124.158 678.485,123.717 680.239,122.89 C681.052,122.506 681.384,122.346 681.848,122.104 C685.118,120.404 687,118.456 687,115.4 C687,113.836 686.435,112.316 685.411,111.126 C683.253,108.683 679.711,108.088 676.897,109.679 C675.509,110.472 674.456,111.724 673.927,113.211 C673.52,114.356 674.118,115.614 675.263,116.021 C676.408,116.428 677.666,115.83 678.073,114.685 C678.248,114.194 678.602,113.772 679.071,113.504 C680.067,112.941 681.331,113.154 682.095,114.018 C682.414,114.388 682.6,114.89 682.6,115.4 C682.6,116.327 681.771,117.185 679.819,118.2 C679.422,118.406 679.123,118.551 678.361,118.91 C675.082,120.457 673.8,122.439 673.8,126.4 C673.8,127.615 674.785,128.6 676,128.6 L684.8,128.6 C686.015,128.6 687,127.615 687,126.4 C687,125.185 686.015,124.2 684.8,124.2 Z" />
        </g>
    </g>
</svg>