<?xml version="1.0" encoding="UTF-8"?>
<svg height="600" width="800" xmlns="http://www.w3.org/2000/svg" xmlns:xlink="http://www.w3.org/1999/xlink">
    <g id="Notes" font-family="LucidaGrande, 'Lucida Grande', sans-serif" font-size="13">
        <rect fill="white" height="600.0" width="800.0" x="0.0" y="0.0" />
        <g font-size="13">
            <text x="18.0" y="176.0">Small</text>
            <text x="18.0" y="376.0">Medium</text>
            <text x="18.0" y="576.0">Large</text>
        </g>
        <g font-size="9">
            <text x="250.0" y="30.0">Ultralight</text>
            <text x="450.0" y="30.0">Regular</text>
            <text x="650.0" y="30.0">Black</text>
            <text id="template-version" fill="#505050" text-anchor="end" x="785.0" y="575.0">Template v.3.0</text>
            <a href="https://github.com/swhitty/SwiftDraw">
                <text fill="#505050" text-anchor="end" x="785.0" y="590.0">https://github.com/swhitty/SwiftDraw</text>
            </a>
        </g>
    </g>
    <g id="Guides" stroke="rgb(39, 170, 225)" stroke-width="0.5">
        <path id="Capline-S" d="M18,76 l800,0" />
        <path id="H-reference" d="M85,145.755 L87.685,145.755 L113.369,79.287 L114.052,79.287 L114.052,76 L112.148,76 L85,145.755 Z M95.693,121.536 L130.996,121.536 L130.263,119.313 L96.474,119.313 L95.693,121.536 Z M139.15,145.755 L141.787,145.755 L114.638,76 L113.466,76 L113.466,79.287 L139.15,145.755 Z" stroke="none" transform="translate(0,200)" />
        <path id="Baseline-S" d="M18,146 l800,0" />
        <path id="left-margin-Ultralight-M" d="M233.182,256 l0,110" />
        <path id="right-margin-Ultralight-M" d="M296.818,256 l0,110" />
        <path id="left-margin-Regular-M" d="M433.182,256 l0,110" />
        <path id="right-margin-Regular-M" d="M496.818,256 l0,110" />
        <path id="left-margin-Black-M" d="M633.182,256 l0,110" />
        <path id="right-margin-Black-M" d="M696.818,256 l0,110" />
        <path id="Capline-M" d="M18,276 l800,0" />
        <path id="Baseline-M" d="M18,346 l800,0" />
        <path id="Capline-L" d="M18,476 l800,0" />
        <path id="Baseline-L" d="M18,546 l800,0" />
    </g>
    <g id="Symbols">
        <g id="Ultralight-M" transform="translate(0,200)">
            <path d="M283.071,132.726 C291.608,126.951 296.818,117.479 296.818,107.134 C296.818,89.922 282.555,76 265,76 C247.445,76 233.182,89.922 233.182,107.134 C233.182,117.479 238.392,126.951 246.929,132.726 C248.385,133.711 250.363,133.329 251.348,131.874 C252.332,130.418 251.951,128.44 250.495,127.455 C243.679,122.844 239.545,115.33 239.545,107.134 C239.545,93.471 250.926,82.364 265,82.364 C279.074,82.364 290.455,93.471 290.455,107.134 C290.455,115.33 286.321,122.844 279.505,127.455 C278.049,128.44 277.668,130.418 278.652,131.874 C279.637,133.329 281.615,133.711 283.071,132.726 Z M255.68,115.126 C253.496,112.919 252.273,110.059 252.273,107.023 C252.273,100.474 257.938,95.091 265,95.091 C272.063,95.091 277.727,100.472 277.727,107.023 C277.727,110.061 276.505,112.918 274.32,115.126 C273.084,116.375 273.095,118.39 274.344,119.625 C275.593,120.861 277.608,120.851 278.844,119.602 C282.185,116.225 284.091,111.771 284.091,107.023 C284.091,96.882 275.507,88.727 265,88.727 C254.494,88.727 245.909,96.884 245.909,107.023 C245.909,111.769 247.816,116.225 251.156,119.602 C252.392,120.851 254.407,120.861 255.656,119.625 C256.905,118.39 256.916,116.375 255.68,115.126 Z M265,139.636 C264.156,139.636 263.347,139.301 262.75,138.704 C262.153,138.108 261.818,137.298 261.818,136.455 L261.818,130.091 C261.818,128.334 263.243,126.909 265,126.909 C266.757,126.909 268.182,128.334 268.182,130.091 L268.182,136.455 C268.182,137.298 267.847,138.108 267.25,138.704 C266.653,139.301 265.844,139.636 265,139.636 Z M265,146 C267.532,146 269.96,144.994 271.75,143.204 C273.54,141.414 274.545,138.986 274.545,136.455 L274.545,130.091 C274.545,124.819 270.272,120.545 265,120.545 C259.728,120.545 255.455,124.819 255.455,130.091 L255.455,136.455 C255.455,138.986 256.46,141.414 258.25,143.204 C260.04,144.994 262.468,146 265,146 Z M265,107.818 C265,107.818 265,107.818 265,107.818 C265,107.818 265,107.818 265,107.818 C265,107.818 265,107.818 265,107.818 C265,107.818 265,107.818 265,107.818 Z M271.364,107.818 C271.364,104.304 268.515,101.455 265,101.455 C261.485,101.455 258.636,104.304 258.636,107.818 C258.636,111.333 261.485,114.182 265,114.182 C268.515,114.182 271.364,111.333 271.364,107.818 Z" />
        </g>
        <g id="Regular-M" transform="translate(0,200)">
            <path d="M483.071,132.726 C491.608,126.951 496.818,117.479 496.818,107.134 C496.818,89.922 482.555,76 465,76 C447.445,76 433.182,89.922 433.182,107.134 C433.182,117.479 438.392,126.951 446.929,132.726 C448.385,133.711 450.363,133.329 451.348,131.874 C452.332,130.418 451.951,128.44 450.495,127.455 C443.679,122.844 439.545,115.33 439.545,107.134 C439.545,93.471 450.926,82.364 465,82.364 C479.074,82.364 490.455,93.471 490.455,107.134 C490.455,115.33 486.321,122.844 479.505,127.455 C478.049,128.44 477.668,130.418 478.652,131.874 C479.637,133.329 481.615,133.711 483.071,132.726 Z M455.68,115.126 C453.496,112.919 452.273,110.059 452.273,107.023 C452.273,100.474 457.938,95.091 465,95.091 C472.063,95.091 477.727,100.472 477.727,107.023 C477.727,110.061 476.505,112.918 474.32,115.126 C473.084,116.375 473.095,118.39 474.344,119.625 C475.593,120.861 477.608,120.851 478.844,119.602 C482.185,116.225 484.091,111.771 484.091,107.023 C484.091,96.882 475.507,88.727 465,88.727 C454.494,88.727 445.909,96.884 445.909,107.023 C445.909,111.769 447.816,116.225 451.156,119.602 C452.392,120.851 454.407,120.861 455.656,119.625 C456.905,118.39 456.916,116.375 455.68,115.126 Z M465,139.636 C464.156,139.636 463.347,139.301 462.75,138.704 C462.153,138.108 461.818,137.298 461.818,136.455 L461.818,130.091 C461.818,128.334 463.243,126.909 465,126.909 C466.757,126.909 468.182,128.334 468.182,130.091 L468.182,136.455 C468.182,137.298 467.847,138.108 467.25,138.704 C466.653,139.301 465.844,139.636 465,139.636 Z M465,146 C467.532,146 469.96,144.994 471.75,143.204 C473.54,141.414 474.545,138.986 474.545,136.455 L474.545,130.091 C474.545,124.819 470.272,120.545 465,120.545 C459.728,120.545 455.455,124.819 455.455,130.091 L455.455,136.455 C455.455,138.986 456.46,141.414 458.25,143.204 C460.04,144.994 462.468,146 465,146 Z M465,107.818 C465,107.818 465,107.818 465,107.818 C465,107.818 465,107.818 465,107.818 C465,107.818 465,107.818 465,107.818 C465,107.818 465,107.818 465,107.818 Z M471.364,107.818 C471.364,104.304 468.515,101.455 465,101.455 C461.485,101.455 458.636,104.304 458.636,107.818 C458.636,111.333 461.485,114.182 465,114.182 C468.515,114.182 471.364,111.333 471.364,107.818 Z" />
        </g>
        <g id="Black-M" transform="translate(0,200)">
            <path d="M683.071,132.726 C691.608,126.951 696.818,117.479 696.818,107.134 C696.818,89.922 682.555,76 665,76 C647.445,76 633.182,89.922 633.182,107.134 C633.182,117.479 638.392,126.951 646.929,132.726 C648.385,133.711 650.363,133.329 651.348,131.874 C652.332,130.418 651.951,128.44 650.495,127.455 C643.679,122.844 639.545,115.33 639.545,107.134 C639.545,93.471 650.926,82.364 665,82.364 C679.074,82.364 690.455,93.471 690.455,107.134 C690.455,115.33 686.321,122.844 679.505,127.455 C678.049,128.44 677.668,130.418 678.652,131.874 C679.637,133.329 681.615,133.711 683.071,132.726 Z M655.68,115.126 C653.496,112.919 652.273,110.059 652.273,107.023 C652.273,100.474 657.938,95.091 665,95.091 C672.063,95.091 677.727,100.472 677.727,107.023 C677.727,110.061 676.505,112.918 674.32,115.126 C673.084,116.375 673.095,118.39 674.344,119.625 C675.593,120.861 677.608,120.851 678.844,119.602 C682.185,116.225 684.091,111.771 684.091,107.023 C684.091,96.882 675.507,88.727 665,88.727 C654.494,88.727 645.909,96.884 645.909,107.023 C645.909,111.769 647.816,116.225 651.156,119.602 C652.392,120.851 654.407,120.861 655.656,119.625 C656.905,118.39 656.916,116.375 655.68,115.126 Z M665,139.636 C664.156,139.636 663.347,139.301 662.75,138.704 C662.153,138.108 661.818,137.298 661.818,136.455 L661.818,130.091 C661.818,128.334 663.243,126.909 665,126.909 C666.757,126.909 668.182,128.334 668.182,130.091 L668.182,136.455 C668.182,137.298 667.847,138.108 667.25,138.704 C666.653,139.301 665.844,139.636 665,139.636 Z M665,146 C667.532,146 669.96,144.994 671.75,143.204 C673.54,141.414 674.545,138.986 674.545,136.455 L674.545,130.091 C674.545,124.819 670.272,120.545 665,120.545 C659.728,120.545 655.455,124.819 655.455,130.091 L655.455,136.455 C655.455,138.986 656.46,141.414 658.25,143.204 C660.04,144.994 662.468,146 665,146 Z M665,107.818 C665,107.818 665,107.818 665,107.818 C665,107.818 665,107.818 665,107.818 C665,107.818 665,107.818 665,107.818 C665,107.818 665,107.818 665,107.818 Z M671.364,107.818 C671.364,104.304 668.515,101.455 665,101.455 C661.485,101.455 658.636,104.304 658.636,107.818 C658.636,111.333 661.485,114.182 665,114.182 C668.515,114.182 671.364,111.333 671.364,107.818 Z" />
        </g>
    </g>
</svg>