<?xml version="1.0" encoding="UTF-8"?>
<svg height="600" width="800" xmlns="http://www.w3.org/2000/svg" xmlns:xlink="http://www.w3.org/1999/xlink">
    <g id="Notes" font-family="LucidaGrande, 'Lucida Grande', sans-serif" font-size="13">
        <rect fill="white" height="600.0" width="800.0" x="0.0" y="0.0" />
        <g font-size="13">
            <text x="18.0" y="176.0">Small</text>
            <text x="18.0" y="376.0">Medium</text>
            <text x="18.0" y="576.0">Large</text>
        </g>
        <g font-size="9">
            <text x="250.0" y="30.0">Ultralight</text>
            <text x="450.0" y="30.0">Regular</text>
            <text x="650.0" y="30.0">Black</text>
            <text id="template-version" fill="#505050" text-anchor="end" x="785.0" y="575.0">Template v.3.0</text>
            <a href="https://github.com/swhitty/SwiftDraw">
                <text fill="#505050" text-anchor="end" x="785.0" y="590.0">https://github.com/swhitty/SwiftDraw</text>
            </a>
        </g>
    </g>
    <g id="Guides" stroke="rgb(39, 170, 225)" stroke-width="0.5">
        <path id="Capline-S" d="M18,76 l800,0" />
        <path id="H-reference" d="M85,145.755 L87.685,145.755 L113.369,79.287 L114.052,79.287 L114.052,76 L112.148,76 L85,145.755 Z M95.693,121.536 L130.996,121.536 L130.263,119.313 L96.474,119.313 L95.693,121.536 Z M139.15,145.755 L141.787,145.755 L114.638,76 L113.466,76 L113.466,79.287 L139.15,145.755 Z" stroke="none" transform="translate(0,200)" />
        <path id="Baseline-S" d="M18,146 l800,0" />
        <path id="left-margin-Ultralight-M" d="M221,256 l0,110" />
        <path id="right-margin-Ultralight-M" d="M309,256 l0,110" />
        <path id="left-margin-Regular-M" d="M421,256 l0,110" />
        <path id="right-margin-Regular-M" d="M509,256 l0,110" />
        <path id="left-margin-Black-M" d="M621,256 l0,110" />
        <path id="right-margin-Black-M" d="M709,256 l0,110" />
        <path id="Capline-M" d="M18,276 l800,0" />
        <path id="Baseline-M" d="M18,346 l800,0" />
        <path id="Capline-L" d="M18,476 l800,0" />
        <path id="Baseline-L" d="M18,546 l800,0" />
    </g>
    <g id="Symbols">
        <g id="Ultralight-M" transform="translate(0,200)">
            <path d="M271.286,113.096 L285.952,113.096 C287.11,113.096 288.048,112.158 288.048,111.001 C288.048,109.844 287.11,108.906 285.952,108.906 L271.286,108.906 C270.129,108.906 269.19,109.844 269.19,111.001 C269.19,112.158 270.129,113.096 271.286,113.096 Z M258.561,95.62 L251.932,102.249 C251.613,102.568 251.543,102.632 251.555,102.624 C251.564,102.619 251.564,102.619 251.564,102.619 C251.576,102.616 251.487,102.62 251.039,102.62 L247.4,102.62 C245.512,102.62 245.065,102.656 244.241,103.077 C243.452,103.478 242.811,104.12 242.409,104.908 C241.989,105.733 241.952,106.18 241.952,108.068 L241.952,113.934 C241.952,115.822 241.989,116.269 242.409,117.094 C242.811,117.882 243.452,118.523 244.24,118.925 C245.065,119.345 245.512,119.382 247.4,119.382 L251.039,119.382 C251.485,119.382 251.574,119.386 251.554,119.381 C251.562,119.383 251.562,119.383 251.562,119.383 C251.549,119.375 251.549,119.375 251.537,119.366 C251.549,119.375 251.629,119.449 251.934,119.753 L258.561,126.382 C260.281,128.102 260.495,128.281 261.616,128.366 C262.614,128.446 263.596,128.039 264.25,127.272 C264.976,126.418 265,126.142 265,123.717 L265,98.283 C265,95.862 264.975,95.58 264.249,94.727 C263.589,93.957 262.608,93.553 261.604,93.634 C260.494,93.719 260.284,93.895 258.561,95.617 C258.168,96.01 257.947,96.543 257.947,97.099 L257.947,97.101 L260.043,97.101 L258.561,95.62 Z M261.524,98.583 C261.917,98.19 262.138,97.657 262.138,97.101 L262.138,97.099 L260.043,97.099 L261.524,98.581 C262.088,98.016 262.283,97.828 262.447,97.691 C262.422,97.711 262.289,97.784 261.933,97.812 C261.608,97.838 261.281,97.703 261.062,97.448 C260.831,97.177 260.789,97.032 260.786,97.004 C260.805,97.216 260.81,97.486 260.81,98.283 L260.81,123.717 C260.81,124.513 260.805,124.784 260.786,124.996 C260.789,124.967 260.831,124.824 261.059,124.556 C261.279,124.298 261.606,124.162 261.941,124.189 C262.288,124.215 262.422,124.288 262.446,124.308 C262.283,124.171 262.088,123.983 261.524,123.419 L254.893,116.786 C254.372,116.268 254.237,116.141 253.941,115.934 C253.847,115.87 253.847,115.87 253.748,115.808 C253.376,115.58 252.966,115.41 252.537,115.308 C252.103,115.202 251.877,115.191 251.039,115.191 L247.4,115.191 C246.354,115.191 246.102,115.171 246.143,115.191 C246.143,115.191 246.143,115.191 246.143,115.191 C246.163,115.232 246.143,114.98 246.143,113.934 L246.143,108.068 C246.143,107.022 246.163,106.77 246.143,106.81 C246.143,106.81 246.143,106.81 246.143,106.81 C246.102,106.831 246.354,106.81 247.4,106.81 L251.039,106.81 C251.874,106.81 252.101,106.8 252.543,106.693 C252.968,106.592 253.378,106.422 253.754,106.191 C254.142,105.951 254.307,105.8 254.895,105.212 L261.524,98.583 Z" />
        </g>
        <g id="Regular-M" transform="translate(0,200)">
            <path d="M471.286,113.096 L485.952,113.096 C487.11,113.096 488.048,112.158 488.048,111.001 C488.048,109.844 487.11,108.906 485.952,108.906 L471.286,108.906 C470.129,108.906 469.19,109.844 469.19,111.001 C469.19,112.158 470.129,113.096 471.286,113.096 Z M458.561,95.62 L451.932,102.249 C451.613,102.568 451.543,102.632 451.555,102.624 C451.564,102.619 451.564,102.619 451.564,102.619 C451.576,102.616 451.487,102.62 451.039,102.62 L447.4,102.62 C445.512,102.62 445.065,102.656 444.241,103.077 C443.452,103.478 442.811,104.12 442.409,104.908 C441.989,105.733 441.952,106.18 441.952,108.068 L441.952,113.934 C441.952,115.822 441.989,116.269 442.409,117.094 C442.811,117.882 443.452,118.523 444.24,118.925 C445.065,119.345 445.512,119.382 447.4,119.382 L451.039,119.382 C451.485,119.382 451.574,119.386 451.554,119.381 C451.562,119.383 451.562,119.383 451.562,119.383 C451.549,119.375 451.549,119.375 451.537,119.366 C451.549,119.375 451.629,119.449 451.934,119.753 L458.561,126.382 C460.281,128.102 460.495,128.281 461.616,128.366 C462.614,128.446 463.596,128.039 464.25,127.272 C464.976,126.418 465,126.142 465,123.717 L465,98.283 C465,95.862 464.975,95.58 464.249,94.727 C463.589,93.957 462.608,93.553 461.604,93.634 C460.494,93.719 460.284,93.895 458.561,95.617 C458.168,96.01 457.947,96.543 457.947,97.099 L457.947,97.101 L460.043,97.101 L458.561,95.62 Z M461.524,98.583 C461.917,98.19 462.138,97.657 462.138,97.101 L462.138,97.099 L460.043,97.099 L461.524,98.581 C462.088,98.016 462.283,97.828 462.447,97.691 C462.422,97.711 462.289,97.784 461.933,97.812 C461.608,97.838 461.281,97.703 461.062,97.448 C460.831,97.177 460.789,97.032 460.786,97.004 C460.805,97.216 460.81,97.486 460.81,98.283 L460.81,123.717 C460.81,124.513 460.805,124.784 460.786,124.996 C460.789,124.967 460.831,124.824 461.059,124.556 C461.279,124.298 461.606,124.162 461.941,124.189 C462.288,124.215 462.422,124.288 462.446,124.308 C462.283,124.171 462.088,123.983 461.524,123.419 L454.893,116.786 C454.372,116.268 454.237,116.141 453.941,115.934 C453.847,115.87 453.847,115.87 453.748,115.808 C453.376,115.58 452.966,115.41 452.537,115.308 C452.103,115.202 451.876,115.191 451.039,115.191 L447.4,115.191 C446.354,115.191 446.102,115.171 446.143,115.191 C446.143,115.191 446.143,115.191 446.143,115.191 C446.163,115.232 446.143,114.98 446.143,113.934 L446.143,108.068 C446.143,107.022 446.163,106.77 446.143,106.81 C446.143,106.81 446.143,106.81 446.143,106.81 C446.102,106.831 446.354,106.81 447.4,106.81 L451.039,106.81 C451.874,106.81 452.101,106.8 452.543,106.693 C452.968,106.592 453.378,106.422 453.754,106.191 C454.142,105.951 454.307,105.8 454.895,105.212 L461.524,98.583 Z" />
        </g>
        <g id="Black-M" transform="translate(0,200)">
            <path d="M671.286,113.096 L685.952,113.096 C687.109,113.096 688.048,112.158 688.048,111.001 C688.048,109.844 687.109,108.906 685.952,108.906 L671.286,108.906 C670.129,108.906 669.19,109.844 669.19,111.001 C669.19,112.158 670.129,113.096 671.286,113.096 Z M658.561,95.62 L651.932,102.249 C651.613,102.568 651.543,102.632 651.555,102.624 C651.564,102.619 651.564,102.619 651.564,102.619 C651.576,102.616 651.487,102.62 651.039,102.62 L647.4,102.62 C645.512,102.62 645.065,102.656 644.241,103.077 C643.452,103.478 642.811,104.12 642.409,104.908 C641.989,105.733 641.952,106.18 641.952,108.068 L641.952,113.934 C641.952,115.822 641.989,116.269 642.409,117.094 C642.811,117.882 643.452,118.523 644.24,118.925 C645.065,119.345 645.512,119.382 647.4,119.382 L651.039,119.382 C651.485,119.382 651.574,119.386 651.554,119.381 C651.562,119.383 651.562,119.383 651.562,119.383 C651.549,119.375 651.549,119.375 651.536,119.366 C651.549,119.375 651.629,119.449 651.934,119.753 L658.561,126.382 C660.281,128.102 660.495,128.281 661.616,128.366 C662.614,128.446 663.596,128.039 664.25,127.272 C664.976,126.418 665,126.142 665,123.717 L665,98.283 C665,95.862 664.975,95.58 664.249,94.727 C663.589,93.957 662.608,93.553 661.604,93.634 C660.494,93.719 660.284,93.895 658.561,95.617 C658.168,96.01 657.947,96.543 657.947,97.099 L657.947,97.101 L660.043,97.101 L658.561,95.62 Z M661.524,98.583 C661.917,98.19 662.138,97.657 662.138,97.101 L662.138,97.099 L660.043,97.099 L661.524,98.581 C662.088,98.016 662.283,97.828 662.447,97.691 C662.422,97.711 662.289,97.784 661.933,97.812 C661.608,97.838 661.281,97.703 661.062,97.448 C660.831,97.177 660.789,97.032 660.786,97.004 C660.805,97.216 660.81,97.486 660.81,98.283 L660.81,123.717 C660.81,124.513 660.805,124.784 660.786,124.996 C660.789,124.967 660.831,124.824 661.059,124.556 C661.279,124.298 661.606,124.162 661.941,124.189 C662.288,124.215 662.422,124.288 662.446,124.308 C662.283,124.171 662.088,123.983 661.524,123.419 L654.893,116.786 C654.372,116.268 654.237,116.141 653.941,115.934 C653.847,115.87 653.847,115.87 653.748,115.808 C653.376,115.58 652.966,115.41 652.537,115.308 C652.103,115.202 651.876,115.191 651.039,115.191 L647.4,115.191 C646.354,115.191 646.102,115.171 646.143,115.191 C646.143,115.191 646.143,115.191 646.143,115.191 C646.163,115.232 646.143,114.98 646.143,113.934 L646.143,108.068 C646.143,107.022 646.163,106.77 646.143,106.81 C646.143,106.81 646.143,106.81 646.143,106.81 C646.102,106.831 646.354,106.81 647.4,106.81 L651.039,106.81 C651.874,106.81 652.101,106.8 652.543,106.693 C652.968,106.592 653.378,106.422 653.754,106.191 C654.142,105.951 654.307,105.8 654.895,105.212 L661.524,98.583 Z" />
        </g>
    </g>
</svg>