<?xml version="1.0" encoding="UTF-8"?>
<svg height="600" width="800" xmlns="http://www.w3.org/2000/svg" xmlns:xlink="http://www.w3.org/1999/xlink">
    <g id="Notes" font-family="LucidaGrande, 'Lucida Grande', sans-serif" font-size="13">
        <rect fill="white" height="600.0" width="800.0" x="0.0" y="0.0" />
        <g font-size="13">
            <text x="18.0" y="176.0">Small</text>
            <text x="18.0" y="376.0">Medium</text>
            <text x="18.0" y="576.0">Large</text>
        </g>
        <g font-size="9">
            <text x="250.0" y="30.0">Ultralight</text>
            <text x="450.0" y="30.0">Regular</text>
            <text x="650.0" y="30.0">Black</text>
            <text id="template-version" fill="#505050" text-anchor="end" x="785.0" y="575.0">Template v.3.0</text>
            <a href="https://github.com/swhitty/SwiftDraw">
                <text fill="#505050" text-anchor="end" x="785.0" y="590.0">https://github.com/swhitty/SwiftDraw</text>
            </a>
        </g>
    </g>
    <g id="Guides" stroke="rgb(39, 170, 225)" stroke-width="0.5">
        <path id="Capline-S" d="M18,76 l800,0" />
        <path id="H-reference" d="M85,145.755 L87.685,145.755 L113.369,79.287 L114.052,79.287 L114.052,76 L112.148,76 L85,145.755 Z M95.693,121.536 L130.996,121.536 L130.263,119.313 L96.474,119.313 L95.693,121.536 Z M139.15,145.755 L141.787,145.755 L114.638,76 L113.466,76 L113.466,79.287 L139.15,145.755 Z" stroke="none" transform="translate(0,200)" />
        <path id="Baseline-S" d="M18,146 l800,0" />
        <path id="left-margin-Ultralight-M" d="M221,256 l0,110" />
        <path id="right-margin-Ultralight-M" d="M309,256 l0,110" />
        <path id="left-margin-Regular-M" d="M421,256 l0,110" />
        <path id="right-margin-Regular-M" d="M509,256 l0,110" />
        <path id="left-margin-Black-M" d="M621,256 l0,110" />
        <path id="right-margin-Black-M" d="M709,256 l0,110" />
        <path id="Capline-M" d="M18,276 l800,0" />
        <path id="Baseline-M" d="M18,346 l800,0" />
        <path id="Capline-L" d="M18,476 l800,0" />
        <path id="Baseline-L" d="M18,546 l800,0" />
    </g>
    <g id="Symbols">
        <g id="Ultralight-M" transform="translate(0,200)">
            <path d="M258.4,93.4 L271.6,93.4 C272.815,93.4 273.8,92.415 273.8,91.2 C273.8,89.985 272.815,89 271.6,89 L258.4,89 C257.185,89 256.2,89.985 256.2,91.2 C256.2,92.415 257.185,93.4 258.4,93.4 Z M245.2,100 L284.8,100 C286.015,100 287,99.015 287,97.8 C287,96.585 286.015,95.6 284.8,95.6 L245.2,95.6 C243.985,95.6 243,96.585 243,97.8 C243,99.015 243.985,100 245.2,100 Z M278.205,97.654 L276.663,120.798 C276.402,124.713 276.265,125.648 275.849,126.377 C275.408,127.151 274.744,127.772 273.944,128.16 C273.19,128.526 272.253,128.6 268.32,128.6 L261.68,128.6 C257.748,128.6 256.81,128.526 256.054,128.16 C255.256,127.773 254.592,127.151 254.152,126.378 C253.736,125.648 253.597,124.703 253.337,120.796 L251.795,97.654 C251.714,96.441 250.666,95.524 249.454,95.605 C248.241,95.686 247.324,96.734 247.405,97.946 L248.947,121.088 C249.262,125.823 249.432,126.98 250.328,128.554 C251.208,130.101 252.536,131.344 254.136,132.12 C255.768,132.909 256.912,133 261.68,133 L268.32,133 C273.089,133 274.232,132.909 275.863,132.12 C277.465,131.344 278.792,130.101 279.672,128.556 C280.569,126.982 280.737,125.84 281.053,121.09 L282.595,97.946 C282.676,96.734 281.759,95.686 280.546,95.605 C279.334,95.524 278.286,96.441 278.205,97.654 Z" />
        </g>
        <g id="Regular-M" transform="translate(0,200)">
            <path d="M458.4,93.4 L471.6,93.4 C472.815,93.4 473.8,92.415 473.8,91.2 C473.8,89.985 472.815,89 471.6,89 L458.4,89 C457.185,89 456.2,89.985 456.2,91.2 C456.2,92.415 457.185,93.4 458.4,93.4 Z M445.2,100 L484.8,100 C486.015,100 487,99.015 487,97.8 C487,96.585 486.015,95.6 484.8,95.6 L445.2,95.6 C443.985,95.6 443,96.585 443,97.8 C443,99.015 443.985,100 445.2,100 Z M478.205,97.654 L476.663,120.798 C476.402,124.713 476.265,125.648 475.849,126.377 C475.408,127.151 474.744,127.772 473.944,128.16 C473.19,128.526 472.253,128.6 468.32,128.6 L461.68,128.6 C457.748,128.6 456.81,128.526 456.054,128.16 C455.256,127.773 454.592,127.151 454.152,126.378 C453.736,125.648 453.597,124.703 453.337,120.796 L451.795,97.654 C451.714,96.441 450.666,95.524 449.454,95.605 C448.241,95.686 447.324,96.734 447.405,97.946 L448.947,121.088 C449.262,125.823 449.432,126.98 450.328,128.554 C451.208,130.101 452.536,131.344 454.136,132.12 C455.768,132.909 456.912,133 461.68,133 L468.32,133 C473.089,133 474.232,132.909 475.863,132.12 C477.465,131.344 478.792,130.101 479.672,128.556 C480.569,126.982 480.737,125.84 481.053,121.09 L482.595,97.946 C482.676,96.734 481.759,95.686 480.546,95.605 C479.334,95.524 478.286,96.441 478.205,97.654 Z" />
        </g>
        <g id="Black-M" transform="translate(0,200)">
            <path d="M658.4,93.4 L671.6,93.4 C672.815,93.4 673.8,92.415 673.8,91.2 C673.8,89.985 672.815,89 671.6,89 L658.4,89 C657.185,89 656.2,89.985 656.2,91.2 C656.2,92.415 657.185,93.4 658.4,93.4 Z M645.2,100 L684.8,100 C686.015,100 687,99.015 687,97.8 C687,96.585 686.015,95.6 684.8,95.6 L645.2,95.6 C643.985,95.6 643,96.585 643,97.8 C643,99.015 643.985,100 645.2,100 Z M678.205,97.654 L676.663,120.798 C676.402,124.713 676.265,125.648 675.849,126.377 C675.408,127.151 674.744,127.772 673.944,128.16 C673.19,128.526 672.253,128.6 668.32,128.6 L661.68,128.6 C657.748,128.6 656.81,128.526 656.054,128.16 C655.255,127.773 654.592,127.151 654.152,126.378 C653.736,125.648 653.597,124.703 653.337,120.796 L651.795,97.654 C651.714,96.441 650.666,95.524 649.454,95.605 C648.241,95.686 647.324,96.734 647.405,97.946 L648.947,121.088 C649.262,125.823 649.432,126.98 650.328,128.554 C651.208,130.101 652.535,131.344 654.136,132.12 C655.768,132.909 656.912,133 661.68,133 L668.32,133 C673.089,133 674.232,132.909 675.863,132.12 C677.464,131.344 678.792,130.101 679.672,128.556 C680.569,126.982 680.737,125.84 681.053,121.09 L682.595,97.946 C682.676,96.734 681.759,95.686 680.546,95.605 C679.334,95.524 678.286,96.441 678.205,97.654 Z" />
        </g>
    </g>
</svg>