<?xml version="1.0" encoding="UTF-8"?>
<svg height="600" width="800" xmlns="http://www.w3.org/2000/svg" xmlns:xlink="http://www.w3.org/1999/xlink">
    <g id="Notes" font-family="LucidaGrande, 'Lucida Grande', sans-serif" font-size="13">
        <rect fill="white" height="600.0" width="800.0" x="0.0" y="0.0" />
        <g font-size="13">
            <text x="18.0" y="176.0">Small</text>
            <text x="18.0" y="376.0">Medium</text>
            <text x="18.0" y="576.0">Large</text>
        </g>
        <g font-size="9">
            <text x="250.0" y="30.0">Ultralight</text>
            <text x="450.0" y="30.0">Regular</text>
            <text x="650.0" y="30.0">Black</text>
            <text id="template-version" fill="#505050" text-anchor="end" x="785.0" y="575.0">Template v.3.0</text>
            <a href="https://github.com/swhitty/SwiftDraw">
                <text fill="#505050" text-anchor="end" x="785.0" y="590.0">https://github.com/swhitty/SwiftDraw</text>
            </a>
        </g>
    </g>
    <g id="Guides" stroke="rgb(39, 170, 225)" stroke-width="0.5">
        <path id="Capline-S" d="M18,76 l800,0" />
        <path id="H-reference" d="M85,145.755 L87.685,145.755 L113.369,79.287 L114.052,79.287 L114.052,76 L112.148,76 L85,145.755 Z M95.693,121.536 L130.996,121.536 L130.263,119.313 L96.474,119.313 L95.693,121.536 Z M139.15,145.755 L141.787,145.755 L114.638,76 L113.466,76 L113.466,79.287 L139.15,145.755 Z" stroke="none" transform="translate(0,200)" />
        <path id="Baseline-S" d="M18,146 l800,0" />
        <path id="left-margin-Ultralight-M" d="M230,256 l0,110" />
        <path id="right-margin-Ultralight-M" d="M300,256 l0,110" />
        <path id="left-margin-Regular-M" d="M430,256 l0,110" />
        <path id="right-margin-Regular-M" d="M500,256 l0,110" />
        <path id="left-margin-Black-M" d="M630,256 l0,110" />
        <path id="right-margin-Black-M" d="M700,256 l0,110" />
        <path id="Capline-M" d="M18,276 l800,0" />
        <path id="Baseline-M" d="M18,346 l800,0" />
        <path id="Capline-L" d="M18,476 l800,0" />
        <path id="Baseline-L" d="M18,546 l800,0" />
    </g>
    <g id="Symbols">
        <g id="Ultralight-M" transform="translate(0,200)">
            <path d="M279,103.045 L279,113.864 C279,115.452 278.966,115.834 279,115.773 C279,115.773 279,115.773 279,115.773 C279.067,115.741 278.647,115.773 276.9,115.773 L233.5,115.773 C231.567,115.773 230,117.197 230,118.955 C230,120.712 231.567,122.136 233.5,122.136 L276.9,122.136 C280.053,122.136 280.8,122.081 282.178,121.443 C283.495,120.833 284.566,119.859 285.237,118.662 C285.939,117.409 286,116.73 286,113.864 L286,103.045 C286,101.288 284.433,99.864 282.5,99.864 C280.567,99.864 279,101.288 279,103.045 Z M265,118.955 L265,129.773 C265,131.361 264.966,131.743 265,131.682 C265,131.682 265,131.682 265,131.682 C265.067,131.651 264.647,131.682 262.9,131.682 L233.5,131.682 C231.567,131.682 230,133.106 230,134.864 C230,136.621 231.567,138.045 233.5,138.045 L262.9,138.045 C266.053,138.045 266.8,137.99 268.178,137.352 C269.495,136.742 270.566,135.768 271.237,134.571 C271.939,133.318 272,132.639 272,129.773 L272,118.955 C272,117.197 270.433,115.773 268.5,115.773 C266.567,115.773 265,117.197 265,118.955 Z M230,79.182 L230,142.818 C230,144.575 231.567,146 233.5,146 C235.433,146 237,144.575 237,142.818 L237,79.182 C237,77.425 235.433,76 233.5,76 C231.567,76 230,77.425 230,79.182 Z M233.5,106.227 L290.9,106.227 C294.053,106.227 294.8,106.172 296.178,105.534 C297.495,104.924 298.566,103.95 299.237,102.753 C299.939,101.5 300,100.821 300,97.955 L300,92.227 C300,89.361 299.939,88.682 299.237,87.43 C298.566,86.232 297.495,85.258 296.178,84.648 C294.8,84.01 294.053,83.955 290.9,83.955 L233.5,83.955 C231.567,83.955 230,85.379 230,87.136 L230,103.045 C230,104.803 231.567,106.227 233.5,106.227 Z M233.5,99.864 L237,103.045 L237,87.136 L233.5,90.318 L290.9,90.318 C292.647,90.318 293.067,90.349 293,90.318 C293,90.318 293,90.318 293,90.318 C292.966,90.257 293,90.639 293,92.227 L293,97.955 C293,99.543 292.966,99.925 293,99.864 C293,99.864 293,99.864 293,99.864 C293.067,99.832 292.647,99.864 290.9,99.864 L233.5,99.864 Z" />
        </g>
        <g id="Regular-M" transform="translate(0,200)">
            <path d="M479,103.045 L479,113.864 C479,115.452 478.966,115.834 479,115.773 C479,115.773 479,115.773 479,115.773 C479.067,115.741 478.647,115.773 476.9,115.773 L433.5,115.773 C431.567,115.773 430,117.197 430,118.955 C430,120.712 431.567,122.136 433.5,122.136 L476.9,122.136 C480.053,122.136 480.8,122.081 482.178,121.443 C483.495,120.833 484.566,119.859 485.237,118.662 C485.939,117.409 486,116.73 486,113.864 L486,103.045 C486,101.288 484.433,99.864 482.5,99.864 C480.567,99.864 479,101.288 479,103.045 Z M465,118.955 L465,129.773 C465,131.361 464.966,131.743 465,131.682 C465,131.682 465,131.682 465,131.682 C465.067,131.651 464.647,131.682 462.9,131.682 L433.5,131.682 C431.567,131.682 430,133.106 430,134.864 C430,136.621 431.567,138.045 433.5,138.045 L462.9,138.045 C466.053,138.045 466.8,137.99 468.178,137.352 C469.495,136.742 470.566,135.768 471.237,134.571 C471.939,133.318 472,132.639 472,129.773 L472,118.955 C472,117.197 470.433,115.773 468.5,115.773 C466.567,115.773 465,117.197 465,118.955 Z M430,79.182 L430,142.818 C430,144.575 431.567,146 433.5,146 C435.433,146 437,144.575 437,142.818 L437,79.182 C437,77.425 435.433,76 433.5,76 C431.567,76 430,77.425 430,79.182 Z M433.5,106.227 L490.9,106.227 C494.053,106.227 494.8,106.172 496.178,105.534 C497.495,104.924 498.566,103.95 499.237,102.753 C499.939,101.5 500,100.821 500,97.955 L500,92.227 C500,89.361 499.939,88.682 499.237,87.43 C498.566,86.232 497.495,85.258 496.178,84.648 C494.8,84.01 494.053,83.955 490.9,83.955 L433.5,83.955 C431.567,83.955 430,85.379 430,87.136 L430,103.045 C430,104.803 431.567,106.227 433.5,106.227 Z M433.5,99.864 L437,103.045 L437,87.136 L433.5,90.318 L490.9,90.318 C492.647,90.318 493.067,90.349 493,90.318 C493,90.318 493,90.318 493,90.318 C492.966,90.257 493,90.639 493,92.227 L493,97.955 C493,99.543 492.966,99.925 493,99.864 C493,99.864 493,99.864 493,99.864 C493.067,99.832 492.647,99.864 490.9,99.864 L433.5,99.864 Z" />
        </g>
        <g id="Black-M" transform="translate(0,200)">
            <path d="M679,103.045 L679,113.864 C679,115.452 678.966,115.834 679,115.773 C679,115.773 679,115.773 679,115.773 C679.068,115.741 678.647,115.773 676.9,115.773 L633.5,115.773 C631.567,115.773 630,117.197 630,118.955 C630,120.712 631.567,122.136 633.5,122.136 L676.9,122.136 C680.053,122.136 680.8,122.081 682.178,121.443 C683.495,120.833 684.566,119.859 685.237,118.662 C685.939,117.409 686,116.73 686,113.864 L686,103.045 C686,101.288 684.433,99.864 682.5,99.864 C680.567,99.864 679,101.288 679,103.045 Z M665,118.955 L665,129.773 C665,131.361 664.966,131.743 665,131.682 C665,131.682 665,131.682 665,131.682 C665.068,131.651 664.647,131.682 662.9,131.682 L633.5,131.682 C631.567,131.682 630,133.106 630,134.864 C630,136.621 631.567,138.045 633.5,138.045 L662.9,138.045 C666.053,138.045 666.8,137.99 668.177,137.352 C669.495,136.742 670.566,135.768 671.237,134.571 C671.939,133.318 672,132.639 672,129.773 L672,118.955 C672,117.197 670.433,115.773 668.5,115.773 C666.567,115.773 665,117.197 665,118.955 Z M630,79.182 L630,142.818 C630,144.575 631.567,146 633.5,146 C635.433,146 637,144.575 637,142.818 L637,79.182 C637,77.425 635.433,76 633.5,76 C631.567,76 630,77.425 630,79.182 Z M633.5,106.227 L690.9,106.227 C694.053,106.227 694.8,106.172 696.178,105.534 C697.495,104.924 698.566,103.95 699.237,102.753 C699.939,101.5 700,100.821 700,97.955 L700,92.227 C700,89.361 699.939,88.682 699.237,87.43 C698.566,86.232 697.495,85.258 696.178,84.648 C694.8,84.01 694.053,83.955 690.9,83.955 L633.5,83.955 C631.567,83.955 630,85.379 630,87.136 L630,103.045 C630,104.803 631.567,106.227 633.5,106.227 Z M633.5,99.864 L637,103.045 L637,87.136 L633.5,90.318 L690.9,90.318 C692.647,90.318 693.068,90.349 693,90.318 C693,90.318 693,90.318 693,90.318 C692.966,90.257 693,90.639 693,92.227 L693,97.955 C693,99.543 692.966,99.925 693,99.864 C693,99.864 693,99.864 693,99.864 C693.068,99.832 692.647,99.864 690.9,99.864 L633.5,99.864 Z" />
        </g>
    </g>
</svg>