<?xml version="1.0" encoding="UTF-8"?>
<svg height="600" width="800" xmlns="http://www.w3.org/2000/svg" xmlns:xlink="http://www.w3.org/1999/xlink">
    <g id="Notes" font-family="LucidaGrande, 'Lucida Grande', sans-serif" font-size="13">
        <rect fill="white" height="600.0" width="800.0" x="0.0" y="0.0" />
        <g font-size="13">
            <text x="18.0" y="176.0">Small</text>
            <text x="18.0" y="376.0">Medium</text>
            <text x="18.0" y="576.0">Large</text>
        </g>
        <g font-size="9">
            <text x="250.0" y="30.0">Ultralight</text>
            <text x="450.0" y="30.0">Regular</text>
            <text x="650.0" y="30.0">Black</text>
            <text id="template-version" fill="#505050" text-anchor="end" x="785.0" y="575.0">Template v.3.0</text>
            <a href="https://github.com/swhitty/SwiftDraw">
                <text fill="#505050" text-anchor="end" x="785.0" y="590.0">https://github.com/swhitty/SwiftDraw</text>
            </a>
        </g>
    </g>
    <g id="Guides" stroke="rgb(39, 170, 225)" stroke-width="0.5">
        <path id="Capline-S" d="M18,76 l800,0" />
        <path id="H-reference" d="M85,145.755 L87.685,145.755 L113.369,79.287 L114.052,79.287 L114.052,76 L112.148,76 L85,145.755 Z M95.693,121.536 L130.996,121.536 L130.263,119.313 L96.474,119.313 L95.693,121.536 Z M139.15,145.755 L141.787,145.755 L114.638,76 L113.466,76 L113.466,79.287 L139.15,145.755 Z" stroke="none" transform="translate(0,200)" />
        <path id="Baseline-S" d="M18,146 l800,0" />
        <path id="left-margin-Ultralight-M" d="M230,256 l0,110" />
        <path id="right-margin-Ultralight-M" d="M300,256 l0,110" />
        <path id="left-margin-Regular-M" d="M430,256 l0,110" />
        <path id="right-margin-Regular-M" d="M500,256 l0,110" />
        <path id="left-margin-Black-M" d="M630,256 l0,110" />
        <path id="right-margin-Black-M" d="M700,256 l0,110" />
        <path id="Capline-M" d="M18,276 l800,0" />
        <path id="Baseline-M" d="M18,346 l800,0" />
        <path id="Capline-L" d="M18,476 l800,0" />
        <path id="Baseline-L" d="M18,546 l800,0" />
    </g>
    <g id="Symbols">
        <g id="Ultralight-M" transform="translate(0,200)">
            <path d="M285.233,83.849 C287.048,81.961 290.05,81.902 291.937,83.717 C293.825,85.532 293.884,88.534 292.069,90.421 L283.175,99.732 C282.208,100.748 281.968,101.019 281.609,101.601 C281.487,101.805 281.487,101.805 281.375,102.02 C280.991,102.777 280.763,103.611 280.707,104.464 C280.65,105.321 280.726,105.765 281.089,107.342 L286.614,131.277 C286.817,132.168 286.848,132.351 286.852,132.31 C286.851,132.319 286.851,132.318 286.851,132.318 C286.881,132.263 286.881,132.263 286.896,132.239 C286.864,132.288 286.706,132.459 286.1,133.064 L284.917,134.247 C283.164,136 282.608,136.468 282.676,136.453 C282.697,136.449 282.697,136.449 282.719,136.445 C282.722,136.445 282.722,136.445 282.722,136.445 C282.811,136.511 282.523,135.854 281.739,133.5 L275.313,114.225 C274.561,111.97 271.7,111.295 270.019,112.975 L259.326,123.669 C258.453,124.542 258.219,124.792 257.873,125.305 C257.745,125.499 257.745,125.499 257.626,125.705 C257.259,126.351 257.003,127.08 256.882,127.836 C256.755,128.607 256.777,128.976 256.941,130.465 L257.53,135.752 C257.615,136.548 257.624,136.703 257.629,136.675 C257.63,136.669 257.63,136.669 257.63,136.668 C257.646,136.64 257.533,136.766 256.979,137.32 L256.346,137.952 C254.991,139.307 254.609,139.629 254.696,139.606 C254.695,139.606 254.695,139.606 254.695,139.606 C254.767,139.641 254.455,139.251 253.398,137.662 L248.38,130.137 C248.233,129.897 248.006,129.577 247.759,129.273 C247.503,128.969 247.265,128.73 247.01,128.51 C246.922,128.435 246.922,128.435 246.857,128.384 C246.651,128.22 246.62,128.199 246.096,127.844 L238.555,122.818 C237.083,121.836 236.648,121.517 236.497,121.345 C236.523,121.375 236.563,121.434 236.603,121.515 C236.607,121.524 236.607,121.524 236.607,121.524 C236.587,121.603 236.908,121.22 238.262,119.865 L238.889,119.241 C239.422,118.709 239.568,118.573 239.595,118.554 C239.571,118.57 239.571,118.57 239.538,118.589 C239.554,118.581 239.54,118.586 239.524,118.588 C239.52,118.589 239.675,118.598 240.466,118.685 L245.747,119.273 C247.262,119.435 247.6,119.455 248.37,119.334 C249.135,119.212 249.864,118.956 250.53,118.577 C251.216,118.187 251.544,117.892 252.548,116.883 L263.239,106.196 C264.92,104.515 264.245,101.654 261.99,100.902 L242.713,94.476 C240.362,93.693 239.705,93.404 239.775,93.499 C239.77,93.493 239.77,93.493 239.77,93.493 C239.766,93.518 239.766,93.518 239.761,93.539 C239.747,93.606 240.213,93.052 241.966,91.296 L243.147,90.115 C243.748,89.514 243.918,89.356 243.955,89.332 C243.925,89.351 243.925,89.351 243.884,89.373 C243.904,89.363 243.904,89.363 243.904,89.363 C243.87,89.366 244.057,89.398 244.937,89.601 L268.783,95.103 C270.391,95.476 270.822,95.551 271.702,95.486 C272.622,95.42 273.518,95.154 274.327,94.707 C274.559,94.574 274.559,94.574 274.79,94.422 C275.342,94.044 275.601,93.796 276.561,92.807 L285.226,83.857 Z M280.632,79.41 L271.968,88.358 C271.383,88.961 271.221,89.117 271.182,89.144 C271.21,89.125 271.21,89.125 271.251,89.102 C271.236,89.11 271.236,89.11 271.236,89.11 C271.275,89.107 271.09,89.075 270.225,88.874 L246.375,83.371 C244.748,82.995 244.299,82.919 243.405,82.989 C242.544,83.056 241.705,83.298 240.939,83.699 C240.711,83.821 240.711,83.821 240.478,83.967 C239.898,84.343 239.617,84.603 238.626,85.594 L237.443,86.777 C234.431,89.794 233.884,90.444 233.509,92.203 C233.49,92.291 233.49,92.291 233.474,92.379 C233.168,94.113 233.589,95.894 234.637,97.305 C235.75,98.81 236.552,99.162 240.691,100.542 L259.968,106.968 L258.719,101.674 L248.022,112.368 C247.473,112.919 247.349,113.031 247.371,113.018 C247.369,113.019 247.37,113.019 247.371,113.019 C247.408,113.013 247.254,113.004 246.44,112.917 L241.17,112.33 C239.678,112.166 239.31,112.144 238.524,112.273 C237.789,112.385 237.046,112.646 236.37,113.036 C236.203,113.134 236.203,113.134 236.019,113.254 C235.504,113.602 235.254,113.835 234.374,114.714 L233.747,115.338 C231.334,117.752 230.829,118.354 230.422,119.904 C230.036,121.382 230.19,122.946 230.856,124.318 C231.078,124.771 231.354,125.177 231.685,125.555 C232.38,126.349 232.917,126.743 235.007,128.138 L242.531,133.152 C242.826,133.351 242.866,133.379 242.879,133.389 C242.871,133.383 242.871,133.383 242.862,133.375 C242.838,133.355 242.838,133.355 242.838,133.354 C242.872,133.398 242.94,133.493 243.001,133.592 L248.076,141.207 C249.971,144.054 250.454,144.658 251.902,145.358 C253.263,146.022 254.828,146.178 256.304,145.794 C257.856,145.391 258.44,144.901 260.867,142.474 L261.5,141.841 C262.514,140.827 262.796,140.513 263.184,139.836 C263.569,139.158 263.825,138.428 263.945,137.67 C264.066,136.894 264.046,136.553 263.886,135.058 L263.296,129.76 C263.209,128.973 263.2,128.818 263.194,128.858 C263.196,128.845 263.195,128.846 263.195,128.847 C263.186,128.861 263.186,128.861 263.17,128.886 C263.189,128.858 263.324,128.713 263.847,128.19 L274.54,117.496 L269.247,116.247 L275.673,135.521 C277.045,139.643 277.403,140.458 278.909,141.577 C280.321,142.626 282.101,143.047 283.833,142.741 C283.924,142.724 283.924,142.724 284.012,142.706 C285.772,142.33 286.429,141.777 289.438,138.768 L290.621,137.586 C291.599,136.607 291.859,136.327 292.233,135.76 C292.379,135.532 292.379,135.532 292.512,135.289 C292.922,134.503 293.161,133.663 293.226,132.8 C293.296,131.919 293.227,131.517 292.845,129.846 L287.319,105.904 C287.122,105.048 287.089,104.857 287.087,104.889 C287.087,104.889 287.085,104.897 287.082,104.903 C287.067,104.931 287.067,104.931 287.052,104.957 C287.073,104.922 287.22,104.756 287.802,104.144 L296.685,94.845 C300.94,90.42 300.802,83.371 296.369,79.108 C291.936,74.846 284.887,74.984 280.624,79.418 Z" />
        </g>
        <g id="Regular-M" transform="translate(0,200)">
            <path d="M485.233,83.849 C487.048,81.961 490.05,81.902 491.937,83.717 C493.825,85.532 493.884,88.534 492.069,90.421 L483.175,99.732 C482.208,100.748 481.968,101.019 481.609,101.601 C481.487,101.805 481.487,101.805 481.375,102.02 C480.991,102.777 480.763,103.611 480.707,104.464 C480.65,105.321 480.726,105.765 481.089,107.342 L486.614,131.277 C486.817,132.168 486.848,132.351 486.852,132.31 C486.851,132.319 486.851,132.318 486.851,132.318 C486.881,132.263 486.881,132.263 486.896,132.239 C486.864,132.288 486.706,132.459 486.1,133.064 L484.917,134.247 C483.164,136 482.608,136.468 482.676,136.453 C482.697,136.449 482.697,136.449 482.719,136.445 C482.722,136.445 482.722,136.445 482.722,136.445 C482.811,136.511 482.523,135.854 481.739,133.5 L475.313,114.225 C474.561,111.97 471.7,111.295 470.019,112.975 L459.326,123.669 C458.453,124.542 458.219,124.792 457.873,125.305 C457.745,125.499 457.745,125.499 457.626,125.705 C457.259,126.351 457.003,127.08 456.882,127.836 C456.755,128.607 456.777,128.976 456.941,130.465 L457.53,135.752 C457.615,136.548 457.624,136.703 457.629,136.675 C457.63,136.669 457.63,136.669 457.63,136.668 C457.646,136.64 457.533,136.766 456.979,137.32 L456.346,137.952 C454.991,139.307 454.609,139.629 454.696,139.606 C454.695,139.606 454.695,139.606 454.695,139.606 C454.767,139.641 454.455,139.251 453.398,137.662 L448.38,130.137 C448.233,129.897 448.006,129.577 447.759,129.273 C447.503,128.969 447.265,128.73 447.01,128.51 C446.922,128.435 446.922,128.435 446.857,128.384 C446.651,128.22 446.62,128.199 446.096,127.844 L438.555,122.818 C437.083,121.836 436.648,121.517 436.497,121.345 C436.523,121.375 436.563,121.434 436.603,121.515 C436.607,121.524 436.607,121.524 436.607,121.524 C436.587,121.603 436.908,121.22 438.262,119.865 L438.889,119.241 C439.422,118.709 439.568,118.573 439.595,118.554 C439.571,118.57 439.571,118.57 439.538,118.589 C439.554,118.581 439.54,118.586 439.524,118.588 C439.52,118.589 439.675,118.598 440.466,118.685 L445.747,119.273 C447.262,119.435 447.6,119.455 448.37,119.334 C449.135,119.212 449.864,118.956 450.53,118.577 C451.216,118.187 451.544,117.892 452.548,116.883 L463.239,106.196 C464.92,104.515 464.245,101.654 461.99,100.902 L442.713,94.476 C440.362,93.693 439.705,93.404 439.775,93.499 C439.77,93.493 439.77,93.493 439.77,93.493 C439.766,93.518 439.766,93.518 439.761,93.539 C439.747,93.606 440.213,93.052 441.966,91.296 L443.147,90.115 C443.748,89.514 443.918,89.356 443.955,89.332 C443.925,89.351 443.925,89.351 443.884,89.373 C443.904,89.363 443.904,89.363 443.904,89.363 C443.87,89.366 444.057,89.398 444.937,89.601 L468.783,95.103 C470.391,95.476 470.822,95.551 471.702,95.486 C472.622,95.42 473.518,95.154 474.327,94.707 C474.559,94.574 474.559,94.574 474.79,94.422 C475.342,94.044 475.601,93.796 476.561,92.807 L485.226,83.857 Z M480.632,79.41 L471.968,88.358 C471.383,88.961 471.221,89.117 471.182,89.144 C471.21,89.125 471.21,89.125 471.251,89.102 C471.236,89.11 471.236,89.11 471.236,89.11 C471.275,89.107 471.09,89.075 470.225,88.874 L446.375,83.371 C444.748,82.995 444.299,82.919 443.405,82.989 C442.544,83.056 441.705,83.298 440.939,83.699 C440.711,83.821 440.711,83.821 440.478,83.967 C439.898,84.343 439.617,84.603 438.626,85.594 L437.443,86.777 C434.431,89.794 433.884,90.444 433.509,92.203 C433.49,92.291 433.49,92.291 433.474,92.379 C433.168,94.113 433.589,95.894 434.637,97.305 C435.75,98.81 436.552,99.162 440.691,100.542 L459.968,106.968 L458.719,101.674 L448.022,112.368 C447.473,112.919 447.349,113.031 447.371,113.018 C447.369,113.019 447.37,113.019 447.371,113.019 C447.408,113.013 447.254,113.004 446.44,112.917 L441.17,112.33 C439.678,112.166 439.31,112.144 438.524,112.273 C437.789,112.385 437.046,112.646 436.37,113.036 C436.203,113.134 436.203,113.134 436.019,113.254 C435.504,113.602 435.254,113.835 434.374,114.714 L433.747,115.338 C431.334,117.752 430.829,118.354 430.422,119.904 C430.036,121.382 430.19,122.946 430.856,124.318 C431.078,124.771 431.354,125.177 431.685,125.555 C432.38,126.349 432.917,126.743 435.007,128.138 L442.531,133.152 C442.826,133.351 442.866,133.379 442.879,133.389 C442.871,133.383 442.871,133.383 442.862,133.375 C442.838,133.355 442.838,133.355 442.838,133.354 C442.872,133.398 442.94,133.493 443.001,133.592 L448.076,141.207 C449.971,144.054 450.454,144.658 451.902,145.358 C453.263,146.022 454.828,146.178 456.304,145.794 C457.856,145.391 458.44,144.901 460.867,142.474 L461.5,141.841 C462.514,140.827 462.796,140.513 463.184,139.836 C463.569,139.158 463.825,138.428 463.945,137.67 C464.066,136.894 464.046,136.553 463.886,135.058 L463.296,129.76 C463.209,128.973 463.2,128.818 463.194,128.858 C463.196,128.845 463.195,128.846 463.195,128.847 C463.186,128.861 463.186,128.861 463.17,128.886 C463.189,128.858 463.324,128.713 463.847,128.19 L474.54,117.496 L469.247,116.247 L475.673,135.521 C477.045,139.643 477.403,140.458 478.909,141.577 C480.321,142.626 482.101,143.047 483.833,142.741 C483.924,142.724 483.924,142.724 484.012,142.706 C485.772,142.33 486.429,141.777 489.438,138.768 L490.621,137.586 C491.599,136.607 491.859,136.327 492.233,135.76 C492.379,135.532 492.379,135.532 492.512,135.289 C492.922,134.503 493.161,133.663 493.226,132.8 C493.296,131.919 493.227,131.517 492.845,129.846 L487.319,105.904 C487.122,105.048 487.089,104.857 487.087,104.889 C487.087,104.889 487.085,104.897 487.082,104.903 C487.067,104.931 487.067,104.931 487.052,104.957 C487.073,104.922 487.22,104.756 487.802,104.144 L496.685,94.845 C500.94,90.42 500.802,83.371 496.369,79.108 C491.936,74.846 484.887,74.984 480.624,79.418 Z" />
        </g>
        <g id="Black-M" transform="translate(0,200)">
            <path d="M685.233,83.849 C687.048,81.961 690.05,81.902 691.937,83.717 C693.825,85.532 693.884,88.534 692.069,90.421 L683.175,99.732 C682.208,100.748 681.968,101.019 681.609,101.601 C681.487,101.805 681.487,101.805 681.375,102.02 C680.991,102.777 680.763,103.611 680.707,104.464 C680.65,105.321 680.726,105.765 681.089,107.342 L686.614,131.277 C686.817,132.168 686.848,132.351 686.852,132.31 C686.851,132.319 686.851,132.318 686.851,132.318 C686.881,132.263 686.881,132.263 686.896,132.239 C686.864,132.288 686.706,132.459 686.1,133.064 L684.917,134.247 C683.164,136 682.608,136.468 682.676,136.453 C682.697,136.449 682.697,136.449 682.719,136.445 C682.722,136.445 682.722,136.445 682.722,136.445 C682.811,136.511 682.523,135.854 681.739,133.5 L675.313,114.225 C674.561,111.97 671.7,111.295 670.019,112.975 L659.326,123.669 C658.453,124.542 658.219,124.792 657.873,125.305 C657.745,125.499 657.745,125.499 657.626,125.705 C657.259,126.351 657.003,127.08 656.882,127.836 C656.755,128.607 656.777,128.976 656.941,130.465 L657.53,135.752 C657.615,136.548 657.624,136.703 657.629,136.675 C657.63,136.669 657.63,136.669 657.63,136.668 C657.646,136.64 657.533,136.766 656.979,137.32 L656.346,137.952 C654.991,139.307 654.609,139.629 654.696,139.606 C654.695,139.606 654.695,139.606 654.695,139.606 C654.767,139.641 654.455,139.251 653.398,137.662 L648.38,130.137 C648.233,129.897 648.006,129.577 647.759,129.273 C647.503,128.969 647.265,128.73 647.01,128.51 C646.922,128.435 646.922,128.435 646.857,128.384 C646.651,128.22 646.62,128.199 646.096,127.844 L638.555,122.818 C637.083,121.836 636.648,121.517 636.497,121.345 C636.523,121.375 636.563,121.434 636.603,121.515 C636.607,121.524 636.607,121.524 636.607,121.524 C636.587,121.603 636.908,121.22 638.262,119.865 L638.89,119.241 C639.422,118.709 639.568,118.573 639.595,118.554 C639.571,118.57 639.571,118.57 639.539,118.589 C639.554,118.581 639.54,118.586 639.524,118.588 C639.52,118.589 639.675,118.598 640.466,118.685 L645.747,119.273 C647.262,119.435 647.6,119.455 648.37,119.334 C649.135,119.212 649.864,118.956 650.53,118.577 C651.216,118.187 651.544,117.892 652.548,116.883 L663.239,106.196 C664.92,104.515 664.245,101.654 661.99,100.902 L642.713,94.476 C640.362,93.693 639.705,93.404 639.775,93.499 C639.77,93.493 639.77,93.493 639.77,93.493 C639.766,93.518 639.766,93.518 639.761,93.539 C639.747,93.606 640.213,93.052 641.966,91.296 L643.147,90.115 C643.748,89.514 643.918,89.356 643.955,89.332 C643.925,89.351 643.925,89.351 643.884,89.373 C643.904,89.363 643.904,89.363 643.904,89.363 C643.87,89.366 644.057,89.398 644.937,89.601 L668.783,95.103 C670.391,95.476 670.822,95.551 671.702,95.486 C672.622,95.42 673.518,95.154 674.327,94.707 C674.559,94.574 674.559,94.574 674.79,94.422 C675.343,94.044 675.601,93.796 676.561,92.807 L685.226,83.857 Z M680.632,79.41 L671.968,88.358 C671.383,88.961 671.221,89.117 671.182,89.144 C671.21,89.125 671.21,89.125 671.251,89.102 C671.236,89.11 671.236,89.11 671.236,89.11 C671.275,89.107 671.09,89.075 670.225,88.874 L646.375,83.371 C644.748,82.995 644.299,82.919 643.405,82.989 C642.544,83.056 641.705,83.298 640.939,83.699 C640.711,83.821 640.711,83.821 640.478,83.967 C639.898,84.343 639.617,84.603 638.626,85.594 L637.443,86.777 C634.431,89.794 633.884,90.444 633.509,92.203 C633.49,92.291 633.49,92.291 633.474,92.379 C633.168,94.113 633.589,95.894 634.637,97.305 C635.75,98.81 636.552,99.162 640.691,100.542 L659.968,106.968 L658.719,101.674 L648.022,112.368 C647.473,112.919 647.349,113.031 647.371,113.018 C647.369,113.019 647.37,113.019 647.371,113.019 C647.408,113.013 647.254,113.004 646.44,112.917 L641.17,112.33 C639.678,112.166 639.31,112.144 638.524,112.273 C637.789,112.385 637.046,112.646 636.37,113.036 C636.203,113.134 636.203,113.134 636.019,113.254 C635.504,113.602 635.254,113.835 634.374,114.714 L633.747,115.338 C631.334,117.752 630.829,118.354 630.422,119.904 C630.036,121.382 630.19,122.946 630.856,124.318 C631.078,124.771 631.354,125.177 631.685,125.555 C632.38,126.349 632.917,126.743 635.007,128.138 L642.531,133.152 C642.826,133.351 642.866,133.379 642.879,133.389 C642.871,133.383 642.871,133.383 642.862,133.375 C642.838,133.355 642.838,133.355 642.838,133.354 C642.872,133.398 642.94,133.493 643.001,133.592 L648.076,141.207 C649.971,144.054 650.454,144.658 651.902,145.358 C653.263,146.022 654.828,146.178 656.304,145.794 C657.856,145.391 658.44,144.901 660.867,142.474 L661.5,141.841 C662.514,140.827 662.796,140.513 663.184,139.836 C663.569,139.158 663.825,138.428 663.945,137.67 C664.066,136.894 664.046,136.553 663.886,135.058 L663.296,129.76 C663.209,128.973 663.2,128.818 663.194,128.858 C663.196,128.845 663.195,128.846 663.195,128.847 C663.187,128.861 663.187,128.861 663.17,128.886 C663.189,128.858 663.324,128.713 663.847,128.19 L674.54,117.496 L669.247,116.247 L675.673,135.521 C677.045,139.643 677.403,140.458 678.909,141.577 C680.321,142.626 682.101,143.047 683.833,142.741 C683.924,142.724 683.924,142.724 684.012,142.706 C685.772,142.33 686.429,141.777 689.438,138.768 L690.621,137.586 C691.599,136.607 691.859,136.327 692.233,135.76 C692.379,135.532 692.379,135.532 692.512,135.289 C692.922,134.503 693.161,133.663 693.226,132.8 C693.296,131.919 693.227,131.517 692.845,129.846 L687.319,105.904 C687.122,105.048 687.089,104.857 687.087,104.889 C687.087,104.889 687.085,104.897 687.082,104.903 C687.067,104.931 687.067,104.931 687.052,104.957 C687.073,104.922 687.22,104.756 687.802,104.144 L696.685,94.845 C700.94,90.42 700.802,83.371 696.369,79.108 C691.936,74.846 684.887,74.984 680.624,79.418 Z" />
        </g>
    </g>
</svg>