<?xml version="1.0" encoding="UTF-8"?>
<svg height="600" width="800" xmlns="http://www.w3.org/2000/svg" xmlns:xlink="http://www.w3.org/1999/xlink">
    <g id="Notes" font-family="LucidaGrande, 'Lucida Grande', sans-serif" font-size="13">
        <rect fill="white" height="600.0" width="800.0" x="0.0" y="0.0" />
        <g font-size="13">
            <text x="18.0" y="176.0">Small</text>
            <text x="18.0" y="376.0">Medium</text>
            <text x="18.0" y="576.0">Large</text>
        </g>
        <g font-size="9">
            <text x="250.0" y="30.0">Ultralight</text>
            <text x="450.0" y="30.0">Regular</text>
            <text x="650.0" y="30.0">Black</text>
            <text id="template-version" fill="#505050" text-anchor="end" x="785.0" y="575.0">Template v.3.0</text>
            <a href="https://github.com/swhitty/SwiftDraw">
                <text fill="#505050" text-anchor="end" x="785.0" y="590.0">https://github.com/swhitty/SwiftDraw</text>
            </a>
        </g>
    </g>
    <g id="Guides" stroke="rgb(39, 170, 225)" stroke-width="0.5">
        <path id="Capline-S" d="M18,76 l800,0" />
        <path id="H-reference" d="M85,145.755 L87.685,145.755 L113.369,79.287 L114.052,79.287 L114.052,76 L112.148,76 L85,145.755 Z M95.693,121.536 L130.996,121.536 L130.263,119.313 L96.474,119.313 L95.693,121.536 Z M139.15,145.755 L141.787,145.755 L114.638,76 L113.466,76 L113.466,79.287 L139.15,145.755 Z" stroke="none" transform="translate(0,200)" />
        <path id="Baseline-S" d="M18,146 l800,0" />
        <path id="left-margin-Ultralight-M" d="M230,256 l0,110" />
        <path id="right-margin-Ultralight-M" d="M300,256 l0,110" />
        <path id="left-margin-Regular-M" d="M430,256 l0,110" />
        <path id="right-margin-Regular-M" d="M500,256 l0,110" />
        <path id="left-margin-Black-M" d="M630,256 l0,110" />
        <path id="right-margin-Black-M" d="M700,256 l0,110" />
        <path id="Capline-M" d="M18,276 l800,0" />
        <path id="Baseline-M" d="M18,346 l800,0" />
        <path id="Capline-L" d="M18,476 l800,0" />
        <path id="Baseline-L" d="M18,546 l800,0" />
    </g>
    <g id="Symbols">
        <g id="Ultralight-M" transform="translate(0,200)">
            <path d="M274.531,131.682 L274.531,139.636 C274.531,141.394 275.955,142.818 277.712,142.818 C279.469,142.818 280.893,141.394 280.893,139.636 L280.893,131.682 C280.893,129.924 279.469,128.5 277.712,128.5 C275.955,128.5 274.531,129.924 274.531,131.682 Z M249.085,131.682 L249.085,139.636 C249.085,141.394 250.509,142.818 252.266,142.818 C254.022,142.818 255.446,141.394 255.446,139.636 L255.446,131.682 C255.446,129.924 254.022,128.5 252.266,128.5 C250.509,128.5 249.085,129.924 249.085,131.682 Z M261.808,134.864 L261.808,142.818 C261.808,144.575 263.232,146 264.989,146 C266.746,146 268.17,144.575 268.17,142.818 L268.17,134.864 C268.17,133.106 266.746,131.682 264.989,131.682 C263.232,131.682 261.808,133.106 261.808,134.864 Z M249.085,117.364 C244.509,117.364 240.286,114.906 238.024,110.926 C235.763,106.947 235.811,102.059 238.152,98.126 C240.493,94.193 244.764,91.82 249.339,91.911 C250.557,91.936 251.682,91.262 252.236,90.177 C254.914,84.928 260.532,81.855 266.394,82.433 C272.257,83.011 277.168,87.12 278.771,92.791 C279.173,94.214 280.504,95.173 281.981,95.103 C286.019,94.913 289.842,96.926 291.97,100.364 C294.099,103.801 294.197,108.122 292.228,111.653 C290.258,115.184 286.53,117.37 282.488,117.364 L249.082,117.364 L249.082,120.545 L249.082,123.727 L249.085,123.727 L249.085,120.545 L249.085,117.364 Z M249.085,123.727 C253.326,123.727 253.326,117.364 249.085,117.364 L249.082,117.364 C244.841,117.364 244.841,123.727 249.082,123.727 L282.483,123.727 C288.83,123.737 294.688,120.302 297.783,114.754 C300.878,109.205 300.723,102.415 297.379,97.013 C294.035,91.611 288.026,88.447 281.682,88.747 L284.892,91.059 C282.577,82.87 275.485,76.934 267.018,76.1 C258.551,75.266 250.437,79.704 246.57,87.284 L249.467,85.549 C242.604,85.412 236.197,88.971 232.686,94.871 C229.175,100.771 229.101,108.102 232.494,114.071 C235.886,120.04 242.221,123.727 249.085,123.727 Z" />
        </g>
        <g id="Regular-M" transform="translate(0,200)">
            <path d="M474.531,131.682 L474.531,139.636 C474.531,141.394 475.955,142.818 477.712,142.818 C479.469,142.818 480.893,141.394 480.893,139.636 L480.893,131.682 C480.893,129.924 479.469,128.5 477.712,128.5 C475.955,128.5 474.531,129.924 474.531,131.682 Z M449.085,131.682 L449.085,139.636 C449.085,141.394 450.509,142.818 452.266,142.818 C454.022,142.818 455.446,141.394 455.446,139.636 L455.446,131.682 C455.446,129.924 454.022,128.5 452.266,128.5 C450.509,128.5 449.085,129.924 449.085,131.682 Z M461.808,134.864 L461.808,142.818 C461.808,144.575 463.232,146 464.989,146 C466.746,146 468.17,144.575 468.17,142.818 L468.17,134.864 C468.17,133.106 466.746,131.682 464.989,131.682 C463.232,131.682 461.808,133.106 461.808,134.864 Z M449.085,117.364 C444.509,117.364 440.285,114.906 438.024,110.926 C435.763,106.947 435.811,102.059 438.152,98.126 C440.493,94.193 444.764,91.82 449.339,91.911 C450.557,91.936 451.682,91.262 452.236,90.177 C454.914,84.928 460.532,81.855 466.394,82.433 C472.257,83.011 477.168,87.12 478.771,92.791 C479.173,94.214 480.504,95.173 481.981,95.103 C486.019,94.913 489.842,96.926 491.97,100.364 C494.099,103.801 494.197,108.122 492.228,111.653 C490.258,115.184 486.53,117.37 482.488,117.364 L449.082,117.364 L449.082,120.545 L449.082,123.727 L449.085,123.727 L449.085,120.545 L449.085,117.364 Z M449.085,123.727 C453.326,123.727 453.326,117.364 449.085,117.364 L449.082,117.364 C444.841,117.364 444.841,123.727 449.082,123.727 L482.483,123.727 C488.83,123.737 494.688,120.302 497.783,114.754 C500.878,109.205 500.723,102.415 497.379,97.013 C494.035,91.611 488.026,88.447 481.682,88.747 L484.892,91.059 C482.577,82.87 475.485,76.934 467.018,76.1 C458.551,75.266 450.437,79.704 446.57,87.284 L449.467,85.549 C442.604,85.412 436.197,88.971 432.686,94.871 C429.175,100.771 429.101,108.102 432.494,114.071 C435.886,120.04 442.221,123.727 449.085,123.727 Z" />
        </g>
        <g id="Black-M" transform="translate(0,200)">
            <path d="M674.531,131.682 L674.531,139.636 C674.531,141.394 675.955,142.818 677.712,142.818 C679.469,142.818 680.893,141.394 680.893,139.636 L680.893,131.682 C680.893,129.924 679.469,128.5 677.712,128.5 C675.955,128.5 674.531,129.924 674.531,131.682 Z M649.085,131.682 L649.085,139.636 C649.085,141.394 650.509,142.818 652.266,142.818 C654.022,142.818 655.446,141.394 655.446,139.636 L655.446,131.682 C655.446,129.924 654.022,128.5 652.266,128.5 C650.509,128.5 649.085,129.924 649.085,131.682 Z M661.808,134.864 L661.808,142.818 C661.808,144.575 663.232,146 664.989,146 C666.746,146 668.17,144.575 668.17,142.818 L668.17,134.864 C668.17,133.106 666.746,131.682 664.989,131.682 C663.232,131.682 661.808,133.106 661.808,134.864 Z M649.085,117.364 C644.509,117.364 640.286,114.906 638.024,110.926 C635.763,106.947 635.811,102.059 638.152,98.126 C640.493,94.193 644.764,91.82 649.339,91.911 C650.557,91.936 651.682,91.262 652.236,90.177 C654.914,84.928 660.532,81.855 666.394,82.433 C672.257,83.011 677.168,87.12 678.771,92.791 C679.173,94.214 680.504,95.173 681.981,95.103 C686.019,94.913 689.842,96.926 691.97,100.364 C694.099,103.801 694.197,108.122 692.228,111.653 C690.258,115.184 686.53,117.37 682.488,117.364 L649.082,117.364 L649.082,120.545 L649.082,123.727 L649.085,123.727 L649.085,120.545 L649.085,117.364 Z M649.085,123.727 C653.326,123.727 653.326,117.364 649.085,117.364 L649.082,117.364 C644.841,117.364 644.841,123.727 649.082,123.727 L682.483,123.727 C688.83,123.737 694.688,120.302 697.783,114.754 C700.878,109.205 700.723,102.415 697.379,97.013 C694.035,91.611 688.026,88.447 681.682,88.747 L684.892,91.059 C682.577,82.87 675.485,76.934 667.018,76.1 C658.551,75.266 650.437,79.704 646.57,87.284 L649.467,85.549 C642.604,85.412 636.197,88.971 632.686,94.871 C629.175,100.771 629.101,108.102 632.494,114.071 C635.886,120.04 642.221,123.727 649.085,123.727 Z" />
        </g>
    </g>
</svg>