<?xml version="1.0" encoding="UTF-8"?>
<svg height="600" width="800" xmlns="http://www.w3.org/2000/svg" xmlns:xlink="http://www.w3.org/1999/xlink">
    <g id="Notes" font-family="LucidaGrande, 'Lucida Grande', sans-serif" font-size="13">
        <rect fill="white" height="600.0" width="800.0" x="0.0" y="0.0" />
        <g font-size="13">
            <text x="18.0" y="176.0">Small</text>
            <text x="18.0" y="376.0">Medium</text>
            <text x="18.0" y="576.0">Large</text>
        </g>
        <g font-size="9">
            <text x="250.0" y="30.0">Ultralight</text>
            <text x="450.0" y="30.0">Regular</text>
            <text x="650.0" y="30.0">Black</text>
            <text id="template-version" fill="#505050" text-anchor="end" x="785.0" y="575.0">Template v.3.0</text>
            <a href="https://github.com/swhitty/SwiftDraw">
                <text fill="#505050" text-anchor="end" x="785.0" y="590.0">https://github.com/swhitty/SwiftDraw</text>
            </a>
        </g>
    </g>
    <g id="Guides" stroke="rgb(39, 170, 225)" stroke-width="0.5">
        <path id="Capline-S" d="M18,76 l800,0" />
        <path id="H-reference" d="M85,145.755 L87.685,145.755 L113.369,79.287 L114.052,79.287 L114.052,76 L112.148,76 L85,145.755 Z M95.693,121.536 L130.996,121.536 L130.263,119.313 L96.474,119.313 L95.693,121.536 Z M139.15,145.755 L141.787,145.755 L114.638,76 L113.466,76 L113.466,79.287 L139.15,145.755 Z" stroke="none" transform="translate(0,200)" />
        <path id="Baseline-S" d="M18,146 l800,0" />
        <path id="left-margin-Ultralight-M" d="M221,256 l0,110" />
        <path id="right-margin-Ultralight-M" d="M309,256 l0,110" />
        <path id="left-margin-Regular-M" d="M421,256 l0,110" />
        <path id="right-margin-Regular-M" d="M509,256 l0,110" />
        <path id="left-margin-Black-M" d="M621,256 l0,110" />
        <path id="right-margin-Black-M" d="M709,256 l0,110" />
        <path id="Capline-M" d="M18,276 l800,0" />
        <path id="Baseline-M" d="M18,346 l800,0" />
        <path id="Capline-L" d="M18,476 l800,0" />
        <path id="Baseline-L" d="M18,546 l800,0" />
    </g>
    <g id="Symbols">
        <g id="Ultralight-M" transform="translate(0,200)">
            <path d="M242.885,102.267 L253.768,109.523 C254.616,110.088 254.848,110.233 255.259,110.424 C255.317,110.451 255.317,110.451 255.375,110.476 C255.82,110.671 256.293,110.814 256.781,110.902 C257.277,110.99 257.563,111 258.649,111 L271.351,111 C272.437,111 272.723,110.99 273.214,110.903 C273.707,110.814 274.18,110.671 274.629,110.474 C274.689,110.448 274.689,110.448 274.757,110.417 C275.163,110.227 275.375,110.094 276.232,109.523 L287.115,102.267 C288.077,101.625 288.337,100.324 287.696,99.362 C287.054,98.399 285.753,98.139 284.79,98.781 L273.907,106.036 C273.266,106.464 273.114,106.559 272.983,106.62 C272.97,106.626 272.97,106.626 272.958,106.632 C272.803,106.699 272.644,106.747 272.474,106.778 C272.332,106.803 272.15,106.81 271.351,106.81 L258.649,106.81 C257.85,106.81 257.668,106.803 257.521,106.777 C257.356,106.747 257.197,106.699 257.05,106.635 C257.035,106.629 257.035,106.629 257.024,106.624 C256.89,106.561 256.729,106.46 256.093,106.036 L245.21,98.781 C244.247,98.139 242.946,98.399 242.304,99.362 C241.663,100.324 241.923,101.625 242.885,102.267 Z M254.105,129.857 L275.895,129.857 C280.716,129.857 281.862,129.763 283.471,128.944 C285.048,128.14 286.331,126.858 287.134,125.281 C287.954,123.671 288.047,122.526 288.047,117.705 L288.047,104.295 C288.047,99.474 287.954,98.329 287.134,96.719 C286.331,95.142 285.048,93.86 283.472,93.056 C281.862,92.237 280.716,92.143 275.895,92.143 L254.105,92.143 C249.284,92.143 248.138,92.237 246.529,93.056 C244.952,93.86 243.67,95.142 242.866,96.719 C242.046,98.329 241.952,99.474 241.952,104.295 L241.952,117.705 C241.952,122.526 242.046,123.671 242.866,125.281 C243.67,126.858 244.952,128.14 246.528,128.944 C248.138,129.763 249.284,129.857 254.105,129.857 Z M254.105,125.667 C250.126,125.667 249.175,125.589 248.431,125.21 C247.642,124.808 247.001,124.167 246.6,123.379 C246.221,122.634 246.143,121.684 246.143,117.705 L246.143,104.295 C246.143,100.316 246.221,99.366 246.6,98.621 C247.001,97.833 247.642,97.192 248.431,96.79 C249.175,96.411 250.126,96.333 254.105,96.333 L275.895,96.333 C279.874,96.333 280.825,96.411 281.569,96.79 C282.358,97.192 282.999,97.833 283.4,98.621 C283.779,99.366 283.857,100.316 283.857,104.295 L283.857,117.705 C283.857,121.684 283.779,122.634 283.4,123.379 C282.999,124.167 282.358,124.808 281.569,125.21 C280.825,125.589 279.874,125.667 275.895,125.667 L254.105,125.667 Z" />
        </g>
        <g id="Regular-M" transform="translate(0,200)">
            <path d="M442.885,102.267 L453.768,109.523 C454.616,110.088 454.848,110.233 455.259,110.424 C455.317,110.451 455.317,110.451 455.375,110.476 C455.82,110.671 456.293,110.814 456.781,110.902 C457.277,110.99 457.563,111 458.649,111 L471.351,111 C472.437,111 472.723,110.99 473.214,110.903 C473.707,110.814 474.18,110.671 474.629,110.474 C474.689,110.448 474.689,110.448 474.757,110.417 C475.163,110.227 475.375,110.094 476.232,109.523 L487.115,102.267 C488.077,101.625 488.337,100.324 487.696,99.362 C487.054,98.399 485.753,98.139 484.79,98.781 L473.907,106.036 C473.266,106.464 473.114,106.559 472.983,106.62 C472.97,106.626 472.97,106.626 472.958,106.632 C472.803,106.699 472.644,106.747 472.474,106.778 C472.332,106.803 472.15,106.81 471.351,106.81 L458.649,106.81 C457.85,106.81 457.668,106.803 457.521,106.777 C457.356,106.747 457.197,106.699 457.05,106.635 C457.035,106.629 457.035,106.629 457.024,106.624 C456.89,106.561 456.729,106.46 456.093,106.036 L445.21,98.781 C444.247,98.139 442.946,98.399 442.304,99.362 C441.663,100.324 441.923,101.625 442.885,102.267 Z M454.105,129.857 L475.895,129.857 C480.716,129.857 481.862,129.763 483.471,128.944 C485.048,128.14 486.331,126.858 487.134,125.281 C487.954,123.671 488.047,122.526 488.047,117.705 L488.047,104.295 C488.047,99.474 487.954,98.329 487.134,96.719 C486.331,95.142 485.048,93.86 483.472,93.056 C481.862,92.237 480.716,92.143 475.895,92.143 L454.105,92.143 C449.284,92.143 448.138,92.237 446.529,93.056 C444.952,93.86 443.669,95.142 442.866,96.719 C442.046,98.329 441.952,99.474 441.952,104.295 L441.952,117.705 C441.952,122.526 442.046,123.671 442.866,125.281 C443.669,126.858 444.952,128.14 446.528,128.944 C448.138,129.763 449.284,129.857 454.105,129.857 Z M454.105,125.667 C450.126,125.667 449.175,125.589 448.431,125.21 C447.642,124.808 447.001,124.167 446.6,123.379 C446.221,122.634 446.143,121.684 446.143,117.705 L446.143,104.295 C446.143,100.316 446.221,99.366 446.6,98.621 C447.001,97.833 447.642,97.192 448.431,96.79 C449.175,96.411 450.126,96.333 454.105,96.333 L475.895,96.333 C479.874,96.333 480.825,96.411 481.569,96.79 C482.358,97.192 482.999,97.833 483.4,98.621 C483.779,99.366 483.857,100.316 483.857,104.295 L483.857,117.705 C483.857,121.684 483.779,122.634 483.4,123.379 C482.999,124.167 482.358,124.808 481.569,125.21 C480.825,125.589 479.874,125.667 475.895,125.667 L454.105,125.667 Z" />
        </g>
        <g id="Black-M" transform="translate(0,200)">
            <path d="M642.885,102.267 L653.768,109.523 C654.616,110.088 654.848,110.233 655.259,110.424 C655.317,110.451 655.317,110.451 655.375,110.476 C655.82,110.671 656.293,110.814 656.781,110.902 C657.277,110.99 657.563,111 658.649,111 L671.351,111 C672.437,111 672.723,110.99 673.214,110.903 C673.707,110.814 674.18,110.671 674.629,110.474 C674.689,110.448 674.689,110.448 674.757,110.417 C675.163,110.227 675.375,110.094 676.232,109.523 L687.115,102.267 C688.077,101.625 688.337,100.324 687.696,99.362 C687.054,98.399 685.753,98.139 684.79,98.781 L673.907,106.036 C673.266,106.464 673.114,106.559 672.983,106.62 C672.97,106.626 672.97,106.626 672.958,106.632 C672.803,106.699 672.644,106.747 672.474,106.778 C672.332,106.803 672.15,106.81 671.351,106.81 L658.649,106.81 C657.85,106.81 657.668,106.803 657.521,106.777 C657.356,106.747 657.197,106.699 657.05,106.635 C657.035,106.629 657.035,106.629 657.024,106.624 C656.89,106.561 656.729,106.46 656.093,106.036 L645.21,98.781 C644.247,98.139 642.946,98.399 642.304,99.362 C641.662,100.324 641.923,101.625 642.885,102.267 Z M654.105,129.857 L675.895,129.857 C680.716,129.857 681.862,129.763 683.471,128.944 C685.048,128.14 686.33,126.858 687.134,125.281 C687.954,123.671 688.047,122.526 688.047,117.705 L688.047,104.295 C688.047,99.474 687.954,98.329 687.134,96.719 C686.33,95.142 685.048,93.86 683.471,93.056 C681.862,92.237 680.716,92.143 675.895,92.143 L654.105,92.143 C649.284,92.143 648.138,92.237 646.529,93.056 C644.952,93.86 643.669,95.142 642.866,96.719 C642.046,98.329 641.952,99.474 641.952,104.295 L641.952,117.705 C641.952,122.526 642.046,123.671 642.866,125.281 C643.669,126.858 644.952,128.14 646.528,128.944 C648.138,129.763 649.284,129.857 654.105,129.857 Z M654.105,125.667 C650.126,125.667 649.175,125.589 648.431,125.21 C647.642,124.808 647.001,124.167 646.6,123.379 C646.221,122.634 646.143,121.684 646.143,117.705 L646.143,104.295 C646.143,100.316 646.221,99.366 646.6,98.621 C647.001,97.833 647.642,97.192 648.431,96.79 C649.175,96.411 650.126,96.333 654.105,96.333 L675.895,96.333 C679.874,96.333 680.825,96.411 681.569,96.79 C682.357,97.192 682.999,97.833 683.4,98.621 C683.779,99.366 683.857,100.316 683.857,104.295 L683.857,117.705 C683.857,121.684 683.779,122.634 683.4,123.379 C682.999,124.167 682.357,124.808 681.569,125.21 C680.825,125.589 679.874,125.667 675.895,125.667 L654.105,125.667 Z" />
        </g>
    </g>
</svg>