<?xml version="1.0" encoding="UTF-8"?>
<svg height="600" width="800" xmlns="http://www.w3.org/2000/svg" xmlns:xlink="http://www.w3.org/1999/xlink">
    <g id="Notes" font-family="LucidaGrande, 'Lucida Grande', sans-serif" font-size="13">
        <rect fill="white" height="600.0" width="800.0" x="0.0" y="0.0" />
        <g font-size="13">
            <text x="18.0" y="176.0">Small</text>
            <text x="18.0" y="376.0">Medium</text>
            <text x="18.0" y="576.0">Large</text>
        </g>
        <g font-size="9">
            <text x="250.0" y="30.0">Ultralight</text>
            <text x="450.0" y="30.0">Regular</text>
            <text x="650.0" y="30.0">Black</text>
            <text id="template-version" fill="#505050" text-anchor="end" x="785.0" y="575.0">Template v.3.0</text>
            <a href="https://github.com/swhitty/SwiftDraw">
                <text fill="#505050" text-anchor="end" x="785.0" y="590.0">https://github.com/swhitty/SwiftDraw</text>
            </a>
        </g>
    </g>
    <g id="Guides" stroke="rgb(39, 170, 225)" stroke-width="0.5">
        <path id="Capline-S" d="M18,76 l800,0" />
        <path id="H-reference" d="M85,145.755 L87.685,145.755 L113.369,79.287 L114.052,79.287 L114.052,76 L112.148,76 L85,145.755 Z M95.693,121.536 L130.996,121.536 L130.263,119.313 L96.474,119.313 L95.693,121.536 Z M139.15,145.755 L141.787,145.755 L114.638,76 L113.466,76 L113.466,79.287 L139.15,145.755 Z" stroke="none" transform="translate(0,200)" />
        <path id="Baseline-S" d="M18,146 l800,0" />
        <path id="left-margin-Ultralight-M" d="M230,256 l0,110" />
        <path id="right-margin-Ultralight-M" d="M300,256 l0,110" />
        <path id="left-margin-Regular-M" d="M430,256 l0,110" />
        <path id="right-margin-Regular-M" d="M500,256 l0,110" />
        <path id="left-margin-Black-M" d="M630,256 l0,110" />
        <path id="right-margin-Black-M" d="M700,256 l0,110" />
        <path id="Capline-M" d="M18,276 l800,0" />
        <path id="Baseline-M" d="M18,346 l800,0" />
        <path id="Capline-L" d="M18,476 l800,0" />
        <path id="Baseline-L" d="M18,546 l800,0" />
    </g>
    <g id="Symbols">
        <g id="Ultralight-M" transform="translate(0,200)">
            <path d="M253.333,102.25 L253.333,119.75 C253.333,121.361 254.639,122.667 256.25,122.667 C257.861,122.667 259.167,121.361 259.167,119.75 L259.167,102.25 C259.167,100.639 257.861,99.333 256.25,99.333 C254.639,99.333 253.333,100.639 253.333,102.25 Z M256.25,122.667 L273.75,122.667 C275.361,122.667 276.667,121.361 276.667,119.75 C276.667,118.139 275.361,116.833 273.75,116.833 L256.25,116.833 C254.639,116.833 253.333,118.139 253.333,119.75 C253.333,121.361 254.639,122.667 256.25,122.667 Z M258.312,121.812 L275.812,104.312 C276.951,103.173 276.951,101.327 275.812,100.188 C274.673,99.049 272.827,99.049 271.688,100.188 L254.188,117.688 C253.049,118.827 253.049,120.673 254.188,121.812 C255.327,122.951 257.173,122.951 258.312,121.812 Z M252.75,140.167 L277.25,140.167 C283.961,140.167 285.556,140.036 287.796,138.895 C289.992,137.776 291.776,135.992 292.895,133.797 C294.036,131.556 294.167,129.961 294.167,123.25 L294.167,98.75 C294.167,92.039 294.036,90.444 292.895,88.204 C291.776,86.008 289.992,84.224 287.797,83.105 C285.556,81.964 283.961,81.833 277.25,81.833 L252.75,81.833 C246.039,81.833 244.444,81.964 242.204,83.105 C240.008,84.224 238.224,86.008 237.105,88.203 C235.964,90.444 235.833,92.039 235.833,98.75 L235.833,123.25 C235.833,129.961 235.964,131.556 237.105,133.796 C238.223,135.992 240.008,137.777 242.203,138.895 C244.444,140.036 246.039,140.167 252.75,140.167 Z M252.75,134.333 C247.211,134.333 245.888,134.225 244.851,133.697 C243.754,133.138 242.862,132.246 242.303,131.148 C241.775,130.112 241.667,128.789 241.667,123.25 L241.667,98.75 C241.667,93.211 241.775,91.888 242.303,90.851 C242.862,89.754 243.754,88.862 244.852,88.303 C245.888,87.775 247.211,87.667 252.75,87.667 L277.25,87.667 C282.789,87.667 284.112,87.775 285.149,88.303 C286.246,88.862 287.138,89.754 287.698,90.852 C288.225,91.888 288.333,93.211 288.333,98.75 L288.333,123.25 C288.333,128.789 288.225,130.112 287.697,131.149 C287.138,132.246 286.246,133.138 285.148,133.698 C284.112,134.225 282.789,134.333 277.25,134.333 L252.75,134.333 Z" />
        </g>
        <g id="Regular-M" transform="translate(0,200)">
            <path d="M453.333,102.25 L453.333,119.75 C453.333,121.361 454.639,122.667 456.25,122.667 C457.861,122.667 459.167,121.361 459.167,119.75 L459.167,102.25 C459.167,100.639 457.861,99.333 456.25,99.333 C454.639,99.333 453.333,100.639 453.333,102.25 Z M456.25,122.667 L473.75,122.667 C475.361,122.667 476.667,121.361 476.667,119.75 C476.667,118.139 475.361,116.833 473.75,116.833 L456.25,116.833 C454.639,116.833 453.333,118.139 453.333,119.75 C453.333,121.361 454.639,122.667 456.25,122.667 Z M458.312,121.812 L475.812,104.312 C476.951,103.173 476.951,101.327 475.812,100.188 C474.673,99.049 472.827,99.049 471.688,100.188 L454.188,117.688 C453.049,118.827 453.049,120.673 454.188,121.812 C455.327,122.951 457.173,122.951 458.312,121.812 Z M452.75,140.167 L477.25,140.167 C483.961,140.167 485.556,140.036 487.796,138.895 C489.992,137.776 491.776,135.992 492.895,133.797 C494.036,131.556 494.167,129.961 494.167,123.25 L494.167,98.75 C494.167,92.039 494.036,90.444 492.895,88.204 C491.776,86.008 489.992,84.224 487.797,83.105 C485.556,81.964 483.961,81.833 477.25,81.833 L452.75,81.833 C446.039,81.833 444.444,81.964 442.204,83.105 C440.008,84.224 438.224,86.008 437.105,88.203 C435.964,90.444 435.833,92.039 435.833,98.75 L435.833,123.25 C435.833,129.961 435.964,131.556 437.105,133.796 C438.224,135.992 440.008,137.777 442.203,138.895 C444.444,140.036 446.039,140.167 452.75,140.167 Z M452.75,134.333 C447.211,134.333 445.888,134.225 444.851,133.697 C443.754,133.138 442.862,132.246 442.302,131.148 C441.775,130.112 441.667,128.789 441.667,123.25 L441.667,98.75 C441.667,93.211 441.775,91.888 442.303,90.851 C442.862,89.754 443.754,88.862 444.852,88.303 C445.888,87.775 447.211,87.667 452.75,87.667 L477.25,87.667 C482.789,87.667 484.112,87.775 485.149,88.303 C486.246,88.862 487.138,89.754 487.698,90.852 C488.225,91.888 488.333,93.211 488.333,98.75 L488.333,123.25 C488.333,128.789 488.225,130.112 487.697,131.149 C487.138,132.246 486.246,133.138 485.148,133.698 C484.112,134.225 482.789,134.333 477.25,134.333 L452.75,134.333 Z" />
        </g>
        <g id="Black-M" transform="translate(0,200)">
            <path d="M653.333,102.25 L653.333,119.75 C653.333,121.361 654.639,122.667 656.25,122.667 C657.861,122.667 659.167,121.361 659.167,119.75 L659.167,102.25 C659.167,100.639 657.861,99.333 656.25,99.333 C654.639,99.333 653.333,100.639 653.333,102.25 Z M656.25,122.667 L673.75,122.667 C675.361,122.667 676.667,121.361 676.667,119.75 C676.667,118.139 675.361,116.833 673.75,116.833 L656.25,116.833 C654.639,116.833 653.333,118.139 653.333,119.75 C653.333,121.361 654.639,122.667 656.25,122.667 Z M658.312,121.812 L675.812,104.312 C676.951,103.173 676.951,101.327 675.812,100.188 C674.673,99.049 672.827,99.049 671.688,100.188 L654.188,117.688 C653.049,118.827 653.049,120.673 654.188,121.812 C655.327,122.951 657.173,122.951 658.312,121.812 Z M652.75,140.167 L677.25,140.167 C683.961,140.167 685.556,140.036 687.796,138.895 C689.992,137.776 691.776,135.992 692.895,133.797 C694.036,131.556 694.167,129.961 694.167,123.25 L694.167,98.75 C694.167,92.039 694.036,90.444 692.895,88.204 C691.776,86.008 689.992,84.224 687.797,83.105 C685.556,81.964 683.961,81.833 677.25,81.833 L652.75,81.833 C646.039,81.833 644.444,81.964 642.204,83.105 C640.008,84.224 638.224,86.008 637.105,88.203 C635.964,90.444 635.833,92.039 635.833,98.75 L635.833,123.25 C635.833,129.961 635.964,131.556 637.105,133.796 C638.224,135.992 640.008,137.777 642.203,138.895 C644.444,140.036 646.039,140.167 652.75,140.167 Z M652.75,134.333 C647.211,134.333 645.888,134.225 644.851,133.697 C643.754,133.138 642.862,132.246 642.302,131.148 C641.775,130.112 641.667,128.789 641.667,123.25 L641.667,98.75 C641.667,93.211 641.775,91.888 642.303,90.851 C642.862,89.754 643.754,88.862 644.852,88.303 C645.888,87.775 647.211,87.667 652.75,87.667 L677.25,87.667 C682.789,87.667 684.112,87.775 685.149,88.303 C686.246,88.862 687.138,89.754 687.698,90.852 C688.225,91.888 688.333,93.211 688.333,98.75 L688.333,123.25 C688.333,128.789 688.225,130.112 687.697,131.149 C687.138,132.246 686.246,133.138 685.148,133.698 C684.112,134.225 682.789,134.333 677.25,134.333 L652.75,134.333 Z" />
        </g>
    </g>
</svg>