<?xml version="1.0" encoding="UTF-8"?>
<svg height="600" width="800" xmlns="http://www.w3.org/2000/svg" xmlns:xlink="http://www.w3.org/1999/xlink">
    <g id="Notes" font-family="LucidaGrande, 'Lucida Grande', sans-serif" font-size="13">
        <rect fill="white" height="600.0" width="800.0" x="0.0" y="0.0" />
        <g font-size="13">
            <text x="18.0" y="176.0">Small</text>
            <text x="18.0" y="376.0">Medium</text>
            <text x="18.0" y="576.0">Large</text>
        </g>
        <g font-size="9">
            <text x="250.0" y="30.0">Ultralight</text>
            <text x="450.0" y="30.0">Regular</text>
            <text x="650.0" y="30.0">Black</text>
            <text id="template-version" fill="#505050" text-anchor="end" x="785.0" y="575.0">Template v.3.0</text>
            <a href="https://github.com/swhitty/SwiftDraw">
                <text fill="#505050" text-anchor="end" x="785.0" y="590.0">https://github.com/swhitty/SwiftDraw</text>
            </a>
        </g>
    </g>
    <g id="Guides" stroke="rgb(39, 170, 225)" stroke-width="0.5">
        <path id="Capline-S" d="M18,76 l800,0" />
        <path id="H-reference" d="M85,145.755 L87.685,145.755 L113.369,79.287 L114.052,79.287 L114.052,76 L112.148,76 L85,145.755 Z M95.693,121.536 L130.996,121.536 L130.263,119.313 L96.474,119.313 L95.693,121.536 Z M139.15,145.755 L141.787,145.755 L114.638,76 L113.466,76 L113.466,79.287 L139.15,145.755 Z" stroke="none" transform="translate(0,200)" />
        <path id="Baseline-S" d="M18,146 l800,0" />
        <path id="left-margin-Ultralight-M" d="M230,256 l0,110" />
        <path id="right-margin-Ultralight-M" d="M300,256 l0,110" />
        <path id="left-margin-Regular-M" d="M430,256 l0,110" />
        <path id="right-margin-Regular-M" d="M500,256 l0,110" />
        <path id="left-margin-Black-M" d="M630,256 l0,110" />
        <path id="right-margin-Black-M" d="M700,256 l0,110" />
        <path id="Capline-M" d="M18,276 l800,0" />
        <path id="Baseline-M" d="M18,346 l800,0" />
        <path id="Capline-L" d="M18,476 l800,0" />
        <path id="Baseline-L" d="M18,546 l800,0" />
    </g>
    <g id="Symbols">
        <g id="Ultralight-M" transform="translate(0,200)">
            <path d="M233.182,120.545 L296.818,120.545 C298.575,120.545 300,119.121 300,117.364 C300,115.606 298.575,114.182 296.818,114.182 L233.182,114.182 C231.425,114.182 230,115.606 230,117.364 C230,119.121 231.425,120.545 233.182,120.545 Z M252.273,142.818 L277.727,142.818 C279.485,142.818 280.909,141.394 280.909,139.636 C280.909,137.879 279.485,136.455 277.727,136.455 L252.273,136.455 C250.515,136.455 249.091,137.879 249.091,139.636 C249.091,141.394 250.515,142.818 252.273,142.818 Z M248.455,133.273 L281.545,133.273 C288.867,133.273 290.606,133.131 293.05,131.886 C295.446,130.665 297.393,128.718 298.613,126.324 C299.858,123.879 300,122.139 300,114.818 L300,97.636 C300,90.315 299.858,88.575 298.613,86.131 C297.393,83.736 295.446,81.789 293.051,80.569 C290.606,79.324 288.867,79.182 281.545,79.182 L248.455,79.182 C241.133,79.182 239.394,79.324 236.95,80.569 C234.554,81.789 232.607,83.736 231.387,86.131 C230.142,88.575 230,90.315 230,97.636 L230,114.818 C230,122.139 230.142,123.879 231.387,126.323 C232.607,128.718 234.554,130.665 236.949,131.885 C239.394,133.131 241.133,133.273 248.455,133.273 Z M248.455,126.909 C242.412,126.909 240.968,126.791 239.838,126.215 C238.641,125.605 237.667,124.632 237.057,123.435 C236.482,122.304 236.364,120.861 236.364,114.818 L236.364,97.636 C236.364,91.594 236.482,90.15 237.057,89.02 C237.667,87.823 238.641,86.849 239.838,86.239 C240.968,85.663 242.412,85.545 248.455,85.545 L281.545,85.545 C287.588,85.545 289.032,85.663 290.162,86.239 C291.359,86.849 292.333,87.823 292.943,89.02 C293.518,90.15 293.636,91.594 293.636,97.636 L293.636,114.818 C293.636,120.861 293.518,122.304 292.943,123.435 C292.333,124.632 291.359,125.605 290.162,126.215 C289.032,126.791 287.588,126.909 281.545,126.909 L248.455,126.909 Z" />
        </g>
        <g id="Regular-M" transform="translate(0,200)">
            <path d="M433.182,120.545 L496.818,120.545 C498.575,120.545 500,119.121 500,117.364 C500,115.606 498.575,114.182 496.818,114.182 L433.182,114.182 C431.425,114.182 430,115.606 430,117.364 C430,119.121 431.425,120.545 433.182,120.545 Z M452.273,142.818 L477.727,142.818 C479.485,142.818 480.909,141.394 480.909,139.636 C480.909,137.879 479.485,136.455 477.727,136.455 L452.273,136.455 C450.515,136.455 449.091,137.879 449.091,139.636 C449.091,141.394 450.515,142.818 452.273,142.818 Z M448.455,133.273 L481.545,133.273 C488.867,133.273 490.606,133.131 493.05,131.886 C495.446,130.665 497.393,128.718 498.613,126.324 C499.858,123.879 500,122.139 500,114.818 L500,97.636 C500,90.315 499.858,88.575 498.613,86.131 C497.393,83.736 495.446,81.789 493.051,80.569 C490.606,79.324 488.867,79.182 481.545,79.182 L448.455,79.182 C441.133,79.182 439.394,79.324 436.95,80.569 C434.554,81.789 432.607,83.736 431.387,86.131 C430.142,88.575 430,90.315 430,97.636 L430,114.818 C430,122.139 430.142,123.879 431.387,126.323 C432.607,128.718 434.554,130.665 436.949,131.885 C439.394,133.131 441.133,133.273 448.455,133.273 Z M448.455,126.909 C442.412,126.909 440.968,126.791 439.838,126.215 C438.641,125.605 437.667,124.632 437.057,123.435 C436.482,122.304 436.364,120.861 436.364,114.818 L436.364,97.636 C436.364,91.594 436.482,90.15 437.057,89.02 C437.667,87.823 438.641,86.849 439.838,86.239 C440.968,85.663 442.412,85.545 448.455,85.545 L481.545,85.545 C487.588,85.545 489.032,85.663 490.162,86.239 C491.359,86.849 492.333,87.823 492.943,89.02 C493.518,90.15 493.636,91.594 493.636,97.636 L493.636,114.818 C493.636,120.861 493.518,122.304 492.943,123.435 C492.333,124.632 491.359,125.605 490.162,126.215 C489.032,126.791 487.588,126.909 481.545,126.909 L448.455,126.909 Z" />
        </g>
        <g id="Black-M" transform="translate(0,200)">
            <path d="M633.182,120.545 L696.818,120.545 C698.575,120.545 700,119.121 700,117.364 C700,115.606 698.575,114.182 696.818,114.182 L633.182,114.182 C631.425,114.182 630,115.606 630,117.364 C630,119.121 631.425,120.545 633.182,120.545 Z M652.273,142.818 L677.727,142.818 C679.485,142.818 680.909,141.394 680.909,139.636 C680.909,137.879 679.485,136.455 677.727,136.455 L652.273,136.455 C650.515,136.455 649.091,137.879 649.091,139.636 C649.091,141.394 650.515,142.818 652.273,142.818 Z M648.455,133.273 L681.545,133.273 C688.867,133.273 690.606,133.131 693.05,131.886 C695.446,130.665 697.393,128.718 698.613,126.324 C699.858,123.879 700,122.139 700,114.818 L700,97.636 C700,90.315 699.858,88.575 698.613,86.131 C697.393,83.736 695.446,81.789 693.051,80.569 C690.606,79.324 688.867,79.182 681.545,79.182 L648.455,79.182 C641.133,79.182 639.394,79.324 636.95,80.569 C634.554,81.789 632.607,83.736 631.387,86.131 C630.142,88.575 630,90.315 630,97.636 L630,114.818 C630,122.139 630.142,123.879 631.387,126.323 C632.607,128.718 634.554,130.665 636.949,131.885 C639.394,133.131 641.133,133.273 648.455,133.273 Z M648.455,126.909 C642.412,126.909 640.968,126.791 639.838,126.215 C638.641,125.605 637.667,124.632 637.057,123.435 C636.482,122.304 636.364,120.861 636.364,114.818 L636.364,97.636 C636.364,91.594 636.482,90.15 637.057,89.02 C637.667,87.823 638.641,86.849 639.838,86.239 C640.968,85.663 642.412,85.545 648.455,85.545 L681.545,85.545 C687.588,85.545 689.032,85.663 690.162,86.239 C691.359,86.849 692.333,87.823 692.943,89.02 C693.518,90.15 693.636,91.594 693.636,97.636 L693.636,114.818 C693.636,120.861 693.518,122.304 692.943,123.435 C692.333,124.632 691.359,125.605 690.162,126.215 C689.032,126.791 687.588,126.909 681.545,126.909 L648.455,126.909 Z" />
        </g>
    </g>
</svg>