<?xml version="1.0" encoding="UTF-8"?>
<svg height="600" width="800" xmlns="http://www.w3.org/2000/svg" xmlns:xlink="http://www.w3.org/1999/xlink">
    <g id="Notes" font-family="LucidaGrande, 'Lucida Grande', sans-serif" font-size="13">
        <rect fill="white" height="600.0" width="800.0" x="0.0" y="0.0" />
        <g font-size="13">
            <text x="18.0" y="176.0">Small</text>
            <text x="18.0" y="376.0">Medium</text>
            <text x="18.0" y="576.0">Large</text>
        </g>
        <g font-size="9">
            <text x="250.0" y="30.0">Ultralight</text>
            <text x="450.0" y="30.0">Regular</text>
            <text x="650.0" y="30.0">Black</text>
            <text id="template-version" fill="#505050" text-anchor="end" x="785.0" y="575.0">Template v.3.0</text>
            <a href="https://github.com/swhitty/SwiftDraw">
                <text fill="#505050" text-anchor="end" x="785.0" y="590.0">https://github.com/swhitty/SwiftDraw</text>
            </a>
        </g>
    </g>
    <g id="Guides" stroke="rgb(39, 170, 225)" stroke-width="0.5">
        <path id="Capline-S" d="M18,76 l800,0" />
        <path id="H-reference" d="M85,145.755 L87.685,145.755 L113.369,79.287 L114.052,79.287 L114.052,76 L112.148,76 L85,145.755 Z M95.693,121.536 L130.996,121.536 L130.263,119.313 L96.474,119.313 L95.693,121.536 Z M139.15,145.755 L141.787,145.755 L114.638,76 L113.466,76 L113.466,79.287 L139.15,145.755 Z" stroke="none" transform="translate(0,200)" />
        <path id="Baseline-S" d="M18,146 l800,0" />
        <path id="left-margin-Ultralight-M" d="M230,256 l0,110" />
        <path id="right-margin-Ultralight-M" d="M300,256 l0,110" />
        <path id="left-margin-Regular-M" d="M430,256 l0,110" />
        <path id="right-margin-Regular-M" d="M500,256 l0,110" />
        <path id="left-margin-Black-M" d="M630,256 l0,110" />
        <path id="right-margin-Black-M" d="M700,256 l0,110" />
        <path id="Capline-M" d="M18,276 l800,0" />
        <path id="Baseline-M" d="M18,346 l800,0" />
        <path id="Capline-L" d="M18,476 l800,0" />
        <path id="Baseline-L" d="M18,546 l800,0" />
    </g>
    <g id="Symbols">
        <g id="Ultralight-M" transform="translate(0,200)">
            <path d="M237.568,79.889 L237.568,142.111 C237.568,144.259 239.262,146 241.351,146 C243.441,146 245.135,144.259 245.135,142.111 L245.135,79.889 C245.135,77.741 243.441,76 241.351,76 C239.262,76 237.568,77.741 237.568,79.889 Z M254.595,83.778 L277.297,83.778 C283.566,83.778 288.649,89.001 288.649,95.444 C288.649,101.888 283.566,107.111 277.297,107.111 L254.595,107.111 L254.595,114.889 L281.081,114.889 C287.35,114.889 292.432,120.112 292.432,126.556 C292.432,132.999 287.35,138.222 281.081,138.222 L254.595,138.222 C252.505,138.222 250.811,139.963 250.811,142.111 C250.811,144.259 252.505,146 254.595,146 L281.081,146 C291.53,146 300,137.294 300,126.556 C300,115.817 291.53,107.111 281.081,107.111 L254.595,107.111 C249.55,107.111 249.55,114.889 254.595,114.889 L277.297,114.889 C287.746,114.889 296.216,106.183 296.216,95.444 C296.216,84.706 287.746,76 277.297,76 L254.595,76 C252.505,76 250.811,77.741 250.811,79.889 C250.811,82.037 252.505,83.778 254.595,83.778 Z M250.811,79.889 L250.811,142.111 C250.811,144.259 252.505,146 254.595,146 C256.684,146 258.378,144.259 258.378,142.111 L258.378,79.889 C258.378,77.741 256.684,76 254.595,76 C252.505,76 250.811,77.741 250.811,79.889 Z M254.595,76 L233.784,76 C231.694,76 230,77.741 230,79.889 C230,82.037 231.694,83.778 233.784,83.778 L254.595,83.778 C256.684,83.778 258.378,82.037 258.378,79.889 C258.378,77.741 256.684,76 254.595,76 Z M254.595,138.222 L233.784,138.222 C231.694,138.222 230,139.963 230,142.111 C230,144.259 231.694,146 233.784,146 L254.595,146 C256.684,146 258.378,144.259 258.378,142.111 C258.378,139.963 256.684,138.222 254.595,138.222 Z" />
        </g>
        <g id="Regular-M" transform="translate(0,200)">
            <path d="M437.568,79.889 L437.568,142.111 C437.568,144.259 439.262,146 441.351,146 C443.441,146 445.135,144.259 445.135,142.111 L445.135,79.889 C445.135,77.741 443.441,76 441.351,76 C439.262,76 437.568,77.741 437.568,79.889 Z M454.595,83.778 L477.297,83.778 C483.566,83.778 488.649,89.001 488.649,95.444 C488.649,101.888 483.566,107.111 477.297,107.111 L454.595,107.111 L454.595,114.889 L481.081,114.889 C487.35,114.889 492.432,120.112 492.432,126.556 C492.432,132.999 487.35,138.222 481.081,138.222 L454.595,138.222 C452.505,138.222 450.811,139.963 450.811,142.111 C450.811,144.259 452.505,146 454.595,146 L481.081,146 C491.53,146 500,137.294 500,126.556 C500,115.817 491.53,107.111 481.081,107.111 L454.595,107.111 C449.55,107.111 449.55,114.889 454.595,114.889 L477.297,114.889 C487.746,114.889 496.216,106.183 496.216,95.444 C496.216,84.706 487.746,76 477.297,76 L454.595,76 C452.505,76 450.811,77.741 450.811,79.889 C450.811,82.037 452.505,83.778 454.595,83.778 Z M450.811,79.889 L450.811,142.111 C450.811,144.259 452.505,146 454.595,146 C456.684,146 458.378,144.259 458.378,142.111 L458.378,79.889 C458.378,77.741 456.684,76 454.595,76 C452.505,76 450.811,77.741 450.811,79.889 Z M454.595,76 L433.784,76 C431.694,76 430,77.741 430,79.889 C430,82.037 431.694,83.778 433.784,83.778 L454.595,83.778 C456.684,83.778 458.378,82.037 458.378,79.889 C458.378,77.741 456.684,76 454.595,76 Z M454.595,138.222 L433.784,138.222 C431.694,138.222 430,139.963 430,142.111 C430,144.259 431.694,146 433.784,146 L454.595,146 C456.684,146 458.378,144.259 458.378,142.111 C458.378,139.963 456.684,138.222 454.595,138.222 Z" />
        </g>
        <g id="Black-M" transform="translate(0,200)">
            <path d="M637.568,79.889 L637.568,142.111 C637.568,144.259 639.262,146 641.351,146 C643.441,146 645.135,144.259 645.135,142.111 L645.135,79.889 C645.135,77.741 643.441,76 641.351,76 C639.262,76 637.568,77.741 637.568,79.889 Z M654.595,83.778 L677.297,83.778 C683.566,83.778 688.649,89.001 688.649,95.444 C688.649,101.888 683.566,107.111 677.297,107.111 L654.595,107.111 L654.595,114.889 L681.081,114.889 C687.35,114.889 692.432,120.112 692.432,126.556 C692.432,132.999 687.35,138.222 681.081,138.222 L654.595,138.222 C652.505,138.222 650.811,139.963 650.811,142.111 C650.811,144.259 652.505,146 654.595,146 L681.081,146 C691.53,146 700,137.294 700,126.556 C700,115.817 691.53,107.111 681.081,107.111 L654.595,107.111 C649.55,107.111 649.55,114.889 654.595,114.889 L677.297,114.889 C687.746,114.889 696.216,106.183 696.216,95.444 C696.216,84.706 687.746,76 677.297,76 L654.595,76 C652.505,76 650.811,77.741 650.811,79.889 C650.811,82.037 652.505,83.778 654.595,83.778 Z M650.811,79.889 L650.811,142.111 C650.811,144.259 652.505,146 654.595,146 C656.684,146 658.378,144.259 658.378,142.111 L658.378,79.889 C658.378,77.741 656.684,76 654.595,76 C652.505,76 650.811,77.741 650.811,79.889 Z M654.595,76 L633.784,76 C631.694,76 630,77.741 630,79.889 C630,82.037 631.694,83.778 633.784,83.778 L654.595,83.778 C656.684,83.778 658.378,82.037 658.378,79.889 C658.378,77.741 656.684,76 654.595,76 Z M654.595,138.222 L633.784,138.222 C631.694,138.222 630,139.963 630,142.111 C630,144.259 631.694,146 633.784,146 L654.595,146 C656.684,146 658.378,144.259 658.378,142.111 C658.378,139.963 656.684,138.222 654.595,138.222 Z" />
        </g>
    </g>
</svg>