<?xml version="1.0" encoding="UTF-8"?>
<svg height="600" width="800" xmlns="http://www.w3.org/2000/svg" xmlns:xlink="http://www.w3.org/1999/xlink">
    <g id="Notes" font-family="LucidaGrande, 'Lucida Grande', sans-serif" font-size="13">
        <rect fill="white" height="600.0" width="800.0" x="0.0" y="0.0" />
        <g font-size="13">
            <text x="18.0" y="176.0">Small</text>
            <text x="18.0" y="376.0">Medium</text>
            <text x="18.0" y="576.0">Large</text>
        </g>
        <g font-size="9">
            <text x="250.0" y="30.0">Ultralight</text>
            <text x="450.0" y="30.0">Regular</text>
            <text x="650.0" y="30.0">Black</text>
            <text id="template-version" fill="#505050" text-anchor="end" x="785.0" y="575.0">Template v.3.0</text>
            <a href="https://github.com/swhitty/SwiftDraw">
                <text fill="#505050" text-anchor="end" x="785.0" y="590.0">https://github.com/swhitty/SwiftDraw</text>
            </a>
        </g>
    </g>
    <g id="Guides" stroke="rgb(39, 170, 225)" stroke-width="0.5">
        <path id="Capline-S" d="M18,76 l800,0" />
        <path id="H-reference" d="M85,145.755 L87.685,145.755 L113.369,79.287 L114.052,79.287 L114.052,76 L112.148,76 L85,145.755 Z M95.693,121.536 L130.996,121.536 L130.263,119.313 L96.474,119.313 L95.693,121.536 Z M139.15,145.755 L141.787,145.755 L114.638,76 L113.466,76 L113.466,79.287 L139.15,145.755 Z" stroke="none" transform="translate(0,200)" />
        <path id="Baseline-S" d="M18,146 l800,0" />
        <path id="left-margin-Ultralight-M" d="M221,256 l0,110" />
        <path id="right-margin-Ultralight-M" d="M309,256 l0,110" />
        <path id="left-margin-Regular-M" d="M421,256 l0,110" />
        <path id="right-margin-Regular-M" d="M509,256 l0,110" />
        <path id="left-margin-Black-M" d="M621,256 l0,110" />
        <path id="right-margin-Black-M" d="M709,256 l0,110" />
        <path id="Capline-M" d="M18,276 l800,0" />
        <path id="Baseline-M" d="M18,346 l800,0" />
        <path id="Capline-L" d="M18,476 l800,0" />
        <path id="Baseline-L" d="M18,546 l800,0" />
    </g>
    <g id="Symbols">
        <g id="Ultralight-M" transform="translate(0,200)">
            <path d="M269.453,129.932 L260.544,129.932 C259.314,129.932 258.317,130.929 258.317,132.159 C258.317,133.389 259.314,134.387 260.544,134.387 L269.453,134.387 C270.683,134.387 271.681,133.389 271.681,132.159 C271.681,130.929 270.683,129.932 269.453,129.932 Z M280.59,103.204 C280.59,94.594 273.609,87.613 264.999,87.613 C256.388,87.613 249.408,94.594 249.408,103.204 C249.408,108.915 248.168,113.363 246.068,116.74 C243.013,121.645 243.225,121.277 243.314,122.403 C243.401,123.455 243.813,124.197 244.655,124.82 C245.555,125.49 245.232,125.477 250.274,125.477 L279.721,125.477 C284.774,125.477 284.438,125.491 285.341,124.82 C286.187,124.187 286.599,123.446 286.679,122.399 C286.774,121.283 287.021,121.712 283.926,116.739 C281.829,113.362 280.59,108.914 280.59,103.204 Z M276.135,103.204 C276.135,109.735 277.601,114.998 280.143,119.091 C281.249,120.867 281.616,121.466 281.943,122.032 C282.118,122.337 282.235,122.556 282.295,122.688 C282.243,122.574 282.205,122.446 282.239,122.04 C282.256,121.817 282.496,121.385 282.679,121.249 C282.988,121.019 283.139,120.974 283.268,120.955 C283.159,120.971 282.958,120.986 282.67,120.997 C282.114,121.019 281.516,121.023 279.721,121.023 L250.274,121.023 C248.48,121.023 247.882,121.019 247.326,120.997 C247.038,120.986 246.837,120.97 246.729,120.954 C246.857,120.973 247.008,121.019 247.31,121.243 C247.496,121.381 247.735,121.811 247.754,122.045 C247.786,122.454 247.749,122.579 247.699,122.689 C247.759,122.557 247.877,122.336 248.052,122.032 C248.38,121.462 248.764,120.837 249.85,119.093 C252.395,115.001 253.862,109.737 253.862,103.204 C253.862,97.054 258.848,92.068 264.999,92.068 C271.149,92.068 276.135,97.054 276.135,103.204 Z" />
        </g>
        <g id="Regular-M" transform="translate(0,200)">
            <path d="M469.453,129.932 L460.544,129.932 C459.314,129.932 458.317,130.929 458.317,132.159 C458.317,133.389 459.314,134.387 460.544,134.387 L469.453,134.387 C470.683,134.387 471.681,133.389 471.681,132.159 C471.681,130.929 470.683,129.932 469.453,129.932 Z M480.59,103.204 C480.59,94.594 473.609,87.613 464.999,87.613 C456.388,87.613 449.408,94.594 449.408,103.204 C449.408,108.915 448.168,113.363 446.069,116.74 C443.013,121.645 443.225,121.277 443.314,122.403 C443.401,123.455 443.813,124.197 444.655,124.82 C445.555,125.49 445.232,125.477 450.274,125.477 L479.721,125.477 C484.774,125.477 484.438,125.491 485.341,124.82 C486.187,124.187 486.599,123.446 486.679,122.399 C486.774,121.283 487.021,121.712 483.926,116.739 C481.829,113.362 480.59,108.914 480.59,103.204 Z M476.135,103.204 C476.135,109.735 477.601,114.998 480.143,119.091 C481.249,120.867 481.616,121.466 481.943,122.032 C482.118,122.337 482.235,122.556 482.295,122.688 C482.243,122.574 482.205,122.446 482.239,122.04 C482.256,121.817 482.496,121.385 482.679,121.249 C482.988,121.019 483.139,120.974 483.268,120.955 C483.159,120.971 482.958,120.986 482.67,120.997 C482.114,121.019 481.516,121.023 479.721,121.023 L450.274,121.023 C448.48,121.023 447.882,121.019 447.326,120.997 C447.038,120.986 446.837,120.97 446.729,120.954 C446.857,120.973 447.009,121.019 447.31,121.243 C447.496,121.381 447.735,121.811 447.754,122.045 C447.786,122.454 447.749,122.579 447.699,122.689 C447.759,122.557 447.877,122.336 448.052,122.032 C448.38,121.462 448.764,120.837 449.85,119.093 C452.395,115.001 453.862,109.737 453.862,103.204 C453.862,97.054 458.848,92.068 464.999,92.068 C471.149,92.068 476.135,97.054 476.135,103.204 Z" />
        </g>
        <g id="Black-M" transform="translate(0,200)">
            <path d="M669.453,129.932 L660.544,129.932 C659.314,129.932 658.317,130.929 658.317,132.159 C658.317,133.389 659.314,134.387 660.544,134.387 L669.453,134.387 C670.683,134.387 671.681,133.389 671.681,132.159 C671.681,130.929 670.683,129.932 669.453,129.932 Z M680.59,103.204 C680.59,94.594 673.609,87.613 664.999,87.613 C656.388,87.613 649.408,94.594 649.408,103.204 C649.408,108.915 648.168,113.363 646.068,116.74 C643.013,121.645 643.225,121.277 643.314,122.403 C643.401,123.455 643.813,124.197 644.655,124.82 C645.555,125.49 645.232,125.477 650.274,125.477 L679.721,125.477 C684.774,125.477 684.438,125.491 685.341,124.82 C686.187,124.187 686.599,123.446 686.679,122.399 C686.774,121.283 687.021,121.712 683.926,116.739 C681.829,113.362 680.59,108.914 680.59,103.204 Z M676.135,103.204 C676.135,109.735 677.601,114.998 680.143,119.091 C681.249,120.867 681.616,121.466 681.943,122.032 C682.118,122.337 682.235,122.556 682.295,122.688 C682.243,122.574 682.205,122.446 682.239,122.04 C682.256,121.817 682.496,121.385 682.679,121.249 C682.988,121.019 683.139,120.974 683.268,120.955 C683.159,120.971 682.958,120.986 682.67,120.997 C682.114,121.019 681.516,121.023 679.721,121.023 L650.274,121.023 C648.48,121.023 647.882,121.019 647.326,120.997 C647.038,120.986 646.837,120.97 646.729,120.954 C646.857,120.973 647.008,121.019 647.31,121.243 C647.496,121.381 647.735,121.811 647.754,122.045 C647.786,122.454 647.749,122.579 647.699,122.689 C647.759,122.557 647.877,122.336 648.052,122.032 C648.38,121.462 648.764,120.837 649.85,119.093 C652.395,115.001 653.862,109.737 653.862,103.204 C653.862,97.054 658.848,92.068 664.999,92.068 C671.149,92.068 676.135,97.054 676.135,103.204 Z" />
        </g>
    </g>
</svg>