<?xml version="1.0" encoding="UTF-8"?>
<svg height="600" width="800" xmlns="http://www.w3.org/2000/svg" xmlns:xlink="http://www.w3.org/1999/xlink">
    <g id="Notes" font-family="LucidaGrande, 'Lucida Grande', sans-serif" font-size="13">
        <rect fill="white" height="600.0" width="800.0" x="0.0" y="0.0" />
        <g font-size="13">
            <text x="18.0" y="176.0">Small</text>
            <text x="18.0" y="376.0">Medium</text>
            <text x="18.0" y="576.0">Large</text>
        </g>
        <g font-size="9">
            <text x="250.0" y="30.0">Ultralight</text>
            <text x="450.0" y="30.0">Regular</text>
            <text x="650.0" y="30.0">Black</text>
            <text id="template-version" fill="#505050" text-anchor="end" x="785.0" y="575.0">Template v.3.0</text>
            <a href="https://github.com/swhitty/SwiftDraw">
                <text fill="#505050" text-anchor="end" x="785.0" y="590.0">https://github.com/swhitty/SwiftDraw</text>
            </a>
        </g>
    </g>
    <g id="Guides" stroke="rgb(39, 170, 225)" stroke-width="0.5">
        <path id="Capline-S" d="M18,76 l800,0" />
        <path id="H-reference" d="M85,145.755 L87.685,145.755 L113.369,79.287 L114.052,79.287 L114.052,76 L112.148,76 L85,145.755 Z M95.693,121.536 L130.996,121.536 L130.263,119.313 L96.474,119.313 L95.693,121.536 Z M139.15,145.755 L141.787,145.755 L114.638,76 L113.466,76 L113.466,79.287 L139.15,145.755 Z" stroke="none" transform="translate(0,200)" />
        <path id="Baseline-S" d="M18,146 l800,0" />
        <path id="left-margin-Ultralight-M" d="M230,256 l0,110" />
        <path id="right-margin-Ultralight-M" d="M300,256 l0,110" />
        <path id="left-margin-Regular-M" d="M430,256 l0,110" />
        <path id="right-margin-Regular-M" d="M500,256 l0,110" />
        <path id="left-margin-Black-M" d="M630,256 l0,110" />
        <path id="right-margin-Black-M" d="M700,256 l0,110" />
        <path id="Capline-M" d="M18,276 l800,0" />
        <path id="Baseline-M" d="M18,346 l800,0" />
        <path id="Capline-L" d="M18,476 l800,0" />
        <path id="Baseline-L" d="M18,546 l800,0" />
    </g>
    <g id="Symbols">
        <g id="Ultralight-M" transform="translate(0,200)">
            <path d="M298.975,140.025 L283.75,124.8 C282.383,123.433 280.167,123.433 278.8,124.8 C277.433,126.167 277.433,128.383 278.8,129.75 L294.025,144.975 C295.392,146.342 297.608,146.342 298.975,144.975 C300.342,143.608 300.342,141.392 298.975,140.025 Z M258,97 L258,118 C258,119.933 259.567,121.5 261.5,121.5 C263.433,121.5 265,119.933 265,118 L265,97 C265,95.067 263.433,93.5 261.5,93.5 C259.567,93.5 258,95.067 258,97 Z M251,111 L272,111 C273.933,111 275.5,109.433 275.5,107.5 C275.5,105.567 273.933,104 272,104 L251,104 C249.067,104 247.5,105.567 247.5,107.5 C247.5,109.433 249.067,111 251,111 Z M286,107.5 C286,121.031 275.031,132 261.5,132 C247.969,132 237,121.031 237,107.5 C237,93.969 247.969,83 261.5,83 C275.031,83 286,93.969 286,107.5 Z M293,107.5 C293,90.103 278.897,76 261.5,76 C244.103,76 230,90.103 230,107.5 C230,124.897 244.103,139 261.5,139 C278.897,139 293,124.897 293,107.5 Z" />
        </g>
        <g id="Regular-M" transform="translate(0,200)">
            <path d="M498.975,140.025 L483.75,124.8 C482.383,123.433 480.167,123.433 478.8,124.8 C477.433,126.167 477.433,128.383 478.8,129.75 L494.025,144.975 C495.392,146.342 497.608,146.342 498.975,144.975 C500.342,143.608 500.342,141.392 498.975,140.025 Z M458,97 L458,118 C458,119.933 459.567,121.5 461.5,121.5 C463.433,121.5 465,119.933 465,118 L465,97 C465,95.067 463.433,93.5 461.5,93.5 C459.567,93.5 458,95.067 458,97 Z M451,111 L472,111 C473.933,111 475.5,109.433 475.5,107.5 C475.5,105.567 473.933,104 472,104 L451,104 C449.067,104 447.5,105.567 447.5,107.5 C447.5,109.433 449.067,111 451,111 Z M486,107.5 C486,121.031 475.031,132 461.5,132 C447.969,132 437,121.031 437,107.5 C437,93.969 447.969,83 461.5,83 C475.031,83 486,93.969 486,107.5 Z M493,107.5 C493,90.103 478.897,76 461.5,76 C444.103,76 430,90.103 430,107.5 C430,124.897 444.103,139 461.5,139 C478.897,139 493,124.897 493,107.5 Z" />
        </g>
        <g id="Black-M" transform="translate(0,200)">
            <path d="M698.975,140.025 L683.75,124.8 C682.383,123.433 680.167,123.433 678.8,124.8 C677.433,126.167 677.433,128.383 678.8,129.75 L694.025,144.975 C695.392,146.342 697.608,146.342 698.975,144.975 C700.342,143.608 700.342,141.392 698.975,140.025 Z M658,97 L658,118 C658,119.933 659.567,121.5 661.5,121.5 C663.433,121.5 665,119.933 665,118 L665,97 C665,95.067 663.433,93.5 661.5,93.5 C659.567,93.5 658,95.067 658,97 Z M651,111 L672,111 C673.933,111 675.5,109.433 675.5,107.5 C675.5,105.567 673.933,104 672,104 L651,104 C649.067,104 647.5,105.567 647.5,107.5 C647.5,109.433 649.067,111 651,111 Z M686,107.5 C686,121.031 675.031,132 661.5,132 C647.969,132 637,121.031 637,107.5 C637,93.969 647.969,83 661.5,83 C675.031,83 686,93.969 686,107.5 Z M693,107.5 C693,90.103 678.897,76 661.5,76 C644.103,76 630,90.103 630,107.5 C630,124.897 644.103,139 661.5,139 C678.897,139 693,124.897 693,107.5 Z" />
        </g>
    </g>
</svg>