<?xml version="1.0" encoding="UTF-8"?>
<svg height="600" width="800" xmlns="http://www.w3.org/2000/svg" xmlns:xlink="http://www.w3.org/1999/xlink">
    <g id="Notes" font-family="LucidaGrande, 'Lucida Grande', sans-serif" font-size="13">
        <rect fill="white" height="600.0" width="800.0" x="0.0" y="0.0" />
        <g font-size="13">
            <text x="18.0" y="176.0">Small</text>
            <text x="18.0" y="376.0">Medium</text>
            <text x="18.0" y="576.0">Large</text>
        </g>
        <g font-size="9">
            <text x="250.0" y="30.0">Ultralight</text>
            <text x="450.0" y="30.0">Regular</text>
            <text x="650.0" y="30.0">Black</text>
            <text id="template-version" fill="#505050" text-anchor="end" x="785.0" y="575.0">Template v.3.0</text>
            <a href="https://github.com/swhitty/SwiftDraw">
                <text fill="#505050" text-anchor="end" x="785.0" y="590.0">https://github.com/swhitty/SwiftDraw</text>
            </a>
        </g>
    </g>
    <g id="Guides" stroke="rgb(39, 170, 225)" stroke-width="0.5">
        <path id="Capline-S" d="M18,76 l800,0" />
        <path id="H-reference" d="M85,145.755 L87.685,145.755 L113.369,79.287 L114.052,79.287 L114.052,76 L112.148,76 L85,145.755 Z M95.693,121.536 L130.996,121.536 L130.263,119.313 L96.474,119.313 L95.693,121.536 Z M139.15,145.755 L141.787,145.755 L114.638,76 L113.466,76 L113.466,79.287 L139.15,145.755 Z" stroke="none" transform="translate(0,200)" />
        <path id="Baseline-S" d="M18,146 l800,0" />
        <path id="left-margin-Ultralight-M" d="M230,256 l0,110" />
        <path id="right-margin-Ultralight-M" d="M300,256 l0,110" />
        <path id="left-margin-Regular-M" d="M430,256 l0,110" />
        <path id="right-margin-Regular-M" d="M500,256 l0,110" />
        <path id="left-margin-Black-M" d="M630,256 l0,110" />
        <path id="right-margin-Black-M" d="M700,256 l0,110" />
        <path id="Capline-M" d="M18,276 l800,0" />
        <path id="Baseline-M" d="M18,346 l800,0" />
        <path id="Capline-L" d="M18,476 l800,0" />
        <path id="Baseline-L" d="M18,546 l800,0" />
    </g>
    <g id="Symbols">
        <g id="Ultralight-M" transform="translate(0,200)">
            <path d="M265,77.458 L254.792,77.458 C247.543,77.458 241.667,83.335 241.667,90.583 C241.667,97.832 247.543,103.708 254.792,103.708 C256.402,103.708 257.708,102.402 257.708,100.792 C257.708,99.181 256.402,97.875 254.792,97.875 C250.765,97.875 247.5,94.61 247.5,90.583 C247.5,86.556 250.765,83.292 254.792,83.292 L265,83.292 C266.611,83.292 267.917,81.986 267.917,80.375 C267.917,78.764 266.611,77.458 265,77.458 Z M262.083,80.375 L262.083,100.792 C262.083,102.402 263.389,103.708 265,103.708 C266.611,103.708 267.917,102.402 267.917,100.792 L267.917,80.375 C267.917,78.764 266.611,77.458 265,77.458 C263.389,77.458 262.083,78.764 262.083,80.375 Z M265,83.292 L275.208,83.292 C279.235,83.292 282.5,86.556 282.5,90.583 C282.5,94.61 279.235,97.875 275.208,97.875 C273.598,97.875 272.292,99.181 272.292,100.792 C272.292,102.402 273.598,103.708 275.208,103.708 C282.457,103.708 288.333,97.832 288.333,90.583 C288.333,83.335 282.457,77.458 275.208,77.458 L265,77.458 C263.389,77.458 262.083,78.764 262.083,80.375 C262.083,81.986 263.389,83.292 265,83.292 Z M265,97.875 L254.792,97.875 C253.181,97.875 251.875,99.181 251.875,100.792 C251.875,102.402 253.181,103.708 254.792,103.708 L265,103.708 C266.611,103.708 267.917,102.402 267.917,100.792 C267.917,99.181 266.611,97.875 265,97.875 Z M262.083,100.792 L262.083,121.208 C262.083,122.819 263.389,124.125 265,124.125 C266.611,124.125 267.917,122.819 267.917,121.208 L267.917,100.792 C267.917,99.181 266.611,97.875 265,97.875 C263.389,97.875 262.083,99.181 262.083,100.792 Z M265,103.708 L275.208,103.708 C276.819,103.708 278.125,102.402 278.125,100.792 C278.125,99.181 276.819,97.875 275.208,97.875 L265,97.875 C263.389,97.875 262.083,99.181 262.083,100.792 C262.083,102.402 263.389,103.708 265,103.708 Z M254.792,97.875 C247.543,97.875 241.667,103.751 241.667,111 C241.667,118.249 247.543,124.125 254.792,124.125 C256.402,124.125 257.708,122.819 257.708,121.208 C257.708,119.598 256.402,118.292 254.792,118.292 C250.765,118.292 247.5,115.027 247.5,111 C247.5,106.973 250.765,103.708 254.792,103.708 C256.402,103.708 257.708,102.402 257.708,100.792 C257.708,99.181 256.402,97.875 254.792,97.875 Z M265,118.292 L254.792,118.292 C253.181,118.292 251.875,119.598 251.875,121.208 C251.875,122.819 253.181,124.125 254.792,124.125 L265,124.125 C266.611,124.125 267.917,122.819 267.917,121.208 C267.917,119.598 266.611,118.292 265,118.292 Z M262.083,121.208 L262.083,131.417 C262.083,135.444 258.819,138.708 254.792,138.708 C250.765,138.708 247.5,135.444 247.5,131.417 C247.5,127.39 250.765,124.125 254.792,124.125 C256.402,124.125 257.708,122.819 257.708,121.208 C257.708,119.598 256.402,118.292 254.792,118.292 C247.543,118.292 241.667,124.168 241.667,131.417 C241.667,138.665 247.543,144.542 254.792,144.542 C262.04,144.542 267.917,138.665 267.917,131.417 L267.917,121.208 C267.917,119.598 266.611,118.292 265,118.292 C263.389,118.292 262.083,119.598 262.083,121.208 Z M275.208,103.708 C279.235,103.708 282.5,106.973 282.5,111 C282.5,115.027 279.235,118.292 275.208,118.292 C271.181,118.292 267.917,115.027 267.917,111 C267.917,106.973 271.181,103.708 275.208,103.708 Z M275.208,97.875 C267.96,97.875 262.083,103.751 262.083,111 C262.083,118.249 267.96,124.125 275.208,124.125 C282.457,124.125 288.333,118.249 288.333,111 C288.333,103.751 282.457,97.875 275.208,97.875 Z" />
        </g>
        <g id="Regular-M" transform="translate(0,200)">
            <path d="M465,77.458 L454.792,77.458 C447.543,77.458 441.667,83.335 441.667,90.583 C441.667,97.832 447.543,103.708 454.792,103.708 C456.402,103.708 457.708,102.402 457.708,100.792 C457.708,99.181 456.402,97.875 454.792,97.875 C450.765,97.875 447.5,94.61 447.5,90.583 C447.5,86.556 450.765,83.292 454.792,83.292 L465,83.292 C466.611,83.292 467.917,81.986 467.917,80.375 C467.917,78.764 466.611,77.458 465,77.458 Z M462.083,80.375 L462.083,100.792 C462.083,102.402 463.389,103.708 465,103.708 C466.611,103.708 467.917,102.402 467.917,100.792 L467.917,80.375 C467.917,78.764 466.611,77.458 465,77.458 C463.389,77.458 462.083,78.764 462.083,80.375 Z M465,83.292 L475.208,83.292 C479.235,83.292 482.5,86.556 482.5,90.583 C482.5,94.61 479.235,97.875 475.208,97.875 C473.598,97.875 472.292,99.181 472.292,100.792 C472.292,102.402 473.598,103.708 475.208,103.708 C482.457,103.708 488.333,97.832 488.333,90.583 C488.333,83.335 482.457,77.458 475.208,77.458 L465,77.458 C463.389,77.458 462.083,78.764 462.083,80.375 C462.083,81.986 463.389,83.292 465,83.292 Z M465,97.875 L454.792,97.875 C453.181,97.875 451.875,99.181 451.875,100.792 C451.875,102.402 453.181,103.708 454.792,103.708 L465,103.708 C466.611,103.708 467.917,102.402 467.917,100.792 C467.917,99.181 466.611,97.875 465,97.875 Z M462.083,100.792 L462.083,121.208 C462.083,122.819 463.389,124.125 465,124.125 C466.611,124.125 467.917,122.819 467.917,121.208 L467.917,100.792 C467.917,99.181 466.611,97.875 465,97.875 C463.389,97.875 462.083,99.181 462.083,100.792 Z M465,103.708 L475.208,103.708 C476.819,103.708 478.125,102.402 478.125,100.792 C478.125,99.181 476.819,97.875 475.208,97.875 L465,97.875 C463.389,97.875 462.083,99.181 462.083,100.792 C462.083,102.402 463.389,103.708 465,103.708 Z M454.792,97.875 C447.543,97.875 441.667,103.751 441.667,111 C441.667,118.249 447.543,124.125 454.792,124.125 C456.402,124.125 457.708,122.819 457.708,121.208 C457.708,119.598 456.402,118.292 454.792,118.292 C450.765,118.292 447.5,115.027 447.5,111 C447.5,106.973 450.765,103.708 454.792,103.708 C456.402,103.708 457.708,102.402 457.708,100.792 C457.708,99.181 456.402,97.875 454.792,97.875 Z M465,118.292 L454.792,118.292 C453.181,118.292 451.875,119.598 451.875,121.208 C451.875,122.819 453.181,124.125 454.792,124.125 L465,124.125 C466.611,124.125 467.917,122.819 467.917,121.208 C467.917,119.598 466.611,118.292 465,118.292 Z M462.083,121.208 L462.083,131.417 C462.083,135.444 458.819,138.708 454.792,138.708 C450.765,138.708 447.5,135.444 447.5,131.417 C447.5,127.39 450.765,124.125 454.792,124.125 C456.402,124.125 457.708,122.819 457.708,121.208 C457.708,119.598 456.402,118.292 454.792,118.292 C447.543,118.292 441.667,124.168 441.667,131.417 C441.667,138.665 447.543,144.542 454.792,144.542 C462.04,144.542 467.917,138.665 467.917,131.417 L467.917,121.208 C467.917,119.598 466.611,118.292 465,118.292 C463.389,118.292 462.083,119.598 462.083,121.208 Z M475.208,103.708 C479.235,103.708 482.5,106.973 482.5,111 C482.5,115.027 479.235,118.292 475.208,118.292 C471.181,118.292 467.917,115.027 467.917,111 C467.917,106.973 471.181,103.708 475.208,103.708 Z M475.208,97.875 C467.96,97.875 462.083,103.751 462.083,111 C462.083,118.249 467.96,124.125 475.208,124.125 C482.457,124.125 488.333,118.249 488.333,111 C488.333,103.751 482.457,97.875 475.208,97.875 Z" />
        </g>
        <g id="Black-M" transform="translate(0,200)">
            <path d="M665,77.458 L654.792,77.458 C647.543,77.458 641.667,83.335 641.667,90.583 C641.667,97.832 647.543,103.708 654.792,103.708 C656.403,103.708 657.708,102.402 657.708,100.792 C657.708,99.181 656.403,97.875 654.792,97.875 C650.765,97.875 647.5,94.61 647.5,90.583 C647.5,86.556 650.765,83.292 654.792,83.292 L665,83.292 C666.611,83.292 667.917,81.986 667.917,80.375 C667.917,78.764 666.611,77.458 665,77.458 Z M662.083,80.375 L662.083,100.792 C662.083,102.402 663.389,103.708 665,103.708 C666.611,103.708 667.917,102.402 667.917,100.792 L667.917,80.375 C667.917,78.764 666.611,77.458 665,77.458 C663.389,77.458 662.083,78.764 662.083,80.375 Z M665,83.292 L675.208,83.292 C679.235,83.292 682.5,86.556 682.5,90.583 C682.5,94.61 679.235,97.875 675.208,97.875 C673.598,97.875 672.292,99.181 672.292,100.792 C672.292,102.402 673.598,103.708 675.208,103.708 C682.457,103.708 688.333,97.832 688.333,90.583 C688.333,83.335 682.457,77.458 675.208,77.458 L665,77.458 C663.389,77.458 662.083,78.764 662.083,80.375 C662.083,81.986 663.389,83.292 665,83.292 Z M665,97.875 L654.792,97.875 C653.181,97.875 651.875,99.181 651.875,100.792 C651.875,102.402 653.181,103.708 654.792,103.708 L665,103.708 C666.611,103.708 667.917,102.402 667.917,100.792 C667.917,99.181 666.611,97.875 665,97.875 Z M662.083,100.792 L662.083,121.208 C662.083,122.819 663.389,124.125 665,124.125 C666.611,124.125 667.917,122.819 667.917,121.208 L667.917,100.792 C667.917,99.181 666.611,97.875 665,97.875 C663.389,97.875 662.083,99.181 662.083,100.792 Z M665,103.708 L675.208,103.708 C676.819,103.708 678.125,102.402 678.125,100.792 C678.125,99.181 676.819,97.875 675.208,97.875 L665,97.875 C663.389,97.875 662.083,99.181 662.083,100.792 C662.083,102.402 663.389,103.708 665,103.708 Z M654.792,97.875 C647.543,97.875 641.667,103.751 641.667,111 C641.667,118.249 647.543,124.125 654.792,124.125 C656.403,124.125 657.708,122.819 657.708,121.208 C657.708,119.598 656.403,118.292 654.792,118.292 C650.765,118.292 647.5,115.027 647.5,111 C647.5,106.973 650.765,103.708 654.792,103.708 C656.403,103.708 657.708,102.402 657.708,100.792 C657.708,99.181 656.403,97.875 654.792,97.875 Z M665,118.292 L654.792,118.292 C653.181,118.292 651.875,119.598 651.875,121.208 C651.875,122.819 653.181,124.125 654.792,124.125 L665,124.125 C666.611,124.125 667.917,122.819 667.917,121.208 C667.917,119.598 666.611,118.292 665,118.292 Z M662.083,121.208 L662.083,131.417 C662.083,135.444 658.819,138.708 654.792,138.708 C650.765,138.708 647.5,135.444 647.5,131.417 C647.5,127.39 650.765,124.125 654.792,124.125 C656.402,124.125 657.708,122.819 657.708,121.208 C657.708,119.598 656.402,118.292 654.792,118.292 C647.543,118.292 641.667,124.168 641.667,131.417 C641.667,138.665 647.543,144.542 654.792,144.542 C662.04,144.542 667.917,138.665 667.917,131.417 L667.917,121.208 C667.917,119.598 666.611,118.292 665,118.292 C663.389,118.292 662.083,119.598 662.083,121.208 Z M675.208,103.708 C679.235,103.708 682.5,106.973 682.5,111 C682.5,115.027 679.235,118.292 675.208,118.292 C671.181,118.292 667.917,115.027 667.917,111 C667.917,106.973 671.181,103.708 675.208,103.708 Z M675.208,97.875 C667.96,97.875 662.083,103.751 662.083,111 C662.083,118.249 667.96,124.125 675.208,124.125 C682.457,124.125 688.333,118.249 688.333,111 C688.333,103.751 682.457,97.875 675.208,97.875 Z" />
        </g>
    </g>
</svg>