<?xml version="1.0" encoding="UTF-8"?>
<svg height="600" width="800" xmlns="http://www.w3.org/2000/svg" xmlns:xlink="http://www.w3.org/1999/xlink">
    <g id="Notes" font-family="LucidaGrande, 'Lucida Grande', sans-serif" font-size="13">
        <rect fill="white" height="600.0" width="800.0" x="0.0" y="0.0" />
        <g font-size="13">
            <text x="18.0" y="176.0">Small</text>
            <text x="18.0" y="376.0">Medium</text>
            <text x="18.0" y="576.0">Large</text>
        </g>
        <g font-size="9">
            <text x="250.0" y="30.0">Ultralight</text>
            <text x="450.0" y="30.0">Regular</text>
            <text x="650.0" y="30.0">Black</text>
            <text id="template-version" fill="#505050" text-anchor="end" x="785.0" y="575.0">Template v.3.0</text>
            <a href="https://github.com/swhitty/SwiftDraw">
                <text fill="#505050" text-anchor="end" x="785.0" y="590.0">https://github.com/swhitty/SwiftDraw</text>
            </a>
        </g>
    </g>
    <g id="Guides" stroke="rgb(39, 170, 225)" stroke-width="0.5">
        <path id="Capline-S" d="M18,76 l800,0" />
        <path id="H-reference" d="M85,145.755 L87.685,145.755 L113.369,79.287 L114.052,79.287 L114.052,76 L112.148,76 L85,145.755 Z M95.693,121.536 L130.996,121.536 L130.263,119.313 L96.474,119.313 L95.693,121.536 Z M139.15,145.755 L141.787,145.755 L114.638,76 L113.466,76 L113.466,79.287 L139.15,145.755 Z" stroke="none" transform="translate(0,200)" />
        <path id="Baseline-S" d="M18,146 l800,0" />
        <path id="left-margin-Ultralight-M" d="M221,256 l0,110" />
        <path id="right-margin-Ultralight-M" d="M309,256 l0,110" />
        <path id="left-margin-Regular-M" d="M421,256 l0,110" />
        <path id="right-margin-Regular-M" d="M509,256 l0,110" />
        <path id="left-margin-Black-M" d="M621,256 l0,110" />
        <path id="right-margin-Black-M" d="M709,256 l0,110" />
        <path id="Capline-M" d="M18,276 l800,0" />
        <path id="Baseline-M" d="M18,346 l800,0" />
        <path id="Capline-L" d="M18,476 l800,0" />
        <path id="Baseline-L" d="M18,546 l800,0" />
    </g>
    <g id="Symbols">
        <g id="Ultralight-M" transform="translate(0,200)">
            <path d="M265,82.889 L256.444,82.889 C250.369,82.889 245.444,87.814 245.444,93.889 C245.444,99.964 250.369,104.889 256.444,104.889 C257.794,104.889 258.889,103.794 258.889,102.444 C258.889,101.094 257.794,100 256.444,100 C253.069,100 250.333,97.264 250.333,93.889 C250.333,90.514 253.069,87.778 256.444,87.778 L265,87.778 C266.35,87.778 267.444,86.683 267.444,85.333 C267.444,83.983 266.35,82.889 265,82.889 Z M262.556,85.333 L262.556,102.444 C262.556,103.794 263.65,104.889 265,104.889 C266.35,104.889 267.444,103.794 267.444,102.444 L267.444,85.333 C267.444,83.983 266.35,82.889 265,82.889 C263.65,82.889 262.556,83.983 262.556,85.333 Z M265,87.778 L273.556,87.778 C276.931,87.778 279.667,90.514 279.667,93.889 C279.667,97.264 276.931,100 273.556,100 C272.206,100 271.111,101.094 271.111,102.444 C271.111,103.794 272.206,104.889 273.556,104.889 C279.631,104.889 284.556,99.964 284.556,93.889 C284.556,87.814 279.631,82.889 273.556,82.889 L265,82.889 C263.65,82.889 262.556,83.983 262.556,85.333 C262.556,86.683 263.65,87.778 265,87.778 Z M265,100 L256.444,100 C255.094,100 254,101.094 254,102.444 C254,103.794 255.094,104.889 256.444,104.889 L265,104.889 C266.35,104.889 267.444,103.794 267.444,102.444 C267.444,101.094 266.35,100 265,100 Z M262.556,102.444 L262.556,119.556 C262.556,120.906 263.65,122 265,122 C266.35,122 267.444,120.906 267.444,119.556 L267.444,102.444 C267.444,101.094 266.35,100 265,100 C263.65,100 262.556,101.094 262.556,102.444 Z M265,104.889 L273.556,104.889 C274.906,104.889 276,103.794 276,102.444 C276,101.094 274.906,100 273.556,100 L265,100 C263.65,100 262.556,101.094 262.556,102.444 C262.556,103.794 263.65,104.889 265,104.889 Z M256.444,100 C250.369,100 245.444,104.925 245.444,111 C245.444,117.075 250.369,122 256.444,122 C257.794,122 258.889,120.906 258.889,119.556 C258.889,118.206 257.794,117.111 256.444,117.111 C253.069,117.111 250.333,114.375 250.333,111 C250.333,107.625 253.069,104.889 256.444,104.889 C257.794,104.889 258.889,103.794 258.889,102.444 C258.889,101.094 257.794,100 256.444,100 Z M265,117.111 L256.444,117.111 C255.094,117.111 254,118.206 254,119.556 C254,120.906 255.094,122 256.444,122 L265,122 C266.35,122 267.444,120.906 267.444,119.556 C267.444,118.206 266.35,117.111 265,117.111 Z M262.556,119.556 L262.556,128.111 C262.556,131.486 259.82,134.222 256.444,134.222 C253.069,134.222 250.333,131.486 250.333,128.111 C250.333,124.736 253.069,122 256.444,122 C257.794,122 258.889,120.906 258.889,119.556 C258.889,118.206 257.794,117.111 256.444,117.111 C250.369,117.111 245.444,122.036 245.444,128.111 C245.444,134.186 250.369,139.111 256.444,139.111 C262.52,139.111 267.444,134.186 267.444,128.111 L267.444,119.556 C267.444,118.206 266.35,117.111 265,117.111 C263.65,117.111 262.556,118.206 262.556,119.556 Z M273.556,104.889 C276.931,104.889 279.667,107.625 279.667,111 C279.667,114.375 276.931,117.111 273.556,117.111 C270.18,117.111 267.444,114.375 267.444,111 C267.444,107.625 270.18,104.889 273.556,104.889 Z M273.556,100 C267.48,100 262.556,104.925 262.556,111 C262.556,117.075 267.48,122 273.556,122 C279.631,122 284.556,117.075 284.556,111 C284.556,104.925 279.631,100 273.556,100 Z" />
        </g>
        <g id="Regular-M" transform="translate(0,200)">
            <path d="M465,82.889 L456.444,82.889 C450.369,82.889 445.444,87.814 445.444,93.889 C445.444,99.964 450.369,104.889 456.444,104.889 C457.794,104.889 458.889,103.794 458.889,102.444 C458.889,101.094 457.794,100 456.444,100 C453.069,100 450.333,97.264 450.333,93.889 C450.333,90.514 453.069,87.778 456.444,87.778 L465,87.778 C466.35,87.778 467.444,86.683 467.444,85.333 C467.444,83.983 466.35,82.889 465,82.889 Z M462.556,85.333 L462.556,102.444 C462.556,103.794 463.65,104.889 465,104.889 C466.35,104.889 467.444,103.794 467.444,102.444 L467.444,85.333 C467.444,83.983 466.35,82.889 465,82.889 C463.65,82.889 462.556,83.983 462.556,85.333 Z M465,87.778 L473.556,87.778 C476.931,87.778 479.667,90.514 479.667,93.889 C479.667,97.264 476.931,100 473.556,100 C472.206,100 471.111,101.094 471.111,102.444 C471.111,103.794 472.206,104.889 473.556,104.889 C479.631,104.889 484.556,99.964 484.556,93.889 C484.556,87.814 479.631,82.889 473.556,82.889 L465,82.889 C463.65,82.889 462.556,83.983 462.556,85.333 C462.556,86.683 463.65,87.778 465,87.778 Z M465,100 L456.444,100 C455.094,100 454,101.094 454,102.444 C454,103.794 455.094,104.889 456.444,104.889 L465,104.889 C466.35,104.889 467.444,103.794 467.444,102.444 C467.444,101.094 466.35,100 465,100 Z M462.556,102.444 L462.556,119.556 C462.556,120.906 463.65,122 465,122 C466.35,122 467.444,120.906 467.444,119.556 L467.444,102.444 C467.444,101.094 466.35,100 465,100 C463.65,100 462.556,101.094 462.556,102.444 Z M465,104.889 L473.556,104.889 C474.906,104.889 476,103.794 476,102.444 C476,101.094 474.906,100 473.556,100 L465,100 C463.65,100 462.556,101.094 462.556,102.444 C462.556,103.794 463.65,104.889 465,104.889 Z M456.444,100 C450.369,100 445.444,104.925 445.444,111 C445.444,117.075 450.369,122 456.444,122 C457.794,122 458.889,120.906 458.889,119.556 C458.889,118.206 457.794,117.111 456.444,117.111 C453.069,117.111 450.333,114.375 450.333,111 C450.333,107.625 453.069,104.889 456.444,104.889 C457.794,104.889 458.889,103.794 458.889,102.444 C458.889,101.094 457.794,100 456.444,100 Z M465,117.111 L456.444,117.111 C455.094,117.111 454,118.206 454,119.556 C454,120.906 455.094,122 456.444,122 L465,122 C466.35,122 467.444,120.906 467.444,119.556 C467.444,118.206 466.35,117.111 465,117.111 Z M462.556,119.556 L462.556,128.111 C462.556,131.486 459.82,134.222 456.444,134.222 C453.069,134.222 450.333,131.486 450.333,128.111 C450.333,124.736 453.069,122 456.444,122 C457.794,122 458.889,120.906 458.889,119.556 C458.889,118.206 457.794,117.111 456.444,117.111 C450.369,117.111 445.444,122.036 445.444,128.111 C445.444,134.186 450.369,139.111 456.444,139.111 C462.52,139.111 467.444,134.186 467.444,128.111 L467.444,119.556 C467.444,118.206 466.35,117.111 465,117.111 C463.65,117.111 462.556,118.206 462.556,119.556 Z M473.556,104.889 C476.931,104.889 479.667,107.625 479.667,111 C479.667,114.375 476.931,117.111 473.556,117.111 C470.18,117.111 467.444,114.375 467.444,111 C467.444,107.625 470.18,104.889 473.556,104.889 Z M473.556,100 C467.48,100 462.556,104.925 462.556,111 C462.556,117.075 467.48,122 473.556,122 C479.631,122 484.556,117.075 484.556,111 C484.556,104.925 479.631,100 473.556,100 Z" />
        </g>
        <g id="Black-M" transform="translate(0,200)">
            <path d="M665,82.889 L656.444,82.889 C650.369,82.889 645.444,87.814 645.444,93.889 C645.444,99.964 650.369,104.889 656.444,104.889 C657.794,104.889 658.889,103.794 658.889,102.444 C658.889,101.094 657.794,100 656.444,100 C653.069,100 650.333,97.264 650.333,93.889 C650.333,90.514 653.069,87.778 656.444,87.778 L665,87.778 C666.35,87.778 667.444,86.683 667.444,85.333 C667.444,83.983 666.35,82.889 665,82.889 Z M662.556,85.333 L662.556,102.444 C662.556,103.794 663.65,104.889 665,104.889 C666.35,104.889 667.444,103.794 667.444,102.444 L667.444,85.333 C667.444,83.983 666.35,82.889 665,82.889 C663.65,82.889 662.556,83.983 662.556,85.333 Z M665,87.778 L673.556,87.778 C676.931,87.778 679.667,90.514 679.667,93.889 C679.667,97.264 676.931,100 673.556,100 C672.206,100 671.111,101.094 671.111,102.444 C671.111,103.794 672.206,104.889 673.556,104.889 C679.631,104.889 684.556,99.964 684.556,93.889 C684.556,87.814 679.631,82.889 673.556,82.889 L665,82.889 C663.65,82.889 662.556,83.983 662.556,85.333 C662.556,86.683 663.65,87.778 665,87.778 Z M665,100 L656.444,100 C655.094,100 654,101.094 654,102.444 C654,103.794 655.094,104.889 656.444,104.889 L665,104.889 C666.35,104.889 667.444,103.794 667.444,102.444 C667.444,101.094 666.35,100 665,100 Z M662.556,102.444 L662.556,119.556 C662.556,120.906 663.65,122 665,122 C666.35,122 667.444,120.906 667.444,119.556 L667.444,102.444 C667.444,101.094 666.35,100 665,100 C663.65,100 662.556,101.094 662.556,102.444 Z M665,104.889 L673.556,104.889 C674.906,104.889 676,103.794 676,102.444 C676,101.094 674.906,100 673.556,100 L665,100 C663.65,100 662.556,101.094 662.556,102.444 C662.556,103.794 663.65,104.889 665,104.889 Z M656.444,100 C650.369,100 645.444,104.925 645.444,111 C645.444,117.075 650.369,122 656.444,122 C657.794,122 658.889,120.906 658.889,119.556 C658.889,118.206 657.794,117.111 656.444,117.111 C653.069,117.111 650.333,114.375 650.333,111 C650.333,107.625 653.069,104.889 656.444,104.889 C657.794,104.889 658.889,103.794 658.889,102.444 C658.889,101.094 657.794,100 656.444,100 Z M665,117.111 L656.444,117.111 C655.094,117.111 654,118.206 654,119.556 C654,120.906 655.094,122 656.444,122 L665,122 C666.35,122 667.444,120.906 667.444,119.556 C667.444,118.206 666.35,117.111 665,117.111 Z M662.556,119.556 L662.556,128.111 C662.556,131.486 659.82,134.222 656.444,134.222 C653.069,134.222 650.333,131.486 650.333,128.111 C650.333,124.736 653.069,122 656.444,122 C657.794,122 658.889,120.906 658.889,119.556 C658.889,118.206 657.794,117.111 656.444,117.111 C650.369,117.111 645.444,122.036 645.444,128.111 C645.444,134.186 650.369,139.111 656.444,139.111 C662.52,139.111 667.444,134.186 667.444,128.111 L667.444,119.556 C667.444,118.206 666.35,117.111 665,117.111 C663.65,117.111 662.556,118.206 662.556,119.556 Z M673.556,104.889 C676.931,104.889 679.667,107.625 679.667,111 C679.667,114.375 676.931,117.111 673.556,117.111 C670.18,117.111 667.444,114.375 667.444,111 C667.444,107.625 670.18,104.889 673.556,104.889 Z M673.556,100 C667.48,100 662.556,104.925 662.556,111 C662.556,117.075 667.48,122 673.556,122 C679.631,122 684.556,117.075 684.556,111 C684.556,104.925 679.631,100 673.556,100 Z" />
        </g>
    </g>
</svg>