<?xml version="1.0" encoding="UTF-8"?>
<svg height="600" width="800" xmlns="http://www.w3.org/2000/svg" xmlns:xlink="http://www.w3.org/1999/xlink">
    <g id="Notes" font-family="LucidaGrande, 'Lucida Grande', sans-serif" font-size="13">
        <rect fill="white" height="600.0" width="800.0" x="0.0" y="0.0" />
        <g font-size="13">
            <text x="18.0" y="176.0">Small</text>
            <text x="18.0" y="376.0">Medium</text>
            <text x="18.0" y="576.0">Large</text>
        </g>
        <g font-size="9">
            <text x="250.0" y="30.0">Ultralight</text>
            <text x="450.0" y="30.0">Regular</text>
            <text x="650.0" y="30.0">Black</text>
            <text id="template-version" fill="#505050" text-anchor="end" x="785.0" y="575.0">Template v.3.0</text>
            <a href="https://github.com/swhitty/SwiftDraw">
                <text fill="#505050" text-anchor="end" x="785.0" y="590.0">https://github.com/swhitty/SwiftDraw</text>
            </a>
        </g>
    </g>
    <g id="Guides" stroke="rgb(39, 170, 225)" stroke-width="0.5">
        <path id="Capline-S" d="M18,76 l800,0" />
        <path id="H-reference" d="M85,145.755 L87.685,145.755 L113.369,79.287 L114.052,79.287 L114.052,76 L112.148,76 L85,145.755 Z M95.693,121.536 L130.996,121.536 L130.263,119.313 L96.474,119.313 L95.693,121.536 Z M139.15,145.755 L141.787,145.755 L114.638,76 L113.466,76 L113.466,79.287 L139.15,145.755 Z" stroke="none" transform="translate(0,200)" />
        <path id="Baseline-S" d="M18,146 l800,0" />
        <path id="left-margin-Ultralight-M" d="M230,256 l0,110" />
        <path id="right-margin-Ultralight-M" d="M300,256 l0,110" />
        <path id="left-margin-Regular-M" d="M430,256 l0,110" />
        <path id="right-margin-Regular-M" d="M500,256 l0,110" />
        <path id="left-margin-Black-M" d="M630,256 l0,110" />
        <path id="right-margin-Black-M" d="M700,256 l0,110" />
        <path id="Capline-M" d="M18,276 l800,0" />
        <path id="Baseline-M" d="M18,346 l800,0" />
        <path id="Capline-L" d="M18,476 l800,0" />
        <path id="Baseline-L" d="M18,546 l800,0" />
    </g>
    <g id="Symbols">
        <g id="Ultralight-M" transform="translate(0,200)">
            <path d="M265,76 L249.688,76 C238.814,76 230,82.132 230,89.696 C230,97.26 238.814,103.391 249.688,103.391 C252.104,103.391 254.062,102.029 254.062,100.348 C254.062,98.667 252.104,97.304 249.688,97.304 C243.647,97.304 238.75,93.898 238.75,89.696 C238.75,85.493 243.647,82.087 249.688,82.087 L265,82.087 C267.416,82.087 269.375,80.724 269.375,79.043 C269.375,77.363 267.416,76 265,76 Z M260.625,79.043 L260.625,100.348 C260.625,102.029 262.584,103.391 265,103.391 C267.416,103.391 269.375,102.029 269.375,100.348 L269.375,79.043 C269.375,77.363 267.416,76 265,76 C262.584,76 260.625,77.363 260.625,79.043 Z M265,82.087 L280.312,82.087 C286.353,82.087 291.25,85.493 291.25,89.696 C291.25,93.898 286.353,97.304 280.312,97.304 C277.896,97.304 275.938,98.667 275.938,100.348 C275.938,102.029 277.896,103.391 280.312,103.391 C291.186,103.391 300,97.26 300,89.696 C300,82.132 291.186,76 280.312,76 L265,76 C262.584,76 260.625,77.363 260.625,79.043 C260.625,80.724 262.584,82.087 265,82.087 Z M265,97.304 L249.688,97.304 C247.271,97.304 245.312,98.667 245.312,100.348 C245.312,102.029 247.271,103.391 249.688,103.391 L265,103.391 C267.416,103.391 269.375,102.029 269.375,100.348 C269.375,98.667 267.416,97.304 265,97.304 Z M260.625,100.348 L260.625,121.652 C260.625,123.333 262.584,124.696 265,124.696 C267.416,124.696 269.375,123.333 269.375,121.652 L269.375,100.348 C269.375,98.667 267.416,97.304 265,97.304 C262.584,97.304 260.625,98.667 260.625,100.348 Z M265,103.391 L280.312,103.391 C282.729,103.391 284.688,102.029 284.688,100.348 C284.688,98.667 282.729,97.304 280.312,97.304 L265,97.304 C262.584,97.304 260.625,98.667 260.625,100.348 C260.625,102.029 262.584,103.391 265,103.391 Z M249.688,97.304 C238.814,97.304 230,103.436 230,111 C230,118.564 238.814,124.696 249.688,124.696 C252.104,124.696 254.062,123.333 254.062,121.652 C254.062,119.971 252.104,118.609 249.688,118.609 C243.647,118.609 238.75,115.202 238.75,111 C238.75,106.798 243.647,103.391 249.688,103.391 C252.104,103.391 254.062,102.029 254.062,100.348 C254.062,98.667 252.104,97.304 249.688,97.304 Z M265,118.609 L249.688,118.609 C247.271,118.609 245.312,119.971 245.312,121.652 C245.312,123.333 247.271,124.696 249.688,124.696 L265,124.696 C267.416,124.696 269.375,123.333 269.375,121.652 C269.375,119.971 267.416,118.609 265,118.609 Z M260.625,121.652 L260.625,132.304 C260.625,136.507 255.728,139.913 249.688,139.913 C243.647,139.913 238.75,136.507 238.75,132.304 C238.75,128.102 243.647,124.696 249.688,124.696 C252.104,124.696 254.062,123.333 254.062,121.652 C254.062,119.971 252.104,118.609 249.687,118.609 C238.814,118.609 230,124.74 230,132.304 C230,139.868 238.814,146 249.688,146 C260.561,146 269.375,139.868 269.375,132.304 L269.375,121.652 C269.375,119.971 267.416,118.609 265,118.609 C262.584,118.609 260.625,119.971 260.625,121.652 Z M280.312,103.391 C286.353,103.391 291.25,106.798 291.25,111 C291.25,115.202 286.353,118.609 280.312,118.609 C274.272,118.609 269.375,115.202 269.375,111 C269.375,106.798 274.272,103.391 280.312,103.391 Z M280.312,97.304 C269.439,97.304 260.625,103.436 260.625,111 C260.625,118.564 269.439,124.696 280.312,124.696 C291.186,124.696 300,118.564 300,111 C300,103.436 291.186,97.304 280.312,97.304 Z" />
        </g>
        <g id="Regular-M" transform="translate(0,200)">
            <path d="M465,76 L449.688,76 C438.814,76 430,82.132 430,89.696 C430,97.26 438.814,103.391 449.688,103.391 C452.104,103.391 454.062,102.029 454.062,100.348 C454.062,98.667 452.104,97.304 449.688,97.304 C443.647,97.304 438.75,93.898 438.75,89.696 C438.75,85.493 443.647,82.087 449.688,82.087 L465,82.087 C467.416,82.087 469.375,80.724 469.375,79.043 C469.375,77.363 467.416,76 465,76 Z M460.625,79.043 L460.625,100.348 C460.625,102.029 462.584,103.391 465,103.391 C467.416,103.391 469.375,102.029 469.375,100.348 L469.375,79.043 C469.375,77.363 467.416,76 465,76 C462.584,76 460.625,77.363 460.625,79.043 Z M465,82.087 L480.312,82.087 C486.353,82.087 491.25,85.493 491.25,89.696 C491.25,93.898 486.353,97.304 480.312,97.304 C477.896,97.304 475.938,98.667 475.938,100.348 C475.938,102.029 477.896,103.391 480.312,103.391 C491.186,103.391 500,97.26 500,89.696 C500,82.132 491.186,76 480.312,76 L465,76 C462.584,76 460.625,77.363 460.625,79.043 C460.625,80.724 462.584,82.087 465,82.087 Z M465,97.304 L449.688,97.304 C447.271,97.304 445.312,98.667 445.312,100.348 C445.312,102.029 447.271,103.391 449.688,103.391 L465,103.391 C467.416,103.391 469.375,102.029 469.375,100.348 C469.375,98.667 467.416,97.304 465,97.304 Z M460.625,100.348 L460.625,121.652 C460.625,123.333 462.584,124.696 465,124.696 C467.416,124.696 469.375,123.333 469.375,121.652 L469.375,100.348 C469.375,98.667 467.416,97.304 465,97.304 C462.584,97.304 460.625,98.667 460.625,100.348 Z M465,103.391 L480.312,103.391 C482.729,103.391 484.688,102.029 484.688,100.348 C484.688,98.667 482.729,97.304 480.312,97.304 L465,97.304 C462.584,97.304 460.625,98.667 460.625,100.348 C460.625,102.029 462.584,103.391 465,103.391 Z M449.688,97.304 C438.814,97.304 430,103.436 430,111 C430,118.564 438.814,124.696 449.688,124.696 C452.104,124.696 454.062,123.333 454.062,121.652 C454.062,119.971 452.104,118.609 449.688,118.609 C443.647,118.609 438.75,115.202 438.75,111 C438.75,106.798 443.647,103.391 449.688,103.391 C452.104,103.391 454.062,102.029 454.062,100.348 C454.062,98.667 452.104,97.304 449.688,97.304 Z M465,118.609 L449.688,118.609 C447.271,118.609 445.312,119.971 445.312,121.652 C445.312,123.333 447.271,124.696 449.688,124.696 L465,124.696 C467.416,124.696 469.375,123.333 469.375,121.652 C469.375,119.971 467.416,118.609 465,118.609 Z M460.625,121.652 L460.625,132.304 C460.625,136.507 455.728,139.913 449.688,139.913 C443.647,139.913 438.75,136.507 438.75,132.304 C438.75,128.102 443.647,124.696 449.688,124.696 C452.104,124.696 454.062,123.333 454.062,121.652 C454.062,119.971 452.104,118.609 449.688,118.609 C438.814,118.609 430,124.74 430,132.304 C430,139.868 438.814,146 449.688,146 C460.561,146 469.375,139.868 469.375,132.304 L469.375,121.652 C469.375,119.971 467.416,118.609 465,118.609 C462.584,118.609 460.625,119.971 460.625,121.652 Z M480.312,103.391 C486.353,103.391 491.25,106.798 491.25,111 C491.25,115.202 486.353,118.609 480.312,118.609 C474.272,118.609 469.375,115.202 469.375,111 C469.375,106.798 474.272,103.391 480.312,103.391 Z M480.312,97.304 C469.439,97.304 460.625,103.436 460.625,111 C460.625,118.564 469.439,124.696 480.312,124.696 C491.186,124.696 500,118.564 500,111 C500,103.436 491.186,97.304 480.312,97.304 Z" />
        </g>
        <g id="Black-M" transform="translate(0,200)">
            <path d="M665,76 L649.688,76 C638.814,76 630,82.132 630,89.696 C630,97.26 638.814,103.391 649.688,103.391 C652.104,103.391 654.062,102.029 654.062,100.348 C654.062,98.667 652.104,97.304 649.688,97.304 C643.647,97.304 638.75,93.898 638.75,89.696 C638.75,85.493 643.647,82.087 649.688,82.087 L665,82.087 C667.416,82.087 669.375,80.724 669.375,79.043 C669.375,77.363 667.416,76 665,76 Z M660.625,79.043 L660.625,100.348 C660.625,102.029 662.584,103.391 665,103.391 C667.416,103.391 669.375,102.029 669.375,100.348 L669.375,79.043 C669.375,77.363 667.416,76 665,76 C662.584,76 660.625,77.363 660.625,79.043 Z M665,82.087 L680.312,82.087 C686.353,82.087 691.25,85.493 691.25,89.696 C691.25,93.898 686.353,97.304 680.312,97.304 C677.896,97.304 675.938,98.667 675.938,100.348 C675.938,102.029 677.896,103.391 680.312,103.391 C691.186,103.391 700,97.26 700,89.696 C700,82.132 691.186,76 680.312,76 L665,76 C662.584,76 660.625,77.363 660.625,79.043 C660.625,80.724 662.584,82.087 665,82.087 Z M665,97.304 L649.688,97.304 C647.271,97.304 645.312,98.667 645.312,100.348 C645.312,102.029 647.271,103.391 649.688,103.391 L665,103.391 C667.416,103.391 669.375,102.029 669.375,100.348 C669.375,98.667 667.416,97.304 665,97.304 Z M660.625,100.348 L660.625,121.652 C660.625,123.333 662.584,124.696 665,124.696 C667.416,124.696 669.375,123.333 669.375,121.652 L669.375,100.348 C669.375,98.667 667.416,97.304 665,97.304 C662.584,97.304 660.625,98.667 660.625,100.348 Z M665,103.391 L680.312,103.391 C682.729,103.391 684.688,102.029 684.688,100.348 C684.688,98.667 682.729,97.304 680.312,97.304 L665,97.304 C662.584,97.304 660.625,98.667 660.625,100.348 C660.625,102.029 662.584,103.391 665,103.391 Z M649.688,97.304 C638.814,97.304 630,103.436 630,111 C630,118.564 638.814,124.696 649.688,124.696 C652.104,124.696 654.062,123.333 654.062,121.652 C654.062,119.971 652.104,118.609 649.688,118.609 C643.647,118.609 638.75,115.202 638.75,111 C638.75,106.798 643.647,103.391 649.688,103.391 C652.104,103.391 654.062,102.029 654.062,100.348 C654.062,98.667 652.104,97.304 649.688,97.304 Z M665,118.609 L649.688,118.609 C647.271,118.609 645.312,119.971 645.312,121.652 C645.312,123.333 647.271,124.696 649.688,124.696 L665,124.696 C667.416,124.696 669.375,123.333 669.375,121.652 C669.375,119.971 667.416,118.609 665,118.609 Z M660.625,121.652 L660.625,132.304 C660.625,136.507 655.728,139.913 649.688,139.913 C643.647,139.913 638.75,136.507 638.75,132.304 C638.75,128.102 643.647,124.696 649.688,124.696 C652.104,124.696 654.062,123.333 654.062,121.652 C654.062,119.971 652.104,118.609 649.688,118.609 C638.814,118.609 630,124.74 630,132.304 C630,139.868 638.814,146 649.688,146 C660.561,146 669.375,139.868 669.375,132.304 L669.375,121.652 C669.375,119.971 667.416,118.609 665,118.609 C662.584,118.609 660.625,119.971 660.625,121.652 Z M680.312,103.391 C686.353,103.391 691.25,106.798 691.25,111 C691.25,115.202 686.353,118.609 680.312,118.609 C674.272,118.609 669.375,115.202 669.375,111 C669.375,106.798 674.272,103.391 680.312,103.391 Z M680.312,97.304 C669.439,97.304 660.625,103.436 660.625,111 C660.625,118.564 669.439,124.696 680.312,124.696 C691.186,124.696 700,118.564 700,111 C700,103.436 691.186,97.304 680.312,97.304 Z" />
        </g>
    </g>
</svg>