<?xml version="1.0" encoding="UTF-8"?>
<svg height="600" width="800" xmlns="http://www.w3.org/2000/svg" xmlns:xlink="http://www.w3.org/1999/xlink">
    <g id="Notes" font-family="LucidaGrande, 'Lucida Grande', sans-serif" font-size="13">
        <rect fill="white" height="600.0" width="800.0" x="0.0" y="0.0" />
        <g font-size="13">
            <text x="18.0" y="176.0">Small</text>
            <text x="18.0" y="376.0">Medium</text>
            <text x="18.0" y="576.0">Large</text>
        </g>
        <g font-size="9">
            <text x="250.0" y="30.0">Ultralight</text>
            <text x="450.0" y="30.0">Regular</text>
            <text x="650.0" y="30.0">Black</text>
            <text id="template-version" fill="#505050" text-anchor="end" x="785.0" y="575.0">Template v.3.0</text>
            <a href="https://github.com/swhitty/SwiftDraw">
                <text fill="#505050" text-anchor="end" x="785.0" y="590.0">https://github.com/swhitty/SwiftDraw</text>
            </a>
        </g>
    </g>
    <g id="Guides" stroke="rgb(39, 170, 225)" stroke-width="0.5">
        <path id="Capline-S" d="M18,76 l800,0" />
        <path id="H-reference" d="M85,145.755 L87.685,145.755 L113.369,79.287 L114.052,79.287 L114.052,76 L112.148,76 L85,145.755 Z M95.693,121.536 L130.996,121.536 L130.263,119.313 L96.474,119.313 L95.693,121.536 Z M139.15,145.755 L141.787,145.755 L114.638,76 L113.466,76 L113.466,79.287 L139.15,145.755 Z" stroke="none" transform="translate(0,200)" />
        <path id="Baseline-S" d="M18,146 l800,0" />
        <path id="left-margin-Ultralight-M" d="M230,256 l0,110" />
        <path id="right-margin-Ultralight-M" d="M300,256 l0,110" />
        <path id="left-margin-Regular-M" d="M430,256 l0,110" />
        <path id="right-margin-Regular-M" d="M500,256 l0,110" />
        <path id="left-margin-Black-M" d="M630,256 l0,110" />
        <path id="right-margin-Black-M" d="M700,256 l0,110" />
        <path id="Capline-M" d="M18,276 l800,0" />
        <path id="Baseline-M" d="M18,346 l800,0" />
        <path id="Capline-L" d="M18,476 l800,0" />
        <path id="Baseline-L" d="M18,546 l800,0" />
    </g>
    <g id="Symbols">
        <g id="Ultralight-M" transform="translate(0,200)">
            <path d="M263.049,91.52 L265.569,85.773 C266.115,84.53 266.321,84.106 266.371,84.042 C266.233,84.219 266.013,84.412 265.687,84.574 C265.25,84.791 264.725,84.791 264.278,84.569 C263.961,84.412 263.742,84.219 263.603,84.042 C263.653,84.106 263.859,84.53 264.407,85.775 L274.498,108.787 C275.204,110.397 277.081,111.129 278.69,110.423 C280.299,109.718 281.032,107.841 280.326,106.232 L270.233,83.218 C269.383,81.283 269.155,80.812 268.621,80.128 C268.211,79.602 267.722,79.172 267.106,78.868 C265.775,78.205 264.199,78.205 262.859,78.873 C262.252,79.172 261.764,79.602 261.353,80.128 C260.82,80.812 260.591,81.283 259.742,83.215 L257.221,88.964 C256.515,90.573 257.248,92.45 258.857,93.156 C260.466,93.862 262.343,93.129 263.049,91.52 Z M252.372,100.024 L236.574,136.042 C235.024,139.57 234.887,139.977 235.405,141.633 C235.879,143.129 237.044,144.29 238.53,144.756 C240.196,145.275 240.619,145.131 244.128,143.581 L265.241,134.292 C265.426,134.212 265.467,134.196 265.293,134.23 C265.262,134.235 265.262,134.235 265.23,134.241 C265.091,134.267 264.88,134.267 264.679,134.23 C264.717,134.237 264.717,134.237 264.692,134.232 C264.514,134.199 264.545,134.211 264.738,134.295 L285.848,143.583 C289.349,145.13 289.781,145.276 291.44,144.757 C292.927,144.29 294.093,143.129 294.563,141.645 C295.083,139.974 294.954,139.592 293.401,136.044 L292.746,134.557 C292.037,132.949 290.159,132.22 288.551,132.929 C286.943,133.638 286.214,135.516 286.923,137.124 L287.575,138.604 C288.088,139.775 288.255,140.174 288.366,140.504 C288.357,140.477 288.329,140.262 288.492,139.738 C288.654,139.227 289.042,138.84 289.537,138.684 C290.068,138.518 290.286,138.547 290.316,138.557 C289.984,138.445 289.562,138.266 288.415,137.76 L267.293,128.467 C266.557,128.145 266.364,128.071 265.86,127.977 C265.808,127.967 265.808,127.967 265.755,127.958 C265.266,127.869 264.705,127.869 264.154,127.969 C264.149,127.97 264.149,127.97 264.082,127.982 C263.592,128.077 263.451,128.132 262.694,128.46 L241.56,137.758 C240.402,138.27 239.986,138.445 239.656,138.557 C239.685,138.548 239.902,138.519 240.427,138.682 C240.929,138.84 241.318,139.227 241.474,139.722 C241.643,140.262 241.615,140.477 241.605,140.506 C241.717,140.175 241.891,139.762 242.401,138.6 L258.2,102.58 C258.906,100.971 258.173,99.094 256.564,98.388 C254.955,97.682 253.078,98.415 252.372,100.024 Z M299.068,140.568 L235.432,76.932 C234.189,75.689 232.175,75.689 230.932,76.932 C229.689,78.175 229.689,80.189 230.932,81.432 L294.568,145.068 C295.811,146.311 297.826,146.311 299.068,145.068 C300.311,143.825 300.311,141.811 299.068,140.568 Z" />
        </g>
        <g id="Regular-M" transform="translate(0,200)">
            <path d="M463.049,91.52 L465.569,85.773 C466.115,84.53 466.321,84.106 466.371,84.042 C466.233,84.219 466.013,84.412 465.687,84.574 C465.25,84.791 464.725,84.791 464.278,84.569 C463.961,84.412 463.742,84.219 463.603,84.042 C463.653,84.106 463.859,84.53 464.407,85.775 L474.498,108.787 C475.204,110.397 477.081,111.129 478.69,110.423 C480.299,109.718 481.032,107.841 480.326,106.232 L470.233,83.218 C469.383,81.283 469.155,80.812 468.621,80.128 C468.211,79.602 467.722,79.172 467.106,78.868 C465.775,78.205 464.199,78.205 462.859,78.873 C462.252,79.172 461.764,79.602 461.353,80.128 C460.82,80.812 460.591,81.283 459.742,83.215 L457.221,88.964 C456.515,90.573 457.248,92.45 458.857,93.156 C460.466,93.862 462.343,93.129 463.049,91.52 Z M452.372,100.024 L436.574,136.042 C435.024,139.57 434.887,139.977 435.405,141.633 C435.879,143.129 437.044,144.29 438.53,144.756 C440.196,145.275 440.619,145.131 444.128,143.581 L465.241,134.292 C465.426,134.212 465.467,134.196 465.293,134.23 C465.262,134.235 465.262,134.235 465.23,134.241 C465.091,134.267 464.88,134.267 464.679,134.23 C464.717,134.237 464.717,134.237 464.692,134.232 C464.514,134.199 464.545,134.211 464.738,134.295 L485.848,143.583 C489.349,145.13 489.781,145.276 491.44,144.757 C492.927,144.29 494.093,143.129 494.563,141.645 C495.083,139.974 494.954,139.592 493.401,136.044 L492.746,134.557 C492.037,132.949 490.159,132.22 488.551,132.929 C486.943,133.638 486.214,135.516 486.923,137.124 L487.575,138.604 C488.088,139.775 488.255,140.174 488.366,140.504 C488.357,140.477 488.329,140.262 488.492,139.738 C488.654,139.227 489.042,138.84 489.537,138.684 C490.068,138.518 490.286,138.547 490.316,138.557 C489.984,138.445 489.562,138.266 488.415,137.76 L467.293,128.467 C466.557,128.145 466.364,128.071 465.86,127.977 C465.808,127.967 465.808,127.967 465.755,127.958 C465.266,127.869 464.705,127.869 464.154,127.969 C464.149,127.97 464.149,127.97 464.082,127.982 C463.592,128.077 463.451,128.132 462.694,128.46 L441.56,137.758 C440.402,138.27 439.986,138.445 439.656,138.557 C439.685,138.548 439.902,138.519 440.427,138.682 C440.929,138.84 441.318,139.227 441.474,139.722 C441.643,140.262 441.615,140.477 441.605,140.506 C441.717,140.175 441.891,139.762 442.401,138.6 L458.2,102.58 C458.906,100.971 458.173,99.094 456.564,98.388 C454.955,97.682 453.078,98.415 452.372,100.024 Z M499.068,140.568 L435.432,76.932 C434.189,75.689 432.174,75.689 430.932,76.932 C429.689,78.175 429.689,80.189 430.932,81.432 L494.568,145.068 C495.811,146.311 497.826,146.311 499.068,145.068 C500.311,143.825 500.311,141.811 499.068,140.568 Z" />
        </g>
        <g id="Black-M" transform="translate(0,200)">
            <path d="M663.049,91.52 L665.569,85.773 C666.115,84.53 666.321,84.106 666.371,84.042 C666.233,84.219 666.013,84.412 665.687,84.574 C665.25,84.791 664.725,84.791 664.278,84.569 C663.961,84.412 663.742,84.219 663.603,84.042 C663.653,84.106 663.859,84.53 664.407,85.775 L674.498,108.787 C675.204,110.397 677.081,111.129 678.69,110.423 C680.299,109.718 681.032,107.841 680.326,106.232 L670.233,83.218 C669.383,81.283 669.155,80.812 668.621,80.128 C668.211,79.602 667.722,79.172 667.106,78.868 C665.775,78.205 664.199,78.205 662.859,78.873 C662.252,79.172 661.764,79.602 661.353,80.128 C660.82,80.812 660.591,81.283 659.742,83.215 L657.221,88.964 C656.515,90.573 657.248,92.45 658.857,93.156 C660.466,93.862 662.343,93.129 663.049,91.52 Z M652.372,100.024 L636.574,136.042 C635.024,139.57 634.887,139.977 635.405,141.633 C635.879,143.129 637.044,144.29 638.53,144.756 C640.196,145.275 640.619,145.131 644.128,143.581 L665.241,134.292 C665.427,134.212 665.467,134.196 665.293,134.23 C665.262,134.235 665.262,134.235 665.23,134.241 C665.091,134.267 664.88,134.267 664.679,134.23 C664.717,134.237 664.717,134.237 664.692,134.232 C664.514,134.199 664.545,134.211 664.738,134.295 L685.848,143.583 C689.349,145.13 689.781,145.276 691.44,144.757 C692.927,144.29 694.093,143.129 694.563,141.645 C695.083,139.974 694.954,139.592 693.401,136.044 L692.746,134.557 C692.037,132.949 690.159,132.22 688.551,132.929 C686.943,133.638 686.214,135.516 686.923,137.124 L687.575,138.604 C688.088,139.775 688.255,140.174 688.366,140.504 C688.357,140.477 688.329,140.262 688.492,139.738 C688.654,139.227 689.042,138.84 689.537,138.684 C690.068,138.518 690.286,138.547 690.316,138.557 C689.984,138.445 689.562,138.266 688.415,137.76 L667.293,128.467 C666.557,128.145 666.364,128.071 665.86,127.977 C665.808,127.967 665.808,127.967 665.755,127.958 C665.266,127.869 664.705,127.869 664.154,127.969 C664.149,127.97 664.149,127.97 664.082,127.982 C663.592,128.077 663.451,128.132 662.694,128.46 L641.56,137.758 C640.402,138.27 639.987,138.445 639.656,138.557 C639.685,138.548 639.902,138.519 640.427,138.682 C640.929,138.84 641.318,139.227 641.474,139.722 C641.643,140.262 641.615,140.477 641.605,140.506 C641.717,140.175 641.891,139.762 642.401,138.6 L658.2,102.58 C658.906,100.971 658.173,99.094 656.564,98.388 C654.955,97.682 653.078,98.415 652.372,100.024 Z M699.068,140.568 L635.432,76.932 C634.189,75.689 632.174,75.689 630.932,76.932 C629.689,78.175 629.689,80.189 630.932,81.432 L694.568,145.068 C695.811,146.311 697.826,146.311 699.068,145.068 C700.311,143.825 700.311,141.811 699.068,140.568 Z" />
        </g>
    </g>
</svg>