<?xml version="1.0" encoding="UTF-8"?>
<svg height="600" width="800" xmlns="http://www.w3.org/2000/svg" xmlns:xlink="http://www.w3.org/1999/xlink">
    <g id="Notes" font-family="LucidaGrande, 'Lucida Grande', sans-serif" font-size="13">
        <rect fill="white" height="600.0" width="800.0" x="0.0" y="0.0" />
        <g font-size="13">
            <text x="18.0" y="176.0">Small</text>
            <text x="18.0" y="376.0">Medium</text>
            <text x="18.0" y="576.0">Large</text>
        </g>
        <g font-size="9">
            <text x="250.0" y="30.0">Ultralight</text>
            <text x="450.0" y="30.0">Regular</text>
            <text x="650.0" y="30.0">Black</text>
            <text id="template-version" fill="#505050" text-anchor="end" x="785.0" y="575.0">Template v.3.0</text>
            <a href="https://github.com/swhitty/SwiftDraw">
                <text fill="#505050" text-anchor="end" x="785.0" y="590.0">https://github.com/swhitty/SwiftDraw</text>
            </a>
        </g>
    </g>
    <g id="Guides" stroke="rgb(39, 170, 225)" stroke-width="0.5">
        <path id="Capline-S" d="M18,76 l800,0" />
        <path id="H-reference" d="M85,145.755 L87.685,145.755 L113.369,79.287 L114.052,79.287 L114.052,76 L112.148,76 L85,145.755 Z M95.693,121.536 L130.996,121.536 L130.263,119.313 L96.474,119.313 L95.693,121.536 Z M139.15,145.755 L141.787,145.755 L114.638,76 L113.466,76 L113.466,79.287 L139.15,145.755 Z" stroke="none" transform="translate(0,200)" />
        <path id="Baseline-S" d="M18,146 l800,0" />
        <path id="left-margin-Ultralight-M" d="M221,256 l0,110" />
        <path id="right-margin-Ultralight-M" d="M309,256 l0,110" />
        <path id="left-margin-Regular-M" d="M421,256 l0,110" />
        <path id="right-margin-Regular-M" d="M509,256 l0,110" />
        <path id="left-margin-Black-M" d="M621,256 l0,110" />
        <path id="right-margin-Black-M" d="M709,256 l0,110" />
        <path id="Capline-M" d="M18,276 l800,0" />
        <path id="Baseline-M" d="M18,346 l800,0" />
        <path id="Capline-L" d="M18,476 l800,0" />
        <path id="Baseline-L" d="M18,546 l800,0" />
    </g>
    <g id="Symbols">
        <g id="Ultralight-M" transform="translate(0,200)">
            <path d="M251.381,129.857 L256.619,129.857 C257.776,129.857 258.714,128.919 258.714,127.762 C258.714,126.605 257.776,125.667 256.619,125.667 L251.381,125.667 C250.224,125.667 249.286,126.605 249.286,127.762 C249.286,128.919 250.224,129.857 251.381,129.857 Z M275.476,106.81 L275.497,106.81 C276.654,106.81 277.592,105.871 277.592,104.714 C277.592,103.557 276.654,102.619 275.497,102.619 L275.476,102.619 C274.319,102.619 273.381,103.557 273.381,104.714 C273.381,105.871 274.319,106.81 275.476,106.81 Z M256.619,96.333 L250.752,96.333 C247.398,96.333 246.602,96.398 245.385,97.018 C244.202,97.621 243.24,98.583 242.638,99.765 C242.017,100.983 241.952,101.779 241.952,105.133 L241.952,112.676 C241.952,116.031 242.017,116.827 242.637,118.044 C243.24,119.227 244.202,120.188 245.384,120.791 C246.602,121.411 247.398,121.476 250.752,121.476 L256.619,121.476 C257.776,121.476 258.714,120.538 258.714,119.381 C258.714,118.224 257.776,117.286 256.619,117.286 L250.752,117.286 C248.24,117.286 247.639,117.237 247.287,117.057 C246.893,116.856 246.572,116.536 246.371,116.142 C246.192,115.79 246.143,115.189 246.143,112.676 L246.143,105.133 C246.143,102.621 246.192,102.02 246.371,101.668 C246.572,101.274 246.893,100.953 247.287,100.752 C247.639,100.573 248.24,100.524 250.752,100.524 L256.619,100.524 C257.776,100.524 258.714,99.586 258.714,98.429 C258.714,97.271 257.776,96.333 256.619,96.333 Z M271.705,129.857 L279.248,129.857 C282.602,129.857 283.398,129.792 284.615,129.172 C285.798,128.569 286.76,127.608 287.362,126.425 C287.983,125.208 288.048,124.411 288.048,121.057 L288.048,100.943 C288.048,97.589 287.983,96.792 287.363,95.575 C286.76,94.392 285.798,93.431 284.616,92.828 C283.398,92.208 282.602,92.143 279.248,92.143 L271.705,92.143 C268.35,92.143 267.554,92.208 266.337,92.828 C265.154,93.431 264.193,94.392 263.59,95.575 C262.97,96.792 262.905,97.589 262.905,100.943 L262.905,121.057 C262.905,124.411 262.97,125.208 263.59,126.425 C264.193,127.608 265.154,128.569 266.337,129.172 C267.554,129.792 268.35,129.857 271.705,129.857 Z M271.705,125.667 C269.192,125.667 268.591,125.618 268.239,125.438 C267.845,125.237 267.525,124.917 267.324,124.523 C267.144,124.171 267.095,123.569 267.095,121.057 L267.095,100.943 C267.095,98.431 267.144,97.829 267.324,97.477 C267.525,97.083 267.845,96.763 268.239,96.562 C268.591,96.382 269.192,96.333 271.705,96.333 L279.248,96.333 C281.76,96.333 282.361,96.382 282.713,96.562 C283.107,96.763 283.428,97.083 283.629,97.477 C283.808,97.829 283.857,98.431 283.857,100.943 L283.857,121.057 C283.857,123.569 283.808,124.171 283.629,124.523 C283.428,124.917 283.107,125.237 282.713,125.438 C282.361,125.618 281.76,125.667 279.248,125.667 L271.705,125.667 Z M275.476,117.286 C275.476,117.286 275.476,117.286 275.476,117.286 C275.476,117.286 275.476,117.286 275.476,117.286 C275.476,117.286 275.476,117.286 275.476,117.286 C275.476,117.286 275.476,117.286 275.476,117.286 Z M279.667,117.286 C279.667,114.971 277.791,113.095 275.476,113.095 C273.162,113.095 271.286,114.971 271.286,117.286 C271.286,119.6 273.162,121.476 275.476,121.476 C277.791,121.476 279.667,119.6 279.667,117.286 Z" />
        </g>
        <g id="Regular-M" transform="translate(0,200)">
            <path d="M451.381,129.857 L456.619,129.857 C457.776,129.857 458.714,128.919 458.714,127.762 C458.714,126.605 457.776,125.667 456.619,125.667 L451.381,125.667 C450.224,125.667 449.286,126.605 449.286,127.762 C449.286,128.919 450.224,129.857 451.381,129.857 Z M475.476,106.81 L475.497,106.81 C476.654,106.81 477.592,105.871 477.592,104.714 C477.592,103.557 476.654,102.619 475.497,102.619 L475.476,102.619 C474.319,102.619 473.381,103.557 473.381,104.714 C473.381,105.871 474.319,106.81 475.476,106.81 Z M456.619,96.333 L450.752,96.333 C447.398,96.333 446.602,96.398 445.385,97.018 C444.202,97.621 443.24,98.583 442.638,99.765 C442.017,100.983 441.952,101.779 441.952,105.133 L441.952,112.676 C441.952,116.031 442.017,116.827 442.637,118.044 C443.24,119.227 444.202,120.188 445.384,120.791 C446.602,121.411 447.398,121.476 450.752,121.476 L456.619,121.476 C457.776,121.476 458.714,120.538 458.714,119.381 C458.714,118.224 457.776,117.286 456.619,117.286 L450.752,117.286 C448.24,117.286 447.639,117.237 447.287,117.057 C446.893,116.856 446.572,116.536 446.371,116.142 C446.192,115.79 446.143,115.189 446.143,112.676 L446.143,105.133 C446.143,102.621 446.192,102.02 446.371,101.668 C446.572,101.274 446.893,100.953 447.287,100.752 C447.639,100.573 448.24,100.524 450.752,100.524 L456.619,100.524 C457.776,100.524 458.714,99.586 458.714,98.429 C458.714,97.271 457.776,96.333 456.619,96.333 Z M471.705,129.857 L479.248,129.857 C482.602,129.857 483.398,129.792 484.615,129.172 C485.798,128.569 486.76,127.608 487.362,126.425 C487.983,125.208 488.048,124.411 488.048,121.057 L488.048,100.943 C488.048,97.589 487.983,96.792 487.363,95.575 C486.76,94.392 485.798,93.431 484.616,92.828 C483.398,92.208 482.602,92.143 479.248,92.143 L471.705,92.143 C468.35,92.143 467.554,92.208 466.337,92.828 C465.154,93.431 464.193,94.392 463.59,95.575 C462.97,96.792 462.905,97.589 462.905,100.943 L462.905,121.057 C462.905,124.411 462.97,125.208 463.59,126.425 C464.193,127.608 465.154,128.569 466.337,129.172 C467.554,129.792 468.35,129.857 471.705,129.857 Z M471.705,125.667 C469.192,125.667 468.591,125.618 468.239,125.438 C467.845,125.237 467.525,124.917 467.324,124.523 C467.144,124.171 467.095,123.569 467.095,121.057 L467.095,100.943 C467.095,98.431 467.144,97.829 467.324,97.477 C467.525,97.083 467.845,96.763 468.239,96.562 C468.591,96.382 469.192,96.333 471.705,96.333 L479.248,96.333 C481.76,96.333 482.361,96.382 482.713,96.562 C483.107,96.763 483.428,97.083 483.629,97.477 C483.808,97.829 483.857,98.431 483.857,100.943 L483.857,121.057 C483.857,123.569 483.808,124.171 483.629,124.523 C483.428,124.917 483.107,125.237 482.713,125.438 C482.361,125.618 481.76,125.667 479.248,125.667 L471.705,125.667 Z M475.476,117.286 C475.476,117.286 475.476,117.286 475.476,117.286 C475.476,117.286 475.476,117.286 475.476,117.286 C475.476,117.286 475.476,117.286 475.476,117.286 C475.476,117.286 475.476,117.286 475.476,117.286 Z M479.667,117.286 C479.667,114.971 477.791,113.095 475.476,113.095 C473.162,113.095 471.286,114.971 471.286,117.286 C471.286,119.6 473.162,121.476 475.476,121.476 C477.791,121.476 479.667,119.6 479.667,117.286 Z" />
        </g>
        <g id="Black-M" transform="translate(0,200)">
            <path d="M651.381,129.857 L656.619,129.857 C657.776,129.857 658.714,128.919 658.714,127.762 C658.714,126.605 657.776,125.667 656.619,125.667 L651.381,125.667 C650.224,125.667 649.286,126.605 649.286,127.762 C649.286,128.919 650.224,129.857 651.381,129.857 Z M675.476,106.81 L675.497,106.81 C676.654,106.81 677.592,105.871 677.592,104.714 C677.592,103.557 676.654,102.619 675.497,102.619 L675.476,102.619 C674.319,102.619 673.381,103.557 673.381,104.714 C673.381,105.871 674.319,106.81 675.476,106.81 Z M656.619,96.333 L650.752,96.333 C647.398,96.333 646.602,96.398 645.385,97.018 C644.202,97.621 643.24,98.583 642.638,99.765 C642.017,100.983 641.952,101.779 641.952,105.133 L641.952,112.676 C641.952,116.031 642.017,116.827 642.637,118.044 C643.24,119.227 644.202,120.188 645.384,120.791 C646.602,121.411 647.398,121.476 650.752,121.476 L656.619,121.476 C657.776,121.476 658.714,120.538 658.714,119.381 C658.714,118.224 657.776,117.286 656.619,117.286 L650.752,117.286 C648.24,117.286 647.639,117.237 647.287,117.057 C646.893,116.856 646.572,116.536 646.371,116.142 C646.192,115.79 646.143,115.189 646.143,112.676 L646.143,105.133 C646.143,102.621 646.192,102.02 646.371,101.668 C646.572,101.274 646.893,100.953 647.287,100.752 C647.639,100.573 648.24,100.524 650.752,100.524 L656.619,100.524 C657.776,100.524 658.714,99.586 658.714,98.429 C658.714,97.271 657.776,96.333 656.619,96.333 Z M671.705,129.857 L679.248,129.857 C682.602,129.857 683.398,129.792 684.615,129.172 C685.798,128.569 686.76,127.608 687.362,126.425 C687.983,125.208 688.048,124.411 688.048,121.057 L688.048,100.943 C688.048,97.589 687.983,96.792 687.363,95.575 C686.76,94.392 685.798,93.431 684.616,92.828 C683.398,92.208 682.602,92.143 679.248,92.143 L671.705,92.143 C668.35,92.143 667.554,92.208 666.337,92.828 C665.154,93.431 664.193,94.392 663.59,95.575 C662.97,96.792 662.905,97.589 662.905,100.943 L662.905,121.057 C662.905,124.411 662.97,125.208 663.59,126.425 C664.193,127.608 665.154,128.569 666.337,129.172 C667.554,129.792 668.35,129.857 671.705,129.857 Z M671.705,125.667 C669.192,125.667 668.591,125.618 668.239,125.438 C667.845,125.237 667.524,124.917 667.324,124.523 C667.144,124.171 667.095,123.569 667.095,121.057 L667.095,100.943 C667.095,98.431 667.144,97.829 667.324,97.477 C667.524,97.083 667.845,96.763 668.239,96.562 C668.591,96.382 669.192,96.333 671.705,96.333 L679.248,96.333 C681.76,96.333 682.361,96.382 682.713,96.562 C683.107,96.763 683.428,97.083 683.629,97.477 C683.808,97.829 683.857,98.431 683.857,100.943 L683.857,121.057 C683.857,123.569 683.808,124.171 683.629,124.523 C683.428,124.917 683.107,125.237 682.713,125.438 C682.361,125.618 681.76,125.667 679.248,125.667 L671.705,125.667 Z M675.476,117.286 C675.476,117.286 675.476,117.286 675.476,117.286 C675.476,117.286 675.476,117.286 675.476,117.286 C675.476,117.286 675.476,117.286 675.476,117.286 C675.476,117.286 675.476,117.286 675.476,117.286 Z M679.667,117.286 C679.667,114.971 677.791,113.095 675.476,113.095 C673.162,113.095 671.286,114.971 671.286,117.286 C671.286,119.6 673.162,121.476 675.476,121.476 C677.791,121.476 679.667,119.6 679.667,117.286 Z" />
        </g>
    </g>
</svg>