<?xml version="1.0" encoding="UTF-8"?>
<svg height="600" width="800" xmlns="http://www.w3.org/2000/svg" xmlns:xlink="http://www.w3.org/1999/xlink">
    <g id="Notes" font-family="LucidaGrande, 'Lucida Grande', sans-serif" font-size="13">
        <rect fill="white" height="600.0" width="800.0" x="0.0" y="0.0" />
        <g font-size="13">
            <text x="18.0" y="176.0">Small</text>
            <text x="18.0" y="376.0">Medium</text>
            <text x="18.0" y="576.0">Large</text>
        </g>
        <g font-size="9">
            <text x="250.0" y="30.0">Ultralight</text>
            <text x="450.0" y="30.0">Regular</text>
            <text x="650.0" y="30.0">Black</text>
            <text id="template-version" fill="#505050" text-anchor="end" x="785.0" y="575.0">Template v.3.0</text>
            <a href="https://github.com/swhitty/SwiftDraw">
                <text fill="#505050" text-anchor="end" x="785.0" y="590.0">https://github.com/swhitty/SwiftDraw</text>
            </a>
        </g>
    </g>
    <g id="Guides" stroke="rgb(39, 170, 225)" stroke-width="0.5">
        <path id="Capline-S" d="M18,76 l800,0" />
        <path id="H-reference" d="M85,145.755 L87.685,145.755 L113.369,79.287 L114.052,79.287 L114.052,76 L112.148,76 L85,145.755 Z M95.693,121.536 L130.996,121.536 L130.263,119.313 L96.474,119.313 L95.693,121.536 Z M139.15,145.755 L141.787,145.755 L114.638,76 L113.466,76 L113.466,79.287 L139.15,145.755 Z" stroke="none" transform="translate(0,200)" />
        <path id="Baseline-S" d="M18,146 l800,0" />
        <path id="left-margin-Ultralight-M" d="M231.667,256 l0,110" />
        <path id="right-margin-Ultralight-M" d="M298.333,256 l0,110" />
        <path id="left-margin-Regular-M" d="M431.667,256 l0,110" />
        <path id="right-margin-Regular-M" d="M498.333,256 l0,110" />
        <path id="left-margin-Black-M" d="M631.667,256 l0,110" />
        <path id="right-margin-Black-M" d="M698.333,256 l0,110" />
        <path id="Capline-M" d="M18,276 l800,0" />
        <path id="Baseline-M" d="M18,346 l800,0" />
        <path id="Capline-L" d="M18,476 l800,0" />
        <path id="Baseline-L" d="M18,546 l800,0" />
    </g>
    <g id="Symbols">
        <g id="Ultralight-M" transform="translate(0,200)">
            <path d="M264.031,82.971 C264.85,82.531 265.044,82.438 265.035,82.44 C265.018,82.444 265.018,82.444 265.001,82.447 C264.998,82.448 264.998,82.448 264.998,82.448 C264.958,82.44 265.139,82.525 265.969,82.971 L290.638,96.223 C291.406,96.636 291.627,96.763 291.733,96.84 C291.719,96.83 291.686,96.801 291.648,96.761 C291.67,96.783 291.67,96.783 291.67,96.783 C291.654,96.736 291.667,96.946 291.667,97.915 L291.667,124.084 C291.667,125.055 291.654,125.265 291.667,125.227 C291.67,125.218 291.67,125.218 291.67,125.218 C291.688,125.199 291.509,125.309 290.643,125.773 L265.971,139.029 C265.158,139.467 264.965,139.559 264.983,139.555 C265.001,139.551 265.001,139.551 265.02,139.547 C264.996,139.552 265.007,139.552 265.017,139.554 C265.001,139.55 265.001,139.55 265.018,139.554 C265.041,139.559 264.854,139.47 264.023,139.026 L239.362,125.779 C238.594,125.366 238.373,125.239 238.267,125.161 C238.281,125.172 238.314,125.2 238.352,125.241 C238.33,125.218 238.33,125.218 238.33,125.218 C238.346,125.265 238.333,125.055 238.333,124.084 L238.333,97.915 C238.333,96.946 238.346,96.736 238.333,96.775 C238.33,96.783 238.33,96.783 238.33,96.783 C238.312,96.802 238.491,96.692 239.357,96.229 L264.029,82.972 Z M260.791,77.336 L236.125,90.589 C234.521,91.448 234.092,91.712 233.425,92.417 C232.791,93.079 232.303,93.88 232.003,94.752 C231.696,95.656 231.667,96.124 231.667,97.915 L231.667,124.084 C231.667,125.878 231.695,126.345 232,127.241 C232.303,128.122 232.791,128.922 233.436,129.597 C233.666,129.842 233.939,130.08 234.243,130.302 C234.708,130.643 235.013,130.817 236.122,131.414 L260.792,144.666 C262.305,145.475 262.645,145.637 263.482,145.829 C263.579,145.85 263.579,145.85 263.676,145.87 C264.539,146.046 265.465,146.046 266.361,145.863 C266.434,145.848 266.434,145.848 266.541,145.824 C267.373,145.631 267.747,145.453 269.211,144.665 L293.875,131.412 C295.479,130.554 295.908,130.29 296.575,129.585 C297.209,128.922 297.698,128.122 297.997,127.25 C298.305,126.345 298.333,125.878 298.333,124.084 L298.333,97.915 C298.333,96.124 298.305,95.656 298,94.76 C297.698,93.88 297.209,93.079 296.564,92.405 C296.334,92.16 296.061,91.922 295.757,91.699 C295.292,91.359 294.987,91.185 293.878,90.588 L269.208,77.336 C267.674,76.51 267.257,76.315 266.345,76.133 C265.455,75.956 264.541,75.956 263.655,76.132 C263.546,76.155 263.546,76.155 263.441,76.179 C262.618,76.375 262.247,76.553 260.789,77.337 Z" />
            <path d="M267.523,99.452 C262.885,94.208 255.231,93.245 249.759,97.765 C244.255,102.315 243.416,110.032 247.809,115.495 C249.74,117.896 253.91,121.813 259.276,126.512 C261.211,128.207 261.749,128.605 263.059,128.988 C264.298,129.353 265.675,129.353 266.922,128.988 C268.231,128.603 268.765,128.207 270.7,126.512 C276.026,121.853 280.234,117.9 282.168,115.495 C286.586,110.001 285.773,102.23 280.184,97.737 C274.643,93.282 267.078,94.224 262.454,99.452 C260.603,101.544 262.14,104.772 264.987,104.772 L264.99,104.772 C267.836,104.772 269.373,101.544 267.523,99.452 Z M262.457,103.644 L264.99,101.548 L264.99,98.324 L264.987,98.324 L264.987,101.548 L267.52,103.644 C269.854,101.005 273.287,100.577 275.923,102.696 C278.728,104.951 279.128,108.773 276.906,111.536 C275.307,113.524 271.229,117.356 266.227,121.731 C265.173,122.655 264.931,122.834 264.988,122.817 C265.005,122.812 264.975,122.812 264.994,122.818 C265.043,122.832 264.804,122.655 263.75,121.732 C258.712,117.32 254.667,113.52 253.071,111.536 C250.871,108.801 251.286,104.984 254.089,102.668 C256.64,100.561 260.117,100.998 262.457,103.644 Z" />
        </g>
        <g id="Regular-M" transform="translate(0,200)">
            <path d="M464.031,82.971 C464.85,82.531 465.044,82.438 465.035,82.44 C465.018,82.444 465.018,82.444 465.001,82.447 C464.998,82.448 464.998,82.448 464.998,82.448 C464.958,82.44 465.139,82.525 465.969,82.971 L490.638,96.223 C491.406,96.636 491.627,96.763 491.733,96.84 C491.719,96.83 491.686,96.801 491.648,96.761 C491.67,96.783 491.67,96.783 491.67,96.783 C491.654,96.736 491.667,96.946 491.667,97.915 L491.667,124.084 C491.667,125.055 491.654,125.265 491.667,125.227 C491.67,125.218 491.67,125.218 491.67,125.218 C491.688,125.199 491.509,125.309 490.643,125.773 L465.971,139.029 C465.158,139.467 464.965,139.559 464.983,139.555 C465.001,139.551 465.001,139.551 465.02,139.547 C464.996,139.552 465.007,139.552 465.017,139.554 C465.001,139.55 465.001,139.55 465.018,139.554 C465.041,139.559 464.854,139.47 464.023,139.026 L439.362,125.779 C438.594,125.366 438.373,125.239 438.267,125.161 C438.281,125.172 438.314,125.2 438.352,125.241 C438.33,125.218 438.33,125.218 438.33,125.218 C438.346,125.265 438.333,125.055 438.333,124.084 L438.333,97.915 C438.333,96.946 438.346,96.736 438.333,96.775 C438.33,96.783 438.33,96.783 438.33,96.783 C438.312,96.802 438.491,96.692 439.357,96.229 L464.029,82.972 Z M460.791,77.336 L436.125,90.589 C434.521,91.448 434.092,91.712 433.425,92.417 C432.791,93.079 432.302,93.88 432.003,94.752 C431.695,95.656 431.667,96.124 431.667,97.915 L431.667,124.084 C431.667,125.878 431.695,126.345 432,127.241 C432.302,128.122 432.791,128.922 433.436,129.597 C433.666,129.842 433.939,130.08 434.243,130.302 C434.708,130.643 435.013,130.817 436.122,131.414 L460.792,144.666 C462.305,145.475 462.645,145.637 463.482,145.829 C463.579,145.85 463.579,145.85 463.676,145.87 C464.539,146.046 465.465,146.046 466.361,145.863 C466.434,145.848 466.434,145.848 466.541,145.824 C467.373,145.631 467.747,145.453 469.211,144.665 L493.875,131.412 C495.479,130.554 495.908,130.29 496.575,129.585 C497.209,128.922 497.697,128.122 497.997,127.25 C498.305,126.345 498.333,125.878 498.333,124.084 L498.333,97.915 C498.333,96.124 498.304,95.656 498,94.76 C497.697,93.88 497.209,93.079 496.564,92.405 C496.334,92.16 496.061,91.922 495.757,91.699 C495.292,91.359 494.987,91.185 493.878,90.588 L469.208,77.336 C467.674,76.51 467.257,76.315 466.345,76.133 C465.455,75.956 464.541,75.956 463.655,76.132 C463.546,76.155 463.546,76.155 463.441,76.179 C462.618,76.375 462.247,76.553 460.789,77.337 Z" />
            <path d="M467.523,99.452 C462.885,94.208 455.231,93.245 449.759,97.765 C444.255,102.315 443.416,110.032 447.809,115.495 C449.74,117.896 453.91,121.813 459.276,126.512 C461.211,128.207 461.749,128.605 463.059,128.988 C464.298,129.353 465.675,129.353 466.922,128.988 C468.231,128.603 468.765,128.207 470.7,126.512 C476.026,121.853 480.234,117.9 482.168,115.495 C486.586,110.001 485.773,102.23 480.184,97.737 C474.643,93.282 467.078,94.224 462.454,99.452 C460.603,101.544 462.14,104.772 464.987,104.772 L464.99,104.772 C467.836,104.772 469.373,101.544 467.523,99.452 Z M462.457,103.644 L464.99,101.548 L464.99,98.324 L464.987,98.324 L464.987,101.548 L467.52,103.644 C469.854,101.005 473.287,100.577 475.923,102.696 C478.728,104.951 479.128,108.773 476.906,111.536 C475.307,113.524 471.229,117.356 466.227,121.731 C465.173,122.655 464.931,122.834 464.988,122.817 C465.005,122.812 464.975,122.812 464.994,122.818 C465.043,122.832 464.804,122.655 463.75,121.732 C458.712,117.32 454.667,113.52 453.071,111.536 C450.871,108.801 451.286,104.984 454.089,102.668 C456.64,100.561 460.117,100.998 462.457,103.644 Z" />
        </g>
        <g id="Black-M" transform="translate(0,200)">
            <path d="M664.031,82.971 C664.85,82.531 665.044,82.438 665.035,82.44 C665.018,82.444 665.018,82.444 665.001,82.447 C664.998,82.448 664.998,82.448 664.998,82.448 C664.958,82.44 665.139,82.525 665.969,82.971 L690.638,96.223 C691.406,96.636 691.627,96.763 691.733,96.84 C691.719,96.83 691.686,96.801 691.648,96.761 C691.67,96.783 691.67,96.783 691.67,96.783 C691.654,96.736 691.667,96.946 691.667,97.915 L691.667,124.084 C691.667,125.055 691.654,125.265 691.667,125.227 C691.67,125.218 691.67,125.218 691.67,125.218 C691.688,125.199 691.509,125.309 690.643,125.773 L665.971,139.029 C665.158,139.467 664.965,139.559 664.983,139.555 C665.001,139.551 665.001,139.551 665.02,139.547 C664.996,139.552 665.007,139.552 665.017,139.554 C665.001,139.55 665.001,139.55 665.018,139.554 C665.041,139.559 664.854,139.47 664.023,139.026 L639.362,125.779 C638.594,125.366 638.373,125.239 638.267,125.161 C638.281,125.172 638.314,125.2 638.352,125.241 C638.33,125.218 638.33,125.218 638.33,125.218 C638.346,125.265 638.333,125.055 638.333,124.084 L638.333,97.915 C638.333,96.946 638.346,96.736 638.333,96.775 C638.33,96.783 638.33,96.783 638.33,96.783 C638.312,96.802 638.491,96.692 639.357,96.229 L664.029,82.972 Z M660.791,77.336 L636.125,90.589 C634.521,91.448 634.093,91.712 633.425,92.417 C632.791,93.079 632.302,93.88 632.003,94.752 C631.696,95.656 631.667,96.124 631.667,97.915 L631.667,124.084 C631.667,125.878 631.695,126.345 632,127.241 C632.303,128.122 632.791,128.922 633.436,129.597 C633.667,129.842 633.939,130.08 634.243,130.302 C634.708,130.643 635.013,130.817 636.122,131.414 L660.792,144.666 C662.305,145.475 662.645,145.637 663.482,145.829 C663.579,145.85 663.579,145.85 663.676,145.87 C664.539,146.046 665.465,146.046 666.361,145.863 C666.434,145.848 666.434,145.848 666.541,145.824 C667.373,145.631 667.747,145.453 669.211,144.665 L693.875,131.412 C695.479,130.554 695.908,130.29 696.575,129.585 C697.209,128.922 697.698,128.122 697.997,127.25 C698.305,126.345 698.333,125.878 698.333,124.084 L698.333,97.915 C698.333,96.124 698.305,95.656 698,94.76 C697.698,93.88 697.209,93.079 696.564,92.405 C696.334,92.16 696.061,91.922 695.757,91.699 C695.292,91.359 694.987,91.185 693.878,90.588 L669.208,77.336 C667.674,76.51 667.257,76.315 666.345,76.133 C665.455,75.956 664.541,75.956 663.655,76.132 C663.546,76.155 663.546,76.155 663.441,76.179 C662.618,76.375 662.247,76.553 660.789,77.337 Z" />
            <path d="M667.523,99.452 C662.885,94.208 655.231,93.245 649.759,97.765 C644.255,102.315 643.416,110.032 647.809,115.495 C649.74,117.896 653.91,121.813 659.276,126.512 C661.211,128.207 661.749,128.605 663.059,128.988 C664.298,129.353 665.675,129.353 666.922,128.988 C668.231,128.603 668.765,128.207 670.7,126.512 C676.026,121.853 680.234,117.9 682.168,115.495 C686.586,110.001 685.773,102.23 680.184,97.737 C674.643,93.282 667.078,94.224 662.454,99.452 C660.603,101.544 662.14,104.772 664.987,104.772 L664.99,104.772 C667.836,104.772 669.373,101.544 667.523,99.452 Z M662.457,103.644 L664.99,101.548 L664.99,98.324 L664.987,98.324 L664.987,101.548 L667.52,103.644 C669.854,101.005 673.287,100.577 675.923,102.696 C678.728,104.951 679.128,108.773 676.906,111.536 C675.307,113.524 671.229,117.356 666.227,121.731 C665.173,122.655 664.931,122.834 664.988,122.817 C665.005,122.812 664.975,122.812 664.994,122.818 C665.043,122.832 664.804,122.655 663.75,121.732 C658.712,117.32 654.667,113.52 653.071,111.536 C650.871,108.801 651.286,104.984 654.089,102.668 C656.64,100.561 660.117,100.998 662.457,103.644 Z" />
        </g>
    </g>
</svg>