<?xml version="1.0" encoding="UTF-8"?>
<svg height="600" width="800" xmlns="http://www.w3.org/2000/svg" xmlns:xlink="http://www.w3.org/1999/xlink">
    <g id="Notes" font-family="LucidaGrande, 'Lucida Grande', sans-serif" font-size="13">
        <rect fill="white" height="600.0" width="800.0" x="0.0" y="0.0" />
        <g font-size="13">
            <text x="18.0" y="176.0">Small</text>
            <text x="18.0" y="376.0">Medium</text>
            <text x="18.0" y="576.0">Large</text>
        </g>
        <g font-size="9">
            <text x="250.0" y="30.0">Ultralight</text>
            <text x="450.0" y="30.0">Regular</text>
            <text x="650.0" y="30.0">Black</text>
            <text id="template-version" fill="#505050" text-anchor="end" x="785.0" y="575.0">Template v.3.0</text>
            <a href="https://github.com/swhitty/SwiftDraw">
                <text fill="#505050" text-anchor="end" x="785.0" y="590.0">https://github.com/swhitty/SwiftDraw</text>
            </a>
        </g>
    </g>
    <g id="Guides" stroke="rgb(39, 170, 225)" stroke-width="0.5">
        <path id="Capline-S" d="M18,76 l800,0" />
        <path id="H-reference" d="M85,145.755 L87.685,145.755 L113.369,79.287 L114.052,79.287 L114.052,76 L112.148,76 L85,145.755 Z M95.693,121.536 L130.996,121.536 L130.263,119.313 L96.474,119.313 L95.693,121.536 Z M139.15,145.755 L141.787,145.755 L114.638,76 L113.466,76 L113.466,79.287 L139.15,145.755 Z" stroke="none" transform="translate(0,200)" />
        <path id="Baseline-S" d="M18,146 l800,0" />
        <path id="left-margin-Ultralight-M" d="M230,256 l0,110" />
        <path id="right-margin-Ultralight-M" d="M300,256 l0,110" />
        <path id="left-margin-Regular-M" d="M430,256 l0,110" />
        <path id="right-margin-Regular-M" d="M500,256 l0,110" />
        <path id="left-margin-Black-M" d="M630,256 l0,110" />
        <path id="right-margin-Black-M" d="M700,256 l0,110" />
        <path id="Capline-M" d="M18,276 l800,0" />
        <path id="Baseline-M" d="M18,346 l800,0" />
        <path id="Capline-L" d="M18,476 l800,0" />
        <path id="Baseline-L" d="M18,546 l800,0" />
    </g>
    <g id="Symbols">
        <g id="Ultralight-M" transform="translate(0,200)">
            <path d="M283.354,88.521 L242.521,129.354 C241.382,130.493 241.382,132.34 242.521,133.479 C243.66,134.618 245.507,134.618 246.646,133.479 L287.479,92.646 C288.618,91.507 288.618,89.66 287.479,88.521 C286.34,87.382 284.493,87.382 283.354,88.521 Z M253.333,96.417 C253.333,98.027 252.027,99.333 250.417,99.333 C248.806,99.333 247.5,98.027 247.5,96.417 C247.5,94.806 248.806,93.5 250.417,93.5 C252.027,93.5 253.333,94.806 253.333,96.417 Z M259.167,96.417 C259.167,91.584 255.249,87.667 250.417,87.667 C245.584,87.667 241.667,91.584 241.667,96.417 C241.667,101.249 245.584,105.167 250.417,105.167 C255.249,105.167 259.167,101.249 259.167,96.417 Z M282.5,125.583 C282.5,127.194 281.194,128.5 279.583,128.5 C277.973,128.5 276.667,127.194 276.667,125.583 C276.667,123.973 277.973,122.667 279.583,122.667 C281.194,122.667 282.5,123.973 282.5,125.583 Z M288.333,125.583 C288.333,120.751 284.416,116.833 279.583,116.833 C274.751,116.833 270.833,120.751 270.833,125.583 C270.833,130.416 274.751,134.333 279.583,134.333 C284.416,134.333 288.333,130.416 288.333,125.583 Z" />
        </g>
        <g id="Regular-M" transform="translate(0,200)">
            <path d="M483.354,88.521 L442.521,129.354 C441.382,130.493 441.382,132.34 442.521,133.479 C443.66,134.618 445.507,134.618 446.646,133.479 L487.479,92.646 C488.618,91.507 488.618,89.66 487.479,88.521 C486.34,87.382 484.493,87.382 483.354,88.521 Z M453.333,96.417 C453.333,98.027 452.027,99.333 450.417,99.333 C448.806,99.333 447.5,98.027 447.5,96.417 C447.5,94.806 448.806,93.5 450.417,93.5 C452.027,93.5 453.333,94.806 453.333,96.417 Z M459.167,96.417 C459.167,91.584 455.249,87.667 450.417,87.667 C445.584,87.667 441.667,91.584 441.667,96.417 C441.667,101.249 445.584,105.167 450.417,105.167 C455.249,105.167 459.167,101.249 459.167,96.417 Z M482.5,125.583 C482.5,127.194 481.194,128.5 479.583,128.5 C477.973,128.5 476.667,127.194 476.667,125.583 C476.667,123.973 477.973,122.667 479.583,122.667 C481.194,122.667 482.5,123.973 482.5,125.583 Z M488.333,125.583 C488.333,120.751 484.416,116.833 479.583,116.833 C474.751,116.833 470.833,120.751 470.833,125.583 C470.833,130.416 474.751,134.333 479.583,134.333 C484.416,134.333 488.333,130.416 488.333,125.583 Z" />
        </g>
        <g id="Black-M" transform="translate(0,200)">
            <path d="M683.354,88.521 L642.521,129.354 C641.382,130.493 641.382,132.34 642.521,133.479 C643.66,134.618 645.507,134.618 646.646,133.479 L687.479,92.646 C688.618,91.507 688.618,89.66 687.479,88.521 C686.34,87.382 684.493,87.382 683.354,88.521 Z M653.333,96.417 C653.333,98.027 652.028,99.333 650.417,99.333 C648.806,99.333 647.5,98.027 647.5,96.417 C647.5,94.806 648.806,93.5 650.417,93.5 C652.028,93.5 653.333,94.806 653.333,96.417 Z M659.167,96.417 C659.167,91.584 655.249,87.667 650.417,87.667 C645.584,87.667 641.667,91.584 641.667,96.417 C641.667,101.249 645.584,105.167 650.417,105.167 C655.249,105.167 659.167,101.249 659.167,96.417 Z M682.5,125.583 C682.5,127.194 681.194,128.5 679.583,128.5 C677.973,128.5 676.667,127.194 676.667,125.583 C676.667,123.973 677.973,122.667 679.583,122.667 C681.194,122.667 682.5,123.973 682.5,125.583 Z M688.333,125.583 C688.333,120.751 684.416,116.833 679.583,116.833 C674.751,116.833 670.833,120.751 670.833,125.583 C670.833,130.416 674.751,134.333 679.583,134.333 C684.416,134.333 688.333,130.416 688.333,125.583 Z" />
        </g>
    </g>
</svg>