<?xml version="1.0" encoding="UTF-8"?>
<svg height="600" width="800" xmlns="http://www.w3.org/2000/svg" xmlns:xlink="http://www.w3.org/1999/xlink">
    <g id="Notes" font-family="LucidaGrande, 'Lucida Grande', sans-serif" font-size="13">
        <rect fill="white" height="600.0" width="800.0" x="0.0" y="0.0" />
        <g font-size="13">
            <text x="18.0" y="176.0">Small</text>
            <text x="18.0" y="376.0">Medium</text>
            <text x="18.0" y="576.0">Large</text>
        </g>
        <g font-size="9">
            <text x="250.0" y="30.0">Ultralight</text>
            <text x="450.0" y="30.0">Regular</text>
            <text x="650.0" y="30.0">Black</text>
            <text id="template-version" fill="#505050" text-anchor="end" x="785.0" y="575.0">Template v.3.0</text>
            <a href="https://github.com/swhitty/SwiftDraw">
                <text fill="#505050" text-anchor="end" x="785.0" y="590.0">https://github.com/swhitty/SwiftDraw</text>
            </a>
        </g>
    </g>
    <g id="Guides" stroke="rgb(39, 170, 225)" stroke-width="0.5">
        <path id="Capline-S" d="M18,76 l800,0" />
        <path id="H-reference" d="M85,145.755 L87.685,145.755 L113.369,79.287 L114.052,79.287 L114.052,76 L112.148,76 L85,145.755 Z M95.693,121.536 L130.996,121.536 L130.263,119.313 L96.474,119.313 L95.693,121.536 Z M139.15,145.755 L141.787,145.755 L114.638,76 L113.466,76 L113.466,79.287 L139.15,145.755 Z" stroke="none" transform="translate(0,200)" />
        <path id="Baseline-S" d="M18,146 l800,0" />
        <path id="left-margin-Ultralight-M" d="M221,256 l0,110" />
        <path id="right-margin-Ultralight-M" d="M309,256 l0,110" />
        <path id="left-margin-Regular-M" d="M421,256 l0,110" />
        <path id="right-margin-Regular-M" d="M509,256 l0,110" />
        <path id="left-margin-Black-M" d="M621,256 l0,110" />
        <path id="right-margin-Black-M" d="M709,256 l0,110" />
        <path id="Capline-M" d="M18,276 l800,0" />
        <path id="Baseline-M" d="M18,346 l800,0" />
        <path id="Capline-L" d="M18,476 l800,0" />
        <path id="Baseline-L" d="M18,546 l800,0" />
    </g>
    <g id="Symbols">
        <g id="Ultralight-M" transform="translate(0,200)">
            <path d="M283.551,120.411 C283.551,121.98 283.543,122.509 283.499,122.989 C283.471,123.298 283.453,123.362 283.552,123.241 C283.55,123.243 283.55,123.243 283.55,123.243 C283.705,123.249 283.645,123.221 283.397,123.037 C283.008,122.749 282.603,122.401 281.434,121.361 L270.847,111.952 C270.001,111.199 269.771,110.971 269.733,110.904 C269.748,110.93 269.763,110.963 269.776,111.001 C269.777,111.001 269.777,111.001 269.777,111.001 C269.763,111.039 269.748,111.072 269.733,111.098 C269.771,111.031 270.001,110.803 270.848,110.049 L281.433,100.64 C282.607,99.597 283.008,99.253 283.396,98.965 C283.646,98.78 283.709,98.75 283.554,98.756 C283.551,98.757 283.551,98.757 283.551,98.757 C283.453,98.637 283.472,98.703 283.499,99.012 C283.543,99.493 283.551,100.022 283.551,101.591 L283.551,120.411 Z M287.793,120.411 L287.793,101.591 C287.793,97.797 287.736,97.167 286.826,96.062 C285.985,95.039 284.714,94.468 283.391,94.518 C281.959,94.574 281.452,94.949 278.616,97.47 L268.029,106.88 C266.712,108.052 266.415,108.347 266.038,109.016 C265.933,109.203 265.845,109.396 265.774,109.597 C265.455,110.506 265.455,111.496 265.774,112.405 C265.845,112.606 265.933,112.799 266.038,112.986 C266.415,113.655 266.712,113.95 268.028,115.121 L278.616,124.53 C281.448,127.05 281.961,127.43 283.394,127.482 C284.712,127.531 285.981,126.962 286.822,125.942 C287.736,124.837 287.793,124.206 287.793,120.411 Z M260.223,120.411 C260.223,121.98 260.215,122.509 260.171,122.989 C260.144,123.298 260.125,123.362 260.224,123.241 C260.223,123.243 260.223,123.243 260.223,123.243 C260.377,123.249 260.317,123.221 260.069,123.037 C259.681,122.749 259.275,122.401 258.107,121.361 L247.519,111.952 C246.673,111.199 246.443,110.971 246.406,110.904 C246.42,110.93 246.435,110.963 246.448,111.001 C246.449,111.001 246.449,111.001 246.449,111.001 C246.435,111.039 246.42,111.072 246.406,111.098 C246.443,111.031 246.673,110.803 247.52,110.049 L258.106,100.64 C259.279,99.597 259.68,99.253 260.068,98.965 C260.318,98.78 260.381,98.75 260.226,98.756 C260.223,98.757 260.223,98.757 260.223,98.757 C260.125,98.637 260.144,98.703 260.172,99.012 C260.215,99.493 260.223,100.022 260.223,101.591 L260.223,120.411 Z M264.465,120.411 L264.465,101.591 C264.465,97.797 264.408,97.167 263.498,96.062 C262.657,95.039 261.386,94.468 260.063,94.518 C258.631,94.574 258.124,94.949 255.288,97.47 L244.701,106.88 C243.384,108.052 243.087,108.347 242.71,109.016 C242.605,109.203 242.517,109.396 242.446,109.597 C242.127,110.506 242.127,111.496 242.446,112.405 C242.517,112.606 242.605,112.799 242.71,112.986 C243.087,113.655 243.384,113.95 244.7,115.121 L255.288,124.53 C258.12,127.05 258.633,127.43 260.066,127.482 C261.384,127.531 262.653,126.962 263.495,125.942 C264.408,124.837 264.465,124.206 264.465,120.411 Z" />
        </g>
        <g id="Regular-M" transform="translate(0,200)">
            <path d="M483.551,120.411 C483.551,121.98 483.543,122.509 483.499,122.989 C483.471,123.298 483.453,123.362 483.552,123.241 C483.55,123.243 483.55,123.243 483.55,123.243 C483.705,123.249 483.645,123.221 483.397,123.037 C483.008,122.749 482.603,122.401 481.434,121.361 L470.847,111.952 C470.001,111.199 469.771,110.971 469.733,110.904 C469.748,110.93 469.763,110.963 469.776,111.001 C469.777,111.001 469.777,111.001 469.777,111.001 C469.763,111.039 469.748,111.072 469.733,111.098 C469.771,111.031 470.001,110.803 470.848,110.049 L481.433,100.64 C482.607,99.597 483.008,99.253 483.396,98.965 C483.646,98.78 483.709,98.75 483.554,98.756 C483.551,98.757 483.551,98.757 483.551,98.757 C483.453,98.637 483.472,98.703 483.499,99.012 C483.543,99.493 483.551,100.022 483.551,101.591 L483.551,120.411 Z M487.793,120.411 L487.793,101.591 C487.793,97.797 487.736,97.167 486.826,96.062 C485.985,95.039 484.714,94.468 483.391,94.518 C481.959,94.574 481.452,94.949 478.616,97.47 L468.029,106.88 C466.712,108.052 466.415,108.347 466.038,109.016 C465.933,109.203 465.845,109.396 465.774,109.597 C465.455,110.506 465.455,111.496 465.774,112.405 C465.845,112.606 465.933,112.799 466.038,112.986 C466.415,113.655 466.712,113.95 468.028,115.121 L478.616,124.53 C481.448,127.05 481.961,127.43 483.394,127.482 C484.712,127.531 485.981,126.962 486.822,125.942 C487.736,124.837 487.793,124.206 487.793,120.411 Z M460.223,120.411 C460.223,121.98 460.215,122.509 460.171,122.989 C460.144,123.298 460.125,123.362 460.224,123.241 C460.223,123.243 460.223,123.243 460.223,123.243 C460.377,123.249 460.317,123.221 460.069,123.037 C459.681,122.749 459.275,122.401 458.107,121.361 L447.519,111.952 C446.673,111.199 446.443,110.971 446.406,110.904 C446.42,110.93 446.435,110.963 446.448,111.001 C446.449,111.001 446.449,111.001 446.449,111.001 C446.435,111.039 446.42,111.072 446.406,111.098 C446.443,111.031 446.673,110.803 447.52,110.049 L458.106,100.64 C459.279,99.597 459.68,99.253 460.068,98.965 C460.318,98.78 460.381,98.75 460.226,98.756 C460.223,98.757 460.223,98.757 460.223,98.757 C460.125,98.637 460.144,98.703 460.172,99.012 C460.215,99.493 460.223,100.022 460.223,101.591 L460.223,120.411 Z M464.465,120.411 L464.465,101.591 C464.465,97.797 464.408,97.167 463.498,96.062 C462.657,95.039 461.386,94.468 460.063,94.518 C458.631,94.574 458.124,94.949 455.288,97.47 L444.701,106.88 C443.384,108.052 443.087,108.347 442.71,109.016 C442.605,109.203 442.517,109.396 442.446,109.597 C442.127,110.506 442.127,111.496 442.446,112.405 C442.517,112.606 442.605,112.799 442.71,112.986 C443.087,113.655 443.384,113.95 444.7,115.121 L455.288,124.53 C458.12,127.05 458.633,127.43 460.066,127.482 C461.384,127.531 462.653,126.962 463.495,125.942 C464.408,124.837 464.465,124.206 464.465,120.411 Z" />
        </g>
        <g id="Black-M" transform="translate(0,200)">
            <path d="M683.551,120.411 C683.551,121.98 683.543,122.509 683.499,122.989 C683.471,123.298 683.453,123.362 683.552,123.241 C683.55,123.243 683.55,123.243 683.55,123.243 C683.705,123.249 683.645,123.221 683.397,123.037 C683.008,122.749 682.603,122.401 681.435,121.361 L670.847,111.952 C670.001,111.199 669.771,110.971 669.734,110.904 C669.748,110.93 669.763,110.963 669.776,111.001 C669.777,111.001 669.777,111.001 669.777,111.001 C669.763,111.039 669.748,111.072 669.734,111.098 C669.771,111.031 670.001,110.803 670.848,110.049 L681.434,100.64 C682.607,99.597 683.008,99.253 683.396,98.965 C683.646,98.78 683.709,98.75 683.554,98.756 C683.551,98.757 683.551,98.757 683.551,98.757 C683.453,98.637 683.472,98.703 683.499,99.012 C683.543,99.493 683.551,100.022 683.551,101.591 L683.551,120.411 Z M687.793,120.411 L687.793,101.591 C687.793,97.797 687.736,97.167 686.826,96.062 C685.985,95.039 684.714,94.468 683.391,94.518 C681.959,94.574 681.452,94.949 678.616,97.47 L668.029,106.88 C666.712,108.052 666.415,108.347 666.038,109.016 C665.933,109.203 665.845,109.396 665.774,109.597 C665.455,110.506 665.455,111.496 665.774,112.405 C665.845,112.606 665.933,112.799 666.038,112.986 C666.415,113.655 666.712,113.95 668.028,115.121 L678.616,124.53 C681.448,127.05 681.961,127.43 683.394,127.482 C684.712,127.531 685.981,126.962 686.823,125.942 C687.736,124.837 687.793,124.206 687.793,120.411 Z M660.224,120.411 C660.224,121.98 660.215,122.509 660.171,122.989 C660.144,123.298 660.125,123.362 660.224,123.241 C660.223,123.243 660.223,123.243 660.223,123.243 C660.377,123.249 660.317,123.221 660.069,123.037 C659.681,122.749 659.275,122.401 658.107,121.361 L647.519,111.952 C646.673,111.199 646.443,110.971 646.406,110.904 C646.42,110.93 646.435,110.963 646.448,111.001 C646.449,111.001 646.449,111.001 646.449,111.001 C646.435,111.039 646.42,111.072 646.406,111.098 C646.443,111.031 646.673,110.803 647.52,110.049 L658.106,100.64 C659.279,99.597 659.68,99.253 660.068,98.965 C660.318,98.78 660.381,98.75 660.226,98.756 C660.223,98.757 660.223,98.757 660.223,98.757 C660.125,98.637 660.144,98.703 660.172,99.012 C660.215,99.493 660.224,100.022 660.224,101.591 L660.224,120.411 Z M664.465,120.411 L664.465,101.591 C664.465,97.797 664.408,97.167 663.498,96.062 C662.657,95.039 661.386,94.468 660.063,94.518 C658.631,94.574 658.124,94.949 655.288,97.47 L644.701,106.88 C643.384,108.052 643.087,108.347 642.71,109.016 C642.605,109.203 642.517,109.396 642.446,109.597 C642.128,110.506 642.128,111.496 642.446,112.405 C642.517,112.606 642.605,112.799 642.71,112.986 C643.087,113.655 643.384,113.95 644.7,115.121 L655.288,124.53 C658.12,127.05 658.633,127.43 660.066,127.482 C661.384,127.531 662.653,126.962 663.495,125.942 C664.408,124.837 664.465,124.206 664.465,120.411 Z" />
        </g>
    </g>
</svg>