<?xml version="1.0" encoding="UTF-8"?>
<svg height="600" width="800" xmlns="http://www.w3.org/2000/svg" xmlns:xlink="http://www.w3.org/1999/xlink">
    <g id="Notes" font-family="LucidaGrande, 'Lucida Grande', sans-serif" font-size="13">
        <rect fill="white" height="600.0" width="800.0" x="0.0" y="0.0" />
        <g font-size="13">
            <text x="18.0" y="176.0">Small</text>
            <text x="18.0" y="376.0">Medium</text>
            <text x="18.0" y="576.0">Large</text>
        </g>
        <g font-size="9">
            <text x="250.0" y="30.0">Ultralight</text>
            <text x="450.0" y="30.0">Regular</text>
            <text x="650.0" y="30.0">Black</text>
            <text id="template-version" fill="#505050" text-anchor="end" x="785.0" y="575.0">Template v.3.0</text>
            <a href="https://github.com/swhitty/SwiftDraw">
                <text fill="#505050" text-anchor="end" x="785.0" y="590.0">https://github.com/swhitty/SwiftDraw</text>
            </a>
        </g>
    </g>
    <g id="Guides" stroke="rgb(39, 170, 225)" stroke-width="0.5">
        <path id="Capline-S" d="M18,76 l800,0" />
        <path id="H-reference" d="M85,145.755 L87.685,145.755 L113.369,79.287 L114.052,79.287 L114.052,76 L112.148,76 L85,145.755 Z M95.693,121.536 L130.996,121.536 L130.263,119.313 L96.474,119.313 L95.693,121.536 Z M139.15,145.755 L141.787,145.755 L114.638,76 L113.466,76 L113.466,79.287 L139.15,145.755 Z" stroke="none" transform="translate(0,200)" />
        <path id="Baseline-S" d="M18,146 l800,0" />
        <path id="left-margin-Ultralight-M" d="M230,256 l0,110" />
        <path id="right-margin-Ultralight-M" d="M300,256 l0,110" />
        <path id="left-margin-Regular-M" d="M430,256 l0,110" />
        <path id="right-margin-Regular-M" d="M500,256 l0,110" />
        <path id="left-margin-Black-M" d="M630,256 l0,110" />
        <path id="right-margin-Black-M" d="M700,256 l0,110" />
        <path id="Capline-M" d="M18,276 l800,0" />
        <path id="Baseline-M" d="M18,346 l800,0" />
        <path id="Capline-L" d="M18,476 l800,0" />
        <path id="Baseline-L" d="M18,546 l800,0" />
    </g>
    <g id="Symbols">
        <g id="Ultralight-M" transform="translate(0,200)">
            <path d="M291.25,123.941 C291.25,126.1 291.238,126.827 291.178,127.488 C291.14,127.912 291.114,128 291.251,127.835 C291.249,127.837 291.249,127.837 291.249,127.837 C291.461,127.845 291.379,127.806 291.037,127.553 C290.503,127.158 289.946,126.678 288.339,125.248 L273.777,112.308 C272.613,111.272 272.298,110.959 272.246,110.867 C272.266,110.903 272.287,110.948 272.305,110.999 C272.305,111 272.305,111 272.305,111 C272.287,111.052 272.266,111.097 272.246,111.133 C272.298,111.041 272.613,110.728 273.779,109.69 L288.337,96.75 C289.951,95.316 290.502,94.843 291.036,94.447 C291.38,94.192 291.467,94.152 291.253,94.16 C291.249,94.16 291.249,94.16 291.249,94.16 C291.114,93.996 291.14,94.086 291.179,94.511 C291.238,95.172 291.25,95.9 291.25,98.059 L291.25,123.941 Z M297.083,123.941 L297.083,98.059 C297.083,92.841 297.005,91.974 295.754,90.454 C294.597,89.048 292.849,88.262 291.029,88.331 C289.06,88.408 288.363,88.924 284.462,92.39 L269.902,105.332 C268.09,106.945 267.682,107.35 267.164,108.27 C267.019,108.527 266.898,108.792 266.801,109.069 C266.362,110.319 266.362,111.681 266.801,112.931 C266.898,113.208 267.019,113.473 267.164,113.73 C267.682,114.65 268.09,115.055 269.9,116.667 L284.462,129.607 C288.357,133.073 289.062,133.595 291.033,133.666 C292.847,133.735 294.592,132.952 295.749,131.549 C297.005,130.029 297.083,129.161 297.083,123.941 Z M259.167,123.941 C259.167,126.1 259.155,126.827 259.095,127.488 C259.057,127.912 259.031,128 259.167,127.835 C259.165,127.837 259.165,127.837 259.165,127.837 C259.378,127.845 259.295,127.806 258.954,127.553 C258.42,127.158 257.863,126.678 256.255,125.248 L241.694,112.308 C240.53,111.272 240.215,110.959 240.163,110.867 C240.183,110.903 240.204,110.948 240.222,110.999 C240.222,111 240.222,111 240.222,111 C240.204,111.052 240.183,111.097 240.163,111.133 C240.215,111.041 240.53,110.728 241.696,109.69 L256.254,96.75 C257.868,95.316 258.419,94.843 258.953,94.447 C259.297,94.192 259.383,94.152 259.17,94.16 C259.166,94.16 259.166,94.16 259.166,94.16 C259.031,93.996 259.057,94.086 259.095,94.511 C259.155,95.172 259.167,95.9 259.167,98.059 L259.167,123.941 Z M265,123.941 L265,98.059 C265,92.841 264.922,91.974 263.67,90.454 C262.514,89.048 260.766,88.262 258.946,88.331 C256.977,88.408 256.28,88.924 252.379,92.39 L237.819,105.332 C236.007,106.945 235.599,107.35 235.08,108.27 C234.936,108.527 234.815,108.792 234.718,109.069 C234.279,110.319 234.279,111.681 234.717,112.931 C234.815,113.208 234.936,113.473 235.08,113.73 C235.599,114.65 236.007,115.055 237.817,116.667 L252.379,129.607 C256.273,133.073 256.979,133.595 258.95,133.666 C260.763,133.735 262.508,132.952 263.665,131.549 C264.922,130.029 265,129.161 265,123.941 Z" />
        </g>
        <g id="Regular-M" transform="translate(0,200)">
            <path d="M491.25,123.941 C491.25,126.1 491.238,126.827 491.178,127.488 C491.14,127.912 491.114,128 491.251,127.835 C491.249,127.837 491.249,127.837 491.249,127.837 C491.461,127.845 491.379,127.806 491.037,127.553 C490.503,127.158 489.946,126.678 488.339,125.248 L473.777,112.308 C472.613,111.272 472.298,110.959 472.246,110.867 C472.266,110.903 472.287,110.948 472.305,110.999 C472.305,111 472.305,111 472.305,111 C472.287,111.052 472.266,111.097 472.246,111.133 C472.298,111.041 472.613,110.728 473.779,109.69 L488.337,96.75 C489.951,95.316 490.502,94.843 491.036,94.447 C491.38,94.192 491.467,94.152 491.253,94.16 C491.249,94.16 491.249,94.16 491.249,94.16 C491.114,93.996 491.14,94.086 491.179,94.511 C491.238,95.172 491.25,95.9 491.25,98.059 L491.25,123.941 Z M497.083,123.941 L497.083,98.059 C497.083,92.841 497.005,91.974 495.754,90.454 C494.597,89.048 492.849,88.262 491.029,88.331 C489.06,88.408 488.363,88.924 484.462,92.39 L469.902,105.332 C468.09,106.945 467.682,107.35 467.164,108.27 C467.019,108.527 466.898,108.792 466.801,109.069 C466.362,110.319 466.362,111.681 466.801,112.931 C466.898,113.208 467.019,113.473 467.164,113.73 C467.682,114.65 468.09,115.055 469.9,116.667 L484.462,129.607 C488.357,133.073 489.062,133.595 491.033,133.666 C492.847,133.735 494.592,132.952 495.749,131.549 C497.005,130.029 497.083,129.161 497.083,123.941 Z M459.167,123.941 C459.167,126.1 459.155,126.827 459.095,127.488 C459.057,127.912 459.031,128 459.167,127.835 C459.165,127.837 459.165,127.837 459.165,127.837 C459.378,127.845 459.295,127.806 458.954,127.553 C458.42,127.158 457.863,126.678 456.255,125.248 L441.694,112.308 C440.53,111.272 440.215,110.959 440.163,110.867 C440.183,110.903 440.204,110.948 440.222,110.999 C440.222,111 440.222,111 440.222,111 C440.204,111.052 440.183,111.097 440.163,111.133 C440.215,111.041 440.53,110.728 441.696,109.69 L456.254,96.75 C457.868,95.316 458.419,94.843 458.953,94.447 C459.297,94.192 459.383,94.152 459.17,94.16 C459.166,94.16 459.166,94.16 459.166,94.16 C459.031,93.996 459.057,94.086 459.095,94.511 C459.155,95.172 459.167,95.9 459.167,98.059 L459.167,123.941 Z M465,123.941 L465,98.059 C465,92.841 464.922,91.974 463.67,90.454 C462.514,89.048 460.766,88.262 458.946,88.331 C456.977,88.408 456.28,88.924 452.379,92.39 L437.819,105.332 C436.007,106.945 435.599,107.35 435.08,108.27 C434.936,108.527 434.815,108.792 434.718,109.069 C434.279,110.319 434.279,111.681 434.717,112.931 C434.815,113.208 434.936,113.473 435.08,113.73 C435.599,114.65 436.007,115.055 437.817,116.667 L452.379,129.607 C456.273,133.073 456.979,133.595 458.95,133.666 C460.763,133.735 462.508,132.952 463.665,131.549 C464.922,130.029 465,129.161 465,123.941 Z" />
        </g>
        <g id="Black-M" transform="translate(0,200)">
            <path d="M691.25,123.941 C691.25,126.1 691.238,126.827 691.178,127.488 C691.14,127.912 691.114,128 691.251,127.835 C691.249,127.837 691.249,127.837 691.249,127.837 C691.461,127.845 691.379,127.806 691.037,127.553 C690.503,127.158 689.946,126.678 688.339,125.248 L673.777,112.308 C672.613,111.272 672.298,110.959 672.246,110.867 C672.266,110.903 672.287,110.948 672.305,110.999 C672.305,111 672.305,111 672.305,111 C672.287,111.052 672.266,111.097 672.246,111.133 C672.298,111.041 672.613,110.728 673.779,109.69 L688.337,96.75 C689.951,95.316 690.502,94.843 691.036,94.447 C691.38,94.192 691.467,94.152 691.253,94.16 C691.249,94.16 691.249,94.16 691.249,94.16 C691.114,93.996 691.14,94.086 691.179,94.511 C691.238,95.172 691.25,95.9 691.25,98.059 L691.25,123.941 Z M697.083,123.941 L697.083,98.059 C697.083,92.841 697.005,91.974 695.754,90.454 C694.597,89.048 692.849,88.262 691.029,88.331 C689.06,88.408 688.363,88.924 684.462,92.39 L669.902,105.332 C668.09,106.945 667.682,107.35 667.164,108.27 C667.019,108.527 666.898,108.792 666.801,109.069 C666.362,110.319 666.362,111.681 666.801,112.931 C666.898,113.208 667.019,113.473 667.164,113.73 C667.682,114.65 668.09,115.055 669.9,116.667 L684.462,129.607 C688.357,133.073 689.062,133.595 691.033,133.666 C692.847,133.735 694.592,132.952 695.749,131.549 C697.005,130.029 697.083,129.161 697.083,123.941 Z M659.167,123.941 C659.167,126.1 659.155,126.827 659.095,127.488 C659.057,127.912 659.031,128 659.167,127.835 C659.165,127.837 659.165,127.837 659.165,127.837 C659.378,127.845 659.295,127.806 658.954,127.553 C658.42,127.158 657.863,126.678 656.255,125.248 L641.694,112.308 C640.53,111.272 640.215,110.959 640.163,110.867 C640.183,110.903 640.204,110.948 640.222,110.999 C640.222,111 640.222,111 640.222,111 C640.204,111.052 640.183,111.097 640.163,111.133 C640.215,111.041 640.53,110.728 641.696,109.69 L656.254,96.75 C657.868,95.316 658.419,94.843 658.953,94.447 C659.297,94.192 659.383,94.152 659.17,94.16 C659.166,94.16 659.166,94.16 659.166,94.16 C659.031,93.996 659.057,94.086 659.095,94.511 C659.155,95.172 659.167,95.9 659.167,98.059 L659.167,123.941 Z M665,123.941 L665,98.059 C665,92.841 664.922,91.974 663.67,90.454 C662.514,89.048 660.766,88.262 658.946,88.331 C656.977,88.408 656.28,88.924 652.379,92.39 L637.819,105.332 C636.007,106.945 635.599,107.35 635.08,108.27 C634.936,108.527 634.815,108.792 634.718,109.069 C634.279,110.319 634.279,111.681 634.717,112.931 C634.815,113.208 634.936,113.473 635.08,113.73 C635.599,114.65 636.007,115.055 637.817,116.667 L652.379,129.607 C656.273,133.073 656.979,133.595 658.95,133.666 C660.763,133.735 662.508,132.952 663.665,131.549 C664.922,130.029 665,129.161 665,123.941 Z" />
        </g>
    </g>
</svg>