<?xml version="1.0" encoding="UTF-8"?>
<svg height="600" width="800" xmlns="http://www.w3.org/2000/svg" xmlns:xlink="http://www.w3.org/1999/xlink">
    <g id="Notes" font-family="LucidaGrande, 'Lucida Grande', sans-serif" font-size="13">
        <rect fill="white" height="600.0" width="800.0" x="0.0" y="0.0" />
        <g font-size="13">
            <text x="18.0" y="176.0">Small</text>
            <text x="18.0" y="376.0">Medium</text>
            <text x="18.0" y="576.0">Large</text>
        </g>
        <g font-size="9">
            <text x="250.0" y="30.0">Ultralight</text>
            <text x="450.0" y="30.0">Regular</text>
            <text x="650.0" y="30.0">Black</text>
            <text id="template-version" fill="#505050" text-anchor="end" x="785.0" y="575.0">Template v.3.0</text>
            <a href="https://github.com/swhitty/SwiftDraw">
                <text fill="#505050" text-anchor="end" x="785.0" y="590.0">https://github.com/swhitty/SwiftDraw</text>
            </a>
        </g>
    </g>
    <g id="Guides" stroke="rgb(39, 170, 225)" stroke-width="0.5">
        <path id="Capline-S" d="M18,76 l800,0" />
        <path id="H-reference" d="M85,145.755 L87.685,145.755 L113.369,79.287 L114.052,79.287 L114.052,76 L112.148,76 L85,145.755 Z M95.693,121.536 L130.996,121.536 L130.263,119.313 L96.474,119.313 L95.693,121.536 Z M139.15,145.755 L141.787,145.755 L114.638,76 L113.466,76 L113.466,79.287 L139.15,145.755 Z" stroke="none" transform="translate(0,200)" />
        <path id="Baseline-S" d="M18,146 l800,0" />
        <path id="left-margin-Ultralight-M" d="M228.25,256 l0,110" />
        <path id="right-margin-Ultralight-M" d="M301.75,256 l0,110" />
        <path id="left-margin-Regular-M" d="M428.25,256 l0,110" />
        <path id="right-margin-Regular-M" d="M501.75,256 l0,110" />
        <path id="left-margin-Black-M" d="M628.25,256 l0,110" />
        <path id="right-margin-Black-M" d="M701.75,256 l0,110" />
        <path id="Capline-M" d="M18,276 l800,0" />
        <path id="Baseline-M" d="M18,346 l800,0" />
        <path id="Capline-L" d="M18,476 l800,0" />
        <path id="Baseline-L" d="M18,546 l800,0" />
    </g>
    <g id="Symbols">
        <g id="Ultralight-M" transform="translate(0,200)">
            <path d="M294.429,109.974 C294.894,110.844 294.99,111.045 294.988,111.036 C294.984,111.019 294.984,111.019 294.98,111.001 C294.98,110.999 294.98,110.998 294.98,110.997 C294.979,110.999 294.979,110.999 294.983,110.981 C294.989,110.957 294.895,111.154 294.429,112.026 L280.516,137.92 C280.078,138.732 279.945,138.966 279.863,139.077 C279.874,139.062 279.903,139.029 279.943,138.991 C279.93,139.003 279.93,139.003 279.93,139.003 C279.979,138.987 279.762,139 278.739,139 L251.261,139 C250.238,139 250.021,138.987 250.055,138.998 C250.07,139.003 250.07,139.003 250.07,139.003 C250.096,139.029 249.98,138.84 249.483,137.917 L235.571,112.02 C235.107,111.158 235.01,110.954 235.012,110.963 C235.016,110.981 235.016,110.981 235.02,110.999 C235.02,111.002 235.02,111.002 235.02,111.002 C235.02,111.001 235.02,111.001 235.017,111.019 C235.011,111.043 235.105,110.846 235.571,109.974 L249.484,84.08 C249.922,83.268 250.055,83.034 250.136,82.923 C250.126,82.938 250.097,82.971 250.056,83.009 C250.07,82.997 250.07,82.997 250.07,82.997 C250.021,83.013 250.238,83 251.261,83 L278.739,83 C279.762,83 279.979,83.013 279.945,83.002 C279.93,82.997 279.93,82.997 279.93,82.997 C279.904,82.971 280.02,83.16 280.517,84.083 L294.429,109.98 C295.026,111.091 296.158,111.781 297.388,111.781 L297.391,111.781 L297.391,108.281 L294.429,109.974 Z M300.354,106.587 C299.758,105.472 298.623,104.781 297.391,104.781 L297.388,104.781 L297.388,108.281 L300.347,106.581 L286.434,80.681 C285.519,78.982 285.254,78.552 284.526,77.857 C283.819,77.181 282.979,76.668 282.063,76.353 C281.108,76.03 280.616,76 278.739,76 L251.261,76 C249.383,76 248.892,76.03 247.952,76.348 C247.021,76.668 246.18,77.181 245.472,77.858 C245.212,78.104 244.969,78.384 244.741,78.694 C244.382,79.184 244.199,79.505 243.567,80.678 L229.649,106.581 C228.8,108.17 228.63,108.527 228.428,109.406 C228.406,109.508 228.406,109.508 228.385,109.61 C228.204,110.522 228.204,111.482 228.389,112.412 C228.412,112.527 228.412,112.527 228.438,112.637 C228.644,113.501 228.83,113.891 229.654,115.421 L243.566,141.319 C244.481,143.018 244.746,143.448 245.474,144.143 C246.18,144.819 247.021,145.332 247.936,145.647 C248.892,145.97 249.383,146 251.261,146 L278.739,146 C280.616,146 281.108,145.97 282.048,145.652 C282.979,145.332 283.819,144.819 284.528,144.142 C284.788,143.896 285.031,143.616 285.258,143.306 C285.618,142.816 285.801,142.495 286.433,141.322 L300.351,115.419 C301.2,113.83 301.37,113.473 301.572,112.594 C301.594,112.492 301.594,112.492 301.615,112.39 C301.796,111.479 301.796,110.518 301.611,109.586 C301.587,109.473 301.587,109.473 301.562,109.363 C301.357,108.504 301.181,108.134 300.354,106.587 Z" />
        </g>
        <g id="Regular-M" transform="translate(0,200)">
            <path d="M494.429,109.974 C494.894,110.844 494.99,111.045 494.988,111.036 C494.984,111.019 494.984,111.019 494.98,111.001 C494.98,110.999 494.98,110.998 494.98,110.997 C494.979,110.999 494.979,110.999 494.983,110.981 C494.989,110.957 494.895,111.154 494.429,112.026 L480.516,137.92 C480.078,138.732 479.945,138.966 479.863,139.077 C479.874,139.062 479.903,139.029 479.943,138.991 C479.93,139.003 479.93,139.003 479.93,139.003 C479.979,138.987 479.762,139 478.739,139 L451.261,139 C450.238,139 450.021,138.987 450.055,138.998 C450.07,139.003 450.07,139.003 450.07,139.003 C450.096,139.029 449.98,138.84 449.483,137.917 L435.571,112.02 C435.107,111.158 435.01,110.954 435.012,110.963 C435.016,110.981 435.016,110.981 435.02,110.999 C435.02,111.002 435.02,111.002 435.02,111.002 C435.02,111.001 435.02,111.001 435.017,111.019 C435.011,111.043 435.105,110.846 435.571,109.974 L449.484,84.08 C449.922,83.268 450.055,83.034 450.136,82.923 C450.126,82.938 450.097,82.971 450.056,83.009 C450.07,82.997 450.07,82.997 450.07,82.997 C450.021,83.013 450.238,83 451.261,83 L478.739,83 C479.762,83 479.979,83.013 479.945,83.002 C479.93,82.997 479.93,82.997 479.93,82.997 C479.904,82.971 480.02,83.16 480.517,84.083 L494.429,109.98 C495.026,111.091 496.158,111.781 497.388,111.781 L497.391,111.781 L497.391,108.281 L494.429,109.974 Z M500.354,106.587 C499.758,105.472 498.623,104.781 497.391,104.781 L497.388,104.781 L497.388,108.281 L500.347,106.581 L486.434,80.681 C485.519,78.982 485.254,78.552 484.526,77.857 C483.819,77.181 482.979,76.668 482.063,76.353 C481.108,76.03 480.616,76 478.739,76 L451.261,76 C449.383,76 448.892,76.03 447.952,76.348 C447.021,76.668 446.18,77.181 445.472,77.858 C445.212,78.104 444.969,78.384 444.741,78.694 C444.382,79.184 444.199,79.505 443.567,80.678 L429.649,106.581 C428.8,108.17 428.629,108.527 428.428,109.406 C428.406,109.508 428.406,109.508 428.385,109.61 C428.204,110.522 428.204,111.482 428.389,112.412 C428.412,112.527 428.412,112.527 428.438,112.637 C428.644,113.501 428.83,113.891 429.654,115.421 L443.566,141.319 C444.481,143.018 444.746,143.448 445.474,144.143 C446.18,144.819 447.021,145.332 447.936,145.647 C448.892,145.97 449.383,146 451.261,146 L478.739,146 C480.616,146 481.108,145.97 482.048,145.652 C482.979,145.332 483.819,144.819 484.528,144.142 C484.788,143.896 485.031,143.616 485.258,143.306 C485.618,142.816 485.801,142.495 486.433,141.322 L500.351,115.419 C501.2,113.83 501.37,113.473 501.572,112.594 C501.594,112.492 501.594,112.492 501.615,112.39 C501.796,111.479 501.796,110.518 501.611,109.586 C501.587,109.473 501.587,109.473 501.562,109.363 C501.357,108.504 501.181,108.134 500.354,106.587 Z" />
        </g>
        <g id="Black-M" transform="translate(0,200)">
            <path d="M694.429,109.974 C694.894,110.844 694.99,111.045 694.988,111.036 C694.984,111.019 694.984,111.019 694.98,111.001 C694.98,110.999 694.98,110.998 694.98,110.997 C694.979,110.999 694.979,110.999 694.983,110.981 C694.989,110.957 694.895,111.154 694.429,112.026 L680.516,137.92 C680.078,138.732 679.945,138.966 679.863,139.077 C679.874,139.062 679.903,139.029 679.943,138.991 C679.93,139.003 679.93,139.003 679.93,139.003 C679.979,138.987 679.762,139 678.739,139 L651.261,139 C650.238,139 650.021,138.987 650.055,138.998 C650.07,139.003 650.07,139.003 650.07,139.003 C650.096,139.029 649.98,138.84 649.483,137.917 L635.571,112.02 C635.107,111.158 635.01,110.954 635.012,110.963 C635.016,110.981 635.016,110.981 635.02,110.999 C635.02,111.002 635.02,111.002 635.02,111.002 C635.02,111.001 635.02,111.001 635.017,111.019 C635.011,111.043 635.105,110.846 635.571,109.974 L649.484,84.08 C649.922,83.268 650.055,83.034 650.136,82.923 C650.126,82.938 650.097,82.971 650.056,83.009 C650.07,82.997 650.07,82.997 650.07,82.997 C650.021,83.013 650.238,83 651.261,83 L678.739,83 C679.762,83 679.979,83.013 679.945,83.002 C679.93,82.997 679.93,82.997 679.93,82.997 C679.904,82.971 680.02,83.16 680.517,84.083 L694.429,109.98 C695.026,111.091 696.158,111.781 697.388,111.781 L697.391,111.781 L697.391,108.281 L694.429,109.974 Z M700.354,106.587 C699.758,105.472 698.623,104.781 697.391,104.781 L697.388,104.781 L697.388,108.281 L700.347,106.581 L686.434,80.681 C685.519,78.982 685.254,78.552 684.526,77.857 C683.819,77.181 682.979,76.668 682.063,76.353 C681.108,76.03 680.616,76 678.739,76 L651.261,76 C649.383,76 648.892,76.03 647.952,76.348 C647.021,76.668 646.18,77.181 645.472,77.858 C645.212,78.104 644.969,78.384 644.741,78.694 C644.382,79.184 644.199,79.505 643.567,80.678 L629.649,106.581 C628.8,108.17 628.63,108.527 628.428,109.406 C628.406,109.508 628.406,109.508 628.385,109.61 C628.204,110.522 628.204,111.482 628.389,112.412 C628.412,112.527 628.412,112.527 628.438,112.637 C628.644,113.501 628.83,113.891 629.654,115.421 L643.566,141.319 C644.481,143.018 644.746,143.448 645.474,144.143 C646.18,144.819 647.021,145.332 647.936,145.647 C648.892,145.97 649.383,146 651.261,146 L678.739,146 C680.616,146 681.108,145.97 682.048,145.652 C682.979,145.332 683.819,144.819 684.528,144.142 C684.788,143.896 685.031,143.616 685.258,143.306 C685.618,142.816 685.801,142.495 686.433,141.322 L700.351,115.419 C701.2,113.83 701.37,113.473 701.572,112.594 C701.594,112.492 701.594,112.492 701.615,112.39 C701.796,111.479 701.796,110.518 701.611,109.586 C701.587,109.473 701.587,109.473 701.562,109.363 C701.357,108.504 701.181,108.134 700.354,106.587 Z" />
        </g>
    </g>
</svg>