<?xml version="1.0" encoding="UTF-8"?>
<svg height="600" width="800" xmlns="http://www.w3.org/2000/svg" xmlns:xlink="http://www.w3.org/1999/xlink">
    <g id="Notes" font-family="LucidaGrande, 'Lucida Grande', sans-serif" font-size="13">
        <rect fill="white" height="600.0" width="800.0" x="0.0" y="0.0" />
        <g font-size="13">
            <text x="18.0" y="176.0">Small</text>
            <text x="18.0" y="376.0">Medium</text>
            <text x="18.0" y="576.0">Large</text>
        </g>
        <g font-size="9">
            <text x="250.0" y="30.0">Ultralight</text>
            <text x="450.0" y="30.0">Regular</text>
            <text x="650.0" y="30.0">Black</text>
            <text id="template-version" fill="#505050" text-anchor="end" x="785.0" y="575.0">Template v.3.0</text>
            <a href="https://github.com/swhitty/SwiftDraw">
                <text fill="#505050" text-anchor="end" x="785.0" y="590.0">https://github.com/swhitty/SwiftDraw</text>
            </a>
        </g>
    </g>
    <g id="Guides" stroke="rgb(39, 170, 225)" stroke-width="0.5">
        <path id="Capline-S" d="M18,76 l800,0" />
        <path id="H-reference" d="M85,145.755 L87.685,145.755 L113.369,79.287 L114.052,79.287 L114.052,76 L112.148,76 L85,145.755 Z M95.693,121.536 L130.996,121.536 L130.263,119.313 L96.474,119.313 L95.693,121.536 Z M139.15,145.755 L141.787,145.755 L114.638,76 L113.466,76 L113.466,79.287 L139.15,145.755 Z" stroke="none" transform="translate(0,200)" />
        <path id="Baseline-S" d="M18,146 l800,0" />
        <path id="left-margin-Ultralight-M" d="M230,256 l0,110" />
        <path id="right-margin-Ultralight-M" d="M300,256 l0,110" />
        <path id="left-margin-Regular-M" d="M430,256 l0,110" />
        <path id="right-margin-Regular-M" d="M500,256 l0,110" />
        <path id="left-margin-Black-M" d="M630,256 l0,110" />
        <path id="right-margin-Black-M" d="M700,256 l0,110" />
        <path id="Capline-M" d="M18,276 l800,0" />
        <path id="Baseline-M" d="M18,346 l800,0" />
        <path id="Capline-L" d="M18,476 l800,0" />
        <path id="Baseline-L" d="M18,546 l800,0" />
    </g>
    <g id="Symbols">
        <g id="Ultralight-M" transform="translate(0,200)">
            <path d="M246.042,105.167 L246.042,116.833 C246.042,118.444 247.348,119.75 248.958,119.75 C250.569,119.75 251.875,118.444 251.875,116.833 L251.875,105.167 C251.875,103.556 250.569,102.25 248.958,102.25 C247.348,102.25 246.042,103.556 246.042,105.167 Z M257.708,105.167 L257.708,116.833 C257.708,118.444 259.014,119.75 260.625,119.75 C262.236,119.75 263.542,118.444 263.542,116.833 L263.542,105.167 C263.542,103.556 262.236,102.25 260.625,102.25 C259.014,102.25 257.708,103.556 257.708,105.167 Z M269.375,105.167 L269.375,116.833 C269.375,118.444 270.681,119.75 272.292,119.75 C273.902,119.75 275.208,118.444 275.208,116.833 L275.208,105.167 C275.208,103.556 273.902,102.25 272.292,102.25 C270.681,102.25 269.375,103.556 269.375,105.167 Z M297.083,113.917 L297.083,108.083 C297.083,106.473 295.777,105.167 294.167,105.167 C292.556,105.167 291.25,106.473 291.25,108.083 L291.25,113.917 C291.25,115.527 292.556,116.833 294.167,116.833 C295.777,116.833 297.083,115.527 297.083,113.917 Z M249.833,131.417 L271.417,131.417 C278.128,131.417 279.723,131.286 281.963,130.145 C284.158,129.026 285.943,127.242 287.062,125.047 C288.203,122.806 288.333,121.211 288.333,114.5 L288.333,107.5 C288.333,100.789 288.203,99.194 287.062,96.954 C285.943,94.758 284.158,92.974 281.963,91.855 C279.723,90.714 278.128,90.583 271.417,90.583 L249.833,90.583 C243.122,90.583 241.527,90.714 239.287,91.855 C237.092,92.974 235.307,94.758 234.188,96.953 C233.047,99.194 232.917,100.789 232.917,107.5 L232.917,114.5 C232.917,121.211 233.047,122.806 234.188,125.046 C235.307,127.242 237.092,129.027 239.287,130.145 C241.527,131.286 243.122,131.417 249.833,131.417 Z M249.833,125.583 C244.294,125.583 242.971,125.475 241.935,124.947 C240.837,124.388 239.945,123.496 239.386,122.398 C238.858,121.362 238.75,120.039 238.75,114.5 L238.75,107.5 C238.75,101.961 238.858,100.638 239.386,99.601 C239.945,98.504 240.837,97.612 241.935,97.053 C242.971,96.525 244.294,96.417 249.833,96.417 L271.417,96.417 C276.956,96.417 278.279,96.525 279.315,97.053 C280.413,97.612 281.305,98.504 281.864,99.602 C282.392,100.638 282.5,101.961 282.5,107.5 L282.5,114.5 C282.5,120.039 282.392,121.362 281.864,122.399 C281.305,123.496 280.413,124.388 279.315,124.947 C278.279,125.475 276.956,125.583 271.417,125.583 L249.833,125.583 Z" />
        </g>
        <g id="Regular-M" transform="translate(0,200)">
            <path d="M446.042,105.167 L446.042,116.833 C446.042,118.444 447.348,119.75 448.958,119.75 C450.569,119.75 451.875,118.444 451.875,116.833 L451.875,105.167 C451.875,103.556 450.569,102.25 448.958,102.25 C447.348,102.25 446.042,103.556 446.042,105.167 Z M457.708,105.167 L457.708,116.833 C457.708,118.444 459.014,119.75 460.625,119.75 C462.236,119.75 463.542,118.444 463.542,116.833 L463.542,105.167 C463.542,103.556 462.236,102.25 460.625,102.25 C459.014,102.25 457.708,103.556 457.708,105.167 Z M469.375,105.167 L469.375,116.833 C469.375,118.444 470.681,119.75 472.292,119.75 C473.902,119.75 475.208,118.444 475.208,116.833 L475.208,105.167 C475.208,103.556 473.902,102.25 472.292,102.25 C470.681,102.25 469.375,103.556 469.375,105.167 Z M497.083,113.917 L497.083,108.083 C497.083,106.473 495.777,105.167 494.167,105.167 C492.556,105.167 491.25,106.473 491.25,108.083 L491.25,113.917 C491.25,115.527 492.556,116.833 494.167,116.833 C495.777,116.833 497.083,115.527 497.083,113.917 Z M449.833,131.417 L471.417,131.417 C478.128,131.417 479.723,131.286 481.963,130.145 C484.158,129.026 485.943,127.242 487.062,125.047 C488.203,122.806 488.333,121.211 488.333,114.5 L488.333,107.5 C488.333,100.789 488.203,99.194 487.062,96.954 C485.943,94.758 484.158,92.974 481.963,91.855 C479.723,90.714 478.128,90.583 471.417,90.583 L449.833,90.583 C443.122,90.583 441.527,90.714 439.287,91.855 C437.092,92.974 435.307,94.758 434.188,96.953 C433.047,99.194 432.917,100.789 432.917,107.5 L432.917,114.5 C432.917,121.211 433.047,122.806 434.188,125.046 C435.307,127.242 437.092,129.027 439.287,130.145 C441.527,131.286 443.122,131.417 449.833,131.417 Z M449.833,125.583 C444.294,125.583 442.971,125.475 441.935,124.947 C440.837,124.388 439.945,123.496 439.386,122.398 C438.858,121.362 438.75,120.039 438.75,114.5 L438.75,107.5 C438.75,101.961 438.858,100.638 439.386,99.601 C439.945,98.504 440.837,97.612 441.935,97.053 C442.971,96.525 444.294,96.417 449.833,96.417 L471.417,96.417 C476.956,96.417 478.279,96.525 479.315,97.053 C480.413,97.612 481.305,98.504 481.864,99.602 C482.392,100.638 482.5,101.961 482.5,107.5 L482.5,114.5 C482.5,120.039 482.392,121.362 481.864,122.399 C481.305,123.496 480.413,124.388 479.315,124.947 C478.279,125.475 476.956,125.583 471.417,125.583 L449.833,125.583 Z" />
        </g>
        <g id="Black-M" transform="translate(0,200)">
            <path d="M646.042,105.167 L646.042,116.833 C646.042,118.444 647.348,119.75 648.958,119.75 C650.569,119.75 651.875,118.444 651.875,116.833 L651.875,105.167 C651.875,103.556 650.569,102.25 648.958,102.25 C647.348,102.25 646.042,103.556 646.042,105.167 Z M657.708,105.167 L657.708,116.833 C657.708,118.444 659.014,119.75 660.625,119.75 C662.236,119.75 663.542,118.444 663.542,116.833 L663.542,105.167 C663.542,103.556 662.236,102.25 660.625,102.25 C659.014,102.25 657.708,103.556 657.708,105.167 Z M669.375,105.167 L669.375,116.833 C669.375,118.444 670.681,119.75 672.292,119.75 C673.903,119.75 675.208,118.444 675.208,116.833 L675.208,105.167 C675.208,103.556 673.903,102.25 672.292,102.25 C670.681,102.25 669.375,103.556 669.375,105.167 Z M697.083,113.917 L697.083,108.083 C697.083,106.473 695.777,105.167 694.167,105.167 C692.556,105.167 691.25,106.473 691.25,108.083 L691.25,113.917 C691.25,115.527 692.556,116.833 694.167,116.833 C695.777,116.833 697.083,115.527 697.083,113.917 Z M649.833,131.417 L671.417,131.417 C678.128,131.417 679.723,131.286 681.963,130.145 C684.158,129.026 685.943,127.242 687.062,125.047 C688.203,122.806 688.333,121.211 688.333,114.5 L688.333,107.5 C688.333,100.789 688.203,99.194 687.062,96.954 C685.943,94.758 684.158,92.974 681.963,91.855 C679.723,90.714 678.128,90.583 671.417,90.583 L649.833,90.583 C643.122,90.583 641.527,90.714 639.287,91.855 C637.092,92.974 635.307,94.758 634.188,96.953 C633.047,99.194 632.917,100.789 632.917,107.5 L632.917,114.5 C632.917,121.211 633.047,122.806 634.188,125.046 C635.307,127.242 637.092,129.027 639.287,130.145 C641.527,131.286 643.122,131.417 649.833,131.417 Z M649.833,125.583 C644.294,125.583 642.971,125.475 641.935,124.947 C640.837,124.388 639.945,123.496 639.386,122.398 C638.858,121.362 638.75,120.039 638.75,114.5 L638.75,107.5 C638.75,101.961 638.858,100.638 639.386,99.601 C639.945,98.504 640.837,97.612 641.935,97.053 C642.971,96.525 644.294,96.417 649.833,96.417 L671.417,96.417 C676.956,96.417 678.279,96.525 679.315,97.053 C680.413,97.612 681.305,98.504 681.864,99.602 C682.392,100.638 682.5,101.961 682.5,107.5 L682.5,114.5 C682.5,120.039 682.392,121.362 681.864,122.399 C681.305,123.496 680.413,124.388 679.315,124.947 C678.279,125.475 676.956,125.583 671.417,125.583 L649.833,125.583 Z" />
        </g>
    </g>
</svg>