<?xml version="1.0" encoding="UTF-8"?>
<svg height="600" width="800" xmlns="http://www.w3.org/2000/svg" xmlns:xlink="http://www.w3.org/1999/xlink">
    <g id="Notes" font-family="LucidaGrande, 'Lucida Grande', sans-serif" font-size="13">
        <rect fill="white" height="600.0" width="800.0" x="0.0" y="0.0" />
        <g font-size="13">
            <text x="18.0" y="176.0">Small</text>
            <text x="18.0" y="376.0">Medium</text>
            <text x="18.0" y="576.0">Large</text>
        </g>
        <g font-size="9">
            <text x="250.0" y="30.0">Ultralight</text>
            <text x="450.0" y="30.0">Regular</text>
            <text x="650.0" y="30.0">Black</text>
            <text id="template-version" fill="#505050" text-anchor="end" x="785.0" y="575.0">Template v.3.0</text>
            <a href="https://github.com/swhitty/SwiftDraw">
                <text fill="#505050" text-anchor="end" x="785.0" y="590.0">https://github.com/swhitty/SwiftDraw</text>
            </a>
        </g>
    </g>
    <g id="Guides" stroke="rgb(39, 170, 225)" stroke-width="0.5">
        <path id="Capline-S" d="M18,76 l800,0" />
        <path id="H-reference" d="M85,145.755 L87.685,145.755 L113.369,79.287 L114.052,79.287 L114.052,76 L112.148,76 L85,145.755 Z M95.693,121.536 L130.996,121.536 L130.263,119.313 L96.474,119.313 L95.693,121.536 Z M139.15,145.755 L141.787,145.755 L114.638,76 L113.466,76 L113.466,79.287 L139.15,145.755 Z" stroke="none" transform="translate(0,200)" />
        <path id="Baseline-S" d="M18,146 l800,0" />
        <path id="left-margin-Ultralight-M" d="M230,256 l0,110" />
        <path id="right-margin-Ultralight-M" d="M300,256 l0,110" />
        <path id="left-margin-Regular-M" d="M430,256 l0,110" />
        <path id="right-margin-Regular-M" d="M500,256 l0,110" />
        <path id="left-margin-Black-M" d="M630,256 l0,110" />
        <path id="right-margin-Black-M" d="M700,256 l0,110" />
        <path id="Capline-M" d="M18,276 l800,0" />
        <path id="Baseline-M" d="M18,346 l800,0" />
        <path id="Capline-L" d="M18,476 l800,0" />
        <path id="Baseline-L" d="M18,546 l800,0" />
    </g>
    <g id="Symbols">
        <g id="Ultralight-M" transform="translate(0,200)">
            <path d="M291.25,105.167 L291.25,84.75 C291.25,83.139 289.944,81.833 288.333,81.833 C286.723,81.833 285.417,83.139 285.417,84.75 L285.417,105.167 C285.417,106.777 286.723,108.083 288.333,108.083 C289.944,108.083 291.25,106.777 291.25,105.167 Z M276.667,105.167 L276.667,84.75 C276.667,83.139 275.361,81.833 273.75,81.833 C272.139,81.833 270.833,83.139 270.833,84.75 L270.833,105.167 C270.833,106.777 272.139,108.083 273.75,108.083 C275.361,108.083 276.667,106.777 276.667,105.167 Z M261.889,114.369 C258.713,111.201 256.098,107.517 254.154,103.474 C254.049,103.271 254.003,103.164 253.967,103.054 C254.002,103.168 254.009,103.127 254.031,103.095 C253.986,103.159 254.038,103.104 254.319,102.825 C255.772,101.372 256.104,101.015 256.555,100.328 C256.565,100.313 256.565,100.313 256.575,100.298 C258.457,97.402 258.457,93.664 256.572,90.764 C256.57,90.76 256.57,90.76 256.564,90.752 C256.113,90.059 255.779,89.7 254.328,88.25 L253.765,87.683 C251.672,85.595 251.163,85.13 250.167,84.561 C250.011,84.473 250.011,84.473 249.85,84.391 C247.372,83.138 244.44,83.138 241.958,84.393 C241.812,84.468 241.812,84.468 241.669,84.548 C240.664,85.117 240.136,85.598 238.055,87.676 L237.588,88.145 C235.969,89.765 235.509,90.251 234.93,91.027 C234.661,91.388 234.423,91.753 234.206,92.14 C233.304,93.75 232.704,96.054 232.713,97.894 C232.712,98.388 232.744,98.864 232.81,99.345 C232.923,100.165 233.054,100.684 233.526,102.351 C236.257,111.969 241.409,120.723 248.489,127.78 C255.54,134.853 264.294,140.003 273.91,142.733 C275.553,143.198 276.094,143.334 276.914,143.448 C277.391,143.514 277.863,143.548 278.368,143.55 C280.407,143.498 282.318,143.001 284.045,142.097 C284.509,141.837 284.871,141.601 285.229,141.334 C286.006,140.755 286.501,140.287 288.122,138.67 L288.588,138.2 C290.773,136.02 291.292,135.44 291.866,134.311 C293.126,131.822 293.126,128.888 291.869,126.404 C291.787,126.247 291.787,126.247 291.704,126.098 C291.133,125.101 290.645,124.567 288.582,122.503 L288.013,121.934 C286.573,120.494 286.216,120.162 285.535,119.711 C285.519,119.701 285.519,119.701 285.504,119.691 C282.599,117.803 278.861,117.803 275.961,119.687 C275.949,119.695 275.949,119.695 275.934,119.705 C275.251,120.153 274.963,120.422 273.449,121.931 C273.165,122.213 273.098,122.277 273.075,122.296 C273.081,122.29 273.081,122.29 273.09,122.284 C273.151,122.24 273.076,122.253 273.115,122.264 C273.095,122.256 272.989,122.211 272.887,122.157 C268.743,120.163 265.059,117.548 261.89,114.373 L259.826,116.434 L259.806,119.35 L259.809,119.35 C262.419,119.368 263.736,116.212 261.889,114.369 Z M257.769,118.499 L259.829,116.434 L259.848,113.517 L259.845,113.517 C257.239,113.5 255.92,116.649 257.761,118.494 C261.396,122.136 265.621,125.134 270.258,127.363 C270.552,127.521 270.965,127.697 271.39,127.836 C273.159,128.354 275.091,128.027 276.512,127.008 C276.628,126.923 276.628,126.923 276.718,126.851 C276.975,126.646 277.089,126.537 277.562,126.068 C278.694,124.939 278.94,124.709 279.133,124.583 C279.134,124.582 279.134,124.582 279.136,124.581 C280.107,123.95 281.353,123.95 282.319,124.578 C282.315,124.576 282.315,124.576 282.318,124.577 C282.524,124.714 282.802,124.973 283.888,126.059 L284.457,126.628 C286.05,128.221 286.446,128.655 286.642,128.998 C286.656,129.022 286.656,129.022 286.667,129.044 C287.083,129.866 287.083,130.844 286.664,131.672 C286.498,131.998 286.105,132.437 284.459,134.08 L283.992,134.55 C282.612,135.928 282.2,136.316 281.741,136.658 C281.579,136.779 281.425,136.879 281.26,136.973 C280.402,137.42 279.364,137.69 278.305,137.718 C278.147,137.715 277.933,137.701 277.716,137.67 C277.265,137.608 276.86,137.506 275.501,137.121 C266.847,134.664 258.966,130.028 252.613,123.655 C246.234,117.296 241.596,109.415 239.138,100.759 C238.748,99.384 238.651,98.996 238.589,98.551 C238.56,98.336 238.546,98.125 238.546,97.881 C238.542,97.038 238.884,95.724 239.294,94.992 C239.385,94.83 239.485,94.677 239.605,94.515 C239.945,94.06 240.327,93.656 241.719,92.264 L242.184,91.796 C243.777,90.206 244.208,89.814 244.547,89.622 C244.569,89.609 244.569,89.609 244.589,89.599 C245.417,89.18 246.395,89.18 247.222,89.599 C247.248,89.612 247.248,89.612 247.273,89.626 C247.611,89.819 248.032,90.203 249.637,91.805 L250.198,92.369 C251.288,93.459 251.547,93.738 251.677,93.937 C251.678,93.938 251.678,93.938 251.679,93.939 C252.31,94.91 252.31,96.156 251.681,97.122 C251.677,97.128 251.677,97.128 251.676,97.13 C251.545,97.331 251.286,97.609 250.203,98.691 C249.676,99.214 249.509,99.392 249.253,99.749 C248.233,101.239 247.927,103.035 248.379,104.718 C248.563,105.295 248.738,105.707 248.947,106.103 C251.126,110.639 254.126,114.864 257.769,118.499 Z" />
        </g>
        <g id="Regular-M" transform="translate(0,200)">
            <path d="M491.25,105.167 L491.25,84.75 C491.25,83.139 489.944,81.833 488.333,81.833 C486.723,81.833 485.417,83.139 485.417,84.75 L485.417,105.167 C485.417,106.777 486.723,108.083 488.333,108.083 C489.944,108.083 491.25,106.777 491.25,105.167 Z M476.667,105.167 L476.667,84.75 C476.667,83.139 475.361,81.833 473.75,81.833 C472.139,81.833 470.833,83.139 470.833,84.75 L470.833,105.167 C470.833,106.777 472.139,108.083 473.75,108.083 C475.361,108.083 476.667,106.777 476.667,105.167 Z M461.889,114.369 C458.713,111.201 456.098,107.517 454.154,103.474 C454.049,103.271 454.003,103.164 453.967,103.054 C454.002,103.168 454.009,103.127 454.031,103.095 C453.986,103.159 454.038,103.104 454.319,102.825 C455.772,101.372 456.104,101.015 456.555,100.328 C456.565,100.313 456.565,100.313 456.575,100.298 C458.457,97.402 458.457,93.664 456.572,90.764 C456.57,90.76 456.57,90.76 456.564,90.752 C456.113,90.059 455.779,89.7 454.328,88.25 L453.765,87.683 C451.672,85.595 451.163,85.13 450.167,84.561 C450.011,84.473 450.011,84.473 449.85,84.391 C447.372,83.138 444.44,83.138 441.958,84.393 C441.812,84.468 441.812,84.468 441.669,84.548 C440.664,85.117 440.136,85.598 438.055,87.676 L437.588,88.145 C435.969,89.765 435.509,90.251 434.93,91.027 C434.661,91.388 434.423,91.753 434.206,92.14 C433.304,93.75 432.704,96.054 432.713,97.894 C432.712,98.388 432.744,98.864 432.81,99.345 C432.923,100.165 433.054,100.684 433.526,102.351 C436.257,111.969 441.409,120.723 448.489,127.78 C455.54,134.853 464.294,140.003 473.91,142.733 C475.553,143.198 476.094,143.334 476.914,143.448 C477.391,143.514 477.863,143.548 478.368,143.55 C480.407,143.498 482.318,143.001 484.045,142.097 C484.509,141.837 484.871,141.601 485.229,141.334 C486.006,140.755 486.501,140.287 488.122,138.67 L488.588,138.2 C490.773,136.02 491.292,135.44 491.866,134.311 C493.126,131.822 493.126,128.888 491.869,126.404 C491.787,126.247 491.787,126.247 491.704,126.098 C491.133,125.101 490.645,124.567 488.582,122.503 L488.013,121.934 C486.573,120.494 486.216,120.162 485.535,119.711 C485.519,119.701 485.519,119.701 485.504,119.691 C482.599,117.803 478.861,117.803 475.961,119.687 C475.949,119.695 475.949,119.695 475.934,119.705 C475.251,120.153 474.963,120.422 473.449,121.931 C473.165,122.213 473.098,122.277 473.075,122.296 C473.081,122.29 473.081,122.29 473.09,122.284 C473.151,122.24 473.076,122.253 473.115,122.264 C473.095,122.256 472.989,122.211 472.887,122.157 C468.743,120.163 465.059,117.548 461.89,114.373 L459.826,116.434 L459.806,119.35 L459.809,119.35 C462.419,119.368 463.736,116.212 461.889,114.369 Z M457.769,118.499 L459.829,116.434 L459.848,113.517 L459.845,113.517 C457.239,113.5 455.92,116.649 457.761,118.494 C461.396,122.136 465.621,125.134 470.258,127.363 C470.552,127.521 470.965,127.697 471.39,127.836 C473.159,128.354 475.091,128.027 476.512,127.008 C476.628,126.923 476.628,126.923 476.718,126.851 C476.975,126.646 477.089,126.537 477.562,126.068 C478.694,124.939 478.94,124.709 479.133,124.583 C479.134,124.582 479.134,124.582 479.136,124.581 C480.107,123.95 481.353,123.95 482.319,124.578 C482.315,124.576 482.315,124.576 482.318,124.577 C482.524,124.714 482.802,124.973 483.888,126.059 L484.457,126.628 C486.05,128.221 486.446,128.655 486.642,128.998 C486.656,129.022 486.656,129.022 486.667,129.044 C487.083,129.866 487.083,130.844 486.664,131.672 C486.498,131.998 486.105,132.437 484.459,134.08 L483.992,134.55 C482.612,135.928 482.2,136.316 481.741,136.658 C481.579,136.779 481.425,136.879 481.26,136.973 C480.402,137.42 479.364,137.69 478.305,137.718 C478.147,137.715 477.933,137.701 477.716,137.67 C477.265,137.608 476.86,137.506 475.501,137.121 C466.847,134.664 458.966,130.028 452.613,123.655 C446.234,117.296 441.596,109.415 439.138,100.759 C438.748,99.384 438.651,98.996 438.589,98.551 C438.56,98.336 438.546,98.125 438.546,97.881 C438.542,97.038 438.884,95.724 439.294,94.992 C439.385,94.83 439.485,94.677 439.605,94.515 C439.945,94.06 440.327,93.656 441.719,92.264 L442.184,91.796 C443.777,90.206 444.208,89.814 444.547,89.622 C444.569,89.609 444.569,89.609 444.589,89.599 C445.417,89.18 446.395,89.18 447.222,89.599 C447.248,89.612 447.248,89.612 447.273,89.626 C447.611,89.819 448.032,90.203 449.637,91.805 L450.198,92.369 C451.288,93.459 451.547,93.738 451.677,93.937 C451.678,93.938 451.678,93.938 451.679,93.939 C452.31,94.91 452.31,96.156 451.681,97.122 C451.677,97.128 451.677,97.128 451.676,97.13 C451.545,97.331 451.286,97.609 450.203,98.691 C449.676,99.214 449.509,99.392 449.253,99.749 C448.233,101.239 447.927,103.035 448.379,104.718 C448.563,105.295 448.738,105.707 448.947,106.103 C451.126,110.639 454.126,114.864 457.769,118.499 Z" />
        </g>
        <g id="Black-M" transform="translate(0,200)">
            <path d="M691.25,105.167 L691.25,84.75 C691.25,83.139 689.944,81.833 688.333,81.833 C686.723,81.833 685.417,83.139 685.417,84.75 L685.417,105.167 C685.417,106.777 686.723,108.083 688.333,108.083 C689.944,108.083 691.25,106.777 691.25,105.167 Z M676.667,105.167 L676.667,84.75 C676.667,83.139 675.361,81.833 673.75,81.833 C672.139,81.833 670.833,83.139 670.833,84.75 L670.833,105.167 C670.833,106.777 672.139,108.083 673.75,108.083 C675.361,108.083 676.667,106.777 676.667,105.167 Z M661.889,114.369 C658.713,111.201 656.098,107.517 654.154,103.474 C654.049,103.271 654.003,103.164 653.967,103.054 C654.002,103.168 654.009,103.127 654.031,103.095 C653.986,103.159 654.038,103.104 654.319,102.825 C655.772,101.372 656.104,101.015 656.555,100.328 C656.565,100.313 656.565,100.313 656.575,100.298 C658.457,97.402 658.457,93.664 656.572,90.764 C656.57,90.76 656.57,90.76 656.564,90.752 C656.113,90.059 655.779,89.7 654.328,88.25 L653.765,87.683 C651.672,85.595 651.163,85.13 650.167,84.561 C650.011,84.473 650.011,84.473 649.85,84.391 C647.372,83.138 644.44,83.138 641.958,84.393 C641.812,84.468 641.812,84.468 641.669,84.548 C640.664,85.117 640.136,85.598 638.055,87.676 L637.588,88.145 C635.969,89.765 635.509,90.251 634.93,91.027 C634.661,91.388 634.423,91.753 634.206,92.14 C633.304,93.75 632.704,96.054 632.713,97.894 C632.712,98.388 632.744,98.864 632.81,99.345 C632.923,100.165 633.054,100.684 633.526,102.351 C636.257,111.969 641.409,120.723 648.489,127.78 C655.54,134.853 664.294,140.003 673.91,142.733 C675.553,143.198 676.094,143.334 676.914,143.448 C677.391,143.514 677.863,143.548 678.367,143.55 C680.407,143.498 682.318,143.001 684.045,142.097 C684.509,141.837 684.87,141.601 685.229,141.334 C686.006,140.755 686.501,140.287 688.122,138.67 L688.588,138.2 C690.773,136.02 691.292,135.44 691.866,134.311 C693.126,131.822 693.126,128.888 691.869,126.404 C691.787,126.247 691.787,126.247 691.704,126.098 C691.133,125.101 690.645,124.567 688.582,122.503 L688.013,121.934 C686.573,120.494 686.216,120.162 685.535,119.711 C685.519,119.701 685.519,119.701 685.504,119.691 C682.599,117.803 678.861,117.803 675.961,119.687 C675.949,119.695 675.949,119.695 675.934,119.705 C675.251,120.153 674.963,120.422 673.449,121.931 C673.165,122.213 673.098,122.277 673.075,122.296 C673.081,122.29 673.081,122.29 673.09,122.284 C673.151,122.24 673.076,122.253 673.115,122.264 C673.095,122.256 672.989,122.211 672.887,122.157 C668.743,120.163 665.059,117.548 661.89,114.373 L659.826,116.434 L659.806,119.35 L659.809,119.35 C662.419,119.368 663.736,116.212 661.889,114.369 Z M657.769,118.499 L659.829,116.434 L659.848,113.517 L659.845,113.517 C657.239,113.5 655.92,116.649 657.761,118.494 C661.396,122.136 665.621,125.134 670.258,127.363 C670.552,127.521 670.965,127.697 671.39,127.836 C673.159,128.354 675.091,128.027 676.512,127.008 C676.628,126.923 676.628,126.923 676.718,126.851 C676.975,126.646 677.089,126.537 677.562,126.068 C678.694,124.939 678.94,124.709 679.133,124.583 C679.134,124.582 679.134,124.582 679.136,124.581 C680.107,123.95 681.353,123.95 682.319,124.578 C682.315,124.576 682.315,124.576 682.318,124.577 C682.524,124.714 682.802,124.973 683.888,126.059 L684.457,126.628 C686.05,128.221 686.446,128.655 686.642,128.998 C686.656,129.022 686.656,129.022 686.667,129.044 C687.083,129.866 687.083,130.844 686.664,131.672 C686.498,131.998 686.105,132.437 684.459,134.08 L683.992,134.55 C682.612,135.928 682.2,136.316 681.741,136.658 C681.579,136.779 681.425,136.879 681.26,136.973 C680.402,137.42 679.364,137.69 678.305,137.718 C678.147,137.715 677.933,137.701 677.716,137.67 C677.265,137.608 676.86,137.506 675.501,137.121 C666.847,134.664 658.966,130.028 652.613,123.655 C646.234,117.296 641.596,109.415 639.138,100.759 C638.748,99.384 638.651,98.996 638.589,98.551 C638.56,98.336 638.546,98.125 638.546,97.881 C638.542,97.038 638.884,95.724 639.294,94.992 C639.385,94.83 639.485,94.677 639.605,94.515 C639.945,94.06 640.327,93.656 641.719,92.264 L642.184,91.796 C643.777,90.206 644.208,89.814 644.547,89.622 C644.569,89.609 644.569,89.609 644.589,89.599 C645.417,89.18 646.395,89.18 647.222,89.599 C647.248,89.612 647.248,89.612 647.273,89.626 C647.611,89.819 648.032,90.203 649.637,91.805 L650.198,92.369 C651.288,93.459 651.547,93.738 651.677,93.937 C651.678,93.938 651.678,93.938 651.679,93.939 C652.31,94.91 652.31,96.156 651.681,97.122 C651.677,97.128 651.677,97.128 651.676,97.13 C651.545,97.331 651.286,97.609 650.203,98.691 C649.676,99.214 649.509,99.392 649.253,99.749 C648.233,101.239 647.927,103.035 648.379,104.718 C648.563,105.295 648.738,105.707 648.947,106.103 C651.126,110.639 654.126,114.864 657.769,118.499 Z" />
        </g>
    </g>
</svg>