<?xml version="1.0" encoding="UTF-8"?>
<svg height="600" width="800" xmlns="http://www.w3.org/2000/svg" xmlns:xlink="http://www.w3.org/1999/xlink">
    <g id="Notes" font-family="LucidaGrande, 'Lucida Grande', sans-serif" font-size="13">
        <rect fill="white" height="600.0" width="800.0" x="0.0" y="0.0" />
        <g font-size="13">
            <text x="18.0" y="176.0">Small</text>
            <text x="18.0" y="376.0">Medium</text>
            <text x="18.0" y="576.0">Large</text>
        </g>
        <g font-size="9">
            <text x="250.0" y="30.0">Ultralight</text>
            <text x="450.0" y="30.0">Regular</text>
            <text x="650.0" y="30.0">Black</text>
            <text id="template-version" fill="#505050" text-anchor="end" x="785.0" y="575.0">Template v.3.0</text>
            <a href="https://github.com/swhitty/SwiftDraw">
                <text fill="#505050" text-anchor="end" x="785.0" y="590.0">https://github.com/swhitty/SwiftDraw</text>
            </a>
        </g>
    </g>
    <g id="Guides" stroke="rgb(39, 170, 225)" stroke-width="0.5">
        <path id="Capline-S" d="M18,76 l800,0" />
        <path id="H-reference" d="M85,145.755 L87.685,145.755 L113.369,79.287 L114.052,79.287 L114.052,76 L112.148,76 L85,145.755 Z M95.693,121.536 L130.996,121.536 L130.263,119.313 L96.474,119.313 L95.693,121.536 Z M139.15,145.755 L141.787,145.755 L114.638,76 L113.466,76 L113.466,79.287 L139.15,145.755 Z" stroke="none" transform="translate(0,200)" />
        <path id="Baseline-S" d="M18,146 l800,0" />
        <path id="left-margin-Ultralight-M" d="M230,256 l0,110" />
        <path id="right-margin-Ultralight-M" d="M300,256 l0,110" />
        <path id="left-margin-Regular-M" d="M430,256 l0,110" />
        <path id="right-margin-Regular-M" d="M500,256 l0,110" />
        <path id="left-margin-Black-M" d="M630,256 l0,110" />
        <path id="right-margin-Black-M" d="M700,256 l0,110" />
        <path id="Capline-M" d="M18,276 l800,0" />
        <path id="Baseline-M" d="M18,346 l800,0" />
        <path id="Capline-L" d="M18,476 l800,0" />
        <path id="Baseline-L" d="M18,546 l800,0" />
    </g>
    <g id="Symbols">
        <g id="Ultralight-M" transform="translate(0,200)">
            <path d="M265,116.833 C268.222,116.833 270.833,114.222 270.833,111 C270.833,107.778 268.222,105.167 265,105.167 C261.778,105.167 259.167,107.778 259.167,111 C259.167,114.222 261.778,116.833 265,116.833 Z M265,111 C265,111 265,111 265,111 C265,111 265,111 265,111 C265,111 265,111 265,111 C265,111 265,111 265,111 Z M265,96.417 C268.222,96.417 270.833,93.805 270.833,90.583 C270.833,87.362 268.222,84.75 265,84.75 C261.778,84.75 259.167,87.362 259.167,90.583 C259.167,93.805 261.778,96.417 265,96.417 Z M265,90.583 C265,90.583 265,90.583 265,90.583 C265,90.583 265,90.583 265,90.583 C265,90.583 265,90.583 265,90.583 C265,90.583 265,90.583 265,90.583 Z M265,137.25 C268.222,137.25 270.833,134.638 270.833,131.417 C270.833,128.195 268.222,125.583 265,125.583 C261.778,125.583 259.167,128.195 259.167,131.417 C259.167,134.638 261.778,137.25 265,137.25 Z M265,131.417 C265,131.417 265,131.417 265,131.417 C265,131.417 265,131.417 265,131.417 C265,131.417 265,131.417 265,131.417 C265,131.417 265,131.417 265,131.417 Z" />
        </g>
        <g id="Regular-M" transform="translate(0,200)">
            <path d="M465,116.833 C468.222,116.833 470.833,114.222 470.833,111 C470.833,107.778 468.222,105.167 465,105.167 C461.778,105.167 459.167,107.778 459.167,111 C459.167,114.222 461.778,116.833 465,116.833 Z M465,111 C465,111 465,111 465,111 C465,111 465,111 465,111 C465,111 465,111 465,111 C465,111 465,111 465,111 Z M465,96.417 C468.222,96.417 470.833,93.805 470.833,90.583 C470.833,87.362 468.222,84.75 465,84.75 C461.778,84.75 459.167,87.362 459.167,90.583 C459.167,93.805 461.778,96.417 465,96.417 Z M465,90.583 C465,90.583 465,90.583 465,90.583 C465,90.583 465,90.583 465,90.583 C465,90.583 465,90.583 465,90.583 C465,90.583 465,90.583 465,90.583 Z M465,137.25 C468.222,137.25 470.833,134.638 470.833,131.417 C470.833,128.195 468.222,125.583 465,125.583 C461.778,125.583 459.167,128.195 459.167,131.417 C459.167,134.638 461.778,137.25 465,137.25 Z M465,131.417 C465,131.417 465,131.417 465,131.417 C465,131.417 465,131.417 465,131.417 C465,131.417 465,131.417 465,131.417 C465,131.417 465,131.417 465,131.417 Z" />
        </g>
        <g id="Black-M" transform="translate(0,200)">
            <path d="M665,116.833 C668.222,116.833 670.833,114.222 670.833,111 C670.833,107.778 668.222,105.167 665,105.167 C661.778,105.167 659.167,107.778 659.167,111 C659.167,114.222 661.778,116.833 665,116.833 Z M665,111 C665,111 665,111 665,111 C665,111 665,111 665,111 C665,111 665,111 665,111 C665,111 665,111 665,111 Z M665,96.417 C668.222,96.417 670.833,93.805 670.833,90.583 C670.833,87.362 668.222,84.75 665,84.75 C661.778,84.75 659.167,87.362 659.167,90.583 C659.167,93.805 661.778,96.417 665,96.417 Z M665,90.583 C665,90.583 665,90.583 665,90.583 C665,90.583 665,90.583 665,90.583 C665,90.583 665,90.583 665,90.583 C665,90.583 665,90.583 665,90.583 Z M665,137.25 C668.222,137.25 670.833,134.638 670.833,131.417 C670.833,128.195 668.222,125.583 665,125.583 C661.778,125.583 659.167,128.195 659.167,131.417 C659.167,134.638 661.778,137.25 665,137.25 Z M665,131.417 C665,131.417 665,131.417 665,131.417 C665,131.417 665,131.417 665,131.417 C665,131.417 665,131.417 665,131.417 C665,131.417 665,131.417 665,131.417 Z" />
        </g>
    </g>
</svg>