<?xml version="1.0" encoding="UTF-8"?>
<svg height="600" width="800" xmlns="http://www.w3.org/2000/svg" xmlns:xlink="http://www.w3.org/1999/xlink">
    <g id="Notes" font-family="LucidaGrande, 'Lucida Grande', sans-serif" font-size="13">
        <rect fill="white" height="600.0" width="800.0" x="0.0" y="0.0" />
        <g font-size="13">
            <text x="18.0" y="176.0">Small</text>
            <text x="18.0" y="376.0">Medium</text>
            <text x="18.0" y="576.0">Large</text>
        </g>
        <g font-size="9">
            <text x="250.0" y="30.0">Ultralight</text>
            <text x="450.0" y="30.0">Regular</text>
            <text x="650.0" y="30.0">Black</text>
            <text id="template-version" fill="#505050" text-anchor="end" x="785.0" y="575.0">Template v.3.0</text>
            <a href="https://github.com/swhitty/SwiftDraw">
                <text fill="#505050" text-anchor="end" x="785.0" y="590.0">https://github.com/swhitty/SwiftDraw</text>
            </a>
        </g>
    </g>
    <g id="Guides" stroke="rgb(39, 170, 225)" stroke-width="0.5">
        <path id="Capline-S" d="M18,76 l800,0" />
        <path id="H-reference" d="M85,145.755 L87.685,145.755 L113.369,79.287 L114.052,79.287 L114.052,76 L112.148,76 L85,145.755 Z M95.693,121.536 L130.996,121.536 L130.263,119.313 L96.474,119.313 L95.693,121.536 Z M139.15,145.755 L141.787,145.755 L114.638,76 L113.466,76 L113.466,79.287 L139.15,145.755 Z" stroke="none" transform="translate(0,200)" />
        <path id="Baseline-S" d="M18,146 l800,0" />
        <path id="left-margin-Ultralight-M" d="M221,256 l0,110" />
        <path id="right-margin-Ultralight-M" d="M309,256 l0,110" />
        <path id="left-margin-Regular-M" d="M421,256 l0,110" />
        <path id="right-margin-Regular-M" d="M509,256 l0,110" />
        <path id="left-margin-Black-M" d="M621,256 l0,110" />
        <path id="right-margin-Black-M" d="M709,256 l0,110" />
        <path id="Capline-M" d="M18,276 l800,0" />
        <path id="Baseline-M" d="M18,346 l800,0" />
        <path id="Capline-L" d="M18,476 l800,0" />
        <path id="Baseline-L" d="M18,546 l800,0" />
    </g>
    <g id="Symbols">
        <g id="Ultralight-M" transform="translate(0,200)">
            <path d="M260.119,92.786 C266.627,91.04 273.572,92.902 278.335,97.668 C285.699,105.032 285.699,116.972 278.336,124.335 C270.973,131.699 259.033,131.699 251.669,124.335 C246.902,119.572 245.04,112.628 246.785,106.12 C247.085,105.003 246.422,103.854 245.304,103.554 C244.186,103.254 243.037,103.917 242.738,105.035 C240.605,112.99 242.881,121.478 248.707,127.299 C257.706,136.298 272.299,136.298 281.299,127.298 C290.299,118.298 290.299,103.705 281.299,94.706 C275.478,88.88 266.988,86.605 259.033,88.739 C257.916,89.039 257.253,90.188 257.553,91.306 C257.852,92.423 259.001,93.086 260.119,92.786 Z M269.193,104.717 L269.193,117.287 C269.193,118.444 270.131,119.383 271.288,119.383 C272.445,119.383 273.383,118.444 273.383,117.287 L273.383,104.717 C273.383,103.559 272.445,102.621 271.288,102.621 C270.131,102.621 269.193,103.559 269.193,104.717 Z M271.288,115.192 L258.717,115.192 C257.56,115.192 256.622,116.13 256.622,117.287 C256.622,118.444 257.56,119.383 258.717,119.383 L271.288,119.383 C272.445,119.383 273.383,118.444 273.383,117.287 C273.383,116.13 272.445,115.192 271.288,115.192 Z M272.77,115.806 L251.818,94.854 C251,94.036 249.673,94.036 248.855,94.854 C248.037,95.673 248.037,96.999 248.855,97.817 L269.807,118.769 C270.625,119.587 271.951,119.587 272.77,118.769 C273.588,117.951 273.588,116.624 272.77,115.806 Z" />
        </g>
        <g id="Regular-M" transform="translate(0,200)">
            <path d="M460.119,92.786 C466.627,91.04 473.572,92.902 478.335,97.668 C485.699,105.032 485.699,116.972 478.336,124.335 C470.973,131.699 459.033,131.699 451.669,124.335 C446.902,119.572 445.04,112.628 446.785,106.12 C447.085,105.003 446.422,103.854 445.304,103.554 C444.186,103.254 443.037,103.917 442.738,105.035 C440.605,112.99 442.881,121.478 448.707,127.299 C457.706,136.298 472.299,136.298 481.299,127.298 C490.299,118.298 490.299,103.705 481.299,94.706 C475.478,88.88 466.988,86.605 459.033,88.739 C457.916,89.039 457.253,90.188 457.553,91.306 C457.852,92.423 459.001,93.086 460.119,92.786 Z M469.193,104.717 L469.193,117.287 C469.193,118.444 470.131,119.383 471.288,119.383 C472.445,119.383 473.383,118.444 473.383,117.287 L473.383,104.717 C473.383,103.559 472.445,102.621 471.288,102.621 C470.131,102.621 469.193,103.559 469.193,104.717 Z M471.288,115.192 L458.717,115.192 C457.56,115.192 456.622,116.13 456.622,117.287 C456.622,118.444 457.56,119.383 458.717,119.383 L471.288,119.383 C472.445,119.383 473.383,118.444 473.383,117.287 C473.383,116.13 472.445,115.192 471.288,115.192 Z M472.77,115.806 L451.818,94.854 C451,94.036 449.673,94.036 448.855,94.854 C448.037,95.673 448.037,96.999 448.855,97.817 L469.807,118.769 C470.625,119.587 471.951,119.587 472.77,118.769 C473.588,117.951 473.588,116.624 472.77,115.806 Z" />
        </g>
        <g id="Black-M" transform="translate(0,200)">
            <path d="M660.119,92.786 C666.627,91.04 673.572,92.902 678.335,97.668 C685.699,105.032 685.699,116.972 678.336,124.335 C670.972,131.699 659.033,131.699 651.669,124.335 C646.902,119.572 645.04,112.628 646.785,106.12 C647.085,105.003 646.422,103.854 645.304,103.554 C644.186,103.254 643.037,103.917 642.738,105.035 C640.605,112.99 642.881,121.478 648.707,127.299 C657.706,136.298 672.299,136.298 681.299,127.298 C690.299,118.298 690.299,103.705 681.299,94.706 C675.478,88.88 666.988,86.605 659.033,88.739 C657.916,89.039 657.253,90.188 657.553,91.306 C657.852,92.423 659.001,93.086 660.119,92.786 Z M669.193,104.717 L669.193,117.287 C669.193,118.444 670.131,119.383 671.288,119.383 C672.445,119.383 673.383,118.444 673.383,117.287 L673.383,104.717 C673.383,103.559 672.445,102.621 671.288,102.621 C670.131,102.621 669.193,103.559 669.193,104.717 Z M671.288,115.192 L658.717,115.192 C657.56,115.192 656.622,116.13 656.622,117.287 C656.622,118.444 657.56,119.383 658.717,119.383 L671.288,119.383 C672.445,119.383 673.383,118.444 673.383,117.287 C673.383,116.13 672.445,115.192 671.288,115.192 Z M672.769,115.806 L651.818,94.854 C651,94.036 649.673,94.036 648.855,94.854 C648.037,95.673 648.037,96.999 648.855,97.817 L669.807,118.769 C670.625,119.587 671.951,119.587 672.769,118.769 C673.588,117.951 673.588,116.624 672.769,115.806 Z" />
        </g>
    </g>
</svg>