<?xml version="1.0" encoding="UTF-8"?>
<svg height="600" width="800" xmlns="http://www.w3.org/2000/svg" xmlns:xlink="http://www.w3.org/1999/xlink">
    <g id="Notes" font-family="LucidaGrande, 'Lucida Grande', sans-serif" font-size="13">
        <rect fill="white" height="600.0" width="800.0" x="0.0" y="0.0" />
        <g font-size="13">
            <text x="18.0" y="176.0">Small</text>
            <text x="18.0" y="376.0">Medium</text>
            <text x="18.0" y="576.0">Large</text>
        </g>
        <g font-size="9">
            <text x="250.0" y="30.0">Ultralight</text>
            <text x="450.0" y="30.0">Regular</text>
            <text x="650.0" y="30.0">Black</text>
            <text id="template-version" fill="#505050" text-anchor="end" x="785.0" y="575.0">Template v.3.0</text>
            <a href="https://github.com/swhitty/SwiftDraw">
                <text fill="#505050" text-anchor="end" x="785.0" y="590.0">https://github.com/swhitty/SwiftDraw</text>
            </a>
        </g>
    </g>
    <g id="Guides" stroke="rgb(39, 170, 225)" stroke-width="0.5">
        <path id="Capline-S" d="M18,76 l800,0" />
        <path id="H-reference" d="M85,145.755 L87.685,145.755 L113.369,79.287 L114.052,79.287 L114.052,76 L112.148,76 L85,145.755 Z M95.693,121.536 L130.996,121.536 L130.263,119.313 L96.474,119.313 L95.693,121.536 Z M139.15,145.755 L141.787,145.755 L114.638,76 L113.466,76 L113.466,79.287 L139.15,145.755 Z" stroke="none" transform="translate(0,200)" />
        <path id="Baseline-S" d="M18,146 l800,0" />
        <path id="left-margin-Ultralight-M" d="M230,256 l0,110" />
        <path id="right-margin-Ultralight-M" d="M300,256 l0,110" />
        <path id="left-margin-Regular-M" d="M430,256 l0,110" />
        <path id="right-margin-Regular-M" d="M500,256 l0,110" />
        <path id="left-margin-Black-M" d="M630,256 l0,110" />
        <path id="right-margin-Black-M" d="M700,256 l0,110" />
        <path id="Capline-M" d="M18,276 l800,0" />
        <path id="Baseline-M" d="M18,346 l800,0" />
        <path id="Capline-L" d="M18,476 l800,0" />
        <path id="Baseline-L" d="M18,546 l800,0" />
    </g>
    <g id="Symbols">
        <g id="Ultralight-M" transform="translate(0,200)">
            <path d="M268.815,85.641 L292.768,101.209 C293.507,101.69 293.663,101.804 293.643,101.781 C293.637,101.774 293.637,101.774 293.637,101.774 C293.626,101.738 293.636,101.926 293.636,102.811 L293.636,126.137 C293.636,132.18 293.518,133.623 292.943,134.754 C292.333,135.951 291.359,136.925 290.162,137.535 C289.032,138.11 287.588,138.228 281.545,138.228 L248.455,138.228 C242.412,138.228 240.968,138.11 239.838,137.534 C238.641,136.925 237.667,135.951 237.057,134.754 C236.482,133.623 236.364,132.18 236.364,126.137 L236.364,102.808 C236.364,101.921 236.374,101.734 236.365,101.765 C236.362,101.775 236.362,101.775 236.362,101.775 C236.34,101.802 236.316,101.827 236.3,101.84 C236.372,101.776 236.559,101.647 237.233,101.209 L261.185,85.641 C262.658,84.683 263.076,82.712 262.119,81.239 C261.161,79.765 259.19,79.347 257.717,80.305 L233.764,95.874 C232.749,96.534 232.48,96.72 232.058,97.097 C231.849,97.283 231.658,97.48 231.481,97.692 C230.941,98.336 230.532,99.087 230.282,99.896 C230.025,100.738 230,101.172 230,102.808 L230,126.137 C230,133.458 230.142,135.198 231.387,137.642 C232.607,140.038 234.554,141.984 236.949,143.205 C239.394,144.45 241.133,144.592 248.455,144.592 L281.545,144.592 C288.867,144.592 290.606,144.45 293.05,143.205 C295.446,141.984 297.393,140.038 298.613,137.643 C299.858,135.198 300,133.458 300,126.137 L300,102.811 C300,101.168 299.976,100.736 299.719,99.903 C299.47,99.093 299.061,98.34 298.517,97.689 C297.955,97.022 297.594,96.757 296.237,95.874 L272.283,80.305 C270.81,79.347 268.839,79.765 267.881,81.239 C266.924,82.712 267.342,84.683 268.815,85.641 Z M272.283,80.305 C269.581,78.549 268.873,78.141 267.57,77.763 C267.378,77.709 267.378,77.709 267.183,77.661 C265.747,77.324 264.253,77.324 262.819,77.661 C261.354,78.005 260.579,78.441 257.714,80.307 C256.242,81.266 255.826,83.237 256.785,84.709 C257.744,86.182 259.715,86.598 261.188,85.639 C263.314,84.254 263.841,83.958 264.275,83.856 C264.751,83.744 265.249,83.744 265.727,83.856 C265.76,83.864 265.76,83.864 265.796,83.874 C266.231,84.001 266.761,84.306 268.815,85.641 C270.289,86.598 272.26,86.18 273.217,84.706 C274.175,83.233 273.756,81.262 272.283,80.305 Z M268.815,85.641 L288.517,98.444 C290.388,99.663 290.936,100.059 291.101,100.262 C291.066,100.22 291.02,100.145 290.979,100.045 C290.979,100.046 290.979,100.046 290.979,100.046 C291.023,99.942 291.068,99.87 291.101,99.829 C290.933,100.035 290.385,100.433 288.516,101.651 L268.815,114.452 C266.761,115.787 266.231,116.092 265.796,116.219 C265.76,116.229 265.76,116.229 265.725,116.237 C265.252,116.348 264.75,116.348 264.267,116.236 C263.841,116.135 263.315,115.839 261.188,114.454 L241.483,101.649 C239.612,100.43 239.064,100.034 238.899,99.831 C238.934,99.873 238.98,99.948 239.021,100.048 C239.021,100.046 239.021,100.046 239.021,100.046 C238.977,100.15 238.932,100.223 238.899,100.263 C239.067,100.058 239.615,99.66 241.484,98.442 L261.185,85.641 C262.658,84.683 263.076,82.713 262.119,81.239 C261.162,79.766 259.191,79.347 257.717,80.305 L238.012,93.108 C235.377,94.827 234.749,95.282 233.964,96.246 C233.63,96.656 233.359,97.096 233.156,97.577 C232.492,99.159 232.492,100.934 233.153,102.509 C233.355,102.991 233.626,103.433 233.962,103.846 C234.747,104.811 235.37,105.262 238.013,106.983 L257.717,119.788 C260.579,121.652 261.354,122.088 262.817,122.432 C264.257,122.767 265.747,122.767 267.177,122.433 C267.378,122.384 267.378,122.384 267.57,122.33 C268.873,121.952 269.581,121.544 272.283,119.788 L291.988,106.985 C294.623,105.266 295.251,104.811 296.036,103.847 C296.37,103.437 296.641,102.996 296.844,102.516 C297.508,100.934 297.508,99.159 296.847,97.584 C296.645,97.102 296.374,96.659 296.038,96.247 C295.253,95.282 294.63,94.831 291.987,93.11 L272.283,80.305 C270.809,79.347 268.839,79.766 267.881,81.239 C266.924,82.712 267.342,84.683 268.815,85.641 Z M297.36,132.685 L276.223,113.594 C274.919,112.416 272.907,112.519 271.729,113.823 C270.551,115.127 270.654,117.139 271.958,118.317 L293.095,137.408 C294.399,138.586 296.411,138.483 297.589,137.179 C298.766,135.875 298.664,133.863 297.36,132.685 Z M253.777,113.594 L232.64,132.685 C231.336,133.863 231.234,135.875 232.411,137.179 C233.589,138.483 235.601,138.586 236.905,137.408 L258.042,118.317 C259.346,117.139 259.449,115.127 258.271,113.823 C257.093,112.519 255.081,112.416 253.777,113.594 Z" />
        </g>
        <g id="Regular-M" transform="translate(0,200)">
            <path d="M468.815,85.641 L492.768,101.209 C493.507,101.69 493.663,101.804 493.643,101.781 C493.637,101.774 493.637,101.774 493.637,101.774 C493.626,101.738 493.636,101.926 493.636,102.811 L493.636,126.137 C493.636,132.18 493.518,133.623 492.943,134.754 C492.333,135.951 491.359,136.925 490.162,137.535 C489.032,138.11 487.588,138.228 481.545,138.228 L448.455,138.228 C442.412,138.228 440.968,138.11 439.838,137.534 C438.641,136.925 437.667,135.951 437.057,134.754 C436.482,133.623 436.364,132.18 436.364,126.137 L436.364,102.808 C436.364,101.921 436.374,101.734 436.365,101.765 C436.362,101.775 436.362,101.775 436.362,101.775 C436.34,101.802 436.316,101.827 436.3,101.84 C436.372,101.776 436.559,101.647 437.233,101.209 L461.185,85.641 C462.658,84.683 463.076,82.712 462.119,81.239 C461.161,79.765 459.19,79.347 457.717,80.305 L433.764,95.874 C432.749,96.534 432.48,96.72 432.058,97.097 C431.849,97.283 431.658,97.48 431.481,97.692 C430.941,98.336 430.532,99.087 430.282,99.896 C430.025,100.738 430,101.172 430,102.808 L430,126.137 C430,133.458 430.142,135.198 431.387,137.642 C432.607,140.038 434.554,141.984 436.949,143.205 C439.394,144.45 441.133,144.592 448.455,144.592 L481.545,144.592 C488.867,144.592 490.606,144.45 493.05,143.205 C495.446,141.984 497.393,140.038 498.613,137.643 C499.858,135.198 500,133.458 500,126.137 L500,102.811 C500,101.168 499.976,100.736 499.719,99.903 C499.47,99.093 499.061,98.34 498.517,97.689 C497.955,97.022 497.594,96.757 496.237,95.874 L472.283,80.305 C470.81,79.347 468.839,79.765 467.881,81.239 C466.924,82.712 467.342,84.683 468.815,85.641 Z M472.283,80.305 C469.581,78.549 468.873,78.141 467.57,77.763 C467.378,77.709 467.378,77.709 467.183,77.661 C465.747,77.324 464.253,77.324 462.819,77.661 C461.354,78.005 460.579,78.441 457.714,80.307 C456.242,81.266 455.826,83.237 456.785,84.709 C457.744,86.182 459.715,86.598 461.188,85.639 C463.314,84.254 463.841,83.958 464.275,83.856 C464.751,83.744 465.249,83.744 465.727,83.856 C465.76,83.864 465.76,83.864 465.796,83.874 C466.231,84.001 466.761,84.306 468.815,85.641 C470.289,86.598 472.26,86.18 473.217,84.706 C474.175,83.233 473.756,81.262 472.283,80.305 Z M468.815,85.641 L488.517,98.444 C490.388,99.663 490.936,100.059 491.101,100.262 C491.066,100.22 491.02,100.145 490.979,100.045 C490.979,100.046 490.979,100.046 490.979,100.046 C491.023,99.942 491.068,99.87 491.101,99.829 C490.933,100.035 490.385,100.433 488.516,101.651 L468.815,114.452 C466.761,115.787 466.231,116.092 465.796,116.219 C465.76,116.229 465.76,116.229 465.725,116.237 C465.252,116.348 464.75,116.348 464.267,116.236 C463.841,116.135 463.315,115.839 461.188,114.454 L441.483,101.649 C439.612,100.43 439.064,100.034 438.899,99.831 C438.934,99.873 438.98,99.948 439.021,100.048 C439.021,100.046 439.021,100.046 439.021,100.046 C438.977,100.15 438.932,100.223 438.899,100.263 C439.067,100.058 439.615,99.66 441.484,98.442 L461.185,85.641 C462.658,84.683 463.076,82.713 462.119,81.239 C461.162,79.766 459.191,79.347 457.717,80.305 L438.012,93.108 C435.377,94.827 434.749,95.282 433.964,96.246 C433.63,96.656 433.359,97.096 433.156,97.577 C432.492,99.159 432.492,100.934 433.153,102.509 C433.355,102.991 433.626,103.433 433.962,103.846 C434.747,104.811 435.37,105.262 438.013,106.983 L457.717,119.788 C460.579,121.652 461.354,122.088 462.817,122.432 C464.257,122.767 465.747,122.767 467.177,122.433 C467.378,122.384 467.378,122.384 467.57,122.33 C468.873,121.952 469.581,121.544 472.283,119.788 L491.988,106.985 C494.623,105.266 495.251,104.811 496.036,103.847 C496.37,103.437 496.641,102.996 496.844,102.516 C497.508,100.934 497.508,99.159 496.847,97.584 C496.645,97.102 496.374,96.659 496.038,96.247 C495.253,95.282 494.63,94.831 491.987,93.11 L472.283,80.305 C470.809,79.347 468.839,79.766 467.881,81.239 C466.924,82.712 467.342,84.683 468.815,85.641 Z M497.36,132.685 L476.223,113.594 C474.919,112.416 472.907,112.519 471.729,113.823 C470.551,115.127 470.654,117.139 471.958,118.317 L493.095,137.408 C494.399,138.586 496.411,138.483 497.589,137.179 C498.766,135.875 498.664,133.863 497.36,132.685 Z M453.777,113.594 L432.64,132.685 C431.336,133.863 431.234,135.875 432.411,137.179 C433.589,138.483 435.601,138.586 436.905,137.408 L458.042,118.317 C459.346,117.139 459.449,115.127 458.271,113.823 C457.093,112.519 455.081,112.416 453.777,113.594 Z" />
        </g>
        <g id="Black-M" transform="translate(0,200)">
            <path d="M668.815,85.641 L692.768,101.209 C693.506,101.69 693.663,101.804 693.643,101.781 C693.637,101.774 693.637,101.774 693.637,101.774 C693.626,101.738 693.636,101.926 693.636,102.811 L693.636,126.137 C693.636,132.18 693.518,133.623 692.943,134.754 C692.333,135.951 691.359,136.925 690.162,137.535 C689.032,138.11 687.588,138.228 681.545,138.228 L648.455,138.228 C642.412,138.228 640.968,138.11 639.838,137.534 C638.641,136.925 637.667,135.951 637.057,134.754 C636.482,133.623 636.364,132.18 636.364,126.137 L636.364,102.808 C636.364,101.921 636.374,101.734 636.365,101.765 C636.362,101.775 636.362,101.775 636.362,101.775 C636.34,101.802 636.316,101.827 636.3,101.84 C636.372,101.776 636.559,101.647 637.233,101.209 L661.185,85.641 C662.658,84.683 663.076,82.712 662.119,81.239 C661.161,79.765 659.19,79.347 657.717,80.305 L633.764,95.874 C632.749,96.534 632.48,96.72 632.058,97.097 C631.849,97.283 631.658,97.48 631.481,97.692 C630.941,98.336 630.532,99.087 630.282,99.896 C630.024,100.738 630,101.172 630,102.808 L630,126.137 C630,133.458 630.142,135.198 631.387,137.642 C632.607,140.038 634.554,141.984 636.949,143.205 C639.394,144.45 641.133,144.592 648.455,144.592 L681.545,144.592 C688.867,144.592 690.606,144.45 693.05,143.205 C695.446,141.984 697.393,140.038 698.613,137.643 C699.858,135.198 700,133.458 700,126.137 L700,102.811 C700,101.168 699.976,100.736 699.719,99.903 C699.47,99.093 699.061,98.34 698.517,97.689 C697.955,97.022 697.594,96.757 696.237,95.874 L672.283,80.305 C670.81,79.347 668.839,79.765 667.881,81.239 C666.924,82.712 667.342,84.683 668.815,85.641 Z M672.283,80.305 C669.581,78.549 668.873,78.141 667.57,77.763 C667.378,77.709 667.378,77.709 667.183,77.661 C665.747,77.324 664.253,77.324 662.819,77.661 C661.354,78.005 660.579,78.441 657.714,80.307 C656.242,81.266 655.826,83.237 656.785,84.709 C657.744,86.182 659.715,86.598 661.188,85.639 C663.315,84.254 663.841,83.958 664.275,83.856 C664.751,83.744 665.249,83.744 665.727,83.856 C665.76,83.864 665.76,83.864 665.796,83.874 C666.231,84.001 666.761,84.306 668.815,85.641 C670.289,86.598 672.26,86.18 673.217,84.706 C674.175,83.233 673.756,81.262 672.283,80.305 Z M668.815,85.641 L688.517,98.444 C690.388,99.663 690.936,100.059 691.101,100.262 C691.066,100.22 691.021,100.145 690.979,100.045 C690.979,100.046 690.979,100.046 690.979,100.046 C691.023,99.942 691.068,99.87 691.101,99.829 C690.933,100.035 690.385,100.433 688.516,101.651 L668.815,114.452 C666.761,115.787 666.231,116.092 665.796,116.219 C665.76,116.229 665.76,116.229 665.725,116.237 C665.252,116.348 664.75,116.348 664.267,116.236 C663.841,116.135 663.315,115.839 661.188,114.454 L641.483,101.649 C639.612,100.43 639.064,100.034 638.899,99.831 C638.934,99.873 638.98,99.948 639.021,100.048 C639.021,100.046 639.021,100.046 639.021,100.046 C638.977,100.15 638.932,100.223 638.899,100.263 C639.067,100.058 639.615,99.66 641.484,98.442 L661.185,85.641 C662.658,84.683 663.076,82.713 662.119,81.239 C661.161,79.766 659.191,79.347 657.717,80.305 L638.012,93.108 C635.377,94.827 634.749,95.282 633.964,96.246 C633.63,96.656 633.359,97.096 633.156,97.577 C632.492,99.159 632.492,100.934 633.153,102.509 C633.355,102.991 633.626,103.433 633.962,103.846 C634.747,104.811 635.37,105.262 638.013,106.983 L657.717,119.788 C660.579,121.652 661.354,122.088 662.817,122.432 C664.257,122.767 665.747,122.767 667.177,122.433 C667.378,122.384 667.378,122.384 667.57,122.33 C668.873,121.952 669.581,121.544 672.283,119.788 L691.988,106.985 C694.623,105.266 695.251,104.811 696.036,103.847 C696.37,103.437 696.641,102.996 696.844,102.516 C697.508,100.934 697.508,99.159 696.847,97.584 C696.645,97.102 696.374,96.659 696.038,96.247 C695.253,95.282 694.63,94.831 691.987,93.11 L672.283,80.305 C670.809,79.347 668.839,79.766 667.881,81.239 C666.924,82.712 667.342,84.683 668.815,85.641 Z M697.36,132.685 L676.223,113.594 C674.919,112.416 672.907,112.519 671.729,113.823 C670.551,115.127 670.654,117.139 671.958,118.317 L693.095,137.408 C694.399,138.586 696.411,138.483 697.589,137.179 C698.766,135.875 698.664,133.863 697.36,132.685 Z M653.777,113.594 L632.64,132.685 C631.336,133.863 631.234,135.875 632.411,137.179 C633.589,138.483 635.601,138.586 636.905,137.408 L658.042,118.317 C659.346,117.139 659.449,115.127 658.271,113.823 C657.093,112.519 655.081,112.416 653.777,113.594 Z" />
        </g>
    </g>
</svg>