<?xml version="1.0" encoding="UTF-8"?>
<svg height="600" width="800" xmlns="http://www.w3.org/2000/svg" xmlns:xlink="http://www.w3.org/1999/xlink">
    <g id="Notes" font-family="LucidaGrande, 'Lucida Grande', sans-serif" font-size="13">
        <rect fill="white" height="600.0" width="800.0" x="0.0" y="0.0" />
        <g font-size="13">
            <text x="18.0" y="176.0">Small</text>
            <text x="18.0" y="376.0">Medium</text>
            <text x="18.0" y="576.0">Large</text>
        </g>
        <g font-size="9">
            <text x="250.0" y="30.0">Ultralight</text>
            <text x="450.0" y="30.0">Regular</text>
            <text x="650.0" y="30.0">Black</text>
            <text id="template-version" fill="#505050" text-anchor="end" x="785.0" y="575.0">Template v.3.0</text>
            <a href="https://github.com/swhitty/SwiftDraw">
                <text fill="#505050" text-anchor="end" x="785.0" y="590.0">https://github.com/swhitty/SwiftDraw</text>
            </a>
        </g>
    </g>
    <g id="Guides" stroke="rgb(39, 170, 225)" stroke-width="0.5">
        <path id="Capline-S" d="M18,76 l800,0" />
        <path id="H-reference" d="M85,145.755 L87.685,145.755 L113.369,79.287 L114.052,79.287 L114.052,76 L112.148,76 L85,145.755 Z M95.693,121.536 L130.996,121.536 L130.263,119.313 L96.474,119.313 L95.693,121.536 Z M139.15,145.755 L141.787,145.755 L114.638,76 L113.466,76 L113.466,79.287 L139.15,145.755 Z" stroke="none" transform="translate(0,200)" />
        <path id="Baseline-S" d="M18,146 l800,0" />
        <path id="left-margin-Ultralight-M" d="M230,256 l0,110" />
        <path id="right-margin-Ultralight-M" d="M300,256 l0,110" />
        <path id="left-margin-Regular-M" d="M430,256 l0,110" />
        <path id="right-margin-Regular-M" d="M500,256 l0,110" />
        <path id="left-margin-Black-M" d="M630,256 l0,110" />
        <path id="right-margin-Black-M" d="M700,256 l0,110" />
        <path id="Capline-M" d="M18,276 l800,0" />
        <path id="Baseline-M" d="M18,346 l800,0" />
        <path id="Capline-L" d="M18,476 l800,0" />
        <path id="Baseline-L" d="M18,546 l800,0" />
    </g>
    <g id="Symbols">
        <g id="Ultralight-M" transform="translate(0,200)">
            <path d="M235.975,114.094 L260.475,83.469 L254.5,80.375 L254.5,97.875 C254.5,100.291 256.067,102.25 258,102.25 L293.7,102.25 C294.26,102.25 294.45,102.254 294.562,102.265 C294.444,102.253 294.228,102.189 293.944,102.007 C293.625,101.803 293.358,101.469 293.19,101.058 C293.049,100.714 292.997,100.445 292.988,100.298 C292.997,100.438 293,100.675 293,101.375 L293,120.625 C293,121.325 292.997,121.562 292.988,121.702 C292.997,121.555 293.049,121.285 293.195,120.931 C293.358,120.531 293.625,120.197 293.953,119.988 C294.228,119.811 294.444,119.747 294.562,119.735 C294.45,119.746 294.26,119.75 293.7,119.75 L258,119.75 C256.067,119.75 254.5,121.709 254.5,124.125 L254.5,141.625 L260.475,138.531 L235.975,107.906 L235.975,114.094 Z M231.025,107.906 C229.658,109.615 229.658,112.385 231.025,114.094 L255.525,144.719 C257.73,147.475 261.5,145.523 261.5,141.625 L261.5,124.125 L258,128.5 L293.7,128.5 C295.633,128.5 296.09,128.453 297.145,127.775 C298.121,127.152 298.922,126.151 299.425,124.92 C299.962,123.613 300,123.041 300,120.625 L300,101.375 C300,98.959 299.962,98.387 299.42,97.069 C298.922,95.849 298.121,94.848 297.136,94.219 C296.09,93.547 295.633,93.5 293.7,93.5 L258,93.5 L261.5,97.875 L261.5,80.375 C261.5,76.477 257.73,74.525 255.525,77.281 L231.025,107.906 Z" />
        </g>
        <g id="Regular-M" transform="translate(0,200)">
            <path d="M435.975,114.094 L460.475,83.469 L454.5,80.375 L454.5,97.875 C454.5,100.291 456.067,102.25 458,102.25 L493.7,102.25 C494.26,102.25 494.45,102.254 494.562,102.265 C494.444,102.253 494.228,102.189 493.944,102.007 C493.625,101.803 493.358,101.469 493.19,101.058 C493.049,100.714 492.997,100.445 492.988,100.298 C492.997,100.438 493,100.675 493,101.375 L493,120.625 C493,121.325 492.997,121.562 492.988,121.702 C492.997,121.555 493.049,121.285 493.195,120.931 C493.358,120.531 493.625,120.197 493.953,119.988 C494.228,119.811 494.444,119.747 494.562,119.735 C494.45,119.746 494.26,119.75 493.7,119.75 L458,119.75 C456.067,119.75 454.5,121.709 454.5,124.125 L454.5,141.625 L460.475,138.531 L435.975,107.906 L435.975,114.094 Z M431.025,107.906 C429.658,109.615 429.658,112.385 431.025,114.094 L455.525,144.719 C457.73,147.475 461.5,145.523 461.5,141.625 L461.5,124.125 L458,128.5 L493.7,128.5 C495.633,128.5 496.09,128.453 497.145,127.775 C498.121,127.152 498.922,126.151 499.425,124.92 C499.962,123.613 500,123.041 500,120.625 L500,101.375 C500,98.959 499.962,98.387 499.42,97.069 C498.922,95.849 498.121,94.848 497.136,94.219 C496.09,93.547 495.633,93.5 493.7,93.5 L458,93.5 L461.5,97.875 L461.5,80.375 C461.5,76.477 457.73,74.525 455.525,77.281 L431.025,107.906 Z" />
        </g>
        <g id="Black-M" transform="translate(0,200)">
            <path d="M635.975,114.094 L660.475,83.469 L654.5,80.375 L654.5,97.875 C654.5,100.291 656.067,102.25 658,102.25 L693.7,102.25 C694.26,102.25 694.45,102.254 694.562,102.265 C694.444,102.253 694.228,102.189 693.944,102.007 C693.625,101.803 693.358,101.469 693.19,101.058 C693.049,100.714 692.997,100.445 692.988,100.298 C692.997,100.438 693,100.675 693,101.375 L693,120.625 C693,121.325 692.997,121.562 692.988,121.702 C692.997,121.555 693.049,121.285 693.195,120.931 C693.358,120.531 693.625,120.197 693.953,119.988 C694.228,119.811 694.444,119.747 694.562,119.735 C694.45,119.746 694.26,119.75 693.7,119.75 L658,119.75 C656.067,119.75 654.5,121.709 654.5,124.125 L654.5,141.625 L660.475,138.531 L635.975,107.906 L635.975,114.094 Z M631.025,107.906 C629.658,109.615 629.658,112.385 631.025,114.094 L655.525,144.719 C657.73,147.475 661.5,145.523 661.5,141.625 L661.5,124.125 L658,128.5 L693.7,128.5 C695.633,128.5 696.09,128.453 697.145,127.775 C698.121,127.152 698.922,126.151 699.425,124.92 C699.962,123.613 700,123.041 700,120.625 L700,101.375 C700,98.959 699.962,98.387 699.42,97.069 C698.922,95.849 698.121,94.848 697.136,94.219 C696.09,93.547 695.633,93.5 693.7,93.5 L658,93.5 L661.5,97.875 L661.5,80.375 C661.5,76.477 657.73,74.525 655.525,77.281 L631.025,107.906 Z" />
        </g>
    </g>
</svg>