<?xml version="1.0" encoding="UTF-8"?>
<svg height="600" width="800" xmlns="http://www.w3.org/2000/svg" xmlns:xlink="http://www.w3.org/1999/xlink">
    <g id="Notes" font-family="LucidaGrande, 'Lucida Grande', sans-serif" font-size="13">
        <rect fill="white" height="600.0" width="800.0" x="0.0" y="0.0" />
        <g font-size="13">
            <text x="18.0" y="176.0">Small</text>
            <text x="18.0" y="376.0">Medium</text>
            <text x="18.0" y="576.0">Large</text>
        </g>
        <g font-size="9">
            <text x="250.0" y="30.0">Ultralight</text>
            <text x="450.0" y="30.0">Regular</text>
            <text x="650.0" y="30.0">Black</text>
            <text id="template-version" fill="#505050" text-anchor="end" x="785.0" y="575.0">Template v.3.0</text>
            <a href="https://github.com/swhitty/SwiftDraw">
                <text fill="#505050" text-anchor="end" x="785.0" y="590.0">https://github.com/swhitty/SwiftDraw</text>
            </a>
        </g>
    </g>
    <g id="Guides" stroke="rgb(39, 170, 225)" stroke-width="0.5">
        <path id="Capline-S" d="M18,76 l800,0" />
        <path id="H-reference" d="M85,145.755 L87.685,145.755 L113.369,79.287 L114.052,79.287 L114.052,76 L112.148,76 L85,145.755 Z M95.693,121.536 L130.996,121.536 L130.263,119.313 L96.474,119.313 L95.693,121.536 Z M139.15,145.755 L141.787,145.755 L114.638,76 L113.466,76 L113.466,79.287 L139.15,145.755 Z" stroke="none" transform="translate(0,200)" />
        <path id="Baseline-S" d="M18,146 l800,0" />
        <path id="left-margin-Ultralight-M" d="M230,256 l0,110" />
        <path id="right-margin-Ultralight-M" d="M300,256 l0,110" />
        <path id="left-margin-Regular-M" d="M430,256 l0,110" />
        <path id="right-margin-Regular-M" d="M500,256 l0,110" />
        <path id="left-margin-Black-M" d="M630,256 l0,110" />
        <path id="right-margin-Black-M" d="M700,256 l0,110" />
        <path id="Capline-M" d="M18,276 l800,0" />
        <path id="Baseline-M" d="M18,346 l800,0" />
        <path id="Capline-L" d="M18,476 l800,0" />
        <path id="Baseline-L" d="M18,546 l800,0" />
    </g>
    <g id="Symbols">
        <g id="Ultralight-M" transform="translate(0,200)">
            <path d="M286,103.045 L286,92.227 C286,89.361 285.939,88.682 285.237,87.43 C284.566,86.232 283.495,85.258 282.178,84.648 C280.8,84.01 280.053,83.955 276.9,83.955 L233.5,83.955 C231.567,83.955 230,85.379 230,87.136 C230,88.894 231.567,90.318 233.5,90.318 L276.9,90.318 C278.647,90.318 279.067,90.349 279,90.318 C279,90.318 279,90.318 279,90.318 C278.966,90.257 279,90.639 279,92.227 L279,103.045 C279,104.803 280.567,106.227 282.5,106.227 C284.433,106.227 286,104.803 286,103.045 Z M265,118.955 L265,129.773 C265,131.361 264.966,131.743 265,131.682 C265,131.682 265,131.682 265,131.682 C265.067,131.651 264.647,131.682 262.9,131.682 L233.5,131.682 C231.567,131.682 230,133.106 230,134.864 C230,136.621 231.567,138.045 233.5,138.045 L262.9,138.045 C266.053,138.045 266.8,137.99 268.178,137.352 C269.495,136.742 270.566,135.768 271.237,134.571 C271.939,133.318 272,132.639 272,129.773 L272,118.955 C272,117.197 270.433,115.773 268.5,115.773 C266.567,115.773 265,117.197 265,118.955 Z M230,79.182 L230,142.818 C230,144.575 231.567,146 233.5,146 C235.433,146 237,144.575 237,142.818 L237,79.182 C237,77.425 235.433,76 233.5,76 C231.567,76 230,77.425 230,79.182 Z M233.5,122.136 L290.9,122.136 C294.053,122.136 294.8,122.081 296.178,121.443 C297.495,120.833 298.566,119.859 299.237,118.662 C299.939,117.409 300,116.73 300,113.864 L300,108.136 C300,105.27 299.939,104.591 299.237,103.339 C298.566,102.141 297.495,101.167 296.178,100.557 C294.8,99.919 294.053,99.864 290.9,99.864 L233.5,99.864 C231.567,99.864 230,101.288 230,103.045 L230,118.955 C230,120.712 231.567,122.136 233.5,122.136 Z M233.5,115.773 L237,118.955 L237,103.045 L233.5,106.227 L290.9,106.227 C292.647,106.227 293.068,106.259 293,106.228 C293,106.227 293,106.227 293,106.227 C292.966,106.166 293,106.548 293,108.136 L293,113.864 C293,115.452 292.966,115.834 293,115.773 C293,115.773 293,115.773 293,115.773 C293.067,115.741 292.647,115.773 290.9,115.773 L233.5,115.773 Z" />
        </g>
        <g id="Regular-M" transform="translate(0,200)">
            <path d="M486,103.045 L486,92.227 C486,89.361 485.939,88.682 485.237,87.43 C484.566,86.232 483.495,85.258 482.178,84.648 C480.8,84.01 480.053,83.955 476.9,83.955 L433.5,83.955 C431.567,83.955 430,85.379 430,87.136 C430,88.894 431.567,90.318 433.5,90.318 L476.9,90.318 C478.647,90.318 479.067,90.349 479,90.318 C479,90.318 479,90.318 479,90.318 C478.966,90.257 479,90.639 479,92.227 L479,103.045 C479,104.803 480.567,106.227 482.5,106.227 C484.433,106.227 486,104.803 486,103.045 Z M465,118.955 L465,129.773 C465,131.361 464.966,131.743 465,131.682 C465,131.682 465,131.682 465,131.682 C465.067,131.651 464.647,131.682 462.9,131.682 L433.5,131.682 C431.567,131.682 430,133.106 430,134.864 C430,136.621 431.567,138.045 433.5,138.045 L462.9,138.045 C466.053,138.045 466.8,137.99 468.178,137.352 C469.495,136.742 470.566,135.768 471.237,134.571 C471.939,133.318 472,132.639 472,129.773 L472,118.955 C472,117.197 470.433,115.773 468.5,115.773 C466.567,115.773 465,117.197 465,118.955 Z M430,79.182 L430,142.818 C430,144.575 431.567,146 433.5,146 C435.433,146 437,144.575 437,142.818 L437,79.182 C437,77.425 435.433,76 433.5,76 C431.567,76 430,77.425 430,79.182 Z M433.5,122.136 L490.9,122.136 C494.053,122.136 494.8,122.081 496.178,121.443 C497.495,120.833 498.566,119.859 499.237,118.662 C499.939,117.409 500,116.73 500,113.864 L500,108.136 C500,105.27 499.939,104.591 499.237,103.339 C498.566,102.141 497.495,101.167 496.178,100.557 C494.8,99.919 494.053,99.864 490.9,99.864 L433.5,99.864 C431.567,99.864 430,101.288 430,103.045 L430,118.955 C430,120.712 431.567,122.136 433.5,122.136 Z M433.5,115.773 L437,118.955 L437,103.045 L433.5,106.227 L490.9,106.227 C492.647,106.227 493.068,106.259 493,106.228 C493,106.227 493,106.227 493,106.227 C492.966,106.166 493,106.548 493,108.136 L493,113.864 C493,115.452 492.966,115.834 493,115.773 C493,115.773 493,115.773 493,115.773 C493.067,115.741 492.647,115.773 490.9,115.773 L433.5,115.773 Z" />
        </g>
        <g id="Black-M" transform="translate(0,200)">
            <path d="M686,103.045 L686,92.227 C686,89.361 685.939,88.682 685.237,87.43 C684.566,86.232 683.495,85.258 682.178,84.648 C680.8,84.01 680.053,83.955 676.9,83.955 L633.5,83.955 C631.567,83.955 630,85.379 630,87.136 C630,88.894 631.567,90.318 633.5,90.318 L676.9,90.318 C678.647,90.318 679.068,90.349 679,90.318 C679,90.318 679,90.318 679,90.318 C678.966,90.257 679,90.639 679,92.227 L679,103.045 C679,104.803 680.567,106.227 682.5,106.227 C684.433,106.227 686,104.803 686,103.045 Z M665,118.955 L665,129.773 C665,131.361 664.966,131.743 665,131.682 C665,131.682 665,131.682 665,131.682 C665.068,131.651 664.647,131.682 662.9,131.682 L633.5,131.682 C631.567,131.682 630,133.106 630,134.864 C630,136.621 631.567,138.045 633.5,138.045 L662.9,138.045 C666.053,138.045 666.8,137.99 668.177,137.352 C669.495,136.742 670.566,135.768 671.237,134.571 C671.939,133.318 672,132.639 672,129.773 L672,118.955 C672,117.197 670.433,115.773 668.5,115.773 C666.567,115.773 665,117.197 665,118.955 Z M630,79.182 L630,142.818 C630,144.575 631.567,146 633.5,146 C635.433,146 637,144.575 637,142.818 L637,79.182 C637,77.425 635.433,76 633.5,76 C631.567,76 630,77.425 630,79.182 Z M633.5,122.136 L690.9,122.136 C694.053,122.136 694.8,122.081 696.178,121.443 C697.495,120.833 698.566,119.859 699.237,118.662 C699.939,117.409 700,116.73 700,113.864 L700,108.136 C700,105.27 699.939,104.591 699.237,103.339 C698.566,102.141 697.495,101.167 696.178,100.557 C694.8,99.919 694.053,99.864 690.9,99.864 L633.5,99.864 C631.567,99.864 630,101.288 630,103.045 L630,118.955 C630,120.712 631.567,122.136 633.5,122.136 Z M633.5,115.773 L637,118.955 L637,103.045 L633.5,106.227 L690.9,106.227 C692.647,106.227 693.068,106.259 693,106.228 C693,106.227 693,106.227 693,106.227 C692.966,106.166 693,106.548 693,108.136 L693,113.864 C693,115.452 692.966,115.834 693,115.773 C693,115.773 693,115.773 693,115.773 C693.068,115.741 692.647,115.773 690.9,115.773 L633.5,115.773 Z" />
        </g>
    </g>
</svg>