<?xml version="1.0" encoding="UTF-8"?>
<svg height="600" width="800" xmlns="http://www.w3.org/2000/svg" xmlns:xlink="http://www.w3.org/1999/xlink">
    <g id="Notes" font-family="LucidaGrande, 'Lucida Grande', sans-serif" font-size="13">
        <rect fill="white" height="600.0" width="800.0" x="0.0" y="0.0" />
        <g font-size="13">
            <text x="18.0" y="176.0">Small</text>
            <text x="18.0" y="376.0">Medium</text>
            <text x="18.0" y="576.0">Large</text>
        </g>
        <g font-size="9">
            <text x="250.0" y="30.0">Ultralight</text>
            <text x="450.0" y="30.0">Regular</text>
            <text x="650.0" y="30.0">Black</text>
            <text id="template-version" fill="#505050" text-anchor="end" x="785.0" y="575.0">Template v.3.0</text>
            <a href="https://github.com/swhitty/SwiftDraw">
                <text fill="#505050" text-anchor="end" x="785.0" y="590.0">https://github.com/swhitty/SwiftDraw</text>
            </a>
        </g>
    </g>
    <g id="Guides" stroke="rgb(39, 170, 225)" stroke-width="0.5">
        <path id="Capline-S" d="M18,76 l800,0" />
        <path id="H-reference" d="M85,145.755 L87.685,145.755 L113.369,79.287 L114.052,79.287 L114.052,76 L112.148,76 L85,145.755 Z M95.693,121.536 L130.996,121.536 L130.263,119.313 L96.474,119.313 L95.693,121.536 Z M139.15,145.755 L141.787,145.755 L114.638,76 L113.466,76 L113.466,79.287 L139.15,145.755 Z" stroke="none" transform="translate(0,200)" />
        <path id="Baseline-S" d="M18,146 l800,0" />
        <path id="left-margin-Ultralight-M" d="M230,256 l0,110" />
        <path id="right-margin-Ultralight-M" d="M300,256 l0,110" />
        <path id="left-margin-Regular-M" d="M430,256 l0,110" />
        <path id="right-margin-Regular-M" d="M500,256 l0,110" />
        <path id="left-margin-Black-M" d="M630,256 l0,110" />
        <path id="right-margin-Black-M" d="M700,256 l0,110" />
        <path id="Capline-M" d="M18,276 l800,0" />
        <path id="Baseline-M" d="M18,346 l800,0" />
        <path id="Capline-L" d="M18,476 l800,0" />
        <path id="Baseline-L" d="M18,546 l800,0" />
    </g>
    <g id="Symbols">
        <g id="Ultralight-M" transform="translate(0,200)">
            <path d="M267.772,97.983 C265.336,99.716 262.089,99.787 259.58,98.161 C257.071,96.535 255.809,93.543 256.395,90.611 C256.981,87.68 259.298,85.403 262.239,84.868 C265.18,84.333 268.15,85.647 269.732,88.183 C270.585,89.55 272.384,89.967 273.75,89.115 C275.117,88.263 275.534,86.463 274.682,85.097 C271.835,80.531 266.488,78.165 261.194,79.129 C255.9,80.093 251.731,84.191 250.675,89.467 C249.619,94.744 251.892,100.13 256.408,103.056 C260.924,105.983 266.768,105.856 271.153,102.737 C272.466,101.803 272.773,99.982 271.839,98.669 C270.905,97.357 269.084,97.05 267.772,97.983 Z M247.5,137.507 L255.113,137.507 C255.876,137.507 256.634,137.597 257.368,137.775 L265.411,139.728 C267.562,140.254 269.806,140.307 271.983,139.882 L280.878,138.153 C283.768,137.595 286.436,136.207 288.553,134.157 L294.853,128.027 C296.273,126.663 297.083,124.762 297.083,122.775 C297.083,120.787 296.273,118.886 294.84,117.509 C292.184,114.958 288.083,114.673 285.1,116.834 L277.756,122.192 C277.201,122.595 276.527,122.814 275.835,122.813 L268.751,122.813 L268.751,128.646 L273.257,128.646 C277.39,128.646 280.773,125.355 280.773,121.255 L280.773,120.36 C280.743,116.908 278.368,113.95 275.029,113.18 L268.107,111.497 C266.748,111.167 265.356,111 263.959,111 C262.836,111 261.565,111.232 260.12,111.64 C259.426,111.837 258.704,112.071 257.965,112.336 C257.203,112.61 256.46,112.901 255.764,113.193 C255.342,113.37 255.024,113.51 254.838,113.595 L246.375,117.132 C244.889,117.753 244.188,119.462 244.809,120.948 C245.431,122.434 247.139,123.135 248.625,122.514 L257.177,118.938 C257.397,118.839 257.658,118.724 258.019,118.573 C258.626,118.319 259.275,118.064 259.934,117.827 C260.555,117.605 261.151,117.411 261.708,117.253 C262.681,116.978 263.476,116.833 263.959,116.833 C264.892,116.833 265.822,116.945 266.73,117.165 L273.685,118.857 C274.429,119.028 274.934,119.657 274.94,120.385 L274.94,121.255 C274.94,122.097 274.204,122.813 273.257,122.813 L268.751,122.813 C264.862,122.813 264.862,128.646 268.751,128.646 L275.83,128.646 C277.752,128.649 279.631,128.04 281.19,126.907 L288.53,121.552 C289.219,121.053 290.178,121.12 290.798,121.716 C291.087,121.993 291.25,122.375 291.25,122.775 C291.25,123.174 291.087,123.556 290.799,123.833 L284.491,129.971 C283.193,131.227 281.55,132.082 279.768,132.426 L270.869,134.157 C269.518,134.42 268.127,134.387 266.792,134.061 L258.744,132.106 C257.557,131.818 256.338,131.673 255.113,131.673 L247.5,131.673 C245.889,131.673 244.583,132.979 244.583,134.59 C244.583,136.201 245.889,137.507 247.5,137.507 Z M285.417,94.958 C285.417,98.985 282.152,102.25 278.125,102.25 C274.098,102.25 270.833,98.985 270.833,94.958 C270.833,90.931 274.098,87.667 278.125,87.667 C282.152,87.667 285.417,90.931 285.417,94.958 Z M291.25,94.958 C291.25,87.71 285.374,81.833 278.125,81.833 C270.876,81.833 265,87.71 265,94.958 C265,102.207 270.876,108.083 278.125,108.083 C285.374,108.083 291.25,102.207 291.25,94.958 Z M232.917,118.583 L232.917,135.5 C232.917,138.128 232.967,138.75 233.552,139.898 C234.112,140.996 235.004,141.888 236.102,142.448 C237.25,143.033 237.872,143.083 240.5,143.083 L242.833,143.083 C245.461,143.083 246.083,143.033 247.231,142.448 C248.329,141.888 249.222,140.996 249.781,139.898 C250.366,138.75 250.417,138.128 250.417,135.5 L250.417,118.583 C250.417,115.956 250.366,115.334 249.781,114.185 C249.222,113.087 248.329,112.195 247.232,111.636 C246.083,111.051 245.461,111 242.833,111 L240.5,111 C237.872,111 237.25,111.051 236.102,111.636 C235.004,112.195 234.112,113.087 233.552,114.185 C232.967,115.334 232.917,115.956 232.917,118.583 Z M238.75,118.583 C238.75,117.128 238.779,116.777 238.75,116.833 C238.75,116.833 238.75,116.833 238.75,116.833 C238.694,116.862 239.044,116.833 240.5,116.833 L242.833,116.833 C244.289,116.833 244.64,116.862 244.584,116.834 C244.583,116.833 244.583,116.833 244.583,116.833 C244.555,116.777 244.583,117.128 244.583,118.583 L244.583,135.5 C244.583,136.956 244.555,137.306 244.583,137.25 C244.583,137.25 244.583,137.25 244.583,137.25 C244.64,137.221 244.289,137.25 242.833,137.25 L240.5,137.25 C239.044,137.25 238.694,137.221 238.75,137.25 C238.75,137.25 238.75,137.25 238.75,137.25 C238.779,137.306 238.75,136.956 238.75,135.5 L238.75,118.583 Z" />
        </g>
        <g id="Regular-M" transform="translate(0,200)">
            <path d="M467.772,97.983 C465.336,99.716 462.089,99.787 459.58,98.161 C457.071,96.535 455.809,93.543 456.395,90.611 C456.981,87.68 459.298,85.403 462.239,84.868 C465.18,84.333 468.15,85.647 469.732,88.183 C470.585,89.55 472.384,89.967 473.75,89.115 C475.117,88.263 475.534,86.463 474.682,85.097 C471.835,80.531 466.488,78.165 461.194,79.129 C455.9,80.093 451.731,84.191 450.675,89.467 C449.619,94.744 451.892,100.13 456.408,103.056 C460.924,105.983 466.768,105.856 471.153,102.737 C472.466,101.803 472.773,99.982 471.839,98.669 C470.905,97.357 469.084,97.05 467.772,97.983 Z M447.5,137.507 L455.112,137.507 C455.876,137.507 456.634,137.597 457.368,137.775 L465.411,139.728 C467.562,140.254 469.806,140.307 471.983,139.882 L480.878,138.153 C483.768,137.595 486.436,136.207 488.553,134.157 L494.853,128.027 C496.273,126.663 497.083,124.762 497.083,122.775 C497.083,120.787 496.273,118.886 494.84,117.509 C492.184,114.958 488.083,114.673 485.1,116.834 L477.756,122.192 C477.201,122.595 476.527,122.814 475.835,122.813 L468.751,122.813 L468.751,128.646 L473.257,128.646 C477.39,128.646 480.773,125.355 480.773,121.255 L480.773,120.36 C480.743,116.908 478.368,113.95 475.029,113.18 L468.107,111.497 C466.748,111.167 465.356,111 463.959,111 C462.836,111 461.565,111.232 460.12,111.64 C459.426,111.837 458.704,112.071 457.965,112.336 C457.203,112.61 456.46,112.901 455.764,113.193 C455.342,113.37 455.024,113.51 454.838,113.595 L446.375,117.132 C444.889,117.753 444.188,119.462 444.809,120.948 C445.431,122.434 447.139,123.135 448.625,122.514 L457.177,118.938 C457.397,118.839 457.658,118.724 458.019,118.573 C458.626,118.319 459.275,118.064 459.934,117.827 C460.555,117.605 461.151,117.411 461.708,117.253 C462.681,116.978 463.476,116.833 463.959,116.833 C464.892,116.833 465.822,116.945 466.73,117.165 L473.685,118.857 C474.429,119.028 474.934,119.657 474.94,120.385 L474.94,121.255 C474.94,122.097 474.204,122.813 473.257,122.813 L468.751,122.813 C464.862,122.813 464.862,128.646 468.751,128.646 L475.83,128.646 C477.752,128.649 479.631,128.04 481.19,126.907 L488.53,121.552 C489.219,121.053 490.178,121.12 490.798,121.716 C491.087,121.993 491.25,122.375 491.25,122.775 C491.25,123.174 491.087,123.556 490.799,123.833 L484.491,129.971 C483.193,131.227 481.55,132.082 479.768,132.426 L470.869,134.157 C469.518,134.42 468.127,134.387 466.792,134.061 L458.744,132.106 C457.557,131.818 456.338,131.673 455.112,131.673 L447.5,131.673 C445.889,131.673 444.583,132.979 444.583,134.59 C444.583,136.201 445.889,137.507 447.5,137.507 Z M485.417,94.958 C485.417,98.985 482.152,102.25 478.125,102.25 C474.098,102.25 470.833,98.985 470.833,94.958 C470.833,90.931 474.098,87.667 478.125,87.667 C482.152,87.667 485.417,90.931 485.417,94.958 Z M491.25,94.958 C491.25,87.71 485.374,81.833 478.125,81.833 C470.876,81.833 465,87.71 465,94.958 C465,102.207 470.876,108.083 478.125,108.083 C485.374,108.083 491.25,102.207 491.25,94.958 Z M432.917,118.583 L432.917,135.5 C432.917,138.128 432.967,138.75 433.552,139.898 C434.112,140.996 435.004,141.888 436.102,142.448 C437.25,143.033 437.872,143.083 440.5,143.083 L442.833,143.083 C445.461,143.083 446.083,143.033 447.231,142.448 C448.329,141.888 449.222,140.996 449.781,139.898 C450.366,138.75 450.417,138.128 450.417,135.5 L450.417,118.583 C450.417,115.956 450.366,115.334 449.781,114.185 C449.222,113.087 448.329,112.195 447.232,111.636 C446.083,111.051 445.461,111 442.833,111 L440.5,111 C437.872,111 437.25,111.051 436.102,111.636 C435.004,112.195 434.112,113.087 433.552,114.185 C432.967,115.334 432.917,115.956 432.917,118.583 Z M438.75,118.583 C438.75,117.128 438.779,116.777 438.75,116.833 C438.75,116.833 438.75,116.833 438.75,116.833 C438.694,116.862 439.044,116.833 440.5,116.833 L442.833,116.833 C444.289,116.833 444.64,116.862 444.584,116.834 C444.583,116.833 444.583,116.833 444.583,116.833 C444.555,116.777 444.583,117.128 444.583,118.583 L444.583,135.5 C444.583,136.956 444.555,137.306 444.583,137.25 C444.583,137.25 444.583,137.25 444.583,137.25 C444.64,137.221 444.289,137.25 442.833,137.25 L440.5,137.25 C439.044,137.25 438.694,137.221 438.75,137.25 C438.75,137.25 438.75,137.25 438.75,137.25 C438.779,137.306 438.75,136.956 438.75,135.5 L438.75,118.583 Z" />
        </g>
        <g id="Black-M" transform="translate(0,200)">
            <path d="M667.772,97.983 C665.336,99.716 662.089,99.787 659.58,98.161 C657.071,96.535 655.809,93.543 656.395,90.611 C656.981,87.68 659.298,85.403 662.239,84.868 C665.18,84.333 668.15,85.647 669.732,88.183 C670.585,89.55 672.384,89.967 673.75,89.115 C675.117,88.263 675.534,86.463 674.682,85.097 C671.834,80.531 666.488,78.165 661.194,79.129 C655.9,80.093 651.731,84.191 650.675,89.467 C649.619,94.744 651.892,100.13 656.408,103.056 C660.924,105.983 666.768,105.856 671.153,102.737 C672.466,101.803 672.773,99.982 671.839,98.669 C670.905,97.357 669.084,97.05 667.772,97.983 Z M647.5,137.507 L655.112,137.507 C655.876,137.507 656.634,137.597 657.368,137.775 L665.411,139.728 C667.562,140.254 669.806,140.307 671.983,139.882 L680.878,138.153 C683.768,137.595 686.436,136.207 688.553,134.157 L694.853,128.027 C696.273,126.663 697.083,124.762 697.083,122.775 C697.083,120.787 696.273,118.886 694.84,117.509 C692.184,114.958 688.083,114.673 685.1,116.834 L677.756,122.192 C677.201,122.595 676.527,122.814 675.835,122.813 L668.751,122.813 L668.751,128.646 L673.257,128.646 C677.39,128.646 680.773,125.355 680.773,121.255 L680.773,120.36 C680.743,116.908 678.368,113.95 675.029,113.18 L668.107,111.497 C666.748,111.167 665.356,111 663.959,111 C662.836,111 661.565,111.232 660.12,111.64 C659.426,111.837 658.704,112.071 657.965,112.336 C657.203,112.61 656.46,112.901 655.764,113.193 C655.342,113.37 655.024,113.51 654.838,113.595 L646.375,117.132 C644.889,117.753 644.188,119.462 644.809,120.948 C645.431,122.434 647.139,123.135 648.625,122.514 L657.177,118.938 C657.397,118.839 657.658,118.724 658.019,118.573 C658.626,118.319 659.275,118.064 659.934,117.827 C660.555,117.605 661.151,117.411 661.708,117.253 C662.681,116.978 663.476,116.833 663.959,116.833 C664.892,116.833 665.822,116.945 666.73,117.165 L673.685,118.857 C674.429,119.028 674.934,119.657 674.94,120.385 L674.94,121.255 C674.94,122.097 674.204,122.813 673.257,122.813 L668.751,122.813 C664.862,122.813 664.862,128.646 668.751,128.646 L675.83,128.646 C677.752,128.649 679.631,128.04 681.19,126.907 L688.53,121.552 C689.219,121.053 690.178,121.12 690.798,121.716 C691.087,121.993 691.25,122.375 691.25,122.775 C691.25,123.174 691.087,123.556 690.799,123.833 L684.491,129.971 C683.193,131.227 681.55,132.082 679.768,132.426 L670.869,134.157 C669.518,134.42 668.127,134.387 666.792,134.061 L658.744,132.106 C657.557,131.818 656.338,131.673 655.112,131.673 L647.5,131.673 C645.889,131.673 644.583,132.979 644.583,134.59 C644.583,136.201 645.889,137.507 647.5,137.507 Z M685.417,94.958 C685.417,98.985 682.152,102.25 678.125,102.25 C674.098,102.25 670.833,98.985 670.833,94.958 C670.833,90.931 674.098,87.667 678.125,87.667 C682.152,87.667 685.417,90.931 685.417,94.958 Z M691.25,94.958 C691.25,87.71 685.374,81.833 678.125,81.833 C670.876,81.833 665,87.71 665,94.958 C665,102.207 670.876,108.083 678.125,108.083 C685.374,108.083 691.25,102.207 691.25,94.958 Z M632.917,118.583 L632.917,135.5 C632.917,138.128 632.967,138.75 633.552,139.898 C634.112,140.996 635.004,141.888 636.102,142.448 C637.25,143.033 637.872,143.083 640.5,143.083 L642.833,143.083 C645.461,143.083 646.083,143.033 647.231,142.448 C648.329,141.888 649.222,140.996 649.781,139.898 C650.366,138.75 650.417,138.128 650.417,135.5 L650.417,118.583 C650.417,115.956 650.366,115.334 649.781,114.185 C649.222,113.087 648.329,112.195 647.232,111.636 C646.083,111.051 645.461,111 642.833,111 L640.5,111 C637.872,111 637.25,111.051 636.102,111.636 C635.004,112.195 634.112,113.087 633.552,114.185 C632.967,115.334 632.917,115.956 632.917,118.583 Z M638.75,118.583 C638.75,117.128 638.779,116.777 638.75,116.833 C638.75,116.833 638.75,116.833 638.75,116.833 C638.694,116.862 639.044,116.833 640.5,116.833 L642.833,116.833 C644.289,116.833 644.64,116.862 644.584,116.834 C644.583,116.833 644.583,116.833 644.583,116.833 C644.555,116.777 644.583,117.128 644.583,118.583 L644.583,135.5 C644.583,136.956 644.555,137.306 644.583,137.25 C644.583,137.25 644.583,137.25 644.583,137.25 C644.64,137.221 644.289,137.25 642.833,137.25 L640.5,137.25 C639.044,137.25 638.694,137.221 638.75,137.25 C638.75,137.25 638.75,137.25 638.75,137.25 C638.779,137.306 638.75,136.956 638.75,135.5 L638.75,118.583 Z" />
        </g>
    </g>
</svg>