<?xml version="1.0" encoding="UTF-8"?>
<svg height="600" width="800" xmlns="http://www.w3.org/2000/svg" xmlns:xlink="http://www.w3.org/1999/xlink">
    <g id="Notes" font-family="LucidaGrande, 'Lucida Grande', sans-serif" font-size="13">
        <rect fill="white" height="600.0" width="800.0" x="0.0" y="0.0" />
        <g font-size="13">
            <text x="18.0" y="176.0">Small</text>
            <text x="18.0" y="376.0">Medium</text>
            <text x="18.0" y="576.0">Large</text>
        </g>
        <g font-size="9">
            <text x="250.0" y="30.0">Ultralight</text>
            <text x="450.0" y="30.0">Regular</text>
            <text x="650.0" y="30.0">Black</text>
            <text id="template-version" fill="#505050" text-anchor="end" x="785.0" y="575.0">Template v.3.0</text>
            <a href="https://github.com/swhitty/SwiftDraw">
                <text fill="#505050" text-anchor="end" x="785.0" y="590.0">https://github.com/swhitty/SwiftDraw</text>
            </a>
        </g>
    </g>
    <g id="Guides" stroke="rgb(39, 170, 225)" stroke-width="0.5">
        <path id="Capline-S" d="M18,76 l800,0" />
        <path id="H-reference" d="M85,145.755 L87.685,145.755 L113.369,79.287 L114.052,79.287 L114.052,76 L112.148,76 L85,145.755 Z M95.693,121.536 L130.996,121.536 L130.263,119.313 L96.474,119.313 L95.693,121.536 Z M139.15,145.755 L141.787,145.755 L114.638,76 L113.466,76 L113.466,79.287 L139.15,145.755 Z" stroke="none" transform="translate(0,200)" />
        <path id="Baseline-S" d="M18,146 l800,0" />
        <path id="left-margin-Ultralight-M" d="M233.182,256 l0,110" />
        <path id="right-margin-Ultralight-M" d="M296.818,256 l0,110" />
        <path id="left-margin-Regular-M" d="M433.182,256 l0,110" />
        <path id="right-margin-Regular-M" d="M496.818,256 l0,110" />
        <path id="left-margin-Black-M" d="M633.182,256 l0,110" />
        <path id="right-margin-Black-M" d="M696.818,256 l0,110" />
        <path id="Capline-M" d="M18,276 l800,0" />
        <path id="Baseline-M" d="M18,346 l800,0" />
        <path id="Capline-L" d="M18,476 l800,0" />
        <path id="Baseline-L" d="M18,546 l800,0" />
    </g>
    <g id="Symbols">
        <g id="Ultralight-M" transform="translate(0,200)">
            <path d="M252.273,91.909 L252.273,106.23 C252.273,108.091 252.251,108.519 252.164,108.842 C252.065,109.208 251.907,109.547 251.693,109.852 C251.498,110.126 251.169,110.43 249.757,111.606 L237.986,121.413 C236.086,122.994 235.577,123.464 234.922,124.389 C234.273,125.313 233.797,126.332 233.507,127.411 C233.214,128.508 233.182,129.158 233.182,131.682 L233.182,132.64 C233.182,137.733 233.281,138.943 234.222,140.791 C235.137,142.587 236.598,144.048 238.394,144.963 C240.246,145.902 241.454,146 246.545,146 L283.455,146 C288.548,146 289.758,145.901 291.606,144.96 C293.402,144.044 294.863,142.584 295.778,140.788 C296.719,138.939 296.818,137.73 296.818,132.636 L296.818,131.679 C296.818,129.155 296.785,128.502 296.488,127.405 C296.204,126.334 295.725,125.309 295.077,124.392 C294.42,123.464 293.911,122.994 292.009,121.412 L280.245,111.607 C278.819,110.421 278.502,110.128 278.304,109.847 C278.093,109.547 277.935,109.208 277.838,108.848 C277.749,108.519 277.727,108.093 277.727,106.227 L277.727,91.909 C277.727,90.152 276.303,88.727 274.545,88.727 C272.788,88.727 271.364,90.152 271.364,91.909 L271.364,106.227 C271.364,108.756 271.397,109.407 271.694,110.504 C271.981,111.577 272.458,112.596 273.1,113.51 C273.759,114.444 274.248,114.896 276.172,116.497 L287.937,126.302 C289.351,127.479 289.68,127.783 289.882,128.067 C290.091,128.364 290.247,128.698 290.342,129.053 C290.433,129.39 290.455,129.818 290.455,131.679 L290.455,132.636 C290.455,136.452 290.38,137.365 290.108,137.9 C289.803,138.498 289.316,138.984 288.717,139.29 C288.183,139.562 287.27,139.636 283.455,139.636 L246.545,139.636 C242.728,139.636 241.814,139.562 241.277,139.29 C240.684,138.988 240.197,138.501 239.892,137.902 C239.62,137.368 239.545,136.455 239.545,132.64 L239.545,131.682 C239.545,129.812 239.567,129.384 239.654,129.056 C239.75,128.701 239.908,128.362 240.122,128.057 C240.317,127.783 240.646,127.479 242.058,126.303 L253.829,116.496 C255.729,114.915 256.238,114.445 256.893,113.52 C257.542,112.596 258.018,111.577 258.308,110.498 C258.603,109.407 258.636,108.754 258.636,106.23 L258.636,91.909 C258.636,90.152 257.212,88.727 255.455,88.727 C253.697,88.727 252.273,90.152 252.273,91.909 Z M253.227,95.091 L276.773,95.091 C278.521,95.091 278.932,95.058 279.883,94.578 C280.798,94.109 281.526,93.378 281.982,92.479 C282.466,91.537 282.5,91.121 282.5,89.364 L282.5,81.727 C282.5,79.97 282.466,79.554 281.973,78.596 C281.526,77.713 280.798,76.982 279.901,76.522 C278.932,76.033 278.521,76 276.773,76 L253.227,76 C251.479,76 251.068,76.033 250.117,76.513 C249.202,76.982 248.474,77.713 248.019,78.612 C247.534,79.554 247.5,79.97 247.5,81.727 L247.5,89.364 C247.5,91.112 247.533,91.523 248.013,92.474 C248.482,93.388 249.213,94.117 250.112,94.572 C251.054,95.057 251.47,95.091 253.227,95.091 Z M253.227,88.727 C252.718,88.727 252.546,88.725 252.444,88.716 C252.551,88.725 252.747,88.772 253.005,88.904 C253.288,89.048 253.532,89.29 253.685,89.589 C253.822,89.861 253.867,90.05 253.875,90.152 C253.866,90.048 253.864,89.875 253.864,89.364 L253.864,81.727 C253.864,81.218 253.866,81.046 253.875,80.944 C253.866,81.051 253.819,81.247 253.687,81.505 C253.543,81.788 253.3,82.032 253.001,82.185 C252.73,82.322 252.54,82.367 252.439,82.375 C252.543,82.366 252.716,82.364 253.227,82.364 L276.773,82.364 C277.284,82.364 277.457,82.366 277.561,82.375 C277.46,82.367 277.27,82.322 277.016,82.194 C276.7,82.032 276.457,81.788 276.305,81.488 C276.181,81.247 276.134,81.051 276.125,80.944 C276.134,81.046 276.136,81.218 276.136,81.727 L276.136,89.364 C276.136,89.873 276.134,90.045 276.125,90.147 C276.134,90.04 276.181,89.844 276.313,89.586 C276.457,89.303 276.7,89.059 276.999,88.906 C277.27,88.769 277.46,88.724 277.561,88.716 C277.457,88.725 277.284,88.727 276.773,88.727 L253.227,88.727 Z M244.318,130.091 L285.682,130.091 C287.266,130.091 287.656,130.104 287.899,130.152 C289.157,130.402 290.144,131.389 290.395,132.652 C290.441,132.889 290.455,133.279 290.455,134.864 C290.455,136.448 290.441,136.838 290.394,137.081 C290.144,138.338 289.157,139.326 287.894,139.576 C287.656,139.623 287.266,139.636 285.682,139.636 L244.318,139.636 C242.734,139.636 242.344,139.623 242.101,139.575 C240.843,139.326 239.856,138.338 239.605,137.076 C239.559,136.838 239.545,136.448 239.545,134.864 C239.545,133.279 239.559,132.889 239.606,132.646 C239.856,131.389 240.843,130.402 242.106,130.151 C242.344,130.104 242.734,130.091 244.318,130.091 Z M244.318,123.727 C242.205,123.727 241.704,123.744 240.872,123.908 C237.078,124.662 234.116,127.623 233.364,131.412 C233.199,132.249 233.182,132.751 233.182,134.864 C233.182,136.977 233.199,137.478 233.363,138.31 C234.116,142.104 237.078,145.066 240.866,145.818 C241.704,145.983 242.205,146 244.318,146 L285.682,146 C287.795,146 288.296,145.983 289.128,145.819 C292.922,145.066 295.884,142.104 296.636,138.315 C296.801,137.478 296.818,136.977 296.818,134.864 C296.818,132.751 296.801,132.249 296.637,131.417 C295.884,127.623 292.922,124.662 289.134,123.909 C288.296,123.744 287.795,123.727 285.682,123.727 L244.318,123.727 Z" />
        </g>
        <g id="Regular-M" transform="translate(0,200)">
            <path d="M452.273,91.909 L452.273,106.23 C452.273,108.091 452.251,108.519 452.164,108.842 C452.065,109.208 451.907,109.547 451.693,109.852 C451.498,110.126 451.169,110.43 449.757,111.606 L437.986,121.413 C436.086,122.994 435.577,123.464 434.922,124.389 C434.273,125.313 433.797,126.332 433.507,127.411 C433.214,128.508 433.182,129.158 433.182,131.682 L433.182,132.64 C433.182,137.733 433.281,138.943 434.222,140.791 C435.137,142.587 436.598,144.048 438.394,144.963 C440.246,145.902 441.454,146 446.545,146 L483.455,146 C488.548,146 489.758,145.901 491.606,144.96 C493.402,144.044 494.863,142.584 495.778,140.788 C496.719,138.939 496.818,137.73 496.818,132.636 L496.818,131.679 C496.818,129.155 496.785,128.502 496.488,127.405 C496.204,126.334 495.725,125.309 495.077,124.392 C494.42,123.464 493.911,122.994 492.009,121.412 L480.245,111.607 C478.819,110.421 478.502,110.128 478.304,109.847 C478.093,109.547 477.935,109.208 477.838,108.848 C477.749,108.519 477.727,108.093 477.727,106.227 L477.727,91.909 C477.727,90.152 476.303,88.727 474.545,88.727 C472.788,88.727 471.364,90.152 471.364,91.909 L471.364,106.227 C471.364,108.756 471.397,109.407 471.694,110.504 C471.981,111.577 472.458,112.596 473.1,113.51 C473.759,114.444 474.248,114.896 476.172,116.497 L487.937,126.302 C489.351,127.479 489.68,127.783 489.882,128.067 C490.091,128.364 490.247,128.698 490.342,129.053 C490.433,129.39 490.455,129.818 490.455,131.679 L490.455,132.636 C490.455,136.452 490.38,137.365 490.108,137.9 C489.803,138.498 489.316,138.984 488.717,139.29 C488.183,139.562 487.27,139.636 483.455,139.636 L446.545,139.636 C442.728,139.636 441.814,139.562 441.277,139.29 C440.684,138.988 440.197,138.501 439.892,137.902 C439.62,137.368 439.545,136.455 439.545,132.64 L439.545,131.682 C439.545,129.812 439.567,129.384 439.654,129.056 C439.75,128.701 439.908,128.362 440.122,128.057 C440.317,127.783 440.646,127.479 442.058,126.303 L453.829,116.496 C455.729,114.915 456.238,114.445 456.893,113.52 C457.542,112.596 458.018,111.577 458.308,110.498 C458.603,109.407 458.636,108.754 458.636,106.23 L458.636,91.909 C458.636,90.152 457.212,88.727 455.455,88.727 C453.697,88.727 452.273,90.152 452.273,91.909 Z M453.227,95.091 L476.773,95.091 C478.521,95.091 478.932,95.058 479.883,94.578 C480.798,94.109 481.526,93.378 481.982,92.479 C482.466,91.537 482.5,91.121 482.5,89.364 L482.5,81.727 C482.5,79.97 482.466,79.554 481.973,78.596 C481.526,77.713 480.798,76.982 479.901,76.522 C478.932,76.033 478.521,76 476.773,76 L453.227,76 C451.479,76 451.068,76.033 450.117,76.513 C449.202,76.982 448.474,77.713 448.019,78.612 C447.534,79.554 447.5,79.97 447.5,81.727 L447.5,89.364 C447.5,91.112 447.533,91.523 448.013,92.474 C448.482,93.388 449.213,94.117 450.112,94.572 C451.054,95.057 451.47,95.091 453.227,95.091 Z M453.227,88.727 C452.718,88.727 452.546,88.725 452.444,88.716 C452.551,88.725 452.747,88.772 453.005,88.904 C453.288,89.048 453.532,89.29 453.685,89.589 C453.822,89.861 453.867,90.05 453.875,90.152 C453.866,90.048 453.864,89.875 453.864,89.364 L453.864,81.727 C453.864,81.218 453.866,81.046 453.875,80.944 C453.866,81.051 453.819,81.247 453.687,81.505 C453.543,81.788 453.3,82.032 453.001,82.185 C452.73,82.322 452.54,82.367 452.439,82.375 C452.543,82.366 452.716,82.364 453.227,82.364 L476.773,82.364 C477.284,82.364 477.457,82.366 477.561,82.375 C477.46,82.367 477.27,82.322 477.016,82.194 C476.7,82.032 476.457,81.788 476.305,81.488 C476.181,81.247 476.134,81.051 476.125,80.944 C476.134,81.046 476.136,81.218 476.136,81.727 L476.136,89.364 C476.136,89.873 476.134,90.045 476.125,90.147 C476.134,90.04 476.181,89.844 476.313,89.586 C476.457,89.303 476.7,89.059 476.999,88.906 C477.27,88.769 477.46,88.724 477.561,88.716 C477.457,88.725 477.284,88.727 476.773,88.727 L453.227,88.727 Z M444.318,130.091 L485.682,130.091 C487.266,130.091 487.656,130.104 487.899,130.152 C489.157,130.402 490.144,131.389 490.395,132.652 C490.441,132.889 490.455,133.279 490.455,134.864 C490.455,136.448 490.441,136.838 490.394,137.081 C490.144,138.338 489.157,139.326 487.894,139.576 C487.656,139.623 487.266,139.636 485.682,139.636 L444.318,139.636 C442.734,139.636 442.344,139.623 442.101,139.575 C440.843,139.326 439.856,138.338 439.605,137.076 C439.559,136.838 439.545,136.448 439.545,134.864 C439.545,133.279 439.559,132.889 439.606,132.646 C439.856,131.389 440.843,130.402 442.106,130.151 C442.344,130.104 442.734,130.091 444.318,130.091 Z M444.318,123.727 C442.205,123.727 441.704,123.744 440.872,123.908 C437.078,124.662 434.116,127.623 433.364,131.412 C433.199,132.249 433.182,132.751 433.182,134.864 C433.182,136.977 433.199,137.478 433.363,138.31 C434.116,142.104 437.078,145.066 440.866,145.818 C441.704,145.983 442.205,146 444.318,146 L485.682,146 C487.795,146 488.296,145.983 489.128,145.819 C492.922,145.066 495.884,142.104 496.636,138.315 C496.801,137.478 496.818,136.977 496.818,134.864 C496.818,132.751 496.801,132.249 496.637,131.417 C495.884,127.623 492.922,124.662 489.134,123.909 C488.296,123.744 487.795,123.727 485.682,123.727 L444.318,123.727 Z" />
        </g>
        <g id="Black-M" transform="translate(0,200)">
            <path d="M652.273,91.909 L652.273,106.23 C652.273,108.091 652.251,108.519 652.164,108.842 C652.065,109.208 651.907,109.547 651.693,109.852 C651.498,110.126 651.169,110.43 649.757,111.606 L637.986,121.413 C636.086,122.994 635.577,123.464 634.922,124.389 C634.273,125.313 633.797,126.332 633.507,127.411 C633.214,128.508 633.182,129.158 633.182,131.682 L633.182,132.64 C633.182,137.733 633.281,138.943 634.222,140.791 C635.137,142.587 636.598,144.048 638.394,144.963 C640.246,145.902 641.454,146 646.545,146 L683.455,146 C688.548,146 689.758,145.901 691.606,144.96 C693.402,144.044 694.863,142.584 695.778,140.788 C696.719,138.939 696.818,137.73 696.818,132.636 L696.818,131.679 C696.818,129.155 696.785,128.502 696.488,127.405 C696.204,126.334 695.725,125.309 695.077,124.392 C694.42,123.464 693.911,122.994 692.009,121.412 L680.245,111.607 C678.819,110.421 678.502,110.128 678.304,109.847 C678.093,109.547 677.935,109.208 677.838,108.848 C677.749,108.519 677.727,108.093 677.727,106.227 L677.727,91.909 C677.727,90.152 676.303,88.727 674.545,88.727 C672.788,88.727 671.364,90.152 671.364,91.909 L671.364,106.227 C671.364,108.756 671.397,109.407 671.694,110.504 C671.981,111.577 672.458,112.596 673.1,113.51 C673.759,114.444 674.248,114.896 676.172,116.497 L687.937,126.302 C689.351,127.479 689.68,127.783 689.882,128.067 C690.091,128.364 690.247,128.698 690.342,129.053 C690.433,129.39 690.455,129.818 690.455,131.679 L690.455,132.636 C690.455,136.452 690.38,137.365 690.107,137.9 C689.803,138.498 689.316,138.984 688.717,139.29 C688.183,139.562 687.27,139.636 683.455,139.636 L646.545,139.636 C642.728,139.636 641.814,139.562 641.277,139.29 C640.684,138.988 640.197,138.501 639.892,137.902 C639.62,137.368 639.545,136.455 639.545,132.64 L639.545,131.682 C639.545,129.812 639.567,129.384 639.654,129.056 C639.75,128.701 639.908,128.362 640.122,128.057 C640.317,127.783 640.646,127.479 642.058,126.303 L653.829,116.496 C655.729,114.915 656.238,114.445 656.893,113.52 C657.542,112.596 658.018,111.577 658.308,110.498 C658.603,109.407 658.636,108.754 658.636,106.23 L658.636,91.909 C658.636,90.152 657.212,88.727 655.455,88.727 C653.697,88.727 652.273,90.152 652.273,91.909 Z M653.227,95.091 L676.773,95.091 C678.521,95.091 678.932,95.058 679.883,94.578 C680.798,94.109 681.526,93.378 681.982,92.479 C682.466,91.537 682.5,91.121 682.5,89.364 L682.5,81.727 C682.5,79.97 682.466,79.554 681.973,78.596 C681.526,77.713 680.798,76.982 679.901,76.522 C678.932,76.033 678.521,76 676.773,76 L653.227,76 C651.479,76 651.068,76.033 650.117,76.513 C649.202,76.982 648.474,77.713 648.019,78.612 C647.534,79.554 647.5,79.97 647.5,81.727 L647.5,89.364 C647.5,91.112 647.533,91.523 648.013,92.474 C648.482,93.388 649.213,94.117 650.112,94.572 C651.054,95.057 651.47,95.091 653.227,95.091 Z M653.227,88.727 C652.718,88.727 652.546,88.725 652.444,88.716 C652.551,88.725 652.747,88.772 653.005,88.904 C653.288,89.048 653.532,89.29 653.685,89.589 C653.822,89.861 653.867,90.05 653.875,90.152 C653.866,90.048 653.864,89.875 653.864,89.364 L653.864,81.727 C653.864,81.218 653.866,81.046 653.875,80.944 C653.866,81.051 653.819,81.247 653.687,81.505 C653.543,81.788 653.3,82.032 653.001,82.185 C652.73,82.322 652.54,82.367 652.439,82.375 C652.543,82.366 652.716,82.364 653.227,82.364 L676.773,82.364 C677.284,82.364 677.457,82.366 677.561,82.375 C677.46,82.367 677.27,82.322 677.016,82.194 C676.7,82.032 676.457,81.788 676.305,81.488 C676.181,81.247 676.134,81.051 676.125,80.944 C676.134,81.046 676.136,81.218 676.136,81.727 L676.136,89.364 C676.136,89.873 676.134,90.045 676.125,90.147 C676.134,90.04 676.181,89.844 676.313,89.586 C676.457,89.303 676.7,89.059 676.999,88.906 C677.27,88.769 677.46,88.724 677.561,88.716 C677.457,88.725 677.284,88.727 676.773,88.727 L653.227,88.727 Z M644.318,130.091 L685.682,130.091 C687.266,130.091 687.656,130.104 687.899,130.152 C689.157,130.402 690.144,131.389 690.395,132.652 C690.441,132.889 690.455,133.279 690.455,134.864 C690.455,136.448 690.441,136.838 690.394,137.081 C690.144,138.338 689.157,139.326 687.894,139.576 C687.656,139.623 687.266,139.636 685.682,139.636 L644.318,139.636 C642.734,139.636 642.344,139.623 642.101,139.575 C640.843,139.326 639.856,138.338 639.605,137.076 C639.559,136.838 639.545,136.448 639.545,134.864 C639.545,133.279 639.559,132.889 639.606,132.646 C639.856,131.389 640.843,130.402 642.106,130.151 C642.344,130.104 642.734,130.091 644.318,130.091 Z M644.318,123.727 C642.205,123.727 641.704,123.744 640.872,123.908 C637.078,124.662 634.116,127.623 633.364,131.412 C633.199,132.249 633.182,132.751 633.182,134.864 C633.182,136.977 633.199,137.478 633.363,138.31 C634.116,142.104 637.078,145.066 640.866,145.818 C641.704,145.983 642.205,146 644.318,146 L685.682,146 C687.795,146 688.296,145.983 689.128,145.819 C692.922,145.066 695.884,142.104 696.636,138.315 C696.801,137.478 696.818,136.977 696.818,134.864 C696.818,132.751 696.801,132.249 696.637,131.417 C695.884,127.623 692.922,124.662 689.134,123.909 C688.296,123.744 687.795,123.727 685.682,123.727 L644.318,123.727 Z" />
        </g>
    </g>
</svg>