<?xml version="1.0" encoding="UTF-8"?>
<svg height="600" width="800" xmlns="http://www.w3.org/2000/svg" xmlns:xlink="http://www.w3.org/1999/xlink">
    <g id="Notes" font-family="LucidaGrande, 'Lucida Grande', sans-serif" font-size="13">
        <rect fill="white" height="600.0" width="800.0" x="0.0" y="0.0" />
        <g font-size="13">
            <text x="18.0" y="176.0">Small</text>
            <text x="18.0" y="376.0">Medium</text>
            <text x="18.0" y="576.0">Large</text>
        </g>
        <g font-size="9">
            <text x="250.0" y="30.0">Ultralight</text>
            <text x="450.0" y="30.0">Regular</text>
            <text x="650.0" y="30.0">Black</text>
            <text id="template-version" fill="#505050" text-anchor="end" x="785.0" y="575.0">Template v.3.0</text>
            <a href="https://github.com/swhitty/SwiftDraw">
                <text fill="#505050" text-anchor="end" x="785.0" y="590.0">https://github.com/swhitty/SwiftDraw</text>
            </a>
        </g>
    </g>
    <g id="Guides" stroke="rgb(39, 170, 225)" stroke-width="0.5">
        <path id="Capline-S" d="M18,76 l800,0" />
        <path id="H-reference" d="M85,145.755 L87.685,145.755 L113.369,79.287 L114.052,79.287 L114.052,76 L112.148,76 L85,145.755 Z M95.693,121.536 L130.996,121.536 L130.263,119.313 L96.474,119.313 L95.693,121.536 Z M139.15,145.755 L141.787,145.755 L114.638,76 L113.466,76 L113.466,79.287 L139.15,145.755 Z" stroke="none" transform="translate(0,200)" />
        <path id="Baseline-S" d="M18,146 l800,0" />
        <path id="left-margin-Ultralight-M" d="M228.158,256 l0,110" />
        <path id="right-margin-Ultralight-M" d="M301.842,256 l0,110" />
        <path id="left-margin-Regular-M" d="M428.158,256 l0,110" />
        <path id="right-margin-Regular-M" d="M501.842,256 l0,110" />
        <path id="left-margin-Black-M" d="M628.158,256 l0,110" />
        <path id="right-margin-Black-M" d="M701.842,256 l0,110" />
        <path id="Capline-M" d="M18,276 l800,0" />
        <path id="Baseline-M" d="M18,346 l800,0" />
        <path id="Capline-L" d="M18,476 l800,0" />
        <path id="Baseline-L" d="M18,546 l800,0" />
    </g>
    <g id="Symbols">
        <g id="Ultralight-M" transform="translate(0,200)">
            <path d="M294.474,110.983 C294.474,120.312 289.596,129.021 281.458,134.226 C273.321,139.43 262.993,140.447 253.907,136.939 C252.673,136.464 252.477,136.394 251.929,136.277 C251.407,136.16 250.838,136.101 250.268,136.108 C249.504,136.141 248.881,136.217 248.267,136.337 L235.299,138.388 C234.488,138.516 234.208,138.556 234.021,138.569 C234.142,138.561 234.41,138.587 234.811,138.751 C235.235,138.925 235.581,139.253 235.767,139.665 C235.937,140.04 235.964,140.293 235.955,140.406 C235.969,140.229 236.01,139.966 236.146,139.191 L238.33,126.737 C238.509,125.718 238.546,125.458 238.546,124.926 C238.553,124.428 238.49,123.886 238.36,123.358 C238.244,122.87 238.17,122.684 237.672,121.515 C233.221,111.047 235.823,99.06 244.272,91.118 C252.72,83.176 265.363,80.832 276.334,85.174 C287.305,89.517 294.457,99.695 294.474,110.988 Z M301.842,110.978 C301.822,96.862 292.881,84.139 279.167,78.711 C265.453,73.283 249.65,76.213 239.089,86.141 C228.529,96.069 225.276,111.053 230.842,124.141 C231.117,124.788 231.188,124.965 231.179,124.928 C231.181,124.935 231.178,124.909 231.178,124.882 C231.178,124.903 231.159,125.031 231.062,125.586 L228.877,138.042 C228.433,140.584 228.393,141.091 228.997,142.429 C229.556,143.664 230.593,144.649 231.893,145.18 C233.293,145.756 233.828,145.718 236.508,145.295 L249.618,143.219 C250.002,143.146 250.248,143.116 250.496,143.104 C250.331,143.109 250.304,143.106 250.278,143.1 C250.272,143.099 250.459,143.166 251.137,143.427 C262.492,147.81 275.402,146.539 285.572,140.034 C295.745,133.528 301.842,122.641 301.842,110.983 Z" />
        </g>
        <g id="Regular-M" transform="translate(0,200)">
            <path d="M494.474,110.983 C494.474,120.312 489.596,129.021 481.458,134.226 C473.321,139.43 462.993,140.447 453.907,136.939 C452.673,136.464 452.477,136.394 451.929,136.277 C451.407,136.16 450.838,136.101 450.268,136.108 C449.504,136.141 448.881,136.217 448.267,136.337 L435.299,138.388 C434.488,138.516 434.208,138.556 434.021,138.569 C434.142,138.561 434.41,138.587 434.811,138.751 C435.236,138.925 435.581,139.253 435.767,139.665 C435.937,140.04 435.964,140.293 435.955,140.406 C435.969,140.229 436.01,139.966 436.146,139.191 L438.33,126.737 C438.509,125.718 438.546,125.458 438.546,124.926 C438.553,124.428 438.49,123.886 438.36,123.358 C438.244,122.87 438.17,122.684 437.672,121.515 C433.221,111.047 435.823,99.06 444.272,91.118 C452.72,83.176 465.363,80.832 476.334,85.174 C487.305,89.517 494.457,99.695 494.474,110.988 Z M501.842,110.978 C501.822,96.862 492.881,84.139 479.167,78.711 C465.453,73.283 449.65,76.213 439.089,86.141 C428.529,96.069 425.276,111.053 430.842,124.141 C431.117,124.788 431.188,124.965 431.179,124.928 C431.181,124.935 431.178,124.909 431.178,124.882 C431.178,124.903 431.159,125.031 431.062,125.586 L428.877,138.042 C428.433,140.584 428.393,141.091 428.997,142.429 C429.556,143.664 430.593,144.649 431.893,145.18 C433.293,145.756 433.828,145.718 436.508,145.295 L449.618,143.219 C450.002,143.146 450.248,143.116 450.496,143.104 C450.331,143.109 450.304,143.106 450.278,143.1 C450.272,143.099 450.459,143.166 451.137,143.427 C462.492,147.81 475.402,146.539 485.572,140.034 C495.745,133.528 501.842,122.641 501.842,110.983 Z" />
        </g>
        <g id="Black-M" transform="translate(0,200)">
            <path d="M694.474,110.983 C694.474,120.312 689.596,129.021 681.458,134.226 C673.321,139.43 662.993,140.447 653.907,136.939 C652.673,136.464 652.477,136.394 651.929,136.277 C651.407,136.16 650.838,136.101 650.268,136.108 C649.504,136.141 648.881,136.217 648.267,136.337 L635.299,138.388 C634.488,138.516 634.208,138.556 634.021,138.569 C634.142,138.561 634.41,138.587 634.811,138.751 C635.235,138.925 635.581,139.253 635.767,139.665 C635.937,140.04 635.964,140.293 635.955,140.406 C635.969,140.229 636.01,139.966 636.146,139.191 L638.33,126.737 C638.509,125.718 638.546,125.458 638.546,124.926 C638.553,124.428 638.49,123.886 638.36,123.358 C638.244,122.87 638.17,122.684 637.672,121.515 C633.221,111.047 635.823,99.06 644.272,91.118 C652.72,83.176 665.363,80.832 676.334,85.174 C687.305,89.517 694.457,99.695 694.474,110.988 Z M701.842,110.978 C701.822,96.862 692.881,84.139 679.167,78.711 C665.453,73.283 649.65,76.213 639.089,86.141 C628.529,96.069 625.276,111.053 630.842,124.141 C631.117,124.788 631.188,124.965 631.179,124.928 C631.181,124.935 631.178,124.909 631.178,124.882 C631.178,124.903 631.159,125.031 631.062,125.586 L628.877,138.042 C628.432,140.584 628.393,141.091 628.997,142.429 C629.556,143.664 630.593,144.649 631.893,145.18 C633.293,145.756 633.828,145.718 636.508,145.295 L649.618,143.219 C650.002,143.146 650.248,143.116 650.496,143.104 C650.331,143.109 650.304,143.106 650.278,143.1 C650.272,143.099 650.459,143.166 651.137,143.427 C662.492,147.81 675.402,146.539 685.572,140.034 C695.745,133.528 701.842,122.641 701.842,110.983 Z" />
        </g>
    </g>
</svg>