<?xml version="1.0" encoding="UTF-8"?>
<svg height="600" width="800" xmlns="http://www.w3.org/2000/svg" xmlns:xlink="http://www.w3.org/1999/xlink">
    <g id="Notes" font-family="LucidaGrande, 'Lucida Grande', sans-serif" font-size="13">
        <rect fill="white" height="600.0" width="800.0" x="0.0" y="0.0" />
        <g font-size="13">
            <text x="18.0" y="176.0">Small</text>
            <text x="18.0" y="376.0">Medium</text>
            <text x="18.0" y="576.0">Large</text>
        </g>
        <g font-size="9">
            <text x="250.0" y="30.0">Ultralight</text>
            <text x="450.0" y="30.0">Regular</text>
            <text x="650.0" y="30.0">Black</text>
            <text id="template-version" fill="#505050" text-anchor="end" x="785.0" y="575.0">Template v.3.0</text>
            <a href="https://github.com/swhitty/SwiftDraw">
                <text fill="#505050" text-anchor="end" x="785.0" y="590.0">https://github.com/swhitty/SwiftDraw</text>
            </a>
        </g>
    </g>
    <g id="Guides" stroke="rgb(39, 170, 225)" stroke-width="0.5">
        <path id="Capline-S" d="M18,76 l800,0" />
        <path id="H-reference" d="M85,145.755 L87.685,145.755 L113.369,79.287 L114.052,79.287 L114.052,76 L112.148,76 L85,145.755 Z M95.693,121.536 L130.996,121.536 L130.263,119.313 L96.474,119.313 L95.693,121.536 Z M139.15,145.755 L141.787,145.755 L114.638,76 L113.466,76 L113.466,79.287 L139.15,145.755 Z" stroke="none" transform="translate(0,200)" />
        <path id="Baseline-S" d="M18,146 l800,0" />
        <path id="left-margin-Ultralight-M" d="M230,256 l0,110" />
        <path id="right-margin-Ultralight-M" d="M300,256 l0,110" />
        <path id="left-margin-Regular-M" d="M430,256 l0,110" />
        <path id="right-margin-Regular-M" d="M500,256 l0,110" />
        <path id="left-margin-Black-M" d="M630,256 l0,110" />
        <path id="right-margin-Black-M" d="M700,256 l0,110" />
        <path id="Capline-M" d="M18,276 l800,0" />
        <path id="Baseline-M" d="M18,346 l800,0" />
        <path id="Capline-L" d="M18,476 l800,0" />
        <path id="Baseline-L" d="M18,546 l800,0" />
    </g>
    <g id="Symbols">
        <g id="Ultralight-M" transform="translate(0,200)">
            <path d="M299.975,105.587 L298.467,92.937 C297.659,86.16 297.337,84.508 296.005,82.272 C294.695,80.075 292.804,78.325 290.561,77.236 C288.279,76.128 286.698,76 280.155,76 L249.845,76 C243.302,76 241.721,76.128 239.439,77.236 C237.196,78.325 235.305,80.075 233.996,82.271 C232.664,84.504 232.342,86.153 231.533,92.937 L230.025,105.587 C229.807,107.414 231.044,109.079 232.787,109.308 C234.531,109.536 236.121,108.24 236.339,106.413 L237.847,93.763 C238.514,88.176 238.774,86.84 239.393,85.803 C240.048,84.704 240.994,83.829 242.115,83.284 C243.173,82.77 244.456,82.667 249.845,82.667 L280.155,82.667 C285.544,82.667 286.827,82.77 287.886,83.284 C289.006,83.829 289.952,84.704 290.606,85.802 C291.226,86.842 291.487,88.178 292.153,93.763 L293.661,106.413 C293.879,108.24 295.469,109.536 297.213,109.308 C298.956,109.079 300.193,107.414 299.975,105.587 Z M244.318,122.667 L285.682,122.667 C287.439,122.667 288.864,121.174 288.864,119.333 C288.864,117.492 287.439,116 285.682,116 L244.318,116 C242.561,116 241.136,117.492 241.136,119.333 C241.136,121.174 242.561,122.667 244.318,122.667 Z M244.318,116 C239.925,116 236.364,112.269 236.364,107.667 C236.364,103.064 239.925,99.333 244.318,99.333 L285.682,99.333 C290.075,99.333 293.636,103.064 293.636,107.667 C293.636,112.269 290.075,116 285.682,116 C283.925,116 282.5,117.492 282.5,119.333 C282.5,121.174 283.925,122.667 285.682,122.667 C293.59,122.667 300,115.951 300,107.667 C300,99.382 293.59,92.667 285.682,92.667 L244.318,92.667 C236.41,92.667 230,99.382 230,107.667 C230,115.951 236.41,122.667 244.318,122.667 C246.075,122.667 247.5,121.174 247.5,119.333 C247.5,117.492 246.075,116 244.318,116 Z M244.318,116 C236.41,116 230,122.716 230,131 C230,139.284 236.41,146 244.318,146 L285.682,146 C293.59,146 300,139.284 300,131 C300,122.716 293.59,116 285.682,116 C283.925,116 282.5,117.492 282.5,119.333 C282.5,121.174 283.925,122.667 285.682,122.667 C290.075,122.667 293.636,126.398 293.636,131 C293.636,135.602 290.075,139.333 285.682,139.333 L244.318,139.333 C239.925,139.333 236.364,135.602 236.364,131 C236.364,126.398 239.925,122.667 244.318,122.667 C246.075,122.667 247.5,121.174 247.5,119.333 C247.5,117.492 246.075,116 244.318,116 Z M245.909,111 L245.941,111 C247.698,111 249.123,109.508 249.123,107.667 C249.123,105.826 247.698,104.333 245.941,104.333 L245.909,104.333 C244.152,104.333 242.727,105.826 242.727,107.667 C242.727,109.508 244.152,111 245.909,111 Z M245.909,134.333 L245.941,134.333 C247.698,134.333 249.123,132.841 249.123,131 C249.123,129.159 247.698,127.667 245.941,127.667 L245.909,127.667 C244.152,127.667 242.727,129.159 242.727,131 C242.727,132.841 244.152,134.333 245.909,134.333 Z M265,111 L284.091,111 C285.848,111 287.273,109.508 287.273,107.667 C287.273,105.826 285.848,104.333 284.091,104.333 L265,104.333 C263.243,104.333 261.818,105.826 261.818,107.667 C261.818,109.508 263.243,111 265,111 Z M265,134.333 L284.091,134.333 C285.848,134.333 287.273,132.841 287.273,131 C287.273,129.159 285.848,127.667 284.091,127.667 L265,127.667 C263.243,127.667 261.818,129.159 261.818,131 C261.818,132.841 263.243,134.333 265,134.333 Z" />
        </g>
        <g id="Regular-M" transform="translate(0,200)">
            <path d="M499.975,105.587 L498.467,92.937 C497.659,86.16 497.337,84.508 496.005,82.272 C494.695,80.075 492.804,78.325 490.561,77.236 C488.279,76.128 486.698,76 480.155,76 L449.845,76 C443.302,76 441.721,76.128 439.439,77.236 C437.196,78.325 435.305,80.075 433.996,82.271 C432.664,84.504 432.342,86.153 431.533,92.937 L430.025,105.587 C429.807,107.414 431.044,109.079 432.787,109.308 C434.531,109.536 436.121,108.24 436.339,106.413 L437.847,93.763 C438.514,88.176 438.774,86.84 439.393,85.803 C440.048,84.704 440.994,83.829 442.115,83.284 C443.173,82.77 444.456,82.667 449.845,82.667 L480.155,82.667 C485.544,82.667 486.827,82.77 487.886,83.284 C489.006,83.829 489.952,84.704 490.606,85.802 C491.226,86.842 491.487,88.178 492.153,93.763 L493.661,106.413 C493.879,108.24 495.469,109.536 497.213,109.308 C498.956,109.079 500.193,107.414 499.975,105.587 Z M444.318,122.667 L485.682,122.667 C487.439,122.667 488.864,121.174 488.864,119.333 C488.864,117.492 487.439,116 485.682,116 L444.318,116 C442.561,116 441.136,117.492 441.136,119.333 C441.136,121.174 442.561,122.667 444.318,122.667 Z M444.318,116 C439.925,116 436.364,112.269 436.364,107.667 C436.364,103.064 439.925,99.333 444.318,99.333 L485.682,99.333 C490.075,99.333 493.636,103.064 493.636,107.667 C493.636,112.269 490.075,116 485.682,116 C483.925,116 482.5,117.492 482.5,119.333 C482.5,121.174 483.925,122.667 485.682,122.667 C493.59,122.667 500,115.951 500,107.667 C500,99.382 493.59,92.667 485.682,92.667 L444.318,92.667 C436.41,92.667 430,99.382 430,107.667 C430,115.951 436.41,122.667 444.318,122.667 C446.075,122.667 447.5,121.174 447.5,119.333 C447.5,117.492 446.075,116 444.318,116 Z M444.318,116 C436.41,116 430,122.716 430,131 C430,139.284 436.41,146 444.318,146 L485.682,146 C493.59,146 500,139.284 500,131 C500,122.716 493.59,116 485.682,116 C483.925,116 482.5,117.492 482.5,119.333 C482.5,121.174 483.925,122.667 485.682,122.667 C490.075,122.667 493.636,126.398 493.636,131 C493.636,135.602 490.075,139.333 485.682,139.333 L444.318,139.333 C439.925,139.333 436.364,135.602 436.364,131 C436.364,126.398 439.925,122.667 444.318,122.667 C446.075,122.667 447.5,121.174 447.5,119.333 C447.5,117.492 446.075,116 444.318,116 Z M445.909,111 L445.941,111 C447.698,111 449.123,109.508 449.123,107.667 C449.123,105.826 447.698,104.333 445.941,104.333 L445.909,104.333 C444.152,104.333 442.727,105.826 442.727,107.667 C442.727,109.508 444.152,111 445.909,111 Z M445.909,134.333 L445.941,134.333 C447.698,134.333 449.123,132.841 449.123,131 C449.123,129.159 447.698,127.667 445.941,127.667 L445.909,127.667 C444.152,127.667 442.727,129.159 442.727,131 C442.727,132.841 444.152,134.333 445.909,134.333 Z M465,111 L484.091,111 C485.848,111 487.273,109.508 487.273,107.667 C487.273,105.826 485.848,104.333 484.091,104.333 L465,104.333 C463.243,104.333 461.818,105.826 461.818,107.667 C461.818,109.508 463.243,111 465,111 Z M465,134.333 L484.091,134.333 C485.848,134.333 487.273,132.841 487.273,131 C487.273,129.159 485.848,127.667 484.091,127.667 L465,127.667 C463.243,127.667 461.818,129.159 461.818,131 C461.818,132.841 463.243,134.333 465,134.333 Z" />
        </g>
        <g id="Black-M" transform="translate(0,200)">
            <path d="M699.975,105.587 L698.467,92.937 C697.659,86.16 697.337,84.508 696.005,82.272 C694.695,80.075 692.804,78.325 690.561,77.236 C688.279,76.128 686.698,76 680.155,76 L649.845,76 C643.302,76 641.721,76.128 639.439,77.236 C637.196,78.325 635.305,80.075 633.996,82.271 C632.664,84.504 632.342,86.153 631.533,92.937 L630.025,105.587 C629.807,107.414 631.044,109.079 632.787,109.308 C634.531,109.536 636.121,108.24 636.339,106.413 L637.847,93.763 C638.513,88.176 638.774,86.84 639.393,85.803 C640.048,84.704 640.994,83.829 642.115,83.284 C643.173,82.77 644.456,82.667 649.845,82.667 L680.155,82.667 C685.544,82.667 686.827,82.77 687.886,83.284 C689.006,83.829 689.952,84.704 690.606,85.802 C691.226,86.842 691.487,88.178 692.153,93.763 L693.661,106.413 C693.879,108.24 695.469,109.536 697.213,109.308 C698.956,109.079 700.193,107.414 699.975,105.587 Z M644.318,122.667 L685.682,122.667 C687.439,122.667 688.864,121.174 688.864,119.333 C688.864,117.492 687.439,116 685.682,116 L644.318,116 C642.561,116 641.136,117.492 641.136,119.333 C641.136,121.174 642.561,122.667 644.318,122.667 Z M644.318,116 C639.925,116 636.364,112.269 636.364,107.667 C636.364,103.064 639.925,99.333 644.318,99.333 L685.682,99.333 C690.075,99.333 693.636,103.064 693.636,107.667 C693.636,112.269 690.075,116 685.682,116 C683.925,116 682.5,117.492 682.5,119.333 C682.5,121.174 683.925,122.667 685.682,122.667 C693.59,122.667 700,115.951 700,107.667 C700,99.382 693.59,92.667 685.682,92.667 L644.318,92.667 C636.41,92.667 630,99.382 630,107.667 C630,115.951 636.41,122.667 644.318,122.667 C646.075,122.667 647.5,121.174 647.5,119.333 C647.5,117.492 646.075,116 644.318,116 Z M644.318,116 C636.41,116 630,122.716 630,131 C630,139.284 636.41,146 644.318,146 L685.682,146 C693.59,146 700,139.284 700,131 C700,122.716 693.59,116 685.682,116 C683.925,116 682.5,117.492 682.5,119.333 C682.5,121.174 683.925,122.667 685.682,122.667 C690.075,122.667 693.636,126.398 693.636,131 C693.636,135.602 690.075,139.333 685.682,139.333 L644.318,139.333 C639.925,139.333 636.364,135.602 636.364,131 C636.364,126.398 639.925,122.667 644.318,122.667 C646.075,122.667 647.5,121.174 647.5,119.333 C647.5,117.492 646.075,116 644.318,116 Z M645.909,111 L645.941,111 C647.698,111 649.123,109.508 649.123,107.667 C649.123,105.826 647.698,104.333 645.941,104.333 L645.909,104.333 C644.152,104.333 642.727,105.826 642.727,107.667 C642.727,109.508 644.152,111 645.909,111 Z M645.909,134.333 L645.941,134.333 C647.698,134.333 649.123,132.841 649.123,131 C649.123,129.159 647.698,127.667 645.941,127.667 L645.909,127.667 C644.152,127.667 642.727,129.159 642.727,131 C642.727,132.841 644.152,134.333 645.909,134.333 Z M665,111 L684.091,111 C685.848,111 687.273,109.508 687.273,107.667 C687.273,105.826 685.848,104.333 684.091,104.333 L665,104.333 C663.243,104.333 661.818,105.826 661.818,107.667 C661.818,109.508 663.243,111 665,111 Z M665,134.333 L684.091,134.333 C685.848,134.333 687.273,132.841 687.273,131 C687.273,129.159 685.848,127.667 684.091,127.667 L665,127.667 C663.243,127.667 661.818,129.159 661.818,131 C661.818,132.841 663.243,134.333 665,134.333 Z" />
        </g>
    </g>
</svg>