<?xml version="1.0" encoding="UTF-8"?>
<svg height="600" width="800" xmlns="http://www.w3.org/2000/svg" xmlns:xlink="http://www.w3.org/1999/xlink">
    <g id="Notes" font-family="LucidaGrande, 'Lucida Grande', sans-serif" font-size="13">
        <rect fill="white" height="600.0" width="800.0" x="0.0" y="0.0" />
        <g font-size="13">
            <text x="18.0" y="176.0">Small</text>
            <text x="18.0" y="376.0">Medium</text>
            <text x="18.0" y="576.0">Large</text>
        </g>
        <g font-size="9">
            <text x="250.0" y="30.0">Ultralight</text>
            <text x="450.0" y="30.0">Regular</text>
            <text x="650.0" y="30.0">Black</text>
            <text id="template-version" fill="#505050" text-anchor="end" x="785.0" y="575.0">Template v.3.0</text>
            <a href="https://github.com/swhitty/SwiftDraw">
                <text fill="#505050" text-anchor="end" x="785.0" y="590.0">https://github.com/swhitty/SwiftDraw</text>
            </a>
        </g>
    </g>
    <g id="Guides" stroke="rgb(39, 170, 225)" stroke-width="0.5">
        <path id="Capline-S" d="M18,76 l800,0" />
        <path id="H-reference" d="M85,145.755 L87.685,145.755 L113.369,79.287 L114.052,79.287 L114.052,76 L112.148,76 L85,145.755 Z M95.693,121.536 L130.996,121.536 L130.263,119.313 L96.474,119.313 L95.693,121.536 Z M139.15,145.755 L141.787,145.755 L114.638,76 L113.466,76 L113.466,79.287 L139.15,145.755 Z" stroke="none" transform="translate(0,200)" />
        <path id="Baseline-S" d="M18,146 l800,0" />
        <path id="left-margin-Ultralight-M" d="M221,256 l0,110" />
        <path id="right-margin-Ultralight-M" d="M309,256 l0,110" />
        <path id="left-margin-Regular-M" d="M421,256 l0,110" />
        <path id="right-margin-Regular-M" d="M509,256 l0,110" />
        <path id="left-margin-Black-M" d="M621,256 l0,110" />
        <path id="right-margin-Black-M" d="M709,256 l0,110" />
        <path id="Capline-M" d="M18,276 l800,0" />
        <path id="Baseline-M" d="M18,346 l800,0" />
        <path id="Capline-L" d="M18,476 l800,0" />
        <path id="Baseline-L" d="M18,546 l800,0" />
    </g>
    <g id="Symbols">
        <g id="Ultralight-M" transform="translate(0,200)">
            <path d="M247.4,101.027 C247.4,96.849 247.482,95.85 247.88,95.069 C248.301,94.241 248.975,93.568 249.802,93.146 C250.584,92.748 251.582,92.667 255.76,92.667 L274.24,92.667 C278.418,92.667 279.416,92.748 280.198,93.146 C281.025,93.568 281.699,94.241 282.12,95.069 C282.518,95.85 282.6,96.849 282.6,101.027 L282.6,113.567 C282.6,117.042 282.543,117.881 282.266,118.551 C281.819,119.629 280.962,120.486 279.884,120.932 C279.214,121.209 278.376,121.267 274.9,121.267 C273.357,121.267 272.959,121.284 272.288,121.441 C271.283,121.68 270.355,122.145 269.57,122.802 C269.454,122.898 269.335,123.006 269.217,123.122 C268.838,123.497 268.619,123.773 267.859,124.787 L264.648,129.07 C264.374,129.437 264.27,129.57 264.2,129.648 C264.247,129.595 264.37,129.499 264.597,129.41 C264.858,129.309 265.142,129.309 265.398,129.408 C265.632,129.5 265.754,129.596 265.801,129.648 C265.731,129.57 265.632,129.443 265.351,129.069 L262.14,124.787 C261.37,123.762 261.152,123.487 260.77,123.111 C260.658,123.001 260.544,122.897 260.426,122.799 C259.645,122.145 258.717,121.68 257.721,121.443 C257.041,121.284 256.644,121.267 255.1,121.267 C251.624,121.267 250.786,121.209 250.116,120.932 C249.038,120.486 248.181,119.629 247.734,118.55 C247.457,117.881 247.4,117.042 247.4,113.567 L247.4,101.027 Z M243,101.027 L243,113.567 C243,117.78 243.068,118.782 243.669,120.233 C244.562,122.391 246.276,124.104 248.433,124.998 C249.884,125.598 250.887,125.667 255.1,125.667 C256.245,125.667 256.509,125.678 256.712,125.725 C257.035,125.802 257.344,125.958 257.606,126.177 C257.633,126.199 257.656,126.22 257.682,126.246 C257.84,126.401 258.013,126.619 258.621,127.428 L261.832,131.71 C262.761,132.948 262.975,133.185 263.801,133.508 C264.574,133.808 265.426,133.808 266.195,133.51 C267.025,133.185 267.255,132.93 268.169,131.708 L271.38,127.426 C271.981,126.624 272.154,126.407 272.31,126.252 C272.337,126.225 272.361,126.204 272.385,126.184 C272.656,125.958 272.965,125.802 273.297,125.723 C273.491,125.678 273.755,125.667 274.9,125.667 C279.113,125.667 280.116,125.598 281.567,124.998 C283.724,124.104 285.438,122.391 286.331,120.234 C286.932,118.782 287,117.78 287,113.567 L287,101.027 C287,95.964 286.902,94.762 286.041,93.072 C285.197,91.416 283.851,90.069 282.195,89.226 C280.505,88.365 279.302,88.267 274.24,88.267 L255.76,88.267 C250.698,88.267 249.495,88.365 247.805,89.226 C246.149,90.069 244.803,91.416 243.959,93.071 C243.098,94.762 243,95.964 243,101.027 Z" />
            <path d="M266.644,100.738 C264.043,97.786 259.76,97.244 256.69,99.797 C253.58,102.379 253.102,106.8 255.594,109.919 C256.581,111.153 258.613,113.088 261.279,115.451 C262.313,116.364 262.6,116.593 263.201,116.874 C263.376,116.956 263.555,117.024 263.74,117.079 C264.538,117.323 265.447,117.323 266.262,117.075 C266.434,117.024 266.613,116.956 266.788,116.874 C267.389,116.593 267.676,116.364 268.707,115.453 C271.376,113.088 273.408,111.153 274.394,109.92 C275.601,108.449 276.171,106.527 275.958,104.609 C275.745,102.691 274.768,100.94 273.246,99.752 C270.166,97.266 265.934,97.796 263.342,100.741 L264.993,102.195 L267.193,102.193 L267.193,102.19 C267.193,101.656 266.998,101.139 266.644,100.738 Z M263.343,103.647 L264.993,102.193 L262.793,102.195 L262.793,102.197 C262.795,104.224 265.306,105.17 266.645,103.648 C267.728,102.418 269.299,102.221 270.511,103.198 C271.126,103.679 271.503,104.354 271.585,105.094 C271.667,105.834 271.447,106.575 270.975,107.151 C270.191,108.13 268.25,109.979 265.792,112.158 C265.155,112.72 264.972,112.866 264.923,112.889 C264.944,112.879 264.969,112.869 264.996,112.861 C265.002,112.859 264.987,112.859 265.009,112.866 C265.02,112.869 265.045,112.879 265.066,112.889 C265.017,112.866 264.834,112.72 264.195,112.155 C261.739,109.979 259.798,108.13 259.031,107.172 C258.043,105.936 258.227,104.24 259.502,103.181 C260.666,102.213 262.257,102.415 263.343,103.647 Z" />
        </g>
        <g id="Regular-M" transform="translate(0,200)">
            <path d="M447.4,101.027 C447.4,96.849 447.482,95.85 447.88,95.069 C448.301,94.241 448.975,93.568 449.802,93.146 C450.584,92.748 451.582,92.667 455.76,92.667 L474.24,92.667 C478.418,92.667 479.416,92.748 480.198,93.146 C481.025,93.568 481.699,94.241 482.12,95.069 C482.518,95.85 482.6,96.849 482.6,101.027 L482.6,113.567 C482.6,117.042 482.543,117.881 482.266,118.551 C481.819,119.629 480.962,120.486 479.884,120.932 C479.214,121.209 478.376,121.267 474.9,121.267 C473.357,121.267 472.959,121.284 472.288,121.441 C471.283,121.68 470.355,122.145 469.57,122.802 C469.454,122.898 469.335,123.006 469.217,123.122 C468.838,123.497 468.619,123.773 467.859,124.787 L464.648,129.07 C464.374,129.437 464.27,129.57 464.2,129.648 C464.247,129.595 464.37,129.499 464.597,129.41 C464.858,129.309 465.142,129.309 465.398,129.408 C465.632,129.5 465.754,129.596 465.801,129.648 C465.731,129.57 465.632,129.443 465.351,129.069 L462.14,124.787 C461.37,123.762 461.152,123.487 460.77,123.111 C460.658,123.001 460.544,122.897 460.426,122.799 C459.645,122.145 458.717,121.68 457.721,121.443 C457.041,121.284 456.644,121.267 455.1,121.267 C451.624,121.267 450.786,121.209 450.116,120.932 C449.038,120.486 448.181,119.629 447.734,118.55 C447.457,117.881 447.4,117.042 447.4,113.567 L447.4,101.027 Z M443,101.027 L443,113.567 C443,117.78 443.068,118.782 443.669,120.233 C444.562,122.391 446.276,124.104 448.433,124.998 C449.884,125.598 450.887,125.667 455.1,125.667 C456.245,125.667 456.509,125.678 456.712,125.725 C457.035,125.802 457.344,125.958 457.606,126.177 C457.633,126.199 457.656,126.22 457.682,126.246 C457.84,126.401 458.013,126.619 458.621,127.428 L461.832,131.71 C462.761,132.948 462.975,133.185 463.801,133.508 C464.574,133.808 465.426,133.808 466.195,133.51 C467.025,133.185 467.255,132.93 468.169,131.708 L471.38,127.426 C471.981,126.624 472.154,126.407 472.31,126.252 C472.337,126.225 472.361,126.204 472.385,126.184 C472.656,125.958 472.965,125.802 473.297,125.723 C473.491,125.678 473.755,125.667 474.9,125.667 C479.113,125.667 480.116,125.598 481.567,124.998 C483.724,124.104 485.438,122.391 486.331,120.234 C486.932,118.782 487,117.78 487,113.567 L487,101.027 C487,95.964 486.902,94.762 486.041,93.072 C485.197,91.416 483.851,90.069 482.195,89.226 C480.505,88.365 479.302,88.267 474.24,88.267 L455.76,88.267 C450.698,88.267 449.495,88.365 447.805,89.226 C446.149,90.069 444.803,91.416 443.959,93.071 C443.098,94.762 443,95.964 443,101.027 Z" />
            <path d="M466.644,100.738 C464.043,97.786 459.76,97.244 456.69,99.797 C453.58,102.379 453.102,106.8 455.594,109.919 C456.581,111.153 458.613,113.088 461.279,115.451 C462.313,116.364 462.6,116.593 463.201,116.874 C463.376,116.956 463.555,117.024 463.74,117.079 C464.538,117.323 465.447,117.323 466.262,117.075 C466.434,117.024 466.613,116.956 466.788,116.874 C467.389,116.593 467.676,116.364 468.707,115.453 C471.376,113.088 473.408,111.153 474.394,109.92 C475.601,108.449 476.171,106.527 475.958,104.609 C475.745,102.691 474.768,100.94 473.246,99.752 C470.166,97.266 465.934,97.796 463.342,100.741 L464.993,102.195 L467.193,102.193 L467.193,102.19 C467.193,101.656 466.998,101.139 466.644,100.738 Z M463.343,103.647 L464.993,102.193 L462.793,102.195 L462.793,102.197 C462.795,104.224 465.306,105.17 466.645,103.648 C467.728,102.418 469.299,102.221 470.511,103.198 C471.126,103.679 471.503,104.354 471.585,105.094 C471.667,105.834 471.447,106.575 470.975,107.151 C470.191,108.13 468.25,109.979 465.792,112.158 C465.155,112.72 464.972,112.866 464.923,112.889 C464.944,112.879 464.969,112.869 464.996,112.861 C465.002,112.859 464.987,112.859 465.009,112.866 C465.02,112.869 465.045,112.879 465.066,112.889 C465.017,112.866 464.834,112.72 464.195,112.155 C461.739,109.979 459.798,108.13 459.031,107.172 C458.043,105.936 458.227,104.24 459.502,103.181 C460.666,102.213 462.257,102.415 463.343,103.647 Z" />
        </g>
        <g id="Black-M" transform="translate(0,200)">
            <path d="M647.4,101.027 C647.4,96.849 647.482,95.85 647.88,95.069 C648.301,94.241 648.974,93.568 649.802,93.146 C650.584,92.748 651.582,92.667 655.76,92.667 L674.24,92.667 C678.418,92.667 679.416,92.748 680.198,93.146 C681.025,93.568 681.699,94.241 682.12,95.069 C682.518,95.85 682.6,96.849 682.6,101.027 L682.6,113.567 C682.6,117.042 682.543,117.881 682.266,118.551 C681.819,119.629 680.962,120.486 679.884,120.932 C679.214,121.209 678.376,121.267 674.9,121.267 C673.356,121.267 672.959,121.284 672.288,121.441 C671.283,121.68 670.355,122.145 669.57,122.802 C669.454,122.898 669.335,123.006 669.217,123.122 C668.838,123.497 668.619,123.773 667.859,124.787 L664.648,129.07 C664.374,129.437 664.27,129.57 664.2,129.648 C664.247,129.595 664.37,129.499 664.597,129.41 C664.858,129.309 665.142,129.309 665.398,129.408 C665.632,129.5 665.754,129.596 665.801,129.648 C665.731,129.57 665.632,129.443 665.351,129.069 L662.14,124.787 C661.37,123.762 661.152,123.487 660.77,123.111 C660.658,123.001 660.544,122.897 660.426,122.799 C659.645,122.145 658.717,121.68 657.721,121.443 C657.041,121.284 656.643,121.267 655.1,121.267 C651.624,121.267 650.786,121.209 650.116,120.932 C649.038,120.486 648.181,119.629 647.734,118.55 C647.457,117.881 647.4,117.042 647.4,113.567 L647.4,101.027 Z M643,101.027 L643,113.567 C643,117.78 643.068,118.782 643.669,120.233 C644.562,122.391 646.276,124.104 648.433,124.998 C649.884,125.598 650.887,125.667 655.1,125.667 C656.245,125.667 656.509,125.678 656.712,125.725 C657.035,125.802 657.344,125.958 657.606,126.177 C657.633,126.199 657.656,126.22 657.682,126.246 C657.84,126.401 658.013,126.619 658.621,127.428 L661.832,131.71 C662.761,132.948 662.975,133.185 663.801,133.508 C664.574,133.808 665.426,133.808 666.195,133.51 C667.025,133.185 667.255,132.93 668.169,131.708 L671.38,127.426 C671.981,126.624 672.154,126.407 672.31,126.252 C672.337,126.225 672.361,126.204 672.385,126.184 C672.656,125.958 672.965,125.802 673.297,125.723 C673.491,125.678 673.755,125.667 674.9,125.667 C679.113,125.667 680.116,125.598 681.567,124.998 C683.724,124.104 685.438,122.391 686.331,120.234 C686.932,118.782 687,117.78 687,113.567 L687,101.027 C687,95.964 686.902,94.762 686.041,93.072 C685.197,91.416 683.851,90.069 682.195,89.226 C680.505,88.365 679.302,88.267 674.24,88.267 L655.76,88.267 C650.698,88.267 649.495,88.365 647.805,89.226 C646.149,90.069 644.803,91.416 643.959,93.071 C643.098,94.762 643,95.964 643,101.027 Z" />
            <path d="M666.644,100.738 C664.043,97.786 659.76,97.244 656.69,99.797 C653.58,102.379 653.102,106.8 655.594,109.919 C656.581,111.153 658.613,113.088 661.279,115.451 C662.313,116.364 662.6,116.593 663.201,116.874 C663.376,116.956 663.555,117.024 663.74,117.079 C664.538,117.323 665.446,117.323 666.262,117.075 C666.434,117.024 666.613,116.956 666.788,116.874 C667.389,116.593 667.676,116.364 668.707,115.453 C671.376,113.088 673.408,111.153 674.394,109.92 C675.601,108.449 676.171,106.527 675.958,104.609 C675.745,102.691 674.767,100.94 673.246,99.752 C670.166,97.266 665.934,97.796 663.342,100.741 L664.993,102.195 L667.193,102.193 L667.193,102.19 C667.193,101.656 666.998,101.139 666.644,100.738 Z M663.343,103.647 L664.993,102.193 L662.793,102.195 L662.793,102.197 C662.795,104.224 665.306,105.17 666.645,103.648 C667.728,102.418 669.299,102.221 670.511,103.198 C671.125,103.679 671.503,104.354 671.585,105.094 C671.667,105.834 671.447,106.575 670.975,107.151 C670.191,108.13 668.25,109.979 665.792,112.158 C665.155,112.72 664.972,112.866 664.923,112.889 C664.944,112.879 664.969,112.869 664.996,112.861 C665.002,112.859 664.987,112.859 665.009,112.866 C665.02,112.869 665.045,112.879 665.066,112.889 C665.017,112.866 664.834,112.72 664.195,112.155 C661.739,109.979 659.798,108.13 659.031,107.172 C658.043,105.936 658.227,104.24 659.502,103.181 C660.666,102.213 662.257,102.415 663.343,103.647 Z" />
        </g>
    </g>
</svg>