<?xml version="1.0" encoding="UTF-8"?>
<svg height="600" width="800" xmlns="http://www.w3.org/2000/svg" xmlns:xlink="http://www.w3.org/1999/xlink">
    <g id="Notes" font-family="LucidaGrande, 'Lucida Grande', sans-serif" font-size="13">
        <rect fill="white" height="600.0" width="800.0" x="0.0" y="0.0" />
        <g font-size="13">
            <text x="18.0" y="176.0">Small</text>
            <text x="18.0" y="376.0">Medium</text>
            <text x="18.0" y="576.0">Large</text>
        </g>
        <g font-size="9">
            <text x="250.0" y="30.0">Ultralight</text>
            <text x="450.0" y="30.0">Regular</text>
            <text x="650.0" y="30.0">Black</text>
            <text id="template-version" fill="#505050" text-anchor="end" x="785.0" y="575.0">Template v.3.0</text>
            <a href="https://github.com/swhitty/SwiftDraw">
                <text fill="#505050" text-anchor="end" x="785.0" y="590.0">https://github.com/swhitty/SwiftDraw</text>
            </a>
        </g>
    </g>
    <g id="Guides" stroke="rgb(39, 170, 225)" stroke-width="0.5">
        <path id="Capline-S" d="M18,76 l800,0" />
        <path id="H-reference" d="M85,145.755 L87.685,145.755 L113.369,79.287 L114.052,79.287 L114.052,76 L112.148,76 L85,145.755 Z M95.693,121.536 L130.996,121.536 L130.263,119.313 L96.474,119.313 L95.693,121.536 Z M139.15,145.755 L141.787,145.755 L114.638,76 L113.466,76 L113.466,79.287 L139.15,145.755 Z" stroke="none" transform="translate(0,200)" />
        <path id="Baseline-S" d="M18,146 l800,0" />
        <path id="left-margin-Ultralight-M" d="M230,256 l0,110" />
        <path id="right-margin-Ultralight-M" d="M300,256 l0,110" />
        <path id="left-margin-Regular-M" d="M430,256 l0,110" />
        <path id="right-margin-Regular-M" d="M500,256 l0,110" />
        <path id="left-margin-Black-M" d="M630,256 l0,110" />
        <path id="right-margin-Black-M" d="M700,256 l0,110" />
        <path id="Capline-M" d="M18,276 l800,0" />
        <path id="Baseline-M" d="M18,346 l800,0" />
        <path id="Capline-L" d="M18,476 l800,0" />
        <path id="Baseline-L" d="M18,546 l800,0" />
    </g>
    <g id="Symbols">
        <g id="Ultralight-M" transform="translate(0,200)">
            <path d="M231.759,113.861 L262.438,129.283 C263.271,129.705 263.53,129.818 264.162,129.929 C264.685,130.035 265.306,130.035 265.907,129.916 C265.894,129.919 265.894,129.919 265.95,129.908 C266.525,129.791 266.74,129.697 267.553,129.291 L298.241,113.86 C299.813,113.07 300.45,111.149 299.664,109.568 C298.878,107.988 296.967,107.348 295.395,108.138 L264.716,123.564 C264.52,123.662 264.482,123.678 264.693,123.635 C264.72,123.63 264.72,123.63 264.748,123.625 C264.892,123.596 265.112,123.596 265.331,123.64 C265.499,123.668 265.483,123.661 265.293,123.565 L234.605,108.138 C233.033,107.348 231.122,107.988 230.336,109.569 C229.55,111.149 230.187,113.07 231.759,113.861 Z M231.759,129.856 L262.438,145.278 C263.271,145.701 263.53,145.813 264.162,145.924 C264.685,146.03 265.306,146.03 265.907,145.911 C265.894,145.914 265.894,145.914 265.95,145.903 C266.525,145.786 266.74,145.692 267.553,145.286 L298.241,129.856 C299.813,129.065 300.45,127.144 299.664,125.564 C298.878,123.983 296.967,123.343 295.395,124.133 L264.716,139.559 C264.52,139.657 264.482,139.673 264.693,139.631 C264.72,139.625 264.72,139.625 264.748,139.62 C264.892,139.591 265.112,139.591 265.331,139.635 C265.499,139.664 265.483,139.656 265.293,139.56 L234.605,124.133 C233.033,123.343 231.122,123.984 230.336,125.564 C229.55,127.144 230.187,129.066 231.759,129.856 Z M234.605,97.865 L265.284,82.443 C265.496,82.335 265.508,82.33 265.296,82.37 C265.099,82.407 264.901,82.407 264.707,82.371 C264.495,82.331 264.514,82.338 264.725,82.444 L295.395,97.865 L295.395,92.143 L264.716,107.565 C264.507,107.68 264.499,107.684 264.491,107.686 C264.901,107.601 265.099,107.601 265.292,107.637 C265.28,107.635 265.28,107.635 265.307,107.64 C265.518,107.683 265.48,107.667 265.275,107.564 L234.605,92.143 L234.605,97.865 Z M231.759,92.143 C229.414,93.322 229.414,96.686 231.759,97.865 L262.438,113.291 C263.26,113.701 263.475,113.796 264.05,113.912 C264.106,113.923 264.106,113.923 264.162,113.933 C264.703,114.035 265.297,114.035 265.877,113.926 C266.681,113.724 267.243,113.488 267.764,113.177 L298.241,97.865 C300.586,96.686 300.586,93.322 298.241,92.143 L267.562,76.717 C266.756,76.315 266.479,76.196 265.882,76.083 C265.298,75.973 264.702,75.973 264.122,76.082 C263.514,76.197 263.215,76.327 262.429,76.725 L231.759,92.143 Z" />
        </g>
        <g id="Regular-M" transform="translate(0,200)">
            <path d="M431.759,113.861 L462.438,129.283 C463.271,129.705 463.53,129.818 464.162,129.929 C464.685,130.035 465.306,130.035 465.907,129.916 C465.894,129.919 465.894,129.919 465.95,129.908 C466.525,129.791 466.74,129.697 467.553,129.291 L498.241,113.86 C499.813,113.07 500.45,111.149 499.664,109.568 C498.878,107.988 496.967,107.348 495.395,108.138 L464.716,123.564 C464.52,123.662 464.482,123.678 464.693,123.635 C464.72,123.63 464.72,123.63 464.748,123.625 C464.892,123.596 465.112,123.596 465.331,123.64 C465.499,123.668 465.483,123.661 465.293,123.565 L434.605,108.138 C433.033,107.348 431.122,107.988 430.336,109.569 C429.55,111.149 430.187,113.07 431.759,113.861 Z M431.759,129.856 L462.438,145.278 C463.271,145.701 463.53,145.813 464.162,145.924 C464.685,146.03 465.306,146.03 465.907,145.911 C465.894,145.914 465.894,145.914 465.95,145.903 C466.525,145.786 466.74,145.692 467.553,145.286 L498.241,129.856 C499.813,129.065 500.45,127.144 499.664,125.564 C498.878,123.983 496.967,123.343 495.395,124.133 L464.716,139.559 C464.52,139.657 464.482,139.673 464.693,139.631 C464.72,139.625 464.72,139.625 464.748,139.62 C464.892,139.591 465.112,139.591 465.331,139.635 C465.499,139.664 465.483,139.656 465.293,139.56 L434.605,124.133 C433.033,123.343 431.122,123.984 430.336,125.564 C429.55,127.144 430.187,129.066 431.759,129.856 Z M434.605,97.865 L465.284,82.443 C465.496,82.335 465.508,82.33 465.296,82.37 C465.099,82.407 464.901,82.407 464.707,82.371 C464.495,82.331 464.514,82.338 464.725,82.444 L495.395,97.865 L495.395,92.143 L464.716,107.565 C464.507,107.68 464.499,107.684 464.491,107.686 C464.901,107.601 465.099,107.601 465.292,107.637 C465.28,107.635 465.28,107.635 465.307,107.64 C465.518,107.683 465.48,107.667 465.275,107.564 L434.605,92.143 L434.605,97.865 Z M431.759,92.143 C429.414,93.322 429.414,96.686 431.759,97.865 L462.438,113.291 C463.26,113.701 463.475,113.796 464.05,113.912 C464.106,113.923 464.106,113.923 464.162,113.933 C464.703,114.035 465.297,114.035 465.877,113.926 C466.681,113.724 467.243,113.488 467.764,113.177 L498.241,97.865 C500.586,96.686 500.586,93.322 498.241,92.143 L467.562,76.717 C466.756,76.315 466.479,76.196 465.882,76.083 C465.298,75.973 464.702,75.973 464.122,76.082 C463.514,76.197 463.215,76.327 462.429,76.725 L431.759,92.143 Z" />
        </g>
        <g id="Black-M" transform="translate(0,200)">
            <path d="M631.759,113.861 L662.438,129.283 C663.271,129.705 663.53,129.818 664.162,129.929 C664.685,130.035 665.306,130.035 665.907,129.916 C665.894,129.919 665.894,129.919 665.95,129.908 C666.525,129.791 666.74,129.697 667.553,129.291 L698.241,113.86 C699.813,113.07 700.45,111.149 699.664,109.568 C698.878,107.988 696.967,107.348 695.395,108.138 L664.716,123.564 C664.52,123.662 664.482,123.678 664.693,123.635 C664.72,123.63 664.72,123.63 664.748,123.625 C664.892,123.596 665.112,123.596 665.331,123.64 C665.499,123.668 665.483,123.661 665.293,123.565 L634.605,108.138 C633.033,107.348 631.122,107.988 630.336,109.569 C629.55,111.149 630.187,113.07 631.759,113.861 Z M631.759,129.856 L662.438,145.278 C663.271,145.701 663.53,145.813 664.162,145.924 C664.685,146.03 665.306,146.03 665.907,145.911 C665.894,145.914 665.894,145.914 665.95,145.903 C666.525,145.786 666.74,145.692 667.553,145.286 L698.241,129.856 C699.813,129.065 700.45,127.144 699.664,125.564 C698.878,123.983 696.967,123.343 695.395,124.133 L664.716,139.559 C664.52,139.657 664.482,139.673 664.693,139.631 C664.72,139.625 664.72,139.625 664.748,139.62 C664.892,139.591 665.112,139.591 665.331,139.635 C665.499,139.664 665.483,139.656 665.293,139.56 L634.605,124.133 C633.033,123.343 631.122,123.984 630.336,125.564 C629.55,127.144 630.187,129.066 631.759,129.856 Z M634.605,97.865 L665.284,82.443 C665.496,82.335 665.508,82.33 665.296,82.37 C665.099,82.407 664.901,82.407 664.707,82.371 C664.495,82.331 664.513,82.338 664.725,82.444 L695.395,97.865 L695.395,92.143 L664.716,107.565 C664.507,107.68 664.499,107.684 664.491,107.686 C664.901,107.601 665.099,107.601 665.292,107.637 C665.28,107.635 665.28,107.635 665.307,107.64 C665.518,107.683 665.48,107.667 665.275,107.564 L634.605,92.143 L634.605,97.865 Z M631.759,92.143 C629.414,93.322 629.414,96.686 631.759,97.865 L662.438,113.291 C663.26,113.701 663.475,113.796 664.05,113.912 C664.106,113.923 664.106,113.923 664.162,113.933 C664.703,114.035 665.297,114.035 665.877,113.926 C666.681,113.724 667.243,113.488 667.764,113.177 L698.241,97.865 C700.586,96.686 700.586,93.322 698.241,92.143 L667.562,76.717 C666.756,76.315 666.479,76.196 665.882,76.083 C665.298,75.973 664.702,75.973 664.122,76.082 C663.514,76.197 663.215,76.327 662.429,76.725 L631.759,92.143 Z" />
        </g>
    </g>
</svg>