<?xml version="1.0" encoding="UTF-8"?>
<svg height="600" width="800" xmlns="http://www.w3.org/2000/svg" xmlns:xlink="http://www.w3.org/1999/xlink">
    <g id="Notes" font-family="LucidaGrande, 'Lucida Grande', sans-serif" font-size="13">
        <rect fill="white" height="600.0" width="800.0" x="0.0" y="0.0" />
        <g font-size="13">
            <text x="18.0" y="176.0">Small</text>
            <text x="18.0" y="376.0">Medium</text>
            <text x="18.0" y="576.0">Large</text>
        </g>
        <g font-size="9">
            <text x="250.0" y="30.0">Ultralight</text>
            <text x="450.0" y="30.0">Regular</text>
            <text x="650.0" y="30.0">Black</text>
            <text id="template-version" fill="#505050" text-anchor="end" x="785.0" y="575.0">Template v.3.0</text>
            <a href="https://github.com/swhitty/SwiftDraw">
                <text fill="#505050" text-anchor="end" x="785.0" y="590.0">https://github.com/swhitty/SwiftDraw</text>
            </a>
        </g>
    </g>
    <g id="Guides" stroke="rgb(39, 170, 225)" stroke-width="0.5">
        <path id="Capline-S" d="M18,76 l800,0" />
        <path id="H-reference" d="M85,145.755 L87.685,145.755 L113.369,79.287 L114.052,79.287 L114.052,76 L112.148,76 L85,145.755 Z M95.693,121.536 L130.996,121.536 L130.263,119.313 L96.474,119.313 L95.693,121.536 Z M139.15,145.755 L141.787,145.755 L114.638,76 L113.466,76 L113.466,79.287 L139.15,145.755 Z" stroke="none" transform="translate(0,200)" />
        <path id="Baseline-S" d="M18,146 l800,0" />
        <path id="left-margin-Ultralight-M" d="M230,256 l0,110" />
        <path id="right-margin-Ultralight-M" d="M300,256 l0,110" />
        <path id="left-margin-Regular-M" d="M430,256 l0,110" />
        <path id="right-margin-Regular-M" d="M500,256 l0,110" />
        <path id="left-margin-Black-M" d="M630,256 l0,110" />
        <path id="right-margin-Black-M" d="M700,256 l0,110" />
        <path id="Capline-M" d="M18,276 l800,0" />
        <path id="Baseline-M" d="M18,346 l800,0" />
        <path id="Capline-L" d="M18,476 l800,0" />
        <path id="Baseline-L" d="M18,546 l800,0" />
    </g>
    <g id="Symbols">
        <g id="Ultralight-M" transform="translate(0,200)">
            <path d="M231.759,113.845 L262.438,129.185 C263.271,129.605 263.53,129.717 264.162,129.827 C264.685,129.932 265.306,129.932 265.907,129.814 C265.894,129.817 265.894,129.817 265.95,129.806 C266.525,129.69 266.74,129.596 267.553,129.192 L298.241,113.845 C299.813,113.059 300.45,111.148 299.664,109.576 C298.878,108.004 296.967,107.367 295.395,108.153 L264.716,123.496 C264.52,123.594 264.482,123.61 264.693,123.567 C264.72,123.562 264.72,123.562 264.748,123.557 C264.892,123.528 265.112,123.528 265.331,123.572 C265.499,123.6 265.483,123.593 265.293,123.497 L234.605,108.153 C233.033,107.367 231.122,108.005 230.336,109.576 C229.55,111.148 230.187,113.059 231.759,113.845 Z M231.759,129.754 L262.438,145.094 C263.271,145.514 263.53,145.626 264.162,145.736 C264.685,145.841 265.306,145.841 265.907,145.723 C265.894,145.726 265.894,145.726 265.95,145.715 C266.525,145.599 266.74,145.505 267.553,145.101 L298.241,129.754 C299.813,128.968 300.45,127.057 299.664,125.485 C298.878,123.913 296.967,123.277 295.395,124.063 L264.716,139.405 C264.52,139.503 264.482,139.519 264.693,139.476 C264.72,139.471 264.72,139.471 264.748,139.466 C264.892,139.437 265.112,139.437 265.331,139.481 C265.499,139.509 265.483,139.502 265.293,139.406 L234.605,124.062 C233.033,123.277 231.122,123.914 230.336,125.485 C229.55,127.057 230.187,128.968 231.759,129.754 Z M234.605,97.936 L265.284,82.597 C265.496,82.489 265.508,82.484 265.296,82.524 C265.099,82.561 264.901,82.561 264.707,82.525 C264.495,82.485 264.514,82.493 264.725,82.598 L295.395,97.936 L295.395,92.244 L264.716,107.584 C264.507,107.698 264.499,107.702 264.491,107.704 C264.901,107.619 265.099,107.619 265.292,107.655 C265.28,107.653 265.28,107.653 265.307,107.658 C265.518,107.701 265.48,107.684 265.275,107.583 L234.605,92.244 L234.605,97.936 Z M231.759,92.244 C229.414,93.417 229.414,96.763 231.759,97.936 L262.438,113.279 C263.26,113.687 263.475,113.781 264.05,113.897 C264.106,113.908 264.106,113.908 264.162,113.918 C264.703,114.019 265.297,114.019 265.877,113.911 C266.681,113.709 267.243,113.475 267.764,113.165 L298.241,97.936 C300.586,96.764 300.586,93.417 298.241,92.244 L267.562,76.902 C266.756,76.501 266.479,76.383 265.882,76.271 C265.298,76.161 264.702,76.161 264.122,76.27 C263.514,76.384 263.215,76.513 262.429,76.909 L231.759,92.244 Z" />
        </g>
        <g id="Regular-M" transform="translate(0,200)">
            <path d="M431.759,113.845 L462.438,129.185 C463.271,129.605 463.53,129.717 464.162,129.827 C464.685,129.932 465.306,129.932 465.907,129.814 C465.894,129.817 465.894,129.817 465.95,129.806 C466.525,129.69 466.74,129.596 467.553,129.192 L498.241,113.845 C499.813,113.059 500.45,111.148 499.664,109.576 C498.878,108.004 496.967,107.367 495.395,108.153 L464.716,123.496 C464.52,123.594 464.482,123.61 464.693,123.567 C464.72,123.562 464.72,123.562 464.748,123.557 C464.892,123.528 465.112,123.528 465.331,123.572 C465.499,123.6 465.483,123.593 465.293,123.497 L434.605,108.153 C433.033,107.367 431.122,108.005 430.336,109.576 C429.55,111.148 430.187,113.059 431.759,113.845 Z M431.759,129.754 L462.438,145.094 C463.271,145.514 463.53,145.626 464.162,145.736 C464.685,145.841 465.306,145.841 465.907,145.723 C465.894,145.726 465.894,145.726 465.95,145.715 C466.525,145.599 466.74,145.505 467.553,145.101 L498.241,129.754 C499.813,128.968 500.45,127.057 499.664,125.485 C498.878,123.913 496.967,123.277 495.395,124.063 L464.716,139.405 C464.52,139.503 464.482,139.519 464.693,139.476 C464.72,139.471 464.72,139.471 464.748,139.466 C464.892,139.437 465.112,139.437 465.331,139.481 C465.499,139.509 465.483,139.502 465.293,139.406 L434.605,124.062 C433.033,123.277 431.122,123.914 430.336,125.485 C429.55,127.057 430.187,128.968 431.759,129.754 Z M434.605,97.936 L465.284,82.597 C465.496,82.489 465.508,82.484 465.296,82.524 C465.099,82.561 464.901,82.561 464.707,82.525 C464.495,82.485 464.514,82.493 464.725,82.598 L495.395,97.936 L495.395,92.244 L464.716,107.584 C464.507,107.698 464.499,107.702 464.491,107.704 C464.901,107.619 465.099,107.619 465.292,107.655 C465.28,107.653 465.28,107.653 465.307,107.658 C465.518,107.701 465.48,107.684 465.275,107.583 L434.605,92.244 L434.605,97.936 Z M431.759,92.244 C429.414,93.417 429.414,96.763 431.759,97.936 L462.438,113.279 C463.26,113.687 463.475,113.781 464.05,113.897 C464.106,113.908 464.106,113.908 464.162,113.918 C464.703,114.019 465.297,114.019 465.877,113.911 C466.681,113.709 467.243,113.475 467.764,113.165 L498.241,97.936 C500.586,96.764 500.586,93.417 498.241,92.244 L467.562,76.902 C466.756,76.501 466.479,76.383 465.882,76.271 C465.298,76.161 464.702,76.161 464.122,76.27 C463.514,76.384 463.215,76.513 462.429,76.909 L431.759,92.244 Z" />
        </g>
        <g id="Black-M" transform="translate(0,200)">
            <path d="M631.759,113.845 L662.438,129.185 C663.271,129.605 663.53,129.717 664.162,129.827 C664.685,129.932 665.306,129.932 665.907,129.814 C665.894,129.817 665.894,129.817 665.95,129.806 C666.525,129.69 666.74,129.596 667.553,129.192 L698.241,113.845 C699.813,113.059 700.45,111.148 699.664,109.576 C698.878,108.004 696.967,107.367 695.395,108.153 L664.716,123.496 C664.52,123.594 664.482,123.61 664.693,123.567 C664.72,123.562 664.72,123.562 664.748,123.557 C664.892,123.528 665.112,123.528 665.331,123.572 C665.499,123.6 665.483,123.593 665.293,123.497 L634.605,108.153 C633.033,107.367 631.122,108.005 630.336,109.576 C629.55,111.148 630.187,113.059 631.759,113.845 Z M631.759,129.754 L662.438,145.094 C663.271,145.514 663.53,145.626 664.162,145.736 C664.685,145.841 665.306,145.841 665.907,145.723 C665.894,145.726 665.894,145.726 665.95,145.715 C666.525,145.599 666.74,145.505 667.553,145.101 L698.241,129.754 C699.813,128.968 700.45,127.057 699.664,125.485 C698.878,123.913 696.967,123.277 695.395,124.063 L664.716,139.405 C664.52,139.503 664.482,139.519 664.693,139.476 C664.72,139.471 664.72,139.471 664.748,139.466 C664.892,139.437 665.112,139.437 665.331,139.481 C665.499,139.509 665.483,139.502 665.293,139.406 L634.605,124.062 C633.033,123.277 631.122,123.914 630.336,125.485 C629.55,127.057 630.187,128.968 631.759,129.754 Z M634.605,97.936 L665.284,82.597 C665.496,82.489 665.508,82.484 665.296,82.524 C665.099,82.561 664.901,82.561 664.707,82.525 C664.495,82.485 664.513,82.493 664.725,82.598 L695.395,97.936 L695.395,92.244 L664.716,107.584 C664.507,107.698 664.499,107.702 664.491,107.704 C664.901,107.619 665.099,107.619 665.292,107.655 C665.28,107.653 665.28,107.653 665.307,107.658 C665.518,107.701 665.48,107.684 665.275,107.583 L634.605,92.244 L634.605,97.936 Z M631.759,92.244 C629.414,93.417 629.414,96.763 631.759,97.936 L662.438,113.279 C663.26,113.687 663.475,113.781 664.05,113.897 C664.106,113.908 664.106,113.908 664.162,113.918 C664.703,114.019 665.297,114.019 665.877,113.911 C666.681,113.709 667.243,113.475 667.764,113.165 L698.241,97.936 C700.586,96.764 700.586,93.417 698.241,92.244 L667.562,76.902 C666.756,76.501 666.479,76.383 665.882,76.271 C665.298,76.161 664.702,76.161 664.122,76.27 C663.514,76.384 663.215,76.513 662.429,76.909 L631.759,92.244 Z" />
        </g>
    </g>
</svg>