<?xml version="1.0" encoding="UTF-8"?>
<svg height="600" width="800" xmlns="http://www.w3.org/2000/svg" xmlns:xlink="http://www.w3.org/1999/xlink">
    <g id="Notes" font-family="LucidaGrande, 'Lucida Grande', sans-serif" font-size="13">
        <rect fill="white" height="600.0" width="800.0" x="0.0" y="0.0" />
        <g font-size="13">
            <text x="18.0" y="176.0">Small</text>
            <text x="18.0" y="376.0">Medium</text>
            <text x="18.0" y="576.0">Large</text>
        </g>
        <g font-size="9">
            <text x="250.0" y="30.0">Ultralight</text>
            <text x="450.0" y="30.0">Regular</text>
            <text x="650.0" y="30.0">Black</text>
            <text id="template-version" fill="#505050" text-anchor="end" x="785.0" y="575.0">Template v.3.0</text>
            <a href="https://github.com/swhitty/SwiftDraw">
                <text fill="#505050" text-anchor="end" x="785.0" y="590.0">https://github.com/swhitty/SwiftDraw</text>
            </a>
        </g>
    </g>
    <g id="Guides" stroke="rgb(39, 170, 225)" stroke-width="0.5">
        <path id="Capline-S" d="M18,76 l800,0" />
        <path id="H-reference" d="M85,145.755 L87.685,145.755 L113.369,79.287 L114.052,79.287 L114.052,76 L112.148,76 L85,145.755 Z M95.693,121.536 L130.996,121.536 L130.263,119.313 L96.474,119.313 L95.693,121.536 Z M139.15,145.755 L141.787,145.755 L114.638,76 L113.466,76 L113.466,79.287 L139.15,145.755 Z" stroke="none" transform="translate(0,200)" />
        <path id="Baseline-S" d="M18,146 l800,0" />
        <path id="left-margin-Ultralight-M" d="M230,256 l0,110" />
        <path id="right-margin-Ultralight-M" d="M300,256 l0,110" />
        <path id="left-margin-Regular-M" d="M430,256 l0,110" />
        <path id="right-margin-Regular-M" d="M500,256 l0,110" />
        <path id="left-margin-Black-M" d="M630,256 l0,110" />
        <path id="right-margin-Black-M" d="M700,256 l0,110" />
        <path id="Capline-M" d="M18,276 l800,0" />
        <path id="Baseline-M" d="M18,346 l800,0" />
        <path id="Capline-L" d="M18,476 l800,0" />
        <path id="Baseline-L" d="M18,546 l800,0" />
    </g>
    <g id="Symbols">
        <g id="Ultralight-M" transform="translate(0,200)">
            <path d="M248.853,102.266 C251.449,107.667 254.943,112.588 259.186,116.821 C263.413,121.058 268.334,124.553 273.735,127.15 C274.423,127.482 274.692,127.599 275.185,127.738 C277.107,128.301 279.361,127.916 281.016,126.73 C281.128,126.647 281.128,126.647 281.238,126.562 C281.546,126.319 281.683,126.189 282.239,125.638 C283.515,124.362 283.839,124.06 284.079,123.901 C284.081,123.9 284.081,123.9 284.083,123.898 C285.203,123.171 286.654,123.171 287.779,123.903 C287.775,123.9 287.775,123.9 287.777,123.901 C288.013,124.057 288.322,124.346 289.607,125.631 L290.275,126.296 C292.189,128.206 292.647,128.718 292.843,129.104 C293.328,130.062 293.328,131.201 292.84,132.165 C292.647,132.544 292.189,133.056 290.271,134.97 L289.728,135.517 C287.736,137.509 287.246,137.944 286.546,138.339 C285.702,138.812 284.172,139.21 283.208,139.206 C282.914,139.205 282.666,139.188 282.414,139.153 C281.891,139.081 281.42,138.963 279.839,138.515 C269.76,135.653 260.581,130.251 253.182,122.828 C245.749,115.42 240.347,106.239 237.483,96.156 C236.887,94.054 236.796,93.615 236.794,92.795 C236.825,91.661 237.139,90.453 237.711,89.361 C237.771,89.257 237.887,89.078 238.027,88.891 C238.424,88.358 238.882,87.873 240.49,86.264 L241.031,85.72 C242.906,83.852 243.392,83.409 243.784,83.186 C243.81,83.172 243.81,83.172 243.832,83.16 C244.797,82.673 245.935,82.673 246.899,83.16 C246.93,83.175 246.93,83.175 246.958,83.192 C247.352,83.417 247.847,83.869 249.709,85.731 L250.378,86.396 C251.626,87.644 251.94,87.983 252.094,88.22 C252.824,89.343 252.824,90.794 252.093,91.92 C251.937,92.162 251.636,92.486 250.371,93.751 C250.067,94.027 249.695,94.43 249.356,94.861 C248.079,96.721 247.723,98.808 248.244,100.765 C248.321,101.025 248.321,101.025 248.387,101.217 C248.506,101.546 248.588,101.727 248.853,102.273 C249.421,103.448 250.612,104.193 251.917,104.191 L251.92,104.191 L251.914,100.793 L248.853,102.266 Z M254.975,99.321 C254.409,98.142 253.215,97.394 251.908,97.396 L251.904,97.396 L251.911,100.793 L254.968,99.314 C254.82,99.007 254.786,98.933 254.781,98.917 C254.787,98.935 254.787,98.935 254.791,98.951 C254.796,98.967 254.805,98.916 254.833,98.875 C254.812,98.915 254.939,98.777 255.077,98.65 C256.876,96.854 257.267,96.433 257.797,95.611 C259.984,92.245 259.984,87.892 257.789,84.514 C257.26,83.702 256.846,83.256 255.175,81.585 L254.507,80.92 C252.094,78.507 251.491,77.957 250.329,77.293 C250.147,77.19 250.147,77.19 249.96,77.094 C247.074,75.634 243.659,75.634 240.768,77.097 C240.598,77.184 240.598,77.184 240.431,77.277 C239.264,77.94 238.68,78.472 236.224,80.918 L235.679,81.467 C233.807,83.339 233.253,83.926 232.577,84.834 C232.266,85.252 231.991,85.675 231.739,86.123 C230.639,88.22 230.061,90.445 230.001,92.713 C230.004,94.453 230.185,95.323 230.948,98.011 C234.129,109.214 240.13,119.412 248.378,127.632 C256.589,135.871 266.786,141.871 277.985,145.052 C279.9,145.594 280.531,145.753 281.488,145.884 C282.045,145.961 282.597,145.999 283.185,146 C285.318,146.009 288.002,145.311 289.874,144.262 C291.328,143.442 292.069,142.784 294.54,140.313 L295.081,139.769 C297.625,137.229 298.23,136.554 298.899,135.239 C300.366,132.34 300.366,128.923 298.902,126.03 C298.23,124.708 297.625,124.033 295.071,121.483 L294.405,120.82 C292.702,119.118 292.317,118.758 291.525,118.234 C291.507,118.222 291.507,118.222 291.489,118.21 C288.105,116.011 283.751,116.011 280.374,118.206 C280.35,118.222 280.35,118.222 280.332,118.234 C279.538,118.759 279.123,119.146 277.445,120.823 C277.125,121.14 277.048,121.213 277.031,121.227 C277.043,121.218 277.043,121.218 277.057,121.208 C277.099,121.177 277.009,121.193 277.062,121.208 C277.054,121.206 277.016,121.189 276.687,121.03 C271.971,118.762 267.68,115.716 263.99,112.017 C260.286,108.321 257.24,104.03 254.975,99.321 Z" />
        </g>
        <g id="Regular-M" transform="translate(0,200)">
            <path d="M448.853,102.266 C451.449,107.667 454.944,112.588 459.186,116.821 C463.413,121.058 468.334,124.553 473.735,127.15 C474.423,127.482 474.692,127.599 475.185,127.738 C477.107,128.301 479.361,127.916 481.016,126.73 C481.128,126.647 481.128,126.647 481.238,126.562 C481.546,126.319 481.683,126.189 482.239,125.638 C483.515,124.362 483.839,124.06 484.079,123.901 C484.081,123.9 484.081,123.9 484.083,123.898 C485.203,123.171 486.654,123.171 487.779,123.903 C487.775,123.9 487.775,123.9 487.777,123.901 C488.013,124.057 488.322,124.346 489.607,125.631 L490.275,126.296 C492.189,128.206 492.647,128.718 492.843,129.104 C493.328,130.062 493.328,131.201 492.84,132.165 C492.647,132.544 492.189,133.056 490.271,134.97 L489.728,135.517 C487.736,137.509 487.246,137.944 486.546,138.339 C485.702,138.812 484.172,139.21 483.208,139.206 C482.914,139.205 482.666,139.188 482.414,139.153 C481.891,139.081 481.42,138.963 479.839,138.515 C469.76,135.653 460.581,130.251 453.182,122.828 C445.749,115.42 440.347,106.239 437.483,96.156 C436.887,94.054 436.796,93.615 436.794,92.795 C436.825,91.661 437.139,90.453 437.711,89.361 C437.771,89.257 437.887,89.078 438.027,88.891 C438.424,88.358 438.882,87.873 440.49,86.264 L441.031,85.72 C442.906,83.852 443.392,83.409 443.784,83.186 C443.81,83.172 443.81,83.172 443.832,83.16 C444.797,82.673 445.935,82.673 446.899,83.16 C446.93,83.175 446.93,83.175 446.958,83.192 C447.352,83.417 447.847,83.869 449.709,85.731 L450.378,86.396 C451.626,87.644 451.94,87.983 452.094,88.22 C452.824,89.343 452.824,90.794 452.093,91.92 C451.936,92.162 451.636,92.486 450.371,93.751 C450.067,94.027 449.695,94.43 449.356,94.861 C448.079,96.721 447.723,98.808 448.244,100.765 C448.321,101.025 448.321,101.025 448.387,101.217 C448.506,101.546 448.588,101.727 448.853,102.273 C449.421,103.448 450.612,104.193 451.917,104.191 L451.92,104.191 L451.914,100.793 L448.853,102.266 Z M454.975,99.321 C454.409,98.142 453.215,97.394 451.908,97.396 L451.904,97.396 L451.911,100.793 L454.968,99.314 C454.82,99.007 454.786,98.933 454.781,98.917 C454.787,98.935 454.787,98.935 454.792,98.951 C454.796,98.967 454.805,98.916 454.833,98.875 C454.812,98.915 454.939,98.777 455.077,98.65 C456.876,96.854 457.267,96.433 457.797,95.611 C459.984,92.245 459.984,87.892 457.789,84.514 C457.26,83.702 456.846,83.256 455.175,81.585 L454.507,80.92 C452.094,78.507 451.491,77.957 450.329,77.293 C450.147,77.19 450.147,77.19 449.96,77.094 C447.074,75.634 443.659,75.634 440.768,77.097 C440.598,77.184 440.598,77.184 440.431,77.277 C439.264,77.94 438.68,78.472 436.224,80.918 L435.679,81.467 C433.807,83.339 433.253,83.926 432.577,84.834 C432.266,85.252 431.991,85.675 431.739,86.123 C430.639,88.22 430.061,90.445 430.001,92.713 C430.004,94.453 430.185,95.323 430.948,98.011 C434.129,109.214 440.13,119.412 448.378,127.632 C456.589,135.871 466.786,141.871 477.985,145.052 C479.9,145.594 480.531,145.753 481.488,145.884 C482.045,145.961 482.597,145.999 483.185,146 C485.318,146.009 488.002,145.311 489.874,144.262 C491.328,143.442 492.069,142.784 494.54,140.313 L495.081,139.769 C497.625,137.229 498.23,136.554 498.899,135.239 C500.366,132.34 500.366,128.923 498.902,126.03 C498.23,124.708 497.625,124.033 495.071,121.483 L494.405,120.82 C492.702,119.118 492.317,118.758 491.525,118.234 C491.507,118.222 491.507,118.222 491.489,118.21 C488.105,116.011 483.751,116.011 480.374,118.206 C480.35,118.222 480.35,118.222 480.332,118.234 C479.538,118.759 479.123,119.146 477.445,120.823 C477.125,121.14 477.048,121.213 477.031,121.227 C477.043,121.218 477.043,121.218 477.057,121.208 C477.099,121.177 477.009,121.193 477.062,121.208 C477.054,121.206 477.016,121.189 476.687,121.03 C471.971,118.762 467.68,115.716 463.99,112.017 C460.286,108.321 457.24,104.03 454.975,99.321 Z" />
        </g>
        <g id="Black-M" transform="translate(0,200)">
            <path d="M648.853,102.266 C651.449,107.667 654.943,112.588 659.186,116.821 C663.413,121.058 668.334,124.553 673.735,127.15 C674.423,127.482 674.692,127.599 675.185,127.738 C677.107,128.301 679.361,127.916 681.016,126.73 C681.128,126.647 681.128,126.647 681.238,126.562 C681.546,126.319 681.683,126.189 682.239,125.638 C683.515,124.362 683.839,124.06 684.079,123.901 C684.081,123.9 684.081,123.9 684.083,123.898 C685.203,123.171 686.654,123.171 687.779,123.903 C687.775,123.9 687.775,123.9 687.777,123.901 C688.013,124.057 688.322,124.346 689.607,125.631 L690.275,126.296 C692.189,128.206 692.647,128.718 692.843,129.104 C693.328,130.062 693.328,131.201 692.84,132.165 C692.647,132.544 692.189,133.056 690.271,134.97 L689.728,135.517 C687.736,137.509 687.246,137.944 686.546,138.339 C685.702,138.812 684.172,139.21 683.208,139.206 C682.914,139.205 682.666,139.188 682.414,139.153 C681.891,139.081 681.42,138.963 679.839,138.515 C669.76,135.653 660.581,130.251 653.182,122.828 C645.749,115.42 640.347,106.239 637.483,96.156 C636.887,94.054 636.796,93.615 636.794,92.795 C636.825,91.661 637.139,90.453 637.711,89.361 C637.771,89.257 637.887,89.078 638.027,88.891 C638.424,88.358 638.882,87.873 640.49,86.264 L641.031,85.72 C642.906,83.852 643.392,83.409 643.784,83.186 C643.81,83.172 643.81,83.172 643.832,83.16 C644.797,82.673 645.935,82.673 646.899,83.16 C646.93,83.175 646.93,83.175 646.958,83.192 C647.352,83.417 647.847,83.869 649.709,85.731 L650.378,86.396 C651.626,87.644 651.94,87.983 652.094,88.22 C652.824,89.343 652.824,90.794 652.093,91.92 C651.937,92.162 651.636,92.486 650.371,93.751 C650.067,94.027 649.695,94.43 649.356,94.861 C648.079,96.721 647.723,98.808 648.244,100.765 C648.321,101.025 648.321,101.025 648.387,101.217 C648.506,101.546 648.588,101.727 648.853,102.273 C649.421,103.448 650.612,104.193 651.917,104.191 L651.92,104.191 L651.914,100.793 L648.853,102.266 Z M654.975,99.321 C654.409,98.142 653.215,97.394 651.908,97.396 L651.904,97.396 L651.911,100.793 L654.968,99.314 C654.82,99.007 654.786,98.933 654.781,98.917 C654.787,98.935 654.787,98.935 654.792,98.951 C654.796,98.967 654.805,98.916 654.833,98.875 C654.812,98.915 654.939,98.777 655.077,98.65 C656.876,96.854 657.267,96.433 657.797,95.611 C659.984,92.245 659.984,87.892 657.789,84.514 C657.26,83.702 656.846,83.256 655.175,81.585 L654.507,80.92 C652.094,78.507 651.491,77.957 650.329,77.293 C650.147,77.19 650.147,77.19 649.96,77.094 C647.073,75.634 643.659,75.634 640.768,77.097 C640.598,77.184 640.598,77.184 640.431,77.277 C639.264,77.94 638.68,78.472 636.224,80.918 L635.679,81.467 C633.807,83.339 633.253,83.926 632.577,84.834 C632.266,85.252 631.991,85.675 631.739,86.123 C630.639,88.22 630.061,90.445 630.001,92.713 C630.004,94.453 630.185,95.323 630.948,98.011 C634.129,109.214 640.13,119.412 648.378,127.632 C656.589,135.871 666.786,141.871 677.985,145.052 C679.9,145.594 680.531,145.753 681.488,145.884 C682.045,145.961 682.597,145.999 683.185,146 C685.318,146.009 688.002,145.311 689.874,144.262 C691.328,143.442 692.069,142.784 694.54,140.313 L695.081,139.769 C697.625,137.229 698.23,136.554 698.899,135.239 C700.366,132.34 700.366,128.923 698.902,126.03 C698.23,124.708 697.625,124.033 695.071,121.483 L694.405,120.82 C692.702,119.118 692.317,118.758 691.525,118.234 C691.507,118.222 691.507,118.222 691.489,118.21 C688.105,116.011 683.751,116.011 680.374,118.206 C680.349,118.222 680.349,118.222 680.332,118.234 C679.538,118.759 679.123,119.146 677.445,120.823 C677.125,121.14 677.048,121.213 677.031,121.227 C677.043,121.218 677.043,121.218 677.057,121.208 C677.099,121.177 677.009,121.193 677.062,121.208 C677.054,121.206 677.016,121.189 676.687,121.03 C671.971,118.762 667.68,115.716 663.99,112.017 C660.286,108.321 657.24,104.03 654.975,99.321 Z" />
        </g>
    </g>
</svg>