<?xml version="1.0" encoding="UTF-8"?>
<svg height="600" width="800" xmlns="http://www.w3.org/2000/svg" xmlns:xlink="http://www.w3.org/1999/xlink">
    <g id="Notes" font-family="LucidaGrande, 'Lucida Grande', sans-serif" font-size="13">
        <rect fill="white" height="600.0" width="800.0" x="0.0" y="0.0" />
        <g font-size="13">
            <text x="18.0" y="176.0">Small</text>
            <text x="18.0" y="376.0">Medium</text>
            <text x="18.0" y="576.0">Large</text>
        </g>
        <g font-size="9">
            <text x="250.0" y="30.0">Ultralight</text>
            <text x="450.0" y="30.0">Regular</text>
            <text x="650.0" y="30.0">Black</text>
            <text id="template-version" fill="#505050" text-anchor="end" x="785.0" y="575.0">Template v.3.0</text>
            <a href="https://github.com/swhitty/SwiftDraw">
                <text fill="#505050" text-anchor="end" x="785.0" y="590.0">https://github.com/swhitty/SwiftDraw</text>
            </a>
        </g>
    </g>
    <g id="Guides" stroke="rgb(39, 170, 225)" stroke-width="0.5">
        <path id="Capline-S" d="M18,76 l800,0" />
        <path id="H-reference" d="M85,145.755 L87.685,145.755 L113.369,79.287 L114.052,79.287 L114.052,76 L112.148,76 L85,145.755 Z M95.693,121.536 L130.996,121.536 L130.263,119.313 L96.474,119.313 L95.693,121.536 Z M139.15,145.755 L141.787,145.755 L114.638,76 L113.466,76 L113.466,79.287 L139.15,145.755 Z" stroke="none" transform="translate(0,200)" />
        <path id="Baseline-S" d="M18,146 l800,0" />
        <path id="left-margin-Ultralight-M" d="M230,256 l0,110" />
        <path id="right-margin-Ultralight-M" d="M300,256 l0,110" />
        <path id="left-margin-Regular-M" d="M430,256 l0,110" />
        <path id="right-margin-Regular-M" d="M500,256 l0,110" />
        <path id="left-margin-Black-M" d="M630,256 l0,110" />
        <path id="right-margin-Black-M" d="M700,256 l0,110" />
        <path id="Capline-M" d="M18,276 l800,0" />
        <path id="Baseline-M" d="M18,346 l800,0" />
        <path id="Capline-L" d="M18,476 l800,0" />
        <path id="Baseline-L" d="M18,546 l800,0" />
    </g>
    <g id="Symbols">
        <g id="Ultralight-M" transform="translate(0,200)">
            <path d="M290.048,92.956 L261.715,108.18 C260.105,109.045 259.525,111.008 260.419,112.564 C261.313,114.121 263.343,114.682 264.952,113.817 L293.285,98.593 C294.895,97.728 295.475,95.766 294.581,94.209 C293.687,92.653 291.657,92.092 290.048,92.956 Z M264.952,108.18 L236.619,92.956 C235.009,92.092 232.98,92.653 232.086,94.209 C231.192,95.766 231.772,97.728 233.381,98.593 L261.715,113.817 C263.324,114.682 265.353,114.121 266.247,112.564 C267.141,111.008 266.561,109.045 264.952,108.18 Z M260,110.999 L260,141.627 C260,143.408 261.492,144.851 263.333,144.851 C265.174,144.851 266.667,143.408 266.667,141.627 L266.667,110.999 C266.667,109.218 265.174,107.775 263.333,107.775 C261.492,107.775 260,109.218 260,110.999 Z M296.667,110.999 L296.667,97.916 C296.667,96.127 296.638,95.66 296.335,94.764 C296.031,93.877 295.542,93.077 294.897,92.402 C294.241,91.709 293.812,91.445 292.204,90.584 L267.542,77.333 C266.08,76.546 265.706,76.368 264.874,76.174 C264.768,76.15 264.768,76.15 264.66,76.129 C263.792,75.956 262.878,75.956 261.992,76.132 C261.912,76.148 261.912,76.148 261.816,76.17 C260.978,76.361 260.638,76.523 259.131,77.329 L234.458,90.583 C233.346,91.182 233.041,91.356 232.576,91.697 C232.273,91.919 232,92.157 231.748,92.425 C231.125,93.077 230.636,93.877 230.336,94.749 C230.029,95.66 230,96.127 230,97.916 L230,124.085 C230,125.876 230.029,126.344 230.334,127.24 C230.636,128.121 231.125,128.921 231.77,129.595 C232.426,130.288 232.854,130.553 234.463,131.413 L259.125,144.665 C260.57,145.443 260.942,145.621 261.76,145.818 C261.876,145.845 261.876,145.845 261.993,145.869 C262.882,146.043 263.791,146.043 264.671,145.869 C264.773,145.848 264.773,145.848 264.867,145.827 C265.699,145.632 266.094,145.444 267.544,144.664 L268.277,144.273 C269.889,143.413 270.475,141.452 269.585,139.893 C268.696,138.334 266.669,137.767 265.057,138.627 L264.313,139.024 C263.488,139.467 263.29,139.562 263.299,139.56 C263.313,139.556 263.313,139.556 263.329,139.553 C263.335,139.552 263.331,139.552 263.327,139.551 C263.352,139.556 263.352,139.556 263.37,139.56 C263.375,139.562 263.181,139.469 262.364,139.029 L237.695,125.774 C236.824,125.308 236.646,125.198 236.675,125.228 C236.664,125.217 236.664,125.217 236.664,125.217 C236.68,125.264 236.667,125.054 236.667,124.085 L236.667,97.916 C236.667,96.941 236.679,96.734 236.668,96.767 C236.664,96.781 236.664,96.781 236.664,96.781 C236.647,96.799 236.614,96.827 236.6,96.838 C236.706,96.76 236.928,96.634 237.698,96.219 L262.362,82.97 C263.187,82.528 263.374,82.439 263.351,82.444 C263.335,82.448 263.335,82.448 263.317,82.452 C263.335,82.448 263.335,82.448 263.335,82.448 C263.334,82.448 263.334,82.448 263.317,82.444 C263.298,82.44 263.491,82.532 264.303,82.968 L288.971,96.223 C289.843,96.69 290.021,96.8 289.992,96.769 C290.003,96.781 290.003,96.781 290.003,96.781 C289.987,96.734 290,96.941 290,97.916 L290,110.999 C290,112.779 291.492,114.223 293.333,114.223 C295.174,114.223 296.667,112.779 296.667,110.999 Z M246.715,89.637 L276.715,105.757 C278.324,106.622 280.353,106.061 281.247,104.504 C282.141,102.948 281.561,100.985 279.952,100.12 L249.952,84 C248.343,83.135 246.314,83.696 245.419,85.253 C244.525,86.809 245.105,88.772 246.715,89.637 Z M299.024,139.348 L295.69,136.124 C294.389,134.864 292.278,134.864 290.976,136.124 C289.675,137.383 289.675,139.424 290.976,140.683 L294.31,143.907 C295.611,145.166 297.722,145.166 299.024,143.907 C300.325,142.648 300.325,140.607 299.024,139.348 Z M293.333,130.343 C293.333,133.904 290.349,136.791 286.667,136.791 C282.985,136.791 280,133.904 280,130.343 C280,126.782 282.985,123.895 286.667,123.895 C290.349,123.895 293.333,126.782 293.333,130.343 Z M300,130.343 C300,123.221 294.03,117.447 286.667,117.447 C279.303,117.447 273.333,123.221 273.333,130.343 C273.333,137.466 279.303,143.239 286.667,143.239 C294.03,143.239 300,137.466 300,130.343 Z" />
        </g>
        <g id="Regular-M" transform="translate(0,200)">
            <path d="M490.048,92.956 L461.715,108.18 C460.105,109.045 459.525,111.008 460.419,112.564 C461.313,114.121 463.343,114.682 464.952,113.817 L493.285,98.593 C494.895,97.728 495.475,95.766 494.581,94.209 C493.687,92.653 491.657,92.092 490.048,92.956 Z M464.952,108.18 L436.619,92.956 C435.009,92.092 432.98,92.653 432.086,94.209 C431.192,95.766 431.772,97.728 433.381,98.593 L461.715,113.817 C463.324,114.682 465.353,114.121 466.247,112.564 C467.141,111.008 466.561,109.045 464.952,108.18 Z M460,110.999 L460,141.627 C460,143.408 461.492,144.851 463.333,144.851 C465.174,144.851 466.667,143.408 466.667,141.627 L466.667,110.999 C466.667,109.218 465.174,107.775 463.333,107.775 C461.492,107.775 460,109.218 460,110.999 Z M496.667,110.999 L496.667,97.916 C496.667,96.127 496.638,95.66 496.335,94.764 C496.031,93.877 495.542,93.077 494.897,92.402 C494.241,91.709 493.812,91.445 492.204,90.584 L467.542,77.333 C466.08,76.546 465.706,76.368 464.874,76.174 C464.768,76.15 464.768,76.15 464.66,76.129 C463.792,75.956 462.878,75.956 461.992,76.132 C461.912,76.148 461.912,76.148 461.816,76.17 C460.978,76.361 460.638,76.523 459.131,77.329 L434.458,90.583 C433.346,91.182 433.041,91.356 432.576,91.697 C432.273,91.919 432,92.157 431.748,92.425 C431.125,93.077 430.636,93.877 430.336,94.749 C430.029,95.66 430,96.127 430,97.916 L430,124.085 C430,125.876 430.029,126.344 430.334,127.24 C430.636,128.121 431.125,128.921 431.77,129.595 C432.426,130.288 432.854,130.553 434.463,131.413 L459.125,144.665 C460.57,145.443 460.942,145.621 461.76,145.818 C461.876,145.845 461.876,145.845 461.993,145.869 C462.882,146.043 463.791,146.043 464.671,145.869 C464.773,145.848 464.773,145.848 464.867,145.827 C465.699,145.632 466.094,145.444 467.544,144.664 L468.277,144.273 C469.889,143.413 470.475,141.452 469.585,139.893 C468.696,138.334 466.669,137.767 465.057,138.627 L464.313,139.024 C463.488,139.467 463.29,139.562 463.299,139.56 C463.313,139.556 463.313,139.556 463.329,139.553 C463.335,139.552 463.331,139.552 463.327,139.551 C463.352,139.556 463.352,139.556 463.37,139.56 C463.375,139.562 463.181,139.469 462.364,139.029 L437.695,125.774 C436.824,125.308 436.646,125.198 436.675,125.228 C436.664,125.217 436.664,125.217 436.664,125.217 C436.68,125.264 436.667,125.054 436.667,124.085 L436.667,97.916 C436.667,96.941 436.679,96.734 436.668,96.767 C436.664,96.781 436.664,96.781 436.664,96.781 C436.647,96.799 436.614,96.827 436.6,96.838 C436.706,96.76 436.928,96.634 437.698,96.219 L462.362,82.97 C463.187,82.528 463.374,82.439 463.351,82.444 C463.335,82.448 463.335,82.448 463.317,82.452 C463.335,82.448 463.335,82.448 463.335,82.448 C463.334,82.448 463.334,82.448 463.317,82.444 C463.298,82.44 463.491,82.532 464.303,82.968 L488.971,96.223 C489.843,96.69 490.021,96.8 489.992,96.769 C490.003,96.781 490.003,96.781 490.003,96.781 C489.987,96.734 490,96.941 490,97.916 L490,110.999 C490,112.779 491.492,114.223 493.333,114.223 C495.174,114.223 496.667,112.779 496.667,110.999 Z M446.715,89.637 L476.715,105.757 C478.324,106.622 480.353,106.061 481.247,104.504 C482.141,102.948 481.561,100.985 479.952,100.12 L449.952,84 C448.343,83.135 446.314,83.696 445.419,85.253 C444.525,86.809 445.105,88.772 446.715,89.637 Z M499.024,139.348 L495.69,136.124 C494.389,134.864 492.278,134.864 490.976,136.124 C489.675,137.383 489.675,139.424 490.976,140.683 L494.31,143.907 C495.611,145.166 497.722,145.166 499.024,143.907 C500.325,142.648 500.325,140.607 499.024,139.348 Z M493.333,130.343 C493.333,133.904 490.349,136.791 486.667,136.791 C482.985,136.791 480,133.904 480,130.343 C480,126.782 482.985,123.895 486.667,123.895 C490.349,123.895 493.333,126.782 493.333,130.343 Z M500,130.343 C500,123.221 494.03,117.447 486.667,117.447 C479.303,117.447 473.333,123.221 473.333,130.343 C473.333,137.466 479.303,143.239 486.667,143.239 C494.03,143.239 500,137.466 500,130.343 Z" />
        </g>
        <g id="Black-M" transform="translate(0,200)">
            <path d="M690.048,92.956 L661.715,108.18 C660.105,109.045 659.525,111.008 660.419,112.564 C661.313,114.121 663.343,114.682 664.952,113.817 L693.285,98.593 C694.895,97.728 695.475,95.766 694.581,94.209 C693.687,92.653 691.657,92.092 690.048,92.956 Z M664.952,108.18 L636.619,92.956 C635.009,92.092 632.98,92.653 632.086,94.209 C631.192,95.766 631.772,97.728 633.381,98.593 L661.715,113.817 C663.324,114.682 665.353,114.121 666.247,112.564 C667.141,111.008 666.561,109.045 664.952,108.18 Z M660,110.999 L660,141.627 C660,143.408 661.492,144.851 663.333,144.851 C665.174,144.851 666.667,143.408 666.667,141.627 L666.667,110.999 C666.667,109.218 665.174,107.775 663.333,107.775 C661.492,107.775 660,109.218 660,110.999 Z M696.667,110.999 L696.667,97.916 C696.667,96.127 696.638,95.66 696.335,94.764 C696.031,93.877 695.542,93.077 694.897,92.402 C694.241,91.709 693.812,91.445 692.204,90.584 L667.542,77.333 C666.08,76.546 665.706,76.368 664.874,76.174 C664.768,76.15 664.768,76.15 664.66,76.129 C663.792,75.956 662.878,75.956 661.992,76.132 C661.912,76.148 661.912,76.148 661.816,76.17 C660.978,76.361 660.638,76.523 659.131,77.329 L634.458,90.583 C633.346,91.182 633.041,91.356 632.576,91.697 C632.273,91.919 632,92.157 631.748,92.425 C631.125,93.077 630.636,93.877 630.336,94.749 C630.029,95.66 630,96.127 630,97.916 L630,124.085 C630,125.876 630.029,126.344 630.334,127.24 C630.636,128.121 631.125,128.921 631.77,129.595 C632.426,130.288 632.854,130.553 634.463,131.413 L659.125,144.665 C660.57,145.443 660.942,145.621 661.76,145.818 C661.876,145.845 661.876,145.845 661.993,145.869 C662.882,146.043 663.791,146.043 664.671,145.869 C664.773,145.848 664.773,145.848 664.867,145.827 C665.699,145.632 666.094,145.444 667.544,144.664 L668.277,144.273 C669.889,143.413 670.475,141.452 669.585,139.893 C668.696,138.334 666.669,137.767 665.057,138.627 L664.313,139.024 C663.488,139.467 663.29,139.562 663.299,139.56 C663.313,139.556 663.313,139.556 663.329,139.553 C663.335,139.552 663.331,139.552 663.327,139.551 C663.352,139.556 663.352,139.556 663.37,139.56 C663.375,139.562 663.181,139.469 662.364,139.029 L637.695,125.774 C636.824,125.308 636.646,125.198 636.675,125.228 C636.664,125.217 636.664,125.217 636.664,125.217 C636.68,125.264 636.667,125.054 636.667,124.085 L636.667,97.916 C636.667,96.941 636.679,96.734 636.668,96.767 C636.664,96.781 636.664,96.781 636.664,96.781 C636.647,96.799 636.614,96.827 636.6,96.838 C636.706,96.76 636.928,96.634 637.698,96.219 L662.362,82.97 C663.187,82.528 663.374,82.439 663.351,82.444 C663.335,82.448 663.335,82.448 663.317,82.452 C663.335,82.448 663.335,82.448 663.335,82.448 C663.334,82.448 663.334,82.448 663.317,82.444 C663.298,82.44 663.491,82.532 664.303,82.968 L688.971,96.223 C689.843,96.69 690.021,96.8 689.992,96.769 C690.003,96.781 690.003,96.781 690.003,96.781 C689.987,96.734 690,96.941 690,97.916 L690,110.999 C690,112.779 691.492,114.223 693.333,114.223 C695.174,114.223 696.667,112.779 696.667,110.999 Z M646.715,89.637 L676.715,105.757 C678.324,106.622 680.353,106.061 681.247,104.504 C682.141,102.948 681.561,100.985 679.952,100.12 L649.952,84 C648.343,83.135 646.314,83.696 645.419,85.253 C644.525,86.809 645.105,88.772 646.715,89.637 Z M699.024,139.348 L695.69,136.124 C694.389,134.864 692.278,134.864 690.976,136.124 C689.675,137.383 689.675,139.424 690.976,140.683 L694.31,143.907 C695.611,145.166 697.722,145.166 699.024,143.907 C700.325,142.648 700.325,140.607 699.024,139.348 Z M693.333,130.343 C693.333,133.904 690.349,136.791 686.667,136.791 C682.985,136.791 680,133.904 680,130.343 C680,126.782 682.985,123.895 686.667,123.895 C690.349,123.895 693.333,126.782 693.333,130.343 Z M700,130.343 C700,123.221 694.03,117.447 686.667,117.447 C679.303,117.447 673.333,123.221 673.333,130.343 C673.333,137.466 679.303,143.239 686.667,143.239 C694.03,143.239 700,137.466 700,130.343 Z" />
        </g>
    </g>
</svg>