<?xml version="1.0" encoding="UTF-8"?>
<svg height="600" width="800" xmlns="http://www.w3.org/2000/svg" xmlns:xlink="http://www.w3.org/1999/xlink">
    <g id="Notes" font-family="LucidaGrande, 'Lucida Grande', sans-serif" font-size="13">
        <rect fill="white" height="600.0" width="800.0" x="0.0" y="0.0" />
        <g font-size="13">
            <text x="18.0" y="176.0">Small</text>
            <text x="18.0" y="376.0">Medium</text>
            <text x="18.0" y="576.0">Large</text>
        </g>
        <g font-size="9">
            <text x="250.0" y="30.0">Ultralight</text>
            <text x="450.0" y="30.0">Regular</text>
            <text x="650.0" y="30.0">Black</text>
            <text id="template-version" fill="#505050" text-anchor="end" x="785.0" y="575.0">Template v.3.0</text>
            <a href="https://github.com/swhitty/SwiftDraw">
                <text fill="#505050" text-anchor="end" x="785.0" y="590.0">https://github.com/swhitty/SwiftDraw</text>
            </a>
        </g>
    </g>
    <g id="Guides" stroke="rgb(39, 170, 225)" stroke-width="0.5">
        <path id="Capline-S" d="M18,76 l800,0" />
        <path id="H-reference" d="M85,145.755 L87.685,145.755 L113.369,79.287 L114.052,79.287 L114.052,76 L112.148,76 L85,145.755 Z M95.693,121.536 L130.996,121.536 L130.263,119.313 L96.474,119.313 L95.693,121.536 Z M139.15,145.755 L141.787,145.755 L114.638,76 L113.466,76 L113.466,79.287 L139.15,145.755 Z" stroke="none" transform="translate(0,200)" />
        <path id="Baseline-S" d="M18,146 l800,0" />
        <path id="left-margin-Ultralight-M" d="M230,256 l0,110" />
        <path id="right-margin-Ultralight-M" d="M300,256 l0,110" />
        <path id="left-margin-Regular-M" d="M430,256 l0,110" />
        <path id="right-margin-Regular-M" d="M500,256 l0,110" />
        <path id="left-margin-Black-M" d="M630,256 l0,110" />
        <path id="right-margin-Black-M" d="M700,256 l0,110" />
        <path id="Capline-M" d="M18,276 l800,0" />
        <path id="Baseline-M" d="M18,346 l800,0" />
        <path id="Capline-L" d="M18,476 l800,0" />
        <path id="Baseline-L" d="M18,546 l800,0" />
    </g>
    <g id="Symbols">
        <g id="Ultralight-M" transform="translate(0,200)">
            <path d="M278.729,127.646 L293.312,113.062 C294.451,111.923 294.451,110.077 293.312,108.938 C292.173,107.799 290.327,107.799 289.188,108.938 L274.604,123.521 C273.465,124.66 273.465,126.507 274.604,127.646 C275.743,128.785 277.59,128.785 278.729,127.646 Z M293.312,108.938 L278.729,94.354 C277.59,93.215 275.743,93.215 274.604,94.354 C273.465,95.493 273.465,97.34 274.604,98.479 L289.188,113.062 C290.327,114.201 292.173,114.201 293.312,113.062 C294.451,111.923 294.451,110.077 293.312,108.938 Z M291.25,108.083 L256.25,108.083 C254.639,108.083 253.333,109.389 253.333,111 C253.333,112.611 254.639,113.917 256.25,113.917 L291.25,113.917 C292.861,113.917 294.167,112.611 294.167,111 C294.167,109.389 292.861,108.083 291.25,108.083 Z M256.25,81.833 L252.75,81.833 C246.039,81.833 244.444,81.964 242.204,83.105 C240.008,84.224 238.224,86.008 237.105,88.203 C235.964,90.444 235.833,92.039 235.833,98.75 L235.833,123.25 C235.833,129.961 235.964,131.556 237.105,133.796 C238.223,135.992 240.008,137.777 242.203,138.895 C244.444,140.036 246.039,140.167 252.75,140.167 L256.25,140.167 C257.861,140.167 259.167,138.861 259.167,137.25 C259.167,135.639 257.861,134.333 256.25,134.333 L252.75,134.333 C247.211,134.333 245.888,134.225 244.851,133.697 C243.754,133.138 242.862,132.246 242.303,131.148 C241.775,130.112 241.667,128.789 241.667,123.25 L241.667,98.75 C241.667,93.211 241.775,91.888 242.303,90.851 C242.862,89.754 243.754,88.862 244.852,88.303 C245.888,87.775 247.211,87.667 252.75,87.667 L256.25,87.667 C257.861,87.667 259.167,86.361 259.167,84.75 C259.167,83.139 257.861,81.833 256.25,81.833 Z" />
        </g>
        <g id="Regular-M" transform="translate(0,200)">
            <path d="M478.729,127.646 L493.312,113.062 C494.451,111.923 494.451,110.077 493.312,108.938 C492.173,107.799 490.327,107.799 489.188,108.938 L474.604,123.521 C473.465,124.66 473.465,126.507 474.604,127.646 C475.743,128.785 477.59,128.785 478.729,127.646 Z M493.312,108.938 L478.729,94.354 C477.59,93.215 475.743,93.215 474.604,94.354 C473.465,95.493 473.465,97.34 474.604,98.479 L489.188,113.062 C490.327,114.201 492.173,114.201 493.312,113.062 C494.451,111.923 494.451,110.077 493.312,108.938 Z M491.25,108.083 L456.25,108.083 C454.639,108.083 453.333,109.389 453.333,111 C453.333,112.611 454.639,113.917 456.25,113.917 L491.25,113.917 C492.861,113.917 494.167,112.611 494.167,111 C494.167,109.389 492.861,108.083 491.25,108.083 Z M456.25,81.833 L452.75,81.833 C446.039,81.833 444.444,81.964 442.204,83.105 C440.008,84.224 438.224,86.008 437.105,88.203 C435.964,90.444 435.833,92.039 435.833,98.75 L435.833,123.25 C435.833,129.961 435.964,131.556 437.105,133.796 C438.224,135.992 440.008,137.777 442.203,138.895 C444.444,140.036 446.039,140.167 452.75,140.167 L456.25,140.167 C457.861,140.167 459.167,138.861 459.167,137.25 C459.167,135.639 457.861,134.333 456.25,134.333 L452.75,134.333 C447.211,134.333 445.888,134.225 444.851,133.697 C443.754,133.138 442.862,132.246 442.302,131.148 C441.775,130.112 441.667,128.789 441.667,123.25 L441.667,98.75 C441.667,93.211 441.775,91.888 442.303,90.851 C442.862,89.754 443.754,88.862 444.852,88.303 C445.888,87.775 447.211,87.667 452.75,87.667 L456.25,87.667 C457.861,87.667 459.167,86.361 459.167,84.75 C459.167,83.139 457.861,81.833 456.25,81.833 Z" />
        </g>
        <g id="Black-M" transform="translate(0,200)">
            <path d="M678.729,127.646 L693.312,113.062 C694.451,111.923 694.451,110.077 693.312,108.938 C692.173,107.799 690.327,107.799 689.188,108.938 L674.604,123.521 C673.465,124.66 673.465,126.507 674.604,127.646 C675.743,128.785 677.59,128.785 678.729,127.646 Z M693.312,108.938 L678.729,94.354 C677.59,93.215 675.743,93.215 674.604,94.354 C673.465,95.493 673.465,97.34 674.604,98.479 L689.188,113.062 C690.327,114.201 692.173,114.201 693.312,113.062 C694.451,111.923 694.451,110.077 693.312,108.938 Z M691.25,108.083 L656.25,108.083 C654.639,108.083 653.333,109.389 653.333,111 C653.333,112.611 654.639,113.917 656.25,113.917 L691.25,113.917 C692.861,113.917 694.167,112.611 694.167,111 C694.167,109.389 692.861,108.083 691.25,108.083 Z M656.25,81.833 L652.75,81.833 C646.039,81.833 644.444,81.964 642.204,83.105 C640.008,84.224 638.224,86.008 637.105,88.203 C635.964,90.444 635.833,92.039 635.833,98.75 L635.833,123.25 C635.833,129.961 635.964,131.556 637.105,133.796 C638.224,135.992 640.008,137.777 642.203,138.895 C644.444,140.036 646.039,140.167 652.75,140.167 L656.25,140.167 C657.861,140.167 659.167,138.861 659.167,137.25 C659.167,135.639 657.861,134.333 656.25,134.333 L652.75,134.333 C647.211,134.333 645.888,134.225 644.851,133.697 C643.754,133.138 642.862,132.246 642.302,131.148 C641.775,130.112 641.667,128.789 641.667,123.25 L641.667,98.75 C641.667,93.211 641.775,91.888 642.303,90.851 C642.862,89.754 643.754,88.862 644.852,88.303 C645.888,87.775 647.211,87.667 652.75,87.667 L656.25,87.667 C657.861,87.667 659.167,86.361 659.167,84.75 C659.167,83.139 657.861,81.833 656.25,81.833 Z" />
        </g>
    </g>
</svg>