<?xml version="1.0" encoding="UTF-8"?>
<svg height="600" width="800" xmlns="http://www.w3.org/2000/svg" xmlns:xlink="http://www.w3.org/1999/xlink">
    <g id="Notes" font-family="LucidaGrande, 'Lucida Grande', sans-serif" font-size="13">
        <rect fill="white" height="600.0" width="800.0" x="0.0" y="0.0" />
        <g font-size="13">
            <text x="18.0" y="176.0">Small</text>
            <text x="18.0" y="376.0">Medium</text>
            <text x="18.0" y="576.0">Large</text>
        </g>
        <g font-size="9">
            <text x="250.0" y="30.0">Ultralight</text>
            <text x="450.0" y="30.0">Regular</text>
            <text x="650.0" y="30.0">Black</text>
            <text id="template-version" fill="#505050" text-anchor="end" x="785.0" y="575.0">Template v.3.0</text>
            <a href="https://github.com/swhitty/SwiftDraw">
                <text fill="#505050" text-anchor="end" x="785.0" y="590.0">https://github.com/swhitty/SwiftDraw</text>
            </a>
        </g>
    </g>
    <g id="Guides" stroke="rgb(39, 170, 225)" stroke-width="0.5">
        <path id="Capline-S" d="M18,76 l800,0" />
        <path id="H-reference" d="M85,145.755 L87.685,145.755 L113.369,79.287 L114.052,79.287 L114.052,76 L112.148,76 L85,145.755 Z M95.693,121.536 L130.996,121.536 L130.263,119.313 L96.474,119.313 L95.693,121.536 Z M139.15,145.755 L141.787,145.755 L114.638,76 L113.466,76 L113.466,79.287 L139.15,145.755 Z" stroke="none" transform="translate(0,200)" />
        <path id="Baseline-S" d="M18,146 l800,0" />
        <path id="left-margin-Ultralight-M" d="M230,256 l0,110" />
        <path id="right-margin-Ultralight-M" d="M300,256 l0,110" />
        <path id="left-margin-Regular-M" d="M430,256 l0,110" />
        <path id="right-margin-Regular-M" d="M500,256 l0,110" />
        <path id="left-margin-Black-M" d="M630,256 l0,110" />
        <path id="right-margin-Black-M" d="M700,256 l0,110" />
        <path id="Capline-M" d="M18,276 l800,0" />
        <path id="Baseline-M" d="M18,346 l800,0" />
        <path id="Capline-L" d="M18,476 l800,0" />
        <path id="Baseline-L" d="M18,546 l800,0" />
    </g>
    <g id="Symbols">
        <g id="Ultralight-M" transform="translate(0,200)">
            <path d="M265,102.25 C271.443,102.25 276.667,97.027 276.667,90.583 C276.667,84.14 271.443,78.917 265,78.917 C258.557,78.917 253.333,84.14 253.333,90.583 C253.333,97.027 258.557,102.25 265,102.25 Z M265,96.417 C261.778,96.417 259.167,93.805 259.167,90.583 C259.167,87.362 261.778,84.75 265,84.75 C268.222,84.75 270.833,87.362 270.833,90.583 C270.833,93.805 268.222,96.417 265,96.417 Z M262.083,99.333 L262.083,140.167 C262.083,141.777 263.389,143.083 265,143.083 C266.611,143.083 267.917,141.777 267.917,140.167 L267.917,99.333 C267.917,97.723 266.611,96.417 265,96.417 C263.389,96.417 262.083,97.723 262.083,99.333 Z M265,137.25 C258.038,137.25 251.361,134.484 246.438,129.562 C241.516,124.639 238.75,117.962 238.75,111 L235.833,113.917 L244.583,113.917 C246.194,113.917 247.5,112.611 247.5,111 C247.5,109.389 246.194,108.083 244.583,108.083 L235.833,108.083 C234.223,108.083 232.917,109.389 232.917,111 C232.917,119.509 236.297,127.67 242.314,133.686 C248.33,139.703 256.491,143.083 265,143.083 C266.611,143.083 267.917,141.777 267.917,140.167 C267.917,138.556 266.611,137.25 265,137.25 Z M265,143.083 C273.509,143.083 281.67,139.703 287.686,133.686 C293.703,127.67 297.083,119.509 297.083,111 C297.083,109.389 295.777,108.083 294.167,108.083 L285.417,108.083 C283.806,108.083 282.5,109.389 282.5,111 C282.5,112.611 283.806,113.917 285.417,113.917 L294.167,113.917 L291.25,111 C291.25,117.962 288.484,124.639 283.562,129.562 C278.639,134.484 271.962,137.25 265,137.25 C263.389,137.25 262.083,138.556 262.083,140.167 C262.083,141.777 263.389,143.083 265,143.083 Z" />
        </g>
        <g id="Regular-M" transform="translate(0,200)">
            <path d="M465,102.25 C471.443,102.25 476.667,97.027 476.667,90.583 C476.667,84.14 471.443,78.917 465,78.917 C458.557,78.917 453.333,84.14 453.333,90.583 C453.333,97.027 458.557,102.25 465,102.25 Z M465,96.417 C461.778,96.417 459.167,93.805 459.167,90.583 C459.167,87.362 461.778,84.75 465,84.75 C468.222,84.75 470.833,87.362 470.833,90.583 C470.833,93.805 468.222,96.417 465,96.417 Z M462.083,99.333 L462.083,140.167 C462.083,141.777 463.389,143.083 465,143.083 C466.611,143.083 467.917,141.777 467.917,140.167 L467.917,99.333 C467.917,97.723 466.611,96.417 465,96.417 C463.389,96.417 462.083,97.723 462.083,99.333 Z M465,137.25 C458.038,137.25 451.361,134.484 446.438,129.562 C441.516,124.639 438.75,117.962 438.75,111 L435.833,113.917 L444.583,113.917 C446.194,113.917 447.5,112.611 447.5,111 C447.5,109.389 446.194,108.083 444.583,108.083 L435.833,108.083 C434.223,108.083 432.917,109.389 432.917,111 C432.917,119.509 436.297,127.67 442.314,133.686 C448.33,139.703 456.491,143.083 465,143.083 C466.611,143.083 467.917,141.777 467.917,140.167 C467.917,138.556 466.611,137.25 465,137.25 Z M465,143.083 C473.509,143.083 481.67,139.703 487.686,133.686 C493.703,127.67 497.083,119.509 497.083,111 C497.083,109.389 495.777,108.083 494.167,108.083 L485.417,108.083 C483.806,108.083 482.5,109.389 482.5,111 C482.5,112.611 483.806,113.917 485.417,113.917 L494.167,113.917 L491.25,111 C491.25,117.962 488.484,124.639 483.562,129.562 C478.639,134.484 471.962,137.25 465,137.25 C463.389,137.25 462.083,138.556 462.083,140.167 C462.083,141.777 463.389,143.083 465,143.083 Z" />
        </g>
        <g id="Black-M" transform="translate(0,200)">
            <path d="M665,102.25 C671.443,102.25 676.667,97.027 676.667,90.583 C676.667,84.14 671.443,78.917 665,78.917 C658.557,78.917 653.333,84.14 653.333,90.583 C653.333,97.027 658.557,102.25 665,102.25 Z M665,96.417 C661.778,96.417 659.167,93.805 659.167,90.583 C659.167,87.362 661.778,84.75 665,84.75 C668.222,84.75 670.833,87.362 670.833,90.583 C670.833,93.805 668.222,96.417 665,96.417 Z M662.083,99.333 L662.083,140.167 C662.083,141.777 663.389,143.083 665,143.083 C666.611,143.083 667.917,141.777 667.917,140.167 L667.917,99.333 C667.917,97.723 666.611,96.417 665,96.417 C663.389,96.417 662.083,97.723 662.083,99.333 Z M665,137.25 C658.038,137.25 651.361,134.484 646.438,129.562 C641.516,124.639 638.75,117.962 638.75,111 L635.833,113.917 L644.583,113.917 C646.194,113.917 647.5,112.611 647.5,111 C647.5,109.389 646.194,108.083 644.583,108.083 L635.833,108.083 C634.222,108.083 632.917,109.389 632.917,111 C632.917,119.509 636.297,127.67 642.314,133.686 C648.33,139.703 656.491,143.083 665,143.083 C666.611,143.083 667.917,141.777 667.917,140.167 C667.917,138.556 666.611,137.25 665,137.25 Z M665,143.083 C673.509,143.083 681.67,139.703 687.686,133.686 C693.703,127.67 697.083,119.509 697.083,111 C697.083,109.389 695.777,108.083 694.167,108.083 L685.417,108.083 C683.806,108.083 682.5,109.389 682.5,111 C682.5,112.611 683.806,113.917 685.417,113.917 L694.167,113.917 L691.25,111 C691.25,117.962 688.484,124.639 683.562,129.562 C678.639,134.484 671.962,137.25 665,137.25 C663.389,137.25 662.083,138.556 662.083,140.167 C662.083,141.777 663.389,143.083 665,143.083 Z" />
        </g>
    </g>
</svg>