<?xml version="1.0" encoding="UTF-8"?>
<svg height="600" width="800" xmlns="http://www.w3.org/2000/svg" xmlns:xlink="http://www.w3.org/1999/xlink">
    <g id="Notes" font-family="LucidaGrande, 'Lucida Grande', sans-serif" font-size="13">
        <rect fill="white" height="600.0" width="800.0" x="0.0" y="0.0" />
        <g font-size="13">
            <text x="18.0" y="176.0">Small</text>
            <text x="18.0" y="376.0">Medium</text>
            <text x="18.0" y="576.0">Large</text>
        </g>
        <g font-size="9">
            <text x="250.0" y="30.0">Ultralight</text>
            <text x="450.0" y="30.0">Regular</text>
            <text x="650.0" y="30.0">Black</text>
            <text id="template-version" fill="#505050" text-anchor="end" x="785.0" y="575.0">Template v.3.0</text>
            <a href="https://github.com/swhitty/SwiftDraw">
                <text fill="#505050" text-anchor="end" x="785.0" y="590.0">https://github.com/swhitty/SwiftDraw</text>
            </a>
        </g>
    </g>
    <g id="Guides" stroke="rgb(39, 170, 225)" stroke-width="0.5">
        <path id="Capline-S" d="M18,76 l800,0" />
        <path id="H-reference" d="M85,145.755 L87.685,145.755 L113.369,79.287 L114.052,79.287 L114.052,76 L112.148,76 L85,145.755 Z M95.693,121.536 L130.996,121.536 L130.263,119.313 L96.474,119.313 L95.693,121.536 Z M139.15,145.755 L141.787,145.755 L114.638,76 L113.466,76 L113.466,79.287 L139.15,145.755 Z" stroke="none" transform="translate(0,200)" />
        <path id="Baseline-S" d="M18,146 l800,0" />
        <path id="left-margin-Ultralight-M" d="M230,256 l0,110" />
        <path id="right-margin-Ultralight-M" d="M300,256 l0,110" />
        <path id="left-margin-Regular-M" d="M430,256 l0,110" />
        <path id="right-margin-Regular-M" d="M500,256 l0,110" />
        <path id="left-margin-Black-M" d="M630,256 l0,110" />
        <path id="right-margin-Black-M" d="M700,256 l0,110" />
        <path id="Capline-M" d="M18,276 l800,0" />
        <path id="Baseline-M" d="M18,346 l800,0" />
        <path id="Capline-L" d="M18,476 l800,0" />
        <path id="Baseline-L" d="M18,546 l800,0" />
    </g>
    <g id="Symbols">
        <g id="Ultralight-M" transform="translate(0,200)">
            <path d="M240.341,131.682 C240.341,133.709 240.352,134.195 240.452,134.941 C241.204,140.645 245.696,145.137 251.405,145.89 C252.146,145.989 252.632,146 254.659,146 L279.159,146 C286.48,146 288.22,145.858 290.664,144.613 C293.059,143.393 295.006,141.446 296.226,139.051 C297.471,136.606 297.614,134.867 297.614,127.545 L297.614,104.598 C297.614,101.388 297.576,100.565 297.262,99.255 C296.948,97.953 296.433,96.712 295.734,95.574 C295.035,94.429 294.47,93.81 292.206,91.55 L282.065,81.403 C280.085,79.427 279.537,78.913 278.632,78.269 C278.437,78.13 278.241,78 278.04,77.877 C276.902,77.178 275.66,76.662 274.362,76.349 C273.044,76.037 272.221,76 269.015,76 L254.659,76 C252.632,76 252.146,76.011 251.4,76.111 C245.696,76.863 241.204,81.355 240.451,87.064 C240.352,87.805 240.341,88.291 240.341,90.318 C240.341,92.075 241.765,93.5 243.523,93.5 C245.28,93.5 246.705,92.075 246.705,90.318 C246.705,88.651 246.714,88.24 246.759,87.901 C247.136,85.042 249.382,82.795 252.237,82.419 C252.581,82.373 252.992,82.364 254.659,82.364 L269.015,82.364 C271.642,82.364 272.262,82.392 272.883,82.539 C273.52,82.692 274.141,82.95 274.71,83.3 C274.788,83.347 274.864,83.398 274.943,83.454 C275.435,83.804 275.893,84.234 277.567,85.904 L287.708,96.051 C289.557,97.897 289.978,98.359 290.307,98.897 C290.66,99.473 290.918,100.093 291.074,100.743 C291.222,101.357 291.25,101.973 291.25,104.598 L291.25,127.545 C291.25,133.588 291.132,135.032 290.556,136.162 C289.946,137.359 288.973,138.333 287.775,138.943 C286.645,139.518 285.202,139.636 279.159,139.636 L254.659,139.636 C252.992,139.636 252.581,139.627 252.241,139.582 C249.382,139.205 247.136,136.958 246.76,134.104 C246.714,133.76 246.705,133.349 246.705,131.682 C246.705,129.925 245.28,128.5 243.523,128.5 C241.765,128.5 240.341,129.925 240.341,131.682 Z M258.5,121.204 L266.454,113.25 C267.697,112.007 267.697,109.993 266.454,108.75 L258.5,100.796 C257.257,99.553 255.243,99.553 254,100.796 C252.758,102.038 252.758,104.053 254,105.295 L261.955,113.25 L261.955,108.75 L254,116.705 C252.758,117.947 252.758,119.962 254,121.204 C255.243,122.447 257.257,122.447 258.5,121.204 Z M241.273,100.796 L233.318,108.75 C232.076,109.993 232.076,112.007 233.318,113.25 L241.273,121.204 C242.515,122.447 244.53,122.447 245.773,121.204 C247.015,119.962 247.015,117.947 245.773,116.705 L237.818,108.75 L237.818,113.25 L245.773,105.295 C247.015,104.053 247.015,102.038 245.773,100.796 C244.53,99.553 242.515,99.553 241.273,100.796 Z" />
        </g>
        <g id="Regular-M" transform="translate(0,200)">
            <path d="M440.341,131.682 C440.341,133.709 440.352,134.195 440.452,134.941 C441.204,140.645 445.696,145.137 451.405,145.89 C452.146,145.989 452.632,146 454.659,146 L479.159,146 C486.48,146 488.22,145.858 490.664,144.613 C493.059,143.393 495.006,141.446 496.226,139.051 C497.471,136.606 497.614,134.867 497.614,127.545 L497.614,104.598 C497.614,101.388 497.576,100.565 497.262,99.255 C496.948,97.953 496.433,96.712 495.734,95.574 C495.035,94.429 494.47,93.81 492.206,91.55 L482.065,81.403 C480.085,79.427 479.537,78.913 478.632,78.269 C478.437,78.13 478.241,78 478.04,77.877 C476.902,77.178 475.66,76.662 474.362,76.349 C473.044,76.037 472.221,76 469.015,76 L454.659,76 C452.632,76 452.146,76.011 451.4,76.111 C445.696,76.863 441.204,81.355 440.451,87.064 C440.352,87.805 440.341,88.291 440.341,90.318 C440.341,92.075 441.765,93.5 443.523,93.5 C445.28,93.5 446.705,92.075 446.705,90.318 C446.705,88.651 446.714,88.24 446.759,87.901 C447.136,85.042 449.382,82.795 452.237,82.419 C452.581,82.373 452.992,82.364 454.659,82.364 L469.015,82.364 C471.642,82.364 472.262,82.392 472.883,82.539 C473.52,82.692 474.141,82.95 474.71,83.3 C474.788,83.347 474.864,83.398 474.943,83.454 C475.435,83.804 475.893,84.234 477.567,85.904 L487.708,96.051 C489.557,97.897 489.978,98.359 490.307,98.897 C490.66,99.473 490.918,100.093 491.074,100.743 C491.222,101.357 491.25,101.973 491.25,104.598 L491.25,127.545 C491.25,133.588 491.132,135.032 490.556,136.162 C489.946,137.359 488.973,138.333 487.775,138.943 C486.645,139.518 485.202,139.636 479.159,139.636 L454.659,139.636 C452.992,139.636 452.581,139.627 452.241,139.582 C449.382,139.205 447.136,136.958 446.76,134.104 C446.714,133.76 446.705,133.349 446.705,131.682 C446.705,129.925 445.28,128.5 443.523,128.5 C441.765,128.5 440.341,129.925 440.341,131.682 Z M458.5,121.204 L466.454,113.25 C467.697,112.007 467.697,109.993 466.454,108.75 L458.5,100.796 C457.257,99.553 455.243,99.553 454,100.796 C452.758,102.038 452.758,104.053 454,105.295 L461.955,113.25 L461.955,108.75 L454,116.705 C452.758,117.947 452.758,119.962 454,121.204 C455.243,122.447 457.257,122.447 458.5,121.204 Z M441.273,100.796 L433.318,108.75 C432.076,109.993 432.076,112.007 433.318,113.25 L441.273,121.204 C442.515,122.447 444.53,122.447 445.773,121.204 C447.015,119.962 447.015,117.947 445.773,116.705 L437.818,108.75 L437.818,113.25 L445.773,105.295 C447.015,104.053 447.015,102.038 445.773,100.796 C444.53,99.553 442.515,99.553 441.273,100.796 Z" />
        </g>
        <g id="Black-M" transform="translate(0,200)">
            <path d="M640.341,131.682 C640.341,133.709 640.352,134.195 640.452,134.941 C641.204,140.645 645.696,145.137 651.405,145.89 C652.146,145.989 652.632,146 654.659,146 L679.159,146 C686.48,146 688.22,145.858 690.664,144.613 C693.059,143.393 695.006,141.446 696.226,139.051 C697.471,136.606 697.614,134.867 697.614,127.545 L697.614,104.598 C697.614,101.388 697.576,100.565 697.262,99.255 C696.948,97.953 696.433,96.712 695.734,95.574 C695.035,94.429 694.47,93.81 692.206,91.55 L682.065,81.403 C680.085,79.427 679.537,78.913 678.632,78.269 C678.437,78.13 678.241,78 678.04,77.877 C676.901,77.178 675.66,76.662 674.362,76.349 C673.044,76.037 672.221,76 669.015,76 L654.659,76 C652.632,76 652.146,76.011 651.4,76.111 C645.696,76.863 641.204,81.355 640.451,87.064 C640.352,87.805 640.341,88.291 640.341,90.318 C640.341,92.075 641.765,93.5 643.523,93.5 C645.28,93.5 646.705,92.075 646.705,90.318 C646.705,88.651 646.714,88.24 646.759,87.901 C647.136,85.042 649.383,82.795 652.237,82.419 C652.581,82.373 652.992,82.364 654.659,82.364 L669.015,82.364 C671.642,82.364 672.262,82.392 672.883,82.539 C673.52,82.692 674.141,82.95 674.71,83.3 C674.788,83.347 674.864,83.398 674.943,83.454 C675.435,83.804 675.893,84.234 677.567,85.904 L687.708,96.051 C689.557,97.897 689.978,98.359 690.307,98.897 C690.66,99.473 690.918,100.093 691.074,100.743 C691.222,101.357 691.25,101.973 691.25,104.598 L691.25,127.545 C691.25,133.588 691.132,135.032 690.556,136.162 C689.946,137.359 688.973,138.333 687.775,138.943 C686.645,139.518 685.202,139.636 679.159,139.636 L654.659,139.636 C652.992,139.636 652.581,139.627 652.241,139.582 C649.383,139.205 647.136,136.958 646.76,134.104 C646.714,133.76 646.705,133.349 646.705,131.682 C646.705,129.925 645.28,128.5 643.523,128.5 C641.765,128.5 640.341,129.925 640.341,131.682 Z M658.5,121.204 L666.454,113.25 C667.697,112.007 667.697,109.993 666.454,108.75 L658.5,100.796 C657.257,99.553 655.243,99.553 654,100.796 C652.758,102.038 652.758,104.053 654,105.295 L661.955,113.25 L661.955,108.75 L654,116.705 C652.758,117.947 652.758,119.962 654,121.204 C655.243,122.447 657.257,122.447 658.5,121.204 Z M641.273,100.796 L633.318,108.75 C632.076,109.993 632.076,112.007 633.318,113.25 L641.273,121.204 C642.515,122.447 644.53,122.447 645.773,121.204 C647.015,119.962 647.015,117.947 645.773,116.705 L637.818,108.75 L637.818,113.25 L645.773,105.295 C647.015,104.053 647.015,102.038 645.773,100.796 C644.53,99.553 642.515,99.553 641.273,100.796 Z" />
        </g>
    </g>
</svg>