<?xml version="1.0" encoding="UTF-8"?>
<svg height="600" width="800" xmlns="http://www.w3.org/2000/svg" xmlns:xlink="http://www.w3.org/1999/xlink">
    <g id="Notes" font-family="LucidaGrande, 'Lucida Grande', sans-serif" font-size="13">
        <rect fill="white" height="600.0" width="800.0" x="0.0" y="0.0" />
        <g font-size="13">
            <text x="18.0" y="176.0">Small</text>
            <text x="18.0" y="376.0">Medium</text>
            <text x="18.0" y="576.0">Large</text>
        </g>
        <g font-size="9">
            <text x="250.0" y="30.0">Ultralight</text>
            <text x="450.0" y="30.0">Regular</text>
            <text x="650.0" y="30.0">Black</text>
            <text id="template-version" fill="#505050" text-anchor="end" x="785.0" y="575.0">Template v.3.0</text>
            <a href="https://github.com/swhitty/SwiftDraw">
                <text fill="#505050" text-anchor="end" x="785.0" y="590.0">https://github.com/swhitty/SwiftDraw</text>
            </a>
        </g>
    </g>
    <g id="Guides" stroke="rgb(39, 170, 225)" stroke-width="0.5">
        <path id="Capline-S" d="M18,76 l800,0" />
        <path id="H-reference" d="M85,145.755 L87.685,145.755 L113.369,79.287 L114.052,79.287 L114.052,76 L112.148,76 L85,145.755 Z M95.693,121.536 L130.996,121.536 L130.263,119.313 L96.474,119.313 L95.693,121.536 Z M139.15,145.755 L141.787,145.755 L114.638,76 L113.466,76 L113.466,79.287 L139.15,145.755 Z" stroke="none" transform="translate(0,200)" />
        <path id="Baseline-S" d="M18,146 l800,0" />
        <path id="left-margin-Ultralight-M" d="M233.182,256 l0,110" />
        <path id="right-margin-Ultralight-M" d="M296.818,256 l0,110" />
        <path id="left-margin-Regular-M" d="M433.182,256 l0,110" />
        <path id="right-margin-Regular-M" d="M496.818,256 l0,110" />
        <path id="left-margin-Black-M" d="M633.182,256 l0,110" />
        <path id="right-margin-Black-M" d="M696.818,256 l0,110" />
        <path id="Capline-M" d="M18,276 l800,0" />
        <path id="Baseline-M" d="M18,346 l800,0" />
        <path id="Capline-L" d="M18,476 l800,0" />
        <path id="Baseline-L" d="M18,546 l800,0" />
    </g>
    <g id="Symbols">
        <g id="Ultralight-M" transform="translate(0,200)">
            <path d="M270.915,82.332 C270.634,82.292 270.515,82.252 270.555,82.271 C270.918,82.45 271.48,82.797 272.253,83.354 C274.688,85.109 278.217,88.219 282.997,93 C289.55,99.553 292.025,109.148 289.459,118.053 C286.893,126.957 279.691,133.763 270.656,135.821 C268.943,136.212 267.871,137.917 268.261,139.63 C268.651,141.344 270.356,142.416 272.07,142.026 C283.362,139.453 292.365,130.946 295.573,119.815 C298.781,108.685 295.687,96.69 287.496,88.501 C278.633,79.634 274.083,76.355 271.811,76.032 C270.072,75.784 268.461,76.994 268.213,78.733 C267.966,80.473 269.175,82.084 270.915,82.332 Z M271.363,82.364 L290.452,82.364 C292.209,82.364 293.633,80.939 293.633,79.182 C293.633,77.425 292.209,76 290.452,76 L271.363,76 C269.606,76 268.181,77.425 268.181,79.182 C268.181,80.939 269.606,82.364 271.363,82.364 Z M268.181,79.182 L268.181,98.273 C268.181,100.03 269.606,101.455 271.363,101.455 C273.12,101.455 274.544,100.03 274.544,98.273 L274.544,79.182 C274.544,77.425 273.12,76 271.363,76 C269.606,76 268.181,77.425 268.181,79.182 Z M259.089,139.669 C259.368,139.709 259.487,139.749 259.446,139.729 C259.083,139.55 258.52,139.202 257.748,138.645 C255.312,136.889 251.783,133.78 247.003,128.999 C240.45,122.447 237.975,112.852 240.541,103.947 C243.107,95.043 250.309,88.237 259.344,86.179 C261.057,85.788 262.129,84.083 261.739,82.37 C261.349,80.656 259.644,79.584 257.93,79.974 C246.638,82.547 237.635,91.054 234.427,102.185 C231.219,113.315 234.313,125.31 242.504,133.499 C251.367,142.363 255.915,145.642 258.185,145.968 C259.924,146.217 261.537,145.01 261.786,143.27 C262.036,141.531 260.828,139.918 259.089,139.669 Z M258.637,139.636 L239.548,139.636 C237.791,139.636 236.367,141.061 236.367,142.818 C236.367,144.575 237.791,146 239.548,146 L258.637,146 C260.394,146 261.819,144.575 261.819,142.818 C261.819,141.061 260.394,139.636 258.637,139.636 Z M261.819,142.818 L261.819,123.727 C261.819,121.97 260.394,120.545 258.637,120.545 C256.88,120.545 255.456,121.97 255.456,123.727 L255.456,142.818 C255.456,144.575 256.88,146 258.637,146 C260.394,146 261.819,144.575 261.819,142.818 Z" />
        </g>
        <g id="Regular-M" transform="translate(0,200)">
            <path d="M470.915,82.332 C470.634,82.292 470.515,82.252 470.555,82.271 C470.918,82.45 471.48,82.797 472.253,83.354 C474.688,85.109 478.217,88.219 482.997,93 C489.55,99.553 492.025,109.148 489.459,118.053 C486.893,126.957 479.691,133.763 470.656,135.821 C468.943,136.212 467.871,137.917 468.261,139.63 C468.651,141.344 470.356,142.416 472.07,142.026 C483.362,139.453 492.365,130.946 495.573,119.815 C498.781,108.685 495.687,96.69 487.496,88.501 C478.633,79.634 474.083,76.355 471.811,76.032 C470.072,75.784 468.461,76.994 468.213,78.733 C467.966,80.473 469.175,82.084 470.915,82.332 Z M471.363,82.364 L490.452,82.364 C492.209,82.364 493.633,80.939 493.633,79.182 C493.633,77.425 492.209,76 490.452,76 L471.363,76 C469.606,76 468.181,77.425 468.181,79.182 C468.181,80.939 469.606,82.364 471.363,82.364 Z M468.181,79.182 L468.181,98.273 C468.181,100.03 469.606,101.455 471.363,101.455 C473.12,101.455 474.544,100.03 474.544,98.273 L474.544,79.182 C474.544,77.425 473.12,76 471.363,76 C469.606,76 468.181,77.425 468.181,79.182 Z M459.089,139.669 C459.368,139.709 459.487,139.749 459.446,139.729 C459.083,139.55 458.52,139.202 457.748,138.645 C455.312,136.889 451.783,133.78 447.003,128.999 C440.45,122.447 437.975,112.852 440.541,103.947 C443.107,95.043 450.309,88.237 459.344,86.179 C461.057,85.788 462.129,84.083 461.739,82.37 C461.349,80.656 459.644,79.584 457.93,79.974 C446.638,82.547 437.635,91.054 434.427,102.185 C431.219,113.315 434.313,125.31 442.504,133.499 C451.367,142.363 455.915,145.642 458.185,145.968 C459.924,146.217 461.537,145.01 461.786,143.27 C462.036,141.531 460.828,139.918 459.089,139.669 Z M458.637,139.636 L439.548,139.636 C437.791,139.636 436.367,141.061 436.367,142.818 C436.367,144.575 437.791,146 439.548,146 L458.637,146 C460.394,146 461.819,144.575 461.819,142.818 C461.819,141.061 460.394,139.636 458.637,139.636 Z M461.819,142.818 L461.819,123.727 C461.819,121.97 460.394,120.545 458.637,120.545 C456.88,120.545 455.456,121.97 455.456,123.727 L455.456,142.818 C455.456,144.575 456.88,146 458.637,146 C460.394,146 461.819,144.575 461.819,142.818 Z" />
        </g>
        <g id="Black-M" transform="translate(0,200)">
            <path d="M670.915,82.332 C670.634,82.292 670.515,82.252 670.555,82.271 C670.918,82.45 671.48,82.797 672.253,83.354 C674.688,85.109 678.217,88.219 682.997,93 C689.55,99.553 692.025,109.148 689.459,118.053 C686.893,126.957 679.691,133.763 670.656,135.821 C668.943,136.212 667.871,137.917 668.261,139.63 C668.651,141.344 670.356,142.416 672.07,142.026 C683.362,139.453 692.365,130.946 695.573,119.815 C698.781,108.685 695.687,96.69 687.496,88.501 C678.633,79.634 674.083,76.355 671.811,76.032 C670.072,75.784 668.461,76.994 668.213,78.733 C667.966,80.473 669.175,82.084 670.915,82.332 Z M671.363,82.364 L690.452,82.364 C692.209,82.364 693.633,80.939 693.633,79.182 C693.633,77.425 692.209,76 690.452,76 L671.363,76 C669.606,76 668.181,77.425 668.181,79.182 C668.181,80.939 669.606,82.364 671.363,82.364 Z M668.181,79.182 L668.181,98.273 C668.181,100.03 669.606,101.455 671.363,101.455 C673.12,101.455 674.544,100.03 674.544,98.273 L674.544,79.182 C674.544,77.425 673.12,76 671.363,76 C669.606,76 668.181,77.425 668.181,79.182 Z M659.089,139.669 C659.368,139.709 659.487,139.749 659.446,139.729 C659.083,139.55 658.52,139.202 657.748,138.645 C655.312,136.889 651.783,133.78 647.003,128.999 C640.45,122.447 637.975,112.852 640.541,103.947 C643.107,95.043 650.309,88.237 659.344,86.179 C661.057,85.788 662.129,84.083 661.739,82.37 C661.349,80.656 659.644,79.584 657.93,79.974 C646.638,82.547 637.635,91.054 634.427,102.185 C631.219,113.315 634.313,125.31 642.504,133.499 C651.367,142.363 655.915,145.642 658.185,145.968 C659.924,146.217 661.537,145.01 661.786,143.27 C662.036,141.531 660.828,139.918 659.089,139.669 Z M658.637,139.636 L639.548,139.636 C637.791,139.636 636.367,141.061 636.367,142.818 C636.367,144.575 637.791,146 639.548,146 L658.637,146 C660.394,146 661.819,144.575 661.819,142.818 C661.819,141.061 660.394,139.636 658.637,139.636 Z M661.819,142.818 L661.819,123.727 C661.819,121.97 660.394,120.545 658.637,120.545 C656.88,120.545 655.456,121.97 655.456,123.727 L655.456,142.818 C655.456,144.575 656.88,146 658.637,146 C660.394,146 661.819,144.575 661.819,142.818 Z" />
        </g>
    </g>
</svg>