<?xml version="1.0" encoding="UTF-8"?>
<svg height="600" width="800" xmlns="http://www.w3.org/2000/svg" xmlns:xlink="http://www.w3.org/1999/xlink">
    <g id="Notes" font-family="LucidaGrande, 'Lucida Grande', sans-serif" font-size="13">
        <rect fill="white" height="600.0" width="800.0" x="0.0" y="0.0" />
        <g font-size="13">
            <text x="18.0" y="176.0">Small</text>
            <text x="18.0" y="376.0">Medium</text>
            <text x="18.0" y="576.0">Large</text>
        </g>
        <g font-size="9">
            <text x="250.0" y="30.0">Ultralight</text>
            <text x="450.0" y="30.0">Regular</text>
            <text x="650.0" y="30.0">Black</text>
            <text id="template-version" fill="#505050" text-anchor="end" x="785.0" y="575.0">Template v.3.0</text>
            <a href="https://github.com/swhitty/SwiftDraw">
                <text fill="#505050" text-anchor="end" x="785.0" y="590.0">https://github.com/swhitty/SwiftDraw</text>
            </a>
        </g>
    </g>
    <g id="Guides" stroke="rgb(39, 170, 225)" stroke-width="0.5">
        <path id="Capline-S" d="M18,76 l800,0" />
        <path id="H-reference" d="M85,145.755 L87.685,145.755 L113.369,79.287 L114.052,79.287 L114.052,76 L112.148,76 L85,145.755 Z M95.693,121.536 L130.996,121.536 L130.263,119.313 L96.474,119.313 L95.693,121.536 Z M139.15,145.755 L141.787,145.755 L114.638,76 L113.466,76 L113.466,79.287 L139.15,145.755 Z" stroke="none" transform="translate(0,200)" />
        <path id="Baseline-S" d="M18,146 l800,0" />
        <path id="left-margin-Ultralight-M" d="M230,256 l0,110" />
        <path id="right-margin-Ultralight-M" d="M300,256 l0,110" />
        <path id="left-margin-Regular-M" d="M430,256 l0,110" />
        <path id="right-margin-Regular-M" d="M500,256 l0,110" />
        <path id="left-margin-Black-M" d="M630,256 l0,110" />
        <path id="right-margin-Black-M" d="M700,256 l0,110" />
        <path id="Capline-M" d="M18,276 l800,0" />
        <path id="Baseline-M" d="M18,346 l800,0" />
        <path id="Capline-L" d="M18,476 l800,0" />
        <path id="Baseline-L" d="M18,546 l800,0" />
    </g>
    <g id="Symbols">
        <g id="Ultralight-M" transform="translate(0,200)">
            <path d="M265,114.182 L265.016,114.182 C266.773,114.182 268.198,112.757 268.198,111 C268.198,109.243 266.773,107.818 265.016,107.818 L265,107.818 C263.243,107.818 261.818,109.243 261.818,111 C261.818,112.757 263.243,114.182 265,114.182 Z M280.909,114.182 L280.925,114.182 C282.682,114.182 284.107,112.757 284.107,111 C284.107,109.243 282.682,107.818 280.925,107.818 L280.909,107.818 C279.152,107.818 277.727,109.243 277.727,111 C277.727,112.757 279.152,114.182 280.909,114.182 Z M249.091,114.182 L249.107,114.182 C250.864,114.182 252.289,112.757 252.289,111 C252.289,109.243 250.864,107.818 249.107,107.818 L249.091,107.818 C247.334,107.818 245.909,109.243 245.909,111 C245.909,112.757 247.334,114.182 249.091,114.182 Z M243.364,98.273 L286.636,98.273 C290.452,98.273 291.365,98.347 291.9,98.62 C292.498,98.925 292.984,99.411 293.29,100.01 C293.562,100.544 293.636,101.457 293.636,105.273 L293.636,116.727 C293.636,120.543 293.562,121.456 293.289,121.99 C292.984,122.589 292.498,123.075 291.899,123.38 C291.365,123.653 290.452,123.727 286.636,123.727 L243.364,123.727 C239.548,123.727 238.635,123.653 238.1,123.38 C237.502,123.075 237.016,122.589 236.71,121.99 C236.438,121.456 236.364,120.543 236.364,116.727 L236.364,105.273 C236.364,101.457 236.438,100.544 236.711,100.01 C237.016,99.411 237.502,98.925 238.101,98.62 C238.635,98.347 239.548,98.273 243.364,98.273 Z M243.364,91.909 C238.27,91.909 237.061,92.008 235.212,92.949 C233.416,93.865 231.956,95.325 231.04,97.121 C230.099,98.97 230,100.179 230,105.273 L230,116.727 C230,121.821 230.099,123.03 231.04,124.879 C231.956,126.675 233.416,128.135 235.212,129.05 C237.061,129.992 238.27,130.091 243.364,130.091 L286.636,130.091 C291.73,130.091 292.939,129.992 294.788,129.051 C296.584,128.135 298.044,126.675 298.96,124.879 C299.901,123.03 300,121.821 300,116.727 L300,105.273 C300,100.179 299.901,98.97 298.96,97.121 C298.044,95.325 296.584,93.865 294.788,92.95 C292.939,92.008 291.73,91.909 286.636,91.909 L243.364,91.909 Z M262.614,111 C262.614,109.682 263.682,108.614 265,108.614 C266.318,108.614 267.386,109.682 267.386,111 C267.386,112.318 266.318,113.386 265,113.386 C263.682,113.386 262.614,112.318 262.614,111 Z M268.977,111 C268.977,108.803 267.197,107.023 265,107.023 C262.803,107.023 261.023,108.803 261.023,111 C261.023,113.197 262.803,114.977 265,114.977 C267.197,114.977 268.977,113.197 268.977,111 Z M278.523,111 C278.523,109.682 279.591,108.614 280.909,108.614 C282.227,108.614 283.295,109.682 283.295,111 C283.295,112.318 282.227,113.386 280.909,113.386 C279.591,113.386 278.523,112.318 278.523,111 Z M284.886,111 C284.886,108.803 283.106,107.023 280.909,107.023 C278.712,107.023 276.932,108.803 276.932,111 C276.932,113.197 278.712,114.977 280.909,114.977 C283.106,114.977 284.886,113.197 284.886,111 Z M246.705,111 C246.705,109.682 247.773,108.614 249.091,108.614 C250.409,108.614 251.477,109.682 251.477,111 C251.477,112.318 250.409,113.386 249.091,113.386 C247.773,113.386 246.705,112.318 246.705,111 Z M253.068,111 C253.068,108.803 251.288,107.023 249.091,107.023 C246.894,107.023 245.114,108.803 245.114,111 C245.114,113.197 246.894,114.977 249.091,114.977 C251.288,114.977 253.068,113.197 253.068,111 Z" />
        </g>
        <g id="Regular-M" transform="translate(0,200)">
            <path d="M465,114.182 L465.016,114.182 C466.773,114.182 468.198,112.757 468.198,111 C468.198,109.243 466.773,107.818 465.016,107.818 L465,107.818 C463.243,107.818 461.818,109.243 461.818,111 C461.818,112.757 463.243,114.182 465,114.182 Z M480.909,114.182 L480.925,114.182 C482.682,114.182 484.107,112.757 484.107,111 C484.107,109.243 482.682,107.818 480.925,107.818 L480.909,107.818 C479.152,107.818 477.727,109.243 477.727,111 C477.727,112.757 479.152,114.182 480.909,114.182 Z M449.091,114.182 L449.107,114.182 C450.864,114.182 452.289,112.757 452.289,111 C452.289,109.243 450.864,107.818 449.107,107.818 L449.091,107.818 C447.334,107.818 445.909,109.243 445.909,111 C445.909,112.757 447.334,114.182 449.091,114.182 Z M443.364,98.273 L486.636,98.273 C490.452,98.273 491.365,98.347 491.9,98.62 C492.498,98.925 492.984,99.411 493.29,100.01 C493.562,100.544 493.636,101.457 493.636,105.273 L493.636,116.727 C493.636,120.543 493.562,121.456 493.289,121.99 C492.984,122.589 492.498,123.075 491.899,123.38 C491.365,123.653 490.452,123.727 486.636,123.727 L443.364,123.727 C439.548,123.727 438.635,123.653 438.1,123.38 C437.502,123.075 437.016,122.589 436.71,121.99 C436.438,121.456 436.364,120.543 436.364,116.727 L436.364,105.273 C436.364,101.457 436.438,100.544 436.711,100.01 C437.016,99.411 437.502,98.925 438.101,98.62 C438.635,98.347 439.548,98.273 443.364,98.273 Z M443.364,91.909 C438.27,91.909 437.061,92.008 435.212,92.949 C433.416,93.865 431.956,95.325 431.04,97.121 C430.099,98.97 430,100.179 430,105.273 L430,116.727 C430,121.821 430.099,123.03 431.04,124.879 C431.956,126.675 433.416,128.135 435.212,129.05 C437.061,129.992 438.27,130.091 443.364,130.091 L486.636,130.091 C491.73,130.091 492.939,129.992 494.788,129.051 C496.584,128.135 498.044,126.675 498.96,124.879 C499.901,123.03 500,121.821 500,116.727 L500,105.273 C500,100.179 499.901,98.97 498.96,97.121 C498.044,95.325 496.584,93.865 494.788,92.95 C492.939,92.008 491.73,91.909 486.636,91.909 L443.364,91.909 Z M462.614,111 C462.614,109.682 463.682,108.614 465,108.614 C466.318,108.614 467.386,109.682 467.386,111 C467.386,112.318 466.318,113.386 465,113.386 C463.682,113.386 462.614,112.318 462.614,111 Z M468.977,111 C468.977,108.803 467.197,107.023 465,107.023 C462.803,107.023 461.023,108.803 461.023,111 C461.023,113.197 462.803,114.977 465,114.977 C467.197,114.977 468.977,113.197 468.977,111 Z M478.523,111 C478.523,109.682 479.591,108.614 480.909,108.614 C482.227,108.614 483.295,109.682 483.295,111 C483.295,112.318 482.227,113.386 480.909,113.386 C479.591,113.386 478.523,112.318 478.523,111 Z M484.886,111 C484.886,108.803 483.106,107.023 480.909,107.023 C478.712,107.023 476.932,108.803 476.932,111 C476.932,113.197 478.712,114.977 480.909,114.977 C483.106,114.977 484.886,113.197 484.886,111 Z M446.705,111 C446.705,109.682 447.773,108.614 449.091,108.614 C450.409,108.614 451.477,109.682 451.477,111 C451.477,112.318 450.409,113.386 449.091,113.386 C447.773,113.386 446.705,112.318 446.705,111 Z M453.068,111 C453.068,108.803 451.288,107.023 449.091,107.023 C446.894,107.023 445.114,108.803 445.114,111 C445.114,113.197 446.894,114.977 449.091,114.977 C451.288,114.977 453.068,113.197 453.068,111 Z" />
        </g>
        <g id="Black-M" transform="translate(0,200)">
            <path d="M665,114.182 L665.016,114.182 C666.773,114.182 668.198,112.757 668.198,111 C668.198,109.243 666.773,107.818 665.016,107.818 L665,107.818 C663.243,107.818 661.818,109.243 661.818,111 C661.818,112.757 663.243,114.182 665,114.182 Z M680.909,114.182 L680.925,114.182 C682.682,114.182 684.107,112.757 684.107,111 C684.107,109.243 682.682,107.818 680.925,107.818 L680.909,107.818 C679.152,107.818 677.727,109.243 677.727,111 C677.727,112.757 679.152,114.182 680.909,114.182 Z M649.091,114.182 L649.107,114.182 C650.864,114.182 652.289,112.757 652.289,111 C652.289,109.243 650.864,107.818 649.107,107.818 L649.091,107.818 C647.334,107.818 645.909,109.243 645.909,111 C645.909,112.757 647.334,114.182 649.091,114.182 Z M643.364,98.273 L686.636,98.273 C690.452,98.273 691.365,98.347 691.9,98.62 C692.498,98.925 692.984,99.411 693.29,100.01 C693.562,100.544 693.636,101.457 693.636,105.273 L693.636,116.727 C693.636,120.543 693.562,121.456 693.289,121.99 C692.984,122.589 692.498,123.075 691.899,123.38 C691.365,123.653 690.452,123.727 686.636,123.727 L643.364,123.727 C639.548,123.727 638.635,123.653 638.1,123.38 C637.502,123.075 637.016,122.589 636.71,121.99 C636.438,121.456 636.364,120.543 636.364,116.727 L636.364,105.273 C636.364,101.457 636.438,100.544 636.711,100.01 C637.016,99.411 637.502,98.925 638.101,98.62 C638.635,98.347 639.548,98.273 643.364,98.273 Z M643.364,91.909 C638.27,91.909 637.061,92.008 635.212,92.949 C633.416,93.865 631.956,95.325 631.04,97.121 C630.099,98.97 630,100.179 630,105.273 L630,116.727 C630,121.821 630.099,123.03 631.04,124.879 C631.956,126.675 633.416,128.135 635.212,129.05 C637.061,129.992 638.27,130.091 643.364,130.091 L686.636,130.091 C691.73,130.091 692.939,129.992 694.788,129.051 C696.584,128.135 698.044,126.675 698.96,124.879 C699.901,123.03 700,121.821 700,116.727 L700,105.273 C700,100.179 699.901,98.97 698.96,97.121 C698.044,95.325 696.584,93.865 694.788,92.95 C692.939,92.008 691.73,91.909 686.636,91.909 L643.364,91.909 Z M662.614,111 C662.614,109.682 663.682,108.614 665,108.614 C666.318,108.614 667.386,109.682 667.386,111 C667.386,112.318 666.318,113.386 665,113.386 C663.682,113.386 662.614,112.318 662.614,111 Z M668.977,111 C668.977,108.803 667.197,107.023 665,107.023 C662.803,107.023 661.023,108.803 661.023,111 C661.023,113.197 662.803,114.977 665,114.977 C667.197,114.977 668.977,113.197 668.977,111 Z M678.523,111 C678.523,109.682 679.591,108.614 680.909,108.614 C682.227,108.614 683.295,109.682 683.295,111 C683.295,112.318 682.227,113.386 680.909,113.386 C679.591,113.386 678.523,112.318 678.523,111 Z M684.886,111 C684.886,108.803 683.106,107.023 680.909,107.023 C678.713,107.023 676.932,108.803 676.932,111 C676.932,113.197 678.713,114.977 680.909,114.977 C683.106,114.977 684.886,113.197 684.886,111 Z M646.705,111 C646.705,109.682 647.773,108.614 649.091,108.614 C650.409,108.614 651.477,109.682 651.477,111 C651.477,112.318 650.409,113.386 649.091,113.386 C647.773,113.386 646.705,112.318 646.705,111 Z M653.068,111 C653.068,108.803 651.287,107.023 649.091,107.023 C646.894,107.023 645.114,108.803 645.114,111 C645.114,113.197 646.894,114.977 649.091,114.977 C651.287,114.977 653.068,113.197 653.068,111 Z" />
        </g>
    </g>
</svg>