<?xml version="1.0" encoding="UTF-8"?>
<svg height="600" width="800" xmlns="http://www.w3.org/2000/svg" xmlns:xlink="http://www.w3.org/1999/xlink">
    <g id="Notes" font-family="LucidaGrande, 'Lucida Grande', sans-serif" font-size="13">
        <rect fill="white" height="600.0" width="800.0" x="0.0" y="0.0" />
        <g font-size="13">
            <text x="18.0" y="176.0">Small</text>
            <text x="18.0" y="376.0">Medium</text>
            <text x="18.0" y="576.0">Large</text>
        </g>
        <g font-size="9">
            <text x="250.0" y="30.0">Ultralight</text>
            <text x="450.0" y="30.0">Regular</text>
            <text x="650.0" y="30.0">Black</text>
            <text id="template-version" fill="#505050" text-anchor="end" x="785.0" y="575.0">Template v.3.0</text>
            <a href="https://github.com/swhitty/SwiftDraw">
                <text fill="#505050" text-anchor="end" x="785.0" y="590.0">https://github.com/swhitty/SwiftDraw</text>
            </a>
        </g>
    </g>
    <g id="Guides" stroke="rgb(39, 170, 225)" stroke-width="0.5">
        <path id="Capline-S" d="M18,76 l800,0" />
        <path id="H-reference" d="M85,145.755 L87.685,145.755 L113.369,79.287 L114.052,79.287 L114.052,76 L112.148,76 L85,145.755 Z M95.693,121.536 L130.996,121.536 L130.263,119.313 L96.474,119.313 L95.693,121.536 Z M139.15,145.755 L141.787,145.755 L114.638,76 L113.466,76 L113.466,79.287 L139.15,145.755 Z" stroke="none" transform="translate(0,200)" />
        <path id="Baseline-S" d="M18,146 l800,0" />
        <path id="left-margin-Ultralight-M" d="M221,256 l0,110" />
        <path id="right-margin-Ultralight-M" d="M309,256 l0,110" />
        <path id="left-margin-Regular-M" d="M421,256 l0,110" />
        <path id="right-margin-Regular-M" d="M509,256 l0,110" />
        <path id="left-margin-Black-M" d="M621,256 l0,110" />
        <path id="right-margin-Black-M" d="M709,256 l0,110" />
        <path id="Capline-M" d="M18,276 l800,0" />
        <path id="Baseline-M" d="M18,346 l800,0" />
        <path id="Capline-L" d="M18,476 l800,0" />
        <path id="Baseline-L" d="M18,546 l800,0" />
    </g>
    <g id="Symbols">
        <g id="Ultralight-M" transform="translate(0,200)">
            <path d="M284.8,103.3 L255.1,103.3 C248.417,103.3 243,108.717 243,115.4 C243,122.083 248.417,127.5 255.1,127.5 L265,127.5 C266.215,127.5 267.2,126.515 267.2,125.3 C267.2,124.085 266.215,123.1 265,123.1 L255.1,123.1 C250.847,123.1 247.4,119.653 247.4,115.4 C247.4,111.147 250.847,107.7 255.1,107.7 L284.8,107.7 C286.015,107.7 287,106.715 287,105.5 C287,104.285 286.015,103.3 284.8,103.3 Z M286.356,103.944 L277.556,95.144 C276.696,94.285 275.304,94.285 274.444,95.144 C273.585,96.004 273.585,97.396 274.444,98.256 L283.244,107.056 C284.104,107.915 285.496,107.915 286.356,107.056 C287.215,106.196 287.215,104.804 286.356,103.944 Z M283.244,103.944 L274.444,112.744 C273.585,113.604 273.585,114.996 274.444,115.856 C275.304,116.715 276.696,116.715 277.556,115.856 L286.356,107.056 C287.215,106.196 287.215,104.804 286.356,103.944 C285.496,103.085 284.104,103.085 283.244,103.944 Z" />
        </g>
        <g id="Regular-M" transform="translate(0,200)">
            <path d="M484.8,103.3 L455.1,103.3 C448.417,103.3 443,108.717 443,115.4 C443,122.083 448.417,127.5 455.1,127.5 L465,127.5 C466.215,127.5 467.2,126.515 467.2,125.3 C467.2,124.085 466.215,123.1 465,123.1 L455.1,123.1 C450.847,123.1 447.4,119.653 447.4,115.4 C447.4,111.147 450.847,107.7 455.1,107.7 L484.8,107.7 C486.015,107.7 487,106.715 487,105.5 C487,104.285 486.015,103.3 484.8,103.3 Z M486.356,103.944 L477.556,95.144 C476.696,94.285 475.304,94.285 474.444,95.144 C473.585,96.004 473.585,97.396 474.444,98.256 L483.244,107.056 C484.104,107.915 485.496,107.915 486.356,107.056 C487.215,106.196 487.215,104.804 486.356,103.944 Z M483.244,103.944 L474.444,112.744 C473.585,113.604 473.585,114.996 474.444,115.856 C475.304,116.715 476.696,116.715 477.556,115.856 L486.356,107.056 C487.215,106.196 487.215,104.804 486.356,103.944 C485.496,103.085 484.104,103.085 483.244,103.944 Z" />
        </g>
        <g id="Black-M" transform="translate(0,200)">
            <path d="M684.8,103.3 L655.1,103.3 C648.417,103.3 643,108.717 643,115.4 C643,122.083 648.417,127.5 655.1,127.5 L665,127.5 C666.215,127.5 667.2,126.515 667.2,125.3 C667.2,124.085 666.215,123.1 665,123.1 L655.1,123.1 C650.847,123.1 647.4,119.653 647.4,115.4 C647.4,111.147 650.847,107.7 655.1,107.7 L684.8,107.7 C686.015,107.7 687,106.715 687,105.5 C687,104.285 686.015,103.3 684.8,103.3 Z M686.356,103.944 L677.556,95.144 C676.696,94.285 675.303,94.285 674.444,95.144 C673.585,96.004 673.585,97.396 674.444,98.256 L683.244,107.056 C684.104,107.915 685.496,107.915 686.356,107.056 C687.215,106.196 687.215,104.804 686.356,103.944 Z M683.244,103.944 L674.444,112.744 C673.585,113.604 673.585,114.996 674.444,115.856 C675.303,116.715 676.696,116.715 677.556,115.856 L686.356,107.056 C687.215,106.196 687.215,104.804 686.356,103.944 C685.496,103.085 684.104,103.085 683.244,103.944 Z" />
        </g>
    </g>
</svg>