<?xml version="1.0" encoding="UTF-8"?>
<svg height="600" width="800" xmlns="http://www.w3.org/2000/svg" xmlns:xlink="http://www.w3.org/1999/xlink">
    <g id="Notes" font-family="LucidaGrande, 'Lucida Grande', sans-serif" font-size="13">
        <rect fill="white" height="600.0" width="800.0" x="0.0" y="0.0" />
        <g font-size="13">
            <text x="18.0" y="176.0">Small</text>
            <text x="18.0" y="376.0">Medium</text>
            <text x="18.0" y="576.0">Large</text>
        </g>
        <g font-size="9">
            <text x="250.0" y="30.0">Ultralight</text>
            <text x="450.0" y="30.0">Regular</text>
            <text x="650.0" y="30.0">Black</text>
            <text id="template-version" fill="#505050" text-anchor="end" x="785.0" y="575.0">Template v.3.0</text>
            <a href="https://github.com/swhitty/SwiftDraw">
                <text fill="#505050" text-anchor="end" x="785.0" y="590.0">https://github.com/swhitty/SwiftDraw</text>
            </a>
        </g>
    </g>
    <g id="Guides" stroke="rgb(39, 170, 225)" stroke-width="0.5">
        <path id="Capline-S" d="M18,76 l800,0" />
        <path id="H-reference" d="M85,145.755 L87.685,145.755 L113.369,79.287 L114.052,79.287 L114.052,76 L112.148,76 L85,145.755 Z M95.693,121.536 L130.996,121.536 L130.263,119.313 L96.474,119.313 L95.693,121.536 Z M139.15,145.755 L141.787,145.755 L114.638,76 L113.466,76 L113.466,79.287 L139.15,145.755 Z" stroke="none" transform="translate(0,200)" />
        <path id="Baseline-S" d="M18,146 l800,0" />
        <path id="left-margin-Ultralight-M" d="M230,256 l0,110" />
        <path id="right-margin-Ultralight-M" d="M300,256 l0,110" />
        <path id="left-margin-Regular-M" d="M430,256 l0,110" />
        <path id="right-margin-Regular-M" d="M500,256 l0,110" />
        <path id="left-margin-Black-M" d="M630,256 l0,110" />
        <path id="right-margin-Black-M" d="M700,256 l0,110" />
        <path id="Capline-M" d="M18,276 l800,0" />
        <path id="Baseline-M" d="M18,346 l800,0" />
        <path id="Capline-L" d="M18,476 l800,0" />
        <path id="Baseline-L" d="M18,546 l800,0" />
    </g>
    <g id="Symbols">
        <g id="Ultralight-M" transform="translate(0,200)">
            <path d="M291.25,99.333 L251.875,99.333 C243.015,99.333 235.833,106.515 235.833,115.375 C235.833,124.235 243.015,131.417 251.875,131.417 L265,131.417 C266.611,131.417 267.917,130.111 267.917,128.5 C267.917,126.889 266.611,125.583 265,125.583 L251.875,125.583 C246.237,125.583 241.667,121.013 241.667,115.375 C241.667,109.737 246.237,105.167 251.875,105.167 L291.25,105.167 C292.861,105.167 294.167,103.861 294.167,102.25 C294.167,100.639 292.861,99.333 291.25,99.333 Z M293.312,100.188 L281.646,88.521 C280.507,87.382 278.66,87.382 277.521,88.521 C276.382,89.66 276.382,91.507 277.521,92.646 L289.188,104.312 C290.327,105.451 292.173,105.451 293.312,104.312 C294.451,103.173 294.451,101.327 293.312,100.188 Z M289.188,100.188 L277.521,111.854 C276.382,112.993 276.382,114.84 277.521,115.979 C278.66,117.118 280.507,117.118 281.646,115.979 L293.312,104.312 C294.451,103.173 294.451,101.327 293.312,100.188 C292.173,99.049 290.327,99.049 289.188,100.188 Z" />
        </g>
        <g id="Regular-M" transform="translate(0,200)">
            <path d="M491.25,99.333 L451.875,99.333 C443.015,99.333 435.833,106.515 435.833,115.375 C435.833,124.235 443.015,131.417 451.875,131.417 L465,131.417 C466.611,131.417 467.917,130.111 467.917,128.5 C467.917,126.889 466.611,125.583 465,125.583 L451.875,125.583 C446.237,125.583 441.667,121.013 441.667,115.375 C441.667,109.737 446.237,105.167 451.875,105.167 L491.25,105.167 C492.861,105.167 494.167,103.861 494.167,102.25 C494.167,100.639 492.861,99.333 491.25,99.333 Z M493.312,100.188 L481.646,88.521 C480.507,87.382 478.66,87.382 477.521,88.521 C476.382,89.66 476.382,91.507 477.521,92.646 L489.188,104.312 C490.327,105.451 492.173,105.451 493.312,104.312 C494.451,103.173 494.451,101.327 493.312,100.188 Z M489.188,100.188 L477.521,111.854 C476.382,112.993 476.382,114.84 477.521,115.979 C478.66,117.118 480.507,117.118 481.646,115.979 L493.312,104.312 C494.451,103.173 494.451,101.327 493.312,100.188 C492.173,99.049 490.327,99.049 489.188,100.188 Z" />
        </g>
        <g id="Black-M" transform="translate(0,200)">
            <path d="M691.25,99.333 L651.875,99.333 C643.015,99.333 635.833,106.515 635.833,115.375 C635.833,124.235 643.015,131.417 651.875,131.417 L665,131.417 C666.611,131.417 667.917,130.111 667.917,128.5 C667.917,126.889 666.611,125.583 665,125.583 L651.875,125.583 C646.237,125.583 641.667,121.013 641.667,115.375 C641.667,109.737 646.237,105.167 651.875,105.167 L691.25,105.167 C692.861,105.167 694.167,103.861 694.167,102.25 C694.167,100.639 692.861,99.333 691.25,99.333 Z M693.312,100.188 L681.646,88.521 C680.507,87.382 678.66,87.382 677.521,88.521 C676.382,89.66 676.382,91.507 677.521,92.646 L689.188,104.312 C690.327,105.451 692.173,105.451 693.312,104.312 C694.451,103.173 694.451,101.327 693.312,100.188 Z M689.188,100.188 L677.521,111.854 C676.382,112.993 676.382,114.84 677.521,115.979 C678.66,117.118 680.507,117.118 681.646,115.979 L693.312,104.312 C694.451,103.173 694.451,101.327 693.312,100.188 C692.173,99.049 690.327,99.049 689.188,100.188 Z" />
        </g>
    </g>
</svg>