<?xml version="1.0" encoding="UTF-8"?>
<svg height="600" width="800" xmlns="http://www.w3.org/2000/svg" xmlns:xlink="http://www.w3.org/1999/xlink">
    <g id="Notes" font-family="LucidaGrande, 'Lucida Grande', sans-serif" font-size="13">
        <rect fill="white" height="600.0" width="800.0" x="0.0" y="0.0" />
        <g font-size="13">
            <text x="18.0" y="176.0">Small</text>
            <text x="18.0" y="376.0">Medium</text>
            <text x="18.0" y="576.0">Large</text>
        </g>
        <g font-size="9">
            <text x="250.0" y="30.0">Ultralight</text>
            <text x="450.0" y="30.0">Regular</text>
            <text x="650.0" y="30.0">Black</text>
            <text id="template-version" fill="#505050" text-anchor="end" x="785.0" y="575.0">Template v.3.0</text>
            <a href="https://github.com/swhitty/SwiftDraw">
                <text fill="#505050" text-anchor="end" x="785.0" y="590.0">https://github.com/swhitty/SwiftDraw</text>
            </a>
        </g>
    </g>
    <g id="Guides" stroke="rgb(39, 170, 225)" stroke-width="0.5">
        <path id="Capline-S" d="M18,76 l800,0" />
        <path id="H-reference" d="M85,145.755 L87.685,145.755 L113.369,79.287 L114.052,79.287 L114.052,76 L112.148,76 L85,145.755 Z M95.693,121.536 L130.996,121.536 L130.263,119.313 L96.474,119.313 L95.693,121.536 Z M139.15,145.755 L141.787,145.755 L114.638,76 L113.466,76 L113.466,79.287 L139.15,145.755 Z" stroke="none" transform="translate(0,200)" />
        <path id="Baseline-S" d="M18,146 l800,0" />
        <path id="left-margin-Ultralight-M" d="M230,256 l0,110" />
        <path id="right-margin-Ultralight-M" d="M300,256 l0,110" />
        <path id="left-margin-Regular-M" d="M430,256 l0,110" />
        <path id="right-margin-Regular-M" d="M500,256 l0,110" />
        <path id="left-margin-Black-M" d="M630,256 l0,110" />
        <path id="right-margin-Black-M" d="M700,256 l0,110" />
        <path id="Capline-M" d="M18,276 l800,0" />
        <path id="Baseline-M" d="M18,346 l800,0" />
        <path id="Capline-L" d="M18,476 l800,0" />
        <path id="Baseline-L" d="M18,546 l800,0" />
    </g>
    <g id="Symbols">
        <g id="Ultralight-M" transform="translate(0,200)">
            <path d="M296.5,98.75 L249.25,98.75 C238.619,98.75 230,107.369 230,118 C230,128.631 238.619,137.25 249.25,137.25 L265,137.25 C266.933,137.25 268.5,135.683 268.5,133.75 C268.5,131.817 266.933,130.25 265,130.25 L249.25,130.25 C242.485,130.25 237,124.765 237,118 C237,111.235 242.485,105.75 249.25,105.75 L296.5,105.75 C298.433,105.75 300,104.183 300,102.25 C300,100.317 298.433,98.75 296.5,98.75 Z M298.975,99.775 L284.975,85.775 C283.608,84.408 281.392,84.408 280.025,85.775 C278.658,87.142 278.658,89.358 280.025,90.725 L294.025,104.725 C295.392,106.092 297.608,106.092 298.975,104.725 C300.342,103.358 300.342,101.142 298.975,99.775 Z M294.025,99.775 L280.025,113.775 C278.658,115.142 278.658,117.358 280.025,118.725 C281.392,120.092 283.608,120.092 284.975,118.725 L298.975,104.725 C300.342,103.358 300.342,101.142 298.975,99.775 C297.608,98.408 295.392,98.408 294.025,99.775 Z" />
        </g>
        <g id="Regular-M" transform="translate(0,200)">
            <path d="M496.5,98.75 L449.25,98.75 C438.619,98.75 430,107.369 430,118 C430,128.631 438.619,137.25 449.25,137.25 L465,137.25 C466.933,137.25 468.5,135.683 468.5,133.75 C468.5,131.817 466.933,130.25 465,130.25 L449.25,130.25 C442.485,130.25 437,124.765 437,118 C437,111.235 442.484,105.75 449.25,105.75 L496.5,105.75 C498.433,105.75 500,104.183 500,102.25 C500,100.317 498.433,98.75 496.5,98.75 Z M498.975,99.775 L484.975,85.775 C483.608,84.408 481.392,84.408 480.025,85.775 C478.658,87.142 478.658,89.358 480.025,90.725 L494.025,104.725 C495.392,106.092 497.608,106.092 498.975,104.725 C500.342,103.358 500.342,101.142 498.975,99.775 Z M494.025,99.775 L480.025,113.775 C478.658,115.142 478.658,117.358 480.025,118.725 C481.392,120.092 483.608,120.092 484.975,118.725 L498.975,104.725 C500.342,103.358 500.342,101.142 498.975,99.775 C497.608,98.408 495.392,98.408 494.025,99.775 Z" />
        </g>
        <g id="Black-M" transform="translate(0,200)">
            <path d="M696.5,98.75 L649.25,98.75 C638.619,98.75 630,107.369 630,118 C630,128.631 638.619,137.25 649.25,137.25 L665,137.25 C666.933,137.25 668.5,135.683 668.5,133.75 C668.5,131.817 666.933,130.25 665,130.25 L649.25,130.25 C642.484,130.25 637,124.765 637,118 C637,111.235 642.484,105.75 649.25,105.75 L696.5,105.75 C698.433,105.75 700,104.183 700,102.25 C700,100.317 698.433,98.75 696.5,98.75 Z M698.975,99.775 L684.975,85.775 C683.608,84.408 681.392,84.408 680.025,85.775 C678.658,87.142 678.658,89.358 680.025,90.725 L694.025,104.725 C695.392,106.092 697.608,106.092 698.975,104.725 C700.342,103.358 700.342,101.142 698.975,99.775 Z M694.025,99.775 L680.025,113.775 C678.658,115.142 678.658,117.358 680.025,118.725 C681.392,120.092 683.608,120.092 684.975,118.725 L698.975,104.725 C700.342,103.358 700.342,101.142 698.975,99.775 C697.608,98.408 695.392,98.408 694.025,99.775 Z" />
        </g>
    </g>
</svg>