<?xml version="1.0" encoding="UTF-8"?>
<svg height="600" width="800" xmlns="http://www.w3.org/2000/svg" xmlns:xlink="http://www.w3.org/1999/xlink">
    <g id="Notes" font-family="LucidaGrande, 'Lucida Grande', sans-serif" font-size="13">
        <rect fill="white" height="600.0" width="800.0" x="0.0" y="0.0" />
        <g font-size="13">
            <text x="18.0" y="176.0">Small</text>
            <text x="18.0" y="376.0">Medium</text>
            <text x="18.0" y="576.0">Large</text>
        </g>
        <g font-size="9">
            <text x="250.0" y="30.0">Ultralight</text>
            <text x="450.0" y="30.0">Regular</text>
            <text x="650.0" y="30.0">Black</text>
            <text id="template-version" fill="#505050" text-anchor="end" x="785.0" y="575.0">Template v.3.0</text>
            <a href="https://github.com/swhitty/SwiftDraw">
                <text fill="#505050" text-anchor="end" x="785.0" y="590.0">https://github.com/swhitty/SwiftDraw</text>
            </a>
        </g>
    </g>
    <g id="Guides" stroke="rgb(39, 170, 225)" stroke-width="0.5">
        <path id="Capline-S" d="M18,76 l800,0" />
        <path id="H-reference" d="M85,145.755 L87.685,145.755 L113.369,79.287 L114.052,79.287 L114.052,76 L112.148,76 L85,145.755 Z M95.693,121.536 L130.996,121.536 L130.263,119.313 L96.474,119.313 L95.693,121.536 Z M139.15,145.755 L141.787,145.755 L114.638,76 L113.466,76 L113.466,79.287 L139.15,145.755 Z" stroke="none" transform="translate(0,200)" />
        <path id="Baseline-S" d="M18,146 l800,0" />
        <path id="left-margin-Ultralight-M" d="M230,256 l0,110" />
        <path id="right-margin-Ultralight-M" d="M300,256 l0,110" />
        <path id="left-margin-Regular-M" d="M430,256 l0,110" />
        <path id="right-margin-Regular-M" d="M500,256 l0,110" />
        <path id="left-margin-Black-M" d="M630,256 l0,110" />
        <path id="right-margin-Black-M" d="M700,256 l0,110" />
        <path id="Capline-M" d="M18,276 l800,0" />
        <path id="Baseline-M" d="M18,346 l800,0" />
        <path id="Capline-L" d="M18,476 l800,0" />
        <path id="Baseline-L" d="M18,546 l800,0" />
    </g>
    <g id="Symbols">
        <g id="Ultralight-M" transform="translate(0,200)">
            <path d="M269.847,115.86 L260.124,106.136 C258.858,104.871 256.806,104.871 255.54,106.136 C254.274,107.402 254.274,109.454 255.54,110.72 L265.264,120.444 C266.529,121.709 268.582,121.709 269.847,120.444 C271.113,119.178 271.113,117.126 269.847,115.86 Z M277.312,84.119 L277.312,79.257 C277.312,77.467 275.86,76.016 274.07,76.016 C272.28,76.016 270.829,77.467 270.829,79.257 L270.829,84.119 C270.829,85.909 272.28,87.36 274.07,87.36 C275.86,87.36 277.312,85.909 277.312,84.119 Z M289.133,91.467 L292.568,88.032 C293.834,86.766 293.834,84.714 292.568,83.448 C291.302,82.182 289.25,82.182 287.985,83.448 L284.549,86.884 C283.283,88.149 283.283,90.202 284.549,91.467 C285.815,92.733 287.867,92.733 289.133,91.467 Z M284.549,117.202 L287.985,120.638 C289.25,121.904 291.302,121.904 292.568,120.638 C293.834,119.372 293.834,117.32 292.568,116.054 L289.133,112.619 C287.867,111.353 285.815,111.353 284.549,112.619 C283.283,113.885 283.283,115.937 284.549,117.202 Z M263.397,86.884 L259.962,83.448 C258.696,82.182 256.644,82.182 255.378,83.448 C254.112,84.714 254.112,86.766 255.378,88.032 L258.814,91.467 C260.079,92.733 262.132,92.733 263.397,91.467 C264.663,90.202 264.663,88.149 263.397,86.884 Z M291.897,105.187 L296.759,105.187 C298.549,105.187 300,103.736 300,101.946 C300,100.156 298.549,98.705 296.759,98.705 L291.897,98.705 C290.107,98.705 288.656,100.156 288.656,101.946 C288.656,103.736 290.107,105.187 291.897,105.187 Z M247.584,142.707 L277.526,112.765 C279.29,111.001 279.708,110.532 280.203,109.504 C280.312,109.278 280.405,109.047 280.482,108.81 C280.905,107.509 280.905,106.106 280.482,104.805 C280.405,104.568 280.312,104.337 280.203,104.111 C279.708,103.083 279.29,102.614 277.526,100.85 L275.139,98.459 C273.358,96.684 272.898,96.274 271.87,95.779 C271.645,95.671 271.415,95.579 271.178,95.502 C269.877,95.079 268.475,95.079 267.173,95.502 C266.937,95.579 266.706,95.672 266.48,95.781 C265.451,96.276 264.983,96.694 263.219,98.458 L233.273,128.403 C231.509,130.168 231.091,130.636 230.596,131.665 C230.487,131.89 230.394,132.121 230.317,132.359 C229.894,133.66 229.894,135.062 230.317,136.364 C230.394,136.601 230.487,136.832 230.596,137.057 C231.091,138.086 231.509,138.554 233.273,140.319 L235.665,142.711 C237.429,144.475 237.898,144.893 238.926,145.388 C239.152,145.497 239.383,145.59 239.621,145.667 C240.922,146.09 242.324,146.09 243.626,145.667 C243.862,145.59 244.093,145.497 244.319,145.388 C245.348,144.893 245.816,144.475 247.58,142.711 L247.588,142.703 Z M242.996,138.128 L242.992,138.131 C241.901,139.223 241.572,139.516 241.506,139.548 C241.54,139.531 241.58,139.515 241.624,139.501 C241.623,139.501 241.623,139.501 241.623,139.501 C241.665,139.515 241.705,139.531 241.739,139.548 C241.674,139.516 241.344,139.223 240.249,138.127 L237.857,135.735 C236.761,134.639 236.468,134.31 236.436,134.244 C236.453,134.279 236.469,134.319 236.483,134.362 C236.482,134.361 236.482,134.361 236.482,134.361 C236.469,134.404 236.453,134.443 236.436,134.478 C236.468,134.412 236.761,134.083 237.857,132.987 L267.802,103.042 C268.898,101.946 269.227,101.652 269.293,101.621 C269.259,101.637 269.219,101.653 269.175,101.668 C269.176,101.667 269.176,101.667 269.176,101.667 C269.134,101.654 269.094,101.638 269.06,101.621 C269.125,101.653 269.453,101.944 270.556,103.045 L272.941,105.432 C274.038,106.529 274.331,106.859 274.363,106.924 C274.346,106.89 274.33,106.85 274.316,106.807 C274.317,106.808 274.317,106.808 274.317,106.808 C274.33,106.765 274.346,106.725 274.363,106.691 C274.331,106.756 274.038,107.086 272.942,108.182 L243,138.124 Z" />
        </g>
        <g id="Regular-M" transform="translate(0,200)">
            <path d="M469.847,115.86 L460.124,106.136 C458.858,104.871 456.806,104.871 455.54,106.136 C454.274,107.402 454.274,109.454 455.54,110.72 L465.264,120.444 C466.529,121.709 468.582,121.709 469.847,120.444 C471.113,119.178 471.113,117.126 469.847,115.86 Z M477.312,84.119 L477.312,79.257 C477.312,77.467 475.86,76.016 474.07,76.016 C472.28,76.016 470.829,77.467 470.829,79.257 L470.829,84.119 C470.829,85.909 472.28,87.36 474.07,87.36 C475.86,87.36 477.312,85.909 477.312,84.119 Z M489.133,91.467 L492.568,88.032 C493.834,86.766 493.834,84.714 492.568,83.448 C491.302,82.182 489.25,82.182 487.985,83.448 L484.549,86.884 C483.283,88.149 483.283,90.202 484.549,91.467 C485.815,92.733 487.867,92.733 489.133,91.467 Z M484.549,117.202 L487.985,120.638 C489.25,121.904 491.302,121.904 492.568,120.638 C493.834,119.372 493.834,117.32 492.568,116.054 L489.133,112.619 C487.867,111.353 485.815,111.353 484.549,112.619 C483.283,113.885 483.283,115.937 484.549,117.202 Z M463.397,86.884 L459.962,83.448 C458.696,82.182 456.644,82.182 455.378,83.448 C454.112,84.714 454.112,86.766 455.378,88.032 L458.814,91.467 C460.079,92.733 462.132,92.733 463.397,91.467 C464.663,90.202 464.663,88.149 463.397,86.884 Z M491.897,105.187 L496.759,105.187 C498.549,105.187 500,103.736 500,101.946 C500,100.156 498.549,98.705 496.759,98.705 L491.897,98.705 C490.107,98.705 488.656,100.156 488.656,101.946 C488.656,103.736 490.107,105.187 491.897,105.187 Z M447.584,142.707 L477.526,112.765 C479.29,111.001 479.708,110.532 480.203,109.504 C480.312,109.278 480.405,109.047 480.482,108.81 C480.905,107.509 480.905,106.106 480.482,104.805 C480.405,104.568 480.312,104.337 480.203,104.111 C479.708,103.083 479.29,102.614 477.526,100.85 L475.139,98.459 C473.358,96.684 472.898,96.274 471.87,95.779 C471.645,95.671 471.415,95.579 471.178,95.502 C469.877,95.079 468.475,95.079 467.173,95.502 C466.937,95.579 466.706,95.672 466.48,95.781 C465.451,96.276 464.983,96.694 463.219,98.458 L433.273,128.403 C431.509,130.168 431.091,130.636 430.596,131.665 C430.487,131.89 430.394,132.121 430.317,132.359 C429.894,133.66 429.894,135.062 430.317,136.364 C430.394,136.601 430.487,136.832 430.596,137.057 C431.091,138.086 431.509,138.554 433.273,140.319 L435.665,142.711 C437.429,144.475 437.898,144.893 438.926,145.388 C439.152,145.497 439.383,145.59 439.621,145.667 C440.922,146.09 442.324,146.09 443.626,145.667 C443.862,145.59 444.093,145.497 444.319,145.388 C445.348,144.893 445.816,144.475 447.58,142.711 L447.588,142.703 Z M442.996,138.128 L442.992,138.131 C441.901,139.223 441.572,139.516 441.506,139.548 C441.54,139.531 441.58,139.515 441.624,139.501 C441.623,139.501 441.623,139.501 441.623,139.501 C441.665,139.515 441.705,139.531 441.739,139.548 C441.674,139.516 441.344,139.223 440.249,138.127 L437.857,135.735 C436.761,134.639 436.468,134.31 436.436,134.244 C436.453,134.279 436.469,134.319 436.483,134.362 C436.482,134.361 436.482,134.361 436.482,134.361 C436.469,134.404 436.453,134.443 436.436,134.478 C436.468,134.412 436.761,134.083 437.857,132.987 L467.802,103.042 C468.898,101.946 469.227,101.652 469.293,101.621 C469.259,101.637 469.219,101.653 469.175,101.668 C469.176,101.667 469.176,101.667 469.176,101.667 C469.134,101.654 469.094,101.638 469.06,101.621 C469.125,101.653 469.453,101.944 470.556,103.045 L472.941,105.432 C474.038,106.529 474.331,106.859 474.363,106.924 C474.346,106.89 474.33,106.85 474.316,106.807 C474.317,106.808 474.317,106.808 474.317,106.808 C474.33,106.765 474.346,106.725 474.363,106.691 C474.331,106.756 474.038,107.086 472.942,108.182 L443,138.124 Z" />
        </g>
        <g id="Black-M" transform="translate(0,200)">
            <path d="M669.847,115.86 L660.124,106.136 C658.858,104.871 656.806,104.871 655.54,106.136 C654.274,107.402 654.274,109.454 655.54,110.72 L665.264,120.444 C666.529,121.709 668.582,121.709 669.847,120.444 C671.113,119.178 671.113,117.126 669.847,115.86 Z M677.312,84.119 L677.312,79.257 C677.312,77.467 675.86,76.016 674.07,76.016 C672.28,76.016 670.829,77.467 670.829,79.257 L670.829,84.119 C670.829,85.909 672.28,87.36 674.07,87.36 C675.86,87.36 677.312,85.909 677.312,84.119 Z M689.133,91.467 L692.568,88.032 C693.834,86.766 693.834,84.714 692.568,83.448 C691.302,82.182 689.25,82.182 687.984,83.448 L684.549,86.884 C683.283,88.149 683.283,90.202 684.549,91.467 C685.815,92.733 687.867,92.733 689.133,91.467 Z M684.549,117.202 L687.984,120.638 C689.25,121.904 691.302,121.904 692.568,120.638 C693.834,119.372 693.834,117.32 692.568,116.054 L689.133,112.619 C687.867,111.353 685.815,111.353 684.549,112.619 C683.283,113.885 683.283,115.937 684.549,117.202 Z M663.397,86.884 L659.962,83.448 C658.696,82.182 656.644,82.182 655.378,83.448 C654.112,84.714 654.112,86.766 655.378,88.032 L658.814,91.467 C660.079,92.733 662.132,92.733 663.397,91.467 C664.663,90.202 664.663,88.149 663.397,86.884 Z M691.897,105.187 L696.759,105.187 C698.549,105.187 700,103.736 700,101.946 C700,100.156 698.549,98.705 696.759,98.705 L691.897,98.705 C690.107,98.705 688.656,100.156 688.656,101.946 C688.656,103.736 690.107,105.187 691.897,105.187 Z M647.584,142.707 L677.526,112.765 C679.29,111.001 679.708,110.532 680.203,109.504 C680.312,109.278 680.405,109.047 680.482,108.81 C680.905,107.509 680.905,106.106 680.482,104.805 C680.405,104.568 680.312,104.337 680.203,104.111 C679.708,103.083 679.29,102.614 677.526,100.85 L675.139,98.459 C673.358,96.684 672.898,96.274 671.87,95.779 C671.645,95.671 671.415,95.579 671.178,95.502 C669.877,95.079 668.475,95.079 667.173,95.502 C666.937,95.579 666.706,95.672 666.48,95.781 C665.451,96.276 664.983,96.694 663.219,98.458 L633.273,128.403 C631.509,130.168 631.091,130.636 630.596,131.665 C630.487,131.89 630.394,132.121 630.317,132.359 C629.894,133.66 629.894,135.062 630.317,136.364 C630.394,136.601 630.487,136.832 630.596,137.057 C631.091,138.086 631.509,138.554 633.273,140.319 L635.665,142.711 C637.429,144.475 637.898,144.893 638.926,145.388 C639.152,145.497 639.383,145.59 639.621,145.667 C640.922,146.09 642.324,146.09 643.626,145.667 C643.862,145.59 644.093,145.497 644.319,145.388 C645.348,144.893 645.816,144.475 647.58,142.711 L647.588,142.703 Z M642.996,138.128 L642.992,138.131 C641.901,139.223 641.572,139.516 641.506,139.548 C641.54,139.531 641.58,139.515 641.624,139.501 C641.623,139.501 641.623,139.501 641.623,139.501 C641.665,139.515 641.705,139.531 641.739,139.548 C641.674,139.516 641.344,139.223 640.249,138.127 L637.857,135.735 C636.761,134.639 636.468,134.31 636.436,134.244 C636.453,134.279 636.469,134.319 636.483,134.362 C636.482,134.361 636.482,134.361 636.482,134.361 C636.469,134.404 636.453,134.443 636.436,134.478 C636.468,134.412 636.761,134.083 637.857,132.987 L667.802,103.042 C668.898,101.946 669.227,101.652 669.293,101.621 C669.259,101.637 669.219,101.653 669.175,101.668 C669.176,101.667 669.176,101.667 669.176,101.667 C669.134,101.654 669.094,101.638 669.06,101.621 C669.125,101.653 669.453,101.944 670.556,103.045 L672.941,105.432 C674.038,106.529 674.331,106.859 674.363,106.924 C674.346,106.89 674.33,106.85 674.316,106.807 C674.317,106.808 674.317,106.808 674.317,106.808 C674.33,106.765 674.346,106.725 674.363,106.691 C674.331,106.756 674.038,107.086 672.942,108.182 L643,138.124 Z" />
        </g>
    </g>
</svg>