<?xml version="1.0" encoding="UTF-8"?>
<svg height="600" width="800" xmlns="http://www.w3.org/2000/svg" xmlns:xlink="http://www.w3.org/1999/xlink">
    <g id="Notes" font-family="LucidaGrande, 'Lucida Grande', sans-serif" font-size="13">
        <rect fill="white" height="600.0" width="800.0" x="0.0" y="0.0" />
        <g font-size="13">
            <text x="18.0" y="176.0">Small</text>
            <text x="18.0" y="376.0">Medium</text>
            <text x="18.0" y="576.0">Large</text>
        </g>
        <g font-size="9">
            <text x="250.0" y="30.0">Ultralight</text>
            <text x="450.0" y="30.0">Regular</text>
            <text x="650.0" y="30.0">Black</text>
            <text id="template-version" fill="#505050" text-anchor="end" x="785.0" y="575.0">Template v.3.0</text>
            <a href="https://github.com/swhitty/SwiftDraw">
                <text fill="#505050" text-anchor="end" x="785.0" y="590.0">https://github.com/swhitty/SwiftDraw</text>
            </a>
        </g>
    </g>
    <g id="Guides" stroke="rgb(39, 170, 225)" stroke-width="0.5">
        <path id="Capline-S" d="M18,76 l800,0" />
        <path id="H-reference" d="M85,145.755 L87.685,145.755 L113.369,79.287 L114.052,79.287 L114.052,76 L112.148,76 L85,145.755 Z M95.693,121.536 L130.996,121.536 L130.263,119.313 L96.474,119.313 L95.693,121.536 Z M139.15,145.755 L141.787,145.755 L114.638,76 L113.466,76 L113.466,79.287 L139.15,145.755 Z" stroke="none" transform="translate(0,200)" />
        <path id="Baseline-S" d="M18,146 l800,0" />
        <path id="left-margin-Ultralight-M" d="M221,256 l0,110" />
        <path id="right-margin-Ultralight-M" d="M309,256 l0,110" />
        <path id="left-margin-Regular-M" d="M421,256 l0,110" />
        <path id="right-margin-Regular-M" d="M509,256 l0,110" />
        <path id="left-margin-Black-M" d="M621,256 l0,110" />
        <path id="right-margin-Black-M" d="M709,256 l0,110" />
        <path id="Capline-M" d="M18,276 l800,0" />
        <path id="Baseline-M" d="M18,346 l800,0" />
        <path id="Capline-L" d="M18,476 l800,0" />
        <path id="Baseline-L" d="M18,546 l800,0" />
    </g>
    <g id="Symbols">
        <g id="Ultralight-M" transform="translate(0,200)">
            <path d="M256.2,89 L255.76,89 C250.698,89 249.495,89.098 247.805,89.959 C246.149,90.803 244.803,92.149 243.959,93.805 C243.098,95.495 243,96.698 243,101.76 L243,102.2 C243,103.415 243.985,104.4 245.2,104.4 C246.415,104.4 247.4,103.415 247.4,102.2 L247.4,101.76 C247.4,97.582 247.482,96.584 247.88,95.802 C248.301,94.975 248.975,94.301 249.802,93.88 C250.584,93.482 251.582,93.4 255.76,93.4 L256.2,93.4 C257.415,93.4 258.4,92.415 258.4,91.2 C258.4,89.985 257.415,89 256.2,89 Z M256.2,128.6 L255.76,128.6 C251.582,128.6 250.584,128.518 249.802,128.12 C248.975,127.699 248.301,127.025 247.88,126.198 C247.482,125.416 247.4,124.418 247.4,120.24 L247.4,119.8 C247.4,118.585 246.415,117.6 245.2,117.6 C243.985,117.6 243,118.585 243,119.8 L243,120.24 C243,125.302 243.098,126.505 243.959,128.195 C244.803,129.851 246.149,131.197 247.805,132.041 C249.495,132.902 250.698,133 255.76,133 L256.2,133 C257.415,133 258.4,132.015 258.4,130.8 C258.4,129.585 257.415,128.6 256.2,128.6 Z M287,102.2 L287,101.76 C287,96.698 286.902,95.495 286.041,93.805 C285.197,92.149 283.851,90.803 282.195,89.959 C280.505,89.098 279.302,89 274.24,89 L273.8,89 C272.585,89 271.6,89.985 271.6,91.2 C271.6,92.415 272.585,93.4 273.8,93.4 L274.24,93.4 C278.418,93.4 279.416,93.482 280.198,93.88 C281.025,94.301 281.699,94.975 282.12,95.802 C282.518,96.584 282.6,97.582 282.6,101.76 L282.6,102.2 C282.6,103.415 283.585,104.4 284.8,104.4 C286.015,104.4 287,103.415 287,102.2 Z M282.6,119.8 L282.6,120.24 C282.6,124.418 282.518,125.416 282.12,126.198 C281.699,127.025 281.025,127.699 280.198,128.12 C279.416,128.518 278.418,128.6 274.24,128.6 L273.8,128.6 C272.585,128.6 271.6,129.585 271.6,130.8 C271.6,132.015 272.585,133 273.8,133 L274.24,133 C279.302,133 280.505,132.902 282.195,132.041 C283.851,131.197 285.197,129.851 286.041,128.195 C286.902,126.505 287,125.302 287,120.24 L287,119.8 C287,118.585 286.015,117.6 284.8,117.6 C283.585,117.6 282.6,118.585 282.6,119.8 Z M252.9,102.2 L252.9,105.5 C252.9,106.715 253.885,107.7 255.1,107.7 C256.315,107.7 257.3,106.715 257.3,105.5 L257.3,102.2 C257.3,100.985 256.315,100 255.1,100 C253.885,100 252.9,100.985 252.9,102.2 Z M272.7,102.2 L272.7,105.5 C272.7,106.715 273.685,107.7 274.9,107.7 C276.115,107.7 277.1,106.715 277.1,105.5 L277.1,102.2 C277.1,100.985 276.115,100 274.9,100 C273.685,100 272.7,100.985 272.7,102.2 Z M262.8,114.52 C265.775,114.52 268.3,111.995 268.3,109.02 L268.3,102.2 C268.3,100.985 267.315,100 266.1,100 C264.885,100 263.9,100.985 263.9,102.2 L263.9,109.02 C263.9,109.565 263.345,110.12 262.8,110.12 C261.585,110.12 260.6,111.105 260.6,112.32 C260.6,113.535 261.585,114.52 262.8,114.52 Z M270.484,116.484 C267.384,119.585 262.396,119.585 259.296,116.484 C258.436,115.625 257.044,115.625 256.184,116.484 C255.325,117.344 255.325,118.736 256.184,119.596 C261.004,124.415 268.776,124.415 273.596,119.596 C274.455,118.736 274.455,117.344 273.596,116.484 C272.736,115.625 271.344,115.625 270.484,116.484 Z" />
        </g>
        <g id="Regular-M" transform="translate(0,200)">
            <path d="M456.2,89 L455.76,89 C450.698,89 449.495,89.098 447.805,89.959 C446.149,90.803 444.803,92.149 443.959,93.805 C443.098,95.495 443,96.698 443,101.76 L443,102.2 C443,103.415 443.985,104.4 445.2,104.4 C446.415,104.4 447.4,103.415 447.4,102.2 L447.4,101.76 C447.4,97.582 447.482,96.584 447.88,95.802 C448.301,94.975 448.975,94.301 449.802,93.88 C450.584,93.482 451.582,93.4 455.76,93.4 L456.2,93.4 C457.415,93.4 458.4,92.415 458.4,91.2 C458.4,89.985 457.415,89 456.2,89 Z M456.2,128.6 L455.76,128.6 C451.582,128.6 450.584,128.518 449.802,128.12 C448.975,127.699 448.301,127.025 447.88,126.198 C447.482,125.416 447.4,124.418 447.4,120.24 L447.4,119.8 C447.4,118.585 446.415,117.6 445.2,117.6 C443.985,117.6 443,118.585 443,119.8 L443,120.24 C443,125.302 443.098,126.505 443.959,128.195 C444.803,129.851 446.149,131.197 447.805,132.041 C449.495,132.902 450.698,133 455.76,133 L456.2,133 C457.415,133 458.4,132.015 458.4,130.8 C458.4,129.585 457.415,128.6 456.2,128.6 Z M487,102.2 L487,101.76 C487,96.698 486.902,95.495 486.041,93.805 C485.197,92.149 483.851,90.803 482.195,89.959 C480.505,89.098 479.302,89 474.24,89 L473.8,89 C472.585,89 471.6,89.985 471.6,91.2 C471.6,92.415 472.585,93.4 473.8,93.4 L474.24,93.4 C478.418,93.4 479.416,93.482 480.198,93.88 C481.025,94.301 481.699,94.975 482.12,95.802 C482.518,96.584 482.6,97.582 482.6,101.76 L482.6,102.2 C482.6,103.415 483.585,104.4 484.8,104.4 C486.015,104.4 487,103.415 487,102.2 Z M482.6,119.8 L482.6,120.24 C482.6,124.418 482.518,125.416 482.12,126.198 C481.699,127.025 481.025,127.699 480.198,128.12 C479.416,128.518 478.418,128.6 474.24,128.6 L473.8,128.6 C472.585,128.6 471.6,129.585 471.6,130.8 C471.6,132.015 472.585,133 473.8,133 L474.24,133 C479.302,133 480.505,132.902 482.195,132.041 C483.851,131.197 485.197,129.851 486.041,128.195 C486.902,126.505 487,125.302 487,120.24 L487,119.8 C487,118.585 486.015,117.6 484.8,117.6 C483.585,117.6 482.6,118.585 482.6,119.8 Z M452.9,102.2 L452.9,105.5 C452.9,106.715 453.885,107.7 455.1,107.7 C456.315,107.7 457.3,106.715 457.3,105.5 L457.3,102.2 C457.3,100.985 456.315,100 455.1,100 C453.885,100 452.9,100.985 452.9,102.2 Z M472.7,102.2 L472.7,105.5 C472.7,106.715 473.685,107.7 474.9,107.7 C476.115,107.7 477.1,106.715 477.1,105.5 L477.1,102.2 C477.1,100.985 476.115,100 474.9,100 C473.685,100 472.7,100.985 472.7,102.2 Z M462.8,114.52 C465.775,114.52 468.3,111.995 468.3,109.02 L468.3,102.2 C468.3,100.985 467.315,100 466.1,100 C464.885,100 463.9,100.985 463.9,102.2 L463.9,109.02 C463.9,109.565 463.345,110.12 462.8,110.12 C461.585,110.12 460.6,111.105 460.6,112.32 C460.6,113.535 461.585,114.52 462.8,114.52 Z M470.484,116.484 C467.384,119.585 462.396,119.585 459.296,116.484 C458.436,115.625 457.044,115.625 456.184,116.484 C455.325,117.344 455.325,118.736 456.184,119.596 C461.004,124.415 468.776,124.415 473.596,119.596 C474.455,118.736 474.455,117.344 473.596,116.484 C472.736,115.625 471.344,115.625 470.484,116.484 Z" />
        </g>
        <g id="Black-M" transform="translate(0,200)">
            <path d="M656.2,89 L655.76,89 C650.698,89 649.495,89.098 647.805,89.959 C646.149,90.803 644.803,92.149 643.959,93.805 C643.098,95.495 643,96.698 643,101.76 L643,102.2 C643,103.415 643.985,104.4 645.2,104.4 C646.415,104.4 647.4,103.415 647.4,102.2 L647.4,101.76 C647.4,97.582 647.482,96.584 647.88,95.802 C648.301,94.975 648.974,94.301 649.802,93.88 C650.584,93.482 651.582,93.4 655.76,93.4 L656.2,93.4 C657.415,93.4 658.4,92.415 658.4,91.2 C658.4,89.985 657.415,89 656.2,89 Z M656.2,128.6 L655.76,128.6 C651.582,128.6 650.584,128.518 649.802,128.12 C648.974,127.699 648.301,127.025 647.88,126.198 C647.482,125.416 647.4,124.418 647.4,120.24 L647.4,119.8 C647.4,118.585 646.415,117.6 645.2,117.6 C643.985,117.6 643,118.585 643,119.8 L643,120.24 C643,125.302 643.098,126.505 643.959,128.195 C644.803,129.851 646.149,131.197 647.805,132.041 C649.495,132.902 650.698,133 655.76,133 L656.2,133 C657.415,133 658.4,132.015 658.4,130.8 C658.4,129.585 657.415,128.6 656.2,128.6 Z M687,102.2 L687,101.76 C687,96.698 686.902,95.495 686.041,93.805 C685.197,92.149 683.851,90.803 682.195,89.959 C680.505,89.098 679.302,89 674.24,89 L673.8,89 C672.585,89 671.6,89.985 671.6,91.2 C671.6,92.415 672.585,93.4 673.8,93.4 L674.24,93.4 C678.418,93.4 679.416,93.482 680.198,93.88 C681.025,94.301 681.699,94.975 682.12,95.802 C682.518,96.584 682.6,97.582 682.6,101.76 L682.6,102.2 C682.6,103.415 683.585,104.4 684.8,104.4 C686.015,104.4 687,103.415 687,102.2 Z M682.6,119.8 L682.6,120.24 C682.6,124.418 682.518,125.416 682.12,126.198 C681.699,127.025 681.025,127.699 680.198,128.12 C679.416,128.518 678.418,128.6 674.24,128.6 L673.8,128.6 C672.585,128.6 671.6,129.585 671.6,130.8 C671.6,132.015 672.585,133 673.8,133 L674.24,133 C679.302,133 680.505,132.902 682.195,132.041 C683.851,131.197 685.197,129.851 686.041,128.195 C686.902,126.505 687,125.302 687,120.24 L687,119.8 C687,118.585 686.015,117.6 684.8,117.6 C683.585,117.6 682.6,118.585 682.6,119.8 Z M652.9,102.2 L652.9,105.5 C652.9,106.715 653.885,107.7 655.1,107.7 C656.315,107.7 657.3,106.715 657.3,105.5 L657.3,102.2 C657.3,100.985 656.315,100 655.1,100 C653.885,100 652.9,100.985 652.9,102.2 Z M672.7,102.2 L672.7,105.5 C672.7,106.715 673.685,107.7 674.9,107.7 C676.115,107.7 677.1,106.715 677.1,105.5 L677.1,102.2 C677.1,100.985 676.115,100 674.9,100 C673.685,100 672.7,100.985 672.7,102.2 Z M662.8,114.52 C665.775,114.52 668.3,111.995 668.3,109.02 L668.3,102.2 C668.3,100.985 667.315,100 666.1,100 C664.885,100 663.9,100.985 663.9,102.2 L663.9,109.02 C663.9,109.565 663.345,110.12 662.8,110.12 C661.585,110.12 660.6,111.105 660.6,112.32 C660.6,113.535 661.585,114.52 662.8,114.52 Z M670.484,116.484 C667.383,119.585 662.396,119.585 659.296,116.484 C658.436,115.625 657.044,115.625 656.184,116.484 C655.325,117.344 655.325,118.736 656.184,119.596 C661.003,124.415 668.776,124.415 673.596,119.596 C674.455,118.736 674.455,117.344 673.596,116.484 C672.736,115.625 671.344,115.625 670.484,116.484 Z" />
        </g>
    </g>
</svg>