<?xml version="1.0" encoding="UTF-8"?>
<svg height="600" width="800" xmlns="http://www.w3.org/2000/svg" xmlns:xlink="http://www.w3.org/1999/xlink">
    <g id="Notes" font-family="LucidaGrande, 'Lucida Grande', sans-serif" font-size="13">
        <rect fill="white" height="600.0" width="800.0" x="0.0" y="0.0" />
        <g font-size="13">
            <text x="18.0" y="176.0">Small</text>
            <text x="18.0" y="376.0">Medium</text>
            <text x="18.0" y="576.0">Large</text>
        </g>
        <g font-size="9">
            <text x="250.0" y="30.0">Ultralight</text>
            <text x="450.0" y="30.0">Regular</text>
            <text x="650.0" y="30.0">Black</text>
            <text id="template-version" fill="#505050" text-anchor="end" x="785.0" y="575.0">Template v.3.0</text>
            <a href="https://github.com/swhitty/SwiftDraw">
                <text fill="#505050" text-anchor="end" x="785.0" y="590.0">https://github.com/swhitty/SwiftDraw</text>
            </a>
        </g>
    </g>
    <g id="Guides" stroke="rgb(39, 170, 225)" stroke-width="0.5">
        <path id="Capline-S" d="M18,76 l800,0" />
        <path id="H-reference" d="M85,145.755 L87.685,145.755 L113.369,79.287 L114.052,79.287 L114.052,76 L112.148,76 L85,145.755 Z M95.693,121.536 L130.996,121.536 L130.263,119.313 L96.474,119.313 L95.693,121.536 Z M139.15,145.755 L141.787,145.755 L114.638,76 L113.466,76 L113.466,79.287 L139.15,145.755 Z" stroke="none" transform="translate(0,200)" />
        <path id="Baseline-S" d="M18,146 l800,0" />
        <path id="left-margin-Ultralight-M" d="M221,256 l0,110" />
        <path id="right-margin-Ultralight-M" d="M309,256 l0,110" />
        <path id="left-margin-Regular-M" d="M421,256 l0,110" />
        <path id="right-margin-Regular-M" d="M509,256 l0,110" />
        <path id="left-margin-Black-M" d="M621,256 l0,110" />
        <path id="right-margin-Black-M" d="M709,256 l0,110" />
        <path id="Capline-M" d="M18,276 l800,0" />
        <path id="Baseline-M" d="M18,346 l800,0" />
        <path id="Capline-L" d="M18,476 l800,0" />
        <path id="Baseline-L" d="M18,546 l800,0" />
    </g>
    <g id="Symbols">
        <g id="Ultralight-M" transform="translate(0,200)">
            <path d="M269.19,129.857 L254.105,129.857 C252.948,129.857 252.01,130.795 252.01,131.952 C252.01,133.11 252.948,134.048 254.105,134.048 L269.19,134.048 C270.348,134.048 271.286,133.11 271.286,131.952 C271.286,130.795 270.348,129.857 269.19,129.857 Z M254.105,129.857 C250.126,129.857 249.175,129.779 248.431,129.4 C247.642,128.999 247.001,128.358 246.6,127.569 C246.221,126.825 246.143,125.874 246.143,121.895 C246.143,120.738 245.205,119.8 244.048,119.8 C242.89,119.8 241.952,120.738 241.952,121.895 C241.952,126.716 242.046,127.862 242.866,129.471 C243.669,131.049 244.951,132.331 246.528,133.134 C248.138,133.954 249.284,134.048 254.105,134.048 C255.262,134.048 256.2,133.11 256.2,131.952 C256.2,130.795 255.262,129.857 254.105,129.857 Z M254.105,134.048 L254.943,134.048 C259.764,134.048 260.91,133.954 262.519,133.134 C264.096,132.331 265.378,131.049 266.182,129.472 C267.002,127.862 267.095,126.716 267.095,121.895 L267.095,121.057 C267.095,116.236 267.002,115.09 266.182,113.481 C265.378,111.904 264.096,110.622 262.519,109.818 C260.91,108.998 259.764,108.905 254.943,108.905 L254.105,108.905 C249.284,108.905 248.138,108.998 246.529,109.818 C244.951,110.622 243.669,111.904 242.866,113.481 C242.046,115.09 241.952,116.236 241.952,121.057 L241.952,121.895 C241.952,123.052 242.89,123.99 244.048,123.99 C245.205,123.99 246.143,123.052 246.143,121.895 L246.143,121.057 C246.143,117.078 246.221,116.128 246.6,115.383 C247.001,114.595 247.642,113.954 248.431,113.552 C249.175,113.173 250.126,113.095 254.105,113.095 L254.943,113.095 C258.922,113.095 259.872,113.173 260.617,113.552 C261.405,113.954 262.046,114.595 262.448,115.383 C262.827,116.128 262.905,117.078 262.905,121.057 L262.905,121.895 C262.905,125.874 262.827,126.825 262.448,127.569 C262.046,128.358 261.405,128.999 260.617,129.4 C259.872,129.779 258.922,129.857 254.943,129.857 L254.105,129.857 C252.948,129.857 252.01,130.795 252.01,131.952 C252.01,133.11 252.948,134.048 254.105,134.048 Z M246.143,121.895 L246.143,106.81 C246.143,105.652 245.205,104.714 244.048,104.714 C242.89,104.714 241.952,105.652 241.952,106.81 L241.952,121.895 C241.952,123.052 242.89,123.99 244.048,123.99 C245.205,123.99 246.143,123.052 246.143,121.895 Z M260.81,92.143 L269.19,92.143 C270.348,92.143 271.286,91.205 271.286,90.048 C271.286,88.89 270.348,87.952 269.19,87.952 L260.81,87.952 C259.652,87.952 258.714,88.89 258.714,90.048 C258.714,91.205 259.652,92.143 260.81,92.143 Z M283.857,106.81 L283.857,115.19 C283.857,116.348 284.795,117.286 285.952,117.286 C287.11,117.286 288.048,116.348 288.048,115.19 L288.048,106.81 C288.048,105.652 287.11,104.714 285.952,104.714 C284.795,104.714 283.857,105.652 283.857,106.81 Z M277.571,134.048 C280.241,134.048 280.878,134.019 281.834,133.763 C284.728,132.988 286.988,130.728 287.763,127.834 C288.019,126.878 288.048,126.241 288.048,123.571 C288.048,122.414 287.11,121.476 285.952,121.476 C284.795,121.476 283.857,122.414 283.857,123.571 C283.857,125.773 283.833,126.31 283.715,126.751 C283.327,128.197 282.197,129.327 280.751,129.715 C280.31,129.833 279.773,129.857 277.571,129.857 C276.414,129.857 275.476,130.795 275.476,131.952 C275.476,133.11 276.414,134.048 277.571,134.048 Z M288.048,98.429 C288.048,95.759 288.019,95.122 287.763,94.166 C286.988,91.272 284.728,89.012 281.835,88.237 C280.878,87.981 280.241,87.952 277.571,87.952 C276.414,87.952 275.476,88.89 275.476,90.048 C275.476,91.205 276.414,92.143 277.571,92.143 C279.773,92.143 280.31,92.167 280.751,92.285 C282.197,92.673 283.327,93.803 283.715,95.249 C283.833,95.69 283.857,96.227 283.857,98.429 C283.857,99.586 284.795,100.524 285.952,100.524 C287.11,100.524 288.048,99.586 288.048,98.429 Z M252.429,87.952 C249.759,87.952 249.122,87.981 248.166,88.237 C245.272,89.012 243.012,91.272 242.237,94.166 C241.981,95.122 241.952,95.759 241.952,98.429 C241.952,99.586 242.89,100.524 244.048,100.524 C245.205,100.524 246.143,99.586 246.143,98.429 C246.143,96.227 246.167,95.69 246.285,95.249 C246.673,93.803 247.803,92.673 249.249,92.285 C249.69,92.167 250.227,92.143 252.429,92.143 C253.586,92.143 254.524,91.205 254.524,90.048 C254.524,88.89 253.586,87.952 252.429,87.952 Z" />
        </g>
        <g id="Regular-M" transform="translate(0,200)">
            <path d="M469.19,129.857 L454.105,129.857 C452.948,129.857 452.01,130.795 452.01,131.952 C452.01,133.11 452.948,134.048 454.105,134.048 L469.19,134.048 C470.348,134.048 471.286,133.11 471.286,131.952 C471.286,130.795 470.348,129.857 469.19,129.857 Z M454.105,129.857 C450.126,129.857 449.175,129.779 448.431,129.4 C447.642,128.999 447.001,128.358 446.6,127.569 C446.221,126.825 446.143,125.874 446.143,121.895 C446.143,120.738 445.205,119.8 444.048,119.8 C442.89,119.8 441.952,120.738 441.952,121.895 C441.952,126.716 442.046,127.862 442.866,129.471 C443.669,131.049 444.951,132.331 446.528,133.134 C448.138,133.954 449.284,134.048 454.105,134.048 C455.262,134.048 456.2,133.11 456.2,131.952 C456.2,130.795 455.262,129.857 454.105,129.857 Z M454.105,134.048 L454.943,134.048 C459.764,134.048 460.91,133.954 462.519,133.134 C464.096,132.331 465.378,131.049 466.182,129.472 C467.002,127.862 467.095,126.716 467.095,121.895 L467.095,121.057 C467.095,116.236 467.002,115.09 466.182,113.481 C465.378,111.904 464.096,110.622 462.519,109.818 C460.91,108.998 459.764,108.905 454.943,108.905 L454.105,108.905 C449.284,108.905 448.138,108.998 446.529,109.818 C444.951,110.622 443.669,111.904 442.866,113.481 C442.046,115.09 441.952,116.236 441.952,121.057 L441.952,121.895 C441.952,123.052 442.89,123.99 444.048,123.99 C445.205,123.99 446.143,123.052 446.143,121.895 L446.143,121.057 C446.143,117.078 446.221,116.128 446.6,115.383 C447.001,114.595 447.642,113.954 448.431,113.552 C449.175,113.173 450.126,113.095 454.105,113.095 L454.943,113.095 C458.922,113.095 459.872,113.173 460.617,113.552 C461.405,113.954 462.046,114.595 462.448,115.383 C462.827,116.128 462.905,117.078 462.905,121.057 L462.905,121.895 C462.905,125.874 462.827,126.825 462.448,127.569 C462.046,128.358 461.405,128.999 460.617,129.4 C459.872,129.779 458.922,129.857 454.943,129.857 L454.105,129.857 C452.948,129.857 452.01,130.795 452.01,131.952 C452.01,133.11 452.948,134.048 454.105,134.048 Z M446.143,121.895 L446.143,106.81 C446.143,105.652 445.205,104.714 444.048,104.714 C442.89,104.714 441.952,105.652 441.952,106.81 L441.952,121.895 C441.952,123.052 442.89,123.99 444.048,123.99 C445.205,123.99 446.143,123.052 446.143,121.895 Z M460.81,92.143 L469.19,92.143 C470.348,92.143 471.286,91.205 471.286,90.048 C471.286,88.89 470.348,87.952 469.19,87.952 L460.81,87.952 C459.652,87.952 458.714,88.89 458.714,90.048 C458.714,91.205 459.652,92.143 460.81,92.143 Z M483.857,106.81 L483.857,115.19 C483.857,116.348 484.795,117.286 485.952,117.286 C487.11,117.286 488.048,116.348 488.048,115.19 L488.048,106.81 C488.048,105.652 487.11,104.714 485.952,104.714 C484.795,104.714 483.857,105.652 483.857,106.81 Z M477.571,134.048 C480.241,134.048 480.878,134.019 481.834,133.763 C484.728,132.988 486.988,130.728 487.763,127.834 C488.019,126.878 488.048,126.241 488.048,123.571 C488.048,122.414 487.11,121.476 485.952,121.476 C484.795,121.476 483.857,122.414 483.857,123.571 C483.857,125.773 483.833,126.31 483.715,126.751 C483.327,128.197 482.197,129.327 480.751,129.715 C480.31,129.833 479.773,129.857 477.571,129.857 C476.414,129.857 475.476,130.795 475.476,131.952 C475.476,133.11 476.414,134.048 477.571,134.048 Z M488.048,98.429 C488.048,95.759 488.019,95.122 487.763,94.166 C486.988,91.272 484.728,89.012 481.835,88.237 C480.878,87.981 480.241,87.952 477.571,87.952 C476.414,87.952 475.476,88.89 475.476,90.048 C475.476,91.205 476.414,92.143 477.571,92.143 C479.773,92.143 480.31,92.167 480.751,92.285 C482.197,92.673 483.327,93.803 483.715,95.249 C483.833,95.69 483.857,96.227 483.857,98.429 C483.857,99.586 484.795,100.524 485.952,100.524 C487.11,100.524 488.048,99.586 488.048,98.429 Z M452.429,87.952 C449.759,87.952 449.122,87.981 448.166,88.237 C445.272,89.012 443.012,91.272 442.237,94.166 C441.981,95.122 441.952,95.759 441.952,98.429 C441.952,99.586 442.89,100.524 444.048,100.524 C445.205,100.524 446.143,99.586 446.143,98.429 C446.143,96.227 446.167,95.69 446.285,95.249 C446.673,93.803 447.803,92.673 449.249,92.285 C449.69,92.167 450.227,92.143 452.429,92.143 C453.586,92.143 454.524,91.205 454.524,90.048 C454.524,88.89 453.586,87.952 452.429,87.952 Z" />
        </g>
        <g id="Black-M" transform="translate(0,200)">
            <path d="M669.19,129.857 L654.105,129.857 C652.948,129.857 652.01,130.795 652.01,131.952 C652.01,133.11 652.948,134.048 654.105,134.048 L669.19,134.048 C670.348,134.048 671.286,133.11 671.286,131.952 C671.286,130.795 670.348,129.857 669.19,129.857 Z M654.105,129.857 C650.126,129.857 649.175,129.779 648.431,129.4 C647.642,128.999 647.001,128.358 646.6,127.569 C646.221,126.825 646.143,125.874 646.143,121.895 C646.143,120.738 645.205,119.8 644.048,119.8 C642.89,119.8 641.952,120.738 641.952,121.895 C641.952,126.716 642.046,127.862 642.866,129.471 C643.669,131.049 644.951,132.331 646.528,133.134 C648.138,133.954 649.284,134.048 654.105,134.048 C655.262,134.048 656.2,133.11 656.2,131.952 C656.2,130.795 655.262,129.857 654.105,129.857 Z M654.105,134.048 L654.943,134.048 C659.764,134.048 660.909,133.954 662.519,133.134 C664.096,132.331 665.378,131.049 666.182,129.472 C667.002,127.862 667.095,126.716 667.095,121.895 L667.095,121.057 C667.095,116.236 667.002,115.09 666.182,113.481 C665.378,111.904 664.096,110.622 662.519,109.818 C660.909,108.998 659.764,108.905 654.943,108.905 L654.105,108.905 C649.284,108.905 648.138,108.998 646.529,109.818 C644.951,110.622 643.669,111.904 642.866,113.481 C642.046,115.09 641.952,116.236 641.952,121.057 L641.952,121.895 C641.952,123.052 642.89,123.99 644.048,123.99 C645.205,123.99 646.143,123.052 646.143,121.895 L646.143,121.057 C646.143,117.078 646.221,116.128 646.6,115.383 C647.001,114.595 647.642,113.954 648.431,113.552 C649.175,113.173 650.126,113.095 654.105,113.095 L654.943,113.095 C658.922,113.095 659.872,113.173 660.617,113.552 C661.405,113.954 662.046,114.595 662.448,115.383 C662.827,116.128 662.905,117.078 662.905,121.057 L662.905,121.895 C662.905,125.874 662.827,126.825 662.448,127.569 C662.046,128.358 661.405,128.999 660.617,129.4 C659.872,129.779 658.922,129.857 654.943,129.857 L654.105,129.857 C652.948,129.857 652.01,130.795 652.01,131.952 C652.01,133.11 652.948,134.048 654.105,134.048 Z M646.143,121.895 L646.143,106.81 C646.143,105.652 645.205,104.714 644.048,104.714 C642.89,104.714 641.952,105.652 641.952,106.81 L641.952,121.895 C641.952,123.052 642.89,123.99 644.048,123.99 C645.205,123.99 646.143,123.052 646.143,121.895 Z M660.81,92.143 L669.19,92.143 C670.348,92.143 671.286,91.205 671.286,90.048 C671.286,88.89 670.348,87.952 669.19,87.952 L660.81,87.952 C659.652,87.952 658.714,88.89 658.714,90.048 C658.714,91.205 659.652,92.143 660.81,92.143 Z M683.857,106.81 L683.857,115.19 C683.857,116.348 684.795,117.286 685.952,117.286 C687.109,117.286 688.048,116.348 688.048,115.19 L688.048,106.81 C688.048,105.652 687.109,104.714 685.952,104.714 C684.795,104.714 683.857,105.652 683.857,106.81 Z M677.571,134.048 C680.241,134.048 680.878,134.019 681.834,133.763 C684.728,132.988 686.988,130.728 687.763,127.834 C688.019,126.878 688.048,126.241 688.048,123.571 C688.048,122.414 687.109,121.476 685.952,121.476 C684.795,121.476 683.857,122.414 683.857,123.571 C683.857,125.773 683.833,126.31 683.715,126.751 C683.327,128.197 682.197,129.327 680.751,129.715 C680.31,129.833 679.773,129.857 677.571,129.857 C676.414,129.857 675.476,130.795 675.476,131.952 C675.476,133.11 676.414,134.048 677.571,134.048 Z M688.048,98.429 C688.048,95.759 688.019,95.122 687.763,94.166 C686.988,91.272 684.728,89.012 681.834,88.237 C680.878,87.981 680.241,87.952 677.571,87.952 C676.414,87.952 675.476,88.89 675.476,90.048 C675.476,91.205 676.414,92.143 677.571,92.143 C679.773,92.143 680.31,92.167 680.751,92.285 C682.197,92.673 683.327,93.803 683.715,95.249 C683.833,95.69 683.857,96.227 683.857,98.429 C683.857,99.586 684.795,100.524 685.952,100.524 C687.109,100.524 688.048,99.586 688.048,98.429 Z M652.429,87.952 C649.759,87.952 649.122,87.981 648.166,88.237 C645.272,89.012 643.012,91.272 642.237,94.166 C641.981,95.122 641.952,95.759 641.952,98.429 C641.952,99.586 642.89,100.524 644.048,100.524 C645.205,100.524 646.143,99.586 646.143,98.429 C646.143,96.227 646.167,95.69 646.285,95.249 C646.673,93.803 647.803,92.673 649.249,92.285 C649.69,92.167 650.227,92.143 652.429,92.143 C653.586,92.143 654.524,91.205 654.524,90.048 C654.524,88.89 653.586,87.952 652.429,87.952 Z" />
        </g>
    </g>
</svg>