<?xml version="1.0" encoding="UTF-8"?>
<svg height="600" width="800" xmlns="http://www.w3.org/2000/svg" xmlns:xlink="http://www.w3.org/1999/xlink">
    <g id="Notes" font-family="LucidaGrande, 'Lucida Grande', sans-serif" font-size="13">
        <rect fill="white" height="600.0" width="800.0" x="0.0" y="0.0" />
        <g font-size="13">
            <text x="18.0" y="176.0">Small</text>
            <text x="18.0" y="376.0">Medium</text>
            <text x="18.0" y="576.0">Large</text>
        </g>
        <g font-size="9">
            <text x="250.0" y="30.0">Ultralight</text>
            <text x="450.0" y="30.0">Regular</text>
            <text x="650.0" y="30.0">Black</text>
            <text id="template-version" fill="#505050" text-anchor="end" x="785.0" y="575.0">Template v.3.0</text>
            <a href="https://github.com/swhitty/SwiftDraw">
                <text fill="#505050" text-anchor="end" x="785.0" y="590.0">https://github.com/swhitty/SwiftDraw</text>
            </a>
        </g>
    </g>
    <g id="Guides" stroke="rgb(39, 170, 225)" stroke-width="0.5">
        <path id="Capline-S" d="M18,76 l800,0" />
        <path id="H-reference" d="M85,145.755 L87.685,145.755 L113.369,79.287 L114.052,79.287 L114.052,76 L112.148,76 L85,145.755 Z M95.693,121.536 L130.996,121.536 L130.263,119.313 L96.474,119.313 L95.693,121.536 Z M139.15,145.755 L141.787,145.755 L114.638,76 L113.466,76 L113.466,79.287 L139.15,145.755 Z" stroke="none" transform="translate(0,200)" />
        <path id="Baseline-S" d="M18,146 l800,0" />
        <path id="left-margin-Ultralight-M" d="M221,256 l0,110" />
        <path id="right-margin-Ultralight-M" d="M309,256 l0,110" />
        <path id="left-margin-Regular-M" d="M421,256 l0,110" />
        <path id="right-margin-Regular-M" d="M509,256 l0,110" />
        <path id="left-margin-Black-M" d="M621,256 l0,110" />
        <path id="right-margin-Black-M" d="M709,256 l0,110" />
        <path id="Capline-M" d="M18,276 l800,0" />
        <path id="Baseline-M" d="M18,346 l800,0" />
        <path id="Capline-L" d="M18,476 l800,0" />
        <path id="Baseline-L" d="M18,546 l800,0" />
    </g>
    <g id="Symbols">
        <g id="Ultralight-M" transform="translate(0,200)">
            <path d="M281.762,106.81 L281.762,98.848 C281.762,95.493 281.697,94.697 281.077,93.48 C280.474,92.297 279.513,91.335 278.33,90.733 C277.113,90.113 276.316,90.048 272.962,90.048 L257.038,90.048 C253.684,90.048 252.887,90.113 251.67,90.733 C250.487,91.335 249.526,92.297 248.923,93.48 C248.303,94.697 248.238,95.493 248.238,98.848 L248.238,106.81 C248.238,107.967 249.176,108.905 250.333,108.905 C251.491,108.905 252.429,107.967 252.429,106.81 L252.429,98.848 C252.429,96.335 252.478,95.734 252.657,95.382 C252.858,94.988 253.178,94.667 253.573,94.466 C253.925,94.287 254.526,94.238 257.038,94.238 L272.962,94.238 C275.474,94.238 276.076,94.287 276.428,94.467 C276.822,94.667 277.142,94.988 277.343,95.382 C277.522,95.734 277.571,96.335 277.571,98.848 L277.571,106.81 C277.571,107.967 278.51,108.905 279.667,108.905 C280.824,108.905 281.762,107.967 281.762,106.81 Z M250.333,102.619 L244.048,102.619 L246.143,104.714 L246.143,102.619 C246.143,101.462 245.205,100.524 244.048,100.524 C242.89,100.524 241.952,101.462 241.952,102.619 L241.952,104.714 C241.952,105.871 242.89,106.81 244.048,106.81 L250.333,106.81 C251.491,106.81 252.429,105.871 252.429,104.714 C252.429,103.557 251.491,102.619 250.333,102.619 Z M279.667,106.81 L285.952,106.81 C287.11,106.81 288.048,105.871 288.048,104.714 L288.048,102.619 C288.048,101.462 287.11,100.524 285.952,100.524 C284.795,100.524 283.857,101.462 283.857,102.619 L283.857,104.714 L285.952,102.619 L279.667,102.619 C278.51,102.619 277.571,103.557 277.571,104.714 C277.571,105.871 278.51,106.81 279.667,106.81 Z M252.429,116.238 L252.45,116.238 C253.607,116.238 254.545,115.3 254.545,114.143 C254.545,112.986 253.607,112.048 252.45,112.048 L252.429,112.048 C251.271,112.048 250.333,112.986 250.333,114.143 C250.333,115.3 251.271,116.238 252.429,116.238 Z M277.571,116.238 L277.592,116.238 C278.75,116.238 279.688,115.3 279.688,114.143 C279.688,112.986 278.75,112.048 277.592,112.048 L277.571,112.048 C276.414,112.048 275.476,112.986 275.476,114.143 C275.476,115.3 276.414,116.238 277.571,116.238 Z M254.105,108.905 L275.895,108.905 C279.874,108.905 280.825,108.982 281.569,109.362 C282.358,109.763 282.999,110.404 283.4,111.193 C283.779,111.937 283.857,112.888 283.857,116.867 L283.857,123.571 C283.857,125.661 283.823,126.167 283.698,126.468 C283.485,126.982 283.077,127.39 282.563,127.603 C282.262,127.727 281.756,127.762 279.667,127.762 L278.41,127.762 C277.578,127.762 277.374,127.756 277.247,127.736 C276.348,127.593 275.645,126.89 275.503,125.994 C275.482,125.864 275.476,125.66 275.476,124.829 C275.476,124.441 275.474,124.357 275.438,124.129 C275.226,122.783 274.17,121.727 272.823,121.514 C272.596,121.478 272.511,121.476 272.124,121.476 L257.876,121.476 C257.489,121.476 257.404,121.478 257.176,121.514 C255.83,121.727 254.774,122.783 254.562,124.129 C254.526,124.356 254.524,124.441 254.524,124.829 C254.524,125.66 254.518,125.864 254.498,125.991 C254.355,126.89 253.652,127.593 252.756,127.735 C252.626,127.756 252.422,127.762 251.59,127.762 L250.333,127.762 C248.244,127.762 247.738,127.727 247.437,127.603 C246.923,127.39 246.515,126.982 246.302,126.468 C246.177,126.167 246.143,125.661 246.143,123.571 L246.143,116.867 C246.143,112.888 246.221,111.937 246.6,111.192 C247.001,110.404 247.642,109.763 248.431,109.362 C249.175,108.982 250.126,108.905 254.105,108.905 Z M254.105,104.714 C249.284,104.714 248.138,104.808 246.529,105.628 C244.951,106.431 243.669,107.713 242.866,109.29 C242.046,110.9 241.952,112.046 241.952,116.867 L241.952,123.571 C241.952,126.364 241.998,127.026 242.43,128.071 C243.068,129.612 244.293,130.837 245.834,131.475 C246.879,131.907 247.541,131.952 250.333,131.952 L251.59,131.952 C252.705,131.952 252.97,131.945 253.416,131.874 C256.101,131.448 258.21,129.339 258.636,126.651 C258.707,126.208 258.714,125.943 258.714,124.829 C258.714,124.728 258.715,124.694 258.701,124.782 C258.63,125.231 258.278,125.583 257.83,125.654 C257.742,125.668 257.775,125.667 257.876,125.667 L272.124,125.667 C272.225,125.667 272.258,125.668 272.17,125.654 C271.722,125.583 271.37,125.231 271.299,124.782 C271.285,124.694 271.286,124.727 271.286,124.829 C271.286,125.943 271.293,126.208 271.365,126.654 C271.79,129.339 273.899,131.448 276.587,131.874 C277.03,131.945 277.295,131.952 278.41,131.952 L279.667,131.952 C282.459,131.952 283.122,131.907 284.167,131.474 C285.707,130.837 286.932,129.612 287.57,128.071 C288.003,127.026 288.048,126.364 288.048,123.571 L288.048,116.867 C288.048,112.046 287.954,110.9 287.134,109.291 C286.331,107.713 285.049,106.431 283.472,105.628 C281.862,104.808 280.716,104.714 275.895,104.714 L254.105,104.714 Z M251.381,114.143 C251.381,113.564 251.85,113.095 252.429,113.095 C253.007,113.095 253.476,113.564 253.476,114.143 C253.476,114.721 253.007,115.19 252.429,115.19 C251.85,115.19 251.381,114.721 251.381,114.143 Z M255.571,114.143 C255.571,112.407 254.164,111 252.429,111 C250.693,111 249.286,112.407 249.286,114.143 C249.286,115.879 250.693,117.286 252.429,117.286 C254.164,117.286 255.571,115.879 255.571,114.143 Z M276.524,114.143 C276.524,113.564 276.993,113.095 277.571,113.095 C278.15,113.095 278.619,113.564 278.619,114.143 C278.619,114.721 278.15,115.19 277.571,115.19 C276.993,115.19 276.524,114.721 276.524,114.143 Z M280.714,114.143 C280.714,112.407 279.307,111 277.571,111 C275.836,111 274.429,112.407 274.429,114.143 C274.429,115.879 275.836,117.286 277.571,117.286 C279.307,117.286 280.714,115.879 280.714,114.143 Z" />
        </g>
        <g id="Regular-M" transform="translate(0,200)">
            <path d="M481.762,106.81 L481.762,98.848 C481.762,95.493 481.697,94.697 481.077,93.48 C480.474,92.297 479.513,91.335 478.33,90.733 C477.113,90.113 476.316,90.048 472.962,90.048 L457.038,90.048 C453.684,90.048 452.888,90.113 451.67,90.733 C450.487,91.335 449.526,92.297 448.923,93.48 C448.303,94.697 448.238,95.493 448.238,98.848 L448.238,106.81 C448.238,107.967 449.176,108.905 450.333,108.905 C451.491,108.905 452.429,107.967 452.429,106.81 L452.429,98.848 C452.429,96.335 452.478,95.734 452.657,95.382 C452.858,94.988 453.178,94.667 453.573,94.466 C453.924,94.287 454.526,94.238 457.038,94.238 L472.962,94.238 C475.474,94.238 476.076,94.287 476.428,94.467 C476.822,94.667 477.142,94.988 477.343,95.382 C477.522,95.734 477.571,96.335 477.571,98.848 L477.571,106.81 C477.571,107.967 478.51,108.905 479.667,108.905 C480.824,108.905 481.762,107.967 481.762,106.81 Z M450.333,102.619 L444.048,102.619 L446.143,104.714 L446.143,102.619 C446.143,101.462 445.205,100.524 444.048,100.524 C442.89,100.524 441.952,101.462 441.952,102.619 L441.952,104.714 C441.952,105.871 442.89,106.81 444.048,106.81 L450.333,106.81 C451.491,106.81 452.429,105.871 452.429,104.714 C452.429,103.557 451.491,102.619 450.333,102.619 Z M479.667,106.81 L485.952,106.81 C487.11,106.81 488.048,105.871 488.048,104.714 L488.048,102.619 C488.048,101.462 487.11,100.524 485.952,100.524 C484.795,100.524 483.857,101.462 483.857,102.619 L483.857,104.714 L485.952,102.619 L479.667,102.619 C478.51,102.619 477.571,103.557 477.571,104.714 C477.571,105.871 478.51,106.81 479.667,106.81 Z M452.429,116.238 L452.45,116.238 C453.607,116.238 454.545,115.3 454.545,114.143 C454.545,112.986 453.607,112.048 452.45,112.048 L452.429,112.048 C451.271,112.048 450.333,112.986 450.333,114.143 C450.333,115.3 451.271,116.238 452.429,116.238 Z M477.571,116.238 L477.592,116.238 C478.75,116.238 479.688,115.3 479.688,114.143 C479.688,112.986 478.75,112.048 477.592,112.048 L477.571,112.048 C476.414,112.048 475.476,112.986 475.476,114.143 C475.476,115.3 476.414,116.238 477.571,116.238 Z M454.105,108.905 L475.895,108.905 C479.874,108.905 480.825,108.982 481.569,109.362 C482.358,109.763 482.999,110.404 483.4,111.193 C483.779,111.937 483.857,112.888 483.857,116.867 L483.857,123.571 C483.857,125.661 483.823,126.167 483.698,126.468 C483.485,126.982 483.077,127.39 482.563,127.603 C482.262,127.727 481.756,127.762 479.667,127.762 L478.41,127.762 C477.578,127.762 477.374,127.756 477.247,127.736 C476.348,127.593 475.645,126.89 475.503,125.994 C475.482,125.864 475.476,125.66 475.476,124.829 C475.476,124.441 475.474,124.357 475.438,124.129 C475.226,122.783 474.17,121.727 472.823,121.514 C472.596,121.478 472.511,121.476 472.124,121.476 L457.876,121.476 C457.489,121.476 457.404,121.478 457.176,121.514 C455.83,121.727 454.774,122.783 454.562,124.129 C454.526,124.356 454.524,124.441 454.524,124.829 C454.524,125.66 454.518,125.864 454.498,125.991 C454.355,126.89 453.652,127.593 452.756,127.735 C452.626,127.756 452.422,127.762 451.59,127.762 L450.333,127.762 C448.244,127.762 447.738,127.727 447.437,127.603 C446.923,127.39 446.515,126.982 446.302,126.468 C446.177,126.167 446.143,125.661 446.143,123.571 L446.143,116.867 C446.143,112.888 446.221,111.937 446.6,111.192 C447.001,110.404 447.642,109.763 448.431,109.362 C449.175,108.982 450.126,108.905 454.105,108.905 Z M454.105,104.714 C449.284,104.714 448.138,104.808 446.529,105.628 C444.951,106.431 443.669,107.713 442.866,109.29 C442.046,110.9 441.952,112.046 441.952,116.867 L441.952,123.571 C441.952,126.364 441.997,127.026 442.43,128.071 C443.068,129.612 444.293,130.837 445.834,131.475 C446.879,131.907 447.541,131.952 450.333,131.952 L451.59,131.952 C452.705,131.952 452.97,131.945 453.416,131.874 C456.101,131.448 458.21,129.339 458.636,126.651 C458.707,126.208 458.714,125.943 458.714,124.829 C458.714,124.728 458.715,124.694 458.701,124.782 C458.63,125.231 458.278,125.583 457.83,125.654 C457.742,125.668 457.775,125.667 457.876,125.667 L472.124,125.667 C472.225,125.667 472.258,125.668 472.17,125.654 C471.722,125.583 471.37,125.231 471.299,124.782 C471.285,124.694 471.286,124.727 471.286,124.829 C471.286,125.943 471.293,126.208 471.365,126.654 C471.79,129.339 473.899,131.448 476.587,131.874 C477.03,131.945 477.295,131.952 478.41,131.952 L479.667,131.952 C482.459,131.952 483.122,131.907 484.167,131.474 C485.707,130.837 486.932,129.612 487.57,128.071 C488.003,127.026 488.048,126.364 488.048,123.571 L488.048,116.867 C488.048,112.046 487.954,110.9 487.134,109.291 C486.331,107.713 485.049,106.431 483.472,105.628 C481.862,104.808 480.716,104.714 475.895,104.714 L454.105,104.714 Z M451.381,114.143 C451.381,113.564 451.85,113.095 452.429,113.095 C453.007,113.095 453.476,113.564 453.476,114.143 C453.476,114.721 453.007,115.19 452.429,115.19 C451.85,115.19 451.381,114.721 451.381,114.143 Z M455.571,114.143 C455.571,112.407 454.164,111 452.429,111 C450.693,111 449.286,112.407 449.286,114.143 C449.286,115.879 450.693,117.286 452.429,117.286 C454.164,117.286 455.571,115.879 455.571,114.143 Z M476.524,114.143 C476.524,113.564 476.993,113.095 477.571,113.095 C478.15,113.095 478.619,113.564 478.619,114.143 C478.619,114.721 478.15,115.19 477.571,115.19 C476.993,115.19 476.524,114.721 476.524,114.143 Z M480.714,114.143 C480.714,112.407 479.307,111 477.571,111 C475.836,111 474.429,112.407 474.429,114.143 C474.429,115.879 475.836,117.286 477.571,117.286 C479.307,117.286 480.714,115.879 480.714,114.143 Z" />
        </g>
        <g id="Black-M" transform="translate(0,200)">
            <path d="M681.762,106.81 L681.762,98.848 C681.762,95.493 681.697,94.697 681.077,93.48 C680.474,92.297 679.513,91.335 678.33,90.733 C677.112,90.113 676.316,90.048 672.962,90.048 L657.038,90.048 C653.684,90.048 652.887,90.113 651.67,90.733 C650.487,91.335 649.526,92.297 648.923,93.48 C648.303,94.697 648.238,95.493 648.238,98.848 L648.238,106.81 C648.238,107.967 649.176,108.905 650.333,108.905 C651.49,108.905 652.429,107.967 652.429,106.81 L652.429,98.848 C652.429,96.335 652.478,95.734 652.657,95.382 C652.858,94.988 653.178,94.667 653.573,94.466 C653.924,94.287 654.526,94.238 657.038,94.238 L672.962,94.238 C675.474,94.238 676.075,94.287 676.428,94.467 C676.822,94.667 677.142,94.988 677.343,95.382 C677.522,95.734 677.571,96.335 677.571,98.848 L677.571,106.81 C677.571,107.967 678.509,108.905 679.667,108.905 C680.824,108.905 681.762,107.967 681.762,106.81 Z M650.333,102.619 L644.048,102.619 L646.143,104.714 L646.143,102.619 C646.143,101.462 645.205,100.524 644.048,100.524 C642.89,100.524 641.952,101.462 641.952,102.619 L641.952,104.714 C641.952,105.871 642.89,106.81 644.048,106.81 L650.333,106.81 C651.49,106.81 652.429,105.871 652.429,104.714 C652.429,103.557 651.49,102.619 650.333,102.619 Z M679.667,106.81 L685.952,106.81 C687.109,106.81 688.048,105.871 688.048,104.714 L688.048,102.619 C688.048,101.462 687.109,100.524 685.952,100.524 C684.795,100.524 683.857,101.462 683.857,102.619 L683.857,104.714 L685.952,102.619 L679.667,102.619 C678.509,102.619 677.571,103.557 677.571,104.714 C677.571,105.871 678.509,106.81 679.667,106.81 Z M652.429,116.238 L652.45,116.238 C653.607,116.238 654.545,115.3 654.545,114.143 C654.545,112.986 653.607,112.048 652.45,112.048 L652.429,112.048 C651.271,112.048 650.333,112.986 650.333,114.143 C650.333,115.3 651.271,116.238 652.429,116.238 Z M677.571,116.238 L677.592,116.238 C678.75,116.238 679.688,115.3 679.688,114.143 C679.688,112.986 678.75,112.048 677.592,112.048 L677.571,112.048 C676.414,112.048 675.476,112.986 675.476,114.143 C675.476,115.3 676.414,116.238 677.571,116.238 Z M654.105,108.905 L675.895,108.905 C679.874,108.905 680.825,108.982 681.569,109.362 C682.358,109.763 682.999,110.404 683.4,111.193 C683.779,111.937 683.857,112.888 683.857,116.867 L683.857,123.571 C683.857,125.661 683.823,126.167 683.698,126.468 C683.485,126.982 683.077,127.39 682.563,127.603 C682.262,127.727 681.756,127.762 679.667,127.762 L678.409,127.762 C677.578,127.762 677.374,127.756 677.247,127.736 C676.348,127.593 675.645,126.89 675.503,125.994 C675.482,125.864 675.476,125.66 675.476,124.829 C675.476,124.441 675.474,124.357 675.438,124.129 C675.226,122.783 674.17,121.727 672.823,121.514 C672.596,121.478 672.511,121.476 672.124,121.476 L657.876,121.476 C657.489,121.476 657.404,121.478 657.176,121.514 C655.83,121.727 654.774,122.783 654.562,124.129 C654.526,124.356 654.524,124.441 654.524,124.829 C654.524,125.66 654.518,125.864 654.498,125.991 C654.355,126.89 653.652,127.593 652.756,127.735 C652.626,127.756 652.422,127.762 651.59,127.762 L650.333,127.762 C648.244,127.762 647.738,127.727 647.437,127.603 C646.923,127.39 646.515,126.982 646.302,126.468 C646.177,126.167 646.143,125.661 646.143,123.571 L646.143,116.867 C646.143,112.888 646.221,111.937 646.6,111.192 C647.001,110.404 647.642,109.763 648.431,109.362 C649.175,108.982 650.126,108.905 654.105,108.905 Z M654.105,104.714 C649.284,104.714 648.138,104.808 646.529,105.628 C644.951,106.431 643.669,107.713 642.866,109.29 C642.046,110.9 641.952,112.046 641.952,116.867 L641.952,123.571 C641.952,126.364 641.997,127.026 642.43,128.071 C643.068,129.612 644.293,130.837 645.834,131.475 C646.878,131.907 647.541,131.952 650.333,131.952 L651.59,131.952 C652.705,131.952 652.97,131.945 653.416,131.874 C656.101,131.448 658.21,129.339 658.636,126.651 C658.707,126.208 658.714,125.943 658.714,124.829 C658.714,124.728 658.715,124.694 658.701,124.782 C658.63,125.231 658.278,125.583 657.83,125.654 C657.742,125.668 657.775,125.667 657.876,125.667 L672.124,125.667 C672.225,125.667 672.258,125.668 672.17,125.654 C671.721,125.583 671.37,125.231 671.299,124.782 C671.285,124.694 671.286,124.727 671.286,124.829 C671.286,125.943 671.293,126.208 671.364,126.654 C671.79,129.339 673.899,131.448 676.587,131.874 C677.03,131.945 677.295,131.952 678.409,131.952 L679.667,131.952 C682.459,131.952 683.121,131.907 684.167,131.474 C685.707,130.837 686.932,129.612 687.57,128.071 C688.002,127.026 688.048,126.364 688.048,123.571 L688.048,116.867 C688.048,112.046 687.954,110.9 687.134,109.291 C686.331,107.713 685.049,106.431 683.472,105.628 C681.862,104.808 680.716,104.714 675.895,104.714 L654.105,104.714 Z M651.381,114.143 C651.381,113.564 651.85,113.095 652.429,113.095 C653.007,113.095 653.476,113.564 653.476,114.143 C653.476,114.721 653.007,115.19 652.429,115.19 C651.85,115.19 651.381,114.721 651.381,114.143 Z M655.571,114.143 C655.571,112.407 654.164,111 652.429,111 C650.693,111 649.286,112.407 649.286,114.143 C649.286,115.879 650.693,117.286 652.429,117.286 C654.164,117.286 655.571,115.879 655.571,114.143 Z M676.524,114.143 C676.524,113.564 676.993,113.095 677.571,113.095 C678.15,113.095 678.619,113.564 678.619,114.143 C678.619,114.721 678.15,115.19 677.571,115.19 C676.993,115.19 676.524,114.721 676.524,114.143 Z M680.714,114.143 C680.714,112.407 679.307,111 677.571,111 C675.836,111 674.429,112.407 674.429,114.143 C674.429,115.879 675.836,117.286 677.571,117.286 C679.307,117.286 680.714,115.879 680.714,114.143 Z" />
        </g>
    </g>
</svg>