<?xml version="1.0" encoding="UTF-8"?>
<svg height="600" width="800" xmlns="http://www.w3.org/2000/svg" xmlns:xlink="http://www.w3.org/1999/xlink">
    <g id="Notes" font-family="LucidaGrande, 'Lucida Grande', sans-serif" font-size="13">
        <rect fill="white" height="600.0" width="800.0" x="0.0" y="0.0" />
        <g font-size="13">
            <text x="18.0" y="176.0">Small</text>
            <text x="18.0" y="376.0">Medium</text>
            <text x="18.0" y="576.0">Large</text>
        </g>
        <g font-size="9">
            <text x="250.0" y="30.0">Ultralight</text>
            <text x="450.0" y="30.0">Regular</text>
            <text x="650.0" y="30.0">Black</text>
            <text id="template-version" fill="#505050" text-anchor="end" x="785.0" y="575.0">Template v.3.0</text>
            <a href="https://github.com/swhitty/SwiftDraw">
                <text fill="#505050" text-anchor="end" x="785.0" y="590.0">https://github.com/swhitty/SwiftDraw</text>
            </a>
        </g>
    </g>
    <g id="Guides" stroke="rgb(39, 170, 225)" stroke-width="0.5">
        <path id="Capline-S" d="M18,76 l800,0" />
        <path id="H-reference" d="M85,145.755 L87.685,145.755 L113.369,79.287 L114.052,79.287 L114.052,76 L112.148,76 L85,145.755 Z M95.693,121.536 L130.996,121.536 L130.263,119.313 L96.474,119.313 L95.693,121.536 Z M139.15,145.755 L141.787,145.755 L114.638,76 L113.466,76 L113.466,79.287 L139.15,145.755 Z" stroke="none" transform="translate(0,200)" />
        <path id="Baseline-S" d="M18,146 l800,0" />
        <path id="left-margin-Ultralight-M" d="M230,256 l0,110" />
        <path id="right-margin-Ultralight-M" d="M300,256 l0,110" />
        <path id="left-margin-Regular-M" d="M430,256 l0,110" />
        <path id="right-margin-Regular-M" d="M500,256 l0,110" />
        <path id="left-margin-Black-M" d="M630,256 l0,110" />
        <path id="right-margin-Black-M" d="M700,256 l0,110" />
        <path id="Capline-M" d="M18,276 l800,0" />
        <path id="Baseline-M" d="M18,346 l800,0" />
        <path id="Capline-L" d="M18,476 l800,0" />
        <path id="Baseline-L" d="M18,546 l800,0" />
    </g>
    <g id="Symbols">
        <g id="Ultralight-M" transform="translate(0,200)">
            <path d="M290.455,104.636 L290.455,92.545 C290.455,87.452 290.356,86.242 289.414,84.394 C288.499,82.598 287.039,81.137 285.243,80.222 C283.394,79.281 282.185,79.182 277.091,79.182 L252.909,79.182 C247.815,79.182 246.606,79.281 244.758,80.222 C242.961,81.137 241.501,82.598 240.586,84.394 C239.644,86.242 239.545,87.452 239.545,92.545 L239.545,104.636 C239.545,106.394 240.97,107.818 242.727,107.818 C244.485,107.818 245.909,106.394 245.909,104.636 L245.909,92.545 C245.909,88.73 245.984,87.817 246.256,87.282 C246.561,86.684 247.048,86.197 247.646,85.892 C248.181,85.62 249.094,85.545 252.909,85.545 L277.091,85.545 C280.906,85.545 281.819,85.62 282.354,85.893 C282.952,86.197 283.439,86.684 283.744,87.283 C284.016,87.817 284.091,88.73 284.091,92.545 L284.091,104.636 C284.091,106.394 285.515,107.818 287.273,107.818 C289.03,107.818 290.455,106.394 290.455,104.636 Z M242.727,98.273 L233.182,98.273 L236.364,101.455 L236.364,98.273 C236.364,96.515 234.939,95.091 233.182,95.091 C231.425,95.091 230,96.515 230,98.273 L230,101.455 C230,103.212 231.425,104.636 233.182,104.636 L242.727,104.636 C244.485,104.636 245.909,103.212 245.909,101.455 C245.909,99.697 244.485,98.273 242.727,98.273 Z M287.273,104.636 L296.818,104.636 C298.575,104.636 300,103.212 300,101.455 L300,98.273 C300,96.515 298.575,95.091 296.818,95.091 C295.061,95.091 293.636,96.515 293.636,98.273 L293.636,101.455 L296.818,98.273 L287.273,98.273 C285.515,98.273 284.091,99.697 284.091,101.455 C284.091,103.212 285.515,104.636 287.273,104.636 Z M245.909,118.955 L245.941,118.955 C247.698,118.955 249.123,117.53 249.123,115.773 C249.123,114.015 247.698,112.591 245.941,112.591 L245.909,112.591 C244.152,112.591 242.727,114.015 242.727,115.773 C242.727,117.53 244.152,118.955 245.909,118.955 Z M284.091,118.955 L284.123,118.955 C285.88,118.955 287.305,117.53 287.305,115.773 C287.305,114.015 285.88,112.591 284.123,112.591 L284.091,112.591 C282.334,112.591 280.909,114.015 280.909,115.773 C280.909,117.53 282.334,118.955 284.091,118.955 Z M248.455,107.818 L281.545,107.818 C287.588,107.818 289.032,107.936 290.162,108.512 C291.359,109.122 292.333,110.095 292.943,111.293 C293.518,112.423 293.636,113.867 293.636,119.909 L293.636,130.091 C293.636,133.264 293.584,134.033 293.395,134.489 C293.072,135.27 292.452,135.89 291.672,136.213 C291.215,136.402 290.446,136.455 287.273,136.455 L285.364,136.455 C284.101,136.455 283.791,136.446 283.598,136.415 C282.233,136.198 281.165,135.131 280.949,133.77 C280.918,133.573 280.909,133.263 280.909,132 C280.909,131.412 280.906,131.283 280.851,130.937 C280.529,128.893 278.925,127.29 276.88,126.967 C276.535,126.913 276.406,126.909 275.818,126.909 L254.182,126.909 C253.594,126.909 253.465,126.913 253.119,126.967 C251.075,127.29 249.471,128.893 249.149,130.938 C249.094,131.283 249.091,131.412 249.091,132 C249.091,133.263 249.082,133.573 249.051,133.765 C248.835,135.131 247.767,136.198 246.407,136.414 C246.209,136.446 245.899,136.455 244.636,136.455 L242.727,136.455 C239.554,136.455 238.785,136.402 238.329,136.213 C237.548,135.89 236.928,135.27 236.605,134.49 C236.416,134.033 236.364,133.264 236.364,130.091 L236.364,119.909 C236.364,113.867 236.482,112.423 237.057,111.292 C237.667,110.095 238.641,109.122 239.838,108.512 C240.968,107.936 242.412,107.818 248.455,107.818 Z M248.455,101.455 C241.133,101.455 239.394,101.597 236.95,102.842 C234.554,104.062 232.607,106.009 231.387,108.404 C230.142,110.848 230,112.588 230,119.909 L230,130.091 C230,134.332 230.069,135.337 230.726,136.924 C231.694,139.264 233.554,141.124 235.894,142.093 C237.481,142.75 238.487,142.818 242.727,142.818 L244.636,142.818 C246.329,142.818 246.732,142.807 247.408,142.699 C251.486,142.052 254.688,138.85 255.336,134.767 C255.443,134.096 255.455,133.693 255.455,132 C255.455,131.847 255.456,131.796 255.435,131.93 C255.327,132.611 254.793,133.145 254.111,133.253 C253.977,133.274 254.028,133.273 254.182,133.273 L275.818,133.273 C275.972,133.273 276.023,133.274 275.888,133.253 C275.207,133.145 274.673,132.611 274.565,131.929 C274.544,131.796 274.545,131.846 274.545,132 C274.545,133.693 274.557,134.096 274.665,134.772 C275.312,138.85 278.514,142.052 282.597,142.699 C283.268,142.807 283.671,142.818 285.364,142.818 L287.273,142.818 C291.513,142.818 292.519,142.75 294.106,142.092 C296.446,141.124 298.306,139.264 299.274,136.924 C299.931,135.337 300,134.332 300,130.091 L300,119.909 C300,112.588 299.858,110.848 298.613,108.404 C297.393,106.009 295.446,104.062 293.051,102.842 C290.606,101.597 288.867,101.455 281.545,101.455 L248.455,101.455 Z M244.318,115.773 C244.318,114.894 245.03,114.182 245.909,114.182 C246.788,114.182 247.5,114.894 247.5,115.773 C247.5,116.651 246.788,117.364 245.909,117.364 C245.03,117.364 244.318,116.651 244.318,115.773 Z M250.682,115.773 C250.682,113.137 248.545,111 245.909,111 C243.273,111 241.136,113.137 241.136,115.773 C241.136,118.409 243.273,120.545 245.909,120.545 C248.545,120.545 250.682,118.409 250.682,115.773 Z M282.5,115.773 C282.5,114.894 283.212,114.182 284.091,114.182 C284.97,114.182 285.682,114.894 285.682,115.773 C285.682,116.651 284.97,117.364 284.091,117.364 C283.212,117.364 282.5,116.651 282.5,115.773 Z M288.864,115.773 C288.864,113.137 286.727,111 284.091,111 C281.455,111 279.318,113.137 279.318,115.773 C279.318,118.409 281.455,120.545 284.091,120.545 C286.727,120.545 288.864,118.409 288.864,115.773 Z" />
        </g>
        <g id="Regular-M" transform="translate(0,200)">
            <path d="M490.455,104.636 L490.455,92.545 C490.455,87.452 490.356,86.242 489.414,84.394 C488.499,82.598 487.039,81.137 485.243,80.222 C483.394,79.281 482.185,79.182 477.091,79.182 L452.909,79.182 C447.815,79.182 446.606,79.281 444.758,80.222 C442.961,81.137 441.501,82.598 440.586,84.394 C439.644,86.242 439.545,87.452 439.545,92.545 L439.545,104.636 C439.545,106.394 440.97,107.818 442.727,107.818 C444.485,107.818 445.909,106.394 445.909,104.636 L445.909,92.545 C445.909,88.73 445.984,87.817 446.256,87.282 C446.561,86.684 447.048,86.197 447.646,85.892 C448.181,85.62 449.094,85.545 452.909,85.545 L477.091,85.545 C480.906,85.545 481.819,85.62 482.354,85.893 C482.952,86.197 483.439,86.684 483.744,87.283 C484.016,87.817 484.091,88.73 484.091,92.545 L484.091,104.636 C484.091,106.394 485.515,107.818 487.273,107.818 C489.03,107.818 490.455,106.394 490.455,104.636 Z M442.727,98.273 L433.182,98.273 L436.364,101.455 L436.364,98.273 C436.364,96.515 434.939,95.091 433.182,95.091 C431.425,95.091 430,96.515 430,98.273 L430,101.455 C430,103.212 431.425,104.636 433.182,104.636 L442.727,104.636 C444.485,104.636 445.909,103.212 445.909,101.455 C445.909,99.697 444.485,98.273 442.727,98.273 Z M487.273,104.636 L496.818,104.636 C498.575,104.636 500,103.212 500,101.455 L500,98.273 C500,96.515 498.575,95.091 496.818,95.091 C495.061,95.091 493.636,96.515 493.636,98.273 L493.636,101.455 L496.818,98.273 L487.273,98.273 C485.515,98.273 484.091,99.697 484.091,101.455 C484.091,103.212 485.515,104.636 487.273,104.636 Z M445.909,118.955 L445.941,118.955 C447.698,118.955 449.123,117.53 449.123,115.773 C449.123,114.015 447.698,112.591 445.941,112.591 L445.909,112.591 C444.152,112.591 442.727,114.015 442.727,115.773 C442.727,117.53 444.152,118.955 445.909,118.955 Z M484.091,118.955 L484.123,118.955 C485.88,118.955 487.305,117.53 487.305,115.773 C487.305,114.015 485.88,112.591 484.123,112.591 L484.091,112.591 C482.334,112.591 480.909,114.015 480.909,115.773 C480.909,117.53 482.334,118.955 484.091,118.955 Z M448.455,107.818 L481.545,107.818 C487.588,107.818 489.032,107.936 490.162,108.512 C491.359,109.122 492.333,110.095 492.943,111.293 C493.518,112.423 493.636,113.867 493.636,119.909 L493.636,130.091 C493.636,133.264 493.584,134.033 493.395,134.489 C493.072,135.27 492.452,135.89 491.672,136.213 C491.215,136.402 490.446,136.455 487.273,136.455 L485.364,136.455 C484.101,136.455 483.791,136.446 483.598,136.415 C482.233,136.198 481.165,135.131 480.949,133.77 C480.918,133.573 480.909,133.263 480.909,132 C480.909,131.412 480.906,131.283 480.851,130.937 C480.529,128.893 478.925,127.29 476.88,126.967 C476.535,126.913 476.406,126.909 475.818,126.909 L454.182,126.909 C453.594,126.909 453.465,126.913 453.119,126.967 C451.075,127.29 449.471,128.893 449.149,130.938 C449.094,131.283 449.091,131.412 449.091,132 C449.091,133.263 449.082,133.573 449.051,133.765 C448.835,135.131 447.767,136.198 446.407,136.414 C446.209,136.446 445.899,136.455 444.636,136.455 L442.727,136.455 C439.554,136.455 438.785,136.402 438.329,136.213 C437.548,135.89 436.928,135.27 436.605,134.49 C436.416,134.033 436.364,133.264 436.364,130.091 L436.364,119.909 C436.364,113.867 436.482,112.423 437.057,111.292 C437.667,110.095 438.641,109.122 439.838,108.512 C440.968,107.936 442.412,107.818 448.455,107.818 Z M448.455,101.455 C441.133,101.455 439.394,101.597 436.95,102.842 C434.554,104.062 432.607,106.009 431.387,108.404 C430.142,110.848 430,112.588 430,119.909 L430,130.091 C430,134.332 430.069,135.337 430.726,136.924 C431.694,139.264 433.554,141.124 435.894,142.093 C437.481,142.75 438.487,142.818 442.727,142.818 L444.636,142.818 C446.329,142.818 446.732,142.807 447.408,142.699 C451.486,142.052 454.688,138.85 455.336,134.767 C455.443,134.096 455.455,133.693 455.455,132 C455.455,131.847 455.456,131.796 455.435,131.93 C455.327,132.611 454.793,133.145 454.111,133.253 C453.977,133.274 454.028,133.273 454.182,133.273 L475.818,133.273 C475.972,133.273 476.023,133.274 475.888,133.253 C475.207,133.145 474.673,132.611 474.565,131.929 C474.544,131.796 474.545,131.846 474.545,132 C474.545,133.693 474.557,134.096 474.665,134.772 C475.312,138.85 478.514,142.052 482.597,142.699 C483.268,142.807 483.671,142.818 485.364,142.818 L487.273,142.818 C491.513,142.818 492.519,142.75 494.106,142.092 C496.446,141.124 498.306,139.264 499.274,136.924 C499.931,135.337 500,134.332 500,130.091 L500,119.909 C500,112.588 499.858,110.848 498.613,108.404 C497.393,106.009 495.446,104.062 493.051,102.842 C490.606,101.597 488.867,101.455 481.545,101.455 L448.455,101.455 Z M444.318,115.773 C444.318,114.894 445.03,114.182 445.909,114.182 C446.788,114.182 447.5,114.894 447.5,115.773 C447.5,116.651 446.788,117.364 445.909,117.364 C445.03,117.364 444.318,116.651 444.318,115.773 Z M450.682,115.773 C450.682,113.137 448.545,111 445.909,111 C443.273,111 441.136,113.137 441.136,115.773 C441.136,118.409 443.273,120.545 445.909,120.545 C448.545,120.545 450.682,118.409 450.682,115.773 Z M482.5,115.773 C482.5,114.894 483.212,114.182 484.091,114.182 C484.97,114.182 485.682,114.894 485.682,115.773 C485.682,116.651 484.97,117.364 484.091,117.364 C483.212,117.364 482.5,116.651 482.5,115.773 Z M488.864,115.773 C488.864,113.137 486.727,111 484.091,111 C481.455,111 479.318,113.137 479.318,115.773 C479.318,118.409 481.455,120.545 484.091,120.545 C486.727,120.545 488.864,118.409 488.864,115.773 Z" />
        </g>
        <g id="Black-M" transform="translate(0,200)">
            <path d="M690.455,104.636 L690.455,92.545 C690.455,87.452 690.356,86.242 689.414,84.394 C688.499,82.598 687.039,81.137 685.243,80.222 C683.394,79.281 682.185,79.182 677.091,79.182 L652.909,79.182 C647.815,79.182 646.606,79.281 644.758,80.222 C642.961,81.137 641.501,82.598 640.586,84.394 C639.644,86.242 639.545,87.452 639.545,92.545 L639.545,104.636 C639.545,106.394 640.97,107.818 642.727,107.818 C644.485,107.818 645.909,106.394 645.909,104.636 L645.909,92.545 C645.909,88.73 645.984,87.817 646.256,87.282 C646.561,86.684 647.048,86.197 647.646,85.892 C648.181,85.62 649.094,85.545 652.909,85.545 L677.091,85.545 C680.906,85.545 681.819,85.62 682.354,85.893 C682.952,86.197 683.439,86.684 683.744,87.283 C684.016,87.817 684.091,88.73 684.091,92.545 L684.091,104.636 C684.091,106.394 685.515,107.818 687.273,107.818 C689.03,107.818 690.455,106.394 690.455,104.636 Z M642.727,98.273 L633.182,98.273 L636.364,101.455 L636.364,98.273 C636.364,96.515 634.939,95.091 633.182,95.091 C631.425,95.091 630,96.515 630,98.273 L630,101.455 C630,103.212 631.425,104.636 633.182,104.636 L642.727,104.636 C644.485,104.636 645.909,103.212 645.909,101.455 C645.909,99.697 644.485,98.273 642.727,98.273 Z M687.273,104.636 L696.818,104.636 C698.575,104.636 700,103.212 700,101.455 L700,98.273 C700,96.515 698.575,95.091 696.818,95.091 C695.061,95.091 693.636,96.515 693.636,98.273 L693.636,101.455 L696.818,98.273 L687.273,98.273 C685.515,98.273 684.091,99.697 684.091,101.455 C684.091,103.212 685.515,104.636 687.273,104.636 Z M645.909,118.955 L645.941,118.955 C647.698,118.955 649.123,117.53 649.123,115.773 C649.123,114.015 647.698,112.591 645.941,112.591 L645.909,112.591 C644.152,112.591 642.727,114.015 642.727,115.773 C642.727,117.53 644.152,118.955 645.909,118.955 Z M684.091,118.955 L684.123,118.955 C685.88,118.955 687.305,117.53 687.305,115.773 C687.305,114.015 685.88,112.591 684.123,112.591 L684.091,112.591 C682.334,112.591 680.909,114.015 680.909,115.773 C680.909,117.53 682.334,118.955 684.091,118.955 Z M648.455,107.818 L681.545,107.818 C687.588,107.818 689.032,107.936 690.162,108.512 C691.359,109.122 692.333,110.095 692.943,111.293 C693.518,112.423 693.636,113.867 693.636,119.909 L693.636,130.091 C693.636,133.264 693.584,134.033 693.395,134.489 C693.072,135.27 692.452,135.89 691.672,136.213 C691.215,136.402 690.446,136.455 687.273,136.455 L685.364,136.455 C684.101,136.455 683.791,136.446 683.599,136.415 C682.233,136.198 681.165,135.131 680.949,133.77 C680.918,133.573 680.909,133.263 680.909,132 C680.909,131.412 680.906,131.283 680.851,130.937 C680.529,128.893 678.925,127.29 676.88,126.967 C676.535,126.913 676.406,126.909 675.818,126.909 L654.182,126.909 C653.594,126.909 653.465,126.913 653.119,126.967 C651.075,127.29 649.471,128.893 649.149,130.938 C649.094,131.283 649.091,131.412 649.091,132 C649.091,133.263 649.082,133.573 649.051,133.765 C648.835,135.131 647.767,136.198 646.407,136.414 C646.209,136.446 645.899,136.455 644.636,136.455 L642.727,136.455 C639.554,136.455 638.785,136.402 638.329,136.213 C637.548,135.89 636.928,135.27 636.605,134.49 C636.416,134.033 636.364,133.264 636.364,130.091 L636.364,119.909 C636.364,113.867 636.482,112.423 637.057,111.292 C637.667,110.095 638.641,109.122 639.838,108.512 C640.968,107.936 642.412,107.818 648.455,107.818 Z M648.455,101.455 C641.133,101.455 639.394,101.597 636.95,102.842 C634.554,104.062 632.607,106.009 631.387,108.404 C630.142,110.848 630,112.588 630,119.909 L630,130.091 C630,134.332 630.069,135.337 630.726,136.924 C631.694,139.264 633.554,141.124 635.894,142.093 C637.481,142.75 638.487,142.818 642.727,142.818 L644.636,142.818 C646.329,142.818 646.732,142.807 647.408,142.699 C651.486,142.052 654.688,138.85 655.336,134.767 C655.443,134.096 655.455,133.693 655.455,132 C655.455,131.847 655.456,131.796 655.435,131.93 C655.327,132.611 654.793,133.145 654.111,133.253 C653.977,133.274 654.028,133.273 654.182,133.273 L675.818,133.273 C675.972,133.273 676.023,133.274 675.888,133.253 C675.207,133.145 674.673,132.611 674.565,131.929 C674.544,131.796 674.545,131.846 674.545,132 C674.545,133.693 674.557,134.096 674.665,134.772 C675.312,138.85 678.514,142.052 682.597,142.699 C683.268,142.807 683.671,142.818 685.364,142.818 L687.273,142.818 C691.513,142.818 692.519,142.75 694.106,142.092 C696.446,141.124 698.306,139.264 699.274,136.924 C699.931,135.337 700,134.332 700,130.091 L700,119.909 C700,112.588 699.858,110.848 698.613,108.404 C697.393,106.009 695.446,104.062 693.051,102.842 C690.606,101.597 688.867,101.455 681.545,101.455 L648.455,101.455 Z M644.318,115.773 C644.318,114.894 645.03,114.182 645.909,114.182 C646.788,114.182 647.5,114.894 647.5,115.773 C647.5,116.651 646.788,117.364 645.909,117.364 C645.03,117.364 644.318,116.651 644.318,115.773 Z M650.682,115.773 C650.682,113.137 648.545,111 645.909,111 C643.273,111 641.136,113.137 641.136,115.773 C641.136,118.409 643.273,120.545 645.909,120.545 C648.545,120.545 650.682,118.409 650.682,115.773 Z M682.5,115.773 C682.5,114.894 683.212,114.182 684.091,114.182 C684.97,114.182 685.682,114.894 685.682,115.773 C685.682,116.651 684.97,117.364 684.091,117.364 C683.212,117.364 682.5,116.651 682.5,115.773 Z M688.864,115.773 C688.864,113.137 686.727,111 684.091,111 C681.455,111 679.318,113.137 679.318,115.773 C679.318,118.409 681.455,120.545 684.091,120.545 C686.727,120.545 688.864,118.409 688.864,115.773 Z" />
        </g>
    </g>
</svg>