<?xml version="1.0" encoding="UTF-8"?>
<svg height="600" width="800" xmlns="http://www.w3.org/2000/svg" xmlns:xlink="http://www.w3.org/1999/xlink">
    <g id="Notes" font-family="LucidaGrande, 'Lucida Grande', sans-serif" font-size="13">
        <rect fill="white" height="600.0" width="800.0" x="0.0" y="0.0" />
        <g font-size="13">
            <text x="18.0" y="176.0">Small</text>
            <text x="18.0" y="376.0">Medium</text>
            <text x="18.0" y="576.0">Large</text>
        </g>
        <g font-size="9">
            <text x="250.0" y="30.0">Ultralight</text>
            <text x="450.0" y="30.0">Regular</text>
            <text x="650.0" y="30.0">Black</text>
            <text id="template-version" fill="#505050" text-anchor="end" x="785.0" y="575.0">Template v.3.0</text>
            <a href="https://github.com/swhitty/SwiftDraw">
                <text fill="#505050" text-anchor="end" x="785.0" y="590.0">https://github.com/swhitty/SwiftDraw</text>
            </a>
        </g>
    </g>
    <g id="Guides" stroke="rgb(39, 170, 225)" stroke-width="0.5">
        <path id="Capline-S" d="M18,76 l800,0" />
        <path id="H-reference" d="M85,145.755 L87.685,145.755 L113.369,79.287 L114.052,79.287 L114.052,76 L112.148,76 L85,145.755 Z M95.693,121.536 L130.996,121.536 L130.263,119.313 L96.474,119.313 L95.693,121.536 Z M139.15,145.755 L141.787,145.755 L114.638,76 L113.466,76 L113.466,79.287 L139.15,145.755 Z" stroke="none" transform="translate(0,200)" />
        <path id="Baseline-S" d="M18,146 l800,0" />
        <path id="left-margin-Ultralight-M" d="M221,256 l0,110" />
        <path id="right-margin-Ultralight-M" d="M309,256 l0,110" />
        <path id="left-margin-Regular-M" d="M421,256 l0,110" />
        <path id="right-margin-Regular-M" d="M509,256 l0,110" />
        <path id="left-margin-Black-M" d="M621,256 l0,110" />
        <path id="right-margin-Black-M" d="M709,256 l0,110" />
        <path id="Capline-M" d="M18,276 l800,0" />
        <path id="Baseline-M" d="M18,346 l800,0" />
        <path id="Capline-L" d="M18,476 l800,0" />
        <path id="Baseline-L" d="M18,546 l800,0" />
    </g>
    <g id="Symbols">
        <g id="Ultralight-M" transform="translate(0,200)">
            <path d="M265.393,92.088 C265.709,91.54 265.82,91.355 265.909,91.228 C265.872,91.281 265.748,91.401 265.463,91.528 C265.169,91.659 264.831,91.659 264.535,91.527 C264.251,91.401 264.128,91.281 264.091,91.228 C264.18,91.355 264.291,91.54 264.606,92.088 L269.063,99.843 C269.44,100.502 269.561,100.687 269.938,101.026 C270.283,101.34 270.703,101.585 271.159,101.735 C271.662,101.892 271.872,101.904 272.625,101.904 L281.577,101.886 C282.217,101.885 282.426,101.888 282.58,101.901 C282.514,101.895 282.347,101.848 282.094,101.664 C281.831,101.473 281.663,101.18 281.63,100.858 C281.598,100.555 281.64,100.388 281.667,100.33 C281.602,100.47 281.493,100.666 281.183,101.198 L276.691,108.939 C276.325,109.578 276.244,109.738 276.134,110.169 C276.122,110.219 276.122,110.219 276.11,110.269 C276.006,110.755 276.006,111.245 276.107,111.718 C276.217,112.214 276.318,112.415 276.695,113.062 L281.182,120.8 C281.497,121.343 281.603,121.532 281.667,121.672 C281.64,121.613 281.598,121.445 281.63,121.137 C281.663,120.82 281.831,120.527 282.093,120.337 C282.347,120.152 282.514,120.105 282.58,120.099 C282.426,120.112 282.217,120.115 281.577,120.114 L272.63,120.096 C271.872,120.096 271.662,120.108 271.194,120.254 C270.711,120.411 270.292,120.653 269.936,120.974 C269.787,121.11 269.665,121.243 269.553,121.387 C269.384,121.604 269.308,121.728 269.064,122.153 L264.605,129.914 C264.291,130.46 264.18,130.645 264.091,130.772 C264.128,130.719 264.251,130.599 264.536,130.472 C264.831,130.341 265.169,130.341 265.465,130.473 C265.748,130.599 265.872,130.719 265.909,130.772 C265.82,130.645 265.709,130.46 265.393,129.912 L260.937,122.154 C260.56,121.495 260.439,121.31 260.062,120.972 C259.716,120.658 259.297,120.413 258.841,120.263 C258.338,120.106 258.128,120.093 257.375,120.093 L248.423,120.112 C247.783,120.113 247.573,120.11 247.42,120.096 C247.485,120.102 247.653,120.15 247.905,120.334 C248.164,120.521 248.333,120.814 248.367,121.136 C248.398,121.452 248.357,121.615 248.331,121.67 C248.397,121.529 248.506,121.333 248.816,120.799 L253.309,113.056 C253.692,112.392 253.785,112.204 253.891,111.72 C253.993,111.24 253.993,110.755 253.893,110.286 C253.876,110.212 253.876,110.212 253.861,110.149 C253.749,109.722 253.685,109.599 253.314,108.95 L248.817,101.2 C248.502,100.656 248.396,100.467 248.331,100.326 C248.357,100.382 248.398,100.545 248.368,100.849 C248.333,101.184 248.164,101.477 247.902,101.667 C247.653,101.848 247.485,101.895 247.42,101.901 C247.573,101.888 247.783,101.885 248.422,101.886 L257.37,101.904 C258.128,101.904 258.338,101.892 258.806,101.746 C259.297,101.585 259.716,101.34 260.072,101.017 C260.205,100.897 260.332,100.759 260.448,100.61 C260.616,100.394 260.667,100.31 260.934,99.849 L265.394,92.086 Z M261.44,89.814 L256.983,97.571 C256.862,97.78 256.827,97.837 256.848,97.81 C256.892,97.754 256.948,97.693 257.014,97.634 C257.122,97.535 257.262,97.454 257.414,97.403 C257.609,97.342 257.584,97.344 257.375,97.344 L248.432,97.326 C246.407,97.321 246.084,97.35 245.223,97.976 C244.44,98.543 243.932,99.422 243.831,100.388 C243.726,101.45 243.87,101.76 244.872,103.488 L249.362,111.226 C249.463,111.402 249.486,111.447 249.449,111.305 C249.442,111.276 249.442,111.276 249.435,111.246 C249.399,111.079 249.399,110.917 249.432,110.761 C249.472,110.577 249.461,110.6 249.36,110.775 L244.873,118.509 C243.879,120.219 243.726,120.548 243.83,121.597 C243.932,122.576 244.44,123.454 245.227,124.024 C246.084,124.648 246.407,124.677 248.432,124.672 L257.379,124.654 C257.584,124.654 257.609,124.655 257.449,124.605 C257.262,124.544 257.122,124.463 257.004,124.355 C256.873,124.238 256.885,124.256 256.98,124.422 L261.44,132.186 C262.446,133.933 262.638,134.206 263.606,134.637 C264.492,135.034 265.507,135.034 266.395,134.637 C267.361,134.206 267.553,133.933 268.558,132.188 L273.017,124.426 C273.132,124.226 273.169,124.166 273.151,124.19 C273.111,124.241 273.061,124.296 273.001,124.35 C272.87,124.469 272.73,124.55 272.578,124.599 C272.39,124.658 272.416,124.656 272.625,124.656 L281.568,124.674 C283.592,124.679 283.916,124.65 284.777,124.024 C285.562,123.452 286.067,122.574 286.167,121.608 C286.277,120.557 286.133,120.246 285.128,118.512 L280.638,110.77 C280.536,110.596 280.525,110.574 280.563,110.748 C280.6,110.918 280.6,111.082 280.566,111.239 C280.558,111.275 280.558,111.275 280.553,111.298 C280.516,111.441 280.537,111.4 280.643,111.215 L285.127,103.489 C286.125,101.773 286.277,101.443 286.166,100.387 C286.067,99.426 285.562,98.548 284.778,97.977 C283.916,97.35 283.592,97.321 281.567,97.326 L272.62,97.344 C272.416,97.344 272.39,97.342 272.551,97.392 C272.738,97.454 272.878,97.535 272.996,97.643 C273.127,97.76 273.114,97.741 273.02,97.576 L268.559,89.814 C267.553,88.067 267.362,87.794 266.394,87.363 C265.507,86.966 264.492,86.966 263.604,87.363 C262.638,87.794 262.446,88.067 261.441,89.812 Z" />
        </g>
        <g id="Regular-M" transform="translate(0,200)">
            <path d="M465.393,92.088 C465.709,91.54 465.82,91.355 465.909,91.228 C465.872,91.281 465.748,91.401 465.463,91.528 C465.169,91.659 464.831,91.659 464.535,91.527 C464.251,91.401 464.128,91.281 464.091,91.228 C464.18,91.355 464.291,91.54 464.606,92.088 L469.063,99.843 C469.44,100.502 469.561,100.687 469.938,101.026 C470.283,101.34 470.703,101.585 471.159,101.735 C471.662,101.892 471.872,101.904 472.625,101.904 L481.577,101.886 C482.217,101.885 482.426,101.888 482.58,101.901 C482.514,101.895 482.347,101.848 482.094,101.664 C481.831,101.473 481.663,101.18 481.63,100.858 C481.598,100.555 481.64,100.388 481.667,100.33 C481.602,100.47 481.493,100.666 481.183,101.198 L476.691,108.939 C476.325,109.578 476.244,109.738 476.134,110.169 C476.122,110.219 476.122,110.219 476.11,110.269 C476.006,110.755 476.006,111.245 476.107,111.718 C476.217,112.214 476.318,112.415 476.695,113.062 L481.182,120.8 C481.497,121.343 481.603,121.532 481.667,121.672 C481.64,121.613 481.598,121.445 481.63,121.137 C481.663,120.82 481.831,120.527 482.093,120.337 C482.347,120.152 482.514,120.105 482.58,120.099 C482.426,120.112 482.217,120.115 481.577,120.114 L472.63,120.096 C471.872,120.096 471.662,120.108 471.194,120.254 C470.711,120.411 470.292,120.653 469.936,120.974 C469.787,121.11 469.665,121.243 469.553,121.387 C469.384,121.604 469.308,121.728 469.064,122.153 L464.605,129.914 C464.291,130.46 464.18,130.645 464.091,130.772 C464.128,130.719 464.251,130.599 464.536,130.472 C464.831,130.341 465.169,130.341 465.465,130.473 C465.748,130.599 465.872,130.719 465.909,130.772 C465.82,130.645 465.709,130.46 465.393,129.912 L460.937,122.154 C460.56,121.495 460.439,121.31 460.062,120.972 C459.716,120.658 459.297,120.413 458.841,120.263 C458.338,120.106 458.128,120.093 457.375,120.093 L448.423,120.112 C447.783,120.113 447.573,120.11 447.42,120.096 C447.485,120.102 447.653,120.15 447.905,120.334 C448.164,120.521 448.333,120.814 448.367,121.136 C448.398,121.452 448.357,121.615 448.331,121.67 C448.397,121.529 448.506,121.333 448.816,120.799 L453.309,113.056 C453.692,112.392 453.785,112.204 453.891,111.72 C453.993,111.24 453.993,110.755 453.893,110.286 C453.876,110.212 453.876,110.212 453.861,110.149 C453.749,109.722 453.685,109.599 453.314,108.95 L448.817,101.2 C448.502,100.656 448.396,100.467 448.331,100.326 C448.357,100.382 448.398,100.545 448.368,100.849 C448.333,101.184 448.164,101.477 447.902,101.667 C447.653,101.848 447.485,101.895 447.42,101.901 C447.573,101.888 447.783,101.885 448.422,101.886 L457.37,101.904 C458.128,101.904 458.338,101.892 458.806,101.746 C459.297,101.585 459.716,101.34 460.072,101.017 C460.205,100.897 460.332,100.759 460.448,100.61 C460.616,100.394 460.667,100.31 460.934,99.849 L465.394,92.086 Z M461.44,89.814 L456.983,97.571 C456.862,97.78 456.827,97.837 456.848,97.81 C456.892,97.754 456.948,97.693 457.014,97.634 C457.122,97.535 457.262,97.454 457.414,97.403 C457.609,97.342 457.584,97.344 457.375,97.344 L448.432,97.326 C446.407,97.321 446.084,97.35 445.223,97.976 C444.44,98.543 443.932,99.422 443.831,100.388 C443.726,101.45 443.87,101.76 444.872,103.488 L449.362,111.226 C449.463,111.402 449.486,111.447 449.449,111.305 C449.442,111.276 449.442,111.276 449.435,111.246 C449.399,111.079 449.399,110.917 449.432,110.761 C449.472,110.577 449.461,110.6 449.36,110.775 L444.873,118.509 C443.879,120.219 443.726,120.548 443.83,121.597 C443.932,122.576 444.44,123.454 445.227,124.024 C446.084,124.648 446.407,124.677 448.432,124.672 L457.379,124.654 C457.584,124.654 457.609,124.655 457.449,124.605 C457.262,124.544 457.122,124.463 457.004,124.355 C456.873,124.238 456.885,124.256 456.98,124.422 L461.44,132.186 C462.446,133.933 462.638,134.206 463.606,134.637 C464.492,135.034 465.507,135.034 466.395,134.637 C467.361,134.206 467.553,133.933 468.558,132.188 L473.017,124.426 C473.132,124.226 473.169,124.166 473.151,124.19 C473.111,124.241 473.061,124.296 473.001,124.35 C472.87,124.469 472.73,124.55 472.578,124.599 C472.39,124.658 472.416,124.656 472.625,124.656 L481.568,124.674 C483.592,124.679 483.916,124.65 484.777,124.024 C485.562,123.452 486.067,122.574 486.167,121.608 C486.277,120.557 486.133,120.246 485.128,118.512 L480.638,110.77 C480.536,110.596 480.525,110.574 480.563,110.748 C480.6,110.918 480.6,111.082 480.566,111.239 C480.558,111.275 480.558,111.275 480.553,111.298 C480.516,111.441 480.537,111.4 480.643,111.215 L485.127,103.489 C486.125,101.773 486.277,101.443 486.166,100.387 C486.067,99.426 485.562,98.548 484.778,97.977 C483.916,97.35 483.592,97.321 481.567,97.326 L472.62,97.344 C472.416,97.344 472.39,97.342 472.551,97.392 C472.738,97.454 472.878,97.535 472.996,97.643 C473.127,97.76 473.114,97.741 473.02,97.576 L468.559,89.814 C467.553,88.067 467.362,87.794 466.394,87.363 C465.507,86.966 464.492,86.966 463.604,87.363 C462.638,87.794 462.446,88.067 461.441,89.812 Z" />
        </g>
        <g id="Black-M" transform="translate(0,200)">
            <path d="M665.393,92.088 C665.709,91.54 665.82,91.355 665.909,91.228 C665.872,91.281 665.748,91.401 665.463,91.528 C665.169,91.659 664.831,91.659 664.535,91.527 C664.251,91.401 664.128,91.281 664.091,91.228 C664.18,91.355 664.291,91.54 664.606,92.088 L669.063,99.843 C669.44,100.502 669.561,100.687 669.938,101.026 C670.283,101.34 670.703,101.585 671.159,101.735 C671.662,101.892 671.872,101.904 672.625,101.904 L681.577,101.886 C682.217,101.885 682.426,101.888 682.58,101.901 C682.514,101.895 682.346,101.848 682.094,101.664 C681.831,101.473 681.663,101.18 681.63,100.858 C681.598,100.555 681.64,100.388 681.667,100.33 C681.602,100.47 681.493,100.666 681.183,101.198 L676.691,108.939 C676.325,109.578 676.244,109.738 676.134,110.169 C676.122,110.219 676.122,110.219 676.11,110.269 C676.006,110.755 676.006,111.245 676.107,111.718 C676.217,112.214 676.318,112.415 676.695,113.062 L681.182,120.8 C681.497,121.343 681.603,121.532 681.667,121.672 C681.64,121.613 681.598,121.445 681.63,121.137 C681.663,120.82 681.831,120.527 682.093,120.337 C682.346,120.152 682.514,120.105 682.58,120.099 C682.426,120.112 682.217,120.115 681.577,120.114 L672.63,120.096 C671.872,120.096 671.662,120.108 671.194,120.254 C670.711,120.411 670.292,120.653 669.936,120.974 C669.786,121.11 669.665,121.243 669.553,121.387 C669.384,121.604 669.308,121.728 669.064,122.153 L664.605,129.914 C664.291,130.46 664.18,130.645 664.091,130.772 C664.128,130.719 664.251,130.599 664.536,130.472 C664.831,130.341 665.169,130.341 665.465,130.473 C665.748,130.599 665.872,130.719 665.909,130.772 C665.82,130.645 665.709,130.46 665.393,129.912 L660.937,122.154 C660.56,121.495 660.439,121.31 660.061,120.972 C659.716,120.658 659.297,120.413 658.841,120.263 C658.338,120.106 658.128,120.093 657.375,120.093 L648.423,120.112 C647.783,120.113 647.573,120.11 647.42,120.096 C647.485,120.102 647.653,120.15 647.905,120.334 C648.164,120.521 648.333,120.814 648.367,121.136 C648.398,121.452 648.357,121.615 648.331,121.67 C648.397,121.529 648.506,121.333 648.816,120.799 L653.309,113.056 C653.691,112.392 653.785,112.204 653.891,111.72 C653.993,111.24 653.993,110.755 653.893,110.286 C653.876,110.212 653.876,110.212 653.861,110.149 C653.749,109.722 653.685,109.599 653.314,108.95 L648.817,101.2 C648.502,100.656 648.396,100.467 648.331,100.326 C648.357,100.382 648.398,100.545 648.368,100.849 C648.333,101.184 648.164,101.477 647.902,101.667 C647.653,101.848 647.485,101.895 647.42,101.901 C647.573,101.888 647.783,101.885 648.422,101.886 L657.37,101.904 C658.128,101.904 658.338,101.892 658.806,101.746 C659.297,101.585 659.716,101.34 660.072,101.017 C660.205,100.897 660.332,100.759 660.448,100.61 C660.616,100.394 660.667,100.31 660.933,99.849 L665.394,92.086 Z M661.44,89.814 L656.982,97.571 C656.862,97.78 656.827,97.837 656.848,97.81 C656.892,97.754 656.948,97.693 657.014,97.634 C657.122,97.535 657.262,97.454 657.414,97.403 C657.609,97.342 657.584,97.344 657.375,97.344 L648.432,97.326 C646.407,97.321 646.084,97.35 645.223,97.976 C644.44,98.543 643.932,99.422 643.831,100.388 C643.726,101.45 643.87,101.76 644.872,103.488 L649.362,111.226 C649.463,111.402 649.486,111.447 649.449,111.305 C649.442,111.276 649.442,111.276 649.435,111.246 C649.399,111.079 649.399,110.917 649.432,110.761 C649.472,110.577 649.461,110.6 649.36,110.775 L644.872,118.509 C643.879,120.219 643.726,120.548 643.83,121.597 C643.932,122.576 644.44,123.454 645.227,124.024 C646.084,124.648 646.407,124.677 648.432,124.672 L657.379,124.654 C657.584,124.654 657.609,124.655 657.449,124.605 C657.262,124.544 657.122,124.463 657.004,124.355 C656.873,124.238 656.885,124.256 656.98,124.422 L661.44,132.186 C662.446,133.933 662.638,134.206 663.606,134.637 C664.492,135.034 665.507,135.034 666.395,134.637 C667.361,134.206 667.553,133.933 668.558,132.188 L673.017,124.426 C673.132,124.226 673.169,124.166 673.151,124.19 C673.111,124.241 673.061,124.296 673.001,124.35 C672.87,124.469 672.73,124.55 672.578,124.599 C672.39,124.658 672.416,124.656 672.625,124.656 L681.568,124.674 C683.592,124.679 683.916,124.65 684.776,124.024 C685.562,123.452 686.067,122.574 686.167,121.608 C686.277,120.557 686.133,120.246 685.128,118.512 L680.638,110.77 C680.536,110.596 680.525,110.574 680.563,110.748 C680.6,110.918 680.6,111.082 680.566,111.239 C680.558,111.275 680.558,111.275 680.553,111.298 C680.516,111.441 680.537,111.4 680.643,111.215 L685.127,103.489 C686.125,101.773 686.277,101.443 686.166,100.387 C686.067,99.426 685.562,98.548 684.778,97.977 C683.916,97.35 683.592,97.321 681.567,97.326 L672.62,97.344 C672.416,97.344 672.39,97.342 672.551,97.392 C672.738,97.454 672.878,97.535 672.996,97.643 C673.127,97.76 673.114,97.741 673.02,97.576 L668.559,89.814 C667.553,88.067 667.361,87.794 666.394,87.363 C665.507,86.966 664.492,86.966 663.604,87.363 C662.638,87.794 662.446,88.067 661.441,89.812 Z" />
        </g>
    </g>
</svg>