<?xml version="1.0" encoding="UTF-8"?>
<svg height="600" width="800" xmlns="http://www.w3.org/2000/svg" xmlns:xlink="http://www.w3.org/1999/xlink">
    <g id="Notes" font-family="LucidaGrande, 'Lucida Grande', sans-serif" font-size="13">
        <rect fill="white" height="600.0" width="800.0" x="0.0" y="0.0" />
        <g font-size="13">
            <text x="18.0" y="176.0">Small</text>
            <text x="18.0" y="376.0">Medium</text>
            <text x="18.0" y="576.0">Large</text>
        </g>
        <g font-size="9">
            <text x="250.0" y="30.0">Ultralight</text>
            <text x="450.0" y="30.0">Regular</text>
            <text x="650.0" y="30.0">Black</text>
            <text id="template-version" fill="#505050" text-anchor="end" x="785.0" y="575.0">Template v.3.0</text>
            <a href="https://github.com/swhitty/SwiftDraw">
                <text fill="#505050" text-anchor="end" x="785.0" y="590.0">https://github.com/swhitty/SwiftDraw</text>
            </a>
        </g>
    </g>
    <g id="Guides" stroke="rgb(39, 170, 225)" stroke-width="0.5">
        <path id="Capline-S" d="M18,76 l800,0" />
        <path id="H-reference" d="M85,145.755 L87.685,145.755 L113.369,79.287 L114.052,79.287 L114.052,76 L112.148,76 L85,145.755 Z M95.693,121.536 L130.996,121.536 L130.263,119.313 L96.474,119.313 L95.693,121.536 Z M139.15,145.755 L141.787,145.755 L114.638,76 L113.466,76 L113.466,79.287 L139.15,145.755 Z" stroke="none" transform="translate(0,200)" />
        <path id="Baseline-S" d="M18,146 l800,0" />
        <path id="left-margin-Ultralight-M" d="M221,256 l0,110" />
        <path id="right-margin-Ultralight-M" d="M309,256 l0,110" />
        <path id="left-margin-Regular-M" d="M421,256 l0,110" />
        <path id="right-margin-Regular-M" d="M509,256 l0,110" />
        <path id="left-margin-Black-M" d="M621,256 l0,110" />
        <path id="right-margin-Black-M" d="M709,256 l0,110" />
        <path id="Capline-M" d="M18,276 l800,0" />
        <path id="Baseline-M" d="M18,346 l800,0" />
        <path id="Capline-L" d="M18,476 l800,0" />
        <path id="Baseline-L" d="M18,546 l800,0" />
    </g>
    <g id="Symbols">
        <g id="Ultralight-M" transform="translate(0,200)">
            <path d="M283.857,111 C283.857,121.415 275.415,129.857 265,129.857 C263.843,129.857 262.905,130.795 262.905,131.952 C262.905,133.11 263.843,134.048 265,134.048 C277.729,134.048 288.048,123.729 288.048,111 C288.048,109.843 287.11,108.905 285.952,108.905 C284.795,108.905 283.857,109.843 283.857,111 Z M288.048,111 C288.048,98.271 277.729,87.952 265,87.952 C263.843,87.952 262.905,88.89 262.905,90.048 C262.905,91.205 263.843,92.143 265,92.143 C275.415,92.143 283.857,100.585 283.857,111 C283.857,112.157 284.795,113.095 285.952,113.095 C287.11,113.095 288.048,112.157 288.048,111 Z M285.952,108.905 L277.571,108.905 C276.414,108.905 275.476,109.843 275.476,111 C275.476,112.157 276.414,113.095 277.571,113.095 L285.952,113.095 C287.11,113.095 288.048,112.157 288.048,111 C288.048,109.843 287.11,108.905 285.952,108.905 Z M265,129.857 C254.585,129.857 246.143,121.415 246.143,111 C246.143,109.843 245.205,108.905 244.048,108.905 C242.89,108.905 241.952,109.843 241.952,111 C241.952,123.729 252.271,134.048 265,134.048 C266.157,134.048 267.095,133.11 267.095,131.952 C267.095,130.795 266.157,129.857 265,129.857 Z M267.095,131.952 L267.095,123.571 C267.095,122.414 266.157,121.476 265,121.476 C263.843,121.476 262.905,122.414 262.905,123.571 L262.905,131.952 C262.905,133.11 263.843,134.048 265,134.048 C266.157,134.048 267.095,133.11 267.095,131.952 Z M246.143,111 C246.143,100.585 254.585,92.143 265,92.143 C266.157,92.143 267.095,91.205 267.095,90.048 C267.095,88.89 266.157,87.952 265,87.952 C252.271,87.952 241.952,98.271 241.952,111 C241.952,112.157 242.89,113.095 244.048,113.095 C245.205,113.095 246.143,112.157 246.143,111 Z M244.048,113.095 L252.429,113.095 C253.586,113.095 254.524,112.157 254.524,111 C254.524,109.843 253.586,108.905 252.429,108.905 L244.048,108.905 C242.89,108.905 241.952,109.843 241.952,111 C241.952,112.157 242.89,113.095 244.048,113.095 Z M262.905,90.048 L262.905,98.429 C262.905,99.586 263.843,100.524 265,100.524 C266.157,100.524 267.095,99.586 267.095,98.429 L267.095,90.048 C267.095,88.89 266.157,87.952 265,87.952 C263.843,87.952 262.905,88.89 262.905,90.048 Z" />
        </g>
        <g id="Regular-M" transform="translate(0,200)">
            <path d="M483.857,111 C483.857,121.415 475.415,129.857 465,129.857 C463.843,129.857 462.905,130.795 462.905,131.952 C462.905,133.11 463.843,134.048 465,134.048 C477.729,134.048 488.048,123.729 488.048,111 C488.048,109.843 487.11,108.905 485.952,108.905 C484.795,108.905 483.857,109.843 483.857,111 Z M488.048,111 C488.048,98.271 477.729,87.952 465,87.952 C463.843,87.952 462.905,88.89 462.905,90.048 C462.905,91.205 463.843,92.143 465,92.143 C475.415,92.143 483.857,100.585 483.857,111 C483.857,112.157 484.795,113.095 485.952,113.095 C487.11,113.095 488.048,112.157 488.048,111 Z M485.952,108.905 L477.571,108.905 C476.414,108.905 475.476,109.843 475.476,111 C475.476,112.157 476.414,113.095 477.571,113.095 L485.952,113.095 C487.11,113.095 488.048,112.157 488.048,111 C488.048,109.843 487.11,108.905 485.952,108.905 Z M465,129.857 C454.585,129.857 446.143,121.415 446.143,111 C446.143,109.843 445.205,108.905 444.048,108.905 C442.89,108.905 441.952,109.843 441.952,111 C441.952,123.729 452.271,134.048 465,134.048 C466.157,134.048 467.095,133.11 467.095,131.952 C467.095,130.795 466.157,129.857 465,129.857 Z M467.095,131.952 L467.095,123.571 C467.095,122.414 466.157,121.476 465,121.476 C463.843,121.476 462.905,122.414 462.905,123.571 L462.905,131.952 C462.905,133.11 463.843,134.048 465,134.048 C466.157,134.048 467.095,133.11 467.095,131.952 Z M446.143,111 C446.143,100.585 454.585,92.143 465,92.143 C466.157,92.143 467.095,91.205 467.095,90.048 C467.095,88.89 466.157,87.952 465,87.952 C452.271,87.952 441.952,98.271 441.952,111 C441.952,112.157 442.89,113.095 444.048,113.095 C445.205,113.095 446.143,112.157 446.143,111 Z M444.048,113.095 L452.429,113.095 C453.586,113.095 454.524,112.157 454.524,111 C454.524,109.843 453.586,108.905 452.429,108.905 L444.048,108.905 C442.89,108.905 441.952,109.843 441.952,111 C441.952,112.157 442.89,113.095 444.048,113.095 Z M462.905,90.048 L462.905,98.429 C462.905,99.586 463.843,100.524 465,100.524 C466.157,100.524 467.095,99.586 467.095,98.429 L467.095,90.048 C467.095,88.89 466.157,87.952 465,87.952 C463.843,87.952 462.905,88.89 462.905,90.048 Z" />
        </g>
        <g id="Black-M" transform="translate(0,200)">
            <path d="M683.857,111 C683.857,121.415 675.415,129.857 665,129.857 C663.843,129.857 662.905,130.795 662.905,131.952 C662.905,133.11 663.843,134.048 665,134.048 C677.729,134.048 688.048,123.729 688.048,111 C688.048,109.843 687.109,108.905 685.952,108.905 C684.795,108.905 683.857,109.843 683.857,111 Z M688.048,111 C688.048,98.271 677.729,87.952 665,87.952 C663.843,87.952 662.905,88.89 662.905,90.048 C662.905,91.205 663.843,92.143 665,92.143 C675.415,92.143 683.857,100.585 683.857,111 C683.857,112.157 684.795,113.095 685.952,113.095 C687.109,113.095 688.048,112.157 688.048,111 Z M685.952,108.905 L677.571,108.905 C676.414,108.905 675.476,109.843 675.476,111 C675.476,112.157 676.414,113.095 677.571,113.095 L685.952,113.095 C687.109,113.095 688.048,112.157 688.048,111 C688.048,109.843 687.109,108.905 685.952,108.905 Z M665,129.857 C654.585,129.857 646.143,121.415 646.143,111 C646.143,109.843 645.205,108.905 644.048,108.905 C642.89,108.905 641.952,109.843 641.952,111 C641.952,123.729 652.271,134.048 665,134.048 C666.157,134.048 667.095,133.11 667.095,131.952 C667.095,130.795 666.157,129.857 665,129.857 Z M667.095,131.952 L667.095,123.571 C667.095,122.414 666.157,121.476 665,121.476 C663.843,121.476 662.905,122.414 662.905,123.571 L662.905,131.952 C662.905,133.11 663.843,134.048 665,134.048 C666.157,134.048 667.095,133.11 667.095,131.952 Z M646.143,111 C646.143,100.585 654.585,92.143 665,92.143 C666.157,92.143 667.095,91.205 667.095,90.048 C667.095,88.89 666.157,87.952 665,87.952 C652.271,87.952 641.952,98.271 641.952,111 C641.952,112.157 642.89,113.095 644.048,113.095 C645.205,113.095 646.143,112.157 646.143,111 Z M644.048,113.095 L652.429,113.095 C653.586,113.095 654.524,112.157 654.524,111 C654.524,109.843 653.586,108.905 652.429,108.905 L644.048,108.905 C642.89,108.905 641.952,109.843 641.952,111 C641.952,112.157 642.89,113.095 644.048,113.095 Z M662.905,90.048 L662.905,98.429 C662.905,99.586 663.843,100.524 665,100.524 C666.157,100.524 667.095,99.586 667.095,98.429 L667.095,90.048 C667.095,88.89 666.157,87.952 665,87.952 C663.843,87.952 662.905,88.89 662.905,90.048 Z" />
        </g>
    </g>
</svg>