<?xml version="1.0" encoding="UTF-8"?>
<svg height="600" width="800" xmlns="http://www.w3.org/2000/svg" xmlns:xlink="http://www.w3.org/1999/xlink">
    <g id="Notes" font-family="LucidaGrande, 'Lucida Grande', sans-serif" font-size="13">
        <rect fill="white" height="600.0" width="800.0" x="0.0" y="0.0" />
        <g font-size="13">
            <text x="18.0" y="176.0">Small</text>
            <text x="18.0" y="376.0">Medium</text>
            <text x="18.0" y="576.0">Large</text>
        </g>
        <g font-size="9">
            <text x="250.0" y="30.0">Ultralight</text>
            <text x="450.0" y="30.0">Regular</text>
            <text x="650.0" y="30.0">Black</text>
            <text id="template-version" fill="#505050" text-anchor="end" x="785.0" y="575.0">Template v.3.0</text>
            <a href="https://github.com/swhitty/SwiftDraw">
                <text fill="#505050" text-anchor="end" x="785.0" y="590.0">https://github.com/swhitty/SwiftDraw</text>
            </a>
        </g>
    </g>
    <g id="Guides" stroke="rgb(39, 170, 225)" stroke-width="0.5">
        <path id="Capline-S" d="M18,76 l800,0" />
        <path id="H-reference" d="M85,145.755 L87.685,145.755 L113.369,79.287 L114.052,79.287 L114.052,76 L112.148,76 L85,145.755 Z M95.693,121.536 L130.996,121.536 L130.263,119.313 L96.474,119.313 L95.693,121.536 Z M139.15,145.755 L141.787,145.755 L114.638,76 L113.466,76 L113.466,79.287 L139.15,145.755 Z" stroke="none" transform="translate(0,200)" />
        <path id="Baseline-S" d="M18,146 l800,0" />
        <path id="left-margin-Ultralight-M" d="M230,256 l0,110" />
        <path id="right-margin-Ultralight-M" d="M300,256 l0,110" />
        <path id="left-margin-Regular-M" d="M430,256 l0,110" />
        <path id="right-margin-Regular-M" d="M500,256 l0,110" />
        <path id="left-margin-Black-M" d="M630,256 l0,110" />
        <path id="right-margin-Black-M" d="M700,256 l0,110" />
        <path id="Capline-M" d="M18,276 l800,0" />
        <path id="Baseline-M" d="M18,346 l800,0" />
        <path id="Capline-L" d="M18,476 l800,0" />
        <path id="Baseline-L" d="M18,546 l800,0" />
    </g>
    <g id="Symbols">
        <g id="Ultralight-M" transform="translate(0,200)">
            <path d="M249.444,104.008 L249.444,97.009 C249.44,90.374 254.608,84.65 261.823,83.295 C269.038,81.941 276.319,85.328 279.262,91.409 C280.119,93.181 282.411,93.991 284.38,93.22 C286.349,92.448 287.25,90.386 286.393,88.614 C281.978,79.494 271.057,74.413 260.235,76.444 C249.412,78.476 241.66,87.063 241.667,97.011 L241.667,104.008 C241.667,105.941 243.408,107.507 245.556,107.507 C247.703,107.507 249.444,105.941 249.444,104.008 Z M261.111,119.755 L261.111,126.754 C261.111,128.686 262.852,130.253 265,130.253 C267.148,130.253 268.889,128.686 268.889,126.754 L268.889,119.755 C268.889,117.822 267.148,116.256 265,116.256 C262.852,116.256 261.111,117.822 261.111,119.755 Z M252.556,146 L277.444,146 C286.392,146 288.519,145.844 291.506,144.475 C294.434,143.132 296.813,140.991 298.304,138.357 C299.826,135.669 300,133.756 300,125.704 L300,120.805 C300,112.753 299.826,110.84 298.305,108.152 C296.813,105.517 294.434,103.376 291.507,102.034 C288.519,100.665 286.392,100.509 277.444,100.509 L252.556,100.509 C243.608,100.509 241.481,100.665 238.494,102.034 C235.566,103.376 233.187,105.517 231.696,108.151 C230.174,110.84 230,112.753 230,120.805 L230,125.704 C230,133.756 230.174,135.669 231.695,138.357 C233.187,140.991 235.566,143.132 238.493,144.474 C241.481,145.844 243.608,146 252.556,146 Z M252.556,139.001 C245.17,139.001 243.406,138.872 242.024,138.238 C240.561,137.568 239.371,136.497 238.626,135.18 C237.922,133.937 237.778,132.349 237.778,125.704 L237.778,120.805 C237.778,114.159 237.922,112.572 238.626,111.328 C239.371,110.012 240.561,108.941 242.024,108.27 C243.406,107.637 245.17,107.507 252.556,107.507 L277.444,107.507 C284.83,107.507 286.594,107.637 287.976,108.27 C289.439,108.941 290.629,110.012 291.374,111.329 C292.078,112.572 292.222,114.159 292.222,120.805 L292.222,125.704 C292.222,132.349 292.078,133.937 291.374,135.181 C290.629,136.497 289.439,137.567 287.976,138.238 C286.594,138.872 284.83,139.001 277.444,139.001 L252.556,139.001 Z" />
        </g>
        <g id="Regular-M" transform="translate(0,200)">
            <path d="M449.444,104.008 L449.444,97.009 C449.44,90.374 454.608,84.65 461.823,83.295 C469.038,81.941 476.319,85.328 479.262,91.409 C480.119,93.181 482.411,93.991 484.38,93.22 C486.349,92.448 487.25,90.386 486.393,88.614 C481.978,79.494 471.057,74.413 460.235,76.444 C449.412,78.476 441.66,87.063 441.667,97.011 L441.667,104.008 C441.667,105.941 443.408,107.507 445.556,107.507 C447.703,107.507 449.444,105.941 449.444,104.008 Z M461.111,119.755 L461.111,126.754 C461.111,128.686 462.852,130.253 465,130.253 C467.148,130.253 468.889,128.686 468.889,126.754 L468.889,119.755 C468.889,117.822 467.148,116.256 465,116.256 C462.852,116.256 461.111,117.822 461.111,119.755 Z M452.556,146 L477.444,146 C486.392,146 488.519,145.844 491.506,144.475 C494.434,143.132 496.813,140.991 498.304,138.357 C499.826,135.669 500,133.756 500,125.704 L500,120.805 C500,112.753 499.826,110.84 498.305,108.152 C496.813,105.517 494.434,103.376 491.507,102.034 C488.519,100.665 486.392,100.509 477.444,100.509 L452.556,100.509 C443.608,100.509 441.481,100.665 438.494,102.034 C435.566,103.376 433.187,105.517 431.696,108.151 C430.174,110.84 430,112.753 430,120.805 L430,125.704 C430,133.756 430.174,135.669 431.695,138.357 C433.187,140.991 435.566,143.132 438.493,144.474 C441.481,145.844 443.608,146 452.556,146 Z M452.556,139.001 C445.17,139.001 443.406,138.872 442.024,138.238 C440.561,137.568 439.371,136.497 438.626,135.18 C437.922,133.937 437.778,132.349 437.778,125.704 L437.778,120.805 C437.778,114.159 437.922,112.572 438.626,111.328 C439.371,110.012 440.561,108.941 442.024,108.27 C443.406,107.637 445.17,107.507 452.556,107.507 L477.444,107.507 C484.83,107.507 486.594,107.637 487.976,108.27 C489.439,108.941 490.629,110.012 491.374,111.329 C492.078,112.572 492.222,114.159 492.222,120.805 L492.222,125.704 C492.222,132.349 492.078,133.937 491.374,135.181 C490.629,136.497 489.439,137.567 487.976,138.238 C486.594,138.872 484.83,139.001 477.444,139.001 L452.556,139.001 Z" />
        </g>
        <g id="Black-M" transform="translate(0,200)">
            <path d="M649.444,104.008 L649.444,97.009 C649.44,90.374 654.608,84.65 661.823,83.295 C669.038,81.941 676.319,85.328 679.262,91.409 C680.119,93.181 682.411,93.991 684.38,93.22 C686.349,92.448 687.25,90.386 686.393,88.614 C681.978,79.494 671.057,74.413 660.235,76.444 C649.412,78.476 641.66,87.063 641.667,97.011 L641.667,104.008 C641.667,105.941 643.408,107.507 645.556,107.507 C647.703,107.507 649.444,105.941 649.444,104.008 Z M661.111,119.755 L661.111,126.754 C661.111,128.686 662.852,130.253 665,130.253 C667.148,130.253 668.889,128.686 668.889,126.754 L668.889,119.755 C668.889,117.822 667.148,116.256 665,116.256 C662.852,116.256 661.111,117.822 661.111,119.755 Z M652.556,146 L677.444,146 C686.393,146 688.519,145.844 691.506,144.475 C694.434,143.132 696.813,140.991 698.304,138.357 C699.826,135.669 700,133.756 700,125.704 L700,120.805 C700,112.753 699.826,110.84 698.305,108.152 C696.813,105.517 694.434,103.376 691.507,102.034 C688.519,100.665 686.393,100.509 677.444,100.509 L652.556,100.509 C643.607,100.509 641.481,100.665 638.494,102.034 C635.566,103.376 633.187,105.517 631.696,108.151 C630.174,110.84 630,112.753 630,120.805 L630,125.704 C630,133.756 630.174,135.669 631.695,138.357 C633.187,140.991 635.566,143.132 638.493,144.474 C641.481,145.844 643.608,146 652.556,146 Z M652.556,139.001 C645.17,139.001 643.406,138.872 642.024,138.238 C640.561,137.568 639.371,136.497 638.626,135.18 C637.922,133.937 637.778,132.349 637.778,125.704 L637.778,120.805 C637.778,114.159 637.922,112.572 638.626,111.328 C639.371,110.012 640.561,108.941 642.024,108.27 C643.406,107.637 645.17,107.507 652.556,107.507 L677.444,107.507 C684.83,107.507 686.594,107.637 687.976,108.27 C689.439,108.941 690.629,110.012 691.374,111.329 C692.078,112.572 692.222,114.159 692.222,120.805 L692.222,125.704 C692.222,132.349 692.078,133.937 691.374,135.181 C690.629,136.497 689.439,137.567 687.976,138.238 C686.594,138.872 684.83,139.001 677.444,139.001 L652.556,139.001 Z" />
        </g>
    </g>
</svg>