<?xml version="1.0" encoding="UTF-8"?>
<svg height="600" width="800" xmlns="http://www.w3.org/2000/svg" xmlns:xlink="http://www.w3.org/1999/xlink">
    <g id="Notes" font-family="LucidaGrande, 'Lucida Grande', sans-serif" font-size="13">
        <rect fill="white" height="600.0" width="800.0" x="0.0" y="0.0" />
        <g font-size="13">
            <text x="18.0" y="176.0">Small</text>
            <text x="18.0" y="376.0">Medium</text>
            <text x="18.0" y="576.0">Large</text>
        </g>
        <g font-size="9">
            <text x="250.0" y="30.0">Ultralight</text>
            <text x="450.0" y="30.0">Regular</text>
            <text x="650.0" y="30.0">Black</text>
            <text id="template-version" fill="#505050" text-anchor="end" x="785.0" y="575.0">Template v.3.0</text>
            <a href="https://github.com/swhitty/SwiftDraw">
                <text fill="#505050" text-anchor="end" x="785.0" y="590.0">https://github.com/swhitty/SwiftDraw</text>
            </a>
        </g>
    </g>
    <g id="Guides" stroke="rgb(39, 170, 225)" stroke-width="0.5">
        <path id="Capline-S" d="M18,76 l800,0" />
        <path id="H-reference" d="M85,145.755 L87.685,145.755 L113.369,79.287 L114.052,79.287 L114.052,76 L112.148,76 L85,145.755 Z M95.693,121.536 L130.996,121.536 L130.263,119.313 L96.474,119.313 L95.693,121.536 Z M139.15,145.755 L141.787,145.755 L114.638,76 L113.466,76 L113.466,79.287 L139.15,145.755 Z" stroke="none" transform="translate(0,200)" />
        <path id="Baseline-S" d="M18,146 l800,0" />
        <path id="left-margin-Ultralight-M" d="M230,256 l0,110" />
        <path id="right-margin-Ultralight-M" d="M300,256 l0,110" />
        <path id="left-margin-Regular-M" d="M430,256 l0,110" />
        <path id="right-margin-Regular-M" d="M500,256 l0,110" />
        <path id="left-margin-Black-M" d="M630,256 l0,110" />
        <path id="right-margin-Black-M" d="M700,256 l0,110" />
        <path id="Capline-M" d="M18,276 l800,0" />
        <path id="Baseline-M" d="M18,346 l800,0" />
        <path id="Capline-L" d="M18,476 l800,0" />
        <path id="Baseline-L" d="M18,546 l800,0" />
    </g>
    <g id="Symbols">
        <g id="Ultralight-M" transform="translate(0,200)">
            <path d="M236.364,111 L236.364,114.182 C236.364,126.234 243.906,136.995 255.233,141.105 C266.56,145.215 279.248,141.794 286.974,132.548 C288.101,131.2 287.921,129.193 286.573,128.066 C285.224,126.94 283.218,127.119 282.091,128.468 C276.081,135.659 266.213,138.319 257.404,135.123 C248.593,131.926 242.727,123.557 242.727,114.182 L242.727,111 C242.727,109.243 241.303,107.818 239.545,107.818 C237.788,107.818 236.364,109.243 236.364,111 Z M230.932,81.432 L294.568,145.068 C295.811,146.311 297.826,146.311 299.068,145.068 C300.311,143.825 300.311,141.811 299.068,140.568 L235.432,76.932 C234.189,75.689 232.175,75.689 230.932,76.932 C229.689,78.175 229.689,80.189 230.932,81.432 Z M280.909,105.909 L280.909,95.091 C280.912,88.947 277.375,83.35 271.823,80.714 C266.272,78.078 259.698,78.875 254.938,82.762 C253.577,83.874 253.374,85.878 254.486,87.239 C255.597,88.6 257.602,88.803 258.963,87.691 C261.819,85.359 265.763,84.881 269.094,86.462 C272.425,88.044 274.547,91.403 274.545,95.089 L274.545,105.909 C274.545,107.666 275.97,109.091 277.727,109.091 C279.485,109.091 280.909,107.666 280.909,105.909 Z M265,123.727 C262.468,123.727 260.04,122.722 258.25,120.931 C256.46,119.141 255.455,116.713 255.455,114.182 L255.455,98.273 L250.022,100.522 L273.189,123.711 L272.828,119.644 C271.045,122.204 268.122,123.729 265.002,123.727 Z M264.998,130.091 C270.201,130.094 275.077,127.55 278.051,123.28 C278.931,122.016 278.779,120.303 277.691,119.213 L254.524,96.024 C252.52,94.018 249.091,95.437 249.091,98.273 L249.091,114.182 C249.091,118.401 250.767,122.448 253.751,125.431 C256.734,128.415 260.781,130.091 265,130.091 Z" />
        </g>
        <g id="Regular-M" transform="translate(0,200)">
            <path d="M436.364,111 L436.364,114.182 C436.364,126.234 443.906,136.995 455.233,141.105 C466.56,145.215 479.248,141.794 486.974,132.548 C488.101,131.2 487.921,129.193 486.573,128.066 C485.224,126.94 483.218,127.119 482.091,128.468 C476.081,135.659 466.213,138.319 457.404,135.123 C448.593,131.926 442.727,123.557 442.727,114.182 L442.727,111 C442.727,109.243 441.303,107.818 439.545,107.818 C437.788,107.818 436.364,109.243 436.364,111 Z M430.932,81.432 L494.568,145.068 C495.811,146.311 497.826,146.311 499.068,145.068 C500.311,143.825 500.311,141.811 499.068,140.568 L435.432,76.932 C434.189,75.689 432.174,75.689 430.932,76.932 C429.689,78.175 429.689,80.189 430.932,81.432 Z M480.909,105.909 L480.909,95.091 C480.912,88.947 477.375,83.35 471.823,80.714 C466.272,78.078 459.698,78.875 454.938,82.762 C453.577,83.874 453.374,85.878 454.486,87.239 C455.597,88.6 457.602,88.803 458.963,87.691 C461.819,85.359 465.763,84.881 469.094,86.462 C472.425,88.044 474.547,91.403 474.545,95.089 L474.545,105.909 C474.545,107.666 475.97,109.091 477.727,109.091 C479.485,109.091 480.909,107.666 480.909,105.909 Z M465,123.727 C462.468,123.727 460.04,122.722 458.25,120.931 C456.46,119.141 455.455,116.713 455.455,114.182 L455.455,98.273 L450.022,100.522 L473.189,123.711 L472.828,119.644 C471.045,122.204 468.122,123.729 465.002,123.727 Z M464.998,130.091 C470.201,130.094 475.077,127.55 478.051,123.28 C478.931,122.016 478.779,120.303 477.691,119.213 L454.524,96.024 C452.52,94.018 449.091,95.437 449.091,98.273 L449.091,114.182 C449.091,118.401 450.767,122.448 453.751,125.431 C456.734,128.415 460.781,130.091 465,130.091 Z" />
        </g>
        <g id="Black-M" transform="translate(0,200)">
            <path d="M636.364,111 L636.364,114.182 C636.364,126.234 643.906,136.995 655.233,141.105 C666.56,145.215 679.248,141.794 686.974,132.548 C688.101,131.2 687.921,129.193 686.573,128.066 C685.224,126.94 683.218,127.119 682.091,128.468 C676.081,135.659 666.213,138.319 657.404,135.123 C648.593,131.926 642.727,123.557 642.727,114.182 L642.727,111 C642.727,109.243 641.303,107.818 639.545,107.818 C637.788,107.818 636.364,109.243 636.364,111 Z M630.932,81.432 L694.568,145.068 C695.811,146.311 697.826,146.311 699.068,145.068 C700.311,143.825 700.311,141.811 699.068,140.568 L635.432,76.932 C634.189,75.689 632.174,75.689 630.932,76.932 C629.689,78.175 629.689,80.189 630.932,81.432 Z M680.909,105.909 L680.909,95.091 C680.912,88.947 677.375,83.35 671.823,80.714 C666.272,78.078 659.698,78.875 654.938,82.762 C653.577,83.874 653.374,85.878 654.486,87.239 C655.597,88.6 657.602,88.803 658.963,87.691 C661.819,85.359 665.763,84.881 669.094,86.462 C672.425,88.044 674.547,91.403 674.545,95.089 L674.545,105.909 C674.545,107.666 675.97,109.091 677.727,109.091 C679.485,109.091 680.909,107.666 680.909,105.909 Z M665,123.727 C662.468,123.727 660.04,122.722 658.25,120.931 C656.46,119.141 655.455,116.713 655.455,114.182 L655.455,98.273 L650.022,100.522 L673.189,123.711 L672.828,119.644 C671.045,122.204 668.122,123.729 665.002,123.727 Z M664.998,130.091 C670.201,130.094 675.077,127.55 678.051,123.28 C678.931,122.016 678.779,120.303 677.69,119.213 L654.524,96.024 C652.52,94.018 649.091,95.437 649.091,98.273 L649.091,114.182 C649.091,118.401 650.767,122.448 653.751,125.431 C656.734,128.415 660.781,130.091 665,130.091 Z" />
        </g>
    </g>
</svg>