<?xml version="1.0" encoding="UTF-8"?>
<svg height="600" width="800" xmlns="http://www.w3.org/2000/svg" xmlns:xlink="http://www.w3.org/1999/xlink">
    <g id="Notes" font-family="LucidaGrande, 'Lucida Grande', sans-serif" font-size="13">
        <rect fill="white" height="600.0" width="800.0" x="0.0" y="0.0" />
        <g font-size="13">
            <text x="18.0" y="176.0">Small</text>
            <text x="18.0" y="376.0">Medium</text>
            <text x="18.0" y="576.0">Large</text>
        </g>
        <g font-size="9">
            <text x="250.0" y="30.0">Ultralight</text>
            <text x="450.0" y="30.0">Regular</text>
            <text x="650.0" y="30.0">Black</text>
            <text id="template-version" fill="#505050" text-anchor="end" x="785.0" y="575.0">Template v.3.0</text>
            <a href="https://github.com/swhitty/SwiftDraw">
                <text fill="#505050" text-anchor="end" x="785.0" y="590.0">https://github.com/swhitty/SwiftDraw</text>
            </a>
        </g>
    </g>
    <g id="Guides" stroke="rgb(39, 170, 225)" stroke-width="0.5">
        <path id="Capline-S" d="M18,76 l800,0" />
        <path id="H-reference" d="M85,145.755 L87.685,145.755 L113.369,79.287 L114.052,79.287 L114.052,76 L112.148,76 L85,145.755 Z M95.693,121.536 L130.996,121.536 L130.263,119.313 L96.474,119.313 L95.693,121.536 Z M139.15,145.755 L141.787,145.755 L114.638,76 L113.466,76 L113.466,79.287 L139.15,145.755 Z" stroke="none" transform="translate(0,200)" />
        <path id="Baseline-S" d="M18,146 l800,0" />
        <path id="left-margin-Ultralight-M" d="M230,256 l0,110" />
        <path id="right-margin-Ultralight-M" d="M300,256 l0,110" />
        <path id="left-margin-Regular-M" d="M430,256 l0,110" />
        <path id="right-margin-Regular-M" d="M500,256 l0,110" />
        <path id="left-margin-Black-M" d="M630,256 l0,110" />
        <path id="right-margin-Black-M" d="M700,256 l0,110" />
        <path id="Capline-M" d="M18,276 l800,0" />
        <path id="Baseline-M" d="M18,346 l800,0" />
        <path id="Capline-L" d="M18,476 l800,0" />
        <path id="Baseline-L" d="M18,546 l800,0" />
    </g>
    <g id="Symbols">
        <g id="Ultralight-M" transform="translate(0,200)">
            <path d="M272.54,92.032 L253.429,97.638 C252.639,97.87 252.416,97.938 252.08,98.062 C251.598,98.238 251.186,98.436 250.783,98.705 C250.091,99.168 249.496,99.768 249.034,100.469 C248.559,101.189 248.403,101.618 247.943,103.159 L236.336,141.882 C235.832,143.562 236.751,145.342 238.387,145.859 C240.023,146.376 241.757,145.433 242.261,143.754 L253.868,105.028 C254.118,104.19 254.183,104.012 254.166,104.038 C254.166,104.038 254.166,104.038 254.166,104.038 C254.118,104.07 254.103,104.077 254.16,104.056 C254.318,103.998 254.501,103.942 255.134,103.756 L274.243,98.15 C275.889,97.667 276.842,95.906 276.372,94.217 C275.902,92.527 274.186,91.549 272.54,92.032 Z M240.21,145.859 L277.93,133.943 C279.419,133.476 279.843,133.314 280.544,132.83 C281.24,132.344 281.822,131.734 282.27,131.025 C282.531,130.615 282.724,130.192 282.896,129.697 C283.016,129.351 283.082,129.122 283.308,128.313 L288.77,108.692 C289.24,107.003 288.287,105.242 286.641,104.759 C284.995,104.276 283.28,105.254 282.809,106.944 L277.348,126.563 C277.167,127.211 277.113,127.399 277.056,127.562 C277.036,127.62 277.043,127.605 277.073,127.557 C277.072,127.559 277.072,127.559 277.072,127.559 C277.106,127.536 276.931,127.602 276.111,127.86 L238.387,139.777 C236.751,140.294 235.832,142.074 236.336,143.754 C236.839,145.434 238.574,146.376 240.21,145.859 Z M241.49,145.068 L261.903,124.113 C263.113,122.87 263.113,120.855 261.903,119.613 C260.692,118.37 258.73,118.37 257.519,119.613 L237.107,140.568 C235.896,141.811 235.896,143.825 237.107,145.068 C238.317,146.311 240.279,146.311 241.49,145.068 Z M245.497,98.273 L245.497,79.182 C245.497,77.425 244.109,76 242.398,76 C240.686,76 239.298,77.425 239.298,79.182 L239.298,98.273 C239.298,100.03 240.686,101.455 242.398,101.455 C244.109,101.455 245.497,100.03 245.497,98.273 Z M233.099,91.909 L251.696,91.909 C253.408,91.909 254.795,90.485 254.795,88.727 C254.795,86.97 253.408,85.545 251.696,85.545 L233.099,85.545 C231.388,85.545 230,86.97 230,88.727 C230,90.485 231.388,91.909 233.099,91.909 Z M296.873,95.606 L285.285,83.709 C283.597,81.977 283.149,81.567 282.166,81.081 C281.95,80.974 281.729,80.883 281.502,80.807 C280.258,80.392 278.917,80.392 277.672,80.808 C277.446,80.883 277.225,80.974 277.009,81.081 C276.026,81.567 275.578,81.977 273.89,83.709 L271.603,86.057 C269.916,87.789 269.517,88.249 269.043,89.259 C268.939,89.481 268.85,89.707 268.776,89.94 C268.372,91.218 268.372,92.594 268.777,93.872 C268.85,94.104 268.939,94.331 269.043,94.553 C269.517,95.562 269.916,96.022 271.603,97.754 L283.189,109.648 C284.876,111.38 285.324,111.79 286.307,112.276 C286.523,112.383 286.744,112.474 286.971,112.55 C288.215,112.965 289.556,112.965 290.801,112.55 C291.027,112.474 291.248,112.383 291.464,112.276 C292.448,111.79 292.896,111.38 294.583,109.648 L296.87,107.3 C298.557,105.568 298.957,105.108 299.43,104.098 C299.534,103.877 299.623,103.65 299.697,103.417 C300.101,102.14 300.101,100.763 299.697,99.485 C299.623,99.253 299.534,99.026 299.43,98.804 C298.957,97.795 298.557,97.335 296.87,95.603 L294.678,97.853 L292.487,100.103 L292.49,100.106 L294.682,97.856 L296.873,95.606 Z M292.49,100.106 C295.412,103.106 299.795,98.606 296.873,95.606 L296.87,95.603 C293.948,92.603 289.565,97.103 292.487,100.103 C293.535,101.178 293.815,101.502 293.845,101.566 C293.83,101.532 293.814,101.493 293.801,101.45 C293.801,101.451 293.801,101.451 293.801,101.451 C293.814,101.41 293.83,101.371 293.845,101.337 C293.815,101.401 293.535,101.725 292.487,102.8 L290.2,105.148 C289.152,106.224 288.837,106.512 288.774,106.543 C288.807,106.527 288.845,106.511 288.887,106.497 C288.886,106.498 288.886,106.498 288.886,106.498 C288.926,106.511 288.964,106.527 288.997,106.543 C288.935,106.512 288.62,106.224 287.572,105.148 L275.986,93.255 C274.939,92.179 274.658,91.856 274.628,91.791 C274.643,91.825 274.659,91.864 274.672,91.907 C274.672,91.906 274.672,91.906 274.672,91.906 C274.659,91.948 274.643,91.987 274.628,92.02 C274.658,91.956 274.939,91.633 275.986,90.557 L278.274,88.209 C279.321,87.133 279.636,86.845 279.699,86.814 C279.666,86.83 279.628,86.846 279.587,86.86 C279.587,86.86 279.587,86.86 279.587,86.86 C279.547,86.846 279.509,86.83 279.476,86.814 C279.539,86.845 279.854,87.133 280.901,88.209 L292.49,100.106 Z M264.094,114.182 C265.805,114.182 267.193,115.606 267.193,117.364 C267.193,119.121 265.805,120.545 264.094,120.545 C262.382,120.545 260.994,119.121 260.994,117.364 C260.994,115.606 262.382,114.182 264.094,114.182 Z M264.094,107.818 C258.958,107.818 254.795,112.092 254.795,117.364 C254.795,122.635 258.958,126.909 264.094,126.909 C269.229,126.909 273.392,122.635 273.392,117.364 C273.392,112.092 269.229,107.818 264.094,107.818 Z" />
        </g>
        <g id="Regular-M" transform="translate(0,200)">
            <path d="M472.54,92.032 L453.429,97.638 C452.639,97.87 452.416,97.938 452.08,98.062 C451.598,98.238 451.186,98.436 450.783,98.705 C450.091,99.168 449.496,99.768 449.034,100.469 C448.559,101.189 448.403,101.618 447.943,103.159 L436.336,141.882 C435.832,143.562 436.751,145.342 438.387,145.859 C440.023,146.376 441.757,145.433 442.261,143.754 L453.868,105.028 C454.118,104.19 454.183,104.012 454.166,104.038 C454.166,104.038 454.166,104.038 454.166,104.038 C454.118,104.07 454.103,104.077 454.16,104.056 C454.318,103.998 454.501,103.942 455.134,103.756 L474.243,98.15 C475.889,97.667 476.842,95.906 476.372,94.217 C475.902,92.527 474.186,91.549 472.54,92.032 Z M440.21,145.859 L477.93,133.943 C479.419,133.476 479.843,133.314 480.544,132.83 C481.24,132.344 481.822,131.734 482.27,131.025 C482.531,130.615 482.724,130.192 482.896,129.697 C483.016,129.351 483.082,129.122 483.308,128.313 L488.77,108.692 C489.24,107.003 488.287,105.242 486.641,104.759 C484.995,104.276 483.28,105.254 482.809,106.944 L477.348,126.563 C477.167,127.211 477.113,127.399 477.056,127.562 C477.036,127.62 477.043,127.605 477.073,127.557 C477.072,127.559 477.072,127.559 477.072,127.559 C477.106,127.536 476.931,127.602 476.111,127.86 L438.387,139.777 C436.751,140.294 435.832,142.074 436.336,143.754 C436.839,145.434 438.574,146.376 440.21,145.859 Z M441.49,145.068 L461.903,124.113 C463.113,122.87 463.113,120.855 461.903,119.613 C460.692,118.37 458.73,118.37 457.519,119.613 L437.107,140.568 C435.896,141.811 435.896,143.825 437.107,145.068 C438.317,146.311 440.279,146.311 441.49,145.068 Z M445.497,98.273 L445.497,79.182 C445.497,77.425 444.109,76 442.398,76 C440.686,76 439.298,77.425 439.298,79.182 L439.298,98.273 C439.298,100.03 440.686,101.455 442.398,101.455 C444.109,101.455 445.497,100.03 445.497,98.273 Z M433.099,91.909 L451.696,91.909 C453.408,91.909 454.795,90.485 454.795,88.727 C454.795,86.97 453.408,85.545 451.696,85.545 L433.099,85.545 C431.388,85.545 430,86.97 430,88.727 C430,90.485 431.388,91.909 433.099,91.909 Z M496.873,95.606 L485.285,83.709 C483.597,81.977 483.149,81.567 482.166,81.081 C481.95,80.974 481.729,80.883 481.502,80.807 C480.258,80.392 478.917,80.392 477.672,80.808 C477.446,80.883 477.225,80.974 477.009,81.081 C476.026,81.567 475.578,81.977 473.89,83.709 L471.603,86.057 C469.916,87.789 469.517,88.249 469.043,89.259 C468.939,89.481 468.85,89.707 468.776,89.94 C468.372,91.218 468.372,92.594 468.777,93.872 C468.85,94.104 468.939,94.331 469.043,94.553 C469.517,95.562 469.916,96.022 471.603,97.754 L483.189,109.648 C484.876,111.38 485.324,111.79 486.307,112.276 C486.523,112.383 486.744,112.474 486.971,112.55 C488.215,112.965 489.556,112.965 490.801,112.55 C491.027,112.474 491.248,112.383 491.464,112.276 C492.448,111.79 492.896,111.38 494.583,109.648 L496.87,107.3 C498.557,105.568 498.957,105.108 499.43,104.098 C499.534,103.877 499.623,103.65 499.697,103.417 C500.101,102.14 500.101,100.763 499.697,99.485 C499.623,99.253 499.534,99.026 499.43,98.804 C498.957,97.795 498.557,97.335 496.87,95.603 L494.678,97.853 L492.487,100.103 L492.49,100.106 L494.682,97.856 L496.873,95.606 Z M492.49,100.106 C495.412,103.106 499.795,98.606 496.873,95.606 L496.87,95.603 C493.948,92.603 489.565,97.103 492.487,100.103 C493.535,101.178 493.815,101.502 493.845,101.566 C493.83,101.532 493.814,101.493 493.801,101.45 C493.801,101.451 493.801,101.451 493.801,101.451 C493.814,101.41 493.83,101.371 493.845,101.337 C493.815,101.401 493.535,101.725 492.487,102.8 L490.2,105.148 C489.152,106.224 488.837,106.512 488.774,106.543 C488.807,106.527 488.845,106.511 488.887,106.497 C488.886,106.498 488.886,106.498 488.886,106.498 C488.926,106.511 488.964,106.527 488.997,106.543 C488.935,106.512 488.62,106.224 487.572,105.148 L475.986,93.255 C474.939,92.179 474.658,91.856 474.628,91.791 C474.643,91.825 474.659,91.864 474.672,91.907 C474.672,91.906 474.672,91.906 474.672,91.906 C474.659,91.948 474.643,91.987 474.628,92.02 C474.658,91.956 474.939,91.633 475.986,90.557 L478.274,88.209 C479.321,87.133 479.636,86.845 479.699,86.814 C479.666,86.83 479.628,86.846 479.587,86.86 C479.587,86.86 479.587,86.86 479.587,86.86 C479.547,86.846 479.509,86.83 479.476,86.814 C479.539,86.845 479.854,87.133 480.901,88.209 L492.49,100.106 Z M464.094,114.182 C465.805,114.182 467.193,115.606 467.193,117.364 C467.193,119.121 465.805,120.545 464.094,120.545 C462.382,120.545 460.994,119.121 460.994,117.364 C460.994,115.606 462.382,114.182 464.094,114.182 Z M464.094,107.818 C458.958,107.818 454.795,112.092 454.795,117.364 C454.795,122.635 458.958,126.909 464.094,126.909 C469.229,126.909 473.392,122.635 473.392,117.364 C473.392,112.092 469.229,107.818 464.094,107.818 Z" />
        </g>
        <g id="Black-M" transform="translate(0,200)">
            <path d="M672.54,92.032 L653.429,97.638 C652.639,97.87 652.416,97.938 652.08,98.062 C651.598,98.238 651.186,98.436 650.783,98.705 C650.091,99.168 649.496,99.768 649.034,100.469 C648.559,101.189 648.403,101.618 647.943,103.159 L636.336,141.882 C635.832,143.562 636.751,145.342 638.387,145.859 C640.023,146.376 641.757,145.433 642.261,143.754 L653.868,105.028 C654.118,104.19 654.183,104.012 654.166,104.038 C654.166,104.038 654.166,104.038 654.166,104.038 C654.118,104.07 654.103,104.077 654.16,104.056 C654.318,103.998 654.501,103.942 655.134,103.756 L674.243,98.15 C675.889,97.667 676.842,95.906 676.372,94.217 C675.902,92.527 674.186,91.549 672.54,92.032 Z M640.21,145.859 L677.93,133.943 C679.419,133.476 679.843,133.314 680.544,132.83 C681.24,132.344 681.822,131.734 682.27,131.025 C682.531,130.615 682.724,130.192 682.896,129.697 C683.016,129.351 683.082,129.122 683.308,128.313 L688.77,108.692 C689.24,107.003 688.287,105.242 686.641,104.759 C684.995,104.276 683.28,105.254 682.809,106.944 L677.348,126.563 C677.167,127.211 677.113,127.399 677.056,127.562 C677.036,127.62 677.043,127.605 677.073,127.557 C677.072,127.559 677.072,127.559 677.072,127.559 C677.106,127.536 676.931,127.602 676.111,127.86 L638.387,139.777 C636.751,140.294 635.832,142.074 636.336,143.754 C636.839,145.434 638.574,146.376 640.21,145.859 Z M641.49,145.068 L661.903,124.113 C663.113,122.87 663.113,120.855 661.903,119.613 C660.692,118.37 658.73,118.37 657.519,119.613 L637.107,140.568 C635.896,141.811 635.896,143.825 637.107,145.068 C638.317,146.311 640.279,146.311 641.49,145.068 Z M645.497,98.273 L645.497,79.182 C645.497,77.425 644.109,76 642.398,76 C640.686,76 639.298,77.425 639.298,79.182 L639.298,98.273 C639.298,100.03 640.686,101.455 642.398,101.455 C644.109,101.455 645.497,100.03 645.497,98.273 Z M633.099,91.909 L651.696,91.909 C653.408,91.909 654.795,90.485 654.795,88.727 C654.795,86.97 653.408,85.545 651.696,85.545 L633.099,85.545 C631.388,85.545 630,86.97 630,88.727 C630,90.485 631.388,91.909 633.099,91.909 Z M696.873,95.606 L685.285,83.709 C683.597,81.977 683.149,81.567 682.166,81.081 C681.95,80.974 681.729,80.883 681.502,80.807 C680.258,80.392 678.917,80.392 677.672,80.808 C677.446,80.883 677.225,80.974 677.009,81.081 C676.026,81.567 675.578,81.977 673.89,83.709 L671.603,86.057 C669.916,87.789 669.517,88.249 669.043,89.259 C668.939,89.481 668.85,89.707 668.776,89.94 C668.372,91.218 668.372,92.594 668.777,93.872 C668.85,94.104 668.939,94.331 669.043,94.553 C669.517,95.562 669.916,96.022 671.603,97.754 L683.189,109.648 C684.876,111.38 685.324,111.79 686.307,112.276 C686.523,112.383 686.744,112.474 686.971,112.55 C688.215,112.965 689.556,112.965 690.801,112.55 C691.027,112.474 691.248,112.383 691.464,112.276 C692.448,111.79 692.896,111.38 694.583,109.648 L696.87,107.3 C698.557,105.568 698.957,105.108 699.43,104.098 C699.534,103.877 699.623,103.65 699.697,103.417 C700.101,102.14 700.101,100.763 699.697,99.485 C699.623,99.253 699.534,99.026 699.43,98.804 C698.957,97.795 698.557,97.335 696.87,95.603 L694.679,97.853 L692.487,100.103 L692.49,100.106 L694.682,97.856 L696.873,95.606 Z M692.49,100.106 C695.412,103.106 699.795,98.606 696.873,95.606 L696.87,95.603 C693.948,92.603 689.565,97.103 692.487,100.103 C693.535,101.178 693.815,101.502 693.845,101.566 C693.83,101.532 693.814,101.493 693.801,101.45 C693.801,101.451 693.801,101.451 693.801,101.451 C693.814,101.41 693.83,101.371 693.845,101.337 C693.815,101.401 693.535,101.725 692.487,102.8 L690.2,105.148 C689.152,106.224 688.837,106.512 688.774,106.543 C688.807,106.527 688.845,106.511 688.887,106.497 C688.886,106.498 688.886,106.498 688.886,106.498 C688.926,106.511 688.964,106.527 688.997,106.543 C688.935,106.512 688.62,106.224 687.572,105.148 L675.986,93.255 C674.939,92.179 674.658,91.856 674.628,91.791 C674.643,91.825 674.659,91.864 674.672,91.907 C674.672,91.906 674.672,91.906 674.672,91.906 C674.659,91.948 674.643,91.987 674.628,92.02 C674.658,91.956 674.939,91.633 675.986,90.557 L678.274,88.209 C679.321,87.133 679.636,86.845 679.699,86.814 C679.666,86.83 679.628,86.846 679.587,86.86 C679.587,86.86 679.587,86.86 679.587,86.86 C679.547,86.846 679.509,86.83 679.476,86.814 C679.539,86.845 679.854,87.133 680.901,88.209 L692.49,100.106 Z M664.094,114.182 C665.805,114.182 667.193,115.606 667.193,117.364 C667.193,119.121 665.805,120.545 664.094,120.545 C662.382,120.545 660.994,119.121 660.994,117.364 C660.994,115.606 662.382,114.182 664.094,114.182 Z M664.094,107.818 C658.958,107.818 654.795,112.092 654.795,117.364 C654.795,122.635 658.958,126.909 664.094,126.909 C669.229,126.909 673.392,122.635 673.392,117.364 C673.392,112.092 669.229,107.818 664.094,107.818 Z" />
        </g>
    </g>
</svg>