<?xml version="1.0" encoding="UTF-8"?>
<svg height="600" width="800" xmlns="http://www.w3.org/2000/svg" xmlns:xlink="http://www.w3.org/1999/xlink">
    <g id="Notes" font-family="LucidaGrande, 'Lucida Grande', sans-serif" font-size="13">
        <rect fill="white" height="600.0" width="800.0" x="0.0" y="0.0" />
        <g font-size="13">
            <text x="18.0" y="176.0">Small</text>
            <text x="18.0" y="376.0">Medium</text>
            <text x="18.0" y="576.0">Large</text>
        </g>
        <g font-size="9">
            <text x="250.0" y="30.0">Ultralight</text>
            <text x="450.0" y="30.0">Regular</text>
            <text x="650.0" y="30.0">Black</text>
            <text id="template-version" fill="#505050" text-anchor="end" x="785.0" y="575.0">Template v.3.0</text>
            <a href="https://github.com/swhitty/SwiftDraw">
                <text fill="#505050" text-anchor="end" x="785.0" y="590.0">https://github.com/swhitty/SwiftDraw</text>
            </a>
        </g>
    </g>
    <g id="Guides" stroke="rgb(39, 170, 225)" stroke-width="0.5">
        <path id="Capline-S" d="M18,76 l800,0" />
        <path id="H-reference" d="M85,145.755 L87.685,145.755 L113.369,79.287 L114.052,79.287 L114.052,76 L112.148,76 L85,145.755 Z M95.693,121.536 L130.996,121.536 L130.263,119.313 L96.474,119.313 L95.693,121.536 Z M139.15,145.755 L141.787,145.755 L114.638,76 L113.466,76 L113.466,79.287 L139.15,145.755 Z" stroke="none" transform="translate(0,200)" />
        <path id="Baseline-S" d="M18,146 l800,0" />
        <path id="left-margin-Ultralight-M" d="M230,256 l0,110" />
        <path id="right-margin-Ultralight-M" d="M300,256 l0,110" />
        <path id="left-margin-Regular-M" d="M430,256 l0,110" />
        <path id="right-margin-Regular-M" d="M500,256 l0,110" />
        <path id="left-margin-Black-M" d="M630,256 l0,110" />
        <path id="right-margin-Black-M" d="M700,256 l0,110" />
        <path id="Capline-M" d="M18,276 l800,0" />
        <path id="Baseline-M" d="M18,346 l800,0" />
        <path id="Capline-L" d="M18,476 l800,0" />
        <path id="Baseline-L" d="M18,546 l800,0" />
    </g>
    <g id="Symbols">
        <g id="Ultralight-M" transform="translate(0,200)">
            <path d="M254.19,142.021 C257.176,144.588 261.025,146.004 265.01,146 C269.04,146 272.851,144.569 275.82,142.024 C277.175,140.862 277.306,138.852 276.112,137.533 C274.918,136.214 272.852,136.087 271.497,137.249 C269.71,138.781 267.432,139.636 265.007,139.636 C262.615,139.639 260.309,138.791 258.52,137.252 C257.167,136.088 255.1,136.213 253.904,137.53 C252.709,138.846 252.836,140.857 254.19,142.021 Z M236.54,91.31 C236.51,87.835 238.419,84.618 241.526,82.905 C243.097,82.039 243.649,80.097 242.759,78.568 C241.869,77.039 239.874,76.502 238.303,77.368 C233.129,80.22 229.951,85.577 230.001,91.363 C230.016,93.12 231.492,94.533 233.298,94.518 C235.103,94.503 236.555,93.067 236.54,91.31 Z M299.999,91.363 C300.049,85.577 296.871,80.22 291.697,77.368 C290.126,76.502 288.131,77.039 287.241,78.568 C286.351,80.097 286.903,82.039 288.474,82.905 C291.581,84.618 293.49,87.835 293.46,91.31 C293.445,93.067 294.897,94.503 296.702,94.518 C298.508,94.533 299.984,93.12 299.999,91.363 Z M287.895,98.273 C287.895,85.972 277.647,76 265.007,76 C252.366,76 242.118,85.972 242.118,98.273 C242.118,106.43 240.299,112.785 237.216,117.608 C232.716,124.639 233.036,124.098 233.177,125.718 C233.294,127.196 233.905,128.266 235.153,129.158 C236.466,130.109 235.991,130.091 243.39,130.091 L286.623,130.091 C294.042,130.091 293.547,130.11 294.873,129.152 C296.115,128.247 296.72,127.19 296.838,125.693 C296.977,124.1 297.362,124.751 292.801,117.609 C289.715,112.787 287.895,106.432 287.895,98.273 Z M281.355,98.273 C281.355,107.607 283.51,115.128 287.248,120.97 C288.881,123.527 289.406,124.361 289.884,125.168 C290.141,125.603 290.313,125.917 290.401,126.106 C290.325,125.942 290.269,125.76 290.32,125.18 C290.345,124.862 290.697,124.245 290.965,124.05 C291.419,123.722 291.64,123.657 291.83,123.63 C291.671,123.653 291.376,123.675 290.952,123.691 C290.137,123.722 289.259,123.727 286.623,123.727 L243.39,123.727 C240.755,123.727 239.878,123.721 239.063,123.69 C238.641,123.674 238.347,123.652 238.189,123.629 C238.377,123.656 238.6,123.722 239.042,124.042 C239.312,124.235 239.668,124.859 239.695,125.205 C239.744,125.759 239.689,125.942 239.613,126.105 C239.701,125.916 239.872,125.602 240.129,125.167 C240.61,124.354 241.174,123.462 242.768,120.971 C246.504,115.125 248.658,107.604 248.658,98.273 C248.658,89.486 255.977,82.364 265.007,82.364 C274.036,82.364 281.355,89.486 281.355,98.273 Z" />
        </g>
        <g id="Regular-M" transform="translate(0,200)">
            <path d="M454.19,142.021 C457.176,144.588 461.025,146.004 465.01,146 C469.04,146 472.851,144.569 475.82,142.024 C477.175,140.862 477.306,138.852 476.112,137.533 C474.918,136.214 472.852,136.087 471.497,137.249 C469.71,138.781 467.432,139.636 465.007,139.636 C462.615,139.639 460.309,138.791 458.52,137.252 C457.167,136.088 455.1,136.213 453.904,137.53 C452.709,138.846 452.836,140.857 454.19,142.021 Z M436.54,91.31 C436.51,87.835 438.419,84.618 441.526,82.905 C443.097,82.039 443.649,80.097 442.759,78.568 C441.869,77.039 439.874,76.502 438.303,77.368 C433.129,80.22 429.951,85.577 430.001,91.363 C430.016,93.12 431.492,94.533 433.298,94.518 C435.103,94.503 436.555,93.067 436.54,91.31 Z M499.999,91.363 C500.049,85.577 496.871,80.22 491.697,77.368 C490.126,76.502 488.131,77.039 487.241,78.568 C486.351,80.097 486.903,82.039 488.474,82.905 C491.581,84.618 493.49,87.835 493.46,91.31 C493.445,93.067 494.897,94.503 496.702,94.518 C498.508,94.533 499.984,93.12 499.999,91.363 Z M487.895,98.273 C487.895,85.972 477.647,76 465.007,76 C452.366,76 442.118,85.972 442.118,98.273 C442.118,106.43 440.299,112.785 437.216,117.608 C432.716,124.639 433.036,124.098 433.177,125.718 C433.294,127.196 433.905,128.266 435.153,129.158 C436.466,130.109 435.991,130.091 443.39,130.091 L486.623,130.091 C494.042,130.091 493.547,130.11 494.873,129.152 C496.115,128.247 496.72,127.19 496.838,125.693 C496.977,124.1 497.362,124.751 492.801,117.609 C489.715,112.787 487.895,106.432 487.895,98.273 Z M481.355,98.273 C481.355,107.607 483.51,115.128 487.248,120.97 C488.881,123.527 489.406,124.361 489.884,125.168 C490.141,125.603 490.313,125.917 490.401,126.106 C490.325,125.942 490.269,125.76 490.32,125.18 C490.345,124.862 490.697,124.245 490.965,124.05 C491.419,123.722 491.64,123.657 491.83,123.63 C491.671,123.653 491.376,123.675 490.952,123.691 C490.137,123.722 489.259,123.727 486.623,123.727 L443.39,123.727 C440.755,123.727 439.878,123.721 439.063,123.69 C438.641,123.674 438.347,123.652 438.189,123.629 C438.377,123.656 438.6,123.722 439.042,124.042 C439.312,124.235 439.668,124.859 439.695,125.205 C439.744,125.759 439.689,125.942 439.613,126.105 C439.701,125.916 439.872,125.602 440.129,125.167 C440.61,124.354 441.174,123.462 442.768,120.971 C446.504,115.125 448.658,107.604 448.658,98.273 C448.658,89.486 455.977,82.364 465.007,82.364 C474.036,82.364 481.355,89.486 481.355,98.273 Z" />
        </g>
        <g id="Black-M" transform="translate(0,200)">
            <path d="M654.19,142.021 C657.176,144.588 661.025,146.004 665.01,146 C669.04,146 672.851,144.569 675.82,142.024 C677.175,140.862 677.306,138.852 676.112,137.533 C674.918,136.214 672.852,136.087 671.497,137.249 C669.71,138.781 667.432,139.636 665.007,139.636 C662.615,139.639 660.309,138.791 658.52,137.252 C657.167,136.088 655.1,136.213 653.904,137.53 C652.709,138.846 652.836,140.857 654.19,142.021 Z M636.54,91.31 C636.51,87.835 638.419,84.618 641.526,82.905 C643.097,82.039 643.649,80.097 642.759,78.568 C641.869,77.039 639.874,76.502 638.303,77.368 C633.129,80.22 629.951,85.577 630.001,91.363 C630.016,93.12 631.492,94.533 633.298,94.518 C635.103,94.503 636.555,93.067 636.54,91.31 Z M699.999,91.363 C700.049,85.577 696.871,80.22 691.697,77.368 C690.126,76.502 688.131,77.039 687.241,78.568 C686.351,80.097 686.903,82.039 688.474,82.905 C691.581,84.618 693.49,87.835 693.46,91.31 C693.445,93.067 694.897,94.503 696.702,94.518 C698.508,94.533 699.984,93.12 699.999,91.363 Z M687.895,98.273 C687.895,85.972 677.647,76 665.007,76 C652.366,76 642.118,85.972 642.118,98.273 C642.118,106.43 640.299,112.785 637.216,117.608 C632.716,124.639 633.036,124.098 633.177,125.718 C633.294,127.196 633.905,128.266 635.153,129.158 C636.466,130.109 635.991,130.091 643.39,130.091 L686.623,130.091 C694.042,130.091 693.547,130.11 694.873,129.152 C696.115,128.247 696.72,127.19 696.838,125.693 C696.977,124.1 697.362,124.751 692.801,117.609 C689.715,112.787 687.895,106.432 687.895,98.273 Z M681.355,98.273 C681.355,107.607 683.51,115.128 687.248,120.97 C688.881,123.527 689.406,124.361 689.884,125.168 C690.141,125.603 690.313,125.917 690.401,126.106 C690.325,125.942 690.269,125.76 690.32,125.18 C690.345,124.862 690.697,124.245 690.965,124.05 C691.419,123.722 691.64,123.657 691.83,123.63 C691.671,123.653 691.376,123.675 690.952,123.691 C690.137,123.722 689.259,123.727 686.623,123.727 L643.39,123.727 C640.755,123.727 639.878,123.721 639.063,123.69 C638.641,123.674 638.347,123.652 638.189,123.629 C638.377,123.656 638.6,123.722 639.042,124.042 C639.312,124.235 639.668,124.859 639.695,125.205 C639.744,125.759 639.689,125.942 639.613,126.105 C639.701,125.916 639.872,125.602 640.129,125.167 C640.61,124.354 641.174,123.462 642.768,120.971 C646.504,115.125 648.658,107.604 648.658,98.273 C648.658,89.486 655.977,82.364 665.007,82.364 C674.036,82.364 681.355,89.486 681.355,98.273 Z" />
        </g>
    </g>
</svg>