<?xml version="1.0" encoding="UTF-8"?>
<svg height="600" width="800" xmlns="http://www.w3.org/2000/svg" xmlns:xlink="http://www.w3.org/1999/xlink">
    <g id="Notes" font-family="LucidaGrande, 'Lucida Grande', sans-serif" font-size="13">
        <rect fill="white" height="600.0" width="800.0" x="0.0" y="0.0" />
        <g font-size="13">
            <text x="18.0" y="176.0">Small</text>
            <text x="18.0" y="376.0">Medium</text>
            <text x="18.0" y="576.0">Large</text>
        </g>
        <g font-size="9">
            <text x="250.0" y="30.0">Ultralight</text>
            <text x="450.0" y="30.0">Regular</text>
            <text x="650.0" y="30.0">Black</text>
            <text id="template-version" fill="#505050" text-anchor="end" x="785.0" y="575.0">Template v.3.0</text>
            <a href="https://github.com/swhitty/SwiftDraw">
                <text fill="#505050" text-anchor="end" x="785.0" y="590.0">https://github.com/swhitty/SwiftDraw</text>
            </a>
        </g>
    </g>
    <g id="Guides" stroke="rgb(39, 170, 225)" stroke-width="0.5">
        <path id="Capline-S" d="M18,76 l800,0" />
        <path id="H-reference" d="M85,145.755 L87.685,145.755 L113.369,79.287 L114.052,79.287 L114.052,76 L112.148,76 L85,145.755 Z M95.693,121.536 L130.996,121.536 L130.263,119.313 L96.474,119.313 L95.693,121.536 Z M139.15,145.755 L141.787,145.755 L114.638,76 L113.466,76 L113.466,79.287 L139.15,145.755 Z" stroke="none" transform="translate(0,200)" />
        <path id="Baseline-S" d="M18,146 l800,0" />
        <path id="left-margin-Ultralight-M" d="M230,256 l0,110" />
        <path id="right-margin-Ultralight-M" d="M300,256 l0,110" />
        <path id="left-margin-Regular-M" d="M430,256 l0,110" />
        <path id="right-margin-Regular-M" d="M500,256 l0,110" />
        <path id="left-margin-Black-M" d="M630,256 l0,110" />
        <path id="right-margin-Black-M" d="M700,256 l0,110" />
        <path id="Capline-M" d="M18,276 l800,0" />
        <path id="Baseline-M" d="M18,346 l800,0" />
        <path id="Capline-L" d="M18,476 l800,0" />
        <path id="Baseline-L" d="M18,546 l800,0" />
    </g>
    <g id="Symbols">
        <g id="Ultralight-M" transform="translate(0,200)">
            <path d="M300,97.573 C300,92.519 299.962,91.929 298.859,90.148 C297.858,88.541 296.367,87.697 294.843,87.866 C293.157,88.043 292.838,88.411 290.222,92.008 L278.659,107.906 C277.417,109.615 277.417,112.385 278.659,114.094 L290.222,129.992 C292.834,133.584 293.159,133.957 294.862,134.136 C296.37,134.303 297.861,133.459 298.856,131.863 C299.963,130.071 300,129.497 300,124.423 L300,97.577 L300,97.565 Z M293.636,97.581 L293.636,97.586 L293.636,124.423 C293.636,126.088 293.63,126.655 293.601,127.101 C293.605,127.042 293.668,126.745 294.015,126.183 C294.355,125.637 294.852,125.356 295.36,125.412 C295.882,125.467 296.085,125.62 296.122,125.661 C295.874,125.376 295.578,124.983 294.722,123.805 L283.159,107.906 L283.159,114.094 L294.722,98.195 C295.578,97.017 295.874,96.623 296.122,96.337 C296.085,96.38 295.883,96.532 295.343,96.589 C294.849,96.644 294.352,96.363 294.02,95.831 C293.669,95.262 293.605,94.963 293.601,94.904 C293.63,95.347 293.636,95.912 293.636,97.573 Z M236.364,101.375 C236.364,93.067 236.482,91.082 237.057,89.527 C237.667,87.881 238.641,86.543 239.838,85.704 C240.968,84.912 242.412,84.75 248.455,84.75 L265.636,84.75 C271.679,84.75 273.122,84.912 274.253,85.704 C275.45,86.543 276.424,87.881 277.034,89.527 C277.609,91.082 277.727,93.067 277.727,101.375 L277.727,120.625 C277.727,128.933 277.609,130.918 277.033,132.473 C276.424,134.119 275.45,135.457 274.253,136.296 C273.122,137.088 271.679,137.25 265.636,137.25 L248.455,137.25 C242.412,137.25 240.968,137.088 239.838,136.296 C238.641,135.457 237.667,134.119 237.057,132.473 C236.482,130.918 236.364,128.933 236.364,120.625 L236.364,101.375 Z M230,101.375 L230,120.625 C230,130.692 230.142,133.084 231.387,136.444 C232.607,139.738 234.554,142.415 236.949,144.092 C239.394,145.805 241.133,146 248.455,146 L265.636,146 C272.957,146 274.697,145.805 277.141,144.093 C279.536,142.415 281.483,139.738 282.704,136.445 C283.949,133.084 284.091,130.692 284.091,120.625 L284.091,101.375 C284.091,91.308 283.949,88.916 282.704,85.556 C281.483,82.262 279.536,79.585 277.142,77.908 C274.697,76.195 272.957,76 265.636,76 L248.455,76 C241.133,76 239.394,76.195 236.95,77.907 C234.554,79.585 232.607,82.262 231.387,85.555 C230.142,88.916 230,91.308 230,101.375 Z" />
        </g>
        <g id="Regular-M" transform="translate(0,200)">
            <path d="M500,97.573 C500,92.519 499.962,91.929 498.859,90.148 C497.858,88.541 496.367,87.697 494.843,87.866 C493.157,88.043 492.838,88.411 490.222,92.008 L478.659,107.906 C477.417,109.615 477.417,112.385 478.659,114.094 L490.222,129.992 C492.834,133.584 493.159,133.957 494.862,134.136 C496.37,134.303 497.861,133.459 498.856,131.863 C499.963,130.071 500,129.497 500,124.423 L500,97.577 L500,97.565 Z M493.636,97.581 L493.636,97.586 L493.636,124.423 C493.636,126.088 493.63,126.655 493.601,127.101 C493.605,127.042 493.668,126.745 494.015,126.183 C494.355,125.637 494.852,125.356 495.36,125.412 C495.882,125.467 496.085,125.62 496.122,125.661 C495.874,125.376 495.578,124.983 494.722,123.805 L483.159,107.906 L483.159,114.094 L494.722,98.195 C495.578,97.017 495.874,96.623 496.122,96.337 C496.085,96.38 495.883,96.532 495.343,96.589 C494.849,96.644 494.352,96.363 494.02,95.831 C493.669,95.262 493.605,94.963 493.601,94.904 C493.63,95.347 493.636,95.912 493.636,97.573 Z M436.364,101.375 C436.364,93.067 436.482,91.082 437.057,89.527 C437.667,87.881 438.641,86.543 439.838,85.704 C440.968,84.912 442.412,84.75 448.455,84.75 L465.636,84.75 C471.679,84.75 473.122,84.912 474.253,85.704 C475.45,86.543 476.424,87.881 477.034,89.527 C477.609,91.082 477.727,93.067 477.727,101.375 L477.727,120.625 C477.727,128.933 477.609,130.918 477.033,132.473 C476.424,134.119 475.45,135.457 474.253,136.296 C473.122,137.088 471.679,137.25 465.636,137.25 L448.455,137.25 C442.412,137.25 440.968,137.088 439.838,136.296 C438.641,135.457 437.667,134.119 437.057,132.473 C436.482,130.918 436.364,128.933 436.364,120.625 L436.364,101.375 Z M430,101.375 L430,120.625 C430,130.692 430.142,133.084 431.387,136.444 C432.607,139.738 434.554,142.415 436.949,144.092 C439.394,145.805 441.133,146 448.455,146 L465.636,146 C472.957,146 474.697,145.805 477.141,144.093 C479.536,142.415 481.483,139.738 482.704,136.445 C483.949,133.084 484.091,130.692 484.091,120.625 L484.091,101.375 C484.091,91.308 483.949,88.916 482.704,85.556 C481.483,82.262 479.536,79.585 477.142,77.908 C474.697,76.195 472.957,76 465.636,76 L448.455,76 C441.133,76 439.394,76.195 436.95,77.907 C434.554,79.585 432.607,82.262 431.387,85.555 C430.142,88.916 430,91.308 430,101.375 Z" />
        </g>
        <g id="Black-M" transform="translate(0,200)">
            <path d="M700,97.573 C700,92.519 699.962,91.929 698.859,90.148 C697.858,88.541 696.367,87.697 694.843,87.866 C693.157,88.043 692.838,88.411 690.222,92.008 L678.659,107.906 C677.417,109.615 677.417,112.385 678.659,114.094 L690.222,129.992 C692.834,133.584 693.159,133.957 694.862,134.136 C696.37,134.303 697.861,133.459 698.856,131.863 C699.963,130.071 700,129.497 700,124.423 L700,97.577 L700,97.565 Z M693.636,97.581 L693.636,97.586 L693.636,124.423 C693.636,126.088 693.63,126.655 693.601,127.101 C693.605,127.042 693.668,126.745 694.015,126.183 C694.355,125.637 694.852,125.356 695.36,125.412 C695.882,125.467 696.085,125.62 696.122,125.661 C695.874,125.376 695.578,124.983 694.722,123.805 L683.159,107.906 L683.159,114.094 L694.722,98.195 C695.578,97.017 695.874,96.623 696.122,96.337 C696.085,96.38 695.883,96.532 695.343,96.589 C694.849,96.644 694.352,96.363 694.02,95.831 C693.669,95.262 693.605,94.963 693.601,94.904 C693.63,95.347 693.636,95.912 693.636,97.573 Z M636.364,101.375 C636.364,93.067 636.482,91.082 637.057,89.527 C637.667,87.881 638.641,86.543 639.838,85.704 C640.968,84.912 642.412,84.75 648.455,84.75 L665.636,84.75 C671.679,84.75 673.122,84.912 674.253,85.704 C675.45,86.543 676.424,87.881 677.034,89.527 C677.609,91.082 677.727,93.067 677.727,101.375 L677.727,120.625 C677.727,128.933 677.609,130.918 677.033,132.473 C676.424,134.119 675.45,135.457 674.253,136.296 C673.122,137.088 671.679,137.25 665.636,137.25 L648.455,137.25 C642.412,137.25 640.968,137.088 639.838,136.296 C638.641,135.457 637.667,134.119 637.057,132.473 C636.482,130.918 636.364,128.933 636.364,120.625 L636.364,101.375 Z M630,101.375 L630,120.625 C630,130.692 630.142,133.084 631.387,136.444 C632.607,139.738 634.554,142.415 636.949,144.092 C639.394,145.805 641.133,146 648.455,146 L665.636,146 C672.958,146 674.697,145.805 677.141,144.093 C679.536,142.415 681.483,139.738 682.704,136.445 C683.949,133.084 684.091,130.692 684.091,120.625 L684.091,101.375 C684.091,91.308 683.949,88.916 682.704,85.556 C681.483,82.262 679.536,79.585 677.142,77.908 C674.697,76.195 672.958,76 665.636,76 L648.455,76 C641.133,76 639.394,76.195 636.95,77.907 C634.554,79.585 632.607,82.262 631.387,85.555 C630.142,88.916 630,91.308 630,101.375 Z" />
        </g>
    </g>
</svg>