<?xml version="1.0" encoding="UTF-8"?>
<svg height="600" width="800" xmlns="http://www.w3.org/2000/svg" xmlns:xlink="http://www.w3.org/1999/xlink">
    <g id="Notes" font-family="LucidaGrande, 'Lucida Grande', sans-serif" font-size="13">
        <rect fill="white" height="600.0" width="800.0" x="0.0" y="0.0" />
        <g font-size="13">
            <text x="18.0" y="176.0">Small</text>
            <text x="18.0" y="376.0">Medium</text>
            <text x="18.0" y="576.0">Large</text>
        </g>
        <g font-size="9">
            <text x="250.0" y="30.0">Ultralight</text>
            <text x="450.0" y="30.0">Regular</text>
            <text x="650.0" y="30.0">Black</text>
            <text id="template-version" fill="#505050" text-anchor="end" x="785.0" y="575.0">Template v.3.0</text>
            <a href="https://github.com/swhitty/SwiftDraw">
                <text fill="#505050" text-anchor="end" x="785.0" y="590.0">https://github.com/swhitty/SwiftDraw</text>
            </a>
        </g>
    </g>
    <g id="Guides" stroke="rgb(39, 170, 225)" stroke-width="0.5">
        <path id="Capline-S" d="M18,76 l800,0" />
        <path id="H-reference" d="M85,145.755 L87.685,145.755 L113.369,79.287 L114.052,79.287 L114.052,76 L112.148,76 L85,145.755 Z M95.693,121.536 L130.996,121.536 L130.263,119.313 L96.474,119.313 L95.693,121.536 Z M139.15,145.755 L141.787,145.755 L114.638,76 L113.466,76 L113.466,79.287 L139.15,145.755 Z" stroke="none" transform="translate(0,200)" />
        <path id="Baseline-S" d="M18,146 l800,0" />
        <path id="left-margin-Ultralight-M" d="M230,256 l0,110" />
        <path id="right-margin-Ultralight-M" d="M300,256 l0,110" />
        <path id="left-margin-Regular-M" d="M430,256 l0,110" />
        <path id="right-margin-Regular-M" d="M500,256 l0,110" />
        <path id="left-margin-Black-M" d="M630,256 l0,110" />
        <path id="right-margin-Black-M" d="M700,256 l0,110" />
        <path id="Capline-M" d="M18,276 l800,0" />
        <path id="Baseline-M" d="M18,346 l800,0" />
        <path id="Capline-L" d="M18,476 l800,0" />
        <path id="Baseline-L" d="M18,546 l800,0" />
    </g>
    <g id="Symbols">
        <g id="Ultralight-M" transform="translate(0,200)">
            <path d="M279.583,125.583 L279.583,132.583 C279.583,134.039 279.555,134.39 279.583,134.334 C279.583,134.333 279.583,134.333 279.583,134.333 C279.64,134.305 279.289,134.333 277.833,134.333 L252.167,134.333 C250.711,134.333 250.36,134.305 250.416,134.333 C250.417,134.333 250.417,134.333 250.417,134.333 C250.445,134.39 250.417,134.039 250.417,132.583 L250.417,125.583 C250.417,123.973 249.111,122.667 247.5,122.667 C245.889,122.667 244.583,123.973 244.583,125.583 L244.583,132.583 C244.583,135.211 244.634,135.833 245.219,136.981 C245.778,138.079 246.671,138.972 247.768,139.531 C248.917,140.116 249.539,140.167 252.167,140.167 L277.833,140.167 C280.461,140.167 281.083,140.116 282.231,139.531 C283.329,138.972 284.222,138.079 284.781,136.982 C285.366,135.833 285.417,135.211 285.417,132.583 L285.417,125.583 C285.417,123.973 284.111,122.667 282.5,122.667 C280.889,122.667 279.583,123.973 279.583,125.583 Z M249.833,128.5 L280.167,128.5 C286.878,128.5 288.473,128.37 290.713,127.229 C292.908,126.11 294.693,124.325 295.812,122.13 C296.953,119.889 297.083,118.294 297.083,111.583 L297.083,98.75 C297.083,92.039 296.953,90.444 295.812,88.204 C294.693,86.008 292.908,84.224 290.713,83.105 C288.473,81.964 286.878,81.833 280.167,81.833 L249.833,81.833 C243.122,81.833 241.527,81.964 239.287,83.105 C237.092,84.224 235.307,86.008 234.188,88.203 C233.047,90.444 232.917,92.039 232.917,98.75 L232.917,111.583 C232.917,118.294 233.047,119.889 234.188,122.13 C235.307,124.325 237.092,126.11 239.287,127.228 C241.527,128.37 243.122,128.5 249.833,128.5 Z M249.833,122.667 C244.294,122.667 242.971,122.559 241.935,122.031 C240.837,121.472 239.945,120.579 239.386,119.482 C238.858,118.446 238.75,117.122 238.75,111.583 L238.75,98.75 C238.75,93.211 238.858,91.888 239.386,90.851 C239.945,89.754 240.837,88.862 241.935,88.303 C242.971,87.775 244.294,87.667 249.833,87.667 L280.167,87.667 C285.706,87.667 287.029,87.775 288.065,88.303 C289.163,88.862 290.055,89.754 290.614,90.852 C291.142,91.888 291.25,93.211 291.25,98.75 L291.25,111.583 C291.25,117.122 291.142,118.446 290.614,119.482 C290.055,120.579 289.163,121.472 288.065,122.031 C287.029,122.559 285.706,122.667 280.167,122.667 L249.833,122.667 Z" />
        </g>
        <g id="Regular-M" transform="translate(0,200)">
            <path d="M479.583,125.583 L479.583,132.583 C479.583,134.039 479.555,134.39 479.583,134.334 C479.583,134.333 479.583,134.333 479.583,134.333 C479.64,134.305 479.289,134.333 477.833,134.333 L452.167,134.333 C450.711,134.333 450.36,134.305 450.416,134.333 C450.417,134.333 450.417,134.333 450.417,134.333 C450.445,134.39 450.417,134.039 450.417,132.583 L450.417,125.583 C450.417,123.973 449.111,122.667 447.5,122.667 C445.889,122.667 444.583,123.973 444.583,125.583 L444.583,132.583 C444.583,135.211 444.634,135.833 445.219,136.981 C445.778,138.079 446.671,138.972 447.768,139.531 C448.917,140.116 449.539,140.167 452.167,140.167 L477.833,140.167 C480.461,140.167 481.083,140.116 482.231,139.531 C483.329,138.972 484.222,138.079 484.781,136.982 C485.366,135.833 485.417,135.211 485.417,132.583 L485.417,125.583 C485.417,123.973 484.111,122.667 482.5,122.667 C480.889,122.667 479.583,123.973 479.583,125.583 Z M449.833,128.5 L480.167,128.5 C486.878,128.5 488.473,128.37 490.713,127.229 C492.908,126.11 494.693,124.325 495.812,122.13 C496.953,119.889 497.083,118.294 497.083,111.583 L497.083,98.75 C497.083,92.039 496.953,90.444 495.812,88.204 C494.693,86.008 492.908,84.224 490.713,83.105 C488.473,81.964 486.878,81.833 480.167,81.833 L449.833,81.833 C443.122,81.833 441.527,81.964 439.287,83.105 C437.092,84.224 435.307,86.008 434.188,88.203 C433.047,90.444 432.917,92.039 432.917,98.75 L432.917,111.583 C432.917,118.294 433.047,119.889 434.188,122.13 C435.307,124.325 437.092,126.11 439.287,127.228 C441.527,128.37 443.122,128.5 449.833,128.5 Z M449.833,122.667 C444.294,122.667 442.971,122.559 441.935,122.031 C440.837,121.472 439.945,120.579 439.386,119.482 C438.858,118.446 438.75,117.122 438.75,111.583 L438.75,98.75 C438.75,93.211 438.858,91.888 439.386,90.851 C439.945,89.754 440.837,88.862 441.935,88.303 C442.971,87.775 444.294,87.667 449.833,87.667 L480.167,87.667 C485.706,87.667 487.029,87.775 488.065,88.303 C489.163,88.862 490.055,89.754 490.614,90.852 C491.142,91.888 491.25,93.211 491.25,98.75 L491.25,111.583 C491.25,117.122 491.142,118.446 490.614,119.482 C490.055,120.579 489.163,121.472 488.065,122.031 C487.029,122.559 485.706,122.667 480.167,122.667 L449.833,122.667 Z" />
        </g>
        <g id="Black-M" transform="translate(0,200)">
            <path d="M679.583,125.583 L679.583,132.583 C679.583,134.039 679.555,134.39 679.583,134.334 C679.583,134.333 679.583,134.333 679.583,134.333 C679.64,134.305 679.289,134.333 677.833,134.333 L652.167,134.333 C650.711,134.333 650.36,134.305 650.416,134.333 C650.417,134.333 650.417,134.333 650.417,134.333 C650.445,134.39 650.417,134.039 650.417,132.583 L650.417,125.583 C650.417,123.973 649.111,122.667 647.5,122.667 C645.889,122.667 644.583,123.973 644.583,125.583 L644.583,132.583 C644.583,135.211 644.634,135.833 645.219,136.981 C645.778,138.079 646.671,138.972 647.768,139.531 C648.917,140.116 649.539,140.167 652.167,140.167 L677.833,140.167 C680.461,140.167 681.083,140.116 682.231,139.531 C683.329,138.972 684.222,138.079 684.781,136.982 C685.366,135.833 685.417,135.211 685.417,132.583 L685.417,125.583 C685.417,123.973 684.111,122.667 682.5,122.667 C680.889,122.667 679.583,123.973 679.583,125.583 Z M649.833,128.5 L680.167,128.5 C686.878,128.5 688.473,128.37 690.713,127.229 C692.908,126.11 694.693,124.325 695.812,122.13 C696.953,119.889 697.083,118.294 697.083,111.583 L697.083,98.75 C697.083,92.039 696.953,90.444 695.812,88.204 C694.693,86.008 692.908,84.224 690.713,83.105 C688.473,81.964 686.878,81.833 680.167,81.833 L649.833,81.833 C643.122,81.833 641.527,81.964 639.287,83.105 C637.092,84.224 635.307,86.008 634.188,88.203 C633.047,90.444 632.917,92.039 632.917,98.75 L632.917,111.583 C632.917,118.294 633.047,119.889 634.188,122.13 C635.307,124.325 637.092,126.11 639.287,127.228 C641.527,128.37 643.122,128.5 649.833,128.5 Z M649.833,122.667 C644.294,122.667 642.971,122.559 641.935,122.031 C640.837,121.472 639.945,120.579 639.386,119.482 C638.858,118.446 638.75,117.122 638.75,111.583 L638.75,98.75 C638.75,93.211 638.858,91.888 639.386,90.851 C639.945,89.754 640.837,88.862 641.935,88.303 C642.971,87.775 644.294,87.667 649.833,87.667 L680.167,87.667 C685.706,87.667 687.029,87.775 688.065,88.303 C689.163,88.862 690.055,89.754 690.614,90.852 C691.142,91.888 691.25,93.211 691.25,98.75 L691.25,111.583 C691.25,117.122 691.142,118.446 690.614,119.482 C690.055,120.579 689.163,121.472 688.065,122.031 C687.029,122.559 685.706,122.667 680.167,122.667 L649.833,122.667 Z" />
        </g>
    </g>
</svg>