<?xml version="1.0" encoding="UTF-8"?>
<svg height="600" width="800" xmlns="http://www.w3.org/2000/svg" xmlns:xlink="http://www.w3.org/1999/xlink">
    <g id="Notes" font-family="LucidaGrande, 'Lucida Grande', sans-serif" font-size="13">
        <rect fill="white" height="600.0" width="800.0" x="0.0" y="0.0" />
        <g font-size="13">
            <text x="18.0" y="176.0">Small</text>
            <text x="18.0" y="376.0">Medium</text>
            <text x="18.0" y="576.0">Large</text>
        </g>
        <g font-size="9">
            <text x="250.0" y="30.0">Ultralight</text>
            <text x="450.0" y="30.0">Regular</text>
            <text x="650.0" y="30.0">Black</text>
            <text id="template-version" fill="#505050" text-anchor="end" x="785.0" y="575.0">Template v.3.0</text>
            <a href="https://github.com/swhitty/SwiftDraw">
                <text fill="#505050" text-anchor="end" x="785.0" y="590.0">https://github.com/swhitty/SwiftDraw</text>
            </a>
        </g>
    </g>
    <g id="Guides" stroke="rgb(39, 170, 225)" stroke-width="0.5">
        <path id="Capline-S" d="M18,76 l800,0" />
        <path id="H-reference" d="M85,145.755 L87.685,145.755 L113.369,79.287 L114.052,79.287 L114.052,76 L112.148,76 L85,145.755 Z M95.693,121.536 L130.996,121.536 L130.263,119.313 L96.474,119.313 L95.693,121.536 Z M139.15,145.755 L141.787,145.755 L114.638,76 L113.466,76 L113.466,79.287 L139.15,145.755 Z" stroke="none" transform="translate(0,200)" />
        <path id="Baseline-S" d="M18,146 l800,0" />
        <path id="left-margin-Ultralight-M" d="M221,256 l0,110" />
        <path id="right-margin-Ultralight-M" d="M309,256 l0,110" />
        <path id="left-margin-Regular-M" d="M421,256 l0,110" />
        <path id="right-margin-Regular-M" d="M509,256 l0,110" />
        <path id="left-margin-Black-M" d="M621,256 l0,110" />
        <path id="right-margin-Black-M" d="M709,256 l0,110" />
        <path id="Capline-M" d="M18,276 l800,0" />
        <path id="Baseline-M" d="M18,346 l800,0" />
        <path id="Capline-L" d="M18,476 l800,0" />
        <path id="Baseline-L" d="M18,546 l800,0" />
    </g>
    <g id="Symbols">
        <g id="Ultralight-M" transform="translate(0,200)">
            <path d="M258.714,129.857 L258.714,100.524 C258.714,98.322 258.739,97.785 258.857,97.345 C259.244,95.898 260.373,94.768 261.819,94.38 C262.261,94.263 262.798,94.238 265,94.238 C267.202,94.238 267.739,94.263 268.183,94.381 C269.625,94.768 270.754,95.898 271.141,97.344 C271.261,97.788 271.286,98.324 271.286,100.524 L271.286,114.143 C271.286,115.3 272.224,116.238 273.381,116.238 C274.538,116.238 275.476,115.3 275.476,114.143 L275.476,100.524 C275.476,97.852 275.447,97.214 275.188,96.256 C274.415,93.369 272.158,91.109 269.267,90.333 C268.306,90.077 267.669,90.048 265,90.048 C262.331,90.048 261.694,90.077 260.736,90.332 C257.842,91.108 255.583,93.368 254.809,96.261 C254.553,97.217 254.524,97.854 254.524,100.524 L254.524,129.857 C254.524,131.014 255.462,131.952 256.619,131.952 C257.776,131.952 258.714,131.014 258.714,129.857 Z M271.286,122.524 L271.286,129.857 C271.286,131.014 272.224,131.952 273.381,131.952 C274.538,131.952 275.476,131.014 275.476,129.857 L275.476,122.524 C275.476,121.367 274.538,120.429 273.381,120.429 C272.224,120.429 271.286,121.367 271.286,122.524 Z M254.105,131.952 L275.895,131.952 C280.716,131.952 281.862,131.859 283.471,131.039 C285.049,130.235 286.331,128.953 287.134,127.376 C287.954,125.767 288.048,124.621 288.048,119.8 L288.048,110.581 C288.048,105.76 287.954,104.614 287.134,103.005 C286.331,101.428 285.049,100.146 283.472,99.342 C281.862,98.522 280.716,98.429 275.895,98.429 L254.105,98.429 C249.284,98.429 248.138,98.522 246.529,99.342 C244.951,100.146 243.669,101.428 242.866,103.005 C242.046,104.614 241.952,105.76 241.952,110.581 L241.952,119.8 C241.952,124.621 242.046,125.767 242.866,127.376 C243.669,128.953 244.951,130.235 246.528,131.039 C248.138,131.859 249.284,131.952 254.105,131.952 Z M254.105,127.762 C250.126,127.762 249.175,127.684 248.431,127.305 C247.642,126.903 247.001,126.262 246.6,125.474 C246.221,124.73 246.143,123.779 246.143,119.8 L246.143,110.581 C246.143,106.602 246.221,105.651 246.6,104.907 C247.001,104.119 247.642,103.478 248.431,103.076 C249.175,102.697 250.126,102.619 254.105,102.619 L275.895,102.619 C279.874,102.619 280.825,102.697 281.569,103.076 C282.358,103.478 282.999,104.119 283.4,104.907 C283.779,105.651 283.857,106.602 283.857,110.581 L283.857,119.8 C283.857,123.779 283.779,124.73 283.4,125.474 C282.999,126.262 282.358,126.903 281.569,127.305 C280.825,127.684 279.874,127.762 275.895,127.762 L254.105,127.762 Z M266.676,124.619 L276.943,124.619 C278.1,124.619 278.374,124.596 279.005,124.272 C279.589,123.974 280.069,123.494 280.37,122.904 C280.692,122.279 280.714,122.005 280.714,120.848 L280.714,115.819 C280.714,114.662 280.692,114.388 280.367,113.757 C280.069,113.173 279.589,112.693 279,112.392 C278.374,112.07 278.1,112.048 276.943,112.048 L266.676,112.048 C265.519,112.048 265.245,112.07 264.614,112.395 C264.03,112.693 263.55,113.173 263.249,113.762 C262.927,114.388 262.905,114.662 262.905,115.819 L262.905,120.848 C262.905,122.005 262.927,122.279 263.252,122.91 C263.55,123.494 264.03,123.974 264.619,124.275 C265.245,124.596 265.519,124.619 266.676,124.619 Z M266.676,120.429 C266.341,120.429 266.227,120.427 266.16,120.421 C266.231,120.427 266.36,120.458 266.53,120.545 C266.721,120.643 266.881,120.803 266.981,120.999 C267.066,121.164 267.097,121.293 267.103,121.363 C267.097,121.297 267.095,121.183 267.095,120.848 L267.095,115.819 C267.095,115.484 267.097,115.37 267.103,115.303 C267.097,115.374 267.066,115.503 266.979,115.673 C266.881,115.864 266.721,116.024 266.525,116.124 C266.36,116.209 266.231,116.24 266.16,116.245 C266.227,116.24 266.341,116.238 266.676,116.238 L276.943,116.238 C277.278,116.238 277.392,116.24 277.459,116.245 C277.388,116.24 277.259,116.209 277.089,116.122 C276.898,116.024 276.738,115.864 276.638,115.667 C276.553,115.503 276.522,115.374 276.517,115.303 C276.522,115.37 276.524,115.484 276.524,115.819 L276.524,120.848 C276.524,121.183 276.522,121.297 276.517,121.363 C276.522,121.293 276.553,121.164 276.64,120.994 C276.738,120.803 276.898,120.643 277.094,120.542 C277.259,120.458 277.388,120.427 277.459,120.421 C277.392,120.427 277.278,120.429 276.943,120.429 L266.676,120.429 Z" />
        </g>
        <g id="Regular-M" transform="translate(0,200)">
            <path d="M458.714,129.857 L458.714,100.524 C458.714,98.322 458.739,97.785 458.857,97.345 C459.244,95.898 460.373,94.768 461.819,94.38 C462.261,94.263 462.798,94.238 465,94.238 C467.202,94.238 467.739,94.263 468.183,94.381 C469.625,94.768 470.754,95.898 471.141,97.344 C471.261,97.788 471.286,98.324 471.286,100.524 L471.286,114.143 C471.286,115.3 472.224,116.238 473.381,116.238 C474.538,116.238 475.476,115.3 475.476,114.143 L475.476,100.524 C475.476,97.852 475.447,97.214 475.188,96.256 C474.415,93.369 472.158,91.109 469.267,90.333 C468.306,90.077 467.669,90.048 465,90.048 C462.331,90.048 461.694,90.077 460.736,90.332 C457.842,91.108 455.583,93.368 454.809,96.261 C454.553,97.217 454.524,97.854 454.524,100.524 L454.524,129.857 C454.524,131.014 455.462,131.952 456.619,131.952 C457.776,131.952 458.714,131.014 458.714,129.857 Z M471.286,122.524 L471.286,129.857 C471.286,131.014 472.224,131.952 473.381,131.952 C474.538,131.952 475.476,131.014 475.476,129.857 L475.476,122.524 C475.476,121.367 474.538,120.429 473.381,120.429 C472.224,120.429 471.286,121.367 471.286,122.524 Z M454.105,131.952 L475.895,131.952 C480.716,131.952 481.862,131.859 483.471,131.039 C485.049,130.235 486.331,128.953 487.134,127.376 C487.954,125.767 488.048,124.621 488.048,119.8 L488.048,110.581 C488.048,105.76 487.954,104.614 487.134,103.005 C486.331,101.428 485.049,100.146 483.472,99.342 C481.862,98.522 480.716,98.429 475.895,98.429 L454.105,98.429 C449.284,98.429 448.138,98.522 446.529,99.342 C444.951,100.146 443.669,101.428 442.866,103.005 C442.046,104.614 441.952,105.76 441.952,110.581 L441.952,119.8 C441.952,124.621 442.046,125.767 442.866,127.376 C443.669,128.953 444.951,130.235 446.528,131.039 C448.138,131.859 449.284,131.952 454.105,131.952 Z M454.105,127.762 C450.126,127.762 449.175,127.684 448.431,127.305 C447.642,126.903 447.001,126.262 446.6,125.474 C446.221,124.73 446.143,123.779 446.143,119.8 L446.143,110.581 C446.143,106.602 446.221,105.651 446.6,104.907 C447.001,104.119 447.642,103.478 448.431,103.076 C449.175,102.697 450.126,102.619 454.105,102.619 L475.895,102.619 C479.874,102.619 480.825,102.697 481.569,103.076 C482.358,103.478 482.999,104.119 483.4,104.907 C483.779,105.651 483.857,106.602 483.857,110.581 L483.857,119.8 C483.857,123.779 483.779,124.73 483.4,125.474 C482.999,126.262 482.358,126.903 481.569,127.305 C480.825,127.684 479.874,127.762 475.895,127.762 L454.105,127.762 Z M466.676,124.619 L476.943,124.619 C478.1,124.619 478.374,124.596 479.005,124.272 C479.589,123.974 480.069,123.494 480.37,122.904 C480.692,122.279 480.714,122.005 480.714,120.848 L480.714,115.819 C480.714,114.662 480.692,114.388 480.367,113.757 C480.069,113.173 479.589,112.693 479,112.392 C478.374,112.07 478.1,112.048 476.943,112.048 L466.676,112.048 C465.519,112.048 465.245,112.07 464.614,112.395 C464.03,112.693 463.55,113.173 463.249,113.762 C462.927,114.388 462.905,114.662 462.905,115.819 L462.905,120.848 C462.905,122.005 462.927,122.279 463.252,122.91 C463.55,123.494 464.03,123.974 464.619,124.275 C465.245,124.596 465.519,124.619 466.676,124.619 Z M466.676,120.429 C466.341,120.429 466.227,120.427 466.16,120.421 C466.231,120.427 466.36,120.458 466.53,120.545 C466.721,120.643 466.881,120.803 466.981,120.999 C467.066,121.164 467.097,121.293 467.103,121.363 C467.097,121.297 467.095,121.183 467.095,120.848 L467.095,115.819 C467.095,115.484 467.097,115.37 467.103,115.303 C467.097,115.374 467.066,115.503 466.979,115.673 C466.881,115.864 466.721,116.024 466.525,116.124 C466.36,116.209 466.231,116.24 466.16,116.245 C466.227,116.24 466.341,116.238 466.676,116.238 L476.943,116.238 C477.278,116.238 477.392,116.24 477.459,116.245 C477.388,116.24 477.259,116.209 477.089,116.122 C476.898,116.024 476.738,115.864 476.638,115.667 C476.553,115.503 476.522,115.374 476.517,115.303 C476.522,115.37 476.524,115.484 476.524,115.819 L476.524,120.848 C476.524,121.183 476.522,121.297 476.517,121.363 C476.522,121.293 476.553,121.164 476.64,120.994 C476.738,120.803 476.898,120.643 477.094,120.542 C477.259,120.458 477.388,120.427 477.459,120.421 C477.392,120.427 477.278,120.429 476.943,120.429 L466.676,120.429 Z" />
        </g>
        <g id="Black-M" transform="translate(0,200)">
            <path d="M658.714,129.857 L658.714,100.524 C658.714,98.322 658.739,97.785 658.857,97.345 C659.244,95.898 660.373,94.768 661.819,94.38 C662.261,94.263 662.797,94.238 665,94.238 C667.202,94.238 667.739,94.263 668.183,94.381 C669.625,94.768 670.754,95.898 671.141,97.344 C671.261,97.788 671.286,98.324 671.286,100.524 L671.286,114.143 C671.286,115.3 672.224,116.238 673.381,116.238 C674.538,116.238 675.476,115.3 675.476,114.143 L675.476,100.524 C675.476,97.852 675.447,97.214 675.188,96.256 C674.415,93.369 672.158,91.109 669.267,90.333 C668.306,90.077 667.669,90.048 665,90.048 C662.331,90.048 661.694,90.077 660.736,90.332 C657.842,91.108 655.583,93.368 654.809,96.261 C654.553,97.217 654.524,97.854 654.524,100.524 L654.524,129.857 C654.524,131.014 655.462,131.952 656.619,131.952 C657.776,131.952 658.714,131.014 658.714,129.857 Z M671.286,122.524 L671.286,129.857 C671.286,131.014 672.224,131.952 673.381,131.952 C674.538,131.952 675.476,131.014 675.476,129.857 L675.476,122.524 C675.476,121.367 674.538,120.429 673.381,120.429 C672.224,120.429 671.286,121.367 671.286,122.524 Z M654.105,131.952 L675.895,131.952 C680.716,131.952 681.862,131.859 683.471,131.039 C685.049,130.235 686.331,128.953 687.134,127.376 C687.954,125.767 688.048,124.621 688.048,119.8 L688.048,110.581 C688.048,105.76 687.954,104.614 687.134,103.005 C686.331,101.428 685.049,100.146 683.472,99.342 C681.862,98.522 680.716,98.429 675.895,98.429 L654.105,98.429 C649.284,98.429 648.138,98.522 646.529,99.342 C644.951,100.146 643.669,101.428 642.866,103.005 C642.046,104.614 641.952,105.76 641.952,110.581 L641.952,119.8 C641.952,124.621 642.046,125.767 642.866,127.376 C643.669,128.953 644.951,130.235 646.528,131.039 C648.138,131.859 649.284,131.952 654.105,131.952 Z M654.105,127.762 C650.126,127.762 649.175,127.684 648.431,127.305 C647.642,126.903 647.001,126.262 646.6,125.474 C646.221,124.73 646.143,123.779 646.143,119.8 L646.143,110.581 C646.143,106.602 646.221,105.651 646.6,104.907 C647.001,104.119 647.642,103.478 648.431,103.076 C649.175,102.697 650.126,102.619 654.105,102.619 L675.895,102.619 C679.874,102.619 680.825,102.697 681.569,103.076 C682.358,103.478 682.999,104.119 683.4,104.907 C683.779,105.651 683.857,106.602 683.857,110.581 L683.857,119.8 C683.857,123.779 683.779,124.73 683.4,125.474 C682.999,126.262 682.358,126.903 681.569,127.305 C680.825,127.684 679.874,127.762 675.895,127.762 L654.105,127.762 Z M666.676,124.619 L676.943,124.619 C678.1,124.619 678.374,124.596 679.005,124.272 C679.589,123.974 680.069,123.494 680.37,122.904 C680.692,122.279 680.714,122.005 680.714,120.848 L680.714,115.819 C680.714,114.662 680.692,114.388 680.367,113.757 C680.069,113.173 679.589,112.693 679,112.392 C678.374,112.07 678.1,112.048 676.943,112.048 L666.676,112.048 C665.519,112.048 665.245,112.07 664.614,112.395 C664.03,112.693 663.55,113.173 663.249,113.762 C662.927,114.388 662.905,114.662 662.905,115.819 L662.905,120.848 C662.905,122.005 662.927,122.279 663.252,122.91 C663.55,123.494 664.03,123.974 664.619,124.275 C665.245,124.596 665.519,124.619 666.676,124.619 Z M666.676,120.429 C666.341,120.429 666.227,120.427 666.16,120.421 C666.231,120.427 666.36,120.458 666.53,120.545 C666.721,120.643 666.881,120.803 666.981,120.999 C667.066,121.164 667.097,121.293 667.103,121.363 C667.097,121.297 667.095,121.183 667.095,120.848 L667.095,115.819 C667.095,115.484 667.097,115.37 667.103,115.303 C667.097,115.374 667.066,115.503 666.979,115.673 C666.881,115.864 666.721,116.024 666.525,116.124 C666.36,116.209 666.231,116.24 666.16,116.245 C666.227,116.24 666.341,116.238 666.676,116.238 L676.943,116.238 C677.278,116.238 677.392,116.24 677.459,116.245 C677.388,116.24 677.259,116.209 677.089,116.122 C676.898,116.024 676.738,115.864 676.638,115.667 C676.553,115.503 676.522,115.374 676.516,115.303 C676.522,115.37 676.524,115.484 676.524,115.819 L676.524,120.848 C676.524,121.183 676.522,121.297 676.516,121.363 C676.522,121.293 676.553,121.164 676.64,120.994 C676.738,120.803 676.898,120.643 677.094,120.542 C677.259,120.458 677.388,120.427 677.459,120.421 C677.392,120.427 677.278,120.429 676.943,120.429 L666.676,120.429 Z" />
        </g>
    </g>
</svg>