<?xml version="1.0" encoding="UTF-8"?>
<svg height="600" width="800" xmlns="http://www.w3.org/2000/svg" xmlns:xlink="http://www.w3.org/1999/xlink">
    <g id="Notes" font-family="LucidaGrande, 'Lucida Grande', sans-serif" font-size="13">
        <rect fill="white" height="600.0" width="800.0" x="0.0" y="0.0" />
        <g font-size="13">
            <text x="18.0" y="176.0">Small</text>
            <text x="18.0" y="376.0">Medium</text>
            <text x="18.0" y="576.0">Large</text>
        </g>
        <g font-size="9">
            <text x="250.0" y="30.0">Ultralight</text>
            <text x="450.0" y="30.0">Regular</text>
            <text x="650.0" y="30.0">Black</text>
            <text id="template-version" fill="#505050" text-anchor="end" x="785.0" y="575.0">Template v.3.0</text>
            <a href="https://github.com/swhitty/SwiftDraw">
                <text fill="#505050" text-anchor="end" x="785.0" y="590.0">https://github.com/swhitty/SwiftDraw</text>
            </a>
        </g>
    </g>
    <g id="Guides" stroke="rgb(39, 170, 225)" stroke-width="0.5">
        <path id="Capline-S" d="M18,76 l800,0" />
        <path id="H-reference" d="M85,145.755 L87.685,145.755 L113.369,79.287 L114.052,79.287 L114.052,76 L112.148,76 L85,145.755 Z M95.693,121.536 L130.996,121.536 L130.263,119.313 L96.474,119.313 L95.693,121.536 Z M139.15,145.755 L141.787,145.755 L114.638,76 L113.466,76 L113.466,79.287 L139.15,145.755 Z" stroke="none" transform="translate(0,200)" />
        <path id="Baseline-S" d="M18,146 l800,0" />
        <path id="left-margin-Ultralight-M" d="M230,256 l0,110" />
        <path id="right-margin-Ultralight-M" d="M300,256 l0,110" />
        <path id="left-margin-Regular-M" d="M430,256 l0,110" />
        <path id="right-margin-Regular-M" d="M500,256 l0,110" />
        <path id="left-margin-Black-M" d="M630,256 l0,110" />
        <path id="right-margin-Black-M" d="M700,256 l0,110" />
        <path id="Capline-M" d="M18,276 l800,0" />
        <path id="Baseline-M" d="M18,346 l800,0" />
        <path id="Capline-L" d="M18,476 l800,0" />
        <path id="Baseline-L" d="M18,546 l800,0" />
    </g>
    <g id="Symbols">
        <g id="Ultralight-M" transform="translate(0,200)">
            <path d="M236.046,144.844 C243.819,136.168 254.087,131.263 265,131.263 C275.913,131.263 286.181,136.168 293.954,144.844 C295.28,146.324 297.495,146.392 298.901,144.996 C300.308,143.6 300.372,141.268 299.046,139.788 C289.982,129.671 277.89,123.895 265,123.895 C252.11,123.895 240.018,129.671 230.954,139.788 C229.627,141.268 229.692,143.6 231.099,144.996 C232.505,146.392 234.72,146.324 236.046,144.844 Z M277.25,96.263 C277.25,103.385 271.766,109.158 265,109.158 C258.235,109.158 252.75,103.385 252.75,96.263 C252.75,89.142 258.235,83.368 265,83.368 C271.766,83.368 277.25,89.142 277.25,96.263 Z M284.25,96.263 C284.25,85.072 275.631,76 265,76 C254.369,76 245.75,85.072 245.75,96.263 C245.75,107.454 254.369,116.526 265,116.526 C275.631,116.526 284.25,107.454 284.25,96.263 Z" />
        </g>
        <g id="Regular-M" transform="translate(0,200)">
            <path d="M436.046,144.844 C443.819,136.168 454.087,131.263 465,131.263 C475.913,131.263 486.181,136.168 493.954,144.844 C495.28,146.324 497.495,146.392 498.901,144.996 C500.308,143.6 500.372,141.268 499.046,139.788 C489.982,129.671 477.89,123.895 465,123.895 C452.11,123.895 440.018,129.671 430.954,139.788 C429.628,141.268 429.692,143.6 431.099,144.996 C432.505,146.392 434.72,146.324 436.046,144.844 Z M477.25,96.263 C477.25,103.385 471.766,109.158 465,109.158 C458.235,109.158 452.75,103.385 452.75,96.263 C452.75,89.142 458.235,83.368 465,83.368 C471.766,83.368 477.25,89.142 477.25,96.263 Z M484.25,96.263 C484.25,85.072 475.631,76 465,76 C454.369,76 445.75,85.072 445.75,96.263 C445.75,107.454 454.369,116.526 465,116.526 C475.631,116.526 484.25,107.454 484.25,96.263 Z" />
        </g>
        <g id="Black-M" transform="translate(0,200)">
            <path d="M636.046,144.844 C643.819,136.168 654.087,131.263 665,131.263 C675.913,131.263 686.181,136.168 693.954,144.844 C695.28,146.324 697.495,146.392 698.901,144.996 C700.308,143.6 700.372,141.268 699.046,139.788 C689.982,129.671 677.89,123.895 665,123.895 C652.11,123.895 640.018,129.671 630.954,139.788 C629.628,141.268 629.692,143.6 631.099,144.996 C632.505,146.392 634.72,146.324 636.046,144.844 Z M677.25,96.263 C677.25,103.385 671.766,109.158 665,109.158 C658.234,109.158 652.75,103.385 652.75,96.263 C652.75,89.142 658.234,83.368 665,83.368 C671.766,83.368 677.25,89.142 677.25,96.263 Z M684.25,96.263 C684.25,85.072 675.631,76 665,76 C654.369,76 645.75,85.072 645.75,96.263 C645.75,107.454 654.369,116.526 665,116.526 C675.631,116.526 684.25,107.454 684.25,96.263 Z" />
        </g>
    </g>
</svg>