<?xml version="1.0" encoding="UTF-8"?>
<svg height="600" width="800" xmlns="http://www.w3.org/2000/svg" xmlns:xlink="http://www.w3.org/1999/xlink">
    <g id="Notes" font-family="LucidaGrande, 'Lucida Grande', sans-serif" font-size="13">
        <rect fill="white" height="600.0" width="800.0" x="0.0" y="0.0" />
        <g font-size="13">
            <text x="18.0" y="176.0">Small</text>
            <text x="18.0" y="376.0">Medium</text>
            <text x="18.0" y="576.0">Large</text>
        </g>
        <g font-size="9">
            <text x="250.0" y="30.0">Ultralight</text>
            <text x="450.0" y="30.0">Regular</text>
            <text x="650.0" y="30.0">Black</text>
            <text id="template-version" fill="#505050" text-anchor="end" x="785.0" y="575.0">Template v.3.0</text>
            <a href="https://github.com/swhitty/SwiftDraw">
                <text fill="#505050" text-anchor="end" x="785.0" y="590.0">https://github.com/swhitty/SwiftDraw</text>
            </a>
        </g>
    </g>
    <g id="Guides" stroke="rgb(39, 170, 225)" stroke-width="0.5">
        <path id="Capline-S" d="M18,76 l800,0" />
        <path id="H-reference" d="M85,145.755 L87.685,145.755 L113.369,79.287 L114.052,79.287 L114.052,76 L112.148,76 L85,145.755 Z M95.693,121.536 L130.996,121.536 L130.263,119.313 L96.474,119.313 L95.693,121.536 Z M139.15,145.755 L141.787,145.755 L114.638,76 L113.466,76 L113.466,79.287 L139.15,145.755 Z" stroke="none" transform="translate(0,200)" />
        <path id="Baseline-S" d="M18,146 l800,0" />
        <path id="left-margin-Ultralight-M" d="M230,256 l0,110" />
        <path id="right-margin-Ultralight-M" d="M300,256 l0,110" />
        <path id="left-margin-Regular-M" d="M430,256 l0,110" />
        <path id="right-margin-Regular-M" d="M500,256 l0,110" />
        <path id="left-margin-Black-M" d="M630,256 l0,110" />
        <path id="right-margin-Black-M" d="M700,256 l0,110" />
        <path id="Capline-M" d="M18,276 l800,0" />
        <path id="Baseline-M" d="M18,346 l800,0" />
        <path id="Capline-L" d="M18,476 l800,0" />
        <path id="Baseline-L" d="M18,546 l800,0" />
    </g>
    <g id="Symbols">
        <g id="Ultralight-M" transform="translate(0,200)">
            <path d="M272,132 C272,139.732 278.268,146 286,146 C293.732,146 300,139.732 300,132 C300,124.268 293.732,118 286,118 C278.268,118 272,124.268 272,132 Z M279,132 C279,128.134 282.134,125 286,125 C289.866,125 293,128.134 293,132 C293,135.866 289.866,139 286,139 C282.134,139 279,135.866 279,132 Z M275.5,128.5 C268.074,128.5 260.952,125.55 255.701,120.299 C250.45,115.048 247.5,107.926 247.5,100.5 C247.5,98.567 245.933,97 244,97 C242.067,97 240.5,98.567 240.5,100.5 C240.5,109.783 244.187,118.685 250.751,125.249 C257.315,131.813 266.217,135.5 275.5,135.5 C277.433,135.5 279,133.933 279,132 C279,130.067 277.433,128.5 275.5,128.5 Z M244,104 C251.732,104 258,97.732 258,90 C258,82.268 251.732,76 244,76 C236.268,76 230,82.268 230,90 C230,97.732 236.268,104 244,104 Z M244,97 C240.134,97 237,93.866 237,90 C237,86.134 240.134,83 244,83 C247.866,83 251,86.134 251,90 C251,93.866 247.866,97 244,97 Z M240.5,100.5 L240.5,142.5 C240.5,144.433 242.067,146 244,146 C245.933,146 247.5,144.433 247.5,142.5 L247.5,100.5 C247.5,98.567 245.933,97 244,97 C242.067,97 240.5,98.567 240.5,100.5 Z" />
        </g>
        <g id="Regular-M" transform="translate(0,200)">
            <path d="M472,132 C472,139.732 478.268,146 486,146 C493.732,146 500,139.732 500,132 C500,124.268 493.732,118 486,118 C478.268,118 472,124.268 472,132 Z M479,132 C479,128.134 482.134,125 486,125 C489.866,125 493,128.134 493,132 C493,135.866 489.866,139 486,139 C482.134,139 479,135.866 479,132 Z M475.5,128.5 C468.074,128.5 460.952,125.55 455.701,120.299 C450.45,115.048 447.5,107.926 447.5,100.5 C447.5,98.567 445.933,97 444,97 C442.067,97 440.5,98.567 440.5,100.5 C440.5,109.783 444.188,118.685 450.751,125.249 C457.315,131.813 466.217,135.5 475.5,135.5 C477.433,135.5 479,133.933 479,132 C479,130.067 477.433,128.5 475.5,128.5 Z M444,104 C451.732,104 458,97.732 458,90 C458,82.268 451.732,76 444,76 C436.268,76 430,82.268 430,90 C430,97.732 436.268,104 444,104 Z M444,97 C440.134,97 437,93.866 437,90 C437,86.134 440.134,83 444,83 C447.866,83 451,86.134 451,90 C451,93.866 447.866,97 444,97 Z M440.5,100.5 L440.5,142.5 C440.5,144.433 442.067,146 444,146 C445.933,146 447.5,144.433 447.5,142.5 L447.5,100.5 C447.5,98.567 445.933,97 444,97 C442.067,97 440.5,98.567 440.5,100.5 Z" />
        </g>
        <g id="Black-M" transform="translate(0,200)">
            <path d="M672,132 C672,139.732 678.268,146 686,146 C693.732,146 700,139.732 700,132 C700,124.268 693.732,118 686,118 C678.268,118 672,124.268 672,132 Z M679,132 C679,128.134 682.134,125 686,125 C689.866,125 693,128.134 693,132 C693,135.866 689.866,139 686,139 C682.134,139 679,135.866 679,132 Z M675.5,128.5 C668.074,128.5 660.952,125.55 655.701,120.299 C650.45,115.048 647.5,107.926 647.5,100.5 C647.5,98.567 645.933,97 644,97 C642.067,97 640.5,98.567 640.5,100.5 C640.5,109.783 644.188,118.685 650.751,125.249 C657.315,131.813 666.217,135.5 675.5,135.5 C677.433,135.5 679,133.933 679,132 C679,130.067 677.433,128.5 675.5,128.5 Z M644,104 C651.732,104 658,97.732 658,90 C658,82.268 651.732,76 644,76 C636.268,76 630,82.268 630,90 C630,97.732 636.268,104 644,104 Z M644,97 C640.134,97 637,93.866 637,90 C637,86.134 640.134,83 644,83 C647.866,83 651,86.134 651,90 C651,93.866 647.866,97 644,97 Z M640.5,100.5 L640.5,142.5 C640.5,144.433 642.067,146 644,146 C645.933,146 647.5,144.433 647.5,142.5 L647.5,100.5 C647.5,98.567 645.933,97 644,97 C642.067,97 640.5,98.567 640.5,100.5 Z" />
        </g>
    </g>
</svg>