<?xml version="1.0" encoding="UTF-8"?>
<svg height="600" width="800" xmlns="http://www.w3.org/2000/svg" xmlns:xlink="http://www.w3.org/1999/xlink">
    <g id="Notes" font-family="LucidaGrande, 'Lucida Grande', sans-serif" font-size="13">
        <rect fill="white" height="600.0" width="800.0" x="0.0" y="0.0" />
        <g font-size="13">
            <text x="18.0" y="176.0">Small</text>
            <text x="18.0" y="376.0">Medium</text>
            <text x="18.0" y="576.0">Large</text>
        </g>
        <g font-size="9">
            <text x="250.0" y="30.0">Ultralight</text>
            <text x="450.0" y="30.0">Regular</text>
            <text x="650.0" y="30.0">Black</text>
            <text id="template-version" fill="#505050" text-anchor="end" x="785.0" y="575.0">Template v.3.0</text>
            <a href="https://github.com/swhitty/SwiftDraw">
                <text fill="#505050" text-anchor="end" x="785.0" y="590.0">https://github.com/swhitty/SwiftDraw</text>
            </a>
        </g>
    </g>
    <g id="Guides" stroke="rgb(39, 170, 225)" stroke-width="0.5">
        <path id="Capline-S" d="M18,76 l800,0" />
        <path id="H-reference" d="M85,145.755 L87.685,145.755 L113.369,79.287 L114.052,79.287 L114.052,76 L112.148,76 L85,145.755 Z M95.693,121.536 L130.996,121.536 L130.263,119.313 L96.474,119.313 L95.693,121.536 Z M139.15,145.755 L141.787,145.755 L114.638,76 L113.466,76 L113.466,79.287 L139.15,145.755 Z" stroke="none" transform="translate(0,200)" />
        <path id="Baseline-S" d="M18,146 l800,0" />
        <path id="left-margin-Ultralight-M" d="M221,256 l0,110" />
        <path id="right-margin-Ultralight-M" d="M309,256 l0,110" />
        <path id="left-margin-Regular-M" d="M421,256 l0,110" />
        <path id="right-margin-Regular-M" d="M509,256 l0,110" />
        <path id="left-margin-Black-M" d="M621,256 l0,110" />
        <path id="right-margin-Black-M" d="M709,256 l0,110" />
        <path id="Capline-M" d="M18,276 l800,0" />
        <path id="Baseline-M" d="M18,346 l800,0" />
        <path id="Capline-L" d="M18,476 l800,0" />
        <path id="Baseline-L" d="M18,546 l800,0" />
    </g>
    <g id="Symbols">
        <g id="Ultralight-M" transform="translate(0,200)">
            <path d="M274.438,115.019 C280.686,115.02 286.133,110.77 287.652,104.71 C288.037,103.174 286.646,101.783 285.11,102.168 C281.896,102.974 278.494,102.034 276.15,99.69 C273.807,97.347 272.866,93.946 273.672,90.731 C274.056,89.196 272.665,87.805 271.13,88.19 C267.091,89.202 263.736,92.007 262.024,95.803 C260.312,99.599 260.43,103.969 262.345,107.667 C262.878,108.695 264.142,109.096 265.169,108.564 C266.197,108.032 266.598,106.768 266.066,105.74 C264.74,103.18 264.658,100.154 265.844,97.525 C267.029,94.897 269.352,92.955 272.149,92.254 L269.607,89.712 C268.443,94.356 269.803,99.269 273.188,102.654 C276.573,106.038 281.486,107.397 286.13,106.232 L283.588,103.691 C282.536,107.887 278.764,110.829 274.438,110.829 C273.281,110.829 272.343,111.767 272.343,112.924 C272.343,114.081 273.281,115.019 274.438,115.019 Z M252.44,100.354 L252.44,91.973 C252.44,90.816 251.502,89.878 250.345,89.878 C249.188,89.878 248.25,90.816 248.25,91.973 L248.25,100.354 C248.25,101.511 249.188,102.449 250.345,102.449 C251.502,102.449 252.44,101.511 252.44,100.354 Z M246.155,98.259 L254.535,98.259 C255.692,98.259 256.63,97.321 256.63,96.163 C256.63,95.006 255.692,94.068 254.535,94.068 L246.155,94.068 C244.997,94.068 244.059,95.006 244.059,96.163 C244.059,97.321 244.997,98.259 246.155,98.259 Z M252.437,129.685 C249.169,129.69 246.443,127.191 246.164,123.935 C245.886,120.679 248.149,117.754 251.37,117.204 C252.125,117.075 252.75,116.543 252.999,115.818 C254.351,111.875 257.91,109.108 262.065,108.77 C266.219,108.432 270.179,110.588 272.15,114.261 C272.614,115.124 273.614,115.551 274.558,115.288 C277.311,114.521 280.259,115.424 282.111,117.601 C283.963,119.777 284.381,122.831 283.183,125.426 C281.986,128.02 279.389,129.683 276.532,129.685 L252.442,129.685 L252.44,129.685 Z M252.44,133.875 L252.442,133.875 L276.533,133.875 C281.026,133.872 285.105,131.259 286.988,127.182 C288.87,123.105 288.212,118.306 285.302,114.885 C282.392,111.465 277.76,110.047 273.434,111.252 L275.842,112.279 C273.083,107.138 267.54,104.121 261.725,104.594 C255.91,105.067 250.927,108.94 249.035,114.459 L250.665,113.074 C245.297,113.99 241.526,118.866 241.99,124.292 C242.453,129.718 246.997,133.884 252.443,133.875 Z" />
        </g>
        <g id="Regular-M" transform="translate(0,200)">
            <path d="M474.438,115.019 C480.686,115.02 486.133,110.77 487.652,104.71 C488.037,103.174 486.646,101.783 485.11,102.168 C481.896,102.974 478.494,102.034 476.151,99.69 C473.807,97.347 472.866,93.946 473.672,90.731 C474.056,89.196 472.665,87.805 471.13,88.19 C467.091,89.202 463.736,92.007 462.024,95.803 C460.312,99.599 460.43,103.969 462.345,107.667 C462.878,108.695 464.142,109.096 465.169,108.564 C466.197,108.032 466.598,106.768 466.066,105.74 C464.74,103.18 464.658,100.154 465.844,97.525 C467.029,94.897 469.352,92.955 472.149,92.254 L469.607,89.712 C468.443,94.356 469.803,99.269 473.188,102.654 C476.573,106.038 481.486,107.397 486.13,106.232 L483.588,103.691 C482.536,107.887 478.764,110.829 474.438,110.829 C473.281,110.829 472.343,111.767 472.343,112.924 C472.343,114.081 473.281,115.019 474.438,115.019 Z M452.44,100.354 L452.44,91.973 C452.44,90.816 451.502,89.878 450.345,89.878 C449.188,89.878 448.25,90.816 448.25,91.973 L448.25,100.354 C448.25,101.511 449.188,102.449 450.345,102.449 C451.502,102.449 452.44,101.511 452.44,100.354 Z M446.155,98.259 L454.535,98.259 C455.692,98.259 456.63,97.321 456.63,96.163 C456.63,95.006 455.692,94.068 454.535,94.068 L446.155,94.068 C444.997,94.068 444.059,95.006 444.059,96.163 C444.059,97.321 444.997,98.259 446.155,98.259 Z M452.437,129.685 C449.169,129.69 446.443,127.191 446.164,123.935 C445.886,120.679 448.149,117.754 451.37,117.204 C452.126,117.075 452.75,116.543 452.999,115.818 C454.351,111.875 457.91,109.108 462.065,108.77 C466.219,108.432 470.179,110.588 472.15,114.261 C472.614,115.124 473.614,115.551 474.558,115.288 C477.311,114.521 480.259,115.424 482.111,117.601 C483.963,119.777 484.381,122.831 483.183,125.426 C481.986,128.02 479.39,129.683 476.532,129.685 L452.442,129.685 L452.44,129.685 Z M452.44,133.875 L452.442,133.875 L476.533,133.875 C481.026,133.872 485.105,131.259 486.988,127.182 C488.87,123.105 488.212,118.306 485.302,114.885 C482.392,111.465 477.76,110.047 473.434,111.252 L475.842,112.279 C473.083,107.138 467.54,104.121 461.725,104.594 C455.91,105.067 450.927,108.94 449.035,114.459 L450.665,113.074 C445.297,113.99 441.526,118.866 441.99,124.292 C442.453,129.718 446.997,133.884 452.443,133.875 Z" />
        </g>
        <g id="Black-M" transform="translate(0,200)">
            <path d="M674.438,115.019 C680.686,115.02 686.133,110.77 687.652,104.71 C688.037,103.174 686.646,101.783 685.11,102.168 C681.896,102.974 678.494,102.034 676.151,99.69 C673.807,97.347 672.866,93.946 673.672,90.731 C674.056,89.196 672.665,87.805 671.13,88.19 C667.091,89.202 663.736,92.007 662.024,95.803 C660.312,99.599 660.43,103.969 662.345,107.667 C662.878,108.695 664.142,109.096 665.169,108.564 C666.197,108.032 666.598,106.768 666.066,105.74 C664.74,103.18 664.658,100.154 665.844,97.525 C667.029,94.897 669.352,92.955 672.149,92.254 L669.607,89.712 C668.443,94.356 669.803,99.269 673.188,102.654 C676.573,106.038 681.487,107.397 686.13,106.232 L683.588,103.691 C682.536,107.887 678.764,110.829 674.438,110.829 C673.281,110.829 672.343,111.767 672.343,112.924 C672.343,114.081 673.281,115.019 674.438,115.019 Z M652.44,100.354 L652.44,91.973 C652.44,90.816 651.502,89.878 650.345,89.878 C649.188,89.878 648.25,90.816 648.25,91.973 L648.25,100.354 C648.25,101.511 649.188,102.449 650.345,102.449 C651.502,102.449 652.44,101.511 652.44,100.354 Z M646.155,98.259 L654.535,98.259 C655.692,98.259 656.63,97.321 656.63,96.163 C656.63,95.006 655.692,94.068 654.535,94.068 L646.155,94.068 C644.997,94.068 644.059,95.006 644.059,96.163 C644.059,97.321 644.997,98.259 646.155,98.259 Z M652.437,129.685 C649.169,129.69 646.443,127.191 646.164,123.935 C645.886,120.679 648.149,117.754 651.37,117.204 C652.125,117.075 652.75,116.543 652.999,115.818 C654.351,111.875 657.91,109.108 662.065,108.77 C666.219,108.432 670.179,110.588 672.15,114.261 C672.614,115.124 673.614,115.551 674.558,115.288 C677.311,114.521 680.259,115.424 682.111,117.601 C683.963,119.777 684.381,122.831 683.183,125.426 C681.986,128.02 679.39,129.683 676.532,129.685 L652.442,129.685 L652.44,129.685 Z M652.44,133.875 L652.442,133.875 L676.533,133.875 C681.026,133.872 685.105,131.259 686.988,127.182 C688.87,123.105 688.212,118.306 685.302,114.885 C682.392,111.465 677.76,110.047 673.434,111.252 L675.842,112.279 C673.083,107.138 667.54,104.121 661.725,104.594 C655.91,105.067 650.927,108.94 649.035,114.459 L650.665,113.074 C645.297,113.99 641.526,118.866 641.99,124.292 C642.453,129.718 646.997,133.884 652.443,133.875 Z" />
        </g>
    </g>
</svg>