<?xml version="1.0" encoding="UTF-8"?>
<svg height="600" width="800" xmlns="http://www.w3.org/2000/svg" xmlns:xlink="http://www.w3.org/1999/xlink">
    <g id="Notes" font-family="LucidaGrande, 'Lucida Grande', sans-serif" font-size="13">
        <rect fill="white" height="600.0" width="800.0" x="0.0" y="0.0" />
        <g font-size="13">
            <text x="18.0" y="176.0">Small</text>
            <text x="18.0" y="376.0">Medium</text>
            <text x="18.0" y="576.0">Large</text>
        </g>
        <g font-size="9">
            <text x="250.0" y="30.0">Ultralight</text>
            <text x="450.0" y="30.0">Regular</text>
            <text x="650.0" y="30.0">Black</text>
            <text id="template-version" fill="#505050" text-anchor="end" x="785.0" y="575.0">Template v.3.0</text>
            <a href="https://github.com/swhitty/SwiftDraw">
                <text fill="#505050" text-anchor="end" x="785.0" y="590.0">https://github.com/swhitty/SwiftDraw</text>
            </a>
        </g>
    </g>
    <g id="Guides" stroke="rgb(39, 170, 225)" stroke-width="0.5">
        <path id="Capline-S" d="M18,76 l800,0" />
        <path id="H-reference" d="M85,145.755 L87.685,145.755 L113.369,79.287 L114.052,79.287 L114.052,76 L112.148,76 L85,145.755 Z M95.693,121.536 L130.996,121.536 L130.263,119.313 L96.474,119.313 L95.693,121.536 Z M139.15,145.755 L141.787,145.755 L114.638,76 L113.466,76 L113.466,79.287 L139.15,145.755 Z" stroke="none" transform="translate(0,200)" />
        <path id="Baseline-S" d="M18,146 l800,0" />
        <path id="left-margin-Ultralight-M" d="M230,256 l0,110" />
        <path id="right-margin-Ultralight-M" d="M300,256 l0,110" />
        <path id="left-margin-Regular-M" d="M430,256 l0,110" />
        <path id="right-margin-Regular-M" d="M500,256 l0,110" />
        <path id="left-margin-Black-M" d="M630,256 l0,110" />
        <path id="right-margin-Black-M" d="M700,256 l0,110" />
        <path id="Capline-M" d="M18,276 l800,0" />
        <path id="Baseline-M" d="M18,346 l800,0" />
        <path id="Capline-L" d="M18,476 l800,0" />
        <path id="Baseline-L" d="M18,546 l800,0" />
    </g>
    <g id="Symbols">
        <g id="Ultralight-M" transform="translate(0,200)">
            <path d="M268.387,114.951 L268.387,94.629 C268.387,92.758 266.871,91.242 265,91.242 C263.129,91.242 261.613,92.758 261.613,94.629 L261.613,114.951 C261.613,116.822 263.129,118.338 265,118.338 C266.871,118.338 268.387,116.822 268.387,114.951 Z M254.839,108.177 L275.161,108.177 C277.032,108.177 278.548,106.661 278.548,104.79 C278.548,102.919 277.032,101.403 275.161,101.403 L254.839,101.403 C252.968,101.403 251.452,102.919 251.452,104.79 C251.452,106.661 252.968,108.177 254.839,108.177 Z M255.177,136.289 L260.122,142.884 C261.529,144.763 261.882,145.156 263.154,145.653 C264.344,146.115 265.656,146.115 266.839,145.655 C268.117,145.156 268.447,144.79 269.876,142.886 L274.823,136.289 C275.757,135.046 276.023,134.711 276.266,134.471 C276.306,134.432 276.342,134.4 276.376,134.371 C276.786,134.028 277.263,133.79 277.775,133.668 C278.074,133.598 278.481,133.58 280.242,133.58 C286.728,133.58 288.272,133.475 290.506,132.55 C293.827,131.175 296.466,128.537 297.841,125.216 C298.765,122.981 298.871,121.438 298.871,114.951 L298.871,95.645 C298.871,87.852 298.719,86 297.394,83.398 C296.095,80.848 294.022,78.776 291.473,77.477 C288.871,76.151 287.019,76 279.226,76 L250.774,76 C242.981,76 241.129,76.151 238.527,77.477 C235.978,78.776 233.905,80.848 232.606,83.397 C231.281,86 231.129,87.852 231.129,95.645 L231.129,114.951 C231.129,121.438 231.235,122.981 232.159,125.215 C233.534,128.537 236.173,131.175 239.493,132.55 C241.728,133.475 243.272,133.58 249.758,133.58 C251.521,133.58 251.927,133.598 252.24,133.671 C252.738,133.789 253.214,134.028 253.617,134.365 C253.667,134.407 253.704,134.44 253.745,134.481 C253.986,134.72 254.252,135.054 255.177,136.288 Z M260.598,132.226 C259.428,130.665 259.091,130.24 258.507,129.663 C258.326,129.485 258.142,129.318 257.95,129.159 C256.755,128.158 255.327,127.442 253.793,127.077 C252.746,126.833 252.135,126.806 249.758,126.806 C244.407,126.806 243.116,126.718 242.084,126.291 C240.425,125.604 239.106,124.285 238.418,122.624 C237.991,121.593 237.904,120.303 237.904,114.951 L237.904,95.645 C237.904,89.213 238.029,87.676 238.642,86.472 C239.291,85.198 240.328,84.162 241.602,83.512 C242.805,82.9 244.342,82.774 250.774,82.774 L279.226,82.774 C285.658,82.774 287.195,82.9 288.398,83.513 C289.672,84.162 290.709,85.198 291.358,86.473 C291.971,87.676 292.096,89.213 292.096,95.645 L292.096,114.951 C292.096,120.303 292.009,121.593 291.582,122.625 C290.894,124.285 289.575,125.604 287.915,126.291 C286.884,126.718 285.593,126.806 280.242,126.806 C277.863,126.806 277.252,126.833 276.22,127.075 C274.677,127.441 273.247,128.157 272.036,129.17 C271.86,129.316 271.685,129.476 271.513,129.645 C270.925,130.224 270.588,130.648 269.405,132.223 L264.458,138.82 C264.027,139.394 263.875,139.589 263.766,139.71 C263.839,139.629 264.027,139.482 264.38,139.344 C264.781,139.188 265.219,139.188 265.613,139.341 C265.971,139.481 266.159,139.628 266.232,139.709 C266.124,139.589 265.964,139.384 265.544,138.823 L260.597,132.225 Z" />
        </g>
        <g id="Regular-M" transform="translate(0,200)">
            <path d="M468.387,114.951 L468.387,94.629 C468.387,92.758 466.871,91.242 465,91.242 C463.129,91.242 461.613,92.758 461.613,94.629 L461.613,114.951 C461.613,116.822 463.129,118.338 465,118.338 C466.871,118.338 468.387,116.822 468.387,114.951 Z M454.839,108.177 L475.161,108.177 C477.032,108.177 478.548,106.661 478.548,104.79 C478.548,102.919 477.032,101.403 475.161,101.403 L454.839,101.403 C452.968,101.403 451.452,102.919 451.452,104.79 C451.452,106.661 452.968,108.177 454.839,108.177 Z M455.177,136.289 L460.122,142.884 C461.529,144.763 461.882,145.156 463.154,145.653 C464.344,146.115 465.656,146.115 466.839,145.655 C468.117,145.156 468.447,144.79 469.876,142.886 L474.823,136.289 C475.757,135.046 476.023,134.711 476.266,134.471 C476.306,134.432 476.342,134.4 476.376,134.371 C476.786,134.028 477.263,133.79 477.775,133.668 C478.074,133.598 478.481,133.58 480.242,133.58 C486.728,133.58 488.272,133.475 490.506,132.55 C493.827,131.175 496.466,128.537 497.841,125.216 C498.765,122.981 498.871,121.438 498.871,114.951 L498.871,95.645 C498.871,87.852 498.719,86 497.394,83.398 C496.095,80.848 494.022,78.776 491.473,77.477 C488.871,76.151 487.019,76 479.226,76 L450.774,76 C442.981,76 441.129,76.151 438.527,77.477 C435.978,78.776 433.905,80.848 432.606,83.397 C431.281,86 431.129,87.852 431.129,95.645 L431.129,114.951 C431.129,121.438 431.235,122.981 432.159,125.215 C433.534,128.537 436.173,131.175 439.493,132.55 C441.728,133.475 443.272,133.58 449.758,133.58 C451.521,133.58 451.927,133.598 452.24,133.671 C452.738,133.789 453.214,134.028 453.617,134.365 C453.667,134.407 453.704,134.44 453.745,134.481 C453.986,134.72 454.252,135.054 455.177,136.288 Z M460.598,132.226 C459.428,130.665 459.091,130.24 458.507,129.663 C458.326,129.485 458.142,129.318 457.95,129.159 C456.755,128.158 455.327,127.442 453.793,127.077 C452.746,126.833 452.135,126.806 449.758,126.806 C444.407,126.806 443.116,126.718 442.084,126.291 C440.425,125.604 439.106,124.285 438.418,122.624 C437.991,121.593 437.904,120.303 437.904,114.951 L437.904,95.645 C437.904,89.213 438.029,87.676 438.642,86.472 C439.291,85.198 440.328,84.162 441.602,83.512 C442.805,82.9 444.342,82.774 450.774,82.774 L479.226,82.774 C485.658,82.774 487.195,82.9 488.398,83.513 C489.672,84.162 490.709,85.198 491.358,86.473 C491.971,87.676 492.096,89.213 492.096,95.645 L492.096,114.951 C492.096,120.303 492.009,121.593 491.582,122.625 C490.894,124.285 489.575,125.604 487.915,126.291 C486.884,126.718 485.593,126.806 480.242,126.806 C477.863,126.806 477.252,126.833 476.22,127.075 C474.677,127.441 473.247,128.157 472.036,129.17 C471.86,129.316 471.685,129.476 471.513,129.645 C470.925,130.224 470.588,130.648 469.405,132.223 L464.458,138.82 C464.027,139.394 463.875,139.589 463.766,139.71 C463.839,139.629 464.027,139.482 464.38,139.344 C464.781,139.188 465.219,139.188 465.613,139.341 C465.971,139.481 466.159,139.628 466.232,139.709 C466.124,139.589 465.964,139.384 465.544,138.823 L460.597,132.225 Z" />
        </g>
        <g id="Black-M" transform="translate(0,200)">
            <path d="M668.387,114.951 L668.387,94.629 C668.387,92.758 666.871,91.242 665,91.242 C663.129,91.242 661.613,92.758 661.613,94.629 L661.613,114.951 C661.613,116.822 663.129,118.338 665,118.338 C666.871,118.338 668.387,116.822 668.387,114.951 Z M654.839,108.177 L675.161,108.177 C677.032,108.177 678.548,106.661 678.548,104.79 C678.548,102.919 677.032,101.403 675.161,101.403 L654.839,101.403 C652.968,101.403 651.452,102.919 651.452,104.79 C651.452,106.661 652.968,108.177 654.839,108.177 Z M655.177,136.289 L660.122,142.884 C661.529,144.763 661.882,145.156 663.154,145.653 C664.344,146.115 665.656,146.115 666.839,145.655 C668.117,145.156 668.447,144.79 669.876,142.886 L674.823,136.289 C675.757,135.046 676.023,134.711 676.266,134.471 C676.306,134.432 676.342,134.4 676.376,134.371 C676.786,134.028 677.263,133.79 677.775,133.668 C678.074,133.598 678.481,133.58 680.242,133.58 C686.728,133.58 688.272,133.475 690.506,132.55 C693.827,131.175 696.466,128.537 697.841,125.216 C698.765,122.981 698.871,121.438 698.871,114.951 L698.871,95.645 C698.871,87.852 698.719,86 697.394,83.398 C696.095,80.848 694.022,78.776 691.473,77.477 C688.871,76.151 687.019,76 679.226,76 L650.774,76 C642.981,76 641.129,76.151 638.527,77.477 C635.978,78.776 633.905,80.848 632.606,83.397 C631.281,86 631.129,87.852 631.129,95.645 L631.129,114.951 C631.129,121.438 631.235,122.981 632.159,125.215 C633.534,128.537 636.173,131.175 639.493,132.55 C641.728,133.475 643.272,133.58 649.758,133.58 C651.521,133.58 651.927,133.598 652.24,133.671 C652.738,133.789 653.214,134.028 653.617,134.365 C653.667,134.407 653.704,134.44 653.745,134.481 C653.987,134.72 654.252,135.054 655.177,136.288 Z M660.598,132.226 C659.428,130.665 659.091,130.24 658.507,129.663 C658.326,129.485 658.142,129.318 657.95,129.159 C656.755,128.158 655.327,127.442 653.793,127.077 C652.746,126.833 652.135,126.806 649.758,126.806 C644.407,126.806 643.116,126.718 642.084,126.291 C640.425,125.604 639.106,124.285 638.418,122.624 C637.991,121.593 637.904,120.303 637.904,114.951 L637.904,95.645 C637.904,89.213 638.029,87.676 638.642,86.472 C639.291,85.198 640.328,84.162 641.602,83.512 C642.805,82.9 644.342,82.774 650.774,82.774 L679.226,82.774 C685.658,82.774 687.195,82.9 688.398,83.513 C689.672,84.162 690.709,85.198 691.358,86.473 C691.971,87.676 692.096,89.213 692.096,95.645 L692.096,114.951 C692.096,120.303 692.009,121.593 691.582,122.625 C690.894,124.285 689.575,125.604 687.915,126.291 C686.884,126.718 685.593,126.806 680.242,126.806 C677.863,126.806 677.252,126.833 676.22,127.075 C674.677,127.441 673.247,128.157 672.036,129.17 C671.86,129.316 671.685,129.476 671.513,129.645 C670.925,130.224 670.588,130.648 669.405,132.223 L664.458,138.82 C664.027,139.394 663.875,139.589 663.766,139.71 C663.839,139.629 664.027,139.482 664.38,139.344 C664.781,139.188 665.219,139.188 665.613,139.341 C665.971,139.481 666.159,139.628 666.232,139.709 C666.124,139.589 665.964,139.384 665.544,138.823 L660.597,132.225 Z" />
        </g>
    </g>
</svg>