<?xml version="1.0" encoding="UTF-8"?>
<svg height="600" width="800" xmlns="http://www.w3.org/2000/svg" xmlns:xlink="http://www.w3.org/1999/xlink">
    <g id="Notes" font-family="LucidaGrande, 'Lucida Grande', sans-serif" font-size="13">
        <rect fill="white" height="600.0" width="800.0" x="0.0" y="0.0" />
        <g font-size="13">
            <text x="18.0" y="176.0">Small</text>
            <text x="18.0" y="376.0">Medium</text>
            <text x="18.0" y="576.0">Large</text>
        </g>
        <g font-size="9">
            <text x="250.0" y="30.0">Ultralight</text>
            <text x="450.0" y="30.0">Regular</text>
            <text x="650.0" y="30.0">Black</text>
            <text id="template-version" fill="#505050" text-anchor="end" x="785.0" y="575.0">Template v.3.0</text>
            <a href="https://github.com/swhitty/SwiftDraw">
                <text fill="#505050" text-anchor="end" x="785.0" y="590.0">https://github.com/swhitty/SwiftDraw</text>
            </a>
        </g>
    </g>
    <g id="Guides" stroke="rgb(39, 170, 225)" stroke-width="0.5">
        <path id="Capline-S" d="M18,76 l800,0" />
        <path id="H-reference" d="M85,145.755 L87.685,145.755 L113.369,79.287 L114.052,79.287 L114.052,76 L112.148,76 L85,145.755 Z M95.693,121.536 L130.996,121.536 L130.263,119.313 L96.474,119.313 L95.693,121.536 Z M139.15,145.755 L141.787,145.755 L114.638,76 L113.466,76 L113.466,79.287 L139.15,145.755 Z" stroke="none" transform="translate(0,200)" />
        <path id="Baseline-S" d="M18,146 l800,0" />
        <path id="left-margin-Ultralight-M" d="M228.25,256 l0,110" />
        <path id="right-margin-Ultralight-M" d="M301.75,256 l0,110" />
        <path id="left-margin-Regular-M" d="M428.25,256 l0,110" />
        <path id="right-margin-Regular-M" d="M501.75,256 l0,110" />
        <path id="left-margin-Black-M" d="M628.25,256 l0,110" />
        <path id="right-margin-Black-M" d="M701.75,256 l0,110" />
        <path id="Capline-M" d="M18,276 l800,0" />
        <path id="Baseline-M" d="M18,346 l800,0" />
        <path id="Capline-L" d="M18,476 l800,0" />
        <path id="Baseline-L" d="M18,546 l800,0" />
    </g>
    <g id="Symbols">
        <g id="Ultralight-M" transform="translate(0,200)">
            <path d="M283.689,127.557 C287.988,129.805 291.731,133.45 294.49,138.081 C294.996,138.931 295.043,139.028 295.041,139.015 C295.016,138.848 294.904,139.058 295.046,138.996 C295.081,138.98 294.839,139 293.598,139 C291.742,139 290.238,140.567 290.238,142.5 C290.238,144.433 291.742,146 293.598,146 C295.899,146 296.52,145.95 297.669,145.441 C300.361,144.256 302.127,140.947 301.681,137.932 C301.488,136.667 301.197,136.062 300.2,134.389 C296.801,128.684 292.137,124.142 286.705,121.302 C285.046,120.434 283.027,121.132 282.194,122.859 C281.361,124.587 282.031,126.69 283.689,127.557 Z M279.968,112.498 C286.262,109.249 290.244,102.566 290.244,95.25 C290.244,87.934 286.262,81.251 279.968,78.002 C278.306,77.144 276.289,77.852 275.465,79.584 C274.641,81.316 275.321,83.416 276.984,84.274 C280.989,86.341 283.523,90.594 283.523,95.25 C283.523,99.906 280.989,104.159 276.984,106.226 C275.321,107.084 274.641,109.184 275.465,110.916 C276.289,112.648 278.306,113.356 279.968,112.498 Z M268.395,95.25 C268.395,102.015 263.129,107.5 256.634,107.5 C250.138,107.5 244.872,102.015 244.872,95.25 C244.872,88.485 250.138,83 256.634,83 C263.129,83 268.395,88.485 268.395,95.25 Z M275.116,95.25 C275.116,84.619 266.841,76 256.634,76 C246.426,76 238.152,84.619 238.152,95.25 C238.152,105.881 246.426,114.5 256.634,114.5 C266.841,114.5 275.116,105.881 275.116,95.25 Z M236.11,137.222 C241.018,129.543 248.542,125 256.634,125 C264.725,125 272.246,129.542 277.158,137.223 C278.068,138.644 278.288,139.049 278.308,139.156 C278.299,139.105 278.295,139.047 278.297,139.001 C278.304,138.888 278.213,139.066 278.295,139.001 C278.366,138.945 277.908,139 275.714,139 L237.553,139 C235.356,139 234.898,138.945 234.966,138.998 C235.014,139.035 234.968,138.944 234.958,138.845 C234.973,139.047 234.969,139.105 234.959,139.155 C234.98,139.048 235.199,138.645 236.108,137.221 L233.309,135.283 L233.316,138.783 L233.319,138.783 C234.441,138.781 235.488,138.195 236.11,137.222 Z M230.515,133.344 L233.313,135.283 L233.306,131.783 L233.303,131.783 C232.18,131.785 231.132,132.371 230.511,133.345 C229.014,135.69 228.637,136.385 228.369,137.784 C228.265,138.323 228.23,138.866 228.261,139.419 C228.467,141.493 229.373,143.256 230.798,144.487 C232.564,145.879 233.568,146 237.553,146 L275.714,146 C279.703,146 280.706,145.879 282.349,144.584 C283.831,143.417 284.892,141.356 285.006,139.425 C285.038,138.866 285.002,138.323 284.899,137.784 C284.63,136.383 284.248,135.68 282.751,133.342 C276.637,123.782 267.063,118 256.634,118 C246.203,118 236.626,123.783 230.515,133.344 Z" />
        </g>
        <g id="Regular-M" transform="translate(0,200)">
            <path d="M483.689,127.557 C487.988,129.805 491.731,133.45 494.49,138.081 C494.996,138.931 495.043,139.028 495.041,139.015 C495.016,138.848 494.904,139.058 495.046,138.996 C495.081,138.98 494.839,139 493.598,139 C491.742,139 490.238,140.567 490.238,142.5 C490.238,144.433 491.742,146 493.598,146 C495.899,146 496.52,145.95 497.669,145.441 C500.361,144.256 502.127,140.947 501.681,137.932 C501.488,136.667 501.197,136.062 500.2,134.389 C496.801,128.684 492.137,124.142 486.705,121.302 C485.046,120.434 483.027,121.132 482.194,122.859 C481.361,124.587 482.031,126.69 483.689,127.557 Z M479.968,112.498 C486.262,109.249 490.244,102.566 490.244,95.25 C490.244,87.934 486.262,81.251 479.968,78.002 C478.306,77.144 476.289,77.852 475.465,79.584 C474.641,81.316 475.321,83.416 476.984,84.274 C480.989,86.341 483.523,90.594 483.523,95.25 C483.523,99.906 480.989,104.159 476.984,106.226 C475.321,107.084 474.641,109.184 475.465,110.916 C476.289,112.648 478.306,113.356 479.968,112.498 Z M468.395,95.25 C468.395,102.015 463.129,107.5 456.634,107.5 C450.138,107.5 444.872,102.015 444.872,95.25 C444.872,88.485 450.138,83 456.634,83 C463.129,83 468.395,88.485 468.395,95.25 Z M475.116,95.25 C475.116,84.619 466.841,76 456.634,76 C446.426,76 438.152,84.619 438.152,95.25 C438.152,105.881 446.426,114.5 456.634,114.5 C466.841,114.5 475.116,105.881 475.116,95.25 Z M436.11,137.222 C441.018,129.543 448.542,125 456.634,125 C464.725,125 472.246,129.542 477.158,137.223 C478.068,138.644 478.288,139.049 478.308,139.156 C478.299,139.105 478.295,139.047 478.297,139.001 C478.304,138.888 478.213,139.066 478.295,139.001 C478.366,138.945 477.908,139 475.714,139 L437.553,139 C435.356,139 434.898,138.945 434.966,138.998 C435.014,139.035 434.968,138.944 434.958,138.845 C434.973,139.047 434.969,139.105 434.959,139.155 C434.98,139.048 435.199,138.645 436.108,137.221 L433.309,135.283 L433.316,138.783 L433.319,138.783 C434.441,138.781 435.488,138.195 436.11,137.222 Z M430.515,133.344 L433.313,135.283 L433.306,131.783 L433.303,131.783 C432.18,131.785 431.132,132.371 430.511,133.345 C429.014,135.69 428.637,136.385 428.369,137.784 C428.265,138.323 428.229,138.866 428.261,139.419 C428.467,141.493 429.373,143.256 430.798,144.487 C432.564,145.879 433.568,146 437.553,146 L475.714,146 C479.703,146 480.706,145.879 482.349,144.584 C483.831,143.417 484.892,141.356 485.006,139.425 C485.038,138.866 485.002,138.323 484.899,137.784 C484.63,136.383 484.248,135.68 482.751,133.342 C476.637,123.782 467.063,118 456.634,118 C446.203,118 436.626,123.783 430.515,133.344 Z" />
        </g>
        <g id="Black-M" transform="translate(0,200)">
            <path d="M683.689,127.557 C687.988,129.805 691.731,133.45 694.49,138.081 C694.996,138.931 695.043,139.028 695.041,139.015 C695.016,138.848 694.904,139.058 695.046,138.996 C695.081,138.98 694.839,139 693.598,139 C691.742,139 690.238,140.567 690.238,142.5 C690.238,144.433 691.742,146 693.598,146 C695.899,146 696.52,145.95 697.669,145.441 C700.361,144.256 702.127,140.947 701.681,137.932 C701.488,136.667 701.197,136.062 700.2,134.389 C696.801,128.684 692.137,124.142 686.705,121.302 C685.046,120.434 683.027,121.132 682.194,122.859 C681.361,124.587 682.031,126.69 683.689,127.557 Z M679.968,112.498 C686.262,109.249 690.244,102.566 690.244,95.25 C690.244,87.934 686.262,81.251 679.968,78.002 C678.306,77.144 676.289,77.852 675.465,79.584 C674.641,81.316 675.321,83.416 676.984,84.274 C680.989,86.341 683.523,90.594 683.523,95.25 C683.523,99.906 680.989,104.159 676.984,106.226 C675.321,107.084 674.641,109.184 675.465,110.916 C676.289,112.648 678.306,113.356 679.968,112.498 Z M668.395,95.25 C668.395,102.015 663.129,107.5 656.634,107.5 C650.138,107.5 644.872,102.015 644.872,95.25 C644.872,88.485 650.138,83 656.634,83 C663.129,83 668.395,88.485 668.395,95.25 Z M675.116,95.25 C675.116,84.619 666.841,76 656.634,76 C646.426,76 638.152,84.619 638.152,95.25 C638.152,105.881 646.426,114.5 656.634,114.5 C666.841,114.5 675.116,105.881 675.116,95.25 Z M636.11,137.222 C641.018,129.543 648.542,125 656.634,125 C664.725,125 672.246,129.542 677.158,137.223 C678.068,138.644 678.288,139.049 678.308,139.156 C678.299,139.105 678.295,139.047 678.297,139.001 C678.304,138.888 678.213,139.066 678.295,139.001 C678.366,138.945 677.908,139 675.714,139 L637.553,139 C635.356,139 634.898,138.945 634.966,138.998 C635.014,139.035 634.968,138.944 634.958,138.845 C634.973,139.047 634.969,139.105 634.959,139.155 C634.98,139.048 635.199,138.645 636.108,137.221 L633.309,135.283 L633.316,138.783 L633.319,138.783 C634.441,138.781 635.488,138.195 636.11,137.222 Z M630.515,133.344 L633.313,135.283 L633.306,131.783 L633.303,131.783 C632.18,131.785 631.132,132.371 630.511,133.345 C629.014,135.69 628.637,136.385 628.369,137.784 C628.265,138.323 628.229,138.866 628.261,139.419 C628.467,141.493 629.373,143.256 630.798,144.487 C632.564,145.879 633.568,146 637.553,146 L675.714,146 C679.703,146 680.706,145.879 682.349,144.584 C683.831,143.417 684.892,141.356 685.006,139.425 C685.038,138.866 685.002,138.323 684.899,137.784 C684.63,136.383 684.248,135.68 682.751,133.342 C676.637,123.782 667.063,118 656.634,118 C646.203,118 636.626,123.783 630.515,133.344 Z" />
        </g>
    </g>
</svg>