<?xml version="1.0" encoding="UTF-8"?>
<svg height="600" width="800" xmlns="http://www.w3.org/2000/svg" xmlns:xlink="http://www.w3.org/1999/xlink">
    <g id="Notes" font-family="LucidaGrande, 'Lucida Grande', sans-serif" font-size="13">
        <rect fill="white" height="600.0" width="800.0" x="0.0" y="0.0" />
        <g font-size="13">
            <text x="18.0" y="176.0">Small</text>
            <text x="18.0" y="376.0">Medium</text>
            <text x="18.0" y="576.0">Large</text>
        </g>
        <g font-size="9">
            <text x="250.0" y="30.0">Ultralight</text>
            <text x="450.0" y="30.0">Regular</text>
            <text x="650.0" y="30.0">Black</text>
            <text id="template-version" fill="#505050" text-anchor="end" x="785.0" y="575.0">Template v.3.0</text>
            <a href="https://github.com/swhitty/SwiftDraw">
                <text fill="#505050" text-anchor="end" x="785.0" y="590.0">https://github.com/swhitty/SwiftDraw</text>
            </a>
        </g>
    </g>
    <g id="Guides" stroke="rgb(39, 170, 225)" stroke-width="0.5">
        <path id="Capline-S" d="M18,76 l800,0" />
        <path id="H-reference" d="M85,145.755 L87.685,145.755 L113.369,79.287 L114.052,79.287 L114.052,76 L112.148,76 L85,145.755 Z M95.693,121.536 L130.996,121.536 L130.263,119.313 L96.474,119.313 L95.693,121.536 Z M139.15,145.755 L141.787,145.755 L114.638,76 L113.466,76 L113.466,79.287 L139.15,145.755 Z" stroke="none" transform="translate(0,200)" />
        <path id="Baseline-S" d="M18,146 l800,0" />
        <path id="left-margin-Ultralight-M" d="M230,256 l0,110" />
        <path id="right-margin-Ultralight-M" d="M300,256 l0,110" />
        <path id="left-margin-Regular-M" d="M430,256 l0,110" />
        <path id="right-margin-Regular-M" d="M500,256 l0,110" />
        <path id="left-margin-Black-M" d="M630,256 l0,110" />
        <path id="right-margin-Black-M" d="M700,256 l0,110" />
        <path id="Capline-M" d="M18,276 l800,0" />
        <path id="Baseline-M" d="M18,346 l800,0" />
        <path id="Capline-L" d="M18,476 l800,0" />
        <path id="Baseline-L" d="M18,546 l800,0" />
    </g>
    <g id="Symbols">
        <g id="Ultralight-M" transform="translate(0,200)">
            <path d="M253.864,87.136 C253.864,84.5 256,82.364 258.636,82.364 C261.272,82.364 263.409,84.5 263.409,87.136 L263.409,91.909 C263.409,93.666 264.834,95.091 266.591,95.091 L269.773,95.091 C274.8,95.091 276.012,95.174 276.982,95.575 C278.541,96.22 279.78,97.459 280.426,99.019 C280.827,99.988 280.909,101.2 280.909,106.227 C280.909,107.985 282.334,109.409 284.091,109.409 L288.864,109.409 C291.5,109.409 293.636,111.546 293.636,114.182 C293.636,116.818 291.5,118.955 288.864,118.955 L284.091,118.955 C282.334,118.955 280.909,120.379 280.909,122.136 L280.909,127.545 C280.909,133.588 280.791,135.032 280.215,136.162 C279.605,137.359 278.632,138.333 277.435,138.943 C276.304,139.518 274.861,139.636 268.818,139.636 L266.591,139.636 L266.591,142.818 L269.773,142.818 L269.773,137.25 C269.773,131.539 265.143,126.909 259.432,126.909 C253.721,126.909 249.091,131.539 249.091,137.25 L249.091,142.818 L252.273,139.636 L248.455,139.636 C242.412,139.636 240.968,139.518 239.838,138.943 C238.641,138.333 237.667,137.359 237.057,136.162 C236.482,135.032 236.364,133.588 236.364,127.545 L236.364,122.136 L233.182,125.318 L237.955,125.318 C244.105,125.318 249.091,120.332 249.091,114.182 C249.091,108.031 244.105,103.045 237.955,103.045 L233.182,103.045 L236.364,106.227 C236.364,101.2 236.446,99.988 236.847,99.018 C237.493,97.459 238.732,96.22 240.292,95.574 C241.26,95.174 242.473,95.091 247.5,95.091 L250.682,95.091 C252.439,95.091 253.864,93.666 253.864,91.909 L253.864,87.136 Z M247.5,87.136 L247.5,91.909 L250.682,88.727 L247.5,88.727 C241.407,88.727 239.957,88.826 237.858,89.694 C234.738,90.987 232.259,93.465 230.968,96.585 C230.099,98.684 230,100.134 230,106.227 C230,107.985 231.425,109.409 233.182,109.409 L237.955,109.409 C240.59,109.409 242.727,111.546 242.727,114.182 C242.727,116.818 240.59,118.955 237.955,118.955 L233.182,118.955 C231.425,118.955 230,120.379 230,122.136 L230,127.545 C230,134.867 230.142,136.606 231.387,139.05 C232.607,141.446 234.554,143.393 236.949,144.613 C239.394,145.858 241.133,146 248.455,146 L252.273,146 C254.03,146 255.455,144.575 255.455,142.818 L255.455,137.25 C255.455,135.053 257.235,133.273 259.432,133.273 C261.628,133.273 263.409,135.053 263.409,137.25 L263.409,142.818 C263.409,144.575 264.834,146 266.591,146 L268.818,146 C276.139,146 277.879,145.858 280.323,144.613 C282.718,143.393 284.665,141.446 285.885,139.051 C287.131,136.606 287.273,134.867 287.273,127.545 L287.273,122.136 L284.091,125.318 L288.864,125.318 C295.014,125.318 300,120.332 300,114.182 C300,108.031 295.014,103.045 288.864,103.045 L284.091,103.045 L287.273,106.227 C287.273,100.134 287.174,98.684 286.306,96.585 C285.013,93.465 282.535,90.987 279.415,89.695 C277.316,88.826 275.866,88.727 269.773,88.727 L266.591,88.727 L269.773,91.909 L269.773,87.136 C269.773,80.986 264.787,76 258.636,76 C252.486,76 247.5,80.986 247.5,87.136 Z" />
        </g>
        <g id="Regular-M" transform="translate(0,200)">
            <path d="M453.864,87.136 C453.864,84.5 456,82.364 458.636,82.364 C461.272,82.364 463.409,84.5 463.409,87.136 L463.409,91.909 C463.409,93.666 464.834,95.091 466.591,95.091 L469.773,95.091 C474.8,95.091 476.012,95.174 476.982,95.575 C478.541,96.22 479.78,97.459 480.426,99.019 C480.827,99.988 480.909,101.2 480.909,106.227 C480.909,107.985 482.334,109.409 484.091,109.409 L488.864,109.409 C491.5,109.409 493.636,111.546 493.636,114.182 C493.636,116.818 491.5,118.955 488.864,118.955 L484.091,118.955 C482.334,118.955 480.909,120.379 480.909,122.136 L480.909,127.545 C480.909,133.588 480.791,135.032 480.215,136.162 C479.605,137.359 478.632,138.333 477.435,138.943 C476.304,139.518 474.861,139.636 468.818,139.636 L466.591,139.636 L466.591,142.818 L469.773,142.818 L469.773,137.25 C469.773,131.539 465.143,126.909 459.432,126.909 C453.721,126.909 449.091,131.539 449.091,137.25 L449.091,142.818 L452.273,139.636 L448.455,139.636 C442.412,139.636 440.968,139.518 439.838,138.943 C438.641,138.333 437.667,137.359 437.057,136.162 C436.482,135.032 436.364,133.588 436.364,127.545 L436.364,122.136 L433.182,125.318 L437.955,125.318 C444.105,125.318 449.091,120.332 449.091,114.182 C449.091,108.031 444.105,103.045 437.955,103.045 L433.182,103.045 L436.364,106.227 C436.364,101.2 436.446,99.988 436.847,99.018 C437.493,97.459 438.732,96.22 440.292,95.574 C441.26,95.174 442.473,95.091 447.5,95.091 L450.682,95.091 C452.439,95.091 453.864,93.666 453.864,91.909 L453.864,87.136 Z M447.5,87.136 L447.5,91.909 L450.682,88.727 L447.5,88.727 C441.407,88.727 439.957,88.826 437.858,89.694 C434.738,90.987 432.259,93.465 430.968,96.585 C430.099,98.684 430,100.134 430,106.227 C430,107.985 431.425,109.409 433.182,109.409 L437.955,109.409 C440.59,109.409 442.727,111.546 442.727,114.182 C442.727,116.818 440.59,118.955 437.955,118.955 L433.182,118.955 C431.425,118.955 430,120.379 430,122.136 L430,127.545 C430,134.867 430.142,136.606 431.387,139.05 C432.607,141.446 434.554,143.393 436.949,144.613 C439.394,145.858 441.133,146 448.455,146 L452.273,146 C454.03,146 455.455,144.575 455.455,142.818 L455.455,137.25 C455.455,135.053 457.235,133.273 459.432,133.273 C461.628,133.273 463.409,135.053 463.409,137.25 L463.409,142.818 C463.409,144.575 464.834,146 466.591,146 L468.818,146 C476.139,146 477.879,145.858 480.323,144.613 C482.718,143.393 484.665,141.446 485.885,139.051 C487.131,136.606 487.273,134.867 487.273,127.545 L487.273,122.136 L484.091,125.318 L488.864,125.318 C495.014,125.318 500,120.332 500,114.182 C500,108.031 495.014,103.045 488.864,103.045 L484.091,103.045 L487.273,106.227 C487.273,100.134 487.174,98.684 486.306,96.585 C485.013,93.465 482.535,90.987 479.415,89.695 C477.316,88.826 475.866,88.727 469.773,88.727 L466.591,88.727 L469.773,91.909 L469.773,87.136 C469.773,80.986 464.787,76 458.636,76 C452.486,76 447.5,80.986 447.5,87.136 Z" />
        </g>
        <g id="Black-M" transform="translate(0,200)">
            <path d="M653.864,87.136 C653.864,84.5 656,82.364 658.636,82.364 C661.272,82.364 663.409,84.5 663.409,87.136 L663.409,91.909 C663.409,93.666 664.834,95.091 666.591,95.091 L669.773,95.091 C674.8,95.091 676.012,95.174 676.982,95.575 C678.541,96.22 679.78,97.459 680.426,99.019 C680.826,99.988 680.909,101.2 680.909,106.227 C680.909,107.985 682.334,109.409 684.091,109.409 L688.864,109.409 C691.5,109.409 693.636,111.546 693.636,114.182 C693.636,116.818 691.5,118.955 688.864,118.955 L684.091,118.955 C682.334,118.955 680.909,120.379 680.909,122.136 L680.909,127.545 C680.909,133.588 680.791,135.032 680.215,136.162 C679.605,137.359 678.632,138.333 677.435,138.943 C676.304,139.518 674.861,139.636 668.818,139.636 L666.591,139.636 L666.591,142.818 L669.773,142.818 L669.773,137.25 C669.773,131.539 665.143,126.909 659.432,126.909 C653.721,126.909 649.091,131.539 649.091,137.25 L649.091,142.818 L652.273,139.636 L648.455,139.636 C642.412,139.636 640.968,139.518 639.838,138.943 C638.641,138.333 637.667,137.359 637.057,136.162 C636.482,135.032 636.364,133.588 636.364,127.545 L636.364,122.136 L633.182,125.318 L637.955,125.318 C644.105,125.318 649.091,120.332 649.091,114.182 C649.091,108.031 644.105,103.045 637.955,103.045 L633.182,103.045 L636.364,106.227 C636.364,101.2 636.446,99.988 636.847,99.018 C637.493,97.459 638.732,96.22 640.292,95.574 C641.26,95.174 642.473,95.091 647.5,95.091 L650.682,95.091 C652.439,95.091 653.864,93.666 653.864,91.909 L653.864,87.136 Z M647.5,87.136 L647.5,91.909 L650.682,88.727 L647.5,88.727 C641.407,88.727 639.957,88.826 637.858,89.694 C634.738,90.987 632.259,93.465 630.968,96.585 C630.099,98.684 630,100.134 630,106.227 C630,107.985 631.425,109.409 633.182,109.409 L637.955,109.409 C640.59,109.409 642.727,111.546 642.727,114.182 C642.727,116.818 640.59,118.955 637.955,118.955 L633.182,118.955 C631.425,118.955 630,120.379 630,122.136 L630,127.545 C630,134.867 630.142,136.606 631.387,139.05 C632.607,141.446 634.554,143.393 636.949,144.613 C639.394,145.858 641.133,146 648.455,146 L652.273,146 C654.03,146 655.455,144.575 655.455,142.818 L655.455,137.25 C655.455,135.053 657.235,133.273 659.432,133.273 C661.628,133.273 663.409,135.053 663.409,137.25 L663.409,142.818 C663.409,144.575 664.834,146 666.591,146 L668.818,146 C676.139,146 677.879,145.858 680.323,144.613 C682.718,143.393 684.665,141.446 685.885,139.051 C687.131,136.606 687.273,134.867 687.273,127.545 L687.273,122.136 L684.091,125.318 L688.864,125.318 C695.014,125.318 700,120.332 700,114.182 C700,108.031 695.014,103.045 688.864,103.045 L684.091,103.045 L687.273,106.227 C687.273,100.134 687.174,98.684 686.306,96.585 C685.013,93.465 682.535,90.987 679.416,89.695 C677.316,88.826 675.866,88.727 669.773,88.727 L666.591,88.727 L669.773,91.909 L669.773,87.136 C669.773,80.986 664.787,76 658.636,76 C652.486,76 647.5,80.986 647.5,87.136 Z" />
        </g>
    </g>
</svg>