<?xml version="1.0" encoding="UTF-8"?>
<svg height="600" width="800" xmlns="http://www.w3.org/2000/svg" xmlns:xlink="http://www.w3.org/1999/xlink">
    <g id="Notes" font-family="LucidaGrande, 'Lucida Grande', sans-serif" font-size="13">
        <rect fill="white" height="600.0" width="800.0" x="0.0" y="0.0" />
        <g font-size="13">
            <text x="18.0" y="176.0">Small</text>
            <text x="18.0" y="376.0">Medium</text>
            <text x="18.0" y="576.0">Large</text>
        </g>
        <g font-size="9">
            <text x="250.0" y="30.0">Ultralight</text>
            <text x="450.0" y="30.0">Regular</text>
            <text x="650.0" y="30.0">Black</text>
            <text id="template-version" fill="#505050" text-anchor="end" x="785.0" y="575.0">Template v.3.0</text>
            <a href="https://github.com/swhitty/SwiftDraw">
                <text fill="#505050" text-anchor="end" x="785.0" y="590.0">https://github.com/swhitty/SwiftDraw</text>
            </a>
        </g>
    </g>
    <g id="Guides" stroke="rgb(39, 170, 225)" stroke-width="0.5">
        <path id="Capline-S" d="M18,76 l800,0" />
        <path id="H-reference" d="M85,145.755 L87.685,145.755 L113.369,79.287 L114.052,79.287 L114.052,76 L112.148,76 L85,145.755 Z M95.693,121.536 L130.996,121.536 L130.263,119.313 L96.474,119.313 L95.693,121.536 Z M139.15,145.755 L141.787,145.755 L114.638,76 L113.466,76 L113.466,79.287 L139.15,145.755 Z" stroke="none" transform="translate(0,200)" />
        <path id="Baseline-S" d="M18,146 l800,0" />
        <path id="left-margin-Ultralight-M" d="M221,256 l0,110" />
        <path id="right-margin-Ultralight-M" d="M309,256 l0,110" />
        <path id="left-margin-Regular-M" d="M421,256 l0,110" />
        <path id="right-margin-Regular-M" d="M509,256 l0,110" />
        <path id="left-margin-Black-M" d="M621,256 l0,110" />
        <path id="right-margin-Black-M" d="M709,256 l0,110" />
        <path id="Capline-M" d="M18,276 l800,0" />
        <path id="Baseline-M" d="M18,346 l800,0" />
        <path id="Capline-L" d="M18,476 l800,0" />
        <path id="Baseline-L" d="M18,546 l800,0" />
    </g>
    <g id="Symbols">
        <g id="Ultralight-M" transform="translate(0,200)">
            <path d="M246.143,103.042 C246.143,102.096 246.519,101.189 247.187,100.521 C247.856,99.852 248.763,99.476 249.709,99.476 C252.234,99.476 254.476,97.86 255.277,95.464 L255.465,94.898 C255.554,94.629 255.578,94.558 255.595,94.519 C255.902,93.754 256.61,93.244 257.418,93.195 C257.473,93.191 257.545,93.19 257.834,93.19 L272.162,93.19 C272.453,93.19 272.524,93.191 272.567,93.194 C273.388,93.244 274.096,93.754 274.398,94.505 C274.404,94.521 274.404,94.521 274.405,94.523 C274.421,94.564 274.438,94.614 274.534,94.901 L274.724,95.467 C275.52,97.858 277.762,99.475 280.288,99.476 C281.236,99.476 282.143,99.851 282.812,100.52 C283.481,101.189 283.857,102.096 283.857,103.042 L283.857,120.848 C283.857,124.827 283.779,125.777 283.4,126.522 C282.999,127.31 282.358,127.951 281.569,128.353 C280.825,128.732 279.874,128.81 275.895,128.81 L254.105,128.81 C250.126,128.81 249.175,128.732 248.431,128.353 C247.642,127.951 247.001,127.31 246.6,126.522 C246.221,125.777 246.143,124.827 246.143,120.848 L246.143,103.042 Z M241.952,103.042 L241.952,120.848 C241.952,125.669 242.046,126.814 242.866,128.424 C243.669,130.001 244.951,131.283 246.528,132.086 C248.138,132.906 249.284,133 254.105,133 L275.895,133 C280.716,133 281.862,132.906 283.471,132.087 C285.049,131.283 286.331,130.001 287.134,128.424 C287.954,126.814 288.048,125.669 288.048,120.848 L288.048,103.042 C288.048,100.985 287.23,99.011 285.775,97.557 C284.32,96.102 282.346,95.285 280.288,95.286 C279.568,95.285 278.926,94.823 278.698,94.138 L278.508,93.571 C278.379,93.184 278.361,93.13 278.303,92.984 C278.291,92.956 278.291,92.956 278.28,92.927 C277.379,90.688 275.256,89.159 272.833,89.012 C272.669,89.001 272.567,89 272.162,89 L257.834,89 C257.428,89 257.326,89.001 257.15,89.013 C254.742,89.159 252.619,90.688 251.713,92.941 C251.649,93.095 251.611,93.205 251.487,93.58 L251.301,94.139 C251.073,94.823 250.431,95.286 249.709,95.286 C247.652,95.286 245.679,96.103 244.224,97.558 C242.77,99.012 241.952,100.985 241.952,103.042 Z" />
            <path d="M265,123.571 C271.364,123.571 276.524,118.412 276.524,112.048 C276.524,105.683 271.364,100.524 265,100.524 C258.636,100.524 253.476,105.683 253.476,112.048 C253.476,118.412 258.636,123.571 265,123.571 Z M265,119.381 C260.95,119.381 257.667,116.098 257.667,112.048 C257.667,107.998 260.95,104.714 265,104.714 C269.05,104.714 272.333,107.998 272.333,112.048 C272.333,116.098 269.05,119.381 265,119.381 Z" />
        </g>
        <g id="Regular-M" transform="translate(0,200)">
            <path d="M446.143,103.042 C446.143,102.096 446.519,101.189 447.187,100.521 C447.856,99.852 448.763,99.476 449.709,99.476 C452.234,99.476 454.476,97.86 455.277,95.464 L455.465,94.898 C455.554,94.629 455.578,94.558 455.595,94.519 C455.902,93.754 456.61,93.244 457.418,93.195 C457.473,93.191 457.545,93.19 457.834,93.19 L472.162,93.19 C472.453,93.19 472.524,93.191 472.567,93.194 C473.388,93.244 474.096,93.754 474.398,94.505 C474.404,94.521 474.404,94.521 474.405,94.523 C474.421,94.564 474.438,94.614 474.534,94.901 L474.724,95.467 C475.52,97.858 477.762,99.475 480.288,99.476 C481.236,99.476 482.143,99.851 482.812,100.52 C483.481,101.189 483.857,102.096 483.857,103.042 L483.857,120.848 C483.857,124.827 483.779,125.777 483.4,126.522 C482.999,127.31 482.358,127.951 481.569,128.353 C480.825,128.732 479.874,128.81 475.895,128.81 L454.105,128.81 C450.126,128.81 449.175,128.732 448.431,128.353 C447.642,127.951 447.001,127.31 446.6,126.522 C446.221,125.777 446.143,124.827 446.143,120.848 L446.143,103.042 Z M441.952,103.042 L441.952,120.848 C441.952,125.669 442.046,126.814 442.866,128.424 C443.669,130.001 444.951,131.283 446.528,132.086 C448.138,132.906 449.284,133 454.105,133 L475.895,133 C480.716,133 481.862,132.906 483.471,132.087 C485.049,131.283 486.331,130.001 487.134,128.424 C487.954,126.814 488.048,125.669 488.048,120.848 L488.048,103.042 C488.048,100.985 487.23,99.011 485.775,97.557 C484.32,96.102 482.346,95.285 480.288,95.286 C479.568,95.285 478.926,94.823 478.698,94.138 L478.508,93.571 C478.379,93.184 478.361,93.13 478.303,92.984 C478.291,92.956 478.291,92.956 478.28,92.927 C477.379,90.688 475.256,89.159 472.833,89.012 C472.669,89.001 472.567,89 472.162,89 L457.834,89 C457.428,89 457.326,89.001 457.15,89.013 C454.741,89.159 452.619,90.688 451.713,92.941 C451.649,93.095 451.611,93.205 451.487,93.58 L451.301,94.139 C451.073,94.823 450.431,95.286 449.709,95.286 C447.652,95.286 445.679,96.103 444.224,97.558 C442.77,99.012 441.952,100.985 441.952,103.042 Z" />
            <path d="M465,123.571 C471.364,123.571 476.524,118.412 476.524,112.048 C476.524,105.683 471.364,100.524 465,100.524 C458.636,100.524 453.476,105.683 453.476,112.048 C453.476,118.412 458.636,123.571 465,123.571 Z M465,119.381 C460.95,119.381 457.667,116.098 457.667,112.048 C457.667,107.998 460.95,104.714 465,104.714 C469.05,104.714 472.333,107.998 472.333,112.048 C472.333,116.098 469.05,119.381 465,119.381 Z" />
        </g>
        <g id="Black-M" transform="translate(0,200)">
            <path d="M646.143,103.042 C646.143,102.096 646.519,101.189 647.187,100.521 C647.856,99.852 648.763,99.476 649.709,99.476 C652.234,99.476 654.476,97.86 655.277,95.464 L655.465,94.898 C655.554,94.629 655.578,94.558 655.594,94.519 C655.902,93.754 656.61,93.244 657.418,93.195 C657.473,93.191 657.545,93.19 657.834,93.19 L672.161,93.19 C672.453,93.19 672.524,93.191 672.567,93.194 C673.388,93.244 674.096,93.754 674.398,94.505 C674.404,94.521 674.404,94.521 674.405,94.523 C674.421,94.564 674.438,94.614 674.534,94.901 L674.724,95.467 C675.52,97.858 677.762,99.475 680.288,99.476 C681.236,99.476 682.143,99.851 682.812,100.52 C683.481,101.189 683.857,102.096 683.857,103.042 L683.857,120.848 C683.857,124.827 683.779,125.777 683.4,126.522 C682.999,127.31 682.358,127.951 681.569,128.353 C680.825,128.732 679.874,128.81 675.895,128.81 L654.105,128.81 C650.126,128.81 649.175,128.732 648.431,128.353 C647.642,127.951 647.001,127.31 646.6,126.522 C646.221,125.777 646.143,124.827 646.143,120.848 L646.143,103.042 Z M641.952,103.042 L641.952,120.848 C641.952,125.669 642.046,126.814 642.866,128.424 C643.669,130.001 644.951,131.283 646.528,132.086 C648.138,132.906 649.284,133 654.105,133 L675.895,133 C680.716,133 681.862,132.906 683.471,132.087 C685.049,131.283 686.331,130.001 687.134,128.424 C687.954,126.814 688.048,125.669 688.048,120.848 L688.048,103.042 C688.048,100.985 687.23,99.011 685.775,97.557 C684.319,96.102 682.346,95.285 680.288,95.286 C679.568,95.285 678.926,94.823 678.698,94.138 L678.508,93.571 C678.379,93.184 678.361,93.13 678.303,92.984 C678.291,92.956 678.291,92.956 678.28,92.927 C677.379,90.688 675.256,89.159 672.833,89.012 C672.669,89.001 672.567,89 672.161,89 L657.834,89 C657.428,89 657.326,89.001 657.15,89.013 C654.741,89.159 652.619,90.688 651.712,92.941 C651.649,93.095 651.611,93.205 651.487,93.58 L651.301,94.139 C651.073,94.823 650.431,95.286 649.709,95.286 C647.652,95.286 645.679,96.103 644.224,97.558 C642.77,99.012 641.952,100.985 641.952,103.042 Z" />
            <path d="M665,123.571 C671.364,123.571 676.524,118.412 676.524,112.048 C676.524,105.683 671.364,100.524 665,100.524 C658.636,100.524 653.476,105.683 653.476,112.048 C653.476,118.412 658.636,123.571 665,123.571 Z M665,119.381 C660.95,119.381 657.667,116.098 657.667,112.048 C657.667,107.998 660.95,104.714 665,104.714 C669.05,104.714 672.333,107.998 672.333,112.048 C672.333,116.098 669.05,119.381 665,119.381 Z" />
        </g>
    </g>
</svg>