<?xml version="1.0" encoding="UTF-8"?>
<svg height="600" width="800" xmlns="http://www.w3.org/2000/svg" xmlns:xlink="http://www.w3.org/1999/xlink">
    <g id="Notes" font-family="LucidaGrande, 'Lucida Grande', sans-serif" font-size="13">
        <rect fill="white" height="600.0" width="800.0" x="0.0" y="0.0" />
        <g font-size="13">
            <text x="18.0" y="176.0">Small</text>
            <text x="18.0" y="376.0">Medium</text>
            <text x="18.0" y="576.0">Large</text>
        </g>
        <g font-size="9">
            <text x="250.0" y="30.0">Ultralight</text>
            <text x="450.0" y="30.0">Regular</text>
            <text x="650.0" y="30.0">Black</text>
            <text id="template-version" fill="#505050" text-anchor="end" x="785.0" y="575.0">Template v.3.0</text>
            <a href="https://github.com/swhitty/SwiftDraw">
                <text fill="#505050" text-anchor="end" x="785.0" y="590.0">https://github.com/swhitty/SwiftDraw</text>
            </a>
        </g>
    </g>
    <g id="Guides" stroke="rgb(39, 170, 225)" stroke-width="0.5">
        <path id="Capline-S" d="M18,76 l800,0" />
        <path id="H-reference" d="M85,145.755 L87.685,145.755 L113.369,79.287 L114.052,79.287 L114.052,76 L112.148,76 L85,145.755 Z M95.693,121.536 L130.996,121.536 L130.263,119.313 L96.474,119.313 L95.693,121.536 Z M139.15,145.755 L141.787,145.755 L114.638,76 L113.466,76 L113.466,79.287 L139.15,145.755 Z" stroke="none" transform="translate(0,200)" />
        <path id="Baseline-S" d="M18,146 l800,0" />
        <path id="left-margin-Ultralight-M" d="M221,256 l0,110" />
        <path id="right-margin-Ultralight-M" d="M309,256 l0,110" />
        <path id="left-margin-Regular-M" d="M421,256 l0,110" />
        <path id="right-margin-Regular-M" d="M509,256 l0,110" />
        <path id="left-margin-Black-M" d="M621,256 l0,110" />
        <path id="right-margin-Black-M" d="M709,256 l0,110" />
        <path id="Capline-M" d="M18,276 l800,0" />
        <path id="Baseline-M" d="M18,346 l800,0" />
        <path id="Capline-L" d="M18,476 l800,0" />
        <path id="Baseline-L" d="M18,546 l800,0" />
    </g>
    <g id="Symbols">
        <g id="Ultralight-M" transform="translate(0,200)">
            <path d="M272.333,108.206 L270.237,108.206 C269.444,108.206 268.718,108.655 268.363,109.365 L265.221,115.65 L269.082,115.925 L264.892,103.353 C264.302,101.583 261.865,101.409 261.03,103.079 L257.887,109.365 L259.761,108.206 L257.666,108.206 C256.509,108.206 255.571,109.144 255.571,110.302 C255.571,111.459 256.509,112.397 257.666,112.397 L259.761,112.397 C260.555,112.397 261.28,111.948 261.635,111.239 L264.778,104.953 L260.917,104.679 L265.107,117.25 C265.697,119.021 268.134,119.194 268.969,117.524 L272.111,111.239 L270.237,112.397 L272.333,112.397 C273.49,112.397 274.428,111.459 274.428,110.302 C274.428,109.144 273.49,108.206 272.333,108.206 Z M266.577,95.606 C261.468,89.634 253.161,88.553 247.202,93.644 C241.131,98.83 240.21,107.592 245.044,113.809 C247.68,117.203 253.958,123.191 261.4,129.831 C262.625,130.924 262.965,131.182 263.78,131.427 C264.56,131.66 265.408,131.66 266.185,131.429 C267.006,131.181 267.345,130.924 268.569,129.831 C276.009,123.193 282.29,117.203 284.928,113.808 C289.79,107.552 288.898,98.738 282.748,93.626 C276.693,88.595 268.484,89.651 263.392,95.606 L266.577,95.606 Z M263.393,98.33 C264.229,99.308 265.741,99.307 266.577,98.329 C270.23,94.058 275.842,93.336 280.07,96.849 C284.47,100.506 285.103,106.755 281.619,111.237 C279.206,114.343 272.986,120.274 265.779,126.705 C265.108,127.304 264.948,127.425 264.983,127.415 C264.994,127.411 264.978,127.411 264.983,127.413 C265.02,127.424 264.861,127.304 264.19,126.705 C256.982,120.273 250.764,114.343 248.352,111.237 C244.896,106.792 245.55,100.566 249.923,96.83 C254.047,93.307 259.729,94.047 263.393,98.33 Z" />
        </g>
        <g id="Regular-M" transform="translate(0,200)">
            <path d="M472.333,108.206 L470.237,108.206 C469.444,108.206 468.718,108.655 468.363,109.365 L465.221,115.65 L469.082,115.925 L464.892,103.353 C464.302,101.583 461.865,101.409 461.03,103.079 L457.887,109.365 L459.761,108.206 L457.666,108.206 C456.509,108.206 455.571,109.144 455.571,110.302 C455.571,111.459 456.509,112.397 457.666,112.397 L459.761,112.397 C460.555,112.397 461.28,111.948 461.635,111.239 L464.778,104.953 L460.917,104.679 L465.107,117.25 C465.697,119.021 468.134,119.194 468.969,117.524 L472.111,111.239 L470.237,112.397 L472.333,112.397 C473.49,112.397 474.428,111.459 474.428,110.302 C474.428,109.144 473.49,108.206 472.333,108.206 Z M466.577,95.606 C461.468,89.634 453.161,88.553 447.202,93.644 C441.131,98.83 440.21,107.592 445.044,113.809 C447.68,117.203 453.958,123.191 461.4,129.831 C462.625,130.924 462.965,131.182 463.781,131.427 C464.56,131.66 465.408,131.66 466.185,131.429 C467.006,131.181 467.345,130.924 468.569,129.831 C476.009,123.193 482.29,117.203 484.928,113.808 C489.79,107.552 488.898,98.738 482.748,93.626 C476.693,88.595 468.484,89.651 463.392,95.606 L466.577,95.606 Z M463.393,98.33 C464.229,99.308 465.741,99.307 466.577,98.329 C470.23,94.058 475.842,93.336 480.07,96.849 C484.47,100.506 485.103,106.755 481.619,111.237 C479.206,114.343 472.986,120.274 465.779,126.705 C465.108,127.304 464.948,127.425 464.983,127.415 C464.994,127.411 464.978,127.411 464.983,127.413 C465.02,127.424 464.861,127.304 464.19,126.705 C456.982,120.273 450.764,114.343 448.353,111.237 C444.896,106.792 445.551,100.566 449.923,96.83 C454.047,93.307 459.729,94.047 463.393,98.33 Z" />
        </g>
        <g id="Black-M" transform="translate(0,200)">
            <path d="M672.333,108.206 L670.237,108.206 C669.444,108.206 668.718,108.655 668.363,109.365 L665.221,115.65 L669.082,115.925 L664.892,103.353 C664.302,101.583 661.865,101.409 661.03,103.079 L657.887,109.365 L659.761,108.206 L657.666,108.206 C656.509,108.206 655.571,109.144 655.571,110.302 C655.571,111.459 656.509,112.397 657.666,112.397 L659.761,112.397 C660.555,112.397 661.28,111.948 661.635,111.239 L664.778,104.953 L660.917,104.679 L665.107,117.25 C665.697,119.021 668.134,119.194 668.969,117.524 L672.111,111.239 L670.237,112.397 L672.333,112.397 C673.49,112.397 674.428,111.459 674.428,110.302 C674.428,109.144 673.49,108.206 672.333,108.206 Z M666.577,95.606 C661.468,89.634 653.161,88.553 647.202,93.644 C641.131,98.83 640.21,107.592 645.044,113.809 C647.68,117.203 653.958,123.191 661.4,129.831 C662.625,130.924 662.965,131.182 663.78,131.427 C664.56,131.66 665.407,131.66 666.185,131.429 C667.006,131.181 667.345,130.924 668.569,129.831 C676.009,123.193 682.29,117.203 684.928,113.808 C689.79,107.552 688.898,98.738 682.748,93.626 C676.693,88.595 668.484,89.651 663.392,95.606 L666.577,95.606 Z M663.393,98.33 C664.229,99.308 665.741,99.307 666.577,98.329 C670.229,94.058 675.842,93.336 680.07,96.849 C684.47,100.506 685.103,106.755 681.619,111.237 C679.206,114.343 672.986,120.274 665.779,126.705 C665.108,127.304 664.948,127.425 664.983,127.415 C664.994,127.411 664.978,127.411 664.983,127.413 C665.02,127.424 664.861,127.304 664.19,126.705 C656.982,120.273 650.764,114.343 648.352,111.237 C644.896,106.792 645.55,100.566 649.923,96.83 C654.047,93.307 659.729,94.047 663.393,98.33 Z" />
        </g>
    </g>
</svg>