<?xml version="1.0" encoding="UTF-8"?>
<svg height="600" width="800" xmlns="http://www.w3.org/2000/svg" xmlns:xlink="http://www.w3.org/1999/xlink">
    <g id="Notes" font-family="LucidaGrande, 'Lucida Grande', sans-serif" font-size="13">
        <rect fill="white" height="600.0" width="800.0" x="0.0" y="0.0" />
        <g font-size="13">
            <text x="18.0" y="176.0">Small</text>
            <text x="18.0" y="376.0">Medium</text>
            <text x="18.0" y="576.0">Large</text>
        </g>
        <g font-size="9">
            <text x="250.0" y="30.0">Ultralight</text>
            <text x="450.0" y="30.0">Regular</text>
            <text x="650.0" y="30.0">Black</text>
            <text id="template-version" fill="#505050" text-anchor="end" x="785.0" y="575.0">Template v.3.0</text>
            <a href="https://github.com/swhitty/SwiftDraw">
                <text fill="#505050" text-anchor="end" x="785.0" y="590.0">https://github.com/swhitty/SwiftDraw</text>
            </a>
        </g>
    </g>
    <g id="Guides" stroke="rgb(39, 170, 225)" stroke-width="0.5">
        <path id="Capline-S" d="M18,76 l800,0" />
        <path id="H-reference" d="M85,145.755 L87.685,145.755 L113.369,79.287 L114.052,79.287 L114.052,76 L112.148,76 L85,145.755 Z M95.693,121.536 L130.996,121.536 L130.263,119.313 L96.474,119.313 L95.693,121.536 Z M139.15,145.755 L141.787,145.755 L114.638,76 L113.466,76 L113.466,79.287 L139.15,145.755 Z" stroke="none" transform="translate(0,200)" />
        <path id="Baseline-S" d="M18,146 l800,0" />
        <path id="left-margin-Ultralight-M" d="M230,256 l0,110" />
        <path id="right-margin-Ultralight-M" d="M300,256 l0,110" />
        <path id="left-margin-Regular-M" d="M430,256 l0,110" />
        <path id="right-margin-Regular-M" d="M500,256 l0,110" />
        <path id="left-margin-Black-M" d="M630,256 l0,110" />
        <path id="right-margin-Black-M" d="M700,256 l0,110" />
        <path id="Capline-M" d="M18,276 l800,0" />
        <path id="Baseline-M" d="M18,346 l800,0" />
        <path id="Capline-L" d="M18,476 l800,0" />
        <path id="Baseline-L" d="M18,546 l800,0" />
    </g>
    <g id="Symbols">
        <g id="Ultralight-M" transform="translate(0,200)">
            <path d="M240.477,80.114 L230.932,89.659 C229.689,90.902 229.689,92.916 230.932,94.159 C232.175,95.402 234.189,95.402 235.432,94.159 L244.977,84.614 C246.22,83.371 246.22,81.356 244.977,80.114 C243.735,78.871 241.72,78.871 240.477,80.114 Z M299.068,89.659 L289.523,80.114 C288.28,78.871 286.265,78.871 285.023,80.114 C283.78,81.356 283.78,83.371 285.023,84.614 L294.568,94.159 C295.811,95.402 297.826,95.402 299.068,94.159 C300.311,92.916 300.311,90.902 299.068,89.659 Z M243.659,131.023 L237.296,137.386 C236.053,138.629 236.053,140.644 237.296,141.886 C238.538,143.129 240.553,143.129 241.795,141.886 L248.159,135.523 C249.402,134.28 249.402,132.265 248.159,131.023 C246.916,129.78 244.902,129.78 243.659,131.023 Z M281.841,135.523 L288.205,141.886 C289.447,143.129 291.462,143.129 292.704,141.886 C293.947,140.644 293.947,138.629 292.704,137.386 L286.341,131.023 C285.098,129.78 283.084,129.78 281.841,131.023 C280.598,132.265 280.598,134.28 281.841,135.523 Z M268.182,123.727 L268.182,104.636 C268.182,102.879 266.757,101.455 265,101.455 C263.243,101.455 261.818,102.879 261.818,104.636 L261.818,123.727 C261.818,125.485 263.243,126.909 265,126.909 C266.757,126.909 268.182,125.485 268.182,123.727 Z M255.455,117.364 L274.545,117.364 C276.303,117.364 277.727,115.939 277.727,114.182 C277.727,112.425 276.303,111 274.545,111 L255.455,111 C253.697,111 252.273,112.425 252.273,114.182 C252.273,115.939 253.697,117.364 255.455,117.364 Z M265,142.818 C280.816,142.818 293.638,129.997 293.638,114.18 C293.638,98.364 280.816,85.542 265,85.542 C249.184,85.542 236.362,98.364 236.362,114.18 C236.362,129.997 249.184,142.818 265,142.818 Z M265,136.455 C252.698,136.455 242.726,126.482 242.726,114.18 C242.726,101.878 252.698,91.906 265,91.906 C277.302,91.906 287.274,101.878 287.274,114.18 C287.274,126.482 277.302,136.455 265,136.455 Z" />
        </g>
        <g id="Regular-M" transform="translate(0,200)">
            <path d="M440.477,80.114 L430.932,89.659 C429.689,90.902 429.689,92.916 430.932,94.159 C432.174,95.402 434.189,95.402 435.432,94.159 L444.977,84.614 C446.22,83.371 446.22,81.356 444.977,80.114 C443.735,78.871 441.72,78.871 440.477,80.114 Z M499.068,89.659 L489.523,80.114 C488.28,78.871 486.265,78.871 485.023,80.114 C483.78,81.356 483.78,83.371 485.023,84.614 L494.568,94.159 C495.811,95.402 497.826,95.402 499.068,94.159 C500.311,92.916 500.311,90.902 499.068,89.659 Z M443.659,131.023 L437.296,137.386 C436.053,138.629 436.053,140.644 437.296,141.886 C438.538,143.129 440.553,143.129 441.795,141.886 L448.159,135.523 C449.402,134.28 449.402,132.265 448.159,131.023 C446.916,129.78 444.902,129.78 443.659,131.023 Z M481.841,135.523 L488.205,141.886 C489.447,143.129 491.462,143.129 492.704,141.886 C493.947,140.644 493.947,138.629 492.704,137.386 L486.341,131.023 C485.098,129.78 483.084,129.78 481.841,131.023 C480.598,132.265 480.598,134.28 481.841,135.523 Z M468.182,123.727 L468.182,104.636 C468.182,102.879 466.757,101.455 465,101.455 C463.243,101.455 461.818,102.879 461.818,104.636 L461.818,123.727 C461.818,125.485 463.243,126.909 465,126.909 C466.757,126.909 468.182,125.485 468.182,123.727 Z M455.455,117.364 L474.545,117.364 C476.303,117.364 477.727,115.939 477.727,114.182 C477.727,112.425 476.303,111 474.545,111 L455.455,111 C453.697,111 452.273,112.425 452.273,114.182 C452.273,115.939 453.697,117.364 455.455,117.364 Z M465,142.818 C480.816,142.818 493.638,129.997 493.638,114.18 C493.638,98.364 480.816,85.542 465,85.542 C449.184,85.542 436.362,98.364 436.362,114.18 C436.362,129.997 449.184,142.818 465,142.818 Z M465,136.455 C452.698,136.455 442.726,126.482 442.726,114.18 C442.726,101.878 452.698,91.906 465,91.906 C477.302,91.906 487.274,101.878 487.274,114.18 C487.274,126.482 477.302,136.455 465,136.455 Z" />
        </g>
        <g id="Black-M" transform="translate(0,200)">
            <path d="M640.477,80.114 L630.932,89.659 C629.689,90.902 629.689,92.916 630.932,94.159 C632.174,95.402 634.189,95.402 635.432,94.159 L644.977,84.614 C646.22,83.371 646.22,81.356 644.977,80.114 C643.735,78.871 641.72,78.871 640.477,80.114 Z M699.068,89.659 L689.523,80.114 C688.28,78.871 686.265,78.871 685.023,80.114 C683.78,81.356 683.78,83.371 685.023,84.614 L694.568,94.159 C695.811,95.402 697.826,95.402 699.068,94.159 C700.311,92.916 700.311,90.902 699.068,89.659 Z M643.659,131.023 L637.296,137.386 C636.053,138.629 636.053,140.644 637.296,141.886 C638.538,143.129 640.553,143.129 641.795,141.886 L648.159,135.523 C649.402,134.28 649.402,132.265 648.159,131.023 C646.916,129.78 644.902,129.78 643.659,131.023 Z M681.841,135.523 L688.205,141.886 C689.447,143.129 691.462,143.129 692.704,141.886 C693.947,140.644 693.947,138.629 692.704,137.386 L686.341,131.023 C685.098,129.78 683.084,129.78 681.841,131.023 C680.598,132.265 680.598,134.28 681.841,135.523 Z M668.182,123.727 L668.182,104.636 C668.182,102.879 666.757,101.455 665,101.455 C663.243,101.455 661.818,102.879 661.818,104.636 L661.818,123.727 C661.818,125.485 663.243,126.909 665,126.909 C666.757,126.909 668.182,125.485 668.182,123.727 Z M655.455,117.364 L674.545,117.364 C676.303,117.364 677.727,115.939 677.727,114.182 C677.727,112.425 676.303,111 674.545,111 L655.455,111 C653.697,111 652.273,112.425 652.273,114.182 C652.273,115.939 653.697,117.364 655.455,117.364 Z M665,142.818 C680.816,142.818 693.638,129.997 693.638,114.18 C693.638,98.364 680.816,85.542 665,85.542 C649.184,85.542 636.362,98.364 636.362,114.18 C636.362,129.997 649.184,142.818 665,142.818 Z M665,136.455 C652.698,136.455 642.726,126.482 642.726,114.18 C642.726,101.878 652.698,91.906 665,91.906 C677.302,91.906 687.274,101.878 687.274,114.18 C687.274,126.482 677.302,136.455 665,136.455 Z" />
        </g>
    </g>
</svg>