<?xml version="1.0" encoding="UTF-8"?>
<svg height="600" width="800" xmlns="http://www.w3.org/2000/svg" xmlns:xlink="http://www.w3.org/1999/xlink">
    <g id="Notes" font-family="LucidaGrande, 'Lucida Grande', sans-serif" font-size="13">
        <rect fill="white" height="600.0" width="800.0" x="0.0" y="0.0" />
        <g font-size="13">
            <text x="18.0" y="176.0">Small</text>
            <text x="18.0" y="376.0">Medium</text>
            <text x="18.0" y="576.0">Large</text>
        </g>
        <g font-size="9">
            <text x="250.0" y="30.0">Ultralight</text>
            <text x="450.0" y="30.0">Regular</text>
            <text x="650.0" y="30.0">Black</text>
            <text id="template-version" fill="#505050" text-anchor="end" x="785.0" y="575.0">Template v.3.0</text>
            <a href="https://github.com/swhitty/SwiftDraw">
                <text fill="#505050" text-anchor="end" x="785.0" y="590.0">https://github.com/swhitty/SwiftDraw</text>
            </a>
        </g>
    </g>
    <g id="Guides" stroke="rgb(39, 170, 225)" stroke-width="0.5">
        <path id="Capline-S" d="M18,76 l800,0" />
        <path id="H-reference" d="M85,145.755 L87.685,145.755 L113.369,79.287 L114.052,79.287 L114.052,76 L112.148,76 L85,145.755 Z M95.693,121.536 L130.996,121.536 L130.263,119.313 L96.474,119.313 L95.693,121.536 Z M139.15,145.755 L141.787,145.755 L114.638,76 L113.466,76 L113.466,79.287 L139.15,145.755 Z" stroke="none" transform="translate(0,200)" />
        <path id="Baseline-S" d="M18,146 l800,0" />
        <path id="left-margin-Ultralight-M" d="M230,256 l0,110" />
        <path id="right-margin-Ultralight-M" d="M300,256 l0,110" />
        <path id="left-margin-Regular-M" d="M430,256 l0,110" />
        <path id="right-margin-Regular-M" d="M500,256 l0,110" />
        <path id="left-margin-Black-M" d="M630,256 l0,110" />
        <path id="right-margin-Black-M" d="M700,256 l0,110" />
        <path id="Capline-M" d="M18,276 l800,0" />
        <path id="Baseline-M" d="M18,346 l800,0" />
        <path id="Capline-L" d="M18,476 l800,0" />
        <path id="Baseline-L" d="M18,546 l800,0" />
    </g>
    <g id="Symbols">
        <g id="Ultralight-M" transform="translate(0,200)">
            <path d="M230,79.5 L230,142.5 C230,144.433 231.567,146 233.5,146 C235.433,146 237,144.433 237,142.5 L237,79.5 C237,77.567 235.433,76 233.5,76 C231.567,76 230,77.567 230,79.5 Z M296.5,107.5 L247.5,107.5 C245.567,107.5 244,109.067 244,111 C244,112.933 245.567,114.5 247.5,114.5 L296.5,114.5 C298.433,114.5 300,112.933 300,111 C300,109.067 298.433,107.5 296.5,107.5 Z M245.025,113.475 L269.525,137.975 C270.892,139.342 273.108,139.342 274.475,137.975 C275.842,136.608 275.842,134.392 274.475,133.025 L249.975,108.525 C248.608,107.158 246.392,107.158 245.025,108.525 C243.658,109.892 243.658,112.108 245.025,113.475 Z M249.975,113.475 L274.475,88.975 C275.842,87.608 275.842,85.392 274.475,84.025 C273.108,82.658 270.892,82.658 269.525,84.025 L245.025,108.525 C243.658,109.892 243.658,112.108 245.025,113.475 C246.392,114.842 248.608,114.842 249.975,113.475 Z" />
        </g>
        <g id="Regular-M" transform="translate(0,200)">
            <path d="M430,79.5 L430,142.5 C430,144.433 431.567,146 433.5,146 C435.433,146 437,144.433 437,142.5 L437,79.5 C437,77.567 435.433,76 433.5,76 C431.567,76 430,77.567 430,79.5 Z M496.5,107.5 L447.5,107.5 C445.567,107.5 444,109.067 444,111 C444,112.933 445.567,114.5 447.5,114.5 L496.5,114.5 C498.433,114.5 500,112.933 500,111 C500,109.067 498.433,107.5 496.5,107.5 Z M445.025,113.475 L469.525,137.975 C470.892,139.342 473.108,139.342 474.475,137.975 C475.842,136.608 475.842,134.392 474.475,133.025 L449.975,108.525 C448.608,107.158 446.392,107.158 445.025,108.525 C443.658,109.892 443.658,112.108 445.025,113.475 Z M449.975,113.475 L474.475,88.975 C475.842,87.608 475.842,85.392 474.475,84.025 C473.108,82.658 470.892,82.658 469.525,84.025 L445.025,108.525 C443.658,109.892 443.658,112.108 445.025,113.475 C446.392,114.842 448.608,114.842 449.975,113.475 Z" />
        </g>
        <g id="Black-M" transform="translate(0,200)">
            <path d="M630,79.5 L630,142.5 C630,144.433 631.567,146 633.5,146 C635.433,146 637,144.433 637,142.5 L637,79.5 C637,77.567 635.433,76 633.5,76 C631.567,76 630,77.567 630,79.5 Z M696.5,107.5 L647.5,107.5 C645.567,107.5 644,109.067 644,111 C644,112.933 645.567,114.5 647.5,114.5 L696.5,114.5 C698.433,114.5 700,112.933 700,111 C700,109.067 698.433,107.5 696.5,107.5 Z M645.025,113.475 L669.525,137.975 C670.892,139.342 673.108,139.342 674.475,137.975 C675.842,136.608 675.842,134.392 674.475,133.025 L649.975,108.525 C648.608,107.158 646.392,107.158 645.025,108.525 C643.658,109.892 643.658,112.108 645.025,113.475 Z M649.975,113.475 L674.475,88.975 C675.842,87.608 675.842,85.392 674.475,84.025 C673.108,82.658 670.892,82.658 669.525,84.025 L645.025,108.525 C643.658,109.892 643.658,112.108 645.025,113.475 C646.392,114.842 648.608,114.842 649.975,113.475 Z" />
        </g>
    </g>
</svg>