<?xml version="1.0" encoding="UTF-8"?>
<svg height="600" width="800" xmlns="http://www.w3.org/2000/svg" xmlns:xlink="http://www.w3.org/1999/xlink">
    <g id="Notes" font-family="LucidaGrande, 'Lucida Grande', sans-serif" font-size="13">
        <rect fill="white" height="600.0" width="800.0" x="0.0" y="0.0" />
        <g font-size="13">
            <text x="18.0" y="176.0">Small</text>
            <text x="18.0" y="376.0">Medium</text>
            <text x="18.0" y="576.0">Large</text>
        </g>
        <g font-size="9">
            <text x="250.0" y="30.0">Ultralight</text>
            <text x="450.0" y="30.0">Regular</text>
            <text x="650.0" y="30.0">Black</text>
            <text id="template-version" fill="#505050" text-anchor="end" x="785.0" y="575.0">Template v.3.0</text>
            <a href="https://github.com/swhitty/SwiftDraw">
                <text fill="#505050" text-anchor="end" x="785.0" y="590.0">https://github.com/swhitty/SwiftDraw</text>
            </a>
        </g>
    </g>
    <g id="Guides" stroke="rgb(39, 170, 225)" stroke-width="0.5">
        <path id="Capline-S" d="M18,76 l800,0" />
        <path id="H-reference" d="M85,145.755 L87.685,145.755 L113.369,79.287 L114.052,79.287 L114.052,76 L112.148,76 L85,145.755 Z M95.693,121.536 L130.996,121.536 L130.263,119.313 L96.474,119.313 L95.693,121.536 Z M139.15,145.755 L141.787,145.755 L114.638,76 L113.466,76 L113.466,79.287 L139.15,145.755 Z" stroke="none" transform="translate(0,200)" />
        <path id="Baseline-S" d="M18,146 l800,0" />
        <path id="left-margin-Ultralight-M" d="M221,256 l0,110" />
        <path id="right-margin-Ultralight-M" d="M309,256 l0,110" />
        <path id="left-margin-Regular-M" d="M421,256 l0,110" />
        <path id="right-margin-Regular-M" d="M509,256 l0,110" />
        <path id="left-margin-Black-M" d="M621,256 l0,110" />
        <path id="right-margin-Black-M" d="M709,256 l0,110" />
        <path id="Capline-M" d="M18,276 l800,0" />
        <path id="Baseline-M" d="M18,346 l800,0" />
        <path id="Capline-L" d="M18,476 l800,0" />
        <path id="Baseline-L" d="M18,546 l800,0" />
    </g>
    <g id="Symbols">
        <g id="Ultralight-M" transform="translate(0,200)">
            <path d="M262.684,124.895 L262.684,97.105 C262.684,94.019 262.634,93.287 262.156,92.132 C261.451,90.429 260.098,89.075 258.394,88.37 C257.24,87.892 256.507,87.842 253.421,87.842 C250.335,87.842 249.603,87.892 248.448,88.37 C246.744,89.075 245.391,90.429 244.686,92.132 C244.208,93.287 244.158,94.019 244.158,97.105 L244.158,124.895 C244.158,127.981 244.208,128.713 244.686,129.868 C245.391,131.571 246.744,132.925 248.448,133.63 C249.603,134.108 250.335,134.158 253.421,134.158 C256.507,134.158 257.24,134.108 258.395,133.63 C260.098,132.925 261.451,131.571 262.156,129.868 C262.634,128.713 262.684,127.981 262.684,124.895 Z M258.053,124.895 C258.053,127.204 258.014,127.764 257.877,128.096 C257.642,128.664 257.191,129.115 256.623,129.35 C256.29,129.488 255.73,129.526 253.421,129.526 C251.112,129.526 250.552,129.488 250.22,129.351 C249.652,129.115 249.2,128.664 248.965,128.096 C248.828,127.764 248.789,127.204 248.789,124.895 L248.789,97.105 C248.789,94.796 248.828,94.236 248.965,93.904 C249.2,93.336 249.652,92.885 250.219,92.65 C250.552,92.512 251.112,92.474 253.421,92.474 C255.73,92.474 256.29,92.512 256.622,92.649 C257.191,92.885 257.642,93.336 257.877,93.904 C258.014,94.236 258.053,94.796 258.053,97.105 L258.053,124.895 Z M285.842,115.632 L285.842,97.105 C285.842,94.019 285.792,93.287 285.314,92.132 C284.609,90.429 283.256,89.075 281.552,88.37 C280.397,87.892 279.665,87.842 276.579,87.842 C273.493,87.842 272.76,87.892 271.605,88.37 C269.902,89.075 268.549,90.429 267.844,92.132 C267.366,93.287 267.316,94.019 267.316,97.105 L267.316,115.632 C267.316,118.718 267.366,119.45 267.844,120.605 C268.549,122.308 269.902,123.662 271.606,124.367 C272.76,124.845 273.493,124.895 276.579,124.895 C279.665,124.895 280.397,124.845 281.552,124.366 C283.256,123.662 284.609,122.308 285.314,120.605 C285.792,119.45 285.842,118.718 285.842,115.632 Z M281.211,115.632 C281.211,117.941 281.172,118.501 281.035,118.833 C280.8,119.401 280.348,119.852 279.781,120.087 C279.448,120.225 278.888,120.263 276.579,120.263 C274.27,120.263 273.71,120.225 273.378,120.087 C272.809,119.852 272.358,119.401 272.123,118.833 C271.985,118.501 271.947,117.941 271.947,115.632 L271.947,97.105 C271.947,94.796 271.985,94.236 272.123,93.904 C272.358,93.336 272.809,92.885 273.377,92.65 C273.71,92.512 274.27,92.474 276.579,92.474 C278.888,92.474 279.448,92.512 279.78,92.649 C280.348,92.885 280.8,93.336 281.035,93.904 C281.172,94.236 281.211,94.796 281.211,97.105 L281.211,115.632 Z" />
        </g>
        <g id="Regular-M" transform="translate(0,200)">
            <path d="M462.684,124.895 L462.684,97.105 C462.684,94.019 462.634,93.287 462.156,92.132 C461.451,90.429 460.098,89.075 458.394,88.37 C457.24,87.892 456.507,87.842 453.421,87.842 C450.335,87.842 449.603,87.892 448.448,88.37 C446.744,89.075 445.391,90.429 444.686,92.132 C444.208,93.287 444.158,94.019 444.158,97.105 L444.158,124.895 C444.158,127.981 444.208,128.713 444.686,129.868 C445.391,131.571 446.744,132.925 448.448,133.63 C449.603,134.108 450.335,134.158 453.421,134.158 C456.507,134.158 457.24,134.108 458.395,133.63 C460.098,132.925 461.451,131.571 462.156,129.868 C462.634,128.713 462.684,127.981 462.684,124.895 Z M458.053,124.895 C458.053,127.204 458.014,127.764 457.877,128.096 C457.642,128.664 457.191,129.115 456.623,129.35 C456.29,129.488 455.73,129.526 453.421,129.526 C451.112,129.526 450.552,129.488 450.22,129.351 C449.652,129.115 449.2,128.664 448.965,128.096 C448.828,127.764 448.789,127.204 448.789,124.895 L448.789,97.105 C448.789,94.796 448.828,94.236 448.965,93.904 C449.2,93.336 449.652,92.885 450.219,92.65 C450.552,92.512 451.112,92.474 453.421,92.474 C455.73,92.474 456.29,92.512 456.622,92.649 C457.191,92.885 457.642,93.336 457.877,93.904 C458.014,94.236 458.053,94.796 458.053,97.105 L458.053,124.895 Z M485.842,115.632 L485.842,97.105 C485.842,94.019 485.792,93.287 485.314,92.132 C484.609,90.429 483.256,89.075 481.552,88.37 C480.397,87.892 479.665,87.842 476.579,87.842 C473.493,87.842 472.76,87.892 471.605,88.37 C469.902,89.075 468.549,90.429 467.844,92.132 C467.366,93.287 467.316,94.019 467.316,97.105 L467.316,115.632 C467.316,118.718 467.366,119.45 467.844,120.605 C468.549,122.308 469.902,123.662 471.606,124.367 C472.76,124.845 473.493,124.895 476.579,124.895 C479.665,124.895 480.397,124.845 481.552,124.366 C483.256,123.662 484.609,122.308 485.314,120.605 C485.792,119.45 485.842,118.718 485.842,115.632 Z M481.211,115.632 C481.211,117.941 481.172,118.501 481.035,118.833 C480.8,119.401 480.348,119.852 479.781,120.087 C479.448,120.225 478.888,120.263 476.579,120.263 C474.27,120.263 473.71,120.225 473.378,120.087 C472.809,119.852 472.358,119.401 472.123,118.833 C471.985,118.501 471.947,117.941 471.947,115.632 L471.947,97.105 C471.947,94.796 471.985,94.236 472.123,93.904 C472.358,93.336 472.809,92.885 473.377,92.65 C473.71,92.512 474.27,92.474 476.579,92.474 C478.888,92.474 479.448,92.512 479.78,92.649 C480.348,92.885 480.8,93.336 481.035,93.904 C481.172,94.236 481.211,94.796 481.211,97.105 L481.211,115.632 Z" />
        </g>
        <g id="Black-M" transform="translate(0,200)">
            <path d="M662.684,124.895 L662.684,97.105 C662.684,94.019 662.634,93.287 662.156,92.132 C661.451,90.429 660.098,89.075 658.394,88.37 C657.24,87.892 656.507,87.842 653.421,87.842 C650.335,87.842 649.603,87.892 648.448,88.37 C646.744,89.075 645.391,90.429 644.686,92.132 C644.208,93.287 644.158,94.019 644.158,97.105 L644.158,124.895 C644.158,127.981 644.208,128.713 644.686,129.868 C645.391,131.571 646.744,132.925 648.448,133.63 C649.603,134.108 650.335,134.158 653.421,134.158 C656.507,134.158 657.24,134.108 658.395,133.63 C660.098,132.925 661.451,131.571 662.156,129.868 C662.634,128.713 662.684,127.981 662.684,124.895 Z M658.053,124.895 C658.053,127.204 658.014,127.764 657.877,128.096 C657.642,128.664 657.191,129.115 656.623,129.35 C656.29,129.488 655.73,129.526 653.421,129.526 C651.112,129.526 650.552,129.488 650.22,129.351 C649.652,129.115 649.2,128.664 648.965,128.096 C648.828,127.764 648.789,127.204 648.789,124.895 L648.789,97.105 C648.789,94.796 648.828,94.236 648.965,93.904 C649.2,93.336 649.652,92.885 650.219,92.65 C650.552,92.512 651.112,92.474 653.421,92.474 C655.73,92.474 656.29,92.512 656.622,92.649 C657.191,92.885 657.642,93.336 657.877,93.904 C658.014,94.236 658.053,94.796 658.053,97.105 L658.053,124.895 Z M685.842,115.632 L685.842,97.105 C685.842,94.019 685.792,93.287 685.314,92.132 C684.609,90.429 683.255,89.075 681.552,88.37 C680.397,87.892 679.665,87.842 676.579,87.842 C673.492,87.842 672.76,87.892 671.605,88.37 C669.902,89.075 668.549,90.429 667.844,92.132 C667.366,93.287 667.316,94.019 667.316,97.105 L667.316,115.632 C667.316,118.718 667.366,119.45 667.844,120.605 C668.549,122.308 669.902,123.662 671.606,124.367 C672.76,124.845 673.492,124.895 676.579,124.895 C679.665,124.895 680.397,124.845 681.552,124.366 C683.255,123.662 684.609,122.308 685.314,120.605 C685.792,119.45 685.842,118.718 685.842,115.632 Z M681.211,115.632 C681.211,117.941 681.172,118.501 681.035,118.833 C680.8,119.401 680.348,119.852 679.781,120.087 C679.448,120.225 678.888,120.263 676.579,120.263 C674.27,120.263 673.71,120.225 673.378,120.087 C672.809,119.852 672.358,119.401 672.123,118.833 C671.985,118.501 671.947,117.941 671.947,115.632 L671.947,97.105 C671.947,94.796 671.985,94.236 672.123,93.904 C672.358,93.336 672.809,92.885 673.377,92.65 C673.71,92.512 674.27,92.474 676.579,92.474 C678.888,92.474 679.448,92.512 679.78,92.649 C680.348,92.885 680.8,93.336 681.035,93.904 C681.172,94.236 681.211,94.796 681.211,97.105 L681.211,115.632 Z" />
        </g>
    </g>
</svg>