<?xml version="1.0" encoding="UTF-8"?>
<svg height="600" width="800" xmlns="http://www.w3.org/2000/svg" xmlns:xlink="http://www.w3.org/1999/xlink">
    <g id="Notes" font-family="LucidaGrande, 'Lucida Grande', sans-serif" font-size="13">
        <rect fill="white" height="600.0" width="800.0" x="0.0" y="0.0" />
        <g font-size="13">
            <text x="18.0" y="176.0">Small</text>
            <text x="18.0" y="376.0">Medium</text>
            <text x="18.0" y="576.0">Large</text>
        </g>
        <g font-size="9">
            <text x="250.0" y="30.0">Ultralight</text>
            <text x="450.0" y="30.0">Regular</text>
            <text x="650.0" y="30.0">Black</text>
            <text id="template-version" fill="#505050" text-anchor="end" x="785.0" y="575.0">Template v.3.0</text>
            <a href="https://github.com/swhitty/SwiftDraw">
                <text fill="#505050" text-anchor="end" x="785.0" y="590.0">https://github.com/swhitty/SwiftDraw</text>
            </a>
        </g>
    </g>
    <g id="Guides" stroke="rgb(39, 170, 225)" stroke-width="0.5">
        <path id="Capline-S" d="M18,76 l800,0" />
        <path id="H-reference" d="M85,145.755 L87.685,145.755 L113.369,79.287 L114.052,79.287 L114.052,76 L112.148,76 L85,145.755 Z M95.693,121.536 L130.996,121.536 L130.263,119.313 L96.474,119.313 L95.693,121.536 Z M139.15,145.755 L141.787,145.755 L114.638,76 L113.466,76 L113.466,79.287 L139.15,145.755 Z" stroke="none" transform="translate(0,200)" />
        <path id="Baseline-S" d="M18,146 l800,0" />
        <path id="left-margin-Ultralight-M" d="M221,256 l0,110" />
        <path id="right-margin-Ultralight-M" d="M309,256 l0,110" />
        <path id="left-margin-Regular-M" d="M421,256 l0,110" />
        <path id="right-margin-Regular-M" d="M509,256 l0,110" />
        <path id="left-margin-Black-M" d="M621,256 l0,110" />
        <path id="right-margin-Black-M" d="M709,256 l0,110" />
        <path id="Capline-M" d="M18,276 l800,0" />
        <path id="Baseline-M" d="M18,346 l800,0" />
        <path id="Capline-L" d="M18,476 l800,0" />
        <path id="Baseline-L" d="M18,546 l800,0" />
    </g>
    <g id="Symbols">
        <g id="Ultralight-M" transform="translate(0,200)">
            <path d="M262.684,124.895 L262.684,97.105 C262.684,94.019 262.634,93.287 262.156,92.132 C261.451,90.429 260.098,89.075 258.394,88.37 C257.24,87.892 256.507,87.842 253.421,87.842 C250.335,87.842 249.603,87.892 248.448,88.37 C246.744,89.075 245.391,90.429 244.686,92.132 C244.208,93.287 244.158,94.019 244.158,97.105 L244.158,124.895 C244.158,127.981 244.208,128.713 244.686,129.868 C245.391,131.571 246.744,132.925 248.448,133.63 C249.603,134.108 250.335,134.158 253.421,134.158 C256.507,134.158 257.24,134.108 258.395,133.63 C260.098,132.925 261.451,131.571 262.156,129.868 C262.634,128.713 262.684,127.981 262.684,124.895 Z M258.053,124.895 C258.053,127.204 258.014,127.764 257.877,128.096 C257.642,128.664 257.191,129.115 256.623,129.35 C256.29,129.488 255.73,129.526 253.421,129.526 C251.112,129.526 250.552,129.488 250.22,129.351 C249.652,129.115 249.2,128.664 248.965,128.096 C248.828,127.764 248.789,127.204 248.789,124.895 L248.789,97.105 C248.789,94.796 248.828,94.236 248.965,93.904 C249.2,93.336 249.652,92.885 250.219,92.65 C250.552,92.512 251.112,92.474 253.421,92.474 C255.73,92.474 256.29,92.512 256.622,92.649 C257.191,92.885 257.642,93.336 257.877,93.904 C258.014,94.236 258.053,94.796 258.053,97.105 L258.053,124.895 Z M285.842,124.895 L285.842,106.368 C285.842,103.282 285.792,102.55 285.314,101.395 C284.609,99.692 283.256,98.338 281.552,97.633 C280.397,97.155 279.665,97.105 276.579,97.105 C273.493,97.105 272.76,97.155 271.605,97.634 C269.902,98.338 268.549,99.692 267.844,101.395 C267.366,102.55 267.316,103.282 267.316,106.368 L267.316,124.895 C267.316,127.981 267.366,128.713 267.844,129.868 C268.549,131.571 269.902,132.925 271.606,133.63 C272.76,134.108 273.493,134.158 276.579,134.158 C279.665,134.158 280.397,134.108 281.552,133.63 C283.256,132.925 284.609,131.571 285.314,129.868 C285.792,128.713 285.842,127.981 285.842,124.895 Z M281.211,124.895 C281.211,127.204 281.172,127.764 281.035,128.096 C280.8,128.664 280.348,129.115 279.781,129.35 C279.448,129.488 278.888,129.526 276.579,129.526 C274.27,129.526 273.71,129.488 273.378,129.351 C272.809,129.115 272.358,128.664 272.123,128.096 C271.985,127.764 271.947,127.204 271.947,124.895 L271.947,106.368 C271.947,104.059 271.985,103.499 272.123,103.167 C272.358,102.599 272.809,102.148 273.377,101.913 C273.71,101.775 274.27,101.737 276.579,101.737 C278.888,101.737 279.448,101.775 279.78,101.913 C280.348,102.148 280.8,102.599 281.035,103.167 C281.172,103.499 281.211,104.059 281.211,106.368 L281.211,124.895 Z" />
        </g>
        <g id="Regular-M" transform="translate(0,200)">
            <path d="M462.684,124.895 L462.684,97.105 C462.684,94.019 462.634,93.287 462.156,92.132 C461.451,90.429 460.098,89.075 458.394,88.37 C457.24,87.892 456.507,87.842 453.421,87.842 C450.335,87.842 449.603,87.892 448.448,88.37 C446.744,89.075 445.391,90.429 444.686,92.132 C444.208,93.287 444.158,94.019 444.158,97.105 L444.158,124.895 C444.158,127.981 444.208,128.713 444.686,129.868 C445.391,131.571 446.744,132.925 448.448,133.63 C449.603,134.108 450.335,134.158 453.421,134.158 C456.507,134.158 457.24,134.108 458.395,133.63 C460.098,132.925 461.451,131.571 462.156,129.868 C462.634,128.713 462.684,127.981 462.684,124.895 Z M458.053,124.895 C458.053,127.204 458.014,127.764 457.877,128.096 C457.642,128.664 457.191,129.115 456.623,129.35 C456.29,129.488 455.73,129.526 453.421,129.526 C451.112,129.526 450.552,129.488 450.22,129.351 C449.652,129.115 449.2,128.664 448.965,128.096 C448.828,127.764 448.789,127.204 448.789,124.895 L448.789,97.105 C448.789,94.796 448.828,94.236 448.965,93.904 C449.2,93.336 449.652,92.885 450.219,92.65 C450.552,92.512 451.112,92.474 453.421,92.474 C455.73,92.474 456.29,92.512 456.622,92.649 C457.191,92.885 457.642,93.336 457.877,93.904 C458.014,94.236 458.053,94.796 458.053,97.105 L458.053,124.895 Z M485.842,124.895 L485.842,106.368 C485.842,103.282 485.792,102.55 485.314,101.395 C484.609,99.692 483.256,98.338 481.552,97.633 C480.397,97.155 479.665,97.105 476.579,97.105 C473.493,97.105 472.76,97.155 471.605,97.634 C469.902,98.338 468.549,99.692 467.844,101.395 C467.366,102.55 467.316,103.282 467.316,106.368 L467.316,124.895 C467.316,127.981 467.366,128.713 467.844,129.868 C468.549,131.571 469.902,132.925 471.606,133.63 C472.76,134.108 473.493,134.158 476.579,134.158 C479.665,134.158 480.397,134.108 481.552,133.63 C483.256,132.925 484.609,131.571 485.314,129.868 C485.792,128.713 485.842,127.981 485.842,124.895 Z M481.211,124.895 C481.211,127.204 481.172,127.764 481.035,128.096 C480.8,128.664 480.348,129.115 479.781,129.35 C479.448,129.488 478.888,129.526 476.579,129.526 C474.27,129.526 473.71,129.488 473.378,129.351 C472.809,129.115 472.358,128.664 472.123,128.096 C471.985,127.764 471.947,127.204 471.947,124.895 L471.947,106.368 C471.947,104.059 471.985,103.499 472.123,103.167 C472.358,102.599 472.809,102.148 473.377,101.913 C473.71,101.775 474.27,101.737 476.579,101.737 C478.888,101.737 479.448,101.775 479.78,101.913 C480.348,102.148 480.8,102.599 481.035,103.167 C481.172,103.499 481.211,104.059 481.211,106.368 L481.211,124.895 Z" />
        </g>
        <g id="Black-M" transform="translate(0,200)">
            <path d="M662.684,124.895 L662.684,97.105 C662.684,94.019 662.634,93.287 662.156,92.132 C661.451,90.429 660.098,89.075 658.394,88.37 C657.24,87.892 656.507,87.842 653.421,87.842 C650.335,87.842 649.603,87.892 648.448,88.37 C646.744,89.075 645.391,90.429 644.686,92.132 C644.208,93.287 644.158,94.019 644.158,97.105 L644.158,124.895 C644.158,127.981 644.208,128.713 644.686,129.868 C645.391,131.571 646.744,132.925 648.448,133.63 C649.603,134.108 650.335,134.158 653.421,134.158 C656.507,134.158 657.24,134.108 658.395,133.63 C660.098,132.925 661.451,131.571 662.156,129.868 C662.634,128.713 662.684,127.981 662.684,124.895 Z M658.053,124.895 C658.053,127.204 658.014,127.764 657.877,128.096 C657.642,128.664 657.191,129.115 656.623,129.35 C656.29,129.488 655.73,129.526 653.421,129.526 C651.112,129.526 650.552,129.488 650.22,129.351 C649.652,129.115 649.2,128.664 648.965,128.096 C648.828,127.764 648.789,127.204 648.789,124.895 L648.789,97.105 C648.789,94.796 648.828,94.236 648.965,93.904 C649.2,93.336 649.652,92.885 650.219,92.65 C650.552,92.512 651.112,92.474 653.421,92.474 C655.73,92.474 656.29,92.512 656.622,92.649 C657.191,92.885 657.642,93.336 657.877,93.904 C658.014,94.236 658.053,94.796 658.053,97.105 L658.053,124.895 Z M685.842,124.895 L685.842,106.368 C685.842,103.282 685.792,102.55 685.314,101.395 C684.609,99.692 683.255,98.338 681.552,97.633 C680.397,97.155 679.665,97.105 676.579,97.105 C673.492,97.105 672.76,97.155 671.605,97.634 C669.902,98.338 668.549,99.692 667.844,101.395 C667.366,102.55 667.316,103.282 667.316,106.368 L667.316,124.895 C667.316,127.981 667.366,128.713 667.844,129.868 C668.549,131.571 669.902,132.925 671.606,133.63 C672.76,134.108 673.492,134.158 676.579,134.158 C679.665,134.158 680.397,134.108 681.552,133.63 C683.255,132.925 684.609,131.571 685.314,129.868 C685.792,128.713 685.842,127.981 685.842,124.895 Z M681.211,124.895 C681.211,127.204 681.172,127.764 681.035,128.096 C680.8,128.664 680.348,129.115 679.781,129.35 C679.448,129.488 678.888,129.526 676.579,129.526 C674.27,129.526 673.71,129.488 673.378,129.351 C672.809,129.115 672.358,128.664 672.123,128.096 C671.985,127.764 671.947,127.204 671.947,124.895 L671.947,106.368 C671.947,104.059 671.985,103.499 672.123,103.167 C672.358,102.599 672.809,102.148 673.377,101.913 C673.71,101.775 674.27,101.737 676.579,101.737 C678.888,101.737 679.448,101.775 679.78,101.913 C680.348,102.148 680.8,102.599 681.035,103.167 C681.172,103.499 681.211,104.059 681.211,106.368 L681.211,124.895 Z" />
        </g>
    </g>
</svg>