<?xml version="1.0" encoding="UTF-8"?>
<svg height="600" width="800" xmlns="http://www.w3.org/2000/svg" xmlns:xlink="http://www.w3.org/1999/xlink">
    <g id="Notes" font-family="LucidaGrande, 'Lucida Grande', sans-serif" font-size="13">
        <rect fill="white" height="600.0" width="800.0" x="0.0" y="0.0" />
        <g font-size="13">
            <text x="18.0" y="176.0">Small</text>
            <text x="18.0" y="376.0">Medium</text>
            <text x="18.0" y="576.0">Large</text>
        </g>
        <g font-size="9">
            <text x="250.0" y="30.0">Ultralight</text>
            <text x="450.0" y="30.0">Regular</text>
            <text x="650.0" y="30.0">Black</text>
            <text id="template-version" fill="#505050" text-anchor="end" x="785.0" y="575.0">Template v.3.0</text>
            <a href="https://github.com/swhitty/SwiftDraw">
                <text fill="#505050" text-anchor="end" x="785.0" y="590.0">https://github.com/swhitty/SwiftDraw</text>
            </a>
        </g>
    </g>
    <g id="Guides" stroke="rgb(39, 170, 225)" stroke-width="0.5">
        <path id="Capline-S" d="M18,76 l800,0" />
        <path id="H-reference" d="M85,145.755 L87.685,145.755 L113.369,79.287 L114.052,79.287 L114.052,76 L112.148,76 L85,145.755 Z M95.693,121.536 L130.996,121.536 L130.263,119.313 L96.474,119.313 L95.693,121.536 Z M139.15,145.755 L141.787,145.755 L114.638,76 L113.466,76 L113.466,79.287 L139.15,145.755 Z" stroke="none" transform="translate(0,200)" />
        <path id="Baseline-S" d="M18,146 l800,0" />
        <path id="left-margin-Ultralight-M" d="M230,256 l0,110" />
        <path id="right-margin-Ultralight-M" d="M300,256 l0,110" />
        <path id="left-margin-Regular-M" d="M430,256 l0,110" />
        <path id="right-margin-Regular-M" d="M500,256 l0,110" />
        <path id="left-margin-Black-M" d="M630,256 l0,110" />
        <path id="right-margin-Black-M" d="M700,256 l0,110" />
        <path id="Capline-M" d="M18,276 l800,0" />
        <path id="Baseline-M" d="M18,346 l800,0" />
        <path id="Capline-L" d="M18,476 l800,0" />
        <path id="Baseline-L" d="M18,546 l800,0" />
    </g>
    <g id="Symbols">
        <g id="Ultralight-M" transform="translate(0,200)">
            <path d="M233.5,114.182 L296.5,114.182 C298.433,114.182 300,112.757 300,111 C300,109.243 298.433,107.818 296.5,107.818 L233.5,107.818 C231.567,107.818 230,109.243 230,111 C230,112.757 231.567,114.182 233.5,114.182 Z M261.5,79.182 L261.5,99.864 C261.5,101.621 263.067,103.045 265,103.045 C266.933,103.045 268.5,101.621 268.5,99.864 L268.5,79.182 C268.5,77.425 266.933,76 265,76 C263.067,76 261.5,77.425 261.5,79.182 Z M267.475,102.114 L281.475,89.386 C282.842,88.144 282.842,86.129 281.475,84.886 C280.108,83.644 277.892,83.644 276.525,84.886 L262.525,97.614 C261.158,98.856 261.158,100.871 262.525,102.114 C263.892,103.356 266.108,103.356 267.475,102.114 Z M267.475,97.614 L253.475,84.886 C252.108,83.644 249.892,83.644 248.525,84.886 C247.158,86.129 247.158,88.144 248.525,89.386 L262.525,102.114 C263.892,103.356 266.108,103.356 267.475,102.114 C268.842,100.871 268.842,98.856 267.475,97.614 Z M268.5,142.818 L268.5,122.136 C268.5,120.379 266.933,118.955 265,118.955 C263.067,118.955 261.5,120.379 261.5,122.136 L261.5,142.818 C261.5,144.575 263.067,146 265,146 C266.933,146 268.5,144.575 268.5,142.818 Z M262.525,124.386 L276.525,137.114 C277.892,138.356 280.108,138.356 281.475,137.114 C282.842,135.871 282.842,133.856 281.475,132.614 L267.475,119.886 C266.108,118.644 263.892,118.644 262.525,119.886 C261.158,121.129 261.158,123.144 262.525,124.386 Z M262.525,119.886 L248.525,132.614 C247.158,133.856 247.158,135.871 248.525,137.114 C249.892,138.356 252.108,138.356 253.475,137.114 L267.475,124.386 C268.842,123.144 268.842,121.129 267.475,119.886 C266.108,118.644 263.892,118.644 262.525,119.886 Z" />
        </g>
        <g id="Regular-M" transform="translate(0,200)">
            <path d="M433.5,114.182 L496.5,114.182 C498.433,114.182 500,112.757 500,111 C500,109.243 498.433,107.818 496.5,107.818 L433.5,107.818 C431.567,107.818 430,109.243 430,111 C430,112.757 431.567,114.182 433.5,114.182 Z M461.5,79.182 L461.5,99.864 C461.5,101.621 463.067,103.045 465,103.045 C466.933,103.045 468.5,101.621 468.5,99.864 L468.5,79.182 C468.5,77.425 466.933,76 465,76 C463.067,76 461.5,77.425 461.5,79.182 Z M467.475,102.114 L481.475,89.386 C482.842,88.144 482.842,86.129 481.475,84.886 C480.108,83.644 477.892,83.644 476.525,84.886 L462.525,97.614 C461.158,98.856 461.158,100.871 462.525,102.114 C463.892,103.356 466.108,103.356 467.475,102.114 Z M467.475,97.614 L453.475,84.886 C452.108,83.644 449.892,83.644 448.525,84.886 C447.158,86.129 447.158,88.144 448.525,89.386 L462.525,102.114 C463.892,103.356 466.108,103.356 467.475,102.114 C468.842,100.871 468.842,98.856 467.475,97.614 Z M468.5,142.818 L468.5,122.136 C468.5,120.379 466.933,118.955 465,118.955 C463.067,118.955 461.5,120.379 461.5,122.136 L461.5,142.818 C461.5,144.575 463.067,146 465,146 C466.933,146 468.5,144.575 468.5,142.818 Z M462.525,124.386 L476.525,137.114 C477.892,138.356 480.108,138.356 481.475,137.114 C482.842,135.871 482.842,133.856 481.475,132.614 L467.475,119.886 C466.108,118.644 463.892,118.644 462.525,119.886 C461.158,121.129 461.158,123.144 462.525,124.386 Z M462.525,119.886 L448.525,132.614 C447.158,133.856 447.158,135.871 448.525,137.114 C449.892,138.356 452.108,138.356 453.475,137.114 L467.475,124.386 C468.842,123.144 468.842,121.129 467.475,119.886 C466.108,118.644 463.892,118.644 462.525,119.886 Z" />
        </g>
        <g id="Black-M" transform="translate(0,200)">
            <path d="M633.5,114.182 L696.5,114.182 C698.433,114.182 700,112.757 700,111 C700,109.243 698.433,107.818 696.5,107.818 L633.5,107.818 C631.567,107.818 630,109.243 630,111 C630,112.757 631.567,114.182 633.5,114.182 Z M661.5,79.182 L661.5,99.864 C661.5,101.621 663.067,103.045 665,103.045 C666.933,103.045 668.5,101.621 668.5,99.864 L668.5,79.182 C668.5,77.425 666.933,76 665,76 C663.067,76 661.5,77.425 661.5,79.182 Z M667.475,102.114 L681.475,89.386 C682.842,88.144 682.842,86.129 681.475,84.886 C680.108,83.644 677.892,83.644 676.525,84.886 L662.525,97.614 C661.158,98.856 661.158,100.871 662.525,102.114 C663.892,103.356 666.108,103.356 667.475,102.114 Z M667.475,97.614 L653.475,84.886 C652.108,83.644 649.892,83.644 648.525,84.886 C647.158,86.129 647.158,88.144 648.525,89.386 L662.525,102.114 C663.892,103.356 666.108,103.356 667.475,102.114 C668.842,100.871 668.842,98.856 667.475,97.614 Z M668.5,142.818 L668.5,122.136 C668.5,120.379 666.933,118.955 665,118.955 C663.067,118.955 661.5,120.379 661.5,122.136 L661.5,142.818 C661.5,144.575 663.067,146 665,146 C666.933,146 668.5,144.575 668.5,142.818 Z M662.525,124.386 L676.525,137.114 C677.892,138.356 680.108,138.356 681.475,137.114 C682.842,135.871 682.842,133.856 681.475,132.614 L667.475,119.886 C666.108,118.644 663.892,118.644 662.525,119.886 C661.158,121.129 661.158,123.144 662.525,124.386 Z M662.525,119.886 L648.525,132.614 C647.158,133.856 647.158,135.871 648.525,137.114 C649.892,138.356 652.108,138.356 653.475,137.114 L667.475,124.386 C668.842,123.144 668.842,121.129 667.475,119.886 C666.108,118.644 663.892,118.644 662.525,119.886 Z" />
        </g>
    </g>
</svg>