<?xml version="1.0" encoding="UTF-8"?>
<svg height="600" width="800" xmlns="http://www.w3.org/2000/svg" xmlns:xlink="http://www.w3.org/1999/xlink">
    <g id="Notes" font-family="LucidaGrande, 'Lucida Grande', sans-serif" font-size="13">
        <rect fill="white" height="600.0" width="800.0" x="0.0" y="0.0" />
        <g font-size="13">
            <text x="18.0" y="176.0">Small</text>
            <text x="18.0" y="376.0">Medium</text>
            <text x="18.0" y="576.0">Large</text>
        </g>
        <g font-size="9">
            <text x="250.0" y="30.0">Ultralight</text>
            <text x="450.0" y="30.0">Regular</text>
            <text x="650.0" y="30.0">Black</text>
            <text id="template-version" fill="#505050" text-anchor="end" x="785.0" y="575.0">Template v.3.0</text>
            <a href="https://github.com/swhitty/SwiftDraw">
                <text fill="#505050" text-anchor="end" x="785.0" y="590.0">https://github.com/swhitty/SwiftDraw</text>
            </a>
        </g>
    </g>
    <g id="Guides" stroke="rgb(39, 170, 225)" stroke-width="0.5">
        <path id="Capline-S" d="M18,76 l800,0" />
        <path id="H-reference" d="M85,145.755 L87.685,145.755 L113.369,79.287 L114.052,79.287 L114.052,76 L112.148,76 L85,145.755 Z M95.693,121.536 L130.996,121.536 L130.263,119.313 L96.474,119.313 L95.693,121.536 Z M139.15,145.755 L141.787,145.755 L114.638,76 L113.466,76 L113.466,79.287 L139.15,145.755 Z" stroke="none" transform="translate(0,200)" />
        <path id="Baseline-S" d="M18,146 l800,0" />
        <path id="left-margin-Ultralight-M" d="M230,256 l0,110" />
        <path id="right-margin-Ultralight-M" d="M300,256 l0,110" />
        <path id="left-margin-Regular-M" d="M430,256 l0,110" />
        <path id="right-margin-Regular-M" d="M500,256 l0,110" />
        <path id="left-margin-Black-M" d="M630,256 l0,110" />
        <path id="right-margin-Black-M" d="M700,256 l0,110" />
        <path id="Capline-M" d="M18,276 l800,0" />
        <path id="Baseline-M" d="M18,346 l800,0" />
        <path id="Capline-L" d="M18,476 l800,0" />
        <path id="Baseline-L" d="M18,546 l800,0" />
    </g>
    <g id="Symbols">
        <g id="Ultralight-M" transform="translate(0,200)">
            <path d="M285.682,128.5 C294.122,128.5 300,116.491 300,102.25 C300,88.009 294.122,76 285.682,76 C283.925,76 282.5,77.567 282.5,79.5 C282.5,81.433 283.925,83 285.682,83 C289.543,83 293.636,91.362 293.636,102.25 C293.636,113.138 289.543,121.5 285.682,121.5 C283.925,121.5 282.5,123.067 282.5,125 C282.5,126.933 283.925,128.5 285.682,128.5 Z M285.682,121.5 C281.82,121.5 277.727,113.138 277.727,102.25 C277.727,91.362 281.82,83 285.682,83 C287.439,83 288.864,81.433 288.864,79.5 C288.864,77.567 287.439,76 285.682,76 C277.242,76 271.364,88.009 271.364,102.25 C271.364,116.491 277.242,128.5 285.682,128.5 C287.439,128.5 288.864,126.933 288.864,125 C288.864,123.067 287.439,121.5 285.682,121.5 Z M286.251,121.556 L244.709,113.247 C241.401,112.589 240.585,112.379 239.919,112.019 C238.303,111.146 237.098,109.557 236.605,107.65 C236.404,106.87 236.364,105.974 236.364,102.25 C236.364,98.526 236.404,97.63 236.606,96.849 C237.098,94.943 238.303,93.354 239.921,92.48 C240.281,92.285 240.766,92.116 241.584,91.914 C242.244,91.752 242.859,91.623 244.71,91.252 L286.251,82.944 C287.98,82.598 289.127,80.776 288.812,78.874 C288.498,76.972 286.842,75.711 285.113,76.056 L243.571,84.365 C241.621,84.756 240.972,84.892 240.195,85.083 C238.928,85.395 237.997,85.721 237.116,86.196 C233.879,87.946 231.469,91.123 230.484,94.938 C230.05,96.62 230,97.724 230,102.25 C230,106.776 230.05,107.88 230.483,109.561 C231.469,113.377 233.879,116.554 237.115,118.303 C238.545,119.075 239.557,119.335 243.573,120.135 L285.113,128.444 C286.842,128.789 288.498,127.528 288.812,125.626 C289.127,123.724 287.98,121.902 286.251,121.556 Z M239.554,118.249 L240.807,137.548 C240.995,140.478 241.096,141.205 241.761,142.483 C242.402,143.708 243.36,144.689 244.513,145.302 C245.714,145.943 246.364,146 249.059,146 L254.729,146 C257.794,146 258.506,145.934 259.81,145.162 C261.051,144.428 262.035,143.261 262.609,141.845 C263.207,140.339 263.213,139.512 262.976,136.196 L261.809,119.482 C261.674,117.555 260.145,116.112 258.393,116.26 C256.641,116.408 255.329,118.091 255.464,120.018 L256.632,136.738 C256.765,138.607 256.762,139.082 256.787,139.019 C256.796,138.997 256.796,138.997 256.796,138.997 C256.857,138.961 256.437,139 254.729,139 L249.059,139 C247.576,139 247.226,138.969 247.286,139.001 C247.28,138.998 247.28,138.998 247.28,138.998 C247.312,139.059 247.259,138.677 247.155,137.052 L245.901,117.751 C245.776,115.822 244.253,114.371 242.501,114.509 C240.748,114.647 239.428,116.321 239.554,118.249 Z" />
        </g>
        <g id="Regular-M" transform="translate(0,200)">
            <path d="M485.682,128.5 C494.122,128.5 500,116.491 500,102.25 C500,88.009 494.122,76 485.682,76 C483.925,76 482.5,77.567 482.5,79.5 C482.5,81.433 483.925,83 485.682,83 C489.543,83 493.636,91.362 493.636,102.25 C493.636,113.138 489.543,121.5 485.682,121.5 C483.925,121.5 482.5,123.067 482.5,125 C482.5,126.933 483.925,128.5 485.682,128.5 Z M485.682,121.5 C481.82,121.5 477.727,113.138 477.727,102.25 C477.727,91.362 481.82,83 485.682,83 C487.439,83 488.864,81.433 488.864,79.5 C488.864,77.567 487.439,76 485.682,76 C477.242,76 471.364,88.009 471.364,102.25 C471.364,116.491 477.242,128.5 485.682,128.5 C487.439,128.5 488.864,126.933 488.864,125 C488.864,123.067 487.439,121.5 485.682,121.5 Z M486.251,121.556 L444.709,113.247 C441.401,112.589 440.585,112.379 439.919,112.019 C438.303,111.146 437.098,109.557 436.605,107.65 C436.404,106.87 436.364,105.974 436.364,102.25 C436.364,98.526 436.404,97.63 436.606,96.849 C437.098,94.943 438.303,93.354 439.921,92.48 C440.281,92.285 440.766,92.116 441.584,91.914 C442.244,91.752 442.859,91.623 444.71,91.252 L486.251,82.944 C487.98,82.598 489.127,80.776 488.812,78.874 C488.498,76.972 486.842,75.711 485.113,76.056 L443.571,84.365 C441.621,84.756 440.972,84.892 440.195,85.083 C438.928,85.395 437.997,85.721 437.116,86.196 C433.879,87.946 431.469,91.123 430.484,94.938 C430.05,96.62 430,97.724 430,102.25 C430,106.776 430.05,107.88 430.483,109.561 C431.469,113.377 433.879,116.554 437.115,118.303 C438.545,119.075 439.557,119.335 443.573,120.135 L485.113,128.444 C486.842,128.789 488.498,127.528 488.812,125.626 C489.127,123.724 487.98,121.902 486.251,121.556 Z M439.554,118.249 L440.807,137.548 C440.995,140.478 441.096,141.205 441.761,142.483 C442.402,143.708 443.36,144.689 444.513,145.302 C445.714,145.943 446.364,146 449.059,146 L454.729,146 C457.794,146 458.506,145.934 459.81,145.162 C461.051,144.428 462.035,143.261 462.609,141.845 C463.207,140.339 463.213,139.512 462.976,136.196 L461.809,119.482 C461.674,117.555 460.145,116.112 458.393,116.26 C456.641,116.408 455.329,118.091 455.464,120.018 L456.632,136.738 C456.765,138.607 456.762,139.082 456.787,139.019 C456.796,138.997 456.796,138.997 456.796,138.997 C456.857,138.961 456.437,139 454.729,139 L449.059,139 C447.576,139 447.226,138.969 447.286,139.001 C447.28,138.998 447.28,138.998 447.28,138.998 C447.312,139.059 447.259,138.677 447.155,137.052 L445.901,117.751 C445.776,115.822 444.253,114.371 442.5,114.509 C440.748,114.647 439.428,116.321 439.554,118.249 Z" />
        </g>
        <g id="Black-M" transform="translate(0,200)">
            <path d="M685.682,128.5 C694.122,128.5 700,116.491 700,102.25 C700,88.009 694.122,76 685.682,76 C683.925,76 682.5,77.567 682.5,79.5 C682.5,81.433 683.925,83 685.682,83 C689.543,83 693.636,91.362 693.636,102.25 C693.636,113.138 689.543,121.5 685.682,121.5 C683.925,121.5 682.5,123.067 682.5,125 C682.5,126.933 683.925,128.5 685.682,128.5 Z M685.682,121.5 C681.82,121.5 677.727,113.138 677.727,102.25 C677.727,91.362 681.82,83 685.682,83 C687.439,83 688.864,81.433 688.864,79.5 C688.864,77.567 687.439,76 685.682,76 C677.242,76 671.364,88.009 671.364,102.25 C671.364,116.491 677.242,128.5 685.682,128.5 C687.439,128.5 688.864,126.933 688.864,125 C688.864,123.067 687.439,121.5 685.682,121.5 Z M686.251,121.556 L644.709,113.247 C641.401,112.589 640.585,112.379 639.919,112.019 C638.303,111.146 637.098,109.557 636.605,107.65 C636.404,106.87 636.364,105.974 636.364,102.25 C636.364,98.526 636.404,97.63 636.606,96.849 C637.098,94.943 638.303,93.354 639.921,92.48 C640.281,92.285 640.766,92.116 641.584,91.914 C642.244,91.752 642.859,91.623 644.71,91.252 L686.251,82.944 C687.98,82.598 689.127,80.776 688.812,78.874 C688.498,76.972 686.841,75.711 685.113,76.056 L643.571,84.365 C641.621,84.756 640.972,84.892 640.195,85.083 C638.928,85.395 637.997,85.721 637.116,86.196 C633.879,87.946 631.469,91.123 630.484,94.938 C630.05,96.62 630,97.724 630,102.25 C630,106.776 630.05,107.88 630.483,109.561 C631.469,113.377 633.879,116.554 637.115,118.303 C638.545,119.075 639.557,119.335 643.573,120.135 L685.113,128.444 C686.841,128.789 688.498,127.528 688.812,125.626 C689.127,123.724 687.98,121.902 686.251,121.556 Z M639.554,118.249 L640.807,137.548 C640.995,140.478 641.096,141.205 641.761,142.483 C642.402,143.708 643.36,144.689 644.513,145.302 C645.714,145.943 646.364,146 649.059,146 L654.729,146 C657.794,146 658.506,145.934 659.81,145.162 C661.051,144.428 662.036,143.261 662.609,141.845 C663.207,140.339 663.213,139.512 662.976,136.196 L661.809,119.482 C661.674,117.555 660.145,116.112 658.393,116.26 C656.641,116.408 655.329,118.091 655.464,120.018 L656.632,136.738 C656.765,138.607 656.762,139.082 656.787,139.019 C656.796,138.997 656.796,138.997 656.796,138.997 C656.857,138.961 656.437,139 654.729,139 L649.059,139 C647.576,139 647.226,138.969 647.286,139.001 C647.28,138.998 647.28,138.998 647.28,138.998 C647.312,139.059 647.259,138.677 647.155,137.052 L645.901,117.751 C645.776,115.822 644.253,114.371 642.5,114.509 C640.748,114.647 639.428,116.321 639.554,118.249 Z" />
        </g>
    </g>
</svg>