<?xml version="1.0" encoding="UTF-8"?>
<svg height="600" width="800" xmlns="http://www.w3.org/2000/svg" xmlns:xlink="http://www.w3.org/1999/xlink">
    <g id="Notes" font-family="LucidaGrande, 'Lucida Grande', sans-serif" font-size="13">
        <rect fill="white" height="600.0" width="800.0" x="0.0" y="0.0" />
        <g font-size="13">
            <text x="18.0" y="176.0">Small</text>
            <text x="18.0" y="376.0">Medium</text>
            <text x="18.0" y="576.0">Large</text>
        </g>
        <g font-size="9">
            <text x="250.0" y="30.0">Ultralight</text>
            <text x="450.0" y="30.0">Regular</text>
            <text x="650.0" y="30.0">Black</text>
            <text id="template-version" fill="#505050" text-anchor="end" x="785.0" y="575.0">Template v.3.0</text>
            <a href="https://github.com/swhitty/SwiftDraw">
                <text fill="#505050" text-anchor="end" x="785.0" y="590.0">https://github.com/swhitty/SwiftDraw</text>
            </a>
        </g>
    </g>
    <g id="Guides" stroke="rgb(39, 170, 225)" stroke-width="0.5">
        <path id="Capline-S" d="M18,76 l800,0" />
        <path id="H-reference" d="M85,145.755 L87.685,145.755 L113.369,79.287 L114.052,79.287 L114.052,76 L112.148,76 L85,145.755 Z M95.693,121.536 L130.996,121.536 L130.263,119.313 L96.474,119.313 L95.693,121.536 Z M139.15,145.755 L141.787,145.755 L114.638,76 L113.466,76 L113.466,79.287 L139.15,145.755 Z" stroke="none" transform="translate(0,200)" />
        <path id="Baseline-S" d="M18,146 l800,0" />
        <path id="left-margin-Ultralight-M" d="M230,256 l0,110" />
        <path id="right-margin-Ultralight-M" d="M300,256 l0,110" />
        <path id="left-margin-Regular-M" d="M430,256 l0,110" />
        <path id="right-margin-Regular-M" d="M500,256 l0,110" />
        <path id="left-margin-Black-M" d="M630,256 l0,110" />
        <path id="right-margin-Black-M" d="M700,256 l0,110" />
        <path id="Capline-M" d="M18,276 l800,0" />
        <path id="Baseline-M" d="M18,346 l800,0" />
        <path id="Capline-L" d="M18,476 l800,0" />
        <path id="Baseline-L" d="M18,546 l800,0" />
    </g>
    <g id="Symbols">
        <g id="Ultralight-M" transform="translate(0,200)">
            <path d="M240.812,113.062 L261.229,92.646 L256.25,90.583 L256.25,102.25 C256.25,103.861 257.556,105.167 259.167,105.167 L288.917,105.167 C289.384,105.167 289.542,105.169 289.635,105.177 C289.537,105.169 289.357,105.126 289.12,105.004 C288.854,104.869 288.632,104.646 288.492,104.372 C288.374,104.143 288.331,103.963 288.323,103.865 C288.331,103.958 288.333,104.116 288.333,104.583 L288.333,117.417 C288.333,117.884 288.331,118.042 288.323,118.135 C288.331,118.037 288.374,117.857 288.496,117.62 C288.632,117.354 288.854,117.132 289.128,116.992 C289.357,116.874 289.537,116.831 289.635,116.823 C289.542,116.831 289.384,116.833 288.917,116.833 L259.167,116.833 C257.556,116.833 256.25,118.139 256.25,119.75 L256.25,131.417 L261.229,129.354 L240.812,108.938 L240.812,113.062 Z M236.688,108.938 C235.549,110.077 235.549,111.923 236.688,113.062 L257.104,133.479 C258.942,135.316 262.083,134.015 262.083,131.417 L262.083,119.75 L259.167,122.667 L288.917,122.667 C290.527,122.667 290.909,122.635 291.787,122.184 C292.601,121.768 293.268,121.101 293.687,120.28 C294.135,119.409 294.167,119.027 294.167,117.417 L294.167,104.583 C294.167,102.973 294.135,102.591 293.684,101.713 C293.268,100.899 292.601,100.232 291.78,99.813 C290.909,99.365 290.527,99.333 288.917,99.333 L259.167,99.333 L262.083,102.25 L262.083,90.583 C262.083,87.985 258.942,86.684 257.104,88.521 L236.688,108.938 Z" />
        </g>
        <g id="Regular-M" transform="translate(0,200)">
            <path d="M440.812,113.062 L461.229,92.646 L456.25,90.583 L456.25,102.25 C456.25,103.861 457.556,105.167 459.167,105.167 L488.917,105.167 C489.384,105.167 489.542,105.169 489.635,105.177 C489.537,105.169 489.357,105.126 489.12,105.004 C488.854,104.869 488.632,104.646 488.492,104.372 C488.374,104.143 488.331,103.963 488.323,103.865 C488.331,103.958 488.333,104.116 488.333,104.583 L488.333,117.417 C488.333,117.884 488.331,118.042 488.323,118.135 C488.331,118.037 488.374,117.857 488.496,117.62 C488.632,117.354 488.854,117.132 489.128,116.992 C489.357,116.874 489.537,116.831 489.635,116.823 C489.542,116.831 489.384,116.833 488.917,116.833 L459.167,116.833 C457.556,116.833 456.25,118.139 456.25,119.75 L456.25,131.417 L461.229,129.354 L440.812,108.938 L440.812,113.062 Z M436.688,108.938 C435.549,110.077 435.549,111.923 436.688,113.062 L457.104,133.479 C458.942,135.316 462.083,134.015 462.083,131.417 L462.083,119.75 L459.167,122.667 L488.917,122.667 C490.527,122.667 490.909,122.635 491.787,122.184 C492.601,121.768 493.268,121.101 493.687,120.28 C494.135,119.409 494.167,119.027 494.167,117.417 L494.167,104.583 C494.167,102.973 494.135,102.591 493.684,101.713 C493.268,100.899 492.601,100.232 491.78,99.813 C490.909,99.365 490.527,99.333 488.917,99.333 L459.167,99.333 L462.083,102.25 L462.083,90.583 C462.083,87.985 458.942,86.684 457.104,88.521 L436.688,108.938 Z" />
        </g>
        <g id="Black-M" transform="translate(0,200)">
            <path d="M640.812,113.062 L661.229,92.646 L656.25,90.583 L656.25,102.25 C656.25,103.861 657.556,105.167 659.167,105.167 L688.917,105.167 C689.384,105.167 689.542,105.169 689.635,105.177 C689.537,105.169 689.357,105.126 689.12,105.004 C688.854,104.869 688.631,104.646 688.492,104.372 C688.374,104.143 688.331,103.963 688.323,103.865 C688.331,103.958 688.333,104.116 688.333,104.583 L688.333,117.417 C688.333,117.884 688.331,118.042 688.323,118.135 C688.331,118.037 688.374,117.857 688.496,117.62 C688.632,117.354 688.854,117.132 689.128,116.992 C689.357,116.874 689.537,116.831 689.635,116.823 C689.542,116.831 689.384,116.833 688.917,116.833 L659.167,116.833 C657.556,116.833 656.25,118.139 656.25,119.75 L656.25,131.417 L661.229,129.354 L640.812,108.938 L640.812,113.062 Z M636.688,108.938 C635.549,110.077 635.549,111.923 636.688,113.062 L657.104,133.479 C658.942,135.316 662.083,134.015 662.083,131.417 L662.083,119.75 L659.167,122.667 L688.917,122.667 C690.527,122.667 690.909,122.635 691.787,122.184 C692.601,121.768 693.268,121.101 693.687,120.28 C694.135,119.409 694.167,119.027 694.167,117.417 L694.167,104.583 C694.167,102.973 694.135,102.591 693.684,101.713 C693.268,100.899 692.601,100.232 691.78,99.813 C690.909,99.365 690.527,99.333 688.917,99.333 L659.167,99.333 L662.083,102.25 L662.083,90.583 C662.083,87.985 658.942,86.684 657.104,88.521 L636.688,108.938 Z" />
        </g>
    </g>
</svg>