<?xml version="1.0" encoding="UTF-8"?>
<svg height="600" width="800" xmlns="http://www.w3.org/2000/svg" xmlns:xlink="http://www.w3.org/1999/xlink">
    <g id="Notes" font-family="LucidaGrande, 'Lucida Grande', sans-serif" font-size="13">
        <rect fill="white" height="600.0" width="800.0" x="0.0" y="0.0" />
        <g font-size="13">
            <text x="18.0" y="176.0">Small</text>
            <text x="18.0" y="376.0">Medium</text>
            <text x="18.0" y="576.0">Large</text>
        </g>
        <g font-size="9">
            <text x="250.0" y="30.0">Ultralight</text>
            <text x="450.0" y="30.0">Regular</text>
            <text x="650.0" y="30.0">Black</text>
            <text id="template-version" fill="#505050" text-anchor="end" x="785.0" y="575.0">Template v.3.0</text>
            <a href="https://github.com/swhitty/SwiftDraw">
                <text fill="#505050" text-anchor="end" x="785.0" y="590.0">https://github.com/swhitty/SwiftDraw</text>
            </a>
        </g>
    </g>
    <g id="Guides" stroke="rgb(39, 170, 225)" stroke-width="0.5">
        <path id="Capline-S" d="M18,76 l800,0" />
        <path id="H-reference" d="M85,145.755 L87.685,145.755 L113.369,79.287 L114.052,79.287 L114.052,76 L112.148,76 L85,145.755 Z M95.693,121.536 L130.996,121.536 L130.263,119.313 L96.474,119.313 L95.693,121.536 Z M139.15,145.755 L141.787,145.755 L114.638,76 L113.466,76 L113.466,79.287 L139.15,145.755 Z" stroke="none" transform="translate(0,200)" />
        <path id="Baseline-S" d="M18,146 l800,0" />
        <path id="left-margin-Ultralight-M" d="M230,256 l0,110" />
        <path id="right-margin-Ultralight-M" d="M300,256 l0,110" />
        <path id="left-margin-Regular-M" d="M430,256 l0,110" />
        <path id="right-margin-Regular-M" d="M500,256 l0,110" />
        <path id="left-margin-Black-M" d="M630,256 l0,110" />
        <path id="right-margin-Black-M" d="M700,256 l0,110" />
        <path id="Capline-M" d="M18,276 l800,0" />
        <path id="Baseline-M" d="M18,346 l800,0" />
        <path id="Capline-L" d="M18,476 l800,0" />
        <path id="Baseline-L" d="M18,546 l800,0" />
    </g>
    <g id="Symbols">
        <g id="Ultralight-M" transform="translate(0,200)">
            <path d="M269.375,141.625 L269.375,80.375 C269.375,77.959 267.416,76 265,76 C262.584,76 260.625,77.959 260.625,80.375 L260.625,141.625 C260.625,144.041 262.584,146 265,146 C267.416,146 269.375,144.041 269.375,141.625 Z M261.906,77.281 L231.281,107.906 C229.573,109.615 229.573,112.385 231.281,114.094 C232.99,115.802 235.76,115.802 237.469,114.094 L268.094,83.469 C269.802,81.76 269.802,78.99 268.094,77.281 C266.385,75.573 263.615,75.573 261.906,77.281 Z M261.906,83.469 L292.531,114.094 C294.24,115.802 297.01,115.802 298.719,114.094 C300.427,112.385 300.427,109.615 298.719,107.906 L268.094,77.281 C266.385,75.573 263.615,75.573 261.906,77.281 C260.198,78.99 260.198,81.76 261.906,83.469 Z" />
        </g>
        <g id="Regular-M" transform="translate(0,200)">
            <path d="M469.375,141.625 L469.375,80.375 C469.375,77.959 467.416,76 465,76 C462.584,76 460.625,77.959 460.625,80.375 L460.625,141.625 C460.625,144.041 462.584,146 465,146 C467.416,146 469.375,144.041 469.375,141.625 Z M461.906,77.281 L431.281,107.906 C429.573,109.615 429.573,112.385 431.281,114.094 C432.99,115.802 435.76,115.802 437.469,114.094 L468.094,83.469 C469.802,81.76 469.802,78.99 468.094,77.281 C466.385,75.573 463.615,75.573 461.906,77.281 Z M461.906,83.469 L492.531,114.094 C494.24,115.802 497.01,115.802 498.719,114.094 C500.427,112.385 500.427,109.615 498.719,107.906 L468.094,77.281 C466.385,75.573 463.615,75.573 461.906,77.281 C460.198,78.99 460.198,81.76 461.906,83.469 Z" />
        </g>
        <g id="Black-M" transform="translate(0,200)">
            <path d="M669.375,141.625 L669.375,80.375 C669.375,77.959 667.416,76 665,76 C662.584,76 660.625,77.959 660.625,80.375 L660.625,141.625 C660.625,144.041 662.584,146 665,146 C667.416,146 669.375,144.041 669.375,141.625 Z M661.906,77.281 L631.281,107.906 C629.573,109.615 629.573,112.385 631.281,114.094 C632.99,115.802 635.76,115.802 637.469,114.094 L668.094,83.469 C669.802,81.76 669.802,78.99 668.094,77.281 C666.385,75.573 663.615,75.573 661.906,77.281 Z M661.906,83.469 L692.531,114.094 C694.24,115.802 697.01,115.802 698.719,114.094 C700.427,112.385 700.427,109.615 698.719,107.906 L668.094,77.281 C666.385,75.573 663.615,75.573 661.906,77.281 C660.198,78.99 660.198,81.76 661.906,83.469 Z" />
        </g>
    </g>
</svg>