<?xml version="1.0" encoding="UTF-8"?>
<svg height="600" width="800" xmlns="http://www.w3.org/2000/svg" xmlns:xlink="http://www.w3.org/1999/xlink">
    <g id="Notes" font-family="LucidaGrande, 'Lucida Grande', sans-serif" font-size="13">
        <rect fill="white" height="600.0" width="800.0" x="0.0" y="0.0" />
        <g font-size="13">
            <text x="18.0" y="176.0">Small</text>
            <text x="18.0" y="376.0">Medium</text>
            <text x="18.0" y="576.0">Large</text>
        </g>
        <g font-size="9">
            <text x="250.0" y="30.0">Ultralight</text>
            <text x="450.0" y="30.0">Regular</text>
            <text x="650.0" y="30.0">Black</text>
            <text id="template-version" fill="#505050" text-anchor="end" x="785.0" y="575.0">Template v.3.0</text>
            <a href="https://github.com/swhitty/SwiftDraw">
                <text fill="#505050" text-anchor="end" x="785.0" y="590.0">https://github.com/swhitty/SwiftDraw</text>
            </a>
        </g>
    </g>
    <g id="Guides" stroke="rgb(39, 170, 225)" stroke-width="0.5">
        <path id="Capline-S" d="M18,76 l800,0" />
        <path id="H-reference" d="M85,145.755 L87.685,145.755 L113.369,79.287 L114.052,79.287 L114.052,76 L112.148,76 L85,145.755 Z M95.693,121.536 L130.996,121.536 L130.263,119.313 L96.474,119.313 L95.693,121.536 Z M139.15,145.755 L141.787,145.755 L114.638,76 L113.466,76 L113.466,79.287 L139.15,145.755 Z" stroke="none" transform="translate(0,200)" />
        <path id="Baseline-S" d="M18,146 l800,0" />
        <path id="left-margin-Ultralight-M" d="M230,256 l0,110" />
        <path id="right-margin-Ultralight-M" d="M300,256 l0,110" />
        <path id="left-margin-Regular-M" d="M430,256 l0,110" />
        <path id="right-margin-Regular-M" d="M500,256 l0,110" />
        <path id="left-margin-Black-M" d="M630,256 l0,110" />
        <path id="right-margin-Black-M" d="M700,256 l0,110" />
        <path id="Capline-M" d="M18,276 l800,0" />
        <path id="Baseline-M" d="M18,346 l800,0" />
        <path id="Capline-L" d="M18,476 l800,0" />
        <path id="Baseline-L" d="M18,546 l800,0" />
    </g>
    <g id="Symbols">
        <g id="Ultralight-M" transform="translate(0,200)">
            <path d="M296.111,107.111 L233.889,107.111 C231.741,107.111 230,108.852 230,111 C230,113.148 231.741,114.889 233.889,114.889 L296.111,114.889 C298.259,114.889 300,113.148 300,111 C300,108.852 298.259,107.111 296.111,107.111 Z M231.139,113.75 L254.472,137.083 C255.991,138.602 258.453,138.602 259.972,137.083 C261.491,135.564 261.491,133.102 259.972,131.583 L236.639,108.25 C235.12,106.731 232.658,106.731 231.139,108.25 C229.62,109.769 229.62,112.231 231.139,113.75 Z M236.639,113.75 L259.972,90.417 C261.491,88.898 261.491,86.436 259.972,84.917 C258.453,83.398 255.991,83.398 254.472,84.917 L231.139,108.25 C229.62,109.769 229.62,112.231 231.139,113.75 C232.658,115.269 235.12,115.269 236.639,113.75 Z" />
        </g>
        <g id="Regular-M" transform="translate(0,200)">
            <path d="M496.111,107.111 L433.889,107.111 C431.741,107.111 430,108.852 430,111 C430,113.148 431.741,114.889 433.889,114.889 L496.111,114.889 C498.259,114.889 500,113.148 500,111 C500,108.852 498.259,107.111 496.111,107.111 Z M431.139,113.75 L454.472,137.083 C455.991,138.602 458.453,138.602 459.972,137.083 C461.491,135.564 461.491,133.102 459.972,131.583 L436.639,108.25 C435.12,106.731 432.658,106.731 431.139,108.25 C429.62,109.769 429.62,112.231 431.139,113.75 Z M436.639,113.75 L459.972,90.417 C461.491,88.898 461.491,86.436 459.972,84.917 C458.453,83.398 455.991,83.398 454.472,84.917 L431.139,108.25 C429.62,109.769 429.62,112.231 431.139,113.75 C432.658,115.269 435.12,115.269 436.639,113.75 Z" />
        </g>
        <g id="Black-M" transform="translate(0,200)">
            <path d="M696.111,107.111 L633.889,107.111 C631.741,107.111 630,108.852 630,111 C630,113.148 631.741,114.889 633.889,114.889 L696.111,114.889 C698.259,114.889 700,113.148 700,111 C700,108.852 698.259,107.111 696.111,107.111 Z M631.139,113.75 L654.472,137.083 C655.991,138.602 658.453,138.602 659.972,137.083 C661.491,135.564 661.491,133.102 659.972,131.583 L636.639,108.25 C635.12,106.731 632.658,106.731 631.139,108.25 C629.62,109.769 629.62,112.231 631.139,113.75 Z M636.639,113.75 L659.972,90.417 C661.491,88.898 661.491,86.436 659.972,84.917 C658.453,83.398 655.991,83.398 654.472,84.917 L631.139,108.25 C629.62,109.769 629.62,112.231 631.139,113.75 C632.658,115.269 635.12,115.269 636.639,113.75 Z" />
        </g>
    </g>
</svg>