<?xml version="1.0" encoding="UTF-8"?>
<svg height="600" width="800" xmlns="http://www.w3.org/2000/svg" xmlns:xlink="http://www.w3.org/1999/xlink">
    <g id="Notes" font-family="LucidaGrande, 'Lucida Grande', sans-serif" font-size="13">
        <rect fill="white" height="600.0" width="800.0" x="0.0" y="0.0" />
        <g font-size="13">
            <text x="18.0" y="176.0">Small</text>
            <text x="18.0" y="376.0">Medium</text>
            <text x="18.0" y="576.0">Large</text>
        </g>
        <g font-size="9">
            <text x="250.0" y="30.0">Ultralight</text>
            <text x="450.0" y="30.0">Regular</text>
            <text x="650.0" y="30.0">Black</text>
            <text id="template-version" fill="#505050" text-anchor="end" x="785.0" y="575.0">Template v.3.0</text>
            <a href="https://github.com/swhitty/SwiftDraw">
                <text fill="#505050" text-anchor="end" x="785.0" y="590.0">https://github.com/swhitty/SwiftDraw</text>
            </a>
        </g>
    </g>
    <g id="Guides" stroke="rgb(39, 170, 225)" stroke-width="0.5">
        <path id="Capline-S" d="M18,76 l800,0" />
        <path id="H-reference" d="M85,145.755 L87.685,145.755 L113.369,79.287 L114.052,79.287 L114.052,76 L112.148,76 L85,145.755 Z M95.693,121.536 L130.996,121.536 L130.263,119.313 L96.474,119.313 L95.693,121.536 Z M139.15,145.755 L141.787,145.755 L114.638,76 L113.466,76 L113.466,79.287 L139.15,145.755 Z" stroke="none" transform="translate(0,200)" />
        <path id="Baseline-S" d="M18,146 l800,0" />
        <path id="left-margin-Ultralight-M" d="M221,256 l0,110" />
        <path id="right-margin-Ultralight-M" d="M309,256 l0,110" />
        <path id="left-margin-Regular-M" d="M421,256 l0,110" />
        <path id="right-margin-Regular-M" d="M509,256 l0,110" />
        <path id="left-margin-Black-M" d="M621,256 l0,110" />
        <path id="right-margin-Black-M" d="M709,256 l0,110" />
        <path id="Capline-M" d="M18,276 l800,0" />
        <path id="Baseline-M" d="M18,346 l800,0" />
        <path id="Capline-L" d="M18,476 l800,0" />
        <path id="Baseline-L" d="M18,546 l800,0" />
    </g>
    <g id="Symbols">
        <g id="Ultralight-M" transform="translate(0,200)">
            <path d="M256.617,104.717 L256.617,117.288 C256.617,118.445 257.555,119.383 258.713,119.383 C259.87,119.383 260.808,118.445 260.808,117.288 L260.808,104.717 C260.808,103.56 259.87,102.622 258.713,102.622 C257.555,102.622 256.617,103.56 256.617,104.717 Z M258.713,119.383 L271.284,119.383 C272.441,119.383 273.379,118.445 273.379,117.288 C273.379,116.131 272.441,115.193 271.284,115.193 L258.713,115.193 C257.555,115.193 256.617,116.131 256.617,117.288 C256.617,118.445 257.555,119.383 258.713,119.383 Z M260.194,118.77 L281.146,97.818 C281.964,97 281.964,95.673 281.146,94.855 C280.328,94.037 279.001,94.037 278.183,94.855 L257.231,115.807 C256.413,116.625 256.413,117.951 257.231,118.77 C258.049,119.588 259.376,119.588 260.194,118.77 Z M283.214,106.119 C284.96,112.627 283.099,119.572 278.332,124.335 C270.968,131.699 259.028,131.699 251.665,124.336 C244.301,116.973 244.301,105.033 251.665,97.669 C256.427,92.902 263.372,91.04 269.88,92.785 C270.998,93.085 272.146,92.421 272.446,91.304 C272.746,90.186 272.083,89.037 270.965,88.737 C263.01,86.605 254.522,88.881 248.701,94.707 C239.702,103.706 239.702,118.299 248.702,127.299 C257.701,136.299 272.295,136.299 281.294,127.299 C287.12,121.478 289.395,112.988 287.261,105.033 C286.961,103.916 285.812,103.253 284.694,103.553 C283.577,103.852 282.914,105.001 283.214,106.119 Z" />
        </g>
        <g id="Regular-M" transform="translate(0,200)">
            <path d="M456.617,104.717 L456.617,117.288 C456.617,118.445 457.555,119.383 458.713,119.383 C459.87,119.383 460.808,118.445 460.808,117.288 L460.808,104.717 C460.808,103.56 459.87,102.622 458.713,102.622 C457.555,102.622 456.617,103.56 456.617,104.717 Z M458.713,119.383 L471.284,119.383 C472.441,119.383 473.379,118.445 473.379,117.288 C473.379,116.131 472.441,115.193 471.284,115.193 L458.713,115.193 C457.555,115.193 456.617,116.131 456.617,117.288 C456.617,118.445 457.555,119.383 458.713,119.383 Z M460.194,118.77 L481.146,97.818 C481.964,97 481.964,95.673 481.146,94.855 C480.328,94.037 479.001,94.037 478.183,94.855 L457.231,115.807 C456.413,116.625 456.413,117.951 457.231,118.77 C458.049,119.588 459.376,119.588 460.194,118.77 Z M483.214,106.119 C484.96,112.627 483.099,119.572 478.332,124.335 C470.968,131.699 459.028,131.699 451.665,124.336 C444.301,116.973 444.301,105.033 451.665,97.669 C456.427,92.902 463.372,91.04 469.88,92.785 C470.998,93.085 472.146,92.421 472.446,91.304 C472.746,90.186 472.083,89.037 470.965,88.737 C463.01,86.605 454.522,88.881 448.701,94.707 C439.702,103.706 439.702,118.299 448.702,127.299 C457.701,136.299 472.295,136.299 481.294,127.299 C487.12,121.478 489.395,112.988 487.261,105.033 C486.961,103.916 485.812,103.253 484.694,103.553 C483.577,103.852 482.914,105.001 483.214,106.119 Z" />
        </g>
        <g id="Black-M" transform="translate(0,200)">
            <path d="M656.617,104.717 L656.617,117.288 C656.617,118.445 657.555,119.383 658.713,119.383 C659.87,119.383 660.808,118.445 660.808,117.288 L660.808,104.717 C660.808,103.56 659.87,102.622 658.713,102.622 C657.555,102.622 656.617,103.56 656.617,104.717 Z M658.713,119.383 L671.284,119.383 C672.441,119.383 673.379,118.445 673.379,117.288 C673.379,116.131 672.441,115.193 671.284,115.193 L658.713,115.193 C657.555,115.193 656.617,116.131 656.617,117.288 C656.617,118.445 657.555,119.383 658.713,119.383 Z M660.194,118.77 L681.146,97.818 C681.964,97 681.964,95.673 681.146,94.855 C680.328,94.037 679.001,94.037 678.183,94.855 L657.231,115.807 C656.413,116.625 656.413,117.951 657.231,118.77 C658.049,119.588 659.376,119.588 660.194,118.77 Z M683.214,106.119 C684.96,112.627 683.099,119.572 678.332,124.335 C670.968,131.699 659.028,131.699 651.665,124.336 C644.301,116.973 644.301,105.033 651.665,97.669 C656.427,92.902 663.372,91.04 669.88,92.785 C670.998,93.085 672.146,92.421 672.446,91.304 C672.746,90.186 672.083,89.037 670.965,88.737 C663.01,86.605 654.522,88.881 648.701,94.707 C639.702,103.706 639.702,118.299 648.702,127.299 C657.701,136.299 672.295,136.299 681.294,127.299 C687.12,121.478 689.395,112.988 687.261,105.033 C686.961,103.916 685.812,103.253 684.694,103.553 C683.577,103.852 682.914,105.001 683.214,106.119 Z" />
        </g>
    </g>
</svg>