<?xml version="1.0" encoding="UTF-8"?>
<svg height="600" width="800" xmlns="http://www.w3.org/2000/svg" xmlns:xlink="http://www.w3.org/1999/xlink">
    <g id="Notes" font-family="LucidaGrande, 'Lucida Grande', sans-serif" font-size="13">
        <rect fill="white" height="600.0" width="800.0" x="0.0" y="0.0" />
        <g font-size="13">
            <text x="18.0" y="176.0">Small</text>
            <text x="18.0" y="376.0">Medium</text>
            <text x="18.0" y="576.0">Large</text>
        </g>
        <g font-size="9">
            <text x="250.0" y="30.0">Ultralight</text>
            <text x="450.0" y="30.0">Regular</text>
            <text x="650.0" y="30.0">Black</text>
            <text id="template-version" fill="#505050" text-anchor="end" x="785.0" y="575.0">Template v.3.0</text>
            <a href="https://github.com/swhitty/SwiftDraw">
                <text fill="#505050" text-anchor="end" x="785.0" y="590.0">https://github.com/swhitty/SwiftDraw</text>
            </a>
        </g>
    </g>
    <g id="Guides" stroke="rgb(39, 170, 225)" stroke-width="0.5">
        <path id="Capline-S" d="M18,76 l800,0" />
        <path id="H-reference" d="M85,145.755 L87.685,145.755 L113.369,79.287 L114.052,79.287 L114.052,76 L112.148,76 L85,145.755 Z M95.693,121.536 L130.996,121.536 L130.263,119.313 L96.474,119.313 L95.693,121.536 Z M139.15,145.755 L141.787,145.755 L114.638,76 L113.466,76 L113.466,79.287 L139.15,145.755 Z" stroke="none" transform="translate(0,200)" />
        <path id="Baseline-S" d="M18,146 l800,0" />
        <path id="left-margin-Ultralight-M" d="M230,256 l0,110" />
        <path id="right-margin-Ultralight-M" d="M300,256 l0,110" />
        <path id="left-margin-Regular-M" d="M430,256 l0,110" />
        <path id="right-margin-Regular-M" d="M500,256 l0,110" />
        <path id="left-margin-Black-M" d="M630,256 l0,110" />
        <path id="right-margin-Black-M" d="M700,256 l0,110" />
        <path id="Capline-M" d="M18,276 l800,0" />
        <path id="Baseline-M" d="M18,346 l800,0" />
        <path id="Capline-L" d="M18,476 l800,0" />
        <path id="Baseline-L" d="M18,546 l800,0" />
    </g>
    <g id="Symbols">
        <g id="Ultralight-M" transform="translate(0,200)">
            <path d="M239.642,117.798 C237.211,108.738 239.802,99.07 246.438,92.439 C256.689,82.188 273.311,82.188 283.561,92.439 C293.812,102.689 293.812,119.311 283.561,129.561 C276.931,136.198 267.264,138.79 258.204,136.361 C256.648,135.944 255.049,136.867 254.632,138.423 C254.214,139.979 255.138,141.578 256.693,141.995 C267.767,144.964 279.584,141.796 287.687,133.685 C300.215,121.158 300.215,100.842 287.686,88.314 C275.158,75.785 254.842,75.785 242.314,88.314 C234.204,96.418 231.037,108.236 234.008,119.31 C234.425,120.866 236.025,121.789 237.581,121.371 C239.137,120.954 240.059,119.354 239.642,117.798 Z M276.667,119.75 L276.667,102.25 C276.667,100.639 275.361,99.333 273.75,99.333 C272.139,99.333 270.833,100.639 270.833,102.25 L270.833,119.75 C270.833,121.361 272.139,122.667 273.75,122.667 C275.361,122.667 276.667,121.361 276.667,119.75 Z M273.75,99.333 L256.25,99.333 C254.639,99.333 253.333,100.639 253.333,102.25 C253.333,103.861 254.639,105.167 256.25,105.167 L273.75,105.167 C275.361,105.167 276.667,103.861 276.667,102.25 C276.667,100.639 275.361,99.333 273.75,99.333 Z M271.688,100.188 L242.521,129.354 C241.382,130.493 241.382,132.34 242.521,133.479 C243.66,134.618 245.507,134.618 246.646,133.479 L275.812,104.312 C276.951,103.173 276.951,101.327 275.812,100.188 C274.673,99.049 272.827,99.049 271.688,100.188 Z" />
        </g>
        <g id="Regular-M" transform="translate(0,200)">
            <path d="M439.642,117.798 C437.211,108.738 439.802,99.07 446.438,92.439 C456.689,82.188 473.311,82.188 483.561,92.439 C493.812,102.689 493.812,119.311 483.561,129.561 C476.931,136.198 467.264,138.79 458.204,136.361 C456.648,135.944 455.049,136.867 454.632,138.423 C454.214,139.979 455.138,141.578 456.693,141.995 C467.767,144.964 479.584,141.796 487.687,133.685 C500.215,121.158 500.215,100.842 487.686,88.314 C475.158,75.785 454.842,75.785 442.314,88.314 C434.204,96.418 431.037,108.236 434.008,119.31 C434.425,120.866 436.025,121.789 437.581,121.371 C439.137,120.954 440.059,119.354 439.642,117.798 Z M476.667,119.75 L476.667,102.25 C476.667,100.639 475.361,99.333 473.75,99.333 C472.139,99.333 470.833,100.639 470.833,102.25 L470.833,119.75 C470.833,121.361 472.139,122.667 473.75,122.667 C475.361,122.667 476.667,121.361 476.667,119.75 Z M473.75,99.333 L456.25,99.333 C454.639,99.333 453.333,100.639 453.333,102.25 C453.333,103.861 454.639,105.167 456.25,105.167 L473.75,105.167 C475.361,105.167 476.667,103.861 476.667,102.25 C476.667,100.639 475.361,99.333 473.75,99.333 Z M471.688,100.188 L442.521,129.354 C441.382,130.493 441.382,132.34 442.521,133.479 C443.66,134.618 445.507,134.618 446.646,133.479 L475.812,104.312 C476.951,103.173 476.951,101.327 475.812,100.188 C474.673,99.049 472.827,99.049 471.688,100.188 Z" />
        </g>
        <g id="Black-M" transform="translate(0,200)">
            <path d="M639.642,117.798 C637.211,108.738 639.802,99.07 646.438,92.439 C656.689,82.188 673.311,82.188 683.561,92.439 C693.812,102.689 693.812,119.311 683.561,129.561 C676.931,136.198 667.264,138.79 658.204,136.361 C656.648,135.944 655.049,136.867 654.632,138.423 C654.214,139.979 655.138,141.578 656.693,141.995 C667.767,144.964 679.584,141.796 687.687,133.685 C700.215,121.158 700.215,100.842 687.686,88.314 C675.158,75.785 654.842,75.785 642.314,88.314 C634.204,96.418 631.037,108.236 634.008,119.31 C634.425,120.866 636.025,121.789 637.581,121.371 C639.137,120.954 640.059,119.354 639.642,117.798 Z M676.667,119.75 L676.667,102.25 C676.667,100.639 675.361,99.333 673.75,99.333 C672.139,99.333 670.833,100.639 670.833,102.25 L670.833,119.75 C670.833,121.361 672.139,122.667 673.75,122.667 C675.361,122.667 676.667,121.361 676.667,119.75 Z M673.75,99.333 L656.25,99.333 C654.639,99.333 653.333,100.639 653.333,102.25 C653.333,103.861 654.639,105.167 656.25,105.167 L673.75,105.167 C675.361,105.167 676.667,103.861 676.667,102.25 C676.667,100.639 675.361,99.333 673.75,99.333 Z M671.688,100.188 L642.521,129.354 C641.382,130.493 641.382,132.34 642.521,133.479 C643.66,134.618 645.507,134.618 646.646,133.479 L675.812,104.312 C676.951,103.173 676.951,101.327 675.812,100.188 C674.673,99.049 672.827,99.049 671.688,100.188 Z" />
        </g>
    </g>
</svg>