<?xml version="1.0" encoding="UTF-8"?>
<svg height="600" width="800" xmlns="http://www.w3.org/2000/svg" xmlns:xlink="http://www.w3.org/1999/xlink">
    <g id="Notes" font-family="LucidaGrande, 'Lucida Grande', sans-serif" font-size="13">
        <rect fill="white" height="600.0" width="800.0" x="0.0" y="0.0" />
        <g font-size="13">
            <text x="18.0" y="176.0">Small</text>
            <text x="18.0" y="376.0">Medium</text>
            <text x="18.0" y="576.0">Large</text>
        </g>
        <g font-size="9">
            <text x="250.0" y="30.0">Ultralight</text>
            <text x="450.0" y="30.0">Regular</text>
            <text x="650.0" y="30.0">Black</text>
            <text id="template-version" fill="#505050" text-anchor="end" x="785.0" y="575.0">Template v.3.0</text>
            <a href="https://github.com/swhitty/SwiftDraw">
                <text fill="#505050" text-anchor="end" x="785.0" y="590.0">https://github.com/swhitty/SwiftDraw</text>
            </a>
        </g>
    </g>
    <g id="Guides" stroke="rgb(39, 170, 225)" stroke-width="0.5">
        <path id="Capline-S" d="M18,76 l800,0" />
        <path id="H-reference" d="M85,145.755 L87.685,145.755 L113.369,79.287 L114.052,79.287 L114.052,76 L112.148,76 L85,145.755 Z M95.693,121.536 L130.996,121.536 L130.263,119.313 L96.474,119.313 L95.693,121.536 Z M139.15,145.755 L141.787,145.755 L114.638,76 L113.466,76 L113.466,79.287 L139.15,145.755 Z" stroke="none" transform="translate(0,200)" />
        <path id="Baseline-S" d="M18,146 l800,0" />
        <path id="left-margin-Ultralight-M" d="M230,256 l0,110" />
        <path id="right-margin-Ultralight-M" d="M300,256 l0,110" />
        <path id="left-margin-Regular-M" d="M430,256 l0,110" />
        <path id="right-margin-Regular-M" d="M500,256 l0,110" />
        <path id="left-margin-Black-M" d="M630,256 l0,110" />
        <path id="right-margin-Black-M" d="M700,256 l0,110" />
        <path id="Capline-M" d="M18,276 l800,0" />
        <path id="Baseline-M" d="M18,346 l800,0" />
        <path id="Capline-L" d="M18,476 l800,0" />
        <path id="Baseline-L" d="M18,546 l800,0" />
    </g>
    <g id="Symbols">
        <g id="Ultralight-M" transform="translate(0,200)">
            <path d="M261.111,79.889 L261.111,142.111 C261.111,144.259 262.852,146 265,146 C267.148,146 268.889,144.259 268.889,142.111 L268.889,79.889 C268.889,77.741 267.148,76 265,76 C262.852,76 261.111,77.741 261.111,79.889 Z M285.583,84.917 L238.917,131.583 C237.398,133.102 237.398,135.564 238.917,137.083 C240.436,138.602 242.898,138.602 244.417,137.083 L291.083,90.417 C292.602,88.898 292.602,86.436 291.083,84.917 C289.564,83.398 287.102,83.398 285.583,84.917 Z M296.111,107.111 L233.889,107.111 C231.741,107.111 230,108.852 230,111 C230,113.148 231.741,114.889 233.889,114.889 L296.111,114.889 C298.259,114.889 300,113.148 300,111 C300,108.852 298.259,107.111 296.111,107.111 Z M291.083,131.583 L244.417,84.917 C242.898,83.398 240.436,83.398 238.917,84.917 C237.398,86.436 237.398,88.898 238.917,90.417 L285.583,137.083 C287.102,138.602 289.564,138.602 291.083,137.083 C292.602,135.564 292.602,133.102 291.083,131.583 Z" />
        </g>
        <g id="Regular-M" transform="translate(0,200)">
            <path d="M461.111,79.889 L461.111,142.111 C461.111,144.259 462.852,146 465,146 C467.148,146 468.889,144.259 468.889,142.111 L468.889,79.889 C468.889,77.741 467.148,76 465,76 C462.852,76 461.111,77.741 461.111,79.889 Z M485.583,84.917 L438.917,131.583 C437.398,133.102 437.398,135.564 438.917,137.083 C440.436,138.602 442.898,138.602 444.417,137.083 L491.083,90.417 C492.602,88.898 492.602,86.436 491.083,84.917 C489.564,83.398 487.102,83.398 485.583,84.917 Z M496.111,107.111 L433.889,107.111 C431.741,107.111 430,108.852 430,111 C430,113.148 431.741,114.889 433.889,114.889 L496.111,114.889 C498.259,114.889 500,113.148 500,111 C500,108.852 498.259,107.111 496.111,107.111 Z M491.083,131.583 L444.417,84.917 C442.898,83.398 440.436,83.398 438.917,84.917 C437.398,86.436 437.398,88.898 438.917,90.417 L485.583,137.083 C487.102,138.602 489.564,138.602 491.083,137.083 C492.602,135.564 492.602,133.102 491.083,131.583 Z" />
        </g>
        <g id="Black-M" transform="translate(0,200)">
            <path d="M661.111,79.889 L661.111,142.111 C661.111,144.259 662.852,146 665,146 C667.148,146 668.889,144.259 668.889,142.111 L668.889,79.889 C668.889,77.741 667.148,76 665,76 C662.852,76 661.111,77.741 661.111,79.889 Z M685.583,84.917 L638.917,131.583 C637.398,133.102 637.398,135.564 638.917,137.083 C640.435,138.602 642.898,138.602 644.417,137.083 L691.083,90.417 C692.602,88.898 692.602,86.436 691.083,84.917 C689.564,83.398 687.102,83.398 685.583,84.917 Z M696.111,107.111 L633.889,107.111 C631.741,107.111 630,108.852 630,111 C630,113.148 631.741,114.889 633.889,114.889 L696.111,114.889 C698.259,114.889 700,113.148 700,111 C700,108.852 698.259,107.111 696.111,107.111 Z M691.083,131.583 L644.417,84.917 C642.898,83.398 640.435,83.398 638.917,84.917 C637.398,86.436 637.398,88.898 638.917,90.417 L685.583,137.083 C687.102,138.602 689.564,138.602 691.083,137.083 C692.602,135.564 692.602,133.102 691.083,131.583 Z" />
        </g>
    </g>
</svg>