<?xml version="1.0" encoding="UTF-8"?>
<svg height="600" width="800" xmlns="http://www.w3.org/2000/svg" xmlns:xlink="http://www.w3.org/1999/xlink">
    <g id="Notes" font-family="LucidaGrande, 'Lucida Grande', sans-serif" font-size="13">
        <rect fill="white" height="600.0" width="800.0" x="0.0" y="0.0" />
        <g font-size="13">
            <text x="18.0" y="176.0">Small</text>
            <text x="18.0" y="376.0">Medium</text>
            <text x="18.0" y="576.0">Large</text>
        </g>
        <g font-size="9">
            <text x="250.0" y="30.0">Ultralight</text>
            <text x="450.0" y="30.0">Regular</text>
            <text x="650.0" y="30.0">Black</text>
            <text id="template-version" fill="#505050" text-anchor="end" x="785.0" y="575.0">Template v.3.0</text>
            <a href="https://github.com/swhitty/SwiftDraw">
                <text fill="#505050" text-anchor="end" x="785.0" y="590.0">https://github.com/swhitty/SwiftDraw</text>
            </a>
        </g>
    </g>
    <g id="Guides" stroke="rgb(39, 170, 225)" stroke-width="0.5">
        <path id="Capline-S" d="M18,76 l800,0" />
        <path id="H-reference" d="M85,145.755 L87.685,145.755 L113.369,79.287 L114.052,79.287 L114.052,76 L112.148,76 L85,145.755 Z M95.693,121.536 L130.996,121.536 L130.263,119.313 L96.474,119.313 L95.693,121.536 Z M139.15,145.755 L141.787,145.755 L114.638,76 L113.466,76 L113.466,79.287 L139.15,145.755 Z" stroke="none" transform="translate(0,200)" />
        <path id="Baseline-S" d="M18,146 l800,0" />
        <path id="left-margin-Ultralight-M" d="M230,256 l0,110" />
        <path id="right-margin-Ultralight-M" d="M300,256 l0,110" />
        <path id="left-margin-Regular-M" d="M430,256 l0,110" />
        <path id="right-margin-Regular-M" d="M500,256 l0,110" />
        <path id="left-margin-Black-M" d="M630,256 l0,110" />
        <path id="right-margin-Black-M" d="M700,256 l0,110" />
        <path id="Capline-M" d="M18,276 l800,0" />
        <path id="Baseline-M" d="M18,346 l800,0" />
        <path id="Capline-L" d="M18,476 l800,0" />
        <path id="Baseline-L" d="M18,546 l800,0" />
    </g>
    <g id="Symbols">
        <g id="Ultralight-M" transform="translate(0,200)">
            <path d="M250.346,118.555 L247.525,139.783 C247.204,142.204 249.823,143.924 251.917,142.668 L265.299,134.638 C265.514,134.509 265.544,134.494 265.294,134.547 C265.106,134.588 264.894,134.588 264.688,134.543 C264.666,134.538 264.666,134.538 264.627,134.528 C264.425,134.476 264.475,134.502 264.701,134.638 L278.083,142.668 C280.177,143.924 282.796,142.204 282.475,139.783 L279.657,118.553 C279.445,116.956 277.979,115.833 276.382,116.045 C274.785,116.257 273.663,117.723 273.875,119.32 L276.692,140.55 L281.084,137.666 L267.702,129.636 C266.89,129.149 266.666,129.03 266.085,128.88 C266.002,128.859 266.002,128.859 265.918,128.841 C265.319,128.71 264.681,128.71 264.064,128.845 C263.424,128.981 263.176,129.109 262.298,129.636 L248.916,137.666 L253.308,140.551 L256.128,119.323 C256.341,117.727 255.218,116.26 253.621,116.048 C252.024,115.836 250.558,116.958 250.346,118.555 Z M282.5,102.25 C282.5,111.915 274.665,119.75 265,119.75 C255.335,119.75 247.5,111.915 247.5,102.25 C247.5,92.585 255.335,84.75 265,84.75 C274.665,84.75 282.5,92.585 282.5,102.25 Z M288.333,102.25 C288.333,89.363 277.887,78.917 265,78.917 C252.113,78.917 241.667,89.363 241.667,102.25 C241.667,115.137 252.113,125.583 265,125.583 C277.887,125.583 288.333,115.137 288.333,102.25 Z" />
        </g>
        <g id="Regular-M" transform="translate(0,200)">
            <path d="M450.346,118.555 L447.525,139.783 C447.204,142.204 449.823,143.924 451.917,142.668 L465.299,134.638 C465.514,134.509 465.544,134.494 465.294,134.547 C465.106,134.588 464.894,134.588 464.688,134.543 C464.666,134.538 464.666,134.538 464.627,134.528 C464.425,134.476 464.475,134.502 464.701,134.638 L478.083,142.668 C480.177,143.924 482.796,142.204 482.475,139.783 L479.657,118.553 C479.445,116.956 477.979,115.833 476.382,116.045 C474.785,116.257 473.663,117.723 473.875,119.32 L476.692,140.55 L481.084,137.666 L467.702,129.636 C466.89,129.149 466.666,129.03 466.085,128.88 C466.002,128.859 466.002,128.859 465.918,128.841 C465.319,128.71 464.681,128.71 464.064,128.845 C463.424,128.981 463.176,129.109 462.298,129.636 L448.916,137.666 L453.308,140.551 L456.128,119.323 C456.341,117.727 455.218,116.26 453.621,116.048 C452.024,115.836 450.558,116.958 450.346,118.555 Z M482.5,102.25 C482.5,111.915 474.665,119.75 465,119.75 C455.335,119.75 447.5,111.915 447.5,102.25 C447.5,92.585 455.335,84.75 465,84.75 C474.665,84.75 482.5,92.585 482.5,102.25 Z M488.333,102.25 C488.333,89.363 477.887,78.917 465,78.917 C452.113,78.917 441.667,89.363 441.667,102.25 C441.667,115.137 452.113,125.583 465,125.583 C477.887,125.583 488.333,115.137 488.333,102.25 Z" />
        </g>
        <g id="Black-M" transform="translate(0,200)">
            <path d="M650.346,118.555 L647.525,139.783 C647.204,142.204 649.823,143.924 651.917,142.668 L665.299,134.638 C665.514,134.509 665.544,134.494 665.294,134.547 C665.106,134.588 664.894,134.588 664.688,134.543 C664.666,134.538 664.666,134.538 664.627,134.528 C664.425,134.476 664.475,134.502 664.701,134.638 L678.083,142.668 C680.177,143.924 682.796,142.204 682.475,139.783 L679.657,118.553 C679.445,116.956 677.979,115.833 676.382,116.045 C674.785,116.257 673.663,117.723 673.875,119.32 L676.692,140.55 L681.084,137.666 L667.702,129.636 C666.89,129.149 666.666,129.03 666.085,128.88 C666.002,128.859 666.002,128.859 665.918,128.841 C665.319,128.71 664.681,128.71 664.064,128.845 C663.424,128.981 663.176,129.109 662.298,129.636 L648.916,137.666 L653.308,140.551 L656.128,119.323 C656.341,117.727 655.218,116.26 653.621,116.048 C652.024,115.836 650.558,116.958 650.346,118.555 Z M682.5,102.25 C682.5,111.915 674.665,119.75 665,119.75 C655.335,119.75 647.5,111.915 647.5,102.25 C647.5,92.585 655.335,84.75 665,84.75 C674.665,84.75 682.5,92.585 682.5,102.25 Z M688.333,102.25 C688.333,89.363 677.887,78.917 665,78.917 C652.113,78.917 641.667,89.363 641.667,102.25 C641.667,115.137 652.113,125.583 665,125.583 C677.887,125.583 688.333,115.137 688.333,102.25 Z" />
        </g>
    </g>
</svg>