<?xml version="1.0" encoding="UTF-8"?>
<svg height="600" width="800" xmlns="http://www.w3.org/2000/svg" xmlns:xlink="http://www.w3.org/1999/xlink">
    <g id="Notes" font-family="LucidaGrande, 'Lucida Grande', sans-serif" font-size="13">
        <rect fill="white" height="600.0" width="800.0" x="0.0" y="0.0" />
        <g font-size="13">
            <text x="18.0" y="176.0">Small</text>
            <text x="18.0" y="376.0">Medium</text>
            <text x="18.0" y="576.0">Large</text>
        </g>
        <g font-size="9">
            <text x="250.0" y="30.0">Ultralight</text>
            <text x="450.0" y="30.0">Regular</text>
            <text x="650.0" y="30.0">Black</text>
            <text id="template-version" fill="#505050" text-anchor="end" x="785.0" y="575.0">Template v.3.0</text>
            <a href="https://github.com/swhitty/SwiftDraw">
                <text fill="#505050" text-anchor="end" x="785.0" y="590.0">https://github.com/swhitty/SwiftDraw</text>
            </a>
        </g>
    </g>
    <g id="Guides" stroke="rgb(39, 170, 225)" stroke-width="0.5">
        <path id="Capline-S" d="M18,76 l800,0" />
        <path id="H-reference" d="M85,145.755 L87.685,145.755 L113.369,79.287 L114.052,79.287 L114.052,76 L112.148,76 L85,145.755 Z M95.693,121.536 L130.996,121.536 L130.263,119.313 L96.474,119.313 L95.693,121.536 Z M139.15,145.755 L141.787,145.755 L114.638,76 L113.466,76 L113.466,79.287 L139.15,145.755 Z" stroke="none" transform="translate(0,200)" />
        <path id="Baseline-S" d="M18,146 l800,0" />
        <path id="left-margin-Ultralight-M" d="M237.955,256 l0,110" />
        <path id="right-margin-Ultralight-M" d="M292.045,256 l0,110" />
        <path id="left-margin-Regular-M" d="M437.955,256 l0,110" />
        <path id="right-margin-Regular-M" d="M492.045,256 l0,110" />
        <path id="left-margin-Black-M" d="M637.955,256 l0,110" />
        <path id="right-margin-Black-M" d="M692.045,256 l0,110" />
        <path id="Capline-M" d="M18,276 l800,0" />
        <path id="Baseline-M" d="M18,346 l800,0" />
        <path id="Capline-L" d="M18,476 l800,0" />
        <path id="Baseline-L" d="M18,546 l800,0" />
    </g>
    <g id="Symbols">
        <g id="Ultralight-M" transform="translate(0,200)">
            <path d="M248.702,121.59 L245.937,142.399 C245.586,145.041 248.444,146.918 250.729,145.547 L265.326,136.787 C265.561,136.646 265.593,136.63 265.321,136.687 C265.116,136.732 264.884,136.732 264.659,136.683 C264.635,136.678 264.635,136.678 264.593,136.667 C264.373,136.61 264.427,136.639 264.674,136.787 L279.271,145.547 C281.556,146.917 284.413,145.041 284.062,142.4 L281.301,121.581 C281.07,119.839 279.47,118.615 277.728,118.846 C275.986,119.077 274.762,120.676 274.993,122.418 L277.754,143.237 L282.545,140.09 L267.948,131.331 C267.062,130.799 266.817,130.669 266.183,130.506 C266.093,130.483 266.093,130.483 266.002,130.463 C265.348,130.32 264.652,130.32 263.979,130.467 C263.281,130.615 263.011,130.755 262.052,131.33 L247.454,140.09 L252.245,143.237 L255.01,122.429 C255.242,120.687 254.017,119.087 252.275,118.855 C250.534,118.624 248.934,119.848 248.702,121.59 Z M276.141,87.553 C276.954,89.522 278.516,91.087 280.486,91.903 L284.651,93.628 C285.502,93.98 285.906,94.957 285.554,95.809 L283.83,99.97 C283.012,101.938 283.012,104.154 283.831,106.125 L285.555,110.282 C285.724,110.69 285.724,111.15 285.554,111.56 C285.384,111.969 285.059,112.294 284.649,112.464 L280.486,114.189 C278.521,115 276.956,116.563 276.14,118.532 L274.415,122.698 C274.245,123.107 273.921,123.432 273.512,123.602 C273.103,123.771 272.644,123.771 272.235,123.601 L268.073,121.876 C266.105,121.062 263.895,121.062 261.929,121.876 L257.761,123.6 C256.911,123.952 255.937,123.548 255.584,122.699 L253.861,118.534 C253.047,116.567 251.485,115.003 249.519,114.187 L245.348,112.461 C244.498,112.109 244.094,111.134 244.446,110.283 L246.17,106.122 C246.985,104.153 246.985,101.942 246.17,99.974 L244.446,95.807 C244.094,94.954 244.499,93.978 245.351,93.625 L249.512,91.899 C251.475,91.091 253.038,89.53 253.856,87.563 L255.584,83.396 C255.937,82.543 256.912,82.139 257.763,82.492 L261.924,84.216 C263.899,85.029 266.106,85.028 268.073,84.213 L272.235,82.497 C273.088,82.145 274.063,82.549 274.416,83.4 L276.143,87.566 C277.476,90.782 282.264,89.829 282.264,86.348 L282.264,86.339 L279.082,86.339 L276.141,87.553 Z M282.023,85.124 C280.694,81.904 275.9,82.855 275.9,86.339 L275.9,86.348 L279.082,86.348 L282.021,85.13 L280.294,80.962 C278.594,76.869 273.905,74.924 269.81,76.614 L265.642,78.332 C265.226,78.504 264.766,78.504 264.353,78.334 L260.198,76.612 C256.1,74.916 251.403,76.862 249.706,80.959 L247.979,85.123 C247.81,85.53 247.488,85.851 247.081,86.018 L242.916,87.746 C238.818,89.442 236.87,94.14 238.566,98.239 L240.291,102.408 C240.461,102.818 240.461,103.278 240.291,103.687 L238.567,107.848 C236.87,111.947 238.816,116.644 242.914,118.341 L247.083,120.065 C247.488,120.234 247.812,120.558 247.981,120.967 L249.705,125.135 C251.406,129.231 256.098,131.174 260.193,129.48 L264.361,127.756 C264.77,127.587 265.23,127.587 265.639,127.756 L269.799,129.48 C271.766,130.296 273.978,130.296 275.947,129.481 C277.916,128.665 279.48,127.101 280.294,125.132 L282.019,120.968 C282.187,120.561 282.511,120.238 282.918,120.07 L287.083,118.343 C289.051,117.53 290.617,115.965 291.433,113.996 C292.249,112.027 292.249,109.814 291.433,107.845 L289.708,103.685 C289.538,103.275 289.538,102.817 289.707,102.409 L291.433,98.244 C293.13,94.145 291.184,89.448 287.087,87.749 L282.921,86.024 C282.514,85.855 282.191,85.532 282.023,85.124 Z" />
        </g>
        <g id="Regular-M" transform="translate(0,200)">
            <path d="M448.702,121.59 L445.937,142.399 C445.586,145.041 448.444,146.918 450.728,145.547 L465.326,136.787 C465.561,136.646 465.593,136.63 465.321,136.687 C465.116,136.732 464.884,136.732 464.659,136.683 C464.635,136.678 464.635,136.678 464.593,136.667 C464.373,136.61 464.427,136.639 464.674,136.787 L479.271,145.547 C481.556,146.917 484.413,145.041 484.062,142.4 L481.301,121.581 C481.07,119.839 479.47,118.615 477.728,118.846 C475.986,119.077 474.762,120.676 474.993,122.418 L477.754,143.237 L482.545,140.09 L467.948,131.331 C467.062,130.799 466.817,130.669 466.183,130.506 C466.093,130.483 466.093,130.483 466.002,130.463 C465.348,130.32 464.651,130.32 463.979,130.467 C463.281,130.615 463.011,130.755 462.052,131.33 L447.454,140.09 L452.245,143.237 L455.01,122.429 C455.242,120.687 454.017,119.087 452.275,118.855 C450.534,118.624 448.934,119.848 448.702,121.59 Z M476.141,87.553 C476.954,89.522 478.516,91.087 480.486,91.903 L484.651,93.628 C485.502,93.98 485.906,94.957 485.554,95.809 L483.83,99.97 C483.012,101.938 483.012,104.154 483.831,106.125 L485.555,110.282 C485.724,110.69 485.724,111.15 485.554,111.56 C485.384,111.969 485.059,112.294 484.649,112.464 L480.486,114.189 C478.521,115 476.956,116.563 476.14,118.532 L474.415,122.698 C474.245,123.107 473.921,123.432 473.512,123.602 C473.103,123.771 472.644,123.771 472.235,123.601 L468.073,121.876 C466.104,121.062 463.895,121.062 461.929,121.876 L457.761,123.6 C456.911,123.952 455.937,123.548 455.584,122.699 L453.861,118.534 C453.047,116.567 451.485,115.003 449.519,114.187 L445.348,112.461 C444.498,112.109 444.094,111.134 444.446,110.283 L446.17,106.122 C446.985,104.153 446.985,101.942 446.17,99.974 L444.446,95.807 C444.094,94.954 444.499,93.978 445.351,93.625 L449.512,91.899 C451.475,91.091 453.038,89.53 453.856,87.563 L455.584,83.396 C455.937,82.543 456.912,82.139 457.763,82.492 L461.924,84.216 C463.899,85.029 466.106,85.028 468.073,84.213 L472.235,82.497 C473.088,82.145 474.063,82.549 474.416,83.4 L476.143,87.566 C477.476,90.782 482.264,89.829 482.264,86.348 L482.264,86.339 L479.082,86.339 L476.141,87.553 Z M482.023,85.124 C480.694,81.904 475.9,82.855 475.9,86.339 L475.9,86.348 L479.082,86.348 L482.021,85.13 L480.294,80.962 C478.594,76.869 473.905,74.924 469.81,76.614 L465.642,78.332 C465.226,78.504 464.766,78.504 464.353,78.334 L460.198,76.612 C456.1,74.916 451.403,76.862 449.706,80.959 L447.979,85.123 C447.81,85.53 447.488,85.851 447.081,86.018 L442.916,87.746 C438.818,89.442 436.87,94.14 438.566,98.239 L440.291,102.408 C440.461,102.818 440.461,103.278 440.291,103.687 L438.567,107.848 C436.87,111.947 438.816,116.644 442.914,118.341 L447.083,120.065 C447.488,120.234 447.812,120.558 447.981,120.967 L449.705,125.135 C451.406,129.231 456.098,131.174 460.193,129.48 L464.361,127.756 C464.77,127.587 465.23,127.587 465.638,127.756 L469.799,129.48 C471.766,130.296 473.978,130.296 475.947,129.481 C477.916,128.665 479.48,127.101 480.294,125.132 L482.019,120.968 C482.187,120.561 482.511,120.238 482.918,120.07 L487.083,118.343 C489.051,117.53 490.617,115.965 491.433,113.996 C492.249,112.027 492.249,109.814 491.433,107.845 L489.708,103.685 C489.538,103.275 489.538,102.817 489.707,102.409 L491.433,98.244 C493.13,94.145 491.184,89.448 487.087,87.749 L482.921,86.024 C482.514,85.855 482.191,85.532 482.023,85.124 Z" />
        </g>
        <g id="Black-M" transform="translate(0,200)">
            <path d="M648.702,121.59 L645.937,142.399 C645.586,145.041 648.444,146.918 650.729,145.547 L665.326,136.787 C665.561,136.646 665.593,136.63 665.321,136.687 C665.116,136.732 664.884,136.732 664.659,136.683 C664.635,136.678 664.635,136.678 664.593,136.667 C664.373,136.61 664.427,136.639 664.674,136.787 L679.271,145.547 C681.556,146.917 684.413,145.041 684.062,142.4 L681.301,121.581 C681.07,119.839 679.47,118.615 677.728,118.846 C675.986,119.077 674.762,120.676 674.993,122.418 L677.754,143.237 L682.545,140.09 L667.948,131.331 C667.062,130.799 666.817,130.669 666.183,130.506 C666.093,130.483 666.093,130.483 666.002,130.463 C665.348,130.32 664.651,130.32 663.979,130.467 C663.281,130.615 663.011,130.755 662.052,131.33 L647.454,140.09 L652.245,143.237 L655.01,122.429 C655.242,120.687 654.017,119.087 652.275,118.855 C650.534,118.624 648.934,119.848 648.702,121.59 Z M676.141,87.553 C676.954,89.522 678.516,91.087 680.486,91.903 L684.651,93.628 C685.502,93.98 685.906,94.957 685.554,95.809 L683.83,99.97 C683.012,101.938 683.012,104.154 683.831,106.125 L685.555,110.282 C685.724,110.69 685.724,111.15 685.554,111.56 C685.384,111.969 685.059,112.294 684.649,112.464 L680.486,114.189 C678.521,115 676.956,116.563 676.14,118.532 L674.415,122.698 C674.245,123.107 673.921,123.432 673.512,123.602 C673.103,123.771 672.644,123.771 672.235,123.601 L668.073,121.876 C666.104,121.062 663.895,121.062 661.929,121.876 L657.761,123.6 C656.911,123.952 655.937,123.548 655.584,122.699 L653.861,118.534 C653.047,116.567 651.485,115.003 649.519,114.187 L645.348,112.461 C644.498,112.109 644.094,111.134 644.446,110.283 L646.17,106.122 C646.985,104.153 646.985,101.942 646.17,99.974 L644.446,95.807 C644.094,94.954 644.499,93.978 645.351,93.625 L649.512,91.899 C651.475,91.091 653.038,89.53 653.856,87.563 L655.584,83.396 C655.937,82.543 656.912,82.139 657.763,82.492 L661.924,84.216 C663.899,85.029 666.106,85.028 668.073,84.213 L672.235,82.497 C673.088,82.145 674.063,82.549 674.416,83.4 L676.143,87.566 C677.476,90.782 682.264,89.829 682.264,86.348 L682.264,86.339 L679.082,86.339 L676.141,87.553 Z M682.023,85.124 C680.694,81.904 675.9,82.855 675.9,86.339 L675.9,86.348 L679.082,86.348 L682.021,85.13 L680.294,80.962 C678.594,76.869 673.905,74.924 669.81,76.614 L665.642,78.332 C665.226,78.504 664.766,78.504 664.353,78.334 L660.198,76.612 C656.1,74.916 651.403,76.862 649.706,80.959 L647.979,85.123 C647.81,85.53 647.488,85.851 647.081,86.018 L642.916,87.746 C638.818,89.442 636.87,94.14 638.566,98.239 L640.291,102.408 C640.461,102.818 640.461,103.278 640.291,103.687 L638.567,107.848 C636.87,111.947 638.816,116.644 642.914,118.341 L647.083,120.065 C647.488,120.234 647.812,120.558 647.981,120.967 L649.705,125.135 C651.406,129.231 656.098,131.174 660.193,129.48 L664.361,127.756 C664.77,127.587 665.23,127.587 665.638,127.756 L669.799,129.48 C671.766,130.296 673.978,130.296 675.947,129.481 C677.916,128.665 679.48,127.101 680.294,125.132 L682.019,120.968 C682.187,120.561 682.511,120.238 682.918,120.07 L687.083,118.343 C689.051,117.53 690.617,115.965 691.433,113.996 C692.249,112.027 692.249,109.814 691.433,107.845 L689.708,103.685 C689.538,103.275 689.538,102.817 689.707,102.409 L691.433,98.244 C693.13,94.145 691.184,89.448 687.087,87.749 L682.921,86.024 C682.514,85.855 682.191,85.532 682.023,85.124 Z" />
        </g>
    </g>
</svg>