<?xml version="1.0" encoding="UTF-8"?>
<svg height="600" width="800" xmlns="http://www.w3.org/2000/svg" xmlns:xlink="http://www.w3.org/1999/xlink">
    <g id="Notes" font-family="LucidaGrande, 'Lucida Grande', sans-serif" font-size="13">
        <rect fill="white" height="600.0" width="800.0" x="0.0" y="0.0" />
        <g font-size="13">
            <text x="18.0" y="176.0">Small</text>
            <text x="18.0" y="376.0">Medium</text>
            <text x="18.0" y="576.0">Large</text>
        </g>
        <g font-size="9">
            <text x="250.0" y="30.0">Ultralight</text>
            <text x="450.0" y="30.0">Regular</text>
            <text x="650.0" y="30.0">Black</text>
            <text id="template-version" fill="#505050" text-anchor="end" x="785.0" y="575.0">Template v.3.0</text>
            <a href="https://github.com/swhitty/SwiftDraw">
                <text fill="#505050" text-anchor="end" x="785.0" y="590.0">https://github.com/swhitty/SwiftDraw</text>
            </a>
        </g>
    </g>
    <g id="Guides" stroke="rgb(39, 170, 225)" stroke-width="0.5">
        <path id="Capline-S" d="M18,76 l800,0" />
        <path id="H-reference" d="M85,145.755 L87.685,145.755 L113.369,79.287 L114.052,79.287 L114.052,76 L112.148,76 L85,145.755 Z M95.693,121.536 L130.996,121.536 L130.263,119.313 L96.474,119.313 L95.693,121.536 Z M139.15,145.755 L141.787,145.755 L114.638,76 L113.466,76 L113.466,79.287 L139.15,145.755 Z" stroke="none" transform="translate(0,200)" />
        <path id="Baseline-S" d="M18,146 l800,0" />
        <path id="left-margin-Ultralight-M" d="M230,256 l0,110" />
        <path id="right-margin-Ultralight-M" d="M300,256 l0,110" />
        <path id="left-margin-Regular-M" d="M430,256 l0,110" />
        <path id="right-margin-Regular-M" d="M500,256 l0,110" />
        <path id="left-margin-Black-M" d="M630,256 l0,110" />
        <path id="right-margin-Black-M" d="M700,256 l0,110" />
        <path id="Capline-M" d="M18,276 l800,0" />
        <path id="Baseline-M" d="M18,346 l800,0" />
        <path id="Capline-L" d="M18,476 l800,0" />
        <path id="Baseline-L" d="M18,546 l800,0" />
    </g>
    <g id="Symbols">
        <g id="Ultralight-M" transform="translate(0,200)">
            <path d="M242.727,107.113 L242.727,122.669 C242.727,124.817 244.152,126.558 245.909,126.558 C247.666,126.558 249.091,124.817 249.091,122.669 L249.091,107.113 C249.091,104.965 247.666,103.224 245.909,103.224 C244.152,103.224 242.727,104.965 242.727,107.113 Z M280.909,99.335 L280.909,114.891 C280.909,117.039 282.334,118.78 284.091,118.78 C285.848,118.78 287.273,117.039 287.273,114.891 L287.273,99.335 C287.273,97.187 285.848,95.446 284.091,95.446 C282.334,95.446 280.909,97.187 280.909,99.335 Z M280.909,83.778 C287.091,83.778 291.235,84.694 293.729,86.035 C293.686,86.016 293.571,85.917 293.477,85.791 C293.524,85.86 293.686,86.163 293.627,85.961 C293.647,86.028 293.64,85.994 293.635,85.945 C293.634,85.944 293.636,86.02 293.636,86.357 L293.636,128.153 C293.636,130.478 293.629,131.261 293.589,131.985 C293.563,132.468 293.538,132.613 293.635,132.41 C293.604,132.471 293.694,132.38 293.801,132.342 C293.771,132.349 292.593,132.158 289.566,131.447 C286.808,130.801 283.913,130.444 280.909,130.444 C276.546,130.444 274.142,131.163 265.257,134.505 C258.214,137.154 254.063,138.222 249.091,138.222 C242.909,138.222 238.765,137.306 236.271,135.965 C236.24,135.948 236.24,135.948 236.221,135.937 C236.228,135.94 236.228,135.94 236.275,135.971 C236.387,136.047 236.436,136.095 236.372,136.02 C236.424,136.076 236.339,135.917 236.276,135.744 C236.352,135.968 236.359,136.005 236.365,136.056 C236.366,136.06 236.364,135.984 236.364,135.647 L236.364,93.851 C236.364,91.526 236.371,90.743 236.411,90.018 C236.437,89.536 236.462,89.391 236.365,89.594 C236.397,89.532 236.306,89.624 236.197,89.663 C236.229,89.655 237.407,89.846 240.434,90.557 C243.203,91.201 246.091,91.556 249.091,91.556 C253.454,91.556 255.858,90.837 264.743,87.495 C271.786,84.846 275.937,83.778 280.909,83.778 Z M280.909,76 C275.143,76 270.477,77.201 262.871,80.061 C254.693,83.137 252.55,83.778 249.091,83.778 C246.504,83.778 244.013,83.472 241.629,82.917 C236.469,81.705 235.805,81.597 234.259,82.257 C232.843,82.756 231.527,84.086 230.781,85.871 C230.047,87.404 230,88.263 230,93.851 L230,135.647 C230,136.357 230.007,136.643 230.062,137.122 C230.121,137.645 230.226,138.141 230.385,138.671 C230.805,139.842 231.257,140.688 231.808,141.433 C232.392,142.131 232.75,142.476 233.185,142.771 C233.356,142.883 233.356,142.883 233.491,142.963 C233.599,143.024 233.599,143.024 233.672,143.065 C237.073,144.894 242.079,146 249.091,146 C254.857,146 259.523,144.799 267.129,141.939 C275.307,138.863 277.45,138.222 280.909,138.222 C283.498,138.222 285.994,138.53 288.367,139.086 C293.531,140.299 294.195,140.407 295.741,139.747 C297.158,139.247 298.472,137.918 299.218,136.135 C299.953,134.6 300,133.741 300,128.153 L300,86.357 C300,85.652 299.993,85.368 299.94,84.894 C299.881,84.369 299.776,83.87 299.618,83.336 C299.348,82.402 298.627,81.055 298.02,80.352 C297.638,79.823 296.962,79.245 296.206,78.871 C292.927,77.106 287.921,76 280.909,76 Z M269.773,111.002 C269.773,114.224 267.636,116.836 265,116.836 C262.364,116.836 260.227,114.224 260.227,111.002 C260.227,107.78 262.364,105.168 265,105.168 C267.636,105.168 269.773,107.78 269.773,111.002 Z M276.136,111.002 C276.136,103.484 271.15,97.39 265,97.39 C258.85,97.39 253.864,103.484 253.864,111.002 C253.864,118.52 258.85,124.614 265,124.614 C271.15,124.614 276.136,118.52 276.136,111.002 Z" />
        </g>
        <g id="Regular-M" transform="translate(0,200)">
            <path d="M442.727,107.113 L442.727,122.669 C442.727,124.817 444.152,126.558 445.909,126.558 C447.666,126.558 449.091,124.817 449.091,122.669 L449.091,107.113 C449.091,104.965 447.666,103.224 445.909,103.224 C444.152,103.224 442.727,104.965 442.727,107.113 Z M480.909,99.335 L480.909,114.891 C480.909,117.039 482.334,118.78 484.091,118.78 C485.848,118.78 487.273,117.039 487.273,114.891 L487.273,99.335 C487.273,97.187 485.848,95.446 484.091,95.446 C482.334,95.446 480.909,97.187 480.909,99.335 Z M480.909,83.778 C487.091,83.778 491.235,84.694 493.729,86.035 C493.686,86.016 493.571,85.917 493.477,85.791 C493.524,85.86 493.686,86.163 493.627,85.961 C493.647,86.028 493.64,85.994 493.635,85.945 C493.634,85.944 493.636,86.02 493.636,86.357 L493.636,128.153 C493.636,130.478 493.629,131.261 493.589,131.985 C493.563,132.468 493.538,132.613 493.635,132.41 C493.604,132.471 493.694,132.38 493.801,132.342 C493.771,132.349 492.593,132.158 489.566,131.447 C486.808,130.801 483.913,130.444 480.909,130.444 C476.546,130.444 474.142,131.163 465.257,134.505 C458.214,137.154 454.063,138.222 449.091,138.222 C442.909,138.222 438.765,137.306 436.271,135.965 C436.24,135.948 436.24,135.948 436.221,135.937 C436.228,135.94 436.228,135.94 436.275,135.971 C436.387,136.047 436.436,136.095 436.372,136.02 C436.424,136.076 436.339,135.917 436.276,135.744 C436.352,135.968 436.359,136.005 436.365,136.056 C436.366,136.06 436.364,135.984 436.364,135.647 L436.364,93.851 C436.364,91.526 436.371,90.743 436.411,90.018 C436.437,89.536 436.462,89.391 436.365,89.594 C436.397,89.532 436.306,89.624 436.197,89.663 C436.229,89.655 437.407,89.846 440.434,90.557 C443.203,91.201 446.091,91.556 449.091,91.556 C453.454,91.556 455.858,90.837 464.743,87.495 C471.786,84.846 475.937,83.778 480.909,83.778 Z M480.909,76 C475.143,76 470.477,77.201 462.871,80.061 C454.693,83.137 452.55,83.778 449.091,83.778 C446.504,83.778 444.013,83.472 441.629,82.917 C436.469,81.705 435.805,81.597 434.259,82.257 C432.843,82.756 431.527,84.086 430.781,85.871 C430.047,87.404 430,88.263 430,93.851 L430,135.647 C430,136.357 430.007,136.643 430.062,137.122 C430.121,137.645 430.226,138.141 430.385,138.671 C430.805,139.842 431.257,140.688 431.808,141.433 C432.392,142.131 432.75,142.476 433.185,142.771 C433.356,142.883 433.356,142.883 433.491,142.963 C433.599,143.024 433.599,143.024 433.672,143.065 C437.073,144.894 442.079,146 449.091,146 C454.857,146 459.523,144.799 467.129,141.939 C475.307,138.863 477.45,138.222 480.909,138.222 C483.498,138.222 485.994,138.53 488.367,139.086 C493.531,140.299 494.195,140.407 495.741,139.747 C497.158,139.247 498.472,137.918 499.218,136.135 C499.953,134.6 500,133.741 500,128.153 L500,86.357 C500,85.652 499.993,85.368 499.94,84.894 C499.881,84.369 499.776,83.87 499.618,83.336 C499.348,82.402 498.627,81.055 498.02,80.352 C497.638,79.823 496.962,79.245 496.206,78.871 C492.927,77.106 487.921,76 480.909,76 Z M469.773,111.002 C469.773,114.224 467.636,116.836 465,116.836 C462.364,116.836 460.227,114.224 460.227,111.002 C460.227,107.78 462.364,105.168 465,105.168 C467.636,105.168 469.773,107.78 469.773,111.002 Z M476.136,111.002 C476.136,103.484 471.15,97.39 465,97.39 C458.85,97.39 453.864,103.484 453.864,111.002 C453.864,118.52 458.85,124.614 465,124.614 C471.15,124.614 476.136,118.52 476.136,111.002 Z" />
        </g>
        <g id="Black-M" transform="translate(0,200)">
            <path d="M642.727,107.113 L642.727,122.669 C642.727,124.817 644.152,126.558 645.909,126.558 C647.666,126.558 649.091,124.817 649.091,122.669 L649.091,107.113 C649.091,104.965 647.666,103.224 645.909,103.224 C644.152,103.224 642.727,104.965 642.727,107.113 Z M680.909,99.335 L680.909,114.891 C680.909,117.039 682.334,118.78 684.091,118.78 C685.848,118.78 687.273,117.039 687.273,114.891 L687.273,99.335 C687.273,97.187 685.848,95.446 684.091,95.446 C682.334,95.446 680.909,97.187 680.909,99.335 Z M680.909,83.778 C687.091,83.778 691.235,84.694 693.729,86.035 C693.686,86.016 693.571,85.917 693.477,85.791 C693.524,85.86 693.686,86.163 693.627,85.961 C693.647,86.028 693.64,85.994 693.635,85.945 C693.634,85.944 693.636,86.02 693.636,86.357 L693.636,128.153 C693.636,130.478 693.629,131.261 693.589,131.985 C693.563,132.468 693.538,132.613 693.635,132.41 C693.604,132.471 693.694,132.38 693.801,132.342 C693.771,132.349 692.593,132.158 689.566,131.447 C686.808,130.801 683.913,130.444 680.909,130.444 C676.546,130.444 674.142,131.163 665.257,134.505 C658.214,137.154 654.063,138.222 649.091,138.222 C642.909,138.222 638.765,137.306 636.271,135.965 C636.24,135.948 636.24,135.948 636.221,135.937 C636.228,135.94 636.228,135.94 636.275,135.971 C636.387,136.047 636.436,136.095 636.372,136.02 C636.424,136.076 636.339,135.917 636.276,135.744 C636.352,135.968 636.359,136.005 636.365,136.056 C636.366,136.06 636.364,135.984 636.364,135.647 L636.364,93.851 C636.364,91.526 636.371,90.743 636.411,90.018 C636.437,89.536 636.462,89.391 636.365,89.594 C636.397,89.532 636.306,89.624 636.197,89.663 C636.229,89.655 637.407,89.846 640.434,90.557 C643.203,91.201 646.091,91.556 649.091,91.556 C653.454,91.556 655.858,90.837 664.743,87.495 C671.786,84.846 675.937,83.778 680.909,83.778 Z M680.909,76 C675.143,76 670.477,77.201 662.871,80.061 C654.693,83.137 652.55,83.778 649.091,83.778 C646.504,83.778 644.013,83.472 641.629,82.917 C636.469,81.705 635.805,81.597 634.259,82.257 C632.843,82.756 631.527,84.086 630.781,85.871 C630.047,87.404 630,88.263 630,93.851 L630,135.647 C630,136.357 630.007,136.643 630.062,137.122 C630.121,137.645 630.226,138.141 630.385,138.671 C630.805,139.842 631.257,140.688 631.808,141.433 C632.392,142.131 632.75,142.476 633.185,142.771 C633.356,142.883 633.356,142.883 633.491,142.963 C633.599,143.024 633.599,143.024 633.672,143.065 C637.073,144.894 642.079,146 649.091,146 C654.857,146 659.523,144.799 667.129,141.939 C675.307,138.863 677.45,138.222 680.909,138.222 C683.497,138.222 685.994,138.53 688.367,139.086 C693.531,140.299 694.195,140.407 695.741,139.747 C697.158,139.247 698.472,137.918 699.218,136.135 C699.953,134.6 700,133.741 700,128.153 L700,86.357 C700,85.652 699.993,85.368 699.94,84.894 C699.881,84.369 699.776,83.87 699.618,83.336 C699.348,82.402 698.627,81.055 698.02,80.352 C697.638,79.823 696.962,79.245 696.206,78.871 C692.927,77.106 687.921,76 680.909,76 Z M669.773,111.002 C669.773,114.224 667.636,116.836 665,116.836 C662.364,116.836 660.227,114.224 660.227,111.002 C660.227,107.78 662.364,105.168 665,105.168 C667.636,105.168 669.773,107.78 669.773,111.002 Z M676.136,111.002 C676.136,103.484 671.15,97.39 665,97.39 C658.85,97.39 653.864,103.484 653.864,111.002 C653.864,118.52 658.85,124.614 665,124.614 C671.15,124.614 676.136,118.52 676.136,111.002 Z" />
        </g>
    </g>
</svg>