<?xml version="1.0" encoding="UTF-8"?>
<svg height="600" width="800" xmlns="http://www.w3.org/2000/svg" xmlns:xlink="http://www.w3.org/1999/xlink">
    <g id="Notes" font-family="LucidaGrande, 'Lucida Grande', sans-serif" font-size="13">
        <rect fill="white" height="600.0" width="800.0" x="0.0" y="0.0" />
        <g font-size="13">
            <text x="18.0" y="176.0">Small</text>
            <text x="18.0" y="376.0">Medium</text>
            <text x="18.0" y="576.0">Large</text>
        </g>
        <g font-size="9">
            <text x="250.0" y="30.0">Ultralight</text>
            <text x="450.0" y="30.0">Regular</text>
            <text x="650.0" y="30.0">Black</text>
            <text id="template-version" fill="#505050" text-anchor="end" x="785.0" y="575.0">Template v.3.0</text>
            <a href="https://github.com/swhitty/SwiftDraw">
                <text fill="#505050" text-anchor="end" x="785.0" y="590.0">https://github.com/swhitty/SwiftDraw</text>
            </a>
        </g>
    </g>
    <g id="Guides" stroke="rgb(39, 170, 225)" stroke-width="0.5">
        <path id="Capline-S" d="M18,76 l800,0" />
        <path id="H-reference" d="M85,145.755 L87.685,145.755 L113.369,79.287 L114.052,79.287 L114.052,76 L112.148,76 L85,145.755 Z M95.693,121.536 L130.996,121.536 L130.263,119.313 L96.474,119.313 L95.693,121.536 Z M139.15,145.755 L141.787,145.755 L114.638,76 L113.466,76 L113.466,79.287 L139.15,145.755 Z" stroke="none" transform="translate(0,200)" />
        <path id="Baseline-S" d="M18,146 l800,0" />
        <path id="left-margin-Ultralight-M" d="M221,256 l0,110" />
        <path id="right-margin-Ultralight-M" d="M309,256 l0,110" />
        <path id="left-margin-Regular-M" d="M421,256 l0,110" />
        <path id="right-margin-Regular-M" d="M509,256 l0,110" />
        <path id="left-margin-Black-M" d="M621,256 l0,110" />
        <path id="right-margin-Black-M" d="M709,256 l0,110" />
        <path id="Capline-M" d="M18,276 l800,0" />
        <path id="Baseline-M" d="M18,346 l800,0" />
        <path id="Capline-L" d="M18,476 l800,0" />
        <path id="Baseline-L" d="M18,546 l800,0" />
    </g>
    <g id="Symbols">
        <g id="Ultralight-M" transform="translate(0,200)">
            <path d="M250.333,108.906 L250.333,117.287 C250.333,118.444 251.271,119.382 252.429,119.382 C253.586,119.382 254.524,118.444 254.524,117.287 L254.524,108.906 C254.524,107.749 253.586,106.811 252.429,106.811 C251.271,106.811 250.333,107.749 250.333,108.906 Z M275.476,104.715 L275.476,113.096 C275.476,114.253 276.414,115.192 277.571,115.192 C278.729,115.192 279.667,114.253 279.667,113.096 L279.667,104.715 C279.667,103.558 278.729,102.62 277.571,102.62 C276.414,102.62 275.476,103.558 275.476,104.715 Z M275.476,96.334 C279.547,96.334 282.276,96.827 283.918,97.55 C283.89,97.54 283.814,97.487 283.752,97.419 C283.783,97.456 283.89,97.619 283.851,97.51 C283.864,97.547 283.86,97.528 283.856,97.502 C283.856,97.501 283.857,97.542 283.857,97.724 L283.857,120.241 C283.857,121.494 283.852,121.916 283.826,122.306 C283.809,122.566 283.792,122.644 283.856,122.534 C283.836,122.567 283.895,122.518 283.966,122.498 C283.946,122.502 283.17,122.399 281.177,122.016 C279.361,121.668 277.454,121.475 275.476,121.475 C272.603,121.475 271.02,121.863 265.17,123.663 C260.531,125.09 257.798,125.666 254.524,125.666 C250.453,125.666 247.724,125.172 246.082,124.45 C246.061,124.44 246.061,124.44 246.049,124.435 C246.053,124.437 246.053,124.437 246.084,124.453 C246.158,124.494 246.191,124.52 246.148,124.479 C246.183,124.509 246.127,124.424 246.085,124.331 C246.135,124.451 246.14,124.471 246.144,124.499 C246.144,124.501 246.143,124.46 246.143,124.279 L246.143,101.761 C246.143,100.508 246.148,100.087 246.174,99.696 C246.191,99.436 246.208,99.358 246.144,99.468 C246.165,99.434 246.105,99.484 246.033,99.505 C246.054,99.5 246.83,99.603 248.823,99.986 C250.647,100.333 252.548,100.525 254.524,100.525 C257.397,100.525 258.98,100.137 264.83,98.337 C269.469,96.91 272.202,96.334 275.476,96.334 Z M275.476,92.144 C271.679,92.144 268.607,92.791 263.598,94.332 C258.213,95.989 256.802,96.334 254.524,96.334 C252.82,96.334 251.18,96.169 249.61,95.871 C246.212,95.217 245.775,95.159 244.757,95.515 C243.824,95.784 242.958,96.5 242.467,97.462 C241.983,98.288 241.952,98.751 241.952,101.761 L241.952,124.279 C241.952,124.661 241.957,124.815 241.993,125.073 C242.032,125.355 242.101,125.622 242.206,125.908 C242.483,126.539 242.78,126.995 243.143,127.396 C243.527,127.772 243.763,127.957 244.05,128.117 C244.162,128.177 244.162,128.177 244.251,128.22 C244.322,128.253 244.322,128.253 244.371,128.275 C246.61,129.26 249.906,129.856 254.524,129.856 C258.321,129.856 261.393,129.209 266.402,127.668 C271.787,126.011 273.198,125.666 275.476,125.666 C277.181,125.666 278.825,125.832 280.387,126.131 C283.788,126.785 284.225,126.843 285.243,126.487 C286.176,126.218 287.041,125.502 287.533,124.541 C288.017,123.714 288.048,123.251 288.048,120.241 L288.048,97.724 C288.048,97.344 288.043,97.191 288.008,96.935 C287.969,96.652 287.9,96.384 287.796,96.096 C287.618,95.593 287.143,94.867 286.744,94.489 C286.493,94.203 286.047,93.892 285.549,93.691 C283.39,92.74 280.094,92.144 275.476,92.144 Z M268.143,111.001 C268.143,112.737 266.736,114.144 265,114.144 C263.264,114.144 261.857,112.737 261.857,111.001 C261.857,109.265 263.264,107.858 265,107.858 C266.736,107.858 268.143,109.265 268.143,111.001 Z M272.333,111.001 C272.333,106.951 269.05,103.668 265,103.668 C260.95,103.668 257.667,106.951 257.667,111.001 C257.667,115.051 260.95,118.334 265,118.334 C269.05,118.334 272.333,115.051 272.333,111.001 Z" />
        </g>
        <g id="Regular-M" transform="translate(0,200)">
            <path d="M450.333,108.906 L450.333,117.287 C450.333,118.444 451.271,119.382 452.429,119.382 C453.586,119.382 454.524,118.444 454.524,117.287 L454.524,108.906 C454.524,107.749 453.586,106.811 452.429,106.811 C451.271,106.811 450.333,107.749 450.333,108.906 Z M475.476,104.715 L475.476,113.096 C475.476,114.253 476.414,115.192 477.571,115.192 C478.729,115.192 479.667,114.253 479.667,113.096 L479.667,104.715 C479.667,103.558 478.729,102.62 477.571,102.62 C476.414,102.62 475.476,103.558 475.476,104.715 Z M475.476,96.334 C479.547,96.334 482.276,96.827 483.918,97.55 C483.89,97.54 483.814,97.487 483.752,97.419 C483.783,97.456 483.89,97.619 483.851,97.51 C483.864,97.547 483.86,97.528 483.856,97.502 C483.856,97.501 483.857,97.542 483.857,97.724 L483.857,120.241 C483.857,121.494 483.852,121.916 483.826,122.306 C483.809,122.566 483.792,122.644 483.856,122.534 C483.836,122.567 483.895,122.518 483.966,122.498 C483.946,122.502 483.17,122.399 481.177,122.016 C479.361,121.668 477.454,121.475 475.476,121.475 C472.603,121.475 471.02,121.863 465.17,123.663 C460.531,125.09 457.798,125.666 454.524,125.666 C450.453,125.666 447.724,125.172 446.082,124.45 C446.061,124.44 446.061,124.44 446.049,124.435 C446.053,124.437 446.053,124.437 446.084,124.453 C446.158,124.494 446.191,124.52 446.148,124.479 C446.183,124.509 446.127,124.424 446.085,124.331 C446.135,124.451 446.14,124.471 446.144,124.499 C446.144,124.501 446.143,124.46 446.143,124.279 L446.143,101.761 C446.143,100.508 446.148,100.087 446.174,99.696 C446.191,99.436 446.208,99.358 446.144,99.468 C446.165,99.434 446.105,99.484 446.033,99.505 C446.054,99.5 446.83,99.603 448.823,99.986 C450.647,100.333 452.548,100.525 454.524,100.525 C457.397,100.525 458.98,100.137 464.83,98.337 C469.469,96.91 472.202,96.334 475.476,96.334 Z M475.476,92.144 C471.679,92.144 468.607,92.791 463.598,94.332 C458.213,95.989 456.802,96.334 454.524,96.334 C452.82,96.334 451.18,96.169 449.61,95.871 C446.212,95.217 445.775,95.159 444.757,95.515 C443.824,95.784 442.958,96.5 442.467,97.462 C441.983,98.288 441.952,98.751 441.952,101.761 L441.952,124.279 C441.952,124.661 441.957,124.815 441.993,125.073 C442.032,125.355 442.101,125.622 442.206,125.908 C442.483,126.539 442.78,126.995 443.143,127.396 C443.527,127.772 443.763,127.957 444.05,128.117 C444.162,128.177 444.162,128.177 444.251,128.22 C444.322,128.253 444.322,128.253 444.371,128.275 C446.61,129.26 449.906,129.856 454.524,129.856 C458.321,129.856 461.393,129.209 466.402,127.668 C471.787,126.011 473.198,125.666 475.476,125.666 C477.181,125.666 478.825,125.832 480.387,126.131 C483.788,126.785 484.225,126.843 485.243,126.487 C486.176,126.218 487.041,125.502 487.533,124.541 C488.017,123.714 488.048,123.251 488.048,120.241 L488.048,97.724 C488.048,97.344 488.043,97.191 488.008,96.935 C487.969,96.652 487.9,96.384 487.796,96.096 C487.618,95.593 487.143,94.867 486.744,94.489 C486.493,94.203 486.047,93.892 485.549,93.691 C483.39,92.74 480.094,92.144 475.476,92.144 Z M468.143,111.001 C468.143,112.737 466.736,114.144 465,114.144 C463.264,114.144 461.857,112.737 461.857,111.001 C461.857,109.265 463.264,107.858 465,107.858 C466.736,107.858 468.143,109.265 468.143,111.001 Z M472.333,111.001 C472.333,106.951 469.05,103.668 465,103.668 C460.95,103.668 457.667,106.951 457.667,111.001 C457.667,115.051 460.95,118.334 465,118.334 C469.05,118.334 472.333,115.051 472.333,111.001 Z" />
        </g>
        <g id="Black-M" transform="translate(0,200)">
            <path d="M650.333,108.906 L650.333,117.287 C650.333,118.444 651.271,119.382 652.429,119.382 C653.586,119.382 654.524,118.444 654.524,117.287 L654.524,108.906 C654.524,107.749 653.586,106.811 652.429,106.811 C651.271,106.811 650.333,107.749 650.333,108.906 Z M675.476,104.715 L675.476,113.096 C675.476,114.253 676.414,115.192 677.571,115.192 C678.729,115.192 679.667,114.253 679.667,113.096 L679.667,104.715 C679.667,103.558 678.729,102.62 677.571,102.62 C676.414,102.62 675.476,103.558 675.476,104.715 Z M675.476,96.334 C679.547,96.334 682.276,96.827 683.918,97.55 C683.89,97.54 683.814,97.487 683.752,97.419 C683.783,97.456 683.89,97.619 683.851,97.51 C683.864,97.547 683.86,97.528 683.856,97.502 C683.856,97.501 683.857,97.542 683.857,97.724 L683.857,120.241 C683.857,121.494 683.852,121.916 683.826,122.306 C683.809,122.566 683.792,122.644 683.856,122.534 C683.836,122.567 683.895,122.518 683.966,122.498 C683.946,122.502 683.17,122.399 681.177,122.016 C679.361,121.668 677.454,121.475 675.476,121.475 C672.603,121.475 671.02,121.863 665.169,123.663 C660.531,125.09 657.798,125.666 654.524,125.666 C650.453,125.666 647.724,125.172 646.082,124.45 C646.061,124.44 646.061,124.44 646.049,124.435 C646.053,124.437 646.053,124.437 646.084,124.453 C646.158,124.494 646.191,124.52 646.148,124.479 C646.183,124.509 646.127,124.424 646.085,124.331 C646.135,124.451 646.14,124.471 646.144,124.499 C646.144,124.501 646.143,124.46 646.143,124.279 L646.143,101.761 C646.143,100.508 646.148,100.087 646.174,99.696 C646.191,99.436 646.208,99.358 646.144,99.468 C646.165,99.434 646.105,99.484 646.033,99.505 C646.054,99.5 646.83,99.603 648.823,99.986 C650.647,100.333 652.548,100.525 654.524,100.525 C657.397,100.525 658.98,100.137 664.83,98.337 C669.469,96.91 672.202,96.334 675.476,96.334 Z M675.476,92.144 C671.679,92.144 668.607,92.791 663.598,94.332 C658.213,95.989 656.802,96.334 654.524,96.334 C652.82,96.334 651.18,96.169 649.61,95.871 C646.212,95.217 645.775,95.159 644.757,95.515 C643.824,95.784 642.958,96.5 642.467,97.462 C641.983,98.288 641.952,98.751 641.952,101.761 L641.952,124.279 C641.952,124.661 641.957,124.815 641.993,125.073 C642.032,125.355 642.101,125.622 642.206,125.908 C642.483,126.539 642.78,126.995 643.143,127.396 C643.527,127.772 643.763,127.957 644.05,128.117 C644.162,128.177 644.162,128.177 644.251,128.22 C644.322,128.253 644.322,128.253 644.371,128.275 C646.61,129.26 649.906,129.856 654.524,129.856 C658.321,129.856 661.393,129.209 666.402,127.668 C671.787,126.011 673.198,125.666 675.476,125.666 C677.181,125.666 678.824,125.832 680.387,126.131 C683.788,126.785 684.225,126.843 685.243,126.487 C686.176,126.218 687.041,125.502 687.533,124.541 C688.017,123.714 688.048,123.251 688.048,120.241 L688.048,97.724 C688.048,97.344 688.043,97.191 688.008,96.935 C687.969,96.652 687.9,96.384 687.796,96.096 C687.618,95.593 687.143,94.867 686.744,94.489 C686.493,94.203 686.047,93.892 685.549,93.691 C683.39,92.74 680.094,92.144 675.476,92.144 Z M668.143,111.001 C668.143,112.737 666.736,114.144 665,114.144 C663.264,114.144 661.857,112.737 661.857,111.001 C661.857,109.265 663.264,107.858 665,107.858 C666.736,107.858 668.143,109.265 668.143,111.001 Z M672.333,111.001 C672.333,106.951 669.05,103.668 665,103.668 C660.95,103.668 657.667,106.951 657.667,111.001 C657.667,115.051 660.95,118.334 665,118.334 C669.05,118.334 672.333,115.051 672.333,111.001 Z" />
        </g>
    </g>
</svg>