<?xml version="1.0" encoding="UTF-8"?>
<svg height="600" width="800" xmlns="http://www.w3.org/2000/svg" xmlns:xlink="http://www.w3.org/1999/xlink">
    <g id="Notes" font-family="LucidaGrande, 'Lucida Grande', sans-serif" font-size="13">
        <rect fill="white" height="600.0" width="800.0" x="0.0" y="0.0" />
        <g font-size="13">
            <text x="18.0" y="176.0">Small</text>
            <text x="18.0" y="376.0">Medium</text>
            <text x="18.0" y="576.0">Large</text>
        </g>
        <g font-size="9">
            <text x="250.0" y="30.0">Ultralight</text>
            <text x="450.0" y="30.0">Regular</text>
            <text x="650.0" y="30.0">Black</text>
            <text id="template-version" fill="#505050" text-anchor="end" x="785.0" y="575.0">Template v.3.0</text>
            <a href="https://github.com/swhitty/SwiftDraw">
                <text fill="#505050" text-anchor="end" x="785.0" y="590.0">https://github.com/swhitty/SwiftDraw</text>
            </a>
        </g>
    </g>
    <g id="Guides" stroke="rgb(39, 170, 225)" stroke-width="0.5">
        <path id="Capline-S" d="M18,76 l800,0" />
        <path id="H-reference" d="M85,145.755 L87.685,145.755 L113.369,79.287 L114.052,79.287 L114.052,76 L112.148,76 L85,145.755 Z M95.693,121.536 L130.996,121.536 L130.263,119.313 L96.474,119.313 L95.693,121.536 Z M139.15,145.755 L141.787,145.755 L114.638,76 L113.466,76 L113.466,79.287 L139.15,145.755 Z" stroke="none" transform="translate(0,200)" />
        <path id="Baseline-S" d="M18,146 l800,0" />
        <path id="left-margin-Ultralight-M" d="M221,256 l0,110" />
        <path id="right-margin-Ultralight-M" d="M309,256 l0,110" />
        <path id="left-margin-Regular-M" d="M421,256 l0,110" />
        <path id="right-margin-Regular-M" d="M509,256 l0,110" />
        <path id="left-margin-Black-M" d="M621,256 l0,110" />
        <path id="right-margin-Black-M" d="M709,256 l0,110" />
        <path id="Capline-M" d="M18,276 l800,0" />
        <path id="Baseline-M" d="M18,346 l800,0" />
        <path id="Capline-L" d="M18,476 l800,0" />
        <path id="Baseline-L" d="M18,546 l800,0" />
    </g>
    <g id="Symbols">
        <g id="Ultralight-M" transform="translate(0,200)">
            <path d="M256.2,102.2 L256.2,130.8 C256.2,132.015 257.185,133 258.4,133 C259.615,133 260.6,132.015 260.6,130.8 L260.6,102.2 C260.6,100.985 259.615,100 258.4,100 C257.185,100 256.2,100.985 256.2,102.2 Z M282.6,122 L282.6,130.8 C282.6,132.015 283.585,133 284.8,133 C286.015,133 287,132.015 287,130.8 L287,122 C287,120.785 286.015,119.8 284.8,119.8 C283.585,119.8 282.6,120.785 282.6,122 Z M243,91.2 L243,130.8 C243,132.015 243.985,133 245.2,133 C246.415,133 247.4,132.015 247.4,130.8 L247.4,91.2 C247.4,89.985 246.415,89 245.2,89 C243.985,89 243,89.985 243,91.2 Z M269.4,113.2 L269.4,130.8 C269.4,132.015 270.385,133 271.6,133 C272.815,133 273.8,132.015 273.8,130.8 L273.8,113.2 C273.8,111.985 272.815,111 271.6,111 C270.385,111 269.4,111.985 269.4,113.2 Z" />
        </g>
        <g id="Regular-M" transform="translate(0,200)">
            <path d="M456.2,102.2 L456.2,130.8 C456.2,132.015 457.185,133 458.4,133 C459.615,133 460.6,132.015 460.6,130.8 L460.6,102.2 C460.6,100.985 459.615,100 458.4,100 C457.185,100 456.2,100.985 456.2,102.2 Z M482.6,122 L482.6,130.8 C482.6,132.015 483.585,133 484.8,133 C486.015,133 487,132.015 487,130.8 L487,122 C487,120.785 486.015,119.8 484.8,119.8 C483.585,119.8 482.6,120.785 482.6,122 Z M443,91.2 L443,130.8 C443,132.015 443.985,133 445.2,133 C446.415,133 447.4,132.015 447.4,130.8 L447.4,91.2 C447.4,89.985 446.415,89 445.2,89 C443.985,89 443,89.985 443,91.2 Z M469.4,113.2 L469.4,130.8 C469.4,132.015 470.385,133 471.6,133 C472.815,133 473.8,132.015 473.8,130.8 L473.8,113.2 C473.8,111.985 472.815,111 471.6,111 C470.385,111 469.4,111.985 469.4,113.2 Z" />
        </g>
        <g id="Black-M" transform="translate(0,200)">
            <path d="M656.2,102.2 L656.2,130.8 C656.2,132.015 657.185,133 658.4,133 C659.615,133 660.6,132.015 660.6,130.8 L660.6,102.2 C660.6,100.985 659.615,100 658.4,100 C657.185,100 656.2,100.985 656.2,102.2 Z M682.6,122 L682.6,130.8 C682.6,132.015 683.585,133 684.8,133 C686.015,133 687,132.015 687,130.8 L687,122 C687,120.785 686.015,119.8 684.8,119.8 C683.585,119.8 682.6,120.785 682.6,122 Z M643,91.2 L643,130.8 C643,132.015 643.985,133 645.2,133 C646.415,133 647.4,132.015 647.4,130.8 L647.4,91.2 C647.4,89.985 646.415,89 645.2,89 C643.985,89 643,89.985 643,91.2 Z M669.4,113.2 L669.4,130.8 C669.4,132.015 670.385,133 671.6,133 C672.815,133 673.8,132.015 673.8,130.8 L673.8,113.2 C673.8,111.985 672.815,111 671.6,111 C670.385,111 669.4,111.985 669.4,113.2 Z" />
        </g>
    </g>
</svg>