<?xml version="1.0" encoding="UTF-8"?>
<svg height="600" width="800" xmlns="http://www.w3.org/2000/svg" xmlns:xlink="http://www.w3.org/1999/xlink">
    <g id="Notes" font-family="LucidaGrande, 'Lucida Grande', sans-serif" font-size="13">
        <rect fill="white" height="600.0" width="800.0" x="0.0" y="0.0" />
        <g font-size="13">
            <text x="18.0" y="176.0">Small</text>
            <text x="18.0" y="376.0">Medium</text>
            <text x="18.0" y="576.0">Large</text>
        </g>
        <g font-size="9">
            <text x="250.0" y="30.0">Ultralight</text>
            <text x="450.0" y="30.0">Regular</text>
            <text x="650.0" y="30.0">Black</text>
            <text id="template-version" fill="#505050" text-anchor="end" x="785.0" y="575.0">Template v.3.0</text>
            <a href="https://github.com/swhitty/SwiftDraw">
                <text fill="#505050" text-anchor="end" x="785.0" y="590.0">https://github.com/swhitty/SwiftDraw</text>
            </a>
        </g>
    </g>
    <g id="Guides" stroke="rgb(39, 170, 225)" stroke-width="0.5">
        <path id="Capline-S" d="M18,76 l800,0" />
        <path id="H-reference" d="M85,145.755 L87.685,145.755 L113.369,79.287 L114.052,79.287 L114.052,76 L112.148,76 L85,145.755 Z M95.693,121.536 L130.996,121.536 L130.263,119.313 L96.474,119.313 L95.693,121.536 Z M139.15,145.755 L141.787,145.755 L114.638,76 L113.466,76 L113.466,79.287 L139.15,145.755 Z" stroke="none" transform="translate(0,200)" />
        <path id="Baseline-S" d="M18,146 l800,0" />
        <path id="left-margin-Ultralight-M" d="M230,256 l0,110" />
        <path id="right-margin-Ultralight-M" d="M300,256 l0,110" />
        <path id="left-margin-Regular-M" d="M430,256 l0,110" />
        <path id="right-margin-Regular-M" d="M500,256 l0,110" />
        <path id="left-margin-Black-M" d="M630,256 l0,110" />
        <path id="right-margin-Black-M" d="M700,256 l0,110" />
        <path id="Capline-M" d="M18,276 l800,0" />
        <path id="Baseline-M" d="M18,346 l800,0" />
        <path id="Capline-L" d="M18,476 l800,0" />
        <path id="Baseline-L" d="M18,546 l800,0" />
    </g>
    <g id="Symbols">
        <g id="Ultralight-M" transform="translate(0,200)">
            <path d="M253.333,99.333 L253.333,137.25 C253.333,138.861 254.639,140.167 256.25,140.167 C257.861,140.167 259.167,138.861 259.167,137.25 L259.167,99.333 C259.167,97.723 257.861,96.417 256.25,96.417 C254.639,96.417 253.333,97.723 253.333,99.333 Z M288.333,125.583 L288.333,137.25 C288.333,138.861 289.639,140.167 291.25,140.167 C292.861,140.167 294.167,138.861 294.167,137.25 L294.167,125.583 C294.167,123.973 292.861,122.667 291.25,122.667 C289.639,122.667 288.333,123.973 288.333,125.583 Z M235.833,84.75 L235.833,137.25 C235.833,138.861 237.139,140.167 238.75,140.167 C240.361,140.167 241.667,138.861 241.667,137.25 L241.667,84.75 C241.667,83.139 240.361,81.833 238.75,81.833 C237.139,81.833 235.833,83.139 235.833,84.75 Z M270.833,113.917 L270.833,137.25 C270.833,138.861 272.139,140.167 273.75,140.167 C275.361,140.167 276.667,138.861 276.667,137.25 L276.667,113.917 C276.667,112.306 275.361,111 273.75,111 C272.139,111 270.833,112.306 270.833,113.917 Z" />
        </g>
        <g id="Regular-M" transform="translate(0,200)">
            <path d="M453.333,99.333 L453.333,137.25 C453.333,138.861 454.639,140.167 456.25,140.167 C457.861,140.167 459.167,138.861 459.167,137.25 L459.167,99.333 C459.167,97.723 457.861,96.417 456.25,96.417 C454.639,96.417 453.333,97.723 453.333,99.333 Z M488.333,125.583 L488.333,137.25 C488.333,138.861 489.639,140.167 491.25,140.167 C492.861,140.167 494.167,138.861 494.167,137.25 L494.167,125.583 C494.167,123.973 492.861,122.667 491.25,122.667 C489.639,122.667 488.333,123.973 488.333,125.583 Z M435.833,84.75 L435.833,137.25 C435.833,138.861 437.139,140.167 438.75,140.167 C440.361,140.167 441.667,138.861 441.667,137.25 L441.667,84.75 C441.667,83.139 440.361,81.833 438.75,81.833 C437.139,81.833 435.833,83.139 435.833,84.75 Z M470.833,113.917 L470.833,137.25 C470.833,138.861 472.139,140.167 473.75,140.167 C475.361,140.167 476.667,138.861 476.667,137.25 L476.667,113.917 C476.667,112.306 475.361,111 473.75,111 C472.139,111 470.833,112.306 470.833,113.917 Z" />
        </g>
        <g id="Black-M" transform="translate(0,200)">
            <path d="M653.333,99.333 L653.333,137.25 C653.333,138.861 654.639,140.167 656.25,140.167 C657.861,140.167 659.167,138.861 659.167,137.25 L659.167,99.333 C659.167,97.723 657.861,96.417 656.25,96.417 C654.639,96.417 653.333,97.723 653.333,99.333 Z M688.333,125.583 L688.333,137.25 C688.333,138.861 689.639,140.167 691.25,140.167 C692.861,140.167 694.167,138.861 694.167,137.25 L694.167,125.583 C694.167,123.973 692.861,122.667 691.25,122.667 C689.639,122.667 688.333,123.973 688.333,125.583 Z M635.833,84.75 L635.833,137.25 C635.833,138.861 637.139,140.167 638.75,140.167 C640.361,140.167 641.667,138.861 641.667,137.25 L641.667,84.75 C641.667,83.139 640.361,81.833 638.75,81.833 C637.139,81.833 635.833,83.139 635.833,84.75 Z M670.833,113.917 L670.833,137.25 C670.833,138.861 672.139,140.167 673.75,140.167 C675.361,140.167 676.667,138.861 676.667,137.25 L676.667,113.917 C676.667,112.306 675.361,111 673.75,111 C672.139,111 670.833,112.306 670.833,113.917 Z" />
        </g>
    </g>
</svg>