<?xml version="1.0" encoding="UTF-8"?>
<svg height="600" width="800" xmlns="http://www.w3.org/2000/svg" xmlns:xlink="http://www.w3.org/1999/xlink">
    <g id="Notes" font-family="LucidaGrande, 'Lucida Grande', sans-serif" font-size="13">
        <rect fill="white" height="600.0" width="800.0" x="0.0" y="0.0" />
        <g font-size="13">
            <text x="18.0" y="176.0">Small</text>
            <text x="18.0" y="376.0">Medium</text>
            <text x="18.0" y="576.0">Large</text>
        </g>
        <g font-size="9">
            <text x="250.0" y="30.0">Ultralight</text>
            <text x="450.0" y="30.0">Regular</text>
            <text x="650.0" y="30.0">Black</text>
            <text id="template-version" fill="#505050" text-anchor="end" x="785.0" y="575.0">Template v.3.0</text>
            <a href="https://github.com/swhitty/SwiftDraw">
                <text fill="#505050" text-anchor="end" x="785.0" y="590.0">https://github.com/swhitty/SwiftDraw</text>
            </a>
        </g>
    </g>
    <g id="Guides" stroke="rgb(39, 170, 225)" stroke-width="0.5">
        <path id="Capline-S" d="M18,76 l800,0" />
        <path id="H-reference" d="M85,145.755 L87.685,145.755 L113.369,79.287 L114.052,79.287 L114.052,76 L112.148,76 L85,145.755 Z M95.693,121.536 L130.996,121.536 L130.263,119.313 L96.474,119.313 L95.693,121.536 Z M139.15,145.755 L141.787,145.755 L114.638,76 L113.466,76 L113.466,79.287 L139.15,145.755 Z" stroke="none" transform="translate(0,200)" />
        <path id="Baseline-S" d="M18,146 l800,0" />
        <path id="left-margin-Ultralight-M" d="M230,256 l0,110" />
        <path id="right-margin-Ultralight-M" d="M300,256 l0,110" />
        <path id="left-margin-Regular-M" d="M430,256 l0,110" />
        <path id="right-margin-Regular-M" d="M500,256 l0,110" />
        <path id="left-margin-Black-M" d="M630,256 l0,110" />
        <path id="right-margin-Black-M" d="M700,256 l0,110" />
        <path id="Capline-M" d="M18,276 l800,0" />
        <path id="Baseline-M" d="M18,346 l800,0" />
        <path id="Capline-L" d="M18,476 l800,0" />
        <path id="Baseline-L" d="M18,546 l800,0" />
    </g>
    <g id="Symbols">
        <g id="Ultralight-M" transform="translate(0,200)">
            <path d="M256.25,108.083 L243.417,108.083 C240.789,108.083 240.167,108.134 239.019,108.719 C237.921,109.278 237.028,110.171 236.469,111.268 C235.884,112.417 235.833,113.039 235.833,115.667 L235.833,132.583 C235.833,135.211 235.884,135.833 236.469,136.981 C237.028,138.079 237.921,138.972 239.018,139.531 C240.167,140.116 240.789,140.167 243.417,140.167 L256.25,140.167 C257.861,140.167 259.167,138.861 259.167,137.25 C259.167,135.639 257.861,134.333 256.25,134.333 L243.417,134.333 C241.961,134.333 241.61,134.305 241.666,134.333 C241.667,134.333 241.667,134.333 241.667,134.333 C241.695,134.39 241.667,134.039 241.667,132.583 L241.667,115.667 C241.667,114.211 241.695,113.86 241.667,113.916 C241.667,113.917 241.667,113.917 241.667,113.917 C241.61,113.945 241.961,113.917 243.417,113.917 L256.25,113.917 C257.861,113.917 259.167,112.611 259.167,111 C259.167,109.389 257.861,108.083 256.25,108.083 Z M256.25,140.167 L273.75,140.167 C275.361,140.167 276.667,138.861 276.667,137.25 C276.667,135.639 275.361,134.333 273.75,134.333 L256.25,134.333 C254.639,134.333 253.333,135.639 253.333,137.25 C253.333,138.861 254.639,140.167 256.25,140.167 Z M259.167,137.25 L259.167,101.083 C259.167,99.628 259.195,99.277 259.167,99.333 C259.167,99.333 259.167,99.333 259.167,99.333 C259.11,99.362 259.461,99.333 260.917,99.333 L269.083,99.333 C270.539,99.333 270.89,99.362 270.834,99.334 C270.833,99.333 270.833,99.333 270.833,99.333 C270.805,99.277 270.833,99.628 270.833,101.083 L270.833,137.25 C270.833,138.861 272.139,140.167 273.75,140.167 C275.361,140.167 276.667,138.861 276.667,137.25 L276.667,101.083 C276.667,98.456 276.616,97.834 276.031,96.685 C275.472,95.587 274.579,94.695 273.482,94.136 C272.333,93.551 271.711,93.5 269.083,93.5 L260.917,93.5 C258.289,93.5 257.667,93.551 256.519,94.136 C255.421,94.695 254.528,95.587 253.969,96.685 C253.384,97.834 253.333,98.456 253.333,101.083 L253.333,137.25 C253.333,138.861 254.639,140.167 256.25,140.167 C257.861,140.167 259.167,138.861 259.167,137.25 Z M273.75,140.167 L286.583,140.167 C289.211,140.167 289.833,140.116 290.981,139.531 C292.079,138.972 292.972,138.079 293.531,136.982 C294.116,135.833 294.167,135.211 294.167,132.583 L294.167,89.417 C294.167,86.789 294.116,86.167 293.531,85.019 C292.972,83.921 292.079,83.028 290.982,82.469 C289.833,81.884 289.211,81.833 286.583,81.833 L278.417,81.833 C275.789,81.833 275.167,81.884 274.019,82.469 C272.921,83.028 272.028,83.921 271.469,85.018 C270.884,86.167 270.833,86.789 270.833,89.417 L270.833,99.333 C270.833,100.944 272.139,102.25 273.75,102.25 C275.361,102.25 276.667,100.944 276.667,99.333 L276.667,89.417 C276.667,87.961 276.695,87.61 276.667,87.666 C276.667,87.667 276.667,87.667 276.667,87.667 C276.61,87.695 276.961,87.667 278.417,87.667 L286.583,87.667 C288.039,87.667 288.39,87.695 288.334,87.667 C288.333,87.667 288.333,87.667 288.333,87.667 C288.305,87.61 288.333,87.961 288.333,89.417 L288.333,132.583 C288.333,134.039 288.305,134.39 288.333,134.334 C288.333,134.333 288.333,134.333 288.333,134.333 C288.39,134.305 288.039,134.333 286.583,134.333 L273.75,134.333 C272.139,134.333 270.833,135.639 270.833,137.25 C270.833,138.861 272.139,140.167 273.75,140.167 Z" />
        </g>
        <g id="Regular-M" transform="translate(0,200)">
            <path d="M456.25,108.083 L443.417,108.083 C440.789,108.083 440.167,108.134 439.019,108.719 C437.921,109.278 437.028,110.171 436.469,111.268 C435.884,112.417 435.833,113.039 435.833,115.667 L435.833,132.583 C435.833,135.211 435.884,135.833 436.469,136.981 C437.028,138.079 437.921,138.972 439.018,139.531 C440.167,140.116 440.789,140.167 443.417,140.167 L456.25,140.167 C457.861,140.167 459.167,138.861 459.167,137.25 C459.167,135.639 457.861,134.333 456.25,134.333 L443.417,134.333 C441.961,134.333 441.61,134.305 441.666,134.333 C441.667,134.333 441.667,134.333 441.667,134.333 C441.695,134.39 441.667,134.039 441.667,132.583 L441.667,115.667 C441.667,114.211 441.695,113.86 441.667,113.916 C441.667,113.917 441.667,113.917 441.667,113.917 C441.61,113.945 441.961,113.917 443.417,113.917 L456.25,113.917 C457.861,113.917 459.167,112.611 459.167,111 C459.167,109.389 457.861,108.083 456.25,108.083 Z M456.25,140.167 L473.75,140.167 C475.361,140.167 476.667,138.861 476.667,137.25 C476.667,135.639 475.361,134.333 473.75,134.333 L456.25,134.333 C454.639,134.333 453.333,135.639 453.333,137.25 C453.333,138.861 454.639,140.167 456.25,140.167 Z M459.167,137.25 L459.167,101.083 C459.167,99.628 459.195,99.277 459.167,99.333 C459.167,99.333 459.167,99.333 459.167,99.333 C459.11,99.362 459.461,99.333 460.917,99.333 L469.083,99.333 C470.539,99.333 470.89,99.362 470.834,99.334 C470.833,99.333 470.833,99.333 470.833,99.333 C470.805,99.277 470.833,99.628 470.833,101.083 L470.833,137.25 C470.833,138.861 472.139,140.167 473.75,140.167 C475.361,140.167 476.667,138.861 476.667,137.25 L476.667,101.083 C476.667,98.456 476.616,97.834 476.031,96.685 C475.472,95.587 474.579,94.695 473.482,94.136 C472.333,93.551 471.711,93.5 469.083,93.5 L460.917,93.5 C458.289,93.5 457.667,93.551 456.519,94.136 C455.421,94.695 454.528,95.587 453.969,96.685 C453.384,97.834 453.333,98.456 453.333,101.083 L453.333,137.25 C453.333,138.861 454.639,140.167 456.25,140.167 C457.861,140.167 459.167,138.861 459.167,137.25 Z M473.75,140.167 L486.583,140.167 C489.211,140.167 489.833,140.116 490.981,139.531 C492.079,138.972 492.972,138.079 493.531,136.982 C494.116,135.833 494.167,135.211 494.167,132.583 L494.167,89.417 C494.167,86.789 494.116,86.167 493.531,85.019 C492.972,83.921 492.079,83.028 490.982,82.469 C489.833,81.884 489.211,81.833 486.583,81.833 L478.417,81.833 C475.789,81.833 475.167,81.884 474.019,82.469 C472.921,83.028 472.028,83.921 471.469,85.018 C470.884,86.167 470.833,86.789 470.833,89.417 L470.833,99.333 C470.833,100.944 472.139,102.25 473.75,102.25 C475.361,102.25 476.667,100.944 476.667,99.333 L476.667,89.417 C476.667,87.961 476.695,87.61 476.667,87.666 C476.667,87.667 476.667,87.667 476.667,87.667 C476.61,87.695 476.961,87.667 478.417,87.667 L486.583,87.667 C488.039,87.667 488.39,87.695 488.334,87.667 C488.333,87.667 488.333,87.667 488.333,87.667 C488.305,87.61 488.333,87.961 488.333,89.417 L488.333,132.583 C488.333,134.039 488.305,134.39 488.333,134.334 C488.333,134.333 488.333,134.333 488.333,134.333 C488.39,134.305 488.039,134.333 486.583,134.333 L473.75,134.333 C472.139,134.333 470.833,135.639 470.833,137.25 C470.833,138.861 472.139,140.167 473.75,140.167 Z" />
        </g>
        <g id="Black-M" transform="translate(0,200)">
            <path d="M656.25,108.083 L643.417,108.083 C640.789,108.083 640.167,108.134 639.019,108.719 C637.921,109.278 637.028,110.171 636.469,111.268 C635.884,112.417 635.833,113.039 635.833,115.667 L635.833,132.583 C635.833,135.211 635.884,135.833 636.469,136.981 C637.028,138.079 637.921,138.972 639.018,139.531 C640.167,140.116 640.789,140.167 643.417,140.167 L656.25,140.167 C657.861,140.167 659.167,138.861 659.167,137.25 C659.167,135.639 657.861,134.333 656.25,134.333 L643.417,134.333 C641.961,134.333 641.61,134.305 641.666,134.333 C641.667,134.333 641.667,134.333 641.667,134.333 C641.695,134.39 641.667,134.039 641.667,132.583 L641.667,115.667 C641.667,114.211 641.695,113.86 641.667,113.916 C641.667,113.917 641.667,113.917 641.667,113.917 C641.61,113.945 641.961,113.917 643.417,113.917 L656.25,113.917 C657.861,113.917 659.167,112.611 659.167,111 C659.167,109.389 657.861,108.083 656.25,108.083 Z M656.25,140.167 L673.75,140.167 C675.361,140.167 676.667,138.861 676.667,137.25 C676.667,135.639 675.361,134.333 673.75,134.333 L656.25,134.333 C654.639,134.333 653.333,135.639 653.333,137.25 C653.333,138.861 654.639,140.167 656.25,140.167 Z M659.167,137.25 L659.167,101.083 C659.167,99.628 659.195,99.277 659.167,99.333 C659.167,99.333 659.167,99.333 659.167,99.333 C659.11,99.362 659.461,99.333 660.917,99.333 L669.083,99.333 C670.539,99.333 670.89,99.362 670.834,99.334 C670.833,99.333 670.833,99.333 670.833,99.333 C670.805,99.277 670.833,99.628 670.833,101.083 L670.833,137.25 C670.833,138.861 672.139,140.167 673.75,140.167 C675.361,140.167 676.667,138.861 676.667,137.25 L676.667,101.083 C676.667,98.456 676.616,97.834 676.031,96.685 C675.472,95.587 674.579,94.695 673.482,94.136 C672.333,93.551 671.711,93.5 669.083,93.5 L660.917,93.5 C658.289,93.5 657.667,93.551 656.519,94.136 C655.421,94.695 654.528,95.587 653.969,96.685 C653.384,97.834 653.333,98.456 653.333,101.083 L653.333,137.25 C653.333,138.861 654.639,140.167 656.25,140.167 C657.861,140.167 659.167,138.861 659.167,137.25 Z M673.75,140.167 L686.583,140.167 C689.211,140.167 689.833,140.116 690.981,139.531 C692.079,138.972 692.972,138.079 693.531,136.982 C694.116,135.833 694.167,135.211 694.167,132.583 L694.167,89.417 C694.167,86.789 694.116,86.167 693.531,85.019 C692.972,83.921 692.079,83.028 690.982,82.469 C689.833,81.884 689.211,81.833 686.583,81.833 L678.417,81.833 C675.789,81.833 675.167,81.884 674.019,82.469 C672.921,83.028 672.028,83.921 671.469,85.018 C670.884,86.167 670.833,86.789 670.833,89.417 L670.833,99.333 C670.833,100.944 672.139,102.25 673.75,102.25 C675.361,102.25 676.667,100.944 676.667,99.333 L676.667,89.417 C676.667,87.961 676.695,87.61 676.667,87.666 C676.667,87.667 676.667,87.667 676.667,87.667 C676.61,87.695 676.961,87.667 678.417,87.667 L686.583,87.667 C688.039,87.667 688.39,87.695 688.334,87.667 C688.333,87.667 688.333,87.667 688.333,87.667 C688.305,87.61 688.333,87.961 688.333,89.417 L688.333,132.583 C688.333,134.039 688.305,134.39 688.333,134.334 C688.333,134.333 688.333,134.333 688.333,134.333 C688.39,134.305 688.039,134.333 686.583,134.333 L673.75,134.333 C672.139,134.333 670.833,135.639 670.833,137.25 C670.833,138.861 672.139,140.167 673.75,140.167 Z" />
        </g>
    </g>
</svg>