<?xml version="1.0" encoding="UTF-8"?>
<svg height="600" width="800" xmlns="http://www.w3.org/2000/svg" xmlns:xlink="http://www.w3.org/1999/xlink">
    <g id="Notes" font-family="LucidaGrande, 'Lucida Grande', sans-serif" font-size="13">
        <rect fill="white" height="600.0" width="800.0" x="0.0" y="0.0" />
        <g font-size="13">
            <text x="18.0" y="176.0">Small</text>
            <text x="18.0" y="376.0">Medium</text>
            <text x="18.0" y="576.0">Large</text>
        </g>
        <g font-size="9">
            <text x="250.0" y="30.0">Ultralight</text>
            <text x="450.0" y="30.0">Regular</text>
            <text x="650.0" y="30.0">Black</text>
            <text id="template-version" fill="#505050" text-anchor="end" x="785.0" y="575.0">Template v.3.0</text>
            <a href="https://github.com/swhitty/SwiftDraw">
                <text fill="#505050" text-anchor="end" x="785.0" y="590.0">https://github.com/swhitty/SwiftDraw</text>
            </a>
        </g>
    </g>
    <g id="Guides" stroke="rgb(39, 170, 225)" stroke-width="0.5">
        <path id="Capline-S" d="M18,76 l800,0" />
        <path id="H-reference" d="M85,145.755 L87.685,145.755 L113.369,79.287 L114.052,79.287 L114.052,76 L112.148,76 L85,145.755 Z M95.693,121.536 L130.996,121.536 L130.263,119.313 L96.474,119.313 L95.693,121.536 Z M139.15,145.755 L141.787,145.755 L114.638,76 L113.466,76 L113.466,79.287 L139.15,145.755 Z" stroke="none" transform="translate(0,200)" />
        <path id="Baseline-S" d="M18,146 l800,0" />
        <path id="left-margin-Ultralight-M" d="M221,256 l0,110" />
        <path id="right-margin-Ultralight-M" d="M309,256 l0,110" />
        <path id="left-margin-Regular-M" d="M421,256 l0,110" />
        <path id="right-margin-Regular-M" d="M509,256 l0,110" />
        <path id="left-margin-Black-M" d="M621,256 l0,110" />
        <path id="right-margin-Black-M" d="M709,256 l0,110" />
        <path id="Capline-M" d="M18,276 l800,0" />
        <path id="Baseline-M" d="M18,346 l800,0" />
        <path id="Capline-L" d="M18,476 l800,0" />
        <path id="Baseline-L" d="M18,546 l800,0" />
    </g>
    <g id="Symbols">
        <g id="Ultralight-M" transform="translate(0,200)">
            <path d="M257.865,87.219 L257.865,98.302 C257.865,98.582 257.861,98.653 257.941,98.441 C258.005,98.265 258.133,98.082 258.3,97.94 C258.461,97.802 258.349,97.851 258.044,97.963 C248.842,101.334 243.383,110.823 245.095,120.475 C246.808,130.127 255.198,137.159 265,137.159 C274.802,137.159 283.192,130.127 284.905,120.475 C286.617,110.823 281.158,101.334 271.954,97.962 C271.651,97.851 271.539,97.802 271.711,97.949 C271.867,98.081 271.995,98.265 272.07,98.472 C272.139,98.653 272.135,98.582 272.135,98.302 L272.135,87.219 C272.135,85.906 271.07,84.841 269.757,84.841 C268.443,84.841 267.378,85.906 267.378,87.219 L267.378,98.302 C267.378,99.316 267.393,99.553 267.611,100.128 C267.808,100.669 268.162,101.178 268.628,101.571 C269.08,101.959 269.295,102.053 270.316,102.428 C277.356,105.007 281.531,112.263 280.221,119.644 C278.912,127.025 272.496,132.402 265,132.402 C257.504,132.402 251.088,127.025 249.779,119.644 C248.469,112.263 252.644,105.007 259.682,102.428 C260.705,102.053 260.92,101.959 261.385,101.561 C261.838,101.177 262.192,100.67 262.4,100.098 C262.607,99.553 262.622,99.315 262.622,98.302 L262.622,87.219 C262.622,85.906 261.557,84.841 260.243,84.841 C258.93,84.841 257.865,85.906 257.865,87.219 Z M256.676,89.598 L273.324,89.598 C274.637,89.598 275.702,88.533 275.702,87.219 C275.702,85.906 274.637,84.841 273.324,84.841 L256.676,84.841 C255.363,84.841 254.298,85.906 254.298,87.219 C254.298,88.533 255.363,89.598 256.676,89.598 Z" />
        </g>
        <g id="Regular-M" transform="translate(0,200)">
            <path d="M457.865,87.219 L457.865,98.302 C457.865,98.582 457.861,98.653 457.941,98.441 C458.005,98.265 458.133,98.082 458.3,97.94 C458.461,97.802 458.349,97.851 458.044,97.963 C448.842,101.334 443.383,110.823 445.095,120.475 C446.808,130.127 455.198,137.159 465,137.159 C474.802,137.159 483.192,130.127 484.904,120.475 C486.617,110.823 481.158,101.334 471.954,97.962 C471.651,97.851 471.539,97.802 471.711,97.949 C471.867,98.081 471.995,98.265 472.07,98.472 C472.139,98.653 472.135,98.582 472.135,98.302 L472.135,87.219 C472.135,85.906 471.07,84.841 469.757,84.841 C468.443,84.841 467.378,85.906 467.378,87.219 L467.378,98.302 C467.378,99.316 467.393,99.553 467.611,100.128 C467.808,100.669 468.162,101.178 468.628,101.571 C469.08,101.959 469.295,102.053 470.316,102.428 C477.356,105.007 481.531,112.263 480.221,119.644 C478.912,127.025 472.496,132.402 465,132.402 C457.504,132.402 451.088,127.025 449.779,119.644 C448.469,112.263 452.644,105.007 459.682,102.428 C460.705,102.053 460.92,101.959 461.385,101.561 C461.838,101.177 462.192,100.67 462.4,100.098 C462.607,99.553 462.622,99.315 462.622,98.302 L462.622,87.219 C462.622,85.906 461.557,84.841 460.243,84.841 C458.93,84.841 457.865,85.906 457.865,87.219 Z M456.676,89.598 L473.324,89.598 C474.637,89.598 475.702,88.533 475.702,87.219 C475.702,85.906 474.637,84.841 473.324,84.841 L456.676,84.841 C455.363,84.841 454.298,85.906 454.298,87.219 C454.298,88.533 455.363,89.598 456.676,89.598 Z" />
        </g>
        <g id="Black-M" transform="translate(0,200)">
            <path d="M657.865,87.219 L657.865,98.302 C657.865,98.582 657.861,98.653 657.941,98.441 C658.005,98.265 658.133,98.082 658.3,97.94 C658.461,97.802 658.349,97.851 658.044,97.963 C648.842,101.334 643.383,110.823 645.095,120.475 C646.808,130.127 655.198,137.159 665,137.159 C674.802,137.159 683.192,130.127 684.904,120.475 C686.617,110.823 681.158,101.334 671.954,97.962 C671.651,97.851 671.539,97.802 671.711,97.949 C671.867,98.081 671.995,98.265 672.07,98.472 C672.139,98.653 672.135,98.582 672.135,98.302 L672.135,87.219 C672.135,85.906 671.07,84.841 669.757,84.841 C668.443,84.841 667.378,85.906 667.378,87.219 L667.378,98.302 C667.378,99.316 667.393,99.553 667.611,100.128 C667.808,100.669 668.162,101.178 668.628,101.571 C669.08,101.959 669.295,102.053 670.316,102.428 C677.356,105.007 681.531,112.263 680.221,119.644 C678.912,127.025 672.496,132.402 665,132.402 C657.504,132.402 651.088,127.025 649.779,119.644 C648.469,112.263 652.644,105.007 659.682,102.428 C660.705,102.053 660.92,101.959 661.385,101.561 C661.838,101.177 662.192,100.67 662.4,100.098 C662.607,99.553 662.622,99.315 662.622,98.302 L662.622,87.219 C662.622,85.906 661.557,84.841 660.243,84.841 C658.93,84.841 657.865,85.906 657.865,87.219 Z M656.676,89.598 L673.324,89.598 C674.637,89.598 675.702,88.533 675.702,87.219 C675.702,85.906 674.637,84.841 673.324,84.841 L656.676,84.841 C655.363,84.841 654.298,85.906 654.298,87.219 C654.298,88.533 655.363,89.598 656.676,89.598 Z" />
        </g>
    </g>
</svg>