<?xml version="1.0" encoding="UTF-8"?>
<svg height="600" width="800" xmlns="http://www.w3.org/2000/svg" xmlns:xlink="http://www.w3.org/1999/xlink">
    <g id="Notes" font-family="LucidaGrande, 'Lucida Grande', sans-serif" font-size="13">
        <rect fill="white" height="600.0" width="800.0" x="0.0" y="0.0" />
        <g font-size="13">
            <text x="18.0" y="176.0">Small</text>
            <text x="18.0" y="376.0">Medium</text>
            <text x="18.0" y="576.0">Large</text>
        </g>
        <g font-size="9">
            <text x="250.0" y="30.0">Ultralight</text>
            <text x="450.0" y="30.0">Regular</text>
            <text x="650.0" y="30.0">Black</text>
            <text id="template-version" fill="#505050" text-anchor="end" x="785.0" y="575.0">Template v.3.0</text>
            <a href="https://github.com/swhitty/SwiftDraw">
                <text fill="#505050" text-anchor="end" x="785.0" y="590.0">https://github.com/swhitty/SwiftDraw</text>
            </a>
        </g>
    </g>
    <g id="Guides" stroke="rgb(39, 170, 225)" stroke-width="0.5">
        <path id="Capline-S" d="M18,76 l800,0" />
        <path id="H-reference" d="M85,145.755 L87.685,145.755 L113.369,79.287 L114.052,79.287 L114.052,76 L112.148,76 L85,145.755 Z M95.693,121.536 L130.996,121.536 L130.263,119.313 L96.474,119.313 L95.693,121.536 Z M139.15,145.755 L141.787,145.755 L114.638,76 L113.466,76 L113.466,79.287 L139.15,145.755 Z" stroke="none" transform="translate(0,200)" />
        <path id="Baseline-S" d="M18,146 l800,0" />
        <path id="left-margin-Ultralight-M" d="M221,256 l0,110" />
        <path id="right-margin-Ultralight-M" d="M309,256 l0,110" />
        <path id="left-margin-Regular-M" d="M421,256 l0,110" />
        <path id="right-margin-Regular-M" d="M509,256 l0,110" />
        <path id="left-margin-Black-M" d="M621,256 l0,110" />
        <path id="right-margin-Black-M" d="M709,256 l0,110" />
        <path id="Capline-M" d="M18,276 l800,0" />
        <path id="Baseline-M" d="M18,346 l800,0" />
        <path id="Capline-L" d="M18,476 l800,0" />
        <path id="Baseline-L" d="M18,546 l800,0" />
    </g>
    <g id="Symbols">
        <g id="Ultralight-M" transform="translate(0,200)">
            <path d="M258.827,93.096 C262.198,90.81 266.555,90.574 270.152,92.482 C273.75,94.389 276,98.128 276,102.2 C276,106.68 276.534,110.566 277.516,113.893 C277.859,115.058 279.083,115.724 280.248,115.38 C281.414,115.036 282.08,113.813 281.736,112.648 C280.876,109.735 280.4,106.268 280.4,102.2 C280.4,96.499 277.25,91.264 272.213,88.594 C267.177,85.924 261.077,86.254 256.358,89.454 C255.352,90.135 255.09,91.503 255.772,92.509 C256.453,93.515 257.822,93.777 258.827,93.096 Z M250.262,97.727 C249.822,99.177 249.599,100.685 249.6,102.201 C249.6,107.84 248.376,112.234 246.302,115.569 C243.284,120.414 243.493,120.05 243.581,121.163 C243.667,122.202 244.074,122.935 244.906,123.551 C245.795,124.212 245.476,124.2 250.456,124.2 L276,124.2 C277.215,124.2 278.2,123.215 278.2,122 C278.2,120.785 277.215,119.8 276,119.8 L250.456,119.8 C248.683,119.8 248.093,119.796 247.544,119.774 C247.259,119.763 247.061,119.748 246.954,119.732 C247.081,119.751 247.23,119.796 247.528,120.017 C247.712,120.153 247.948,120.578 247.967,120.809 C247.999,121.214 247.962,121.336 247.912,121.446 C247.972,121.315 248.088,121.097 248.261,120.796 C248.585,120.234 248.965,119.616 250.037,117.894 C252.551,113.852 254,108.652 254,102.2 C254,101.116 254.159,100.039 254.473,99.003 C254.826,97.841 254.169,96.612 253.006,96.26 C251.843,95.907 250.615,96.564 250.262,97.727 Z M257.723,132.449 C259.718,134.209 262.286,135.2 265,135.2 C267.713,135.2 270.279,134.21 272.276,132.451 C273.187,131.647 273.275,130.257 272.472,129.345 C271.669,128.434 270.279,128.346 269.367,129.149 C268.165,130.208 266.63,130.8 265,130.8 C263.369,130.8 261.833,130.207 260.634,129.15 C259.723,128.346 258.333,128.433 257.529,129.344 C256.725,130.255 256.812,131.646 257.723,132.449 Z M286.356,129.244 L246.756,89.644 C245.896,88.785 244.504,88.785 243.644,89.644 C242.785,90.503 242.785,91.896 243.644,92.755 L283.244,132.355 C284.104,133.215 285.496,133.215 286.356,132.355 C287.215,131.496 287.215,130.103 286.356,129.244 Z" />
        </g>
        <g id="Regular-M" transform="translate(0,200)">
            <path d="M458.827,93.096 C462.198,90.81 466.555,90.574 470.152,92.482 C473.75,94.389 476,98.128 476,102.2 C476,106.68 476.534,110.566 477.516,113.893 C477.859,115.058 479.083,115.724 480.248,115.38 C481.414,115.036 482.08,113.813 481.736,112.648 C480.876,109.735 480.4,106.268 480.4,102.2 C480.4,96.499 477.25,91.264 472.213,88.594 C467.177,85.924 461.077,86.254 456.358,89.454 C455.352,90.135 455.09,91.503 455.772,92.509 C456.453,93.515 457.822,93.777 458.827,93.096 Z M450.262,97.727 C449.822,99.177 449.599,100.685 449.6,102.201 C449.6,107.84 448.376,112.234 446.302,115.569 C443.284,120.414 443.493,120.05 443.581,121.163 C443.667,122.202 444.074,122.935 444.906,123.551 C445.795,124.212 445.476,124.2 450.456,124.2 L476,124.2 C477.215,124.2 478.2,123.215 478.2,122 C478.2,120.785 477.215,119.8 476,119.8 L450.456,119.8 C448.683,119.8 448.093,119.796 447.544,119.774 C447.259,119.763 447.061,119.748 446.954,119.732 C447.081,119.751 447.23,119.796 447.528,120.017 C447.712,120.153 447.948,120.578 447.967,120.809 C447.999,121.214 447.962,121.336 447.912,121.446 C447.972,121.315 448.088,121.097 448.261,120.796 C448.585,120.234 448.965,119.616 450.037,117.894 C452.551,113.852 454,108.652 454,102.2 C454,101.116 454.159,100.039 454.473,99.003 C454.826,97.841 454.169,96.612 453.006,96.26 C451.843,95.907 450.615,96.564 450.262,97.727 Z M457.723,132.449 C459.718,134.209 462.286,135.2 465,135.2 C467.713,135.2 470.279,134.21 472.276,132.451 C473.187,131.647 473.275,130.257 472.472,129.345 C471.669,128.434 470.279,128.346 469.367,129.149 C468.165,130.208 466.63,130.8 465,130.8 C463.369,130.8 461.833,130.207 460.634,129.15 C459.723,128.346 458.333,128.433 457.529,129.344 C456.725,130.255 456.812,131.646 457.723,132.449 Z M486.356,129.244 L446.756,89.644 C445.896,88.785 444.504,88.785 443.644,89.644 C442.785,90.503 442.785,91.896 443.644,92.755 L483.244,132.355 C484.104,133.215 485.496,133.215 486.356,132.355 C487.215,131.496 487.215,130.103 486.356,129.244 Z" />
        </g>
        <g id="Black-M" transform="translate(0,200)">
            <path d="M658.827,93.096 C662.198,90.81 666.555,90.574 670.152,92.482 C673.75,94.389 676,98.128 676,102.2 C676,106.68 676.534,110.566 677.516,113.893 C677.859,115.058 679.083,115.724 680.248,115.38 C681.414,115.036 682.08,113.813 681.736,112.648 C680.876,109.735 680.4,106.268 680.4,102.2 C680.4,96.499 677.25,91.264 672.213,88.594 C667.177,85.924 661.077,86.254 656.358,89.454 C655.352,90.135 655.09,91.503 655.772,92.509 C656.453,93.515 657.821,93.777 658.827,93.096 Z M650.262,97.727 C649.822,99.177 649.599,100.685 649.6,102.201 C649.6,107.84 648.376,112.234 646.302,115.569 C643.284,120.414 643.493,120.05 643.581,121.163 C643.667,122.202 644.074,122.935 644.906,123.551 C645.795,124.212 645.476,124.2 650.456,124.2 L676,124.2 C677.215,124.2 678.2,123.215 678.2,122 C678.2,120.785 677.215,119.8 676,119.8 L650.456,119.8 C648.683,119.8 648.093,119.796 647.544,119.774 C647.259,119.763 647.061,119.748 646.954,119.732 C647.081,119.751 647.23,119.796 647.528,120.017 C647.711,120.153 647.948,120.578 647.967,120.809 C647.999,121.214 647.962,121.336 647.912,121.446 C647.972,121.315 648.088,121.097 648.261,120.796 C648.585,120.234 648.965,119.616 650.037,117.894 C652.551,113.852 654,108.652 654,102.2 C653.999,101.116 654.159,100.039 654.473,99.003 C654.825,97.841 654.169,96.612 653.006,96.26 C651.843,95.907 650.615,96.564 650.262,97.727 Z M657.723,132.449 C659.718,134.209 662.286,135.2 665,135.2 C667.713,135.2 670.278,134.21 672.276,132.451 C673.187,131.647 673.275,130.257 672.472,129.345 C671.669,128.434 670.279,128.346 669.367,129.149 C668.165,130.208 666.63,130.8 665,130.8 C663.369,130.8 661.833,130.207 660.634,129.15 C659.723,128.346 658.333,128.433 657.529,129.344 C656.725,130.255 656.812,131.646 657.723,132.449 Z M686.356,129.244 L646.756,89.644 C645.896,88.785 644.503,88.785 643.644,89.644 C642.785,90.503 642.785,91.896 643.644,92.755 L683.244,132.355 C684.104,133.215 685.496,133.215 686.356,132.355 C687.215,131.496 687.215,130.103 686.356,129.244 Z" />
        </g>
    </g>
</svg>