<?xml version="1.0" encoding="UTF-8"?>
<svg height="600" width="800" xmlns="http://www.w3.org/2000/svg" xmlns:xlink="http://www.w3.org/1999/xlink">
    <g id="Notes" font-family="LucidaGrande, 'Lucida Grande', sans-serif" font-size="13">
        <rect fill="white" height="600.0" width="800.0" x="0.0" y="0.0" />
        <g font-size="13">
            <text x="18.0" y="176.0">Small</text>
            <text x="18.0" y="376.0">Medium</text>
            <text x="18.0" y="576.0">Large</text>
        </g>
        <g font-size="9">
            <text x="250.0" y="30.0">Ultralight</text>
            <text x="450.0" y="30.0">Regular</text>
            <text x="650.0" y="30.0">Black</text>
            <text id="template-version" fill="#505050" text-anchor="end" x="785.0" y="575.0">Template v.3.0</text>
            <a href="https://github.com/swhitty/SwiftDraw">
                <text fill="#505050" text-anchor="end" x="785.0" y="590.0">https://github.com/swhitty/SwiftDraw</text>
            </a>
        </g>
    </g>
    <g id="Guides" stroke="rgb(39, 170, 225)" stroke-width="0.5">
        <path id="Capline-S" d="M18,76 l800,0" />
        <path id="H-reference" d="M85,145.755 L87.685,145.755 L113.369,79.287 L114.052,79.287 L114.052,76 L112.148,76 L85,145.755 Z M95.693,121.536 L130.996,121.536 L130.263,119.313 L96.474,119.313 L95.693,121.536 Z M139.15,145.755 L141.787,145.755 L114.638,76 L113.466,76 L113.466,79.287 L139.15,145.755 Z" stroke="none" transform="translate(0,200)" />
        <path id="Baseline-S" d="M18,146 l800,0" />
        <path id="left-margin-Ultralight-M" d="M230,256 l0,110" />
        <path id="right-margin-Ultralight-M" d="M300,256 l0,110" />
        <path id="left-margin-Regular-M" d="M430,256 l0,110" />
        <path id="right-margin-Regular-M" d="M500,256 l0,110" />
        <path id="left-margin-Black-M" d="M630,256 l0,110" />
        <path id="right-margin-Black-M" d="M700,256 l0,110" />
        <path id="Capline-M" d="M18,276 l800,0" />
        <path id="Baseline-M" d="M18,346 l800,0" />
        <path id="Capline-L" d="M18,476 l800,0" />
        <path id="Baseline-L" d="M18,546 l800,0" />
    </g>
    <g id="Symbols">
        <g id="Ultralight-M" transform="translate(0,200)">
            <path d="M271.364,133.273 C271.364,136.787 268.515,139.636 265,139.636 C261.485,139.636 258.636,136.787 258.636,133.273 C258.636,131.515 257.212,130.091 255.454,130.091 C253.697,130.091 252.273,131.515 252.273,133.273 C252.273,140.302 257.971,146 265,146 C272.029,146 277.727,140.302 277.727,133.273 C277.727,131.515 276.303,130.091 274.546,130.091 C272.788,130.091 271.364,131.515 271.364,133.273 Z M247.989,95.709 C244.606,99.252 242.727,103.766 242.727,108.454 C242.727,114.465 241.417,119.322 239.122,123.206 C234.33,131.301 234.748,130.545 234.905,132.148 C235.049,133.635 235.622,134.637 236.822,135.525 C238.13,136.477 237.488,136.454 245.46,136.454 L290.073,136.454 C291.83,136.454 293.255,135.03 293.255,133.273 C293.255,131.515 291.83,130.091 290.073,130.091 L245.46,130.091 C242.609,130.091 241.661,130.085 240.774,130.054 C240.299,130.038 239.964,130.015 239.773,129.99 C239.947,130.013 240.133,130.064 240.586,130.394 C240.848,130.588 241.209,131.218 241.239,131.531 C241.298,132.136 241.258,132.27 241.19,132.424 C241.294,132.189 241.487,131.814 241.772,131.297 C242.292,130.357 242.894,129.326 244.6,126.445 C247.479,121.573 249.091,115.597 249.091,108.454 C249.091,105.434 250.319,102.484 252.592,100.103 C253.805,98.832 253.758,96.818 252.487,95.605 C251.216,94.391 249.202,94.438 247.989,95.709 Z M265,88.726 C263.945,88.726 262.887,88.794 261.834,88.926 C260.779,89.059 260.602,89.068 260.643,89.078 C260.645,89.079 260.645,89.079 260.647,89.08 C260.686,89.089 260.599,89.038 260.525,88.971 C260.591,89.032 260.608,89.052 260.642,89.107 C260.663,89.143 260.674,89.163 260.67,89.153 C260.64,89.085 260.64,89.085 260.578,88.938 C259.677,86.751 260.535,84.215 262.594,83.014 C264.654,81.813 267.284,82.316 268.754,84.193 C270.225,86.069 270.086,88.743 268.428,90.456 L270.715,92.669 L271.548,89.598 C269.413,89.019 267.211,88.726 264.999,88.726 Z M265.001,95.09 C266.649,95.09 268.291,95.308 269.882,95.74 C271,96.043 272.195,95.714 273.001,94.881 C276.87,90.884 277.195,84.645 273.763,80.267 C270.331,75.888 264.195,74.714 259.389,77.516 C254.583,80.318 252.582,86.237 254.702,91.38 C254.775,91.557 254.775,91.557 254.864,91.758 C254.976,92.008 255.091,92.231 255.234,92.463 C255.479,92.858 255.767,93.207 256.132,93.573 C256.982,94.353 257.863,94.864 258.821,95.174 C258.975,95.22 258.975,95.22 258.997,95.226 C260.089,95.518 260.628,95.492 262.628,95.24 C263.42,95.141 264.213,95.09 265,95.09 Z M265,95.09 C269.31,95.09 273.424,96.567 276.418,99.16 C279.313,101.669 280.909,105.009 280.909,108.454 C280.909,109.52 280.939,110.585 280.996,111.689 C281.087,113.444 282.583,114.793 284.338,114.702 C286.093,114.611 287.442,113.115 287.352,111.36 C287.3,110.362 287.273,109.405 287.273,108.454 C287.273,103.122 284.847,98.043 280.585,94.35 C276.411,90.736 270.813,88.726 265,88.726 C263.243,88.726 261.818,90.151 261.818,91.908 C261.818,93.666 263.243,95.09 265,95.09 Z M295.751,134.076 L238.477,83.166 C237.164,81.999 235.153,82.117 233.985,83.431 C232.818,84.744 232.936,86.755 234.249,87.923 L291.523,138.833 C292.836,140 294.847,139.882 296.015,138.568 C297.182,137.255 297.064,135.244 295.751,134.076 Z" />
        </g>
        <g id="Regular-M" transform="translate(0,200)">
            <path d="M471.364,133.273 C471.364,136.787 468.515,139.636 465,139.636 C461.485,139.636 458.636,136.787 458.636,133.273 C458.636,131.515 457.212,130.091 455.454,130.091 C453.697,130.091 452.273,131.515 452.273,133.273 C452.273,140.302 457.971,146 465,146 C472.029,146 477.727,140.302 477.727,133.273 C477.727,131.515 476.303,130.091 474.546,130.091 C472.788,130.091 471.364,131.515 471.364,133.273 Z M447.989,95.709 C444.606,99.252 442.727,103.766 442.727,108.454 C442.727,114.465 441.417,119.322 439.122,123.206 C434.33,131.301 434.748,130.545 434.905,132.148 C435.049,133.635 435.622,134.637 436.822,135.525 C438.13,136.477 437.488,136.454 445.46,136.454 L490.073,136.454 C491.83,136.454 493.255,135.03 493.255,133.273 C493.255,131.515 491.83,130.091 490.073,130.091 L445.46,130.091 C442.609,130.091 441.661,130.085 440.774,130.054 C440.299,130.038 439.964,130.015 439.773,129.99 C439.947,130.013 440.133,130.064 440.586,130.394 C440.848,130.588 441.209,131.218 441.239,131.531 C441.298,132.136 441.258,132.27 441.19,132.424 C441.294,132.189 441.487,131.814 441.772,131.297 C442.292,130.357 442.894,129.326 444.6,126.445 C447.478,121.573 449.091,115.597 449.091,108.454 C449.091,105.434 450.319,102.484 452.592,100.103 C453.805,98.832 453.758,96.818 452.487,95.605 C451.216,94.391 449.202,94.438 447.989,95.709 Z M465,88.726 C463.945,88.726 462.887,88.794 461.834,88.926 C460.779,89.059 460.602,89.068 460.643,89.078 C460.645,89.079 460.645,89.079 460.647,89.08 C460.686,89.089 460.599,89.038 460.525,88.971 C460.591,89.032 460.608,89.052 460.642,89.107 C460.663,89.143 460.674,89.163 460.67,89.153 C460.64,89.085 460.64,89.085 460.578,88.938 C459.677,86.751 460.535,84.215 462.594,83.014 C464.654,81.813 467.284,82.316 468.754,84.193 C470.225,86.069 470.086,88.743 468.428,90.456 L470.715,92.669 L471.548,89.598 C469.413,89.019 467.211,88.726 464.999,88.726 Z M465.001,95.09 C466.649,95.09 468.291,95.308 469.882,95.74 C471,96.043 472.195,95.714 473.001,94.881 C476.87,90.884 477.195,84.645 473.763,80.267 C470.331,75.888 464.195,74.714 459.389,77.516 C454.583,80.318 452.582,86.237 454.702,91.38 C454.775,91.557 454.775,91.557 454.864,91.758 C454.976,92.008 455.091,92.231 455.234,92.463 C455.479,92.858 455.767,93.207 456.132,93.573 C456.982,94.353 457.863,94.864 458.821,95.174 C458.975,95.22 458.975,95.22 458.997,95.226 C460.089,95.518 460.628,95.492 462.628,95.24 C463.42,95.141 464.213,95.09 465,95.09 Z M465,95.09 C469.31,95.09 473.424,96.567 476.418,99.16 C479.313,101.669 480.909,105.009 480.909,108.454 C480.909,109.52 480.939,110.585 480.996,111.689 C481.087,113.444 482.583,114.793 484.338,114.702 C486.093,114.611 487.442,113.115 487.352,111.36 C487.3,110.362 487.273,109.405 487.273,108.454 C487.273,103.122 484.847,98.043 480.585,94.35 C476.411,90.736 470.813,88.726 465,88.726 C463.243,88.726 461.818,90.151 461.818,91.908 C461.818,93.666 463.243,95.09 465,95.09 Z M495.751,134.076 L438.477,83.166 C437.164,81.999 435.153,82.117 433.985,83.431 C432.818,84.744 432.936,86.755 434.249,87.923 L491.523,138.833 C492.836,140 494.847,139.882 496.015,138.568 C497.182,137.255 497.064,135.244 495.751,134.076 Z" />
        </g>
        <g id="Black-M" transform="translate(0,200)">
            <path d="M671.364,133.273 C671.364,136.787 668.515,139.636 665,139.636 C661.485,139.636 658.636,136.787 658.636,133.273 C658.636,131.515 657.212,130.091 655.454,130.091 C653.697,130.091 652.273,131.515 652.273,133.273 C652.273,140.302 657.971,146 665,146 C672.029,146 677.727,140.302 677.727,133.273 C677.727,131.515 676.303,130.091 674.546,130.091 C672.788,130.091 671.364,131.515 671.364,133.273 Z M647.989,95.709 C644.606,99.252 642.727,103.766 642.727,108.454 C642.727,114.465 641.417,119.322 639.122,123.206 C634.33,131.301 634.748,130.545 634.905,132.148 C635.049,133.635 635.622,134.637 636.822,135.525 C638.13,136.477 637.488,136.454 645.46,136.454 L690.073,136.454 C691.83,136.454 693.255,135.03 693.255,133.273 C693.255,131.515 691.83,130.091 690.073,130.091 L645.46,130.091 C642.609,130.091 641.661,130.085 640.774,130.054 C640.299,130.038 639.964,130.015 639.773,129.99 C639.947,130.013 640.133,130.064 640.586,130.394 C640.848,130.588 641.209,131.218 641.239,131.531 C641.298,132.136 641.258,132.27 641.19,132.424 C641.294,132.189 641.487,131.814 641.773,131.297 C642.292,130.357 642.894,129.326 644.6,126.445 C647.479,121.573 649.091,115.597 649.091,108.454 C649.091,105.434 650.319,102.484 652.592,100.103 C653.805,98.832 653.758,96.818 652.487,95.605 C651.216,94.391 649.202,94.438 647.989,95.709 Z M665,88.726 C663.945,88.726 662.887,88.794 661.834,88.926 C660.779,89.059 660.602,89.068 660.643,89.078 C660.645,89.079 660.645,89.079 660.647,89.08 C660.686,89.089 660.599,89.038 660.525,88.971 C660.591,89.032 660.608,89.052 660.642,89.107 C660.663,89.143 660.674,89.163 660.67,89.153 C660.64,89.085 660.64,89.085 660.578,88.938 C659.677,86.751 660.535,84.215 662.594,83.014 C664.654,81.813 667.284,82.316 668.755,84.193 C670.225,86.069 670.086,88.743 668.428,90.456 L670.715,92.669 L671.548,89.598 C669.413,89.019 667.211,88.726 664.999,88.726 Z M665.001,95.09 C666.649,95.09 668.291,95.308 669.882,95.74 C671,96.043 672.195,95.714 673.001,94.881 C676.87,90.884 677.195,84.645 673.763,80.267 C670.331,75.888 664.195,74.714 659.389,77.516 C654.583,80.318 652.582,86.237 654.702,91.38 C654.775,91.557 654.775,91.557 654.864,91.758 C654.976,92.008 655.091,92.231 655.234,92.463 C655.479,92.858 655.767,93.207 656.132,93.573 C656.982,94.353 657.863,94.864 658.821,95.174 C658.975,95.22 658.975,95.22 658.997,95.226 C660.089,95.518 660.628,95.492 662.628,95.24 C663.42,95.141 664.213,95.09 665,95.09 Z M665,95.09 C669.31,95.09 673.424,96.567 676.418,99.16 C679.313,101.669 680.909,105.009 680.909,108.454 C680.909,109.52 680.939,110.585 680.996,111.689 C681.087,113.444 682.583,114.793 684.338,114.702 C686.093,114.611 687.442,113.115 687.352,111.36 C687.3,110.362 687.273,109.405 687.273,108.454 C687.273,103.122 684.846,98.043 680.585,94.35 C676.411,90.736 670.813,88.726 665,88.726 C663.243,88.726 661.818,90.151 661.818,91.908 C661.818,93.666 663.243,95.09 665,95.09 Z M695.751,134.076 L638.477,83.166 C637.164,81.999 635.153,82.117 633.985,83.431 C632.818,84.744 632.936,86.755 634.249,87.923 L691.523,138.833 C692.836,140 694.847,139.882 696.015,138.568 C697.182,137.255 697.064,135.244 695.751,134.076 Z" />
        </g>
    </g>
</svg>