<?xml version="1.0" encoding="UTF-8"?>
<svg height="600" width="800" xmlns="http://www.w3.org/2000/svg" xmlns:xlink="http://www.w3.org/1999/xlink">
    <g id="Notes" font-family="LucidaGrande, 'Lucida Grande', sans-serif" font-size="13">
        <rect fill="white" height="600.0" width="800.0" x="0.0" y="0.0" />
        <g font-size="13">
            <text x="18.0" y="176.0">Small</text>
            <text x="18.0" y="376.0">Medium</text>
            <text x="18.0" y="576.0">Large</text>
        </g>
        <g font-size="9">
            <text x="250.0" y="30.0">Ultralight</text>
            <text x="450.0" y="30.0">Regular</text>
            <text x="650.0" y="30.0">Black</text>
            <text id="template-version" fill="#505050" text-anchor="end" x="785.0" y="575.0">Template v.3.0</text>
            <a href="https://github.com/swhitty/SwiftDraw">
                <text fill="#505050" text-anchor="end" x="785.0" y="590.0">https://github.com/swhitty/SwiftDraw</text>
            </a>
        </g>
    </g>
    <g id="Guides" stroke="rgb(39, 170, 225)" stroke-width="0.5">
        <path id="Capline-S" d="M18,76 l800,0" />
        <path id="H-reference" d="M85,145.755 L87.685,145.755 L113.369,79.287 L114.052,79.287 L114.052,76 L112.148,76 L85,145.755 Z M95.693,121.536 L130.996,121.536 L130.263,119.313 L96.474,119.313 L95.693,121.536 Z M139.15,145.755 L141.787,145.755 L114.638,76 L113.466,76 L113.466,79.287 L139.15,145.755 Z" stroke="none" transform="translate(0,200)" />
        <path id="Baseline-S" d="M18,146 l800,0" />
        <path id="left-margin-Ultralight-M" d="M221,256 l0,110" />
        <path id="right-margin-Ultralight-M" d="M309,256 l0,110" />
        <path id="left-margin-Regular-M" d="M421,256 l0,110" />
        <path id="right-margin-Regular-M" d="M509,256 l0,110" />
        <path id="left-margin-Black-M" d="M621,256 l0,110" />
        <path id="right-margin-Black-M" d="M709,256 l0,110" />
        <path id="Capline-M" d="M18,276 l800,0" />
        <path id="Baseline-M" d="M18,346 l800,0" />
        <path id="Capline-L" d="M18,476 l800,0" />
        <path id="Baseline-L" d="M18,546 l800,0" />
    </g>
    <g id="Symbols">
        <g id="Ultralight-M" transform="translate(0,200)">
            <path d="M260.81,98.429 L246.143,98.429 C244.986,98.429 244.048,99.367 244.048,100.524 C244.048,101.681 244.986,102.619 246.143,102.619 L260.81,102.619 C261.967,102.619 262.905,101.681 262.905,100.524 C262.905,99.367 261.967,98.429 260.81,98.429 Z M283.857,98.429 L269.19,98.429 C268.033,98.429 267.095,99.367 267.095,100.524 C267.095,101.681 268.033,102.619 269.19,102.619 L283.857,102.619 C285.014,102.619 285.952,101.681 285.952,100.524 C285.952,99.367 285.014,98.429 283.857,98.429 Z M268.668,103.081 C275.093,104.735 279.667,110.555 279.667,117.286 C279.667,118.443 280.605,119.381 281.762,119.381 C282.919,119.381 283.857,118.443 283.857,117.286 C283.857,108.631 277.978,101.15 269.713,99.023 C268.592,98.734 267.45,99.409 267.161,100.53 C266.873,101.65 267.548,102.792 268.668,103.081 Z M250.333,117.286 C250.333,110.555 254.907,104.735 261.332,103.081 C262.452,102.792 263.127,101.65 262.839,100.53 C262.55,99.409 261.408,98.734 260.287,99.023 C252.022,101.15 246.143,108.631 246.143,117.286 C246.143,118.443 247.081,119.381 248.238,119.381 C249.395,119.381 250.333,118.443 250.333,117.286 Z M247.4,127.762 L249.076,127.762 C250.964,127.762 251.411,127.725 252.236,127.305 C253.024,126.903 253.665,126.262 254.067,125.474 C254.487,124.649 254.524,124.202 254.524,122.314 L254.524,120.638 C254.524,118.75 254.487,118.304 254.067,117.479 C253.665,116.69 253.024,116.049 252.236,115.647 C251.411,115.227 250.964,115.19 249.076,115.19 L247.4,115.19 C245.512,115.19 245.065,115.227 244.241,115.647 C243.452,116.049 242.811,116.69 242.409,117.478 C241.989,118.304 241.952,118.75 241.952,120.638 L241.952,122.314 C241.952,124.202 241.989,124.649 242.409,125.474 C242.811,126.262 243.452,126.903 244.24,127.305 C245.065,127.725 245.512,127.762 247.4,127.762 Z M247.4,123.571 C246.354,123.571 246.102,123.551 246.143,123.571 C246.143,123.571 246.143,123.571 246.143,123.571 C246.163,123.612 246.143,123.36 246.143,122.314 L246.143,120.638 C246.143,119.592 246.163,119.341 246.143,119.381 C246.143,119.381 246.143,119.381 246.143,119.381 C246.102,119.402 246.354,119.381 247.4,119.381 L249.076,119.381 C250.122,119.381 250.374,119.402 250.334,119.381 C250.333,119.381 250.333,119.381 250.333,119.381 C250.313,119.341 250.333,119.592 250.333,120.638 L250.333,122.314 C250.333,123.36 250.313,123.612 250.333,123.572 C250.333,123.571 250.333,123.571 250.333,123.571 C250.374,123.551 250.122,123.571 249.076,123.571 L247.4,123.571 Z M264.162,106.81 L265.838,106.81 C267.726,106.81 268.173,106.773 268.997,106.353 C269.786,105.951 270.427,105.31 270.829,104.522 C271.249,103.696 271.286,103.25 271.286,101.362 L271.286,99.686 C271.286,97.798 271.249,97.351 270.829,96.526 C270.427,95.738 269.786,95.097 268.998,94.695 C268.173,94.275 267.726,94.238 265.838,94.238 L264.162,94.238 C262.274,94.238 261.827,94.275 261.003,94.695 C260.214,95.097 259.573,95.738 259.171,96.526 C258.751,97.351 258.714,97.798 258.714,99.686 L258.714,101.362 C258.714,103.25 258.751,103.696 259.171,104.521 C259.573,105.31 260.214,105.951 261.002,106.353 C261.827,106.773 262.274,106.81 264.162,106.81 Z M264.162,102.619 C263.116,102.619 262.864,102.598 262.904,102.619 C262.905,102.619 262.905,102.619 262.905,102.619 C262.925,102.659 262.905,102.408 262.905,101.362 L262.905,99.686 C262.905,98.64 262.925,98.388 262.905,98.428 C262.905,98.429 262.905,98.429 262.905,98.429 C262.864,98.449 263.116,98.429 264.162,98.429 L265.838,98.429 C266.884,98.429 267.136,98.449 267.096,98.429 C267.095,98.429 267.095,98.429 267.095,98.429 C267.075,98.388 267.095,98.64 267.095,99.686 L267.095,101.362 C267.095,102.408 267.075,102.659 267.095,102.619 C267.095,102.619 267.095,102.619 267.095,102.619 C267.136,102.598 266.884,102.619 265.838,102.619 L264.162,102.619 Z M280.924,127.762 L282.6,127.762 C284.488,127.762 284.935,127.725 285.759,127.305 C286.548,126.903 287.189,126.262 287.591,125.474 C288.011,124.649 288.048,124.202 288.048,122.314 L288.048,120.638 C288.048,118.75 288.011,118.304 287.591,117.479 C287.189,116.69 286.548,116.049 285.76,115.647 C284.935,115.227 284.488,115.19 282.6,115.19 L280.924,115.19 C279.036,115.19 278.589,115.227 277.764,115.647 C276.976,116.049 276.335,116.69 275.933,117.478 C275.513,118.304 275.476,118.75 275.476,120.638 L275.476,122.314 C275.476,124.202 275.513,124.649 275.933,125.474 C276.335,126.262 276.976,126.903 277.764,127.305 C278.589,127.725 279.036,127.762 280.924,127.762 Z M280.924,123.571 C279.878,123.571 279.626,123.551 279.666,123.571 C279.667,123.571 279.667,123.571 279.667,123.571 C279.687,123.612 279.667,123.36 279.667,122.314 L279.667,120.638 C279.667,119.592 279.687,119.341 279.667,119.381 C279.667,119.381 279.667,119.381 279.667,119.381 C279.626,119.402 279.878,119.381 280.924,119.381 L282.6,119.381 C283.646,119.381 283.898,119.402 283.857,119.381 C283.857,119.381 283.857,119.381 283.857,119.381 C283.837,119.341 283.857,119.592 283.857,120.638 L283.857,122.314 C283.857,123.36 283.837,123.612 283.857,123.572 C283.857,123.571 283.857,123.571 283.857,123.571 C283.898,123.551 283.646,123.571 282.6,123.571 L280.924,123.571 Z M283.857,100.524 C283.857,100.524 283.857,100.524 283.857,100.524 C283.857,100.524 283.857,100.524 283.857,100.524 C283.857,100.524 283.857,100.524 283.857,100.524 C283.857,100.524 283.857,100.524 283.857,100.524 Z M288.048,100.524 C288.048,98.209 286.171,96.333 283.857,96.333 C281.543,96.333 279.667,98.209 279.667,100.524 C279.667,102.838 281.543,104.714 283.857,104.714 C286.171,104.714 288.048,102.838 288.048,100.524 Z M246.143,100.524 C246.143,100.524 246.143,100.524 246.143,100.524 C246.143,100.524 246.143,100.524 246.143,100.524 C246.143,100.524 246.143,100.524 246.143,100.524 C246.143,100.524 246.143,100.524 246.143,100.524 Z M250.333,100.524 C250.333,98.209 248.457,96.333 246.143,96.333 C243.829,96.333 241.952,98.209 241.952,100.524 C241.952,102.838 243.829,104.714 246.143,104.714 C248.457,104.714 250.333,102.838 250.333,100.524 Z" />
        </g>
        <g id="Regular-M" transform="translate(0,200)">
            <path d="M460.81,98.429 L446.143,98.429 C444.986,98.429 444.048,99.367 444.048,100.524 C444.048,101.681 444.986,102.619 446.143,102.619 L460.81,102.619 C461.967,102.619 462.905,101.681 462.905,100.524 C462.905,99.367 461.967,98.429 460.81,98.429 Z M483.857,98.429 L469.19,98.429 C468.033,98.429 467.095,99.367 467.095,100.524 C467.095,101.681 468.033,102.619 469.19,102.619 L483.857,102.619 C485.014,102.619 485.952,101.681 485.952,100.524 C485.952,99.367 485.014,98.429 483.857,98.429 Z M468.668,103.081 C475.093,104.735 479.667,110.555 479.667,117.286 C479.667,118.443 480.605,119.381 481.762,119.381 C482.919,119.381 483.857,118.443 483.857,117.286 C483.857,108.631 477.978,101.15 469.713,99.023 C468.592,98.734 467.45,99.409 467.161,100.53 C466.873,101.65 467.548,102.792 468.668,103.081 Z M450.333,117.286 C450.333,110.555 454.907,104.735 461.332,103.081 C462.452,102.792 463.127,101.65 462.839,100.53 C462.55,99.409 461.408,98.734 460.287,99.023 C452.022,101.15 446.143,108.631 446.143,117.286 C446.143,118.443 447.081,119.381 448.238,119.381 C449.395,119.381 450.333,118.443 450.333,117.286 Z M447.4,127.762 L449.076,127.762 C450.964,127.762 451.411,127.725 452.236,127.305 C453.024,126.903 453.665,126.262 454.067,125.474 C454.487,124.649 454.524,124.202 454.524,122.314 L454.524,120.638 C454.524,118.75 454.487,118.304 454.067,117.479 C453.665,116.69 453.024,116.049 452.236,115.647 C451.411,115.227 450.964,115.19 449.076,115.19 L447.4,115.19 C445.512,115.19 445.065,115.227 444.241,115.647 C443.452,116.049 442.811,116.69 442.409,117.478 C441.989,118.304 441.952,118.75 441.952,120.638 L441.952,122.314 C441.952,124.202 441.989,124.649 442.409,125.474 C442.811,126.262 443.452,126.903 444.24,127.305 C445.065,127.725 445.512,127.762 447.4,127.762 Z M447.4,123.571 C446.354,123.571 446.102,123.551 446.143,123.571 C446.143,123.571 446.143,123.571 446.143,123.571 C446.163,123.612 446.143,123.36 446.143,122.314 L446.143,120.638 C446.143,119.592 446.163,119.341 446.143,119.381 C446.143,119.381 446.143,119.381 446.143,119.381 C446.102,119.402 446.354,119.381 447.4,119.381 L449.076,119.381 C450.122,119.381 450.374,119.402 450.334,119.381 C450.333,119.381 450.333,119.381 450.333,119.381 C450.313,119.341 450.333,119.592 450.333,120.638 L450.333,122.314 C450.333,123.36 450.313,123.612 450.333,123.572 C450.333,123.571 450.333,123.571 450.333,123.571 C450.374,123.551 450.122,123.571 449.076,123.571 L447.4,123.571 Z M464.162,106.81 L465.838,106.81 C467.726,106.81 468.173,106.773 468.997,106.353 C469.786,105.951 470.427,105.31 470.829,104.522 C471.249,103.696 471.286,103.25 471.286,101.362 L471.286,99.686 C471.286,97.798 471.249,97.351 470.829,96.526 C470.427,95.738 469.786,95.097 468.998,94.695 C468.173,94.275 467.726,94.238 465.838,94.238 L464.162,94.238 C462.274,94.238 461.827,94.275 461.003,94.695 C460.214,95.097 459.573,95.738 459.171,96.526 C458.751,97.351 458.714,97.798 458.714,99.686 L458.714,101.362 C458.714,103.25 458.751,103.696 459.171,104.521 C459.573,105.31 460.214,105.951 461.002,106.353 C461.827,106.773 462.274,106.81 464.162,106.81 Z M464.162,102.619 C463.116,102.619 462.864,102.598 462.904,102.619 C462.905,102.619 462.905,102.619 462.905,102.619 C462.925,102.659 462.905,102.408 462.905,101.362 L462.905,99.686 C462.905,98.64 462.925,98.388 462.905,98.428 C462.905,98.429 462.905,98.429 462.905,98.429 C462.864,98.449 463.116,98.429 464.162,98.429 L465.838,98.429 C466.884,98.429 467.136,98.449 467.096,98.429 C467.095,98.429 467.095,98.429 467.095,98.429 C467.075,98.388 467.095,98.64 467.095,99.686 L467.095,101.362 C467.095,102.408 467.075,102.659 467.095,102.619 C467.095,102.619 467.095,102.619 467.095,102.619 C467.136,102.598 466.884,102.619 465.838,102.619 L464.162,102.619 Z M480.924,127.762 L482.6,127.762 C484.488,127.762 484.935,127.725 485.759,127.305 C486.548,126.903 487.189,126.262 487.591,125.474 C488.011,124.649 488.048,124.202 488.048,122.314 L488.048,120.638 C488.048,118.75 488.011,118.304 487.591,117.479 C487.189,116.69 486.548,116.049 485.76,115.647 C484.935,115.227 484.488,115.19 482.6,115.19 L480.924,115.19 C479.036,115.19 478.589,115.227 477.764,115.647 C476.976,116.049 476.335,116.69 475.933,117.478 C475.513,118.304 475.476,118.75 475.476,120.638 L475.476,122.314 C475.476,124.202 475.513,124.649 475.933,125.474 C476.335,126.262 476.976,126.903 477.764,127.305 C478.589,127.725 479.036,127.762 480.924,127.762 Z M480.924,123.571 C479.878,123.571 479.626,123.551 479.666,123.571 C479.667,123.571 479.667,123.571 479.667,123.571 C479.687,123.612 479.667,123.36 479.667,122.314 L479.667,120.638 C479.667,119.592 479.687,119.341 479.667,119.381 C479.667,119.381 479.667,119.381 479.667,119.381 C479.626,119.402 479.878,119.381 480.924,119.381 L482.6,119.381 C483.646,119.381 483.898,119.402 483.857,119.381 C483.857,119.381 483.857,119.381 483.857,119.381 C483.837,119.341 483.857,119.592 483.857,120.638 L483.857,122.314 C483.857,123.36 483.837,123.612 483.857,123.572 C483.857,123.571 483.857,123.571 483.857,123.571 C483.898,123.551 483.646,123.571 482.6,123.571 L480.924,123.571 Z M483.857,100.524 C483.857,100.524 483.857,100.524 483.857,100.524 C483.857,100.524 483.857,100.524 483.857,100.524 C483.857,100.524 483.857,100.524 483.857,100.524 C483.857,100.524 483.857,100.524 483.857,100.524 Z M488.048,100.524 C488.048,98.209 486.171,96.333 483.857,96.333 C481.543,96.333 479.667,98.209 479.667,100.524 C479.667,102.838 481.543,104.714 483.857,104.714 C486.171,104.714 488.048,102.838 488.048,100.524 Z M446.143,100.524 C446.143,100.524 446.143,100.524 446.143,100.524 C446.143,100.524 446.143,100.524 446.143,100.524 C446.143,100.524 446.143,100.524 446.143,100.524 C446.143,100.524 446.143,100.524 446.143,100.524 Z M450.333,100.524 C450.333,98.209 448.457,96.333 446.143,96.333 C443.829,96.333 441.952,98.209 441.952,100.524 C441.952,102.838 443.829,104.714 446.143,104.714 C448.457,104.714 450.333,102.838 450.333,100.524 Z" />
        </g>
        <g id="Black-M" transform="translate(0,200)">
            <path d="M660.81,98.429 L646.143,98.429 C644.986,98.429 644.048,99.367 644.048,100.524 C644.048,101.681 644.986,102.619 646.143,102.619 L660.81,102.619 C661.967,102.619 662.905,101.681 662.905,100.524 C662.905,99.367 661.967,98.429 660.81,98.429 Z M683.857,98.429 L669.19,98.429 C668.033,98.429 667.095,99.367 667.095,100.524 C667.095,101.681 668.033,102.619 669.19,102.619 L683.857,102.619 C685.014,102.619 685.952,101.681 685.952,100.524 C685.952,99.367 685.014,98.429 683.857,98.429 Z M668.668,103.081 C675.093,104.735 679.667,110.555 679.667,117.286 C679.667,118.443 680.605,119.381 681.762,119.381 C682.919,119.381 683.857,118.443 683.857,117.286 C683.857,108.631 677.978,101.15 669.713,99.023 C668.592,98.734 667.45,99.409 667.161,100.53 C666.873,101.65 667.548,102.792 668.668,103.081 Z M650.333,117.286 C650.333,110.555 654.907,104.735 661.332,103.081 C662.452,102.792 663.127,101.65 662.839,100.53 C662.55,99.409 661.408,98.734 660.287,99.023 C652.022,101.15 646.143,108.631 646.143,117.286 C646.143,118.443 647.081,119.381 648.238,119.381 C649.395,119.381 650.333,118.443 650.333,117.286 Z M647.4,127.762 L649.076,127.762 C650.964,127.762 651.411,127.725 652.235,127.305 C653.024,126.903 653.665,126.262 654.067,125.474 C654.487,124.649 654.524,124.202 654.524,122.314 L654.524,120.638 C654.524,118.75 654.487,118.304 654.067,117.479 C653.665,116.69 653.024,116.049 652.236,115.647 C651.411,115.227 650.964,115.19 649.076,115.19 L647.4,115.19 C645.512,115.19 645.065,115.227 644.241,115.647 C643.452,116.049 642.811,116.69 642.409,117.478 C641.989,118.304 641.952,118.75 641.952,120.638 L641.952,122.314 C641.952,124.202 641.989,124.649 642.409,125.474 C642.811,126.262 643.452,126.903 644.24,127.305 C645.065,127.725 645.512,127.762 647.4,127.762 Z M647.4,123.571 C646.354,123.571 646.102,123.551 646.143,123.571 C646.143,123.571 646.143,123.571 646.143,123.571 C646.163,123.612 646.143,123.36 646.143,122.314 L646.143,120.638 C646.143,119.592 646.163,119.341 646.143,119.381 C646.143,119.381 646.143,119.381 646.143,119.381 C646.102,119.402 646.354,119.381 647.4,119.381 L649.076,119.381 C650.122,119.381 650.374,119.402 650.334,119.381 C650.333,119.381 650.333,119.381 650.333,119.381 C650.313,119.341 650.333,119.592 650.333,120.638 L650.333,122.314 C650.333,123.36 650.313,123.612 650.333,123.572 C650.333,123.571 650.333,123.571 650.333,123.571 C650.374,123.551 650.122,123.571 649.076,123.571 L647.4,123.571 Z M664.162,106.81 L665.838,106.81 C667.726,106.81 668.173,106.773 668.997,106.353 C669.786,105.951 670.427,105.31 670.829,104.522 C671.249,103.696 671.286,103.25 671.286,101.362 L671.286,99.686 C671.286,97.798 671.249,97.351 670.829,96.526 C670.427,95.738 669.786,95.097 668.998,94.695 C668.173,94.275 667.726,94.238 665.838,94.238 L664.162,94.238 C662.274,94.238 661.827,94.275 661.003,94.695 C660.214,95.097 659.573,95.738 659.171,96.526 C658.751,97.351 658.714,97.798 658.714,99.686 L658.714,101.362 C658.714,103.25 658.751,103.696 659.171,104.521 C659.573,105.31 660.214,105.951 661.002,106.353 C661.827,106.773 662.274,106.81 664.162,106.81 Z M664.162,102.619 C663.116,102.619 662.864,102.598 662.904,102.619 C662.905,102.619 662.905,102.619 662.905,102.619 C662.925,102.659 662.905,102.408 662.905,101.362 L662.905,99.686 C662.905,98.64 662.925,98.388 662.905,98.428 C662.905,98.429 662.905,98.429 662.905,98.429 C662.864,98.449 663.116,98.429 664.162,98.429 L665.838,98.429 C666.884,98.429 667.136,98.449 667.096,98.429 C667.095,98.429 667.095,98.429 667.095,98.429 C667.075,98.388 667.095,98.64 667.095,99.686 L667.095,101.362 C667.095,102.408 667.075,102.659 667.095,102.619 C667.095,102.619 667.095,102.619 667.095,102.619 C667.136,102.598 666.884,102.619 665.838,102.619 L664.162,102.619 Z M680.924,127.762 L682.6,127.762 C684.488,127.762 684.935,127.725 685.759,127.305 C686.548,126.903 687.189,126.262 687.591,125.474 C688.011,124.649 688.048,124.202 688.048,122.314 L688.048,120.638 C688.048,118.75 688.011,118.304 687.591,117.479 C687.189,116.69 686.548,116.049 685.76,115.647 C684.935,115.227 684.488,115.19 682.6,115.19 L680.924,115.19 C679.036,115.19 678.589,115.227 677.764,115.647 C676.976,116.049 676.335,116.69 675.933,117.478 C675.513,118.304 675.476,118.75 675.476,120.638 L675.476,122.314 C675.476,124.202 675.513,124.649 675.933,125.474 C676.335,126.262 676.976,126.903 677.764,127.305 C678.589,127.725 679.036,127.762 680.924,127.762 Z M680.924,123.571 C679.878,123.571 679.626,123.551 679.666,123.571 C679.667,123.571 679.667,123.571 679.667,123.571 C679.687,123.612 679.667,123.36 679.667,122.314 L679.667,120.638 C679.667,119.592 679.687,119.341 679.667,119.381 C679.667,119.381 679.667,119.381 679.667,119.381 C679.626,119.402 679.878,119.381 680.924,119.381 L682.6,119.381 C683.646,119.381 683.898,119.402 683.857,119.381 C683.857,119.381 683.857,119.381 683.857,119.381 C683.837,119.341 683.857,119.592 683.857,120.638 L683.857,122.314 C683.857,123.36 683.837,123.612 683.857,123.572 C683.857,123.571 683.857,123.571 683.857,123.571 C683.898,123.551 683.646,123.571 682.6,123.571 L680.924,123.571 Z M683.857,100.524 C683.857,100.524 683.857,100.524 683.857,100.524 C683.857,100.524 683.857,100.524 683.857,100.524 C683.857,100.524 683.857,100.524 683.857,100.524 C683.857,100.524 683.857,100.524 683.857,100.524 Z M688.048,100.524 C688.048,98.209 686.171,96.333 683.857,96.333 C681.543,96.333 679.667,98.209 679.667,100.524 C679.667,102.838 681.543,104.714 683.857,104.714 C686.171,104.714 688.048,102.838 688.048,100.524 Z M646.143,100.524 C646.143,100.524 646.143,100.524 646.143,100.524 C646.143,100.524 646.143,100.524 646.143,100.524 C646.143,100.524 646.143,100.524 646.143,100.524 C646.143,100.524 646.143,100.524 646.143,100.524 Z M650.333,100.524 C650.333,98.209 648.457,96.333 646.143,96.333 C643.828,96.333 641.952,98.209 641.952,100.524 C641.952,102.838 643.828,104.714 646.143,104.714 C648.457,104.714 650.333,102.838 650.333,100.524 Z" />
        </g>
    </g>
</svg>