<?xml version="1.0" encoding="UTF-8"?>
<svg height="600" width="800" xmlns="http://www.w3.org/2000/svg" xmlns:xlink="http://www.w3.org/1999/xlink">
    <g id="Notes" font-family="LucidaGrande, 'Lucida Grande', sans-serif" font-size="13">
        <rect fill="white" height="600.0" width="800.0" x="0.0" y="0.0" />
        <g font-size="13">
            <text x="18.0" y="176.0">Small</text>
            <text x="18.0" y="376.0">Medium</text>
            <text x="18.0" y="576.0">Large</text>
        </g>
        <g font-size="9">
            <text x="250.0" y="30.0">Ultralight</text>
            <text x="450.0" y="30.0">Regular</text>
            <text x="650.0" y="30.0">Black</text>
            <text id="template-version" fill="#505050" text-anchor="end" x="785.0" y="575.0">Template v.3.0</text>
            <a href="https://github.com/swhitty/SwiftDraw">
                <text fill="#505050" text-anchor="end" x="785.0" y="590.0">https://github.com/swhitty/SwiftDraw</text>
            </a>
        </g>
    </g>
    <g id="Guides" stroke="rgb(39, 170, 225)" stroke-width="0.5">
        <path id="Capline-S" d="M18,76 l800,0" />
        <path id="H-reference" d="M85,145.755 L87.685,145.755 L113.369,79.287 L114.052,79.287 L114.052,76 L112.148,76 L85,145.755 Z M95.693,121.536 L130.996,121.536 L130.263,119.313 L96.474,119.313 L95.693,121.536 Z M139.15,145.755 L141.787,145.755 L114.638,76 L113.466,76 L113.466,79.287 L139.15,145.755 Z" stroke="none" transform="translate(0,200)" />
        <path id="Baseline-S" d="M18,146 l800,0" />
        <path id="left-margin-Ultralight-M" d="M230,256 l0,110" />
        <path id="right-margin-Ultralight-M" d="M300,256 l0,110" />
        <path id="left-margin-Regular-M" d="M430,256 l0,110" />
        <path id="right-margin-Regular-M" d="M500,256 l0,110" />
        <path id="left-margin-Black-M" d="M630,256 l0,110" />
        <path id="right-margin-Black-M" d="M700,256 l0,110" />
        <path id="Capline-M" d="M18,276 l800,0" />
        <path id="Baseline-M" d="M18,346 l800,0" />
        <path id="Capline-L" d="M18,476 l800,0" />
        <path id="Baseline-L" d="M18,546 l800,0" />
    </g>
    <g id="Symbols">
        <g id="Ultralight-M" transform="translate(0,200)">
            <path d="M234.667,114.889 L272,114.889 C284.887,114.889 295.333,106.183 295.333,95.444 C295.333,84.706 284.887,76 272,76 L234.667,76 C232.089,76 230,77.741 230,79.889 L230,111 C230,113.148 232.089,114.889 234.667,114.889 Z M234.667,107.111 L239.333,111 L239.333,79.889 L234.667,83.778 L272,83.778 C279.732,83.778 286,89.001 286,95.444 C286,101.888 279.732,107.111 272,107.111 L234.667,107.111 Z M234.667,114.889 L276.667,114.889 C284.399,114.889 290.667,120.112 290.667,126.556 C290.667,132.999 284.399,138.222 276.667,138.222 L234.667,138.222 L239.333,142.111 L239.333,111 L234.667,114.889 Z M234.667,107.111 C232.089,107.111 230,108.852 230,111 L230,142.111 C230,144.259 232.089,146 234.667,146 L276.667,146 C289.553,146 300,137.294 300,126.556 C300,115.817 289.553,107.111 276.667,107.111 L234.667,107.111 Z" />
        </g>
        <g id="Regular-M" transform="translate(0,200)">
            <path d="M434.667,114.889 L472,114.889 C484.887,114.889 495.333,106.183 495.333,95.444 C495.333,84.706 484.887,76 472,76 L434.667,76 C432.089,76 430,77.741 430,79.889 L430,111 C430,113.148 432.089,114.889 434.667,114.889 Z M434.667,107.111 L439.333,111 L439.333,79.889 L434.667,83.778 L472,83.778 C479.732,83.778 486,89.001 486,95.444 C486,101.888 479.732,107.111 472,107.111 L434.667,107.111 Z M434.667,114.889 L476.667,114.889 C484.399,114.889 490.667,120.112 490.667,126.556 C490.667,132.999 484.399,138.222 476.667,138.222 L434.667,138.222 L439.333,142.111 L439.333,111 L434.667,114.889 Z M434.667,107.111 C432.089,107.111 430,108.852 430,111 L430,142.111 C430,144.259 432.089,146 434.667,146 L476.667,146 C489.553,146 500,137.294 500,126.556 C500,115.817 489.553,107.111 476.667,107.111 L434.667,107.111 Z" />
        </g>
        <g id="Black-M" transform="translate(0,200)">
            <path d="M634.667,114.889 L672,114.889 C684.887,114.889 695.333,106.183 695.333,95.444 C695.333,84.706 684.887,76 672,76 L634.667,76 C632.089,76 630,77.741 630,79.889 L630,111 C630,113.148 632.089,114.889 634.667,114.889 Z M634.667,107.111 L639.333,111 L639.333,79.889 L634.667,83.778 L672,83.778 C679.732,83.778 686,89.001 686,95.444 C686,101.888 679.732,107.111 672,107.111 L634.667,107.111 Z M634.667,114.889 L676.667,114.889 C684.399,114.889 690.667,120.112 690.667,126.556 C690.667,132.999 684.399,138.222 676.667,138.222 L634.667,138.222 L639.333,142.111 L639.333,111 L634.667,114.889 Z M634.667,107.111 C632.089,107.111 630,108.852 630,111 L630,142.111 C630,144.259 632.089,146 634.667,146 L676.667,146 C689.553,146 700,137.294 700,126.556 C700,115.817 689.553,107.111 676.667,107.111 L634.667,107.111 Z" />
        </g>
    </g>
</svg>