<?xml version="1.0" encoding="UTF-8"?>
<svg height="600" width="800" xmlns="http://www.w3.org/2000/svg" xmlns:xlink="http://www.w3.org/1999/xlink">
    <g id="Notes" font-family="LucidaGrande, 'Lucida Grande', sans-serif" font-size="13">
        <rect fill="white" height="600.0" width="800.0" x="0.0" y="0.0" />
        <g font-size="13">
            <text x="18.0" y="176.0">Small</text>
            <text x="18.0" y="376.0">Medium</text>
            <text x="18.0" y="576.0">Large</text>
        </g>
        <g font-size="9">
            <text x="250.0" y="30.0">Ultralight</text>
            <text x="450.0" y="30.0">Regular</text>
            <text x="650.0" y="30.0">Black</text>
            <text id="template-version" fill="#505050" text-anchor="end" x="785.0" y="575.0">Template v.3.0</text>
            <a href="https://github.com/swhitty/SwiftDraw">
                <text fill="#505050" text-anchor="end" x="785.0" y="590.0">https://github.com/swhitty/SwiftDraw</text>
            </a>
        </g>
    </g>
    <g id="Guides" stroke="rgb(39, 170, 225)" stroke-width="0.5">
        <path id="Capline-S" d="M18,76 l800,0" />
        <path id="H-reference" d="M85,145.755 L87.685,145.755 L113.369,79.287 L114.052,79.287 L114.052,76 L112.148,76 L85,145.755 Z M95.693,121.536 L130.996,121.536 L130.263,119.313 L96.474,119.313 L95.693,121.536 Z M139.15,145.755 L141.787,145.755 L114.638,76 L113.466,76 L113.466,79.287 L139.15,145.755 Z" stroke="none" transform="translate(0,200)" />
        <path id="Baseline-S" d="M18,146 l800,0" />
        <path id="left-margin-Ultralight-M" d="M221,256 l0,110" />
        <path id="right-margin-Ultralight-M" d="M309,256 l0,110" />
        <path id="left-margin-Regular-M" d="M421,256 l0,110" />
        <path id="right-margin-Regular-M" d="M509,256 l0,110" />
        <path id="left-margin-Black-M" d="M621,256 l0,110" />
        <path id="right-margin-Black-M" d="M709,256 l0,110" />
        <path id="Capline-M" d="M18,276 l800,0" />
        <path id="Baseline-M" d="M18,346 l800,0" />
        <path id="Capline-L" d="M18,476 l800,0" />
        <path id="Baseline-L" d="M18,546 l800,0" />
    </g>
    <g id="Symbols">
        <g id="Ultralight-M" transform="translate(0,200)">
            <path d="M265,125.667 L250.752,125.667 C248.24,125.667 247.639,125.618 247.287,125.438 C246.893,125.237 246.572,124.917 246.371,124.523 C246.192,124.171 246.143,123.569 246.143,121.057 L246.143,100.943 C246.143,98.431 246.192,97.829 246.371,97.477 C246.572,97.083 246.893,96.763 247.287,96.562 C247.639,96.382 248.24,96.333 250.752,96.333 L251.59,96.333 C257.036,96.333 258.336,96.44 259.473,97.019 C260.655,97.621 261.617,98.583 262.22,99.765 C262.799,100.902 262.905,102.202 262.905,107.648 C262.905,108.805 263.843,109.743 265,109.743 C266.157,109.743 267.095,108.805 267.095,107.648 C267.095,101.36 266.973,99.865 265.953,97.863 C264.949,95.892 263.346,94.289 261.375,93.285 C259.373,92.265 257.878,92.143 251.59,92.143 L250.752,92.143 C247.398,92.143 246.602,92.208 245.385,92.828 C244.202,93.431 243.24,94.392 242.638,95.575 C242.017,96.792 241.952,97.589 241.952,100.943 L241.952,121.057 C241.952,124.411 242.017,125.208 242.637,126.425 C243.24,127.608 244.202,128.569 245.384,129.172 C246.602,129.792 247.398,129.857 250.752,129.857 L265,129.857 C266.157,129.857 267.095,128.919 267.095,127.762 C267.095,126.605 266.157,125.667 265,125.667 Z M267.095,127.762 L267.095,107.648 C267.095,106.49 266.157,105.552 265,105.552 C263.843,105.552 262.905,106.49 262.905,107.648 L262.905,127.762 C262.905,128.919 263.843,129.857 265,129.857 C266.157,129.857 267.095,128.919 267.095,127.762 Z M265,129.857 L279.248,129.857 C282.602,129.857 283.398,129.792 284.615,129.172 C285.798,128.569 286.76,127.608 287.362,126.425 C287.983,125.208 288.048,124.411 288.048,121.057 L288.048,100.943 C288.048,97.589 287.983,96.792 287.363,95.575 C286.76,94.392 285.798,93.431 284.616,92.828 C283.398,92.208 282.602,92.143 279.248,92.143 L278.41,92.143 C272.122,92.143 270.627,92.265 268.625,93.285 C266.654,94.289 265.051,95.892 264.047,97.863 C263.027,99.865 262.905,101.36 262.905,107.648 C262.905,108.805 263.843,109.743 265,109.743 C266.157,109.743 267.095,108.805 267.095,107.648 C267.095,102.202 267.201,100.902 267.781,99.765 C268.383,98.583 269.345,97.621 270.527,97.018 C271.664,96.44 272.964,96.333 278.41,96.333 L279.248,96.333 C281.76,96.333 282.361,96.382 282.713,96.562 C283.107,96.763 283.428,97.083 283.629,97.477 C283.808,97.829 283.857,98.431 283.857,100.943 L283.857,121.057 C283.857,123.569 283.808,124.171 283.629,124.523 C283.428,124.917 283.107,125.237 282.713,125.438 C282.361,125.618 281.76,125.667 279.248,125.667 L265,125.667 C263.843,125.667 262.905,126.605 262.905,127.762 C262.905,128.919 263.843,129.857 265,129.857 Z" />
        </g>
        <g id="Regular-M" transform="translate(0,200)">
            <path d="M465,125.667 L450.752,125.667 C448.24,125.667 447.639,125.618 447.287,125.438 C446.893,125.237 446.572,124.917 446.371,124.523 C446.192,124.171 446.143,123.569 446.143,121.057 L446.143,100.943 C446.143,98.431 446.192,97.829 446.371,97.477 C446.572,97.083 446.893,96.763 447.287,96.562 C447.639,96.382 448.24,96.333 450.752,96.333 L451.59,96.333 C457.036,96.333 458.336,96.44 459.473,97.019 C460.655,97.621 461.617,98.583 462.22,99.765 C462.799,100.902 462.905,102.202 462.905,107.648 C462.905,108.805 463.843,109.743 465,109.743 C466.157,109.743 467.095,108.805 467.095,107.648 C467.095,101.36 466.973,99.865 465.953,97.863 C464.949,95.892 463.346,94.289 461.375,93.285 C459.373,92.265 457.878,92.143 451.59,92.143 L450.752,92.143 C447.398,92.143 446.602,92.208 445.385,92.828 C444.202,93.431 443.24,94.392 442.638,95.575 C442.017,96.792 441.952,97.589 441.952,100.943 L441.952,121.057 C441.952,124.411 442.017,125.208 442.637,126.425 C443.24,127.608 444.202,128.569 445.384,129.172 C446.602,129.792 447.398,129.857 450.752,129.857 L465,129.857 C466.157,129.857 467.095,128.919 467.095,127.762 C467.095,126.605 466.157,125.667 465,125.667 Z M467.095,127.762 L467.095,107.648 C467.095,106.49 466.157,105.552 465,105.552 C463.843,105.552 462.905,106.49 462.905,107.648 L462.905,127.762 C462.905,128.919 463.843,129.857 465,129.857 C466.157,129.857 467.095,128.919 467.095,127.762 Z M465,129.857 L479.248,129.857 C482.602,129.857 483.398,129.792 484.615,129.172 C485.798,128.569 486.76,127.608 487.362,126.425 C487.983,125.208 488.048,124.411 488.048,121.057 L488.048,100.943 C488.048,97.589 487.983,96.792 487.363,95.575 C486.76,94.392 485.798,93.431 484.616,92.828 C483.398,92.208 482.602,92.143 479.248,92.143 L478.41,92.143 C472.122,92.143 470.627,92.265 468.625,93.285 C466.654,94.289 465.051,95.892 464.047,97.863 C463.027,99.865 462.905,101.36 462.905,107.648 C462.905,108.805 463.843,109.743 465,109.743 C466.157,109.743 467.095,108.805 467.095,107.648 C467.095,102.202 467.201,100.902 467.781,99.765 C468.383,98.583 469.345,97.621 470.527,97.018 C471.664,96.44 472.964,96.333 478.41,96.333 L479.248,96.333 C481.76,96.333 482.361,96.382 482.713,96.562 C483.107,96.763 483.428,97.083 483.629,97.477 C483.808,97.829 483.857,98.431 483.857,100.943 L483.857,121.057 C483.857,123.569 483.808,124.171 483.629,124.523 C483.428,124.917 483.107,125.237 482.713,125.438 C482.361,125.618 481.76,125.667 479.248,125.667 L465,125.667 C463.843,125.667 462.905,126.605 462.905,127.762 C462.905,128.919 463.843,129.857 465,129.857 Z" />
        </g>
        <g id="Black-M" transform="translate(0,200)">
            <path d="M665,125.667 L650.752,125.667 C648.24,125.667 647.639,125.618 647.287,125.438 C646.893,125.237 646.572,124.917 646.371,124.523 C646.192,124.171 646.143,123.569 646.143,121.057 L646.143,100.943 C646.143,98.431 646.192,97.829 646.371,97.477 C646.572,97.083 646.893,96.763 647.287,96.562 C647.639,96.382 648.24,96.333 650.752,96.333 L651.59,96.333 C657.036,96.333 658.336,96.44 659.473,97.019 C660.655,97.621 661.617,98.583 662.22,99.765 C662.799,100.902 662.905,102.202 662.905,107.648 C662.905,108.805 663.843,109.743 665,109.743 C666.157,109.743 667.095,108.805 667.095,107.648 C667.095,101.36 666.973,99.865 665.953,97.863 C664.949,95.892 663.346,94.289 661.375,93.285 C659.373,92.265 657.878,92.143 651.59,92.143 L650.752,92.143 C647.398,92.143 646.602,92.208 645.385,92.828 C644.202,93.431 643.24,94.392 642.638,95.575 C642.017,96.792 641.952,97.589 641.952,100.943 L641.952,121.057 C641.952,124.411 642.017,125.208 642.637,126.425 C643.24,127.608 644.202,128.569 645.384,129.172 C646.602,129.792 647.398,129.857 650.752,129.857 L665,129.857 C666.157,129.857 667.095,128.919 667.095,127.762 C667.095,126.605 666.157,125.667 665,125.667 Z M667.095,127.762 L667.095,107.648 C667.095,106.49 666.157,105.552 665,105.552 C663.843,105.552 662.905,106.49 662.905,107.648 L662.905,127.762 C662.905,128.919 663.843,129.857 665,129.857 C666.157,129.857 667.095,128.919 667.095,127.762 Z M665,129.857 L679.248,129.857 C682.602,129.857 683.398,129.792 684.615,129.172 C685.798,128.569 686.76,127.608 687.362,126.425 C687.983,125.208 688.048,124.411 688.048,121.057 L688.048,100.943 C688.048,97.589 687.983,96.792 687.363,95.575 C686.76,94.392 685.798,93.431 684.616,92.828 C683.398,92.208 682.602,92.143 679.248,92.143 L678.409,92.143 C672.122,92.143 670.627,92.265 668.625,93.285 C666.654,94.289 665.051,95.892 664.047,97.863 C663.027,99.865 662.905,101.36 662.905,107.648 C662.905,108.805 663.843,109.743 665,109.743 C666.157,109.743 667.095,108.805 667.095,107.648 C667.095,102.202 667.201,100.902 667.781,99.765 C668.383,98.583 669.345,97.621 670.527,97.018 C671.664,96.44 672.964,96.333 678.409,96.333 L679.248,96.333 C681.76,96.333 682.361,96.382 682.713,96.562 C683.107,96.763 683.428,97.083 683.629,97.477 C683.808,97.829 683.857,98.431 683.857,100.943 L683.857,121.057 C683.857,123.569 683.808,124.171 683.629,124.523 C683.428,124.917 683.107,125.237 682.713,125.438 C682.361,125.618 681.76,125.667 679.248,125.667 L665,125.667 C663.843,125.667 662.905,126.605 662.905,127.762 C662.905,128.919 663.843,129.857 665,129.857 Z" />
        </g>
    </g>
</svg>