<?xml version="1.0" encoding="UTF-8"?>
<svg height="600" width="800" xmlns="http://www.w3.org/2000/svg" xmlns:xlink="http://www.w3.org/1999/xlink">
    <g id="Notes" font-family="LucidaGrande, 'Lucida Grande', sans-serif" font-size="13">
        <rect fill="white" height="600.0" width="800.0" x="0.0" y="0.0" />
        <g font-size="13">
            <text x="18.0" y="176.0">Small</text>
            <text x="18.0" y="376.0">Medium</text>
            <text x="18.0" y="576.0">Large</text>
        </g>
        <g font-size="9">
            <text x="250.0" y="30.0">Ultralight</text>
            <text x="450.0" y="30.0">Regular</text>
            <text x="650.0" y="30.0">Black</text>
            <text id="template-version" fill="#505050" text-anchor="end" x="785.0" y="575.0">Template v.3.0</text>
            <a href="https://github.com/swhitty/SwiftDraw">
                <text fill="#505050" text-anchor="end" x="785.0" y="590.0">https://github.com/swhitty/SwiftDraw</text>
            </a>
        </g>
    </g>
    <g id="Guides" stroke="rgb(39, 170, 225)" stroke-width="0.5">
        <path id="Capline-S" d="M18,76 l800,0" />
        <path id="H-reference" d="M85,145.755 L87.685,145.755 L113.369,79.287 L114.052,79.287 L114.052,76 L112.148,76 L85,145.755 Z M95.693,121.536 L130.996,121.536 L130.263,119.313 L96.474,119.313 L95.693,121.536 Z M139.15,145.755 L141.787,145.755 L114.638,76 L113.466,76 L113.466,79.287 L139.15,145.755 Z" stroke="none" transform="translate(0,200)" />
        <path id="Baseline-S" d="M18,146 l800,0" />
        <path id="left-margin-Ultralight-M" d="M226.5,256 l0,110" />
        <path id="right-margin-Ultralight-M" d="M303.5,256 l0,110" />
        <path id="left-margin-Regular-M" d="M426.5,256 l0,110" />
        <path id="right-margin-Regular-M" d="M503.5,256 l0,110" />
        <path id="left-margin-Black-M" d="M626.5,256 l0,110" />
        <path id="right-margin-Black-M" d="M703.5,256 l0,110" />
        <path id="Capline-M" d="M18,276 l800,0" />
        <path id="Baseline-M" d="M18,346 l800,0" />
        <path id="Capline-L" d="M18,476 l800,0" />
        <path id="Baseline-L" d="M18,546 l800,0" />
    </g>
    <g id="Symbols">
        <g id="Ultralight-M" transform="translate(0,200)">
            <path d="M291.25,97 L291.25,125.7 C291.25,132.347 291.12,133.935 290.487,135.178 C289.816,136.495 288.745,137.566 287.428,138.237 C286.185,138.87 284.597,139 277.95,139 L252.05,139 C245.403,139 243.815,138.87 242.572,138.237 C241.255,137.566 240.184,136.495 239.513,135.178 C238.88,133.935 238.75,132.347 238.75,125.7 L238.75,97 C238.75,95.067 237.183,93.5 235.25,93.5 C233.317,93.5 231.75,95.067 231.75,97 L231.75,125.7 C231.75,133.753 231.906,135.667 233.276,138.356 C234.618,140.99 236.76,143.132 239.394,144.474 C242.083,145.844 243.997,146 252.05,146 L277.95,146 C286.003,146 287.917,145.844 290.606,144.474 C293.24,143.132 295.382,140.99 296.724,138.356 C298.094,135.667 298.25,133.753 298.25,125.7 L298.25,97 C298.25,95.067 296.683,93.5 294.75,93.5 C292.817,93.5 291.25,95.067 291.25,97 Z M235.6,83 L294.4,83 C296.147,83 296.567,83.034 296.5,83 C296.5,83 296.5,83 296.5,83 C296.466,82.933 296.5,83.353 296.5,85.1 L296.5,91.4 C296.5,93.147 296.466,93.567 296.5,93.5 C296.5,93.5 296.5,93.5 296.5,93.5 C296.567,93.466 296.147,93.5 294.4,93.5 L235.6,93.5 C233.853,93.5 233.433,93.466 233.5,93.5 C233.5,93.5 233.5,93.5 233.5,93.5 C233.534,93.567 233.5,93.147 233.5,91.4 L233.5,85.1 C233.5,83.353 233.534,82.933 233.5,83 C233.5,83 233.5,83 233.5,83 C233.433,83.034 233.853,83 235.6,83 Z M235.6,76 C232.447,76 231.7,76.061 230.322,76.763 C229.005,77.434 227.934,78.505 227.263,79.822 C226.561,81.2 226.5,81.947 226.5,85.1 L226.5,91.4 C226.5,94.553 226.561,95.3 227.263,96.678 C227.934,97.995 229.005,99.066 230.322,99.737 C231.7,100.439 232.447,100.5 235.6,100.5 L294.4,100.5 C297.553,100.5 298.3,100.439 299.678,99.737 C300.995,99.066 302.066,97.995 302.737,96.678 C303.439,95.3 303.5,94.553 303.5,91.4 L303.5,85.1 C303.5,81.947 303.439,81.2 302.737,79.822 C302.066,78.505 300.995,77.434 299.678,76.763 C298.3,76.061 297.553,76 294.4,76 L235.6,76 Z M256.6,112.75 L273.4,112.75 C275.147,112.75 275.567,112.784 275.5,112.75 C275.5,112.75 275.5,112.75 275.5,112.75 C275.466,112.683 275.5,113.103 275.5,114.85 L275.5,117.65 C275.5,119.397 275.466,119.817 275.5,119.75 C275.5,119.75 275.5,119.75 275.5,119.75 C275.567,119.716 275.147,119.75 273.4,119.75 L256.6,119.75 C254.853,119.75 254.433,119.716 254.5,119.75 C254.5,119.75 254.5,119.75 254.5,119.75 C254.534,119.817 254.5,119.397 254.5,117.65 L254.5,114.85 C254.5,113.103 254.534,112.683 254.5,112.75 C254.5,112.75 254.5,112.75 254.5,112.75 C254.433,112.784 254.853,112.75 256.6,112.75 Z M256.6,105.75 C253.447,105.75 252.7,105.811 251.322,106.513 C250.005,107.184 248.934,108.255 248.263,109.572 C247.561,110.95 247.5,111.697 247.5,114.85 L247.5,117.65 C247.5,120.803 247.561,121.55 248.263,122.928 C248.934,124.245 250.005,125.316 251.322,125.987 C252.7,126.689 253.447,126.75 256.6,126.75 L273.4,126.75 C276.553,126.75 277.3,126.689 278.678,125.987 C279.995,125.316 281.066,124.245 281.737,122.928 C282.439,121.55 282.5,120.803 282.5,117.65 L282.5,114.85 C282.5,111.697 282.439,110.95 281.737,109.572 C281.066,108.255 279.995,107.184 278.678,106.513 C277.3,105.811 276.553,105.75 273.4,105.75 L256.6,105.75 Z" />
        </g>
        <g id="Regular-M" transform="translate(0,200)">
            <path d="M491.25,97 L491.25,125.7 C491.25,132.347 491.12,133.935 490.487,135.178 C489.816,136.495 488.745,137.566 487.428,138.237 C486.185,138.87 484.597,139 477.95,139 L452.05,139 C445.403,139 443.815,138.87 442.572,138.237 C441.255,137.566 440.184,136.495 439.513,135.178 C438.88,133.935 438.75,132.347 438.75,125.7 L438.75,97 C438.75,95.067 437.183,93.5 435.25,93.5 C433.317,93.5 431.75,95.067 431.75,97 L431.75,125.7 C431.75,133.753 431.906,135.667 433.276,138.356 C434.618,140.99 436.76,143.132 439.394,144.474 C442.083,145.844 443.997,146 452.05,146 L477.95,146 C486.003,146 487.917,145.844 490.606,144.474 C493.24,143.132 495.382,140.99 496.724,138.356 C498.094,135.667 498.25,133.753 498.25,125.7 L498.25,97 C498.25,95.067 496.683,93.5 494.75,93.5 C492.817,93.5 491.25,95.067 491.25,97 Z M435.6,83 L494.4,83 C496.147,83 496.567,83.034 496.5,83 C496.5,83 496.5,83 496.5,83 C496.466,82.933 496.5,83.353 496.5,85.1 L496.5,91.4 C496.5,93.147 496.466,93.567 496.5,93.5 C496.5,93.5 496.5,93.5 496.5,93.5 C496.567,93.466 496.147,93.5 494.4,93.5 L435.6,93.5 C433.853,93.5 433.433,93.466 433.5,93.5 C433.5,93.5 433.5,93.5 433.5,93.5 C433.534,93.567 433.5,93.147 433.5,91.4 L433.5,85.1 C433.5,83.353 433.534,82.933 433.5,83 C433.5,83 433.5,83 433.5,83 C433.433,83.034 433.853,83 435.6,83 Z M435.6,76 C432.447,76 431.7,76.061 430.322,76.763 C429.005,77.434 427.934,78.505 427.263,79.822 C426.561,81.2 426.5,81.947 426.5,85.1 L426.5,91.4 C426.5,94.553 426.561,95.3 427.263,96.678 C427.934,97.995 429.005,99.066 430.322,99.737 C431.7,100.439 432.447,100.5 435.6,100.5 L494.4,100.5 C497.553,100.5 498.3,100.439 499.678,99.737 C500.995,99.066 502.066,97.995 502.737,96.678 C503.439,95.3 503.5,94.553 503.5,91.4 L503.5,85.1 C503.5,81.947 503.439,81.2 502.737,79.822 C502.066,78.505 500.995,77.434 499.678,76.763 C498.3,76.061 497.553,76 494.4,76 L435.6,76 Z M456.6,112.75 L473.4,112.75 C475.147,112.75 475.567,112.784 475.5,112.75 C475.5,112.75 475.5,112.75 475.5,112.75 C475.466,112.683 475.5,113.103 475.5,114.85 L475.5,117.65 C475.5,119.397 475.466,119.817 475.5,119.75 C475.5,119.75 475.5,119.75 475.5,119.75 C475.567,119.716 475.147,119.75 473.4,119.75 L456.6,119.75 C454.853,119.75 454.433,119.716 454.5,119.75 C454.5,119.75 454.5,119.75 454.5,119.75 C454.534,119.817 454.5,119.397 454.5,117.65 L454.5,114.85 C454.5,113.103 454.534,112.683 454.5,112.75 C454.5,112.75 454.5,112.75 454.5,112.75 C454.433,112.784 454.853,112.75 456.6,112.75 Z M456.6,105.75 C453.447,105.75 452.7,105.811 451.322,106.513 C450.005,107.184 448.934,108.255 448.263,109.572 C447.561,110.95 447.5,111.697 447.5,114.85 L447.5,117.65 C447.5,120.803 447.561,121.55 448.263,122.928 C448.934,124.245 450.005,125.316 451.322,125.987 C452.7,126.689 453.447,126.75 456.6,126.75 L473.4,126.75 C476.553,126.75 477.3,126.689 478.678,125.987 C479.995,125.316 481.066,124.245 481.737,122.928 C482.439,121.55 482.5,120.803 482.5,117.65 L482.5,114.85 C482.5,111.697 482.439,110.95 481.737,109.572 C481.066,108.255 479.995,107.184 478.678,106.513 C477.3,105.811 476.553,105.75 473.4,105.75 L456.6,105.75 Z" />
        </g>
        <g id="Black-M" transform="translate(0,200)">
            <path d="M691.25,97 L691.25,125.7 C691.25,132.347 691.12,133.935 690.487,135.178 C689.816,136.495 688.745,137.566 687.428,138.237 C686.185,138.87 684.597,139 677.95,139 L652.05,139 C645.403,139 643.815,138.87 642.572,138.237 C641.255,137.566 640.184,136.495 639.513,135.178 C638.88,133.935 638.75,132.347 638.75,125.7 L638.75,97 C638.75,95.067 637.183,93.5 635.25,93.5 C633.317,93.5 631.75,95.067 631.75,97 L631.75,125.7 C631.75,133.753 631.906,135.667 633.276,138.356 C634.618,140.99 636.76,143.132 639.394,144.474 C642.083,145.844 643.997,146 652.05,146 L677.95,146 C686.003,146 687.917,145.844 690.606,144.474 C693.24,143.132 695.382,140.99 696.724,138.356 C698.094,135.667 698.25,133.753 698.25,125.7 L698.25,97 C698.25,95.067 696.683,93.5 694.75,93.5 C692.817,93.5 691.25,95.067 691.25,97 Z M635.6,83 L694.4,83 C696.147,83 696.568,83.034 696.5,83 C696.5,83 696.5,83 696.5,83 C696.466,82.933 696.5,83.353 696.5,85.1 L696.5,91.4 C696.5,93.147 696.466,93.567 696.5,93.5 C696.5,93.5 696.5,93.5 696.5,93.5 C696.568,93.466 696.147,93.5 694.4,93.5 L635.6,93.5 C633.853,93.5 633.432,93.466 633.5,93.5 C633.5,93.5 633.5,93.5 633.5,93.5 C633.534,93.567 633.5,93.147 633.5,91.4 L633.5,85.1 C633.5,83.353 633.534,82.933 633.5,83 C633.5,83 633.5,83 633.5,83 C633.432,83.034 633.853,83 635.6,83 Z M635.6,76 C632.447,76 631.7,76.061 630.323,76.763 C629.005,77.434 627.934,78.505 627.263,79.822 C626.561,81.2 626.5,81.947 626.5,85.1 L626.5,91.4 C626.5,94.553 626.561,95.3 627.263,96.678 C627.934,97.995 629.005,99.066 630.322,99.737 C631.7,100.439 632.447,100.5 635.6,100.5 L694.4,100.5 C697.553,100.5 698.3,100.439 699.678,99.737 C700.995,99.066 702.066,97.995 702.737,96.678 C703.439,95.3 703.5,94.553 703.5,91.4 L703.5,85.1 C703.5,81.947 703.439,81.2 702.737,79.822 C702.066,78.505 700.995,77.434 699.678,76.763 C698.3,76.061 697.553,76 694.4,76 L635.6,76 Z M656.6,112.75 L673.4,112.75 C675.147,112.75 675.568,112.784 675.5,112.75 C675.5,112.75 675.5,112.75 675.5,112.75 C675.466,112.683 675.5,113.103 675.5,114.85 L675.5,117.65 C675.5,119.397 675.466,119.817 675.5,119.75 C675.5,119.75 675.5,119.75 675.5,119.75 C675.568,119.716 675.147,119.75 673.4,119.75 L656.6,119.75 C654.853,119.75 654.432,119.716 654.5,119.75 C654.5,119.75 654.5,119.75 654.5,119.75 C654.534,119.817 654.5,119.397 654.5,117.65 L654.5,114.85 C654.5,113.103 654.534,112.683 654.5,112.75 C654.5,112.75 654.5,112.75 654.5,112.75 C654.432,112.784 654.853,112.75 656.6,112.75 Z M656.6,105.75 C653.447,105.75 652.7,105.811 651.323,106.513 C650.005,107.184 648.934,108.255 648.263,109.572 C647.561,110.95 647.5,111.697 647.5,114.85 L647.5,117.65 C647.5,120.803 647.561,121.55 648.263,122.928 C648.934,124.245 650.005,125.316 651.322,125.987 C652.7,126.689 653.447,126.75 656.6,126.75 L673.4,126.75 C676.553,126.75 677.3,126.689 678.677,125.987 C679.995,125.316 681.066,124.245 681.737,122.928 C682.439,121.55 682.5,120.803 682.5,117.65 L682.5,114.85 C682.5,111.697 682.439,110.95 681.737,109.572 C681.066,108.255 679.995,107.184 678.678,106.513 C677.3,105.811 676.553,105.75 673.4,105.75 L656.6,105.75 Z" />
        </g>
    </g>
</svg>