<?xml version="1.0" encoding="UTF-8"?>
<svg height="600" width="800" xmlns="http://www.w3.org/2000/svg" xmlns:xlink="http://www.w3.org/1999/xlink">
    <g id="Notes" font-family="LucidaGrande, 'Lucida Grande', sans-serif" font-size="13">
        <rect fill="white" height="600.0" width="800.0" x="0.0" y="0.0" />
        <g font-size="13">
            <text x="18.0" y="176.0">Small</text>
            <text x="18.0" y="376.0">Medium</text>
            <text x="18.0" y="576.0">Large</text>
        </g>
        <g font-size="9">
            <text x="250.0" y="30.0">Ultralight</text>
            <text x="450.0" y="30.0">Regular</text>
            <text x="650.0" y="30.0">Black</text>
            <text id="template-version" fill="#505050" text-anchor="end" x="785.0" y="575.0">Template v.3.0</text>
            <a href="https://github.com/swhitty/SwiftDraw">
                <text fill="#505050" text-anchor="end" x="785.0" y="590.0">https://github.com/swhitty/SwiftDraw</text>
            </a>
        </g>
    </g>
    <g id="Guides" stroke="rgb(39, 170, 225)" stroke-width="0.5">
        <path id="Capline-S" d="M18,76 l800,0" />
        <path id="H-reference" d="M85,145.755 L87.685,145.755 L113.369,79.287 L114.052,79.287 L114.052,76 L112.148,76 L85,145.755 Z M95.693,121.536 L130.996,121.536 L130.263,119.313 L96.474,119.313 L95.693,121.536 Z M139.15,145.755 L141.787,145.755 L114.638,76 L113.466,76 L113.466,79.287 L139.15,145.755 Z" stroke="none" transform="translate(0,200)" />
        <path id="Baseline-S" d="M18,146 l800,0" />
        <path id="left-margin-Ultralight-M" d="M230,256 l0,110" />
        <path id="right-margin-Ultralight-M" d="M300,256 l0,110" />
        <path id="left-margin-Regular-M" d="M430,256 l0,110" />
        <path id="right-margin-Regular-M" d="M500,256 l0,110" />
        <path id="left-margin-Black-M" d="M630,256 l0,110" />
        <path id="right-margin-Black-M" d="M700,256 l0,110" />
        <path id="Capline-M" d="M18,276 l800,0" />
        <path id="Baseline-M" d="M18,346 l800,0" />
        <path id="Capline-L" d="M18,476 l800,0" />
        <path id="Baseline-L" d="M18,546 l800,0" />
    </g>
    <g id="Symbols">
        <g id="Ultralight-M" transform="translate(0,200)">
            <path d="M253.581,110.173 L265.766,122.357 C267.025,123.617 269.067,123.617 270.327,122.357 C271.586,121.098 271.586,119.056 270.327,117.796 L258.142,105.612 C256.883,104.353 254.841,104.353 253.581,105.612 C252.322,106.872 252.322,108.914 253.581,110.173 Z M250.276,137.066 C248.493,138.849 245.365,139.557 240.078,139.55 C239.151,139.548 238.357,139.533 236.734,139.49 C234.923,139.442 234.217,139.427 233.286,139.427 L236.156,144.123 C237.396,141.704 237.849,139.123 237.858,135.874 C237.86,134.993 237.839,134.282 237.777,132.812 C237.584,128.247 237.802,126.733 238.873,125.663 C242.021,122.514 247.127,122.514 250.276,125.663 C253.425,128.812 253.425,133.917 250.276,137.066 Z M254.837,141.627 C260.504,135.959 260.504,126.77 254.837,121.102 C249.169,115.434 239.979,115.434 234.312,121.102 C231.45,123.964 231.062,126.658 231.332,133.083 C231.39,134.459 231.41,135.103 231.408,135.856 C231.401,138.179 231.113,139.822 230.416,141.181 C229.316,143.327 230.875,145.877 233.286,145.877 C234.139,145.877 234.812,145.891 236.563,145.938 C238.238,145.982 239.07,145.999 240.069,146 C246.948,146.01 251.48,144.984 254.837,141.627 Z M267.652,125.251 L297.119,93.426 C300.956,89.398 300.878,82.992 296.912,79.027 C292.946,75.061 286.541,74.983 282.479,78.851 L250.687,108.294 C248.334,110.472 247.805,111.014 247.153,112.123 C245.432,115.036 245.363,118.646 246.973,121.631 C247.027,121.728 247.027,121.728 247.08,121.821 C247.685,122.867 248.188,123.417 250.356,125.586 C252.588,127.822 253.179,128.356 254.308,128.967 C257.296,130.581 260.909,130.511 263.83,128.784 C263.956,128.709 263.956,128.709 264.081,128.629 C265.073,127.99 265.587,127.48 267.65,125.256 C268.203,124.66 268.51,123.877 268.51,123.063 L268.51,123.06 L265.285,123.06 L267.652,125.251 Z M262.919,120.869 C262.367,121.465 262.06,122.248 262.06,123.06 L262.06,123.063 L265.285,123.063 L262.921,120.87 C261.338,122.577 260.914,122.997 260.586,123.208 C260.567,123.22 260.567,123.22 260.551,123.23 C259.575,123.807 258.37,123.83 257.375,123.293 C257.049,123.116 256.596,122.707 254.92,121.027 C253.263,119.37 252.857,118.926 252.663,118.591 C252.655,118.577 252.655,118.577 252.648,118.565 C252.113,117.573 252.136,116.369 252.711,115.396 C252.899,115.076 253.312,114.653 255.069,113.027 L286.895,83.552 C288.454,82.068 290.861,82.097 292.351,83.587 C293.842,85.078 293.871,87.485 292.417,89.011 L262.919,120.869 Z" />
        </g>
        <g id="Regular-M" transform="translate(0,200)">
            <path d="M453.581,110.173 L465.766,122.357 C467.025,123.617 469.067,123.617 470.327,122.357 C471.586,121.098 471.586,119.056 470.327,117.796 L458.142,105.612 C456.883,104.353 454.841,104.353 453.581,105.612 C452.322,106.872 452.322,108.914 453.581,110.173 Z M450.276,137.066 C448.493,138.849 445.365,139.557 440.078,139.55 C439.151,139.548 438.357,139.533 436.734,139.49 C434.923,139.442 434.217,139.427 433.286,139.427 L436.156,144.123 C437.396,141.704 437.849,139.123 437.858,135.874 C437.86,134.993 437.839,134.282 437.777,132.812 C437.584,128.247 437.802,126.733 438.873,125.663 C442.021,122.514 447.127,122.514 450.276,125.663 C453.425,128.812 453.425,133.917 450.276,137.066 Z M454.837,141.627 C460.504,135.959 460.504,126.77 454.837,121.102 C449.169,115.434 439.979,115.434 434.312,121.102 C431.45,123.964 431.062,126.658 431.332,133.083 C431.39,134.459 431.41,135.103 431.408,135.856 C431.401,138.179 431.113,139.822 430.416,141.181 C429.316,143.327 430.875,145.877 433.286,145.877 C434.139,145.877 434.812,145.891 436.563,145.938 C438.238,145.982 439.07,145.999 440.069,146 C446.948,146.01 451.48,144.984 454.837,141.627 Z M467.652,125.251 L497.119,93.426 C500.956,89.398 500.878,82.992 496.912,79.027 C492.946,75.061 486.541,74.983 482.479,78.851 L450.687,108.294 C448.334,110.472 447.805,111.014 447.153,112.123 C445.432,115.036 445.363,118.646 446.973,121.631 C447.027,121.728 447.027,121.728 447.08,121.821 C447.685,122.867 448.188,123.417 450.356,125.586 C452.588,127.822 453.179,128.356 454.308,128.967 C457.296,130.581 460.909,130.511 463.83,128.784 C463.956,128.709 463.956,128.709 464.081,128.629 C465.073,127.99 465.587,127.48 467.65,125.256 C468.203,124.66 468.51,123.877 468.51,123.063 L468.51,123.06 L465.285,123.06 L467.652,125.251 Z M462.919,120.869 C462.367,121.465 462.06,122.248 462.06,123.06 L462.06,123.063 L465.285,123.063 L462.921,120.87 C461.338,122.577 460.914,122.997 460.586,123.208 C460.567,123.22 460.567,123.22 460.551,123.23 C459.575,123.807 458.37,123.83 457.375,123.293 C457.049,123.116 456.596,122.707 454.92,121.027 C453.263,119.37 452.857,118.926 452.663,118.591 C452.655,118.577 452.655,118.577 452.648,118.565 C452.113,117.573 452.136,116.369 452.711,115.396 C452.899,115.076 453.312,114.653 455.069,113.027 L486.895,83.552 C488.454,82.068 490.861,82.097 492.351,83.587 C493.842,85.078 493.871,87.485 492.417,89.011 L462.919,120.869 Z" />
        </g>
        <g id="Black-M" transform="translate(0,200)">
            <path d="M653.581,110.173 L665.766,122.357 C667.025,123.617 669.067,123.617 670.327,122.357 C671.586,121.098 671.586,119.056 670.327,117.796 L658.142,105.612 C656.883,104.353 654.841,104.353 653.581,105.612 C652.322,106.872 652.322,108.914 653.581,110.173 Z M650.276,137.066 C648.493,138.849 645.365,139.557 640.078,139.55 C639.151,139.548 638.357,139.533 636.734,139.49 C634.923,139.442 634.217,139.427 633.286,139.427 L636.156,144.123 C637.396,141.704 637.849,139.123 637.858,135.874 C637.86,134.993 637.839,134.282 637.777,132.812 C637.584,128.247 637.802,126.733 638.873,125.663 C642.021,122.514 647.127,122.514 650.276,125.663 C653.425,128.812 653.425,133.917 650.276,137.066 Z M654.837,141.627 C660.504,135.959 660.504,126.77 654.837,121.102 C649.169,115.434 639.979,115.434 634.312,121.102 C631.45,123.964 631.062,126.658 631.332,133.083 C631.39,134.459 631.41,135.103 631.408,135.856 C631.401,138.179 631.113,139.822 630.416,141.181 C629.316,143.327 630.875,145.877 633.286,145.877 C634.139,145.877 634.812,145.891 636.563,145.938 C638.238,145.982 639.07,145.999 640.069,146 C646.948,146.01 651.48,144.984 654.837,141.627 Z M667.652,125.251 L697.119,93.426 C700.956,89.398 700.878,82.992 696.912,79.027 C692.946,75.061 686.541,74.983 682.479,78.851 L650.687,108.294 C648.334,110.472 647.805,111.014 647.153,112.123 C645.432,115.036 645.363,118.646 646.973,121.631 C647.027,121.728 647.027,121.728 647.08,121.821 C647.685,122.867 648.188,123.417 650.356,125.586 C652.588,127.822 653.179,128.356 654.308,128.967 C657.296,130.581 660.909,130.511 663.83,128.784 C663.956,128.709 663.956,128.709 664.081,128.629 C665.073,127.99 665.587,127.48 667.65,125.256 C668.203,124.66 668.51,123.877 668.51,123.063 L668.51,123.06 L665.285,123.06 L667.652,125.251 Z M662.919,120.869 C662.367,121.465 662.06,122.248 662.06,123.06 L662.06,123.063 L665.285,123.063 L662.921,120.87 C661.338,122.577 660.914,122.997 660.586,123.208 C660.567,123.22 660.567,123.22 660.551,123.23 C659.575,123.807 658.37,123.83 657.375,123.293 C657.049,123.116 656.596,122.707 654.919,121.027 C653.263,119.37 652.857,118.926 652.663,118.591 C652.655,118.577 652.655,118.577 652.648,118.565 C652.113,117.573 652.136,116.369 652.711,115.396 C652.899,115.076 653.312,114.653 655.069,113.027 L686.895,83.552 C688.454,82.068 690.861,82.097 692.351,83.587 C693.842,85.078 693.871,87.485 692.417,89.011 L662.919,120.869 Z" />
        </g>
    </g>
</svg>