<?xml version="1.0" encoding="UTF-8"?>
<svg height="600" width="800" xmlns="http://www.w3.org/2000/svg" xmlns:xlink="http://www.w3.org/1999/xlink">
    <g id="Notes" font-family="LucidaGrande, 'Lucida Grande', sans-serif" font-size="13">
        <rect fill="white" height="600.0" width="800.0" x="0.0" y="0.0" />
        <g font-size="13">
            <text x="18.0" y="176.0">Small</text>
            <text x="18.0" y="376.0">Medium</text>
            <text x="18.0" y="576.0">Large</text>
        </g>
        <g font-size="9">
            <text x="250.0" y="30.0">Ultralight</text>
            <text x="450.0" y="30.0">Regular</text>
            <text x="650.0" y="30.0">Black</text>
            <text id="template-version" fill="#505050" text-anchor="end" x="785.0" y="575.0">Template v.3.0</text>
            <a href="https://github.com/swhitty/SwiftDraw">
                <text fill="#505050" text-anchor="end" x="785.0" y="590.0">https://github.com/swhitty/SwiftDraw</text>
            </a>
        </g>
    </g>
    <g id="Guides" stroke="rgb(39, 170, 225)" stroke-width="0.5">
        <path id="Capline-S" d="M18,76 l800,0" />
        <path id="H-reference" d="M85,145.755 L87.685,145.755 L113.369,79.287 L114.052,79.287 L114.052,76 L112.148,76 L85,145.755 Z M95.693,121.536 L130.996,121.536 L130.263,119.313 L96.474,119.313 L95.693,121.536 Z M139.15,145.755 L141.787,145.755 L114.638,76 L113.466,76 L113.466,79.287 L139.15,145.755 Z" stroke="none" transform="translate(0,200)" />
        <path id="Baseline-S" d="M18,146 l800,0" />
        <path id="left-margin-Ultralight-M" d="M230,256 l0,110" />
        <path id="right-margin-Ultralight-M" d="M300,256 l0,110" />
        <path id="left-margin-Regular-M" d="M430,256 l0,110" />
        <path id="right-margin-Regular-M" d="M500,256 l0,110" />
        <path id="left-margin-Black-M" d="M630,256 l0,110" />
        <path id="right-margin-Black-M" d="M700,256 l0,110" />
        <path id="Capline-M" d="M18,276 l800,0" />
        <path id="Baseline-M" d="M18,346 l800,0" />
        <path id="Capline-L" d="M18,476 l800,0" />
        <path id="Baseline-L" d="M18,546 l800,0" />
    </g>
    <g id="Symbols">
        <g id="Ultralight-M" transform="translate(0,200)">
            <path d="M300,104.636 L300,84.273 C300,81.406 299.913,80.727 298.91,79.475 C297.951,78.277 296.422,77.304 294.54,76.694 C292.571,76.055 291.505,76 287,76 L243,76 C238.495,76 237.429,76.055 235.461,76.693 C233.578,77.304 232.049,78.277 231.09,79.475 C230.087,80.727 230,81.406 230,84.273 L230,104.636 C230,106.394 232.239,107.818 235,107.818 C237.761,107.818 240,106.394 240,104.636 L240,84.273 C240,82.685 240.049,82.302 240,82.363 C240,82.364 240,82.364 240,82.364 C239.904,82.395 240.505,82.364 243,82.364 L287,82.364 C289.495,82.364 290.096,82.395 290.001,82.364 C290,82.364 290,82.364 290,82.364 C289.951,82.302 290,82.685 290,84.273 L290,104.636 C290,106.394 292.239,107.818 295,107.818 C297.761,107.818 300,106.394 300,104.636 Z M295,101.455 L235,101.455 C232.239,101.455 230,102.879 230,104.636 C230,106.394 232.239,107.818 235,107.818 L295,107.818 C297.761,107.818 300,106.394 300,104.636 C300,102.879 297.761,101.455 295,101.455 Z M290,104.636 L290,105.273 C290,111.315 289.815,112.759 288.91,113.89 C287.951,115.086 286.422,116.06 284.54,116.67 C282.764,117.246 280.495,117.364 271,117.364 L259,117.364 C249.505,117.364 247.236,117.246 245.459,116.67 C243.578,116.06 242.049,115.086 241.09,113.889 C240.185,112.759 240,111.315 240,105.273 L240,104.636 C240,102.879 237.761,101.455 235,101.455 C232.239,101.455 230,102.879 230,104.636 L230,105.273 C230,112.594 230.223,114.334 232.18,116.778 C234.097,119.173 237.157,121.12 240.92,122.34 C244.761,123.585 247.495,123.727 259,123.727 L271,123.727 C282.505,123.727 285.239,123.585 289.079,122.34 C292.843,121.12 295.903,119.173 297.82,116.778 C299.777,114.334 300,112.594 300,105.273 L300,104.636 C300,102.879 297.761,101.455 295,101.455 C292.239,101.455 290,102.879 290,104.636 Z M272.5,120.545 L272.5,134.864 C272.5,137.5 269.142,139.636 265,139.636 C260.858,139.636 257.5,137.5 257.5,134.864 L257.5,120.545 C257.5,118.788 255.261,117.364 252.5,117.364 C249.739,117.364 247.5,118.788 247.5,120.545 L247.5,134.864 C247.5,141.014 255.335,146 265,146 C274.665,146 282.5,141.014 282.5,134.864 L282.5,120.545 C282.5,118.788 280.261,117.364 277.5,117.364 C274.739,117.364 272.5,118.788 272.5,120.545 Z" />
        </g>
        <g id="Regular-M" transform="translate(0,200)">
            <path d="M500,104.636 L500,84.273 C500,81.406 499.913,80.727 498.91,79.475 C497.951,78.277 496.422,77.304 494.54,76.694 C492.571,76.055 491.505,76 487,76 L443,76 C438.495,76 437.429,76.055 435.461,76.693 C433.578,77.304 432.049,78.277 431.09,79.475 C430.087,80.727 430,81.406 430,84.273 L430,104.636 C430,106.394 432.239,107.818 435,107.818 C437.761,107.818 440,106.394 440,104.636 L440,84.273 C440,82.685 440.049,82.302 440,82.363 C440,82.364 440,82.364 440,82.364 C439.904,82.395 440.505,82.364 443,82.364 L487,82.364 C489.495,82.364 490.096,82.395 490.001,82.364 C490,82.364 490,82.364 490,82.364 C489.951,82.302 490,82.685 490,84.273 L490,104.636 C490,106.394 492.239,107.818 495,107.818 C497.761,107.818 500,106.394 500,104.636 Z M495,101.455 L435,101.455 C432.239,101.455 430,102.879 430,104.636 C430,106.394 432.239,107.818 435,107.818 L495,107.818 C497.761,107.818 500,106.394 500,104.636 C500,102.879 497.761,101.455 495,101.455 Z M490,104.636 L490,105.273 C490,111.315 489.815,112.759 488.91,113.89 C487.951,115.086 486.422,116.06 484.54,116.67 C482.764,117.246 480.495,117.364 471,117.364 L459,117.364 C449.505,117.364 447.236,117.246 445.459,116.67 C443.578,116.06 442.049,115.086 441.09,113.889 C440.185,112.759 440,111.315 440,105.273 L440,104.636 C440,102.879 437.761,101.455 435,101.455 C432.239,101.455 430,102.879 430,104.636 L430,105.273 C430,112.594 430.223,114.334 432.18,116.778 C434.097,119.173 437.157,121.12 440.92,122.34 C444.761,123.585 447.495,123.727 459,123.727 L471,123.727 C482.505,123.727 485.239,123.585 489.079,122.34 C492.843,121.12 495.903,119.173 497.82,116.778 C499.777,114.334 500,112.594 500,105.273 L500,104.636 C500,102.879 497.761,101.455 495,101.455 C492.239,101.455 490,102.879 490,104.636 Z M472.5,120.545 L472.5,134.864 C472.5,137.5 469.142,139.636 465,139.636 C460.858,139.636 457.5,137.5 457.5,134.864 L457.5,120.545 C457.5,118.788 455.261,117.364 452.5,117.364 C449.739,117.364 447.5,118.788 447.5,120.545 L447.5,134.864 C447.5,141.014 455.335,146 465,146 C474.665,146 482.5,141.014 482.5,134.864 L482.5,120.545 C482.5,118.788 480.261,117.364 477.5,117.364 C474.739,117.364 472.5,118.788 472.5,120.545 Z" />
        </g>
        <g id="Black-M" transform="translate(0,200)">
            <path d="M700,104.636 L700,84.273 C700,81.406 699.913,80.727 698.91,79.475 C697.951,78.277 696.422,77.304 694.54,76.694 C692.571,76.055 691.505,76 687,76 L643,76 C638.495,76 637.429,76.055 635.461,76.693 C633.578,77.304 632.049,78.277 631.09,79.475 C630.087,80.727 630,81.406 630,84.273 L630,104.636 C630,106.394 632.239,107.818 635,107.818 C637.761,107.818 640,106.394 640,104.636 L640,84.273 C640,82.685 640.049,82.302 640,82.363 C640,82.364 640,82.364 640,82.364 C639.904,82.395 640.505,82.364 643,82.364 L687,82.364 C689.495,82.364 690.096,82.395 690.001,82.364 C690,82.364 690,82.364 690,82.364 C689.951,82.302 690,82.685 690,84.273 L690,104.636 C690,106.394 692.239,107.818 695,107.818 C697.761,107.818 700,106.394 700,104.636 Z M695,101.455 L635,101.455 C632.239,101.455 630,102.879 630,104.636 C630,106.394 632.239,107.818 635,107.818 L695,107.818 C697.761,107.818 700,106.394 700,104.636 C700,102.879 697.761,101.455 695,101.455 Z M690,104.636 L690,105.273 C690,111.315 689.815,112.759 688.91,113.89 C687.951,115.086 686.422,116.06 684.54,116.67 C682.764,117.246 680.495,117.364 671,117.364 L659,117.364 C649.505,117.364 647.236,117.246 645.459,116.67 C643.578,116.06 642.049,115.086 641.09,113.889 C640.185,112.759 640,111.315 640,105.273 L640,104.636 C640,102.879 637.761,101.455 635,101.455 C632.239,101.455 630,102.879 630,104.636 L630,105.273 C630,112.594 630.223,114.334 632.18,116.778 C634.097,119.173 637.157,121.12 640.92,122.34 C644.761,123.585 647.495,123.727 659,123.727 L671,123.727 C682.505,123.727 685.239,123.585 689.079,122.34 C692.843,121.12 695.903,119.173 697.82,116.778 C699.777,114.334 700,112.594 700,105.273 L700,104.636 C700,102.879 697.761,101.455 695,101.455 C692.239,101.455 690,102.879 690,104.636 Z M672.5,120.545 L672.5,134.864 C672.5,137.5 669.142,139.636 665,139.636 C660.858,139.636 657.5,137.5 657.5,134.864 L657.5,120.545 C657.5,118.788 655.261,117.364 652.5,117.364 C649.739,117.364 647.5,118.788 647.5,120.545 L647.5,134.864 C647.5,141.014 655.335,146 665,146 C674.665,146 682.5,141.014 682.5,134.864 L682.5,120.545 C682.5,118.788 680.261,117.364 677.5,117.364 C674.739,117.364 672.5,118.788 672.5,120.545 Z" />
        </g>
    </g>
</svg>