<?xml version="1.0" encoding="UTF-8"?>
<svg height="600" width="800" xmlns="http://www.w3.org/2000/svg" xmlns:xlink="http://www.w3.org/1999/xlink">
    <g id="Notes" font-family="LucidaGrande, 'Lucida Grande', sans-serif" font-size="13">
        <rect fill="white" height="600.0" width="800.0" x="0.0" y="0.0" />
        <g font-size="13">
            <text x="18.0" y="176.0">Small</text>
            <text x="18.0" y="376.0">Medium</text>
            <text x="18.0" y="576.0">Large</text>
        </g>
        <g font-size="9">
            <text x="250.0" y="30.0">Ultralight</text>
            <text x="450.0" y="30.0">Regular</text>
            <text x="650.0" y="30.0">Black</text>
            <text id="template-version" fill="#505050" text-anchor="end" x="785.0" y="575.0">Template v.3.0</text>
            <a href="https://github.com/swhitty/SwiftDraw">
                <text fill="#505050" text-anchor="end" x="785.0" y="590.0">https://github.com/swhitty/SwiftDraw</text>
            </a>
        </g>
    </g>
    <g id="Guides" stroke="rgb(39, 170, 225)" stroke-width="0.5">
        <path id="Capline-S" d="M18,76 l800,0" />
        <path id="H-reference" d="M85,145.755 L87.685,145.755 L113.369,79.287 L114.052,79.287 L114.052,76 L112.148,76 L85,145.755 Z M95.693,121.536 L130.996,121.536 L130.263,119.313 L96.474,119.313 L95.693,121.536 Z M139.15,145.755 L141.787,145.755 L114.638,76 L113.466,76 L113.466,79.287 L139.15,145.755 Z" stroke="none" transform="translate(0,200)" />
        <path id="Baseline-S" d="M18,146 l800,0" />
        <path id="left-margin-Ultralight-M" d="M221,256 l0,110" />
        <path id="right-margin-Ultralight-M" d="M309,256 l0,110" />
        <path id="left-margin-Regular-M" d="M421,256 l0,110" />
        <path id="right-margin-Regular-M" d="M509,256 l0,110" />
        <path id="left-margin-Black-M" d="M621,256 l0,110" />
        <path id="right-margin-Black-M" d="M709,256 l0,110" />
        <path id="Capline-M" d="M18,276 l800,0" />
        <path id="Baseline-M" d="M18,346 l800,0" />
        <path id="Capline-L" d="M18,476 l800,0" />
        <path id="Baseline-L" d="M18,546 l800,0" />
    </g>
    <g id="Symbols">
        <g id="Ultralight-M" transform="translate(0,200)">
            <path d="M267.095,111 L277.152,111 C279.665,111 280.266,111.049 280.618,111.229 C281.012,111.429 281.333,111.75 281.534,112.144 C281.713,112.496 281.762,113.097 281.762,115.61 L281.762,129.857 C281.762,131.014 282.7,131.952 283.857,131.952 C285.014,131.952 285.952,131.014 285.952,129.857 L285.952,115.61 C285.952,112.255 285.887,111.459 285.267,110.242 C284.665,109.059 283.703,108.097 282.52,107.495 C281.303,106.875 280.507,106.81 277.152,106.81 L267.095,106.81 C265.938,106.81 265,107.748 265,108.905 C265,110.062 265.938,111 267.095,111 Z M269.19,129.857 L269.19,98.848 C269.19,95.493 269.125,94.697 268.505,93.48 C267.903,92.297 266.941,91.335 265.758,90.733 C264.541,90.113 263.745,90.048 260.39,90.048 L252.848,90.048 C249.493,90.048 248.697,90.113 247.48,90.733 C246.297,91.335 245.335,92.297 244.733,93.48 C244.113,94.697 244.048,95.493 244.048,98.848 L244.048,129.857 C244.048,131.014 244.986,131.952 246.143,131.952 C247.3,131.952 248.238,131.014 248.238,129.857 L248.238,98.848 C248.238,96.335 248.287,95.734 248.467,95.382 C248.667,94.988 248.988,94.667 249.382,94.466 C249.734,94.287 250.335,94.238 252.848,94.238 L260.39,94.238 C262.903,94.238 263.504,94.287 263.856,94.467 C264.25,94.667 264.571,94.988 264.772,95.382 C264.951,95.734 265,96.335 265,98.848 L265,129.857 C265,131.014 265.938,131.952 267.095,131.952 C268.252,131.952 269.19,131.014 269.19,129.857 Z M285.952,127.762 L244.048,127.762 C242.89,127.762 241.952,128.7 241.952,129.857 C241.952,131.014 242.89,131.952 244.048,131.952 L285.952,131.952 C287.11,131.952 288.048,131.014 288.048,129.857 C288.048,128.7 287.11,127.762 285.952,127.762 Z M253.476,102.619 L259.762,102.619 C260.919,102.619 261.857,101.681 261.857,100.524 C261.857,99.367 260.919,98.429 259.762,98.429 L253.476,98.429 C252.319,98.429 251.381,99.367 251.381,100.524 C251.381,101.681 252.319,102.619 253.476,102.619 Z M253.476,111 L259.762,111 C260.919,111 261.857,110.062 261.857,108.905 C261.857,107.748 260.919,106.81 259.762,106.81 L253.476,106.81 C252.319,106.81 251.381,107.748 251.381,108.905 C251.381,110.062 252.319,111 253.476,111 Z M253.476,119.381 L259.762,119.381 C260.919,119.381 261.857,118.443 261.857,117.286 C261.857,116.129 260.919,115.19 259.762,115.19 L253.476,115.19 C252.319,115.19 251.381,116.129 251.381,117.286 C251.381,118.443 252.319,119.381 253.476,119.381 Z" />
        </g>
        <g id="Regular-M" transform="translate(0,200)">
            <path d="M467.095,111 L477.152,111 C479.665,111 480.266,111.049 480.618,111.229 C481.012,111.429 481.333,111.75 481.534,112.144 C481.713,112.496 481.762,113.097 481.762,115.61 L481.762,129.857 C481.762,131.014 482.7,131.952 483.857,131.952 C485.014,131.952 485.952,131.014 485.952,129.857 L485.952,115.61 C485.952,112.255 485.887,111.459 485.267,110.242 C484.665,109.059 483.703,108.097 482.52,107.495 C481.303,106.875 480.507,106.81 477.152,106.81 L467.095,106.81 C465.938,106.81 465,107.748 465,108.905 C465,110.062 465.938,111 467.095,111 Z M469.19,129.857 L469.19,98.848 C469.19,95.493 469.125,94.697 468.505,93.48 C467.903,92.297 466.941,91.335 465.758,90.733 C464.541,90.113 463.745,90.048 460.39,90.048 L452.848,90.048 C449.493,90.048 448.697,90.113 447.48,90.733 C446.297,91.335 445.335,92.297 444.733,93.48 C444.113,94.697 444.048,95.493 444.048,98.848 L444.048,129.857 C444.048,131.014 444.986,131.952 446.143,131.952 C447.3,131.952 448.238,131.014 448.238,129.857 L448.238,98.848 C448.238,96.335 448.287,95.734 448.467,95.382 C448.667,94.988 448.988,94.667 449.382,94.466 C449.734,94.287 450.335,94.238 452.848,94.238 L460.39,94.238 C462.903,94.238 463.504,94.287 463.856,94.467 C464.25,94.667 464.571,94.988 464.772,95.382 C464.951,95.734 465,96.335 465,98.848 L465,129.857 C465,131.014 465.938,131.952 467.095,131.952 C468.252,131.952 469.19,131.014 469.19,129.857 Z M485.952,127.762 L444.048,127.762 C442.89,127.762 441.952,128.7 441.952,129.857 C441.952,131.014 442.89,131.952 444.048,131.952 L485.952,131.952 C487.11,131.952 488.048,131.014 488.048,129.857 C488.048,128.7 487.11,127.762 485.952,127.762 Z M453.476,102.619 L459.762,102.619 C460.919,102.619 461.857,101.681 461.857,100.524 C461.857,99.367 460.919,98.429 459.762,98.429 L453.476,98.429 C452.319,98.429 451.381,99.367 451.381,100.524 C451.381,101.681 452.319,102.619 453.476,102.619 Z M453.476,111 L459.762,111 C460.919,111 461.857,110.062 461.857,108.905 C461.857,107.748 460.919,106.81 459.762,106.81 L453.476,106.81 C452.319,106.81 451.381,107.748 451.381,108.905 C451.381,110.062 452.319,111 453.476,111 Z M453.476,119.381 L459.762,119.381 C460.919,119.381 461.857,118.443 461.857,117.286 C461.857,116.129 460.919,115.19 459.762,115.19 L453.476,115.19 C452.319,115.19 451.381,116.129 451.381,117.286 C451.381,118.443 452.319,119.381 453.476,119.381 Z" />
        </g>
        <g id="Black-M" transform="translate(0,200)">
            <path d="M667.095,111 L677.152,111 C679.665,111 680.266,111.049 680.618,111.229 C681.012,111.429 681.333,111.75 681.534,112.144 C681.713,112.496 681.762,113.097 681.762,115.61 L681.762,129.857 C681.762,131.014 682.7,131.952 683.857,131.952 C685.014,131.952 685.952,131.014 685.952,129.857 L685.952,115.61 C685.952,112.255 685.887,111.459 685.267,110.242 C684.665,109.059 683.703,108.097 682.52,107.495 C681.303,106.875 680.507,106.81 677.152,106.81 L667.095,106.81 C665.938,106.81 665,107.748 665,108.905 C665,110.062 665.938,111 667.095,111 Z M669.19,129.857 L669.19,98.848 C669.19,95.493 669.125,94.697 668.505,93.48 C667.903,92.297 666.941,91.335 665.758,90.733 C664.541,90.113 663.745,90.048 660.39,90.048 L652.848,90.048 C649.493,90.048 648.697,90.113 647.48,90.733 C646.297,91.335 645.335,92.297 644.733,93.48 C644.113,94.697 644.048,95.493 644.048,98.848 L644.048,129.857 C644.048,131.014 644.986,131.952 646.143,131.952 C647.3,131.952 648.238,131.014 648.238,129.857 L648.238,98.848 C648.238,96.335 648.287,95.734 648.467,95.382 C648.667,94.988 648.988,94.667 649.382,94.466 C649.734,94.287 650.335,94.238 652.848,94.238 L660.39,94.238 C662.903,94.238 663.504,94.287 663.856,94.467 C664.25,94.667 664.571,94.988 664.772,95.382 C664.951,95.734 665,96.335 665,98.848 L665,129.857 C665,131.014 665.938,131.952 667.095,131.952 C668.252,131.952 669.19,131.014 669.19,129.857 Z M685.952,127.762 L644.048,127.762 C642.89,127.762 641.952,128.7 641.952,129.857 C641.952,131.014 642.89,131.952 644.048,131.952 L685.952,131.952 C687.109,131.952 688.048,131.014 688.048,129.857 C688.048,128.7 687.109,127.762 685.952,127.762 Z M653.476,102.619 L659.762,102.619 C660.919,102.619 661.857,101.681 661.857,100.524 C661.857,99.367 660.919,98.429 659.762,98.429 L653.476,98.429 C652.319,98.429 651.381,99.367 651.381,100.524 C651.381,101.681 652.319,102.619 653.476,102.619 Z M653.476,111 L659.762,111 C660.919,111 661.857,110.062 661.857,108.905 C661.857,107.748 660.919,106.81 659.762,106.81 L653.476,106.81 C652.319,106.81 651.381,107.748 651.381,108.905 C651.381,110.062 652.319,111 653.476,111 Z M653.476,119.381 L659.762,119.381 C660.919,119.381 661.857,118.443 661.857,117.286 C661.857,116.129 660.919,115.19 659.762,115.19 L653.476,115.19 C652.319,115.19 651.381,116.129 651.381,117.286 C651.381,118.443 652.319,119.381 653.476,119.381 Z" />
        </g>
    </g>
</svg>