<?xml version="1.0" encoding="UTF-8"?>
<svg height="600" width="800" xmlns="http://www.w3.org/2000/svg" xmlns:xlink="http://www.w3.org/1999/xlink">
    <g id="Notes" font-family="LucidaGrande, 'Lucida Grande', sans-serif" font-size="13">
        <rect fill="white" height="600.0" width="800.0" x="0.0" y="0.0" />
        <g font-size="13">
            <text x="18.0" y="176.0">Small</text>
            <text x="18.0" y="376.0">Medium</text>
            <text x="18.0" y="576.0">Large</text>
        </g>
        <g font-size="9">
            <text x="250.0" y="30.0">Ultralight</text>
            <text x="450.0" y="30.0">Regular</text>
            <text x="650.0" y="30.0">Black</text>
            <text id="template-version" fill="#505050" text-anchor="end" x="785.0" y="575.0">Template v.3.0</text>
            <a href="https://github.com/swhitty/SwiftDraw">
                <text fill="#505050" text-anchor="end" x="785.0" y="590.0">https://github.com/swhitty/SwiftDraw</text>
            </a>
        </g>
    </g>
    <g id="Guides" stroke="rgb(39, 170, 225)" stroke-width="0.5">
        <path id="Capline-S" d="M18,76 l800,0" />
        <path id="H-reference" d="M85,145.755 L87.685,145.755 L113.369,79.287 L114.052,79.287 L114.052,76 L112.148,76 L85,145.755 Z M95.693,121.536 L130.996,121.536 L130.263,119.313 L96.474,119.313 L95.693,121.536 Z M139.15,145.755 L141.787,145.755 L114.638,76 L113.466,76 L113.466,79.287 L139.15,145.755 Z" stroke="none" transform="translate(0,200)" />
        <path id="Baseline-S" d="M18,146 l800,0" />
        <path id="left-margin-Ultralight-M" d="M221,256 l0,110" />
        <path id="right-margin-Ultralight-M" d="M309,256 l0,110" />
        <path id="left-margin-Regular-M" d="M421,256 l0,110" />
        <path id="right-margin-Regular-M" d="M509,256 l0,110" />
        <path id="left-margin-Black-M" d="M621,256 l0,110" />
        <path id="right-margin-Black-M" d="M709,256 l0,110" />
        <path id="Capline-M" d="M18,276 l800,0" />
        <path id="Baseline-M" d="M18,346 l800,0" />
        <path id="Capline-L" d="M18,476 l800,0" />
        <path id="Baseline-L" d="M18,546 l800,0" />
    </g>
    <g id="Symbols">
        <g id="Ultralight-M" transform="translate(0,200)">
            <path d="M273.8,130.8 L273.8,118.92 C273.8,116.938 273.762,116.469 273.321,115.603 C272.899,114.775 272.225,114.101 271.398,113.68 C270.531,113.238 270.062,113.2 268.08,113.2 L261.92,113.2 C259.938,113.2 259.469,113.238 258.603,113.679 C257.775,114.101 257.101,114.775 256.68,115.602 C256.238,116.469 256.2,116.938 256.2,118.92 L256.2,130.8 C256.2,132.015 257.185,133 258.4,133 C259.615,133 260.6,132.015 260.6,130.8 L260.6,118.92 C260.6,117.822 260.622,117.558 260.6,117.6 C260.6,117.6 260.6,117.6 260.6,117.6 C260.558,117.622 260.822,117.6 261.92,117.6 L268.08,117.6 C269.178,117.6 269.442,117.622 269.4,117.6 C269.4,117.6 269.4,117.6 269.4,117.6 C269.378,117.558 269.4,117.822 269.4,118.92 L269.4,130.8 C269.4,132.015 270.385,133 271.6,133 C272.815,133 273.8,132.015 273.8,130.8 Z M282.6,130.8 L282.6,98.24 C282.6,94.718 282.532,93.882 281.881,92.604 C281.248,91.362 280.238,90.352 278.996,89.719 C277.718,89.068 276.882,89 273.36,89 L256.64,89 C253.118,89 252.282,89.068 251.004,89.719 C249.762,90.352 248.752,91.362 248.119,92.604 C247.468,93.882 247.4,94.718 247.4,98.24 L247.4,130.8 C247.4,132.015 248.385,133 249.6,133 C250.815,133 251.8,132.015 251.8,130.8 L251.8,98.24 C251.8,95.602 251.852,94.971 252.04,94.601 C252.251,94.187 252.587,93.851 253.001,93.64 C253.371,93.452 254.002,93.4 256.64,93.4 L273.36,93.4 C275.998,93.4 276.629,93.452 276.999,93.64 C277.413,93.851 277.749,94.187 277.96,94.601 C278.148,94.971 278.2,95.602 278.2,98.24 L278.2,130.8 C278.2,132.015 279.185,133 280.4,133 C281.615,133 282.6,132.015 282.6,130.8 Z M284.8,128.6 L245.2,128.6 C243.985,128.6 243,129.585 243,130.8 C243,132.015 243.985,133 245.2,133 L284.8,133 C286.015,133 287,132.015 287,130.8 C287,129.585 286.015,128.6 284.8,128.6 Z M259.5,104.4 L259.522,104.4 C260.737,104.4 261.722,103.415 261.722,102.2 C261.722,100.985 260.737,100 259.522,100 L259.5,100 C258.285,100 257.3,100.985 257.3,102.2 C257.3,103.415 258.285,104.4 259.5,104.4 Z M270.5,104.4 L270.522,104.4 C271.737,104.4 272.722,103.415 272.722,102.2 C272.722,100.985 271.737,100 270.522,100 L270.5,100 C269.285,100 268.3,100.985 268.3,102.2 C268.3,103.415 269.285,104.4 270.5,104.4 Z M258.4,102.2 C258.4,101.592 258.892,101.1 259.5,101.1 C260.108,101.1 260.6,101.592 260.6,102.2 C260.6,102.808 260.108,103.3 259.5,103.3 C258.892,103.3 258.4,102.808 258.4,102.2 Z M262.8,102.2 C262.8,100.377 261.323,98.9 259.5,98.9 C257.677,98.9 256.2,100.377 256.2,102.2 C256.2,104.023 257.677,105.5 259.5,105.5 C261.323,105.5 262.8,104.023 262.8,102.2 Z M269.4,102.2 C269.4,101.592 269.892,101.1 270.5,101.1 C271.108,101.1 271.6,101.592 271.6,102.2 C271.6,102.808 271.108,103.3 270.5,103.3 C269.892,103.3 269.4,102.808 269.4,102.2 Z M273.8,102.2 C273.8,100.377 272.323,98.9 270.5,98.9 C268.677,98.9 267.2,100.377 267.2,102.2 C267.2,104.023 268.677,105.5 270.5,105.5 C272.323,105.5 273.8,104.023 273.8,102.2 Z" />
        </g>
        <g id="Regular-M" transform="translate(0,200)">
            <path d="M473.8,130.8 L473.8,118.92 C473.8,116.938 473.762,116.469 473.321,115.603 C472.899,114.775 472.225,114.101 471.398,113.68 C470.531,113.238 470.062,113.2 468.08,113.2 L461.92,113.2 C459.938,113.2 459.469,113.238 458.603,113.679 C457.775,114.101 457.101,114.775 456.68,115.602 C456.238,116.469 456.2,116.938 456.2,118.92 L456.2,130.8 C456.2,132.015 457.185,133 458.4,133 C459.615,133 460.6,132.015 460.6,130.8 L460.6,118.92 C460.6,117.822 460.622,117.558 460.6,117.6 C460.6,117.6 460.6,117.6 460.6,117.6 C460.558,117.622 460.822,117.6 461.92,117.6 L468.08,117.6 C469.178,117.6 469.442,117.622 469.4,117.6 C469.4,117.6 469.4,117.6 469.4,117.6 C469.378,117.558 469.4,117.822 469.4,118.92 L469.4,130.8 C469.4,132.015 470.385,133 471.6,133 C472.815,133 473.8,132.015 473.8,130.8 Z M482.6,130.8 L482.6,98.24 C482.6,94.718 482.532,93.882 481.881,92.604 C481.248,91.362 480.238,90.352 478.996,89.719 C477.718,89.068 476.882,89 473.36,89 L456.64,89 C453.118,89 452.282,89.068 451.004,89.719 C449.762,90.352 448.752,91.362 448.119,92.604 C447.468,93.882 447.4,94.718 447.4,98.24 L447.4,130.8 C447.4,132.015 448.385,133 449.6,133 C450.815,133 451.8,132.015 451.8,130.8 L451.8,98.24 C451.8,95.602 451.852,94.971 452.04,94.601 C452.251,94.187 452.587,93.851 453.001,93.64 C453.371,93.452 454.002,93.4 456.64,93.4 L473.36,93.4 C475.998,93.4 476.629,93.452 476.999,93.64 C477.413,93.851 477.749,94.187 477.96,94.601 C478.148,94.971 478.2,95.602 478.2,98.24 L478.2,130.8 C478.2,132.015 479.185,133 480.4,133 C481.615,133 482.6,132.015 482.6,130.8 Z M484.8,128.6 L445.2,128.6 C443.985,128.6 443,129.585 443,130.8 C443,132.015 443.985,133 445.2,133 L484.8,133 C486.015,133 487,132.015 487,130.8 C487,129.585 486.015,128.6 484.8,128.6 Z M459.5,104.4 L459.522,104.4 C460.737,104.4 461.722,103.415 461.722,102.2 C461.722,100.985 460.737,100 459.522,100 L459.5,100 C458.285,100 457.3,100.985 457.3,102.2 C457.3,103.415 458.285,104.4 459.5,104.4 Z M470.5,104.4 L470.522,104.4 C471.737,104.4 472.722,103.415 472.722,102.2 C472.722,100.985 471.737,100 470.522,100 L470.5,100 C469.285,100 468.3,100.985 468.3,102.2 C468.3,103.415 469.285,104.4 470.5,104.4 Z M458.4,102.2 C458.4,101.592 458.892,101.1 459.5,101.1 C460.108,101.1 460.6,101.592 460.6,102.2 C460.6,102.808 460.108,103.3 459.5,103.3 C458.892,103.3 458.4,102.808 458.4,102.2 Z M462.8,102.2 C462.8,100.377 461.323,98.9 459.5,98.9 C457.677,98.9 456.2,100.377 456.2,102.2 C456.2,104.023 457.677,105.5 459.5,105.5 C461.323,105.5 462.8,104.023 462.8,102.2 Z M469.4,102.2 C469.4,101.592 469.892,101.1 470.5,101.1 C471.108,101.1 471.6,101.592 471.6,102.2 C471.6,102.808 471.108,103.3 470.5,103.3 C469.892,103.3 469.4,102.808 469.4,102.2 Z M473.8,102.2 C473.8,100.377 472.323,98.9 470.5,98.9 C468.677,98.9 467.2,100.377 467.2,102.2 C467.2,104.023 468.677,105.5 470.5,105.5 C472.323,105.5 473.8,104.023 473.8,102.2 Z" />
        </g>
        <g id="Black-M" transform="translate(0,200)">
            <path d="M673.8,130.8 L673.8,118.92 C673.8,116.938 673.762,116.469 673.321,115.603 C672.899,114.775 672.225,114.101 671.398,113.68 C670.531,113.238 670.062,113.2 668.08,113.2 L661.92,113.2 C659.938,113.2 659.469,113.238 658.603,113.679 C657.774,114.101 657.101,114.775 656.68,115.602 C656.238,116.469 656.2,116.938 656.2,118.92 L656.2,130.8 C656.2,132.015 657.185,133 658.4,133 C659.615,133 660.6,132.015 660.6,130.8 L660.6,118.92 C660.6,117.822 660.622,117.558 660.6,117.6 C660.6,117.6 660.6,117.6 660.6,117.6 C660.558,117.622 660.822,117.6 661.92,117.6 L668.08,117.6 C669.178,117.6 669.442,117.622 669.4,117.6 C669.4,117.6 669.4,117.6 669.4,117.6 C669.378,117.558 669.4,117.822 669.4,118.92 L669.4,130.8 C669.4,132.015 670.385,133 671.6,133 C672.815,133 673.8,132.015 673.8,130.8 Z M682.6,130.8 L682.6,98.24 C682.6,94.718 682.532,93.882 681.881,92.604 C681.248,91.362 680.238,90.352 678.996,89.719 C677.718,89.068 676.882,89 673.36,89 L656.64,89 C653.118,89 652.282,89.068 651.004,89.719 C649.762,90.352 648.752,91.362 648.119,92.604 C647.468,93.882 647.4,94.718 647.4,98.24 L647.4,130.8 C647.4,132.015 648.385,133 649.6,133 C650.815,133 651.8,132.015 651.8,130.8 L651.8,98.24 C651.8,95.602 651.852,94.971 652.04,94.601 C652.251,94.187 652.587,93.851 653.001,93.64 C653.371,93.452 654.002,93.4 656.64,93.4 L673.36,93.4 C675.998,93.4 676.629,93.452 676.999,93.64 C677.413,93.851 677.749,94.187 677.96,94.601 C678.148,94.971 678.2,95.602 678.2,98.24 L678.2,130.8 C678.2,132.015 679.185,133 680.4,133 C681.615,133 682.6,132.015 682.6,130.8 Z M684.8,128.6 L645.2,128.6 C643.985,128.6 643,129.585 643,130.8 C643,132.015 643.985,133 645.2,133 L684.8,133 C686.015,133 687,132.015 687,130.8 C687,129.585 686.015,128.6 684.8,128.6 Z M659.5,104.4 L659.522,104.4 C660.737,104.4 661.722,103.415 661.722,102.2 C661.722,100.985 660.737,100 659.522,100 L659.5,100 C658.285,100 657.3,100.985 657.3,102.2 C657.3,103.415 658.285,104.4 659.5,104.4 Z M670.5,104.4 L670.522,104.4 C671.737,104.4 672.722,103.415 672.722,102.2 C672.722,100.985 671.737,100 670.522,100 L670.5,100 C669.285,100 668.3,100.985 668.3,102.2 C668.3,103.415 669.285,104.4 670.5,104.4 Z M658.4,102.2 C658.4,101.592 658.892,101.1 659.5,101.1 C660.107,101.1 660.6,101.592 660.6,102.2 C660.6,102.808 660.107,103.3 659.5,103.3 C658.892,103.3 658.4,102.808 658.4,102.2 Z M662.8,102.2 C662.8,100.377 661.323,98.9 659.5,98.9 C657.677,98.9 656.2,100.377 656.2,102.2 C656.2,104.023 657.677,105.5 659.5,105.5 C661.323,105.5 662.8,104.023 662.8,102.2 Z M669.4,102.2 C669.4,101.592 669.892,101.1 670.5,101.1 C671.107,101.1 671.6,101.592 671.6,102.2 C671.6,102.808 671.107,103.3 670.5,103.3 C669.892,103.3 669.4,102.808 669.4,102.2 Z M673.8,102.2 C673.8,100.377 672.323,98.9 670.5,98.9 C668.677,98.9 667.2,100.377 667.2,102.2 C667.2,104.023 668.677,105.5 670.5,105.5 C672.323,105.5 673.8,104.023 673.8,102.2 Z" />
        </g>
    </g>
</svg>