<?xml version="1.0" encoding="UTF-8"?>
<svg height="600" width="800" xmlns="http://www.w3.org/2000/svg" xmlns:xlink="http://www.w3.org/1999/xlink">
    <g id="Notes" font-family="LucidaGrande, 'Lucida Grande', sans-serif" font-size="13">
        <rect fill="white" height="600.0" width="800.0" x="0.0" y="0.0" />
        <g font-size="13">
            <text x="18.0" y="176.0">Small</text>
            <text x="18.0" y="376.0">Medium</text>
            <text x="18.0" y="576.0">Large</text>
        </g>
        <g font-size="9">
            <text x="250.0" y="30.0">Ultralight</text>
            <text x="450.0" y="30.0">Regular</text>
            <text x="650.0" y="30.0">Black</text>
            <text id="template-version" fill="#505050" text-anchor="end" x="785.0" y="575.0">Template v.3.0</text>
            <a href="https://github.com/swhitty/SwiftDraw">
                <text fill="#505050" text-anchor="end" x="785.0" y="590.0">https://github.com/swhitty/SwiftDraw</text>
            </a>
        </g>
    </g>
    <g id="Guides" stroke="rgb(39, 170, 225)" stroke-width="0.5">
        <path id="Capline-S" d="M18,76 l800,0" />
        <path id="H-reference" d="M85,145.755 L87.685,145.755 L113.369,79.287 L114.052,79.287 L114.052,76 L112.148,76 L85,145.755 Z M95.693,121.536 L130.996,121.536 L130.263,119.313 L96.474,119.313 L95.693,121.536 Z M139.15,145.755 L141.787,145.755 L114.638,76 L113.466,76 L113.466,79.287 L139.15,145.755 Z" stroke="none" transform="translate(0,200)" />
        <path id="Baseline-S" d="M18,146 l800,0" />
        <path id="left-margin-Ultralight-M" d="M230,256 l0,110" />
        <path id="right-margin-Ultralight-M" d="M300,256 l0,110" />
        <path id="left-margin-Regular-M" d="M430,256 l0,110" />
        <path id="right-margin-Regular-M" d="M500,256 l0,110" />
        <path id="left-margin-Black-M" d="M630,256 l0,110" />
        <path id="right-margin-Black-M" d="M700,256 l0,110" />
        <path id="Capline-M" d="M18,276 l800,0" />
        <path id="Baseline-M" d="M18,346 l800,0" />
        <path id="Capline-L" d="M18,476 l800,0" />
        <path id="Baseline-L" d="M18,546 l800,0" />
    </g>
    <g id="Symbols">
        <g id="Ultralight-M" transform="translate(0,200)">
            <path d="M296.5,95.091 L233.5,95.091 C231.567,95.091 230,96.515 230,98.273 C230,100.03 231.567,101.455 233.5,101.455 L296.5,101.455 C298.433,101.455 300,100.03 300,98.273 C300,96.515 298.433,95.091 296.5,95.091 Z M275.5,79.182 L275.5,88.727 C275.5,90.485 277.067,91.909 279,91.909 C280.933,91.909 282.5,90.485 282.5,88.727 L282.5,79.182 C282.5,77.425 280.933,76 279,76 C277.067,76 275.5,77.425 275.5,79.182 Z M247.5,79.182 L247.5,88.727 C247.5,90.485 249.067,91.909 251,91.909 C252.933,91.909 254.5,90.485 254.5,88.727 L254.5,79.182 C254.5,77.425 252.933,76 251,76 C249.067,76 247.5,77.425 247.5,79.182 Z M250.3,146 L279.7,146 C287.753,146 289.667,145.858 292.356,144.613 C294.99,143.393 297.132,141.446 298.474,139.051 C299.844,136.606 300,134.867 300,127.545 L300,100.818 C300,93.497 299.844,91.757 298.474,89.313 C297.132,86.918 294.99,84.971 292.356,83.751 C289.667,82.506 287.753,82.364 279.7,82.364 L250.3,82.364 C242.247,82.364 240.333,82.506 237.644,83.751 C235.01,84.971 232.868,86.918 231.526,89.313 C230.156,91.757 230,93.497 230,100.818 L230,127.545 C230,134.867 230.156,136.606 231.526,139.05 C232.868,141.446 235.01,143.393 237.644,144.613 C240.333,145.858 242.247,146 250.3,146 Z M250.3,139.636 C243.653,139.636 242.065,139.518 240.822,138.943 C239.505,138.333 238.434,137.359 237.763,136.162 C237.13,135.032 237,133.588 237,127.545 L237,100.818 C237,94.776 237.13,93.332 237.763,92.201 C238.434,91.004 239.505,90.031 240.822,89.421 C242.065,88.845 243.653,88.727 250.3,88.727 L279.7,88.727 C286.347,88.727 287.935,88.845 289.178,89.421 C290.495,90.031 291.566,91.004 292.237,92.202 C292.87,93.332 293,94.776 293,100.818 L293,127.545 C293,133.588 292.87,135.032 292.237,136.162 C291.566,137.359 290.495,138.333 289.178,138.943 C287.935,139.518 286.347,139.636 279.7,139.636 L250.3,139.636 Z M267.616,109.947 C263.478,105.677 256.664,104.894 251.78,108.585 C246.832,112.32 246.072,118.714 250.037,123.225 C251.862,125.303 255.918,128.737 260.893,132.673 C261.931,133.489 262.184,133.669 262.903,133.962 C263.194,134.073 263.194,134.073 263.505,134.164 C264.46,134.424 265.512,134.424 266.482,134.163 C266.747,134.087 266.747,134.087 267.019,133.986 C267.771,133.692 268.037,133.503 269.087,132.672 C274.087,128.717 278.123,125.3 279.948,123.22 C281.864,121.095 282.77,118.316 282.431,115.543 C282.093,112.77 280.538,110.239 278.12,108.521 C273.218,104.925 266.485,105.692 262.362,109.951 L264.99,112.053 L268.49,112.056 L268.49,112.053 C268.49,111.278 268.18,110.528 267.616,109.947 Z M262.363,114.153 L264.99,112.05 L261.49,112.047 L261.49,112.05 C261.486,114.985 265.484,116.359 267.617,114.155 C269.34,112.376 271.84,112.091 273.768,113.505 C274.744,114.199 275.343,115.175 275.474,116.245 C275.605,117.314 275.255,118.387 274.505,119.219 C273.03,120.9 269.103,124.224 264.491,127.872 C264.139,128.151 264.031,128.228 264.25,128.142 C264.375,128.095 264.375,128.095 264.516,128.055 C264.824,127.972 265.162,127.972 265.502,128.065 C265.633,128.103 265.633,128.103 265.761,128.152 C265.955,128.232 265.847,128.154 265.482,127.867 C260.898,124.241 256.953,120.901 255.506,119.254 C253.933,117.464 254.224,115.011 256.253,113.48 C258.105,112.08 260.636,112.371 262.363,114.153 Z" />
        </g>
        <g id="Regular-M" transform="translate(0,200)">
            <path d="M496.5,95.091 L433.5,95.091 C431.567,95.091 430,96.515 430,98.273 C430,100.03 431.567,101.455 433.5,101.455 L496.5,101.455 C498.433,101.455 500,100.03 500,98.273 C500,96.515 498.433,95.091 496.5,95.091 Z M475.5,79.182 L475.5,88.727 C475.5,90.485 477.067,91.909 479,91.909 C480.933,91.909 482.5,90.485 482.5,88.727 L482.5,79.182 C482.5,77.425 480.933,76 479,76 C477.067,76 475.5,77.425 475.5,79.182 Z M447.5,79.182 L447.5,88.727 C447.5,90.485 449.067,91.909 451,91.909 C452.933,91.909 454.5,90.485 454.5,88.727 L454.5,79.182 C454.5,77.425 452.933,76 451,76 C449.067,76 447.5,77.425 447.5,79.182 Z M450.3,146 L479.7,146 C487.753,146 489.667,145.858 492.356,144.613 C494.99,143.393 497.132,141.446 498.474,139.051 C499.844,136.606 500,134.867 500,127.545 L500,100.818 C500,93.497 499.844,91.757 498.474,89.313 C497.132,86.918 494.99,84.971 492.356,83.751 C489.667,82.506 487.753,82.364 479.7,82.364 L450.3,82.364 C442.247,82.364 440.333,82.506 437.644,83.751 C435.01,84.971 432.868,86.918 431.526,89.313 C430.156,91.757 430,93.497 430,100.818 L430,127.545 C430,134.867 430.156,136.606 431.526,139.05 C432.868,141.446 435.01,143.393 437.644,144.613 C440.333,145.858 442.247,146 450.3,146 Z M450.3,139.636 C443.653,139.636 442.065,139.518 440.822,138.943 C439.505,138.333 438.434,137.359 437.763,136.162 C437.13,135.032 437,133.588 437,127.545 L437,100.818 C437,94.776 437.13,93.332 437.763,92.201 C438.434,91.004 439.505,90.031 440.822,89.421 C442.065,88.845 443.653,88.727 450.3,88.727 L479.7,88.727 C486.347,88.727 487.935,88.845 489.178,89.421 C490.495,90.031 491.566,91.004 492.237,92.202 C492.87,93.332 493,94.776 493,100.818 L493,127.545 C493,133.588 492.87,135.032 492.237,136.162 C491.566,137.359 490.495,138.333 489.178,138.943 C487.935,139.518 486.347,139.636 479.7,139.636 L450.3,139.636 Z M467.616,109.947 C463.478,105.677 456.664,104.894 451.78,108.585 C446.832,112.32 446.072,118.714 450.037,123.225 C451.862,125.303 455.918,128.737 460.893,132.673 C461.931,133.489 462.184,133.669 462.903,133.962 C463.194,134.073 463.194,134.073 463.505,134.164 C464.46,134.424 465.512,134.424 466.482,134.163 C466.747,134.087 466.747,134.087 467.019,133.986 C467.771,133.692 468.037,133.503 469.087,132.672 C474.087,128.717 478.123,125.3 479.948,123.22 C481.864,121.095 482.77,118.316 482.431,115.543 C482.093,112.77 480.538,110.239 478.12,108.521 C473.218,104.925 466.485,105.692 462.362,109.951 L464.99,112.053 L468.49,112.056 L468.49,112.053 C468.49,111.278 468.18,110.528 467.616,109.947 Z M462.363,114.153 L464.99,112.05 L461.49,112.047 L461.49,112.05 C461.486,114.985 465.484,116.359 467.617,114.155 C469.34,112.376 471.84,112.091 473.768,113.505 C474.744,114.199 475.343,115.175 475.474,116.245 C475.605,117.314 475.255,118.387 474.505,119.219 C473.03,120.9 469.103,124.224 464.491,127.872 C464.139,128.151 464.031,128.228 464.25,128.142 C464.375,128.095 464.375,128.095 464.516,128.055 C464.824,127.972 465.162,127.972 465.502,128.065 C465.633,128.103 465.633,128.103 465.761,128.152 C465.955,128.232 465.847,128.154 465.482,127.867 C460.898,124.241 456.953,120.901 455.506,119.254 C453.933,117.464 454.224,115.011 456.253,113.48 C458.105,112.08 460.636,112.371 462.363,114.153 Z" />
        </g>
        <g id="Black-M" transform="translate(0,200)">
            <path d="M696.5,95.091 L633.5,95.091 C631.567,95.091 630,96.515 630,98.273 C630,100.03 631.567,101.455 633.5,101.455 L696.5,101.455 C698.433,101.455 700,100.03 700,98.273 C700,96.515 698.433,95.091 696.5,95.091 Z M675.5,79.182 L675.5,88.727 C675.5,90.485 677.067,91.909 679,91.909 C680.933,91.909 682.5,90.485 682.5,88.727 L682.5,79.182 C682.5,77.425 680.933,76 679,76 C677.067,76 675.5,77.425 675.5,79.182 Z M647.5,79.182 L647.5,88.727 C647.5,90.485 649.067,91.909 651,91.909 C652.933,91.909 654.5,90.485 654.5,88.727 L654.5,79.182 C654.5,77.425 652.933,76 651,76 C649.067,76 647.5,77.425 647.5,79.182 Z M650.3,146 L679.7,146 C687.753,146 689.667,145.858 692.356,144.613 C694.99,143.393 697.132,141.446 698.474,139.051 C699.844,136.606 700,134.867 700,127.545 L700,100.818 C700,93.497 699.844,91.757 698.474,89.313 C697.132,86.918 694.99,84.971 692.356,83.751 C689.667,82.506 687.753,82.364 679.7,82.364 L650.3,82.364 C642.247,82.364 640.333,82.506 637.644,83.751 C635.01,84.971 632.868,86.918 631.526,89.313 C630.156,91.757 630,93.497 630,100.818 L630,127.545 C630,134.867 630.156,136.606 631.526,139.05 C632.868,141.446 635.01,143.393 637.644,144.613 C640.333,145.858 642.247,146 650.3,146 Z M650.3,139.636 C643.653,139.636 642.065,139.518 640.822,138.943 C639.505,138.333 638.434,137.359 637.763,136.162 C637.13,135.032 637,133.588 637,127.545 L637,100.818 C637,94.776 637.13,93.332 637.763,92.201 C638.434,91.004 639.505,90.031 640.822,89.421 C642.065,88.845 643.653,88.727 650.3,88.727 L679.7,88.727 C686.347,88.727 687.935,88.845 689.178,89.421 C690.495,90.031 691.566,91.004 692.237,92.202 C692.87,93.332 693,94.776 693,100.818 L693,127.545 C693,133.588 692.87,135.032 692.237,136.162 C691.566,137.359 690.495,138.333 689.178,138.943 C687.935,139.518 686.347,139.636 679.7,139.636 L650.3,139.636 Z M667.616,109.947 C663.478,105.677 656.664,104.894 651.78,108.585 C646.832,112.32 646.072,118.714 650.037,123.225 C651.862,125.303 655.918,128.737 660.893,132.673 C661.931,133.489 662.184,133.669 662.903,133.962 C663.194,134.073 663.194,134.073 663.505,134.164 C664.46,134.424 665.512,134.424 666.482,134.163 C666.747,134.087 666.747,134.087 667.019,133.986 C667.771,133.692 668.037,133.503 669.087,132.672 C674.087,128.717 678.123,125.3 679.948,123.22 C681.864,121.095 682.77,118.316 682.431,115.543 C682.093,112.77 680.538,110.239 678.12,108.521 C673.218,104.925 666.485,105.692 662.362,109.951 L664.99,112.053 L668.49,112.056 L668.49,112.053 C668.49,111.278 668.18,110.528 667.616,109.947 Z M662.363,114.153 L664.99,112.05 L661.49,112.047 L661.49,112.05 C661.486,114.985 665.484,116.359 667.617,114.155 C669.34,112.376 671.84,112.091 673.768,113.505 C674.744,114.199 675.343,115.175 675.474,116.245 C675.604,117.314 675.255,118.387 674.505,119.219 C673.03,120.9 669.103,124.224 664.491,127.872 C664.138,128.151 664.031,128.228 664.25,128.142 C664.375,128.095 664.375,128.095 664.516,128.055 C664.824,127.972 665.162,127.972 665.502,128.065 C665.633,128.103 665.633,128.103 665.761,128.152 C665.955,128.232 665.847,128.154 665.482,127.867 C660.898,124.241 656.953,120.901 655.506,119.254 C653.933,117.464 654.224,115.011 656.253,113.48 C658.105,112.08 660.636,112.371 662.363,114.153 Z" />
        </g>
    </g>
</svg>