<?xml version="1.0" encoding="UTF-8"?>
<svg height="600" width="800" xmlns="http://www.w3.org/2000/svg" xmlns:xlink="http://www.w3.org/1999/xlink">
    <g id="Notes" font-family="LucidaGrande, 'Lucida Grande', sans-serif" font-size="13">
        <rect fill="white" height="600.0" width="800.0" x="0.0" y="0.0" />
        <g font-size="13">
            <text x="18.0" y="176.0">Small</text>
            <text x="18.0" y="376.0">Medium</text>
            <text x="18.0" y="576.0">Large</text>
        </g>
        <g font-size="9">
            <text x="250.0" y="30.0">Ultralight</text>
            <text x="450.0" y="30.0">Regular</text>
            <text x="650.0" y="30.0">Black</text>
            <text id="template-version" fill="#505050" text-anchor="end" x="785.0" y="575.0">Template v.3.0</text>
            <a href="https://github.com/swhitty/SwiftDraw">
                <text fill="#505050" text-anchor="end" x="785.0" y="590.0">https://github.com/swhitty/SwiftDraw</text>
            </a>
        </g>
    </g>
    <g id="Guides" stroke="rgb(39, 170, 225)" stroke-width="0.5">
        <path id="Capline-S" d="M18,76 l800,0" />
        <path id="H-reference" d="M85,145.755 L87.685,145.755 L113.369,79.287 L114.052,79.287 L114.052,76 L112.148,76 L85,145.755 Z M95.693,121.536 L130.996,121.536 L130.263,119.313 L96.474,119.313 L95.693,121.536 Z M139.15,145.755 L141.787,145.755 L114.638,76 L113.466,76 L113.466,79.287 L139.15,145.755 Z" stroke="none" transform="translate(0,200)" />
        <path id="Baseline-S" d="M18,146 l800,0" />
        <path id="left-margin-Ultralight-M" d="M230,256 l0,110" />
        <path id="right-margin-Ultralight-M" d="M300,256 l0,110" />
        <path id="left-margin-Regular-M" d="M430,256 l0,110" />
        <path id="right-margin-Regular-M" d="M500,256 l0,110" />
        <path id="left-margin-Black-M" d="M630,256 l0,110" />
        <path id="right-margin-Black-M" d="M700,256 l0,110" />
        <path id="Capline-M" d="M18,276 l800,0" />
        <path id="Baseline-M" d="M18,346 l800,0" />
        <path id="Capline-L" d="M18,476 l800,0" />
        <path id="Baseline-L" d="M18,546 l800,0" />
    </g>
    <g id="Symbols">
        <g id="Ultralight-M" transform="translate(0,200)">
            <path d="M244.583,93.5 L245.805,93.5 C246.371,93.5 246.512,93.498 246.758,93.482 C250.114,93.279 253.069,91.15 254.33,88.014 C254.339,87.994 254.339,87.994 254.354,87.954 C254.435,87.75 254.46,87.676 254.642,87.131 C254.767,86.752 254.801,86.654 254.824,86.599 C255.252,85.534 256.237,84.824 257.362,84.756 C257.439,84.751 257.539,84.75 257.942,84.75 L272.052,84.75 C272.459,84.75 272.557,84.751 272.617,84.755 C273.76,84.824 274.745,85.534 275.165,86.579 C275.174,86.602 275.174,86.602 275.176,86.605 C275.198,86.662 275.222,86.732 275.355,87.131 C275.525,87.646 275.579,87.8 275.675,88.034 C276.928,91.15 279.883,93.279 283.258,93.483 C283.486,93.498 283.629,93.5 284.23,93.5 C285.447,93.5 285.748,93.505 285.983,93.529 C288.757,93.803 290.947,95.993 291.22,98.76 C291.242,98.991 291.247,99.275 291.247,100.433 L291.247,128.5 C291.248,130.536 290.188,132.424 288.45,133.481 C287.074,134.319 286.637,136.113 287.475,137.489 C288.312,138.865 290.107,139.302 291.483,138.464 C294.96,136.347 297.082,132.57 297.08,128.499 L297.08,100.433 C297.08,99.038 297.075,98.705 297.026,98.196 C296.478,92.651 292.099,88.272 286.564,87.725 C286.05,87.672 285.707,87.667 284.23,87.667 C283.795,87.667 283.687,87.665 283.627,87.661 C282.484,87.592 281.499,86.883 281.079,85.837 C281.048,85.762 281.014,85.664 280.891,85.293 C280.707,84.741 280.682,84.666 280.601,84.463 C280.586,84.423 280.586,84.423 280.569,84.383 C279.316,81.266 276.361,79.137 272.987,78.934 C272.759,78.918 272.618,78.917 272.052,78.917 L257.942,78.917 C257.376,78.917 257.234,78.918 256.989,78.935 C253.636,79.137 250.681,81.266 249.42,84.402 C249.332,84.617 249.278,84.771 249.106,85.293 C248.975,85.685 248.951,85.755 248.929,85.811 C248.927,85.815 248.927,85.815 248.926,85.818 C248.498,86.883 247.513,87.592 246.388,87.66 C246.31,87.665 246.212,87.667 245.805,87.667 L244.583,87.667 C242.973,87.667 241.667,88.973 241.667,90.583 C241.667,92.194 242.973,93.5 244.583,93.5 Z M276.166,121.837 C281.032,116.047 280.664,107.498 275.319,102.147 C269.973,96.797 261.424,96.421 255.63,101.281 C254.396,102.316 254.234,104.156 255.27,105.39 C256.305,106.624 258.144,106.786 259.379,105.75 C262.855,102.834 267.985,103.06 271.192,106.27 C274.399,109.48 274.62,114.61 271.7,118.084 C270.664,119.317 270.824,121.157 272.057,122.193 C273.29,123.23 275.13,123.07 276.166,121.837 Z M296.229,138.104 L237.896,79.771 C236.757,78.632 234.91,78.632 233.771,79.771 C232.632,80.91 232.632,82.757 233.771,83.896 L292.104,142.229 C293.243,143.368 295.09,143.368 296.229,142.229 C297.368,141.09 297.368,139.243 296.229,138.104 Z M232.917,97.875 L232.917,123.25 C232.917,129.961 233.047,131.556 234.188,133.796 C235.307,135.992 237.092,137.777 239.287,138.895 C241.527,140.036 243.122,140.167 249.833,140.167 L275.208,140.167 C276.819,140.167 278.125,138.861 278.125,137.25 C278.125,135.639 276.819,134.333 275.208,134.333 L249.833,134.333 C244.294,134.333 242.971,134.225 241.935,133.697 C240.837,133.138 239.945,132.246 239.386,131.148 C238.858,130.112 238.75,128.789 238.75,123.25 L238.75,97.875 C238.75,96.264 237.444,94.958 235.833,94.958 C234.223,94.958 232.917,96.264 232.917,97.875 Z M265,121.208 C262.679,121.208 260.454,120.286 258.813,118.646 C257.172,117.005 256.25,114.779 256.25,112.458 C256.25,110.848 254.944,109.542 253.333,109.542 C251.723,109.542 250.417,110.848 250.417,112.458 C250.417,116.326 251.953,120.035 254.688,122.77 C257.423,125.505 261.132,127.042 265,127.042 C266.611,127.042 267.917,125.736 267.917,124.125 C267.917,122.514 266.611,121.208 265,121.208 Z" />
        </g>
        <g id="Regular-M" transform="translate(0,200)">
            <path d="M444.583,93.5 L445.805,93.5 C446.371,93.5 446.512,93.498 446.758,93.482 C450.114,93.279 453.069,91.15 454.33,88.014 C454.339,87.994 454.339,87.994 454.354,87.954 C454.435,87.75 454.46,87.676 454.642,87.131 C454.767,86.752 454.801,86.654 454.824,86.599 C455.252,85.534 456.237,84.824 457.362,84.756 C457.439,84.751 457.539,84.75 457.942,84.75 L472.052,84.75 C472.459,84.75 472.557,84.751 472.617,84.755 C473.76,84.824 474.745,85.534 475.165,86.579 C475.174,86.602 475.174,86.602 475.176,86.605 C475.198,86.662 475.222,86.732 475.355,87.131 C475.525,87.646 475.579,87.8 475.675,88.034 C476.928,91.15 479.883,93.279 483.258,93.483 C483.486,93.498 483.629,93.5 484.23,93.5 C485.447,93.5 485.748,93.505 485.983,93.529 C488.757,93.803 490.947,95.993 491.22,98.76 C491.242,98.991 491.247,99.275 491.247,100.433 L491.247,128.5 C491.248,130.536 490.188,132.424 488.45,133.481 C487.074,134.319 486.637,136.113 487.475,137.489 C488.312,138.865 490.107,139.302 491.483,138.464 C494.96,136.347 497.082,132.57 497.08,128.499 L497.08,100.433 C497.08,99.038 497.075,98.705 497.026,98.196 C496.478,92.651 492.099,88.272 486.564,87.725 C486.05,87.672 485.707,87.667 484.23,87.667 C483.795,87.667 483.687,87.665 483.627,87.661 C482.484,87.592 481.499,86.883 481.079,85.837 C481.048,85.762 481.014,85.664 480.891,85.293 C480.707,84.741 480.682,84.666 480.601,84.463 C480.586,84.423 480.586,84.423 480.569,84.383 C479.316,81.266 476.361,79.137 472.987,78.934 C472.759,78.918 472.618,78.917 472.052,78.917 L457.942,78.917 C457.376,78.917 457.234,78.918 456.989,78.935 C453.636,79.137 450.681,81.266 449.42,84.402 C449.332,84.617 449.278,84.771 449.106,85.293 C448.975,85.685 448.951,85.755 448.929,85.811 C448.927,85.815 448.927,85.815 448.926,85.818 C448.498,86.883 447.513,87.592 446.388,87.66 C446.31,87.665 446.212,87.667 445.805,87.667 L444.583,87.667 C442.973,87.667 441.667,88.973 441.667,90.583 C441.667,92.194 442.973,93.5 444.583,93.5 Z M476.166,121.837 C481.032,116.047 480.664,107.498 475.319,102.147 C469.973,96.797 461.424,96.421 455.63,101.281 C454.396,102.316 454.234,104.156 455.27,105.39 C456.305,106.624 458.144,106.786 459.379,105.75 C462.855,102.834 467.985,103.06 471.192,106.27 C474.399,109.48 474.62,114.61 471.7,118.084 C470.664,119.317 470.824,121.157 472.057,122.193 C473.29,123.23 475.13,123.07 476.166,121.837 Z M496.229,138.104 L437.896,79.771 C436.757,78.632 434.91,78.632 433.771,79.771 C432.632,80.91 432.632,82.757 433.771,83.896 L492.104,142.229 C493.243,143.368 495.09,143.368 496.229,142.229 C497.368,141.09 497.368,139.243 496.229,138.104 Z M432.917,97.875 L432.917,123.25 C432.917,129.961 433.047,131.556 434.188,133.796 C435.307,135.992 437.092,137.777 439.287,138.895 C441.527,140.036 443.122,140.167 449.833,140.167 L475.208,140.167 C476.819,140.167 478.125,138.861 478.125,137.25 C478.125,135.639 476.819,134.333 475.208,134.333 L449.833,134.333 C444.294,134.333 442.971,134.225 441.935,133.697 C440.837,133.138 439.945,132.246 439.386,131.148 C438.858,130.112 438.75,128.789 438.75,123.25 L438.75,97.875 C438.75,96.264 437.444,94.958 435.833,94.958 C434.223,94.958 432.917,96.264 432.917,97.875 Z M465,121.208 C462.679,121.208 460.454,120.286 458.813,118.646 C457.172,117.005 456.25,114.779 456.25,112.458 C456.25,110.848 454.944,109.542 453.333,109.542 C451.723,109.542 450.417,110.848 450.417,112.458 C450.417,116.326 451.953,120.035 454.688,122.77 C457.423,125.505 461.132,127.042 465,127.042 C466.611,127.042 467.917,125.736 467.917,124.125 C467.917,122.514 466.611,121.208 465,121.208 Z" />
        </g>
        <g id="Black-M" transform="translate(0,200)">
            <path d="M644.583,93.5 L645.805,93.5 C646.37,93.5 646.512,93.498 646.758,93.482 C650.114,93.279 653.069,91.15 654.33,88.014 C654.339,87.994 654.339,87.994 654.354,87.954 C654.435,87.75 654.46,87.676 654.642,87.131 C654.767,86.752 654.801,86.654 654.824,86.599 C655.252,85.534 656.237,84.824 657.362,84.756 C657.439,84.751 657.539,84.75 657.942,84.75 L672.052,84.75 C672.459,84.75 672.557,84.751 672.617,84.755 C673.76,84.824 674.745,85.534 675.165,86.579 C675.174,86.602 675.174,86.602 675.176,86.605 C675.198,86.662 675.222,86.732 675.355,87.131 C675.526,87.646 675.579,87.8 675.675,88.034 C676.928,91.15 679.883,93.279 683.258,93.483 C683.486,93.498 683.629,93.5 684.23,93.5 C685.447,93.5 685.748,93.505 685.983,93.529 C688.757,93.803 690.947,95.993 691.22,98.76 C691.242,98.991 691.247,99.275 691.247,100.433 L691.247,128.5 C691.248,130.536 690.188,132.424 688.45,133.481 C687.074,134.319 686.637,136.113 687.475,137.489 C688.312,138.865 690.107,139.302 691.483,138.464 C694.96,136.347 697.082,132.57 697.08,128.499 L697.08,100.433 C697.08,99.038 697.075,98.705 697.026,98.196 C696.478,92.651 692.099,88.272 686.564,87.725 C686.05,87.672 685.707,87.667 684.23,87.667 C683.795,87.667 683.687,87.665 683.627,87.661 C682.484,87.592 681.499,86.883 681.079,85.837 C681.048,85.762 681.014,85.664 680.891,85.293 C680.707,84.741 680.682,84.666 680.601,84.463 C680.586,84.423 680.586,84.423 680.569,84.383 C679.316,81.266 676.361,79.137 672.987,78.934 C672.759,78.918 672.618,78.917 672.052,78.917 L657.942,78.917 C657.376,78.917 657.234,78.918 656.989,78.935 C653.636,79.137 650.681,81.266 649.42,84.402 C649.332,84.617 649.278,84.771 649.106,85.293 C648.975,85.685 648.951,85.755 648.929,85.811 C648.927,85.815 648.927,85.815 648.926,85.818 C648.498,86.883 647.513,87.592 646.388,87.66 C646.31,87.665 646.212,87.667 645.805,87.667 L644.583,87.667 C642.973,87.667 641.667,88.973 641.667,90.583 C641.667,92.194 642.973,93.5 644.583,93.5 Z M676.166,121.837 C681.032,116.047 680.664,107.498 675.319,102.147 C669.973,96.797 661.424,96.421 655.63,101.281 C654.396,102.316 654.234,104.156 655.27,105.39 C656.305,106.624 658.144,106.786 659.379,105.75 C662.855,102.834 667.985,103.06 671.192,106.27 C674.399,109.48 674.62,114.61 671.7,118.084 C670.664,119.317 670.824,121.157 672.057,122.193 C673.29,123.23 675.13,123.07 676.166,121.837 Z M696.229,138.104 L637.896,79.771 C636.757,78.632 634.91,78.632 633.771,79.771 C632.632,80.91 632.632,82.757 633.771,83.896 L692.104,142.229 C693.243,143.368 695.09,143.368 696.229,142.229 C697.368,141.09 697.368,139.243 696.229,138.104 Z M632.917,97.875 L632.917,123.25 C632.917,129.961 633.047,131.556 634.188,133.796 C635.307,135.992 637.092,137.777 639.287,138.895 C641.527,140.036 643.122,140.167 649.833,140.167 L675.208,140.167 C676.819,140.167 678.125,138.861 678.125,137.25 C678.125,135.639 676.819,134.333 675.208,134.333 L649.833,134.333 C644.294,134.333 642.971,134.225 641.935,133.697 C640.837,133.138 639.945,132.246 639.386,131.148 C638.858,130.112 638.75,128.789 638.75,123.25 L638.75,97.875 C638.75,96.264 637.444,94.958 635.833,94.958 C634.222,94.958 632.917,96.264 632.917,97.875 Z M665,121.208 C662.679,121.208 660.454,120.286 658.813,118.646 C657.172,117.005 656.25,114.779 656.25,112.458 C656.25,110.848 654.944,109.542 653.333,109.542 C651.723,109.542 650.417,110.848 650.417,112.458 C650.417,116.326 651.953,120.035 654.688,122.77 C657.423,125.505 661.132,127.042 665,127.042 C666.611,127.042 667.917,125.736 667.917,124.125 C667.917,122.514 666.611,121.208 665,121.208 Z" />
        </g>
    </g>
</svg>