<?xml version="1.0" encoding="UTF-8"?>
<svg height="600" width="800" xmlns="http://www.w3.org/2000/svg" xmlns:xlink="http://www.w3.org/1999/xlink">
    <g id="Notes" font-family="LucidaGrande, 'Lucida Grande', sans-serif" font-size="13">
        <rect fill="white" height="600.0" width="800.0" x="0.0" y="0.0" />
        <g font-size="13">
            <text x="18.0" y="176.0">Small</text>
            <text x="18.0" y="376.0">Medium</text>
            <text x="18.0" y="576.0">Large</text>
        </g>
        <g font-size="9">
            <text x="250.0" y="30.0">Ultralight</text>
            <text x="450.0" y="30.0">Regular</text>
            <text x="650.0" y="30.0">Black</text>
            <text id="template-version" fill="#505050" text-anchor="end" x="785.0" y="575.0">Template v.3.0</text>
            <a href="https://github.com/swhitty/SwiftDraw">
                <text fill="#505050" text-anchor="end" x="785.0" y="590.0">https://github.com/swhitty/SwiftDraw</text>
            </a>
        </g>
    </g>
    <g id="Guides" stroke="rgb(39, 170, 225)" stroke-width="0.5">
        <path id="Capline-S" d="M18,76 l800,0" />
        <path id="H-reference" d="M85,145.755 L87.685,145.755 L113.369,79.287 L114.052,79.287 L114.052,76 L112.148,76 L85,145.755 Z M95.693,121.536 L130.996,121.536 L130.263,119.313 L96.474,119.313 L95.693,121.536 Z M139.15,145.755 L141.787,145.755 L114.638,76 L113.466,76 L113.466,79.287 L139.15,145.755 Z" stroke="none" transform="translate(0,200)" />
        <path id="Baseline-S" d="M18,146 l800,0" />
        <path id="left-margin-Ultralight-M" d="M230,256 l0,110" />
        <path id="right-margin-Ultralight-M" d="M300,256 l0,110" />
        <path id="left-margin-Regular-M" d="M430,256 l0,110" />
        <path id="right-margin-Regular-M" d="M500,256 l0,110" />
        <path id="left-margin-Black-M" d="M630,256 l0,110" />
        <path id="right-margin-Black-M" d="M700,256 l0,110" />
        <path id="Capline-M" d="M18,276 l800,0" />
        <path id="Baseline-M" d="M18,346 l800,0" />
        <path id="Capline-L" d="M18,476 l800,0" />
        <path id="Baseline-L" d="M18,546 l800,0" />
    </g>
    <g id="Symbols">
        <g id="Ultralight-M" transform="translate(0,200)">
            <path d="M254.5,134.864 L275.5,134.864 C277.433,134.864 279,133.439 279,131.682 C279,129.925 277.433,128.5 275.5,128.5 L254.5,128.5 C252.567,128.5 251,129.925 251,131.682 C251,133.439 252.567,134.864 254.5,134.864 Z M247.5,123.727 L282.5,123.727 C284.433,123.727 286,122.303 286,120.545 C286,118.788 284.433,117.364 282.5,117.364 L247.5,117.364 C245.567,117.364 244,118.788 244,120.545 C244,122.303 245.567,123.727 247.5,123.727 Z M240.5,82.364 L289.5,82.364 C291.347,82.364 293,84.034 293,86.252 L293,135.748 C293,137.966 291.347,139.636 289.5,139.636 L240.5,139.636 C238.653,139.636 237,137.966 237,135.748 L237,86.252 C237,84.034 238.653,82.364 240.5,82.364 Z M240.5,76 C234.613,76 230,80.66 230,86.252 L230,135.748 C230,141.34 234.613,146 240.5,146 L289.5,146 C295.387,146 300,141.34 300,135.748 L300,86.252 C300,80.66 295.387,76 289.5,76 L240.5,76 Z M267.598,90.458 C263.83,86.642 257.633,85.945 253.179,89.241 C248.636,92.599 247.933,98.397 251.584,102.469 C252.524,103.516 254.097,104.928 256.218,106.686 C256.466,106.891 256.599,107 256.98,107.312 C258.245,108.346 259.596,109.417 260.947,110.466 C261.757,111.095 262.389,111.579 262.755,111.855 C264.052,112.837 265.935,112.836 267.233,111.854 C267.598,111.578 268.23,111.094 269.04,110.465 C270.39,109.415 271.74,108.344 273.005,107.31 C273.384,107 273.384,107 273.761,106.688 C275.883,104.928 277.457,103.516 278.396,102.472 C282.068,98.377 281.385,92.537 276.766,89.214 C272.264,85.975 266.141,86.657 262.388,90.459 L267.598,90.458 Z M262.388,94.709 C263.779,96.118 266.207,96.118 267.598,94.709 C268.953,93.336 270.912,93.118 272.421,94.204 C273.971,95.319 274.18,97.102 272.973,98.448 C272.318,99.176 270.924,100.428 269.045,101.986 C268.686,102.282 268.686,102.282 268.325,102.578 C267.108,103.573 265.8,104.61 264.491,105.627 C263.706,106.238 263.097,106.704 262.753,106.964 L267.231,106.963 C266.888,106.703 266.279,106.237 265.493,105.627 C264.184,104.611 262.876,103.574 261.659,102.579 C261.295,102.282 261.17,102.178 260.934,101.983 C259.057,100.428 257.664,99.177 257.008,98.446 C255.819,97.12 256.036,95.331 257.597,94.177 C259.043,93.107 261.028,93.331 262.388,94.709 Z" />
        </g>
        <g id="Regular-M" transform="translate(0,200)">
            <path d="M454.5,134.864 L475.5,134.864 C477.433,134.864 479,133.439 479,131.682 C479,129.925 477.433,128.5 475.5,128.5 L454.5,128.5 C452.567,128.5 451,129.925 451,131.682 C451,133.439 452.567,134.864 454.5,134.864 Z M447.5,123.727 L482.5,123.727 C484.433,123.727 486,122.303 486,120.545 C486,118.788 484.433,117.364 482.5,117.364 L447.5,117.364 C445.567,117.364 444,118.788 444,120.545 C444,122.303 445.567,123.727 447.5,123.727 Z M440.5,82.364 L489.5,82.364 C491.347,82.364 493,84.034 493,86.252 L493,135.748 C493,137.966 491.347,139.636 489.5,139.636 L440.5,139.636 C438.653,139.636 437,137.966 437,135.748 L437,86.252 C437,84.034 438.653,82.364 440.5,82.364 Z M440.5,76 C434.613,76 430,80.66 430,86.252 L430,135.748 C430,141.34 434.613,146 440.5,146 L489.5,146 C495.387,146 500,141.34 500,135.748 L500,86.252 C500,80.66 495.387,76 489.5,76 L440.5,76 Z M467.598,90.458 C463.83,86.642 457.633,85.945 453.179,89.241 C448.636,92.599 447.933,98.397 451.584,102.469 C452.524,103.516 454.097,104.928 456.218,106.686 C456.466,106.891 456.599,107 456.98,107.312 C458.245,108.346 459.596,109.417 460.947,110.466 C461.757,111.095 462.389,111.579 462.755,111.855 C464.052,112.837 465.935,112.836 467.233,111.854 C467.598,111.578 468.23,111.094 469.04,110.465 C470.39,109.415 471.74,108.344 473.005,107.31 C473.384,107 473.384,107 473.761,106.688 C475.883,104.928 477.457,103.516 478.396,102.472 C482.068,98.377 481.385,92.537 476.766,89.214 C472.264,85.975 466.141,86.657 462.388,90.459 L467.598,90.458 Z M462.388,94.709 C463.779,96.118 466.207,96.118 467.598,94.709 C468.953,93.336 470.912,93.118 472.421,94.204 C473.971,95.319 474.18,97.102 472.973,98.448 C472.318,99.176 470.924,100.428 469.045,101.986 C468.686,102.282 468.686,102.282 468.325,102.578 C467.108,103.573 465.8,104.61 464.491,105.627 C463.706,106.238 463.097,106.704 462.753,106.964 L467.231,106.963 C466.888,106.703 466.279,106.237 465.493,105.627 C464.184,104.611 462.876,103.574 461.659,102.579 C461.295,102.282 461.17,102.178 460.934,101.983 C459.057,100.428 457.664,99.177 457.008,98.446 C455.819,97.12 456.036,95.331 457.597,94.177 C459.043,93.107 461.028,93.331 462.388,94.709 Z" />
        </g>
        <g id="Black-M" transform="translate(0,200)">
            <path d="M654.5,134.864 L675.5,134.864 C677.433,134.864 679,133.439 679,131.682 C679,129.925 677.433,128.5 675.5,128.5 L654.5,128.5 C652.567,128.5 651,129.925 651,131.682 C651,133.439 652.567,134.864 654.5,134.864 Z M647.5,123.727 L682.5,123.727 C684.433,123.727 686,122.303 686,120.545 C686,118.788 684.433,117.364 682.5,117.364 L647.5,117.364 C645.567,117.364 644,118.788 644,120.545 C644,122.303 645.567,123.727 647.5,123.727 Z M640.5,82.364 L689.5,82.364 C691.347,82.364 693,84.034 693,86.252 L693,135.748 C693,137.966 691.347,139.636 689.5,139.636 L640.5,139.636 C638.653,139.636 637,137.966 637,135.748 L637,86.252 C637,84.034 638.653,82.364 640.5,82.364 Z M640.5,76 C634.613,76 630,80.66 630,86.252 L630,135.748 C630,141.34 634.613,146 640.5,146 L689.5,146 C695.387,146 700,141.34 700,135.748 L700,86.252 C700,80.66 695.387,76 689.5,76 L640.5,76 Z M667.598,90.458 C663.83,86.642 657.633,85.945 653.179,89.241 C648.636,92.599 647.933,98.397 651.584,102.469 C652.524,103.516 654.097,104.928 656.218,106.686 C656.466,106.891 656.599,107 656.98,107.312 C658.245,108.346 659.596,109.417 660.947,110.466 C661.757,111.095 662.389,111.579 662.755,111.855 C664.052,112.837 665.935,112.836 667.233,111.854 C667.598,111.578 668.23,111.094 669.04,110.465 C670.39,109.415 671.74,108.344 673.005,107.31 C673.384,107 673.384,107 673.761,106.688 C675.883,104.928 677.457,103.516 678.396,102.472 C682.068,98.377 681.385,92.537 676.766,89.214 C672.264,85.975 666.141,86.657 662.388,90.459 L667.598,90.458 Z M662.388,94.709 C663.779,96.118 666.207,96.118 667.598,94.709 C668.953,93.336 670.912,93.118 672.421,94.204 C673.971,95.319 674.18,97.102 672.973,98.448 C672.318,99.176 670.924,100.428 669.045,101.986 C668.686,102.282 668.686,102.282 668.325,102.578 C667.108,103.573 665.8,104.61 664.491,105.627 C663.706,106.238 663.097,106.704 662.753,106.964 L667.231,106.963 C666.888,106.703 666.279,106.237 665.493,105.627 C664.184,104.611 662.876,103.574 661.659,102.579 C661.295,102.282 661.17,102.178 660.934,101.983 C659.057,100.428 657.664,99.177 657.008,98.446 C655.819,97.12 656.036,95.331 657.597,94.177 C659.043,93.107 661.028,93.331 662.388,94.709 Z" />
        </g>
    </g>
</svg>