<?xml version="1.0" encoding="UTF-8"?>
<svg height="600" width="800" xmlns="http://www.w3.org/2000/svg" xmlns:xlink="http://www.w3.org/1999/xlink">
    <g id="Notes" font-family="LucidaGrande, 'Lucida Grande', sans-serif" font-size="13">
        <rect fill="white" height="600.0" width="800.0" x="0.0" y="0.0" />
        <g font-size="13">
            <text x="18.0" y="176.0">Small</text>
            <text x="18.0" y="376.0">Medium</text>
            <text x="18.0" y="576.0">Large</text>
        </g>
        <g font-size="9">
            <text x="250.0" y="30.0">Ultralight</text>
            <text x="450.0" y="30.0">Regular</text>
            <text x="650.0" y="30.0">Black</text>
            <text id="template-version" fill="#505050" text-anchor="end" x="785.0" y="575.0">Template v.3.0</text>
            <a href="https://github.com/swhitty/SwiftDraw">
                <text fill="#505050" text-anchor="end" x="785.0" y="590.0">https://github.com/swhitty/SwiftDraw</text>
            </a>
        </g>
    </g>
    <g id="Guides" stroke="rgb(39, 170, 225)" stroke-width="0.5">
        <path id="Capline-S" d="M18,76 l800,0" />
        <path id="H-reference" d="M85,145.755 L87.685,145.755 L113.369,79.287 L114.052,79.287 L114.052,76 L112.148,76 L85,145.755 Z M95.693,121.536 L130.996,121.536 L130.263,119.313 L96.474,119.313 L95.693,121.536 Z M139.15,145.755 L141.787,145.755 L114.638,76 L113.466,76 L113.466,79.287 L139.15,145.755 Z" stroke="none" transform="translate(0,200)" />
        <path id="Baseline-S" d="M18,146 l800,0" />
        <path id="left-margin-Ultralight-M" d="M230,256 l0,110" />
        <path id="right-margin-Ultralight-M" d="M300,256 l0,110" />
        <path id="left-margin-Regular-M" d="M430,256 l0,110" />
        <path id="right-margin-Regular-M" d="M500,256 l0,110" />
        <path id="left-margin-Black-M" d="M630,256 l0,110" />
        <path id="right-margin-Black-M" d="M700,256 l0,110" />
        <path id="Capline-M" d="M18,276 l800,0" />
        <path id="Baseline-M" d="M18,346 l800,0" />
        <path id="Capline-L" d="M18,476 l800,0" />
        <path id="Baseline-L" d="M18,546 l800,0" />
    </g>
    <g id="Symbols">
        <g id="Ultralight-M" transform="translate(0,200)">
            <path d="M291.25,108.334 L291.25,111.018 C291.243,122.642 283.591,132.878 272.442,136.174 C261.294,139.47 249.306,135.04 242.978,125.288 C236.651,115.535 237.492,102.782 245.046,93.945 C252.599,85.108 265.066,82.292 275.684,87.024 C277.156,87.679 278.88,87.018 279.536,85.547 C280.191,84.075 279.53,82.351 278.059,81.695 C265.08,75.912 249.844,79.354 240.612,90.155 C231.38,100.956 230.352,116.542 238.085,128.462 C245.818,140.382 260.47,145.796 274.096,141.768 C287.722,137.739 297.075,125.229 297.083,111.019 L297.083,108.334 C297.083,106.723 295.777,105.418 294.167,105.418 C292.556,105.418 291.25,106.723 291.25,108.334 Z M292.103,85.605 L262.937,114.801 L267.062,114.8 L258.312,106.05 C257.173,104.911 255.327,104.911 254.188,106.05 C253.049,107.189 253.049,109.036 254.188,110.175 L262.938,118.925 C264.077,120.064 265.925,120.064 267.063,118.924 L296.23,89.728 C297.369,88.588 297.368,86.742 296.228,85.603 C295.088,84.465 293.242,84.466 292.103,85.605 Z" />
        </g>
        <g id="Regular-M" transform="translate(0,200)">
            <path d="M491.25,108.334 L491.25,111.018 C491.243,122.642 483.591,132.878 472.442,136.174 C461.294,139.47 449.306,135.04 442.978,125.288 C436.651,115.535 437.492,102.782 445.046,93.945 C452.599,85.108 465.066,82.292 475.684,87.024 C477.156,87.679 478.88,87.018 479.536,85.547 C480.191,84.075 479.53,82.351 478.059,81.695 C465.08,75.912 449.844,79.354 440.612,90.155 C431.38,100.956 430.352,116.542 438.085,128.462 C445.818,140.382 460.47,145.796 474.096,141.768 C487.722,137.739 497.075,125.229 497.083,111.019 L497.083,108.334 C497.083,106.723 495.777,105.418 494.167,105.418 C492.556,105.418 491.25,106.723 491.25,108.334 Z M492.103,85.605 L462.937,114.801 L467.062,114.8 L458.312,106.05 C457.173,104.911 455.327,104.911 454.188,106.05 C453.049,107.189 453.049,109.036 454.188,110.175 L462.938,118.925 C464.077,120.064 465.925,120.064 467.063,118.924 L496.23,89.728 C497.369,88.588 497.368,86.742 496.228,85.603 C495.088,84.465 493.242,84.466 492.103,85.605 Z" />
        </g>
        <g id="Black-M" transform="translate(0,200)">
            <path d="M691.25,108.334 L691.25,111.018 C691.243,122.642 683.591,132.878 672.442,136.174 C661.294,139.47 649.306,135.04 642.978,125.288 C636.651,115.535 637.492,102.782 645.046,93.945 C652.599,85.108 665.066,82.292 675.684,87.024 C677.156,87.679 678.88,87.018 679.536,85.547 C680.191,84.075 679.53,82.351 678.059,81.695 C665.08,75.912 649.844,79.354 640.612,90.155 C631.38,100.956 630.352,116.542 638.085,128.462 C645.818,140.382 660.47,145.796 674.096,141.768 C687.722,137.739 697.075,125.229 697.083,111.019 L697.083,108.334 C697.083,106.723 695.777,105.418 694.167,105.418 C692.556,105.418 691.25,106.723 691.25,108.334 Z M692.103,85.605 L662.937,114.801 L667.062,114.8 L658.312,106.05 C657.173,104.911 655.327,104.911 654.188,106.05 C653.049,107.189 653.049,109.036 654.188,110.175 L662.938,118.925 C664.077,120.064 665.925,120.064 667.063,118.924 L696.23,89.728 C697.369,88.588 697.368,86.742 696.228,85.603 C695.088,84.465 693.242,84.466 692.103,85.605 Z" />
        </g>
    </g>
</svg>