<?xml version="1.0" encoding="UTF-8"?>
<svg height="600" width="800" xmlns="http://www.w3.org/2000/svg" xmlns:xlink="http://www.w3.org/1999/xlink">
    <g id="Notes" font-family="LucidaGrande, 'Lucida Grande', sans-serif" font-size="13">
        <rect fill="white" height="600.0" width="800.0" x="0.0" y="0.0" />
        <g font-size="13">
            <text x="18.0" y="176.0">Small</text>
            <text x="18.0" y="376.0">Medium</text>
            <text x="18.0" y="576.0">Large</text>
        </g>
        <g font-size="9">
            <text x="250.0" y="30.0">Ultralight</text>
            <text x="450.0" y="30.0">Regular</text>
            <text x="650.0" y="30.0">Black</text>
            <text id="template-version" fill="#505050" text-anchor="end" x="785.0" y="575.0">Template v.3.0</text>
            <a href="https://github.com/swhitty/SwiftDraw">
                <text fill="#505050" text-anchor="end" x="785.0" y="590.0">https://github.com/swhitty/SwiftDraw</text>
            </a>
        </g>
    </g>
    <g id="Guides" stroke="rgb(39, 170, 225)" stroke-width="0.5">
        <path id="Capline-S" d="M18,76 l800,0" />
        <path id="H-reference" d="M85,145.755 L87.685,145.755 L113.369,79.287 L114.052,79.287 L114.052,76 L112.148,76 L85,145.755 Z M95.693,121.536 L130.996,121.536 L130.263,119.313 L96.474,119.313 L95.693,121.536 Z M139.15,145.755 L141.787,145.755 L114.638,76 L113.466,76 L113.466,79.287 L139.15,145.755 Z" stroke="none" transform="translate(0,200)" />
        <path id="Baseline-S" d="M18,146 l800,0" />
        <path id="left-margin-Ultralight-M" d="M230,256 l0,110" />
        <path id="right-margin-Ultralight-M" d="M300,256 l0,110" />
        <path id="left-margin-Regular-M" d="M430,256 l0,110" />
        <path id="right-margin-Regular-M" d="M500,256 l0,110" />
        <path id="left-margin-Black-M" d="M630,256 l0,110" />
        <path id="right-margin-Black-M" d="M700,256 l0,110" />
        <path id="Capline-M" d="M18,276 l800,0" />
        <path id="Baseline-M" d="M18,346 l800,0" />
        <path id="Capline-L" d="M18,476 l800,0" />
        <path id="Baseline-L" d="M18,546 l800,0" />
    </g>
    <g id="Symbols">
        <g id="Ultralight-M" transform="translate(0,200)">
            <path d="M293.361,77.577 L250.583,136.808 L256.083,136.808 L236.639,109.885 C235.12,107.782 232.658,107.782 231.139,109.885 C229.62,111.988 229.62,115.397 231.139,117.5 L250.583,144.423 C252.102,146.526 254.564,146.526 256.083,144.423 L298.861,85.192 C300.38,83.089 300.38,79.68 298.861,77.577 C297.342,75.474 294.88,75.474 293.361,77.577 Z" />
        </g>
        <g id="Regular-M" transform="translate(0,200)">
            <path d="M493.361,77.577 L450.583,136.808 L456.083,136.808 L436.639,109.885 C435.12,107.782 432.658,107.782 431.139,109.885 C429.62,111.988 429.62,115.397 431.139,117.5 L450.583,144.423 C452.102,146.526 454.564,146.526 456.083,144.423 L498.861,85.192 C500.38,83.089 500.38,79.68 498.861,77.577 C497.342,75.474 494.88,75.474 493.361,77.577 Z" />
        </g>
        <g id="Black-M" transform="translate(0,200)">
            <path d="M693.361,77.577 L650.583,136.808 L656.083,136.808 L636.639,109.885 C635.12,107.782 632.658,107.782 631.139,109.885 C629.62,111.988 629.62,115.397 631.139,117.5 L650.583,144.423 C652.102,146.526 654.565,146.526 656.083,144.423 L698.861,85.192 C700.38,83.089 700.38,79.68 698.861,77.577 C697.342,75.474 694.88,75.474 693.361,77.577 Z" />
        </g>
    </g>
</svg>