<?xml version="1.0" encoding="UTF-8"?>
<svg height="600" width="800" xmlns="http://www.w3.org/2000/svg" xmlns:xlink="http://www.w3.org/1999/xlink">
    <g id="Notes" font-family="LucidaGrande, 'Lucida Grande', sans-serif" font-size="13">
        <rect fill="white" height="600.0" width="800.0" x="0.0" y="0.0" />
        <g font-size="13">
            <text x="18.0" y="176.0">Small</text>
            <text x="18.0" y="376.0">Medium</text>
            <text x="18.0" y="576.0">Large</text>
        </g>
        <g font-size="9">
            <text x="250.0" y="30.0">Ultralight</text>
            <text x="450.0" y="30.0">Regular</text>
            <text x="650.0" y="30.0">Black</text>
            <text id="template-version" fill="#505050" text-anchor="end" x="785.0" y="575.0">Template v.3.0</text>
            <a href="https://github.com/swhitty/SwiftDraw">
                <text fill="#505050" text-anchor="end" x="785.0" y="590.0">https://github.com/swhitty/SwiftDraw</text>
            </a>
        </g>
    </g>
    <g id="Guides" stroke="rgb(39, 170, 225)" stroke-width="0.5">
        <path id="Capline-S" d="M18,76 l800,0" />
        <path id="H-reference" d="M85,145.755 L87.685,145.755 L113.369,79.287 L114.052,79.287 L114.052,76 L112.148,76 L85,145.755 Z M95.693,121.536 L130.996,121.536 L130.263,119.313 L96.474,119.313 L95.693,121.536 Z M139.15,145.755 L141.787,145.755 L114.638,76 L113.466,76 L113.466,79.287 L139.15,145.755 Z" stroke="none" transform="translate(0,200)" />
        <path id="Baseline-S" d="M18,146 l800,0" />
        <path id="left-margin-Ultralight-M" d="M230,256 l0,110" />
        <path id="right-margin-Ultralight-M" d="M300,256 l0,110" />
        <path id="left-margin-Regular-M" d="M430,256 l0,110" />
        <path id="right-margin-Regular-M" d="M500,256 l0,110" />
        <path id="left-margin-Black-M" d="M630,256 l0,110" />
        <path id="right-margin-Black-M" d="M700,256 l0,110" />
        <path id="Capline-M" d="M18,276 l800,0" />
        <path id="Baseline-M" d="M18,346 l800,0" />
        <path id="Capline-L" d="M18,476 l800,0" />
        <path id="Baseline-L" d="M18,546 l800,0" />
    </g>
    <g id="Symbols">
        <g id="Ultralight-M" transform="translate(0,200)">
            <path d="M231.709,119.536 L260.875,144.536 C263.153,146.488 266.847,146.488 269.125,144.536 L298.291,119.536 C300.57,117.583 300.57,114.417 298.291,112.464 C296.013,110.512 292.32,110.512 290.042,112.464 L260.875,137.464 L269.125,137.464 L239.958,112.464 C237.68,110.512 233.987,110.512 231.709,112.464 C229.43,114.417 229.43,117.583 231.709,119.536 Z M231.709,84.536 L260.875,109.536 C263.153,111.488 266.847,111.488 269.125,109.536 L298.291,84.536 C300.57,82.583 300.57,79.417 298.291,77.464 C296.013,75.512 292.32,75.512 290.042,77.464 L260.875,102.464 L269.125,102.464 L239.958,77.464 C237.68,75.512 233.987,75.512 231.709,77.464 C229.43,79.417 229.43,82.583 231.709,84.536 Z" />
        </g>
        <g id="Regular-M" transform="translate(0,200)">
            <path d="M431.709,119.536 L460.875,144.536 C463.153,146.488 466.847,146.488 469.125,144.536 L498.291,119.536 C500.57,117.583 500.57,114.417 498.291,112.464 C496.013,110.512 492.32,110.512 490.042,112.464 L460.875,137.464 L469.125,137.464 L439.958,112.464 C437.68,110.512 433.987,110.512 431.709,112.464 C429.43,114.417 429.43,117.583 431.709,119.536 Z M431.709,84.536 L460.875,109.536 C463.153,111.488 466.847,111.488 469.125,109.536 L498.291,84.536 C500.57,82.583 500.57,79.417 498.291,77.464 C496.013,75.512 492.32,75.512 490.042,77.464 L460.875,102.464 L469.125,102.464 L439.958,77.464 C437.68,75.512 433.987,75.512 431.709,77.464 C429.43,79.417 429.43,82.583 431.709,84.536 Z" />
        </g>
        <g id="Black-M" transform="translate(0,200)">
            <path d="M631.709,119.536 L660.875,144.536 C663.153,146.488 666.847,146.488 669.125,144.536 L698.291,119.536 C700.57,117.583 700.57,114.417 698.291,112.464 C696.013,110.512 692.32,110.512 690.042,112.464 L660.875,137.464 L669.125,137.464 L639.958,112.464 C637.68,110.512 633.987,110.512 631.709,112.464 C629.43,114.417 629.43,117.583 631.709,119.536 Z M631.709,84.536 L660.875,109.536 C663.153,111.488 666.847,111.488 669.125,109.536 L698.291,84.536 C700.57,82.583 700.57,79.417 698.291,77.464 C696.013,75.512 692.32,75.512 690.042,77.464 L660.875,102.464 L669.125,102.464 L639.958,77.464 C637.68,75.512 633.987,75.512 631.709,77.464 C629.43,79.417 629.43,82.583 631.709,84.536 Z" />
        </g>
    </g>
</svg>