<?xml version="1.0" encoding="UTF-8"?>
<svg height="600" width="800" xmlns="http://www.w3.org/2000/svg" xmlns:xlink="http://www.w3.org/1999/xlink">
    <g id="Notes" font-family="LucidaGrande, 'Lucida Grande', sans-serif" font-size="13">
        <rect fill="white" height="600.0" width="800.0" x="0.0" y="0.0" />
        <g font-size="13">
            <text x="18.0" y="176.0">Small</text>
            <text x="18.0" y="376.0">Medium</text>
            <text x="18.0" y="576.0">Large</text>
        </g>
        <g font-size="9">
            <text x="250.0" y="30.0">Ultralight</text>
            <text x="450.0" y="30.0">Regular</text>
            <text x="650.0" y="30.0">Black</text>
            <text id="template-version" fill="#505050" text-anchor="end" x="785.0" y="575.0">Template v.3.0</text>
            <a href="https://github.com/swhitty/SwiftDraw">
                <text fill="#505050" text-anchor="end" x="785.0" y="590.0">https://github.com/swhitty/SwiftDraw</text>
            </a>
        </g>
    </g>
    <g id="Guides" stroke="rgb(39, 170, 225)" stroke-width="0.5">
        <path id="Capline-S" d="M18,76 l800,0" />
        <path id="H-reference" d="M85,145.755 L87.685,145.755 L113.369,79.287 L114.052,79.287 L114.052,76 L112.148,76 L85,145.755 Z M95.693,121.536 L130.996,121.536 L130.263,119.313 L96.474,119.313 L95.693,121.536 Z M139.15,145.755 L141.787,145.755 L114.638,76 L113.466,76 L113.466,79.287 L139.15,145.755 Z" stroke="none" transform="translate(0,200)" />
        <path id="Baseline-S" d="M18,146 l800,0" />
        <path id="left-margin-Ultralight-M" d="M224.167,256 l0,110" />
        <path id="right-margin-Ultralight-M" d="M305.833,256 l0,110" />
        <path id="left-margin-Regular-M" d="M424.167,256 l0,110" />
        <path id="right-margin-Regular-M" d="M505.833,256 l0,110" />
        <path id="left-margin-Black-M" d="M624.167,256 l0,110" />
        <path id="right-margin-Black-M" d="M705.833,256 l0,110" />
        <path id="Capline-M" d="M18,276 l800,0" />
        <path id="Baseline-M" d="M18,346 l800,0" />
        <path id="Capline-L" d="M18,476 l800,0" />
        <path id="Baseline-L" d="M18,546 l800,0" />
    </g>
    <g id="Symbols">
        <g id="Ultralight-M" transform="translate(0,200)">
            <path d="M234.125,144.291 L263.291,115.125 C265.57,112.847 265.57,109.153 263.291,106.875 L234.125,77.709 C231.847,75.43 228.153,75.43 225.875,77.709 C223.597,79.987 223.597,83.68 225.875,85.958 L255.042,115.125 L255.042,106.875 L225.875,136.042 C223.597,138.32 223.597,142.013 225.875,144.291 C228.153,146.57 231.847,146.57 234.125,144.291 Z M274.958,144.291 L304.125,115.125 C306.403,112.847 306.403,109.153 304.125,106.875 L274.958,77.709 C272.68,75.43 268.987,75.43 266.709,77.709 C264.43,79.987 264.43,83.68 266.709,85.958 L295.875,115.125 L295.875,106.875 L266.709,136.042 C264.43,138.32 264.43,142.013 266.709,144.291 C268.987,146.57 272.68,146.57 274.958,144.291 Z" />
        </g>
        <g id="Regular-M" transform="translate(0,200)">
            <path d="M434.125,144.291 L463.291,115.125 C465.57,112.847 465.57,109.153 463.291,106.875 L434.125,77.709 C431.847,75.43 428.153,75.43 425.875,77.709 C423.597,79.987 423.597,83.68 425.875,85.958 L455.042,115.125 L455.042,106.875 L425.875,136.042 C423.597,138.32 423.597,142.013 425.875,144.291 C428.153,146.57 431.847,146.57 434.125,144.291 Z M474.958,144.291 L504.125,115.125 C506.403,112.847 506.403,109.153 504.125,106.875 L474.958,77.709 C472.68,75.43 468.987,75.43 466.709,77.709 C464.43,79.987 464.43,83.68 466.709,85.958 L495.875,115.125 L495.875,106.875 L466.709,136.042 C464.43,138.32 464.43,142.013 466.709,144.291 C468.987,146.57 472.68,146.57 474.958,144.291 Z" />
        </g>
        <g id="Black-M" transform="translate(0,200)">
            <path d="M634.125,144.291 L663.292,115.125 C665.57,112.847 665.57,109.153 663.292,106.875 L634.125,77.709 C631.847,75.43 628.153,75.43 625.875,77.709 C623.597,79.987 623.597,83.68 625.875,85.958 L655.042,115.125 L655.042,106.875 L625.875,136.042 C623.597,138.32 623.597,142.013 625.875,144.291 C628.153,146.57 631.847,146.57 634.125,144.291 Z M674.958,144.291 L704.125,115.125 C706.403,112.847 706.403,109.153 704.125,106.875 L674.958,77.709 C672.68,75.43 668.987,75.43 666.709,77.709 C664.43,79.987 664.43,83.68 666.709,85.958 L695.875,115.125 L695.875,106.875 L666.709,136.042 C664.43,138.32 664.43,142.013 666.709,144.291 C668.987,146.57 672.68,146.57 674.958,144.291 Z" />
        </g>
    </g>
</svg>