<?xml version="1.0" encoding="UTF-8"?>
<svg height="600" width="800" xmlns="http://www.w3.org/2000/svg" xmlns:xlink="http://www.w3.org/1999/xlink">
    <g id="Notes" font-family="LucidaGrande, 'Lucida Grande', sans-serif" font-size="13">
        <rect fill="white" height="600.0" width="800.0" x="0.0" y="0.0" />
        <g font-size="13">
            <text x="18.0" y="176.0">Small</text>
            <text x="18.0" y="376.0">Medium</text>
            <text x="18.0" y="576.0">Large</text>
        </g>
        <g font-size="9">
            <text x="250.0" y="30.0">Ultralight</text>
            <text x="450.0" y="30.0">Regular</text>
            <text x="650.0" y="30.0">Black</text>
            <text id="template-version" fill="#505050" text-anchor="end" x="785.0" y="575.0">Template v.3.0</text>
            <a href="https://github.com/swhitty/SwiftDraw">
                <text fill="#505050" text-anchor="end" x="785.0" y="590.0">https://github.com/swhitty/SwiftDraw</text>
            </a>
        </g>
    </g>
    <g id="Guides" stroke="rgb(39, 170, 225)" stroke-width="0.5">
        <path id="Capline-S" d="M18,76 l800,0" />
        <path id="H-reference" d="M85,145.755 L87.685,145.755 L113.369,79.287 L114.052,79.287 L114.052,76 L112.148,76 L85,145.755 Z M95.693,121.536 L130.996,121.536 L130.263,119.313 L96.474,119.313 L95.693,121.536 Z M139.15,145.755 L141.787,145.755 L114.638,76 L113.466,76 L113.466,79.287 L139.15,145.755 Z" stroke="none" transform="translate(0,200)" />
        <path id="Baseline-S" d="M18,146 l800,0" />
        <path id="left-margin-Ultralight-M" d="M230,256 l0,110" />
        <path id="right-margin-Ultralight-M" d="M300,256 l0,110" />
        <path id="left-margin-Regular-M" d="M430,256 l0,110" />
        <path id="right-margin-Regular-M" d="M500,256 l0,110" />
        <path id="left-margin-Black-M" d="M630,256 l0,110" />
        <path id="right-margin-Black-M" d="M700,256 l0,110" />
        <path id="Capline-M" d="M18,276 l800,0" />
        <path id="Baseline-M" d="M18,346 l800,0" />
        <path id="Capline-L" d="M18,476 l800,0" />
        <path id="Baseline-L" d="M18,546 l800,0" />
    </g>
    <g id="Symbols">
        <g id="Ultralight-M" transform="translate(0,200)">
            <path d="M284.562,117.688 L267.062,100.188 C265.923,99.049 264.077,99.049 262.938,100.188 L245.438,117.688 C244.299,118.827 244.299,120.673 245.438,121.812 C246.577,122.951 248.423,122.951 249.562,121.812 L267.062,104.312 L262.938,104.312 L280.438,121.812 C281.577,122.951 283.423,122.951 284.562,121.812 C285.701,120.673 285.701,118.827 284.562,117.688 Z" />
        </g>
        <g id="Regular-M" transform="translate(0,200)">
            <path d="M484.562,117.688 L467.062,100.188 C465.923,99.049 464.077,99.049 462.938,100.188 L445.438,117.688 C444.299,118.827 444.299,120.673 445.438,121.812 C446.577,122.951 448.423,122.951 449.562,121.812 L467.062,104.312 L462.938,104.312 L480.438,121.812 C481.577,122.951 483.423,122.951 484.562,121.812 C485.701,120.673 485.701,118.827 484.562,117.688 Z" />
        </g>
        <g id="Black-M" transform="translate(0,200)">
            <path d="M684.562,117.688 L667.062,100.188 C665.923,99.049 664.077,99.049 662.938,100.188 L645.438,117.688 C644.299,118.827 644.299,120.673 645.438,121.812 C646.577,122.951 648.423,122.951 649.562,121.812 L667.062,104.312 L662.938,104.312 L680.438,121.812 C681.577,122.951 683.423,122.951 684.562,121.812 C685.701,120.673 685.701,118.827 684.562,117.688 Z" />
        </g>
    </g>
</svg>