<?xml version="1.0" encoding="UTF-8"?>
<svg height="600" width="800" xmlns="http://www.w3.org/2000/svg" xmlns:xlink="http://www.w3.org/1999/xlink">
    <g id="Notes" font-family="LucidaGrande, 'Lucida Grande', sans-serif" font-size="13">
        <rect fill="white" height="600.0" width="800.0" x="0.0" y="0.0" />
        <g font-size="13">
            <text x="18.0" y="176.0">Small</text>
            <text x="18.0" y="376.0">Medium</text>
            <text x="18.0" y="576.0">Large</text>
        </g>
        <g font-size="9">
            <text x="250.0" y="30.0">Ultralight</text>
            <text x="450.0" y="30.0">Regular</text>
            <text x="650.0" y="30.0">Black</text>
            <text id="template-version" fill="#505050" text-anchor="end" x="785.0" y="575.0">Template v.3.0</text>
            <a href="https://github.com/swhitty/SwiftDraw">
                <text fill="#505050" text-anchor="end" x="785.0" y="590.0">https://github.com/swhitty/SwiftDraw</text>
            </a>
        </g>
    </g>
    <g id="Guides" stroke="rgb(39, 170, 225)" stroke-width="0.5">
        <path id="Capline-S" d="M18,76 l800,0" />
        <path id="H-reference" d="M85,145.755 L87.685,145.755 L113.369,79.287 L114.052,79.287 L114.052,76 L112.148,76 L85,145.755 Z M95.693,121.536 L130.996,121.536 L130.263,119.313 L96.474,119.313 L95.693,121.536 Z M139.15,145.755 L141.787,145.755 L114.638,76 L113.466,76 L113.466,79.287 L139.15,145.755 Z" stroke="none" transform="translate(0,200)" />
        <path id="Baseline-S" d="M18,146 l800,0" />
        <path id="left-margin-Ultralight-M" d="M235,256 l0,110" />
        <path id="right-margin-Ultralight-M" d="M295,256 l0,110" />
        <path id="left-margin-Regular-M" d="M435,256 l0,110" />
        <path id="right-margin-Regular-M" d="M495,256 l0,110" />
        <path id="left-margin-Black-M" d="M635,256 l0,110" />
        <path id="right-margin-Black-M" d="M695,256 l0,110" />
        <path id="Capline-M" d="M18,276 l800,0" />
        <path id="Baseline-M" d="M18,346 l800,0" />
        <path id="Capline-L" d="M18,476 l800,0" />
        <path id="Baseline-L" d="M18,546 l800,0" />
    </g>
    <g id="Symbols">
        <g id="Ultralight-M" transform="translate(0,200)">
            <path d="M293.536,137.464 L268.536,112.464 C266.583,110.512 263.417,110.512 261.464,112.464 L236.464,137.464 C234.512,139.417 234.512,142.583 236.464,144.536 C238.417,146.488 241.583,146.488 243.536,144.536 L268.536,119.536 L261.464,119.536 L286.464,144.536 C288.417,146.488 291.583,146.488 293.536,144.536 C295.488,142.583 295.488,139.417 293.536,137.464 Z M293.536,102.464 L268.536,77.464 C266.583,75.512 263.417,75.512 261.464,77.464 L236.464,102.464 C234.512,104.417 234.512,107.583 236.464,109.536 C238.417,111.488 241.583,111.488 243.536,109.536 L268.536,84.536 L261.464,84.536 L286.464,109.536 C288.417,111.488 291.583,111.488 293.536,109.536 C295.488,107.583 295.488,104.417 293.536,102.464 Z" />
        </g>
        <g id="Regular-M" transform="translate(0,200)">
            <path d="M493.536,137.464 L468.536,112.464 C466.583,110.512 463.417,110.512 461.464,112.464 L436.464,137.464 C434.512,139.417 434.512,142.583 436.464,144.536 C438.417,146.488 441.583,146.488 443.536,144.536 L468.536,119.536 L461.464,119.536 L486.464,144.536 C488.417,146.488 491.583,146.488 493.536,144.536 C495.488,142.583 495.488,139.417 493.536,137.464 Z M493.536,102.464 L468.536,77.464 C466.583,75.512 463.417,75.512 461.464,77.464 L436.464,102.464 C434.512,104.417 434.512,107.583 436.464,109.536 C438.417,111.488 441.583,111.488 443.536,109.536 L468.536,84.536 L461.464,84.536 L486.464,109.536 C488.417,111.488 491.583,111.488 493.536,109.536 C495.488,107.583 495.488,104.417 493.536,102.464 Z" />
        </g>
        <g id="Black-M" transform="translate(0,200)">
            <path d="M693.536,137.464 L668.536,112.464 C666.583,110.512 663.417,110.512 661.464,112.464 L636.464,137.464 C634.512,139.417 634.512,142.583 636.464,144.536 C638.417,146.488 641.583,146.488 643.536,144.536 L668.536,119.536 L661.464,119.536 L686.464,144.536 C688.417,146.488 691.583,146.488 693.536,144.536 C695.488,142.583 695.488,139.417 693.536,137.464 Z M693.536,102.464 L668.536,77.464 C666.583,75.512 663.417,75.512 661.464,77.464 L636.464,102.464 C634.512,104.417 634.512,107.583 636.464,109.536 C638.417,111.488 641.583,111.488 643.536,109.536 L668.536,84.536 L661.464,84.536 L686.464,109.536 C688.417,111.488 691.583,111.488 693.536,109.536 C695.488,107.583 695.488,104.417 693.536,102.464 Z" />
        </g>
    </g>
</svg>