<?xml version="1.0" encoding="UTF-8"?>
<svg height="600" width="800" xmlns="http://www.w3.org/2000/svg" xmlns:xlink="http://www.w3.org/1999/xlink">
    <g id="Notes" font-family="LucidaGrande, 'Lucida Grande', sans-serif" font-size="13">
        <rect fill="white" height="600.0" width="800.0" x="0.0" y="0.0" />
        <g font-size="13">
            <text x="18.0" y="176.0">Small</text>
            <text x="18.0" y="376.0">Medium</text>
            <text x="18.0" y="576.0">Large</text>
        </g>
        <g font-size="9">
            <text x="250.0" y="30.0">Ultralight</text>
            <text x="450.0" y="30.0">Regular</text>
            <text x="650.0" y="30.0">Black</text>
            <text id="template-version" fill="#505050" text-anchor="end" x="785.0" y="575.0">Template v.3.0</text>
            <a href="https://github.com/swhitty/SwiftDraw">
                <text fill="#505050" text-anchor="end" x="785.0" y="590.0">https://github.com/swhitty/SwiftDraw</text>
            </a>
        </g>
    </g>
    <g id="Guides" stroke="rgb(39, 170, 225)" stroke-width="0.5">
        <path id="Capline-S" d="M18,76 l800,0" />
        <path id="H-reference" d="M85,145.755 L87.685,145.755 L113.369,79.287 L114.052,79.287 L114.052,76 L112.148,76 L85,145.755 Z M95.693,121.536 L130.996,121.536 L130.263,119.313 L96.474,119.313 L95.693,121.536 Z M139.15,145.755 L141.787,145.755 L114.638,76 L113.466,76 L113.466,79.287 L139.15,145.755 Z" stroke="none" transform="translate(0,200)" />
        <path id="Baseline-S" d="M18,146 l800,0" />
        <path id="left-margin-Ultralight-M" d="M221,256 l0,110" />
        <path id="right-margin-Ultralight-M" d="M309,256 l0,110" />
        <path id="left-margin-Regular-M" d="M421,256 l0,110" />
        <path id="right-margin-Regular-M" d="M509,256 l0,110" />
        <path id="left-margin-Black-M" d="M621,256 l0,110" />
        <path id="right-margin-Black-M" d="M709,256 l0,110" />
        <path id="Capline-M" d="M18,276 l800,0" />
        <path id="Baseline-M" d="M18,346 l800,0" />
        <path id="Capline-L" d="M18,476 l800,0" />
        <path id="Baseline-L" d="M18,546 l800,0" />
    </g>
    <g id="Symbols">
        <g id="Ultralight-M" transform="translate(0,200)">
            <path d="M251.301,125.771 L264.242,112.83 C265.253,111.819 265.253,110.181 264.242,109.17 L251.301,96.229 C250.29,95.218 248.651,95.218 247.64,96.229 C246.63,97.239 246.63,98.878 247.64,99.889 L260.582,112.83 L260.582,109.17 L247.64,122.111 C246.63,123.122 246.63,124.761 247.64,125.771 C248.651,126.782 250.29,126.782 251.301,125.771 Z M269.418,125.771 L282.36,112.83 C283.37,111.819 283.37,110.181 282.36,109.17 L269.418,96.229 C268.408,95.218 266.769,95.218 265.758,96.229 C264.747,97.239 264.747,98.878 265.758,99.889 L278.699,112.83 L278.699,109.17 L265.758,122.111 C264.747,123.122 264.747,124.761 265.758,125.771 C266.769,126.782 268.408,126.782 269.418,125.771 Z" />
        </g>
        <g id="Regular-M" transform="translate(0,200)">
            <path d="M451.301,125.771 L464.242,112.83 C465.253,111.819 465.253,110.181 464.242,109.17 L451.301,96.229 C450.29,95.218 448.651,95.218 447.64,96.229 C446.63,97.239 446.63,98.878 447.64,99.889 L460.582,112.83 L460.582,109.17 L447.64,122.111 C446.63,123.122 446.63,124.761 447.64,125.771 C448.651,126.782 450.29,126.782 451.301,125.771 Z M469.418,125.771 L482.36,112.83 C483.37,111.819 483.37,110.181 482.36,109.17 L469.418,96.229 C468.408,95.218 466.769,95.218 465.758,96.229 C464.747,97.239 464.747,98.878 465.758,99.889 L478.699,112.83 L478.699,109.17 L465.758,122.111 C464.747,123.122 464.747,124.761 465.758,125.771 C466.769,126.782 468.408,126.782 469.418,125.771 Z" />
        </g>
        <g id="Black-M" transform="translate(0,200)">
            <path d="M651.301,125.771 L664.242,112.83 C665.253,111.819 665.253,110.181 664.242,109.17 L651.301,96.229 C650.29,95.218 648.651,95.218 647.64,96.229 C646.63,97.239 646.63,98.878 647.64,99.889 L660.582,112.83 L660.582,109.17 L647.64,122.111 C646.63,123.122 646.63,124.761 647.64,125.771 C648.651,126.782 650.29,126.782 651.301,125.771 Z M669.418,125.771 L682.36,112.83 C683.37,111.819 683.37,110.181 682.36,109.17 L669.418,96.229 C668.408,95.218 666.769,95.218 665.758,96.229 C664.747,97.239 664.747,98.878 665.758,99.889 L678.699,112.83 L678.699,109.17 L665.758,122.111 C664.747,123.122 664.747,124.761 665.758,125.771 C666.769,126.782 668.408,126.782 669.418,125.771 Z" />
        </g>
    </g>
</svg>