<?xml version="1.0" encoding="UTF-8"?>
<svg height="600" width="800" xmlns="http://www.w3.org/2000/svg" xmlns:xlink="http://www.w3.org/1999/xlink">
    <g id="Notes" font-family="LucidaGrande, 'Lucida Grande', sans-serif" font-size="13">
        <rect fill="white" height="600.0" width="800.0" x="0.0" y="0.0" />
        <g font-size="13">
            <text x="18.0" y="176.0">Small</text>
            <text x="18.0" y="376.0">Medium</text>
            <text x="18.0" y="576.0">Large</text>
        </g>
        <g font-size="9">
            <text x="250.0" y="30.0">Ultralight</text>
            <text x="450.0" y="30.0">Regular</text>
            <text x="650.0" y="30.0">Black</text>
            <text id="template-version" fill="#505050" text-anchor="end" x="785.0" y="575.0">Template v.3.0</text>
            <a href="https://github.com/swhitty/SwiftDraw">
                <text fill="#505050" text-anchor="end" x="785.0" y="590.0">https://github.com/swhitty/SwiftDraw</text>
            </a>
        </g>
    </g>
    <g id="Guides" stroke="rgb(39, 170, 225)" stroke-width="0.5">
        <path id="Capline-S" d="M18,76 l800,0" />
        <path id="H-reference" d="M85,145.755 L87.685,145.755 L113.369,79.287 L114.052,79.287 L114.052,76 L112.148,76 L85,145.755 Z M95.693,121.536 L130.996,121.536 L130.263,119.313 L96.474,119.313 L95.693,121.536 Z M139.15,145.755 L141.787,145.755 L114.638,76 L113.466,76 L113.466,79.287 L139.15,145.755 Z" stroke="none" transform="translate(0,200)" />
        <path id="Baseline-S" d="M18,146 l800,0" />
        <path id="left-margin-Ultralight-M" d="M230,256 l0,110" />
        <path id="right-margin-Ultralight-M" d="M300,256 l0,110" />
        <path id="left-margin-Regular-M" d="M430,256 l0,110" />
        <path id="right-margin-Regular-M" d="M500,256 l0,110" />
        <path id="left-margin-Black-M" d="M630,256 l0,110" />
        <path id="right-margin-Black-M" d="M700,256 l0,110" />
        <path id="Capline-M" d="M18,276 l800,0" />
        <path id="Baseline-M" d="M18,346 l800,0" />
        <path id="Capline-L" d="M18,476 l800,0" />
        <path id="Baseline-L" d="M18,546 l800,0" />
    </g>
    <g id="Symbols">
        <g id="Ultralight-M" transform="translate(0,200)">
            <path d="M286.754,113.299 C285.76,122.722 278.811,130.434 269.542,132.402 C260.272,134.369 250.79,130.145 246.054,121.938 L245.324,120.675 C244.519,119.28 242.735,118.802 241.34,119.607 C239.945,120.412 239.467,122.196 240.272,123.591 L241.002,124.854 C247.001,135.249 259.012,140.6 270.753,138.108 C282.494,135.616 291.296,125.847 292.555,113.911 C292.724,112.309 291.563,110.873 289.961,110.704 C288.359,110.535 286.923,111.697 286.754,113.299 Z M243.243,108.701 C244.237,99.278 251.186,91.566 260.455,89.598 C269.725,87.631 279.207,91.855 283.943,100.062 L284.673,101.325 C285.478,102.72 287.262,103.198 288.657,102.393 C290.052,101.588 290.53,99.804 289.725,98.409 L288.995,97.146 C282.996,86.751 270.985,81.4 259.244,83.892 C247.503,86.384 238.701,96.153 237.442,108.089 C237.273,109.691 238.435,111.127 240.036,111.296 C241.638,111.465 243.074,110.303 243.243,108.701 Z M243.005,129.447 L245.14,121.479 L241.568,123.541 L249.536,125.676 C251.092,126.093 252.692,125.17 253.109,123.614 C253.525,122.058 252.602,120.459 251.046,120.042 L243.078,117.907 C241.522,117.49 239.923,118.413 239.506,119.969 L237.371,127.938 C236.954,129.494 237.877,131.093 239.433,131.51 C240.989,131.927 242.588,131.003 243.005,129.447 Z M278.951,101.958 L286.919,104.093 C288.475,104.51 290.075,103.587 290.491,102.031 L292.626,94.062 C293.043,92.506 292.12,90.907 290.564,90.49 C289.008,90.073 287.409,90.997 286.992,92.553 L284.857,100.521 L288.429,98.459 L280.461,96.324 C278.905,95.907 277.305,96.83 276.889,98.386 C276.472,99.942 277.395,101.541 278.951,101.958 Z M262.083,97.875 L262.083,111 C262.083,112.025 262.621,112.974 263.499,113.501 L270.791,117.876 C272.172,118.705 273.964,118.257 274.793,116.876 C275.621,115.494 275.174,113.703 273.792,112.874 L266.501,108.499 L267.917,111 L267.917,97.875 C267.917,96.264 266.611,94.958 265,94.958 C263.389,94.958 262.083,96.264 262.083,97.875 Z" />
        </g>
        <g id="Regular-M" transform="translate(0,200)">
            <path d="M486.754,113.299 C485.76,122.722 478.811,130.434 469.542,132.402 C460.272,134.369 450.79,130.145 446.054,121.938 L445.324,120.675 C444.519,119.28 442.735,118.802 441.34,119.607 C439.945,120.412 439.467,122.196 440.272,123.591 L441.002,124.854 C447.001,135.249 459.012,140.6 470.753,138.108 C482.494,135.616 491.296,125.847 492.555,113.911 C492.724,112.309 491.563,110.873 489.961,110.704 C488.359,110.535 486.923,111.697 486.754,113.299 Z M443.243,108.701 C444.237,99.278 451.186,91.566 460.455,89.598 C469.725,87.631 479.207,91.855 483.943,100.062 L484.673,101.325 C485.478,102.72 487.262,103.198 488.657,102.393 C490.052,101.588 490.53,99.804 489.725,98.409 L488.995,97.146 C482.996,86.751 470.985,81.4 459.244,83.892 C447.503,86.384 438.701,96.153 437.442,108.089 C437.273,109.691 438.435,111.127 440.036,111.296 C441.638,111.465 443.074,110.303 443.243,108.701 Z M443.005,129.447 L445.14,121.479 L441.568,123.541 L449.536,125.676 C451.092,126.093 452.692,125.17 453.109,123.614 C453.525,122.058 452.602,120.459 451.046,120.042 L443.078,117.907 C441.522,117.49 439.923,118.413 439.506,119.969 L437.371,127.938 C436.954,129.494 437.877,131.093 439.433,131.51 C440.989,131.927 442.588,131.003 443.005,129.447 Z M478.951,101.958 L486.919,104.093 C488.475,104.51 490.075,103.587 490.491,102.031 L492.626,94.062 C493.043,92.506 492.12,90.907 490.564,90.49 C489.008,90.073 487.409,90.997 486.992,92.553 L484.857,100.521 L488.429,98.459 L480.461,96.324 C478.905,95.907 477.305,96.83 476.889,98.386 C476.472,99.942 477.395,101.541 478.951,101.958 Z M462.083,97.875 L462.083,111 C462.083,112.025 462.621,112.974 463.499,113.501 L470.791,117.876 C472.172,118.705 473.964,118.257 474.793,116.876 C475.621,115.494 475.174,113.703 473.792,112.874 L466.501,108.499 L467.917,111 L467.917,97.875 C467.917,96.264 466.611,94.958 465,94.958 C463.389,94.958 462.083,96.264 462.083,97.875 Z" />
        </g>
        <g id="Black-M" transform="translate(0,200)">
            <path d="M686.754,113.299 C685.76,122.722 678.811,130.434 669.542,132.402 C660.272,134.369 650.79,130.145 646.054,121.938 L645.324,120.675 C644.519,119.28 642.735,118.802 641.34,119.607 C639.945,120.412 639.467,122.196 640.272,123.591 L641.002,124.854 C647.001,135.249 659.012,140.6 670.753,138.108 C682.494,135.616 691.296,125.847 692.555,113.911 C692.724,112.309 691.562,110.873 689.961,110.704 C688.359,110.535 686.923,111.697 686.754,113.299 Z M643.243,108.701 C644.237,99.278 651.186,91.566 660.455,89.598 C669.725,87.631 679.207,91.855 683.943,100.062 L684.673,101.325 C685.478,102.72 687.262,103.198 688.657,102.393 C690.052,101.588 690.53,99.804 689.725,98.409 L688.995,97.146 C682.996,86.751 670.985,81.4 659.244,83.892 C647.503,86.384 638.701,96.153 637.442,108.089 C637.273,109.691 638.435,111.127 640.036,111.296 C641.638,111.465 643.074,110.303 643.243,108.701 Z M643.005,129.447 L645.14,121.479 L641.568,123.541 L649.536,125.676 C651.092,126.093 652.692,125.17 653.109,123.614 C653.525,122.058 652.602,120.459 651.046,120.042 L643.078,117.907 C641.522,117.49 639.923,118.413 639.506,119.969 L637.371,127.938 C636.954,129.494 637.877,131.093 639.433,131.51 C640.989,131.927 642.588,131.003 643.005,129.447 Z M678.951,101.958 L686.919,104.093 C688.475,104.51 690.075,103.587 690.491,102.031 L692.626,94.062 C693.043,92.506 692.12,90.907 690.564,90.49 C689.008,90.073 687.409,90.997 686.992,92.553 L684.857,100.521 L688.429,98.459 L680.461,96.324 C678.905,95.907 677.305,96.83 676.889,98.386 C676.472,99.942 677.395,101.541 678.951,101.958 Z M662.083,97.875 L662.083,111 C662.083,112.025 662.621,112.974 663.499,113.501 L670.791,117.876 C672.172,118.705 673.964,118.257 674.793,116.876 C675.621,115.494 675.174,113.703 673.792,112.874 L666.501,108.499 L667.917,111 L667.917,97.875 C667.917,96.264 666.611,94.958 665,94.958 C663.389,94.958 662.083,96.264 662.083,97.875 Z" />
        </g>
    </g>
</svg>