<?xml version="1.0" encoding="UTF-8"?>
<svg height="600" width="800" xmlns="http://www.w3.org/2000/svg" xmlns:xlink="http://www.w3.org/1999/xlink">
    <g id="Notes" font-family="LucidaGrande, 'Lucida Grande', sans-serif" font-size="13">
        <rect fill="white" height="600.0" width="800.0" x="0.0" y="0.0" />
        <g font-size="13">
            <text x="18.0" y="176.0">Small</text>
            <text x="18.0" y="376.0">Medium</text>
            <text x="18.0" y="576.0">Large</text>
        </g>
        <g font-size="9">
            <text x="250.0" y="30.0">Ultralight</text>
            <text x="450.0" y="30.0">Regular</text>
            <text x="650.0" y="30.0">Black</text>
            <text id="template-version" fill="#505050" text-anchor="end" x="785.0" y="575.0">Template v.3.0</text>
            <a href="https://github.com/swhitty/SwiftDraw">
                <text fill="#505050" text-anchor="end" x="785.0" y="590.0">https://github.com/swhitty/SwiftDraw</text>
            </a>
        </g>
    </g>
    <g id="Guides" stroke="rgb(39, 170, 225)" stroke-width="0.5">
        <path id="Capline-S" d="M18,76 l800,0" />
        <path id="H-reference" d="M85,145.755 L87.685,145.755 L113.369,79.287 L114.052,79.287 L114.052,76 L112.148,76 L85,145.755 Z M95.693,121.536 L130.996,121.536 L130.263,119.313 L96.474,119.313 L95.693,121.536 Z M139.15,145.755 L141.787,145.755 L114.638,76 L113.466,76 L113.466,79.287 L139.15,145.755 Z" stroke="none" transform="translate(0,200)" />
        <path id="Baseline-S" d="M18,146 l800,0" />
        <path id="left-margin-Ultralight-M" d="M230,256 l0,110" />
        <path id="right-margin-Ultralight-M" d="M300,256 l0,110" />
        <path id="left-margin-Regular-M" d="M430,256 l0,110" />
        <path id="right-margin-Regular-M" d="M500,256 l0,110" />
        <path id="left-margin-Black-M" d="M630,256 l0,110" />
        <path id="right-margin-Black-M" d="M700,256 l0,110" />
        <path id="Capline-M" d="M18,276 l800,0" />
        <path id="Baseline-M" d="M18,346 l800,0" />
        <path id="Capline-L" d="M18,476 l800,0" />
        <path id="Baseline-L" d="M18,546 l800,0" />
    </g>
    <g id="Symbols">
        <g id="Ultralight-M" transform="translate(0,200)">
            <path d="M294.146,107.479 L288.313,113.313 L292.437,113.313 L286.604,107.479 C285.465,106.34 283.618,106.34 282.479,107.479 C281.34,108.618 281.34,110.465 282.479,111.604 L288.313,117.437 C289.452,118.576 291.298,118.576 292.437,117.437 L298.271,111.604 C299.41,110.465 299.41,108.618 298.271,107.479 C297.132,106.34 295.285,106.34 294.146,107.479 Z M293.988,114.241 C295.602,99.818 286.367,86.403 272.318,82.763 C258.27,79.123 243.682,86.365 238.089,99.757 C232.496,113.148 237.599,128.615 250.064,136.048 C262.528,143.481 278.561,140.619 287.685,129.333 C288.698,128.08 288.503,126.244 287.25,125.231 C285.997,124.219 284.161,124.413 283.148,125.666 C275.85,134.695 263.023,136.984 253.051,131.038 C243.08,125.091 238.997,112.718 243.471,102.005 C247.946,91.292 259.616,85.498 270.855,88.41 C282.094,91.322 289.482,102.054 288.191,113.592 C288.012,115.193 289.164,116.636 290.765,116.815 C292.366,116.994 293.809,115.842 293.988,114.241 Z M262.083,96.417 L262.083,111 C262.083,111.975 262.571,112.886 263.382,113.427 L272.132,119.26 C273.472,120.154 275.283,119.792 276.177,118.451 C277.07,117.111 276.708,115.3 275.368,114.407 L266.618,108.573 L267.917,111 L267.917,96.417 C267.917,94.806 266.611,93.5 265,93.5 C263.389,93.5 262.083,94.806 262.083,96.417 Z" />
        </g>
        <g id="Regular-M" transform="translate(0,200)">
            <path d="M494.146,107.479 L488.313,113.313 L492.437,113.313 L486.604,107.479 C485.465,106.34 483.618,106.34 482.479,107.479 C481.34,108.618 481.34,110.465 482.479,111.604 L488.313,117.437 C489.452,118.576 491.298,118.576 492.437,117.437 L498.271,111.604 C499.41,110.465 499.41,108.618 498.271,107.479 C497.132,106.34 495.285,106.34 494.146,107.479 Z M493.988,114.241 C495.602,99.818 486.367,86.403 472.318,82.763 C458.27,79.123 443.682,86.365 438.089,99.757 C432.496,113.148 437.599,128.615 450.064,136.048 C462.528,143.481 478.561,140.619 487.685,129.333 C488.698,128.08 488.503,126.244 487.25,125.231 C485.997,124.219 484.161,124.413 483.148,125.666 C475.85,134.695 463.023,136.984 453.051,131.038 C443.08,125.091 438.997,112.718 443.471,102.005 C447.946,91.292 459.616,85.498 470.855,88.41 C482.094,91.322 489.482,102.054 488.191,113.592 C488.012,115.193 489.164,116.636 490.765,116.815 C492.366,116.994 493.809,115.842 493.988,114.241 Z M462.083,96.417 L462.083,111 C462.083,111.975 462.571,112.886 463.382,113.427 L472.132,119.26 C473.472,120.154 475.283,119.792 476.177,118.451 C477.07,117.111 476.708,115.3 475.368,114.407 L466.618,108.573 L467.917,111 L467.917,96.417 C467.917,94.806 466.611,93.5 465,93.5 C463.389,93.5 462.083,94.806 462.083,96.417 Z" />
        </g>
        <g id="Black-M" transform="translate(0,200)">
            <path d="M694.146,107.479 L688.313,113.313 L692.437,113.313 L686.604,107.479 C685.465,106.34 683.618,106.34 682.479,107.479 C681.34,108.618 681.34,110.465 682.479,111.604 L688.313,117.437 C689.452,118.576 691.298,118.576 692.437,117.437 L698.271,111.604 C699.41,110.465 699.41,108.618 698.271,107.479 C697.132,106.34 695.285,106.34 694.146,107.479 Z M693.988,114.241 C695.602,99.818 686.367,86.403 672.318,82.763 C658.27,79.123 643.682,86.365 638.089,99.757 C632.496,113.148 637.599,128.615 650.064,136.048 C662.528,143.481 678.562,140.619 687.685,129.333 C688.698,128.08 688.503,126.244 687.25,125.231 C685.997,124.219 684.161,124.413 683.148,125.666 C675.85,134.695 663.023,136.984 653.051,131.038 C643.08,125.091 638.997,112.718 643.471,102.005 C647.946,91.292 659.616,85.498 670.855,88.41 C682.094,91.322 689.482,102.054 688.191,113.592 C688.012,115.193 689.164,116.636 690.765,116.815 C692.366,116.994 693.809,115.842 693.988,114.241 Z M662.083,96.417 L662.083,111 C662.083,111.975 662.571,112.886 663.382,113.427 L672.132,119.26 C673.472,120.154 675.283,119.792 676.177,118.451 C677.07,117.111 676.708,115.3 675.368,114.407 L666.618,108.573 L667.917,111 L667.917,96.417 C667.917,94.806 666.611,93.5 665,93.5 C663.389,93.5 662.083,94.806 662.083,96.417 Z" />
        </g>
    </g>
</svg>