<?xml version="1.0" encoding="UTF-8"?>
<svg height="600" width="800" xmlns="http://www.w3.org/2000/svg" xmlns:xlink="http://www.w3.org/1999/xlink">
    <g id="Notes" font-family="LucidaGrande, 'Lucida Grande', sans-serif" font-size="13">
        <rect fill="white" height="600.0" width="800.0" x="0.0" y="0.0" />
        <g font-size="13">
            <text x="18.0" y="176.0">Small</text>
            <text x="18.0" y="376.0">Medium</text>
            <text x="18.0" y="576.0">Large</text>
        </g>
        <g font-size="9">
            <text x="250.0" y="30.0">Ultralight</text>
            <text x="450.0" y="30.0">Regular</text>
            <text x="650.0" y="30.0">Black</text>
            <text id="template-version" fill="#505050" text-anchor="end" x="785.0" y="575.0">Template v.3.0</text>
            <a href="https://github.com/swhitty/SwiftDraw">
                <text fill="#505050" text-anchor="end" x="785.0" y="590.0">https://github.com/swhitty/SwiftDraw</text>
            </a>
        </g>
    </g>
    <g id="Guides" stroke="rgb(39, 170, 225)" stroke-width="0.5">
        <path id="Capline-S" d="M18,76 l800,0" />
        <path id="H-reference" d="M85,145.755 L87.685,145.755 L113.369,79.287 L114.052,79.287 L114.052,76 L112.148,76 L85,145.755 Z M95.693,121.536 L130.996,121.536 L130.263,119.313 L96.474,119.313 L95.693,121.536 Z M139.15,145.755 L141.787,145.755 L114.638,76 L113.466,76 L113.466,79.287 L139.15,145.755 Z" stroke="none" transform="translate(0,200)" />
        <path id="Baseline-S" d="M18,146 l800,0" />
        <path id="left-margin-Ultralight-M" d="M230,256 l0,110" />
        <path id="right-margin-Ultralight-M" d="M300,256 l0,110" />
        <path id="left-margin-Regular-M" d="M430,256 l0,110" />
        <path id="right-margin-Regular-M" d="M500,256 l0,110" />
        <path id="left-margin-Black-M" d="M630,256 l0,110" />
        <path id="right-margin-Black-M" d="M700,256 l0,110" />
        <path id="Capline-M" d="M18,276 l800,0" />
        <path id="Baseline-M" d="M18,346 l800,0" />
        <path id="Capline-L" d="M18,476 l800,0" />
        <path id="Baseline-L" d="M18,546 l800,0" />
    </g>
    <g id="Symbols">
        <g id="Ultralight-M" transform="translate(0,200)">
            <path d="M292.217,123.951 C298.379,119.837 301.281,112.29 299.465,105.108 C297.648,97.926 291.506,92.666 284.13,91.977 L286.972,94.62 C285.178,83.883 275.886,76.014 265,76.014 C254.114,76.014 244.822,83.883 243.028,94.62 L245.87,91.977 C238.494,92.666 232.352,97.926 230.535,105.108 C228.719,112.29 231.621,119.837 237.783,123.951 C239.244,124.926 241.219,124.533 242.195,123.071 C243.171,121.61 242.777,119.635 241.316,118.659 C237.395,116.041 235.548,111.238 236.704,106.668 C237.86,102.098 241.769,98.751 246.462,98.312 C247.9,98.178 249.066,97.092 249.304,95.669 C250.585,87.998 257.223,82.377 265,82.377 C272.777,82.377 279.415,87.998 280.696,95.669 C280.934,97.092 282.1,98.178 283.538,98.312 C288.231,98.751 292.14,102.098 293.296,106.668 C294.452,111.238 292.605,116.041 288.684,118.659 C287.223,119.635 286.829,121.61 287.805,123.071 C288.781,124.533 290.756,124.926 292.217,123.951 Z M249.093,130.079 L249.093,136.442 C249.093,138.199 250.518,139.623 252.275,139.623 C254.032,139.623 255.456,138.199 255.456,136.442 L255.456,130.079 C255.456,128.322 254.032,126.898 252.275,126.898 C250.518,126.898 249.093,128.322 249.093,130.079 Z M249.093,110.991 L249.093,117.354 C249.093,119.111 250.518,120.535 252.275,120.535 C254.032,120.535 255.456,119.111 255.456,117.354 L255.456,110.991 C255.456,109.234 254.032,107.81 252.275,107.81 C250.518,107.81 249.093,109.234 249.093,110.991 Z M274.544,130.079 L274.544,136.442 C274.544,138.199 275.968,139.623 277.725,139.623 C279.482,139.623 280.907,138.199 280.907,136.442 L280.907,130.079 C280.907,128.322 279.482,126.898 277.725,126.898 C275.968,126.898 274.544,128.322 274.544,130.079 Z M274.544,110.991 L274.544,117.354 C274.544,119.111 275.968,120.535 277.725,120.535 C279.482,120.535 280.907,119.111 280.907,117.354 L280.907,110.991 C280.907,109.234 279.482,107.81 277.725,107.81 C275.968,107.81 274.544,109.234 274.544,110.991 Z M261.819,136.442 L261.819,142.805 C261.819,144.562 263.243,145.986 265,145.986 C266.757,145.986 268.181,144.562 268.181,142.805 L268.181,136.442 C268.181,134.685 266.757,133.26 265,133.26 C263.243,133.26 261.819,134.685 261.819,136.442 Z M261.819,117.354 L261.819,123.716 C261.819,125.473 263.243,126.898 265,126.898 C266.757,126.898 268.181,125.473 268.181,123.716 L268.181,117.354 C268.181,115.597 266.757,114.172 265,114.172 C263.243,114.172 261.819,115.597 261.819,117.354 Z" />
        </g>
        <g id="Regular-M" transform="translate(0,200)">
            <path d="M492.217,123.951 C498.379,119.837 501.281,112.29 499.465,105.108 C497.648,97.926 491.506,92.666 484.13,91.977 L486.972,94.62 C485.178,83.883 475.886,76.014 465,76.014 C454.114,76.014 444.822,83.883 443.028,94.62 L445.87,91.977 C438.494,92.666 432.352,97.926 430.535,105.108 C428.719,112.29 431.621,119.837 437.783,123.951 C439.244,124.926 441.219,124.533 442.195,123.071 C443.171,121.61 442.777,119.635 441.316,118.659 C437.395,116.041 435.548,111.238 436.704,106.668 C437.86,102.098 441.769,98.751 446.462,98.312 C447.9,98.178 449.066,97.092 449.304,95.669 C450.585,87.998 457.223,82.377 465,82.377 C472.777,82.377 479.415,87.998 480.696,95.669 C480.934,97.092 482.1,98.178 483.538,98.312 C488.231,98.751 492.14,102.098 493.296,106.668 C494.452,111.238 492.605,116.041 488.684,118.659 C487.223,119.635 486.829,121.61 487.805,123.071 C488.781,124.533 490.756,124.926 492.217,123.951 Z M449.093,130.079 L449.093,136.442 C449.093,138.199 450.518,139.623 452.275,139.623 C454.032,139.623 455.456,138.199 455.456,136.442 L455.456,130.079 C455.456,128.322 454.032,126.898 452.275,126.898 C450.518,126.898 449.093,128.322 449.093,130.079 Z M449.093,110.991 L449.093,117.354 C449.093,119.111 450.518,120.535 452.275,120.535 C454.032,120.535 455.456,119.111 455.456,117.354 L455.456,110.991 C455.456,109.234 454.032,107.81 452.275,107.81 C450.518,107.81 449.093,109.234 449.093,110.991 Z M474.544,130.079 L474.544,136.442 C474.544,138.199 475.968,139.623 477.725,139.623 C479.482,139.623 480.907,138.199 480.907,136.442 L480.907,130.079 C480.907,128.322 479.482,126.898 477.725,126.898 C475.968,126.898 474.544,128.322 474.544,130.079 Z M474.544,110.991 L474.544,117.354 C474.544,119.111 475.968,120.535 477.725,120.535 C479.482,120.535 480.907,119.111 480.907,117.354 L480.907,110.991 C480.907,109.234 479.482,107.81 477.725,107.81 C475.968,107.81 474.544,109.234 474.544,110.991 Z M461.819,136.442 L461.819,142.805 C461.819,144.562 463.243,145.986 465,145.986 C466.757,145.986 468.181,144.562 468.181,142.805 L468.181,136.442 C468.181,134.685 466.757,133.26 465,133.26 C463.243,133.26 461.819,134.685 461.819,136.442 Z M461.819,117.354 L461.819,123.716 C461.819,125.473 463.243,126.898 465,126.898 C466.757,126.898 468.181,125.473 468.181,123.716 L468.181,117.354 C468.181,115.597 466.757,114.172 465,114.172 C463.243,114.172 461.819,115.597 461.819,117.354 Z" />
        </g>
        <g id="Black-M" transform="translate(0,200)">
            <path d="M692.217,123.951 C698.379,119.837 701.281,112.29 699.465,105.108 C697.648,97.926 691.506,92.666 684.13,91.977 L686.972,94.62 C685.178,83.883 675.886,76.014 665,76.014 C654.114,76.014 644.822,83.883 643.028,94.62 L645.87,91.977 C638.494,92.666 632.352,97.926 630.535,105.108 C628.719,112.29 631.621,119.837 637.783,123.951 C639.244,124.926 641.219,124.533 642.195,123.071 C643.171,121.61 642.777,119.635 641.316,118.659 C637.395,116.041 635.548,111.238 636.704,106.668 C637.86,102.098 641.769,98.751 646.462,98.312 C647.9,98.178 649.066,97.092 649.304,95.669 C650.585,87.998 657.223,82.377 665,82.377 C672.777,82.377 679.415,87.998 680.696,95.669 C680.934,97.092 682.1,98.178 683.538,98.312 C688.231,98.751 692.14,102.098 693.296,106.668 C694.452,111.238 692.605,116.041 688.684,118.659 C687.223,119.635 686.829,121.61 687.805,123.071 C688.781,124.533 690.756,124.926 692.217,123.951 Z M649.093,130.079 L649.093,136.442 C649.093,138.199 650.518,139.623 652.275,139.623 C654.032,139.623 655.456,138.199 655.456,136.442 L655.456,130.079 C655.456,128.322 654.032,126.898 652.275,126.898 C650.518,126.898 649.093,128.322 649.093,130.079 Z M649.093,110.991 L649.093,117.354 C649.093,119.111 650.518,120.535 652.275,120.535 C654.032,120.535 655.456,119.111 655.456,117.354 L655.456,110.991 C655.456,109.234 654.032,107.81 652.275,107.81 C650.518,107.81 649.093,109.234 649.093,110.991 Z M674.544,130.079 L674.544,136.442 C674.544,138.199 675.968,139.623 677.725,139.623 C679.482,139.623 680.907,138.199 680.907,136.442 L680.907,130.079 C680.907,128.322 679.482,126.898 677.725,126.898 C675.968,126.898 674.544,128.322 674.544,130.079 Z M674.544,110.991 L674.544,117.354 C674.544,119.111 675.968,120.535 677.725,120.535 C679.482,120.535 680.907,119.111 680.907,117.354 L680.907,110.991 C680.907,109.234 679.482,107.81 677.725,107.81 C675.968,107.81 674.544,109.234 674.544,110.991 Z M661.819,136.442 L661.819,142.805 C661.819,144.562 663.243,145.986 665,145.986 C666.757,145.986 668.181,144.562 668.181,142.805 L668.181,136.442 C668.181,134.685 666.757,133.26 665,133.26 C663.243,133.26 661.819,134.685 661.819,136.442 Z M661.819,117.354 L661.819,123.716 C661.819,125.473 663.243,126.898 665,126.898 C666.757,126.898 668.181,125.473 668.181,123.716 L668.181,117.354 C668.181,115.597 666.757,114.172 665,114.172 C663.243,114.172 661.819,115.597 661.819,117.354 Z" />
        </g>
    </g>
</svg>