<?xml version="1.0" encoding="UTF-8"?>
<svg height="600" width="800" xmlns="http://www.w3.org/2000/svg" xmlns:xlink="http://www.w3.org/1999/xlink">
    <g id="Notes" font-family="LucidaGrande, 'Lucida Grande', sans-serif" font-size="13">
        <rect fill="white" height="600.0" width="800.0" x="0.0" y="0.0" />
        <g font-size="13">
            <text x="18.0" y="176.0">Small</text>
            <text x="18.0" y="376.0">Medium</text>
            <text x="18.0" y="576.0">Large</text>
        </g>
        <g font-size="9">
            <text x="250.0" y="30.0">Ultralight</text>
            <text x="450.0" y="30.0">Regular</text>
            <text x="650.0" y="30.0">Black</text>
            <text id="template-version" fill="#505050" text-anchor="end" x="785.0" y="575.0">Template v.3.0</text>
            <a href="https://github.com/swhitty/SwiftDraw">
                <text fill="#505050" text-anchor="end" x="785.0" y="590.0">https://github.com/swhitty/SwiftDraw</text>
            </a>
        </g>
    </g>
    <g id="Guides" stroke="rgb(39, 170, 225)" stroke-width="0.5">
        <path id="Capline-S" d="M18,76 l800,0" />
        <path id="H-reference" d="M85,145.755 L87.685,145.755 L113.369,79.287 L114.052,79.287 L114.052,76 L112.148,76 L85,145.755 Z M95.693,121.536 L130.996,121.536 L130.263,119.313 L96.474,119.313 L95.693,121.536 Z M139.15,145.755 L141.787,145.755 L114.638,76 L113.466,76 L113.466,79.287 L139.15,145.755 Z" stroke="none" transform="translate(0,200)" />
        <path id="Baseline-S" d="M18,146 l800,0" />
        <path id="left-margin-Ultralight-M" d="M230,256 l0,110" />
        <path id="right-margin-Ultralight-M" d="M300,256 l0,110" />
        <path id="left-margin-Regular-M" d="M430,256 l0,110" />
        <path id="right-margin-Regular-M" d="M500,256 l0,110" />
        <path id="left-margin-Black-M" d="M630,256 l0,110" />
        <path id="right-margin-Black-M" d="M700,256 l0,110" />
        <path id="Capline-M" d="M18,276 l800,0" />
        <path id="Baseline-M" d="M18,346 l800,0" />
        <path id="Capline-L" d="M18,476 l800,0" />
        <path id="Baseline-L" d="M18,546 l800,0" />
    </g>
    <g id="Symbols">
        <g id="Ultralight-M" transform="translate(0,200)">
            <path d="M257.04,131.68 C246.901,131.678 238.259,124.326 236.633,114.319 C235.006,104.311 240.875,94.601 250.491,91.388 C260.108,88.176 270.635,92.409 275.35,101.385 C275.935,102.498 277.121,103.163 278.376,103.08 C283.593,102.734 288.584,105.261 291.394,109.67 C294.204,114.08 294.387,119.67 291.87,124.254 C289.354,128.837 284.539,131.684 279.311,131.68 L257.039,131.68 Z M257.039,138.043 L279.308,138.043 C286.858,138.049 293.813,133.936 297.448,127.316 C301.082,120.695 300.819,112.62 296.76,106.251 C292.701,99.882 285.492,96.232 277.956,96.731 L280.983,98.426 C274.817,86.688 261.05,81.153 248.475,85.354 C235.9,89.555 228.226,102.253 230.352,115.339 C232.479,128.426 243.78,138.04 257.038,138.043 Z" />
        </g>
        <g id="Regular-M" transform="translate(0,200)">
            <path d="M457.04,131.68 C446.901,131.678 438.259,124.326 436.633,114.319 C435.006,104.311 440.875,94.601 450.491,91.388 C460.108,88.176 470.635,92.409 475.35,101.385 C475.935,102.498 477.121,103.163 478.376,103.08 C483.593,102.734 488.584,105.261 491.394,109.67 C494.204,114.08 494.387,119.67 491.87,124.254 C489.354,128.837 484.539,131.684 479.311,131.68 L457.039,131.68 Z M457.039,138.043 L479.308,138.043 C486.858,138.049 493.813,133.936 497.448,127.316 C501.082,120.695 500.819,112.62 496.76,106.251 C492.701,99.882 485.492,96.232 477.956,96.731 L480.983,98.426 C474.817,86.688 461.05,81.153 448.475,85.354 C435.9,89.555 428.226,102.253 430.352,115.339 C432.479,128.426 443.78,138.04 457.038,138.043 Z" />
        </g>
        <g id="Black-M" transform="translate(0,200)">
            <path d="M657.04,131.68 C646.901,131.678 638.259,124.326 636.633,114.319 C635.006,104.311 640.875,94.601 650.491,91.388 C660.108,88.176 670.635,92.409 675.35,101.385 C675.935,102.498 677.121,103.163 678.376,103.08 C683.593,102.734 688.584,105.261 691.394,109.67 C694.204,114.08 694.387,119.67 691.87,124.254 C689.354,128.837 684.539,131.684 679.311,131.68 L657.039,131.68 Z M657.039,138.043 L679.308,138.043 C686.858,138.049 693.813,133.936 697.448,127.316 C701.082,120.695 700.819,112.62 696.76,106.251 C692.701,99.882 685.492,96.232 677.956,96.731 L680.983,98.426 C674.817,86.688 661.05,81.153 648.475,85.354 C635.9,89.555 628.226,102.253 630.352,115.339 C632.479,128.426 643.78,138.04 657.038,138.043 Z" />
        </g>
    </g>
</svg>