<?xml version="1.0" encoding="UTF-8"?>
<svg height="600" width="800" xmlns="http://www.w3.org/2000/svg" xmlns:xlink="http://www.w3.org/1999/xlink">
    <g id="Notes" font-family="LucidaGrande, 'Lucida Grande', sans-serif" font-size="13">
        <rect fill="white" height="600.0" width="800.0" x="0.0" y="0.0" />
        <g font-size="13">
            <text x="18.0" y="176.0">Small</text>
            <text x="18.0" y="376.0">Medium</text>
            <text x="18.0" y="576.0">Large</text>
        </g>
        <g font-size="9">
            <text x="250.0" y="30.0">Ultralight</text>
            <text x="450.0" y="30.0">Regular</text>
            <text x="650.0" y="30.0">Black</text>
            <text id="template-version" fill="#505050" text-anchor="end" x="785.0" y="575.0">Template v.3.0</text>
            <a href="https://github.com/swhitty/SwiftDraw">
                <text fill="#505050" text-anchor="end" x="785.0" y="590.0">https://github.com/swhitty/SwiftDraw</text>
            </a>
        </g>
    </g>
    <g id="Guides" stroke="rgb(39, 170, 225)" stroke-width="0.5">
        <path id="Capline-S" d="M18,76 l800,0" />
        <path id="H-reference" d="M85,145.755 L87.685,145.755 L113.369,79.287 L114.052,79.287 L114.052,76 L112.148,76 L85,145.755 Z M95.693,121.536 L130.996,121.536 L130.263,119.313 L96.474,119.313 L95.693,121.536 Z M139.15,145.755 L141.787,145.755 L114.638,76 L113.466,76 L113.466,79.287 L139.15,145.755 Z" stroke="none" transform="translate(0,200)" />
        <path id="Baseline-S" d="M18,146 l800,0" />
        <path id="left-margin-Ultralight-M" d="M230,256 l0,110" />
        <path id="right-margin-Ultralight-M" d="M300,256 l0,110" />
        <path id="left-margin-Regular-M" d="M430,256 l0,110" />
        <path id="right-margin-Regular-M" d="M500,256 l0,110" />
        <path id="left-margin-Black-M" d="M630,256 l0,110" />
        <path id="right-margin-Black-M" d="M700,256 l0,110" />
        <path id="Capline-M" d="M18,276 l800,0" />
        <path id="Baseline-M" d="M18,346 l800,0" />
        <path id="Capline-L" d="M18,476 l800,0" />
        <path id="Baseline-L" d="M18,546 l800,0" />
    </g>
    <g id="Symbols">
        <g id="Ultralight-M" transform="translate(0,200)">
            <path d="M257.047,79.111 L257.047,84.089 C257.047,85.807 258.472,87.2 260.229,87.2 C261.986,87.2 263.411,85.807 263.411,84.089 L263.411,79.111 C263.411,77.393 261.986,76 260.229,76 C258.472,76 257.047,77.393 257.047,79.111 Z M238.273,102.444 L233.182,102.444 C231.425,102.444 230,103.837 230,105.556 C230,107.274 231.425,108.667 233.182,108.667 L238.273,108.667 C240.031,108.667 241.455,107.274 241.455,105.556 C241.455,103.837 240.031,102.444 238.273,102.444 Z M246.413,87.648 L242.814,84.129 C241.572,82.914 239.557,82.914 238.314,84.129 C237.072,85.344 237.072,87.314 238.314,88.529 L241.913,92.047 C243.156,93.262 245.17,93.262 246.413,92.047 C247.656,90.832 247.656,88.863 246.413,87.648 Z M278.549,92.046 L282.145,88.528 C283.387,87.312 283.386,85.342 282.143,84.128 C280.9,82.914 278.885,82.914 277.643,84.13 L274.047,87.649 C272.805,88.864 272.806,90.834 274.049,92.048 C275.292,93.263 277.307,93.262 278.549,92.046 Z M287.276,102.444 L282.185,102.444 C280.427,102.444 279.003,103.837 279.003,105.556 C279.003,107.274 280.427,108.667 282.185,108.667 L287.276,108.667 C289.033,108.667 290.458,107.274 290.458,105.556 C290.458,103.837 289.033,102.444 287.276,102.444 Z M250.683,105.554 C250.682,101.297 253.626,97.579 257.841,96.514 C262.056,95.449 266.474,97.308 268.582,101.033 C269.433,102.536 271.369,103.081 272.907,102.249 C274.444,101.417 275.001,99.524 274.151,98.021 C270.638,91.813 263.274,88.715 256.249,90.49 C249.224,92.265 244.317,98.462 244.319,105.557 C244.32,107.275 245.745,108.667 247.502,108.667 C249.259,108.666 250.684,107.273 250.683,105.554 Z M245.911,139.778 C242.115,139.777 238.68,137.576 237.163,134.174 C235.647,130.771 236.336,126.813 238.919,124.094 C241.502,121.374 245.488,120.409 249.071,121.636 C250.699,122.194 252.485,121.382 253.098,119.805 C254.976,114.971 259.714,111.775 265.002,111.775 C270.29,111.775 275.029,114.971 276.906,119.805 C277.519,121.382 279.305,122.194 280.933,121.636 C284.516,120.409 288.502,121.374 291.085,124.094 C293.668,126.813 294.357,130.771 292.841,134.174 C291.324,137.576 287.889,139.777 284.093,139.778 L245.91,139.778 Z M245.91,146 L284.094,146 C290.422,145.998 296.147,142.331 298.675,136.66 C301.203,130.989 300.054,124.393 295.748,119.86 C291.443,115.327 284.8,113.718 278.829,115.764 L282.856,117.595 C280.039,110.346 272.933,105.553 265.002,105.553 C257.071,105.553 249.965,110.346 247.148,117.595 L251.175,115.764 C245.204,113.718 238.561,115.327 234.256,119.86 C229.95,124.393 228.802,130.989 231.33,136.66 C233.858,142.331 239.582,145.998 245.909,146 Z" />
        </g>
        <g id="Regular-M" transform="translate(0,200)">
            <path d="M457.047,79.111 L457.047,84.089 C457.047,85.807 458.472,87.2 460.229,87.2 C461.986,87.2 463.411,85.807 463.411,84.089 L463.411,79.111 C463.411,77.393 461.986,76 460.229,76 C458.472,76 457.047,77.393 457.047,79.111 Z M438.273,102.444 L433.182,102.444 C431.425,102.444 430,103.837 430,105.556 C430,107.274 431.425,108.667 433.182,108.667 L438.273,108.667 C440.031,108.667 441.455,107.274 441.455,105.556 C441.455,103.837 440.031,102.444 438.273,102.444 Z M446.413,87.648 L442.814,84.129 C441.572,82.914 439.557,82.914 438.314,84.129 C437.072,85.344 437.072,87.314 438.314,88.529 L441.913,92.047 C443.156,93.262 445.17,93.262 446.413,92.047 C447.656,90.832 447.656,88.863 446.413,87.648 Z M478.549,92.046 L482.145,88.528 C483.387,87.312 483.386,85.342 482.143,84.128 C480.9,82.914 478.885,82.914 477.643,84.13 L474.047,87.649 C472.805,88.864 472.806,90.834 474.049,92.048 C475.292,93.263 477.307,93.262 478.549,92.046 Z M487.276,102.444 L482.185,102.444 C480.427,102.444 479.003,103.837 479.003,105.556 C479.003,107.274 480.427,108.667 482.185,108.667 L487.276,108.667 C489.033,108.667 490.458,107.274 490.458,105.556 C490.458,103.837 489.033,102.444 487.276,102.444 Z M450.683,105.554 C450.682,101.297 453.626,97.579 457.841,96.514 C462.056,95.449 466.474,97.308 468.582,101.033 C469.433,102.536 471.369,103.081 472.907,102.249 C474.444,101.417 475.001,99.524 474.151,98.021 C470.638,91.813 463.274,88.715 456.249,90.49 C449.224,92.265 444.316,98.462 444.319,105.557 C444.32,107.275 445.745,108.667 447.502,108.667 C449.259,108.666 450.684,107.273 450.683,105.554 Z M445.911,139.778 C442.115,139.777 438.68,137.576 437.163,134.174 C435.647,130.771 436.336,126.813 438.919,124.094 C441.502,121.374 445.488,120.409 449.071,121.636 C450.699,122.194 452.485,121.382 453.098,119.805 C454.976,114.971 459.714,111.775 465.002,111.775 C470.29,111.775 475.029,114.971 476.906,119.805 C477.519,121.382 479.305,122.194 480.933,121.636 C484.516,120.409 488.502,121.374 491.085,124.094 C493.668,126.813 494.357,130.771 492.841,134.174 C491.324,137.576 487.889,139.777 484.093,139.778 L445.91,139.778 Z M445.91,146 L484.094,146 C490.422,145.998 496.147,142.331 498.675,136.66 C501.203,130.989 500.054,124.393 495.748,119.86 C491.443,115.327 484.8,113.718 478.829,115.764 L482.856,117.595 C480.039,110.346 472.933,105.553 465.002,105.553 C457.071,105.553 449.965,110.346 447.148,117.595 L451.175,115.764 C445.204,113.718 438.561,115.327 434.256,119.86 C429.95,124.393 428.802,130.989 431.33,136.66 C433.858,142.331 439.582,145.998 445.909,146 Z" />
        </g>
        <g id="Black-M" transform="translate(0,200)">
            <path d="M657.047,79.111 L657.047,84.089 C657.047,85.807 658.472,87.2 660.229,87.2 C661.986,87.2 663.411,85.807 663.411,84.089 L663.411,79.111 C663.411,77.393 661.986,76 660.229,76 C658.472,76 657.047,77.393 657.047,79.111 Z M638.273,102.444 L633.182,102.444 C631.425,102.444 630,103.837 630,105.556 C630,107.274 631.425,108.667 633.182,108.667 L638.273,108.667 C640.031,108.667 641.455,107.274 641.455,105.556 C641.455,103.837 640.031,102.444 638.273,102.444 Z M646.413,87.648 L642.814,84.129 C641.572,82.914 639.557,82.914 638.314,84.129 C637.072,85.344 637.072,87.314 638.314,88.529 L641.913,92.047 C643.156,93.262 645.17,93.262 646.413,92.047 C647.656,90.832 647.656,88.863 646.413,87.648 Z M678.549,92.046 L682.145,88.528 C683.387,87.312 683.386,85.342 682.143,84.128 C680.9,82.914 678.885,82.914 677.643,84.13 L674.047,87.649 C672.805,88.864 672.806,90.834 674.049,92.048 C675.292,93.263 677.307,93.262 678.549,92.046 Z M687.276,102.444 L682.185,102.444 C680.427,102.444 679.003,103.837 679.003,105.556 C679.003,107.274 680.427,108.667 682.185,108.667 L687.276,108.667 C689.033,108.667 690.458,107.274 690.458,105.556 C690.458,103.837 689.033,102.444 687.276,102.444 Z M650.683,105.554 C650.682,101.297 653.626,97.579 657.841,96.514 C662.056,95.449 666.474,97.308 668.582,101.033 C669.433,102.536 671.369,103.081 672.907,102.249 C674.444,101.417 675.001,99.524 674.151,98.021 C670.638,91.813 663.274,88.715 656.249,90.49 C649.224,92.265 644.317,98.462 644.319,105.557 C644.32,107.275 645.745,108.667 647.502,108.667 C649.259,108.666 650.684,107.273 650.683,105.554 Z M645.911,139.778 C642.115,139.777 638.68,137.576 637.163,134.174 C635.647,130.771 636.336,126.813 638.919,124.094 C641.502,121.374 645.488,120.409 649.071,121.636 C650.699,122.194 652.485,121.382 653.098,119.805 C654.976,114.971 659.714,111.775 665.002,111.775 C670.29,111.775 675.029,114.971 676.906,119.805 C677.519,121.382 679.305,122.194 680.933,121.636 C684.516,120.409 688.502,121.374 691.085,124.094 C693.668,126.813 694.357,130.771 692.841,134.174 C691.324,137.576 687.889,139.777 684.093,139.778 L645.91,139.778 Z M645.91,146 L684.094,146 C690.422,145.998 696.147,142.331 698.675,136.66 C701.203,130.989 700.054,124.393 695.748,119.86 C691.443,115.327 684.8,113.718 678.829,115.764 L682.856,117.595 C680.039,110.346 672.933,105.553 665.002,105.553 C657.071,105.553 649.965,110.346 647.148,117.595 L651.175,115.764 C645.204,113.718 638.561,115.327 634.256,119.86 C629.95,124.393 628.802,130.989 631.33,136.66 C633.858,142.331 639.582,145.998 645.909,146 Z" />
        </g>
    </g>
</svg>