<?xml version="1.0" encoding="UTF-8"?>
<svg height="600" width="800" xmlns="http://www.w3.org/2000/svg" xmlns:xlink="http://www.w3.org/1999/xlink">
    <g id="Notes" font-family="LucidaGrande, 'Lucida Grande', sans-serif" font-size="13">
        <rect fill="white" height="600.0" width="800.0" x="0.0" y="0.0" />
        <g font-size="13">
            <text x="18.0" y="176.0">Small</text>
            <text x="18.0" y="376.0">Medium</text>
            <text x="18.0" y="576.0">Large</text>
        </g>
        <g font-size="9">
            <text x="250.0" y="30.0">Ultralight</text>
            <text x="450.0" y="30.0">Regular</text>
            <text x="650.0" y="30.0">Black</text>
            <text id="template-version" fill="#505050" text-anchor="end" x="785.0" y="575.0">Template v.3.0</text>
            <a href="https://github.com/swhitty/SwiftDraw">
                <text fill="#505050" text-anchor="end" x="785.0" y="590.0">https://github.com/swhitty/SwiftDraw</text>
            </a>
        </g>
    </g>
    <g id="Guides" stroke="rgb(39, 170, 225)" stroke-width="0.5">
        <path id="Capline-S" d="M18,76 l800,0" />
        <path id="H-reference" d="M85,145.755 L87.685,145.755 L113.369,79.287 L114.052,79.287 L114.052,76 L112.148,76 L85,145.755 Z M95.693,121.536 L130.996,121.536 L130.263,119.313 L96.474,119.313 L95.693,121.536 Z M139.15,145.755 L141.787,145.755 L114.638,76 L113.466,76 L113.466,79.287 L139.15,145.755 Z" stroke="none" transform="translate(0,200)" />
        <path id="Baseline-S" d="M18,146 l800,0" />
        <path id="left-margin-Ultralight-M" d="M230,256 l0,110" />
        <path id="right-margin-Ultralight-M" d="M300,256 l0,110" />
        <path id="left-margin-Regular-M" d="M430,256 l0,110" />
        <path id="right-margin-Regular-M" d="M500,256 l0,110" />
        <path id="left-margin-Black-M" d="M630,256 l0,110" />
        <path id="right-margin-Black-M" d="M700,256 l0,110" />
        <path id="Capline-M" d="M18,276 l800,0" />
        <path id="Baseline-M" d="M18,346 l800,0" />
        <path id="Capline-L" d="M18,476 l800,0" />
        <path id="Baseline-L" d="M18,546 l800,0" />
    </g>
    <g id="Symbols">
        <g id="Ultralight-M" transform="translate(0,200)">
            <path d="M248.961,128.5 C243.512,128.495 239.027,124.212 238.772,118.769 C238.518,113.325 242.583,108.642 248.008,108.129 C249.324,108.004 250.392,107.01 250.61,105.705 C251.785,98.673 257.87,93.52 265,93.52 C272.13,93.52 278.215,98.673 279.39,105.705 C279.608,107.01 280.676,108.004 281.992,108.129 C287.417,108.642 291.482,113.325 291.228,118.769 C290.973,124.212 286.488,128.495 281.039,128.5 L248.958,128.5 Z M248.958,134.333 L281.042,134.333 C289.607,134.326 296.655,127.595 297.055,119.041 C297.455,110.488 291.066,103.128 282.541,102.321 L285.143,104.745 C283.499,94.9 274.981,87.686 265,87.686 C255.019,87.686 246.501,94.9 244.857,104.745 L247.459,102.321 C238.934,103.128 232.545,110.488 232.945,119.041 C233.345,127.595 240.393,134.326 248.956,134.333 Z" />
        </g>
        <g id="Regular-M" transform="translate(0,200)">
            <path d="M448.961,128.5 C443.512,128.495 439.027,124.212 438.772,118.769 C438.518,113.325 442.583,108.642 448.008,108.129 C449.324,108.004 450.392,107.01 450.61,105.705 C451.785,98.673 457.87,93.52 465,93.52 C472.13,93.52 478.215,98.673 479.39,105.705 C479.608,107.01 480.676,108.004 481.992,108.129 C487.417,108.642 491.482,113.325 491.228,118.769 C490.973,124.212 486.488,128.495 481.039,128.5 L448.958,128.5 Z M448.958,134.333 L481.042,134.333 C489.607,134.326 496.655,127.595 497.055,119.041 C497.455,110.488 491.066,103.128 482.541,102.321 L485.143,104.745 C483.499,94.9 474.981,87.686 465,87.686 C455.019,87.686 446.501,94.9 444.857,104.745 L447.459,102.321 C438.934,103.128 432.545,110.488 432.945,119.041 C433.345,127.595 440.393,134.326 448.956,134.333 Z" />
        </g>
        <g id="Black-M" transform="translate(0,200)">
            <path d="M648.961,128.5 C643.512,128.495 639.027,124.212 638.772,118.769 C638.518,113.325 642.583,108.642 648.008,108.129 C649.324,108.004 650.392,107.01 650.61,105.705 C651.785,98.673 657.87,93.52 665,93.52 C672.13,93.52 678.215,98.673 679.39,105.705 C679.608,107.01 680.676,108.004 681.992,108.129 C687.417,108.642 691.482,113.325 691.228,118.769 C690.973,124.212 686.488,128.495 681.039,128.5 L648.958,128.5 Z M648.958,134.333 L681.042,134.333 C689.607,134.326 696.655,127.595 697.055,119.041 C697.455,110.488 691.066,103.128 682.541,102.321 L685.143,104.745 C683.499,94.9 674.981,87.686 665,87.686 C655.019,87.686 646.501,94.9 644.857,104.745 L647.459,102.321 C638.934,103.128 632.545,110.488 632.945,119.041 C633.345,127.595 640.393,134.326 648.956,134.333 Z" />
        </g>
    </g>
</svg>