<?xml version="1.0" encoding="UTF-8"?>
<svg height="600" width="800" xmlns="http://www.w3.org/2000/svg" xmlns:xlink="http://www.w3.org/1999/xlink">
    <g id="Notes" font-family="LucidaGrande, 'Lucida Grande', sans-serif" font-size="13">
        <rect fill="white" height="600.0" width="800.0" x="0.0" y="0.0" />
        <g font-size="13">
            <text x="18.0" y="176.0">Small</text>
            <text x="18.0" y="376.0">Medium</text>
            <text x="18.0" y="576.0">Large</text>
        </g>
        <g font-size="9">
            <text x="250.0" y="30.0">Ultralight</text>
            <text x="450.0" y="30.0">Regular</text>
            <text x="650.0" y="30.0">Black</text>
            <text id="template-version" fill="#505050" text-anchor="end" x="785.0" y="575.0">Template v.3.0</text>
            <a href="https://github.com/swhitty/SwiftDraw">
                <text fill="#505050" text-anchor="end" x="785.0" y="590.0">https://github.com/swhitty/SwiftDraw</text>
            </a>
        </g>
    </g>
    <g id="Guides" stroke="rgb(39, 170, 225)" stroke-width="0.5">
        <path id="Capline-S" d="M18,76 l800,0" />
        <path id="H-reference" d="M85,145.755 L87.685,145.755 L113.369,79.287 L114.052,79.287 L114.052,76 L112.148,76 L85,145.755 Z M95.693,121.536 L130.996,121.536 L130.263,119.313 L96.474,119.313 L95.693,121.536 Z M139.15,145.755 L141.787,145.755 L114.638,76 L113.466,76 L113.466,79.287 L139.15,145.755 Z" stroke="none" transform="translate(0,200)" />
        <path id="Baseline-S" d="M18,146 l800,0" />
        <path id="left-margin-Ultralight-M" d="M230,256 l0,110" />
        <path id="right-margin-Ultralight-M" d="M300,256 l0,110" />
        <path id="left-margin-Regular-M" d="M430,256 l0,110" />
        <path id="right-margin-Regular-M" d="M500,256 l0,110" />
        <path id="left-margin-Black-M" d="M630,256 l0,110" />
        <path id="right-margin-Black-M" d="M700,256 l0,110" />
        <path id="Capline-M" d="M18,276 l800,0" />
        <path id="Baseline-M" d="M18,346 l800,0" />
        <path id="Capline-L" d="M18,476 l800,0" />
        <path id="Baseline-L" d="M18,546 l800,0" />
    </g>
    <g id="Symbols">
        <g id="Ultralight-M" transform="translate(0,200)">
            <path d="M298.829,125.242 C300.8,120.13 300.262,114.391 297.376,109.734 C294.49,105.078 289.589,102.042 284.135,101.532 L286.977,104.179 C285.976,98.147 282.54,92.791 277.473,89.368 C272.407,85.945 266.156,84.756 260.186,86.079 C258.471,86.459 257.389,88.157 257.769,89.872 C258.149,91.587 259.848,92.669 261.563,92.289 C265.827,91.344 270.293,92.194 273.912,94.639 C277.532,97.084 279.986,100.91 280.701,105.219 C280.937,106.645 282.104,107.732 283.543,107.866 C287.014,108.19 290.132,110.122 291.969,113.085 C293.805,116.049 294.148,119.701 292.894,122.954 C292.262,124.593 293.078,126.434 294.717,127.066 C296.357,127.697 298.197,126.881 298.829,125.242 Z M247.523,94.035 C245.194,96.983 243.652,100.475 243.042,104.183 L245.888,101.532 C236.573,102.391 229.582,110.425 230.019,119.769 C230.456,129.113 238.167,136.46 247.521,136.445 L282.503,136.445 C284.245,136.445 285.956,136.189 287.597,135.691 C289.278,135.18 290.226,133.404 289.716,131.723 C289.206,130.042 287.429,129.094 285.749,129.604 C284.705,129.921 283.616,130.084 282.503,130.084 L247.516,130.084 C241.558,130.093 236.652,125.418 236.374,119.472 C236.096,113.526 240.544,108.413 246.472,107.866 C247.913,107.734 249.083,106.644 249.318,105.216 C249.754,102.571 250.853,100.081 252.515,97.978 C253.604,96.6 253.369,94.6 251.991,93.511 C250.613,92.422 248.612,92.656 247.523,94.035 Z M234.135,84.623 L291.386,141.875 C292.628,143.117 294.642,143.117 295.884,141.875 C297.126,140.633 297.126,138.619 295.884,137.377 L238.633,80.125 C237.391,78.883 235.377,78.883 234.135,80.125 C232.893,81.367 232.893,83.381 234.135,84.623 Z" />
        </g>
        <g id="Regular-M" transform="translate(0,200)">
            <path d="M498.829,125.242 C500.8,120.13 500.262,114.391 497.376,109.734 C494.49,105.078 489.589,102.042 484.135,101.532 L486.977,104.179 C485.976,98.147 482.54,92.791 477.473,89.368 C472.407,85.945 466.156,84.756 460.186,86.079 C458.471,86.459 457.389,88.157 457.769,89.872 C458.149,91.587 459.848,92.669 461.563,92.289 C465.827,91.344 470.293,92.194 473.912,94.639 C477.532,97.084 479.986,100.91 480.701,105.219 C480.937,106.645 482.104,107.732 483.543,107.866 C487.014,108.19 490.132,110.122 491.969,113.085 C493.805,116.049 494.148,119.701 492.894,122.954 C492.262,124.593 493.078,126.434 494.717,127.066 C496.357,127.697 498.197,126.881 498.829,125.242 Z M447.523,94.035 C445.194,96.983 443.652,100.475 443.042,104.183 L445.888,101.532 C436.573,102.391 429.582,110.425 430.019,119.769 C430.456,129.113 438.167,136.46 447.521,136.445 L482.503,136.445 C484.245,136.445 485.956,136.189 487.597,135.691 C489.278,135.18 490.226,133.404 489.716,131.723 C489.206,130.042 487.429,129.094 485.749,129.604 C484.705,129.921 483.616,130.084 482.503,130.084 L447.516,130.084 C441.558,130.093 436.652,125.418 436.374,119.472 C436.096,113.526 440.544,108.413 446.472,107.866 C447.913,107.734 449.083,106.644 449.318,105.216 C449.754,102.571 450.853,100.081 452.515,97.978 C453.604,96.6 453.369,94.6 451.991,93.511 C450.613,92.422 448.612,92.656 447.523,94.035 Z M434.135,84.623 L491.386,141.875 C492.628,143.117 494.642,143.117 495.884,141.875 C497.126,140.633 497.126,138.619 495.884,137.377 L438.633,80.125 C437.391,78.883 435.377,78.883 434.135,80.125 C432.893,81.367 432.893,83.381 434.135,84.623 Z" />
        </g>
        <g id="Black-M" transform="translate(0,200)">
            <path d="M698.829,125.242 C700.8,120.13 700.262,114.391 697.376,109.734 C694.49,105.078 689.589,102.042 684.135,101.532 L686.977,104.179 C685.976,98.147 682.54,92.791 677.474,89.368 C672.407,85.945 666.156,84.756 660.186,86.079 C658.471,86.459 657.389,88.157 657.769,89.872 C658.149,91.587 659.848,92.669 661.563,92.289 C665.827,91.344 670.293,92.194 673.912,94.639 C677.532,97.084 679.986,100.91 680.701,105.219 C680.937,106.645 682.104,107.732 683.543,107.866 C687.014,108.19 690.132,110.122 691.969,113.085 C693.805,116.049 694.148,119.701 692.894,122.954 C692.262,124.593 693.078,126.434 694.717,127.066 C696.357,127.697 698.197,126.881 698.829,125.242 Z M647.523,94.035 C645.194,96.983 643.652,100.475 643.042,104.183 L645.888,101.532 C636.573,102.391 629.582,110.425 630.019,119.769 C630.456,129.113 638.167,136.46 647.521,136.445 L682.503,136.445 C684.245,136.445 685.956,136.189 687.597,135.691 C689.278,135.18 690.226,133.404 689.716,131.723 C689.206,130.042 687.429,129.094 685.749,129.604 C684.705,129.921 683.616,130.084 682.503,130.084 L647.516,130.084 C641.558,130.093 636.652,125.418 636.374,119.472 C636.096,113.526 640.544,108.413 646.472,107.866 C647.913,107.734 649.083,106.644 649.318,105.216 C649.754,102.571 650.853,100.081 652.515,97.978 C653.604,96.6 653.369,94.6 651.991,93.511 C650.612,92.422 648.612,92.656 647.523,94.035 Z M634.135,84.623 L691.386,141.875 C692.628,143.117 694.642,143.117 695.884,141.875 C697.126,140.633 697.126,138.619 695.884,137.377 L638.633,80.125 C637.391,78.883 635.377,78.883 634.135,80.125 C632.893,81.367 632.893,83.381 634.135,84.623 Z" />
        </g>
    </g>
</svg>