<?xml version="1.0" encoding="UTF-8"?>
<svg height="600" width="800" xmlns="http://www.w3.org/2000/svg" xmlns:xlink="http://www.w3.org/1999/xlink">
    <g id="Notes" font-family="LucidaGrande, 'Lucida Grande', sans-serif" font-size="13">
        <rect fill="white" height="600.0" width="800.0" x="0.0" y="0.0" />
        <g font-size="13">
            <text x="18.0" y="176.0">Small</text>
            <text x="18.0" y="376.0">Medium</text>
            <text x="18.0" y="576.0">Large</text>
        </g>
        <g font-size="9">
            <text x="250.0" y="30.0">Ultralight</text>
            <text x="450.0" y="30.0">Regular</text>
            <text x="650.0" y="30.0">Black</text>
            <text id="template-version" fill="#505050" text-anchor="end" x="785.0" y="575.0">Template v.3.0</text>
            <a href="https://github.com/swhitty/SwiftDraw">
                <text fill="#505050" text-anchor="end" x="785.0" y="590.0">https://github.com/swhitty/SwiftDraw</text>
            </a>
        </g>
    </g>
    <g id="Guides" stroke="rgb(39, 170, 225)" stroke-width="0.5">
        <path id="Capline-S" d="M18,76 l800,0" />
        <path id="H-reference" d="M85,145.755 L87.685,145.755 L113.369,79.287 L114.052,79.287 L114.052,76 L112.148,76 L85,145.755 Z M95.693,121.536 L130.996,121.536 L130.263,119.313 L96.474,119.313 L95.693,121.536 Z M139.15,145.755 L141.787,145.755 L114.638,76 L113.466,76 L113.466,79.287 L139.15,145.755 Z" stroke="none" transform="translate(0,200)" />
        <path id="Baseline-S" d="M18,146 l800,0" />
        <path id="left-margin-Ultralight-M" d="M230,256 l0,110" />
        <path id="right-margin-Ultralight-M" d="M300,256 l0,110" />
        <path id="left-margin-Regular-M" d="M430,256 l0,110" />
        <path id="right-margin-Regular-M" d="M500,256 l0,110" />
        <path id="left-margin-Black-M" d="M630,256 l0,110" />
        <path id="right-margin-Black-M" d="M700,256 l0,110" />
        <path id="Capline-M" d="M18,276 l800,0" />
        <path id="Baseline-M" d="M18,346 l800,0" />
        <path id="Capline-L" d="M18,476 l800,0" />
        <path id="Baseline-L" d="M18,546 l800,0" />
    </g>
    <g id="Symbols">
        <g id="Ultralight-M" transform="translate(0,200)">
            <path d="M274.531,131.675 L274.531,139.627 C274.531,141.384 275.955,142.808 277.712,142.808 C279.469,142.808 280.893,141.384 280.893,139.627 L280.893,131.675 C280.893,129.918 279.469,128.494 277.712,128.494 C275.955,128.494 274.531,129.918 274.531,131.675 Z M249.085,131.675 L249.085,139.627 C249.085,141.384 250.509,142.808 252.266,142.808 C254.022,142.808 255.446,141.384 255.446,139.627 L255.446,131.675 C255.446,129.918 254.022,128.494 252.266,128.494 C250.509,128.494 249.085,129.918 249.085,131.675 Z M261.808,134.856 L261.808,142.808 C261.808,144.565 263.232,145.989 264.989,145.989 C266.746,145.989 268.17,144.565 268.17,142.808 L268.17,134.856 C268.17,133.099 266.746,131.675 264.989,131.675 C263.232,131.675 261.808,133.099 261.808,134.856 Z M249.085,117.362 C244.509,117.362 240.286,114.904 238.024,110.926 C235.763,106.948 235.811,102.062 238.152,98.13 C240.493,94.198 244.764,91.826 249.339,91.918 C250.557,91.942 251.682,91.268 252.236,90.183 C254.914,84.936 260.532,81.865 266.394,82.442 C272.257,83.019 277.168,87.128 278.771,92.796 C279.173,94.22 280.504,95.178 281.981,95.108 C286.019,94.918 289.842,96.931 291.97,100.367 C294.099,103.803 294.197,108.123 292.228,111.653 C290.258,115.183 286.53,117.368 282.488,117.362 L249.082,117.362 L249.082,120.542 L249.082,123.723 L249.085,123.723 L249.085,120.542 L249.085,117.362 Z M249.085,123.723 C253.326,123.723 253.326,117.362 249.085,117.362 L249.082,117.362 C244.841,117.362 244.841,123.723 249.082,123.723 L282.483,123.723 C288.83,123.733 294.688,120.299 297.783,114.753 C300.878,109.206 300.723,102.418 297.379,97.018 C294.035,91.618 288.026,88.454 281.682,88.754 L284.892,91.065 C282.577,82.879 275.485,76.945 267.018,76.111 C258.551,75.277 250.437,79.714 246.57,87.291 L249.467,85.557 C242.604,85.42 236.197,88.978 232.686,94.876 C229.175,100.774 229.101,108.103 232.494,114.07 C235.886,120.037 242.221,123.723 249.085,123.723 Z" />
        </g>
        <g id="Regular-M" transform="translate(0,200)">
            <path d="M474.531,131.675 L474.531,139.627 C474.531,141.384 475.955,142.808 477.712,142.808 C479.469,142.808 480.893,141.384 480.893,139.627 L480.893,131.675 C480.893,129.918 479.469,128.494 477.712,128.494 C475.955,128.494 474.531,129.918 474.531,131.675 Z M449.085,131.675 L449.085,139.627 C449.085,141.384 450.509,142.808 452.266,142.808 C454.022,142.808 455.446,141.384 455.446,139.627 L455.446,131.675 C455.446,129.918 454.022,128.494 452.266,128.494 C450.509,128.494 449.085,129.918 449.085,131.675 Z M461.808,134.856 L461.808,142.808 C461.808,144.565 463.232,145.989 464.989,145.989 C466.746,145.989 468.17,144.565 468.17,142.808 L468.17,134.856 C468.17,133.099 466.746,131.675 464.989,131.675 C463.232,131.675 461.808,133.099 461.808,134.856 Z M449.085,117.362 C444.509,117.362 440.285,114.904 438.024,110.926 C435.763,106.948 435.811,102.062 438.152,98.13 C440.493,94.198 444.764,91.826 449.339,91.918 C450.557,91.942 451.682,91.268 452.236,90.183 C454.914,84.936 460.532,81.865 466.394,82.442 C472.257,83.019 477.168,87.128 478.771,92.796 C479.173,94.22 480.504,95.178 481.981,95.108 C486.019,94.918 489.842,96.931 491.97,100.367 C494.099,103.803 494.197,108.123 492.228,111.653 C490.258,115.183 486.53,117.368 482.488,117.362 L449.082,117.362 L449.082,120.542 L449.082,123.723 L449.085,123.723 L449.085,120.542 L449.085,117.362 Z M449.085,123.723 C453.326,123.723 453.326,117.362 449.085,117.362 L449.082,117.362 C444.841,117.362 444.841,123.723 449.082,123.723 L482.483,123.723 C488.83,123.733 494.688,120.299 497.783,114.753 C500.878,109.206 500.723,102.418 497.379,97.018 C494.035,91.618 488.026,88.454 481.682,88.754 L484.892,91.065 C482.577,82.879 475.485,76.945 467.018,76.111 C458.551,75.277 450.437,79.714 446.57,87.291 L449.467,85.557 C442.604,85.42 436.197,88.978 432.686,94.876 C429.175,100.774 429.101,108.103 432.494,114.07 C435.886,120.037 442.221,123.723 449.085,123.723 Z" />
        </g>
        <g id="Black-M" transform="translate(0,200)">
            <path d="M674.531,131.675 L674.531,139.627 C674.531,141.384 675.955,142.808 677.712,142.808 C679.469,142.808 680.893,141.384 680.893,139.627 L680.893,131.675 C680.893,129.918 679.469,128.494 677.712,128.494 C675.955,128.494 674.531,129.918 674.531,131.675 Z M649.085,131.675 L649.085,139.627 C649.085,141.384 650.509,142.808 652.266,142.808 C654.022,142.808 655.446,141.384 655.446,139.627 L655.446,131.675 C655.446,129.918 654.022,128.494 652.266,128.494 C650.509,128.494 649.085,129.918 649.085,131.675 Z M661.808,134.856 L661.808,142.808 C661.808,144.565 663.232,145.989 664.989,145.989 C666.746,145.989 668.17,144.565 668.17,142.808 L668.17,134.856 C668.17,133.099 666.746,131.675 664.989,131.675 C663.232,131.675 661.808,133.099 661.808,134.856 Z M649.085,117.362 C644.509,117.362 640.286,114.904 638.024,110.926 C635.763,106.948 635.811,102.062 638.152,98.13 C640.493,94.198 644.764,91.826 649.339,91.918 C650.557,91.942 651.682,91.268 652.236,90.183 C654.914,84.936 660.532,81.865 666.394,82.442 C672.257,83.019 677.168,87.128 678.771,92.796 C679.173,94.22 680.504,95.178 681.981,95.108 C686.019,94.918 689.842,96.931 691.97,100.367 C694.099,103.803 694.197,108.123 692.228,111.653 C690.258,115.183 686.53,117.368 682.488,117.362 L649.082,117.362 L649.082,120.542 L649.082,123.723 L649.085,123.723 L649.085,120.542 L649.085,117.362 Z M649.085,123.723 C653.326,123.723 653.326,117.362 649.085,117.362 L649.082,117.362 C644.841,117.362 644.841,123.723 649.082,123.723 L682.483,123.723 C688.83,123.733 694.688,120.299 697.783,114.753 C700.878,109.206 700.723,102.418 697.379,97.018 C694.035,91.618 688.026,88.454 681.682,88.754 L684.892,91.065 C682.577,82.879 675.485,76.945 667.018,76.111 C658.551,75.277 650.437,79.714 646.57,87.291 L649.467,85.557 C642.604,85.42 636.197,88.978 632.686,94.876 C629.175,100.774 629.101,108.103 632.494,114.07 C635.886,120.037 642.221,123.723 649.085,123.723 Z" />
        </g>
    </g>
</svg>