<?xml version="1.0" encoding="UTF-8"?>
<svg height="600" width="800" xmlns="http://www.w3.org/2000/svg" xmlns:xlink="http://www.w3.org/1999/xlink">
    <g id="Notes" font-family="LucidaGrande, 'Lucida Grande', sans-serif" font-size="13">
        <rect fill="white" height="600.0" width="800.0" x="0.0" y="0.0" />
        <g font-size="13">
            <text x="18.0" y="176.0">Small</text>
            <text x="18.0" y="376.0">Medium</text>
            <text x="18.0" y="576.0">Large</text>
        </g>
        <g font-size="9">
            <text x="250.0" y="30.0">Ultralight</text>
            <text x="450.0" y="30.0">Regular</text>
            <text x="650.0" y="30.0">Black</text>
            <text id="template-version" fill="#505050" text-anchor="end" x="785.0" y="575.0">Template v.3.0</text>
            <a href="https://github.com/swhitty/SwiftDraw">
                <text fill="#505050" text-anchor="end" x="785.0" y="590.0">https://github.com/swhitty/SwiftDraw</text>
            </a>
        </g>
    </g>
    <g id="Guides" stroke="rgb(39, 170, 225)" stroke-width="0.5">
        <path id="Capline-S" d="M18,76 l800,0" />
        <path id="H-reference" d="M85,145.755 L87.685,145.755 L113.369,79.287 L114.052,79.287 L114.052,76 L112.148,76 L85,145.755 Z M95.693,121.536 L130.996,121.536 L130.263,119.313 L96.474,119.313 L95.693,121.536 Z M139.15,145.755 L141.787,145.755 L114.638,76 L113.466,76 L113.466,79.287 L139.15,145.755 Z" stroke="none" transform="translate(0,200)" />
        <path id="Baseline-S" d="M18,146 l800,0" />
        <path id="left-margin-Ultralight-M" d="M230,256 l0,110" />
        <path id="right-margin-Ultralight-M" d="M300,256 l0,110" />
        <path id="left-margin-Regular-M" d="M430,256 l0,110" />
        <path id="right-margin-Regular-M" d="M500,256 l0,110" />
        <path id="left-margin-Black-M" d="M630,256 l0,110" />
        <path id="right-margin-Black-M" d="M700,256 l0,110" />
        <path id="Capline-M" d="M18,276 l800,0" />
        <path id="Baseline-M" d="M18,346 l800,0" />
        <path id="Capline-L" d="M18,476 l800,0" />
        <path id="Baseline-L" d="M18,546 l800,0" />
    </g>
    <g id="Symbols">
        <g id="Ultralight-M" transform="translate(0,200)">
            <path d="M283.159,129.159 L299.068,113.25 C300.311,112.007 300.311,109.993 299.068,108.75 L283.159,92.841 C281.916,91.598 279.902,91.598 278.659,92.841 C277.417,94.084 277.417,96.098 278.659,97.341 L294.568,113.25 L294.568,108.75 L278.659,124.659 C277.417,125.902 277.417,127.916 278.659,129.159 C279.902,130.402 281.916,130.402 283.159,129.159 Z M246.841,92.841 L230.932,108.75 C229.689,109.993 229.689,112.007 230.932,113.25 L246.841,129.159 C248.084,130.402 250.098,130.402 251.341,129.159 C252.583,127.916 252.583,125.902 251.341,124.659 L235.432,108.75 L235.432,113.25 L251.341,97.341 C252.583,96.098 252.583,94.084 251.341,92.841 C250.098,91.598 248.084,91.598 246.841,92.841 Z M268.258,81.673 L255.53,138.946 C255.149,140.662 256.231,142.361 257.946,142.742 C259.662,143.124 261.361,142.042 261.742,140.327 L274.47,83.054 C274.851,81.338 273.769,79.639 272.054,79.258 C270.338,78.876 268.639,79.958 268.258,81.673 Z" />
        </g>
        <g id="Regular-M" transform="translate(0,200)">
            <path d="M483.159,129.159 L499.068,113.25 C500.311,112.007 500.311,109.993 499.068,108.75 L483.159,92.841 C481.916,91.598 479.902,91.598 478.659,92.841 C477.417,94.084 477.417,96.098 478.659,97.341 L494.568,113.25 L494.568,108.75 L478.659,124.659 C477.417,125.902 477.417,127.916 478.659,129.159 C479.902,130.402 481.916,130.402 483.159,129.159 Z M446.841,92.841 L430.932,108.75 C429.689,109.993 429.689,112.007 430.932,113.25 L446.841,129.159 C448.084,130.402 450.098,130.402 451.341,129.159 C452.583,127.916 452.583,125.902 451.341,124.659 L435.432,108.75 L435.432,113.25 L451.341,97.341 C452.583,96.098 452.583,94.084 451.341,92.841 C450.098,91.598 448.084,91.598 446.841,92.841 Z M468.258,81.673 L455.53,138.946 C455.149,140.662 456.231,142.361 457.946,142.742 C459.662,143.124 461.361,142.042 461.742,140.327 L474.47,83.054 C474.851,81.338 473.769,79.639 472.054,79.258 C470.338,78.876 468.639,79.958 468.258,81.673 Z" />
        </g>
        <g id="Black-M" transform="translate(0,200)">
            <path d="M683.159,129.159 L699.068,113.25 C700.311,112.007 700.311,109.993 699.068,108.75 L683.159,92.841 C681.916,91.598 679.902,91.598 678.659,92.841 C677.417,94.084 677.417,96.098 678.659,97.341 L694.568,113.25 L694.568,108.75 L678.659,124.659 C677.417,125.902 677.417,127.916 678.659,129.159 C679.902,130.402 681.916,130.402 683.159,129.159 Z M646.841,92.841 L630.932,108.75 C629.689,109.993 629.689,112.007 630.932,113.25 L646.841,129.159 C648.084,130.402 650.098,130.402 651.341,129.159 C652.583,127.916 652.583,125.902 651.341,124.659 L635.432,108.75 L635.432,113.25 L651.341,97.341 C652.583,96.098 652.583,94.084 651.341,92.841 C650.098,91.598 648.084,91.598 646.841,92.841 Z M668.258,81.673 L655.53,138.946 C655.149,140.662 656.231,142.361 657.946,142.742 C659.662,143.124 661.361,142.042 661.742,140.327 L674.47,83.054 C674.851,81.338 673.769,79.639 672.054,79.258 C670.338,78.876 668.639,79.958 668.258,81.673 Z" />
        </g>
    </g>
</svg>