<?xml version="1.0" encoding="UTF-8"?>
<svg height="600" width="800" xmlns="http://www.w3.org/2000/svg" xmlns:xlink="http://www.w3.org/1999/xlink">
    <g id="Notes" font-family="LucidaGrande, 'Lucida Grande', sans-serif" font-size="13">
        <rect fill="white" height="600.0" width="800.0" x="0.0" y="0.0" />
        <g font-size="13">
            <text x="18.0" y="176.0">Small</text>
            <text x="18.0" y="376.0">Medium</text>
            <text x="18.0" y="576.0">Large</text>
        </g>
        <g font-size="9">
            <text x="250.0" y="30.0">Ultralight</text>
            <text x="450.0" y="30.0">Regular</text>
            <text x="650.0" y="30.0">Black</text>
            <text id="template-version" fill="#505050" text-anchor="end" x="785.0" y="575.0">Template v.3.0</text>
            <a href="https://github.com/swhitty/SwiftDraw">
                <text fill="#505050" text-anchor="end" x="785.0" y="590.0">https://github.com/swhitty/SwiftDraw</text>
            </a>
        </g>
    </g>
    <g id="Guides" stroke="rgb(39, 170, 225)" stroke-width="0.5">
        <path id="Capline-S" d="M18,76 l800,0" />
        <path id="H-reference" d="M85,145.755 L87.685,145.755 L113.369,79.287 L114.052,79.287 L114.052,76 L112.148,76 L85,145.755 Z M95.693,121.536 L130.996,121.536 L130.263,119.313 L96.474,119.313 L95.693,121.536 Z M139.15,145.755 L141.787,145.755 L114.638,76 L113.466,76 L113.466,79.287 L139.15,145.755 Z" stroke="none" transform="translate(0,200)" />
        <path id="Baseline-S" d="M18,146 l800,0" />
        <path id="left-margin-Ultralight-M" d="M230,256 l0,110" />
        <path id="right-margin-Ultralight-M" d="M300,256 l0,110" />
        <path id="left-margin-Regular-M" d="M430,256 l0,110" />
        <path id="right-margin-Regular-M" d="M500,256 l0,110" />
        <path id="left-margin-Black-M" d="M630,256 l0,110" />
        <path id="right-margin-Black-M" d="M700,256 l0,110" />
        <path id="Capline-M" d="M18,276 l800,0" />
        <path id="Baseline-M" d="M18,346 l800,0" />
        <path id="Capline-L" d="M18,476 l800,0" />
        <path id="Baseline-L" d="M18,546 l800,0" />
    </g>
    <g id="Symbols">
        <g id="Ultralight-M" transform="translate(0,200)">
            <path d="M249.562,95.562 L255.396,89.729 C256.535,88.59 256.535,86.743 255.396,85.604 C254.257,84.465 252.41,84.465 251.271,85.604 L245.438,91.438 C244.299,92.577 244.299,94.423 245.438,95.562 C246.577,96.701 248.423,96.701 249.562,95.562 Z M255.396,85.604 L249.562,79.771 C248.423,78.632 246.577,78.632 245.438,79.771 C244.299,80.91 244.299,82.757 245.438,83.896 L251.271,89.729 C252.41,90.868 254.257,90.868 255.396,89.729 C256.535,88.59 256.535,86.743 255.396,85.604 Z M253.333,84.75 L247.5,84.75 C243.632,84.75 239.923,86.286 237.188,89.021 C234.453,91.756 232.917,95.466 232.917,99.333 C232.917,100.944 234.223,102.25 235.833,102.25 C237.444,102.25 238.75,100.944 238.75,99.333 C238.75,97.013 239.672,94.787 241.313,93.146 C242.954,91.505 245.179,90.583 247.5,90.583 L253.333,90.583 C254.944,90.583 256.25,89.277 256.25,87.667 C256.25,86.056 254.944,84.75 253.333,84.75 Z M280.438,126.438 L274.604,132.271 C273.465,133.41 273.465,135.257 274.604,136.396 C275.743,137.535 277.59,137.535 278.729,136.396 L284.562,130.562 C285.701,129.423 285.701,127.577 284.562,126.438 C283.423,125.299 281.577,125.299 280.438,126.438 Z M274.604,136.396 L280.438,142.229 C281.577,143.368 283.423,143.368 284.562,142.229 C285.701,141.09 285.701,139.243 284.562,138.104 L278.729,132.271 C277.59,131.132 275.743,131.132 274.604,132.271 C273.465,133.41 273.465,135.257 274.604,136.396 Z M276.667,137.25 L282.5,137.25 C286.368,137.25 290.077,135.714 292.812,132.979 C295.547,130.244 297.083,126.534 297.083,122.667 C297.083,121.056 295.777,119.75 294.167,119.75 C292.556,119.75 291.25,121.056 291.25,122.667 C291.25,124.987 290.328,127.213 288.687,128.854 C287.046,130.495 284.821,131.417 282.5,131.417 L276.667,131.417 C275.056,131.417 273.75,132.723 273.75,134.333 C273.75,135.944 275.056,137.25 276.667,137.25 Z M262.542,95.688 C264.322,88.805 270.805,84.209 277.889,84.808 C284.973,85.407 290.593,91.027 291.192,98.111 C291.791,105.195 287.195,111.679 280.311,113.458 C278.752,113.862 277.815,115.453 278.218,117.012 C278.621,118.572 280.212,119.509 281.772,119.106 C291.408,116.614 297.843,107.537 297.005,97.619 C296.166,87.702 288.298,79.834 278.381,78.995 C268.463,78.157 259.386,84.592 256.894,94.228 C256.491,95.788 257.428,97.379 258.988,97.782 C260.547,98.185 262.138,97.248 262.542,95.688 Z M267.917,122.667 C267.917,130.721 261.387,137.25 253.333,137.25 C245.279,137.25 238.75,130.721 238.75,122.667 C238.75,114.613 245.279,108.083 253.333,108.083 C261.387,108.083 267.917,114.613 267.917,122.667 Z M273.75,122.667 C273.75,111.391 264.609,102.25 253.333,102.25 C242.058,102.25 232.917,111.391 232.917,122.667 C232.917,133.942 242.058,143.083 253.333,143.083 C264.609,143.083 273.75,133.942 273.75,122.667 Z" />
        </g>
        <g id="Regular-M" transform="translate(0,200)">
            <path d="M449.562,95.562 L455.396,89.729 C456.535,88.59 456.535,86.743 455.396,85.604 C454.257,84.465 452.41,84.465 451.271,85.604 L445.438,91.438 C444.299,92.577 444.299,94.423 445.438,95.562 C446.577,96.701 448.423,96.701 449.562,95.562 Z M455.396,85.604 L449.562,79.771 C448.423,78.632 446.577,78.632 445.438,79.771 C444.299,80.91 444.299,82.757 445.438,83.896 L451.271,89.729 C452.41,90.868 454.257,90.868 455.396,89.729 C456.535,88.59 456.535,86.743 455.396,85.604 Z M453.333,84.75 L447.5,84.75 C443.632,84.75 439.923,86.286 437.188,89.021 C434.453,91.756 432.917,95.466 432.917,99.333 C432.917,100.944 434.223,102.25 435.833,102.25 C437.444,102.25 438.75,100.944 438.75,99.333 C438.75,97.013 439.672,94.787 441.313,93.146 C442.954,91.505 445.179,90.583 447.5,90.583 L453.333,90.583 C454.944,90.583 456.25,89.277 456.25,87.667 C456.25,86.056 454.944,84.75 453.333,84.75 Z M480.438,126.438 L474.604,132.271 C473.465,133.41 473.465,135.257 474.604,136.396 C475.743,137.535 477.59,137.535 478.729,136.396 L484.562,130.562 C485.701,129.423 485.701,127.577 484.562,126.438 C483.423,125.299 481.577,125.299 480.438,126.438 Z M474.604,136.396 L480.438,142.229 C481.577,143.368 483.423,143.368 484.562,142.229 C485.701,141.09 485.701,139.243 484.562,138.104 L478.729,132.271 C477.59,131.132 475.743,131.132 474.604,132.271 C473.465,133.41 473.465,135.257 474.604,136.396 Z M476.667,137.25 L482.5,137.25 C486.368,137.25 490.077,135.714 492.812,132.979 C495.547,130.244 497.083,126.534 497.083,122.667 C497.083,121.056 495.777,119.75 494.167,119.75 C492.556,119.75 491.25,121.056 491.25,122.667 C491.25,124.987 490.328,127.213 488.687,128.854 C487.046,130.495 484.821,131.417 482.5,131.417 L476.667,131.417 C475.056,131.417 473.75,132.723 473.75,134.333 C473.75,135.944 475.056,137.25 476.667,137.25 Z M462.542,95.688 C464.322,88.805 470.805,84.209 477.889,84.808 C484.973,85.407 490.593,91.027 491.192,98.111 C491.791,105.195 487.195,111.679 480.311,113.458 C478.752,113.862 477.815,115.453 478.218,117.012 C478.621,118.572 480.212,119.509 481.772,119.106 C491.408,116.614 497.843,107.537 497.005,97.619 C496.166,87.702 488.298,79.834 478.381,78.995 C468.463,78.157 459.386,84.592 456.894,94.228 C456.491,95.788 457.428,97.379 458.988,97.782 C460.547,98.185 462.138,97.248 462.542,95.688 Z M467.917,122.667 C467.917,130.721 461.387,137.25 453.333,137.25 C445.279,137.25 438.75,130.721 438.75,122.667 C438.75,114.613 445.279,108.083 453.333,108.083 C461.387,108.083 467.917,114.613 467.917,122.667 Z M473.75,122.667 C473.75,111.391 464.609,102.25 453.333,102.25 C442.058,102.25 432.917,111.391 432.917,122.667 C432.917,133.942 442.058,143.083 453.333,143.083 C464.609,143.083 473.75,133.942 473.75,122.667 Z" />
        </g>
        <g id="Black-M" transform="translate(0,200)">
            <path d="M649.562,95.562 L655.396,89.729 C656.535,88.59 656.535,86.743 655.396,85.604 C654.257,84.465 652.41,84.465 651.271,85.604 L645.438,91.438 C644.299,92.577 644.299,94.423 645.438,95.562 C646.577,96.701 648.423,96.701 649.562,95.562 Z M655.396,85.604 L649.562,79.771 C648.423,78.632 646.577,78.632 645.438,79.771 C644.299,80.91 644.299,82.757 645.438,83.896 L651.271,89.729 C652.41,90.868 654.257,90.868 655.396,89.729 C656.535,88.59 656.535,86.743 655.396,85.604 Z M653.333,84.75 L647.5,84.75 C643.632,84.75 639.923,86.286 637.188,89.021 C634.453,91.756 632.917,95.466 632.917,99.333 C632.917,100.944 634.222,102.25 635.833,102.25 C637.444,102.25 638.75,100.944 638.75,99.333 C638.75,97.013 639.672,94.787 641.313,93.146 C642.954,91.505 645.179,90.583 647.5,90.583 L653.333,90.583 C654.944,90.583 656.25,89.277 656.25,87.667 C656.25,86.056 654.944,84.75 653.333,84.75 Z M680.438,126.438 L674.604,132.271 C673.465,133.41 673.465,135.257 674.604,136.396 C675.743,137.535 677.59,137.535 678.729,136.396 L684.562,130.562 C685.701,129.423 685.701,127.577 684.562,126.438 C683.423,125.299 681.577,125.299 680.438,126.438 Z M674.604,136.396 L680.438,142.229 C681.577,143.368 683.423,143.368 684.562,142.229 C685.701,141.09 685.701,139.243 684.562,138.104 L678.729,132.271 C677.59,131.132 675.743,131.132 674.604,132.271 C673.465,133.41 673.465,135.257 674.604,136.396 Z M676.667,137.25 L682.5,137.25 C686.368,137.25 690.077,135.714 692.812,132.979 C695.547,130.244 697.083,126.534 697.083,122.667 C697.083,121.056 695.777,119.75 694.167,119.75 C692.556,119.75 691.25,121.056 691.25,122.667 C691.25,124.987 690.328,127.213 688.687,128.854 C687.046,130.495 684.821,131.417 682.5,131.417 L676.667,131.417 C675.056,131.417 673.75,132.723 673.75,134.333 C673.75,135.944 675.056,137.25 676.667,137.25 Z M662.542,95.688 C664.321,88.805 670.805,84.209 677.889,84.808 C684.973,85.407 690.593,91.027 691.192,98.111 C691.791,105.195 687.195,111.679 680.312,113.458 C678.752,113.862 677.815,115.453 678.218,117.012 C678.621,118.572 680.212,119.509 681.772,119.106 C691.408,116.614 697.843,107.537 697.005,97.619 C696.166,87.702 688.298,79.834 678.381,78.995 C668.463,78.157 659.386,84.592 656.894,94.228 C656.491,95.788 657.428,97.379 658.988,97.782 C660.547,98.185 662.138,97.248 662.542,95.688 Z M667.917,122.667 C667.917,130.721 661.388,137.25 653.333,137.25 C645.279,137.25 638.75,130.721 638.75,122.667 C638.75,114.613 645.279,108.083 653.333,108.083 C661.388,108.083 667.917,114.613 667.917,122.667 Z M673.75,122.667 C673.75,111.391 664.609,102.25 653.333,102.25 C642.057,102.25 632.917,111.391 632.917,122.667 C632.917,133.942 642.057,143.083 653.333,143.083 C664.609,143.083 673.75,133.942 673.75,122.667 Z" />
        </g>
    </g>
</svg>