<?xml version="1.0" encoding="UTF-8"?>
<svg height="600" width="800" xmlns="http://www.w3.org/2000/svg" xmlns:xlink="http://www.w3.org/1999/xlink">
    <g id="Notes" font-family="LucidaGrande, 'Lucida Grande', sans-serif" font-size="13">
        <rect fill="white" height="600.0" width="800.0" x="0.0" y="0.0" />
        <g font-size="13">
            <text x="18.0" y="176.0">Small</text>
            <text x="18.0" y="376.0">Medium</text>
            <text x="18.0" y="576.0">Large</text>
        </g>
        <g font-size="9">
            <text x="250.0" y="30.0">Ultralight</text>
            <text x="450.0" y="30.0">Regular</text>
            <text x="650.0" y="30.0">Black</text>
            <text id="template-version" fill="#505050" text-anchor="end" x="785.0" y="575.0">Template v.3.0</text>
            <a href="https://github.com/swhitty/SwiftDraw">
                <text fill="#505050" text-anchor="end" x="785.0" y="590.0">https://github.com/swhitty/SwiftDraw</text>
            </a>
        </g>
    </g>
    <g id="Guides" stroke="rgb(39, 170, 225)" stroke-width="0.5">
        <path id="Capline-S" d="M18,76 l800,0" />
        <path id="H-reference" d="M85,145.755 L87.685,145.755 L113.369,79.287 L114.052,79.287 L114.052,76 L112.148,76 L85,145.755 Z M95.693,121.536 L130.996,121.536 L130.263,119.313 L96.474,119.313 L95.693,121.536 Z M139.15,145.755 L141.787,145.755 L114.638,76 L113.466,76 L113.466,79.287 L139.15,145.755 Z" stroke="none" transform="translate(0,200)" />
        <path id="Baseline-S" d="M18,146 l800,0" />
        <path id="left-margin-Ultralight-M" d="M221,256 l0,110" />
        <path id="right-margin-Ultralight-M" d="M309,256 l0,110" />
        <path id="left-margin-Regular-M" d="M421,256 l0,110" />
        <path id="right-margin-Regular-M" d="M509,256 l0,110" />
        <path id="left-margin-Black-M" d="M621,256 l0,110" />
        <path id="right-margin-Black-M" d="M709,256 l0,110" />
        <path id="Capline-M" d="M18,276 l800,0" />
        <path id="Baseline-M" d="M18,346 l800,0" />
        <path id="Capline-L" d="M18,476 l800,0" />
        <path id="Baseline-L" d="M18,546 l800,0" />
    </g>
    <g id="Symbols">
        <g id="Ultralight-M" transform="translate(0,200)">
            <path d="M263.606,130.317 C268.122,134.352 274.655,135.196 280.048,132.442 C285.442,129.687 288.589,123.901 287.968,117.876 C287.348,111.851 283.089,106.828 277.247,105.23 C276.13,104.925 274.978,105.582 274.673,106.699 C274.368,107.815 275.025,108.967 276.141,109.272 C280.314,110.414 283.357,114.002 283.8,118.305 C284.243,122.609 281.995,126.742 278.143,128.709 C274.29,130.677 269.624,130.074 266.398,127.192 C265.535,126.421 264.21,126.495 263.439,127.358 C262.668,128.221 262.743,129.546 263.606,130.317 Z M252.757,105.23 C246.892,106.832 242.623,111.886 242.025,117.937 C241.428,123.987 244.624,129.78 250.063,132.499 C255.501,135.218 262.052,134.3 266.534,130.191 C271.016,126.083 272.498,119.635 270.261,113.982 C269.835,112.906 268.617,112.379 267.541,112.804 C266.465,113.23 265.938,114.448 266.364,115.524 C267.962,119.562 266.903,124.167 263.702,127.102 C260.501,130.037 255.821,130.692 251.937,128.75 C248.052,126.808 245.769,122.671 246.196,118.349 C246.623,114.027 249.672,110.417 253.861,109.273 C254.978,108.968 255.636,107.815 255.331,106.699 C255.026,105.583 253.874,104.925 252.757,105.23 Z M275.479,102.62 C275.479,108.407 270.788,113.097 265.002,113.097 C259.215,113.097 254.525,108.407 254.525,102.62 C254.525,96.834 259.215,92.143 265.002,92.143 C270.788,92.143 275.479,96.834 275.479,102.62 Z M279.669,102.62 C279.669,94.52 273.103,87.953 265.002,87.953 C256.901,87.953 250.334,94.52 250.334,102.62 C250.334,110.721 256.901,117.288 265.002,117.288 C273.103,117.288 279.669,110.721 279.669,102.62 Z" />
        </g>
        <g id="Regular-M" transform="translate(0,200)">
            <path d="M463.606,130.317 C468.122,134.352 474.654,135.196 480.048,132.442 C485.442,129.687 488.589,123.901 487.968,117.876 C487.348,111.851 483.089,106.828 477.247,105.23 C476.13,104.925 474.978,105.582 474.673,106.699 C474.368,107.815 475.025,108.967 476.141,109.272 C480.314,110.414 483.357,114.002 483.8,118.305 C484.243,122.609 481.995,126.742 478.143,128.709 C474.29,130.677 469.624,130.074 466.398,127.192 C465.535,126.421 464.21,126.495 463.439,127.358 C462.668,128.221 462.743,129.546 463.606,130.317 Z M452.757,105.23 C446.892,106.832 442.623,111.886 442.025,117.937 C441.428,123.987 444.624,129.78 450.063,132.499 C455.501,135.218 462.052,134.3 466.534,130.191 C471.016,126.083 472.498,119.635 470.261,113.982 C469.835,112.906 468.617,112.379 467.541,112.804 C466.465,113.23 465.938,114.448 466.364,115.524 C467.962,119.562 466.903,124.167 463.702,127.102 C460.501,130.037 455.821,130.692 451.937,128.75 C448.052,126.808 445.769,122.671 446.196,118.349 C446.623,114.027 449.672,110.417 453.861,109.273 C454.978,108.968 455.636,107.815 455.331,106.699 C455.026,105.583 453.874,104.925 452.757,105.23 Z M475.479,102.62 C475.479,108.407 470.788,113.097 465.002,113.097 C459.215,113.097 454.525,108.407 454.525,102.62 C454.525,96.834 459.215,92.143 465.002,92.143 C470.788,92.143 475.479,96.834 475.479,102.62 Z M479.669,102.62 C479.669,94.52 473.102,87.953 465.002,87.953 C456.901,87.953 450.334,94.52 450.334,102.62 C450.334,110.721 456.901,117.288 465.002,117.288 C473.102,117.288 479.669,110.721 479.669,102.62 Z" />
        </g>
        <g id="Black-M" transform="translate(0,200)">
            <path d="M663.606,130.317 C668.122,134.352 674.654,135.196 680.048,132.442 C685.442,129.687 688.589,123.901 687.968,117.876 C687.348,111.851 683.089,106.828 677.247,105.23 C676.13,104.925 674.978,105.582 674.673,106.699 C674.368,107.815 675.025,108.967 676.141,109.272 C680.314,110.414 683.357,114.002 683.8,118.305 C684.243,122.609 681.995,126.742 678.143,128.709 C674.29,130.677 669.624,130.074 666.398,127.192 C665.535,126.421 664.21,126.495 663.439,127.358 C662.668,128.221 662.743,129.546 663.606,130.317 Z M652.757,105.23 C646.892,106.832 642.623,111.886 642.025,117.937 C641.428,123.987 644.624,129.78 650.063,132.499 C655.501,135.218 662.052,134.3 666.534,130.191 C671.016,126.083 672.498,119.635 670.261,113.982 C669.835,112.906 668.617,112.379 667.541,112.804 C666.465,113.23 665.938,114.448 666.364,115.524 C667.962,119.562 666.903,124.167 663.702,127.102 C660.501,130.037 655.821,130.692 651.937,128.75 C648.052,126.808 645.769,122.671 646.196,118.349 C646.623,114.027 649.672,110.417 653.861,109.273 C654.978,108.968 655.636,107.815 655.331,106.699 C655.026,105.583 653.874,104.925 652.757,105.23 Z M675.479,102.62 C675.479,108.407 670.788,113.097 665.002,113.097 C659.215,113.097 654.525,108.407 654.525,102.62 C654.525,96.834 659.215,92.143 665.002,92.143 C670.788,92.143 675.479,96.834 675.479,102.62 Z M679.669,102.62 C679.669,94.52 673.102,87.953 665.002,87.953 C656.901,87.953 650.334,94.52 650.334,102.62 C650.334,110.721 656.901,117.288 665.002,117.288 C673.102,117.288 679.669,110.721 679.669,102.62 Z" />
        </g>
    </g>
</svg>