<?xml version="1.0" encoding="UTF-8"?>
<svg height="600" width="800" xmlns="http://www.w3.org/2000/svg" xmlns:xlink="http://www.w3.org/1999/xlink">
    <g id="Notes" font-family="LucidaGrande, 'Lucida Grande', sans-serif" font-size="13">
        <rect fill="white" height="600.0" width="800.0" x="0.0" y="0.0" />
        <g font-size="13">
            <text x="18.0" y="176.0">Small</text>
            <text x="18.0" y="376.0">Medium</text>
            <text x="18.0" y="576.0">Large</text>
        </g>
        <g font-size="9">
            <text x="250.0" y="30.0">Ultralight</text>
            <text x="450.0" y="30.0">Regular</text>
            <text x="650.0" y="30.0">Black</text>
            <text id="template-version" fill="#505050" text-anchor="end" x="785.0" y="575.0">Template v.3.0</text>
            <a href="https://github.com/swhitty/SwiftDraw">
                <text fill="#505050" text-anchor="end" x="785.0" y="590.0">https://github.com/swhitty/SwiftDraw</text>
            </a>
        </g>
    </g>
    <g id="Guides" stroke="rgb(39, 170, 225)" stroke-width="0.5">
        <path id="Capline-S" d="M18,76 l800,0" />
        <path id="H-reference" d="M85,145.755 L87.685,145.755 L113.369,79.287 L114.052,79.287 L114.052,76 L112.148,76 L85,145.755 Z M95.693,121.536 L130.996,121.536 L130.263,119.313 L96.474,119.313 L95.693,121.536 Z M139.15,145.755 L141.787,145.755 L114.638,76 L113.466,76 L113.466,79.287 L139.15,145.755 Z" stroke="none" transform="translate(0,200)" />
        <path id="Baseline-S" d="M18,146 l800,0" />
        <path id="left-margin-Ultralight-M" d="M230,256 l0,110" />
        <path id="right-margin-Ultralight-M" d="M300,256 l0,110" />
        <path id="left-margin-Regular-M" d="M430,256 l0,110" />
        <path id="right-margin-Regular-M" d="M500,256 l0,110" />
        <path id="left-margin-Black-M" d="M630,256 l0,110" />
        <path id="right-margin-Black-M" d="M700,256 l0,110" />
        <path id="Capline-M" d="M18,276 l800,0" />
        <path id="Baseline-M" d="M18,346 l800,0" />
        <path id="Capline-L" d="M18,476 l800,0" />
        <path id="Baseline-L" d="M18,546 l800,0" />
    </g>
    <g id="Symbols">
        <g id="Ultralight-M" transform="translate(0,200)">
            <path d="M244.583,116.833 C241.675,116.833 240.97,116.785 240.551,116.612 C239.836,116.316 239.268,115.748 238.972,115.032 C238.798,114.613 238.75,113.909 238.75,111 L238.75,91.167 C238.75,87.669 238.818,86.832 239.068,86.342 C239.348,85.794 239.794,85.348 240.342,85.068 C240.832,84.818 241.669,84.75 245.167,84.75 L265,84.75 C267.909,84.75 268.613,84.798 269.032,84.971 C269.748,85.268 270.316,85.836 270.612,86.551 C270.785,86.97 270.833,87.675 270.833,90.583 C270.833,92.194 272.139,93.5 273.75,93.5 C275.361,93.5 276.667,92.194 276.667,90.583 C276.667,86.696 276.604,85.774 276.001,84.319 C275.113,82.174 273.409,80.47 271.263,79.582 C269.809,78.979 268.887,78.917 265,78.917 L245.167,78.917 C240.497,78.917 239.389,79.007 237.695,79.87 C236.048,80.709 234.709,82.048 233.87,83.694 C233.007,85.389 232.917,86.497 232.917,91.167 L232.917,111 C232.917,114.887 232.979,115.809 233.582,117.264 C234.47,119.409 236.174,121.113 238.32,122.002 C239.774,122.604 240.696,122.667 244.583,122.667 C246.194,122.667 247.5,121.361 247.5,119.75 C247.5,118.139 246.194,116.833 244.583,116.833 Z M265.583,143.083 L284.833,143.083 C289.503,143.083 290.611,142.993 292.305,142.13 C293.952,141.291 295.291,139.952 296.13,138.306 C296.993,136.611 297.083,135.503 297.083,130.833 L297.083,111.583 C297.083,106.914 296.993,105.805 296.13,104.111 C295.291,102.464 293.952,101.126 292.306,100.287 C290.611,99.424 289.503,99.333 284.833,99.333 L265.583,99.333 C260.914,99.333 259.806,99.424 258.111,100.287 C256.464,101.126 255.126,102.464 254.287,104.111 C253.424,105.806 253.333,106.914 253.333,111.583 L253.333,130.833 C253.333,135.503 253.424,136.611 254.287,138.305 C255.126,139.952 256.464,141.291 258.111,142.13 C259.806,142.993 260.914,143.083 265.583,143.083 Z M265.583,137.25 C262.086,137.25 261.249,137.182 260.759,136.932 C260.21,136.652 259.764,136.206 259.485,135.658 C259.235,135.168 259.167,134.331 259.167,130.833 L259.167,111.583 C259.167,108.086 259.235,107.249 259.485,106.759 C259.764,106.21 260.21,105.764 260.759,105.485 C261.249,105.235 262.086,105.167 265.583,105.167 L284.833,105.167 C288.331,105.167 289.168,105.235 289.658,105.485 C290.206,105.764 290.652,106.21 290.932,106.759 C291.182,107.249 291.25,108.086 291.25,111.583 L291.25,130.833 C291.25,134.331 291.182,135.168 290.932,135.658 C290.652,136.206 290.206,136.652 289.658,136.932 C289.168,137.182 288.331,137.25 284.833,137.25 L265.583,137.25 Z" />
        </g>
        <g id="Regular-M" transform="translate(0,200)">
            <path d="M444.583,116.833 C441.675,116.833 440.97,116.785 440.551,116.612 C439.836,116.316 439.268,115.748 438.972,115.032 C438.798,114.613 438.75,113.909 438.75,111 L438.75,91.167 C438.75,87.669 438.818,86.832 439.068,86.342 C439.348,85.794 439.794,85.348 440.342,85.068 C440.832,84.818 441.669,84.75 445.167,84.75 L465,84.75 C467.909,84.75 468.613,84.798 469.032,84.971 C469.748,85.268 470.316,85.836 470.612,86.551 C470.785,86.97 470.833,87.675 470.833,90.583 C470.833,92.194 472.139,93.5 473.75,93.5 C475.361,93.5 476.667,92.194 476.667,90.583 C476.667,86.696 476.604,85.774 476.001,84.319 C475.113,82.174 473.409,80.47 471.263,79.582 C469.809,78.979 468.887,78.917 465,78.917 L445.167,78.917 C440.497,78.917 439.389,79.007 437.695,79.87 C436.048,80.709 434.709,82.048 433.87,83.694 C433.007,85.389 432.917,86.497 432.917,91.167 L432.917,111 C432.917,114.887 432.979,115.809 433.582,117.264 C434.47,119.409 436.174,121.113 438.32,122.002 C439.774,122.604 440.696,122.667 444.583,122.667 C446.194,122.667 447.5,121.361 447.5,119.75 C447.5,118.139 446.194,116.833 444.583,116.833 Z M465.583,143.083 L484.833,143.083 C489.503,143.083 490.611,142.993 492.305,142.13 C493.952,141.291 495.291,139.952 496.13,138.306 C496.993,136.611 497.083,135.503 497.083,130.833 L497.083,111.583 C497.083,106.914 496.993,105.805 496.13,104.111 C495.291,102.464 493.952,101.126 492.306,100.287 C490.611,99.424 489.503,99.333 484.833,99.333 L465.583,99.333 C460.914,99.333 459.806,99.424 458.111,100.287 C456.464,101.126 455.126,102.464 454.287,104.111 C453.424,105.806 453.333,106.914 453.333,111.583 L453.333,130.833 C453.333,135.503 453.424,136.611 454.287,138.305 C455.126,139.952 456.464,141.291 458.111,142.13 C459.806,142.993 460.914,143.083 465.583,143.083 Z M465.583,137.25 C462.086,137.25 461.249,137.182 460.759,136.932 C460.21,136.652 459.764,136.206 459.485,135.658 C459.235,135.168 459.167,134.331 459.167,130.833 L459.167,111.583 C459.167,108.086 459.235,107.249 459.485,106.759 C459.764,106.21 460.21,105.764 460.759,105.485 C461.249,105.235 462.086,105.167 465.583,105.167 L484.833,105.167 C488.331,105.167 489.168,105.235 489.658,105.485 C490.206,105.764 490.652,106.21 490.932,106.759 C491.182,107.249 491.25,108.086 491.25,111.583 L491.25,130.833 C491.25,134.331 491.182,135.168 490.932,135.658 C490.652,136.206 490.206,136.652 489.658,136.932 C489.168,137.182 488.331,137.25 484.833,137.25 L465.583,137.25 Z" />
        </g>
        <g id="Black-M" transform="translate(0,200)">
            <path d="M644.583,116.833 C641.675,116.833 640.97,116.785 640.551,116.612 C639.836,116.316 639.268,115.748 638.972,115.032 C638.798,114.613 638.75,113.909 638.75,111 L638.75,91.167 C638.75,87.669 638.818,86.832 639.068,86.342 C639.348,85.794 639.794,85.348 640.343,85.068 C640.832,84.818 641.669,84.75 645.167,84.75 L665,84.75 C667.909,84.75 668.613,84.798 669.032,84.971 C669.748,85.268 670.316,85.836 670.612,86.551 C670.785,86.97 670.833,87.675 670.833,90.583 C670.833,92.194 672.139,93.5 673.75,93.5 C675.361,93.5 676.667,92.194 676.667,90.583 C676.667,86.696 676.604,85.774 676.001,84.319 C675.113,82.174 673.409,80.47 671.263,79.582 C669.809,78.979 668.887,78.917 665,78.917 L645.167,78.917 C640.497,78.917 639.389,79.007 637.695,79.87 C636.048,80.709 634.709,82.048 633.87,83.694 C633.007,85.389 632.917,86.497 632.917,91.167 L632.917,111 C632.917,114.887 632.979,115.809 633.582,117.264 C634.47,119.409 636.174,121.113 638.32,122.002 C639.774,122.604 640.696,122.667 644.583,122.667 C646.194,122.667 647.5,121.361 647.5,119.75 C647.5,118.139 646.194,116.833 644.583,116.833 Z M665.583,143.083 L684.833,143.083 C689.503,143.083 690.611,142.993 692.305,142.13 C693.952,141.291 695.291,139.952 696.13,138.306 C696.993,136.611 697.083,135.503 697.083,130.833 L697.083,111.583 C697.083,106.914 696.993,105.805 696.13,104.111 C695.291,102.464 693.952,101.126 692.306,100.287 C690.611,99.424 689.503,99.333 684.833,99.333 L665.583,99.333 C660.914,99.333 659.805,99.424 658.111,100.287 C656.464,101.126 655.126,102.464 654.287,104.111 C653.424,105.806 653.333,106.914 653.333,111.583 L653.333,130.833 C653.333,135.503 653.424,136.611 654.287,138.305 C655.126,139.952 656.464,141.291 658.111,142.13 C659.805,142.993 660.914,143.083 665.583,143.083 Z M665.583,137.25 C662.086,137.25 661.249,137.182 660.759,136.932 C660.21,136.652 659.764,136.206 659.485,135.658 C659.235,135.168 659.167,134.331 659.167,130.833 L659.167,111.583 C659.167,108.086 659.235,107.249 659.485,106.759 C659.764,106.21 660.21,105.764 660.759,105.485 C661.249,105.235 662.086,105.167 665.583,105.167 L684.833,105.167 C688.331,105.167 689.168,105.235 689.658,105.485 C690.206,105.764 690.652,106.21 690.932,106.759 C691.182,107.249 691.25,108.086 691.25,111.583 L691.25,130.833 C691.25,134.331 691.182,135.168 690.932,135.658 C690.652,136.206 690.206,136.652 689.657,136.932 C689.168,137.182 688.331,137.25 684.833,137.25 L665.583,137.25 Z" />
        </g>
    </g>
</svg>