<?xml version="1.0" encoding="UTF-8"?>
<svg height="600" width="800" xmlns="http://www.w3.org/2000/svg" xmlns:xlink="http://www.w3.org/1999/xlink">
    <g id="Notes" font-family="LucidaGrande, 'Lucida Grande', sans-serif" font-size="13">
        <rect fill="white" height="600.0" width="800.0" x="0.0" y="0.0" />
        <g font-size="13">
            <text x="18.0" y="176.0">Small</text>
            <text x="18.0" y="376.0">Medium</text>
            <text x="18.0" y="576.0">Large</text>
        </g>
        <g font-size="9">
            <text x="250.0" y="30.0">Ultralight</text>
            <text x="450.0" y="30.0">Regular</text>
            <text x="650.0" y="30.0">Black</text>
            <text id="template-version" fill="#505050" text-anchor="end" x="785.0" y="575.0">Template v.3.0</text>
            <a href="https://github.com/swhitty/SwiftDraw">
                <text fill="#505050" text-anchor="end" x="785.0" y="590.0">https://github.com/swhitty/SwiftDraw</text>
            </a>
        </g>
    </g>
    <g id="Guides" stroke="rgb(39, 170, 225)" stroke-width="0.5">
        <path id="Capline-S" d="M18,76 l800,0" />
        <path id="H-reference" d="M85,145.755 L87.685,145.755 L113.369,79.287 L114.052,79.287 L114.052,76 L112.148,76 L85,145.755 Z M95.693,121.536 L130.996,121.536 L130.263,119.313 L96.474,119.313 L95.693,121.536 Z M139.15,145.755 L141.787,145.755 L114.638,76 L113.466,76 L113.466,79.287 L139.15,145.755 Z" stroke="none" transform="translate(0,200)" />
        <path id="Baseline-S" d="M18,146 l800,0" />
        <path id="left-margin-Ultralight-M" d="M230,256 l0,110" />
        <path id="right-margin-Ultralight-M" d="M300,256 l0,110" />
        <path id="left-margin-Regular-M" d="M430,256 l0,110" />
        <path id="right-margin-Regular-M" d="M500,256 l0,110" />
        <path id="left-margin-Black-M" d="M630,256 l0,110" />
        <path id="right-margin-Black-M" d="M700,256 l0,110" />
        <path id="Capline-M" d="M18,276 l800,0" />
        <path id="Baseline-M" d="M18,346 l800,0" />
        <path id="Capline-L" d="M18,476 l800,0" />
        <path id="Baseline-L" d="M18,546 l800,0" />
    </g>
    <g id="Symbols">
        <g id="Ultralight-M" transform="translate(0,200)">
            <path d="M233.5,86.5 L245.4,86.5 C259.397,86.5 262.736,86.773 265.945,88.408 C269.238,90.085 271.915,92.762 273.592,96.055 C275.227,99.264 275.5,102.603 275.5,116.6 L275.5,139 C275.5,140.933 277.067,142.5 279,142.5 C280.933,142.5 282.5,140.933 282.5,139 L282.5,116.6 C282.5,101.197 282.201,97.532 279.83,92.877 C277.481,88.267 273.733,84.519 269.123,82.171 C264.468,79.799 260.803,79.5 245.4,79.5 L233.5,79.5 C231.567,79.5 230,81.067 230,83 C230,84.933 231.567,86.5 233.5,86.5 Z M281.475,136.525 L263.975,119.025 C262.608,117.658 260.392,117.658 259.025,119.025 C257.658,120.392 257.658,122.608 259.025,123.975 L276.525,141.475 C277.892,142.842 280.108,142.842 281.475,141.475 C282.842,140.108 282.842,137.892 281.475,136.525 Z M281.475,141.475 L298.975,123.975 C300.342,122.608 300.342,120.392 298.975,119.025 C297.608,117.658 295.392,117.658 294.025,119.025 L276.525,136.525 C275.158,137.892 275.158,140.108 276.525,141.475 C277.892,142.842 280.108,142.842 281.475,141.475 Z" />
        </g>
        <g id="Regular-M" transform="translate(0,200)">
            <path d="M433.5,86.5 L445.4,86.5 C459.397,86.5 462.736,86.773 465.945,88.408 C469.238,90.085 471.915,92.762 473.592,96.055 C475.227,99.264 475.5,102.603 475.5,116.6 L475.5,139 C475.5,140.933 477.067,142.5 479,142.5 C480.933,142.5 482.5,140.933 482.5,139 L482.5,116.6 C482.5,101.197 482.201,97.532 479.83,92.877 C477.481,88.267 473.733,84.519 469.123,82.171 C464.468,79.799 460.803,79.5 445.4,79.5 L433.5,79.5 C431.567,79.5 430,81.067 430,83 C430,84.933 431.567,86.5 433.5,86.5 Z M481.475,136.525 L463.975,119.025 C462.608,117.658 460.392,117.658 459.025,119.025 C457.658,120.392 457.658,122.608 459.025,123.975 L476.525,141.475 C477.892,142.842 480.108,142.842 481.475,141.475 C482.842,140.108 482.842,137.892 481.475,136.525 Z M481.475,141.475 L498.975,123.975 C500.342,122.608 500.342,120.392 498.975,119.025 C497.608,117.658 495.392,117.658 494.025,119.025 L476.525,136.525 C475.158,137.892 475.158,140.108 476.525,141.475 C477.892,142.842 480.108,142.842 481.475,141.475 Z" />
        </g>
        <g id="Black-M" transform="translate(0,200)">
            <path d="M633.5,86.5 L645.4,86.5 C659.397,86.5 662.736,86.773 665.945,88.408 C669.238,90.085 671.915,92.762 673.593,96.055 C675.227,99.264 675.5,102.603 675.5,116.6 L675.5,139 C675.5,140.933 677.067,142.5 679,142.5 C680.933,142.5 682.5,140.933 682.5,139 L682.5,116.6 C682.5,101.197 682.201,97.532 679.83,92.877 C677.481,88.267 673.733,84.519 669.123,82.171 C664.468,79.799 660.803,79.5 645.4,79.5 L633.5,79.5 C631.567,79.5 630,81.067 630,83 C630,84.933 631.567,86.5 633.5,86.5 Z M681.475,136.525 L663.975,119.025 C662.608,117.658 660.392,117.658 659.025,119.025 C657.658,120.392 657.658,122.608 659.025,123.975 L676.525,141.475 C677.892,142.842 680.108,142.842 681.475,141.475 C682.842,140.108 682.842,137.892 681.475,136.525 Z M681.475,141.475 L698.975,123.975 C700.342,122.608 700.342,120.392 698.975,119.025 C697.608,117.658 695.392,117.658 694.025,119.025 L676.525,136.525 C675.158,137.892 675.158,140.108 676.525,141.475 C677.892,142.842 680.108,142.842 681.475,141.475 Z" />
        </g>
    </g>
</svg>