<?xml version="1.0" encoding="UTF-8"?>
<svg height="600" width="800" xmlns="http://www.w3.org/2000/svg" xmlns:xlink="http://www.w3.org/1999/xlink">
    <g id="Notes" font-family="LucidaGrande, 'Lucida Grande', sans-serif" font-size="13">
        <rect fill="white" height="600.0" width="800.0" x="0.0" y="0.0" />
        <g font-size="13">
            <text x="18.0" y="176.0">Small</text>
            <text x="18.0" y="376.0">Medium</text>
            <text x="18.0" y="576.0">Large</text>
        </g>
        <g font-size="9">
            <text x="250.0" y="30.0">Ultralight</text>
            <text x="450.0" y="30.0">Regular</text>
            <text x="650.0" y="30.0">Black</text>
            <text id="template-version" fill="#505050" text-anchor="end" x="785.0" y="575.0">Template v.3.0</text>
            <a href="https://github.com/swhitty/SwiftDraw">
                <text fill="#505050" text-anchor="end" x="785.0" y="590.0">https://github.com/swhitty/SwiftDraw</text>
            </a>
        </g>
    </g>
    <g id="Guides" stroke="rgb(39, 170, 225)" stroke-width="0.5">
        <path id="Capline-S" d="M18,76 l800,0" />
        <path id="H-reference" d="M85,145.755 L87.685,145.755 L113.369,79.287 L114.052,79.287 L114.052,76 L112.148,76 L85,145.755 Z M95.693,121.536 L130.996,121.536 L130.263,119.313 L96.474,119.313 L95.693,121.536 Z M139.15,145.755 L141.787,145.755 L114.638,76 L113.466,76 L113.466,79.287 L139.15,145.755 Z" stroke="none" transform="translate(0,200)" />
        <path id="Baseline-S" d="M18,146 l800,0" />
        <path id="left-margin-Ultralight-M" d="M230,256 l0,110" />
        <path id="right-margin-Ultralight-M" d="M300,256 l0,110" />
        <path id="left-margin-Regular-M" d="M430,256 l0,110" />
        <path id="right-margin-Regular-M" d="M500,256 l0,110" />
        <path id="left-margin-Black-M" d="M630,256 l0,110" />
        <path id="right-margin-Black-M" d="M700,256 l0,110" />
        <path id="Capline-M" d="M18,276 l800,0" />
        <path id="Baseline-M" d="M18,346 l800,0" />
        <path id="Capline-L" d="M18,476 l800,0" />
        <path id="Baseline-L" d="M18,546 l800,0" />
    </g>
    <g id="Symbols">
        <g id="Ultralight-M" transform="translate(0,200)">
            <path d="M258.312,114.771 L243.729,100.188 C242.59,99.049 240.743,99.049 239.604,100.188 C238.465,101.327 238.465,103.173 239.604,104.312 L254.188,118.896 C255.327,120.035 257.173,120.035 258.312,118.896 C259.451,117.757 259.451,115.91 258.312,114.771 Z M243.729,104.312 L258.312,89.729 C259.451,88.59 259.451,86.743 258.312,85.604 C257.173,84.465 255.327,84.465 254.188,85.604 L239.604,100.188 C238.465,101.327 238.465,103.173 239.604,104.312 C240.743,105.451 242.59,105.451 243.729,104.312 Z M241.667,105.167 L260.333,105.167 C271.997,105.167 274.78,105.394 277.455,106.756 C280.198,108.154 282.429,110.385 283.827,113.129 C285.189,115.804 285.417,118.586 285.417,130.25 L285.417,134.333 C285.417,135.944 286.723,137.25 288.333,137.25 C289.944,137.25 291.25,135.944 291.25,134.333 L291.25,130.25 C291.25,117.414 291,114.36 289.025,110.481 C287.067,106.639 283.944,103.516 280.103,101.559 C276.223,99.583 273.169,99.333 260.333,99.333 L241.667,99.333 C240.056,99.333 238.75,100.639 238.75,102.25 C238.75,103.861 240.056,105.167 241.667,105.167 Z" />
        </g>
        <g id="Regular-M" transform="translate(0,200)">
            <path d="M458.312,114.771 L443.729,100.188 C442.59,99.049 440.743,99.049 439.604,100.188 C438.465,101.327 438.465,103.173 439.604,104.312 L454.188,118.896 C455.327,120.035 457.173,120.035 458.312,118.896 C459.451,117.757 459.451,115.91 458.312,114.771 Z M443.729,104.312 L458.312,89.729 C459.451,88.59 459.451,86.743 458.312,85.604 C457.173,84.465 455.327,84.465 454.188,85.604 L439.604,100.188 C438.465,101.327 438.465,103.173 439.604,104.312 C440.743,105.451 442.59,105.451 443.729,104.312 Z M441.667,105.167 L460.333,105.167 C471.997,105.167 474.78,105.394 477.455,106.756 C480.198,108.154 482.429,110.385 483.827,113.129 C485.189,115.804 485.417,118.586 485.417,130.25 L485.417,134.333 C485.417,135.944 486.723,137.25 488.333,137.25 C489.944,137.25 491.25,135.944 491.25,134.333 L491.25,130.25 C491.25,117.414 491,114.36 489.025,110.481 C487.067,106.639 483.944,103.516 480.103,101.559 C476.223,99.583 473.169,99.333 460.333,99.333 L441.667,99.333 C440.056,99.333 438.75,100.639 438.75,102.25 C438.75,103.861 440.056,105.167 441.667,105.167 Z" />
        </g>
        <g id="Black-M" transform="translate(0,200)">
            <path d="M658.312,114.771 L643.729,100.188 C642.59,99.049 640.743,99.049 639.604,100.188 C638.465,101.327 638.465,103.173 639.604,104.312 L654.188,118.896 C655.327,120.035 657.173,120.035 658.312,118.896 C659.451,117.757 659.451,115.91 658.312,114.771 Z M643.729,104.312 L658.312,89.729 C659.451,88.59 659.451,86.743 658.312,85.604 C657.173,84.465 655.327,84.465 654.188,85.604 L639.604,100.188 C638.465,101.327 638.465,103.173 639.604,104.312 C640.743,105.451 642.59,105.451 643.729,104.312 Z M641.667,105.167 L660.333,105.167 C671.997,105.167 674.78,105.394 677.455,106.756 C680.198,108.154 682.429,110.385 683.827,113.129 C685.189,115.804 685.417,118.586 685.417,130.25 L685.417,134.333 C685.417,135.944 686.723,137.25 688.333,137.25 C689.944,137.25 691.25,135.944 691.25,134.333 L691.25,130.25 C691.25,117.414 691,114.36 689.025,110.481 C687.067,106.639 683.944,103.516 680.102,101.559 C676.223,99.583 673.169,99.333 660.333,99.333 L641.667,99.333 C640.056,99.333 638.75,100.639 638.75,102.25 C638.75,103.861 640.056,105.167 641.667,105.167 Z" />
        </g>
    </g>
</svg>