<?xml version="1.0" encoding="UTF-8"?>
<svg height="600" width="800" xmlns="http://www.w3.org/2000/svg" xmlns:xlink="http://www.w3.org/1999/xlink">
    <g id="Notes" font-family="LucidaGrande, 'Lucida Grande', sans-serif" font-size="13">
        <rect fill="white" height="600.0" width="800.0" x="0.0" y="0.0" />
        <g font-size="13">
            <text x="18.0" y="176.0">Small</text>
            <text x="18.0" y="376.0">Medium</text>
            <text x="18.0" y="576.0">Large</text>
        </g>
        <g font-size="9">
            <text x="250.0" y="30.0">Ultralight</text>
            <text x="450.0" y="30.0">Regular</text>
            <text x="650.0" y="30.0">Black</text>
            <text id="template-version" fill="#505050" text-anchor="end" x="785.0" y="575.0">Template v.3.0</text>
            <a href="https://github.com/swhitty/SwiftDraw">
                <text fill="#505050" text-anchor="end" x="785.0" y="590.0">https://github.com/swhitty/SwiftDraw</text>
            </a>
        </g>
    </g>
    <g id="Guides" stroke="rgb(39, 170, 225)" stroke-width="0.5">
        <path id="Capline-S" d="M18,76 l800,0" />
        <path id="H-reference" d="M85,145.755 L87.685,145.755 L113.369,79.287 L114.052,79.287 L114.052,76 L112.148,76 L85,145.755 Z M95.693,121.536 L130.996,121.536 L130.263,119.313 L96.474,119.313 L95.693,121.536 Z M139.15,145.755 L141.787,145.755 L114.638,76 L113.466,76 L113.466,79.287 L139.15,145.755 Z" stroke="none" transform="translate(0,200)" />
        <path id="Baseline-S" d="M18,146 l800,0" />
        <path id="left-margin-Ultralight-M" d="M230,256 l0,110" />
        <path id="right-margin-Ultralight-M" d="M300,256 l0,110" />
        <path id="left-margin-Regular-M" d="M430,256 l0,110" />
        <path id="right-margin-Regular-M" d="M500,256 l0,110" />
        <path id="left-margin-Black-M" d="M630,256 l0,110" />
        <path id="right-margin-Black-M" d="M700,256 l0,110" />
        <path id="Capline-M" d="M18,276 l800,0" />
        <path id="Baseline-M" d="M18,346 l800,0" />
        <path id="Capline-L" d="M18,476 l800,0" />
        <path id="Baseline-L" d="M18,546 l800,0" />
    </g>
    <g id="Symbols">
        <g id="Ultralight-M" transform="translate(0,200)">
            <path d="M233.5,146 L245.4,146 C260.803,146 264.468,145.667 269.123,143.033 C273.733,140.423 277.481,136.259 279.829,131.137 C282.201,125.964 282.5,121.892 282.5,104.778 L282.5,79.889 C282.5,77.741 280.933,76 279,76 C277.067,76 275.5,77.741 275.5,79.889 L275.5,104.778 C275.5,120.33 275.227,124.04 273.592,127.606 C271.915,131.264 269.238,134.239 265.945,136.103 C262.736,137.919 259.397,138.222 245.4,138.222 L233.5,138.222 C231.567,138.222 230,139.963 230,142.111 C230,144.259 231.567,146 233.5,146 Z M276.525,77.139 L259.025,96.583 C257.658,98.102 257.658,100.564 259.025,102.083 C260.392,103.602 262.608,103.602 263.975,102.083 L281.475,82.639 C282.842,81.12 282.842,78.658 281.475,77.139 C280.108,75.62 277.892,75.62 276.525,77.139 Z M276.525,82.639 L294.025,102.083 C295.392,103.602 297.608,103.602 298.975,102.083 C300.342,100.564 300.342,98.102 298.975,96.583 L281.475,77.139 C280.108,75.62 277.892,75.62 276.525,77.139 C275.158,78.658 275.158,81.12 276.525,82.639 Z" />
        </g>
        <g id="Regular-M" transform="translate(0,200)">
            <path d="M433.5,146 L445.4,146 C460.803,146 464.468,145.667 469.123,143.033 C473.733,140.423 477.481,136.259 479.829,131.137 C482.201,125.964 482.5,121.892 482.5,104.778 L482.5,79.889 C482.5,77.741 480.933,76 479,76 C477.067,76 475.5,77.741 475.5,79.889 L475.5,104.778 C475.5,120.33 475.227,124.04 473.592,127.606 C471.915,131.264 469.238,134.239 465.945,136.103 C462.736,137.919 459.397,138.222 445.4,138.222 L433.5,138.222 C431.567,138.222 430,139.963 430,142.111 C430,144.259 431.567,146 433.5,146 Z M476.525,77.139 L459.025,96.583 C457.658,98.102 457.658,100.564 459.025,102.083 C460.392,103.602 462.608,103.602 463.975,102.083 L481.475,82.639 C482.842,81.12 482.842,78.658 481.475,77.139 C480.108,75.62 477.892,75.62 476.525,77.139 Z M476.525,82.639 L494.025,102.083 C495.392,103.602 497.608,103.602 498.975,102.083 C500.342,100.564 500.342,98.102 498.975,96.583 L481.475,77.139 C480.108,75.62 477.892,75.62 476.525,77.139 C475.158,78.658 475.158,81.12 476.525,82.639 Z" />
        </g>
        <g id="Black-M" transform="translate(0,200)">
            <path d="M633.5,146 L645.4,146 C660.803,146 664.468,145.667 669.122,143.033 C673.733,140.423 677.481,136.259 679.83,131.137 C682.201,125.964 682.5,121.892 682.5,104.778 L682.5,79.889 C682.5,77.741 680.933,76 679,76 C677.067,76 675.5,77.741 675.5,79.889 L675.5,104.778 C675.5,120.33 675.227,124.04 673.592,127.606 C671.915,131.264 669.238,134.239 665.945,136.103 C662.736,137.919 659.397,138.222 645.4,138.222 L633.5,138.222 C631.567,138.222 630,139.963 630,142.111 C630,144.259 631.567,146 633.5,146 Z M676.525,77.139 L659.025,96.583 C657.658,98.102 657.658,100.564 659.025,102.083 C660.392,103.602 662.608,103.602 663.975,102.083 L681.475,82.639 C682.842,81.12 682.842,78.658 681.475,77.139 C680.108,75.62 677.892,75.62 676.525,77.139 Z M676.525,82.639 L694.025,102.083 C695.392,103.602 697.608,103.602 698.975,102.083 C700.342,100.564 700.342,98.102 698.975,96.583 L681.475,77.139 C680.108,75.62 677.892,75.62 676.525,77.139 C675.158,78.658 675.158,81.12 676.525,82.639 Z" />
        </g>
    </g>
</svg>