<?xml version="1.0" encoding="UTF-8"?>
<svg height="600" width="800" xmlns="http://www.w3.org/2000/svg" xmlns:xlink="http://www.w3.org/1999/xlink">
    <g id="Notes" font-family="LucidaGrande, 'Lucida Grande', sans-serif" font-size="13">
        <rect fill="white" height="600.0" width="800.0" x="0.0" y="0.0" />
        <g font-size="13">
            <text x="18.0" y="176.0">Small</text>
            <text x="18.0" y="376.0">Medium</text>
            <text x="18.0" y="576.0">Large</text>
        </g>
        <g font-size="9">
            <text x="250.0" y="30.0">Ultralight</text>
            <text x="450.0" y="30.0">Regular</text>
            <text x="650.0" y="30.0">Black</text>
            <text id="template-version" fill="#505050" text-anchor="end" x="785.0" y="575.0">Template v.3.0</text>
            <a href="https://github.com/swhitty/SwiftDraw">
                <text fill="#505050" text-anchor="end" x="785.0" y="590.0">https://github.com/swhitty/SwiftDraw</text>
            </a>
        </g>
    </g>
    <g id="Guides" stroke="rgb(39, 170, 225)" stroke-width="0.5">
        <path id="Capline-S" d="M18,76 l800,0" />
        <path id="H-reference" d="M85,145.755 L87.685,145.755 L113.369,79.287 L114.052,79.287 L114.052,76 L112.148,76 L85,145.755 Z M95.693,121.536 L130.996,121.536 L130.263,119.313 L96.474,119.313 L95.693,121.536 Z M139.15,145.755 L141.787,145.755 L114.638,76 L113.466,76 L113.466,79.287 L139.15,145.755 Z" stroke="none" transform="translate(0,200)" />
        <path id="Baseline-S" d="M18,146 l800,0" />
        <path id="left-margin-Ultralight-M" d="M221,256 l0,110" />
        <path id="right-margin-Ultralight-M" d="M309,256 l0,110" />
        <path id="left-margin-Regular-M" d="M421,256 l0,110" />
        <path id="right-margin-Regular-M" d="M509,256 l0,110" />
        <path id="left-margin-Black-M" d="M621,256 l0,110" />
        <path id="right-margin-Black-M" d="M709,256 l0,110" />
        <path id="Capline-M" d="M18,276 l800,0" />
        <path id="Baseline-M" d="M18,346 l800,0" />
        <path id="Capline-L" d="M18,476 l800,0" />
        <path id="Baseline-L" d="M18,546 l800,0" />
    </g>
    <g id="Symbols">
        <g id="Ultralight-M" transform="translate(0,200)">
            <path d="M245.2,130.8 L252.68,130.8 C262.362,130.8 264.666,130.612 267.591,129.122 C270.489,127.645 272.845,125.289 274.321,122.392 C275.812,119.466 276,117.162 276,107.48 L276,93.4 C276,92.185 275.015,91.2 273.8,91.2 C272.585,91.2 271.6,92.185 271.6,93.4 L271.6,107.48 C271.6,116.278 271.429,118.377 270.401,120.394 C269.346,122.464 267.664,124.146 265.594,125.201 C263.577,126.229 261.478,126.4 252.68,126.4 L245.2,126.4 C243.985,126.4 243,127.385 243,128.6 C243,129.815 243.985,130.8 245.2,130.8 Z M272.244,91.844 L261.244,102.844 C260.385,103.704 260.385,105.096 261.244,105.956 C262.104,106.815 263.496,106.815 264.356,105.956 L275.356,94.956 C276.215,94.096 276.215,92.704 275.356,91.844 C274.496,90.985 273.104,90.985 272.244,91.844 Z M272.244,94.956 L283.244,105.956 C284.104,106.815 285.496,106.815 286.356,105.956 C287.215,105.096 287.215,103.704 286.356,102.844 L275.356,91.844 C274.496,90.985 273.104,90.985 272.244,91.844 C271.385,92.704 271.385,94.096 272.244,94.956 Z" />
        </g>
        <g id="Regular-M" transform="translate(0,200)">
            <path d="M445.2,130.8 L452.68,130.8 C462.362,130.8 464.666,130.612 467.591,129.122 C470.489,127.645 472.845,125.289 474.321,122.392 C475.812,119.466 476,117.162 476,107.48 L476,93.4 C476,92.185 475.015,91.2 473.8,91.2 C472.585,91.2 471.6,92.185 471.6,93.4 L471.6,107.48 C471.6,116.278 471.429,118.377 470.401,120.394 C469.346,122.464 467.664,124.146 465.594,125.201 C463.577,126.229 461.478,126.4 452.68,126.4 L445.2,126.4 C443.985,126.4 443,127.385 443,128.6 C443,129.815 443.985,130.8 445.2,130.8 Z M472.244,91.844 L461.244,102.844 C460.385,103.704 460.385,105.096 461.244,105.956 C462.104,106.815 463.496,106.815 464.356,105.956 L475.356,94.956 C476.215,94.096 476.215,92.704 475.356,91.844 C474.496,90.985 473.104,90.985 472.244,91.844 Z M472.244,94.956 L483.244,105.956 C484.104,106.815 485.496,106.815 486.356,105.956 C487.215,105.096 487.215,103.704 486.356,102.844 L475.356,91.844 C474.496,90.985 473.104,90.985 472.244,91.844 C471.385,92.704 471.385,94.096 472.244,94.956 Z" />
        </g>
        <g id="Black-M" transform="translate(0,200)">
            <path d="M645.2,130.8 L652.68,130.8 C662.362,130.8 664.666,130.612 667.591,129.122 C670.489,127.645 672.845,125.289 674.321,122.392 C675.812,119.466 676,117.162 676,107.48 L676,93.4 C676,92.185 675.015,91.2 673.8,91.2 C672.585,91.2 671.6,92.185 671.6,93.4 L671.6,107.48 C671.6,116.278 671.428,118.377 670.401,120.394 C669.346,122.464 667.664,124.146 665.594,125.201 C663.577,126.229 661.478,126.4 652.68,126.4 L645.2,126.4 C643.985,126.4 643,127.385 643,128.6 C643,129.815 643.985,130.8 645.2,130.8 Z M672.244,91.844 L661.244,102.844 C660.385,103.704 660.385,105.096 661.244,105.956 C662.104,106.815 663.496,106.815 664.356,105.956 L675.356,94.956 C676.215,94.096 676.215,92.704 675.356,91.844 C674.496,90.985 673.104,90.985 672.244,91.844 Z M672.244,94.956 L683.244,105.956 C684.104,106.815 685.496,106.815 686.356,105.956 C687.215,105.096 687.215,103.704 686.356,102.844 L675.356,91.844 C674.496,90.985 673.104,90.985 672.244,91.844 C671.385,92.704 671.385,94.096 672.244,94.956 Z" />
        </g>
    </g>
</svg>