<?xml version="1.0" encoding="UTF-8"?>
<svg height="600" width="800" xmlns="http://www.w3.org/2000/svg" xmlns:xlink="http://www.w3.org/1999/xlink">
    <g id="Notes" font-family="LucidaGrande, 'Lucida Grande', sans-serif" font-size="13">
        <rect fill="white" height="600.0" width="800.0" x="0.0" y="0.0" />
        <g font-size="13">
            <text x="18.0" y="176.0">Small</text>
            <text x="18.0" y="376.0">Medium</text>
            <text x="18.0" y="576.0">Large</text>
        </g>
        <g font-size="9">
            <text x="250.0" y="30.0">Ultralight</text>
            <text x="450.0" y="30.0">Regular</text>
            <text x="650.0" y="30.0">Black</text>
            <text id="template-version" fill="#505050" text-anchor="end" x="785.0" y="575.0">Template v.3.0</text>
            <a href="https://github.com/swhitty/SwiftDraw">
                <text fill="#505050" text-anchor="end" x="785.0" y="590.0">https://github.com/swhitty/SwiftDraw</text>
            </a>
        </g>
    </g>
    <g id="Guides" stroke="rgb(39, 170, 225)" stroke-width="0.5">
        <path id="Capline-S" d="M18,76 l800,0" />
        <path id="H-reference" d="M85,145.755 L87.685,145.755 L113.369,79.287 L114.052,79.287 L114.052,76 L112.148,76 L85,145.755 Z M95.693,121.536 L130.996,121.536 L130.263,119.313 L96.474,119.313 L95.693,121.536 Z M139.15,145.755 L141.787,145.755 L114.638,76 L113.466,76 L113.466,79.287 L139.15,145.755 Z" stroke="none" transform="translate(0,200)" />
        <path id="Baseline-S" d="M18,146 l800,0" />
        <path id="left-margin-Ultralight-M" d="M221,256 l0,110" />
        <path id="right-margin-Ultralight-M" d="M309,256 l0,110" />
        <path id="left-margin-Regular-M" d="M421,256 l0,110" />
        <path id="right-margin-Regular-M" d="M509,256 l0,110" />
        <path id="left-margin-Black-M" d="M621,256 l0,110" />
        <path id="right-margin-Black-M" d="M709,256 l0,110" />
        <path id="Capline-M" d="M18,276 l800,0" />
        <path id="Baseline-M" d="M18,346 l800,0" />
        <path id="Capline-L" d="M18,476 l800,0" />
        <path id="Baseline-L" d="M18,546 l800,0" />
    </g>
    <g id="Symbols">
        <g id="Ultralight-M" transform="translate(0,200)">
            <path d="M244.158,92.474 L244.158,95.716 C244.158,105.907 244.356,108.332 245.925,111.412 C247.479,114.462 249.959,116.942 253.009,118.496 C256.089,120.065 258.514,120.263 268.705,120.263 L283.526,120.263 C284.805,120.263 285.842,119.226 285.842,117.947 C285.842,116.668 284.805,115.632 283.526,115.632 L268.705,115.632 C259.444,115.632 257.235,115.451 255.111,114.369 C252.933,113.259 251.162,111.488 250.052,109.309 C248.97,107.186 248.789,104.977 248.789,95.716 L248.789,92.474 C248.789,91.195 247.753,90.158 246.474,90.158 C245.195,90.158 244.158,91.195 244.158,92.474 Z M285.164,116.31 L273.585,104.731 C272.681,103.827 271.214,103.827 270.31,104.731 C269.405,105.635 269.405,107.102 270.31,108.006 L281.889,119.585 C282.793,120.489 284.259,120.489 285.164,119.585 C286.068,118.681 286.068,117.214 285.164,116.31 Z M281.889,116.31 L270.31,127.889 C269.405,128.793 269.405,130.259 270.31,131.164 C271.214,132.068 272.681,132.068 273.585,131.164 L285.164,119.585 C286.068,118.681 286.068,117.214 285.164,116.31 C284.259,115.405 282.793,115.405 281.889,116.31 Z" />
        </g>
        <g id="Regular-M" transform="translate(0,200)">
            <path d="M444.158,92.474 L444.158,95.716 C444.158,105.907 444.356,108.332 445.925,111.412 C447.479,114.462 449.959,116.942 453.009,118.496 C456.089,120.065 458.514,120.263 468.705,120.263 L483.526,120.263 C484.805,120.263 485.842,119.226 485.842,117.947 C485.842,116.668 484.805,115.632 483.526,115.632 L468.705,115.632 C459.444,115.632 457.235,115.451 455.111,114.369 C452.933,113.259 451.162,111.488 450.052,109.309 C448.97,107.186 448.789,104.977 448.789,95.716 L448.789,92.474 C448.789,91.195 447.753,90.158 446.474,90.158 C445.195,90.158 444.158,91.195 444.158,92.474 Z M485.164,116.31 L473.585,104.731 C472.68,103.827 471.214,103.827 470.31,104.731 C469.405,105.635 469.405,107.102 470.31,108.006 L481.889,119.585 C482.793,120.489 484.259,120.489 485.164,119.585 C486.068,118.681 486.068,117.214 485.164,116.31 Z M481.889,116.31 L470.31,127.889 C469.405,128.793 469.405,130.259 470.31,131.164 C471.214,132.068 472.68,132.068 473.585,131.164 L485.164,119.585 C486.068,118.681 486.068,117.214 485.164,116.31 C484.259,115.405 482.793,115.405 481.889,116.31 Z" />
        </g>
        <g id="Black-M" transform="translate(0,200)">
            <path d="M644.158,92.474 L644.158,95.716 C644.158,105.907 644.356,108.332 645.925,111.412 C647.479,114.462 649.959,116.942 653.009,118.496 C656.089,120.065 658.514,120.263 668.705,120.263 L683.526,120.263 C684.805,120.263 685.842,119.226 685.842,117.947 C685.842,116.668 684.805,115.632 683.526,115.632 L668.705,115.632 C659.444,115.632 657.235,115.451 655.111,114.369 C652.933,113.259 651.162,111.488 650.052,109.309 C648.97,107.186 648.789,104.977 648.789,95.716 L648.789,92.474 C648.789,91.195 647.753,90.158 646.474,90.158 C645.195,90.158 644.158,91.195 644.158,92.474 Z M685.164,116.31 L673.585,104.731 C672.68,103.827 671.214,103.827 670.31,104.731 C669.405,105.635 669.405,107.102 670.31,108.006 L681.889,119.585 C682.793,120.489 684.259,120.489 685.164,119.585 C686.068,118.681 686.068,117.214 685.164,116.31 Z M681.889,116.31 L670.31,127.889 C669.405,128.793 669.405,130.259 670.31,131.164 C671.214,132.068 672.68,132.068 673.585,131.164 L685.164,119.585 C686.068,118.681 686.068,117.214 685.164,116.31 C684.259,115.405 682.793,115.405 681.889,116.31 Z" />
        </g>
    </g>
</svg>