<?xml version="1.0" encoding="UTF-8"?>
<svg height="600" width="800" xmlns="http://www.w3.org/2000/svg" xmlns:xlink="http://www.w3.org/1999/xlink">
    <g id="Notes" font-family="LucidaGrande, 'Lucida Grande', sans-serif" font-size="13">
        <rect fill="white" height="600.0" width="800.0" x="0.0" y="0.0" />
        <g font-size="13">
            <text x="18.0" y="176.0">Small</text>
            <text x="18.0" y="376.0">Medium</text>
            <text x="18.0" y="576.0">Large</text>
        </g>
        <g font-size="9">
            <text x="250.0" y="30.0">Ultralight</text>
            <text x="450.0" y="30.0">Regular</text>
            <text x="650.0" y="30.0">Black</text>
            <text id="template-version" fill="#505050" text-anchor="end" x="785.0" y="575.0">Template v.3.0</text>
            <a href="https://github.com/swhitty/SwiftDraw">
                <text fill="#505050" text-anchor="end" x="785.0" y="590.0">https://github.com/swhitty/SwiftDraw</text>
            </a>
        </g>
    </g>
    <g id="Guides" stroke="rgb(39, 170, 225)" stroke-width="0.5">
        <path id="Capline-S" d="M18,76 l800,0" />
        <path id="H-reference" d="M85,145.755 L87.685,145.755 L113.369,79.287 L114.052,79.287 L114.052,76 L112.148,76 L85,145.755 Z M95.693,121.536 L130.996,121.536 L130.263,119.313 L96.474,119.313 L95.693,121.536 Z M139.15,145.755 L141.787,145.755 L114.638,76 L113.466,76 L113.466,79.287 L139.15,145.755 Z" stroke="none" transform="translate(0,200)" />
        <path id="Baseline-S" d="M18,146 l800,0" />
        <path id="left-margin-Ultralight-M" d="M222.222,256 l0,110" />
        <path id="right-margin-Ultralight-M" d="M307.778,256 l0,110" />
        <path id="left-margin-Regular-M" d="M422.222,256 l0,110" />
        <path id="right-margin-Regular-M" d="M507.778,256 l0,110" />
        <path id="left-margin-Black-M" d="M622.222,256 l0,110" />
        <path id="right-margin-Black-M" d="M707.778,256 l0,110" />
        <path id="Capline-M" d="M18,276 l800,0" />
        <path id="Baseline-M" d="M18,346 l800,0" />
        <path id="Capline-L" d="M18,476 l800,0" />
        <path id="Baseline-L" d="M18,546 l800,0" />
    </g>
    <g id="Symbols">
        <g id="Ultralight-M" transform="translate(0,200)">
            <path d="M303.889,95.444 L226.111,95.444 C223.963,95.444 222.222,97.186 222.222,99.333 C222.222,101.481 223.963,103.222 226.111,103.222 L303.889,103.222 C306.037,103.222 307.778,101.481 307.778,99.333 C307.778,97.186 306.037,95.444 303.889,95.444 Z M307.778,103.222 L307.778,92.333 C307.778,86.108 307.657,84.63 306.506,82.371 C305.388,80.175 303.603,78.39 301.408,77.272 C299.148,76.121 297.67,76 291.444,76 L238.556,76 C232.33,76 230.852,76.121 228.593,77.271 C226.397,78.39 224.612,80.175 223.494,82.37 C222.343,84.63 222.222,86.108 222.222,92.333 L222.222,121.889 C222.222,128.115 222.343,129.593 223.494,131.852 C224.612,134.047 226.397,135.832 228.592,136.951 C230.852,138.101 232.33,138.222 238.556,138.222 L263.056,138.222 C265.203,138.222 266.944,136.481 266.944,134.333 C266.944,132.186 265.203,130.444 263.056,130.444 L238.556,130.444 C233.893,130.444 232.777,130.353 232.123,130.02 C231.392,129.648 230.797,129.053 230.424,128.321 C230.091,127.668 230,126.552 230,121.889 L230,92.333 C230,87.67 230.091,86.554 230.424,85.901 C230.797,85.169 231.392,84.575 232.123,84.202 C232.777,83.869 233.893,83.778 238.556,83.778 L291.444,83.778 C296.108,83.778 297.223,83.869 297.877,84.202 C298.608,84.575 299.203,85.169 299.576,85.901 C299.909,86.554 300,87.67 300,92.333 L300,103.222 C300,105.37 301.741,107.111 303.889,107.111 C306.037,107.111 307.778,105.37 307.778,103.222 Z M290.007,145.622 C291.733,144.799 294.181,143.34 296.658,141.274 C301.102,137.567 303.889,133.249 303.889,128.208 L303.889,118.478 C303.889,116.835 302.856,115.369 301.309,114.816 L292.8,111.775 C289.911,110.74 286.748,110.74 283.856,111.776 L275.357,114.817 C273.81,115.37 272.778,116.836 272.778,118.478 L272.778,128.208 C272.778,133.249 275.565,137.567 280.009,141.274 C282.486,143.34 284.933,144.799 286.66,145.622 C287.719,146.126 288.948,146.126 290.007,145.622 Z M286.66,138.601 L290.007,138.601 C289.745,138.476 289.211,138.194 288.501,137.771 C287.299,137.055 286.097,136.224 284.991,135.302 C282.143,132.926 280.556,130.466 280.556,128.208 L280.556,118.478 L277.977,122.14 L286.478,119.099 C287.676,118.67 288.983,118.67 290.179,119.098 L298.691,122.14 L296.111,118.478 L296.111,128.208 C296.111,130.466 294.523,132.926 291.676,135.302 C290.57,136.224 289.368,137.055 288.166,137.771 C287.455,138.194 286.922,138.476 286.66,138.601 Z" />
        </g>
        <g id="Regular-M" transform="translate(0,200)">
            <path d="M503.889,95.444 L426.111,95.444 C423.963,95.444 422.222,97.186 422.222,99.333 C422.222,101.481 423.963,103.222 426.111,103.222 L503.889,103.222 C506.037,103.222 507.778,101.481 507.778,99.333 C507.778,97.186 506.037,95.444 503.889,95.444 Z M507.778,103.222 L507.778,92.333 C507.778,86.108 507.657,84.63 506.506,82.371 C505.388,80.175 503.603,78.39 501.408,77.272 C499.148,76.121 497.67,76 491.444,76 L438.556,76 C432.33,76 430.852,76.121 428.593,77.271 C426.397,78.39 424.612,80.175 423.494,82.37 C422.343,84.63 422.222,86.108 422.222,92.333 L422.222,121.889 C422.222,128.115 422.343,129.593 423.494,131.852 C424.612,134.047 426.397,135.832 428.592,136.951 C430.852,138.101 432.33,138.222 438.556,138.222 L463.056,138.222 C465.203,138.222 466.944,136.481 466.944,134.333 C466.944,132.186 465.203,130.444 463.056,130.444 L438.556,130.444 C433.892,130.444 432.777,130.353 432.123,130.02 C431.392,129.648 430.797,129.053 430.424,128.321 C430.091,127.668 430,126.552 430,121.889 L430,92.333 C430,87.67 430.091,86.554 430.424,85.901 C430.797,85.169 431.392,84.575 432.123,84.202 C432.777,83.869 433.892,83.778 438.556,83.778 L491.444,83.778 C496.108,83.778 497.223,83.869 497.877,84.202 C498.608,84.575 499.203,85.169 499.576,85.901 C499.909,86.554 500,87.67 500,92.333 L500,103.222 C500,105.37 501.741,107.111 503.889,107.111 C506.037,107.111 507.778,105.37 507.778,103.222 Z M490.007,145.622 C491.733,144.799 494.181,143.34 496.658,141.274 C501.102,137.567 503.889,133.249 503.889,128.208 L503.889,118.478 C503.889,116.835 502.856,115.369 501.309,114.816 L492.8,111.775 C489.911,110.74 486.748,110.74 483.856,111.776 L475.357,114.817 C473.81,115.37 472.778,116.836 472.778,118.478 L472.778,128.208 C472.778,133.249 475.565,137.567 480.009,141.274 C482.486,143.34 484.933,144.799 486.66,145.622 C487.719,146.126 488.948,146.126 490.007,145.622 Z M486.66,138.601 L490.007,138.601 C489.745,138.476 489.211,138.194 488.501,137.771 C487.299,137.055 486.097,136.224 484.991,135.302 C482.143,132.926 480.556,130.466 480.556,128.208 L480.556,118.478 L477.977,122.14 L486.478,119.099 C487.676,118.67 488.983,118.67 490.179,119.098 L498.691,122.14 L496.111,118.478 L496.111,128.208 C496.111,130.466 494.523,132.926 491.676,135.302 C490.57,136.224 489.368,137.055 488.166,137.771 C487.455,138.194 486.922,138.476 486.66,138.601 Z" />
        </g>
        <g id="Black-M" transform="translate(0,200)">
            <path d="M703.889,95.444 L626.111,95.444 C623.963,95.444 622.222,97.186 622.222,99.333 C622.222,101.481 623.963,103.222 626.111,103.222 L703.889,103.222 C706.037,103.222 707.778,101.481 707.778,99.333 C707.778,97.186 706.037,95.444 703.889,95.444 Z M707.778,103.222 L707.778,92.333 C707.778,86.108 707.657,84.63 706.506,82.371 C705.388,80.175 703.603,78.39 701.408,77.272 C699.148,76.121 697.67,76 691.444,76 L638.556,76 C632.33,76 630.852,76.121 628.593,77.271 C626.397,78.39 624.612,80.175 623.494,82.37 C622.343,84.63 622.222,86.108 622.222,92.333 L622.222,121.889 C622.222,128.115 622.343,129.593 623.494,131.852 C624.612,134.047 626.397,135.832 628.592,136.951 C630.852,138.101 632.33,138.222 638.556,138.222 L663.056,138.222 C665.203,138.222 666.944,136.481 666.944,134.333 C666.944,132.186 665.203,130.444 663.056,130.444 L638.556,130.444 C633.893,130.444 632.777,130.353 632.123,130.02 C631.392,129.648 630.797,129.053 630.424,128.321 C630.091,127.668 630,126.552 630,121.889 L630,92.333 C630,87.67 630.091,86.554 630.424,85.901 C630.797,85.169 631.392,84.575 632.123,84.202 C632.777,83.869 633.893,83.778 638.556,83.778 L691.444,83.778 C696.108,83.778 697.223,83.869 697.877,84.202 C698.608,84.575 699.203,85.169 699.576,85.901 C699.909,86.554 700,87.67 700,92.333 L700,103.222 C700,105.37 701.741,107.111 703.889,107.111 C706.037,107.111 707.778,105.37 707.778,103.222 Z M690.007,145.622 C691.733,144.799 694.181,143.34 696.658,141.274 C701.102,137.567 703.889,133.249 703.889,128.208 L703.889,118.478 C703.889,116.835 702.856,115.369 701.309,114.816 L692.8,111.775 C689.911,110.74 686.748,110.74 683.856,111.776 L675.357,114.817 C673.81,115.37 672.778,116.836 672.778,118.478 L672.778,128.208 C672.778,133.249 675.565,137.567 680.009,141.274 C682.486,143.34 684.933,144.799 686.66,145.622 C687.719,146.126 688.948,146.126 690.007,145.622 Z M686.66,138.601 L690.007,138.601 C689.745,138.476 689.211,138.194 688.501,137.771 C687.299,137.055 686.097,136.224 684.991,135.302 C682.143,132.926 680.556,130.466 680.556,128.208 L680.556,118.478 L677.977,122.14 L686.478,119.099 C687.676,118.67 688.983,118.67 690.179,119.098 L698.691,122.14 L696.111,118.478 L696.111,128.208 C696.111,130.466 694.523,132.926 691.676,135.302 C690.57,136.224 689.368,137.055 688.166,137.771 C687.455,138.194 686.922,138.476 686.66,138.601 Z" />
        </g>
    </g>
</svg>