<?xml version="1.0" encoding="UTF-8"?>
<svg height="600" width="800" xmlns="http://www.w3.org/2000/svg" xmlns:xlink="http://www.w3.org/1999/xlink">
    <g id="Notes" font-family="LucidaGrande, 'Lucida Grande', sans-serif" font-size="13">
        <rect fill="white" height="600.0" width="800.0" x="0.0" y="0.0" />
        <g font-size="13">
            <text x="18.0" y="176.0">Small</text>
            <text x="18.0" y="376.0">Medium</text>
            <text x="18.0" y="576.0">Large</text>
        </g>
        <g font-size="9">
            <text x="250.0" y="30.0">Ultralight</text>
            <text x="450.0" y="30.0">Regular</text>
            <text x="650.0" y="30.0">Black</text>
            <text id="template-version" fill="#505050" text-anchor="end" x="785.0" y="575.0">Template v.3.0</text>
            <a href="https://github.com/swhitty/SwiftDraw">
                <text fill="#505050" text-anchor="end" x="785.0" y="590.0">https://github.com/swhitty/SwiftDraw</text>
            </a>
        </g>
    </g>
    <g id="Guides" stroke="rgb(39, 170, 225)" stroke-width="0.5">
        <path id="Capline-S" d="M18,76 l800,0" />
        <path id="H-reference" d="M85,145.755 L87.685,145.755 L113.369,79.287 L114.052,79.287 L114.052,76 L112.148,76 L85,145.755 Z M95.693,121.536 L130.996,121.536 L130.263,119.313 L96.474,119.313 L95.693,121.536 Z M139.15,145.755 L141.787,145.755 L114.638,76 L113.466,76 L113.466,79.287 L139.15,145.755 Z" stroke="none" transform="translate(0,200)" />
        <path id="Baseline-S" d="M18,146 l800,0" />
        <path id="left-margin-Ultralight-M" d="M221,256 l0,110" />
        <path id="right-margin-Ultralight-M" d="M309,256 l0,110" />
        <path id="left-margin-Regular-M" d="M421,256 l0,110" />
        <path id="right-margin-Regular-M" d="M509,256 l0,110" />
        <path id="left-margin-Black-M" d="M621,256 l0,110" />
        <path id="right-margin-Black-M" d="M709,256 l0,110" />
        <path id="Capline-M" d="M18,276 l800,0" />
        <path id="Baseline-M" d="M18,346 l800,0" />
        <path id="Capline-L" d="M18,476 l800,0" />
        <path id="Baseline-L" d="M18,546 l800,0" />
    </g>
    <g id="Symbols">
        <g id="Ultralight-M" transform="translate(0,200)">
            <path d="M285.952,102.619 L244.048,102.619 C242.89,102.619 241.952,103.557 241.952,104.714 C241.952,105.871 242.89,106.81 244.048,106.81 L285.952,106.81 C287.11,106.81 288.048,105.871 288.048,104.714 C288.048,103.557 287.11,102.619 285.952,102.619 Z M288.048,106.81 L288.048,100.943 C288.048,97.589 287.983,96.792 287.363,95.575 C286.76,94.392 285.798,93.431 284.616,92.828 C283.398,92.208 282.602,92.143 279.248,92.143 L250.752,92.143 C247.398,92.143 246.602,92.208 245.385,92.828 C244.202,93.431 243.24,94.392 242.638,95.575 C242.017,96.792 241.952,97.589 241.952,100.943 L241.952,116.867 C241.952,120.221 242.017,121.017 242.637,122.234 C243.24,123.417 244.202,124.379 245.384,124.982 C246.602,125.602 247.398,125.667 250.752,125.667 L263.952,125.667 C265.11,125.667 266.048,124.729 266.048,123.571 C266.048,122.414 265.11,121.476 263.952,121.476 L250.752,121.476 C248.24,121.476 247.639,121.427 247.287,121.248 C246.893,121.047 246.572,120.726 246.371,120.332 C246.192,119.98 246.143,119.379 246.143,116.867 L246.143,100.943 C246.143,98.431 246.192,97.829 246.371,97.477 C246.572,97.083 246.893,96.763 247.287,96.562 C247.639,96.382 248.24,96.333 250.752,96.333 L279.248,96.333 C281.76,96.333 282.361,96.382 282.713,96.562 C283.107,96.763 283.428,97.083 283.629,97.477 C283.808,97.829 283.857,98.431 283.857,100.943 L283.857,106.81 C283.857,107.967 284.795,108.905 285.952,108.905 C287.11,108.905 288.048,107.967 288.048,106.81 Z M278.473,129.653 C279.403,129.21 280.722,128.424 282.056,127.311 C284.451,125.314 285.952,122.987 285.952,120.271 L285.952,115.029 C285.952,114.144 285.396,113.354 284.562,113.056 L279.978,111.418 C278.421,110.86 276.717,110.86 275.159,111.418 L270.58,113.056 C269.747,113.354 269.19,114.144 269.19,115.029 L269.19,120.271 C269.19,122.987 270.692,125.314 273.086,127.311 C274.421,128.424 275.74,129.21 276.67,129.653 C277.24,129.925 277.903,129.925 278.473,129.653 Z M276.67,125.871 L278.473,125.871 C278.332,125.803 278.045,125.652 277.662,125.424 C277.014,125.038 276.367,124.59 275.771,124.093 C274.236,122.813 273.381,121.488 273.381,120.271 L273.381,115.029 L271.991,117.002 L276.572,115.363 C277.217,115.132 277.922,115.132 278.566,115.363 L283.152,117.002 L281.762,115.029 L281.762,120.271 C281.762,121.488 280.907,122.813 279.372,124.093 C278.776,124.59 278.129,125.038 277.481,125.424 C277.098,125.652 276.811,125.803 276.67,125.871 Z" />
        </g>
        <g id="Regular-M" transform="translate(0,200)">
            <path d="M485.952,102.619 L444.048,102.619 C442.89,102.619 441.952,103.557 441.952,104.714 C441.952,105.871 442.89,106.81 444.048,106.81 L485.952,106.81 C487.11,106.81 488.048,105.871 488.048,104.714 C488.048,103.557 487.11,102.619 485.952,102.619 Z M488.048,106.81 L488.048,100.943 C488.048,97.589 487.983,96.792 487.363,95.575 C486.76,94.392 485.798,93.431 484.616,92.828 C483.398,92.208 482.602,92.143 479.248,92.143 L450.752,92.143 C447.398,92.143 446.602,92.208 445.385,92.828 C444.202,93.431 443.24,94.392 442.638,95.575 C442.017,96.792 441.952,97.589 441.952,100.943 L441.952,116.867 C441.952,120.221 442.017,121.017 442.637,122.234 C443.24,123.417 444.202,124.379 445.384,124.982 C446.602,125.602 447.398,125.667 450.752,125.667 L463.952,125.667 C465.11,125.667 466.048,124.729 466.048,123.571 C466.048,122.414 465.11,121.476 463.952,121.476 L450.752,121.476 C448.24,121.476 447.639,121.427 447.287,121.248 C446.893,121.047 446.572,120.726 446.371,120.332 C446.192,119.98 446.143,119.379 446.143,116.867 L446.143,100.943 C446.143,98.431 446.192,97.829 446.371,97.477 C446.572,97.083 446.893,96.763 447.287,96.562 C447.639,96.382 448.24,96.333 450.752,96.333 L479.248,96.333 C481.76,96.333 482.361,96.382 482.713,96.562 C483.107,96.763 483.428,97.083 483.629,97.477 C483.808,97.829 483.857,98.431 483.857,100.943 L483.857,106.81 C483.857,107.967 484.795,108.905 485.952,108.905 C487.11,108.905 488.048,107.967 488.048,106.81 Z M478.473,129.653 C479.403,129.21 480.722,128.424 482.056,127.311 C484.451,125.314 485.952,122.987 485.952,120.271 L485.952,115.029 C485.952,114.144 485.396,113.354 484.562,113.056 L479.978,111.418 C478.421,110.86 476.717,110.86 475.159,111.418 L470.58,113.056 C469.747,113.354 469.19,114.144 469.19,115.029 L469.19,120.271 C469.19,122.987 470.692,125.314 473.086,127.311 C474.421,128.424 475.74,129.21 476.67,129.653 C477.24,129.925 477.903,129.925 478.473,129.653 Z M476.67,125.871 L478.473,125.871 C478.332,125.803 478.045,125.652 477.662,125.424 C477.014,125.038 476.367,124.59 475.771,124.093 C474.236,122.813 473.381,121.488 473.381,120.271 L473.381,115.029 L471.991,117.002 L476.572,115.363 C477.217,115.132 477.922,115.132 478.566,115.363 L483.152,117.002 L481.762,115.029 L481.762,120.271 C481.762,121.488 480.907,122.813 479.372,124.093 C478.776,124.59 478.129,125.038 477.481,125.424 C477.098,125.652 476.811,125.803 476.67,125.871 Z" />
        </g>
        <g id="Black-M" transform="translate(0,200)">
            <path d="M685.952,102.619 L644.048,102.619 C642.89,102.619 641.952,103.557 641.952,104.714 C641.952,105.871 642.89,106.81 644.048,106.81 L685.952,106.81 C687.109,106.81 688.048,105.871 688.048,104.714 C688.048,103.557 687.109,102.619 685.952,102.619 Z M688.048,106.81 L688.048,100.943 C688.048,97.589 687.983,96.792 687.363,95.575 C686.76,94.392 685.798,93.431 684.616,92.828 C683.398,92.208 682.602,92.143 679.248,92.143 L650.752,92.143 C647.398,92.143 646.602,92.208 645.385,92.828 C644.202,93.431 643.24,94.392 642.638,95.575 C642.017,96.792 641.952,97.589 641.952,100.943 L641.952,116.867 C641.952,120.221 642.017,121.017 642.637,122.234 C643.24,123.417 644.202,124.379 645.384,124.982 C646.602,125.602 647.398,125.667 650.752,125.667 L663.952,125.667 C665.109,125.667 666.048,124.729 666.048,123.571 C666.048,122.414 665.109,121.476 663.952,121.476 L650.752,121.476 C648.24,121.476 647.639,121.427 647.287,121.248 C646.893,121.047 646.572,120.726 646.371,120.332 C646.192,119.98 646.143,119.379 646.143,116.867 L646.143,100.943 C646.143,98.431 646.192,97.829 646.371,97.477 C646.572,97.083 646.893,96.763 647.287,96.562 C647.639,96.382 648.24,96.333 650.752,96.333 L679.248,96.333 C681.76,96.333 682.361,96.382 682.713,96.562 C683.107,96.763 683.428,97.083 683.629,97.477 C683.808,97.829 683.857,98.431 683.857,100.943 L683.857,106.81 C683.857,107.967 684.795,108.905 685.952,108.905 C687.109,108.905 688.048,107.967 688.048,106.81 Z M678.473,129.653 C679.403,129.21 680.722,128.424 682.056,127.311 C684.451,125.314 685.952,122.987 685.952,120.271 L685.952,115.029 C685.952,114.144 685.396,113.354 684.562,113.056 L679.978,111.418 C678.421,110.86 676.717,110.86 675.159,111.418 L670.58,113.056 C669.747,113.354 669.19,114.144 669.19,115.029 L669.19,120.271 C669.19,122.987 670.692,125.314 673.086,127.311 C674.421,128.424 675.74,129.21 676.67,129.653 C677.24,129.925 677.903,129.925 678.473,129.653 Z M676.67,125.871 L678.473,125.871 C678.332,125.803 678.044,125.652 677.662,125.424 C677.014,125.038 676.366,124.59 675.771,124.093 C674.236,122.813 673.381,121.488 673.381,120.271 L673.381,115.029 L671.991,117.002 L676.572,115.363 C677.217,115.132 677.922,115.132 678.566,115.363 L683.152,117.002 L681.762,115.029 L681.762,120.271 C681.762,121.488 680.906,122.813 679.372,124.093 C678.776,124.59 678.129,125.038 677.481,125.424 C677.098,125.652 676.811,125.803 676.67,125.871 Z" />
        </g>
    </g>
</svg>