<?xml version="1.0" encoding="UTF-8"?>
<svg height="600" width="800" xmlns="http://www.w3.org/2000/svg" xmlns:xlink="http://www.w3.org/1999/xlink">
    <g id="Notes" font-family="LucidaGrande, 'Lucida Grande', sans-serif" font-size="13">
        <rect fill="white" height="600.0" width="800.0" x="0.0" y="0.0" />
        <g font-size="13">
            <text x="18.0" y="176.0">Small</text>
            <text x="18.0" y="376.0">Medium</text>
            <text x="18.0" y="576.0">Large</text>
        </g>
        <g font-size="9">
            <text x="250.0" y="30.0">Ultralight</text>
            <text x="450.0" y="30.0">Regular</text>
            <text x="650.0" y="30.0">Black</text>
            <text id="template-version" fill="#505050" text-anchor="end" x="785.0" y="575.0">Template v.3.0</text>
            <a href="https://github.com/swhitty/SwiftDraw">
                <text fill="#505050" text-anchor="end" x="785.0" y="590.0">https://github.com/swhitty/SwiftDraw</text>
            </a>
        </g>
    </g>
    <g id="Guides" stroke="rgb(39, 170, 225)" stroke-width="0.5">
        <path id="Capline-S" d="M18,76 l800,0" />
        <path id="H-reference" d="M85,145.755 L87.685,145.755 L113.369,79.287 L114.052,79.287 L114.052,76 L112.148,76 L85,145.755 Z M95.693,121.536 L130.996,121.536 L130.263,119.313 L96.474,119.313 L95.693,121.536 Z M139.15,145.755 L141.787,145.755 L114.638,76 L113.466,76 L113.466,79.287 L139.15,145.755 Z" stroke="none" transform="translate(0,200)" />
        <path id="Baseline-S" d="M18,146 l800,0" />
        <path id="left-margin-Ultralight-M" d="M221,256 l0,110" />
        <path id="right-margin-Ultralight-M" d="M309,256 l0,110" />
        <path id="left-margin-Regular-M" d="M421,256 l0,110" />
        <path id="right-margin-Regular-M" d="M509,256 l0,110" />
        <path id="left-margin-Black-M" d="M621,256 l0,110" />
        <path id="right-margin-Black-M" d="M709,256 l0,110" />
        <path id="Capline-M" d="M18,276 l800,0" />
        <path id="Baseline-M" d="M18,346 l800,0" />
        <path id="Capline-L" d="M18,476 l800,0" />
        <path id="Baseline-L" d="M18,546 l800,0" />
    </g>
    <g id="Symbols">
        <g id="Ultralight-M" transform="translate(0,200)">
            <path d="M305,99 L225,99 C222.791,99 221,100.791 221,103 C221,105.209 222.791,107 225,107 L305,107 C307.209,107 309,105.209 309,103 C309,100.791 307.209,99 305,99 Z M261,115 L241,115 C238.791,115 237,116.791 237,119 C237,121.209 238.791,123 241,123 L261,123 C263.209,123 265,121.209 265,119 C265,116.791 263.209,115 261,115 Z M221,95.8 L221,126.2 C221,132.604 221.124,134.124 222.308,136.447 C223.458,138.706 225.294,140.542 227.552,141.692 C229.876,142.876 231.396,143 237.8,143 L292.2,143 C298.604,143 300.124,142.876 302.447,141.692 C304.706,140.542 306.542,138.706 307.692,136.448 C308.876,134.124 309,132.604 309,126.2 L309,95.8 C309,89.396 308.876,87.876 307.692,85.553 C306.542,83.294 304.706,81.458 302.448,80.308 C300.124,79.124 298.604,79 292.2,79 L237.8,79 C231.396,79 229.876,79.124 227.553,80.308 C225.294,81.458 223.458,83.294 222.308,85.552 C221.124,87.876 221,89.396 221,95.8 Z M229,95.8 C229,91.004 229.094,89.856 229.436,89.183 C229.819,88.431 230.431,87.819 231.184,87.436 C231.856,87.094 233.004,87 237.8,87 L292.2,87 C296.996,87 298.144,87.094 298.817,87.436 C299.569,87.819 300.181,88.431 300.564,89.184 C300.906,89.856 301,91.004 301,95.8 L301,126.2 C301,130.996 300.906,132.144 300.564,132.817 C300.18,133.569 299.569,134.181 298.816,134.564 C298.144,134.906 296.996,135 292.2,135 L237.8,135 C233.004,135 231.856,134.906 231.183,134.564 C230.431,134.181 229.819,133.569 229.436,132.816 C229.094,132.144 229,130.996 229,126.2 L229,95.8 Z" />
        </g>
        <g id="Regular-M" transform="translate(0,200)">
            <path d="M505,99 L425,99 C422.791,99 421,100.791 421,103 C421,105.209 422.791,107 425,107 L505,107 C507.209,107 509,105.209 509,103 C509,100.791 507.209,99 505,99 Z M461,115 L441,115 C438.791,115 437,116.791 437,119 C437,121.209 438.791,123 441,123 L461,123 C463.209,123 465,121.209 465,119 C465,116.791 463.209,115 461,115 Z M421,95.8 L421,126.2 C421,132.604 421.124,134.124 422.308,136.447 C423.458,138.706 425.294,140.542 427.552,141.692 C429.876,142.876 431.396,143 437.8,143 L492.2,143 C498.604,143 500.124,142.876 502.447,141.692 C504.706,140.542 506.542,138.706 507.692,136.448 C508.876,134.124 509,132.604 509,126.2 L509,95.8 C509,89.396 508.876,87.876 507.692,85.553 C506.542,83.294 504.706,81.458 502.448,80.308 C500.124,79.124 498.604,79 492.2,79 L437.8,79 C431.396,79 429.876,79.124 427.553,80.308 C425.294,81.458 423.458,83.294 422.308,85.552 C421.124,87.876 421,89.396 421,95.8 Z M429,95.8 C429,91.004 429.094,89.856 429.436,89.183 C429.819,88.431 430.431,87.819 431.184,87.436 C431.856,87.094 433.004,87 437.8,87 L492.2,87 C496.996,87 498.144,87.094 498.817,87.436 C499.569,87.819 500.181,88.431 500.564,89.184 C500.906,89.856 501,91.004 501,95.8 L501,126.2 C501,130.996 500.906,132.144 500.564,132.817 C500.18,133.569 499.569,134.181 498.816,134.564 C498.144,134.906 496.996,135 492.2,135 L437.8,135 C433.004,135 431.856,134.906 431.183,134.564 C430.431,134.181 429.819,133.569 429.436,132.816 C429.094,132.144 429,130.996 429,126.2 L429,95.8 Z" />
        </g>
        <g id="Black-M" transform="translate(0,200)">
            <path d="M705,99 L625,99 C622.791,99 621,100.791 621,103 C621,105.209 622.791,107 625,107 L705,107 C707.209,107 709,105.209 709,103 C709,100.791 707.209,99 705,99 Z M661,115 L641,115 C638.791,115 637,116.791 637,119 C637,121.209 638.791,123 641,123 L661,123 C663.209,123 665,121.209 665,119 C665,116.791 663.209,115 661,115 Z M621,95.8 L621,126.2 C621,132.604 621.124,134.124 622.308,136.447 C623.458,138.706 625.294,140.542 627.552,141.692 C629.876,142.876 631.396,143 637.8,143 L692.2,143 C698.604,143 700.124,142.876 702.447,141.692 C704.706,140.542 706.542,138.706 707.692,136.448 C708.876,134.124 709,132.604 709,126.2 L709,95.8 C709,89.396 708.876,87.876 707.692,85.553 C706.542,83.294 704.706,81.458 702.448,80.308 C700.124,79.124 698.604,79 692.2,79 L637.8,79 C631.396,79 629.876,79.124 627.553,80.308 C625.294,81.458 623.458,83.294 622.308,85.552 C621.124,87.876 621,89.396 621,95.8 Z M629,95.8 C629,91.004 629.094,89.856 629.436,89.183 C629.82,88.431 630.431,87.819 631.184,87.436 C631.856,87.094 633.004,87 637.8,87 L692.2,87 C696.996,87 698.144,87.094 698.817,87.436 C699.569,87.819 700.18,88.431 700.564,89.184 C700.906,89.856 701,91.004 701,95.8 L701,126.2 C701,130.996 700.906,132.144 700.564,132.817 C700.18,133.569 699.569,134.181 698.816,134.564 C698.144,134.906 696.996,135 692.2,135 L637.8,135 C633.004,135 631.856,134.906 631.183,134.564 C630.431,134.181 629.82,133.569 629.436,132.816 C629.094,132.144 629,130.996 629,126.2 L629,95.8 Z" />
        </g>
    </g>
</svg>