<?xml version="1.0" encoding="UTF-8"?>
<svg height="600" width="800" xmlns="http://www.w3.org/2000/svg" xmlns:xlink="http://www.w3.org/1999/xlink">
    <g id="Notes" font-family="LucidaGrande, 'Lucida Grande', sans-serif" font-size="13">
        <rect fill="white" height="600.0" width="800.0" x="0.0" y="0.0" />
        <g font-size="13">
            <text x="18.0" y="176.0">Small</text>
            <text x="18.0" y="376.0">Medium</text>
            <text x="18.0" y="576.0">Large</text>
        </g>
        <g font-size="9">
            <text x="250.0" y="30.0">Ultralight</text>
            <text x="450.0" y="30.0">Regular</text>
            <text x="650.0" y="30.0">Black</text>
            <text id="template-version" fill="#505050" text-anchor="end" x="785.0" y="575.0">Template v.3.0</text>
            <a href="https://github.com/swhitty/SwiftDraw">
                <text fill="#505050" text-anchor="end" x="785.0" y="590.0">https://github.com/swhitty/SwiftDraw</text>
            </a>
        </g>
    </g>
    <g id="Guides" stroke="rgb(39, 170, 225)" stroke-width="0.5">
        <path id="Capline-S" d="M18,76 l800,0" />
        <path id="H-reference" d="M85,145.755 L87.685,145.755 L113.369,79.287 L114.052,79.287 L114.052,76 L112.148,76 L85,145.755 Z M95.693,121.536 L130.996,121.536 L130.263,119.313 L96.474,119.313 L95.693,121.536 Z M139.15,145.755 L141.787,145.755 L114.638,76 L113.466,76 L113.466,79.287 L139.15,145.755 Z" stroke="none" transform="translate(0,200)" />
        <path id="Baseline-S" d="M18,146 l800,0" />
        <path id="left-margin-Ultralight-M" d="M221,256 l0,110" />
        <path id="right-margin-Ultralight-M" d="M309,256 l0,110" />
        <path id="left-margin-Regular-M" d="M421,256 l0,110" />
        <path id="right-margin-Regular-M" d="M509,256 l0,110" />
        <path id="left-margin-Black-M" d="M621,256 l0,110" />
        <path id="right-margin-Black-M" d="M709,256 l0,110" />
        <path id="Capline-M" d="M18,276 l800,0" />
        <path id="Baseline-M" d="M18,346 l800,0" />
        <path id="Capline-L" d="M18,476 l800,0" />
        <path id="Baseline-L" d="M18,546 l800,0" />
    </g>
    <g id="Symbols">
        <g id="Ultralight-M" transform="translate(0,200)">
            <path d="M242.566,91.529 L246.757,95.72 C247.575,96.538 248.901,96.538 249.72,95.72 C250.538,94.901 250.538,93.575 249.72,92.757 L245.529,88.566 C244.711,87.748 243.384,87.748 242.566,88.566 C241.748,89.384 241.748,90.711 242.566,91.529 Z M284.471,88.566 L280.28,92.757 C279.462,93.575 279.462,94.901 280.28,95.72 C281.099,96.538 282.425,96.538 283.243,95.72 L287.434,91.529 C288.252,90.711 288.252,89.384 287.434,88.566 C286.616,87.748 285.289,87.748 284.471,88.566 Z M287.434,130.471 L283.243,126.28 C282.425,125.462 281.099,125.462 280.28,126.28 C279.462,127.099 279.462,128.425 280.28,129.243 L284.471,133.434 C285.289,134.252 286.616,134.252 287.434,133.434 C288.252,132.616 288.252,131.289 287.434,130.471 Z M245.529,133.434 L249.72,129.243 C250.538,128.425 250.538,127.099 249.72,126.28 C248.901,125.462 247.575,125.462 246.757,126.28 L242.566,130.471 C241.748,131.289 241.748,132.616 242.566,133.434 C243.384,134.252 244.711,134.252 245.529,133.434 Z M244.048,121.476 L247.19,121.476 C248.348,121.476 249.286,120.538 249.286,119.381 C249.286,118.224 248.348,117.286 247.19,117.286 L244.048,117.286 C242.89,117.286 241.952,118.224 241.952,119.381 C241.952,120.538 242.89,121.476 244.048,121.476 Z M254.524,90.048 L254.524,93.19 C254.524,94.348 255.462,95.286 256.619,95.286 C257.776,95.286 258.714,94.348 258.714,93.19 L258.714,90.048 C258.714,88.89 257.776,87.952 256.619,87.952 C255.462,87.952 254.524,88.89 254.524,90.048 Z M285.952,100.524 L282.81,100.524 C281.652,100.524 280.714,101.462 280.714,102.619 C280.714,103.776 281.652,104.714 282.81,104.714 L285.952,104.714 C287.11,104.714 288.048,103.776 288.048,102.619 C288.048,101.462 287.11,100.524 285.952,100.524 Z M275.476,131.952 L275.476,128.81 C275.476,127.652 274.538,126.714 273.381,126.714 C272.224,126.714 271.286,127.652 271.286,128.81 L271.286,131.952 C271.286,133.11 272.224,134.048 273.381,134.048 C274.538,134.048 275.476,133.11 275.476,131.952 Z M277.571,121.476 L284.905,121.476 C286.062,121.476 287,120.538 287,119.381 C287,118.224 286.062,117.286 284.905,117.286 L277.571,117.286 C276.414,117.286 275.476,118.224 275.476,119.381 C275.476,120.538 276.414,121.476 277.571,121.476 Z M271.286,90.048 L271.286,98.429 C271.286,99.586 272.224,100.524 273.381,100.524 C274.538,100.524 275.476,99.586 275.476,98.429 L275.476,90.048 C275.476,88.89 274.538,87.952 273.381,87.952 C272.224,87.952 271.286,88.89 271.286,90.048 Z M244.048,104.714 L252.429,104.714 C253.586,104.714 254.524,103.776 254.524,102.619 C254.524,101.462 253.586,100.524 252.429,100.524 L244.048,100.524 C242.89,100.524 241.952,101.462 241.952,102.619 C241.952,103.776 242.89,104.714 244.048,104.714 Z M258.714,131.952 L258.714,123.571 C258.714,122.414 257.776,121.476 256.619,121.476 C255.462,121.476 254.524,122.414 254.524,123.571 L254.524,131.952 C254.524,133.11 255.462,134.048 256.619,134.048 C257.776,134.048 258.714,133.11 258.714,131.952 Z M262.333,100.228 L254.228,108.333 C253.557,109.004 253.402,109.178 253.167,109.66 C253.084,109.84 253.084,109.84 253.015,110.036 C252.812,110.661 252.812,111.341 253.017,111.972 C253.235,112.645 253.419,112.86 254.232,113.669 L262.332,121.774 C263.013,122.451 263.18,122.599 263.66,122.834 C263.841,122.916 263.841,122.916 264.036,122.985 C264.656,123.189 265.34,123.189 265.976,122.982 C266.645,122.765 266.86,122.581 267.669,121.768 L275.774,113.668 C276.451,112.987 276.599,112.82 276.834,112.34 C276.916,112.159 276.916,112.159 276.985,111.964 C277.188,111.339 277.188,110.658 276.982,110.027 C276.765,109.355 276.581,109.14 275.768,108.331 L267.668,100.226 C266.987,99.549 266.82,99.401 266.34,99.166 C266.159,99.084 266.159,99.084 265.964,99.015 C265.339,98.812 264.659,98.812 264.028,99.017 C263.355,99.235 263.14,99.419 262.331,100.232 L263.816,101.71 L263.817,99.614 L263.815,99.614 C263.259,99.614 262.726,99.835 262.333,100.228 Z M265.296,103.191 L263.814,101.71 L263.813,103.805 L263.815,103.805 C264.373,103.805 264.908,103.583 265.302,103.188 C265.534,102.954 265.617,102.873 265.669,102.829 C265.615,102.875 265.503,102.944 265.322,103.003 C265.112,103.071 264.886,103.071 264.675,103.003 C264.586,102.971 264.586,102.971 264.504,102.934 C264.376,102.871 264.459,102.945 264.708,103.193 L272.808,111.297 C273.046,111.534 273.127,111.617 273.171,111.669 C273.125,111.615 273.056,111.503 272.997,111.322 C272.929,111.113 272.929,110.885 272.998,110.674 C273.029,110.586 273.029,110.586 273.066,110.504 C273.129,110.376 273.055,110.459 272.807,110.708 L264.703,118.808 C264.466,119.046 264.383,119.127 264.331,119.171 C264.385,119.125 264.497,119.056 264.678,118.997 C264.886,118.929 265.118,118.929 265.334,119 C265.414,119.029 265.414,119.029 265.496,119.066 C265.624,119.129 265.541,119.055 265.292,118.807 L257.192,110.703 C256.954,110.466 256.873,110.383 256.829,110.331 C256.875,110.385 256.944,110.497 257.003,110.678 C257.071,110.888 257.071,111.114 257.003,111.325 C256.971,111.414 256.971,111.414 256.933,111.496 C256.87,111.626 256.945,111.542 257.191,111.296 L265.296,103.191 Z" />
        </g>
        <g id="Regular-M" transform="translate(0,200)">
            <path d="M442.566,91.529 L446.757,95.72 C447.575,96.538 448.901,96.538 449.72,95.72 C450.538,94.901 450.538,93.575 449.72,92.757 L445.529,88.566 C444.711,87.748 443.384,87.748 442.566,88.566 C441.748,89.384 441.748,90.711 442.566,91.529 Z M484.471,88.566 L480.28,92.757 C479.462,93.575 479.462,94.901 480.28,95.72 C481.099,96.538 482.425,96.538 483.243,95.72 L487.434,91.529 C488.252,90.711 488.252,89.384 487.434,88.566 C486.616,87.748 485.289,87.748 484.471,88.566 Z M487.434,130.471 L483.243,126.28 C482.425,125.462 481.099,125.462 480.28,126.28 C479.462,127.099 479.462,128.425 480.28,129.243 L484.471,133.434 C485.289,134.252 486.616,134.252 487.434,133.434 C488.252,132.616 488.252,131.289 487.434,130.471 Z M445.529,133.434 L449.72,129.243 C450.538,128.425 450.538,127.099 449.72,126.28 C448.901,125.462 447.575,125.462 446.757,126.28 L442.566,130.471 C441.748,131.289 441.748,132.616 442.566,133.434 C443.384,134.252 444.711,134.252 445.529,133.434 Z M444.048,121.476 L447.19,121.476 C448.348,121.476 449.286,120.538 449.286,119.381 C449.286,118.224 448.348,117.286 447.19,117.286 L444.048,117.286 C442.89,117.286 441.952,118.224 441.952,119.381 C441.952,120.538 442.89,121.476 444.048,121.476 Z M454.524,90.048 L454.524,93.19 C454.524,94.348 455.462,95.286 456.619,95.286 C457.776,95.286 458.714,94.348 458.714,93.19 L458.714,90.048 C458.714,88.89 457.776,87.952 456.619,87.952 C455.462,87.952 454.524,88.89 454.524,90.048 Z M485.952,100.524 L482.81,100.524 C481.652,100.524 480.714,101.462 480.714,102.619 C480.714,103.776 481.652,104.714 482.81,104.714 L485.952,104.714 C487.11,104.714 488.048,103.776 488.048,102.619 C488.048,101.462 487.11,100.524 485.952,100.524 Z M475.476,131.952 L475.476,128.81 C475.476,127.652 474.538,126.714 473.381,126.714 C472.224,126.714 471.286,127.652 471.286,128.81 L471.286,131.952 C471.286,133.11 472.224,134.048 473.381,134.048 C474.538,134.048 475.476,133.11 475.476,131.952 Z M477.571,121.476 L484.905,121.476 C486.062,121.476 487,120.538 487,119.381 C487,118.224 486.062,117.286 484.905,117.286 L477.571,117.286 C476.414,117.286 475.476,118.224 475.476,119.381 C475.476,120.538 476.414,121.476 477.571,121.476 Z M471.286,90.048 L471.286,98.429 C471.286,99.586 472.224,100.524 473.381,100.524 C474.538,100.524 475.476,99.586 475.476,98.429 L475.476,90.048 C475.476,88.89 474.538,87.952 473.381,87.952 C472.224,87.952 471.286,88.89 471.286,90.048 Z M444.048,104.714 L452.429,104.714 C453.586,104.714 454.524,103.776 454.524,102.619 C454.524,101.462 453.586,100.524 452.429,100.524 L444.048,100.524 C442.89,100.524 441.952,101.462 441.952,102.619 C441.952,103.776 442.89,104.714 444.048,104.714 Z M458.714,131.952 L458.714,123.571 C458.714,122.414 457.776,121.476 456.619,121.476 C455.462,121.476 454.524,122.414 454.524,123.571 L454.524,131.952 C454.524,133.11 455.462,134.048 456.619,134.048 C457.776,134.048 458.714,133.11 458.714,131.952 Z M462.333,100.228 L454.228,108.333 C453.557,109.004 453.402,109.178 453.167,109.66 C453.084,109.84 453.084,109.84 453.015,110.036 C452.812,110.661 452.812,111.341 453.017,111.972 C453.235,112.645 453.419,112.86 454.232,113.669 L462.332,121.774 C463.013,122.451 463.18,122.599 463.66,122.834 C463.841,122.916 463.841,122.916 464.036,122.985 C464.656,123.189 465.34,123.189 465.976,122.982 C466.645,122.765 466.86,122.581 467.669,121.768 L475.774,113.668 C476.451,112.987 476.599,112.82 476.834,112.34 C476.916,112.159 476.916,112.159 476.985,111.964 C477.188,111.339 477.188,110.658 476.982,110.027 C476.765,109.355 476.581,109.14 475.768,108.331 L467.668,100.226 C466.987,99.549 466.82,99.401 466.34,99.166 C466.159,99.084 466.159,99.084 465.964,99.015 C465.339,98.812 464.659,98.812 464.028,99.017 C463.355,99.235 463.14,99.419 462.331,100.232 L463.816,101.71 L463.817,99.614 L463.815,99.614 C463.259,99.614 462.726,99.835 462.333,100.228 Z M465.296,103.191 L463.814,101.71 L463.813,103.805 L463.815,103.805 C464.373,103.805 464.908,103.583 465.302,103.188 C465.534,102.954 465.617,102.873 465.669,102.829 C465.615,102.875 465.503,102.944 465.322,103.003 C465.112,103.071 464.886,103.071 464.675,103.003 C464.586,102.971 464.586,102.971 464.504,102.934 C464.376,102.871 464.459,102.945 464.708,103.193 L472.808,111.297 C473.046,111.534 473.127,111.617 473.171,111.669 C473.125,111.615 473.056,111.503 472.997,111.322 C472.929,111.113 472.929,110.885 472.998,110.674 C473.029,110.586 473.029,110.586 473.066,110.504 C473.129,110.376 473.055,110.459 472.807,110.708 L464.703,118.808 C464.466,119.046 464.383,119.127 464.331,119.171 C464.385,119.125 464.497,119.056 464.678,118.997 C464.886,118.929 465.118,118.929 465.334,119 C465.414,119.029 465.414,119.029 465.496,119.066 C465.624,119.129 465.541,119.055 465.292,118.807 L457.192,110.703 C456.954,110.466 456.873,110.383 456.829,110.331 C456.875,110.385 456.944,110.497 457.003,110.678 C457.071,110.888 457.071,111.114 457.003,111.325 C456.971,111.414 456.971,111.414 456.933,111.496 C456.87,111.626 456.945,111.542 457.191,111.296 L465.296,103.191 Z" />
        </g>
        <g id="Black-M" transform="translate(0,200)">
            <path d="M642.566,91.529 L646.757,95.72 C647.575,96.538 648.901,96.538 649.72,95.72 C650.538,94.901 650.538,93.575 649.72,92.757 L645.529,88.566 C644.711,87.748 643.384,87.748 642.566,88.566 C641.748,89.384 641.748,90.711 642.566,91.529 Z M684.471,88.566 L680.28,92.757 C679.462,93.575 679.462,94.901 680.28,95.72 C681.099,96.538 682.425,96.538 683.243,95.72 L687.434,91.529 C688.252,90.711 688.252,89.384 687.434,88.566 C686.616,87.748 685.289,87.748 684.471,88.566 Z M687.434,130.471 L683.243,126.28 C682.425,125.462 681.099,125.462 680.28,126.28 C679.462,127.099 679.462,128.425 680.28,129.243 L684.471,133.434 C685.289,134.252 686.616,134.252 687.434,133.434 C688.252,132.616 688.252,131.289 687.434,130.471 Z M645.529,133.434 L649.72,129.243 C650.538,128.425 650.538,127.099 649.72,126.28 C648.901,125.462 647.575,125.462 646.757,126.28 L642.566,130.471 C641.748,131.289 641.748,132.616 642.566,133.434 C643.384,134.252 644.711,134.252 645.529,133.434 Z M644.048,121.476 L647.19,121.476 C648.348,121.476 649.286,120.538 649.286,119.381 C649.286,118.224 648.348,117.286 647.19,117.286 L644.048,117.286 C642.89,117.286 641.952,118.224 641.952,119.381 C641.952,120.538 642.89,121.476 644.048,121.476 Z M654.524,90.048 L654.524,93.19 C654.524,94.348 655.462,95.286 656.619,95.286 C657.776,95.286 658.714,94.348 658.714,93.19 L658.714,90.048 C658.714,88.89 657.776,87.952 656.619,87.952 C655.462,87.952 654.524,88.89 654.524,90.048 Z M685.952,100.524 L682.81,100.524 C681.652,100.524 680.714,101.462 680.714,102.619 C680.714,103.776 681.652,104.714 682.81,104.714 L685.952,104.714 C687.109,104.714 688.048,103.776 688.048,102.619 C688.048,101.462 687.109,100.524 685.952,100.524 Z M675.476,131.952 L675.476,128.81 C675.476,127.652 674.538,126.714 673.381,126.714 C672.224,126.714 671.286,127.652 671.286,128.81 L671.286,131.952 C671.286,133.11 672.224,134.048 673.381,134.048 C674.538,134.048 675.476,133.11 675.476,131.952 Z M677.571,121.476 L684.905,121.476 C686.062,121.476 687,120.538 687,119.381 C687,118.224 686.062,117.286 684.905,117.286 L677.571,117.286 C676.414,117.286 675.476,118.224 675.476,119.381 C675.476,120.538 676.414,121.476 677.571,121.476 Z M671.286,90.048 L671.286,98.429 C671.286,99.586 672.224,100.524 673.381,100.524 C674.538,100.524 675.476,99.586 675.476,98.429 L675.476,90.048 C675.476,88.89 674.538,87.952 673.381,87.952 C672.224,87.952 671.286,88.89 671.286,90.048 Z M644.048,104.714 L652.429,104.714 C653.586,104.714 654.524,103.776 654.524,102.619 C654.524,101.462 653.586,100.524 652.429,100.524 L644.048,100.524 C642.89,100.524 641.952,101.462 641.952,102.619 C641.952,103.776 642.89,104.714 644.048,104.714 Z M658.714,131.952 L658.714,123.571 C658.714,122.414 657.776,121.476 656.619,121.476 C655.462,121.476 654.524,122.414 654.524,123.571 L654.524,131.952 C654.524,133.11 655.462,134.048 656.619,134.048 C657.776,134.048 658.714,133.11 658.714,131.952 Z M662.333,100.228 L654.228,108.333 C653.557,109.004 653.402,109.178 653.167,109.66 C653.084,109.84 653.084,109.84 653.015,110.036 C652.812,110.661 652.812,111.341 653.017,111.972 C653.235,112.645 653.419,112.86 654.232,113.669 L662.332,121.774 C663.013,122.451 663.18,122.599 663.66,122.834 C663.841,122.916 663.841,122.916 664.036,122.985 C664.656,123.189 665.34,123.189 665.975,122.982 C666.644,122.765 666.86,122.581 667.669,121.768 L675.774,113.668 C676.451,112.987 676.599,112.82 676.833,112.34 C676.916,112.159 676.916,112.159 676.985,111.964 C677.188,111.339 677.188,110.658 676.982,110.027 C676.765,109.355 676.581,109.14 675.768,108.331 L667.668,100.226 C666.987,99.549 666.82,99.401 666.34,99.166 C666.159,99.084 666.159,99.084 665.964,99.015 C665.339,98.812 664.659,98.812 664.028,99.017 C663.355,99.235 663.14,99.419 662.331,100.232 L663.816,101.71 L663.817,99.614 L663.815,99.614 C663.259,99.614 662.726,99.835 662.333,100.228 Z M665.296,103.191 L663.814,101.71 L663.813,103.805 L663.815,103.805 C664.373,103.805 664.908,103.583 665.301,103.188 C665.534,102.954 665.617,102.873 665.669,102.829 C665.615,102.875 665.503,102.944 665.322,103.003 C665.112,103.071 664.886,103.071 664.675,103.003 C664.586,102.971 664.586,102.971 664.504,102.934 C664.376,102.871 664.459,102.945 664.708,103.193 L672.808,111.297 C673.046,111.534 673.127,111.617 673.171,111.669 C673.125,111.615 673.056,111.503 672.997,111.322 C672.929,111.113 672.929,110.885 672.998,110.674 C673.029,110.586 673.029,110.586 673.066,110.504 C673.129,110.376 673.055,110.459 672.807,110.708 L664.703,118.808 C664.466,119.046 664.383,119.127 664.331,119.171 C664.385,119.125 664.497,119.056 664.678,118.997 C664.886,118.929 665.118,118.929 665.334,119 C665.414,119.029 665.414,119.029 665.496,119.066 C665.624,119.129 665.541,119.055 665.292,118.807 L657.192,110.703 C656.954,110.466 656.873,110.383 656.829,110.331 C656.875,110.385 656.944,110.497 657.003,110.678 C657.071,110.888 657.071,111.114 657.003,111.325 C656.971,111.414 656.971,111.414 656.933,111.496 C656.87,111.626 656.945,111.542 657.191,111.296 L665.296,103.191 Z" />
        </g>
    </g>
</svg>