<?xml version="1.0" encoding="UTF-8"?>
<svg height="600" width="800" xmlns="http://www.w3.org/2000/svg" xmlns:xlink="http://www.w3.org/1999/xlink">
    <g id="Notes" font-family="LucidaGrande, 'Lucida Grande', sans-serif" font-size="13">
        <rect fill="white" height="600.0" width="800.0" x="0.0" y="0.0" />
        <g font-size="13">
            <text x="18.0" y="176.0">Small</text>
            <text x="18.0" y="376.0">Medium</text>
            <text x="18.0" y="576.0">Large</text>
        </g>
        <g font-size="9">
            <text x="250.0" y="30.0">Ultralight</text>
            <text x="450.0" y="30.0">Regular</text>
            <text x="650.0" y="30.0">Black</text>
            <text id="template-version" fill="#505050" text-anchor="end" x="785.0" y="575.0">Template v.3.0</text>
            <a href="https://github.com/swhitty/SwiftDraw">
                <text fill="#505050" text-anchor="end" x="785.0" y="590.0">https://github.com/swhitty/SwiftDraw</text>
            </a>
        </g>
    </g>
    <g id="Guides" stroke="rgb(39, 170, 225)" stroke-width="0.5">
        <path id="Capline-S" d="M18,76 l800,0" />
        <path id="H-reference" d="M85,145.755 L87.685,145.755 L113.369,79.287 L114.052,79.287 L114.052,76 L112.148,76 L85,145.755 Z M95.693,121.536 L130.996,121.536 L130.263,119.313 L96.474,119.313 L95.693,121.536 Z M139.15,145.755 L141.787,145.755 L114.638,76 L113.466,76 L113.466,79.287 L139.15,145.755 Z" stroke="none" transform="translate(0,200)" />
        <path id="Baseline-S" d="M18,146 l800,0" />
        <path id="left-margin-Ultralight-M" d="M230,256 l0,110" />
        <path id="right-margin-Ultralight-M" d="M300,256 l0,110" />
        <path id="left-margin-Regular-M" d="M430,256 l0,110" />
        <path id="right-margin-Regular-M" d="M500,256 l0,110" />
        <path id="left-margin-Black-M" d="M630,256 l0,110" />
        <path id="right-margin-Black-M" d="M700,256 l0,110" />
        <path id="Capline-M" d="M18,276 l800,0" />
        <path id="Baseline-M" d="M18,346 l800,0" />
        <path id="Capline-L" d="M18,476 l800,0" />
        <path id="Baseline-L" d="M18,546 l800,0" />
    </g>
    <g id="Symbols">
        <g id="Ultralight-M" transform="translate(0,200)">
            <path d="M281.831,132.555 C271.795,139.847 258.205,139.847 248.169,132.555 C246.747,131.523 244.757,131.838 243.725,133.259 C242.692,134.681 243.007,136.67 244.428,137.703 C256.695,146.616 273.305,146.616 285.571,137.703 C286.993,136.67 287.308,134.681 286.275,133.259 C285.242,131.838 283.253,131.523 281.831,132.555 Z M277.553,83.654 C288.703,89.092 295.083,101.091 293.357,113.376 C293.112,115.116 294.324,116.725 296.064,116.97 C297.804,117.214 299.413,116.002 299.658,114.262 C301.768,99.247 293.971,84.581 280.343,77.934 C278.763,77.164 276.859,77.82 276.088,79.399 C275.318,80.979 275.974,82.883 277.553,83.654 Z M236.643,113.376 C234.917,101.091 241.298,89.091 252.449,83.654 C254.029,82.884 254.685,80.979 253.915,79.4 C253.145,77.82 251.24,77.164 249.661,77.934 C236.031,84.58 228.232,99.246 230.342,114.262 C230.586,116.002 232.195,117.214 233.935,116.97 C235.675,116.725 236.888,115.116 236.643,113.376 Z M260.949,89.849 L245.461,105.343 C244.233,106.565 243.954,106.893 243.622,107.915 C243.31,108.872 243.31,109.908 243.624,110.87 C243.718,111.137 243.718,111.137 243.828,111.382 C244.185,112.133 244.42,112.396 245.461,113.438 L260.949,128.931 C261.982,129.959 262.236,130.185 262.966,130.541 C263.239,130.667 263.239,130.667 263.535,130.77 C264.485,131.079 265.518,131.079 266.476,130.768 C267.497,130.436 267.825,130.158 269.053,128.923 L284.541,113.438 C285.591,112.382 285.816,112.129 286.172,111.382 C286.282,111.137 286.282,111.137 286.375,110.873 C286.69,109.908 286.69,108.872 286.376,107.911 C286.046,106.893 285.767,106.565 284.533,105.337 L269.051,89.849 C268.031,88.829 267.767,88.593 267.035,88.237 C266.761,88.11 266.761,88.11 266.464,88.007 C265.515,87.698 264.482,87.698 263.524,88.01 C262.503,88.341 262.175,88.62 260.947,89.854 L263.202,92.098 L263.204,88.917 L263.201,88.917 C262.356,88.916 261.546,89.252 260.949,89.849 Z M265.449,94.348 L263.199,92.098 L263.198,95.28 L263.201,95.28 C264.048,95.28 264.86,94.943 265.458,94.342 C265.811,93.988 265.937,93.864 266.015,93.798 C265.934,93.867 265.764,93.973 265.489,94.062 C265.17,94.165 264.826,94.165 264.507,94.061 C264.371,94.014 264.371,94.014 264.247,93.956 C264.05,93.861 264.177,93.974 264.551,94.348 L280.038,109.842 C280.399,110.201 280.523,110.328 280.589,110.405 C280.52,110.324 280.414,110.154 280.325,109.879 C280.222,109.563 280.222,109.218 280.326,108.897 C280.374,108.763 280.374,108.763 280.425,108.649 C280.525,108.439 280.41,108.568 280.036,108.944 L264.548,124.429 C264.189,124.79 264.062,124.913 263.985,124.979 C264.066,124.91 264.236,124.805 264.511,124.715 C264.829,124.612 265.174,124.612 265.493,124.716 C265.629,124.764 265.629,124.764 265.753,124.821 C265.948,124.916 265.821,124.803 265.443,124.427 L249.961,108.939 C249.588,108.565 249.474,108.437 249.575,108.649 C249.626,108.763 249.626,108.763 249.672,108.893 C249.778,109.218 249.778,109.563 249.673,109.883 C249.585,110.154 249.48,110.324 249.411,110.405 C249.477,110.328 249.6,110.201 249.955,109.848 L265.449,94.348 Z" />
        </g>
        <g id="Regular-M" transform="translate(0,200)">
            <path d="M481.831,132.555 C471.795,139.847 458.205,139.847 448.169,132.555 C446.747,131.523 444.757,131.838 443.725,133.259 C442.692,134.681 443.007,136.67 444.428,137.703 C456.695,146.616 473.305,146.616 485.571,137.703 C486.993,136.67 487.308,134.681 486.275,133.259 C485.242,131.838 483.253,131.523 481.831,132.555 Z M477.553,83.654 C488.703,89.092 495.083,101.091 493.357,113.376 C493.112,115.116 494.324,116.725 496.064,116.97 C497.804,117.214 499.413,116.002 499.658,114.262 C501.768,99.247 493.971,84.581 480.343,77.934 C478.763,77.164 476.859,77.82 476.088,79.399 C475.318,80.979 475.974,82.883 477.553,83.654 Z M436.643,113.376 C434.917,101.091 441.298,89.091 452.449,83.654 C454.029,82.884 454.685,80.979 453.915,79.4 C453.145,77.82 451.24,77.164 449.661,77.934 C436.031,84.58 428.232,99.246 430.342,114.262 C430.586,116.002 432.195,117.214 433.935,116.97 C435.675,116.725 436.888,115.116 436.643,113.376 Z M460.949,89.849 L445.461,105.343 C444.233,106.565 443.954,106.893 443.622,107.915 C443.31,108.872 443.31,109.908 443.624,110.87 C443.718,111.137 443.718,111.137 443.828,111.382 C444.185,112.133 444.42,112.396 445.461,113.438 L460.949,128.931 C461.982,129.959 462.236,130.185 462.966,130.541 C463.239,130.667 463.239,130.667 463.535,130.77 C464.485,131.079 465.518,131.079 466.476,130.768 C467.497,130.436 467.825,130.158 469.053,128.923 L484.541,113.438 C485.591,112.382 485.816,112.129 486.172,111.382 C486.282,111.137 486.282,111.137 486.375,110.873 C486.69,109.908 486.69,108.872 486.376,107.911 C486.046,106.893 485.767,106.565 484.533,105.337 L469.051,89.849 C468.031,88.829 467.767,88.593 467.035,88.237 C466.761,88.11 466.761,88.11 466.464,88.007 C465.515,87.698 464.482,87.698 463.524,88.01 C462.503,88.341 462.175,88.62 460.947,89.854 L463.202,92.098 L463.204,88.917 L463.201,88.917 C462.356,88.916 461.546,89.252 460.949,89.849 Z M465.449,94.348 L463.199,92.098 L463.198,95.28 L463.201,95.28 C464.048,95.28 464.86,94.943 465.458,94.342 C465.811,93.988 465.937,93.864 466.015,93.798 C465.934,93.867 465.764,93.973 465.489,94.062 C465.17,94.165 464.826,94.165 464.507,94.061 C464.371,94.014 464.371,94.014 464.247,93.956 C464.05,93.861 464.177,93.974 464.551,94.348 L480.038,109.842 C480.399,110.201 480.523,110.328 480.589,110.405 C480.52,110.324 480.414,110.154 480.325,109.879 C480.222,109.563 480.222,109.218 480.326,108.897 C480.374,108.763 480.374,108.763 480.425,108.649 C480.525,108.439 480.41,108.568 480.036,108.944 L464.548,124.429 C464.189,124.79 464.062,124.913 463.985,124.979 C464.066,124.91 464.236,124.805 464.511,124.715 C464.829,124.612 465.174,124.612 465.493,124.716 C465.629,124.764 465.629,124.764 465.753,124.821 C465.948,124.916 465.821,124.803 465.443,124.427 L449.961,108.939 C449.588,108.565 449.474,108.437 449.575,108.649 C449.626,108.763 449.626,108.763 449.672,108.893 C449.778,109.218 449.778,109.563 449.673,109.883 C449.585,110.154 449.48,110.324 449.411,110.405 C449.477,110.328 449.6,110.201 449.955,109.848 L465.449,94.348 Z" />
        </g>
        <g id="Black-M" transform="translate(0,200)">
            <path d="M681.831,132.555 C671.795,139.847 658.205,139.847 648.169,132.555 C646.747,131.523 644.757,131.838 643.725,133.259 C642.692,134.681 643.007,136.67 644.428,137.703 C656.695,146.616 673.305,146.616 685.571,137.703 C686.993,136.67 687.308,134.681 686.275,133.259 C685.242,131.838 683.253,131.523 681.831,132.555 Z M677.553,83.654 C688.703,89.092 695.083,101.091 693.357,113.376 C693.112,115.116 694.324,116.725 696.064,116.97 C697.804,117.214 699.413,116.002 699.658,114.262 C701.768,99.247 693.971,84.581 680.343,77.934 C678.763,77.164 676.859,77.82 676.088,79.399 C675.318,80.979 675.974,82.883 677.553,83.654 Z M636.643,113.376 C634.917,101.091 641.298,89.091 652.449,83.654 C654.029,82.884 654.685,80.979 653.915,79.4 C653.145,77.82 651.24,77.164 649.661,77.934 C636.031,84.58 628.232,99.246 630.342,114.262 C630.586,116.002 632.195,117.214 633.935,116.97 C635.675,116.725 636.888,115.116 636.643,113.376 Z M660.949,89.849 L645.461,105.343 C644.233,106.565 643.954,106.893 643.622,107.915 C643.31,108.872 643.31,109.908 643.624,110.87 C643.718,111.137 643.718,111.137 643.828,111.382 C644.185,112.133 644.42,112.396 645.461,113.438 L660.949,128.931 C661.982,129.959 662.236,130.185 662.966,130.541 C663.239,130.667 663.239,130.667 663.535,130.77 C664.485,131.079 665.518,131.079 666.476,130.768 C667.497,130.436 667.825,130.158 669.053,128.923 L684.541,113.438 C685.591,112.382 685.816,112.129 686.172,111.382 C686.282,111.137 686.282,111.137 686.375,110.873 C686.69,109.908 686.69,108.872 686.376,107.911 C686.046,106.893 685.767,106.565 684.533,105.337 L669.051,89.849 C668.031,88.829 667.767,88.593 667.035,88.237 C666.761,88.11 666.761,88.11 666.464,88.007 C665.515,87.698 664.482,87.698 663.524,88.01 C662.503,88.341 662.175,88.62 660.947,89.854 L663.202,92.098 L663.204,88.917 L663.201,88.917 C662.356,88.916 661.546,89.252 660.949,89.849 Z M665.449,94.348 L663.199,92.098 L663.198,95.28 L663.201,95.28 C664.048,95.28 664.86,94.943 665.458,94.342 C665.811,93.988 665.937,93.864 666.015,93.798 C665.934,93.867 665.764,93.973 665.489,94.062 C665.17,94.165 664.826,94.165 664.507,94.061 C664.371,94.014 664.371,94.014 664.247,93.956 C664.05,93.861 664.177,93.974 664.551,94.348 L680.039,109.842 C680.399,110.201 680.523,110.328 680.589,110.405 C680.52,110.324 680.414,110.154 680.325,109.879 C680.222,109.563 680.222,109.218 680.326,108.897 C680.374,108.763 680.374,108.763 680.425,108.649 C680.525,108.439 680.41,108.568 680.036,108.944 L664.548,124.429 C664.189,124.79 664.062,124.913 663.985,124.979 C664.066,124.91 664.236,124.805 664.511,124.715 C664.829,124.612 665.174,124.612 665.493,124.716 C665.629,124.764 665.629,124.764 665.753,124.821 C665.948,124.916 665.821,124.803 665.443,124.427 L649.961,108.939 C649.588,108.565 649.474,108.437 649.575,108.649 C649.626,108.763 649.626,108.763 649.672,108.893 C649.778,109.218 649.778,109.563 649.673,109.883 C649.585,110.154 649.48,110.324 649.411,110.405 C649.477,110.328 649.6,110.201 649.955,109.848 L665.449,94.348 Z" />
        </g>
    </g>
</svg>