<?xml version="1.0" encoding="UTF-8"?>
<svg height="600" width="800" xmlns="http://www.w3.org/2000/svg" xmlns:xlink="http://www.w3.org/1999/xlink">
    <g id="Notes" font-family="LucidaGrande, 'Lucida Grande', sans-serif" font-size="13">
        <rect fill="white" height="600.0" width="800.0" x="0.0" y="0.0" />
        <g font-size="13">
            <text x="18.0" y="176.0">Small</text>
            <text x="18.0" y="376.0">Medium</text>
            <text x="18.0" y="576.0">Large</text>
        </g>
        <g font-size="9">
            <text x="250.0" y="30.0">Ultralight</text>
            <text x="450.0" y="30.0">Regular</text>
            <text x="650.0" y="30.0">Black</text>
            <text id="template-version" fill="#505050" text-anchor="end" x="785.0" y="575.0">Template v.3.0</text>
            <a href="https://github.com/swhitty/SwiftDraw">
                <text fill="#505050" text-anchor="end" x="785.0" y="590.0">https://github.com/swhitty/SwiftDraw</text>
            </a>
        </g>
    </g>
    <g id="Guides" stroke="rgb(39, 170, 225)" stroke-width="0.5">
        <path id="Capline-S" d="M18,76 l800,0" />
        <path id="H-reference" d="M85,145.755 L87.685,145.755 L113.369,79.287 L114.052,79.287 L114.052,76 L112.148,76 L85,145.755 Z M95.693,121.536 L130.996,121.536 L130.263,119.313 L96.474,119.313 L95.693,121.536 Z M139.15,145.755 L141.787,145.755 L114.638,76 L113.466,76 L113.466,79.287 L139.15,145.755 Z" stroke="none" transform="translate(0,200)" />
        <path id="Baseline-S" d="M18,146 l800,0" />
        <path id="left-margin-Ultralight-M" d="M230,256 l0,110" />
        <path id="right-margin-Ultralight-M" d="M300,256 l0,110" />
        <path id="left-margin-Regular-M" d="M430,256 l0,110" />
        <path id="right-margin-Regular-M" d="M500,256 l0,110" />
        <path id="left-margin-Black-M" d="M630,256 l0,110" />
        <path id="right-margin-Black-M" d="M700,256 l0,110" />
        <path id="Capline-M" d="M18,276 l800,0" />
        <path id="Baseline-M" d="M18,346 l800,0" />
        <path id="Capline-L" d="M18,476 l800,0" />
        <path id="Baseline-L" d="M18,546 l800,0" />
    </g>
    <g id="Symbols">
        <g id="Ultralight-M" transform="translate(0,200)">
            <path d="M256.239,141.594 L260.956,144.214 C262.345,144.986 262.702,145.163 263.488,145.359 C263.6,145.385 263.6,145.385 263.712,145.409 C264.566,145.583 265.44,145.583 266.286,145.41 C266.383,145.389 266.383,145.389 266.474,145.368 C267.273,145.174 267.652,144.988 269.046,144.212 L273.761,141.594 C275.308,140.735 275.865,138.785 275.007,137.239 C274.148,135.692 272.198,135.135 270.651,135.993 L265.934,138.613 C265.149,139.05 264.958,139.144 264.967,139.142 C264.981,139.138 264.981,139.138 264.996,139.135 C265.002,139.134 264.998,139.134 264.993,139.133 C265.018,139.138 265.018,139.138 265.035,139.142 C265.04,139.143 264.853,139.051 264.069,138.615 L259.349,135.993 C257.802,135.135 255.852,135.692 254.993,137.239 C254.135,138.785 254.692,140.735 256.239,141.594 Z M244.936,127.987 L240.366,125.447 C239.534,124.987 239.356,124.873 239.386,124.905 C239.374,124.893 239.374,124.893 239.374,124.893 C239.389,124.94 239.377,124.732 239.377,123.772 L239.377,118.776 C239.377,117.007 237.943,115.573 236.174,115.573 C234.405,115.573 232.971,117.007 232.971,118.776 L232.971,123.772 C232.971,125.548 232.999,126.013 233.292,126.903 C233.582,127.778 234.052,128.573 234.672,129.243 C235.299,129.928 235.722,130.198 237.259,131.049 L241.825,133.586 C243.371,134.445 245.321,133.888 246.18,132.342 C247.04,130.796 246.483,128.846 244.936,127.987 Z M239.377,102.761 L239.377,97.771 C239.377,96.803 239.389,96.598 239.379,96.63 C239.374,96.644 239.374,96.644 239.374,96.644 C239.357,96.663 239.528,96.554 240.361,96.093 L244.936,93.55 C246.483,92.691 247.04,90.741 246.18,89.195 C245.321,87.649 243.371,87.092 241.825,87.951 L237.254,90.491 C235.714,91.343 235.302,91.606 234.661,92.306 C234.052,92.964 233.582,93.759 233.295,94.626 C232.999,95.53 232.971,95.995 232.971,97.771 L232.971,102.761 C232.971,104.53 234.405,105.964 236.174,105.964 C237.943,105.964 239.377,104.53 239.377,102.761 Z M259.349,85.543 L264.066,82.923 C264.847,82.489 265.031,82.398 265.018,82.401 C265,82.406 265,82.406 264.98,82.41 C265,82.406 265,82.406 265,82.406 C264.999,82.405 264.999,82.405 264.983,82.402 C264.961,82.396 265.141,82.485 265.939,82.926 L270.651,85.543 C272.198,86.402 274.148,85.845 275.007,84.298 C275.865,82.752 275.308,80.802 273.761,79.943 L269.044,77.323 C267.59,76.52 267.263,76.359 266.458,76.168 C266.366,76.147 266.366,76.147 266.272,76.128 C265.438,75.956 264.562,75.956 263.712,76.131 C263.618,76.15 263.618,76.15 263.505,76.177 C262.71,76.37 262.351,76.547 260.954,77.325 L256.239,79.943 C254.692,80.802 254.135,82.752 254.993,84.298 C255.852,85.845 257.802,86.402 259.349,85.543 Z M285.064,93.55 L289.634,96.09 C290.466,96.55 290.644,96.664 290.614,96.631 C290.626,96.644 290.626,96.644 290.626,96.644 C290.611,96.598 290.623,96.803 290.623,97.771 L290.623,102.761 C290.623,104.53 292.057,105.964 293.826,105.964 C295.595,105.964 297.029,104.53 297.029,102.761 L297.029,97.771 C297.029,95.995 297.001,95.53 296.71,94.64 C296.418,93.759 295.948,92.964 295.328,92.294 C294.701,91.609 294.278,91.339 292.741,90.488 L288.175,87.951 C286.629,87.092 284.679,87.649 283.82,89.195 C282.961,90.741 283.517,92.691 285.064,93.55 Z M290.623,118.776 L290.623,123.769 C290.623,124.731 290.611,124.94 290.623,124.901 C290.626,124.893 290.626,124.893 290.626,124.892 C290.643,124.874 290.472,124.983 289.639,125.444 L285.064,127.987 C283.517,128.846 282.961,130.796 283.82,132.342 C284.679,133.888 286.629,134.445 288.175,133.586 L292.746,131.046 C294.286,130.194 294.698,129.931 295.339,129.231 C295.948,128.573 296.418,127.778 296.706,126.91 C297.001,126.013 297.029,125.548 297.029,123.769 L297.029,118.776 C297.029,117.007 295.595,115.573 293.826,115.573 C292.057,115.573 290.623,117.007 290.623,118.776 Z M256.238,109.565 L263.445,113.568 C264.991,114.427 266.941,113.87 267.8,112.324 C268.659,110.778 268.102,108.828 266.555,107.969 L259.349,103.965 C257.803,103.106 255.853,103.663 254.994,105.209 C254.135,106.756 254.692,108.706 256.238,109.565 Z M266.555,113.568 L273.762,109.565 C275.308,108.706 275.865,106.756 275.006,105.209 C274.147,103.663 272.197,103.106 270.651,103.965 L263.445,107.969 C261.898,108.828 261.341,110.778 262.2,112.324 C263.059,113.87 265.009,114.427 266.555,113.568 Z M261.797,110.768 L261.797,118.776 C261.797,120.545 263.231,121.978 265,121.978 C266.769,121.978 268.203,120.545 268.203,118.776 L268.203,110.768 C268.203,109 266.769,107.566 265,107.566 C263.231,107.566 261.797,109 261.797,110.768 Z M234.619,97.554 L241.825,101.558 C243.371,102.417 245.321,101.859 246.18,100.313 C247.04,98.767 246.482,96.817 244.936,95.958 L237.73,91.954 C236.183,91.095 234.233,91.652 233.374,93.199 C232.515,94.745 233.072,96.695 234.619,97.554 Z M288.175,101.558 L295.381,97.554 C296.928,96.695 297.485,94.745 296.626,93.199 C295.767,91.652 293.817,91.095 292.27,91.954 L285.064,95.958 C283.518,96.817 282.961,98.767 283.82,100.313 C284.679,101.859 286.629,102.417 288.175,101.558 Z M261.797,134.79 L261.797,142.797 C261.797,144.566 263.231,146 265,146 C266.769,146 268.203,144.566 268.203,142.797 L268.203,134.79 C268.203,133.021 266.769,131.587 265,131.587 C263.231,131.587 261.797,133.021 261.797,134.79 Z" />
        </g>
        <g id="Regular-M" transform="translate(0,200)">
            <path d="M456.239,141.594 L460.956,144.214 C462.345,144.986 462.702,145.163 463.488,145.359 C463.6,145.385 463.6,145.385 463.712,145.409 C464.566,145.583 465.44,145.583 466.286,145.41 C466.383,145.389 466.383,145.389 466.474,145.368 C467.273,145.174 467.652,144.988 469.046,144.212 L473.761,141.594 C475.308,140.735 475.865,138.785 475.007,137.239 C474.148,135.692 472.198,135.135 470.651,135.993 L465.934,138.613 C465.149,139.05 464.958,139.144 464.967,139.142 C464.981,139.138 464.981,139.138 464.996,139.135 C465.002,139.134 464.998,139.134 464.993,139.133 C465.018,139.138 465.018,139.138 465.035,139.142 C465.04,139.143 464.853,139.051 464.069,138.615 L459.349,135.993 C457.802,135.135 455.852,135.692 454.993,137.239 C454.135,138.785 454.692,140.735 456.239,141.594 Z M444.936,127.987 L440.366,125.447 C439.534,124.987 439.356,124.873 439.386,124.905 C439.374,124.893 439.374,124.893 439.374,124.893 C439.389,124.94 439.377,124.732 439.377,123.772 L439.377,118.776 C439.377,117.007 437.943,115.573 436.174,115.573 C434.405,115.573 432.971,117.007 432.971,118.776 L432.971,123.772 C432.971,125.548 432.999,126.013 433.292,126.903 C433.582,127.778 434.052,128.573 434.672,129.243 C435.299,129.928 435.722,130.198 437.259,131.049 L441.825,133.586 C443.371,134.445 445.321,133.888 446.18,132.342 C447.039,130.796 446.483,128.846 444.936,127.987 Z M439.377,102.761 L439.377,97.771 C439.377,96.803 439.389,96.598 439.379,96.63 C439.374,96.644 439.374,96.644 439.374,96.644 C439.357,96.663 439.528,96.554 440.361,96.093 L444.936,93.55 C446.483,92.691 447.039,90.741 446.18,89.195 C445.321,87.649 443.371,87.092 441.825,87.951 L437.254,90.491 C435.714,91.343 435.302,91.606 434.661,92.306 C434.052,92.964 433.582,93.759 433.295,94.626 C432.999,95.53 432.971,95.995 432.971,97.771 L432.971,102.761 C432.971,104.53 434.405,105.964 436.174,105.964 C437.943,105.964 439.377,104.53 439.377,102.761 Z M459.349,85.543 L464.066,82.923 C464.847,82.489 465.031,82.398 465.018,82.401 C465,82.406 465,82.406 464.98,82.41 C465,82.406 465,82.406 465,82.406 C464.999,82.405 464.999,82.405 464.983,82.402 C464.961,82.396 465.141,82.485 465.939,82.926 L470.651,85.543 C472.198,86.402 474.148,85.845 475.007,84.298 C475.865,82.752 475.308,80.802 473.761,79.943 L469.044,77.323 C467.59,76.52 467.263,76.359 466.458,76.168 C466.366,76.147 466.366,76.147 466.272,76.128 C465.438,75.956 464.562,75.956 463.712,76.131 C463.618,76.15 463.618,76.15 463.505,76.177 C462.71,76.37 462.351,76.547 460.954,77.325 L456.239,79.943 C454.692,80.802 454.135,82.752 454.993,84.298 C455.852,85.845 457.802,86.402 459.349,85.543 Z M485.064,93.55 L489.634,96.09 C490.466,96.55 490.644,96.664 490.614,96.631 C490.626,96.644 490.626,96.644 490.626,96.644 C490.611,96.598 490.623,96.803 490.623,97.771 L490.623,102.761 C490.623,104.53 492.057,105.964 493.826,105.964 C495.595,105.964 497.029,104.53 497.029,102.761 L497.029,97.771 C497.029,95.995 497.001,95.53 496.71,94.64 C496.418,93.759 495.948,92.964 495.328,92.294 C494.701,91.609 494.278,91.339 492.741,90.488 L488.175,87.951 C486.629,87.092 484.679,87.649 483.82,89.195 C482.961,90.741 483.517,92.691 485.064,93.55 Z M490.623,118.776 L490.623,123.769 C490.623,124.731 490.611,124.94 490.623,124.901 C490.626,124.893 490.626,124.893 490.626,124.892 C490.643,124.874 490.472,124.983 489.639,125.444 L485.064,127.987 C483.517,128.846 482.961,130.796 483.82,132.342 C484.679,133.888 486.629,134.445 488.175,133.586 L492.746,131.046 C494.286,130.194 494.698,129.931 495.339,129.231 C495.948,128.573 496.418,127.778 496.706,126.91 C497.001,126.013 497.029,125.548 497.029,123.769 L497.029,118.776 C497.029,117.007 495.595,115.573 493.826,115.573 C492.057,115.573 490.623,117.007 490.623,118.776 Z M456.238,109.565 L463.445,113.568 C464.991,114.427 466.941,113.87 467.8,112.324 C468.659,110.778 468.102,108.828 466.555,107.969 L459.349,103.965 C457.803,103.106 455.853,103.663 454.994,105.209 C454.135,106.756 454.692,108.706 456.238,109.565 Z M466.555,113.568 L473.762,109.565 C475.308,108.706 475.865,106.756 475.006,105.209 C474.147,103.663 472.197,103.106 470.651,103.965 L463.445,107.969 C461.898,108.828 461.341,110.778 462.2,112.324 C463.059,113.87 465.009,114.427 466.555,113.568 Z M461.797,110.768 L461.797,118.776 C461.797,120.545 463.231,121.978 465,121.978 C466.769,121.978 468.203,120.545 468.203,118.776 L468.203,110.768 C468.203,109 466.769,107.566 465,107.566 C463.231,107.566 461.797,109 461.797,110.768 Z M434.619,97.554 L441.825,101.558 C443.371,102.417 445.321,101.859 446.18,100.313 C447.039,98.767 446.482,96.817 444.936,95.958 L437.73,91.954 C436.183,91.095 434.233,91.652 433.374,93.199 C432.515,94.745 433.072,96.695 434.619,97.554 Z M488.175,101.558 L495.381,97.554 C496.928,96.695 497.485,94.745 496.626,93.199 C495.767,91.652 493.817,91.095 492.27,91.954 L485.064,95.958 C483.518,96.817 482.961,98.767 483.82,100.313 C484.679,101.859 486.629,102.417 488.175,101.558 Z M461.797,134.79 L461.797,142.797 C461.797,144.566 463.231,146 465,146 C466.769,146 468.203,144.566 468.203,142.797 L468.203,134.79 C468.203,133.021 466.769,131.587 465,131.587 C463.231,131.587 461.797,133.021 461.797,134.79 Z" />
        </g>
        <g id="Black-M" transform="translate(0,200)">
            <path d="M656.239,141.594 L660.956,144.214 C662.345,144.986 662.702,145.163 663.488,145.359 C663.6,145.385 663.6,145.385 663.712,145.409 C664.566,145.583 665.44,145.583 666.286,145.41 C666.383,145.389 666.383,145.389 666.474,145.368 C667.273,145.174 667.652,144.988 669.046,144.212 L673.761,141.594 C675.308,140.735 675.865,138.785 675.007,137.239 C674.148,135.692 672.198,135.135 670.651,135.993 L665.934,138.613 C665.149,139.05 664.958,139.144 664.967,139.142 C664.981,139.138 664.981,139.138 664.996,139.135 C665.002,139.134 664.998,139.134 664.993,139.133 C665.018,139.138 665.018,139.138 665.035,139.142 C665.04,139.143 664.853,139.051 664.068,138.615 L659.349,135.993 C657.802,135.135 655.852,135.692 654.993,137.239 C654.135,138.785 654.692,140.735 656.239,141.594 Z M644.936,127.987 L640.366,125.447 C639.534,124.987 639.356,124.873 639.386,124.905 C639.374,124.893 639.374,124.893 639.374,124.893 C639.389,124.94 639.377,124.732 639.377,123.772 L639.377,118.776 C639.377,117.007 637.943,115.573 636.174,115.573 C634.405,115.573 632.971,117.007 632.971,118.776 L632.971,123.772 C632.971,125.548 632.999,126.013 633.292,126.903 C633.582,127.778 634.052,128.573 634.672,129.243 C635.299,129.928 635.722,130.198 637.259,131.049 L641.825,133.586 C643.371,134.445 645.321,133.888 646.18,132.342 C647.039,130.796 646.483,128.846 644.936,127.987 Z M639.377,102.761 L639.377,97.771 C639.377,96.803 639.389,96.598 639.379,96.63 C639.374,96.644 639.374,96.644 639.374,96.644 C639.357,96.663 639.528,96.554 640.361,96.093 L644.936,93.55 C646.483,92.691 647.039,90.741 646.18,89.195 C645.321,87.649 643.371,87.092 641.825,87.951 L637.254,90.491 C635.714,91.343 635.302,91.606 634.661,92.306 C634.052,92.964 633.582,93.759 633.295,94.626 C632.999,95.53 632.971,95.995 632.971,97.771 L632.971,102.761 C632.971,104.53 634.405,105.964 636.174,105.964 C637.943,105.964 639.377,104.53 639.377,102.761 Z M659.349,85.543 L664.066,82.923 C664.847,82.489 665.031,82.398 665.018,82.401 C665,82.406 665,82.406 664.98,82.41 C665,82.406 665,82.406 665,82.406 C664.999,82.405 664.999,82.405 664.983,82.402 C664.961,82.396 665.141,82.485 665.939,82.926 L670.651,85.543 C672.198,86.402 674.148,85.845 675.007,84.298 C675.865,82.752 675.308,80.802 673.761,79.943 L669.044,77.323 C667.59,76.52 667.263,76.359 666.458,76.168 C666.366,76.147 666.366,76.147 666.272,76.128 C665.438,75.956 664.562,75.956 663.712,76.131 C663.618,76.15 663.618,76.15 663.505,76.177 C662.71,76.37 662.351,76.547 660.954,77.325 L656.239,79.943 C654.692,80.802 654.135,82.752 654.993,84.298 C655.852,85.845 657.802,86.402 659.349,85.543 Z M685.064,93.55 L689.634,96.09 C690.466,96.55 690.644,96.664 690.614,96.631 C690.626,96.644 690.626,96.644 690.626,96.644 C690.611,96.598 690.623,96.803 690.623,97.771 L690.623,102.761 C690.623,104.53 692.057,105.964 693.826,105.964 C695.595,105.964 697.029,104.53 697.029,102.761 L697.029,97.771 C697.029,95.995 697.001,95.53 696.71,94.64 C696.418,93.759 695.948,92.964 695.328,92.294 C694.701,91.609 694.278,91.339 692.741,90.488 L688.175,87.951 C686.629,87.092 684.679,87.649 683.82,89.195 C682.961,90.741 683.517,92.691 685.064,93.55 Z M690.623,118.776 L690.623,123.769 C690.623,124.731 690.611,124.94 690.623,124.901 C690.626,124.893 690.626,124.893 690.626,124.892 C690.643,124.874 690.472,124.983 689.639,125.444 L685.064,127.987 C683.517,128.846 682.961,130.796 683.82,132.342 C684.679,133.888 686.629,134.445 688.175,133.586 L692.746,131.046 C694.286,130.194 694.698,129.931 695.339,129.231 C695.948,128.573 696.418,127.778 696.706,126.91 C697.001,126.013 697.029,125.548 697.029,123.769 L697.029,118.776 C697.029,117.007 695.595,115.573 693.826,115.573 C692.057,115.573 690.623,117.007 690.623,118.776 Z M656.238,109.565 L663.445,113.568 C664.991,114.427 666.941,113.87 667.8,112.324 C668.659,110.778 668.102,108.828 666.555,107.969 L659.349,103.965 C657.803,103.106 655.853,103.663 654.994,105.209 C654.135,106.756 654.692,108.706 656.238,109.565 Z M666.555,113.568 L673.762,109.565 C675.308,108.706 675.865,106.756 675.006,105.209 C674.147,103.663 672.197,103.106 670.651,103.965 L663.445,107.969 C661.898,108.828 661.341,110.778 662.2,112.324 C663.059,113.87 665.009,114.427 666.555,113.568 Z M661.797,110.768 L661.797,118.776 C661.797,120.545 663.231,121.978 665,121.978 C666.769,121.978 668.203,120.545 668.203,118.776 L668.203,110.768 C668.203,109 666.769,107.566 665,107.566 C663.231,107.566 661.797,109 661.797,110.768 Z M634.619,97.554 L641.825,101.558 C643.371,102.417 645.321,101.859 646.18,100.313 C647.039,98.767 646.482,96.817 644.936,95.958 L637.73,91.954 C636.183,91.095 634.233,91.652 633.374,93.199 C632.515,94.745 633.072,96.695 634.619,97.554 Z M688.175,101.558 L695.381,97.554 C696.928,96.695 697.485,94.745 696.626,93.199 C695.767,91.652 693.817,91.095 692.27,91.954 L685.064,95.958 C683.518,96.817 682.961,98.767 683.82,100.313 C684.679,101.859 686.629,102.417 688.175,101.558 Z M661.797,134.79 L661.797,142.797 C661.797,144.566 663.231,146 665,146 C666.769,146 668.203,144.566 668.203,142.797 L668.203,134.79 C668.203,133.021 666.769,131.587 665,131.587 C663.231,131.587 661.797,133.021 661.797,134.79 Z" />
        </g>
    </g>
</svg>