<?xml version="1.0" encoding="UTF-8"?>
<svg height="600" width="800" xmlns="http://www.w3.org/2000/svg" xmlns:xlink="http://www.w3.org/1999/xlink">
    <g id="Notes" font-family="LucidaGrande, 'Lucida Grande', sans-serif" font-size="13">
        <rect fill="white" height="600.0" width="800.0" x="0.0" y="0.0" />
        <g font-size="13">
            <text x="18.0" y="176.0">Small</text>
            <text x="18.0" y="376.0">Medium</text>
            <text x="18.0" y="576.0">Large</text>
        </g>
        <g font-size="9">
            <text x="250.0" y="30.0">Ultralight</text>
            <text x="450.0" y="30.0">Regular</text>
            <text x="650.0" y="30.0">Black</text>
            <text id="template-version" fill="#505050" text-anchor="end" x="785.0" y="575.0">Template v.3.0</text>
            <a href="https://github.com/swhitty/SwiftDraw">
                <text fill="#505050" text-anchor="end" x="785.0" y="590.0">https://github.com/swhitty/SwiftDraw</text>
            </a>
        </g>
    </g>
    <g id="Guides" stroke="rgb(39, 170, 225)" stroke-width="0.5">
        <path id="Capline-S" d="M18,76 l800,0" />
        <path id="H-reference" d="M85,145.755 L87.685,145.755 L113.369,79.287 L114.052,79.287 L114.052,76 L112.148,76 L85,145.755 Z M95.693,121.536 L130.996,121.536 L130.263,119.313 L96.474,119.313 L95.693,121.536 Z M139.15,145.755 L141.787,145.755 L114.638,76 L113.466,76 L113.466,79.287 L139.15,145.755 Z" stroke="none" transform="translate(0,200)" />
        <path id="Baseline-S" d="M18,146 l800,0" />
        <path id="left-margin-Ultralight-M" d="M231.667,256 l0,110" />
        <path id="right-margin-Ultralight-M" d="M298.333,256 l0,110" />
        <path id="left-margin-Regular-M" d="M431.667,256 l0,110" />
        <path id="right-margin-Regular-M" d="M498.333,256 l0,110" />
        <path id="left-margin-Black-M" d="M631.667,256 l0,110" />
        <path id="right-margin-Black-M" d="M698.333,256 l0,110" />
        <path id="Capline-M" d="M18,276 l800,0" />
        <path id="Baseline-M" d="M18,346 l800,0" />
        <path id="Capline-L" d="M18,476 l800,0" />
        <path id="Baseline-L" d="M18,546 l800,0" />
    </g>
    <g id="Symbols">
        <g id="Ultralight-M" transform="translate(0,200)">
            <path d="M255.882,141.594 L260.792,144.214 C262.237,144.986 262.609,145.163 263.427,145.358 C263.543,145.385 263.543,145.385 263.66,145.409 C264.549,145.583 265.458,145.583 266.338,145.41 C266.44,145.389 266.44,145.389 266.534,145.368 C267.366,145.174 267.76,144.988 269.211,144.212 L274.118,141.594 C275.728,140.735 276.308,138.785 275.414,137.239 C274.52,135.692 272.491,135.135 270.882,135.993 L265.972,138.613 C265.155,139.05 264.957,139.144 264.966,139.142 C264.98,139.138 264.98,139.138 264.995,139.135 C265.002,139.134 264.998,139.134 264.993,139.133 C265.019,139.138 265.019,139.138 265.036,139.142 C265.041,139.143 264.847,139.051 264.031,138.615 L259.118,135.993 C257.509,135.135 255.48,135.692 254.586,137.239 C253.692,138.785 254.272,140.735 255.882,141.594 Z M244.119,127.987 L239.362,125.447 C238.497,124.987 238.311,124.873 238.342,124.905 C238.33,124.893 238.33,124.893 238.33,124.893 C238.346,124.94 238.333,124.732 238.333,123.772 L238.333,118.776 C238.333,117.007 236.841,115.573 235,115.573 C233.159,115.573 231.667,117.007 231.667,118.776 L231.667,123.772 C231.667,125.548 231.696,126.013 232,126.903 C232.303,127.778 232.791,128.573 233.436,129.243 C234.089,129.928 234.529,130.198 236.129,131.049 L240.881,133.586 C242.49,134.445 244.519,133.888 245.414,132.342 C246.308,130.796 245.728,128.846 244.119,127.987 Z M238.333,102.761 L238.333,97.771 C238.333,96.803 238.346,96.598 238.335,96.63 C238.33,96.644 238.33,96.644 238.33,96.644 C238.312,96.663 238.491,96.554 239.357,96.093 L244.119,93.55 C245.728,92.691 246.308,90.741 245.414,89.195 C244.519,87.649 242.49,87.092 240.881,87.951 L236.124,90.491 C234.521,91.343 234.092,91.606 233.425,92.306 C232.791,92.964 232.303,93.759 232.003,94.626 C231.696,95.53 231.667,95.995 231.667,97.771 L231.667,102.761 C231.667,104.53 233.159,105.964 235,105.964 C236.841,105.964 238.333,104.53 238.333,102.761 Z M259.118,85.543 L264.028,82.923 C264.84,82.489 265.033,82.398 265.019,82.401 C265,82.406 265,82.406 264.98,82.41 C265,82.406 265,82.406 265,82.406 C264.999,82.405 264.999,82.405 264.982,82.402 C264.959,82.396 265.146,82.485 265.977,82.926 L270.882,85.543 C272.491,86.402 274.52,85.845 275.414,84.298 C276.308,82.752 275.728,80.802 274.118,79.943 L269.208,77.323 C267.695,76.52 267.355,76.359 266.518,76.168 C266.421,76.147 266.421,76.147 266.324,76.128 C265.456,75.956 264.544,75.956 263.66,76.131 C263.562,76.15 263.562,76.15 263.445,76.177 C262.617,76.37 262.244,76.547 260.789,77.325 L255.882,79.943 C254.272,80.802 253.692,82.752 254.586,84.298 C255.48,85.845 257.509,86.402 259.118,85.543 Z M285.881,93.55 L290.638,96.09 C291.503,96.55 291.689,96.664 291.658,96.631 C291.67,96.644 291.67,96.644 291.67,96.644 C291.654,96.598 291.667,96.803 291.667,97.771 L291.667,102.761 C291.667,104.53 293.159,105.964 295,105.964 C296.841,105.964 298.333,104.53 298.333,102.761 L298.333,97.771 C298.333,95.995 298.304,95.53 298.002,94.64 C297.698,93.759 297.209,92.964 296.564,92.294 C295.911,91.609 295.471,91.339 293.871,90.488 L289.119,87.951 C287.51,87.092 285.481,87.649 284.586,89.195 C283.692,90.741 284.272,92.691 285.881,93.55 Z M291.667,118.776 L291.667,123.769 C291.667,124.731 291.654,124.94 291.667,124.901 C291.67,124.893 291.67,124.893 291.67,124.892 C291.688,124.874 291.509,124.983 290.643,125.444 L285.881,127.987 C284.272,128.846 283.692,130.796 284.586,132.342 C285.481,133.888 287.51,134.445 289.119,133.586 L293.876,131.046 C295.479,130.194 295.908,129.931 296.575,129.231 C297.209,128.573 297.698,127.778 297.997,126.91 C298.305,126.013 298.333,125.548 298.333,123.769 L298.333,118.776 C298.333,117.007 296.841,115.573 295,115.573 C293.159,115.573 291.667,117.007 291.667,118.776 Z M255.881,109.565 L263.381,113.568 C264.99,114.427 267.02,113.87 267.914,112.324 C268.808,110.778 268.228,108.828 266.619,107.969 L259.119,103.965 C257.51,103.106 255.48,103.663 254.586,105.209 C253.692,106.756 254.272,108.706 255.881,109.565 Z M266.619,113.568 L274.119,109.565 C275.728,108.706 276.308,106.756 275.414,105.209 C274.52,103.663 272.49,103.106 270.881,103.965 L263.381,107.969 C261.772,108.828 261.192,110.778 262.086,112.324 C262.98,113.87 265.01,114.427 266.619,113.568 Z M261.667,110.768 L261.667,118.776 C261.667,120.545 263.159,121.978 265,121.978 C266.841,121.978 268.333,120.545 268.333,118.776 L268.333,110.768 C268.333,109 266.841,107.566 265,107.566 C263.159,107.566 261.667,109 261.667,110.768 Z M233.381,97.554 L240.881,101.557 C242.49,102.417 244.52,101.859 245.414,100.313 C246.308,98.767 245.728,96.817 244.119,95.958 L236.619,91.954 C235.01,91.095 232.98,91.652 232.086,93.199 C231.192,94.745 231.772,96.695 233.381,97.554 Z M289.119,101.557 L296.619,97.554 C298.228,96.695 298.808,94.745 297.914,93.199 C297.02,91.652 294.99,91.095 293.381,91.954 L285.881,95.958 C284.272,96.817 283.692,98.767 284.586,100.313 C285.48,101.859 287.51,102.417 289.119,101.557 Z M261.667,134.79 L261.667,142.797 C261.667,144.566 263.159,146 265,146 C266.841,146 268.333,144.566 268.333,142.797 L268.333,134.79 C268.333,133.021 266.841,131.587 265,131.587 C263.159,131.587 261.667,133.021 261.667,134.79 Z" />
        </g>
        <g id="Regular-M" transform="translate(0,200)">
            <path d="M455.882,141.594 L460.792,144.214 C462.237,144.986 462.609,145.163 463.427,145.358 C463.543,145.385 463.543,145.385 463.66,145.409 C464.549,145.583 465.458,145.583 466.338,145.41 C466.44,145.389 466.44,145.389 466.534,145.368 C467.366,145.174 467.76,144.988 469.211,144.212 L474.118,141.594 C475.728,140.735 476.308,138.785 475.414,137.239 C474.52,135.692 472.491,135.135 470.882,135.993 L465.972,138.613 C465.155,139.05 464.957,139.144 464.966,139.142 C464.98,139.138 464.98,139.138 464.995,139.135 C465.002,139.134 464.998,139.134 464.993,139.133 C465.019,139.138 465.019,139.138 465.036,139.142 C465.041,139.143 464.847,139.051 464.031,138.615 L459.118,135.993 C457.509,135.135 455.48,135.692 454.586,137.239 C453.692,138.785 454.272,140.735 455.882,141.594 Z M444.119,127.987 L439.362,125.447 C438.497,124.987 438.311,124.873 438.342,124.905 C438.33,124.893 438.33,124.893 438.33,124.893 C438.346,124.94 438.333,124.732 438.333,123.772 L438.333,118.776 C438.333,117.007 436.841,115.573 435,115.573 C433.159,115.573 431.667,117.007 431.667,118.776 L431.667,123.772 C431.667,125.548 431.696,126.013 432,126.903 C432.302,127.778 432.791,128.573 433.436,129.243 C434.089,129.928 434.529,130.198 436.129,131.049 L440.881,133.586 C442.49,134.445 444.519,133.888 445.414,132.342 C446.308,130.796 445.728,128.846 444.119,127.987 Z M438.333,102.761 L438.333,97.771 C438.333,96.803 438.346,96.598 438.335,96.63 C438.33,96.644 438.33,96.644 438.33,96.644 C438.312,96.663 438.491,96.554 439.357,96.093 L444.119,93.55 C445.728,92.691 446.308,90.741 445.414,89.195 C444.519,87.649 442.49,87.092 440.881,87.951 L436.124,90.491 C434.521,91.343 434.092,91.606 433.425,92.306 C432.791,92.964 432.302,93.759 432.003,94.626 C431.696,95.53 431.667,95.995 431.667,97.771 L431.667,102.761 C431.667,104.53 433.159,105.964 435,105.964 C436.841,105.964 438.333,104.53 438.333,102.761 Z M459.118,85.543 L464.028,82.923 C464.84,82.489 465.033,82.398 465.019,82.401 C465,82.406 465,82.406 464.98,82.41 C465,82.406 465,82.406 465,82.406 C464.999,82.405 464.999,82.405 464.982,82.402 C464.959,82.396 465.146,82.485 465.977,82.926 L470.882,85.543 C472.491,86.402 474.52,85.845 475.414,84.298 C476.308,82.752 475.728,80.802 474.118,79.943 L469.208,77.323 C467.695,76.52 467.355,76.359 466.518,76.168 C466.421,76.147 466.421,76.147 466.324,76.128 C465.456,75.956 464.544,75.956 463.66,76.131 C463.562,76.15 463.562,76.15 463.444,76.177 C462.617,76.37 462.244,76.547 460.789,77.325 L455.882,79.943 C454.272,80.802 453.692,82.752 454.586,84.298 C455.48,85.845 457.509,86.402 459.118,85.543 Z M485.881,93.55 L490.638,96.09 C491.503,96.55 491.689,96.664 491.658,96.631 C491.67,96.644 491.67,96.644 491.67,96.644 C491.654,96.598 491.667,96.803 491.667,97.771 L491.667,102.761 C491.667,104.53 493.159,105.964 495,105.964 C496.841,105.964 498.333,104.53 498.333,102.761 L498.333,97.771 C498.333,95.995 498.304,95.53 498.002,94.64 C497.697,93.759 497.209,92.964 496.564,92.294 C495.911,91.609 495.471,91.339 493.871,90.488 L489.119,87.951 C487.51,87.092 485.481,87.649 484.586,89.195 C483.692,90.741 484.272,92.691 485.881,93.55 Z M491.667,118.776 L491.667,123.769 C491.667,124.731 491.654,124.94 491.667,124.901 C491.67,124.893 491.67,124.893 491.67,124.892 C491.688,124.874 491.509,124.983 490.643,125.444 L485.881,127.987 C484.272,128.846 483.692,130.796 484.586,132.342 C485.481,133.888 487.51,134.445 489.119,133.586 L493.876,131.046 C495.479,130.194 495.908,129.931 496.575,129.231 C497.209,128.573 497.698,127.778 497.997,126.91 C498.304,126.013 498.333,125.548 498.333,123.769 L498.333,118.776 C498.333,117.007 496.841,115.573 495,115.573 C493.159,115.573 491.667,117.007 491.667,118.776 Z M455.881,109.565 L463.381,113.568 C464.99,114.427 467.02,113.87 467.914,112.324 C468.808,110.778 468.228,108.828 466.619,107.969 L459.119,103.965 C457.51,103.106 455.48,103.663 454.586,105.209 C453.692,106.756 454.272,108.706 455.881,109.565 Z M466.619,113.568 L474.119,109.565 C475.728,108.706 476.308,106.756 475.414,105.209 C474.52,103.663 472.49,103.106 470.881,103.965 L463.381,107.969 C461.772,108.828 461.192,110.778 462.086,112.324 C462.98,113.87 465.01,114.427 466.619,113.568 Z M461.667,110.768 L461.667,118.776 C461.667,120.545 463.159,121.978 465,121.978 C466.841,121.978 468.333,120.545 468.333,118.776 L468.333,110.768 C468.333,109 466.841,107.566 465,107.566 C463.159,107.566 461.667,109 461.667,110.768 Z M433.381,97.554 L440.881,101.557 C442.49,102.417 444.52,101.859 445.414,100.313 C446.308,98.767 445.728,96.817 444.119,95.958 L436.619,91.954 C435.01,91.095 432.98,91.652 432.086,93.199 C431.192,94.745 431.772,96.695 433.381,97.554 Z M489.119,101.557 L496.619,97.554 C498.228,96.695 498.808,94.745 497.914,93.199 C497.02,91.652 494.99,91.095 493.381,91.954 L485.881,95.958 C484.272,96.817 483.692,98.767 484.586,100.313 C485.48,101.859 487.51,102.417 489.119,101.557 Z M461.667,134.79 L461.667,142.797 C461.667,144.566 463.159,146 465,146 C466.841,146 468.333,144.566 468.333,142.797 L468.333,134.79 C468.333,133.021 466.841,131.587 465,131.587 C463.159,131.587 461.667,133.021 461.667,134.79 Z" />
        </g>
        <g id="Black-M" transform="translate(0,200)">
            <path d="M655.882,141.594 L660.792,144.214 C662.237,144.986 662.609,145.163 663.427,145.358 C663.543,145.385 663.543,145.385 663.66,145.409 C664.549,145.583 665.458,145.583 666.338,145.41 C666.44,145.389 666.44,145.389 666.534,145.368 C667.366,145.174 667.76,144.988 669.211,144.212 L674.118,141.594 C675.728,140.735 676.308,138.785 675.414,137.239 C674.52,135.692 672.491,135.135 670.882,135.993 L665.972,138.613 C665.155,139.05 664.957,139.144 664.966,139.142 C664.98,139.138 664.98,139.138 664.995,139.135 C665.002,139.134 664.998,139.134 664.993,139.133 C665.019,139.138 665.019,139.138 665.036,139.142 C665.041,139.143 664.847,139.051 664.031,138.615 L659.118,135.993 C657.509,135.135 655.48,135.692 654.586,137.239 C653.692,138.785 654.272,140.735 655.882,141.594 Z M644.119,127.987 L639.362,125.447 C638.497,124.987 638.311,124.873 638.342,124.905 C638.33,124.893 638.33,124.893 638.33,124.893 C638.346,124.94 638.333,124.732 638.333,123.772 L638.333,118.776 C638.333,117.007 636.841,115.573 635,115.573 C633.159,115.573 631.667,117.007 631.667,118.776 L631.667,123.772 C631.667,125.548 631.696,126.013 632,126.903 C632.303,127.778 632.791,128.573 633.436,129.243 C634.089,129.928 634.529,130.198 636.13,131.049 L640.881,133.586 C642.49,134.445 644.519,133.888 645.414,132.342 C646.308,130.796 645.728,128.846 644.119,127.987 Z M638.333,102.761 L638.333,97.771 C638.333,96.803 638.346,96.598 638.335,96.63 C638.33,96.644 638.33,96.644 638.33,96.644 C638.312,96.663 638.491,96.554 639.357,96.093 L644.119,93.55 C645.728,92.691 646.308,90.741 645.414,89.195 C644.519,87.649 642.49,87.092 640.881,87.951 L636.124,90.491 C634.521,91.343 634.093,91.606 633.425,92.306 C632.791,92.964 632.302,93.759 632.003,94.626 C631.696,95.53 631.667,95.995 631.667,97.771 L631.667,102.761 C631.667,104.53 633.159,105.964 635,105.964 C636.841,105.964 638.333,104.53 638.333,102.761 Z M659.118,85.543 L664.028,82.923 C664.84,82.489 665.033,82.398 665.019,82.401 C665,82.406 665,82.406 664.98,82.41 C665,82.406 665,82.406 665,82.406 C664.999,82.405 664.999,82.405 664.982,82.402 C664.959,82.396 665.146,82.485 665.977,82.926 L670.882,85.543 C672.491,86.402 674.52,85.845 675.414,84.298 C676.308,82.752 675.728,80.802 674.118,79.943 L669.208,77.323 C667.695,76.52 667.355,76.359 666.518,76.168 C666.421,76.147 666.421,76.147 666.324,76.128 C665.456,75.956 664.544,75.956 663.66,76.131 C663.562,76.15 663.562,76.15 663.445,76.177 C662.617,76.37 662.244,76.547 660.789,77.325 L655.882,79.943 C654.272,80.802 653.692,82.752 654.586,84.298 C655.48,85.845 657.509,86.402 659.118,85.543 Z M685.881,93.55 L690.638,96.09 C691.503,96.55 691.689,96.664 691.658,96.631 C691.67,96.644 691.67,96.644 691.67,96.644 C691.654,96.598 691.667,96.803 691.667,97.771 L691.667,102.761 C691.667,104.53 693.159,105.964 695,105.964 C696.841,105.964 698.333,104.53 698.333,102.761 L698.333,97.771 C698.333,95.995 698.305,95.53 698.002,94.64 C697.698,93.759 697.209,92.964 696.564,92.294 C695.911,91.609 695.471,91.339 693.871,90.488 L689.119,87.951 C687.51,87.092 685.481,87.649 684.586,89.195 C683.692,90.741 684.272,92.691 685.881,93.55 Z M691.667,118.776 L691.667,123.769 C691.667,124.731 691.654,124.94 691.667,124.901 C691.67,124.893 691.67,124.893 691.67,124.892 C691.688,124.874 691.509,124.983 690.643,125.444 L685.881,127.987 C684.272,128.846 683.692,130.796 684.586,132.342 C685.481,133.888 687.51,134.445 689.119,133.586 L693.876,131.046 C695.479,130.194 695.908,129.931 696.575,129.231 C697.209,128.573 697.698,127.778 697.997,126.91 C698.305,126.013 698.333,125.548 698.333,123.769 L698.333,118.776 C698.333,117.007 696.841,115.573 695,115.573 C693.159,115.573 691.667,117.007 691.667,118.776 Z M655.881,109.565 L663.381,113.568 C664.99,114.427 667.02,113.87 667.914,112.324 C668.808,110.778 668.228,108.828 666.619,107.969 L659.119,103.965 C657.51,103.106 655.48,103.663 654.586,105.209 C653.692,106.756 654.272,108.706 655.881,109.565 Z M666.619,113.568 L674.119,109.565 C675.728,108.706 676.308,106.756 675.414,105.209 C674.52,103.663 672.49,103.106 670.881,103.965 L663.381,107.969 C661.772,108.828 661.192,110.778 662.086,112.324 C662.98,113.87 665.01,114.427 666.619,113.568 Z M661.667,110.768 L661.667,118.776 C661.667,120.545 663.159,121.978 665,121.978 C666.841,121.978 668.333,120.545 668.333,118.776 L668.333,110.768 C668.333,109 666.841,107.566 665,107.566 C663.159,107.566 661.667,109 661.667,110.768 Z M633.381,97.554 L640.881,101.557 C642.49,102.417 644.52,101.859 645.414,100.313 C646.308,98.767 645.728,96.817 644.119,95.958 L636.619,91.954 C635.01,91.095 632.98,91.652 632.086,93.199 C631.192,94.745 631.772,96.695 633.381,97.554 Z M689.119,101.557 L696.619,97.554 C698.228,96.695 698.808,94.745 697.914,93.199 C697.02,91.652 694.99,91.095 693.381,91.954 L685.881,95.958 C684.272,96.817 683.692,98.767 684.586,100.313 C685.48,101.859 687.51,102.417 689.119,101.557 Z M661.667,134.79 L661.667,142.797 C661.667,144.566 663.159,146 665,146 C666.841,146 668.333,144.566 668.333,142.797 L668.333,134.79 C668.333,133.021 666.841,131.587 665,131.587 C663.159,131.587 661.667,133.021 661.667,134.79 Z" />
        </g>
    </g>
</svg>