<?xml version="1.0" encoding="UTF-8"?>
<svg height="600" width="800" xmlns="http://www.w3.org/2000/svg" xmlns:xlink="http://www.w3.org/1999/xlink">
    <g id="Notes" font-family="LucidaGrande, 'Lucida Grande', sans-serif" font-size="13">
        <rect fill="white" height="600.0" width="800.0" x="0.0" y="0.0" />
        <g font-size="13">
            <text x="18.0" y="176.0">Small</text>
            <text x="18.0" y="376.0">Medium</text>
            <text x="18.0" y="576.0">Large</text>
        </g>
        <g font-size="9">
            <text x="250.0" y="30.0">Ultralight</text>
            <text x="450.0" y="30.0">Regular</text>
            <text x="650.0" y="30.0">Black</text>
            <text id="template-version" fill="#505050" text-anchor="end" x="785.0" y="575.0">Template v.3.0</text>
            <a href="https://github.com/swhitty/SwiftDraw">
                <text fill="#505050" text-anchor="end" x="785.0" y="590.0">https://github.com/swhitty/SwiftDraw</text>
            </a>
        </g>
    </g>
    <g id="Guides" stroke="rgb(39, 170, 225)" stroke-width="0.5">
        <path id="Capline-S" d="M18,76 l800,0" />
        <path id="H-reference" d="M85,145.755 L87.685,145.755 L113.369,79.287 L114.052,79.287 L114.052,76 L112.148,76 L85,145.755 Z M95.693,121.536 L130.996,121.536 L130.263,119.313 L96.474,119.313 L95.693,121.536 Z M139.15,145.755 L141.787,145.755 L114.638,76 L113.466,76 L113.466,79.287 L139.15,145.755 Z" stroke="none" transform="translate(0,200)" />
        <path id="Baseline-S" d="M18,146 l800,0" />
        <path id="left-margin-Ultralight-M" d="M230,256 l0,110" />
        <path id="right-margin-Ultralight-M" d="M300,256 l0,110" />
        <path id="left-margin-Regular-M" d="M430,256 l0,110" />
        <path id="right-margin-Regular-M" d="M500,256 l0,110" />
        <path id="left-margin-Black-M" d="M630,256 l0,110" />
        <path id="right-margin-Black-M" d="M700,256 l0,110" />
        <path id="Capline-M" d="M18,276 l800,0" />
        <path id="Baseline-M" d="M18,346 l800,0" />
        <path id="Capline-L" d="M18,476 l800,0" />
        <path id="Baseline-L" d="M18,546 l800,0" />
    </g>
    <g id="Symbols">
        <g id="Ultralight-M" transform="translate(0,200)">
            <path d="M244.583,122.667 C244.583,126.534 246.12,130.244 248.855,132.979 C251.59,135.714 255.299,137.25 259.167,137.25 L270.833,137.25 C278.887,137.25 285.417,130.721 285.417,122.667 C285.417,114.613 278.888,108.083 270.833,108.083 L259.167,108.083 C254.334,108.083 250.417,104.166 250.417,99.333 C250.417,94.501 254.334,90.583 259.167,90.583 L270.833,90.583 C273.154,90.583 275.38,91.505 277.021,93.146 C278.661,94.787 279.583,97.013 279.583,99.333 C279.583,100.944 280.889,102.25 282.5,102.25 C284.111,102.25 285.417,100.944 285.417,99.333 C285.417,95.466 283.88,91.756 281.145,89.021 C278.41,86.286 274.701,84.75 270.833,84.75 L259.167,84.75 C251.113,84.75 244.583,91.279 244.583,99.333 C244.583,107.387 251.113,113.917 259.167,113.917 L270.833,113.917 C275.666,113.917 279.583,117.834 279.583,122.667 C279.583,127.499 275.666,131.417 270.833,131.417 L259.167,131.417 C256.846,131.417 254.62,130.495 252.979,128.854 C251.339,127.213 250.417,124.987 250.417,122.667 C250.417,121.056 249.111,119.75 247.5,119.75 C245.889,119.75 244.583,121.056 244.583,122.667 Z M262.083,81.833 L262.083,140.167 C262.083,141.777 263.389,143.083 265,143.083 C266.611,143.083 267.917,141.777 267.917,140.167 L267.917,81.833 C267.917,80.223 266.611,78.917 265,78.917 C263.389,78.917 262.083,80.223 262.083,81.833 Z" />
        </g>
        <g id="Regular-M" transform="translate(0,200)">
            <path d="M444.583,122.667 C444.583,126.534 446.12,130.244 448.855,132.979 C451.59,135.714 455.299,137.25 459.167,137.25 L470.833,137.25 C478.887,137.25 485.417,130.721 485.417,122.667 C485.417,114.613 478.888,108.083 470.833,108.083 L459.167,108.083 C454.334,108.083 450.417,104.166 450.417,99.333 C450.417,94.501 454.334,90.583 459.167,90.583 L470.833,90.583 C473.154,90.583 475.38,91.505 477.021,93.146 C478.661,94.787 479.583,97.013 479.583,99.333 C479.583,100.944 480.889,102.25 482.5,102.25 C484.111,102.25 485.417,100.944 485.417,99.333 C485.417,95.466 483.88,91.756 481.145,89.021 C478.41,86.286 474.701,84.75 470.833,84.75 L459.167,84.75 C451.113,84.75 444.583,91.279 444.583,99.333 C444.583,107.387 451.113,113.917 459.167,113.917 L470.833,113.917 C475.666,113.917 479.583,117.834 479.583,122.667 C479.583,127.499 475.666,131.417 470.833,131.417 L459.167,131.417 C456.846,131.417 454.62,130.495 452.979,128.854 C451.339,127.213 450.417,124.987 450.417,122.667 C450.417,121.056 449.111,119.75 447.5,119.75 C445.889,119.75 444.583,121.056 444.583,122.667 Z M462.083,81.833 L462.083,140.167 C462.083,141.777 463.389,143.083 465,143.083 C466.611,143.083 467.917,141.777 467.917,140.167 L467.917,81.833 C467.917,80.223 466.611,78.917 465,78.917 C463.389,78.917 462.083,80.223 462.083,81.833 Z" />
        </g>
        <g id="Black-M" transform="translate(0,200)">
            <path d="M644.583,122.667 C644.583,126.534 646.12,130.244 648.855,132.979 C651.59,135.714 655.299,137.25 659.167,137.25 L670.833,137.25 C678.888,137.25 685.417,130.721 685.417,122.667 C685.417,114.613 678.888,108.083 670.833,108.083 L659.167,108.083 C654.334,108.083 650.417,104.166 650.417,99.333 C650.417,94.501 654.334,90.583 659.167,90.583 L670.833,90.583 C673.154,90.583 675.38,91.505 677.021,93.146 C678.661,94.787 679.583,97.013 679.583,99.333 C679.583,100.944 680.889,102.25 682.5,102.25 C684.111,102.25 685.417,100.944 685.417,99.333 C685.417,95.466 683.88,91.756 681.145,89.021 C678.41,86.286 674.701,84.75 670.833,84.75 L659.167,84.75 C651.113,84.75 644.583,91.279 644.583,99.333 C644.583,107.387 651.113,113.917 659.167,113.917 L670.833,113.917 C675.666,113.917 679.583,117.834 679.583,122.667 C679.583,127.499 675.666,131.417 670.833,131.417 L659.167,131.417 C656.846,131.417 654.62,130.495 652.979,128.854 C651.339,127.213 650.417,124.987 650.417,122.667 C650.417,121.056 649.111,119.75 647.5,119.75 C645.889,119.75 644.583,121.056 644.583,122.667 Z M662.083,81.833 L662.083,140.167 C662.083,141.777 663.389,143.083 665,143.083 C666.611,143.083 667.917,141.777 667.917,140.167 L667.917,81.833 C667.917,80.223 666.611,78.917 665,78.917 C663.389,78.917 662.083,80.223 662.083,81.833 Z" />
        </g>
    </g>
</svg>