<?xml version="1.0" encoding="UTF-8"?>
<svg height="600" width="800" xmlns="http://www.w3.org/2000/svg" xmlns:xlink="http://www.w3.org/1999/xlink">
    <g id="Notes" font-family="LucidaGrande, 'Lucida Grande', sans-serif" font-size="13">
        <rect fill="white" height="600.0" width="800.0" x="0.0" y="0.0" />
        <g font-size="13">
            <text x="18.0" y="176.0">Small</text>
            <text x="18.0" y="376.0">Medium</text>
            <text x="18.0" y="576.0">Large</text>
        </g>
        <g font-size="9">
            <text x="250.0" y="30.0">Ultralight</text>
            <text x="450.0" y="30.0">Regular</text>
            <text x="650.0" y="30.0">Black</text>
            <text id="template-version" fill="#505050" text-anchor="end" x="785.0" y="575.0">Template v.3.0</text>
            <a href="https://github.com/swhitty/SwiftDraw">
                <text fill="#505050" text-anchor="end" x="785.0" y="590.0">https://github.com/swhitty/SwiftDraw</text>
            </a>
        </g>
    </g>
    <g id="Guides" stroke="rgb(39, 170, 225)" stroke-width="0.5">
        <path id="Capline-S" d="M18,76 l800,0" />
        <path id="H-reference" d="M85,145.755 L87.685,145.755 L113.369,79.287 L114.052,79.287 L114.052,76 L112.148,76 L85,145.755 Z M95.693,121.536 L130.996,121.536 L130.263,119.313 L96.474,119.313 L95.693,121.536 Z M139.15,145.755 L141.787,145.755 L114.638,76 L113.466,76 L113.466,79.287 L139.15,145.755 Z" stroke="none" transform="translate(0,200)" />
        <path id="Baseline-S" d="M18,146 l800,0" />
        <path id="left-margin-Ultralight-M" d="M230,256 l0,110" />
        <path id="right-margin-Ultralight-M" d="M300,256 l0,110" />
        <path id="left-margin-Regular-M" d="M430,256 l0,110" />
        <path id="right-margin-Regular-M" d="M500,256 l0,110" />
        <path id="left-margin-Black-M" d="M630,256 l0,110" />
        <path id="right-margin-Black-M" d="M700,256 l0,110" />
        <path id="Capline-M" d="M18,276 l800,0" />
        <path id="Baseline-M" d="M18,346 l800,0" />
        <path id="Capline-L" d="M18,476 l800,0" />
        <path id="Baseline-L" d="M18,546 l800,0" />
    </g>
    <g id="Symbols">
        <g id="Ultralight-M" transform="translate(0,200)">
            <path d="M257.708,100.792 L270.104,100.792 C272.118,100.792 273.75,102.424 273.75,104.438 C273.75,106.451 272.118,108.083 270.104,108.083 L257.708,108.083 L257.708,113.917 L271.562,113.917 C273.576,113.917 275.208,115.549 275.208,117.562 C275.208,119.576 273.576,121.208 271.562,121.208 L257.708,121.208 C256.098,121.208 254.792,122.514 254.792,124.125 C254.792,125.736 256.098,127.042 257.708,127.042 L271.562,127.042 C276.798,127.042 281.042,122.798 281.042,117.562 C281.042,112.327 276.798,108.083 271.562,108.083 L257.708,108.083 C253.819,108.083 253.819,113.917 257.708,113.917 L270.104,113.917 C275.339,113.917 279.583,109.673 279.583,104.438 C279.583,99.202 275.339,94.958 270.104,94.958 L257.708,94.958 C256.098,94.958 254.792,96.264 254.792,97.875 C254.792,99.486 256.098,100.792 257.708,100.792 Z M257.708,94.958 L253.333,94.958 C251.723,94.958 250.417,96.264 250.417,97.875 C250.417,99.486 251.723,100.792 253.333,100.792 L257.708,100.792 C259.319,100.792 260.625,99.486 260.625,97.875 C260.625,96.264 259.319,94.958 257.708,94.958 Z M254.792,97.875 L254.792,124.125 C254.792,125.736 256.098,127.042 257.708,127.042 C259.319,127.042 260.625,125.736 260.625,124.125 L260.625,97.875 C260.625,96.264 259.319,94.958 257.708,94.958 C256.098,94.958 254.792,96.264 254.792,97.875 Z M257.708,121.208 L253.333,121.208 C251.723,121.208 250.417,122.514 250.417,124.125 C250.417,125.736 251.723,127.042 253.333,127.042 L257.708,127.042 C259.319,127.042 260.625,125.736 260.625,124.125 C260.625,122.514 259.319,121.208 257.708,121.208 Z M256.25,93.5 L256.25,97.875 C256.25,99.486 257.556,100.792 259.167,100.792 C260.777,100.792 262.083,99.486 262.083,97.875 L262.083,93.5 C262.083,91.889 260.777,90.583 259.167,90.583 C257.556,90.583 256.25,91.889 256.25,93.5 Z M256.25,124.125 L256.25,128.5 C256.25,130.111 257.556,131.417 259.167,131.417 C260.777,131.417 262.083,130.111 262.083,128.5 L262.083,124.125 C262.083,122.514 260.777,121.208 259.167,121.208 C257.556,121.208 256.25,122.514 256.25,124.125 Z M265,93.5 L265,97.875 C265,99.486 266.306,100.792 267.917,100.792 C269.527,100.792 270.833,99.486 270.833,97.875 L270.833,93.5 C270.833,91.889 269.527,90.583 267.917,90.583 C266.306,90.583 265,91.889 265,93.5 Z M265,124.125 L265,128.5 C265,130.111 266.306,131.417 267.917,131.417 C269.527,131.417 270.833,130.111 270.833,128.5 L270.833,124.125 C270.833,122.514 269.527,121.208 267.917,121.208 C266.306,121.208 265,122.514 265,124.125 Z M291.25,111 C291.25,125.498 279.498,137.25 265,137.25 C250.502,137.25 238.75,125.498 238.75,111 C238.75,96.502 250.502,84.75 265,84.75 C279.498,84.75 291.25,96.502 291.25,111 Z M297.083,111 C297.083,93.28 282.72,78.917 265,78.917 C247.28,78.917 232.917,93.28 232.917,111 C232.917,128.72 247.28,143.083 265,143.083 C282.72,143.083 297.083,128.72 297.083,111 Z" />
        </g>
        <g id="Regular-M" transform="translate(0,200)">
            <path d="M457.708,100.792 L470.104,100.792 C472.118,100.792 473.75,102.424 473.75,104.438 C473.75,106.451 472.118,108.083 470.104,108.083 L457.708,108.083 L457.708,113.917 L471.562,113.917 C473.576,113.917 475.208,115.549 475.208,117.562 C475.208,119.576 473.576,121.208 471.562,121.208 L457.708,121.208 C456.098,121.208 454.792,122.514 454.792,124.125 C454.792,125.736 456.098,127.042 457.708,127.042 L471.562,127.042 C476.798,127.042 481.042,122.798 481.042,117.562 C481.042,112.327 476.798,108.083 471.562,108.083 L457.708,108.083 C453.819,108.083 453.819,113.917 457.708,113.917 L470.104,113.917 C475.339,113.917 479.583,109.673 479.583,104.438 C479.583,99.202 475.339,94.958 470.104,94.958 L457.708,94.958 C456.098,94.958 454.792,96.264 454.792,97.875 C454.792,99.486 456.098,100.792 457.708,100.792 Z M457.708,94.958 L453.333,94.958 C451.723,94.958 450.417,96.264 450.417,97.875 C450.417,99.486 451.723,100.792 453.333,100.792 L457.708,100.792 C459.319,100.792 460.625,99.486 460.625,97.875 C460.625,96.264 459.319,94.958 457.708,94.958 Z M454.792,97.875 L454.792,124.125 C454.792,125.736 456.098,127.042 457.708,127.042 C459.319,127.042 460.625,125.736 460.625,124.125 L460.625,97.875 C460.625,96.264 459.319,94.958 457.708,94.958 C456.098,94.958 454.792,96.264 454.792,97.875 Z M457.708,121.208 L453.333,121.208 C451.723,121.208 450.417,122.514 450.417,124.125 C450.417,125.736 451.723,127.042 453.333,127.042 L457.708,127.042 C459.319,127.042 460.625,125.736 460.625,124.125 C460.625,122.514 459.319,121.208 457.708,121.208 Z M456.25,93.5 L456.25,97.875 C456.25,99.486 457.556,100.792 459.167,100.792 C460.777,100.792 462.083,99.486 462.083,97.875 L462.083,93.5 C462.083,91.889 460.777,90.583 459.167,90.583 C457.556,90.583 456.25,91.889 456.25,93.5 Z M456.25,124.125 L456.25,128.5 C456.25,130.111 457.556,131.417 459.167,131.417 C460.777,131.417 462.083,130.111 462.083,128.5 L462.083,124.125 C462.083,122.514 460.777,121.208 459.167,121.208 C457.556,121.208 456.25,122.514 456.25,124.125 Z M465,93.5 L465,97.875 C465,99.486 466.306,100.792 467.917,100.792 C469.527,100.792 470.833,99.486 470.833,97.875 L470.833,93.5 C470.833,91.889 469.527,90.583 467.917,90.583 C466.306,90.583 465,91.889 465,93.5 Z M465,124.125 L465,128.5 C465,130.111 466.306,131.417 467.917,131.417 C469.527,131.417 470.833,130.111 470.833,128.5 L470.833,124.125 C470.833,122.514 469.527,121.208 467.917,121.208 C466.306,121.208 465,122.514 465,124.125 Z M491.25,111 C491.25,125.498 479.498,137.25 465,137.25 C450.502,137.25 438.75,125.498 438.75,111 C438.75,96.502 450.502,84.75 465,84.75 C479.498,84.75 491.25,96.502 491.25,111 Z M497.083,111 C497.083,93.28 482.72,78.917 465,78.917 C447.28,78.917 432.917,93.28 432.917,111 C432.917,128.72 447.28,143.083 465,143.083 C482.72,143.083 497.083,128.72 497.083,111 Z" />
        </g>
        <g id="Black-M" transform="translate(0,200)">
            <path d="M657.708,100.792 L670.104,100.792 C672.118,100.792 673.75,102.424 673.75,104.438 C673.75,106.451 672.118,108.083 670.104,108.083 L657.708,108.083 L657.708,113.917 L671.562,113.917 C673.576,113.917 675.208,115.549 675.208,117.562 C675.208,119.576 673.576,121.208 671.562,121.208 L657.708,121.208 C656.097,121.208 654.792,122.514 654.792,124.125 C654.792,125.736 656.097,127.042 657.708,127.042 L671.562,127.042 C676.798,127.042 681.042,122.798 681.042,117.562 C681.042,112.327 676.798,108.083 671.562,108.083 L657.708,108.083 C653.819,108.083 653.819,113.917 657.708,113.917 L670.104,113.917 C675.339,113.917 679.583,109.673 679.583,104.438 C679.583,99.202 675.339,94.958 670.104,94.958 L657.708,94.958 C656.097,94.958 654.792,96.264 654.792,97.875 C654.792,99.486 656.097,100.792 657.708,100.792 Z M657.708,94.958 L653.333,94.958 C651.723,94.958 650.417,96.264 650.417,97.875 C650.417,99.486 651.723,100.792 653.333,100.792 L657.708,100.792 C659.319,100.792 660.625,99.486 660.625,97.875 C660.625,96.264 659.319,94.958 657.708,94.958 Z M654.792,97.875 L654.792,124.125 C654.792,125.736 656.097,127.042 657.708,127.042 C659.319,127.042 660.625,125.736 660.625,124.125 L660.625,97.875 C660.625,96.264 659.319,94.958 657.708,94.958 C656.097,94.958 654.792,96.264 654.792,97.875 Z M657.708,121.208 L653.333,121.208 C651.723,121.208 650.417,122.514 650.417,124.125 C650.417,125.736 651.723,127.042 653.333,127.042 L657.708,127.042 C659.319,127.042 660.625,125.736 660.625,124.125 C660.625,122.514 659.319,121.208 657.708,121.208 Z M656.25,93.5 L656.25,97.875 C656.25,99.486 657.556,100.792 659.167,100.792 C660.778,100.792 662.083,99.486 662.083,97.875 L662.083,93.5 C662.083,91.889 660.778,90.583 659.167,90.583 C657.556,90.583 656.25,91.889 656.25,93.5 Z M656.25,124.125 L656.25,128.5 C656.25,130.111 657.556,131.417 659.167,131.417 C660.778,131.417 662.083,130.111 662.083,128.5 L662.083,124.125 C662.083,122.514 660.778,121.208 659.167,121.208 C657.556,121.208 656.25,122.514 656.25,124.125 Z M665,93.5 L665,97.875 C665,99.486 666.306,100.792 667.917,100.792 C669.528,100.792 670.833,99.486 670.833,97.875 L670.833,93.5 C670.833,91.889 669.528,90.583 667.917,90.583 C666.306,90.583 665,91.889 665,93.5 Z M665,124.125 L665,128.5 C665,130.111 666.306,131.417 667.917,131.417 C669.528,131.417 670.833,130.111 670.833,128.5 L670.833,124.125 C670.833,122.514 669.528,121.208 667.917,121.208 C666.306,121.208 665,122.514 665,124.125 Z M691.25,111 C691.25,125.498 679.498,137.25 665,137.25 C650.502,137.25 638.75,125.498 638.75,111 C638.75,96.502 650.502,84.75 665,84.75 C679.498,84.75 691.25,96.502 691.25,111 Z M697.083,111 C697.083,93.28 682.72,78.917 665,78.917 C647.28,78.917 632.917,93.28 632.917,111 C632.917,128.72 647.28,143.083 665,143.083 C682.72,143.083 697.083,128.72 697.083,111 Z" />
        </g>
    </g>
</svg>