<?xml version="1.0" encoding="UTF-8"?>
<svg height="600" width="800" xmlns="http://www.w3.org/2000/svg" xmlns:xlink="http://www.w3.org/1999/xlink">
    <g id="Notes" font-family="LucidaGrande, 'Lucida Grande', sans-serif" font-size="13">
        <rect fill="white" height="600.0" width="800.0" x="0.0" y="0.0" />
        <g font-size="13">
            <text x="18.0" y="176.0">Small</text>
            <text x="18.0" y="376.0">Medium</text>
            <text x="18.0" y="576.0">Large</text>
        </g>
        <g font-size="9">
            <text x="250.0" y="30.0">Ultralight</text>
            <text x="450.0" y="30.0">Regular</text>
            <text x="650.0" y="30.0">Black</text>
            <text id="template-version" fill="#505050" text-anchor="end" x="785.0" y="575.0">Template v.3.0</text>
            <a href="https://github.com/swhitty/SwiftDraw">
                <text fill="#505050" text-anchor="end" x="785.0" y="590.0">https://github.com/swhitty/SwiftDraw</text>
            </a>
        </g>
    </g>
    <g id="Guides" stroke="rgb(39, 170, 225)" stroke-width="0.5">
        <path id="Capline-S" d="M18,76 l800,0" />
        <path id="H-reference" d="M85,145.755 L87.685,145.755 L113.369,79.287 L114.052,79.287 L114.052,76 L112.148,76 L85,145.755 Z M95.693,121.536 L130.996,121.536 L130.263,119.313 L96.474,119.313 L95.693,121.536 Z M139.15,145.755 L141.787,145.755 L114.638,76 L113.466,76 L113.466,79.287 L139.15,145.755 Z" stroke="none" transform="translate(0,200)" />
        <path id="Baseline-S" d="M18,146 l800,0" />
        <path id="left-margin-Ultralight-M" d="M237.368,256 l0,110" />
        <path id="right-margin-Ultralight-M" d="M292.632,256 l0,110" />
        <path id="left-margin-Regular-M" d="M437.368,256 l0,110" />
        <path id="right-margin-Regular-M" d="M492.632,256 l0,110" />
        <path id="left-margin-Black-M" d="M637.368,256 l0,110" />
        <path id="right-margin-Black-M" d="M692.632,256 l0,110" />
        <path id="Capline-M" d="M18,276 l800,0" />
        <path id="Baseline-M" d="M18,346 l800,0" />
        <path id="Capline-L" d="M18,476 l800,0" />
        <path id="Baseline-L" d="M18,546 l800,0" />
    </g>
    <g id="Symbols">
        <g id="Ultralight-M" transform="translate(0,200)">
            <path d="M268.684,142.316 L268.684,109.158 C268.684,107.123 267.035,105.474 265,105.474 C262.965,105.474 261.316,107.123 261.316,109.158 L261.316,142.316 C261.316,144.351 262.965,146 265,146 C267.035,146 268.684,144.351 268.684,142.316 Z M267.859,111.481 L291.807,82.007 C293.09,80.428 292.85,78.108 291.271,76.825 C289.691,75.542 287.371,75.782 286.088,77.361 L262.141,106.835 C260.858,108.414 261.098,110.734 262.677,112.017 C264.256,113.3 266.576,113.06 267.859,111.481 Z M267.859,106.835 L243.912,77.361 C242.629,75.782 240.309,75.542 238.729,76.825 C237.15,78.108 236.91,80.428 238.193,82.007 L262.141,111.481 C263.424,113.06 265.744,113.3 267.323,112.017 C268.902,110.734 269.142,108.414 267.859,106.835 Z M287.105,105.474 L242.895,105.474 C240.86,105.474 239.211,107.123 239.211,109.158 C239.211,111.193 240.86,112.842 242.895,112.842 L287.105,112.842 C289.14,112.842 290.789,111.193 290.789,109.158 C290.789,107.123 289.14,105.474 287.105,105.474 Z M283.421,120.211 L246.579,120.211 C244.544,120.211 242.895,121.86 242.895,123.895 C242.895,125.929 244.544,127.579 246.579,127.579 L283.421,127.579 C285.456,127.579 287.105,125.929 287.105,123.895 C287.105,121.86 285.456,120.211 283.421,120.211 Z" />
        </g>
        <g id="Regular-M" transform="translate(0,200)">
            <path d="M468.684,142.316 L468.684,109.158 C468.684,107.123 467.035,105.474 465,105.474 C462.965,105.474 461.316,107.123 461.316,109.158 L461.316,142.316 C461.316,144.351 462.965,146 465,146 C467.035,146 468.684,144.351 468.684,142.316 Z M467.859,111.481 L491.807,82.007 C493.09,80.428 492.85,78.108 491.271,76.825 C489.691,75.542 487.371,75.782 486.088,77.361 L462.141,106.835 C460.858,108.414 461.098,110.734 462.677,112.017 C464.256,113.3 466.576,113.06 467.859,111.481 Z M467.859,106.835 L443.912,77.361 C442.629,75.782 440.309,75.542 438.729,76.825 C437.15,78.108 436.91,80.428 438.193,82.007 L462.141,111.481 C463.424,113.06 465.744,113.3 467.323,112.017 C468.902,110.734 469.142,108.414 467.859,106.835 Z M487.105,105.474 L442.895,105.474 C440.86,105.474 439.211,107.123 439.211,109.158 C439.211,111.193 440.86,112.842 442.895,112.842 L487.105,112.842 C489.14,112.842 490.789,111.193 490.789,109.158 C490.789,107.123 489.14,105.474 487.105,105.474 Z M483.421,120.211 L446.579,120.211 C444.544,120.211 442.895,121.86 442.895,123.895 C442.895,125.929 444.544,127.579 446.579,127.579 L483.421,127.579 C485.456,127.579 487.105,125.929 487.105,123.895 C487.105,121.86 485.456,120.211 483.421,120.211 Z" />
        </g>
        <g id="Black-M" transform="translate(0,200)">
            <path d="M668.684,142.316 L668.684,109.158 C668.684,107.123 667.035,105.474 665,105.474 C662.965,105.474 661.316,107.123 661.316,109.158 L661.316,142.316 C661.316,144.351 662.965,146 665,146 C667.035,146 668.684,144.351 668.684,142.316 Z M667.859,111.481 L691.807,82.007 C693.09,80.428 692.85,78.108 691.271,76.825 C689.691,75.542 687.371,75.782 686.088,77.361 L662.141,106.835 C660.858,108.414 661.098,110.734 662.677,112.017 C664.256,113.3 666.576,113.06 667.859,111.481 Z M667.859,106.835 L643.912,77.361 C642.629,75.782 640.309,75.542 638.729,76.825 C637.15,78.108 636.91,80.428 638.193,82.007 L662.141,111.481 C663.424,113.06 665.744,113.3 667.323,112.017 C668.902,110.734 669.142,108.414 667.859,106.835 Z M687.105,105.474 L642.895,105.474 C640.86,105.474 639.211,107.123 639.211,109.158 C639.211,111.193 640.86,112.842 642.895,112.842 L687.105,112.842 C689.14,112.842 690.789,111.193 690.789,109.158 C690.789,107.123 689.14,105.474 687.105,105.474 Z M683.421,120.211 L646.579,120.211 C644.544,120.211 642.895,121.86 642.895,123.895 C642.895,125.929 644.544,127.579 646.579,127.579 L683.421,127.579 C685.456,127.579 687.105,125.929 687.105,123.895 C687.105,121.86 685.456,120.211 683.421,120.211 Z" />
        </g>
    </g>
</svg>