<?xml version="1.0" encoding="UTF-8"?>
<svg height="600" width="800" xmlns="http://www.w3.org/2000/svg" xmlns:xlink="http://www.w3.org/1999/xlink">
    <g id="Notes" font-family="LucidaGrande, 'Lucida Grande', sans-serif" font-size="13">
        <rect fill="white" height="600.0" width="800.0" x="0.0" y="0.0" />
        <g font-size="13">
            <text x="18.0" y="176.0">Small</text>
            <text x="18.0" y="376.0">Medium</text>
            <text x="18.0" y="576.0">Large</text>
        </g>
        <g font-size="9">
            <text x="250.0" y="30.0">Ultralight</text>
            <text x="450.0" y="30.0">Regular</text>
            <text x="650.0" y="30.0">Black</text>
            <text id="template-version" fill="#505050" text-anchor="end" x="785.0" y="575.0">Template v.3.0</text>
            <a href="https://github.com/swhitty/SwiftDraw">
                <text fill="#505050" text-anchor="end" x="785.0" y="590.0">https://github.com/swhitty/SwiftDraw</text>
            </a>
        </g>
    </g>
    <g id="Guides" stroke="rgb(39, 170, 225)" stroke-width="0.5">
        <path id="Capline-S" d="M18,76 l800,0" />
        <path id="H-reference" d="M85,145.755 L87.685,145.755 L113.369,79.287 L114.052,79.287 L114.052,76 L112.148,76 L85,145.755 Z M95.693,121.536 L130.996,121.536 L130.263,119.313 L96.474,119.313 L95.693,121.536 Z M139.15,145.755 L141.787,145.755 L114.638,76 L113.466,76 L113.466,79.287 L139.15,145.755 Z" stroke="none" transform="translate(0,200)" />
        <path id="Baseline-S" d="M18,146 l800,0" />
        <path id="left-margin-Ultralight-M" d="M221,256 l0,110" />
        <path id="right-margin-Ultralight-M" d="M309,256 l0,110" />
        <path id="left-margin-Regular-M" d="M421,256 l0,110" />
        <path id="right-margin-Regular-M" d="M509,256 l0,110" />
        <path id="left-margin-Black-M" d="M621,256 l0,110" />
        <path id="right-margin-Black-M" d="M709,256 l0,110" />
        <path id="Capline-M" d="M18,276 l800,0" />
        <path id="Baseline-M" d="M18,346 l800,0" />
        <path id="Capline-L" d="M18,476 l800,0" />
        <path id="Baseline-L" d="M18,546 l800,0" />
    </g>
    <g id="Symbols">
        <g id="Ultralight-M" transform="translate(0,200)">
            <path d="M285.025,94.226 C276.115,86.665 262.85,87.389 254.816,95.873 C246.782,104.358 246.782,117.642 254.816,126.127 C262.85,134.611 276.115,135.335 285.025,127.774 C286,126.947 286.12,125.485 285.292,124.51 C284.464,123.535 283.003,123.415 282.028,124.243 C274.994,130.212 264.522,129.64 258.179,122.942 C251.836,116.244 251.836,105.756 258.179,99.058 C264.522,92.36 274.994,91.788 282.028,97.757 C283.003,98.585 284.464,98.465 285.292,97.49 C286.12,96.515 286,95.053 285.025,94.226 Z M246.474,117.947 L269.632,117.947 C270.911,117.947 271.947,116.911 271.947,115.632 C271.947,114.353 270.911,113.316 269.632,113.316 L246.474,113.316 C245.195,113.316 244.158,114.353 244.158,115.632 C244.158,116.911 245.195,117.947 246.474,117.947 Z M246.474,108.684 L269.632,108.684 C270.911,108.684 271.947,107.647 271.947,106.368 C271.947,105.089 270.911,104.053 269.632,104.053 L246.474,104.053 C245.195,104.053 244.158,105.089 244.158,106.368 C244.158,107.647 245.195,108.684 246.474,108.684 Z" />
        </g>
        <g id="Regular-M" transform="translate(0,200)">
            <path d="M485.025,94.226 C476.115,86.665 462.85,87.389 454.816,95.873 C446.782,104.358 446.782,117.642 454.816,126.127 C462.85,134.611 476.115,135.335 485.025,127.774 C486,126.947 486.12,125.485 485.292,124.51 C484.464,123.535 483.003,123.415 482.028,124.243 C474.994,130.212 464.522,129.64 458.179,122.942 C451.836,116.244 451.836,105.756 458.179,99.058 C464.522,92.36 474.994,91.788 482.028,97.757 C483.003,98.585 484.464,98.465 485.292,97.49 C486.12,96.515 486,95.053 485.025,94.226 Z M446.474,117.947 L469.632,117.947 C470.911,117.947 471.947,116.911 471.947,115.632 C471.947,114.353 470.911,113.316 469.632,113.316 L446.474,113.316 C445.195,113.316 444.158,114.353 444.158,115.632 C444.158,116.911 445.195,117.947 446.474,117.947 Z M446.474,108.684 L469.632,108.684 C470.911,108.684 471.947,107.647 471.947,106.368 C471.947,105.089 470.911,104.053 469.632,104.053 L446.474,104.053 C445.195,104.053 444.158,105.089 444.158,106.368 C444.158,107.647 445.195,108.684 446.474,108.684 Z" />
        </g>
        <g id="Black-M" transform="translate(0,200)">
            <path d="M685.025,94.226 C676.115,86.665 662.85,87.389 654.816,95.873 C646.782,104.358 646.782,117.642 654.816,126.127 C662.85,134.611 676.115,135.335 685.025,127.774 C686,126.947 686.12,125.485 685.292,124.51 C684.464,123.535 683.003,123.415 682.028,124.243 C674.994,130.212 664.522,129.64 658.179,122.942 C651.836,116.244 651.836,105.756 658.179,99.058 C664.522,92.36 674.994,91.788 682.028,97.757 C683.003,98.585 684.464,98.465 685.292,97.49 C686.12,96.515 686,95.053 685.025,94.226 Z M646.474,117.947 L669.632,117.947 C670.911,117.947 671.947,116.911 671.947,115.632 C671.947,114.353 670.911,113.316 669.632,113.316 L646.474,113.316 C645.195,113.316 644.158,114.353 644.158,115.632 C644.158,116.911 645.195,117.947 646.474,117.947 Z M646.474,108.684 L669.632,108.684 C670.911,108.684 671.947,107.647 671.947,106.368 C671.947,105.089 670.911,104.053 669.632,104.053 L646.474,104.053 C645.195,104.053 644.158,105.089 644.158,106.368 C644.158,107.647 645.195,108.684 646.474,108.684 Z" />
        </g>
    </g>
</svg>