<?xml version="1.0" encoding="UTF-8"?>
<svg height="600" width="800" xmlns="http://www.w3.org/2000/svg" xmlns:xlink="http://www.w3.org/1999/xlink">
    <g id="Notes" font-family="LucidaGrande, 'Lucida Grande', sans-serif" font-size="13">
        <rect fill="white" height="600.0" width="800.0" x="0.0" y="0.0" />
        <g font-size="13">
            <text x="18.0" y="176.0">Small</text>
            <text x="18.0" y="376.0">Medium</text>
            <text x="18.0" y="576.0">Large</text>
        </g>
        <g font-size="9">
            <text x="250.0" y="30.0">Ultralight</text>
            <text x="450.0" y="30.0">Regular</text>
            <text x="650.0" y="30.0">Black</text>
            <text id="template-version" fill="#505050" text-anchor="end" x="785.0" y="575.0">Template v.3.0</text>
            <a href="https://github.com/swhitty/SwiftDraw">
                <text fill="#505050" text-anchor="end" x="785.0" y="590.0">https://github.com/swhitty/SwiftDraw</text>
            </a>
        </g>
    </g>
    <g id="Guides" stroke="rgb(39, 170, 225)" stroke-width="0.5">
        <path id="Capline-S" d="M18,76 l800,0" />
        <path id="H-reference" d="M85,145.755 L87.685,145.755 L113.369,79.287 L114.052,79.287 L114.052,76 L112.148,76 L85,145.755 Z M95.693,121.536 L130.996,121.536 L130.263,119.313 L96.474,119.313 L95.693,121.536 Z M139.15,145.755 L141.787,145.755 L114.638,76 L113.466,76 L113.466,79.287 L139.15,145.755 Z" stroke="none" transform="translate(0,200)" />
        <path id="Baseline-S" d="M18,146 l800,0" />
        <path id="left-margin-Ultralight-M" d="M230,256 l0,110" />
        <path id="right-margin-Ultralight-M" d="M300,256 l0,110" />
        <path id="left-margin-Regular-M" d="M430,256 l0,110" />
        <path id="right-margin-Regular-M" d="M500,256 l0,110" />
        <path id="left-margin-Black-M" d="M630,256 l0,110" />
        <path id="right-margin-Black-M" d="M700,256 l0,110" />
        <path id="Capline-M" d="M18,276 l800,0" />
        <path id="Baseline-M" d="M18,346 l800,0" />
        <path id="Capline-L" d="M18,476 l800,0" />
        <path id="Baseline-L" d="M18,546 l800,0" />
    </g>
    <g id="Symbols">
        <g id="Ultralight-M" transform="translate(0,200)">
            <path d="M298.627,84.314 C283.666,72.286 261.39,73.437 247.898,86.935 C234.406,100.432 234.406,121.568 247.898,135.065 C261.39,148.563 283.666,149.714 298.627,137.686 C300.265,136.37 300.466,134.045 299.076,132.493 C297.687,130.942 295.233,130.752 293.595,132.068 C281.783,141.564 264.197,140.655 253.545,129.999 C242.894,119.343 242.894,102.657 253.545,92.001 C264.197,81.345 281.783,80.436 293.595,89.932 C295.233,91.248 297.687,91.058 299.076,89.507 C300.466,87.955 300.265,85.63 298.627,84.314 Z M233.889,122.053 L272.778,122.053 C274.926,122.053 276.667,120.403 276.667,118.368 C276.667,116.334 274.926,114.684 272.778,114.684 L233.889,114.684 C231.741,114.684 230,116.334 230,118.368 C230,120.403 231.741,122.053 233.889,122.053 Z M233.889,107.316 L272.778,107.316 C274.926,107.316 276.667,105.666 276.667,103.632 C276.667,101.597 274.926,99.947 272.778,99.947 L233.889,99.947 C231.741,99.947 230,101.597 230,103.632 C230,105.666 231.741,107.316 233.889,107.316 Z" />
        </g>
        <g id="Regular-M" transform="translate(0,200)">
            <path d="M498.627,84.314 C483.666,72.286 461.39,73.437 447.898,86.935 C434.406,100.432 434.406,121.568 447.898,135.065 C461.39,148.563 483.666,149.714 498.627,137.686 C500.265,136.37 500.466,134.045 499.076,132.493 C497.687,130.942 495.233,130.752 493.595,132.068 C481.783,141.564 464.197,140.655 453.545,129.999 C442.894,119.343 442.894,102.657 453.545,92.001 C464.197,81.345 481.783,80.436 493.595,89.932 C495.233,91.248 497.687,91.058 499.076,89.507 C500.466,87.955 500.265,85.63 498.627,84.314 Z M433.889,122.053 L472.778,122.053 C474.926,122.053 476.667,120.403 476.667,118.368 C476.667,116.334 474.926,114.684 472.778,114.684 L433.889,114.684 C431.741,114.684 430,116.334 430,118.368 C430,120.403 431.741,122.053 433.889,122.053 Z M433.889,107.316 L472.778,107.316 C474.926,107.316 476.667,105.666 476.667,103.632 C476.667,101.597 474.926,99.947 472.778,99.947 L433.889,99.947 C431.741,99.947 430,101.597 430,103.632 C430,105.666 431.741,107.316 433.889,107.316 Z" />
        </g>
        <g id="Black-M" transform="translate(0,200)">
            <path d="M698.627,84.314 C683.666,72.286 661.39,73.437 647.898,86.935 C634.406,100.432 634.406,121.568 647.898,135.065 C661.39,148.563 683.666,149.714 698.627,137.686 C700.265,136.37 700.466,134.045 699.076,132.493 C697.687,130.942 695.233,130.752 693.595,132.068 C681.783,141.564 664.197,140.655 653.545,129.999 C642.894,119.343 642.894,102.657 653.545,92.001 C664.197,81.345 681.783,80.436 693.595,89.932 C695.233,91.248 697.687,91.058 699.076,89.507 C700.466,87.955 700.265,85.63 698.627,84.314 Z M633.889,122.053 L672.778,122.053 C674.926,122.053 676.667,120.403 676.667,118.368 C676.667,116.334 674.926,114.684 672.778,114.684 L633.889,114.684 C631.741,114.684 630,116.334 630,118.368 C630,120.403 631.741,122.053 633.889,122.053 Z M633.889,107.316 L672.778,107.316 C674.926,107.316 676.667,105.666 676.667,103.632 C676.667,101.597 674.926,99.947 672.778,99.947 L633.889,99.947 C631.741,99.947 630,101.597 630,103.632 C630,105.666 631.741,107.316 633.889,107.316 Z" />
        </g>
    </g>
</svg>