<?xml version="1.0" encoding="UTF-8"?>
<svg height="600" width="800" xmlns="http://www.w3.org/2000/svg" xmlns:xlink="http://www.w3.org/1999/xlink">
    <g id="Notes" font-family="LucidaGrande, 'Lucida Grande', sans-serif" font-size="13">
        <rect fill="white" height="600.0" width="800.0" x="0.0" y="0.0" />
        <g font-size="13">
            <text x="18.0" y="176.0">Small</text>
            <text x="18.0" y="376.0">Medium</text>
            <text x="18.0" y="576.0">Large</text>
        </g>
        <g font-size="9">
            <text x="250.0" y="30.0">Ultralight</text>
            <text x="450.0" y="30.0">Regular</text>
            <text x="650.0" y="30.0">Black</text>
            <text id="template-version" fill="#505050" text-anchor="end" x="785.0" y="575.0">Template v.3.0</text>
            <a href="https://github.com/swhitty/SwiftDraw">
                <text fill="#505050" text-anchor="end" x="785.0" y="590.0">https://github.com/swhitty/SwiftDraw</text>
            </a>
        </g>
    </g>
    <g id="Guides" stroke="rgb(39, 170, 225)" stroke-width="0.5">
        <path id="Capline-S" d="M18,76 l800,0" />
        <path id="H-reference" d="M85,145.755 L87.685,145.755 L113.369,79.287 L114.052,79.287 L114.052,76 L112.148,76 L85,145.755 Z M95.693,121.536 L130.996,121.536 L130.263,119.313 L96.474,119.313 L95.693,121.536 Z M139.15,145.755 L141.787,145.755 L114.638,76 L113.466,76 L113.466,79.287 L139.15,145.755 Z" stroke="none" transform="translate(0,200)" />
        <path id="Baseline-S" d="M18,146 l800,0" />
        <path id="left-margin-Ultralight-M" d="M230,256 l0,110" />
        <path id="right-margin-Ultralight-M" d="M300,256 l0,110" />
        <path id="left-margin-Regular-M" d="M430,256 l0,110" />
        <path id="right-margin-Regular-M" d="M500,256 l0,110" />
        <path id="left-margin-Black-M" d="M630,256 l0,110" />
        <path id="right-margin-Black-M" d="M700,256 l0,110" />
        <path id="Capline-M" d="M18,276 l800,0" />
        <path id="Baseline-M" d="M18,346 l800,0" />
        <path id="Capline-L" d="M18,476 l800,0" />
        <path id="Baseline-L" d="M18,546 l800,0" />
    </g>
    <g id="Symbols">
        <g id="Ultralight-M" transform="translate(0,200)">
            <path d="M288.333,90.583 C288.333,92.937 277.893,96.417 265,96.417 C252.107,96.417 241.667,92.937 241.667,90.583 C241.667,88.973 240.361,87.667 238.75,87.667 C237.139,87.667 235.833,88.973 235.833,90.583 C235.833,97.895 248.9,102.25 265,102.25 C281.1,102.25 294.167,97.895 294.167,90.583 C294.167,88.973 292.861,87.667 291.25,87.667 C289.639,87.667 288.333,88.973 288.333,90.583 Z M294.167,90.583 C294.167,83.272 281.1,78.917 265,78.917 C248.9,78.917 235.833,83.272 235.833,90.583 C235.833,92.194 237.139,93.5 238.75,93.5 C240.361,93.5 241.667,92.194 241.667,90.583 C241.667,88.23 252.107,84.75 265,84.75 C277.893,84.75 288.333,88.23 288.333,90.583 C288.333,92.194 289.639,93.5 291.25,93.5 C292.861,93.5 294.167,92.194 294.167,90.583 Z M288.333,90.583 L288.333,131.417 C288.333,133.787 277.961,137.25 265,137.25 C252.039,137.25 241.667,133.787 241.667,131.417 L241.667,90.583 C241.667,88.973 240.361,87.667 238.75,87.667 C237.139,87.667 235.833,88.973 235.833,90.583 L235.833,131.417 C235.833,138.743 248.835,143.083 265,143.083 C281.165,143.083 294.167,138.743 294.167,131.417 L294.167,90.583 C294.167,88.973 292.861,87.667 291.25,87.667 C289.639,87.667 288.333,88.973 288.333,90.583 Z M288.333,104.35 C288.333,106.721 277.961,110.183 265,110.183 C252.039,110.183 241.667,106.721 241.667,104.35 C241.667,102.739 240.361,101.433 238.75,101.433 C237.139,101.433 235.833,102.739 235.833,104.35 C235.833,111.676 248.835,116.017 265,116.017 C281.165,116.017 294.167,111.676 294.167,104.35 C294.167,102.739 292.861,101.433 291.25,101.433 C289.639,101.433 288.333,102.739 288.333,104.35 Z M288.333,118.117 C288.333,120.487 277.961,123.95 265,123.95 C252.039,123.95 241.667,120.487 241.667,118.117 C241.667,116.506 240.361,115.2 238.75,115.2 C237.139,115.2 235.833,116.506 235.833,118.117 C235.833,125.443 248.835,129.783 265,129.783 C281.165,129.783 294.167,125.443 294.167,118.117 C294.167,116.506 292.861,115.2 291.25,115.2 C289.639,115.2 288.333,116.506 288.333,118.117 Z" />
        </g>
        <g id="Regular-M" transform="translate(0,200)">
            <path d="M488.333,90.583 C488.333,92.937 477.893,96.417 465,96.417 C452.107,96.417 441.667,92.937 441.667,90.583 C441.667,88.973 440.361,87.667 438.75,87.667 C437.139,87.667 435.833,88.973 435.833,90.583 C435.833,97.895 448.9,102.25 465,102.25 C481.1,102.25 494.167,97.895 494.167,90.583 C494.167,88.973 492.861,87.667 491.25,87.667 C489.639,87.667 488.333,88.973 488.333,90.583 Z M494.167,90.583 C494.167,83.272 481.1,78.917 465,78.917 C448.9,78.917 435.833,83.272 435.833,90.583 C435.833,92.194 437.139,93.5 438.75,93.5 C440.361,93.5 441.667,92.194 441.667,90.583 C441.667,88.23 452.107,84.75 465,84.75 C477.893,84.75 488.333,88.23 488.333,90.583 C488.333,92.194 489.639,93.5 491.25,93.5 C492.861,93.5 494.167,92.194 494.167,90.583 Z M488.333,90.583 L488.333,131.417 C488.333,133.787 477.961,137.25 465,137.25 C452.039,137.25 441.667,133.787 441.667,131.417 L441.667,90.583 C441.667,88.973 440.361,87.667 438.75,87.667 C437.139,87.667 435.833,88.973 435.833,90.583 L435.833,131.417 C435.833,138.743 448.835,143.083 465,143.083 C481.165,143.083 494.167,138.743 494.167,131.417 L494.167,90.583 C494.167,88.973 492.861,87.667 491.25,87.667 C489.639,87.667 488.333,88.973 488.333,90.583 Z M488.333,104.35 C488.333,106.721 477.961,110.183 465,110.183 C452.039,110.183 441.667,106.721 441.667,104.35 C441.667,102.739 440.361,101.433 438.75,101.433 C437.139,101.433 435.833,102.739 435.833,104.35 C435.833,111.676 448.835,116.017 465,116.017 C481.165,116.017 494.167,111.676 494.167,104.35 C494.167,102.739 492.861,101.433 491.25,101.433 C489.639,101.433 488.333,102.739 488.333,104.35 Z M488.333,118.117 C488.333,120.487 477.961,123.95 465,123.95 C452.039,123.95 441.667,120.487 441.667,118.117 C441.667,116.506 440.361,115.2 438.75,115.2 C437.139,115.2 435.833,116.506 435.833,118.117 C435.833,125.443 448.835,129.783 465,129.783 C481.165,129.783 494.167,125.443 494.167,118.117 C494.167,116.506 492.861,115.2 491.25,115.2 C489.639,115.2 488.333,116.506 488.333,118.117 Z" />
        </g>
        <g id="Black-M" transform="translate(0,200)">
            <path d="M688.333,90.583 C688.333,92.937 677.893,96.417 665,96.417 C652.107,96.417 641.667,92.937 641.667,90.583 C641.667,88.973 640.361,87.667 638.75,87.667 C637.139,87.667 635.833,88.973 635.833,90.583 C635.833,97.895 648.9,102.25 665,102.25 C681.1,102.25 694.167,97.895 694.167,90.583 C694.167,88.973 692.861,87.667 691.25,87.667 C689.639,87.667 688.333,88.973 688.333,90.583 Z M694.167,90.583 C694.167,83.272 681.1,78.917 665,78.917 C648.9,78.917 635.833,83.272 635.833,90.583 C635.833,92.194 637.139,93.5 638.75,93.5 C640.361,93.5 641.667,92.194 641.667,90.583 C641.667,88.23 652.107,84.75 665,84.75 C677.893,84.75 688.333,88.23 688.333,90.583 C688.333,92.194 689.639,93.5 691.25,93.5 C692.861,93.5 694.167,92.194 694.167,90.583 Z M688.333,90.583 L688.333,131.417 C688.333,133.787 677.961,137.25 665,137.25 C652.039,137.25 641.667,133.787 641.667,131.417 L641.667,90.583 C641.667,88.973 640.361,87.667 638.75,87.667 C637.139,87.667 635.833,88.973 635.833,90.583 L635.833,131.417 C635.833,138.743 648.835,143.083 665,143.083 C681.165,143.083 694.167,138.743 694.167,131.417 L694.167,90.583 C694.167,88.973 692.861,87.667 691.25,87.667 C689.639,87.667 688.333,88.973 688.333,90.583 Z M688.333,104.35 C688.333,106.721 677.961,110.183 665,110.183 C652.039,110.183 641.667,106.721 641.667,104.35 C641.667,102.739 640.361,101.433 638.75,101.433 C637.139,101.433 635.833,102.739 635.833,104.35 C635.833,111.676 648.835,116.017 665,116.017 C681.165,116.017 694.167,111.676 694.167,104.35 C694.167,102.739 692.861,101.433 691.25,101.433 C689.639,101.433 688.333,102.739 688.333,104.35 Z M688.333,118.117 C688.333,120.487 677.961,123.95 665,123.95 C652.039,123.95 641.667,120.487 641.667,118.117 C641.667,116.506 640.361,115.2 638.75,115.2 C637.139,115.2 635.833,116.506 635.833,118.117 C635.833,125.443 648.835,129.783 665,129.783 C681.165,129.783 694.167,125.443 694.167,118.117 C694.167,116.506 692.861,115.2 691.25,115.2 C689.639,115.2 688.333,116.506 688.333,118.117 Z" />
        </g>
    </g>
</svg>