<?xml version="1.0" encoding="UTF-8"?>
<svg height="600" width="800" xmlns="http://www.w3.org/2000/svg" xmlns:xlink="http://www.w3.org/1999/xlink">
    <g id="Notes" font-family="LucidaGrande, 'Lucida Grande', sans-serif" font-size="13">
        <rect fill="white" height="600.0" width="800.0" x="0.0" y="0.0" />
        <g font-size="13">
            <text x="18.0" y="176.0">Small</text>
            <text x="18.0" y="376.0">Medium</text>
            <text x="18.0" y="576.0">Large</text>
        </g>
        <g font-size="9">
            <text x="250.0" y="30.0">Ultralight</text>
            <text x="450.0" y="30.0">Regular</text>
            <text x="650.0" y="30.0">Black</text>
            <text id="template-version" fill="#505050" text-anchor="end" x="785.0" y="575.0">Template v.3.0</text>
            <a href="https://github.com/swhitty/SwiftDraw">
                <text fill="#505050" text-anchor="end" x="785.0" y="590.0">https://github.com/swhitty/SwiftDraw</text>
            </a>
        </g>
    </g>
    <g id="Guides" stroke="rgb(39, 170, 225)" stroke-width="0.5">
        <path id="Capline-S" d="M18,76 l800,0" />
        <path id="H-reference" d="M85,145.755 L87.685,145.755 L113.369,79.287 L114.052,79.287 L114.052,76 L112.148,76 L85,145.755 Z M95.693,121.536 L130.996,121.536 L130.263,119.313 L96.474,119.313 L95.693,121.536 Z M139.15,145.755 L141.787,145.755 L114.638,76 L113.466,76 L113.466,79.287 L139.15,145.755 Z" stroke="none" transform="translate(0,200)" />
        <path id="Baseline-S" d="M18,146 l800,0" />
        <path id="left-margin-Ultralight-M" d="M221,256 l0,110" />
        <path id="right-margin-Ultralight-M" d="M309,256 l0,110" />
        <path id="left-margin-Regular-M" d="M421,256 l0,110" />
        <path id="right-margin-Regular-M" d="M509,256 l0,110" />
        <path id="left-margin-Black-M" d="M621,256 l0,110" />
        <path id="right-margin-Black-M" d="M709,256 l0,110" />
        <path id="Capline-M" d="M18,276 l800,0" />
        <path id="Baseline-M" d="M18,346 l800,0" />
        <path id="Capline-L" d="M18,476 l800,0" />
        <path id="Baseline-L" d="M18,546 l800,0" />
    </g>
    <g id="Symbols">
        <g id="Ultralight-M" transform="translate(0,200)">
            <path d="M273.785,103.186 L261.138,115.833 C260.315,116.656 260.315,117.991 261.138,118.814 C261.961,119.637 263.296,119.637 264.119,118.814 L276.766,106.167 C277.589,105.344 277.589,104.009 276.766,103.186 C275.943,102.363 274.608,102.363 273.785,103.186 Z M261.138,106.167 L273.785,118.814 C274.608,119.637 275.943,119.637 276.766,118.814 C277.589,117.991 277.589,116.656 276.766,115.833 L264.119,103.186 C263.296,102.363 261.961,102.363 261.138,103.186 C260.315,104.009 260.315,105.344 261.138,106.167 Z M243.49,114.288 L252.596,126.429 C253.653,127.84 253.956,128.202 254.592,128.684 C255.219,129.159 255.925,129.513 256.679,129.727 C257.442,129.946 257.9,129.97 259.678,129.97 L275.697,129.97 C280.547,129.97 281.699,129.876 283.318,129.051 C284.905,128.243 286.195,126.953 287.003,125.367 C287.828,123.747 287.922,122.595 287.922,117.745 L287.922,104.255 C287.922,99.405 287.828,98.253 287.003,96.634 C286.195,95.047 284.905,93.757 283.319,92.949 C281.699,92.124 280.547,92.03 275.697,92.03 L259.678,92.03 C257.901,92.03 257.443,92.054 256.676,92.273 C255.92,92.489 255.214,92.843 254.59,93.317 C254.427,93.44 254.271,93.575 254.118,93.721 C253.693,94.128 253.447,94.436 252.596,95.57 L243.49,107.712 C242.696,108.77 242.507,109.055 242.295,109.669 C242.253,109.795 242.253,109.795 242.218,109.923 C242.031,110.63 242.031,111.37 242.217,112.075 C242.255,112.211 242.255,112.211 242.299,112.342 C242.511,112.95 242.688,113.215 243.488,114.286 Z M246.864,111.761 C246.394,111.132 246.284,110.968 246.28,110.955 C246.287,110.976 246.287,110.976 246.293,110.998 C246.293,111 246.293,111 246.293,111 C246.287,111.023 246.287,111.023 246.281,111.042 C246.285,111.031 246.397,110.862 246.863,110.241 L255.968,98.1 C256.65,97.192 256.849,96.943 257.035,96.764 C257.073,96.728 257.106,96.7 257.138,96.675 C257.348,96.516 257.583,96.398 257.834,96.326 C258.061,96.262 258.363,96.246 259.678,96.246 L275.697,96.246 C279.7,96.246 280.656,96.324 281.405,96.705 C282.198,97.109 282.843,97.754 283.247,98.547 C283.628,99.296 283.707,100.252 283.707,104.255 L283.707,117.745 C283.707,121.748 283.628,122.704 283.247,123.453 C282.843,124.246 282.198,124.891 281.405,125.295 C280.656,125.676 279.7,125.754 275.697,125.754 L259.678,125.754 C258.364,125.754 258.062,125.738 257.836,125.674 C257.583,125.602 257.349,125.484 257.138,125.324 C256.949,125.181 256.751,124.945 255.969,123.901 L246.863,111.759 Z" />
        </g>
        <g id="Regular-M" transform="translate(0,200)">
            <path d="M473.785,103.186 L461.138,115.833 C460.315,116.656 460.315,117.991 461.138,118.814 C461.961,119.637 463.296,119.637 464.119,118.814 L476.766,106.167 C477.589,105.344 477.589,104.009 476.766,103.186 C475.943,102.363 474.608,102.363 473.785,103.186 Z M461.138,106.167 L473.785,118.814 C474.608,119.637 475.943,119.637 476.766,118.814 C477.589,117.991 477.589,116.656 476.766,115.833 L464.119,103.186 C463.296,102.363 461.961,102.363 461.138,103.186 C460.315,104.009 460.315,105.344 461.138,106.167 Z M443.49,114.288 L452.596,126.429 C453.653,127.84 453.956,128.202 454.592,128.684 C455.219,129.159 455.925,129.513 456.679,129.727 C457.442,129.946 457.9,129.97 459.678,129.97 L475.697,129.97 C480.547,129.97 481.699,129.876 483.318,129.051 C484.905,128.243 486.195,126.953 487.003,125.367 C487.828,123.747 487.922,122.595 487.922,117.745 L487.922,104.255 C487.922,99.405 487.828,98.253 487.003,96.634 C486.195,95.047 484.905,93.757 483.319,92.949 C481.699,92.124 480.547,92.03 475.697,92.03 L459.678,92.03 C457.901,92.03 457.443,92.054 456.676,92.273 C455.92,92.489 455.214,92.843 454.59,93.317 C454.427,93.44 454.271,93.575 454.118,93.721 C453.693,94.128 453.447,94.436 452.596,95.57 L443.49,107.712 C442.696,108.77 442.507,109.055 442.295,109.669 C442.253,109.795 442.253,109.795 442.218,109.923 C442.031,110.63 442.031,111.37 442.217,112.075 C442.255,112.211 442.255,112.211 442.299,112.342 C442.511,112.95 442.688,113.215 443.488,114.286 Z M446.864,111.761 C446.394,111.132 446.284,110.968 446.28,110.955 C446.287,110.976 446.287,110.976 446.293,110.998 C446.293,111 446.293,111 446.293,111 C446.287,111.023 446.287,111.023 446.281,111.042 C446.285,111.031 446.397,110.862 446.863,110.241 L455.968,98.1 C456.65,97.192 456.849,96.943 457.035,96.764 C457.073,96.728 457.106,96.7 457.138,96.675 C457.348,96.516 457.583,96.398 457.834,96.326 C458.061,96.262 458.363,96.246 459.678,96.246 L475.697,96.246 C479.7,96.246 480.656,96.324 481.405,96.705 C482.198,97.109 482.843,97.754 483.247,98.547 C483.628,99.296 483.707,100.252 483.707,104.255 L483.707,117.745 C483.707,121.748 483.628,122.704 483.247,123.453 C482.843,124.246 482.198,124.891 481.405,125.295 C480.656,125.676 479.7,125.754 475.697,125.754 L459.678,125.754 C458.364,125.754 458.062,125.738 457.836,125.674 C457.583,125.602 457.349,125.484 457.138,125.324 C456.949,125.181 456.751,124.945 455.969,123.901 L446.863,111.759 Z" />
        </g>
        <g id="Black-M" transform="translate(0,200)">
            <path d="M673.785,103.186 L661.138,115.833 C660.315,116.656 660.315,117.991 661.138,118.814 C661.961,119.637 663.296,119.637 664.119,118.814 L676.766,106.167 C677.589,105.344 677.589,104.009 676.766,103.186 C675.943,102.363 674.608,102.363 673.785,103.186 Z M661.138,106.167 L673.785,118.814 C674.608,119.637 675.943,119.637 676.766,118.814 C677.589,117.991 677.589,116.656 676.766,115.833 L664.119,103.186 C663.296,102.363 661.961,102.363 661.138,103.186 C660.315,104.009 660.315,105.344 661.138,106.167 Z M643.49,114.288 L652.596,126.429 C653.653,127.84 653.956,128.202 654.592,128.684 C655.219,129.159 655.925,129.513 656.679,129.727 C657.442,129.946 657.9,129.97 659.678,129.97 L675.697,129.97 C680.547,129.97 681.699,129.876 683.318,129.051 C684.905,128.243 686.195,126.953 687.003,125.367 C687.828,123.747 687.922,122.595 687.922,117.745 L687.922,104.255 C687.922,99.405 687.828,98.253 687.003,96.634 C686.195,95.047 684.905,93.757 683.319,92.949 C681.699,92.124 680.547,92.03 675.697,92.03 L659.678,92.03 C657.901,92.03 657.443,92.054 656.676,92.273 C655.92,92.489 655.214,92.843 654.59,93.317 C654.427,93.44 654.271,93.575 654.118,93.721 C653.693,94.128 653.448,94.436 652.596,95.57 L643.49,107.712 C642.696,108.77 642.507,109.055 642.295,109.669 C642.253,109.795 642.253,109.795 642.218,109.923 C642.031,110.63 642.031,111.37 642.217,112.075 C642.255,112.211 642.255,112.211 642.299,112.342 C642.51,112.95 642.688,113.215 643.488,114.286 Z M646.864,111.761 C646.394,111.132 646.284,110.968 646.28,110.955 C646.287,110.976 646.287,110.976 646.293,110.998 C646.293,111 646.293,111 646.293,111 C646.287,111.023 646.287,111.023 646.281,111.042 C646.285,111.031 646.397,110.862 646.863,110.241 L655.968,98.1 C656.65,97.192 656.849,96.943 657.035,96.764 C657.073,96.728 657.106,96.7 657.138,96.675 C657.348,96.516 657.583,96.398 657.834,96.326 C658.061,96.262 658.363,96.246 659.678,96.246 L675.697,96.246 C679.7,96.246 680.656,96.324 681.405,96.705 C682.198,97.109 682.843,97.754 683.247,98.547 C683.628,99.296 683.707,100.252 683.707,104.255 L683.707,117.745 C683.707,121.748 683.628,122.704 683.247,123.453 C682.843,124.246 682.198,124.891 681.405,125.295 C680.656,125.676 679.7,125.754 675.697,125.754 L659.678,125.754 C658.364,125.754 658.062,125.738 657.836,125.674 C657.583,125.602 657.349,125.484 657.138,125.324 C656.949,125.181 656.751,124.945 655.969,123.901 L646.863,111.759 Z" />
        </g>
    </g>
</svg>