<?xml version="1.0" encoding="UTF-8"?>
<svg height="600" width="800" xmlns="http://www.w3.org/2000/svg" xmlns:xlink="http://www.w3.org/1999/xlink">
    <g id="Notes" font-family="LucidaGrande, 'Lucida Grande', sans-serif" font-size="13">
        <rect fill="white" height="600.0" width="800.0" x="0.0" y="0.0" />
        <g font-size="13">
            <text x="18.0" y="176.0">Small</text>
            <text x="18.0" y="376.0">Medium</text>
            <text x="18.0" y="576.0">Large</text>
        </g>
        <g font-size="9">
            <text x="250.0" y="30.0">Ultralight</text>
            <text x="450.0" y="30.0">Regular</text>
            <text x="650.0" y="30.0">Black</text>
            <text id="template-version" fill="#505050" text-anchor="end" x="785.0" y="575.0">Template v.3.0</text>
            <a href="https://github.com/swhitty/SwiftDraw">
                <text fill="#505050" text-anchor="end" x="785.0" y="590.0">https://github.com/swhitty/SwiftDraw</text>
            </a>
        </g>
    </g>
    <g id="Guides" stroke="rgb(39, 170, 225)" stroke-width="0.5">
        <path id="Capline-S" d="M18,76 l800,0" />
        <path id="H-reference" d="M85,145.755 L87.685,145.755 L113.369,79.287 L114.052,79.287 L114.052,76 L112.148,76 L85,145.755 Z M95.693,121.536 L130.996,121.536 L130.263,119.313 L96.474,119.313 L95.693,121.536 Z M139.15,145.755 L141.787,145.755 L114.638,76 L113.466,76 L113.466,79.287 L139.15,145.755 Z" stroke="none" transform="translate(0,200)" />
        <path id="Baseline-S" d="M18,146 l800,0" />
        <path id="left-margin-Ultralight-M" d="M230,256 l0,110" />
        <path id="right-margin-Ultralight-M" d="M300,256 l0,110" />
        <path id="left-margin-Regular-M" d="M430,256 l0,110" />
        <path id="right-margin-Regular-M" d="M500,256 l0,110" />
        <path id="left-margin-Black-M" d="M630,256 l0,110" />
        <path id="right-margin-Black-M" d="M700,256 l0,110" />
        <path id="Capline-M" d="M18,276 l800,0" />
        <path id="Baseline-M" d="M18,346 l800,0" />
        <path id="Capline-L" d="M18,476 l800,0" />
        <path id="Baseline-L" d="M18,546 l800,0" />
    </g>
    <g id="Symbols">
        <g id="Ultralight-M" transform="translate(0,200)">
            <path d="M277.396,101.521 L277.41,101.521 C279.021,101.521 280.327,100.215 280.327,98.604 C280.327,96.993 279.021,95.688 277.41,95.688 L277.396,95.688 C275.785,95.688 274.479,96.993 274.479,98.604 C274.479,100.215 275.785,101.521 277.396,101.521 Z M277.396,113.188 L277.41,113.188 C279.021,113.188 280.327,111.882 280.327,110.271 C280.327,108.66 279.021,107.354 277.41,107.354 L277.396,107.354 C275.785,107.354 274.479,108.66 274.479,110.271 C274.479,111.882 275.785,113.188 277.396,113.188 Z M277.396,126.312 L277.41,126.312 C279.021,126.312 280.327,125.007 280.327,123.396 C280.327,121.785 279.021,120.479 277.41,120.479 L277.396,120.479 C275.785,120.479 274.479,121.785 274.479,123.396 C274.479,125.007 275.785,126.312 277.396,126.312 Z M252.604,101.521 L252.619,101.521 C254.23,101.521 255.535,100.215 255.535,98.604 C255.535,96.993 254.23,95.688 252.619,95.688 L252.604,95.688 C250.993,95.688 249.688,96.993 249.688,98.604 C249.688,100.215 250.993,101.521 252.604,101.521 Z M252.604,113.188 L252.619,113.188 C254.23,113.188 255.535,111.882 255.535,110.271 C255.535,108.66 254.23,107.354 252.619,107.354 L252.604,107.354 C250.993,107.354 249.688,108.66 249.688,110.271 C249.688,111.882 250.993,113.188 252.604,113.188 Z M252.604,126.312 L252.619,126.312 C254.23,126.312 255.535,125.007 255.535,123.396 C255.535,121.785 254.23,120.479 252.619,120.479 L252.604,120.479 C250.993,120.479 249.688,121.785 249.688,123.396 C249.688,125.007 250.993,126.312 252.604,126.312 Z M252.75,140.167 L277.25,140.167 C283.961,140.167 285.556,140.036 287.796,138.895 C289.992,137.776 291.776,135.992 292.895,133.797 C294.036,131.556 294.167,129.961 294.167,123.25 L294.167,98.75 C294.167,92.039 294.036,90.444 292.895,88.204 C291.776,86.008 289.992,84.224 287.797,83.105 C285.556,81.964 283.961,81.833 277.25,81.833 L252.75,81.833 C246.039,81.833 244.444,81.964 242.204,83.105 C240.008,84.224 238.224,86.008 237.105,88.203 C235.964,90.444 235.833,92.039 235.833,98.75 L235.833,123.25 C235.833,129.961 235.964,131.556 237.105,133.796 C238.223,135.992 240.008,137.777 242.203,138.895 C244.444,140.036 246.039,140.167 252.75,140.167 Z M252.75,134.333 C247.211,134.333 245.888,134.225 244.851,133.697 C243.754,133.138 242.862,132.246 242.303,131.148 C241.775,130.112 241.667,128.789 241.667,123.25 L241.667,98.75 C241.667,93.211 241.775,91.888 242.303,90.851 C242.862,89.754 243.754,88.862 244.852,88.303 C245.888,87.775 247.211,87.667 252.75,87.667 L277.25,87.667 C282.789,87.667 284.112,87.775 285.149,88.303 C286.246,88.862 287.138,89.754 287.698,90.852 C288.225,91.888 288.333,93.211 288.333,98.75 L288.333,123.25 C288.333,128.789 288.225,130.112 287.697,131.149 C287.138,132.246 286.246,133.138 285.148,133.698 C284.112,134.225 282.789,134.333 277.25,134.333 L252.75,134.333 Z M275.208,98.604 C275.208,97.396 276.188,96.417 277.396,96.417 C278.604,96.417 279.583,97.396 279.583,98.604 C279.583,99.812 278.604,100.792 277.396,100.792 C276.188,100.792 275.208,99.812 275.208,98.604 Z M281.042,98.604 C281.042,96.591 279.409,94.958 277.396,94.958 C275.382,94.958 273.75,96.591 273.75,98.604 C273.75,100.618 275.382,102.25 277.396,102.25 C279.409,102.25 281.042,100.618 281.042,98.604 Z M275.208,110.271 C275.208,109.063 276.188,108.083 277.396,108.083 C278.604,108.083 279.583,109.063 279.583,110.271 C279.583,111.479 278.604,112.458 277.396,112.458 C276.188,112.458 275.208,111.479 275.208,110.271 Z M281.042,110.271 C281.042,108.257 279.409,106.625 277.396,106.625 C275.382,106.625 273.75,108.257 273.75,110.271 C273.75,112.284 275.382,113.917 277.396,113.917 C279.409,113.917 281.042,112.284 281.042,110.271 Z M275.208,123.396 C275.208,122.188 276.188,121.208 277.396,121.208 C278.604,121.208 279.583,122.188 279.583,123.396 C279.583,124.604 278.604,125.583 277.396,125.583 C276.188,125.583 275.208,124.604 275.208,123.396 Z M281.042,123.396 C281.042,121.382 279.409,119.75 277.396,119.75 C275.382,119.75 273.75,121.382 273.75,123.396 C273.75,125.409 275.382,127.042 277.396,127.042 C279.409,127.042 281.042,125.409 281.042,123.396 Z M250.417,98.604 C250.417,97.396 251.396,96.417 252.604,96.417 C253.812,96.417 254.792,97.396 254.792,98.604 C254.792,99.812 253.812,100.792 252.604,100.792 C251.396,100.792 250.417,99.812 250.417,98.604 Z M256.25,98.604 C256.25,96.591 254.618,94.958 252.604,94.958 C250.591,94.958 248.958,96.591 248.958,98.604 C248.958,100.618 250.591,102.25 252.604,102.25 C254.618,102.25 256.25,100.618 256.25,98.604 Z M250.417,110.271 C250.417,109.063 251.396,108.083 252.604,108.083 C253.812,108.083 254.792,109.063 254.792,110.271 C254.792,111.479 253.812,112.458 252.604,112.458 C251.396,112.458 250.417,111.479 250.417,110.271 Z M256.25,110.271 C256.25,108.257 254.618,106.625 252.604,106.625 C250.591,106.625 248.958,108.257 248.958,110.271 C248.958,112.284 250.591,113.917 252.604,113.917 C254.618,113.917 256.25,112.284 256.25,110.271 Z M250.417,123.396 C250.417,122.188 251.396,121.208 252.604,121.208 C253.812,121.208 254.792,122.188 254.792,123.396 C254.792,124.604 253.812,125.583 252.604,125.583 C251.396,125.583 250.417,124.604 250.417,123.396 Z M256.25,123.396 C256.25,121.382 254.618,119.75 252.604,119.75 C250.591,119.75 248.958,121.382 248.958,123.396 C248.958,125.409 250.591,127.042 252.604,127.042 C254.618,127.042 256.25,125.409 256.25,123.396 Z" />
        </g>
        <g id="Regular-M" transform="translate(0,200)">
            <path d="M477.396,101.521 L477.41,101.521 C479.021,101.521 480.327,100.215 480.327,98.604 C480.327,96.993 479.021,95.688 477.41,95.688 L477.396,95.688 C475.785,95.688 474.479,96.993 474.479,98.604 C474.479,100.215 475.785,101.521 477.396,101.521 Z M477.396,113.188 L477.41,113.188 C479.021,113.188 480.327,111.882 480.327,110.271 C480.327,108.66 479.021,107.354 477.41,107.354 L477.396,107.354 C475.785,107.354 474.479,108.66 474.479,110.271 C474.479,111.882 475.785,113.188 477.396,113.188 Z M477.396,126.312 L477.41,126.312 C479.021,126.312 480.327,125.007 480.327,123.396 C480.327,121.785 479.021,120.479 477.41,120.479 L477.396,120.479 C475.785,120.479 474.479,121.785 474.479,123.396 C474.479,125.007 475.785,126.312 477.396,126.312 Z M452.604,101.521 L452.619,101.521 C454.23,101.521 455.535,100.215 455.535,98.604 C455.535,96.993 454.23,95.688 452.619,95.688 L452.604,95.688 C450.993,95.688 449.688,96.993 449.688,98.604 C449.688,100.215 450.993,101.521 452.604,101.521 Z M452.604,113.188 L452.619,113.188 C454.23,113.188 455.535,111.882 455.535,110.271 C455.535,108.66 454.23,107.354 452.619,107.354 L452.604,107.354 C450.993,107.354 449.688,108.66 449.688,110.271 C449.688,111.882 450.993,113.188 452.604,113.188 Z M452.604,126.312 L452.619,126.312 C454.23,126.312 455.535,125.007 455.535,123.396 C455.535,121.785 454.23,120.479 452.619,120.479 L452.604,120.479 C450.993,120.479 449.688,121.785 449.688,123.396 C449.688,125.007 450.993,126.312 452.604,126.312 Z M452.75,140.167 L477.25,140.167 C483.961,140.167 485.556,140.036 487.796,138.895 C489.992,137.776 491.776,135.992 492.895,133.797 C494.036,131.556 494.167,129.961 494.167,123.25 L494.167,98.75 C494.167,92.039 494.036,90.444 492.895,88.204 C491.776,86.008 489.992,84.224 487.797,83.105 C485.556,81.964 483.961,81.833 477.25,81.833 L452.75,81.833 C446.039,81.833 444.444,81.964 442.204,83.105 C440.008,84.224 438.224,86.008 437.105,88.203 C435.964,90.444 435.833,92.039 435.833,98.75 L435.833,123.25 C435.833,129.961 435.964,131.556 437.105,133.796 C438.224,135.992 440.008,137.777 442.203,138.895 C444.444,140.036 446.039,140.167 452.75,140.167 Z M452.75,134.333 C447.211,134.333 445.888,134.225 444.851,133.697 C443.754,133.138 442.862,132.246 442.302,131.148 C441.775,130.112 441.667,128.789 441.667,123.25 L441.667,98.75 C441.667,93.211 441.775,91.888 442.303,90.851 C442.862,89.754 443.754,88.862 444.852,88.303 C445.888,87.775 447.211,87.667 452.75,87.667 L477.25,87.667 C482.789,87.667 484.112,87.775 485.149,88.303 C486.246,88.862 487.138,89.754 487.698,90.852 C488.225,91.888 488.333,93.211 488.333,98.75 L488.333,123.25 C488.333,128.789 488.225,130.112 487.697,131.149 C487.138,132.246 486.246,133.138 485.148,133.698 C484.112,134.225 482.789,134.333 477.25,134.333 L452.75,134.333 Z M475.208,98.604 C475.208,97.396 476.188,96.417 477.396,96.417 C478.604,96.417 479.583,97.396 479.583,98.604 C479.583,99.812 478.604,100.792 477.396,100.792 C476.188,100.792 475.208,99.812 475.208,98.604 Z M481.042,98.604 C481.042,96.591 479.409,94.958 477.396,94.958 C475.382,94.958 473.75,96.591 473.75,98.604 C473.75,100.618 475.382,102.25 477.396,102.25 C479.409,102.25 481.042,100.618 481.042,98.604 Z M475.208,110.271 C475.208,109.063 476.188,108.083 477.396,108.083 C478.604,108.083 479.583,109.063 479.583,110.271 C479.583,111.479 478.604,112.458 477.396,112.458 C476.188,112.458 475.208,111.479 475.208,110.271 Z M481.042,110.271 C481.042,108.257 479.409,106.625 477.396,106.625 C475.382,106.625 473.75,108.257 473.75,110.271 C473.75,112.284 475.382,113.917 477.396,113.917 C479.409,113.917 481.042,112.284 481.042,110.271 Z M475.208,123.396 C475.208,122.188 476.188,121.208 477.396,121.208 C478.604,121.208 479.583,122.188 479.583,123.396 C479.583,124.604 478.604,125.583 477.396,125.583 C476.188,125.583 475.208,124.604 475.208,123.396 Z M481.042,123.396 C481.042,121.382 479.409,119.75 477.396,119.75 C475.382,119.75 473.75,121.382 473.75,123.396 C473.75,125.409 475.382,127.042 477.396,127.042 C479.409,127.042 481.042,125.409 481.042,123.396 Z M450.417,98.604 C450.417,97.396 451.396,96.417 452.604,96.417 C453.812,96.417 454.792,97.396 454.792,98.604 C454.792,99.812 453.812,100.792 452.604,100.792 C451.396,100.792 450.417,99.812 450.417,98.604 Z M456.25,98.604 C456.25,96.591 454.618,94.958 452.604,94.958 C450.591,94.958 448.958,96.591 448.958,98.604 C448.958,100.618 450.591,102.25 452.604,102.25 C454.618,102.25 456.25,100.618 456.25,98.604 Z M450.417,110.271 C450.417,109.063 451.396,108.083 452.604,108.083 C453.812,108.083 454.792,109.063 454.792,110.271 C454.792,111.479 453.812,112.458 452.604,112.458 C451.396,112.458 450.417,111.479 450.417,110.271 Z M456.25,110.271 C456.25,108.257 454.618,106.625 452.604,106.625 C450.591,106.625 448.958,108.257 448.958,110.271 C448.958,112.284 450.591,113.917 452.604,113.917 C454.618,113.917 456.25,112.284 456.25,110.271 Z M450.417,123.396 C450.417,122.188 451.396,121.208 452.604,121.208 C453.812,121.208 454.792,122.188 454.792,123.396 C454.792,124.604 453.812,125.583 452.604,125.583 C451.396,125.583 450.417,124.604 450.417,123.396 Z M456.25,123.396 C456.25,121.382 454.618,119.75 452.604,119.75 C450.591,119.75 448.958,121.382 448.958,123.396 C448.958,125.409 450.591,127.042 452.604,127.042 C454.618,127.042 456.25,125.409 456.25,123.396 Z" />
        </g>
        <g id="Black-M" transform="translate(0,200)">
            <path d="M677.396,101.521 L677.41,101.521 C679.021,101.521 680.327,100.215 680.327,98.604 C680.327,96.993 679.021,95.688 677.41,95.688 L677.396,95.688 C675.785,95.688 674.479,96.993 674.479,98.604 C674.479,100.215 675.785,101.521 677.396,101.521 Z M677.396,113.188 L677.41,113.188 C679.021,113.188 680.327,111.882 680.327,110.271 C680.327,108.66 679.021,107.354 677.41,107.354 L677.396,107.354 C675.785,107.354 674.479,108.66 674.479,110.271 C674.479,111.882 675.785,113.188 677.396,113.188 Z M677.396,126.312 L677.41,126.312 C679.021,126.312 680.327,125.007 680.327,123.396 C680.327,121.785 679.021,120.479 677.41,120.479 L677.396,120.479 C675.785,120.479 674.479,121.785 674.479,123.396 C674.479,125.007 675.785,126.312 677.396,126.312 Z M652.604,101.521 L652.619,101.521 C654.23,101.521 655.535,100.215 655.535,98.604 C655.535,96.993 654.23,95.688 652.619,95.688 L652.604,95.688 C650.993,95.688 649.688,96.993 649.688,98.604 C649.688,100.215 650.993,101.521 652.604,101.521 Z M652.604,113.188 L652.619,113.188 C654.23,113.188 655.535,111.882 655.535,110.271 C655.535,108.66 654.23,107.354 652.619,107.354 L652.604,107.354 C650.993,107.354 649.688,108.66 649.688,110.271 C649.688,111.882 650.993,113.188 652.604,113.188 Z M652.604,126.312 L652.619,126.312 C654.23,126.312 655.535,125.007 655.535,123.396 C655.535,121.785 654.23,120.479 652.619,120.479 L652.604,120.479 C650.993,120.479 649.688,121.785 649.688,123.396 C649.688,125.007 650.993,126.312 652.604,126.312 Z M652.75,140.167 L677.25,140.167 C683.961,140.167 685.556,140.036 687.796,138.895 C689.992,137.776 691.776,135.992 692.895,133.797 C694.036,131.556 694.167,129.961 694.167,123.25 L694.167,98.75 C694.167,92.039 694.036,90.444 692.895,88.204 C691.776,86.008 689.992,84.224 687.797,83.105 C685.556,81.964 683.961,81.833 677.25,81.833 L652.75,81.833 C646.039,81.833 644.444,81.964 642.204,83.105 C640.008,84.224 638.224,86.008 637.105,88.203 C635.964,90.444 635.833,92.039 635.833,98.75 L635.833,123.25 C635.833,129.961 635.964,131.556 637.105,133.796 C638.224,135.992 640.008,137.777 642.203,138.895 C644.444,140.036 646.039,140.167 652.75,140.167 Z M652.75,134.333 C647.211,134.333 645.888,134.225 644.851,133.697 C643.754,133.138 642.862,132.246 642.302,131.148 C641.775,130.112 641.667,128.789 641.667,123.25 L641.667,98.75 C641.667,93.211 641.775,91.888 642.303,90.851 C642.862,89.754 643.754,88.862 644.852,88.303 C645.888,87.775 647.211,87.667 652.75,87.667 L677.25,87.667 C682.789,87.667 684.112,87.775 685.149,88.303 C686.246,88.862 687.138,89.754 687.698,90.852 C688.225,91.888 688.333,93.211 688.333,98.75 L688.333,123.25 C688.333,128.789 688.225,130.112 687.697,131.149 C687.138,132.246 686.246,133.138 685.148,133.698 C684.112,134.225 682.789,134.333 677.25,134.333 L652.75,134.333 Z M675.208,98.604 C675.208,97.396 676.188,96.417 677.396,96.417 C678.604,96.417 679.583,97.396 679.583,98.604 C679.583,99.812 678.604,100.792 677.396,100.792 C676.188,100.792 675.208,99.812 675.208,98.604 Z M681.042,98.604 C681.042,96.591 679.409,94.958 677.396,94.958 C675.382,94.958 673.75,96.591 673.75,98.604 C673.75,100.618 675.382,102.25 677.396,102.25 C679.409,102.25 681.042,100.618 681.042,98.604 Z M675.208,110.271 C675.208,109.063 676.188,108.083 677.396,108.083 C678.604,108.083 679.583,109.063 679.583,110.271 C679.583,111.479 678.604,112.458 677.396,112.458 C676.188,112.458 675.208,111.479 675.208,110.271 Z M681.042,110.271 C681.042,108.257 679.409,106.625 677.396,106.625 C675.382,106.625 673.75,108.257 673.75,110.271 C673.75,112.284 675.382,113.917 677.396,113.917 C679.409,113.917 681.042,112.284 681.042,110.271 Z M675.208,123.396 C675.208,122.188 676.188,121.208 677.396,121.208 C678.604,121.208 679.583,122.188 679.583,123.396 C679.583,124.604 678.604,125.583 677.396,125.583 C676.188,125.583 675.208,124.604 675.208,123.396 Z M681.042,123.396 C681.042,121.382 679.409,119.75 677.396,119.75 C675.382,119.75 673.75,121.382 673.75,123.396 C673.75,125.409 675.382,127.042 677.396,127.042 C679.409,127.042 681.042,125.409 681.042,123.396 Z M650.417,98.604 C650.417,97.396 651.396,96.417 652.604,96.417 C653.812,96.417 654.792,97.396 654.792,98.604 C654.792,99.812 653.812,100.792 652.604,100.792 C651.396,100.792 650.417,99.812 650.417,98.604 Z M656.25,98.604 C656.25,96.591 654.618,94.958 652.604,94.958 C650.591,94.958 648.958,96.591 648.958,98.604 C648.958,100.618 650.591,102.25 652.604,102.25 C654.618,102.25 656.25,100.618 656.25,98.604 Z M650.417,110.271 C650.417,109.063 651.396,108.083 652.604,108.083 C653.812,108.083 654.792,109.063 654.792,110.271 C654.792,111.479 653.812,112.458 652.604,112.458 C651.396,112.458 650.417,111.479 650.417,110.271 Z M656.25,110.271 C656.25,108.257 654.618,106.625 652.604,106.625 C650.591,106.625 648.958,108.257 648.958,110.271 C648.958,112.284 650.591,113.917 652.604,113.917 C654.618,113.917 656.25,112.284 656.25,110.271 Z M650.417,123.396 C650.417,122.188 651.396,121.208 652.604,121.208 C653.812,121.208 654.792,122.188 654.792,123.396 C654.792,124.604 653.812,125.583 652.604,125.583 C651.396,125.583 650.417,124.604 650.417,123.396 Z M656.25,123.396 C656.25,121.382 654.618,119.75 652.604,119.75 C650.591,119.75 648.958,121.382 648.958,123.396 C648.958,125.409 650.591,127.042 652.604,127.042 C654.618,127.042 656.25,125.409 656.25,123.396 Z" />
        </g>
    </g>
</svg>