<?xml version="1.0" encoding="UTF-8"?>
<svg height="600" width="800" xmlns="http://www.w3.org/2000/svg" xmlns:xlink="http://www.w3.org/1999/xlink">
    <g id="Notes" font-family="LucidaGrande, 'Lucida Grande', sans-serif" font-size="13">
        <rect fill="white" height="600.0" width="800.0" x="0.0" y="0.0" />
        <g font-size="13">
            <text x="18.0" y="176.0">Small</text>
            <text x="18.0" y="376.0">Medium</text>
            <text x="18.0" y="576.0">Large</text>
        </g>
        <g font-size="9">
            <text x="250.0" y="30.0">Ultralight</text>
            <text x="450.0" y="30.0">Regular</text>
            <text x="650.0" y="30.0">Black</text>
            <text id="template-version" fill="#505050" text-anchor="end" x="785.0" y="575.0">Template v.3.0</text>
            <a href="https://github.com/swhitty/SwiftDraw">
                <text fill="#505050" text-anchor="end" x="785.0" y="590.0">https://github.com/swhitty/SwiftDraw</text>
            </a>
        </g>
    </g>
    <g id="Guides" stroke="rgb(39, 170, 225)" stroke-width="0.5">
        <path id="Capline-S" d="M18,76 l800,0" />
        <path id="H-reference" d="M85,145.755 L87.685,145.755 L113.369,79.287 L114.052,79.287 L114.052,76 L112.148,76 L85,145.755 Z M95.693,121.536 L130.996,121.536 L130.263,119.313 L96.474,119.313 L95.693,121.536 Z M139.15,145.755 L141.787,145.755 L114.638,76 L113.466,76 L113.466,79.287 L139.15,145.755 Z" stroke="none" transform="translate(0,200)" />
        <path id="Baseline-S" d="M18,146 l800,0" />
        <path id="left-margin-Ultralight-M" d="M230,256 l0,110" />
        <path id="right-margin-Ultralight-M" d="M300,256 l0,110" />
        <path id="left-margin-Regular-M" d="M430,256 l0,110" />
        <path id="right-margin-Regular-M" d="M500,256 l0,110" />
        <path id="left-margin-Black-M" d="M630,256 l0,110" />
        <path id="right-margin-Black-M" d="M700,256 l0,110" />
        <path id="Capline-M" d="M18,276 l800,0" />
        <path id="Baseline-M" d="M18,346 l800,0" />
        <path id="Capline-L" d="M18,476 l800,0" />
        <path id="Baseline-L" d="M18,546 l800,0" />
    </g>
    <g id="Symbols">
        <g id="Ultralight-M" transform="translate(0,200)">
            <path d="M233.889,115.375 L296.111,115.375 C298.259,115.375 300,113.416 300,111 C300,108.584 298.259,106.625 296.111,106.625 L233.889,106.625 C231.741,106.625 230,108.584 230,111 C230,113.416 231.741,115.375 233.889,115.375 Z M265,84.75 C265,84.75 265,84.75 265,84.75 C265,84.75 265,84.75 265,84.75 C265,84.75 265,84.75 265,84.75 C265,84.75 265,84.75 265,84.75 Z M272.778,84.75 C272.778,79.918 269.296,76 265,76 C260.704,76 257.222,79.918 257.222,84.75 C257.222,89.582 260.704,93.5 265,93.5 C269.296,93.5 272.778,89.582 272.778,84.75 Z M265,137.25 C265,137.25 265,137.25 265,137.25 C265,137.25 265,137.25 265,137.25 C265,137.25 265,137.25 265,137.25 C265,137.25 265,137.25 265,137.25 Z M272.778,137.25 C272.778,132.418 269.296,128.5 265,128.5 C260.704,128.5 257.222,132.418 257.222,137.25 C257.222,142.082 260.704,146 265,146 C269.296,146 272.778,142.082 272.778,137.25 Z" />
        </g>
        <g id="Regular-M" transform="translate(0,200)">
            <path d="M433.889,115.375 L496.111,115.375 C498.259,115.375 500,113.416 500,111 C500,108.584 498.259,106.625 496.111,106.625 L433.889,106.625 C431.741,106.625 430,108.584 430,111 C430,113.416 431.741,115.375 433.889,115.375 Z M465,84.75 C465,84.75 465,84.75 465,84.75 C465,84.75 465,84.75 465,84.75 C465,84.75 465,84.75 465,84.75 C465,84.75 465,84.75 465,84.75 Z M472.778,84.75 C472.778,79.918 469.296,76 465,76 C460.704,76 457.222,79.918 457.222,84.75 C457.222,89.582 460.704,93.5 465,93.5 C469.296,93.5 472.778,89.582 472.778,84.75 Z M465,137.25 C465,137.25 465,137.25 465,137.25 C465,137.25 465,137.25 465,137.25 C465,137.25 465,137.25 465,137.25 C465,137.25 465,137.25 465,137.25 Z M472.778,137.25 C472.778,132.418 469.296,128.5 465,128.5 C460.704,128.5 457.222,132.418 457.222,137.25 C457.222,142.082 460.704,146 465,146 C469.296,146 472.778,142.082 472.778,137.25 Z" />
        </g>
        <g id="Black-M" transform="translate(0,200)">
            <path d="M633.889,115.375 L696.111,115.375 C698.259,115.375 700,113.416 700,111 C700,108.584 698.259,106.625 696.111,106.625 L633.889,106.625 C631.741,106.625 630,108.584 630,111 C630,113.416 631.741,115.375 633.889,115.375 Z M665,84.75 C665,84.75 665,84.75 665,84.75 C665,84.75 665,84.75 665,84.75 C665,84.75 665,84.75 665,84.75 C665,84.75 665,84.75 665,84.75 Z M672.778,84.75 C672.778,79.918 669.296,76 665,76 C660.704,76 657.222,79.918 657.222,84.75 C657.222,89.582 660.704,93.5 665,93.5 C669.296,93.5 672.778,89.582 672.778,84.75 Z M665,137.25 C665,137.25 665,137.25 665,137.25 C665,137.25 665,137.25 665,137.25 C665,137.25 665,137.25 665,137.25 C665,137.25 665,137.25 665,137.25 Z M672.778,137.25 C672.778,132.418 669.296,128.5 665,128.5 C660.704,128.5 657.222,132.418 657.222,137.25 C657.222,142.082 660.704,146 665,146 C669.296,146 672.778,142.082 672.778,137.25 Z" />
        </g>
    </g>
</svg>