<?xml version="1.0" encoding="UTF-8"?>
<svg height="600" width="800" xmlns="http://www.w3.org/2000/svg" xmlns:xlink="http://www.w3.org/1999/xlink">
    <g id="Notes" font-family="LucidaGrande, 'Lucida Grande', sans-serif" font-size="13">
        <rect fill="white" height="600.0" width="800.0" x="0.0" y="0.0" />
        <g font-size="13">
            <text x="18.0" y="176.0">Small</text>
            <text x="18.0" y="376.0">Medium</text>
            <text x="18.0" y="576.0">Large</text>
        </g>
        <g font-size="9">
            <text x="250.0" y="30.0">Ultralight</text>
            <text x="450.0" y="30.0">Regular</text>
            <text x="650.0" y="30.0">Black</text>
            <text id="template-version" fill="#505050" text-anchor="end" x="785.0" y="575.0">Template v.3.0</text>
            <a href="https://github.com/swhitty/SwiftDraw">
                <text fill="#505050" text-anchor="end" x="785.0" y="590.0">https://github.com/swhitty/SwiftDraw</text>
            </a>
        </g>
    </g>
    <g id="Guides" stroke="rgb(39, 170, 225)" stroke-width="0.5">
        <path id="Capline-S" d="M18,76 l800,0" />
        <path id="H-reference" d="M85,145.755 L87.685,145.755 L113.369,79.287 L114.052,79.287 L114.052,76 L112.148,76 L85,145.755 Z M95.693,121.536 L130.996,121.536 L130.263,119.313 L96.474,119.313 L95.693,121.536 Z M139.15,145.755 L141.787,145.755 L114.638,76 L113.466,76 L113.466,79.287 L139.15,145.755 Z" stroke="none" transform="translate(0,200)" />
        <path id="Baseline-S" d="M18,146 l800,0" />
        <path id="left-margin-Ultralight-M" d="M221,256 l0,110" />
        <path id="right-margin-Ultralight-M" d="M309,256 l0,110" />
        <path id="left-margin-Regular-M" d="M421,256 l0,110" />
        <path id="right-margin-Regular-M" d="M509,256 l0,110" />
        <path id="left-margin-Black-M" d="M621,256 l0,110" />
        <path id="right-margin-Black-M" d="M709,256 l0,110" />
        <path id="Capline-M" d="M18,276 l800,0" />
        <path id="Baseline-M" d="M18,346 l800,0" />
        <path id="Capline-L" d="M18,476 l800,0" />
        <path id="Baseline-L" d="M18,546 l800,0" />
    </g>
    <g id="Symbols">
        <g id="Ultralight-M" transform="translate(0,200)">
            <path d="M284.8,93.4 L260.6,93.4 C259.385,93.4 258.4,94.385 258.4,95.6 C258.4,96.815 259.385,97.8 260.6,97.8 L284.8,97.8 C286.015,97.8 287,96.815 287,95.6 C287,94.385 286.015,93.4 284.8,93.4 Z M284.8,124.2 L260.6,124.2 C259.385,124.2 258.4,125.185 258.4,126.4 C258.4,127.615 259.385,128.6 260.6,128.6 L284.8,128.6 C286.015,128.6 287,127.615 287,126.4 C287,125.185 286.015,124.2 284.8,124.2 Z M284.8,108.8 L260.6,108.8 C259.385,108.8 258.4,109.785 258.4,111 C258.4,112.215 259.385,113.2 260.6,113.2 L284.8,113.2 C286.015,113.2 287,112.215 287,111 C287,109.785 286.015,108.8 284.8,108.8 Z M249.6,95.6 C249.6,96.208 249.108,96.7 248.5,96.7 C247.892,96.7 247.4,96.208 247.4,95.6 C247.4,94.992 247.892,94.5 248.5,94.5 C249.108,94.5 249.6,94.992 249.6,95.6 Z M254,95.6 C254,92.562 251.538,90.1 248.5,90.1 C245.462,90.1 243,92.562 243,95.6 C243,98.638 245.462,101.1 248.5,101.1 C251.538,101.1 254,98.638 254,95.6 Z M249.6,126.4 C249.6,127.008 249.108,127.5 248.5,127.5 C247.893,127.5 247.4,127.008 247.4,126.4 C247.4,125.792 247.892,125.3 248.5,125.3 C249.108,125.3 249.6,125.792 249.6,126.4 Z M254,126.4 C254,123.362 251.538,120.9 248.5,120.9 C245.462,120.9 243,123.362 243,126.4 C243,129.438 245.462,131.9 248.5,131.9 C251.538,131.9 254,129.438 254,126.4 Z M249.6,111 C249.6,111.608 249.108,112.1 248.5,112.1 C247.892,112.1 247.4,111.608 247.4,111 C247.4,110.392 247.892,109.9 248.5,109.9 C249.108,109.9 249.6,110.392 249.6,111 Z M254,111 C254,107.962 251.538,105.5 248.5,105.5 C245.462,105.5 243,107.962 243,111 C243,114.038 245.462,116.5 248.5,116.5 C251.538,116.5 254,114.038 254,111 Z" />
        </g>
        <g id="Regular-M" transform="translate(0,200)">
            <path d="M484.8,93.4 L460.6,93.4 C459.385,93.4 458.4,94.385 458.4,95.6 C458.4,96.815 459.385,97.8 460.6,97.8 L484.8,97.8 C486.015,97.8 487,96.815 487,95.6 C487,94.385 486.015,93.4 484.8,93.4 Z M484.8,124.2 L460.6,124.2 C459.385,124.2 458.4,125.185 458.4,126.4 C458.4,127.615 459.385,128.6 460.6,128.6 L484.8,128.6 C486.015,128.6 487,127.615 487,126.4 C487,125.185 486.015,124.2 484.8,124.2 Z M484.8,108.8 L460.6,108.8 C459.385,108.8 458.4,109.785 458.4,111 C458.4,112.215 459.385,113.2 460.6,113.2 L484.8,113.2 C486.015,113.2 487,112.215 487,111 C487,109.785 486.015,108.8 484.8,108.8 Z M449.6,95.6 C449.6,96.208 449.108,96.7 448.5,96.7 C447.892,96.7 447.4,96.208 447.4,95.6 C447.4,94.992 447.892,94.5 448.5,94.5 C449.108,94.5 449.6,94.992 449.6,95.6 Z M454,95.6 C454,92.562 451.538,90.1 448.5,90.1 C445.462,90.1 443,92.562 443,95.6 C443,98.638 445.462,101.1 448.5,101.1 C451.538,101.1 454,98.638 454,95.6 Z M449.6,126.4 C449.6,127.008 449.108,127.5 448.5,127.5 C447.892,127.5 447.4,127.008 447.4,126.4 C447.4,125.792 447.892,125.3 448.5,125.3 C449.108,125.3 449.6,125.792 449.6,126.4 Z M454,126.4 C454,123.362 451.538,120.9 448.5,120.9 C445.462,120.9 443,123.362 443,126.4 C443,129.438 445.462,131.9 448.5,131.9 C451.538,131.9 454,129.438 454,126.4 Z M449.6,111 C449.6,111.608 449.108,112.1 448.5,112.1 C447.892,112.1 447.4,111.608 447.4,111 C447.4,110.392 447.892,109.9 448.5,109.9 C449.108,109.9 449.6,110.392 449.6,111 Z M454,111 C454,107.962 451.538,105.5 448.5,105.5 C445.462,105.5 443,107.962 443,111 C443,114.038 445.462,116.5 448.5,116.5 C451.538,116.5 454,114.038 454,111 Z" />
        </g>
        <g id="Black-M" transform="translate(0,200)">
            <path d="M684.8,93.4 L660.6,93.4 C659.385,93.4 658.4,94.385 658.4,95.6 C658.4,96.815 659.385,97.8 660.6,97.8 L684.8,97.8 C686.015,97.8 687,96.815 687,95.6 C687,94.385 686.015,93.4 684.8,93.4 Z M684.8,124.2 L660.6,124.2 C659.385,124.2 658.4,125.185 658.4,126.4 C658.4,127.615 659.385,128.6 660.6,128.6 L684.8,128.6 C686.015,128.6 687,127.615 687,126.4 C687,125.185 686.015,124.2 684.8,124.2 Z M684.8,108.8 L660.6,108.8 C659.385,108.8 658.4,109.785 658.4,111 C658.4,112.215 659.385,113.2 660.6,113.2 L684.8,113.2 C686.015,113.2 687,112.215 687,111 C687,109.785 686.015,108.8 684.8,108.8 Z M649.6,95.6 C649.6,96.208 649.107,96.7 648.5,96.7 C647.892,96.7 647.4,96.208 647.4,95.6 C647.4,94.992 647.892,94.5 648.5,94.5 C649.107,94.5 649.6,94.992 649.6,95.6 Z M654,95.6 C654,92.562 651.538,90.1 648.5,90.1 C645.462,90.1 643,92.562 643,95.6 C643,98.638 645.462,101.1 648.5,101.1 C651.538,101.1 654,98.638 654,95.6 Z M649.6,126.4 C649.6,127.008 649.107,127.5 648.5,127.5 C647.892,127.5 647.4,127.008 647.4,126.4 C647.4,125.792 647.892,125.3 648.5,125.3 C649.107,125.3 649.6,125.792 649.6,126.4 Z M654,126.4 C654,123.362 651.538,120.9 648.5,120.9 C645.462,120.9 643,123.362 643,126.4 C643,129.438 645.462,131.9 648.5,131.9 C651.538,131.9 654,129.438 654,126.4 Z M649.6,111 C649.6,111.608 649.107,112.1 648.5,112.1 C647.892,112.1 647.4,111.608 647.4,111 C647.4,110.392 647.892,109.9 648.5,109.9 C649.107,109.9 649.6,110.392 649.6,111 Z M654,111 C654,107.962 651.538,105.5 648.5,105.5 C645.462,105.5 643,107.962 643,111 C643,114.038 645.462,116.5 648.5,116.5 C651.538,116.5 654,114.038 654,111 Z" />
        </g>
    </g>
</svg>