<?xml version="1.0" encoding="UTF-8"?>
<svg height="600" width="800" xmlns="http://www.w3.org/2000/svg" xmlns:xlink="http://www.w3.org/1999/xlink">
    <g id="Notes" font-family="LucidaGrande, 'Lucida Grande', sans-serif" font-size="13">
        <rect fill="white" height="600.0" width="800.0" x="0.0" y="0.0" />
        <g font-size="13">
            <text x="18.0" y="176.0">Small</text>
            <text x="18.0" y="376.0">Medium</text>
            <text x="18.0" y="576.0">Large</text>
        </g>
        <g font-size="9">
            <text x="250.0" y="30.0">Ultralight</text>
            <text x="450.0" y="30.0">Regular</text>
            <text x="650.0" y="30.0">Black</text>
            <text id="template-version" fill="#505050" text-anchor="end" x="785.0" y="575.0">Template v.3.0</text>
            <a href="https://github.com/swhitty/SwiftDraw">
                <text fill="#505050" text-anchor="end" x="785.0" y="590.0">https://github.com/swhitty/SwiftDraw</text>
            </a>
        </g>
    </g>
    <g id="Guides" stroke="rgb(39, 170, 225)" stroke-width="0.5">
        <path id="Capline-S" d="M18,76 l800,0" />
        <path id="H-reference" d="M85,145.755 L87.685,145.755 L113.369,79.287 L114.052,79.287 L114.052,76 L112.148,76 L85,145.755 Z M95.693,121.536 L130.996,121.536 L130.263,119.313 L96.474,119.313 L95.693,121.536 Z M139.15,145.755 L141.787,145.755 L114.638,76 L113.466,76 L113.466,79.287 L139.15,145.755 Z" stroke="none" transform="translate(0,200)" />
        <path id="Baseline-S" d="M18,146 l800,0" />
        <path id="left-margin-Ultralight-M" d="M230,256 l0,110" />
        <path id="right-margin-Ultralight-M" d="M300,256 l0,110" />
        <path id="left-margin-Regular-M" d="M430,256 l0,110" />
        <path id="right-margin-Regular-M" d="M500,256 l0,110" />
        <path id="left-margin-Black-M" d="M630,256 l0,110" />
        <path id="right-margin-Black-M" d="M700,256 l0,110" />
        <path id="Capline-M" d="M18,276 l800,0" />
        <path id="Baseline-M" d="M18,346 l800,0" />
        <path id="Capline-L" d="M18,476 l800,0" />
        <path id="Baseline-L" d="M18,546 l800,0" />
    </g>
    <g id="Symbols">
        <g id="Ultralight-M" transform="translate(0,200)">
            <path d="M265,118.778 C269.296,118.778 272.778,115.296 272.778,111 C272.778,106.704 269.296,103.222 265,103.222 C260.704,103.222 257.222,106.704 257.222,111 C257.222,115.296 260.704,118.778 265,118.778 Z M265,111 C265,111 265,111 265,111 C265,111 265,111 265,111 C265,111 265,111 265,111 C265,111 265,111 265,111 Z M265,91.556 C269.296,91.556 272.778,88.073 272.778,83.778 C272.778,79.482 269.296,76 265,76 C260.704,76 257.222,79.482 257.222,83.778 C257.222,88.073 260.704,91.556 265,91.556 Z M265,83.778 C265,83.778 265,83.778 265,83.778 C265,83.778 265,83.778 265,83.778 C265,83.778 265,83.778 265,83.778 C265,83.778 265,83.778 265,83.778 Z M265,146 C269.296,146 272.778,142.518 272.778,138.222 C272.778,133.927 269.296,130.444 265,130.444 C260.704,130.444 257.222,133.927 257.222,138.222 C257.222,142.518 260.704,146 265,146 Z M265,138.222 C265,138.222 265,138.222 265,138.222 C265,138.222 265,138.222 265,138.222 C265,138.222 265,138.222 265,138.222 C265,138.222 265,138.222 265,138.222 Z" />
        </g>
        <g id="Regular-M" transform="translate(0,200)">
            <path d="M465,118.778 C469.296,118.778 472.778,115.296 472.778,111 C472.778,106.704 469.296,103.222 465,103.222 C460.704,103.222 457.222,106.704 457.222,111 C457.222,115.296 460.704,118.778 465,118.778 Z M465,111 C465,111 465,111 465,111 C465,111 465,111 465,111 C465,111 465,111 465,111 C465,111 465,111 465,111 Z M465,91.556 C469.296,91.556 472.778,88.073 472.778,83.778 C472.778,79.482 469.296,76 465,76 C460.704,76 457.222,79.482 457.222,83.778 C457.222,88.073 460.704,91.556 465,91.556 Z M465,83.778 C465,83.778 465,83.778 465,83.778 C465,83.778 465,83.778 465,83.778 C465,83.778 465,83.778 465,83.778 C465,83.778 465,83.778 465,83.778 Z M465,146 C469.296,146 472.778,142.518 472.778,138.222 C472.778,133.927 469.296,130.444 465,130.444 C460.704,130.444 457.222,133.927 457.222,138.222 C457.222,142.518 460.704,146 465,146 Z M465,138.222 C465,138.222 465,138.222 465,138.222 C465,138.222 465,138.222 465,138.222 C465,138.222 465,138.222 465,138.222 C465,138.222 465,138.222 465,138.222 Z" />
        </g>
        <g id="Black-M" transform="translate(0,200)">
            <path d="M665,118.778 C669.296,118.778 672.778,115.296 672.778,111 C672.778,106.704 669.296,103.222 665,103.222 C660.704,103.222 657.222,106.704 657.222,111 C657.222,115.296 660.704,118.778 665,118.778 Z M665,111 C665,111 665,111 665,111 C665,111 665,111 665,111 C665,111 665,111 665,111 C665,111 665,111 665,111 Z M665,91.556 C669.296,91.556 672.778,88.073 672.778,83.778 C672.778,79.482 669.296,76 665,76 C660.704,76 657.222,79.482 657.222,83.778 C657.222,88.073 660.704,91.556 665,91.556 Z M665,83.778 C665,83.778 665,83.778 665,83.778 C665,83.778 665,83.778 665,83.778 C665,83.778 665,83.778 665,83.778 C665,83.778 665,83.778 665,83.778 Z M665,146 C669.296,146 672.778,142.518 672.778,138.222 C672.778,133.927 669.296,130.444 665,130.444 C660.704,130.444 657.222,133.927 657.222,138.222 C657.222,142.518 660.704,146 665,146 Z M665,138.222 C665,138.222 665,138.222 665,138.222 C665,138.222 665,138.222 665,138.222 C665,138.222 665,138.222 665,138.222 C665,138.222 665,138.222 665,138.222 Z" />
        </g>
    </g>
</svg>