<?xml version="1.0" encoding="UTF-8"?>
<svg height="600" width="800" xmlns="http://www.w3.org/2000/svg" xmlns:xlink="http://www.w3.org/1999/xlink">
    <g id="Notes" font-family="LucidaGrande, 'Lucida Grande', sans-serif" font-size="13">
        <rect fill="white" height="600.0" width="800.0" x="0.0" y="0.0" />
        <g font-size="13">
            <text x="18.0" y="176.0">Small</text>
            <text x="18.0" y="376.0">Medium</text>
            <text x="18.0" y="576.0">Large</text>
        </g>
        <g font-size="9">
            <text x="250.0" y="30.0">Ultralight</text>
            <text x="450.0" y="30.0">Regular</text>
            <text x="650.0" y="30.0">Black</text>
            <text id="template-version" fill="#505050" text-anchor="end" x="785.0" y="575.0">Template v.3.0</text>
            <a href="https://github.com/swhitty/SwiftDraw">
                <text fill="#505050" text-anchor="end" x="785.0" y="590.0">https://github.com/swhitty/SwiftDraw</text>
            </a>
        </g>
    </g>
    <g id="Guides" stroke="rgb(39, 170, 225)" stroke-width="0.5">
        <path id="Capline-S" d="M18,76 l800,0" />
        <path id="H-reference" d="M85,145.755 L87.685,145.755 L113.369,79.287 L114.052,79.287 L114.052,76 L112.148,76 L85,145.755 Z M95.693,121.536 L130.996,121.536 L130.263,119.313 L96.474,119.313 L95.693,121.536 Z M139.15,145.755 L141.787,145.755 L114.638,76 L113.466,76 L113.466,79.287 L139.15,145.755 Z" stroke="none" transform="translate(0,200)" />
        <path id="Baseline-S" d="M18,146 l800,0" />
        <path id="left-margin-Ultralight-M" d="M221,256 l0,110" />
        <path id="right-margin-Ultralight-M" d="M309,256 l0,110" />
        <path id="left-margin-Regular-M" d="M421,256 l0,110" />
        <path id="right-margin-Regular-M" d="M509,256 l0,110" />
        <path id="left-margin-Black-M" d="M621,256 l0,110" />
        <path id="right-margin-Black-M" d="M709,256 l0,110" />
        <path id="Capline-M" d="M18,276 l800,0" />
        <path id="Baseline-M" d="M18,346 l800,0" />
        <path id="Capline-L" d="M18,476 l800,0" />
        <path id="Baseline-L" d="M18,546 l800,0" />
    </g>
    <g id="Symbols">
        <g id="Ultralight-M" transform="translate(0,200)">
            <path d="M284.8,128.6 L245.2,128.6 C243.985,128.6 243,129.585 243,130.8 C243,132.015 243.985,133 245.2,133 L284.8,133 C286.015,133 287,132.015 287,130.8 C287,129.585 286.015,128.6 284.8,128.6 Z M276.644,107.244 L263.444,120.444 C262.585,121.304 262.585,122.696 263.444,123.556 C264.304,124.415 265.697,124.415 266.556,123.556 L279.756,110.356 C280.615,109.496 280.615,108.104 279.756,107.244 C278.896,106.385 277.504,106.385 276.644,107.244 Z M266.556,120.444 L253.356,107.244 C252.496,106.385 251.104,106.385 250.244,107.244 C249.385,108.104 249.385,109.496 250.244,110.356 L263.444,123.556 C264.304,124.415 265.697,124.415 266.556,123.556 C267.415,122.696 267.415,121.304 266.556,120.444 Z M267.2,122 L267.2,91.2 C267.2,89.985 266.215,89 265,89 C263.785,89 262.8,89.985 262.8,91.2 L262.8,122 C262.8,123.215 263.785,124.2 265,124.2 C266.215,124.2 267.2,123.215 267.2,122 Z" />
        </g>
        <g id="Regular-M" transform="translate(0,200)">
            <path d="M484.8,128.6 L445.2,128.6 C443.985,128.6 443,129.585 443,130.8 C443,132.015 443.985,133 445.2,133 L484.8,133 C486.015,133 487,132.015 487,130.8 C487,129.585 486.015,128.6 484.8,128.6 Z M476.644,107.244 L463.444,120.444 C462.585,121.304 462.585,122.696 463.444,123.556 C464.304,124.415 465.697,124.415 466.556,123.556 L479.756,110.356 C480.615,109.496 480.615,108.104 479.756,107.244 C478.896,106.385 477.504,106.385 476.644,107.244 Z M466.556,120.444 L453.356,107.244 C452.496,106.385 451.104,106.385 450.244,107.244 C449.385,108.104 449.385,109.496 450.244,110.356 L463.444,123.556 C464.304,124.415 465.697,124.415 466.556,123.556 C467.415,122.696 467.415,121.304 466.556,120.444 Z M467.2,122 L467.2,91.2 C467.2,89.985 466.215,89 465,89 C463.785,89 462.8,89.985 462.8,91.2 L462.8,122 C462.8,123.215 463.785,124.2 465,124.2 C466.215,124.2 467.2,123.215 467.2,122 Z" />
        </g>
        <g id="Black-M" transform="translate(0,200)">
            <path d="M684.8,128.6 L645.2,128.6 C643.985,128.6 643,129.585 643,130.8 C643,132.015 643.985,133 645.2,133 L684.8,133 C686.015,133 687,132.015 687,130.8 C687,129.585 686.015,128.6 684.8,128.6 Z M676.644,107.244 L663.444,120.444 C662.585,121.304 662.585,122.696 663.444,123.556 C664.303,124.415 665.696,124.415 666.556,123.556 L679.756,110.356 C680.615,109.496 680.615,108.104 679.756,107.244 C678.896,106.385 677.503,106.385 676.644,107.244 Z M666.556,120.444 L653.356,107.244 C652.496,106.385 651.104,106.385 650.244,107.244 C649.385,108.104 649.385,109.496 650.244,110.356 L663.444,123.556 C664.303,124.415 665.696,124.415 666.556,123.556 C667.415,122.696 667.415,121.304 666.556,120.444 Z M667.2,122 L667.2,91.2 C667.2,89.985 666.215,89 665,89 C663.785,89 662.8,89.985 662.8,91.2 L662.8,122 C662.8,123.215 663.785,124.2 665,124.2 C666.215,124.2 667.2,123.215 667.2,122 Z" />
        </g>
    </g>
</svg>