<?xml version="1.0" encoding="UTF-8"?>
<svg height="600" width="800" xmlns="http://www.w3.org/2000/svg" xmlns:xlink="http://www.w3.org/1999/xlink">
    <g id="Notes" font-family="LucidaGrande, 'Lucida Grande', sans-serif" font-size="13">
        <rect fill="white" height="600.0" width="800.0" x="0.0" y="0.0" />
        <g font-size="13">
            <text x="18.0" y="176.0">Small</text>
            <text x="18.0" y="376.0">Medium</text>
            <text x="18.0" y="576.0">Large</text>
        </g>
        <g font-size="9">
            <text x="250.0" y="30.0">Ultralight</text>
            <text x="450.0" y="30.0">Regular</text>
            <text x="650.0" y="30.0">Black</text>
            <text id="template-version" fill="#505050" text-anchor="end" x="785.0" y="575.0">Template v.3.0</text>
            <a href="https://github.com/swhitty/SwiftDraw">
                <text fill="#505050" text-anchor="end" x="785.0" y="590.0">https://github.com/swhitty/SwiftDraw</text>
            </a>
        </g>
    </g>
    <g id="Guides" stroke="rgb(39, 170, 225)" stroke-width="0.5">
        <path id="Capline-S" d="M18,76 l800,0" />
        <path id="H-reference" d="M85,145.755 L87.685,145.755 L113.369,79.287 L114.052,79.287 L114.052,76 L112.148,76 L85,145.755 Z M95.693,121.536 L130.996,121.536 L130.263,119.313 L96.474,119.313 L95.693,121.536 Z M139.15,145.755 L141.787,145.755 L114.638,76 L113.466,76 L113.466,79.287 L139.15,145.755 Z" stroke="none" transform="translate(0,200)" />
        <path id="Baseline-S" d="M18,146 l800,0" />
        <path id="left-margin-Ultralight-M" d="M230,256 l0,110" />
        <path id="right-margin-Ultralight-M" d="M300,256 l0,110" />
        <path id="left-margin-Regular-M" d="M430,256 l0,110" />
        <path id="right-margin-Regular-M" d="M500,256 l0,110" />
        <path id="left-margin-Black-M" d="M630,256 l0,110" />
        <path id="right-margin-Black-M" d="M700,256 l0,110" />
        <path id="Capline-M" d="M18,276 l800,0" />
        <path id="Baseline-M" d="M18,346 l800,0" />
        <path id="Capline-L" d="M18,476 l800,0" />
        <path id="Baseline-L" d="M18,546 l800,0" />
    </g>
    <g id="Symbols">
        <g id="Ultralight-M" transform="translate(0,200)">
            <path d="M285.417,116.832 C285.412,125.067 280.461,132.492 272.861,135.663 C265.262,138.833 256.502,137.128 250.646,131.339 C244.79,125.55 242.985,116.81 246.069,109.175 C247.002,106.867 249.431,103.35 252.971,99.079 C253.94,97.909 254.982,96.696 256.085,95.448 C258.479,92.74 261.049,89.994 263.62,87.356 C264.52,86.432 265.356,85.588 266.105,84.842 C266.552,84.397 266.869,84.084 267.035,83.923 L262.965,83.923 C263.131,84.084 263.448,84.397 263.896,84.842 C264.645,85.589 265.48,86.432 266.381,87.356 C268.952,89.995 271.523,92.741 273.917,95.45 C275.02,96.698 276.062,97.911 277.031,99.08 C280.571,103.351 283,106.868 283.935,109.178 C284.917,111.608 285.42,114.207 285.417,116.829 Z M291.25,116.837 C291.255,113.463 290.607,110.119 289.343,106.991 C288.119,103.967 285.423,100.064 281.522,95.357 C280.511,94.138 279.43,92.879 278.288,91.586 C275.824,88.8 273.191,85.987 270.558,83.285 C269.637,82.34 268.781,81.476 268.013,80.71 C267.549,80.248 267.216,79.92 267.035,79.744 C265.902,78.641 264.098,78.641 262.965,79.744 C262.784,79.92 262.451,80.248 261.988,80.709 C261.219,81.475 260.363,82.339 259.442,83.285 C256.81,85.986 254.177,88.798 251.715,91.584 C250.572,92.877 249.49,94.137 248.48,95.356 C244.578,100.064 241.883,103.967 240.661,106.989 C236.695,116.807 239.016,128.044 246.545,135.488 C254.074,142.931 265.337,145.123 275.107,141.046 C284.878,136.97 291.244,127.423 291.25,116.835 Z" />
        </g>
        <g id="Regular-M" transform="translate(0,200)">
            <path d="M485.417,116.832 C485.412,125.067 480.461,132.492 472.861,135.663 C465.262,138.833 456.502,137.128 450.646,131.339 C444.79,125.55 442.985,116.81 446.069,109.175 C447.002,106.867 449.431,103.35 452.971,99.079 C453.94,97.909 454.982,96.696 456.085,95.448 C458.479,92.74 461.049,89.994 463.62,87.356 C464.52,86.432 465.356,85.588 466.105,84.842 C466.552,84.397 466.869,84.084 467.035,83.923 L462.965,83.923 C463.131,84.084 463.448,84.397 463.896,84.842 C464.645,85.589 465.48,86.432 466.381,87.356 C468.952,89.995 471.523,92.741 473.917,95.45 C475.02,96.698 476.062,97.911 477.031,99.08 C480.571,103.351 483,106.868 483.935,109.178 C484.917,111.608 485.42,114.207 485.417,116.829 Z M491.25,116.837 C491.255,113.463 490.607,110.119 489.343,106.991 C488.119,103.967 485.423,100.064 481.522,95.357 C480.511,94.138 479.43,92.879 478.288,91.586 C475.824,88.8 473.191,85.987 470.558,83.285 C469.637,82.34 468.781,81.476 468.013,80.71 C467.549,80.248 467.216,79.92 467.035,79.744 C465.902,78.641 464.098,78.641 462.965,79.744 C462.784,79.92 462.451,80.248 461.988,80.709 C461.219,81.475 460.363,82.339 459.442,83.285 C456.81,85.986 454.177,88.798 451.715,91.584 C450.572,92.877 449.49,94.137 448.48,95.356 C444.578,100.064 441.883,103.967 440.661,106.989 C436.695,116.807 439.016,128.044 446.545,135.488 C454.073,142.931 465.337,145.123 475.107,141.046 C484.878,136.97 491.244,127.423 491.25,116.835 Z" />
        </g>
        <g id="Black-M" transform="translate(0,200)">
            <path d="M685.417,116.832 C685.412,125.067 680.461,132.492 672.861,135.663 C665.262,138.833 656.502,137.128 650.646,131.339 C644.79,125.55 642.985,116.81 646.069,109.175 C647.002,106.867 649.431,103.35 652.971,99.079 C653.94,97.909 654.982,96.696 656.085,95.448 C658.479,92.74 661.049,89.994 663.62,87.356 C664.52,86.432 665.356,85.588 666.105,84.842 C666.552,84.397 666.869,84.084 667.035,83.923 L662.965,83.923 C663.131,84.084 663.448,84.397 663.896,84.842 C664.645,85.589 665.48,86.432 666.381,87.356 C668.952,89.995 671.523,92.741 673.917,95.45 C675.02,96.698 676.062,97.911 677.031,99.08 C680.571,103.351 683,106.868 683.935,109.178 C684.917,111.608 685.42,114.207 685.417,116.829 Z M691.25,116.837 C691.255,113.463 690.607,110.119 689.343,106.991 C688.119,103.967 685.423,100.064 681.522,95.357 C680.511,94.138 679.43,92.879 678.287,91.586 C675.824,88.8 673.191,85.987 670.558,83.285 C669.637,82.34 668.781,81.476 668.013,80.71 C667.549,80.248 667.216,79.92 667.035,79.744 C665.902,78.641 664.098,78.641 662.965,79.744 C662.784,79.92 662.451,80.248 661.988,80.709 C661.219,81.475 660.363,82.339 659.442,83.285 C656.81,85.986 654.177,88.798 651.715,91.584 C650.572,92.877 649.49,94.137 648.48,95.356 C644.578,100.064 641.883,103.967 640.661,106.989 C636.695,116.807 639.016,128.044 646.545,135.488 C654.073,142.931 665.337,145.123 675.107,141.046 C684.878,136.97 691.244,127.423 691.25,116.835 Z" />
        </g>
    </g>
</svg>