<?xml version="1.0" encoding="UTF-8"?>
<svg height="600" width="800" xmlns="http://www.w3.org/2000/svg" xmlns:xlink="http://www.w3.org/1999/xlink">
    <g id="Notes" font-family="LucidaGrande, 'Lucida Grande', sans-serif" font-size="13">
        <rect fill="white" height="600.0" width="800.0" x="0.0" y="0.0" />
        <g font-size="13">
            <text x="18.0" y="176.0">Small</text>
            <text x="18.0" y="376.0">Medium</text>
            <text x="18.0" y="576.0">Large</text>
        </g>
        <g font-size="9">
            <text x="250.0" y="30.0">Ultralight</text>
            <text x="450.0" y="30.0">Regular</text>
            <text x="650.0" y="30.0">Black</text>
            <text id="template-version" fill="#505050" text-anchor="end" x="785.0" y="575.0">Template v.3.0</text>
            <a href="https://github.com/swhitty/SwiftDraw">
                <text fill="#505050" text-anchor="end" x="785.0" y="590.0">https://github.com/swhitty/SwiftDraw</text>
            </a>
        </g>
    </g>
    <g id="Guides" stroke="rgb(39, 170, 225)" stroke-width="0.5">
        <path id="Capline-S" d="M18,76 l800,0" />
        <path id="H-reference" d="M85,145.755 L87.685,145.755 L113.369,79.287 L114.052,79.287 L114.052,76 L112.148,76 L85,145.755 Z M95.693,121.536 L130.996,121.536 L130.263,119.313 L96.474,119.313 L95.693,121.536 Z M139.15,145.755 L141.787,145.755 L114.638,76 L113.466,76 L113.466,79.287 L139.15,145.755 Z" stroke="none" transform="translate(0,200)" />
        <path id="Baseline-S" d="M18,146 l800,0" />
        <path id="left-margin-Ultralight-M" d="M231.667,256 l0,110" />
        <path id="right-margin-Ultralight-M" d="M298.333,256 l0,110" />
        <path id="left-margin-Regular-M" d="M431.667,256 l0,110" />
        <path id="right-margin-Regular-M" d="M498.333,256 l0,110" />
        <path id="left-margin-Black-M" d="M631.667,256 l0,110" />
        <path id="right-margin-Black-M" d="M698.333,256 l0,110" />
        <path id="Capline-M" d="M18,276 l800,0" />
        <path id="Baseline-M" d="M18,346 l800,0" />
        <path id="Capline-L" d="M18,476 l800,0" />
        <path id="Baseline-L" d="M18,546 l800,0" />
    </g>
    <g id="Symbols">
        <g id="Ultralight-M" transform="translate(0,200)">
            <path d="M269.692,93.028 C272.194,89.033 273.967,84.626 274.93,80.012 L268.398,79.985 C270.207,89.025 275.589,97.731 282.918,103.591 C288.755,108.259 291.667,113.643 291.667,119.315 C291.7,127.398 286.86,134.691 279.41,137.799 C271.959,140.906 263.369,139.215 257.654,133.515 C256.351,132.216 254.24,132.218 252.94,133.521 C251.64,134.823 251.642,136.933 252.945,138.233 C260.572,145.839 272.035,148.096 281.977,143.949 C291.92,139.802 298.378,130.07 298.333,119.301 C298.333,111.492 294.42,104.255 287.082,98.387 C280.966,93.497 276.433,86.164 274.935,78.678 C274.224,75.122 269.144,75.101 268.403,78.652 C267.602,82.494 266.125,86.165 264.041,89.492 C263.064,91.052 263.538,93.108 265.098,94.084 C266.659,95.061 268.715,94.588 269.692,93.028 Z M248.333,126.911 C257.509,126.911 265,119.321 265,110.085 C265,105.113 262.568,100.54 258.074,96.875 C254.818,94.22 252.403,90.282 251.602,86.275 C250.891,82.72 245.813,82.698 245.071,86.246 C244.196,90.426 241.91,94.177 238.596,96.872 C234.112,100.458 231.667,105.099 231.667,110.085 C231.667,119.321 239.157,126.911 248.333,126.911 Z M248.333,120.248 C242.86,120.248 238.333,115.661 238.333,110.085 C238.333,107.22 239.794,104.448 242.782,102.058 C247.304,98.382 250.408,93.287 251.596,87.611 L245.065,87.582 C246.173,93.123 249.42,98.418 253.86,102.038 C256.879,104.5 258.333,107.236 258.333,110.085 C258.333,115.661 253.807,120.248 248.333,120.248 Z" />
        </g>
        <g id="Regular-M" transform="translate(0,200)">
            <path d="M469.692,93.028 C472.194,89.033 473.967,84.626 474.93,80.012 L468.398,79.985 C470.207,89.025 475.589,97.731 482.918,103.591 C488.755,108.259 491.666,113.643 491.666,119.315 C491.7,127.398 486.86,134.691 479.41,137.799 C471.959,140.906 463.369,139.215 457.654,133.515 C456.351,132.216 454.24,132.218 452.94,133.521 C451.64,134.823 451.642,136.933 452.945,138.233 C460.572,145.839 472.035,148.096 481.977,143.949 C491.92,139.802 498.378,130.07 498.333,119.301 C498.333,111.492 494.42,104.255 487.082,98.387 C480.966,93.497 476.433,86.164 474.935,78.678 C474.224,75.122 469.144,75.101 468.403,78.652 C467.602,82.494 466.125,86.165 464.041,89.492 C463.064,91.052 463.538,93.108 465.098,94.084 C466.659,95.061 468.715,94.588 469.692,93.028 Z M448.333,126.911 C457.509,126.911 465,119.321 465,110.085 C465,105.113 462.568,100.54 458.074,96.875 C454.818,94.22 452.403,90.282 451.602,86.275 C450.891,82.72 445.813,82.698 445.071,86.246 C444.196,90.426 441.91,94.177 438.596,96.872 C434.112,100.458 431.667,105.099 431.667,110.085 C431.667,119.321 439.157,126.911 448.333,126.911 Z M448.333,120.248 C442.86,120.248 438.333,115.661 438.333,110.085 C438.333,107.22 439.793,104.448 442.782,102.058 C447.304,98.382 450.408,93.287 451.596,87.611 L445.065,87.582 C446.173,93.123 449.42,98.418 453.859,102.038 C456.879,104.5 458.333,107.236 458.333,110.085 C458.333,115.661 453.807,120.248 448.333,120.248 Z" />
        </g>
        <g id="Black-M" transform="translate(0,200)">
            <path d="M669.692,93.028 C672.194,89.033 673.967,84.626 674.93,80.012 L668.398,79.985 C670.207,89.025 675.589,97.731 682.918,103.591 C688.755,108.259 691.667,113.643 691.667,119.315 C691.7,127.398 686.86,134.691 679.41,137.799 C671.959,140.906 663.369,139.215 657.654,133.515 C656.351,132.216 654.24,132.218 652.94,133.521 C651.64,134.823 651.642,136.933 652.945,138.233 C660.572,145.839 672.035,148.096 681.977,143.949 C691.92,139.802 698.378,130.07 698.333,119.301 C698.333,111.492 694.42,104.255 687.082,98.387 C680.966,93.497 676.433,86.164 674.935,78.678 C674.224,75.122 669.144,75.101 668.404,78.652 C667.602,82.494 666.125,86.165 664.041,89.492 C663.064,91.052 663.538,93.108 665.098,94.084 C666.659,95.061 668.715,94.588 669.692,93.028 Z M648.333,126.911 C657.509,126.911 665,119.321 665,110.085 C665,105.113 662.568,100.54 658.074,96.875 C654.818,94.22 652.404,90.282 651.602,86.275 C650.891,82.72 645.813,82.698 645.071,86.246 C644.196,90.426 641.91,94.177 638.596,96.872 C634.112,100.458 631.667,105.099 631.667,110.085 C631.667,119.321 639.157,126.911 648.333,126.911 Z M648.333,120.248 C642.86,120.248 638.333,115.661 638.333,110.085 C638.333,107.22 639.794,104.448 642.782,102.058 C647.304,98.382 650.408,93.287 651.596,87.611 L645.065,87.582 C646.173,93.123 649.42,98.418 653.86,102.038 C656.879,104.5 658.333,107.236 658.333,110.085 C658.333,115.661 653.807,120.248 648.333,120.248 Z" />
        </g>
    </g>
</svg>