<?xml version="1.0" encoding="UTF-8"?>
<svg height="600" width="800" xmlns="http://www.w3.org/2000/svg" xmlns:xlink="http://www.w3.org/1999/xlink">
    <g id="Notes" font-family="LucidaGrande, 'Lucida Grande', sans-serif" font-size="13">
        <rect fill="white" height="600.0" width="800.0" x="0.0" y="0.0" />
        <g font-size="13">
            <text x="18.0" y="176.0">Small</text>
            <text x="18.0" y="376.0">Medium</text>
            <text x="18.0" y="576.0">Large</text>
        </g>
        <g font-size="9">
            <text x="250.0" y="30.0">Ultralight</text>
            <text x="450.0" y="30.0">Regular</text>
            <text x="650.0" y="30.0">Black</text>
            <text id="template-version" fill="#505050" text-anchor="end" x="785.0" y="575.0">Template v.3.0</text>
            <a href="https://github.com/swhitty/SwiftDraw">
                <text fill="#505050" text-anchor="end" x="785.0" y="590.0">https://github.com/swhitty/SwiftDraw</text>
            </a>
        </g>
    </g>
    <g id="Guides" stroke="rgb(39, 170, 225)" stroke-width="0.5">
        <path id="Capline-S" d="M18,76 l800,0" />
        <path id="H-reference" d="M85,145.755 L87.685,145.755 L113.369,79.287 L114.052,79.287 L114.052,76 L112.148,76 L85,145.755 Z M95.693,121.536 L130.996,121.536 L130.263,119.313 L96.474,119.313 L95.693,121.536 Z M139.15,145.755 L141.787,145.755 L114.638,76 L113.466,76 L113.466,79.287 L139.15,145.755 Z" stroke="none" transform="translate(0,200)" />
        <path id="Baseline-S" d="M18,146 l800,0" />
        <path id="left-margin-Ultralight-M" d="M221,256 l0,110" />
        <path id="right-margin-Ultralight-M" d="M309,256 l0,110" />
        <path id="left-margin-Regular-M" d="M421,256 l0,110" />
        <path id="right-margin-Regular-M" d="M509,256 l0,110" />
        <path id="left-margin-Black-M" d="M621,256 l0,110" />
        <path id="right-margin-Black-M" d="M709,256 l0,110" />
        <path id="Capline-M" d="M18,276 l800,0" />
        <path id="Baseline-M" d="M18,346 l800,0" />
        <path id="Capline-L" d="M18,476 l800,0" />
        <path id="Baseline-L" d="M18,546 l800,0" />
    </g>
    <g id="Symbols">
        <g id="Ultralight-M" transform="translate(0,200)">
            <path d="M262.785,92.323 L254.01,92.323 C249.203,92.323 248.06,92.417 246.455,93.234 C244.883,94.035 243.604,95.314 242.803,96.886 C241.986,98.491 241.892,99.634 241.892,104.441 L241.892,121.99 C241.892,126.797 241.986,127.94 242.803,129.545 C243.604,131.117 244.883,132.396 246.455,133.197 C248.06,134.014 249.203,134.108 254.01,134.108 L271.559,134.108 C276.366,134.108 277.509,134.014 279.114,133.197 C280.686,132.396 281.965,131.117 282.766,129.545 C283.583,127.94 283.677,126.797 283.677,121.99 L283.677,113.215 C283.677,112.062 282.741,111.126 281.588,111.126 C280.434,111.126 279.498,112.062 279.498,113.215 L279.498,121.99 C279.498,125.958 279.421,126.906 279.043,127.648 C278.642,128.434 278.003,129.073 277.217,129.474 C276.475,129.852 275.527,129.929 271.559,129.929 L254.01,129.929 C250.042,129.929 249.094,129.852 248.352,129.474 C247.566,129.073 246.927,128.434 246.526,127.648 C246.148,126.906 246.071,125.958 246.071,121.99 L246.071,104.441 C246.071,100.473 246.148,99.525 246.526,98.783 C246.927,97.997 247.566,97.358 248.352,96.957 C249.094,96.579 250.042,96.502 254.01,96.502 L262.785,96.502 C263.938,96.502 264.874,95.566 264.874,94.412 C264.874,93.259 263.938,92.323 262.785,92.323 Z M256.517,121.572 L260.016,121.572 C261.485,121.572 261.867,121.555 262.514,121.4 C263.165,121.241 263.775,120.989 264.332,120.647 C264.426,120.589 264.522,120.526 264.617,120.459 C265.063,120.143 265.319,119.904 266.219,119.003 L286.199,99.024 C288.744,96.476 288.744,92.349 286.198,89.802 C283.652,87.256 279.524,87.255 276.977,89.8 L256.997,109.78 C256.097,110.681 255.857,110.937 255.542,111.383 C255.475,111.478 255.411,111.573 255.351,111.671 C255.008,112.231 254.754,112.843 254.601,113.484 C254.445,114.133 254.428,114.515 254.428,115.983 L254.428,119.483 L256.517,119.483 L256.517,117.394 L256.517,117.394 L256.517,119.483 L256.517,121.572 Z M256.517,117.394 C253.731,117.394 253.731,121.572 256.517,121.572 L256.517,121.572 C257.671,121.572 258.606,120.637 258.606,119.483 L258.606,115.983 C258.606,114.899 258.618,114.651 258.664,114.457 C258.715,114.246 258.799,114.042 258.914,113.854 C258.927,113.834 258.939,113.815 258.954,113.795 C259.073,113.626 259.254,113.433 259.952,112.735 L279.931,92.756 C280.846,91.842 282.329,91.842 283.243,92.757 C284.158,93.672 284.158,95.154 283.244,96.069 L263.265,116.048 C262.567,116.746 262.374,116.928 262.205,117.047 C262.185,117.061 262.166,117.073 262.147,117.085 C261.962,117.199 261.755,117.284 261.531,117.339 C261.349,117.383 261.101,117.394 260.016,117.394 L256.517,117.394 Z" />
        </g>
        <g id="Regular-M" transform="translate(0,200)">
            <path d="M462.785,92.323 L454.01,92.323 C449.203,92.323 448.06,92.417 446.455,93.234 C444.883,94.035 443.604,95.314 442.803,96.886 C441.986,98.491 441.892,99.634 441.892,104.441 L441.892,121.99 C441.892,126.797 441.986,127.94 442.803,129.545 C443.604,131.117 444.883,132.396 446.455,133.197 C448.06,134.014 449.203,134.108 454.01,134.108 L471.559,134.108 C476.366,134.108 477.509,134.014 479.114,133.197 C480.686,132.396 481.965,131.117 482.766,129.545 C483.583,127.94 483.677,126.797 483.677,121.99 L483.677,113.215 C483.677,112.062 482.741,111.126 481.588,111.126 C480.434,111.126 479.498,112.062 479.498,113.215 L479.498,121.99 C479.498,125.958 479.421,126.906 479.043,127.648 C478.642,128.434 478.003,129.073 477.217,129.474 C476.475,129.852 475.527,129.929 471.559,129.929 L454.01,129.929 C450.042,129.929 449.094,129.852 448.352,129.474 C447.566,129.073 446.927,128.434 446.526,127.648 C446.148,126.906 446.071,125.958 446.071,121.99 L446.071,104.441 C446.071,100.473 446.148,99.525 446.526,98.783 C446.927,97.997 447.566,97.358 448.352,96.957 C449.094,96.579 450.042,96.502 454.01,96.502 L462.785,96.502 C463.938,96.502 464.874,95.566 464.874,94.412 C464.874,93.259 463.938,92.323 462.785,92.323 Z M456.517,121.572 L460.016,121.572 C461.485,121.572 461.867,121.555 462.514,121.4 C463.165,121.241 463.775,120.989 464.332,120.647 C464.426,120.589 464.522,120.526 464.617,120.459 C465.063,120.143 465.319,119.904 466.219,119.003 L486.199,99.024 C488.744,96.476 488.744,92.349 486.198,89.802 C483.652,87.256 479.524,87.255 476.977,89.8 L456.997,109.78 C456.097,110.681 455.857,110.937 455.542,111.383 C455.475,111.478 455.411,111.573 455.351,111.671 C455.008,112.231 454.754,112.843 454.6,113.484 C454.445,114.133 454.428,114.515 454.428,115.983 L454.428,119.483 L456.517,119.483 L456.517,117.394 L456.517,117.394 L456.517,119.483 L456.517,121.572 Z M456.517,117.394 C453.731,117.394 453.731,121.572 456.517,121.572 L456.517,121.572 C457.671,121.572 458.606,120.637 458.606,119.483 L458.606,115.983 C458.606,114.899 458.618,114.651 458.664,114.457 C458.715,114.246 458.799,114.042 458.914,113.854 C458.927,113.834 458.939,113.815 458.954,113.795 C459.073,113.626 459.254,113.433 459.952,112.735 L479.931,92.756 C480.846,91.842 482.329,91.842 483.243,92.757 C484.158,93.672 484.158,95.154 483.244,96.069 L463.265,116.048 C462.567,116.746 462.374,116.928 462.205,117.047 C462.185,117.061 462.166,117.073 462.147,117.085 C461.962,117.199 461.755,117.284 461.531,117.339 C461.349,117.383 461.101,117.394 460.016,117.394 L456.517,117.394 Z" />
        </g>
        <g id="Black-M" transform="translate(0,200)">
            <path d="M662.785,92.323 L654.01,92.323 C649.203,92.323 648.06,92.417 646.455,93.234 C644.883,94.035 643.604,95.314 642.803,96.886 C641.986,98.491 641.892,99.634 641.892,104.441 L641.892,121.99 C641.892,126.797 641.986,127.94 642.803,129.545 C643.604,131.117 644.883,132.396 646.455,133.197 C648.06,134.014 649.203,134.108 654.01,134.108 L671.559,134.108 C676.366,134.108 677.509,134.014 679.114,133.197 C680.686,132.396 681.965,131.117 682.766,129.545 C683.583,127.94 683.677,126.797 683.677,121.99 L683.677,113.215 C683.677,112.062 682.741,111.126 681.588,111.126 C680.434,111.126 679.498,112.062 679.498,113.215 L679.498,121.99 C679.498,125.958 679.421,126.906 679.043,127.648 C678.642,128.434 678.003,129.073 677.217,129.474 C676.475,129.852 675.527,129.929 671.559,129.929 L654.01,129.929 C650.042,129.929 649.094,129.852 648.352,129.474 C647.566,129.073 646.927,128.434 646.526,127.648 C646.148,126.906 646.071,125.958 646.071,121.99 L646.071,104.441 C646.071,100.473 646.148,99.525 646.526,98.783 C646.927,97.997 647.566,97.358 648.352,96.957 C649.094,96.579 650.042,96.502 654.01,96.502 L662.785,96.502 C663.938,96.502 664.874,95.566 664.874,94.412 C664.874,93.259 663.938,92.323 662.785,92.323 Z M656.517,121.572 L660.016,121.572 C661.485,121.572 661.867,121.555 662.514,121.4 C663.165,121.241 663.775,120.989 664.332,120.647 C664.426,120.589 664.522,120.526 664.617,120.459 C665.063,120.143 665.319,119.904 666.219,119.003 L686.199,99.024 C688.744,96.476 688.744,92.349 686.198,89.802 C683.652,87.256 679.524,87.255 676.977,89.8 L656.997,109.78 C656.097,110.681 655.857,110.937 655.542,111.383 C655.474,111.478 655.411,111.573 655.351,111.671 C655.008,112.231 654.754,112.843 654.601,113.484 C654.445,114.133 654.428,114.515 654.428,115.983 L654.428,119.483 L656.517,119.483 L656.517,117.394 L656.517,117.394 L656.517,119.483 L656.517,121.572 Z M656.517,117.394 C653.731,117.394 653.731,121.572 656.517,121.572 L656.517,121.572 C657.671,121.572 658.606,120.637 658.606,119.483 L658.606,115.983 C658.606,114.899 658.618,114.651 658.664,114.457 C658.715,114.246 658.799,114.042 658.914,113.854 C658.927,113.834 658.939,113.815 658.954,113.795 C659.073,113.626 659.254,113.433 659.952,112.735 L679.931,92.756 C680.846,91.842 682.329,91.842 683.243,92.757 C684.158,93.672 684.158,95.154 683.244,96.069 L663.265,116.048 C662.567,116.746 662.374,116.928 662.205,117.047 C662.185,117.061 662.166,117.073 662.147,117.085 C661.962,117.199 661.755,117.284 661.531,117.339 C661.349,117.383 661.101,117.394 660.016,117.394 L656.517,117.394 Z" />
        </g>
    </g>
</svg>