<?xml version="1.0" encoding="UTF-8"?>
<svg height="600" width="800" xmlns="http://www.w3.org/2000/svg" xmlns:xlink="http://www.w3.org/1999/xlink">
    <g id="Notes" font-family="LucidaGrande, 'Lucida Grande', sans-serif" font-size="13">
        <rect fill="white" height="600.0" width="800.0" x="0.0" y="0.0" />
        <g font-size="13">
            <text x="18.0" y="176.0">Small</text>
            <text x="18.0" y="376.0">Medium</text>
            <text x="18.0" y="576.0">Large</text>
        </g>
        <g font-size="9">
            <text x="250.0" y="30.0">Ultralight</text>
            <text x="450.0" y="30.0">Regular</text>
            <text x="650.0" y="30.0">Black</text>
            <text id="template-version" fill="#505050" text-anchor="end" x="785.0" y="575.0">Template v.3.0</text>
            <a href="https://github.com/swhitty/SwiftDraw">
                <text fill="#505050" text-anchor="end" x="785.0" y="590.0">https://github.com/swhitty/SwiftDraw</text>
            </a>
        </g>
    </g>
    <g id="Guides" stroke="rgb(39, 170, 225)" stroke-width="0.5">
        <path id="Capline-S" d="M18,76 l800,0" />
        <path id="H-reference" d="M85,145.755 L87.685,145.755 L113.369,79.287 L114.052,79.287 L114.052,76 L112.148,76 L85,145.755 Z M95.693,121.536 L130.996,121.536 L130.263,119.313 L96.474,119.313 L95.693,121.536 Z M139.15,145.755 L141.787,145.755 L114.638,76 L113.466,76 L113.466,79.287 L139.15,145.755 Z" stroke="none" transform="translate(0,200)" />
        <path id="Baseline-S" d="M18,146 l800,0" />
        <path id="left-margin-Ultralight-M" d="M230,256 l0,110" />
        <path id="right-margin-Ultralight-M" d="M300,256 l0,110" />
        <path id="left-margin-Regular-M" d="M430,256 l0,110" />
        <path id="right-margin-Regular-M" d="M500,256 l0,110" />
        <path id="left-margin-Black-M" d="M630,256 l0,110" />
        <path id="right-margin-Black-M" d="M700,256 l0,110" />
        <path id="Capline-M" d="M18,276 l800,0" />
        <path id="Baseline-M" d="M18,346 l800,0" />
        <path id="Capline-L" d="M18,476 l800,0" />
        <path id="Baseline-L" d="M18,546 l800,0" />
    </g>
    <g id="Symbols">
        <g id="Ultralight-M" transform="translate(0,200)">
            <path d="M234.375,93.5 L295.625,93.5 C298.041,93.5 300,89.582 300,84.75 C300,79.918 298.041,76 295.625,76 L234.375,76 C231.959,76 230,79.918 230,84.75 C230,89.582 231.959,93.5 234.375,93.5 Z M234.375,146 L295.625,146 C298.041,146 300,142.082 300,137.25 C300,132.418 298.041,128.5 295.625,128.5 L234.375,128.5 C231.959,128.5 230,132.418 230,137.25 C230,142.082 231.959,146 234.375,146 Z" />
        </g>
        <g id="Regular-M" transform="translate(0,200)">
            <path d="M434.375,93.5 L495.625,93.5 C498.041,93.5 500,89.582 500,84.75 C500,79.918 498.041,76 495.625,76 L434.375,76 C431.959,76 430,79.918 430,84.75 C430,89.582 431.959,93.5 434.375,93.5 Z M434.375,146 L495.625,146 C498.041,146 500,142.082 500,137.25 C500,132.418 498.041,128.5 495.625,128.5 L434.375,128.5 C431.959,128.5 430,132.418 430,137.25 C430,142.082 431.959,146 434.375,146 Z" />
        </g>
        <g id="Black-M" transform="translate(0,200)">
            <path d="M634.375,93.5 L695.625,93.5 C698.041,93.5 700,89.582 700,84.75 C700,79.918 698.041,76 695.625,76 L634.375,76 C631.959,76 630,79.918 630,84.75 C630,89.582 631.959,93.5 634.375,93.5 Z M634.375,146 L695.625,146 C698.041,146 700,142.082 700,137.25 C700,132.418 698.041,128.5 695.625,128.5 L634.375,128.5 C631.959,128.5 630,132.418 630,137.25 C630,142.082 631.959,146 634.375,146 Z" />
        </g>
    </g>
</svg>