<?xml version="1.0" encoding="UTF-8"?>
<svg height="600" width="800" xmlns="http://www.w3.org/2000/svg" xmlns:xlink="http://www.w3.org/1999/xlink">
    <g id="Notes" font-family="LucidaGrande, 'Lucida Grande', sans-serif" font-size="13">
        <rect fill="white" height="600.0" width="800.0" x="0.0" y="0.0" />
        <g font-size="13">
            <text x="18.0" y="176.0">Small</text>
            <text x="18.0" y="376.0">Medium</text>
            <text x="18.0" y="576.0">Large</text>
        </g>
        <g font-size="9">
            <text x="250.0" y="30.0">Ultralight</text>
            <text x="450.0" y="30.0">Regular</text>
            <text x="650.0" y="30.0">Black</text>
            <text id="template-version" fill="#505050" text-anchor="end" x="785.0" y="575.0">Template v.3.0</text>
            <a href="https://github.com/swhitty/SwiftDraw">
                <text fill="#505050" text-anchor="end" x="785.0" y="590.0">https://github.com/swhitty/SwiftDraw</text>
            </a>
        </g>
    </g>
    <g id="Guides" stroke="rgb(39, 170, 225)" stroke-width="0.5">
        <path id="Capline-S" d="M18,76 l800,0" />
        <path id="H-reference" d="M85,145.755 L87.685,145.755 L113.369,79.287 L114.052,79.287 L114.052,76 L112.148,76 L85,145.755 Z M95.693,121.536 L130.996,121.536 L130.263,119.313 L96.474,119.313 L95.693,121.536 Z M139.15,145.755 L141.787,145.755 L114.638,76 L113.466,76 L113.466,79.287 L139.15,145.755 Z" stroke="none" transform="translate(0,200)" />
        <path id="Baseline-S" d="M18,146 l800,0" />
        <path id="left-margin-Ultralight-M" d="M230,256 l0,110" />
        <path id="right-margin-Ultralight-M" d="M300,256 l0,110" />
        <path id="left-margin-Regular-M" d="M430,256 l0,110" />
        <path id="right-margin-Regular-M" d="M500,256 l0,110" />
        <path id="left-margin-Black-M" d="M630,256 l0,110" />
        <path id="right-margin-Black-M" d="M700,256 l0,110" />
        <path id="Capline-M" d="M18,276 l800,0" />
        <path id="Baseline-M" d="M18,346 l800,0" />
        <path id="Capline-L" d="M18,476 l800,0" />
        <path id="Baseline-L" d="M18,546 l800,0" />
    </g>
    <g id="Symbols">
        <g id="Ultralight-M" transform="translate(0,200)">
            <path d="M289.5,118 L289.5,127.8 C289.5,131.997 289.418,133.001 289.118,133.589 C288.783,134.248 288.248,134.783 287.589,135.118 C287.001,135.418 285.997,135.5 281.8,135.5 L272,135.5 C270.067,135.5 268.5,137.067 268.5,139 C268.5,140.933 270.067,142.5 272,142.5 L281.8,142.5 C287.403,142.5 288.733,142.391 290.767,141.356 C292.743,140.349 294.349,138.743 295.355,136.767 C296.391,134.733 296.5,133.403 296.5,127.8 L296.5,118 C296.5,116.067 294.933,114.5 293,114.5 C291.067,114.5 289.5,116.067 289.5,118 Z M258,79.5 L248.2,79.5 C242.597,79.5 241.267,79.609 239.233,80.644 C237.257,81.651 235.651,83.257 234.645,85.233 C233.609,87.267 233.5,88.597 233.5,94.2 L233.5,104 C233.5,105.933 235.067,107.5 237,107.5 C238.933,107.5 240.5,105.933 240.5,104 L240.5,94.2 C240.5,90.003 240.582,88.999 240.882,88.411 C241.217,87.752 241.752,87.217 242.411,86.882 C242.999,86.582 244.003,86.5 248.2,86.5 L258,86.5 C259.933,86.5 261.5,84.933 261.5,83 C261.5,81.067 259.933,79.5 258,79.5 Z M277.975,102.975 L298.975,81.975 C300.342,80.608 300.342,78.392 298.975,77.025 C297.608,75.658 295.392,75.658 294.025,77.025 L273.025,98.025 C271.658,99.392 271.658,101.608 273.025,102.975 C274.392,104.342 276.608,104.342 277.975,102.975 Z M296.5,76 L275.5,76 C273.567,76 272,77.567 272,79.5 C272,81.433 273.567,83 275.5,83 L296.5,83 C298.433,83 300,81.433 300,79.5 C300,77.567 298.433,76 296.5,76 Z M293,79.5 L293,100.5 C293,102.433 294.567,104 296.5,104 C298.433,104 300,102.433 300,100.5 L300,79.5 C300,77.567 298.433,76 296.5,76 C294.567,76 293,77.567 293,79.5 Z M252.025,119.025 L231.025,140.025 C229.658,141.392 229.658,143.608 231.025,144.975 C232.392,146.342 234.608,146.342 235.975,144.975 L256.975,123.975 C258.342,122.608 258.342,120.392 256.975,119.025 C255.608,117.658 253.392,117.658 252.025,119.025 Z M233.5,146 L254.5,146 C256.433,146 258,144.433 258,142.5 C258,140.567 256.433,139 254.5,139 L233.5,139 C231.567,139 230,140.567 230,142.5 C230,144.433 231.567,146 233.5,146 Z M237,142.5 L237,121.5 C237,119.567 235.433,118 233.5,118 C231.567,118 230,119.567 230,121.5 L230,142.5 C230,144.433 231.567,146 233.5,146 C235.433,146 237,144.433 237,142.5 Z" />
        </g>
        <g id="Regular-M" transform="translate(0,200)">
            <path d="M489.5,118 L489.5,127.8 C489.5,131.997 489.418,133.001 489.118,133.589 C488.783,134.248 488.248,134.783 487.589,135.118 C487.001,135.418 485.997,135.5 481.8,135.5 L472,135.5 C470.067,135.5 468.5,137.067 468.5,139 C468.5,140.933 470.067,142.5 472,142.5 L481.8,142.5 C487.403,142.5 488.733,142.391 490.767,141.356 C492.743,140.349 494.349,138.743 495.355,136.767 C496.391,134.733 496.5,133.403 496.5,127.8 L496.5,118 C496.5,116.067 494.933,114.5 493,114.5 C491.067,114.5 489.5,116.067 489.5,118 Z M458,79.5 L448.2,79.5 C442.597,79.5 441.267,79.609 439.233,80.644 C437.257,81.651 435.651,83.257 434.645,85.233 C433.609,87.267 433.5,88.597 433.5,94.2 L433.5,104 C433.5,105.933 435.067,107.5 437,107.5 C438.933,107.5 440.5,105.933 440.5,104 L440.5,94.2 C440.5,90.003 440.582,88.999 440.882,88.411 C441.217,87.752 441.752,87.217 442.411,86.882 C442.999,86.582 444.003,86.5 448.2,86.5 L458,86.5 C459.933,86.5 461.5,84.933 461.5,83 C461.5,81.067 459.933,79.5 458,79.5 Z M477.975,102.975 L498.975,81.975 C500.342,80.608 500.342,78.392 498.975,77.025 C497.608,75.658 495.392,75.658 494.025,77.025 L473.025,98.025 C471.658,99.392 471.658,101.608 473.025,102.975 C474.392,104.342 476.608,104.342 477.975,102.975 Z M496.5,76 L475.5,76 C473.567,76 472,77.567 472,79.5 C472,81.433 473.567,83 475.5,83 L496.5,83 C498.433,83 500,81.433 500,79.5 C500,77.567 498.433,76 496.5,76 Z M493,79.5 L493,100.5 C493,102.433 494.567,104 496.5,104 C498.433,104 500,102.433 500,100.5 L500,79.5 C500,77.567 498.433,76 496.5,76 C494.567,76 493,77.567 493,79.5 Z M452.025,119.025 L431.025,140.025 C429.658,141.392 429.658,143.608 431.025,144.975 C432.392,146.342 434.608,146.342 435.975,144.975 L456.975,123.975 C458.342,122.608 458.342,120.392 456.975,119.025 C455.608,117.658 453.392,117.658 452.025,119.025 Z M433.5,146 L454.5,146 C456.433,146 458,144.433 458,142.5 C458,140.567 456.433,139 454.5,139 L433.5,139 C431.567,139 430,140.567 430,142.5 C430,144.433 431.567,146 433.5,146 Z M437,142.5 L437,121.5 C437,119.567 435.433,118 433.5,118 C431.567,118 430,119.567 430,121.5 L430,142.5 C430,144.433 431.567,146 433.5,146 C435.433,146 437,144.433 437,142.5 Z" />
        </g>
        <g id="Black-M" transform="translate(0,200)">
            <path d="M689.5,118 L689.5,127.8 C689.5,131.997 689.418,133.001 689.118,133.589 C688.783,134.248 688.248,134.783 687.589,135.118 C687.001,135.418 685.997,135.5 681.8,135.5 L672,135.5 C670.067,135.5 668.5,137.067 668.5,139 C668.5,140.933 670.067,142.5 672,142.5 L681.8,142.5 C687.403,142.5 688.733,142.391 690.767,141.356 C692.743,140.349 694.349,138.743 695.356,136.767 C696.391,134.733 696.5,133.403 696.5,127.8 L696.5,118 C696.5,116.067 694.933,114.5 693,114.5 C691.067,114.5 689.5,116.067 689.5,118 Z M658,79.5 L648.2,79.5 C642.597,79.5 641.267,79.609 639.233,80.644 C637.257,81.651 635.651,83.257 634.644,85.233 C633.609,87.267 633.5,88.597 633.5,94.2 L633.5,104 C633.5,105.933 635.067,107.5 637,107.5 C638.933,107.5 640.5,105.933 640.5,104 L640.5,94.2 C640.5,90.003 640.582,88.999 640.882,88.411 C641.217,87.752 641.752,87.217 642.411,86.882 C642.999,86.582 644.003,86.5 648.2,86.5 L658,86.5 C659.933,86.5 661.5,84.933 661.5,83 C661.5,81.067 659.933,79.5 658,79.5 Z M677.975,102.975 L698.975,81.975 C700.342,80.608 700.342,78.392 698.975,77.025 C697.608,75.658 695.392,75.658 694.025,77.025 L673.025,98.025 C671.658,99.392 671.658,101.608 673.025,102.975 C674.392,104.342 676.608,104.342 677.975,102.975 Z M696.5,76 L675.5,76 C673.567,76 672,77.567 672,79.5 C672,81.433 673.567,83 675.5,83 L696.5,83 C698.433,83 700,81.433 700,79.5 C700,77.567 698.433,76 696.5,76 Z M693,79.5 L693,100.5 C693,102.433 694.567,104 696.5,104 C698.433,104 700,102.433 700,100.5 L700,79.5 C700,77.567 698.433,76 696.5,76 C694.567,76 693,77.567 693,79.5 Z M652.025,119.025 L631.025,140.025 C629.658,141.392 629.658,143.608 631.025,144.975 C632.392,146.342 634.608,146.342 635.975,144.975 L656.975,123.975 C658.342,122.608 658.342,120.392 656.975,119.025 C655.608,117.658 653.392,117.658 652.025,119.025 Z M633.5,146 L654.5,146 C656.433,146 658,144.433 658,142.5 C658,140.567 656.433,139 654.5,139 L633.5,139 C631.567,139 630,140.567 630,142.5 C630,144.433 631.567,146 633.5,146 Z M637,142.5 L637,121.5 C637,119.567 635.433,118 633.5,118 C631.567,118 630,119.567 630,121.5 L630,142.5 C630,144.433 631.567,146 633.5,146 C635.433,146 637,144.433 637,142.5 Z" />
        </g>
    </g>
</svg>