<?xml version="1.0" encoding="UTF-8"?>
<svg height="600" width="800" xmlns="http://www.w3.org/2000/svg" xmlns:xlink="http://www.w3.org/1999/xlink">
    <g id="Notes" font-family="LucidaGrande, 'Lucida Grande', sans-serif" font-size="13">
        <rect fill="white" height="600.0" width="800.0" x="0.0" y="0.0" />
        <g font-size="13">
            <text x="18.0" y="176.0">Small</text>
            <text x="18.0" y="376.0">Medium</text>
            <text x="18.0" y="576.0">Large</text>
        </g>
        <g font-size="9">
            <text x="250.0" y="30.0">Ultralight</text>
            <text x="450.0" y="30.0">Regular</text>
            <text x="650.0" y="30.0">Black</text>
            <text id="template-version" fill="#505050" text-anchor="end" x="785.0" y="575.0">Template v.3.0</text>
            <a href="https://github.com/swhitty/SwiftDraw">
                <text fill="#505050" text-anchor="end" x="785.0" y="590.0">https://github.com/swhitty/SwiftDraw</text>
            </a>
        </g>
    </g>
    <g id="Guides" stroke="rgb(39, 170, 225)" stroke-width="0.5">
        <path id="Capline-S" d="M18,76 l800,0" />
        <path id="H-reference" d="M85,145.755 L87.685,145.755 L113.369,79.287 L114.052,79.287 L114.052,76 L112.148,76 L85,145.755 Z M95.693,121.536 L130.996,121.536 L130.263,119.313 L96.474,119.313 L95.693,121.536 Z M139.15,145.755 L141.787,145.755 L114.638,76 L113.466,76 L113.466,79.287 L139.15,145.755 Z" stroke="none" transform="translate(0,200)" />
        <path id="Baseline-S" d="M18,146 l800,0" />
        <path id="left-margin-Ultralight-M" d="M230,256 l0,110" />
        <path id="right-margin-Ultralight-M" d="M300,256 l0,110" />
        <path id="left-margin-Regular-M" d="M430,256 l0,110" />
        <path id="right-margin-Regular-M" d="M500,256 l0,110" />
        <path id="left-margin-Black-M" d="M630,256 l0,110" />
        <path id="right-margin-Black-M" d="M700,256 l0,110" />
        <path id="Capline-M" d="M18,276 l800,0" />
        <path id="Baseline-M" d="M18,346 l800,0" />
        <path id="Capline-L" d="M18,476 l800,0" />
        <path id="Baseline-L" d="M18,546 l800,0" />
    </g>
    <g id="Symbols">
        <g id="Ultralight-M" transform="translate(0,200)">
            <path d="M249.727,119.273 C250.5,120.303 251.856,121.718 253.782,123.119 C257.024,125.476 260.785,126.909 265,126.909 C269.215,126.909 272.976,125.476 276.218,123.119 C278.144,121.718 279.5,120.303 280.273,119.273 C281.327,117.867 281.042,115.873 279.636,114.818 C278.231,113.764 276.236,114.049 275.182,115.455 C274.761,116.015 273.83,116.987 272.475,117.972 C270.248,119.592 267.745,120.545 265,120.545 C262.255,120.545 259.752,119.592 257.525,117.972 C256.17,116.987 255.239,116.015 254.818,115.455 C253.764,114.049 251.769,113.764 250.364,114.818 C248.958,115.873 248.673,117.867 249.727,119.273 Z M278.442,100.209 C277.769,101.035 276.942,101.455 276.136,101.455 C275.343,101.455 274.535,101.041 273.794,100.164 C272.659,98.822 270.651,98.654 269.309,99.788 C267.967,100.923 267.799,102.93 268.934,104.272 C270.833,106.519 273.375,107.818 276.136,107.818 C278.919,107.818 281.531,106.493 283.376,104.227 C284.486,102.865 284.281,100.861 282.918,99.751 C281.556,98.641 279.552,98.846 278.442,100.209 Z M256.169,100.209 C255.496,101.035 254.669,101.455 253.864,101.455 C253.071,101.455 252.263,101.041 251.521,100.164 C250.386,98.822 248.379,98.654 247.037,99.788 C245.695,100.923 245.527,102.93 246.661,104.272 C248.56,106.519 251.103,107.818 253.864,107.818 C256.647,107.818 259.258,106.493 261.103,104.227 C262.213,102.865 262.008,100.861 260.646,99.751 C259.283,98.641 257.279,98.846 256.169,100.209 Z M293.636,111 C293.636,126.816 280.816,139.636 265,139.636 C249.184,139.636 236.364,126.816 236.364,111 C236.364,95.184 249.184,82.364 265,82.364 C280.816,82.364 293.636,95.184 293.636,111 Z M300,111 C300,91.67 284.33,76 265,76 C245.67,76 230,91.67 230,111 C230,130.33 245.67,146 265,146 C284.33,146 300,130.33 300,111 Z" />
        </g>
        <g id="Regular-M" transform="translate(0,200)">
            <path d="M449.727,119.273 C450.5,120.303 451.856,121.718 453.782,123.119 C457.024,125.476 460.785,126.909 465,126.909 C469.215,126.909 472.976,125.476 476.218,123.119 C478.144,121.718 479.5,120.303 480.273,119.273 C481.327,117.867 481.042,115.873 479.636,114.818 C478.231,113.764 476.236,114.049 475.182,115.455 C474.761,116.015 473.83,116.987 472.475,117.972 C470.248,119.592 467.745,120.545 465,120.545 C462.255,120.545 459.752,119.592 457.525,117.972 C456.17,116.987 455.239,116.015 454.818,115.455 C453.764,114.049 451.769,113.764 450.364,114.818 C448.958,115.873 448.673,117.867 449.727,119.273 Z M478.442,100.209 C477.769,101.035 476.942,101.455 476.136,101.455 C475.343,101.455 474.535,101.041 473.794,100.164 C472.659,98.822 470.651,98.654 469.309,99.788 C467.967,100.923 467.799,102.93 468.934,104.272 C470.833,106.519 473.375,107.818 476.136,107.818 C478.919,107.818 481.531,106.493 483.376,104.227 C484.486,102.865 484.281,100.861 482.918,99.751 C481.556,98.641 479.552,98.846 478.442,100.209 Z M456.169,100.209 C455.496,101.035 454.669,101.455 453.864,101.455 C453.071,101.455 452.263,101.041 451.521,100.164 C450.386,98.822 448.379,98.654 447.037,99.788 C445.695,100.923 445.527,102.93 446.661,104.272 C448.56,106.519 451.103,107.818 453.864,107.818 C456.647,107.818 459.258,106.493 461.103,104.227 C462.213,102.865 462.008,100.861 460.646,99.751 C459.283,98.641 457.279,98.846 456.169,100.209 Z M493.636,111 C493.636,126.816 480.816,139.636 465,139.636 C449.184,139.636 436.364,126.816 436.364,111 C436.364,95.184 449.184,82.364 465,82.364 C480.816,82.364 493.636,95.184 493.636,111 Z M500,111 C500,91.67 484.33,76 465,76 C445.67,76 430,91.67 430,111 C430,130.33 445.67,146 465,146 C484.33,146 500,130.33 500,111 Z" />
        </g>
        <g id="Black-M" transform="translate(0,200)">
            <path d="M649.727,119.273 C650.5,120.303 651.856,121.718 653.782,123.119 C657.023,125.476 660.785,126.909 665,126.909 C669.215,126.909 672.977,125.476 676.218,123.119 C678.144,121.718 679.5,120.303 680.273,119.273 C681.327,117.867 681.042,115.873 679.636,114.818 C678.231,113.764 676.236,114.049 675.182,115.455 C674.761,116.015 673.83,116.987 672.475,117.972 C670.248,119.592 667.745,120.545 665,120.545 C662.255,120.545 659.752,119.592 657.525,117.972 C656.17,116.987 655.239,116.015 654.818,115.455 C653.764,114.049 651.769,113.764 650.364,114.818 C648.958,115.873 648.673,117.867 649.727,119.273 Z M678.442,100.209 C677.769,101.035 676.942,101.455 676.136,101.455 C675.343,101.455 674.535,101.041 673.794,100.164 C672.659,98.822 670.651,98.654 669.31,99.788 C667.967,100.923 667.799,102.93 668.934,104.272 C670.833,106.519 673.375,107.818 676.136,107.818 C678.919,107.818 681.531,106.493 683.376,104.227 C684.486,102.865 684.281,100.861 682.918,99.751 C681.556,98.641 679.552,98.846 678.442,100.209 Z M656.169,100.209 C655.496,101.035 654.669,101.455 653.864,101.455 C653.071,101.455 652.263,101.041 651.521,100.164 C650.386,98.822 648.379,98.654 647.037,99.788 C645.695,100.923 645.527,102.93 646.661,104.272 C648.56,106.519 651.103,107.818 653.864,107.818 C656.647,107.818 659.258,106.493 661.103,104.227 C662.213,102.865 662.008,100.861 660.646,99.751 C659.283,98.641 657.279,98.846 656.169,100.209 Z M693.636,111 C693.636,126.816 680.816,139.636 665,139.636 C649.184,139.636 636.364,126.816 636.364,111 C636.364,95.184 649.184,82.364 665,82.364 C680.816,82.364 693.636,95.184 693.636,111 Z M700,111 C700,91.67 684.33,76 665,76 C645.67,76 630,91.67 630,111 C630,130.33 645.67,146 665,146 C684.33,146 700,130.33 700,111 Z" />
        </g>
    </g>
</svg>