<?xml version="1.0" encoding="UTF-8"?>
<svg height="600" width="800" xmlns="http://www.w3.org/2000/svg" xmlns:xlink="http://www.w3.org/1999/xlink">
    <g id="Notes" font-family="LucidaGrande, 'Lucida Grande', sans-serif" font-size="13">
        <rect fill="white" height="600.0" width="800.0" x="0.0" y="0.0" />
        <g font-size="13">
            <text x="18.0" y="176.0">Small</text>
            <text x="18.0" y="376.0">Medium</text>
            <text x="18.0" y="576.0">Large</text>
        </g>
        <g font-size="9">
            <text x="250.0" y="30.0">Ultralight</text>
            <text x="450.0" y="30.0">Regular</text>
            <text x="650.0" y="30.0">Black</text>
            <text id="template-version" fill="#505050" text-anchor="end" x="785.0" y="575.0">Template v.3.0</text>
            <a href="https://github.com/swhitty/SwiftDraw">
                <text fill="#505050" text-anchor="end" x="785.0" y="590.0">https://github.com/swhitty/SwiftDraw</text>
            </a>
        </g>
    </g>
    <g id="Guides" stroke="rgb(39, 170, 225)" stroke-width="0.5">
        <path id="Capline-S" d="M18,76 l800,0" />
        <path id="H-reference" d="M85,145.755 L87.685,145.755 L113.369,79.287 L114.052,79.287 L114.052,76 L112.148,76 L85,145.755 Z M95.693,121.536 L130.996,121.536 L130.263,119.313 L96.474,119.313 L95.693,121.536 Z M139.15,145.755 L141.787,145.755 L114.638,76 L113.466,76 L113.466,79.287 L139.15,145.755 Z" stroke="none" transform="translate(0,200)" />
        <path id="Baseline-S" d="M18,146 l800,0" />
        <path id="left-margin-Ultralight-M" d="M221,256 l0,110" />
        <path id="right-margin-Ultralight-M" d="M309,256 l0,110" />
        <path id="left-margin-Regular-M" d="M421,256 l0,110" />
        <path id="right-margin-Regular-M" d="M509,256 l0,110" />
        <path id="left-margin-Black-M" d="M621,256 l0,110" />
        <path id="right-margin-Black-M" d="M709,256 l0,110" />
        <path id="Capline-M" d="M18,276 l800,0" />
        <path id="Baseline-M" d="M18,346 l800,0" />
        <path id="Capline-L" d="M18,476 l800,0" />
        <path id="Baseline-L" d="M18,546 l800,0" />
    </g>
    <g id="Symbols">
        <g id="Ultralight-M" transform="translate(0,200)">
            <path d="M300.812,128.942 C300.812,131.934 300.795,132.942 300.712,133.858 C300.658,134.446 300.622,134.568 300.813,134.339 C300.81,134.342 300.81,134.342 300.81,134.342 C301.109,134.353 300.993,134.299 300.513,133.948 C299.764,133.401 298.982,132.736 296.726,130.753 L276.287,112.815 C274.654,111.379 274.211,110.945 274.138,110.817 C274.166,110.867 274.195,110.93 274.22,111.001 C274.221,111.002 274.221,111.002 274.221,111.002 C274.195,111.074 274.166,111.137 274.138,111.187 C274.211,111.059 274.654,110.625 276.29,109.186 L296.724,91.249 C298.99,89.26 299.763,88.604 300.512,88.056 C300.995,87.703 301.116,87.646 300.817,87.658 C300.811,87.658 300.811,87.658 300.811,87.658 C300.621,87.43 300.658,87.555 300.712,88.144 C300.795,89.061 300.812,90.07 300.812,93.062 L300.812,128.942 Z M309,128.942 L309,93.062 C309,85.829 308.891,84.628 307.134,82.52 C305.51,80.571 303.057,79.482 300.502,79.577 C297.738,79.684 296.76,80.399 291.285,85.204 L270.848,103.144 C268.304,105.381 267.732,105.942 267.004,107.218 C266.801,107.574 266.631,107.942 266.495,108.325 C265.879,110.058 265.879,111.946 266.495,113.679 C266.631,114.062 266.801,114.43 267.004,114.786 C267.732,116.062 268.304,116.623 270.845,118.857 L291.285,136.796 C296.751,141.6 297.741,142.324 300.508,142.423 C303.053,142.518 305.503,141.432 307.127,139.488 C308.89,137.381 309,136.178 309,128.942 Z M255.779,128.942 C255.779,131.934 255.762,132.942 255.679,133.858 C255.625,134.446 255.589,134.568 255.78,134.339 C255.777,134.342 255.777,134.342 255.777,134.342 C256.076,134.353 255.96,134.299 255.48,133.948 C254.731,133.401 253.949,132.736 251.693,130.753 L231.254,112.815 C229.621,111.379 229.178,110.945 229.105,110.817 C229.133,110.867 229.162,110.93 229.188,111.001 C229.188,111.002 229.188,111.002 229.188,111.002 C229.162,111.074 229.133,111.137 229.105,111.187 C229.178,111.059 229.621,110.625 231.257,109.186 L251.691,91.249 C253.957,89.26 254.73,88.604 255.479,88.056 C255.962,87.703 256.083,87.646 255.784,87.658 C255.778,87.658 255.778,87.658 255.778,87.658 C255.588,87.43 255.625,87.555 255.679,88.144 C255.762,89.061 255.779,90.07 255.779,93.062 L255.779,128.942 Z M263.967,128.942 L263.967,93.062 C263.967,85.829 263.858,84.628 262.101,82.52 C260.477,80.571 258.024,79.482 255.469,79.577 C252.705,79.684 251.727,80.399 246.252,85.204 L225.815,103.144 C223.271,105.381 222.699,105.942 221.971,107.218 C221.768,107.574 221.598,107.942 221.462,108.325 C220.846,110.058 220.846,111.946 221.462,113.679 C221.598,114.062 221.768,114.43 221.971,114.786 C222.699,116.062 223.271,116.623 225.812,118.857 L246.252,136.796 C251.718,141.6 252.708,142.324 255.475,142.423 C258.02,142.518 260.47,141.432 262.094,139.488 C263.857,137.381 263.967,136.178 263.967,128.942 Z" />
        </g>
        <g id="Regular-M" transform="translate(0,200)">
            <path d="M500.812,128.942 C500.812,131.934 500.795,132.942 500.712,133.858 C500.658,134.446 500.622,134.568 500.813,134.339 C500.81,134.342 500.81,134.342 500.81,134.342 C501.109,134.353 500.993,134.299 500.513,133.948 C499.764,133.401 498.982,132.736 496.726,130.753 L476.287,112.815 C474.654,111.379 474.211,110.945 474.138,110.817 C474.166,110.867 474.195,110.93 474.22,111.001 C474.221,111.002 474.221,111.002 474.221,111.002 C474.195,111.074 474.166,111.137 474.138,111.187 C474.211,111.059 474.654,110.625 476.29,109.186 L496.724,91.249 C498.99,89.26 499.763,88.604 500.512,88.056 C500.995,87.703 501.116,87.646 500.817,87.658 C500.811,87.658 500.811,87.658 500.811,87.658 C500.621,87.43 500.658,87.555 500.712,88.144 C500.795,89.061 500.812,90.07 500.812,93.062 L500.812,128.942 Z M509,128.942 L509,93.062 C509,85.829 508.891,84.628 507.134,82.52 C505.51,80.571 503.057,79.482 500.502,79.577 C497.738,79.684 496.76,80.399 491.285,85.204 L470.848,103.144 C468.304,105.381 467.732,105.942 467.004,107.218 C466.801,107.574 466.631,107.942 466.495,108.325 C465.879,110.058 465.879,111.946 466.495,113.679 C466.631,114.062 466.801,114.43 467.004,114.786 C467.732,116.062 468.304,116.623 470.845,118.857 L491.285,136.796 C496.751,141.6 497.741,142.324 500.508,142.423 C503.053,142.518 505.503,141.432 507.127,139.488 C508.89,137.381 509,136.178 509,128.942 Z M455.779,128.942 C455.779,131.934 455.762,132.942 455.679,133.858 C455.625,134.446 455.589,134.568 455.78,134.339 C455.777,134.342 455.777,134.342 455.777,134.342 C456.076,134.353 455.96,134.299 455.48,133.948 C454.731,133.401 453.949,132.736 451.693,130.753 L431.254,112.815 C429.621,111.379 429.178,110.945 429.105,110.817 C429.133,110.867 429.162,110.93 429.188,111.001 C429.188,111.002 429.188,111.002 429.188,111.002 C429.162,111.074 429.133,111.137 429.105,111.187 C429.178,111.059 429.621,110.625 431.257,109.186 L451.691,91.249 C453.957,89.26 454.73,88.604 455.479,88.056 C455.962,87.703 456.083,87.646 455.784,87.658 C455.778,87.658 455.778,87.658 455.778,87.658 C455.588,87.43 455.625,87.555 455.679,88.144 C455.762,89.061 455.779,90.07 455.779,93.062 L455.779,128.942 Z M463.967,128.942 L463.967,93.062 C463.967,85.829 463.858,84.628 462.101,82.52 C460.477,80.571 458.024,79.482 455.469,79.577 C452.705,79.684 451.727,80.399 446.252,85.204 L425.815,103.144 C423.271,105.381 422.699,105.942 421.971,107.218 C421.768,107.574 421.598,107.942 421.462,108.325 C420.846,110.058 420.846,111.946 421.462,113.679 C421.598,114.062 421.768,114.43 421.971,114.786 C422.699,116.062 423.271,116.623 425.812,118.857 L446.252,136.796 C451.718,141.6 452.708,142.324 455.475,142.423 C458.02,142.518 460.47,141.432 462.094,139.488 C463.857,137.381 463.967,136.178 463.967,128.942 Z" />
        </g>
        <g id="Black-M" transform="translate(0,200)">
            <path d="M700.812,128.942 C700.812,131.934 700.795,132.942 700.712,133.858 C700.658,134.446 700.622,134.568 700.813,134.339 C700.81,134.342 700.81,134.342 700.81,134.342 C701.109,134.353 700.993,134.299 700.513,133.948 C699.764,133.401 698.982,132.736 696.726,130.753 L676.287,112.815 C674.654,111.379 674.211,110.945 674.138,110.817 C674.166,110.867 674.195,110.93 674.22,111.001 C674.221,111.002 674.221,111.002 674.221,111.002 C674.195,111.074 674.166,111.137 674.138,111.187 C674.211,111.059 674.654,110.625 676.29,109.186 L696.724,91.249 C698.99,89.26 699.763,88.604 700.512,88.056 C700.995,87.703 701.116,87.646 700.817,87.658 C700.811,87.658 700.811,87.658 700.811,87.658 C700.621,87.43 700.658,87.555 700.712,88.144 C700.795,89.061 700.812,90.07 700.812,93.062 L700.812,128.942 Z M709,128.942 L709,93.062 C709,85.829 708.891,84.628 707.134,82.52 C705.51,80.571 703.057,79.482 700.502,79.577 C697.738,79.684 696.76,80.399 691.285,85.204 L670.848,103.144 C668.304,105.381 667.732,105.942 667.004,107.218 C666.801,107.574 666.631,107.942 666.495,108.325 C665.879,110.058 665.879,111.946 666.495,113.679 C666.631,114.062 666.801,114.43 667.004,114.786 C667.732,116.062 668.304,116.623 670.845,118.857 L691.285,136.796 C696.751,141.6 697.741,142.324 700.508,142.423 C703.053,142.518 705.503,141.432 707.127,139.488 C708.89,137.381 709,136.178 709,128.942 Z M655.779,128.942 C655.779,131.934 655.762,132.942 655.679,133.858 C655.625,134.446 655.589,134.568 655.78,134.339 C655.777,134.342 655.777,134.342 655.777,134.342 C656.076,134.353 655.96,134.299 655.48,133.948 C654.731,133.401 653.949,132.736 651.693,130.753 L631.254,112.815 C629.621,111.379 629.178,110.945 629.105,110.817 C629.133,110.867 629.162,110.93 629.188,111.001 C629.188,111.002 629.188,111.002 629.188,111.002 C629.162,111.074 629.133,111.137 629.105,111.187 C629.178,111.059 629.621,110.625 631.257,109.186 L651.691,91.249 C653.957,89.26 654.73,88.604 655.479,88.056 C655.962,87.703 656.083,87.646 655.784,87.658 C655.778,87.658 655.778,87.658 655.778,87.658 C655.588,87.43 655.625,87.555 655.679,88.144 C655.762,89.061 655.779,90.07 655.779,93.062 L655.779,128.942 Z M663.967,128.942 L663.967,93.062 C663.967,85.829 663.858,84.628 662.101,82.52 C660.477,80.571 658.024,79.482 655.469,79.577 C652.705,79.684 651.727,80.399 646.252,85.204 L625.815,103.144 C623.271,105.381 622.699,105.942 621.971,107.218 C621.768,107.574 621.598,107.942 621.462,108.325 C620.846,110.058 620.846,111.946 621.462,113.679 C621.598,114.062 621.768,114.43 621.971,114.786 C622.699,116.062 623.271,116.623 625.812,118.857 L646.252,136.796 C651.718,141.6 652.708,142.324 655.475,142.423 C658.02,142.518 660.47,141.432 662.094,139.488 C663.857,137.381 663.967,136.178 663.967,128.942 Z" />
        </g>
    </g>
</svg>