<?xml version="1.0" encoding="UTF-8"?>
<svg height="600" width="800" xmlns="http://www.w3.org/2000/svg" xmlns:xlink="http://www.w3.org/1999/xlink">
    <g id="Notes" font-family="LucidaGrande, 'Lucida Grande', sans-serif" font-size="13">
        <rect fill="white" height="600.0" width="800.0" x="0.0" y="0.0" />
        <g font-size="13">
            <text x="18.0" y="176.0">Small</text>
            <text x="18.0" y="376.0">Medium</text>
            <text x="18.0" y="576.0">Large</text>
        </g>
        <g font-size="9">
            <text x="250.0" y="30.0">Ultralight</text>
            <text x="450.0" y="30.0">Regular</text>
            <text x="650.0" y="30.0">Black</text>
            <text id="template-version" fill="#505050" text-anchor="end" x="785.0" y="575.0">Template v.3.0</text>
            <a href="https://github.com/swhitty/SwiftDraw">
                <text fill="#505050" text-anchor="end" x="785.0" y="590.0">https://github.com/swhitty/SwiftDraw</text>
            </a>
        </g>
    </g>
    <g id="Guides" stroke="rgb(39, 170, 225)" stroke-width="0.5">
        <path id="Capline-S" d="M18,76 l800,0" />
        <path id="H-reference" d="M85,145.755 L87.685,145.755 L113.369,79.287 L114.052,79.287 L114.052,76 L112.148,76 L85,145.755 Z M95.693,121.536 L130.996,121.536 L130.263,119.313 L96.474,119.313 L95.693,121.536 Z M139.15,145.755 L141.787,145.755 L114.638,76 L113.466,76 L113.466,79.287 L139.15,145.755 Z" stroke="none" transform="translate(0,200)" />
        <path id="Baseline-S" d="M18,146 l800,0" />
        <path id="left-margin-Ultralight-M" d="M230,256 l0,110" />
        <path id="right-margin-Ultralight-M" d="M300,256 l0,110" />
        <path id="left-margin-Regular-M" d="M430,256 l0,110" />
        <path id="right-margin-Regular-M" d="M500,256 l0,110" />
        <path id="left-margin-Black-M" d="M630,256 l0,110" />
        <path id="right-margin-Black-M" d="M700,256 l0,110" />
        <path id="Capline-M" d="M18,276 l800,0" />
        <path id="Baseline-M" d="M18,346 l800,0" />
        <path id="Capline-L" d="M18,476 l800,0" />
        <path id="Baseline-L" d="M18,546 l800,0" />
    </g>
    <g id="Symbols">
        <g id="Ultralight-M" transform="translate(0,200)">
            <path d="M296.316,104.636 L296.316,94.455 C296.316,87.133 296.151,85.394 294.71,82.95 C293.297,80.554 291.042,78.607 288.269,77.387 C285.439,76.142 283.424,76 274.947,76 L251.368,76 C242.891,76 240.877,76.142 238.047,77.387 C235.274,78.607 233.019,80.554 231.606,82.949 C230.165,85.394 230,87.133 230,94.455 L230,127.545 C230,134.867 230.165,136.606 231.606,139.05 C233.019,141.446 235.274,143.393 238.046,144.613 C240.877,145.858 242.891,146 251.368,146 L257.632,146 C259.666,146 261.316,144.575 261.316,142.818 C261.316,141.061 259.666,139.636 257.632,139.636 L251.368,139.636 C244.372,139.636 242.7,139.518 241.391,138.943 C240.005,138.333 238.878,137.359 238.172,136.162 C237.505,135.032 237.368,133.588 237.368,127.545 L237.368,94.455 C237.368,88.412 237.505,86.968 238.172,85.838 C238.878,84.641 240.005,83.667 241.392,83.057 C242.7,82.482 244.372,82.364 251.368,82.364 L274.947,82.364 C281.944,82.364 283.616,82.482 284.925,83.058 C286.311,83.667 287.438,84.641 288.144,85.838 C288.811,86.968 288.947,88.412 288.947,94.455 L288.947,104.636 C288.947,106.394 290.597,107.818 292.632,107.818 C294.666,107.818 296.316,106.394 296.316,104.636 Z M266.842,104.636 L248.421,104.636 C246.386,104.636 244.737,106.061 244.737,107.818 C244.737,109.575 246.386,111 248.421,111 L266.842,111 C268.877,111 270.526,109.575 270.526,107.818 C270.526,106.061 268.877,104.636 266.842,104.636 Z M259.474,117.364 L248.421,117.364 C246.386,117.364 244.737,118.788 244.737,120.545 C244.737,122.303 246.386,123.727 248.421,123.727 L259.474,123.727 C261.508,123.727 263.158,122.303 263.158,120.545 C263.158,118.788 261.508,117.364 259.474,117.364 Z M277.895,91.909 L248.421,91.909 C246.386,91.909 244.737,93.334 244.737,95.091 C244.737,96.848 246.386,98.273 248.421,98.273 L277.895,98.273 C279.929,98.273 281.579,96.848 281.579,95.091 C281.579,93.334 279.929,91.909 277.895,91.909 Z M293.553,126.909 L293.553,121.341 C293.553,116.508 289.017,112.591 283.421,112.591 C277.826,112.591 273.289,116.508 273.289,121.341 L273.289,126.909 C273.289,128.666 274.939,130.091 276.974,130.091 C279.008,130.091 280.658,128.666 280.658,126.909 L280.658,121.341 C280.658,120.023 281.895,118.955 283.421,118.955 C284.947,118.955 286.184,120.023 286.184,121.341 L286.184,126.909 C286.184,128.666 287.834,130.091 289.868,130.091 C291.903,130.091 293.553,128.666 293.553,126.909 Z M276.421,142.818 L290.421,142.818 C293.74,142.818 294.526,142.763 295.976,142.125 C297.363,141.514 298.49,140.541 299.197,139.344 C299.936,138.091 300,137.412 300,134.545 L300,132 C300,129.133 299.936,128.455 299.197,127.202 C298.49,126.004 297.363,125.031 295.977,124.421 C294.526,123.783 293.74,123.727 290.421,123.727 L276.421,123.727 C273.102,123.727 272.316,123.783 270.866,124.421 C269.479,125.031 268.352,126.004 267.645,127.202 C266.906,128.455 266.842,129.133 266.842,132 L266.842,134.545 C266.842,137.412 266.906,138.091 267.645,139.343 C268.352,140.541 269.479,141.514 270.865,142.125 C272.316,142.763 273.102,142.818 276.421,142.818 Z M276.421,136.455 C274.582,136.455 274.139,136.423 274.21,136.454 C274.211,136.455 274.211,136.455 274.211,136.455 C274.247,136.516 274.211,136.133 274.211,134.545 L274.211,132 C274.211,130.412 274.247,130.03 274.211,130.09 C274.211,130.091 274.211,130.091 274.211,130.091 C274.139,130.122 274.582,130.091 276.421,130.091 L290.421,130.091 C292.26,130.091 292.703,130.122 292.632,130.091 C292.632,130.091 292.632,130.091 292.632,130.091 C292.595,130.03 292.632,130.412 292.632,132 L292.632,134.545 C292.632,136.133 292.595,136.516 292.631,136.455 C292.632,136.455 292.632,136.455 292.632,136.455 C292.703,136.423 292.26,136.455 290.421,136.455 L276.421,136.455 Z" />
        </g>
        <g id="Regular-M" transform="translate(0,200)">
            <path d="M496.316,104.636 L496.316,94.455 C496.316,87.133 496.151,85.394 494.71,82.95 C493.297,80.554 491.042,78.607 488.269,77.387 C485.439,76.142 483.424,76 474.947,76 L451.368,76 C442.891,76 440.877,76.142 438.047,77.387 C435.274,78.607 433.019,80.554 431.606,82.949 C430.165,85.394 430,87.133 430,94.455 L430,127.545 C430,134.867 430.165,136.606 431.606,139.05 C433.019,141.446 435.273,143.393 438.046,144.613 C440.877,145.858 442.891,146 451.368,146 L457.632,146 C459.666,146 461.316,144.575 461.316,142.818 C461.316,141.061 459.666,139.636 457.632,139.636 L451.368,139.636 C444.372,139.636 442.7,139.518 441.391,138.943 C440.005,138.333 438.878,137.359 438.172,136.162 C437.505,135.032 437.368,133.588 437.368,127.545 L437.368,94.455 C437.368,88.412 437.505,86.968 438.172,85.838 C438.878,84.641 440.005,83.667 441.392,83.057 C442.7,82.482 444.372,82.364 451.368,82.364 L474.947,82.364 C481.944,82.364 483.616,82.482 484.925,83.058 C486.311,83.667 487.438,84.641 488.144,85.838 C488.811,86.968 488.947,88.412 488.947,94.455 L488.947,104.636 C488.947,106.394 490.597,107.818 492.632,107.818 C494.666,107.818 496.316,106.394 496.316,104.636 Z M466.842,104.636 L448.421,104.636 C446.386,104.636 444.737,106.061 444.737,107.818 C444.737,109.575 446.386,111 448.421,111 L466.842,111 C468.877,111 470.526,109.575 470.526,107.818 C470.526,106.061 468.877,104.636 466.842,104.636 Z M459.474,117.364 L448.421,117.364 C446.386,117.364 444.737,118.788 444.737,120.545 C444.737,122.303 446.386,123.727 448.421,123.727 L459.474,123.727 C461.508,123.727 463.158,122.303 463.158,120.545 C463.158,118.788 461.508,117.364 459.474,117.364 Z M477.895,91.909 L448.421,91.909 C446.386,91.909 444.737,93.334 444.737,95.091 C444.737,96.848 446.386,98.273 448.421,98.273 L477.895,98.273 C479.929,98.273 481.579,96.848 481.579,95.091 C481.579,93.334 479.929,91.909 477.895,91.909 Z M493.553,126.909 L493.553,121.341 C493.553,116.508 489.017,112.591 483.421,112.591 C477.826,112.591 473.289,116.508 473.289,121.341 L473.289,126.909 C473.289,128.666 474.939,130.091 476.974,130.091 C479.008,130.091 480.658,128.666 480.658,126.909 L480.658,121.341 C480.658,120.023 481.895,118.955 483.421,118.955 C484.947,118.955 486.184,120.023 486.184,121.341 L486.184,126.909 C486.184,128.666 487.834,130.091 489.868,130.091 C491.903,130.091 493.553,128.666 493.553,126.909 Z M476.421,142.818 L490.421,142.818 C493.74,142.818 494.526,142.763 495.976,142.125 C497.363,141.514 498.49,140.541 499.197,139.344 C499.936,138.091 500,137.412 500,134.545 L500,132 C500,129.133 499.936,128.455 499.197,127.202 C498.49,126.004 497.363,125.031 495.977,124.421 C494.526,123.783 493.74,123.727 490.421,123.727 L476.421,123.727 C473.102,123.727 472.316,123.783 470.866,124.421 C469.479,125.031 468.352,126.004 467.645,127.202 C466.906,128.455 466.842,129.133 466.842,132 L466.842,134.545 C466.842,137.412 466.906,138.091 467.645,139.343 C468.352,140.541 469.479,141.514 470.865,142.125 C472.316,142.763 473.102,142.818 476.421,142.818 Z M476.421,136.455 C474.582,136.455 474.139,136.423 474.21,136.454 C474.211,136.455 474.211,136.455 474.211,136.455 C474.247,136.516 474.211,136.133 474.211,134.545 L474.211,132 C474.211,130.412 474.247,130.03 474.211,130.09 C474.211,130.091 474.211,130.091 474.211,130.091 C474.139,130.122 474.582,130.091 476.421,130.091 L490.421,130.091 C492.26,130.091 492.703,130.122 492.632,130.091 C492.632,130.091 492.632,130.091 492.632,130.091 C492.595,130.03 492.632,130.412 492.632,132 L492.632,134.545 C492.632,136.133 492.595,136.516 492.631,136.455 C492.632,136.455 492.632,136.455 492.632,136.455 C492.703,136.423 492.26,136.455 490.421,136.455 L476.421,136.455 Z" />
        </g>
        <g id="Black-M" transform="translate(0,200)">
            <path d="M696.316,104.636 L696.316,94.455 C696.316,87.133 696.151,85.394 694.71,82.95 C693.297,80.554 691.042,78.607 688.269,77.387 C685.439,76.142 683.424,76 674.947,76 L651.368,76 C642.891,76 640.877,76.142 638.047,77.387 C635.273,78.607 633.019,80.554 631.606,82.949 C630.165,85.394 630,87.133 630,94.455 L630,127.545 C630,134.867 630.165,136.606 631.606,139.05 C633.019,141.446 635.273,143.393 638.046,144.613 C640.877,145.858 642.891,146 651.368,146 L657.632,146 C659.666,146 661.316,144.575 661.316,142.818 C661.316,141.061 659.666,139.636 657.632,139.636 L651.368,139.636 C644.372,139.636 642.7,139.518 641.391,138.943 C640.005,138.333 638.878,137.359 638.172,136.162 C637.505,135.032 637.368,133.588 637.368,127.545 L637.368,94.455 C637.368,88.412 637.505,86.968 638.172,85.838 C638.878,84.641 640.005,83.667 641.392,83.057 C642.7,82.482 644.372,82.364 651.368,82.364 L674.947,82.364 C681.944,82.364 683.615,82.482 684.925,83.058 C686.311,83.667 687.438,84.641 688.144,85.838 C688.811,86.968 688.947,88.412 688.947,94.455 L688.947,104.636 C688.947,106.394 690.597,107.818 692.632,107.818 C694.666,107.818 696.316,106.394 696.316,104.636 Z M666.842,104.636 L648.421,104.636 C646.386,104.636 644.737,106.061 644.737,107.818 C644.737,109.575 646.386,111 648.421,111 L666.842,111 C668.877,111 670.526,109.575 670.526,107.818 C670.526,106.061 668.877,104.636 666.842,104.636 Z M659.474,117.364 L648.421,117.364 C646.386,117.364 644.737,118.788 644.737,120.545 C644.737,122.303 646.386,123.727 648.421,123.727 L659.474,123.727 C661.508,123.727 663.158,122.303 663.158,120.545 C663.158,118.788 661.508,117.364 659.474,117.364 Z M677.895,91.909 L648.421,91.909 C646.386,91.909 644.737,93.334 644.737,95.091 C644.737,96.848 646.386,98.273 648.421,98.273 L677.895,98.273 C679.929,98.273 681.579,96.848 681.579,95.091 C681.579,93.334 679.929,91.909 677.895,91.909 Z M693.553,126.909 L693.553,121.341 C693.553,116.508 689.017,112.591 683.421,112.591 C677.826,112.591 673.289,116.508 673.289,121.341 L673.289,126.909 C673.289,128.666 674.939,130.091 676.974,130.091 C679.008,130.091 680.658,128.666 680.658,126.909 L680.658,121.341 C680.658,120.023 681.895,118.955 683.421,118.955 C684.947,118.955 686.184,120.023 686.184,121.341 L686.184,126.909 C686.184,128.666 687.834,130.091 689.868,130.091 C691.903,130.091 693.553,128.666 693.553,126.909 Z M676.421,142.818 L690.421,142.818 C693.74,142.818 694.526,142.763 695.976,142.125 C697.363,141.514 698.49,140.541 699.197,139.344 C699.936,138.091 700,137.412 700,134.545 L700,132 C700,129.133 699.936,128.455 699.197,127.202 C698.49,126.004 697.363,125.031 695.977,124.421 C694.526,123.783 693.74,123.727 690.421,123.727 L676.421,123.727 C673.102,123.727 672.316,123.783 670.866,124.421 C669.479,125.031 668.352,126.004 667.645,127.202 C666.906,128.455 666.842,129.133 666.842,132 L666.842,134.545 C666.842,137.412 666.906,138.091 667.645,139.343 C668.352,140.541 669.479,141.514 670.865,142.125 C672.316,142.763 673.102,142.818 676.421,142.818 Z M676.421,136.455 C674.582,136.455 674.139,136.423 674.21,136.454 C674.211,136.455 674.211,136.455 674.211,136.455 C674.247,136.516 674.211,136.133 674.211,134.545 L674.211,132 C674.211,130.412 674.247,130.03 674.211,130.09 C674.211,130.091 674.211,130.091 674.211,130.091 C674.139,130.122 674.582,130.091 676.421,130.091 L690.421,130.091 C692.26,130.091 692.703,130.122 692.632,130.091 C692.632,130.091 692.632,130.091 692.632,130.091 C692.595,130.03 692.632,130.412 692.632,132 L692.632,134.545 C692.632,136.133 692.595,136.516 692.631,136.455 C692.632,136.455 692.632,136.455 692.632,136.455 C692.703,136.423 692.26,136.455 690.421,136.455 L676.421,136.455 Z" />
        </g>
    </g>
</svg>