<?xml version="1.0" encoding="UTF-8"?>
<svg height="600" width="800" xmlns="http://www.w3.org/2000/svg" xmlns:xlink="http://www.w3.org/1999/xlink">
    <g id="Notes" font-family="LucidaGrande, 'Lucida Grande', sans-serif" font-size="13">
        <rect fill="white" height="600.0" width="800.0" x="0.0" y="0.0" />
        <g font-size="13">
            <text x="18.0" y="176.0">Small</text>
            <text x="18.0" y="376.0">Medium</text>
            <text x="18.0" y="576.0">Large</text>
        </g>
        <g font-size="9">
            <text x="250.0" y="30.0">Ultralight</text>
            <text x="450.0" y="30.0">Regular</text>
            <text x="650.0" y="30.0">Black</text>
            <text id="template-version" fill="#505050" text-anchor="end" x="785.0" y="575.0">Template v.3.0</text>
            <a href="https://github.com/swhitty/SwiftDraw">
                <text fill="#505050" text-anchor="end" x="785.0" y="590.0">https://github.com/swhitty/SwiftDraw</text>
            </a>
        </g>
    </g>
    <g id="Guides" stroke="rgb(39, 170, 225)" stroke-width="0.5">
        <path id="Capline-S" d="M18,76 l800,0" />
        <path id="H-reference" d="M85,145.755 L87.685,145.755 L113.369,79.287 L114.052,79.287 L114.052,76 L112.148,76 L85,145.755 Z M95.693,121.536 L130.996,121.536 L130.263,119.313 L96.474,119.313 L95.693,121.536 Z M139.15,145.755 L141.787,145.755 L114.638,76 L113.466,76 L113.466,79.287 L139.15,145.755 Z" stroke="none" transform="translate(0,200)" />
        <path id="Baseline-S" d="M18,146 l800,0" />
        <path id="left-margin-Ultralight-M" d="M230,256 l0,110" />
        <path id="right-margin-Ultralight-M" d="M300,256 l0,110" />
        <path id="left-margin-Regular-M" d="M430,256 l0,110" />
        <path id="right-margin-Regular-M" d="M500,256 l0,110" />
        <path id="left-margin-Black-M" d="M630,256 l0,110" />
        <path id="right-margin-Black-M" d="M700,256 l0,110" />
        <path id="Capline-M" d="M18,276 l800,0" />
        <path id="Baseline-M" d="M18,346 l800,0" />
        <path id="Capline-L" d="M18,476 l800,0" />
        <path id="Baseline-L" d="M18,546 l800,0" />
    </g>
    <g id="Symbols">
        <g id="Ultralight-M" transform="translate(0,200)">
            <path d="M291.25,105.167 L291.25,95.833 C291.25,89.122 291.12,87.527 289.979,85.287 C288.86,83.092 287.075,81.307 284.88,80.188 C282.639,79.047 281.044,78.917 274.333,78.917 L255.667,78.917 C248.956,78.917 247.361,79.047 245.12,80.188 C242.925,81.307 241.14,83.092 240.022,85.287 C238.88,87.527 238.75,89.122 238.75,95.833 L238.75,126.167 C238.75,132.878 238.88,134.473 240.021,136.713 C241.14,138.908 242.925,140.693 245.12,141.812 C247.361,142.953 248.956,143.083 255.667,143.083 L266.458,143.083 C268.069,143.083 269.375,141.777 269.375,140.167 C269.375,138.556 268.069,137.25 266.458,137.25 L255.667,137.25 C250.128,137.25 248.804,137.142 247.768,136.614 C246.671,136.055 245.778,135.163 245.219,134.065 C244.691,133.029 244.583,131.706 244.583,126.167 L244.583,95.833 C244.583,90.294 244.691,88.971 245.219,87.935 C245.778,86.837 246.671,85.945 247.768,85.386 C248.804,84.858 250.128,84.75 255.667,84.75 L274.333,84.75 C279.872,84.75 281.196,84.858 282.232,85.386 C283.329,85.945 284.222,86.837 284.781,87.935 C285.309,88.971 285.417,90.294 285.417,95.833 L285.417,105.167 C285.417,106.777 286.723,108.083 288.333,108.083 C289.944,108.083 291.25,106.777 291.25,105.167 Z M283.755,139.883 C285.05,139.266 286.886,138.172 288.743,136.622 C292.076,133.842 294.167,130.604 294.167,126.823 L294.167,119.525 C294.167,118.293 293.392,117.194 292.232,116.779 L285.85,114.498 C283.683,113.722 281.311,113.722 279.142,114.499 L272.768,116.779 C271.608,117.194 270.833,118.293 270.833,119.525 L270.833,126.823 C270.833,130.604 272.924,133.842 276.257,136.622 C278.114,138.172 279.95,139.266 281.245,139.883 C282.039,140.261 282.961,140.261 283.755,139.883 Z M281.245,134.617 L283.755,134.617 C283.559,134.524 283.159,134.312 282.626,133.995 C281.724,133.458 280.823,132.835 279.993,132.143 C277.857,130.361 276.667,128.517 276.667,126.823 L276.667,119.525 L274.732,122.272 L281.108,119.991 C282.007,119.669 282.987,119.669 283.884,119.99 L290.268,122.272 L288.333,119.525 L288.333,126.823 C288.333,128.517 287.143,130.361 285.007,132.143 C284.177,132.835 283.276,133.458 282.374,133.995 C281.841,134.312 281.441,134.524 281.245,134.617 Z" />
        </g>
        <g id="Regular-M" transform="translate(0,200)">
            <path d="M491.25,105.167 L491.25,95.833 C491.25,89.122 491.12,87.527 489.979,85.287 C488.86,83.092 487.075,81.307 484.88,80.188 C482.639,79.047 481.044,78.917 474.333,78.917 L455.667,78.917 C448.956,78.917 447.361,79.047 445.12,80.188 C442.925,81.307 441.14,83.092 440.022,85.287 C438.88,87.527 438.75,89.122 438.75,95.833 L438.75,126.167 C438.75,132.878 438.88,134.473 440.021,136.713 C441.14,138.908 442.925,140.693 445.12,141.812 C447.361,142.953 448.956,143.083 455.667,143.083 L466.458,143.083 C468.069,143.083 469.375,141.777 469.375,140.167 C469.375,138.556 468.069,137.25 466.458,137.25 L455.667,137.25 C450.128,137.25 448.804,137.142 447.768,136.614 C446.671,136.055 445.778,135.163 445.219,134.065 C444.691,133.029 444.583,131.706 444.583,126.167 L444.583,95.833 C444.583,90.294 444.691,88.971 445.219,87.935 C445.778,86.837 446.671,85.945 447.768,85.386 C448.804,84.858 450.128,84.75 455.667,84.75 L474.333,84.75 C479.872,84.75 481.196,84.858 482.232,85.386 C483.329,85.945 484.222,86.837 484.781,87.935 C485.309,88.971 485.417,90.294 485.417,95.833 L485.417,105.167 C485.417,106.777 486.723,108.083 488.333,108.083 C489.944,108.083 491.25,106.777 491.25,105.167 Z M483.755,139.883 C485.05,139.266 486.886,138.172 488.743,136.622 C492.076,133.842 494.167,130.604 494.167,126.823 L494.167,119.525 C494.167,118.293 493.392,117.194 492.232,116.779 L485.85,114.498 C483.683,113.722 481.311,113.722 479.142,114.499 L472.768,116.779 C471.608,117.194 470.833,118.293 470.833,119.525 L470.833,126.823 C470.833,130.604 472.924,133.842 476.257,136.622 C478.114,138.172 479.95,139.266 481.245,139.883 C482.039,140.261 482.961,140.261 483.755,139.883 Z M481.245,134.617 L483.755,134.617 C483.559,134.524 483.159,134.312 482.626,133.995 C481.724,133.458 480.823,132.835 479.993,132.143 C477.857,130.361 476.667,128.517 476.667,126.823 L476.667,119.525 L474.732,122.272 L481.108,119.991 C482.007,119.669 482.987,119.669 483.884,119.99 L490.268,122.272 L488.333,119.525 L488.333,126.823 C488.333,128.517 487.143,130.361 485.007,132.143 C484.177,132.835 483.276,133.458 482.374,133.995 C481.841,134.312 481.441,134.524 481.245,134.617 Z" />
        </g>
        <g id="Black-M" transform="translate(0,200)">
            <path d="M691.25,105.167 L691.25,95.833 C691.25,89.122 691.12,87.527 689.979,85.287 C688.86,83.092 687.075,81.307 684.88,80.188 C682.639,79.047 681.044,78.917 674.333,78.917 L655.667,78.917 C648.956,78.917 647.361,79.047 645.12,80.188 C642.925,81.307 641.14,83.092 640.022,85.287 C638.88,87.527 638.75,89.122 638.75,95.833 L638.75,126.167 C638.75,132.878 638.88,134.473 640.021,136.713 C641.14,138.908 642.925,140.693 645.12,141.812 C647.361,142.953 648.956,143.083 655.667,143.083 L666.458,143.083 C668.069,143.083 669.375,141.777 669.375,140.167 C669.375,138.556 668.069,137.25 666.458,137.25 L655.667,137.25 C650.128,137.25 648.804,137.142 647.768,136.614 C646.671,136.055 645.778,135.163 645.219,134.065 C644.691,133.029 644.583,131.706 644.583,126.167 L644.583,95.833 C644.583,90.294 644.691,88.971 645.219,87.935 C645.778,86.837 646.671,85.945 647.768,85.386 C648.804,84.858 650.128,84.75 655.667,84.75 L674.333,84.75 C679.872,84.75 681.196,84.858 682.232,85.386 C683.329,85.945 684.222,86.837 684.781,87.935 C685.309,88.971 685.417,90.294 685.417,95.833 L685.417,105.167 C685.417,106.777 686.723,108.083 688.333,108.083 C689.944,108.083 691.25,106.777 691.25,105.167 Z M683.755,139.883 C685.05,139.266 686.886,138.172 688.743,136.622 C692.076,133.842 694.167,130.604 694.167,126.823 L694.167,119.525 C694.167,118.293 693.392,117.194 692.232,116.779 L685.85,114.498 C683.683,113.722 681.311,113.722 679.142,114.499 L672.768,116.779 C671.608,117.194 670.833,118.293 670.833,119.525 L670.833,126.823 C670.833,130.604 672.924,133.842 676.257,136.622 C678.114,138.172 679.95,139.266 681.245,139.883 C682.039,140.261 682.961,140.261 683.755,139.883 Z M681.245,134.617 L683.755,134.617 C683.559,134.524 683.159,134.312 682.626,133.995 C681.724,133.458 680.823,132.835 679.993,132.143 C677.857,130.361 676.667,128.517 676.667,126.823 L676.667,119.525 L674.732,122.272 L681.108,119.991 C682.007,119.669 682.987,119.669 683.884,119.99 L690.268,122.272 L688.333,119.525 L688.333,126.823 C688.333,128.517 687.143,130.361 685.007,132.143 C684.177,132.835 683.276,133.458 682.374,133.995 C681.841,134.312 681.441,134.524 681.245,134.617 Z" />
        </g>
    </g>
</svg>