<?xml version="1.0" encoding="UTF-8"?>
<svg height="600" width="800" xmlns="http://www.w3.org/2000/svg" xmlns:xlink="http://www.w3.org/1999/xlink">
    <g id="Notes" font-family="LucidaGrande, 'Lucida Grande', sans-serif" font-size="13">
        <rect fill="white" height="600.0" width="800.0" x="0.0" y="0.0" />
        <g font-size="13">
            <text x="18.0" y="176.0">Small</text>
            <text x="18.0" y="376.0">Medium</text>
            <text x="18.0" y="576.0">Large</text>
        </g>
        <g font-size="9">
            <text x="250.0" y="30.0">Ultralight</text>
            <text x="450.0" y="30.0">Regular</text>
            <text x="650.0" y="30.0">Black</text>
            <text id="template-version" fill="#505050" text-anchor="end" x="785.0" y="575.0">Template v.3.0</text>
            <a href="https://github.com/swhitty/SwiftDraw">
                <text fill="#505050" text-anchor="end" x="785.0" y="590.0">https://github.com/swhitty/SwiftDraw</text>
            </a>
        </g>
    </g>
    <g id="Guides" stroke="rgb(39, 170, 225)" stroke-width="0.5">
        <path id="Capline-S" d="M18,76 l800,0" />
        <path id="H-reference" d="M85,145.755 L87.685,145.755 L113.369,79.287 L114.052,79.287 L114.052,76 L112.148,76 L85,145.755 Z M95.693,121.536 L130.996,121.536 L130.263,119.313 L96.474,119.313 L95.693,121.536 Z M139.15,145.755 L141.787,145.755 L114.638,76 L113.466,76 L113.466,79.287 L139.15,145.755 Z" stroke="none" transform="translate(0,200)" />
        <path id="Baseline-S" d="M18,146 l800,0" />
        <path id="left-margin-Ultralight-M" d="M230,256 l0,110" />
        <path id="right-margin-Ultralight-M" d="M300,256 l0,110" />
        <path id="left-margin-Regular-M" d="M430,256 l0,110" />
        <path id="right-margin-Regular-M" d="M500,256 l0,110" />
        <path id="left-margin-Black-M" d="M630,256 l0,110" />
        <path id="right-margin-Black-M" d="M700,256 l0,110" />
        <path id="Capline-M" d="M18,276 l800,0" />
        <path id="Baseline-M" d="M18,346 l800,0" />
        <path id="Capline-L" d="M18,476 l800,0" />
        <path id="Baseline-L" d="M18,546 l800,0" />
    </g>
    <g id="Symbols">
        <g id="Ultralight-M" transform="translate(0,200)">
            <path d="M292.044,104.636 L292.044,94.455 C292.044,87.133 291.902,85.394 290.657,82.95 C289.437,80.554 287.49,78.607 285.095,77.387 C282.651,76.142 280.911,76 273.59,76 L253.226,76 C245.905,76 244.165,76.142 241.721,77.387 C239.326,78.607 237.379,80.554 236.159,82.949 C234.914,85.394 234.772,87.133 234.772,94.455 L234.772,127.545 C234.772,134.867 234.914,136.606 236.159,139.05 C237.379,141.446 239.326,143.393 241.721,144.613 C244.165,145.858 245.905,146 253.226,146 L263.408,146 C265.165,146 266.59,144.575 266.59,142.818 C266.59,141.061 265.165,139.636 263.408,139.636 L253.226,139.636 C247.184,139.636 245.74,139.518 244.609,138.943 C243.412,138.333 242.439,137.359 241.829,136.162 C241.253,135.032 241.135,133.588 241.135,127.545 L241.135,94.455 C241.135,88.412 241.253,86.968 241.829,85.838 C242.439,84.641 243.412,83.667 244.61,83.057 C245.74,82.482 247.184,82.364 253.226,82.364 L273.59,82.364 C279.632,82.364 281.076,82.482 282.207,83.058 C283.403,83.667 284.377,84.641 284.987,85.838 C285.563,86.968 285.681,88.412 285.681,94.455 L285.681,104.636 C285.681,106.394 287.105,107.818 288.862,107.818 C290.62,107.818 292.044,106.394 292.044,104.636 Z M264.999,104.636 L250.681,104.636 C248.923,104.636 247.499,106.061 247.499,107.818 C247.499,109.575 248.923,111 250.681,111 L264.999,111 C266.756,111 268.181,109.575 268.181,107.818 C268.181,106.061 266.756,104.636 264.999,104.636 Z M253.862,117.364 L250.681,117.364 C248.923,117.364 247.499,118.788 247.499,120.545 C247.499,122.303 248.923,123.727 250.681,123.727 L253.862,123.727 C255.62,123.727 257.044,122.303 257.044,120.545 C257.044,118.788 255.62,117.364 253.862,117.364 Z M276.135,91.909 L250.681,91.909 C248.923,91.909 247.499,93.334 247.499,95.091 C247.499,96.848 248.923,98.273 250.681,98.273 L276.135,98.273 C277.892,98.273 279.317,96.848 279.317,95.091 C279.317,93.334 277.892,91.909 276.135,91.909 Z M281.695,117.901 C277.933,113.632 271.739,112.848 267.298,116.54 C262.8,120.275 262.109,126.668 265.714,131.18 C266.669,132.374 268.291,134.01 270.478,136.046 C270.734,136.284 270.996,136.526 271.264,136.772 C272.575,137.975 273.975,139.223 275.374,140.444 C276.214,141.177 276.869,141.74 277.247,142.061 C278.435,143.07 280.179,143.071 281.368,142.061 C281.746,141.74 282.401,141.177 283.241,140.444 C284.641,139.223 286.041,137.976 287.352,136.773 C287.621,136.527 287.883,136.284 288.139,136.046 C290.326,134.01 291.949,132.374 292.903,131.181 C294.648,129.054 295.473,126.273 295.165,123.499 C294.858,120.725 293.444,118.193 291.244,116.475 C286.788,112.879 280.667,113.647 276.919,117.906 L279.307,120.008 L282.489,120.008 L282.489,120.005 C282.489,119.23 282.207,118.482 281.695,117.901 Z M276.92,122.108 L279.307,120.005 L276.126,120.005 L276.126,120.008 C276.126,122.941 279.758,124.312 281.696,122.11 C283.262,120.33 285.535,120.045 287.288,121.459 C288.176,122.154 288.722,123.131 288.84,124.201 C288.959,125.271 288.641,126.343 287.958,127.176 C287.232,128.084 285.771,129.556 283.803,131.388 C283.558,131.616 283.307,131.848 283.049,132.085 C281.782,133.248 280.42,134.46 279.058,135.649 C278.24,136.362 277.606,136.907 277.247,137.211 L281.368,137.212 C281.01,136.907 280.376,136.362 279.558,135.649 C278.196,134.46 276.834,133.247 275.567,132.084 C275.31,131.848 275.059,131.616 274.815,131.389 C272.847,129.556 271.386,128.084 270.685,127.206 C269.256,125.418 269.521,122.966 271.365,121.434 C273.049,120.035 275.35,120.326 276.92,122.108 Z" />
        </g>
        <g id="Regular-M" transform="translate(0,200)">
            <path d="M492.044,104.636 L492.044,94.455 C492.044,87.133 491.902,85.394 490.657,82.95 C489.437,80.554 487.49,78.607 485.095,77.387 C482.651,76.142 480.911,76 473.59,76 L453.226,76 C445.905,76 444.165,76.142 441.721,77.387 C439.326,78.607 437.379,80.554 436.159,82.949 C434.914,85.394 434.772,87.133 434.772,94.455 L434.772,127.545 C434.772,134.867 434.914,136.606 436.159,139.05 C437.379,141.446 439.326,143.393 441.721,144.613 C444.165,145.858 445.905,146 453.226,146 L463.408,146 C465.165,146 466.59,144.575 466.59,142.818 C466.59,141.061 465.165,139.636 463.408,139.636 L453.226,139.636 C447.184,139.636 445.74,139.518 444.609,138.943 C443.412,138.333 442.439,137.359 441.829,136.162 C441.253,135.032 441.135,133.588 441.135,127.545 L441.135,94.455 C441.135,88.412 441.253,86.968 441.829,85.838 C442.439,84.641 443.412,83.667 444.61,83.057 C445.74,82.482 447.184,82.364 453.226,82.364 L473.59,82.364 C479.632,82.364 481.076,82.482 482.207,83.058 C483.403,83.667 484.377,84.641 484.987,85.838 C485.563,86.968 485.681,88.412 485.681,94.455 L485.681,104.636 C485.681,106.394 487.105,107.818 488.862,107.818 C490.62,107.818 492.044,106.394 492.044,104.636 Z M464.999,104.636 L450.681,104.636 C448.923,104.636 447.499,106.061 447.499,107.818 C447.499,109.575 448.923,111 450.681,111 L464.999,111 C466.756,111 468.181,109.575 468.181,107.818 C468.181,106.061 466.756,104.636 464.999,104.636 Z M453.862,117.364 L450.681,117.364 C448.923,117.364 447.499,118.788 447.499,120.545 C447.499,122.303 448.923,123.727 450.681,123.727 L453.862,123.727 C455.62,123.727 457.044,122.303 457.044,120.545 C457.044,118.788 455.62,117.364 453.862,117.364 Z M476.135,91.909 L450.681,91.909 C448.923,91.909 447.499,93.334 447.499,95.091 C447.499,96.848 448.923,98.273 450.681,98.273 L476.135,98.273 C477.892,98.273 479.317,96.848 479.317,95.091 C479.317,93.334 477.892,91.909 476.135,91.909 Z M481.695,117.901 C477.933,113.632 471.739,112.848 467.298,116.54 C462.8,120.275 462.109,126.668 465.714,131.18 C466.669,132.374 468.291,134.01 470.478,136.046 C470.734,136.284 470.996,136.526 471.264,136.772 C472.575,137.975 473.975,139.223 475.374,140.444 C476.214,141.177 476.869,141.74 477.247,142.061 C478.435,143.07 480.179,143.071 481.368,142.061 C481.746,141.74 482.401,141.177 483.241,140.444 C484.641,139.223 486.041,137.976 487.352,136.773 C487.621,136.527 487.883,136.284 488.139,136.046 C490.326,134.01 491.949,132.374 492.903,131.181 C494.648,129.054 495.473,126.273 495.165,123.499 C494.858,120.725 493.444,118.193 491.244,116.475 C486.788,112.879 480.667,113.647 476.919,117.906 L479.307,120.008 L482.489,120.008 L482.489,120.005 C482.489,119.23 482.207,118.482 481.695,117.901 Z M476.92,122.108 L479.307,120.005 L476.126,120.005 L476.126,120.008 C476.126,122.941 479.758,124.312 481.696,122.11 C483.262,120.33 485.535,120.045 487.288,121.459 C488.176,122.154 488.722,123.131 488.84,124.201 C488.959,125.271 488.641,126.343 487.958,127.176 C487.232,128.084 485.771,129.556 483.803,131.388 C483.558,131.616 483.307,131.848 483.049,132.085 C481.782,133.248 480.42,134.46 479.058,135.649 C478.24,136.362 477.606,136.907 477.247,137.211 L481.368,137.212 C481.01,136.907 480.376,136.362 479.558,135.649 C478.196,134.46 476.834,133.247 475.567,132.084 C475.31,131.848 475.059,131.616 474.815,131.389 C472.847,129.556 471.386,128.084 470.685,127.206 C469.256,125.418 469.521,122.966 471.365,121.434 C473.049,120.035 475.35,120.326 476.92,122.108 Z" />
        </g>
        <g id="Black-M" transform="translate(0,200)">
            <path d="M692.044,104.636 L692.044,94.455 C692.044,87.133 691.902,85.394 690.657,82.95 C689.437,80.554 687.49,78.607 685.095,77.387 C682.651,76.142 680.911,76 673.59,76 L653.226,76 C645.905,76 644.165,76.142 641.721,77.387 C639.326,78.607 637.379,80.554 636.159,82.949 C634.914,85.394 634.772,87.133 634.772,94.455 L634.772,127.545 C634.772,134.867 634.914,136.606 636.159,139.05 C637.379,141.446 639.326,143.393 641.721,144.613 C644.165,145.858 645.905,146 653.226,146 L663.408,146 C665.165,146 666.59,144.575 666.59,142.818 C666.59,141.061 665.165,139.636 663.408,139.636 L653.226,139.636 C647.184,139.636 645.74,139.518 644.609,138.943 C643.412,138.333 642.439,137.359 641.829,136.162 C641.253,135.032 641.135,133.588 641.135,127.545 L641.135,94.455 C641.135,88.412 641.253,86.968 641.829,85.838 C642.439,84.641 643.412,83.667 644.61,83.057 C645.74,82.482 647.184,82.364 653.226,82.364 L673.59,82.364 C679.632,82.364 681.076,82.482 682.207,83.058 C683.403,83.667 684.377,84.641 684.987,85.838 C685.563,86.968 685.681,88.412 685.681,94.455 L685.681,104.636 C685.681,106.394 687.105,107.818 688.862,107.818 C690.62,107.818 692.044,106.394 692.044,104.636 Z M664.999,104.636 L650.681,104.636 C648.923,104.636 647.499,106.061 647.499,107.818 C647.499,109.575 648.923,111 650.681,111 L664.999,111 C666.756,111 668.181,109.575 668.181,107.818 C668.181,106.061 666.756,104.636 664.999,104.636 Z M653.862,117.364 L650.681,117.364 C648.923,117.364 647.499,118.788 647.499,120.545 C647.499,122.303 648.923,123.727 650.681,123.727 L653.862,123.727 C655.62,123.727 657.044,122.303 657.044,120.545 C657.044,118.788 655.62,117.364 653.862,117.364 Z M676.135,91.909 L650.681,91.909 C648.923,91.909 647.499,93.334 647.499,95.091 C647.499,96.848 648.923,98.273 650.681,98.273 L676.135,98.273 C677.892,98.273 679.317,96.848 679.317,95.091 C679.317,93.334 677.892,91.909 676.135,91.909 Z M681.695,117.901 C677.933,113.632 671.739,112.848 667.298,116.54 C662.8,120.275 662.109,126.668 665.714,131.18 C666.669,132.374 668.291,134.01 670.478,136.046 C670.734,136.284 670.996,136.526 671.264,136.772 C672.575,137.975 673.975,139.223 675.374,140.444 C676.214,141.177 676.869,141.74 677.247,142.061 C678.435,143.07 680.179,143.071 681.368,142.061 C681.746,141.74 682.401,141.177 683.241,140.444 C684.641,139.223 686.041,137.976 687.352,136.773 C687.621,136.527 687.883,136.284 688.139,136.046 C690.326,134.01 691.949,132.374 692.903,131.181 C694.648,129.054 695.473,126.273 695.165,123.499 C694.857,120.725 693.444,118.193 691.244,116.475 C686.788,112.879 680.667,113.647 676.919,117.906 L679.307,120.008 L682.489,120.008 L682.489,120.005 C682.489,119.23 682.207,118.482 681.695,117.901 Z M676.92,122.108 L679.307,120.005 L676.126,120.005 L676.126,120.008 C676.126,122.941 679.758,124.312 681.696,122.11 C683.262,120.33 685.535,120.045 687.288,121.459 C688.176,122.154 688.722,123.131 688.84,124.201 C688.959,125.271 688.641,126.343 687.958,127.176 C687.232,128.084 685.771,129.556 683.803,131.388 C683.558,131.616 683.307,131.848 683.049,132.085 C681.782,133.248 680.42,134.46 679.058,135.649 C678.24,136.362 677.606,136.907 677.247,137.211 L681.368,137.212 C681.01,136.907 680.376,136.362 679.558,135.649 C678.196,134.46 676.834,133.247 675.567,132.084 C675.31,131.848 675.059,131.616 674.815,131.389 C672.847,129.556 671.386,128.084 670.685,127.206 C669.256,125.418 669.521,122.966 671.365,121.434 C673.049,120.035 675.35,120.326 676.92,122.108 Z" />
        </g>
    </g>
</svg>