<?xml version="1.0" encoding="UTF-8"?>
<svg height="600" width="800" xmlns="http://www.w3.org/2000/svg" xmlns:xlink="http://www.w3.org/1999/xlink">
    <g id="Notes" font-family="LucidaGrande, 'Lucida Grande', sans-serif" font-size="13">
        <rect fill="white" height="600.0" width="800.0" x="0.0" y="0.0" />
        <g font-size="13">
            <text x="18.0" y="176.0">Small</text>
            <text x="18.0" y="376.0">Medium</text>
            <text x="18.0" y="576.0">Large</text>
        </g>
        <g font-size="9">
            <text x="250.0" y="30.0">Ultralight</text>
            <text x="450.0" y="30.0">Regular</text>
            <text x="650.0" y="30.0">Black</text>
            <text id="template-version" fill="#505050" text-anchor="end" x="785.0" y="575.0">Template v.3.0</text>
            <a href="https://github.com/swhitty/SwiftDraw">
                <text fill="#505050" text-anchor="end" x="785.0" y="590.0">https://github.com/swhitty/SwiftDraw</text>
            </a>
        </g>
    </g>
    <g id="Guides" stroke="rgb(39, 170, 225)" stroke-width="0.5">
        <path id="Capline-S" d="M18,76 l800,0" />
        <path id="H-reference" d="M85,145.755 L87.685,145.755 L113.369,79.287 L114.052,79.287 L114.052,76 L112.148,76 L85,145.755 Z M95.693,121.536 L130.996,121.536 L130.263,119.313 L96.474,119.313 L95.693,121.536 Z M139.15,145.755 L141.787,145.755 L114.638,76 L113.466,76 L113.466,79.287 L139.15,145.755 Z" stroke="none" transform="translate(0,200)" />
        <path id="Baseline-S" d="M18,146 l800,0" />
        <path id="left-margin-Ultralight-M" d="M230,256 l0,110" />
        <path id="right-margin-Ultralight-M" d="M300,256 l0,110" />
        <path id="left-margin-Regular-M" d="M430,256 l0,110" />
        <path id="right-margin-Regular-M" d="M500,256 l0,110" />
        <path id="left-margin-Black-M" d="M630,256 l0,110" />
        <path id="right-margin-Black-M" d="M700,256 l0,110" />
        <path id="Capline-M" d="M18,276 l800,0" />
        <path id="Baseline-M" d="M18,346 l800,0" />
        <path id="Capline-L" d="M18,476 l800,0" />
        <path id="Baseline-L" d="M18,546 l800,0" />
    </g>
    <g id="Symbols">
        <g id="Ultralight-M" transform="translate(0,200)">
            <path d="M291.25,105.167 L291.25,95.833 C291.25,89.122 291.12,87.527 289.979,85.287 C288.86,83.092 287.075,81.307 284.88,80.188 C282.639,79.047 281.044,78.917 274.333,78.917 L255.667,78.917 C248.956,78.917 247.361,79.047 245.12,80.188 C242.925,81.307 241.14,83.092 240.022,85.287 C238.88,87.527 238.75,89.122 238.75,95.833 L238.75,126.167 C238.75,132.878 238.88,134.473 240.021,136.713 C241.14,138.908 242.925,140.693 245.12,141.812 C247.361,142.953 248.956,143.083 255.667,143.083 L260.625,143.083 C262.236,143.083 263.542,141.777 263.542,140.167 C263.542,138.556 262.236,137.25 260.625,137.25 L255.667,137.25 C250.128,137.25 248.804,137.142 247.768,136.614 C246.671,136.055 245.778,135.163 245.219,134.065 C244.691,133.029 244.583,131.706 244.583,126.167 L244.583,95.833 C244.583,90.294 244.691,88.971 245.219,87.935 C245.778,86.837 246.671,85.945 247.768,85.386 C248.804,84.858 250.128,84.75 255.667,84.75 L274.333,84.75 C279.872,84.75 281.196,84.858 282.232,85.386 C283.329,85.945 284.222,86.837 284.781,87.935 C285.309,88.971 285.417,90.294 285.417,95.833 L285.417,105.167 C285.417,106.777 286.723,108.083 288.333,108.083 C289.944,108.083 291.25,106.777 291.25,105.167 Z M289.062,125.583 L289.062,120.479 C289.062,116.049 285.471,112.458 281.042,112.458 C276.612,112.458 273.021,116.049 273.021,120.479 L273.021,125.583 C273.021,127.194 274.327,128.5 275.938,128.5 C277.548,128.5 278.854,127.194 278.854,125.583 L278.854,120.479 C278.854,119.271 279.834,118.292 281.042,118.292 C282.25,118.292 283.229,119.271 283.229,120.479 L283.229,125.583 C283.229,127.194 284.535,128.5 286.146,128.5 C287.757,128.5 289.062,127.194 289.062,125.583 Z M275.5,140.167 L286.583,140.167 C289.211,140.167 289.833,140.116 290.981,139.531 C292.079,138.972 292.972,138.079 293.531,136.982 C294.116,135.833 294.167,135.211 294.167,132.583 L294.167,130.25 C294.167,127.622 294.116,127 293.531,125.852 C292.972,124.754 292.079,123.862 290.982,123.302 C289.833,122.717 289.211,122.667 286.583,122.667 L275.5,122.667 C272.872,122.667 272.25,122.717 271.102,123.302 C270.004,123.862 269.112,124.754 268.552,125.852 C267.967,127 267.917,127.622 267.917,130.25 L267.917,132.583 C267.917,135.211 267.967,135.833 268.552,136.981 C269.112,138.079 270.004,138.972 271.102,139.531 C272.25,140.116 272.872,140.167 275.5,140.167 Z M275.5,134.333 C274.044,134.333 273.694,134.305 273.75,134.333 C273.75,134.333 273.75,134.333 273.75,134.333 C273.779,134.39 273.75,134.039 273.75,132.583 L273.75,130.25 C273.75,128.794 273.779,128.444 273.75,128.5 C273.75,128.5 273.75,128.5 273.75,128.5 C273.694,128.529 274.044,128.5 275.5,128.5 L286.583,128.5 C288.039,128.5 288.39,128.529 288.334,128.5 C288.333,128.5 288.333,128.5 288.333,128.5 C288.305,128.444 288.333,128.794 288.333,130.25 L288.333,132.583 C288.333,134.039 288.305,134.39 288.333,134.334 C288.333,134.333 288.333,134.333 288.333,134.333 C288.39,134.305 288.039,134.333 286.583,134.333 L275.5,134.333 Z" />
        </g>
        <g id="Regular-M" transform="translate(0,200)">
            <path d="M491.25,105.167 L491.25,95.833 C491.25,89.122 491.12,87.527 489.979,85.287 C488.86,83.092 487.075,81.307 484.88,80.188 C482.639,79.047 481.044,78.917 474.333,78.917 L455.667,78.917 C448.956,78.917 447.361,79.047 445.12,80.188 C442.925,81.307 441.14,83.092 440.022,85.287 C438.88,87.527 438.75,89.122 438.75,95.833 L438.75,126.167 C438.75,132.878 438.88,134.473 440.021,136.713 C441.14,138.908 442.925,140.693 445.12,141.812 C447.361,142.953 448.956,143.083 455.667,143.083 L460.625,143.083 C462.236,143.083 463.542,141.777 463.542,140.167 C463.542,138.556 462.236,137.25 460.625,137.25 L455.667,137.25 C450.128,137.25 448.804,137.142 447.768,136.614 C446.671,136.055 445.778,135.163 445.219,134.065 C444.691,133.029 444.583,131.706 444.583,126.167 L444.583,95.833 C444.583,90.294 444.691,88.971 445.219,87.935 C445.778,86.837 446.671,85.945 447.768,85.386 C448.804,84.858 450.128,84.75 455.667,84.75 L474.333,84.75 C479.872,84.75 481.196,84.858 482.232,85.386 C483.329,85.945 484.222,86.837 484.781,87.935 C485.309,88.971 485.417,90.294 485.417,95.833 L485.417,105.167 C485.417,106.777 486.723,108.083 488.333,108.083 C489.944,108.083 491.25,106.777 491.25,105.167 Z M489.062,125.583 L489.062,120.479 C489.062,116.049 485.471,112.458 481.042,112.458 C476.612,112.458 473.021,116.049 473.021,120.479 L473.021,125.583 C473.021,127.194 474.327,128.5 475.938,128.5 C477.548,128.5 478.854,127.194 478.854,125.583 L478.854,120.479 C478.854,119.271 479.834,118.292 481.042,118.292 C482.25,118.292 483.229,119.271 483.229,120.479 L483.229,125.583 C483.229,127.194 484.535,128.5 486.146,128.5 C487.757,128.5 489.062,127.194 489.062,125.583 Z M475.5,140.167 L486.583,140.167 C489.211,140.167 489.833,140.116 490.981,139.531 C492.079,138.972 492.972,138.079 493.531,136.982 C494.116,135.833 494.167,135.211 494.167,132.583 L494.167,130.25 C494.167,127.622 494.116,127 493.531,125.852 C492.972,124.754 492.079,123.862 490.982,123.302 C489.833,122.717 489.211,122.667 486.583,122.667 L475.5,122.667 C472.872,122.667 472.25,122.717 471.102,123.302 C470.004,123.862 469.112,124.754 468.552,125.852 C467.967,127 467.917,127.622 467.917,130.25 L467.917,132.583 C467.917,135.211 467.967,135.833 468.552,136.981 C469.112,138.079 470.004,138.972 471.102,139.531 C472.25,140.116 472.872,140.167 475.5,140.167 Z M475.5,134.333 C474.044,134.333 473.694,134.305 473.75,134.333 C473.75,134.333 473.75,134.333 473.75,134.333 C473.779,134.39 473.75,134.039 473.75,132.583 L473.75,130.25 C473.75,128.794 473.779,128.444 473.75,128.5 C473.75,128.5 473.75,128.5 473.75,128.5 C473.694,128.529 474.044,128.5 475.5,128.5 L486.583,128.5 C488.039,128.5 488.39,128.529 488.334,128.5 C488.333,128.5 488.333,128.5 488.333,128.5 C488.305,128.444 488.333,128.794 488.333,130.25 L488.333,132.583 C488.333,134.039 488.305,134.39 488.333,134.334 C488.333,134.333 488.333,134.333 488.333,134.333 C488.39,134.305 488.039,134.333 486.583,134.333 L475.5,134.333 Z" />
        </g>
        <g id="Black-M" transform="translate(0,200)">
            <path d="M691.25,105.167 L691.25,95.833 C691.25,89.122 691.12,87.527 689.979,85.287 C688.86,83.092 687.075,81.307 684.88,80.188 C682.639,79.047 681.044,78.917 674.333,78.917 L655.667,78.917 C648.956,78.917 647.361,79.047 645.12,80.188 C642.925,81.307 641.14,83.092 640.022,85.287 C638.88,87.527 638.75,89.122 638.75,95.833 L638.75,126.167 C638.75,132.878 638.88,134.473 640.021,136.713 C641.14,138.908 642.925,140.693 645.12,141.812 C647.361,142.953 648.956,143.083 655.667,143.083 L660.625,143.083 C662.236,143.083 663.542,141.777 663.542,140.167 C663.542,138.556 662.236,137.25 660.625,137.25 L655.667,137.25 C650.128,137.25 648.804,137.142 647.768,136.614 C646.671,136.055 645.778,135.163 645.219,134.065 C644.691,133.029 644.583,131.706 644.583,126.167 L644.583,95.833 C644.583,90.294 644.691,88.971 645.219,87.935 C645.778,86.837 646.671,85.945 647.768,85.386 C648.804,84.858 650.128,84.75 655.667,84.75 L674.333,84.75 C679.872,84.75 681.196,84.858 682.232,85.386 C683.329,85.945 684.222,86.837 684.781,87.935 C685.309,88.971 685.417,90.294 685.417,95.833 L685.417,105.167 C685.417,106.777 686.723,108.083 688.333,108.083 C689.944,108.083 691.25,106.777 691.25,105.167 Z M689.062,125.583 L689.062,120.479 C689.062,116.049 685.471,112.458 681.042,112.458 C676.612,112.458 673.021,116.049 673.021,120.479 L673.021,125.583 C673.021,127.194 674.327,128.5 675.938,128.5 C677.548,128.5 678.854,127.194 678.854,125.583 L678.854,120.479 C678.854,119.271 679.834,118.292 681.042,118.292 C682.25,118.292 683.229,119.271 683.229,120.479 L683.229,125.583 C683.229,127.194 684.535,128.5 686.146,128.5 C687.757,128.5 689.062,127.194 689.062,125.583 Z M675.5,140.167 L686.583,140.167 C689.211,140.167 689.833,140.116 690.981,139.531 C692.079,138.972 692.972,138.079 693.531,136.982 C694.116,135.833 694.167,135.211 694.167,132.583 L694.167,130.25 C694.167,127.622 694.116,127 693.531,125.852 C692.972,124.754 692.079,123.862 690.982,123.302 C689.833,122.717 689.211,122.667 686.583,122.667 L675.5,122.667 C672.872,122.667 672.25,122.717 671.102,123.302 C670.004,123.862 669.112,124.754 668.552,125.852 C667.968,127 667.917,127.622 667.917,130.25 L667.917,132.583 C667.917,135.211 667.968,135.833 668.552,136.981 C669.112,138.079 670.004,138.972 671.102,139.531 C672.25,140.116 672.872,140.167 675.5,140.167 Z M675.5,134.333 C674.044,134.333 673.694,134.305 673.75,134.333 C673.75,134.333 673.75,134.333 673.75,134.333 C673.779,134.39 673.75,134.039 673.75,132.583 L673.75,130.25 C673.75,128.794 673.779,128.444 673.75,128.5 C673.75,128.5 673.75,128.5 673.75,128.5 C673.694,128.529 674.044,128.5 675.5,128.5 L686.583,128.5 C688.039,128.5 688.39,128.529 688.334,128.5 C688.333,128.5 688.333,128.5 688.333,128.5 C688.305,128.444 688.333,128.794 688.333,130.25 L688.333,132.583 C688.333,134.039 688.305,134.39 688.333,134.334 C688.333,134.333 688.333,134.333 688.333,134.333 C688.39,134.305 688.039,134.333 686.583,134.333 L675.5,134.333 Z" />
        </g>
    </g>
</svg>