<?xml version="1.0" encoding="UTF-8"?>
<svg height="600" width="800" xmlns="http://www.w3.org/2000/svg" xmlns:xlink="http://www.w3.org/1999/xlink">
    <g id="Notes" font-family="LucidaGrande, 'Lucida Grande', sans-serif" font-size="13">
        <rect fill="white" height="600.0" width="800.0" x="0.0" y="0.0" />
        <g font-size="13">
            <text x="18.0" y="176.0">Small</text>
            <text x="18.0" y="376.0">Medium</text>
            <text x="18.0" y="576.0">Large</text>
        </g>
        <g font-size="9">
            <text x="250.0" y="30.0">Ultralight</text>
            <text x="450.0" y="30.0">Regular</text>
            <text x="650.0" y="30.0">Black</text>
            <text id="template-version" fill="#505050" text-anchor="end" x="785.0" y="575.0">Template v.3.0</text>
            <a href="https://github.com/swhitty/SwiftDraw">
                <text fill="#505050" text-anchor="end" x="785.0" y="590.0">https://github.com/swhitty/SwiftDraw</text>
            </a>
        </g>
    </g>
    <g id="Guides" stroke="rgb(39, 170, 225)" stroke-width="0.5">
        <path id="Capline-S" d="M18,76 l800,0" />
        <path id="H-reference" d="M85,145.755 L87.685,145.755 L113.369,79.287 L114.052,79.287 L114.052,76 L112.148,76 L85,145.755 Z M95.693,121.536 L130.996,121.536 L130.263,119.313 L96.474,119.313 L95.693,121.536 Z M139.15,145.755 L141.787,145.755 L114.638,76 L113.466,76 L113.466,79.287 L139.15,145.755 Z" stroke="none" transform="translate(0,200)" />
        <path id="Baseline-S" d="M18,146 l800,0" />
        <path id="left-margin-Ultralight-M" d="M230,256 l0,110" />
        <path id="right-margin-Ultralight-M" d="M300,256 l0,110" />
        <path id="left-margin-Regular-M" d="M430,256 l0,110" />
        <path id="right-margin-Regular-M" d="M500,256 l0,110" />
        <path id="left-margin-Black-M" d="M630,256 l0,110" />
        <path id="right-margin-Black-M" d="M700,256 l0,110" />
        <path id="Capline-M" d="M18,276 l800,0" />
        <path id="Baseline-M" d="M18,346 l800,0" />
        <path id="Capline-L" d="M18,476 l800,0" />
        <path id="Baseline-L" d="M18,546 l800,0" />
    </g>
    <g id="Symbols">
        <g id="Ultralight-M" transform="translate(0,200)">
            <path d="M291.25,112.458 L291.25,95.833 C291.25,89.122 291.12,87.527 289.979,85.287 C288.86,83.092 287.075,81.307 284.88,80.188 C282.639,79.047 281.044,78.917 274.333,78.917 L255.667,78.917 C248.956,78.917 247.361,79.047 245.12,80.188 C242.925,81.307 241.14,83.092 240.022,85.287 C238.88,87.527 238.75,89.122 238.75,95.833 L238.75,126.167 C238.75,132.878 238.88,134.473 240.021,136.713 C241.14,138.908 242.925,140.693 245.12,141.812 C247.361,142.953 248.956,143.083 255.667,143.083 L265,143.083 C266.611,143.083 267.917,141.777 267.917,140.167 C267.917,138.556 266.611,137.25 265,137.25 L255.667,137.25 C250.128,137.25 248.804,137.142 247.768,136.614 C246.671,136.055 245.778,135.163 245.219,134.065 C244.691,133.029 244.583,131.706 244.583,126.167 L244.583,95.833 C244.583,90.294 244.691,88.971 245.219,87.935 C245.778,86.837 246.671,85.945 247.768,85.386 C248.804,84.858 250.128,84.75 255.667,84.75 L274.333,84.75 C279.872,84.75 281.196,84.858 282.232,85.386 C283.329,85.945 284.222,86.837 284.781,87.935 C285.309,88.971 285.417,90.294 285.417,95.833 L285.417,112.458 C285.417,114.069 286.723,115.375 288.333,115.375 C289.944,115.375 291.25,114.069 291.25,112.458 Z M270.229,133.479 L276.063,139.312 C277.202,140.451 279.048,140.451 280.187,139.312 L293.312,126.187 C294.451,125.048 294.451,123.202 293.312,122.063 C292.173,120.924 290.327,120.924 289.188,122.063 L276.063,135.188 L280.187,135.188 L274.354,129.354 C273.215,128.215 271.368,128.215 270.229,129.354 C269.09,130.493 269.09,132.34 270.229,133.479 Z" />
        </g>
        <g id="Regular-M" transform="translate(0,200)">
            <path d="M491.25,112.458 L491.25,95.833 C491.25,89.122 491.12,87.527 489.979,85.287 C488.86,83.092 487.075,81.307 484.88,80.188 C482.639,79.047 481.044,78.917 474.333,78.917 L455.667,78.917 C448.956,78.917 447.361,79.047 445.12,80.188 C442.925,81.307 441.14,83.092 440.022,85.287 C438.88,87.527 438.75,89.122 438.75,95.833 L438.75,126.167 C438.75,132.878 438.88,134.473 440.021,136.713 C441.14,138.908 442.925,140.693 445.12,141.812 C447.361,142.953 448.956,143.083 455.667,143.083 L465,143.083 C466.611,143.083 467.917,141.777 467.917,140.167 C467.917,138.556 466.611,137.25 465,137.25 L455.667,137.25 C450.128,137.25 448.804,137.142 447.768,136.614 C446.671,136.055 445.778,135.163 445.219,134.065 C444.691,133.029 444.583,131.706 444.583,126.167 L444.583,95.833 C444.583,90.294 444.691,88.971 445.219,87.935 C445.778,86.837 446.671,85.945 447.768,85.386 C448.804,84.858 450.128,84.75 455.667,84.75 L474.333,84.75 C479.872,84.75 481.196,84.858 482.232,85.386 C483.329,85.945 484.222,86.837 484.781,87.935 C485.309,88.971 485.417,90.294 485.417,95.833 L485.417,112.458 C485.417,114.069 486.723,115.375 488.333,115.375 C489.944,115.375 491.25,114.069 491.25,112.458 Z M470.229,133.479 L476.063,139.312 C477.202,140.451 479.048,140.451 480.187,139.312 L493.312,126.187 C494.451,125.048 494.451,123.202 493.312,122.063 C492.173,120.924 490.327,120.924 489.188,122.063 L476.063,135.188 L480.187,135.188 L474.354,129.354 C473.215,128.215 471.368,128.215 470.229,129.354 C469.09,130.493 469.09,132.34 470.229,133.479 Z" />
        </g>
        <g id="Black-M" transform="translate(0,200)">
            <path d="M691.25,112.458 L691.25,95.833 C691.25,89.122 691.12,87.527 689.979,85.287 C688.86,83.092 687.075,81.307 684.88,80.188 C682.639,79.047 681.044,78.917 674.333,78.917 L655.667,78.917 C648.956,78.917 647.361,79.047 645.12,80.188 C642.925,81.307 641.14,83.092 640.022,85.287 C638.88,87.527 638.75,89.122 638.75,95.833 L638.75,126.167 C638.75,132.878 638.88,134.473 640.021,136.713 C641.14,138.908 642.925,140.693 645.12,141.812 C647.361,142.953 648.956,143.083 655.667,143.083 L665,143.083 C666.611,143.083 667.917,141.777 667.917,140.167 C667.917,138.556 666.611,137.25 665,137.25 L655.667,137.25 C650.128,137.25 648.804,137.142 647.768,136.614 C646.671,136.055 645.778,135.163 645.219,134.065 C644.691,133.029 644.583,131.706 644.583,126.167 L644.583,95.833 C644.583,90.294 644.691,88.971 645.219,87.935 C645.778,86.837 646.671,85.945 647.768,85.386 C648.804,84.858 650.128,84.75 655.667,84.75 L674.333,84.75 C679.872,84.75 681.196,84.858 682.232,85.386 C683.329,85.945 684.222,86.837 684.781,87.935 C685.309,88.971 685.417,90.294 685.417,95.833 L685.417,112.458 C685.417,114.069 686.723,115.375 688.333,115.375 C689.944,115.375 691.25,114.069 691.25,112.458 Z M670.229,133.479 L676.063,139.312 C677.202,140.451 679.048,140.451 680.187,139.312 L693.312,126.187 C694.451,125.048 694.451,123.202 693.312,122.063 C692.173,120.924 690.327,120.924 689.188,122.063 L676.063,135.188 L680.187,135.188 L674.354,129.354 C673.215,128.215 671.368,128.215 670.229,129.354 C669.09,130.493 669.09,132.34 670.229,133.479 Z" />
        </g>
    </g>
</svg>