<?xml version="1.0" encoding="UTF-8"?>
<svg height="600" width="800" xmlns="http://www.w3.org/2000/svg" xmlns:xlink="http://www.w3.org/1999/xlink">
    <g id="Notes" font-family="LucidaGrande, 'Lucida Grande', sans-serif" font-size="13">
        <rect fill="white" height="600.0" width="800.0" x="0.0" y="0.0" />
        <g font-size="13">
            <text x="18.0" y="176.0">Small</text>
            <text x="18.0" y="376.0">Medium</text>
            <text x="18.0" y="576.0">Large</text>
        </g>
        <g font-size="9">
            <text x="250.0" y="30.0">Ultralight</text>
            <text x="450.0" y="30.0">Regular</text>
            <text x="650.0" y="30.0">Black</text>
            <text id="template-version" fill="#505050" text-anchor="end" x="785.0" y="575.0">Template v.3.0</text>
            <a href="https://github.com/swhitty/SwiftDraw">
                <text fill="#505050" text-anchor="end" x="785.0" y="590.0">https://github.com/swhitty/SwiftDraw</text>
            </a>
        </g>
    </g>
    <g id="Guides" stroke="rgb(39, 170, 225)" stroke-width="0.5">
        <path id="Capline-S" d="M18,76 l800,0" />
        <path id="H-reference" d="M85,145.755 L87.685,145.755 L113.369,79.287 L114.052,79.287 L114.052,76 L112.148,76 L85,145.755 Z M95.693,121.536 L130.996,121.536 L130.263,119.313 L96.474,119.313 L95.693,121.536 Z M139.15,145.755 L141.787,145.755 L114.638,76 L113.466,76 L113.466,79.287 L139.15,145.755 Z" stroke="none" transform="translate(0,200)" />
        <path id="Baseline-S" d="M18,146 l800,0" />
        <path id="left-margin-Ultralight-M" d="M236.364,256 l0,110" />
        <path id="right-margin-Ultralight-M" d="M293.636,256 l0,110" />
        <path id="left-margin-Regular-M" d="M436.364,256 l0,110" />
        <path id="right-margin-Regular-M" d="M493.636,256 l0,110" />
        <path id="left-margin-Black-M" d="M636.364,256 l0,110" />
        <path id="right-margin-Black-M" d="M693.636,256 l0,110" />
        <path id="Capline-M" d="M18,276 l800,0" />
        <path id="Baseline-M" d="M18,346 l800,0" />
        <path id="Capline-L" d="M18,476 l800,0" />
        <path id="Baseline-L" d="M18,546 l800,0" />
    </g>
    <g id="Symbols">
        <g id="Ultralight-M" transform="translate(0,200)">
            <path d="M268.182,80.041 L268.182,93.182 C268.182,96.048 268.237,96.727 268.875,97.98 C269.486,99.177 270.459,100.151 271.656,100.761 C272.903,101.402 273.584,101.458 276.455,101.458 L289.595,101.458 C291.353,101.458 292.777,100.033 292.777,98.276 C292.777,96.519 291.353,95.094 289.595,95.094 L276.455,95.094 C274.871,95.094 274.491,95.063 274.556,95.096 C274.545,95.091 274.545,95.091 274.545,95.091 C274.577,95.152 274.545,94.77 274.545,93.182 L274.545,80.041 C274.545,78.284 273.121,76.859 271.364,76.859 C269.606,76.859 268.182,78.284 268.182,80.041 Z M253.205,125.977 L259.568,132.341 C260.811,133.583 262.826,133.583 264.068,132.341 L278.386,118.023 C279.629,116.78 279.629,114.765 278.386,113.523 C277.144,112.28 275.129,112.28 273.886,113.523 L259.568,127.841 L264.068,127.841 L257.704,121.477 C256.462,120.235 254.447,120.235 253.205,121.477 C251.962,122.72 251.962,124.735 253.205,125.977 Z M271.364,76 L254.818,76 C247.497,76 245.757,76.142 243.313,77.387 C240.918,78.607 238.971,80.554 237.751,82.949 C236.506,85.394 236.364,87.133 236.364,94.455 L236.364,127.545 C236.364,134.867 236.506,136.606 237.751,139.05 C238.971,141.446 240.918,143.393 243.313,144.613 C245.757,145.858 247.497,146 254.818,146 L275.182,146 C282.503,146 284.243,145.858 286.687,144.613 C289.082,143.393 291.029,141.446 292.249,139.051 C293.494,136.606 293.636,134.867 293.636,127.545 L293.636,98.273 C293.636,97.429 293.301,96.62 292.704,96.023 L273.614,76.932 C273.017,76.335 272.208,76 271.364,76 Z M271.364,82.364 L269.114,81.432 L288.205,100.523 L287.273,98.273 L287.273,127.545 C287.273,133.588 287.155,135.032 286.579,136.162 C285.969,137.359 284.996,138.333 283.798,138.943 C282.668,139.518 281.224,139.636 275.182,139.636 L254.818,139.636 C248.776,139.636 247.332,139.518 246.201,138.943 C245.004,138.333 244.031,137.359 243.421,136.162 C242.845,135.032 242.727,133.588 242.727,127.545 L242.727,94.455 C242.727,88.412 242.845,86.968 243.421,85.838 C244.031,84.641 245.004,83.667 246.202,83.057 C247.332,82.482 248.776,82.364 254.818,82.364 L271.364,82.364 Z" />
        </g>
        <g id="Regular-M" transform="translate(0,200)">
            <path d="M468.182,80.041 L468.182,93.182 C468.182,96.048 468.237,96.727 468.875,97.98 C469.486,99.177 470.459,100.151 471.656,100.761 C472.903,101.402 473.584,101.458 476.455,101.458 L489.595,101.458 C491.353,101.458 492.777,100.033 492.777,98.276 C492.777,96.519 491.353,95.094 489.595,95.094 L476.455,95.094 C474.871,95.094 474.491,95.063 474.556,95.096 C474.545,95.091 474.545,95.091 474.545,95.091 C474.577,95.152 474.545,94.77 474.545,93.182 L474.545,80.041 C474.545,78.284 473.121,76.859 471.364,76.859 C469.606,76.859 468.182,78.284 468.182,80.041 Z M453.205,125.977 L459.568,132.341 C460.811,133.583 462.826,133.583 464.068,132.341 L478.386,118.023 C479.629,116.78 479.629,114.765 478.386,113.523 C477.144,112.28 475.129,112.28 473.886,113.523 L459.568,127.841 L464.068,127.841 L457.704,121.477 C456.462,120.235 454.447,120.235 453.205,121.477 C451.962,122.72 451.962,124.735 453.205,125.977 Z M471.364,76 L454.818,76 C447.497,76 445.757,76.142 443.313,77.387 C440.918,78.607 438.971,80.554 437.751,82.949 C436.506,85.394 436.364,87.133 436.364,94.455 L436.364,127.545 C436.364,134.867 436.506,136.606 437.751,139.05 C438.971,141.446 440.918,143.393 443.313,144.613 C445.757,145.858 447.497,146 454.818,146 L475.182,146 C482.503,146 484.243,145.858 486.687,144.613 C489.082,143.393 491.029,141.446 492.249,139.051 C493.494,136.606 493.636,134.867 493.636,127.545 L493.636,98.273 C493.636,97.429 493.301,96.62 492.704,96.023 L473.614,76.932 C473.017,76.335 472.208,76 471.364,76 Z M471.364,82.364 L469.114,81.432 L488.205,100.523 L487.273,98.273 L487.273,127.545 C487.273,133.588 487.155,135.032 486.579,136.162 C485.969,137.359 484.996,138.333 483.798,138.943 C482.668,139.518 481.224,139.636 475.182,139.636 L454.818,139.636 C448.776,139.636 447.332,139.518 446.201,138.943 C445.004,138.333 444.031,137.359 443.421,136.162 C442.845,135.032 442.727,133.588 442.727,127.545 L442.727,94.455 C442.727,88.412 442.845,86.968 443.421,85.838 C444.031,84.641 445.004,83.667 446.202,83.057 C447.332,82.482 448.776,82.364 454.818,82.364 L471.364,82.364 Z" />
        </g>
        <g id="Black-M" transform="translate(0,200)">
            <path d="M668.182,80.041 L668.182,93.182 C668.182,96.048 668.237,96.727 668.875,97.98 C669.486,99.177 670.459,100.151 671.656,100.761 C672.903,101.402 673.584,101.458 676.455,101.458 L689.595,101.458 C691.353,101.458 692.777,100.033 692.777,98.276 C692.777,96.519 691.353,95.094 689.595,95.094 L676.455,95.094 C674.871,95.094 674.491,95.063 674.556,95.096 C674.545,95.091 674.545,95.091 674.545,95.091 C674.577,95.152 674.545,94.77 674.545,93.182 L674.545,80.041 C674.545,78.284 673.121,76.859 671.364,76.859 C669.606,76.859 668.182,78.284 668.182,80.041 Z M653.205,125.977 L659.568,132.341 C660.811,133.583 662.826,133.583 664.068,132.341 L678.386,118.023 C679.629,116.78 679.629,114.765 678.386,113.523 C677.144,112.28 675.129,112.28 673.886,113.523 L659.568,127.841 L664.068,127.841 L657.704,121.477 C656.462,120.235 654.447,120.235 653.205,121.477 C651.962,122.72 651.962,124.735 653.205,125.977 Z M671.364,76 L654.818,76 C647.497,76 645.757,76.142 643.313,77.387 C640.918,78.607 638.971,80.554 637.751,82.949 C636.506,85.394 636.364,87.133 636.364,94.455 L636.364,127.545 C636.364,134.867 636.506,136.606 637.751,139.05 C638.971,141.446 640.918,143.393 643.313,144.613 C645.757,145.858 647.497,146 654.818,146 L675.182,146 C682.503,146 684.243,145.858 686.687,144.613 C689.082,143.393 691.029,141.446 692.249,139.051 C693.494,136.606 693.636,134.867 693.636,127.545 L693.636,98.273 C693.636,97.429 693.301,96.62 692.704,96.023 L673.614,76.932 C673.017,76.335 672.208,76 671.364,76 Z M671.364,82.364 L669.114,81.432 L688.205,100.523 L687.273,98.273 L687.273,127.545 C687.273,133.588 687.155,135.032 686.579,136.162 C685.969,137.359 684.996,138.333 683.798,138.943 C682.668,139.518 681.224,139.636 675.182,139.636 L654.818,139.636 C648.776,139.636 647.332,139.518 646.201,138.943 C645.005,138.333 644.031,137.359 643.421,136.162 C642.845,135.032 642.727,133.588 642.727,127.545 L642.727,94.455 C642.727,88.412 642.845,86.968 643.421,85.838 C644.031,84.641 645.005,83.667 646.202,83.057 C647.332,82.482 648.776,82.364 654.818,82.364 L671.364,82.364 Z" />
        </g>
    </g>
</svg>