<?xml version="1.0" encoding="UTF-8"?>
<svg height="600" width="800" xmlns="http://www.w3.org/2000/svg" xmlns:xlink="http://www.w3.org/1999/xlink">
    <g id="Notes" font-family="LucidaGrande, 'Lucida Grande', sans-serif" font-size="13">
        <rect fill="white" height="600.0" width="800.0" x="0.0" y="0.0" />
        <g font-size="13">
            <text x="18.0" y="176.0">Small</text>
            <text x="18.0" y="376.0">Medium</text>
            <text x="18.0" y="576.0">Large</text>
        </g>
        <g font-size="9">
            <text x="250.0" y="30.0">Ultralight</text>
            <text x="450.0" y="30.0">Regular</text>
            <text x="650.0" y="30.0">Black</text>
            <text id="template-version" fill="#505050" text-anchor="end" x="785.0" y="575.0">Template v.3.0</text>
            <a href="https://github.com/swhitty/SwiftDraw">
                <text fill="#505050" text-anchor="end" x="785.0" y="590.0">https://github.com/swhitty/SwiftDraw</text>
            </a>
        </g>
    </g>
    <g id="Guides" stroke="rgb(39, 170, 225)" stroke-width="0.5">
        <path id="Capline-S" d="M18,76 l800,0" />
        <path id="H-reference" d="M85,145.755 L87.685,145.755 L113.369,79.287 L114.052,79.287 L114.052,76 L112.148,76 L85,145.755 Z M95.693,121.536 L130.996,121.536 L130.263,119.313 L96.474,119.313 L95.693,121.536 Z M139.15,145.755 L141.787,145.755 L114.638,76 L113.466,76 L113.466,79.287 L139.15,145.755 Z" stroke="none" transform="translate(0,200)" />
        <path id="Baseline-S" d="M18,146 l800,0" />
        <path id="left-margin-Ultralight-M" d="M230,256 l0,110" />
        <path id="right-margin-Ultralight-M" d="M300,256 l0,110" />
        <path id="left-margin-Regular-M" d="M430,256 l0,110" />
        <path id="right-margin-Regular-M" d="M500,256 l0,110" />
        <path id="left-margin-Black-M" d="M630,256 l0,110" />
        <path id="right-margin-Black-M" d="M700,256 l0,110" />
        <path id="Capline-M" d="M18,276 l800,0" />
        <path id="Baseline-M" d="M18,346 l800,0" />
        <path id="Capline-L" d="M18,476 l800,0" />
        <path id="Baseline-L" d="M18,546 l800,0" />
    </g>
    <g id="Symbols">
        <g id="Ultralight-M" transform="translate(0,200)">
            <path d="M292.045,106.227 L292.045,94.455 C292.045,87.133 291.903,85.394 290.658,82.95 C289.438,80.554 287.491,78.607 285.096,77.387 C282.652,76.142 280.912,76 273.591,76 L253.227,76 C245.906,76 244.166,76.142 241.722,77.387 C239.327,78.607 237.38,80.554 236.16,82.949 C234.915,85.394 234.773,87.133 234.773,94.455 L234.773,127.545 C234.773,134.867 234.915,136.606 236.16,139.05 C237.38,141.446 239.327,143.393 241.722,144.613 C244.166,145.858 245.906,146 253.227,146 L263.409,146 C265.166,146 266.591,144.575 266.591,142.818 C266.591,141.061 265.166,139.636 263.409,139.636 L253.227,139.636 C247.185,139.636 245.741,139.518 244.61,138.943 C243.414,138.333 242.44,137.359 241.83,136.162 C241.254,135.032 241.136,133.588 241.136,127.545 L241.136,94.455 C241.136,88.412 241.254,86.968 241.83,85.838 C242.44,84.641 243.414,83.667 244.611,83.057 C245.741,82.482 247.185,82.364 253.227,82.364 L273.591,82.364 C279.633,82.364 281.077,82.482 282.208,83.058 C283.405,83.667 284.378,84.641 284.988,85.838 C285.564,86.968 285.682,88.412 285.682,94.455 L285.682,106.227 C285.682,107.985 287.106,109.409 288.864,109.409 C290.621,109.409 292.045,107.985 292.045,106.227 Z M269.773,104.636 L250.682,104.636 C248.925,104.636 247.5,106.061 247.5,107.818 C247.5,109.575 248.925,111 250.682,111 L269.773,111 C271.53,111 272.955,109.575 272.955,107.818 C272.955,106.061 271.53,104.636 269.773,104.636 Z M257.045,117.364 L250.682,117.364 C248.925,117.364 247.5,118.788 247.5,120.545 C247.5,122.303 248.925,123.727 250.682,123.727 L257.045,123.727 C258.803,123.727 260.227,122.303 260.227,120.545 C260.227,118.788 258.803,117.364 257.045,117.364 Z M276.136,91.909 L250.682,91.909 C248.925,91.909 247.5,93.334 247.5,95.091 C247.5,96.848 248.925,98.273 250.682,98.273 L276.136,98.273 C277.894,98.273 279.318,96.848 279.318,95.091 C279.318,93.334 277.894,91.909 276.136,91.909 Z M285.682,139.636 L285.682,120.545 C285.682,118.788 284.257,117.364 282.5,117.364 C280.743,117.364 279.318,118.788 279.318,120.545 L279.318,139.636 C279.318,141.394 280.743,142.818 282.5,142.818 C284.257,142.818 285.682,141.394 285.682,139.636 Z M272.955,133.273 L292.045,133.273 C293.803,133.273 295.227,131.848 295.227,130.091 C295.227,128.334 293.803,126.909 292.045,126.909 L272.955,126.909 C271.197,126.909 269.773,128.334 269.773,130.091 C269.773,131.848 271.197,133.273 272.955,133.273 Z" />
        </g>
        <g id="Regular-M" transform="translate(0,200)">
            <path d="M492.045,106.227 L492.045,94.455 C492.045,87.133 491.903,85.394 490.658,82.95 C489.438,80.554 487.491,78.607 485.096,77.387 C482.652,76.142 480.912,76 473.591,76 L453.227,76 C445.906,76 444.166,76.142 441.722,77.387 C439.327,78.607 437.38,80.554 436.16,82.949 C434.915,85.394 434.773,87.133 434.773,94.455 L434.773,127.545 C434.773,134.867 434.915,136.606 436.16,139.05 C437.38,141.446 439.327,143.393 441.722,144.613 C444.166,145.858 445.906,146 453.227,146 L463.409,146 C465.166,146 466.591,144.575 466.591,142.818 C466.591,141.061 465.166,139.636 463.409,139.636 L453.227,139.636 C447.185,139.636 445.741,139.518 444.61,138.943 C443.414,138.333 442.44,137.359 441.83,136.162 C441.254,135.032 441.136,133.588 441.136,127.545 L441.136,94.455 C441.136,88.412 441.254,86.968 441.83,85.838 C442.44,84.641 443.414,83.667 444.611,83.057 C445.741,82.482 447.185,82.364 453.227,82.364 L473.591,82.364 C479.633,82.364 481.077,82.482 482.208,83.058 C483.405,83.667 484.378,84.641 484.988,85.838 C485.564,86.968 485.682,88.412 485.682,94.455 L485.682,106.227 C485.682,107.985 487.106,109.409 488.864,109.409 C490.621,109.409 492.045,107.985 492.045,106.227 Z M469.773,104.636 L450.682,104.636 C448.925,104.636 447.5,106.061 447.5,107.818 C447.5,109.575 448.925,111 450.682,111 L469.773,111 C471.53,111 472.955,109.575 472.955,107.818 C472.955,106.061 471.53,104.636 469.773,104.636 Z M457.045,117.364 L450.682,117.364 C448.925,117.364 447.5,118.788 447.5,120.545 C447.5,122.303 448.925,123.727 450.682,123.727 L457.045,123.727 C458.803,123.727 460.227,122.303 460.227,120.545 C460.227,118.788 458.803,117.364 457.045,117.364 Z M476.136,91.909 L450.682,91.909 C448.925,91.909 447.5,93.334 447.5,95.091 C447.5,96.848 448.925,98.273 450.682,98.273 L476.136,98.273 C477.894,98.273 479.318,96.848 479.318,95.091 C479.318,93.334 477.894,91.909 476.136,91.909 Z M485.682,139.636 L485.682,120.545 C485.682,118.788 484.257,117.364 482.5,117.364 C480.743,117.364 479.318,118.788 479.318,120.545 L479.318,139.636 C479.318,141.394 480.743,142.818 482.5,142.818 C484.257,142.818 485.682,141.394 485.682,139.636 Z M472.955,133.273 L492.045,133.273 C493.803,133.273 495.227,131.848 495.227,130.091 C495.227,128.334 493.803,126.909 492.045,126.909 L472.955,126.909 C471.197,126.909 469.773,128.334 469.773,130.091 C469.773,131.848 471.197,133.273 472.955,133.273 Z" />
        </g>
        <g id="Black-M" transform="translate(0,200)">
            <path d="M692.045,106.227 L692.045,94.455 C692.045,87.133 691.903,85.394 690.658,82.95 C689.438,80.554 687.491,78.607 685.096,77.387 C682.652,76.142 680.912,76 673.591,76 L653.227,76 C645.906,76 644.166,76.142 641.722,77.387 C639.327,78.607 637.38,80.554 636.16,82.949 C634.915,85.394 634.773,87.133 634.773,94.455 L634.773,127.545 C634.773,134.867 634.915,136.606 636.16,139.05 C637.38,141.446 639.327,143.393 641.722,144.613 C644.166,145.858 645.906,146 653.227,146 L663.409,146 C665.166,146 666.591,144.575 666.591,142.818 C666.591,141.061 665.166,139.636 663.409,139.636 L653.227,139.636 C647.185,139.636 645.741,139.518 644.61,138.943 C643.414,138.333 642.44,137.359 641.83,136.162 C641.254,135.032 641.136,133.588 641.136,127.545 L641.136,94.455 C641.136,88.412 641.254,86.968 641.83,85.838 C642.44,84.641 643.414,83.667 644.611,83.057 C645.741,82.482 647.185,82.364 653.227,82.364 L673.591,82.364 C679.633,82.364 681.077,82.482 682.208,83.058 C683.405,83.667 684.378,84.641 684.988,85.838 C685.564,86.968 685.682,88.412 685.682,94.455 L685.682,106.227 C685.682,107.985 687.106,109.409 688.864,109.409 C690.621,109.409 692.045,107.985 692.045,106.227 Z M669.773,104.636 L650.682,104.636 C648.925,104.636 647.5,106.061 647.5,107.818 C647.5,109.575 648.925,111 650.682,111 L669.773,111 C671.53,111 672.955,109.575 672.955,107.818 C672.955,106.061 671.53,104.636 669.773,104.636 Z M657.045,117.364 L650.682,117.364 C648.925,117.364 647.5,118.788 647.5,120.545 C647.5,122.303 648.925,123.727 650.682,123.727 L657.045,123.727 C658.803,123.727 660.227,122.303 660.227,120.545 C660.227,118.788 658.803,117.364 657.045,117.364 Z M676.136,91.909 L650.682,91.909 C648.925,91.909 647.5,93.334 647.5,95.091 C647.5,96.848 648.925,98.273 650.682,98.273 L676.136,98.273 C677.894,98.273 679.318,96.848 679.318,95.091 C679.318,93.334 677.894,91.909 676.136,91.909 Z M685.682,139.636 L685.682,120.545 C685.682,118.788 684.257,117.364 682.5,117.364 C680.743,117.364 679.318,118.788 679.318,120.545 L679.318,139.636 C679.318,141.394 680.743,142.818 682.5,142.818 C684.257,142.818 685.682,141.394 685.682,139.636 Z M672.955,133.273 L692.045,133.273 C693.803,133.273 695.227,131.848 695.227,130.091 C695.227,128.334 693.803,126.909 692.045,126.909 L672.955,126.909 C671.197,126.909 669.773,128.334 669.773,130.091 C669.773,131.848 671.197,133.273 672.955,133.273 Z" />
        </g>
    </g>
</svg>