<?xml version="1.0" encoding="UTF-8"?>
<svg height="600" width="800" xmlns="http://www.w3.org/2000/svg" xmlns:xlink="http://www.w3.org/1999/xlink">
    <g id="Notes" font-family="LucidaGrande, 'Lucida Grande', sans-serif" font-size="13">
        <rect fill="white" height="600.0" width="800.0" x="0.0" y="0.0" />
        <g font-size="13">
            <text x="18.0" y="176.0">Small</text>
            <text x="18.0" y="376.0">Medium</text>
            <text x="18.0" y="576.0">Large</text>
        </g>
        <g font-size="9">
            <text x="250.0" y="30.0">Ultralight</text>
            <text x="450.0" y="30.0">Regular</text>
            <text x="650.0" y="30.0">Black</text>
            <text id="template-version" fill="#505050" text-anchor="end" x="785.0" y="575.0">Template v.3.0</text>
            <a href="https://github.com/swhitty/SwiftDraw">
                <text fill="#505050" text-anchor="end" x="785.0" y="590.0">https://github.com/swhitty/SwiftDraw</text>
            </a>
        </g>
    </g>
    <g id="Guides" stroke="rgb(39, 170, 225)" stroke-width="0.5">
        <path id="Capline-S" d="M18,76 l800,0" />
        <path id="H-reference" d="M85,145.755 L87.685,145.755 L113.369,79.287 L114.052,79.287 L114.052,76 L112.148,76 L85,145.755 Z M95.693,121.536 L130.996,121.536 L130.263,119.313 L96.474,119.313 L95.693,121.536 Z M139.15,145.755 L141.787,145.755 L114.638,76 L113.466,76 L113.466,79.287 L139.15,145.755 Z" stroke="none" transform="translate(0,200)" />
        <path id="Baseline-S" d="M18,146 l800,0" />
        <path id="left-margin-Ultralight-M" d="M221,256 l0,110" />
        <path id="right-margin-Ultralight-M" d="M309,256 l0,110" />
        <path id="left-margin-Regular-M" d="M421,256 l0,110" />
        <path id="right-margin-Regular-M" d="M509,256 l0,110" />
        <path id="left-margin-Black-M" d="M621,256 l0,110" />
        <path id="right-margin-Black-M" d="M709,256 l0,110" />
        <path id="Capline-M" d="M18,276 l800,0" />
        <path id="Baseline-M" d="M18,346 l800,0" />
        <path id="Capline-L" d="M18,476 l800,0" />
        <path id="Baseline-L" d="M18,546 l800,0" />
    </g>
    <g id="Symbols">
        <g id="Ultralight-M" transform="translate(0,200)">
            <path d="M251.8,113.2 L278.2,113.2 C279.415,113.2 280.4,112.215 280.4,111 C280.4,109.785 279.415,108.8 278.2,108.8 L251.8,108.8 C250.585,108.8 249.6,109.785 249.6,111 C249.6,112.215 250.585,113.2 251.8,113.2 Z M245.2,100 L284.8,100 C286.015,100 287,99.015 287,97.8 C287,96.585 286.015,95.6 284.8,95.6 L245.2,95.6 C243.985,95.6 243,96.585 243,97.8 C243,99.015 243.985,100 245.2,100 Z M258.4,126.4 L271.6,126.4 C272.815,126.4 273.8,125.415 273.8,124.2 C273.8,122.985 272.815,122 271.6,122 L258.4,122 C257.185,122 256.2,122.985 256.2,124.2 C256.2,125.415 257.185,126.4 258.4,126.4 Z" />
        </g>
        <g id="Regular-M" transform="translate(0,200)">
            <path d="M451.8,113.2 L478.2,113.2 C479.415,113.2 480.4,112.215 480.4,111 C480.4,109.785 479.415,108.8 478.2,108.8 L451.8,108.8 C450.585,108.8 449.6,109.785 449.6,111 C449.6,112.215 450.585,113.2 451.8,113.2 Z M445.2,100 L484.8,100 C486.015,100 487,99.015 487,97.8 C487,96.585 486.015,95.6 484.8,95.6 L445.2,95.6 C443.985,95.6 443,96.585 443,97.8 C443,99.015 443.985,100 445.2,100 Z M458.4,126.4 L471.6,126.4 C472.815,126.4 473.8,125.415 473.8,124.2 C473.8,122.985 472.815,122 471.6,122 L458.4,122 C457.185,122 456.2,122.985 456.2,124.2 C456.2,125.415 457.185,126.4 458.4,126.4 Z" />
        </g>
        <g id="Black-M" transform="translate(0,200)">
            <path d="M651.8,113.2 L678.2,113.2 C679.415,113.2 680.4,112.215 680.4,111 C680.4,109.785 679.415,108.8 678.2,108.8 L651.8,108.8 C650.585,108.8 649.6,109.785 649.6,111 C649.6,112.215 650.585,113.2 651.8,113.2 Z M645.2,100 L684.8,100 C686.015,100 687,99.015 687,97.8 C687,96.585 686.015,95.6 684.8,95.6 L645.2,95.6 C643.985,95.6 643,96.585 643,97.8 C643,99.015 643.985,100 645.2,100 Z M658.4,126.4 L671.6,126.4 C672.815,126.4 673.8,125.415 673.8,124.2 C673.8,122.985 672.815,122 671.6,122 L658.4,122 C657.185,122 656.2,122.985 656.2,124.2 C656.2,125.415 657.185,126.4 658.4,126.4 Z" />
        </g>
    </g>
</svg>