<?xml version="1.0" encoding="UTF-8"?>
<svg height="600" width="800" xmlns="http://www.w3.org/2000/svg" xmlns:xlink="http://www.w3.org/1999/xlink">
    <g id="Notes" font-family="LucidaGrande, 'Lucida Grande', sans-serif" font-size="13">
        <rect fill="white" height="600.0" width="800.0" x="0.0" y="0.0" />
        <g font-size="13">
            <text x="18.0" y="176.0">Small</text>
            <text x="18.0" y="376.0">Medium</text>
            <text x="18.0" y="576.0">Large</text>
        </g>
        <g font-size="9">
            <text x="250.0" y="30.0">Ultralight</text>
            <text x="450.0" y="30.0">Regular</text>
            <text x="650.0" y="30.0">Black</text>
            <text id="template-version" fill="#505050" text-anchor="end" x="785.0" y="575.0">Template v.3.0</text>
            <a href="https://github.com/swhitty/SwiftDraw">
                <text fill="#505050" text-anchor="end" x="785.0" y="590.0">https://github.com/swhitty/SwiftDraw</text>
            </a>
        </g>
    </g>
    <g id="Guides" stroke="rgb(39, 170, 225)" stroke-width="0.5">
        <path id="Capline-S" d="M18,76 l800,0" />
        <path id="H-reference" d="M85,145.755 L87.685,145.755 L113.369,79.287 L114.052,79.287 L114.052,76 L112.148,76 L85,145.755 Z M95.693,121.536 L130.996,121.536 L130.263,119.313 L96.474,119.313 L95.693,121.536 Z M139.15,145.755 L141.787,145.755 L114.638,76 L113.466,76 L113.466,79.287 L139.15,145.755 Z" stroke="none" transform="translate(0,200)" />
        <path id="Baseline-S" d="M18,146 l800,0" />
        <path id="left-margin-Ultralight-M" d="M230,256 l0,110" />
        <path id="right-margin-Ultralight-M" d="M300,256 l0,110" />
        <path id="left-margin-Regular-M" d="M430,256 l0,110" />
        <path id="right-margin-Regular-M" d="M500,256 l0,110" />
        <path id="left-margin-Black-M" d="M630,256 l0,110" />
        <path id="right-margin-Black-M" d="M700,256 l0,110" />
        <path id="Capline-M" d="M18,276 l800,0" />
        <path id="Baseline-M" d="M18,346 l800,0" />
        <path id="Capline-L" d="M18,476 l800,0" />
        <path id="Baseline-L" d="M18,546 l800,0" />
    </g>
    <g id="Symbols">
        <g id="Ultralight-M" transform="translate(0,200)">
            <path d="M236.364,87.84 C236.364,86.252 236.395,85.869 236.364,85.93 C236.364,85.93 236.364,85.93 236.364,85.93 C236.302,85.962 236.685,85.93 238.273,85.93 L291.727,85.93 C293.315,85.93 293.698,85.962 293.637,85.931 C293.636,85.931 293.636,85.93 293.636,85.93 C293.605,85.869 293.636,86.252 293.636,87.84 L293.636,89.971 C293.636,90.716 293.629,90.87 293.637,90.839 C293.636,90.842 293.632,90.85 293.626,90.86 C293.666,90.802 293.666,90.802 293.683,90.781 C293.652,90.819 293.514,90.946 292.978,91.411 L272.627,109.047 C271.585,109.951 271.301,110.223 270.879,110.845 C270.474,111.437 270.168,112.105 269.983,112.808 C269.791,113.533 269.773,113.908 269.773,115.302 L269.773,131.933 C269.773,132.255 269.769,132.31 269.871,132.034 C269.964,131.785 270.109,131.571 270.298,131.4 C270.424,131.286 270.546,131.203 270.646,131.15 C270.631,131.158 270.529,131.201 270.156,131.353 L259.354,135.674 C258.648,135.954 258.421,136.041 258.254,136.09 C258.351,136.061 258.585,136.035 258.964,136.115 C259.368,136.199 259.728,136.442 259.96,136.791 C260.177,137.121 260.238,137.344 260.247,137.442 C260.232,137.268 260.227,137.012 260.227,136.261 L260.227,115.302 C260.227,113.907 260.209,113.533 260.017,112.807 C259.835,112.11 259.531,111.443 259.122,110.841 C258.969,110.626 258.969,110.626 258.819,110.439 C258.463,110.008 258.242,109.804 257.373,109.051 L237.022,91.411 C236.483,90.94 236.349,90.816 236.318,90.779 C236.334,90.799 236.334,90.799 236.356,90.83 C236.365,90.843 236.365,90.843 236.365,90.843 C236.371,90.867 236.364,90.711 236.364,89.968 L236.364,87.84 Z M230,87.84 L230,89.968 C230,91.366 230.019,91.74 230.212,92.467 C230.393,93.157 230.696,93.824 231.106,94.426 C231.257,94.639 231.257,94.639 231.405,94.824 C231.76,95.254 231.965,95.444 232.847,96.213 L253.205,113.859 C253.741,114.324 253.879,114.451 253.91,114.489 C253.894,114.468 253.894,114.468 253.871,114.437 C253.862,114.423 253.862,114.424 253.862,114.424 C253.856,114.401 253.864,114.553 253.864,115.302 L253.864,136.261 C253.864,138.702 253.906,139.168 254.652,140.302 C255.354,141.359 256.435,142.089 257.666,142.345 C258.994,142.623 259.418,142.497 261.712,141.584 L272.536,137.255 C273.194,136.987 273.338,136.926 273.636,136.767 C273.976,136.586 274.283,136.378 274.573,136.114 C275.134,135.606 275.57,134.964 275.837,134.248 C276.115,133.494 276.136,133.171 276.136,131.933 L276.136,115.302 C276.136,114.555 276.144,114.4 276.136,114.431 C276.136,114.432 276.136,114.431 276.137,114.429 C276.124,114.449 276.239,114.338 276.795,113.856 L297.146,96.22 C298.014,95.466 298.236,95.263 298.592,94.831 C298.742,94.644 298.742,94.644 298.885,94.442 C299.306,93.818 299.607,93.158 299.79,92.463 C299.981,91.737 300,91.362 300,89.971 L300,87.84 C300,84.973 299.945,84.294 299.307,83.042 C298.696,81.844 297.723,80.871 296.525,80.26 C295.273,79.622 294.594,79.567 291.727,79.567 L238.273,79.567 C235.406,79.567 234.727,79.622 233.475,80.26 C232.277,80.871 231.304,81.844 230.694,83.041 C230.055,84.294 230,84.973 230,87.84 Z" />
        </g>
        <g id="Regular-M" transform="translate(0,200)">
            <path d="M436.364,87.84 C436.364,86.252 436.395,85.869 436.364,85.93 C436.364,85.93 436.364,85.93 436.364,85.93 C436.302,85.962 436.685,85.93 438.273,85.93 L491.727,85.93 C493.315,85.93 493.698,85.962 493.637,85.931 C493.636,85.931 493.636,85.93 493.636,85.93 C493.605,85.869 493.636,86.252 493.636,87.84 L493.636,89.971 C493.636,90.716 493.629,90.87 493.637,90.839 C493.636,90.842 493.632,90.85 493.626,90.86 C493.666,90.802 493.666,90.802 493.683,90.781 C493.652,90.819 493.514,90.946 492.978,91.411 L472.627,109.047 C471.585,109.951 471.301,110.223 470.879,110.845 C470.474,111.437 470.168,112.105 469.983,112.808 C469.791,113.533 469.773,113.908 469.773,115.302 L469.773,131.933 C469.773,132.255 469.769,132.31 469.871,132.034 C469.964,131.785 470.109,131.571 470.298,131.4 C470.424,131.286 470.546,131.203 470.646,131.15 C470.631,131.158 470.529,131.201 470.156,131.353 L459.354,135.674 C458.648,135.954 458.421,136.041 458.254,136.09 C458.351,136.061 458.585,136.035 458.964,136.115 C459.368,136.199 459.728,136.442 459.96,136.791 C460.177,137.121 460.238,137.344 460.247,137.442 C460.232,137.268 460.227,137.012 460.227,136.261 L460.227,115.302 C460.227,113.907 460.209,113.533 460.017,112.807 C459.835,112.11 459.531,111.443 459.122,110.841 C458.969,110.626 458.969,110.626 458.819,110.439 C458.463,110.008 458.242,109.804 457.373,109.051 L437.022,91.411 C436.483,90.94 436.349,90.816 436.318,90.779 C436.334,90.799 436.334,90.799 436.356,90.83 C436.365,90.843 436.365,90.843 436.365,90.843 C436.371,90.867 436.364,90.711 436.364,89.968 L436.364,87.84 Z M430,87.84 L430,89.968 C430,91.366 430.019,91.74 430.212,92.467 C430.393,93.157 430.696,93.824 431.106,94.426 C431.257,94.639 431.257,94.639 431.405,94.824 C431.76,95.254 431.965,95.444 432.847,96.213 L453.205,113.859 C453.741,114.324 453.879,114.451 453.91,114.489 C453.894,114.468 453.894,114.468 453.871,114.437 C453.862,114.423 453.862,114.424 453.862,114.424 C453.856,114.401 453.864,114.553 453.864,115.302 L453.864,136.261 C453.864,138.702 453.906,139.168 454.652,140.302 C455.354,141.359 456.435,142.089 457.666,142.345 C458.994,142.623 459.418,142.497 461.712,141.584 L472.536,137.255 C473.194,136.987 473.338,136.926 473.636,136.767 C473.976,136.586 474.283,136.378 474.573,136.114 C475.134,135.606 475.57,134.964 475.837,134.248 C476.115,133.494 476.136,133.171 476.136,131.933 L476.136,115.302 C476.136,114.555 476.144,114.4 476.136,114.431 C476.136,114.432 476.136,114.431 476.137,114.429 C476.124,114.449 476.239,114.338 476.795,113.856 L497.146,96.22 C498.014,95.466 498.236,95.263 498.592,94.831 C498.742,94.644 498.742,94.644 498.885,94.442 C499.306,93.818 499.607,93.158 499.79,92.463 C499.981,91.737 500,91.362 500,89.971 L500,87.84 C500,84.973 499.945,84.294 499.307,83.042 C498.696,81.844 497.723,80.871 496.525,80.26 C495.273,79.622 494.594,79.567 491.727,79.567 L438.273,79.567 C435.406,79.567 434.727,79.622 433.475,80.26 C432.277,80.871 431.304,81.844 430.694,83.041 C430.055,84.294 430,84.973 430,87.84 Z" />
        </g>
        <g id="Black-M" transform="translate(0,200)">
            <path d="M636.364,87.84 C636.364,86.252 636.395,85.869 636.364,85.93 C636.364,85.93 636.364,85.93 636.364,85.93 C636.302,85.962 636.685,85.93 638.273,85.93 L691.727,85.93 C693.315,85.93 693.698,85.962 693.637,85.931 C693.636,85.931 693.636,85.93 693.636,85.93 C693.605,85.869 693.636,86.252 693.636,87.84 L693.636,89.971 C693.636,90.716 693.629,90.87 693.637,90.839 C693.636,90.842 693.632,90.85 693.626,90.86 C693.666,90.802 693.666,90.802 693.683,90.781 C693.652,90.819 693.514,90.946 692.977,91.411 L672.627,109.047 C671.585,109.951 671.301,110.223 670.879,110.845 C670.474,111.437 670.168,112.105 669.983,112.808 C669.791,113.533 669.773,113.908 669.773,115.302 L669.773,131.933 C669.773,132.255 669.769,132.31 669.871,132.034 C669.964,131.785 670.109,131.571 670.298,131.4 C670.424,131.286 670.546,131.203 670.646,131.15 C670.631,131.158 670.529,131.201 670.156,131.353 L659.354,135.674 C658.648,135.954 658.421,136.041 658.254,136.09 C658.351,136.061 658.585,136.035 658.964,136.115 C659.368,136.199 659.728,136.442 659.96,136.791 C660.177,137.121 660.239,137.344 660.247,137.442 C660.232,137.268 660.227,137.012 660.227,136.261 L660.227,115.302 C660.227,113.907 660.209,113.533 660.017,112.807 C659.835,112.11 659.531,111.443 659.122,110.841 C658.969,110.626 658.969,110.626 658.819,110.439 C658.463,110.008 658.242,109.804 657.373,109.051 L637.022,91.411 C636.483,90.94 636.349,90.816 636.318,90.779 C636.334,90.799 636.334,90.799 636.356,90.83 C636.365,90.843 636.365,90.843 636.365,90.843 C636.371,90.867 636.364,90.711 636.364,89.968 L636.364,87.84 Z M630,87.84 L630,89.968 C630,91.366 630.019,91.74 630.212,92.467 C630.393,93.157 630.696,93.824 631.106,94.426 C631.257,94.639 631.257,94.639 631.405,94.824 C631.76,95.254 631.965,95.444 632.847,96.213 L653.205,113.859 C653.741,114.324 653.879,114.451 653.91,114.489 C653.894,114.468 653.894,114.468 653.871,114.437 C653.862,114.423 653.862,114.424 653.862,114.424 C653.856,114.401 653.864,114.553 653.864,115.302 L653.864,136.261 C653.864,138.702 653.906,139.168 654.652,140.302 C655.354,141.359 656.435,142.089 657.666,142.345 C658.994,142.623 659.418,142.497 661.712,141.584 L672.536,137.255 C673.194,136.987 673.338,136.926 673.636,136.767 C673.976,136.586 674.283,136.378 674.573,136.114 C675.134,135.606 675.57,134.964 675.837,134.248 C676.115,133.494 676.136,133.171 676.136,131.933 L676.136,115.302 C676.136,114.555 676.144,114.4 676.136,114.431 C676.136,114.432 676.136,114.431 676.137,114.429 C676.124,114.449 676.239,114.338 676.795,113.856 L697.146,96.22 C698.014,95.466 698.236,95.263 698.592,94.831 C698.742,94.644 698.742,94.644 698.885,94.442 C699.306,93.818 699.607,93.158 699.79,92.463 C699.981,91.737 700,91.362 700,89.971 L700,87.84 C700,84.973 699.945,84.294 699.307,83.042 C698.696,81.844 697.723,80.871 696.525,80.26 C695.273,79.622 694.594,79.567 691.727,79.567 L638.273,79.567 C635.406,79.567 634.727,79.622 633.475,80.26 C632.277,80.871 631.304,81.844 630.694,83.041 C630.055,84.294 630,84.973 630,87.84 Z" />
        </g>
    </g>
</svg>