<?xml version="1.0" encoding="UTF-8"?>
<svg height="600" width="800" xmlns="http://www.w3.org/2000/svg" xmlns:xlink="http://www.w3.org/1999/xlink">
    <g id="Notes" font-family="LucidaGrande, 'Lucida Grande', sans-serif" font-size="13">
        <rect fill="white" height="600.0" width="800.0" x="0.0" y="0.0" />
        <g font-size="13">
            <text x="18.0" y="176.0">Small</text>
            <text x="18.0" y="376.0">Medium</text>
            <text x="18.0" y="576.0">Large</text>
        </g>
        <g font-size="9">
            <text x="250.0" y="30.0">Ultralight</text>
            <text x="450.0" y="30.0">Regular</text>
            <text x="650.0" y="30.0">Black</text>
            <text id="template-version" fill="#505050" text-anchor="end" x="785.0" y="575.0">Template v.3.0</text>
            <a href="https://github.com/swhitty/SwiftDraw">
                <text fill="#505050" text-anchor="end" x="785.0" y="590.0">https://github.com/swhitty/SwiftDraw</text>
            </a>
        </g>
    </g>
    <g id="Guides" stroke="rgb(39, 170, 225)" stroke-width="0.5">
        <path id="Capline-S" d="M18,76 l800,0" />
        <path id="H-reference" d="M85,145.755 L87.685,145.755 L113.369,79.287 L114.052,79.287 L114.052,76 L112.148,76 L85,145.755 Z M95.693,121.536 L130.996,121.536 L130.263,119.313 L96.474,119.313 L95.693,121.536 Z M139.15,145.755 L141.787,145.755 L114.638,76 L113.466,76 L113.466,79.287 L139.15,145.755 Z" stroke="none" transform="translate(0,200)" />
        <path id="Baseline-S" d="M18,146 l800,0" />
        <path id="left-margin-Ultralight-M" d="M221,256 l0,110" />
        <path id="right-margin-Ultralight-M" d="M309,256 l0,110" />
        <path id="left-margin-Regular-M" d="M421,256 l0,110" />
        <path id="right-margin-Regular-M" d="M509,256 l0,110" />
        <path id="left-margin-Black-M" d="M621,256 l0,110" />
        <path id="right-margin-Black-M" d="M709,256 l0,110" />
        <path id="Capline-M" d="M18,276 l800,0" />
        <path id="Baseline-M" d="M18,346 l800,0" />
        <path id="Capline-L" d="M18,476 l800,0" />
        <path id="Baseline-L" d="M18,546 l800,0" />
    </g>
    <g id="Symbols">
        <g id="Ultralight-M" transform="translate(0,200)">
            <path d="M246.063,115.557 L281.578,115.557 C283.614,115.557 283.948,115.526 284.809,114.894 C285.597,114.316 286.099,113.427 286.189,112.454 C286.287,111.391 286.145,111.095 285.095,109.345 L280.479,101.652 C280.378,101.485 280.366,101.461 280.407,101.656 C280.44,101.803 280.44,101.969 280.404,102.13 C280.366,102.311 280.378,102.288 280.479,102.12 L285.095,94.428 C286.145,92.677 286.287,92.381 286.189,91.319 C286.099,90.345 285.597,89.456 284.808,88.878 C283.942,88.246 283.604,88.215 281.578,88.215 L246.063,88.215 C244.805,88.215 243.785,89.235 243.785,90.494 L243.785,131.506 C243.785,132.765 244.805,133.785 246.063,133.785 C247.322,133.785 248.342,132.765 248.342,131.506 L248.342,90.494 L246.063,92.772 L281.578,92.772 C282.218,92.772 282.435,92.776 282.592,92.79 C282.531,92.785 282.367,92.738 282.118,92.556 C281.849,92.359 281.682,92.062 281.652,91.738 C281.623,91.425 281.667,91.259 281.695,91.202 C281.626,91.344 281.519,91.53 281.187,92.084 L276.571,99.775 C276.159,100.462 276.059,100.655 275.95,101.169 C275.847,101.637 275.847,102.136 275.953,102.617 C276.059,103.117 276.159,103.311 276.571,103.997 L281.188,111.689 C281.519,112.242 281.626,112.428 281.695,112.57 C281.667,112.514 281.623,112.347 281.652,112.035 C281.682,111.71 281.849,111.414 282.112,111.221 C282.364,111.035 282.53,110.988 282.593,110.982 C282.436,110.996 282.218,111 281.578,111 L246.063,111 C244.805,111 243.785,112.02 243.785,113.278 C243.785,114.537 244.805,115.557 246.063,115.557 Z" />
        </g>
        <g id="Regular-M" transform="translate(0,200)">
            <path d="M446.063,115.557 L481.578,115.557 C483.614,115.557 483.948,115.526 484.809,114.894 C485.597,114.316 486.099,113.427 486.189,112.454 C486.287,111.391 486.145,111.095 485.095,109.345 L480.479,101.652 C480.378,101.485 480.366,101.461 480.407,101.656 C480.44,101.803 480.44,101.969 480.404,102.13 C480.366,102.311 480.378,102.288 480.479,102.12 L485.095,94.428 C486.145,92.677 486.287,92.381 486.189,91.319 C486.099,90.345 485.597,89.456 484.809,88.878 C483.942,88.246 483.604,88.215 481.578,88.215 L446.063,88.215 C444.805,88.215 443.785,89.235 443.785,90.494 L443.785,131.506 C443.785,132.765 444.805,133.785 446.063,133.785 C447.322,133.785 448.342,132.765 448.342,131.506 L448.342,90.494 L446.063,92.772 L481.578,92.772 C482.218,92.772 482.435,92.776 482.592,92.79 C482.531,92.785 482.367,92.738 482.118,92.556 C481.849,92.359 481.682,92.062 481.652,91.738 C481.623,91.425 481.667,91.259 481.695,91.202 C481.626,91.344 481.519,91.53 481.187,92.084 L476.571,99.775 C476.159,100.462 476.059,100.655 475.95,101.169 C475.847,101.637 475.847,102.136 475.953,102.617 C476.059,103.117 476.159,103.311 476.571,103.997 L481.188,111.689 C481.519,112.242 481.626,112.428 481.695,112.57 C481.667,112.514 481.623,112.347 481.652,112.035 C481.682,111.71 481.849,111.414 482.112,111.221 C482.364,111.035 482.53,110.988 482.593,110.982 C482.436,110.996 482.218,111 481.578,111 L446.063,111 C444.805,111 443.785,112.02 443.785,113.278 C443.785,114.537 444.805,115.557 446.063,115.557 Z" />
        </g>
        <g id="Black-M" transform="translate(0,200)">
            <path d="M646.063,115.557 L681.578,115.557 C683.614,115.557 683.948,115.526 684.809,114.894 C685.597,114.316 686.099,113.427 686.189,112.454 C686.287,111.391 686.145,111.095 685.095,109.345 L680.479,101.652 C680.378,101.485 680.366,101.461 680.407,101.656 C680.44,101.803 680.44,101.969 680.404,102.13 C680.366,102.311 680.378,102.288 680.479,102.12 L685.095,94.428 C686.145,92.677 686.287,92.381 686.189,91.319 C686.099,90.345 685.597,89.456 684.808,88.878 C683.942,88.246 683.604,88.215 681.578,88.215 L646.063,88.215 C644.805,88.215 643.785,89.235 643.785,90.494 L643.785,131.506 C643.785,132.765 644.805,133.785 646.063,133.785 C647.322,133.785 648.342,132.765 648.342,131.506 L648.342,90.494 L646.063,92.772 L681.578,92.772 C682.218,92.772 682.435,92.776 682.592,92.79 C682.531,92.785 682.367,92.738 682.118,92.556 C681.849,92.359 681.682,92.062 681.652,91.738 C681.623,91.425 681.667,91.259 681.695,91.202 C681.626,91.344 681.519,91.53 681.187,92.084 L676.571,99.775 C676.159,100.462 676.059,100.655 675.95,101.169 C675.847,101.637 675.847,102.136 675.953,102.617 C676.059,103.117 676.159,103.311 676.571,103.997 L681.188,111.689 C681.519,112.242 681.626,112.428 681.695,112.57 C681.667,112.514 681.623,112.347 681.652,112.035 C681.682,111.71 681.849,111.414 682.112,111.221 C682.364,111.035 682.53,110.988 682.593,110.982 C682.436,110.996 682.218,111 681.578,111 L646.063,111 C644.805,111 643.785,112.02 643.785,113.278 C643.785,114.537 644.805,115.557 646.063,115.557 Z" />
        </g>
    </g>
</svg>