<?xml version="1.0" encoding="UTF-8"?>
<svg height="600" width="800" xmlns="http://www.w3.org/2000/svg" xmlns:xlink="http://www.w3.org/1999/xlink">
    <g id="Notes" font-family="LucidaGrande, 'Lucida Grande', sans-serif" font-size="13">
        <rect fill="white" height="600.0" width="800.0" x="0.0" y="0.0" />
        <g font-size="13">
            <text x="18.0" y="176.0">Small</text>
            <text x="18.0" y="376.0">Medium</text>
            <text x="18.0" y="576.0">Large</text>
        </g>
        <g font-size="9">
            <text x="250.0" y="30.0">Ultralight</text>
            <text x="450.0" y="30.0">Regular</text>
            <text x="650.0" y="30.0">Black</text>
            <text id="template-version" fill="#505050" text-anchor="end" x="785.0" y="575.0">Template v.3.0</text>
            <a href="https://github.com/swhitty/SwiftDraw">
                <text fill="#505050" text-anchor="end" x="785.0" y="590.0">https://github.com/swhitty/SwiftDraw</text>
            </a>
        </g>
    </g>
    <g id="Guides" stroke="rgb(39, 170, 225)" stroke-width="0.5">
        <path id="Capline-S" d="M18,76 l800,0" />
        <path id="H-reference" d="M85,145.755 L87.685,145.755 L113.369,79.287 L114.052,79.287 L114.052,76 L112.148,76 L85,145.755 Z M95.693,121.536 L130.996,121.536 L130.263,119.313 L96.474,119.313 L95.693,121.536 Z M139.15,145.755 L141.787,145.755 L114.638,76 L113.466,76 L113.466,79.287 L139.15,145.755 Z" stroke="none" transform="translate(0,200)" />
        <path id="Baseline-S" d="M18,146 l800,0" />
        <path id="left-margin-Ultralight-M" d="M230,256 l0,110" />
        <path id="right-margin-Ultralight-M" d="M300,256 l0,110" />
        <path id="left-margin-Regular-M" d="M430,256 l0,110" />
        <path id="right-margin-Regular-M" d="M500,256 l0,110" />
        <path id="left-margin-Black-M" d="M630,256 l0,110" />
        <path id="right-margin-Black-M" d="M700,256 l0,110" />
        <path id="Capline-M" d="M18,276 l800,0" />
        <path id="Baseline-M" d="M18,346 l800,0" />
        <path id="Capline-L" d="M18,476 l800,0" />
        <path id="Baseline-L" d="M18,546 l800,0" />
    </g>
    <g id="Symbols">
        <g id="Ultralight-M" transform="translate(0,200)">
            <path d="M271.027,93.667 L267.477,86.569 C266.029,83.665 265.598,82.922 264.571,81.912 C263.554,80.916 262.335,80.163 260.996,79.702 C259.638,79.233 258.807,79.182 255.525,79.182 L243.364,79.182 C238.27,79.182 237.061,79.281 235.212,80.222 C233.416,81.137 231.956,82.598 231.04,84.394 C230.099,86.242 230,87.452 230,92.545 L230,95.091 C230,96.848 231.425,98.273 233.182,98.273 C234.939,98.273 236.364,96.848 236.364,95.091 L236.364,92.545 C236.364,88.73 236.438,87.817 236.711,87.282 C237.016,86.684 237.502,86.197 238.101,85.892 C238.635,85.62 239.548,85.545 243.364,85.545 L255.525,85.545 C257.957,85.545 258.523,85.581 258.922,85.718 C259.37,85.873 259.777,86.124 260.114,86.454 C260.416,86.751 260.707,87.252 261.783,89.412 L265.336,96.514 C266.122,98.086 268.034,98.723 269.605,97.937 C271.177,97.15 271.814,95.239 271.027,93.667 Z M233.182,98.273 L281.545,98.273 C287.588,98.273 289.032,98.391 290.162,98.967 C291.359,99.576 292.333,100.55 292.943,101.747 C293.518,102.878 293.636,104.321 293.636,110.364 L293.636,124.364 C293.636,130.406 293.518,131.85 292.943,132.98 C292.333,134.177 291.359,135.151 290.162,135.761 C289.032,136.337 287.588,136.455 281.545,136.455 L248.455,136.455 C242.412,136.455 240.968,136.337 239.838,135.761 C238.641,135.151 237.667,134.177 237.057,132.98 C236.482,131.85 236.364,130.406 236.364,124.364 L236.364,95.091 L233.182,98.273 Z M233.182,91.909 C231.425,91.909 230,93.334 230,95.091 L230,124.364 C230,131.685 230.142,133.425 231.387,135.869 C232.607,138.264 234.554,140.211 236.949,141.431 C239.394,142.676 241.133,142.818 248.455,142.818 L281.545,142.818 C288.867,142.818 290.606,142.676 293.05,141.431 C295.446,140.211 297.393,138.264 298.613,135.869 C299.858,133.425 300,131.685 300,124.364 L300,110.364 C300,103.043 299.858,101.303 298.613,98.859 C297.393,96.463 295.446,94.517 293.051,93.296 C290.606,92.051 288.867,91.909 281.545,91.909 L233.182,91.909 Z M261.16,111.269 C261.804,109.442 263.671,108.346 265.58,108.674 C267.489,109.001 268.884,110.657 268.882,112.594 C268.882,113.396 268.163,114.354 266.721,115.314 C265.655,116.025 264.552,116.515 263.902,116.731 C262.235,117.286 261.334,119.088 261.889,120.755 C262.444,122.423 264.246,123.324 265.913,122.769 C267.053,122.389 268.633,121.687 270.25,120.61 C273.281,118.591 275.245,115.972 275.245,112.597 C275.25,107.562 271.622,103.254 266.656,102.402 C261.691,101.55 256.834,104.401 255.158,109.153 C254.574,110.81 255.444,112.627 257.101,113.212 C258.758,113.796 260.575,112.926 261.16,111.269 Z M265,132.477 L265.032,132.477 C266.789,132.477 268.214,131.053 268.214,129.295 C268.214,127.538 266.789,126.114 265.032,126.114 L265,126.114 C263.243,126.114 261.818,127.538 261.818,129.295 C261.818,131.053 263.243,132.477 265,132.477 Z" />
        </g>
        <g id="Regular-M" transform="translate(0,200)">
            <path d="M471.027,93.667 L467.477,86.569 C466.029,83.665 465.598,82.922 464.571,81.912 C463.554,80.916 462.335,80.163 460.996,79.702 C459.638,79.233 458.807,79.182 455.525,79.182 L443.364,79.182 C438.27,79.182 437.061,79.281 435.212,80.222 C433.416,81.137 431.956,82.598 431.04,84.394 C430.099,86.242 430,87.452 430,92.545 L430,95.091 C430,96.848 431.425,98.273 433.182,98.273 C434.939,98.273 436.364,96.848 436.364,95.091 L436.364,92.545 C436.364,88.73 436.438,87.817 436.711,87.282 C437.016,86.684 437.502,86.197 438.101,85.892 C438.635,85.62 439.548,85.545 443.364,85.545 L455.525,85.545 C457.957,85.545 458.523,85.581 458.922,85.718 C459.37,85.873 459.777,86.124 460.114,86.454 C460.416,86.751 460.707,87.252 461.783,89.412 L465.336,96.514 C466.122,98.086 468.034,98.723 469.605,97.937 C471.177,97.15 471.814,95.239 471.027,93.667 Z M433.182,98.273 L481.545,98.273 C487.588,98.273 489.032,98.391 490.162,98.967 C491.359,99.576 492.333,100.55 492.943,101.747 C493.518,102.878 493.636,104.321 493.636,110.364 L493.636,124.364 C493.636,130.406 493.518,131.85 492.943,132.98 C492.333,134.177 491.359,135.151 490.162,135.761 C489.032,136.337 487.588,136.455 481.545,136.455 L448.455,136.455 C442.412,136.455 440.968,136.337 439.838,135.761 C438.641,135.151 437.667,134.177 437.057,132.98 C436.482,131.85 436.364,130.406 436.364,124.364 L436.364,95.091 L433.182,98.273 Z M433.182,91.909 C431.425,91.909 430,93.334 430,95.091 L430,124.364 C430,131.685 430.142,133.425 431.387,135.869 C432.607,138.264 434.554,140.211 436.949,141.431 C439.394,142.676 441.133,142.818 448.455,142.818 L481.545,142.818 C488.867,142.818 490.606,142.676 493.05,141.431 C495.446,140.211 497.393,138.264 498.613,135.869 C499.858,133.425 500,131.685 500,124.364 L500,110.364 C500,103.043 499.858,101.303 498.613,98.859 C497.393,96.463 495.446,94.517 493.051,93.296 C490.606,92.051 488.867,91.909 481.545,91.909 L433.182,91.909 Z M461.16,111.269 C461.804,109.442 463.671,108.346 465.58,108.674 C467.489,109.001 468.884,110.657 468.882,112.594 C468.882,113.396 468.163,114.354 466.721,115.314 C465.655,116.025 464.552,116.515 463.902,116.731 C462.235,117.286 461.334,119.088 461.889,120.755 C462.444,122.423 464.246,123.324 465.913,122.769 C467.053,122.389 468.633,121.687 470.25,120.61 C473.281,118.591 475.245,115.972 475.245,112.597 C475.25,107.562 471.622,103.254 466.656,102.402 C461.691,101.55 456.834,104.401 455.158,109.153 C454.574,110.81 455.444,112.627 457.101,113.212 C458.758,113.796 460.575,112.926 461.16,111.269 Z M465,132.477 L465.032,132.477 C466.789,132.477 468.214,131.053 468.214,129.295 C468.214,127.538 466.789,126.114 465.032,126.114 L465,126.114 C463.243,126.114 461.818,127.538 461.818,129.295 C461.818,131.053 463.243,132.477 465,132.477 Z" />
        </g>
        <g id="Black-M" transform="translate(0,200)">
            <path d="M671.027,93.667 L667.477,86.569 C666.029,83.665 665.598,82.922 664.571,81.912 C663.554,80.916 662.335,80.163 660.996,79.702 C659.638,79.233 658.807,79.182 655.525,79.182 L643.364,79.182 C638.27,79.182 637.061,79.281 635.212,80.222 C633.416,81.137 631.956,82.598 631.04,84.394 C630.099,86.242 630,87.452 630,92.545 L630,95.091 C630,96.848 631.425,98.273 633.182,98.273 C634.939,98.273 636.364,96.848 636.364,95.091 L636.364,92.545 C636.364,88.73 636.438,87.817 636.711,87.282 C637.016,86.684 637.502,86.197 638.101,85.892 C638.635,85.62 639.548,85.545 643.364,85.545 L655.525,85.545 C657.957,85.545 658.523,85.581 658.922,85.718 C659.37,85.873 659.777,86.124 660.114,86.454 C660.416,86.751 660.707,87.252 661.783,89.412 L665.336,96.514 C666.122,98.086 668.034,98.723 669.605,97.937 C671.177,97.15 671.814,95.239 671.027,93.667 Z M633.182,98.273 L681.545,98.273 C687.588,98.273 689.032,98.391 690.162,98.967 C691.359,99.576 692.333,100.55 692.943,101.747 C693.518,102.878 693.636,104.321 693.636,110.364 L693.636,124.364 C693.636,130.406 693.518,131.85 692.943,132.98 C692.333,134.177 691.359,135.151 690.162,135.761 C689.032,136.337 687.588,136.455 681.545,136.455 L648.455,136.455 C642.412,136.455 640.968,136.337 639.838,135.761 C638.641,135.151 637.667,134.177 637.057,132.98 C636.482,131.85 636.364,130.406 636.364,124.364 L636.364,95.091 L633.182,98.273 Z M633.182,91.909 C631.425,91.909 630,93.334 630,95.091 L630,124.364 C630,131.685 630.142,133.425 631.387,135.869 C632.607,138.264 634.554,140.211 636.949,141.431 C639.394,142.676 641.133,142.818 648.455,142.818 L681.545,142.818 C688.867,142.818 690.606,142.676 693.05,141.431 C695.446,140.211 697.393,138.264 698.613,135.869 C699.858,133.425 700,131.685 700,124.364 L700,110.364 C700,103.043 699.858,101.303 698.613,98.859 C697.393,96.463 695.446,94.517 693.051,93.296 C690.606,92.051 688.867,91.909 681.545,91.909 L633.182,91.909 Z M661.16,111.269 C661.804,109.442 663.671,108.346 665.58,108.674 C667.489,109.001 668.884,110.657 668.882,112.594 C668.882,113.396 668.163,114.354 666.721,115.314 C665.655,116.025 664.552,116.515 663.902,116.731 C662.235,117.286 661.334,119.088 661.889,120.755 C662.444,122.423 664.246,123.324 665.913,122.769 C667.053,122.389 668.633,121.687 670.25,120.61 C673.281,118.591 675.245,115.972 675.245,112.597 C675.25,107.562 671.622,103.254 666.656,102.402 C661.691,101.55 656.834,104.401 655.158,109.153 C654.574,110.81 655.444,112.627 657.101,113.212 C658.758,113.796 660.575,112.926 661.16,111.269 Z M665,132.477 L665.032,132.477 C666.789,132.477 668.214,131.053 668.214,129.295 C668.214,127.538 666.789,126.114 665.032,126.114 L665,126.114 C663.243,126.114 661.818,127.538 661.818,129.295 C661.818,131.053 663.243,132.477 665,132.477 Z" />
        </g>
    </g>
</svg>