<?xml version="1.0" encoding="UTF-8"?>
<svg height="600" width="800" xmlns="http://www.w3.org/2000/svg" xmlns:xlink="http://www.w3.org/1999/xlink">
    <g id="Notes" font-family="LucidaGrande, 'Lucida Grande', sans-serif" font-size="13">
        <rect fill="white" height="600.0" width="800.0" x="0.0" y="0.0" />
        <g font-size="13">
            <text x="18.0" y="176.0">Small</text>
            <text x="18.0" y="376.0">Medium</text>
            <text x="18.0" y="576.0">Large</text>
        </g>
        <g font-size="9">
            <text x="250.0" y="30.0">Ultralight</text>
            <text x="450.0" y="30.0">Regular</text>
            <text x="650.0" y="30.0">Black</text>
            <text id="template-version" fill="#505050" text-anchor="end" x="785.0" y="575.0">Template v.3.0</text>
            <a href="https://github.com/swhitty/SwiftDraw">
                <text fill="#505050" text-anchor="end" x="785.0" y="590.0">https://github.com/swhitty/SwiftDraw</text>
            </a>
        </g>
    </g>
    <g id="Guides" stroke="rgb(39, 170, 225)" stroke-width="0.5">
        <path id="Capline-S" d="M18,76 l800,0" />
        <path id="H-reference" d="M85,145.755 L87.685,145.755 L113.369,79.287 L114.052,79.287 L114.052,76 L112.148,76 L85,145.755 Z M95.693,121.536 L130.996,121.536 L130.263,119.313 L96.474,119.313 L95.693,121.536 Z M139.15,145.755 L141.787,145.755 L114.638,76 L113.466,76 L113.466,79.287 L139.15,145.755 Z" stroke="none" transform="translate(0,200)" />
        <path id="Baseline-S" d="M18,146 l800,0" />
        <path id="left-margin-Ultralight-M" d="M230,256 l0,110" />
        <path id="right-margin-Ultralight-M" d="M300,256 l0,110" />
        <path id="left-margin-Regular-M" d="M430,256 l0,110" />
        <path id="right-margin-Regular-M" d="M500,256 l0,110" />
        <path id="left-margin-Black-M" d="M630,256 l0,110" />
        <path id="right-margin-Black-M" d="M700,256 l0,110" />
        <path id="Capline-M" d="M18,276 l800,0" />
        <path id="Baseline-M" d="M18,346 l800,0" />
        <path id="Capline-L" d="M18,476 l800,0" />
        <path id="Baseline-L" d="M18,546 l800,0" />
    </g>
    <g id="Symbols">
        <g id="Ultralight-M" transform="translate(0,200)">
            <path d="M286,118 C278.268,118 272,124.268 272,132 C272,139.732 278.268,146 286,146 C293.732,146 300,139.732 300,132 C300,124.268 293.732,118 286,118 Z M286,125 C289.866,125 293,128.134 293,132 C293,135.866 289.866,139 286,139 C282.134,139 279,135.866 279,132 C279,128.134 282.134,125 286,125 Z M289.5,121.5 L289.5,97 C289.5,94.215 288.394,91.545 286.425,89.575 C284.456,87.606 281.785,86.5 279,86.5 L268.5,86.5 C266.567,86.5 265,88.067 265,90 C265,91.933 266.567,93.5 268.5,93.5 L279,93.5 C279.928,93.5 280.819,93.869 281.475,94.525 C282.131,95.182 282.5,96.072 282.5,97 L282.5,121.5 C282.5,123.433 284.067,125 286,125 C287.933,125 289.5,123.433 289.5,121.5 Z M244,104 C251.732,104 258,97.732 258,90 C258,82.268 251.732,76 244,76 C236.268,76 230,82.268 230,90 C230,97.732 236.268,104 244,104 Z M244,97 C240.134,97 237,93.866 237,90 C237,86.134 240.134,83 244,83 C247.866,83 251,86.134 251,90 C251,93.866 247.866,97 244,97 Z M240.5,100.5 L240.5,142.5 C240.5,144.433 242.067,146 244,146 C245.933,146 247.5,144.433 247.5,142.5 L247.5,100.5 C247.5,98.567 245.933,97 244,97 C242.067,97 240.5,98.567 240.5,100.5 Z" />
        </g>
        <g id="Regular-M" transform="translate(0,200)">
            <path d="M486,118 C478.268,118 472,124.268 472,132 C472,139.732 478.268,146 486,146 C493.732,146 500,139.732 500,132 C500,124.268 493.732,118 486,118 Z M486,125 C489.866,125 493,128.134 493,132 C493,135.866 489.866,139 486,139 C482.134,139 479,135.866 479,132 C479,128.134 482.134,125 486,125 Z M489.5,121.5 L489.5,97 C489.5,94.215 488.394,91.545 486.425,89.575 C484.456,87.606 481.785,86.5 479,86.5 L468.5,86.5 C466.567,86.5 465,88.067 465,90 C465,91.933 466.567,93.5 468.5,93.5 L479,93.5 C479.928,93.5 480.819,93.869 481.475,94.525 C482.131,95.182 482.5,96.072 482.5,97 L482.5,121.5 C482.5,123.433 484.067,125 486,125 C487.933,125 489.5,123.433 489.5,121.5 Z M444,104 C451.732,104 458,97.732 458,90 C458,82.268 451.732,76 444,76 C436.268,76 430,82.268 430,90 C430,97.732 436.268,104 444,104 Z M444,97 C440.134,97 437,93.866 437,90 C437,86.134 440.134,83 444,83 C447.866,83 451,86.134 451,90 C451,93.866 447.866,97 444,97 Z M440.5,100.5 L440.5,142.5 C440.5,144.433 442.067,146 444,146 C445.933,146 447.5,144.433 447.5,142.5 L447.5,100.5 C447.5,98.567 445.933,97 444,97 C442.067,97 440.5,98.567 440.5,100.5 Z" />
        </g>
        <g id="Black-M" transform="translate(0,200)">
            <path d="M686,118 C678.268,118 672,124.268 672,132 C672,139.732 678.268,146 686,146 C693.732,146 700,139.732 700,132 C700,124.268 693.732,118 686,118 Z M686,125 C689.866,125 693,128.134 693,132 C693,135.866 689.866,139 686,139 C682.134,139 679,135.866 679,132 C679,128.134 682.134,125 686,125 Z M689.5,121.5 L689.5,97 C689.5,94.215 688.394,91.545 686.425,89.575 C684.456,87.606 681.785,86.5 679,86.5 L668.5,86.5 C666.567,86.5 665,88.067 665,90 C665,91.933 666.567,93.5 668.5,93.5 L679,93.5 C679.928,93.5 680.818,93.869 681.475,94.525 C682.131,95.182 682.5,96.072 682.5,97 L682.5,121.5 C682.5,123.433 684.067,125 686,125 C687.933,125 689.5,123.433 689.5,121.5 Z M644,104 C651.732,104 658,97.732 658,90 C658,82.268 651.732,76 644,76 C636.268,76 630,82.268 630,90 C630,97.732 636.268,104 644,104 Z M644,97 C640.134,97 637,93.866 637,90 C637,86.134 640.134,83 644,83 C647.866,83 651,86.134 651,90 C651,93.866 647.866,97 644,97 Z M640.5,100.5 L640.5,142.5 C640.5,144.433 642.067,146 644,146 C645.933,146 647.5,144.433 647.5,142.5 L647.5,100.5 C647.5,98.567 645.933,97 644,97 C642.067,97 640.5,98.567 640.5,100.5 Z" />
        </g>
    </g>
</svg>