<?xml version="1.0" encoding="UTF-8"?>
<svg height="600" width="800" xmlns="http://www.w3.org/2000/svg" xmlns:xlink="http://www.w3.org/1999/xlink">
    <g id="Notes" font-family="LucidaGrande, 'Lucida Grande', sans-serif" font-size="13">
        <rect fill="white" height="600.0" width="800.0" x="0.0" y="0.0" />
        <g font-size="13">
            <text x="18.0" y="176.0">Small</text>
            <text x="18.0" y="376.0">Medium</text>
            <text x="18.0" y="576.0">Large</text>
        </g>
        <g font-size="9">
            <text x="250.0" y="30.0">Ultralight</text>
            <text x="450.0" y="30.0">Regular</text>
            <text x="650.0" y="30.0">Black</text>
            <text id="template-version" fill="#505050" text-anchor="end" x="785.0" y="575.0">Template v.3.0</text>
            <a href="https://github.com/swhitty/SwiftDraw">
                <text fill="#505050" text-anchor="end" x="785.0" y="590.0">https://github.com/swhitty/SwiftDraw</text>
            </a>
        </g>
    </g>
    <g id="Guides" stroke="rgb(39, 170, 225)" stroke-width="0.5">
        <path id="Capline-S" d="M18,76 l800,0" />
        <path id="H-reference" d="M85,145.755 L87.685,145.755 L113.369,79.287 L114.052,79.287 L114.052,76 L112.148,76 L85,145.755 Z M95.693,121.536 L130.996,121.536 L130.263,119.313 L96.474,119.313 L95.693,121.536 Z M139.15,145.755 L141.787,145.755 L114.638,76 L113.466,76 L113.466,79.287 L139.15,145.755 Z" stroke="none" transform="translate(0,200)" />
        <path id="Baseline-S" d="M18,146 l800,0" />
        <path id="left-margin-Ultralight-M" d="M230,256 l0,110" />
        <path id="right-margin-Ultralight-M" d="M300,256 l0,110" />
        <path id="left-margin-Regular-M" d="M430,256 l0,110" />
        <path id="right-margin-Regular-M" d="M500,256 l0,110" />
        <path id="left-margin-Black-M" d="M630,256 l0,110" />
        <path id="right-margin-Black-M" d="M700,256 l0,110" />
        <path id="Capline-M" d="M18,276 l800,0" />
        <path id="Baseline-M" d="M18,346 l800,0" />
        <path id="Capline-L" d="M18,476 l800,0" />
        <path id="Baseline-L" d="M18,546 l800,0" />
    </g>
    <g id="Symbols">
        <g id="Ultralight-M" transform="translate(0,200)">
            <path d="M260.1,112.148 C263.054,110.447 266.69,110.447 269.644,112.148 C271.166,113.024 273.11,112.501 273.986,110.979 C274.862,109.458 274.339,107.514 272.817,106.638 C267.899,103.806 261.845,103.806 256.927,106.638 C255.406,107.514 254.883,109.458 255.759,110.979 C256.635,112.501 258.579,113.024 260.1,112.148 Z M252.565,104.153 C255.019,106.554 255.994,110.088 255.118,113.407 C254.241,116.726 251.649,119.318 248.329,120.194 C245.01,121.07 241.476,120.094 239.076,117.64 C235.423,113.903 235.457,107.922 239.152,104.227 C242.848,100.532 248.829,100.499 252.565,104.153 Z M257.011,99.608 C250.784,93.518 240.816,93.573 234.657,99.731 C228.497,105.889 228.441,115.857 234.53,122.085 C238.53,126.176 244.419,127.802 249.952,126.342 C255.484,124.882 259.805,120.562 261.265,115.03 C262.726,109.498 261.101,103.608 257.011,99.608 Z M290.73,104.167 C293.209,106.562 294.203,110.108 293.33,113.443 C292.458,116.777 289.853,119.382 286.519,120.254 C283.184,121.127 279.638,120.133 277.243,117.654 C273.629,113.911 273.681,107.963 277.36,104.284 C281.039,100.605 286.987,100.553 290.73,104.167 Z M295.147,99.594 C288.91,93.57 278.995,93.656 272.863,99.787 C266.732,105.919 266.646,115.834 272.67,122.071 C276.661,126.203 282.571,127.86 288.129,126.406 C293.687,124.951 298.027,120.611 299.482,115.053 C300.936,109.495 299.279,103.585 295.147,99.594 Z" />
        </g>
        <g id="Regular-M" transform="translate(0,200)">
            <path d="M460.1,112.148 C463.054,110.447 466.69,110.447 469.644,112.148 C471.166,113.024 473.11,112.501 473.986,110.979 C474.862,109.458 474.339,107.514 472.817,106.638 C467.899,103.806 461.845,103.806 456.927,106.638 C455.406,107.514 454.883,109.458 455.759,110.979 C456.635,112.501 458.579,113.024 460.1,112.148 Z M452.565,104.153 C455.019,106.554 455.994,110.088 455.118,113.407 C454.241,116.726 451.649,119.318 448.329,120.194 C445.01,121.07 441.476,120.094 439.076,117.64 C435.423,113.903 435.457,107.922 439.152,104.227 C442.848,100.532 448.829,100.499 452.565,104.153 Z M457.011,99.608 C450.784,93.518 440.816,93.573 434.657,99.731 C428.497,105.889 428.441,115.857 434.53,122.085 C438.53,126.176 444.419,127.802 449.952,126.342 C455.484,124.882 459.805,120.562 461.265,115.03 C462.726,109.498 461.101,103.608 457.011,99.608 Z M490.73,104.167 C493.209,106.562 494.203,110.108 493.33,113.443 C492.458,116.777 489.853,119.382 486.519,120.254 C483.184,121.127 479.638,120.133 477.243,117.654 C473.629,113.911 473.681,107.963 477.36,104.284 C481.039,100.605 486.987,100.553 490.73,104.167 Z M495.147,99.594 C488.91,93.57 478.995,93.656 472.863,99.787 C466.732,105.919 466.646,115.834 472.67,122.071 C476.661,126.203 482.571,127.86 488.129,126.406 C493.687,124.951 498.027,120.611 499.482,115.053 C500.936,109.495 499.279,103.585 495.147,99.594 Z" />
        </g>
        <g id="Black-M" transform="translate(0,200)">
            <path d="M660.1,112.148 C663.054,110.447 666.69,110.447 669.644,112.148 C671.166,113.024 673.11,112.501 673.986,110.979 C674.862,109.458 674.339,107.514 672.817,106.638 C667.899,103.806 661.845,103.806 656.927,106.638 C655.406,107.514 654.883,109.458 655.759,110.979 C656.635,112.501 658.579,113.024 660.1,112.148 Z M652.565,104.153 C655.019,106.554 655.994,110.088 655.118,113.407 C654.241,116.726 651.649,119.318 648.329,120.194 C645.01,121.07 641.476,120.094 639.076,117.64 C635.423,113.903 635.457,107.922 639.152,104.227 C642.848,100.532 648.829,100.499 652.565,104.153 Z M657.011,99.608 C650.784,93.518 640.816,93.573 634.657,99.731 C628.497,105.889 628.441,115.857 634.53,122.085 C638.53,126.176 644.419,127.802 649.952,126.342 C655.484,124.882 659.805,120.562 661.265,115.03 C662.726,109.498 661.101,103.608 657.011,99.608 Z M690.73,104.167 C693.209,106.562 694.203,110.108 693.33,113.443 C692.458,116.777 689.853,119.382 686.519,120.254 C683.184,121.127 679.638,120.133 677.243,117.654 C673.629,113.911 673.681,107.963 677.36,104.284 C681.039,100.605 686.987,100.553 690.73,104.167 Z M695.147,99.594 C688.91,93.57 678.995,93.656 672.863,99.787 C666.732,105.919 666.646,115.834 672.67,122.071 C676.661,126.203 682.571,127.86 688.129,126.406 C693.687,124.951 698.027,120.611 699.482,115.053 C700.936,109.495 699.279,103.585 695.147,99.594 Z" />
        </g>
    </g>
</svg>