<?xml version="1.0" encoding="UTF-8"?>
<svg height="600" width="800" xmlns="http://www.w3.org/2000/svg" xmlns:xlink="http://www.w3.org/1999/xlink">
    <g id="Notes" font-family="LucidaGrande, 'Lucida Grande', sans-serif" font-size="13">
        <rect fill="white" height="600.0" width="800.0" x="0.0" y="0.0" />
        <g font-size="13">
            <text x="18.0" y="176.0">Small</text>
            <text x="18.0" y="376.0">Medium</text>
            <text x="18.0" y="576.0">Large</text>
        </g>
        <g font-size="9">
            <text x="250.0" y="30.0">Ultralight</text>
            <text x="450.0" y="30.0">Regular</text>
            <text x="650.0" y="30.0">Black</text>
            <text id="template-version" fill="#505050" text-anchor="end" x="785.0" y="575.0">Template v.3.0</text>
            <a href="https://github.com/swhitty/SwiftDraw">
                <text fill="#505050" text-anchor="end" x="785.0" y="590.0">https://github.com/swhitty/SwiftDraw</text>
            </a>
        </g>
    </g>
    <g id="Guides" stroke="rgb(39, 170, 225)" stroke-width="0.5">
        <path id="Capline-S" d="M18,76 l800,0" />
        <path id="H-reference" d="M85,145.755 L87.685,145.755 L113.369,79.287 L114.052,79.287 L114.052,76 L112.148,76 L85,145.755 Z M95.693,121.536 L130.996,121.536 L130.263,119.313 L96.474,119.313 L95.693,121.536 Z M139.15,145.755 L141.787,145.755 L114.638,76 L113.466,76 L113.466,79.287 L139.15,145.755 Z" stroke="none" transform="translate(0,200)" />
        <path id="Baseline-S" d="M18,146 l800,0" />
        <path id="left-margin-Ultralight-M" d="M230,256 l0,110" />
        <path id="right-margin-Ultralight-M" d="M300,256 l0,110" />
        <path id="left-margin-Regular-M" d="M430,256 l0,110" />
        <path id="right-margin-Regular-M" d="M500,256 l0,110" />
        <path id="left-margin-Black-M" d="M630,256 l0,110" />
        <path id="right-margin-Black-M" d="M700,256 l0,110" />
        <path id="Capline-M" d="M18,276 l800,0" />
        <path id="Baseline-M" d="M18,346 l800,0" />
        <path id="Capline-L" d="M18,476 l800,0" />
        <path id="Baseline-L" d="M18,546 l800,0" />
    </g>
    <g id="Symbols">
        <g id="Ultralight-M" transform="translate(0,200)">
            <path d="M237.276,100.199 L249.783,109.133 C251.018,110.013 251.318,110.195 252.206,110.367 C252.276,110.38 252.276,110.38 252.347,110.391 C253.234,110.532 254.155,110.391 254.969,109.987 C255.238,109.852 255.479,109.695 255.704,109.514 C256.173,109.135 256.344,108.927 257.031,108.016 L259.677,104.487 C259.751,104.388 259.769,104.365 259.714,104.423 C259.684,104.455 259.684,104.455 259.65,104.488 C259.601,104.536 259.523,104.599 259.439,104.653 C259.333,104.719 259.345,104.714 259.461,104.661 L270.731,99.654 C271.643,99.249 271.906,99.112 272.393,98.666 C272.863,98.235 273.233,97.706 273.478,97.117 C273.694,96.605 273.761,96.207 273.813,95.557 C273.826,95.393 273.826,95.393 273.838,95.227 L274.662,82.811 C274.769,81.204 273.553,79.814 271.945,79.708 C270.338,79.601 268.948,80.817 268.842,82.425 L268.019,94.818 C268.008,94.965 268.008,94.965 267.999,95.09 C267.994,95.15 268.005,95.082 268.096,94.868 C268.171,94.685 268.295,94.509 268.451,94.366 C268.63,94.202 268.599,94.218 268.364,94.322 L257.078,99.337 C256.683,99.515 256.553,99.578 256.314,99.727 C256.029,99.91 255.794,100.098 255.581,100.308 C255.536,100.352 255.536,100.352 255.473,100.418 C255.304,100.597 255.244,100.674 255.006,100.993 L252.368,104.51 C252.065,104.912 251.963,105.037 252.041,104.974 C252.133,104.899 252.243,104.828 252.367,104.766 C252.646,104.628 252.952,104.581 253.252,104.628 C253.276,104.632 253.276,104.632 253.311,104.639 C253.63,104.7 253.524,104.636 253.172,104.384 L240.667,95.452 C239.356,94.516 237.535,94.819 236.598,96.13 C235.662,97.441 235.966,99.262 237.276,100.199 Z M268.226,118.056 L275.856,121.325 C276.422,121.568 276.605,121.652 276.663,121.687 C276.544,121.615 276.39,121.485 276.235,121.278 C276.023,120.994 275.922,120.652 275.943,120.308 C275.964,119.997 276.029,119.812 276.075,119.729 C276.016,119.836 275.909,120.002 275.602,120.461 L272.014,125.844 C271.886,126.039 271.873,126.055 272.04,125.917 C272.193,125.792 272.363,125.701 272.547,125.645 C272.751,125.582 272.724,125.583 272.502,125.583 L266.683,125.583 C266.368,125.583 266.32,125.58 266.584,125.684 C266.811,125.773 267.012,125.917 267.168,126.104 C267.351,126.323 267.332,126.277 267.232,125.978 L265.157,119.745 C265.096,119.578 265.092,119.563 265.089,119.547 C265.124,119.868 265.114,120.021 265.081,120.171 C265.064,120.242 265.064,120.242 265.06,120.257 C265.022,120.399 265.039,120.361 265.129,120.181 L266.704,117.033 C266.875,116.691 266.915,116.624 266.663,116.829 C266.44,117.009 266.176,117.119 265.899,117.149 C265.557,117.184 265.64,117.204 266.004,117.325 L268.452,118.142 Z M270.298,112.608 L267.842,111.789 C266.486,111.34 266.16,111.259 265.288,111.348 C264.435,111.44 263.645,111.768 262.993,112.295 C262.301,112.857 262.118,113.161 261.487,114.424 L259.907,117.581 C259.583,118.234 259.529,118.354 259.419,118.77 C259.411,118.802 259.411,118.802 259.403,118.836 C259.289,119.34 259.259,119.8 259.302,120.257 C259.391,120.875 259.51,121.316 259.678,121.74 L261.699,127.826 C262.079,128.961 262.203,129.259 262.695,129.848 C263.167,130.411 263.769,130.844 264.448,131.112 C265.167,131.395 265.484,131.417 266.683,131.417 L272.502,131.417 C273.42,131.417 273.676,131.402 274.257,131.222 C274.791,131.06 275.303,130.786 275.747,130.422 C276.213,130.037 276.391,129.801 276.874,129.071 L280.453,123.701 C281.486,122.157 281.691,121.784 281.764,120.686 C281.83,119.64 281.526,118.617 280.908,117.786 C280.563,117.326 280.158,116.984 279.683,116.696 C279.291,116.459 279.032,116.34 278.155,115.964 L270.524,112.694 Z M291.25,111 C291.25,125.498 279.498,137.25 265,137.25 C250.502,137.25 238.75,125.498 238.75,111 C238.75,96.502 250.502,84.75 265,84.75 C279.498,84.75 291.25,96.502 291.25,111 Z M297.083,111 C297.083,93.28 282.72,78.917 265,78.917 C247.28,78.917 232.917,93.28 232.917,111 C232.917,128.72 247.28,143.083 265,143.083 C282.72,143.083 297.083,128.72 297.083,111 Z" />
        </g>
        <g id="Regular-M" transform="translate(0,200)">
            <path d="M437.276,100.199 L449.783,109.133 C451.018,110.013 451.318,110.195 452.206,110.367 C452.276,110.38 452.276,110.38 452.347,110.391 C453.234,110.532 454.155,110.391 454.969,109.987 C455.238,109.852 455.479,109.695 455.704,109.514 C456.173,109.135 456.344,108.927 457.031,108.016 L459.677,104.487 C459.751,104.388 459.769,104.365 459.714,104.423 C459.684,104.455 459.684,104.455 459.65,104.488 C459.601,104.536 459.523,104.599 459.439,104.653 C459.333,104.719 459.345,104.714 459.461,104.661 L470.731,99.654 C471.643,99.249 471.906,99.112 472.393,98.666 C472.863,98.235 473.233,97.706 473.478,97.117 C473.694,96.605 473.761,96.207 473.813,95.557 C473.826,95.393 473.826,95.393 473.838,95.227 L474.662,82.811 C474.769,81.204 473.553,79.814 471.945,79.708 C470.338,79.601 468.948,80.817 468.842,82.425 L468.019,94.818 C468.008,94.965 468.008,94.965 467.999,95.09 C467.994,95.15 468.005,95.082 468.096,94.868 C468.171,94.685 468.295,94.509 468.451,94.366 C468.63,94.202 468.599,94.218 468.364,94.322 L457.078,99.337 C456.683,99.515 456.553,99.578 456.314,99.727 C456.029,99.91 455.794,100.098 455.581,100.308 C455.536,100.352 455.536,100.352 455.473,100.418 C455.304,100.597 455.244,100.674 455.006,100.993 L452.368,104.51 C452.065,104.912 451.963,105.037 452.041,104.974 C452.133,104.899 452.243,104.828 452.367,104.766 C452.646,104.628 452.953,104.581 453.252,104.628 C453.276,104.632 453.276,104.632 453.311,104.639 C453.63,104.7 453.524,104.636 453.172,104.384 L440.667,95.452 C439.356,94.516 437.535,94.819 436.598,96.13 C435.662,97.441 435.966,99.262 437.276,100.199 Z M468.226,118.056 L475.856,121.325 C476.422,121.568 476.605,121.652 476.663,121.687 C476.544,121.615 476.39,121.485 476.235,121.278 C476.023,120.994 475.922,120.652 475.943,120.308 C475.964,119.997 476.029,119.812 476.075,119.729 C476.016,119.836 475.909,120.002 475.602,120.461 L472.014,125.844 C471.886,126.039 471.873,126.055 472.04,125.917 C472.193,125.792 472.363,125.701 472.547,125.645 C472.751,125.582 472.724,125.583 472.502,125.583 L466.683,125.583 C466.368,125.583 466.32,125.58 466.584,125.684 C466.811,125.773 467.012,125.917 467.168,126.104 C467.351,126.323 467.332,126.277 467.232,125.978 L465.157,119.745 C465.096,119.578 465.092,119.563 465.089,119.547 C465.124,119.868 465.114,120.021 465.081,120.171 C465.064,120.242 465.064,120.242 465.06,120.257 C465.022,120.399 465.039,120.361 465.129,120.181 L466.704,117.033 C466.875,116.691 466.915,116.624 466.663,116.829 C466.44,117.009 466.176,117.119 465.899,117.149 C465.557,117.184 465.64,117.204 466.004,117.325 L468.452,118.142 Z M470.298,112.608 L467.842,111.789 C466.486,111.34 466.16,111.259 465.288,111.348 C464.435,111.44 463.645,111.768 462.993,112.295 C462.301,112.857 462.118,113.161 461.487,114.424 L459.907,117.581 C459.583,118.234 459.529,118.354 459.419,118.77 C459.411,118.802 459.411,118.802 459.403,118.836 C459.289,119.34 459.259,119.8 459.302,120.257 C459.391,120.875 459.51,121.316 459.678,121.74 L461.699,127.826 C462.079,128.961 462.203,129.259 462.695,129.848 C463.167,130.411 463.769,130.844 464.448,131.112 C465.167,131.395 465.484,131.417 466.683,131.417 L472.502,131.417 C473.42,131.417 473.676,131.402 474.257,131.222 C474.791,131.06 475.303,130.786 475.747,130.422 C476.213,130.037 476.391,129.801 476.874,129.071 L480.453,123.701 C481.486,122.157 481.691,121.784 481.764,120.686 C481.83,119.64 481.526,118.617 480.908,117.786 C480.563,117.326 480.158,116.984 479.683,116.696 C479.291,116.459 479.032,116.34 478.155,115.964 L470.524,112.694 Z M491.25,111 C491.25,125.498 479.498,137.25 465,137.25 C450.502,137.25 438.75,125.498 438.75,111 C438.75,96.502 450.502,84.75 465,84.75 C479.498,84.75 491.25,96.502 491.25,111 Z M497.083,111 C497.083,93.28 482.72,78.917 465,78.917 C447.28,78.917 432.917,93.28 432.917,111 C432.917,128.72 447.28,143.083 465,143.083 C482.72,143.083 497.083,128.72 497.083,111 Z" />
        </g>
        <g id="Black-M" transform="translate(0,200)">
            <path d="M637.276,100.199 L649.783,109.133 C651.018,110.013 651.318,110.195 652.206,110.367 C652.276,110.38 652.276,110.38 652.347,110.391 C653.234,110.532 654.155,110.391 654.969,109.987 C655.238,109.852 655.479,109.695 655.704,109.514 C656.173,109.135 656.344,108.927 657.031,108.016 L659.677,104.487 C659.751,104.388 659.769,104.365 659.714,104.423 C659.684,104.455 659.684,104.455 659.65,104.488 C659.601,104.536 659.523,104.599 659.439,104.653 C659.333,104.719 659.345,104.714 659.461,104.661 L670.731,99.654 C671.643,99.249 671.906,99.112 672.393,98.666 C672.863,98.235 673.233,97.706 673.478,97.117 C673.693,96.605 673.761,96.207 673.813,95.557 C673.826,95.393 673.826,95.393 673.838,95.227 L674.662,82.811 C674.769,81.204 673.553,79.814 671.945,79.708 C670.338,79.601 668.948,80.817 668.842,82.425 L668.019,94.818 C668.008,94.965 668.008,94.965 667.999,95.09 C667.994,95.15 668.005,95.082 668.096,94.868 C668.171,94.685 668.295,94.509 668.451,94.366 C668.63,94.202 668.599,94.218 668.364,94.322 L657.078,99.337 C656.683,99.515 656.553,99.578 656.314,99.727 C656.029,99.91 655.794,100.098 655.581,100.308 C655.536,100.352 655.536,100.352 655.473,100.418 C655.304,100.597 655.244,100.674 655.006,100.993 L652.368,104.51 C652.065,104.912 651.963,105.037 652.041,104.974 C652.133,104.899 652.243,104.828 652.367,104.766 C652.646,104.628 652.953,104.581 653.252,104.628 C653.276,104.632 653.276,104.632 653.311,104.639 C653.63,104.7 653.524,104.636 653.172,104.384 L640.667,95.452 C639.356,94.516 637.535,94.819 636.598,96.13 C635.662,97.441 635.966,99.262 637.276,100.199 Z M668.226,118.056 L675.856,121.325 C676.422,121.568 676.605,121.652 676.663,121.687 C676.544,121.615 676.39,121.485 676.235,121.278 C676.023,120.994 675.922,120.652 675.943,120.308 C675.964,119.997 676.029,119.812 676.075,119.729 C676.016,119.836 675.909,120.002 675.602,120.461 L672.014,125.844 C671.886,126.039 671.873,126.055 672.04,125.917 C672.193,125.792 672.363,125.701 672.547,125.645 C672.751,125.582 672.724,125.583 672.502,125.583 L666.683,125.583 C666.368,125.583 666.32,125.58 666.584,125.684 C666.811,125.773 667.012,125.917 667.168,126.104 C667.351,126.323 667.332,126.277 667.232,125.978 L665.157,119.745 C665.096,119.578 665.092,119.563 665.089,119.547 C665.124,119.868 665.114,120.021 665.081,120.171 C665.064,120.242 665.064,120.242 665.06,120.257 C665.022,120.399 665.039,120.361 665.129,120.181 L666.704,117.033 C666.875,116.691 666.915,116.624 666.663,116.829 C666.44,117.009 666.176,117.119 665.899,117.149 C665.557,117.184 665.64,117.204 666.004,117.325 L668.452,118.142 Z M670.298,112.608 L667.842,111.789 C666.486,111.34 666.16,111.259 665.288,111.348 C664.435,111.44 663.645,111.768 662.993,112.295 C662.301,112.857 662.118,113.161 661.487,114.424 L659.907,117.581 C659.583,118.234 659.529,118.354 659.419,118.77 C659.411,118.802 659.411,118.802 659.403,118.836 C659.289,119.34 659.259,119.8 659.302,120.257 C659.391,120.875 659.51,121.316 659.678,121.74 L661.699,127.826 C662.079,128.961 662.203,129.259 662.695,129.848 C663.167,130.411 663.769,130.844 664.448,131.112 C665.167,131.395 665.484,131.417 666.683,131.417 L672.502,131.417 C673.42,131.417 673.676,131.402 674.257,131.222 C674.791,131.06 675.303,130.786 675.747,130.422 C676.213,130.037 676.391,129.801 676.874,129.071 L680.453,123.701 C681.486,122.157 681.691,121.784 681.764,120.686 C681.83,119.64 681.526,118.617 680.908,117.786 C680.563,117.326 680.158,116.984 679.683,116.696 C679.291,116.459 679.032,116.34 678.155,115.964 L670.524,112.694 Z M691.25,111 C691.25,125.498 679.498,137.25 665,137.25 C650.502,137.25 638.75,125.498 638.75,111 C638.75,96.502 650.502,84.75 665,84.75 C679.498,84.75 691.25,96.502 691.25,111 Z M697.083,111 C697.083,93.28 682.72,78.917 665,78.917 C647.28,78.917 632.917,93.28 632.917,111 C632.917,128.72 647.28,143.083 665,143.083 C682.72,143.083 697.083,128.72 697.083,111 Z" />
        </g>
    </g>
</svg>