<?xml version="1.0" encoding="UTF-8"?>
<svg height="600" width="800" xmlns="http://www.w3.org/2000/svg" xmlns:xlink="http://www.w3.org/1999/xlink">
    <g id="Notes" font-family="LucidaGrande, 'Lucida Grande', sans-serif" font-size="13">
        <rect fill="white" height="600.0" width="800.0" x="0.0" y="0.0" />
        <g font-size="13">
            <text x="18.0" y="176.0">Small</text>
            <text x="18.0" y="376.0">Medium</text>
            <text x="18.0" y="576.0">Large</text>
        </g>
        <g font-size="9">
            <text x="250.0" y="30.0">Ultralight</text>
            <text x="450.0" y="30.0">Regular</text>
            <text x="650.0" y="30.0">Black</text>
            <text id="template-version" fill="#505050" text-anchor="end" x="785.0" y="575.0">Template v.3.0</text>
            <a href="https://github.com/swhitty/SwiftDraw">
                <text fill="#505050" text-anchor="end" x="785.0" y="590.0">https://github.com/swhitty/SwiftDraw</text>
            </a>
        </g>
    </g>
    <g id="Guides" stroke="rgb(39, 170, 225)" stroke-width="0.5">
        <path id="Capline-S" d="M18,76 l800,0" />
        <path id="H-reference" d="M85,145.755 L87.685,145.755 L113.369,79.287 L114.052,79.287 L114.052,76 L112.148,76 L85,145.755 Z M95.693,121.536 L130.996,121.536 L130.263,119.313 L96.474,119.313 L95.693,121.536 Z M139.15,145.755 L141.787,145.755 L114.638,76 L113.466,76 L113.466,79.287 L139.15,145.755 Z" stroke="none" transform="translate(0,200)" />
        <path id="Baseline-S" d="M18,146 l800,0" />
        <path id="left-margin-Ultralight-M" d="M230,256 l0,110" />
        <path id="right-margin-Ultralight-M" d="M300,256 l0,110" />
        <path id="left-margin-Regular-M" d="M430,256 l0,110" />
        <path id="right-margin-Regular-M" d="M500,256 l0,110" />
        <path id="left-margin-Black-M" d="M630,256 l0,110" />
        <path id="right-margin-Black-M" d="M700,256 l0,110" />
        <path id="Capline-M" d="M18,276 l800,0" />
        <path id="Baseline-M" d="M18,346 l800,0" />
        <path id="Capline-L" d="M18,476 l800,0" />
        <path id="Baseline-L" d="M18,546 l800,0" />
    </g>
    <g id="Symbols">
        <g id="Ultralight-M" transform="translate(0,200)">
            <path d="M263.382,84.26 C270.093,88.734 273.492,98.601 273.751,111.061 C273.492,123.399 270.093,133.266 263.382,137.74 C262.042,138.633 261.68,140.444 262.573,141.785 C263.467,143.125 265.278,143.487 266.618,142.593 C275.304,136.803 279.288,125.236 279.583,111.061 C279.288,96.764 275.304,85.197 266.618,79.407 C265.278,78.513 263.467,78.875 262.573,80.215 C261.68,81.556 262.042,83.367 263.382,84.26 Z M263.382,79.407 C254.696,85.197 250.712,96.764 250.417,110.939 C250.712,125.236 254.696,136.803 263.382,142.593 C264.722,143.487 266.533,143.125 267.427,141.785 C268.32,140.444 267.958,138.633 266.618,137.74 C259.907,133.266 256.508,123.399 256.249,110.939 C256.508,98.601 259.907,88.734 266.618,84.26 C267.958,83.367 268.32,81.556 267.427,80.215 C266.533,78.875 264.722,78.513 263.382,79.407 Z M265,78.917 C247.28,78.917 232.917,93.28 232.917,111 C232.917,112.611 234.223,113.917 235.833,113.917 C237.444,113.917 238.75,112.611 238.75,111 C238.75,96.502 250.502,84.75 265,84.75 C266.611,84.75 267.917,83.444 267.917,81.833 C267.917,80.223 266.611,78.917 265,78.917 Z M265,84.75 C279.498,84.75 291.25,96.502 291.25,111 C291.25,112.611 292.556,113.917 294.167,113.917 C295.777,113.917 297.083,112.611 297.083,111 C297.083,93.28 282.72,78.917 265,78.917 C263.389,78.917 262.083,80.223 262.083,81.833 C262.083,83.444 263.389,84.75 265,84.75 Z M265,143.083 C282.72,143.083 297.083,128.72 297.083,111 C297.083,109.389 295.777,108.083 294.167,108.083 C292.556,108.083 291.25,109.389 291.25,111 C291.25,125.498 279.498,137.25 265,137.25 C263.389,137.25 262.083,138.556 262.083,140.167 C262.083,141.777 263.389,143.083 265,143.083 Z M265,137.25 C250.502,137.25 238.75,125.498 238.75,111 C238.75,109.389 237.444,108.083 235.833,108.083 C234.223,108.083 232.917,109.389 232.917,111 C232.917,128.72 247.28,143.083 265,143.083 C266.611,143.083 267.917,141.777 267.917,140.167 C267.917,138.556 266.611,137.25 265,137.25 Z M291.74,109.382 C287.266,116.093 277.399,119.492 264.939,119.751 C252.601,119.492 242.734,116.093 238.26,109.382 C237.367,108.042 235.556,107.68 234.215,108.573 C232.875,109.467 232.513,111.278 233.407,112.618 C239.197,121.304 250.764,125.288 264.939,125.583 C279.236,125.288 290.803,121.304 296.593,112.618 C297.487,111.278 297.125,109.467 295.785,108.573 C294.444,107.68 292.633,108.042 291.74,109.382 Z M296.593,109.382 C290.803,100.696 279.236,96.712 265.061,96.417 C250.764,96.712 239.197,100.696 233.407,109.382 C232.513,110.722 232.875,112.533 234.215,113.427 C235.556,114.32 237.367,113.958 238.26,112.618 C242.734,105.907 252.601,102.508 265.061,102.249 C277.399,102.508 287.266,105.907 291.74,112.618 C292.633,113.958 294.444,114.32 295.785,113.427 C297.125,112.533 297.487,110.722 296.593,109.382 Z" />
        </g>
        <g id="Regular-M" transform="translate(0,200)">
            <path d="M463.382,84.26 C470.093,88.734 473.492,98.601 473.751,111.061 C473.492,123.399 470.093,133.266 463.382,137.74 C462.042,138.633 461.68,140.444 462.573,141.785 C463.467,143.125 465.278,143.487 466.618,142.593 C475.304,136.803 479.288,125.236 479.583,111.061 C479.288,96.764 475.304,85.197 466.618,79.407 C465.278,78.513 463.467,78.875 462.573,80.215 C461.68,81.556 462.042,83.367 463.382,84.26 Z M463.382,79.407 C454.696,85.197 450.712,96.764 450.417,110.939 C450.712,125.236 454.696,136.803 463.382,142.593 C464.722,143.487 466.533,143.125 467.427,141.785 C468.32,140.444 467.958,138.633 466.618,137.74 C459.907,133.266 456.508,123.399 456.249,110.939 C456.508,98.601 459.907,88.734 466.618,84.26 C467.958,83.367 468.32,81.556 467.427,80.215 C466.533,78.875 464.722,78.513 463.382,79.407 Z M465,78.917 C447.28,78.917 432.917,93.28 432.917,111 C432.917,112.611 434.223,113.917 435.833,113.917 C437.444,113.917 438.75,112.611 438.75,111 C438.75,96.502 450.502,84.75 465,84.75 C466.611,84.75 467.917,83.444 467.917,81.833 C467.917,80.223 466.611,78.917 465,78.917 Z M465,84.75 C479.498,84.75 491.25,96.502 491.25,111 C491.25,112.611 492.556,113.917 494.167,113.917 C495.777,113.917 497.083,112.611 497.083,111 C497.083,93.28 482.72,78.917 465,78.917 C463.389,78.917 462.083,80.223 462.083,81.833 C462.083,83.444 463.389,84.75 465,84.75 Z M465,143.083 C482.72,143.083 497.083,128.72 497.083,111 C497.083,109.389 495.777,108.083 494.167,108.083 C492.556,108.083 491.25,109.389 491.25,111 C491.25,125.498 479.498,137.25 465,137.25 C463.389,137.25 462.083,138.556 462.083,140.167 C462.083,141.777 463.389,143.083 465,143.083 Z M465,137.25 C450.502,137.25 438.75,125.498 438.75,111 C438.75,109.389 437.444,108.083 435.833,108.083 C434.223,108.083 432.917,109.389 432.917,111 C432.917,128.72 447.28,143.083 465,143.083 C466.611,143.083 467.917,141.777 467.917,140.167 C467.917,138.556 466.611,137.25 465,137.25 Z M491.74,109.382 C487.266,116.093 477.399,119.492 464.939,119.751 C452.601,119.492 442.734,116.093 438.26,109.382 C437.367,108.042 435.556,107.68 434.215,108.573 C432.875,109.467 432.513,111.278 433.407,112.618 C439.197,121.304 450.764,125.288 464.939,125.583 C479.236,125.288 490.803,121.304 496.593,112.618 C497.487,111.278 497.125,109.467 495.785,108.573 C494.444,107.68 492.633,108.042 491.74,109.382 Z M496.593,109.382 C490.803,100.696 479.236,96.712 465.061,96.417 C450.764,96.712 439.197,100.696 433.407,109.382 C432.513,110.722 432.875,112.533 434.215,113.427 C435.556,114.32 437.367,113.958 438.26,112.618 C442.734,105.907 452.601,102.508 465.061,102.249 C477.399,102.508 487.266,105.907 491.74,112.618 C492.633,113.958 494.444,114.32 495.785,113.427 C497.125,112.533 497.487,110.722 496.593,109.382 Z" />
        </g>
        <g id="Black-M" transform="translate(0,200)">
            <path d="M663.382,84.26 C670.093,88.734 673.492,98.601 673.751,111.061 C673.492,123.399 670.093,133.266 663.382,137.74 C662.042,138.633 661.68,140.444 662.573,141.785 C663.467,143.125 665.278,143.487 666.618,142.593 C675.304,136.803 679.288,125.236 679.583,111.061 C679.288,96.764 675.304,85.197 666.618,79.407 C665.278,78.513 663.467,78.875 662.573,80.215 C661.68,81.556 662.042,83.367 663.382,84.26 Z M663.382,79.407 C654.696,85.197 650.712,96.764 650.417,110.939 C650.712,125.236 654.696,136.803 663.382,142.593 C664.722,143.487 666.533,143.125 667.427,141.785 C668.32,140.444 667.958,138.633 666.618,137.74 C659.907,133.266 656.508,123.399 656.249,110.939 C656.508,98.601 659.907,88.734 666.618,84.26 C667.958,83.367 668.32,81.556 667.427,80.215 C666.533,78.875 664.722,78.513 663.382,79.407 Z M665,78.917 C647.28,78.917 632.917,93.28 632.917,111 C632.917,112.611 634.222,113.917 635.833,113.917 C637.444,113.917 638.75,112.611 638.75,111 C638.75,96.502 650.502,84.75 665,84.75 C666.611,84.75 667.917,83.444 667.917,81.833 C667.917,80.223 666.611,78.917 665,78.917 Z M665,84.75 C679.498,84.75 691.25,96.502 691.25,111 C691.25,112.611 692.556,113.917 694.167,113.917 C695.777,113.917 697.083,112.611 697.083,111 C697.083,93.28 682.72,78.917 665,78.917 C663.389,78.917 662.083,80.223 662.083,81.833 C662.083,83.444 663.389,84.75 665,84.75 Z M665,143.083 C682.72,143.083 697.083,128.72 697.083,111 C697.083,109.389 695.777,108.083 694.167,108.083 C692.556,108.083 691.25,109.389 691.25,111 C691.25,125.498 679.498,137.25 665,137.25 C663.389,137.25 662.083,138.556 662.083,140.167 C662.083,141.777 663.389,143.083 665,143.083 Z M665,137.25 C650.502,137.25 638.75,125.498 638.75,111 C638.75,109.389 637.444,108.083 635.833,108.083 C634.222,108.083 632.917,109.389 632.917,111 C632.917,128.72 647.28,143.083 665,143.083 C666.611,143.083 667.917,141.777 667.917,140.167 C667.917,138.556 666.611,137.25 665,137.25 Z M691.74,109.382 C687.266,116.093 677.399,119.492 664.939,119.751 C652.601,119.492 642.734,116.093 638.26,109.382 C637.367,108.042 635.556,107.68 634.215,108.573 C632.875,109.467 632.513,111.278 633.406,112.618 C639.197,121.304 650.764,125.288 664.939,125.583 C679.236,125.288 690.803,121.304 696.594,112.618 C697.487,111.278 697.125,109.467 695.785,108.573 C694.444,107.68 692.633,108.042 691.74,109.382 Z M696.594,109.382 C690.803,100.696 679.236,96.712 665.061,96.417 C650.764,96.712 639.197,100.696 633.406,109.382 C632.513,110.722 632.875,112.533 634.215,113.427 C635.556,114.32 637.367,113.958 638.26,112.618 C642.734,105.907 652.601,102.508 665.061,102.249 C677.399,102.508 687.266,105.907 691.74,112.618 C692.633,113.958 694.444,114.32 695.785,113.427 C697.125,112.533 697.487,110.722 696.594,109.382 Z" />
        </g>
    </g>
</svg>