<?xml version="1.0" encoding="UTF-8"?>
<svg height="600" width="800" xmlns="http://www.w3.org/2000/svg" xmlns:xlink="http://www.w3.org/1999/xlink">
    <g id="Notes" font-family="LucidaGrande, 'Lucida Grande', sans-serif" font-size="13">
        <rect fill="white" height="600.0" width="800.0" x="0.0" y="0.0" />
        <g font-size="13">
            <text x="18.0" y="176.0">Small</text>
            <text x="18.0" y="376.0">Medium</text>
            <text x="18.0" y="576.0">Large</text>
        </g>
        <g font-size="9">
            <text x="250.0" y="30.0">Ultralight</text>
            <text x="450.0" y="30.0">Regular</text>
            <text x="650.0" y="30.0">Black</text>
            <text id="template-version" fill="#505050" text-anchor="end" x="785.0" y="575.0">Template v.3.0</text>
            <a href="https://github.com/swhitty/SwiftDraw">
                <text fill="#505050" text-anchor="end" x="785.0" y="590.0">https://github.com/swhitty/SwiftDraw</text>
            </a>
        </g>
    </g>
    <g id="Guides" stroke="rgb(39, 170, 225)" stroke-width="0.5">
        <path id="Capline-S" d="M18,76 l800,0" />
        <path id="H-reference" d="M85,145.755 L87.685,145.755 L113.369,79.287 L114.052,79.287 L114.052,76 L112.148,76 L85,145.755 Z M95.693,121.536 L130.996,121.536 L130.263,119.313 L96.474,119.313 L95.693,121.536 Z M139.15,145.755 L141.787,145.755 L114.638,76 L113.466,76 L113.466,79.287 L139.15,145.755 Z" stroke="none" transform="translate(0,200)" />
        <path id="Baseline-S" d="M18,146 l800,0" />
        <path id="left-margin-Ultralight-M" d="M230,256 l0,110" />
        <path id="right-margin-Ultralight-M" d="M300,256 l0,110" />
        <path id="left-margin-Regular-M" d="M430,256 l0,110" />
        <path id="right-margin-Regular-M" d="M500,256 l0,110" />
        <path id="left-margin-Black-M" d="M630,256 l0,110" />
        <path id="right-margin-Black-M" d="M700,256 l0,110" />
        <path id="Capline-M" d="M18,276 l800,0" />
        <path id="Baseline-M" d="M18,346 l800,0" />
        <path id="Capline-L" d="M18,476 l800,0" />
        <path id="Baseline-L" d="M18,546 l800,0" />
    </g>
    <g id="Symbols">
        <g id="Ultralight-M" transform="translate(0,200)">
            <path d="M282.281,84.969 C294.238,96.929 294.238,116.321 282.281,128.281 C270.881,139.678 252.615,140.269 240.529,129.737 C240.22,129.467 240.113,129.37 240.065,129.32 C240.145,129.403 240.255,129.565 240.344,129.795 C240.466,130.132 240.475,130.435 240.393,130.718 C240.353,130.852 240.31,130.956 240.261,131.052 C240.184,131.202 240.283,131.091 240.622,130.75 L247.083,124.292 C248.222,123.153 248.222,121.307 247.084,120.167 C245.945,119.028 244.098,119.028 242.959,120.166 L236.493,126.63 C235.606,127.521 235.398,127.753 235.075,128.381 C234.962,128.6 234.87,128.827 234.798,129.065 C234.53,129.988 234.559,130.947 234.877,131.829 C235.259,132.825 235.562,133.144 236.695,134.133 C251.091,146.678 272.834,145.975 286.405,132.406 C300.641,118.168 300.641,95.082 286.406,80.845 C285.267,79.705 283.42,79.705 282.281,80.844 C281.142,81.983 281.142,83.83 282.281,84.969 Z M279.583,106.625 C279.583,117.095 271.095,125.583 260.625,125.583 C250.155,125.583 241.667,117.095 241.667,106.625 C241.667,96.155 250.155,87.667 260.625,87.667 C271.095,87.667 279.583,96.155 279.583,106.625 Z M285.417,106.625 C285.417,92.933 274.317,81.833 260.625,81.833 C246.933,81.833 235.833,92.933 235.833,106.625 C235.833,120.317 246.933,131.417 260.625,131.417 C274.317,131.417 285.417,120.317 285.417,106.625 Z" />
        </g>
        <g id="Regular-M" transform="translate(0,200)">
            <path d="M482.281,84.969 C494.238,96.929 494.238,116.321 482.281,128.281 C470.881,139.678 452.615,140.269 440.529,129.737 C440.22,129.467 440.113,129.37 440.065,129.32 C440.145,129.403 440.255,129.565 440.344,129.795 C440.466,130.132 440.475,130.435 440.393,130.718 C440.353,130.852 440.31,130.956 440.261,131.052 C440.184,131.202 440.283,131.091 440.622,130.75 L447.083,124.292 C448.222,123.153 448.222,121.307 447.084,120.167 C445.945,119.028 444.098,119.028 442.959,120.166 L436.493,126.63 C435.606,127.521 435.398,127.753 435.075,128.381 C434.962,128.6 434.87,128.827 434.798,129.065 C434.53,129.988 434.559,130.947 434.877,131.829 C435.259,132.825 435.562,133.144 436.695,134.133 C451.091,146.678 472.834,145.975 486.405,132.406 C500.641,118.168 500.641,95.082 486.406,80.845 C485.267,79.705 483.42,79.705 482.281,80.844 C481.142,81.983 481.142,83.83 482.281,84.969 Z M479.583,106.625 C479.583,117.095 471.095,125.583 460.625,125.583 C450.155,125.583 441.667,117.095 441.667,106.625 C441.667,96.155 450.155,87.667 460.625,87.667 C471.095,87.667 479.583,96.155 479.583,106.625 Z M485.417,106.625 C485.417,92.933 474.317,81.833 460.625,81.833 C446.933,81.833 435.833,92.933 435.833,106.625 C435.833,120.317 446.933,131.417 460.625,131.417 C474.317,131.417 485.417,120.317 485.417,106.625 Z" />
        </g>
        <g id="Black-M" transform="translate(0,200)">
            <path d="M682.281,84.969 C694.238,96.929 694.238,116.321 682.281,128.281 C670.881,139.678 652.615,140.269 640.529,129.737 C640.22,129.467 640.113,129.37 640.065,129.32 C640.145,129.403 640.255,129.565 640.344,129.795 C640.466,130.132 640.475,130.435 640.393,130.718 C640.353,130.852 640.31,130.956 640.261,131.052 C640.184,131.202 640.283,131.091 640.622,130.75 L647.083,124.292 C648.222,123.153 648.222,121.307 647.084,120.167 C645.945,119.028 644.098,119.028 642.959,120.166 L636.493,126.63 C635.606,127.521 635.398,127.753 635.075,128.381 C634.962,128.6 634.87,128.827 634.798,129.065 C634.53,129.988 634.56,130.947 634.877,131.829 C635.259,132.825 635.562,133.144 636.695,134.133 C651.091,146.678 672.834,145.975 686.406,132.406 C700.641,118.168 700.641,95.082 686.406,80.845 C685.267,79.705 683.42,79.705 682.281,80.844 C681.142,81.983 681.142,83.83 682.281,84.969 Z M679.583,106.625 C679.583,117.095 671.095,125.583 660.625,125.583 C650.155,125.583 641.667,117.095 641.667,106.625 C641.667,96.155 650.155,87.667 660.625,87.667 C671.095,87.667 679.583,96.155 679.583,106.625 Z M685.417,106.625 C685.417,92.933 674.317,81.833 660.625,81.833 C646.933,81.833 635.833,92.933 635.833,106.625 C635.833,120.317 646.933,131.417 660.625,131.417 C674.317,131.417 685.417,120.317 685.417,106.625 Z" />
        </g>
    </g>
</svg>