<?xml version="1.0" encoding="UTF-8"?>
<svg height="600" width="800" xmlns="http://www.w3.org/2000/svg" xmlns:xlink="http://www.w3.org/1999/xlink">
    <g id="Notes" font-family="LucidaGrande, 'Lucida Grande', sans-serif" font-size="13">
        <rect fill="white" height="600.0" width="800.0" x="0.0" y="0.0" />
        <g font-size="13">
            <text x="18.0" y="176.0">Small</text>
            <text x="18.0" y="376.0">Medium</text>
            <text x="18.0" y="576.0">Large</text>
        </g>
        <g font-size="9">
            <text x="250.0" y="30.0">Ultralight</text>
            <text x="450.0" y="30.0">Regular</text>
            <text x="650.0" y="30.0">Black</text>
            <text id="template-version" fill="#505050" text-anchor="end" x="785.0" y="575.0">Template v.3.0</text>
            <a href="https://github.com/swhitty/SwiftDraw">
                <text fill="#505050" text-anchor="end" x="785.0" y="590.0">https://github.com/swhitty/SwiftDraw</text>
            </a>
        </g>
    </g>
    <g id="Guides" stroke="rgb(39, 170, 225)" stroke-width="0.5">
        <path id="Capline-S" d="M18,76 l800,0" />
        <path id="H-reference" d="M85,145.755 L87.685,145.755 L113.369,79.287 L114.052,79.287 L114.052,76 L112.148,76 L85,145.755 Z M95.693,121.536 L130.996,121.536 L130.263,119.313 L96.474,119.313 L95.693,121.536 Z M139.15,145.755 L141.787,145.755 L114.638,76 L113.466,76 L113.466,79.287 L139.15,145.755 Z" stroke="none" transform="translate(0,200)" />
        <path id="Baseline-S" d="M18,146 l800,0" />
        <path id="left-margin-Ultralight-M" d="M230,256 l0,110" />
        <path id="right-margin-Ultralight-M" d="M300,256 l0,110" />
        <path id="left-margin-Regular-M" d="M430,256 l0,110" />
        <path id="right-margin-Regular-M" d="M500,256 l0,110" />
        <path id="left-margin-Black-M" d="M630,256 l0,110" />
        <path id="right-margin-Black-M" d="M700,256 l0,110" />
        <path id="Capline-M" d="M18,276 l800,0" />
        <path id="Baseline-M" d="M18,346 l800,0" />
        <path id="Capline-L" d="M18,476 l800,0" />
        <path id="Baseline-L" d="M18,546 l800,0" />
    </g>
    <g id="Symbols">
        <g id="Ultralight-M" transform="translate(0,200)">
            <path d="M233.498,83 L233.533,83 C235.465,83 237.031,81.433 237.031,79.5 C237.031,77.567 235.465,76 233.533,76 L233.498,76 C231.566,76 230,77.567 230,79.5 C230,81.433 231.566,83 233.498,83 Z M233.498,114.5 L233.533,114.5 C235.465,114.5 237.031,112.933 237.031,111 C237.031,109.067 235.465,107.5 233.533,107.5 L233.498,107.5 C231.566,107.5 230,109.067 230,111 C230,112.933 231.566,114.5 233.498,114.5 Z M233.498,130.25 L233.533,130.25 C235.465,130.25 237.031,128.683 237.031,126.75 C237.031,124.817 235.465,123.25 233.533,123.25 L233.498,123.25 C231.566,123.25 230,124.817 230,126.75 C230,128.683 231.566,130.25 233.498,130.25 Z M233.498,98.75 L233.533,98.75 C235.465,98.75 237.031,97.183 237.031,95.25 C237.031,93.317 235.465,91.75 233.533,91.75 L233.498,91.75 C231.566,91.75 230,93.317 230,95.25 C230,97.183 231.566,98.75 233.498,98.75 Z M249.24,83 L249.275,83 C251.207,83 252.774,81.433 252.774,79.5 C252.774,77.567 251.207,76 249.275,76 L249.24,76 C247.308,76 245.742,77.567 245.742,79.5 C245.742,81.433 247.308,83 249.24,83 Z M249.24,114.5 L249.275,114.5 C251.207,114.5 252.774,112.933 252.774,111 C252.774,109.067 251.207,107.5 249.275,107.5 L249.24,107.5 C247.308,107.5 245.742,109.067 245.742,111 C245.742,112.933 247.308,114.5 249.24,114.5 Z M280.725,83 L280.76,83 C282.692,83 284.258,81.433 284.258,79.5 C284.258,77.567 282.692,76 280.76,76 L280.725,76 C278.793,76 277.226,77.567 277.226,79.5 C277.226,81.433 278.793,83 280.725,83 Z M280.725,114.5 L280.76,114.5 C282.692,114.5 284.258,112.933 284.258,111 C284.258,109.067 282.692,107.5 280.76,107.5 L280.725,107.5 C278.793,107.5 277.226,109.067 277.226,111 C277.226,112.933 278.793,114.5 280.725,114.5 Z M264.983,83 L265.017,83 C266.95,83 268.516,81.433 268.516,79.5 C268.516,77.567 266.95,76 265.017,76 L264.983,76 C263.05,76 261.484,77.567 261.484,79.5 C261.484,81.433 263.05,83 264.983,83 Z M264.983,114.5 L265.017,114.5 C266.95,114.5 268.516,112.933 268.516,111 C268.516,109.067 266.95,107.5 265.017,107.5 L264.983,107.5 C263.05,107.5 261.484,109.067 261.484,111 C261.484,112.933 263.05,114.5 264.983,114.5 Z M264.983,130.25 L265.017,130.25 C266.95,130.25 268.516,128.683 268.516,126.75 C268.516,124.817 266.95,123.25 265.017,123.25 L264.983,123.25 C263.05,123.25 261.484,124.817 261.484,126.75 C261.484,128.683 263.05,130.25 264.983,130.25 Z M264.983,98.75 L265.017,98.75 C266.95,98.75 268.516,97.183 268.516,95.25 C268.516,93.317 266.95,91.75 265.017,91.75 L264.983,91.75 C263.05,91.75 261.484,93.317 261.484,95.25 C261.484,97.183 263.05,98.75 264.983,98.75 Z M296.467,83 L296.502,83 C298.434,83 300,81.433 300,79.5 C300,77.567 298.434,76 296.502,76 L296.467,76 C294.535,76 292.969,77.567 292.969,79.5 C292.969,81.433 294.535,83 296.467,83 Z M296.467,114.5 L296.502,114.5 C298.434,114.5 300,112.933 300,111 C300,109.067 298.434,107.5 296.502,107.5 L296.467,107.5 C294.535,107.5 292.969,109.067 292.969,111 C292.969,112.933 294.535,114.5 296.467,114.5 Z M296.467,130.25 L296.502,130.25 C298.434,130.25 300,128.683 300,126.75 C300,124.817 298.434,123.25 296.502,123.25 L296.467,123.25 C294.535,123.25 292.969,124.817 292.969,126.75 C292.969,128.683 294.535,130.25 296.467,130.25 Z M296.467,98.75 L296.502,98.75 C298.434,98.75 300,97.183 300,95.25 C300,93.317 298.434,91.75 296.502,91.75 L296.467,91.75 C294.535,91.75 292.969,93.317 292.969,95.25 C292.969,97.183 294.535,98.75 296.467,98.75 Z M296.467,139 L233.498,139 C231.566,139 230,140.567 230,142.5 C230,144.433 231.566,146 233.498,146 L296.467,146 C298.399,146 299.965,144.433 299.965,142.5 C299.965,140.567 298.399,139 296.467,139 Z" />
        </g>
        <g id="Regular-M" transform="translate(0,200)">
            <path d="M433.498,83 L433.533,83 C435.465,83 437.031,81.433 437.031,79.5 C437.031,77.567 435.465,76 433.533,76 L433.498,76 C431.566,76 430,77.567 430,79.5 C430,81.433 431.566,83 433.498,83 Z M433.498,114.5 L433.533,114.5 C435.465,114.5 437.031,112.933 437.031,111 C437.031,109.067 435.465,107.5 433.533,107.5 L433.498,107.5 C431.566,107.5 430,109.067 430,111 C430,112.933 431.566,114.5 433.498,114.5 Z M433.498,130.25 L433.533,130.25 C435.465,130.25 437.031,128.683 437.031,126.75 C437.031,124.817 435.465,123.25 433.533,123.25 L433.498,123.25 C431.566,123.25 430,124.817 430,126.75 C430,128.683 431.566,130.25 433.498,130.25 Z M433.498,98.75 L433.533,98.75 C435.465,98.75 437.031,97.183 437.031,95.25 C437.031,93.317 435.465,91.75 433.533,91.75 L433.498,91.75 C431.566,91.75 430,93.317 430,95.25 C430,97.183 431.566,98.75 433.498,98.75 Z M449.24,83 L449.275,83 C451.207,83 452.774,81.433 452.774,79.5 C452.774,77.567 451.207,76 449.275,76 L449.24,76 C447.308,76 445.742,77.567 445.742,79.5 C445.742,81.433 447.308,83 449.24,83 Z M449.24,114.5 L449.275,114.5 C451.207,114.5 452.774,112.933 452.774,111 C452.774,109.067 451.207,107.5 449.275,107.5 L449.24,107.5 C447.308,107.5 445.742,109.067 445.742,111 C445.742,112.933 447.308,114.5 449.24,114.5 Z M480.725,83 L480.76,83 C482.692,83 484.258,81.433 484.258,79.5 C484.258,77.567 482.692,76 480.76,76 L480.725,76 C478.793,76 477.226,77.567 477.226,79.5 C477.226,81.433 478.793,83 480.725,83 Z M480.725,114.5 L480.76,114.5 C482.692,114.5 484.258,112.933 484.258,111 C484.258,109.067 482.692,107.5 480.76,107.5 L480.725,107.5 C478.793,107.5 477.226,109.067 477.226,111 C477.226,112.933 478.793,114.5 480.725,114.5 Z M464.983,83 L465.017,83 C466.95,83 468.516,81.433 468.516,79.5 C468.516,77.567 466.95,76 465.017,76 L464.983,76 C463.05,76 461.484,77.567 461.484,79.5 C461.484,81.433 463.05,83 464.983,83 Z M464.983,114.5 L465.017,114.5 C466.95,114.5 468.516,112.933 468.516,111 C468.516,109.067 466.95,107.5 465.017,107.5 L464.983,107.5 C463.05,107.5 461.484,109.067 461.484,111 C461.484,112.933 463.05,114.5 464.983,114.5 Z M464.983,130.25 L465.017,130.25 C466.95,130.25 468.516,128.683 468.516,126.75 C468.516,124.817 466.95,123.25 465.017,123.25 L464.983,123.25 C463.05,123.25 461.484,124.817 461.484,126.75 C461.484,128.683 463.05,130.25 464.983,130.25 Z M464.983,98.75 L465.017,98.75 C466.95,98.75 468.516,97.183 468.516,95.25 C468.516,93.317 466.95,91.75 465.017,91.75 L464.983,91.75 C463.05,91.75 461.484,93.317 461.484,95.25 C461.484,97.183 463.05,98.75 464.983,98.75 Z M496.467,83 L496.502,83 C498.434,83 500,81.433 500,79.5 C500,77.567 498.434,76 496.502,76 L496.467,76 C494.535,76 492.969,77.567 492.969,79.5 C492.969,81.433 494.535,83 496.467,83 Z M496.467,114.5 L496.502,114.5 C498.434,114.5 500,112.933 500,111 C500,109.067 498.434,107.5 496.502,107.5 L496.467,107.5 C494.535,107.5 492.969,109.067 492.969,111 C492.969,112.933 494.535,114.5 496.467,114.5 Z M496.467,130.25 L496.502,130.25 C498.434,130.25 500,128.683 500,126.75 C500,124.817 498.434,123.25 496.502,123.25 L496.467,123.25 C494.535,123.25 492.969,124.817 492.969,126.75 C492.969,128.683 494.535,130.25 496.467,130.25 Z M496.467,98.75 L496.502,98.75 C498.434,98.75 500,97.183 500,95.25 C500,93.317 498.434,91.75 496.502,91.75 L496.467,91.75 C494.535,91.75 492.969,93.317 492.969,95.25 C492.969,97.183 494.535,98.75 496.467,98.75 Z M496.467,139 L433.498,139 C431.566,139 430,140.567 430,142.5 C430,144.433 431.566,146 433.498,146 L496.467,146 C498.399,146 499.965,144.433 499.965,142.5 C499.965,140.567 498.399,139 496.467,139 Z" />
        </g>
        <g id="Black-M" transform="translate(0,200)">
            <path d="M633.498,83 L633.533,83 C635.465,83 637.031,81.433 637.031,79.5 C637.031,77.567 635.465,76 633.533,76 L633.498,76 C631.566,76 630,77.567 630,79.5 C630,81.433 631.566,83 633.498,83 Z M633.498,114.5 L633.533,114.5 C635.465,114.5 637.031,112.933 637.031,111 C637.031,109.067 635.465,107.5 633.533,107.5 L633.498,107.5 C631.566,107.5 630,109.067 630,111 C630,112.933 631.566,114.5 633.498,114.5 Z M633.498,130.25 L633.533,130.25 C635.465,130.25 637.031,128.683 637.031,126.75 C637.031,124.817 635.465,123.25 633.533,123.25 L633.498,123.25 C631.566,123.25 630,124.817 630,126.75 C630,128.683 631.566,130.25 633.498,130.25 Z M633.498,98.75 L633.533,98.75 C635.465,98.75 637.031,97.183 637.031,95.25 C637.031,93.317 635.465,91.75 633.533,91.75 L633.498,91.75 C631.566,91.75 630,93.317 630,95.25 C630,97.183 631.566,98.75 633.498,98.75 Z M649.24,83 L649.275,83 C651.207,83 652.774,81.433 652.774,79.5 C652.774,77.567 651.207,76 649.275,76 L649.24,76 C647.308,76 645.742,77.567 645.742,79.5 C645.742,81.433 647.308,83 649.24,83 Z M649.24,114.5 L649.275,114.5 C651.207,114.5 652.774,112.933 652.774,111 C652.774,109.067 651.207,107.5 649.275,107.5 L649.24,107.5 C647.308,107.5 645.742,109.067 645.742,111 C645.742,112.933 647.308,114.5 649.24,114.5 Z M680.725,83 L680.76,83 C682.692,83 684.258,81.433 684.258,79.5 C684.258,77.567 682.692,76 680.76,76 L680.725,76 C678.793,76 677.226,77.567 677.226,79.5 C677.226,81.433 678.793,83 680.725,83 Z M680.725,114.5 L680.76,114.5 C682.692,114.5 684.258,112.933 684.258,111 C684.258,109.067 682.692,107.5 680.76,107.5 L680.725,107.5 C678.793,107.5 677.226,109.067 677.226,111 C677.226,112.933 678.793,114.5 680.725,114.5 Z M664.982,83 L665.018,83 C666.95,83 668.516,81.433 668.516,79.5 C668.516,77.567 666.95,76 665.018,76 L664.982,76 C663.05,76 661.484,77.567 661.484,79.5 C661.484,81.433 663.05,83 664.982,83 Z M664.982,114.5 L665.018,114.5 C666.95,114.5 668.516,112.933 668.516,111 C668.516,109.067 666.95,107.5 665.018,107.5 L664.982,107.5 C663.05,107.5 661.484,109.067 661.484,111 C661.484,112.933 663.05,114.5 664.982,114.5 Z M664.982,130.25 L665.018,130.25 C666.95,130.25 668.516,128.683 668.516,126.75 C668.516,124.817 666.95,123.25 665.018,123.25 L664.982,123.25 C663.05,123.25 661.484,124.817 661.484,126.75 C661.484,128.683 663.05,130.25 664.982,130.25 Z M664.982,98.75 L665.018,98.75 C666.95,98.75 668.516,97.183 668.516,95.25 C668.516,93.317 666.95,91.75 665.018,91.75 L664.982,91.75 C663.05,91.75 661.484,93.317 661.484,95.25 C661.484,97.183 663.05,98.75 664.982,98.75 Z M696.467,83 L696.502,83 C698.434,83 700,81.433 700,79.5 C700,77.567 698.434,76 696.502,76 L696.467,76 C694.535,76 692.969,77.567 692.969,79.5 C692.969,81.433 694.535,83 696.467,83 Z M696.467,114.5 L696.502,114.5 C698.434,114.5 700,112.933 700,111 C700,109.067 698.434,107.5 696.502,107.5 L696.467,107.5 C694.535,107.5 692.969,109.067 692.969,111 C692.969,112.933 694.535,114.5 696.467,114.5 Z M696.467,130.25 L696.502,130.25 C698.434,130.25 700,128.683 700,126.75 C700,124.817 698.434,123.25 696.502,123.25 L696.467,123.25 C694.535,123.25 692.969,124.817 692.969,126.75 C692.969,128.683 694.535,130.25 696.467,130.25 Z M696.467,98.75 L696.502,98.75 C698.434,98.75 700,97.183 700,95.25 C700,93.317 698.434,91.75 696.502,91.75 L696.467,91.75 C694.535,91.75 692.969,93.317 692.969,95.25 C692.969,97.183 694.535,98.75 696.467,98.75 Z M696.467,139 L633.498,139 C631.566,139 630,140.567 630,142.5 C630,144.433 631.566,146 633.498,146 L696.467,146 C698.399,146 699.965,144.433 699.965,142.5 C699.965,140.567 698.399,139 696.467,139 Z" />
        </g>
    </g>
</svg>