<?xml version="1.0" encoding="UTF-8"?>
<svg height="600" width="800" xmlns="http://www.w3.org/2000/svg" xmlns:xlink="http://www.w3.org/1999/xlink">
    <g id="Notes" font-family="LucidaGrande, 'Lucida Grande', sans-serif" font-size="13">
        <rect fill="white" height="600.0" width="800.0" x="0.0" y="0.0" />
        <g font-size="13">
            <text x="18.0" y="176.0">Small</text>
            <text x="18.0" y="376.0">Medium</text>
            <text x="18.0" y="576.0">Large</text>
        </g>
        <g font-size="9">
            <text x="250.0" y="30.0">Ultralight</text>
            <text x="450.0" y="30.0">Regular</text>
            <text x="650.0" y="30.0">Black</text>
            <text id="template-version" fill="#505050" text-anchor="end" x="785.0" y="575.0">Template v.3.0</text>
            <a href="https://github.com/swhitty/SwiftDraw">
                <text fill="#505050" text-anchor="end" x="785.0" y="590.0">https://github.com/swhitty/SwiftDraw</text>
            </a>
        </g>
    </g>
    <g id="Guides" stroke="rgb(39, 170, 225)" stroke-width="0.5">
        <path id="Capline-S" d="M18,76 l800,0" />
        <path id="H-reference" d="M85,145.755 L87.685,145.755 L113.369,79.287 L114.052,79.287 L114.052,76 L112.148,76 L85,145.755 Z M95.693,121.536 L130.996,121.536 L130.263,119.313 L96.474,119.313 L95.693,121.536 Z M139.15,145.755 L141.787,145.755 L114.638,76 L113.466,76 L113.466,79.287 L139.15,145.755 Z" stroke="none" transform="translate(0,200)" />
        <path id="Baseline-S" d="M18,146 l800,0" />
        <path id="left-margin-Ultralight-M" d="M221,256 l0,110" />
        <path id="right-margin-Ultralight-M" d="M309,256 l0,110" />
        <path id="left-margin-Regular-M" d="M421,256 l0,110" />
        <path id="right-margin-Regular-M" d="M509,256 l0,110" />
        <path id="left-margin-Black-M" d="M621,256 l0,110" />
        <path id="right-margin-Black-M" d="M709,256 l0,110" />
        <path id="Capline-M" d="M18,276 l800,0" />
        <path id="Baseline-M" d="M18,346 l800,0" />
        <path id="Capline-L" d="M18,476 l800,0" />
        <path id="Baseline-L" d="M18,546 l800,0" />
    </g>
    <g id="Symbols">
        <g id="Ultralight-M" transform="translate(0,200)">
            <path d="M245.194,93.404 L245.216,93.404 C246.431,93.404 247.415,92.42 247.415,91.205 C247.415,89.99 246.431,89.006 245.216,89.006 L245.194,89.006 C243.979,89.006 242.994,89.99 242.994,91.205 C242.994,92.42 243.979,93.404 245.194,93.404 Z M245.194,113.199 L245.216,113.199 C246.431,113.199 247.415,112.215 247.415,111 C247.415,109.785 246.431,108.801 245.216,108.801 L245.194,108.801 C243.979,108.801 242.994,109.785 242.994,111 C242.994,112.215 243.979,113.199 245.194,113.199 Z M245.194,132.995 L245.216,132.995 C246.431,132.995 247.415,132.01 247.415,130.795 C247.415,129.58 246.431,128.596 245.216,128.596 L245.194,128.596 C243.979,128.596 242.994,129.58 242.994,130.795 C242.994,132.01 243.979,132.995 245.194,132.995 Z M245.194,123.097 L245.216,123.097 C246.431,123.097 247.415,122.112 247.415,120.898 C247.415,119.683 246.431,118.698 245.216,118.698 L245.194,118.698 C243.979,118.698 242.994,119.683 242.994,120.898 C242.994,122.112 243.979,123.097 245.194,123.097 Z M245.194,103.302 L245.216,103.302 C246.431,103.302 247.415,102.317 247.415,101.102 C247.415,99.888 246.431,98.903 245.216,98.903 L245.194,98.903 C243.979,98.903 242.994,99.888 242.994,101.102 C242.994,102.317 243.979,103.302 245.194,103.302 Z M255.091,93.404 L255.113,93.404 C256.328,93.404 257.313,92.42 257.313,91.205 C257.313,89.99 256.328,89.006 255.113,89.006 L255.091,89.006 C253.877,89.006 252.892,89.99 252.892,91.205 C252.892,92.42 253.877,93.404 255.091,93.404 Z M255.091,113.199 L255.113,113.199 C256.328,113.199 257.313,112.215 257.313,111 C257.313,109.785 256.328,108.801 255.113,108.801 L255.091,108.801 C253.877,108.801 252.892,109.785 252.892,111 C252.892,112.215 253.877,113.199 255.091,113.199 Z M255.091,132.995 L255.113,132.995 C256.328,132.995 257.313,132.01 257.313,130.795 C257.313,129.58 256.328,128.596 255.113,128.596 L255.091,128.596 C253.877,128.596 252.892,129.58 252.892,130.795 C252.892,132.01 253.877,132.995 255.091,132.995 Z M274.887,93.404 L274.909,93.404 C276.123,93.404 277.108,92.42 277.108,91.205 C277.108,89.99 276.123,89.006 274.909,89.006 L274.887,89.006 C273.672,89.006 272.687,89.99 272.687,91.205 C272.687,92.42 273.672,93.404 274.887,93.404 Z M274.887,113.199 L274.909,113.199 C276.123,113.199 277.108,112.215 277.108,111 C277.108,109.785 276.123,108.801 274.909,108.801 L274.887,108.801 C273.672,108.801 272.687,109.785 272.687,111 C272.687,112.215 273.672,113.199 274.887,113.199 Z M274.887,132.995 L274.909,132.995 C276.123,132.995 277.108,132.01 277.108,130.795 C277.108,129.58 276.123,128.596 274.909,128.596 L274.887,128.596 C273.672,128.596 272.687,129.58 272.687,130.795 C272.687,132.01 273.672,132.995 274.887,132.995 Z M264.989,93.404 L265.011,93.404 C266.226,93.404 267.21,92.42 267.21,91.205 C267.21,89.99 266.226,89.006 265.011,89.006 L264.989,89.006 C263.774,89.006 262.79,89.99 262.79,91.205 C262.79,92.42 263.774,93.404 264.989,93.404 Z M264.989,113.199 L265.011,113.199 C266.226,113.199 267.21,112.215 267.21,111 C267.21,109.785 266.226,108.801 265.011,108.801 L264.989,108.801 C263.774,108.801 262.79,109.785 262.79,111 C262.79,112.215 263.774,113.199 264.989,113.199 Z M264.989,132.995 L265.011,132.995 C266.226,132.995 267.21,132.01 267.21,130.795 C267.21,129.58 266.226,128.596 265.011,128.596 L264.989,128.596 C263.774,128.596 262.79,129.58 262.79,130.795 C262.79,132.01 263.774,132.995 264.989,132.995 Z M264.989,123.097 L265.011,123.097 C266.226,123.097 267.21,122.112 267.21,120.898 C267.21,119.683 266.226,118.698 265.011,118.698 L264.989,118.698 C263.774,118.698 262.79,119.683 262.79,120.898 C262.79,122.112 263.774,123.097 264.989,123.097 Z M264.989,103.302 L265.011,103.302 C266.226,103.302 267.21,102.317 267.21,101.102 C267.21,99.888 266.226,98.903 265.011,98.903 L264.989,98.903 C263.774,98.903 262.79,99.888 262.79,101.102 C262.79,102.317 263.774,103.302 264.989,103.302 Z M284.784,93.404 L284.806,93.404 C286.021,93.404 287.005,92.42 287.005,91.205 C287.005,89.99 286.021,89.006 284.806,89.006 L284.784,89.006 C283.569,89.006 282.585,89.99 282.585,91.205 C282.585,92.42 283.569,93.404 284.784,93.404 Z M284.784,113.199 L284.806,113.199 C286.021,113.199 287.005,112.215 287.005,111 C287.005,109.785 286.021,108.801 284.806,108.801 L284.784,108.801 C283.569,108.801 282.585,109.785 282.585,111 C282.585,112.215 283.569,113.199 284.784,113.199 Z M284.784,132.995 L284.806,132.995 C286.021,132.995 287.005,132.01 287.005,130.795 C287.005,129.58 286.021,128.596 284.806,128.596 L284.784,128.596 C283.569,128.596 282.585,129.58 282.585,130.795 C282.585,132.01 283.569,132.995 284.784,132.995 Z M284.784,123.097 L284.806,123.097 C286.021,123.097 287.005,122.112 287.005,120.898 C287.005,119.683 286.021,118.698 284.806,118.698 L284.784,118.698 C283.569,118.698 282.585,119.683 282.585,120.898 C282.585,122.112 283.569,123.097 284.784,123.097 Z M284.784,103.302 L284.806,103.302 C286.021,103.302 287.005,102.317 287.005,101.102 C287.005,99.888 286.021,98.903 284.806,98.903 L284.784,98.903 C283.569,98.903 282.585,99.888 282.585,101.102 C282.585,102.317 283.569,103.302 284.784,103.302 Z" />
        </g>
        <g id="Regular-M" transform="translate(0,200)">
            <path d="M445.194,93.404 L445.216,93.404 C446.431,93.404 447.415,92.42 447.415,91.205 C447.415,89.99 446.431,89.006 445.216,89.006 L445.194,89.006 C443.979,89.006 442.995,89.99 442.995,91.205 C442.995,92.42 443.979,93.404 445.194,93.404 Z M445.194,113.199 L445.216,113.199 C446.431,113.199 447.415,112.215 447.415,111 C447.415,109.785 446.431,108.801 445.216,108.801 L445.194,108.801 C443.979,108.801 442.995,109.785 442.995,111 C442.995,112.215 443.979,113.199 445.194,113.199 Z M445.194,132.995 L445.216,132.995 C446.431,132.995 447.415,132.01 447.415,130.795 C447.415,129.58 446.431,128.596 445.216,128.596 L445.194,128.596 C443.979,128.596 442.995,129.58 442.995,130.795 C442.995,132.01 443.979,132.995 445.194,132.995 Z M445.194,123.097 L445.216,123.097 C446.431,123.097 447.415,122.112 447.415,120.898 C447.415,119.683 446.431,118.698 445.216,118.698 L445.194,118.698 C443.979,118.698 442.995,119.683 442.995,120.898 C442.995,122.112 443.979,123.097 445.194,123.097 Z M445.194,103.302 L445.216,103.302 C446.431,103.302 447.415,102.317 447.415,101.102 C447.415,99.888 446.431,98.903 445.216,98.903 L445.194,98.903 C443.979,98.903 442.995,99.888 442.995,101.102 C442.995,102.317 443.979,103.302 445.194,103.302 Z M455.091,93.404 L455.113,93.404 C456.328,93.404 457.313,92.42 457.313,91.205 C457.313,89.99 456.328,89.006 455.113,89.006 L455.091,89.006 C453.877,89.006 452.892,89.99 452.892,91.205 C452.892,92.42 453.877,93.404 455.091,93.404 Z M455.091,113.199 L455.113,113.199 C456.328,113.199 457.313,112.215 457.313,111 C457.313,109.785 456.328,108.801 455.113,108.801 L455.091,108.801 C453.877,108.801 452.892,109.785 452.892,111 C452.892,112.215 453.877,113.199 455.091,113.199 Z M455.091,132.995 L455.113,132.995 C456.328,132.995 457.313,132.01 457.313,130.795 C457.313,129.58 456.328,128.596 455.113,128.596 L455.091,128.596 C453.877,128.596 452.892,129.58 452.892,130.795 C452.892,132.01 453.877,132.995 455.091,132.995 Z M474.887,93.404 L474.909,93.404 C476.123,93.404 477.108,92.42 477.108,91.205 C477.108,89.99 476.123,89.006 474.909,89.006 L474.887,89.006 C473.672,89.006 472.687,89.99 472.687,91.205 C472.687,92.42 473.672,93.404 474.887,93.404 Z M474.887,113.199 L474.909,113.199 C476.123,113.199 477.108,112.215 477.108,111 C477.108,109.785 476.123,108.801 474.909,108.801 L474.887,108.801 C473.672,108.801 472.687,109.785 472.687,111 C472.687,112.215 473.672,113.199 474.887,113.199 Z M474.887,132.995 L474.909,132.995 C476.123,132.995 477.108,132.01 477.108,130.795 C477.108,129.58 476.123,128.596 474.909,128.596 L474.887,128.596 C473.672,128.596 472.687,129.58 472.687,130.795 C472.687,132.01 473.672,132.995 474.887,132.995 Z M464.989,93.404 L465.011,93.404 C466.226,93.404 467.21,92.42 467.21,91.205 C467.21,89.99 466.226,89.006 465.011,89.006 L464.989,89.006 C463.774,89.006 462.79,89.99 462.79,91.205 C462.79,92.42 463.774,93.404 464.989,93.404 Z M464.989,113.199 L465.011,113.199 C466.226,113.199 467.21,112.215 467.21,111 C467.21,109.785 466.226,108.801 465.011,108.801 L464.989,108.801 C463.774,108.801 462.79,109.785 462.79,111 C462.79,112.215 463.774,113.199 464.989,113.199 Z M464.989,132.995 L465.011,132.995 C466.226,132.995 467.21,132.01 467.21,130.795 C467.21,129.58 466.226,128.596 465.011,128.596 L464.989,128.596 C463.774,128.596 462.79,129.58 462.79,130.795 C462.79,132.01 463.774,132.995 464.989,132.995 Z M464.989,123.097 L465.011,123.097 C466.226,123.097 467.21,122.112 467.21,120.898 C467.21,119.683 466.226,118.698 465.011,118.698 L464.989,118.698 C463.774,118.698 462.79,119.683 462.79,120.898 C462.79,122.112 463.774,123.097 464.989,123.097 Z M464.989,103.302 L465.011,103.302 C466.226,103.302 467.21,102.317 467.21,101.102 C467.21,99.888 466.226,98.903 465.011,98.903 L464.989,98.903 C463.774,98.903 462.79,99.888 462.79,101.102 C462.79,102.317 463.774,103.302 464.989,103.302 Z M484.784,93.404 L484.806,93.404 C486.021,93.404 487.005,92.42 487.005,91.205 C487.005,89.99 486.021,89.006 484.806,89.006 L484.784,89.006 C483.569,89.006 482.585,89.99 482.585,91.205 C482.585,92.42 483.569,93.404 484.784,93.404 Z M484.784,113.199 L484.806,113.199 C486.021,113.199 487.005,112.215 487.005,111 C487.005,109.785 486.021,108.801 484.806,108.801 L484.784,108.801 C483.569,108.801 482.585,109.785 482.585,111 C482.585,112.215 483.569,113.199 484.784,113.199 Z M484.784,132.995 L484.806,132.995 C486.021,132.995 487.005,132.01 487.005,130.795 C487.005,129.58 486.021,128.596 484.806,128.596 L484.784,128.596 C483.569,128.596 482.585,129.58 482.585,130.795 C482.585,132.01 483.569,132.995 484.784,132.995 Z M484.784,123.097 L484.806,123.097 C486.021,123.097 487.005,122.112 487.005,120.898 C487.005,119.683 486.021,118.698 484.806,118.698 L484.784,118.698 C483.569,118.698 482.585,119.683 482.585,120.898 C482.585,122.112 483.569,123.097 484.784,123.097 Z M484.784,103.302 L484.806,103.302 C486.021,103.302 487.005,102.317 487.005,101.102 C487.005,99.888 486.021,98.903 484.806,98.903 L484.784,98.903 C483.569,98.903 482.585,99.888 482.585,101.102 C482.585,102.317 483.569,103.302 484.784,103.302 Z" />
        </g>
        <g id="Black-M" transform="translate(0,200)">
            <path d="M645.194,93.404 L645.216,93.404 C646.431,93.404 647.415,92.42 647.415,91.205 C647.415,89.99 646.431,89.006 645.216,89.006 L645.194,89.006 C643.979,89.006 642.995,89.99 642.995,91.205 C642.995,92.42 643.979,93.404 645.194,93.404 Z M645.194,113.199 L645.216,113.199 C646.431,113.199 647.415,112.215 647.415,111 C647.415,109.785 646.431,108.801 645.216,108.801 L645.194,108.801 C643.979,108.801 642.995,109.785 642.995,111 C642.995,112.215 643.979,113.199 645.194,113.199 Z M645.194,132.995 L645.216,132.995 C646.431,132.995 647.415,132.01 647.415,130.795 C647.415,129.58 646.431,128.596 645.216,128.596 L645.194,128.596 C643.979,128.596 642.995,129.58 642.995,130.795 C642.995,132.01 643.979,132.995 645.194,132.995 Z M645.194,123.097 L645.216,123.097 C646.431,123.097 647.415,122.112 647.415,120.898 C647.415,119.683 646.431,118.698 645.216,118.698 L645.194,118.698 C643.979,118.698 642.995,119.683 642.995,120.898 C642.995,122.112 643.979,123.097 645.194,123.097 Z M645.194,103.302 L645.216,103.302 C646.431,103.302 647.415,102.317 647.415,101.102 C647.415,99.888 646.431,98.903 645.216,98.903 L645.194,98.903 C643.979,98.903 642.995,99.888 642.995,101.102 C642.995,102.317 643.979,103.302 645.194,103.302 Z M655.091,93.404 L655.113,93.404 C656.328,93.404 657.313,92.42 657.313,91.205 C657.313,89.99 656.328,89.006 655.113,89.006 L655.091,89.006 C653.877,89.006 652.892,89.99 652.892,91.205 C652.892,92.42 653.877,93.404 655.091,93.404 Z M655.091,113.199 L655.113,113.199 C656.328,113.199 657.313,112.215 657.313,111 C657.313,109.785 656.328,108.801 655.113,108.801 L655.091,108.801 C653.877,108.801 652.892,109.785 652.892,111 C652.892,112.215 653.877,113.199 655.091,113.199 Z M655.091,132.995 L655.113,132.995 C656.328,132.995 657.313,132.01 657.313,130.795 C657.313,129.58 656.328,128.596 655.113,128.596 L655.091,128.596 C653.877,128.596 652.892,129.58 652.892,130.795 C652.892,132.01 653.877,132.995 655.091,132.995 Z M674.886,93.404 L674.909,93.404 C676.123,93.404 677.108,92.42 677.108,91.205 C677.108,89.99 676.123,89.006 674.909,89.006 L674.886,89.006 C673.672,89.006 672.687,89.99 672.687,91.205 C672.687,92.42 673.672,93.404 674.886,93.404 Z M674.886,113.199 L674.909,113.199 C676.123,113.199 677.108,112.215 677.108,111 C677.108,109.785 676.123,108.801 674.909,108.801 L674.886,108.801 C673.672,108.801 672.687,109.785 672.687,111 C672.687,112.215 673.672,113.199 674.886,113.199 Z M674.886,132.995 L674.909,132.995 C676.123,132.995 677.108,132.01 677.108,130.795 C677.108,129.58 676.123,128.596 674.909,128.596 L674.886,128.596 C673.672,128.596 672.687,129.58 672.687,130.795 C672.687,132.01 673.672,132.995 674.886,132.995 Z M664.989,93.404 L665.011,93.404 C666.226,93.404 667.21,92.42 667.21,91.205 C667.21,89.99 666.226,89.006 665.011,89.006 L664.989,89.006 C663.774,89.006 662.79,89.99 662.79,91.205 C662.79,92.42 663.774,93.404 664.989,93.404 Z M664.989,113.199 L665.011,113.199 C666.226,113.199 667.21,112.215 667.21,111 C667.21,109.785 666.226,108.801 665.011,108.801 L664.989,108.801 C663.774,108.801 662.79,109.785 662.79,111 C662.79,112.215 663.774,113.199 664.989,113.199 Z M664.989,132.995 L665.011,132.995 C666.226,132.995 667.21,132.01 667.21,130.795 C667.21,129.58 666.226,128.596 665.011,128.596 L664.989,128.596 C663.774,128.596 662.79,129.58 662.79,130.795 C662.79,132.01 663.774,132.995 664.989,132.995 Z M664.989,123.097 L665.011,123.097 C666.226,123.097 667.21,122.112 667.21,120.898 C667.21,119.683 666.226,118.698 665.011,118.698 L664.989,118.698 C663.774,118.698 662.79,119.683 662.79,120.898 C662.79,122.112 663.774,123.097 664.989,123.097 Z M664.989,103.302 L665.011,103.302 C666.226,103.302 667.21,102.317 667.21,101.102 C667.21,99.888 666.226,98.903 665.011,98.903 L664.989,98.903 C663.774,98.903 662.79,99.888 662.79,101.102 C662.79,102.317 663.774,103.302 664.989,103.302 Z M684.784,93.404 L684.806,93.404 C686.021,93.404 687.005,92.42 687.005,91.205 C687.005,89.99 686.021,89.006 684.806,89.006 L684.784,89.006 C683.569,89.006 682.585,89.99 682.585,91.205 C682.585,92.42 683.569,93.404 684.784,93.404 Z M684.784,113.199 L684.806,113.199 C686.021,113.199 687.005,112.215 687.005,111 C687.005,109.785 686.021,108.801 684.806,108.801 L684.784,108.801 C683.569,108.801 682.585,109.785 682.585,111 C682.585,112.215 683.569,113.199 684.784,113.199 Z M684.784,132.995 L684.806,132.995 C686.021,132.995 687.005,132.01 687.005,130.795 C687.005,129.58 686.021,128.596 684.806,128.596 L684.784,128.596 C683.569,128.596 682.585,129.58 682.585,130.795 C682.585,132.01 683.569,132.995 684.784,132.995 Z M684.784,123.097 L684.806,123.097 C686.021,123.097 687.005,122.112 687.005,120.898 C687.005,119.683 686.021,118.698 684.806,118.698 L684.784,118.698 C683.569,118.698 682.585,119.683 682.585,120.898 C682.585,122.112 683.569,123.097 684.784,123.097 Z M684.784,103.302 L684.806,103.302 C686.021,103.302 687.005,102.317 687.005,101.102 C687.005,99.888 686.021,98.903 684.806,98.903 L684.784,98.903 C683.569,98.903 682.585,99.888 682.585,101.102 C682.585,102.317 683.569,103.302 684.784,103.302 Z" />
        </g>
    </g>
</svg>