<?xml version="1.0" encoding="UTF-8"?>
<svg height="600" width="800" xmlns="http://www.w3.org/2000/svg" xmlns:xlink="http://www.w3.org/1999/xlink">
    <g id="Notes" font-family="LucidaGrande, 'Lucida Grande', sans-serif" font-size="13">
        <rect fill="white" height="600.0" width="800.0" x="0.0" y="0.0" />
        <g font-size="13">
            <text x="18.0" y="176.0">Small</text>
            <text x="18.0" y="376.0">Medium</text>
            <text x="18.0" y="576.0">Large</text>
        </g>
        <g font-size="9">
            <text x="250.0" y="30.0">Ultralight</text>
            <text x="450.0" y="30.0">Regular</text>
            <text x="650.0" y="30.0">Black</text>
            <text id="template-version" fill="#505050" text-anchor="end" x="785.0" y="575.0">Template v.3.0</text>
            <a href="https://github.com/swhitty/SwiftDraw">
                <text fill="#505050" text-anchor="end" x="785.0" y="590.0">https://github.com/swhitty/SwiftDraw</text>
            </a>
        </g>
    </g>
    <g id="Guides" stroke="rgb(39, 170, 225)" stroke-width="0.5">
        <path id="Capline-S" d="M18,76 l800,0" />
        <path id="H-reference" d="M85,145.755 L87.685,145.755 L113.369,79.287 L114.052,79.287 L114.052,76 L112.148,76 L85,145.755 Z M95.693,121.536 L130.996,121.536 L130.263,119.313 L96.474,119.313 L95.693,121.536 Z M139.15,145.755 L141.787,145.755 L114.638,76 L113.466,76 L113.466,79.287 L139.15,145.755 Z" stroke="none" transform="translate(0,200)" />
        <path id="Baseline-S" d="M18,146 l800,0" />
        <path id="left-margin-Ultralight-M" d="M234.773,256 l0,110" />
        <path id="right-margin-Ultralight-M" d="M295.227,256 l0,110" />
        <path id="left-margin-Regular-M" d="M434.773,256 l0,110" />
        <path id="right-margin-Regular-M" d="M495.227,256 l0,110" />
        <path id="left-margin-Black-M" d="M634.773,256 l0,110" />
        <path id="right-margin-Black-M" d="M695.227,256 l0,110" />
        <path id="Capline-M" d="M18,276 l800,0" />
        <path id="Baseline-M" d="M18,346 l800,0" />
        <path id="Capline-L" d="M18,476 l800,0" />
        <path id="Baseline-L" d="M18,546 l800,0" />
    </g>
    <g id="Symbols">
        <g id="Ultralight-M" transform="translate(0,200)">
            <path d="M245.591,109.231 L245.591,118.07 C245.591,119.827 247.015,121.252 248.773,121.252 C250.53,121.252 251.955,119.827 251.955,118.07 L251.955,109.231 C251.955,107.474 250.53,106.049 248.773,106.049 C247.015,106.049 245.591,107.474 245.591,109.231 Z M251.955,109.231 L251.955,88.021 C251.955,86.864 252.939,85.899 254.182,85.899 C255.426,85.899 256.409,86.862 256.409,88.021 C256.409,89.778 257.834,91.203 259.591,91.203 C261.348,91.203 262.773,89.778 262.773,88.021 C262.773,83.319 258.913,79.535 254.182,79.535 C249.451,79.535 245.591,83.322 245.591,88.021 L245.591,109.231 C245.591,110.988 247.015,112.413 248.773,112.413 C250.53,112.413 251.955,110.988 251.955,109.231 Z M251.955,109.231 C251.955,104.532 248.094,100.748 243.364,100.748 C238.633,100.748 234.773,104.532 234.773,109.231 L234.773,116.304 C234.773,132.718 248.321,146 265,146 C281.679,146 295.227,132.718 295.227,116.304 L295.227,98.623 C295.227,93.923 291.367,90.137 286.636,90.137 C281.906,90.137 278.045,93.923 278.045,98.623 C278.045,100.38 279.47,101.805 281.227,101.805 C282.985,101.805 284.409,100.38 284.409,98.623 C284.409,97.466 285.393,96.5 286.636,96.5 C287.88,96.5 288.864,97.466 288.864,98.623 L288.864,116.304 C288.864,129.175 278.192,139.636 265,139.636 C251.808,139.636 241.136,129.175 241.136,116.304 L241.136,109.231 C241.136,108.075 242.119,107.112 243.364,107.112 C244.608,107.112 245.591,108.075 245.591,109.231 C245.591,110.988 247.015,112.413 248.773,112.413 C250.53,112.413 251.955,110.988 251.955,109.231 Z M256.409,88.018 L256.409,107.459 C256.409,109.216 257.834,110.64 259.591,110.64 C261.348,110.64 262.773,109.216 262.773,107.459 L262.773,88.018 C262.773,86.26 261.348,84.836 259.591,84.836 C257.834,84.836 256.409,86.26 256.409,88.018 Z M262.773,88.018 L262.773,84.486 C262.773,83.329 263.757,82.364 265,82.364 C266.245,82.364 267.227,83.327 267.227,84.486 L267.227,88.018 C267.227,89.775 268.652,91.2 270.409,91.2 C272.166,91.2 273.591,89.775 273.591,88.018 L273.591,84.486 C273.591,79.784 269.731,76 265,76 C260.269,76 256.409,79.787 256.409,84.486 L256.409,88.018 C256.409,89.775 257.834,91.2 259.591,91.2 C261.348,91.2 262.773,89.775 262.773,88.018 Z M267.227,88.018 L267.227,107.465 C267.227,109.222 268.652,110.647 270.409,110.647 C272.166,110.647 273.591,109.222 273.591,107.465 L273.591,88.018 C273.591,86.26 272.166,84.836 270.409,84.836 C268.652,84.836 267.227,86.26 267.227,88.018 Z M273.591,88.021 C273.591,86.864 274.575,85.899 275.818,85.899 C277.063,85.899 278.045,86.862 278.045,88.021 L278.045,98.623 C278.045,100.38 279.47,101.805 281.227,101.805 C282.985,101.805 284.409,100.38 284.409,98.623 L284.409,88.021 C284.409,83.319 280.55,79.535 275.818,79.535 C271.088,79.535 267.227,83.322 267.227,88.021 C267.227,89.778 268.652,91.203 270.409,91.203 C272.166,91.203 273.591,89.778 273.591,88.021 Z M278.045,98.623 L278.045,107.462 C278.045,109.219 279.47,110.644 281.227,110.644 C282.985,110.644 284.409,109.219 284.409,107.462 L284.409,98.623 C284.409,96.865 282.985,95.441 281.227,95.441 C279.47,95.441 278.045,96.865 278.045,98.623 Z" />
        </g>
        <g id="Regular-M" transform="translate(0,200)">
            <path d="M445.591,109.231 L445.591,118.07 C445.591,119.827 447.015,121.252 448.773,121.252 C450.53,121.252 451.955,119.827 451.955,118.07 L451.955,109.231 C451.955,107.474 450.53,106.049 448.773,106.049 C447.015,106.049 445.591,107.474 445.591,109.231 Z M451.955,109.231 L451.955,88.021 C451.955,86.864 452.939,85.899 454.182,85.899 C455.426,85.899 456.409,86.862 456.409,88.021 C456.409,89.778 457.834,91.203 459.591,91.203 C461.348,91.203 462.773,89.778 462.773,88.021 C462.773,83.319 458.913,79.535 454.182,79.535 C449.451,79.535 445.591,83.322 445.591,88.021 L445.591,109.231 C445.591,110.988 447.015,112.413 448.773,112.413 C450.53,112.413 451.955,110.988 451.955,109.231 Z M451.955,109.231 C451.955,104.532 448.094,100.748 443.364,100.748 C438.633,100.748 434.773,104.532 434.773,109.231 L434.773,116.304 C434.773,132.718 448.321,146 465,146 C481.679,146 495.227,132.718 495.227,116.304 L495.227,98.623 C495.227,93.923 491.367,90.137 486.636,90.137 C481.906,90.137 478.045,93.923 478.045,98.623 C478.045,100.38 479.47,101.805 481.227,101.805 C482.985,101.805 484.409,100.38 484.409,98.623 C484.409,97.466 485.393,96.5 486.636,96.5 C487.88,96.5 488.864,97.466 488.864,98.623 L488.864,116.304 C488.864,129.175 478.192,139.636 465,139.636 C451.808,139.636 441.136,129.175 441.136,116.304 L441.136,109.231 C441.136,108.075 442.119,107.112 443.364,107.112 C444.608,107.112 445.591,108.075 445.591,109.231 C445.591,110.988 447.015,112.413 448.773,112.413 C450.53,112.413 451.955,110.988 451.955,109.231 Z M456.409,88.018 L456.409,107.459 C456.409,109.216 457.834,110.64 459.591,110.64 C461.348,110.64 462.773,109.216 462.773,107.459 L462.773,88.018 C462.773,86.26 461.348,84.836 459.591,84.836 C457.834,84.836 456.409,86.26 456.409,88.018 Z M462.773,88.018 L462.773,84.486 C462.773,83.329 463.757,82.364 465,82.364 C466.245,82.364 467.227,83.327 467.227,84.486 L467.227,88.018 C467.227,89.775 468.652,91.2 470.409,91.2 C472.166,91.2 473.591,89.775 473.591,88.018 L473.591,84.486 C473.591,79.784 469.731,76 465,76 C460.269,76 456.409,79.787 456.409,84.486 L456.409,88.018 C456.409,89.775 457.834,91.2 459.591,91.2 C461.348,91.2 462.773,89.775 462.773,88.018 Z M467.227,88.018 L467.227,107.465 C467.227,109.222 468.652,110.647 470.409,110.647 C472.166,110.647 473.591,109.222 473.591,107.465 L473.591,88.018 C473.591,86.26 472.166,84.836 470.409,84.836 C468.652,84.836 467.227,86.26 467.227,88.018 Z M473.591,88.021 C473.591,86.864 474.575,85.899 475.818,85.899 C477.063,85.899 478.045,86.862 478.045,88.021 L478.045,98.623 C478.045,100.38 479.47,101.805 481.227,101.805 C482.985,101.805 484.409,100.38 484.409,98.623 L484.409,88.021 C484.409,83.319 480.55,79.535 475.818,79.535 C471.088,79.535 467.227,83.322 467.227,88.021 C467.227,89.778 468.652,91.203 470.409,91.203 C472.166,91.203 473.591,89.778 473.591,88.021 Z M478.045,98.623 L478.045,107.462 C478.045,109.219 479.47,110.644 481.227,110.644 C482.985,110.644 484.409,109.219 484.409,107.462 L484.409,98.623 C484.409,96.865 482.985,95.441 481.227,95.441 C479.47,95.441 478.045,96.865 478.045,98.623 Z" />
        </g>
        <g id="Black-M" transform="translate(0,200)">
            <path d="M645.591,109.231 L645.591,118.07 C645.591,119.827 647.015,121.252 648.773,121.252 C650.53,121.252 651.955,119.827 651.955,118.07 L651.955,109.231 C651.955,107.474 650.53,106.049 648.773,106.049 C647.015,106.049 645.591,107.474 645.591,109.231 Z M651.955,109.231 L651.955,88.021 C651.955,86.864 652.939,85.899 654.182,85.899 C655.426,85.899 656.409,86.862 656.409,88.021 C656.409,89.778 657.834,91.203 659.591,91.203 C661.348,91.203 662.773,89.778 662.773,88.021 C662.773,83.319 658.913,79.535 654.182,79.535 C649.451,79.535 645.591,83.322 645.591,88.021 L645.591,109.231 C645.591,110.988 647.015,112.413 648.773,112.413 C650.53,112.413 651.955,110.988 651.955,109.231 Z M651.955,109.231 C651.955,104.532 648.094,100.748 643.364,100.748 C638.633,100.748 634.773,104.532 634.773,109.231 L634.773,116.304 C634.773,132.718 648.321,146 665,146 C681.679,146 695.227,132.718 695.227,116.304 L695.227,98.623 C695.227,93.923 691.367,90.137 686.636,90.137 C681.906,90.137 678.045,93.923 678.045,98.623 C678.045,100.38 679.47,101.805 681.227,101.805 C682.984,101.805 684.409,100.38 684.409,98.623 C684.409,97.466 685.393,96.5 686.636,96.5 C687.88,96.5 688.864,97.466 688.864,98.623 L688.864,116.304 C688.864,129.175 678.192,139.636 665,139.636 C651.808,139.636 641.136,129.175 641.136,116.304 L641.136,109.231 C641.136,108.075 642.119,107.112 643.364,107.112 C644.608,107.112 645.591,108.075 645.591,109.231 C645.591,110.988 647.015,112.413 648.773,112.413 C650.53,112.413 651.955,110.988 651.955,109.231 Z M656.409,88.018 L656.409,107.459 C656.409,109.216 657.834,110.64 659.591,110.64 C661.348,110.64 662.773,109.216 662.773,107.459 L662.773,88.018 C662.773,86.26 661.348,84.836 659.591,84.836 C657.834,84.836 656.409,86.26 656.409,88.018 Z M662.773,88.018 L662.773,84.486 C662.773,83.329 663.757,82.364 665,82.364 C666.245,82.364 667.227,83.327 667.227,84.486 L667.227,88.018 C667.227,89.775 668.652,91.2 670.409,91.2 C672.166,91.2 673.591,89.775 673.591,88.018 L673.591,84.486 C673.591,79.784 669.731,76 665,76 C660.269,76 656.409,79.787 656.409,84.486 L656.409,88.018 C656.409,89.775 657.834,91.2 659.591,91.2 C661.348,91.2 662.773,89.775 662.773,88.018 Z M667.227,88.018 L667.227,107.465 C667.227,109.222 668.652,110.647 670.409,110.647 C672.166,110.647 673.591,109.222 673.591,107.465 L673.591,88.018 C673.591,86.26 672.166,84.836 670.409,84.836 C668.652,84.836 667.227,86.26 667.227,88.018 Z M673.591,88.021 C673.591,86.864 674.575,85.899 675.818,85.899 C677.063,85.899 678.045,86.862 678.045,88.021 L678.045,98.623 C678.045,100.38 679.47,101.805 681.227,101.805 C682.984,101.805 684.409,100.38 684.409,98.623 L684.409,88.021 C684.409,83.319 680.55,79.535 675.818,79.535 C671.088,79.535 667.227,83.322 667.227,88.021 C667.227,89.778 668.652,91.203 670.409,91.203 C672.166,91.203 673.591,89.778 673.591,88.021 Z M678.045,98.623 L678.045,107.462 C678.045,109.219 679.47,110.644 681.227,110.644 C682.984,110.644 684.409,109.219 684.409,107.462 L684.409,98.623 C684.409,96.865 682.984,95.441 681.227,95.441 C679.47,95.441 678.045,96.865 678.045,98.623 Z" />
        </g>
    </g>
</svg>