<?xml version="1.0" encoding="UTF-8"?>
<svg height="600" width="800" xmlns="http://www.w3.org/2000/svg" xmlns:xlink="http://www.w3.org/1999/xlink">
    <g id="Notes" font-family="LucidaGrande, 'Lucida Grande', sans-serif" font-size="13">
        <rect fill="white" height="600.0" width="800.0" x="0.0" y="0.0" />
        <g font-size="13">
            <text x="18.0" y="176.0">Small</text>
            <text x="18.0" y="376.0">Medium</text>
            <text x="18.0" y="576.0">Large</text>
        </g>
        <g font-size="9">
            <text x="250.0" y="30.0">Ultralight</text>
            <text x="450.0" y="30.0">Regular</text>
            <text x="650.0" y="30.0">Black</text>
            <text id="template-version" fill="#505050" text-anchor="end" x="785.0" y="575.0">Template v.3.0</text>
            <a href="https://github.com/swhitty/SwiftDraw">
                <text fill="#505050" text-anchor="end" x="785.0" y="590.0">https://github.com/swhitty/SwiftDraw</text>
            </a>
        </g>
    </g>
    <g id="Guides" stroke="rgb(39, 170, 225)" stroke-width="0.5">
        <path id="Capline-S" d="M18,76 l800,0" />
        <path id="H-reference" d="M85,145.755 L87.685,145.755 L113.369,79.287 L114.052,79.287 L114.052,76 L112.148,76 L85,145.755 Z M95.693,121.536 L130.996,121.536 L130.263,119.313 L96.474,119.313 L95.693,121.536 Z M139.15,145.755 L141.787,145.755 L114.638,76 L113.466,76 L113.466,79.287 L139.15,145.755 Z" stroke="none" transform="translate(0,200)" />
        <path id="Baseline-S" d="M18,146 l800,0" />
        <path id="left-margin-Ultralight-M" d="M230,256 l0,110" />
        <path id="right-margin-Ultralight-M" d="M300,256 l0,110" />
        <path id="left-margin-Regular-M" d="M430,256 l0,110" />
        <path id="right-margin-Regular-M" d="M500,256 l0,110" />
        <path id="left-margin-Black-M" d="M630,256 l0,110" />
        <path id="right-margin-Black-M" d="M700,256 l0,110" />
        <path id="Capline-M" d="M18,276 l800,0" />
        <path id="Baseline-M" d="M18,346 l800,0" />
        <path id="Capline-L" d="M18,476 l800,0" />
        <path id="Baseline-L" d="M18,546 l800,0" />
    </g>
    <g id="Symbols">
        <g id="Ultralight-M" transform="translate(0,200)">
            <path d="M247.208,109.378 L247.208,117.481 C247.208,119.092 248.514,120.398 250.125,120.398 C251.736,120.398 253.042,119.092 253.042,117.481 L253.042,109.378 C253.042,107.768 251.736,106.462 250.125,106.462 C248.514,106.462 247.208,107.768 247.208,109.378 Z M253.042,109.378 L253.042,89.936 C253.042,88.875 253.944,87.99 255.083,87.99 C256.224,87.99 257.125,88.874 257.125,89.936 C257.125,91.547 258.431,92.853 260.042,92.853 C261.652,92.853 262.958,91.547 262.958,89.936 C262.958,85.626 259.42,82.157 255.083,82.157 C250.747,82.157 247.208,85.628 247.208,89.936 L247.208,109.378 C247.208,110.989 248.514,112.295 250.125,112.295 C251.736,112.295 253.042,110.989 253.042,109.378 Z M253.042,109.378 C253.042,105.071 249.503,101.603 245.167,101.603 C240.83,101.603 237.292,105.071 237.292,109.378 L237.292,115.862 C237.292,130.908 249.711,143.083 265,143.083 C280.289,143.083 292.708,130.908 292.708,115.862 L292.708,99.654 C292.708,95.346 289.17,91.875 284.833,91.875 C280.497,91.875 276.958,95.346 276.958,99.654 C276.958,101.265 278.264,102.571 279.875,102.571 C281.486,102.571 282.792,101.265 282.792,99.654 C282.792,98.594 283.694,97.709 284.833,97.709 C285.973,97.709 286.875,98.594 286.875,99.654 L286.875,115.862 C286.875,127.66 277.093,137.25 265,137.25 C252.907,137.25 243.125,127.66 243.125,115.862 L243.125,109.378 C243.125,108.319 244.026,107.436 245.167,107.436 C246.307,107.436 247.208,108.319 247.208,109.378 C247.208,110.989 248.514,112.295 250.125,112.295 C251.736,112.295 253.042,110.989 253.042,109.378 Z M257.125,89.933 L257.125,107.754 C257.125,109.365 258.431,110.67 260.042,110.67 C261.652,110.67 262.958,109.365 262.958,107.754 L262.958,89.933 C262.958,88.322 261.652,87.016 260.042,87.016 C258.431,87.016 257.125,88.322 257.125,89.933 Z M262.958,89.933 L262.958,86.695 C262.958,85.635 263.86,84.75 265,84.75 C266.141,84.75 267.042,85.633 267.042,86.695 L267.042,89.933 C267.042,91.544 268.348,92.85 269.958,92.85 C271.569,92.85 272.875,91.544 272.875,89.933 L272.875,86.695 C272.875,82.386 269.337,78.917 265,78.917 C260.664,78.917 257.125,82.388 257.125,86.695 L257.125,89.933 C257.125,91.544 258.431,92.85 260.042,92.85 C261.652,92.85 262.958,91.544 262.958,89.933 Z M267.042,89.933 L267.042,107.76 C267.042,109.37 268.348,110.676 269.958,110.676 C271.569,110.676 272.875,109.37 272.875,107.76 L272.875,89.933 C272.875,88.322 271.569,87.016 269.958,87.016 C268.348,87.016 267.042,88.322 267.042,89.933 Z M272.875,89.936 C272.875,88.875 273.777,87.99 274.917,87.99 C276.058,87.99 276.958,88.874 276.958,89.936 L276.958,99.654 C276.958,101.265 278.264,102.571 279.875,102.571 C281.486,102.571 282.792,101.265 282.792,99.654 L282.792,89.936 C282.792,85.626 279.254,82.157 274.917,82.157 C270.58,82.157 267.042,85.628 267.042,89.936 C267.042,91.547 268.348,92.853 269.958,92.853 C271.569,92.853 272.875,91.547 272.875,89.936 Z M276.958,99.654 L276.958,107.757 C276.958,109.367 278.264,110.673 279.875,110.673 C281.486,110.673 282.792,109.367 282.792,107.757 L282.792,99.654 C282.792,98.043 281.486,96.738 279.875,96.738 C278.264,96.738 276.958,98.043 276.958,99.654 Z" />
        </g>
        <g id="Regular-M" transform="translate(0,200)">
            <path d="M447.208,109.378 L447.208,117.481 C447.208,119.092 448.514,120.398 450.125,120.398 C451.736,120.398 453.042,119.092 453.042,117.481 L453.042,109.378 C453.042,107.768 451.736,106.462 450.125,106.462 C448.514,106.462 447.208,107.768 447.208,109.378 Z M453.042,109.378 L453.042,89.936 C453.042,88.875 453.944,87.99 455.083,87.99 C456.224,87.99 457.125,88.874 457.125,89.936 C457.125,91.547 458.431,92.853 460.042,92.853 C461.652,92.853 462.958,91.547 462.958,89.936 C462.958,85.626 459.42,82.157 455.083,82.157 C450.747,82.157 447.208,85.628 447.208,89.936 L447.208,109.378 C447.208,110.989 448.514,112.295 450.125,112.295 C451.736,112.295 453.042,110.989 453.042,109.378 Z M453.042,109.378 C453.042,105.071 449.503,101.603 445.167,101.603 C440.83,101.603 437.292,105.071 437.292,109.378 L437.292,115.862 C437.292,130.908 449.711,143.083 465,143.083 C480.289,143.083 492.708,130.908 492.708,115.862 L492.708,99.654 C492.708,95.346 489.17,91.875 484.833,91.875 C480.497,91.875 476.958,95.346 476.958,99.654 C476.958,101.265 478.264,102.571 479.875,102.571 C481.486,102.571 482.792,101.265 482.792,99.654 C482.792,98.594 483.694,97.709 484.833,97.709 C485.973,97.709 486.875,98.594 486.875,99.654 L486.875,115.862 C486.875,127.66 477.093,137.25 465,137.25 C452.907,137.25 443.125,127.66 443.125,115.862 L443.125,109.378 C443.125,108.319 444.026,107.436 445.167,107.436 C446.307,107.436 447.208,108.319 447.208,109.378 C447.208,110.989 448.514,112.295 450.125,112.295 C451.736,112.295 453.042,110.989 453.042,109.378 Z M457.125,89.933 L457.125,107.754 C457.125,109.365 458.431,110.67 460.042,110.67 C461.652,110.67 462.958,109.365 462.958,107.754 L462.958,89.933 C462.958,88.322 461.652,87.016 460.042,87.016 C458.431,87.016 457.125,88.322 457.125,89.933 Z M462.958,89.933 L462.958,86.695 C462.958,85.635 463.86,84.75 465,84.75 C466.141,84.75 467.042,85.633 467.042,86.695 L467.042,89.933 C467.042,91.544 468.348,92.85 469.958,92.85 C471.569,92.85 472.875,91.544 472.875,89.933 L472.875,86.695 C472.875,82.386 469.337,78.917 465,78.917 C460.664,78.917 457.125,82.388 457.125,86.695 L457.125,89.933 C457.125,91.544 458.431,92.85 460.042,92.85 C461.652,92.85 462.958,91.544 462.958,89.933 Z M467.042,89.933 L467.042,107.76 C467.042,109.37 468.348,110.676 469.958,110.676 C471.569,110.676 472.875,109.37 472.875,107.76 L472.875,89.933 C472.875,88.322 471.569,87.016 469.958,87.016 C468.348,87.016 467.042,88.322 467.042,89.933 Z M472.875,89.936 C472.875,88.875 473.777,87.99 474.917,87.99 C476.058,87.99 476.958,88.874 476.958,89.936 L476.958,99.654 C476.958,101.265 478.264,102.571 479.875,102.571 C481.486,102.571 482.792,101.265 482.792,99.654 L482.792,89.936 C482.792,85.626 479.254,82.157 474.917,82.157 C470.58,82.157 467.042,85.628 467.042,89.936 C467.042,91.547 468.348,92.853 469.958,92.853 C471.569,92.853 472.875,91.547 472.875,89.936 Z M476.958,99.654 L476.958,107.757 C476.958,109.367 478.264,110.673 479.875,110.673 C481.486,110.673 482.792,109.367 482.792,107.757 L482.792,99.654 C482.792,98.043 481.486,96.738 479.875,96.738 C478.264,96.738 476.958,98.043 476.958,99.654 Z" />
        </g>
        <g id="Black-M" transform="translate(0,200)">
            <path d="M647.208,109.378 L647.208,117.481 C647.208,119.092 648.514,120.398 650.125,120.398 C651.736,120.398 653.042,119.092 653.042,117.481 L653.042,109.378 C653.042,107.768 651.736,106.462 650.125,106.462 C648.514,106.462 647.208,107.768 647.208,109.378 Z M653.042,109.378 L653.042,89.936 C653.042,88.875 653.944,87.99 655.083,87.99 C656.224,87.99 657.125,88.874 657.125,89.936 C657.125,91.547 658.431,92.853 660.042,92.853 C661.653,92.853 662.958,91.547 662.958,89.936 C662.958,85.626 659.42,82.157 655.083,82.157 C650.747,82.157 647.208,85.628 647.208,89.936 L647.208,109.378 C647.208,110.989 648.514,112.295 650.125,112.295 C651.736,112.295 653.042,110.989 653.042,109.378 Z M653.042,109.378 C653.042,105.071 649.503,101.603 645.167,101.603 C640.83,101.603 637.292,105.071 637.292,109.378 L637.292,115.862 C637.292,130.908 649.711,143.083 665,143.083 C680.289,143.083 692.708,130.908 692.708,115.862 L692.708,99.654 C692.708,95.346 689.17,91.875 684.833,91.875 C680.497,91.875 676.958,95.346 676.958,99.654 C676.958,101.265 678.264,102.571 679.875,102.571 C681.486,102.571 682.792,101.265 682.792,99.654 C682.792,98.594 683.694,97.709 684.833,97.709 C685.973,97.709 686.875,98.594 686.875,99.654 L686.875,115.862 C686.875,127.66 677.093,137.25 665,137.25 C652.907,137.25 643.125,127.66 643.125,115.862 L643.125,109.378 C643.125,108.319 644.026,107.436 645.167,107.436 C646.307,107.436 647.208,108.319 647.208,109.378 C647.208,110.989 648.514,112.295 650.125,112.295 C651.736,112.295 653.042,110.989 653.042,109.378 Z M657.125,89.933 L657.125,107.754 C657.125,109.365 658.431,110.67 660.042,110.67 C661.652,110.67 662.958,109.365 662.958,107.754 L662.958,89.933 C662.958,88.322 661.652,87.016 660.042,87.016 C658.431,87.016 657.125,88.322 657.125,89.933 Z M662.958,89.933 L662.958,86.695 C662.958,85.635 663.86,84.75 665,84.75 C666.141,84.75 667.042,85.633 667.042,86.695 L667.042,89.933 C667.042,91.544 668.348,92.85 669.958,92.85 C671.569,92.85 672.875,91.544 672.875,89.933 L672.875,86.695 C672.875,82.386 669.337,78.917 665,78.917 C660.664,78.917 657.125,82.388 657.125,86.695 L657.125,89.933 C657.125,91.544 658.431,92.85 660.042,92.85 C661.652,92.85 662.958,91.544 662.958,89.933 Z M667.042,89.933 L667.042,107.76 C667.042,109.37 668.348,110.676 669.958,110.676 C671.569,110.676 672.875,109.37 672.875,107.76 L672.875,89.933 C672.875,88.322 671.569,87.016 669.958,87.016 C668.348,87.016 667.042,88.322 667.042,89.933 Z M672.875,89.936 C672.875,88.875 673.777,87.99 674.917,87.99 C676.058,87.99 676.958,88.874 676.958,89.936 L676.958,99.654 C676.958,101.265 678.264,102.571 679.875,102.571 C681.486,102.571 682.792,101.265 682.792,99.654 L682.792,89.936 C682.792,85.626 679.254,82.157 674.917,82.157 C670.58,82.157 667.042,85.628 667.042,89.936 C667.042,91.547 668.348,92.853 669.958,92.853 C671.569,92.853 672.875,91.547 672.875,89.936 Z M676.958,99.654 L676.958,107.757 C676.958,109.367 678.264,110.673 679.875,110.673 C681.486,110.673 682.792,109.367 682.792,107.757 L682.792,99.654 C682.792,98.043 681.486,96.738 679.875,96.738 C678.264,96.738 676.958,98.043 676.958,99.654 Z" />
        </g>
    </g>
</svg>