<?xml version="1.0" encoding="UTF-8"?>
<svg height="600" width="800" xmlns="http://www.w3.org/2000/svg" xmlns:xlink="http://www.w3.org/1999/xlink">
    <g id="Notes" font-family="LucidaGrande, 'Lucida Grande', sans-serif" font-size="13">
        <rect fill="white" height="600.0" width="800.0" x="0.0" y="0.0" />
        <g font-size="13">
            <text x="18.0" y="176.0">Small</text>
            <text x="18.0" y="376.0">Medium</text>
            <text x="18.0" y="576.0">Large</text>
        </g>
        <g font-size="9">
            <text x="250.0" y="30.0">Ultralight</text>
            <text x="450.0" y="30.0">Regular</text>
            <text x="650.0" y="30.0">Black</text>
            <text id="template-version" fill="#505050" text-anchor="end" x="785.0" y="575.0">Template v.3.0</text>
            <a href="https://github.com/swhitty/SwiftDraw">
                <text fill="#505050" text-anchor="end" x="785.0" y="590.0">https://github.com/swhitty/SwiftDraw</text>
            </a>
        </g>
    </g>
    <g id="Guides" stroke="rgb(39, 170, 225)" stroke-width="0.5">
        <path id="Capline-S" d="M18,76 l800,0" />
        <path id="H-reference" d="M85,145.755 L87.685,145.755 L113.369,79.287 L114.052,79.287 L114.052,76 L112.148,76 L85,145.755 Z M95.693,121.536 L130.996,121.536 L130.263,119.313 L96.474,119.313 L95.693,121.536 Z M139.15,145.755 L141.787,145.755 L114.638,76 L113.466,76 L113.466,79.287 L139.15,145.755 Z" stroke="none" transform="translate(0,200)" />
        <path id="Baseline-S" d="M18,146 l800,0" />
        <path id="left-margin-Ultralight-M" d="M221,256 l0,110" />
        <path id="right-margin-Ultralight-M" d="M309,256 l0,110" />
        <path id="left-margin-Regular-M" d="M421,256 l0,110" />
        <path id="right-margin-Regular-M" d="M509,256 l0,110" />
        <path id="left-margin-Black-M" d="M621,256 l0,110" />
        <path id="right-margin-Black-M" d="M709,256 l0,110" />
        <path id="Capline-M" d="M18,276 l800,0" />
        <path id="Baseline-M" d="M18,346 l800,0" />
        <path id="Capline-L" d="M18,476 l800,0" />
        <path id="Baseline-L" d="M18,546 l800,0" />
    </g>
    <g id="Symbols">
        <g id="Ultralight-M" transform="translate(0,200)">
            <path d="M264.36,91.873 C264.901,91.572 265.029,91.509 265.023,91.511 C265.012,91.513 265.012,91.513 265.001,91.516 C264.999,91.516 264.999,91.516 264.999,91.516 C264.972,91.51 265.092,91.568 265.64,91.873 L281.921,100.916 C282.428,101.198 282.574,101.284 282.644,101.337 C282.635,101.33 282.613,101.311 282.588,101.283 C282.602,101.298 282.602,101.298 282.602,101.298 C282.591,101.266 282.6,101.409 282.6,102.07 L282.6,119.928 C282.6,120.591 282.591,120.734 282.6,120.708 C282.602,120.702 282.602,120.702 282.602,120.702 C282.614,120.689 282.496,120.764 281.924,121.081 L265.641,130.127 C265.104,130.425 264.977,130.488 264.989,130.485 C265.001,130.482 265.001,130.482 265.013,130.48 C264.998,130.483 265.005,130.483 265.012,130.485 C265.001,130.482 265.001,130.482 265.012,130.485 C265.027,130.488 264.903,130.428 264.355,130.124 L248.079,121.085 C247.572,120.803 247.426,120.716 247.356,120.663 C247.365,120.67 247.387,120.69 247.412,120.718 C247.398,120.702 247.398,120.702 247.398,120.702 C247.409,120.734 247.4,120.591 247.4,119.928 L247.4,102.07 C247.4,101.409 247.409,101.266 247.4,101.293 C247.398,101.298 247.398,101.298 247.398,101.298 C247.386,101.311 247.504,101.236 248.076,100.92 L264.359,91.874 Z M262.222,88.027 L245.942,97.072 C244.884,97.657 244.601,97.838 244.161,98.318 C243.742,98.771 243.42,99.317 243.222,99.912 C243.019,100.529 243,100.848 243,102.07 L243,119.928 C243,121.152 243.019,121.471 243.22,122.083 C243.42,122.684 243.742,123.23 244.168,123.69 C244.32,123.857 244.5,124.02 244.7,124.171 C245.007,124.404 245.209,124.523 245.941,124.93 L262.222,133.973 C263.221,134.525 263.446,134.636 263.998,134.767 C264.062,134.781 264.062,134.781 264.126,134.795 C264.696,134.915 265.307,134.915 265.898,134.79 C265.947,134.78 265.947,134.78 266.017,134.764 C266.566,134.632 266.813,134.51 267.779,133.972 L284.058,124.929 C285.116,124.343 285.399,124.163 285.839,123.682 C286.258,123.23 286.58,122.684 286.778,122.088 C286.981,121.471 287,121.152 287,119.928 L287,102.07 C287,100.848 286.981,100.529 286.78,99.918 C286.58,99.317 286.258,98.771 285.832,98.31 C285.68,98.143 285.5,97.981 285.3,97.829 C284.993,97.597 284.792,97.478 284.059,97.07 L267.778,88.027 C266.765,87.464 266.49,87.331 265.887,87.207 C265.301,87.086 264.697,87.086 264.112,87.206 C264.04,87.221 264.04,87.221 263.971,87.238 C263.428,87.372 263.183,87.493 262.221,88.028 Z" />
            <path d="M266.665,103.12 C263.604,99.541 258.553,98.884 254.941,101.968 C251.308,105.073 250.754,110.339 253.654,114.067 C254.928,115.705 257.681,118.379 261.222,121.585 C262.5,122.741 262.854,123.013 263.719,123.275 C264.537,123.523 265.446,123.523 266.269,123.274 C267.132,123.012 267.485,122.741 268.762,121.585 C272.277,118.406 275.054,115.708 276.331,114.067 C279.247,110.318 278.71,105.015 275.022,101.949 C271.364,98.909 266.372,99.552 263.319,103.12 C262.098,104.547 263.113,106.75 264.991,106.75 L264.993,106.75 C266.872,106.75 267.886,104.547 266.665,103.12 Z M263.322,105.98 L264.993,104.55 L264.993,102.35 L264.991,102.35 L264.991,104.55 L266.663,105.98 C268.204,104.179 270.47,103.887 272.209,105.333 C274.06,106.872 274.324,109.48 272.858,111.365 C271.802,112.722 269.111,115.337 265.81,118.323 C265.114,118.953 264.955,119.075 264.992,119.064 C265.003,119.06 264.984,119.06 264.996,119.064 C265.029,119.074 264.871,118.953 264.175,118.323 C260.85,115.313 258.18,112.719 257.127,111.366 C255.675,109.499 255.949,106.894 257.799,105.314 C259.482,103.876 261.777,104.175 263.322,105.98 Z" />
        </g>
        <g id="Regular-M" transform="translate(0,200)">
            <path d="M464.36,91.873 C464.901,91.572 465.029,91.509 465.023,91.511 C465.012,91.513 465.012,91.513 465.001,91.516 C464.999,91.516 464.999,91.516 464.999,91.516 C464.972,91.51 465.092,91.568 465.64,91.873 L481.921,100.916 C482.428,101.198 482.574,101.284 482.644,101.337 C482.635,101.33 482.613,101.311 482.588,101.283 C482.602,101.298 482.602,101.298 482.602,101.298 C482.591,101.266 482.6,101.409 482.6,102.07 L482.6,119.928 C482.6,120.591 482.591,120.734 482.6,120.708 C482.602,120.702 482.602,120.702 482.602,120.702 C482.614,120.689 482.496,120.764 481.924,121.081 L465.641,130.127 C465.104,130.425 464.977,130.488 464.989,130.485 C465.001,130.482 465.001,130.482 465.013,130.48 C464.998,130.483 465.005,130.483 465.012,130.485 C465.001,130.482 465.001,130.482 465.012,130.485 C465.027,130.488 464.903,130.428 464.355,130.124 L448.079,121.085 C447.572,120.803 447.426,120.716 447.356,120.663 C447.365,120.67 447.387,120.69 447.412,120.718 C447.398,120.702 447.398,120.702 447.398,120.702 C447.409,120.734 447.4,120.591 447.4,119.928 L447.4,102.07 C447.4,101.409 447.409,101.266 447.4,101.293 C447.398,101.298 447.398,101.298 447.398,101.298 C447.386,101.311 447.504,101.236 448.076,100.92 L464.359,91.874 Z M462.222,88.027 L445.942,97.072 C444.884,97.657 444.601,97.838 444.161,98.318 C443.742,98.771 443.42,99.317 443.222,99.912 C443.019,100.529 443,100.848 443,102.07 L443,119.928 C443,121.152 443.019,121.471 443.22,122.083 C443.42,122.684 443.742,123.23 444.168,123.69 C444.32,123.857 444.5,124.02 444.7,124.171 C445.007,124.404 445.208,124.523 445.941,124.93 L462.222,133.973 C463.221,134.525 463.446,134.636 463.998,134.767 C464.062,134.781 464.062,134.781 464.126,134.795 C464.696,134.915 465.307,134.915 465.898,134.79 C465.947,134.78 465.947,134.78 466.017,134.764 C466.566,134.632 466.813,134.51 467.779,133.972 L484.058,124.929 C485.116,124.343 485.399,124.163 485.839,123.682 C486.258,123.23 486.58,122.684 486.778,122.088 C486.981,121.471 487,121.152 487,119.928 L487,102.07 C487,100.848 486.981,100.529 486.78,99.918 C486.58,99.317 486.258,98.771 485.832,98.31 C485.68,98.143 485.5,97.981 485.3,97.829 C484.993,97.597 484.792,97.478 484.059,97.07 L467.778,88.027 C466.765,87.464 466.49,87.331 465.887,87.207 C465.301,87.086 464.697,87.086 464.112,87.206 C464.04,87.221 464.04,87.221 463.971,87.238 C463.428,87.372 463.183,87.493 462.221,88.028 Z" />
            <path d="M466.665,103.12 C463.604,99.541 458.553,98.884 454.941,101.968 C451.308,105.073 450.754,110.339 453.654,114.067 C454.928,115.705 457.681,118.379 461.222,121.585 C462.5,122.741 462.854,123.013 463.719,123.275 C464.537,123.523 465.446,123.523 466.269,123.274 C467.132,123.012 467.485,122.741 468.762,121.585 C472.277,118.406 475.054,115.708 476.331,114.067 C479.247,110.318 478.71,105.015 475.022,101.949 C471.364,98.909 466.372,99.552 463.319,103.12 C462.098,104.547 463.113,106.75 464.991,106.75 L464.993,106.75 C466.872,106.75 467.886,104.547 466.665,103.12 Z M463.322,105.98 L464.993,104.55 L464.993,102.35 L464.991,102.35 L464.991,104.55 L466.663,105.98 C468.204,104.179 470.47,103.887 472.209,105.333 C474.06,106.872 474.324,109.48 472.858,111.365 C471.802,112.722 469.111,115.337 465.81,118.323 C465.114,118.953 464.955,119.075 464.992,119.064 C465.003,119.06 464.984,119.06 464.996,119.064 C465.029,119.074 464.871,118.953 464.175,118.323 C460.85,115.313 458.18,112.719 457.127,111.366 C455.675,109.499 455.949,106.894 457.799,105.314 C459.482,103.876 461.777,104.175 463.322,105.98 Z" />
        </g>
        <g id="Black-M" transform="translate(0,200)">
            <path d="M664.36,91.873 C664.901,91.572 665.029,91.509 665.023,91.511 C665.012,91.513 665.012,91.513 665.001,91.516 C664.999,91.516 664.999,91.516 664.999,91.516 C664.972,91.51 665.092,91.568 665.64,91.873 L681.921,100.916 C682.428,101.198 682.574,101.284 682.644,101.337 C682.635,101.33 682.613,101.311 682.588,101.283 C682.602,101.298 682.602,101.298 682.602,101.298 C682.591,101.266 682.6,101.409 682.6,102.07 L682.6,119.928 C682.6,120.591 682.591,120.734 682.6,120.708 C682.602,120.702 682.602,120.702 682.602,120.702 C682.614,120.689 682.496,120.764 681.924,121.081 L665.641,130.127 C665.104,130.425 664.977,130.488 664.989,130.485 C665.001,130.482 665.001,130.482 665.013,130.48 C664.998,130.483 665.005,130.483 665.011,130.485 C665.001,130.482 665.001,130.482 665.012,130.485 C665.027,130.488 664.903,130.428 664.355,130.124 L648.079,121.085 C647.572,120.803 647.426,120.716 647.356,120.663 C647.365,120.67 647.387,120.69 647.412,120.718 C647.398,120.702 647.398,120.702 647.398,120.702 C647.409,120.734 647.4,120.591 647.4,119.928 L647.4,102.07 C647.4,101.409 647.409,101.266 647.4,101.293 C647.398,101.298 647.398,101.298 647.398,101.298 C647.386,101.311 647.504,101.236 648.076,100.92 L664.359,91.874 Z M662.222,88.027 L645.942,97.072 C644.884,97.657 644.601,97.838 644.161,98.318 C643.742,98.771 643.42,99.317 643.222,99.912 C643.019,100.529 643,100.848 643,102.07 L643,119.928 C643,121.152 643.019,121.471 643.22,122.083 C643.42,122.684 643.742,123.23 644.168,123.69 C644.32,123.857 644.5,124.02 644.7,124.171 C645.007,124.404 645.208,124.523 645.941,124.93 L662.222,133.973 C663.221,134.525 663.446,134.636 663.998,134.767 C664.062,134.781 664.062,134.781 664.126,134.795 C664.696,134.915 665.307,134.915 665.898,134.79 C665.947,134.78 665.947,134.78 666.017,134.764 C666.566,134.632 666.813,134.51 667.779,133.972 L684.058,124.929 C685.116,124.343 685.399,124.163 685.839,123.682 C686.258,123.23 686.58,122.684 686.778,122.088 C686.981,121.471 687,121.152 687,119.928 L687,102.07 C687,100.848 686.981,100.529 686.78,99.918 C686.58,99.317 686.258,98.771 685.832,98.31 C685.68,98.143 685.5,97.981 685.3,97.829 C684.993,97.597 684.792,97.478 684.059,97.07 L667.778,88.027 C666.765,87.464 666.49,87.331 665.887,87.207 C665.301,87.086 664.697,87.086 664.112,87.206 C664.04,87.221 664.04,87.221 663.971,87.238 C663.428,87.372 663.183,87.493 662.221,88.028 Z" />
            <path d="M666.665,103.12 C663.604,99.541 658.553,98.884 654.941,101.968 C651.308,105.073 650.754,110.339 653.654,114.067 C654.928,115.705 657.681,118.379 661.222,121.585 C662.5,122.741 662.854,123.013 663.719,123.275 C664.537,123.523 665.446,123.523 666.269,123.274 C667.132,123.012 667.485,122.741 668.762,121.585 C672.277,118.406 675.054,115.708 676.331,114.067 C679.247,110.318 678.71,105.015 675.021,101.949 C671.364,98.909 666.372,99.552 663.319,103.12 C662.098,104.547 663.113,106.75 664.991,106.75 L664.993,106.75 C666.872,106.75 667.886,104.547 666.665,103.12 Z M663.322,105.98 L664.993,104.55 L664.993,102.35 L664.991,102.35 L664.991,104.55 L666.663,105.98 C668.204,104.179 670.47,103.887 672.209,105.333 C674.06,106.872 674.324,109.48 672.858,111.365 C671.802,112.722 669.111,115.337 665.81,118.323 C665.114,118.953 664.955,119.075 664.992,119.064 C665.003,119.06 664.984,119.06 664.996,119.064 C665.029,119.074 664.871,118.953 664.175,118.323 C660.85,115.313 658.18,112.719 657.127,111.366 C655.675,109.499 655.949,106.894 657.799,105.314 C659.482,103.876 661.777,104.175 663.322,105.98 Z" />
        </g>
    </g>
</svg>