<?xml version="1.0" encoding="UTF-8"?>
<svg height="600" width="800" xmlns="http://www.w3.org/2000/svg" xmlns:xlink="http://www.w3.org/1999/xlink">
    <g id="Notes" font-family="LucidaGrande, 'Lucida Grande', sans-serif" font-size="13">
        <rect fill="white" height="600.0" width="800.0" x="0.0" y="0.0" />
        <g font-size="13">
            <text x="18.0" y="176.0">Small</text>
            <text x="18.0" y="376.0">Medium</text>
            <text x="18.0" y="576.0">Large</text>
        </g>
        <g font-size="9">
            <text x="250.0" y="30.0">Ultralight</text>
            <text x="450.0" y="30.0">Regular</text>
            <text x="650.0" y="30.0">Black</text>
            <text id="template-version" fill="#505050" text-anchor="end" x="785.0" y="575.0">Template v.3.0</text>
            <a href="https://github.com/swhitty/SwiftDraw">
                <text fill="#505050" text-anchor="end" x="785.0" y="590.0">https://github.com/swhitty/SwiftDraw</text>
            </a>
        </g>
    </g>
    <g id="Guides" stroke="rgb(39, 170, 225)" stroke-width="0.5">
        <path id="Capline-S" d="M18,76 l800,0" />
        <path id="H-reference" d="M85,145.755 L87.685,145.755 L113.369,79.287 L114.052,79.287 L114.052,76 L112.148,76 L85,145.755 Z M95.693,121.536 L130.996,121.536 L130.263,119.313 L96.474,119.313 L95.693,121.536 Z M139.15,145.755 L141.787,145.755 L114.638,76 L113.466,76 L113.466,79.287 L139.15,145.755 Z" stroke="none" transform="translate(0,200)" />
        <path id="Baseline-S" d="M18,146 l800,0" />
        <path id="left-margin-Ultralight-M" d="M230,256 l0,110" />
        <path id="right-margin-Ultralight-M" d="M300,256 l0,110" />
        <path id="left-margin-Regular-M" d="M430,256 l0,110" />
        <path id="right-margin-Regular-M" d="M500,256 l0,110" />
        <path id="left-margin-Black-M" d="M630,256 l0,110" />
        <path id="right-margin-Black-M" d="M700,256 l0,110" />
        <path id="Capline-M" d="M18,276 l800,0" />
        <path id="Baseline-M" d="M18,346 l800,0" />
        <path id="Capline-L" d="M18,476 l800,0" />
        <path id="Baseline-L" d="M18,546 l800,0" />
    </g>
    <g id="Symbols">
        <g id="Ultralight-M" transform="translate(0,200)">
            <path d="M267.395,84.773 C259.637,74.714 247.022,72.893 237.971,81.469 C228.752,90.205 227.353,104.963 234.694,115.434 C238.991,121.571 249.521,132.594 261.21,144.073 C262.345,145.193 262.666,145.463 263.603,145.776 C264.506,146.073 265.449,146.073 266.335,145.782 C267.286,145.464 267.629,145.177 268.75,144.071 C280.443,132.588 290.966,121.572 295.264,115.437 C302.648,104.895 301.293,90.049 291.954,81.438 C282.758,72.964 270.292,74.743 262.559,84.774 L267.395,84.773 Z M262.559,89.361 C263.83,91.008 266.126,91.008 267.396,89.361 C272.942,82.166 281.466,80.949 287.886,86.867 C294.569,93.028 295.529,103.553 290.239,111.106 C286.294,116.737 275.842,127.679 264.526,138.792 C264.222,139.092 264.172,139.133 264.513,139.019 C264.822,138.918 265.133,138.918 265.425,139.014 C265.787,139.135 265.736,139.092 265.435,138.795 C254.122,127.685 243.664,116.737 239.719,111.103 C234.47,103.616 235.464,93.128 242.105,86.836 C248.367,80.902 256.995,82.147 262.559,89.361 Z" />
        </g>
        <g id="Regular-M" transform="translate(0,200)">
            <path d="M467.395,84.773 C459.637,74.714 447.022,72.893 437.971,81.469 C428.751,90.205 427.353,104.963 434.694,115.434 C438.991,121.571 449.521,132.594 461.21,144.073 C462.345,145.193 462.666,145.463 463.603,145.776 C464.506,146.073 465.449,146.073 466.335,145.782 C467.286,145.464 467.629,145.177 468.75,144.071 C480.443,132.588 490.966,121.572 495.264,115.437 C502.648,104.895 501.293,90.049 491.954,81.438 C482.758,72.964 470.292,74.743 462.559,84.774 L467.395,84.773 Z M462.559,89.361 C463.83,91.008 466.126,91.008 467.396,89.361 C472.942,82.166 481.466,80.949 487.886,86.867 C494.569,93.028 495.529,103.553 490.239,111.106 C486.294,116.737 475.842,127.679 464.526,138.792 C464.222,139.092 464.172,139.133 464.513,139.019 C464.822,138.918 465.133,138.918 465.425,139.014 C465.787,139.135 465.736,139.092 465.435,138.795 C454.122,127.685 443.664,116.737 439.719,111.103 C434.47,103.616 435.464,93.128 442.105,86.836 C448.367,80.902 456.995,82.147 462.559,89.361 Z" />
        </g>
        <g id="Black-M" transform="translate(0,200)">
            <path d="M667.395,84.773 C659.637,74.714 647.022,72.893 637.971,81.469 C628.752,90.205 627.353,104.963 634.694,115.434 C638.991,121.571 649.521,132.594 661.21,144.073 C662.345,145.193 662.666,145.463 663.603,145.776 C664.506,146.073 665.449,146.073 666.335,145.782 C667.286,145.464 667.629,145.177 668.75,144.071 C680.443,132.588 690.966,121.572 695.264,115.437 C702.648,104.895 701.293,90.049 691.954,81.438 C682.758,72.964 670.292,74.743 662.559,84.774 L667.395,84.773 Z M662.559,89.361 C663.83,91.008 666.126,91.008 667.396,89.361 C672.942,82.166 681.466,80.949 687.886,86.867 C694.569,93.028 695.529,103.553 690.239,111.106 C686.294,116.737 675.842,127.679 664.526,138.792 C664.222,139.092 664.172,139.133 664.513,139.019 C664.822,138.918 665.133,138.918 665.425,139.014 C665.787,139.135 665.736,139.092 665.435,138.795 C654.122,127.685 643.664,116.737 639.719,111.103 C634.47,103.616 635.464,93.128 642.105,86.836 C648.367,80.902 656.995,82.147 662.559,89.361 Z" />
        </g>
    </g>
</svg>