<?xml version="1.0" encoding="UTF-8"?>
<svg height="600" width="800" xmlns="http://www.w3.org/2000/svg" xmlns:xlink="http://www.w3.org/1999/xlink">
    <g id="Notes" font-family="LucidaGrande, 'Lucida Grande', sans-serif" font-size="13">
        <rect fill="white" height="600.0" width="800.0" x="0.0" y="0.0" />
        <g font-size="13">
            <text x="18.0" y="176.0">Small</text>
            <text x="18.0" y="376.0">Medium</text>
            <text x="18.0" y="576.0">Large</text>
        </g>
        <g font-size="9">
            <text x="250.0" y="30.0">Ultralight</text>
            <text x="450.0" y="30.0">Regular</text>
            <text x="650.0" y="30.0">Black</text>
            <text id="template-version" fill="#505050" text-anchor="end" x="785.0" y="575.0">Template v.3.0</text>
            <a href="https://github.com/swhitty/SwiftDraw">
                <text fill="#505050" text-anchor="end" x="785.0" y="590.0">https://github.com/swhitty/SwiftDraw</text>
            </a>
        </g>
    </g>
    <g id="Guides" stroke="rgb(39, 170, 225)" stroke-width="0.5">
        <path id="Capline-S" d="M18,76 l800,0" />
        <path id="H-reference" d="M85,145.755 L87.685,145.755 L113.369,79.287 L114.052,79.287 L114.052,76 L112.148,76 L85,145.755 Z M95.693,121.536 L130.996,121.536 L130.263,119.313 L96.474,119.313 L95.693,121.536 Z M139.15,145.755 L141.787,145.755 L114.638,76 L113.466,76 L113.466,79.287 L139.15,145.755 Z" stroke="none" transform="translate(0,200)" />
        <path id="Baseline-S" d="M18,146 l800,0" />
        <path id="left-margin-Ultralight-M" d="M230,256 l0,110" />
        <path id="right-margin-Ultralight-M" d="M300,256 l0,110" />
        <path id="left-margin-Regular-M" d="M430,256 l0,110" />
        <path id="right-margin-Regular-M" d="M500,256 l0,110" />
        <path id="left-margin-Black-M" d="M630,256 l0,110" />
        <path id="right-margin-Black-M" d="M700,256 l0,110" />
        <path id="Capline-M" d="M18,276 l800,0" />
        <path id="Baseline-M" d="M18,346 l800,0" />
        <path id="Capline-L" d="M18,476 l800,0" />
        <path id="Baseline-L" d="M18,546 l800,0" />
    </g>
    <g id="Symbols">
        <g id="Ultralight-M" transform="translate(0,200)">
            <path d="M263.982,82.971 C264.842,82.531 265.046,82.438 265.037,82.44 C265.019,82.444 265.019,82.444 265.001,82.447 C264.998,82.448 264.998,82.448 264.998,82.448 C264.956,82.44 265.146,82.525 266.018,82.971 L291.92,96.223 C292.726,96.636 292.959,96.763 293.07,96.84 C293.055,96.83 293.021,96.801 292.981,96.761 C293.003,96.783 293.003,96.783 293.003,96.783 C292.986,96.736 293,96.946 293,97.915 L293,124.084 C293,125.055 292.986,125.265 293,125.227 C293.003,125.218 293.003,125.218 293.003,125.218 C293.022,125.199 292.835,125.309 291.925,125.773 L266.02,139.029 C265.165,139.467 264.963,139.559 264.982,139.555 C265.001,139.551 265.001,139.551 265.021,139.547 C264.996,139.552 265.007,139.552 265.018,139.554 C265.001,139.551 265.001,139.551 265.019,139.554 C265.043,139.559 264.846,139.47 263.974,139.026 L238.08,125.779 C237.274,125.366 237.041,125.239 236.93,125.161 C236.945,125.172 236.979,125.2 237.019,125.241 C236.997,125.218 236.997,125.218 236.997,125.218 C237.014,125.265 237,125.055 237,124.084 L237,97.915 C237,96.946 237.014,96.736 237,96.775 C236.997,96.783 236.997,96.783 236.997,96.783 C236.978,96.802 237.165,96.692 238.075,96.229 L263.98,82.972 Z M260.581,77.336 L234.681,90.589 C232.997,91.448 232.547,91.712 231.847,92.417 C231.181,93.079 230.668,93.88 230.353,94.752 C230.03,95.656 230,96.124 230,97.915 L230,124.084 C230,125.878 230.03,126.345 230.35,127.241 C230.668,128.122 231.181,128.922 231.858,129.597 C232.1,129.842 232.386,130.08 232.705,130.302 C233.193,130.643 233.514,130.817 234.678,131.414 L260.581,144.666 C262.17,145.475 262.527,145.637 263.406,145.829 C263.508,145.85 263.508,145.85 263.61,145.87 C264.516,146.046 265.488,146.046 266.429,145.863 C266.506,145.848 266.506,145.848 266.618,145.824 C267.492,145.631 267.884,145.453 269.421,144.665 L295.319,131.412 C297.003,130.554 297.453,130.29 298.153,129.585 C298.819,128.922 299.332,128.122 299.647,127.25 C299.97,126.345 300,125.878 300,124.084 L300,97.915 C300,96.124 299.97,95.656 299.65,94.76 C299.332,93.88 298.819,93.079 298.142,92.405 C297.9,92.16 297.614,91.922 297.295,91.699 C296.807,91.359 296.487,91.185 295.322,90.588 L269.419,77.336 C267.808,76.51 267.37,76.315 266.412,76.133 C265.478,75.956 264.518,75.956 263.588,76.132 C263.473,76.155 263.473,76.155 263.363,76.179 C262.499,76.375 262.109,76.553 260.579,77.337 Z" />
            <path d="M267.649,99.452 C262.779,94.208 254.743,93.245 248.997,97.765 C243.217,102.315 242.336,110.032 246.949,115.495 C248.977,117.896 253.356,121.813 258.99,126.512 C261.022,128.207 261.586,128.605 262.962,128.988 C264.263,129.353 265.709,129.353 267.019,128.988 C268.392,128.603 268.954,128.207 270.985,126.512 C276.578,121.853 280.996,117.9 283.026,115.495 C287.665,110.001 286.811,102.23 280.943,97.737 C275.125,93.282 267.182,94.224 262.326,99.452 C260.384,101.544 261.997,104.772 264.986,104.772 L264.99,104.772 C267.978,104.772 269.592,101.544 267.649,99.452 Z M262.33,103.644 L264.99,101.548 L264.99,98.324 L264.986,98.324 L264.986,101.548 L267.646,103.644 C270.097,101.005 273.702,100.577 276.469,102.696 C279.414,104.951 279.834,108.773 277.501,111.536 C275.822,113.524 271.54,117.356 266.289,121.731 C265.181,122.655 264.928,122.834 264.987,122.817 C265.005,122.812 264.974,122.812 264.994,122.818 C265.046,122.832 264.794,122.655 263.688,121.732 C258.398,117.32 254.15,113.52 252.475,111.536 C250.165,108.801 250.601,104.984 253.543,102.668 C256.222,100.561 259.873,100.998 262.33,103.644 Z" />
        </g>
        <g id="Regular-M" transform="translate(0,200)">
            <path d="M463.982,82.971 C464.842,82.531 465.046,82.438 465.037,82.44 C465.019,82.444 465.019,82.444 465.001,82.447 C464.998,82.448 464.998,82.448 464.998,82.448 C464.956,82.44 465.146,82.525 466.018,82.971 L491.92,96.223 C492.726,96.636 492.959,96.763 493.07,96.84 C493.055,96.83 493.021,96.801 492.981,96.761 C493.003,96.783 493.003,96.783 493.003,96.783 C492.986,96.736 493,96.946 493,97.915 L493,124.084 C493,125.055 492.986,125.265 493,125.227 C493.003,125.218 493.003,125.218 493.003,125.218 C493.022,125.199 492.835,125.309 491.925,125.773 L466.02,139.029 C465.165,139.467 464.963,139.559 464.982,139.555 C465.001,139.551 465.001,139.551 465.021,139.547 C464.996,139.552 465.007,139.552 465.018,139.554 C465.001,139.551 465.001,139.551 465.019,139.554 C465.043,139.559 464.846,139.47 463.974,139.026 L438.08,125.779 C437.274,125.366 437.041,125.239 436.93,125.161 C436.945,125.172 436.979,125.2 437.019,125.241 C436.997,125.218 436.997,125.218 436.997,125.218 C437.014,125.265 437,125.055 437,124.084 L437,97.915 C437,96.946 437.014,96.736 437,96.775 C436.997,96.783 436.997,96.783 436.997,96.783 C436.978,96.802 437.165,96.692 438.075,96.229 L463.98,82.972 Z M460.581,77.336 L434.681,90.589 C432.997,91.448 432.547,91.712 431.847,92.417 C431.181,93.079 430.668,93.88 430.353,94.752 C430.03,95.656 430,96.124 430,97.915 L430,124.084 C430,125.878 430.03,126.345 430.35,127.241 C430.668,128.122 431.181,128.922 431.858,129.597 C432.1,129.842 432.386,130.08 432.705,130.302 C433.193,130.643 433.514,130.817 434.678,131.414 L460.581,144.666 C462.17,145.475 462.527,145.637 463.406,145.829 C463.508,145.85 463.508,145.85 463.61,145.87 C464.516,146.046 465.488,146.046 466.429,145.863 C466.506,145.848 466.506,145.848 466.618,145.824 C467.492,145.631 467.884,145.453 469.421,144.665 L495.319,131.412 C497.003,130.554 497.453,130.29 498.153,129.585 C498.819,128.922 499.332,128.122 499.647,127.25 C499.97,126.345 500,125.878 500,124.084 L500,97.915 C500,96.124 499.97,95.656 499.65,94.76 C499.332,93.88 498.819,93.079 498.142,92.405 C497.9,92.16 497.614,91.922 497.295,91.699 C496.807,91.359 496.487,91.185 495.322,90.588 L469.419,77.336 C467.808,76.51 467.37,76.315 466.412,76.133 C465.478,75.956 464.518,75.956 463.588,76.132 C463.473,76.155 463.473,76.155 463.363,76.179 C462.499,76.375 462.109,76.553 460.579,77.337 Z" />
            <path d="M467.649,99.452 C462.779,94.208 454.743,93.245 448.997,97.765 C443.217,102.315 442.336,110.032 446.949,115.495 C448.977,117.896 453.356,121.813 458.99,126.512 C461.022,128.207 461.586,128.605 462.962,128.988 C464.263,129.353 465.709,129.353 467.019,128.988 C468.392,128.603 468.954,128.207 470.985,126.512 C476.578,121.853 480.996,117.9 483.026,115.495 C487.665,110.001 486.811,102.23 480.943,97.737 C475.125,93.282 467.182,94.224 462.326,99.452 C460.384,101.544 461.997,104.772 464.986,104.772 L464.99,104.772 C467.978,104.772 469.592,101.544 467.649,99.452 Z M462.33,103.644 L464.99,101.548 L464.99,98.324 L464.986,98.324 L464.986,101.548 L467.646,103.644 C470.097,101.005 473.702,100.577 476.469,102.696 C479.414,104.951 479.834,108.773 477.501,111.536 C475.822,113.524 471.54,117.356 466.289,121.731 C465.181,122.655 464.928,122.834 464.987,122.817 C465.005,122.812 464.974,122.812 464.994,122.818 C465.046,122.832 464.794,122.655 463.688,121.732 C458.398,117.32 454.15,113.52 452.475,111.536 C450.165,108.801 450.601,104.984 453.543,102.668 C456.222,100.561 459.873,100.998 462.33,103.644 Z" />
        </g>
        <g id="Black-M" transform="translate(0,200)">
            <path d="M663.982,82.971 C664.842,82.531 665.046,82.438 665.037,82.44 C665.019,82.444 665.019,82.444 665.001,82.447 C664.998,82.448 664.998,82.448 664.998,82.448 C664.956,82.44 665.146,82.525 666.018,82.971 L691.92,96.223 C692.726,96.636 692.959,96.763 693.07,96.84 C693.055,96.83 693.021,96.801 692.981,96.761 C693.003,96.783 693.003,96.783 693.003,96.783 C692.986,96.736 693,96.946 693,97.915 L693,124.084 C693,125.055 692.986,125.265 693,125.227 C693.003,125.218 693.003,125.218 693.003,125.218 C693.022,125.199 692.835,125.309 691.925,125.773 L666.02,139.029 C665.165,139.467 664.963,139.559 664.982,139.555 C665.001,139.551 665.001,139.551 665.021,139.547 C664.996,139.552 665.007,139.552 665.018,139.554 C665.001,139.551 665.001,139.551 665.019,139.554 C665.043,139.559 664.846,139.47 663.974,139.026 L638.08,125.779 C637.274,125.366 637.041,125.239 636.93,125.161 C636.945,125.172 636.979,125.2 637.019,125.241 C636.997,125.218 636.997,125.218 636.997,125.218 C637.014,125.265 637,125.055 637,124.084 L637,97.915 C637,96.946 637.014,96.736 637,96.775 C636.997,96.783 636.997,96.783 636.997,96.783 C636.978,96.802 637.165,96.692 638.075,96.229 L663.98,82.972 Z M660.581,77.336 L634.681,90.589 C632.997,91.448 632.547,91.712 631.847,92.417 C631.181,93.079 630.668,93.88 630.353,94.752 C630.03,95.656 630,96.124 630,97.915 L630,124.084 C630,125.878 630.03,126.345 630.35,127.241 C630.668,128.122 631.181,128.922 631.858,129.597 C632.1,129.842 632.386,130.08 632.705,130.302 C633.193,130.643 633.514,130.817 634.678,131.414 L660.581,144.666 C662.17,145.475 662.527,145.637 663.406,145.829 C663.508,145.85 663.508,145.85 663.61,145.87 C664.516,146.046 665.488,146.046 666.429,145.863 C666.506,145.848 666.506,145.848 666.618,145.824 C667.492,145.631 667.884,145.453 669.421,144.665 L695.319,131.412 C697.003,130.554 697.453,130.29 698.153,129.585 C698.819,128.922 699.332,128.122 699.647,127.25 C699.97,126.345 700,125.878 700,124.084 L700,97.915 C700,96.124 699.97,95.656 699.65,94.76 C699.332,93.88 698.819,93.079 698.142,92.405 C697.9,92.16 697.614,91.922 697.295,91.699 C696.807,91.359 696.487,91.185 695.322,90.588 L669.419,77.336 C667.808,76.51 667.37,76.315 666.412,76.133 C665.478,75.956 664.518,75.956 663.588,76.132 C663.473,76.155 663.473,76.155 663.363,76.179 C662.499,76.375 662.109,76.553 660.579,77.337 Z" />
            <path d="M667.649,99.452 C662.779,94.208 654.743,93.245 648.997,97.765 C643.217,102.315 642.336,110.032 646.949,115.495 C648.977,117.896 653.356,121.813 658.99,126.512 C661.022,128.207 661.586,128.605 662.962,128.988 C664.263,129.353 665.709,129.353 667.018,128.988 C668.392,128.603 668.954,128.207 670.985,126.512 C676.578,121.853 680.996,117.9 683.026,115.495 C687.665,110.001 686.811,102.23 680.943,97.737 C675.125,93.282 667.182,94.224 662.326,99.452 C660.384,101.544 661.997,104.772 664.986,104.772 L664.99,104.772 C667.978,104.772 669.592,101.544 667.649,99.452 Z M662.33,103.644 L664.99,101.548 L664.99,98.324 L664.986,98.324 L664.986,101.548 L667.646,103.644 C670.097,101.005 673.702,100.577 676.469,102.696 C679.414,104.951 679.834,108.773 677.501,111.536 C675.822,113.524 671.54,117.356 666.289,121.731 C665.181,122.655 664.928,122.834 664.987,122.817 C665.005,122.812 664.974,122.812 664.994,122.818 C665.046,122.832 664.794,122.655 663.688,121.732 C658.398,117.32 654.15,113.52 652.475,111.536 C650.165,108.801 650.601,104.984 653.543,102.668 C656.222,100.561 659.873,100.998 662.33,103.644 Z" />
        </g>
    </g>
</svg>