<?xml version="1.0" encoding="UTF-8"?>
<svg height="600" width="800" xmlns="http://www.w3.org/2000/svg" xmlns:xlink="http://www.w3.org/1999/xlink">
    <g id="Notes" font-family="LucidaGrande, 'Lucida Grande', sans-serif" font-size="13">
        <rect fill="white" height="600.0" width="800.0" x="0.0" y="0.0" />
        <g font-size="13">
            <text x="18.0" y="176.0">Small</text>
            <text x="18.0" y="376.0">Medium</text>
            <text x="18.0" y="576.0">Large</text>
        </g>
        <g font-size="9">
            <text x="250.0" y="30.0">Ultralight</text>
            <text x="450.0" y="30.0">Regular</text>
            <text x="650.0" y="30.0">Black</text>
            <text id="template-version" fill="#505050" text-anchor="end" x="785.0" y="575.0">Template v.3.0</text>
            <a href="https://github.com/swhitty/SwiftDraw">
                <text fill="#505050" text-anchor="end" x="785.0" y="590.0">https://github.com/swhitty/SwiftDraw</text>
            </a>
        </g>
    </g>
    <g id="Guides" stroke="rgb(39, 170, 225)" stroke-width="0.5">
        <path id="Capline-S" d="M18,76 l800,0" />
        <path id="H-reference" d="M85,145.755 L87.685,145.755 L113.369,79.287 L114.052,79.287 L114.052,76 L112.148,76 L85,145.755 Z M95.693,121.536 L130.996,121.536 L130.263,119.313 L96.474,119.313 L95.693,121.536 Z M139.15,145.755 L141.787,145.755 L114.638,76 L113.466,76 L113.466,79.287 L139.15,145.755 Z" stroke="none" transform="translate(0,200)" />
        <path id="Baseline-S" d="M18,146 l800,0" />
        <path id="left-margin-Ultralight-M" d="M230,256 l0,110" />
        <path id="right-margin-Ultralight-M" d="M300,256 l0,110" />
        <path id="left-margin-Regular-M" d="M430,256 l0,110" />
        <path id="right-margin-Regular-M" d="M500,256 l0,110" />
        <path id="left-margin-Black-M" d="M630,256 l0,110" />
        <path id="right-margin-Black-M" d="M700,256 l0,110" />
        <path id="Capline-M" d="M18,276 l800,0" />
        <path id="Baseline-M" d="M18,346 l800,0" />
        <path id="Capline-L" d="M18,476 l800,0" />
        <path id="Baseline-L" d="M18,546 l800,0" />
    </g>
    <g id="Symbols">
        <g id="Ultralight-M" transform="translate(0,200)">
            <path d="M279.092,105.992 C280.418,103.63 281.408,101.699 282.044,100.192 C285.716,91.468 281.96,81.568 273.289,77.571 C264.731,73.626 255.543,77.402 251.514,85.845 L256.189,84.591 C248.456,79.282 238.489,80.608 233.169,88.353 C227.778,96.211 229.424,106.61 236.917,112.288 C239.554,114.287 244.376,117.105 250.746,120.504 C252.298,121.332 254.226,120.745 255.054,119.193 C255.881,117.64 255.294,115.711 253.743,114.883 C247.672,111.643 243.04,108.936 240.762,107.21 C235.988,103.591 234.948,97.019 238.418,91.96 C241.659,87.243 247.637,86.447 252.586,89.844 C254.198,90.951 256.418,90.356 257.261,88.59 C259.839,83.187 265.346,80.924 270.624,83.357 C276.156,85.907 278.522,92.144 276.177,97.717 C275.654,98.956 274.759,100.7 273.54,102.872 C272.678,104.406 273.223,106.348 274.756,107.209 C276.289,108.071 278.23,107.526 279.092,105.992 Z M281.837,109.663 C280.122,100.439 272.136,94.326 262.903,96.041 C253.538,97.78 247.352,106.297 248.635,115.615 C249.346,120.773 252.362,130.929 256.037,141.974 C256.522,143.422 256.681,143.797 257.348,144.507 C258.003,145.193 258.815,145.661 259.707,145.878 C260.681,146.106 261.022,146.064 262.567,145.753 C274.007,143.405 284.276,140.948 289.095,138.987 C297.857,135.417 302.198,125.757 298.89,116.797 C295.63,107.956 286.464,104.127 277.649,107.242 L278.71,110.246 L278.716,107.06 L278.713,107.06 L278.707,110.246 L281.837,109.663 Z M275.576,110.829 C275.857,112.335 277.169,113.428 278.701,113.431 L278.704,113.431 C279.067,113.432 279.428,113.371 279.771,113.249 C285.411,111.256 290.906,113.551 292.916,119.003 C295.027,124.72 292.292,130.805 286.695,133.086 C282.403,134.832 272.242,137.264 261.3,139.51 C260.911,139.588 260.828,139.598 261.184,139.681 C261.501,139.758 261.764,139.91 261.97,140.125 C262.234,140.407 262.207,140.342 262.077,139.956 C258.56,129.386 255.577,119.339 254.943,114.745 C254.126,108.808 258.036,103.424 264.065,102.305 C269.689,101.26 274.479,104.926 275.576,110.829 Z" />
        </g>
        <g id="Regular-M" transform="translate(0,200)">
            <path d="M479.092,105.992 C480.418,103.63 481.408,101.699 482.044,100.192 C485.716,91.468 481.96,81.568 473.289,77.571 C464.731,73.626 455.543,77.402 451.514,85.845 L456.189,84.591 C448.456,79.282 438.489,80.608 433.169,88.353 C427.778,96.211 429.424,106.61 436.917,112.288 C439.554,114.287 444.376,117.105 450.746,120.504 C452.298,121.332 454.226,120.745 455.054,119.193 C455.881,117.64 455.294,115.711 453.743,114.883 C447.672,111.643 443.04,108.936 440.762,107.21 C435.988,103.591 434.948,97.019 438.418,91.96 C441.659,87.243 447.637,86.447 452.586,89.844 C454.198,90.951 456.418,90.356 457.261,88.59 C459.839,83.187 465.346,80.924 470.624,83.357 C476.156,85.907 478.522,92.144 476.177,97.717 C475.654,98.956 474.759,100.7 473.54,102.872 C472.678,104.406 473.223,106.348 474.756,107.209 C476.289,108.071 478.23,107.526 479.092,105.992 Z M481.837,109.663 C480.122,100.439 472.136,94.326 462.903,96.041 C453.538,97.78 447.352,106.297 448.635,115.615 C449.346,120.773 452.362,130.929 456.037,141.974 C456.522,143.422 456.681,143.797 457.348,144.507 C458.003,145.193 458.815,145.661 459.707,145.878 C460.681,146.106 461.022,146.064 462.567,145.753 C474.007,143.405 484.276,140.948 489.095,138.987 C497.857,135.417 502.198,125.757 498.89,116.797 C495.63,107.956 486.464,104.127 477.649,107.242 L478.71,110.246 L478.716,107.06 L478.713,107.06 L478.707,110.246 L481.837,109.663 Z M475.576,110.829 C475.857,112.335 477.169,113.428 478.701,113.431 L478.704,113.431 C479.067,113.432 479.428,113.371 479.771,113.249 C485.411,111.256 490.906,113.551 492.916,119.003 C495.027,124.72 492.292,130.805 486.695,133.086 C482.403,134.832 472.242,137.264 461.3,139.51 C460.911,139.588 460.828,139.598 461.184,139.681 C461.501,139.758 461.764,139.91 461.97,140.125 C462.234,140.407 462.207,140.342 462.077,139.956 C458.56,129.386 455.577,119.339 454.943,114.745 C454.126,108.808 458.036,103.424 464.065,102.305 C469.689,101.26 474.479,104.926 475.576,110.829 Z" />
        </g>
        <g id="Black-M" transform="translate(0,200)">
            <path d="M679.092,105.992 C680.418,103.63 681.408,101.699 682.044,100.192 C685.716,91.468 681.96,81.568 673.289,77.571 C664.731,73.626 655.543,77.402 651.514,85.845 L656.189,84.591 C648.456,79.282 638.489,80.608 633.169,88.353 C627.778,96.211 629.424,106.61 636.917,112.288 C639.554,114.287 644.376,117.105 650.746,120.504 C652.298,121.332 654.226,120.745 655.054,119.193 C655.881,117.64 655.294,115.711 653.743,114.883 C647.672,111.643 643.04,108.936 640.762,107.21 C635.988,103.591 634.948,97.019 638.418,91.96 C641.659,87.243 647.637,86.447 652.586,89.844 C654.198,90.951 656.418,90.356 657.261,88.59 C659.839,83.187 665.346,80.924 670.624,83.357 C676.156,85.907 678.522,92.144 676.177,97.717 C675.654,98.956 674.759,100.7 673.54,102.872 C672.678,104.406 673.223,106.348 674.756,107.209 C676.289,108.071 678.23,107.526 679.092,105.992 Z M681.837,109.663 C680.122,100.439 672.136,94.326 662.903,96.041 C653.538,97.78 647.352,106.297 648.635,115.615 C649.346,120.773 652.362,130.929 656.037,141.974 C656.522,143.422 656.681,143.797 657.348,144.507 C658.003,145.193 658.815,145.661 659.707,145.878 C660.681,146.106 661.022,146.064 662.567,145.753 C674.007,143.405 684.276,140.948 689.095,138.987 C697.857,135.417 702.198,125.757 698.89,116.797 C695.63,107.956 686.464,104.127 677.649,107.242 L678.71,110.246 L678.716,107.06 L678.713,107.06 L678.707,110.246 L681.837,109.663 Z M675.576,110.829 C675.857,112.335 677.169,113.428 678.701,113.431 L678.704,113.431 C679.067,113.432 679.428,113.371 679.771,113.249 C685.411,111.256 690.906,113.551 692.917,119.003 C695.027,124.72 692.292,130.805 686.695,133.086 C682.403,134.832 672.242,137.264 661.3,139.51 C660.911,139.588 660.828,139.598 661.184,139.681 C661.501,139.758 661.764,139.91 661.97,140.125 C662.234,140.407 662.207,140.342 662.078,139.956 C658.56,129.386 655.577,119.339 654.943,114.745 C654.126,108.808 658.036,103.424 664.065,102.305 C669.689,101.26 674.479,104.926 675.576,110.829 Z" />
        </g>
    </g>
</svg>