<?xml version="1.0" encoding="UTF-8"?>
<svg height="600" width="800" xmlns="http://www.w3.org/2000/svg" xmlns:xlink="http://www.w3.org/1999/xlink">
    <g id="Notes" font-family="LucidaGrande, 'Lucida Grande', sans-serif" font-size="13">
        <rect fill="white" height="600.0" width="800.0" x="0.0" y="0.0" />
        <g font-size="13">
            <text x="18.0" y="176.0">Small</text>
            <text x="18.0" y="376.0">Medium</text>
            <text x="18.0" y="576.0">Large</text>
        </g>
        <g font-size="9">
            <text x="250.0" y="30.0">Ultralight</text>
            <text x="450.0" y="30.0">Regular</text>
            <text x="650.0" y="30.0">Black</text>
            <text id="template-version" fill="#505050" text-anchor="end" x="785.0" y="575.0">Template v.3.0</text>
            <a href="https://github.com/swhitty/SwiftDraw">
                <text fill="#505050" text-anchor="end" x="785.0" y="590.0">https://github.com/swhitty/SwiftDraw</text>
            </a>
        </g>
    </g>
    <g id="Guides" stroke="rgb(39, 170, 225)" stroke-width="0.5">
        <path id="Capline-S" d="M18,76 l800,0" />
        <path id="H-reference" d="M85,145.755 L87.685,145.755 L113.369,79.287 L114.052,79.287 L114.052,76 L112.148,76 L85,145.755 Z M95.693,121.536 L130.996,121.536 L130.263,119.313 L96.474,119.313 L95.693,121.536 Z M139.15,145.755 L141.787,145.755 L114.638,76 L113.466,76 L113.466,79.287 L139.15,145.755 Z" stroke="none" transform="translate(0,200)" />
        <path id="Baseline-S" d="M18,146 l800,0" />
        <path id="left-margin-Ultralight-M" d="M230,256 l0,110" />
        <path id="right-margin-Ultralight-M" d="M300,256 l0,110" />
        <path id="left-margin-Regular-M" d="M430,256 l0,110" />
        <path id="right-margin-Regular-M" d="M500,256 l0,110" />
        <path id="left-margin-Black-M" d="M630,256 l0,110" />
        <path id="right-margin-Black-M" d="M700,256 l0,110" />
        <path id="Capline-M" d="M18,276 l800,0" />
        <path id="Baseline-M" d="M18,346 l800,0" />
        <path id="Capline-L" d="M18,476 l800,0" />
        <path id="Baseline-L" d="M18,546 l800,0" />
    </g>
    <g id="Symbols">
        <g id="Ultralight-M" transform="translate(0,200)">
            <path d="M290.354,110.145 C290.755,110.87 290.837,111.037 290.836,111.03 C290.832,111.016 290.832,111.016 290.829,111.001 C290.829,110.999 290.829,110.998 290.829,110.997 C290.829,110.999 290.829,110.999 290.832,110.984 C290.837,110.964 290.756,111.128 290.354,111.855 L278.367,133.433 C277.99,134.11 277.875,134.305 277.805,134.397 C277.814,134.385 277.839,134.358 277.874,134.326 C277.862,134.336 277.862,134.336 277.862,134.336 C277.905,134.322 277.718,134.333 276.836,134.333 L253.161,134.333 C252.279,134.333 252.092,134.322 252.122,134.332 C252.135,134.336 252.135,134.336 252.135,134.336 C252.158,134.357 252.057,134.2 251.629,133.431 L239.643,111.85 C239.243,111.132 239.159,110.962 239.161,110.97 C239.165,110.984 239.165,110.984 239.168,110.999 C239.169,111.001 239.169,111.001 239.169,111.001 C239.169,111.001 239.169,111.001 239.165,111.016 C239.16,111.036 239.241,110.872 239.643,110.145 L251.63,88.567 C252.007,87.89 252.122,87.695 252.192,87.603 C252.183,87.615 252.159,87.642 252.123,87.674 C252.135,87.664 252.135,87.664 252.135,87.664 C252.092,87.678 252.279,87.667 253.161,87.667 L276.836,87.667 C277.718,87.667 277.905,87.678 277.875,87.668 C277.862,87.664 277.862,87.664 277.862,87.664 C277.839,87.643 277.94,87.8 278.368,88.569 L290.354,110.15 C290.868,111.076 291.844,111.65 292.904,111.65 L292.907,111.65 L292.907,108.734 L290.354,110.145 Z M295.459,107.323 C294.946,106.394 293.968,105.817 292.907,105.817 L292.904,105.817 L292.904,108.734 L295.454,107.318 L283.466,85.734 C282.678,84.318 282.449,83.96 281.822,83.38 C281.213,82.817 280.489,82.39 279.7,82.128 C278.877,81.859 278.454,81.833 276.836,81.833 L253.161,81.833 C251.544,81.833 251.12,81.859 250.31,82.123 C249.508,82.39 248.784,82.817 248.174,83.382 C247.95,83.587 247.74,83.82 247.544,84.078 C247.235,84.487 247.077,84.754 246.532,85.732 L234.541,107.317 C233.809,108.642 233.662,108.939 233.489,109.672 C233.469,109.756 233.469,109.756 233.452,109.842 C233.295,110.602 233.295,111.401 233.455,112.177 C233.475,112.272 233.475,112.272 233.497,112.364 C233.674,113.084 233.835,113.409 234.545,114.684 L246.531,136.266 C247.319,137.682 247.548,138.04 248.175,138.62 C248.784,139.183 249.508,139.61 250.297,139.872 C251.12,140.141 251.544,140.167 253.161,140.167 L276.836,140.167 C278.454,140.167 278.877,140.141 279.687,139.877 C280.489,139.61 281.213,139.183 281.824,138.618 C282.047,138.413 282.257,138.18 282.453,137.922 C282.762,137.513 282.92,137.246 283.465,136.268 L295.456,114.683 C296.188,113.358 296.335,113.061 296.508,112.328 C296.528,112.244 296.528,112.244 296.545,112.158 C296.702,111.399 296.702,110.598 296.542,109.822 C296.522,109.728 296.522,109.728 296.5,109.636 C296.324,108.92 296.172,108.611 295.459,107.323 Z" />
        </g>
        <g id="Regular-M" transform="translate(0,200)">
            <path d="M490.354,110.145 C490.755,110.87 490.837,111.037 490.836,111.03 C490.832,111.016 490.832,111.016 490.829,111.001 C490.829,110.999 490.829,110.998 490.829,110.997 C490.829,110.999 490.829,110.999 490.832,110.984 C490.837,110.964 490.756,111.128 490.354,111.855 L478.367,133.433 C477.99,134.11 477.875,134.305 477.805,134.397 C477.814,134.385 477.839,134.358 477.874,134.326 C477.862,134.336 477.862,134.336 477.862,134.336 C477.905,134.322 477.718,134.333 476.836,134.333 L453.161,134.333 C452.279,134.333 452.092,134.322 452.122,134.332 C452.135,134.336 452.135,134.336 452.135,134.336 C452.158,134.357 452.057,134.2 451.629,133.431 L439.643,111.85 C439.243,111.132 439.159,110.962 439.161,110.97 C439.165,110.984 439.165,110.984 439.168,110.999 C439.169,111.001 439.169,111.001 439.169,111.001 C439.169,111.001 439.169,111.001 439.165,111.016 C439.16,111.036 439.241,110.872 439.643,110.145 L451.63,88.567 C452.007,87.89 452.122,87.695 452.192,87.603 C452.183,87.615 452.159,87.642 452.123,87.674 C452.135,87.664 452.135,87.664 452.135,87.664 C452.092,87.678 452.279,87.667 453.161,87.667 L476.836,87.667 C477.718,87.667 477.905,87.678 477.875,87.668 C477.862,87.664 477.862,87.664 477.862,87.664 C477.839,87.643 477.94,87.8 478.368,88.569 L490.354,110.15 C490.868,111.076 491.844,111.65 492.904,111.65 L492.907,111.65 L492.907,108.734 L490.354,110.145 Z M495.459,107.323 C494.946,106.394 493.968,105.817 492.907,105.817 L492.904,105.817 L492.904,108.734 L495.454,107.318 L483.466,85.734 C482.678,84.318 482.449,83.96 481.822,83.38 C481.213,82.817 480.489,82.39 479.7,82.128 C478.877,81.859 478.454,81.833 476.836,81.833 L453.161,81.833 C451.544,81.833 451.12,81.859 450.31,82.123 C449.508,82.39 448.784,82.817 448.174,83.382 C447.95,83.587 447.74,83.82 447.544,84.078 C447.235,84.487 447.077,84.754 446.532,85.732 L434.541,107.317 C433.809,108.642 433.662,108.939 433.489,109.672 C433.469,109.756 433.469,109.756 433.452,109.842 C433.295,110.602 433.295,111.401 433.455,112.177 C433.475,112.272 433.475,112.272 433.497,112.364 C433.674,113.084 433.835,113.409 434.545,114.684 L446.531,136.266 C447.319,137.682 447.548,138.04 448.175,138.62 C448.784,139.183 449.508,139.61 450.297,139.872 C451.12,140.141 451.544,140.167 453.161,140.167 L476.836,140.167 C478.454,140.167 478.877,140.141 479.687,139.877 C480.489,139.61 481.213,139.183 481.824,138.618 C482.047,138.413 482.257,138.18 482.453,137.922 C482.762,137.513 482.92,137.246 483.465,136.268 L495.456,114.683 C496.188,113.358 496.335,113.061 496.508,112.328 C496.528,112.244 496.528,112.244 496.545,112.158 C496.702,111.399 496.702,110.598 496.542,109.822 C496.522,109.728 496.522,109.728 496.5,109.636 C496.324,108.92 496.172,108.611 495.459,107.323 Z" />
        </g>
        <g id="Black-M" transform="translate(0,200)">
            <path d="M690.354,110.145 C690.755,110.87 690.837,111.037 690.836,111.03 C690.832,111.016 690.832,111.016 690.829,111.001 C690.829,110.999 690.829,110.998 690.829,110.997 C690.829,110.999 690.829,110.999 690.832,110.984 C690.837,110.964 690.756,111.128 690.354,111.855 L678.367,133.433 C677.99,134.11 677.875,134.305 677.805,134.397 C677.814,134.385 677.839,134.358 677.874,134.326 C677.862,134.336 677.862,134.336 677.862,134.336 C677.905,134.322 677.718,134.333 676.836,134.333 L653.161,134.333 C652.279,134.333 652.092,134.322 652.122,134.332 C652.135,134.336 652.135,134.336 652.135,134.336 C652.158,134.357 652.057,134.2 651.629,133.431 L639.643,111.85 C639.243,111.132 639.159,110.962 639.161,110.97 C639.165,110.984 639.165,110.984 639.168,110.999 C639.169,111.001 639.169,111.001 639.169,111.001 C639.169,111.001 639.169,111.001 639.165,111.016 C639.16,111.036 639.241,110.872 639.643,110.145 L651.63,88.567 C652.007,87.89 652.122,87.695 652.192,87.603 C652.183,87.615 652.159,87.642 652.123,87.674 C652.135,87.664 652.135,87.664 652.135,87.664 C652.092,87.678 652.279,87.667 653.161,87.667 L676.836,87.667 C677.718,87.667 677.905,87.678 677.875,87.668 C677.862,87.664 677.862,87.664 677.862,87.664 C677.839,87.643 677.94,87.8 678.368,88.569 L690.354,110.15 C690.868,111.076 691.844,111.65 692.904,111.65 L692.907,111.65 L692.907,108.734 L690.354,110.145 Z M695.459,107.323 C694.946,106.394 693.968,105.817 692.907,105.817 L692.904,105.817 L692.904,108.734 L695.454,107.318 L683.466,85.734 C682.678,84.318 682.449,83.96 681.822,83.38 C681.213,82.817 680.489,82.39 679.7,82.128 C678.877,81.859 678.454,81.833 676.836,81.833 L653.161,81.833 C651.544,81.833 651.12,81.859 650.31,82.123 C649.508,82.39 648.784,82.817 648.174,83.382 C647.95,83.587 647.74,83.82 647.544,84.078 C647.235,84.487 647.077,84.754 646.532,85.732 L634.541,107.317 C633.809,108.642 633.662,108.939 633.489,109.672 C633.469,109.756 633.469,109.756 633.452,109.842 C633.295,110.602 633.295,111.401 633.455,112.177 C633.475,112.272 633.475,112.272 633.497,112.364 C633.674,113.084 633.835,113.409 634.545,114.684 L646.531,136.266 C647.319,137.682 647.548,138.04 648.175,138.62 C648.784,139.183 649.508,139.61 650.297,139.872 C651.12,140.141 651.544,140.167 653.161,140.167 L676.836,140.167 C678.454,140.167 678.877,140.141 679.687,139.877 C680.489,139.61 681.213,139.183 681.824,138.618 C682.047,138.413 682.257,138.18 682.453,137.922 C682.763,137.513 682.92,137.246 683.465,136.268 L695.456,114.683 C696.188,113.358 696.335,113.061 696.508,112.328 C696.528,112.244 696.528,112.244 696.545,112.158 C696.702,111.399 696.702,110.598 696.542,109.822 C696.522,109.728 696.522,109.728 696.5,109.636 C696.324,108.92 696.172,108.611 695.459,107.323 Z" />
        </g>
    </g>
</svg>