<?xml version="1.0" encoding="UTF-8"?>
<svg height="600" width="800" xmlns="http://www.w3.org/2000/svg" xmlns:xlink="http://www.w3.org/1999/xlink">
    <g id="Notes" font-family="LucidaGrande, 'Lucida Grande', sans-serif" font-size="13">
        <rect fill="white" height="600.0" width="800.0" x="0.0" y="0.0" />
        <g font-size="13">
            <text x="18.0" y="176.0">Small</text>
            <text x="18.0" y="376.0">Medium</text>
            <text x="18.0" y="576.0">Large</text>
        </g>
        <g font-size="9">
            <text x="250.0" y="30.0">Ultralight</text>
            <text x="450.0" y="30.0">Regular</text>
            <text x="650.0" y="30.0">Black</text>
            <text id="template-version" fill="#505050" text-anchor="end" x="785.0" y="575.0">Template v.3.0</text>
            <a href="https://github.com/swhitty/SwiftDraw">
                <text fill="#505050" text-anchor="end" x="785.0" y="590.0">https://github.com/swhitty/SwiftDraw</text>
            </a>
        </g>
    </g>
    <g id="Guides" stroke="rgb(39, 170, 225)" stroke-width="0.5">
        <path id="Capline-S" d="M18,76 l800,0" />
        <path id="H-reference" d="M85,145.755 L87.685,145.755 L113.369,79.287 L114.052,79.287 L114.052,76 L112.148,76 L85,145.755 Z M95.693,121.536 L130.996,121.536 L130.263,119.313 L96.474,119.313 L95.693,121.536 Z M139.15,145.755 L141.787,145.755 L114.638,76 L113.466,76 L113.466,79.287 L139.15,145.755 Z" stroke="none" transform="translate(0,200)" />
        <path id="Baseline-S" d="M18,146 l800,0" />
        <path id="left-margin-Ultralight-M" d="M230,256 l0,110" />
        <path id="right-margin-Ultralight-M" d="M300,256 l0,110" />
        <path id="left-margin-Regular-M" d="M430,256 l0,110" />
        <path id="right-margin-Regular-M" d="M500,256 l0,110" />
        <path id="left-margin-Black-M" d="M630,256 l0,110" />
        <path id="right-margin-Black-M" d="M700,256 l0,110" />
        <path id="Capline-M" d="M18,276 l800,0" />
        <path id="Baseline-M" d="M18,346 l800,0" />
        <path id="Capline-L" d="M18,476 l800,0" />
        <path id="Baseline-L" d="M18,546 l800,0" />
    </g>
    <g id="Symbols">
        <g id="Ultralight-M" transform="translate(0,200)">
            <path d="M293.027,110.055 C293.471,110.857 293.562,111.041 293.56,111.034 C293.556,111.018 293.556,111.018 293.552,111.001 C293.552,110.999 293.552,110.998 293.552,110.997 C293.552,110.999 293.552,110.999 293.556,110.983 C293.561,110.96 293.472,111.142 293.027,111.945 L279.777,135.797 C279.36,136.545 279.233,136.76 279.156,136.863 C279.166,136.849 279.193,136.819 279.232,136.783 C279.219,136.795 279.219,136.795 279.219,136.795 C279.266,136.78 279.059,136.792 278.085,136.792 L251.915,136.792 C250.941,136.792 250.734,136.78 250.766,136.79 C250.781,136.795 250.781,136.795 250.781,136.795 C250.806,136.818 250.695,136.644 250.222,135.795 L236.973,111.94 C236.531,111.145 236.438,110.958 236.44,110.966 C236.444,110.982 236.444,110.982 236.447,110.999 C236.448,111.002 236.448,111.002 236.448,111.002 C236.448,111.001 236.448,111.001 236.444,111.017 C236.439,111.04 236.528,110.858 236.973,110.055 L250.223,86.203 C250.64,85.455 250.767,85.24 250.844,85.137 C250.834,85.151 250.807,85.181 250.768,85.217 C250.781,85.205 250.781,85.205 250.781,85.205 C250.734,85.22 250.941,85.208 251.915,85.208 L278.085,85.208 C279.059,85.208 279.266,85.22 279.234,85.21 C279.219,85.205 279.219,85.205 279.219,85.205 C279.194,85.182 279.305,85.356 279.778,86.205 L293.027,110.06 C293.596,111.084 294.675,111.719 295.846,111.719 L295.849,111.719 L295.849,108.495 L293.027,110.055 Z M298.67,106.935 C298.103,105.908 297.022,105.271 295.849,105.271 L295.846,105.271 L295.846,108.495 L298.664,106.93 L285.413,83.072 C284.542,81.506 284.289,81.11 283.596,80.47 C282.923,79.848 282.123,79.375 281.251,79.085 C280.341,78.788 279.873,78.76 278.085,78.76 L251.915,78.76 C250.127,78.76 249.659,78.788 248.763,79.081 C247.877,79.375 247.077,79.848 246.402,80.472 C246.155,80.698 245.923,80.956 245.706,81.242 C245.364,81.693 245.19,81.988 244.588,83.069 L231.333,106.929 C230.523,108.393 230.361,108.722 230.17,109.532 C230.148,109.625 230.148,109.625 230.129,109.72 C229.956,110.56 229.956,111.444 230.132,112.301 C230.155,112.406 230.155,112.406 230.179,112.508 C230.375,113.303 230.553,113.663 231.337,115.072 L244.586,138.928 C245.458,140.494 245.71,140.89 246.404,141.53 C247.077,142.152 247.877,142.625 248.749,142.915 C249.659,143.212 250.127,143.24 251.915,143.24 L278.085,143.24 C279.873,143.24 280.341,143.212 281.236,142.919 C282.123,142.625 282.923,142.152 283.598,141.528 C283.845,141.302 284.077,141.044 284.294,140.758 C284.636,140.307 284.81,140.012 285.412,138.931 L298.667,115.071 C299.476,113.607 299.638,113.278 299.83,112.468 C299.852,112.375 299.852,112.375 299.871,112.28 C300.044,111.441 300.044,110.556 299.867,109.698 C299.845,109.594 299.845,109.594 299.821,109.492 C299.626,108.7 299.458,108.36 298.67,106.935 Z" />
        </g>
        <g id="Regular-M" transform="translate(0,200)">
            <path d="M493.027,110.055 C493.471,110.857 493.562,111.041 493.56,111.034 C493.556,111.018 493.556,111.018 493.552,111.001 C493.552,110.999 493.552,110.998 493.552,110.997 C493.552,110.999 493.552,110.999 493.556,110.983 C493.561,110.96 493.472,111.142 493.027,111.945 L479.777,135.797 C479.36,136.545 479.233,136.76 479.156,136.863 C479.166,136.849 479.193,136.819 479.232,136.783 C479.219,136.795 479.219,136.795 479.219,136.795 C479.266,136.78 479.059,136.792 478.085,136.792 L451.915,136.792 C450.94,136.792 450.734,136.78 450.766,136.79 C450.781,136.795 450.781,136.795 450.781,136.795 C450.806,136.818 450.695,136.644 450.222,135.795 L436.973,111.94 C436.531,111.145 436.438,110.958 436.44,110.966 C436.444,110.982 436.444,110.982 436.447,110.999 C436.448,111.002 436.448,111.002 436.448,111.002 C436.448,111.001 436.448,111.001 436.444,111.017 C436.439,111.04 436.528,110.858 436.973,110.055 L450.223,86.203 C450.64,85.455 450.767,85.24 450.844,85.137 C450.834,85.151 450.807,85.181 450.768,85.217 C450.781,85.205 450.781,85.205 450.781,85.205 C450.734,85.22 450.941,85.208 451.915,85.208 L478.085,85.208 C479.059,85.208 479.266,85.22 479.234,85.21 C479.219,85.205 479.219,85.205 479.219,85.205 C479.194,85.182 479.305,85.356 479.778,86.205 L493.027,110.06 C493.596,111.084 494.675,111.719 495.846,111.719 L495.849,111.719 L495.849,108.495 L493.027,110.055 Z M498.67,106.935 C498.103,105.908 497.022,105.271 495.849,105.271 L495.846,105.271 L495.846,108.495 L498.664,106.93 L485.413,83.072 C484.542,81.506 484.289,81.11 483.596,80.47 C482.923,79.848 482.123,79.375 481.251,79.085 C480.341,78.788 479.873,78.76 478.085,78.76 L451.915,78.76 C450.127,78.76 449.659,78.788 448.763,79.081 C447.877,79.375 447.077,79.848 446.402,80.472 C446.155,80.698 445.923,80.956 445.706,81.242 C445.364,81.693 445.19,81.988 444.588,83.069 L431.333,106.929 C430.523,108.393 430.361,108.722 430.17,109.532 C430.148,109.625 430.148,109.625 430.129,109.72 C429.956,110.56 429.956,111.444 430.132,112.301 C430.155,112.406 430.155,112.406 430.179,112.508 C430.375,113.303 430.553,113.663 431.337,115.072 L444.586,138.928 C445.458,140.494 445.71,140.89 446.404,141.53 C447.077,142.152 447.877,142.625 448.749,142.915 C449.659,143.212 450.127,143.24 451.915,143.24 L478.085,143.24 C479.873,143.24 480.341,143.212 481.236,142.919 C482.123,142.625 482.923,142.152 483.598,141.528 C483.845,141.302 484.077,141.044 484.294,140.758 C484.636,140.307 484.81,140.012 485.412,138.931 L498.667,115.071 C499.476,113.607 499.638,113.278 499.83,112.468 C499.852,112.375 499.852,112.375 499.871,112.28 C500.044,111.441 500.044,110.556 499.867,109.698 C499.845,109.594 499.845,109.594 499.821,109.492 C499.626,108.7 499.458,108.36 498.67,106.935 Z" />
        </g>
        <g id="Black-M" transform="translate(0,200)">
            <path d="M693.027,110.055 C693.471,110.857 693.562,111.041 693.56,111.034 C693.556,111.018 693.556,111.018 693.552,111.001 C693.552,110.999 693.552,110.998 693.552,110.997 C693.552,110.999 693.552,110.999 693.556,110.983 C693.561,110.96 693.472,111.142 693.027,111.945 L679.777,135.797 C679.36,136.545 679.233,136.76 679.156,136.863 C679.166,136.849 679.193,136.819 679.232,136.783 C679.219,136.795 679.219,136.795 679.219,136.795 C679.266,136.78 679.059,136.792 678.085,136.792 L651.915,136.792 C650.94,136.792 650.734,136.78 650.766,136.79 C650.781,136.795 650.781,136.795 650.781,136.795 C650.806,136.818 650.695,136.644 650.222,135.795 L636.973,111.94 C636.531,111.145 636.438,110.958 636.44,110.966 C636.444,110.982 636.444,110.982 636.447,110.999 C636.448,111.002 636.448,111.002 636.448,111.002 C636.448,111.001 636.448,111.001 636.444,111.017 C636.439,111.04 636.528,110.858 636.973,110.055 L650.223,86.203 C650.64,85.455 650.767,85.24 650.844,85.137 C650.834,85.151 650.807,85.181 650.768,85.217 C650.781,85.205 650.781,85.205 650.781,85.205 C650.734,85.22 650.94,85.208 651.915,85.208 L678.085,85.208 C679.059,85.208 679.266,85.22 679.234,85.21 C679.219,85.205 679.219,85.205 679.219,85.205 C679.194,85.182 679.305,85.356 679.778,86.205 L693.027,110.06 C693.596,111.084 694.675,111.719 695.846,111.719 L695.849,111.719 L695.849,108.495 L693.027,110.055 Z M698.67,106.935 C698.103,105.908 697.022,105.271 695.849,105.271 L695.846,105.271 L695.846,108.495 L698.664,106.93 L685.413,83.072 C684.542,81.506 684.289,81.11 683.596,80.47 C682.923,79.848 682.123,79.375 681.251,79.085 C680.341,78.788 679.873,78.76 678.085,78.76 L651.915,78.76 C650.127,78.76 649.659,78.788 648.763,79.081 C647.877,79.375 647.077,79.848 646.402,80.472 C646.155,80.698 645.923,80.956 645.706,81.242 C645.364,81.693 645.19,81.988 644.588,83.069 L631.333,106.929 C630.523,108.393 630.361,108.722 630.17,109.532 C630.148,109.625 630.148,109.625 630.129,109.72 C629.956,110.56 629.956,111.444 630.132,112.301 C630.155,112.406 630.155,112.406 630.179,112.508 C630.375,113.303 630.553,113.663 631.337,115.072 L644.586,138.928 C645.458,140.494 645.71,140.89 646.404,141.53 C647.077,142.152 647.877,142.625 648.749,142.915 C649.659,143.212 650.127,143.24 651.915,143.24 L678.085,143.24 C679.873,143.24 680.341,143.212 681.237,142.919 C682.123,142.625 682.923,142.152 683.598,141.528 C683.845,141.302 684.077,141.044 684.294,140.758 C684.636,140.307 684.81,140.012 685.412,138.931 L698.667,115.071 C699.476,113.607 699.638,113.278 699.83,112.468 C699.852,112.375 699.852,112.375 699.871,112.28 C700.044,111.441 700.044,110.556 699.867,109.698 C699.845,109.594 699.845,109.594 699.821,109.492 C699.626,108.7 699.458,108.36 698.67,106.935 Z" />
        </g>
    </g>
</svg>