<?xml version="1.0" encoding="UTF-8"?>
<svg height="600" width="800" xmlns="http://www.w3.org/2000/svg" xmlns:xlink="http://www.w3.org/1999/xlink">
    <g id="Notes" font-family="LucidaGrande, 'Lucida Grande', sans-serif" font-size="13">
        <rect fill="white" height="600.0" width="800.0" x="0.0" y="0.0" />
        <g font-size="13">
            <text x="18.0" y="176.0">Small</text>
            <text x="18.0" y="376.0">Medium</text>
            <text x="18.0" y="576.0">Large</text>
        </g>
        <g font-size="9">
            <text x="250.0" y="30.0">Ultralight</text>
            <text x="450.0" y="30.0">Regular</text>
            <text x="650.0" y="30.0">Black</text>
            <text id="template-version" fill="#505050" text-anchor="end" x="785.0" y="575.0">Template v.3.0</text>
            <a href="https://github.com/swhitty/SwiftDraw">
                <text fill="#505050" text-anchor="end" x="785.0" y="590.0">https://github.com/swhitty/SwiftDraw</text>
            </a>
        </g>
    </g>
    <g id="Guides" stroke="rgb(39, 170, 225)" stroke-width="0.5">
        <path id="Capline-S" d="M18,76 l800,0" />
        <path id="H-reference" d="M85,145.755 L87.685,145.755 L113.369,79.287 L114.052,79.287 L114.052,76 L112.148,76 L85,145.755 Z M95.693,121.536 L130.996,121.536 L130.263,119.313 L96.474,119.313 L95.693,121.536 Z M139.15,145.755 L141.787,145.755 L114.638,76 L113.466,76 L113.466,79.287 L139.15,145.755 Z" stroke="none" transform="translate(0,200)" />
        <path id="Baseline-S" d="M18,146 l800,0" />
        <path id="left-margin-Ultralight-M" d="M230,256 l0,110" />
        <path id="right-margin-Ultralight-M" d="M300,256 l0,110" />
        <path id="left-margin-Regular-M" d="M430,256 l0,110" />
        <path id="right-margin-Regular-M" d="M500,256 l0,110" />
        <path id="left-margin-Black-M" d="M630,256 l0,110" />
        <path id="right-margin-Black-M" d="M700,256 l0,110" />
        <path id="Capline-M" d="M18,276 l800,0" />
        <path id="Baseline-M" d="M18,346 l800,0" />
        <path id="Capline-L" d="M18,476 l800,0" />
        <path id="Baseline-L" d="M18,546 l800,0" />
    </g>
    <g id="Symbols">
        <g id="Ultralight-M" transform="translate(0,200)">
            <path d="M270.388,78.389 C268.651,77.037 268.19,76.719 267.178,76.363 C266.974,76.293 266.974,76.293 266.763,76.234 C265.611,75.922 264.392,75.922 263.236,76.235 C263.023,76.295 263.023,76.295 262.807,76.369 C261.801,76.726 261.34,77.044 259.612,78.389 L236.71,96.198 C234.512,97.911 233.966,98.385 233.224,99.386 C232.49,100.378 231.944,101.494 231.612,102.68 C231.275,103.888 231.237,104.607 231.237,107.392 L231.237,131.82 C231.237,137.225 231.342,138.508 232.341,140.469 C233.312,142.375 234.862,143.925 236.767,144.896 C238.729,145.895 240.012,146 245.417,146 L252.17,146 C254.035,146 254.476,145.964 255.493,145.441 C256.435,144.96 257.207,144.187 257.693,143.237 C258.211,142.228 258.247,141.787 258.247,139.923 L258.247,117.639 C258.247,115.954 258.281,115.548 258.248,115.613 C258.247,115.613 258.247,115.613 258.247,115.613 C258.182,115.647 258.588,115.613 260.273,115.613 L269.727,115.613 C271.412,115.613 271.818,115.647 271.753,115.614 C271.753,115.613 271.753,115.613 271.753,115.613 C271.719,115.548 271.753,115.954 271.753,117.639 L271.753,139.923 C271.753,141.787 271.789,142.228 272.312,143.245 C272.793,144.187 273.565,144.96 274.516,145.445 C275.524,145.964 275.965,146 277.83,146 L284.583,146 C289.988,146 291.271,145.895 293.232,144.896 C295.138,143.925 296.688,142.375 297.659,140.47 C298.658,138.508 298.763,137.225 298.763,131.82 L298.763,107.392 C298.763,104.607 298.725,103.888 298.389,102.682 C298.055,101.494 297.51,100.378 296.778,99.388 C296.034,98.385 295.488,97.911 293.292,96.2 L270.388,78.388 Z M266.243,83.719 L289.144,101.529 C290.767,102.793 291.129,103.107 291.35,103.406 C291.593,103.734 291.775,104.106 291.886,104.502 C291.986,104.859 292.01,105.332 292.01,107.392 L292.01,131.82 C292.01,135.868 291.931,136.837 291.642,137.404 C291.319,138.039 290.802,138.556 290.167,138.879 C289.6,139.168 288.631,139.247 284.583,139.247 L277.83,139.247 C277.289,139.247 277.107,139.245 276.999,139.236 C277.112,139.245 277.32,139.294 277.594,139.435 C277.902,139.593 278.16,139.85 278.322,140.167 C278.458,140.432 278.508,140.64 278.517,140.754 C278.508,140.646 278.505,140.463 278.505,139.923 L278.505,117.639 C278.505,114.597 278.446,113.877 277.769,112.548 C277.122,111.277 276.089,110.244 274.818,109.597 C273.489,108.92 272.769,108.861 269.727,108.861 L260.273,108.861 C257.231,108.861 256.511,108.92 255.182,109.597 C253.911,110.244 252.878,111.277 252.231,112.548 C251.554,113.877 251.495,114.597 251.495,117.639 L251.495,139.923 C251.495,140.463 251.492,140.646 251.483,140.754 C251.492,140.64 251.542,140.432 251.683,140.158 C251.84,139.85 252.098,139.593 252.414,139.431 C252.68,139.294 252.888,139.245 253.001,139.236 C252.893,139.245 252.711,139.247 252.17,139.247 L245.417,139.247 C241.369,139.247 240.4,139.168 239.833,138.879 C239.198,138.556 238.681,138.039 238.358,137.404 C238.069,136.837 237.99,135.868 237.99,131.82 L237.99,107.392 C237.99,105.332 238.014,104.859 238.115,104.498 C238.225,104.106 238.407,103.734 238.651,103.404 C238.871,103.107 239.233,102.793 240.858,101.527 L263.757,83.719 C264.771,82.931 265.049,82.738 265.066,82.732 C265.032,82.744 265.032,82.744 264.993,82.755 C265.002,82.753 265.002,82.753 265.002,82.753 C264.968,82.743 264.968,82.743 264.935,82.732 C264.948,82.736 265.227,82.929 266.243,83.719 Z" />
        </g>
        <g id="Regular-M" transform="translate(0,200)">
            <path d="M470.388,78.389 C468.651,77.037 468.19,76.719 467.178,76.363 C466.974,76.293 466.974,76.293 466.763,76.234 C465.611,75.922 464.392,75.922 463.236,76.235 C463.023,76.295 463.023,76.295 462.807,76.369 C461.801,76.726 461.34,77.044 459.612,78.389 L436.71,96.198 C434.512,97.911 433.966,98.385 433.224,99.386 C432.49,100.378 431.944,101.494 431.612,102.68 C431.275,103.888 431.237,104.607 431.237,107.392 L431.237,131.82 C431.237,137.225 431.342,138.508 432.341,140.469 C433.312,142.375 434.862,143.925 436.767,144.896 C438.729,145.895 440.012,146 445.418,146 L452.17,146 C454.035,146 454.476,145.964 455.493,145.441 C456.435,144.96 457.207,144.187 457.693,143.237 C458.211,142.228 458.247,141.787 458.247,139.923 L458.247,117.639 C458.247,115.954 458.281,115.548 458.248,115.613 C458.247,115.613 458.247,115.613 458.247,115.613 C458.182,115.647 458.588,115.613 460.273,115.613 L469.727,115.613 C471.412,115.613 471.818,115.647 471.753,115.614 C471.753,115.613 471.753,115.613 471.753,115.613 C471.719,115.548 471.753,115.954 471.753,117.639 L471.753,139.923 C471.753,141.787 471.789,142.228 472.312,143.245 C472.793,144.187 473.565,144.96 474.516,145.445 C475.524,145.964 475.965,146 477.83,146 L484.583,146 C489.988,146 491.271,145.895 493.232,144.896 C495.138,143.925 496.688,142.375 497.659,140.47 C498.658,138.508 498.763,137.225 498.763,131.82 L498.763,107.392 C498.763,104.607 498.725,103.888 498.389,102.682 C498.055,101.494 497.51,100.378 496.778,99.388 C496.034,98.385 495.488,97.911 493.292,96.2 L470.388,78.388 Z M466.243,83.719 L489.144,101.529 C490.767,102.793 491.129,103.107 491.35,103.406 C491.593,103.734 491.775,104.106 491.886,104.502 C491.986,104.859 492.01,105.332 492.01,107.392 L492.01,131.82 C492.01,135.868 491.931,136.837 491.642,137.404 C491.319,138.039 490.802,138.556 490.167,138.879 C489.6,139.168 488.631,139.247 484.583,139.247 L477.83,139.247 C477.289,139.247 477.107,139.245 476.999,139.236 C477.112,139.245 477.32,139.294 477.594,139.435 C477.902,139.593 478.16,139.85 478.322,140.167 C478.458,140.432 478.508,140.64 478.517,140.754 C478.508,140.646 478.505,140.463 478.505,139.923 L478.505,117.639 C478.505,114.597 478.446,113.877 477.769,112.548 C477.122,111.277 476.089,110.244 474.818,109.597 C473.489,108.92 472.769,108.861 469.727,108.861 L460.273,108.861 C457.231,108.861 456.511,108.92 455.182,109.597 C453.911,110.244 452.878,111.277 452.231,112.548 C451.554,113.877 451.495,114.597 451.495,117.639 L451.495,139.923 C451.495,140.463 451.492,140.646 451.483,140.754 C451.492,140.64 451.542,140.432 451.683,140.158 C451.84,139.85 452.098,139.593 452.414,139.431 C452.68,139.294 452.888,139.245 453.001,139.236 C452.893,139.245 452.711,139.247 452.17,139.247 L445.418,139.247 C441.369,139.247 440.4,139.168 439.833,138.879 C439.198,138.556 438.681,138.039 438.358,137.404 C438.069,136.837 437.99,135.868 437.99,131.82 L437.99,107.392 C437.99,105.332 438.014,104.859 438.115,104.498 C438.225,104.106 438.407,103.734 438.651,103.404 C438.871,103.107 439.233,102.793 440.858,101.527 L463.757,83.719 C464.771,82.931 465.049,82.738 465.066,82.732 C465.032,82.744 465.032,82.744 464.993,82.755 C465.002,82.753 465.002,82.753 465.002,82.753 C464.968,82.743 464.968,82.743 464.935,82.732 C464.948,82.736 465.227,82.929 466.243,83.719 Z" />
        </g>
        <g id="Black-M" transform="translate(0,200)">
            <path d="M670.388,78.389 C668.651,77.037 668.19,76.719 667.178,76.363 C666.974,76.293 666.974,76.293 666.763,76.234 C665.611,75.922 664.392,75.922 663.236,76.235 C663.023,76.295 663.023,76.295 662.807,76.369 C661.801,76.726 661.34,77.044 659.612,78.389 L636.71,96.198 C634.512,97.911 633.966,98.385 633.224,99.386 C632.49,100.378 631.944,101.494 631.612,102.68 C631.275,103.888 631.237,104.607 631.237,107.392 L631.237,131.82 C631.237,137.225 631.342,138.508 632.341,140.469 C633.312,142.375 634.862,143.925 636.767,144.896 C638.729,145.895 640.012,146 645.417,146 L652.17,146 C654.035,146 654.476,145.964 655.493,145.441 C656.435,144.96 657.208,144.187 657.693,143.237 C658.211,142.228 658.247,141.787 658.247,139.923 L658.247,117.639 C658.247,115.954 658.281,115.548 658.248,115.613 C658.247,115.613 658.247,115.613 658.247,115.613 C658.182,115.647 658.588,115.613 660.273,115.613 L669.727,115.613 C671.412,115.613 671.818,115.647 671.753,115.614 C671.753,115.613 671.753,115.613 671.753,115.613 C671.719,115.548 671.753,115.954 671.753,117.639 L671.753,139.923 C671.753,141.787 671.789,142.228 672.312,143.245 C672.792,144.187 673.565,144.96 674.516,145.445 C675.524,145.964 675.965,146 677.83,146 L684.583,146 C689.988,146 691.271,145.895 693.232,144.896 C695.138,143.925 696.688,142.375 697.659,140.47 C698.658,138.508 698.763,137.225 698.763,131.82 L698.763,107.392 C698.763,104.607 698.725,103.888 698.389,102.682 C698.055,101.494 697.51,100.378 696.778,99.388 C696.034,98.385 695.488,97.911 693.292,96.2 L670.388,78.388 Z M666.243,83.719 L689.144,101.529 C690.767,102.793 691.129,103.107 691.35,103.406 C691.593,103.734 691.775,104.106 691.886,104.502 C691.986,104.859 692.01,105.332 692.01,107.392 L692.01,131.82 C692.01,135.868 691.931,136.837 691.642,137.404 C691.319,138.039 690.802,138.556 690.167,138.879 C689.6,139.168 688.631,139.247 684.583,139.247 L677.83,139.247 C677.289,139.247 677.107,139.245 676.999,139.236 C677.112,139.245 677.32,139.294 677.594,139.435 C677.902,139.593 678.16,139.85 678.322,140.167 C678.458,140.432 678.508,140.64 678.517,140.754 C678.508,140.646 678.505,140.463 678.505,139.923 L678.505,117.639 C678.505,114.597 678.446,113.877 677.769,112.548 C677.122,111.277 676.089,110.244 674.818,109.597 C673.489,108.92 672.769,108.861 669.727,108.861 L660.273,108.861 C657.231,108.861 656.511,108.92 655.182,109.597 C653.911,110.244 652.878,111.277 652.231,112.548 C651.554,113.877 651.495,114.597 651.495,117.639 L651.495,139.923 C651.495,140.463 651.492,140.646 651.483,140.754 C651.492,140.64 651.542,140.432 651.683,140.158 C651.84,139.85 652.098,139.593 652.414,139.431 C652.68,139.294 652.888,139.245 653.001,139.236 C652.893,139.245 652.711,139.247 652.17,139.247 L645.417,139.247 C641.369,139.247 640.4,139.168 639.833,138.879 C639.198,138.556 638.681,138.039 638.358,137.404 C638.069,136.837 637.99,135.868 637.99,131.82 L637.99,107.392 C637.99,105.332 638.014,104.859 638.115,104.498 C638.225,104.106 638.407,103.734 638.651,103.404 C638.871,103.107 639.233,102.793 640.858,101.527 L663.757,83.719 C664.771,82.931 665.049,82.738 665.066,82.732 C665.032,82.744 665.032,82.744 664.993,82.755 C665.002,82.753 665.002,82.753 665.002,82.753 C664.968,82.743 664.968,82.743 664.935,82.732 C664.948,82.736 665.227,82.929 666.243,83.719 Z" />
        </g>
    </g>
</svg>