<?xml version="1.0" encoding="UTF-8"?>
<svg height="600" width="800" xmlns="http://www.w3.org/2000/svg" xmlns:xlink="http://www.w3.org/1999/xlink">
    <g id="Notes" font-family="LucidaGrande, 'Lucida Grande', sans-serif" font-size="13">
        <rect fill="white" height="600.0" width="800.0" x="0.0" y="0.0" />
        <g font-size="13">
            <text x="18.0" y="176.0">Small</text>
            <text x="18.0" y="376.0">Medium</text>
            <text x="18.0" y="576.0">Large</text>
        </g>
        <g font-size="9">
            <text x="250.0" y="30.0">Ultralight</text>
            <text x="450.0" y="30.0">Regular</text>
            <text x="650.0" y="30.0">Black</text>
            <text id="template-version" fill="#505050" text-anchor="end" x="785.0" y="575.0">Template v.3.0</text>
            <a href="https://github.com/swhitty/SwiftDraw">
                <text fill="#505050" text-anchor="end" x="785.0" y="590.0">https://github.com/swhitty/SwiftDraw</text>
            </a>
        </g>
    </g>
    <g id="Guides" stroke="rgb(39, 170, 225)" stroke-width="0.5">
        <path id="Capline-S" d="M18,76 l800,0" />
        <path id="H-reference" d="M85,145.755 L87.685,145.755 L113.369,79.287 L114.052,79.287 L114.052,76 L112.148,76 L85,145.755 Z M95.693,121.536 L130.996,121.536 L130.263,119.313 L96.474,119.313 L95.693,121.536 Z M139.15,145.755 L141.787,145.755 L114.638,76 L113.466,76 L113.466,79.287 L139.15,145.755 Z" stroke="none" transform="translate(0,200)" />
        <path id="Baseline-S" d="M18,146 l800,0" />
        <path id="left-margin-Ultralight-M" d="M230,256 l0,110" />
        <path id="right-margin-Ultralight-M" d="M300,256 l0,110" />
        <path id="left-margin-Regular-M" d="M430,256 l0,110" />
        <path id="right-margin-Regular-M" d="M500,256 l0,110" />
        <path id="left-margin-Black-M" d="M630,256 l0,110" />
        <path id="right-margin-Black-M" d="M700,256 l0,110" />
        <path id="Capline-M" d="M18,276 l800,0" />
        <path id="Baseline-M" d="M18,346 l800,0" />
        <path id="Capline-L" d="M18,476 l800,0" />
        <path id="Baseline-L" d="M18,546 l800,0" />
    </g>
    <g id="Symbols">
        <g id="Ultralight-M" transform="translate(0,200)">
            <path d="M251.875,134.864 L278.125,134.864 C280.541,134.864 282.5,133.439 282.5,131.682 C282.5,129.925 280.541,128.5 278.125,128.5 L251.875,128.5 C249.459,128.5 247.5,129.925 247.5,131.682 C247.5,133.439 249.459,134.864 251.875,134.864 Z M241.375,82.364 L288.625,82.364 C290.808,82.364 291.334,82.395 291.251,82.364 C291.25,82.364 291.25,82.364 291.25,82.364 C291.207,82.302 291.25,82.685 291.25,84.273 L291.25,90.875 C291.25,92.527 291.226,92.904 291.129,93.199 C291.02,93.524 290.843,93.836 290.607,94.115 C290.579,94.149 290.553,94.178 290.523,94.209 C290.273,94.465 289.894,94.759 288.432,95.822 L275.6,105.155 C273.219,106.887 272.655,107.347 271.986,108.356 C271.84,108.578 271.714,108.805 271.61,109.038 C271.039,110.315 271.039,111.692 271.61,112.97 C271.714,113.202 271.84,113.428 271.986,113.65 C272.655,114.66 273.219,115.12 275.6,116.852 L288.428,126.181 C289.889,127.244 290.269,127.538 290.518,127.795 C290.548,127.825 290.574,127.854 290.598,127.883 C290.839,128.169 291.017,128.482 291.131,128.818 C291.222,129.096 291.246,129.475 291.246,131.131 L291.246,137.727 C291.246,139.315 291.203,139.698 291.245,139.637 C291.246,139.636 291.246,139.636 291.246,139.636 C291.33,139.605 290.803,139.636 288.625,139.636 L241.375,139.636 C239.192,139.636 238.666,139.605 238.749,139.636 C238.75,139.636 238.75,139.636 238.75,139.636 C238.793,139.698 238.75,139.315 238.75,137.727 L238.75,131.128 C238.75,129.472 238.774,129.094 238.872,128.795 C238.979,128.477 239.157,128.164 239.393,127.885 C239.611,127.625 239.963,127.345 241.568,126.178 L254.4,116.845 C256.781,115.113 257.345,114.653 258.014,113.644 C258.16,113.422 258.286,113.195 258.39,112.962 C258.961,111.685 258.961,110.308 258.39,109.03 C258.286,108.798 258.16,108.572 258.014,108.35 C257.345,107.34 256.781,106.88 254.4,105.148 L241.567,95.822 C240.106,94.759 239.726,94.465 239.477,94.209 C239.447,94.178 239.421,94.149 239.397,94.121 C239.154,93.832 238.977,93.522 238.87,93.196 C238.774,92.904 238.75,92.527 238.75,90.875 L238.75,84.273 C238.75,82.685 238.793,82.302 238.75,82.363 C238.75,82.364 238.75,82.364 238.75,82.364 C238.666,82.395 239.192,82.364 241.375,82.364 Z M241.375,76 C237.433,76 236.5,76.055 234.778,76.693 C233.131,77.304 231.793,78.277 230.954,79.475 C230.076,80.727 230,81.406 230,84.273 L230,90.875 C230,93.111 230.036,93.693 230.361,94.679 C230.684,95.657 231.215,96.59 231.936,97.445 C232.059,97.591 232.192,97.737 232.332,97.882 C232.992,98.561 233.495,98.95 235.381,100.322 L248.214,109.649 C249.691,110.724 250.088,111.047 250.13,111.111 C250.108,111.078 250.086,111.038 250.067,110.996 C250.068,110.997 250.068,110.997 250.068,110.997 C250.086,110.955 250.108,110.916 250.13,110.882 C250.088,110.947 249.691,111.27 248.213,112.346 L235.381,121.678 C233.202,123.263 232.662,123.693 231.934,124.558 C231.222,125.401 230.694,126.327 230.366,127.3 C230.036,128.308 230,128.89 230,131.128 L230,137.727 C230,140.594 230.076,141.273 230.953,142.525 C231.793,143.723 233.131,144.696 234.777,145.306 C236.5,145.945 237.433,146 241.375,146 L288.625,146 C292.572,146 293.503,145.945 295.225,145.304 C296.864,144.696 298.203,143.723 299.042,142.525 C299.919,141.273 299.996,140.594 299.996,137.727 L299.996,131.131 C299.996,128.89 299.959,128.307 299.635,127.321 C299.302,126.334 298.778,125.413 298.063,124.563 C297.936,124.412 297.804,124.266 297.664,124.121 C297.003,123.442 296.501,123.053 294.615,121.681 L281.787,112.352 C280.309,111.276 279.912,110.953 279.87,110.889 C279.892,110.922 279.914,110.962 279.933,111.004 C279.932,111.003 279.932,111.003 279.932,111.003 C279.914,111.045 279.892,111.084 279.87,111.118 C279.912,111.053 280.309,110.73 281.787,109.654 L294.619,100.322 C296.505,98.95 297.008,98.561 297.668,97.882 C297.808,97.737 297.941,97.591 298.066,97.442 C298.78,96.597 299.307,95.67 299.635,94.693 C299.964,93.693 300,93.111 300,90.875 L300,84.273 C300,81.406 299.924,80.727 299.047,79.475 C298.207,78.277 296.869,77.304 295.223,76.694 C293.5,76.055 292.567,76 288.625,76 L241.375,76 Z" />
        </g>
        <g id="Regular-M" transform="translate(0,200)">
            <path d="M451.875,134.864 L478.125,134.864 C480.541,134.864 482.5,133.439 482.5,131.682 C482.5,129.925 480.541,128.5 478.125,128.5 L451.875,128.5 C449.459,128.5 447.5,129.925 447.5,131.682 C447.5,133.439 449.459,134.864 451.875,134.864 Z M441.375,82.364 L488.625,82.364 C490.808,82.364 491.334,82.395 491.251,82.364 C491.25,82.364 491.25,82.364 491.25,82.364 C491.207,82.302 491.25,82.685 491.25,84.273 L491.25,90.875 C491.25,92.527 491.226,92.904 491.129,93.199 C491.02,93.524 490.843,93.836 490.607,94.115 C490.579,94.149 490.553,94.178 490.523,94.209 C490.273,94.465 489.894,94.759 488.432,95.822 L475.6,105.155 C473.219,106.887 472.655,107.347 471.986,108.356 C471.84,108.578 471.714,108.805 471.61,109.038 C471.039,110.315 471.039,111.692 471.61,112.97 C471.714,113.202 471.84,113.428 471.986,113.65 C472.655,114.66 473.219,115.12 475.6,116.852 L488.428,126.181 C489.889,127.244 490.269,127.538 490.518,127.795 C490.548,127.825 490.574,127.854 490.598,127.883 C490.839,128.169 491.017,128.482 491.131,128.818 C491.222,129.096 491.246,129.475 491.246,131.131 L491.246,137.727 C491.246,139.315 491.203,139.698 491.245,139.637 C491.246,139.636 491.246,139.636 491.246,139.636 C491.33,139.605 490.803,139.636 488.625,139.636 L441.375,139.636 C439.192,139.636 438.666,139.605 438.749,139.636 C438.75,139.636 438.75,139.636 438.75,139.636 C438.793,139.698 438.75,139.315 438.75,137.727 L438.75,131.128 C438.75,129.472 438.774,129.094 438.872,128.795 C438.979,128.477 439.157,128.164 439.393,127.885 C439.611,127.625 439.963,127.345 441.568,126.178 L454.4,116.845 C456.781,115.113 457.345,114.653 458.014,113.644 C458.16,113.422 458.286,113.195 458.39,112.962 C458.961,111.685 458.961,110.308 458.39,109.03 C458.286,108.798 458.16,108.572 458.014,108.35 C457.345,107.34 456.781,106.88 454.4,105.148 L441.567,95.822 C440.106,94.759 439.726,94.465 439.477,94.209 C439.447,94.178 439.421,94.149 439.397,94.121 C439.154,93.832 438.977,93.522 438.87,93.196 C438.774,92.904 438.75,92.527 438.75,90.875 L438.75,84.273 C438.75,82.685 438.793,82.302 438.75,82.363 C438.75,82.364 438.75,82.364 438.75,82.364 C438.666,82.395 439.192,82.364 441.375,82.364 Z M441.375,76 C437.433,76 436.5,76.055 434.778,76.693 C433.131,77.304 431.793,78.277 430.954,79.475 C430.076,80.727 430,81.406 430,84.273 L430,90.875 C430,93.111 430.036,93.693 430.361,94.679 C430.684,95.657 431.215,96.59 431.936,97.445 C432.059,97.591 432.192,97.737 432.332,97.882 C432.992,98.561 433.495,98.95 435.381,100.322 L448.214,109.649 C449.691,110.724 450.088,111.047 450.13,111.111 C450.108,111.078 450.086,111.038 450.067,110.996 C450.068,110.997 450.068,110.997 450.068,110.997 C450.086,110.955 450.108,110.916 450.13,110.882 C450.088,110.947 449.691,111.27 448.213,112.346 L435.381,121.678 C433.202,123.263 432.662,123.693 431.934,124.558 C431.222,125.401 430.694,126.327 430.366,127.3 C430.036,128.308 430,128.89 430,131.128 L430,137.727 C430,140.594 430.076,141.273 430.953,142.525 C431.793,143.723 433.131,144.696 434.777,145.306 C436.5,145.945 437.433,146 441.375,146 L488.625,146 C492.572,146 493.503,145.945 495.225,145.304 C496.864,144.696 498.203,143.723 499.042,142.525 C499.919,141.273 499.996,140.594 499.996,137.727 L499.996,131.131 C499.996,128.89 499.959,128.307 499.635,127.321 C499.302,126.334 498.778,125.413 498.063,124.563 C497.936,124.412 497.804,124.266 497.664,124.121 C497.003,123.442 496.501,123.053 494.615,121.681 L481.787,112.352 C480.309,111.276 479.912,110.953 479.87,110.889 C479.892,110.922 479.914,110.962 479.933,111.004 C479.932,111.003 479.932,111.003 479.932,111.003 C479.914,111.045 479.892,111.084 479.87,111.118 C479.912,111.053 480.309,110.73 481.787,109.654 L494.619,100.322 C496.505,98.95 497.008,98.561 497.668,97.882 C497.808,97.737 497.941,97.591 498.066,97.442 C498.78,96.597 499.307,95.67 499.635,94.693 C499.964,93.693 500,93.111 500,90.875 L500,84.273 C500,81.406 499.924,80.727 499.047,79.475 C498.207,78.277 496.869,77.304 495.223,76.694 C493.5,76.055 492.567,76 488.625,76 L441.375,76 Z" />
        </g>
        <g id="Black-M" transform="translate(0,200)">
            <path d="M651.875,134.864 L678.125,134.864 C680.541,134.864 682.5,133.439 682.5,131.682 C682.5,129.925 680.541,128.5 678.125,128.5 L651.875,128.5 C649.459,128.5 647.5,129.925 647.5,131.682 C647.5,133.439 649.459,134.864 651.875,134.864 Z M641.375,82.364 L688.625,82.364 C690.808,82.364 691.334,82.395 691.251,82.364 C691.25,82.364 691.25,82.364 691.25,82.364 C691.207,82.302 691.25,82.685 691.25,84.273 L691.25,90.875 C691.25,92.527 691.226,92.904 691.129,93.199 C691.02,93.524 690.843,93.836 690.607,94.115 C690.579,94.149 690.553,94.178 690.523,94.209 C690.273,94.465 689.894,94.759 688.432,95.822 L675.6,105.155 C673.219,106.887 672.655,107.347 671.986,108.356 C671.84,108.578 671.714,108.805 671.61,109.038 C671.039,110.315 671.039,111.692 671.61,112.97 C671.714,113.202 671.84,113.428 671.986,113.65 C672.655,114.66 673.219,115.12 675.6,116.852 L688.428,126.181 C689.889,127.244 690.269,127.538 690.518,127.795 C690.548,127.825 690.574,127.854 690.598,127.883 C690.839,128.169 691.017,128.482 691.131,128.818 C691.222,129.096 691.246,129.475 691.246,131.131 L691.246,137.727 C691.246,139.315 691.203,139.698 691.245,139.637 C691.246,139.636 691.246,139.636 691.246,139.636 C691.33,139.605 690.803,139.636 688.625,139.636 L641.375,139.636 C639.192,139.636 638.666,139.605 638.749,139.636 C638.75,139.636 638.75,139.636 638.75,139.636 C638.793,139.698 638.75,139.315 638.75,137.727 L638.75,131.128 C638.75,129.472 638.774,129.094 638.872,128.795 C638.979,128.477 639.157,128.164 639.393,127.885 C639.611,127.625 639.963,127.345 641.568,126.178 L654.4,116.845 C656.781,115.113 657.345,114.653 658.014,113.644 C658.16,113.422 658.286,113.195 658.39,112.962 C658.961,111.685 658.961,110.308 658.39,109.03 C658.286,108.798 658.16,108.572 658.014,108.35 C657.345,107.34 656.781,106.88 654.4,105.148 L641.567,95.822 C640.106,94.759 639.727,94.465 639.477,94.209 C639.447,94.178 639.421,94.149 639.397,94.121 C639.154,93.832 638.977,93.522 638.87,93.196 C638.774,92.904 638.75,92.527 638.75,90.875 L638.75,84.273 C638.75,82.685 638.793,82.302 638.75,82.363 C638.75,82.364 638.75,82.364 638.75,82.364 C638.666,82.395 639.192,82.364 641.375,82.364 Z M641.375,76 C637.433,76 636.5,76.055 634.778,76.693 C633.131,77.304 631.793,78.277 630.954,79.475 C630.076,80.727 630,81.406 630,84.273 L630,90.875 C630,93.111 630.036,93.693 630.361,94.679 C630.684,95.657 631.215,96.59 631.936,97.445 C632.059,97.591 632.192,97.737 632.332,97.882 C632.992,98.561 633.495,98.95 635.381,100.322 L648.214,109.649 C649.692,110.724 650.088,111.047 650.13,111.111 C650.108,111.078 650.086,111.038 650.067,110.996 C650.068,110.997 650.068,110.997 650.068,110.997 C650.086,110.955 650.108,110.916 650.13,110.882 C650.088,110.947 649.692,111.27 648.213,112.346 L635.381,121.678 C633.202,123.263 632.661,123.693 631.934,124.558 C631.222,125.401 630.694,126.327 630.366,127.3 C630.036,128.308 630,128.89 630,131.128 L630,137.727 C630,140.594 630.076,141.273 630.953,142.525 C631.793,143.723 633.131,144.696 634.777,145.306 C636.5,145.945 637.433,146 641.375,146 L688.625,146 C692.572,146 693.503,145.945 695.225,145.304 C696.865,144.696 698.203,143.723 699.042,142.525 C699.919,141.273 699.996,140.594 699.996,137.727 L699.996,131.131 C699.996,128.89 699.959,128.307 699.635,127.321 C699.302,126.334 698.778,125.413 698.063,124.563 C697.936,124.412 697.804,124.266 697.664,124.121 C697.003,123.442 696.501,123.053 694.615,121.681 L681.787,112.352 C680.309,111.276 679.912,110.953 679.87,110.889 C679.892,110.922 679.914,110.962 679.933,111.004 C679.932,111.003 679.932,111.003 679.932,111.003 C679.914,111.045 679.892,111.084 679.87,111.118 C679.912,111.053 680.309,110.73 681.787,109.654 L694.619,100.322 C696.505,98.95 697.008,98.561 697.668,97.882 C697.808,97.737 697.941,97.591 698.066,97.442 C698.78,96.597 699.307,95.67 699.635,94.693 C699.964,93.693 700,93.111 700,90.875 L700,84.273 C700,81.406 699.924,80.727 699.047,79.475 C698.207,78.277 696.869,77.304 695.223,76.694 C693.5,76.055 692.567,76 688.625,76 L641.375,76 Z" />
        </g>
    </g>
</svg>