<?xml version="1.0" encoding="UTF-8"?>
<svg height="600" width="800" xmlns="http://www.w3.org/2000/svg" xmlns:xlink="http://www.w3.org/1999/xlink">
    <g id="Notes" font-family="LucidaGrande, 'Lucida Grande', sans-serif" font-size="13">
        <rect fill="white" height="600.0" width="800.0" x="0.0" y="0.0" />
        <g font-size="13">
            <text x="18.0" y="176.0">Small</text>
            <text x="18.0" y="376.0">Medium</text>
            <text x="18.0" y="576.0">Large</text>
        </g>
        <g font-size="9">
            <text x="250.0" y="30.0">Ultralight</text>
            <text x="450.0" y="30.0">Regular</text>
            <text x="650.0" y="30.0">Black</text>
            <text id="template-version" fill="#505050" text-anchor="end" x="785.0" y="575.0">Template v.3.0</text>
            <a href="https://github.com/swhitty/SwiftDraw">
                <text fill="#505050" text-anchor="end" x="785.0" y="590.0">https://github.com/swhitty/SwiftDraw</text>
            </a>
        </g>
    </g>
    <g id="Guides" stroke="rgb(39, 170, 225)" stroke-width="0.5">
        <path id="Capline-S" d="M18,76 l800,0" />
        <path id="H-reference" d="M85,145.755 L87.685,145.755 L113.369,79.287 L114.052,79.287 L114.052,76 L112.148,76 L85,145.755 Z M95.693,121.536 L130.996,121.536 L130.263,119.313 L96.474,119.313 L95.693,121.536 Z M139.15,145.755 L141.787,145.755 L114.638,76 L113.466,76 L113.466,79.287 L139.15,145.755 Z" stroke="none" transform="translate(0,200)" />
        <path id="Baseline-S" d="M18,146 l800,0" />
        <path id="left-margin-Ultralight-M" d="M230,256 l0,110" />
        <path id="right-margin-Ultralight-M" d="M300,256 l0,110" />
        <path id="left-margin-Regular-M" d="M430,256 l0,110" />
        <path id="right-margin-Regular-M" d="M500,256 l0,110" />
        <path id="left-margin-Black-M" d="M630,256 l0,110" />
        <path id="right-margin-Black-M" d="M700,256 l0,110" />
        <path id="Capline-M" d="M18,276 l800,0" />
        <path id="Baseline-M" d="M18,346 l800,0" />
        <path id="Capline-L" d="M18,476 l800,0" />
        <path id="Baseline-L" d="M18,546 l800,0" />
    </g>
    <g id="Symbols">
        <g id="Ultralight-M" transform="translate(0,200)">
            <path d="M242.661,144.023 L263.651,120.933 C264.727,119.75 265.05,119.433 265.114,119.399 C265.081,119.417 265.042,119.434 264.999,119.45 C265,119.449 265,119.449 265,119.449 C264.958,119.434 264.919,119.417 264.886,119.399 C264.95,119.433 265.273,119.75 266.349,120.933 L287.199,143.869 C288.442,145.236 290.456,145.236 291.699,143.869 C292.942,142.502 292.942,140.286 291.699,138.919 L270.849,115.984 C269.117,114.078 268.657,113.627 267.647,113.093 C267.425,112.975 267.199,112.875 266.965,112.791 C265.688,112.335 264.312,112.335 263.034,112.792 C262.801,112.875 262.575,112.975 262.353,113.093 C261.343,113.627 260.883,114.078 259.151,115.984 L238.161,139.073 C236.918,140.44 236.918,142.656 238.161,144.023 C239.404,145.39 241.418,145.39 242.661,144.023 Z M273.614,123.975 L282.742,113.933 C283.818,112.75 284.141,112.433 284.205,112.399 C284.172,112.417 284.133,112.434 284.09,112.45 C284.091,112.449 284.091,112.449 284.091,112.449 C284.049,112.434 284.01,112.417 283.976,112.399 C284.041,112.433 284.364,112.75 285.44,113.933 L294.568,123.975 C295.811,125.342 297.826,125.342 299.068,123.975 C300.311,122.608 300.311,120.392 299.068,119.025 L289.939,108.984 C288.207,107.078 287.747,106.627 286.738,106.093 C286.516,105.975 286.289,105.875 286.056,105.791 C284.779,105.335 283.403,105.335 282.125,105.792 C281.892,105.875 281.666,105.975 281.444,106.093 C280.434,106.627 279.974,107.078 278.242,108.984 L269.114,119.025 C267.871,120.392 267.871,122.608 269.114,123.975 C270.356,125.342 272.371,125.342 273.614,123.975 Z M255.455,100.5 C255.455,102.433 254.03,104 252.273,104 C250.515,104 249.091,102.433 249.091,100.5 C249.091,98.567 250.515,97 252.273,97 C254.03,97 255.455,98.567 255.455,100.5 Z M261.818,100.5 C261.818,94.701 257.545,90 252.273,90 C247.001,90 242.727,94.701 242.727,100.5 C242.727,106.299 247.001,111 252.273,111 C257.545,111 261.818,106.299 261.818,100.5 Z M248.455,146 L281.545,146 C288.867,146 290.606,145.844 293.05,144.474 C295.446,143.132 297.393,140.99 298.613,138.356 C299.858,135.667 300,133.753 300,125.7 L300,96.3 C300,88.247 299.858,86.333 298.613,83.644 C297.393,81.01 295.446,78.868 293.051,77.526 C290.606,76.156 288.867,76 281.545,76 L248.455,76 C241.133,76 239.394,76.156 236.95,77.526 C234.554,78.868 232.607,81.01 231.387,83.644 C230.142,86.333 230,88.247 230,96.3 L230,125.7 C230,133.753 230.142,135.667 231.387,138.356 C232.607,140.99 234.554,143.132 236.949,144.474 C239.394,145.844 241.133,146 248.455,146 Z M248.455,139 C242.412,139 240.968,138.87 239.838,138.237 C238.641,137.566 237.667,136.495 237.057,135.178 C236.482,133.935 236.364,132.347 236.364,125.7 L236.364,96.3 C236.364,89.653 236.482,88.065 237.057,86.822 C237.667,85.505 238.641,84.434 239.838,83.763 C240.968,83.13 242.412,83 248.455,83 L281.545,83 C287.588,83 289.032,83.13 290.162,83.763 C291.359,84.434 292.333,85.505 292.943,86.822 C293.518,88.065 293.636,89.653 293.636,96.3 L293.636,125.7 C293.636,132.347 293.518,133.935 292.943,135.178 C292.333,136.495 291.359,137.566 290.162,138.237 C289.032,138.87 287.588,139 281.545,139 L248.455,139 Z" />
        </g>
        <g id="Regular-M" transform="translate(0,200)">
            <path d="M442.661,144.023 L463.651,120.933 C464.727,119.75 465.05,119.433 465.114,119.399 C465.081,119.417 465.042,119.434 464.999,119.45 C465,119.449 465,119.449 465,119.449 C464.958,119.434 464.919,119.417 464.886,119.399 C464.95,119.433 465.273,119.75 466.349,120.933 L487.199,143.869 C488.442,145.236 490.456,145.236 491.699,143.869 C492.942,142.502 492.942,140.286 491.699,138.919 L470.849,115.984 C469.117,114.078 468.657,113.627 467.647,113.093 C467.425,112.975 467.199,112.875 466.965,112.791 C465.688,112.335 464.312,112.335 463.034,112.792 C462.801,112.875 462.575,112.975 462.353,113.093 C461.343,113.627 460.883,114.078 459.151,115.984 L438.161,139.073 C436.918,140.44 436.918,142.656 438.161,144.023 C439.404,145.39 441.418,145.39 442.661,144.023 Z M473.614,123.975 L482.742,113.933 C483.818,112.75 484.141,112.433 484.205,112.399 C484.172,112.417 484.133,112.434 484.09,112.45 C484.091,112.449 484.091,112.449 484.091,112.449 C484.049,112.434 484.01,112.417 483.976,112.399 C484.041,112.433 484.364,112.75 485.44,113.933 L494.568,123.975 C495.811,125.342 497.826,125.342 499.068,123.975 C500.311,122.608 500.311,120.392 499.068,119.025 L489.939,108.984 C488.207,107.078 487.747,106.627 486.738,106.093 C486.516,105.975 486.289,105.875 486.056,105.791 C484.779,105.335 483.403,105.335 482.125,105.792 C481.892,105.875 481.666,105.975 481.444,106.093 C480.434,106.627 479.974,107.078 478.242,108.984 L469.114,119.025 C467.871,120.392 467.871,122.608 469.114,123.975 C470.356,125.342 472.371,125.342 473.614,123.975 Z M455.455,100.5 C455.455,102.433 454.03,104 452.273,104 C450.515,104 449.091,102.433 449.091,100.5 C449.091,98.567 450.515,97 452.273,97 C454.03,97 455.455,98.567 455.455,100.5 Z M461.818,100.5 C461.818,94.701 457.545,90 452.273,90 C447.001,90 442.727,94.701 442.727,100.5 C442.727,106.299 447.001,111 452.273,111 C457.545,111 461.818,106.299 461.818,100.5 Z M448.455,146 L481.545,146 C488.867,146 490.606,145.844 493.05,144.474 C495.446,143.132 497.393,140.99 498.613,138.356 C499.858,135.667 500,133.753 500,125.7 L500,96.3 C500,88.247 499.858,86.333 498.613,83.644 C497.393,81.01 495.446,78.868 493.051,77.526 C490.606,76.156 488.867,76 481.545,76 L448.455,76 C441.133,76 439.394,76.156 436.95,77.526 C434.554,78.868 432.607,81.01 431.387,83.644 C430.142,86.333 430,88.247 430,96.3 L430,125.7 C430,133.753 430.142,135.667 431.387,138.356 C432.607,140.99 434.554,143.132 436.949,144.474 C439.394,145.844 441.133,146 448.455,146 Z M448.455,139 C442.412,139 440.968,138.87 439.838,138.237 C438.641,137.566 437.667,136.495 437.057,135.178 C436.482,133.935 436.364,132.347 436.364,125.7 L436.364,96.3 C436.364,89.653 436.482,88.065 437.057,86.822 C437.667,85.505 438.641,84.434 439.838,83.763 C440.968,83.13 442.412,83 448.455,83 L481.545,83 C487.588,83 489.032,83.13 490.162,83.763 C491.359,84.434 492.333,85.505 492.943,86.822 C493.518,88.065 493.636,89.653 493.636,96.3 L493.636,125.7 C493.636,132.347 493.518,133.935 492.943,135.178 C492.333,136.495 491.359,137.566 490.162,138.237 C489.032,138.87 487.588,139 481.545,139 L448.455,139 Z" />
        </g>
        <g id="Black-M" transform="translate(0,200)">
            <path d="M642.661,144.023 L663.651,120.933 C664.727,119.75 665.05,119.433 665.114,119.399 C665.081,119.417 665.042,119.434 664.999,119.45 C665,119.449 665,119.449 665,119.449 C664.958,119.434 664.919,119.417 664.886,119.399 C664.95,119.433 665.273,119.75 666.349,120.933 L687.199,143.869 C688.442,145.236 690.456,145.236 691.699,143.869 C692.942,142.502 692.942,140.286 691.699,138.919 L670.849,115.984 C669.117,114.078 668.656,113.627 667.647,113.093 C667.425,112.975 667.199,112.875 666.965,112.791 C665.688,112.335 664.312,112.335 663.034,112.792 C662.801,112.875 662.575,112.975 662.353,113.093 C661.343,113.627 660.883,114.078 659.151,115.984 L638.161,139.073 C636.918,140.44 636.918,142.656 638.161,144.023 C639.404,145.39 641.418,145.39 642.661,144.023 Z M673.614,123.975 L682.742,113.933 C683.818,112.75 684.141,112.433 684.205,112.399 C684.172,112.417 684.133,112.434 684.09,112.45 C684.091,112.449 684.091,112.449 684.091,112.449 C684.049,112.434 684.01,112.417 683.976,112.399 C684.041,112.433 684.364,112.75 685.44,113.933 L694.568,123.975 C695.811,125.342 697.826,125.342 699.068,123.975 C700.311,122.608 700.311,120.392 699.068,119.025 L689.939,108.984 C688.207,107.078 687.747,106.627 686.738,106.093 C686.516,105.975 686.289,105.875 686.056,105.791 C684.779,105.335 683.403,105.335 682.125,105.792 C681.892,105.875 681.666,105.975 681.444,106.093 C680.434,106.627 679.974,107.078 678.242,108.984 L669.114,119.025 C667.871,120.392 667.871,122.608 669.114,123.975 C670.356,125.342 672.371,125.342 673.614,123.975 Z M655.455,100.5 C655.455,102.433 654.03,104 652.273,104 C650.515,104 649.091,102.433 649.091,100.5 C649.091,98.567 650.515,97 652.273,97 C654.03,97 655.455,98.567 655.455,100.5 Z M661.818,100.5 C661.818,94.701 657.545,90 652.273,90 C647.001,90 642.727,94.701 642.727,100.5 C642.727,106.299 647.001,111 652.273,111 C657.545,111 661.818,106.299 661.818,100.5 Z M648.455,146 L681.545,146 C688.867,146 690.606,145.844 693.05,144.474 C695.446,143.132 697.393,140.99 698.613,138.356 C699.858,135.667 700,133.753 700,125.7 L700,96.3 C700,88.247 699.858,86.333 698.613,83.644 C697.393,81.01 695.446,78.868 693.051,77.526 C690.606,76.156 688.867,76 681.545,76 L648.455,76 C641.133,76 639.394,76.156 636.95,77.526 C634.554,78.868 632.607,81.01 631.387,83.644 C630.142,86.333 630,88.247 630,96.3 L630,125.7 C630,133.753 630.142,135.667 631.387,138.356 C632.607,140.99 634.554,143.132 636.949,144.474 C639.394,145.844 641.133,146 648.455,146 Z M648.455,139 C642.412,139 640.968,138.87 639.838,138.237 C638.641,137.566 637.667,136.495 637.057,135.178 C636.482,133.935 636.364,132.347 636.364,125.7 L636.364,96.3 C636.364,89.653 636.482,88.065 637.057,86.822 C637.667,85.505 638.641,84.434 639.838,83.763 C640.968,83.13 642.412,83 648.455,83 L681.545,83 C687.588,83 689.032,83.13 690.162,83.763 C691.359,84.434 692.333,85.505 692.943,86.822 C693.518,88.065 693.636,89.653 693.636,96.3 L693.636,125.7 C693.636,132.347 693.518,133.935 692.943,135.178 C692.333,136.495 691.359,137.566 690.162,138.237 C689.032,138.87 687.588,139 681.545,139 L648.455,139 Z" />
        </g>
    </g>
</svg>