<?xml version="1.0" encoding="UTF-8"?>
<svg height="600" width="800" xmlns="http://www.w3.org/2000/svg" xmlns:xlink="http://www.w3.org/1999/xlink">
    <g id="Notes" font-family="LucidaGrande, 'Lucida Grande', sans-serif" font-size="13">
        <rect fill="white" height="600.0" width="800.0" x="0.0" y="0.0" />
        <g font-size="13">
            <text x="18.0" y="176.0">Small</text>
            <text x="18.0" y="376.0">Medium</text>
            <text x="18.0" y="576.0">Large</text>
        </g>
        <g font-size="9">
            <text x="250.0" y="30.0">Ultralight</text>
            <text x="450.0" y="30.0">Regular</text>
            <text x="650.0" y="30.0">Black</text>
            <text id="template-version" fill="#505050" text-anchor="end" x="785.0" y="575.0">Template v.3.0</text>
            <a href="https://github.com/swhitty/SwiftDraw">
                <text fill="#505050" text-anchor="end" x="785.0" y="590.0">https://github.com/swhitty/SwiftDraw</text>
            </a>
        </g>
    </g>
    <g id="Guides" stroke="rgb(39, 170, 225)" stroke-width="0.5">
        <path id="Capline-S" d="M18,76 l800,0" />
        <path id="H-reference" d="M85,145.755 L87.685,145.755 L113.369,79.287 L114.052,79.287 L114.052,76 L112.148,76 L85,145.755 Z M95.693,121.536 L130.996,121.536 L130.263,119.313 L96.474,119.313 L95.693,121.536 Z M139.15,145.755 L141.787,145.755 L114.638,76 L113.466,76 L113.466,79.287 L139.15,145.755 Z" stroke="none" transform="translate(0,200)" />
        <path id="Baseline-S" d="M18,146 l800,0" />
        <path id="left-margin-Ultralight-M" d="M230,256 l0,110" />
        <path id="right-margin-Ultralight-M" d="M300,256 l0,110" />
        <path id="left-margin-Regular-M" d="M430,256 l0,110" />
        <path id="right-margin-Regular-M" d="M500,256 l0,110" />
        <path id="left-margin-Black-M" d="M630,256 l0,110" />
        <path id="right-margin-Black-M" d="M700,256 l0,110" />
        <path id="Capline-M" d="M18,276 l800,0" />
        <path id="Baseline-M" d="M18,346 l800,0" />
        <path id="Capline-L" d="M18,476 l800,0" />
        <path id="Baseline-L" d="M18,546 l800,0" />
    </g>
    <g id="Symbols">
        <g id="Ultralight-M" transform="translate(0,200)">
            <path d="M277.25,134.333 L250.215,134.333 C249.108,134.333 248.731,134.327 248.436,134.301 C248.475,134.305 248.675,134.363 249.046,134.679 C249.408,134.989 249.596,135.445 249.558,135.91 C249.522,136.393 249.42,136.578 249.392,136.612 C249.582,136.385 249.845,136.113 250.63,135.328 L275.43,110.528 C276.416,109.542 276.713,109.278 276.772,109.249 C276.741,109.264 276.705,109.279 276.666,109.291 C276.667,109.291 276.667,109.291 276.667,109.291 C276.628,109.279 276.593,109.264 276.562,109.249 C276.621,109.278 276.917,109.542 277.903,110.528 L289.188,121.812 L288.333,119.75 L288.333,123.25 C288.333,124.861 289.639,126.167 291.25,126.167 C292.861,126.167 294.167,124.861 294.167,123.25 L294.167,119.75 C294.167,118.976 293.859,118.235 293.312,117.688 L282.028,106.403 C280.44,104.815 280.018,104.44 279.093,103.994 C278.89,103.896 278.682,103.812 278.468,103.743 C277.298,103.363 276.036,103.363 274.864,103.743 C274.651,103.812 274.443,103.896 274.24,103.994 C273.315,104.44 272.893,104.815 271.306,106.403 L246.505,131.203 C244.107,133.601 243.862,133.894 243.743,135.453 C243.631,136.836 244.194,138.203 245.258,139.115 C246.453,140.132 246.846,140.167 250.215,140.167 L277.25,140.167 C278.861,140.167 280.167,138.861 280.167,137.25 C280.167,135.639 278.861,134.333 277.25,134.333 Z M277.25,140.167 C283.961,140.167 285.556,140.036 287.796,138.895 C289.992,137.776 291.776,135.992 292.895,133.797 C294.036,131.556 294.167,129.961 294.167,123.25 C294.167,121.639 292.861,120.333 291.25,120.333 C289.639,120.333 288.333,121.639 288.333,123.25 C288.333,128.789 288.225,130.112 287.697,131.149 C287.138,132.246 286.246,133.138 285.148,133.698 C284.112,134.225 282.789,134.333 277.25,134.333 C275.639,134.333 274.333,135.639 274.333,137.25 C274.333,138.861 275.639,140.167 277.25,140.167 Z M277.25,134.333 L252.75,134.333 C247.211,134.333 245.888,134.225 244.851,133.697 C243.754,133.138 242.862,132.246 242.303,131.148 C241.775,130.112 241.667,128.789 241.667,123.25 L241.667,98.75 C241.667,93.211 241.775,91.888 242.303,90.851 C242.862,89.754 243.754,88.862 244.852,88.303 C245.888,87.775 247.211,87.667 252.75,87.667 L277.25,87.667 C282.789,87.667 284.112,87.775 285.149,88.303 C286.246,88.862 287.138,89.754 287.698,90.852 C288.225,91.888 288.333,93.211 288.333,98.75 L288.333,123.25 C288.333,124.861 289.639,126.167 291.25,126.167 C292.861,126.167 294.167,124.861 294.167,123.25 L294.167,98.75 C294.167,92.039 294.036,90.444 292.895,88.204 C291.777,86.008 289.992,84.223 287.797,83.105 C285.556,81.964 283.961,81.833 277.25,81.833 L252.75,81.833 C246.039,81.833 244.444,81.964 242.204,83.105 C240.008,84.224 238.224,86.008 237.105,88.203 C235.964,90.444 235.833,92.039 235.833,98.75 L235.833,123.25 C235.833,129.961 235.964,131.556 237.105,133.796 C238.224,135.992 240.008,137.777 242.203,138.895 C244.444,140.036 246.039,140.167 252.75,140.167 L277.25,140.167 C278.861,140.167 280.167,138.861 280.167,137.25 C280.167,135.639 278.861,134.333 277.25,134.333 Z M257.708,100.792 C257.708,102.402 256.402,103.708 254.792,103.708 C253.181,103.708 251.875,102.402 251.875,100.792 C251.875,99.181 253.181,97.875 254.792,97.875 C256.402,97.875 257.708,99.181 257.708,100.792 Z M263.542,100.792 C263.542,95.959 259.624,92.042 254.792,92.042 C249.959,92.042 246.042,95.959 246.042,100.792 C246.042,105.624 249.959,109.542 254.792,109.542 C259.624,109.542 263.542,105.624 263.542,100.792 Z" />
        </g>
        <g id="Regular-M" transform="translate(0,200)">
            <path d="M477.25,134.333 L450.215,134.333 C449.108,134.333 448.731,134.327 448.436,134.301 C448.475,134.305 448.675,134.363 449.046,134.679 C449.409,134.989 449.596,135.445 449.558,135.91 C449.522,136.393 449.42,136.578 449.392,136.612 C449.582,136.385 449.845,136.113 450.63,135.328 L475.43,110.528 C476.416,109.542 476.713,109.278 476.772,109.249 C476.741,109.264 476.705,109.279 476.666,109.291 C476.667,109.291 476.667,109.291 476.667,109.291 C476.628,109.279 476.593,109.264 476.562,109.249 C476.621,109.278 476.917,109.542 477.903,110.528 L489.188,121.812 L488.333,119.75 L488.333,123.25 C488.333,124.861 489.639,126.167 491.25,126.167 C492.861,126.167 494.167,124.861 494.167,123.25 L494.167,119.75 C494.167,118.976 493.859,118.235 493.312,117.688 L482.028,106.403 C480.44,104.815 480.018,104.44 479.093,103.994 C478.89,103.896 478.682,103.812 478.468,103.743 C477.298,103.363 476.036,103.363 474.864,103.743 C474.651,103.812 474.443,103.896 474.24,103.994 C473.315,104.44 472.893,104.815 471.306,106.403 L446.505,131.203 C444.107,133.601 443.862,133.894 443.743,135.453 C443.631,136.836 444.194,138.203 445.258,139.115 C446.453,140.132 446.846,140.167 450.215,140.167 L477.25,140.167 C478.861,140.167 480.167,138.861 480.167,137.25 C480.167,135.639 478.861,134.333 477.25,134.333 Z M477.25,140.167 C483.961,140.167 485.556,140.036 487.796,138.895 C489.992,137.776 491.776,135.992 492.895,133.797 C494.036,131.556 494.167,129.961 494.167,123.25 C494.167,121.639 492.861,120.333 491.25,120.333 C489.639,120.333 488.333,121.639 488.333,123.25 C488.333,128.789 488.225,130.112 487.697,131.149 C487.138,132.246 486.246,133.138 485.148,133.698 C484.112,134.225 482.789,134.333 477.25,134.333 C475.639,134.333 474.333,135.639 474.333,137.25 C474.333,138.861 475.639,140.167 477.25,140.167 Z M477.25,134.333 L452.75,134.333 C447.211,134.333 445.888,134.225 444.851,133.697 C443.754,133.138 442.862,132.246 442.302,131.148 C441.775,130.112 441.667,128.789 441.667,123.25 L441.667,98.75 C441.667,93.211 441.775,91.888 442.303,90.851 C442.862,89.754 443.754,88.862 444.852,88.303 C445.888,87.775 447.211,87.667 452.75,87.667 L477.25,87.667 C482.789,87.667 484.112,87.775 485.149,88.303 C486.246,88.862 487.138,89.754 487.698,90.852 C488.225,91.888 488.333,93.211 488.333,98.75 L488.333,123.25 C488.333,124.861 489.639,126.167 491.25,126.167 C492.861,126.167 494.167,124.861 494.167,123.25 L494.167,98.75 C494.167,92.039 494.036,90.444 492.895,88.204 C491.777,86.008 489.992,84.223 487.797,83.105 C485.556,81.964 483.961,81.833 477.25,81.833 L452.75,81.833 C446.039,81.833 444.444,81.964 442.204,83.105 C440.008,84.224 438.224,86.008 437.105,88.203 C435.964,90.444 435.833,92.039 435.833,98.75 L435.833,123.25 C435.833,129.961 435.964,131.556 437.105,133.796 C438.224,135.992 440.008,137.777 442.203,138.895 C444.444,140.036 446.039,140.167 452.75,140.167 L477.25,140.167 C478.861,140.167 480.167,138.861 480.167,137.25 C480.167,135.639 478.861,134.333 477.25,134.333 Z M457.708,100.792 C457.708,102.402 456.402,103.708 454.792,103.708 C453.181,103.708 451.875,102.402 451.875,100.792 C451.875,99.181 453.181,97.875 454.792,97.875 C456.402,97.875 457.708,99.181 457.708,100.792 Z M463.542,100.792 C463.542,95.959 459.624,92.042 454.792,92.042 C449.959,92.042 446.042,95.959 446.042,100.792 C446.042,105.624 449.959,109.542 454.792,109.542 C459.624,109.542 463.542,105.624 463.542,100.792 Z" />
        </g>
        <g id="Black-M" transform="translate(0,200)">
            <path d="M677.25,134.333 L650.215,134.333 C649.108,134.333 648.731,134.327 648.436,134.301 C648.475,134.305 648.675,134.363 649.046,134.679 C649.409,134.989 649.596,135.445 649.558,135.91 C649.522,136.393 649.42,136.578 649.392,136.612 C649.582,136.385 649.845,136.113 650.63,135.328 L675.43,110.528 C676.416,109.542 676.713,109.278 676.772,109.249 C676.741,109.264 676.705,109.279 676.666,109.291 C676.667,109.291 676.667,109.291 676.667,109.291 C676.628,109.279 676.593,109.264 676.562,109.249 C676.621,109.278 676.917,109.542 677.903,110.528 L689.188,121.812 L688.333,119.75 L688.333,123.25 C688.333,124.861 689.639,126.167 691.25,126.167 C692.861,126.167 694.167,124.861 694.167,123.25 L694.167,119.75 C694.167,118.976 693.859,118.235 693.312,117.688 L682.028,106.403 C680.44,104.815 680.018,104.44 679.093,103.994 C678.89,103.896 678.682,103.812 678.468,103.743 C677.298,103.363 676.036,103.363 674.864,103.743 C674.651,103.812 674.443,103.896 674.24,103.994 C673.315,104.44 672.893,104.815 671.306,106.403 L646.505,131.203 C644.107,133.601 643.862,133.894 643.743,135.453 C643.631,136.836 644.194,138.203 645.258,139.115 C646.453,140.132 646.846,140.167 650.215,140.167 L677.25,140.167 C678.861,140.167 680.167,138.861 680.167,137.25 C680.167,135.639 678.861,134.333 677.25,134.333 Z M677.25,140.167 C683.961,140.167 685.556,140.036 687.796,138.895 C689.992,137.776 691.776,135.992 692.895,133.797 C694.036,131.556 694.167,129.961 694.167,123.25 C694.167,121.639 692.861,120.333 691.25,120.333 C689.639,120.333 688.333,121.639 688.333,123.25 C688.333,128.789 688.225,130.112 687.697,131.149 C687.138,132.246 686.246,133.138 685.148,133.698 C684.112,134.225 682.789,134.333 677.25,134.333 C675.639,134.333 674.333,135.639 674.333,137.25 C674.333,138.861 675.639,140.167 677.25,140.167 Z M677.25,134.333 L652.75,134.333 C647.211,134.333 645.888,134.225 644.851,133.697 C643.754,133.138 642.862,132.246 642.302,131.148 C641.775,130.112 641.667,128.789 641.667,123.25 L641.667,98.75 C641.667,93.211 641.775,91.888 642.303,90.851 C642.862,89.754 643.754,88.862 644.852,88.303 C645.888,87.775 647.211,87.667 652.75,87.667 L677.25,87.667 C682.789,87.667 684.112,87.775 685.149,88.303 C686.246,88.862 687.138,89.754 687.698,90.852 C688.225,91.888 688.333,93.211 688.333,98.75 L688.333,123.25 C688.333,124.861 689.639,126.167 691.25,126.167 C692.861,126.167 694.167,124.861 694.167,123.25 L694.167,98.75 C694.167,92.039 694.036,90.444 692.895,88.204 C691.776,86.008 689.992,84.223 687.797,83.105 C685.556,81.964 683.961,81.833 677.25,81.833 L652.75,81.833 C646.039,81.833 644.444,81.964 642.204,83.105 C640.008,84.224 638.224,86.008 637.105,88.203 C635.964,90.444 635.833,92.039 635.833,98.75 L635.833,123.25 C635.833,129.961 635.964,131.556 637.105,133.796 C638.224,135.992 640.008,137.777 642.203,138.895 C644.444,140.036 646.039,140.167 652.75,140.167 L677.25,140.167 C678.861,140.167 680.167,138.861 680.167,137.25 C680.167,135.639 678.861,134.333 677.25,134.333 Z M657.708,100.792 C657.708,102.402 656.402,103.708 654.792,103.708 C653.181,103.708 651.875,102.402 651.875,100.792 C651.875,99.181 653.181,97.875 654.792,97.875 C656.403,97.875 657.708,99.181 657.708,100.792 Z M663.542,100.792 C663.542,95.959 659.624,92.042 654.792,92.042 C649.959,92.042 646.042,95.959 646.042,100.792 C646.042,105.624 649.959,109.542 654.792,109.542 C659.624,109.542 663.542,105.624 663.542,100.792 Z" />
        </g>
    </g>
</svg>