<?xml version="1.0" encoding="UTF-8"?>
<svg height="600" width="800" xmlns="http://www.w3.org/2000/svg" xmlns:xlink="http://www.w3.org/1999/xlink">
    <g id="Notes" font-family="LucidaGrande, 'Lucida Grande', sans-serif" font-size="13">
        <rect fill="white" height="600.0" width="800.0" x="0.0" y="0.0" />
        <g font-size="13">
            <text x="18.0" y="176.0">Small</text>
            <text x="18.0" y="376.0">Medium</text>
            <text x="18.0" y="576.0">Large</text>
        </g>
        <g font-size="9">
            <text x="250.0" y="30.0">Ultralight</text>
            <text x="450.0" y="30.0">Regular</text>
            <text x="650.0" y="30.0">Black</text>
            <text id="template-version" fill="#505050" text-anchor="end" x="785.0" y="575.0">Template v.3.0</text>
            <a href="https://github.com/swhitty/SwiftDraw">
                <text fill="#505050" text-anchor="end" x="785.0" y="590.0">https://github.com/swhitty/SwiftDraw</text>
            </a>
        </g>
    </g>
    <g id="Guides" stroke="rgb(39, 170, 225)" stroke-width="0.5">
        <path id="Capline-S" d="M18,76 l800,0" />
        <path id="H-reference" d="M85,145.755 L87.685,145.755 L113.369,79.287 L114.052,79.287 L114.052,76 L112.148,76 L85,145.755 Z M95.693,121.536 L130.996,121.536 L130.263,119.313 L96.474,119.313 L95.693,121.536 Z M139.15,145.755 L141.787,145.755 L114.638,76 L113.466,76 L113.466,79.287 L139.15,145.755 Z" stroke="none" transform="translate(0,200)" />
        <path id="Baseline-S" d="M18,146 l800,0" />
        <path id="left-margin-Ultralight-M" d="M230,256 l0,110" />
        <path id="right-margin-Ultralight-M" d="M300,256 l0,110" />
        <path id="left-margin-Regular-M" d="M430,256 l0,110" />
        <path id="right-margin-Regular-M" d="M500,256 l0,110" />
        <path id="left-margin-Black-M" d="M630,256 l0,110" />
        <path id="right-margin-Black-M" d="M700,256 l0,110" />
        <path id="Capline-M" d="M18,276 l800,0" />
        <path id="Baseline-M" d="M18,346 l800,0" />
        <path id="Capline-L" d="M18,476 l800,0" />
        <path id="Baseline-L" d="M18,546 l800,0" />
    </g>
    <g id="Symbols">
        <g id="Ultralight-M" transform="translate(0,200)">
            <path d="M249.562,136.396 L275.43,110.528 C276.416,109.542 276.713,109.278 276.772,109.249 C276.741,109.264 276.705,109.279 276.666,109.291 C276.667,109.291 276.667,109.291 276.667,109.291 C276.628,109.279 276.593,109.264 276.562,109.249 C276.621,109.278 276.917,109.542 277.903,110.528 L290.369,122.994 C291.508,124.133 293.355,124.133 294.494,122.994 C295.633,121.855 295.633,120.008 294.494,118.869 L282.028,106.403 C280.44,104.815 280.018,104.44 279.093,103.994 C278.89,103.896 278.682,103.812 278.468,103.743 C277.298,103.363 276.036,103.363 274.864,103.743 C274.651,103.812 274.443,103.896 274.24,103.994 C273.315,104.44 272.893,104.815 271.306,106.403 L245.438,132.271 C244.299,133.41 244.299,135.257 245.438,136.396 C246.577,137.535 248.423,137.535 249.562,136.396 Z M257.708,100.792 C257.708,102.402 256.402,103.708 254.792,103.708 C253.181,103.708 251.875,102.402 251.875,100.792 C251.875,99.181 253.181,97.875 254.792,97.875 C256.402,97.875 257.708,99.181 257.708,100.792 Z M263.542,100.792 C263.542,95.959 259.624,92.042 254.792,92.042 C249.959,92.042 246.042,95.959 246.042,100.792 C246.042,105.624 249.959,109.542 254.792,109.542 C259.624,109.542 263.542,105.624 263.542,100.792 Z M291.25,111 C291.25,125.498 279.498,137.25 265,137.25 C250.502,137.25 238.75,125.498 238.75,111 C238.75,96.502 250.502,84.75 265,84.75 C279.498,84.75 291.25,96.502 291.25,111 Z M297.083,111 C297.083,93.28 282.72,78.917 265,78.917 C247.28,78.917 232.917,93.28 232.917,111 C232.917,128.72 247.28,143.083 265,143.083 C282.72,143.083 297.083,128.72 297.083,111 Z" />
        </g>
        <g id="Regular-M" transform="translate(0,200)">
            <path d="M449.562,136.396 L475.43,110.528 C476.416,109.542 476.713,109.278 476.772,109.249 C476.741,109.264 476.705,109.279 476.666,109.291 C476.667,109.291 476.667,109.291 476.667,109.291 C476.628,109.279 476.593,109.264 476.562,109.249 C476.621,109.278 476.917,109.542 477.903,110.528 L490.369,122.994 C491.508,124.133 493.355,124.133 494.494,122.994 C495.633,121.855 495.633,120.008 494.494,118.869 L482.028,106.403 C480.44,104.815 480.018,104.44 479.093,103.994 C478.89,103.896 478.682,103.812 478.468,103.743 C477.298,103.363 476.036,103.363 474.864,103.743 C474.651,103.812 474.443,103.896 474.24,103.994 C473.315,104.44 472.893,104.815 471.306,106.403 L445.438,132.271 C444.299,133.41 444.299,135.257 445.438,136.396 C446.577,137.535 448.423,137.535 449.562,136.396 Z M457.708,100.792 C457.708,102.402 456.402,103.708 454.792,103.708 C453.181,103.708 451.875,102.402 451.875,100.792 C451.875,99.181 453.181,97.875 454.792,97.875 C456.402,97.875 457.708,99.181 457.708,100.792 Z M463.542,100.792 C463.542,95.959 459.624,92.042 454.792,92.042 C449.959,92.042 446.042,95.959 446.042,100.792 C446.042,105.624 449.959,109.542 454.792,109.542 C459.624,109.542 463.542,105.624 463.542,100.792 Z M491.25,111 C491.25,125.498 479.498,137.25 465,137.25 C450.502,137.25 438.75,125.498 438.75,111 C438.75,96.502 450.502,84.75 465,84.75 C479.498,84.75 491.25,96.502 491.25,111 Z M497.083,111 C497.083,93.28 482.72,78.917 465,78.917 C447.28,78.917 432.917,93.28 432.917,111 C432.917,128.72 447.28,143.083 465,143.083 C482.72,143.083 497.083,128.72 497.083,111 Z" />
        </g>
        <g id="Black-M" transform="translate(0,200)">
            <path d="M649.562,136.396 L675.43,110.528 C676.416,109.542 676.713,109.278 676.772,109.249 C676.741,109.264 676.705,109.279 676.666,109.291 C676.667,109.291 676.667,109.291 676.667,109.291 C676.628,109.279 676.593,109.264 676.562,109.249 C676.621,109.278 676.917,109.542 677.903,110.528 L690.369,122.994 C691.508,124.133 693.355,124.133 694.494,122.994 C695.633,121.855 695.633,120.008 694.494,118.869 L682.028,106.403 C680.44,104.815 680.018,104.44 679.093,103.994 C678.89,103.896 678.682,103.812 678.468,103.743 C677.298,103.363 676.036,103.363 674.864,103.743 C674.651,103.812 674.443,103.896 674.24,103.994 C673.315,104.44 672.893,104.815 671.306,106.403 L645.438,132.271 C644.299,133.41 644.299,135.257 645.438,136.396 C646.577,137.535 648.423,137.535 649.562,136.396 Z M657.708,100.792 C657.708,102.402 656.402,103.708 654.792,103.708 C653.181,103.708 651.875,102.402 651.875,100.792 C651.875,99.181 653.181,97.875 654.792,97.875 C656.403,97.875 657.708,99.181 657.708,100.792 Z M663.542,100.792 C663.542,95.959 659.624,92.042 654.792,92.042 C649.959,92.042 646.042,95.959 646.042,100.792 C646.042,105.624 649.959,109.542 654.792,109.542 C659.624,109.542 663.542,105.624 663.542,100.792 Z M691.25,111 C691.25,125.498 679.498,137.25 665,137.25 C650.502,137.25 638.75,125.498 638.75,111 C638.75,96.502 650.502,84.75 665,84.75 C679.498,84.75 691.25,96.502 691.25,111 Z M697.083,111 C697.083,93.28 682.72,78.917 665,78.917 C647.28,78.917 632.917,93.28 632.917,111 C632.917,128.72 647.28,143.083 665,143.083 C682.72,143.083 697.083,128.72 697.083,111 Z" />
        </g>
    </g>
</svg>