<?xml version="1.0" encoding="UTF-8"?>
<svg height="600" width="800" xmlns="http://www.w3.org/2000/svg" xmlns:xlink="http://www.w3.org/1999/xlink">
    <g id="Notes" font-family="LucidaGrande, 'Lucida Grande', sans-serif" font-size="13">
        <rect fill="white" height="600.0" width="800.0" x="0.0" y="0.0" />
        <g font-size="13">
            <text x="18.0" y="176.0">Small</text>
            <text x="18.0" y="376.0">Medium</text>
            <text x="18.0" y="576.0">Large</text>
        </g>
        <g font-size="9">
            <text x="250.0" y="30.0">Ultralight</text>
            <text x="450.0" y="30.0">Regular</text>
            <text x="650.0" y="30.0">Black</text>
            <text id="template-version" fill="#505050" text-anchor="end" x="785.0" y="575.0">Template v.3.0</text>
            <a href="https://github.com/swhitty/SwiftDraw">
                <text fill="#505050" text-anchor="end" x="785.0" y="590.0">https://github.com/swhitty/SwiftDraw</text>
            </a>
        </g>
    </g>
    <g id="Guides" stroke="rgb(39, 170, 225)" stroke-width="0.5">
        <path id="Capline-S" d="M18,76 l800,0" />
        <path id="H-reference" d="M85,145.755 L87.685,145.755 L113.369,79.287 L114.052,79.287 L114.052,76 L112.148,76 L85,145.755 Z M95.693,121.536 L130.996,121.536 L130.263,119.313 L96.474,119.313 L95.693,121.536 Z M139.15,145.755 L141.787,145.755 L114.638,76 L113.466,76 L113.466,79.287 L139.15,145.755 Z" stroke="none" transform="translate(0,200)" />
        <path id="Baseline-S" d="M18,146 l800,0" />
        <path id="left-margin-Ultralight-M" d="M230,256 l0,110" />
        <path id="right-margin-Ultralight-M" d="M300,256 l0,110" />
        <path id="left-margin-Regular-M" d="M430,256 l0,110" />
        <path id="right-margin-Regular-M" d="M500,256 l0,110" />
        <path id="left-margin-Black-M" d="M630,256 l0,110" />
        <path id="right-margin-Black-M" d="M700,256 l0,110" />
        <path id="Capline-M" d="M18,276 l800,0" />
        <path id="Baseline-M" d="M18,346 l800,0" />
        <path id="Capline-L" d="M18,476 l800,0" />
        <path id="Baseline-L" d="M18,546 l800,0" />
    </g>
    <g id="Symbols">
        <g id="Ultralight-M" transform="translate(0,200)">
            <path d="M277.098,81.829 L294.171,98.902 C295.504,100.236 297.666,100.236 299,98.902 C300.333,97.569 300.333,95.407 299,94.073 L281.927,77 C280.593,75.667 278.431,75.667 277.098,77 C275.764,78.334 275.764,80.496 277.098,81.829 Z M294.171,77 L277.098,94.073 C275.764,95.407 275.764,97.569 277.098,98.902 C278.431,100.236 280.593,100.236 281.927,98.902 L299,81.829 C300.333,80.496 300.333,78.334 299,77 C297.666,75.667 295.504,75.667 294.171,77 Z M265.854,77.707 L249.805,77.707 C241.948,77.707 240.081,77.86 237.458,79.196 C234.888,80.506 232.798,82.595 231.489,85.165 C230.153,87.788 230,89.655 230,97.512 L230,126.195 C230,134.052 230.153,135.919 231.489,138.542 C232.798,141.112 234.888,143.202 237.458,144.511 C240.081,145.847 241.948,146 249.805,146 L281.22,146 C285.571,146 286.609,145.953 288.167,145.536 C292.883,144.273 296.566,140.59 297.828,135.874 C298.245,134.316 298.293,133.278 298.293,128.927 C298.293,127.041 296.764,125.512 294.878,125.512 C292.992,125.512 291.463,127.041 291.463,128.927 C291.463,132.515 291.424,133.39 291.231,134.108 C290.6,136.466 288.758,138.307 286.401,138.939 C285.683,139.131 284.807,139.171 281.22,139.171 L249.805,139.171 C243.32,139.171 241.771,139.044 240.558,138.426 C239.273,137.772 238.228,136.727 237.574,135.442 C236.956,134.229 236.829,132.68 236.829,126.195 L236.829,97.512 C236.829,91.028 236.956,89.478 237.574,88.265 C238.228,86.98 239.273,85.936 240.558,85.281 C241.771,84.663 243.32,84.537 249.805,84.537 L265.854,84.537 C267.74,84.537 269.268,83.008 269.268,81.122 C269.268,79.236 267.74,77.707 265.854,77.707 Z M255.61,99.902 C255.61,101.788 254.081,103.317 252.195,103.317 C250.309,103.317 248.78,101.788 248.78,99.902 C248.78,98.017 250.309,96.488 252.195,96.488 C254.081,96.488 255.61,98.017 255.61,99.902 Z M262.439,99.902 C262.439,94.245 257.853,89.659 252.195,89.659 C246.538,89.659 241.951,94.245 241.951,99.902 C241.951,105.56 246.538,110.146 252.195,110.146 C257.853,110.146 262.439,105.56 262.439,99.902 Z M272.059,109.047 L243.175,135.306 C240.059,138.14 239.778,138.444 239.569,140.306 C239.383,141.972 240.022,143.62 241.279,144.724 C242.685,145.962 243.121,146 247.312,146 L279.365,146 C286.1,146 287.701,145.887 290.011,144.898 C293.24,143.517 295.813,140.944 297.194,137.714 C298.183,135.405 298.296,133.802 298.296,127.069 C298.296,124.694 298.269,124.079 298.025,123.039 C297.684,121.586 297.03,120.226 296.109,119.054 C295.97,118.877 295.826,118.707 295.672,118.54 C295.106,117.925 294.699,117.58 293.135,116.326 L283.581,108.685 C281.499,107.021 280.955,106.649 279.657,106.312 C278.39,105.988 277.07,106.031 275.84,106.432 C275.636,106.497 275.426,106.579 275.221,106.672 C274.231,107.122 273.81,107.465 272.068,109.042 L274.36,111.574 L274.36,108.159 L274.356,108.159 C273.507,108.159 272.688,108.476 272.059,109.047 Z M276.653,114.1 L274.356,111.574 L274.356,114.988 L274.36,114.988 C275.207,114.988 276.023,114.674 276.651,114.105 C277.709,113.147 278,112.91 278.048,112.889 C278.017,112.903 277.981,112.917 277.943,112.929 C277.953,112.925 277.953,112.925 277.953,112.925 C277.886,112.908 278.167,113.1 279.316,114.019 L288.866,121.657 C290.096,122.643 290.417,122.915 290.647,123.165 C290.682,123.203 290.712,123.238 290.738,123.272 C291.045,123.662 291.263,124.115 291.376,124.599 C291.449,124.909 291.467,125.313 291.467,127.069 C291.467,132.622 291.373,133.96 290.916,135.026 C290.225,136.642 288.938,137.929 287.324,138.62 C286.256,139.077 284.92,139.171 279.365,139.171 L247.312,139.171 C245.924,139.171 245.452,139.163 245.077,139.13 C245.111,139.133 245.339,139.2 245.788,139.595 C246.204,139.961 246.417,140.51 246.356,141.065 C246.288,141.666 246.164,141.868 246.141,141.893 C246.397,141.616 246.735,141.299 247.769,140.358 L276.653,114.1 Z" />
        </g>
        <g id="Regular-M" transform="translate(0,200)">
            <path d="M477.098,81.829 L494.171,98.902 C495.504,100.236 497.666,100.236 499,98.902 C500.333,97.569 500.333,95.407 499,94.073 L481.927,77 C480.593,75.667 478.431,75.667 477.098,77 C475.764,78.334 475.764,80.496 477.098,81.829 Z M494.171,77 L477.098,94.073 C475.764,95.407 475.764,97.569 477.098,98.902 C478.431,100.236 480.593,100.236 481.927,98.902 L499,81.829 C500.333,80.496 500.333,78.334 499,77 C497.666,75.667 495.504,75.667 494.171,77 Z M465.854,77.707 L449.805,77.707 C441.948,77.707 440.081,77.86 437.458,79.196 C434.888,80.506 432.798,82.595 431.489,85.165 C430.153,87.788 430,89.655 430,97.512 L430,126.195 C430,134.052 430.153,135.919 431.489,138.542 C432.798,141.112 434.888,143.202 437.458,144.511 C440.081,145.847 441.948,146 449.805,146 L481.22,146 C485.571,146 486.609,145.953 488.167,145.536 C492.883,144.273 496.566,140.59 497.828,135.874 C498.245,134.316 498.293,133.278 498.293,128.927 C498.293,127.041 496.764,125.512 494.878,125.512 C492.992,125.512 491.463,127.041 491.463,128.927 C491.463,132.515 491.424,133.39 491.231,134.108 C490.6,136.466 488.758,138.307 486.401,138.939 C485.683,139.131 484.807,139.171 481.22,139.171 L449.805,139.171 C443.32,139.171 441.771,139.044 440.558,138.426 C439.273,137.772 438.228,136.727 437.574,135.442 C436.956,134.229 436.829,132.68 436.829,126.195 L436.829,97.512 C436.829,91.028 436.956,89.478 437.574,88.265 C438.228,86.98 439.273,85.936 440.558,85.281 C441.771,84.663 443.32,84.537 449.805,84.537 L465.854,84.537 C467.74,84.537 469.268,83.008 469.268,81.122 C469.268,79.236 467.74,77.707 465.854,77.707 Z M455.61,99.902 C455.61,101.788 454.081,103.317 452.195,103.317 C450.309,103.317 448.78,101.788 448.78,99.902 C448.78,98.017 450.309,96.488 452.195,96.488 C454.081,96.488 455.61,98.017 455.61,99.902 Z M462.439,99.902 C462.439,94.245 457.853,89.659 452.195,89.659 C446.538,89.659 441.951,94.245 441.951,99.902 C441.951,105.56 446.538,110.146 452.195,110.146 C457.853,110.146 462.439,105.56 462.439,99.902 Z M472.059,109.047 L443.175,135.306 C440.059,138.14 439.778,138.444 439.569,140.306 C439.383,141.972 440.022,143.62 441.279,144.724 C442.685,145.962 443.121,146 447.312,146 L479.365,146 C486.1,146 487.701,145.887 490.011,144.898 C493.24,143.517 495.813,140.944 497.194,137.714 C498.183,135.405 498.296,133.802 498.296,127.069 C498.296,124.694 498.269,124.079 498.025,123.039 C497.684,121.586 497.03,120.226 496.109,119.054 C495.97,118.877 495.826,118.707 495.672,118.54 C495.106,117.925 494.699,117.58 493.135,116.326 L483.581,108.685 C481.499,107.021 480.955,106.649 479.657,106.312 C478.39,105.988 477.07,106.031 475.84,106.432 C475.636,106.497 475.426,106.579 475.221,106.672 C474.231,107.122 473.81,107.465 472.068,109.042 L474.36,111.574 L474.36,108.159 L474.356,108.159 C473.507,108.159 472.688,108.476 472.059,109.047 Z M476.653,114.1 L474.356,111.574 L474.356,114.988 L474.36,114.988 C475.207,114.988 476.023,114.674 476.651,114.105 C477.709,113.147 478,112.91 478.048,112.889 C478.017,112.903 477.981,112.917 477.943,112.929 C477.953,112.925 477.953,112.925 477.953,112.925 C477.886,112.908 478.167,113.1 479.316,114.019 L488.866,121.657 C490.096,122.643 490.417,122.915 490.647,123.165 C490.682,123.203 490.712,123.238 490.738,123.272 C491.045,123.662 491.263,124.115 491.376,124.599 C491.449,124.909 491.467,125.313 491.467,127.069 C491.467,132.622 491.373,133.96 490.916,135.026 C490.225,136.642 488.938,137.929 487.324,138.62 C486.256,139.077 484.92,139.171 479.365,139.171 L447.312,139.171 C445.924,139.171 445.452,139.163 445.077,139.13 C445.111,139.133 445.339,139.2 445.788,139.595 C446.204,139.961 446.417,140.51 446.356,141.065 C446.288,141.666 446.164,141.868 446.141,141.893 C446.397,141.616 446.735,141.299 447.769,140.358 L476.653,114.1 Z" />
        </g>
        <g id="Black-M" transform="translate(0,200)">
            <path d="M677.098,81.829 L694.171,98.902 C695.504,100.236 697.666,100.236 699,98.902 C700.333,97.569 700.333,95.407 699,94.073 L681.927,77 C680.593,75.667 678.431,75.667 677.098,77 C675.764,78.334 675.764,80.496 677.098,81.829 Z M694.171,77 L677.098,94.073 C675.764,95.407 675.764,97.569 677.098,98.902 C678.431,100.236 680.593,100.236 681.927,98.902 L699,81.829 C700.333,80.496 700.333,78.334 699,77 C697.666,75.667 695.504,75.667 694.171,77 Z M665.854,77.707 L649.805,77.707 C641.948,77.707 640.081,77.86 637.458,79.196 C634.888,80.506 632.798,82.595 631.489,85.165 C630.153,87.788 630,89.655 630,97.512 L630,126.195 C630,134.052 630.153,135.919 631.489,138.542 C632.798,141.112 634.888,143.202 637.458,144.511 C640.081,145.847 641.948,146 649.805,146 L681.219,146 C685.571,146 686.609,145.953 688.167,145.536 C692.883,144.273 696.566,140.59 697.828,135.874 C698.245,134.316 698.293,133.278 698.293,128.927 C698.293,127.041 696.764,125.512 694.878,125.512 C692.992,125.512 691.463,127.041 691.463,128.927 C691.463,132.515 691.424,133.39 691.231,134.108 C690.6,136.466 688.758,138.307 686.401,138.939 C685.683,139.131 684.807,139.171 681.219,139.171 L649.805,139.171 C643.32,139.171 641.771,139.044 640.558,138.426 C639.273,137.772 638.228,136.727 637.574,135.442 C636.956,134.229 636.829,132.68 636.829,126.195 L636.829,97.512 C636.829,91.028 636.956,89.478 637.574,88.265 C638.228,86.98 639.273,85.936 640.558,85.281 C641.771,84.663 643.32,84.537 649.805,84.537 L665.854,84.537 C667.74,84.537 669.268,83.008 669.268,81.122 C669.268,79.236 667.74,77.707 665.854,77.707 Z M655.61,99.902 C655.61,101.788 654.081,103.317 652.195,103.317 C650.309,103.317 648.781,101.788 648.781,99.902 C648.781,98.017 650.309,96.488 652.195,96.488 C654.081,96.488 655.61,98.017 655.61,99.902 Z M662.439,99.902 C662.439,94.245 657.853,89.659 652.195,89.659 C646.538,89.659 641.951,94.245 641.951,99.902 C641.951,105.56 646.538,110.146 652.195,110.146 C657.853,110.146 662.439,105.56 662.439,99.902 Z M672.059,109.047 L643.175,135.306 C640.059,138.14 639.778,138.444 639.569,140.306 C639.383,141.972 640.022,143.62 641.279,144.724 C642.685,145.962 643.121,146 647.312,146 L679.365,146 C686.1,146 687.701,145.887 690.011,144.898 C693.24,143.517 695.813,140.944 697.194,137.714 C698.183,135.405 698.296,133.802 698.296,127.069 C698.296,124.694 698.269,124.079 698.025,123.039 C697.684,121.586 697.03,120.226 696.109,119.054 C695.97,118.877 695.826,118.707 695.672,118.54 C695.106,117.925 694.699,117.58 693.135,116.326 L683.581,108.685 C681.499,107.021 680.955,106.649 679.657,106.312 C678.39,105.988 677.07,106.031 675.84,106.432 C675.636,106.497 675.426,106.579 675.221,106.672 C674.231,107.122 673.81,107.465 672.068,109.042 L674.359,111.574 L674.359,108.159 L674.356,108.159 C673.507,108.159 672.688,108.476 672.059,109.047 Z M676.653,114.1 L674.356,111.574 L674.356,114.988 L674.359,114.988 C675.206,114.988 676.023,114.674 676.651,114.105 C677.709,113.147 678,112.91 678.048,112.889 C678.017,112.903 677.981,112.917 677.943,112.929 C677.953,112.925 677.953,112.925 677.953,112.925 C677.886,112.908 678.167,113.1 679.316,114.019 L688.866,121.657 C690.096,122.643 690.417,122.915 690.647,123.165 C690.682,123.203 690.712,123.238 690.738,123.272 C691.045,123.662 691.263,124.115 691.376,124.599 C691.449,124.909 691.467,125.313 691.467,127.069 C691.467,132.622 691.373,133.96 690.916,135.026 C690.225,136.642 688.938,137.929 687.324,138.62 C686.256,139.077 684.92,139.171 679.365,139.171 L647.312,139.171 C645.924,139.171 645.453,139.163 645.077,139.13 C645.111,139.133 645.339,139.2 645.788,139.595 C646.204,139.961 646.417,140.51 646.356,141.065 C646.288,141.666 646.164,141.868 646.141,141.893 C646.397,141.616 646.735,141.299 647.769,140.358 L676.653,114.1 Z" />
        </g>
    </g>
</svg>