<?xml version="1.0" encoding="UTF-8"?>
<svg height="600" width="800" xmlns="http://www.w3.org/2000/svg" xmlns:xlink="http://www.w3.org/1999/xlink">
    <g id="Notes" font-family="LucidaGrande, 'Lucida Grande', sans-serif" font-size="13">
        <rect fill="white" height="600.0" width="800.0" x="0.0" y="0.0" />
        <g font-size="13">
            <text x="18.0" y="176.0">Small</text>
            <text x="18.0" y="376.0">Medium</text>
            <text x="18.0" y="576.0">Large</text>
        </g>
        <g font-size="9">
            <text x="250.0" y="30.0">Ultralight</text>
            <text x="450.0" y="30.0">Regular</text>
            <text x="650.0" y="30.0">Black</text>
            <text id="template-version" fill="#505050" text-anchor="end" x="785.0" y="575.0">Template v.3.0</text>
            <a href="https://github.com/swhitty/SwiftDraw">
                <text fill="#505050" text-anchor="end" x="785.0" y="590.0">https://github.com/swhitty/SwiftDraw</text>
            </a>
        </g>
    </g>
    <g id="Guides" stroke="rgb(39, 170, 225)" stroke-width="0.5">
        <path id="Capline-S" d="M18,76 l800,0" />
        <path id="H-reference" d="M85,145.755 L87.685,145.755 L113.369,79.287 L114.052,79.287 L114.052,76 L112.148,76 L85,145.755 Z M95.693,121.536 L130.996,121.536 L130.263,119.313 L96.474,119.313 L95.693,121.536 Z M139.15,145.755 L141.787,145.755 L114.638,76 L113.466,76 L113.466,79.287 L139.15,145.755 Z" stroke="none" transform="translate(0,200)" />
        <path id="Baseline-S" d="M18,146 l800,0" />
        <path id="left-margin-Ultralight-M" d="M230,256 l0,110" />
        <path id="right-margin-Ultralight-M" d="M300,256 l0,110" />
        <path id="left-margin-Regular-M" d="M430,256 l0,110" />
        <path id="right-margin-Regular-M" d="M500,256 l0,110" />
        <path id="left-margin-Black-M" d="M630,256 l0,110" />
        <path id="right-margin-Black-M" d="M700,256 l0,110" />
        <path id="Capline-M" d="M18,276 l800,0" />
        <path id="Baseline-M" d="M18,346 l800,0" />
        <path id="Capline-L" d="M18,476 l800,0" />
        <path id="Baseline-L" d="M18,546 l800,0" />
    </g>
    <g id="Symbols">
        <g id="Ultralight-M" transform="translate(0,200)">
            <path d="M234.773,114.889 L245.534,114.889 C246.509,114.889 247.401,115.562 247.835,116.626 C249.347,120.328 252.444,122.667 255.83,122.667 L274.17,122.667 C277.556,122.667 280.653,120.328 282.165,116.626 C282.599,115.562 283.491,114.889 284.466,114.889 L295.227,114.889 C296.985,114.889 298.409,113.148 298.409,111 C298.409,108.852 296.985,107.111 295.227,107.111 L284.466,107.111 C281.081,107.111 277.983,109.45 276.471,113.152 C276.037,114.215 275.145,114.889 274.17,114.889 L255.83,114.889 C254.855,114.889 253.963,114.215 253.529,113.152 C252.017,109.45 248.919,107.111 245.534,107.111 L234.773,107.111 C233.015,107.111 231.591,108.852 231.591,111 C231.591,113.148 233.015,114.889 234.773,114.889 Z M255.35,83.778 L274.65,83.778 C278.51,83.778 279.423,83.847 280.265,84.203 C281.158,84.579 281.97,85.193 282.644,86 C282.857,86.254 283.058,86.556 283.285,86.968 C283.759,87.83 284.167,88.77 285.468,91.947 L292.359,108.796 C293.02,110.403 293.182,110.828 293.3,111.261 C293.43,111.729 293.519,112.192 293.575,112.68 C293.627,113.126 293.636,113.56 293.636,115.406 L293.636,123.444 C293.636,130.83 293.518,132.594 292.943,133.976 C292.333,135.439 291.359,136.629 290.162,137.374 C289.032,138.078 287.588,138.222 281.545,138.222 L248.455,138.222 C242.412,138.222 240.968,138.078 239.838,137.374 C238.641,136.629 237.667,135.439 237.057,133.976 C236.482,132.594 236.364,130.83 236.364,123.444 L236.364,115.406 C236.364,113.563 236.373,113.128 236.425,112.682 C236.481,112.193 236.571,111.728 236.693,111.29 C236.819,110.826 236.98,110.402 237.638,108.803 L244.533,91.945 C246.258,87.733 246.718,86.764 247.357,85.998 C248.03,85.192 248.842,84.579 249.733,84.202 C250.577,83.847 251.489,83.778 255.353,83.778 L255.353,79.889 L255.353,76 L255.35,76 L255.35,79.889 L255.35,83.778 Z M255.35,76 C251.107,76 251.107,83.778 255.35,83.778 L255.353,83.778 C259.595,83.778 259.595,76 255.353,76 C250.645,76 249.465,76.09 247.659,76.849 C245.872,77.604 244.249,78.831 242.902,80.444 C241.541,82.076 240.944,83.33 238.842,88.465 L231.949,105.318 C231.141,107.283 230.915,107.877 230.661,108.811 C230.416,109.689 230.235,110.629 230.124,111.595 C230.013,112.553 230,113.142 230,115.406 L230,123.444 C230,132.392 230.142,134.519 231.387,137.506 C232.607,140.434 234.554,142.813 236.949,144.304 C239.394,145.826 241.133,146 248.455,146 L281.545,146 C288.867,146 290.606,145.826 293.05,144.305 C295.446,142.813 297.393,140.434 298.613,137.507 C299.858,134.519 300,132.392 300,123.444 L300,115.406 C300,113.142 299.987,112.554 299.877,111.596 C299.765,110.63 299.585,109.695 299.332,108.783 C299.084,107.873 298.858,107.281 298.048,105.31 L291.159,88.467 C289.709,84.925 289.258,83.886 288.566,82.629 C288.107,81.794 287.633,81.084 287.095,80.441 C285.749,78.83 284.125,77.603 282.341,76.85 C280.539,76.09 279.359,76 274.65,76 L255.35,76 Z" />
        </g>
        <g id="Regular-M" transform="translate(0,200)">
            <path d="M434.773,114.889 L445.534,114.889 C446.509,114.889 447.401,115.562 447.835,116.626 C449.347,120.328 452.444,122.667 455.83,122.667 L474.17,122.667 C477.556,122.667 480.653,120.328 482.165,116.626 C482.599,115.562 483.491,114.889 484.466,114.889 L495.227,114.889 C496.985,114.889 498.409,113.148 498.409,111 C498.409,108.852 496.985,107.111 495.227,107.111 L484.466,107.111 C481.081,107.111 477.983,109.45 476.471,113.152 C476.037,114.215 475.145,114.889 474.17,114.889 L455.83,114.889 C454.855,114.889 453.963,114.215 453.529,113.152 C452.017,109.45 448.919,107.111 445.534,107.111 L434.773,107.111 C433.015,107.111 431.591,108.852 431.591,111 C431.591,113.148 433.015,114.889 434.773,114.889 Z M455.35,83.778 L474.65,83.778 C478.51,83.778 479.423,83.847 480.265,84.203 C481.158,84.579 481.97,85.193 482.644,86 C482.857,86.254 483.058,86.556 483.285,86.968 C483.759,87.83 484.167,88.77 485.468,91.947 L492.359,108.796 C493.02,110.403 493.182,110.828 493.3,111.261 C493.43,111.729 493.519,112.192 493.575,112.68 C493.627,113.126 493.636,113.56 493.636,115.406 L493.636,123.444 C493.636,130.83 493.518,132.594 492.943,133.976 C492.333,135.439 491.359,136.629 490.162,137.374 C489.032,138.078 487.588,138.222 481.545,138.222 L448.455,138.222 C442.412,138.222 440.968,138.078 439.838,137.374 C438.641,136.629 437.667,135.439 437.057,133.976 C436.482,132.594 436.364,130.83 436.364,123.444 L436.364,115.406 C436.364,113.563 436.373,113.128 436.425,112.682 C436.481,112.193 436.571,111.728 436.693,111.29 C436.819,110.826 436.98,110.402 437.638,108.803 L444.533,91.945 C446.258,87.733 446.718,86.764 447.357,85.998 C448.03,85.192 448.842,84.579 449.733,84.202 C450.577,83.847 451.489,83.778 455.353,83.778 L455.353,79.889 L455.353,76 L455.35,76 L455.35,79.889 L455.35,83.778 Z M455.35,76 C451.107,76 451.107,83.778 455.35,83.778 L455.353,83.778 C459.595,83.778 459.595,76 455.353,76 C450.645,76 449.465,76.09 447.659,76.849 C445.872,77.604 444.249,78.831 442.902,80.444 C441.541,82.076 440.944,83.33 438.841,88.465 L431.949,105.318 C431.141,107.283 430.915,107.877 430.661,108.811 C430.416,109.689 430.235,110.629 430.124,111.595 C430.013,112.553 430,113.142 430,115.406 L430,123.444 C430,132.392 430.142,134.519 431.387,137.506 C432.607,140.434 434.554,142.813 436.949,144.304 C439.394,145.826 441.133,146 448.455,146 L481.545,146 C488.867,146 490.606,145.826 493.05,144.305 C495.446,142.813 497.393,140.434 498.613,137.507 C499.858,134.519 500,132.392 500,123.444 L500,115.406 C500,113.142 499.987,112.554 499.877,111.596 C499.765,110.63 499.585,109.695 499.332,108.783 C499.084,107.873 498.858,107.281 498.048,105.31 L491.159,88.467 C489.709,84.925 489.258,83.886 488.566,82.629 C488.107,81.794 487.633,81.084 487.095,80.441 C485.749,78.83 484.125,77.603 482.341,76.85 C480.539,76.09 479.359,76 474.65,76 L455.35,76 Z" />
        </g>
        <g id="Black-M" transform="translate(0,200)">
            <path d="M634.773,114.889 L645.534,114.889 C646.509,114.889 647.401,115.562 647.835,116.626 C649.347,120.328 652.444,122.667 655.83,122.667 L674.17,122.667 C677.556,122.667 680.653,120.328 682.165,116.626 C682.599,115.562 683.491,114.889 684.466,114.889 L695.227,114.889 C696.985,114.889 698.409,113.148 698.409,111 C698.409,108.852 696.985,107.111 695.227,107.111 L684.466,107.111 C681.081,107.111 677.983,109.45 676.471,113.152 C676.037,114.215 675.145,114.889 674.17,114.889 L655.83,114.889 C654.855,114.889 653.963,114.215 653.529,113.152 C652.017,109.45 648.919,107.111 645.534,107.111 L634.773,107.111 C633.015,107.111 631.591,108.852 631.591,111 C631.591,113.148 633.015,114.889 634.773,114.889 Z M655.35,83.778 L674.65,83.778 C678.51,83.778 679.423,83.847 680.265,84.203 C681.158,84.579 681.97,85.193 682.644,86 C682.857,86.254 683.058,86.556 683.285,86.968 C683.759,87.83 684.167,88.77 685.468,91.947 L692.359,108.796 C693.02,110.403 693.182,110.828 693.3,111.261 C693.43,111.729 693.519,112.192 693.575,112.68 C693.627,113.126 693.636,113.56 693.636,115.406 L693.636,123.444 C693.636,130.83 693.518,132.594 692.943,133.976 C692.333,135.439 691.359,136.629 690.162,137.374 C689.032,138.078 687.588,138.222 681.545,138.222 L648.455,138.222 C642.412,138.222 640.968,138.078 639.838,137.374 C638.641,136.629 637.667,135.439 637.057,133.976 C636.482,132.594 636.364,130.83 636.364,123.444 L636.364,115.406 C636.364,113.563 636.373,113.128 636.425,112.682 C636.481,112.193 636.571,111.728 636.693,111.29 C636.819,110.826 636.98,110.402 637.638,108.803 L644.533,91.945 C646.258,87.733 646.718,86.764 647.357,85.998 C648.03,85.192 648.842,84.579 649.733,84.202 C650.577,83.847 651.489,83.778 655.353,83.778 L655.353,79.889 L655.353,76 L655.35,76 L655.35,79.889 L655.35,83.778 Z M655.35,76 C651.107,76 651.107,83.778 655.35,83.778 L655.353,83.778 C659.595,83.778 659.595,76 655.353,76 C650.645,76 649.465,76.09 647.659,76.849 C645.872,77.604 644.249,78.831 642.902,80.444 C641.541,82.076 640.944,83.33 638.841,88.465 L631.949,105.318 C631.141,107.283 630.915,107.877 630.661,108.811 C630.416,109.689 630.235,110.629 630.124,111.595 C630.013,112.553 630,113.142 630,115.406 L630,123.444 C630,132.392 630.142,134.519 631.387,137.506 C632.607,140.434 634.554,142.813 636.949,144.304 C639.394,145.826 641.133,146 648.455,146 L681.545,146 C688.867,146 690.606,145.826 693.05,144.305 C695.446,142.813 697.393,140.434 698.613,137.507 C699.858,134.519 700,132.392 700,123.444 L700,115.406 C700,113.142 699.987,112.554 699.877,111.596 C699.765,110.63 699.585,109.695 699.332,108.783 C699.084,107.873 698.858,107.281 698.048,105.31 L691.159,88.467 C689.709,84.925 689.258,83.886 688.566,82.629 C688.107,81.794 687.633,81.084 687.095,80.441 C685.749,78.83 684.125,77.603 682.341,76.85 C680.539,76.09 679.359,76 674.65,76 L655.35,76 Z" />
        </g>
    </g>
</svg>