<?xml version="1.0" encoding="UTF-8"?>
<svg height="600" width="800" xmlns="http://www.w3.org/2000/svg" xmlns:xlink="http://www.w3.org/1999/xlink">
    <g id="Notes" font-family="LucidaGrande, 'Lucida Grande', sans-serif" font-size="13">
        <rect fill="white" height="600.0" width="800.0" x="0.0" y="0.0" />
        <g font-size="13">
            <text x="18.0" y="176.0">Small</text>
            <text x="18.0" y="376.0">Medium</text>
            <text x="18.0" y="576.0">Large</text>
        </g>
        <g font-size="9">
            <text x="250.0" y="30.0">Ultralight</text>
            <text x="450.0" y="30.0">Regular</text>
            <text x="650.0" y="30.0">Black</text>
            <text id="template-version" fill="#505050" text-anchor="end" x="785.0" y="575.0">Template v.3.0</text>
            <a href="https://github.com/swhitty/SwiftDraw">
                <text fill="#505050" text-anchor="end" x="785.0" y="590.0">https://github.com/swhitty/SwiftDraw</text>
            </a>
        </g>
    </g>
    <g id="Guides" stroke="rgb(39, 170, 225)" stroke-width="0.5">
        <path id="Capline-S" d="M18,76 l800,0" />
        <path id="H-reference" d="M85,145.755 L87.685,145.755 L113.369,79.287 L114.052,79.287 L114.052,76 L112.148,76 L85,145.755 Z M95.693,121.536 L130.996,121.536 L130.263,119.313 L96.474,119.313 L95.693,121.536 Z M139.15,145.755 L141.787,145.755 L114.638,76 L113.466,76 L113.466,79.287 L139.15,145.755 Z" stroke="none" transform="translate(0,200)" />
        <path id="Baseline-S" d="M18,146 l800,0" />
        <path id="left-margin-Ultralight-M" d="M230,256 l0,110" />
        <path id="right-margin-Ultralight-M" d="M300,256 l0,110" />
        <path id="left-margin-Regular-M" d="M430,256 l0,110" />
        <path id="right-margin-Regular-M" d="M500,256 l0,110" />
        <path id="left-margin-Black-M" d="M630,256 l0,110" />
        <path id="right-margin-Black-M" d="M700,256 l0,110" />
        <path id="Capline-M" d="M18,276 l800,0" />
        <path id="Baseline-M" d="M18,346 l800,0" />
        <path id="Capline-L" d="M18,476 l800,0" />
        <path id="Baseline-L" d="M18,546 l800,0" />
    </g>
    <g id="Symbols">
        <g id="Ultralight-M" transform="translate(0,200)">
            <path d="M267.917,122.667 L267.917,111 C267.917,109.389 266.611,108.083 265,108.083 C263.389,108.083 262.083,109.389 262.083,111 L262.083,122.667 C262.083,124.277 263.389,125.583 265,125.583 C266.611,125.583 267.917,124.277 267.917,122.667 Z M265,102.25 L265.029,102.25 C266.64,102.25 267.946,100.944 267.946,99.333 C267.946,97.723 266.64,96.417 265.029,96.417 L265,96.417 C263.389,96.417 262.083,97.723 262.083,99.333 C262.083,100.944 263.389,102.25 265,102.25 Z M232.917,100.859 L232.917,121.141 C232.917,122.306 232.931,122.622 233.081,123.237 C233.221,123.823 233.457,124.394 233.778,124.917 C233.861,125.049 233.861,125.049 233.95,125.18 C234.239,125.592 234.415,125.78 235.13,126.499 L249.495,140.861 C250.313,141.68 250.543,141.89 251.07,142.217 C251.62,142.547 252.177,142.778 252.759,142.921 C253.391,143.069 253.703,143.083 254.859,143.083 L275.141,143.083 C276.306,143.083 276.622,143.069 277.237,142.919 C277.823,142.779 278.394,142.543 278.918,142.221 C279.049,142.139 279.049,142.139 279.18,142.05 C279.592,141.761 279.78,141.585 280.499,140.87 L294.861,126.505 C295.565,125.802 295.753,125.601 296.043,125.192 C296.132,125.064 296.132,125.064 296.217,124.93 C296.546,124.394 296.782,123.823 296.925,123.225 C297.069,122.609 297.083,122.297 297.083,121.141 L297.083,100.859 C297.083,99.694 297.069,99.378 296.919,98.763 C296.779,98.177 296.543,97.606 296.221,97.082 C296.139,96.951 296.139,96.951 296.05,96.82 C295.761,96.408 295.585,96.22 294.87,95.501 L280.502,81.141 C279.799,80.438 279.598,80.25 279.189,79.96 C279.061,79.871 279.061,79.871 278.927,79.786 C278.391,79.457 277.82,79.221 277.223,79.078 C276.624,78.931 276.31,78.917 275.141,78.917 L254.859,78.917 C253.694,78.917 253.378,78.931 252.763,79.081 C252.177,79.221 251.606,79.457 251.083,79.778 C250.951,79.861 250.951,79.861 250.82,79.95 C250.408,80.239 250.22,80.415 249.501,81.13 L235.141,95.498 C234.323,96.316 234.113,96.546 233.786,97.073 C233.457,97.609 233.221,98.18 233.078,98.777 C232.931,99.376 232.917,99.69 232.917,100.859 Z M238.75,100.859 C238.75,100.243 238.756,100.118 238.747,100.152 C238.752,100.134 238.752,100.134 238.752,100.134 C238.733,100.164 238.822,100.067 239.267,99.622 L253.62,85.26 C254.039,84.844 254.149,84.741 254.167,84.728 C254.149,84.741 254.149,84.741 254.126,84.755 C254.131,84.752 254.131,84.752 254.131,84.752 C254.115,84.756 254.239,84.75 254.859,84.75 L275.141,84.75 C275.757,84.75 275.882,84.756 275.848,84.747 C275.866,84.752 275.866,84.752 275.866,84.752 C275.833,84.731 275.833,84.731 275.818,84.721 C275.841,84.737 275.956,84.844 276.378,85.267 L290.74,99.62 C291.156,100.039 291.259,100.149 291.272,100.167 C291.259,100.149 291.259,100.149 291.245,100.126 C291.249,100.132 291.248,100.131 291.248,100.131 C291.244,100.115 291.25,100.239 291.25,100.859 L291.25,121.141 C291.25,121.77 291.244,121.898 291.248,121.88 C291.251,121.869 291.251,121.868 291.252,121.868 C291.272,121.836 291.272,121.836 291.282,121.821 C291.266,121.844 291.158,121.958 290.736,122.381 L276.38,136.739 C275.961,137.156 275.851,137.259 275.833,137.272 C275.851,137.259 275.851,137.259 275.874,137.245 C275.868,137.249 275.869,137.248 275.87,137.248 C275.885,137.244 275.761,137.25 275.141,137.25 L254.859,137.25 C254.23,137.25 254.102,137.244 254.12,137.248 C254.139,137.253 254.125,137.247 254.108,137.237 C254.161,137.27 254.064,137.181 253.619,136.736 L239.261,122.38 C238.844,121.961 238.741,121.851 238.728,121.833 C238.741,121.851 238.741,121.851 238.755,121.874 C238.752,121.869 238.752,121.869 238.752,121.869 C238.756,121.885 238.75,121.761 238.75,121.141 L238.75,100.859 Z" />
        </g>
        <g id="Regular-M" transform="translate(0,200)">
            <path d="M467.917,122.667 L467.917,111 C467.917,109.389 466.611,108.083 465,108.083 C463.389,108.083 462.083,109.389 462.083,111 L462.083,122.667 C462.083,124.277 463.389,125.583 465,125.583 C466.611,125.583 467.917,124.277 467.917,122.667 Z M465,102.25 L465.029,102.25 C466.64,102.25 467.946,100.944 467.946,99.333 C467.946,97.723 466.64,96.417 465.029,96.417 L465,96.417 C463.389,96.417 462.083,97.723 462.083,99.333 C462.083,100.944 463.389,102.25 465,102.25 Z M432.917,100.859 L432.917,121.141 C432.917,122.306 432.931,122.622 433.081,123.237 C433.221,123.823 433.457,124.394 433.778,124.917 C433.861,125.049 433.861,125.049 433.95,125.18 C434.239,125.592 434.415,125.78 435.13,126.499 L449.495,140.861 C450.313,141.68 450.543,141.89 451.07,142.217 C451.62,142.547 452.177,142.778 452.759,142.921 C453.391,143.069 453.703,143.083 454.859,143.083 L475.141,143.083 C476.306,143.083 476.622,143.069 477.237,142.919 C477.823,142.779 478.394,142.543 478.918,142.221 C479.049,142.139 479.049,142.139 479.18,142.05 C479.592,141.761 479.78,141.585 480.499,140.87 L494.861,126.505 C495.565,125.802 495.753,125.601 496.043,125.192 C496.132,125.064 496.132,125.064 496.217,124.93 C496.546,124.394 496.782,123.823 496.925,123.225 C497.069,122.609 497.083,122.297 497.083,121.141 L497.083,100.859 C497.083,99.694 497.069,99.378 496.919,98.763 C496.779,98.177 496.543,97.606 496.221,97.082 C496.139,96.951 496.139,96.951 496.05,96.82 C495.761,96.408 495.585,96.22 494.87,95.501 L480.502,81.141 C479.799,80.438 479.598,80.25 479.189,79.96 C479.061,79.871 479.061,79.871 478.927,79.786 C478.391,79.457 477.82,79.221 477.223,79.078 C476.624,78.931 476.31,78.917 475.141,78.917 L454.859,78.917 C453.694,78.917 453.378,78.931 452.763,79.081 C452.177,79.221 451.606,79.457 451.083,79.778 C450.951,79.861 450.951,79.861 450.82,79.95 C450.408,80.239 450.22,80.415 449.501,81.13 L435.141,95.498 C434.323,96.316 434.113,96.546 433.786,97.073 C433.457,97.609 433.221,98.18 433.078,98.777 C432.931,99.376 432.917,99.69 432.917,100.859 Z M438.75,100.859 C438.75,100.243 438.756,100.118 438.747,100.152 C438.752,100.134 438.752,100.134 438.752,100.134 C438.733,100.164 438.822,100.067 439.267,99.622 L453.62,85.26 C454.039,84.844 454.149,84.741 454.167,84.728 C454.149,84.741 454.149,84.741 454.126,84.755 C454.131,84.752 454.131,84.752 454.131,84.752 C454.115,84.756 454.239,84.75 454.859,84.75 L475.141,84.75 C475.757,84.75 475.882,84.756 475.848,84.747 C475.866,84.752 475.866,84.752 475.866,84.752 C475.833,84.731 475.833,84.731 475.818,84.721 C475.841,84.737 475.956,84.844 476.378,85.267 L490.74,99.62 C491.156,100.039 491.259,100.149 491.272,100.167 C491.259,100.149 491.259,100.149 491.245,100.126 C491.249,100.132 491.248,100.131 491.248,100.131 C491.244,100.115 491.25,100.239 491.25,100.859 L491.25,121.141 C491.25,121.77 491.244,121.898 491.248,121.88 C491.251,121.869 491.251,121.868 491.252,121.868 C491.272,121.836 491.272,121.836 491.282,121.821 C491.266,121.844 491.158,121.958 490.736,122.381 L476.38,136.739 C475.961,137.156 475.851,137.259 475.833,137.272 C475.851,137.259 475.851,137.259 475.874,137.245 C475.868,137.249 475.869,137.248 475.87,137.248 C475.885,137.244 475.761,137.25 475.141,137.25 L454.859,137.25 C454.23,137.25 454.102,137.244 454.12,137.248 C454.139,137.253 454.125,137.247 454.108,137.237 C454.161,137.27 454.064,137.181 453.619,136.736 L439.261,122.38 C438.844,121.961 438.741,121.851 438.728,121.833 C438.741,121.851 438.741,121.851 438.755,121.874 C438.752,121.869 438.752,121.869 438.752,121.869 C438.756,121.885 438.75,121.761 438.75,121.141 L438.75,100.859 Z" />
        </g>
        <g id="Black-M" transform="translate(0,200)">
            <path d="M667.917,122.667 L667.917,111 C667.917,109.389 666.611,108.083 665,108.083 C663.389,108.083 662.083,109.389 662.083,111 L662.083,122.667 C662.083,124.277 663.389,125.583 665,125.583 C666.611,125.583 667.917,124.277 667.917,122.667 Z M665,102.25 L665.029,102.25 C666.64,102.25 667.946,100.944 667.946,99.333 C667.946,97.723 666.64,96.417 665.029,96.417 L665,96.417 C663.389,96.417 662.083,97.723 662.083,99.333 C662.083,100.944 663.389,102.25 665,102.25 Z M632.917,100.859 L632.917,121.141 C632.917,122.306 632.931,122.622 633.081,123.237 C633.221,123.823 633.457,124.394 633.778,124.917 C633.861,125.049 633.861,125.049 633.95,125.18 C634.239,125.592 634.415,125.78 635.13,126.499 L649.495,140.861 C650.313,141.68 650.543,141.89 651.07,142.217 C651.62,142.547 652.177,142.778 652.759,142.921 C653.391,143.069 653.703,143.083 654.859,143.083 L675.141,143.083 C676.307,143.083 676.622,143.069 677.237,142.919 C677.823,142.779 678.394,142.543 678.918,142.221 C679.049,142.139 679.049,142.139 679.18,142.05 C679.592,141.761 679.78,141.585 680.499,140.87 L694.861,126.505 C695.565,125.802 695.753,125.601 696.043,125.192 C696.132,125.064 696.132,125.064 696.217,124.93 C696.546,124.394 696.782,123.823 696.925,123.225 C697.069,122.609 697.083,122.297 697.083,121.141 L697.083,100.859 C697.083,99.694 697.069,99.378 696.919,98.763 C696.779,98.177 696.543,97.606 696.221,97.082 C696.139,96.951 696.139,96.951 696.05,96.82 C695.761,96.408 695.585,96.22 694.87,95.501 L680.502,81.141 C679.799,80.438 679.598,80.25 679.189,79.96 C679.061,79.871 679.061,79.871 678.927,79.786 C678.391,79.457 677.82,79.221 677.223,79.078 C676.624,78.931 676.31,78.917 675.141,78.917 L654.859,78.917 C653.693,78.917 653.378,78.931 652.763,79.081 C652.177,79.221 651.606,79.457 651.083,79.778 C650.951,79.861 650.951,79.861 650.82,79.95 C650.408,80.239 650.22,80.415 649.501,81.13 L635.141,95.498 C634.323,96.316 634.113,96.546 633.786,97.073 C633.457,97.609 633.221,98.18 633.078,98.777 C632.931,99.376 632.917,99.69 632.917,100.859 Z M638.75,100.859 C638.75,100.243 638.756,100.118 638.747,100.152 C638.752,100.134 638.752,100.134 638.752,100.134 C638.733,100.164 638.822,100.067 639.267,99.622 L653.62,85.26 C654.039,84.844 654.149,84.741 654.167,84.728 C654.149,84.741 654.149,84.741 654.126,84.755 C654.131,84.752 654.131,84.752 654.131,84.752 C654.115,84.756 654.239,84.75 654.859,84.75 L675.141,84.75 C675.757,84.75 675.882,84.756 675.848,84.747 C675.866,84.752 675.866,84.752 675.866,84.752 C675.833,84.731 675.833,84.731 675.818,84.721 C675.841,84.737 675.956,84.844 676.378,85.267 L690.74,99.62 C691.156,100.039 691.259,100.149 691.272,100.167 C691.259,100.149 691.259,100.149 691.245,100.126 C691.249,100.132 691.248,100.131 691.248,100.131 C691.244,100.115 691.25,100.239 691.25,100.859 L691.25,121.141 C691.25,121.77 691.244,121.898 691.248,121.88 C691.251,121.869 691.251,121.868 691.252,121.868 C691.272,121.836 691.272,121.836 691.282,121.821 C691.266,121.844 691.158,121.958 690.736,122.381 L676.38,136.739 C675.961,137.156 675.851,137.259 675.833,137.272 C675.851,137.259 675.851,137.259 675.874,137.245 C675.868,137.249 675.869,137.248 675.87,137.248 C675.885,137.244 675.761,137.25 675.141,137.25 L654.859,137.25 C654.23,137.25 654.102,137.244 654.12,137.248 C654.139,137.253 654.125,137.247 654.108,137.237 C654.161,137.27 654.064,137.181 653.62,136.736 L639.26,122.38 C638.844,121.961 638.741,121.851 638.728,121.833 C638.741,121.851 638.741,121.851 638.755,121.874 C638.752,121.869 638.752,121.869 638.752,121.869 C638.756,121.885 638.75,121.761 638.75,121.141 L638.75,100.859 Z" />
        </g>
    </g>
</svg>