<?xml version="1.0" encoding="UTF-8"?>
<svg height="600" width="800" xmlns="http://www.w3.org/2000/svg" xmlns:xlink="http://www.w3.org/1999/xlink">
    <g id="Notes" font-family="LucidaGrande, 'Lucida Grande', sans-serif" font-size="13">
        <rect fill="white" height="600.0" width="800.0" x="0.0" y="0.0" />
        <g font-size="13">
            <text x="18.0" y="176.0">Small</text>
            <text x="18.0" y="376.0">Medium</text>
            <text x="18.0" y="576.0">Large</text>
        </g>
        <g font-size="9">
            <text x="250.0" y="30.0">Ultralight</text>
            <text x="450.0" y="30.0">Regular</text>
            <text x="650.0" y="30.0">Black</text>
            <text id="template-version" fill="#505050" text-anchor="end" x="785.0" y="575.0">Template v.3.0</text>
            <a href="https://github.com/swhitty/SwiftDraw">
                <text fill="#505050" text-anchor="end" x="785.0" y="590.0">https://github.com/swhitty/SwiftDraw</text>
            </a>
        </g>
    </g>
    <g id="Guides" stroke="rgb(39, 170, 225)" stroke-width="0.5">
        <path id="Capline-S" d="M18,76 l800,0" />
        <path id="H-reference" d="M85,145.755 L87.685,145.755 L113.369,79.287 L114.052,79.287 L114.052,76 L112.148,76 L85,145.755 Z M95.693,121.536 L130.996,121.536 L130.263,119.313 L96.474,119.313 L95.693,121.536 Z M139.15,145.755 L141.787,145.755 L114.638,76 L113.466,76 L113.466,79.287 L139.15,145.755 Z" stroke="none" transform="translate(0,200)" />
        <path id="Baseline-S" d="M18,146 l800,0" />
        <path id="left-margin-Ultralight-M" d="M231.75,256 l0,110" />
        <path id="right-margin-Ultralight-M" d="M298.25,256 l0,110" />
        <path id="left-margin-Regular-M" d="M431.75,256 l0,110" />
        <path id="right-margin-Regular-M" d="M498.25,256 l0,110" />
        <path id="left-margin-Black-M" d="M631.75,256 l0,110" />
        <path id="right-margin-Black-M" d="M698.25,256 l0,110" />
        <path id="Capline-M" d="M18,276 l800,0" />
        <path id="Baseline-M" d="M18,346 l800,0" />
        <path id="Capline-L" d="M18,476 l800,0" />
        <path id="Baseline-L" d="M18,546 l800,0" />
    </g>
    <g id="Symbols">
        <g id="Ultralight-M" transform="translate(0,200)">
            <path d="M284.951,100.507 C284.956,97.717 283.902,95.04 282.023,93.071 C280.162,91.106 277.621,89.997 274.972,90 C273.136,90.002 271.649,91.571 271.65,93.504 C271.652,95.437 273.143,97.002 274.979,97 C275.858,96.999 276.702,97.367 277.323,98.023 C277.953,98.684 278.302,99.57 278.301,100.493 C278.297,102.426 279.783,103.996 281.619,104 C283.456,104.004 284.947,102.44 284.951,100.507 Z M274.976,125 C284.676,124.999 293.359,118.666 296.766,109.106 C300.173,99.546 297.591,88.764 290.284,82.047 C282.978,75.331 272.481,74.088 263.94,78.928 C255.399,83.769 250.605,93.678 251.91,103.795 C252.087,105.187 252.13,105.661 252.137,105.609 C252.134,105.627 252.157,105.556 252.193,105.492 C252.146,105.577 252.146,105.577 252.15,105.571 C252.164,105.545 251.984,105.752 251.274,106.499 L234.283,124.384 C233.481,125.228 233.266,125.469 232.936,125.959 C232.835,126.113 232.835,126.113 232.738,126.274 C232.363,126.918 232.094,127.603 231.931,128.319 C231.766,129.06 231.75,129.433 231.75,130.821 L231.75,136.9 C231.75,140.053 231.808,140.8 232.475,142.178 C233.112,143.495 234.13,144.566 235.381,145.237 C236.69,145.939 237.399,146 240.395,146 L248.375,146 C250.212,146 251.7,144.433 251.7,142.5 L251.7,135.5 L248.375,139 L255.025,139 C256.862,139 258.35,137.433 258.35,135.5 L258.35,128.5 L255.025,132 L261.675,132 C262.557,132 263.403,131.631 264.027,130.975 L269.28,125.445 C269.987,124.701 270.183,124.512 270.158,124.527 C270.153,124.53 270.153,124.53 270.147,124.534 C270.173,124.519 270.105,124.544 270.034,124.552 C270.077,124.547 270.515,124.592 271.852,124.78 C272.871,124.927 273.915,125 274.976,125 Z M274.976,118 C274.214,118 273.469,117.948 272.741,117.843 C270.37,117.51 270.056,117.477 269.192,117.609 C268.419,117.697 267.565,118.001 266.803,118.484 C266.864,118.447 266.864,118.447 266.838,118.462 C266.122,118.896 265.824,119.184 264.578,120.495 L259.324,126.025 L261.675,125 L255.025,125 C253.189,125 251.7,126.567 251.7,128.5 L251.7,135.5 L255.025,132 L248.375,132 C246.539,132 245.05,133.567 245.05,135.5 L245.05,142.5 L248.375,139 L240.395,139 C238.736,139 238.336,138.966 238.4,139 C238.4,139 238.4,139 238.4,139 C238.433,139.068 238.4,138.647 238.4,136.9 L238.4,130.821 C238.4,130.066 238.407,129.912 238.402,129.934 C238.399,129.948 238.399,129.948 238.399,129.948 C238.375,129.987 238.375,129.987 238.363,130.005 C238.382,129.977 238.504,129.84 238.986,129.333 L255.977,111.449 C257.226,110.133 257.499,109.819 257.912,109.065 C257.926,109.039 257.926,109.039 257.941,109.012 C258.35,108.3 258.638,107.402 258.736,106.471 C258.842,105.666 258.805,105.259 258.501,102.861 C257.568,95.627 260.992,88.549 267.092,85.092 C273.193,81.634 280.691,82.522 285.91,87.319 C291.129,92.117 292.973,99.818 290.54,106.647 C288.106,113.476 281.904,117.999 274.975,118 Z" />
        </g>
        <g id="Regular-M" transform="translate(0,200)">
            <path d="M484.951,100.507 C484.956,97.717 483.902,95.04 482.023,93.071 C480.162,91.106 477.621,89.997 474.972,90 C473.136,90.002 471.649,91.571 471.65,93.504 C471.652,95.437 473.143,97.002 474.979,97 C475.858,96.999 476.702,97.367 477.323,98.023 C477.953,98.684 478.302,99.57 478.301,100.493 C478.297,102.426 479.783,103.996 481.619,104 C483.456,104.004 484.947,102.44 484.951,100.507 Z M474.976,125 C484.676,124.999 493.359,118.666 496.766,109.106 C500.173,99.546 497.591,88.764 490.284,82.047 C482.978,75.331 472.481,74.088 463.94,78.928 C455.399,83.769 450.605,93.678 451.91,103.795 C452.087,105.187 452.13,105.661 452.137,105.609 C452.134,105.627 452.157,105.556 452.193,105.492 C452.146,105.577 452.146,105.577 452.15,105.571 C452.164,105.545 451.984,105.752 451.274,106.499 L434.283,124.384 C433.481,125.228 433.266,125.469 432.936,125.959 C432.835,126.113 432.835,126.113 432.738,126.274 C432.363,126.918 432.094,127.603 431.931,128.319 C431.766,129.06 431.75,129.433 431.75,130.821 L431.75,136.9 C431.75,140.053 431.808,140.8 432.475,142.178 C433.112,143.495 434.13,144.566 435.381,145.237 C436.69,145.939 437.4,146 440.395,146 L448.375,146 C450.212,146 451.7,144.433 451.7,142.5 L451.7,135.5 L448.375,139 L455.025,139 C456.862,139 458.35,137.433 458.35,135.5 L458.35,128.5 L455.025,132 L461.675,132 C462.557,132 463.403,131.631 464.027,130.975 L469.28,125.445 C469.987,124.701 470.183,124.512 470.158,124.527 C470.153,124.53 470.153,124.53 470.147,124.534 C470.173,124.519 470.105,124.544 470.034,124.552 C470.077,124.547 470.515,124.592 471.852,124.78 C472.871,124.927 473.915,125 474.976,125 Z M474.976,118 C474.214,118 473.469,117.948 472.741,117.843 C470.37,117.51 470.056,117.477 469.192,117.609 C468.419,117.697 467.565,118.001 466.803,118.484 C466.864,118.447 466.864,118.447 466.838,118.462 C466.122,118.896 465.824,119.184 464.578,120.495 L459.324,126.025 L461.675,125 L455.025,125 C453.189,125 451.7,126.567 451.7,128.5 L451.7,135.5 L455.025,132 L448.375,132 C446.539,132 445.05,133.567 445.05,135.5 L445.05,142.5 L448.375,139 L440.395,139 C438.736,139 438.336,138.966 438.4,139 C438.4,139 438.4,139 438.4,139 C438.433,139.068 438.4,138.647 438.4,136.9 L438.4,130.821 C438.4,130.066 438.407,129.912 438.402,129.934 C438.399,129.948 438.399,129.948 438.399,129.948 C438.375,129.987 438.375,129.987 438.363,130.005 C438.382,129.977 438.504,129.84 438.986,129.333 L455.977,111.449 C457.226,110.133 457.499,109.819 457.912,109.065 C457.926,109.039 457.926,109.039 457.941,109.012 C458.35,108.3 458.638,107.402 458.736,106.471 C458.842,105.666 458.805,105.259 458.501,102.861 C457.568,95.627 460.992,88.549 467.092,85.092 C473.193,81.634 480.691,82.522 485.91,87.319 C491.129,92.117 492.973,99.818 490.54,106.647 C488.106,113.476 481.904,117.999 474.975,118 Z" />
        </g>
        <g id="Black-M" transform="translate(0,200)">
            <path d="M684.951,100.507 C684.956,97.717 683.902,95.04 682.023,93.071 C680.162,91.106 677.621,89.997 674.972,90 C673.136,90.002 671.649,91.571 671.651,93.504 C671.652,95.437 673.143,97.002 674.979,97 C675.858,96.999 676.702,97.367 677.323,98.023 C677.953,98.684 678.302,99.57 678.301,100.493 C678.297,102.426 679.783,103.996 681.619,104 C683.456,104.004 684.947,102.44 684.951,100.507 Z M674.976,125 C684.676,124.999 693.359,118.666 696.766,109.106 C700.173,99.546 697.591,88.764 690.284,82.047 C682.978,75.331 672.481,74.088 663.94,78.928 C655.399,83.769 650.605,93.678 651.91,103.795 C652.087,105.187 652.13,105.661 652.137,105.609 C652.134,105.627 652.157,105.556 652.193,105.492 C652.146,105.577 652.146,105.577 652.15,105.571 C652.164,105.545 651.984,105.752 651.274,106.499 L634.283,124.384 C633.481,125.228 633.266,125.469 632.936,125.959 C632.835,126.113 632.835,126.113 632.738,126.274 C632.363,126.918 632.094,127.603 631.931,128.319 C631.766,129.06 631.75,129.433 631.75,130.821 L631.75,136.9 C631.75,140.053 631.808,140.8 632.475,142.178 C633.112,143.495 634.13,144.566 635.381,145.237 C636.69,145.939 637.399,146 640.395,146 L648.375,146 C650.212,146 651.7,144.433 651.7,142.5 L651.7,135.5 L648.375,139 L655.025,139 C656.862,139 658.35,137.433 658.35,135.5 L658.35,128.5 L655.025,132 L661.675,132 C662.557,132 663.403,131.631 664.027,130.975 L669.28,125.445 C669.987,124.701 670.183,124.512 670.158,124.527 C670.153,124.53 670.153,124.53 670.147,124.534 C670.173,124.519 670.105,124.544 670.034,124.552 C670.077,124.547 670.515,124.592 671.852,124.78 C672.871,124.927 673.915,125 674.976,125 Z M674.976,118 C674.214,118 673.469,117.948 672.741,117.843 C670.37,117.51 670.056,117.477 669.192,117.609 C668.419,117.697 667.565,118.001 666.803,118.484 C666.864,118.447 666.864,118.447 666.838,118.462 C666.122,118.896 665.823,119.184 664.578,120.495 L659.324,126.025 L661.675,125 L655.025,125 C653.189,125 651.7,126.567 651.7,128.5 L651.7,135.5 L655.025,132 L648.375,132 C646.539,132 645.05,133.567 645.05,135.5 L645.05,142.5 L648.375,139 L640.395,139 C638.736,139 638.336,138.966 638.4,139 C638.4,139 638.4,139 638.4,139 C638.433,139.068 638.4,138.647 638.4,136.9 L638.4,130.821 C638.4,130.066 638.407,129.912 638.402,129.934 C638.399,129.948 638.399,129.948 638.399,129.948 C638.375,129.987 638.375,129.987 638.363,130.005 C638.382,129.977 638.504,129.84 638.986,129.333 L655.977,111.449 C657.226,110.133 657.499,109.819 657.912,109.065 C657.926,109.039 657.926,109.039 657.941,109.012 C658.349,108.3 658.638,107.402 658.736,106.471 C658.842,105.666 658.805,105.259 658.501,102.861 C657.568,95.627 660.992,88.549 667.092,85.092 C673.193,81.634 680.691,82.522 685.91,87.319 C691.129,92.117 692.973,99.818 690.54,106.647 C688.106,113.476 681.904,117.999 674.975,118 Z" />
        </g>
    </g>
</svg>