<?xml version="1.0" encoding="UTF-8"?>
<svg height="600" width="800" xmlns="http://www.w3.org/2000/svg" xmlns:xlink="http://www.w3.org/1999/xlink">
    <g id="Notes" font-family="LucidaGrande, 'Lucida Grande', sans-serif" font-size="13">
        <rect fill="white" height="600.0" width="800.0" x="0.0" y="0.0" />
        <g font-size="13">
            <text x="18.0" y="176.0">Small</text>
            <text x="18.0" y="376.0">Medium</text>
            <text x="18.0" y="576.0">Large</text>
        </g>
        <g font-size="9">
            <text x="250.0" y="30.0">Ultralight</text>
            <text x="450.0" y="30.0">Regular</text>
            <text x="650.0" y="30.0">Black</text>
            <text id="template-version" fill="#505050" text-anchor="end" x="785.0" y="575.0">Template v.3.0</text>
            <a href="https://github.com/swhitty/SwiftDraw">
                <text fill="#505050" text-anchor="end" x="785.0" y="590.0">https://github.com/swhitty/SwiftDraw</text>
            </a>
        </g>
    </g>
    <g id="Guides" stroke="rgb(39, 170, 225)" stroke-width="0.5">
        <path id="Capline-S" d="M18,76 l800,0" />
        <path id="H-reference" d="M85,145.755 L87.685,145.755 L113.369,79.287 L114.052,79.287 L114.052,76 L112.148,76 L85,145.755 Z M95.693,121.536 L130.996,121.536 L130.263,119.313 L96.474,119.313 L95.693,121.536 Z M139.15,145.755 L141.787,145.755 L114.638,76 L113.466,76 L113.466,79.287 L139.15,145.755 Z" stroke="none" transform="translate(0,200)" />
        <path id="Baseline-S" d="M18,146 l800,0" />
        <path id="left-margin-Ultralight-M" d="M230,256 l0,110" />
        <path id="right-margin-Ultralight-M" d="M300,256 l0,110" />
        <path id="left-margin-Regular-M" d="M430,256 l0,110" />
        <path id="right-margin-Regular-M" d="M500,256 l0,110" />
        <path id="left-margin-Black-M" d="M630,256 l0,110" />
        <path id="right-margin-Black-M" d="M700,256 l0,110" />
        <path id="Capline-M" d="M18,276 l800,0" />
        <path id="Baseline-M" d="M18,346 l800,0" />
        <path id="Capline-L" d="M18,476 l800,0" />
        <path id="Baseline-L" d="M18,546 l800,0" />
    </g>
    <g id="Symbols">
        <g id="Ultralight-M" transform="translate(0,200)">
            <path d="M294.167,122.667 L294.167,97 C294.167,92.331 294.076,91.222 293.213,89.528 C292.374,87.881 291.036,86.543 289.389,85.704 C287.694,84.841 286.586,84.75 281.917,84.75 L248.083,84.75 C243.414,84.75 242.306,84.841 240.611,85.704 C238.964,86.543 237.626,87.881 236.787,89.527 C235.924,91.222 235.833,92.331 235.833,97 L235.833,122.667 C235.833,124.277 237.139,125.583 238.75,125.583 C240.361,125.583 241.667,124.277 241.667,122.667 L241.667,97 C241.667,93.503 241.735,92.666 241.985,92.175 C242.264,91.627 242.71,91.181 243.259,90.901 C243.749,90.652 244.586,90.583 248.083,90.583 L281.917,90.583 C285.414,90.583 286.251,90.652 286.741,90.901 C287.29,91.181 287.736,91.627 288.015,92.176 C288.265,92.666 288.333,93.503 288.333,97 L288.333,122.667 C288.333,124.277 289.639,125.583 291.25,125.583 C292.861,125.583 294.167,124.277 294.167,122.667 Z M243.612,137.25 L286.388,137.25 C288.972,137.25 289.588,137.222 290.596,136.953 C293.618,136.143 295.976,133.785 296.786,130.766 C297.055,129.754 297.083,129.139 297.083,126.555 C297.083,125.098 297.068,124.757 296.885,124.074 C296.345,122.06 294.773,120.488 292.761,119.949 C292.077,119.766 291.735,119.75 290.279,119.75 L239.721,119.75 C238.265,119.75 237.923,119.766 237.24,119.948 C235.227,120.488 233.655,122.06 233.115,124.073 C232.932,124.757 232.917,125.098 232.917,126.555 C232.917,129.139 232.945,129.754 233.213,130.762 C234.024,133.785 236.382,136.143 239.401,136.952 C240.412,137.222 241.028,137.25 243.612,137.25 Z M243.612,131.417 C241.676,131.417 241.201,131.395 240.907,131.317 C239.905,131.048 239.119,130.262 238.849,129.256 C238.772,128.966 238.75,128.491 238.75,126.555 C238.75,125.75 238.759,125.548 238.75,125.582 C238.75,125.583 238.75,125.583 238.75,125.583 C238.714,125.593 238.917,125.583 239.721,125.583 L290.279,125.583 C291.083,125.583 291.286,125.593 291.251,125.583 C291.25,125.583 291.25,125.583 291.25,125.583 C291.241,125.548 291.25,125.75 291.25,126.555 C291.25,128.491 291.228,128.966 291.15,129.259 C290.881,130.262 290.095,131.048 289.089,131.318 C288.799,131.395 288.324,131.417 286.388,131.417 L243.612,131.417 Z" />
        </g>
        <g id="Regular-M" transform="translate(0,200)">
            <path d="M494.167,122.667 L494.167,97 C494.167,92.331 494.076,91.222 493.213,89.528 C492.374,87.881 491.036,86.543 489.389,85.704 C487.694,84.841 486.586,84.75 481.917,84.75 L448.083,84.75 C443.414,84.75 442.306,84.841 440.611,85.704 C438.964,86.543 437.626,87.881 436.787,89.527 C435.924,91.222 435.833,92.331 435.833,97 L435.833,122.667 C435.833,124.277 437.139,125.583 438.75,125.583 C440.361,125.583 441.667,124.277 441.667,122.667 L441.667,97 C441.667,93.503 441.735,92.666 441.985,92.175 C442.264,91.627 442.71,91.181 443.259,90.901 C443.749,90.652 444.586,90.583 448.083,90.583 L481.917,90.583 C485.414,90.583 486.251,90.652 486.741,90.901 C487.29,91.181 487.736,91.627 488.015,92.176 C488.265,92.666 488.333,93.503 488.333,97 L488.333,122.667 C488.333,124.277 489.639,125.583 491.25,125.583 C492.861,125.583 494.167,124.277 494.167,122.667 Z M443.612,137.25 L486.388,137.25 C488.972,137.25 489.588,137.222 490.596,136.953 C493.618,136.143 495.976,133.785 496.786,130.766 C497.055,129.754 497.083,129.139 497.083,126.555 C497.083,125.098 497.068,124.757 496.885,124.074 C496.345,122.06 494.773,120.488 492.761,119.949 C492.077,119.766 491.735,119.75 490.279,119.75 L439.721,119.75 C438.265,119.75 437.923,119.766 437.24,119.948 C435.227,120.488 433.655,122.06 433.115,124.073 C432.932,124.757 432.917,125.098 432.917,126.555 C432.917,129.139 432.945,129.754 433.213,130.762 C434.024,133.785 436.382,136.143 439.401,136.952 C440.412,137.222 441.028,137.25 443.612,137.25 Z M443.612,131.417 C441.676,131.417 441.201,131.395 440.907,131.317 C439.905,131.048 439.119,130.262 438.849,129.256 C438.772,128.966 438.75,128.491 438.75,126.555 C438.75,125.75 438.759,125.548 438.75,125.582 C438.75,125.583 438.75,125.583 438.75,125.583 C438.714,125.593 438.917,125.583 439.721,125.583 L490.279,125.583 C491.083,125.583 491.286,125.593 491.251,125.583 C491.25,125.583 491.25,125.583 491.25,125.583 C491.241,125.548 491.25,125.75 491.25,126.555 C491.25,128.491 491.228,128.966 491.15,129.259 C490.881,130.262 490.095,131.048 489.089,131.318 C488.799,131.395 488.324,131.417 486.388,131.417 L443.612,131.417 Z" />
        </g>
        <g id="Black-M" transform="translate(0,200)">
            <path d="M694.167,122.667 L694.167,97 C694.167,92.331 694.076,91.222 693.213,89.528 C692.374,87.881 691.036,86.543 689.389,85.704 C687.695,84.841 686.586,84.75 681.917,84.75 L648.083,84.75 C643.414,84.75 642.305,84.841 640.611,85.704 C638.964,86.543 637.626,87.881 636.787,89.527 C635.924,91.222 635.833,92.331 635.833,97 L635.833,122.667 C635.833,124.277 637.139,125.583 638.75,125.583 C640.361,125.583 641.667,124.277 641.667,122.667 L641.667,97 C641.667,93.503 641.735,92.666 641.985,92.175 C642.264,91.627 642.71,91.181 643.259,90.901 C643.749,90.652 644.586,90.583 648.083,90.583 L681.917,90.583 C685.414,90.583 686.251,90.652 686.741,90.901 C687.29,91.181 687.736,91.627 688.015,92.176 C688.265,92.666 688.333,93.503 688.333,97 L688.333,122.667 C688.333,124.277 689.639,125.583 691.25,125.583 C692.861,125.583 694.167,124.277 694.167,122.667 Z M643.612,137.25 L686.388,137.25 C688.972,137.25 689.588,137.222 690.596,136.953 C693.618,136.143 695.976,133.785 696.786,130.766 C697.055,129.754 697.083,129.139 697.083,126.555 C697.083,125.098 697.068,124.757 696.885,124.074 C696.345,122.06 694.773,120.488 692.761,119.949 C692.077,119.766 691.735,119.75 690.279,119.75 L639.721,119.75 C638.265,119.75 637.923,119.766 637.24,119.948 C635.227,120.488 633.655,122.06 633.115,124.073 C632.932,124.757 632.917,125.098 632.917,126.555 C632.917,129.139 632.945,129.754 633.214,130.762 C634.024,133.785 636.382,136.143 639.401,136.952 C640.412,137.222 641.028,137.25 643.612,137.25 Z M643.612,131.417 C641.676,131.417 641.201,131.395 640.907,131.317 C639.905,131.048 639.119,130.262 638.849,129.256 C638.772,128.966 638.75,128.491 638.75,126.555 C638.75,125.75 638.759,125.548 638.75,125.582 C638.75,125.583 638.75,125.583 638.75,125.583 C638.714,125.593 638.917,125.583 639.721,125.583 L690.279,125.583 C691.083,125.583 691.286,125.593 691.251,125.583 C691.25,125.583 691.25,125.583 691.25,125.583 C691.241,125.548 691.25,125.75 691.25,126.555 C691.25,128.491 691.228,128.966 691.15,129.259 C690.881,130.262 690.095,131.048 689.089,131.318 C688.799,131.395 688.324,131.417 686.388,131.417 L643.612,131.417 Z" />
        </g>
    </g>
</svg>