<?xml version="1.0" encoding="UTF-8"?>
<svg height="600" width="800" xmlns="http://www.w3.org/2000/svg" xmlns:xlink="http://www.w3.org/1999/xlink">
    <g id="Notes" font-family="LucidaGrande, 'Lucida Grande', sans-serif" font-size="13">
        <rect fill="white" height="600.0" width="800.0" x="0.0" y="0.0" />
        <g font-size="13">
            <text x="18.0" y="176.0">Small</text>
            <text x="18.0" y="376.0">Medium</text>
            <text x="18.0" y="576.0">Large</text>
        </g>
        <g font-size="9">
            <text x="250.0" y="30.0">Ultralight</text>
            <text x="450.0" y="30.0">Regular</text>
            <text x="650.0" y="30.0">Black</text>
            <text id="template-version" fill="#505050" text-anchor="end" x="785.0" y="575.0">Template v.3.0</text>
            <a href="https://github.com/swhitty/SwiftDraw">
                <text fill="#505050" text-anchor="end" x="785.0" y="590.0">https://github.com/swhitty/SwiftDraw</text>
            </a>
        </g>
    </g>
    <g id="Guides" stroke="rgb(39, 170, 225)" stroke-width="0.5">
        <path id="Capline-S" d="M18,76 l800,0" />
        <path id="H-reference" d="M85,145.755 L87.685,145.755 L113.369,79.287 L114.052,79.287 L114.052,76 L112.148,76 L85,145.755 Z M95.693,121.536 L130.996,121.536 L130.263,119.313 L96.474,119.313 L95.693,121.536 Z M139.15,145.755 L141.787,145.755 L114.638,76 L113.466,76 L113.466,79.287 L139.15,145.755 Z" stroke="none" transform="translate(0,200)" />
        <path id="Baseline-S" d="M18,146 l800,0" />
        <path id="left-margin-Ultralight-M" d="M230,256 l0,110" />
        <path id="right-margin-Ultralight-M" d="M300,256 l0,110" />
        <path id="left-margin-Regular-M" d="M430,256 l0,110" />
        <path id="right-margin-Regular-M" d="M500,256 l0,110" />
        <path id="left-margin-Black-M" d="M630,256 l0,110" />
        <path id="right-margin-Black-M" d="M700,256 l0,110" />
        <path id="Capline-M" d="M18,276 l800,0" />
        <path id="Baseline-M" d="M18,346 l800,0" />
        <path id="Capline-L" d="M18,476 l800,0" />
        <path id="Baseline-L" d="M18,546 l800,0" />
    </g>
    <g id="Symbols">
        <g id="Ultralight-M" transform="translate(0,200)">
            <path d="M231.759,125.074 L262.438,145.065 C263.271,145.612 263.53,145.758 264.162,145.901 C264.685,146.039 265.306,146.039 265.907,145.885 C265.894,145.888 265.894,145.888 265.95,145.874 C266.525,145.723 266.74,145.601 267.553,145.074 L298.241,125.074 C299.813,124.05 300.45,121.559 299.664,119.511 C298.878,117.462 296.967,116.632 295.395,117.657 L264.716,137.651 C264.52,137.778 264.482,137.8 264.693,137.744 C264.72,137.737 264.72,137.737 264.748,137.731 C264.892,137.693 265.112,137.693 265.331,137.75 C265.499,137.787 265.483,137.778 265.293,137.653 L234.605,117.657 C233.033,116.632 231.122,117.463 230.336,119.511 C229.55,121.559 230.187,124.05 231.759,125.074 Z M234.605,104.341 L265.284,84.351 C265.496,84.211 265.508,84.205 265.296,84.257 C265.099,84.305 264.901,84.305 264.707,84.258 C264.492,84.205 264.504,84.211 264.707,84.345 L295.395,104.341 L295.395,96.924 L264.716,116.914 C264.507,117.064 264.499,117.068 264.491,117.071 C264.901,116.96 265.099,116.96 265.292,117.007 C265.28,117.005 265.28,117.005 265.307,117.011 C265.518,117.067 265.48,117.046 265.275,116.913 L234.605,96.924 L234.605,104.341 Z M231.759,96.924 C229.414,98.452 229.414,102.813 231.759,104.341 L262.438,124.336 C263.26,124.868 263.475,124.99 264.05,125.141 C264.106,125.156 264.106,125.156 264.162,125.169 C264.703,125.301 265.297,125.301 265.877,125.159 C266.681,124.897 267.243,124.592 267.764,124.188 L298.241,104.341 C300.586,102.813 300.586,98.452 298.241,96.924 L267.562,76.933 C266.785,76.424 266.486,76.255 265.882,76.107 C265.298,75.965 264.702,75.965 264.122,76.106 C263.514,76.255 263.215,76.424 262.429,76.939 L231.759,96.924 Z" />
        </g>
        <g id="Regular-M" transform="translate(0,200)">
            <path d="M431.759,125.074 L462.438,145.065 C463.271,145.612 463.53,145.758 464.162,145.901 C464.685,146.039 465.306,146.039 465.907,145.885 C465.894,145.888 465.894,145.888 465.95,145.874 C466.525,145.723 466.74,145.601 467.553,145.074 L498.241,125.074 C499.813,124.05 500.45,121.559 499.664,119.511 C498.878,117.462 496.967,116.632 495.395,117.657 L464.716,137.651 C464.52,137.778 464.482,137.8 464.693,137.744 C464.72,137.737 464.72,137.737 464.748,137.731 C464.892,137.693 465.112,137.693 465.331,137.75 C465.499,137.787 465.483,137.778 465.293,137.653 L434.605,117.657 C433.033,116.632 431.122,117.463 430.336,119.511 C429.55,121.559 430.187,124.05 431.759,125.074 Z M434.605,104.341 L465.284,84.351 C465.496,84.211 465.508,84.205 465.296,84.257 C465.099,84.305 464.901,84.305 464.707,84.258 C464.492,84.205 464.504,84.211 464.707,84.345 L495.395,104.341 L495.395,96.924 L464.716,116.914 C464.507,117.064 464.499,117.068 464.491,117.071 C464.901,116.96 465.099,116.96 465.292,117.007 C465.28,117.005 465.28,117.005 465.307,117.011 C465.518,117.067 465.48,117.046 465.275,116.913 L434.605,96.924 L434.605,104.341 Z M431.759,96.924 C429.414,98.452 429.414,102.813 431.759,104.341 L462.438,124.336 C463.26,124.868 463.475,124.99 464.05,125.141 C464.106,125.156 464.106,125.156 464.162,125.169 C464.703,125.301 465.297,125.301 465.877,125.159 C466.681,124.897 467.243,124.592 467.764,124.188 L498.241,104.341 C500.586,102.813 500.586,98.452 498.241,96.924 L467.562,76.933 C466.785,76.424 466.486,76.255 465.882,76.107 C465.298,75.965 464.702,75.965 464.122,76.106 C463.514,76.255 463.215,76.424 462.429,76.939 L431.759,96.924 Z" />
        </g>
        <g id="Black-M" transform="translate(0,200)">
            <path d="M631.759,125.074 L662.438,145.065 C663.271,145.612 663.53,145.758 664.162,145.901 C664.685,146.039 665.306,146.039 665.907,145.885 C665.894,145.888 665.894,145.888 665.95,145.874 C666.525,145.723 666.74,145.601 667.553,145.074 L698.241,125.074 C699.813,124.05 700.45,121.559 699.664,119.511 C698.878,117.462 696.967,116.632 695.395,117.657 L664.716,137.651 C664.52,137.778 664.482,137.8 664.693,137.744 C664.72,137.737 664.72,137.737 664.748,137.731 C664.892,137.693 665.112,137.693 665.331,137.75 C665.499,137.787 665.483,137.778 665.293,137.653 L634.605,117.657 C633.033,116.632 631.122,117.463 630.336,119.511 C629.55,121.559 630.187,124.05 631.759,125.074 Z M634.605,104.341 L665.284,84.351 C665.496,84.211 665.508,84.205 665.296,84.257 C665.099,84.305 664.901,84.305 664.707,84.258 C664.492,84.205 664.504,84.211 664.707,84.345 L695.395,104.341 L695.395,96.924 L664.716,116.914 C664.507,117.064 664.499,117.068 664.491,117.071 C664.901,116.96 665.099,116.96 665.292,117.007 C665.28,117.005 665.28,117.005 665.307,117.011 C665.518,117.067 665.48,117.046 665.275,116.913 L634.605,96.924 L634.605,104.341 Z M631.759,96.924 C629.414,98.452 629.414,102.813 631.759,104.341 L662.438,124.336 C663.26,124.868 663.475,124.99 664.05,125.141 C664.106,125.156 664.106,125.156 664.162,125.169 C664.703,125.301 665.297,125.301 665.877,125.159 C666.681,124.897 667.243,124.592 667.764,124.188 L698.241,104.341 C700.586,102.813 700.586,98.452 698.241,96.924 L667.562,76.933 C666.785,76.424 666.486,76.255 665.882,76.107 C665.298,75.965 664.702,75.965 664.122,76.106 C663.514,76.255 663.215,76.424 662.429,76.939 L631.759,96.924 Z" />
        </g>
    </g>
</svg>