<?xml version="1.0" encoding="UTF-8"?>
<svg height="600" width="800" xmlns="http://www.w3.org/2000/svg" xmlns:xlink="http://www.w3.org/1999/xlink">
    <g id="Notes" font-family="LucidaGrande, 'Lucida Grande', sans-serif" font-size="13">
        <rect fill="white" height="600.0" width="800.0" x="0.0" y="0.0" />
        <g font-size="13">
            <text x="18.0" y="176.0">Small</text>
            <text x="18.0" y="376.0">Medium</text>
            <text x="18.0" y="576.0">Large</text>
        </g>
        <g font-size="9">
            <text x="250.0" y="30.0">Ultralight</text>
            <text x="450.0" y="30.0">Regular</text>
            <text x="650.0" y="30.0">Black</text>
            <text id="template-version" fill="#505050" text-anchor="end" x="785.0" y="575.0">Template v.3.0</text>
            <a href="https://github.com/swhitty/SwiftDraw">
                <text fill="#505050" text-anchor="end" x="785.0" y="590.0">https://github.com/swhitty/SwiftDraw</text>
            </a>
        </g>
    </g>
    <g id="Guides" stroke="rgb(39, 170, 225)" stroke-width="0.5">
        <path id="Capline-S" d="M18,76 l800,0" />
        <path id="H-reference" d="M85,145.755 L87.685,145.755 L113.369,79.287 L114.052,79.287 L114.052,76 L112.148,76 L85,145.755 Z M95.693,121.536 L130.996,121.536 L130.263,119.313 L96.474,119.313 L95.693,121.536 Z M139.15,145.755 L141.787,145.755 L114.638,76 L113.466,76 L113.466,79.287 L139.15,145.755 Z" stroke="none" transform="translate(0,200)" />
        <path id="Baseline-S" d="M18,146 l800,0" />
        <path id="left-margin-Ultralight-M" d="M221,256 l0,110" />
        <path id="right-margin-Ultralight-M" d="M309,256 l0,110" />
        <path id="left-margin-Regular-M" d="M421,256 l0,110" />
        <path id="right-margin-Regular-M" d="M509,256 l0,110" />
        <path id="left-margin-Black-M" d="M621,256 l0,110" />
        <path id="right-margin-Black-M" d="M709,256 l0,110" />
        <path id="Capline-M" d="M18,276 l800,0" />
        <path id="Baseline-M" d="M18,346 l800,0" />
        <path id="Capline-L" d="M18,476 l800,0" />
        <path id="Baseline-L" d="M18,546 l800,0" />
    </g>
    <g id="Symbols">
        <g id="Ultralight-M" transform="translate(0,200)">
            <path d="M253.587,103.887 L243.111,109.125 C241.566,109.897 241.566,112.101 243.111,112.873 L263.313,122.974 C263.862,123.251 264.032,123.324 264.448,123.397 C264.792,123.466 265.201,123.466 265.597,123.388 C265.589,123.39 265.589,123.39 265.626,123.383 C266.004,123.307 266.146,123.245 266.681,122.979 L286.89,112.873 C288.434,112.101 288.434,109.897 286.889,109.125 L276.413,103.887 C275.378,103.369 274.12,103.789 273.602,104.824 C273.085,105.859 273.504,107.117 274.539,107.635 L285.015,112.873 L285.015,109.125 L264.813,119.228 C264.684,119.292 264.659,119.303 264.798,119.275 C264.816,119.272 264.816,119.272 264.834,119.268 C264.929,119.249 265.074,119.249 265.218,119.278 C265.329,119.297 265.318,119.292 265.193,119.229 L244.985,109.125 L244.985,112.873 L255.461,107.635 C256.496,107.117 256.915,105.859 256.398,104.824 C255.88,103.789 254.622,103.369 253.587,103.887 Z M253.587,114.363 L243.111,119.601 C241.566,120.373 241.566,122.577 243.111,123.349 L263.313,133.45 C263.862,133.727 264.032,133.801 264.448,133.873 C264.792,133.942 265.201,133.942 265.597,133.865 C265.589,133.866 265.589,133.866 265.626,133.859 C266.004,133.783 266.146,133.721 266.681,133.455 L286.89,123.349 C288.434,122.577 288.434,120.373 286.889,119.601 L276.413,114.363 C275.378,113.845 274.12,114.265 273.602,115.3 C273.085,116.335 273.504,117.593 274.539,118.111 L285.015,123.349 L285.015,119.601 L264.813,129.704 C264.684,129.768 264.659,129.779 264.798,129.751 C264.816,129.748 264.816,129.748 264.834,129.745 C264.929,129.725 265.074,129.725 265.218,129.754 C265.329,129.773 265.318,129.768 265.193,129.705 L244.985,119.601 L244.985,123.349 L255.461,118.111 C256.496,117.593 256.915,116.335 256.398,115.3 C255.88,114.265 254.622,113.845 253.587,114.363 Z M244.985,102.397 L265.187,92.296 C265.327,92.225 265.335,92.222 265.195,92.248 C265.065,92.272 264.935,92.272 264.807,92.248 C264.668,92.222 264.68,92.227 264.819,92.296 L285.015,102.397 L285.015,98.649 L264.813,108.75 C264.675,108.825 264.67,108.827 264.665,108.829 C264.935,108.773 265.065,108.773 265.192,108.797 C265.184,108.795 265.184,108.795 265.202,108.799 C265.341,108.827 265.316,108.816 265.181,108.749 L244.985,98.649 L244.985,102.397 Z M243.111,98.649 C241.566,99.421 241.566,101.624 243.11,102.397 L263.313,112.5 C263.854,112.769 263.996,112.831 264.374,112.907 C264.411,112.914 264.411,112.914 264.448,112.921 C264.804,112.987 265.196,112.987 265.578,112.916 C266.107,112.784 266.477,112.629 266.82,112.425 L286.889,102.397 C288.434,101.625 288.434,99.421 286.89,98.649 L266.687,88.545 C266.156,88.282 265.974,88.204 265.581,88.13 C265.196,88.058 264.804,88.058 264.422,88.129 C264.021,88.205 263.824,88.29 263.307,88.55 L243.111,98.649 Z" />
        </g>
        <g id="Regular-M" transform="translate(0,200)">
            <path d="M453.587,103.887 L443.111,109.125 C441.566,109.897 441.566,112.101 443.111,112.873 L463.313,122.974 C463.862,123.251 464.032,123.324 464.448,123.397 C464.792,123.466 465.201,123.466 465.597,123.388 C465.589,123.39 465.589,123.39 465.626,123.383 C466.004,123.307 466.146,123.245 466.681,122.979 L486.89,112.873 C488.434,112.101 488.434,109.897 486.889,109.125 L476.413,103.887 C475.378,103.369 474.12,103.789 473.602,104.824 C473.085,105.859 473.504,107.117 474.539,107.635 L485.015,112.873 L485.015,109.125 L464.813,119.228 C464.684,119.292 464.659,119.303 464.798,119.275 C464.816,119.272 464.816,119.272 464.834,119.268 C464.929,119.249 465.074,119.249 465.218,119.278 C465.329,119.297 465.318,119.292 465.193,119.229 L444.985,109.125 L444.985,112.873 L455.461,107.635 C456.496,107.117 456.915,105.859 456.398,104.824 C455.88,103.789 454.622,103.369 453.587,103.887 Z M453.587,114.363 L443.111,119.601 C441.566,120.373 441.566,122.577 443.111,123.349 L463.313,133.45 C463.862,133.727 464.032,133.801 464.448,133.873 C464.792,133.942 465.201,133.942 465.597,133.865 C465.589,133.866 465.589,133.866 465.626,133.859 C466.004,133.783 466.146,133.721 466.681,133.455 L486.89,123.349 C488.434,122.577 488.434,120.373 486.889,119.601 L476.413,114.363 C475.378,113.845 474.12,114.265 473.602,115.3 C473.085,116.335 473.504,117.593 474.539,118.111 L485.015,123.349 L485.015,119.601 L464.813,129.704 C464.684,129.768 464.659,129.779 464.798,129.751 C464.816,129.748 464.816,129.748 464.834,129.745 C464.929,129.725 465.074,129.725 465.218,129.754 C465.329,129.773 465.318,129.768 465.193,129.705 L444.985,119.601 L444.985,123.349 L455.461,118.111 C456.496,117.593 456.915,116.335 456.398,115.3 C455.88,114.265 454.622,113.845 453.587,114.363 Z M444.985,102.397 L465.187,92.296 C465.327,92.225 465.335,92.222 465.195,92.248 C465.065,92.272 464.935,92.272 464.807,92.248 C464.668,92.222 464.68,92.227 464.819,92.296 L485.015,102.397 L485.015,98.649 L464.813,108.75 C464.675,108.825 464.67,108.827 464.665,108.829 C464.935,108.773 465.065,108.773 465.192,108.797 C465.184,108.795 465.184,108.795 465.202,108.799 C465.341,108.827 465.316,108.816 465.181,108.749 L444.985,98.649 L444.985,102.397 Z M443.111,98.649 C441.566,99.421 441.566,101.624 443.11,102.397 L463.313,112.5 C463.854,112.769 463.996,112.831 464.374,112.907 C464.411,112.914 464.411,112.914 464.448,112.921 C464.804,112.987 465.196,112.987 465.578,112.916 C466.107,112.784 466.477,112.629 466.82,112.425 L486.889,102.397 C488.434,101.625 488.434,99.421 486.89,98.649 L466.687,88.545 C466.156,88.282 465.974,88.204 465.581,88.13 C465.196,88.058 464.804,88.058 464.422,88.129 C464.021,88.205 463.824,88.29 463.307,88.55 L443.111,98.649 Z" />
        </g>
        <g id="Black-M" transform="translate(0,200)">
            <path d="M653.587,103.887 L643.111,109.125 C641.566,109.897 641.566,112.101 643.111,112.873 L663.313,122.974 C663.862,123.251 664.032,123.324 664.448,123.397 C664.792,123.466 665.201,123.466 665.597,123.388 C665.589,123.39 665.589,123.39 665.626,123.383 C666.004,123.307 666.146,123.245 666.681,122.979 L686.89,112.873 C688.434,112.101 688.434,109.897 686.889,109.125 L676.413,103.887 C675.378,103.369 674.12,103.789 673.602,104.824 C673.085,105.859 673.504,107.117 674.539,107.635 L685.015,112.873 L685.015,109.125 L664.813,119.228 C664.684,119.292 664.659,119.303 664.798,119.275 C664.816,119.272 664.816,119.272 664.834,119.268 C664.929,119.249 665.074,119.249 665.218,119.278 C665.328,119.297 665.318,119.292 665.193,119.229 L644.985,109.125 L644.985,112.873 L655.461,107.635 C656.496,107.117 656.915,105.859 656.398,104.824 C655.88,103.789 654.622,103.369 653.587,103.887 Z M653.587,114.363 L643.111,119.601 C641.566,120.373 641.566,122.577 643.111,123.349 L663.313,133.45 C663.862,133.727 664.032,133.801 664.448,133.873 C664.792,133.942 665.201,133.942 665.597,133.865 C665.589,133.866 665.589,133.866 665.626,133.859 C666.004,133.783 666.146,133.721 666.681,133.455 L686.89,123.349 C688.434,122.577 688.434,120.373 686.889,119.601 L676.413,114.363 C675.378,113.845 674.12,114.265 673.602,115.3 C673.085,116.335 673.504,117.593 674.539,118.111 L685.015,123.349 L685.015,119.601 L664.813,129.704 C664.684,129.768 664.659,129.779 664.798,129.751 C664.816,129.748 664.816,129.748 664.834,129.745 C664.929,129.725 665.074,129.725 665.218,129.754 C665.328,129.773 665.318,129.768 665.193,129.705 L644.985,119.601 L644.985,123.349 L655.461,118.111 C656.496,117.593 656.915,116.335 656.398,115.3 C655.88,114.265 654.622,113.845 653.587,114.363 Z M644.985,102.397 L665.187,92.296 C665.327,92.225 665.335,92.222 665.195,92.248 C665.065,92.272 664.935,92.272 664.807,92.248 C664.668,92.222 664.68,92.227 664.819,92.296 L685.015,102.397 L685.015,98.649 L664.813,108.75 C664.675,108.825 664.67,108.827 664.665,108.829 C664.935,108.773 665.065,108.773 665.192,108.797 C665.184,108.795 665.184,108.795 665.202,108.799 C665.341,108.827 665.316,108.816 665.181,108.749 L644.985,98.649 L644.985,102.397 Z M643.111,98.649 C641.566,99.421 641.566,101.624 643.11,102.397 L663.313,112.5 C663.854,112.769 663.996,112.831 664.374,112.907 C664.411,112.914 664.411,112.914 664.448,112.921 C664.804,112.987 665.196,112.987 665.578,112.916 C666.107,112.784 666.477,112.629 666.82,112.425 L686.889,102.397 C688.434,101.625 688.434,99.421 686.89,98.649 L666.687,88.545 C666.156,88.282 665.974,88.204 665.581,88.13 C665.196,88.058 664.804,88.058 664.422,88.129 C664.021,88.205 663.824,88.29 663.307,88.55 L643.111,98.649 Z" />
        </g>
    </g>
</svg>