<?xml version="1.0" encoding="UTF-8"?>
<svg height="600" width="800" xmlns="http://www.w3.org/2000/svg" xmlns:xlink="http://www.w3.org/1999/xlink">
    <g id="Notes" font-family="LucidaGrande, 'Lucida Grande', sans-serif" font-size="13">
        <rect fill="white" height="600.0" width="800.0" x="0.0" y="0.0" />
        <g font-size="13">
            <text x="18.0" y="176.0">Small</text>
            <text x="18.0" y="376.0">Medium</text>
            <text x="18.0" y="576.0">Large</text>
        </g>
        <g font-size="9">
            <text x="250.0" y="30.0">Ultralight</text>
            <text x="450.0" y="30.0">Regular</text>
            <text x="650.0" y="30.0">Black</text>
            <text id="template-version" fill="#505050" text-anchor="end" x="785.0" y="575.0">Template v.3.0</text>
            <a href="https://github.com/swhitty/SwiftDraw">
                <text fill="#505050" text-anchor="end" x="785.0" y="590.0">https://github.com/swhitty/SwiftDraw</text>
            </a>
        </g>
    </g>
    <g id="Guides" stroke="rgb(39, 170, 225)" stroke-width="0.5">
        <path id="Capline-S" d="M18,76 l800,0" />
        <path id="H-reference" d="M85,145.755 L87.685,145.755 L113.369,79.287 L114.052,79.287 L114.052,76 L112.148,76 L85,145.755 Z M95.693,121.536 L130.996,121.536 L130.263,119.313 L96.474,119.313 L95.693,121.536 Z M139.15,145.755 L141.787,145.755 L114.638,76 L113.466,76 L113.466,79.287 L139.15,145.755 Z" stroke="none" transform="translate(0,200)" />
        <path id="Baseline-S" d="M18,146 l800,0" />
        <path id="left-margin-Ultralight-M" d="M230,256 l0,110" />
        <path id="right-margin-Ultralight-M" d="M300,256 l0,110" />
        <path id="left-margin-Regular-M" d="M430,256 l0,110" />
        <path id="right-margin-Regular-M" d="M500,256 l0,110" />
        <path id="left-margin-Black-M" d="M630,256 l0,110" />
        <path id="right-margin-Black-M" d="M700,256 l0,110" />
        <path id="Capline-M" d="M18,276 l800,0" />
        <path id="Baseline-M" d="M18,346 l800,0" />
        <path id="Capline-L" d="M18,476 l800,0" />
        <path id="Baseline-L" d="M18,546 l800,0" />
    </g>
    <g id="Symbols">
        <g id="Ultralight-M" transform="translate(0,200)">
            <path d="M296.5,96.417 L265,96.417 C263.067,96.417 261.5,98.158 261.5,100.306 C261.5,102.453 263.067,104.194 265,104.194 L296.5,104.194 C298.433,104.194 300,102.453 300,100.306 C300,98.158 298.433,96.417 296.5,96.417 Z M296.5,76 L233.5,76 C231.567,76 230,77.741 230,79.889 C230,82.037 231.567,83.778 233.5,83.778 L296.5,83.778 C298.433,83.778 300,82.037 300,79.889 C300,77.741 298.433,76 296.5,76 Z M296.5,117.806 L265,117.806 C263.067,117.806 261.5,119.547 261.5,121.694 C261.5,123.842 263.067,125.583 265,125.583 L296.5,125.583 C298.433,125.583 300,123.842 300,121.694 C300,119.547 298.433,117.806 296.5,117.806 Z M296.5,138.222 L233.5,138.222 C231.567,138.222 230,139.963 230,142.111 C230,144.259 231.567,146 233.5,146 L296.5,146 C298.433,146 300,144.259 300,142.111 C300,139.963 298.433,138.222 296.5,138.222 Z M235.88,100.733 L249.415,112.011 C249.998,112.496 250.21,112.679 250.334,112.803 C250.25,112.719 250.097,112.503 249.956,112.101 C249.795,111.64 249.795,111.138 249.953,110.685 C250.098,110.271 250.251,110.056 250.334,109.972 C250.21,110.097 250.008,110.272 249.413,110.768 L235.88,122.044 C234.999,122.778 234.687,123.029 234.446,123.195 C234.513,123.148 234.757,123.046 235.276,123.056 C235.811,123.068 236.305,123.342 236.629,123.803 C236.95,124.258 237.024,124.541 237.032,124.634 C237.006,124.321 237,123.9 237,122.667 L237,100.111 C237,98.878 237.006,98.458 237.032,98.145 C237.025,98.234 236.951,98.515 236.632,98.971 C236.305,99.436 235.811,99.71 235.285,99.721 C234.757,99.732 234.513,99.629 234.446,99.583 C234.687,99.749 234.999,100 235.88,100.733 Z M240.08,94.511 C237.324,92.215 236.882,91.912 235.154,91.945 C233.567,91.98 232.086,92.803 231.113,94.185 C230.046,95.707 230,96.267 230,100.111 L230,122.667 C230,126.528 230.045,127.081 231.118,128.599 C232.086,129.975 233.567,130.798 235.145,130.833 C236.882,130.866 237.324,130.563 240.08,128.267 L253.614,116.989 C255.584,115.346 255.962,114.968 256.475,113.509 C256.953,112.142 256.953,110.636 256.478,109.277 C255.962,107.809 255.556,107.403 253.611,105.786 L240.08,94.511 Z" />
        </g>
        <g id="Regular-M" transform="translate(0,200)">
            <path d="M496.5,96.417 L465,96.417 C463.067,96.417 461.5,98.158 461.5,100.306 C461.5,102.453 463.067,104.194 465,104.194 L496.5,104.194 C498.433,104.194 500,102.453 500,100.306 C500,98.158 498.433,96.417 496.5,96.417 Z M496.5,76 L433.5,76 C431.567,76 430,77.741 430,79.889 C430,82.037 431.567,83.778 433.5,83.778 L496.5,83.778 C498.433,83.778 500,82.037 500,79.889 C500,77.741 498.433,76 496.5,76 Z M496.5,117.806 L465,117.806 C463.067,117.806 461.5,119.547 461.5,121.694 C461.5,123.842 463.067,125.583 465,125.583 L496.5,125.583 C498.433,125.583 500,123.842 500,121.694 C500,119.547 498.433,117.806 496.5,117.806 Z M496.5,138.222 L433.5,138.222 C431.567,138.222 430,139.963 430,142.111 C430,144.259 431.567,146 433.5,146 L496.5,146 C498.433,146 500,144.259 500,142.111 C500,139.963 498.433,138.222 496.5,138.222 Z M435.88,100.733 L449.415,112.011 C449.998,112.496 450.21,112.679 450.334,112.803 C450.25,112.719 450.097,112.503 449.956,112.101 C449.795,111.64 449.795,111.138 449.953,110.685 C450.098,110.271 450.251,110.056 450.334,109.972 C450.21,110.097 450.008,110.272 449.413,110.768 L435.88,122.044 C434.999,122.778 434.687,123.029 434.446,123.195 C434.513,123.148 434.757,123.046 435.276,123.056 C435.811,123.068 436.305,123.342 436.629,123.803 C436.95,124.258 437.024,124.541 437.032,124.634 C437.006,124.321 437,123.9 437,122.667 L437,100.111 C437,98.878 437.006,98.458 437.032,98.145 C437.025,98.234 436.951,98.515 436.632,98.971 C436.305,99.436 435.811,99.71 435.285,99.721 C434.757,99.732 434.513,99.629 434.446,99.583 C434.687,99.749 434.999,100 435.88,100.733 Z M440.08,94.511 C437.324,92.215 436.882,91.912 435.154,91.945 C433.567,91.98 432.086,92.803 431.113,94.185 C430.046,95.707 430,96.267 430,100.111 L430,122.667 C430,126.528 430.045,127.081 431.118,128.599 C432.086,129.975 433.567,130.798 435.145,130.833 C436.882,130.866 437.324,130.563 440.08,128.267 L453.614,116.989 C455.584,115.346 455.962,114.968 456.475,113.509 C456.953,112.142 456.953,110.636 456.478,109.277 C455.962,107.809 455.556,107.403 453.611,105.786 L440.08,94.511 Z" />
        </g>
        <g id="Black-M" transform="translate(0,200)">
            <path d="M696.5,96.417 L665,96.417 C663.067,96.417 661.5,98.158 661.5,100.306 C661.5,102.453 663.067,104.194 665,104.194 L696.5,104.194 C698.433,104.194 700,102.453 700,100.306 C700,98.158 698.433,96.417 696.5,96.417 Z M696.5,76 L633.5,76 C631.567,76 630,77.741 630,79.889 C630,82.037 631.567,83.778 633.5,83.778 L696.5,83.778 C698.433,83.778 700,82.037 700,79.889 C700,77.741 698.433,76 696.5,76 Z M696.5,117.806 L665,117.806 C663.067,117.806 661.5,119.547 661.5,121.694 C661.5,123.842 663.067,125.583 665,125.583 L696.5,125.583 C698.433,125.583 700,123.842 700,121.694 C700,119.547 698.433,117.806 696.5,117.806 Z M696.5,138.222 L633.5,138.222 C631.567,138.222 630,139.963 630,142.111 C630,144.259 631.567,146 633.5,146 L696.5,146 C698.433,146 700,144.259 700,142.111 C700,139.963 698.433,138.222 696.5,138.222 Z M635.88,100.733 L649.415,112.011 C649.998,112.496 650.209,112.679 650.334,112.803 C650.25,112.719 650.097,112.503 649.956,112.101 C649.795,111.64 649.795,111.138 649.953,110.685 C650.098,110.271 650.251,110.056 650.334,109.972 C650.21,110.097 650.008,110.272 649.413,110.768 L635.88,122.044 C634.999,122.778 634.687,123.029 634.446,123.195 C634.513,123.148 634.757,123.046 635.276,123.056 C635.811,123.068 636.305,123.342 636.629,123.803 C636.95,124.258 637.024,124.541 637.032,124.634 C637.006,124.321 637,123.9 637,122.667 L637,100.111 C637,98.878 637.006,98.458 637.032,98.145 C637.025,98.234 636.951,98.515 636.632,98.971 C636.305,99.436 635.811,99.71 635.285,99.721 C634.757,99.732 634.513,99.629 634.446,99.583 C634.687,99.749 634.999,100 635.88,100.733 Z M640.08,94.511 C637.324,92.215 636.882,91.912 635.154,91.945 C633.567,91.98 632.086,92.803 631.113,94.185 C630.046,95.707 630,96.267 630,100.111 L630,122.667 C630,126.528 630.045,127.081 631.118,128.599 C632.086,129.975 633.567,130.798 635.145,130.833 C636.882,130.866 637.324,130.563 640.08,128.267 L653.614,116.989 C655.584,115.346 655.962,114.968 656.475,113.509 C656.953,112.142 656.953,110.636 656.478,109.277 C655.962,107.809 655.556,107.403 653.611,105.786 L640.08,94.511 Z" />
        </g>
    </g>
</svg>