<?xml version="1.0" encoding="UTF-8"?>
<svg height="600" width="800" xmlns="http://www.w3.org/2000/svg" xmlns:xlink="http://www.w3.org/1999/xlink">
    <g id="Notes" font-family="LucidaGrande, 'Lucida Grande', sans-serif" font-size="13">
        <rect fill="white" height="600.0" width="800.0" x="0.0" y="0.0" />
        <g font-size="13">
            <text x="18.0" y="176.0">Small</text>
            <text x="18.0" y="376.0">Medium</text>
            <text x="18.0" y="576.0">Large</text>
        </g>
        <g font-size="9">
            <text x="250.0" y="30.0">Ultralight</text>
            <text x="450.0" y="30.0">Regular</text>
            <text x="650.0" y="30.0">Black</text>
            <text id="template-version" fill="#505050" text-anchor="end" x="785.0" y="575.0">Template v.3.0</text>
            <a href="https://github.com/swhitty/SwiftDraw">
                <text fill="#505050" text-anchor="end" x="785.0" y="590.0">https://github.com/swhitty/SwiftDraw</text>
            </a>
        </g>
    </g>
    <g id="Guides" stroke="rgb(39, 170, 225)" stroke-width="0.5">
        <path id="Capline-S" d="M18,76 l800,0" />
        <path id="H-reference" d="M85,145.755 L87.685,145.755 L113.369,79.287 L114.052,79.287 L114.052,76 L112.148,76 L85,145.755 Z M95.693,121.536 L130.996,121.536 L130.263,119.313 L96.474,119.313 L95.693,121.536 Z M139.15,145.755 L141.787,145.755 L114.638,76 L113.466,76 L113.466,79.287 L139.15,145.755 Z" stroke="none" transform="translate(0,200)" />
        <path id="Baseline-S" d="M18,146 l800,0" />
        <path id="left-margin-Ultralight-M" d="M230,256 l0,110" />
        <path id="right-margin-Ultralight-M" d="M300,256 l0,110" />
        <path id="left-margin-Regular-M" d="M430,256 l0,110" />
        <path id="right-margin-Regular-M" d="M500,256 l0,110" />
        <path id="left-margin-Black-M" d="M630,256 l0,110" />
        <path id="right-margin-Black-M" d="M700,256 l0,110" />
        <path id="Capline-M" d="M18,276 l800,0" />
        <path id="Baseline-M" d="M18,346 l800,0" />
        <path id="Capline-L" d="M18,476 l800,0" />
        <path id="Baseline-L" d="M18,546 l800,0" />
    </g>
    <g id="Symbols">
        <g id="Ultralight-M" transform="translate(0,200)">
            <path d="M291.25,100.062 L265,100.062 C263.389,100.062 262.083,101.368 262.083,102.979 C262.083,104.59 263.389,105.896 265,105.896 L291.25,105.896 C292.861,105.896 294.167,104.59 294.167,102.979 C294.167,101.368 292.861,100.062 291.25,100.062 Z M291.25,84.75 L238.75,84.75 C237.139,84.75 235.833,86.056 235.833,87.667 C235.833,89.277 237.139,90.583 238.75,90.583 L291.25,90.583 C292.861,90.583 294.167,89.277 294.167,87.667 C294.167,86.056 292.861,84.75 291.25,84.75 Z M291.25,116.104 L265,116.104 C263.389,116.104 262.083,117.41 262.083,119.021 C262.083,120.632 263.389,121.938 265,121.938 L291.25,121.938 C292.861,121.938 294.167,120.632 294.167,119.021 C294.167,117.41 292.861,116.104 291.25,116.104 Z M291.25,131.417 L238.75,131.417 C237.139,131.417 235.833,132.723 235.833,134.333 C235.833,135.944 237.139,137.25 238.75,137.25 L291.25,137.25 C292.861,137.25 294.167,135.944 294.167,134.333 C294.167,132.723 292.861,131.417 291.25,131.417 Z M240.733,103.3 L252.012,111.758 C252.498,112.122 252.675,112.259 252.778,112.352 C252.708,112.289 252.581,112.127 252.463,111.826 C252.329,111.48 252.329,111.103 252.461,110.764 C252.582,110.453 252.709,110.292 252.779,110.229 C252.675,110.323 252.507,110.454 252.011,110.826 L240.733,119.283 C240,119.834 239.74,120.022 239.538,120.146 C239.594,120.111 239.798,120.035 240.23,120.042 C240.676,120.051 241.087,120.257 241.357,120.602 C241.625,120.943 241.687,121.156 241.693,121.226 C241.672,120.991 241.667,120.675 241.667,119.75 L241.667,102.833 C241.667,101.909 241.672,101.594 241.693,101.359 C241.687,101.426 241.626,101.636 241.36,101.978 C241.087,102.327 240.676,102.532 240.237,102.541 C239.798,102.549 239.594,102.472 239.538,102.437 C239.74,102.562 240,102.75 240.733,103.3 Z M244.233,98.633 C241.937,96.911 241.568,96.684 240.128,96.709 C238.805,96.735 237.571,97.352 236.761,98.389 C235.872,99.53 235.833,99.95 235.833,102.833 L235.833,119.75 C235.833,122.646 235.871,123.061 236.765,124.2 C237.571,125.231 238.805,125.848 240.121,125.874 C241.568,125.9 241.937,125.672 244.233,123.95 L255.512,115.492 C257.153,114.26 257.468,113.976 257.896,112.882 C258.294,111.857 258.294,110.727 257.898,109.708 C257.468,108.607 257.13,108.302 255.51,107.09 L244.233,98.633 Z" />
        </g>
        <g id="Regular-M" transform="translate(0,200)">
            <path d="M491.25,100.062 L465,100.062 C463.389,100.062 462.083,101.368 462.083,102.979 C462.083,104.59 463.389,105.896 465,105.896 L491.25,105.896 C492.861,105.896 494.167,104.59 494.167,102.979 C494.167,101.368 492.861,100.062 491.25,100.062 Z M491.25,84.75 L438.75,84.75 C437.139,84.75 435.833,86.056 435.833,87.667 C435.833,89.277 437.139,90.583 438.75,90.583 L491.25,90.583 C492.861,90.583 494.167,89.277 494.167,87.667 C494.167,86.056 492.861,84.75 491.25,84.75 Z M491.25,116.104 L465,116.104 C463.389,116.104 462.083,117.41 462.083,119.021 C462.083,120.632 463.389,121.938 465,121.938 L491.25,121.938 C492.861,121.938 494.167,120.632 494.167,119.021 C494.167,117.41 492.861,116.104 491.25,116.104 Z M491.25,131.417 L438.75,131.417 C437.139,131.417 435.833,132.723 435.833,134.333 C435.833,135.944 437.139,137.25 438.75,137.25 L491.25,137.25 C492.861,137.25 494.167,135.944 494.167,134.333 C494.167,132.723 492.861,131.417 491.25,131.417 Z M440.733,103.3 L452.012,111.758 C452.498,112.122 452.675,112.259 452.778,112.352 C452.708,112.289 452.581,112.127 452.463,111.826 C452.329,111.48 452.329,111.103 452.461,110.764 C452.582,110.453 452.709,110.292 452.779,110.229 C452.675,110.323 452.507,110.454 452.011,110.826 L440.733,119.283 C440,119.834 439.74,120.022 439.538,120.146 C439.594,120.111 439.798,120.035 440.23,120.042 C440.676,120.051 441.087,120.257 441.357,120.602 C441.625,120.943 441.687,121.156 441.693,121.226 C441.672,120.991 441.667,120.675 441.667,119.75 L441.667,102.833 C441.667,101.909 441.672,101.594 441.693,101.359 C441.687,101.426 441.626,101.636 441.36,101.978 C441.087,102.327 440.676,102.532 440.237,102.541 C439.798,102.549 439.594,102.472 439.538,102.437 C439.74,102.562 440,102.75 440.733,103.3 Z M444.233,98.633 C441.937,96.911 441.568,96.684 440.128,96.709 C438.805,96.735 437.571,97.352 436.761,98.389 C435.872,99.53 435.833,99.95 435.833,102.833 L435.833,119.75 C435.833,122.646 435.871,123.061 436.765,124.2 C437.571,125.231 438.805,125.848 440.121,125.874 C441.568,125.9 441.937,125.672 444.233,123.95 L455.512,115.492 C457.153,114.26 457.468,113.976 457.896,112.882 C458.294,111.857 458.294,110.727 457.898,109.708 C457.468,108.607 457.13,108.302 455.51,107.09 L444.233,98.633 Z" />
        </g>
        <g id="Black-M" transform="translate(0,200)">
            <path d="M691.25,100.062 L665,100.062 C663.389,100.062 662.083,101.368 662.083,102.979 C662.083,104.59 663.389,105.896 665,105.896 L691.25,105.896 C692.861,105.896 694.167,104.59 694.167,102.979 C694.167,101.368 692.861,100.062 691.25,100.062 Z M691.25,84.75 L638.75,84.75 C637.139,84.75 635.833,86.056 635.833,87.667 C635.833,89.277 637.139,90.583 638.75,90.583 L691.25,90.583 C692.861,90.583 694.167,89.277 694.167,87.667 C694.167,86.056 692.861,84.75 691.25,84.75 Z M691.25,116.104 L665,116.104 C663.389,116.104 662.083,117.41 662.083,119.021 C662.083,120.632 663.389,121.938 665,121.938 L691.25,121.938 C692.861,121.938 694.167,120.632 694.167,119.021 C694.167,117.41 692.861,116.104 691.25,116.104 Z M691.25,131.417 L638.75,131.417 C637.139,131.417 635.833,132.723 635.833,134.333 C635.833,135.944 637.139,137.25 638.75,137.25 L691.25,137.25 C692.861,137.25 694.167,135.944 694.167,134.333 C694.167,132.723 692.861,131.417 691.25,131.417 Z M640.733,103.3 L652.012,111.758 C652.498,112.122 652.675,112.259 652.778,112.352 C652.708,112.289 652.581,112.127 652.463,111.826 C652.329,111.48 652.329,111.103 652.461,110.764 C652.582,110.453 652.709,110.292 652.779,110.229 C652.675,110.323 652.507,110.454 652.011,110.826 L640.733,119.283 C640,119.834 639.74,120.022 639.538,120.146 C639.594,120.111 639.798,120.035 640.23,120.042 C640.676,120.051 641.087,120.257 641.357,120.602 C641.625,120.943 641.687,121.156 641.693,121.226 C641.672,120.991 641.667,120.675 641.667,119.75 L641.667,102.833 C641.667,101.909 641.672,101.594 641.693,101.359 C641.687,101.426 641.626,101.636 641.36,101.978 C641.087,102.327 640.676,102.532 640.237,102.541 C639.798,102.549 639.594,102.472 639.538,102.437 C639.74,102.562 640,102.75 640.733,103.3 Z M644.233,98.633 C641.937,96.911 641.568,96.684 640.128,96.709 C638.805,96.735 637.571,97.352 636.761,98.389 C635.872,99.53 635.833,99.95 635.833,102.833 L635.833,119.75 C635.833,122.646 635.871,123.061 636.765,124.2 C637.571,125.231 638.805,125.848 640.121,125.874 C641.568,125.9 641.937,125.672 644.233,123.95 L655.512,115.492 C657.153,114.26 657.468,113.976 657.896,112.882 C658.294,111.857 658.294,110.727 657.898,109.708 C657.468,108.607 657.13,108.302 655.51,107.09 L644.233,98.633 Z" />
        </g>
    </g>
</svg>