<?xml version="1.0" encoding="UTF-8"?>
<svg height="600" width="800" xmlns="http://www.w3.org/2000/svg" xmlns:xlink="http://www.w3.org/1999/xlink">
    <g id="Notes" font-family="LucidaGrande, 'Lucida Grande', sans-serif" font-size="13">
        <rect fill="white" height="600.0" width="800.0" x="0.0" y="0.0" />
        <g font-size="13">
            <text x="18.0" y="176.0">Small</text>
            <text x="18.0" y="376.0">Medium</text>
            <text x="18.0" y="576.0">Large</text>
        </g>
        <g font-size="9">
            <text x="250.0" y="30.0">Ultralight</text>
            <text x="450.0" y="30.0">Regular</text>
            <text x="650.0" y="30.0">Black</text>
            <text id="template-version" fill="#505050" text-anchor="end" x="785.0" y="575.0">Template v.3.0</text>
            <a href="https://github.com/swhitty/SwiftDraw">
                <text fill="#505050" text-anchor="end" x="785.0" y="590.0">https://github.com/swhitty/SwiftDraw</text>
            </a>
        </g>
    </g>
    <g id="Guides" stroke="rgb(39, 170, 225)" stroke-width="0.5">
        <path id="Capline-S" d="M18,76 l800,0" />
        <path id="H-reference" d="M85,145.755 L87.685,145.755 L113.369,79.287 L114.052,79.287 L114.052,76 L112.148,76 L85,145.755 Z M95.693,121.536 L130.996,121.536 L130.263,119.313 L96.474,119.313 L95.693,121.536 Z M139.15,145.755 L141.787,145.755 L114.638,76 L113.466,76 L113.466,79.287 L139.15,145.755 Z" stroke="none" transform="translate(0,200)" />
        <path id="Baseline-S" d="M18,146 l800,0" />
        <path id="left-margin-Ultralight-M" d="M230,256 l0,110" />
        <path id="right-margin-Ultralight-M" d="M300,256 l0,110" />
        <path id="left-margin-Regular-M" d="M430,256 l0,110" />
        <path id="right-margin-Regular-M" d="M500,256 l0,110" />
        <path id="left-margin-Black-M" d="M630,256 l0,110" />
        <path id="right-margin-Black-M" d="M700,256 l0,110" />
        <path id="Capline-M" d="M18,276 l800,0" />
        <path id="Baseline-M" d="M18,346 l800,0" />
        <path id="Capline-L" d="M18,476 l800,0" />
        <path id="Baseline-L" d="M18,546 l800,0" />
    </g>
    <g id="Symbols">
        <g id="Ultralight-M" transform="translate(0,200)">
            <path d="M245.438,107.229 L255.453,117.245 C256.398,118.189 256.64,118.405 257.319,118.732 C257.557,118.841 257.557,118.841 257.814,118.931 C258.686,119.219 259.647,119.219 260.533,118.926 C261.456,118.627 261.756,118.371 262.882,117.24 L271.247,108.881 C271.577,108.549 271.693,108.436 271.764,108.376 C271.69,108.439 271.534,108.536 271.282,108.618 C270.992,108.712 270.674,108.712 270.379,108.616 C270.133,108.536 269.977,108.439 269.903,108.376 C269.974,108.436 270.09,108.549 270.414,108.875 L280.438,118.896 C281.577,120.035 283.424,120.035 284.563,118.895 C285.702,117.756 285.701,115.91 284.562,114.771 L274.543,104.755 C273.423,103.629 273.123,103.373 272.186,103.069 C271.309,102.783 270.358,102.783 269.475,103.071 C268.544,103.373 268.244,103.629 267.118,104.76 L258.753,113.119 C258.423,113.451 258.307,113.564 258.236,113.624 C258.31,113.561 258.466,113.464 258.718,113.382 C259.007,113.287 259.327,113.287 259.629,113.387 C259.741,113.427 259.741,113.427 259.85,113.477 C260.038,113.567 259.921,113.463 259.578,113.12 L249.562,103.104 C248.423,101.965 246.577,101.965 245.438,103.104 C244.299,104.243 244.299,106.09 245.438,107.229 Z M291.25,111 C291.25,125.498 279.498,137.25 265,137.25 C250.502,137.25 238.75,125.498 238.75,111 C238.75,96.502 250.502,84.75 265,84.75 C279.498,84.75 291.25,96.502 291.25,111 Z M297.083,111 C297.083,93.28 282.72,78.917 265,78.917 C247.28,78.917 232.917,93.28 232.917,111 C232.917,128.72 247.28,143.083 265,143.083 C282.72,143.083 297.083,128.72 297.083,111 Z" />
        </g>
        <g id="Regular-M" transform="translate(0,200)">
            <path d="M445.438,107.229 L455.453,117.245 C456.398,118.189 456.64,118.405 457.319,118.732 C457.557,118.841 457.557,118.841 457.814,118.931 C458.686,119.219 459.647,119.219 460.533,118.926 C461.456,118.627 461.756,118.371 462.882,117.24 L471.247,108.881 C471.577,108.549 471.693,108.436 471.764,108.376 C471.69,108.439 471.534,108.536 471.282,108.618 C470.992,108.712 470.674,108.712 470.379,108.616 C470.133,108.536 469.977,108.439 469.903,108.376 C469.974,108.436 470.09,108.549 470.414,108.875 L480.438,118.896 C481.577,120.035 483.424,120.035 484.563,118.895 C485.702,117.756 485.701,115.91 484.562,114.771 L474.543,104.755 C473.423,103.629 473.123,103.373 472.186,103.069 C471.309,102.783 470.358,102.783 469.475,103.071 C468.544,103.373 468.244,103.629 467.118,104.76 L458.753,113.119 C458.423,113.451 458.307,113.564 458.236,113.624 C458.31,113.561 458.466,113.464 458.718,113.382 C459.007,113.287 459.327,113.287 459.629,113.387 C459.741,113.427 459.741,113.427 459.85,113.477 C460.038,113.567 459.921,113.463 459.578,113.12 L449.562,103.104 C448.423,101.965 446.577,101.965 445.438,103.104 C444.299,104.243 444.299,106.09 445.438,107.229 Z M491.25,111 C491.25,125.498 479.498,137.25 465,137.25 C450.502,137.25 438.75,125.498 438.75,111 C438.75,96.502 450.502,84.75 465,84.75 C479.498,84.75 491.25,96.502 491.25,111 Z M497.083,111 C497.083,93.28 482.72,78.917 465,78.917 C447.28,78.917 432.917,93.28 432.917,111 C432.917,128.72 447.28,143.083 465,143.083 C482.72,143.083 497.083,128.72 497.083,111 Z" />
        </g>
        <g id="Black-M" transform="translate(0,200)">
            <path d="M645.438,107.229 L655.453,117.245 C656.398,118.189 656.64,118.405 657.319,118.732 C657.557,118.841 657.557,118.841 657.814,118.931 C658.686,119.219 659.648,119.219 660.533,118.926 C661.456,118.627 661.756,118.371 662.882,117.24 L671.247,108.881 C671.577,108.549 671.693,108.436 671.764,108.376 C671.69,108.439 671.534,108.536 671.282,108.618 C670.992,108.712 670.674,108.712 670.379,108.616 C670.133,108.536 669.977,108.439 669.903,108.376 C669.974,108.436 670.09,108.549 670.414,108.875 L680.438,118.896 C681.577,120.035 683.424,120.035 684.563,118.895 C685.702,117.756 685.701,115.91 684.562,114.771 L674.543,104.755 C673.423,103.629 673.123,103.373 672.186,103.069 C671.309,102.783 670.358,102.783 669.475,103.071 C668.544,103.373 668.244,103.629 667.118,104.76 L658.753,113.119 C658.423,113.451 658.307,113.564 658.236,113.624 C658.31,113.561 658.466,113.464 658.718,113.382 C659.007,113.287 659.327,113.287 659.629,113.387 C659.741,113.427 659.741,113.427 659.85,113.477 C660.038,113.567 659.921,113.463 659.578,113.12 L649.562,103.104 C648.423,101.965 646.577,101.965 645.438,103.104 C644.299,104.243 644.299,106.09 645.438,107.229 Z M691.25,111 C691.25,125.498 679.498,137.25 665,137.25 C650.502,137.25 638.75,125.498 638.75,111 C638.75,96.502 650.502,84.75 665,84.75 C679.498,84.75 691.25,96.502 691.25,111 Z M697.083,111 C697.083,93.28 682.72,78.917 665,78.917 C647.28,78.917 632.917,93.28 632.917,111 C632.917,128.72 647.28,143.083 665,143.083 C682.72,143.083 697.083,128.72 697.083,111 Z" />
        </g>
    </g>
</svg>