<?xml version="1.0" encoding="UTF-8"?>
<svg height="600" width="800" xmlns="http://www.w3.org/2000/svg" xmlns:xlink="http://www.w3.org/1999/xlink">
    <g id="Notes" font-family="LucidaGrande, 'Lucida Grande', sans-serif" font-size="13">
        <rect fill="white" height="600.0" width="800.0" x="0.0" y="0.0" />
        <g font-size="13">
            <text x="18.0" y="176.0">Small</text>
            <text x="18.0" y="376.0">Medium</text>
            <text x="18.0" y="576.0">Large</text>
        </g>
        <g font-size="9">
            <text x="250.0" y="30.0">Ultralight</text>
            <text x="450.0" y="30.0">Regular</text>
            <text x="650.0" y="30.0">Black</text>
            <text id="template-version" fill="#505050" text-anchor="end" x="785.0" y="575.0">Template v.3.0</text>
            <a href="https://github.com/swhitty/SwiftDraw">
                <text fill="#505050" text-anchor="end" x="785.0" y="590.0">https://github.com/swhitty/SwiftDraw</text>
            </a>
        </g>
    </g>
    <g id="Guides" stroke="rgb(39, 170, 225)" stroke-width="0.5">
        <path id="Capline-S" d="M18,76 l800,0" />
        <path id="H-reference" d="M85,145.755 L87.685,145.755 L113.369,79.287 L114.052,79.287 L114.052,76 L112.148,76 L85,145.755 Z M95.693,121.536 L130.996,121.536 L130.263,119.313 L96.474,119.313 L95.693,121.536 Z M139.15,145.755 L141.787,145.755 L114.638,76 L113.466,76 L113.466,79.287 L139.15,145.755 Z" stroke="none" transform="translate(0,200)" />
        <path id="Baseline-S" d="M18,146 l800,0" />
        <path id="left-margin-Ultralight-M" d="M221,256 l0,110" />
        <path id="right-margin-Ultralight-M" d="M309,256 l0,110" />
        <path id="left-margin-Regular-M" d="M421,256 l0,110" />
        <path id="right-margin-Regular-M" d="M509,256 l0,110" />
        <path id="left-margin-Black-M" d="M621,256 l0,110" />
        <path id="right-margin-Black-M" d="M709,256 l0,110" />
        <path id="Capline-M" d="M18,276 l800,0" />
        <path id="Baseline-M" d="M18,346 l800,0" />
        <path id="Capline-L" d="M18,476 l800,0" />
        <path id="Baseline-L" d="M18,546 l800,0" />
    </g>
    <g id="Symbols">
        <g id="Ultralight-M" transform="translate(0,200)">
            <path d="M284.8,128.6 L248.72,128.6 C247.622,128.6 247.358,128.578 247.4,128.6 C247.4,128.6 247.4,128.6 247.4,128.6 C247.422,128.642 247.4,128.378 247.4,127.28 L247.4,91.2 C247.4,89.985 246.415,89 245.2,89 C243.985,89 243,89.985 243,91.2 L243,127.28 C243,129.262 243.038,129.731 243.479,130.597 C243.901,131.425 244.575,132.099 245.402,132.52 C246.269,132.962 246.738,133 248.72,133 L284.8,133 C286.015,133 287,132.015 287,130.8 C287,129.585 286.015,128.6 284.8,128.6 Z M284.205,116.096 L275.584,106.893 C274.952,106.219 274.756,106.038 274.212,105.788 C273.691,105.547 273.115,105.447 272.543,105.497 C272.487,105.503 272.487,105.503 272.463,105.506 C271.897,105.573 271.689,105.664 270.872,106.088 L263.703,109.806 C263.471,109.926 263.421,109.948 263.619,109.925 C263.63,109.924 263.63,109.924 263.641,109.922 C263.863,109.903 264.055,109.936 264.229,110.016 C264.303,110.052 264.303,110.052 264.385,110.102 C264.478,110.161 264.418,110.102 264.227,109.899 L255.605,100.696 C254.775,99.809 253.383,99.764 252.496,100.595 C251.609,101.425 251.564,102.817 252.395,103.704 L261.016,112.907 C261.536,113.461 261.661,113.584 262.024,113.815 C262.209,113.926 262.209,113.926 262.415,114.025 C262.909,114.253 263.485,114.353 264.057,114.303 C264.113,114.297 264.113,114.297 264.137,114.294 C264.703,114.227 264.911,114.136 265.728,113.712 L272.897,109.994 C273.129,109.874 273.179,109.852 272.981,109.875 C272.97,109.876 272.97,109.876 272.959,109.878 C272.737,109.897 272.545,109.864 272.371,109.784 C272.173,109.692 272.204,109.722 272.373,109.901 L280.995,119.104 C281.825,119.991 283.217,120.036 284.104,119.205 C284.991,118.375 285.036,116.983 284.205,116.096 Z" />
        </g>
        <g id="Regular-M" transform="translate(0,200)">
            <path d="M484.8,128.6 L448.72,128.6 C447.622,128.6 447.358,128.578 447.4,128.6 C447.4,128.6 447.4,128.6 447.4,128.6 C447.422,128.642 447.4,128.378 447.4,127.28 L447.4,91.2 C447.4,89.985 446.415,89 445.2,89 C443.985,89 443,89.985 443,91.2 L443,127.28 C443,129.262 443.038,129.731 443.479,130.597 C443.901,131.425 444.575,132.099 445.402,132.52 C446.269,132.962 446.738,133 448.72,133 L484.8,133 C486.015,133 487,132.015 487,130.8 C487,129.585 486.015,128.6 484.8,128.6 Z M484.205,116.096 L475.584,106.893 C474.952,106.219 474.756,106.038 474.212,105.788 C473.691,105.547 473.115,105.447 472.543,105.497 C472.487,105.503 472.487,105.503 472.463,105.506 C471.897,105.573 471.689,105.664 470.872,106.088 L463.703,109.806 C463.471,109.926 463.421,109.948 463.619,109.925 C463.63,109.924 463.63,109.924 463.641,109.922 C463.863,109.903 464.055,109.936 464.229,110.016 C464.303,110.052 464.303,110.052 464.385,110.102 C464.478,110.161 464.418,110.102 464.227,109.899 L455.605,100.696 C454.775,99.809 453.383,99.764 452.496,100.595 C451.609,101.425 451.564,102.817 452.395,103.704 L461.016,112.907 C461.536,113.461 461.661,113.584 462.024,113.815 C462.209,113.926 462.209,113.926 462.415,114.025 C462.909,114.253 463.485,114.353 464.057,114.303 C464.113,114.297 464.113,114.297 464.137,114.294 C464.703,114.227 464.911,114.136 465.728,113.712 L472.897,109.994 C473.129,109.874 473.179,109.852 472.981,109.875 C472.97,109.876 472.97,109.876 472.959,109.878 C472.737,109.897 472.545,109.864 472.371,109.784 C472.173,109.692 472.204,109.722 472.373,109.901 L480.995,119.104 C481.825,119.991 483.217,120.036 484.104,119.205 C484.991,118.375 485.036,116.983 484.205,116.096 Z" />
        </g>
        <g id="Black-M" transform="translate(0,200)">
            <path d="M684.8,128.6 L648.72,128.6 C647.622,128.6 647.358,128.578 647.4,128.6 C647.4,128.6 647.4,128.6 647.4,128.6 C647.422,128.642 647.4,128.378 647.4,127.28 L647.4,91.2 C647.4,89.985 646.415,89 645.2,89 C643.985,89 643,89.985 643,91.2 L643,127.28 C643,129.262 643.038,129.731 643.479,130.597 C643.901,131.425 644.575,132.099 645.402,132.52 C646.269,132.962 646.738,133 648.72,133 L684.8,133 C686.015,133 687,132.015 687,130.8 C687,129.585 686.015,128.6 684.8,128.6 Z M684.205,116.096 L675.584,106.893 C674.952,106.219 674.756,106.038 674.212,105.788 C673.691,105.547 673.115,105.447 672.543,105.497 C672.487,105.503 672.487,105.503 672.463,105.506 C671.897,105.573 671.689,105.664 670.872,106.088 L663.703,109.806 C663.471,109.926 663.421,109.948 663.619,109.925 C663.63,109.924 663.63,109.924 663.641,109.922 C663.863,109.903 664.055,109.936 664.229,110.016 C664.303,110.052 664.303,110.052 664.385,110.102 C664.478,110.161 664.418,110.102 664.227,109.899 L655.605,100.696 C654.775,99.809 653.383,99.764 652.496,100.595 C651.609,101.425 651.564,102.817 652.395,103.704 L661.016,112.907 C661.536,113.461 661.661,113.584 662.024,113.815 C662.209,113.926 662.209,113.926 662.415,114.025 C662.909,114.253 663.485,114.353 664.057,114.303 C664.113,114.297 664.113,114.297 664.137,114.294 C664.703,114.227 664.911,114.136 665.728,113.712 L672.897,109.994 C673.129,109.874 673.179,109.852 672.981,109.875 C672.97,109.876 672.97,109.876 672.958,109.878 C672.737,109.897 672.545,109.864 672.371,109.784 C672.172,109.692 672.204,109.722 672.373,109.901 L680.995,119.104 C681.825,119.991 683.217,120.036 684.104,119.205 C684.991,118.375 685.036,116.983 684.205,116.096 Z" />
        </g>
    </g>
</svg>