<?xml version="1.0" encoding="UTF-8"?>
<svg height="600" width="800" xmlns="http://www.w3.org/2000/svg" xmlns:xlink="http://www.w3.org/1999/xlink">
    <g id="Notes" font-family="LucidaGrande, 'Lucida Grande', sans-serif" font-size="13">
        <rect fill="white" height="600.0" width="800.0" x="0.0" y="0.0" />
        <g font-size="13">
            <text x="18.0" y="176.0">Small</text>
            <text x="18.0" y="376.0">Medium</text>
            <text x="18.0" y="576.0">Large</text>
        </g>
        <g font-size="9">
            <text x="250.0" y="30.0">Ultralight</text>
            <text x="450.0" y="30.0">Regular</text>
            <text x="650.0" y="30.0">Black</text>
            <text id="template-version" fill="#505050" text-anchor="end" x="785.0" y="575.0">Template v.3.0</text>
            <a href="https://github.com/swhitty/SwiftDraw">
                <text fill="#505050" text-anchor="end" x="785.0" y="590.0">https://github.com/swhitty/SwiftDraw</text>
            </a>
        </g>
    </g>
    <g id="Guides" stroke="rgb(39, 170, 225)" stroke-width="0.5">
        <path id="Capline-S" d="M18,76 l800,0" />
        <path id="H-reference" d="M85,145.755 L87.685,145.755 L113.369,79.287 L114.052,79.287 L114.052,76 L112.148,76 L85,145.755 Z M95.693,121.536 L130.996,121.536 L130.263,119.313 L96.474,119.313 L95.693,121.536 Z M139.15,145.755 L141.787,145.755 L114.638,76 L113.466,76 L113.466,79.287 L139.15,145.755 Z" stroke="none" transform="translate(0,200)" />
        <path id="Baseline-S" d="M18,146 l800,0" />
        <path id="left-margin-Ultralight-M" d="M230,256 l0,110" />
        <path id="right-margin-Ultralight-M" d="M300,256 l0,110" />
        <path id="left-margin-Regular-M" d="M430,256 l0,110" />
        <path id="right-margin-Regular-M" d="M500,256 l0,110" />
        <path id="left-margin-Black-M" d="M630,256 l0,110" />
        <path id="right-margin-Black-M" d="M700,256 l0,110" />
        <path id="Capline-M" d="M18,276 l800,0" />
        <path id="Baseline-M" d="M18,346 l800,0" />
        <path id="Capline-L" d="M18,476 l800,0" />
        <path id="Baseline-L" d="M18,546 l800,0" />
    </g>
    <g id="Symbols">
        <g id="Ultralight-M" transform="translate(0,200)">
            <path d="M258.636,85.545 L258.636,79.182 C258.636,77.425 257.212,76 255.455,76 C253.697,76 252.273,77.425 252.273,79.182 L252.273,85.545 C252.273,87.303 253.697,88.727 255.455,88.727 C257.212,88.727 258.636,87.303 258.636,85.545 Z M271.364,136.455 L271.364,142.818 C271.364,144.575 272.788,146 274.545,146 C276.303,146 277.727,144.575 277.727,142.818 L277.727,136.455 C277.727,134.697 276.303,133.273 274.545,133.273 C272.788,133.273 271.364,134.697 271.364,136.455 Z M239.545,98.273 L233.182,98.273 C231.425,98.273 230,99.697 230,101.455 C230,103.212 231.425,104.636 233.182,104.636 L239.545,104.636 C241.303,104.636 242.727,103.212 242.727,101.455 C242.727,99.697 241.303,98.273 239.545,98.273 Z M290.455,123.727 L296.818,123.727 C298.575,123.727 300,122.303 300,120.545 C300,118.788 298.575,117.364 296.818,117.364 L290.455,117.364 C288.697,117.364 287.273,118.788 287.273,120.545 C287.273,122.303 288.697,123.727 290.455,123.727 Z M244.704,86.204 L240.204,81.705 C238.962,80.462 236.947,80.462 235.705,81.705 C234.462,82.947 234.462,84.962 235.705,86.204 L240.204,90.704 C241.446,91.946 243.461,91.946 244.704,90.704 C245.946,89.461 245.946,87.446 244.704,86.204 Z M285.296,135.796 L289.796,140.295 C291.038,141.538 293.053,141.538 294.295,140.295 C295.538,139.053 295.538,137.038 294.295,135.796 L289.796,131.296 C288.554,130.054 286.539,130.054 285.296,131.296 C284.054,132.539 284.054,134.554 285.296,135.796 Z M262.75,126.75 L256.001,133.498 C253.59,135.911 250.074,136.854 246.78,135.971 C243.485,135.089 240.911,132.515 240.029,129.22 C239.146,125.926 240.089,122.41 242.501,119.999 L249.25,113.25 C250.493,112.007 250.493,109.993 249.25,108.75 C248.008,107.508 245.993,107.508 244.751,108.75 L238.002,115.499 C233.982,119.517 232.411,125.376 233.882,130.867 C235.353,136.358 239.642,140.647 245.133,142.118 C250.624,143.589 256.483,142.018 260.502,137.998 L267.25,131.249 C268.492,130.007 268.492,127.992 267.25,126.75 C266.007,125.507 263.993,125.507 262.75,126.75 Z M285.249,113.25 L291.998,106.501 C296.018,102.483 297.589,96.624 296.118,91.133 C294.647,85.642 290.358,81.353 284.867,79.882 C279.376,78.411 273.517,79.982 269.498,84.002 L262.75,90.751 C261.508,91.993 261.508,94.008 262.75,95.25 C263.993,96.493 266.007,96.493 267.25,95.25 L273.999,88.502 C276.41,86.089 279.926,85.146 283.22,86.029 C286.515,86.911 289.089,89.485 289.971,92.78 C290.854,96.074 289.911,99.59 287.499,102.001 L280.75,108.75 C279.507,109.993 279.507,112.007 280.75,113.25 C281.992,114.492 284.007,114.492 285.249,113.25 Z" />
        </g>
        <g id="Regular-M" transform="translate(0,200)">
            <path d="M458.636,85.545 L458.636,79.182 C458.636,77.425 457.212,76 455.455,76 C453.697,76 452.273,77.425 452.273,79.182 L452.273,85.545 C452.273,87.303 453.697,88.727 455.455,88.727 C457.212,88.727 458.636,87.303 458.636,85.545 Z M471.364,136.455 L471.364,142.818 C471.364,144.575 472.788,146 474.545,146 C476.303,146 477.727,144.575 477.727,142.818 L477.727,136.455 C477.727,134.697 476.303,133.273 474.545,133.273 C472.788,133.273 471.364,134.697 471.364,136.455 Z M439.545,98.273 L433.182,98.273 C431.425,98.273 430,99.697 430,101.455 C430,103.212 431.425,104.636 433.182,104.636 L439.545,104.636 C441.303,104.636 442.727,103.212 442.727,101.455 C442.727,99.697 441.303,98.273 439.545,98.273 Z M490.455,123.727 L496.818,123.727 C498.575,123.727 500,122.303 500,120.545 C500,118.788 498.575,117.364 496.818,117.364 L490.455,117.364 C488.697,117.364 487.273,118.788 487.273,120.545 C487.273,122.303 488.697,123.727 490.455,123.727 Z M444.704,86.204 L440.204,81.705 C438.962,80.462 436.947,80.462 435.705,81.705 C434.462,82.947 434.462,84.962 435.705,86.204 L440.204,90.704 C441.446,91.946 443.461,91.946 444.704,90.704 C445.946,89.461 445.946,87.446 444.704,86.204 Z M485.296,135.796 L489.796,140.295 C491.038,141.538 493.053,141.538 494.295,140.295 C495.538,139.053 495.538,137.038 494.295,135.796 L489.796,131.296 C488.554,130.054 486.539,130.054 485.296,131.296 C484.054,132.539 484.054,134.554 485.296,135.796 Z M462.75,126.75 L456.001,133.498 C453.59,135.911 450.074,136.854 446.78,135.971 C443.485,135.089 440.911,132.515 440.029,129.22 C439.146,125.926 440.089,122.41 442.501,119.999 L449.25,113.25 C450.493,112.007 450.493,109.993 449.25,108.75 C448.008,107.508 445.993,107.508 444.751,108.75 L438.002,115.499 C433.982,119.517 432.411,125.376 433.882,130.867 C435.353,136.358 439.642,140.647 445.133,142.118 C450.624,143.589 456.483,142.018 460.502,137.998 L467.25,131.249 C468.492,130.007 468.492,127.992 467.25,126.75 C466.007,125.507 463.993,125.507 462.75,126.75 Z M485.249,113.25 L491.998,106.501 C496.018,102.483 497.589,96.624 496.118,91.133 C494.647,85.642 490.358,81.353 484.867,79.882 C479.376,78.411 473.517,79.982 469.498,84.002 L462.75,90.751 C461.508,91.993 461.508,94.008 462.75,95.25 C463.993,96.493 466.007,96.493 467.25,95.25 L473.999,88.502 C476.41,86.089 479.926,85.146 483.22,86.029 C486.515,86.911 489.089,89.485 489.971,92.78 C490.854,96.074 489.911,99.59 487.499,102.001 L480.75,108.75 C479.507,109.993 479.507,112.007 480.75,113.25 C481.992,114.492 484.007,114.492 485.249,113.25 Z" />
        </g>
        <g id="Black-M" transform="translate(0,200)">
            <path d="M658.636,85.545 L658.636,79.182 C658.636,77.425 657.212,76 655.455,76 C653.697,76 652.273,77.425 652.273,79.182 L652.273,85.545 C652.273,87.303 653.697,88.727 655.455,88.727 C657.212,88.727 658.636,87.303 658.636,85.545 Z M671.364,136.455 L671.364,142.818 C671.364,144.575 672.788,146 674.545,146 C676.303,146 677.727,144.575 677.727,142.818 L677.727,136.455 C677.727,134.697 676.303,133.273 674.545,133.273 C672.788,133.273 671.364,134.697 671.364,136.455 Z M639.545,98.273 L633.182,98.273 C631.425,98.273 630,99.697 630,101.455 C630,103.212 631.425,104.636 633.182,104.636 L639.545,104.636 C641.303,104.636 642.727,103.212 642.727,101.455 C642.727,99.697 641.303,98.273 639.545,98.273 Z M690.455,123.727 L696.818,123.727 C698.575,123.727 700,122.303 700,120.545 C700,118.788 698.575,117.364 696.818,117.364 L690.455,117.364 C688.697,117.364 687.273,118.788 687.273,120.545 C687.273,122.303 688.697,123.727 690.455,123.727 Z M644.703,86.204 L640.204,81.705 C638.962,80.462 636.947,80.462 635.705,81.705 C634.462,82.947 634.462,84.962 635.705,86.204 L640.204,90.704 C641.446,91.946 643.461,91.946 644.703,90.704 C645.946,89.461 645.946,87.446 644.703,86.204 Z M685.297,135.796 L689.796,140.295 C691.038,141.538 693.053,141.538 694.295,140.295 C695.538,139.053 695.538,137.038 694.295,135.796 L689.796,131.296 C688.554,130.054 686.539,130.054 685.297,131.296 C684.054,132.539 684.054,134.554 685.297,135.796 Z M662.75,126.75 L656.001,133.498 C653.59,135.911 650.074,136.854 646.78,135.971 C643.485,135.089 640.911,132.515 640.029,129.22 C639.146,125.926 640.089,122.41 642.501,119.999 L649.25,113.25 C650.493,112.007 650.493,109.993 649.25,108.75 C648.008,107.508 645.993,107.508 644.751,108.75 L638.002,115.499 C633.982,119.517 632.411,125.376 633.882,130.867 C635.353,136.358 639.642,140.647 645.133,142.118 C650.624,143.589 656.483,142.018 660.502,137.998 L667.25,131.249 C668.492,130.007 668.492,127.992 667.25,126.75 C666.007,125.507 663.993,125.507 662.75,126.75 Z M685.249,113.25 L691.998,106.501 C696.018,102.483 697.589,96.624 696.118,91.133 C694.647,85.642 690.358,81.353 684.867,79.882 C679.376,78.411 673.517,79.982 669.498,84.002 L662.75,90.751 C661.508,91.993 661.508,94.008 662.75,95.25 C663.993,96.493 666.007,96.493 667.25,95.25 L673.999,88.502 C676.41,86.089 679.926,85.146 683.22,86.029 C686.515,86.911 689.089,89.485 689.971,92.78 C690.854,96.074 689.911,99.59 687.499,102.001 L680.75,108.75 C679.507,109.993 679.507,112.007 680.75,113.25 C681.992,114.492 684.007,114.492 685.249,113.25 Z" />
        </g>
    </g>
</svg>