<?xml version="1.0" encoding="UTF-8"?>
<svg height="600" width="800" xmlns="http://www.w3.org/2000/svg" xmlns:xlink="http://www.w3.org/1999/xlink">
    <g id="Notes" font-family="LucidaGrande, 'Lucida Grande', sans-serif" font-size="13">
        <rect fill="white" height="600.0" width="800.0" x="0.0" y="0.0" />
        <g font-size="13">
            <text x="18.0" y="176.0">Small</text>
            <text x="18.0" y="376.0">Medium</text>
            <text x="18.0" y="576.0">Large</text>
        </g>
        <g font-size="9">
            <text x="250.0" y="30.0">Ultralight</text>
            <text x="450.0" y="30.0">Regular</text>
            <text x="650.0" y="30.0">Black</text>
            <text id="template-version" fill="#505050" text-anchor="end" x="785.0" y="575.0">Template v.3.0</text>
            <a href="https://github.com/swhitty/SwiftDraw">
                <text fill="#505050" text-anchor="end" x="785.0" y="590.0">https://github.com/swhitty/SwiftDraw</text>
            </a>
        </g>
    </g>
    <g id="Guides" stroke="rgb(39, 170, 225)" stroke-width="0.5">
        <path id="Capline-S" d="M18,76 l800,0" />
        <path id="H-reference" d="M85,145.755 L87.685,145.755 L113.369,79.287 L114.052,79.287 L114.052,76 L112.148,76 L85,145.755 Z M95.693,121.536 L130.996,121.536 L130.263,119.313 L96.474,119.313 L95.693,121.536 Z M139.15,145.755 L141.787,145.755 L114.638,76 L113.466,76 L113.466,79.287 L139.15,145.755 Z" stroke="none" transform="translate(0,200)" />
        <path id="Baseline-S" d="M18,146 l800,0" />
        <path id="left-margin-Ultralight-M" d="M230,256 l0,110" />
        <path id="right-margin-Ultralight-M" d="M300,256 l0,110" />
        <path id="left-margin-Regular-M" d="M430,256 l0,110" />
        <path id="right-margin-Regular-M" d="M500,256 l0,110" />
        <path id="left-margin-Black-M" d="M630,256 l0,110" />
        <path id="right-margin-Black-M" d="M700,256 l0,110" />
        <path id="Capline-M" d="M18,276 l800,0" />
        <path id="Baseline-M" d="M18,346 l800,0" />
        <path id="Capline-L" d="M18,476 l800,0" />
        <path id="Baseline-L" d="M18,546 l800,0" />
    </g>
    <g id="Symbols">
        <g id="Ultralight-M" transform="translate(0,200)">
            <path d="M256.043,116.119 C259.377,120.581 264.484,123.374 270.038,123.772 C275.591,124.17 281.044,122.134 284.98,118.193 L294.574,108.59 C301.886,101.014 301.782,89.034 294.38,81.626 C286.978,74.217 275.009,74.113 267.48,81.392 L261.946,86.898 C260.693,88.144 260.687,90.171 261.932,91.425 C263.178,92.679 265.203,92.685 266.455,91.438 L271.956,85.964 C276.943,81.144 284.922,81.214 289.857,86.153 C294.791,91.092 294.861,99.078 290.012,104.102 L280.457,113.666 C277.832,116.294 274.197,117.651 270.495,117.386 C266.792,117.121 263.388,115.259 261.165,112.284 C260.107,110.868 258.102,110.579 256.688,111.638 C255.273,112.697 254.985,114.703 256.043,116.119 Z M273.957,105.881 C270.623,101.419 265.516,98.626 259.962,98.228 C254.409,97.83 248.956,99.866 245.02,103.807 L235.426,113.41 C228.114,120.986 228.219,132.966 235.62,140.374 C243.022,147.783 254.991,147.887 262.52,140.608 L268.029,135.095 C269.278,133.845 269.278,131.818 268.029,130.568 C266.78,129.318 264.755,129.318 263.506,130.568 L258.037,136.042 C253.057,140.856 245.078,140.786 240.143,135.847 C235.209,130.908 235.139,122.922 239.988,117.898 L249.543,108.334 C252.168,105.706 255.803,104.349 259.505,104.614 C263.207,104.879 266.612,106.741 268.835,109.716 C269.893,111.132 271.898,111.421 273.312,110.362 C274.727,109.303 275.015,107.297 273.957,105.881 Z" />
        </g>
        <g id="Regular-M" transform="translate(0,200)">
            <path d="M456.043,116.119 C459.377,120.581 464.484,123.374 470.038,123.772 C475.591,124.17 481.044,122.134 484.98,118.193 L494.574,108.59 C501.886,101.014 501.782,89.034 494.38,81.626 C486.978,74.217 475.009,74.113 467.48,81.392 L461.946,86.898 C460.693,88.144 460.687,90.171 461.932,91.425 C463.178,92.679 465.203,92.685 466.455,91.438 L471.956,85.964 C476.943,81.144 484.922,81.214 489.857,86.153 C494.791,91.092 494.861,99.078 490.012,104.102 L480.457,113.666 C477.832,116.294 474.197,117.651 470.495,117.386 C466.792,117.121 463.388,115.259 461.165,112.284 C460.107,110.868 458.102,110.579 456.688,111.638 C455.273,112.697 454.985,114.703 456.043,116.119 Z M473.957,105.881 C470.623,101.419 465.516,98.626 459.962,98.228 C454.409,97.83 448.956,99.866 445.02,103.807 L435.426,113.41 C428.115,120.986 428.219,132.966 435.62,140.374 C443.022,147.783 454.991,147.887 462.52,140.608 L468.029,135.095 C469.278,133.845 469.278,131.818 468.029,130.568 C466.78,129.318 464.755,129.318 463.506,130.568 L458.037,136.042 C453.057,140.856 445.078,140.786 440.143,135.847 C435.209,130.908 435.139,122.922 439.988,117.898 L449.543,108.334 C452.168,105.706 455.803,104.349 459.505,104.614 C463.207,104.879 466.612,106.741 468.835,109.716 C469.893,111.132 471.898,111.421 473.312,110.362 C474.727,109.303 475.015,107.297 473.957,105.881 Z" />
        </g>
        <g id="Black-M" transform="translate(0,200)">
            <path d="M656.043,116.119 C659.377,120.581 664.484,123.374 670.038,123.772 C675.591,124.17 681.044,122.134 684.98,118.193 L694.574,108.59 C701.886,101.014 701.781,89.034 694.38,81.626 C686.978,74.217 675.009,74.113 667.48,81.392 L661.946,86.898 C660.693,88.144 660.687,90.171 661.932,91.425 C663.178,92.679 665.203,92.685 666.455,91.438 L671.956,85.964 C676.943,81.144 684.922,81.214 689.857,86.153 C694.791,91.092 694.861,99.078 690.012,104.102 L680.457,113.666 C677.832,116.294 674.197,117.651 670.495,117.386 C666.792,117.121 663.388,115.259 661.165,112.284 C660.107,110.868 658.102,110.579 656.688,111.638 C655.273,112.697 654.984,114.703 656.043,116.119 Z M673.957,105.881 C670.623,101.419 665.516,98.626 659.962,98.228 C654.409,97.83 648.956,99.866 645.02,103.807 L635.426,113.41 C628.115,120.986 628.219,132.966 635.62,140.374 C643.022,147.783 654.991,147.887 662.52,140.608 L668.029,135.095 C669.278,133.845 669.278,131.818 668.029,130.568 C666.78,129.318 664.755,129.318 663.506,130.568 L658.037,136.042 C653.057,140.856 645.078,140.786 640.143,135.847 C635.209,130.908 635.139,122.922 639.988,117.898 L649.543,108.334 C652.168,105.706 655.803,104.349 659.505,104.614 C663.208,104.879 666.612,106.741 668.835,109.716 C669.893,111.132 671.898,111.421 673.312,110.362 C674.727,109.303 675.016,107.297 673.957,105.881 Z" />
        </g>
    </g>
</svg>