<?xml version="1.0" encoding="UTF-8"?>
<svg height="600" width="800" xmlns="http://www.w3.org/2000/svg" xmlns:xlink="http://www.w3.org/1999/xlink">
    <g id="Notes" font-family="LucidaGrande, 'Lucida Grande', sans-serif" font-size="13">
        <rect fill="white" height="600.0" width="800.0" x="0.0" y="0.0" />
        <g font-size="13">
            <text x="18.0" y="176.0">Small</text>
            <text x="18.0" y="376.0">Medium</text>
            <text x="18.0" y="576.0">Large</text>
        </g>
        <g font-size="9">
            <text x="250.0" y="30.0">Ultralight</text>
            <text x="450.0" y="30.0">Regular</text>
            <text x="650.0" y="30.0">Black</text>
            <text id="template-version" fill="#505050" text-anchor="end" x="785.0" y="575.0">Template v.3.0</text>
            <a href="https://github.com/swhitty/SwiftDraw">
                <text fill="#505050" text-anchor="end" x="785.0" y="590.0">https://github.com/swhitty/SwiftDraw</text>
            </a>
        </g>
    </g>
    <g id="Guides" stroke="rgb(39, 170, 225)" stroke-width="0.5">
        <path id="Capline-S" d="M18,76 l800,0" />
        <path id="H-reference" d="M85,145.755 L87.685,145.755 L113.369,79.287 L114.052,79.287 L114.052,76 L112.148,76 L85,145.755 Z M95.693,121.536 L130.996,121.536 L130.263,119.313 L96.474,119.313 L95.693,121.536 Z M139.15,145.755 L141.787,145.755 L114.638,76 L113.466,76 L113.466,79.287 L139.15,145.755 Z" stroke="none" transform="translate(0,200)" />
        <path id="Baseline-S" d="M18,146 l800,0" />
        <path id="left-margin-Ultralight-M" d="M221,256 l0,110" />
        <path id="right-margin-Ultralight-M" d="M309,256 l0,110" />
        <path id="left-margin-Regular-M" d="M421,256 l0,110" />
        <path id="right-margin-Regular-M" d="M509,256 l0,110" />
        <path id="left-margin-Black-M" d="M621,256 l0,110" />
        <path id="right-margin-Black-M" d="M709,256 l0,110" />
        <path id="Capline-M" d="M18,276 l800,0" />
        <path id="Baseline-M" d="M18,346 l800,0" />
        <path id="Capline-L" d="M18,476 l800,0" />
        <path id="Baseline-L" d="M18,546 l800,0" />
    </g>
    <g id="Symbols">
        <g id="Ultralight-M" transform="translate(0,200)">
            <path d="M256.2,108.806 L256.2,102.206 C256.196,97.682 259.618,93.894 264.116,93.439 C268.614,92.985 272.725,96.013 273.624,100.444 C273.866,101.635 275.027,102.404 276.218,102.162 C277.409,101.92 278.178,100.759 277.936,99.568 C276.587,92.923 270.421,88.38 263.674,89.062 C256.927,89.743 251.793,95.426 251.8,102.208 L251.8,108.806 C251.8,110.021 252.785,111.006 254,111.006 C255.215,111.006 256.2,110.021 256.2,108.806 Z M255.76,133.006 L274.24,133.006 C279.302,133.006 280.505,132.908 282.195,132.047 C283.851,131.203 285.197,129.857 286.041,128.201 C286.902,126.511 287,125.308 287,120.246 L287,119.366 C287,114.304 286.902,113.101 286.041,111.411 C285.197,109.755 283.851,108.409 282.195,107.565 C280.505,106.704 279.302,106.606 274.24,106.606 L255.76,106.606 C250.698,106.606 249.495,106.704 247.805,107.565 C246.149,108.409 244.803,109.755 243.959,111.411 C243.098,113.101 243,114.304 243,119.366 L243,120.246 C243,125.308 243.098,126.511 243.959,128.201 C244.803,129.857 246.149,131.203 247.805,132.047 C249.495,132.908 250.698,133.006 255.76,133.006 Z M255.76,128.606 C251.582,128.606 250.584,128.524 249.802,128.126 C248.975,127.704 248.301,127.031 247.88,126.204 C247.482,125.422 247.4,124.424 247.4,120.246 L247.4,119.366 C247.4,115.188 247.482,114.19 247.88,113.408 C248.301,112.58 248.975,111.907 249.802,111.486 C250.584,111.087 251.582,111.006 255.76,111.006 L274.24,111.006 C278.418,111.006 279.416,111.087 280.198,111.486 C281.025,111.907 281.699,112.58 282.12,113.408 C282.518,114.19 282.6,115.188 282.6,119.366 L282.6,120.246 C282.6,124.424 282.518,125.422 282.12,126.204 C281.699,127.031 281.025,127.704 280.198,128.126 C279.416,128.524 278.418,128.606 274.24,128.606 L255.76,128.606 Z" />
        </g>
        <g id="Regular-M" transform="translate(0,200)">
            <path d="M456.2,108.806 L456.2,102.206 C456.196,97.682 459.618,93.894 464.116,93.439 C468.614,92.985 472.725,96.013 473.624,100.444 C473.866,101.635 475.027,102.404 476.218,102.162 C477.409,101.92 478.178,100.759 477.936,99.568 C476.587,92.923 470.421,88.38 463.674,89.062 C456.927,89.743 451.793,95.426 451.8,102.208 L451.8,108.806 C451.8,110.021 452.785,111.006 454,111.006 C455.215,111.006 456.2,110.021 456.2,108.806 Z M455.76,133.006 L474.24,133.006 C479.302,133.006 480.505,132.908 482.195,132.047 C483.851,131.203 485.197,129.857 486.041,128.201 C486.902,126.511 487,125.308 487,120.246 L487,119.366 C487,114.304 486.902,113.101 486.041,111.411 C485.197,109.755 483.851,108.409 482.195,107.565 C480.505,106.704 479.302,106.606 474.24,106.606 L455.76,106.606 C450.698,106.606 449.495,106.704 447.805,107.565 C446.149,108.409 444.803,109.755 443.959,111.411 C443.098,113.101 443,114.304 443,119.366 L443,120.246 C443,125.308 443.098,126.511 443.959,128.201 C444.803,129.857 446.149,131.203 447.805,132.047 C449.495,132.908 450.698,133.006 455.76,133.006 Z M455.76,128.606 C451.582,128.606 450.584,128.524 449.802,128.126 C448.975,127.704 448.301,127.031 447.88,126.204 C447.482,125.422 447.4,124.424 447.4,120.246 L447.4,119.366 C447.4,115.188 447.482,114.19 447.88,113.408 C448.301,112.58 448.975,111.907 449.802,111.486 C450.584,111.087 451.582,111.006 455.76,111.006 L474.24,111.006 C478.418,111.006 479.416,111.087 480.198,111.486 C481.025,111.907 481.699,112.58 482.12,113.408 C482.518,114.19 482.6,115.188 482.6,119.366 L482.6,120.246 C482.6,124.424 482.518,125.422 482.12,126.204 C481.699,127.031 481.025,127.704 480.198,128.126 C479.416,128.524 478.418,128.606 474.24,128.606 L455.76,128.606 Z" />
        </g>
        <g id="Black-M" transform="translate(0,200)">
            <path d="M656.2,108.806 L656.2,102.206 C656.196,97.682 659.618,93.894 664.116,93.439 C668.614,92.985 672.724,96.013 673.624,100.444 C673.866,101.635 675.027,102.404 676.218,102.162 C677.409,101.92 678.178,100.759 677.936,99.568 C676.587,92.923 670.421,88.38 663.674,89.062 C656.926,89.743 651.793,95.426 651.8,102.208 L651.8,108.806 C651.8,110.021 652.785,111.006 654,111.006 C655.215,111.006 656.2,110.021 656.2,108.806 Z M655.76,133.006 L674.24,133.006 C679.302,133.006 680.505,132.908 682.195,132.047 C683.851,131.203 685.197,129.857 686.041,128.201 C686.902,126.511 687,125.308 687,120.246 L687,119.366 C687,114.304 686.902,113.101 686.041,111.411 C685.197,109.755 683.851,108.409 682.195,107.565 C680.505,106.704 679.302,106.606 674.24,106.606 L655.76,106.606 C650.698,106.606 649.495,106.704 647.805,107.565 C646.149,108.409 644.803,109.755 643.959,111.411 C643.098,113.101 643,114.304 643,119.366 L643,120.246 C643,125.308 643.098,126.511 643.959,128.201 C644.803,129.857 646.149,131.203 647.805,132.047 C649.495,132.908 650.698,133.006 655.76,133.006 Z M655.76,128.606 C651.582,128.606 650.584,128.524 649.802,128.126 C648.974,127.704 648.301,127.031 647.88,126.204 C647.482,125.422 647.4,124.424 647.4,120.246 L647.4,119.366 C647.4,115.188 647.482,114.19 647.88,113.408 C648.301,112.58 648.974,111.907 649.802,111.486 C650.584,111.087 651.582,111.006 655.76,111.006 L674.24,111.006 C678.418,111.006 679.416,111.087 680.198,111.486 C681.025,111.907 681.699,112.58 682.12,113.408 C682.518,114.19 682.6,115.188 682.6,119.366 L682.6,120.246 C682.6,124.424 682.518,125.422 682.12,126.204 C681.699,127.031 681.025,127.704 680.198,128.126 C679.416,128.524 678.418,128.606 674.24,128.606 L655.76,128.606 Z" />
        </g>
    </g>
</svg>