<?xml version="1.0" encoding="UTF-8"?>
<svg height="600" width="800" xmlns="http://www.w3.org/2000/svg" xmlns:xlink="http://www.w3.org/1999/xlink">
    <g id="Notes" font-family="LucidaGrande, 'Lucida Grande', sans-serif" font-size="13">
        <rect fill="white" height="600.0" width="800.0" x="0.0" y="0.0" />
        <g font-size="13">
            <text x="18.0" y="176.0">Small</text>
            <text x="18.0" y="376.0">Medium</text>
            <text x="18.0" y="576.0">Large</text>
        </g>
        <g font-size="9">
            <text x="250.0" y="30.0">Ultralight</text>
            <text x="450.0" y="30.0">Regular</text>
            <text x="650.0" y="30.0">Black</text>
            <text id="template-version" fill="#505050" text-anchor="end" x="785.0" y="575.0">Template v.3.0</text>
            <a href="https://github.com/swhitty/SwiftDraw">
                <text fill="#505050" text-anchor="end" x="785.0" y="590.0">https://github.com/swhitty/SwiftDraw</text>
            </a>
        </g>
    </g>
    <g id="Guides" stroke="rgb(39, 170, 225)" stroke-width="0.5">
        <path id="Capline-S" d="M18,76 l800,0" />
        <path id="H-reference" d="M85,145.755 L87.685,145.755 L113.369,79.287 L114.052,79.287 L114.052,76 L112.148,76 L85,145.755 Z M95.693,121.536 L130.996,121.536 L130.263,119.313 L96.474,119.313 L95.693,121.536 Z M139.15,145.755 L141.787,145.755 L114.638,76 L113.466,76 L113.466,79.287 L139.15,145.755 Z" stroke="none" transform="translate(0,200)" />
        <path id="Baseline-S" d="M18,146 l800,0" />
        <path id="left-margin-Ultralight-M" d="M230,256 l0,110" />
        <path id="right-margin-Ultralight-M" d="M300,256 l0,110" />
        <path id="left-margin-Regular-M" d="M430,256 l0,110" />
        <path id="right-margin-Regular-M" d="M500,256 l0,110" />
        <path id="left-margin-Black-M" d="M630,256 l0,110" />
        <path id="right-margin-Black-M" d="M700,256 l0,110" />
        <path id="Capline-M" d="M18,276 l800,0" />
        <path id="Baseline-M" d="M18,346 l800,0" />
        <path id="Capline-L" d="M18,476 l800,0" />
        <path id="Baseline-L" d="M18,546 l800,0" />
    </g>
    <g id="Symbols">
        <g id="Ultralight-M" transform="translate(0,200)">
            <path d="M268.815,85.637 L292.768,101.209 C293.441,101.647 293.628,101.776 293.7,101.84 C293.684,101.827 293.66,101.802 293.634,101.77 C293.637,101.774 293.637,101.774 293.637,101.774 C293.626,101.738 293.636,101.926 293.636,102.811 L293.636,126.134 C293.636,132.18 293.518,133.623 292.943,134.754 C292.333,135.949 291.36,136.922 290.163,137.531 C289.029,138.11 287.587,138.228 281.545,138.228 L248.455,138.228 C242.412,138.228 240.968,138.11 239.838,137.534 C238.641,136.925 237.667,135.951 237.057,134.754 C236.482,133.623 236.364,132.18 236.364,126.137 L236.364,102.808 C236.364,101.921 236.374,101.734 236.365,101.765 C236.362,101.775 236.362,101.775 236.362,101.775 C236.34,101.802 236.316,101.827 236.3,101.84 C236.372,101.776 236.559,101.647 237.233,101.209 L261.185,85.637 C262.658,84.679 263.076,82.709 262.119,81.235 C261.161,79.762 259.19,79.344 257.717,80.302 L233.764,95.874 C232.749,96.534 232.48,96.72 232.058,97.097 C231.849,97.283 231.658,97.48 231.481,97.692 C230.941,98.336 230.532,99.087 230.282,99.896 C230.025,100.738 230,101.172 230,102.808 L230,126.137 C230,133.458 230.142,135.198 231.387,137.642 C232.607,140.038 234.554,141.984 236.949,143.205 C239.394,144.45 241.133,144.592 248.455,144.592 L281.545,144.592 C288.868,144.592 290.609,144.449 293.054,143.2 C295.444,141.983 297.391,140.037 298.612,137.644 C299.858,135.198 300,133.459 300,126.134 L300,102.811 C300,101.168 299.976,100.736 299.719,99.903 C299.47,99.093 299.061,98.34 298.517,97.689 C298.342,97.48 298.151,97.283 297.942,97.097 C297.52,96.72 297.251,96.534 296.237,95.874 L272.283,80.302 C270.81,79.344 268.839,79.762 267.881,81.235 C266.924,82.709 267.342,84.679 268.815,85.637 Z M272.283,80.302 C269.408,78.434 268.644,78.005 267.183,77.661 C265.747,77.324 264.253,77.324 262.819,77.661 C261.356,78.005 260.592,78.434 257.717,80.302 C256.244,81.259 255.825,83.23 256.783,84.703 C257.74,86.177 259.711,86.595 261.185,85.638 C263.319,84.251 263.841,83.957 264.275,83.856 C264.751,83.744 265.249,83.744 265.727,83.856 C266.159,83.957 266.681,84.251 268.815,85.638 C270.289,86.595 272.26,86.177 273.217,84.703 C274.175,83.23 273.756,81.259 272.283,80.302 Z M268.815,85.637 L291.8,100.579 C292.548,101.066 292.802,101.249 292.732,101.164 C292.622,101.03 292.519,100.864 292.436,100.668 C292.269,100.269 292.269,99.824 292.435,99.429 C292.519,99.23 292.618,99.07 292.723,98.939 C292.799,98.844 292.541,99.032 291.798,99.515 L268.815,114.452 C266.761,115.787 266.231,116.092 265.796,116.219 C265.76,116.229 265.76,116.229 265.725,116.237 C265.252,116.348 264.75,116.348 264.267,116.236 C263.841,116.135 263.314,115.839 261.188,114.454 L238.199,99.514 C237.545,99.088 237.324,98.938 237.179,98.824 C237.253,98.882 237.406,99.055 237.56,99.418 C237.731,99.824 237.731,100.269 237.565,100.664 C237.481,100.864 237.378,101.03 237.268,101.164 C237.198,101.249 237.452,101.066 238.202,100.578 L261.185,85.637 C262.658,84.68 263.076,82.709 262.119,81.235 C261.161,79.762 259.19,79.344 257.717,80.302 L234.731,95.244 C233.212,96.233 232.893,96.463 232.347,97.129 C232.084,97.449 231.866,97.801 231.702,98.191 C231.202,99.379 231.202,100.714 231.7,101.898 C232.246,103.181 232.611,103.469 234.729,104.848 L257.717,119.788 C260.579,121.652 261.354,122.088 262.817,122.432 C264.257,122.767 265.747,122.767 267.177,122.433 C267.378,122.384 267.378,122.384 267.57,122.33 C268.873,121.952 269.581,121.544 272.283,119.788 L295.268,104.849 C296.791,103.858 297.132,103.61 297.682,102.927 C297.93,102.618 298.137,102.281 298.295,101.91 C298.798,100.714 298.798,99.379 298.3,98.195 C298.134,97.801 297.916,97.449 297.653,97.129 C297.107,96.463 296.788,96.233 295.271,95.245 L272.283,80.302 C270.81,79.344 268.839,79.762 267.881,81.235 C266.924,82.709 267.342,84.68 268.815,85.637 Z" />
        </g>
        <g id="Regular-M" transform="translate(0,200)">
            <path d="M468.815,85.637 L492.768,101.209 C493.441,101.647 493.628,101.776 493.7,101.84 C493.684,101.827 493.66,101.802 493.634,101.77 C493.637,101.774 493.637,101.774 493.637,101.774 C493.626,101.738 493.636,101.926 493.636,102.811 L493.636,126.134 C493.636,132.18 493.518,133.623 492.943,134.754 C492.333,135.949 491.36,136.922 490.163,137.531 C489.029,138.11 487.587,138.228 481.545,138.228 L448.455,138.228 C442.412,138.228 440.968,138.11 439.838,137.534 C438.641,136.925 437.667,135.951 437.057,134.754 C436.482,133.623 436.364,132.18 436.364,126.137 L436.364,102.808 C436.364,101.921 436.374,101.734 436.365,101.765 C436.362,101.775 436.362,101.775 436.362,101.775 C436.34,101.802 436.316,101.827 436.3,101.84 C436.372,101.776 436.559,101.647 437.233,101.209 L461.185,85.637 C462.658,84.679 463.076,82.709 462.119,81.235 C461.161,79.762 459.19,79.344 457.717,80.302 L433.764,95.874 C432.749,96.534 432.48,96.72 432.058,97.097 C431.849,97.283 431.658,97.48 431.481,97.692 C430.941,98.336 430.532,99.087 430.282,99.896 C430.025,100.738 430,101.172 430,102.808 L430,126.137 C430,133.458 430.142,135.198 431.387,137.642 C432.607,140.038 434.554,141.984 436.949,143.205 C439.394,144.45 441.133,144.592 448.455,144.592 L481.545,144.592 C488.868,144.592 490.609,144.449 493.054,143.2 C495.444,141.983 497.391,140.037 498.612,137.644 C499.858,135.198 500,133.459 500,126.134 L500,102.811 C500,101.168 499.976,100.736 499.719,99.903 C499.47,99.093 499.061,98.34 498.517,97.689 C498.342,97.48 498.151,97.283 497.942,97.097 C497.52,96.72 497.251,96.534 496.237,95.874 L472.283,80.302 C470.81,79.344 468.839,79.762 467.881,81.235 C466.924,82.709 467.342,84.679 468.815,85.637 Z M472.283,80.302 C469.408,78.434 468.644,78.005 467.183,77.661 C465.747,77.324 464.253,77.324 462.819,77.661 C461.356,78.005 460.592,78.434 457.717,80.302 C456.244,81.259 455.825,83.23 456.783,84.703 C457.74,86.177 459.711,86.595 461.185,85.638 C463.319,84.251 463.841,83.957 464.275,83.856 C464.751,83.744 465.249,83.744 465.727,83.856 C466.159,83.957 466.681,84.251 468.815,85.638 C470.289,86.595 472.26,86.177 473.217,84.703 C474.175,83.23 473.756,81.259 472.283,80.302 Z M468.815,85.637 L491.8,100.579 C492.548,101.066 492.802,101.249 492.732,101.164 C492.622,101.03 492.519,100.864 492.436,100.668 C492.269,100.269 492.269,99.824 492.435,99.429 C492.519,99.23 492.618,99.07 492.723,98.939 C492.799,98.844 492.541,99.032 491.798,99.515 L468.815,114.452 C466.761,115.787 466.231,116.092 465.796,116.219 C465.76,116.229 465.76,116.229 465.725,116.237 C465.252,116.348 464.75,116.348 464.267,116.236 C463.841,116.135 463.314,115.839 461.188,114.454 L438.199,99.514 C437.545,99.088 437.324,98.938 437.179,98.824 C437.253,98.882 437.406,99.055 437.56,99.418 C437.731,99.824 437.731,100.269 437.565,100.664 C437.481,100.864 437.378,101.03 437.268,101.164 C437.198,101.249 437.452,101.066 438.202,100.578 L461.185,85.637 C462.658,84.68 463.076,82.709 462.119,81.235 C461.161,79.762 459.19,79.344 457.717,80.302 L434.731,95.244 C433.212,96.233 432.893,96.463 432.347,97.129 C432.084,97.449 431.866,97.801 431.702,98.191 C431.202,99.379 431.202,100.714 431.7,101.898 C432.246,103.181 432.611,103.469 434.729,104.848 L457.717,119.788 C460.579,121.652 461.354,122.088 462.817,122.432 C464.257,122.767 465.747,122.767 467.177,122.433 C467.378,122.384 467.378,122.384 467.57,122.33 C468.873,121.952 469.581,121.544 472.283,119.788 L495.268,104.849 C496.791,103.858 497.132,103.61 497.682,102.927 C497.93,102.618 498.137,102.281 498.295,101.91 C498.798,100.714 498.798,99.379 498.3,98.195 C498.134,97.801 497.916,97.449 497.653,97.129 C497.107,96.463 496.788,96.233 495.271,95.245 L472.283,80.302 C470.81,79.344 468.839,79.762 467.881,81.235 C466.924,82.709 467.342,84.68 468.815,85.637 Z" />
        </g>
        <g id="Black-M" transform="translate(0,200)">
            <path d="M668.815,85.637 L692.768,101.209 C693.441,101.647 693.628,101.776 693.7,101.84 C693.684,101.827 693.66,101.802 693.634,101.77 C693.637,101.774 693.637,101.774 693.637,101.774 C693.626,101.738 693.636,101.926 693.636,102.811 L693.636,126.134 C693.636,132.18 693.518,133.623 692.943,134.754 C692.333,135.949 691.36,136.922 690.163,137.531 C689.029,138.11 687.587,138.228 681.545,138.228 L648.455,138.228 C642.412,138.228 640.968,138.11 639.838,137.534 C638.641,136.925 637.667,135.951 637.057,134.754 C636.482,133.623 636.364,132.18 636.364,126.137 L636.364,102.808 C636.364,101.921 636.374,101.734 636.365,101.765 C636.362,101.775 636.362,101.775 636.362,101.775 C636.34,101.802 636.316,101.827 636.3,101.84 C636.372,101.776 636.559,101.647 637.233,101.209 L661.185,85.637 C662.658,84.679 663.076,82.709 662.119,81.235 C661.161,79.762 659.19,79.344 657.717,80.302 L633.764,95.874 C632.749,96.534 632.48,96.72 632.058,97.097 C631.849,97.283 631.658,97.48 631.481,97.692 C630.941,98.336 630.532,99.087 630.282,99.896 C630.024,100.738 630,101.172 630,102.808 L630,126.137 C630,133.458 630.142,135.198 631.387,137.642 C632.607,140.038 634.554,141.984 636.949,143.205 C639.394,144.45 641.133,144.592 648.455,144.592 L681.545,144.592 C688.868,144.592 690.609,144.449 693.054,143.2 C695.444,141.983 697.391,140.037 698.612,137.644 C699.858,135.198 700,133.459 700,126.134 L700,102.811 C700,101.168 699.976,100.736 699.719,99.903 C699.47,99.093 699.061,98.34 698.517,97.689 C698.342,97.48 698.151,97.283 697.942,97.097 C697.52,96.72 697.251,96.534 696.237,95.874 L672.283,80.302 C670.81,79.344 668.839,79.762 667.881,81.235 C666.924,82.709 667.342,84.679 668.815,85.637 Z M672.283,80.302 C669.408,78.434 668.644,78.005 667.183,77.661 C665.747,77.324 664.253,77.324 662.819,77.661 C661.356,78.005 660.592,78.434 657.717,80.302 C656.244,81.259 655.825,83.23 656.783,84.703 C657.74,86.177 659.711,86.595 661.185,85.638 C663.319,84.251 663.841,83.957 664.275,83.856 C664.751,83.744 665.249,83.744 665.727,83.856 C666.159,83.957 666.681,84.251 668.815,85.638 C670.289,86.595 672.26,86.177 673.217,84.703 C674.175,83.23 673.756,81.259 672.283,80.302 Z M668.815,85.637 L691.8,100.579 C692.548,101.066 692.802,101.249 692.732,101.164 C692.622,101.03 692.519,100.864 692.436,100.668 C692.269,100.269 692.269,99.824 692.435,99.429 C692.519,99.23 692.618,99.07 692.723,98.939 C692.799,98.844 692.541,99.032 691.798,99.515 L668.815,114.452 C666.761,115.787 666.231,116.092 665.796,116.219 C665.76,116.229 665.76,116.229 665.725,116.237 C665.252,116.348 664.75,116.348 664.267,116.236 C663.841,116.135 663.315,115.839 661.188,114.454 L638.199,99.514 C637.545,99.088 637.324,98.938 637.179,98.824 C637.253,98.882 637.406,99.055 637.56,99.418 C637.731,99.824 637.731,100.269 637.565,100.664 C637.481,100.864 637.378,101.03 637.268,101.164 C637.198,101.249 637.452,101.066 638.202,100.578 L661.185,85.637 C662.658,84.68 663.076,82.709 662.119,81.235 C661.161,79.762 659.19,79.344 657.717,80.302 L634.731,95.244 C633.212,96.233 632.893,96.463 632.347,97.129 C632.084,97.449 631.866,97.801 631.702,98.191 C631.202,99.379 631.202,100.714 631.7,101.898 C632.246,103.181 632.611,103.469 634.729,104.848 L657.717,119.788 C660.579,121.652 661.354,122.088 662.817,122.432 C664.257,122.767 665.747,122.767 667.177,122.433 C667.378,122.384 667.378,122.384 667.57,122.33 C668.873,121.952 669.581,121.544 672.283,119.788 L695.268,104.849 C696.791,103.858 697.132,103.61 697.682,102.927 C697.93,102.618 698.137,102.281 698.295,101.91 C698.798,100.714 698.798,99.379 698.3,98.195 C698.134,97.801 697.916,97.449 697.653,97.129 C697.107,96.463 696.788,96.233 695.271,95.245 L672.283,80.302 C670.81,79.344 668.839,79.762 667.881,81.235 C666.924,82.709 667.342,84.68 668.815,85.637 Z" />
        </g>
    </g>
</svg>