<?xml version="1.0" encoding="UTF-8"?>
<svg height="600" width="800" xmlns="http://www.w3.org/2000/svg" xmlns:xlink="http://www.w3.org/1999/xlink">
    <g id="Notes" font-family="LucidaGrande, 'Lucida Grande', sans-serif" font-size="13">
        <rect fill="white" height="600.0" width="800.0" x="0.0" y="0.0" />
        <g font-size="13">
            <text x="18.0" y="176.0">Small</text>
            <text x="18.0" y="376.0">Medium</text>
            <text x="18.0" y="576.0">Large</text>
        </g>
        <g font-size="9">
            <text x="250.0" y="30.0">Ultralight</text>
            <text x="450.0" y="30.0">Regular</text>
            <text x="650.0" y="30.0">Black</text>
            <text id="template-version" fill="#505050" text-anchor="end" x="785.0" y="575.0">Template v.3.0</text>
            <a href="https://github.com/swhitty/SwiftDraw">
                <text fill="#505050" text-anchor="end" x="785.0" y="590.0">https://github.com/swhitty/SwiftDraw</text>
            </a>
        </g>
    </g>
    <g id="Guides" stroke="rgb(39, 170, 225)" stroke-width="0.5">
        <path id="Capline-S" d="M18,76 l800,0" />
        <path id="H-reference" d="M85,145.755 L87.685,145.755 L113.369,79.287 L114.052,79.287 L114.052,76 L112.148,76 L85,145.755 Z M95.693,121.536 L130.996,121.536 L130.263,119.313 L96.474,119.313 L95.693,121.536 Z M139.15,145.755 L141.787,145.755 L114.638,76 L113.466,76 L113.466,79.287 L139.15,145.755 Z" stroke="none" transform="translate(0,200)" />
        <path id="Baseline-S" d="M18,146 l800,0" />
        <path id="left-margin-Ultralight-M" d="M230,256 l0,110" />
        <path id="right-margin-Ultralight-M" d="M300,256 l0,110" />
        <path id="left-margin-Regular-M" d="M430,256 l0,110" />
        <path id="right-margin-Regular-M" d="M500,256 l0,110" />
        <path id="left-margin-Black-M" d="M630,256 l0,110" />
        <path id="right-margin-Black-M" d="M700,256 l0,110" />
        <path id="Capline-M" d="M18,276 l800,0" />
        <path id="Baseline-M" d="M18,346 l800,0" />
        <path id="Capline-L" d="M18,476 l800,0" />
        <path id="Baseline-L" d="M18,546 l800,0" />
    </g>
    <g id="Symbols">
        <g id="Ultralight-M" transform="translate(0,200)">
            <path d="M234.215,98.843 L249.365,108.944 C250.545,109.731 250.868,109.933 251.44,110.198 C251.52,110.235 251.52,110.235 251.602,110.271 C252.222,110.542 252.88,110.741 253.559,110.863 C254.249,110.986 254.648,111 256.16,111 L273.84,111 C275.352,111 275.751,110.986 276.435,110.864 C277.12,110.741 277.778,110.542 278.404,110.268 C278.488,110.232 278.488,110.232 278.582,110.188 C279.147,109.924 279.443,109.739 280.635,108.944 L295.785,98.843 C297.125,97.95 297.487,96.139 296.593,94.799 C295.7,93.458 293.889,93.096 292.549,93.99 L277.4,104.09 C276.507,104.686 276.295,104.818 276.113,104.903 C276.095,104.911 276.095,104.911 276.079,104.919 C275.863,105.013 275.641,105.08 275.404,105.123 C275.207,105.158 274.953,105.167 273.84,105.167 L256.16,105.167 C255.047,105.167 254.793,105.158 254.589,105.121 C254.359,105.08 254.137,105.013 253.934,104.924 C253.913,104.915 253.913,104.915 253.897,104.908 C253.711,104.821 253.486,104.681 252.6,104.09 L237.451,93.99 C236.111,93.096 234.3,93.458 233.407,94.799 C232.513,96.139 232.875,97.95 234.215,98.843 Z M249.833,137.25 L280.167,137.25 C286.878,137.25 288.473,137.12 290.713,135.979 C292.908,134.86 294.693,133.075 295.812,130.88 C296.953,128.639 297.083,127.044 297.083,120.333 L297.083,101.667 C297.083,94.956 296.953,93.361 295.812,91.12 C294.693,88.925 292.908,87.14 290.713,86.022 C288.473,84.88 286.878,84.75 280.167,84.75 L249.833,84.75 C243.122,84.75 241.527,84.88 239.287,86.021 C237.092,87.14 235.307,88.925 234.188,91.12 C233.047,93.361 232.917,94.956 232.917,101.667 L232.917,120.333 C232.917,127.044 233.047,128.639 234.188,130.88 C235.307,133.075 237.092,134.86 239.287,135.978 C241.527,137.12 243.122,137.25 249.833,137.25 Z M249.833,131.417 C244.294,131.417 242.971,131.309 241.935,130.781 C240.837,130.222 239.945,129.329 239.386,128.232 C238.858,127.196 238.75,125.872 238.75,120.333 L238.75,101.667 C238.75,96.128 238.858,94.804 239.386,93.768 C239.945,92.671 240.837,91.778 241.935,91.219 C242.971,90.691 244.294,90.583 249.833,90.583 L280.167,90.583 C285.706,90.583 287.029,90.691 288.065,91.219 C289.163,91.778 290.055,92.671 290.614,93.768 C291.142,94.804 291.25,96.128 291.25,101.667 L291.25,120.333 C291.25,125.872 291.142,127.196 290.614,128.232 C290.055,129.329 289.163,130.222 288.065,130.781 C287.029,131.309 285.706,131.417 280.167,131.417 L249.833,131.417 Z" />
        </g>
        <g id="Regular-M" transform="translate(0,200)">
            <path d="M434.215,98.843 L449.365,108.944 C450.545,109.731 450.868,109.933 451.44,110.198 C451.52,110.235 451.52,110.235 451.602,110.271 C452.222,110.542 452.88,110.741 453.559,110.863 C454.249,110.986 454.648,111 456.16,111 L473.84,111 C475.352,111 475.751,110.986 476.435,110.864 C477.12,110.741 477.778,110.542 478.404,110.268 C478.488,110.232 478.488,110.232 478.582,110.188 C479.147,109.924 479.443,109.739 480.635,108.944 L495.785,98.843 C497.125,97.95 497.487,96.139 496.593,94.799 C495.7,93.458 493.889,93.096 492.549,93.99 L477.4,104.09 C476.507,104.686 476.295,104.818 476.113,104.903 C476.095,104.911 476.095,104.911 476.079,104.919 C475.863,105.013 475.641,105.08 475.404,105.123 C475.207,105.158 474.953,105.167 473.84,105.167 L456.16,105.167 C455.047,105.167 454.793,105.158 454.589,105.121 C454.359,105.08 454.137,105.013 453.934,104.924 C453.913,104.915 453.913,104.915 453.897,104.908 C453.711,104.821 453.486,104.681 452.6,104.09 L437.451,93.99 C436.111,93.096 434.3,93.458 433.407,94.799 C432.513,96.139 432.875,97.95 434.215,98.843 Z M449.833,137.25 L480.167,137.25 C486.878,137.25 488.473,137.12 490.713,135.979 C492.908,134.86 494.693,133.075 495.812,130.88 C496.953,128.639 497.083,127.044 497.083,120.333 L497.083,101.667 C497.083,94.956 496.953,93.361 495.812,91.12 C494.693,88.925 492.908,87.14 490.713,86.022 C488.473,84.88 486.878,84.75 480.167,84.75 L449.833,84.75 C443.122,84.75 441.527,84.88 439.287,86.021 C437.092,87.14 435.307,88.925 434.188,91.12 C433.047,93.361 432.917,94.956 432.917,101.667 L432.917,120.333 C432.917,127.044 433.047,128.639 434.188,130.88 C435.307,133.075 437.092,134.86 439.287,135.978 C441.527,137.12 443.122,137.25 449.833,137.25 Z M449.833,131.417 C444.294,131.417 442.971,131.309 441.935,130.781 C440.837,130.222 439.945,129.329 439.386,128.232 C438.858,127.196 438.75,125.872 438.75,120.333 L438.75,101.667 C438.75,96.128 438.858,94.804 439.386,93.768 C439.945,92.671 440.837,91.778 441.935,91.219 C442.971,90.691 444.294,90.583 449.833,90.583 L480.167,90.583 C485.706,90.583 487.029,90.691 488.065,91.219 C489.163,91.778 490.055,92.671 490.614,93.768 C491.142,94.804 491.25,96.128 491.25,101.667 L491.25,120.333 C491.25,125.872 491.142,127.196 490.614,128.232 C490.055,129.329 489.163,130.222 488.065,130.781 C487.029,131.309 485.706,131.417 480.167,131.417 L449.833,131.417 Z" />
        </g>
        <g id="Black-M" transform="translate(0,200)">
            <path d="M634.215,98.843 L649.365,108.944 C650.545,109.731 650.868,109.933 651.44,110.198 C651.52,110.235 651.52,110.235 651.602,110.271 C652.222,110.542 652.88,110.741 653.559,110.863 C654.249,110.986 654.648,111 656.16,111 L673.84,111 C675.352,111 675.751,110.986 676.435,110.864 C677.12,110.741 677.778,110.542 678.404,110.268 C678.488,110.232 678.488,110.232 678.582,110.188 C679.147,109.924 679.443,109.739 680.635,108.944 L695.785,98.843 C697.125,97.95 697.487,96.139 696.593,94.799 C695.7,93.458 693.889,93.096 692.549,93.99 L677.4,104.09 C676.507,104.686 676.295,104.818 676.113,104.903 C676.095,104.911 676.095,104.911 676.078,104.919 C675.863,105.013 675.641,105.08 675.404,105.123 C675.207,105.158 674.953,105.167 673.84,105.167 L656.16,105.167 C655.047,105.167 654.793,105.158 654.589,105.121 C654.359,105.08 654.137,105.013 653.934,104.924 C653.913,104.915 653.913,104.915 653.897,104.908 C653.711,104.821 653.486,104.681 652.6,104.09 L637.451,93.99 C636.111,93.096 634.3,93.458 633.407,94.799 C632.513,96.139 632.875,97.95 634.215,98.843 Z M649.833,137.25 L680.167,137.25 C686.878,137.25 688.473,137.12 690.713,135.979 C692.908,134.86 694.693,133.075 695.812,130.88 C696.953,128.639 697.083,127.044 697.083,120.333 L697.083,101.667 C697.083,94.956 696.953,93.361 695.812,91.12 C694.693,88.925 692.908,87.14 690.713,86.022 C688.473,84.88 686.878,84.75 680.167,84.75 L649.833,84.75 C643.122,84.75 641.527,84.88 639.287,86.021 C637.092,87.14 635.307,88.925 634.188,91.12 C633.047,93.361 632.917,94.956 632.917,101.667 L632.917,120.333 C632.917,127.044 633.047,128.639 634.188,130.88 C635.307,133.075 637.092,134.86 639.287,135.978 C641.527,137.12 643.122,137.25 649.833,137.25 Z M649.833,131.417 C644.294,131.417 642.971,131.309 641.935,130.781 C640.837,130.222 639.945,129.329 639.386,128.232 C638.858,127.196 638.75,125.872 638.75,120.333 L638.75,101.667 C638.75,96.128 638.858,94.804 639.386,93.768 C639.945,92.671 640.837,91.778 641.935,91.219 C642.971,90.691 644.294,90.583 649.833,90.583 L680.167,90.583 C685.706,90.583 687.029,90.691 688.065,91.219 C689.163,91.778 690.055,92.671 690.614,93.768 C691.142,94.804 691.25,96.128 691.25,101.667 L691.25,120.333 C691.25,125.872 691.142,127.196 690.614,128.232 C690.055,129.329 689.163,130.222 688.065,130.781 C687.029,131.309 685.706,131.417 680.167,131.417 L649.833,131.417 Z" />
        </g>
    </g>
</svg>