<?xml version="1.0" encoding="UTF-8"?>
<svg height="600" width="800" xmlns="http://www.w3.org/2000/svg" xmlns:xlink="http://www.w3.org/1999/xlink">
    <g id="Notes" font-family="LucidaGrande, 'Lucida Grande', sans-serif" font-size="13">
        <rect fill="white" height="600.0" width="800.0" x="0.0" y="0.0" />
        <g font-size="13">
            <text x="18.0" y="176.0">Small</text>
            <text x="18.0" y="376.0">Medium</text>
            <text x="18.0" y="576.0">Large</text>
        </g>
        <g font-size="9">
            <text x="250.0" y="30.0">Ultralight</text>
            <text x="450.0" y="30.0">Regular</text>
            <text x="650.0" y="30.0">Black</text>
            <text id="template-version" fill="#505050" text-anchor="end" x="785.0" y="575.0">Template v.3.0</text>
            <a href="https://github.com/swhitty/SwiftDraw">
                <text fill="#505050" text-anchor="end" x="785.0" y="590.0">https://github.com/swhitty/SwiftDraw</text>
            </a>
        </g>
    </g>
    <g id="Guides" stroke="rgb(39, 170, 225)" stroke-width="0.5">
        <path id="Capline-S" d="M18,76 l800,0" />
        <path id="H-reference" d="M85,145.755 L87.685,145.755 L113.369,79.287 L114.052,79.287 L114.052,76 L112.148,76 L85,145.755 Z M95.693,121.536 L130.996,121.536 L130.263,119.313 L96.474,119.313 L95.693,121.536 Z M139.15,145.755 L141.787,145.755 L114.638,76 L113.466,76 L113.466,79.287 L139.15,145.755 Z" stroke="none" transform="translate(0,200)" />
        <path id="Baseline-S" d="M18,146 l800,0" />
        <path id="left-margin-Ultralight-M" d="M230,256 l0,110" />
        <path id="right-margin-Ultralight-M" d="M300,256 l0,110" />
        <path id="left-margin-Regular-M" d="M430,256 l0,110" />
        <path id="right-margin-Regular-M" d="M500,256 l0,110" />
        <path id="left-margin-Black-M" d="M630,256 l0,110" />
        <path id="right-margin-Black-M" d="M700,256 l0,110" />
        <path id="Capline-M" d="M18,276 l800,0" />
        <path id="Baseline-M" d="M18,346 l800,0" />
        <path id="Capline-L" d="M18,476 l800,0" />
        <path id="Baseline-L" d="M18,546 l800,0" />
    </g>
    <g id="Symbols">
        <g id="Ultralight-M" transform="translate(0,200)">
            <path d="M293,110.983 C293,120.31 288.366,129.017 280.635,134.221 C272.905,139.424 263.094,140.441 254.461,136.934 C253.289,136.459 253.103,136.389 252.582,136.271 C252.087,136.155 251.546,136.096 251.004,136.102 C250.279,136.136 249.687,136.211 249.103,136.332 L236.784,138.383 C236.013,138.511 235.748,138.55 235.57,138.564 C235.685,138.555 235.94,138.581 236.32,138.746 C236.724,138.919 237.052,139.247 237.229,139.659 C237.39,140.034 237.416,140.287 237.407,140.4 C237.42,140.223 237.459,139.96 237.588,139.185 L239.664,126.734 C239.833,125.715 239.869,125.455 239.869,124.923 C239.875,124.425 239.816,123.884 239.692,123.356 C239.582,122.867 239.512,122.681 239.039,121.513 C234.81,111.047 237.282,99.063 245.308,91.122 C253.334,83.181 265.344,80.838 275.767,85.18 C286.189,89.521 292.985,99.698 293,110.988 Z M300,110.978 C299.981,96.865 291.487,84.145 278.458,78.718 C265.43,73.291 250.418,76.22 240.385,86.146 C230.352,96.072 227.263,111.053 232.55,124.138 C232.812,124.785 232.878,124.962 232.87,124.925 C232.872,124.932 232.869,124.906 232.869,124.879 C232.869,124.9 232.851,125.028 232.759,125.583 L230.683,138.036 C230.261,140.578 230.223,141.085 230.797,142.422 C231.328,143.658 232.313,144.642 233.548,145.173 C234.879,145.749 235.387,145.711 237.933,145.288 L250.387,143.212 C250.752,143.139 250.986,143.109 251.221,143.098 C251.065,143.102 251.039,143.099 251.014,143.093 C251.009,143.092 251.186,143.159 251.83,143.42 C262.617,147.803 274.882,146.532 284.544,140.028 C294.207,133.523 300,122.639 300,110.983 Z" />
        </g>
        <g id="Regular-M" transform="translate(0,200)">
            <path d="M493,110.983 C493,120.31 488.366,129.017 480.635,134.221 C472.905,139.424 463.094,140.441 454.461,136.934 C453.289,136.459 453.103,136.389 452.582,136.271 C452.087,136.155 451.546,136.096 451.004,136.102 C450.279,136.136 449.687,136.211 449.103,136.332 L436.784,138.383 C436.013,138.511 435.748,138.55 435.57,138.564 C435.685,138.555 435.94,138.581 436.32,138.746 C436.724,138.919 437.052,139.247 437.229,139.659 C437.39,140.034 437.416,140.287 437.407,140.4 C437.42,140.223 437.459,139.96 437.588,139.185 L439.664,126.734 C439.833,125.715 439.869,125.455 439.869,124.923 C439.875,124.425 439.816,123.884 439.692,123.356 C439.582,122.867 439.512,122.681 439.039,121.513 C434.81,111.047 437.282,99.063 445.308,91.122 C453.334,83.181 465.344,80.838 475.767,85.18 C486.189,89.521 492.985,99.698 493,110.988 Z M500,110.978 C499.981,96.865 491.487,84.145 478.458,78.718 C465.43,73.291 450.418,76.22 440.385,86.146 C430.352,96.072 427.263,111.053 432.55,124.138 C432.812,124.785 432.878,124.962 432.87,124.925 C432.872,124.932 432.869,124.906 432.869,124.879 C432.869,124.9 432.851,125.028 432.759,125.583 L430.683,138.036 C430.261,140.578 430.223,141.085 430.797,142.422 C431.328,143.658 432.313,144.642 433.548,145.173 C434.879,145.749 435.387,145.711 437.933,145.288 L450.387,143.212 C450.752,143.139 450.986,143.109 451.221,143.098 C451.065,143.102 451.039,143.099 451.014,143.093 C451.009,143.092 451.186,143.159 451.83,143.42 C462.617,147.803 474.882,146.532 484.544,140.028 C494.207,133.523 500,122.639 500,110.983 Z" />
        </g>
        <g id="Black-M" transform="translate(0,200)">
            <path d="M693,110.983 C693,120.31 688.366,129.017 680.635,134.221 C672.905,139.424 663.094,140.441 654.461,136.934 C653.289,136.459 653.103,136.389 652.582,136.271 C652.087,136.155 651.546,136.096 651.004,136.102 C650.279,136.136 649.687,136.211 649.103,136.332 L636.784,138.383 C636.013,138.511 635.748,138.55 635.57,138.564 C635.685,138.555 635.94,138.581 636.32,138.746 C636.724,138.919 637.052,139.247 637.229,139.659 C637.39,140.034 637.416,140.287 637.407,140.4 C637.42,140.223 637.459,139.96 637.588,139.185 L639.664,126.734 C639.833,125.715 639.869,125.455 639.869,124.923 C639.875,124.425 639.816,123.884 639.692,123.356 C639.582,122.867 639.512,122.681 639.039,121.513 C634.81,111.047 637.282,99.063 645.308,91.122 C653.334,83.181 665.344,80.838 675.767,85.18 C686.189,89.521 692.984,99.698 693,110.988 Z M700,110.978 C699.981,96.865 691.487,84.145 678.458,78.718 C665.43,73.291 650.418,76.22 640.385,86.146 C630.352,96.072 627.263,111.053 632.55,124.138 C632.812,124.785 632.878,124.962 632.87,124.925 C632.872,124.932 632.869,124.906 632.869,124.879 C632.869,124.9 632.851,125.028 632.759,125.583 L630.683,138.036 C630.261,140.578 630.223,141.085 630.797,142.422 C631.328,143.658 632.313,144.642 633.548,145.173 C634.879,145.749 635.387,145.711 637.933,145.288 L650.387,143.212 C650.752,143.139 650.986,143.109 651.221,143.098 C651.065,143.102 651.039,143.099 651.014,143.093 C651.009,143.092 651.186,143.159 651.83,143.42 C662.617,147.803 674.882,146.532 684.544,140.028 C694.207,133.523 700,122.639 700,110.983 Z" />
        </g>
    </g>
</svg>