<?xml version="1.0" encoding="UTF-8"?>
<svg height="600" width="800" xmlns="http://www.w3.org/2000/svg" xmlns:xlink="http://www.w3.org/1999/xlink">
    <g id="Notes" font-family="LucidaGrande, 'Lucida Grande', sans-serif" font-size="13">
        <rect fill="white" height="600.0" width="800.0" x="0.0" y="0.0" />
        <g font-size="13">
            <text x="18.0" y="176.0">Small</text>
            <text x="18.0" y="376.0">Medium</text>
            <text x="18.0" y="576.0">Large</text>
        </g>
        <g font-size="9">
            <text x="250.0" y="30.0">Ultralight</text>
            <text x="450.0" y="30.0">Regular</text>
            <text x="650.0" y="30.0">Black</text>
            <text id="template-version" fill="#505050" text-anchor="end" x="785.0" y="575.0">Template v.3.0</text>
            <a href="https://github.com/swhitty/SwiftDraw">
                <text fill="#505050" text-anchor="end" x="785.0" y="590.0">https://github.com/swhitty/SwiftDraw</text>
            </a>
        </g>
    </g>
    <g id="Guides" stroke="rgb(39, 170, 225)" stroke-width="0.5">
        <path id="Capline-S" d="M18,76 l800,0" />
        <path id="H-reference" d="M85,145.755 L87.685,145.755 L113.369,79.287 L114.052,79.287 L114.052,76 L112.148,76 L85,145.755 Z M95.693,121.536 L130.996,121.536 L130.263,119.313 L96.474,119.313 L95.693,121.536 Z M139.15,145.755 L141.787,145.755 L114.638,76 L113.466,76 L113.466,79.287 L139.15,145.755 Z" stroke="none" transform="translate(0,200)" />
        <path id="Baseline-S" d="M18,146 l800,0" />
        <path id="left-margin-Ultralight-M" d="M230,256 l0,110" />
        <path id="right-margin-Ultralight-M" d="M300,256 l0,110" />
        <path id="left-margin-Regular-M" d="M430,256 l0,110" />
        <path id="right-margin-Regular-M" d="M500,256 l0,110" />
        <path id="left-margin-Black-M" d="M630,256 l0,110" />
        <path id="right-margin-Black-M" d="M700,256 l0,110" />
        <path id="Capline-M" d="M18,276 l800,0" />
        <path id="Baseline-M" d="M18,346 l800,0" />
        <path id="Capline-L" d="M18,476 l800,0" />
        <path id="Baseline-L" d="M18,546 l800,0" />
    </g>
    <g id="Symbols">
        <g id="Ultralight-M" transform="translate(0,200)">
            <path d="M241.667,98.75 C241.667,93.211 241.775,91.888 242.303,90.851 C242.862,89.754 243.754,88.862 244.852,88.303 C245.888,87.775 247.211,87.667 252.75,87.667 L277.25,87.667 C282.789,87.667 284.112,87.775 285.149,88.303 C286.246,88.862 287.138,89.754 287.698,90.852 C288.225,91.888 288.333,93.211 288.333,98.75 L288.333,114.5 C288.333,120.039 288.225,121.362 287.697,122.399 C287.138,123.496 286.246,124.388 285.148,124.948 C284.112,125.475 282.789,125.583 277.25,125.583 L269.912,125.583 C267.408,125.583 266.762,125.609 265.727,125.82 C264.694,126.032 263.698,126.381 262.763,126.859 C261.813,127.348 261.258,127.757 259.341,129.292 L252.386,134.856 C251.63,135.462 251.376,135.658 251.17,135.794 C251.223,135.759 251.427,135.675 251.875,135.675 C252.322,135.676 252.74,135.877 253.017,136.223 C253.293,136.567 253.355,136.78 253.361,136.845 C253.339,136.599 253.333,136.272 253.333,135.313 L253.333,128.5 C253.333,126.889 252.027,125.583 250.417,125.583 C247.352,125.583 246.604,125.549 245.991,125.385 C243.977,124.846 242.404,123.274 241.865,121.261 C241.701,120.647 241.667,119.899 241.667,116.833 L241.667,98.75 Z M235.833,98.75 L235.833,116.833 C235.833,120.549 235.874,121.436 236.23,122.769 C237.31,126.798 240.456,129.942 244.483,131.02 C245.814,131.376 246.7,131.417 250.417,131.417 L250.417,128.5 L247.5,128.5 L247.5,135.313 C247.5,138.298 247.538,138.718 248.463,139.869 C249.287,140.901 250.543,141.506 251.871,141.508 C253.351,141.508 253.691,141.283 256.031,139.41 L262.987,133.846 C264.56,132.586 264.97,132.284 265.425,132.05 C265.885,131.815 266.382,131.641 266.896,131.535 C267.383,131.436 267.865,131.417 269.912,131.417 L277.25,131.417 C283.961,131.417 285.556,131.286 287.796,130.145 C289.992,129.027 291.776,127.242 292.895,125.047 C294.036,122.806 294.167,121.211 294.167,114.5 L294.167,98.75 C294.167,92.039 294.036,90.444 292.895,88.204 C291.777,86.008 289.992,84.223 287.797,83.105 C285.556,81.964 283.961,81.833 277.25,81.833 L252.75,81.833 C246.039,81.833 244.444,81.964 242.204,83.105 C240.008,84.224 238.224,86.008 237.105,88.203 C235.964,90.444 235.833,92.039 235.833,98.75 Z" />
            <path d="M267.197,96.55 C263.445,92.214 257.254,91.417 252.823,95.156 C248.354,98.928 247.671,105.345 251.242,109.884 C252.738,111.786 255.896,114.827 260.025,118.529 C261.403,119.764 261.786,120.073 262.587,120.453 C262.824,120.565 263.066,120.658 263.316,120.733 C264.393,121.057 265.589,121.057 266.671,120.732 C267.807,120.391 268.282,120.03 269.956,118.53 C274.107,114.808 277.246,111.786 278.742,109.882 C280.471,107.733 281.285,104.951 280.982,102.174 C280.679,99.398 279.285,96.856 277.106,95.109 C272.645,91.45 266.528,92.227 262.787,96.546 C262.327,97.077 262.074,97.756 262.075,98.458 L262.075,98.461 L264.991,98.458 L267.197,96.55 Z M262.786,100.367 C264.554,102.41 267.91,101.158 267.908,98.456 L267.908,98.453 L264.991,98.455 L267.196,100.365 C268.934,98.358 271.476,98.035 273.431,99.64 C274.427,100.439 275.048,101.571 275.183,102.807 C275.318,104.043 274.955,105.283 274.176,106.252 C272.953,107.808 269.926,110.723 266.063,114.186 C265.153,115.002 264.945,115.16 264.992,115.145 C265.006,115.141 264.977,115.141 264.991,115.146 C265.024,115.155 265.058,115.169 265.086,115.182 C265.02,115.151 264.774,114.952 263.919,114.186 C260.075,110.739 257.03,107.808 255.827,106.278 C254.207,104.217 254.51,101.365 256.585,99.614 C258.471,98.023 261.044,98.354 262.786,100.367 Z" />
        </g>
        <g id="Regular-M" transform="translate(0,200)">
            <path d="M441.667,98.75 C441.667,93.211 441.775,91.888 442.303,90.851 C442.862,89.754 443.754,88.862 444.852,88.303 C445.888,87.775 447.211,87.667 452.75,87.667 L477.25,87.667 C482.789,87.667 484.112,87.775 485.149,88.303 C486.246,88.862 487.138,89.754 487.698,90.852 C488.225,91.888 488.333,93.211 488.333,98.75 L488.333,114.5 C488.333,120.039 488.225,121.362 487.697,122.399 C487.138,123.496 486.246,124.388 485.148,124.948 C484.112,125.475 482.789,125.583 477.25,125.583 L469.912,125.583 C467.408,125.583 466.762,125.609 465.727,125.82 C464.694,126.032 463.698,126.381 462.763,126.859 C461.813,127.348 461.258,127.757 459.341,129.292 L452.386,134.856 C451.63,135.462 451.376,135.658 451.17,135.794 C451.223,135.759 451.427,135.675 451.875,135.675 C452.322,135.676 452.74,135.877 453.017,136.223 C453.293,136.567 453.355,136.78 453.361,136.845 C453.339,136.599 453.333,136.272 453.333,135.313 L453.333,128.5 C453.333,126.889 452.027,125.583 450.417,125.583 C447.352,125.583 446.604,125.549 445.991,125.385 C443.977,124.846 442.404,123.274 441.865,121.261 C441.701,120.647 441.667,119.899 441.667,116.833 L441.667,98.75 Z M435.833,98.75 L435.833,116.833 C435.833,120.549 435.874,121.436 436.23,122.769 C437.31,126.798 440.456,129.942 444.483,131.02 C445.814,131.376 446.7,131.417 450.417,131.417 L450.417,128.5 L447.5,128.5 L447.5,135.313 C447.5,138.298 447.538,138.718 448.463,139.869 C449.287,140.901 450.543,141.506 451.871,141.508 C453.351,141.508 453.691,141.283 456.031,139.41 L462.987,133.846 C464.56,132.586 464.97,132.284 465.425,132.05 C465.885,131.815 466.382,131.641 466.896,131.535 C467.383,131.436 467.865,131.417 469.912,131.417 L477.25,131.417 C483.961,131.417 485.556,131.286 487.796,130.145 C489.992,129.027 491.776,127.242 492.895,125.047 C494.036,122.806 494.167,121.211 494.167,114.5 L494.167,98.75 C494.167,92.039 494.036,90.444 492.895,88.204 C491.777,86.008 489.992,84.223 487.797,83.105 C485.556,81.964 483.961,81.833 477.25,81.833 L452.75,81.833 C446.039,81.833 444.444,81.964 442.204,83.105 C440.008,84.224 438.224,86.008 437.105,88.203 C435.964,90.444 435.833,92.039 435.833,98.75 Z" />
            <path d="M467.197,96.55 C463.445,92.214 457.254,91.417 452.823,95.156 C448.354,98.928 447.672,105.345 451.242,109.884 C452.738,111.786 455.896,114.827 460.025,118.529 C461.403,119.764 461.786,120.073 462.587,120.453 C462.824,120.565 463.066,120.658 463.316,120.733 C464.393,121.057 465.589,121.057 466.671,120.732 C467.807,120.391 468.282,120.03 469.956,118.53 C474.107,114.808 477.246,111.786 478.742,109.882 C480.471,107.733 481.285,104.951 480.982,102.174 C480.679,99.398 479.285,96.856 477.106,95.109 C472.645,91.45 466.528,92.227 462.787,96.546 C462.327,97.077 462.074,97.756 462.075,98.458 L462.075,98.461 L464.991,98.458 L467.197,96.55 Z M462.786,100.367 C464.554,102.41 467.91,101.158 467.908,98.456 L467.908,98.453 L464.991,98.455 L467.196,100.365 C468.934,98.358 471.476,98.035 473.431,99.64 C474.427,100.439 475.048,101.571 475.183,102.807 C475.318,104.043 474.955,105.283 474.176,106.252 C472.953,107.808 469.926,110.723 466.063,114.186 C465.153,115.002 464.945,115.16 464.992,115.145 C465.006,115.141 464.977,115.141 464.991,115.146 C465.024,115.155 465.058,115.169 465.086,115.182 C465.02,115.151 464.774,114.952 463.919,114.186 C460.075,110.739 457.03,107.808 455.827,106.278 C454.207,104.217 454.51,101.365 456.585,99.614 C458.471,98.023 461.044,98.354 462.786,100.367 Z" />
        </g>
        <g id="Black-M" transform="translate(0,200)">
            <path d="M641.667,98.75 C641.667,93.211 641.775,91.888 642.303,90.851 C642.862,89.754 643.754,88.862 644.852,88.303 C645.888,87.775 647.211,87.667 652.75,87.667 L677.25,87.667 C682.789,87.667 684.112,87.775 685.149,88.303 C686.246,88.862 687.138,89.754 687.698,90.852 C688.225,91.888 688.333,93.211 688.333,98.75 L688.333,114.5 C688.333,120.039 688.225,121.362 687.697,122.399 C687.138,123.496 686.246,124.388 685.148,124.948 C684.112,125.475 682.789,125.583 677.25,125.583 L669.912,125.583 C667.408,125.583 666.762,125.609 665.727,125.82 C664.694,126.032 663.698,126.381 662.763,126.859 C661.813,127.348 661.258,127.757 659.341,129.292 L652.386,134.856 C651.63,135.462 651.376,135.658 651.17,135.794 C651.223,135.759 651.427,135.675 651.875,135.675 C652.322,135.676 652.74,135.877 653.017,136.223 C653.293,136.567 653.355,136.78 653.361,136.845 C653.339,136.599 653.333,136.272 653.333,135.313 L653.333,128.5 C653.333,126.889 652.028,125.583 650.417,125.583 C647.352,125.583 646.604,125.549 645.991,125.385 C643.977,124.846 642.404,123.274 641.865,121.261 C641.701,120.647 641.667,119.899 641.667,116.833 L641.667,98.75 Z M635.833,98.75 L635.833,116.833 C635.833,120.549 635.874,121.436 636.23,122.769 C637.31,126.798 640.456,129.942 644.483,131.02 C645.814,131.376 646.7,131.417 650.417,131.417 L650.417,128.5 L647.5,128.5 L647.5,135.313 C647.5,138.298 647.538,138.718 648.463,139.869 C649.287,140.901 650.543,141.506 651.871,141.508 C653.351,141.508 653.691,141.283 656.031,139.41 L662.987,133.846 C664.56,132.586 664.97,132.284 665.425,132.05 C665.885,131.815 666.382,131.641 666.896,131.535 C667.383,131.436 667.865,131.417 669.912,131.417 L677.25,131.417 C683.961,131.417 685.556,131.286 687.796,130.145 C689.992,129.027 691.776,127.242 692.895,125.047 C694.036,122.806 694.167,121.211 694.167,114.5 L694.167,98.75 C694.167,92.039 694.036,90.444 692.895,88.204 C691.776,86.008 689.992,84.223 687.797,83.105 C685.556,81.964 683.961,81.833 677.25,81.833 L652.75,81.833 C646.039,81.833 644.444,81.964 642.204,83.105 C640.008,84.224 638.224,86.008 637.105,88.203 C635.964,90.444 635.833,92.039 635.833,98.75 Z" />
            <path d="M667.197,96.55 C663.445,92.214 657.254,91.417 652.823,95.156 C648.354,98.928 647.672,105.345 651.242,109.884 C652.738,111.786 655.896,114.827 660.025,118.529 C661.403,119.764 661.786,120.073 662.587,120.453 C662.824,120.565 663.066,120.658 663.316,120.733 C664.393,121.057 665.589,121.057 666.671,120.732 C667.807,120.391 668.282,120.03 669.956,118.53 C674.107,114.808 677.246,111.786 678.742,109.882 C680.471,107.733 681.285,104.951 680.982,102.174 C680.679,99.398 679.285,96.856 677.106,95.109 C672.645,91.45 666.528,92.227 662.787,96.546 C662.327,97.077 662.074,97.756 662.075,98.458 L662.075,98.461 L664.991,98.458 L667.197,96.55 Z M662.786,100.367 C664.554,102.41 667.911,101.158 667.908,98.456 L667.908,98.453 L664.991,98.455 L667.196,100.365 C668.934,98.358 671.476,98.035 673.431,99.64 C674.427,100.439 675.048,101.571 675.183,102.807 C675.318,104.043 674.956,105.283 674.176,106.252 C672.953,107.808 669.926,110.723 666.063,114.186 C665.153,115.002 664.945,115.16 664.992,115.145 C665.006,115.141 664.977,115.141 664.991,115.146 C665.024,115.155 665.058,115.169 665.086,115.182 C665.02,115.151 664.774,114.952 663.919,114.186 C660.075,110.739 657.03,107.808 655.827,106.278 C654.207,104.217 654.51,101.365 656.585,99.614 C658.471,98.023 661.044,98.354 662.786,100.367 Z" />
        </g>
    </g>
</svg>