<?xml version="1.0" encoding="UTF-8"?>
<svg height="600" width="800" xmlns="http://www.w3.org/2000/svg" xmlns:xlink="http://www.w3.org/1999/xlink">
    <g id="Notes" font-family="LucidaGrande, 'Lucida Grande', sans-serif" font-size="13">
        <rect fill="white" height="600.0" width="800.0" x="0.0" y="0.0" />
        <g font-size="13">
            <text x="18.0" y="176.0">Small</text>
            <text x="18.0" y="376.0">Medium</text>
            <text x="18.0" y="576.0">Large</text>
        </g>
        <g font-size="9">
            <text x="250.0" y="30.0">Ultralight</text>
            <text x="450.0" y="30.0">Regular</text>
            <text x="650.0" y="30.0">Black</text>
            <text id="template-version" fill="#505050" text-anchor="end" x="785.0" y="575.0">Template v.3.0</text>
            <a href="https://github.com/swhitty/SwiftDraw">
                <text fill="#505050" text-anchor="end" x="785.0" y="590.0">https://github.com/swhitty/SwiftDraw</text>
            </a>
        </g>
    </g>
    <g id="Guides" stroke="rgb(39, 170, 225)" stroke-width="0.5">
        <path id="Capline-S" d="M18,76 l800,0" />
        <path id="H-reference" d="M85,145.755 L87.685,145.755 L113.369,79.287 L114.052,79.287 L114.052,76 L112.148,76 L85,145.755 Z M95.693,121.536 L130.996,121.536 L130.263,119.313 L96.474,119.313 L95.693,121.536 Z M139.15,145.755 L141.787,145.755 L114.638,76 L113.466,76 L113.466,79.287 L139.15,145.755 Z" stroke="none" transform="translate(0,200)" />
        <path id="Baseline-S" d="M18,146 l800,0" />
        <path id="left-margin-Ultralight-M" d="M221,256 l0,110" />
        <path id="right-margin-Ultralight-M" d="M309,256 l0,110" />
        <path id="left-margin-Regular-M" d="M421,256 l0,110" />
        <path id="right-margin-Regular-M" d="M509,256 l0,110" />
        <path id="left-margin-Black-M" d="M621,256 l0,110" />
        <path id="right-margin-Black-M" d="M709,256 l0,110" />
        <path id="Capline-M" d="M18,276 l800,0" />
        <path id="Baseline-M" d="M18,346 l800,0" />
        <path id="Capline-L" d="M18,476 l800,0" />
        <path id="Baseline-L" d="M18,546 l800,0" />
    </g>
    <g id="Symbols">
        <g id="Ultralight-M" transform="translate(0,200)">
            <path d="M247.4,101.254 C247.4,97.076 247.482,96.078 247.88,95.296 C248.301,94.469 248.975,93.795 249.802,93.374 C250.584,92.976 251.582,92.894 255.76,92.894 L274.24,92.894 C278.418,92.894 279.416,92.976 280.198,93.374 C281.025,93.795 281.699,94.469 282.12,95.296 C282.518,96.078 282.6,97.076 282.6,101.254 L282.6,113.134 C282.6,117.312 282.518,118.31 282.12,119.092 C281.699,119.919 281.025,120.593 280.198,121.014 C279.416,121.412 278.418,121.494 274.24,121.494 L259.905,121.494 C258.017,121.494 257.529,121.513 256.748,121.673 C255.969,121.832 255.217,122.095 254.511,122.456 C253.796,122.827 253.387,123.129 251.934,124.29 L246.686,128.488 C246.115,128.945 245.923,129.093 245.768,129.196 C245.808,129.169 245.962,129.106 246.3,129.106 C246.637,129.106 246.953,129.259 247.161,129.52 C247.37,129.779 247.417,129.939 247.421,129.988 C247.404,129.803 247.4,129.556 247.4,128.833 L247.4,101.254 Z M243,101.254 L243,128.833 C243,131.085 243.029,131.401 243.727,132.27 C244.348,133.048 245.295,133.505 246.297,133.506 C247.413,133.506 247.67,133.336 249.435,131.924 L254.681,127.726 C255.876,126.771 256.182,126.546 256.524,126.369 C256.865,126.195 257.241,126.063 257.629,125.984 C257.997,125.908 258.361,125.894 259.905,125.894 L274.24,125.894 C279.302,125.894 280.505,125.796 282.195,124.935 C283.851,124.091 285.197,122.745 286.041,121.089 C286.902,119.399 287,118.196 287,113.134 L287,101.254 C287,96.192 286.902,94.989 286.041,93.299 C285.197,91.643 283.851,90.297 282.195,89.453 C280.505,88.592 279.302,88.494 274.24,88.494 L255.76,88.494 C250.698,88.494 249.495,88.592 247.805,89.453 C246.149,90.297 244.803,91.643 243.959,93.299 C243.098,94.989 243,96.192 243,101.254 Z" />
        </g>
        <g id="Regular-M" transform="translate(0,200)">
            <path d="M447.4,101.254 C447.4,97.076 447.482,96.078 447.88,95.296 C448.301,94.469 448.975,93.795 449.802,93.374 C450.584,92.976 451.582,92.894 455.76,92.894 L474.24,92.894 C478.418,92.894 479.416,92.976 480.198,93.374 C481.025,93.795 481.699,94.469 482.12,95.296 C482.518,96.078 482.6,97.076 482.6,101.254 L482.6,113.134 C482.6,117.312 482.518,118.31 482.12,119.092 C481.699,119.919 481.025,120.593 480.198,121.014 C479.416,121.412 478.418,121.494 474.24,121.494 L459.905,121.494 C458.017,121.494 457.529,121.513 456.748,121.673 C455.969,121.832 455.217,122.095 454.511,122.456 C453.796,122.827 453.387,123.129 451.934,124.29 L446.686,128.488 C446.115,128.945 445.923,129.093 445.768,129.196 C445.808,129.169 445.962,129.106 446.3,129.106 C446.637,129.106 446.953,129.259 447.161,129.52 C447.37,129.779 447.417,129.939 447.421,129.988 C447.404,129.803 447.4,129.556 447.4,128.833 L447.4,101.254 Z M443,101.254 L443,128.833 C443,131.085 443.029,131.401 443.727,132.27 C444.348,133.048 445.295,133.505 446.297,133.506 C447.413,133.506 447.67,133.336 449.435,131.924 L454.681,127.726 C455.876,126.771 456.182,126.546 456.524,126.369 C456.865,126.195 457.241,126.063 457.629,125.984 C457.997,125.908 458.361,125.894 459.905,125.894 L474.24,125.894 C479.302,125.894 480.505,125.796 482.195,124.935 C483.851,124.091 485.197,122.745 486.041,121.089 C486.902,119.399 487,118.196 487,113.134 L487,101.254 C487,96.192 486.902,94.989 486.041,93.299 C485.197,91.643 483.851,90.297 482.195,89.453 C480.505,88.592 479.302,88.494 474.24,88.494 L455.76,88.494 C450.698,88.494 449.495,88.592 447.805,89.453 C446.149,90.297 444.803,91.643 443.959,93.299 C443.098,94.989 443,96.192 443,101.254 Z" />
        </g>
        <g id="Black-M" transform="translate(0,200)">
            <path d="M647.4,101.254 C647.4,97.076 647.482,96.078 647.88,95.296 C648.301,94.469 648.974,93.795 649.802,93.374 C650.584,92.976 651.582,92.894 655.76,92.894 L674.24,92.894 C678.418,92.894 679.416,92.976 680.198,93.374 C681.025,93.795 681.699,94.469 682.12,95.296 C682.518,96.078 682.6,97.076 682.6,101.254 L682.6,113.134 C682.6,117.312 682.518,118.31 682.12,119.092 C681.699,119.919 681.025,120.593 680.198,121.014 C679.416,121.412 678.418,121.494 674.24,121.494 L659.905,121.494 C658.017,121.494 657.529,121.513 656.748,121.673 C655.969,121.832 655.217,122.095 654.511,122.456 C653.796,122.827 653.387,123.129 651.934,124.29 L646.686,128.488 C646.115,128.945 645.923,129.093 645.768,129.196 C645.808,129.169 645.962,129.106 646.3,129.106 C646.637,129.106 646.953,129.259 647.161,129.52 C647.37,129.779 647.417,129.939 647.421,129.988 C647.404,129.803 647.4,129.556 647.4,128.833 L647.4,101.254 Z M643,101.254 L643,128.833 C643,131.085 643.029,131.401 643.727,132.27 C644.348,133.048 645.295,133.505 646.297,133.506 C647.413,133.506 647.67,133.336 649.435,131.924 L654.681,127.726 C655.876,126.771 656.182,126.546 656.524,126.369 C656.865,126.195 657.241,126.063 657.629,125.984 C657.997,125.908 658.361,125.894 659.905,125.894 L674.24,125.894 C679.302,125.894 680.505,125.796 682.195,124.935 C683.851,124.091 685.197,122.745 686.041,121.089 C686.902,119.399 687,118.196 687,113.134 L687,101.254 C687,96.192 686.902,94.989 686.041,93.299 C685.197,91.643 683.851,90.297 682.195,89.453 C680.505,88.592 679.302,88.494 674.24,88.494 L655.76,88.494 C650.698,88.494 649.495,88.592 647.805,89.453 C646.149,90.297 644.803,91.643 643.959,93.299 C643.098,94.989 643,96.192 643,101.254 Z" />
        </g>
    </g>
</svg>