<?xml version="1.0" encoding="UTF-8"?>
<svg height="600" width="800" xmlns="http://www.w3.org/2000/svg" xmlns:xlink="http://www.w3.org/1999/xlink">
    <g id="Notes" font-family="LucidaGrande, 'Lucida Grande', sans-serif" font-size="13">
        <rect fill="white" height="600.0" width="800.0" x="0.0" y="0.0" />
        <g font-size="13">
            <text x="18.0" y="176.0">Small</text>
            <text x="18.0" y="376.0">Medium</text>
            <text x="18.0" y="576.0">Large</text>
        </g>
        <g font-size="9">
            <text x="250.0" y="30.0">Ultralight</text>
            <text x="450.0" y="30.0">Regular</text>
            <text x="650.0" y="30.0">Black</text>
            <text id="template-version" fill="#505050" text-anchor="end" x="785.0" y="575.0">Template v.3.0</text>
            <a href="https://github.com/swhitty/SwiftDraw">
                <text fill="#505050" text-anchor="end" x="785.0" y="590.0">https://github.com/swhitty/SwiftDraw</text>
            </a>
        </g>
    </g>
    <g id="Guides" stroke="rgb(39, 170, 225)" stroke-width="0.5">
        <path id="Capline-S" d="M18,76 l800,0" />
        <path id="H-reference" d="M85,145.755 L87.685,145.755 L113.369,79.287 L114.052,79.287 L114.052,76 L112.148,76 L85,145.755 Z M95.693,121.536 L130.996,121.536 L130.263,119.313 L96.474,119.313 L95.693,121.536 Z M139.15,145.755 L141.787,145.755 L114.638,76 L113.466,76 L113.466,79.287 L139.15,145.755 Z" stroke="none" transform="translate(0,200)" />
        <path id="Baseline-S" d="M18,146 l800,0" />
        <path id="left-margin-Ultralight-M" d="M230,256 l0,110" />
        <path id="right-margin-Ultralight-M" d="M300,256 l0,110" />
        <path id="left-margin-Regular-M" d="M430,256 l0,110" />
        <path id="right-margin-Regular-M" d="M500,256 l0,110" />
        <path id="left-margin-Black-M" d="M630,256 l0,110" />
        <path id="right-margin-Black-M" d="M700,256 l0,110" />
        <path id="Capline-M" d="M18,276 l800,0" />
        <path id="Baseline-M" d="M18,346 l800,0" />
        <path id="Capline-L" d="M18,476 l800,0" />
        <path id="Baseline-L" d="M18,546 l800,0" />
    </g>
    <g id="Symbols">
        <g id="Ultralight-M" transform="translate(0,200)">
            <path d="M268.5,105.081 L268.5,93.107 C268.5,91.217 266.933,89.685 265,89.685 C263.067,89.685 261.5,91.217 261.5,93.107 L261.5,105.081 C261.5,106.971 263.067,108.502 265,108.502 C266.933,108.502 268.5,106.971 268.5,105.081 Z M265,120.477 L265.035,120.477 C266.968,120.477 268.535,118.945 268.535,117.056 C268.535,115.166 266.968,113.634 265.035,113.634 L265,113.634 C263.067,113.634 261.5,115.166 261.5,117.056 C261.5,118.945 263.067,120.477 265,120.477 Z M244,130.741 L244,138.73 C244,142.236 244.046,142.726 245.156,144.077 C246.145,145.288 247.651,145.998 249.245,146 C251.021,146 251.43,145.736 254.237,143.539 L262.584,137.012 C264.493,135.517 264.967,135.175 265.502,134.907 C266.057,134.633 266.661,134.426 267.283,134.3 C267.86,134.184 268.436,134.162 270.894,134.162 L279.7,134.162 C287.753,134.162 289.667,134.009 292.356,132.671 C294.99,131.359 297.132,129.265 298.474,126.69 C299.844,124.062 300,122.191 300,114.319 L300,95.844 C300,87.971 299.844,86.101 298.474,83.473 C297.132,80.897 294.99,78.804 292.356,77.492 C289.667,76.153 287.753,76 279.7,76 L250.3,76 C242.247,76 240.333,76.153 237.644,77.491 C235.01,78.804 232.868,80.897 231.526,83.472 C230.156,86.101 230,87.971 230,95.844 L230,117.056 C230,121.414 230.048,122.455 230.475,124.018 C231.774,128.744 235.548,132.43 240.379,133.694 C241.972,134.114 243.036,134.162 247.5,134.162 L247.5,130.741 L244,130.741 Z M251,130.741 C251,128.851 249.433,127.32 247.5,127.32 C243.826,127.32 242.93,127.279 242.197,127.086 C239.773,126.452 237.886,124.609 237.237,122.248 C237.041,121.529 237,120.652 237,117.056 L237,95.844 C237,89.346 237.13,87.794 237.763,86.578 C238.434,85.291 239.505,84.244 240.822,83.588 C242.065,82.969 243.653,82.843 250.3,82.843 L279.7,82.843 C286.347,82.843 287.935,82.969 289.178,83.589 C290.495,84.244 291.566,85.291 292.237,86.579 C292.87,87.794 293,89.346 293,95.844 L293,114.319 C293,120.816 292.87,122.368 292.237,123.584 C291.566,124.871 290.495,125.918 289.178,126.574 C287.935,127.193 286.347,127.32 279.7,127.32 L270.894,127.32 C267.888,127.32 267.115,127.349 265.872,127.597 C264.633,127.849 263.444,128.256 262.324,128.811 C261.179,129.385 260.543,129.843 258.21,131.67 L249.864,138.196 C248.955,138.907 248.651,139.138 248.404,139.297 C248.468,139.256 248.713,139.157 249.25,139.157 C249.786,139.158 250.288,139.395 250.62,139.801 C250.952,140.204 251.027,140.453 251.034,140.529 C251.007,140.241 251,139.857 251,138.73 L251,130.741 Z" />
        </g>
        <g id="Regular-M" transform="translate(0,200)">
            <path d="M468.5,105.081 L468.5,93.107 C468.5,91.217 466.933,89.685 465,89.685 C463.067,89.685 461.5,91.217 461.5,93.107 L461.5,105.081 C461.5,106.971 463.067,108.502 465,108.502 C466.933,108.502 468.5,106.971 468.5,105.081 Z M465,120.477 L465.035,120.477 C466.968,120.477 468.535,118.945 468.535,117.056 C468.535,115.166 466.968,113.634 465.035,113.634 L465,113.634 C463.067,113.634 461.5,115.166 461.5,117.056 C461.5,118.945 463.067,120.477 465,120.477 Z M444,130.741 L444,138.73 C444,142.236 444.046,142.726 445.156,144.077 C446.145,145.288 447.651,145.998 449.245,146 C451.021,146 451.43,145.736 454.237,143.539 L462.584,137.012 C464.493,135.517 464.967,135.175 465.502,134.907 C466.057,134.633 466.661,134.426 467.283,134.3 C467.86,134.184 468.436,134.162 470.894,134.162 L479.7,134.162 C487.753,134.162 489.667,134.009 492.356,132.671 C494.99,131.359 497.132,129.265 498.474,126.69 C499.844,124.062 500,122.191 500,114.319 L500,95.844 C500,87.971 499.844,86.101 498.474,83.473 C497.132,80.897 494.99,78.804 492.356,77.492 C489.667,76.153 487.753,76 479.7,76 L450.3,76 C442.247,76 440.333,76.153 437.644,77.491 C435.01,78.804 432.868,80.897 431.526,83.472 C430.156,86.101 430,87.971 430,95.844 L430,117.056 C430,121.414 430.048,122.455 430.475,124.018 C431.774,128.744 435.548,132.43 440.379,133.694 C441.972,134.114 443.036,134.162 447.5,134.162 L447.5,130.741 L444,130.741 Z M451,130.741 C451,128.851 449.433,127.32 447.5,127.32 C443.826,127.32 442.93,127.279 442.197,127.086 C439.773,126.452 437.886,124.609 437.237,122.248 C437.041,121.529 437,120.652 437,117.056 L437,95.844 C437,89.346 437.13,87.794 437.763,86.578 C438.434,85.291 439.505,84.244 440.822,83.588 C442.065,82.969 443.653,82.843 450.3,82.843 L479.7,82.843 C486.347,82.843 487.935,82.969 489.178,83.589 C490.495,84.244 491.566,85.291 492.237,86.579 C492.87,87.794 493,89.346 493,95.844 L493,114.319 C493,120.816 492.87,122.368 492.237,123.584 C491.566,124.871 490.495,125.918 489.178,126.574 C487.935,127.193 486.347,127.32 479.7,127.32 L470.894,127.32 C467.888,127.32 467.115,127.349 465.872,127.597 C464.633,127.849 463.444,128.256 462.324,128.811 C461.179,129.385 460.543,129.843 458.21,131.67 L449.864,138.196 C448.955,138.907 448.651,139.138 448.404,139.297 C448.468,139.256 448.713,139.157 449.25,139.157 C449.786,139.158 450.288,139.395 450.62,139.801 C450.952,140.204 451.027,140.453 451.034,140.529 C451.007,140.241 451,139.857 451,138.73 L451,130.741 Z" />
        </g>
        <g id="Black-M" transform="translate(0,200)">
            <path d="M668.5,105.081 L668.5,93.107 C668.5,91.217 666.933,89.685 665,89.685 C663.067,89.685 661.5,91.217 661.5,93.107 L661.5,105.081 C661.5,106.971 663.067,108.502 665,108.502 C666.933,108.502 668.5,106.971 668.5,105.081 Z M665,120.477 L665.035,120.477 C666.968,120.477 668.535,118.945 668.535,117.056 C668.535,115.166 666.968,113.634 665.035,113.634 L665,113.634 C663.067,113.634 661.5,115.166 661.5,117.056 C661.5,118.945 663.067,120.477 665,120.477 Z M644,130.741 L644,138.73 C644,142.236 644.046,142.726 645.156,144.077 C646.145,145.288 647.651,145.998 649.245,146 C651.021,146 651.43,145.736 654.237,143.539 L662.584,137.012 C664.493,135.517 664.967,135.175 665.502,134.907 C666.057,134.633 666.661,134.426 667.283,134.3 C667.86,134.184 668.436,134.162 670.894,134.162 L679.7,134.162 C687.753,134.162 689.667,134.009 692.356,132.671 C694.99,131.359 697.132,129.265 698.474,126.69 C699.844,124.062 700,122.191 700,114.319 L700,95.844 C700,87.971 699.844,86.101 698.474,83.473 C697.132,80.897 694.99,78.804 692.356,77.492 C689.667,76.153 687.753,76 679.7,76 L650.3,76 C642.247,76 640.333,76.153 637.644,77.491 C635.01,78.804 632.868,80.897 631.526,83.472 C630.156,86.101 630,87.971 630,95.844 L630,117.056 C630,121.414 630.048,122.455 630.475,124.018 C631.774,128.744 635.548,132.43 640.379,133.694 C641.972,134.114 643.036,134.162 647.5,134.162 L647.5,130.741 L644,130.741 Z M651,130.741 C651,128.851 649.433,127.32 647.5,127.32 C643.826,127.32 642.93,127.279 642.197,127.086 C639.773,126.452 637.886,124.609 637.237,122.248 C637.041,121.529 637,120.652 637,117.056 L637,95.844 C637,89.346 637.13,87.794 637.763,86.578 C638.434,85.291 639.505,84.244 640.822,83.588 C642.065,82.969 643.653,82.843 650.3,82.843 L679.7,82.843 C686.347,82.843 687.935,82.969 689.178,83.589 C690.495,84.244 691.566,85.291 692.237,86.579 C692.87,87.794 693,89.346 693,95.844 L693,114.319 C693,120.816 692.87,122.368 692.237,123.584 C691.566,124.871 690.495,125.918 689.178,126.574 C687.935,127.193 686.347,127.32 679.7,127.32 L670.894,127.32 C667.888,127.32 667.115,127.349 665.872,127.597 C664.633,127.849 663.444,128.256 662.324,128.811 C661.179,129.385 660.543,129.843 658.21,131.67 L649.864,138.196 C648.956,138.907 648.651,139.138 648.404,139.297 C648.468,139.256 648.713,139.157 649.25,139.157 C649.786,139.158 650.288,139.395 650.62,139.801 C650.952,140.204 651.026,140.453 651.034,140.529 C651.007,140.241 651,139.857 651,138.73 L651,130.741 Z" />
        </g>
    </g>
</svg>