<?xml version="1.0" encoding="UTF-8"?>
<svg height="600" width="800" xmlns="http://www.w3.org/2000/svg" xmlns:xlink="http://www.w3.org/1999/xlink">
    <g id="Notes" font-family="LucidaGrande, 'Lucida Grande', sans-serif" font-size="13">
        <rect fill="white" height="600.0" width="800.0" x="0.0" y="0.0" />
        <g font-size="13">
            <text x="18.0" y="176.0">Small</text>
            <text x="18.0" y="376.0">Medium</text>
            <text x="18.0" y="576.0">Large</text>
        </g>
        <g font-size="9">
            <text x="250.0" y="30.0">Ultralight</text>
            <text x="450.0" y="30.0">Regular</text>
            <text x="650.0" y="30.0">Black</text>
            <text id="template-version" fill="#505050" text-anchor="end" x="785.0" y="575.0">Template v.3.0</text>
            <a href="https://github.com/swhitty/SwiftDraw">
                <text fill="#505050" text-anchor="end" x="785.0" y="590.0">https://github.com/swhitty/SwiftDraw</text>
            </a>
        </g>
    </g>
    <g id="Guides" stroke="rgb(39, 170, 225)" stroke-width="0.5">
        <path id="Capline-S" d="M18,76 l800,0" />
        <path id="H-reference" d="M85,145.755 L87.685,145.755 L113.369,79.287 L114.052,79.287 L114.052,76 L112.148,76 L85,145.755 Z M95.693,121.536 L130.996,121.536 L130.263,119.313 L96.474,119.313 L95.693,121.536 Z M139.15,145.755 L141.787,145.755 L114.638,76 L113.466,76 L113.466,79.287 L139.15,145.755 Z" stroke="none" transform="translate(0,200)" />
        <path id="Baseline-S" d="M18,146 l800,0" />
        <path id="left-margin-Ultralight-M" d="M221,256 l0,110" />
        <path id="right-margin-Ultralight-M" d="M309,256 l0,110" />
        <path id="left-margin-Regular-M" d="M421,256 l0,110" />
        <path id="right-margin-Regular-M" d="M509,256 l0,110" />
        <path id="left-margin-Black-M" d="M621,256 l0,110" />
        <path id="right-margin-Black-M" d="M709,256 l0,110" />
        <path id="Capline-M" d="M18,276 l800,0" />
        <path id="Baseline-M" d="M18,346 l800,0" />
        <path id="Capline-L" d="M18,476 l800,0" />
        <path id="Baseline-L" d="M18,546 l800,0" />
    </g>
    <g id="Symbols">
        <g id="Ultralight-M" transform="translate(0,200)">
            <path d="M264.471,106.306 C264.908,105.061 266.18,104.314 267.48,104.537 C268.78,104.76 269.729,105.889 269.726,107.208 C269.726,107.756 269.237,108.408 268.255,109.062 C267.528,109.547 266.777,109.881 266.335,110.028 C265.2,110.407 264.586,111.634 264.965,112.769 C265.343,113.904 266.57,114.517 267.705,114.138 C268.481,113.88 269.557,113.402 270.658,112.668 C272.721,111.293 274.059,109.51 274.059,107.213 C274.067,103.785 271.596,100.847 268.213,100.266 C264.829,99.686 261.521,101.631 260.383,104.87 C259.986,105.999 260.58,107.236 261.709,107.632 C262.838,108.029 264.075,107.435 264.471,106.306 Z M267.081,120.749 L267.102,120.749 C268.299,120.749 269.269,119.779 269.269,118.583 C269.269,117.386 268.299,116.416 267.102,116.416 L267.081,116.416 C265.884,116.416 264.914,117.386 264.914,118.583 C264.914,119.779 265.884,120.749 267.081,120.749 Z M266.756,131.582 C275.694,131.58 283.608,125.81 286.345,117.302 C289.081,108.794 286.014,99.492 278.754,94.28 C271.494,89.068 261.699,89.138 254.514,94.452 C247.328,99.766 244.393,109.11 247.25,117.579 C247.46,118.203 247.518,118.398 247.516,118.371 C247.516,118.379 247.518,118.352 247.526,118.326 C247.52,118.346 247.464,118.461 247.204,118.945 L243.661,125.499 C242.684,127.311 242.563,127.593 242.725,128.629 C242.872,129.574 243.429,130.407 244.246,130.904 C245.145,131.448 245.473,131.443 247.495,131.232 L258.587,130.086 C258.878,130.056 258.947,130.051 258.929,130.05 C258.963,130.052 258.934,130.048 258.953,130.052 C258.915,130.043 258.988,130.069 259.371,130.215 C261.723,131.12 264.232,131.585 266.763,131.582 C269.65,131.578 269.647,127.249 266.76,127.249 L266.756,127.249 L266.756,129.415 L266.756,131.582 Z M266.755,127.249 C263.867,127.249 263.867,131.582 266.756,131.582 L266.76,131.582 L266.76,129.415 L266.758,127.249 C264.761,127.251 262.781,126.885 260.918,126.167 C260.184,125.889 260.188,125.89 259.916,125.827 C259.618,125.76 259.373,125.728 259.083,125.72 C258.83,125.709 258.689,125.72 258.142,125.776 L247.048,126.922 C246.405,126.99 246.179,127.009 246.015,127.011 C246.068,127.011 246.228,127.039 246.493,127.199 C246.771,127.369 246.957,127.646 247.006,127.961 C247.054,128.27 247.019,128.43 246.998,128.48 C247.062,128.33 247.162,128.137 247.474,127.558 L251.018,121.002 C251.502,120.102 251.596,119.908 251.716,119.427 C251.837,118.991 251.88,118.485 251.831,117.984 C251.794,117.524 251.724,117.288 251.355,116.194 C249.1,109.508 251.417,102.131 257.09,97.936 C262.763,93.74 270.495,93.685 276.227,97.8 C281.959,101.915 284.38,109.258 282.22,115.975 C280.06,122.692 273.811,127.247 266.755,127.249 Z" />
        </g>
        <g id="Regular-M" transform="translate(0,200)">
            <path d="M464.471,106.306 C464.908,105.061 466.18,104.314 467.48,104.537 C468.78,104.76 469.729,105.889 469.726,107.208 C469.726,107.756 469.237,108.408 468.255,109.062 C467.528,109.547 466.777,109.881 466.335,110.028 C465.2,110.407 464.586,111.634 464.965,112.769 C465.343,113.904 466.57,114.517 467.705,114.138 C468.481,113.88 469.557,113.402 470.658,112.668 C472.721,111.293 474.059,109.51 474.059,107.213 C474.067,103.785 471.596,100.847 468.213,100.266 C464.829,99.686 461.521,101.631 460.383,104.87 C459.986,105.999 460.58,107.236 461.709,107.632 C462.838,108.029 464.075,107.435 464.471,106.306 Z M467.081,120.749 L467.102,120.749 C468.299,120.749 469.269,119.779 469.269,118.583 C469.269,117.386 468.299,116.416 467.102,116.416 L467.081,116.416 C465.884,116.416 464.914,117.386 464.914,118.583 C464.914,119.779 465.884,120.749 467.081,120.749 Z M466.756,131.582 C475.694,131.58 483.608,125.81 486.345,117.302 C489.081,108.794 486.014,99.492 478.754,94.28 C471.494,89.068 461.699,89.138 454.514,94.452 C447.328,99.766 444.393,109.11 447.25,117.579 C447.46,118.203 447.518,118.398 447.516,118.371 C447.516,118.379 447.518,118.352 447.526,118.326 C447.52,118.346 447.464,118.461 447.204,118.945 L443.661,125.499 C442.684,127.311 442.563,127.593 442.725,128.629 C442.872,129.574 443.429,130.407 444.246,130.904 C445.145,131.448 445.473,131.443 447.495,131.232 L458.587,130.086 C458.878,130.056 458.947,130.051 458.929,130.05 C458.963,130.052 458.934,130.048 458.953,130.052 C458.915,130.043 458.988,130.069 459.371,130.215 C461.723,131.12 464.232,131.585 466.763,131.582 C469.65,131.578 469.647,127.249 466.76,127.249 L466.756,127.249 L466.756,129.415 L466.756,131.582 Z M466.755,127.249 C463.867,127.249 463.867,131.582 466.756,131.582 L466.76,131.582 L466.76,129.415 L466.758,127.249 C464.761,127.251 462.781,126.885 460.918,126.167 C460.184,125.889 460.188,125.89 459.916,125.827 C459.618,125.76 459.373,125.728 459.083,125.72 C458.83,125.709 458.689,125.72 458.142,125.776 L447.048,126.922 C446.405,126.99 446.179,127.009 446.015,127.011 C446.068,127.011 446.228,127.039 446.493,127.199 C446.771,127.369 446.957,127.646 447.006,127.961 C447.054,128.27 447.019,128.43 446.998,128.48 C447.062,128.33 447.162,128.137 447.474,127.558 L451.018,121.002 C451.502,120.102 451.596,119.908 451.716,119.427 C451.837,118.991 451.88,118.485 451.831,117.984 C451.794,117.524 451.724,117.288 451.355,116.194 C449.1,109.508 451.417,102.131 457.09,97.936 C462.763,93.74 470.495,93.685 476.227,97.8 C481.959,101.915 484.38,109.258 482.22,115.975 C480.06,122.692 473.811,127.247 466.755,127.249 Z" />
        </g>
        <g id="Black-M" transform="translate(0,200)">
            <path d="M664.471,106.306 C664.908,105.061 666.18,104.314 667.48,104.537 C668.78,104.76 669.729,105.889 669.726,107.208 C669.726,107.756 669.237,108.408 668.255,109.062 C667.528,109.547 666.777,109.881 666.335,110.028 C665.2,110.407 664.586,111.634 664.965,112.769 C665.343,113.904 666.57,114.517 667.706,114.138 C668.481,113.88 669.557,113.402 670.658,112.668 C672.721,111.293 674.059,109.51 674.059,107.213 C674.067,103.785 671.596,100.847 668.213,100.266 C664.829,99.686 661.521,101.631 660.383,104.87 C659.987,105.999 660.58,107.236 661.709,107.632 C662.838,108.029 664.075,107.435 664.471,106.306 Z M667.081,120.749 L667.102,120.749 C668.299,120.749 669.269,119.779 669.269,118.583 C669.269,117.386 668.299,116.416 667.102,116.416 L667.081,116.416 C665.884,116.416 664.914,117.386 664.914,118.583 C664.914,119.779 665.884,120.749 667.081,120.749 Z M666.756,131.582 C675.694,131.58 683.608,125.81 686.345,117.302 C689.081,108.794 686.014,99.492 678.754,94.28 C671.494,89.068 661.699,89.138 654.513,94.452 C647.328,99.766 644.393,109.11 647.25,117.579 C647.46,118.203 647.518,118.398 647.516,118.371 C647.516,118.379 647.518,118.352 647.526,118.326 C647.52,118.346 647.464,118.461 647.204,118.945 L643.661,125.499 C642.684,127.311 642.563,127.593 642.725,128.629 C642.872,129.574 643.429,130.407 644.246,130.904 C645.145,131.448 645.473,131.443 647.495,131.232 L658.587,130.086 C658.878,130.056 658.947,130.051 658.929,130.05 C658.963,130.052 658.934,130.048 658.953,130.052 C658.915,130.043 658.988,130.069 659.371,130.215 C661.723,131.12 664.232,131.585 666.763,131.582 C669.65,131.578 669.647,127.249 666.76,127.249 L666.756,127.249 L666.756,129.415 L666.756,131.582 Z M666.755,127.249 C663.867,127.249 663.867,131.582 666.756,131.582 L666.76,131.582 L666.76,129.415 L666.758,127.249 C664.761,127.251 662.781,126.885 660.918,126.167 C660.184,125.889 660.188,125.89 659.916,125.827 C659.618,125.76 659.373,125.728 659.083,125.72 C658.83,125.709 658.689,125.72 658.142,125.776 L647.048,126.922 C646.405,126.99 646.179,127.009 646.015,127.011 C646.068,127.011 646.228,127.039 646.493,127.199 C646.771,127.369 646.957,127.646 647.006,127.961 C647.054,128.27 647.019,128.43 646.998,128.48 C647.062,128.33 647.162,128.137 647.474,127.558 L651.018,121.002 C651.502,120.102 651.596,119.908 651.716,119.427 C651.837,118.991 651.88,118.485 651.831,117.984 C651.794,117.524 651.724,117.288 651.355,116.194 C649.1,109.508 651.417,102.131 657.09,97.936 C662.763,93.74 670.495,93.685 676.227,97.8 C681.959,101.915 684.38,109.258 682.22,115.975 C680.06,122.692 673.811,127.247 666.755,127.249 Z" />
        </g>
    </g>
</svg>