<?xml version="1.0" encoding="UTF-8"?>
<svg height="600" width="800" xmlns="http://www.w3.org/2000/svg" xmlns:xlink="http://www.w3.org/1999/xlink">
    <g id="Notes" font-family="LucidaGrande, 'Lucida Grande', sans-serif" font-size="13">
        <rect fill="white" height="600.0" width="800.0" x="0.0" y="0.0" />
        <g font-size="13">
            <text x="18.0" y="176.0">Small</text>
            <text x="18.0" y="376.0">Medium</text>
            <text x="18.0" y="576.0">Large</text>
        </g>
        <g font-size="9">
            <text x="250.0" y="30.0">Ultralight</text>
            <text x="450.0" y="30.0">Regular</text>
            <text x="650.0" y="30.0">Black</text>
            <text id="template-version" fill="#505050" text-anchor="end" x="785.0" y="575.0">Template v.3.0</text>
            <a href="https://github.com/swhitty/SwiftDraw">
                <text fill="#505050" text-anchor="end" x="785.0" y="590.0">https://github.com/swhitty/SwiftDraw</text>
            </a>
        </g>
    </g>
    <g id="Guides" stroke="rgb(39, 170, 225)" stroke-width="0.5">
        <path id="Capline-S" d="M18,76 l800,0" />
        <path id="H-reference" d="M85,145.755 L87.685,145.755 L113.369,79.287 L114.052,79.287 L114.052,76 L112.148,76 L85,145.755 Z M95.693,121.536 L130.996,121.536 L130.263,119.313 L96.474,119.313 L95.693,121.536 Z M139.15,145.755 L141.787,145.755 L114.638,76 L113.466,76 L113.466,79.287 L139.15,145.755 Z" stroke="none" transform="translate(0,200)" />
        <path id="Baseline-S" d="M18,146 l800,0" />
        <path id="left-margin-Ultralight-M" d="M230,256 l0,110" />
        <path id="right-margin-Ultralight-M" d="M300,256 l0,110" />
        <path id="left-margin-Regular-M" d="M430,256 l0,110" />
        <path id="right-margin-Regular-M" d="M500,256 l0,110" />
        <path id="left-margin-Black-M" d="M630,256 l0,110" />
        <path id="right-margin-Black-M" d="M700,256 l0,110" />
        <path id="Capline-M" d="M18,276 l800,0" />
        <path id="Baseline-M" d="M18,346 l800,0" />
        <path id="Capline-L" d="M18,476 l800,0" />
        <path id="Baseline-L" d="M18,546 l800,0" />
    </g>
    <g id="Symbols">
        <g id="Ultralight-M" transform="translate(0,200)">
            <path d="M233.5,100.5 L234.2,100.5 C242.253,100.5 244.167,100.344 246.856,98.974 C249.49,97.63 251.63,95.489 252.971,92.855 C254.343,90.169 254.5,88.255 254.5,80.2 L254.5,79.5 C254.5,77.567 252.933,76 251,76 C249.067,76 247.5,77.567 247.5,79.5 L247.5,80.2 C247.5,86.845 247.37,88.432 246.735,89.675 C246.063,90.996 244.993,92.066 243.676,92.738 C242.435,93.37 240.847,93.5 234.2,93.5 L233.5,93.5 C231.567,93.5 230,95.067 230,97 C230,98.933 231.567,100.5 233.5,100.5 Z M233.5,128.5 L234.2,128.5 C240.847,128.5 242.435,128.63 243.678,129.263 C244.993,129.934 246.063,131.004 246.733,132.321 C247.37,133.568 247.5,135.155 247.5,141.8 L247.5,142.5 C247.5,144.433 249.067,146 251,146 C252.933,146 254.5,144.433 254.5,142.5 L254.5,141.8 C254.5,133.745 254.343,131.831 252.969,129.141 C251.63,126.511 249.49,124.37 246.858,123.027 C244.167,121.656 242.253,121.5 234.2,121.5 L233.5,121.5 C231.567,121.5 230,123.067 230,125 C230,126.933 231.567,128.5 233.5,128.5 Z M275.5,79.5 L275.5,80.2 C275.5,88.253 275.656,90.167 277.026,92.856 C278.367,95.489 280.507,97.63 283.139,98.973 C285.834,100.344 287.748,100.5 295.8,100.5 L296.5,100.5 C298.433,100.5 300,98.933 300,97 C300,95.067 298.433,93.5 296.5,93.5 L295.8,93.5 C289.152,93.5 287.564,93.37 286.316,92.736 C285.004,92.066 283.934,90.996 283.263,89.679 C282.63,88.435 282.5,86.847 282.5,80.2 L282.5,79.5 C282.5,77.567 280.933,76 279,76 C277.067,76 275.5,77.567 275.5,79.5 Z M282.5,142.5 L282.5,141.8 C282.5,135.153 282.63,133.565 283.263,132.322 C283.934,131.004 285.004,129.934 286.32,129.262 C287.564,128.63 289.152,128.5 295.8,128.5 L296.5,128.5 C298.433,128.5 300,126.933 300,125 C300,123.067 298.433,121.5 296.5,121.5 L295.8,121.5 C287.748,121.5 285.834,121.656 283.143,123.025 C280.507,124.37 278.367,126.511 277.026,129.145 C275.656,131.833 275.5,133.747 275.5,141.8 L275.5,142.5 C275.5,144.433 277.067,146 279,146 C280.933,146 282.5,144.433 282.5,142.5 Z" />
        </g>
        <g id="Regular-M" transform="translate(0,200)">
            <path d="M433.5,100.5 L434.2,100.5 C442.253,100.5 444.167,100.344 446.856,98.974 C449.49,97.63 451.63,95.489 452.971,92.855 C454.343,90.169 454.5,88.255 454.5,80.2 L454.5,79.5 C454.5,77.567 452.933,76 451,76 C449.067,76 447.5,77.567 447.5,79.5 L447.5,80.2 C447.5,86.845 447.37,88.432 446.735,89.675 C446.063,90.996 444.993,92.066 443.676,92.738 C442.435,93.37 440.847,93.5 434.2,93.5 L433.5,93.5 C431.567,93.5 430,95.067 430,97 C430,98.933 431.567,100.5 433.5,100.5 Z M433.5,128.5 L434.2,128.5 C440.847,128.5 442.435,128.63 443.678,129.263 C444.993,129.934 446.063,131.004 446.733,132.321 C447.37,133.568 447.5,135.155 447.5,141.8 L447.5,142.5 C447.5,144.433 449.067,146 451,146 C452.933,146 454.5,144.433 454.5,142.5 L454.5,141.8 C454.5,133.745 454.343,131.831 452.969,129.141 C451.63,126.511 449.49,124.37 446.858,123.027 C444.167,121.656 442.253,121.5 434.2,121.5 L433.5,121.5 C431.567,121.5 430,123.067 430,125 C430,126.933 431.567,128.5 433.5,128.5 Z M475.5,79.5 L475.5,80.2 C475.5,88.253 475.656,90.167 477.026,92.856 C478.367,95.489 480.507,97.63 483.139,98.973 C485.834,100.344 487.748,100.5 495.8,100.5 L496.5,100.5 C498.433,100.5 500,98.933 500,97 C500,95.067 498.433,93.5 496.5,93.5 L495.8,93.5 C489.152,93.5 487.564,93.37 486.316,92.736 C485.004,92.066 483.934,90.996 483.263,89.679 C482.63,88.435 482.5,86.847 482.5,80.2 L482.5,79.5 C482.5,77.567 480.933,76 479,76 C477.067,76 475.5,77.567 475.5,79.5 Z M482.5,142.5 L482.5,141.8 C482.5,135.153 482.63,133.565 483.263,132.322 C483.934,131.004 485.004,129.934 486.32,129.262 C487.564,128.63 489.152,128.5 495.8,128.5 L496.5,128.5 C498.433,128.5 500,126.933 500,125 C500,123.067 498.433,121.5 496.5,121.5 L495.8,121.5 C487.748,121.5 485.834,121.656 483.143,123.025 C480.507,124.37 478.367,126.511 477.026,129.145 C475.656,131.833 475.5,133.747 475.5,141.8 L475.5,142.5 C475.5,144.433 477.067,146 479,146 C480.933,146 482.5,144.433 482.5,142.5 Z" />
        </g>
        <g id="Black-M" transform="translate(0,200)">
            <path d="M633.5,100.5 L634.2,100.5 C642.253,100.5 644.167,100.344 646.856,98.974 C649.49,97.63 651.63,95.489 652.971,92.855 C654.343,90.169 654.5,88.255 654.5,80.2 L654.5,79.5 C654.5,77.567 652.933,76 651,76 C649.067,76 647.5,77.567 647.5,79.5 L647.5,80.2 C647.5,86.845 647.37,88.432 646.735,89.675 C646.063,90.996 644.993,92.066 643.676,92.738 C642.435,93.37 640.847,93.5 634.2,93.5 L633.5,93.5 C631.567,93.5 630,95.067 630,97 C630,98.933 631.567,100.5 633.5,100.5 Z M633.5,128.5 L634.2,128.5 C640.847,128.5 642.435,128.63 643.678,129.263 C644.993,129.934 646.063,131.004 646.733,132.321 C647.37,133.568 647.5,135.155 647.5,141.8 L647.5,142.5 C647.5,144.433 649.067,146 651,146 C652.933,146 654.5,144.433 654.5,142.5 L654.5,141.8 C654.5,133.745 654.343,131.831 652.969,129.141 C651.63,126.511 649.49,124.37 646.858,123.027 C644.167,121.656 642.253,121.5 634.2,121.5 L633.5,121.5 C631.567,121.5 630,123.067 630,125 C630,126.933 631.567,128.5 633.5,128.5 Z M675.5,79.5 L675.5,80.2 C675.5,88.253 675.656,90.167 677.026,92.856 C678.367,95.489 680.506,97.63 683.139,98.973 C685.834,100.344 687.748,100.5 695.8,100.5 L696.5,100.5 C698.433,100.5 700,98.933 700,97 C700,95.067 698.433,93.5 696.5,93.5 L695.8,93.5 C689.152,93.5 687.564,93.37 686.316,92.736 C685.004,92.066 683.934,90.996 683.263,89.679 C682.63,88.435 682.5,86.847 682.5,80.2 L682.5,79.5 C682.5,77.567 680.933,76 679,76 C677.067,76 675.5,77.567 675.5,79.5 Z M682.5,142.5 L682.5,141.8 C682.5,135.153 682.63,133.565 683.263,132.322 C683.934,131.004 685.004,129.934 686.32,129.262 C687.564,128.63 689.152,128.5 695.8,128.5 L696.5,128.5 C698.433,128.5 700,126.933 700,125 C700,123.067 698.433,121.5 696.5,121.5 L695.8,121.5 C687.748,121.5 685.834,121.656 683.143,123.025 C680.506,124.37 678.367,126.511 677.026,129.145 C675.656,131.833 675.5,133.747 675.5,141.8 L675.5,142.5 C675.5,144.433 677.067,146 679,146 C680.933,146 682.5,144.433 682.5,142.5 Z" />
        </g>
    </g>
</svg>