<?xml version="1.0" encoding="UTF-8"?>
<svg height="600" width="800" xmlns="http://www.w3.org/2000/svg" xmlns:xlink="http://www.w3.org/1999/xlink">
    <g id="Notes" font-family="LucidaGrande, 'Lucida Grande', sans-serif" font-size="13">
        <rect fill="white" height="600.0" width="800.0" x="0.0" y="0.0" />
        <g font-size="13">
            <text x="18.0" y="176.0">Small</text>
            <text x="18.0" y="376.0">Medium</text>
            <text x="18.0" y="576.0">Large</text>
        </g>
        <g font-size="9">
            <text x="250.0" y="30.0">Ultralight</text>
            <text x="450.0" y="30.0">Regular</text>
            <text x="650.0" y="30.0">Black</text>
            <text id="template-version" fill="#505050" text-anchor="end" x="785.0" y="575.0">Template v.3.0</text>
            <a href="https://github.com/swhitty/SwiftDraw">
                <text fill="#505050" text-anchor="end" x="785.0" y="590.0">https://github.com/swhitty/SwiftDraw</text>
            </a>
        </g>
    </g>
    <g id="Guides" stroke="rgb(39, 170, 225)" stroke-width="0.5">
        <path id="Capline-S" d="M18,76 l800,0" />
        <path id="H-reference" d="M85,145.755 L87.685,145.755 L113.369,79.287 L114.052,79.287 L114.052,76 L112.148,76 L85,145.755 Z M95.693,121.536 L130.996,121.536 L130.263,119.313 L96.474,119.313 L95.693,121.536 Z M139.15,145.755 L141.787,145.755 L114.638,76 L113.466,76 L113.466,79.287 L139.15,145.755 Z" stroke="none" transform="translate(0,200)" />
        <path id="Baseline-S" d="M18,146 l800,0" />
        <path id="left-margin-Ultralight-M" d="M230,256 l0,110" />
        <path id="right-margin-Ultralight-M" d="M300,256 l0,110" />
        <path id="left-margin-Regular-M" d="M430,256 l0,110" />
        <path id="right-margin-Regular-M" d="M500,256 l0,110" />
        <path id="left-margin-Black-M" d="M630,256 l0,110" />
        <path id="right-margin-Black-M" d="M700,256 l0,110" />
        <path id="Capline-M" d="M18,276 l800,0" />
        <path id="Baseline-M" d="M18,346 l800,0" />
        <path id="Capline-L" d="M18,476 l800,0" />
        <path id="Baseline-L" d="M18,546 l800,0" />
    </g>
    <g id="Symbols">
        <g id="Ultralight-M" transform="translate(0,200)">
            <path d="M276.251,90.384 C279.235,93.358 280.911,97.392 280.911,101.598 C280.911,105.804 279.235,109.838 276.251,112.812 C275.008,114.051 275.008,116.059 276.25,117.297 C277.493,118.536 279.507,118.536 280.75,117.298 C284.928,113.134 287.275,107.487 287.275,101.598 C287.275,95.709 284.928,90.062 280.75,85.898 C279.507,84.66 277.493,84.66 276.25,85.898 C275.008,87.137 275.008,89.145 276.251,90.384 Z M253.749,112.812 C250.765,109.838 249.089,105.804 249.089,101.598 C249.089,97.392 250.765,93.358 253.749,90.384 C254.992,89.145 254.992,87.137 253.75,85.898 C252.507,84.66 250.493,84.66 249.25,85.898 C245.072,90.062 242.725,95.709 242.725,101.598 C242.725,107.487 245.072,113.134 249.25,117.298 C250.493,118.536 252.507,118.536 253.75,117.297 C254.992,116.059 254.992,114.051 253.749,112.812 Z M244.547,121.578 C233.562,110.411 233.645,92.485 244.748,81.414 C245.991,80.175 245.991,78.167 244.748,76.929 C243.505,75.69 241.49,75.69 240.248,76.929 C226.677,90.46 226.575,112.369 240.004,126.019 C241.234,127.27 243.248,127.29 244.503,126.063 C245.758,124.837 245.778,122.829 244.547,121.578 Z M285.249,81.414 C296.357,92.487 296.439,110.407 285.45,121.578 C284.219,122.829 284.239,124.837 285.494,126.063 C286.748,127.29 288.763,127.27 289.993,126.019 C303.426,112.365 303.326,90.462 289.749,76.929 C288.506,75.69 286.491,75.69 285.249,76.929 C284.006,78.168 284.006,80.176 285.249,81.414 Z M268.182,123.799 L268.182,101.598 C268.182,99.846 266.757,98.426 265,98.426 C263.243,98.426 261.818,99.846 261.818,101.598 L261.818,123.799 C261.818,125.551 263.243,126.971 265,126.971 C266.757,126.971 268.182,125.551 268.182,123.799 Z M242.727,146 L287.273,146 C291.513,146 292.519,145.932 294.106,145.277 C296.446,144.311 298.306,142.458 299.274,140.125 C299.931,138.543 300,137.541 300,133.314 C300,129.087 299.931,128.084 299.274,126.502 C298.306,124.17 296.446,122.316 294.106,121.351 C292.519,120.696 291.513,120.627 287.273,120.627 L242.727,120.627 C238.487,120.627 237.481,120.696 235.894,121.351 C233.554,122.316 231.694,124.17 230.726,126.503 C230.069,128.084 230,129.087 230,133.314 C230,137.541 230.069,138.543 230.726,140.125 C231.694,142.458 233.554,144.311 235.894,145.277 C237.481,145.932 238.487,146 242.727,146 Z M242.727,139.657 C239.554,139.657 238.785,139.605 238.329,139.416 C237.548,139.094 236.928,138.476 236.605,137.698 C236.416,137.243 236.364,136.476 236.364,133.314 C236.364,130.151 236.416,129.385 236.605,128.929 C236.928,128.151 237.548,127.533 238.328,127.211 C238.785,127.023 239.554,126.971 242.727,126.971 L287.273,126.971 C290.446,126.971 291.215,127.023 291.671,127.211 C292.452,127.533 293.072,128.151 293.395,128.929 C293.584,129.385 293.636,130.151 293.636,133.314 C293.636,136.476 293.584,137.243 293.395,137.698 C293.072,138.476 292.452,139.094 291.672,139.416 C291.215,139.605 290.446,139.657 287.273,139.657 L242.727,139.657 Z" />
        </g>
        <g id="Regular-M" transform="translate(0,200)">
            <path d="M476.251,90.384 C479.235,93.358 480.911,97.392 480.911,101.598 C480.911,105.804 479.235,109.838 476.251,112.812 C475.008,114.051 475.008,116.059 476.25,117.297 C477.493,118.536 479.507,118.536 480.75,117.298 C484.928,113.134 487.275,107.487 487.275,101.598 C487.275,95.709 484.928,90.062 480.75,85.898 C479.507,84.66 477.493,84.66 476.25,85.898 C475.008,87.137 475.008,89.145 476.251,90.384 Z M453.749,112.812 C450.765,109.838 449.089,105.804 449.089,101.598 C449.089,97.392 450.765,93.358 453.749,90.384 C454.992,89.145 454.992,87.137 453.75,85.898 C452.507,84.66 450.493,84.66 449.25,85.898 C445.072,90.062 442.725,95.709 442.725,101.598 C442.725,107.487 445.072,113.134 449.25,117.298 C450.493,118.536 452.507,118.536 453.75,117.297 C454.992,116.059 454.992,114.051 453.749,112.812 Z M444.547,121.578 C433.562,110.411 433.645,92.485 444.748,81.414 C445.991,80.175 445.991,78.167 444.748,76.929 C443.505,75.69 441.49,75.69 440.248,76.929 C426.677,90.46 426.575,112.369 440.004,126.019 C441.234,127.27 443.248,127.29 444.503,126.063 C445.758,124.837 445.778,122.829 444.547,121.578 Z M485.249,81.414 C496.357,92.487 496.439,110.407 485.45,121.578 C484.219,122.829 484.239,124.837 485.494,126.063 C486.748,127.29 488.763,127.27 489.993,126.019 C503.426,112.365 503.326,90.462 489.749,76.929 C488.506,75.69 486.491,75.69 485.249,76.929 C484.006,78.168 484.006,80.176 485.249,81.414 Z M468.182,123.799 L468.182,101.598 C468.182,99.846 466.757,98.426 465,98.426 C463.243,98.426 461.818,99.846 461.818,101.598 L461.818,123.799 C461.818,125.551 463.243,126.971 465,126.971 C466.757,126.971 468.182,125.551 468.182,123.799 Z M442.727,146 L487.273,146 C491.513,146 492.519,145.932 494.106,145.277 C496.446,144.311 498.306,142.458 499.274,140.125 C499.931,138.543 500,137.541 500,133.314 C500,129.087 499.931,128.084 499.274,126.502 C498.306,124.17 496.446,122.316 494.106,121.351 C492.519,120.696 491.513,120.627 487.273,120.627 L442.727,120.627 C438.487,120.627 437.481,120.696 435.894,121.351 C433.554,122.316 431.694,124.17 430.726,126.503 C430.069,128.084 430,129.087 430,133.314 C430,137.541 430.069,138.543 430.726,140.125 C431.694,142.458 433.554,144.311 435.894,145.277 C437.481,145.932 438.487,146 442.727,146 Z M442.727,139.657 C439.554,139.657 438.785,139.605 438.329,139.416 C437.548,139.094 436.928,138.476 436.605,137.698 C436.416,137.243 436.364,136.476 436.364,133.314 C436.364,130.151 436.416,129.385 436.605,128.929 C436.928,128.151 437.548,127.533 438.328,127.211 C438.785,127.023 439.554,126.971 442.727,126.971 L487.273,126.971 C490.446,126.971 491.215,127.023 491.671,127.211 C492.452,127.533 493.072,128.151 493.395,128.929 C493.584,129.385 493.636,130.151 493.636,133.314 C493.636,136.476 493.584,137.243 493.395,137.698 C493.072,138.476 492.452,139.094 491.672,139.416 C491.215,139.605 490.446,139.657 487.273,139.657 L442.727,139.657 Z" />
        </g>
        <g id="Black-M" transform="translate(0,200)">
            <path d="M676.251,90.384 C679.235,93.358 680.911,97.392 680.911,101.598 C680.911,105.804 679.235,109.838 676.251,112.812 C675.008,114.051 675.008,116.059 676.25,117.297 C677.493,118.536 679.507,118.536 680.75,117.298 C684.928,113.134 687.275,107.487 687.275,101.598 C687.275,95.709 684.928,90.062 680.75,85.898 C679.507,84.66 677.493,84.66 676.25,85.898 C675.008,87.137 675.008,89.145 676.251,90.384 Z M653.749,112.812 C650.765,109.838 649.089,105.804 649.089,101.598 C649.089,97.392 650.765,93.358 653.749,90.384 C654.992,89.145 654.992,87.137 653.75,85.898 C652.507,84.66 650.493,84.66 649.25,85.898 C645.072,90.062 642.725,95.709 642.725,101.598 C642.725,107.487 645.072,113.134 649.25,117.298 C650.493,118.536 652.507,118.536 653.75,117.297 C654.992,116.059 654.992,114.051 653.749,112.812 Z M644.547,121.578 C633.562,110.411 633.645,92.485 644.748,81.414 C645.991,80.175 645.991,78.167 644.748,76.929 C643.505,75.69 641.49,75.69 640.248,76.929 C626.677,90.46 626.575,112.369 640.004,126.019 C641.234,127.27 643.248,127.29 644.503,126.063 C645.758,124.837 645.778,122.829 644.547,121.578 Z M685.249,81.414 C696.357,92.487 696.439,110.407 685.45,121.578 C684.219,122.829 684.239,124.837 685.494,126.063 C686.748,127.29 688.763,127.27 689.993,126.019 C703.426,112.365 703.326,90.462 689.749,76.929 C688.506,75.69 686.491,75.69 685.249,76.929 C684.006,78.168 684.006,80.176 685.249,81.414 Z M668.182,123.799 L668.182,101.598 C668.182,99.846 666.757,98.426 665,98.426 C663.243,98.426 661.818,99.846 661.818,101.598 L661.818,123.799 C661.818,125.551 663.243,126.971 665,126.971 C666.757,126.971 668.182,125.551 668.182,123.799 Z M642.727,146 L687.273,146 C691.513,146 692.519,145.932 694.106,145.277 C696.446,144.311 698.306,142.458 699.274,140.125 C699.931,138.543 700,137.541 700,133.314 C700,129.087 699.931,128.084 699.274,126.502 C698.306,124.17 696.446,122.316 694.106,121.351 C692.519,120.696 691.513,120.627 687.273,120.627 L642.727,120.627 C638.487,120.627 637.481,120.696 635.894,121.351 C633.554,122.316 631.694,124.17 630.726,126.503 C630.069,128.084 630,129.087 630,133.314 C630,137.541 630.069,138.543 630.726,140.125 C631.694,142.458 633.554,144.311 635.894,145.277 C637.481,145.932 638.487,146 642.727,146 Z M642.727,139.657 C639.554,139.657 638.785,139.605 638.329,139.416 C637.548,139.094 636.928,138.476 636.605,137.698 C636.416,137.243 636.364,136.476 636.364,133.314 C636.364,130.151 636.416,129.385 636.605,128.929 C636.928,128.151 637.548,127.533 638.328,127.211 C638.785,127.023 639.554,126.971 642.727,126.971 L687.273,126.971 C690.446,126.971 691.215,127.023 691.671,127.211 C692.452,127.533 693.072,128.151 693.395,128.929 C693.584,129.385 693.636,130.151 693.636,133.314 C693.636,136.476 693.584,137.243 693.395,137.698 C693.072,138.476 692.452,139.094 691.672,139.416 C691.215,139.605 690.446,139.657 687.273,139.657 L642.727,139.657 Z" />
        </g>
    </g>
</svg>