<?xml version="1.0" encoding="UTF-8"?>
<svg height="600" width="800" xmlns="http://www.w3.org/2000/svg" xmlns:xlink="http://www.w3.org/1999/xlink">
    <g id="Notes" font-family="LucidaGrande, 'Lucida Grande', sans-serif" font-size="13">
        <rect fill="white" height="600.0" width="800.0" x="0.0" y="0.0" />
        <g font-size="13">
            <text x="18.0" y="176.0">Small</text>
            <text x="18.0" y="376.0">Medium</text>
            <text x="18.0" y="576.0">Large</text>
        </g>
        <g font-size="9">
            <text x="250.0" y="30.0">Ultralight</text>
            <text x="450.0" y="30.0">Regular</text>
            <text x="650.0" y="30.0">Black</text>
            <text id="template-version" fill="#505050" text-anchor="end" x="785.0" y="575.0">Template v.3.0</text>
            <a href="https://github.com/swhitty/SwiftDraw">
                <text fill="#505050" text-anchor="end" x="785.0" y="590.0">https://github.com/swhitty/SwiftDraw</text>
            </a>
        </g>
    </g>
    <g id="Guides" stroke="rgb(39, 170, 225)" stroke-width="0.5">
        <path id="Capline-S" d="M18,76 l800,0" />
        <path id="H-reference" d="M85,145.755 L87.685,145.755 L113.369,79.287 L114.052,79.287 L114.052,76 L112.148,76 L85,145.755 Z M95.693,121.536 L130.996,121.536 L130.263,119.313 L96.474,119.313 L95.693,121.536 Z M139.15,145.755 L141.787,145.755 L114.638,76 L113.466,76 L113.466,79.287 L139.15,145.755 Z" stroke="none" transform="translate(0,200)" />
        <path id="Baseline-S" d="M18,146 l800,0" />
        <path id="left-margin-Ultralight-M" d="M230,256 l0,110" />
        <path id="right-margin-Ultralight-M" d="M300,256 l0,110" />
        <path id="left-margin-Regular-M" d="M430,256 l0,110" />
        <path id="right-margin-Regular-M" d="M500,256 l0,110" />
        <path id="left-margin-Black-M" d="M630,256 l0,110" />
        <path id="right-margin-Black-M" d="M700,256 l0,110" />
        <path id="Capline-M" d="M18,276 l800,0" />
        <path id="Baseline-M" d="M18,346 l800,0" />
        <path id="Capline-L" d="M18,476 l800,0" />
        <path id="Baseline-L" d="M18,546 l800,0" />
    </g>
    <g id="Symbols">
        <g id="Ultralight-M" transform="translate(0,200)">
            <path d="M258,131.862 L258,90.703 C258,89.199 258.026,88.853 257.998,88.915 C258.004,88.903 258.004,88.903 258.004,88.903 C257.944,88.943 258.284,88.859 259.754,88.612 L290.555,83.426 C292.569,83.09 293.084,83.048 292.998,83.016 C293.002,83.018 293.002,83.018 293.002,83.018 C292.955,82.934 293,83.46 293,85.521 L293,124.793 C293,126.745 294.567,128.327 296.5,128.327 C298.433,128.327 300,126.745 300,124.793 L300,85.521 C300,81.838 299.929,81.011 299.077,79.505 C298.258,78.064 296.97,76.963 295.434,76.389 C293.824,75.784 293.027,75.848 289.408,76.453 L258.604,81.639 C255.935,82.087 255.27,82.252 254.127,83.017 C253.02,83.763 252.151,84.802 251.612,86.02 C251.051,87.276 251,87.954 251,90.703 L251,131.862 C251,133.814 252.567,135.396 254.5,135.396 C256.433,135.396 258,133.814 258,131.862 Z M251,131.862 C251,135.766 247.866,138.931 244,138.931 C240.134,138.931 237,135.766 237,131.862 C237,127.958 240.134,124.793 244,124.793 C247.866,124.793 251,127.958 251,131.862 Z M258,131.862 C258,124.054 251.732,117.724 244,117.724 C236.268,117.724 230,124.054 230,131.862 C230,139.67 236.268,146 244,146 C251.732,146 258,139.67 258,131.862 Z M293,124.793 C293,128.697 289.866,131.862 286,131.862 C282.134,131.862 279,128.697 279,124.793 C279,120.889 282.134,117.724 286,117.724 C289.866,117.724 293,120.889 293,124.793 Z M300,124.793 C300,116.985 293.732,110.655 286,110.655 C278.268,110.655 272,116.985 272,124.793 C272,132.601 278.268,138.931 286,138.931 C293.732,138.931 300,132.601 300,124.793 Z" />
        </g>
        <g id="Regular-M" transform="translate(0,200)">
            <path d="M458,131.862 L458,90.703 C458,89.199 458.026,88.853 457.998,88.915 C458.004,88.903 458.004,88.903 458.004,88.903 C457.944,88.943 458.284,88.859 459.754,88.612 L490.555,83.426 C492.569,83.09 493.084,83.048 492.998,83.016 C493.002,83.018 493.002,83.018 493.002,83.018 C492.955,82.934 493,83.46 493,85.521 L493,124.793 C493,126.745 494.567,128.327 496.5,128.327 C498.433,128.327 500,126.745 500,124.793 L500,85.521 C500,81.838 499.929,81.011 499.077,79.505 C498.258,78.064 496.97,76.963 495.434,76.389 C493.824,75.784 493.027,75.848 489.408,76.453 L458.604,81.639 C455.935,82.087 455.27,82.252 454.127,83.017 C453.02,83.763 452.151,84.802 451.612,86.02 C451.051,87.276 451,87.954 451,90.703 L451,131.862 C451,133.814 452.567,135.396 454.5,135.396 C456.433,135.396 458,133.814 458,131.862 Z M451,131.862 C451,135.766 447.866,138.931 444,138.931 C440.134,138.931 437,135.766 437,131.862 C437,127.958 440.134,124.793 444,124.793 C447.866,124.793 451,127.958 451,131.862 Z M458,131.862 C458,124.054 451.732,117.724 444,117.724 C436.268,117.724 430,124.054 430,131.862 C430,139.67 436.268,146 444,146 C451.732,146 458,139.67 458,131.862 Z M493,124.793 C493,128.697 489.866,131.862 486,131.862 C482.134,131.862 479,128.697 479,124.793 C479,120.889 482.134,117.724 486,117.724 C489.866,117.724 493,120.889 493,124.793 Z M500,124.793 C500,116.985 493.732,110.655 486,110.655 C478.268,110.655 472,116.985 472,124.793 C472,132.601 478.268,138.931 486,138.931 C493.732,138.931 500,132.601 500,124.793 Z" />
        </g>
        <g id="Black-M" transform="translate(0,200)">
            <path d="M658,131.862 L658,90.703 C658,89.199 658.026,88.853 657.998,88.915 C658.004,88.903 658.004,88.903 658.004,88.903 C657.944,88.943 658.284,88.859 659.754,88.612 L690.555,83.426 C692.569,83.09 693.084,83.048 692.998,83.016 C693.002,83.018 693.002,83.018 693.002,83.018 C692.955,82.934 693,83.46 693,85.521 L693,124.793 C693,126.745 694.567,128.327 696.5,128.327 C698.433,128.327 700,126.745 700,124.793 L700,85.521 C700,81.838 699.929,81.011 699.077,79.505 C698.258,78.064 696.97,76.963 695.434,76.389 C693.824,75.784 693.027,75.848 689.408,76.453 L658.604,81.639 C655.935,82.087 655.27,82.252 654.127,83.017 C653.02,83.763 652.151,84.802 651.612,86.02 C651.051,87.276 651,87.954 651,90.703 L651,131.862 C651,133.814 652.567,135.396 654.5,135.396 C656.433,135.396 658,133.814 658,131.862 Z M651,131.862 C651,135.766 647.866,138.931 644,138.931 C640.134,138.931 637,135.766 637,131.862 C637,127.958 640.134,124.793 644,124.793 C647.866,124.793 651,127.958 651,131.862 Z M658,131.862 C658,124.054 651.732,117.724 644,117.724 C636.268,117.724 630,124.054 630,131.862 C630,139.67 636.268,146 644,146 C651.732,146 658,139.67 658,131.862 Z M693,124.793 C693,128.697 689.866,131.862 686,131.862 C682.134,131.862 679,128.697 679,124.793 C679,120.889 682.134,117.724 686,117.724 C689.866,117.724 693,120.889 693,124.793 Z M700,124.793 C700,116.985 693.732,110.655 686,110.655 C678.268,110.655 672,116.985 672,124.793 C672,132.601 678.268,138.931 686,138.931 C693.732,138.931 700,132.601 700,124.793 Z" />
        </g>
    </g>
</svg>