<?xml version="1.0" encoding="UTF-8"?>
<svg height="600" width="800" xmlns="http://www.w3.org/2000/svg" xmlns:xlink="http://www.w3.org/1999/xlink">
    <g id="Notes" font-family="LucidaGrande, 'Lucida Grande', sans-serif" font-size="13">
        <rect fill="white" height="600.0" width="800.0" x="0.0" y="0.0" />
        <g font-size="13">
            <text x="18.0" y="176.0">Small</text>
            <text x="18.0" y="376.0">Medium</text>
            <text x="18.0" y="576.0">Large</text>
        </g>
        <g font-size="9">
            <text x="250.0" y="30.0">Ultralight</text>
            <text x="450.0" y="30.0">Regular</text>
            <text x="650.0" y="30.0">Black</text>
            <text id="template-version" fill="#505050" text-anchor="end" x="785.0" y="575.0">Template v.3.0</text>
            <a href="https://github.com/swhitty/SwiftDraw">
                <text fill="#505050" text-anchor="end" x="785.0" y="590.0">https://github.com/swhitty/SwiftDraw</text>
            </a>
        </g>
    </g>
    <g id="Guides" stroke="rgb(39, 170, 225)" stroke-width="0.5">
        <path id="Capline-S" d="M18,76 l800,0" />
        <path id="H-reference" d="M85,145.755 L87.685,145.755 L113.369,79.287 L114.052,79.287 L114.052,76 L112.148,76 L85,145.755 Z M95.693,121.536 L130.996,121.536 L130.263,119.313 L96.474,119.313 L95.693,121.536 Z M139.15,145.755 L141.787,145.755 L114.638,76 L113.466,76 L113.466,79.287 L139.15,145.755 Z" stroke="none" transform="translate(0,200)" />
        <path id="Baseline-S" d="M18,146 l800,0" />
        <path id="left-margin-Ultralight-M" d="M230,256 l0,110" />
        <path id="right-margin-Ultralight-M" d="M300,256 l0,110" />
        <path id="left-margin-Regular-M" d="M430,256 l0,110" />
        <path id="right-margin-Regular-M" d="M500,256 l0,110" />
        <path id="left-margin-Black-M" d="M630,256 l0,110" />
        <path id="right-margin-Black-M" d="M700,256 l0,110" />
        <path id="Capline-M" d="M18,276 l800,0" />
        <path id="Baseline-M" d="M18,346 l800,0" />
        <path id="Capline-L" d="M18,476 l800,0" />
        <path id="Baseline-L" d="M18,546 l800,0" />
    </g>
    <g id="Symbols">
        <g id="Ultralight-M" transform="translate(0,200)">
            <path d="M263.212,93.143 L265.522,87.876 C266.022,86.736 266.211,86.347 266.257,86.289 C266.13,86.451 265.929,86.628 265.629,86.776 C265.229,86.975 264.747,86.975 264.338,86.771 C264.048,86.628 263.847,86.451 263.72,86.289 C263.765,86.347 263.954,86.736 264.456,87.877 L273.707,108.972 C274.354,110.447 276.074,111.118 277.549,110.472 C279.025,109.825 279.696,108.104 279.049,106.629 L269.797,85.533 C269.018,83.759 268.808,83.328 268.319,82.701 C267.943,82.219 267.495,81.825 266.93,81.546 C265.711,80.938 264.266,80.938 263.037,81.55 C262.481,81.825 262.033,82.219 261.657,82.701 C261.168,83.328 260.959,83.759 260.18,85.531 L257.869,90.8 C257.222,92.275 257.894,93.996 259.369,94.643 C260.844,95.29 262.565,94.618 263.212,93.143 Z M253.424,100.938 L238.943,133.955 C237.522,137.189 237.396,137.562 237.871,139.08 C238.306,140.452 239.374,141.516 240.736,141.943 C242.263,142.419 242.651,142.287 245.867,140.866 L265.221,132.351 C265.391,132.277 265.428,132.263 265.269,132.294 C265.24,132.299 265.24,132.299 265.211,132.304 C265.083,132.328 264.89,132.328 264.706,132.294 C264.74,132.3 264.74,132.3 264.718,132.296 C264.554,132.266 264.583,132.277 264.76,132.354 L284.111,140.868 C287.32,142.285 287.716,142.42 289.236,141.944 C290.6,141.516 291.668,140.452 292.099,139.091 C292.576,137.559 292.458,137.21 291.035,133.957 L290.433,132.594 C289.784,131.12 288.062,130.452 286.588,131.102 C285.114,131.751 284.446,133.473 285.096,134.947 L285.694,136.303 C286.164,137.377 286.317,137.742 286.419,138.045 C286.411,138.02 286.385,137.823 286.534,137.343 C286.683,136.875 287.039,136.52 287.493,136.377 C287.979,136.225 288.178,136.251 288.206,136.261 C287.902,136.158 287.515,135.994 286.464,135.53 L267.102,127.012 C266.427,126.717 266.251,126.648 265.788,126.562 C265.74,126.553 265.74,126.553 265.692,126.545 C265.244,126.463 264.73,126.463 264.224,126.555 C264.22,126.555 264.22,126.555 264.158,126.567 C263.709,126.654 263.58,126.705 262.887,127.005 L243.514,135.528 C242.452,135.997 242.071,136.158 241.768,136.261 C241.795,136.252 241.994,136.226 242.475,136.375 C242.935,136.52 243.291,136.875 243.435,137.328 C243.59,137.823 243.564,138.021 243.555,138.047 C243.658,137.743 243.817,137.365 244.285,136.3 L258.766,103.282 C259.413,101.806 258.742,100.086 257.267,99.439 C255.792,98.792 254.071,99.463 253.424,100.938 Z M296.229,138.104 L237.896,79.771 C236.757,78.632 234.91,78.632 233.771,79.771 C232.632,80.91 232.632,82.757 233.771,83.896 L292.104,142.229 C293.243,143.368 295.09,143.368 296.229,142.229 C297.368,141.09 297.368,139.243 296.229,138.104 Z" />
        </g>
        <g id="Regular-M" transform="translate(0,200)">
            <path d="M463.212,93.143 L465.522,87.876 C466.022,86.736 466.211,86.347 466.257,86.289 C466.13,86.451 465.929,86.628 465.629,86.776 C465.229,86.975 464.747,86.975 464.338,86.771 C464.048,86.628 463.847,86.451 463.72,86.289 C463.765,86.347 463.954,86.736 464.456,87.877 L473.707,108.972 C474.354,110.447 476.074,111.118 477.549,110.472 C479.025,109.825 479.696,108.104 479.049,106.629 L469.797,85.533 C469.018,83.759 468.808,83.328 468.319,82.701 C467.943,82.219 467.495,81.825 466.93,81.546 C465.711,80.938 464.266,80.938 463.037,81.55 C462.481,81.825 462.033,82.219 461.657,82.701 C461.168,83.328 460.959,83.759 460.18,85.531 L457.869,90.8 C457.222,92.275 457.894,93.996 459.369,94.643 C460.844,95.29 462.565,94.618 463.212,93.143 Z M453.424,100.938 L438.943,133.955 C437.522,137.189 437.396,137.562 437.871,139.08 C438.306,140.452 439.374,141.516 440.736,141.943 C442.263,142.419 442.651,142.287 445.867,140.866 L465.221,132.351 C465.391,132.277 465.428,132.263 465.269,132.294 C465.24,132.299 465.24,132.299 465.211,132.304 C465.083,132.328 464.89,132.328 464.706,132.294 C464.74,132.3 464.74,132.3 464.718,132.296 C464.554,132.266 464.583,132.277 464.76,132.354 L484.111,140.868 C487.32,142.285 487.716,142.42 489.236,141.944 C490.6,141.516 491.668,140.452 492.099,139.091 C492.576,137.559 492.458,137.21 491.035,133.957 L490.433,132.594 C489.784,131.12 488.062,130.452 486.588,131.102 C485.114,131.751 484.446,133.473 485.096,134.947 L485.694,136.303 C486.164,137.377 486.317,137.742 486.419,138.045 C486.411,138.02 486.385,137.823 486.534,137.343 C486.683,136.875 487.039,136.52 487.493,136.377 C487.979,136.225 488.178,136.251 488.206,136.261 C487.902,136.158 487.515,135.994 486.464,135.53 L467.102,127.012 C466.427,126.717 466.251,126.648 465.788,126.562 C465.74,126.553 465.74,126.553 465.692,126.545 C465.244,126.463 464.73,126.463 464.224,126.555 C464.22,126.555 464.22,126.555 464.158,126.567 C463.709,126.654 463.58,126.705 462.887,127.005 L443.514,135.528 C442.452,135.997 442.071,136.158 441.768,136.261 C441.795,136.252 441.994,136.226 442.475,136.375 C442.935,136.52 443.291,136.875 443.435,137.328 C443.59,137.823 443.564,138.021 443.555,138.047 C443.658,137.743 443.817,137.365 444.285,136.3 L458.766,103.282 C459.413,101.806 458.742,100.086 457.267,99.439 C455.792,98.792 454.071,99.463 453.424,100.938 Z M496.229,138.104 L437.896,79.771 C436.757,78.632 434.91,78.632 433.771,79.771 C432.632,80.91 432.632,82.757 433.771,83.896 L492.104,142.229 C493.243,143.368 495.09,143.368 496.229,142.229 C497.368,141.09 497.368,139.243 496.229,138.104 Z" />
        </g>
        <g id="Black-M" transform="translate(0,200)">
            <path d="M663.212,93.143 L665.522,87.876 C666.022,86.736 666.211,86.347 666.257,86.289 C666.13,86.451 665.929,86.628 665.629,86.776 C665.229,86.975 664.747,86.975 664.338,86.771 C664.048,86.628 663.847,86.451 663.72,86.289 C663.765,86.347 663.954,86.736 664.456,87.877 L673.707,108.972 C674.354,110.447 676.074,111.118 677.549,110.472 C679.025,109.825 679.696,108.104 679.049,106.629 L669.797,85.533 C669.018,83.759 668.808,83.328 668.319,82.701 C667.943,82.219 667.495,81.825 666.93,81.546 C665.711,80.938 664.266,80.938 663.037,81.55 C662.481,81.825 662.033,82.219 661.657,82.701 C661.168,83.328 660.959,83.759 660.18,85.531 L657.869,90.8 C657.222,92.275 657.894,93.996 659.369,94.643 C660.844,95.29 662.565,94.618 663.212,93.143 Z M653.424,100.938 L638.943,133.955 C637.522,137.189 637.396,137.562 637.871,139.08 C638.306,140.452 639.374,141.516 640.736,141.943 C642.263,142.419 642.651,142.287 645.867,140.866 L665.221,132.351 C665.391,132.277 665.428,132.263 665.269,132.294 C665.24,132.299 665.24,132.299 665.211,132.304 C665.083,132.328 664.89,132.328 664.706,132.294 C664.74,132.3 664.74,132.3 664.718,132.296 C664.554,132.266 664.583,132.277 664.76,132.354 L684.111,140.868 C687.32,142.285 687.716,142.42 689.236,141.944 C690.6,141.516 691.668,140.452 692.099,139.091 C692.576,137.559 692.458,137.21 691.035,133.957 L690.433,132.594 C689.784,131.12 688.062,130.452 686.588,131.102 C685.114,131.751 684.446,133.473 685.096,134.947 L685.694,136.303 C686.164,137.377 686.317,137.742 686.419,138.045 C686.411,138.02 686.385,137.823 686.534,137.343 C686.683,136.875 687.039,136.52 687.493,136.377 C687.979,136.225 688.178,136.251 688.206,136.261 C687.902,136.158 687.515,135.994 686.464,135.53 L667.102,127.012 C666.427,126.717 666.251,126.648 665.789,126.562 C665.74,126.553 665.74,126.553 665.692,126.545 C665.244,126.463 664.73,126.463 664.224,126.555 C664.22,126.555 664.22,126.555 664.158,126.567 C663.709,126.654 663.58,126.705 662.887,127.005 L643.514,135.528 C642.452,135.997 642.071,136.158 641.768,136.261 C641.794,136.252 641.994,136.226 642.475,136.375 C642.935,136.52 643.291,136.875 643.435,137.328 C643.59,137.823 643.564,138.021 643.555,138.047 C643.658,137.743 643.817,137.365 644.284,136.3 L658.766,103.282 C659.413,101.806 658.742,100.086 657.267,99.439 C655.792,98.792 654.071,99.463 653.424,100.938 Z M696.229,138.104 L637.896,79.771 C636.757,78.632 634.91,78.632 633.771,79.771 C632.632,80.91 632.632,82.757 633.771,83.896 L692.104,142.229 C693.243,143.368 695.09,143.368 696.229,142.229 C697.368,141.09 697.368,139.243 696.229,138.104 Z" />
        </g>
    </g>
</svg>