<?xml version="1.0" encoding="UTF-8"?>
<svg height="600" width="800" xmlns="http://www.w3.org/2000/svg" xmlns:xlink="http://www.w3.org/1999/xlink">
    <g id="Notes" font-family="LucidaGrande, 'Lucida Grande', sans-serif" font-size="13">
        <rect fill="white" height="600.0" width="800.0" x="0.0" y="0.0" />
        <g font-size="13">
            <text x="18.0" y="176.0">Small</text>
            <text x="18.0" y="376.0">Medium</text>
            <text x="18.0" y="576.0">Large</text>
        </g>
        <g font-size="9">
            <text x="250.0" y="30.0">Ultralight</text>
            <text x="450.0" y="30.0">Regular</text>
            <text x="650.0" y="30.0">Black</text>
            <text id="template-version" fill="#505050" text-anchor="end" x="785.0" y="575.0">Template v.3.0</text>
            <a href="https://github.com/swhitty/SwiftDraw">
                <text fill="#505050" text-anchor="end" x="785.0" y="590.0">https://github.com/swhitty/SwiftDraw</text>
            </a>
        </g>
    </g>
    <g id="Guides" stroke="rgb(39, 170, 225)" stroke-width="0.5">
        <path id="Capline-S" d="M18,76 l800,0" />
        <path id="H-reference" d="M85,145.755 L87.685,145.755 L113.369,79.287 L114.052,79.287 L114.052,76 L112.148,76 L85,145.755 Z M95.693,121.536 L130.996,121.536 L130.263,119.313 L96.474,119.313 L95.693,121.536 Z M139.15,145.755 L141.787,145.755 L114.638,76 L113.466,76 L113.466,79.287 L139.15,145.755 Z" stroke="none" transform="translate(0,200)" />
        <path id="Baseline-S" d="M18,146 l800,0" />
        <path id="left-margin-Ultralight-M" d="M228.158,256 l0,110" />
        <path id="right-margin-Ultralight-M" d="M301.842,256 l0,110" />
        <path id="left-margin-Regular-M" d="M428.158,256 l0,110" />
        <path id="right-margin-Regular-M" d="M501.842,256 l0,110" />
        <path id="left-margin-Black-M" d="M628.158,256 l0,110" />
        <path id="right-margin-Black-M" d="M701.842,256 l0,110" />
        <path id="Capline-M" d="M18,276 l800,0" />
        <path id="Baseline-M" d="M18,346 l800,0" />
        <path id="Capline-L" d="M18,476 l800,0" />
        <path id="Baseline-L" d="M18,546 l800,0" />
    </g>
    <g id="Symbols">
        <g id="Ultralight-M" transform="translate(0,200)">
            <path d="M261.217,79.25 L249.463,79.25 C241.011,79.25 239.002,79.407 236.181,80.782 C233.416,82.129 231.168,84.279 229.759,86.923 C228.322,89.622 228.158,91.543 228.158,99.626 L228.158,125.624 C228.158,133.707 228.322,135.628 229.759,138.327 C231.168,140.971 233.416,143.121 236.18,144.468 C239.002,145.843 241.011,146 249.463,146 L276.645,146 C285.097,146 287.105,145.843 289.927,144.469 C292.692,143.121 294.94,140.971 296.349,138.327 C297.786,135.628 297.95,133.707 297.95,125.624 L297.95,114.382 C297.95,112.441 296.305,110.869 294.277,110.869 C292.248,110.869 290.603,112.441 290.603,114.382 L290.603,125.624 C290.603,132.295 290.467,133.889 289.802,135.138 C289.098,136.459 287.975,137.534 286.592,138.208 C285.287,138.843 283.621,138.974 276.645,138.974 L249.463,138.974 C242.487,138.974 240.82,138.843 239.515,138.208 C238.133,137.534 237.01,136.459 236.305,135.137 C235.641,133.889 235.504,132.295 235.504,125.624 L235.504,99.626 C235.504,92.955 235.641,91.361 236.305,90.112 C237.01,88.791 238.133,87.716 239.516,87.042 C240.82,86.407 242.487,86.277 249.463,86.277 L261.217,86.277 C263.246,86.277 264.891,84.704 264.891,82.763 C264.891,80.823 263.246,79.25 261.217,79.25 Z M268.564,124.921 L246.524,124.921 C244.496,124.921 242.851,126.494 242.851,128.434 C242.851,130.375 244.496,131.947 246.524,131.947 L268.564,131.947 C270.593,131.947 272.237,130.375 272.237,128.434 C272.237,126.494 270.593,124.921 268.564,124.921 Z M275.91,110.869 L246.524,110.869 C244.496,110.869 242.851,112.441 242.851,114.382 C242.851,116.322 244.496,117.895 246.524,117.895 L275.91,117.895 C277.939,117.895 279.584,116.322 279.584,114.382 C279.584,112.441 277.939,110.869 275.91,110.869 Z M292.197,84.891 C294.139,86.648 294.93,89.275 294.262,91.751 C293.594,94.226 291.573,96.16 288.984,96.799 C286.396,97.437 283.649,96.681 281.811,94.823 C279.133,92.074 279.213,87.76 282.01,85.084 C284.808,82.409 289.319,82.332 292.213,84.912 C293.664,86.205 295.925,86.163 297.323,84.819 L297.326,84.815 L294.721,82.338 L292.197,84.891 Z M297.245,79.786 C295.797,78.476 293.521,78.51 292.116,79.862 L292.112,79.865 L294.718,82.342 L297.222,79.772 C291.432,74.612 282.411,74.764 276.816,80.116 C271.22,85.467 271.061,94.096 276.455,99.633 C280.148,103.367 285.643,104.88 290.82,103.602 C295.997,102.324 300.04,98.458 301.376,93.506 C302.712,88.555 301.13,83.3 297.245,79.786 Z" />
        </g>
        <g id="Regular-M" transform="translate(0,200)">
            <path d="M461.217,79.25 L449.463,79.25 C441.011,79.25 439.002,79.407 436.181,80.782 C433.416,82.129 431.168,84.279 429.759,86.923 C428.322,89.622 428.158,91.543 428.158,99.626 L428.158,125.624 C428.158,133.707 428.322,135.628 429.759,138.327 C431.168,140.971 433.416,143.121 436.18,144.468 C439.002,145.843 441.011,146 449.463,146 L476.645,146 C485.097,146 487.105,145.843 489.927,144.469 C492.692,143.121 494.94,140.971 496.349,138.327 C497.786,135.628 497.95,133.707 497.95,125.624 L497.95,114.382 C497.95,112.441 496.305,110.869 494.277,110.869 C492.248,110.869 490.603,112.441 490.603,114.382 L490.603,125.624 C490.603,132.295 490.467,133.889 489.802,135.138 C489.098,136.459 487.975,137.534 486.592,138.208 C485.287,138.843 483.621,138.974 476.645,138.974 L449.463,138.974 C442.487,138.974 440.82,138.843 439.515,138.208 C438.133,137.534 437.01,136.459 436.305,135.137 C435.641,133.889 435.504,132.295 435.504,125.624 L435.504,99.626 C435.504,92.955 435.641,91.361 436.305,90.112 C437.01,88.791 438.133,87.716 439.516,87.042 C440.82,86.407 442.487,86.277 449.463,86.277 L461.217,86.277 C463.246,86.277 464.891,84.704 464.891,82.763 C464.891,80.823 463.246,79.25 461.217,79.25 Z M468.564,124.921 L446.524,124.921 C444.496,124.921 442.851,126.494 442.851,128.434 C442.851,130.375 444.496,131.947 446.524,131.947 L468.564,131.947 C470.593,131.947 472.237,130.375 472.237,128.434 C472.237,126.494 470.593,124.921 468.564,124.921 Z M475.91,110.869 L446.524,110.869 C444.496,110.869 442.851,112.441 442.851,114.382 C442.851,116.322 444.496,117.895 446.524,117.895 L475.91,117.895 C477.939,117.895 479.584,116.322 479.584,114.382 C479.584,112.441 477.939,110.869 475.91,110.869 Z M492.197,84.891 C494.139,86.648 494.93,89.275 494.262,91.751 C493.594,94.226 491.573,96.16 488.984,96.799 C486.396,97.437 483.649,96.681 481.811,94.823 C479.133,92.074 479.213,87.76 482.01,85.084 C484.808,82.409 489.319,82.332 492.213,84.912 C493.664,86.205 495.925,86.163 497.323,84.819 L497.326,84.815 L494.721,82.338 L492.197,84.891 Z M497.245,79.786 C495.797,78.476 493.521,78.51 492.116,79.862 L492.112,79.865 L494.718,82.342 L497.222,79.772 C491.432,74.612 482.411,74.764 476.816,80.116 C471.22,85.467 471.061,94.096 476.455,99.633 C480.148,103.367 485.643,104.88 490.82,103.602 C495.997,102.324 500.04,98.458 501.376,93.506 C502.712,88.555 501.13,83.3 497.245,79.786 Z" />
        </g>
        <g id="Black-M" transform="translate(0,200)">
            <path d="M661.217,79.25 L649.463,79.25 C641.011,79.25 639.002,79.407 636.181,80.782 C633.416,82.129 631.168,84.279 629.759,86.923 C628.322,89.622 628.158,91.543 628.158,99.626 L628.158,125.624 C628.158,133.707 628.322,135.628 629.759,138.327 C631.168,140.971 633.416,143.121 636.18,144.468 C639.002,145.843 641.011,146 649.463,146 L676.645,146 C685.097,146 687.106,145.843 689.927,144.469 C692.692,143.121 694.94,140.971 696.349,138.327 C697.786,135.628 697.95,133.707 697.95,125.624 L697.95,114.382 C697.95,112.441 696.305,110.869 694.277,110.869 C692.248,110.869 690.604,112.441 690.604,114.382 L690.604,125.624 C690.604,132.295 690.467,133.889 689.802,135.138 C689.098,136.459 687.975,137.534 686.592,138.208 C685.287,138.843 683.621,138.974 676.645,138.974 L649.463,138.974 C642.487,138.974 640.82,138.843 639.515,138.208 C638.133,137.534 637.01,136.459 636.305,135.137 C635.641,133.889 635.504,132.295 635.504,125.624 L635.504,99.626 C635.504,92.955 635.641,91.361 636.305,90.112 C637.01,88.791 638.133,87.716 639.516,87.042 C640.82,86.407 642.487,86.277 649.463,86.277 L661.217,86.277 C663.246,86.277 664.891,84.704 664.891,82.763 C664.891,80.823 663.246,79.25 661.217,79.25 Z M668.564,124.921 L646.524,124.921 C644.496,124.921 642.851,126.494 642.851,128.434 C642.851,130.375 644.496,131.947 646.524,131.947 L668.564,131.947 C670.593,131.947 672.237,130.375 672.237,128.434 C672.237,126.494 670.593,124.921 668.564,124.921 Z M675.91,110.869 L646.524,110.869 C644.496,110.869 642.851,112.441 642.851,114.382 C642.851,116.322 644.496,117.895 646.524,117.895 L675.91,117.895 C677.939,117.895 679.584,116.322 679.584,114.382 C679.584,112.441 677.939,110.869 675.91,110.869 Z M692.197,84.891 C694.139,86.648 694.93,89.275 694.262,91.751 C693.594,94.226 691.573,96.16 688.984,96.799 C686.396,97.437 683.649,96.681 681.812,94.823 C679.133,92.074 679.213,87.76 682.01,85.084 C684.808,82.409 689.319,82.332 692.213,84.912 C693.664,86.205 695.925,86.163 697.323,84.819 L697.326,84.815 L694.721,82.338 L692.197,84.891 Z M697.245,79.786 C695.797,78.476 693.521,78.51 692.116,79.862 L692.112,79.865 L694.718,82.342 L697.222,79.772 C691.432,74.612 682.411,74.764 676.816,80.116 C671.22,85.467 671.061,94.096 676.456,99.633 C680.148,103.367 685.643,104.88 690.82,103.602 C695.997,102.324 700.04,98.458 701.376,93.506 C702.712,88.555 701.13,83.3 697.245,79.786 Z" />
        </g>
    </g>
</svg>