<?xml version="1.0" encoding="UTF-8"?>
<svg height="600" width="800" xmlns="http://www.w3.org/2000/svg" xmlns:xlink="http://www.w3.org/1999/xlink">
    <g id="Notes" font-family="LucidaGrande, 'Lucida Grande', sans-serif" font-size="13">
        <rect fill="white" height="600.0" width="800.0" x="0.0" y="0.0" />
        <g font-size="13">
            <text x="18.0" y="176.0">Small</text>
            <text x="18.0" y="376.0">Medium</text>
            <text x="18.0" y="576.0">Large</text>
        </g>
        <g font-size="9">
            <text x="250.0" y="30.0">Ultralight</text>
            <text x="450.0" y="30.0">Regular</text>
            <text x="650.0" y="30.0">Black</text>
            <text id="template-version" fill="#505050" text-anchor="end" x="785.0" y="575.0">Template v.3.0</text>
            <a href="https://github.com/swhitty/SwiftDraw">
                <text fill="#505050" text-anchor="end" x="785.0" y="590.0">https://github.com/swhitty/SwiftDraw</text>
            </a>
        </g>
    </g>
    <g id="Guides" stroke="rgb(39, 170, 225)" stroke-width="0.5">
        <path id="Capline-S" d="M18,76 l800,0" />
        <path id="H-reference" d="M85,145.755 L87.685,145.755 L113.369,79.287 L114.052,79.287 L114.052,76 L112.148,76 L85,145.755 Z M95.693,121.536 L130.996,121.536 L130.263,119.313 L96.474,119.313 L95.693,121.536 Z M139.15,145.755 L141.787,145.755 L114.638,76 L113.466,76 L113.466,79.287 L139.15,145.755 Z" stroke="none" transform="translate(0,200)" />
        <path id="Baseline-S" d="M18,146 l800,0" />
        <path id="left-margin-Ultralight-M" d="M230,256 l0,110" />
        <path id="right-margin-Ultralight-M" d="M300,256 l0,110" />
        <path id="left-margin-Regular-M" d="M430,256 l0,110" />
        <path id="right-margin-Regular-M" d="M500,256 l0,110" />
        <path id="left-margin-Black-M" d="M630,256 l0,110" />
        <path id="right-margin-Black-M" d="M700,256 l0,110" />
        <path id="Capline-M" d="M18,276 l800,0" />
        <path id="Baseline-M" d="M18,346 l800,0" />
        <path id="Capline-L" d="M18,476 l800,0" />
        <path id="Baseline-L" d="M18,546 l800,0" />
    </g>
    <g id="Symbols">
        <g id="Ultralight-M" transform="translate(0,200)">
            <path d="M261.406,79.25 L250.24,79.25 C242.21,79.25 240.302,79.407 237.622,80.782 C234.995,82.129 232.86,84.279 231.521,86.923 C230.156,89.622 230,91.543 230,99.626 L230,125.624 C230,133.707 230.156,135.628 231.521,138.327 C232.86,140.971 234.995,143.121 237.621,144.468 C240.302,145.843 242.21,146 250.24,146 L276.063,146 C284.092,146 286,145.843 288.681,144.469 C291.308,143.121 293.443,140.971 294.781,138.327 C296.147,135.628 296.303,133.707 296.303,125.624 L296.303,114.382 C296.303,112.441 294.74,110.869 292.813,110.869 C290.886,110.869 289.323,112.441 289.323,114.382 L289.323,125.624 C289.323,132.295 289.194,133.889 288.562,135.138 C287.893,136.459 286.826,137.534 285.513,138.208 C284.273,138.843 282.69,138.974 276.063,138.974 L250.24,138.974 C243.613,138.974 242.029,138.843 240.789,138.208 C239.477,137.534 238.409,136.459 237.74,135.137 C237.109,133.889 236.979,132.296 236.979,125.624 L236.979,99.626 C236.979,92.955 237.109,91.361 237.74,90.112 C238.409,88.791 239.477,87.716 240.79,87.042 C242.029,86.407 243.613,86.277 250.24,86.277 L261.406,86.277 C263.334,86.277 264.896,84.704 264.896,82.763 C264.896,80.823 263.334,79.25 261.406,79.25 Z M290.837,84.891 C292.682,86.648 293.434,89.275 292.799,91.751 C292.165,94.226 290.244,96.16 287.785,96.799 C285.326,97.437 282.716,96.681 280.971,94.823 C278.426,92.074 278.502,87.76 281.16,85.084 C283.818,82.409 288.103,82.332 290.853,84.912 C292.231,86.205 294.379,86.163 295.707,84.819 L295.71,84.815 L293.235,82.338 L290.837,84.891 Z M295.633,79.786 C294.258,78.476 292.095,78.51 290.76,79.862 L290.757,79.865 L293.232,82.342 L295.611,79.772 C290.111,74.612 281.54,74.764 276.225,80.116 C270.909,85.467 270.758,94.096 275.883,99.633 C279.391,103.367 284.611,104.88 289.529,103.602 C294.447,102.324 298.288,98.458 299.557,93.506 C300.826,88.555 299.323,83.3 295.633,79.786 Z" />
        </g>
        <g id="Regular-M" transform="translate(0,200)">
            <path d="M461.406,79.25 L450.24,79.25 C442.21,79.25 440.302,79.407 437.622,80.782 C434.995,82.129 432.86,84.279 431.521,86.923 C430.156,89.622 430,91.543 430,99.626 L430,125.624 C430,133.707 430.156,135.628 431.521,138.327 C432.86,140.971 434.995,143.121 437.621,144.468 C440.302,145.843 442.21,146 450.24,146 L476.063,146 C484.092,146 486,145.843 488.681,144.469 C491.308,143.121 493.443,140.971 494.781,138.327 C496.147,135.628 496.303,133.707 496.303,125.624 L496.303,114.382 C496.303,112.441 494.74,110.869 492.813,110.869 C490.886,110.869 489.323,112.441 489.323,114.382 L489.323,125.624 C489.323,132.295 489.194,133.889 488.562,135.138 C487.893,136.459 486.826,137.534 485.513,138.208 C484.273,138.843 482.69,138.974 476.063,138.974 L450.24,138.974 C443.613,138.974 442.029,138.843 440.789,138.208 C439.477,137.534 438.409,136.459 437.74,135.137 C437.109,133.889 436.979,132.296 436.979,125.624 L436.979,99.626 C436.979,92.955 437.109,91.361 437.74,90.112 C438.409,88.791 439.477,87.716 440.79,87.042 C442.029,86.407 443.613,86.277 450.24,86.277 L461.406,86.277 C463.334,86.277 464.896,84.704 464.896,82.763 C464.896,80.823 463.334,79.25 461.406,79.25 Z M490.837,84.891 C492.682,86.648 493.434,89.275 492.799,91.751 C492.165,94.226 490.244,96.16 487.785,96.799 C485.326,97.437 482.716,96.681 480.971,94.823 C478.426,92.074 478.502,87.76 481.16,85.084 C483.818,82.409 488.103,82.332 490.853,84.912 C492.231,86.205 494.379,86.163 495.707,84.819 L495.71,84.815 L493.235,82.338 L490.837,84.891 Z M495.633,79.786 C494.258,78.476 492.095,78.51 490.76,79.862 L490.757,79.865 L493.232,82.342 L495.611,79.772 C490.111,74.612 481.54,74.764 476.225,80.116 C470.909,85.467 470.758,94.096 475.883,99.633 C479.391,103.367 484.611,104.88 489.529,103.602 C494.447,102.324 498.288,98.458 499.557,93.506 C500.826,88.555 499.323,83.3 495.633,79.786 Z" />
        </g>
        <g id="Black-M" transform="translate(0,200)">
            <path d="M661.406,79.25 L650.24,79.25 C642.21,79.25 640.302,79.407 637.622,80.782 C634.995,82.129 632.86,84.279 631.521,86.923 C630.156,89.622 630,91.543 630,99.626 L630,125.624 C630,133.707 630.156,135.628 631.521,138.327 C632.86,140.971 634.995,143.121 637.621,144.468 C640.302,145.843 642.21,146 650.24,146 L676.063,146 C684.092,146 686,145.843 688.681,144.469 C691.308,143.121 693.443,140.971 694.781,138.327 C696.147,135.628 696.303,133.707 696.303,125.624 L696.303,114.382 C696.303,112.441 694.74,110.869 692.813,110.869 C690.886,110.869 689.323,112.441 689.323,114.382 L689.323,125.624 C689.323,132.295 689.194,133.889 688.562,135.138 C687.893,136.459 686.826,137.534 685.513,138.208 C684.273,138.843 682.69,138.974 676.063,138.974 L650.24,138.974 C643.613,138.974 642.029,138.843 640.789,138.208 C639.477,137.534 638.409,136.459 637.74,135.137 C637.109,133.889 636.979,132.296 636.979,125.624 L636.979,99.626 C636.979,92.955 637.109,91.361 637.74,90.112 C638.409,88.791 639.477,87.716 640.79,87.042 C642.029,86.407 643.613,86.277 650.24,86.277 L661.406,86.277 C663.334,86.277 664.896,84.704 664.896,82.763 C664.896,80.823 663.334,79.25 661.406,79.25 Z M690.837,84.891 C692.682,86.648 693.434,89.275 692.799,91.751 C692.165,94.226 690.244,96.16 687.785,96.799 C685.326,97.437 682.716,96.681 680.971,94.823 C678.426,92.074 678.502,87.76 681.16,85.084 C683.818,82.409 688.103,82.332 690.853,84.912 C692.231,86.205 694.379,86.163 695.707,84.819 L695.71,84.815 L693.235,82.338 L690.837,84.891 Z M695.633,79.786 C694.258,78.476 692.095,78.51 690.76,79.862 L690.757,79.865 L693.232,82.342 L695.611,79.772 C690.111,74.612 681.54,74.764 676.225,80.116 C670.909,85.467 670.758,94.096 675.883,99.633 C679.391,103.367 684.611,104.88 689.529,103.602 C694.447,102.324 698.288,98.458 699.557,93.506 C700.826,88.555 699.323,83.3 695.633,79.786 Z" />
        </g>
    </g>
</svg>