<?xml version="1.0" encoding="UTF-8"?>
<svg height="600" width="800" xmlns="http://www.w3.org/2000/svg" xmlns:xlink="http://www.w3.org/1999/xlink">
    <g id="Notes" font-family="LucidaGrande, 'Lucida Grande', sans-serif" font-size="13">
        <rect fill="white" height="600.0" width="800.0" x="0.0" y="0.0" />
        <g font-size="13">
            <text x="18.0" y="176.0">Small</text>
            <text x="18.0" y="376.0">Medium</text>
            <text x="18.0" y="576.0">Large</text>
        </g>
        <g font-size="9">
            <text x="250.0" y="30.0">Ultralight</text>
            <text x="450.0" y="30.0">Regular</text>
            <text x="650.0" y="30.0">Black</text>
            <text id="template-version" fill="#505050" text-anchor="end" x="785.0" y="575.0">Template v.3.0</text>
            <a href="https://github.com/swhitty/SwiftDraw">
                <text fill="#505050" text-anchor="end" x="785.0" y="590.0">https://github.com/swhitty/SwiftDraw</text>
            </a>
        </g>
    </g>
    <g id="Guides" stroke="rgb(39, 170, 225)" stroke-width="0.5">
        <path id="Capline-S" d="M18,76 l800,0" />
        <path id="H-reference" d="M85,145.755 L87.685,145.755 L113.369,79.287 L114.052,79.287 L114.052,76 L112.148,76 L85,145.755 Z M95.693,121.536 L130.996,121.536 L130.263,119.313 L96.474,119.313 L95.693,121.536 Z M139.15,145.755 L141.787,145.755 L114.638,76 L113.466,76 L113.466,79.287 L139.15,145.755 Z" stroke="none" transform="translate(0,200)" />
        <path id="Baseline-S" d="M18,146 l800,0" />
        <path id="left-margin-Ultralight-M" d="M221,256 l0,110" />
        <path id="right-margin-Ultralight-M" d="M309,256 l0,110" />
        <path id="left-margin-Regular-M" d="M421,256 l0,110" />
        <path id="right-margin-Regular-M" d="M509,256 l0,110" />
        <path id="left-margin-Black-M" d="M621,256 l0,110" />
        <path id="right-margin-Black-M" d="M709,256 l0,110" />
        <path id="Capline-M" d="M18,276 l800,0" />
        <path id="Baseline-M" d="M18,346 l800,0" />
        <path id="Capline-L" d="M18,476 l800,0" />
        <path id="Baseline-L" d="M18,546 l800,0" />
    </g>
    <g id="Symbols">
        <g id="Ultralight-M" transform="translate(0,200)">
            <path d="M281.128,98.988 L262.885,109.123 C261.848,109.699 261.475,111.005 262.051,112.042 C262.626,113.078 263.933,113.451 264.969,112.876 L283.213,102.741 C284.249,102.165 284.623,100.858 284.047,99.822 C283.471,98.786 282.165,98.412 281.128,98.988 Z M264.969,109.123 L246.725,98.988 C245.689,98.412 244.382,98.786 243.807,99.822 C243.231,100.858 243.604,102.165 244.641,102.741 L262.885,112.876 C263.921,113.451 265.227,113.078 265.803,112.042 C266.379,111.005 266.005,109.699 264.969,109.123 Z M261.78,110.999 L261.78,131.39 C261.78,132.575 262.741,133.536 263.927,133.536 C265.112,133.536 266.073,132.575 266.073,131.39 L266.073,110.999 C266.073,109.814 265.112,108.853 263.927,108.853 C262.741,108.853 261.78,109.814 261.78,110.999 Z M285.39,110.999 L285.39,102.29 C285.39,101.099 285.372,100.788 285.177,100.191 C284.981,99.601 284.666,99.068 284.251,98.619 C283.828,98.158 283.552,97.982 282.517,97.409 L266.637,88.587 C265.695,88.063 265.455,87.944 264.919,87.816 C264.85,87.8 264.85,87.8 264.781,87.785 C264.222,87.67 263.634,87.67 263.063,87.788 C263.012,87.798 263.012,87.798 262.95,87.813 C262.41,87.94 262.191,88.048 261.221,88.585 L245.334,97.408 C244.618,97.807 244.421,97.923 244.122,98.149 C243.927,98.297 243.751,98.456 243.589,98.634 C243.188,99.068 242.873,99.601 242.68,100.182 C242.482,100.788 242.463,101.099 242.463,102.29 L242.463,119.711 C242.463,120.904 242.482,121.215 242.678,121.812 C242.873,122.398 243.188,122.931 243.603,123.38 C244.025,123.841 244.301,124.017 245.337,124.59 L261.217,133.412 C262.148,133.93 262.387,134.048 262.914,134.179 C262.988,134.197 262.988,134.197 263.064,134.213 C263.636,134.33 264.222,134.33 264.788,134.214 C264.854,134.2 264.854,134.2 264.915,134.185 C265.45,134.056 265.704,133.931 266.638,133.411 L267.11,133.151 C268.148,132.579 268.525,131.273 267.953,130.235 C267.38,129.197 266.075,128.82 265.037,129.392 L264.558,129.656 C264.027,129.952 263.899,130.015 263.905,130.013 C263.914,130.011 263.914,130.011 263.924,130.009 C263.928,130.008 263.926,130.008 263.922,130.007 C263.939,130.011 263.939,130.011 263.95,130.014 C263.953,130.014 263.828,129.953 263.303,129.66 L247.419,120.836 C246.857,120.525 246.743,120.452 246.761,120.472 C246.754,120.465 246.754,120.465 246.754,120.465 C246.764,120.496 246.756,120.356 246.756,119.711 L246.756,102.29 C246.756,101.641 246.764,101.503 246.757,101.525 C246.754,101.534 246.754,101.534 246.754,101.534 C246.743,101.546 246.722,101.565 246.713,101.572 C246.781,101.52 246.924,101.436 247.42,101.16 L263.301,92.34 C263.833,92.046 263.953,91.986 263.938,91.99 C263.928,91.992 263.928,91.992 263.916,91.995 C263.928,91.992 263.928,91.992 263.928,91.992 C263.927,91.992 263.927,91.992 263.916,91.99 C263.904,91.987 264.028,92.048 264.551,92.339 L280.435,101.163 C280.996,101.474 281.111,101.547 281.092,101.526 C281.1,101.534 281.1,101.534 281.1,101.534 C281.089,101.503 281.098,101.641 281.098,102.29 L281.098,110.999 C281.098,112.185 282.059,113.146 283.244,113.146 C284.429,113.146 285.39,112.185 285.39,110.999 Z M253.226,96.778 L272.543,107.51 C273.579,108.085 274.886,107.712 275.462,106.676 C276.037,105.64 275.664,104.333 274.628,103.757 L255.311,93.026 C254.274,92.45 252.968,92.823 252.392,93.859 C251.816,94.896 252.19,96.202 253.226,96.778 Z M286.908,129.872 L284.762,127.726 C283.923,126.887 282.564,126.887 281.726,127.726 C280.888,128.564 280.888,129.923 281.726,130.761 L283.873,132.907 C284.711,133.746 286.07,133.746 286.908,132.907 C287.746,132.069 287.746,130.71 286.908,129.872 Z M283.244,123.877 C283.244,126.248 281.322,128.17 278.951,128.17 C276.58,128.17 274.659,126.248 274.659,123.877 C274.659,121.507 276.58,119.585 278.951,119.585 C281.322,119.585 283.244,121.507 283.244,123.877 Z M287.537,123.877 C287.537,119.136 283.693,115.292 278.951,115.292 C274.21,115.292 270.366,119.136 270.366,123.877 C270.366,128.619 274.21,132.463 278.951,132.463 C283.693,132.463 287.537,128.619 287.537,123.877 Z" />
        </g>
        <g id="Regular-M" transform="translate(0,200)">
            <path d="M481.128,98.988 L462.884,109.123 C461.848,109.699 461.475,111.005 462.051,112.042 C462.626,113.078 463.933,113.451 464.969,112.876 L483.213,102.741 C484.249,102.165 484.623,100.858 484.047,99.822 C483.471,98.786 482.165,98.412 481.128,98.988 Z M464.969,109.123 L446.725,98.988 C445.689,98.412 444.382,98.786 443.807,99.822 C443.231,100.858 443.604,102.165 444.641,102.741 L462.884,112.876 C463.921,113.451 465.227,113.078 465.803,112.042 C466.379,111.005 466.005,109.699 464.969,109.123 Z M461.78,110.999 L461.78,131.39 C461.78,132.575 462.741,133.536 463.927,133.536 C465.112,133.536 466.073,132.575 466.073,131.39 L466.073,110.999 C466.073,109.814 465.112,108.853 463.927,108.853 C462.741,108.853 461.78,109.814 461.78,110.999 Z M485.39,110.999 L485.39,102.29 C485.39,101.099 485.372,100.788 485.177,100.191 C484.981,99.601 484.666,99.068 484.251,98.619 C483.828,98.158 483.552,97.982 482.517,97.409 L466.637,88.587 C465.695,88.063 465.455,87.944 464.919,87.816 C464.85,87.8 464.85,87.8 464.781,87.785 C464.222,87.67 463.634,87.67 463.063,87.788 C463.012,87.798 463.012,87.798 462.95,87.813 C462.41,87.94 462.191,88.048 461.221,88.585 L445.334,97.408 C444.618,97.807 444.421,97.923 444.122,98.149 C443.927,98.297 443.751,98.456 443.589,98.634 C443.188,99.068 442.873,99.601 442.68,100.182 C442.482,100.788 442.463,101.099 442.463,102.29 L442.463,119.711 C442.463,120.904 442.482,121.215 442.678,121.812 C442.873,122.398 443.187,122.931 443.603,123.38 C444.025,123.841 444.301,124.017 445.337,124.59 L461.217,133.412 C462.148,133.93 462.387,134.048 462.914,134.179 C462.988,134.197 462.988,134.197 463.064,134.213 C463.636,134.33 464.222,134.33 464.788,134.214 C464.854,134.2 464.854,134.2 464.915,134.185 C465.45,134.056 465.704,133.931 466.638,133.411 L467.11,133.151 C468.148,132.579 468.525,131.273 467.953,130.235 C467.38,129.197 466.074,128.82 465.037,129.392 L464.558,129.656 C464.027,129.952 463.899,130.015 463.905,130.013 C463.914,130.011 463.914,130.011 463.924,130.009 C463.928,130.008 463.926,130.008 463.922,130.007 C463.939,130.011 463.939,130.011 463.95,130.014 C463.953,130.014 463.828,129.953 463.303,129.66 L447.419,120.836 C446.857,120.525 446.743,120.452 446.761,120.472 C446.754,120.465 446.754,120.465 446.754,120.465 C446.764,120.496 446.756,120.356 446.756,119.711 L446.756,102.29 C446.756,101.641 446.764,101.503 446.757,101.525 C446.754,101.534 446.754,101.534 446.754,101.534 C446.743,101.546 446.722,101.565 446.713,101.572 C446.781,101.52 446.924,101.436 447.42,101.16 L463.301,92.34 C463.833,92.046 463.953,91.986 463.938,91.99 C463.928,91.992 463.928,91.992 463.916,91.995 C463.928,91.992 463.928,91.992 463.928,91.992 C463.927,91.992 463.927,91.992 463.916,91.99 C463.904,91.987 464.028,92.048 464.551,92.339 L480.435,101.163 C480.996,101.474 481.111,101.547 481.092,101.526 C481.1,101.534 481.1,101.534 481.1,101.534 C481.089,101.503 481.098,101.641 481.098,102.29 L481.098,110.999 C481.098,112.185 482.059,113.146 483.244,113.146 C484.429,113.146 485.39,112.185 485.39,110.999 Z M453.226,96.778 L472.543,107.51 C473.579,108.085 474.886,107.712 475.462,106.676 C476.037,105.64 475.664,104.333 474.628,103.757 L455.311,93.026 C454.274,92.45 452.968,92.823 452.392,93.859 C451.816,94.896 452.19,96.202 453.226,96.778 Z M486.908,129.872 L484.762,127.726 C483.923,126.887 482.564,126.887 481.726,127.726 C480.888,128.564 480.888,129.923 481.726,130.761 L483.873,132.907 C484.711,133.746 486.07,133.746 486.908,132.907 C487.746,132.069 487.746,130.71 486.908,129.872 Z M483.244,123.877 C483.244,126.248 481.322,128.17 478.951,128.17 C476.58,128.17 474.659,126.248 474.659,123.877 C474.659,121.507 476.58,119.585 478.951,119.585 C481.322,119.585 483.244,121.507 483.244,123.877 Z M487.537,123.877 C487.537,119.136 483.693,115.292 478.951,115.292 C474.21,115.292 470.366,119.136 470.366,123.877 C470.366,128.619 474.21,132.463 478.951,132.463 C483.693,132.463 487.537,128.619 487.537,123.877 Z" />
        </g>
        <g id="Black-M" transform="translate(0,200)">
            <path d="M681.128,98.988 L662.885,109.123 C661.848,109.699 661.475,111.005 662.051,112.042 C662.626,113.078 663.933,113.451 664.969,112.876 L683.213,102.741 C684.249,102.165 684.623,100.858 684.047,99.822 C683.471,98.786 682.165,98.412 681.128,98.988 Z M664.969,109.123 L646.725,98.988 C645.689,98.412 644.382,98.786 643.807,99.822 C643.231,100.858 643.604,102.165 644.641,102.741 L662.885,112.876 C663.921,113.451 665.227,113.078 665.803,112.042 C666.379,111.005 666.005,109.699 664.969,109.123 Z M661.78,110.999 L661.78,131.39 C661.78,132.575 662.741,133.536 663.927,133.536 C665.112,133.536 666.073,132.575 666.073,131.39 L666.073,110.999 C666.073,109.814 665.112,108.853 663.927,108.853 C662.741,108.853 661.78,109.814 661.78,110.999 Z M685.39,110.999 L685.39,102.29 C685.39,101.099 685.372,100.788 685.177,100.191 C684.981,99.601 684.666,99.068 684.251,98.619 C683.828,98.158 683.552,97.982 682.517,97.409 L666.637,88.587 C665.695,88.063 665.455,87.944 664.919,87.816 C664.85,87.8 664.85,87.8 664.781,87.785 C664.222,87.67 663.634,87.67 663.063,87.788 C663.012,87.798 663.012,87.798 662.95,87.813 C662.41,87.94 662.191,88.048 661.221,88.585 L645.334,97.408 C644.618,97.807 644.421,97.923 644.122,98.149 C643.927,98.297 643.751,98.456 643.589,98.634 C643.188,99.068 642.873,99.601 642.68,100.182 C642.482,100.788 642.463,101.099 642.463,102.29 L642.463,119.711 C642.463,120.904 642.482,121.215 642.678,121.812 C642.873,122.398 643.188,122.931 643.603,123.38 C644.025,123.841 644.301,124.017 645.337,124.59 L661.217,133.412 C662.148,133.93 662.387,134.048 662.914,134.179 C662.988,134.197 662.988,134.197 663.064,134.213 C663.636,134.33 664.222,134.33 664.788,134.214 C664.854,134.2 664.854,134.2 664.915,134.185 C665.45,134.056 665.704,133.931 666.638,133.411 L667.11,133.151 C668.148,132.579 668.525,131.273 667.953,130.235 C667.38,129.197 666.075,128.82 665.037,129.392 L664.558,129.656 C664.027,129.952 663.899,130.015 663.905,130.013 C663.914,130.011 663.914,130.011 663.924,130.009 C663.928,130.008 663.926,130.008 663.922,130.007 C663.939,130.011 663.939,130.011 663.95,130.014 C663.953,130.014 663.828,129.953 663.303,129.66 L647.419,120.836 C646.857,120.525 646.743,120.452 646.761,120.472 C646.754,120.465 646.754,120.465 646.754,120.465 C646.764,120.496 646.756,120.356 646.756,119.711 L646.756,102.29 C646.756,101.641 646.764,101.503 646.757,101.525 C646.754,101.534 646.754,101.534 646.754,101.534 C646.743,101.546 646.722,101.565 646.713,101.572 C646.781,101.52 646.924,101.436 647.42,101.16 L663.301,92.34 C663.833,92.046 663.953,91.986 663.938,91.99 C663.928,91.992 663.928,91.992 663.916,91.995 C663.928,91.992 663.928,91.992 663.928,91.992 C663.927,91.992 663.927,91.992 663.916,91.99 C663.904,91.987 664.028,92.048 664.551,92.339 L680.435,101.163 C680.996,101.474 681.111,101.547 681.092,101.526 C681.1,101.534 681.1,101.534 681.1,101.534 C681.089,101.503 681.098,101.641 681.098,102.29 L681.098,110.999 C681.098,112.185 682.058,113.146 683.244,113.146 C684.429,113.146 685.39,112.185 685.39,110.999 Z M653.226,96.778 L672.543,107.51 C673.579,108.085 674.886,107.712 675.462,106.676 C676.037,105.64 675.664,104.333 674.628,103.757 L655.311,93.026 C654.274,92.45 652.968,92.823 652.392,93.859 C651.816,94.896 652.19,96.202 653.226,96.778 Z M686.908,129.872 L684.762,127.726 C683.923,126.887 682.564,126.887 681.726,127.726 C680.888,128.564 680.888,129.923 681.726,130.761 L683.873,132.907 C684.711,133.746 686.07,133.746 686.908,132.907 C687.746,132.069 687.746,130.71 686.908,129.872 Z M683.244,123.877 C683.244,126.248 681.322,128.17 678.951,128.17 C676.58,128.17 674.659,126.248 674.659,123.877 C674.659,121.507 676.58,119.585 678.951,119.585 C681.322,119.585 683.244,121.507 683.244,123.877 Z M687.537,123.877 C687.537,119.136 683.693,115.292 678.951,115.292 C674.21,115.292 670.366,119.136 670.366,123.877 C670.366,128.619 674.21,132.463 678.951,132.463 C683.693,132.463 687.537,128.619 687.537,123.877 Z" />
        </g>
    </g>
</svg>