<?xml version="1.0" encoding="UTF-8"?>
<svg height="600" width="800" xmlns="http://www.w3.org/2000/svg" xmlns:xlink="http://www.w3.org/1999/xlink">
    <g id="Notes" font-family="LucidaGrande, 'Lucida Grande', sans-serif" font-size="13">
        <rect fill="white" height="600.0" width="800.0" x="0.0" y="0.0" />
        <g font-size="13">
            <text x="18.0" y="176.0">Small</text>
            <text x="18.0" y="376.0">Medium</text>
            <text x="18.0" y="576.0">Large</text>
        </g>
        <g font-size="9">
            <text x="250.0" y="30.0">Ultralight</text>
            <text x="450.0" y="30.0">Regular</text>
            <text x="650.0" y="30.0">Black</text>
            <text id="template-version" fill="#505050" text-anchor="end" x="785.0" y="575.0">Template v.3.0</text>
            <a href="https://github.com/swhitty/SwiftDraw">
                <text fill="#505050" text-anchor="end" x="785.0" y="590.0">https://github.com/swhitty/SwiftDraw</text>
            </a>
        </g>
    </g>
    <g id="Guides" stroke="rgb(39, 170, 225)" stroke-width="0.5">
        <path id="Capline-S" d="M18,76 l800,0" />
        <path id="H-reference" d="M85,145.755 L87.685,145.755 L113.369,79.287 L114.052,79.287 L114.052,76 L112.148,76 L85,145.755 Z M95.693,121.536 L130.996,121.536 L130.263,119.313 L96.474,119.313 L95.693,121.536 Z M139.15,145.755 L141.787,145.755 L114.638,76 L113.466,76 L113.466,79.287 L139.15,145.755 Z" stroke="none" transform="translate(0,200)" />
        <path id="Baseline-S" d="M18,146 l800,0" />
        <path id="left-margin-Ultralight-M" d="M230,256 l0,110" />
        <path id="right-margin-Ultralight-M" d="M300,256 l0,110" />
        <path id="left-margin-Regular-M" d="M430,256 l0,110" />
        <path id="right-margin-Regular-M" d="M500,256 l0,110" />
        <path id="left-margin-Black-M" d="M630,256 l0,110" />
        <path id="right-margin-Black-M" d="M700,256 l0,110" />
        <path id="Capline-M" d="M18,276 l800,0" />
        <path id="Baseline-M" d="M18,346 l800,0" />
        <path id="Capline-L" d="M18,476 l800,0" />
        <path id="Baseline-L" d="M18,546 l800,0" />
    </g>
    <g id="Symbols">
        <g id="Ultralight-M" transform="translate(0,200)">
            <path d="M234.328,117.826 L292.826,117.826 C294.726,117.826 296.267,116.386 296.267,114.609 C296.267,112.832 294.726,111.391 292.826,111.391 L234.328,111.391 C232.428,111.391 230.887,112.832 230.887,114.609 C230.887,116.386 232.428,117.826 234.328,117.826 Z M267.731,81.768 L262.569,76.942 C261.225,75.686 259.047,75.686 257.703,76.942 C256.359,78.199 256.359,80.236 257.703,81.492 L262.864,86.318 C264.208,87.575 266.387,87.575 267.731,86.318 C269.074,85.062 269.074,83.025 267.731,81.768 Z M261.144,84.71 L291.659,113.245 C292.822,114.332 293.134,114.659 293.167,114.724 C293.15,114.69 293.133,114.651 293.118,114.608 C293.118,114.609 293.118,114.609 293.118,114.609 C293.133,114.566 293.15,114.527 293.167,114.493 C293.134,114.558 292.822,114.885 291.659,115.972 L272.822,133.588 C268.628,137.51 267.431,138.507 266.199,139.063 C266.03,139.139 265.868,139.201 265.706,139.25 C264.321,139.67 262.833,139.67 261.45,139.25 C260.143,138.854 258.94,137.9 254.328,133.588 L243.279,123.254 C239.083,119.33 238.016,118.211 237.419,117.058 C237.337,116.9 237.271,116.747 237.218,116.595 C236.77,115.305 236.77,113.913 237.219,112.62 C237.644,111.399 238.669,110.271 243.278,105.965 L266.007,84.71 L263.573,82.435 L263.573,85.652 L263.577,85.652 L263.577,82.435 L261.144,84.71 Z M266.01,80.16 C265.365,79.556 264.49,79.217 263.577,79.217 L263.573,79.217 C262.661,79.217 261.785,79.556 261.14,80.16 L238.412,101.414 C232.831,106.628 231.593,107.992 230.674,110.63 C229.775,113.217 229.775,116.001 230.674,118.585 C230.825,119.019 231.008,119.442 231.224,119.86 C232.312,121.963 233.511,123.22 238.412,127.803 L249.461,138.137 C255.05,143.363 256.503,144.515 259.326,145.371 C262.088,146.21 265.066,146.21 267.83,145.37 C268.291,145.231 268.743,145.06 269.191,144.858 C271.442,143.842 272.786,142.722 277.689,138.138 L296.525,120.522 C298.398,118.771 298.842,118.306 299.367,117.285 C299.483,117.061 299.582,116.832 299.664,116.596 C300.112,115.305 300.112,113.913 299.663,112.62 C299.582,112.385 299.483,112.156 299.367,111.932 C298.842,110.911 298.398,110.446 296.525,108.695 L266.01,80.16 Z" />
        </g>
        <g id="Regular-M" transform="translate(0,200)">
            <path d="M434.328,117.826 L492.826,117.826 C494.726,117.826 496.267,116.386 496.267,114.609 C496.267,112.832 494.726,111.391 492.826,111.391 L434.328,111.391 C432.428,111.391 430.887,112.832 430.887,114.609 C430.887,116.386 432.428,117.826 434.328,117.826 Z M467.731,81.768 L462.569,76.942 C461.225,75.686 459.047,75.686 457.703,76.942 C456.359,78.199 456.359,80.236 457.703,81.492 L462.864,86.318 C464.208,87.575 466.387,87.575 467.731,86.318 C469.074,85.062 469.074,83.025 467.731,81.768 Z M461.144,84.71 L491.659,113.245 C492.822,114.332 493.134,114.659 493.167,114.724 C493.15,114.69 493.133,114.651 493.118,114.608 C493.118,114.609 493.118,114.609 493.118,114.609 C493.133,114.566 493.15,114.527 493.167,114.493 C493.134,114.558 492.822,114.885 491.659,115.972 L472.822,133.588 C468.628,137.51 467.431,138.507 466.199,139.063 C466.03,139.139 465.868,139.201 465.706,139.25 C464.321,139.67 462.833,139.67 461.45,139.25 C460.143,138.854 458.94,137.9 454.328,133.588 L443.279,123.254 C439.083,119.33 438.016,118.211 437.419,117.058 C437.337,116.9 437.271,116.747 437.218,116.595 C436.77,115.305 436.77,113.913 437.219,112.62 C437.644,111.399 438.669,110.271 443.278,105.965 L466.007,84.71 L463.573,82.435 L463.573,85.652 L463.577,85.652 L463.577,82.435 L461.144,84.71 Z M466.01,80.16 C465.365,79.556 464.49,79.217 463.577,79.217 L463.573,79.217 C462.661,79.217 461.785,79.556 461.14,80.16 L438.412,101.414 C432.831,106.628 431.593,107.992 430.674,110.63 C429.775,113.217 429.775,116.001 430.674,118.585 C430.825,119.019 431.008,119.442 431.224,119.86 C432.312,121.963 433.511,123.22 438.412,127.803 L449.461,138.137 C455.05,143.363 456.503,144.515 459.326,145.371 C462.088,146.21 465.066,146.21 467.83,145.37 C468.291,145.231 468.743,145.06 469.191,144.858 C471.442,143.842 472.786,142.722 477.689,138.138 L496.525,120.522 C498.398,118.771 498.842,118.306 499.367,117.285 C499.483,117.061 499.582,116.832 499.664,116.596 C500.112,115.305 500.112,113.913 499.663,112.62 C499.582,112.385 499.483,112.156 499.367,111.932 C498.842,110.911 498.398,110.446 496.525,108.695 L466.01,80.16 Z" />
        </g>
        <g id="Black-M" transform="translate(0,200)">
            <path d="M634.328,117.826 L692.826,117.826 C694.726,117.826 696.267,116.386 696.267,114.609 C696.267,112.832 694.726,111.391 692.826,111.391 L634.328,111.391 C632.428,111.391 630.887,112.832 630.887,114.609 C630.887,116.386 632.428,117.826 634.328,117.826 Z M667.731,81.768 L662.569,76.942 C661.225,75.686 659.047,75.686 657.703,76.942 C656.359,78.199 656.359,80.236 657.703,81.492 L662.864,86.318 C664.208,87.575 666.387,87.575 667.731,86.318 C669.074,85.062 669.074,83.025 667.731,81.768 Z M661.144,84.71 L691.659,113.245 C692.822,114.332 693.134,114.659 693.167,114.724 C693.15,114.69 693.133,114.651 693.118,114.608 C693.118,114.609 693.118,114.609 693.118,114.609 C693.133,114.566 693.15,114.527 693.167,114.493 C693.134,114.558 692.822,114.885 691.659,115.972 L672.822,133.588 C668.628,137.51 667.431,138.507 666.199,139.063 C666.03,139.139 665.868,139.201 665.706,139.25 C664.321,139.67 662.833,139.67 661.45,139.25 C660.143,138.854 658.94,137.9 654.328,133.588 L643.279,123.254 C639.083,119.33 638.016,118.211 637.419,117.058 C637.337,116.9 637.271,116.747 637.218,116.595 C636.77,115.305 636.77,113.913 637.219,112.62 C637.644,111.399 638.669,110.271 643.278,105.965 L666.007,84.71 L663.573,82.435 L663.573,85.652 L663.577,85.652 L663.577,82.435 L661.144,84.71 Z M666.01,80.16 C665.365,79.556 664.49,79.217 663.577,79.217 L663.573,79.217 C662.661,79.217 661.785,79.556 661.14,80.16 L638.412,101.414 C632.831,106.628 631.593,107.992 630.674,110.63 C629.775,113.217 629.775,116.001 630.674,118.585 C630.825,119.019 631.008,119.442 631.224,119.86 C632.312,121.963 633.511,123.22 638.412,127.803 L649.461,138.137 C655.05,143.363 656.503,144.515 659.326,145.371 C662.088,146.21 665.066,146.21 667.83,145.37 C668.291,145.231 668.743,145.06 669.191,144.858 C671.442,143.842 672.786,142.722 677.689,138.138 L696.525,120.522 C698.398,118.771 698.842,118.306 699.367,117.285 C699.483,117.061 699.582,116.832 699.664,116.596 C700.112,115.305 700.112,113.913 699.663,112.62 C699.582,112.385 699.483,112.156 699.367,111.932 C698.842,110.911 698.398,110.446 696.525,108.695 L666.01,80.16 Z" />
        </g>
    </g>
</svg>