<?xml version="1.0" encoding="UTF-8"?>
<svg height="600" width="800" xmlns="http://www.w3.org/2000/svg" xmlns:xlink="http://www.w3.org/1999/xlink">
    <g id="Notes" font-family="LucidaGrande, 'Lucida Grande', sans-serif" font-size="13">
        <rect fill="white" height="600.0" width="800.0" x="0.0" y="0.0" />
        <g font-size="13">
            <text x="18.0" y="176.0">Small</text>
            <text x="18.0" y="376.0">Medium</text>
            <text x="18.0" y="576.0">Large</text>
        </g>
        <g font-size="9">
            <text x="250.0" y="30.0">Ultralight</text>
            <text x="450.0" y="30.0">Regular</text>
            <text x="650.0" y="30.0">Black</text>
            <text id="template-version" fill="#505050" text-anchor="end" x="785.0" y="575.0">Template v.3.0</text>
            <a href="https://github.com/swhitty/SwiftDraw">
                <text fill="#505050" text-anchor="end" x="785.0" y="590.0">https://github.com/swhitty/SwiftDraw</text>
            </a>
        </g>
    </g>
    <g id="Guides" stroke="rgb(39, 170, 225)" stroke-width="0.5">
        <path id="Capline-S" d="M18,76 l800,0" />
        <path id="H-reference" d="M85,145.755 L87.685,145.755 L113.369,79.287 L114.052,79.287 L114.052,76 L112.148,76 L85,145.755 Z M95.693,121.536 L130.996,121.536 L130.263,119.313 L96.474,119.313 L95.693,121.536 Z M139.15,145.755 L141.787,145.755 L114.638,76 L113.466,76 L113.466,79.287 L139.15,145.755 Z" stroke="none" transform="translate(0,200)" />
        <path id="Baseline-S" d="M18,146 l800,0" />
        <path id="left-margin-Ultralight-M" d="M230,256 l0,110" />
        <path id="right-margin-Ultralight-M" d="M300,256 l0,110" />
        <path id="left-margin-Regular-M" d="M430,256 l0,110" />
        <path id="right-margin-Regular-M" d="M500,256 l0,110" />
        <path id="left-margin-Black-M" d="M630,256 l0,110" />
        <path id="right-margin-Black-M" d="M700,256 l0,110" />
        <path id="Capline-M" d="M18,276 l800,0" />
        <path id="Baseline-M" d="M18,346 l800,0" />
        <path id="Capline-L" d="M18,476 l800,0" />
        <path id="Baseline-L" d="M18,546 l800,0" />
    </g>
    <g id="Symbols">
        <g id="Ultralight-M" transform="translate(0,200)">
            <path d="M300,104.636 L300,95.727 C300,90.633 299.901,89.424 298.96,87.576 C298.044,85.779 296.584,84.319 294.788,83.404 C292.939,82.462 291.73,82.364 286.636,82.364 L243.364,82.364 C238.27,82.364 237.061,82.462 235.212,83.404 C233.416,84.319 231.956,85.779 231.04,87.575 C230.099,89.424 230,90.633 230,95.727 L230,107.182 C230,112.276 230.099,113.485 231.04,115.333 C231.956,117.13 233.416,118.59 235.212,119.505 C237.061,120.447 238.27,120.545 243.364,120.545 L261.818,120.545 C263.575,120.545 265,119.121 265,117.364 C265,115.606 263.575,114.182 261.818,114.182 L243.364,114.182 C239.548,114.182 238.635,114.107 238.1,113.835 C237.502,113.53 237.016,113.043 236.71,112.445 C236.438,111.91 236.364,110.997 236.364,107.182 L236.364,95.727 C236.364,91.912 236.438,90.999 236.711,90.464 C237.016,89.866 237.502,89.379 238.101,89.074 C238.635,88.802 239.548,88.727 243.364,88.727 L286.636,88.727 C290.452,88.727 291.365,88.802 291.9,89.074 C292.498,89.379 292.984,89.866 293.29,90.465 C293.562,90.999 293.636,91.912 293.636,95.727 L293.636,104.636 C293.636,106.394 295.061,107.818 296.818,107.818 C298.575,107.818 300,106.394 300,104.636 Z M265,104.636 L265.016,104.636 C266.773,104.636 268.198,103.212 268.198,101.455 C268.198,99.697 266.773,98.273 265.016,98.273 L265,98.273 C263.243,98.273 261.818,99.697 261.818,101.455 C261.818,103.212 263.243,104.636 265,104.636 Z M280.909,104.636 L280.925,104.636 C282.682,104.636 284.107,103.212 284.107,101.455 C284.107,99.697 282.682,98.273 280.925,98.273 L280.909,98.273 C279.152,98.273 277.727,99.697 277.727,101.455 C277.727,103.212 279.152,104.636 280.909,104.636 Z M249.091,104.636 L249.107,104.636 C250.864,104.636 252.289,103.212 252.289,101.455 C252.289,99.697 250.864,98.273 249.107,98.273 L249.091,98.273 C247.334,98.273 245.909,99.697 245.909,101.455 C245.909,103.212 247.334,104.636 249.091,104.636 Z M291.25,123.727 L291.25,118.159 C291.25,113.327 287.332,109.409 282.5,109.409 C277.668,109.409 273.75,113.327 273.75,118.159 L273.75,123.727 C273.75,125.485 275.175,126.909 276.932,126.909 C278.689,126.909 280.114,125.485 280.114,123.727 L280.114,118.159 C280.114,116.841 281.182,115.773 282.5,115.773 C283.818,115.773 284.886,116.841 284.886,118.159 L284.886,123.727 C284.886,125.485 286.311,126.909 288.068,126.909 C289.825,126.909 291.25,125.485 291.25,123.727 Z M262.614,101.455 C262.614,100.137 263.682,99.068 265,99.068 C266.318,99.068 267.386,100.137 267.386,101.455 C267.386,102.772 266.318,103.841 265,103.841 C263.682,103.841 262.614,102.772 262.614,101.455 Z M268.977,101.455 C268.977,99.258 267.197,97.477 265,97.477 C262.803,97.477 261.023,99.258 261.023,101.455 C261.023,103.651 262.803,105.432 265,105.432 C267.197,105.432 268.977,103.651 268.977,101.455 Z M278.523,101.455 C278.523,100.137 279.591,99.068 280.909,99.068 C282.227,99.068 283.295,100.137 283.295,101.455 C283.295,102.772 282.227,103.841 280.909,103.841 C279.591,103.841 278.523,102.772 278.523,101.455 Z M284.886,101.455 C284.886,99.258 283.106,97.477 280.909,97.477 C278.712,97.477 276.932,99.258 276.932,101.455 C276.932,103.651 278.712,105.432 280.909,105.432 C283.106,105.432 284.886,103.651 284.886,101.455 Z M246.705,101.455 C246.705,100.137 247.773,99.068 249.091,99.068 C250.409,99.068 251.477,100.137 251.477,101.455 C251.477,102.772 250.409,103.841 249.091,103.841 C247.773,103.841 246.705,102.772 246.705,101.455 Z M253.068,101.455 C253.068,99.258 251.288,97.477 249.091,97.477 C246.894,97.477 245.114,99.258 245.114,101.455 C245.114,103.651 246.894,105.432 249.091,105.432 C251.288,105.432 253.068,103.651 253.068,101.455 Z M276.455,139.636 L288.545,139.636 C291.412,139.636 292.091,139.581 293.343,138.943 C294.541,138.333 295.514,137.359 296.125,136.162 C296.763,134.909 296.818,134.23 296.818,131.364 L296.818,128.818 C296.818,125.952 296.763,125.273 296.125,124.02 C295.514,122.823 294.541,121.849 293.344,121.239 C292.091,120.601 291.412,120.545 288.545,120.545 L276.455,120.545 C273.588,120.545 272.909,120.601 271.657,121.239 C270.459,121.849 269.486,122.823 268.875,124.02 C268.237,125.273 268.182,125.952 268.182,128.818 L268.182,131.364 C268.182,134.23 268.237,134.909 268.875,136.161 C269.486,137.359 270.459,138.333 271.656,138.943 C272.909,139.581 273.588,139.636 276.455,139.636 Z M276.455,133.273 C274.867,133.273 274.484,133.241 274.545,133.273 C274.545,133.273 274.545,133.273 274.545,133.273 C274.577,133.334 274.545,132.952 274.545,131.364 L274.545,128.818 C274.545,127.23 274.577,126.848 274.546,126.909 C274.545,126.909 274.545,126.909 274.545,126.909 C274.484,126.94 274.867,126.909 276.455,126.909 L288.545,126.909 C290.133,126.909 290.516,126.94 290.455,126.909 C290.455,126.909 290.455,126.909 290.455,126.909 C290.423,126.848 290.455,127.23 290.455,128.818 L290.455,131.364 C290.455,132.952 290.423,133.334 290.454,133.273 C290.455,133.273 290.455,133.273 290.455,133.273 C290.516,133.241 290.133,133.273 288.545,133.273 L276.455,133.273 Z" />
        </g>
        <g id="Regular-M" transform="translate(0,200)">
            <path d="M500,104.636 L500,95.727 C500,90.633 499.901,89.424 498.96,87.576 C498.044,85.779 496.584,84.319 494.788,83.404 C492.939,82.462 491.73,82.364 486.636,82.364 L443.364,82.364 C438.27,82.364 437.061,82.462 435.212,83.404 C433.416,84.319 431.956,85.779 431.04,87.575 C430.099,89.424 430,90.633 430,95.727 L430,107.182 C430,112.276 430.099,113.485 431.04,115.333 C431.956,117.13 433.416,118.59 435.212,119.505 C437.061,120.447 438.27,120.545 443.364,120.545 L461.818,120.545 C463.575,120.545 465,119.121 465,117.364 C465,115.606 463.575,114.182 461.818,114.182 L443.364,114.182 C439.548,114.182 438.635,114.107 438.1,113.835 C437.502,113.53 437.016,113.043 436.71,112.445 C436.438,111.91 436.364,110.997 436.364,107.182 L436.364,95.727 C436.364,91.912 436.438,90.999 436.711,90.464 C437.016,89.866 437.502,89.379 438.101,89.074 C438.635,88.802 439.548,88.727 443.364,88.727 L486.636,88.727 C490.452,88.727 491.365,88.802 491.9,89.074 C492.498,89.379 492.984,89.866 493.29,90.465 C493.562,90.999 493.636,91.912 493.636,95.727 L493.636,104.636 C493.636,106.394 495.061,107.818 496.818,107.818 C498.575,107.818 500,106.394 500,104.636 Z M465,104.636 L465.016,104.636 C466.773,104.636 468.198,103.212 468.198,101.455 C468.198,99.697 466.773,98.273 465.016,98.273 L465,98.273 C463.243,98.273 461.818,99.697 461.818,101.455 C461.818,103.212 463.243,104.636 465,104.636 Z M480.909,104.636 L480.925,104.636 C482.682,104.636 484.107,103.212 484.107,101.455 C484.107,99.697 482.682,98.273 480.925,98.273 L480.909,98.273 C479.152,98.273 477.727,99.697 477.727,101.455 C477.727,103.212 479.152,104.636 480.909,104.636 Z M449.091,104.636 L449.107,104.636 C450.864,104.636 452.289,103.212 452.289,101.455 C452.289,99.697 450.864,98.273 449.107,98.273 L449.091,98.273 C447.334,98.273 445.909,99.697 445.909,101.455 C445.909,103.212 447.334,104.636 449.091,104.636 Z M491.25,123.727 L491.25,118.159 C491.25,113.327 487.332,109.409 482.5,109.409 C477.668,109.409 473.75,113.327 473.75,118.159 L473.75,123.727 C473.75,125.485 475.175,126.909 476.932,126.909 C478.689,126.909 480.114,125.485 480.114,123.727 L480.114,118.159 C480.114,116.841 481.182,115.773 482.5,115.773 C483.818,115.773 484.886,116.841 484.886,118.159 L484.886,123.727 C484.886,125.485 486.311,126.909 488.068,126.909 C489.825,126.909 491.25,125.485 491.25,123.727 Z M462.614,101.455 C462.614,100.137 463.682,99.068 465,99.068 C466.318,99.068 467.386,100.137 467.386,101.455 C467.386,102.772 466.318,103.841 465,103.841 C463.682,103.841 462.614,102.772 462.614,101.455 Z M468.977,101.455 C468.977,99.258 467.197,97.477 465,97.477 C462.803,97.477 461.023,99.258 461.023,101.455 C461.023,103.651 462.803,105.432 465,105.432 C467.197,105.432 468.977,103.651 468.977,101.455 Z M478.523,101.455 C478.523,100.137 479.591,99.068 480.909,99.068 C482.227,99.068 483.295,100.137 483.295,101.455 C483.295,102.772 482.227,103.841 480.909,103.841 C479.591,103.841 478.523,102.772 478.523,101.455 Z M484.886,101.455 C484.886,99.258 483.106,97.477 480.909,97.477 C478.712,97.477 476.932,99.258 476.932,101.455 C476.932,103.651 478.712,105.432 480.909,105.432 C483.106,105.432 484.886,103.651 484.886,101.455 Z M446.705,101.455 C446.705,100.137 447.773,99.068 449.091,99.068 C450.409,99.068 451.477,100.137 451.477,101.455 C451.477,102.772 450.409,103.841 449.091,103.841 C447.773,103.841 446.705,102.772 446.705,101.455 Z M453.068,101.455 C453.068,99.258 451.288,97.477 449.091,97.477 C446.894,97.477 445.114,99.258 445.114,101.455 C445.114,103.651 446.894,105.432 449.091,105.432 C451.288,105.432 453.068,103.651 453.068,101.455 Z M476.455,139.636 L488.545,139.636 C491.412,139.636 492.091,139.581 493.343,138.943 C494.541,138.333 495.514,137.359 496.125,136.162 C496.763,134.909 496.818,134.23 496.818,131.364 L496.818,128.818 C496.818,125.952 496.763,125.273 496.125,124.02 C495.514,122.823 494.541,121.849 493.344,121.239 C492.091,120.601 491.412,120.545 488.545,120.545 L476.455,120.545 C473.588,120.545 472.909,120.601 471.657,121.239 C470.459,121.849 469.486,122.823 468.875,124.02 C468.237,125.273 468.182,125.952 468.182,128.818 L468.182,131.364 C468.182,134.23 468.237,134.909 468.875,136.161 C469.486,137.359 470.459,138.333 471.656,138.943 C472.909,139.581 473.588,139.636 476.455,139.636 Z M476.455,133.273 C474.867,133.273 474.484,133.241 474.545,133.273 C474.545,133.273 474.545,133.273 474.545,133.273 C474.577,133.334 474.545,132.952 474.545,131.364 L474.545,128.818 C474.545,127.23 474.577,126.848 474.546,126.909 C474.545,126.909 474.545,126.909 474.545,126.909 C474.484,126.94 474.867,126.909 476.455,126.909 L488.545,126.909 C490.133,126.909 490.516,126.94 490.455,126.909 C490.455,126.909 490.455,126.909 490.455,126.909 C490.423,126.848 490.455,127.23 490.455,128.818 L490.455,131.364 C490.455,132.952 490.423,133.334 490.454,133.273 C490.455,133.273 490.455,133.273 490.455,133.273 C490.516,133.241 490.133,133.273 488.545,133.273 L476.455,133.273 Z" />
        </g>
        <g id="Black-M" transform="translate(0,200)">
            <path d="M700,104.636 L700,95.727 C700,90.633 699.901,89.424 698.96,87.576 C698.044,85.779 696.584,84.319 694.788,83.404 C692.939,82.462 691.73,82.364 686.636,82.364 L643.364,82.364 C638.27,82.364 637.061,82.462 635.212,83.404 C633.416,84.319 631.956,85.779 631.04,87.575 C630.099,89.424 630,90.633 630,95.727 L630,107.182 C630,112.276 630.099,113.485 631.04,115.333 C631.956,117.13 633.416,118.59 635.212,119.505 C637.061,120.447 638.27,120.545 643.364,120.545 L661.818,120.545 C663.575,120.545 665,119.121 665,117.364 C665,115.606 663.575,114.182 661.818,114.182 L643.364,114.182 C639.548,114.182 638.635,114.107 638.1,113.835 C637.502,113.53 637.016,113.043 636.71,112.445 C636.438,111.91 636.364,110.997 636.364,107.182 L636.364,95.727 C636.364,91.912 636.438,90.999 636.711,90.464 C637.016,89.866 637.502,89.379 638.101,89.074 C638.635,88.802 639.548,88.727 643.364,88.727 L686.636,88.727 C690.452,88.727 691.365,88.802 691.9,89.074 C692.498,89.379 692.984,89.866 693.29,90.465 C693.562,90.999 693.636,91.912 693.636,95.727 L693.636,104.636 C693.636,106.394 695.061,107.818 696.818,107.818 C698.575,107.818 700,106.394 700,104.636 Z M665,104.636 L665.016,104.636 C666.773,104.636 668.198,103.212 668.198,101.455 C668.198,99.697 666.773,98.273 665.016,98.273 L665,98.273 C663.243,98.273 661.818,99.697 661.818,101.455 C661.818,103.212 663.243,104.636 665,104.636 Z M680.909,104.636 L680.925,104.636 C682.682,104.636 684.107,103.212 684.107,101.455 C684.107,99.697 682.682,98.273 680.925,98.273 L680.909,98.273 C679.152,98.273 677.727,99.697 677.727,101.455 C677.727,103.212 679.152,104.636 680.909,104.636 Z M649.091,104.636 L649.107,104.636 C650.864,104.636 652.289,103.212 652.289,101.455 C652.289,99.697 650.864,98.273 649.107,98.273 L649.091,98.273 C647.334,98.273 645.909,99.697 645.909,101.455 C645.909,103.212 647.334,104.636 649.091,104.636 Z M691.25,123.727 L691.25,118.159 C691.25,113.327 687.333,109.409 682.5,109.409 C677.667,109.409 673.75,113.327 673.75,118.159 L673.75,123.727 C673.75,125.485 675.175,126.909 676.932,126.909 C678.689,126.909 680.114,125.485 680.114,123.727 L680.114,118.159 C680.114,116.841 681.182,115.773 682.5,115.773 C683.818,115.773 684.886,116.841 684.886,118.159 L684.886,123.727 C684.886,125.485 686.311,126.909 688.068,126.909 C689.825,126.909 691.25,125.485 691.25,123.727 Z M662.614,101.455 C662.614,100.137 663.682,99.068 665,99.068 C666.318,99.068 667.386,100.137 667.386,101.455 C667.386,102.772 666.318,103.841 665,103.841 C663.682,103.841 662.614,102.772 662.614,101.455 Z M668.977,101.455 C668.977,99.258 667.197,97.477 665,97.477 C662.803,97.477 661.023,99.258 661.023,101.455 C661.023,103.651 662.803,105.432 665,105.432 C667.197,105.432 668.977,103.651 668.977,101.455 Z M678.523,101.455 C678.523,100.137 679.591,99.068 680.909,99.068 C682.227,99.068 683.295,100.137 683.295,101.455 C683.295,102.772 682.227,103.841 680.909,103.841 C679.591,103.841 678.523,102.772 678.523,101.455 Z M684.886,101.455 C684.886,99.258 683.106,97.477 680.909,97.477 C678.713,97.477 676.932,99.258 676.932,101.455 C676.932,103.651 678.713,105.432 680.909,105.432 C683.106,105.432 684.886,103.651 684.886,101.455 Z M646.705,101.455 C646.705,100.137 647.773,99.068 649.091,99.068 C650.409,99.068 651.477,100.137 651.477,101.455 C651.477,102.772 650.409,103.841 649.091,103.841 C647.773,103.841 646.705,102.772 646.705,101.455 Z M653.068,101.455 C653.068,99.258 651.287,97.477 649.091,97.477 C646.894,97.477 645.114,99.258 645.114,101.455 C645.114,103.651 646.894,105.432 649.091,105.432 C651.287,105.432 653.068,103.651 653.068,101.455 Z M676.455,139.636 L688.545,139.636 C691.412,139.636 692.091,139.581 693.343,138.943 C694.541,138.333 695.514,137.359 696.125,136.162 C696.763,134.909 696.818,134.23 696.818,131.364 L696.818,128.818 C696.818,125.952 696.763,125.273 696.125,124.02 C695.514,122.823 694.541,121.849 693.344,121.239 C692.091,120.601 691.412,120.545 688.545,120.545 L676.455,120.545 C673.588,120.545 672.909,120.601 671.657,121.239 C670.459,121.849 669.486,122.823 668.875,124.02 C668.237,125.273 668.182,125.952 668.182,128.818 L668.182,131.364 C668.182,134.23 668.237,134.909 668.875,136.161 C669.486,137.359 670.459,138.333 671.656,138.943 C672.909,139.581 673.588,139.636 676.455,139.636 Z M676.455,133.273 C674.867,133.273 674.484,133.241 674.545,133.273 C674.545,133.273 674.545,133.273 674.545,133.273 C674.577,133.334 674.545,132.952 674.545,131.364 L674.545,128.818 C674.545,127.23 674.577,126.848 674.546,126.909 C674.545,126.909 674.545,126.909 674.545,126.909 C674.484,126.94 674.867,126.909 676.455,126.909 L688.545,126.909 C690.133,126.909 690.516,126.94 690.455,126.909 C690.455,126.909 690.455,126.909 690.455,126.909 C690.423,126.848 690.455,127.23 690.455,128.818 L690.455,131.364 C690.455,132.952 690.423,133.334 690.454,133.273 C690.455,133.273 690.455,133.273 690.455,133.273 C690.516,133.241 690.133,133.273 688.545,133.273 L676.455,133.273 Z" />
        </g>
    </g>
</svg>