<?xml version="1.0" encoding="UTF-8"?>
<svg height="600" width="800" xmlns="http://www.w3.org/2000/svg" xmlns:xlink="http://www.w3.org/1999/xlink">
    <g id="Notes" font-family="LucidaGrande, 'Lucida Grande', sans-serif" font-size="13">
        <rect fill="white" height="600.0" width="800.0" x="0.0" y="0.0" />
        <g font-size="13">
            <text x="18.0" y="176.0">Small</text>
            <text x="18.0" y="376.0">Medium</text>
            <text x="18.0" y="576.0">Large</text>
        </g>
        <g font-size="9">
            <text x="250.0" y="30.0">Ultralight</text>
            <text x="450.0" y="30.0">Regular</text>
            <text x="650.0" y="30.0">Black</text>
            <text id="template-version" fill="#505050" text-anchor="end" x="785.0" y="575.0">Template v.3.0</text>
            <a href="https://github.com/swhitty/SwiftDraw">
                <text fill="#505050" text-anchor="end" x="785.0" y="590.0">https://github.com/swhitty/SwiftDraw</text>
            </a>
        </g>
    </g>
    <g id="Guides" stroke="rgb(39, 170, 225)" stroke-width="0.5">
        <path id="Capline-S" d="M18,76 l800,0" />
        <path id="H-reference" d="M85,145.755 L87.685,145.755 L113.369,79.287 L114.052,79.287 L114.052,76 L112.148,76 L85,145.755 Z M95.693,121.536 L130.996,121.536 L130.263,119.313 L96.474,119.313 L95.693,121.536 Z M139.15,145.755 L141.787,145.755 L114.638,76 L113.466,76 L113.466,79.287 L139.15,145.755 Z" stroke="none" transform="translate(0,200)" />
        <path id="Baseline-S" d="M18,146 l800,0" />
        <path id="left-margin-Ultralight-M" d="M221,256 l0,110" />
        <path id="right-margin-Ultralight-M" d="M309,256 l0,110" />
        <path id="left-margin-Regular-M" d="M421,256 l0,110" />
        <path id="right-margin-Regular-M" d="M509,256 l0,110" />
        <path id="left-margin-Black-M" d="M621,256 l0,110" />
        <path id="right-margin-Black-M" d="M709,256 l0,110" />
        <path id="Capline-M" d="M18,276 l800,0" />
        <path id="Baseline-M" d="M18,346 l800,0" />
        <path id="Capline-L" d="M18,476 l800,0" />
        <path id="Baseline-L" d="M18,546 l800,0" />
    </g>
    <g id="Symbols">
        <g id="Ultralight-M" transform="translate(0,200)">
            <path d="M261.857,117.286 L261.857,104.714 C261.857,103.557 260.919,102.619 259.762,102.619 C258.605,102.619 257.667,103.557 257.667,104.714 L257.667,117.286 C257.667,118.443 258.605,119.381 259.762,119.381 C260.919,119.381 261.857,118.443 261.857,117.286 Z M272.333,117.286 L272.333,104.714 C272.333,103.557 271.395,102.619 270.238,102.619 C269.081,102.619 268.143,103.557 268.143,104.714 L268.143,117.286 C268.143,118.443 269.081,119.381 270.238,119.381 C271.395,119.381 272.333,118.443 272.333,117.286 Z M283.857,111 C283.857,121.415 275.415,129.857 265,129.857 C254.585,129.857 246.143,121.415 246.143,111 C246.143,100.585 254.585,92.143 265,92.143 C275.415,92.143 283.857,100.585 283.857,111 Z M288.048,111 C288.048,98.271 277.729,87.952 265,87.952 C252.271,87.952 241.952,98.271 241.952,111 C241.952,123.729 252.271,134.048 265,134.048 C277.729,134.048 288.048,123.729 288.048,111 Z" />
        </g>
        <g id="Regular-M" transform="translate(0,200)">
            <path d="M461.857,117.286 L461.857,104.714 C461.857,103.557 460.919,102.619 459.762,102.619 C458.605,102.619 457.667,103.557 457.667,104.714 L457.667,117.286 C457.667,118.443 458.605,119.381 459.762,119.381 C460.919,119.381 461.857,118.443 461.857,117.286 Z M472.333,117.286 L472.333,104.714 C472.333,103.557 471.395,102.619 470.238,102.619 C469.081,102.619 468.143,103.557 468.143,104.714 L468.143,117.286 C468.143,118.443 469.081,119.381 470.238,119.381 C471.395,119.381 472.333,118.443 472.333,117.286 Z M483.857,111 C483.857,121.415 475.415,129.857 465,129.857 C454.585,129.857 446.143,121.415 446.143,111 C446.143,100.585 454.585,92.143 465,92.143 C475.415,92.143 483.857,100.585 483.857,111 Z M488.048,111 C488.048,98.271 477.729,87.952 465,87.952 C452.271,87.952 441.952,98.271 441.952,111 C441.952,123.729 452.271,134.048 465,134.048 C477.729,134.048 488.048,123.729 488.048,111 Z" />
        </g>
        <g id="Black-M" transform="translate(0,200)">
            <path d="M661.857,117.286 L661.857,104.714 C661.857,103.557 660.919,102.619 659.762,102.619 C658.605,102.619 657.667,103.557 657.667,104.714 L657.667,117.286 C657.667,118.443 658.605,119.381 659.762,119.381 C660.919,119.381 661.857,118.443 661.857,117.286 Z M672.333,117.286 L672.333,104.714 C672.333,103.557 671.395,102.619 670.238,102.619 C669.081,102.619 668.143,103.557 668.143,104.714 L668.143,117.286 C668.143,118.443 669.081,119.381 670.238,119.381 C671.395,119.381 672.333,118.443 672.333,117.286 Z M683.857,111 C683.857,121.415 675.415,129.857 665,129.857 C654.585,129.857 646.143,121.415 646.143,111 C646.143,100.585 654.585,92.143 665,92.143 C675.415,92.143 683.857,100.585 683.857,111 Z M688.048,111 C688.048,98.271 677.729,87.952 665,87.952 C652.271,87.952 641.952,98.271 641.952,111 C641.952,123.729 652.271,134.048 665,134.048 C677.729,134.048 688.048,123.729 688.048,111 Z" />
        </g>
    </g>
</svg>