<?xml version="1.0" encoding="UTF-8"?>
<svg height="600" width="800" xmlns="http://www.w3.org/2000/svg" xmlns:xlink="http://www.w3.org/1999/xlink">
    <g id="Notes" font-family="LucidaGrande, 'Lucida Grande', sans-serif" font-size="13">
        <rect fill="white" height="600.0" width="800.0" x="0.0" y="0.0" />
        <g font-size="13">
            <text x="18.0" y="176.0">Small</text>
            <text x="18.0" y="376.0">Medium</text>
            <text x="18.0" y="576.0">Large</text>
        </g>
        <g font-size="9">
            <text x="250.0" y="30.0">Ultralight</text>
            <text x="450.0" y="30.0">Regular</text>
            <text x="650.0" y="30.0">Black</text>
            <text id="template-version" fill="#505050" text-anchor="end" x="785.0" y="575.0">Template v.3.0</text>
            <a href="https://github.com/swhitty/SwiftDraw">
                <text fill="#505050" text-anchor="end" x="785.0" y="590.0">https://github.com/swhitty/SwiftDraw</text>
            </a>
        </g>
    </g>
    <g id="Guides" stroke="rgb(39, 170, 225)" stroke-width="0.5">
        <path id="Capline-S" d="M18,76 l800,0" />
        <path id="H-reference" d="M85,145.755 L87.685,145.755 L113.369,79.287 L114.052,79.287 L114.052,76 L112.148,76 L85,145.755 Z M95.693,121.536 L130.996,121.536 L130.263,119.313 L96.474,119.313 L95.693,121.536 Z M139.15,145.755 L141.787,145.755 L114.638,76 L113.466,76 L113.466,79.287 L139.15,145.755 Z" stroke="none" transform="translate(0,200)" />
        <path id="Baseline-S" d="M18,146 l800,0" />
        <path id="left-margin-Ultralight-M" d="M230,256 l0,110" />
        <path id="right-margin-Ultralight-M" d="M300,256 l0,110" />
        <path id="left-margin-Regular-M" d="M430,256 l0,110" />
        <path id="right-margin-Regular-M" d="M500,256 l0,110" />
        <path id="left-margin-Black-M" d="M630,256 l0,110" />
        <path id="right-margin-Black-M" d="M700,256 l0,110" />
        <path id="Capline-M" d="M18,276 l800,0" />
        <path id="Baseline-M" d="M18,346 l800,0" />
        <path id="Capline-L" d="M18,476 l800,0" />
        <path id="Baseline-L" d="M18,546 l800,0" />
    </g>
    <g id="Symbols">
        <g id="Ultralight-M" transform="translate(0,200)">
            <path d="M272.949,93.612 L254.964,98.751 C254.221,98.964 254.011,99.027 253.694,99.14 C253.241,99.301 252.853,99.483 252.475,99.73 C251.823,100.154 251.263,100.704 250.828,101.346 C250.381,102.006 250.235,102.4 249.801,103.812 L238.879,139.309 C238.405,140.848 239.269,142.481 240.809,142.954 C242.348,143.428 243.981,142.564 244.454,141.024 L255.377,105.526 C255.613,104.757 255.674,104.594 255.658,104.618 C255.658,104.618 255.658,104.618 255.658,104.618 C255.612,104.647 255.599,104.654 255.652,104.635 C255.801,104.582 255.973,104.53 256.568,104.36 L274.551,99.221 C276.1,98.778 276.997,97.164 276.554,95.615 C276.112,94.066 274.497,93.17 272.949,93.612 Z M242.524,142.954 L278.02,132.031 C279.422,131.603 279.821,131.455 280.481,131.011 C281.136,130.566 281.683,130.006 282.105,129.357 C282.35,128.98 282.532,128.592 282.694,128.139 C282.806,127.822 282.869,127.612 283.082,126.87 L288.221,108.885 C288.664,107.336 287.767,105.722 286.218,105.279 C284.669,104.836 283.055,105.733 282.612,107.282 L277.473,125.266 C277.303,125.861 277.252,126.032 277.199,126.181 C277.18,126.235 277.186,126.221 277.215,126.177 C277.213,126.179 277.213,126.179 277.213,126.179 C277.245,126.158 277.08,126.219 276.309,126.455 L240.809,137.379 C239.269,137.853 238.405,139.485 238.879,141.025 C239.353,142.564 240.985,143.428 242.524,142.954 Z M243.729,142.229 L262.938,123.02 C264.077,121.881 264.077,120.034 262.938,118.895 C261.799,117.756 259.952,117.756 258.813,118.895 L239.604,138.104 C238.465,139.243 238.465,141.09 239.604,142.229 C240.743,143.368 242.59,143.368 243.729,142.229 Z M247.5,99.333 L247.5,81.833 C247.5,80.223 246.194,78.917 244.583,78.917 C242.973,78.917 241.667,80.223 241.667,81.833 L241.667,99.333 C241.667,100.944 242.973,102.25 244.583,102.25 C246.194,102.25 247.5,100.944 247.5,99.333 Z M235.833,93.5 L253.333,93.5 C254.944,93.5 256.25,92.194 256.25,90.583 C256.25,88.973 254.944,87.667 253.333,87.667 L235.833,87.667 C234.223,87.667 232.917,88.973 232.917,90.583 C232.917,92.194 234.223,93.5 235.833,93.5 Z M295.847,96.889 L284.942,85.983 C283.354,84.396 282.932,84.02 282.007,83.574 C281.804,83.476 281.596,83.393 281.382,83.323 C280.211,82.943 278.949,82.943 277.778,83.324 C277.565,83.393 277.357,83.476 277.154,83.574 C276.229,84.02 275.807,84.396 274.219,85.983 L272.067,88.136 C270.479,89.724 270.103,90.145 269.658,91.071 C269.56,91.274 269.476,91.482 269.407,91.695 C269.026,92.866 269.026,94.128 269.407,95.3 C269.476,95.512 269.56,95.72 269.658,95.923 C270.103,96.849 270.479,97.271 272.067,98.858 L282.969,109.761 C284.557,111.348 284.979,111.724 285.904,112.17 C286.107,112.268 286.315,112.352 286.529,112.421 C287.699,112.801 288.961,112.801 290.133,112.421 C290.346,112.352 290.554,112.268 290.757,112.17 C291.682,111.724 292.104,111.348 293.692,109.761 L295.844,107.608 C297.432,106.021 297.808,105.599 298.253,104.673 C298.351,104.47 298.435,104.262 298.504,104.049 C298.885,102.878 298.885,101.616 298.504,100.445 C298.435,100.232 298.351,100.024 298.253,99.821 C297.808,98.895 297.432,98.474 295.844,96.886 L293.782,98.948 L291.719,101.011 L291.722,101.014 L293.785,98.951 L295.847,96.889 Z M291.722,101.014 C294.472,103.764 298.597,99.639 295.847,96.889 L295.844,96.886 C293.094,94.136 288.969,98.261 291.719,101.011 C292.705,101.997 292.969,102.293 292.998,102.352 C292.983,102.321 292.968,102.285 292.956,102.246 C292.956,102.247 292.956,102.247 292.956,102.247 C292.968,102.209 292.983,102.173 292.998,102.142 C292.969,102.201 292.705,102.498 291.719,103.483 L289.567,105.636 C288.581,106.622 288.284,106.886 288.225,106.914 C288.256,106.9 288.292,106.885 288.331,106.872 C288.33,106.873 288.33,106.873 288.33,106.873 C288.369,106.885 288.405,106.9 288.435,106.914 C288.376,106.886 288.08,106.622 287.094,105.636 L276.192,94.733 C275.206,93.748 274.941,93.451 274.913,93.392 C274.928,93.423 274.942,93.459 274.955,93.498 C274.955,93.497 274.955,93.497 274.955,93.497 C274.942,93.535 274.928,93.571 274.913,93.602 C274.941,93.543 275.206,93.247 276.192,92.261 L278.344,90.108 C279.33,89.122 279.626,88.858 279.685,88.83 C279.655,88.845 279.619,88.859 279.58,88.872 C279.58,88.871 279.58,88.871 279.58,88.871 C279.542,88.859 279.506,88.845 279.475,88.83 C279.534,88.858 279.831,89.122 280.817,90.108 L291.722,101.014 Z M265,113.917 C266.611,113.917 267.917,115.223 267.917,116.833 C267.917,118.444 266.611,119.75 265,119.75 C263.389,119.75 262.083,118.444 262.083,116.833 C262.083,115.223 263.389,113.917 265,113.917 Z M265,108.083 C260.168,108.083 256.25,112.001 256.25,116.833 C256.25,121.666 260.168,125.583 265,125.583 C269.832,125.583 273.75,121.666 273.75,116.833 C273.75,112.001 269.832,108.083 265,108.083 Z" />
        </g>
        <g id="Regular-M" transform="translate(0,200)">
            <path d="M472.949,93.612 L454.964,98.751 C454.221,98.964 454.011,99.027 453.694,99.14 C453.241,99.301 452.853,99.483 452.475,99.73 C451.823,100.154 451.263,100.704 450.828,101.346 C450.381,102.006 450.235,102.4 449.801,103.812 L438.879,139.309 C438.405,140.848 439.269,142.481 440.809,142.954 C442.349,143.428 443.981,142.564 444.454,141.024 L455.377,105.526 C455.613,104.757 455.674,104.594 455.658,104.618 C455.658,104.618 455.658,104.618 455.658,104.618 C455.612,104.647 455.599,104.654 455.652,104.635 C455.801,104.582 455.973,104.53 456.568,104.36 L474.551,99.221 C476.1,98.778 476.997,97.164 476.554,95.615 C476.112,94.066 474.497,93.17 472.949,93.612 Z M442.525,142.954 L478.02,132.031 C479.422,131.603 479.821,131.455 480.481,131.011 C481.136,130.566 481.683,130.006 482.105,129.357 C482.35,128.98 482.532,128.592 482.694,128.139 C482.806,127.822 482.869,127.612 483.082,126.87 L488.221,108.885 C488.664,107.336 487.767,105.722 486.218,105.279 C484.669,104.836 483.055,105.733 482.612,107.282 L477.473,125.266 C477.303,125.861 477.252,126.032 477.199,126.181 C477.18,126.235 477.186,126.221 477.215,126.177 C477.213,126.179 477.213,126.179 477.213,126.179 C477.245,126.158 477.08,126.219 476.309,126.455 L440.809,137.379 C439.269,137.853 438.405,139.485 438.879,141.025 C439.353,142.564 440.985,143.428 442.525,142.954 Z M443.729,142.229 L462.938,123.02 C464.077,121.881 464.077,120.034 462.938,118.895 C461.799,117.756 459.952,117.756 458.813,118.895 L439.604,138.104 C438.465,139.243 438.465,141.09 439.604,142.229 C440.743,143.368 442.59,143.368 443.729,142.229 Z M447.5,99.333 L447.5,81.833 C447.5,80.223 446.194,78.917 444.583,78.917 C442.973,78.917 441.667,80.223 441.667,81.833 L441.667,99.333 C441.667,100.944 442.973,102.25 444.583,102.25 C446.194,102.25 447.5,100.944 447.5,99.333 Z M435.833,93.5 L453.333,93.5 C454.944,93.5 456.25,92.194 456.25,90.583 C456.25,88.973 454.944,87.667 453.333,87.667 L435.833,87.667 C434.223,87.667 432.917,88.973 432.917,90.583 C432.917,92.194 434.223,93.5 435.833,93.5 Z M495.847,96.889 L484.942,85.983 C483.354,84.396 482.932,84.02 482.007,83.574 C481.804,83.476 481.596,83.393 481.382,83.323 C480.211,82.943 478.949,82.943 477.778,83.324 C477.565,83.393 477.357,83.476 477.154,83.574 C476.229,84.02 475.807,84.396 474.219,85.983 L472.067,88.136 C470.479,89.724 470.103,90.145 469.658,91.071 C469.56,91.274 469.476,91.482 469.407,91.695 C469.026,92.866 469.026,94.128 469.407,95.3 C469.476,95.512 469.56,95.72 469.658,95.923 C470.103,96.849 470.479,97.271 472.067,98.858 L482.969,109.761 C484.557,111.348 484.979,111.724 485.904,112.17 C486.107,112.268 486.315,112.352 486.529,112.421 C487.699,112.801 488.961,112.801 490.133,112.421 C490.346,112.352 490.554,112.268 490.757,112.17 C491.682,111.724 492.104,111.348 493.692,109.761 L495.844,107.608 C497.432,106.021 497.808,105.599 498.253,104.673 C498.351,104.47 498.435,104.262 498.504,104.049 C498.885,102.878 498.885,101.616 498.504,100.445 C498.435,100.232 498.351,100.024 498.253,99.821 C497.808,98.895 497.432,98.474 495.844,96.886 L493.782,98.948 L491.719,101.011 L491.722,101.014 L493.785,98.951 L495.847,96.889 Z M491.722,101.014 C494.472,103.764 498.597,99.639 495.847,96.889 L495.844,96.886 C493.094,94.136 488.969,98.261 491.719,101.011 C492.705,101.997 492.969,102.293 492.998,102.352 C492.983,102.321 492.968,102.285 492.956,102.246 C492.956,102.247 492.956,102.247 492.956,102.247 C492.968,102.209 492.983,102.173 492.998,102.142 C492.969,102.201 492.705,102.498 491.719,103.483 L489.567,105.636 C488.581,106.622 488.284,106.886 488.225,106.914 C488.256,106.9 488.292,106.885 488.331,106.872 C488.33,106.873 488.33,106.873 488.33,106.873 C488.369,106.885 488.405,106.9 488.435,106.914 C488.376,106.886 488.08,106.622 487.094,105.636 L476.192,94.733 C475.206,93.748 474.941,93.451 474.913,93.392 C474.928,93.423 474.942,93.459 474.955,93.498 C474.955,93.497 474.955,93.497 474.955,93.497 C474.942,93.535 474.928,93.571 474.913,93.602 C474.941,93.543 475.206,93.247 476.192,92.261 L478.344,90.108 C479.33,89.122 479.626,88.858 479.685,88.83 C479.655,88.845 479.619,88.859 479.58,88.872 C479.58,88.871 479.58,88.871 479.58,88.871 C479.542,88.859 479.506,88.845 479.475,88.83 C479.534,88.858 479.831,89.122 480.817,90.108 L491.722,101.014 Z M465,113.917 C466.611,113.917 467.917,115.223 467.917,116.833 C467.917,118.444 466.611,119.75 465,119.75 C463.389,119.75 462.083,118.444 462.083,116.833 C462.083,115.223 463.389,113.917 465,113.917 Z M465,108.083 C460.168,108.083 456.25,112.001 456.25,116.833 C456.25,121.666 460.168,125.583 465,125.583 C469.832,125.583 473.75,121.666 473.75,116.833 C473.75,112.001 469.832,108.083 465,108.083 Z" />
        </g>
        <g id="Black-M" transform="translate(0,200)">
            <path d="M672.949,93.612 L654.964,98.751 C654.221,98.964 654.011,99.027 653.694,99.14 C653.241,99.301 652.853,99.483 652.474,99.73 C651.823,100.154 651.263,100.704 650.828,101.346 C650.381,102.006 650.235,102.4 649.801,103.812 L638.879,139.309 C638.405,140.848 639.269,142.481 640.809,142.954 C642.349,143.428 643.981,142.564 644.454,141.024 L655.377,105.526 C655.613,104.757 655.674,104.594 655.658,104.618 C655.658,104.618 655.658,104.618 655.658,104.618 C655.612,104.647 655.599,104.654 655.652,104.635 C655.801,104.582 655.973,104.53 656.568,104.36 L674.551,99.221 C676.1,98.778 676.997,97.164 676.554,95.615 C676.112,94.066 674.497,93.17 672.949,93.612 Z M642.524,142.954 L678.02,132.031 C679.422,131.603 679.821,131.455 680.481,131.011 C681.136,130.566 681.683,130.006 682.105,129.357 C682.35,128.98 682.532,128.592 682.694,128.139 C682.806,127.822 682.869,127.612 683.082,126.87 L688.221,108.885 C688.664,107.336 687.767,105.722 686.218,105.279 C684.669,104.836 683.055,105.733 682.612,107.282 L677.473,125.266 C677.303,125.861 677.252,126.032 677.199,126.181 C677.18,126.235 677.186,126.221 677.215,126.177 C677.213,126.179 677.213,126.179 677.213,126.179 C677.245,126.158 677.08,126.219 676.309,126.455 L640.809,137.379 C639.269,137.853 638.405,139.485 638.879,141.025 C639.353,142.564 640.985,143.428 642.524,142.954 Z M643.729,142.229 L662.938,123.02 C664.077,121.881 664.077,120.034 662.938,118.895 C661.799,117.756 659.952,117.756 658.813,118.895 L639.604,138.104 C638.465,139.243 638.465,141.09 639.604,142.229 C640.743,143.368 642.59,143.368 643.729,142.229 Z M647.5,99.333 L647.5,81.833 C647.5,80.223 646.194,78.917 644.583,78.917 C642.973,78.917 641.667,80.223 641.667,81.833 L641.667,99.333 C641.667,100.944 642.973,102.25 644.583,102.25 C646.194,102.25 647.5,100.944 647.5,99.333 Z M635.833,93.5 L653.333,93.5 C654.944,93.5 656.25,92.194 656.25,90.583 C656.25,88.973 654.944,87.667 653.333,87.667 L635.833,87.667 C634.222,87.667 632.917,88.973 632.917,90.583 C632.917,92.194 634.222,93.5 635.833,93.5 Z M695.847,96.889 L684.942,85.983 C683.354,84.396 682.932,84.02 682.007,83.574 C681.804,83.476 681.596,83.393 681.382,83.323 C680.211,82.943 678.949,82.943 677.778,83.324 C677.565,83.393 677.357,83.476 677.154,83.574 C676.229,84.02 675.807,84.396 674.219,85.983 L672.067,88.136 C670.479,89.724 670.103,90.145 669.658,91.071 C669.56,91.274 669.476,91.482 669.407,91.695 C669.026,92.866 669.026,94.128 669.407,95.3 C669.476,95.512 669.56,95.72 669.658,95.923 C670.103,96.849 670.479,97.271 672.067,98.858 L682.969,109.761 C684.557,111.348 684.979,111.724 685.904,112.17 C686.107,112.268 686.315,112.352 686.529,112.421 C687.699,112.801 688.961,112.801 690.133,112.421 C690.346,112.352 690.554,112.268 690.757,112.17 C691.682,111.724 692.104,111.348 693.692,109.761 L695.844,107.608 C697.432,106.021 697.808,105.599 698.253,104.673 C698.351,104.47 698.435,104.262 698.504,104.049 C698.885,102.878 698.885,101.616 698.504,100.445 C698.435,100.232 698.351,100.024 698.253,99.821 C697.808,98.895 697.432,98.474 695.844,96.886 L693.782,98.948 L691.719,101.011 L691.722,101.014 L693.785,98.951 L695.847,96.889 Z M691.722,101.014 C694.472,103.764 698.597,99.639 695.847,96.889 L695.844,96.886 C693.094,94.136 688.969,98.261 691.719,101.011 C692.705,101.997 692.969,102.293 692.998,102.352 C692.983,102.321 692.968,102.285 692.956,102.246 C692.956,102.247 692.956,102.247 692.956,102.247 C692.968,102.209 692.983,102.173 692.998,102.142 C692.969,102.201 692.705,102.498 691.719,103.483 L689.567,105.636 C688.581,106.622 688.284,106.886 688.226,106.914 C688.256,106.9 688.292,106.885 688.331,106.872 C688.33,106.873 688.33,106.873 688.33,106.873 C688.369,106.885 688.405,106.9 688.435,106.914 C688.376,106.886 688.08,106.622 687.094,105.636 L676.192,94.733 C675.206,93.748 674.941,93.451 674.913,93.392 C674.928,93.423 674.942,93.459 674.955,93.498 C674.955,93.497 674.955,93.497 674.955,93.497 C674.942,93.535 674.928,93.571 674.913,93.602 C674.941,93.543 675.206,93.247 676.192,92.261 L678.344,90.108 C679.33,89.122 679.626,88.858 679.685,88.83 C679.655,88.845 679.619,88.859 679.58,88.872 C679.58,88.871 679.58,88.871 679.58,88.871 C679.542,88.859 679.506,88.845 679.476,88.83 C679.534,88.858 679.831,89.122 680.817,90.108 L691.722,101.014 Z M665,113.917 C666.611,113.917 667.917,115.223 667.917,116.833 C667.917,118.444 666.611,119.75 665,119.75 C663.389,119.75 662.083,118.444 662.083,116.833 C662.083,115.223 663.389,113.917 665,113.917 Z M665,108.083 C660.167,108.083 656.25,112.001 656.25,116.833 C656.25,121.666 660.167,125.583 665,125.583 C669.833,125.583 673.75,121.666 673.75,116.833 C673.75,112.001 669.833,108.083 665,108.083 Z" />
        </g>
    </g>
</svg>