<?xml version="1.0" encoding="UTF-8"?>
<svg height="600" width="800" xmlns="http://www.w3.org/2000/svg" xmlns:xlink="http://www.w3.org/1999/xlink">
    <g id="Notes" font-family="LucidaGrande, 'Lucida Grande', sans-serif" font-size="13">
        <rect fill="white" height="600.0" width="800.0" x="0.0" y="0.0" />
        <g font-size="13">
            <text x="18.0" y="176.0">Small</text>
            <text x="18.0" y="376.0">Medium</text>
            <text x="18.0" y="576.0">Large</text>
        </g>
        <g font-size="9">
            <text x="250.0" y="30.0">Ultralight</text>
            <text x="450.0" y="30.0">Regular</text>
            <text x="650.0" y="30.0">Black</text>
            <text id="template-version" fill="#505050" text-anchor="end" x="785.0" y="575.0">Template v.3.0</text>
            <a href="https://github.com/swhitty/SwiftDraw">
                <text fill="#505050" text-anchor="end" x="785.0" y="590.0">https://github.com/swhitty/SwiftDraw</text>
            </a>
        </g>
    </g>
    <g id="Guides" stroke="rgb(39, 170, 225)" stroke-width="0.5">
        <path id="Capline-S" d="M18,76 l800,0" />
        <path id="H-reference" d="M85,145.755 L87.685,145.755 L113.369,79.287 L114.052,79.287 L114.052,76 L112.148,76 L85,145.755 Z M95.693,121.536 L130.996,121.536 L130.263,119.313 L96.474,119.313 L95.693,121.536 Z M139.15,145.755 L141.787,145.755 L114.638,76 L113.466,76 L113.466,79.287 L139.15,145.755 Z" stroke="none" transform="translate(0,200)" />
        <path id="Baseline-S" d="M18,146 l800,0" />
        <path id="left-margin-Ultralight-M" d="M230,256 l0,110" />
        <path id="right-margin-Ultralight-M" d="M300,256 l0,110" />
        <path id="left-margin-Regular-M" d="M430,256 l0,110" />
        <path id="right-margin-Regular-M" d="M500,256 l0,110" />
        <path id="left-margin-Black-M" d="M630,256 l0,110" />
        <path id="right-margin-Black-M" d="M700,256 l0,110" />
        <path id="Capline-M" d="M18,276 l800,0" />
        <path id="Baseline-M" d="M18,346 l800,0" />
        <path id="Capline-L" d="M18,476 l800,0" />
        <path id="Baseline-L" d="M18,546 l800,0" />
    </g>
    <g id="Symbols">
        <g id="Ultralight-M" transform="translate(0,200)">
            <path d="M267.344,90.64 L248.392,94.432 C247.753,94.558 247.524,94.606 247.233,94.675 C246.524,94.845 245.981,95.041 245.435,95.371 C244.69,95.816 244.041,96.438 243.556,97.181 C243.054,97.95 242.914,98.399 242.507,100.086 L232.998,139.482 C232.62,141.048 233.583,142.624 235.149,143.002 C236.715,143.38 238.291,142.417 238.669,140.851 L248.177,101.456 C248.398,100.539 248.461,100.34 248.44,100.371 C248.44,100.371 248.44,100.371 248.44,100.371 C248.398,100.396 248.416,100.39 248.588,100.349 C248.776,100.304 248.971,100.264 249.532,100.153 L268.489,96.36 C270.068,96.044 271.093,94.507 270.777,92.928 C270.461,91.348 268.924,90.324 267.344,90.64 Z M236.518,143.002 L275.913,133.494 C276.653,133.315 276.889,133.255 277.212,133.16 C277.836,132.974 278.338,132.761 278.83,132.437 C279.562,131.959 280.184,131.31 280.639,130.548 C281.109,129.757 281.236,129.284 281.569,127.603 L285.36,108.656 C285.676,107.076 284.652,105.539 283.072,105.223 C281.493,104.907 279.956,105.932 279.64,107.511 L275.848,126.464 C275.665,127.387 275.611,127.591 275.627,127.564 C275.629,127.56 275.629,127.56 275.629,127.56 C275.672,127.532 275.672,127.532 275.552,127.567 C275.366,127.622 275.168,127.672 274.544,127.823 L235.149,137.331 C233.583,137.709 232.62,139.285 232.998,140.851 C233.376,142.417 234.952,143.38 236.518,143.002 Z M237.896,142.229 L260.022,120.103 C261.161,118.964 261.161,117.117 260.022,115.978 C258.883,114.839 257.036,114.839 255.897,115.978 L233.771,138.104 C232.632,139.243 232.632,141.09 233.771,142.229 C234.91,143.368 236.757,143.368 237.896,142.229 Z M292.93,96.886 L279.108,83.069 C277.521,81.482 277.099,81.106 276.173,80.66 C275.97,80.563 275.762,80.479 275.549,80.41 C274.378,80.029 273.116,80.029 271.945,80.41 C271.732,80.479 271.524,80.563 271.321,80.66 C270.395,81.106 269.974,81.482 268.386,83.07 L266.235,85.218 C264.637,86.82 264.268,87.234 263.823,88.16 C263.726,88.362 263.642,88.569 263.573,88.782 C263.193,89.952 263.193,91.214 263.574,92.386 C263.643,92.599 263.726,92.807 263.824,93.01 C264.27,93.935 264.646,94.357 266.233,95.944 L280.053,109.761 C281.654,111.362 282.061,111.726 282.985,112.172 C283.189,112.27 283.398,112.354 283.612,112.424 C284.783,112.804 286.045,112.804 287.216,112.424 C287.439,112.35 287.645,112.266 287.847,112.168 C288.768,111.722 289.19,111.346 290.775,109.761 L292.926,107.613 C294.515,106.023 294.891,105.602 295.337,104.676 C295.434,104.473 295.518,104.265 295.588,104.052 C295.968,102.881 295.968,101.619 295.587,100.447 C295.518,100.232 295.431,100.018 295.33,99.809 C294.884,98.888 294.508,98.466 292.927,96.886 L290.865,98.948 L290.866,101.865 L290.869,101.865 C293.467,101.864 294.767,98.722 292.93,96.886 Z M288.806,101.011 L290.868,98.948 L290.867,96.032 L290.864,96.032 C288.266,96.033 286.966,99.174 288.803,101.011 C289.787,101.995 290.05,102.291 290.081,102.353 C290.065,102.322 290.051,102.285 290.038,102.246 C290.039,102.25 290.039,102.25 290.039,102.25 C290.052,102.212 290.066,102.176 290.081,102.145 C290.053,102.204 289.789,102.5 288.803,103.486 L286.651,105.635 C285.661,106.625 285.365,106.889 285.302,106.92 C285.331,106.905 285.366,106.891 285.404,106.879 C285.414,106.876 285.414,106.876 285.414,106.876 C285.453,106.888 285.489,106.903 285.521,106.918 C285.463,106.89 285.17,106.629 284.177,105.636 L270.358,91.819 C269.372,90.834 269.108,90.537 269.08,90.478 C269.095,90.509 269.109,90.545 269.122,90.584 C269.121,90.583 269.121,90.583 269.121,90.583 C269.109,90.621 269.095,90.657 269.08,90.688 C269.108,90.629 269.371,90.334 270.361,89.341 L272.509,87.196 C273.497,86.209 273.793,85.944 273.852,85.916 C273.821,85.931 273.785,85.945 273.746,85.958 C273.747,85.958 273.747,85.958 273.747,85.958 C273.709,85.945 273.673,85.931 273.642,85.916 C273.701,85.944 273.998,86.209 274.983,87.194 L288.806,101.011 Z M262.083,111 C263.694,111 265,112.306 265,113.917 C265,115.527 263.694,116.833 262.083,116.833 C260.473,116.833 259.167,115.527 259.167,113.917 C259.167,112.306 260.473,111 262.083,111 Z M262.083,105.167 C257.251,105.167 253.333,109.084 253.333,113.917 C253.333,118.749 257.251,122.667 262.083,122.667 C266.916,122.667 270.833,118.749 270.833,113.917 C270.833,109.084 266.916,105.167 262.083,105.167 Z" />
        </g>
        <g id="Regular-M" transform="translate(0,200)">
            <path d="M467.344,90.64 L448.392,94.432 C447.753,94.558 447.524,94.606 447.233,94.675 C446.524,94.845 445.981,95.041 445.435,95.371 C444.69,95.816 444.041,96.438 443.556,97.181 C443.054,97.95 442.914,98.399 442.507,100.086 L432.998,139.482 C432.62,141.048 433.583,142.624 435.149,143.002 C436.715,143.38 438.291,142.417 438.669,140.851 L448.177,101.456 C448.398,100.539 448.461,100.34 448.44,100.371 C448.44,100.371 448.44,100.371 448.44,100.371 C448.398,100.396 448.416,100.39 448.588,100.349 C448.776,100.304 448.971,100.264 449.532,100.153 L468.489,96.36 C470.068,96.044 471.093,94.507 470.777,92.928 C470.461,91.348 468.924,90.324 467.344,90.64 Z M436.518,143.002 L475.913,133.494 C476.653,133.315 476.889,133.255 477.212,133.16 C477.836,132.974 478.338,132.761 478.83,132.437 C479.562,131.959 480.184,131.31 480.639,130.548 C481.109,129.757 481.236,129.284 481.569,127.603 L485.36,108.656 C485.676,107.076 484.652,105.539 483.072,105.223 C481.493,104.907 479.956,105.932 479.64,107.511 L475.848,126.464 C475.665,127.387 475.611,127.591 475.627,127.564 C475.629,127.56 475.629,127.56 475.629,127.56 C475.672,127.532 475.672,127.532 475.552,127.567 C475.366,127.622 475.168,127.672 474.544,127.823 L435.149,137.331 C433.583,137.709 432.62,139.285 432.998,140.851 C433.376,142.417 434.952,143.38 436.518,143.002 Z M437.896,142.229 L460.022,120.103 C461.161,118.964 461.161,117.117 460.022,115.978 C458.883,114.839 457.036,114.839 455.897,115.978 L433.771,138.104 C432.632,139.243 432.632,141.09 433.771,142.229 C434.91,143.368 436.757,143.368 437.896,142.229 Z M492.93,96.886 L479.108,83.069 C477.521,81.482 477.099,81.106 476.173,80.66 C475.97,80.563 475.762,80.479 475.549,80.41 C474.378,80.029 473.116,80.029 471.945,80.41 C471.732,80.479 471.524,80.563 471.321,80.66 C470.395,81.106 469.974,81.482 468.386,83.07 L466.235,85.218 C464.637,86.82 464.268,87.234 463.823,88.16 C463.726,88.362 463.642,88.569 463.573,88.782 C463.193,89.952 463.193,91.214 463.574,92.386 C463.643,92.599 463.726,92.807 463.824,93.01 C464.27,93.935 464.646,94.357 466.233,95.944 L480.053,109.761 C481.654,111.362 482.061,111.726 482.985,112.172 C483.189,112.27 483.398,112.354 483.612,112.424 C484.783,112.804 486.045,112.804 487.216,112.424 C487.439,112.35 487.645,112.266 487.847,112.168 C488.768,111.722 489.19,111.346 490.775,109.761 L492.926,107.613 C494.515,106.023 494.891,105.602 495.337,104.676 C495.434,104.473 495.518,104.265 495.588,104.052 C495.968,102.881 495.968,101.619 495.587,100.447 C495.518,100.232 495.431,100.018 495.33,99.809 C494.884,98.888 494.508,98.466 492.927,96.886 L490.865,98.948 L490.866,101.865 L490.869,101.865 C493.467,101.864 494.767,98.722 492.93,96.886 Z M488.806,101.011 L490.868,98.948 L490.867,96.032 L490.864,96.032 C488.266,96.033 486.966,99.174 488.803,101.011 C489.787,101.995 490.05,102.291 490.081,102.353 C490.065,102.322 490.051,102.285 490.038,102.246 C490.039,102.25 490.039,102.25 490.039,102.25 C490.052,102.212 490.066,102.176 490.081,102.145 C490.053,102.204 489.789,102.5 488.803,103.486 L486.651,105.635 C485.661,106.625 485.365,106.889 485.302,106.92 C485.331,106.905 485.366,106.891 485.404,106.879 C485.414,106.876 485.414,106.876 485.414,106.876 C485.453,106.888 485.489,106.903 485.521,106.918 C485.463,106.89 485.17,106.629 484.177,105.636 L470.358,91.819 C469.372,90.834 469.108,90.537 469.08,90.478 C469.095,90.509 469.109,90.545 469.122,90.584 C469.121,90.583 469.121,90.583 469.121,90.583 C469.109,90.621 469.095,90.657 469.08,90.688 C469.108,90.629 469.371,90.334 470.361,89.341 L472.509,87.196 C473.497,86.209 473.793,85.944 473.852,85.916 C473.821,85.931 473.785,85.945 473.746,85.958 C473.747,85.958 473.747,85.958 473.747,85.958 C473.709,85.945 473.673,85.931 473.642,85.916 C473.701,85.944 473.998,86.209 474.983,87.194 L488.806,101.011 Z M462.083,111 C463.694,111 465,112.306 465,113.917 C465,115.527 463.694,116.833 462.083,116.833 C460.473,116.833 459.167,115.527 459.167,113.917 C459.167,112.306 460.473,111 462.083,111 Z M462.083,105.167 C457.251,105.167 453.333,109.084 453.333,113.917 C453.333,118.749 457.251,122.667 462.083,122.667 C466.916,122.667 470.833,118.749 470.833,113.917 C470.833,109.084 466.916,105.167 462.083,105.167 Z" />
        </g>
        <g id="Black-M" transform="translate(0,200)">
            <path d="M667.344,90.64 L648.392,94.432 C647.753,94.558 647.524,94.606 647.233,94.675 C646.524,94.845 645.981,95.041 645.435,95.371 C644.69,95.816 644.041,96.438 643.556,97.181 C643.054,97.95 642.914,98.399 642.507,100.086 L632.998,139.482 C632.62,141.048 633.583,142.624 635.149,143.002 C636.715,143.38 638.291,142.417 638.669,140.851 L648.177,101.456 C648.398,100.539 648.461,100.34 648.44,100.371 C648.44,100.371 648.44,100.371 648.44,100.371 C648.398,100.396 648.416,100.39 648.588,100.349 C648.776,100.304 648.971,100.264 649.532,100.153 L668.489,96.36 C670.068,96.044 671.093,94.507 670.777,92.928 C670.461,91.348 668.924,90.324 667.344,90.64 Z M636.518,143.002 L675.913,133.494 C676.653,133.315 676.889,133.255 677.212,133.16 C677.836,132.974 678.338,132.761 678.83,132.437 C679.562,131.959 680.184,131.31 680.639,130.548 C681.109,129.757 681.236,129.284 681.569,127.603 L685.36,108.656 C685.676,107.076 684.652,105.539 683.072,105.223 C681.493,104.907 679.956,105.932 679.64,107.511 L675.848,126.464 C675.665,127.387 675.611,127.591 675.627,127.564 C675.629,127.56 675.629,127.56 675.629,127.56 C675.672,127.532 675.672,127.532 675.552,127.567 C675.366,127.622 675.168,127.672 674.544,127.823 L635.149,137.331 C633.583,137.709 632.62,139.285 632.998,140.851 C633.376,142.417 634.952,143.38 636.518,143.002 Z M637.896,142.229 L660.022,120.103 C661.161,118.964 661.161,117.117 660.022,115.978 C658.883,114.839 657.036,114.839 655.897,115.978 L633.771,138.104 C632.632,139.243 632.632,141.09 633.771,142.229 C634.91,143.368 636.757,143.368 637.896,142.229 Z M692.93,96.886 L679.108,83.069 C677.521,81.482 677.099,81.106 676.173,80.66 C675.97,80.563 675.762,80.479 675.549,80.41 C674.378,80.029 673.116,80.029 671.945,80.41 C671.732,80.479 671.524,80.563 671.321,80.66 C670.395,81.106 669.974,81.482 668.386,83.07 L666.235,85.218 C664.637,86.82 664.268,87.234 663.823,88.16 C663.726,88.362 663.642,88.569 663.573,88.782 C663.193,89.952 663.193,91.214 663.574,92.386 C663.643,92.599 663.726,92.807 663.824,93.01 C664.27,93.935 664.646,94.357 666.233,95.944 L680.053,109.761 C681.654,111.362 682.061,111.726 682.985,112.172 C683.189,112.27 683.398,112.354 683.612,112.424 C684.783,112.804 686.045,112.804 687.216,112.424 C687.439,112.35 687.645,112.266 687.847,112.168 C688.768,111.722 689.19,111.346 690.775,109.761 L692.926,107.613 C694.515,106.023 694.891,105.602 695.337,104.676 C695.434,104.473 695.518,104.265 695.588,104.052 C695.968,102.881 695.968,101.619 695.587,100.447 C695.518,100.232 695.431,100.018 695.33,99.809 C694.884,98.888 694.508,98.466 692.927,96.886 L690.865,98.948 L690.866,101.865 L690.869,101.865 C693.467,101.864 694.767,98.722 692.93,96.886 Z M688.806,101.011 L690.868,98.948 L690.867,96.032 L690.864,96.032 C688.266,96.033 686.966,99.174 688.803,101.011 C689.786,101.995 690.05,102.291 690.081,102.353 C690.065,102.322 690.051,102.285 690.038,102.246 C690.039,102.25 690.039,102.25 690.039,102.25 C690.052,102.212 690.066,102.176 690.081,102.145 C690.053,102.204 689.789,102.5 688.803,103.486 L686.651,105.635 C685.661,106.625 685.365,106.889 685.302,106.92 C685.331,106.905 685.366,106.891 685.404,106.879 C685.414,106.876 685.414,106.876 685.414,106.876 C685.453,106.888 685.489,106.903 685.521,106.918 C685.463,106.89 685.17,106.629 684.177,105.636 L670.358,91.819 C669.372,90.834 669.108,90.537 669.08,90.478 C669.095,90.509 669.109,90.545 669.122,90.584 C669.121,90.583 669.121,90.583 669.121,90.583 C669.109,90.621 669.095,90.657 669.08,90.688 C669.108,90.629 669.371,90.334 670.361,89.341 L672.509,87.196 C673.497,86.209 673.793,85.944 673.852,85.916 C673.821,85.931 673.785,85.945 673.746,85.958 C673.747,85.958 673.747,85.958 673.747,85.958 C673.709,85.945 673.673,85.931 673.642,85.916 C673.701,85.944 673.998,86.209 674.983,87.194 L688.806,101.011 Z M662.083,111 C663.694,111 665,112.306 665,113.917 C665,115.527 663.694,116.833 662.083,116.833 C660.473,116.833 659.167,115.527 659.167,113.917 C659.167,112.306 660.473,111 662.083,111 Z M662.083,105.167 C657.251,105.167 653.333,109.084 653.333,113.917 C653.333,118.749 657.251,122.667 662.083,122.667 C666.916,122.667 670.833,118.749 670.833,113.917 C670.833,109.084 666.916,105.167 662.083,105.167 Z" />
        </g>
    </g>
</svg>