<?xml version="1.0" encoding="UTF-8"?>
<svg height="600" width="800" xmlns="http://www.w3.org/2000/svg" xmlns:xlink="http://www.w3.org/1999/xlink">
    <g id="Notes" font-family="LucidaGrande, 'Lucida Grande', sans-serif" font-size="13">
        <rect fill="white" height="600.0" width="800.0" x="0.0" y="0.0" />
        <g font-size="13">
            <text x="18.0" y="176.0">Small</text>
            <text x="18.0" y="376.0">Medium</text>
            <text x="18.0" y="576.0">Large</text>
        </g>
        <g font-size="9">
            <text x="250.0" y="30.0">Ultralight</text>
            <text x="450.0" y="30.0">Regular</text>
            <text x="650.0" y="30.0">Black</text>
            <text id="template-version" fill="#505050" text-anchor="end" x="785.0" y="575.0">Template v.3.0</text>
            <a href="https://github.com/swhitty/SwiftDraw">
                <text fill="#505050" text-anchor="end" x="785.0" y="590.0">https://github.com/swhitty/SwiftDraw</text>
            </a>
        </g>
    </g>
    <g id="Guides" stroke="rgb(39, 170, 225)" stroke-width="0.5">
        <path id="Capline-S" d="M18,76 l800,0" />
        <path id="H-reference" d="M85,145.755 L87.685,145.755 L113.369,79.287 L114.052,79.287 L114.052,76 L112.148,76 L85,145.755 Z M95.693,121.536 L130.996,121.536 L130.263,119.313 L96.474,119.313 L95.693,121.536 Z M139.15,145.755 L141.787,145.755 L114.638,76 L113.466,76 L113.466,79.287 L139.15,145.755 Z" stroke="none" transform="translate(0,200)" />
        <path id="Baseline-S" d="M18,146 l800,0" />
        <path id="left-margin-Ultralight-M" d="M230,256 l0,110" />
        <path id="right-margin-Ultralight-M" d="M300,256 l0,110" />
        <path id="left-margin-Regular-M" d="M430,256 l0,110" />
        <path id="right-margin-Regular-M" d="M500,256 l0,110" />
        <path id="left-margin-Black-M" d="M630,256 l0,110" />
        <path id="right-margin-Black-M" d="M700,256 l0,110" />
        <path id="Capline-M" d="M18,276 l800,0" />
        <path id="Baseline-M" d="M18,346 l800,0" />
        <path id="Capline-L" d="M18,476 l800,0" />
        <path id="Baseline-L" d="M18,546 l800,0" />
    </g>
    <g id="Symbols">
        <g id="Ultralight-M" transform="translate(0,200)">
            <path d="M268.28,87.692 L247.207,91.907 C246.496,92.048 246.242,92.101 245.918,92.178 C245.13,92.366 244.526,92.585 243.919,92.952 C243.09,93.446 242.369,94.138 241.83,94.964 C241.272,95.819 241.116,96.319 240.663,98.194 L230.091,141.996 C229.67,143.737 230.741,145.489 232.482,145.909 C234.223,146.33 235.975,145.259 236.395,143.518 L246.968,99.717 C247.214,98.698 247.283,98.476 247.26,98.51 C247.26,98.511 247.26,98.511 247.26,98.511 C247.214,98.539 247.233,98.532 247.425,98.486 C247.634,98.436 247.851,98.392 248.474,98.268 L269.552,94.051 C271.308,93.7 272.447,91.992 272.096,90.235 C271.745,88.479 270.036,87.34 268.28,87.692 Z M234.004,145.909 L277.807,135.338 C278.63,135.139 278.893,135.073 279.251,134.966 C279.945,134.76 280.503,134.524 281.05,134.163 C281.864,133.631 282.556,132.91 283.062,132.063 C283.584,131.183 283.726,130.657 284.096,128.789 L288.311,107.722 C288.662,105.966 287.523,104.257 285.767,103.906 C284.011,103.555 282.302,104.693 281.951,106.45 L277.735,127.522 C277.531,128.549 277.471,128.775 277.489,128.745 C277.491,128.741 277.491,128.741 277.491,128.741 C277.539,128.709 277.539,128.709 277.406,128.749 C277.199,128.81 276.978,128.866 276.284,129.033 L232.482,139.605 C230.741,140.025 229.67,141.777 230.091,143.518 C230.511,145.259 232.263,146.33 234.004,145.909 Z M235.536,145.05 L260.138,120.45 C261.404,119.184 261.404,117.13 260.138,115.864 C258.871,114.597 256.818,114.597 255.551,115.864 L230.95,140.464 C229.683,141.731 229.683,143.784 230.95,145.05 C232.216,146.317 234.27,146.317 235.536,145.05 Z M296.728,94.636 L281.359,79.274 C279.594,77.51 279.126,77.092 278.097,76.596 C277.871,76.487 277.64,76.394 277.402,76.317 C276.1,75.894 274.697,75.894 273.395,76.317 C273.158,76.394 272.927,76.487 272.701,76.596 C271.672,77.092 271.203,77.51 269.438,79.275 L267.046,81.663 C265.269,83.444 264.859,83.905 264.364,84.934 C264.256,85.159 264.163,85.389 264.087,85.626 C263.664,86.927 263.664,88.33 264.087,89.633 C264.164,89.869 264.257,90.1 264.366,90.326 C264.861,91.355 265.279,91.824 267.044,93.589 L282.41,108.951 C284.19,110.731 284.643,111.135 285.671,111.631 C285.897,111.741 286.129,111.834 286.368,111.912 C287.669,112.335 289.072,112.335 290.375,111.911 C290.622,111.83 290.852,111.737 291.077,111.628 C292.101,111.131 292.57,110.713 294.332,108.951 L296.724,106.562 C298.49,104.796 298.908,104.327 299.404,103.298 C299.513,103.072 299.606,102.841 299.683,102.603 C300.106,101.302 300.106,99.899 299.683,98.596 C299.605,98.356 299.509,98.118 299.397,97.886 C298.9,96.862 298.482,96.393 296.725,94.636 L294.432,96.929 L294.434,100.172 L294.437,100.172 C297.326,100.171 298.771,96.678 296.728,94.636 Z M292.143,99.223 L294.435,96.929 L294.434,93.686 L294.43,93.686 C291.542,93.688 290.096,97.18 292.139,99.222 C293.233,100.316 293.526,100.645 293.56,100.714 C293.543,100.68 293.527,100.639 293.512,100.595 C293.514,100.6 293.514,100.6 293.514,100.6 C293.528,100.558 293.544,100.518 293.56,100.483 C293.529,100.549 293.235,100.879 292.139,101.975 L289.747,104.363 C288.646,105.464 288.316,105.758 288.246,105.792 C288.279,105.776 288.318,105.761 288.36,105.747 C288.371,105.743 288.371,105.743 288.371,105.743 C288.414,105.757 288.455,105.774 288.49,105.79 C288.426,105.759 288.1,105.469 286.996,104.365 L271.631,89.003 C270.535,87.907 270.241,87.578 270.209,87.512 C270.226,87.546 270.242,87.586 270.256,87.63 C270.256,87.629 270.256,87.629 270.256,87.629 C270.242,87.671 270.226,87.711 270.209,87.745 C270.241,87.679 270.533,87.351 271.634,86.248 L274.023,83.862 C275.12,82.765 275.45,82.471 275.515,82.439 C275.481,82.456 275.441,82.472 275.398,82.486 C275.399,82.486 275.399,82.486 275.399,82.486 C275.356,82.472 275.316,82.456 275.282,82.439 C275.348,82.471 275.677,82.765 276.773,83.861 L292.143,99.223 Z M262.43,110.329 C264.221,110.329 265.673,111.781 265.673,113.571 C265.673,115.362 264.221,116.814 262.43,116.814 C260.639,116.814 259.187,115.362 259.187,113.571 C259.187,111.781 260.639,110.329 262.43,110.329 Z M262.43,103.843 C257.057,103.843 252.701,108.199 252.701,113.571 C252.701,118.944 257.057,123.3 262.43,123.3 C267.803,123.3 272.159,118.944 272.159,113.571 C272.159,108.199 267.803,103.843 262.43,103.843 Z" />
        </g>
        <g id="Regular-M" transform="translate(0,200)">
            <path d="M468.28,87.692 L447.207,91.907 C446.496,92.048 446.242,92.101 445.918,92.178 C445.13,92.366 444.526,92.585 443.919,92.952 C443.09,93.446 442.369,94.138 441.83,94.964 C441.272,95.819 441.116,96.319 440.663,98.194 L430.091,141.996 C429.67,143.737 430.741,145.489 432.482,145.909 C434.223,146.33 435.975,145.259 436.395,143.518 L446.968,99.717 C447.214,98.698 447.283,98.476 447.26,98.51 C447.26,98.511 447.26,98.511 447.26,98.511 C447.214,98.539 447.233,98.532 447.425,98.486 C447.634,98.436 447.851,98.392 448.474,98.268 L469.552,94.051 C471.308,93.7 472.447,91.992 472.096,90.235 C471.745,88.479 470.036,87.34 468.28,87.692 Z M434.004,145.909 L477.807,135.338 C478.63,135.139 478.893,135.073 479.251,134.966 C479.945,134.76 480.503,134.524 481.05,134.163 C481.864,133.631 482.556,132.91 483.062,132.063 C483.584,131.183 483.726,130.657 484.096,128.789 L488.311,107.722 C488.662,105.966 487.523,104.257 485.767,103.906 C484.011,103.555 482.302,104.693 481.951,106.45 L477.735,127.522 C477.531,128.549 477.471,128.775 477.489,128.745 C477.491,128.741 477.491,128.741 477.491,128.741 C477.539,128.709 477.539,128.709 477.406,128.749 C477.199,128.81 476.978,128.866 476.284,129.033 L432.482,139.605 C430.741,140.025 429.67,141.777 430.091,143.518 C430.511,145.259 432.263,146.33 434.004,145.909 Z M435.536,145.05 L460.138,120.45 C461.404,119.184 461.404,117.13 460.138,115.864 C458.871,114.597 456.818,114.597 455.551,115.864 L430.95,140.464 C429.683,141.731 429.683,143.784 430.95,145.05 C432.216,146.317 434.27,146.317 435.536,145.05 Z M496.728,94.636 L481.359,79.274 C479.594,77.51 479.126,77.092 478.097,76.596 C477.871,76.487 477.64,76.394 477.402,76.317 C476.1,75.894 474.697,75.894 473.395,76.317 C473.158,76.394 472.927,76.487 472.701,76.596 C471.672,77.092 471.203,77.51 469.438,79.275 L467.046,81.663 C465.269,83.444 464.859,83.905 464.364,84.934 C464.256,85.159 464.163,85.389 464.087,85.626 C463.664,86.927 463.664,88.33 464.087,89.633 C464.164,89.869 464.257,90.1 464.366,90.326 C464.861,91.355 465.279,91.824 467.044,93.589 L482.41,108.951 C484.19,110.731 484.643,111.135 485.671,111.631 C485.897,111.741 486.129,111.834 486.368,111.912 C487.669,112.335 489.072,112.335 490.375,111.911 C490.622,111.83 490.852,111.737 491.077,111.628 C492.101,111.131 492.57,110.713 494.332,108.951 L496.724,106.562 C498.49,104.796 498.908,104.327 499.404,103.298 C499.513,103.072 499.606,102.841 499.683,102.603 C500.106,101.302 500.106,99.899 499.683,98.596 C499.605,98.356 499.509,98.118 499.397,97.886 C498.9,96.862 498.482,96.393 496.725,94.636 L494.432,96.929 L494.434,100.172 L494.437,100.172 C497.326,100.171 498.771,96.678 496.728,94.636 Z M492.143,99.223 L494.435,96.929 L494.434,93.686 L494.43,93.686 C491.542,93.688 490.096,97.18 492.139,99.222 C493.233,100.316 493.526,100.645 493.56,100.714 C493.543,100.68 493.527,100.639 493.512,100.595 C493.514,100.6 493.514,100.6 493.514,100.6 C493.528,100.558 493.544,100.518 493.56,100.483 C493.529,100.549 493.235,100.879 492.139,101.975 L489.747,104.363 C488.646,105.464 488.316,105.758 488.246,105.792 C488.279,105.776 488.318,105.761 488.36,105.747 C488.371,105.743 488.371,105.743 488.371,105.743 C488.414,105.757 488.455,105.774 488.49,105.79 C488.426,105.759 488.1,105.469 486.996,104.365 L471.631,89.003 C470.535,87.907 470.241,87.578 470.209,87.512 C470.226,87.546 470.242,87.586 470.256,87.63 C470.256,87.629 470.256,87.629 470.256,87.629 C470.242,87.671 470.226,87.711 470.209,87.745 C470.241,87.679 470.533,87.351 471.634,86.248 L474.023,83.862 C475.12,82.765 475.45,82.471 475.515,82.439 C475.481,82.456 475.441,82.472 475.398,82.486 C475.399,82.486 475.399,82.486 475.399,82.486 C475.356,82.472 475.316,82.456 475.282,82.439 C475.348,82.471 475.677,82.765 476.773,83.861 L492.143,99.223 Z M462.43,110.329 C464.221,110.329 465.673,111.781 465.673,113.571 C465.673,115.362 464.221,116.814 462.43,116.814 C460.639,116.814 459.187,115.362 459.187,113.571 C459.187,111.781 460.639,110.329 462.43,110.329 Z M462.43,103.843 C457.057,103.843 452.701,108.199 452.701,113.571 C452.701,118.944 457.057,123.3 462.43,123.3 C467.803,123.3 472.159,118.944 472.159,113.571 C472.159,108.199 467.803,103.843 462.43,103.843 Z" />
        </g>
        <g id="Black-M" transform="translate(0,200)">
            <path d="M668.28,87.692 L647.207,91.907 C646.496,92.048 646.242,92.101 645.918,92.178 C645.13,92.366 644.526,92.585 643.919,92.952 C643.09,93.446 642.369,94.138 641.83,94.964 C641.272,95.819 641.116,96.319 640.663,98.194 L630.091,141.996 C629.67,143.737 630.741,145.489 632.482,145.909 C634.223,146.33 635.975,145.259 636.396,143.518 L646.968,99.717 C647.214,98.698 647.283,98.476 647.26,98.51 C647.26,98.511 647.26,98.511 647.26,98.511 C647.214,98.539 647.233,98.532 647.425,98.486 C647.634,98.436 647.851,98.392 648.474,98.268 L669.552,94.051 C671.308,93.7 672.447,91.992 672.096,90.235 C671.745,88.479 670.036,87.34 668.28,87.692 Z M634.004,145.909 L677.807,135.338 C678.63,135.139 678.893,135.073 679.251,134.966 C679.945,134.76 680.503,134.524 681.05,134.163 C681.864,133.631 682.556,132.91 683.062,132.063 C683.584,131.183 683.726,130.657 684.096,128.789 L688.311,107.722 C688.662,105.966 687.523,104.257 685.767,103.906 C684.011,103.555 682.302,104.693 681.951,106.45 L677.735,127.522 C677.531,128.549 677.471,128.775 677.489,128.745 C677.491,128.741 677.491,128.741 677.491,128.741 C677.539,128.709 677.539,128.709 677.406,128.749 C677.199,128.81 676.978,128.866 676.284,129.033 L632.482,139.605 C630.741,140.025 629.67,141.777 630.091,143.518 C630.511,145.259 632.263,146.33 634.004,145.909 Z M635.536,145.05 L660.138,120.45 C661.404,119.184 661.404,117.13 660.138,115.864 C658.871,114.597 656.818,114.597 655.551,115.864 L630.95,140.464 C629.683,141.731 629.683,143.784 630.95,145.05 C632.216,146.317 634.27,146.317 635.536,145.05 Z M696.728,94.636 L681.359,79.274 C679.594,77.51 679.126,77.092 678.097,76.596 C677.871,76.487 677.64,76.394 677.402,76.317 C676.1,75.894 674.697,75.894 673.395,76.317 C673.158,76.394 672.927,76.487 672.701,76.596 C671.672,77.092 671.203,77.51 669.438,79.275 L667.046,81.663 C665.269,83.444 664.859,83.905 664.364,84.934 C664.256,85.159 664.163,85.389 664.087,85.626 C663.664,86.927 663.664,88.33 664.087,89.633 C664.164,89.869 664.257,90.1 664.366,90.326 C664.861,91.355 665.279,91.824 667.044,93.589 L682.41,108.951 C684.19,110.731 684.643,111.135 685.671,111.631 C685.897,111.741 686.129,111.834 686.368,111.912 C687.669,112.335 689.072,112.335 690.375,111.911 C690.622,111.83 690.852,111.737 691.077,111.628 C692.101,111.131 692.57,110.713 694.332,108.951 L696.724,106.562 C698.49,104.796 698.908,104.327 699.404,103.298 C699.513,103.072 699.606,102.841 699.683,102.603 C700.106,101.302 700.106,99.899 699.683,98.596 C699.605,98.356 699.509,98.118 699.397,97.886 C698.9,96.862 698.482,96.393 696.725,94.636 L694.432,96.929 L694.434,100.172 L694.437,100.172 C697.326,100.171 698.771,96.678 696.728,94.636 Z M692.143,99.223 L694.435,96.929 L694.434,93.686 L694.43,93.686 C691.542,93.688 690.096,97.18 692.139,99.222 C693.233,100.316 693.526,100.645 693.56,100.714 C693.543,100.68 693.527,100.639 693.512,100.595 C693.514,100.6 693.514,100.6 693.514,100.6 C693.528,100.558 693.544,100.518 693.56,100.483 C693.529,100.549 693.235,100.879 692.139,101.975 L689.747,104.363 C688.646,105.464 688.316,105.758 688.246,105.792 C688.279,105.776 688.318,105.761 688.359,105.747 C688.371,105.743 688.371,105.743 688.371,105.743 C688.414,105.757 688.455,105.774 688.49,105.79 C688.426,105.759 688.1,105.469 686.996,104.365 L671.63,89.003 C670.535,87.907 670.241,87.578 670.209,87.512 C670.226,87.546 670.242,87.586 670.256,87.63 C670.256,87.629 670.256,87.629 670.256,87.629 C670.242,87.671 670.226,87.711 670.209,87.745 C670.241,87.679 670.533,87.351 671.634,86.248 L674.023,83.862 C675.12,82.765 675.45,82.471 675.515,82.439 C675.481,82.456 675.441,82.472 675.398,82.486 C675.399,82.486 675.399,82.486 675.399,82.486 C675.356,82.472 675.316,82.456 675.282,82.439 C675.348,82.471 675.677,82.765 676.773,83.861 L692.143,99.223 Z M662.43,110.329 C664.221,110.329 665.673,111.781 665.673,113.571 C665.673,115.362 664.221,116.814 662.43,116.814 C660.639,116.814 659.187,115.362 659.187,113.571 C659.187,111.781 660.639,110.329 662.43,110.329 Z M662.43,103.843 C657.057,103.843 652.701,108.199 652.701,113.571 C652.701,118.944 657.057,123.3 662.43,123.3 C667.803,123.3 672.159,118.944 672.159,113.571 C672.159,108.199 667.803,103.843 662.43,103.843 Z" />
        </g>
    </g>
</svg>