<?xml version="1.0" encoding="UTF-8"?>
<svg height="600" width="800" xmlns="http://www.w3.org/2000/svg" xmlns:xlink="http://www.w3.org/1999/xlink">
    <g id="Notes" font-family="LucidaGrande, 'Lucida Grande', sans-serif" font-size="13">
        <rect fill="white" height="600.0" width="800.0" x="0.0" y="0.0" />
        <g font-size="13">
            <text x="18.0" y="176.0">Small</text>
            <text x="18.0" y="376.0">Medium</text>
            <text x="18.0" y="576.0">Large</text>
        </g>
        <g font-size="9">
            <text x="250.0" y="30.0">Ultralight</text>
            <text x="450.0" y="30.0">Regular</text>
            <text x="650.0" y="30.0">Black</text>
            <text id="template-version" fill="#505050" text-anchor="end" x="785.0" y="575.0">Template v.3.0</text>
            <a href="https://github.com/swhitty/SwiftDraw">
                <text fill="#505050" text-anchor="end" x="785.0" y="590.0">https://github.com/swhitty/SwiftDraw</text>
            </a>
        </g>
    </g>
    <g id="Guides" stroke="rgb(39, 170, 225)" stroke-width="0.5">
        <path id="Capline-S" d="M18,76 l800,0" />
        <path id="H-reference" d="M85,145.755 L87.685,145.755 L113.369,79.287 L114.052,79.287 L114.052,76 L112.148,76 L85,145.755 Z M95.693,121.536 L130.996,121.536 L130.263,119.313 L96.474,119.313 L95.693,121.536 Z M139.15,145.755 L141.787,145.755 L114.638,76 L113.466,76 L113.466,79.287 L139.15,145.755 Z" stroke="none" transform="translate(0,200)" />
        <path id="Baseline-S" d="M18,146 l800,0" />
        <path id="left-margin-Ultralight-M" d="M226.5,256 l0,110" />
        <path id="right-margin-Ultralight-M" d="M303.5,256 l0,110" />
        <path id="left-margin-Regular-M" d="M426.5,256 l0,110" />
        <path id="right-margin-Regular-M" d="M503.5,256 l0,110" />
        <path id="left-margin-Black-M" d="M626.5,256 l0,110" />
        <path id="right-margin-Black-M" d="M703.5,256 l0,110" />
        <path id="Capline-M" d="M18,276 l800,0" />
        <path id="Baseline-M" d="M18,346 l800,0" />
        <path id="Capline-L" d="M18,476 l800,0" />
        <path id="Baseline-L" d="M18,546 l800,0" />
    </g>
    <g id="Symbols">
        <g id="Ultralight-M" transform="translate(0,200)">
            <path d="M229.909,88.194 L250.365,88.194 C252.248,88.194 253.775,86.671 253.775,84.793 C253.775,82.915 252.248,81.393 250.365,81.393 L229.909,81.393 C228.026,81.393 226.5,82.915 226.5,84.793 C226.5,86.671 228.026,88.194 229.909,88.194 Z M273.295,88.324 L252.273,94.309 C251.36,94.572 251.139,94.639 250.768,94.772 C250.246,94.959 249.799,95.169 249.362,95.453 C248.604,95.943 247.951,96.581 247.441,97.328 C246.912,98.114 246.739,98.579 246.236,100.219 L233.469,141.6 C232.916,143.395 233.926,145.297 235.725,145.85 C237.525,146.402 239.433,145.395 239.987,143.6 L252.755,102.214 C253.032,101.309 253.103,101.118 253.09,101.138 C253.078,101.155 253.078,101.155 253.078,101.155 C253.03,101.186 253.014,101.193 253.074,101.172 C253.248,101.109 253.434,101.054 254.157,100.845 L275.167,94.864 C276.977,94.348 278.026,92.466 277.509,90.661 C276.993,88.855 275.106,87.809 273.295,88.324 Z M237.731,145.85 L279.223,133.115 C280.861,132.615 281.328,132.443 282.099,131.926 C282.864,131.406 283.504,130.754 283.997,129.997 C284.284,129.557 284.497,129.105 284.686,128.576 C284.818,128.205 284.893,127.953 285.14,127.092 L291.146,106.13 C291.664,104.324 290.616,102.442 288.805,101.926 C286.995,101.41 285.108,102.455 284.59,104.261 L278.583,125.224 C278.385,125.917 278.324,126.122 278.262,126.296 C278.24,126.358 278.247,126.341 278.281,126.29 C278.279,126.292 278.279,126.292 278.279,126.292 C278.316,126.267 278.124,126.339 277.223,126.614 L235.725,139.35 C233.926,139.902 232.916,141.805 233.469,143.6 C234.023,145.395 235.931,146.402 237.731,145.85 Z M239.139,145.004 L261.593,122.609 C262.924,121.281 262.924,119.128 261.593,117.8 C260.261,116.472 258.103,116.472 256.771,117.8 L234.317,140.195 C232.986,141.523 232.986,143.676 234.317,145.004 C235.649,146.332 237.807,146.332 239.139,145.004 Z M300.06,92.14 L287.312,79.433 C285.457,77.583 284.964,77.145 283.882,76.625 C283.645,76.511 283.402,76.413 283.152,76.332 C281.784,75.889 280.309,75.889 278.939,76.333 C278.69,76.413 278.447,76.511 278.21,76.625 C277.128,77.145 276.635,77.583 274.779,79.434 L272.265,81.938 C270.104,84.093 269.619,84.665 269.154,86.093 C268.709,87.458 268.709,88.929 269.154,90.295 C269.235,90.543 269.333,90.785 269.447,91.022 C269.968,92.101 270.408,92.593 272.263,94.444 L285.008,107.151 C286.879,109.018 287.355,109.442 288.435,109.962 C288.674,110.077 288.918,110.175 289.168,110.256 C290.537,110.699 292.012,110.699 293.381,110.255 C293.641,110.17 293.883,110.072 294.119,109.958 C295.196,109.437 295.688,108.999 297.541,107.151 L300.055,104.647 C301.913,102.794 302.352,102.302 302.873,101.223 C302.988,100.987 303.086,100.744 303.167,100.495 C303.611,99.13 303.611,97.659 303.166,96.293 C303.085,96.042 302.984,95.792 302.866,95.549 C302.344,94.475 301.904,93.983 300.057,92.141 L297.646,94.545 L297.648,97.946 L297.651,97.946 C300.688,97.944 302.208,94.282 300.06,92.14 Z M295.24,96.951 L297.65,94.545 L297.648,91.145 L297.645,91.145 C294.608,91.147 293.088,94.808 295.236,96.95 C296.386,98.097 296.694,98.442 296.729,98.514 C296.712,98.478 296.695,98.436 296.68,98.39 C296.681,98.395 296.681,98.395 296.681,98.395 C296.696,98.35 296.713,98.308 296.73,98.272 C296.697,98.341 296.388,98.687 295.236,99.836 L292.721,102.341 C291.564,103.495 291.217,103.803 291.143,103.839 C291.178,103.822 291.218,103.806 291.262,103.791 C291.274,103.787 291.274,103.787 291.274,103.787 C291.32,103.802 291.363,103.819 291.399,103.837 C291.332,103.805 290.99,103.5 289.829,102.342 L277.085,89.635 C275.932,88.486 275.624,88.14 275.59,88.071 C275.608,88.107 275.625,88.149 275.64,88.195 C275.639,88.194 275.639,88.194 275.639,88.194 C275.617,88.261 275.888,87.943 277.085,86.749 L279.599,84.244 C280.753,83.093 281.1,82.785 281.169,82.752 C281.133,82.769 281.091,82.786 281.045,82.801 C281.046,82.801 281.046,82.801 281.046,82.801 C281.002,82.786 280.96,82.769 280.924,82.752 C280.992,82.785 281.339,83.093 282.491,84.243 L295.24,96.951 Z M264.003,111.996 C265.886,111.996 267.412,113.519 267.412,115.397 C267.412,117.275 265.886,118.797 264.003,118.797 C262.12,118.797 260.594,117.275 260.594,115.397 C260.594,113.519 262.12,111.996 264.003,111.996 Z M264.003,105.195 C258.354,105.195 253.775,109.763 253.775,115.397 C253.775,121.031 258.354,125.598 264.003,125.598 C269.652,125.598 274.231,121.031 274.231,115.397 C274.231,109.763 269.652,105.195 264.003,105.195 Z" />
        </g>
        <g id="Regular-M" transform="translate(0,200)">
            <path d="M429.909,88.194 L450.365,88.194 C452.248,88.194 453.775,86.671 453.775,84.793 C453.775,82.915 452.248,81.393 450.365,81.393 L429.909,81.393 C428.026,81.393 426.5,82.915 426.5,84.793 C426.5,86.671 428.026,88.194 429.909,88.194 Z M473.295,88.324 L452.273,94.309 C451.36,94.572 451.139,94.639 450.768,94.772 C450.246,94.959 449.799,95.169 449.362,95.453 C448.604,95.943 447.951,96.581 447.441,97.328 C446.912,98.114 446.739,98.579 446.236,100.219 L433.469,141.6 C432.916,143.395 433.926,145.297 435.725,145.85 C437.525,146.402 439.433,145.395 439.987,143.6 L452.755,102.214 C453.032,101.309 453.103,101.118 453.09,101.138 C453.078,101.155 453.078,101.155 453.078,101.155 C453.03,101.186 453.014,101.193 453.074,101.172 C453.248,101.109 453.434,101.054 454.157,100.845 L475.167,94.864 C476.977,94.348 478.026,92.466 477.509,90.661 C476.993,88.855 475.106,87.809 473.295,88.324 Z M437.731,145.85 L479.223,133.115 C480.861,132.615 481.328,132.443 482.099,131.926 C482.864,131.406 483.504,130.754 483.997,129.997 C484.284,129.557 484.497,129.105 484.686,128.576 C484.818,128.205 484.893,127.953 485.14,127.092 L491.146,106.13 C491.664,104.324 490.616,102.442 488.805,101.926 C486.995,101.41 485.108,102.455 484.59,104.261 L478.583,125.224 C478.385,125.917 478.324,126.122 478.262,126.296 C478.24,126.358 478.247,126.341 478.281,126.29 C478.279,126.292 478.279,126.292 478.279,126.292 C478.316,126.267 478.124,126.339 477.223,126.614 L435.725,139.35 C433.926,139.902 432.916,141.805 433.469,143.6 C434.023,145.395 435.931,146.402 437.731,145.85 Z M439.139,145.004 L461.593,122.609 C462.924,121.281 462.924,119.128 461.593,117.8 C460.261,116.472 458.103,116.472 456.771,117.8 L434.317,140.195 C432.986,141.523 432.986,143.676 434.317,145.004 C435.649,146.332 437.807,146.332 439.139,145.004 Z M500.06,92.14 L487.312,79.433 C485.457,77.583 484.964,77.145 483.882,76.625 C483.645,76.511 483.402,76.413 483.152,76.332 C481.784,75.889 480.309,75.889 478.939,76.333 C478.69,76.413 478.447,76.511 478.21,76.625 C477.128,77.145 476.635,77.583 474.779,79.434 L472.265,81.938 C470.104,84.093 469.619,84.665 469.154,86.093 C468.709,87.458 468.709,88.929 469.154,90.295 C469.235,90.543 469.333,90.785 469.447,91.022 C469.968,92.101 470.408,92.593 472.263,94.444 L485.008,107.151 C486.879,109.018 487.355,109.442 488.435,109.962 C488.674,110.077 488.918,110.175 489.168,110.256 C490.537,110.699 492.012,110.699 493.381,110.255 C493.641,110.17 493.883,110.072 494.119,109.958 C495.196,109.437 495.688,108.999 497.541,107.151 L500.055,104.647 C501.913,102.794 502.352,102.302 502.873,101.223 C502.988,100.987 503.086,100.744 503.167,100.495 C503.611,99.13 503.611,97.659 503.166,96.293 C503.085,96.042 502.984,95.792 502.866,95.549 C502.344,94.475 501.904,93.983 500.057,92.141 L497.646,94.545 L497.648,97.946 L497.651,97.946 C500.688,97.944 502.208,94.282 500.06,92.14 Z M495.24,96.951 L497.65,94.545 L497.648,91.145 L497.645,91.145 C494.608,91.147 493.088,94.808 495.236,96.95 C496.386,98.097 496.694,98.442 496.729,98.514 C496.712,98.478 496.695,98.436 496.68,98.39 C496.681,98.395 496.681,98.395 496.681,98.395 C496.696,98.35 496.713,98.308 496.73,98.272 C496.697,98.341 496.388,98.687 495.236,99.836 L492.721,102.341 C491.564,103.495 491.217,103.803 491.143,103.839 C491.178,103.822 491.218,103.806 491.262,103.791 C491.274,103.787 491.274,103.787 491.274,103.787 C491.32,103.802 491.363,103.819 491.399,103.837 C491.332,103.805 490.99,103.5 489.829,102.342 L477.085,89.635 C475.932,88.486 475.624,88.14 475.59,88.071 C475.608,88.107 475.625,88.149 475.64,88.195 C475.639,88.194 475.639,88.194 475.639,88.194 C475.617,88.261 475.888,87.943 477.085,86.749 L479.599,84.244 C480.753,83.093 481.1,82.785 481.169,82.752 C481.133,82.769 481.091,82.786 481.045,82.801 C481.046,82.801 481.046,82.801 481.046,82.801 C481.002,82.786 480.96,82.769 480.924,82.752 C480.992,82.785 481.339,83.093 482.491,84.243 L495.24,96.951 Z M464.003,111.996 C465.886,111.996 467.412,113.519 467.412,115.397 C467.412,117.275 465.886,118.797 464.003,118.797 C462.12,118.797 460.594,117.275 460.594,115.397 C460.594,113.519 462.12,111.996 464.003,111.996 Z M464.003,105.195 C458.354,105.195 453.775,109.763 453.775,115.397 C453.775,121.031 458.354,125.598 464.003,125.598 C469.652,125.598 474.231,121.031 474.231,115.397 C474.231,109.763 469.652,105.195 464.003,105.195 Z" />
        </g>
        <g id="Black-M" transform="translate(0,200)">
            <path d="M629.909,88.194 L650.365,88.194 C652.248,88.194 653.775,86.671 653.775,84.793 C653.775,82.915 652.248,81.393 650.365,81.393 L629.909,81.393 C628.026,81.393 626.5,82.915 626.5,84.793 C626.5,86.671 628.026,88.194 629.909,88.194 Z M673.295,88.324 L652.273,94.309 C651.36,94.572 651.139,94.639 650.768,94.772 C650.246,94.959 649.799,95.169 649.362,95.453 C648.604,95.943 647.951,96.581 647.441,97.328 C646.912,98.114 646.739,98.579 646.236,100.219 L633.469,141.6 C632.916,143.395 633.926,145.297 635.725,145.85 C637.525,146.402 639.433,145.395 639.987,143.6 L652.755,102.214 C653.032,101.309 653.103,101.118 653.09,101.138 C653.078,101.155 653.078,101.155 653.078,101.155 C653.03,101.186 653.014,101.193 653.074,101.172 C653.248,101.109 653.434,101.054 654.157,100.845 L675.167,94.864 C676.977,94.348 678.026,92.466 677.509,90.661 C676.993,88.855 675.106,87.809 673.295,88.324 Z M637.731,145.85 L679.223,133.115 C680.861,132.615 681.328,132.443 682.099,131.926 C682.864,131.406 683.504,130.754 683.997,129.997 C684.284,129.557 684.497,129.105 684.686,128.576 C684.818,128.205 684.893,127.953 685.14,127.092 L691.146,106.13 C691.664,104.324 690.616,102.442 688.805,101.926 C686.995,101.41 685.108,102.455 684.59,104.261 L678.583,125.224 C678.385,125.917 678.324,126.122 678.262,126.296 C678.24,126.358 678.247,126.341 678.281,126.29 C678.279,126.292 678.279,126.292 678.279,126.292 C678.316,126.267 678.124,126.339 677.223,126.614 L635.725,139.35 C633.926,139.902 632.916,141.805 633.469,143.6 C634.023,145.395 635.931,146.402 637.731,145.85 Z M639.139,145.004 L661.593,122.609 C662.924,121.281 662.924,119.128 661.593,117.8 C660.261,116.472 658.103,116.472 656.771,117.8 L634.317,140.195 C632.986,141.523 632.986,143.676 634.317,145.004 C635.649,146.332 637.807,146.332 639.139,145.004 Z M700.06,92.14 L687.312,79.433 C685.457,77.583 684.964,77.145 683.882,76.625 C683.645,76.511 683.402,76.413 683.152,76.332 C681.784,75.889 680.309,75.889 678.939,76.333 C678.69,76.413 678.447,76.511 678.21,76.625 C677.128,77.145 676.635,77.583 674.779,79.434 L672.265,81.938 C670.104,84.093 669.619,84.665 669.154,86.093 C668.709,87.458 668.709,88.929 669.154,90.295 C669.235,90.543 669.333,90.785 669.447,91.022 C669.968,92.101 670.408,92.593 672.263,94.444 L685.008,107.151 C686.879,109.018 687.355,109.442 688.435,109.962 C688.674,110.077 688.918,110.175 689.168,110.256 C690.537,110.699 692.012,110.699 693.381,110.255 C693.641,110.17 693.883,110.072 694.119,109.958 C695.196,109.437 695.688,108.999 697.541,107.151 L700.055,104.647 C701.913,102.794 702.352,102.302 702.873,101.223 C702.988,100.987 703.086,100.744 703.167,100.495 C703.611,99.13 703.611,97.659 703.166,96.293 C703.085,96.042 702.984,95.792 702.866,95.549 C702.344,94.475 701.904,93.983 700.057,92.141 L697.646,94.545 L697.648,97.946 L697.651,97.946 C700.688,97.944 702.208,94.282 700.06,92.14 Z M695.24,96.951 L697.65,94.545 L697.648,91.145 L697.645,91.145 C694.608,91.147 693.088,94.808 695.236,96.95 C696.386,98.097 696.694,98.442 696.729,98.514 C696.712,98.478 696.695,98.436 696.68,98.39 C696.681,98.395 696.681,98.395 696.681,98.395 C696.696,98.35 696.713,98.308 696.73,98.272 C696.697,98.341 696.388,98.687 695.236,99.836 L692.721,102.341 C691.564,103.495 691.217,103.803 691.143,103.839 C691.178,103.822 691.218,103.806 691.262,103.791 C691.274,103.787 691.274,103.787 691.274,103.787 C691.32,103.802 691.363,103.819 691.399,103.837 C691.332,103.805 690.99,103.5 689.829,102.342 L677.085,89.635 C675.932,88.486 675.624,88.14 675.59,88.071 C675.608,88.107 675.625,88.149 675.64,88.195 C675.639,88.194 675.639,88.194 675.639,88.194 C675.617,88.261 675.888,87.943 677.085,86.749 L679.599,84.244 C680.753,83.093 681.1,82.785 681.169,82.752 C681.133,82.769 681.091,82.786 681.045,82.801 C681.046,82.801 681.046,82.801 681.046,82.801 C681.002,82.786 680.96,82.769 680.924,82.752 C680.992,82.785 681.339,83.093 682.491,84.243 L695.24,96.951 Z M664.003,111.996 C665.886,111.996 667.412,113.519 667.412,115.397 C667.412,117.275 665.886,118.797 664.003,118.797 C662.12,118.797 660.594,117.275 660.594,115.397 C660.594,113.519 662.12,111.996 664.003,111.996 Z M664.003,105.195 C658.354,105.195 653.775,109.763 653.775,115.397 C653.775,121.031 658.354,125.598 664.003,125.598 C669.652,125.598 674.231,121.031 674.231,115.397 C674.231,109.763 669.652,105.195 664.003,105.195 Z" />
        </g>
    </g>
</svg>