<?xml version="1.0" encoding="UTF-8"?>
<svg height="600" width="800" xmlns="http://www.w3.org/2000/svg" xmlns:xlink="http://www.w3.org/1999/xlink">
    <g id="Notes" font-family="LucidaGrande, 'Lucida Grande', sans-serif" font-size="13">
        <rect fill="white" height="600.0" width="800.0" x="0.0" y="0.0" />
        <g font-size="13">
            <text x="18.0" y="176.0">Small</text>
            <text x="18.0" y="376.0">Medium</text>
            <text x="18.0" y="576.0">Large</text>
        </g>
        <g font-size="9">
            <text x="250.0" y="30.0">Ultralight</text>
            <text x="450.0" y="30.0">Regular</text>
            <text x="650.0" y="30.0">Black</text>
            <text id="template-version" fill="#505050" text-anchor="end" x="785.0" y="575.0">Template v.3.0</text>
            <a href="https://github.com/swhitty/SwiftDraw">
                <text fill="#505050" text-anchor="end" x="785.0" y="590.0">https://github.com/swhitty/SwiftDraw</text>
            </a>
        </g>
    </g>
    <g id="Guides" stroke="rgb(39, 170, 225)" stroke-width="0.5">
        <path id="Capline-S" d="M18,76 l800,0" />
        <path id="H-reference" d="M85,145.755 L87.685,145.755 L113.369,79.287 L114.052,79.287 L114.052,76 L112.148,76 L85,145.755 Z M95.693,121.536 L130.996,121.536 L130.263,119.313 L96.474,119.313 L95.693,121.536 Z M139.15,145.755 L141.787,145.755 L114.638,76 L113.466,76 L113.466,79.287 L139.15,145.755 Z" stroke="none" transform="translate(0,200)" />
        <path id="Baseline-S" d="M18,146 l800,0" />
        <path id="left-margin-Ultralight-M" d="M230,256 l0,110" />
        <path id="right-margin-Ultralight-M" d="M300,256 l0,110" />
        <path id="left-margin-Regular-M" d="M430,256 l0,110" />
        <path id="right-margin-Regular-M" d="M500,256 l0,110" />
        <path id="left-margin-Black-M" d="M630,256 l0,110" />
        <path id="right-margin-Black-M" d="M700,256 l0,110" />
        <path id="Capline-M" d="M18,276 l800,0" />
        <path id="Baseline-M" d="M18,346 l800,0" />
        <path id="Capline-L" d="M18,476 l800,0" />
        <path id="Baseline-L" d="M18,546 l800,0" />
    </g>
    <g id="Symbols">
        <g id="Ultralight-M" transform="translate(0,200)">
            <path d="M256.25,105.167 L256.279,105.167 C257.89,105.167 259.196,103.861 259.196,102.25 C259.196,100.639 257.89,99.333 256.279,99.333 L256.25,99.333 C254.639,99.333 253.333,100.639 253.333,102.25 C253.333,103.861 254.639,105.167 256.25,105.167 Z M273.75,122.667 L273.779,122.667 C275.39,122.667 276.696,121.361 276.696,119.75 C276.696,118.139 275.39,116.833 273.779,116.833 L273.75,116.833 C272.139,116.833 270.833,118.139 270.833,119.75 C270.833,121.361 272.139,122.667 273.75,122.667 Z M274.604,97.271 L251.271,120.604 C250.132,121.743 250.132,123.59 251.271,124.729 C252.41,125.868 254.257,125.868 255.396,124.729 L278.729,101.396 C279.868,100.257 279.868,98.41 278.729,97.271 C277.59,96.132 275.743,96.132 274.604,97.271 Z M254.792,102.25 C254.792,101.445 255.445,100.792 256.25,100.792 C257.055,100.792 257.708,101.445 257.708,102.25 C257.708,103.055 257.055,103.708 256.25,103.708 C255.445,103.708 254.792,103.055 254.792,102.25 Z M260.625,102.25 C260.625,99.834 258.666,97.875 256.25,97.875 C253.834,97.875 251.875,99.834 251.875,102.25 C251.875,104.666 253.834,106.625 256.25,106.625 C258.666,106.625 260.625,104.666 260.625,102.25 Z M272.292,119.75 C272.292,118.945 272.945,118.292 273.75,118.292 C274.555,118.292 275.208,118.945 275.208,119.75 C275.208,120.555 274.555,121.208 273.75,121.208 C272.945,121.208 272.292,120.555 272.292,119.75 Z M278.125,119.75 C278.125,117.334 276.166,115.375 273.75,115.375 C271.334,115.375 269.375,117.334 269.375,119.75 C269.375,122.166 271.334,124.125 273.75,124.125 C276.166,124.125 278.125,122.166 278.125,119.75 Z M291.25,111 C291.25,125.498 279.498,137.25 265,137.25 C250.502,137.25 238.75,125.498 238.75,111 C238.75,96.502 250.502,84.75 265,84.75 C279.498,84.75 291.25,96.502 291.25,111 Z M297.083,111 C297.083,93.28 282.72,78.917 265,78.917 C247.28,78.917 232.917,93.28 232.917,111 C232.917,128.72 247.28,143.083 265,143.083 C282.72,143.083 297.083,128.72 297.083,111 Z" />
        </g>
        <g id="Regular-M" transform="translate(0,200)">
            <path d="M456.25,105.167 L456.279,105.167 C457.89,105.167 459.196,103.861 459.196,102.25 C459.196,100.639 457.89,99.333 456.279,99.333 L456.25,99.333 C454.639,99.333 453.333,100.639 453.333,102.25 C453.333,103.861 454.639,105.167 456.25,105.167 Z M473.75,122.667 L473.779,122.667 C475.39,122.667 476.696,121.361 476.696,119.75 C476.696,118.139 475.39,116.833 473.779,116.833 L473.75,116.833 C472.139,116.833 470.833,118.139 470.833,119.75 C470.833,121.361 472.139,122.667 473.75,122.667 Z M474.604,97.271 L451.271,120.604 C450.132,121.743 450.132,123.59 451.271,124.729 C452.41,125.868 454.257,125.868 455.396,124.729 L478.729,101.396 C479.868,100.257 479.868,98.41 478.729,97.271 C477.59,96.132 475.743,96.132 474.604,97.271 Z M454.792,102.25 C454.792,101.445 455.445,100.792 456.25,100.792 C457.055,100.792 457.708,101.445 457.708,102.25 C457.708,103.055 457.055,103.708 456.25,103.708 C455.445,103.708 454.792,103.055 454.792,102.25 Z M460.625,102.25 C460.625,99.834 458.666,97.875 456.25,97.875 C453.834,97.875 451.875,99.834 451.875,102.25 C451.875,104.666 453.834,106.625 456.25,106.625 C458.666,106.625 460.625,104.666 460.625,102.25 Z M472.292,119.75 C472.292,118.945 472.945,118.292 473.75,118.292 C474.555,118.292 475.208,118.945 475.208,119.75 C475.208,120.555 474.555,121.208 473.75,121.208 C472.945,121.208 472.292,120.555 472.292,119.75 Z M478.125,119.75 C478.125,117.334 476.166,115.375 473.75,115.375 C471.334,115.375 469.375,117.334 469.375,119.75 C469.375,122.166 471.334,124.125 473.75,124.125 C476.166,124.125 478.125,122.166 478.125,119.75 Z M491.25,111 C491.25,125.498 479.498,137.25 465,137.25 C450.502,137.25 438.75,125.498 438.75,111 C438.75,96.502 450.502,84.75 465,84.75 C479.498,84.75 491.25,96.502 491.25,111 Z M497.083,111 C497.083,93.28 482.72,78.917 465,78.917 C447.28,78.917 432.917,93.28 432.917,111 C432.917,128.72 447.28,143.083 465,143.083 C482.72,143.083 497.083,128.72 497.083,111 Z" />
        </g>
        <g id="Black-M" transform="translate(0,200)">
            <path d="M656.25,105.167 L656.279,105.167 C657.89,105.167 659.196,103.861 659.196,102.25 C659.196,100.639 657.89,99.333 656.279,99.333 L656.25,99.333 C654.639,99.333 653.333,100.639 653.333,102.25 C653.333,103.861 654.639,105.167 656.25,105.167 Z M673.75,122.667 L673.779,122.667 C675.39,122.667 676.696,121.361 676.696,119.75 C676.696,118.139 675.39,116.833 673.779,116.833 L673.75,116.833 C672.139,116.833 670.833,118.139 670.833,119.75 C670.833,121.361 672.139,122.667 673.75,122.667 Z M674.604,97.271 L651.271,120.604 C650.132,121.743 650.132,123.59 651.271,124.729 C652.41,125.868 654.257,125.868 655.396,124.729 L678.729,101.396 C679.868,100.257 679.868,98.41 678.729,97.271 C677.59,96.132 675.743,96.132 674.604,97.271 Z M654.792,102.25 C654.792,101.445 655.445,100.792 656.25,100.792 C657.055,100.792 657.708,101.445 657.708,102.25 C657.708,103.055 657.055,103.708 656.25,103.708 C655.445,103.708 654.792,103.055 654.792,102.25 Z M660.625,102.25 C660.625,99.834 658.666,97.875 656.25,97.875 C653.834,97.875 651.875,99.834 651.875,102.25 C651.875,104.666 653.834,106.625 656.25,106.625 C658.666,106.625 660.625,104.666 660.625,102.25 Z M672.292,119.75 C672.292,118.945 672.945,118.292 673.75,118.292 C674.555,118.292 675.208,118.945 675.208,119.75 C675.208,120.555 674.555,121.208 673.75,121.208 C672.945,121.208 672.292,120.555 672.292,119.75 Z M678.125,119.75 C678.125,117.334 676.166,115.375 673.75,115.375 C671.334,115.375 669.375,117.334 669.375,119.75 C669.375,122.166 671.334,124.125 673.75,124.125 C676.166,124.125 678.125,122.166 678.125,119.75 Z M691.25,111 C691.25,125.498 679.498,137.25 665,137.25 C650.502,137.25 638.75,125.498 638.75,111 C638.75,96.502 650.502,84.75 665,84.75 C679.498,84.75 691.25,96.502 691.25,111 Z M697.083,111 C697.083,93.28 682.72,78.917 665,78.917 C647.28,78.917 632.917,93.28 632.917,111 C632.917,128.72 647.28,143.083 665,143.083 C682.72,143.083 697.083,128.72 697.083,111 Z" />
        </g>
    </g>
</svg>