<?xml version="1.0" encoding="UTF-8"?>
<svg height="600" width="800" xmlns="http://www.w3.org/2000/svg" xmlns:xlink="http://www.w3.org/1999/xlink">
    <g id="Notes" font-family="LucidaGrande, 'Lucida Grande', sans-serif" font-size="13">
        <rect fill="white" height="600.0" width="800.0" x="0.0" y="0.0" />
        <g font-size="13">
            <text x="18.0" y="176.0">Small</text>
            <text x="18.0" y="376.0">Medium</text>
            <text x="18.0" y="576.0">Large</text>
        </g>
        <g font-size="9">
            <text x="250.0" y="30.0">Ultralight</text>
            <text x="450.0" y="30.0">Regular</text>
            <text x="650.0" y="30.0">Black</text>
            <text id="template-version" fill="#505050" text-anchor="end" x="785.0" y="575.0">Template v.3.0</text>
            <a href="https://github.com/swhitty/SwiftDraw">
                <text fill="#505050" text-anchor="end" x="785.0" y="590.0">https://github.com/swhitty/SwiftDraw</text>
            </a>
        </g>
    </g>
    <g id="Guides" stroke="rgb(39, 170, 225)" stroke-width="0.5">
        <path id="Capline-S" d="M18,76 l800,0" />
        <path id="H-reference" d="M85,145.755 L87.685,145.755 L113.369,79.287 L114.052,79.287 L114.052,76 L112.148,76 L85,145.755 Z M95.693,121.536 L130.996,121.536 L130.263,119.313 L96.474,119.313 L95.693,121.536 Z M139.15,145.755 L141.787,145.755 L114.638,76 L113.466,76 L113.466,79.287 L139.15,145.755 Z" stroke="none" transform="translate(0,200)" />
        <path id="Baseline-S" d="M18,146 l800,0" />
        <path id="left-margin-Ultralight-M" d="M230,256 l0,110" />
        <path id="right-margin-Ultralight-M" d="M300,256 l0,110" />
        <path id="left-margin-Regular-M" d="M430,256 l0,110" />
        <path id="right-margin-Regular-M" d="M500,256 l0,110" />
        <path id="left-margin-Black-M" d="M630,256 l0,110" />
        <path id="right-margin-Black-M" d="M700,256 l0,110" />
        <path id="Capline-M" d="M18,276 l800,0" />
        <path id="Baseline-M" d="M18,346 l800,0" />
        <path id="Capline-L" d="M18,476 l800,0" />
        <path id="Baseline-L" d="M18,546 l800,0" />
    </g>
    <g id="Symbols">
        <g id="Ultralight-M" transform="translate(0,200)">
            <path d="M273.75,90.583 L273.75,131.417 C273.75,133.027 275.056,134.333 276.667,134.333 C278.277,134.333 279.583,133.027 279.583,131.417 L279.583,90.583 C279.583,88.973 278.277,87.667 276.667,87.667 C275.056,87.667 273.75,88.973 273.75,90.583 Z M256.25,87.667 L256.25,134.333 C256.25,135.944 257.556,137.25 259.167,137.25 C260.777,137.25 262.083,135.944 262.083,134.333 L262.083,87.667 C262.083,86.056 260.777,84.75 259.167,84.75 C257.556,84.75 256.25,86.056 256.25,87.667 Z M238.75,113.917 L291.25,113.917 C292.861,113.917 294.167,112.611 294.167,111 C294.167,109.389 292.861,108.083 291.25,108.083 L238.75,108.083 C237.139,108.083 235.833,109.389 235.833,111 C235.833,112.611 237.139,113.917 238.75,113.917 Z M235.833,93.471 L235.833,128.529 C235.833,134.204 235.946,135.491 237.062,137.369 C238.142,139.184 239.84,140.547 241.845,141.207 C243.926,141.888 245.229,141.717 250.741,140.491 L284.574,132.972 C286.148,132.621 286.692,132.495 287.347,132.317 C288.696,131.951 289.65,131.555 290.528,130.924 C291.819,129.994 292.831,128.733 293.458,127.273 C294.098,125.78 294.167,124.84 294.167,121.013 L294.167,100.987 C294.167,97.16 294.098,96.22 293.458,94.728 C292.83,93.267 291.818,92.007 290.53,91.08 C289.21,90.132 288.29,89.855 284.574,89.028 L250.74,81.509 C245.196,80.28 243.922,80.113 241.846,80.795 C239.842,81.455 238.144,82.816 237.064,84.628 C235.946,86.509 235.833,87.796 235.833,93.471 Z M241.667,93.471 C241.667,89.194 241.759,88.147 242.077,87.611 C242.435,87.01 243.001,86.556 243.669,86.336 C244.261,86.142 245.3,86.278 249.476,87.204 L283.308,94.723 C286.082,95.34 286.734,95.536 287.124,95.816 C287.552,96.124 287.889,96.544 288.098,97.03 C288.284,97.463 288.333,98.135 288.333,100.987 L288.333,121.013 C288.333,123.865 288.284,124.537 288.097,124.974 C287.889,125.459 287.551,125.879 287.122,126.189 C286.912,126.34 286.554,126.488 285.819,126.688 C285.286,126.832 284.781,126.95 283.307,127.278 L249.475,134.797 C245.315,135.722 244.261,135.86 243.664,135.665 C243.002,135.447 242.436,134.993 242.076,134.388 C241.759,133.853 241.667,132.806 241.667,128.529 L241.667,93.471 Z" />
        </g>
        <g id="Regular-M" transform="translate(0,200)">
            <path d="M473.75,90.583 L473.75,131.417 C473.75,133.027 475.056,134.333 476.667,134.333 C478.277,134.333 479.583,133.027 479.583,131.417 L479.583,90.583 C479.583,88.973 478.277,87.667 476.667,87.667 C475.056,87.667 473.75,88.973 473.75,90.583 Z M456.25,87.667 L456.25,134.333 C456.25,135.944 457.556,137.25 459.167,137.25 C460.777,137.25 462.083,135.944 462.083,134.333 L462.083,87.667 C462.083,86.056 460.777,84.75 459.167,84.75 C457.556,84.75 456.25,86.056 456.25,87.667 Z M438.75,113.917 L491.25,113.917 C492.861,113.917 494.167,112.611 494.167,111 C494.167,109.389 492.861,108.083 491.25,108.083 L438.75,108.083 C437.139,108.083 435.833,109.389 435.833,111 C435.833,112.611 437.139,113.917 438.75,113.917 Z M435.833,93.471 L435.833,128.529 C435.833,134.204 435.946,135.491 437.062,137.369 C438.142,139.184 439.84,140.547 441.845,141.207 C443.926,141.888 445.229,141.717 450.741,140.491 L484.574,132.972 C486.148,132.621 486.692,132.495 487.347,132.317 C488.696,131.951 489.65,131.555 490.528,130.924 C491.819,129.994 492.831,128.733 493.458,127.273 C494.098,125.78 494.167,124.84 494.167,121.013 L494.167,100.987 C494.167,97.16 494.098,96.22 493.458,94.728 C492.83,93.267 491.818,92.007 490.53,91.08 C489.21,90.132 488.29,89.855 484.574,89.028 L450.74,81.509 C445.196,80.28 443.922,80.113 441.846,80.795 C439.842,81.455 438.144,82.816 437.064,84.628 C435.946,86.509 435.833,87.796 435.833,93.471 Z M441.667,93.471 C441.667,89.194 441.759,88.147 442.077,87.611 C442.435,87.01 443.001,86.556 443.669,86.336 C444.261,86.142 445.3,86.278 449.476,87.204 L483.308,94.723 C486.082,95.34 486.734,95.536 487.124,95.816 C487.552,96.124 487.889,96.544 488.098,97.03 C488.284,97.463 488.333,98.135 488.333,100.987 L488.333,121.013 C488.333,123.865 488.284,124.537 488.097,124.974 C487.889,125.459 487.551,125.879 487.122,126.189 C486.912,126.34 486.554,126.488 485.819,126.688 C485.286,126.832 484.781,126.95 483.307,127.278 L449.475,134.797 C445.315,135.722 444.261,135.86 443.664,135.665 C443.002,135.447 442.436,134.993 442.076,134.388 C441.759,133.853 441.667,132.806 441.667,128.529 L441.667,93.471 Z" />
        </g>
        <g id="Black-M" transform="translate(0,200)">
            <path d="M673.75,90.583 L673.75,131.417 C673.75,133.027 675.056,134.333 676.667,134.333 C678.277,134.333 679.583,133.027 679.583,131.417 L679.583,90.583 C679.583,88.973 678.277,87.667 676.667,87.667 C675.056,87.667 673.75,88.973 673.75,90.583 Z M656.25,87.667 L656.25,134.333 C656.25,135.944 657.556,137.25 659.167,137.25 C660.778,137.25 662.083,135.944 662.083,134.333 L662.083,87.667 C662.083,86.056 660.778,84.75 659.167,84.75 C657.556,84.75 656.25,86.056 656.25,87.667 Z M638.75,113.917 L691.25,113.917 C692.861,113.917 694.167,112.611 694.167,111 C694.167,109.389 692.861,108.083 691.25,108.083 L638.75,108.083 C637.139,108.083 635.833,109.389 635.833,111 C635.833,112.611 637.139,113.917 638.75,113.917 Z M635.833,93.471 L635.833,128.529 C635.833,134.204 635.946,135.491 637.062,137.369 C638.142,139.184 639.84,140.547 641.845,141.207 C643.926,141.888 645.229,141.717 650.741,140.491 L684.574,132.972 C686.148,132.621 686.692,132.495 687.347,132.317 C688.696,131.951 689.65,131.555 690.528,130.924 C691.819,129.994 692.831,128.733 693.458,127.273 C694.098,125.78 694.167,124.84 694.167,121.013 L694.167,100.987 C694.167,97.16 694.098,96.22 693.458,94.728 C692.83,93.267 691.818,92.007 690.53,91.08 C689.21,90.132 688.29,89.855 684.574,89.028 L650.74,81.509 C645.196,80.28 643.922,80.113 641.846,80.795 C639.842,81.455 638.144,82.816 637.064,84.628 C635.946,86.509 635.833,87.796 635.833,93.471 Z M641.667,93.471 C641.667,89.194 641.759,88.147 642.077,87.611 C642.435,87.01 643.001,86.556 643.669,86.336 C644.261,86.142 645.3,86.278 649.476,87.204 L683.308,94.723 C686.083,95.34 686.734,95.536 687.124,95.816 C687.552,96.124 687.889,96.544 688.098,97.03 C688.284,97.463 688.333,98.135 688.333,100.987 L688.333,121.013 C688.333,123.865 688.284,124.537 688.097,124.974 C687.888,125.459 687.551,125.879 687.122,126.189 C686.911,126.34 686.554,126.488 685.819,126.688 C685.286,126.832 684.781,126.95 683.307,127.278 L649.475,134.797 C645.315,135.722 644.261,135.86 643.664,135.665 C643.002,135.447 642.436,134.993 642.076,134.388 C641.759,133.853 641.667,132.806 641.667,128.529 L641.667,93.471 Z" />
        </g>
    </g>
</svg>