<?xml version="1.0" encoding="UTF-8"?>
<svg height="600" width="800" xmlns="http://www.w3.org/2000/svg" xmlns:xlink="http://www.w3.org/1999/xlink">
    <g id="Notes" font-family="LucidaGrande, 'Lucida Grande', sans-serif" font-size="13">
        <rect fill="white" height="600.0" width="800.0" x="0.0" y="0.0" />
        <g font-size="13">
            <text x="18.0" y="176.0">Small</text>
            <text x="18.0" y="376.0">Medium</text>
            <text x="18.0" y="576.0">Large</text>
        </g>
        <g font-size="9">
            <text x="250.0" y="30.0">Ultralight</text>
            <text x="450.0" y="30.0">Regular</text>
            <text x="650.0" y="30.0">Black</text>
            <text id="template-version" fill="#505050" text-anchor="end" x="785.0" y="575.0">Template v.3.0</text>
            <a href="https://github.com/swhitty/SwiftDraw">
                <text fill="#505050" text-anchor="end" x="785.0" y="590.0">https://github.com/swhitty/SwiftDraw</text>
            </a>
        </g>
    </g>
    <g id="Guides" stroke="rgb(39, 170, 225)" stroke-width="0.5">
        <path id="Capline-S" d="M18,76 l800,0" />
        <path id="H-reference" d="M85,145.755 L87.685,145.755 L113.369,79.287 L114.052,79.287 L114.052,76 L112.148,76 L85,145.755 Z M95.693,121.536 L130.996,121.536 L130.263,119.313 L96.474,119.313 L95.693,121.536 Z M139.15,145.755 L141.787,145.755 L114.638,76 L113.466,76 L113.466,79.287 L139.15,145.755 Z" stroke="none" transform="translate(0,200)" />
        <path id="Baseline-S" d="M18,146 l800,0" />
        <path id="left-margin-Ultralight-M" d="M230,256 l0,110" />
        <path id="right-margin-Ultralight-M" d="M300,256 l0,110" />
        <path id="left-margin-Regular-M" d="M430,256 l0,110" />
        <path id="right-margin-Regular-M" d="M500,256 l0,110" />
        <path id="left-margin-Black-M" d="M630,256 l0,110" />
        <path id="right-margin-Black-M" d="M700,256 l0,110" />
        <path id="Capline-M" d="M18,276 l800,0" />
        <path id="Baseline-M" d="M18,346 l800,0" />
        <path id="Capline-L" d="M18,476 l800,0" />
        <path id="Baseline-L" d="M18,546 l800,0" />
    </g>
    <g id="Symbols">
        <g id="Ultralight-M" transform="translate(0,200)">
            <path d="M245.909,114.177 C245.909,109.957 247.585,105.911 250.569,102.927 C253.552,99.944 257.599,98.268 261.818,98.268 C263.576,98.268 265,96.843 265,95.086 C265,93.328 263.576,91.904 261.818,91.904 C255.911,91.904 250.246,94.25 246.069,98.427 C241.892,102.604 239.546,108.269 239.546,114.177 C239.546,115.934 240.97,117.358 242.728,117.358 C244.485,117.358 245.909,115.934 245.909,114.177 Z M239.546,114.177 C239.546,120.129 241.897,125.722 246.005,129.863 C246.191,130.051 246.257,130.123 246.155,129.958 C246.068,129.819 245.999,129.651 245.97,129.538 C245.907,129.271 245.909,129.318 245.909,129.545 L245.909,137.086 C245.909,138.834 245.943,139.245 246.422,140.196 C246.891,141.11 247.623,141.839 248.522,142.294 C249.464,142.779 249.879,142.813 251.637,142.813 L257.682,142.813 C259.439,142.813 259.855,142.779 260.813,142.286 C261.701,141.833 262.429,141.104 262.886,140.209 C263.375,139.258 263.409,138.843 263.409,137.086 L263.409,135.813 C263.409,135.302 263.412,135.129 263.42,135.025 C263.412,135.126 263.368,135.316 263.24,135.57 C263.078,135.886 262.834,136.129 262.534,136.281 C262.293,136.405 262.097,136.451 261.99,136.46 C262.091,136.452 262.264,136.449 262.773,136.449 L267.227,136.449 C267.737,136.449 267.909,136.452 268.011,136.46 C267.904,136.451 267.708,136.405 267.45,136.272 C267.159,136.124 266.916,135.881 266.764,135.583 C266.635,135.332 266.589,135.137 266.58,135.029 C266.588,135.131 266.591,135.303 266.591,135.813 L266.591,137.086 C266.591,138.834 266.624,139.245 267.104,140.196 C267.573,141.11 268.304,141.839 269.203,142.294 C270.145,142.779 270.561,142.813 272.318,142.813 L278.364,142.813 C280.121,142.813 280.537,142.779 281.495,142.286 C282.383,141.833 283.111,141.104 283.568,140.209 C284.057,139.258 284.091,138.843 284.091,137.086 L284.091,133.98 C284.091,133.644 284.096,133.553 283.997,133.831 C283.932,134.03 283.778,134.271 283.573,134.466 C283.474,134.555 283.474,134.555 283.37,134.632 C283.307,134.677 283.459,134.601 283.921,134.385 C287.549,132.697 290.658,130.064 292.923,126.762 C293.134,126.456 293.216,126.347 293.09,126.46 C293.054,126.493 293.054,126.493 293.013,126.527 C292.833,126.676 292.62,126.788 292.391,126.852 C292.208,126.907 292.274,126.904 292.548,126.904 L294.273,126.904 C296.03,126.904 296.446,126.869 297.404,126.377 C298.292,125.924 299.02,125.195 299.477,124.3 C299.966,123.349 300,122.934 300,121.177 L300,110.314 C300,108.641 299.969,108.246 299.521,107.324 C299.056,106.359 298.272,105.575 297.301,105.106 C296.385,104.662 295.991,104.631 294.317,104.631 C293.995,104.631 293.902,104.626 294.167,104.716 C294.396,104.787 294.655,104.953 294.858,105.176 C294.928,105.257 294.928,105.257 294.999,105.353 C295.042,105.414 294.97,105.269 294.769,104.837 C293.68,102.483 292.186,100.333 290.355,98.489 C290.177,98.321 290.122,98.26 290.073,98.193 C290.297,98.533 290.372,98.714 290.416,98.903 C290.457,99.083 290.455,99.033 290.455,98.808 L290.455,95.277 C290.455,93.034 290.414,92.581 289.732,91.49 C289.116,90.493 288.136,89.751 286.992,89.424 C285.753,89.071 285.272,89.163 283.146,89.776 L275.607,91.927 C275.529,91.947 275.676,91.916 275.825,91.905 C275.772,91.909 275.772,91.909 275.785,91.908 C275.91,91.903 275.91,91.903 275.777,91.904 L261.818,91.904 C260.061,91.904 258.637,93.328 258.637,95.086 C258.637,96.843 260.061,98.268 261.818,98.268 L275.777,98.268 C275.96,98.269 275.96,98.269 276.276,98.253 C276.306,98.251 276.306,98.251 276.335,98.248 C276.715,98.222 277.153,98.129 277.572,97.976 L284.901,95.893 C285.542,95.708 285.774,95.645 285.922,95.617 C285.817,95.637 285.59,95.641 285.247,95.543 C284.862,95.433 284.535,95.186 284.327,94.849 C284.143,94.554 284.083,94.332 284.074,94.223 C284.087,94.373 284.091,94.602 284.091,95.277 L284.091,98.808 C284.091,99.621 284.099,99.827 284.212,100.321 C284.33,100.838 284.535,101.328 284.817,101.774 C285.238,102.361 285.579,102.741 285.955,103.083 C287.147,104.29 288.216,105.827 288.995,107.513 C289.424,108.435 289.518,108.625 289.803,109.028 C289.975,109.261 289.975,109.261 290.197,109.508 C290.702,110.065 291.407,110.516 292.19,110.764 C292.826,110.979 293.102,110.995 294.317,110.995 C294.803,110.995 294.967,110.997 295.064,111.005 C294.962,110.997 294.776,110.955 294.528,110.834 C294.211,110.681 293.95,110.42 293.794,110.096 C293.676,109.855 293.634,109.669 293.626,109.567 C293.634,109.664 293.636,109.828 293.636,110.314 L293.636,121.177 C293.636,121.686 293.634,121.858 293.625,121.96 C293.634,121.853 293.681,121.657 293.813,121.399 C293.962,121.108 294.204,120.865 294.503,120.713 C294.753,120.584 294.949,120.538 295.056,120.529 C294.954,120.537 294.782,120.54 294.273,120.54 L292.548,120.54 C291.498,120.54 291.241,120.554 290.616,120.741 C290.044,120.901 289.463,121.206 288.962,121.619 C288.887,121.683 288.887,121.683 288.813,121.749 C288.399,122.125 288.298,122.26 287.68,123.155 C286.055,125.525 283.831,127.408 281.234,128.617 C280.253,129.074 280.082,129.16 279.668,129.456 C279.419,129.642 279.419,129.642 279.155,129.885 C278.643,130.369 278.224,131.027 277.982,131.755 C277.745,132.414 277.727,132.71 277.727,133.98 L277.727,137.086 C277.727,137.595 277.725,137.767 277.716,137.869 C277.725,137.762 277.772,137.566 277.904,137.308 C278.053,137.017 278.295,136.774 278.594,136.622 C278.844,136.493 279.04,136.447 279.147,136.438 C279.045,136.446 278.873,136.449 278.364,136.449 L272.318,136.449 C271.809,136.449 271.637,136.446 271.535,136.438 C271.642,136.447 271.838,136.493 272.096,136.626 C272.379,136.77 272.623,137.012 272.776,137.311 C272.913,137.582 272.958,137.772 272.966,137.874 C272.957,137.77 272.955,137.597 272.955,137.086 L272.955,135.813 C272.955,134.056 272.92,133.64 272.428,132.681 C271.975,131.794 271.246,131.066 270.351,130.608 C269.4,130.12 268.985,130.086 267.227,130.086 L262.773,130.086 C261.016,130.086 260.6,130.12 259.642,130.613 C258.759,131.06 258.027,131.788 257.568,132.685 C257.079,133.653 257.046,134.064 257.046,135.813 L257.046,137.086 C257.046,137.595 257.043,137.767 257.035,137.869 C257.043,137.762 257.09,137.566 257.223,137.308 C257.371,137.017 257.614,136.774 257.912,136.622 C258.162,136.493 258.358,136.447 258.465,136.438 C258.364,136.446 258.191,136.449 257.682,136.449 L251.637,136.449 C251.127,136.449 250.955,136.446 250.853,136.438 C250.96,136.447 251.156,136.493 251.414,136.626 C251.697,136.77 251.941,137.012 252.095,137.311 C252.232,137.582 252.276,137.772 252.284,137.874 C252.276,137.77 252.273,137.597 252.273,137.086 L252.273,129.545 C252.273,128.731 252.265,128.526 252.152,128.032 C252.005,127.46 251.83,127.032 251.557,126.595 C251.29,126.164 251.186,126.051 250.524,125.384 C247.586,122.421 245.909,118.433 245.909,114.177 C245.909,112.419 244.485,110.995 242.728,110.995 C240.97,110.995 239.546,112.419 239.546,114.177 Z M242.728,110.995 L239.546,110.995 C238.106,110.995 236.845,110.027 236.473,108.636 C236.1,107.245 236.708,105.778 237.955,105.057 C239.477,104.179 239.998,102.233 239.119,100.711 C238.241,99.189 236.295,98.668 234.773,99.547 C231.032,101.707 229.208,106.111 230.326,110.283 C231.444,114.456 235.225,117.358 239.546,117.358 L242.728,117.358 C244.485,117.358 245.909,115.934 245.909,114.177 C245.909,112.419 244.485,110.995 242.728,110.995 Z M261.818,98.268 L274.434,98.268 C276.017,98.268 277.359,97.104 277.584,95.537 C278.429,89.641 275.536,83.837 270.318,80.964 C265.1,78.09 258.649,78.747 254.117,82.613 C249.586,86.479 247.921,92.747 249.938,98.352 C250.592,100.171 252.704,100.991 254.414,100.09 C256.695,98.889 259.235,98.263 261.813,98.268 Z M261.823,91.904 C258.209,91.898 254.647,92.775 251.449,94.459 L252.932,97.275 L255.926,96.198 C254.805,93.084 255.73,89.602 258.248,87.454 C260.765,85.306 264.349,84.941 267.248,86.538 C270.147,88.134 271.754,91.359 271.285,94.634 L274.434,91.904 L261.818,91.904 Z" />
        </g>
        <g id="Regular-M" transform="translate(0,200)">
            <path d="M445.909,114.177 C445.909,109.957 447.585,105.911 450.569,102.927 C453.552,99.944 457.599,98.268 461.818,98.268 C463.576,98.268 465,96.843 465,95.086 C465,93.328 463.576,91.904 461.818,91.904 C455.911,91.904 450.246,94.25 446.069,98.427 C441.892,102.604 439.546,108.269 439.546,114.177 C439.546,115.934 440.97,117.358 442.728,117.358 C444.485,117.358 445.909,115.934 445.909,114.177 Z M439.546,114.177 C439.546,120.129 441.897,125.722 446.005,129.863 C446.191,130.051 446.257,130.123 446.155,129.958 C446.068,129.819 445.999,129.651 445.97,129.538 C445.907,129.271 445.909,129.318 445.909,129.545 L445.909,137.086 C445.909,138.834 445.943,139.245 446.422,140.196 C446.891,141.11 447.623,141.839 448.522,142.294 C449.464,142.779 449.879,142.813 451.637,142.813 L457.682,142.813 C459.439,142.813 459.855,142.779 460.813,142.286 C461.701,141.833 462.429,141.104 462.886,140.209 C463.375,139.258 463.409,138.843 463.409,137.086 L463.409,135.813 C463.409,135.302 463.412,135.129 463.42,135.025 C463.412,135.126 463.368,135.316 463.24,135.57 C463.078,135.886 462.834,136.129 462.534,136.281 C462.293,136.405 462.097,136.451 461.99,136.46 C462.091,136.452 462.264,136.449 462.773,136.449 L467.227,136.449 C467.737,136.449 467.909,136.452 468.011,136.46 C467.904,136.451 467.708,136.405 467.45,136.272 C467.159,136.124 466.916,135.881 466.764,135.583 C466.635,135.332 466.589,135.137 466.58,135.029 C466.588,135.131 466.591,135.303 466.591,135.813 L466.591,137.086 C466.591,138.834 466.624,139.245 467.104,140.196 C467.573,141.11 468.304,141.839 469.203,142.294 C470.145,142.779 470.561,142.813 472.318,142.813 L478.364,142.813 C480.121,142.813 480.537,142.779 481.495,142.286 C482.383,141.833 483.111,141.104 483.568,140.209 C484.057,139.258 484.091,138.843 484.091,137.086 L484.091,133.98 C484.091,133.644 484.096,133.553 483.997,133.831 C483.932,134.03 483.778,134.271 483.573,134.466 C483.474,134.555 483.474,134.555 483.37,134.632 C483.307,134.677 483.459,134.601 483.921,134.385 C487.549,132.697 490.658,130.064 492.923,126.762 C493.134,126.456 493.216,126.347 493.09,126.46 C493.054,126.493 493.054,126.493 493.013,126.527 C492.833,126.676 492.62,126.788 492.391,126.852 C492.208,126.907 492.274,126.904 492.548,126.904 L494.273,126.904 C496.03,126.904 496.446,126.869 497.404,126.377 C498.292,125.924 499.02,125.195 499.477,124.3 C499.966,123.349 500,122.934 500,121.177 L500,110.314 C500,108.641 499.969,108.246 499.521,107.324 C499.056,106.359 498.272,105.575 497.301,105.106 C496.385,104.662 495.991,104.631 494.317,104.631 C493.995,104.631 493.902,104.626 494.167,104.716 C494.396,104.787 494.655,104.953 494.858,105.176 C494.928,105.257 494.928,105.257 494.999,105.353 C495.042,105.414 494.97,105.269 494.769,104.837 C493.68,102.483 492.186,100.333 490.355,98.489 C490.177,98.321 490.122,98.26 490.073,98.193 C490.297,98.533 490.372,98.714 490.416,98.903 C490.457,99.083 490.455,99.033 490.455,98.808 L490.455,95.277 C490.455,93.034 490.414,92.581 489.732,91.49 C489.116,90.493 488.136,89.751 486.992,89.424 C485.753,89.071 485.272,89.163 483.146,89.776 L475.607,91.927 C475.529,91.947 475.676,91.916 475.825,91.905 C475.772,91.909 475.772,91.909 475.785,91.908 C475.91,91.903 475.91,91.903 475.777,91.904 L461.818,91.904 C460.061,91.904 458.637,93.328 458.637,95.086 C458.637,96.843 460.061,98.268 461.818,98.268 L475.777,98.268 C475.96,98.269 475.96,98.269 476.276,98.253 C476.306,98.251 476.306,98.251 476.335,98.248 C476.715,98.222 477.153,98.129 477.572,97.976 L484.901,95.893 C485.542,95.708 485.774,95.645 485.922,95.617 C485.817,95.637 485.59,95.641 485.247,95.543 C484.862,95.433 484.535,95.186 484.327,94.849 C484.143,94.554 484.083,94.332 484.074,94.223 C484.087,94.373 484.091,94.602 484.091,95.277 L484.091,98.808 C484.091,99.621 484.099,99.827 484.212,100.321 C484.33,100.838 484.535,101.328 484.817,101.774 C485.238,102.361 485.579,102.741 485.955,103.083 C487.147,104.29 488.216,105.827 488.995,107.513 C489.424,108.435 489.518,108.625 489.803,109.028 C489.975,109.261 489.975,109.261 490.197,109.508 C490.702,110.065 491.407,110.516 492.19,110.764 C492.826,110.979 493.102,110.995 494.317,110.995 C494.803,110.995 494.967,110.997 495.064,111.005 C494.962,110.997 494.776,110.955 494.528,110.834 C494.211,110.681 493.95,110.42 493.794,110.096 C493.676,109.855 493.634,109.669 493.626,109.567 C493.634,109.664 493.636,109.828 493.636,110.314 L493.636,121.177 C493.636,121.686 493.634,121.858 493.625,121.96 C493.634,121.853 493.681,121.657 493.813,121.399 C493.962,121.108 494.204,120.865 494.503,120.713 C494.753,120.584 494.949,120.538 495.056,120.529 C494.954,120.537 494.782,120.54 494.273,120.54 L492.548,120.54 C491.498,120.54 491.241,120.554 490.616,120.741 C490.044,120.901 489.463,121.206 488.962,121.619 C488.887,121.683 488.887,121.683 488.813,121.749 C488.399,122.125 488.298,122.26 487.68,123.155 C486.055,125.525 483.831,127.408 481.234,128.617 C480.253,129.074 480.082,129.16 479.668,129.456 C479.419,129.642 479.419,129.642 479.155,129.885 C478.643,130.369 478.224,131.027 477.982,131.755 C477.745,132.414 477.727,132.71 477.727,133.98 L477.727,137.086 C477.727,137.595 477.725,137.767 477.716,137.869 C477.725,137.762 477.772,137.566 477.904,137.308 C478.053,137.017 478.295,136.774 478.594,136.622 C478.844,136.493 479.04,136.447 479.147,136.438 C479.045,136.446 478.873,136.449 478.364,136.449 L472.318,136.449 C471.809,136.449 471.637,136.446 471.535,136.438 C471.642,136.447 471.838,136.493 472.096,136.626 C472.379,136.77 472.623,137.012 472.776,137.311 C472.913,137.582 472.958,137.772 472.966,137.874 C472.957,137.77 472.955,137.597 472.955,137.086 L472.955,135.813 C472.955,134.056 472.92,133.64 472.428,132.681 C471.975,131.794 471.246,131.066 470.351,130.608 C469.4,130.12 468.985,130.086 467.227,130.086 L462.773,130.086 C461.016,130.086 460.6,130.12 459.642,130.613 C458.759,131.06 458.027,131.788 457.568,132.685 C457.079,133.653 457.046,134.064 457.046,135.813 L457.046,137.086 C457.046,137.595 457.043,137.767 457.035,137.869 C457.043,137.762 457.09,137.566 457.223,137.308 C457.371,137.017 457.614,136.774 457.912,136.622 C458.162,136.493 458.358,136.447 458.465,136.438 C458.364,136.446 458.191,136.449 457.682,136.449 L451.637,136.449 C451.127,136.449 450.955,136.446 450.853,136.438 C450.96,136.447 451.156,136.493 451.414,136.626 C451.697,136.77 451.941,137.012 452.095,137.311 C452.232,137.582 452.276,137.772 452.284,137.874 C452.276,137.77 452.273,137.597 452.273,137.086 L452.273,129.545 C452.273,128.731 452.265,128.526 452.152,128.032 C452.005,127.46 451.83,127.032 451.557,126.595 C451.29,126.164 451.186,126.051 450.524,125.384 C447.586,122.421 445.909,118.433 445.909,114.177 C445.909,112.419 444.485,110.995 442.728,110.995 C440.97,110.995 439.546,112.419 439.546,114.177 Z M442.728,110.995 L439.546,110.995 C438.106,110.995 436.845,110.027 436.473,108.636 C436.1,107.245 436.708,105.778 437.955,105.057 C439.477,104.179 439.998,102.233 439.119,100.711 C438.241,99.189 436.295,98.668 434.773,99.547 C431.032,101.707 429.208,106.111 430.326,110.283 C431.444,114.456 435.225,117.358 439.546,117.358 L442.728,117.358 C444.485,117.358 445.909,115.934 445.909,114.177 C445.909,112.419 444.485,110.995 442.728,110.995 Z M461.818,98.268 L474.434,98.268 C476.017,98.268 477.359,97.104 477.584,95.537 C478.429,89.641 475.536,83.837 470.318,80.964 C465.1,78.09 458.649,78.747 454.117,82.613 C449.586,86.479 447.921,92.747 449.938,98.352 C450.592,100.171 452.704,100.991 454.414,100.09 C456.695,98.889 459.235,98.263 461.813,98.268 Z M461.823,91.904 C458.209,91.898 454.647,92.775 451.449,94.459 L452.932,97.275 L455.926,96.198 C454.806,93.084 455.73,89.602 458.248,87.454 C460.765,85.306 464.349,84.941 467.248,86.538 C470.147,88.134 471.754,91.359 471.285,94.634 L474.434,91.904 L461.818,91.904 Z" />
        </g>
        <g id="Black-M" transform="translate(0,200)">
            <path d="M645.909,114.177 C645.909,109.957 647.585,105.911 650.569,102.927 C653.552,99.944 657.599,98.268 661.818,98.268 C663.576,98.268 665,96.843 665,95.086 C665,93.328 663.576,91.904 661.818,91.904 C655.911,91.904 650.246,94.25 646.069,98.427 C641.892,102.604 639.546,108.269 639.546,114.177 C639.546,115.934 640.97,117.358 642.728,117.358 C644.485,117.358 645.909,115.934 645.909,114.177 Z M639.546,114.177 C639.546,120.129 641.897,125.722 646.005,129.863 C646.191,130.051 646.257,130.123 646.155,129.958 C646.068,129.819 645.999,129.651 645.97,129.538 C645.907,129.271 645.909,129.318 645.909,129.545 L645.909,137.086 C645.909,138.834 645.943,139.245 646.422,140.196 C646.891,141.11 647.623,141.839 648.522,142.294 C649.464,142.779 649.879,142.813 651.637,142.813 L657.682,142.813 C659.439,142.813 659.855,142.779 660.813,142.286 C661.701,141.833 662.429,141.104 662.886,140.209 C663.375,139.258 663.409,138.843 663.409,137.086 L663.409,135.813 C663.409,135.302 663.412,135.129 663.42,135.025 C663.412,135.126 663.368,135.316 663.24,135.57 C663.078,135.886 662.834,136.129 662.534,136.281 C662.293,136.405 662.097,136.451 661.99,136.46 C662.091,136.452 662.264,136.449 662.773,136.449 L667.227,136.449 C667.737,136.449 667.909,136.452 668.011,136.46 C667.904,136.451 667.708,136.405 667.45,136.272 C667.159,136.124 666.916,135.881 666.764,135.583 C666.635,135.332 666.589,135.137 666.58,135.029 C666.588,135.131 666.591,135.303 666.591,135.813 L666.591,137.086 C666.591,138.834 666.624,139.245 667.104,140.196 C667.573,141.11 668.304,141.839 669.203,142.294 C670.145,142.779 670.561,142.813 672.318,142.813 L678.364,142.813 C680.121,142.813 680.537,142.779 681.495,142.286 C682.383,141.833 683.111,141.104 683.568,140.209 C684.057,139.258 684.091,138.843 684.091,137.086 L684.091,133.98 C684.091,133.644 684.096,133.553 683.997,133.831 C683.932,134.03 683.778,134.271 683.573,134.466 C683.474,134.555 683.474,134.555 683.37,134.632 C683.307,134.677 683.459,134.601 683.921,134.385 C687.549,132.697 690.658,130.064 692.923,126.762 C693.134,126.456 693.216,126.347 693.09,126.46 C693.054,126.493 693.054,126.493 693.013,126.527 C692.833,126.676 692.62,126.788 692.391,126.852 C692.208,126.907 692.274,126.904 692.548,126.904 L694.273,126.904 C696.03,126.904 696.446,126.869 697.404,126.377 C698.292,125.924 699.02,125.195 699.477,124.3 C699.966,123.349 700,122.934 700,121.177 L700,110.314 C700,108.641 699.969,108.246 699.521,107.324 C699.056,106.359 698.272,105.575 697.301,105.106 C696.385,104.662 695.991,104.631 694.317,104.631 C693.995,104.631 693.902,104.626 694.167,104.716 C694.396,104.787 694.655,104.953 694.858,105.176 C694.928,105.257 694.928,105.257 694.999,105.353 C695.042,105.414 694.97,105.269 694.769,104.837 C693.68,102.483 692.186,100.333 690.355,98.489 C690.177,98.321 690.122,98.26 690.073,98.193 C690.297,98.533 690.372,98.714 690.416,98.903 C690.457,99.083 690.455,99.033 690.455,98.808 L690.455,95.277 C690.455,93.034 690.414,92.581 689.732,91.49 C689.116,90.493 688.136,89.751 686.992,89.424 C685.753,89.071 685.272,89.163 683.146,89.776 L675.607,91.927 C675.529,91.947 675.676,91.916 675.825,91.905 C675.772,91.909 675.772,91.909 675.785,91.908 C675.91,91.903 675.91,91.903 675.777,91.904 L661.818,91.904 C660.061,91.904 658.637,93.328 658.637,95.086 C658.637,96.843 660.061,98.268 661.818,98.268 L675.777,98.268 C675.96,98.269 675.96,98.269 676.276,98.253 C676.306,98.251 676.306,98.251 676.335,98.248 C676.715,98.222 677.153,98.129 677.572,97.976 L684.901,95.893 C685.542,95.708 685.774,95.645 685.922,95.617 C685.817,95.637 685.59,95.641 685.247,95.543 C684.862,95.433 684.535,95.186 684.327,94.849 C684.143,94.554 684.083,94.332 684.074,94.223 C684.087,94.373 684.091,94.602 684.091,95.277 L684.091,98.808 C684.091,99.621 684.099,99.827 684.212,100.321 C684.33,100.838 684.535,101.328 684.817,101.774 C685.238,102.361 685.579,102.741 685.955,103.083 C687.147,104.29 688.216,105.827 688.995,107.513 C689.424,108.435 689.518,108.625 689.803,109.028 C689.975,109.261 689.975,109.261 690.197,109.508 C690.702,110.065 691.407,110.516 692.19,110.764 C692.826,110.979 693.102,110.995 694.317,110.995 C694.803,110.995 694.967,110.997 695.064,111.005 C694.962,110.997 694.776,110.955 694.528,110.834 C694.211,110.681 693.95,110.42 693.794,110.096 C693.676,109.855 693.634,109.669 693.626,109.567 C693.634,109.664 693.636,109.828 693.636,110.314 L693.636,121.177 C693.636,121.686 693.634,121.858 693.625,121.96 C693.634,121.853 693.681,121.657 693.813,121.399 C693.962,121.108 694.204,120.865 694.503,120.713 C694.753,120.584 694.949,120.538 695.056,120.529 C694.954,120.537 694.782,120.54 694.273,120.54 L692.548,120.54 C691.498,120.54 691.241,120.554 690.616,120.741 C690.044,120.901 689.463,121.206 688.962,121.619 C688.887,121.683 688.887,121.683 688.813,121.749 C688.399,122.125 688.298,122.26 687.68,123.155 C686.055,125.525 683.831,127.408 681.234,128.617 C680.253,129.074 680.082,129.16 679.668,129.456 C679.419,129.642 679.419,129.642 679.155,129.885 C678.643,130.369 678.224,131.027 677.982,131.755 C677.745,132.414 677.727,132.71 677.727,133.98 L677.727,137.086 C677.727,137.595 677.725,137.767 677.716,137.869 C677.725,137.762 677.772,137.566 677.904,137.308 C678.053,137.017 678.295,136.774 678.594,136.622 C678.844,136.493 679.04,136.447 679.147,136.438 C679.045,136.446 678.873,136.449 678.364,136.449 L672.318,136.449 C671.809,136.449 671.637,136.446 671.535,136.438 C671.642,136.447 671.838,136.493 672.096,136.626 C672.379,136.77 672.623,137.012 672.776,137.311 C672.913,137.582 672.958,137.772 672.966,137.874 C672.957,137.77 672.955,137.597 672.955,137.086 L672.955,135.813 C672.955,134.056 672.92,133.64 672.428,132.681 C671.975,131.794 671.246,131.066 670.351,130.608 C669.4,130.12 668.985,130.086 667.227,130.086 L662.773,130.086 C661.016,130.086 660.6,130.12 659.641,130.613 C658.759,131.06 658.027,131.788 657.568,132.685 C657.079,133.653 657.046,134.064 657.046,135.813 L657.046,137.086 C657.046,137.595 657.043,137.767 657.035,137.869 C657.043,137.762 657.09,137.566 657.223,137.308 C657.371,137.017 657.614,136.774 657.912,136.622 C658.162,136.493 658.358,136.447 658.465,136.438 C658.364,136.446 658.191,136.449 657.682,136.449 L651.637,136.449 C651.127,136.449 650.955,136.446 650.853,136.438 C650.96,136.447 651.156,136.493 651.414,136.626 C651.698,136.77 651.941,137.012 652.095,137.311 C652.232,137.582 652.276,137.772 652.284,137.874 C652.276,137.77 652.273,137.597 652.273,137.086 L652.273,129.545 C652.273,128.731 652.265,128.526 652.152,128.032 C652.005,127.46 651.83,127.032 651.557,126.595 C651.29,126.164 651.186,126.051 650.524,125.384 C647.586,122.421 645.909,118.433 645.909,114.177 C645.909,112.419 644.485,110.995 642.728,110.995 C640.97,110.995 639.546,112.419 639.546,114.177 Z M642.728,110.995 L639.546,110.995 C638.106,110.995 636.845,110.027 636.473,108.636 C636.1,107.245 636.708,105.778 637.955,105.057 C639.477,104.179 639.998,102.233 639.119,100.711 C638.241,99.189 636.295,98.668 634.773,99.547 C631.032,101.707 629.208,106.111 630.326,110.283 C631.444,114.456 635.225,117.358 639.546,117.358 L642.728,117.358 C644.485,117.358 645.909,115.934 645.909,114.177 C645.909,112.419 644.485,110.995 642.728,110.995 Z M661.818,98.268 L674.434,98.268 C676.017,98.268 677.359,97.104 677.584,95.537 C678.429,89.641 675.536,83.837 670.318,80.964 C665.1,78.09 658.649,78.747 654.117,82.613 C649.586,86.479 647.921,92.747 649.938,98.352 C650.592,100.171 652.704,100.991 654.414,100.09 C656.695,98.889 659.235,98.263 661.813,98.268 Z M661.823,91.904 C658.209,91.898 654.648,92.775 651.449,94.459 L652.932,97.275 L655.926,96.198 C654.805,93.084 655.73,89.602 658.248,87.454 C660.765,85.306 664.349,84.941 667.248,86.538 C670.147,88.134 671.754,91.359 671.285,94.634 L674.434,91.904 L661.818,91.904 Z" />
        </g>
    </g>
</svg>