<?xml version="1.0" encoding="UTF-8"?>
<svg height="600" width="800" xmlns="http://www.w3.org/2000/svg" xmlns:xlink="http://www.w3.org/1999/xlink">
    <g id="Notes" font-family="LucidaGrande, 'Lucida Grande', sans-serif" font-size="13">
        <rect fill="white" height="600.0" width="800.0" x="0.0" y="0.0" />
        <g font-size="13">
            <text x="18.0" y="176.0">Small</text>
            <text x="18.0" y="376.0">Medium</text>
            <text x="18.0" y="576.0">Large</text>
        </g>
        <g font-size="9">
            <text x="250.0" y="30.0">Ultralight</text>
            <text x="450.0" y="30.0">Regular</text>
            <text x="650.0" y="30.0">Black</text>
            <text id="template-version" fill="#505050" text-anchor="end" x="785.0" y="575.0">Template v.3.0</text>
            <a href="https://github.com/swhitty/SwiftDraw">
                <text fill="#505050" text-anchor="end" x="785.0" y="590.0">https://github.com/swhitty/SwiftDraw</text>
            </a>
        </g>
    </g>
    <g id="Guides" stroke="rgb(39, 170, 225)" stroke-width="0.5">
        <path id="Capline-S" d="M18,76 l800,0" />
        <path id="H-reference" d="M85,145.755 L87.685,145.755 L113.369,79.287 L114.052,79.287 L114.052,76 L112.148,76 L85,145.755 Z M95.693,121.536 L130.996,121.536 L130.263,119.313 L96.474,119.313 L95.693,121.536 Z M139.15,145.755 L141.787,145.755 L114.638,76 L113.466,76 L113.466,79.287 L139.15,145.755 Z" stroke="none" transform="translate(0,200)" />
        <path id="Baseline-S" d="M18,146 l800,0" />
        <path id="left-margin-Ultralight-M" d="M230,256 l0,110" />
        <path id="right-margin-Ultralight-M" d="M300,256 l0,110" />
        <path id="left-margin-Regular-M" d="M430,256 l0,110" />
        <path id="right-margin-Regular-M" d="M500,256 l0,110" />
        <path id="left-margin-Black-M" d="M630,256 l0,110" />
        <path id="right-margin-Black-M" d="M700,256 l0,110" />
        <path id="Capline-M" d="M18,276 l800,0" />
        <path id="Baseline-M" d="M18,346 l800,0" />
        <path id="Capline-L" d="M18,476 l800,0" />
        <path id="Baseline-L" d="M18,546 l800,0" />
    </g>
    <g id="Symbols">
        <g id="Ultralight-M" transform="translate(0,200)">
            <path d="M249.789,121.509 L230.976,140.323 C229.677,141.621 229.677,143.727 230.976,145.026 C232.274,146.325 234.38,146.325 235.679,145.026 L254.493,126.212 C255.792,124.913 255.792,122.808 254.493,121.509 C253.194,120.21 251.088,120.21 249.789,121.509 Z M260.821,91.663 L255.633,96.852 C255.395,97.106 255.241,97.247 255.076,97.374 C255.201,97.282 255.201,97.282 255.201,97.282 C255.222,97.274 255.116,97.299 254.619,97.397 L242.423,99.837 C237.416,100.836 236.482,101.114 235.096,102.68 C233.811,104.128 233.22,106.072 233.485,107.996 C233.771,110.071 234.38,110.802 238.006,114.429 L261.573,137.995 C265.177,141.605 265.928,142.23 267.998,142.516 C269.922,142.784 271.868,142.196 273.324,140.906 C274.461,139.896 275.011,138.66 275.498,136.697 C275.68,135.964 275.809,135.352 276.165,133.581 L278.603,121.39 C278.66,121.046 278.709,120.843 278.776,120.645 C278.724,120.789 278.724,120.789 278.723,120.79 C278.695,120.83 278.695,120.83 278.688,120.84 C278.701,120.822 278.789,120.729 279.147,120.372 L284.338,115.181 C284.567,114.952 284.622,114.898 284.631,114.891 C284.626,114.895 284.626,114.895 284.62,114.9 C284.602,114.914 284.611,114.908 284.604,114.912 C284.601,114.913 284.601,114.913 284.586,114.921 C284.606,114.911 284.627,114.902 284.987,114.744 L293.26,111.2 C295.496,110.24 296.131,109.947 296.942,109.437 C297.765,108.919 298.416,108.328 298.913,107.565 C299.87,106.107 300.214,104.322 299.866,102.604 C299.824,102.407 299.824,102.407 299.773,102.216 C299.314,100.581 298.764,99.936 295.965,97.138 L278.864,80.033 C276.065,77.234 275.42,76.684 273.785,76.226 C273.595,76.175 273.595,76.175 273.4,76.133 C271.675,75.784 269.887,76.131 268.421,77.096 C267.674,77.585 267.089,78.228 266.576,79.04 C266.062,79.852 265.773,80.477 264.801,82.736 L261.246,91.04 C261.167,91.234 261.111,91.355 261.048,91.472 C261.09,91.396 261.091,91.395 261.091,91.395 C261.074,91.412 260.983,91.508 260.888,91.598 Z M265.458,96.432 C265.733,96.172 265.993,95.896 266.237,95.607 C266.515,95.259 266.704,94.979 266.871,94.685 C267.091,94.277 267.25,93.936 267.39,93.587 L270.913,85.36 C271.702,83.526 271.957,82.976 272.198,82.595 C272.24,82.528 272.2,82.572 272.072,82.656 C272.079,82.652 272.079,82.652 272.079,82.652 C272.03,82.641 272.03,82.641 271.989,82.63 C271.973,82.626 272.495,83.071 274.161,84.736 L291.261,101.841 C292.927,103.506 293.373,104.028 293.368,104.013 C293.357,103.972 293.357,103.972 293.348,103.927 C293.347,103.924 293.347,103.924 293.347,103.924 C293.426,103.803 293.469,103.763 293.399,103.807 C293.016,104.048 292.461,104.305 290.639,105.087 L282.343,108.641 C281.971,108.802 281.77,108.891 281.568,108.994 C281.434,109.064 281.434,109.064 281.292,109.144 C281.033,109.291 280.765,109.473 280.505,109.675 C280.411,109.75 280.411,109.75 280.358,109.794 C280.137,109.979 280.026,110.086 279.635,110.477 L274.443,115.669 C273.841,116.271 273.677,116.443 273.411,116.79 C273.343,116.88 273.343,116.88 273.276,116.973 C272.96,117.429 272.714,117.892 272.524,118.379 C272.286,119.076 272.147,119.645 272.056,120.223 L269.643,132.274 C269.31,133.928 269.191,134.498 269.043,135.094 C268.856,135.845 268.758,136.065 268.909,135.931 C268.912,135.928 268.912,135.928 268.912,135.928 C269.044,135.946 268.35,135.368 266.278,133.294 L242.71,109.726 C240.629,107.645 240.055,106.955 240.074,107.089 C240.074,107.092 240.074,107.092 240.074,107.092 C239.987,107.19 240.853,106.933 243.726,106.359 L255.916,103.921 C256.831,103.74 257.13,103.669 257.627,103.475 C258.121,103.281 258.583,103.033 259.011,102.734 C259.602,102.284 260.035,101.886 260.433,101.454 L265.524,96.367 Z" />
        </g>
        <g id="Regular-M" transform="translate(0,200)">
            <path d="M449.789,121.509 L430.976,140.323 C429.677,141.621 429.677,143.727 430.976,145.026 C432.274,146.325 434.38,146.325 435.679,145.026 L454.493,126.212 C455.792,124.913 455.792,122.808 454.493,121.509 C453.194,120.21 451.088,120.21 449.789,121.509 Z M460.821,91.663 L455.633,96.852 C455.395,97.106 455.241,97.247 455.076,97.374 C455.201,97.282 455.201,97.282 455.201,97.282 C455.222,97.274 455.116,97.299 454.619,97.397 L442.423,99.837 C437.416,100.836 436.482,101.114 435.096,102.68 C433.811,104.128 433.22,106.072 433.485,107.996 C433.771,110.071 434.38,110.802 438.006,114.429 L461.573,137.995 C465.177,141.605 465.928,142.23 467.998,142.516 C469.922,142.784 471.868,142.196 473.324,140.906 C474.461,139.896 475.011,138.66 475.498,136.697 C475.68,135.964 475.809,135.352 476.165,133.581 L478.603,121.39 C478.66,121.046 478.709,120.843 478.776,120.645 C478.724,120.789 478.724,120.789 478.723,120.79 C478.695,120.83 478.695,120.83 478.688,120.84 C478.701,120.822 478.789,120.729 479.147,120.372 L484.338,115.181 C484.567,114.952 484.622,114.898 484.631,114.891 C484.626,114.895 484.626,114.895 484.62,114.9 C484.602,114.914 484.611,114.908 484.604,114.912 C484.601,114.913 484.601,114.913 484.586,114.921 C484.606,114.911 484.627,114.902 484.987,114.744 L493.26,111.2 C495.496,110.24 496.131,109.947 496.942,109.437 C497.765,108.919 498.416,108.328 498.913,107.565 C499.87,106.107 500.214,104.322 499.866,102.604 C499.824,102.407 499.824,102.407 499.773,102.216 C499.314,100.581 498.764,99.936 495.965,97.138 L478.864,80.033 C476.065,77.234 475.42,76.684 473.785,76.226 C473.595,76.175 473.595,76.175 473.4,76.133 C471.675,75.784 469.887,76.131 468.421,77.096 C467.674,77.585 467.089,78.228 466.576,79.04 C466.062,79.852 465.773,80.477 464.801,82.736 L461.246,91.04 C461.167,91.234 461.111,91.355 461.048,91.472 C461.09,91.396 461.091,91.395 461.091,91.395 C461.074,91.412 460.983,91.508 460.888,91.598 Z M465.458,96.432 C465.733,96.172 465.993,95.896 466.237,95.607 C466.515,95.259 466.704,94.979 466.871,94.685 C467.091,94.277 467.25,93.936 467.39,93.587 L470.913,85.36 C471.702,83.526 471.957,82.976 472.198,82.595 C472.24,82.528 472.2,82.572 472.072,82.656 C472.079,82.652 472.079,82.652 472.079,82.652 C472.03,82.641 472.03,82.641 471.989,82.63 C471.973,82.626 472.495,83.071 474.161,84.736 L491.261,101.841 C492.927,103.506 493.373,104.028 493.368,104.013 C493.357,103.972 493.357,103.972 493.348,103.927 C493.347,103.924 493.347,103.924 493.347,103.924 C493.426,103.803 493.469,103.763 493.399,103.807 C493.016,104.048 492.461,104.305 490.639,105.087 L482.343,108.641 C481.971,108.802 481.77,108.891 481.568,108.994 C481.434,109.064 481.434,109.064 481.292,109.144 C481.033,109.291 480.765,109.473 480.505,109.675 C480.411,109.75 480.411,109.75 480.358,109.794 C480.137,109.979 480.026,110.086 479.635,110.477 L474.443,115.669 C473.841,116.271 473.677,116.443 473.411,116.79 C473.343,116.88 473.343,116.88 473.276,116.973 C472.96,117.429 472.714,117.892 472.524,118.379 C472.286,119.076 472.147,119.645 472.056,120.223 L469.643,132.274 C469.31,133.928 469.191,134.498 469.043,135.094 C468.856,135.845 468.758,136.065 468.909,135.931 C468.912,135.928 468.912,135.928 468.912,135.928 C469.044,135.946 468.35,135.368 466.278,133.294 L442.71,109.726 C440.629,107.645 440.055,106.955 440.074,107.089 C440.074,107.092 440.074,107.092 440.074,107.092 C439.987,107.19 440.853,106.933 443.726,106.359 L455.916,103.921 C456.831,103.74 457.13,103.669 457.627,103.475 C458.121,103.281 458.583,103.033 459.011,102.734 C459.602,102.284 460.035,101.886 460.433,101.454 L465.524,96.367 Z" />
        </g>
        <g id="Black-M" transform="translate(0,200)">
            <path d="M649.789,121.509 L630.976,140.323 C629.677,141.621 629.677,143.727 630.976,145.026 C632.274,146.325 634.38,146.325 635.679,145.026 L654.493,126.212 C655.792,124.913 655.792,122.808 654.493,121.509 C653.194,120.21 651.088,120.21 649.789,121.509 Z M660.821,91.663 L655.633,96.852 C655.395,97.106 655.241,97.247 655.076,97.374 C655.201,97.282 655.201,97.282 655.201,97.282 C655.222,97.274 655.116,97.299 654.619,97.397 L642.423,99.837 C637.416,100.836 636.482,101.114 635.096,102.68 C633.811,104.128 633.22,106.072 633.485,107.996 C633.771,110.071 634.38,110.802 638.006,114.429 L661.573,137.995 C665.177,141.605 665.928,142.23 667.998,142.516 C669.922,142.784 671.868,142.196 673.324,140.906 C674.461,139.896 675.011,138.66 675.498,136.697 C675.68,135.964 675.809,135.352 676.164,133.581 L678.603,121.39 C678.66,121.046 678.709,120.843 678.776,120.645 C678.724,120.789 678.724,120.789 678.723,120.79 C678.695,120.83 678.695,120.83 678.688,120.84 C678.701,120.822 678.789,120.729 679.147,120.372 L684.338,115.181 C684.567,114.952 684.622,114.898 684.631,114.891 C684.626,114.895 684.626,114.895 684.62,114.9 C684.602,114.914 684.611,114.908 684.604,114.912 C684.602,114.913 684.602,114.913 684.586,114.921 C684.606,114.911 684.627,114.902 684.987,114.744 L693.26,111.2 C695.496,110.24 696.131,109.947 696.942,109.437 C697.765,108.919 698.416,108.328 698.913,107.565 C699.87,106.107 700.214,104.322 699.866,102.604 C699.824,102.407 699.824,102.407 699.773,102.216 C699.314,100.581 698.764,99.936 695.965,97.138 L678.864,80.033 C676.065,77.234 675.42,76.684 673.785,76.226 C673.595,76.175 673.595,76.175 673.4,76.133 C671.675,75.784 669.887,76.131 668.421,77.096 C667.674,77.585 667.089,78.228 666.576,79.04 C666.062,79.852 665.773,80.477 664.801,82.736 L661.246,91.04 C661.167,91.234 661.111,91.355 661.048,91.472 C661.09,91.396 661.091,91.395 661.091,91.395 C661.074,91.412 660.983,91.508 660.888,91.598 Z M665.458,96.432 C665.733,96.172 665.993,95.896 666.237,95.607 C666.515,95.259 666.704,94.979 666.872,94.685 C667.091,94.277 667.25,93.936 667.39,93.587 L670.913,85.36 C671.702,83.526 671.957,82.976 672.198,82.595 C672.24,82.528 672.2,82.572 672.072,82.656 C672.079,82.652 672.079,82.652 672.079,82.652 C672.03,82.641 672.03,82.641 671.989,82.63 C671.973,82.626 672.495,83.071 674.161,84.736 L691.261,101.841 C692.927,103.506 693.373,104.028 693.368,104.013 C693.357,103.972 693.357,103.972 693.348,103.927 C693.347,103.924 693.347,103.924 693.347,103.924 C693.426,103.803 693.469,103.763 693.399,103.807 C693.016,104.048 692.461,104.305 690.639,105.087 L682.343,108.641 C681.971,108.802 681.77,108.891 681.568,108.994 C681.434,109.064 681.434,109.064 681.292,109.144 C681.033,109.291 680.765,109.473 680.505,109.675 C680.411,109.75 680.411,109.75 680.358,109.794 C680.137,109.979 680.026,110.086 679.635,110.477 L674.443,115.669 C673.841,116.271 673.677,116.443 673.411,116.79 C673.343,116.88 673.343,116.88 673.276,116.973 C672.96,117.429 672.714,117.892 672.524,118.379 C672.286,119.076 672.147,119.645 672.056,120.223 L669.643,132.274 C669.31,133.928 669.191,134.498 669.043,135.094 C668.856,135.845 668.758,136.065 668.909,135.931 C668.912,135.928 668.912,135.928 668.912,135.928 C669.044,135.946 668.35,135.368 666.278,133.294 L642.71,109.726 C640.629,107.645 640.055,106.955 640.074,107.089 C640.074,107.092 640.074,107.092 640.074,107.092 C639.987,107.19 640.853,106.933 643.726,106.359 L655.916,103.921 C656.831,103.74 657.13,103.669 657.627,103.475 C658.121,103.281 658.583,103.033 659.011,102.734 C659.602,102.284 660.035,101.886 660.433,101.454 L665.524,96.367 Z" />
        </g>
    </g>
</svg>