<?xml version="1.0" encoding="UTF-8"?>
<svg height="600" width="800" xmlns="http://www.w3.org/2000/svg" xmlns:xlink="http://www.w3.org/1999/xlink">
    <g id="Notes" font-family="LucidaGrande, 'Lucida Grande', sans-serif" font-size="13">
        <rect fill="white" height="600.0" width="800.0" x="0.0" y="0.0" />
        <g font-size="13">
            <text x="18.0" y="176.0">Small</text>
            <text x="18.0" y="376.0">Medium</text>
            <text x="18.0" y="576.0">Large</text>
        </g>
        <g font-size="9">
            <text x="250.0" y="30.0">Ultralight</text>
            <text x="450.0" y="30.0">Regular</text>
            <text x="650.0" y="30.0">Black</text>
            <text id="template-version" fill="#505050" text-anchor="end" x="785.0" y="575.0">Template v.3.0</text>
            <a href="https://github.com/swhitty/SwiftDraw">
                <text fill="#505050" text-anchor="end" x="785.0" y="590.0">https://github.com/swhitty/SwiftDraw</text>
            </a>
        </g>
    </g>
    <g id="Guides" stroke="rgb(39, 170, 225)" stroke-width="0.5">
        <path id="Capline-S" d="M18,76 l800,0" />
        <path id="H-reference" d="M85,145.755 L87.685,145.755 L113.369,79.287 L114.052,79.287 L114.052,76 L112.148,76 L85,145.755 Z M95.693,121.536 L130.996,121.536 L130.263,119.313 L96.474,119.313 L95.693,121.536 Z M139.15,145.755 L141.787,145.755 L114.638,76 L113.466,76 L113.466,79.287 L139.15,145.755 Z" stroke="none" transform="translate(0,200)" />
        <path id="Baseline-S" d="M18,146 l800,0" />
        <path id="left-margin-Ultralight-M" d="M230,256 l0,110" />
        <path id="right-margin-Ultralight-M" d="M300,256 l0,110" />
        <path id="left-margin-Regular-M" d="M430,256 l0,110" />
        <path id="right-margin-Regular-M" d="M500,256 l0,110" />
        <path id="left-margin-Black-M" d="M630,256 l0,110" />
        <path id="right-margin-Black-M" d="M700,256 l0,110" />
        <path id="Capline-M" d="M18,276 l800,0" />
        <path id="Baseline-M" d="M18,346 l800,0" />
        <path id="Capline-L" d="M18,476 l800,0" />
        <path id="Baseline-L" d="M18,546 l800,0" />
    </g>
    <g id="Symbols">
        <g id="Ultralight-M" transform="translate(0,200)">
            <path d="M265,146 C284.33,146 300,130.33 300,111 C300,91.67 284.33,76 265,76 C245.67,76 230,91.67 230,111 C230,130.33 245.67,146 265,146 Z M265,139.636 C249.184,139.636 236.364,126.816 236.364,111 C236.364,95.184 249.184,82.364 265,82.364 C280.816,82.364 293.636,95.184 293.636,111 C293.636,126.816 280.816,139.636 265,139.636 Z" />
            <path d="M260.227,101.343 C260.227,100.418 260.233,100.102 260.254,99.873 C260.246,99.959 260.178,100.193 259.907,100.554 C259.634,100.918 259.212,101.149 258.752,101.182 C258.303,101.215 258.072,101.146 257.997,101.107 C258.201,101.213 258.47,101.379 259.25,101.88 L274.266,111.535 C274.929,111.96 275.156,112.112 275.303,112.227 C275.225,112.166 275.067,111.988 274.911,111.618 C274.744,111.224 274.744,110.776 274.912,110.38 C275.067,110.012 275.225,109.834 275.303,109.773 C275.156,109.888 274.929,110.04 274.268,110.464 L259.248,120.122 C258.47,120.621 258.201,120.787 257.997,120.893 C258.072,120.854 258.303,120.785 258.751,120.818 C259.217,120.852 259.64,121.085 259.916,121.455 C260.177,121.799 260.245,122.036 260.254,122.126 C260.233,121.898 260.227,121.582 260.227,120.657 L260.227,101.343 Z M253.864,101.343 L253.864,120.657 C253.864,123.599 253.906,124.06 254.827,125.276 C255.638,126.365 256.906,127.062 258.286,127.164 C259.806,127.274 260.221,127.059 262.687,125.476 L277.708,115.818 C279.852,114.442 280.228,114.148 280.773,112.859 C281.276,111.672 281.276,110.328 280.772,109.139 C280.228,107.852 279.851,107.558 277.705,106.181 L262.69,96.526 C260.221,94.941 259.806,94.726 258.292,94.835 C256.913,94.935 255.645,95.628 254.817,96.735 C253.906,97.945 253.864,98.411 253.864,101.343 Z" />
        </g>
        <g id="Regular-M" transform="translate(0,200)">
            <path d="M465,146 C484.33,146 500,130.33 500,111 C500,91.67 484.33,76 465,76 C445.67,76 430,91.67 430,111 C430,130.33 445.67,146 465,146 Z M465,139.636 C449.184,139.636 436.364,126.816 436.364,111 C436.364,95.184 449.184,82.364 465,82.364 C480.816,82.364 493.636,95.184 493.636,111 C493.636,126.816 480.816,139.636 465,139.636 Z" />
            <path d="M460.227,101.343 C460.227,100.418 460.233,100.102 460.254,99.873 C460.246,99.959 460.178,100.193 459.907,100.554 C459.634,100.918 459.212,101.149 458.752,101.182 C458.303,101.215 458.072,101.146 457.997,101.107 C458.201,101.213 458.47,101.379 459.25,101.88 L474.266,111.535 C474.929,111.96 475.156,112.112 475.303,112.227 C475.225,112.166 475.067,111.988 474.911,111.618 C474.744,111.224 474.744,110.776 474.912,110.38 C475.067,110.012 475.225,109.834 475.303,109.773 C475.156,109.888 474.929,110.04 474.268,110.464 L459.248,120.122 C458.47,120.621 458.201,120.787 457.997,120.893 C458.072,120.854 458.303,120.785 458.751,120.818 C459.217,120.852 459.64,121.085 459.916,121.455 C460.177,121.799 460.245,122.036 460.254,122.126 C460.233,121.898 460.227,121.582 460.227,120.657 L460.227,101.343 Z M453.864,101.343 L453.864,120.657 C453.864,123.599 453.906,124.06 454.827,125.276 C455.638,126.365 456.906,127.062 458.286,127.164 C459.806,127.274 460.221,127.059 462.687,125.476 L477.708,115.818 C479.852,114.442 480.228,114.148 480.773,112.859 C481.276,111.672 481.276,110.328 480.772,109.139 C480.228,107.852 479.851,107.558 477.705,106.181 L462.69,96.526 C460.221,94.941 459.806,94.726 458.292,94.835 C456.913,94.935 455.645,95.628 454.817,96.735 C453.906,97.945 453.864,98.411 453.864,101.343 Z" />
        </g>
        <g id="Black-M" transform="translate(0,200)">
            <path d="M665,146 C684.33,146 700,130.33 700,111 C700,91.67 684.33,76 665,76 C645.67,76 630,91.67 630,111 C630,130.33 645.67,146 665,146 Z M665,139.636 C649.184,139.636 636.364,126.816 636.364,111 C636.364,95.184 649.184,82.364 665,82.364 C680.816,82.364 693.636,95.184 693.636,111 C693.636,126.816 680.816,139.636 665,139.636 Z" />
            <path d="M660.227,101.343 C660.227,100.418 660.233,100.102 660.254,99.873 C660.246,99.959 660.178,100.193 659.907,100.554 C659.634,100.918 659.212,101.149 658.752,101.182 C658.303,101.215 658.072,101.146 657.997,101.107 C658.201,101.213 658.47,101.379 659.25,101.88 L674.266,111.535 C674.929,111.96 675.156,112.112 675.303,112.227 C675.225,112.166 675.067,111.988 674.911,111.618 C674.744,111.224 674.744,110.776 674.912,110.38 C675.067,110.012 675.225,109.834 675.303,109.773 C675.156,109.888 674.929,110.04 674.268,110.464 L659.248,120.122 C658.47,120.621 658.201,120.787 657.997,120.893 C658.072,120.854 658.303,120.785 658.751,120.818 C659.218,120.852 659.64,121.085 659.916,121.455 C660.177,121.799 660.245,122.036 660.254,122.126 C660.233,121.898 660.227,121.582 660.227,120.657 L660.227,101.343 Z M653.864,101.343 L653.864,120.657 C653.864,123.599 653.906,124.06 654.827,125.276 C655.638,126.365 656.906,127.062 658.286,127.164 C659.806,127.274 660.221,127.059 662.687,125.476 L677.708,115.818 C679.852,114.442 680.228,114.148 680.773,112.859 C681.276,111.672 681.276,110.328 680.772,109.139 C680.228,107.852 679.851,107.558 677.705,106.181 L662.69,96.526 C660.221,94.941 659.806,94.726 658.292,94.835 C656.913,94.935 655.645,95.628 654.817,96.735 C653.906,97.945 653.864,98.411 653.864,101.343 Z" />
        </g>
    </g>
</svg>