<?xml version="1.0" encoding="UTF-8"?>
<svg height="600" width="800" xmlns="http://www.w3.org/2000/svg" xmlns:xlink="http://www.w3.org/1999/xlink">
    <g id="Notes" font-family="LucidaGrande, 'Lucida Grande', sans-serif" font-size="13">
        <rect fill="white" height="600.0" width="800.0" x="0.0" y="0.0" />
        <g font-size="13">
            <text x="18.0" y="176.0">Small</text>
            <text x="18.0" y="376.0">Medium</text>
            <text x="18.0" y="576.0">Large</text>
        </g>
        <g font-size="9">
            <text x="250.0" y="30.0">Ultralight</text>
            <text x="450.0" y="30.0">Regular</text>
            <text x="650.0" y="30.0">Black</text>
            <text id="template-version" fill="#505050" text-anchor="end" x="785.0" y="575.0">Template v.3.0</text>
            <a href="https://github.com/swhitty/SwiftDraw">
                <text fill="#505050" text-anchor="end" x="785.0" y="590.0">https://github.com/swhitty/SwiftDraw</text>
            </a>
        </g>
    </g>
    <g id="Guides" stroke="rgb(39, 170, 225)" stroke-width="0.5">
        <path id="Capline-S" d="M18,76 l800,0" />
        <path id="H-reference" d="M85,145.755 L87.685,145.755 L113.369,79.287 L114.052,79.287 L114.052,76 L112.148,76 L85,145.755 Z M95.693,121.536 L130.996,121.536 L130.263,119.313 L96.474,119.313 L95.693,121.536 Z M139.15,145.755 L141.787,145.755 L114.638,76 L113.466,76 L113.466,79.287 L139.15,145.755 Z" stroke="none" transform="translate(0,200)" />
        <path id="Baseline-S" d="M18,146 l800,0" />
        <path id="left-margin-Ultralight-M" d="M230,256 l0,110" />
        <path id="right-margin-Ultralight-M" d="M300,256 l0,110" />
        <path id="left-margin-Regular-M" d="M430,256 l0,110" />
        <path id="right-margin-Regular-M" d="M500,256 l0,110" />
        <path id="left-margin-Black-M" d="M630,256 l0,110" />
        <path id="right-margin-Black-M" d="M700,256 l0,110" />
        <path id="Capline-M" d="M18,276 l800,0" />
        <path id="Baseline-M" d="M18,346 l800,0" />
        <path id="Capline-L" d="M18,476 l800,0" />
        <path id="Baseline-L" d="M18,546 l800,0" />
    </g>
    <g id="Symbols">
        <g id="Ultralight-M" transform="translate(0,200)">
            <path d="M254.792,89.125 C254.792,86.709 256.75,84.75 259.167,84.75 C261.583,84.75 263.542,86.709 263.542,89.125 L263.542,93.5 C263.542,95.111 264.848,96.417 266.458,96.417 L269.375,96.417 C273.983,96.417 275.095,96.492 275.983,96.86 C277.412,97.452 278.548,98.588 279.14,100.018 C279.508,100.905 279.583,102.017 279.583,106.625 C279.583,108.236 280.889,109.542 282.5,109.542 L286.875,109.542 C289.291,109.542 291.25,111.5 291.25,113.917 C291.25,116.333 289.291,118.292 286.875,118.292 L282.5,118.292 C280.889,118.292 279.583,119.598 279.583,121.208 L279.583,126.167 C279.583,131.706 279.475,133.029 278.947,134.065 C278.388,135.163 277.496,136.055 276.398,136.614 C275.362,137.142 274.039,137.25 268.5,137.25 L266.458,137.25 L266.458,140.167 L269.375,140.167 L269.375,135.062 C269.375,129.827 265.131,125.583 259.896,125.583 C254.661,125.583 250.417,129.827 250.417,135.062 L250.417,140.167 L253.333,137.25 L249.833,137.25 C244.294,137.25 242.971,137.142 241.935,136.614 C240.837,136.055 239.945,135.163 239.386,134.065 C238.858,133.029 238.75,131.706 238.75,126.167 L238.75,121.208 L235.833,124.125 L240.208,124.125 C245.846,124.125 250.417,119.555 250.417,113.917 C250.417,108.279 245.846,103.708 240.208,103.708 L235.833,103.708 L238.75,106.625 C238.75,102.017 238.826,100.905 239.193,100.017 C239.785,98.588 240.921,97.452 242.351,96.86 C243.239,96.492 244.35,96.417 248.958,96.417 L251.875,96.417 C253.486,96.417 254.792,95.111 254.792,93.5 L254.792,89.125 Z M248.958,89.125 L248.958,93.5 L251.875,90.583 L248.958,90.583 C243.373,90.583 242.044,90.674 240.12,91.47 C237.26,92.654 234.988,94.926 233.804,97.786 C233.007,99.71 232.917,101.039 232.917,106.625 C232.917,108.236 234.223,109.542 235.833,109.542 L240.208,109.542 C242.625,109.542 244.583,111.5 244.583,113.917 C244.583,116.333 242.625,118.292 240.208,118.292 L235.833,118.292 C234.223,118.292 232.917,119.598 232.917,121.208 L232.917,126.167 C232.917,132.878 233.047,134.473 234.188,136.713 C235.307,138.908 237.092,140.693 239.287,141.812 C241.527,142.953 243.122,143.083 249.833,143.083 L253.333,143.083 C254.944,143.083 256.25,141.777 256.25,140.167 L256.25,135.062 C256.25,133.049 257.882,131.417 259.896,131.417 C261.909,131.417 263.542,133.049 263.542,135.062 L263.542,140.167 C263.542,141.777 264.848,143.083 266.458,143.083 L268.5,143.083 C275.211,143.083 276.806,142.953 279.046,141.812 C281.242,140.693 283.026,138.908 284.145,136.713 C285.286,134.473 285.417,132.878 285.417,126.167 L285.417,121.208 L282.5,124.125 L286.875,124.125 C292.513,124.125 297.083,119.555 297.083,113.917 C297.083,108.279 292.513,103.708 286.875,103.708 L282.5,103.708 L285.417,106.625 C285.417,101.039 285.326,99.71 284.53,97.786 C283.346,94.926 281.074,92.654 278.214,91.47 C276.29,90.674 274.961,90.583 269.375,90.583 L266.458,90.583 L269.375,93.5 L269.375,89.125 C269.375,83.487 264.805,78.917 259.167,78.917 C253.529,78.917 248.958,83.487 248.958,89.125 Z" />
        </g>
        <g id="Regular-M" transform="translate(0,200)">
            <path d="M454.792,89.125 C454.792,86.709 456.75,84.75 459.167,84.75 C461.583,84.75 463.542,86.709 463.542,89.125 L463.542,93.5 C463.542,95.111 464.848,96.417 466.458,96.417 L469.375,96.417 C473.983,96.417 475.095,96.492 475.983,96.86 C477.412,97.452 478.548,98.588 479.14,100.018 C479.508,100.905 479.583,102.017 479.583,106.625 C479.583,108.236 480.889,109.542 482.5,109.542 L486.875,109.542 C489.291,109.542 491.25,111.5 491.25,113.917 C491.25,116.333 489.291,118.292 486.875,118.292 L482.5,118.292 C480.889,118.292 479.583,119.598 479.583,121.208 L479.583,126.167 C479.583,131.706 479.475,133.029 478.947,134.065 C478.388,135.163 477.496,136.055 476.398,136.614 C475.362,137.142 474.039,137.25 468.5,137.25 L466.458,137.25 L466.458,140.167 L469.375,140.167 L469.375,135.062 C469.375,129.827 465.131,125.583 459.896,125.583 C454.661,125.583 450.417,129.827 450.417,135.062 L450.417,140.167 L453.333,137.25 L449.833,137.25 C444.294,137.25 442.971,137.142 441.935,136.614 C440.837,136.055 439.945,135.163 439.386,134.065 C438.858,133.029 438.75,131.706 438.75,126.167 L438.75,121.208 L435.833,124.125 L440.208,124.125 C445.846,124.125 450.417,119.555 450.417,113.917 C450.417,108.279 445.846,103.708 440.208,103.708 L435.833,103.708 L438.75,106.625 C438.75,102.017 438.826,100.905 439.193,100.017 C439.785,98.588 440.921,97.452 442.351,96.86 C443.239,96.492 444.35,96.417 448.958,96.417 L451.875,96.417 C453.486,96.417 454.792,95.111 454.792,93.5 L454.792,89.125 Z M448.958,89.125 L448.958,93.5 L451.875,90.583 L448.958,90.583 C443.373,90.583 442.044,90.674 440.12,91.47 C437.26,92.654 434.988,94.926 433.804,97.786 C433.007,99.71 432.917,101.039 432.917,106.625 C432.917,108.236 434.223,109.542 435.833,109.542 L440.208,109.542 C442.625,109.542 444.583,111.5 444.583,113.917 C444.583,116.333 442.625,118.292 440.208,118.292 L435.833,118.292 C434.223,118.292 432.917,119.598 432.917,121.208 L432.917,126.167 C432.917,132.878 433.047,134.473 434.188,136.713 C435.307,138.908 437.092,140.693 439.287,141.812 C441.527,142.953 443.122,143.083 449.833,143.083 L453.333,143.083 C454.944,143.083 456.25,141.777 456.25,140.167 L456.25,135.062 C456.25,133.049 457.882,131.417 459.896,131.417 C461.909,131.417 463.542,133.049 463.542,135.062 L463.542,140.167 C463.542,141.777 464.848,143.083 466.458,143.083 L468.5,143.083 C475.211,143.083 476.806,142.953 479.046,141.812 C481.242,140.693 483.026,138.908 484.145,136.713 C485.286,134.473 485.417,132.878 485.417,126.167 L485.417,121.208 L482.5,124.125 L486.875,124.125 C492.513,124.125 497.083,119.555 497.083,113.917 C497.083,108.279 492.513,103.708 486.875,103.708 L482.5,103.708 L485.417,106.625 C485.417,101.039 485.326,99.71 484.53,97.786 C483.346,94.926 481.074,92.654 478.214,91.47 C476.29,90.674 474.961,90.583 469.375,90.583 L466.458,90.583 L469.375,93.5 L469.375,89.125 C469.375,83.487 464.805,78.917 459.167,78.917 C453.529,78.917 448.958,83.487 448.958,89.125 Z" />
        </g>
        <g id="Black-M" transform="translate(0,200)">
            <path d="M654.792,89.125 C654.792,86.709 656.75,84.75 659.167,84.75 C661.583,84.75 663.542,86.709 663.542,89.125 L663.542,93.5 C663.542,95.111 664.848,96.417 666.458,96.417 L669.375,96.417 C673.983,96.417 675.095,96.492 675.983,96.86 C677.412,97.452 678.548,98.588 679.14,100.018 C679.508,100.905 679.583,102.017 679.583,106.625 C679.583,108.236 680.889,109.542 682.5,109.542 L686.875,109.542 C689.291,109.542 691.25,111.5 691.25,113.917 C691.25,116.333 689.291,118.292 686.875,118.292 L682.5,118.292 C680.889,118.292 679.583,119.598 679.583,121.208 L679.583,126.167 C679.583,131.706 679.475,133.029 678.947,134.065 C678.388,135.163 677.496,136.055 676.398,136.614 C675.362,137.142 674.039,137.25 668.5,137.25 L666.458,137.25 L666.458,140.167 L669.375,140.167 L669.375,135.062 C669.375,129.827 665.131,125.583 659.896,125.583 C654.661,125.583 650.417,129.827 650.417,135.062 L650.417,140.167 L653.333,137.25 L649.833,137.25 C644.294,137.25 642.971,137.142 641.935,136.614 C640.837,136.055 639.945,135.163 639.386,134.065 C638.858,133.029 638.75,131.706 638.75,126.167 L638.75,121.208 L635.833,124.125 L640.208,124.125 C645.846,124.125 650.417,119.555 650.417,113.917 C650.417,108.279 645.846,103.708 640.208,103.708 L635.833,103.708 L638.75,106.625 C638.75,102.017 638.826,100.905 639.193,100.017 C639.785,98.588 640.921,97.452 642.351,96.86 C643.239,96.492 644.35,96.417 648.958,96.417 L651.875,96.417 C653.486,96.417 654.792,95.111 654.792,93.5 L654.792,89.125 Z M648.958,89.125 L648.958,93.5 L651.875,90.583 L648.958,90.583 C643.373,90.583 642.044,90.674 640.12,91.47 C637.26,92.654 634.988,94.926 633.804,97.786 C633.007,99.71 632.917,101.039 632.917,106.625 C632.917,108.236 634.222,109.542 635.833,109.542 L640.208,109.542 C642.625,109.542 644.583,111.5 644.583,113.917 C644.583,116.333 642.625,118.292 640.208,118.292 L635.833,118.292 C634.222,118.292 632.917,119.598 632.917,121.208 L632.917,126.167 C632.917,132.878 633.047,134.473 634.188,136.713 C635.307,138.908 637.092,140.693 639.287,141.812 C641.527,142.953 643.122,143.083 649.833,143.083 L653.333,143.083 C654.944,143.083 656.25,141.777 656.25,140.167 L656.25,135.062 C656.25,133.049 657.882,131.417 659.896,131.417 C661.909,131.417 663.542,133.049 663.542,135.062 L663.542,140.167 C663.542,141.777 664.848,143.083 666.458,143.083 L668.5,143.083 C675.211,143.083 676.806,142.953 679.046,141.812 C681.242,140.693 683.026,138.908 684.145,136.713 C685.286,134.473 685.417,132.878 685.417,126.167 L685.417,121.208 L682.5,124.125 L686.875,124.125 C692.513,124.125 697.083,119.555 697.083,113.917 C697.083,108.279 692.513,103.708 686.875,103.708 L682.5,103.708 L685.417,106.625 C685.417,101.039 685.326,99.71 684.53,97.786 C683.346,94.926 681.074,92.654 678.214,91.47 C676.29,90.674 674.961,90.583 669.375,90.583 L666.458,90.583 L669.375,93.5 L669.375,89.125 C669.375,83.487 664.805,78.917 659.167,78.917 C653.529,78.917 648.958,83.487 648.958,89.125 Z" />
        </g>
    </g>
</svg>