<?xml version="1.0" encoding="UTF-8"?>
<svg height="600" width="800" xmlns="http://www.w3.org/2000/svg" xmlns:xlink="http://www.w3.org/1999/xlink">
    <g id="Notes" font-family="LucidaGrande, 'Lucida Grande', sans-serif" font-size="13">
        <rect fill="white" height="600.0" width="800.0" x="0.0" y="0.0" />
        <g font-size="13">
            <text x="18.0" y="176.0">Small</text>
            <text x="18.0" y="376.0">Medium</text>
            <text x="18.0" y="576.0">Large</text>
        </g>
        <g font-size="9">
            <text x="250.0" y="30.0">Ultralight</text>
            <text x="450.0" y="30.0">Regular</text>
            <text x="650.0" y="30.0">Black</text>
            <text id="template-version" fill="#505050" text-anchor="end" x="785.0" y="575.0">Template v.3.0</text>
            <a href="https://github.com/swhitty/SwiftDraw">
                <text fill="#505050" text-anchor="end" x="785.0" y="590.0">https://github.com/swhitty/SwiftDraw</text>
            </a>
        </g>
    </g>
    <g id="Guides" stroke="rgb(39, 170, 225)" stroke-width="0.5">
        <path id="Capline-S" d="M18,76 l800,0" />
        <path id="H-reference" d="M85,145.755 L87.685,145.755 L113.369,79.287 L114.052,79.287 L114.052,76 L112.148,76 L85,145.755 Z M95.693,121.536 L130.996,121.536 L130.263,119.313 L96.474,119.313 L95.693,121.536 Z M139.15,145.755 L141.787,145.755 L114.638,76 L113.466,76 L113.466,79.287 L139.15,145.755 Z" stroke="none" transform="translate(0,200)" />
        <path id="Baseline-S" d="M18,146 l800,0" />
        <path id="left-margin-Ultralight-M" d="M221,256 l0,110" />
        <path id="right-margin-Ultralight-M" d="M309,256 l0,110" />
        <path id="left-margin-Regular-M" d="M421,256 l0,110" />
        <path id="right-margin-Regular-M" d="M509,256 l0,110" />
        <path id="left-margin-Black-M" d="M621,256 l0,110" />
        <path id="right-margin-Black-M" d="M709,256 l0,110" />
        <path id="Capline-M" d="M18,276 l800,0" />
        <path id="Baseline-M" d="M18,346 l800,0" />
        <path id="Capline-L" d="M18,476 l800,0" />
        <path id="Baseline-L" d="M18,546 l800,0" />
    </g>
    <g id="Symbols">
        <g id="Ultralight-M" transform="translate(0,200)">
            <path d="M246.34,107.978 C246.404,107.89 246.529,107.722 246.707,107.484 C247.007,107.084 247.346,106.638 247.716,106.158 C248.775,104.786 249.874,103.415 250.954,102.14 C251.42,101.589 251.873,101.068 252.31,100.581 C252.885,99.94 253.426,99.364 253.927,98.863 C259.421,93.365 267.923,92.244 274.654,96.128 C281.386,100.013 284.669,107.935 282.658,115.442 C280.647,122.95 273.844,128.171 266.072,128.171 C258.425,128.17 251.699,123.115 249.573,115.769 C249.243,114.631 248.053,113.975 246.914,114.304 C245.776,114.634 245.12,115.824 245.45,116.963 C248.108,126.144 256.514,132.462 266.072,132.463 C275.787,132.463 284.291,125.937 286.804,116.553 C289.318,107.169 285.214,97.266 276.8,92.411 C268.385,87.555 257.758,88.957 250.891,95.828 C250.331,96.388 249.738,97.019 249.115,97.714 C248.649,98.233 248.169,98.785 247.678,99.366 C246.551,100.696 245.413,102.116 244.318,103.536 C243.935,104.032 243.584,104.494 243.273,104.908 C243.085,105.159 242.952,105.339 242.879,105.438 C242.178,106.393 242.384,107.737 243.34,108.438 C244.295,109.139 245.638,108.933 246.34,107.978 Z M246.756,106.708 L246.756,93.83 C246.756,92.645 245.795,91.684 244.609,91.684 C243.424,91.684 242.463,92.645 242.463,93.83 L242.463,106.708 C242.463,107.893 243.424,108.854 244.609,108.854 C245.795,108.854 246.756,107.893 246.756,106.708 Z M244.609,108.854 L257.487,108.854 C258.673,108.854 259.633,107.893 259.633,106.708 C259.633,105.522 258.673,104.561 257.487,104.561 L244.609,104.561 C243.424,104.561 242.463,105.522 242.463,106.708 C242.463,107.893 243.424,108.854 244.609,108.854 Z" />
        </g>
        <g id="Regular-M" transform="translate(0,200)">
            <path d="M446.34,107.978 C446.404,107.89 446.529,107.722 446.707,107.484 C447.007,107.084 447.346,106.638 447.716,106.158 C448.775,104.786 449.874,103.415 450.953,102.14 C451.42,101.589 451.873,101.068 452.31,100.581 C452.885,99.94 453.426,99.364 453.927,98.863 C459.421,93.365 467.923,92.244 474.654,96.128 C481.386,100.013 484.669,107.935 482.658,115.442 C480.647,122.95 473.844,128.171 466.072,128.171 C458.425,128.17 451.699,123.115 449.573,115.769 C449.243,114.631 448.053,113.975 446.914,114.304 C445.776,114.634 445.12,115.824 445.45,116.963 C448.108,126.144 456.514,132.462 466.072,132.463 C475.787,132.463 484.291,125.937 486.804,116.553 C489.318,107.169 485.214,97.266 476.8,92.411 C468.385,87.555 457.758,88.957 450.891,95.828 C450.331,96.388 449.738,97.019 449.115,97.714 C448.649,98.233 448.169,98.785 447.678,99.366 C446.551,100.696 445.413,102.116 444.318,103.536 C443.935,104.032 443.584,104.494 443.273,104.908 C443.085,105.159 442.952,105.339 442.879,105.438 C442.178,106.393 442.384,107.737 443.34,108.438 C444.295,109.139 445.638,108.933 446.34,107.978 Z M446.756,106.708 L446.756,93.83 C446.756,92.645 445.795,91.684 444.609,91.684 C443.424,91.684 442.463,92.645 442.463,93.83 L442.463,106.708 C442.463,107.893 443.424,108.854 444.609,108.854 C445.795,108.854 446.756,107.893 446.756,106.708 Z M444.609,108.854 L457.487,108.854 C458.673,108.854 459.633,107.893 459.633,106.708 C459.633,105.522 458.673,104.561 457.487,104.561 L444.609,104.561 C443.424,104.561 442.463,105.522 442.463,106.708 C442.463,107.893 443.424,108.854 444.609,108.854 Z" />
        </g>
        <g id="Black-M" transform="translate(0,200)">
            <path d="M646.34,107.978 C646.404,107.89 646.529,107.722 646.707,107.484 C647.007,107.084 647.346,106.638 647.716,106.158 C648.775,104.786 649.874,103.415 650.953,102.14 C651.42,101.589 651.873,101.068 652.31,100.581 C652.885,99.94 653.426,99.364 653.927,98.863 C659.421,93.365 667.923,92.244 674.654,96.128 C681.386,100.013 684.669,107.935 682.658,115.442 C680.647,122.95 673.844,128.171 666.072,128.171 C658.425,128.17 651.699,123.115 649.573,115.769 C649.243,114.631 648.053,113.975 646.914,114.304 C645.776,114.634 645.12,115.824 645.45,116.963 C648.108,126.144 656.514,132.462 666.072,132.463 C675.787,132.463 684.291,125.937 686.804,116.553 C689.318,107.169 685.214,97.266 676.8,92.411 C668.385,87.555 657.758,88.957 650.891,95.828 C650.331,96.388 649.738,97.019 649.115,97.714 C648.649,98.233 648.169,98.785 647.678,99.366 C646.551,100.696 645.413,102.116 644.318,103.536 C643.935,104.032 643.584,104.494 643.273,104.908 C643.085,105.159 642.952,105.339 642.879,105.438 C642.178,106.393 642.384,107.737 643.339,108.438 C644.295,109.139 645.638,108.933 646.34,107.978 Z M646.756,106.708 L646.756,93.83 C646.756,92.645 645.795,91.684 644.609,91.684 C643.424,91.684 642.463,92.645 642.463,93.83 L642.463,106.708 C642.463,107.893 643.424,108.854 644.609,108.854 C645.795,108.854 646.756,107.893 646.756,106.708 Z M644.609,108.854 L657.487,108.854 C658.672,108.854 659.633,107.893 659.633,106.708 C659.633,105.522 658.672,104.561 657.487,104.561 L644.609,104.561 C643.424,104.561 642.463,105.522 642.463,106.708 C642.463,107.893 643.424,108.854 644.609,108.854 Z" />
        </g>
    </g>
</svg>