<?xml version="1.0" encoding="UTF-8"?>
<svg height="600" width="800" xmlns="http://www.w3.org/2000/svg" xmlns:xlink="http://www.w3.org/1999/xlink">
    <g id="Notes" font-family="LucidaGrande, 'Lucida Grande', sans-serif" font-size="13">
        <rect fill="white" height="600.0" width="800.0" x="0.0" y="0.0" />
        <g font-size="13">
            <text x="18.0" y="176.0">Small</text>
            <text x="18.0" y="376.0">Medium</text>
            <text x="18.0" y="576.0">Large</text>
        </g>
        <g font-size="9">
            <text x="250.0" y="30.0">Ultralight</text>
            <text x="450.0" y="30.0">Regular</text>
            <text x="650.0" y="30.0">Black</text>
            <text id="template-version" fill="#505050" text-anchor="end" x="785.0" y="575.0">Template v.3.0</text>
            <a href="https://github.com/swhitty/SwiftDraw">
                <text fill="#505050" text-anchor="end" x="785.0" y="590.0">https://github.com/swhitty/SwiftDraw</text>
            </a>
        </g>
    </g>
    <g id="Guides" stroke="rgb(39, 170, 225)" stroke-width="0.5">
        <path id="Capline-S" d="M18,76 l800,0" />
        <path id="H-reference" d="M85,145.755 L87.685,145.755 L113.369,79.287 L114.052,79.287 L114.052,76 L112.148,76 L85,145.755 Z M95.693,121.536 L130.996,121.536 L130.263,119.313 L96.474,119.313 L95.693,121.536 Z M139.15,145.755 L141.787,145.755 L114.638,76 L113.466,76 L113.466,79.287 L139.15,145.755 Z" stroke="none" transform="translate(0,200)" />
        <path id="Baseline-S" d="M18,146 l800,0" />
        <path id="left-margin-Ultralight-M" d="M221,256 l0,110" />
        <path id="right-margin-Ultralight-M" d="M309,256 l0,110" />
        <path id="left-margin-Regular-M" d="M421,256 l0,110" />
        <path id="right-margin-Regular-M" d="M509,256 l0,110" />
        <path id="left-margin-Black-M" d="M621,256 l0,110" />
        <path id="right-margin-Black-M" d="M709,256 l0,110" />
        <path id="Capline-M" d="M18,276 l800,0" />
        <path id="Baseline-M" d="M18,346 l800,0" />
        <path id="Capline-L" d="M18,476 l800,0" />
        <path id="Baseline-L" d="M18,546 l800,0" />
    </g>
    <g id="Symbols">
        <g id="Ultralight-M" transform="translate(0,200)">
            <path d="M261.423,91.529 L267.709,97.815 C268.527,98.633 269.854,98.633 270.672,97.815 C271.49,96.997 271.49,95.67 270.672,94.852 L264.386,88.566 C263.568,87.748 262.241,87.748 261.423,88.566 C260.605,89.384 260.605,90.711 261.423,91.529 Z M267.709,94.852 L261.423,101.137 C260.605,101.956 260.605,103.282 261.423,104.101 C262.241,104.919 263.568,104.919 264.386,104.101 L270.672,97.815 C271.49,96.997 271.49,95.67 270.672,94.852 C269.854,94.034 268.527,94.034 267.709,94.852 Z M269.19,94.238 L254.105,94.238 C249.284,94.238 248.138,94.332 246.529,95.151 C244.951,95.955 243.669,97.237 242.866,98.814 C242.046,100.424 241.952,101.569 241.952,106.39 L241.952,118.333 C241.952,119.668 241.96,119.988 242.025,120.479 C242.521,124.236 245.479,127.194 249.238,127.689 C249.726,127.755 250.046,127.762 251.381,127.762 C252.538,127.762 253.476,126.824 253.476,125.667 C253.476,124.509 252.538,123.571 251.381,123.571 C250.283,123.571 250.013,123.565 249.789,123.535 C247.906,123.287 246.427,121.808 246.179,119.928 C246.149,119.702 246.143,119.431 246.143,118.333 L246.143,106.39 C246.143,102.411 246.221,101.461 246.6,100.716 C247.001,99.928 247.642,99.287 248.431,98.885 C249.175,98.506 250.126,98.429 254.105,98.429 L269.19,98.429 C270.348,98.429 271.286,97.491 271.286,96.333 C271.286,95.176 270.348,94.238 269.19,94.238 Z M260.81,127.762 L275.895,127.762 C280.716,127.762 281.862,127.668 283.471,126.849 C285.049,126.045 286.331,124.763 287.134,123.186 C287.954,121.576 288.048,120.431 288.048,115.61 L288.048,103.667 C288.048,102.332 288.04,102.012 287.975,101.521 C287.479,97.764 284.521,94.806 280.762,94.311 C280.274,94.245 279.954,94.238 278.619,94.238 C277.462,94.238 276.524,95.176 276.524,96.333 C276.524,97.491 277.462,98.429 278.619,98.429 C279.717,98.429 279.987,98.435 280.211,98.465 C282.094,98.713 283.573,100.192 283.821,102.072 C283.851,102.298 283.857,102.569 283.857,103.667 L283.857,115.61 C283.857,119.589 283.779,120.539 283.4,121.284 C282.999,122.072 282.358,122.713 281.569,123.115 C280.825,123.494 279.874,123.571 275.895,123.571 L260.81,123.571 C259.652,123.571 258.714,124.509 258.714,125.667 C258.714,126.824 259.652,127.762 260.81,127.762 Z M259.328,127.148 L265.614,133.434 C266.432,134.252 267.759,134.252 268.577,133.434 C269.395,132.616 269.395,131.289 268.577,130.471 L262.291,124.185 C261.473,123.367 260.146,123.367 259.328,124.185 C258.51,125.003 258.51,126.33 259.328,127.148 Z M262.291,127.148 L268.577,120.863 C269.395,120.044 269.395,118.718 268.577,117.899 C267.759,117.081 266.432,117.081 265.614,117.899 L259.328,124.185 C258.51,125.003 258.51,126.33 259.328,127.148 C260.146,127.966 261.473,127.966 262.291,127.148 Z" />
        </g>
        <g id="Regular-M" transform="translate(0,200)">
            <path d="M461.423,91.529 L467.709,97.815 C468.527,98.633 469.854,98.633 470.672,97.815 C471.49,96.997 471.49,95.67 470.672,94.852 L464.386,88.566 C463.568,87.748 462.241,87.748 461.423,88.566 C460.605,89.384 460.605,90.711 461.423,91.529 Z M467.709,94.852 L461.423,101.137 C460.605,101.956 460.605,103.282 461.423,104.101 C462.241,104.919 463.568,104.919 464.386,104.101 L470.672,97.815 C471.49,96.997 471.49,95.67 470.672,94.852 C469.854,94.034 468.527,94.034 467.709,94.852 Z M469.19,94.238 L454.105,94.238 C449.284,94.238 448.138,94.332 446.529,95.151 C444.951,95.955 443.669,97.237 442.866,98.814 C442.046,100.424 441.952,101.569 441.952,106.39 L441.952,118.333 C441.952,119.668 441.96,119.988 442.025,120.479 C442.521,124.236 445.479,127.194 449.238,127.689 C449.726,127.755 450.046,127.762 451.381,127.762 C452.538,127.762 453.476,126.824 453.476,125.667 C453.476,124.509 452.538,123.571 451.381,123.571 C450.283,123.571 450.013,123.565 449.789,123.535 C447.906,123.287 446.427,121.808 446.179,119.928 C446.149,119.702 446.143,119.431 446.143,118.333 L446.143,106.39 C446.143,102.411 446.221,101.461 446.6,100.716 C447.001,99.928 447.642,99.287 448.431,98.885 C449.175,98.506 450.126,98.429 454.105,98.429 L469.19,98.429 C470.348,98.429 471.286,97.491 471.286,96.333 C471.286,95.176 470.348,94.238 469.19,94.238 Z M460.81,127.762 L475.895,127.762 C480.716,127.762 481.862,127.668 483.471,126.849 C485.049,126.045 486.331,124.763 487.134,123.186 C487.954,121.576 488.048,120.431 488.048,115.61 L488.048,103.667 C488.048,102.332 488.04,102.012 487.975,101.521 C487.479,97.764 484.521,94.806 480.762,94.311 C480.274,94.245 479.954,94.238 478.619,94.238 C477.462,94.238 476.524,95.176 476.524,96.333 C476.524,97.491 477.462,98.429 478.619,98.429 C479.717,98.429 479.987,98.435 480.211,98.465 C482.094,98.713 483.573,100.192 483.821,102.072 C483.851,102.298 483.857,102.569 483.857,103.667 L483.857,115.61 C483.857,119.589 483.779,120.539 483.4,121.284 C482.999,122.072 482.358,122.713 481.569,123.115 C480.825,123.494 479.874,123.571 475.895,123.571 L460.81,123.571 C459.652,123.571 458.714,124.509 458.714,125.667 C458.714,126.824 459.652,127.762 460.81,127.762 Z M459.328,127.148 L465.614,133.434 C466.432,134.252 467.759,134.252 468.577,133.434 C469.395,132.616 469.395,131.289 468.577,130.471 L462.291,124.185 C461.473,123.367 460.146,123.367 459.328,124.185 C458.51,125.003 458.51,126.33 459.328,127.148 Z M462.291,127.148 L468.577,120.863 C469.395,120.044 469.395,118.718 468.577,117.899 C467.759,117.081 466.432,117.081 465.614,117.899 L459.328,124.185 C458.51,125.003 458.51,126.33 459.328,127.148 C460.146,127.966 461.473,127.966 462.291,127.148 Z" />
        </g>
        <g id="Black-M" transform="translate(0,200)">
            <path d="M661.423,91.529 L667.709,97.815 C668.527,98.633 669.854,98.633 670.672,97.815 C671.49,96.997 671.49,95.67 670.672,94.852 L664.386,88.566 C663.568,87.748 662.241,87.748 661.423,88.566 C660.605,89.384 660.605,90.711 661.423,91.529 Z M667.709,94.852 L661.423,101.137 C660.605,101.956 660.605,103.282 661.423,104.101 C662.241,104.919 663.568,104.919 664.386,104.101 L670.672,97.815 C671.49,96.997 671.49,95.67 670.672,94.852 C669.854,94.034 668.527,94.034 667.709,94.852 Z M669.19,94.238 L654.105,94.238 C649.284,94.238 648.138,94.332 646.529,95.151 C644.951,95.955 643.669,97.237 642.866,98.814 C642.046,100.424 641.952,101.569 641.952,106.39 L641.952,118.333 C641.952,119.668 641.96,119.988 642.025,120.479 C642.521,124.236 645.479,127.194 649.238,127.689 C649.726,127.755 650.046,127.762 651.381,127.762 C652.538,127.762 653.476,126.824 653.476,125.667 C653.476,124.509 652.538,123.571 651.381,123.571 C650.283,123.571 650.013,123.565 649.789,123.535 C647.906,123.287 646.427,121.808 646.179,119.928 C646.149,119.702 646.143,119.431 646.143,118.333 L646.143,106.39 C646.143,102.411 646.221,101.461 646.6,100.716 C647.001,99.928 647.642,99.287 648.431,98.885 C649.175,98.506 650.126,98.429 654.105,98.429 L669.19,98.429 C670.348,98.429 671.286,97.491 671.286,96.333 C671.286,95.176 670.348,94.238 669.19,94.238 Z M660.81,127.762 L675.895,127.762 C680.716,127.762 681.862,127.668 683.471,126.849 C685.049,126.045 686.331,124.763 687.134,123.186 C687.954,121.576 688.048,120.431 688.048,115.61 L688.048,103.667 C688.048,102.332 688.04,102.012 687.975,101.521 C687.479,97.764 684.521,94.806 680.762,94.311 C680.274,94.245 679.954,94.238 678.619,94.238 C677.462,94.238 676.524,95.176 676.524,96.333 C676.524,97.491 677.462,98.429 678.619,98.429 C679.717,98.429 679.987,98.435 680.211,98.465 C682.094,98.713 683.573,100.192 683.821,102.072 C683.851,102.298 683.857,102.569 683.857,103.667 L683.857,115.61 C683.857,119.589 683.779,120.539 683.4,121.284 C682.999,122.072 682.358,122.713 681.569,123.115 C680.825,123.494 679.874,123.571 675.895,123.571 L660.81,123.571 C659.652,123.571 658.714,124.509 658.714,125.667 C658.714,126.824 659.652,127.762 660.81,127.762 Z M659.328,127.148 L665.614,133.434 C666.432,134.252 667.759,134.252 668.577,133.434 C669.395,132.616 669.395,131.289 668.577,130.471 L662.291,124.185 C661.473,123.367 660.146,123.367 659.328,124.185 C658.51,125.003 658.51,126.33 659.328,127.148 Z M662.291,127.148 L668.577,120.863 C669.395,120.044 669.395,118.718 668.577,117.899 C667.759,117.081 666.432,117.081 665.614,117.899 L659.328,124.185 C658.51,125.003 658.51,126.33 659.328,127.148 C660.146,127.966 661.473,127.966 662.291,127.148 Z" />
        </g>
    </g>
</svg>