<?xml version="1.0" encoding="UTF-8"?>
<svg height="600" width="800" xmlns="http://www.w3.org/2000/svg" xmlns:xlink="http://www.w3.org/1999/xlink">
    <g id="Notes" font-family="LucidaGrande, 'Lucida Grande', sans-serif" font-size="13">
        <rect fill="white" height="600.0" width="800.0" x="0.0" y="0.0" />
        <g font-size="13">
            <text x="18.0" y="176.0">Small</text>
            <text x="18.0" y="376.0">Medium</text>
            <text x="18.0" y="576.0">Large</text>
        </g>
        <g font-size="9">
            <text x="250.0" y="30.0">Ultralight</text>
            <text x="450.0" y="30.0">Regular</text>
            <text x="650.0" y="30.0">Black</text>
            <text id="template-version" fill="#505050" text-anchor="end" x="785.0" y="575.0">Template v.3.0</text>
            <a href="https://github.com/swhitty/SwiftDraw">
                <text fill="#505050" text-anchor="end" x="785.0" y="590.0">https://github.com/swhitty/SwiftDraw</text>
            </a>
        </g>
    </g>
    <g id="Guides" stroke="rgb(39, 170, 225)" stroke-width="0.5">
        <path id="Capline-S" d="M18,76 l800,0" />
        <path id="H-reference" d="M85,145.755 L87.685,145.755 L113.369,79.287 L114.052,79.287 L114.052,76 L112.148,76 L85,145.755 Z M95.693,121.536 L130.996,121.536 L130.263,119.313 L96.474,119.313 L95.693,121.536 Z M139.15,145.755 L141.787,145.755 L114.638,76 L113.466,76 L113.466,79.287 L139.15,145.755 Z" stroke="none" transform="translate(0,200)" />
        <path id="Baseline-S" d="M18,146 l800,0" />
        <path id="left-margin-Ultralight-M" d="M230,256 l0,110" />
        <path id="right-margin-Ultralight-M" d="M300,256 l0,110" />
        <path id="left-margin-Regular-M" d="M430,256 l0,110" />
        <path id="right-margin-Regular-M" d="M500,256 l0,110" />
        <path id="left-margin-Black-M" d="M630,256 l0,110" />
        <path id="right-margin-Black-M" d="M700,256 l0,110" />
        <path id="Capline-M" d="M18,276 l800,0" />
        <path id="Baseline-M" d="M18,346 l800,0" />
        <path id="Capline-L" d="M18,476 l800,0" />
        <path id="Baseline-L" d="M18,546 l800,0" />
    </g>
    <g id="Symbols">
        <g id="Ultralight-M" transform="translate(0,200)">
            <path d="M277.521,83.896 L289.188,95.562 C290.327,96.701 292.173,96.701 293.312,95.562 C294.451,94.423 294.451,92.577 293.312,91.438 L281.646,79.771 C280.507,78.632 278.66,78.632 277.521,79.771 C276.382,80.91 276.382,82.757 277.521,83.896 Z M289.188,91.438 L277.521,103.104 C276.382,104.243 276.382,106.09 277.521,107.229 C278.66,108.368 280.507,108.368 281.646,107.229 L293.312,95.562 C294.451,94.423 294.451,92.577 293.312,91.438 C292.173,90.299 290.327,90.299 289.188,91.438 Z M291.25,90.583 L252.75,90.583 C246.039,90.583 244.444,90.714 242.204,91.855 C240.008,92.974 238.224,94.758 237.105,96.953 C235.964,99.194 235.833,100.789 235.833,107.5 L235.833,108.083 C235.833,109.694 237.139,111 238.75,111 C240.361,111 241.667,109.694 241.667,108.083 L241.667,107.5 C241.667,101.961 241.775,100.638 242.303,99.601 C242.862,98.504 243.754,97.612 244.852,97.053 C245.888,96.525 247.211,96.417 252.75,96.417 L291.25,96.417 C292.861,96.417 294.167,95.111 294.167,93.5 C294.167,91.889 292.861,90.583 291.25,90.583 Z M238.75,131.417 L277.25,131.417 C283.961,131.417 285.556,131.286 287.796,130.145 C289.992,129.026 291.776,127.242 292.895,125.047 C294.036,122.806 294.167,121.211 294.167,114.5 L294.167,113.917 C294.167,112.306 292.861,111 291.25,111 C289.639,111 288.333,112.306 288.333,113.917 L288.333,114.5 C288.333,120.039 288.225,121.362 287.697,122.399 C287.138,123.496 286.246,124.388 285.148,124.947 C284.112,125.475 282.789,125.583 277.25,125.583 L238.75,125.583 C237.139,125.583 235.833,126.889 235.833,128.5 C235.833,130.111 237.139,131.417 238.75,131.417 Z M236.688,130.562 L248.354,142.229 C249.493,143.368 251.34,143.368 252.479,142.229 C253.618,141.09 253.618,139.243 252.479,138.104 L240.812,126.438 C239.673,125.299 237.827,125.299 236.688,126.438 C235.549,127.577 235.549,129.423 236.688,130.562 Z M240.812,130.562 L252.479,118.896 C253.618,117.757 253.618,115.91 252.479,114.771 C251.34,113.632 249.493,113.632 248.354,114.771 L236.688,126.438 C235.549,127.577 235.549,129.423 236.688,130.562 C237.827,131.701 239.673,131.701 240.812,130.562 Z" />
        </g>
        <g id="Regular-M" transform="translate(0,200)">
            <path d="M477.521,83.896 L489.188,95.562 C490.327,96.701 492.173,96.701 493.312,95.562 C494.451,94.423 494.451,92.577 493.312,91.438 L481.646,79.771 C480.507,78.632 478.66,78.632 477.521,79.771 C476.382,80.91 476.382,82.757 477.521,83.896 Z M489.188,91.438 L477.521,103.104 C476.382,104.243 476.382,106.09 477.521,107.229 C478.66,108.368 480.507,108.368 481.646,107.229 L493.312,95.562 C494.451,94.423 494.451,92.577 493.312,91.438 C492.173,90.299 490.327,90.299 489.188,91.438 Z M491.25,90.583 L452.75,90.583 C446.039,90.583 444.444,90.714 442.204,91.855 C440.008,92.974 438.224,94.758 437.105,96.953 C435.964,99.194 435.833,100.789 435.833,107.5 L435.833,108.083 C435.833,109.694 437.139,111 438.75,111 C440.361,111 441.667,109.694 441.667,108.083 L441.667,107.5 C441.667,101.961 441.775,100.638 442.303,99.601 C442.862,98.504 443.754,97.612 444.852,97.053 C445.888,96.525 447.211,96.417 452.75,96.417 L491.25,96.417 C492.861,96.417 494.167,95.111 494.167,93.5 C494.167,91.889 492.861,90.583 491.25,90.583 Z M438.75,131.417 L477.25,131.417 C483.961,131.417 485.556,131.286 487.796,130.145 C489.992,129.026 491.776,127.242 492.895,125.047 C494.036,122.806 494.167,121.211 494.167,114.5 L494.167,113.917 C494.167,112.306 492.861,111 491.25,111 C489.639,111 488.333,112.306 488.333,113.917 L488.333,114.5 C488.333,120.039 488.225,121.362 487.697,122.399 C487.138,123.496 486.246,124.388 485.148,124.947 C484.112,125.475 482.789,125.583 477.25,125.583 L438.75,125.583 C437.139,125.583 435.833,126.889 435.833,128.5 C435.833,130.111 437.139,131.417 438.75,131.417 Z M436.688,130.562 L448.354,142.229 C449.493,143.368 451.34,143.368 452.479,142.229 C453.618,141.09 453.618,139.243 452.479,138.104 L440.812,126.438 C439.673,125.299 437.827,125.299 436.688,126.438 C435.549,127.577 435.549,129.423 436.688,130.562 Z M440.812,130.562 L452.479,118.896 C453.618,117.757 453.618,115.91 452.479,114.771 C451.34,113.632 449.493,113.632 448.354,114.771 L436.688,126.438 C435.549,127.577 435.549,129.423 436.688,130.562 C437.827,131.701 439.673,131.701 440.812,130.562 Z" />
        </g>
        <g id="Black-M" transform="translate(0,200)">
            <path d="M677.521,83.896 L689.188,95.562 C690.327,96.701 692.173,96.701 693.312,95.562 C694.451,94.423 694.451,92.577 693.312,91.438 L681.646,79.771 C680.507,78.632 678.66,78.632 677.521,79.771 C676.382,80.91 676.382,82.757 677.521,83.896 Z M689.188,91.438 L677.521,103.104 C676.382,104.243 676.382,106.09 677.521,107.229 C678.66,108.368 680.507,108.368 681.646,107.229 L693.312,95.562 C694.451,94.423 694.451,92.577 693.312,91.438 C692.173,90.299 690.327,90.299 689.188,91.438 Z M691.25,90.583 L652.75,90.583 C646.039,90.583 644.444,90.714 642.204,91.855 C640.008,92.974 638.224,94.758 637.105,96.953 C635.964,99.194 635.833,100.789 635.833,107.5 L635.833,108.083 C635.833,109.694 637.139,111 638.75,111 C640.361,111 641.667,109.694 641.667,108.083 L641.667,107.5 C641.667,101.961 641.775,100.638 642.303,99.601 C642.862,98.504 643.754,97.612 644.852,97.053 C645.888,96.525 647.211,96.417 652.75,96.417 L691.25,96.417 C692.861,96.417 694.167,95.111 694.167,93.5 C694.167,91.889 692.861,90.583 691.25,90.583 Z M638.75,131.417 L677.25,131.417 C683.961,131.417 685.556,131.286 687.796,130.145 C689.992,129.026 691.776,127.242 692.895,125.047 C694.036,122.806 694.167,121.211 694.167,114.5 L694.167,113.917 C694.167,112.306 692.861,111 691.25,111 C689.639,111 688.333,112.306 688.333,113.917 L688.333,114.5 C688.333,120.039 688.225,121.362 687.697,122.399 C687.138,123.496 686.246,124.388 685.148,124.947 C684.112,125.475 682.789,125.583 677.25,125.583 L638.75,125.583 C637.139,125.583 635.833,126.889 635.833,128.5 C635.833,130.111 637.139,131.417 638.75,131.417 Z M636.688,130.562 L648.354,142.229 C649.493,143.368 651.34,143.368 652.479,142.229 C653.618,141.09 653.618,139.243 652.479,138.104 L640.812,126.438 C639.673,125.299 637.827,125.299 636.688,126.438 C635.549,127.577 635.549,129.423 636.688,130.562 Z M640.812,130.562 L652.479,118.896 C653.618,117.757 653.618,115.91 652.479,114.771 C651.34,113.632 649.493,113.632 648.354,114.771 L636.688,126.438 C635.549,127.577 635.549,129.423 636.688,130.562 C637.827,131.701 639.673,131.701 640.812,130.562 Z" />
        </g>
    </g>
</svg>