<?xml version="1.0" encoding="UTF-8"?>
<svg height="600" width="800" xmlns="http://www.w3.org/2000/svg" xmlns:xlink="http://www.w3.org/1999/xlink">
    <g id="Notes" font-family="LucidaGrande, 'Lucida Grande', sans-serif" font-size="13">
        <rect fill="white" height="600.0" width="800.0" x="0.0" y="0.0" />
        <g font-size="13">
            <text x="18.0" y="176.0">Small</text>
            <text x="18.0" y="376.0">Medium</text>
            <text x="18.0" y="576.0">Large</text>
        </g>
        <g font-size="9">
            <text x="250.0" y="30.0">Ultralight</text>
            <text x="450.0" y="30.0">Regular</text>
            <text x="650.0" y="30.0">Black</text>
            <text id="template-version" fill="#505050" text-anchor="end" x="785.0" y="575.0">Template v.3.0</text>
            <a href="https://github.com/swhitty/SwiftDraw">
                <text fill="#505050" text-anchor="end" x="785.0" y="590.0">https://github.com/swhitty/SwiftDraw</text>
            </a>
        </g>
    </g>
    <g id="Guides" stroke="rgb(39, 170, 225)" stroke-width="0.5">
        <path id="Capline-S" d="M18,76 l800,0" />
        <path id="H-reference" d="M85,145.755 L87.685,145.755 L113.369,79.287 L114.052,79.287 L114.052,76 L112.148,76 L85,145.755 Z M95.693,121.536 L130.996,121.536 L130.263,119.313 L96.474,119.313 L95.693,121.536 Z M139.15,145.755 L141.787,145.755 L114.638,76 L113.466,76 L113.466,79.287 L139.15,145.755 Z" stroke="none" transform="translate(0,200)" />
        <path id="Baseline-S" d="M18,146 l800,0" />
        <path id="left-margin-Ultralight-M" d="M230,256 l0,110" />
        <path id="right-margin-Ultralight-M" d="M300,256 l0,110" />
        <path id="left-margin-Regular-M" d="M430,256 l0,110" />
        <path id="right-margin-Regular-M" d="M500,256 l0,110" />
        <path id="left-margin-Black-M" d="M630,256 l0,110" />
        <path id="right-margin-Black-M" d="M700,256 l0,110" />
        <path id="Capline-M" d="M18,276 l800,0" />
        <path id="Baseline-M" d="M18,346 l800,0" />
        <path id="Capline-L" d="M18,476 l800,0" />
        <path id="Baseline-L" d="M18,546 l800,0" />
    </g>
    <g id="Symbols">
        <g id="Ultralight-M" transform="translate(0,200)">
            <path d="M266.488,119.28 L256.721,109.512 C255.449,108.241 253.388,108.241 252.117,109.512 C250.845,110.784 250.845,112.845 252.117,114.117 L261.884,123.884 C263.155,125.155 265.217,125.155 266.488,123.884 C267.76,122.612 267.76,120.551 266.488,119.28 Z M265.344,124.625 C270.095,122.818 274.653,120.539 278.949,117.822 C280.469,116.861 280.922,114.85 279.961,113.33 C279,111.81 276.989,111.357 275.469,112.318 C271.541,114.802 267.373,116.886 263.029,118.539 C261.348,119.178 260.504,121.058 261.143,122.739 C261.782,124.42 263.663,125.264 265.344,124.625 Z M260.93,121.582 L260.93,137.861 C260.93,139.891 262.769,141.427 264.768,141.064 C265.285,140.97 266.132,140.786 267.205,140.502 C268.989,140.029 270.776,139.436 272.468,138.706 C275.772,137.279 278.347,135.503 279.915,133.159 C281.444,130.866 282.056,127.952 282.027,124.559 C282.007,122.255 281.689,119.843 281.174,117.437 C280.857,115.954 280.536,114.786 280.31,114.079 C279.763,112.366 277.931,111.422 276.218,111.969 C274.505,112.516 273.561,114.348 274.108,116.061 C274.273,116.577 274.538,117.544 274.807,118.8 C275.237,120.81 275.5,122.805 275.515,124.616 C275.535,126.823 275.176,128.529 274.5,129.543 C273.773,130.629 272.145,131.753 269.887,132.727 C268.521,133.317 267.031,133.812 265.537,134.207 C264.644,134.444 263.962,134.592 263.605,134.657 L267.442,137.861 L267.442,121.582 C267.442,119.784 265.984,118.326 264.186,118.326 C262.388,118.326 260.93,119.784 260.93,121.582 Z M257.457,112.985 C259.11,108.695 261.193,104.582 263.672,100.71 C270.805,89.305 283.307,82.429 296.724,82.512 L293.488,79.257 C293.488,91.936 288.479,103.594 275.396,112.366 C273.903,113.367 273.504,115.39 274.505,116.883 C275.506,118.377 277.529,118.776 279.022,117.774 C294.104,107.662 300,93.94 300,79.257 C300,77.466 298.554,76.012 296.764,76.001 C281.088,75.904 266.482,83.937 258.17,97.228 C255.473,101.44 253.192,105.944 251.381,110.643 C250.734,112.321 251.57,114.206 253.248,114.852 C254.926,115.499 256.81,114.663 257.457,112.985 Z M254.419,108.559 L238.14,108.559 L241.343,112.396 C241.408,112.039 241.556,111.357 241.793,110.463 C242.189,108.97 242.683,107.48 243.273,106.113 C244.248,103.856 245.371,102.227 246.462,101.497 C247.471,100.824 249.177,100.466 251.385,100.485 C253.195,100.501 255.191,100.763 257.201,101.194 C258.456,101.462 259.423,101.728 259.939,101.893 C261.652,102.44 263.484,101.495 264.032,99.782 C264.579,98.069 263.634,96.237 261.921,95.69 C261.215,95.464 260.046,95.144 258.563,94.826 C256.157,94.311 253.745,93.994 251.441,93.974 C248.048,93.944 245.134,94.556 242.845,96.082 C240.497,97.653 238.721,100.228 237.295,103.532 C236.564,105.225 235.971,107.012 235.499,108.796 C235.214,109.868 235.03,110.716 234.936,111.233 C234.574,113.231 236.109,115.07 238.14,115.07 L254.419,115.07 C256.217,115.07 257.675,113.612 257.675,111.814 C257.675,110.016 256.217,108.559 254.419,108.559 Z M237.674,123.972 C235.371,125.907 233.66,128.961 232.301,132.87 C231.579,134.946 231.002,137.144 230.552,139.339 C230.282,140.656 230.112,141.692 230.029,142.313 C229.745,144.44 231.56,146.256 233.688,145.971 C234.308,145.888 235.344,145.718 236.662,145.448 C238.856,144.998 241.054,144.422 243.13,143.7 C247.039,142.34 250.094,140.63 252.028,138.327 C255.445,134.284 255.299,128.163 251.53,124.442 C247.667,120.755 241.71,120.57 237.67,123.976 Z M241.866,128.955 C243.365,127.691 245.576,127.76 246.994,129.114 C248.26,130.364 248.314,132.634 247.049,134.131 C246.031,135.342 243.889,136.542 240.992,137.55 C239.216,138.167 237.286,138.673 235.354,139.069 C234.195,139.307 233.305,139.453 232.825,139.517 L236.483,143.176 C236.547,142.696 236.694,141.806 236.931,140.647 C237.328,138.714 237.833,136.785 238.451,135.009 C239.459,132.111 240.658,129.969 241.862,128.958 Z" />
        </g>
        <g id="Regular-M" transform="translate(0,200)">
            <path d="M466.488,119.28 L456.721,109.512 C455.449,108.241 453.388,108.241 452.117,109.512 C450.845,110.784 450.845,112.845 452.117,114.117 L461.884,123.884 C463.155,125.155 465.217,125.155 466.488,123.884 C467.76,122.612 467.76,120.551 466.488,119.28 Z M465.344,124.625 C470.095,122.818 474.653,120.539 478.949,117.822 C480.469,116.861 480.922,114.85 479.961,113.33 C479,111.81 476.989,111.357 475.469,112.318 C471.541,114.802 467.373,116.886 463.029,118.539 C461.348,119.178 460.504,121.058 461.143,122.739 C461.782,124.42 463.663,125.264 465.344,124.625 Z M460.93,121.582 L460.93,137.861 C460.93,139.891 462.769,141.427 464.768,141.064 C465.285,140.97 466.132,140.786 467.205,140.502 C468.989,140.029 470.776,139.436 472.468,138.706 C475.772,137.279 478.347,135.503 479.915,133.159 C481.444,130.866 482.056,127.952 482.027,124.559 C482.007,122.255 481.689,119.843 481.174,117.437 C480.857,115.954 480.536,114.786 480.31,114.079 C479.763,112.366 477.931,111.422 476.218,111.969 C474.505,112.516 473.561,114.348 474.108,116.061 C474.273,116.577 474.538,117.544 474.807,118.8 C475.237,120.81 475.5,122.805 475.515,124.616 C475.535,126.823 475.176,128.529 474.5,129.543 C473.773,130.629 472.145,131.753 469.887,132.727 C468.521,133.317 467.031,133.812 465.537,134.207 C464.644,134.444 463.962,134.592 463.605,134.657 L467.442,137.861 L467.442,121.582 C467.442,119.784 465.984,118.326 464.186,118.326 C462.388,118.326 460.93,119.784 460.93,121.582 Z M457.457,112.985 C459.11,108.695 461.193,104.582 463.672,100.71 C470.805,89.305 483.307,82.429 496.724,82.512 L493.488,79.257 C493.488,91.936 488.479,103.594 475.396,112.366 C473.903,113.367 473.504,115.39 474.505,116.883 C475.506,118.377 477.529,118.776 479.022,117.774 C494.104,107.662 500,93.94 500,79.257 C500,77.466 498.554,76.012 496.764,76.001 C481.088,75.904 466.482,83.937 458.17,97.228 C455.473,101.44 453.192,105.944 451.381,110.643 C450.734,112.321 451.57,114.206 453.248,114.852 C454.926,115.499 456.81,114.663 457.457,112.985 Z M454.419,108.559 L438.14,108.559 L441.343,112.396 C441.408,112.039 441.556,111.357 441.793,110.463 C442.189,108.97 442.683,107.48 443.273,106.113 C444.248,103.856 445.371,102.227 446.462,101.497 C447.471,100.824 449.177,100.466 451.385,100.485 C453.195,100.501 455.191,100.763 457.201,101.194 C458.456,101.462 459.423,101.728 459.939,101.893 C461.652,102.44 463.484,101.495 464.032,99.782 C464.579,98.069 463.634,96.237 461.921,95.69 C461.215,95.464 460.046,95.144 458.563,94.826 C456.157,94.311 453.745,93.994 451.441,93.974 C448.048,93.944 445.134,94.556 442.845,96.082 C440.497,97.653 438.721,100.228 437.295,103.532 C436.564,105.225 435.971,107.012 435.499,108.796 C435.214,109.868 435.03,110.716 434.936,111.233 C434.574,113.231 436.109,115.07 438.14,115.07 L454.419,115.07 C456.217,115.07 457.675,113.612 457.675,111.814 C457.675,110.016 456.217,108.559 454.419,108.559 Z M437.674,123.972 C435.371,125.907 433.66,128.961 432.301,132.87 C431.579,134.946 431.002,137.144 430.552,139.339 C430.282,140.656 430.112,141.692 430.029,142.313 C429.745,144.44 431.56,146.256 433.688,145.971 C434.308,145.888 435.344,145.718 436.662,145.448 C438.856,144.998 441.054,144.422 443.13,143.7 C447.039,142.34 450.094,140.63 452.028,138.327 C455.445,134.284 455.299,128.163 451.53,124.442 C447.667,120.755 441.71,120.57 437.67,123.976 Z M441.866,128.955 C443.365,127.691 445.576,127.76 446.994,129.114 C448.26,130.364 448.314,132.634 447.049,134.131 C446.031,135.342 443.889,136.542 440.992,137.55 C439.216,138.167 437.286,138.673 435.354,139.069 C434.195,139.307 433.305,139.453 432.825,139.517 L436.483,143.176 C436.547,142.696 436.694,141.806 436.931,140.647 C437.328,138.714 437.833,136.785 438.451,135.009 C439.458,132.111 440.658,129.969 441.862,128.958 Z" />
        </g>
        <g id="Black-M" transform="translate(0,200)">
            <path d="M666.488,119.28 L656.721,109.512 C655.449,108.241 653.388,108.241 652.117,109.512 C650.845,110.784 650.845,112.845 652.117,114.117 L661.884,123.884 C663.155,125.155 665.217,125.155 666.488,123.884 C667.76,122.612 667.76,120.551 666.488,119.28 Z M665.344,124.625 C670.095,122.818 674.653,120.539 678.949,117.822 C680.469,116.861 680.922,114.85 679.961,113.33 C679,111.81 676.989,111.357 675.469,112.318 C671.541,114.802 667.373,116.886 663.029,118.539 C661.348,119.178 660.504,121.058 661.143,122.739 C661.782,124.42 663.663,125.264 665.344,124.625 Z M660.93,121.582 L660.93,137.861 C660.93,139.891 662.769,141.427 664.768,141.064 C665.285,140.97 666.132,140.786 667.205,140.502 C668.989,140.029 670.776,139.436 672.468,138.706 C675.772,137.279 678.347,135.503 679.915,133.159 C681.444,130.866 682.056,127.952 682.027,124.559 C682.007,122.255 681.689,119.843 681.174,117.437 C680.857,115.954 680.536,114.786 680.31,114.079 C679.763,112.366 677.931,111.422 676.218,111.969 C674.505,112.516 673.561,114.348 674.108,116.061 C674.273,116.577 674.538,117.544 674.807,118.8 C675.237,120.81 675.5,122.805 675.515,124.616 C675.535,126.823 675.176,128.529 674.5,129.543 C673.773,130.629 672.145,131.753 669.887,132.727 C668.521,133.317 667.031,133.812 665.537,134.207 C664.644,134.444 663.962,134.592 663.605,134.657 L667.442,137.861 L667.442,121.582 C667.442,119.784 665.984,118.326 664.186,118.326 C662.388,118.326 660.93,119.784 660.93,121.582 Z M657.457,112.985 C659.11,108.695 661.193,104.582 663.672,100.71 C670.805,89.305 683.307,82.429 696.724,82.512 L693.488,79.257 C693.488,91.936 688.479,103.594 675.396,112.366 C673.903,113.367 673.504,115.39 674.505,116.883 C675.506,118.377 677.529,118.776 679.022,117.774 C694.104,107.662 700,93.94 700,79.257 C700,77.466 698.554,76.012 696.764,76.001 C681.088,75.904 666.482,83.937 658.17,97.228 C655.473,101.44 653.192,105.944 651.381,110.643 C650.734,112.321 651.57,114.206 653.248,114.852 C654.926,115.499 656.81,114.663 657.457,112.985 Z M654.419,108.559 L638.14,108.559 L641.343,112.396 C641.408,112.039 641.556,111.357 641.793,110.463 C642.189,108.97 642.683,107.48 643.273,106.113 C644.248,103.856 645.371,102.227 646.462,101.497 C647.471,100.824 649.177,100.466 651.385,100.485 C653.195,100.501 655.191,100.763 657.201,101.194 C658.456,101.462 659.423,101.728 659.939,101.893 C661.652,102.44 663.484,101.495 664.032,99.782 C664.579,98.069 663.634,96.237 661.921,95.69 C661.215,95.464 660.046,95.144 658.563,94.826 C656.157,94.311 653.745,93.994 651.441,93.974 C648.048,93.944 645.134,94.556 642.845,96.082 C640.497,97.653 638.721,100.228 637.295,103.532 C636.564,105.225 635.971,107.012 635.499,108.796 C635.214,109.868 635.03,110.716 634.936,111.233 C634.574,113.231 636.109,115.07 638.14,115.07 L654.419,115.07 C656.217,115.07 657.674,113.612 657.674,111.814 C657.674,110.016 656.217,108.559 654.419,108.559 Z M637.674,123.972 C635.371,125.907 633.66,128.961 632.301,132.87 C631.579,134.946 631.002,137.144 630.552,139.339 C630.282,140.656 630.112,141.692 630.029,142.313 C629.745,144.44 631.56,146.256 633.688,145.971 C634.308,145.888 635.344,145.718 636.662,145.448 C638.856,144.998 641.054,144.422 643.13,143.7 C647.039,142.34 650.094,140.63 652.028,138.327 C655.445,134.284 655.299,128.163 651.53,124.442 C647.667,120.755 641.71,120.57 637.67,123.976 Z M641.866,128.955 C643.365,127.691 645.576,127.76 646.994,129.114 C648.26,130.364 648.314,132.634 647.049,134.131 C646.031,135.342 643.889,136.542 640.992,137.55 C639.216,138.167 637.286,138.673 635.354,139.069 C634.195,139.307 633.305,139.453 632.825,139.517 L636.483,143.176 C636.547,142.696 636.694,141.806 636.931,140.647 C637.328,138.714 637.833,136.785 638.451,135.009 C639.458,132.111 640.658,129.969 641.862,128.958 Z" />
        </g>
    </g>
</svg>