<?xml version="1.0" encoding="UTF-8"?>
<svg height="600" width="800" xmlns="http://www.w3.org/2000/svg" xmlns:xlink="http://www.w3.org/1999/xlink">
    <g id="Notes" font-family="LucidaGrande, 'Lucida Grande', sans-serif" font-size="13">
        <rect fill="white" height="600.0" width="800.0" x="0.0" y="0.0" />
        <g font-size="13">
            <text x="18.0" y="176.0">Small</text>
            <text x="18.0" y="376.0">Medium</text>
            <text x="18.0" y="576.0">Large</text>
        </g>
        <g font-size="9">
            <text x="250.0" y="30.0">Ultralight</text>
            <text x="450.0" y="30.0">Regular</text>
            <text x="650.0" y="30.0">Black</text>
            <text id="template-version" fill="#505050" text-anchor="end" x="785.0" y="575.0">Template v.3.0</text>
            <a href="https://github.com/swhitty/SwiftDraw">
                <text fill="#505050" text-anchor="end" x="785.0" y="590.0">https://github.com/swhitty/SwiftDraw</text>
            </a>
        </g>
    </g>
    <g id="Guides" stroke="rgb(39, 170, 225)" stroke-width="0.5">
        <path id="Capline-S" d="M18,76 l800,0" />
        <path id="H-reference" d="M85,145.755 L87.685,145.755 L113.369,79.287 L114.052,79.287 L114.052,76 L112.148,76 L85,145.755 Z M95.693,121.536 L130.996,121.536 L130.263,119.313 L96.474,119.313 L95.693,121.536 Z M139.15,145.755 L141.787,145.755 L114.638,76 L113.466,76 L113.466,79.287 L139.15,145.755 Z" stroke="none" transform="translate(0,200)" />
        <path id="Baseline-S" d="M18,146 l800,0" />
        <path id="left-margin-Ultralight-M" d="M230,256 l0,110" />
        <path id="right-margin-Ultralight-M" d="M300,256 l0,110" />
        <path id="left-margin-Regular-M" d="M430,256 l0,110" />
        <path id="right-margin-Regular-M" d="M500,256 l0,110" />
        <path id="left-margin-Black-M" d="M630,256 l0,110" />
        <path id="right-margin-Black-M" d="M700,256 l0,110" />
        <path id="Capline-M" d="M18,276 l800,0" />
        <path id="Baseline-M" d="M18,346 l800,0" />
        <path id="Capline-L" d="M18,476 l800,0" />
        <path id="Baseline-L" d="M18,546 l800,0" />
    </g>
    <g id="Symbols">
        <g id="Ultralight-M" transform="translate(0,200)">
            <path d="M256.25,105.167 L256.279,105.167 C257.89,105.167 259.196,103.861 259.196,102.25 C259.196,100.639 257.89,99.333 256.279,99.333 L256.25,99.333 C254.639,99.333 253.333,100.639 253.333,102.25 C253.333,103.861 254.639,105.167 256.25,105.167 Z M273.75,122.667 L273.779,122.667 C275.39,122.667 276.696,121.361 276.696,119.75 C276.696,118.139 275.39,116.833 273.779,116.833 L273.75,116.833 C272.139,116.833 270.833,118.139 270.833,119.75 C270.833,121.361 272.139,122.667 273.75,122.667 Z M274.604,97.271 L251.271,120.604 C250.132,121.743 250.132,123.59 251.271,124.729 C252.41,125.868 254.257,125.868 255.396,124.729 L278.729,101.396 C279.868,100.257 279.868,98.41 278.729,97.271 C277.59,96.132 275.743,96.132 274.604,97.271 Z M257.223,138.975 C257.408,138.95 257.595,139 257.742,139.114 L261.255,141.812 C263.465,143.506 266.535,143.506 268.74,141.812 L272.38,139.014 C272.445,138.965 272.527,138.943 272.608,138.954 L277.166,139.555 C279.928,139.914 282.582,138.38 283.648,135.814 L285.402,131.572 C285.435,131.493 285.493,131.435 285.568,131.404 L289.81,129.649 C292.381,128.591 293.917,125.929 293.556,123.169 L292.978,118.777 C292.953,118.589 293.003,118.402 293.117,118.255 L295.814,114.737 C297.507,112.534 297.507,109.463 295.811,107.256 L293.016,103.613 C292.966,103.548 292.944,103.466 292.954,103.385 L293.555,98.828 C293.918,96.067 292.381,93.409 289.81,92.345 L285.572,90.592 C285.493,90.56 285.435,90.501 285.404,90.427 L283.653,86.186 C282.59,83.61 279.926,82.072 277.164,82.439 L272.61,83.04 C272.523,83.051 272.445,83.031 272.383,82.983 L268.738,80.187 C266.534,78.493 263.463,78.493 261.256,80.189 L257.615,82.985 C257.553,83.032 257.465,83.056 257.378,83.044 L252.83,82.442 C250.066,82.082 247.411,83.618 246.348,86.187 L244.597,90.427 C244.567,90.498 244.501,90.564 244.418,90.599 L240.192,92.344 C237.618,93.409 236.083,96.066 236.444,98.825 L237.045,103.384 C237.056,103.464 237.033,103.549 236.982,103.616 L234.188,107.255 C232.493,109.46 232.493,112.531 234.189,114.738 L236.984,118.381 C237.036,118.448 237.057,118.526 237.046,118.603 L236.442,123.167 C236.081,125.931 237.615,128.588 240.187,129.652 L244.425,131.405 C244.504,131.438 244.562,131.496 244.593,131.571 L246.344,135.811 C247.409,138.385 250.069,139.919 252.828,139.559 L257.221,138.975 L256.836,136.083 L256.825,139 L256.828,139 L257.223,138.975 Z M256.455,133.192 L256.839,136.083 L256.85,133.167 L256.847,133.167 L256.452,133.192 L252.065,133.775 C251.927,133.793 251.789,133.714 251.735,133.583 L249.986,129.347 C249.364,127.837 248.163,126.636 246.651,126.013 L242.417,124.262 C242.285,124.207 242.207,124.072 242.225,123.929 L242.829,119.375 C243.045,117.76 242.606,116.12 241.608,114.825 L238.815,111.185 C238.729,111.072 238.729,110.919 238.814,110.809 L241.612,107.165 C242.603,105.868 243.04,104.238 242.829,102.625 L242.228,98.065 C242.21,97.925 242.288,97.79 242.42,97.735 L246.656,95.986 C248.166,95.355 249.358,94.163 249.984,92.664 L251.739,88.415 C251.792,88.286 251.928,88.207 252.07,88.226 L256.622,88.829 C258.242,89.037 259.868,88.602 261.159,87.618 L264.81,84.815 C264.922,84.729 265.075,84.729 265.185,84.814 L268.833,87.612 C270.129,88.606 271.767,89.041 273.384,88.821 L277.929,88.222 C278.072,88.203 278.207,88.281 278.261,88.412 L280.011,92.65 C280.633,94.16 281.834,95.361 283.347,95.984 L287.58,97.735 C287.712,97.79 287.79,97.926 287.772,98.067 L287.171,102.621 C286.957,104.236 287.395,105.871 288.388,107.165 L291.185,110.81 C291.271,110.922 291.271,111.075 291.186,111.185 L288.492,114.7 C287.434,116.072 286.966,117.817 287.195,119.542 L287.772,123.928 C287.79,124.069 287.712,124.205 287.585,124.257 L283.342,126.012 C281.834,126.633 280.633,127.834 280.01,129.347 L278.259,133.58 C278.205,133.71 278.067,133.79 277.923,133.771 L273.376,133.171 C271.762,132.956 270.128,133.393 268.831,134.385 L265.186,137.186 C265.075,137.271 264.919,137.271 264.805,137.184 L261.299,134.491 C259.925,133.432 258.18,132.963 256.455,133.192 Z M254.792,102.25 C254.792,101.445 255.445,100.792 256.25,100.792 C257.055,100.792 257.708,101.445 257.708,102.25 C257.708,103.055 257.055,103.708 256.25,103.708 C255.445,103.708 254.792,103.055 254.792,102.25 Z M260.625,102.25 C260.625,99.834 258.666,97.875 256.25,97.875 C253.834,97.875 251.875,99.834 251.875,102.25 C251.875,104.666 253.834,106.625 256.25,106.625 C258.666,106.625 260.625,104.666 260.625,102.25 Z M272.292,119.75 C272.292,118.945 272.945,118.292 273.75,118.292 C274.555,118.292 275.208,118.945 275.208,119.75 C275.208,120.555 274.555,121.208 273.75,121.208 C272.945,121.208 272.292,120.555 272.292,119.75 Z M278.125,119.75 C278.125,117.334 276.166,115.375 273.75,115.375 C271.334,115.375 269.375,117.334 269.375,119.75 C269.375,122.166 271.334,124.125 273.75,124.125 C276.166,124.125 278.125,122.166 278.125,119.75 Z" />
        </g>
        <g id="Regular-M" transform="translate(0,200)">
            <path d="M456.25,105.167 L456.279,105.167 C457.89,105.167 459.196,103.861 459.196,102.25 C459.196,100.639 457.89,99.333 456.279,99.333 L456.25,99.333 C454.639,99.333 453.333,100.639 453.333,102.25 C453.333,103.861 454.639,105.167 456.25,105.167 Z M473.75,122.667 L473.779,122.667 C475.39,122.667 476.696,121.361 476.696,119.75 C476.696,118.139 475.39,116.833 473.779,116.833 L473.75,116.833 C472.139,116.833 470.833,118.139 470.833,119.75 C470.833,121.361 472.139,122.667 473.75,122.667 Z M474.604,97.271 L451.271,120.604 C450.132,121.743 450.132,123.59 451.271,124.729 C452.41,125.868 454.257,125.868 455.396,124.729 L478.729,101.396 C479.868,100.257 479.868,98.41 478.729,97.271 C477.59,96.132 475.743,96.132 474.604,97.271 Z M457.223,138.975 C457.408,138.95 457.595,139 457.742,139.114 L461.255,141.812 C463.465,143.506 466.535,143.506 468.74,141.812 L472.38,139.014 C472.445,138.965 472.527,138.943 472.608,138.954 L477.166,139.555 C479.928,139.914 482.582,138.38 483.648,135.814 L485.402,131.572 C485.435,131.493 485.493,131.435 485.568,131.404 L489.81,129.649 C492.381,128.591 493.917,125.929 493.556,123.169 L492.978,118.777 C492.953,118.589 493.003,118.402 493.117,118.255 L495.814,114.737 C497.507,112.534 497.507,109.463 495.811,107.256 L493.016,103.613 C492.966,103.548 492.944,103.466 492.954,103.385 L493.555,98.828 C493.918,96.067 492.381,93.409 489.81,92.345 L485.572,90.592 C485.493,90.56 485.435,90.501 485.404,90.427 L483.653,86.186 C482.59,83.61 479.926,82.072 477.164,82.439 L472.61,83.04 C472.523,83.051 472.445,83.031 472.383,82.983 L468.738,80.187 C466.534,78.493 463.463,78.493 461.256,80.189 L457.615,82.985 C457.553,83.032 457.465,83.056 457.378,83.044 L452.83,82.442 C450.066,82.082 447.411,83.618 446.348,86.187 L444.597,90.427 C444.567,90.498 444.501,90.564 444.418,90.599 L440.192,92.344 C437.618,93.409 436.083,96.066 436.444,98.825 L437.045,103.384 C437.056,103.464 437.033,103.549 436.982,103.616 L434.188,107.255 C432.493,109.46 432.493,112.531 434.189,114.738 L436.984,118.381 C437.036,118.448 437.057,118.526 437.046,118.603 L436.442,123.167 C436.081,125.931 437.615,128.588 440.187,129.652 L444.425,131.405 C444.504,131.438 444.562,131.496 444.593,131.571 L446.344,135.811 C447.409,138.385 450.069,139.919 452.828,139.559 L457.221,138.975 L456.836,136.083 L456.825,139 L456.828,139 L457.223,138.975 Z M456.455,133.192 L456.839,136.083 L456.85,133.167 L456.847,133.167 L456.452,133.192 L452.065,133.775 C451.927,133.793 451.789,133.714 451.735,133.583 L449.986,129.347 C449.364,127.837 448.163,126.636 446.651,126.013 L442.417,124.262 C442.285,124.207 442.207,124.072 442.225,123.929 L442.828,119.375 C443.045,117.76 442.606,116.12 441.608,114.825 L438.815,111.185 C438.729,111.072 438.729,110.919 438.814,110.809 L441.612,107.165 C442.603,105.868 443.04,104.238 442.829,102.625 L442.228,98.065 C442.21,97.925 442.288,97.79 442.42,97.735 L446.656,95.986 C448.166,95.355 449.358,94.163 449.984,92.664 L451.739,88.415 C451.792,88.286 451.928,88.207 452.07,88.226 L456.622,88.829 C458.242,89.037 459.868,88.602 461.159,87.618 L464.81,84.815 C464.922,84.729 465.075,84.729 465.185,84.814 L468.833,87.612 C470.129,88.606 471.767,89.041 473.384,88.821 L477.929,88.222 C478.072,88.203 478.207,88.281 478.261,88.412 L480.011,92.65 C480.633,94.16 481.834,95.361 483.347,95.984 L487.58,97.735 C487.712,97.79 487.79,97.926 487.772,98.067 L487.171,102.621 C486.957,104.236 487.395,105.871 488.388,107.165 L491.185,110.81 C491.271,110.922 491.271,111.075 491.186,111.185 L488.492,114.7 C487.434,116.072 486.966,117.817 487.195,119.542 L487.772,123.928 C487.79,124.069 487.712,124.205 487.585,124.257 L483.342,126.012 C481.834,126.633 480.633,127.834 480.01,129.347 L478.259,133.58 C478.205,133.71 478.067,133.79 477.923,133.771 L473.376,133.171 C471.762,132.956 470.128,133.393 468.831,134.385 L465.186,137.186 C465.075,137.271 464.919,137.271 464.805,137.184 L461.299,134.491 C459.925,133.432 458.18,132.963 456.455,133.192 Z M454.792,102.25 C454.792,101.445 455.445,100.792 456.25,100.792 C457.055,100.792 457.708,101.445 457.708,102.25 C457.708,103.055 457.055,103.708 456.25,103.708 C455.445,103.708 454.792,103.055 454.792,102.25 Z M460.625,102.25 C460.625,99.834 458.666,97.875 456.25,97.875 C453.834,97.875 451.875,99.834 451.875,102.25 C451.875,104.666 453.834,106.625 456.25,106.625 C458.666,106.625 460.625,104.666 460.625,102.25 Z M472.292,119.75 C472.292,118.945 472.945,118.292 473.75,118.292 C474.555,118.292 475.208,118.945 475.208,119.75 C475.208,120.555 474.555,121.208 473.75,121.208 C472.945,121.208 472.292,120.555 472.292,119.75 Z M478.125,119.75 C478.125,117.334 476.166,115.375 473.75,115.375 C471.334,115.375 469.375,117.334 469.375,119.75 C469.375,122.166 471.334,124.125 473.75,124.125 C476.166,124.125 478.125,122.166 478.125,119.75 Z" />
        </g>
        <g id="Black-M" transform="translate(0,200)">
            <path d="M656.25,105.167 L656.279,105.167 C657.89,105.167 659.196,103.861 659.196,102.25 C659.196,100.639 657.89,99.333 656.279,99.333 L656.25,99.333 C654.639,99.333 653.333,100.639 653.333,102.25 C653.333,103.861 654.639,105.167 656.25,105.167 Z M673.75,122.667 L673.779,122.667 C675.39,122.667 676.696,121.361 676.696,119.75 C676.696,118.139 675.39,116.833 673.779,116.833 L673.75,116.833 C672.139,116.833 670.833,118.139 670.833,119.75 C670.833,121.361 672.139,122.667 673.75,122.667 Z M674.604,97.271 L651.271,120.604 C650.132,121.743 650.132,123.59 651.271,124.729 C652.41,125.868 654.257,125.868 655.396,124.729 L678.729,101.396 C679.868,100.257 679.868,98.41 678.729,97.271 C677.59,96.132 675.743,96.132 674.604,97.271 Z M657.223,138.975 C657.408,138.95 657.595,139 657.742,139.114 L661.255,141.812 C663.465,143.506 666.535,143.506 668.74,141.812 L672.38,139.014 C672.445,138.965 672.527,138.943 672.608,138.954 L677.166,139.555 C679.928,139.914 682.582,138.38 683.648,135.814 L685.402,131.572 C685.435,131.493 685.493,131.435 685.568,131.404 L689.81,129.649 C692.381,128.591 693.917,125.929 693.556,123.169 L692.978,118.777 C692.953,118.589 693.003,118.402 693.117,118.255 L695.813,114.737 C697.507,112.534 697.507,109.463 695.811,107.256 L693.016,103.613 C692.966,103.548 692.944,103.466 692.954,103.385 L693.555,98.828 C693.918,96.067 692.381,93.409 689.81,92.345 L685.572,90.592 C685.493,90.56 685.435,90.501 685.404,90.427 L683.653,86.186 C682.59,83.61 679.926,82.072 677.164,82.439 L672.61,83.04 C672.523,83.051 672.445,83.031 672.383,82.983 L668.738,80.187 C666.534,78.493 663.463,78.493 661.256,80.189 L657.615,82.985 C657.553,83.032 657.465,83.056 657.378,83.044 L652.83,82.442 C650.066,82.082 647.411,83.618 646.348,86.187 L644.597,90.427 C644.567,90.498 644.501,90.564 644.418,90.599 L640.192,92.344 C637.618,93.409 636.083,96.066 636.444,98.825 L637.045,103.384 C637.056,103.464 637.033,103.549 636.982,103.616 L634.188,107.255 C632.493,109.46 632.493,112.531 634.189,114.738 L636.984,118.381 C637.036,118.448 637.057,118.526 637.046,118.603 L636.442,123.167 C636.081,125.931 637.615,128.588 640.187,129.652 L644.425,131.405 C644.504,131.438 644.562,131.496 644.593,131.571 L646.344,135.811 C647.409,138.385 650.069,139.919 652.828,139.559 L657.221,138.975 L656.836,136.083 L656.825,139 L656.828,139 L657.223,138.975 Z M656.455,133.192 L656.839,136.083 L656.85,133.167 L656.847,133.167 L656.452,133.192 L652.065,133.775 C651.927,133.793 651.789,133.714 651.735,133.583 L649.986,129.347 C649.364,127.837 648.163,126.636 646.651,126.013 L642.417,124.262 C642.285,124.207 642.207,124.072 642.225,123.929 L642.828,119.375 C643.045,117.76 642.606,116.12 641.608,114.825 L638.815,111.185 C638.729,111.072 638.729,110.919 638.814,110.809 L641.612,107.165 C642.603,105.868 643.04,104.238 642.829,102.625 L642.228,98.065 C642.21,97.925 642.288,97.79 642.42,97.735 L646.656,95.986 C648.166,95.355 649.358,94.163 649.984,92.664 L651.739,88.415 C651.792,88.286 651.928,88.207 652.07,88.226 L656.622,88.829 C658.242,89.037 659.868,88.602 661.159,87.618 L664.81,84.815 C664.922,84.729 665.075,84.729 665.185,84.814 L668.833,87.612 C670.129,88.606 671.767,89.041 673.384,88.821 L677.929,88.222 C678.072,88.203 678.207,88.281 678.261,88.412 L680.011,92.65 C680.633,94.16 681.834,95.361 683.347,95.984 L687.58,97.735 C687.712,97.79 687.79,97.926 687.772,98.067 L687.171,102.621 C686.957,104.236 687.395,105.871 688.388,107.165 L691.185,110.81 C691.271,110.922 691.271,111.075 691.186,111.185 L688.492,114.7 C687.434,116.072 686.966,117.817 687.195,119.542 L687.772,123.928 C687.79,124.069 687.712,124.205 687.585,124.257 L683.342,126.012 C681.834,126.633 680.633,127.834 680.01,129.347 L678.259,133.58 C678.205,133.71 678.067,133.79 677.923,133.771 L673.376,133.171 C671.762,132.956 670.128,133.393 668.831,134.385 L665.186,137.186 C665.075,137.271 664.919,137.271 664.805,137.184 L661.299,134.491 C659.925,133.432 658.18,132.963 656.455,133.192 Z M654.792,102.25 C654.792,101.445 655.445,100.792 656.25,100.792 C657.055,100.792 657.708,101.445 657.708,102.25 C657.708,103.055 657.055,103.708 656.25,103.708 C655.445,103.708 654.792,103.055 654.792,102.25 Z M660.625,102.25 C660.625,99.834 658.666,97.875 656.25,97.875 C653.834,97.875 651.875,99.834 651.875,102.25 C651.875,104.666 653.834,106.625 656.25,106.625 C658.666,106.625 660.625,104.666 660.625,102.25 Z M672.292,119.75 C672.292,118.945 672.945,118.292 673.75,118.292 C674.555,118.292 675.208,118.945 675.208,119.75 C675.208,120.555 674.555,121.208 673.75,121.208 C672.945,121.208 672.292,120.555 672.292,119.75 Z M678.125,119.75 C678.125,117.334 676.166,115.375 673.75,115.375 C671.334,115.375 669.375,117.334 669.375,119.75 C669.375,122.166 671.334,124.125 673.75,124.125 C676.166,124.125 678.125,122.166 678.125,119.75 Z" />
        </g>
    </g>
</svg>