<?xml version="1.0" encoding="UTF-8"?>
<svg height="600" width="800" xmlns="http://www.w3.org/2000/svg" xmlns:xlink="http://www.w3.org/1999/xlink">
    <g id="Notes" font-family="LucidaGrande, 'Lucida Grande', sans-serif" font-size="13">
        <rect fill="white" height="600.0" width="800.0" x="0.0" y="0.0" />
        <g font-size="13">
            <text x="18.0" y="176.0">Small</text>
            <text x="18.0" y="376.0">Medium</text>
            <text x="18.0" y="576.0">Large</text>
        </g>
        <g font-size="9">
            <text x="250.0" y="30.0">Ultralight</text>
            <text x="450.0" y="30.0">Regular</text>
            <text x="650.0" y="30.0">Black</text>
            <text id="template-version" fill="#505050" text-anchor="end" x="785.0" y="575.0">Template v.3.0</text>
            <a href="https://github.com/swhitty/SwiftDraw">
                <text fill="#505050" text-anchor="end" x="785.0" y="590.0">https://github.com/swhitty/SwiftDraw</text>
            </a>
        </g>
    </g>
    <g id="Guides" stroke="rgb(39, 170, 225)" stroke-width="0.5">
        <path id="Capline-S" d="M18,76 l800,0" />
        <path id="H-reference" d="M85,145.755 L87.685,145.755 L113.369,79.287 L114.052,79.287 L114.052,76 L112.148,76 L85,145.755 Z M95.693,121.536 L130.996,121.536 L130.263,119.313 L96.474,119.313 L95.693,121.536 Z M139.15,145.755 L141.787,145.755 L114.638,76 L113.466,76 L113.466,79.287 L139.15,145.755 Z" stroke="none" transform="translate(0,200)" />
        <path id="Baseline-S" d="M18,146 l800,0" />
        <path id="left-margin-Ultralight-M" d="M230,256 l0,110" />
        <path id="right-margin-Ultralight-M" d="M300,256 l0,110" />
        <path id="left-margin-Regular-M" d="M430,256 l0,110" />
        <path id="right-margin-Regular-M" d="M500,256 l0,110" />
        <path id="left-margin-Black-M" d="M630,256 l0,110" />
        <path id="right-margin-Black-M" d="M700,256 l0,110" />
        <path id="Capline-M" d="M18,276 l800,0" />
        <path id="Baseline-M" d="M18,346 l800,0" />
        <path id="Capline-L" d="M18,476 l800,0" />
        <path id="Baseline-L" d="M18,546 l800,0" />
    </g>
    <g id="Symbols">
        <g id="Ultralight-M" transform="translate(0,200)">
            <path d="M234.583,119.004 L253.793,119.004 C255.562,119.004 256.995,117.571 256.995,115.803 C256.995,114.034 255.562,112.601 253.793,112.601 L234.583,112.601 C232.815,112.601 231.381,114.034 231.381,115.803 C231.381,117.571 232.815,119.004 234.583,119.004 Z M276.205,119.004 L295.415,119.004 C297.183,119.004 298.617,117.571 298.617,115.803 C298.617,114.034 297.183,112.601 295.415,112.601 L276.205,112.601 C274.437,112.601 273.003,114.034 273.003,115.803 C273.003,117.571 274.437,119.004 276.205,119.004 Z M261.797,96.592 L261.797,141.416 C261.797,143.184 263.231,144.618 264.999,144.618 C266.767,144.618 268.201,143.184 268.201,141.416 L268.201,96.592 C268.201,94.824 266.767,93.391 264.999,93.391 C263.231,93.391 261.797,94.824 261.797,96.592 Z M264.999,99.794 C267.971,99.794 270.821,98.613 272.923,96.512 C275.024,94.41 276.205,91.56 276.205,88.588 C276.205,86.82 274.772,85.387 273.003,85.387 C271.235,85.387 269.802,86.82 269.802,88.588 C269.802,89.862 269.296,91.083 268.395,91.984 C267.494,92.885 266.273,93.391 264.999,93.391 C263.231,93.391 261.797,94.824 261.797,96.592 C261.797,98.361 263.231,99.794 264.999,99.794 Z M264.999,93.391 C263.725,93.391 262.504,92.885 261.603,91.984 C260.703,91.083 260.197,89.862 260.197,88.588 C260.197,86.82 258.763,85.387 256.995,85.387 C255.227,85.387 253.793,86.82 253.793,88.588 C253.793,91.56 254.974,94.41 257.075,96.512 C259.177,98.613 262.027,99.794 264.999,99.794 C266.767,99.794 268.201,98.361 268.201,96.592 C268.201,94.824 266.767,93.391 264.999,93.391 Z M239.386,144.618 L290.613,144.618 C292.381,144.618 293.814,143.184 293.814,141.416 C293.814,139.648 292.381,138.214 290.613,138.214 L239.386,138.214 C237.617,138.214 236.184,139.648 236.184,141.416 C236.184,143.184 237.617,144.618 239.386,144.618 Z M239.386,91.79 L256.995,91.79 C258.763,91.79 260.197,90.356 260.197,88.588 C260.197,86.82 258.763,85.387 256.995,85.387 L239.386,85.387 C237.617,85.387 236.184,86.82 236.184,88.588 C236.184,90.356 237.617,91.79 239.386,91.79 Z M260.197,88.588 C260.197,85.936 262.347,83.786 264.999,83.786 C267.652,83.786 269.802,85.936 269.802,88.588 C269.802,90.356 271.235,91.79 273.003,91.79 C274.772,91.79 276.205,90.356 276.205,88.588 C276.205,82.399 271.188,77.382 264.999,77.382 C258.81,77.382 253.793,82.399 253.793,88.588 C253.793,90.356 255.227,91.79 256.995,91.79 C258.763,91.79 260.197,90.356 260.197,88.588 Z M273.003,91.79 L290.613,91.79 C292.381,91.79 293.814,90.356 293.814,88.588 C293.814,86.82 292.381,85.387 290.613,85.387 L273.003,85.387 C271.235,85.387 269.802,86.82 269.802,88.588 C269.802,90.356 271.235,91.79 273.003,91.79 Z M251.912,119.273 C250.972,122.88 247.813,125.408 244.188,125.408 C240.568,125.408 237.404,122.876 236.465,119.272 C236.414,119.088 236.399,118.957 236.405,118.826 C236.426,118.358 236.499,117.9 236.624,117.455 C236.631,117.448 236.679,117.336 236.744,117.212 C236.838,117.033 236.944,116.861 237.324,116.27 L246.875,101.536 L241.502,101.536 L251.062,116.283 C251.433,116.858 251.542,117.033 251.635,117.211 C251.7,117.335 251.748,117.448 251.803,117.611 C251.85,117.746 251.976,118.523 251.975,118.657 C251.971,119.089 251.979,119.028 251.917,119.263 L255.013,120.08 L255.01,116.878 L255.007,116.878 C253.551,116.88 252.279,117.864 251.912,119.273 Z M258.108,120.887 L255.01,120.08 L255.013,123.282 L255.016,123.282 C256.469,123.28 257.738,122.301 258.109,120.897 C258.307,120.145 258.37,119.674 258.378,118.703 C258.384,117.845 258.142,116.349 257.864,115.543 C257.708,115.083 257.528,114.659 257.304,114.233 C257.087,113.82 256.927,113.562 256.438,112.805 L246.875,98.052 C245.613,96.106 242.764,96.106 241.502,98.053 L231.945,112.796 C231.444,113.574 231.289,113.825 231.072,114.239 C230.85,114.663 230.67,115.085 230.509,115.563 C230.202,116.637 230.05,117.582 230.008,118.535 C229.97,119.344 230.063,120.16 230.284,120.945 C231.933,127.27 237.609,131.811 244.188,131.811 C250.774,131.811 256.444,127.273 258.108,120.887 Z M293.534,119.273 C292.593,122.88 289.435,125.408 285.81,125.408 C282.19,125.408 279.026,122.876 278.087,119.272 C278.05,119.134 278.05,119.134 278.041,119.094 C278.035,119.068 278.03,119.014 278.03,118.678 C278.046,118.353 278.118,117.904 278.242,117.469 C278.253,117.448 278.301,117.336 278.366,117.212 C278.46,117.033 278.566,116.861 278.946,116.27 L288.497,101.536 L283.124,101.536 L292.684,116.283 C293.055,116.858 293.164,117.033 293.257,117.211 C293.322,117.335 293.37,117.448 293.425,117.611 C293.472,117.746 293.598,118.523 293.597,118.657 C293.593,119.089 293.601,119.028 293.539,119.263 L296.635,120.08 L296.632,116.878 L296.629,116.878 C295.173,116.88 293.901,117.864 293.534,119.273 Z M299.73,120.887 L296.632,120.08 L296.635,123.282 L296.638,123.282 C298.09,123.28 299.36,122.301 299.731,120.897 C299.929,120.145 299.992,119.674 300,118.703 C300.005,117.845 299.763,116.349 299.486,115.543 C299.33,115.083 299.15,114.659 298.926,114.233 C298.709,113.82 298.549,113.562 298.06,112.805 L288.497,98.052 C287.235,96.106 284.385,96.106 283.123,98.053 L273.566,112.796 C273.066,113.574 272.911,113.826 272.694,114.239 C272.472,114.663 272.292,115.085 272.131,115.563 C271.821,116.632 271.668,117.587 271.629,118.55 C271.627,119.455 271.671,119.962 271.797,120.517 C271.851,120.739 271.851,120.739 271.893,120.897 C273.554,127.27 279.23,131.811 285.81,131.811 C292.395,131.811 298.066,127.273 299.73,120.887 Z" />
        </g>
        <g id="Regular-M" transform="translate(0,200)">
            <path d="M434.583,119.004 L453.793,119.004 C455.562,119.004 456.995,117.571 456.995,115.803 C456.995,114.034 455.562,112.601 453.793,112.601 L434.583,112.601 C432.815,112.601 431.382,114.034 431.382,115.803 C431.382,117.571 432.815,119.004 434.583,119.004 Z M476.205,119.004 L495.415,119.004 C497.183,119.004 498.617,117.571 498.617,115.803 C498.617,114.034 497.183,112.601 495.415,112.601 L476.205,112.601 C474.437,112.601 473.003,114.034 473.003,115.803 C473.003,117.571 474.437,119.004 476.205,119.004 Z M461.797,96.592 L461.797,141.416 C461.797,143.184 463.231,144.618 464.999,144.618 C466.767,144.618 468.201,143.184 468.201,141.416 L468.201,96.592 C468.201,94.824 466.767,93.391 464.999,93.391 C463.231,93.391 461.797,94.824 461.797,96.592 Z M464.999,99.794 C467.971,99.794 470.821,98.613 472.923,96.512 C475.024,94.41 476.205,91.56 476.205,88.588 C476.205,86.82 474.772,85.387 473.003,85.387 C471.235,85.387 469.802,86.82 469.802,88.588 C469.802,89.862 469.296,91.083 468.395,91.984 C467.494,92.885 466.273,93.391 464.999,93.391 C463.231,93.391 461.797,94.824 461.797,96.592 C461.797,98.361 463.231,99.794 464.999,99.794 Z M464.999,93.391 C463.725,93.391 462.504,92.885 461.603,91.984 C460.703,91.083 460.197,89.862 460.197,88.588 C460.197,86.82 458.763,85.387 456.995,85.387 C455.227,85.387 453.793,86.82 453.793,88.588 C453.793,91.56 454.974,94.41 457.075,96.512 C459.177,98.613 462.027,99.794 464.999,99.794 C466.767,99.794 468.201,98.361 468.201,96.592 C468.201,94.824 466.767,93.391 464.999,93.391 Z M439.386,144.618 L490.613,144.618 C492.381,144.618 493.814,143.184 493.814,141.416 C493.814,139.648 492.381,138.214 490.613,138.214 L439.386,138.214 C437.617,138.214 436.184,139.648 436.184,141.416 C436.184,143.184 437.617,144.618 439.386,144.618 Z M439.386,91.79 L456.995,91.79 C458.763,91.79 460.197,90.356 460.197,88.588 C460.197,86.82 458.763,85.387 456.995,85.387 L439.386,85.387 C437.617,85.387 436.184,86.82 436.184,88.588 C436.184,90.356 437.617,91.79 439.386,91.79 Z M460.197,88.588 C460.197,85.936 462.347,83.786 464.999,83.786 C467.652,83.786 469.802,85.936 469.802,88.588 C469.802,90.356 471.235,91.79 473.003,91.79 C474.772,91.79 476.205,90.356 476.205,88.588 C476.205,82.399 471.188,77.382 464.999,77.382 C458.81,77.382 453.793,82.399 453.793,88.588 C453.793,90.356 455.227,91.79 456.995,91.79 C458.763,91.79 460.197,90.356 460.197,88.588 Z M473.003,91.79 L490.613,91.79 C492.381,91.79 493.814,90.356 493.814,88.588 C493.814,86.82 492.381,85.387 490.613,85.387 L473.003,85.387 C471.235,85.387 469.802,86.82 469.802,88.588 C469.802,90.356 471.235,91.79 473.003,91.79 Z M451.912,119.273 C450.972,122.88 447.813,125.408 444.188,125.408 C440.568,125.408 437.404,122.876 436.465,119.272 C436.414,119.088 436.399,118.957 436.405,118.826 C436.426,118.358 436.499,117.9 436.625,117.455 C436.631,117.448 436.679,117.336 436.744,117.212 C436.838,117.033 436.944,116.861 437.324,116.27 L446.875,101.536 L441.502,101.536 L451.062,116.283 C451.433,116.858 451.542,117.033 451.635,117.211 C451.7,117.335 451.748,117.448 451.803,117.611 C451.85,117.746 451.976,118.523 451.975,118.657 C451.971,119.089 451.979,119.028 451.917,119.263 L455.013,120.08 L455.01,116.878 L455.007,116.878 C453.551,116.88 452.279,117.864 451.912,119.273 Z M458.108,120.887 L455.01,120.08 L455.013,123.282 L455.016,123.282 C456.469,123.28 457.738,122.301 458.109,120.897 C458.307,120.145 458.37,119.674 458.378,118.703 C458.384,117.845 458.142,116.349 457.864,115.543 C457.708,115.083 457.528,114.659 457.304,114.233 C457.087,113.82 456.927,113.562 456.438,112.805 L446.875,98.052 C445.613,96.106 442.764,96.106 441.502,98.053 L431.945,112.796 C431.444,113.574 431.289,113.825 431.072,114.239 C430.85,114.663 430.67,115.085 430.509,115.563 C430.202,116.637 430.05,117.582 430.008,118.535 C429.97,119.344 430.064,120.16 430.284,120.945 C431.933,127.27 437.609,131.811 444.188,131.811 C450.774,131.811 456.444,127.273 458.108,120.887 Z M493.534,119.273 C492.593,122.88 489.435,125.408 485.81,125.408 C482.19,125.408 479.026,122.876 478.087,119.272 C478.05,119.134 478.05,119.134 478.041,119.094 C478.035,119.068 478.03,119.014 478.03,118.678 C478.046,118.353 478.118,117.904 478.242,117.469 C478.253,117.448 478.301,117.336 478.366,117.212 C478.46,117.033 478.566,116.861 478.946,116.27 L488.497,101.536 L483.124,101.536 L492.684,116.283 C493.055,116.858 493.164,117.033 493.257,117.211 C493.322,117.335 493.37,117.448 493.425,117.611 C493.472,117.746 493.598,118.523 493.597,118.657 C493.593,119.089 493.601,119.028 493.539,119.263 L496.635,120.08 L496.632,116.878 L496.629,116.878 C495.173,116.88 493.901,117.864 493.534,119.273 Z M499.73,120.887 L496.632,120.08 L496.635,123.282 L496.638,123.282 C498.09,123.28 499.36,122.301 499.731,120.897 C499.929,120.145 499.992,119.674 500,118.703 C500.005,117.845 499.763,116.349 499.486,115.543 C499.33,115.083 499.15,114.659 498.926,114.233 C498.709,113.82 498.549,113.562 498.06,112.805 L488.497,98.052 C487.235,96.106 484.385,96.106 483.123,98.053 L473.566,112.796 C473.066,113.574 472.911,113.826 472.694,114.239 C472.472,114.663 472.292,115.085 472.131,115.563 C471.821,116.632 471.668,117.587 471.629,118.55 C471.627,119.455 471.671,119.962 471.797,120.517 C471.851,120.739 471.851,120.739 471.893,120.897 C473.554,127.27 479.23,131.811 485.81,131.811 C492.395,131.811 498.066,127.273 499.73,120.887 Z" />
        </g>
        <g id="Black-M" transform="translate(0,200)">
            <path d="M634.583,119.004 L653.793,119.004 C655.562,119.004 656.995,117.571 656.995,115.803 C656.995,114.034 655.562,112.601 653.793,112.601 L634.583,112.601 C632.815,112.601 631.381,114.034 631.381,115.803 C631.381,117.571 632.815,119.004 634.583,119.004 Z M676.205,119.004 L695.415,119.004 C697.183,119.004 698.617,117.571 698.617,115.803 C698.617,114.034 697.183,112.601 695.415,112.601 L676.205,112.601 C674.437,112.601 673.003,114.034 673.003,115.803 C673.003,117.571 674.437,119.004 676.205,119.004 Z M661.797,96.592 L661.797,141.416 C661.797,143.184 663.231,144.618 664.999,144.618 C666.767,144.618 668.201,143.184 668.201,141.416 L668.201,96.592 C668.201,94.824 666.767,93.391 664.999,93.391 C663.231,93.391 661.797,94.824 661.797,96.592 Z M664.999,99.794 C667.971,99.794 670.821,98.613 672.923,96.512 C675.024,94.41 676.205,91.56 676.205,88.588 C676.205,86.82 674.772,85.387 673.003,85.387 C671.235,85.387 669.802,86.82 669.802,88.588 C669.802,89.862 669.296,91.083 668.395,91.984 C667.494,92.885 666.273,93.391 664.999,93.391 C663.231,93.391 661.797,94.824 661.797,96.592 C661.797,98.361 663.231,99.794 664.999,99.794 Z M664.999,93.391 C663.725,93.391 662.504,92.885 661.603,91.984 C660.703,91.083 660.197,89.862 660.197,88.588 C660.197,86.82 658.763,85.387 656.995,85.387 C655.227,85.387 653.793,86.82 653.793,88.588 C653.793,91.56 654.974,94.41 657.075,96.512 C659.177,98.613 662.027,99.794 664.999,99.794 C666.767,99.794 668.201,98.361 668.201,96.592 C668.201,94.824 666.767,93.391 664.999,93.391 Z M639.386,144.618 L690.613,144.618 C692.381,144.618 693.814,143.184 693.814,141.416 C693.814,139.648 692.381,138.214 690.613,138.214 L639.386,138.214 C637.617,138.214 636.184,139.648 636.184,141.416 C636.184,143.184 637.617,144.618 639.386,144.618 Z M639.386,91.79 L656.995,91.79 C658.763,91.79 660.197,90.356 660.197,88.588 C660.197,86.82 658.763,85.387 656.995,85.387 L639.386,85.387 C637.617,85.387 636.184,86.82 636.184,88.588 C636.184,90.356 637.617,91.79 639.386,91.79 Z M660.197,88.588 C660.197,85.936 662.347,83.786 664.999,83.786 C667.652,83.786 669.802,85.936 669.802,88.588 C669.802,90.356 671.235,91.79 673.003,91.79 C674.772,91.79 676.205,90.356 676.205,88.588 C676.205,82.399 671.188,77.382 664.999,77.382 C658.81,77.382 653.793,82.399 653.793,88.588 C653.793,90.356 655.227,91.79 656.995,91.79 C658.763,91.79 660.197,90.356 660.197,88.588 Z M673.003,91.79 L690.613,91.79 C692.381,91.79 693.814,90.356 693.814,88.588 C693.814,86.82 692.381,85.387 690.613,85.387 L673.003,85.387 C671.235,85.387 669.802,86.82 669.802,88.588 C669.802,90.356 671.235,91.79 673.003,91.79 Z M651.912,119.273 C650.972,122.88 647.813,125.408 644.188,125.408 C640.568,125.408 637.404,122.876 636.465,119.272 C636.414,119.088 636.399,118.957 636.405,118.826 C636.426,118.358 636.499,117.9 636.625,117.455 C636.631,117.448 636.679,117.336 636.744,117.212 C636.838,117.033 636.944,116.861 637.324,116.27 L646.875,101.536 L641.502,101.536 L651.062,116.283 C651.433,116.858 651.542,117.033 651.635,117.211 C651.7,117.335 651.748,117.448 651.804,117.611 C651.85,117.746 651.976,118.523 651.975,118.657 C651.971,119.089 651.979,119.028 651.917,119.263 L655.013,120.08 L655.01,116.878 L655.007,116.878 C653.551,116.88 652.279,117.864 651.912,119.273 Z M658.108,120.887 L655.01,120.08 L655.013,123.282 L655.016,123.282 C656.469,123.28 657.738,122.301 658.109,120.897 C658.307,120.145 658.37,119.674 658.378,118.703 C658.384,117.845 658.142,116.349 657.864,115.543 C657.708,115.083 657.528,114.659 657.304,114.233 C657.087,113.82 656.927,113.562 656.438,112.805 L646.875,98.052 C645.613,96.106 642.764,96.106 641.502,98.053 L631.945,112.796 C631.444,113.574 631.289,113.825 631.073,114.239 C630.85,114.663 630.67,115.085 630.509,115.563 C630.202,116.637 630.05,117.582 630.008,118.535 C629.97,119.344 630.063,120.16 630.284,120.945 C631.933,127.27 637.609,131.811 644.188,131.811 C650.774,131.811 656.444,127.273 658.108,120.887 Z M693.534,119.273 C692.593,122.88 689.435,125.408 685.81,125.408 C682.19,125.408 679.026,122.876 678.086,119.272 C678.05,119.134 678.05,119.134 678.041,119.094 C678.035,119.068 678.03,119.014 678.03,118.678 C678.046,118.353 678.118,117.904 678.242,117.469 C678.253,117.448 678.301,117.336 678.366,117.212 C678.46,117.033 678.566,116.861 678.946,116.27 L688.497,101.536 L683.124,101.536 L692.684,116.283 C693.055,116.858 693.164,117.033 693.257,117.211 C693.322,117.335 693.37,117.448 693.425,117.611 C693.472,117.746 693.598,118.523 693.597,118.657 C693.593,119.089 693.601,119.028 693.539,119.263 L696.635,120.08 L696.632,116.878 L696.629,116.878 C695.173,116.88 693.901,117.864 693.534,119.273 Z M699.73,120.887 L696.632,120.08 L696.635,123.282 L696.638,123.282 C698.09,123.28 699.36,122.301 699.731,120.897 C699.929,120.145 699.992,119.674 700,118.703 C700.005,117.845 699.763,116.349 699.486,115.543 C699.33,115.083 699.15,114.659 698.926,114.233 C698.709,113.82 698.549,113.562 698.06,112.805 L688.497,98.052 C687.235,96.106 684.385,96.106 683.123,98.053 L673.566,112.796 C673.066,113.574 672.911,113.826 672.694,114.239 C672.472,114.663 672.292,115.085 672.131,115.563 C671.821,116.632 671.668,117.587 671.629,118.55 C671.627,119.455 671.671,119.962 671.797,120.517 C671.851,120.739 671.851,120.739 671.893,120.897 C673.554,127.27 679.23,131.811 685.81,131.811 C692.395,131.811 698.066,127.273 699.73,120.887 Z" />
        </g>
    </g>
</svg>