<?xml version="1.0" encoding="UTF-8"?>
<svg height="600" width="800" xmlns="http://www.w3.org/2000/svg" xmlns:xlink="http://www.w3.org/1999/xlink">
    <g id="Notes" font-family="LucidaGrande, 'Lucida Grande', sans-serif" font-size="13">
        <rect fill="white" height="600.0" width="800.0" x="0.0" y="0.0" />
        <g font-size="13">
            <text x="18.0" y="176.0">Small</text>
            <text x="18.0" y="376.0">Medium</text>
            <text x="18.0" y="576.0">Large</text>
        </g>
        <g font-size="9">
            <text x="250.0" y="30.0">Ultralight</text>
            <text x="450.0" y="30.0">Regular</text>
            <text x="650.0" y="30.0">Black</text>
            <text id="template-version" fill="#505050" text-anchor="end" x="785.0" y="575.0">Template v.3.0</text>
            <a href="https://github.com/swhitty/SwiftDraw">
                <text fill="#505050" text-anchor="end" x="785.0" y="590.0">https://github.com/swhitty/SwiftDraw</text>
            </a>
        </g>
    </g>
    <g id="Guides" stroke="rgb(39, 170, 225)" stroke-width="0.5">
        <path id="Capline-S" d="M18,76 l800,0" />
        <path id="H-reference" d="M85,145.755 L87.685,145.755 L113.369,79.287 L114.052,79.287 L114.052,76 L112.148,76 L85,145.755 Z M95.693,121.536 L130.996,121.536 L130.263,119.313 L96.474,119.313 L95.693,121.536 Z M139.15,145.755 L141.787,145.755 L114.638,76 L113.466,76 L113.466,79.287 L139.15,145.755 Z" stroke="none" transform="translate(0,200)" />
        <path id="Baseline-S" d="M18,146 l800,0" />
        <path id="left-margin-Ultralight-M" d="M230,256 l0,110" />
        <path id="right-margin-Ultralight-M" d="M300,256 l0,110" />
        <path id="left-margin-Regular-M" d="M430,256 l0,110" />
        <path id="right-margin-Regular-M" d="M500,256 l0,110" />
        <path id="left-margin-Black-M" d="M630,256 l0,110" />
        <path id="right-margin-Black-M" d="M700,256 l0,110" />
        <path id="Capline-M" d="M18,276 l800,0" />
        <path id="Baseline-M" d="M18,346 l800,0" />
        <path id="Capline-L" d="M18,476 l800,0" />
        <path id="Baseline-L" d="M18,546 l800,0" />
    </g>
    <g id="Symbols">
        <g id="Ultralight-M" transform="translate(0,200)">
            <path d="M236.364,128.5 L236.364,127.975 C236.364,126.796 236.371,126.529 236.403,126.306 C236.435,126.08 236.492,125.846 236.571,125.62 C236.581,125.59 236.581,125.59 236.586,125.575 C236.657,125.38 236.758,125.174 237.289,124.144 L248.672,102.237 C249.544,100.559 249.014,98.42 247.488,97.461 C245.962,96.502 244.019,97.085 243.147,98.763 L231.759,120.68 C231.041,122.073 230.904,122.354 230.677,122.977 C230.649,123.056 230.649,123.056 230.621,123.136 C230.391,123.799 230.22,124.503 230.116,125.22 C230.012,125.96 230,126.382 230,127.975 L230,128.5 C230,130.433 231.425,132 233.182,132 C234.939,132 236.364,130.433 236.364,128.5 Z M230,128.5 C230,138.165 237.123,146 245.909,146 C254.695,146 261.818,138.165 261.818,128.5 C261.818,126.567 260.394,125 258.636,125 C256.879,125 255.455,126.567 255.455,128.5 C255.455,134.299 251.181,139 245.909,139 C240.637,139 236.364,134.299 236.364,128.5 C236.364,126.567 234.939,125 233.182,125 C231.425,125 230,126.567 230,128.5 Z M236.364,128.5 L236.364,127.8 C236.364,127.238 236.366,127.047 236.375,126.933 C236.367,127.044 236.322,127.253 236.194,127.532 C236.032,127.881 235.788,128.148 235.488,128.315 C235.247,128.451 235.051,128.503 234.944,128.512 C235.046,128.503 235.218,128.5 235.727,128.5 L256.091,128.5 C256.6,128.5 256.773,128.503 256.874,128.512 C256.767,128.503 256.571,128.451 256.313,128.305 C256.023,128.142 255.78,127.875 255.627,127.547 C255.499,127.272 255.452,127.056 255.443,126.938 C255.452,127.05 255.455,127.24 255.455,127.8 L255.455,128.5 C255.455,130.433 256.879,132 258.636,132 C260.394,132 261.818,130.433 261.818,128.5 L261.818,127.8 C261.818,125.867 261.784,125.41 261.291,124.355 C260.838,123.379 260.11,122.578 259.214,122.075 C258.264,121.538 257.848,121.5 256.091,121.5 L235.727,121.5 C233.97,121.5 233.554,121.538 232.596,122.08 C231.713,122.571 230.982,123.373 230.522,124.359 C230.033,125.424 230,125.876 230,127.8 L230,128.5 C230,130.433 231.425,132 233.182,132 C234.939,132 236.364,130.433 236.364,128.5 Z M243.146,102.236 L254.531,124.153 C255.052,125.158 255.161,125.38 255.232,125.576 C255.237,125.59 255.237,125.59 255.242,125.604 C255.326,125.846 255.383,126.08 255.418,126.32 C255.447,126.529 255.455,126.796 255.455,127.975 L255.455,128.5 C255.455,130.433 256.879,132 258.636,132 C260.394,132 261.818,130.433 261.818,128.5 L261.818,127.975 C261.818,126.382 261.807,125.96 261.704,125.234 C261.599,124.503 261.427,123.799 261.192,123.12 C261.169,123.056 261.169,123.056 261.141,122.977 C260.913,122.348 260.759,122.035 260.057,120.682 L248.672,98.764 C247.8,97.085 245.856,96.502 244.331,97.461 C242.805,98.42 242.275,100.558 243.146,102.236 Z M246.432,103.952 L284.614,96.952 C286.347,96.635 287.518,94.831 287.229,92.925 C286.941,91.018 285.301,89.73 283.568,90.048 L245.386,97.048 C243.653,97.365 242.482,99.169 242.771,101.075 C243.059,102.982 244.699,104.27 246.432,103.952 Z M274.545,121.5 L274.545,120.975 C274.545,119.796 274.553,119.529 274.584,119.306 C274.618,119.076 274.675,118.842 274.75,118.626 C274.763,118.59 274.763,118.59 274.768,118.575 C274.839,118.38 274.94,118.174 275.471,117.144 L286.853,95.237 C287.725,93.559 287.195,91.42 285.67,90.461 C284.144,89.502 282.2,90.085 281.328,91.763 L269.941,113.68 C269.222,115.073 269.086,115.354 268.859,115.977 C268.831,116.056 268.831,116.056 268.803,116.136 C268.575,116.789 268.405,117.49 268.299,118.211 C268.193,118.96 268.182,119.382 268.182,120.975 L268.182,121.5 C268.182,123.433 269.606,125 271.364,125 C273.121,125 274.545,123.433 274.545,121.5 Z M268.182,121.5 C268.182,131.165 275.305,139 284.091,139 C292.877,139 300,131.165 300,121.5 C300,119.567 298.575,118 296.818,118 C295.061,118 293.636,119.567 293.636,121.5 C293.636,127.299 289.363,132 284.091,132 C278.819,132 274.545,127.299 274.545,121.5 C274.545,119.567 273.121,118 271.364,118 C269.606,118 268.182,119.567 268.182,121.5 Z M274.545,121.5 L274.545,120.8 C274.545,120.24 274.548,120.05 274.557,119.938 C274.548,120.056 274.501,120.272 274.368,120.556 C274.22,120.875 273.977,121.142 273.679,121.31 C273.429,121.451 273.233,121.503 273.126,121.512 C273.227,121.503 273.4,121.5 273.909,121.5 L294.273,121.5 C294.782,121.5 294.954,121.503 295.056,121.512 C294.949,121.503 294.753,121.451 294.495,121.305 C294.204,121.142 293.962,120.875 293.809,120.547 C293.681,120.272 293.634,120.056 293.625,119.938 C293.634,120.05 293.636,120.24 293.636,120.8 L293.636,121.5 C293.636,123.433 295.061,125 296.818,125 C298.575,125 300,123.433 300,121.5 L300,120.8 C300,118.867 299.966,118.41 299.473,117.355 C299.02,116.379 298.292,115.578 297.396,115.075 C296.446,114.538 296.03,114.5 294.273,114.5 L273.909,114.5 C272.152,114.5 271.736,114.538 270.778,115.08 C269.89,115.578 269.162,116.379 268.705,117.364 C268.216,118.41 268.182,118.867 268.182,120.8 L268.182,121.5 C268.182,123.433 269.606,125 271.364,125 C273.121,125 274.545,123.433 274.545,121.5 Z M281.328,95.236 L292.713,117.153 C293.234,118.158 293.343,118.38 293.414,118.576 C293.419,118.59 293.419,118.59 293.424,118.604 C293.507,118.842 293.564,119.076 293.601,119.329 C293.629,119.529 293.636,119.796 293.636,120.975 L293.636,121.5 C293.636,123.433 295.061,125 296.818,125 C298.575,125 300,123.433 300,121.5 L300,120.975 C300,119.382 299.988,118.96 299.886,118.234 C299.777,117.49 299.607,116.789 299.371,116.114 C299.351,116.056 299.351,116.056 299.323,115.977 C299.094,115.348 298.941,115.035 298.239,113.682 L286.854,91.764 C285.982,90.085 284.038,89.502 282.512,90.461 C280.987,91.42 280.456,93.558 281.328,95.236 Z M261.818,79.5 L261.818,97 C261.818,98.933 263.243,100.5 265,100.5 C266.757,100.5 268.182,98.933 268.182,97 L268.182,79.5 C268.182,77.567 266.757,76 265,76 C263.243,76 261.818,77.567 261.818,79.5 Z" />
        </g>
        <g id="Regular-M" transform="translate(0,200)">
            <path d="M436.364,128.5 L436.364,127.975 C436.364,126.796 436.371,126.529 436.403,126.306 C436.435,126.08 436.492,125.846 436.571,125.62 C436.581,125.59 436.581,125.59 436.586,125.575 C436.657,125.38 436.758,125.174 437.289,124.144 L448.672,102.237 C449.544,100.559 449.014,98.42 447.488,97.461 C445.962,96.502 444.019,97.085 443.147,98.763 L431.759,120.68 C431.04,122.073 430.904,122.354 430.677,122.977 C430.649,123.056 430.649,123.056 430.621,123.136 C430.391,123.799 430.22,124.503 430.116,125.22 C430.012,125.96 430,126.382 430,127.975 L430,128.5 C430,130.433 431.425,132 433.182,132 C434.939,132 436.364,130.433 436.364,128.5 Z M430,128.5 C430,138.165 437.123,146 445.909,146 C454.695,146 461.818,138.165 461.818,128.5 C461.818,126.567 460.394,125 458.636,125 C456.879,125 455.455,126.567 455.455,128.5 C455.455,134.299 451.181,139 445.909,139 C440.637,139 436.364,134.299 436.364,128.5 C436.364,126.567 434.939,125 433.182,125 C431.425,125 430,126.567 430,128.5 Z M436.364,128.5 L436.364,127.8 C436.364,127.238 436.366,127.047 436.375,126.933 C436.367,127.044 436.322,127.253 436.194,127.532 C436.032,127.881 435.788,128.148 435.488,128.315 C435.247,128.451 435.051,128.503 434.944,128.512 C435.046,128.503 435.218,128.5 435.727,128.5 L456.091,128.5 C456.6,128.5 456.773,128.503 456.874,128.512 C456.767,128.503 456.571,128.451 456.313,128.305 C456.023,128.142 455.78,127.875 455.627,127.547 C455.499,127.272 455.452,127.056 455.443,126.938 C455.452,127.05 455.455,127.24 455.455,127.8 L455.455,128.5 C455.455,130.433 456.879,132 458.636,132 C460.394,132 461.818,130.433 461.818,128.5 L461.818,127.8 C461.818,125.867 461.784,125.41 461.291,124.355 C460.838,123.379 460.11,122.578 459.214,122.075 C458.264,121.538 457.848,121.5 456.091,121.5 L435.727,121.5 C433.97,121.5 433.554,121.538 432.596,122.08 C431.713,122.571 430.982,123.373 430.522,124.359 C430.033,125.424 430,125.876 430,127.8 L430,128.5 C430,130.433 431.425,132 433.182,132 C434.939,132 436.364,130.433 436.364,128.5 Z M443.146,102.236 L454.531,124.153 C455.052,125.158 455.161,125.38 455.232,125.576 C455.237,125.59 455.237,125.59 455.242,125.604 C455.326,125.846 455.383,126.08 455.418,126.32 C455.447,126.529 455.455,126.796 455.455,127.975 L455.455,128.5 C455.455,130.433 456.879,132 458.636,132 C460.394,132 461.818,130.433 461.818,128.5 L461.818,127.975 C461.818,126.382 461.807,125.96 461.704,125.234 C461.599,124.503 461.427,123.799 461.192,123.12 C461.169,123.056 461.169,123.056 461.141,122.977 C460.913,122.348 460.759,122.035 460.057,120.682 L448.672,98.764 C447.8,97.085 445.856,96.502 444.331,97.461 C442.805,98.42 442.275,100.558 443.146,102.236 Z M446.432,103.952 L484.614,96.952 C486.347,96.635 487.518,94.831 487.229,92.925 C486.941,91.018 485.301,89.73 483.568,90.048 L445.386,97.048 C443.653,97.365 442.482,99.169 442.771,101.075 C443.059,102.982 444.699,104.27 446.432,103.952 Z M474.545,121.5 L474.545,120.975 C474.545,119.796 474.553,119.529 474.584,119.306 C474.618,119.076 474.675,118.842 474.75,118.626 C474.763,118.59 474.763,118.59 474.768,118.575 C474.839,118.38 474.94,118.174 475.471,117.144 L486.853,95.237 C487.725,93.559 487.195,91.42 485.67,90.461 C484.144,89.502 482.2,90.085 481.328,91.763 L469.941,113.68 C469.222,115.073 469.086,115.354 468.859,115.977 C468.831,116.056 468.831,116.056 468.803,116.136 C468.575,116.789 468.405,117.49 468.299,118.211 C468.193,118.96 468.182,119.382 468.182,120.975 L468.182,121.5 C468.182,123.433 469.606,125 471.364,125 C473.121,125 474.545,123.433 474.545,121.5 Z M468.182,121.5 C468.182,131.165 475.305,139 484.091,139 C492.877,139 500,131.165 500,121.5 C500,119.567 498.575,118 496.818,118 C495.061,118 493.636,119.567 493.636,121.5 C493.636,127.299 489.363,132 484.091,132 C478.819,132 474.545,127.299 474.545,121.5 C474.545,119.567 473.121,118 471.364,118 C469.606,118 468.182,119.567 468.182,121.5 Z M474.545,121.5 L474.545,120.8 C474.545,120.24 474.548,120.05 474.557,119.938 C474.548,120.056 474.501,120.272 474.368,120.556 C474.22,120.875 473.977,121.142 473.679,121.31 C473.429,121.451 473.233,121.503 473.126,121.512 C473.227,121.503 473.4,121.5 473.909,121.5 L494.273,121.5 C494.782,121.5 494.954,121.503 495.056,121.512 C494.949,121.503 494.753,121.451 494.495,121.305 C494.204,121.142 493.962,120.875 493.809,120.547 C493.681,120.272 493.634,120.056 493.625,119.938 C493.634,120.05 493.636,120.24 493.636,120.8 L493.636,121.5 C493.636,123.433 495.061,125 496.818,125 C498.575,125 500,123.433 500,121.5 L500,120.8 C500,118.867 499.966,118.41 499.473,117.355 C499.02,116.379 498.292,115.578 497.396,115.075 C496.446,114.538 496.03,114.5 494.273,114.5 L473.909,114.5 C472.152,114.5 471.736,114.538 470.778,115.08 C469.89,115.578 469.162,116.379 468.705,117.364 C468.216,118.41 468.182,118.867 468.182,120.8 L468.182,121.5 C468.182,123.433 469.606,125 471.364,125 C473.121,125 474.545,123.433 474.545,121.5 Z M481.328,95.236 L492.713,117.153 C493.234,118.158 493.343,118.38 493.414,118.576 C493.419,118.59 493.419,118.59 493.424,118.604 C493.507,118.842 493.564,119.076 493.601,119.329 C493.629,119.529 493.636,119.796 493.636,120.975 L493.636,121.5 C493.636,123.433 495.061,125 496.818,125 C498.575,125 500,123.433 500,121.5 L500,120.975 C500,119.382 499.988,118.96 499.886,118.234 C499.777,117.49 499.607,116.789 499.371,116.114 C499.351,116.056 499.351,116.056 499.323,115.977 C499.094,115.348 498.941,115.035 498.239,113.682 L486.854,91.764 C485.982,90.085 484.038,89.502 482.512,90.461 C480.987,91.42 480.456,93.558 481.328,95.236 Z M461.818,79.5 L461.818,97 C461.818,98.933 463.243,100.5 465,100.5 C466.757,100.5 468.182,98.933 468.182,97 L468.182,79.5 C468.182,77.567 466.757,76 465,76 C463.243,76 461.818,77.567 461.818,79.5 Z" />
        </g>
        <g id="Black-M" transform="translate(0,200)">
            <path d="M636.364,128.5 L636.364,127.975 C636.364,126.796 636.371,126.529 636.403,126.306 C636.435,126.08 636.492,125.846 636.571,125.62 C636.581,125.59 636.581,125.59 636.586,125.575 C636.657,125.38 636.758,125.174 637.289,124.144 L648.672,102.237 C649.544,100.559 649.014,98.42 647.488,97.461 C645.962,96.502 644.019,97.085 643.147,98.763 L631.759,120.68 C631.041,122.073 630.904,122.354 630.677,122.977 C630.649,123.056 630.649,123.056 630.621,123.136 C630.391,123.799 630.22,124.503 630.116,125.22 C630.012,125.96 630,126.382 630,127.975 L630,128.5 C630,130.433 631.425,132 633.182,132 C634.939,132 636.364,130.433 636.364,128.5 Z M630,128.5 C630,138.165 637.123,146 645.909,146 C654.695,146 661.818,138.165 661.818,128.5 C661.818,126.567 660.394,125 658.636,125 C656.879,125 655.455,126.567 655.455,128.5 C655.455,134.299 651.181,139 645.909,139 C640.637,139 636.364,134.299 636.364,128.5 C636.364,126.567 634.939,125 633.182,125 C631.425,125 630,126.567 630,128.5 Z M636.364,128.5 L636.364,127.8 C636.364,127.238 636.366,127.047 636.375,126.933 C636.367,127.044 636.322,127.253 636.194,127.532 C636.032,127.881 635.788,128.148 635.488,128.315 C635.247,128.451 635.051,128.503 634.944,128.512 C635.046,128.503 635.218,128.5 635.727,128.5 L656.091,128.5 C656.6,128.5 656.773,128.503 656.874,128.512 C656.767,128.503 656.571,128.451 656.313,128.305 C656.023,128.142 655.78,127.875 655.627,127.547 C655.499,127.272 655.452,127.056 655.443,126.938 C655.452,127.05 655.455,127.24 655.455,127.8 L655.455,128.5 C655.455,130.433 656.879,132 658.636,132 C660.394,132 661.818,130.433 661.818,128.5 L661.818,127.8 C661.818,125.867 661.784,125.41 661.291,124.355 C660.838,123.379 660.11,122.578 659.214,122.075 C658.264,121.538 657.848,121.5 656.091,121.5 L635.727,121.5 C633.97,121.5 633.554,121.538 632.596,122.08 C631.713,122.571 630.982,123.373 630.522,124.359 C630.033,125.424 630,125.876 630,127.8 L630,128.5 C630,130.433 631.425,132 633.182,132 C634.939,132 636.364,130.433 636.364,128.5 Z M643.146,102.236 L654.531,124.153 C655.052,125.158 655.161,125.38 655.232,125.576 C655.237,125.59 655.237,125.59 655.242,125.604 C655.326,125.846 655.383,126.08 655.418,126.32 C655.447,126.529 655.455,126.796 655.455,127.975 L655.455,128.5 C655.455,130.433 656.879,132 658.636,132 C660.394,132 661.818,130.433 661.818,128.5 L661.818,127.975 C661.818,126.382 661.807,125.96 661.704,125.234 C661.599,124.503 661.427,123.799 661.192,123.12 C661.169,123.056 661.169,123.056 661.141,122.977 C660.913,122.348 660.759,122.035 660.057,120.682 L648.672,98.764 C647.8,97.085 645.856,96.502 644.331,97.461 C642.805,98.42 642.275,100.558 643.146,102.236 Z M646.432,103.952 L684.614,96.952 C686.347,96.635 687.518,94.831 687.229,92.925 C686.941,91.018 685.301,89.73 683.568,90.048 L645.386,97.048 C643.653,97.365 642.482,99.169 642.771,101.075 C643.059,102.982 644.699,104.27 646.432,103.952 Z M674.545,121.5 L674.545,120.975 C674.545,119.796 674.553,119.529 674.584,119.306 C674.618,119.076 674.675,118.842 674.75,118.626 C674.763,118.59 674.763,118.59 674.768,118.575 C674.839,118.38 674.94,118.174 675.471,117.144 L686.853,95.237 C687.725,93.559 687.195,91.42 685.67,90.461 C684.144,89.502 682.2,90.085 681.328,91.763 L669.941,113.68 C669.222,115.073 669.086,115.354 668.859,115.977 C668.831,116.056 668.831,116.056 668.803,116.136 C668.575,116.789 668.405,117.49 668.299,118.211 C668.193,118.96 668.182,119.382 668.182,120.975 L668.182,121.5 C668.182,123.433 669.606,125 671.364,125 C673.121,125 674.545,123.433 674.545,121.5 Z M668.182,121.5 C668.182,131.165 675.305,139 684.091,139 C692.877,139 700,131.165 700,121.5 C700,119.567 698.575,118 696.818,118 C695.061,118 693.636,119.567 693.636,121.5 C693.636,127.299 689.363,132 684.091,132 C678.819,132 674.545,127.299 674.545,121.5 C674.545,119.567 673.121,118 671.364,118 C669.606,118 668.182,119.567 668.182,121.5 Z M674.545,121.5 L674.545,120.8 C674.545,120.24 674.548,120.05 674.557,119.938 C674.548,120.056 674.501,120.272 674.369,120.556 C674.22,120.875 673.977,121.142 673.679,121.31 C673.429,121.451 673.233,121.503 673.126,121.512 C673.227,121.503 673.4,121.5 673.909,121.5 L694.273,121.5 C694.782,121.5 694.954,121.503 695.056,121.512 C694.949,121.503 694.753,121.451 694.495,121.305 C694.204,121.142 693.962,120.875 693.809,120.547 C693.681,120.272 693.634,120.056 693.625,119.938 C693.634,120.05 693.636,120.24 693.636,120.8 L693.636,121.5 C693.636,123.433 695.061,125 696.818,125 C698.575,125 700,123.433 700,121.5 L700,120.8 C700,118.867 699.966,118.41 699.473,117.355 C699.02,116.379 698.292,115.578 697.396,115.075 C696.446,114.538 696.03,114.5 694.273,114.5 L673.909,114.5 C672.152,114.5 671.736,114.538 670.778,115.08 C669.89,115.578 669.162,116.379 668.705,117.364 C668.216,118.41 668.182,118.867 668.182,120.8 L668.182,121.5 C668.182,123.433 669.606,125 671.364,125 C673.121,125 674.545,123.433 674.545,121.5 Z M681.328,95.236 L692.713,117.153 C693.234,118.158 693.343,118.38 693.414,118.576 C693.419,118.59 693.419,118.59 693.424,118.604 C693.507,118.842 693.564,119.076 693.601,119.329 C693.629,119.529 693.636,119.796 693.636,120.975 L693.636,121.5 C693.636,123.433 695.061,125 696.818,125 C698.575,125 700,123.433 700,121.5 L700,120.975 C700,119.382 699.988,118.96 699.886,118.234 C699.777,117.49 699.607,116.789 699.371,116.114 C699.351,116.056 699.351,116.056 699.323,115.977 C699.094,115.348 698.941,115.035 698.239,113.682 L686.854,91.764 C685.982,90.085 684.038,89.502 682.512,90.461 C680.987,91.42 680.456,93.558 681.328,95.236 Z M661.818,79.5 L661.818,97 C661.818,98.933 663.243,100.5 665,100.5 C666.757,100.5 668.182,98.933 668.182,97 L668.182,79.5 C668.182,77.567 666.757,76 665,76 C663.243,76 661.818,77.567 661.818,79.5 Z" />
        </g>
    </g>
</svg>