<?xml version="1.0" encoding="UTF-8"?>
<svg height="600" width="800" xmlns="http://www.w3.org/2000/svg" xmlns:xlink="http://www.w3.org/1999/xlink">
    <g id="Notes" font-family="LucidaGrande, 'Lucida Grande', sans-serif" font-size="13">
        <rect fill="white" height="600.0" width="800.0" x="0.0" y="0.0" />
        <g font-size="13">
            <text x="18.0" y="176.0">Small</text>
            <text x="18.0" y="376.0">Medium</text>
            <text x="18.0" y="576.0">Large</text>
        </g>
        <g font-size="9">
            <text x="250.0" y="30.0">Ultralight</text>
            <text x="450.0" y="30.0">Regular</text>
            <text x="650.0" y="30.0">Black</text>
            <text id="template-version" fill="#505050" text-anchor="end" x="785.0" y="575.0">Template v.3.0</text>
            <a href="https://github.com/swhitty/SwiftDraw">
                <text fill="#505050" text-anchor="end" x="785.0" y="590.0">https://github.com/swhitty/SwiftDraw</text>
            </a>
        </g>
    </g>
    <g id="Guides" stroke="rgb(39, 170, 225)" stroke-width="0.5">
        <path id="Capline-S" d="M18,76 l800,0" />
        <path id="H-reference" d="M85,145.755 L87.685,145.755 L113.369,79.287 L114.052,79.287 L114.052,76 L112.148,76 L85,145.755 Z M95.693,121.536 L130.996,121.536 L130.263,119.313 L96.474,119.313 L95.693,121.536 Z M139.15,145.755 L141.787,145.755 L114.638,76 L113.466,76 L113.466,79.287 L139.15,145.755 Z" stroke="none" transform="translate(0,200)" />
        <path id="Baseline-S" d="M18,146 l800,0" />
        <path id="left-margin-Ultralight-M" d="M230,256 l0,110" />
        <path id="right-margin-Ultralight-M" d="M300,256 l0,110" />
        <path id="left-margin-Regular-M" d="M430,256 l0,110" />
        <path id="right-margin-Regular-M" d="M500,256 l0,110" />
        <path id="left-margin-Black-M" d="M630,256 l0,110" />
        <path id="right-margin-Black-M" d="M700,256 l0,110" />
        <path id="Capline-M" d="M18,276 l800,0" />
        <path id="Baseline-M" d="M18,346 l800,0" />
        <path id="Capline-L" d="M18,476 l800,0" />
        <path id="Baseline-L" d="M18,546 l800,0" />
    </g>
    <g id="Symbols">
        <g id="Ultralight-M" transform="translate(0,200)">
            <path d="M287.273,111 C287.273,116.907 284.926,122.572 280.749,126.749 C276.572,130.926 270.907,133.273 265,133.273 C263.243,133.273 261.818,134.697 261.818,136.455 C261.818,138.212 263.243,139.636 265,139.636 C272.595,139.636 279.879,136.619 285.249,131.249 C290.619,125.879 293.636,118.595 293.636,111 C293.636,109.243 292.212,107.818 290.455,107.818 C288.697,107.818 287.273,109.243 287.273,111 Z M293.636,111 C293.636,103.405 290.619,96.121 285.249,90.751 C279.879,85.381 272.595,82.364 265,82.364 C263.243,82.364 261.818,83.788 261.818,85.545 C261.818,87.303 263.243,88.727 265,88.727 C270.907,88.727 276.572,91.074 280.749,95.251 C284.926,99.428 287.273,105.093 287.273,111 C287.273,112.757 288.697,114.182 290.455,114.182 C292.212,114.182 293.636,112.757 293.636,111 Z M290.455,107.818 L239.545,107.818 C237.788,107.818 236.364,109.243 236.364,111 C236.364,112.757 237.788,114.182 239.545,114.182 L290.455,114.182 C292.212,114.182 293.636,112.757 293.636,111 C293.636,109.243 292.212,107.818 290.455,107.818 Z M265,133.273 C259.093,133.273 253.428,130.926 249.251,126.749 C245.074,122.572 242.727,116.907 242.727,111 C242.727,109.243 241.303,107.818 239.545,107.818 C237.788,107.818 236.364,109.243 236.364,111 C236.364,118.595 239.381,125.879 244.751,131.249 C250.121,136.619 257.405,139.636 265,139.636 C266.757,139.636 268.182,138.212 268.182,136.455 C268.182,134.697 266.757,133.273 265,133.273 Z M267.349,138.6 C274.236,131.061 278.15,121.276 278.363,111.066 C278.15,100.724 274.236,90.939 267.349,83.4 C266.164,82.102 264.152,82.011 262.854,83.196 C261.557,84.381 261.466,86.394 262.651,87.691 C268.497,94.092 271.82,102.399 272.001,111.066 C271.82,119.601 268.497,127.908 262.651,134.309 C261.466,135.606 261.557,137.619 262.854,138.804 C264.152,139.989 266.164,139.898 267.349,138.6 Z M267.349,134.309 C261.503,127.908 258.18,119.601 257.999,110.934 C258.18,102.399 261.503,94.092 267.349,87.691 C268.534,86.394 268.443,84.381 267.146,83.196 C265.848,82.011 263.836,82.102 262.651,83.4 C255.764,90.939 251.85,100.724 251.637,110.934 C251.85,121.276 255.764,131.061 262.651,138.6 C263.836,139.898 265.848,139.989 267.146,138.804 C268.443,137.619 268.534,135.606 267.349,134.309 Z M242.727,111 C242.727,105.093 245.074,99.428 249.251,95.251 C253.428,91.074 259.093,88.727 265,88.727 C266.757,88.727 268.182,87.303 268.182,85.545 C268.182,83.788 266.757,82.364 265,82.364 C257.405,82.364 250.121,85.381 244.751,90.751 C239.381,96.121 236.364,103.405 236.364,111 C236.364,112.757 237.788,114.182 239.545,114.182 C241.303,114.182 242.727,112.757 242.727,111 Z M242.727,136.455 C242.727,138.212 241.303,139.636 239.545,139.636 C237.788,139.636 236.364,138.212 236.364,136.455 C236.364,134.697 237.788,133.273 239.545,133.273 C241.303,133.273 242.727,134.697 242.727,136.455 Z M249.091,136.455 C249.091,131.183 244.817,126.909 239.545,126.909 C234.274,126.909 230,131.183 230,136.455 C230,141.726 234.274,146 239.545,146 C244.817,146 249.091,141.726 249.091,136.455 Z M293.636,136.455 C293.636,138.212 292.212,139.636 290.455,139.636 C288.697,139.636 287.273,138.212 287.273,136.455 C287.273,134.697 288.697,133.273 290.455,133.273 C292.212,133.273 293.636,134.697 293.636,136.455 Z M300,136.455 C300,131.183 295.726,126.909 290.455,126.909 C285.183,126.909 280.909,131.183 280.909,136.455 C280.909,141.726 285.183,146 290.455,146 C295.726,146 300,141.726 300,136.455 Z M242.727,85.545 C242.727,87.303 241.303,88.727 239.545,88.727 C237.788,88.727 236.364,87.303 236.364,85.545 C236.364,83.788 237.788,82.364 239.545,82.364 C241.303,82.364 242.727,83.788 242.727,85.545 Z M249.091,85.545 C249.091,80.274 244.817,76 239.545,76 C234.274,76 230,80.274 230,85.545 C230,90.817 234.274,95.091 239.545,95.091 C244.817,95.091 249.091,90.817 249.091,85.545 Z M293.636,85.545 C293.636,87.303 292.212,88.727 290.455,88.727 C288.697,88.727 287.273,87.303 287.273,85.545 C287.273,83.788 288.697,82.364 290.455,82.364 C292.212,82.364 293.636,83.788 293.636,85.545 Z M300,85.545 C300,80.274 295.726,76 290.455,76 C285.183,76 280.909,80.274 280.909,85.545 C280.909,90.817 285.183,95.091 290.455,95.091 C295.726,95.091 300,90.817 300,85.545 Z" />
        </g>
        <g id="Regular-M" transform="translate(0,200)">
            <path d="M487.273,111 C487.273,116.907 484.926,122.572 480.749,126.749 C476.572,130.926 470.907,133.273 465,133.273 C463.243,133.273 461.818,134.697 461.818,136.455 C461.818,138.212 463.243,139.636 465,139.636 C472.595,139.636 479.879,136.619 485.249,131.249 C490.619,125.879 493.636,118.595 493.636,111 C493.636,109.243 492.212,107.818 490.455,107.818 C488.697,107.818 487.273,109.243 487.273,111 Z M493.636,111 C493.636,103.405 490.619,96.121 485.249,90.751 C479.879,85.381 472.595,82.364 465,82.364 C463.243,82.364 461.818,83.788 461.818,85.545 C461.818,87.303 463.243,88.727 465,88.727 C470.907,88.727 476.572,91.074 480.749,95.251 C484.926,99.428 487.273,105.093 487.273,111 C487.273,112.757 488.697,114.182 490.455,114.182 C492.212,114.182 493.636,112.757 493.636,111 Z M490.455,107.818 L439.545,107.818 C437.788,107.818 436.364,109.243 436.364,111 C436.364,112.757 437.788,114.182 439.545,114.182 L490.455,114.182 C492.212,114.182 493.636,112.757 493.636,111 C493.636,109.243 492.212,107.818 490.455,107.818 Z M465,133.273 C459.093,133.273 453.428,130.926 449.251,126.749 C445.074,122.572 442.727,116.907 442.727,111 C442.727,109.243 441.303,107.818 439.545,107.818 C437.788,107.818 436.364,109.243 436.364,111 C436.364,118.595 439.381,125.879 444.751,131.249 C450.121,136.619 457.405,139.636 465,139.636 C466.757,139.636 468.182,138.212 468.182,136.455 C468.182,134.697 466.757,133.273 465,133.273 Z M467.349,138.6 C474.236,131.061 478.15,121.276 478.363,111.066 C478.15,100.724 474.236,90.939 467.349,83.4 C466.164,82.102 464.152,82.011 462.854,83.196 C461.557,84.381 461.466,86.394 462.651,87.691 C468.497,94.092 471.82,102.399 472.001,111.066 C471.82,119.601 468.497,127.908 462.651,134.309 C461.466,135.606 461.557,137.619 462.854,138.804 C464.152,139.989 466.164,139.898 467.349,138.6 Z M467.349,134.309 C461.503,127.908 458.18,119.601 457.999,110.934 C458.18,102.399 461.503,94.092 467.349,87.691 C468.534,86.394 468.443,84.381 467.146,83.196 C465.848,82.011 463.836,82.102 462.651,83.4 C455.764,90.939 451.85,100.724 451.637,110.934 C451.85,121.276 455.764,131.061 462.651,138.6 C463.836,139.898 465.848,139.989 467.146,138.804 C468.443,137.619 468.534,135.606 467.349,134.309 Z M442.727,111 C442.727,105.093 445.074,99.428 449.251,95.251 C453.428,91.074 459.093,88.727 465,88.727 C466.757,88.727 468.182,87.303 468.182,85.545 C468.182,83.788 466.757,82.364 465,82.364 C457.405,82.364 450.121,85.381 444.751,90.751 C439.381,96.121 436.364,103.405 436.364,111 C436.364,112.757 437.788,114.182 439.545,114.182 C441.303,114.182 442.727,112.757 442.727,111 Z M442.727,136.455 C442.727,138.212 441.303,139.636 439.545,139.636 C437.788,139.636 436.364,138.212 436.364,136.455 C436.364,134.697 437.788,133.273 439.545,133.273 C441.303,133.273 442.727,134.697 442.727,136.455 Z M449.091,136.455 C449.091,131.183 444.817,126.909 439.545,126.909 C434.274,126.909 430,131.183 430,136.455 C430,141.726 434.274,146 439.545,146 C444.817,146 449.091,141.726 449.091,136.455 Z M493.636,136.455 C493.636,138.212 492.212,139.636 490.455,139.636 C488.697,139.636 487.273,138.212 487.273,136.455 C487.273,134.697 488.697,133.273 490.455,133.273 C492.212,133.273 493.636,134.697 493.636,136.455 Z M500,136.455 C500,131.183 495.726,126.909 490.455,126.909 C485.183,126.909 480.909,131.183 480.909,136.455 C480.909,141.726 485.183,146 490.455,146 C495.726,146 500,141.726 500,136.455 Z M442.727,85.545 C442.727,87.303 441.303,88.727 439.545,88.727 C437.788,88.727 436.364,87.303 436.364,85.545 C436.364,83.788 437.788,82.364 439.545,82.364 C441.303,82.364 442.727,83.788 442.727,85.545 Z M449.091,85.545 C449.091,80.274 444.817,76 439.545,76 C434.274,76 430,80.274 430,85.545 C430,90.817 434.274,95.091 439.545,95.091 C444.817,95.091 449.091,90.817 449.091,85.545 Z M493.636,85.545 C493.636,87.303 492.212,88.727 490.455,88.727 C488.697,88.727 487.273,87.303 487.273,85.545 C487.273,83.788 488.697,82.364 490.455,82.364 C492.212,82.364 493.636,83.788 493.636,85.545 Z M500,85.545 C500,80.274 495.726,76 490.455,76 C485.183,76 480.909,80.274 480.909,85.545 C480.909,90.817 485.183,95.091 490.455,95.091 C495.726,95.091 500,90.817 500,85.545 Z" />
        </g>
        <g id="Black-M" transform="translate(0,200)">
            <path d="M687.273,111 C687.273,116.907 684.926,122.572 680.749,126.749 C676.572,130.926 670.907,133.273 665,133.273 C663.243,133.273 661.818,134.697 661.818,136.455 C661.818,138.212 663.243,139.636 665,139.636 C672.595,139.636 679.879,136.619 685.249,131.249 C690.619,125.879 693.636,118.595 693.636,111 C693.636,109.243 692.212,107.818 690.455,107.818 C688.697,107.818 687.273,109.243 687.273,111 Z M693.636,111 C693.636,103.405 690.619,96.121 685.249,90.751 C679.879,85.381 672.595,82.364 665,82.364 C663.243,82.364 661.818,83.788 661.818,85.545 C661.818,87.303 663.243,88.727 665,88.727 C670.907,88.727 676.572,91.074 680.749,95.251 C684.926,99.428 687.273,105.093 687.273,111 C687.273,112.757 688.697,114.182 690.455,114.182 C692.212,114.182 693.636,112.757 693.636,111 Z M690.455,107.818 L639.545,107.818 C637.788,107.818 636.364,109.243 636.364,111 C636.364,112.757 637.788,114.182 639.545,114.182 L690.455,114.182 C692.212,114.182 693.636,112.757 693.636,111 C693.636,109.243 692.212,107.818 690.455,107.818 Z M665,133.273 C659.093,133.273 653.428,130.926 649.251,126.749 C645.074,122.572 642.727,116.907 642.727,111 C642.727,109.243 641.303,107.818 639.545,107.818 C637.788,107.818 636.364,109.243 636.364,111 C636.364,118.595 639.381,125.879 644.751,131.249 C650.121,136.619 657.405,139.636 665,139.636 C666.757,139.636 668.182,138.212 668.182,136.455 C668.182,134.697 666.757,133.273 665,133.273 Z M667.349,138.6 C674.236,131.061 678.15,121.276 678.363,111.066 C678.15,100.724 674.236,90.939 667.349,83.4 C666.164,82.102 664.152,82.011 662.854,83.196 C661.557,84.381 661.466,86.394 662.651,87.691 C668.497,94.092 671.82,102.399 672.001,111.066 C671.82,119.601 668.497,127.908 662.651,134.309 C661.466,135.606 661.557,137.619 662.854,138.804 C664.152,139.989 666.164,139.898 667.349,138.6 Z M667.349,134.309 C661.503,127.908 658.18,119.601 657.999,110.934 C658.18,102.399 661.503,94.092 667.349,87.691 C668.534,86.394 668.443,84.381 667.146,83.196 C665.848,82.011 663.836,82.102 662.651,83.4 C655.764,90.939 651.85,100.724 651.637,110.934 C651.85,121.276 655.764,131.061 662.651,138.6 C663.836,139.898 665.848,139.989 667.146,138.804 C668.443,137.619 668.534,135.606 667.349,134.309 Z M642.727,111 C642.727,105.093 645.074,99.428 649.251,95.251 C653.428,91.074 659.093,88.727 665,88.727 C666.757,88.727 668.182,87.303 668.182,85.545 C668.182,83.788 666.757,82.364 665,82.364 C657.405,82.364 650.121,85.381 644.751,90.751 C639.381,96.121 636.364,103.405 636.364,111 C636.364,112.757 637.788,114.182 639.545,114.182 C641.303,114.182 642.727,112.757 642.727,111 Z M642.727,136.455 C642.727,138.212 641.303,139.636 639.545,139.636 C637.788,139.636 636.364,138.212 636.364,136.455 C636.364,134.697 637.788,133.273 639.545,133.273 C641.303,133.273 642.727,134.697 642.727,136.455 Z M649.091,136.455 C649.091,131.183 644.817,126.909 639.545,126.909 C634.274,126.909 630,131.183 630,136.455 C630,141.726 634.274,146 639.545,146 C644.817,146 649.091,141.726 649.091,136.455 Z M693.636,136.455 C693.636,138.212 692.212,139.636 690.455,139.636 C688.697,139.636 687.273,138.212 687.273,136.455 C687.273,134.697 688.697,133.273 690.455,133.273 C692.212,133.273 693.636,134.697 693.636,136.455 Z M700,136.455 C700,131.183 695.726,126.909 690.455,126.909 C685.183,126.909 680.909,131.183 680.909,136.455 C680.909,141.726 685.183,146 690.455,146 C695.726,146 700,141.726 700,136.455 Z M642.727,85.545 C642.727,87.303 641.303,88.727 639.545,88.727 C637.788,88.727 636.364,87.303 636.364,85.545 C636.364,83.788 637.788,82.364 639.545,82.364 C641.303,82.364 642.727,83.788 642.727,85.545 Z M649.091,85.545 C649.091,80.274 644.817,76 639.545,76 C634.274,76 630,80.274 630,85.545 C630,90.817 634.274,95.091 639.545,95.091 C644.817,95.091 649.091,90.817 649.091,85.545 Z M693.636,85.545 C693.636,87.303 692.212,88.727 690.455,88.727 C688.697,88.727 687.273,87.303 687.273,85.545 C687.273,83.788 688.697,82.364 690.455,82.364 C692.212,82.364 693.636,83.788 693.636,85.545 Z M700,85.545 C700,80.274 695.726,76 690.455,76 C685.183,76 680.909,80.274 680.909,85.545 C680.909,90.817 685.183,95.091 690.455,95.091 C695.726,95.091 700,90.817 700,85.545 Z" />
        </g>
    </g>
</svg>