<?xml version="1.0" encoding="UTF-8"?>
<svg height="600" width="800" xmlns="http://www.w3.org/2000/svg" xmlns:xlink="http://www.w3.org/1999/xlink">
    <g id="Notes" font-family="LucidaGrande, 'Lucida Grande', sans-serif" font-size="13">
        <rect fill="white" height="600.0" width="800.0" x="0.0" y="0.0" />
        <g font-size="13">
            <text x="18.0" y="176.0">Small</text>
            <text x="18.0" y="376.0">Medium</text>
            <text x="18.0" y="576.0">Large</text>
        </g>
        <g font-size="9">
            <text x="250.0" y="30.0">Ultralight</text>
            <text x="450.0" y="30.0">Regular</text>
            <text x="650.0" y="30.0">Black</text>
            <text id="template-version" fill="#505050" text-anchor="end" x="785.0" y="575.0">Template v.3.0</text>
            <a href="https://github.com/swhitty/SwiftDraw">
                <text fill="#505050" text-anchor="end" x="785.0" y="590.0">https://github.com/swhitty/SwiftDraw</text>
            </a>
        </g>
    </g>
    <g id="Guides" stroke="rgb(39, 170, 225)" stroke-width="0.5">
        <path id="Capline-S" d="M18,76 l800,0" />
        <path id="H-reference" d="M85,145.755 L87.685,145.755 L113.369,79.287 L114.052,79.287 L114.052,76 L112.148,76 L85,145.755 Z M95.693,121.536 L130.996,121.536 L130.263,119.313 L96.474,119.313 L95.693,121.536 Z M139.15,145.755 L141.787,145.755 L114.638,76 L113.466,76 L113.466,79.287 L139.15,145.755 Z" stroke="none" transform="translate(0,200)" />
        <path id="Baseline-S" d="M18,146 l800,0" />
        <path id="left-margin-Ultralight-M" d="M230,256 l0,110" />
        <path id="right-margin-Ultralight-M" d="M300,256 l0,110" />
        <path id="left-margin-Regular-M" d="M430,256 l0,110" />
        <path id="right-margin-Regular-M" d="M500,256 l0,110" />
        <path id="left-margin-Black-M" d="M630,256 l0,110" />
        <path id="right-margin-Black-M" d="M700,256 l0,110" />
        <path id="Capline-M" d="M18,276 l800,0" />
        <path id="Baseline-M" d="M18,346 l800,0" />
        <path id="Capline-L" d="M18,476 l800,0" />
        <path id="Baseline-L" d="M18,546 l800,0" />
    </g>
    <g id="Symbols">
        <g id="Ultralight-M" transform="translate(0,200)">
            <path d="M247.5,102.25 L247.529,102.25 C249.14,102.25 250.446,100.944 250.446,99.333 C250.446,97.723 249.14,96.417 247.529,96.417 L247.5,96.417 C245.889,96.417 244.583,97.723 244.583,99.333 C244.583,100.944 245.889,102.25 247.5,102.25 Z M247.5,125.583 L247.529,125.583 C249.14,125.583 250.446,124.277 250.446,122.667 C250.446,121.056 249.14,119.75 247.529,119.75 L247.5,119.75 C245.889,119.75 244.583,121.056 244.583,122.667 C244.583,124.277 245.889,125.583 247.5,125.583 Z M247.5,113.917 L282.5,113.917 C284.111,113.917 285.417,112.611 285.417,111 C285.417,109.389 284.111,108.083 282.5,108.083 L247.5,108.083 C245.889,108.083 244.583,109.389 244.583,111 C244.583,112.611 245.889,113.917 247.5,113.917 Z M247.5,108.083 C242.668,108.083 238.75,104.166 238.75,99.333 C238.75,94.501 242.668,90.583 247.5,90.583 L282.5,90.583 C287.332,90.583 291.25,94.501 291.25,99.333 C291.25,104.166 287.332,108.083 282.5,108.083 C280.889,108.083 279.583,109.389 279.583,111 C279.583,112.611 280.889,113.917 282.5,113.917 C290.554,113.917 297.083,107.387 297.083,99.333 C297.083,91.279 290.554,84.75 282.5,84.75 L247.5,84.75 C239.446,84.75 232.917,91.279 232.917,99.333 C232.917,107.387 239.446,113.917 247.5,113.917 C249.111,113.917 250.417,112.611 250.417,111 C250.417,109.389 249.111,108.083 247.5,108.083 Z M247.5,108.083 C239.446,108.083 232.917,114.613 232.917,122.667 C232.917,130.721 239.446,137.25 247.5,137.25 L282.5,137.25 C290.554,137.25 297.083,130.721 297.083,122.667 C297.083,114.613 290.554,108.083 282.5,108.083 C280.889,108.083 279.583,109.389 279.583,111 C279.583,112.611 280.889,113.917 282.5,113.917 C287.332,113.917 291.25,117.834 291.25,122.667 C291.25,127.499 287.332,131.417 282.5,131.417 L247.5,131.417 C242.668,131.417 238.75,127.499 238.75,122.667 C238.75,117.834 242.668,113.917 247.5,113.917 C249.111,113.917 250.417,112.611 250.417,111 C250.417,109.389 249.111,108.083 247.5,108.083 Z" />
        </g>
        <g id="Regular-M" transform="translate(0,200)">
            <path d="M447.5,102.25 L447.529,102.25 C449.14,102.25 450.446,100.944 450.446,99.333 C450.446,97.723 449.14,96.417 447.529,96.417 L447.5,96.417 C445.889,96.417 444.583,97.723 444.583,99.333 C444.583,100.944 445.889,102.25 447.5,102.25 Z M447.5,125.583 L447.529,125.583 C449.14,125.583 450.446,124.277 450.446,122.667 C450.446,121.056 449.14,119.75 447.529,119.75 L447.5,119.75 C445.889,119.75 444.583,121.056 444.583,122.667 C444.583,124.277 445.889,125.583 447.5,125.583 Z M447.5,113.917 L482.5,113.917 C484.111,113.917 485.417,112.611 485.417,111 C485.417,109.389 484.111,108.083 482.5,108.083 L447.5,108.083 C445.889,108.083 444.583,109.389 444.583,111 C444.583,112.611 445.889,113.917 447.5,113.917 Z M447.5,108.083 C442.668,108.083 438.75,104.166 438.75,99.333 C438.75,94.501 442.668,90.583 447.5,90.583 L482.5,90.583 C487.332,90.583 491.25,94.501 491.25,99.333 C491.25,104.166 487.332,108.083 482.5,108.083 C480.889,108.083 479.583,109.389 479.583,111 C479.583,112.611 480.889,113.917 482.5,113.917 C490.554,113.917 497.083,107.387 497.083,99.333 C497.083,91.279 490.554,84.75 482.5,84.75 L447.5,84.75 C439.446,84.75 432.917,91.279 432.917,99.333 C432.917,107.387 439.446,113.917 447.5,113.917 C449.111,113.917 450.417,112.611 450.417,111 C450.417,109.389 449.111,108.083 447.5,108.083 Z M447.5,108.083 C439.446,108.083 432.917,114.613 432.917,122.667 C432.917,130.721 439.446,137.25 447.5,137.25 L482.5,137.25 C490.554,137.25 497.083,130.721 497.083,122.667 C497.083,114.613 490.554,108.083 482.5,108.083 C480.889,108.083 479.583,109.389 479.583,111 C479.583,112.611 480.889,113.917 482.5,113.917 C487.332,113.917 491.25,117.834 491.25,122.667 C491.25,127.499 487.332,131.417 482.5,131.417 L447.5,131.417 C442.668,131.417 438.75,127.499 438.75,122.667 C438.75,117.834 442.668,113.917 447.5,113.917 C449.111,113.917 450.417,112.611 450.417,111 C450.417,109.389 449.111,108.083 447.5,108.083 Z" />
        </g>
        <g id="Black-M" transform="translate(0,200)">
            <path d="M647.5,102.25 L647.529,102.25 C649.14,102.25 650.446,100.944 650.446,99.333 C650.446,97.723 649.14,96.417 647.529,96.417 L647.5,96.417 C645.889,96.417 644.583,97.723 644.583,99.333 C644.583,100.944 645.889,102.25 647.5,102.25 Z M647.5,125.583 L647.529,125.583 C649.14,125.583 650.446,124.277 650.446,122.667 C650.446,121.056 649.14,119.75 647.529,119.75 L647.5,119.75 C645.889,119.75 644.583,121.056 644.583,122.667 C644.583,124.277 645.889,125.583 647.5,125.583 Z M647.5,113.917 L682.5,113.917 C684.111,113.917 685.417,112.611 685.417,111 C685.417,109.389 684.111,108.083 682.5,108.083 L647.5,108.083 C645.889,108.083 644.583,109.389 644.583,111 C644.583,112.611 645.889,113.917 647.5,113.917 Z M647.5,108.083 C642.667,108.083 638.75,104.166 638.75,99.333 C638.75,94.501 642.667,90.583 647.5,90.583 L682.5,90.583 C687.333,90.583 691.25,94.501 691.25,99.333 C691.25,104.166 687.333,108.083 682.5,108.083 C680.889,108.083 679.583,109.389 679.583,111 C679.583,112.611 680.889,113.917 682.5,113.917 C690.554,113.917 697.083,107.387 697.083,99.333 C697.083,91.279 690.554,84.75 682.5,84.75 L647.5,84.75 C639.446,84.75 632.917,91.279 632.917,99.333 C632.917,107.387 639.446,113.917 647.5,113.917 C649.111,113.917 650.417,112.611 650.417,111 C650.417,109.389 649.111,108.083 647.5,108.083 Z M647.5,108.083 C639.446,108.083 632.917,114.613 632.917,122.667 C632.917,130.721 639.446,137.25 647.5,137.25 L682.5,137.25 C690.554,137.25 697.083,130.721 697.083,122.667 C697.083,114.613 690.554,108.083 682.5,108.083 C680.889,108.083 679.583,109.389 679.583,111 C679.583,112.611 680.889,113.917 682.5,113.917 C687.333,113.917 691.25,117.834 691.25,122.667 C691.25,127.499 687.333,131.417 682.5,131.417 L647.5,131.417 C642.667,131.417 638.75,127.499 638.75,122.667 C638.75,117.834 642.667,113.917 647.5,113.917 C649.111,113.917 650.417,112.611 650.417,111 C650.417,109.389 649.111,108.083 647.5,108.083 Z" />
        </g>
    </g>
</svg>