<?xml version="1.0" encoding="UTF-8"?>
<svg height="600" width="800" xmlns="http://www.w3.org/2000/svg" xmlns:xlink="http://www.w3.org/1999/xlink">
    <g id="Notes" font-family="LucidaGrande, 'Lucida Grande', sans-serif" font-size="13">
        <rect fill="white" height="600.0" width="800.0" x="0.0" y="0.0" />
        <g font-size="13">
            <text x="18.0" y="176.0">Small</text>
            <text x="18.0" y="376.0">Medium</text>
            <text x="18.0" y="576.0">Large</text>
        </g>
        <g font-size="9">
            <text x="250.0" y="30.0">Ultralight</text>
            <text x="450.0" y="30.0">Regular</text>
            <text x="650.0" y="30.0">Black</text>
            <text id="template-version" fill="#505050" text-anchor="end" x="785.0" y="575.0">Template v.3.0</text>
            <a href="https://github.com/swhitty/SwiftDraw">
                <text fill="#505050" text-anchor="end" x="785.0" y="590.0">https://github.com/swhitty/SwiftDraw</text>
            </a>
        </g>
    </g>
    <g id="Guides" stroke="rgb(39, 170, 225)" stroke-width="0.5">
        <path id="Capline-S" d="M18,76 l800,0" />
        <path id="H-reference" d="M85,145.755 L87.685,145.755 L113.369,79.287 L114.052,79.287 L114.052,76 L112.148,76 L85,145.755 Z M95.693,121.536 L130.996,121.536 L130.263,119.313 L96.474,119.313 L95.693,121.536 Z M139.15,145.755 L141.787,145.755 L114.638,76 L113.466,76 L113.466,79.287 L139.15,145.755 Z" stroke="none" transform="translate(0,200)" />
        <path id="Baseline-S" d="M18,146 l800,0" />
        <path id="left-margin-Ultralight-M" d="M221,256 l0,110" />
        <path id="right-margin-Ultralight-M" d="M309,256 l0,110" />
        <path id="left-margin-Regular-M" d="M421,256 l0,110" />
        <path id="right-margin-Regular-M" d="M509,256 l0,110" />
        <path id="left-margin-Black-M" d="M621,256 l0,110" />
        <path id="right-margin-Black-M" d="M709,256 l0,110" />
        <path id="Capline-M" d="M18,276 l800,0" />
        <path id="Baseline-M" d="M18,346 l800,0" />
        <path id="Capline-L" d="M18,476 l800,0" />
        <path id="Baseline-L" d="M18,546 l800,0" />
    </g>
    <g id="Symbols">
        <g id="Ultralight-M" transform="translate(0,200)">
            <path d="M288.043,122.38 L286.593,101.364 C286.284,96.86 286.121,95.767 285.267,94.269 C284.424,92.799 283.16,91.62 281.638,90.885 C280.089,90.134 279.002,90.048 274.47,90.048 L255.53,90.048 C250.998,90.048 249.911,90.134 248.359,90.886 C246.84,91.62 245.576,92.799 244.736,94.265 C243.879,95.767 243.716,96.86 243.407,101.365 L241.957,122.38 C241.878,123.534 242.749,124.534 243.903,124.614 C245.058,124.694 246.058,123.822 246.138,122.668 L247.588,101.653 C247.843,97.935 247.976,97.042 248.374,96.345 C248.792,95.615 249.424,95.026 250.185,94.658 C250.905,94.309 251.795,94.238 255.53,94.238 L274.47,94.238 C278.205,94.238 279.095,94.309 279.813,94.657 C280.576,95.026 281.208,95.615 281.628,96.348 C282.024,97.042 282.157,97.935 282.412,101.652 L283.862,122.668 C283.942,123.822 284.942,124.694 286.097,124.614 C287.251,124.534 288.122,123.534 288.043,122.38 Z M283.857,122.524 C283.857,123.913 283.305,125.245 282.323,126.228 C281.341,127.21 280.008,127.762 278.619,127.762 L251.381,127.762 C249.992,127.762 248.659,127.21 247.677,126.228 C246.695,125.245 246.143,123.913 246.143,122.524 C246.143,121.367 245.205,120.429 244.048,120.429 C242.891,120.429 241.952,121.367 241.952,122.524 C241.952,125.024 242.946,127.423 244.714,129.191 C246.482,130.959 248.88,131.952 251.381,131.952 L278.619,131.952 C281.12,131.952 283.518,130.959 285.286,129.191 C287.054,127.423 288.048,125.024 288.048,122.524 C288.048,121.367 287.11,120.429 285.952,120.429 C284.795,120.429 283.857,121.367 283.857,122.524 Z M288.048,122.524 C288.048,120.023 287.054,117.625 285.286,115.857 C283.518,114.089 281.12,113.095 278.619,113.095 L251.381,113.095 C248.88,113.095 246.482,114.089 244.714,115.857 C242.946,117.625 241.952,120.023 241.952,122.524 C241.952,123.681 242.891,124.619 244.048,124.619 C245.205,124.619 246.143,123.681 246.143,122.524 C246.143,121.135 246.695,119.802 247.677,118.82 C248.659,117.838 249.992,117.286 251.381,117.286 L278.619,117.286 C280.008,117.286 281.341,117.838 282.323,118.82 C283.305,119.802 283.857,121.135 283.857,122.524 C283.857,123.681 284.795,124.619 285.952,124.619 C287.11,124.619 288.048,123.681 288.048,122.524 Z M252.429,124.619 L252.45,124.619 C253.607,124.619 254.545,123.681 254.545,122.524 C254.545,121.367 253.607,120.429 252.45,120.429 L252.429,120.429 C251.271,120.429 250.333,121.367 250.333,122.524 C250.333,123.681 251.271,124.619 252.429,124.619 Z M265,124.619 L277.571,124.619 C278.729,124.619 279.667,123.681 279.667,122.524 C279.667,121.367 278.729,120.429 277.571,120.429 L265,120.429 C263.843,120.429 262.905,121.367 262.905,122.524 C262.905,123.681 263.843,124.619 265,124.619 Z" />
        </g>
        <g id="Regular-M" transform="translate(0,200)">
            <path d="M488.043,122.38 L486.593,101.364 C486.284,96.86 486.121,95.767 485.267,94.269 C484.424,92.799 483.16,91.62 481.638,90.885 C480.089,90.134 479.002,90.048 474.47,90.048 L455.53,90.048 C450.998,90.048 449.911,90.134 448.359,90.886 C446.84,91.62 445.576,92.799 444.736,94.265 C443.879,95.767 443.716,96.86 443.407,101.365 L441.957,122.38 C441.878,123.534 442.749,124.534 443.903,124.614 C445.058,124.694 446.058,123.822 446.138,122.668 L447.588,101.653 C447.843,97.935 447.976,97.042 448.374,96.345 C448.792,95.615 449.424,95.026 450.185,94.658 C450.905,94.309 451.795,94.238 455.53,94.238 L474.47,94.238 C478.205,94.238 479.095,94.309 479.813,94.657 C480.576,95.026 481.208,95.615 481.628,96.348 C482.024,97.042 482.157,97.935 482.412,101.652 L483.862,122.668 C483.942,123.822 484.942,124.694 486.097,124.614 C487.251,124.534 488.122,123.534 488.043,122.38 Z M483.857,122.524 C483.857,123.913 483.305,125.245 482.323,126.228 C481.341,127.21 480.008,127.762 478.619,127.762 L451.381,127.762 C449.992,127.762 448.659,127.21 447.677,126.228 C446.695,125.245 446.143,123.913 446.143,122.524 C446.143,121.367 445.205,120.429 444.048,120.429 C442.89,120.429 441.952,121.367 441.952,122.524 C441.952,125.024 442.946,127.423 444.714,129.191 C446.482,130.959 448.88,131.952 451.381,131.952 L478.619,131.952 C481.12,131.952 483.518,130.959 485.286,129.191 C487.054,127.423 488.048,125.024 488.048,122.524 C488.048,121.367 487.109,120.429 485.952,120.429 C484.795,120.429 483.857,121.367 483.857,122.524 Z M488.048,122.524 C488.048,120.023 487.054,117.625 485.286,115.857 C483.518,114.089 481.12,113.095 478.619,113.095 L451.381,113.095 C448.88,113.095 446.482,114.089 444.714,115.857 C442.946,117.625 441.952,120.023 441.952,122.524 C441.952,123.681 442.89,124.619 444.048,124.619 C445.205,124.619 446.143,123.681 446.143,122.524 C446.143,121.135 446.695,119.802 447.677,118.82 C448.659,117.838 449.992,117.286 451.381,117.286 L478.619,117.286 C480.008,117.286 481.341,117.838 482.323,118.82 C483.305,119.802 483.857,121.135 483.857,122.524 C483.857,123.681 484.795,124.619 485.952,124.619 C487.109,124.619 488.048,123.681 488.048,122.524 Z M452.429,124.619 L452.45,124.619 C453.607,124.619 454.545,123.681 454.545,122.524 C454.545,121.367 453.607,120.429 452.45,120.429 L452.429,120.429 C451.271,120.429 450.333,121.367 450.333,122.524 C450.333,123.681 451.271,124.619 452.429,124.619 Z M465,124.619 L477.571,124.619 C478.729,124.619 479.667,123.681 479.667,122.524 C479.667,121.367 478.729,120.429 477.571,120.429 L465,120.429 C463.843,120.429 462.905,121.367 462.905,122.524 C462.905,123.681 463.843,124.619 465,124.619 Z" />
        </g>
        <g id="Black-M" transform="translate(0,200)">
            <path d="M688.043,122.38 L686.593,101.364 C686.284,96.86 686.121,95.767 685.267,94.269 C684.424,92.799 683.16,91.62 681.638,90.885 C680.089,90.134 679.002,90.048 674.47,90.048 L655.53,90.048 C650.998,90.048 649.911,90.134 648.359,90.886 C646.84,91.62 645.576,92.799 644.735,94.265 C643.879,95.767 643.716,96.86 643.407,101.365 L641.957,122.38 C641.878,123.534 642.749,124.534 643.903,124.614 C645.058,124.694 646.058,123.822 646.138,122.668 L647.588,101.653 C647.843,97.935 647.976,97.042 648.374,96.345 C648.792,95.615 649.424,95.026 650.185,94.658 C650.905,94.309 651.795,94.238 655.53,94.238 L674.47,94.238 C678.205,94.238 679.095,94.309 679.813,94.657 C680.576,95.026 681.208,95.615 681.628,96.348 C682.024,97.042 682.157,97.935 682.412,101.652 L683.862,122.668 C683.942,123.822 684.942,124.694 686.097,124.614 C687.251,124.534 688.122,123.534 688.043,122.38 Z M683.857,122.524 C683.857,123.913 683.305,125.245 682.323,126.228 C681.341,127.21 680.008,127.762 678.619,127.762 L651.381,127.762 C649.992,127.762 648.659,127.21 647.677,126.228 C646.695,125.245 646.143,123.913 646.143,122.524 C646.143,121.367 645.205,120.429 644.048,120.429 C642.891,120.429 641.952,121.367 641.952,122.524 C641.952,125.024 642.946,127.423 644.714,129.191 C646.482,130.959 648.88,131.952 651.381,131.952 L678.619,131.952 C681.12,131.952 683.518,130.959 685.286,129.191 C687.054,127.423 688.048,125.024 688.048,122.524 C688.048,121.367 687.109,120.429 685.952,120.429 C684.795,120.429 683.857,121.367 683.857,122.524 Z M688.048,122.524 C688.048,120.023 687.054,117.625 685.286,115.857 C683.518,114.089 681.12,113.095 678.619,113.095 L651.381,113.095 C648.88,113.095 646.482,114.089 644.714,115.857 C642.946,117.625 641.952,120.023 641.952,122.524 C641.952,123.681 642.891,124.619 644.048,124.619 C645.205,124.619 646.143,123.681 646.143,122.524 C646.143,121.135 646.695,119.802 647.677,118.82 C648.659,117.838 649.992,117.286 651.381,117.286 L678.619,117.286 C680.008,117.286 681.341,117.838 682.323,118.82 C683.305,119.802 683.857,121.135 683.857,122.524 C683.857,123.681 684.795,124.619 685.952,124.619 C687.109,124.619 688.048,123.681 688.048,122.524 Z M652.429,124.619 L652.45,124.619 C653.607,124.619 654.545,123.681 654.545,122.524 C654.545,121.367 653.607,120.429 652.45,120.429 L652.429,120.429 C651.271,120.429 650.333,121.367 650.333,122.524 C650.333,123.681 651.271,124.619 652.429,124.619 Z M665,124.619 L677.571,124.619 C678.729,124.619 679.667,123.681 679.667,122.524 C679.667,121.367 678.729,120.429 677.571,120.429 L665,120.429 C663.843,120.429 662.905,121.367 662.905,122.524 C662.905,123.681 663.843,124.619 665,124.619 Z" />
        </g>
    </g>
</svg>