<?xml version="1.0" encoding="UTF-8"?>
<svg height="600" width="800" xmlns="http://www.w3.org/2000/svg" xmlns:xlink="http://www.w3.org/1999/xlink">
    <g id="Notes" font-family="LucidaGrande, 'Lucida Grande', sans-serif" font-size="13">
        <rect fill="white" height="600.0" width="800.0" x="0.0" y="0.0" />
        <g font-size="13">
            <text x="18.0" y="176.0">Small</text>
            <text x="18.0" y="376.0">Medium</text>
            <text x="18.0" y="576.0">Large</text>
        </g>
        <g font-size="9">
            <text x="250.0" y="30.0">Ultralight</text>
            <text x="450.0" y="30.0">Regular</text>
            <text x="650.0" y="30.0">Black</text>
            <text id="template-version" fill="#505050" text-anchor="end" x="785.0" y="575.0">Template v.3.0</text>
            <a href="https://github.com/swhitty/SwiftDraw">
                <text fill="#505050" text-anchor="end" x="785.0" y="590.0">https://github.com/swhitty/SwiftDraw</text>
            </a>
        </g>
    </g>
    <g id="Guides" stroke="rgb(39, 170, 225)" stroke-width="0.5">
        <path id="Capline-S" d="M18,76 l800,0" />
        <path id="H-reference" d="M85,145.755 L87.685,145.755 L113.369,79.287 L114.052,79.287 L114.052,76 L112.148,76 L85,145.755 Z M95.693,121.536 L130.996,121.536 L130.263,119.313 L96.474,119.313 L95.693,121.536 Z M139.15,145.755 L141.787,145.755 L114.638,76 L113.466,76 L113.466,79.287 L139.15,145.755 Z" stroke="none" transform="translate(0,200)" />
        <path id="Baseline-S" d="M18,146 l800,0" />
        <path id="left-margin-Ultralight-M" d="M230,256 l0,110" />
        <path id="right-margin-Ultralight-M" d="M300,256 l0,110" />
        <path id="left-margin-Regular-M" d="M430,256 l0,110" />
        <path id="right-margin-Regular-M" d="M500,256 l0,110" />
        <path id="left-margin-Black-M" d="M630,256 l0,110" />
        <path id="right-margin-Black-M" d="M700,256 l0,110" />
        <path id="Capline-M" d="M18,276 l800,0" />
        <path id="Baseline-M" d="M18,346 l800,0" />
        <path id="Capline-L" d="M18,476 l800,0" />
        <path id="Baseline-L" d="M18,546 l800,0" />
    </g>
    <g id="Symbols">
        <g id="Ultralight-M" transform="translate(0,200)">
            <path d="M253.799,135.744 L255.66,139.928 C257.297,143.619 260.959,146 265,146 C269.041,146 272.703,143.619 274.341,139.925 L276.199,135.742 C276.997,133.955 278.862,132.881 280.815,133.087 L285.363,133.571 C289.38,134 293.274,132.021 295.296,128.521 C297.318,125.021 297.087,120.659 294.707,117.392 L292.013,113.69 C291.455,112.918 291.154,111.979 291.158,111.016 C291.158,110.04 291.464,109.1 292.029,108.322 L294.72,104.627 C297.102,101.364 297.335,96.999 295.313,93.498 C293.292,89.996 289.395,88.017 285.375,88.449 L280.829,88.932 C279.876,89.032 278.911,88.827 278.078,88.347 C277.259,87.871 276.604,87.14 276.217,86.263 L274.337,82.065 C272.703,78.381 269.041,76 265,76 C260.959,76 257.297,78.381 255.659,82.075 L253.799,86.26 C253.408,87.143 252.753,87.876 251.928,88.354 C251.103,88.829 250.135,89.034 249.176,88.934 L244.621,88.451 C240.605,88.022 236.71,90.001 234.688,93.501 C232.667,97.001 232.898,101.363 235.278,104.63 L237.972,108.33 C239.13,109.923 239.13,112.084 237.971,113.679 L235.277,117.377 C233.515,119.794 232.901,122.866 233.6,125.777 C234.299,128.688 236.241,131.146 238.911,132.5 C240.664,133.395 242.644,133.762 244.612,133.559 L249.173,133.071 C251.126,132.869 252.997,133.95 253.8,135.753 C255.198,138.889 259.887,137.892 259.887,134.457 L259.887,134.451 L256.706,134.451 L253.799,135.744 Z M259.613,133.158 C258.216,130.019 253.524,131.015 253.524,134.451 L253.524,134.457 L256.706,134.457 L259.612,133.162 C257.688,128.846 253.207,126.256 248.507,126.743 L243.947,127.231 C243.209,127.307 242.461,127.168 241.796,126.829 C240.783,126.315 240.051,125.388 239.787,124.291 C239.524,123.194 239.755,122.036 240.42,121.124 L243.116,117.423 C245.899,113.594 245.899,108.412 243.117,104.586 L240.421,100.884 C239.523,99.651 239.435,98.005 240.198,96.684 C240.961,95.363 242.431,94.616 243.947,94.779 L248.512,95.262 C250.808,95.501 253.116,95.011 255.111,93.864 C257.11,92.704 258.684,90.944 259.616,88.839 L261.474,84.658 C262.094,83.262 263.475,82.363 265,82.363 C266.525,82.363 267.907,83.262 268.525,84.655 L270.403,88.85 C271.327,90.94 272.9,92.697 274.89,93.854 C276.896,95.01 279.206,95.501 281.498,95.26 L286.051,94.776 C287.571,94.612 289.041,95.359 289.803,96.679 C290.565,98 290.477,99.646 289.578,100.878 L286.881,104.581 C285.526,106.45 284.795,108.698 284.795,111 C284.784,113.296 285.508,115.552 286.862,117.426 L289.563,121.137 C290.462,122.372 290.549,124.018 289.786,125.338 C289.023,126.659 287.554,127.406 286.037,127.244 L281.486,126.76 C276.791,126.264 272.311,128.844 270.386,133.153 L268.525,137.343 C267.907,138.738 266.525,139.637 265,139.637 C263.475,139.637 262.094,138.738 261.475,137.345 L259.613,133.158 Z" />
            <path d="M264.994,123.726 C272.022,123.726 277.72,118.028 277.72,111 C277.72,103.972 272.022,98.274 264.994,98.274 C257.965,98.274 252.268,103.972 252.268,111 C252.268,118.028 257.965,123.726 264.994,123.726 Z M264.994,117.363 C261.48,117.363 258.631,114.514 258.631,111 C258.631,107.486 261.48,104.637 264.994,104.637 C268.508,104.637 271.357,107.486 271.357,111 C271.357,114.514 268.508,117.363 264.994,117.363 Z" />
        </g>
        <g id="Regular-M" transform="translate(0,200)">
            <path d="M453.799,135.744 L455.66,139.928 C457.297,143.619 460.959,146 465,146 C469.041,146 472.703,143.619 474.341,139.925 L476.199,135.742 C476.997,133.955 478.862,132.881 480.815,133.087 L485.363,133.571 C489.38,134 493.274,132.021 495.296,128.521 C497.318,125.021 497.087,120.659 494.707,117.392 L492.013,113.69 C491.455,112.918 491.154,111.979 491.158,111.016 C491.158,110.04 491.464,109.1 492.029,108.322 L494.72,104.627 C497.102,101.364 497.335,96.999 495.313,93.498 C493.292,89.996 489.395,88.017 485.375,88.449 L480.829,88.932 C479.876,89.032 478.911,88.827 478.078,88.347 C477.259,87.871 476.604,87.14 476.217,86.263 L474.337,82.065 C472.703,78.381 469.041,76 465,76 C460.959,76 457.297,78.381 455.659,82.075 L453.799,86.26 C453.408,87.143 452.753,87.876 451.928,88.354 C451.103,88.829 450.135,89.034 449.176,88.934 L444.621,88.451 C440.605,88.022 436.71,90.001 434.688,93.501 C432.667,97.001 432.898,101.363 435.278,104.63 L437.972,108.33 C439.13,109.923 439.13,112.084 437.971,113.679 L435.277,117.377 C433.515,119.794 432.901,122.866 433.6,125.777 C434.299,128.688 436.241,131.146 438.911,132.5 C440.664,133.395 442.644,133.762 444.612,133.559 L449.173,133.071 C451.126,132.869 452.997,133.95 453.8,135.753 C455.198,138.889 459.887,137.892 459.887,134.457 L459.887,134.451 L456.706,134.451 L453.799,135.744 Z M459.613,133.158 C458.216,130.019 453.524,131.015 453.524,134.451 L453.524,134.457 L456.706,134.457 L459.612,133.162 C457.688,128.846 453.207,126.256 448.507,126.743 L443.947,127.231 C443.209,127.307 442.461,127.168 441.796,126.829 C440.783,126.315 440.051,125.388 439.787,124.291 C439.524,123.194 439.755,122.036 440.42,121.124 L443.116,117.423 C445.899,113.594 445.899,108.412 443.117,104.586 L440.421,100.884 C439.523,99.651 439.435,98.005 440.198,96.684 C440.961,95.363 442.431,94.616 443.947,94.779 L448.512,95.262 C450.807,95.501 453.116,95.011 455.111,93.864 C457.11,92.704 458.684,90.944 459.616,88.839 L461.474,84.658 C462.094,83.262 463.475,82.363 465,82.363 C466.525,82.363 467.907,83.262 468.525,84.655 L470.403,88.85 C471.327,90.94 472.9,92.697 474.89,93.854 C476.896,95.01 479.206,95.501 481.498,95.26 L486.051,94.776 C487.571,94.612 489.041,95.359 489.803,96.679 C490.565,98 490.477,99.646 489.578,100.878 L486.881,104.581 C485.526,106.45 484.795,108.698 484.795,111 C484.784,113.296 485.508,115.552 486.862,117.426 L489.563,121.137 C490.462,122.372 490.549,124.018 489.786,125.338 C489.023,126.659 487.554,127.406 486.037,127.244 L481.486,126.76 C476.791,126.264 472.311,128.844 470.386,133.153 L468.525,137.343 C467.907,138.738 466.525,139.637 465,139.637 C463.475,139.637 462.094,138.738 461.475,137.345 L459.613,133.158 Z" />
            <path d="M464.994,123.726 C472.022,123.726 477.72,118.028 477.72,111 C477.72,103.972 472.022,98.274 464.994,98.274 C457.965,98.274 452.268,103.972 452.268,111 C452.268,118.028 457.965,123.726 464.994,123.726 Z M464.994,117.363 C461.48,117.363 458.631,114.514 458.631,111 C458.631,107.486 461.48,104.637 464.994,104.637 C468.508,104.637 471.357,107.486 471.357,111 C471.357,114.514 468.508,117.363 464.994,117.363 Z" />
        </g>
        <g id="Black-M" transform="translate(0,200)">
            <path d="M653.799,135.744 L655.66,139.928 C657.297,143.619 660.959,146 665,146 C669.041,146 672.703,143.619 674.341,139.925 L676.199,135.742 C676.997,133.955 678.862,132.881 680.815,133.087 L685.363,133.571 C689.38,134 693.274,132.021 695.296,128.521 C697.318,125.021 697.087,120.659 694.707,117.392 L692.013,113.69 C691.455,112.918 691.154,111.979 691.158,111.016 C691.158,110.04 691.464,109.1 692.029,108.322 L694.72,104.627 C697.102,101.364 697.335,96.999 695.313,93.498 C693.292,89.996 689.395,88.017 685.375,88.449 L680.829,88.932 C679.876,89.032 678.911,88.827 678.078,88.347 C677.259,87.871 676.604,87.14 676.217,86.263 L674.337,82.065 C672.703,78.381 669.041,76 665,76 C660.959,76 657.297,78.381 655.659,82.075 L653.799,86.26 C653.408,87.143 652.753,87.876 651.928,88.354 C651.103,88.829 650.135,89.034 649.176,88.934 L644.621,88.451 C640.605,88.022 636.71,90.001 634.688,93.501 C632.667,97.001 632.898,101.363 635.278,104.63 L637.972,108.33 C639.13,109.923 639.13,112.084 637.971,113.679 L635.277,117.377 C633.515,119.794 632.901,122.866 633.6,125.777 C634.299,128.688 636.241,131.146 638.911,132.5 C640.664,133.395 642.644,133.762 644.612,133.559 L649.173,133.071 C651.126,132.869 652.997,133.95 653.8,135.753 C655.198,138.889 659.887,137.892 659.887,134.457 L659.887,134.451 L656.706,134.451 L653.799,135.744 Z M659.613,133.158 C658.216,130.019 653.524,131.015 653.524,134.451 L653.524,134.457 L656.706,134.457 L659.612,133.162 C657.688,128.846 653.207,126.256 648.507,126.743 L643.947,127.231 C643.209,127.307 642.461,127.168 641.796,126.829 C640.783,126.315 640.051,125.388 639.787,124.291 C639.524,123.194 639.755,122.036 640.42,121.124 L643.116,117.423 C645.899,113.594 645.899,108.412 643.117,104.586 L640.421,100.884 C639.523,99.651 639.435,98.005 640.198,96.684 C640.961,95.363 642.431,94.616 643.947,94.779 L648.512,95.262 C650.807,95.501 653.116,95.011 655.111,93.864 C657.11,92.704 658.684,90.944 659.616,88.839 L661.474,84.658 C662.094,83.262 663.475,82.363 665,82.363 C666.525,82.363 667.907,83.262 668.525,84.655 L670.404,88.85 C671.327,90.94 672.9,92.697 674.89,93.854 C676.896,95.01 679.206,95.501 681.498,95.26 L686.051,94.776 C687.571,94.612 689.041,95.359 689.803,96.679 C690.565,98 690.477,99.646 689.578,100.878 L686.881,104.581 C685.526,106.45 684.795,108.698 684.795,111 C684.784,113.296 685.508,115.552 686.862,117.426 L689.563,121.137 C690.462,122.372 690.549,124.018 689.786,125.338 C689.023,126.659 687.554,127.406 686.037,127.244 L681.486,126.76 C676.791,126.264 672.311,128.844 670.386,133.153 L668.525,137.343 C667.907,138.738 666.525,139.637 665,139.637 C663.475,139.637 662.094,138.738 661.475,137.345 L659.613,133.158 Z" />
            <path d="M664.994,123.726 C672.022,123.726 677.72,118.028 677.72,111 C677.72,103.972 672.022,98.274 664.994,98.274 C657.965,98.274 652.268,103.972 652.268,111 C652.268,118.028 657.965,123.726 664.994,123.726 Z M664.994,117.363 C661.48,117.363 658.631,114.514 658.631,111 C658.631,107.486 661.48,104.637 664.994,104.637 C668.508,104.637 671.357,107.486 671.357,111 C671.357,114.514 668.508,117.363 664.994,117.363 Z" />
        </g>
    </g>
</svg>