<?xml version="1.0" encoding="UTF-8"?>
<svg height="600" width="800" xmlns="http://www.w3.org/2000/svg" xmlns:xlink="http://www.w3.org/1999/xlink">
    <g id="Notes" font-family="LucidaGrande, 'Lucida Grande', sans-serif" font-size="13">
        <rect fill="white" height="600.0" width="800.0" x="0.0" y="0.0" />
        <g font-size="13">
            <text x="18.0" y="176.0">Small</text>
            <text x="18.0" y="376.0">Medium</text>
            <text x="18.0" y="576.0">Large</text>
        </g>
        <g font-size="9">
            <text x="250.0" y="30.0">Ultralight</text>
            <text x="450.0" y="30.0">Regular</text>
            <text x="650.0" y="30.0">Black</text>
            <text id="template-version" fill="#505050" text-anchor="end" x="785.0" y="575.0">Template v.3.0</text>
            <a href="https://github.com/swhitty/SwiftDraw">
                <text fill="#505050" text-anchor="end" x="785.0" y="590.0">https://github.com/swhitty/SwiftDraw</text>
            </a>
        </g>
    </g>
    <g id="Guides" stroke="rgb(39, 170, 225)" stroke-width="0.5">
        <path id="Capline-S" d="M18,76 l800,0" />
        <path id="H-reference" d="M85,145.755 L87.685,145.755 L113.369,79.287 L114.052,79.287 L114.052,76 L112.148,76 L85,145.755 Z M95.693,121.536 L130.996,121.536 L130.263,119.313 L96.474,119.313 L95.693,121.536 Z M139.15,145.755 L141.787,145.755 L114.638,76 L113.466,76 L113.466,79.287 L139.15,145.755 Z" stroke="none" transform="translate(0,200)" />
        <path id="Baseline-S" d="M18,146 l800,0" />
        <path id="left-margin-Ultralight-M" d="M221,256 l0,110" />
        <path id="right-margin-Ultralight-M" d="M309,256 l0,110" />
        <path id="left-margin-Regular-M" d="M421,256 l0,110" />
        <path id="right-margin-Regular-M" d="M509,256 l0,110" />
        <path id="left-margin-Black-M" d="M621,256 l0,110" />
        <path id="right-margin-Black-M" d="M709,256 l0,110" />
        <path id="Capline-M" d="M18,276 l800,0" />
        <path id="Baseline-M" d="M18,346 l800,0" />
        <path id="Capline-L" d="M18,476 l800,0" />
        <path id="Baseline-L" d="M18,546 l800,0" />
    </g>
    <g id="Symbols">
        <g id="Ultralight-M" transform="translate(0,200)">
            <path d="M284.8,95.6 L277.76,95.6 C272.698,95.6 271.495,95.698 269.805,96.559 C268.149,97.403 266.803,98.749 265.959,100.405 C265.098,102.095 265,103.298 265,108.36 L265,111 C265,112.215 265.985,113.2 267.2,113.2 C268.415,113.2 269.4,112.215 269.4,111 L269.4,108.36 C269.4,104.182 269.482,103.184 269.88,102.402 C270.301,101.575 270.975,100.901 271.802,100.48 C272.584,100.082 273.582,100 277.76,100 L284.8,100 C286.015,100 287,99.015 287,97.8 C287,96.585 286.015,95.6 284.8,95.6 Z M286.356,96.244 L279.756,89.644 C278.896,88.785 277.504,88.785 276.644,89.644 C275.785,90.504 275.785,91.896 276.644,92.756 L283.244,99.356 C284.104,100.215 285.496,100.215 286.356,99.356 C287.215,98.496 287.215,97.104 286.356,96.244 Z M283.244,96.244 L276.644,102.844 C275.785,103.704 275.785,105.096 276.644,105.956 C277.504,106.815 278.896,106.815 279.756,105.956 L286.356,99.356 C287.215,98.496 287.215,97.104 286.356,96.244 C285.496,95.385 284.104,95.385 283.244,96.244 Z M260.6,89 L255.76,89 C250.698,89 249.495,89.098 247.805,89.959 C246.149,90.803 244.803,92.149 243.959,93.805 C243.098,95.495 243,96.698 243,101.76 L243,120.24 C243,125.302 243.098,126.505 243.959,128.195 C244.803,129.851 246.149,131.197 247.805,132.041 C249.495,132.902 250.698,133 255.76,133 L274.24,133 C279.302,133 280.505,132.902 282.195,132.041 C283.851,131.197 285.197,129.851 286.041,128.195 C286.902,126.505 287,125.302 287,120.24 L287,115.4 C287,114.185 286.015,113.2 284.8,113.2 C283.585,113.2 282.6,114.185 282.6,115.4 L282.6,120.24 C282.6,124.418 282.518,125.416 282.12,126.198 C281.699,127.025 281.025,127.699 280.198,128.12 C279.416,128.518 278.418,128.6 274.24,128.6 L255.76,128.6 C251.582,128.6 250.584,128.518 249.802,128.12 C248.975,127.699 248.301,127.025 247.88,126.198 C247.482,125.416 247.4,124.418 247.4,120.24 L247.4,101.76 C247.4,97.582 247.482,96.584 247.88,95.802 C248.301,94.975 248.975,94.301 249.802,93.88 C250.584,93.482 251.582,93.4 255.76,93.4 L260.6,93.4 C261.815,93.4 262.8,92.415 262.8,91.2 C262.8,89.985 261.815,89 260.6,89 Z" />
        </g>
        <g id="Regular-M" transform="translate(0,200)">
            <path d="M484.8,95.6 L477.76,95.6 C472.698,95.6 471.495,95.698 469.805,96.559 C468.149,97.403 466.803,98.749 465.959,100.405 C465.098,102.095 465,103.298 465,108.36 L465,111 C465,112.215 465.985,113.2 467.2,113.2 C468.415,113.2 469.4,112.215 469.4,111 L469.4,108.36 C469.4,104.182 469.482,103.184 469.88,102.402 C470.301,101.575 470.975,100.901 471.802,100.48 C472.584,100.082 473.582,100 477.76,100 L484.8,100 C486.015,100 487,99.015 487,97.8 C487,96.585 486.015,95.6 484.8,95.6 Z M486.356,96.244 L479.756,89.644 C478.896,88.785 477.504,88.785 476.644,89.644 C475.785,90.504 475.785,91.896 476.644,92.756 L483.244,99.356 C484.104,100.215 485.496,100.215 486.356,99.356 C487.215,98.496 487.215,97.104 486.356,96.244 Z M483.244,96.244 L476.644,102.844 C475.785,103.704 475.785,105.096 476.644,105.956 C477.504,106.815 478.896,106.815 479.756,105.956 L486.356,99.356 C487.215,98.496 487.215,97.104 486.356,96.244 C485.496,95.385 484.104,95.385 483.244,96.244 Z M460.6,89 L455.76,89 C450.698,89 449.495,89.098 447.805,89.959 C446.149,90.803 444.803,92.149 443.959,93.805 C443.098,95.495 443,96.698 443,101.76 L443,120.24 C443,125.302 443.098,126.505 443.959,128.195 C444.803,129.851 446.149,131.197 447.805,132.041 C449.495,132.902 450.698,133 455.76,133 L474.24,133 C479.302,133 480.505,132.902 482.195,132.041 C483.851,131.197 485.197,129.851 486.041,128.195 C486.902,126.505 487,125.302 487,120.24 L487,115.4 C487,114.185 486.015,113.2 484.8,113.2 C483.585,113.2 482.6,114.185 482.6,115.4 L482.6,120.24 C482.6,124.418 482.518,125.416 482.12,126.198 C481.699,127.025 481.025,127.699 480.198,128.12 C479.416,128.518 478.418,128.6 474.24,128.6 L455.76,128.6 C451.582,128.6 450.584,128.518 449.802,128.12 C448.975,127.699 448.301,127.025 447.88,126.198 C447.482,125.416 447.4,124.418 447.4,120.24 L447.4,101.76 C447.4,97.582 447.482,96.584 447.88,95.802 C448.301,94.975 448.975,94.301 449.802,93.88 C450.584,93.482 451.582,93.4 455.76,93.4 L460.6,93.4 C461.815,93.4 462.8,92.415 462.8,91.2 C462.8,89.985 461.815,89 460.6,89 Z" />
        </g>
        <g id="Black-M" transform="translate(0,200)">
            <path d="M684.8,95.6 L677.76,95.6 C672.698,95.6 671.495,95.698 669.805,96.559 C668.149,97.403 666.803,98.749 665.959,100.405 C665.098,102.095 665,103.298 665,108.36 L665,111 C665,112.215 665.985,113.2 667.2,113.2 C668.415,113.2 669.4,112.215 669.4,111 L669.4,108.36 C669.4,104.182 669.482,103.184 669.88,102.402 C670.301,101.575 670.974,100.901 671.802,100.48 C672.584,100.082 673.582,100 677.76,100 L684.8,100 C686.015,100 687,99.015 687,97.8 C687,96.585 686.015,95.6 684.8,95.6 Z M686.356,96.244 L679.756,89.644 C678.896,88.785 677.503,88.785 676.644,89.644 C675.785,90.504 675.785,91.896 676.644,92.756 L683.244,99.356 C684.104,100.215 685.496,100.215 686.356,99.356 C687.215,98.496 687.215,97.104 686.356,96.244 Z M683.244,96.244 L676.644,102.844 C675.785,103.704 675.785,105.096 676.644,105.956 C677.503,106.815 678.896,106.815 679.756,105.956 L686.356,99.356 C687.215,98.496 687.215,97.104 686.356,96.244 C685.496,95.385 684.104,95.385 683.244,96.244 Z M660.6,89 L655.76,89 C650.698,89 649.495,89.098 647.805,89.959 C646.149,90.803 644.803,92.149 643.959,93.805 C643.098,95.495 643,96.698 643,101.76 L643,120.24 C643,125.302 643.098,126.505 643.959,128.195 C644.803,129.851 646.149,131.197 647.805,132.041 C649.495,132.902 650.698,133 655.76,133 L674.24,133 C679.302,133 680.505,132.902 682.195,132.041 C683.851,131.197 685.197,129.851 686.041,128.195 C686.902,126.505 687,125.302 687,120.24 L687,115.4 C687,114.185 686.015,113.2 684.8,113.2 C683.585,113.2 682.6,114.185 682.6,115.4 L682.6,120.24 C682.6,124.418 682.518,125.416 682.12,126.198 C681.699,127.025 681.025,127.699 680.198,128.12 C679.416,128.518 678.418,128.6 674.24,128.6 L655.76,128.6 C651.582,128.6 650.584,128.518 649.802,128.12 C648.974,127.699 648.301,127.025 647.88,126.198 C647.482,125.416 647.4,124.418 647.4,120.24 L647.4,101.76 C647.4,97.582 647.482,96.584 647.88,95.802 C648.301,94.975 648.974,94.301 649.802,93.88 C650.584,93.482 651.582,93.4 655.76,93.4 L660.6,93.4 C661.815,93.4 662.8,92.415 662.8,91.2 C662.8,89.985 661.815,89 660.6,89 Z" />
        </g>
    </g>
</svg>