<?xml version="1.0" encoding="UTF-8"?>
<svg height="600" width="800" xmlns="http://www.w3.org/2000/svg" xmlns:xlink="http://www.w3.org/1999/xlink">
    <g id="Notes" font-family="LucidaGrande, 'Lucida Grande', sans-serif" font-size="13">
        <rect fill="white" height="600.0" width="800.0" x="0.0" y="0.0" />
        <g font-size="13">
            <text x="18.0" y="176.0">Small</text>
            <text x="18.0" y="376.0">Medium</text>
            <text x="18.0" y="576.0">Large</text>
        </g>
        <g font-size="9">
            <text x="250.0" y="30.0">Ultralight</text>
            <text x="450.0" y="30.0">Regular</text>
            <text x="650.0" y="30.0">Black</text>
            <text id="template-version" fill="#505050" text-anchor="end" x="785.0" y="575.0">Template v.3.0</text>
            <a href="https://github.com/swhitty/SwiftDraw">
                <text fill="#505050" text-anchor="end" x="785.0" y="590.0">https://github.com/swhitty/SwiftDraw</text>
            </a>
        </g>
    </g>
    <g id="Guides" stroke="rgb(39, 170, 225)" stroke-width="0.5">
        <path id="Capline-S" d="M18,76 l800,0" />
        <path id="H-reference" d="M85,145.755 L87.685,145.755 L113.369,79.287 L114.052,79.287 L114.052,76 L112.148,76 L85,145.755 Z M95.693,121.536 L130.996,121.536 L130.263,119.313 L96.474,119.313 L95.693,121.536 Z M139.15,145.755 L141.787,145.755 L114.638,76 L113.466,76 L113.466,79.287 L139.15,145.755 Z" stroke="none" transform="translate(0,200)" />
        <path id="Baseline-S" d="M18,146 l800,0" />
        <path id="left-margin-Ultralight-M" d="M235,256 l0,110" />
        <path id="right-margin-Ultralight-M" d="M295,256 l0,110" />
        <path id="left-margin-Regular-M" d="M435,256 l0,110" />
        <path id="right-margin-Regular-M" d="M495,256 l0,110" />
        <path id="left-margin-Black-M" d="M635,256 l0,110" />
        <path id="right-margin-Black-M" d="M695,256 l0,110" />
        <path id="Capline-M" d="M18,276 l800,0" />
        <path id="Baseline-M" d="M18,346 l800,0" />
        <path id="Capline-L" d="M18,476 l800,0" />
        <path id="Baseline-L" d="M18,546 l800,0" />
    </g>
    <g id="Symbols">
        <g id="Ultralight-M" transform="translate(0,200)">
            <path d="M260.983,144.746 C262.195,145.443 262.678,145.673 263.61,145.866 C264.47,146.045 265.53,146.045 266.395,145.865 C266.707,145.8 267.011,145.713 267.311,145.601 C267.843,145.404 268.132,145.251 269.007,144.751 C283.753,136.339 295,124.875 295,110.579 L295,98.186 C295,93.198 294.926,92.09 294.17,90.39 C293.528,88.753 292.28,87.25 290.658,86.223 C289.942,85.725 288.972,85.325 287.671,84.955 C286.442,84.605 285.332,84.363 281.739,83.632 C277.53,82.775 274.207,81.267 271.02,78.854 C268.383,76.86 267.947,76.565 266.73,76.245 C265.664,75.902 264.336,75.902 263.104,76.294 C262.053,76.565 261.617,76.86 258.981,78.854 C255.793,81.267 252.47,82.775 248.261,83.631 C244.656,84.366 243.559,84.605 242.33,84.954 C241.029,85.325 240.059,85.725 239.231,86.296 C237.581,87.438 236.632,88.581 235.829,90.391 C235.074,92.09 235,93.198 235,98.186 L235,110.579 C235,124.875 246.247,136.339 260.994,144.752 Z M264.353,139.118 C251.52,131.796 241.667,121.753 241.667,110.579 L241.667,98.186 C241.667,94.422 241.731,93.47 241.944,92.99 C242.262,92.272 242.428,92.073 243.078,91.623 C243.186,91.549 243.538,91.404 244.193,91.217 C245.179,90.936 246.233,90.707 249.62,90.017 C254.823,88.959 259.077,87.028 263.06,84.013 C264.568,82.872 265.085,82.522 264.996,82.545 C265.057,82.531 264.943,82.531 264.837,82.497 C264.915,82.522 265.432,82.872 266.941,84.013 C270.923,87.028 275.177,88.959 280.381,90.017 C283.757,90.704 284.821,90.936 285.808,91.217 C286.462,91.403 286.814,91.548 286.924,91.625 C287.476,91.977 287.815,92.385 288.004,92.864 C288.269,93.47 288.333,94.422 288.333,98.186 L288.333,110.579 C288.333,121.753 278.48,131.796 265.647,139.118 C265.13,139.413 264.992,139.486 264.944,139.504 C264.965,139.496 264.991,139.489 265.01,139.485 C265.057,139.475 264.943,139.475 264.995,139.486 C265.004,139.488 264.952,139.463 264.363,139.124 Z" />
        </g>
        <g id="Regular-M" transform="translate(0,200)">
            <path d="M460.983,144.746 C462.195,145.443 462.678,145.673 463.61,145.866 C464.47,146.045 465.53,146.045 466.395,145.865 C466.707,145.8 467.011,145.713 467.311,145.601 C467.843,145.404 468.132,145.251 469.007,144.751 C483.753,136.339 495,124.875 495,110.579 L495,98.186 C495,93.198 494.926,92.09 494.17,90.39 C493.528,88.753 492.28,87.25 490.658,86.223 C489.942,85.725 488.972,85.325 487.671,84.955 C486.442,84.605 485.332,84.363 481.739,83.632 C477.53,82.775 474.207,81.267 471.02,78.854 C468.383,76.86 467.947,76.565 466.73,76.245 C465.664,75.902 464.336,75.902 463.104,76.294 C462.053,76.565 461.617,76.86 458.981,78.854 C455.793,81.267 452.47,82.775 448.261,83.631 C444.656,84.366 443.559,84.605 442.33,84.954 C441.029,85.325 440.059,85.725 439.231,86.296 C437.581,87.438 436.632,88.581 435.829,90.391 C435.074,92.09 435,93.198 435,98.186 L435,110.579 C435,124.875 446.247,136.339 460.994,144.752 Z M464.353,139.118 C451.52,131.796 441.667,121.753 441.667,110.579 L441.667,98.186 C441.667,94.422 441.731,93.47 441.944,92.99 C442.262,92.272 442.428,92.073 443.078,91.623 C443.186,91.549 443.538,91.404 444.193,91.217 C445.179,90.936 446.233,90.707 449.62,90.017 C454.823,88.959 459.077,87.028 463.06,84.013 C464.568,82.872 465.085,82.522 464.996,82.545 C465.057,82.531 464.943,82.531 464.837,82.497 C464.915,82.522 465.432,82.872 466.941,84.013 C470.923,87.028 475.177,88.959 480.381,90.017 C483.757,90.704 484.821,90.936 485.808,91.217 C486.462,91.403 486.814,91.548 486.924,91.625 C487.476,91.977 487.815,92.385 488.004,92.864 C488.269,93.47 488.333,94.422 488.333,98.186 L488.333,110.579 C488.333,121.753 478.48,131.796 465.647,139.118 C465.13,139.413 464.992,139.486 464.944,139.504 C464.965,139.496 464.991,139.489 465.01,139.485 C465.057,139.475 464.943,139.475 464.995,139.486 C465.004,139.488 464.952,139.463 464.363,139.124 Z" />
        </g>
        <g id="Black-M" transform="translate(0,200)">
            <path d="M660.983,144.746 C662.195,145.443 662.678,145.673 663.61,145.866 C664.47,146.045 665.53,146.045 666.395,145.865 C666.707,145.8 667.011,145.713 667.311,145.601 C667.843,145.404 668.132,145.251 669.007,144.751 C683.753,136.339 695,124.875 695,110.579 L695,98.186 C695,93.198 694.926,92.09 694.17,90.39 C693.528,88.753 692.28,87.25 690.658,86.223 C689.942,85.725 688.972,85.325 687.671,84.955 C686.442,84.605 685.332,84.363 681.739,83.632 C677.53,82.775 674.207,81.267 671.02,78.854 C668.383,76.86 667.947,76.565 666.73,76.245 C665.664,75.902 664.336,75.902 663.104,76.294 C662.053,76.565 661.617,76.86 658.981,78.854 C655.793,81.267 652.47,82.775 648.261,83.631 C644.656,84.366 643.559,84.605 642.33,84.954 C641.029,85.325 640.059,85.725 639.231,86.296 C637.581,87.438 636.632,88.581 635.829,90.391 C635.074,92.09 635,93.198 635,98.186 L635,110.579 C635,124.875 646.247,136.339 660.994,144.752 Z M664.353,139.118 C651.52,131.796 641.667,121.753 641.667,110.579 L641.667,98.186 C641.667,94.422 641.731,93.47 641.944,92.99 C642.262,92.272 642.428,92.073 643.078,91.623 C643.186,91.549 643.538,91.404 644.193,91.217 C645.179,90.936 646.233,90.707 649.62,90.017 C654.823,88.959 659.077,87.028 663.06,84.013 C664.568,82.872 665.085,82.522 664.996,82.545 C665.057,82.531 664.943,82.531 664.837,82.497 C664.915,82.522 665.432,82.872 666.941,84.013 C670.923,87.028 675.177,88.959 680.381,90.017 C683.757,90.704 684.821,90.936 685.808,91.217 C686.462,91.403 686.814,91.548 686.924,91.625 C687.476,91.977 687.815,92.385 688.004,92.864 C688.269,93.47 688.333,94.422 688.333,98.186 L688.333,110.579 C688.333,121.753 678.48,131.796 665.647,139.118 C665.13,139.413 664.992,139.486 664.944,139.504 C664.965,139.496 664.991,139.489 665.01,139.485 C665.057,139.475 664.943,139.475 664.995,139.486 C665.004,139.488 664.952,139.463 664.363,139.124 Z" />
        </g>
    </g>
</svg>