<?xml version="1.0" encoding="UTF-8"?>
<svg height="600" width="800" xmlns="http://www.w3.org/2000/svg" xmlns:xlink="http://www.w3.org/1999/xlink">
    <g id="Notes" font-family="LucidaGrande, 'Lucida Grande', sans-serif" font-size="13">
        <rect fill="white" height="600.0" width="800.0" x="0.0" y="0.0" />
        <g font-size="13">
            <text x="18.0" y="176.0">Small</text>
            <text x="18.0" y="376.0">Medium</text>
            <text x="18.0" y="576.0">Large</text>
        </g>
        <g font-size="9">
            <text x="250.0" y="30.0">Ultralight</text>
            <text x="450.0" y="30.0">Regular</text>
            <text x="650.0" y="30.0">Black</text>
            <text id="template-version" fill="#505050" text-anchor="end" x="785.0" y="575.0">Template v.3.0</text>
            <a href="https://github.com/swhitty/SwiftDraw">
                <text fill="#505050" text-anchor="end" x="785.0" y="590.0">https://github.com/swhitty/SwiftDraw</text>
            </a>
        </g>
    </g>
    <g id="Guides" stroke="rgb(39, 170, 225)" stroke-width="0.5">
        <path id="Capline-S" d="M18,76 l800,0" />
        <path id="H-reference" d="M85,145.755 L87.685,145.755 L113.369,79.287 L114.052,79.287 L114.052,76 L112.148,76 L85,145.755 Z M95.693,121.536 L130.996,121.536 L130.263,119.313 L96.474,119.313 L95.693,121.536 Z M139.15,145.755 L141.787,145.755 L114.638,76 L113.466,76 L113.466,79.287 L139.15,145.755 Z" stroke="none" transform="translate(0,200)" />
        <path id="Baseline-S" d="M18,146 l800,0" />
        <path id="left-margin-Ultralight-M" d="M230,256 l0,110" />
        <path id="right-margin-Ultralight-M" d="M300,256 l0,110" />
        <path id="left-margin-Regular-M" d="M430,256 l0,110" />
        <path id="right-margin-Regular-M" d="M500,256 l0,110" />
        <path id="left-margin-Black-M" d="M630,256 l0,110" />
        <path id="right-margin-Black-M" d="M700,256 l0,110" />
        <path id="Capline-M" d="M18,276 l800,0" />
        <path id="Baseline-M" d="M18,346 l800,0" />
        <path id="Capline-L" d="M18,476 l800,0" />
        <path id="Baseline-L" d="M18,546 l800,0" />
    </g>
    <g id="Symbols">
        <g id="Ultralight-M" transform="translate(0,200)">
            <path d="M254.288,119.646 C255.72,122.377 258.554,124.125 261.695,124.125 L267.917,124.125 C272.749,124.125 276.667,120.207 276.667,115.375 C276.667,110.543 272.749,106.625 267.917,106.625 L262.083,106.625 C260.473,106.625 259.167,105.319 259.167,103.708 C259.167,102.098 260.473,100.792 262.083,100.792 L268.305,100.792 C269.255,100.792 270.112,101.321 270.547,102.148 C271.296,103.574 273.059,104.123 274.485,103.374 C275.911,102.625 276.46,100.861 275.711,99.435 C274.278,96.708 271.444,94.958 268.305,94.958 L262.083,94.958 C257.251,94.958 253.333,98.876 253.333,103.708 C253.333,108.541 257.251,112.458 262.083,112.458 L267.917,112.458 C269.527,112.458 270.833,113.764 270.833,115.375 C270.833,116.986 269.527,118.292 267.917,118.292 L261.695,118.292 C260.743,118.292 259.888,117.764 259.454,116.937 C258.706,115.511 256.943,114.961 255.517,115.709 C254.09,116.457 253.54,118.22 254.288,119.646 Z M262.083,93.5 L262.083,97.875 C262.083,99.486 263.389,100.792 265,100.792 C266.611,100.792 267.917,99.486 267.917,97.875 L267.917,93.5 C267.917,91.889 266.611,90.583 265,90.583 C263.389,90.583 262.083,91.889 262.083,93.5 Z M262.083,121.208 L262.083,125.583 C262.083,127.194 263.389,128.5 265,128.5 C266.611,128.5 267.917,127.194 267.917,125.583 L267.917,121.208 C267.917,119.598 266.611,118.292 265,118.292 C263.389,118.292 262.083,119.598 262.083,121.208 Z M285.417,111 C285.417,120.994 276.795,129.976 265.567,136.524 C265.042,136.833 264.996,136.855 265.009,136.852 C265.025,136.849 264.975,136.849 264.926,136.839 C265.008,136.856 265.031,136.863 265.049,136.869 C265.007,136.853 264.886,136.788 264.435,136.525 C253.205,129.976 244.583,120.994 244.583,111 L244.583,97.052 C244.583,94.565 244.622,93.984 244.773,93.586 C244.94,93.146 245.215,92.751 245.571,92.438 C245.891,92.157 246.427,91.913 248.747,91.042 L264.385,85.18 C264.913,84.982 265.029,84.943 265.023,84.944 C265.018,84.945 265.018,84.945 265.014,84.945 C265,84.948 265,84.948 265,84.948 C264.98,84.945 264.98,84.945 264.975,84.944 C264.968,84.943 265.079,84.98 265.619,85.181 L281.255,91.042 C283.575,91.914 284.107,92.156 284.425,92.436 C284.783,92.752 285.057,93.147 285.226,93.59 C285.378,93.988 285.417,94.568 285.417,97.053 L285.417,111 Z M291.25,111 L291.25,97.053 C291.25,93.704 291.194,92.867 290.676,91.511 C290.171,90.186 289.35,89.002 288.284,88.062 C287.201,87.105 286.434,86.757 283.304,85.581 L267.663,79.718 C266.686,79.353 266.455,79.276 265.928,79.189 C265.888,79.182 265.888,79.182 265.848,79.176 C265.281,79.094 264.719,79.094 264.166,79.174 C264.121,79.181 264.121,79.181 264.091,79.186 C263.555,79.272 263.291,79.36 262.337,79.718 L246.698,85.58 C243.581,86.751 242.807,87.102 241.721,88.055 C240.649,88.998 239.826,90.185 239.32,91.514 C238.806,92.871 238.75,93.707 238.75,97.052 L238.75,111 C238.75,123.786 248.592,134.039 261.495,141.563 C262.26,142.01 262.512,142.146 262.978,142.323 C263.241,142.423 263.506,142.501 263.784,142.559 C264.61,142.715 265.39,142.715 266.151,142.572 C267.032,142.387 267.454,142.182 268.515,141.558 C281.409,134.039 291.25,123.786 291.25,111 Z" />
        </g>
        <g id="Regular-M" transform="translate(0,200)">
            <path d="M454.288,119.646 C455.72,122.377 458.554,124.125 461.695,124.125 L467.917,124.125 C472.749,124.125 476.667,120.207 476.667,115.375 C476.667,110.543 472.749,106.625 467.917,106.625 L462.083,106.625 C460.473,106.625 459.167,105.319 459.167,103.708 C459.167,102.098 460.473,100.792 462.083,100.792 L468.305,100.792 C469.255,100.792 470.112,101.321 470.547,102.148 C471.296,103.574 473.059,104.123 474.485,103.374 C475.911,102.625 476.46,100.861 475.711,99.435 C474.278,96.708 471.444,94.958 468.305,94.958 L462.083,94.958 C457.251,94.958 453.333,98.876 453.333,103.708 C453.333,108.541 457.251,112.458 462.083,112.458 L467.917,112.458 C469.527,112.458 470.833,113.764 470.833,115.375 C470.833,116.986 469.527,118.292 467.917,118.292 L461.695,118.292 C460.743,118.292 459.888,117.764 459.454,116.937 C458.706,115.511 456.943,114.961 455.517,115.709 C454.09,116.457 453.54,118.22 454.288,119.646 Z M462.083,93.5 L462.083,97.875 C462.083,99.486 463.389,100.792 465,100.792 C466.611,100.792 467.917,99.486 467.917,97.875 L467.917,93.5 C467.917,91.889 466.611,90.583 465,90.583 C463.389,90.583 462.083,91.889 462.083,93.5 Z M462.083,121.208 L462.083,125.583 C462.083,127.194 463.389,128.5 465,128.5 C466.611,128.5 467.917,127.194 467.917,125.583 L467.917,121.208 C467.917,119.598 466.611,118.292 465,118.292 C463.389,118.292 462.083,119.598 462.083,121.208 Z M485.417,111 C485.417,120.994 476.795,129.976 465.567,136.524 C465.042,136.833 464.996,136.855 465.009,136.852 C465.025,136.849 464.975,136.849 464.926,136.839 C465.008,136.856 465.031,136.863 465.049,136.869 C465.007,136.853 464.886,136.788 464.435,136.525 C453.205,129.976 444.583,120.994 444.583,111 L444.583,97.052 C444.583,94.565 444.622,93.984 444.773,93.586 C444.94,93.146 445.215,92.751 445.571,92.438 C445.891,92.157 446.427,91.913 448.747,91.042 L464.385,85.18 C464.913,84.982 465.029,84.943 465.023,84.944 C465.018,84.945 465.018,84.945 465.014,84.945 C465,84.948 465,84.948 465,84.948 C464.98,84.945 464.98,84.945 464.975,84.944 C464.968,84.943 465.079,84.98 465.619,85.181 L481.255,91.042 C483.575,91.914 484.107,92.156 484.425,92.436 C484.783,92.752 485.057,93.147 485.226,93.59 C485.378,93.988 485.417,94.568 485.417,97.053 L485.417,111 Z M491.25,111 L491.25,97.053 C491.25,93.704 491.194,92.867 490.676,91.511 C490.171,90.186 489.35,89.002 488.284,88.062 C487.201,87.105 486.434,86.757 483.304,85.581 L467.663,79.718 C466.686,79.353 466.455,79.276 465.928,79.189 C465.888,79.182 465.888,79.182 465.848,79.176 C465.281,79.094 464.719,79.094 464.166,79.174 C464.121,79.181 464.121,79.181 464.091,79.186 C463.555,79.272 463.291,79.36 462.337,79.718 L446.698,85.58 C443.581,86.751 442.807,87.102 441.721,88.055 C440.649,88.998 439.826,90.185 439.32,91.514 C438.806,92.871 438.75,93.707 438.75,97.052 L438.75,111 C438.75,123.786 448.592,134.039 461.495,141.563 C462.26,142.01 462.512,142.146 462.978,142.323 C463.241,142.423 463.506,142.501 463.784,142.559 C464.61,142.715 465.39,142.715 466.151,142.572 C467.032,142.387 467.454,142.182 468.515,141.558 C481.409,134.039 491.25,123.786 491.25,111 Z" />
        </g>
        <g id="Black-M" transform="translate(0,200)">
            <path d="M654.288,119.646 C655.72,122.377 658.554,124.125 661.695,124.125 L667.917,124.125 C672.749,124.125 676.667,120.207 676.667,115.375 C676.667,110.543 672.749,106.625 667.917,106.625 L662.083,106.625 C660.473,106.625 659.167,105.319 659.167,103.708 C659.167,102.098 660.473,100.792 662.083,100.792 L668.305,100.792 C669.255,100.792 670.112,101.321 670.547,102.148 C671.296,103.574 673.059,104.123 674.485,103.374 C675.911,102.625 676.46,100.861 675.711,99.435 C674.278,96.708 671.444,94.958 668.305,94.958 L662.083,94.958 C657.251,94.958 653.333,98.876 653.333,103.708 C653.333,108.541 657.251,112.458 662.083,112.458 L667.917,112.458 C669.527,112.458 670.833,113.764 670.833,115.375 C670.833,116.986 669.527,118.292 667.917,118.292 L661.695,118.292 C660.743,118.292 659.888,117.764 659.454,116.937 C658.706,115.511 656.943,114.961 655.517,115.709 C654.09,116.457 653.54,118.22 654.288,119.646 Z M662.083,93.5 L662.083,97.875 C662.083,99.486 663.389,100.792 665,100.792 C666.611,100.792 667.917,99.486 667.917,97.875 L667.917,93.5 C667.917,91.889 666.611,90.583 665,90.583 C663.389,90.583 662.083,91.889 662.083,93.5 Z M662.083,121.208 L662.083,125.583 C662.083,127.194 663.389,128.5 665,128.5 C666.611,128.5 667.917,127.194 667.917,125.583 L667.917,121.208 C667.917,119.598 666.611,118.292 665,118.292 C663.389,118.292 662.083,119.598 662.083,121.208 Z M685.417,111 C685.417,120.994 676.795,129.976 665.567,136.524 C665.042,136.833 664.996,136.855 665.009,136.852 C665.025,136.849 664.975,136.849 664.926,136.839 C665.008,136.856 665.031,136.863 665.049,136.869 C665.007,136.853 664.886,136.788 664.435,136.525 C653.205,129.976 644.583,120.994 644.583,111 L644.583,97.052 C644.583,94.565 644.622,93.984 644.773,93.586 C644.94,93.146 645.215,92.751 645.571,92.438 C645.891,92.157 646.427,91.913 648.747,91.042 L664.385,85.18 C664.913,84.982 665.029,84.943 665.023,84.944 C665.018,84.945 665.018,84.945 665.014,84.945 C665,84.948 665,84.948 665,84.948 C664.98,84.945 664.98,84.945 664.975,84.944 C664.968,84.943 665.079,84.98 665.619,85.181 L681.255,91.042 C683.575,91.914 684.107,92.156 684.425,92.436 C684.783,92.752 685.057,93.147 685.226,93.59 C685.378,93.988 685.417,94.568 685.417,97.053 L685.417,111 Z M691.25,111 L691.25,97.053 C691.25,93.704 691.194,92.867 690.676,91.511 C690.171,90.186 689.35,89.002 688.284,88.062 C687.201,87.105 686.434,86.757 683.304,85.581 L667.663,79.718 C666.686,79.353 666.455,79.276 665.928,79.189 C665.888,79.182 665.888,79.182 665.848,79.176 C665.281,79.094 664.719,79.094 664.166,79.174 C664.121,79.181 664.121,79.181 664.091,79.186 C663.555,79.272 663.291,79.36 662.337,79.718 L646.698,85.58 C643.581,86.751 642.807,87.102 641.721,88.055 C640.649,88.998 639.826,90.185 639.32,91.514 C638.806,92.871 638.75,93.707 638.75,97.052 L638.75,111 C638.75,123.786 648.591,134.039 661.495,141.563 C662.26,142.01 662.512,142.146 662.978,142.323 C663.241,142.423 663.506,142.501 663.784,142.559 C664.61,142.715 665.39,142.715 666.151,142.572 C667.032,142.387 667.454,142.182 668.515,141.558 C681.409,134.039 691.25,123.786 691.25,111 Z" />
        </g>
    </g>
</svg>