<?xml version="1.0" encoding="UTF-8"?>
<svg height="600" width="800" xmlns="http://www.w3.org/2000/svg" xmlns:xlink="http://www.w3.org/1999/xlink">
    <g id="Notes" font-family="LucidaGrande, 'Lucida Grande', sans-serif" font-size="13">
        <rect fill="white" height="600.0" width="800.0" x="0.0" y="0.0" />
        <g font-size="13">
            <text x="18.0" y="176.0">Small</text>
            <text x="18.0" y="376.0">Medium</text>
            <text x="18.0" y="576.0">Large</text>
        </g>
        <g font-size="9">
            <text x="250.0" y="30.0">Ultralight</text>
            <text x="450.0" y="30.0">Regular</text>
            <text x="650.0" y="30.0">Black</text>
            <text id="template-version" fill="#505050" text-anchor="end" x="785.0" y="575.0">Template v.3.0</text>
            <a href="https://github.com/swhitty/SwiftDraw">
                <text fill="#505050" text-anchor="end" x="785.0" y="590.0">https://github.com/swhitty/SwiftDraw</text>
            </a>
        </g>
    </g>
    <g id="Guides" stroke="rgb(39, 170, 225)" stroke-width="0.5">
        <path id="Capline-S" d="M18,76 l800,0" />
        <path id="H-reference" d="M85,145.755 L87.685,145.755 L113.369,79.287 L114.052,79.287 L114.052,76 L112.148,76 L85,145.755 Z M95.693,121.536 L130.996,121.536 L130.263,119.313 L96.474,119.313 L95.693,121.536 Z M139.15,145.755 L141.787,145.755 L114.638,76 L113.466,76 L113.466,79.287 L139.15,145.755 Z" stroke="none" transform="translate(0,200)" />
        <path id="Baseline-S" d="M18,146 l800,0" />
        <path id="left-margin-Ultralight-M" d="M230,256 l0,110" />
        <path id="right-margin-Ultralight-M" d="M300,256 l0,110" />
        <path id="left-margin-Regular-M" d="M430,256 l0,110" />
        <path id="right-margin-Regular-M" d="M500,256 l0,110" />
        <path id="left-margin-Black-M" d="M630,256 l0,110" />
        <path id="right-margin-Black-M" d="M700,256 l0,110" />
        <path id="Capline-M" d="M18,276 l800,0" />
        <path id="Baseline-M" d="M18,346 l800,0" />
        <path id="Capline-L" d="M18,476 l800,0" />
        <path id="Baseline-L" d="M18,546 l800,0" />
    </g>
    <g id="Symbols">
        <g id="Ultralight-M" transform="translate(0,200)">
            <path d="M268.889,119.143 L268.889,99.872 C268.889,98.098 267.148,96.66 265,96.66 C262.852,96.66 261.111,98.098 261.111,99.872 L261.111,119.143 C261.111,120.917 262.852,122.355 265,122.355 C267.148,122.355 268.889,120.917 268.889,119.143 Z M253.333,112.72 L276.667,112.72 C278.814,112.72 280.556,111.282 280.556,109.508 C280.556,107.734 278.814,106.296 276.667,106.296 L253.333,106.296 C251.186,106.296 249.444,107.734 249.444,109.508 C249.444,111.282 251.186,112.72 253.333,112.72 Z M292.222,111.114 C292.222,122.116 280.735,132 265.754,139.222 C265.152,139.512 264.991,139.584 264.935,139.602 C264.959,139.594 264.99,139.587 265.012,139.583 C265.033,139.579 264.967,139.579 264.902,139.569 C265.015,139.588 264.949,139.561 264.246,139.222 C249.265,132 237.778,122.116 237.778,111.114 L237.778,95.751 C237.778,93.015 237.83,92.375 238.031,91.937 C238.254,91.453 238.62,91.017 239.094,90.672 C239.255,90.555 239.483,90.435 239.878,90.276 C240.499,90.025 241.175,89.803 243.33,89.135 L264.179,82.68 C264.884,82.461 265.039,82.419 265.03,82.42 C265.025,82.421 265.025,82.421 265.019,82.422 C265,82.424 265,82.424 265,82.424 C264.974,82.421 264.974,82.421 264.966,82.42 C264.957,82.418 265.105,82.459 265.826,82.681 L286.673,89.136 C289.76,90.09 290.476,90.358 290.899,90.668 C291.377,91.015 291.742,91.451 291.966,91.939 C292.17,92.38 292.222,93.018 292.222,95.751 L292.222,111.114 Z M300,111.114 L300,95.751 C300,92.067 299.925,91.145 299.235,89.652 C298.564,88.194 297.469,86.887 296.046,85.852 C294.599,84.795 293.561,84.406 289.401,83.12 L268.551,76.665 C267.249,76.263 266.94,76.178 266.237,76.082 C266.184,76.075 266.184,76.075 266.131,76.068 C265.375,75.978 264.625,75.978 263.888,76.066 C263.828,76.073 263.828,76.073 263.788,76.079 C263.073,76.174 262.721,76.271 261.449,76.665 L240.597,83.121 C238.16,83.877 237.401,84.125 236.461,84.505 C235.483,84.9 234.681,85.322 233.956,85.85 C232.532,86.885 231.435,88.191 230.76,89.656 C230.075,91.149 230,92.07 230,95.751 L230,111.114 C230,125.19 243.111,136.472 260.325,144.77 C261.741,145.453 262.285,145.671 263.355,145.863 C264.479,146.039 265.521,146.039 266.535,145.882 C266.992,145.803 267.346,145.717 267.696,145.607 C268.317,145.413 268.653,145.263 269.675,144.77 C286.889,136.472 300,125.19 300,111.114 Z" />
        </g>
        <g id="Regular-M" transform="translate(0,200)">
            <path d="M468.889,119.143 L468.889,99.872 C468.889,98.098 467.148,96.66 465,96.66 C462.852,96.66 461.111,98.098 461.111,99.872 L461.111,119.143 C461.111,120.917 462.852,122.355 465,122.355 C467.148,122.355 468.889,120.917 468.889,119.143 Z M453.333,112.72 L476.667,112.72 C478.814,112.72 480.556,111.282 480.556,109.508 C480.556,107.734 478.814,106.296 476.667,106.296 L453.333,106.296 C451.186,106.296 449.444,107.734 449.444,109.508 C449.444,111.282 451.186,112.72 453.333,112.72 Z M492.222,111.114 C492.222,122.116 480.735,132 465.754,139.222 C465.152,139.512 464.991,139.584 464.935,139.602 C464.959,139.594 464.99,139.587 465.012,139.583 C465.033,139.579 464.967,139.579 464.902,139.569 C465.015,139.588 464.949,139.561 464.246,139.222 C449.265,132 437.778,122.116 437.778,111.114 L437.778,95.751 C437.778,93.015 437.83,92.375 438.031,91.937 C438.254,91.453 438.62,91.017 439.094,90.672 C439.255,90.555 439.483,90.435 439.878,90.276 C440.499,90.025 441.176,89.803 443.33,89.135 L464.179,82.68 C464.884,82.461 465.039,82.419 465.03,82.42 C465.025,82.421 465.025,82.421 465.019,82.422 C465,82.424 465,82.424 465,82.424 C464.974,82.421 464.974,82.421 464.966,82.42 C464.957,82.418 465.105,82.459 465.826,82.681 L486.673,89.136 C489.76,90.09 490.476,90.358 490.899,90.668 C491.377,91.015 491.742,91.451 491.966,91.939 C492.17,92.38 492.222,93.018 492.222,95.751 L492.222,111.114 Z M500,111.114 L500,95.751 C500,92.067 499.925,91.145 499.235,89.652 C498.564,88.194 497.469,86.887 496.046,85.852 C494.599,84.795 493.561,84.406 489.401,83.12 L468.551,76.665 C467.249,76.263 466.94,76.178 466.237,76.082 C466.184,76.075 466.184,76.075 466.131,76.068 C465.375,75.978 464.625,75.978 463.888,76.066 C463.828,76.073 463.828,76.073 463.788,76.079 C463.073,76.174 462.721,76.271 461.449,76.665 L440.597,83.121 C438.16,83.877 437.401,84.125 436.461,84.505 C435.483,84.9 434.681,85.322 433.956,85.85 C432.532,86.885 431.435,88.191 430.76,89.656 C430.075,91.149 430,92.07 430,95.751 L430,111.114 C430,125.19 443.111,136.472 460.325,144.77 C461.741,145.453 462.285,145.671 463.355,145.863 C464.479,146.039 465.521,146.039 466.535,145.882 C466.992,145.803 467.346,145.717 467.696,145.607 C468.317,145.413 468.653,145.263 469.675,144.77 C486.889,136.472 500,125.19 500,111.114 Z" />
        </g>
        <g id="Black-M" transform="translate(0,200)">
            <path d="M668.889,119.143 L668.889,99.872 C668.889,98.098 667.148,96.66 665,96.66 C662.852,96.66 661.111,98.098 661.111,99.872 L661.111,119.143 C661.111,120.917 662.852,122.355 665,122.355 C667.148,122.355 668.889,120.917 668.889,119.143 Z M653.333,112.72 L676.667,112.72 C678.814,112.72 680.556,111.282 680.556,109.508 C680.556,107.734 678.814,106.296 676.667,106.296 L653.333,106.296 C651.186,106.296 649.444,107.734 649.444,109.508 C649.444,111.282 651.186,112.72 653.333,112.72 Z M692.222,111.114 C692.222,122.116 680.735,132 665.754,139.222 C665.152,139.512 664.991,139.584 664.935,139.602 C664.959,139.594 664.99,139.587 665.012,139.583 C665.033,139.579 664.967,139.579 664.902,139.569 C665.015,139.588 664.949,139.561 664.246,139.222 C649.265,132 637.778,122.116 637.778,111.114 L637.778,95.751 C637.778,93.015 637.83,92.375 638.031,91.937 C638.254,91.453 638.62,91.017 639.094,90.672 C639.255,90.555 639.483,90.435 639.878,90.276 C640.499,90.025 641.175,89.803 643.33,89.135 L664.18,82.68 C664.884,82.461 665.039,82.419 665.03,82.42 C665.025,82.421 665.025,82.421 665.019,82.422 C665,82.424 665,82.424 665,82.424 C664.974,82.421 664.974,82.421 664.966,82.42 C664.957,82.418 665.105,82.459 665.826,82.681 L686.673,89.136 C689.76,90.09 690.476,90.358 690.899,90.668 C691.377,91.015 691.742,91.451 691.966,91.939 C692.17,92.38 692.222,93.018 692.222,95.751 L692.222,111.114 Z M700,111.114 L700,95.751 C700,92.067 699.925,91.145 699.235,89.652 C698.564,88.194 697.469,86.887 696.046,85.852 C694.599,84.795 693.561,84.406 689.401,83.12 L668.551,76.665 C667.249,76.263 666.94,76.178 666.237,76.082 C666.184,76.075 666.184,76.075 666.131,76.068 C665.375,75.978 664.625,75.978 663.888,76.066 C663.828,76.073 663.828,76.073 663.788,76.079 C663.073,76.174 662.721,76.271 661.449,76.665 L640.597,83.121 C638.16,83.877 637.401,84.125 636.461,84.505 C635.483,84.9 634.681,85.322 633.956,85.85 C632.532,86.885 631.435,88.191 630.76,89.656 C630.075,91.149 630,92.07 630,95.751 L630,111.114 C630,125.19 643.111,136.472 660.325,144.77 C661.741,145.453 662.285,145.671 663.355,145.863 C664.479,146.039 665.521,146.039 666.535,145.882 C666.992,145.803 667.346,145.717 667.696,145.607 C668.317,145.413 668.653,145.263 669.675,144.77 C686.889,136.472 700,125.19 700,111.114 Z" />
        </g>
    </g>
</svg>