<?xml version="1.0" encoding="UTF-8"?>
<svg height="600" width="800" xmlns="http://www.w3.org/2000/svg" xmlns:xlink="http://www.w3.org/1999/xlink">
    <g id="Notes" font-family="LucidaGrande, 'Lucida Grande', sans-serif" font-size="13">
        <rect fill="white" height="600.0" width="800.0" x="0.0" y="0.0" />
        <g font-size="13">
            <text x="18.0" y="176.0">Small</text>
            <text x="18.0" y="376.0">Medium</text>
            <text x="18.0" y="576.0">Large</text>
        </g>
        <g font-size="9">
            <text x="250.0" y="30.0">Ultralight</text>
            <text x="450.0" y="30.0">Regular</text>
            <text x="650.0" y="30.0">Black</text>
            <text id="template-version" fill="#505050" text-anchor="end" x="785.0" y="575.0">Template v.3.0</text>
            <a href="https://github.com/swhitty/SwiftDraw">
                <text fill="#505050" text-anchor="end" x="785.0" y="590.0">https://github.com/swhitty/SwiftDraw</text>
            </a>
        </g>
    </g>
    <g id="Guides" stroke="rgb(39, 170, 225)" stroke-width="0.5">
        <path id="Capline-S" d="M18,76 l800,0" />
        <path id="H-reference" d="M85,145.755 L87.685,145.755 L113.369,79.287 L114.052,79.287 L114.052,76 L112.148,76 L85,145.755 Z M95.693,121.536 L130.996,121.536 L130.263,119.313 L96.474,119.313 L95.693,121.536 Z M139.15,145.755 L141.787,145.755 L114.638,76 L113.466,76 L113.466,79.287 L139.15,145.755 Z" stroke="none" transform="translate(0,200)" />
        <path id="Baseline-S" d="M18,146 l800,0" />
        <path id="left-margin-Ultralight-M" d="M230,256 l0,110" />
        <path id="right-margin-Ultralight-M" d="M300,256 l0,110" />
        <path id="left-margin-Regular-M" d="M430,256 l0,110" />
        <path id="right-margin-Regular-M" d="M500,256 l0,110" />
        <path id="left-margin-Black-M" d="M630,256 l0,110" />
        <path id="right-margin-Black-M" d="M700,256 l0,110" />
        <path id="Capline-M" d="M18,276 l800,0" />
        <path id="Baseline-M" d="M18,346 l800,0" />
        <path id="Capline-L" d="M18,476 l800,0" />
        <path id="Baseline-L" d="M18,546 l800,0" />
    </g>
    <g id="Symbols">
        <g id="Ultralight-M" transform="translate(0,200)">
            <path d="M283.525,123.975 L294.025,134.475 C295.392,135.842 297.608,135.842 298.975,134.475 C300.342,133.108 300.342,130.892 298.975,129.525 L288.475,119.025 C287.108,117.658 284.892,117.658 283.525,119.025 C282.158,120.392 282.158,122.608 283.525,123.975 Z M294.025,129.525 L283.525,140.025 C282.158,141.392 282.158,143.608 283.525,144.975 C284.892,146.342 287.108,146.342 288.475,144.975 L298.975,134.475 C300.342,133.108 300.342,130.892 298.975,129.525 C297.608,128.158 295.392,128.158 294.025,129.525 Z M296.5,128.5 L287.992,128.5 C284.292,128.5 283.421,128.451 282.591,128.197 C281.704,127.929 280.885,127.491 280.174,126.908 C280.01,126.773 279.85,126.621 279.678,126.433 C279.118,125.823 278.618,125.118 276.924,122.578 L276.078,121.309 C275.005,119.7 272.832,119.266 271.224,120.338 C269.616,121.41 269.181,123.583 270.253,125.191 L271.1,126.462 C273.042,129.372 273.61,130.174 274.521,131.167 C274.911,131.591 275.309,131.97 275.734,132.319 C277.155,133.486 278.793,134.361 280.554,134.895 C282.327,135.436 283.469,135.5 287.992,135.5 L296.5,135.5 C298.433,135.5 300,133.933 300,132 C300,130.067 298.433,128.5 296.5,128.5 Z M283.525,81.975 L294.025,92.475 C295.392,93.842 297.608,93.842 298.975,92.475 C300.342,91.108 300.342,88.892 298.975,87.525 L288.475,77.025 C287.108,75.658 284.892,75.658 283.525,77.025 C282.158,78.392 282.158,80.608 283.525,81.975 Z M294.025,87.525 L283.525,98.025 C282.158,99.392 282.158,101.608 283.525,102.975 C284.892,104.342 287.108,104.342 288.475,102.975 L298.975,92.475 C300.342,91.108 300.342,88.892 298.975,87.525 C297.608,86.158 295.392,86.158 294.025,87.525 Z M296.5,86.5 L287.992,86.5 C283.469,86.5 282.327,86.564 280.547,87.107 C278.793,87.639 277.155,88.514 275.733,89.681 C275.309,90.03 274.911,90.409 274.521,90.833 C273.61,91.826 273.042,92.627 271.101,95.537 L253.075,122.579 C251.025,125.653 250.497,126.356 249.823,126.91 C249.114,127.493 248.297,127.93 247.42,128.194 C246.579,128.451 245.706,128.5 242.008,128.5 L233.5,128.5 C231.567,128.5 230,130.067 230,132 C230,133.933 231.567,135.5 233.5,135.5 L242.008,135.5 C246.529,135.5 247.674,135.435 249.453,134.893 C251.206,134.364 252.847,133.487 254.27,132.316 C255.704,131.136 256.395,130.217 258.899,126.463 L276.925,99.421 C278.618,96.882 279.118,96.177 279.678,95.567 C279.85,95.379 280.01,95.227 280.173,95.093 C280.885,94.509 281.704,94.071 282.584,93.805 C283.421,93.549 284.292,93.5 287.992,93.5 L296.5,93.5 C298.433,93.5 300,91.933 300,90 C300,88.067 298.433,86.5 296.5,86.5 Z M233.5,93.5 L242.008,93.5 C245.708,93.5 246.579,93.549 247.409,93.803 C248.296,94.071 249.115,94.509 249.826,95.093 C250.497,95.644 251.025,96.347 253.076,99.422 L253.922,100.691 C254.995,102.3 257.168,102.734 258.776,101.662 C260.384,100.59 260.819,98.417 259.747,96.809 L258.9,95.538 C256.395,91.784 255.704,90.864 254.27,89.684 C252.845,88.514 251.207,87.639 249.446,87.105 C247.673,86.564 246.531,86.5 242.008,86.5 L233.5,86.5 C231.567,86.5 230,88.067 230,90 C230,91.933 231.567,93.5 233.5,93.5 Z" />
        </g>
        <g id="Regular-M" transform="translate(0,200)">
            <path d="M483.525,123.975 L494.025,134.475 C495.392,135.842 497.608,135.842 498.975,134.475 C500.342,133.108 500.342,130.892 498.975,129.525 L488.475,119.025 C487.108,117.658 484.892,117.658 483.525,119.025 C482.158,120.392 482.158,122.608 483.525,123.975 Z M494.025,129.525 L483.525,140.025 C482.158,141.392 482.158,143.608 483.525,144.975 C484.892,146.342 487.108,146.342 488.475,144.975 L498.975,134.475 C500.342,133.108 500.342,130.892 498.975,129.525 C497.608,128.158 495.392,128.158 494.025,129.525 Z M496.5,128.5 L487.992,128.5 C484.292,128.5 483.421,128.451 482.591,128.197 C481.704,127.929 480.885,127.491 480.174,126.908 C480.01,126.773 479.85,126.621 479.678,126.433 C479.118,125.823 478.618,125.118 476.924,122.578 L476.078,121.309 C475.005,119.7 472.832,119.266 471.224,120.338 C469.616,121.41 469.181,123.583 470.253,125.191 L471.1,126.462 C473.042,129.372 473.61,130.174 474.521,131.167 C474.911,131.591 475.309,131.97 475.734,132.319 C477.155,133.486 478.793,134.361 480.554,134.895 C482.327,135.436 483.469,135.5 487.992,135.5 L496.5,135.5 C498.433,135.5 500,133.933 500,132 C500,130.067 498.433,128.5 496.5,128.5 Z M483.525,81.975 L494.025,92.475 C495.392,93.842 497.608,93.842 498.975,92.475 C500.342,91.108 500.342,88.892 498.975,87.525 L488.475,77.025 C487.108,75.658 484.892,75.658 483.525,77.025 C482.158,78.392 482.158,80.608 483.525,81.975 Z M494.025,87.525 L483.525,98.025 C482.158,99.392 482.158,101.608 483.525,102.975 C484.892,104.342 487.108,104.342 488.475,102.975 L498.975,92.475 C500.342,91.108 500.342,88.892 498.975,87.525 C497.608,86.158 495.392,86.158 494.025,87.525 Z M496.5,86.5 L487.992,86.5 C483.469,86.5 482.327,86.564 480.547,87.107 C478.793,87.639 477.155,88.514 475.733,89.681 C475.309,90.03 474.911,90.409 474.521,90.833 C473.61,91.826 473.042,92.627 471.101,95.537 L453.075,122.579 C451.025,125.653 450.497,126.356 449.823,126.91 C449.114,127.493 448.297,127.93 447.42,128.194 C446.579,128.451 445.706,128.5 442.009,128.5 L433.5,128.5 C431.567,128.5 430,130.067 430,132 C430,133.933 431.567,135.5 433.5,135.5 L442.009,135.5 C446.529,135.5 447.674,135.435 449.453,134.893 C451.206,134.364 452.847,133.487 454.27,132.316 C455.704,131.136 456.395,130.217 458.899,126.463 L476.925,99.421 C478.618,96.882 479.118,96.177 479.678,95.567 C479.85,95.379 480.01,95.227 480.173,95.093 C480.885,94.509 481.704,94.071 482.584,93.805 C483.421,93.549 484.292,93.5 487.992,93.5 L496.5,93.5 C498.433,93.5 500,91.933 500,90 C500,88.067 498.433,86.5 496.5,86.5 Z M433.5,93.5 L442.008,93.5 C445.708,93.5 446.579,93.549 447.409,93.803 C448.296,94.071 449.115,94.509 449.826,95.093 C450.497,95.644 451.025,96.347 453.076,99.422 L453.922,100.691 C454.995,102.3 457.168,102.734 458.776,101.662 C460.384,100.59 460.819,98.417 459.747,96.809 L458.9,95.538 C456.395,91.784 455.704,90.864 454.27,89.684 C452.845,88.514 451.207,87.639 449.446,87.105 C447.673,86.564 446.531,86.5 442.008,86.5 L433.5,86.5 C431.567,86.5 430,88.067 430,90 C430,91.933 431.567,93.5 433.5,93.5 Z" />
        </g>
        <g id="Black-M" transform="translate(0,200)">
            <path d="M683.525,123.975 L694.025,134.475 C695.392,135.842 697.608,135.842 698.975,134.475 C700.342,133.108 700.342,130.892 698.975,129.525 L688.475,119.025 C687.108,117.658 684.892,117.658 683.525,119.025 C682.158,120.392 682.158,122.608 683.525,123.975 Z M694.025,129.525 L683.525,140.025 C682.158,141.392 682.158,143.608 683.525,144.975 C684.892,146.342 687.108,146.342 688.475,144.975 L698.975,134.475 C700.342,133.108 700.342,130.892 698.975,129.525 C697.608,128.158 695.392,128.158 694.025,129.525 Z M696.5,128.5 L687.992,128.5 C684.292,128.5 683.421,128.451 682.591,128.197 C681.704,127.929 680.885,127.491 680.174,126.908 C680.01,126.773 679.85,126.621 679.678,126.433 C679.118,125.823 678.618,125.118 676.924,122.578 L676.078,121.309 C675.005,119.7 672.832,119.266 671.224,120.338 C669.616,121.41 669.181,123.583 670.253,125.191 L671.1,126.462 C673.042,129.372 673.61,130.174 674.521,131.167 C674.911,131.591 675.309,131.97 675.734,132.319 C677.155,133.486 678.793,134.361 680.554,134.895 C682.327,135.436 683.469,135.5 687.992,135.5 L696.5,135.5 C698.433,135.5 700,133.933 700,132 C700,130.067 698.433,128.5 696.5,128.5 Z M683.525,81.975 L694.025,92.475 C695.392,93.842 697.608,93.842 698.975,92.475 C700.342,91.108 700.342,88.892 698.975,87.525 L688.475,77.025 C687.108,75.658 684.892,75.658 683.525,77.025 C682.158,78.392 682.158,80.608 683.525,81.975 Z M694.025,87.525 L683.525,98.025 C682.158,99.392 682.158,101.608 683.525,102.975 C684.892,104.342 687.108,104.342 688.475,102.975 L698.975,92.475 C700.342,91.108 700.342,88.892 698.975,87.525 C697.608,86.158 695.392,86.158 694.025,87.525 Z M696.5,86.5 L687.992,86.5 C683.469,86.5 682.327,86.564 680.547,87.107 C678.793,87.639 677.155,88.514 675.733,89.681 C675.309,90.03 674.911,90.409 674.521,90.833 C673.61,91.826 673.042,92.627 671.101,95.537 L653.075,122.579 C651.025,125.653 650.497,126.356 649.823,126.91 C649.114,127.493 648.297,127.93 647.42,128.194 C646.579,128.451 645.706,128.5 642.008,128.5 L633.5,128.5 C631.567,128.5 630,130.067 630,132 C630,133.933 631.567,135.5 633.5,135.5 L642.008,135.5 C646.529,135.5 647.674,135.435 649.453,134.893 C651.206,134.364 652.847,133.487 654.27,132.316 C655.704,131.136 656.395,130.217 658.899,126.463 L676.925,99.421 C678.618,96.882 679.118,96.177 679.678,95.567 C679.85,95.379 680.01,95.227 680.173,95.093 C680.885,94.509 681.704,94.071 682.584,93.805 C683.421,93.549 684.292,93.5 687.992,93.5 L696.5,93.5 C698.433,93.5 700,91.933 700,90 C700,88.067 698.433,86.5 696.5,86.5 Z M633.5,93.5 L642.008,93.5 C645.708,93.5 646.579,93.549 647.409,93.803 C648.296,94.071 649.115,94.509 649.826,95.093 C650.497,95.644 651.025,96.347 653.076,99.422 L653.922,100.691 C654.995,102.3 657.168,102.734 658.776,101.662 C660.384,100.59 660.819,98.417 659.747,96.809 L658.9,95.538 C656.395,91.784 655.704,90.864 654.27,89.684 C652.845,88.514 651.207,87.639 649.446,87.105 C647.673,86.564 646.531,86.5 642.008,86.5 L633.5,86.5 C631.567,86.5 630,88.067 630,90 C630,91.933 631.567,93.5 633.5,93.5 Z" />
        </g>
    </g>
</svg>