<?xml version="1.0" encoding="UTF-8"?>
<svg height="600" width="800" xmlns="http://www.w3.org/2000/svg" xmlns:xlink="http://www.w3.org/1999/xlink">
    <g id="Notes" font-family="LucidaGrande, 'Lucida Grande', sans-serif" font-size="13">
        <rect fill="white" height="600.0" width="800.0" x="0.0" y="0.0" />
        <g font-size="13">
            <text x="18.0" y="176.0">Small</text>
            <text x="18.0" y="376.0">Medium</text>
            <text x="18.0" y="576.0">Large</text>
        </g>
        <g font-size="9">
            <text x="250.0" y="30.0">Ultralight</text>
            <text x="450.0" y="30.0">Regular</text>
            <text x="650.0" y="30.0">Black</text>
            <text id="template-version" fill="#505050" text-anchor="end" x="785.0" y="575.0">Template v.3.0</text>
            <a href="https://github.com/swhitty/SwiftDraw">
                <text fill="#505050" text-anchor="end" x="785.0" y="590.0">https://github.com/swhitty/SwiftDraw</text>
            </a>
        </g>
    </g>
    <g id="Guides" stroke="rgb(39, 170, 225)" stroke-width="0.5">
        <path id="Capline-S" d="M18,76 l800,0" />
        <path id="H-reference" d="M85,145.755 L87.685,145.755 L113.369,79.287 L114.052,79.287 L114.052,76 L112.148,76 L85,145.755 Z M95.693,121.536 L130.996,121.536 L130.263,119.313 L96.474,119.313 L95.693,121.536 Z M139.15,145.755 L141.787,145.755 L114.638,76 L113.466,76 L113.466,79.287 L139.15,145.755 Z" stroke="none" transform="translate(0,200)" />
        <path id="Baseline-S" d="M18,146 l800,0" />
        <path id="left-margin-Ultralight-M" d="M226.5,256 l0,110" />
        <path id="right-margin-Ultralight-M" d="M303.5,256 l0,110" />
        <path id="left-margin-Regular-M" d="M426.5,256 l0,110" />
        <path id="right-margin-Regular-M" d="M503.5,256 l0,110" />
        <path id="left-margin-Black-M" d="M626.5,256 l0,110" />
        <path id="right-margin-Black-M" d="M703.5,256 l0,110" />
        <path id="Capline-M" d="M18,276 l800,0" />
        <path id="Baseline-M" d="M18,346 l800,0" />
        <path id="Capline-L" d="M18,476 l800,0" />
        <path id="Baseline-L" d="M18,546 l800,0" />
    </g>
    <g id="Symbols">
        <g id="Ultralight-M" transform="translate(0,200)">
            <path d="M288.534,93.005 L283.536,128.005 C283.263,129.919 284.593,131.692 286.506,131.965 C288.42,132.238 290.193,130.908 290.466,128.995 L295.464,93.995 C295.737,92.081 294.407,90.308 292.494,90.035 C290.58,89.762 288.807,91.092 288.534,93.005 Z M241.055,92.885 L234.804,127.885 C234.464,129.788 235.731,131.606 237.634,131.945 C239.537,132.285 241.355,131.018 241.695,129.115 L247.946,94.115 C248.286,92.212 247.019,90.394 245.116,90.055 C243.213,89.715 241.395,90.982 241.055,92.885 Z M286,83 L251,83 C249.067,83 247.5,84.567 247.5,86.5 C247.5,88.433 249.067,90 251,90 L286,90 C287.933,90 289.5,88.433 289.5,86.5 C289.5,84.567 287.933,83 286,83 Z M279,132 L244,132 C242.067,132 240.5,133.567 240.5,135.5 C240.5,137.433 242.067,139 244,139 L279,139 C280.933,139 282.5,137.433 282.5,135.5 C282.5,133.567 280.933,132 279,132 Z M242.6,97 L245.4,97 C248.553,97 249.3,96.939 250.678,96.237 C251.995,95.566 253.066,94.495 253.737,93.178 C254.439,91.8 254.5,91.053 254.5,87.9 L254.5,85.1 C254.5,81.947 254.439,81.2 253.737,79.822 C253.066,78.505 251.995,77.434 250.678,76.763 C249.3,76.061 248.553,76 245.4,76 L242.6,76 C239.447,76 238.7,76.061 237.322,76.763 C236.005,77.434 234.934,78.505 234.263,79.822 C233.561,81.2 233.5,81.947 233.5,85.1 L233.5,87.9 C233.5,91.053 233.561,91.8 234.263,93.178 C234.934,94.495 236.005,95.566 237.322,96.237 C238.7,96.939 239.447,97 242.6,97 Z M242.6,90 C240.853,90 240.433,89.966 240.5,90 C240.5,90 240.5,90 240.5,90 C240.534,90.067 240.5,89.647 240.5,87.9 L240.5,85.1 C240.5,83.353 240.534,82.933 240.5,83 C240.5,83 240.5,83 240.5,83 C240.433,83.034 240.853,83 242.6,83 L245.4,83 C247.147,83 247.567,83.034 247.5,83 C247.5,83 247.5,83 247.5,83 C247.466,82.933 247.5,83.353 247.5,85.1 L247.5,87.9 C247.5,89.647 247.466,90.067 247.5,90 C247.5,90 247.5,90 247.5,90 C247.567,89.966 247.147,90 245.4,90 L242.6,90 Z M235.6,146 L238.4,146 C241.553,146 242.3,145.939 243.678,145.237 C244.995,144.566 246.066,143.495 246.737,142.178 C247.439,140.8 247.5,140.053 247.5,136.9 L247.5,134.1 C247.5,130.947 247.439,130.2 246.737,128.822 C246.066,127.505 244.995,126.434 243.678,125.763 C242.3,125.061 241.553,125 238.4,125 L235.6,125 C232.447,125 231.7,125.061 230.322,125.763 C229.005,126.434 227.934,127.505 227.263,128.822 C226.561,130.2 226.5,130.947 226.5,134.1 L226.5,136.9 C226.5,140.053 226.561,140.8 227.263,142.178 C227.934,143.495 229.005,144.566 230.322,145.237 C231.7,145.939 232.447,146 235.6,146 Z M235.6,139 C233.853,139 233.433,138.966 233.5,139 C233.5,139 233.5,139 233.5,139 C233.534,139.067 233.5,138.647 233.5,136.9 L233.5,134.1 C233.5,132.353 233.534,131.933 233.5,132 C233.5,132 233.5,132 233.5,132 C233.433,132.034 233.853,132 235.6,132 L238.4,132 C240.147,132 240.567,132.034 240.5,132 C240.5,132 240.5,132 240.5,132 C240.466,131.933 240.5,132.353 240.5,134.1 L240.5,136.9 C240.5,138.647 240.466,139.067 240.5,139 C240.5,139 240.5,139 240.5,139 C240.567,138.966 240.147,139 238.4,139 L235.6,139 Z M291.6,97 L294.4,97 C297.553,97 298.3,96.939 299.678,96.237 C300.995,95.566 302.066,94.495 302.737,93.178 C303.439,91.8 303.5,91.053 303.5,87.9 L303.5,85.1 C303.5,81.947 303.439,81.2 302.737,79.822 C302.066,78.505 300.995,77.434 299.678,76.763 C298.3,76.061 297.553,76 294.4,76 L291.6,76 C288.447,76 287.7,76.061 286.322,76.763 C285.005,77.434 283.934,78.505 283.263,79.822 C282.561,81.2 282.5,81.947 282.5,85.1 L282.5,87.9 C282.5,91.053 282.561,91.8 283.263,93.178 C283.934,94.495 285.005,95.566 286.322,96.237 C287.7,96.939 288.447,97 291.6,97 Z M291.6,90 C289.853,90 289.433,89.966 289.5,90 C289.5,90 289.5,90 289.5,90 C289.534,90.067 289.5,89.647 289.5,87.9 L289.5,85.1 C289.5,83.353 289.534,82.933 289.5,83 C289.5,83 289.5,83 289.5,83 C289.433,83.034 289.853,83 291.6,83 L294.4,83 C296.147,83 296.567,83.034 296.5,83 C296.5,83 296.5,83 296.5,83 C296.466,82.933 296.5,83.353 296.5,85.1 L296.5,87.9 C296.5,89.647 296.466,90.067 296.5,90 C296.5,90 296.5,90 296.5,90 C296.567,89.966 296.147,90 294.4,90 L291.6,90 Z M284.6,146 L287.4,146 C290.553,146 291.3,145.939 292.677,145.237 C293.995,144.566 295.066,143.495 295.737,142.178 C296.439,140.8 296.5,140.053 296.5,136.9 L296.5,134.1 C296.5,130.947 296.439,130.2 295.737,128.822 C295.066,127.505 293.995,126.434 292.678,125.763 C291.3,125.061 290.553,125 287.4,125 L284.6,125 C281.447,125 280.7,125.061 279.322,125.763 C278.005,126.434 276.934,127.505 276.263,128.822 C275.561,130.2 275.5,130.947 275.5,134.1 L275.5,136.9 C275.5,140.053 275.561,140.8 276.263,142.178 C276.934,143.495 278.005,144.566 279.322,145.237 C280.7,145.939 281.447,146 284.6,146 Z M284.6,139 C282.853,139 282.433,138.966 282.5,139 C282.5,139 282.5,139 282.5,139 C282.534,139.067 282.5,138.647 282.5,136.9 L282.5,134.1 C282.5,132.353 282.534,131.933 282.5,132 C282.5,132 282.5,132 282.5,132 C282.433,132.034 282.853,132 284.6,132 L287.4,132 C289.147,132 289.567,132.034 289.5,132 C289.5,132 289.5,132 289.5,132 C289.466,131.933 289.5,132.353 289.5,134.1 L289.5,136.9 C289.5,138.647 289.466,139.067 289.5,139 C289.5,139 289.5,139 289.5,139 C289.567,138.966 289.147,139 287.4,139 L284.6,139 Z" />
        </g>
        <g id="Regular-M" transform="translate(0,200)">
            <path d="M488.534,93.005 L483.536,128.005 C483.263,129.919 484.593,131.692 486.506,131.965 C488.42,132.238 490.193,130.908 490.466,128.995 L495.464,93.995 C495.737,92.081 494.407,90.308 492.494,90.035 C490.58,89.762 488.807,91.092 488.534,93.005 Z M441.055,92.885 L434.804,127.885 C434.464,129.788 435.731,131.606 437.634,131.945 C439.537,132.285 441.355,131.018 441.695,129.115 L447.946,94.115 C448.286,92.212 447.019,90.394 445.116,90.055 C443.213,89.715 441.395,90.982 441.055,92.885 Z M486,83 L451,83 C449.067,83 447.5,84.567 447.5,86.5 C447.5,88.433 449.067,90 451,90 L486,90 C487.933,90 489.5,88.433 489.5,86.5 C489.5,84.567 487.933,83 486,83 Z M479,132 L444,132 C442.067,132 440.5,133.567 440.5,135.5 C440.5,137.433 442.067,139 444,139 L479,139 C480.933,139 482.5,137.433 482.5,135.5 C482.5,133.567 480.933,132 479,132 Z M442.6,97 L445.4,97 C448.553,97 449.3,96.939 450.678,96.237 C451.995,95.566 453.066,94.495 453.737,93.178 C454.439,91.8 454.5,91.053 454.5,87.9 L454.5,85.1 C454.5,81.947 454.439,81.2 453.737,79.822 C453.066,78.505 451.995,77.434 450.678,76.763 C449.3,76.061 448.553,76 445.4,76 L442.6,76 C439.447,76 438.7,76.061 437.322,76.763 C436.005,77.434 434.934,78.505 434.263,79.822 C433.561,81.2 433.5,81.947 433.5,85.1 L433.5,87.9 C433.5,91.053 433.561,91.8 434.263,93.178 C434.934,94.495 436.005,95.566 437.322,96.237 C438.7,96.939 439.447,97 442.6,97 Z M442.6,90 C440.853,90 440.433,89.966 440.5,90 C440.5,90 440.5,90 440.5,90 C440.534,90.067 440.5,89.647 440.5,87.9 L440.5,85.1 C440.5,83.353 440.534,82.933 440.5,83 C440.5,83 440.5,83 440.5,83 C440.433,83.034 440.853,83 442.6,83 L445.4,83 C447.147,83 447.567,83.034 447.5,83 C447.5,83 447.5,83 447.5,83 C447.466,82.933 447.5,83.353 447.5,85.1 L447.5,87.9 C447.5,89.647 447.466,90.067 447.5,90 C447.5,90 447.5,90 447.5,90 C447.567,89.966 447.147,90 445.4,90 L442.6,90 Z M435.6,146 L438.4,146 C441.553,146 442.3,145.939 443.678,145.237 C444.995,144.566 446.066,143.495 446.737,142.178 C447.439,140.8 447.5,140.053 447.5,136.9 L447.5,134.1 C447.5,130.947 447.439,130.2 446.737,128.822 C446.066,127.505 444.995,126.434 443.678,125.763 C442.3,125.061 441.553,125 438.4,125 L435.6,125 C432.447,125 431.7,125.061 430.322,125.763 C429.005,126.434 427.934,127.505 427.263,128.822 C426.561,130.2 426.5,130.947 426.5,134.1 L426.5,136.9 C426.5,140.053 426.561,140.8 427.263,142.178 C427.934,143.495 429.005,144.566 430.322,145.237 C431.7,145.939 432.447,146 435.6,146 Z M435.6,139 C433.853,139 433.433,138.966 433.5,139 C433.5,139 433.5,139 433.5,139 C433.534,139.067 433.5,138.647 433.5,136.9 L433.5,134.1 C433.5,132.353 433.534,131.933 433.5,132 C433.5,132 433.5,132 433.5,132 C433.433,132.034 433.853,132 435.6,132 L438.4,132 C440.147,132 440.567,132.034 440.5,132 C440.5,132 440.5,132 440.5,132 C440.466,131.933 440.5,132.353 440.5,134.1 L440.5,136.9 C440.5,138.647 440.466,139.067 440.5,139 C440.5,139 440.5,139 440.5,139 C440.567,138.966 440.147,139 438.4,139 L435.6,139 Z M491.6,97 L494.4,97 C497.553,97 498.3,96.939 499.678,96.237 C500.995,95.566 502.066,94.495 502.737,93.178 C503.439,91.8 503.5,91.053 503.5,87.9 L503.5,85.1 C503.5,81.947 503.439,81.2 502.737,79.822 C502.066,78.505 500.995,77.434 499.678,76.763 C498.3,76.061 497.553,76 494.4,76 L491.6,76 C488.447,76 487.7,76.061 486.322,76.763 C485.005,77.434 483.934,78.505 483.263,79.822 C482.561,81.2 482.5,81.947 482.5,85.1 L482.5,87.9 C482.5,91.053 482.561,91.8 483.263,93.178 C483.934,94.495 485.005,95.566 486.322,96.237 C487.7,96.939 488.447,97 491.6,97 Z M491.6,90 C489.853,90 489.433,89.966 489.5,90 C489.5,90 489.5,90 489.5,90 C489.534,90.067 489.5,89.647 489.5,87.9 L489.5,85.1 C489.5,83.353 489.534,82.933 489.5,83 C489.5,83 489.5,83 489.5,83 C489.433,83.034 489.853,83 491.6,83 L494.4,83 C496.147,83 496.567,83.034 496.5,83 C496.5,83 496.5,83 496.5,83 C496.466,82.933 496.5,83.353 496.5,85.1 L496.5,87.9 C496.5,89.647 496.466,90.067 496.5,90 C496.5,90 496.5,90 496.5,90 C496.567,89.966 496.147,90 494.4,90 L491.6,90 Z M484.6,146 L487.4,146 C490.553,146 491.3,145.939 492.677,145.237 C493.995,144.566 495.066,143.495 495.737,142.178 C496.439,140.8 496.5,140.053 496.5,136.9 L496.5,134.1 C496.5,130.947 496.439,130.2 495.737,128.822 C495.066,127.505 493.995,126.434 492.678,125.763 C491.3,125.061 490.553,125 487.4,125 L484.6,125 C481.447,125 480.7,125.061 479.322,125.763 C478.005,126.434 476.934,127.505 476.263,128.822 C475.561,130.2 475.5,130.947 475.5,134.1 L475.5,136.9 C475.5,140.053 475.561,140.8 476.263,142.178 C476.934,143.495 478.005,144.566 479.322,145.237 C480.7,145.939 481.447,146 484.6,146 Z M484.6,139 C482.853,139 482.433,138.966 482.5,139 C482.5,139 482.5,139 482.5,139 C482.534,139.067 482.5,138.647 482.5,136.9 L482.5,134.1 C482.5,132.353 482.534,131.933 482.5,132 C482.5,132 482.5,132 482.5,132 C482.433,132.034 482.853,132 484.6,132 L487.4,132 C489.147,132 489.567,132.034 489.5,132 C489.5,132 489.5,132 489.5,132 C489.466,131.933 489.5,132.353 489.5,134.1 L489.5,136.9 C489.5,138.647 489.466,139.067 489.5,139 C489.5,139 489.5,139 489.5,139 C489.567,138.966 489.147,139 487.4,139 L484.6,139 Z" />
        </g>
        <g id="Black-M" transform="translate(0,200)">
            <path d="M688.534,93.005 L683.536,128.005 C683.263,129.919 684.593,131.692 686.506,131.965 C688.42,132.238 690.193,130.908 690.466,128.995 L695.464,93.995 C695.737,92.081 694.407,90.308 692.494,90.035 C690.58,89.762 688.807,91.092 688.534,93.005 Z M641.055,92.885 L634.804,127.885 C634.464,129.788 635.731,131.606 637.634,131.945 C639.537,132.285 641.355,131.018 641.695,129.115 L647.946,94.115 C648.286,92.212 647.019,90.394 645.116,90.055 C643.213,89.715 641.395,90.982 641.055,92.885 Z M686,83 L651,83 C649.067,83 647.5,84.567 647.5,86.5 C647.5,88.433 649.067,90 651,90 L686,90 C687.933,90 689.5,88.433 689.5,86.5 C689.5,84.567 687.933,83 686,83 Z M679,132 L644,132 C642.067,132 640.5,133.567 640.5,135.5 C640.5,137.433 642.067,139 644,139 L679,139 C680.933,139 682.5,137.433 682.5,135.5 C682.5,133.567 680.933,132 679,132 Z M642.6,97 L645.4,97 C648.553,97 649.3,96.939 650.678,96.237 C651.995,95.566 653.066,94.495 653.737,93.178 C654.439,91.8 654.5,91.053 654.5,87.9 L654.5,85.1 C654.5,81.947 654.439,81.2 653.737,79.822 C653.066,78.505 651.995,77.434 650.678,76.763 C649.3,76.061 648.553,76 645.4,76 L642.6,76 C639.447,76 638.7,76.061 637.322,76.763 C636.005,77.434 634.934,78.505 634.263,79.822 C633.561,81.2 633.5,81.947 633.5,85.1 L633.5,87.9 C633.5,91.053 633.561,91.8 634.263,93.178 C634.934,94.495 636.005,95.566 637.322,96.237 C638.7,96.939 639.447,97 642.6,97 Z M642.6,90 C640.853,90 640.432,89.966 640.5,90 C640.5,90 640.5,90 640.5,90 C640.534,90.067 640.5,89.647 640.5,87.9 L640.5,85.1 C640.5,83.353 640.534,82.933 640.5,83 C640.5,83 640.5,83 640.5,83 C640.432,83.034 640.853,83 642.6,83 L645.4,83 C647.147,83 647.568,83.034 647.5,83 C647.5,83 647.5,83 647.5,83 C647.466,82.933 647.5,83.353 647.5,85.1 L647.5,87.9 C647.5,89.647 647.466,90.067 647.5,90 C647.5,90 647.5,90 647.5,90 C647.568,89.966 647.147,90 645.4,90 L642.6,90 Z M635.6,146 L638.4,146 C641.553,146 642.3,145.939 643.677,145.237 C644.995,144.566 646.066,143.495 646.737,142.178 C647.439,140.8 647.5,140.053 647.5,136.9 L647.5,134.1 C647.5,130.947 647.439,130.2 646.737,128.822 C646.066,127.505 644.995,126.434 643.678,125.763 C642.3,125.061 641.553,125 638.4,125 L635.6,125 C632.447,125 631.7,125.061 630.323,125.763 C629.005,126.434 627.934,127.505 627.263,128.822 C626.561,130.2 626.5,130.947 626.5,134.1 L626.5,136.9 C626.5,140.053 626.561,140.8 627.263,142.178 C627.934,143.495 629.005,144.566 630.322,145.237 C631.7,145.939 632.447,146 635.6,146 Z M635.6,139 C633.853,139 633.432,138.966 633.5,139 C633.5,139 633.5,139 633.5,139 C633.534,139.067 633.5,138.647 633.5,136.9 L633.5,134.1 C633.5,132.353 633.534,131.933 633.5,132 C633.5,132 633.5,132 633.5,132 C633.432,132.034 633.853,132 635.6,132 L638.4,132 C640.147,132 640.568,132.034 640.5,132 C640.5,132 640.5,132 640.5,132 C640.466,131.933 640.5,132.353 640.5,134.1 L640.5,136.9 C640.5,138.647 640.466,139.067 640.5,139 C640.5,139 640.5,139 640.5,139 C640.568,138.966 640.147,139 638.4,139 L635.6,139 Z M691.6,97 L694.4,97 C697.553,97 698.3,96.939 699.677,96.237 C700.995,95.566 702.066,94.495 702.737,93.178 C703.439,91.8 703.5,91.053 703.5,87.9 L703.5,85.1 C703.5,81.947 703.439,81.2 702.737,79.822 C702.066,78.505 700.995,77.434 699.678,76.763 C698.3,76.061 697.553,76 694.4,76 L691.6,76 C688.447,76 687.7,76.061 686.323,76.763 C685.005,77.434 683.934,78.505 683.263,79.822 C682.561,81.2 682.5,81.947 682.5,85.1 L682.5,87.9 C682.5,91.053 682.561,91.8 683.263,93.178 C683.934,94.495 685.005,95.566 686.322,96.237 C687.7,96.939 688.447,97 691.6,97 Z M691.6,90 C689.853,90 689.432,89.966 689.5,90 C689.5,90 689.5,90 689.5,90 C689.534,90.067 689.5,89.647 689.5,87.9 L689.5,85.1 C689.5,83.353 689.534,82.933 689.5,83 C689.5,83 689.5,83 689.5,83 C689.432,83.034 689.853,83 691.6,83 L694.4,83 C696.147,83 696.568,83.034 696.5,83 C696.5,83 696.5,83 696.5,83 C696.466,82.933 696.5,83.353 696.5,85.1 L696.5,87.9 C696.5,89.647 696.466,90.067 696.5,90 C696.5,90 696.5,90 696.5,90 C696.568,89.966 696.147,90 694.4,90 L691.6,90 Z M684.6,146 L687.4,146 C690.553,146 691.3,145.939 692.677,145.237 C693.995,144.566 695.066,143.495 695.737,142.178 C696.439,140.8 696.5,140.053 696.5,136.9 L696.5,134.1 C696.5,130.947 696.439,130.2 695.737,128.822 C695.066,127.505 693.995,126.434 692.678,125.763 C691.3,125.061 690.553,125 687.4,125 L684.6,125 C681.447,125 680.7,125.061 679.323,125.763 C678.005,126.434 676.934,127.505 676.263,128.822 C675.561,130.2 675.5,130.947 675.5,134.1 L675.5,136.9 C675.5,140.053 675.561,140.8 676.263,142.178 C676.934,143.495 678.005,144.566 679.322,145.237 C680.7,145.939 681.447,146 684.6,146 Z M684.6,139 C682.853,139 682.432,138.966 682.5,139 C682.5,139 682.5,139 682.5,139 C682.534,139.067 682.5,138.647 682.5,136.9 L682.5,134.1 C682.5,132.353 682.534,131.933 682.5,132 C682.5,132 682.5,132 682.5,132 C682.432,132.034 682.853,132 684.6,132 L687.4,132 C689.147,132 689.568,132.034 689.5,132 C689.5,132 689.5,132 689.5,132 C689.466,131.933 689.5,132.353 689.5,134.1 L689.5,136.9 C689.5,138.647 689.466,139.067 689.5,139 C689.5,139 689.5,139 689.5,139 C689.568,138.966 689.147,139 687.4,139 L684.6,139 Z" />
        </g>
    </g>
</svg>