<?xml version="1.0" encoding="UTF-8"?>
<svg height="600" width="800" xmlns="http://www.w3.org/2000/svg" xmlns:xlink="http://www.w3.org/1999/xlink">
    <g id="Notes" font-family="LucidaGrande, 'Lucida Grande', sans-serif" font-size="13">
        <rect fill="white" height="600.0" width="800.0" x="0.0" y="0.0" />
        <g font-size="13">
            <text x="18.0" y="176.0">Small</text>
            <text x="18.0" y="376.0">Medium</text>
            <text x="18.0" y="576.0">Large</text>
        </g>
        <g font-size="9">
            <text x="250.0" y="30.0">Ultralight</text>
            <text x="450.0" y="30.0">Regular</text>
            <text x="650.0" y="30.0">Black</text>
            <text id="template-version" fill="#505050" text-anchor="end" x="785.0" y="575.0">Template v.3.0</text>
            <a href="https://github.com/swhitty/SwiftDraw">
                <text fill="#505050" text-anchor="end" x="785.0" y="590.0">https://github.com/swhitty/SwiftDraw</text>
            </a>
        </g>
    </g>
    <g id="Guides" stroke="rgb(39, 170, 225)" stroke-width="0.5">
        <path id="Capline-S" d="M18,76 l800,0" />
        <path id="H-reference" d="M85,145.755 L87.685,145.755 L113.369,79.287 L114.052,79.287 L114.052,76 L112.148,76 L85,145.755 Z M95.693,121.536 L130.996,121.536 L130.263,119.313 L96.474,119.313 L95.693,121.536 Z M139.15,145.755 L141.787,145.755 L114.638,76 L113.466,76 L113.466,79.287 L139.15,145.755 Z" stroke="none" transform="translate(0,200)" />
        <path id="Baseline-S" d="M18,146 l800,0" />
        <path id="left-margin-Ultralight-M" d="M230,256 l0,110" />
        <path id="right-margin-Ultralight-M" d="M300,256 l0,110" />
        <path id="left-margin-Regular-M" d="M430,256 l0,110" />
        <path id="right-margin-Regular-M" d="M500,256 l0,110" />
        <path id="left-margin-Black-M" d="M630,256 l0,110" />
        <path id="right-margin-Black-M" d="M700,256 l0,110" />
        <path id="Capline-M" d="M18,276 l800,0" />
        <path id="Baseline-M" d="M18,346 l800,0" />
        <path id="Capline-L" d="M18,476 l800,0" />
        <path id="Baseline-L" d="M18,546 l800,0" />
    </g>
    <g id="Symbols">
        <g id="Ultralight-M" transform="translate(0,200)">
            <path d="M245.909,142.5 L245.909,118 C245.909,116.067 244.485,114.5 242.727,114.5 C240.97,114.5 239.545,116.067 239.545,118 L239.545,142.5 C239.545,144.433 240.97,146 242.727,146 C244.485,146 245.909,144.433 245.909,142.5 Z M245.909,104 L245.909,79.5 C245.909,77.567 244.485,76 242.727,76 C240.97,76 239.545,77.567 239.545,79.5 L239.545,104 C239.545,105.933 240.97,107.5 242.727,107.5 C244.485,107.5 245.909,105.933 245.909,104 Z M268.182,142.5 L268.182,111 C268.182,109.067 266.757,107.5 265,107.5 C263.243,107.5 261.818,109.067 261.818,111 L261.818,142.5 C261.818,144.433 263.243,146 265,146 C266.757,146 268.182,144.433 268.182,142.5 Z M268.182,97 L268.182,79.5 C268.182,77.567 266.757,76 265,76 C263.243,76 261.818,77.567 261.818,79.5 L261.818,97 C261.818,98.933 263.243,100.5 265,100.5 C266.757,100.5 268.182,98.933 268.182,97 Z M290.455,142.5 L290.455,125 C290.455,123.067 289.03,121.5 287.273,121.5 C285.515,121.5 284.091,123.067 284.091,125 L284.091,142.5 C284.091,144.433 285.515,146 287.273,146 C289.03,146 290.455,144.433 290.455,142.5 Z M290.455,111 L290.455,79.5 C290.455,77.567 289.03,76 287.273,76 C285.515,76 284.091,77.567 284.091,79.5 L284.091,111 C284.091,112.933 285.515,114.5 287.273,114.5 C289.03,114.5 290.455,112.933 290.455,111 Z M233.182,121.5 L252.273,121.5 C254.03,121.5 255.455,119.933 255.455,118 C255.455,116.067 254.03,114.5 252.273,114.5 L233.182,114.5 C231.425,114.5 230,116.067 230,118 C230,119.933 231.425,121.5 233.182,121.5 Z M255.455,100.5 L274.545,100.5 C276.303,100.5 277.727,98.933 277.727,97 C277.727,95.067 276.303,93.5 274.545,93.5 L255.455,93.5 C253.697,93.5 252.273,95.067 252.273,97 C252.273,98.933 253.697,100.5 255.455,100.5 Z M277.727,128.5 L296.818,128.5 C298.575,128.5 300,126.933 300,125 C300,123.067 298.575,121.5 296.818,121.5 L277.727,121.5 C275.97,121.5 274.545,123.067 274.545,125 C274.545,126.933 275.97,128.5 277.727,128.5 Z" />
        </g>
        <g id="Regular-M" transform="translate(0,200)">
            <path d="M445.909,142.5 L445.909,118 C445.909,116.067 444.485,114.5 442.727,114.5 C440.97,114.5 439.545,116.067 439.545,118 L439.545,142.5 C439.545,144.433 440.97,146 442.727,146 C444.485,146 445.909,144.433 445.909,142.5 Z M445.909,104 L445.909,79.5 C445.909,77.567 444.485,76 442.727,76 C440.97,76 439.545,77.567 439.545,79.5 L439.545,104 C439.545,105.933 440.97,107.5 442.727,107.5 C444.485,107.5 445.909,105.933 445.909,104 Z M468.182,142.5 L468.182,111 C468.182,109.067 466.757,107.5 465,107.5 C463.243,107.5 461.818,109.067 461.818,111 L461.818,142.5 C461.818,144.433 463.243,146 465,146 C466.757,146 468.182,144.433 468.182,142.5 Z M468.182,97 L468.182,79.5 C468.182,77.567 466.757,76 465,76 C463.243,76 461.818,77.567 461.818,79.5 L461.818,97 C461.818,98.933 463.243,100.5 465,100.5 C466.757,100.5 468.182,98.933 468.182,97 Z M490.455,142.5 L490.455,125 C490.455,123.067 489.03,121.5 487.273,121.5 C485.515,121.5 484.091,123.067 484.091,125 L484.091,142.5 C484.091,144.433 485.515,146 487.273,146 C489.03,146 490.455,144.433 490.455,142.5 Z M490.455,111 L490.455,79.5 C490.455,77.567 489.03,76 487.273,76 C485.515,76 484.091,77.567 484.091,79.5 L484.091,111 C484.091,112.933 485.515,114.5 487.273,114.5 C489.03,114.5 490.455,112.933 490.455,111 Z M433.182,121.5 L452.273,121.5 C454.03,121.5 455.455,119.933 455.455,118 C455.455,116.067 454.03,114.5 452.273,114.5 L433.182,114.5 C431.425,114.5 430,116.067 430,118 C430,119.933 431.425,121.5 433.182,121.5 Z M455.455,100.5 L474.545,100.5 C476.303,100.5 477.727,98.933 477.727,97 C477.727,95.067 476.303,93.5 474.545,93.5 L455.455,93.5 C453.697,93.5 452.273,95.067 452.273,97 C452.273,98.933 453.697,100.5 455.455,100.5 Z M477.727,128.5 L496.818,128.5 C498.575,128.5 500,126.933 500,125 C500,123.067 498.575,121.5 496.818,121.5 L477.727,121.5 C475.97,121.5 474.545,123.067 474.545,125 C474.545,126.933 475.97,128.5 477.727,128.5 Z" />
        </g>
        <g id="Black-M" transform="translate(0,200)">
            <path d="M645.909,142.5 L645.909,118 C645.909,116.067 644.485,114.5 642.727,114.5 C640.97,114.5 639.545,116.067 639.545,118 L639.545,142.5 C639.545,144.433 640.97,146 642.727,146 C644.485,146 645.909,144.433 645.909,142.5 Z M645.909,104 L645.909,79.5 C645.909,77.567 644.485,76 642.727,76 C640.97,76 639.545,77.567 639.545,79.5 L639.545,104 C639.545,105.933 640.97,107.5 642.727,107.5 C644.485,107.5 645.909,105.933 645.909,104 Z M668.182,142.5 L668.182,111 C668.182,109.067 666.757,107.5 665,107.5 C663.243,107.5 661.818,109.067 661.818,111 L661.818,142.5 C661.818,144.433 663.243,146 665,146 C666.757,146 668.182,144.433 668.182,142.5 Z M668.182,97 L668.182,79.5 C668.182,77.567 666.757,76 665,76 C663.243,76 661.818,77.567 661.818,79.5 L661.818,97 C661.818,98.933 663.243,100.5 665,100.5 C666.757,100.5 668.182,98.933 668.182,97 Z M690.455,142.5 L690.455,125 C690.455,123.067 689.03,121.5 687.273,121.5 C685.515,121.5 684.091,123.067 684.091,125 L684.091,142.5 C684.091,144.433 685.515,146 687.273,146 C689.03,146 690.455,144.433 690.455,142.5 Z M690.455,111 L690.455,79.5 C690.455,77.567 689.03,76 687.273,76 C685.515,76 684.091,77.567 684.091,79.5 L684.091,111 C684.091,112.933 685.515,114.5 687.273,114.5 C689.03,114.5 690.455,112.933 690.455,111 Z M633.182,121.5 L652.273,121.5 C654.03,121.5 655.455,119.933 655.455,118 C655.455,116.067 654.03,114.5 652.273,114.5 L633.182,114.5 C631.425,114.5 630,116.067 630,118 C630,119.933 631.425,121.5 633.182,121.5 Z M655.455,100.5 L674.545,100.5 C676.303,100.5 677.727,98.933 677.727,97 C677.727,95.067 676.303,93.5 674.545,93.5 L655.455,93.5 C653.697,93.5 652.273,95.067 652.273,97 C652.273,98.933 653.697,100.5 655.455,100.5 Z M677.727,128.5 L696.818,128.5 C698.575,128.5 700,126.933 700,125 C700,123.067 698.575,121.5 696.818,121.5 L677.727,121.5 C675.97,121.5 674.545,123.067 674.545,125 C674.545,126.933 675.97,128.5 677.727,128.5 Z" />
        </g>
    </g>
</svg>