<?xml version="1.0" encoding="UTF-8"?>
<svg height="600" width="800" xmlns="http://www.w3.org/2000/svg" xmlns:xlink="http://www.w3.org/1999/xlink">
    <g id="Notes" font-family="LucidaGrande, 'Lucida Grande', sans-serif" font-size="13">
        <rect fill="white" height="600.0" width="800.0" x="0.0" y="0.0" />
        <g font-size="13">
            <text x="18.0" y="176.0">Small</text>
            <text x="18.0" y="376.0">Medium</text>
            <text x="18.0" y="576.0">Large</text>
        </g>
        <g font-size="9">
            <text x="250.0" y="30.0">Ultralight</text>
            <text x="450.0" y="30.0">Regular</text>
            <text x="650.0" y="30.0">Black</text>
            <text id="template-version" fill="#505050" text-anchor="end" x="785.0" y="575.0">Template v.3.0</text>
            <a href="https://github.com/swhitty/SwiftDraw">
                <text fill="#505050" text-anchor="end" x="785.0" y="590.0">https://github.com/swhitty/SwiftDraw</text>
            </a>
        </g>
    </g>
    <g id="Guides" stroke="rgb(39, 170, 225)" stroke-width="0.5">
        <path id="Capline-S" d="M18,76 l800,0" />
        <path id="H-reference" d="M85,145.755 L87.685,145.755 L113.369,79.287 L114.052,79.287 L114.052,76 L112.148,76 L85,145.755 Z M95.693,121.536 L130.996,121.536 L130.263,119.313 L96.474,119.313 L95.693,121.536 Z M139.15,145.755 L141.787,145.755 L114.638,76 L113.466,76 L113.466,79.287 L139.15,145.755 Z" stroke="none" transform="translate(0,200)" />
        <path id="Baseline-S" d="M18,146 l800,0" />
        <path id="left-margin-Ultralight-M" d="M230,256 l0,110" />
        <path id="right-margin-Ultralight-M" d="M300,256 l0,110" />
        <path id="left-margin-Regular-M" d="M430,256 l0,110" />
        <path id="right-margin-Regular-M" d="M500,256 l0,110" />
        <path id="left-margin-Black-M" d="M630,256 l0,110" />
        <path id="right-margin-Black-M" d="M700,256 l0,110" />
        <path id="Capline-M" d="M18,276 l800,0" />
        <path id="Baseline-M" d="M18,346 l800,0" />
        <path id="Capline-L" d="M18,476 l800,0" />
        <path id="Baseline-L" d="M18,546 l800,0" />
    </g>
    <g id="Symbols">
        <g id="Ultralight-M" transform="translate(0,200)">
            <path d="M245.909,139.636 L245.909,117.364 C245.909,115.606 244.485,114.182 242.727,114.182 C240.97,114.182 239.545,115.606 239.545,117.364 L239.545,139.636 C239.545,141.394 240.97,142.818 242.727,142.818 C244.485,142.818 245.909,141.394 245.909,139.636 Z M245.909,104.636 L245.909,82.364 C245.909,80.606 244.485,79.182 242.727,79.182 C240.97,79.182 239.545,80.606 239.545,82.364 L239.545,104.636 C239.545,106.394 240.97,107.818 242.727,107.818 C244.485,107.818 245.909,106.394 245.909,104.636 Z M268.182,139.636 L268.182,111 C268.182,109.243 266.757,107.818 265,107.818 C263.243,107.818 261.818,109.243 261.818,111 L261.818,139.636 C261.818,141.394 263.243,142.818 265,142.818 C266.757,142.818 268.182,141.394 268.182,139.636 Z M268.182,98.273 L268.182,82.364 C268.182,80.606 266.757,79.182 265,79.182 C263.243,79.182 261.818,80.606 261.818,82.364 L261.818,98.273 C261.818,100.03 263.243,101.455 265,101.455 C266.757,101.455 268.182,100.03 268.182,98.273 Z M290.455,139.636 L290.455,123.727 C290.455,121.97 289.03,120.545 287.273,120.545 C285.515,120.545 284.091,121.97 284.091,123.727 L284.091,139.636 C284.091,141.394 285.515,142.818 287.273,142.818 C289.03,142.818 290.455,141.394 290.455,139.636 Z M290.455,111 L290.455,82.364 C290.455,80.606 289.03,79.182 287.273,79.182 C285.515,79.182 284.091,80.606 284.091,82.364 L284.091,111 C284.091,112.757 285.515,114.182 287.273,114.182 C289.03,114.182 290.455,112.757 290.455,111 Z M233.182,120.545 L252.273,120.545 C254.03,120.545 255.455,119.121 255.455,117.364 C255.455,115.606 254.03,114.182 252.273,114.182 L233.182,114.182 C231.425,114.182 230,115.606 230,117.364 C230,119.121 231.425,120.545 233.182,120.545 Z M255.455,101.455 L274.545,101.455 C276.303,101.455 277.727,100.03 277.727,98.273 C277.727,96.515 276.303,95.091 274.545,95.091 L255.455,95.091 C253.697,95.091 252.273,96.515 252.273,98.273 C252.273,100.03 253.697,101.455 255.455,101.455 Z M277.727,126.909 L296.818,126.909 C298.575,126.909 300,125.485 300,123.727 C300,121.97 298.575,120.545 296.818,120.545 L277.727,120.545 C275.97,120.545 274.545,121.97 274.545,123.727 C274.545,125.485 275.97,126.909 277.727,126.909 Z" />
        </g>
        <g id="Regular-M" transform="translate(0,200)">
            <path d="M445.909,139.636 L445.909,117.364 C445.909,115.606 444.485,114.182 442.727,114.182 C440.97,114.182 439.545,115.606 439.545,117.364 L439.545,139.636 C439.545,141.394 440.97,142.818 442.727,142.818 C444.485,142.818 445.909,141.394 445.909,139.636 Z M445.909,104.636 L445.909,82.364 C445.909,80.606 444.485,79.182 442.727,79.182 C440.97,79.182 439.545,80.606 439.545,82.364 L439.545,104.636 C439.545,106.394 440.97,107.818 442.727,107.818 C444.485,107.818 445.909,106.394 445.909,104.636 Z M468.182,139.636 L468.182,111 C468.182,109.243 466.757,107.818 465,107.818 C463.243,107.818 461.818,109.243 461.818,111 L461.818,139.636 C461.818,141.394 463.243,142.818 465,142.818 C466.757,142.818 468.182,141.394 468.182,139.636 Z M468.182,98.273 L468.182,82.364 C468.182,80.606 466.757,79.182 465,79.182 C463.243,79.182 461.818,80.606 461.818,82.364 L461.818,98.273 C461.818,100.03 463.243,101.455 465,101.455 C466.757,101.455 468.182,100.03 468.182,98.273 Z M490.455,139.636 L490.455,123.727 C490.455,121.97 489.03,120.545 487.273,120.545 C485.515,120.545 484.091,121.97 484.091,123.727 L484.091,139.636 C484.091,141.394 485.515,142.818 487.273,142.818 C489.03,142.818 490.455,141.394 490.455,139.636 Z M490.455,111 L490.455,82.364 C490.455,80.606 489.03,79.182 487.273,79.182 C485.515,79.182 484.091,80.606 484.091,82.364 L484.091,111 C484.091,112.757 485.515,114.182 487.273,114.182 C489.03,114.182 490.455,112.757 490.455,111 Z M433.182,120.545 L452.273,120.545 C454.03,120.545 455.455,119.121 455.455,117.364 C455.455,115.606 454.03,114.182 452.273,114.182 L433.182,114.182 C431.425,114.182 430,115.606 430,117.364 C430,119.121 431.425,120.545 433.182,120.545 Z M455.455,101.455 L474.545,101.455 C476.303,101.455 477.727,100.03 477.727,98.273 C477.727,96.515 476.303,95.091 474.545,95.091 L455.455,95.091 C453.697,95.091 452.273,96.515 452.273,98.273 C452.273,100.03 453.697,101.455 455.455,101.455 Z M477.727,126.909 L496.818,126.909 C498.575,126.909 500,125.485 500,123.727 C500,121.97 498.575,120.545 496.818,120.545 L477.727,120.545 C475.97,120.545 474.545,121.97 474.545,123.727 C474.545,125.485 475.97,126.909 477.727,126.909 Z" />
        </g>
        <g id="Black-M" transform="translate(0,200)">
            <path d="M645.909,139.636 L645.909,117.364 C645.909,115.606 644.485,114.182 642.727,114.182 C640.97,114.182 639.545,115.606 639.545,117.364 L639.545,139.636 C639.545,141.394 640.97,142.818 642.727,142.818 C644.485,142.818 645.909,141.394 645.909,139.636 Z M645.909,104.636 L645.909,82.364 C645.909,80.606 644.485,79.182 642.727,79.182 C640.97,79.182 639.545,80.606 639.545,82.364 L639.545,104.636 C639.545,106.394 640.97,107.818 642.727,107.818 C644.485,107.818 645.909,106.394 645.909,104.636 Z M668.182,139.636 L668.182,111 C668.182,109.243 666.757,107.818 665,107.818 C663.243,107.818 661.818,109.243 661.818,111 L661.818,139.636 C661.818,141.394 663.243,142.818 665,142.818 C666.757,142.818 668.182,141.394 668.182,139.636 Z M668.182,98.273 L668.182,82.364 C668.182,80.606 666.757,79.182 665,79.182 C663.243,79.182 661.818,80.606 661.818,82.364 L661.818,98.273 C661.818,100.03 663.243,101.455 665,101.455 C666.757,101.455 668.182,100.03 668.182,98.273 Z M690.455,139.636 L690.455,123.727 C690.455,121.97 689.03,120.545 687.273,120.545 C685.515,120.545 684.091,121.97 684.091,123.727 L684.091,139.636 C684.091,141.394 685.515,142.818 687.273,142.818 C689.03,142.818 690.455,141.394 690.455,139.636 Z M690.455,111 L690.455,82.364 C690.455,80.606 689.03,79.182 687.273,79.182 C685.515,79.182 684.091,80.606 684.091,82.364 L684.091,111 C684.091,112.757 685.515,114.182 687.273,114.182 C689.03,114.182 690.455,112.757 690.455,111 Z M633.182,120.545 L652.273,120.545 C654.03,120.545 655.455,119.121 655.455,117.364 C655.455,115.606 654.03,114.182 652.273,114.182 L633.182,114.182 C631.425,114.182 630,115.606 630,117.364 C630,119.121 631.425,120.545 633.182,120.545 Z M655.455,101.455 L674.545,101.455 C676.303,101.455 677.727,100.03 677.727,98.273 C677.727,96.515 676.303,95.091 674.545,95.091 L655.455,95.091 C653.697,95.091 652.273,96.515 652.273,98.273 C652.273,100.03 653.697,101.455 655.455,101.455 Z M677.727,126.909 L696.818,126.909 C698.575,126.909 700,125.485 700,123.727 C700,121.97 698.575,120.545 696.818,120.545 L677.727,120.545 C675.97,120.545 674.545,121.97 674.545,123.727 C674.545,125.485 675.97,126.909 677.727,126.909 Z" />
        </g>
    </g>
</svg>