<?xml version="1.0" encoding="UTF-8"?>
<svg height="600" width="800" xmlns="http://www.w3.org/2000/svg" xmlns:xlink="http://www.w3.org/1999/xlink">
    <g id="Notes" font-family="LucidaGrande, 'Lucida Grande', sans-serif" font-size="13">
        <rect fill="white" height="600.0" width="800.0" x="0.0" y="0.0" />
        <g font-size="13">
            <text x="18.0" y="176.0">Small</text>
            <text x="18.0" y="376.0">Medium</text>
            <text x="18.0" y="576.0">Large</text>
        </g>
        <g font-size="9">
            <text x="250.0" y="30.0">Ultralight</text>
            <text x="450.0" y="30.0">Regular</text>
            <text x="650.0" y="30.0">Black</text>
            <text id="template-version" fill="#505050" text-anchor="end" x="785.0" y="575.0">Template v.3.0</text>
            <a href="https://github.com/swhitty/SwiftDraw">
                <text fill="#505050" text-anchor="end" x="785.0" y="590.0">https://github.com/swhitty/SwiftDraw</text>
            </a>
        </g>
    </g>
    <g id="Guides" stroke="rgb(39, 170, 225)" stroke-width="0.5">
        <path id="Capline-S" d="M18,76 l800,0" />
        <path id="H-reference" d="M85,145.755 L87.685,145.755 L113.369,79.287 L114.052,79.287 L114.052,76 L112.148,76 L85,145.755 Z M95.693,121.536 L130.996,121.536 L130.263,119.313 L96.474,119.313 L95.693,121.536 Z M139.15,145.755 L141.787,145.755 L114.638,76 L113.466,76 L113.466,79.287 L139.15,145.755 Z" stroke="none" transform="translate(0,200)" />
        <path id="Baseline-S" d="M18,146 l800,0" />
        <path id="left-margin-Ultralight-M" d="M221,256 l0,110" />
        <path id="right-margin-Ultralight-M" d="M309,256 l0,110" />
        <path id="left-margin-Regular-M" d="M421,256 l0,110" />
        <path id="right-margin-Regular-M" d="M509,256 l0,110" />
        <path id="left-margin-Black-M" d="M621,256 l0,110" />
        <path id="right-margin-Black-M" d="M709,256 l0,110" />
        <path id="Capline-M" d="M18,276 l800,0" />
        <path id="Baseline-M" d="M18,346 l800,0" />
        <path id="Capline-L" d="M18,476 l800,0" />
        <path id="Baseline-L" d="M18,546 l800,0" />
    </g>
    <g id="Symbols">
        <g id="Ultralight-M" transform="translate(0,200)">
            <path d="M265,113.095 L265.021,113.095 C266.178,113.095 267.116,112.157 267.116,111 C267.116,109.843 266.178,108.905 265.021,108.905 L265,108.905 C263.843,108.905 262.905,109.843 262.905,111 C262.905,112.157 263.843,113.095 265,113.095 Z M277.571,100.524 L277.592,100.524 C278.75,100.524 279.688,99.586 279.688,98.429 C279.688,97.271 278.75,96.333 277.592,96.333 L277.571,96.333 C276.414,96.333 275.476,97.271 275.476,98.429 C275.476,99.586 276.414,100.524 277.571,100.524 Z M252.429,100.524 L252.45,100.524 C253.607,100.524 254.545,99.586 254.545,98.429 C254.545,97.271 253.607,96.333 252.45,96.333 L252.429,96.333 C251.271,96.333 250.333,97.271 250.333,98.429 C250.333,99.586 251.271,100.524 252.429,100.524 Z M277.571,125.667 L277.592,125.667 C278.75,125.667 279.688,124.729 279.688,123.571 C279.688,122.414 278.75,121.476 277.592,121.476 L277.571,121.476 C276.414,121.476 275.476,122.414 275.476,123.571 C275.476,124.729 276.414,125.667 277.571,125.667 Z M252.429,125.667 L252.45,125.667 C253.607,125.667 254.545,124.729 254.545,123.571 C254.545,122.414 253.607,121.476 252.45,121.476 L252.429,121.476 C251.271,121.476 250.333,122.414 250.333,123.571 C250.333,124.729 251.271,125.667 252.429,125.667 Z M254.105,134.048 L275.895,134.048 C280.716,134.048 281.862,133.954 283.471,133.134 C285.049,132.331 286.331,131.049 287.134,129.472 C287.954,127.862 288.048,126.716 288.048,121.895 L288.048,100.105 C288.048,95.284 287.954,94.138 287.134,92.529 C286.331,90.951 285.049,89.669 283.472,88.866 C281.862,88.046 280.716,87.952 275.895,87.952 L254.105,87.952 C249.284,87.952 248.138,88.046 246.529,88.866 C244.951,89.669 243.669,90.951 242.866,92.528 C242.046,94.138 241.952,95.284 241.952,100.105 L241.952,121.895 C241.952,126.716 242.046,127.862 242.866,129.471 C243.669,131.049 244.951,132.331 246.528,133.134 C248.138,133.954 249.284,134.048 254.105,134.048 Z M254.105,129.857 C250.126,129.857 249.175,129.779 248.431,129.4 C247.642,128.999 247.001,128.358 246.6,127.569 C246.221,126.825 246.143,125.874 246.143,121.895 L246.143,100.105 C246.143,96.126 246.221,95.175 246.6,94.431 C247.001,93.642 247.642,93.001 248.431,92.6 C249.175,92.221 250.126,92.143 254.105,92.143 L275.895,92.143 C279.874,92.143 280.825,92.221 281.569,92.6 C282.358,93.001 282.999,93.642 283.4,94.431 C283.779,95.175 283.857,96.126 283.857,100.105 L283.857,121.895 C283.857,125.874 283.779,126.825 283.4,127.569 C282.999,128.358 282.358,128.999 281.569,129.4 C280.825,129.779 279.874,129.857 275.895,129.857 L254.105,129.857 Z M263.952,111 C263.952,110.421 264.421,109.952 265,109.952 C265.579,109.952 266.048,110.421 266.048,111 C266.048,111.579 265.579,112.048 265,112.048 C264.421,112.048 263.952,111.579 263.952,111 Z M268.143,111 C268.143,109.264 266.736,107.857 265,107.857 C263.264,107.857 261.857,109.264 261.857,111 C261.857,112.736 263.264,114.143 265,114.143 C266.736,114.143 268.143,112.736 268.143,111 Z M273.381,111 C273.381,115.629 269.629,119.381 265,119.381 C260.371,119.381 256.619,115.629 256.619,111 C256.619,106.371 260.371,102.619 265,102.619 C269.629,102.619 273.381,106.371 273.381,111 Z M277.571,111 C277.571,104.057 271.943,98.429 265,98.429 C258.057,98.429 252.429,104.057 252.429,111 C252.429,117.943 258.057,123.571 265,123.571 C271.943,123.571 277.571,117.943 277.571,111 Z" />
        </g>
        <g id="Regular-M" transform="translate(0,200)">
            <path d="M465,113.095 L465.021,113.095 C466.178,113.095 467.116,112.157 467.116,111 C467.116,109.843 466.178,108.905 465.021,108.905 L465,108.905 C463.843,108.905 462.905,109.843 462.905,111 C462.905,112.157 463.843,113.095 465,113.095 Z M477.571,100.524 L477.592,100.524 C478.75,100.524 479.688,99.586 479.688,98.429 C479.688,97.271 478.75,96.333 477.592,96.333 L477.571,96.333 C476.414,96.333 475.476,97.271 475.476,98.429 C475.476,99.586 476.414,100.524 477.571,100.524 Z M452.429,100.524 L452.45,100.524 C453.607,100.524 454.545,99.586 454.545,98.429 C454.545,97.271 453.607,96.333 452.45,96.333 L452.429,96.333 C451.271,96.333 450.333,97.271 450.333,98.429 C450.333,99.586 451.271,100.524 452.429,100.524 Z M477.571,125.667 L477.592,125.667 C478.75,125.667 479.688,124.729 479.688,123.571 C479.688,122.414 478.75,121.476 477.592,121.476 L477.571,121.476 C476.414,121.476 475.476,122.414 475.476,123.571 C475.476,124.729 476.414,125.667 477.571,125.667 Z M452.429,125.667 L452.45,125.667 C453.607,125.667 454.545,124.729 454.545,123.571 C454.545,122.414 453.607,121.476 452.45,121.476 L452.429,121.476 C451.271,121.476 450.333,122.414 450.333,123.571 C450.333,124.729 451.271,125.667 452.429,125.667 Z M454.105,134.048 L475.895,134.048 C480.716,134.048 481.862,133.954 483.471,133.134 C485.049,132.331 486.331,131.049 487.134,129.472 C487.954,127.862 488.048,126.716 488.048,121.895 L488.048,100.105 C488.048,95.284 487.954,94.138 487.134,92.529 C486.331,90.951 485.049,89.669 483.472,88.866 C481.862,88.046 480.716,87.952 475.895,87.952 L454.105,87.952 C449.284,87.952 448.138,88.046 446.529,88.866 C444.951,89.669 443.669,90.951 442.866,92.528 C442.046,94.138 441.952,95.284 441.952,100.105 L441.952,121.895 C441.952,126.716 442.046,127.862 442.866,129.471 C443.669,131.049 444.951,132.331 446.528,133.134 C448.138,133.954 449.284,134.048 454.105,134.048 Z M454.105,129.857 C450.126,129.857 449.175,129.779 448.431,129.4 C447.642,128.999 447.001,128.358 446.6,127.569 C446.221,126.825 446.143,125.874 446.143,121.895 L446.143,100.105 C446.143,96.126 446.221,95.175 446.6,94.431 C447.001,93.642 447.642,93.001 448.431,92.6 C449.175,92.221 450.126,92.143 454.105,92.143 L475.895,92.143 C479.874,92.143 480.825,92.221 481.569,92.6 C482.358,93.001 482.999,93.642 483.4,94.431 C483.779,95.175 483.857,96.126 483.857,100.105 L483.857,121.895 C483.857,125.874 483.779,126.825 483.4,127.569 C482.999,128.358 482.358,128.999 481.569,129.4 C480.825,129.779 479.874,129.857 475.895,129.857 L454.105,129.857 Z M463.952,111 C463.952,110.421 464.421,109.952 465,109.952 C465.579,109.952 466.048,110.421 466.048,111 C466.048,111.579 465.579,112.048 465,112.048 C464.421,112.048 463.952,111.579 463.952,111 Z M468.143,111 C468.143,109.264 466.736,107.857 465,107.857 C463.264,107.857 461.857,109.264 461.857,111 C461.857,112.736 463.264,114.143 465,114.143 C466.736,114.143 468.143,112.736 468.143,111 Z M473.381,111 C473.381,115.629 469.629,119.381 465,119.381 C460.371,119.381 456.619,115.629 456.619,111 C456.619,106.371 460.371,102.619 465,102.619 C469.629,102.619 473.381,106.371 473.381,111 Z M477.571,111 C477.571,104.057 471.943,98.429 465,98.429 C458.057,98.429 452.429,104.057 452.429,111 C452.429,117.943 458.057,123.571 465,123.571 C471.943,123.571 477.571,117.943 477.571,111 Z" />
        </g>
        <g id="Black-M" transform="translate(0,200)">
            <path d="M665,113.095 L665.021,113.095 C666.178,113.095 667.116,112.157 667.116,111 C667.116,109.843 666.178,108.905 665.021,108.905 L665,108.905 C663.843,108.905 662.905,109.843 662.905,111 C662.905,112.157 663.843,113.095 665,113.095 Z M677.571,100.524 L677.592,100.524 C678.75,100.524 679.688,99.586 679.688,98.429 C679.688,97.271 678.75,96.333 677.592,96.333 L677.571,96.333 C676.414,96.333 675.476,97.271 675.476,98.429 C675.476,99.586 676.414,100.524 677.571,100.524 Z M652.429,100.524 L652.45,100.524 C653.607,100.524 654.545,99.586 654.545,98.429 C654.545,97.271 653.607,96.333 652.45,96.333 L652.429,96.333 C651.271,96.333 650.333,97.271 650.333,98.429 C650.333,99.586 651.271,100.524 652.429,100.524 Z M677.571,125.667 L677.592,125.667 C678.75,125.667 679.688,124.729 679.688,123.571 C679.688,122.414 678.75,121.476 677.592,121.476 L677.571,121.476 C676.414,121.476 675.476,122.414 675.476,123.571 C675.476,124.729 676.414,125.667 677.571,125.667 Z M652.429,125.667 L652.45,125.667 C653.607,125.667 654.545,124.729 654.545,123.571 C654.545,122.414 653.607,121.476 652.45,121.476 L652.429,121.476 C651.271,121.476 650.333,122.414 650.333,123.571 C650.333,124.729 651.271,125.667 652.429,125.667 Z M654.105,134.048 L675.895,134.048 C680.716,134.048 681.862,133.954 683.471,133.134 C685.049,132.331 686.331,131.049 687.134,129.472 C687.954,127.862 688.048,126.716 688.048,121.895 L688.048,100.105 C688.048,95.284 687.954,94.138 687.134,92.529 C686.331,90.951 685.049,89.669 683.472,88.866 C681.862,88.046 680.716,87.952 675.895,87.952 L654.105,87.952 C649.284,87.952 648.138,88.046 646.529,88.866 C644.951,89.669 643.669,90.951 642.866,92.528 C642.046,94.138 641.952,95.284 641.952,100.105 L641.952,121.895 C641.952,126.716 642.046,127.862 642.866,129.471 C643.669,131.049 644.951,132.331 646.528,133.134 C648.138,133.954 649.284,134.048 654.105,134.048 Z M654.105,129.857 C650.126,129.857 649.175,129.779 648.431,129.4 C647.642,128.999 647.001,128.358 646.6,127.569 C646.221,126.825 646.143,125.874 646.143,121.895 L646.143,100.105 C646.143,96.126 646.221,95.175 646.6,94.431 C647.001,93.642 647.642,93.001 648.431,92.6 C649.175,92.221 650.126,92.143 654.105,92.143 L675.895,92.143 C679.874,92.143 680.825,92.221 681.569,92.6 C682.358,93.001 682.999,93.642 683.4,94.431 C683.779,95.175 683.857,96.126 683.857,100.105 L683.857,121.895 C683.857,125.874 683.779,126.825 683.4,127.569 C682.999,128.358 682.358,128.999 681.569,129.4 C680.825,129.779 679.874,129.857 675.895,129.857 L654.105,129.857 Z M663.952,111 C663.952,110.421 664.421,109.952 665,109.952 C665.579,109.952 666.048,110.421 666.048,111 C666.048,111.579 665.579,112.048 665,112.048 C664.421,112.048 663.952,111.579 663.952,111 Z M668.143,111 C668.143,109.264 666.736,107.857 665,107.857 C663.264,107.857 661.857,109.264 661.857,111 C661.857,112.736 663.264,114.143 665,114.143 C666.736,114.143 668.143,112.736 668.143,111 Z M673.381,111 C673.381,115.629 669.629,119.381 665,119.381 C660.371,119.381 656.619,115.629 656.619,111 C656.619,106.371 660.371,102.619 665,102.619 C669.629,102.619 673.381,106.371 673.381,111 Z M677.571,111 C677.571,104.057 671.943,98.429 665,98.429 C658.057,98.429 652.429,104.057 652.429,111 C652.429,117.943 658.057,123.571 665,123.571 C671.943,123.571 677.571,117.943 677.571,111 Z" />
        </g>
    </g>
</svg>