<?xml version="1.0" encoding="UTF-8"?>
<svg height="600" width="800" xmlns="http://www.w3.org/2000/svg" xmlns:xlink="http://www.w3.org/1999/xlink">
    <g id="Notes" font-family="LucidaGrande, 'Lucida Grande', sans-serif" font-size="13">
        <rect fill="white" height="600.0" width="800.0" x="0.0" y="0.0" />
        <g font-size="13">
            <text x="18.0" y="176.0">Small</text>
            <text x="18.0" y="376.0">Medium</text>
            <text x="18.0" y="576.0">Large</text>
        </g>
        <g font-size="9">
            <text x="250.0" y="30.0">Ultralight</text>
            <text x="450.0" y="30.0">Regular</text>
            <text x="650.0" y="30.0">Black</text>
            <text id="template-version" fill="#505050" text-anchor="end" x="785.0" y="575.0">Template v.3.0</text>
            <a href="https://github.com/swhitty/SwiftDraw">
                <text fill="#505050" text-anchor="end" x="785.0" y="590.0">https://github.com/swhitty/SwiftDraw</text>
            </a>
        </g>
    </g>
    <g id="Guides" stroke="rgb(39, 170, 225)" stroke-width="0.5">
        <path id="Capline-S" d="M18,76 l800,0" />
        <path id="H-reference" d="M85,145.755 L87.685,145.755 L113.369,79.287 L114.052,79.287 L114.052,76 L112.148,76 L85,145.755 Z M95.693,121.536 L130.996,121.536 L130.263,119.313 L96.474,119.313 L95.693,121.536 Z M139.15,145.755 L141.787,145.755 L114.638,76 L113.466,76 L113.466,79.287 L139.15,145.755 Z" stroke="none" transform="translate(0,200)" />
        <path id="Baseline-S" d="M18,146 l800,0" />
        <path id="left-margin-Ultralight-M" d="M230,256 l0,110" />
        <path id="right-margin-Ultralight-M" d="M300,256 l0,110" />
        <path id="left-margin-Regular-M" d="M430,256 l0,110" />
        <path id="right-margin-Regular-M" d="M500,256 l0,110" />
        <path id="left-margin-Black-M" d="M630,256 l0,110" />
        <path id="right-margin-Black-M" d="M700,256 l0,110" />
        <path id="Capline-M" d="M18,276 l800,0" />
        <path id="Baseline-M" d="M18,346 l800,0" />
        <path id="Capline-L" d="M18,476 l800,0" />
        <path id="Baseline-L" d="M18,546 l800,0" />
    </g>
    <g id="Symbols">
        <g id="Ultralight-M" transform="translate(0,200)">
            <path d="M253.205,124.659 L237.296,140.568 C236.053,141.811 236.053,143.825 237.296,145.068 C238.538,146.311 240.553,146.311 241.795,145.068 L257.704,129.159 C258.947,127.916 258.947,125.902 257.704,124.659 C256.462,123.417 254.447,123.417 253.205,124.659 Z M272.296,129.159 L288.205,145.068 C289.447,146.311 291.462,146.311 292.704,145.068 C293.947,143.825 293.947,141.811 292.704,140.568 L276.795,124.659 C275.553,123.417 273.538,123.417 272.296,124.659 C271.053,125.902 271.053,127.916 272.296,129.159 Z M261.818,79.182 L261.818,85.545 C261.818,87.303 263.243,88.727 265,88.727 C266.757,88.727 268.182,87.303 268.182,85.545 L268.182,79.182 C268.182,77.425 266.757,76 265,76 C263.243,76 261.818,77.425 261.818,79.182 Z M268.182,142.818 L268.182,126.909 C268.182,125.152 266.757,123.727 265,123.727 C263.243,123.727 261.818,125.152 261.818,126.909 L261.818,142.818 C261.818,144.575 263.243,146 265,146 C266.757,146 268.182,144.575 268.182,142.818 Z M243.364,130.091 L286.636,130.091 C291.73,130.091 292.939,129.992 294.788,129.051 C296.584,128.135 298.044,126.675 298.96,124.879 C299.901,123.03 300,121.821 300,116.727 L300,95.727 C300,90.633 299.901,89.424 298.96,87.576 C298.044,85.779 296.584,84.319 294.788,83.404 C292.939,82.462 291.73,82.364 286.636,82.364 L243.364,82.364 C238.27,82.364 237.061,82.462 235.212,83.404 C233.416,84.319 231.956,85.779 231.04,87.575 C230.099,89.424 230,90.633 230,95.727 L230,116.727 C230,121.821 230.099,123.03 231.04,124.879 C231.956,126.675 233.416,128.135 235.212,129.05 C237.061,129.992 238.27,130.091 243.364,130.091 Z M243.364,123.727 C239.548,123.727 238.635,123.653 238.1,123.38 C237.502,123.075 237.016,122.589 236.71,121.99 C236.438,121.456 236.364,120.543 236.364,116.727 L236.364,95.727 C236.364,91.912 236.438,90.999 236.711,90.464 C237.016,89.866 237.502,89.379 238.101,89.074 C238.635,88.802 239.548,88.727 243.364,88.727 L286.636,88.727 C290.452,88.727 291.365,88.802 291.9,89.074 C292.498,89.379 292.984,89.866 293.29,90.465 C293.562,90.999 293.636,91.912 293.636,95.727 L293.636,116.727 C293.636,120.543 293.562,121.456 293.289,121.99 C292.984,122.589 292.498,123.075 291.899,123.38 C291.365,123.653 290.452,123.727 286.636,123.727 L243.364,123.727 Z" />
        </g>
        <g id="Regular-M" transform="translate(0,200)">
            <path d="M453.205,124.659 L437.296,140.568 C436.053,141.811 436.053,143.825 437.296,145.068 C438.538,146.311 440.553,146.311 441.795,145.068 L457.704,129.159 C458.947,127.916 458.947,125.902 457.704,124.659 C456.462,123.417 454.447,123.417 453.205,124.659 Z M472.296,129.159 L488.205,145.068 C489.447,146.311 491.462,146.311 492.704,145.068 C493.947,143.825 493.947,141.811 492.704,140.568 L476.795,124.659 C475.553,123.417 473.538,123.417 472.296,124.659 C471.053,125.902 471.053,127.916 472.296,129.159 Z M461.818,79.182 L461.818,85.545 C461.818,87.303 463.243,88.727 465,88.727 C466.757,88.727 468.182,87.303 468.182,85.545 L468.182,79.182 C468.182,77.425 466.757,76 465,76 C463.243,76 461.818,77.425 461.818,79.182 Z M468.182,142.818 L468.182,126.909 C468.182,125.152 466.757,123.727 465,123.727 C463.243,123.727 461.818,125.152 461.818,126.909 L461.818,142.818 C461.818,144.575 463.243,146 465,146 C466.757,146 468.182,144.575 468.182,142.818 Z M443.364,130.091 L486.636,130.091 C491.73,130.091 492.939,129.992 494.788,129.051 C496.584,128.135 498.044,126.675 498.96,124.879 C499.901,123.03 500,121.821 500,116.727 L500,95.727 C500,90.633 499.901,89.424 498.96,87.576 C498.044,85.779 496.584,84.319 494.788,83.404 C492.939,82.462 491.73,82.364 486.636,82.364 L443.364,82.364 C438.27,82.364 437.061,82.462 435.212,83.404 C433.416,84.319 431.956,85.779 431.04,87.575 C430.099,89.424 430,90.633 430,95.727 L430,116.727 C430,121.821 430.099,123.03 431.04,124.879 C431.956,126.675 433.416,128.135 435.212,129.05 C437.061,129.992 438.27,130.091 443.364,130.091 Z M443.364,123.727 C439.548,123.727 438.635,123.653 438.1,123.38 C437.502,123.075 437.016,122.589 436.71,121.99 C436.438,121.456 436.364,120.543 436.364,116.727 L436.364,95.727 C436.364,91.912 436.438,90.999 436.711,90.464 C437.016,89.866 437.502,89.379 438.101,89.074 C438.635,88.802 439.548,88.727 443.364,88.727 L486.636,88.727 C490.452,88.727 491.365,88.802 491.9,89.074 C492.498,89.379 492.984,89.866 493.29,90.465 C493.562,90.999 493.636,91.912 493.636,95.727 L493.636,116.727 C493.636,120.543 493.562,121.456 493.289,121.99 C492.984,122.589 492.498,123.075 491.899,123.38 C491.365,123.653 490.452,123.727 486.636,123.727 L443.364,123.727 Z" />
        </g>
        <g id="Black-M" transform="translate(0,200)">
            <path d="M653.205,124.659 L637.296,140.568 C636.053,141.811 636.053,143.825 637.296,145.068 C638.538,146.311 640.553,146.311 641.795,145.068 L657.704,129.159 C658.947,127.916 658.947,125.902 657.704,124.659 C656.462,123.417 654.447,123.417 653.205,124.659 Z M672.296,129.159 L688.205,145.068 C689.447,146.311 691.462,146.311 692.704,145.068 C693.947,143.825 693.947,141.811 692.704,140.568 L676.795,124.659 C675.553,123.417 673.538,123.417 672.296,124.659 C671.053,125.902 671.053,127.916 672.296,129.159 Z M661.818,79.182 L661.818,85.545 C661.818,87.303 663.243,88.727 665,88.727 C666.757,88.727 668.182,87.303 668.182,85.545 L668.182,79.182 C668.182,77.425 666.757,76 665,76 C663.243,76 661.818,77.425 661.818,79.182 Z M668.182,142.818 L668.182,126.909 C668.182,125.152 666.757,123.727 665,123.727 C663.243,123.727 661.818,125.152 661.818,126.909 L661.818,142.818 C661.818,144.575 663.243,146 665,146 C666.757,146 668.182,144.575 668.182,142.818 Z M643.364,130.091 L686.636,130.091 C691.73,130.091 692.939,129.992 694.788,129.051 C696.584,128.135 698.044,126.675 698.96,124.879 C699.901,123.03 700,121.821 700,116.727 L700,95.727 C700,90.633 699.901,89.424 698.96,87.576 C698.044,85.779 696.584,84.319 694.788,83.404 C692.939,82.462 691.73,82.364 686.636,82.364 L643.364,82.364 C638.27,82.364 637.061,82.462 635.212,83.404 C633.416,84.319 631.956,85.779 631.04,87.575 C630.099,89.424 630,90.633 630,95.727 L630,116.727 C630,121.821 630.099,123.03 631.04,124.879 C631.956,126.675 633.416,128.135 635.212,129.05 C637.061,129.992 638.27,130.091 643.364,130.091 Z M643.364,123.727 C639.548,123.727 638.635,123.653 638.1,123.38 C637.502,123.075 637.016,122.589 636.71,121.99 C636.438,121.456 636.364,120.543 636.364,116.727 L636.364,95.727 C636.364,91.912 636.438,90.999 636.711,90.464 C637.016,89.866 637.502,89.379 638.101,89.074 C638.635,88.802 639.548,88.727 643.364,88.727 L686.636,88.727 C690.452,88.727 691.365,88.802 691.9,89.074 C692.498,89.379 692.984,89.866 693.29,90.465 C693.562,90.999 693.636,91.912 693.636,95.727 L693.636,116.727 C693.636,120.543 693.562,121.456 693.289,121.99 C692.984,122.589 692.498,123.075 691.899,123.38 C691.365,123.653 690.452,123.727 686.636,123.727 L643.364,123.727 Z" />
        </g>
    </g>
</svg>