<?xml version="1.0" encoding="UTF-8"?>
<svg height="600" width="800" xmlns="http://www.w3.org/2000/svg" xmlns:xlink="http://www.w3.org/1999/xlink">
    <g id="Notes" font-family="LucidaGrande, 'Lucida Grande', sans-serif" font-size="13">
        <rect fill="white" height="600.0" width="800.0" x="0.0" y="0.0" />
        <g font-size="13">
            <text x="18.0" y="176.0">Small</text>
            <text x="18.0" y="376.0">Medium</text>
            <text x="18.0" y="576.0">Large</text>
        </g>
        <g font-size="9">
            <text x="250.0" y="30.0">Ultralight</text>
            <text x="450.0" y="30.0">Regular</text>
            <text x="650.0" y="30.0">Black</text>
            <text id="template-version" fill="#505050" text-anchor="end" x="785.0" y="575.0">Template v.3.0</text>
            <a href="https://github.com/swhitty/SwiftDraw">
                <text fill="#505050" text-anchor="end" x="785.0" y="590.0">https://github.com/swhitty/SwiftDraw</text>
            </a>
        </g>
    </g>
    <g id="Guides" stroke="rgb(39, 170, 225)" stroke-width="0.5">
        <path id="Capline-S" d="M18,76 l800,0" />
        <path id="H-reference" d="M85,145.755 L87.685,145.755 L113.369,79.287 L114.052,79.287 L114.052,76 L112.148,76 L85,145.755 Z M95.693,121.536 L130.996,121.536 L130.263,119.313 L96.474,119.313 L95.693,121.536 Z M139.15,145.755 L141.787,145.755 L114.638,76 L113.466,76 L113.466,79.287 L139.15,145.755 Z" stroke="none" transform="translate(0,200)" />
        <path id="Baseline-S" d="M18,146 l800,0" />
        <path id="left-margin-Ultralight-M" d="M221,256 l0,110" />
        <path id="right-margin-Ultralight-M" d="M309,256 l0,110" />
        <path id="left-margin-Regular-M" d="M421,256 l0,110" />
        <path id="right-margin-Regular-M" d="M509,256 l0,110" />
        <path id="left-margin-Black-M" d="M621,256 l0,110" />
        <path id="right-margin-Black-M" d="M709,256 l0,110" />
        <path id="Capline-M" d="M18,276 l800,0" />
        <path id="Baseline-M" d="M18,346 l800,0" />
        <path id="Capline-L" d="M18,476 l800,0" />
        <path id="Baseline-L" d="M18,546 l800,0" />
    </g>
    <g id="Symbols">
        <g id="Ultralight-M" transform="translate(0,200)">
            <path d="M265.387,94.154 C265.75,93.455 265.885,93.221 265.881,93.225 C265.783,93.33 265.645,93.435 265.462,93.52 C265.169,93.657 264.831,93.657 264.539,93.521 C264.251,93.386 264.137,93.267 264.108,93.221 C264.198,93.362 264.308,93.566 264.611,94.15 L267.912,100.501 C268.175,101.006 268.24,101.123 268.408,101.358 C268.555,101.564 268.72,101.748 268.916,101.916 C269.349,102.283 269.867,102.531 270.422,102.637 C270.989,102.75 271.202,102.723 272.142,102.542 L279.165,101.161 C279.82,101.033 280.042,100.993 280.209,100.975 C280.156,100.981 279.993,100.967 279.709,100.827 C279.416,100.681 279.205,100.417 279.13,100.103 C279.056,99.798 279.078,99.633 279.096,99.581 C279.042,99.74 278.95,99.955 278.683,100.554 L275.777,107.092 C275.413,107.903 275.321,108.157 275.297,108.742 C275.279,109.326 275.407,109.885 275.669,110.384 C275.942,110.906 276.122,111.082 276.824,111.677 L282.277,116.302 C282.773,116.722 282.94,116.868 283.061,116.99 C283.044,116.972 282.97,116.867 282.896,116.599 C282.883,116.553 282.883,116.553 282.873,116.504 C282.807,116.201 282.882,115.872 283.08,115.618 C283.274,115.367 283.417,115.282 283.469,115.263 C283.312,115.32 283.088,115.382 282.451,115.547 L275.528,117.35 C274.656,117.576 274.4,117.663 273.927,118.015 C273.475,118.351 273.117,118.799 272.888,119.316 C272.663,119.818 272.624,120.136 272.599,120.888 C272.596,120.954 272.596,120.954 272.594,121.022 L272.378,128.175 C272.358,128.834 272.347,129.066 272.327,129.234 C272.334,129.18 272.384,129.024 272.585,128.777 C272.792,128.525 273.096,128.379 273.418,128.376 C273.727,128.37 273.885,128.429 273.934,128.459 C273.791,128.372 273.609,128.24 273.075,127.841 L267.351,123.552 C266.62,123.004 266.407,122.867 265.838,122.715 C265.288,122.57 264.712,122.57 264.164,122.715 C264.061,122.744 264.061,122.744 263.964,122.776 C263.491,122.938 263.337,123.04 262.654,123.548 L256.924,127.841 C256.38,128.247 256.207,128.373 256.065,128.46 C256.114,128.43 256.272,128.37 256.595,128.376 C256.908,128.38 257.211,128.526 257.414,128.775 C257.614,129.017 257.666,129.176 257.673,129.232 C257.652,129.066 257.641,128.835 257.622,128.177 L257.404,121.029 C257.379,120.132 257.351,119.862 257.115,119.323 C256.891,118.809 256.535,118.359 256.084,118.019 C255.761,117.782 255.456,117.64 255.097,117.524 C254.93,117.47 254.815,117.439 254.475,117.35 L247.551,115.548 C246.912,115.382 246.688,115.32 246.531,115.263 C246.583,115.282 246.726,115.367 246.921,115.619 C247.118,115.872 247.193,116.201 247.125,116.515 C247.114,116.564 247.114,116.564 247.101,116.61 C247.027,116.873 246.956,116.975 246.941,116.99 C247.062,116.868 247.226,116.724 247.724,116.301 L253.177,111.676 C253.733,111.201 253.852,111.091 254.089,110.77 C254.216,110.589 254.216,110.589 254.332,110.382 C254.593,109.885 254.721,109.326 254.704,108.763 C254.679,108.157 254.587,107.902 254.219,107.084 L251.32,100.557 C251.052,99.955 250.96,99.74 250.906,99.581 C250.924,99.633 250.946,99.798 250.871,100.107 C250.795,100.421 250.584,100.685 250.296,100.828 C250.018,100.967 249.851,100.982 249.795,100.976 C249.961,100.993 250.183,101.033 250.838,101.161 L257.854,102.54 C258.785,102.721 259.012,102.749 259.597,102.634 C260.14,102.529 260.656,102.281 261.085,101.916 C261.538,101.53 261.667,101.32 262.094,100.496 L265.39,94.153 C266.143,92.702 265.091,90.969 263.456,90.969 L263.454,90.969 L263.454,93.148 L265.387,94.154 Z M261.521,92.142 C260.766,93.593 261.819,95.327 263.454,95.327 L263.456,95.327 L263.456,93.148 L261.522,92.143 L258.225,98.489 C258.114,98.703 258.091,98.741 258.261,98.597 C258.404,98.475 258.576,98.392 258.761,98.356 C258.971,98.315 258.926,98.309 258.69,98.263 L251.678,96.885 C249.622,96.481 249.308,96.449 248.354,96.926 C247.496,97.351 246.864,98.14 246.636,99.079 C246.385,100.115 246.492,100.432 247.339,102.33 L250.24,108.861 C250.344,109.094 250.357,109.128 250.348,108.92 C250.342,108.712 250.384,108.525 250.472,108.359 C250.527,108.262 250.527,108.262 250.581,108.184 C250.634,108.112 250.571,108.171 250.352,108.357 L244.903,112.979 C243.392,114.262 243.174,114.482 242.907,115.425 C242.884,115.511 242.884,115.511 242.864,115.598 C242.661,116.543 242.886,117.529 243.479,118.292 C244.131,119.132 244.441,119.244 246.455,119.766 L253.376,121.567 C253.62,121.631 253.702,121.653 253.755,121.671 C253.707,121.655 253.611,121.61 253.485,121.518 C253.315,121.39 253.196,121.24 253.121,121.068 C253.037,120.875 253.041,120.913 253.047,121.156 L253.265,128.309 C253.328,130.39 253.368,130.718 254.048,131.542 C254.655,132.283 255.564,132.721 256.528,132.734 C257.588,132.752 257.834,132.601 259.535,131.331 L265.262,127.04 C265.468,126.887 265.529,126.847 265.376,126.899 C265.331,126.914 265.331,126.914 265.282,126.927 C265.096,126.977 264.903,126.977 264.72,126.928 C264.508,126.872 264.543,126.894 264.737,127.04 L270.463,131.329 C272.144,132.588 272.412,132.752 273.481,132.733 C274.434,132.723 275.346,132.285 275.958,131.537 C276.632,130.712 276.672,130.388 276.735,128.306 L276.95,121.159 C276.952,121.097 276.952,121.097 276.954,121.036 C276.96,120.884 276.959,120.89 276.869,121.091 C276.798,121.251 276.678,121.4 276.527,121.513 C276.355,121.641 276.392,121.628 276.625,121.568 L283.547,119.765 C285.559,119.244 285.869,119.132 286.522,118.291 C287.114,117.529 287.339,116.543 287.136,115.599 C287.119,115.522 287.119,115.522 287.096,115.436 C286.832,114.484 286.609,114.26 285.096,112.978 L279.642,108.352 C279.458,108.197 279.427,108.166 279.529,108.361 C279.615,108.525 279.658,108.712 279.652,108.899 C279.643,109.128 279.656,109.094 279.756,108.869 L282.665,102.327 C283.51,100.432 283.617,100.115 283.366,99.08 C283.141,98.143 282.509,97.35 281.641,96.92 C280.688,96.45 280.376,96.482 278.325,96.885 L271.308,98.264 C271.08,98.308 271.032,98.314 271.258,98.359 C271.423,98.391 271.596,98.473 271.739,98.595 C271.832,98.674 271.902,98.752 271.952,98.822 C271.958,98.831 271.916,98.754 271.778,98.489 L268.48,92.143 C267.525,90.301 267.347,90.023 266.384,89.572 C265.506,89.163 264.494,89.163 263.617,89.572 C263.263,89.738 262.964,89.965 262.704,90.242 C262.3,90.672 262.148,90.936 261.521,92.142 Z" />
        </g>
        <g id="Regular-M" transform="translate(0,200)">
            <path d="M465.387,94.154 C465.75,93.455 465.885,93.221 465.881,93.225 C465.783,93.33 465.645,93.435 465.462,93.52 C465.169,93.657 464.831,93.657 464.539,93.521 C464.251,93.386 464.137,93.267 464.108,93.221 C464.198,93.362 464.308,93.566 464.611,94.15 L467.912,100.501 C468.175,101.006 468.24,101.123 468.408,101.358 C468.555,101.564 468.72,101.748 468.916,101.916 C469.349,102.283 469.867,102.531 470.422,102.637 C470.989,102.75 471.202,102.723 472.142,102.542 L479.165,101.161 C479.82,101.033 480.042,100.993 480.209,100.975 C480.156,100.981 479.993,100.967 479.709,100.827 C479.416,100.681 479.205,100.417 479.13,100.103 C479.056,99.798 479.078,99.633 479.096,99.581 C479.042,99.74 478.95,99.955 478.683,100.554 L475.777,107.092 C475.413,107.903 475.321,108.157 475.297,108.742 C475.279,109.326 475.407,109.885 475.669,110.384 C475.942,110.906 476.122,111.082 476.824,111.677 L482.277,116.302 C482.773,116.722 482.94,116.868 483.061,116.99 C483.044,116.972 482.97,116.867 482.896,116.599 C482.883,116.553 482.883,116.553 482.873,116.504 C482.807,116.201 482.882,115.872 483.08,115.618 C483.274,115.367 483.417,115.282 483.469,115.263 C483.312,115.32 483.088,115.382 482.451,115.547 L475.528,117.35 C474.656,117.576 474.4,117.663 473.927,118.015 C473.475,118.351 473.117,118.799 472.888,119.316 C472.663,119.818 472.624,120.136 472.599,120.888 C472.596,120.954 472.596,120.954 472.594,121.022 L472.378,128.175 C472.358,128.834 472.347,129.066 472.327,129.234 C472.334,129.18 472.384,129.024 472.585,128.777 C472.792,128.525 473.096,128.379 473.418,128.376 C473.727,128.37 473.885,128.429 473.934,128.459 C473.791,128.372 473.609,128.24 473.075,127.841 L467.351,123.552 C466.62,123.004 466.407,122.867 465.838,122.715 C465.288,122.57 464.712,122.57 464.164,122.715 C464.061,122.744 464.061,122.744 463.964,122.776 C463.491,122.938 463.337,123.04 462.654,123.548 L456.924,127.841 C456.38,128.247 456.207,128.373 456.065,128.46 C456.114,128.43 456.272,128.37 456.595,128.376 C456.908,128.38 457.211,128.526 457.414,128.775 C457.614,129.017 457.666,129.176 457.673,129.232 C457.652,129.066 457.641,128.835 457.622,128.177 L457.404,121.029 C457.379,120.132 457.351,119.862 457.115,119.323 C456.891,118.809 456.535,118.359 456.084,118.019 C455.761,117.782 455.456,117.64 455.097,117.524 C454.93,117.47 454.815,117.439 454.475,117.35 L447.551,115.548 C446.912,115.382 446.688,115.32 446.531,115.263 C446.583,115.282 446.726,115.367 446.921,115.619 C447.118,115.872 447.193,116.201 447.125,116.515 C447.114,116.564 447.114,116.564 447.101,116.61 C447.027,116.873 446.956,116.975 446.941,116.99 C447.062,116.868 447.226,116.724 447.724,116.301 L453.177,111.676 C453.733,111.201 453.852,111.091 454.089,110.77 C454.216,110.589 454.216,110.589 454.332,110.382 C454.593,109.885 454.721,109.326 454.704,108.763 C454.679,108.157 454.587,107.902 454.219,107.084 L451.32,100.557 C451.052,99.955 450.96,99.74 450.906,99.581 C450.924,99.633 450.946,99.798 450.871,100.107 C450.795,100.421 450.584,100.685 450.296,100.828 C450.018,100.967 449.851,100.982 449.795,100.976 C449.961,100.993 450.183,101.033 450.838,101.161 L457.854,102.54 C458.785,102.721 459.012,102.749 459.597,102.634 C460.14,102.529 460.656,102.281 461.085,101.916 C461.538,101.53 461.667,101.32 462.094,100.496 L465.39,94.153 C466.143,92.702 465.091,90.969 463.456,90.969 L463.454,90.969 L463.454,93.148 L465.387,94.154 Z M461.521,92.142 C460.766,93.593 461.819,95.327 463.454,95.327 L463.456,95.327 L463.456,93.148 L461.522,92.143 L458.225,98.489 C458.114,98.703 458.091,98.741 458.261,98.597 C458.404,98.475 458.576,98.392 458.761,98.356 C458.971,98.315 458.926,98.309 458.69,98.263 L451.678,96.885 C449.622,96.481 449.308,96.449 448.354,96.926 C447.496,97.351 446.864,98.14 446.636,99.079 C446.385,100.115 446.492,100.432 447.339,102.33 L450.24,108.861 C450.344,109.094 450.357,109.128 450.348,108.92 C450.342,108.712 450.384,108.525 450.472,108.359 C450.527,108.262 450.527,108.262 450.581,108.184 C450.634,108.112 450.571,108.171 450.352,108.357 L444.903,112.979 C443.392,114.262 443.174,114.482 442.907,115.425 C442.884,115.511 442.884,115.511 442.864,115.598 C442.661,116.543 442.886,117.529 443.479,118.292 C444.131,119.132 444.441,119.244 446.455,119.766 L453.376,121.567 C453.62,121.631 453.702,121.653 453.755,121.671 C453.707,121.655 453.611,121.61 453.485,121.518 C453.315,121.39 453.196,121.24 453.121,121.068 C453.037,120.875 453.041,120.913 453.047,121.156 L453.265,128.309 C453.328,130.39 453.368,130.718 454.048,131.542 C454.655,132.283 455.564,132.721 456.528,132.734 C457.588,132.752 457.834,132.601 459.535,131.331 L465.262,127.04 C465.468,126.887 465.529,126.847 465.376,126.899 C465.331,126.914 465.331,126.914 465.282,126.927 C465.096,126.977 464.903,126.977 464.72,126.928 C464.508,126.872 464.543,126.894 464.737,127.04 L470.463,131.329 C472.144,132.588 472.412,132.752 473.481,132.733 C474.434,132.723 475.346,132.285 475.958,131.537 C476.632,130.712 476.672,130.388 476.735,128.306 L476.95,121.159 C476.952,121.097 476.952,121.097 476.954,121.036 C476.96,120.884 476.959,120.89 476.869,121.091 C476.798,121.251 476.678,121.4 476.527,121.513 C476.355,121.641 476.392,121.628 476.625,121.568 L483.547,119.765 C485.559,119.244 485.869,119.132 486.522,118.291 C487.114,117.529 487.339,116.543 487.136,115.599 C487.119,115.522 487.119,115.522 487.096,115.436 C486.832,114.484 486.609,114.26 485.096,112.978 L479.642,108.352 C479.458,108.197 479.427,108.166 479.529,108.361 C479.615,108.525 479.658,108.712 479.652,108.899 C479.643,109.128 479.656,109.094 479.756,108.869 L482.665,102.327 C483.51,100.432 483.617,100.115 483.366,99.08 C483.141,98.143 482.509,97.35 481.641,96.92 C480.688,96.45 480.376,96.482 478.325,96.885 L471.308,98.264 C471.08,98.308 471.032,98.314 471.258,98.359 C471.423,98.391 471.596,98.473 471.739,98.595 C471.832,98.674 471.902,98.752 471.952,98.822 C471.958,98.831 471.916,98.754 471.778,98.489 L468.48,92.143 C467.525,90.301 467.347,90.023 466.384,89.572 C465.506,89.163 464.494,89.163 463.617,89.572 C463.263,89.738 462.964,89.965 462.704,90.242 C462.3,90.672 462.148,90.936 461.521,92.142 Z" />
        </g>
        <g id="Black-M" transform="translate(0,200)">
            <path d="M665.387,94.154 C665.75,93.455 665.885,93.221 665.881,93.225 C665.783,93.33 665.645,93.435 665.462,93.52 C665.169,93.657 664.831,93.657 664.539,93.521 C664.251,93.386 664.137,93.267 664.108,93.221 C664.198,93.362 664.308,93.566 664.611,94.15 L667.912,100.501 C668.175,101.006 668.24,101.123 668.408,101.358 C668.555,101.564 668.72,101.748 668.916,101.916 C669.349,102.283 669.867,102.531 670.422,102.637 C670.989,102.75 671.202,102.723 672.142,102.542 L679.165,101.161 C679.82,101.033 680.042,100.993 680.209,100.975 C680.156,100.981 679.993,100.967 679.709,100.827 C679.416,100.681 679.205,100.417 679.13,100.103 C679.056,99.798 679.078,99.633 679.096,99.581 C679.042,99.74 678.95,99.955 678.683,100.554 L675.777,107.092 C675.413,107.903 675.321,108.157 675.297,108.742 C675.279,109.326 675.407,109.885 675.669,110.384 C675.942,110.906 676.122,111.082 676.824,111.677 L682.277,116.302 C682.773,116.722 682.94,116.868 683.061,116.99 C683.044,116.972 682.97,116.867 682.896,116.599 C682.883,116.553 682.883,116.553 682.873,116.504 C682.807,116.201 682.882,115.872 683.08,115.618 C683.274,115.367 683.417,115.282 683.469,115.263 C683.312,115.32 683.088,115.382 682.451,115.547 L675.528,117.35 C674.656,117.576 674.4,117.663 673.927,118.015 C673.475,118.351 673.117,118.799 672.888,119.316 C672.663,119.818 672.624,120.136 672.599,120.888 C672.596,120.954 672.596,120.954 672.594,121.022 L672.378,128.175 C672.359,128.834 672.347,129.066 672.327,129.234 C672.333,129.18 672.384,129.024 672.586,128.777 C672.792,128.525 673.096,128.379 673.418,128.376 C673.727,128.37 673.885,128.429 673.934,128.459 C673.791,128.372 673.609,128.24 673.075,127.841 L667.351,123.552 C666.62,123.004 666.407,122.867 665.838,122.715 C665.288,122.57 664.712,122.57 664.164,122.715 C664.061,122.744 664.061,122.744 663.964,122.776 C663.491,122.938 663.337,123.04 662.654,123.548 L656.924,127.841 C656.38,128.247 656.207,128.373 656.065,128.46 C656.114,128.43 656.272,128.37 656.595,128.376 C656.908,128.38 657.211,128.526 657.414,128.775 C657.614,129.017 657.666,129.176 657.673,129.232 C657.652,129.066 657.641,128.835 657.622,128.177 L657.404,121.029 C657.379,120.132 657.351,119.862 657.115,119.323 C656.891,118.809 656.535,118.359 656.084,118.019 C655.761,117.782 655.456,117.64 655.097,117.524 C654.93,117.47 654.815,117.439 654.475,117.35 L647.551,115.548 C646.912,115.382 646.688,115.32 646.531,115.263 C646.583,115.282 646.726,115.367 646.921,115.619 C647.118,115.872 647.193,116.201 647.125,116.515 C647.114,116.564 647.114,116.564 647.101,116.61 C647.027,116.873 646.956,116.975 646.941,116.99 C647.062,116.868 647.226,116.724 647.724,116.301 L653.177,111.676 C653.733,111.201 653.852,111.091 654.089,110.77 C654.216,110.589 654.216,110.589 654.332,110.382 C654.593,109.885 654.721,109.326 654.704,108.763 C654.679,108.157 654.587,107.902 654.219,107.084 L651.32,100.557 C651.052,99.955 650.96,99.74 650.906,99.581 C650.924,99.633 650.946,99.798 650.871,100.107 C650.795,100.421 650.584,100.685 650.296,100.828 C650.018,100.967 649.851,100.982 649.795,100.976 C649.961,100.993 650.183,101.033 650.838,101.161 L657.854,102.54 C658.785,102.721 659.012,102.749 659.597,102.634 C660.14,102.529 660.656,102.281 661.085,101.916 C661.538,101.53 661.667,101.32 662.094,100.496 L665.39,94.153 C666.143,92.702 665.091,90.969 663.456,90.969 L663.454,90.969 L663.454,93.148 L665.387,94.154 Z M661.521,92.142 C660.766,93.593 661.819,95.327 663.454,95.327 L663.456,95.327 L663.456,93.148 L661.522,92.143 L658.225,98.489 C658.114,98.703 658.091,98.741 658.26,98.597 C658.404,98.475 658.576,98.392 658.761,98.356 C658.971,98.315 658.926,98.309 658.69,98.263 L651.678,96.885 C649.622,96.481 649.308,96.449 648.354,96.926 C647.496,97.351 646.864,98.14 646.636,99.079 C646.385,100.115 646.492,100.432 647.339,102.33 L650.24,108.861 C650.344,109.094 650.357,109.128 650.348,108.92 C650.342,108.712 650.384,108.525 650.472,108.359 C650.527,108.262 650.527,108.262 650.581,108.184 C650.634,108.112 650.571,108.171 650.352,108.357 L644.903,112.979 C643.393,114.262 643.174,114.482 642.907,115.425 C642.884,115.511 642.884,115.511 642.864,115.598 C642.661,116.543 642.886,117.529 643.479,118.292 C644.131,119.132 644.441,119.244 646.455,119.766 L653.376,121.567 C653.62,121.631 653.702,121.653 653.755,121.671 C653.707,121.655 653.611,121.61 653.485,121.518 C653.315,121.39 653.196,121.24 653.121,121.068 C653.037,120.875 653.041,120.913 653.047,121.156 L653.265,128.309 C653.328,130.39 653.369,130.718 654.048,131.542 C654.655,132.283 655.564,132.721 656.528,132.734 C657.588,132.752 657.834,132.601 659.534,131.331 L665.262,127.04 C665.468,126.887 665.529,126.847 665.376,126.899 C665.331,126.914 665.331,126.914 665.282,126.927 C665.096,126.977 664.903,126.977 664.72,126.928 C664.508,126.872 664.543,126.894 664.737,127.04 L670.463,131.329 C672.144,132.588 672.412,132.752 673.481,132.733 C674.434,132.723 675.346,132.285 675.958,131.537 C676.632,130.712 676.672,130.388 676.735,128.306 L676.95,121.159 C676.952,121.097 676.952,121.097 676.954,121.036 C676.96,120.884 676.959,120.89 676.869,121.091 C676.798,121.251 676.678,121.4 676.527,121.513 C676.355,121.641 676.392,121.628 676.625,121.568 L683.547,119.765 C685.559,119.244 685.869,119.132 686.522,118.291 C687.114,117.529 687.339,116.543 687.136,115.599 C687.119,115.522 687.119,115.522 687.096,115.436 C686.832,114.484 686.609,114.26 685.096,112.978 L679.642,108.352 C679.458,108.197 679.427,108.166 679.529,108.361 C679.615,108.525 679.658,108.712 679.652,108.899 C679.643,109.128 679.656,109.094 679.756,108.869 L682.665,102.327 C683.51,100.432 683.617,100.115 683.366,99.08 C683.141,98.143 682.509,97.35 681.641,96.92 C680.688,96.45 680.376,96.482 678.325,96.885 L671.308,98.264 C671.08,98.308 671.032,98.314 671.258,98.359 C671.423,98.391 671.596,98.473 671.739,98.595 C671.832,98.674 671.902,98.752 671.952,98.822 C671.958,98.831 671.916,98.754 671.778,98.489 L668.48,92.143 C667.525,90.301 667.347,90.023 666.384,89.572 C665.506,89.163 664.494,89.163 663.617,89.572 C663.263,89.738 662.964,89.965 662.704,90.242 C662.3,90.672 662.148,90.936 661.521,92.142 Z" />
        </g>
    </g>
</svg>