<?xml version="1.0" encoding="UTF-8"?>
<svg height="600" width="800" xmlns="http://www.w3.org/2000/svg" xmlns:xlink="http://www.w3.org/1999/xlink">
    <g id="Notes" font-family="LucidaGrande, 'Lucida Grande', sans-serif" font-size="13">
        <rect fill="white" height="600.0" width="800.0" x="0.0" y="0.0" />
        <g font-size="13">
            <text x="18.0" y="176.0">Small</text>
            <text x="18.0" y="376.0">Medium</text>
            <text x="18.0" y="576.0">Large</text>
        </g>
        <g font-size="9">
            <text x="250.0" y="30.0">Ultralight</text>
            <text x="450.0" y="30.0">Regular</text>
            <text x="650.0" y="30.0">Black</text>
            <text id="template-version" fill="#505050" text-anchor="end" x="785.0" y="575.0">Template v.3.0</text>
            <a href="https://github.com/swhitty/SwiftDraw">
                <text fill="#505050" text-anchor="end" x="785.0" y="590.0">https://github.com/swhitty/SwiftDraw</text>
            </a>
        </g>
    </g>
    <g id="Guides" stroke="rgb(39, 170, 225)" stroke-width="0.5">
        <path id="Capline-S" d="M18,76 l800,0" />
        <path id="H-reference" d="M85,145.755 L87.685,145.755 L113.369,79.287 L114.052,79.287 L114.052,76 L112.148,76 L85,145.755 Z M95.693,121.536 L130.996,121.536 L130.263,119.313 L96.474,119.313 L95.693,121.536 Z M139.15,145.755 L141.787,145.755 L114.638,76 L113.466,76 L113.466,79.287 L139.15,145.755 Z" stroke="none" transform="translate(0,200)" />
        <path id="Baseline-S" d="M18,146 l800,0" />
        <path id="left-margin-Ultralight-M" d="M230,256 l0,110" />
        <path id="right-margin-Ultralight-M" d="M300,256 l0,110" />
        <path id="left-margin-Regular-M" d="M430,256 l0,110" />
        <path id="right-margin-Regular-M" d="M500,256 l0,110" />
        <path id="left-margin-Black-M" d="M630,256 l0,110" />
        <path id="right-margin-Black-M" d="M700,256 l0,110" />
        <path id="Capline-M" d="M18,276 l800,0" />
        <path id="Baseline-M" d="M18,346 l800,0" />
        <path id="Capline-L" d="M18,476 l800,0" />
        <path id="Baseline-L" d="M18,546 l800,0" />
    </g>
    <g id="Symbols">
        <g id="Ultralight-M" transform="translate(0,200)">
            <path d="M265.61,84.452 C266.183,83.352 266.395,82.982 266.389,82.989 C266.234,83.153 266.016,83.319 265.728,83.454 C265.266,83.67 264.734,83.67 264.274,83.455 C263.82,83.243 263.64,83.054 263.594,82.982 C263.737,83.205 263.91,83.526 264.387,84.447 L269.589,94.455 C270.004,95.251 270.106,95.436 270.37,95.806 C270.602,96.13 270.863,96.421 271.172,96.684 C271.854,97.263 272.671,97.654 273.545,97.821 C274.438,97.999 274.774,97.958 276.255,97.671 L287.323,95.495 C288.355,95.293 288.705,95.23 288.969,95.203 C288.885,95.211 288.628,95.189 288.181,94.968 C287.719,94.739 287.387,94.323 287.268,93.829 C287.151,93.347 287.186,93.087 287.214,93.005 C287.129,93.255 286.985,93.594 286.564,94.538 L281.984,104.842 C281.411,106.119 281.265,106.52 281.228,107.443 C281.199,108.363 281.401,109.243 281.814,110.03 C282.244,110.852 282.528,111.13 283.634,112.067 L292.228,119.357 C293.009,120.019 293.273,120.249 293.463,120.441 C293.436,120.413 293.32,120.247 293.203,119.825 C293.183,119.752 293.183,119.752 293.166,119.675 C293.063,119.197 293.181,118.679 293.493,118.278 C293.799,117.883 294.025,117.749 294.107,117.719 C293.858,117.809 293.506,117.907 292.502,118.167 L281.592,121.008 C280.218,121.365 279.815,121.502 279.069,122.056 C278.356,122.586 277.792,123.293 277.432,124.106 C277.076,124.897 277.015,125.399 276.975,126.585 C276.972,126.689 276.972,126.689 276.968,126.795 L276.628,138.067 C276.597,139.106 276.579,139.472 276.547,139.736 C276.557,139.652 276.637,139.406 276.954,139.017 C277.28,138.62 277.759,138.39 278.267,138.384 C278.753,138.375 279.002,138.469 279.079,138.516 C278.855,138.378 278.568,138.171 277.727,137.541 L268.706,130.783 C267.553,129.918 267.218,129.703 266.32,129.464 C265.454,129.234 264.546,129.234 263.683,129.463 C263.521,129.508 263.521,129.508 263.367,129.559 C262.621,129.814 262.379,129.976 261.303,130.776 L252.273,137.541 C251.415,138.182 251.142,138.379 250.918,138.517 C250.996,138.469 251.246,138.375 251.755,138.384 C252.247,138.391 252.724,138.621 253.045,139.013 C253.36,139.394 253.442,139.646 253.453,139.734 C253.421,139.472 253.403,139.107 253.372,138.071 L253.029,126.806 C252.989,125.393 252.946,124.968 252.573,124.117 C252.221,123.308 251.66,122.598 250.948,122.063 C250.44,121.69 249.959,121.466 249.393,121.283 C249.13,121.198 248.95,121.148 248.413,121.008 L237.501,118.168 C236.494,117.907 236.142,117.809 235.893,117.719 C235.975,117.749 236.2,117.883 236.508,118.28 C236.819,118.679 236.937,119.197 236.83,119.693 C236.813,119.77 236.813,119.77 236.793,119.842 C236.676,120.256 236.563,120.417 236.539,120.441 C236.731,120.249 236.99,120.022 237.774,119.355 L246.367,112.067 C247.244,111.318 247.432,111.145 247.805,110.639 C248.006,110.353 248.006,110.353 248.188,110.027 C248.599,109.243 248.801,108.363 248.774,107.475 C248.735,106.52 248.589,106.119 248.01,104.83 L243.442,94.544 C243.018,93.594 242.874,93.255 242.789,93.005 C242.817,93.087 242.852,93.347 242.734,93.834 C242.614,94.33 242.282,94.744 241.827,94.97 C241.389,95.189 241.126,95.213 241.038,95.204 C241.3,95.23 241.65,95.293 242.681,95.495 L253.738,97.669 C255.205,97.954 255.563,97.998 256.485,97.816 C257.341,97.651 258.154,97.26 258.83,96.686 C259.544,96.077 259.747,95.745 260.42,94.448 L265.614,84.45 C266.802,82.164 265.143,79.433 262.567,79.433 L262.563,79.433 L262.563,82.867 L265.61,84.452 Z M259.517,81.282 C258.327,83.568 259.986,86.301 262.563,86.301 L262.567,86.301 L262.567,82.867 L259.52,81.284 L254.324,91.284 C254.148,91.622 254.112,91.682 254.379,91.454 C254.606,91.262 254.877,91.131 255.167,91.075 C255.499,91.01 255.428,91.001 255.055,90.928 L244.005,88.756 C240.765,88.12 240.27,88.069 238.767,88.82 C237.415,89.49 236.419,90.735 236.06,92.214 C235.664,93.847 235.833,94.347 237.167,97.337 L241.739,107.631 C241.903,107.996 241.923,108.052 241.91,107.723 C241.899,107.395 241.967,107.101 242.104,106.839 C242.191,106.685 242.191,106.685 242.276,106.564 C242.36,106.45 242.26,106.542 241.916,106.836 L233.329,114.119 C230.948,116.142 230.603,116.488 230.183,117.975 C230.147,118.109 230.147,118.109 230.116,118.247 C229.795,119.736 230.15,121.29 231.084,122.493 C232.111,123.816 232.6,123.992 235.773,124.815 L246.681,127.655 C247.066,127.755 247.194,127.79 247.278,127.817 C247.203,127.793 247.051,127.722 246.853,127.577 C246.585,127.376 246.398,127.139 246.279,126.867 C246.146,126.564 246.153,126.624 246.163,127.006 L246.507,138.279 C246.606,141.559 246.669,142.076 247.74,143.374 C248.696,144.542 250.129,145.232 251.648,145.252 C253.319,145.281 253.707,145.043 256.387,143.041 L265.412,136.28 C265.738,136.038 265.833,135.974 265.593,136.056 C265.521,136.08 265.521,136.08 265.445,136.102 C265.152,136.179 264.848,136.179 264.559,136.102 C264.225,136.014 264.28,136.049 264.586,136.279 L273.609,143.038 C276.259,145.022 276.681,145.281 278.366,145.252 C279.868,145.235 281.305,144.544 282.27,143.367 C283.332,142.067 283.394,141.555 283.493,138.274 L283.833,127.01 C283.836,126.913 283.836,126.913 283.84,126.817 C283.848,126.578 283.846,126.588 283.705,126.903 C283.593,127.156 283.405,127.392 283.167,127.568 C282.895,127.77 282.954,127.75 283.321,127.655 L294.23,124.815 C297.4,123.992 297.889,123.816 298.918,122.491 C299.85,121.29 300.205,119.736 299.885,118.248 C299.858,118.128 299.858,118.128 299.822,117.992 C299.407,116.492 299.054,116.139 296.67,114.118 L288.075,106.829 C287.785,106.583 287.737,106.535 287.897,106.842 C288.033,107.101 288.101,107.395 288.091,107.691 C288.077,108.052 288.097,107.996 288.255,107.643 L292.838,97.332 C294.17,94.347 294.34,93.847 293.944,92.216 C293.589,90.739 292.593,89.49 291.226,88.812 C289.723,88.07 289.231,88.121 285.999,88.756 L274.941,90.93 C274.581,90.999 274.506,91.009 274.862,91.08 C275.122,91.129 275.395,91.259 275.621,91.451 C275.767,91.576 275.877,91.699 275.956,91.809 C275.966,91.823 275.9,91.703 275.681,91.284 L270.484,81.283 C268.979,78.38 268.698,77.942 267.181,77.232 C265.798,76.586 264.202,76.586 262.821,77.231 C262.262,77.492 261.791,77.851 261.381,78.288 C260.745,78.966 260.506,79.381 259.517,81.282 Z" />
        </g>
        <g id="Regular-M" transform="translate(0,200)">
            <path d="M465.61,84.452 C466.183,83.352 466.395,82.982 466.389,82.989 C466.234,83.153 466.016,83.319 465.728,83.454 C465.266,83.67 464.734,83.67 464.274,83.455 C463.82,83.243 463.64,83.054 463.594,82.982 C463.737,83.205 463.91,83.526 464.387,84.447 L469.589,94.455 C470.004,95.251 470.106,95.436 470.37,95.806 C470.602,96.13 470.863,96.421 471.172,96.684 C471.854,97.263 472.671,97.654 473.545,97.821 C474.438,97.999 474.774,97.958 476.255,97.671 L487.323,95.495 C488.355,95.293 488.705,95.23 488.969,95.203 C488.885,95.211 488.628,95.189 488.181,94.968 C487.719,94.739 487.387,94.323 487.268,93.829 C487.151,93.347 487.186,93.087 487.214,93.005 C487.129,93.255 486.985,93.594 486.564,94.538 L481.984,104.842 C481.411,106.119 481.265,106.52 481.228,107.443 C481.199,108.363 481.401,109.243 481.814,110.03 C482.244,110.852 482.528,111.13 483.634,112.067 L492.228,119.357 C493.009,120.019 493.273,120.249 493.463,120.441 C493.436,120.413 493.32,120.247 493.203,119.825 C493.183,119.752 493.183,119.752 493.166,119.675 C493.063,119.197 493.181,118.679 493.493,118.278 C493.799,117.883 494.025,117.749 494.107,117.719 C493.858,117.809 493.506,117.907 492.502,118.167 L481.592,121.008 C480.218,121.365 479.815,121.502 479.069,122.056 C478.356,122.586 477.792,123.293 477.432,124.106 C477.076,124.897 477.015,125.399 476.975,126.585 C476.972,126.689 476.972,126.689 476.968,126.795 L476.628,138.067 C476.597,139.106 476.579,139.472 476.547,139.736 C476.557,139.652 476.637,139.406 476.954,139.017 C477.28,138.62 477.759,138.39 478.267,138.384 C478.753,138.375 479.002,138.469 479.079,138.516 C478.855,138.378 478.568,138.171 477.727,137.541 L468.706,130.783 C467.553,129.918 467.218,129.703 466.32,129.464 C465.454,129.234 464.546,129.234 463.683,129.463 C463.521,129.508 463.521,129.508 463.367,129.559 C462.621,129.814 462.379,129.976 461.303,130.776 L452.273,137.541 C451.415,138.182 451.142,138.379 450.918,138.517 C450.996,138.469 451.246,138.375 451.755,138.384 C452.247,138.391 452.724,138.621 453.045,139.013 C453.36,139.394 453.442,139.646 453.453,139.734 C453.421,139.472 453.403,139.107 453.372,138.071 L453.029,126.806 C452.989,125.393 452.946,124.968 452.573,124.117 C452.221,123.308 451.66,122.598 450.948,122.063 C450.44,121.69 449.959,121.466 449.393,121.283 C449.13,121.198 448.95,121.148 448.413,121.008 L437.501,118.168 C436.494,117.907 436.142,117.809 435.893,117.719 C435.975,117.749 436.201,117.883 436.508,118.28 C436.819,118.679 436.937,119.197 436.83,119.693 C436.812,119.77 436.812,119.77 436.793,119.842 C436.676,120.256 436.563,120.417 436.539,120.441 C436.731,120.249 436.99,120.022 437.774,119.355 L446.367,112.067 C447.244,111.318 447.432,111.145 447.805,110.639 C448.006,110.353 448.006,110.353 448.188,110.027 C448.599,109.243 448.801,108.363 448.774,107.475 C448.735,106.52 448.589,106.119 448.01,104.83 L443.442,94.544 C443.018,93.594 442.874,93.255 442.789,93.005 C442.817,93.087 442.852,93.347 442.734,93.834 C442.614,94.33 442.282,94.744 441.827,94.97 C441.389,95.189 441.126,95.213 441.038,95.204 C441.3,95.23 441.65,95.293 442.681,95.495 L453.738,97.669 C455.205,97.954 455.563,97.998 456.485,97.816 C457.341,97.651 458.154,97.26 458.83,96.686 C459.544,96.077 459.747,95.745 460.42,94.448 L465.614,84.45 C466.802,82.164 465.143,79.433 462.567,79.433 L462.563,79.433 L462.563,82.867 L465.61,84.452 Z M459.517,81.282 C458.327,83.568 459.986,86.301 462.563,86.301 L462.567,86.301 L462.567,82.867 L459.52,81.284 L454.324,91.284 C454.148,91.622 454.112,91.682 454.379,91.454 C454.606,91.262 454.877,91.131 455.167,91.075 C455.499,91.01 455.428,91.001 455.055,90.928 L444.005,88.756 C440.765,88.12 440.27,88.069 438.767,88.82 C437.415,89.49 436.419,90.735 436.06,92.214 C435.664,93.847 435.833,94.347 437.167,97.337 L441.739,107.631 C441.903,107.996 441.923,108.052 441.91,107.723 C441.899,107.395 441.967,107.101 442.104,106.839 C442.191,106.685 442.191,106.685 442.276,106.564 C442.36,106.45 442.26,106.542 441.916,106.836 L433.329,114.119 C430.948,116.142 430.603,116.488 430.183,117.975 C430.147,118.109 430.147,118.109 430.116,118.247 C429.795,119.736 430.15,121.29 431.084,122.493 C432.111,123.816 432.6,123.992 435.773,124.815 L446.681,127.655 C447.066,127.755 447.194,127.79 447.278,127.817 C447.203,127.793 447.051,127.722 446.853,127.577 C446.585,127.376 446.398,127.139 446.279,126.867 C446.146,126.564 446.153,126.624 446.163,127.006 L446.507,138.279 C446.606,141.559 446.669,142.076 447.74,143.374 C448.696,144.542 450.129,145.232 451.648,145.252 C453.319,145.281 453.707,145.043 456.387,143.041 L465.412,136.28 C465.738,136.038 465.833,135.974 465.593,136.056 C465.521,136.08 465.521,136.08 465.445,136.102 C465.152,136.179 464.848,136.179 464.559,136.102 C464.225,136.014 464.28,136.049 464.586,136.279 L473.609,143.038 C476.259,145.022 476.681,145.281 478.366,145.252 C479.868,145.235 481.305,144.544 482.27,143.367 C483.332,142.067 483.394,141.555 483.493,138.274 L483.833,127.01 C483.836,126.913 483.836,126.913 483.84,126.817 C483.848,126.578 483.846,126.588 483.705,126.903 C483.593,127.156 483.405,127.392 483.167,127.568 C482.895,127.77 482.954,127.75 483.321,127.655 L494.23,124.815 C497.4,123.992 497.889,123.816 498.918,122.491 C499.85,121.29 500.205,119.736 499.885,118.248 C499.858,118.128 499.858,118.128 499.822,117.992 C499.407,116.492 499.054,116.139 496.67,114.118 L488.075,106.829 C487.785,106.583 487.737,106.535 487.897,106.842 C488.033,107.101 488.101,107.395 488.091,107.691 C488.077,108.052 488.097,107.996 488.255,107.643 L492.838,97.332 C494.17,94.347 494.34,93.847 493.944,92.216 C493.589,90.739 492.593,89.49 491.226,88.812 C489.723,88.07 489.231,88.121 485.999,88.756 L474.941,90.93 C474.581,90.999 474.506,91.009 474.862,91.08 C475.122,91.129 475.395,91.259 475.621,91.451 C475.767,91.576 475.877,91.699 475.956,91.809 C475.966,91.823 475.9,91.703 475.681,91.284 L470.484,81.283 C468.979,78.38 468.698,77.942 467.181,77.232 C465.798,76.586 464.202,76.586 462.821,77.231 C462.262,77.492 461.791,77.851 461.381,78.288 C460.745,78.966 460.506,79.381 459.517,81.282 Z" />
        </g>
        <g id="Black-M" transform="translate(0,200)">
            <path d="M665.61,84.452 C666.183,83.352 666.395,82.982 666.389,82.989 C666.234,83.153 666.016,83.319 665.728,83.454 C665.266,83.67 664.734,83.67 664.274,83.455 C663.82,83.243 663.64,83.054 663.594,82.982 C663.737,83.205 663.91,83.526 664.387,84.447 L669.589,94.455 C670.004,95.251 670.106,95.436 670.37,95.806 C670.602,96.13 670.863,96.421 671.172,96.684 C671.854,97.263 672.671,97.654 673.545,97.821 C674.438,97.999 674.774,97.958 676.255,97.671 L687.323,95.495 C688.355,95.293 688.705,95.23 688.969,95.203 C688.885,95.211 688.628,95.189 688.181,94.968 C687.719,94.739 687.387,94.323 687.268,93.829 C687.151,93.347 687.186,93.087 687.214,93.005 C687.129,93.255 686.985,93.594 686.564,94.538 L681.984,104.842 C681.411,106.119 681.265,106.52 681.228,107.443 C681.199,108.363 681.401,109.243 681.814,110.03 C682.244,110.852 682.528,111.13 683.634,112.067 L692.228,119.357 C693.009,120.019 693.273,120.249 693.463,120.441 C693.436,120.413 693.32,120.247 693.203,119.825 C693.183,119.752 693.183,119.752 693.166,119.675 C693.063,119.197 693.181,118.679 693.493,118.278 C693.799,117.883 694.025,117.749 694.107,117.719 C693.858,117.809 693.506,117.907 692.502,118.167 L681.592,121.008 C680.218,121.365 679.815,121.502 679.069,122.056 C678.356,122.586 677.792,123.293 677.432,124.106 C677.076,124.897 677.015,125.399 676.975,126.585 C676.972,126.689 676.972,126.689 676.968,126.795 L676.628,138.067 C676.597,139.106 676.579,139.472 676.547,139.736 C676.557,139.652 676.637,139.406 676.954,139.017 C677.28,138.62 677.759,138.39 678.267,138.384 C678.753,138.375 679.002,138.469 679.079,138.516 C678.855,138.378 678.568,138.171 677.727,137.541 L668.706,130.783 C667.553,129.918 667.218,129.703 666.32,129.464 C665.454,129.234 664.546,129.234 663.683,129.463 C663.521,129.508 663.521,129.508 663.367,129.559 C662.621,129.814 662.379,129.976 661.303,130.776 L652.273,137.541 C651.415,138.182 651.142,138.379 650.918,138.517 C650.996,138.469 651.246,138.375 651.755,138.384 C652.247,138.391 652.724,138.621 653.045,139.013 C653.36,139.394 653.442,139.646 653.453,139.734 C653.421,139.472 653.403,139.107 653.372,138.071 L653.029,126.806 C652.989,125.393 652.946,124.968 652.573,124.117 C652.221,123.308 651.66,122.598 650.948,122.063 C650.44,121.69 649.959,121.466 649.393,121.283 C649.13,121.198 648.95,121.148 648.413,121.008 L637.501,118.168 C636.494,117.907 636.142,117.809 635.893,117.719 C635.975,117.749 636.201,117.883 636.508,118.28 C636.819,118.679 636.937,119.197 636.83,119.693 C636.812,119.77 636.812,119.77 636.793,119.842 C636.676,120.256 636.563,120.417 636.539,120.441 C636.731,120.249 636.99,120.022 637.774,119.355 L646.367,112.067 C647.244,111.318 647.432,111.145 647.805,110.639 C648.006,110.353 648.006,110.353 648.188,110.027 C648.599,109.243 648.801,108.363 648.774,107.475 C648.735,106.52 648.589,106.119 648.01,104.83 L643.442,94.544 C643.018,93.594 642.874,93.255 642.789,93.005 C642.817,93.087 642.852,93.347 642.734,93.834 C642.614,94.33 642.282,94.744 641.827,94.97 C641.389,95.189 641.126,95.213 641.038,95.204 C641.3,95.23 641.65,95.293 642.681,95.495 L653.738,97.669 C655.205,97.954 655.563,97.998 656.485,97.816 C657.341,97.651 658.154,97.26 658.83,96.686 C659.544,96.077 659.747,95.745 660.42,94.448 L665.614,84.45 C666.802,82.164 665.143,79.433 662.567,79.433 L662.563,79.433 L662.563,82.867 L665.61,84.452 Z M659.517,81.282 C658.327,83.568 659.986,86.301 662.563,86.301 L662.567,86.301 L662.567,82.867 L659.52,81.284 L654.324,91.284 C654.148,91.622 654.112,91.682 654.379,91.454 C654.606,91.262 654.877,91.131 655.167,91.075 C655.499,91.01 655.428,91.001 655.055,90.928 L644.005,88.756 C640.765,88.12 640.27,88.069 638.767,88.82 C637.415,89.49 636.419,90.735 636.06,92.214 C635.664,93.847 635.833,94.347 637.167,97.337 L641.739,107.631 C641.903,107.996 641.923,108.052 641.91,107.723 C641.899,107.395 641.967,107.101 642.104,106.839 C642.191,106.685 642.191,106.685 642.276,106.564 C642.36,106.45 642.26,106.542 641.916,106.836 L633.329,114.119 C630.948,116.142 630.603,116.488 630.183,117.975 C630.147,118.109 630.147,118.109 630.116,118.247 C629.795,119.736 630.15,121.29 631.084,122.493 C632.111,123.816 632.6,123.992 635.773,124.815 L646.681,127.655 C647.066,127.755 647.194,127.79 647.278,127.817 C647.203,127.793 647.051,127.722 646.853,127.577 C646.585,127.376 646.398,127.139 646.279,126.867 C646.146,126.564 646.153,126.624 646.163,127.006 L646.507,138.279 C646.606,141.559 646.669,142.076 647.74,143.374 C648.696,144.542 650.129,145.232 651.648,145.252 C653.319,145.281 653.707,145.043 656.387,143.041 L665.412,136.28 C665.738,136.038 665.833,135.974 665.593,136.056 C665.521,136.08 665.521,136.08 665.445,136.102 C665.152,136.179 664.848,136.179 664.559,136.102 C664.225,136.014 664.28,136.049 664.586,136.279 L673.609,143.038 C676.259,145.022 676.681,145.281 678.366,145.252 C679.868,145.235 681.305,144.544 682.27,143.367 C683.332,142.067 683.394,141.555 683.493,138.274 L683.833,127.01 C683.836,126.913 683.836,126.913 683.839,126.817 C683.848,126.578 683.846,126.588 683.705,126.903 C683.593,127.156 683.405,127.392 683.167,127.568 C682.895,127.77 682.954,127.75 683.321,127.655 L694.23,124.815 C697.4,123.992 697.889,123.816 698.917,122.491 C699.85,121.29 700.205,119.736 699.885,118.248 C699.858,118.128 699.858,118.128 699.822,117.992 C699.407,116.492 699.054,116.139 696.67,114.118 L688.075,106.829 C687.785,106.583 687.737,106.535 687.897,106.842 C688.033,107.101 688.101,107.395 688.091,107.691 C688.077,108.052 688.097,107.996 688.255,107.643 L692.838,97.332 C694.17,94.347 694.34,93.847 693.944,92.216 C693.589,90.739 692.593,89.49 691.226,88.812 C689.723,88.07 689.231,88.121 685.999,88.756 L674.941,90.93 C674.581,90.999 674.506,91.009 674.862,91.08 C675.122,91.129 675.395,91.259 675.621,91.451 C675.767,91.576 675.877,91.699 675.956,91.809 C675.966,91.823 675.9,91.703 675.681,91.284 L670.484,81.283 C668.979,78.38 668.698,77.942 667.181,77.232 C665.798,76.586 664.202,76.586 662.821,77.231 C662.262,77.492 661.791,77.851 661.381,78.288 C660.745,78.966 660.506,79.381 659.517,81.282 Z" />
        </g>
    </g>
</svg>