<?xml version="1.0" encoding="UTF-8"?>
<svg height="600" width="800" xmlns="http://www.w3.org/2000/svg" xmlns:xlink="http://www.w3.org/1999/xlink">
    <g id="Notes" font-family="LucidaGrande, 'Lucida Grande', sans-serif" font-size="13">
        <rect fill="white" height="600.0" width="800.0" x="0.0" y="0.0" />
        <g font-size="13">
            <text x="18.0" y="176.0">Small</text>
            <text x="18.0" y="376.0">Medium</text>
            <text x="18.0" y="576.0">Large</text>
        </g>
        <g font-size="9">
            <text x="250.0" y="30.0">Ultralight</text>
            <text x="450.0" y="30.0">Regular</text>
            <text x="650.0" y="30.0">Black</text>
            <text id="template-version" fill="#505050" text-anchor="end" x="785.0" y="575.0">Template v.3.0</text>
            <a href="https://github.com/swhitty/SwiftDraw">
                <text fill="#505050" text-anchor="end" x="785.0" y="590.0">https://github.com/swhitty/SwiftDraw</text>
            </a>
        </g>
    </g>
    <g id="Guides" stroke="rgb(39, 170, 225)" stroke-width="0.5">
        <path id="Capline-S" d="M18,76 l800,0" />
        <path id="H-reference" d="M85,145.755 L87.685,145.755 L113.369,79.287 L114.052,79.287 L114.052,76 L112.148,76 L85,145.755 Z M95.693,121.536 L130.996,121.536 L130.263,119.313 L96.474,119.313 L95.693,121.536 Z M139.15,145.755 L141.787,145.755 L114.638,76 L113.466,76 L113.466,79.287 L139.15,145.755 Z" stroke="none" transform="translate(0,200)" />
        <path id="Baseline-S" d="M18,146 l800,0" />
        <path id="left-margin-Ultralight-M" d="M230,256 l0,110" />
        <path id="right-margin-Ultralight-M" d="M300,256 l0,110" />
        <path id="left-margin-Regular-M" d="M430,256 l0,110" />
        <path id="right-margin-Regular-M" d="M500,256 l0,110" />
        <path id="left-margin-Black-M" d="M630,256 l0,110" />
        <path id="right-margin-Black-M" d="M700,256 l0,110" />
        <path id="Capline-M" d="M18,276 l800,0" />
        <path id="Baseline-M" d="M18,346 l800,0" />
        <path id="Capline-L" d="M18,476 l800,0" />
        <path id="Baseline-L" d="M18,546 l800,0" />
    </g>
    <g id="Symbols">
        <g id="Ultralight-M" transform="translate(0,200)">
            <path d="M279,79.889 L279,142.111 C279,144.259 280.567,146 282.5,146 C284.433,146 286,144.259 286,142.111 L286,79.889 C286,77.741 284.433,76 282.5,76 C280.567,76 279,77.741 279,79.889 Z M284.975,139.361 L270.975,123.806 C269.608,122.287 267.392,122.287 266.025,123.806 C264.658,125.324 264.658,127.787 266.025,129.305 L280.025,144.861 C281.392,146.38 283.608,146.38 284.975,144.861 C286.342,143.342 286.342,140.88 284.975,139.361 Z M284.975,144.861 L298.975,129.305 C300.342,127.787 300.342,125.324 298.975,123.806 C297.608,122.287 295.392,122.287 294.025,123.806 L280.025,139.361 C278.658,140.88 278.658,143.342 280.025,144.861 C281.392,146.38 283.608,146.38 284.975,144.861 Z M251,142.111 L251,79.889 C251,77.741 249.433,76 247.5,76 C245.567,76 244,77.741 244,79.889 L244,142.111 C244,144.259 245.567,146 247.5,146 C249.433,146 251,144.259 251,142.111 Z M245.025,77.139 L231.025,92.695 C229.658,94.213 229.658,96.676 231.025,98.194 C232.392,99.713 234.608,99.713 235.975,98.194 L249.975,82.639 C251.342,81.12 251.342,78.658 249.975,77.139 C248.608,75.62 246.392,75.62 245.025,77.139 Z M245.025,82.639 L259.025,98.194 C260.392,99.713 262.608,99.713 263.975,98.194 C265.342,96.676 265.342,94.213 263.975,92.695 L249.975,77.139 C248.608,75.62 246.392,75.62 245.025,77.139 C243.658,78.658 243.658,81.12 245.025,82.639 Z" />
        </g>
        <g id="Regular-M" transform="translate(0,200)">
            <path d="M479,79.889 L479,142.111 C479,144.259 480.567,146 482.5,146 C484.433,146 486,144.259 486,142.111 L486,79.889 C486,77.741 484.433,76 482.5,76 C480.567,76 479,77.741 479,79.889 Z M484.975,139.361 L470.975,123.806 C469.608,122.287 467.392,122.287 466.025,123.806 C464.658,125.324 464.658,127.787 466.025,129.305 L480.025,144.861 C481.392,146.38 483.608,146.38 484.975,144.861 C486.342,143.342 486.342,140.88 484.975,139.361 Z M484.975,144.861 L498.975,129.305 C500.342,127.787 500.342,125.324 498.975,123.806 C497.608,122.287 495.392,122.287 494.025,123.806 L480.025,139.361 C478.658,140.88 478.658,143.342 480.025,144.861 C481.392,146.38 483.608,146.38 484.975,144.861 Z M451,142.111 L451,79.889 C451,77.741 449.433,76 447.5,76 C445.567,76 444,77.741 444,79.889 L444,142.111 C444,144.259 445.567,146 447.5,146 C449.433,146 451,144.259 451,142.111 Z M445.025,77.139 L431.025,92.695 C429.658,94.213 429.658,96.676 431.025,98.194 C432.392,99.713 434.608,99.713 435.975,98.194 L449.975,82.639 C451.342,81.12 451.342,78.658 449.975,77.139 C448.608,75.62 446.392,75.62 445.025,77.139 Z M445.025,82.639 L459.025,98.194 C460.392,99.713 462.608,99.713 463.975,98.194 C465.342,96.676 465.342,94.213 463.975,92.695 L449.975,77.139 C448.608,75.62 446.392,75.62 445.025,77.139 C443.658,78.658 443.658,81.12 445.025,82.639 Z" />
        </g>
        <g id="Black-M" transform="translate(0,200)">
            <path d="M679,79.889 L679,142.111 C679,144.259 680.567,146 682.5,146 C684.433,146 686,144.259 686,142.111 L686,79.889 C686,77.741 684.433,76 682.5,76 C680.567,76 679,77.741 679,79.889 Z M684.975,139.361 L670.975,123.806 C669.608,122.287 667.392,122.287 666.025,123.806 C664.658,125.324 664.658,127.787 666.025,129.305 L680.025,144.861 C681.392,146.38 683.608,146.38 684.975,144.861 C686.342,143.342 686.342,140.88 684.975,139.361 Z M684.975,144.861 L698.975,129.305 C700.342,127.787 700.342,125.324 698.975,123.806 C697.608,122.287 695.392,122.287 694.025,123.806 L680.025,139.361 C678.658,140.88 678.658,143.342 680.025,144.861 C681.392,146.38 683.608,146.38 684.975,144.861 Z M651,142.111 L651,79.889 C651,77.741 649.433,76 647.5,76 C645.567,76 644,77.741 644,79.889 L644,142.111 C644,144.259 645.567,146 647.5,146 C649.433,146 651,144.259 651,142.111 Z M645.025,77.139 L631.025,92.695 C629.658,94.213 629.658,96.676 631.025,98.194 C632.392,99.713 634.608,99.713 635.975,98.194 L649.975,82.639 C651.342,81.12 651.342,78.658 649.975,77.139 C648.608,75.62 646.392,75.62 645.025,77.139 Z M645.025,82.639 L659.025,98.194 C660.392,99.713 662.608,99.713 663.975,98.194 C665.342,96.676 665.342,94.213 663.975,92.695 L649.975,77.139 C648.608,75.62 646.392,75.62 645.025,77.139 C643.658,78.658 643.658,81.12 645.025,82.639 Z" />
        </g>
    </g>
</svg>