<?xml version="1.0" encoding="UTF-8"?>
<svg height="600" width="800" xmlns="http://www.w3.org/2000/svg" xmlns:xlink="http://www.w3.org/1999/xlink">
    <g id="Notes" font-family="LucidaGrande, 'Lucida Grande', sans-serif" font-size="13">
        <rect fill="white" height="600.0" width="800.0" x="0.0" y="0.0" />
        <g font-size="13">
            <text x="18.0" y="176.0">Small</text>
            <text x="18.0" y="376.0">Medium</text>
            <text x="18.0" y="576.0">Large</text>
        </g>
        <g font-size="9">
            <text x="250.0" y="30.0">Ultralight</text>
            <text x="450.0" y="30.0">Regular</text>
            <text x="650.0" y="30.0">Black</text>
            <text id="template-version" fill="#505050" text-anchor="end" x="785.0" y="575.0">Template v.3.0</text>
            <a href="https://github.com/swhitty/SwiftDraw">
                <text fill="#505050" text-anchor="end" x="785.0" y="590.0">https://github.com/swhitty/SwiftDraw</text>
            </a>
        </g>
    </g>
    <g id="Guides" stroke="rgb(39, 170, 225)" stroke-width="0.5">
        <path id="Capline-S" d="M18,76 l800,0" />
        <path id="H-reference" d="M85,145.755 L87.685,145.755 L113.369,79.287 L114.052,79.287 L114.052,76 L112.148,76 L85,145.755 Z M95.693,121.536 L130.996,121.536 L130.263,119.313 L96.474,119.313 L95.693,121.536 Z M139.15,145.755 L141.787,145.755 L114.638,76 L113.466,76 L113.466,79.287 L139.15,145.755 Z" stroke="none" transform="translate(0,200)" />
        <path id="Baseline-S" d="M18,146 l800,0" />
        <path id="left-margin-Ultralight-M" d="M230,256 l0,110" />
        <path id="right-margin-Ultralight-M" d="M300,256 l0,110" />
        <path id="left-margin-Regular-M" d="M430,256 l0,110" />
        <path id="right-margin-Regular-M" d="M500,256 l0,110" />
        <path id="left-margin-Black-M" d="M630,256 l0,110" />
        <path id="right-margin-Black-M" d="M700,256 l0,110" />
        <path id="Capline-M" d="M18,276 l800,0" />
        <path id="Baseline-M" d="M18,346 l800,0" />
        <path id="Capline-L" d="M18,476 l800,0" />
        <path id="Baseline-L" d="M18,546 l800,0" />
    </g>
    <g id="Symbols">
        <g id="Ultralight-M" transform="translate(0,200)">
            <path d="M233.889,132 L296.111,132 C298.259,132 300,130.433 300,128.5 C300,126.567 298.259,125 296.111,125 L233.889,125 C231.741,125 230,126.567 230,128.5 C230,130.433 231.741,132 233.889,132 Z M298.861,126.025 L283.305,112.025 C281.787,110.658 279.324,110.658 277.806,112.025 C276.287,113.392 276.287,115.608 277.806,116.975 L293.361,130.975 C294.88,132.342 297.342,132.342 298.861,130.975 C300.38,129.608 300.38,127.392 298.861,126.025 Z M293.361,126.025 L277.806,140.025 C276.287,141.392 276.287,143.608 277.806,144.975 C279.324,146.342 281.787,146.342 283.305,144.975 L298.861,130.975 C300.38,129.608 300.38,127.392 298.861,126.025 C297.342,124.658 294.88,124.658 293.361,126.025 Z M296.111,90 L233.889,90 C231.741,90 230,91.567 230,93.5 C230,95.433 231.741,97 233.889,97 L296.111,97 C298.259,97 300,95.433 300,93.5 C300,91.567 298.259,90 296.111,90 Z M236.639,95.975 L252.194,81.975 C253.713,80.608 253.713,78.392 252.194,77.025 C250.676,75.658 248.213,75.658 246.695,77.025 L231.139,91.025 C229.62,92.392 229.62,94.608 231.139,95.975 C232.658,97.342 235.12,97.342 236.639,95.975 Z M231.139,95.975 L246.695,109.975 C248.213,111.342 250.676,111.342 252.194,109.975 C253.713,108.608 253.713,106.392 252.194,105.025 L236.639,91.025 C235.12,89.658 232.658,89.658 231.139,91.025 C229.62,92.392 229.62,94.608 231.139,95.975 Z" />
        </g>
        <g id="Regular-M" transform="translate(0,200)">
            <path d="M433.889,132 L496.111,132 C498.259,132 500,130.433 500,128.5 C500,126.567 498.259,125 496.111,125 L433.889,125 C431.741,125 430,126.567 430,128.5 C430,130.433 431.741,132 433.889,132 Z M498.861,126.025 L483.305,112.025 C481.787,110.658 479.324,110.658 477.806,112.025 C476.287,113.392 476.287,115.608 477.806,116.975 L493.361,130.975 C494.88,132.342 497.342,132.342 498.861,130.975 C500.38,129.608 500.38,127.392 498.861,126.025 Z M493.361,126.025 L477.806,140.025 C476.287,141.392 476.287,143.608 477.806,144.975 C479.324,146.342 481.787,146.342 483.305,144.975 L498.861,130.975 C500.38,129.608 500.38,127.392 498.861,126.025 C497.342,124.658 494.88,124.658 493.361,126.025 Z M496.111,90 L433.889,90 C431.741,90 430,91.567 430,93.5 C430,95.433 431.741,97 433.889,97 L496.111,97 C498.259,97 500,95.433 500,93.5 C500,91.567 498.259,90 496.111,90 Z M436.639,95.975 L452.194,81.975 C453.713,80.608 453.713,78.392 452.194,77.025 C450.676,75.658 448.213,75.658 446.695,77.025 L431.139,91.025 C429.62,92.392 429.62,94.608 431.139,95.975 C432.658,97.342 435.12,97.342 436.639,95.975 Z M431.139,95.975 L446.695,109.975 C448.213,111.342 450.676,111.342 452.194,109.975 C453.713,108.608 453.713,106.392 452.194,105.025 L436.639,91.025 C435.12,89.658 432.658,89.658 431.139,91.025 C429.62,92.392 429.62,94.608 431.139,95.975 Z" />
        </g>
        <g id="Black-M" transform="translate(0,200)">
            <path d="M633.889,132 L696.111,132 C698.259,132 700,130.433 700,128.5 C700,126.567 698.259,125 696.111,125 L633.889,125 C631.741,125 630,126.567 630,128.5 C630,130.433 631.741,132 633.889,132 Z M698.861,126.025 L683.305,112.025 C681.787,110.658 679.324,110.658 677.806,112.025 C676.287,113.392 676.287,115.608 677.806,116.975 L693.361,130.975 C694.88,132.342 697.342,132.342 698.861,130.975 C700.38,129.608 700.38,127.392 698.861,126.025 Z M693.361,126.025 L677.806,140.025 C676.287,141.392 676.287,143.608 677.806,144.975 C679.324,146.342 681.787,146.342 683.305,144.975 L698.861,130.975 C700.38,129.608 700.38,127.392 698.861,126.025 C697.342,124.658 694.88,124.658 693.361,126.025 Z M696.111,90 L633.889,90 C631.741,90 630,91.567 630,93.5 C630,95.433 631.741,97 633.889,97 L696.111,97 C698.259,97 700,95.433 700,93.5 C700,91.567 698.259,90 696.111,90 Z M636.639,95.975 L652.194,81.975 C653.713,80.608 653.713,78.392 652.194,77.025 C650.676,75.658 648.213,75.658 646.695,77.025 L631.139,91.025 C629.62,92.392 629.62,94.608 631.139,95.975 C632.658,97.342 635.12,97.342 636.639,95.975 Z M631.139,95.975 L646.695,109.975 C648.213,111.342 650.676,111.342 652.194,109.975 C653.713,108.608 653.713,106.392 652.194,105.025 L636.639,91.025 C635.12,89.658 632.658,89.658 631.139,91.025 C629.62,92.392 629.62,94.608 631.139,95.975 Z" />
        </g>
    </g>
</svg>