<?xml version="1.0" encoding="UTF-8"?>
<svg height="600" width="800" xmlns="http://www.w3.org/2000/svg" xmlns:xlink="http://www.w3.org/1999/xlink">
    <g id="Notes" font-family="LucidaGrande, 'Lucida Grande', sans-serif" font-size="13">
        <rect fill="white" height="600.0" width="800.0" x="0.0" y="0.0" />
        <g font-size="13">
            <text x="18.0" y="176.0">Small</text>
            <text x="18.0" y="376.0">Medium</text>
            <text x="18.0" y="576.0">Large</text>
        </g>
        <g font-size="9">
            <text x="250.0" y="30.0">Ultralight</text>
            <text x="450.0" y="30.0">Regular</text>
            <text x="650.0" y="30.0">Black</text>
            <text id="template-version" fill="#505050" text-anchor="end" x="785.0" y="575.0">Template v.3.0</text>
            <a href="https://github.com/swhitty/SwiftDraw">
                <text fill="#505050" text-anchor="end" x="785.0" y="590.0">https://github.com/swhitty/SwiftDraw</text>
            </a>
        </g>
    </g>
    <g id="Guides" stroke="rgb(39, 170, 225)" stroke-width="0.5">
        <path id="Capline-S" d="M18,76 l800,0" />
        <path id="H-reference" d="M85,145.755 L87.685,145.755 L113.369,79.287 L114.052,79.287 L114.052,76 L112.148,76 L85,145.755 Z M95.693,121.536 L130.996,121.536 L130.263,119.313 L96.474,119.313 L95.693,121.536 Z M139.15,145.755 L141.787,145.755 L114.638,76 L113.466,76 L113.466,79.287 L139.15,145.755 Z" stroke="none" transform="translate(0,200)" />
        <path id="Baseline-S" d="M18,146 l800,0" />
        <path id="left-margin-Ultralight-M" d="M230,256 l0,110" />
        <path id="right-margin-Ultralight-M" d="M300,256 l0,110" />
        <path id="left-margin-Regular-M" d="M430,256 l0,110" />
        <path id="right-margin-Regular-M" d="M500,256 l0,110" />
        <path id="left-margin-Black-M" d="M630,256 l0,110" />
        <path id="right-margin-Black-M" d="M700,256 l0,110" />
        <path id="Capline-M" d="M18,276 l800,0" />
        <path id="Baseline-M" d="M18,346 l800,0" />
        <path id="Capline-L" d="M18,476 l800,0" />
        <path id="Baseline-L" d="M18,546 l800,0" />
    </g>
    <g id="Symbols">
        <g id="Ultralight-M" transform="translate(0,200)">
            <path d="M265.863,120.941 L280.09,141.81 C280.997,143.141 282.812,143.484 284.143,142.577 C285.474,141.669 285.817,139.855 284.91,138.524 L270.682,117.655 C269.775,116.324 267.96,115.981 266.63,116.888 C265.299,117.795 264.955,119.61 265.863,120.941 Z M259.321,117.655 L245.09,138.523 C244.183,139.854 244.526,141.669 245.857,142.576 C247.188,143.484 249.002,143.141 249.91,141.81 L264.14,120.941 C265.048,119.61 264.704,117.796 263.374,116.888 C262.043,115.981 260.228,116.324 259.321,117.655 Z M267.917,114.5 C267.917,116.111 266.611,117.417 265,117.417 C263.389,117.417 262.083,116.111 262.083,114.5 C262.083,112.889 263.389,111.583 265,111.583 C266.611,111.583 267.917,112.889 267.917,114.5 Z M273.75,114.5 C273.75,109.668 269.832,105.75 265,105.75 C260.168,105.75 256.25,109.668 256.25,114.5 C256.25,119.332 260.168,123.25 265,123.25 C269.832,123.25 273.75,119.332 273.75,114.5 Z M279.263,86.401 L244.893,95.612 C243.365,96.019 242.983,96.156 242.254,96.811 C241.57,97.425 241.095,98.243 240.901,99.145 C240.695,100.116 240.766,100.506 241.181,102.046 L243.746,111.621 C244.149,113.129 244.289,113.521 244.935,114.247 C245.571,114.951 246.392,115.423 247.296,115.613 C248.246,115.816 248.613,115.75 250.171,115.336 L284.547,106.123 C286.103,105.706 287.026,104.107 286.609,102.551 L282.835,88.464 C282.418,86.908 280.819,85.984 279.263,86.401 Z M280.773,92.036 L277.201,89.973 L280.975,104.061 L283.037,100.489 L248.667,109.699 C248.217,109.819 248.065,109.857 247.972,109.874 C248.066,109.857 248.248,109.851 248.506,109.906 C248.798,109.968 249.072,110.125 249.279,110.354 C249.463,110.561 249.546,110.715 249.576,110.8 C249.544,110.71 249.497,110.548 249.382,110.114 L246.814,100.533 C246.693,100.084 246.654,99.926 246.637,99.833 C246.654,99.927 246.659,100.109 246.605,100.364 C246.539,100.674 246.38,100.947 246.151,101.152 C245.959,101.325 245.801,101.41 245.712,101.442 C245.801,101.41 245.961,101.364 246.399,101.247 L280.773,92.036 Z M292.808,100.891 C289.44,101.794 288.603,101.946 288.06,101.831 C287.463,101.704 286.917,101.389 286.505,100.931 C286.319,100.725 286.127,100.35 285.868,99.579 C285.646,98.919 285.466,98.279 284.95,96.353 L284.494,94.659 C283.592,91.295 283.44,90.457 283.554,89.917 C283.681,89.32 283.997,88.773 284.454,88.361 C284.662,88.174 285.038,87.981 285.81,87.721 C286.471,87.498 287.13,87.313 289.033,86.803 C289.497,86.679 289.641,86.643 289.735,86.626 C289.64,86.643 289.457,86.649 289.194,86.593 C288.895,86.529 288.621,86.371 288.415,86.142 C288.227,85.93 288.149,85.779 288.128,85.715 C288.163,85.818 288.204,85.964 288.32,86.395 L292.397,101.605 C292.515,102.048 292.554,102.205 292.571,102.298 C292.554,102.205 292.548,102.024 292.604,101.766 C292.665,101.474 292.822,101.2 293.051,100.993 C293.271,100.798 293.421,100.721 293.484,100.699 C293.381,100.734 293.241,100.774 292.802,100.893 Z M294.324,106.524 C294.905,106.367 295.089,106.315 295.357,106.224 C295.968,106.017 296.468,105.76 296.944,105.337 C297.648,104.701 298.12,103.88 298.31,102.976 C298.513,102.026 298.444,101.644 298.032,100.098 L293.953,84.882 C293.798,84.305 293.743,84.111 293.651,83.84 C293.444,83.23 293.187,82.73 292.765,82.255 C292.137,81.555 291.316,81.081 290.41,80.888 C289.451,80.683 289.107,80.746 287.526,81.168 C285.483,81.715 284.774,81.915 283.948,82.193 C282.486,82.685 281.446,83.22 280.549,84.028 C279.179,85.262 278.232,86.901 277.848,88.707 C277.455,90.569 277.657,91.682 278.86,96.171 L279.316,97.865 C279.869,99.928 280.062,100.614 280.338,101.438 C280.83,102.9 281.363,103.94 282.172,104.836 C283.406,106.207 285.044,107.154 286.851,107.538 C288.716,107.931 289.83,107.728 294.318,106.526 Z M240.972,114.78 L244.912,113.724 C246.462,113.305 246.825,113.174 247.551,112.522 C248.236,111.908 248.71,111.09 248.905,110.188 C249.111,109.221 249.038,108.82 248.624,107.287 L247.57,103.351 C247.411,102.762 247.361,102.587 247.272,102.321 C247.06,101.694 246.797,101.183 246.355,100.698 C245.754,100.027 244.936,99.552 244.034,99.358 C243.066,99.151 242.666,99.224 241.133,99.639 L237.196,100.693 C236.607,100.852 236.433,100.901 236.167,100.991 C235.54,101.203 235.029,101.466 234.544,101.907 C233.873,102.509 233.398,103.327 233.204,104.229 C232.997,105.196 233.07,105.597 233.484,107.13 L234.538,111.066 C234.698,111.655 234.747,111.829 234.837,112.095 C235.049,112.723 235.312,113.234 235.753,113.719 C236.355,114.39 237.172,114.864 238.075,115.059 C239.042,115.265 239.443,115.192 240.975,114.778 L240.214,111.963 L240.214,114.879 L240.217,114.879 C240.472,114.879 240.726,114.846 240.972,114.78 Z M239.462,109.145 L240.217,111.963 L240.217,109.046 L240.214,109.046 C239.957,109.046 239.701,109.08 239.453,109.147 C239.016,109.265 238.854,109.306 238.762,109.323 C238.857,109.305 239.039,109.3 239.298,109.355 C239.604,109.421 239.876,109.579 240.082,109.808 C240.259,110.004 240.34,110.161 240.364,110.229 C240.329,110.126 240.291,109.992 240.171,109.55 L239.117,105.614 C238.997,105.17 238.957,105.009 238.94,104.916 C238.957,105.011 238.963,105.193 238.907,105.452 C238.842,105.758 238.683,106.03 238.454,106.236 C238.259,106.414 238.102,106.495 238.033,106.518 C238.136,106.483 238.271,106.445 238.712,106.326 L242.649,105.272 C243.092,105.152 243.254,105.111 243.347,105.094 C243.251,105.111 243.069,105.117 242.81,105.061 C242.505,104.996 242.232,104.837 242.027,104.608 C241.849,104.413 241.768,104.256 241.745,104.187 C241.78,104.29 241.818,104.425 241.937,104.866 L242.991,108.803 C243.111,109.246 243.152,109.408 243.169,109.501 C243.151,109.406 243.146,109.223 243.201,108.964 C243.267,108.659 243.425,108.386 243.654,108.181 C243.846,108.009 244.003,107.924 244.09,107.893 C244,107.925 243.844,107.97 243.396,108.091 L239.462,109.145 Z" />
        </g>
        <g id="Regular-M" transform="translate(0,200)">
            <path d="M465.863,120.941 L480.09,141.81 C480.997,143.141 482.812,143.484 484.143,142.577 C485.474,141.669 485.817,139.855 484.91,138.524 L470.682,117.655 C469.775,116.324 467.96,115.981 466.63,116.888 C465.299,117.795 464.955,119.61 465.863,120.941 Z M459.321,117.655 L445.09,138.523 C444.183,139.854 444.526,141.669 445.857,142.576 C447.188,143.484 449.002,143.141 449.91,141.81 L464.14,120.941 C465.048,119.61 464.704,117.796 463.374,116.888 C462.043,115.981 460.228,116.324 459.321,117.655 Z M467.917,114.5 C467.917,116.111 466.611,117.417 465,117.417 C463.389,117.417 462.083,116.111 462.083,114.5 C462.083,112.889 463.389,111.583 465,111.583 C466.611,111.583 467.917,112.889 467.917,114.5 Z M473.75,114.5 C473.75,109.668 469.832,105.75 465,105.75 C460.168,105.75 456.25,109.668 456.25,114.5 C456.25,119.332 460.168,123.25 465,123.25 C469.832,123.25 473.75,119.332 473.75,114.5 Z M479.263,86.401 L444.893,95.612 C443.365,96.019 442.983,96.156 442.254,96.811 C441.57,97.425 441.095,98.243 440.901,99.145 C440.695,100.116 440.766,100.506 441.181,102.046 L443.746,111.621 C444.149,113.129 444.289,113.521 444.935,114.247 C445.571,114.951 446.392,115.423 447.296,115.613 C448.246,115.816 448.613,115.75 450.171,115.336 L484.547,106.123 C486.103,105.706 487.026,104.107 486.609,102.551 L482.835,88.464 C482.418,86.908 480.819,85.984 479.263,86.401 Z M480.773,92.036 L477.201,89.973 L480.975,104.061 L483.037,100.489 L448.667,109.699 C448.217,109.819 448.065,109.857 447.972,109.874 C448.066,109.857 448.248,109.851 448.506,109.906 C448.798,109.968 449.072,110.125 449.279,110.354 C449.463,110.561 449.546,110.715 449.576,110.8 C449.544,110.71 449.497,110.548 449.382,110.114 L446.814,100.533 C446.693,100.084 446.654,99.926 446.637,99.833 C446.654,99.927 446.659,100.109 446.605,100.364 C446.539,100.674 446.38,100.947 446.151,101.152 C445.959,101.325 445.801,101.41 445.712,101.442 C445.801,101.41 445.961,101.364 446.399,101.247 L480.773,92.036 Z M492.808,100.891 C489.44,101.794 488.603,101.946 488.06,101.831 C487.463,101.704 486.917,101.389 486.505,100.931 C486.319,100.725 486.127,100.35 485.868,99.579 C485.646,98.919 485.466,98.279 484.95,96.353 L484.494,94.659 C483.592,91.295 483.44,90.457 483.554,89.917 C483.681,89.32 483.997,88.773 484.454,88.361 C484.662,88.174 485.038,87.981 485.81,87.721 C486.471,87.498 487.13,87.313 489.033,86.803 C489.497,86.679 489.641,86.643 489.735,86.626 C489.64,86.643 489.457,86.649 489.194,86.593 C488.895,86.529 488.621,86.371 488.415,86.142 C488.227,85.93 488.149,85.779 488.128,85.715 C488.163,85.818 488.204,85.964 488.32,86.395 L492.397,101.605 C492.515,102.048 492.554,102.205 492.571,102.298 C492.554,102.205 492.548,102.024 492.604,101.766 C492.665,101.474 492.822,101.2 493.051,100.993 C493.271,100.798 493.421,100.721 493.484,100.699 C493.381,100.734 493.241,100.774 492.802,100.893 Z M494.324,106.524 C494.905,106.367 495.089,106.315 495.357,106.224 C495.968,106.017 496.468,105.76 496.944,105.337 C497.648,104.701 498.12,103.88 498.31,102.976 C498.513,102.026 498.444,101.644 498.032,100.098 L493.953,84.882 C493.798,84.305 493.743,84.111 493.651,83.84 C493.444,83.23 493.187,82.73 492.765,82.255 C492.137,81.555 491.316,81.081 490.41,80.888 C489.451,80.683 489.107,80.746 487.526,81.168 C485.483,81.715 484.774,81.915 483.948,82.193 C482.486,82.685 481.446,83.22 480.549,84.028 C479.179,85.262 478.232,86.901 477.848,88.707 C477.455,90.569 477.657,91.682 478.86,96.171 L479.316,97.865 C479.869,99.928 480.062,100.614 480.338,101.438 C480.83,102.9 481.363,103.94 482.172,104.836 C483.406,106.207 485.044,107.154 486.851,107.538 C488.716,107.931 489.83,107.728 494.318,106.526 Z M440.972,114.78 L444.912,113.724 C446.462,113.305 446.825,113.174 447.551,112.522 C448.236,111.908 448.71,111.09 448.905,110.188 C449.111,109.221 449.038,108.82 448.624,107.287 L447.57,103.351 C447.411,102.762 447.361,102.587 447.272,102.321 C447.06,101.694 446.797,101.183 446.355,100.698 C445.754,100.027 444.936,99.552 444.034,99.358 C443.066,99.151 442.666,99.224 441.133,99.639 L437.196,100.693 C436.607,100.852 436.433,100.901 436.167,100.991 C435.54,101.203 435.029,101.466 434.544,101.907 C433.873,102.509 433.398,103.327 433.204,104.229 C432.997,105.196 433.07,105.597 433.484,107.13 L434.538,111.066 C434.698,111.655 434.747,111.829 434.837,112.095 C435.049,112.723 435.312,113.234 435.753,113.719 C436.355,114.39 437.172,114.864 438.075,115.059 C439.042,115.265 439.443,115.192 440.975,114.778 L440.214,111.963 L440.214,114.879 L440.217,114.879 C440.472,114.879 440.726,114.846 440.972,114.78 Z M439.462,109.145 L440.217,111.963 L440.217,109.046 L440.214,109.046 C439.957,109.046 439.701,109.08 439.453,109.147 C439.016,109.265 438.854,109.306 438.762,109.323 C438.857,109.305 439.039,109.3 439.298,109.355 C439.604,109.421 439.876,109.579 440.082,109.808 C440.259,110.004 440.34,110.161 440.364,110.229 C440.329,110.126 440.291,109.992 440.171,109.55 L439.117,105.614 C438.997,105.17 438.957,105.009 438.94,104.916 C438.957,105.011 438.963,105.193 438.907,105.452 C438.842,105.758 438.683,106.03 438.454,106.236 C438.259,106.414 438.102,106.495 438.033,106.518 C438.136,106.483 438.271,106.445 438.712,106.326 L442.649,105.272 C443.092,105.152 443.254,105.111 443.347,105.094 C443.251,105.111 443.069,105.117 442.81,105.061 C442.505,104.996 442.232,104.837 442.027,104.608 C441.849,104.413 441.768,104.256 441.745,104.187 C441.78,104.29 441.818,104.425 441.937,104.866 L442.991,108.803 C443.111,109.246 443.152,109.408 443.169,109.501 C443.151,109.406 443.146,109.223 443.201,108.964 C443.267,108.659 443.425,108.386 443.654,108.181 C443.846,108.009 444.003,107.924 444.09,107.893 C444,107.925 443.844,107.97 443.396,108.091 L439.462,109.145 Z" />
        </g>
        <g id="Black-M" transform="translate(0,200)">
            <path d="M665.863,120.941 L680.09,141.81 C680.997,143.141 682.812,143.484 684.143,142.577 C685.474,141.669 685.817,139.855 684.91,138.524 L670.682,117.655 C669.775,116.324 667.96,115.981 666.63,116.888 C665.299,117.795 664.955,119.61 665.863,120.941 Z M659.321,117.655 L645.09,138.523 C644.183,139.854 644.526,141.669 645.857,142.576 C647.188,143.484 649.002,143.141 649.91,141.81 L664.14,120.941 C665.048,119.61 664.704,117.796 663.374,116.888 C662.043,115.981 660.228,116.324 659.321,117.655 Z M667.917,114.5 C667.917,116.111 666.611,117.417 665,117.417 C663.389,117.417 662.083,116.111 662.083,114.5 C662.083,112.889 663.389,111.583 665,111.583 C666.611,111.583 667.917,112.889 667.917,114.5 Z M673.75,114.5 C673.75,109.668 669.833,105.75 665,105.75 C660.167,105.75 656.25,109.668 656.25,114.5 C656.25,119.332 660.167,123.25 665,123.25 C669.833,123.25 673.75,119.332 673.75,114.5 Z M679.263,86.401 L644.893,95.612 C643.365,96.019 642.983,96.156 642.254,96.811 C641.57,97.425 641.095,98.243 640.901,99.145 C640.695,100.116 640.766,100.506 641.181,102.046 L643.746,111.621 C644.149,113.129 644.289,113.521 644.935,114.247 C645.571,114.951 646.392,115.423 647.296,115.613 C648.246,115.816 648.613,115.75 650.171,115.336 L684.547,106.123 C686.103,105.706 687.026,104.107 686.609,102.551 L682.835,88.464 C682.418,86.908 680.819,85.984 679.263,86.401 Z M680.773,92.036 L677.201,89.973 L680.975,104.061 L683.037,100.489 L648.667,109.699 C648.217,109.819 648.065,109.857 647.972,109.874 C648.066,109.857 648.248,109.851 648.506,109.906 C648.798,109.968 649.072,110.125 649.279,110.354 C649.463,110.561 649.546,110.715 649.576,110.8 C649.544,110.71 649.497,110.548 649.382,110.114 L646.814,100.533 C646.693,100.084 646.654,99.926 646.637,99.833 C646.654,99.927 646.659,100.109 646.605,100.364 C646.539,100.674 646.38,100.947 646.151,101.152 C645.959,101.325 645.801,101.41 645.712,101.442 C645.801,101.41 645.961,101.364 646.399,101.247 L680.773,92.036 Z M692.808,100.891 C689.44,101.794 688.603,101.946 688.06,101.831 C687.463,101.704 686.917,101.389 686.505,100.931 C686.319,100.725 686.127,100.35 685.868,99.579 C685.646,98.919 685.466,98.279 684.95,96.353 L684.494,94.659 C683.592,91.295 683.44,90.457 683.554,89.917 C683.681,89.32 683.997,88.773 684.454,88.361 C684.662,88.174 685.038,87.981 685.81,87.721 C686.471,87.498 687.13,87.313 689.033,86.803 C689.497,86.679 689.641,86.643 689.735,86.626 C689.64,86.643 689.457,86.649 689.194,86.593 C688.895,86.529 688.621,86.371 688.415,86.142 C688.227,85.93 688.149,85.779 688.128,85.715 C688.163,85.818 688.204,85.964 688.32,86.395 L692.397,101.605 C692.515,102.048 692.554,102.205 692.571,102.298 C692.554,102.205 692.548,102.024 692.604,101.766 C692.665,101.474 692.822,101.2 693.051,100.993 C693.271,100.798 693.421,100.721 693.484,100.699 C693.381,100.734 693.241,100.774 692.802,100.893 Z M694.324,106.524 C694.905,106.367 695.089,106.315 695.357,106.224 C695.968,106.017 696.468,105.76 696.944,105.337 C697.648,104.701 698.12,103.88 698.31,102.976 C698.513,102.026 698.444,101.644 698.032,100.098 L693.953,84.882 C693.798,84.305 693.743,84.111 693.651,83.84 C693.444,83.23 693.187,82.73 692.765,82.255 C692.137,81.555 691.316,81.081 690.41,80.888 C689.451,80.683 689.107,80.746 687.526,81.168 C685.483,81.715 684.774,81.915 683.948,82.193 C682.486,82.685 681.446,83.22 680.549,84.028 C679.179,85.262 678.232,86.901 677.848,88.707 C677.455,90.569 677.657,91.682 678.86,96.171 L679.316,97.865 C679.869,99.928 680.062,100.614 680.338,101.438 C680.83,102.9 681.363,103.94 682.172,104.836 C683.406,106.207 685.044,107.154 686.851,107.538 C688.716,107.931 689.83,107.728 694.318,106.526 Z M640.972,114.78 L644.912,113.724 C646.462,113.305 646.825,113.174 647.551,112.522 C648.236,111.908 648.71,111.09 648.905,110.188 C649.111,109.221 649.038,108.82 648.624,107.287 L647.57,103.351 C647.411,102.762 647.361,102.587 647.272,102.321 C647.06,101.694 646.797,101.183 646.355,100.698 C645.754,100.027 644.936,99.552 644.034,99.358 C643.066,99.151 642.666,99.224 641.133,99.639 L637.196,100.693 C636.607,100.852 636.433,100.901 636.167,100.991 C635.54,101.203 635.029,101.466 634.544,101.907 C633.873,102.509 633.398,103.327 633.204,104.229 C632.997,105.196 633.07,105.597 633.484,107.13 L634.538,111.066 C634.698,111.655 634.747,111.829 634.837,112.095 C635.049,112.723 635.312,113.234 635.753,113.719 C636.355,114.39 637.172,114.864 638.075,115.059 C639.042,115.265 639.443,115.192 640.975,114.778 L640.214,111.963 L640.214,114.879 L640.217,114.879 C640.472,114.879 640.726,114.846 640.972,114.78 Z M639.462,109.145 L640.217,111.963 L640.217,109.046 L640.214,109.046 C639.957,109.046 639.701,109.08 639.453,109.147 C639.016,109.265 638.854,109.306 638.762,109.323 C638.857,109.305 639.039,109.3 639.298,109.355 C639.604,109.421 639.876,109.579 640.082,109.808 C640.259,110.004 640.34,110.161 640.364,110.229 C640.329,110.126 640.291,109.992 640.171,109.55 L639.117,105.614 C638.997,105.17 638.957,105.009 638.94,104.916 C638.957,105.011 638.963,105.193 638.907,105.452 C638.841,105.758 638.683,106.03 638.454,106.236 C638.259,106.414 638.102,106.495 638.033,106.518 C638.136,106.483 638.271,106.445 638.712,106.326 L642.649,105.272 C643.092,105.152 643.254,105.111 643.347,105.094 C643.251,105.111 643.069,105.117 642.81,105.061 C642.505,104.996 642.232,104.837 642.027,104.608 C641.849,104.413 641.768,104.256 641.745,104.187 C641.78,104.29 641.818,104.425 641.937,104.866 L642.991,108.803 C643.111,109.246 643.152,109.408 643.169,109.501 C643.151,109.406 643.146,109.223 643.201,108.964 C643.267,108.659 643.425,108.386 643.654,108.181 C643.846,108.009 644.003,107.924 644.09,107.893 C644,107.925 643.844,107.97 643.396,108.091 L639.462,109.145 Z" />
        </g>
    </g>
</svg>