<?xml version="1.0" encoding="UTF-8"?>
<svg height="600" width="800" xmlns="http://www.w3.org/2000/svg" xmlns:xlink="http://www.w3.org/1999/xlink">
    <g id="Notes" font-family="LucidaGrande, 'Lucida Grande', sans-serif" font-size="13">
        <rect fill="white" height="600.0" width="800.0" x="0.0" y="0.0" />
        <g font-size="13">
            <text x="18.0" y="176.0">Small</text>
            <text x="18.0" y="376.0">Medium</text>
            <text x="18.0" y="576.0">Large</text>
        </g>
        <g font-size="9">
            <text x="250.0" y="30.0">Ultralight</text>
            <text x="450.0" y="30.0">Regular</text>
            <text x="650.0" y="30.0">Black</text>
            <text id="template-version" fill="#505050" text-anchor="end" x="785.0" y="575.0">Template v.3.0</text>
            <a href="https://github.com/swhitty/SwiftDraw">
                <text fill="#505050" text-anchor="end" x="785.0" y="590.0">https://github.com/swhitty/SwiftDraw</text>
            </a>
        </g>
    </g>
    <g id="Guides" stroke="rgb(39, 170, 225)" stroke-width="0.5">
        <path id="Capline-S" d="M18,76 l800,0" />
        <path id="H-reference" d="M85,145.755 L87.685,145.755 L113.369,79.287 L114.052,79.287 L114.052,76 L112.148,76 L85,145.755 Z M95.693,121.536 L130.996,121.536 L130.263,119.313 L96.474,119.313 L95.693,121.536 Z M139.15,145.755 L141.787,145.755 L114.638,76 L113.466,76 L113.466,79.287 L139.15,145.755 Z" stroke="none" transform="translate(0,200)" />
        <path id="Baseline-S" d="M18,146 l800,0" />
        <path id="left-margin-Ultralight-M" d="M226.5,256 l0,110" />
        <path id="right-margin-Ultralight-M" d="M303.5,256 l0,110" />
        <path id="left-margin-Regular-M" d="M426.5,256 l0,110" />
        <path id="right-margin-Regular-M" d="M503.5,256 l0,110" />
        <path id="left-margin-Black-M" d="M626.5,256 l0,110" />
        <path id="right-margin-Black-M" d="M703.5,256 l0,110" />
        <path id="Capline-M" d="M18,276 l800,0" />
        <path id="Baseline-M" d="M18,346 l800,0" />
        <path id="Capline-L" d="M18,476 l800,0" />
        <path id="Baseline-L" d="M18,546 l800,0" />
    </g>
    <g id="Symbols">
        <g id="Ultralight-M" transform="translate(0,200)">
            <path d="M300,97 L230,97 C228.067,97 226.5,98.567 226.5,100.5 C226.5,102.433 228.067,104 230,104 L300,104 C301.933,104 303.5,102.433 303.5,100.5 C303.5,98.567 301.933,97 300,97 Z M246.475,132.725 L255.225,123.975 C256.592,122.608 256.592,120.392 255.225,119.025 L246.475,110.275 C245.108,108.908 242.892,108.908 241.525,110.275 C240.158,111.642 240.158,113.858 241.525,115.225 L250.275,123.975 L250.275,119.025 L241.525,127.775 C240.158,129.142 240.158,131.358 241.525,132.725 C242.892,134.092 245.108,134.092 246.475,132.725 Z M261.5,133.75 L275.5,133.75 C277.433,133.75 279,132.183 279,130.25 C279,128.317 277.433,126.75 275.5,126.75 L261.5,126.75 C259.567,126.75 258,128.317 258,130.25 C258,132.183 259.567,133.75 261.5,133.75 Z M226.5,96.3 L226.5,125.7 C226.5,133.753 226.656,135.667 228.026,138.356 C229.368,140.99 231.51,143.132 234.144,144.474 C236.833,145.844 238.747,146 246.8,146 L283.2,146 C291.253,146 293.167,145.844 295.856,144.474 C298.49,143.132 300.632,140.99 301.974,138.356 C303.344,135.667 303.5,133.753 303.5,125.7 L303.5,96.3 C303.5,88.247 303.344,86.333 301.974,83.644 C300.632,81.01 298.49,78.868 295.856,77.526 C293.167,76.156 291.253,76 283.2,76 L246.8,76 C238.747,76 236.833,76.156 234.144,77.526 C231.51,78.868 229.368,81.01 228.026,83.644 C226.656,86.333 226.5,88.247 226.5,96.3 Z M233.5,96.3 C233.5,89.653 233.63,88.065 234.263,86.822 C234.934,85.505 236.005,84.434 237.322,83.763 C238.565,83.13 240.153,83 246.8,83 L283.2,83 C289.847,83 291.435,83.13 292.678,83.763 C293.995,84.434 295.066,85.505 295.737,86.822 C296.37,88.065 296.5,89.653 296.5,96.3 L296.5,125.7 C296.5,132.347 296.37,133.935 295.737,135.178 C295.066,136.495 293.995,137.566 292.678,138.237 C291.435,138.87 289.847,139 283.2,139 L246.8,139 C240.153,139 238.565,138.87 237.322,138.237 C236.005,137.566 234.934,136.495 234.263,135.178 C233.63,133.935 233.5,132.347 233.5,125.7 L233.5,96.3 Z" />
        </g>
        <g id="Regular-M" transform="translate(0,200)">
            <path d="M500,97 L430,97 C428.067,97 426.5,98.567 426.5,100.5 C426.5,102.433 428.067,104 430,104 L500,104 C501.933,104 503.5,102.433 503.5,100.5 C503.5,98.567 501.933,97 500,97 Z M446.475,132.725 L455.225,123.975 C456.592,122.608 456.592,120.392 455.225,119.025 L446.475,110.275 C445.108,108.908 442.892,108.908 441.525,110.275 C440.158,111.642 440.158,113.858 441.525,115.225 L450.275,123.975 L450.275,119.025 L441.525,127.775 C440.158,129.142 440.158,131.358 441.525,132.725 C442.892,134.092 445.108,134.092 446.475,132.725 Z M461.5,133.75 L475.5,133.75 C477.433,133.75 479,132.183 479,130.25 C479,128.317 477.433,126.75 475.5,126.75 L461.5,126.75 C459.567,126.75 458,128.317 458,130.25 C458,132.183 459.567,133.75 461.5,133.75 Z M426.5,96.3 L426.5,125.7 C426.5,133.753 426.656,135.667 428.026,138.356 C429.368,140.99 431.51,143.132 434.144,144.474 C436.833,145.844 438.747,146 446.8,146 L483.2,146 C491.253,146 493.167,145.844 495.856,144.474 C498.49,143.132 500.632,140.99 501.974,138.356 C503.344,135.667 503.5,133.753 503.5,125.7 L503.5,96.3 C503.5,88.247 503.344,86.333 501.974,83.644 C500.632,81.01 498.49,78.868 495.856,77.526 C493.167,76.156 491.253,76 483.2,76 L446.8,76 C438.747,76 436.833,76.156 434.144,77.526 C431.51,78.868 429.368,81.01 428.026,83.644 C426.656,86.333 426.5,88.247 426.5,96.3 Z M433.5,96.3 C433.5,89.653 433.63,88.065 434.263,86.822 C434.934,85.505 436.005,84.434 437.322,83.763 C438.565,83.13 440.153,83 446.8,83 L483.2,83 C489.847,83 491.435,83.13 492.678,83.763 C493.995,84.434 495.066,85.505 495.737,86.822 C496.37,88.065 496.5,89.653 496.5,96.3 L496.5,125.7 C496.5,132.347 496.37,133.935 495.737,135.178 C495.066,136.495 493.995,137.566 492.678,138.237 C491.435,138.87 489.847,139 483.2,139 L446.8,139 C440.153,139 438.565,138.87 437.322,138.237 C436.005,137.566 434.934,136.495 434.263,135.178 C433.63,133.935 433.5,132.347 433.5,125.7 L433.5,96.3 Z" />
        </g>
        <g id="Black-M" transform="translate(0,200)">
            <path d="M700,97 L630,97 C628.067,97 626.5,98.567 626.5,100.5 C626.5,102.433 628.067,104 630,104 L700,104 C701.933,104 703.5,102.433 703.5,100.5 C703.5,98.567 701.933,97 700,97 Z M646.475,132.725 L655.225,123.975 C656.592,122.608 656.592,120.392 655.225,119.025 L646.475,110.275 C645.108,108.908 642.892,108.908 641.525,110.275 C640.158,111.642 640.158,113.858 641.525,115.225 L650.275,123.975 L650.275,119.025 L641.525,127.775 C640.158,129.142 640.158,131.358 641.525,132.725 C642.892,134.092 645.108,134.092 646.475,132.725 Z M661.5,133.75 L675.5,133.75 C677.433,133.75 679,132.183 679,130.25 C679,128.317 677.433,126.75 675.5,126.75 L661.5,126.75 C659.567,126.75 658,128.317 658,130.25 C658,132.183 659.567,133.75 661.5,133.75 Z M626.5,96.3 L626.5,125.7 C626.5,133.753 626.656,135.667 628.026,138.356 C629.368,140.99 631.51,143.132 634.144,144.474 C636.833,145.844 638.747,146 646.8,146 L683.2,146 C691.253,146 693.167,145.844 695.856,144.474 C698.49,143.132 700.632,140.99 701.974,138.356 C703.344,135.667 703.5,133.753 703.5,125.7 L703.5,96.3 C703.5,88.247 703.344,86.333 701.974,83.644 C700.632,81.01 698.49,78.868 695.856,77.526 C693.167,76.156 691.253,76 683.2,76 L646.8,76 C638.747,76 636.833,76.156 634.144,77.526 C631.51,78.868 629.368,81.01 628.026,83.644 C626.656,86.333 626.5,88.247 626.5,96.3 Z M633.5,96.3 C633.5,89.653 633.63,88.065 634.263,86.822 C634.934,85.505 636.005,84.434 637.322,83.763 C638.565,83.13 640.153,83 646.8,83 L683.2,83 C689.847,83 691.435,83.13 692.678,83.763 C693.995,84.434 695.066,85.505 695.737,86.822 C696.37,88.065 696.5,89.653 696.5,96.3 L696.5,125.7 C696.5,132.347 696.37,133.935 695.737,135.178 C695.066,136.495 693.995,137.566 692.678,138.237 C691.435,138.87 689.847,139 683.2,139 L646.8,139 C640.153,139 638.565,138.87 637.322,138.237 C636.005,137.566 634.934,136.495 634.263,135.178 C633.63,133.935 633.5,132.347 633.5,125.7 L633.5,96.3 Z" />
        </g>
    </g>
</svg>