<?xml version="1.0" encoding="UTF-8"?>
<svg height="600" width="800" xmlns="http://www.w3.org/2000/svg" xmlns:xlink="http://www.w3.org/1999/xlink">
    <g id="Notes" font-family="LucidaGrande, 'Lucida Grande', sans-serif" font-size="13">
        <rect fill="white" height="600.0" width="800.0" x="0.0" y="0.0" />
        <g font-size="13">
            <text x="18.0" y="176.0">Small</text>
            <text x="18.0" y="376.0">Medium</text>
            <text x="18.0" y="576.0">Large</text>
        </g>
        <g font-size="9">
            <text x="250.0" y="30.0">Ultralight</text>
            <text x="450.0" y="30.0">Regular</text>
            <text x="650.0" y="30.0">Black</text>
            <text id="template-version" fill="#505050" text-anchor="end" x="785.0" y="575.0">Template v.3.0</text>
            <a href="https://github.com/swhitty/SwiftDraw">
                <text fill="#505050" text-anchor="end" x="785.0" y="590.0">https://github.com/swhitty/SwiftDraw</text>
            </a>
        </g>
    </g>
    <g id="Guides" stroke="rgb(39, 170, 225)" stroke-width="0.5">
        <path id="Capline-S" d="M18,76 l800,0" />
        <path id="H-reference" d="M85,145.755 L87.685,145.755 L113.369,79.287 L114.052,79.287 L114.052,76 L112.148,76 L85,145.755 Z M95.693,121.536 L130.996,121.536 L130.263,119.313 L96.474,119.313 L95.693,121.536 Z M139.15,145.755 L141.787,145.755 L114.638,76 L113.466,76 L113.466,79.287 L139.15,145.755 Z" stroke="none" transform="translate(0,200)" />
        <path id="Baseline-S" d="M18,146 l800,0" />
        <path id="left-margin-Ultralight-M" d="M230,256 l0,110" />
        <path id="right-margin-Ultralight-M" d="M300,256 l0,110" />
        <path id="left-margin-Regular-M" d="M430,256 l0,110" />
        <path id="right-margin-Regular-M" d="M500,256 l0,110" />
        <path id="left-margin-Black-M" d="M630,256 l0,110" />
        <path id="right-margin-Black-M" d="M700,256 l0,110" />
        <path id="Capline-M" d="M18,276 l800,0" />
        <path id="Baseline-M" d="M18,346 l800,0" />
        <path id="Capline-L" d="M18,476 l800,0" />
        <path id="Baseline-L" d="M18,546 l800,0" />
    </g>
    <g id="Symbols">
        <g id="Ultralight-M" transform="translate(0,200)">
            <path d="M235.833,113.917 L265,113.917 C266.611,113.917 267.917,112.611 267.917,111 C267.917,109.389 266.611,108.083 265,108.083 L235.833,108.083 C234.223,108.083 232.917,109.389 232.917,111 C232.917,112.611 234.223,113.917 235.833,113.917 Z M253.333,87.667 L253.333,134.333 C253.333,135.944 254.639,137.25 256.25,137.25 C257.861,137.25 259.167,135.944 259.167,134.333 L259.167,87.667 C259.167,86.056 257.861,84.75 256.25,84.75 C254.639,84.75 253.333,86.056 253.333,87.667 Z M236.688,104.312 L245.438,113.062 L245.438,108.938 L236.688,117.688 C235.549,118.827 235.549,120.673 236.688,121.812 C237.827,122.951 239.673,122.951 240.812,121.812 L249.562,113.062 C250.701,111.923 250.701,110.077 249.562,108.938 L240.812,100.188 C239.673,99.049 237.827,99.049 236.688,100.188 C235.549,101.327 235.549,103.173 236.688,104.312 Z M262.938,91.438 L254.188,100.188 L258.312,100.188 L249.562,91.438 C248.423,90.299 246.577,90.299 245.438,91.438 C244.299,92.577 244.299,94.423 245.438,95.562 L254.188,104.312 C255.327,105.451 257.173,105.451 258.312,104.312 L267.062,95.562 C268.201,94.423 268.201,92.577 267.062,91.438 C265.923,90.299 264.077,90.299 262.938,91.438 Z M249.562,130.562 L258.312,121.812 L254.188,121.812 L258.563,126.187 C259.702,127.326 261.548,127.326 262.687,126.187 C263.826,125.048 263.826,123.202 262.687,122.063 L258.312,117.688 C257.173,116.549 255.327,116.549 254.188,117.688 L245.438,126.438 C244.299,127.577 244.299,129.423 245.438,130.562 C246.577,131.701 248.423,131.701 249.562,130.562 Z M291.25,118.394 L291.25,87.667 C291.25,82.834 287.332,78.917 282.5,78.917 C277.668,78.917 273.75,82.834 273.75,87.667 L273.75,118.394 L275.208,115.868 C269.492,119.168 266.705,125.896 268.414,132.272 C270.122,138.647 275.9,143.081 282.5,143.081 C289.1,143.081 294.878,138.647 296.586,132.272 C298.295,125.896 295.508,119.168 289.792,115.868 L291.25,118.394 Z M285.417,118.394 C285.417,119.436 285.973,120.399 286.875,120.92 C290.305,122.9 291.977,126.937 290.952,130.762 C289.927,134.587 286.46,137.247 282.5,137.247 C278.54,137.247 275.073,134.587 274.048,130.762 C273.023,126.937 274.695,122.9 278.125,120.92 C279.027,120.399 279.583,119.436 279.583,118.394 L279.583,87.667 C279.583,86.056 280.889,84.75 282.5,84.75 C284.111,84.75 285.417,86.056 285.417,87.667 L285.417,118.394 Z" />
        </g>
        <g id="Regular-M" transform="translate(0,200)">
            <path d="M435.833,113.917 L465,113.917 C466.611,113.917 467.917,112.611 467.917,111 C467.917,109.389 466.611,108.083 465,108.083 L435.833,108.083 C434.223,108.083 432.917,109.389 432.917,111 C432.917,112.611 434.223,113.917 435.833,113.917 Z M453.333,87.667 L453.333,134.333 C453.333,135.944 454.639,137.25 456.25,137.25 C457.861,137.25 459.167,135.944 459.167,134.333 L459.167,87.667 C459.167,86.056 457.861,84.75 456.25,84.75 C454.639,84.75 453.333,86.056 453.333,87.667 Z M436.688,104.312 L445.438,113.062 L445.438,108.938 L436.688,117.688 C435.549,118.827 435.549,120.673 436.688,121.812 C437.827,122.951 439.673,122.951 440.812,121.812 L449.562,113.062 C450.701,111.923 450.701,110.077 449.562,108.938 L440.812,100.188 C439.673,99.049 437.827,99.049 436.688,100.188 C435.549,101.327 435.549,103.173 436.688,104.312 Z M462.938,91.438 L454.188,100.188 L458.312,100.188 L449.562,91.438 C448.423,90.299 446.577,90.299 445.438,91.438 C444.299,92.577 444.299,94.423 445.438,95.562 L454.188,104.312 C455.327,105.451 457.173,105.451 458.312,104.312 L467.062,95.562 C468.201,94.423 468.201,92.577 467.062,91.438 C465.923,90.299 464.077,90.299 462.938,91.438 Z M449.562,130.562 L458.312,121.812 L454.188,121.812 L458.563,126.187 C459.702,127.326 461.548,127.326 462.687,126.187 C463.826,125.048 463.826,123.202 462.687,122.063 L458.312,117.688 C457.173,116.549 455.327,116.549 454.188,117.688 L445.438,126.438 C444.299,127.577 444.299,129.423 445.438,130.562 C446.577,131.701 448.423,131.701 449.562,130.562 Z M491.25,118.394 L491.25,87.667 C491.25,82.834 487.332,78.917 482.5,78.917 C477.668,78.917 473.75,82.834 473.75,87.667 L473.75,118.394 L475.208,115.868 C469.492,119.168 466.705,125.896 468.414,132.272 C470.122,138.647 475.9,143.081 482.5,143.081 C489.1,143.081 494.878,138.647 496.586,132.272 C498.295,125.896 495.508,119.168 489.792,115.868 L491.25,118.394 Z M485.417,118.394 C485.417,119.436 485.973,120.399 486.875,120.92 C490.305,122.9 491.977,126.937 490.952,130.762 C489.927,134.587 486.46,137.247 482.5,137.247 C478.54,137.247 475.073,134.587 474.048,130.762 C473.023,126.937 474.695,122.9 478.125,120.92 C479.027,120.399 479.583,119.436 479.583,118.394 L479.583,87.667 C479.583,86.056 480.889,84.75 482.5,84.75 C484.111,84.75 485.417,86.056 485.417,87.667 L485.417,118.394 Z" />
        </g>
        <g id="Black-M" transform="translate(0,200)">
            <path d="M635.833,113.917 L665,113.917 C666.611,113.917 667.917,112.611 667.917,111 C667.917,109.389 666.611,108.083 665,108.083 L635.833,108.083 C634.222,108.083 632.917,109.389 632.917,111 C632.917,112.611 634.222,113.917 635.833,113.917 Z M653.333,87.667 L653.333,134.333 C653.333,135.944 654.639,137.25 656.25,137.25 C657.861,137.25 659.167,135.944 659.167,134.333 L659.167,87.667 C659.167,86.056 657.861,84.75 656.25,84.75 C654.639,84.75 653.333,86.056 653.333,87.667 Z M636.688,104.312 L645.438,113.062 L645.438,108.938 L636.688,117.688 C635.549,118.827 635.549,120.673 636.688,121.812 C637.827,122.951 639.673,122.951 640.812,121.812 L649.562,113.062 C650.701,111.923 650.701,110.077 649.562,108.938 L640.812,100.188 C639.673,99.049 637.827,99.049 636.688,100.188 C635.549,101.327 635.549,103.173 636.688,104.312 Z M662.938,91.438 L654.188,100.188 L658.312,100.188 L649.562,91.438 C648.423,90.299 646.577,90.299 645.438,91.438 C644.299,92.577 644.299,94.423 645.438,95.562 L654.188,104.312 C655.327,105.451 657.173,105.451 658.312,104.312 L667.062,95.562 C668.201,94.423 668.201,92.577 667.062,91.438 C665.923,90.299 664.077,90.299 662.938,91.438 Z M649.562,130.562 L658.312,121.812 L654.188,121.812 L658.563,126.187 C659.702,127.326 661.548,127.326 662.687,126.187 C663.826,125.048 663.826,123.202 662.687,122.063 L658.312,117.688 C657.173,116.549 655.327,116.549 654.188,117.688 L645.438,126.438 C644.299,127.577 644.299,129.423 645.438,130.562 C646.577,131.701 648.423,131.701 649.562,130.562 Z M691.25,118.394 L691.25,87.667 C691.25,82.834 687.333,78.917 682.5,78.917 C677.668,78.917 673.75,82.834 673.75,87.667 L673.75,118.394 L675.208,115.868 C669.492,119.168 666.705,125.896 668.414,132.272 C670.122,138.647 675.899,143.081 682.5,143.081 C689.101,143.081 694.878,138.647 696.586,132.272 C698.295,125.896 695.508,119.168 689.792,115.868 L691.25,118.394 Z M685.417,118.394 C685.417,119.436 685.973,120.399 686.875,120.92 C690.305,122.9 691.977,126.937 690.952,130.762 C689.927,134.587 686.46,137.247 682.5,137.247 C678.54,137.247 675.073,134.587 674.048,130.762 C673.023,126.937 674.695,122.9 678.125,120.92 C679.027,120.399 679.583,119.436 679.583,118.394 L679.583,87.667 C679.583,86.056 680.889,84.75 682.5,84.75 C684.111,84.75 685.417,86.056 685.417,87.667 L685.417,118.394 Z" />
        </g>
    </g>
</svg>