<?xml version="1.0" encoding="UTF-8"?>
<svg height="600" width="800" xmlns="http://www.w3.org/2000/svg" xmlns:xlink="http://www.w3.org/1999/xlink">
    <g id="Notes" font-family="LucidaGrande, 'Lucida Grande', sans-serif" font-size="13">
        <rect fill="white" height="600.0" width="800.0" x="0.0" y="0.0" />
        <g font-size="13">
            <text x="18.0" y="176.0">Small</text>
            <text x="18.0" y="376.0">Medium</text>
            <text x="18.0" y="576.0">Large</text>
        </g>
        <g font-size="9">
            <text x="250.0" y="30.0">Ultralight</text>
            <text x="450.0" y="30.0">Regular</text>
            <text x="650.0" y="30.0">Black</text>
            <text id="template-version" fill="#505050" text-anchor="end" x="785.0" y="575.0">Template v.3.0</text>
            <a href="https://github.com/swhitty/SwiftDraw">
                <text fill="#505050" text-anchor="end" x="785.0" y="590.0">https://github.com/swhitty/SwiftDraw</text>
            </a>
        </g>
    </g>
    <g id="Guides" stroke="rgb(39, 170, 225)" stroke-width="0.5">
        <path id="Capline-S" d="M18,76 l800,0" />
        <path id="H-reference" d="M85,145.755 L87.685,145.755 L113.369,79.287 L114.052,79.287 L114.052,76 L112.148,76 L85,145.755 Z M95.693,121.536 L130.996,121.536 L130.263,119.313 L96.474,119.313 L95.693,121.536 Z M139.15,145.755 L141.787,145.755 L114.638,76 L113.466,76 L113.466,79.287 L139.15,145.755 Z" stroke="none" transform="translate(0,200)" />
        <path id="Baseline-S" d="M18,146 l800,0" />
        <path id="left-margin-Ultralight-M" d="M230,256 l0,110" />
        <path id="right-margin-Ultralight-M" d="M300,256 l0,110" />
        <path id="left-margin-Regular-M" d="M430,256 l0,110" />
        <path id="right-margin-Regular-M" d="M500,256 l0,110" />
        <path id="left-margin-Black-M" d="M630,256 l0,110" />
        <path id="right-margin-Black-M" d="M700,256 l0,110" />
        <path id="Capline-M" d="M18,276 l800,0" />
        <path id="Baseline-M" d="M18,346 l800,0" />
        <path id="Capline-L" d="M18,476 l800,0" />
        <path id="Baseline-L" d="M18,546 l800,0" />
    </g>
    <g id="Symbols">
        <g id="Ultralight-M" transform="translate(0,200)">
            <path d="M265.051,98.274 C257.749,98.156 251.304,103.026 249.423,110.082 C247.541,117.139 250.705,124.571 257.096,128.105 C258.634,128.955 260.57,128.398 261.42,126.86 C262.271,125.322 261.713,123.386 260.176,122.536 C256.341,120.415 254.442,115.956 255.571,111.722 C256.7,107.488 260.567,104.567 264.948,104.637 C266.705,104.665 268.152,103.264 268.181,101.507 C268.209,99.75 266.808,98.302 265.051,98.274 Z M261.818,82.364 L261.818,88.728 C261.818,90.485 263.242,91.91 264.999,91.91 C266.757,91.91 268.181,90.485 268.181,88.728 L268.181,82.364 C268.181,80.607 266.757,79.182 264.999,79.182 C263.242,79.182 261.818,80.607 261.818,82.364 Z M245.568,129.116 L241.114,133.571 C239.871,134.813 239.871,136.828 241.114,138.071 C242.356,139.313 244.371,139.313 245.613,138.071 L250.068,133.616 C251.31,132.373 251.31,130.359 250.068,129.116 C248.825,127.873 246.811,127.873 245.568,129.116 Z M239.545,111.001 L233.182,111.001 C231.425,111.001 230,112.426 230,114.183 C230,115.941 231.425,117.365 233.182,117.365 L239.545,117.365 C241.303,117.365 242.727,115.941 242.727,114.183 C242.727,112.426 241.303,111.001 239.545,111.001 Z M250.068,94.751 L245.613,90.296 C244.371,89.054 242.356,89.054 241.114,90.296 C239.871,91.539 239.871,93.553 241.114,94.796 L245.568,99.251 C246.811,100.493 248.825,100.493 250.068,99.251 C251.31,98.008 251.31,95.994 250.068,94.751 Z M293.635,119.068 L293.635,85.546 C293.635,80.274 289.362,76 284.09,76 C278.818,76 274.545,80.274 274.545,85.546 L274.545,119.068 L276.136,116.312 C269.9,119.912 266.86,127.253 268.723,134.208 C270.587,141.163 276.89,146 284.09,146 C291.29,146 297.593,141.163 299.457,134.208 C301.32,127.253 298.28,119.912 292.044,116.312 L293.635,119.068 Z M287.272,119.068 C287.272,120.204 287.878,121.255 288.863,121.823 C292.604,123.984 294.428,128.388 293.31,132.561 C292.192,136.734 288.41,139.636 284.09,139.636 C279.77,139.636 275.988,136.734 274.87,132.561 C273.752,128.388 275.576,123.984 279.317,121.823 C280.302,121.255 280.908,120.204 280.908,119.068 L280.908,85.546 C280.908,83.789 282.333,82.364 284.09,82.364 C285.847,82.364 287.272,83.788 287.272,85.546 L287.272,119.068 Z" />
        </g>
        <g id="Regular-M" transform="translate(0,200)">
            <path d="M465.051,98.274 C457.749,98.156 451.304,103.026 449.423,110.082 C447.541,117.139 450.705,124.571 457.096,128.105 C458.634,128.955 460.57,128.398 461.42,126.86 C462.271,125.322 461.713,123.386 460.176,122.536 C456.341,120.415 454.442,115.956 455.571,111.722 C456.7,107.488 460.567,104.567 464.948,104.637 C466.705,104.665 468.152,103.264 468.181,101.507 C468.209,99.75 466.808,98.302 465.051,98.274 Z M461.818,82.364 L461.818,88.728 C461.818,90.485 463.242,91.91 464.999,91.91 C466.757,91.91 468.181,90.485 468.181,88.728 L468.181,82.364 C468.181,80.607 466.757,79.182 464.999,79.182 C463.242,79.182 461.818,80.607 461.818,82.364 Z M445.568,129.116 L441.114,133.571 C439.871,134.813 439.871,136.828 441.114,138.071 C442.356,139.313 444.371,139.313 445.613,138.071 L450.068,133.616 C451.31,132.373 451.31,130.359 450.068,129.116 C448.825,127.873 446.811,127.873 445.568,129.116 Z M439.545,111.001 L433.182,111.001 C431.425,111.001 430,112.426 430,114.183 C430,115.941 431.425,117.365 433.182,117.365 L439.545,117.365 C441.303,117.365 442.727,115.941 442.727,114.183 C442.727,112.426 441.303,111.001 439.545,111.001 Z M450.068,94.751 L445.613,90.296 C444.371,89.054 442.356,89.054 441.114,90.296 C439.871,91.539 439.871,93.553 441.114,94.796 L445.568,99.251 C446.811,100.493 448.825,100.493 450.068,99.251 C451.31,98.008 451.31,95.994 450.068,94.751 Z M493.635,119.068 L493.635,85.546 C493.635,80.274 489.362,76 484.09,76 C478.818,76 474.545,80.274 474.545,85.546 L474.545,119.068 L476.136,116.312 C469.9,119.912 466.86,127.253 468.723,134.208 C470.587,141.163 476.89,146 484.09,146 C491.29,146 497.593,141.163 499.457,134.208 C501.32,127.253 498.28,119.912 492.044,116.312 L493.635,119.068 Z M487.272,119.068 C487.272,120.204 487.878,121.255 488.863,121.823 C492.604,123.984 494.428,128.388 493.31,132.561 C492.192,136.734 488.41,139.636 484.09,139.636 C479.77,139.636 475.988,136.734 474.87,132.561 C473.752,128.388 475.576,123.984 479.317,121.823 C480.302,121.255 480.908,120.204 480.908,119.068 L480.908,85.546 C480.908,83.789 482.333,82.364 484.09,82.364 C485.847,82.364 487.272,83.788 487.272,85.546 L487.272,119.068 Z" />
        </g>
        <g id="Black-M" transform="translate(0,200)">
            <path d="M665.051,98.274 C657.749,98.156 651.304,103.026 649.423,110.082 C647.541,117.139 650.705,124.571 657.096,128.105 C658.634,128.955 660.57,128.398 661.42,126.86 C662.271,125.322 661.713,123.386 660.176,122.536 C656.341,120.415 654.442,115.956 655.571,111.722 C656.7,107.488 660.567,104.567 664.948,104.637 C666.705,104.665 668.152,103.264 668.181,101.507 C668.209,99.75 666.808,98.302 665.051,98.274 Z M661.818,82.364 L661.818,88.728 C661.818,90.485 663.242,91.91 664.999,91.91 C666.757,91.91 668.181,90.485 668.181,88.728 L668.181,82.364 C668.181,80.607 666.757,79.182 664.999,79.182 C663.242,79.182 661.818,80.607 661.818,82.364 Z M645.568,129.116 L641.114,133.571 C639.871,134.813 639.871,136.828 641.114,138.071 C642.356,139.313 644.371,139.313 645.613,138.071 L650.068,133.616 C651.31,132.373 651.31,130.359 650.068,129.116 C648.825,127.873 646.811,127.873 645.568,129.116 Z M639.545,111.001 L633.182,111.001 C631.424,111.001 630,112.426 630,114.183 C630,115.941 631.424,117.365 633.182,117.365 L639.545,117.365 C641.303,117.365 642.727,115.941 642.727,114.183 C642.727,112.426 641.303,111.001 639.545,111.001 Z M650.068,94.751 L645.613,90.296 C644.371,89.054 642.356,89.054 641.114,90.296 C639.871,91.539 639.871,93.553 641.114,94.796 L645.568,99.251 C646.811,100.493 648.825,100.493 650.068,99.251 C651.31,98.008 651.31,95.994 650.068,94.751 Z M693.635,119.068 L693.635,85.546 C693.635,80.274 689.362,76 684.09,76 C678.818,76 674.545,80.274 674.545,85.546 L674.545,119.068 L676.136,116.312 C669.9,119.912 666.86,127.253 668.723,134.208 C670.587,141.163 676.89,146 684.09,146 C691.29,146 697.593,141.163 699.457,134.208 C701.32,127.253 698.28,119.912 692.044,116.312 L693.635,119.068 Z M687.272,119.068 C687.272,120.204 687.878,121.255 688.863,121.823 C692.604,123.984 694.428,128.388 693.31,132.561 C692.192,136.734 688.41,139.636 684.09,139.636 C679.77,139.636 675.988,136.734 674.87,132.561 C673.752,128.388 675.576,123.984 679.317,121.823 C680.302,121.255 680.908,120.204 680.908,119.068 L680.908,85.546 C680.908,83.789 682.333,82.364 684.09,82.364 C685.847,82.364 687.272,83.788 687.272,85.546 L687.272,119.068 Z" />
        </g>
    </g>
</svg>