<?xml version="1.0" encoding="UTF-8"?>
<svg height="600" width="800" xmlns="http://www.w3.org/2000/svg" xmlns:xlink="http://www.w3.org/1999/xlink">
    <g id="Notes" font-family="LucidaGrande, 'Lucida Grande', sans-serif" font-size="13">
        <rect fill="white" height="600.0" width="800.0" x="0.0" y="0.0" />
        <g font-size="13">
            <text x="18.0" y="176.0">Small</text>
            <text x="18.0" y="376.0">Medium</text>
            <text x="18.0" y="576.0">Large</text>
        </g>
        <g font-size="9">
            <text x="250.0" y="30.0">Ultralight</text>
            <text x="450.0" y="30.0">Regular</text>
            <text x="650.0" y="30.0">Black</text>
            <text id="template-version" fill="#505050" text-anchor="end" x="785.0" y="575.0">Template v.3.0</text>
            <a href="https://github.com/swhitty/SwiftDraw">
                <text fill="#505050" text-anchor="end" x="785.0" y="590.0">https://github.com/swhitty/SwiftDraw</text>
            </a>
        </g>
    </g>
    <g id="Guides" stroke="rgb(39, 170, 225)" stroke-width="0.5">
        <path id="Capline-S" d="M18,76 l800,0" />
        <path id="H-reference" d="M85,145.755 L87.685,145.755 L113.369,79.287 L114.052,79.287 L114.052,76 L112.148,76 L85,145.755 Z M95.693,121.536 L130.996,121.536 L130.263,119.313 L96.474,119.313 L95.693,121.536 Z M139.15,145.755 L141.787,145.755 L114.638,76 L113.466,76 L113.466,79.287 L139.15,145.755 Z" stroke="none" transform="translate(0,200)" />
        <path id="Baseline-S" d="M18,146 l800,0" />
        <path id="left-margin-Ultralight-M" d="M230,256 l0,110" />
        <path id="right-margin-Ultralight-M" d="M300,256 l0,110" />
        <path id="left-margin-Regular-M" d="M430,256 l0,110" />
        <path id="right-margin-Regular-M" d="M500,256 l0,110" />
        <path id="left-margin-Black-M" d="M630,256 l0,110" />
        <path id="right-margin-Black-M" d="M700,256 l0,110" />
        <path id="Capline-M" d="M18,276 l800,0" />
        <path id="Baseline-M" d="M18,346 l800,0" />
        <path id="Capline-L" d="M18,476 l800,0" />
        <path id="Baseline-L" d="M18,546 l800,0" />
    </g>
    <g id="Symbols">
        <g id="Ultralight-M" transform="translate(0,200)">
            <path d="M291.25,81.833 L273.75,81.833 C272.139,81.833 270.833,83.139 270.833,84.75 C270.833,86.361 272.139,87.667 273.75,87.667 L291.25,87.667 C292.861,87.667 294.167,86.361 294.167,84.75 C294.167,83.139 292.861,81.833 291.25,81.833 Z M291.25,93.5 L273.75,93.5 C272.139,93.5 270.833,94.806 270.833,96.417 C270.833,98.027 272.139,99.333 273.75,99.333 L291.25,99.333 C292.861,99.333 294.167,98.027 294.167,96.417 C294.167,94.806 292.861,93.5 291.25,93.5 Z M291.25,105.167 L273.75,105.167 C272.139,105.167 270.833,106.473 270.833,108.083 C270.833,109.694 272.139,111 273.75,111 L291.25,111 C292.861,111 294.167,109.694 294.167,108.083 C294.167,106.473 292.861,105.167 291.25,105.167 Z M248.958,116.128 L248.958,89.125 C248.958,86.709 250.917,84.75 253.333,84.75 C255.75,84.75 257.708,86.709 257.708,89.125 L257.708,116.128 C257.708,117.102 258.195,118.011 259.005,118.553 C262.743,121.051 264.407,125.701 263.102,130.004 C261.797,134.307 257.83,137.249 253.333,137.249 C248.837,137.249 244.87,134.307 243.565,130.004 C242.259,125.701 243.923,121.051 247.662,118.553 C248.472,118.011 248.958,117.102 248.958,116.128 Z M243.125,116.128 L244.421,113.702 C238.546,117.628 235.931,124.935 237.982,131.697 C240.033,138.459 246.267,143.082 253.333,143.082 C260.399,143.082 266.633,138.459 268.684,131.697 C270.735,124.935 268.121,117.628 262.245,113.702 L263.542,116.128 L263.542,89.125 C263.542,83.487 258.971,78.917 253.333,78.917 C247.695,78.917 243.125,83.487 243.125,89.125 L243.125,116.128 Z M253.333,127.042 C253.333,127.042 253.333,127.042 253.333,127.042 C253.333,127.042 253.333,127.042 253.333,127.042 C253.333,127.042 253.333,127.042 253.333,127.042 C253.333,127.042 253.333,127.042 253.333,127.042 Z M259.167,127.042 C259.167,123.82 256.555,121.208 253.333,121.208 C250.112,121.208 247.5,123.82 247.5,127.042 C247.5,130.263 250.112,132.875 253.333,132.875 C256.555,132.875 259.167,130.263 259.167,127.042 Z" />
        </g>
        <g id="Regular-M" transform="translate(0,200)">
            <path d="M491.25,81.833 L473.75,81.833 C472.139,81.833 470.833,83.139 470.833,84.75 C470.833,86.361 472.139,87.667 473.75,87.667 L491.25,87.667 C492.861,87.667 494.167,86.361 494.167,84.75 C494.167,83.139 492.861,81.833 491.25,81.833 Z M491.25,93.5 L473.75,93.5 C472.139,93.5 470.833,94.806 470.833,96.417 C470.833,98.027 472.139,99.333 473.75,99.333 L491.25,99.333 C492.861,99.333 494.167,98.027 494.167,96.417 C494.167,94.806 492.861,93.5 491.25,93.5 Z M491.25,105.167 L473.75,105.167 C472.139,105.167 470.833,106.473 470.833,108.083 C470.833,109.694 472.139,111 473.75,111 L491.25,111 C492.861,111 494.167,109.694 494.167,108.083 C494.167,106.473 492.861,105.167 491.25,105.167 Z M448.958,116.128 L448.958,89.125 C448.958,86.709 450.917,84.75 453.333,84.75 C455.75,84.75 457.708,86.709 457.708,89.125 L457.708,116.128 C457.708,117.102 458.195,118.011 459.005,118.553 C462.743,121.051 464.407,125.701 463.102,130.004 C461.797,134.307 457.83,137.249 453.333,137.249 C448.837,137.249 444.87,134.307 443.565,130.004 C442.259,125.701 443.923,121.051 447.662,118.553 C448.472,118.011 448.958,117.102 448.958,116.128 Z M443.125,116.128 L444.421,113.702 C438.546,117.628 435.931,124.935 437.982,131.697 C440.033,138.459 446.267,143.082 453.333,143.082 C460.399,143.082 466.633,138.459 468.684,131.697 C470.735,124.935 468.121,117.628 462.245,113.702 L463.542,116.128 L463.542,89.125 C463.542,83.487 458.971,78.917 453.333,78.917 C447.695,78.917 443.125,83.487 443.125,89.125 L443.125,116.128 Z M453.333,127.042 C453.333,127.042 453.333,127.042 453.333,127.042 C453.333,127.042 453.333,127.042 453.333,127.042 C453.333,127.042 453.333,127.042 453.333,127.042 C453.333,127.042 453.333,127.042 453.333,127.042 Z M459.167,127.042 C459.167,123.82 456.555,121.208 453.333,121.208 C450.112,121.208 447.5,123.82 447.5,127.042 C447.5,130.263 450.112,132.875 453.333,132.875 C456.555,132.875 459.167,130.263 459.167,127.042 Z" />
        </g>
        <g id="Black-M" transform="translate(0,200)">
            <path d="M691.25,81.833 L673.75,81.833 C672.139,81.833 670.833,83.139 670.833,84.75 C670.833,86.361 672.139,87.667 673.75,87.667 L691.25,87.667 C692.861,87.667 694.167,86.361 694.167,84.75 C694.167,83.139 692.861,81.833 691.25,81.833 Z M691.25,93.5 L673.75,93.5 C672.139,93.5 670.833,94.806 670.833,96.417 C670.833,98.027 672.139,99.333 673.75,99.333 L691.25,99.333 C692.861,99.333 694.167,98.027 694.167,96.417 C694.167,94.806 692.861,93.5 691.25,93.5 Z M691.25,105.167 L673.75,105.167 C672.139,105.167 670.833,106.473 670.833,108.083 C670.833,109.694 672.139,111 673.75,111 L691.25,111 C692.861,111 694.167,109.694 694.167,108.083 C694.167,106.473 692.861,105.167 691.25,105.167 Z M648.958,116.128 L648.958,89.125 C648.958,86.709 650.917,84.75 653.333,84.75 C655.75,84.75 657.708,86.709 657.708,89.125 L657.708,116.128 C657.708,117.102 658.195,118.011 659.005,118.553 C662.743,121.051 664.407,125.701 663.102,130.004 C661.797,134.307 657.83,137.249 653.333,137.249 C648.837,137.249 644.87,134.307 643.565,130.004 C642.259,125.701 643.923,121.051 647.662,118.553 C648.472,118.011 648.958,117.102 648.958,116.128 Z M643.125,116.128 L644.421,113.702 C638.546,117.628 635.931,124.935 637.982,131.697 C640.033,138.459 646.267,143.082 653.333,143.082 C660.399,143.082 666.633,138.459 668.684,131.697 C670.735,124.935 668.121,117.628 662.245,113.702 L663.542,116.128 L663.542,89.125 C663.542,83.487 658.971,78.917 653.333,78.917 C647.695,78.917 643.125,83.487 643.125,89.125 L643.125,116.128 Z M653.333,127.042 C653.333,127.042 653.333,127.042 653.333,127.042 C653.333,127.042 653.333,127.042 653.333,127.042 C653.333,127.042 653.333,127.042 653.333,127.042 C653.333,127.042 653.333,127.042 653.333,127.042 Z M659.167,127.042 C659.167,123.82 656.555,121.208 653.333,121.208 C650.112,121.208 647.5,123.82 647.5,127.042 C647.5,130.263 650.112,132.875 653.333,132.875 C656.555,132.875 659.167,130.263 659.167,127.042 Z" />
        </g>
    </g>
</svg>