<?xml version="1.0" encoding="UTF-8"?>
<svg height="600" width="800" xmlns="http://www.w3.org/2000/svg" xmlns:xlink="http://www.w3.org/1999/xlink">
    <g id="Notes" font-family="LucidaGrande, 'Lucida Grande', sans-serif" font-size="13">
        <rect fill="white" height="600.0" width="800.0" x="0.0" y="0.0" />
        <g font-size="13">
            <text x="18.0" y="176.0">Small</text>
            <text x="18.0" y="376.0">Medium</text>
            <text x="18.0" y="576.0">Large</text>
        </g>
        <g font-size="9">
            <text x="250.0" y="30.0">Ultralight</text>
            <text x="450.0" y="30.0">Regular</text>
            <text x="650.0" y="30.0">Black</text>
            <text id="template-version" fill="#505050" text-anchor="end" x="785.0" y="575.0">Template v.3.0</text>
            <a href="https://github.com/swhitty/SwiftDraw">
                <text fill="#505050" text-anchor="end" x="785.0" y="590.0">https://github.com/swhitty/SwiftDraw</text>
            </a>
        </g>
    </g>
    <g id="Guides" stroke="rgb(39, 170, 225)" stroke-width="0.5">
        <path id="Capline-S" d="M18,76 l800,0" />
        <path id="H-reference" d="M85,145.755 L87.685,145.755 L113.369,79.287 L114.052,79.287 L114.052,76 L112.148,76 L85,145.755 Z M95.693,121.536 L130.996,121.536 L130.263,119.313 L96.474,119.313 L95.693,121.536 Z M139.15,145.755 L141.787,145.755 L114.638,76 L113.466,76 L113.466,79.287 L139.15,145.755 Z" stroke="none" transform="translate(0,200)" />
        <path id="Baseline-S" d="M18,146 l800,0" />
        <path id="left-margin-Ultralight-M" d="M230,256 l0,110" />
        <path id="right-margin-Ultralight-M" d="M300,256 l0,110" />
        <path id="left-margin-Regular-M" d="M430,256 l0,110" />
        <path id="right-margin-Regular-M" d="M500,256 l0,110" />
        <path id="left-margin-Black-M" d="M630,256 l0,110" />
        <path id="right-margin-Black-M" d="M700,256 l0,110" />
        <path id="Capline-M" d="M18,276 l800,0" />
        <path id="Baseline-M" d="M18,346 l800,0" />
        <path id="Capline-L" d="M18,476 l800,0" />
        <path id="Baseline-L" d="M18,546 l800,0" />
    </g>
    <g id="Symbols">
        <g id="Ultralight-M" transform="translate(0,200)">
            <path d="M253.333,140.167 L253.333,108.083 C253.333,106.473 252.027,105.167 250.417,105.167 C248.806,105.167 247.5,106.473 247.5,108.083 L247.5,140.167 C247.5,141.777 248.806,143.083 250.417,143.083 C252.027,143.083 253.333,141.777 253.333,140.167 Z M232.917,113.917 L232.917,134.333 C232.917,136.654 233.839,138.88 235.479,140.521 C237.12,142.161 239.346,143.083 241.667,143.083 L280.826,143.083 C286.584,143.083 291.481,138.881 292.357,133.19 L295.498,112.774 C296.015,109.409 295.038,105.987 292.821,103.403 C290.605,100.82 287.371,99.333 283.967,99.333 L273.75,99.333 C273.75,99.333 273.75,99.333 273.75,99.333 C273.75,99.333 273.75,99.333 273.75,99.333 L273.75,89.026 C273.75,83.443 269.224,78.917 263.641,78.917 C261.54,78.919 259.64,80.155 258.788,82.072 L248.521,105.166 C248.521,105.167 248.521,105.167 248.521,105.167 L241.667,105.167 C239.346,105.167 237.12,106.089 235.479,107.729 C233.839,109.37 232.917,111.596 232.917,113.917 Z M238.75,113.917 C238.75,113.143 239.057,112.401 239.604,111.854 C240.151,111.307 240.893,111 241.667,111 L248.521,111 C250.826,111 252.916,109.642 253.852,107.535 L264.118,84.441 C264.035,84.629 263.85,84.75 263.645,84.75 C266.002,84.75 267.917,86.664 267.917,89.026 L267.917,99.333 C267.917,100.88 268.531,102.364 269.625,103.458 C270.719,104.552 272.203,105.167 273.75,105.167 L283.967,105.167 C285.669,105.167 287.286,105.91 288.394,107.202 C289.502,108.493 289.991,110.205 289.732,111.887 L286.591,132.303 C286.153,135.149 283.705,137.25 280.826,137.25 L241.667,137.25 C240.893,137.25 240.151,136.943 239.604,136.396 C239.057,135.849 238.75,135.107 238.75,134.333 L238.75,113.917 Z" />
        </g>
        <g id="Regular-M" transform="translate(0,200)">
            <path d="M453.333,140.167 L453.333,108.083 C453.333,106.473 452.027,105.167 450.417,105.167 C448.806,105.167 447.5,106.473 447.5,108.083 L447.5,140.167 C447.5,141.777 448.806,143.083 450.417,143.083 C452.027,143.083 453.333,141.777 453.333,140.167 Z M432.917,113.917 L432.917,134.333 C432.917,136.654 433.839,138.88 435.479,140.521 C437.12,142.161 439.346,143.083 441.667,143.083 L480.826,143.083 C486.584,143.083 491.481,138.881 492.357,133.19 L495.498,112.774 C496.015,109.409 495.038,105.987 492.821,103.403 C490.605,100.82 487.371,99.333 483.967,99.333 L473.75,99.333 C473.75,99.333 473.75,99.333 473.75,99.333 C473.75,99.333 473.75,99.333 473.75,99.333 L473.75,89.026 C473.75,83.443 469.224,78.917 463.641,78.917 C461.54,78.919 459.64,80.155 458.788,82.072 L448.521,105.166 C448.521,105.167 448.521,105.167 448.521,105.167 L441.667,105.167 C439.346,105.167 437.12,106.089 435.479,107.729 C433.839,109.37 432.917,111.596 432.917,113.917 Z M438.75,113.917 C438.75,113.143 439.057,112.401 439.604,111.854 C440.151,111.307 440.893,111 441.667,111 L448.521,111 C450.826,111 452.916,109.642 453.852,107.535 L464.118,84.441 C464.035,84.629 463.85,84.75 463.645,84.75 C466.002,84.75 467.917,86.664 467.917,89.026 L467.917,99.333 C467.917,100.88 468.531,102.364 469.625,103.458 C470.719,104.552 472.203,105.167 473.75,105.167 L483.967,105.167 C485.669,105.167 487.286,105.91 488.394,107.202 C489.502,108.493 489.991,110.205 489.732,111.887 L486.591,132.303 C486.153,135.149 483.705,137.25 480.826,137.25 L441.667,137.25 C440.893,137.25 440.151,136.943 439.604,136.396 C439.057,135.849 438.75,135.107 438.75,134.333 L438.75,113.917 Z" />
        </g>
        <g id="Black-M" transform="translate(0,200)">
            <path d="M653.333,140.167 L653.333,108.083 C653.333,106.473 652.028,105.167 650.417,105.167 C648.806,105.167 647.5,106.473 647.5,108.083 L647.5,140.167 C647.5,141.777 648.806,143.083 650.417,143.083 C652.028,143.083 653.333,141.777 653.333,140.167 Z M632.917,113.917 L632.917,134.333 C632.917,136.654 633.839,138.88 635.479,140.521 C637.12,142.161 639.346,143.083 641.667,143.083 L680.826,143.083 C686.584,143.083 691.481,138.881 692.357,133.19 L695.498,112.774 C696.015,109.409 695.038,105.987 692.821,103.403 C690.605,100.82 687.371,99.333 683.967,99.333 L673.75,99.333 C673.75,99.333 673.75,99.333 673.75,99.333 C673.75,99.333 673.75,99.333 673.75,99.333 L673.75,89.026 C673.75,83.443 669.224,78.917 663.641,78.917 C661.54,78.919 659.64,80.155 658.788,82.072 L648.521,105.166 C648.521,105.167 648.521,105.167 648.521,105.167 L641.667,105.167 C639.346,105.167 637.12,106.089 635.479,107.729 C633.839,109.37 632.917,111.596 632.917,113.917 Z M638.75,113.917 C638.75,113.143 639.057,112.401 639.604,111.854 C640.151,111.307 640.893,111 641.667,111 L648.521,111 C650.826,111 652.916,109.642 653.852,107.535 L664.119,84.441 C664.035,84.629 663.85,84.75 663.645,84.75 C666.002,84.75 667.917,86.664 667.917,89.026 L667.917,99.333 C667.917,100.88 668.531,102.364 669.625,103.458 C670.719,104.552 672.203,105.167 673.75,105.167 L683.967,105.167 C685.669,105.167 687.286,105.91 688.394,107.202 C689.502,108.493 689.991,110.205 689.732,111.887 L686.591,132.303 C686.153,135.149 683.705,137.25 680.826,137.25 L641.667,137.25 C640.893,137.25 640.151,136.943 639.604,136.396 C639.057,135.849 638.75,135.107 638.75,134.333 L638.75,113.917 Z" />
        </g>
    </g>
</svg>