<?xml version="1.0" encoding="UTF-8"?>
<svg height="600" width="800" xmlns="http://www.w3.org/2000/svg" xmlns:xlink="http://www.w3.org/1999/xlink">
    <g id="Notes" font-family="LucidaGrande, 'Lucida Grande', sans-serif" font-size="13">
        <rect fill="white" height="600.0" width="800.0" x="0.0" y="0.0" />
        <g font-size="13">
            <text x="18.0" y="176.0">Small</text>
            <text x="18.0" y="376.0">Medium</text>
            <text x="18.0" y="576.0">Large</text>
        </g>
        <g font-size="9">
            <text x="250.0" y="30.0">Ultralight</text>
            <text x="450.0" y="30.0">Regular</text>
            <text x="650.0" y="30.0">Black</text>
            <text id="template-version" fill="#505050" text-anchor="end" x="785.0" y="575.0">Template v.3.0</text>
            <a href="https://github.com/swhitty/SwiftDraw">
                <text fill="#505050" text-anchor="end" x="785.0" y="590.0">https://github.com/swhitty/SwiftDraw</text>
            </a>
        </g>
    </g>
    <g id="Guides" stroke="rgb(39, 170, 225)" stroke-width="0.5">
        <path id="Capline-S" d="M18,76 l800,0" />
        <path id="H-reference" d="M85,145.755 L87.685,145.755 L113.369,79.287 L114.052,79.287 L114.052,76 L112.148,76 L85,145.755 Z M95.693,121.536 L130.996,121.536 L130.263,119.313 L96.474,119.313 L95.693,121.536 Z M139.15,145.755 L141.787,145.755 L114.638,76 L113.466,76 L113.466,79.287 L139.15,145.755 Z" stroke="none" transform="translate(0,200)" />
        <path id="Baseline-S" d="M18,146 l800,0" />
        <path id="left-margin-Ultralight-M" d="M221,256 l0,110" />
        <path id="right-margin-Ultralight-M" d="M309,256 l0,110" />
        <path id="left-margin-Regular-M" d="M421,256 l0,110" />
        <path id="right-margin-Regular-M" d="M509,256 l0,110" />
        <path id="left-margin-Black-M" d="M621,256 l0,110" />
        <path id="right-margin-Black-M" d="M709,256 l0,110" />
        <path id="Capline-M" d="M18,276 l800,0" />
        <path id="Baseline-M" d="M18,346 l800,0" />
        <path id="Capline-L" d="M18,476 l800,0" />
        <path id="Baseline-L" d="M18,546 l800,0" />
    </g>
    <g id="Symbols">
        <g id="Ultralight-M" transform="translate(0,200)">
            <path d="M257.046,132.203 L257.046,108.88 C257.046,107.709 256.096,106.759 254.925,106.759 C253.754,106.759 252.805,107.709 252.805,108.88 L252.805,132.203 C252.805,133.374 253.754,134.324 254.925,134.324 C256.096,134.324 257.046,133.374 257.046,132.203 Z M242.203,113.12 L242.203,127.963 C242.203,129.65 242.874,131.268 244.066,132.461 C245.259,133.654 246.877,134.324 248.564,134.324 L277.032,134.324 C281.218,134.323 284.778,131.269 285.414,127.132 L287.698,112.289 C288.074,109.843 287.363,107.356 285.752,105.478 C284.141,103.6 281.79,102.519 279.316,102.519 L271.888,102.519 C271.888,102.519 271.888,102.519 271.888,102.519 C271.888,102.519 271.888,102.519 271.888,102.519 L271.888,95.025 C271.888,90.967 268.598,87.676 264.539,87.676 C263.012,87.678 261.631,88.577 261.011,89.97 L253.548,106.759 C253.547,106.759 253.547,106.759 253.547,106.759 L248.564,106.759 C246.877,106.759 245.259,107.43 244.066,108.622 C242.874,109.815 242.203,111.433 242.203,113.12 Z M246.444,113.12 C246.444,112.558 246.667,112.019 247.065,111.621 C247.463,111.223 248.002,111 248.564,111 L253.547,111 C255.223,111 256.742,110.013 257.423,108.481 L264.886,91.693 C264.826,91.829 264.691,91.917 264.542,91.917 C266.256,91.917 267.647,93.309 267.647,95.025 L267.647,102.519 C267.647,103.643 268.094,104.722 268.889,105.517 C269.685,106.313 270.763,106.759 271.888,106.759 L279.316,106.759 C280.553,106.759 281.728,107.3 282.534,108.239 C283.339,109.178 283.695,110.422 283.507,111.645 L281.223,126.487 C280.905,128.556 279.125,130.083 277.032,130.083 L248.564,130.083 C248.002,130.083 247.463,129.86 247.065,129.462 C246.667,129.064 246.444,128.525 246.444,127.963 L246.444,113.12 Z" />
        </g>
        <g id="Regular-M" transform="translate(0,200)">
            <path d="M457.046,132.203 L457.046,108.88 C457.046,107.709 456.096,106.759 454.925,106.759 C453.754,106.759 452.805,107.709 452.805,108.88 L452.805,132.203 C452.805,133.374 453.754,134.324 454.925,134.324 C456.096,134.324 457.046,133.374 457.046,132.203 Z M442.203,113.12 L442.203,127.963 C442.203,129.65 442.874,131.268 444.066,132.461 C445.259,133.654 446.877,134.324 448.564,134.324 L477.032,134.324 C481.218,134.323 484.778,131.269 485.414,127.132 L487.698,112.289 C488.074,109.843 487.363,107.356 485.752,105.478 C484.141,103.6 481.79,102.519 479.316,102.519 L471.888,102.519 C471.888,102.519 471.888,102.519 471.888,102.519 C471.888,102.519 471.888,102.519 471.888,102.519 L471.888,95.025 C471.888,90.967 468.598,87.676 464.539,87.676 C463.012,87.678 461.631,88.577 461.011,89.97 L453.548,106.759 C453.547,106.759 453.547,106.759 453.547,106.759 L448.564,106.759 C446.877,106.759 445.259,107.43 444.066,108.622 C442.874,109.815 442.203,111.433 442.203,113.12 Z M446.444,113.12 C446.444,112.558 446.667,112.019 447.065,111.621 C447.463,111.223 448.002,111 448.564,111 L453.547,111 C455.223,111 456.742,110.013 457.423,108.481 L464.886,91.693 C464.826,91.829 464.691,91.917 464.542,91.917 C466.256,91.917 467.647,93.309 467.647,95.025 L467.647,102.519 C467.647,103.643 468.094,104.722 468.889,105.517 C469.685,106.313 470.763,106.759 471.888,106.759 L479.316,106.759 C480.553,106.759 481.728,107.3 482.534,108.239 C483.339,109.178 483.695,110.422 483.507,111.645 L481.223,126.487 C480.905,128.556 479.125,130.083 477.032,130.083 L448.564,130.083 C448.002,130.083 447.463,129.86 447.065,129.462 C446.667,129.064 446.444,128.525 446.444,127.963 L446.444,113.12 Z" />
        </g>
        <g id="Black-M" transform="translate(0,200)">
            <path d="M657.046,132.203 L657.046,108.88 C657.046,107.709 656.096,106.759 654.925,106.759 C653.754,106.759 652.805,107.709 652.805,108.88 L652.805,132.203 C652.805,133.374 653.754,134.324 654.925,134.324 C656.096,134.324 657.046,133.374 657.046,132.203 Z M642.203,113.12 L642.203,127.963 C642.203,129.65 642.874,131.268 644.066,132.461 C645.259,133.654 646.877,134.324 648.564,134.324 L677.032,134.324 C681.218,134.323 684.778,131.269 685.414,127.132 L687.698,112.289 C688.074,109.843 687.363,107.356 685.752,105.478 C684.141,103.6 681.79,102.519 679.316,102.519 L671.888,102.519 C671.888,102.519 671.888,102.519 671.888,102.519 C671.888,102.519 671.888,102.519 671.888,102.519 L671.888,95.025 C671.888,90.967 668.598,87.676 664.539,87.676 C663.012,87.678 661.631,88.577 661.011,89.97 L653.548,106.759 C653.547,106.759 653.547,106.759 653.547,106.759 L648.564,106.759 C646.877,106.759 645.259,107.43 644.066,108.622 C642.874,109.815 642.203,111.433 642.203,113.12 Z M646.444,113.12 C646.444,112.558 646.667,112.019 647.065,111.621 C647.463,111.223 648.002,111 648.564,111 L653.547,111 C655.223,111 656.742,110.013 657.423,108.481 L664.886,91.693 C664.826,91.829 664.691,91.917 664.542,91.917 C666.256,91.917 667.647,93.309 667.647,95.025 L667.647,102.519 C667.647,103.643 668.094,104.722 668.889,105.517 C669.685,106.313 670.763,106.759 671.888,106.759 L679.316,106.759 C680.553,106.759 681.728,107.3 682.534,108.239 C683.339,109.178 683.695,110.422 683.507,111.645 L681.223,126.487 C680.905,128.556 679.125,130.083 677.032,130.083 L648.564,130.083 C648.002,130.083 647.463,129.86 647.065,129.462 C646.667,129.064 646.444,128.525 646.444,127.963 L646.444,113.12 Z" />
        </g>
    </g>
</svg>