<?xml version="1.0" encoding="UTF-8"?>
<svg height="600" width="800" xmlns="http://www.w3.org/2000/svg" xmlns:xlink="http://www.w3.org/1999/xlink">
    <g id="Notes" font-family="LucidaGrande, 'Lucida Grande', sans-serif" font-size="13">
        <rect fill="white" height="600.0" width="800.0" x="0.0" y="0.0" />
        <g font-size="13">
            <text x="18.0" y="176.0">Small</text>
            <text x="18.0" y="376.0">Medium</text>
            <text x="18.0" y="576.0">Large</text>
        </g>
        <g font-size="9">
            <text x="250.0" y="30.0">Ultralight</text>
            <text x="450.0" y="30.0">Regular</text>
            <text x="650.0" y="30.0">Black</text>
            <text id="template-version" fill="#505050" text-anchor="end" x="785.0" y="575.0">Template v.3.0</text>
            <a href="https://github.com/swhitty/SwiftDraw">
                <text fill="#505050" text-anchor="end" x="785.0" y="590.0">https://github.com/swhitty/SwiftDraw</text>
            </a>
        </g>
    </g>
    <g id="Guides" stroke="rgb(39, 170, 225)" stroke-width="0.5">
        <path id="Capline-S" d="M18,76 l800,0" />
        <path id="H-reference" d="M85,145.755 L87.685,145.755 L113.369,79.287 L114.052,79.287 L114.052,76 L112.148,76 L85,145.755 Z M95.693,121.536 L130.996,121.536 L130.263,119.313 L96.474,119.313 L95.693,121.536 Z M139.15,145.755 L141.787,145.755 L114.638,76 L113.466,76 L113.466,79.287 L139.15,145.755 Z" stroke="none" transform="translate(0,200)" />
        <path id="Baseline-S" d="M18,146 l800,0" />
        <path id="left-margin-Ultralight-M" d="M222.222,256 l0,110" />
        <path id="right-margin-Ultralight-M" d="M307.778,256 l0,110" />
        <path id="left-margin-Regular-M" d="M422.222,256 l0,110" />
        <path id="right-margin-Regular-M" d="M507.778,256 l0,110" />
        <path id="left-margin-Black-M" d="M622.222,256 l0,110" />
        <path id="right-margin-Black-M" d="M707.778,256 l0,110" />
        <path id="Capline-M" d="M18,276 l800,0" />
        <path id="Baseline-M" d="M18,346 l800,0" />
        <path id="Capline-L" d="M18,476 l800,0" />
        <path id="Baseline-L" d="M18,546 l800,0" />
    </g>
    <g id="Symbols">
        <g id="Ultralight-M" transform="translate(0,200)">
            <path d="M253.333,95.444 L253.333,91.556 C253.333,89.408 251.592,87.667 249.444,87.667 C247.297,87.667 245.556,89.408 245.556,91.556 L245.556,95.444 C245.556,97.592 247.297,99.333 249.444,99.333 C251.592,99.333 253.333,97.592 253.333,95.444 Z M253.333,112.944 L253.333,109.056 C253.333,106.908 251.592,105.167 249.444,105.167 C247.297,105.167 245.556,106.908 245.556,109.056 L245.556,112.944 C245.556,115.092 247.297,116.833 249.444,116.833 C251.592,116.833 253.333,115.092 253.333,112.944 Z M253.333,130.444 L253.333,126.556 C253.333,124.408 251.592,122.667 249.444,122.667 C247.297,122.667 245.556,124.408 245.556,126.556 L245.556,130.444 C245.556,132.592 247.297,134.333 249.444,134.333 C251.592,134.333 253.333,132.592 253.333,130.444 Z M244.778,146 L285.222,146 C294.17,146 296.297,145.826 299.284,144.305 C302.211,142.813 304.591,140.434 306.082,137.507 C307.604,134.519 307.778,132.392 307.778,123.444 L307.778,98.556 C307.778,89.608 307.604,87.481 306.083,84.494 C304.591,81.566 302.211,79.187 299.284,77.696 C296.297,76.174 294.17,76 285.222,76 L244.778,76 C235.83,76 233.703,76.174 230.716,77.695 C227.789,79.187 225.409,81.566 223.918,84.493 C222.396,87.481 222.222,89.608 222.222,98.556 L222.222,123.444 C222.222,132.392 222.396,134.519 223.918,137.506 C225.409,140.434 227.789,142.813 230.716,144.304 C233.703,145.826 235.83,146 244.778,146 Z M244.778,138.222 C237.392,138.222 235.628,138.078 234.246,137.374 C232.783,136.629 231.593,135.439 230.848,133.976 C230.144,132.594 230,130.83 230,123.444 L230,98.556 C230,91.17 230.144,89.406 230.848,88.024 C231.593,86.561 232.783,85.371 234.247,84.626 C235.628,83.922 237.393,83.778 244.778,83.778 L285.222,83.778 C292.608,83.778 294.372,83.922 295.754,84.626 C297.217,85.371 298.407,86.561 299.152,88.024 C299.856,89.406 300,91.17 300,98.556 L300,123.444 C300,130.83 299.856,132.594 299.152,133.976 C298.407,135.439 297.217,136.629 295.753,137.374 C294.372,138.078 292.608,138.222 285.222,138.222 L244.778,138.222 Z" />
        </g>
        <g id="Regular-M" transform="translate(0,200)">
            <path d="M453.333,95.444 L453.333,91.556 C453.333,89.408 451.592,87.667 449.444,87.667 C447.297,87.667 445.556,89.408 445.556,91.556 L445.556,95.444 C445.556,97.592 447.297,99.333 449.444,99.333 C451.592,99.333 453.333,97.592 453.333,95.444 Z M453.333,112.944 L453.333,109.056 C453.333,106.908 451.592,105.167 449.444,105.167 C447.297,105.167 445.556,106.908 445.556,109.056 L445.556,112.944 C445.556,115.092 447.297,116.833 449.444,116.833 C451.592,116.833 453.333,115.092 453.333,112.944 Z M453.333,130.444 L453.333,126.556 C453.333,124.408 451.592,122.667 449.444,122.667 C447.297,122.667 445.556,124.408 445.556,126.556 L445.556,130.444 C445.556,132.592 447.297,134.333 449.444,134.333 C451.592,134.333 453.333,132.592 453.333,130.444 Z M444.778,146 L485.222,146 C494.17,146 496.297,145.826 499.284,144.305 C502.211,142.813 504.591,140.434 506.082,137.507 C507.604,134.519 507.778,132.392 507.778,123.444 L507.778,98.556 C507.778,89.608 507.604,87.481 506.083,84.494 C504.591,81.566 502.211,79.187 499.284,77.696 C496.297,76.174 494.17,76 485.222,76 L444.778,76 C435.83,76 433.703,76.174 430.716,77.695 C427.789,79.187 425.409,81.566 423.918,84.493 C422.396,87.481 422.222,89.608 422.222,98.556 L422.222,123.444 C422.222,132.392 422.396,134.519 423.918,137.506 C425.409,140.434 427.789,142.813 430.716,144.304 C433.703,145.826 435.83,146 444.778,146 Z M444.778,138.222 C437.392,138.222 435.628,138.078 434.246,137.374 C432.783,136.629 431.593,135.439 430.848,133.976 C430.144,132.594 430,130.83 430,123.444 L430,98.556 C430,91.17 430.144,89.406 430.848,88.024 C431.593,86.561 432.783,85.371 434.247,84.626 C435.628,83.922 437.392,83.778 444.778,83.778 L485.222,83.778 C492.608,83.778 494.372,83.922 495.754,84.626 C497.217,85.371 498.407,86.561 499.152,88.024 C499.856,89.406 500,91.17 500,98.556 L500,123.444 C500,130.83 499.856,132.594 499.152,133.976 C498.407,135.439 497.217,136.629 495.753,137.374 C494.372,138.078 492.608,138.222 485.222,138.222 L444.778,138.222 Z" />
        </g>
        <g id="Black-M" transform="translate(0,200)">
            <path d="M653.333,95.444 L653.333,91.556 C653.333,89.408 651.592,87.667 649.444,87.667 C647.297,87.667 645.556,89.408 645.556,91.556 L645.556,95.444 C645.556,97.592 647.297,99.333 649.444,99.333 C651.592,99.333 653.333,97.592 653.333,95.444 Z M653.333,112.944 L653.333,109.056 C653.333,106.908 651.592,105.167 649.444,105.167 C647.297,105.167 645.556,106.908 645.556,109.056 L645.556,112.944 C645.556,115.092 647.297,116.833 649.444,116.833 C651.592,116.833 653.333,115.092 653.333,112.944 Z M653.333,130.444 L653.333,126.556 C653.333,124.408 651.592,122.667 649.444,122.667 C647.297,122.667 645.556,124.408 645.556,126.556 L645.556,130.444 C645.556,132.592 647.297,134.333 649.444,134.333 C651.592,134.333 653.333,132.592 653.333,130.444 Z M644.778,146 L685.222,146 C694.17,146 696.297,145.826 699.284,144.305 C702.211,142.813 704.591,140.434 706.082,137.507 C707.604,134.519 707.778,132.392 707.778,123.444 L707.778,98.556 C707.778,89.608 707.604,87.481 706.083,84.494 C704.591,81.566 702.211,79.187 699.284,77.696 C696.297,76.174 694.17,76 685.222,76 L644.778,76 C635.83,76 633.703,76.174 630.716,77.695 C627.789,79.187 625.409,81.566 623.918,84.493 C622.396,87.481 622.222,89.608 622.222,98.556 L622.222,123.444 C622.222,132.392 622.396,134.519 623.917,137.506 C625.409,140.434 627.789,142.813 630.716,144.304 C633.703,145.826 635.83,146 644.778,146 Z M644.778,138.222 C637.393,138.222 635.628,138.078 634.246,137.374 C632.783,136.629 631.593,135.439 630.848,133.976 C630.144,132.594 630,130.83 630,123.444 L630,98.556 C630,91.17 630.144,89.406 630.848,88.024 C631.593,86.561 632.783,85.371 634.247,84.626 C635.628,83.922 637.393,83.778 644.778,83.778 L685.222,83.778 C692.608,83.778 694.372,83.922 695.754,84.626 C697.217,85.371 698.407,86.561 699.152,88.024 C699.856,89.406 700,91.17 700,98.556 L700,123.444 C700,130.83 699.856,132.594 699.152,133.976 C698.407,135.439 697.217,136.629 695.753,137.374 C694.372,138.078 692.608,138.222 685.222,138.222 L644.778,138.222 Z" />
        </g>
    </g>
</svg>