<?xml version="1.0" encoding="UTF-8"?>
<svg height="600" width="800" xmlns="http://www.w3.org/2000/svg" xmlns:xlink="http://www.w3.org/1999/xlink">
    <g id="Notes" font-family="LucidaGrande, 'Lucida Grande', sans-serif" font-size="13">
        <rect fill="white" height="600.0" width="800.0" x="0.0" y="0.0" />
        <g font-size="13">
            <text x="18.0" y="176.0">Small</text>
            <text x="18.0" y="376.0">Medium</text>
            <text x="18.0" y="576.0">Large</text>
        </g>
        <g font-size="9">
            <text x="250.0" y="30.0">Ultralight</text>
            <text x="450.0" y="30.0">Regular</text>
            <text x="650.0" y="30.0">Black</text>
            <text id="template-version" fill="#505050" text-anchor="end" x="785.0" y="575.0">Template v.3.0</text>
            <a href="https://github.com/swhitty/SwiftDraw">
                <text fill="#505050" text-anchor="end" x="785.0" y="590.0">https://github.com/swhitty/SwiftDraw</text>
            </a>
        </g>
    </g>
    <g id="Guides" stroke="rgb(39, 170, 225)" stroke-width="0.5">
        <path id="Capline-S" d="M18,76 l800,0" />
        <path id="H-reference" d="M85,145.755 L87.685,145.755 L113.369,79.287 L114.052,79.287 L114.052,76 L112.148,76 L85,145.755 Z M95.693,121.536 L130.996,121.536 L130.263,119.313 L96.474,119.313 L95.693,121.536 Z M139.15,145.755 L141.787,145.755 L114.638,76 L113.466,76 L113.466,79.287 L139.15,145.755 Z" stroke="none" transform="translate(0,200)" />
        <path id="Baseline-S" d="M18,146 l800,0" />
        <path id="left-margin-Ultralight-M" d="M221,256 l0,110" />
        <path id="right-margin-Ultralight-M" d="M309,256 l0,110" />
        <path id="left-margin-Regular-M" d="M421,256 l0,110" />
        <path id="right-margin-Regular-M" d="M509,256 l0,110" />
        <path id="left-margin-Black-M" d="M621,256 l0,110" />
        <path id="right-margin-Black-M" d="M709,256 l0,110" />
        <path id="Capline-M" d="M18,276 l800,0" />
        <path id="Baseline-M" d="M18,346 l800,0" />
        <path id="Capline-L" d="M18,476 l800,0" />
        <path id="Baseline-L" d="M18,546 l800,0" />
    </g>
    <g id="Symbols">
        <g id="Ultralight-M" transform="translate(0,200)">
            <path d="M254.524,123.571 L275.476,123.571 C282.419,123.571 288.048,117.943 288.048,111 C288.048,104.057 282.419,98.429 275.476,98.429 L254.524,98.429 C253.367,98.429 252.429,99.367 252.429,100.524 C252.429,101.681 253.367,102.619 254.524,102.619 L275.476,102.619 C280.105,102.619 283.857,106.371 283.857,111 C283.857,115.629 280.105,119.381 275.476,119.381 L254.524,119.381 C253.367,119.381 252.429,120.319 252.429,121.476 C252.429,122.633 253.367,123.571 254.524,123.571 Z M254.524,119.381 C249.895,119.381 246.143,115.629 246.143,111 C246.143,106.371 249.895,102.619 254.524,102.619 C255.681,102.619 256.619,101.681 256.619,100.524 C256.619,99.367 255.681,98.429 254.524,98.429 C247.581,98.429 241.952,104.057 241.952,111 C241.952,117.943 247.581,123.571 254.524,123.571 C255.681,123.571 256.619,122.633 256.619,121.476 C256.619,120.319 255.681,119.381 254.524,119.381 Z M254.524,123.571 C261.467,123.571 267.095,117.943 267.095,111 C267.095,104.057 261.467,98.429 254.524,98.429 C253.367,98.429 252.429,99.367 252.429,100.524 C252.429,101.681 253.367,102.619 254.524,102.619 C259.152,102.619 262.905,106.371 262.905,111 C262.905,115.629 259.152,119.381 254.524,119.381 C253.367,119.381 252.429,120.319 252.429,121.476 C252.429,122.633 253.367,123.571 254.524,123.571 Z" />
        </g>
        <g id="Regular-M" transform="translate(0,200)">
            <path d="M454.524,123.571 L475.476,123.571 C482.419,123.571 488.048,117.943 488.048,111 C488.048,104.057 482.419,98.429 475.476,98.429 L454.524,98.429 C453.367,98.429 452.429,99.367 452.429,100.524 C452.429,101.681 453.367,102.619 454.524,102.619 L475.476,102.619 C480.105,102.619 483.857,106.371 483.857,111 C483.857,115.629 480.105,119.381 475.476,119.381 L454.524,119.381 C453.367,119.381 452.429,120.319 452.429,121.476 C452.429,122.633 453.367,123.571 454.524,123.571 Z M454.524,119.381 C449.895,119.381 446.143,115.629 446.143,111 C446.143,106.371 449.895,102.619 454.524,102.619 C455.681,102.619 456.619,101.681 456.619,100.524 C456.619,99.367 455.681,98.429 454.524,98.429 C447.581,98.429 441.952,104.057 441.952,111 C441.952,117.943 447.581,123.571 454.524,123.571 C455.681,123.571 456.619,122.633 456.619,121.476 C456.619,120.319 455.681,119.381 454.524,119.381 Z M454.524,123.571 C461.467,123.571 467.095,117.943 467.095,111 C467.095,104.057 461.467,98.429 454.524,98.429 C453.367,98.429 452.429,99.367 452.429,100.524 C452.429,101.681 453.367,102.619 454.524,102.619 C459.152,102.619 462.905,106.371 462.905,111 C462.905,115.629 459.152,119.381 454.524,119.381 C453.367,119.381 452.429,120.319 452.429,121.476 C452.429,122.633 453.367,123.571 454.524,123.571 Z" />
        </g>
        <g id="Black-M" transform="translate(0,200)">
            <path d="M654.524,123.571 L675.476,123.571 C682.419,123.571 688.048,117.943 688.048,111 C688.048,104.057 682.419,98.429 675.476,98.429 L654.524,98.429 C653.367,98.429 652.429,99.367 652.429,100.524 C652.429,101.681 653.367,102.619 654.524,102.619 L675.476,102.619 C680.105,102.619 683.857,106.371 683.857,111 C683.857,115.629 680.105,119.381 675.476,119.381 L654.524,119.381 C653.367,119.381 652.429,120.319 652.429,121.476 C652.429,122.633 653.367,123.571 654.524,123.571 Z M654.524,119.381 C649.895,119.381 646.143,115.629 646.143,111 C646.143,106.371 649.895,102.619 654.524,102.619 C655.681,102.619 656.619,101.681 656.619,100.524 C656.619,99.367 655.681,98.429 654.524,98.429 C647.581,98.429 641.952,104.057 641.952,111 C641.952,117.943 647.581,123.571 654.524,123.571 C655.681,123.571 656.619,122.633 656.619,121.476 C656.619,120.319 655.681,119.381 654.524,119.381 Z M654.524,123.571 C661.467,123.571 667.095,117.943 667.095,111 C667.095,104.057 661.467,98.429 654.524,98.429 C653.367,98.429 652.429,99.367 652.429,100.524 C652.429,101.681 653.367,102.619 654.524,102.619 C659.152,102.619 662.905,106.371 662.905,111 C662.905,115.629 659.152,119.381 654.524,119.381 C653.367,119.381 652.429,120.319 652.429,121.476 C652.429,122.633 653.367,123.571 654.524,123.571 Z" />
        </g>
    </g>
</svg>