<?xml version="1.0" encoding="UTF-8"?>
<svg height="600" width="800" xmlns="http://www.w3.org/2000/svg" xmlns:xlink="http://www.w3.org/1999/xlink">
    <g id="Notes" font-family="LucidaGrande, 'Lucida Grande', sans-serif" font-size="13">
        <rect fill="white" height="600.0" width="800.0" x="0.0" y="0.0" />
        <g font-size="13">
            <text x="18.0" y="176.0">Small</text>
            <text x="18.0" y="376.0">Medium</text>
            <text x="18.0" y="576.0">Large</text>
        </g>
        <g font-size="9">
            <text x="250.0" y="30.0">Ultralight</text>
            <text x="450.0" y="30.0">Regular</text>
            <text x="650.0" y="30.0">Black</text>
            <text id="template-version" fill="#505050" text-anchor="end" x="785.0" y="575.0">Template v.3.0</text>
            <a href="https://github.com/swhitty/SwiftDraw">
                <text fill="#505050" text-anchor="end" x="785.0" y="590.0">https://github.com/swhitty/SwiftDraw</text>
            </a>
        </g>
    </g>
    <g id="Guides" stroke="rgb(39, 170, 225)" stroke-width="0.5">
        <path id="Capline-S" d="M18,76 l800,0" />
        <path id="H-reference" d="M85,145.755 L87.685,145.755 L113.369,79.287 L114.052,79.287 L114.052,76 L112.148,76 L85,145.755 Z M95.693,121.536 L130.996,121.536 L130.263,119.313 L96.474,119.313 L95.693,121.536 Z M139.15,145.755 L141.787,145.755 L114.638,76 L113.466,76 L113.466,79.287 L139.15,145.755 Z" stroke="none" transform="translate(0,200)" />
        <path id="Baseline-S" d="M18,146 l800,0" />
        <path id="left-margin-Ultralight-M" d="M221,256 l0,110" />
        <path id="right-margin-Ultralight-M" d="M309,256 l0,110" />
        <path id="left-margin-Regular-M" d="M421,256 l0,110" />
        <path id="right-margin-Regular-M" d="M509,256 l0,110" />
        <path id="left-margin-Black-M" d="M621,256 l0,110" />
        <path id="right-margin-Black-M" d="M709,256 l0,110" />
        <path id="Capline-M" d="M18,276 l800,0" />
        <path id="Baseline-M" d="M18,346 l800,0" />
        <path id="Capline-L" d="M18,476 l800,0" />
        <path id="Baseline-L" d="M18,546 l800,0" />
    </g>
    <g id="Symbols">
        <g id="Ultralight-M" transform="translate(0,200)">
            <path d="M269.19,117.286 L252.429,117.286 C248.957,117.286 246.143,114.472 246.143,111 C246.143,107.528 248.957,104.714 252.429,104.714 L269.19,104.714 C270.348,104.714 271.286,103.776 271.286,102.619 C271.286,101.462 270.348,100.524 269.19,100.524 L252.429,100.524 C246.643,100.524 241.952,105.214 241.952,111 C241.952,116.786 246.643,121.476 252.429,121.476 L269.19,121.476 C270.348,121.476 271.286,120.538 271.286,119.381 C271.286,118.224 270.348,117.286 269.19,117.286 Z M283.857,111 C283.857,115.629 280.105,119.381 275.476,119.381 C270.848,119.381 267.095,115.629 267.095,111 C267.095,106.371 270.848,102.619 275.476,102.619 C280.105,102.619 283.857,106.371 283.857,111 Z M288.048,111 C288.048,104.057 282.419,98.429 275.476,98.429 C268.533,98.429 262.905,104.057 262.905,111 C262.905,117.943 268.533,123.571 275.476,123.571 C282.419,123.571 288.048,117.943 288.048,111 Z" />
        </g>
        <g id="Regular-M" transform="translate(0,200)">
            <path d="M469.19,117.286 L452.429,117.286 C448.957,117.286 446.143,114.472 446.143,111 C446.143,107.528 448.957,104.714 452.429,104.714 L469.19,104.714 C470.348,104.714 471.286,103.776 471.286,102.619 C471.286,101.462 470.348,100.524 469.19,100.524 L452.429,100.524 C446.643,100.524 441.952,105.214 441.952,111 C441.952,116.786 446.643,121.476 452.429,121.476 L469.19,121.476 C470.348,121.476 471.286,120.538 471.286,119.381 C471.286,118.224 470.348,117.286 469.19,117.286 Z M483.857,111 C483.857,115.629 480.105,119.381 475.476,119.381 C470.848,119.381 467.095,115.629 467.095,111 C467.095,106.371 470.848,102.619 475.476,102.619 C480.105,102.619 483.857,106.371 483.857,111 Z M488.048,111 C488.048,104.057 482.419,98.429 475.476,98.429 C468.533,98.429 462.905,104.057 462.905,111 C462.905,117.943 468.533,123.571 475.476,123.571 C482.419,123.571 488.048,117.943 488.048,111 Z" />
        </g>
        <g id="Black-M" transform="translate(0,200)">
            <path d="M669.19,117.286 L652.429,117.286 C648.957,117.286 646.143,114.472 646.143,111 C646.143,107.528 648.957,104.714 652.429,104.714 L669.19,104.714 C670.348,104.714 671.286,103.776 671.286,102.619 C671.286,101.462 670.348,100.524 669.19,100.524 L652.429,100.524 C646.643,100.524 641.952,105.214 641.952,111 C641.952,116.786 646.643,121.476 652.429,121.476 L669.19,121.476 C670.348,121.476 671.286,120.538 671.286,119.381 C671.286,118.224 670.348,117.286 669.19,117.286 Z M683.857,111 C683.857,115.629 680.105,119.381 675.476,119.381 C670.847,119.381 667.095,115.629 667.095,111 C667.095,106.371 670.847,102.619 675.476,102.619 C680.105,102.619 683.857,106.371 683.857,111 Z M688.048,111 C688.048,104.057 682.419,98.429 675.476,98.429 C668.533,98.429 662.905,104.057 662.905,111 C662.905,117.943 668.533,123.571 675.476,123.571 C682.419,123.571 688.048,117.943 688.048,111 Z" />
        </g>
    </g>
</svg>