<?xml version="1.0" encoding="UTF-8"?>
<svg height="600" width="800" xmlns="http://www.w3.org/2000/svg" xmlns:xlink="http://www.w3.org/1999/xlink">
    <g id="Notes" font-family="LucidaGrande, 'Lucida Grande', sans-serif" font-size="13">
        <rect fill="white" height="600.0" width="800.0" x="0.0" y="0.0" />
        <g font-size="13">
            <text x="18.0" y="176.0">Small</text>
            <text x="18.0" y="376.0">Medium</text>
            <text x="18.0" y="576.0">Large</text>
        </g>
        <g font-size="9">
            <text x="250.0" y="30.0">Ultralight</text>
            <text x="450.0" y="30.0">Regular</text>
            <text x="650.0" y="30.0">Black</text>
            <text id="template-version" fill="#505050" text-anchor="end" x="785.0" y="575.0">Template v.3.0</text>
            <a href="https://github.com/swhitty/SwiftDraw">
                <text fill="#505050" text-anchor="end" x="785.0" y="590.0">https://github.com/swhitty/SwiftDraw</text>
            </a>
        </g>
    </g>
    <g id="Guides" stroke="rgb(39, 170, 225)" stroke-width="0.5">
        <path id="Capline-S" d="M18,76 l800,0" />
        <path id="H-reference" d="M85,145.755 L87.685,145.755 L113.369,79.287 L114.052,79.287 L114.052,76 L112.148,76 L85,145.755 Z M95.693,121.536 L130.996,121.536 L130.263,119.313 L96.474,119.313 L95.693,121.536 Z M139.15,145.755 L141.787,145.755 L114.638,76 L113.466,76 L113.466,79.287 L139.15,145.755 Z" stroke="none" transform="translate(0,200)" />
        <path id="Baseline-S" d="M18,146 l800,0" />
        <path id="left-margin-Ultralight-M" d="M230,256 l0,110" />
        <path id="right-margin-Ultralight-M" d="M300,256 l0,110" />
        <path id="left-margin-Regular-M" d="M430,256 l0,110" />
        <path id="right-margin-Regular-M" d="M500,256 l0,110" />
        <path id="left-margin-Black-M" d="M630,256 l0,110" />
        <path id="right-margin-Black-M" d="M700,256 l0,110" />
        <path id="Capline-M" d="M18,276 l800,0" />
        <path id="Baseline-M" d="M18,346 l800,0" />
        <path id="Capline-L" d="M18,476 l800,0" />
        <path id="Baseline-L" d="M18,546 l800,0" />
    </g>
    <g id="Symbols">
        <g id="Ultralight-M" transform="translate(0,200)">
            <path d="M236.364,111 C236.364,106.781 238.04,102.734 241.023,99.751 C244.007,96.767 248.053,95.091 252.273,95.091 L277.727,95.091 C286.514,95.091 293.636,102.214 293.636,111 C293.636,119.786 286.514,126.909 277.727,126.909 L252.273,126.909 C248.053,126.909 244.007,125.233 241.023,122.249 C238.04,119.266 236.364,115.219 236.364,111 Z M230,111 C230,116.907 232.347,122.572 236.524,126.749 C240.7,130.926 246.366,133.273 252.273,133.273 L277.727,133.273 C290.028,133.273 300,123.301 300,111 C300,98.699 290.028,88.727 277.727,88.727 L252.273,88.727 C246.366,88.727 240.7,91.074 236.524,95.251 C232.347,99.428 230,105.093 230,111 Z" />
            <path d="M277.727,122.136 C283.878,122.136 288.864,117.15 288.864,111 C288.864,104.85 283.878,99.864 277.727,99.864 C271.577,99.864 266.591,104.85 266.591,111 C266.591,117.15 271.577,122.136 277.727,122.136 Z M277.727,115.773 C275.091,115.773 272.955,113.636 272.955,111 C272.955,108.364 275.091,106.227 277.727,106.227 C280.363,106.227 282.5,108.364 282.5,111 C282.5,113.636 280.363,115.773 277.727,115.773 Z" />
        </g>
        <g id="Regular-M" transform="translate(0,200)">
            <path d="M436.364,111 C436.364,106.781 438.04,102.734 441.023,99.751 C444.007,96.767 448.053,95.091 452.273,95.091 L477.727,95.091 C486.514,95.091 493.636,102.214 493.636,111 C493.636,119.786 486.514,126.909 477.727,126.909 L452.273,126.909 C448.053,126.909 444.007,125.233 441.023,122.249 C438.04,119.266 436.364,115.219 436.364,111 Z M430,111 C430,116.907 432.347,122.572 436.524,126.749 C440.7,130.926 446.366,133.273 452.273,133.273 L477.727,133.273 C490.028,133.273 500,123.301 500,111 C500,98.699 490.028,88.727 477.727,88.727 L452.273,88.727 C446.366,88.727 440.7,91.074 436.524,95.251 C432.347,99.428 430,105.093 430,111 Z" />
            <path d="M477.727,122.136 C483.878,122.136 488.864,117.15 488.864,111 C488.864,104.85 483.878,99.864 477.727,99.864 C471.577,99.864 466.591,104.85 466.591,111 C466.591,117.15 471.577,122.136 477.727,122.136 Z M477.727,115.773 C475.091,115.773 472.955,113.636 472.955,111 C472.955,108.364 475.091,106.227 477.727,106.227 C480.363,106.227 482.5,108.364 482.5,111 C482.5,113.636 480.363,115.773 477.727,115.773 Z" />
        </g>
        <g id="Black-M" transform="translate(0,200)">
            <path d="M636.364,111 C636.364,106.781 638.04,102.734 641.023,99.751 C644.007,96.767 648.053,95.091 652.273,95.091 L677.727,95.091 C686.514,95.091 693.636,102.214 693.636,111 C693.636,119.786 686.514,126.909 677.727,126.909 L652.273,126.909 C648.053,126.909 644.007,125.233 641.023,122.249 C638.04,119.266 636.364,115.219 636.364,111 Z M630,111 C630,116.907 632.347,122.572 636.524,126.749 C640.701,130.926 646.366,133.273 652.273,133.273 L677.727,133.273 C690.028,133.273 700,123.301 700,111 C700,98.699 690.028,88.727 677.727,88.727 L652.273,88.727 C646.366,88.727 640.701,91.074 636.524,95.251 C632.347,99.428 630,105.093 630,111 Z" />
            <path d="M677.727,122.136 C683.878,122.136 688.864,117.15 688.864,111 C688.864,104.85 683.878,99.864 677.727,99.864 C671.577,99.864 666.591,104.85 666.591,111 C666.591,117.15 671.577,122.136 677.727,122.136 Z M677.727,115.773 C675.091,115.773 672.955,113.636 672.955,111 C672.955,108.364 675.091,106.227 677.727,106.227 C680.363,106.227 682.5,108.364 682.5,111 C682.5,113.636 680.363,115.773 677.727,115.773 Z" />
        </g>
    </g>
</svg>