<?xml version="1.0" encoding="UTF-8"?>
<svg height="600" width="800" xmlns="http://www.w3.org/2000/svg" xmlns:xlink="http://www.w3.org/1999/xlink">
    <g id="Notes" font-family="LucidaGrande, 'Lucida Grande', sans-serif" font-size="13">
        <rect fill="white" height="600.0" width="800.0" x="0.0" y="0.0" />
        <g font-size="13">
            <text x="18.0" y="176.0">Small</text>
            <text x="18.0" y="376.0">Medium</text>
            <text x="18.0" y="576.0">Large</text>
        </g>
        <g font-size="9">
            <text x="250.0" y="30.0">Ultralight</text>
            <text x="450.0" y="30.0">Regular</text>
            <text x="650.0" y="30.0">Black</text>
            <text id="template-version" fill="#505050" text-anchor="end" x="785.0" y="575.0">Template v.3.0</text>
            <a href="https://github.com/swhitty/SwiftDraw">
                <text fill="#505050" text-anchor="end" x="785.0" y="590.0">https://github.com/swhitty/SwiftDraw</text>
            </a>
        </g>
    </g>
    <g id="Guides" stroke="rgb(39, 170, 225)" stroke-width="0.5">
        <path id="Capline-S" d="M18,76 l800,0" />
        <path id="H-reference" d="M85,145.755 L87.685,145.755 L113.369,79.287 L114.052,79.287 L114.052,76 L112.148,76 L85,145.755 Z M95.693,121.536 L130.996,121.536 L130.263,119.313 L96.474,119.313 L95.693,121.536 Z M139.15,145.755 L141.787,145.755 L114.638,76 L113.466,76 L113.466,79.287 L139.15,145.755 Z" stroke="none" transform="translate(0,200)" />
        <path id="Baseline-S" d="M18,146 l800,0" />
        <path id="left-margin-Ultralight-M" d="M230,256 l0,110" />
        <path id="right-margin-Ultralight-M" d="M300,256 l0,110" />
        <path id="left-margin-Regular-M" d="M430,256 l0,110" />
        <path id="right-margin-Regular-M" d="M500,256 l0,110" />
        <path id="left-margin-Black-M" d="M630,256 l0,110" />
        <path id="right-margin-Black-M" d="M700,256 l0,110" />
        <path id="Capline-M" d="M18,276 l800,0" />
        <path id="Baseline-M" d="M18,346 l800,0" />
        <path id="Capline-L" d="M18,476 l800,0" />
        <path id="Baseline-L" d="M18,546 l800,0" />
    </g>
    <g id="Symbols">
        <g id="Ultralight-M" transform="translate(0,200)">
            <path d="M243.657,95.564 L257.974,109.88 C259.216,111.122 261.23,111.122 262.473,109.88 C263.715,108.638 263.715,106.623 262.473,105.381 L248.157,91.065 C246.914,89.822 244.9,89.822 243.657,91.065 C242.415,92.307 242.415,94.321 243.657,95.564 Z M245.907,90.133 L236.363,90.133 L239.381,92.308 L236.2,82.764 L235.431,86.02 L238.612,82.838 L235.357,83.607 L244.901,86.788 L242.726,83.77 L242.726,93.314 L245.907,90.133 Z M245.907,96.496 C247.664,96.496 249.088,95.071 249.088,93.314 L249.088,83.77 C249.088,82.401 248.212,81.185 246.913,80.752 L237.369,77.57 C236.226,77.189 234.965,77.487 234.113,78.339 L230.932,81.52 C230.08,82.372 229.782,83.633 230.163,84.776 L233.345,94.32 C233.778,95.619 234.993,96.496 236.363,96.496 L245.907,96.496 Z M285.84,80.696 L277.479,89.057 C275.747,90.789 275.337,91.249 274.851,92.258 C274.744,92.48 274.653,92.707 274.577,92.94 C274.162,94.217 274.162,95.593 274.578,96.871 C274.653,97.103 274.744,97.33 274.851,97.551 C275.337,98.561 275.747,99.021 277.479,100.753 L278.236,101.51 C280.264,103.538 280.782,103.978 282.119,104.411 C283.396,104.826 284.772,104.826 286.05,104.411 C286.282,104.336 286.509,104.244 286.73,104.138 C287.74,103.652 288.2,103.242 289.931,101.51 L297.755,93.687 L292.562,92.646 C294.568,97.526 293.727,103.112 290.375,107.186 C287.023,111.259 281.702,113.159 276.528,112.13 C274.101,111.649 273.7,111.585 272.819,111.669 C272.007,111.717 271.114,111.99 270.32,112.457 C269.662,112.809 269.356,113.087 268.021,114.422 L245.248,137.195 C243.856,138.587 241.598,138.586 240.205,137.193 C238.812,135.801 238.811,133.543 240.204,132.149 L262.972,109.381 C264.309,108.044 264.589,107.735 265.001,106.964 C265.405,106.279 265.675,105.389 265.73,104.472 C265.81,103.71 265.753,103.346 265.266,100.875 C264.167,95.352 266.403,89.703 270.98,86.431 C275.557,83.159 281.626,82.871 286.492,85.695 L288.089,82.943 L284.932,83.339 L284.932,83.342 L288.089,82.946 L285.84,80.696 Z M290.339,85.196 C291.033,84.501 291.368,83.525 291.246,82.55 L291.245,82.547 C291.122,81.562 290.545,80.69 289.686,80.192 C282.657,76.113 273.891,76.528 267.28,81.255 C260.669,85.981 257.439,94.141 259.024,102.111 C259.303,103.528 259.383,104.029 259.39,103.96 C259.384,104.007 259.408,103.928 259.45,103.857 C259.412,103.923 259.22,104.135 258.473,104.882 L235.704,127.651 C231.827,131.53 231.828,137.816 235.706,141.693 C239.583,145.57 245.868,145.571 249.747,141.695 L272.52,118.922 C273.268,118.173 273.482,117.979 273.442,118 C273.477,117.982 273.397,118.007 273.315,118.012 C273.362,118.009 273.876,118.091 275.29,118.371 C282.76,119.857 290.446,117.113 295.288,111.229 C300.13,105.345 301.344,97.276 298.448,90.228 C297.584,88.127 294.861,87.582 293.255,89.188 L285.432,97.011 C284.357,98.086 284.034,98.374 283.969,98.405 C284.003,98.389 284.042,98.373 284.085,98.359 C284.084,98.36 284.084,98.36 284.084,98.36 C284.15,98.381 283.857,98.132 282.735,97.011 L281.978,96.253 C280.903,95.178 280.614,94.855 280.583,94.79 C280.6,94.824 280.615,94.863 280.629,94.906 C280.629,94.905 280.629,94.905 280.629,94.905 C280.615,94.947 280.6,94.986 280.583,95.019 C280.614,94.955 280.903,94.632 281.978,93.556 L290.339,85.196 Z M262.746,124.196 L280.243,141.694 C284.122,145.571 290.408,145.57 294.285,141.693 C298.162,137.816 298.164,131.53 294.288,127.652 L279.891,113.255 C279.367,112.731 278.676,112.406 277.938,112.337 C277.117,112.26 276.305,112.113 275.509,111.895 C273.166,111.252 270.643,111.801 268.918,113.526 L262.746,119.697 C261.503,120.939 261.503,122.954 262.746,124.196 Z M267.245,119.697 L267.245,124.196 L273.417,118.025 C273.442,118 273.592,117.967 273.829,118.032 C274.982,118.347 276.158,118.561 277.346,118.672 L277.642,115.505 L275.392,117.754 L289.788,132.15 C291.179,133.543 291.179,135.801 289.786,137.193 C288.393,138.586 286.135,138.587 284.742,137.194 L267.245,119.697 Z" />
        </g>
        <g id="Regular-M" transform="translate(0,200)">
            <path d="M443.657,95.564 L457.974,109.88 C459.216,111.122 461.23,111.122 462.473,109.88 C463.715,108.638 463.715,106.623 462.473,105.381 L448.157,91.065 C446.914,89.822 444.9,89.822 443.657,91.065 C442.415,92.307 442.415,94.321 443.657,95.564 Z M445.907,90.133 L436.363,90.133 L439.381,92.308 L436.2,82.764 L435.431,86.02 L438.612,82.838 L435.357,83.607 L444.901,86.788 L442.726,83.77 L442.726,93.314 L445.907,90.133 Z M445.907,96.496 C447.664,96.496 449.088,95.071 449.088,93.314 L449.088,83.77 C449.088,82.401 448.212,81.185 446.913,80.752 L437.369,77.57 C436.226,77.189 434.965,77.487 434.113,78.339 L430.932,81.52 C430.08,82.372 429.782,83.633 430.163,84.776 L433.345,94.32 C433.778,95.619 434.993,96.496 436.363,96.496 L445.907,96.496 Z M485.84,80.696 L477.479,89.057 C475.747,90.789 475.337,91.249 474.851,92.258 C474.744,92.48 474.653,92.707 474.577,92.94 C474.162,94.217 474.162,95.593 474.578,96.871 C474.653,97.103 474.744,97.33 474.851,97.551 C475.337,98.561 475.747,99.021 477.479,100.753 L478.236,101.51 C480.264,103.538 480.782,103.978 482.119,104.411 C483.396,104.826 484.772,104.826 486.05,104.411 C486.282,104.336 486.509,104.244 486.73,104.138 C487.74,103.652 488.2,103.242 489.931,101.51 L497.755,93.687 L492.562,92.646 C494.568,97.526 493.727,103.112 490.375,107.186 C487.023,111.259 481.702,113.159 476.528,112.13 C474.101,111.649 473.7,111.585 472.819,111.669 C472.007,111.717 471.114,111.99 470.32,112.457 C469.662,112.809 469.356,113.087 468.021,114.422 L445.248,137.195 C443.856,138.587 441.598,138.586 440.205,137.193 C438.812,135.801 438.811,133.543 440.204,132.149 L462.972,109.381 C464.309,108.044 464.589,107.735 465.001,106.964 C465.405,106.279 465.675,105.389 465.73,104.472 C465.81,103.71 465.753,103.346 465.266,100.875 C464.167,95.352 466.403,89.703 470.98,86.431 C475.557,83.159 481.626,82.871 486.492,85.695 L488.089,82.943 L484.932,83.339 L484.932,83.342 L488.089,82.946 L485.84,80.696 Z M490.339,85.196 C491.033,84.501 491.368,83.525 491.246,82.55 L491.245,82.547 C491.122,81.562 490.545,80.69 489.686,80.192 C482.657,76.113 473.891,76.528 467.28,81.255 C460.669,85.981 457.439,94.141 459.024,102.111 C459.303,103.528 459.383,104.029 459.39,103.96 C459.384,104.007 459.408,103.928 459.45,103.857 C459.412,103.923 459.22,104.135 458.473,104.882 L435.704,127.651 C431.827,131.53 431.828,137.816 435.706,141.693 C439.583,145.57 445.868,145.571 449.747,141.695 L472.52,118.922 C473.268,118.173 473.482,117.979 473.442,118 C473.477,117.982 473.397,118.007 473.315,118.012 C473.362,118.009 473.876,118.091 475.29,118.371 C482.76,119.857 490.446,117.113 495.288,111.229 C500.13,105.345 501.344,97.276 498.448,90.228 C497.584,88.127 494.861,87.582 493.255,89.188 L485.432,97.011 C484.357,98.086 484.034,98.374 483.969,98.405 C484.003,98.389 484.042,98.373 484.085,98.359 C484.084,98.36 484.084,98.36 484.084,98.36 C484.15,98.381 483.857,98.132 482.735,97.011 L481.978,96.253 C480.903,95.178 480.614,94.855 480.583,94.79 C480.6,94.824 480.615,94.863 480.629,94.906 C480.629,94.905 480.629,94.905 480.629,94.905 C480.615,94.947 480.6,94.986 480.583,95.019 C480.614,94.955 480.903,94.632 481.978,93.556 L490.339,85.196 Z M462.746,124.196 L480.243,141.694 C484.122,145.571 490.408,145.57 494.285,141.693 C498.162,137.816 498.164,131.53 494.288,127.652 L479.891,113.255 C479.367,112.731 478.676,112.406 477.938,112.337 C477.117,112.26 476.305,112.113 475.509,111.895 C473.166,111.252 470.643,111.801 468.918,113.526 L462.746,119.697 C461.503,120.939 461.503,122.954 462.746,124.196 Z M467.245,119.697 L467.245,124.196 L473.417,118.025 C473.442,118 473.592,117.967 473.829,118.032 C474.982,118.347 476.158,118.561 477.346,118.672 L477.642,115.505 L475.392,117.754 L489.788,132.15 C491.179,133.543 491.179,135.801 489.786,137.193 C488.393,138.586 486.135,138.587 484.742,137.194 L467.245,119.697 Z" />
        </g>
        <g id="Black-M" transform="translate(0,200)">
            <path d="M643.657,95.564 L657.974,109.88 C659.216,111.122 661.23,111.122 662.473,109.88 C663.715,108.638 663.715,106.623 662.473,105.381 L648.157,91.065 C646.914,89.822 644.9,89.822 643.657,91.065 C642.415,92.307 642.415,94.321 643.657,95.564 Z M645.907,90.133 L636.363,90.133 L639.381,92.308 L636.2,82.764 L635.431,86.02 L638.612,82.838 L635.357,83.607 L644.901,86.788 L642.726,83.77 L642.726,93.314 L645.907,90.133 Z M645.907,96.496 C647.664,96.496 649.088,95.071 649.088,93.314 L649.088,83.77 C649.088,82.401 648.212,81.185 646.913,80.752 L637.369,77.57 C636.226,77.189 634.965,77.487 634.113,78.339 L630.932,81.52 C630.08,82.372 629.782,83.633 630.163,84.776 L633.345,94.32 C633.778,95.619 634.993,96.496 636.363,96.496 L645.907,96.496 Z M685.84,80.696 L677.479,89.057 C675.747,90.789 675.337,91.249 674.851,92.258 C674.744,92.48 674.653,92.707 674.577,92.94 C674.162,94.217 674.162,95.593 674.578,96.871 C674.653,97.103 674.744,97.33 674.851,97.551 C675.337,98.561 675.747,99.021 677.479,100.753 L678.236,101.51 C680.264,103.538 680.782,103.978 682.119,104.411 C683.396,104.826 684.772,104.826 686.05,104.411 C686.282,104.336 686.509,104.244 686.73,104.138 C687.74,103.652 688.2,103.242 689.932,101.51 L697.755,93.687 L692.562,92.646 C694.568,97.526 693.727,103.112 690.375,107.186 C687.023,111.259 681.702,113.159 676.528,112.13 C674.101,111.649 673.7,111.585 672.819,111.669 C672.007,111.717 671.114,111.99 670.32,112.457 C669.662,112.809 669.356,113.087 668.021,114.422 L645.248,137.195 C643.856,138.587 641.597,138.586 640.205,137.193 C638.812,135.801 638.811,133.543 640.204,132.149 L662.972,109.381 C664.309,108.044 664.589,107.735 665.001,106.964 C665.405,106.279 665.675,105.389 665.73,104.472 C665.81,103.71 665.753,103.346 665.266,100.875 C664.167,95.352 666.403,89.703 670.98,86.431 C675.557,83.159 681.626,82.871 686.492,85.695 L688.089,82.943 L684.932,83.339 L684.932,83.342 L688.089,82.946 L685.84,80.696 Z M690.339,85.196 C691.033,84.501 691.368,83.525 691.246,82.55 L691.245,82.547 C691.122,81.562 690.545,80.69 689.686,80.192 C682.657,76.113 673.891,76.528 667.28,81.255 C660.669,85.981 657.439,94.141 659.024,102.111 C659.303,103.528 659.383,104.029 659.39,103.96 C659.384,104.007 659.408,103.928 659.45,103.857 C659.412,103.923 659.22,104.135 658.473,104.882 L635.704,127.651 C631.827,131.53 631.828,137.816 635.706,141.693 C639.583,145.57 645.868,145.571 649.747,141.695 L672.52,118.922 C673.268,118.173 673.482,117.979 673.442,118 C673.477,117.982 673.397,118.007 673.315,118.012 C673.362,118.009 673.876,118.091 675.29,118.371 C682.76,119.857 690.446,117.113 695.288,111.229 C700.13,105.345 701.344,97.276 698.448,90.228 C697.584,88.127 694.861,87.582 693.255,89.188 L685.432,97.011 C684.357,98.086 684.034,98.374 683.969,98.405 C684.003,98.389 684.042,98.373 684.085,98.359 C684.084,98.36 684.084,98.36 684.084,98.36 C684.15,98.381 683.857,98.132 682.735,97.011 L681.978,96.253 C680.903,95.178 680.614,94.855 680.583,94.79 C680.6,94.824 680.615,94.863 680.629,94.906 C680.629,94.905 680.629,94.905 680.629,94.905 C680.615,94.947 680.6,94.986 680.583,95.019 C680.614,94.955 680.903,94.632 681.978,93.556 L690.339,85.196 Z M662.746,124.196 L680.243,141.694 C684.122,145.571 690.408,145.57 694.285,141.693 C698.162,137.816 698.164,131.53 694.288,127.652 L679.891,113.255 C679.367,112.731 678.676,112.406 677.938,112.337 C677.117,112.26 676.305,112.113 675.509,111.895 C673.166,111.252 670.643,111.801 668.918,113.526 L662.746,119.697 C661.503,120.939 661.503,122.954 662.746,124.196 Z M667.245,119.697 L667.245,124.196 L673.417,118.025 C673.442,118 673.592,117.967 673.829,118.032 C674.982,118.347 676.158,118.561 677.346,118.672 L677.642,115.505 L675.392,117.754 L689.788,132.15 C691.179,133.543 691.179,135.801 689.786,137.193 C688.393,138.586 686.135,138.587 684.742,137.194 L667.245,119.697 Z" />
        </g>
    </g>
</svg>