<?xml version="1.0" encoding="UTF-8"?>
<svg height="600" width="800" xmlns="http://www.w3.org/2000/svg" xmlns:xlink="http://www.w3.org/1999/xlink">
    <g id="Notes" font-family="LucidaGrande, 'Lucida Grande', sans-serif" font-size="13">
        <rect fill="white" height="600.0" width="800.0" x="0.0" y="0.0" />
        <g font-size="13">
            <text x="18.0" y="176.0">Small</text>
            <text x="18.0" y="376.0">Medium</text>
            <text x="18.0" y="576.0">Large</text>
        </g>
        <g font-size="9">
            <text x="250.0" y="30.0">Ultralight</text>
            <text x="450.0" y="30.0">Regular</text>
            <text x="650.0" y="30.0">Black</text>
            <text id="template-version" fill="#505050" text-anchor="end" x="785.0" y="575.0">Template v.3.0</text>
            <a href="https://github.com/swhitty/SwiftDraw">
                <text fill="#505050" text-anchor="end" x="785.0" y="590.0">https://github.com/swhitty/SwiftDraw</text>
            </a>
        </g>
    </g>
    <g id="Guides" stroke="rgb(39, 170, 225)" stroke-width="0.5">
        <path id="Capline-S" d="M18,76 l800,0" />
        <path id="H-reference" d="M85,145.755 L87.685,145.755 L113.369,79.287 L114.052,79.287 L114.052,76 L112.148,76 L85,145.755 Z M95.693,121.536 L130.996,121.536 L130.263,119.313 L96.474,119.313 L95.693,121.536 Z M139.15,145.755 L141.787,145.755 L114.638,76 L113.466,76 L113.466,79.287 L139.15,145.755 Z" stroke="none" transform="translate(0,200)" />
        <path id="Baseline-S" d="M18,146 l800,0" />
        <path id="left-margin-Ultralight-M" d="M230,256 l0,110" />
        <path id="right-margin-Ultralight-M" d="M300,256 l0,110" />
        <path id="left-margin-Regular-M" d="M430,256 l0,110" />
        <path id="right-margin-Regular-M" d="M500,256 l0,110" />
        <path id="left-margin-Black-M" d="M630,256 l0,110" />
        <path id="right-margin-Black-M" d="M700,256 l0,110" />
        <path id="Capline-M" d="M18,276 l800,0" />
        <path id="Baseline-M" d="M18,346 l800,0" />
        <path id="Capline-L" d="M18,476 l800,0" />
        <path id="Baseline-L" d="M18,546 l800,0" />
    </g>
    <g id="Symbols">
        <g id="Ultralight-M" transform="translate(0,200)">
            <path d="M255.278,146 L274.722,146 C276.87,146 278.611,144.575 278.611,142.818 C278.611,141.061 276.87,139.636 274.722,139.636 L255.278,139.636 C253.13,139.636 251.389,141.061 251.389,142.818 C251.389,144.575 253.13,146 255.278,146 Z M249.444,82.364 L280.556,82.364 C282.703,82.364 284.444,80.939 284.444,79.182 C284.444,77.425 282.703,76 280.556,76 L249.444,76 C247.297,76 245.556,77.425 245.556,79.182 C245.556,80.939 247.297,82.364 249.444,82.364 Z M268.889,88.727 L268.889,79.182 C268.889,77.425 267.148,76 265,76 C262.852,76 261.111,77.425 261.111,79.182 L261.111,88.727 C261.111,90.485 262.852,91.909 265,91.909 C267.148,91.909 268.889,90.485 268.889,88.727 Z M233.889,114.182 L296.111,114.182 C298.259,114.182 300,112.757 300,111 C300,109.243 298.259,107.818 296.111,107.818 L233.889,107.818 C231.741,107.818 230,109.243 230,111 C230,112.757 231.741,114.182 233.889,114.182 Z M280.966,134.696 L286.799,144.241 C287.76,145.813 290.096,146.45 292.017,145.664 C293.938,144.878 294.717,142.967 293.756,141.395 L287.923,131.85 C286.962,130.278 284.626,129.641 282.705,130.427 C280.784,131.213 280.006,133.124 280.966,134.696 Z M242.077,131.85 L236.244,141.395 C235.283,142.967 236.062,144.878 237.983,145.664 C239.904,146.45 242.24,145.813 243.201,144.241 L249.034,134.696 C249.994,133.124 249.216,131.213 247.295,130.427 C245.374,129.641 243.038,130.278 242.077,131.85 Z M251.389,125.318 L251.428,125.318 C253.576,125.318 255.317,123.894 255.317,122.136 C255.317,120.379 253.576,118.955 251.428,118.955 L251.389,118.955 C249.241,118.955 247.5,120.379 247.5,122.136 C247.5,123.894 249.241,125.318 251.389,125.318 Z M278.611,125.318 L278.65,125.318 C280.798,125.318 282.539,123.894 282.539,122.136 C282.539,120.379 280.798,118.955 278.65,118.955 L278.611,118.955 C276.463,118.955 274.722,120.379 274.722,122.136 C274.722,123.894 276.463,125.318 278.611,125.318 Z M252.556,136.455 L277.444,136.455 C286.392,136.455 288.519,136.312 291.506,135.068 C294.434,133.847 296.813,131.9 298.304,129.505 C299.826,127.061 300,125.321 300,118 L300,104 C300,96.679 299.826,94.939 298.305,92.495 C296.813,90.1 294.434,88.153 291.507,86.933 C288.519,85.688 286.392,85.545 277.444,85.545 L252.556,85.545 C243.608,85.545 241.481,85.688 238.494,86.933 C235.566,88.153 233.187,90.1 231.696,92.495 C230.174,94.939 230,96.679 230,104 L230,118 C230,125.321 230.174,127.061 231.695,129.505 C233.187,131.9 235.566,133.847 238.493,135.067 C241.481,136.312 243.608,136.455 252.556,136.455 Z M252.556,130.091 C245.17,130.091 243.406,129.973 242.024,129.397 C240.561,128.787 239.371,127.814 238.626,126.616 C237.922,125.486 237.778,124.043 237.778,118 L237.778,104 C237.778,97.957 237.922,96.514 238.626,95.383 C239.371,94.186 240.561,93.213 242.024,92.603 C243.406,92.027 245.17,91.909 252.556,91.909 L277.444,91.909 C284.83,91.909 286.594,92.027 287.976,92.603 C289.439,93.213 290.629,94.186 291.374,95.384 C292.078,96.514 292.222,97.957 292.222,104 L292.222,118 C292.222,124.043 292.078,125.486 291.374,126.617 C290.629,127.814 289.439,128.787 287.976,129.397 C286.594,129.973 284.83,130.091 277.444,130.091 L252.556,130.091 Z M249.444,122.136 C249.444,121.258 250.315,120.545 251.389,120.545 C252.463,120.545 253.333,121.258 253.333,122.136 C253.333,123.015 252.463,123.727 251.389,123.727 C250.315,123.727 249.444,123.015 249.444,122.136 Z M257.222,122.136 C257.222,119.5 254.611,117.364 251.389,117.364 C248.167,117.364 245.556,119.5 245.556,122.136 C245.556,124.772 248.167,126.909 251.389,126.909 C254.611,126.909 257.222,124.772 257.222,122.136 Z M276.667,122.136 C276.667,121.258 277.537,120.545 278.611,120.545 C279.685,120.545 280.556,121.258 280.556,122.136 C280.556,123.015 279.685,123.727 278.611,123.727 C277.537,123.727 276.667,123.015 276.667,122.136 Z M284.444,122.136 C284.444,119.5 281.833,117.364 278.611,117.364 C275.389,117.364 272.778,119.5 272.778,122.136 C272.778,124.772 275.389,126.909 278.611,126.909 C281.833,126.909 284.444,124.772 284.444,122.136 Z" />
        </g>
        <g id="Regular-M" transform="translate(0,200)">
            <path d="M455.278,146 L474.722,146 C476.87,146 478.611,144.575 478.611,142.818 C478.611,141.061 476.87,139.636 474.722,139.636 L455.278,139.636 C453.13,139.636 451.389,141.061 451.389,142.818 C451.389,144.575 453.13,146 455.278,146 Z M449.444,82.364 L480.556,82.364 C482.703,82.364 484.444,80.939 484.444,79.182 C484.444,77.425 482.703,76 480.556,76 L449.444,76 C447.297,76 445.556,77.425 445.556,79.182 C445.556,80.939 447.297,82.364 449.444,82.364 Z M468.889,88.727 L468.889,79.182 C468.889,77.425 467.148,76 465,76 C462.852,76 461.111,77.425 461.111,79.182 L461.111,88.727 C461.111,90.485 462.852,91.909 465,91.909 C467.148,91.909 468.889,90.485 468.889,88.727 Z M433.889,114.182 L496.111,114.182 C498.259,114.182 500,112.757 500,111 C500,109.243 498.259,107.818 496.111,107.818 L433.889,107.818 C431.741,107.818 430,109.243 430,111 C430,112.757 431.741,114.182 433.889,114.182 Z M480.966,134.696 L486.799,144.241 C487.76,145.813 490.096,146.45 492.017,145.664 C493.938,144.878 494.717,142.967 493.756,141.395 L487.923,131.85 C486.962,130.278 484.626,129.641 482.705,130.427 C480.784,131.213 480.006,133.124 480.966,134.696 Z M442.077,131.85 L436.244,141.395 C435.283,142.967 436.062,144.878 437.983,145.664 C439.904,146.45 442.24,145.813 443.201,144.241 L449.034,134.696 C449.994,133.124 449.216,131.213 447.295,130.427 C445.374,129.641 443.038,130.278 442.077,131.85 Z M451.389,125.318 L451.428,125.318 C453.576,125.318 455.317,123.894 455.317,122.136 C455.317,120.379 453.576,118.955 451.428,118.955 L451.389,118.955 C449.241,118.955 447.5,120.379 447.5,122.136 C447.5,123.894 449.241,125.318 451.389,125.318 Z M478.611,125.318 L478.65,125.318 C480.798,125.318 482.539,123.894 482.539,122.136 C482.539,120.379 480.798,118.955 478.65,118.955 L478.611,118.955 C476.463,118.955 474.722,120.379 474.722,122.136 C474.722,123.894 476.463,125.318 478.611,125.318 Z M452.556,136.455 L477.444,136.455 C486.392,136.455 488.519,136.312 491.506,135.068 C494.434,133.847 496.813,131.9 498.304,129.505 C499.826,127.061 500,125.321 500,118 L500,104 C500,96.679 499.826,94.939 498.305,92.495 C496.813,90.1 494.434,88.153 491.507,86.933 C488.519,85.688 486.392,85.545 477.444,85.545 L452.556,85.545 C443.608,85.545 441.481,85.688 438.494,86.933 C435.566,88.153 433.187,90.1 431.696,92.495 C430.174,94.939 430,96.679 430,104 L430,118 C430,125.321 430.174,127.061 431.695,129.505 C433.187,131.9 435.566,133.847 438.493,135.067 C441.481,136.312 443.608,136.455 452.556,136.455 Z M452.556,130.091 C445.17,130.091 443.406,129.973 442.024,129.397 C440.561,128.787 439.371,127.814 438.626,126.616 C437.922,125.486 437.778,124.043 437.778,118 L437.778,104 C437.778,97.957 437.922,96.514 438.626,95.383 C439.371,94.186 440.561,93.213 442.024,92.603 C443.406,92.027 445.17,91.909 452.556,91.909 L477.444,91.909 C484.83,91.909 486.594,92.027 487.976,92.603 C489.439,93.213 490.629,94.186 491.374,95.384 C492.078,96.514 492.222,97.957 492.222,104 L492.222,118 C492.222,124.043 492.078,125.486 491.374,126.617 C490.629,127.814 489.439,128.787 487.976,129.397 C486.594,129.973 484.83,130.091 477.444,130.091 L452.556,130.091 Z M449.444,122.136 C449.444,121.258 450.315,120.545 451.389,120.545 C452.463,120.545 453.333,121.258 453.333,122.136 C453.333,123.015 452.463,123.727 451.389,123.727 C450.315,123.727 449.444,123.015 449.444,122.136 Z M457.222,122.136 C457.222,119.5 454.611,117.364 451.389,117.364 C448.167,117.364 445.556,119.5 445.556,122.136 C445.556,124.772 448.167,126.909 451.389,126.909 C454.611,126.909 457.222,124.772 457.222,122.136 Z M476.667,122.136 C476.667,121.258 477.537,120.545 478.611,120.545 C479.685,120.545 480.556,121.258 480.556,122.136 C480.556,123.015 479.685,123.727 478.611,123.727 C477.537,123.727 476.667,123.015 476.667,122.136 Z M484.444,122.136 C484.444,119.5 481.833,117.364 478.611,117.364 C475.389,117.364 472.778,119.5 472.778,122.136 C472.778,124.772 475.389,126.909 478.611,126.909 C481.833,126.909 484.444,124.772 484.444,122.136 Z" />
        </g>
        <g id="Black-M" transform="translate(0,200)">
            <path d="M655.278,146 L674.722,146 C676.87,146 678.611,144.575 678.611,142.818 C678.611,141.061 676.87,139.636 674.722,139.636 L655.278,139.636 C653.13,139.636 651.389,141.061 651.389,142.818 C651.389,144.575 653.13,146 655.278,146 Z M649.444,82.364 L680.556,82.364 C682.703,82.364 684.444,80.939 684.444,79.182 C684.444,77.425 682.703,76 680.556,76 L649.444,76 C647.297,76 645.556,77.425 645.556,79.182 C645.556,80.939 647.297,82.364 649.444,82.364 Z M668.889,88.727 L668.889,79.182 C668.889,77.425 667.148,76 665,76 C662.852,76 661.111,77.425 661.111,79.182 L661.111,88.727 C661.111,90.485 662.852,91.909 665,91.909 C667.148,91.909 668.889,90.485 668.889,88.727 Z M633.889,114.182 L696.111,114.182 C698.259,114.182 700,112.757 700,111 C700,109.243 698.259,107.818 696.111,107.818 L633.889,107.818 C631.741,107.818 630,109.243 630,111 C630,112.757 631.741,114.182 633.889,114.182 Z M680.966,134.696 L686.799,144.241 C687.76,145.813 690.096,146.45 692.017,145.664 C693.938,144.878 694.717,142.967 693.756,141.395 L687.923,131.85 C686.962,130.278 684.626,129.641 682.705,130.427 C680.784,131.213 680.006,133.124 680.966,134.696 Z M642.077,131.85 L636.244,141.395 C635.283,142.967 636.062,144.878 637.983,145.664 C639.904,146.45 642.24,145.813 643.201,144.241 L649.034,134.696 C649.994,133.124 649.216,131.213 647.295,130.427 C645.374,129.641 643.038,130.278 642.077,131.85 Z M651.389,125.318 L651.428,125.318 C653.576,125.318 655.317,123.894 655.317,122.136 C655.317,120.379 653.576,118.955 651.428,118.955 L651.389,118.955 C649.241,118.955 647.5,120.379 647.5,122.136 C647.5,123.894 649.241,125.318 651.389,125.318 Z M678.611,125.318 L678.65,125.318 C680.798,125.318 682.539,123.894 682.539,122.136 C682.539,120.379 680.798,118.955 678.65,118.955 L678.611,118.955 C676.463,118.955 674.722,120.379 674.722,122.136 C674.722,123.894 676.463,125.318 678.611,125.318 Z M652.556,136.455 L677.444,136.455 C686.393,136.455 688.519,136.312 691.506,135.068 C694.434,133.847 696.813,131.9 698.304,129.505 C699.826,127.061 700,125.321 700,118 L700,104 C700,96.679 699.826,94.939 698.305,92.495 C696.813,90.1 694.434,88.153 691.507,86.933 C688.519,85.688 686.393,85.545 677.444,85.545 L652.556,85.545 C643.607,85.545 641.481,85.688 638.494,86.933 C635.566,88.153 633.187,90.1 631.696,92.495 C630.174,94.939 630,96.679 630,104 L630,118 C630,125.321 630.174,127.061 631.695,129.505 C633.187,131.9 635.566,133.847 638.493,135.067 C641.481,136.312 643.608,136.455 652.556,136.455 Z M652.556,130.091 C645.17,130.091 643.406,129.973 642.024,129.397 C640.561,128.787 639.371,127.814 638.626,126.616 C637.922,125.486 637.778,124.043 637.778,118 L637.778,104 C637.778,97.957 637.922,96.514 638.626,95.383 C639.371,94.186 640.561,93.213 642.024,92.603 C643.406,92.027 645.17,91.909 652.556,91.909 L677.444,91.909 C684.83,91.909 686.594,92.027 687.976,92.603 C689.439,93.213 690.629,94.186 691.374,95.384 C692.078,96.514 692.222,97.957 692.222,104 L692.222,118 C692.222,124.043 692.078,125.486 691.374,126.617 C690.629,127.814 689.439,128.787 687.976,129.397 C686.594,129.973 684.83,130.091 677.444,130.091 L652.556,130.091 Z M649.444,122.136 C649.444,121.258 650.315,120.545 651.389,120.545 C652.463,120.545 653.333,121.258 653.333,122.136 C653.333,123.015 652.463,123.727 651.389,123.727 C650.315,123.727 649.444,123.015 649.444,122.136 Z M657.222,122.136 C657.222,119.5 654.611,117.364 651.389,117.364 C648.167,117.364 645.556,119.5 645.556,122.136 C645.556,124.772 648.167,126.909 651.389,126.909 C654.611,126.909 657.222,124.772 657.222,122.136 Z M676.667,122.136 C676.667,121.258 677.537,120.545 678.611,120.545 C679.685,120.545 680.556,121.258 680.556,122.136 C680.556,123.015 679.685,123.727 678.611,123.727 C677.537,123.727 676.667,123.015 676.667,122.136 Z M684.444,122.136 C684.444,119.5 681.833,117.364 678.611,117.364 C675.389,117.364 672.778,119.5 672.778,122.136 C672.778,124.772 675.389,126.909 678.611,126.909 C681.833,126.909 684.444,124.772 684.444,122.136 Z" />
        </g>
    </g>
</svg>