<?xml version="1.0" encoding="UTF-8"?>
<svg height="600" width="800" xmlns="http://www.w3.org/2000/svg" xmlns:xlink="http://www.w3.org/1999/xlink">
    <g id="Notes" font-family="LucidaGrande, 'Lucida Grande', sans-serif" font-size="13">
        <rect fill="white" height="600.0" width="800.0" x="0.0" y="0.0" />
        <g font-size="13">
            <text x="18.0" y="176.0">Small</text>
            <text x="18.0" y="376.0">Medium</text>
            <text x="18.0" y="576.0">Large</text>
        </g>
        <g font-size="9">
            <text x="250.0" y="30.0">Ultralight</text>
            <text x="450.0" y="30.0">Regular</text>
            <text x="650.0" y="30.0">Black</text>
            <text id="template-version" fill="#505050" text-anchor="end" x="785.0" y="575.0">Template v.3.0</text>
            <a href="https://github.com/swhitty/SwiftDraw">
                <text fill="#505050" text-anchor="end" x="785.0" y="590.0">https://github.com/swhitty/SwiftDraw</text>
            </a>
        </g>
    </g>
    <g id="Guides" stroke="rgb(39, 170, 225)" stroke-width="0.5">
        <path id="Capline-S" d="M18,76 l800,0" />
        <path id="H-reference" d="M85,145.755 L87.685,145.755 L113.369,79.287 L114.052,79.287 L114.052,76 L112.148,76 L85,145.755 Z M95.693,121.536 L130.996,121.536 L130.263,119.313 L96.474,119.313 L95.693,121.536 Z M139.15,145.755 L141.787,145.755 L114.638,76 L113.466,76 L113.466,79.287 L139.15,145.755 Z" stroke="none" transform="translate(0,200)" />
        <path id="Baseline-S" d="M18,146 l800,0" />
        <path id="left-margin-Ultralight-M" d="M230,256 l0,110" />
        <path id="right-margin-Ultralight-M" d="M300,256 l0,110" />
        <path id="left-margin-Regular-M" d="M430,256 l0,110" />
        <path id="right-margin-Regular-M" d="M500,256 l0,110" />
        <path id="left-margin-Black-M" d="M630,256 l0,110" />
        <path id="right-margin-Black-M" d="M700,256 l0,110" />
        <path id="Capline-M" d="M18,276 l800,0" />
        <path id="Baseline-M" d="M18,346 l800,0" />
        <path id="Capline-L" d="M18,476 l800,0" />
        <path id="Baseline-L" d="M18,546 l800,0" />
    </g>
    <g id="Symbols">
        <g id="Ultralight-M" transform="translate(0,200)">
            <path d="M282.5,91.909 L282.5,89.364 C282.5,84.27 282.391,83.061 281.356,81.212 C280.349,79.416 278.743,77.956 276.767,77.04 C274.733,76.099 273.403,76 267.8,76 L262.2,76 C256.597,76 255.267,76.099 253.233,77.04 C251.257,77.956 249.651,79.416 248.645,81.212 C247.609,83.061 247.5,84.27 247.5,89.364 L247.5,91.909 C247.5,93.666 249.067,95.091 251,95.091 C252.933,95.091 254.5,93.666 254.5,91.909 L254.5,89.364 C254.5,85.548 254.582,84.635 254.882,84.1 C255.217,83.502 255.752,83.016 256.411,82.71 C256.999,82.438 258.003,82.364 262.2,82.364 L267.8,82.364 C271.997,82.364 273.001,82.438 273.589,82.711 C274.248,83.016 274.783,83.502 275.118,84.101 C275.418,84.635 275.5,85.548 275.5,89.364 L275.5,91.909 C275.5,93.666 277.067,95.091 279,95.091 C280.933,95.091 282.5,93.666 282.5,91.909 Z M233.5,95.091 L296.5,95.091 C298.433,95.091 300,93.666 300,91.909 C300,90.152 298.433,88.727 296.5,88.727 L233.5,88.727 C231.567,88.727 230,90.152 230,91.909 C230,93.666 231.567,95.091 233.5,95.091 Z M286,91.909 L286,127.545 C286,133.588 285.87,135.032 285.237,136.162 C284.566,137.359 283.495,138.333 282.178,138.943 C280.935,139.518 279.347,139.636 272.7,139.636 L257.3,139.636 C250.653,139.636 249.065,139.518 247.822,138.943 C246.505,138.333 245.434,137.359 244.763,136.162 C244.13,135.032 244,133.588 244,127.545 L244,91.909 C244,90.152 242.433,88.727 240.5,88.727 C238.567,88.727 237,90.152 237,91.909 L237,127.545 C237,134.867 237.156,136.606 238.526,139.05 C239.868,141.446 242.01,143.393 244.644,144.613 C247.333,145.858 249.247,146 257.3,146 L272.7,146 C280.753,146 282.667,145.858 285.356,144.613 C287.99,143.393 290.132,141.446 291.474,139.051 C292.844,136.606 293,134.867 293,127.545 L293,91.909 C293,90.152 291.433,88.727 289.5,88.727 C287.567,88.727 286,90.152 286,91.909 Z" />
        </g>
        <g id="Regular-M" transform="translate(0,200)">
            <path d="M482.5,91.909 L482.5,89.364 C482.5,84.27 482.391,83.061 481.356,81.212 C480.349,79.416 478.743,77.956 476.767,77.04 C474.733,76.099 473.403,76 467.8,76 L462.2,76 C456.597,76 455.267,76.099 453.233,77.04 C451.257,77.956 449.651,79.416 448.645,81.212 C447.609,83.061 447.5,84.27 447.5,89.364 L447.5,91.909 C447.5,93.666 449.067,95.091 451,95.091 C452.933,95.091 454.5,93.666 454.5,91.909 L454.5,89.364 C454.5,85.548 454.582,84.635 454.882,84.1 C455.217,83.502 455.752,83.016 456.411,82.71 C456.999,82.438 458.003,82.364 462.2,82.364 L467.8,82.364 C471.997,82.364 473.001,82.438 473.589,82.711 C474.248,83.016 474.783,83.502 475.118,84.101 C475.418,84.635 475.5,85.548 475.5,89.364 L475.5,91.909 C475.5,93.666 477.067,95.091 479,95.091 C480.933,95.091 482.5,93.666 482.5,91.909 Z M433.5,95.091 L496.5,95.091 C498.433,95.091 500,93.666 500,91.909 C500,90.152 498.433,88.727 496.5,88.727 L433.5,88.727 C431.567,88.727 430,90.152 430,91.909 C430,93.666 431.567,95.091 433.5,95.091 Z M486,91.909 L486,127.545 C486,133.588 485.87,135.032 485.237,136.162 C484.566,137.359 483.495,138.333 482.178,138.943 C480.935,139.518 479.347,139.636 472.7,139.636 L457.3,139.636 C450.653,139.636 449.065,139.518 447.822,138.943 C446.505,138.333 445.434,137.359 444.763,136.162 C444.13,135.032 444,133.588 444,127.545 L444,91.909 C444,90.152 442.433,88.727 440.5,88.727 C438.567,88.727 437,90.152 437,91.909 L437,127.545 C437,134.867 437.156,136.606 438.526,139.05 C439.868,141.446 442.01,143.393 444.644,144.613 C447.333,145.858 449.247,146 457.3,146 L472.7,146 C480.753,146 482.667,145.858 485.356,144.613 C487.99,143.393 490.132,141.446 491.474,139.051 C492.844,136.606 493,134.867 493,127.545 L493,91.909 C493,90.152 491.433,88.727 489.5,88.727 C487.567,88.727 486,90.152 486,91.909 Z" />
        </g>
        <g id="Black-M" transform="translate(0,200)">
            <path d="M682.5,91.909 L682.5,89.364 C682.5,84.27 682.391,83.061 681.356,81.212 C680.349,79.416 678.743,77.956 676.767,77.04 C674.733,76.099 673.403,76 667.8,76 L662.2,76 C656.597,76 655.267,76.099 653.233,77.04 C651.257,77.956 649.651,79.416 648.644,81.212 C647.609,83.061 647.5,84.27 647.5,89.364 L647.5,91.909 C647.5,93.666 649.067,95.091 651,95.091 C652.933,95.091 654.5,93.666 654.5,91.909 L654.5,89.364 C654.5,85.548 654.582,84.635 654.882,84.1 C655.217,83.502 655.752,83.016 656.411,82.71 C656.999,82.438 658.003,82.364 662.2,82.364 L667.8,82.364 C671.997,82.364 673.001,82.438 673.589,82.711 C674.248,83.016 674.783,83.502 675.118,84.101 C675.418,84.635 675.5,85.548 675.5,89.364 L675.5,91.909 C675.5,93.666 677.067,95.091 679,95.091 C680.933,95.091 682.5,93.666 682.5,91.909 Z M633.5,95.091 L696.5,95.091 C698.433,95.091 700,93.666 700,91.909 C700,90.152 698.433,88.727 696.5,88.727 L633.5,88.727 C631.567,88.727 630,90.152 630,91.909 C630,93.666 631.567,95.091 633.5,95.091 Z M686,91.909 L686,127.545 C686,133.588 685.87,135.032 685.237,136.162 C684.566,137.359 683.495,138.333 682.178,138.943 C680.935,139.518 679.347,139.636 672.7,139.636 L657.3,139.636 C650.653,139.636 649.065,139.518 647.822,138.943 C646.505,138.333 645.434,137.359 644.763,136.162 C644.13,135.032 644,133.588 644,127.545 L644,91.909 C644,90.152 642.433,88.727 640.5,88.727 C638.567,88.727 637,90.152 637,91.909 L637,127.545 C637,134.867 637.156,136.606 638.526,139.05 C639.868,141.446 642.01,143.393 644.644,144.613 C647.333,145.858 649.247,146 657.3,146 L672.7,146 C680.753,146 682.667,145.858 685.356,144.613 C687.99,143.393 690.132,141.446 691.474,139.051 C692.844,136.606 693,134.867 693,127.545 L693,91.909 C693,90.152 691.433,88.727 689.5,88.727 C687.567,88.727 686,90.152 686,91.909 Z" />
        </g>
    </g>
</svg>