<?xml version="1.0" encoding="UTF-8"?>
<svg height="600" width="800" xmlns="http://www.w3.org/2000/svg" xmlns:xlink="http://www.w3.org/1999/xlink">
    <g id="Notes" font-family="LucidaGrande, 'Lucida Grande', sans-serif" font-size="13">
        <rect fill="white" height="600.0" width="800.0" x="0.0" y="0.0" />
        <g font-size="13">
            <text x="18.0" y="176.0">Small</text>
            <text x="18.0" y="376.0">Medium</text>
            <text x="18.0" y="576.0">Large</text>
        </g>
        <g font-size="9">
            <text x="250.0" y="30.0">Ultralight</text>
            <text x="450.0" y="30.0">Regular</text>
            <text x="650.0" y="30.0">Black</text>
            <text id="template-version" fill="#505050" text-anchor="end" x="785.0" y="575.0">Template v.3.0</text>
            <a href="https://github.com/swhitty/SwiftDraw">
                <text fill="#505050" text-anchor="end" x="785.0" y="590.0">https://github.com/swhitty/SwiftDraw</text>
            </a>
        </g>
    </g>
    <g id="Guides" stroke="rgb(39, 170, 225)" stroke-width="0.5">
        <path id="Capline-S" d="M18,76 l800,0" />
        <path id="H-reference" d="M85,145.755 L87.685,145.755 L113.369,79.287 L114.052,79.287 L114.052,76 L112.148,76 L85,145.755 Z M95.693,121.536 L130.996,121.536 L130.263,119.313 L96.474,119.313 L95.693,121.536 Z M139.15,145.755 L141.787,145.755 L114.638,76 L113.466,76 L113.466,79.287 L139.15,145.755 Z" stroke="none" transform="translate(0,200)" />
        <path id="Baseline-S" d="M18,146 l800,0" />
        <path id="left-margin-Ultralight-M" d="M230,256 l0,110" />
        <path id="right-margin-Ultralight-M" d="M300,256 l0,110" />
        <path id="left-margin-Regular-M" d="M430,256 l0,110" />
        <path id="right-margin-Regular-M" d="M500,256 l0,110" />
        <path id="left-margin-Black-M" d="M630,256 l0,110" />
        <path id="right-margin-Black-M" d="M700,256 l0,110" />
        <path id="Capline-M" d="M18,276 l800,0" />
        <path id="Baseline-M" d="M18,346 l800,0" />
        <path id="Capline-L" d="M18,476 l800,0" />
        <path id="Baseline-L" d="M18,546 l800,0" />
    </g>
    <g id="Symbols">
        <g id="Ultralight-M" transform="translate(0,200)">
            <path d="M299.068,124.659 L274.03,99.621 C272.298,97.889 271.838,97.48 270.829,96.993 C270.607,96.886 270.38,96.795 270.147,96.72 C268.87,96.305 267.493,96.305 266.215,96.72 C265.983,96.795 265.757,96.886 265.535,96.993 C264.525,97.479 264.065,97.889 262.333,99.621 L253.618,108.336 C252.543,109.412 252.219,109.7 252.155,109.731 C252.189,109.715 252.228,109.699 252.27,109.685 C252.27,109.686 252.27,109.686 252.27,109.686 C252.311,109.699 252.35,109.715 252.384,109.731 C252.32,109.7 251.996,109.412 250.921,108.336 L235.432,92.841 C234.19,91.599 232.175,91.598 230.932,92.841 C229.69,94.083 229.689,96.098 230.931,97.34 L246.421,112.836 C248.153,114.568 248.613,114.978 249.623,115.464 C249.844,115.571 250.071,115.663 250.304,115.738 C251.581,116.153 252.958,116.153 254.236,115.738 C254.468,115.663 254.695,115.571 254.916,115.464 C255.926,114.978 256.386,114.568 258.118,112.836 L266.833,104.121 C267.909,103.046 268.232,102.757 268.296,102.727 C268.263,102.743 268.224,102.758 268.181,102.772 C268.182,102.772 268.182,102.772 268.182,102.772 C268.14,102.758 268.101,102.743 268.067,102.727 C268.132,102.757 268.455,103.046 269.531,104.121 L294.568,129.159 C295.811,130.402 297.826,130.402 299.068,129.159 C300.311,127.916 300.311,125.902 299.068,124.659 Z M296.818,123.727 L274.545,123.727 C272.788,123.727 271.364,125.152 271.364,126.909 C271.364,128.666 272.788,130.091 274.545,130.091 L296.818,130.091 C298.575,130.091 300,128.666 300,126.909 C300,125.152 298.575,123.727 296.818,123.727 Z M300,126.909 L300,104.636 C300,102.879 298.575,101.455 296.818,101.455 C295.061,101.455 293.636,102.879 293.636,104.636 L293.636,126.909 C293.636,128.666 295.061,130.091 296.818,130.091 C298.575,130.091 300,128.666 300,126.909 Z" />
        </g>
        <g id="Regular-M" transform="translate(0,200)">
            <path d="M499.068,124.659 L474.03,99.621 C472.298,97.889 471.838,97.48 470.829,96.993 C470.607,96.886 470.38,96.795 470.147,96.72 C468.87,96.305 467.493,96.305 466.215,96.72 C465.983,96.795 465.757,96.886 465.535,96.993 C464.525,97.479 464.065,97.889 462.333,99.621 L453.618,108.336 C452.543,109.412 452.219,109.7 452.155,109.731 C452.189,109.715 452.228,109.699 452.27,109.685 C452.27,109.686 452.27,109.686 452.27,109.686 C452.311,109.699 452.35,109.715 452.384,109.731 C452.32,109.7 451.996,109.412 450.921,108.336 L435.432,92.841 C434.19,91.599 432.175,91.598 430.932,92.841 C429.69,94.083 429.689,96.098 430.931,97.34 L446.421,112.836 C448.153,114.568 448.613,114.978 449.623,115.464 C449.844,115.571 450.071,115.663 450.304,115.738 C451.581,116.153 452.958,116.153 454.236,115.738 C454.468,115.663 454.695,115.571 454.916,115.464 C455.926,114.978 456.386,114.568 458.118,112.836 L466.833,104.121 C467.909,103.046 468.232,102.757 468.296,102.727 C468.263,102.743 468.224,102.758 468.181,102.772 C468.182,102.772 468.182,102.772 468.182,102.772 C468.14,102.758 468.101,102.743 468.067,102.727 C468.132,102.757 468.455,103.046 469.531,104.121 L494.568,129.159 C495.811,130.402 497.826,130.402 499.068,129.159 C500.311,127.916 500.311,125.902 499.068,124.659 Z M496.818,123.727 L474.545,123.727 C472.788,123.727 471.364,125.152 471.364,126.909 C471.364,128.666 472.788,130.091 474.545,130.091 L496.818,130.091 C498.575,130.091 500,128.666 500,126.909 C500,125.152 498.575,123.727 496.818,123.727 Z M500,126.909 L500,104.636 C500,102.879 498.575,101.455 496.818,101.455 C495.061,101.455 493.636,102.879 493.636,104.636 L493.636,126.909 C493.636,128.666 495.061,130.091 496.818,130.091 C498.575,130.091 500,128.666 500,126.909 Z" />
        </g>
        <g id="Black-M" transform="translate(0,200)">
            <path d="M699.068,124.659 L674.03,99.621 C672.298,97.889 671.838,97.48 670.829,96.993 C670.607,96.886 670.38,96.795 670.147,96.72 C668.87,96.305 667.493,96.305 666.215,96.72 C665.983,96.795 665.757,96.886 665.535,96.993 C664.525,97.479 664.065,97.889 662.333,99.621 L653.618,108.336 C652.543,109.412 652.219,109.7 652.155,109.731 C652.189,109.715 652.228,109.699 652.27,109.685 C652.27,109.686 652.27,109.686 652.27,109.686 C652.311,109.699 652.35,109.715 652.384,109.731 C652.32,109.7 651.996,109.412 650.921,108.336 L635.432,92.841 C634.19,91.599 632.175,91.598 630.932,92.841 C629.69,94.083 629.689,96.098 630.931,97.34 L646.421,112.836 C648.153,114.568 648.613,114.978 649.623,115.464 C649.844,115.571 650.071,115.663 650.304,115.738 C651.581,116.153 652.958,116.153 654.236,115.738 C654.468,115.663 654.695,115.571 654.917,115.464 C655.926,114.978 656.386,114.568 658.118,112.836 L666.833,104.121 C667.909,103.046 668.232,102.757 668.296,102.727 C668.263,102.743 668.224,102.758 668.181,102.772 C668.182,102.772 668.182,102.772 668.182,102.772 C668.14,102.758 668.101,102.743 668.067,102.727 C668.132,102.757 668.455,103.046 669.531,104.121 L694.568,129.159 C695.811,130.402 697.826,130.402 699.068,129.159 C700.311,127.916 700.311,125.902 699.068,124.659 Z M696.818,123.727 L674.545,123.727 C672.788,123.727 671.364,125.152 671.364,126.909 C671.364,128.666 672.788,130.091 674.545,130.091 L696.818,130.091 C698.575,130.091 700,128.666 700,126.909 C700,125.152 698.575,123.727 696.818,123.727 Z M700,126.909 L700,104.636 C700,102.879 698.575,101.455 696.818,101.455 C695.061,101.455 693.636,102.879 693.636,104.636 L693.636,126.909 C693.636,128.666 695.061,130.091 696.818,130.091 C698.575,130.091 700,128.666 700,126.909 Z" />
        </g>
    </g>
</svg>