<?xml version="1.0" encoding="UTF-8"?>
<svg height="600" width="800" xmlns="http://www.w3.org/2000/svg" xmlns:xlink="http://www.w3.org/1999/xlink">
    <g id="Notes" font-family="LucidaGrande, 'Lucida Grande', sans-serif" font-size="13">
        <rect fill="white" height="600.0" width="800.0" x="0.0" y="0.0" />
        <g font-size="13">
            <text x="18.0" y="176.0">Small</text>
            <text x="18.0" y="376.0">Medium</text>
            <text x="18.0" y="576.0">Large</text>
        </g>
        <g font-size="9">
            <text x="250.0" y="30.0">Ultralight</text>
            <text x="450.0" y="30.0">Regular</text>
            <text x="650.0" y="30.0">Black</text>
            <text id="template-version" fill="#505050" text-anchor="end" x="785.0" y="575.0">Template v.3.0</text>
            <a href="https://github.com/swhitty/SwiftDraw">
                <text fill="#505050" text-anchor="end" x="785.0" y="590.0">https://github.com/swhitty/SwiftDraw</text>
            </a>
        </g>
    </g>
    <g id="Guides" stroke="rgb(39, 170, 225)" stroke-width="0.5">
        <path id="Capline-S" d="M18,76 l800,0" />
        <path id="H-reference" d="M85,145.755 L87.685,145.755 L113.369,79.287 L114.052,79.287 L114.052,76 L112.148,76 L85,145.755 Z M95.693,121.536 L130.996,121.536 L130.263,119.313 L96.474,119.313 L95.693,121.536 Z M139.15,145.755 L141.787,145.755 L114.638,76 L113.466,76 L113.466,79.287 L139.15,145.755 Z" stroke="none" transform="translate(0,200)" />
        <path id="Baseline-S" d="M18,146 l800,0" />
        <path id="left-margin-Ultralight-M" d="M221,256 l0,110" />
        <path id="right-margin-Ultralight-M" d="M309,256 l0,110" />
        <path id="left-margin-Regular-M" d="M421,256 l0,110" />
        <path id="right-margin-Regular-M" d="M509,256 l0,110" />
        <path id="left-margin-Black-M" d="M621,256 l0,110" />
        <path id="right-margin-Black-M" d="M709,256 l0,110" />
        <path id="Capline-M" d="M18,276 l800,0" />
        <path id="Baseline-M" d="M18,346 l800,0" />
        <path id="Capline-L" d="M18,476 l800,0" />
        <path id="Baseline-L" d="M18,546 l800,0" />
    </g>
    <g id="Symbols">
        <g id="Ultralight-M" transform="translate(0,200)">
            <path d="M307.828,128.172 L276.352,96.696 C274.175,94.518 273.597,94.003 272.328,93.392 C272.049,93.257 271.764,93.142 271.471,93.047 C269.865,92.526 268.135,92.526 266.528,93.048 C266.236,93.142 265.951,93.257 265.672,93.391 C264.403,94.003 263.825,94.518 261.648,96.696 L250.692,107.652 C249.339,109.004 248.933,109.366 248.852,109.405 C248.894,109.385 248.944,109.365 248.997,109.347 C248.996,109.348 248.996,109.348 248.996,109.348 C249.048,109.365 249.098,109.385 249.14,109.405 C249.059,109.366 248.653,109.004 247.3,107.652 L227.829,88.172 C226.267,86.61 223.735,86.609 222.172,88.171 C220.61,89.733 220.609,92.265 222.171,93.828 L241.643,113.308 C243.821,115.486 244.399,116.001 245.668,116.613 C245.947,116.747 246.232,116.862 246.525,116.957 C248.131,117.478 249.861,117.478 251.468,116.956 C251.76,116.862 252.045,116.747 252.324,116.613 C253.593,116.001 254.171,115.486 256.348,113.308 L267.304,102.352 C268.657,101 269.063,100.638 269.144,100.599 C269.102,100.619 269.052,100.639 268.999,100.657 C269,100.656 269,100.656 269,100.656 C268.948,100.639 268.898,100.619 268.856,100.599 C268.937,100.638 269.344,101 270.696,102.352 L302.172,133.828 C303.734,135.391 306.266,135.391 307.828,133.828 C309.391,132.266 309.391,129.734 307.828,128.172 Z M305,127 L277,127 C274.791,127 273,128.791 273,131 C273,133.209 274.791,135 277,135 L305,135 C307.209,135 309,133.209 309,131 C309,128.791 307.209,127 305,127 Z M309,131 L309,103 C309,100.791 307.209,99 305,99 C302.791,99 301,100.791 301,103 L301,131 C301,133.209 302.791,135 305,135 C307.209,135 309,133.209 309,131 Z" />
        </g>
        <g id="Regular-M" transform="translate(0,200)">
            <path d="M507.828,128.172 L476.352,96.696 C474.175,94.518 473.597,94.003 472.328,93.392 C472.049,93.257 471.764,93.142 471.471,93.047 C469.865,92.526 468.135,92.526 466.528,93.048 C466.236,93.142 465.951,93.257 465.672,93.391 C464.403,94.003 463.825,94.518 461.648,96.696 L450.692,107.652 C449.339,109.004 448.933,109.366 448.852,109.405 C448.894,109.385 448.944,109.365 448.997,109.347 C448.996,109.348 448.996,109.348 448.996,109.348 C449.048,109.365 449.098,109.385 449.14,109.405 C449.059,109.366 448.652,109.004 447.3,107.652 L427.829,88.172 C426.267,86.61 423.735,86.609 422.172,88.171 C420.61,89.733 420.609,92.265 422.171,93.828 L441.643,113.308 C443.821,115.486 444.399,116.001 445.668,116.613 C445.947,116.747 446.232,116.862 446.525,116.957 C448.131,117.478 449.861,117.478 451.468,116.956 C451.76,116.862 452.045,116.747 452.324,116.613 C453.593,116.001 454.171,115.486 456.348,113.308 L467.304,102.352 C468.657,101 469.063,100.638 469.144,100.599 C469.102,100.619 469.052,100.639 468.999,100.657 C469,100.656 469,100.656 469,100.656 C468.948,100.639 468.898,100.619 468.856,100.599 C468.937,100.638 469.344,101 470.696,102.352 L502.172,133.828 C503.734,135.391 506.266,135.391 507.828,133.828 C509.391,132.266 509.391,129.734 507.828,128.172 Z M505,127 L477,127 C474.791,127 473,128.791 473,131 C473,133.209 474.791,135 477,135 L505,135 C507.209,135 509,133.209 509,131 C509,128.791 507.209,127 505,127 Z M509,131 L509,103 C509,100.791 507.209,99 505,99 C502.791,99 501,100.791 501,103 L501,131 C501,133.209 502.791,135 505,135 C507.209,135 509,133.209 509,131 Z" />
        </g>
        <g id="Black-M" transform="translate(0,200)">
            <path d="M707.828,128.172 L676.352,96.696 C674.175,94.518 673.597,94.003 672.328,93.392 C672.049,93.257 671.764,93.142 671.471,93.047 C669.865,92.526 668.135,92.526 666.528,93.048 C666.236,93.142 665.951,93.257 665.672,93.391 C664.403,94.003 663.825,94.518 661.648,96.696 L650.692,107.652 C649.339,109.004 648.933,109.366 648.852,109.405 C648.894,109.385 648.944,109.365 648.997,109.347 C648.996,109.348 648.996,109.348 648.996,109.348 C649.048,109.365 649.098,109.385 649.14,109.405 C649.059,109.366 648.653,109.004 647.3,107.652 L627.829,88.172 C626.267,86.61 623.735,86.609 622.172,88.171 C620.61,89.733 620.609,92.265 622.171,93.828 L641.643,113.308 C643.821,115.486 644.399,116.001 645.668,116.613 C645.947,116.747 646.232,116.862 646.525,116.957 C648.131,117.478 649.861,117.478 651.468,116.956 C651.76,116.862 652.045,116.747 652.324,116.613 C653.593,116.001 654.171,115.486 656.348,113.308 L667.304,102.352 C668.656,101 669.063,100.638 669.144,100.599 C669.102,100.619 669.052,100.639 668.999,100.657 C669,100.656 669,100.656 669,100.656 C668.948,100.639 668.898,100.619 668.856,100.599 C668.937,100.638 669.344,101 670.696,102.352 L702.172,133.828 C703.734,135.391 706.266,135.391 707.828,133.828 C709.391,132.266 709.391,129.734 707.828,128.172 Z M705,127 L677,127 C674.791,127 673,128.791 673,131 C673,133.209 674.791,135 677,135 L705,135 C707.209,135 709,133.209 709,131 C709,128.791 707.209,127 705,127 Z M709,131 L709,103 C709,100.791 707.209,99 705,99 C702.791,99 701,100.791 701,103 L701,131 C701,133.209 702.791,135 705,135 C707.209,135 709,133.209 709,131 Z" />
        </g>
    </g>
</svg>