<?xml version="1.0" encoding="UTF-8"?>
<svg height="600" width="800" xmlns="http://www.w3.org/2000/svg" xmlns:xlink="http://www.w3.org/1999/xlink">
    <g id="Notes" font-family="LucidaGrande, 'Lucida Grande', sans-serif" font-size="13">
        <rect fill="white" height="600.0" width="800.0" x="0.0" y="0.0" />
        <g font-size="13">
            <text x="18.0" y="176.0">Small</text>
            <text x="18.0" y="376.0">Medium</text>
            <text x="18.0" y="576.0">Large</text>
        </g>
        <g font-size="9">
            <text x="250.0" y="30.0">Ultralight</text>
            <text x="450.0" y="30.0">Regular</text>
            <text x="650.0" y="30.0">Black</text>
            <text id="template-version" fill="#505050" text-anchor="end" x="785.0" y="575.0">Template v.3.0</text>
            <a href="https://github.com/swhitty/SwiftDraw">
                <text fill="#505050" text-anchor="end" x="785.0" y="590.0">https://github.com/swhitty/SwiftDraw</text>
            </a>
        </g>
    </g>
    <g id="Guides" stroke="rgb(39, 170, 225)" stroke-width="0.5">
        <path id="Capline-S" d="M18,76 l800,0" />
        <path id="H-reference" d="M85,145.755 L87.685,145.755 L113.369,79.287 L114.052,79.287 L114.052,76 L112.148,76 L85,145.755 Z M95.693,121.536 L130.996,121.536 L130.263,119.313 L96.474,119.313 L95.693,121.536 Z M139.15,145.755 L141.787,145.755 L114.638,76 L113.466,76 L113.466,79.287 L139.15,145.755 Z" stroke="none" transform="translate(0,200)" />
        <path id="Baseline-S" d="M18,146 l800,0" />
        <path id="left-margin-Ultralight-M" d="M222.222,256 l0,110" />
        <path id="right-margin-Ultralight-M" d="M307.778,256 l0,110" />
        <path id="left-margin-Regular-M" d="M422.222,256 l0,110" />
        <path id="right-margin-Regular-M" d="M507.778,256 l0,110" />
        <path id="left-margin-Black-M" d="M622.222,256 l0,110" />
        <path id="right-margin-Black-M" d="M707.778,256 l0,110" />
        <path id="Capline-M" d="M18,276 l800,0" />
        <path id="Baseline-M" d="M18,346 l800,0" />
        <path id="Capline-L" d="M18,476 l800,0" />
        <path id="Baseline-L" d="M18,546 l800,0" />
    </g>
    <g id="Symbols">
        <g id="Ultralight-M" transform="translate(0,200)">
            <path d="M272.778,95.444 L281.866,95.444 C282.692,95.444 282.858,95.452 282.821,95.443 C282.836,95.447 282.836,95.447 282.836,95.447 C282.813,95.432 282.813,95.432 282.789,95.416 C282.812,95.432 282.96,95.57 283.526,96.133 L299.315,111.926 C299.878,112.489 300.021,112.641 300.043,112.672 C300.029,112.652 300.029,112.652 300.012,112.625 C299.996,112.6 300.004,112.619 300.007,112.63 C299.992,112.569 300,112.74 300,113.578 L300,124.611 C300,126.227 299.973,126.623 299.999,126.56 C300.003,126.552 300.003,126.552 300.003,126.552 C300.058,126.528 299.664,126.556 298.056,126.556 C295.908,126.556 294.167,128.297 294.167,130.444 C294.167,132.592 295.908,134.333 298.056,134.333 C300.978,134.333 301.669,134.286 302.991,133.732 C304.88,132.951 306.393,131.44 307.184,129.538 C307.731,128.214 307.778,127.526 307.778,124.611 L307.778,113.578 C307.778,112.037 307.759,111.622 307.57,110.815 C307.371,110.003 307.063,109.26 306.652,108.575 C306.509,108.348 306.509,108.348 306.39,108.177 C306.004,107.632 305.753,107.364 304.815,106.426 L289.019,90.626 C288.052,89.665 287.801,89.43 287.251,89.045 C287.076,88.926 287.076,88.926 286.893,88.811 C286.203,88.388 285.441,88.073 284.645,87.882 C283.84,87.686 283.42,87.667 281.866,87.667 L272.778,87.667 C270.63,87.667 268.889,89.408 268.889,91.556 C268.889,93.703 270.63,95.444 272.778,95.444 Z M278.611,126.556 L272.778,126.556 C270.63,126.556 268.889,128.297 268.889,130.444 C268.889,132.592 270.63,134.333 272.778,134.333 L278.611,134.333 C280.759,134.333 282.5,132.592 282.5,130.444 C282.5,128.297 280.759,126.556 278.611,126.556 Z M276.667,130.444 L276.667,92.333 C276.667,86.108 276.546,84.63 275.395,82.371 C274.276,80.175 272.492,78.39 270.297,77.272 C268.037,76.121 266.559,76 260.333,76 L238.556,76 C232.33,76 230.852,76.121 228.593,77.271 C226.397,78.39 224.612,80.175 223.494,82.37 C222.343,84.63 222.222,86.108 222.222,92.333 L222.222,122.667 C222.222,125.761 223.451,128.728 225.639,130.916 C227.827,133.104 230.795,134.333 233.889,134.333 C236.037,134.333 237.778,132.592 237.778,130.444 C237.778,128.297 236.037,126.556 233.889,126.556 C232.857,126.556 231.868,126.146 231.139,125.417 C230.41,124.687 230,123.698 230,122.667 L230,92.333 C230,87.67 230.091,86.554 230.424,85.901 C230.797,85.169 231.392,84.575 232.123,84.202 C232.777,83.869 233.893,83.778 238.556,83.778 L260.333,83.778 C264.996,83.778 266.112,83.869 266.766,84.202 C267.497,84.575 268.092,85.169 268.465,85.901 C268.798,86.554 268.889,87.67 268.889,92.333 L268.889,130.444 C268.889,132.592 270.63,134.333 272.778,134.333 C274.926,134.333 276.667,132.592 276.667,130.444 Z M272.778,126.556 L257.222,126.556 C255.074,126.556 253.333,128.297 253.333,130.444 C253.333,132.592 255.074,134.333 257.222,134.333 L272.778,134.333 C274.926,134.333 276.667,132.592 276.667,130.444 C276.667,128.297 274.926,126.556 272.778,126.556 Z M253.333,130.444 C253.333,134.74 249.851,138.222 245.556,138.222 C241.26,138.222 237.778,134.74 237.778,130.444 C237.778,128.297 236.037,126.556 233.889,126.556 C231.741,126.556 230,128.297 230,130.444 C230,139.036 236.964,146 245.556,146 C254.147,146 261.111,139.036 261.111,130.444 C261.111,128.297 259.37,126.556 257.222,126.556 C255.074,126.556 253.333,128.297 253.333,130.444 Z M261.111,130.444 C261.111,121.853 254.147,114.889 245.556,114.889 C236.964,114.889 230,121.853 230,130.444 C230,132.592 231.741,134.333 233.889,134.333 C236.037,134.333 237.778,132.592 237.778,130.444 C237.778,126.149 241.26,122.667 245.556,122.667 C249.851,122.667 253.333,126.149 253.333,130.444 C253.333,132.592 255.074,134.333 257.222,134.333 C259.37,134.333 261.111,132.592 261.111,130.444 Z M294.167,132.389 C294.167,135.611 291.555,138.222 288.333,138.222 C285.112,138.222 282.5,135.611 282.5,132.389 C282.5,129.167 285.112,126.556 288.333,126.556 C291.555,126.556 294.167,129.167 294.167,132.389 Z M301.944,132.389 C301.944,124.872 295.851,118.778 288.333,118.778 C280.816,118.778 274.722,124.872 274.722,132.389 C274.722,139.906 280.816,146 288.333,146 C295.851,146 301.944,139.906 301.944,132.389 Z" />
        </g>
        <g id="Regular-M" transform="translate(0,200)">
            <path d="M472.778,95.444 L481.866,95.444 C482.692,95.444 482.858,95.452 482.821,95.443 C482.836,95.447 482.836,95.447 482.836,95.447 C482.813,95.432 482.813,95.432 482.789,95.416 C482.812,95.432 482.96,95.57 483.526,96.133 L499.315,111.926 C499.878,112.489 500.021,112.641 500.043,112.672 C500.029,112.652 500.029,112.652 500.012,112.625 C499.996,112.6 500.004,112.619 500.007,112.63 C499.992,112.569 500,112.74 500,113.578 L500,124.611 C500,126.227 499.973,126.623 499.999,126.56 C500.003,126.552 500.003,126.552 500.003,126.552 C500.058,126.528 499.664,126.556 498.056,126.556 C495.908,126.556 494.167,128.297 494.167,130.444 C494.167,132.592 495.908,134.333 498.056,134.333 C500.978,134.333 501.669,134.286 502.991,133.732 C504.88,132.951 506.393,131.44 507.184,129.538 C507.731,128.214 507.778,127.526 507.778,124.611 L507.778,113.578 C507.778,112.037 507.759,111.622 507.57,110.815 C507.371,110.003 507.063,109.26 506.652,108.575 C506.509,108.348 506.509,108.348 506.39,108.177 C506.004,107.632 505.753,107.364 504.815,106.426 L489.019,90.626 C488.052,89.665 487.801,89.43 487.251,89.045 C487.076,88.926 487.076,88.926 486.893,88.811 C486.203,88.388 485.441,88.073 484.645,87.882 C483.84,87.686 483.42,87.667 481.866,87.667 L472.778,87.667 C470.63,87.667 468.889,89.408 468.889,91.556 C468.889,93.703 470.63,95.444 472.778,95.444 Z M478.611,126.556 L472.778,126.556 C470.63,126.556 468.889,128.297 468.889,130.444 C468.889,132.592 470.63,134.333 472.778,134.333 L478.611,134.333 C480.759,134.333 482.5,132.592 482.5,130.444 C482.5,128.297 480.759,126.556 478.611,126.556 Z M476.667,130.444 L476.667,92.333 C476.667,86.108 476.546,84.63 475.395,82.371 C474.276,80.175 472.492,78.39 470.297,77.272 C468.037,76.121 466.559,76 460.333,76 L438.556,76 C432.33,76 430.852,76.121 428.593,77.271 C426.397,78.39 424.612,80.175 423.494,82.37 C422.343,84.63 422.222,86.108 422.222,92.333 L422.222,122.667 C422.222,125.761 423.451,128.728 425.639,130.916 C427.827,133.104 430.795,134.333 433.889,134.333 C436.037,134.333 437.778,132.592 437.778,130.444 C437.778,128.297 436.037,126.556 433.889,126.556 C432.857,126.556 431.868,126.146 431.139,125.417 C430.41,124.687 430,123.698 430,122.667 L430,92.333 C430,87.67 430.091,86.554 430.424,85.901 C430.797,85.169 431.392,84.575 432.123,84.202 C432.777,83.869 433.892,83.778 438.556,83.778 L460.333,83.778 C464.996,83.778 466.112,83.869 466.766,84.202 C467.497,84.575 468.092,85.169 468.465,85.901 C468.798,86.554 468.889,87.67 468.889,92.333 L468.889,130.444 C468.889,132.592 470.63,134.333 472.778,134.333 C474.926,134.333 476.667,132.592 476.667,130.444 Z M472.778,126.556 L457.222,126.556 C455.074,126.556 453.333,128.297 453.333,130.444 C453.333,132.592 455.074,134.333 457.222,134.333 L472.778,134.333 C474.926,134.333 476.667,132.592 476.667,130.444 C476.667,128.297 474.926,126.556 472.778,126.556 Z M453.333,130.444 C453.333,134.74 449.851,138.222 445.556,138.222 C441.26,138.222 437.778,134.74 437.778,130.444 C437.778,128.297 436.037,126.556 433.889,126.556 C431.741,126.556 430,128.297 430,130.444 C430,139.036 436.964,146 445.556,146 C454.147,146 461.111,139.036 461.111,130.444 C461.111,128.297 459.37,126.556 457.222,126.556 C455.074,126.556 453.333,128.297 453.333,130.444 Z M461.111,130.444 C461.111,121.853 454.147,114.889 445.556,114.889 C436.964,114.889 430,121.853 430,130.444 C430,132.592 431.741,134.333 433.889,134.333 C436.037,134.333 437.778,132.592 437.778,130.444 C437.778,126.149 441.26,122.667 445.556,122.667 C449.851,122.667 453.333,126.149 453.333,130.444 C453.333,132.592 455.074,134.333 457.222,134.333 C459.37,134.333 461.111,132.592 461.111,130.444 Z M494.167,132.389 C494.167,135.611 491.555,138.222 488.333,138.222 C485.112,138.222 482.5,135.611 482.5,132.389 C482.5,129.167 485.112,126.556 488.333,126.556 C491.555,126.556 494.167,129.167 494.167,132.389 Z M501.944,132.389 C501.944,124.872 495.851,118.778 488.333,118.778 C480.816,118.778 474.722,124.872 474.722,132.389 C474.722,139.906 480.816,146 488.333,146 C495.851,146 501.944,139.906 501.944,132.389 Z" />
        </g>
        <g id="Black-M" transform="translate(0,200)">
            <path d="M672.778,95.444 L681.866,95.444 C682.692,95.444 682.858,95.452 682.821,95.443 C682.836,95.447 682.836,95.447 682.836,95.447 C682.813,95.432 682.813,95.432 682.789,95.416 C682.812,95.432 682.96,95.57 683.526,96.133 L699.315,111.926 C699.878,112.489 700.021,112.641 700.043,112.672 C700.029,112.652 700.029,112.652 700.012,112.625 C699.996,112.6 700.004,112.619 700.007,112.63 C699.992,112.569 700,112.74 700,113.578 L700,124.611 C700,126.227 699.973,126.623 699.999,126.56 C700.003,126.552 700.003,126.552 700.003,126.552 C700.058,126.528 699.664,126.556 698.056,126.556 C695.908,126.556 694.167,128.297 694.167,130.444 C694.167,132.592 695.908,134.333 698.056,134.333 C700.977,134.333 701.669,134.286 702.991,133.732 C704.88,132.951 706.393,131.44 707.184,129.538 C707.731,128.214 707.778,127.526 707.778,124.611 L707.778,113.578 C707.778,112.037 707.759,111.622 707.57,110.815 C707.371,110.003 707.063,109.26 706.652,108.575 C706.509,108.348 706.509,108.348 706.39,108.177 C706.004,107.632 705.753,107.364 704.815,106.426 L689.019,90.626 C688.052,89.665 687.801,89.43 687.251,89.045 C687.076,88.926 687.076,88.926 686.893,88.811 C686.203,88.388 685.441,88.073 684.645,87.882 C683.84,87.686 683.42,87.667 681.866,87.667 L672.778,87.667 C670.63,87.667 668.889,89.408 668.889,91.556 C668.889,93.703 670.63,95.444 672.778,95.444 Z M678.611,126.556 L672.778,126.556 C670.63,126.556 668.889,128.297 668.889,130.444 C668.889,132.592 670.63,134.333 672.778,134.333 L678.611,134.333 C680.759,134.333 682.5,132.592 682.5,130.444 C682.5,128.297 680.759,126.556 678.611,126.556 Z M676.667,130.444 L676.667,92.333 C676.667,86.108 676.546,84.63 675.395,82.371 C674.276,80.175 672.492,78.39 670.297,77.272 C668.037,76.121 666.559,76 660.333,76 L638.556,76 C632.33,76 630.852,76.121 628.593,77.271 C626.397,78.39 624.612,80.175 623.494,82.37 C622.343,84.63 622.222,86.108 622.222,92.333 L622.222,122.667 C622.222,125.761 623.451,128.728 625.639,130.916 C627.827,133.104 630.795,134.333 633.889,134.333 C636.037,134.333 637.778,132.592 637.778,130.444 C637.778,128.297 636.037,126.556 633.889,126.556 C632.857,126.556 631.868,126.146 631.139,125.417 C630.41,124.687 630,123.698 630,122.667 L630,92.333 C630,87.67 630.091,86.554 630.424,85.901 C630.797,85.169 631.392,84.575 632.123,84.202 C632.777,83.869 633.893,83.778 638.556,83.778 L660.333,83.778 C664.996,83.778 666.112,83.869 666.766,84.202 C667.497,84.575 668.092,85.169 668.465,85.901 C668.798,86.554 668.889,87.67 668.889,92.333 L668.889,130.444 C668.889,132.592 670.63,134.333 672.778,134.333 C674.926,134.333 676.667,132.592 676.667,130.444 Z M672.778,126.556 L657.222,126.556 C655.074,126.556 653.333,128.297 653.333,130.444 C653.333,132.592 655.074,134.333 657.222,134.333 L672.778,134.333 C674.926,134.333 676.667,132.592 676.667,130.444 C676.667,128.297 674.926,126.556 672.778,126.556 Z M653.333,130.444 C653.333,134.74 649.851,138.222 645.556,138.222 C641.26,138.222 637.778,134.74 637.778,130.444 C637.778,128.297 636.037,126.556 633.889,126.556 C631.741,126.556 630,128.297 630,130.444 C630,139.036 636.964,146 645.556,146 C654.147,146 661.111,139.036 661.111,130.444 C661.111,128.297 659.37,126.556 657.222,126.556 C655.074,126.556 653.333,128.297 653.333,130.444 Z M661.111,130.444 C661.111,121.853 654.147,114.889 645.556,114.889 C636.964,114.889 630,121.853 630,130.444 C630,132.592 631.741,134.333 633.889,134.333 C636.037,134.333 637.778,132.592 637.778,130.444 C637.778,126.149 641.26,122.667 645.556,122.667 C649.851,122.667 653.333,126.149 653.333,130.444 C653.333,132.592 655.074,134.333 657.222,134.333 C659.37,134.333 661.111,132.592 661.111,130.444 Z M694.167,132.389 C694.167,135.611 691.555,138.222 688.333,138.222 C685.112,138.222 682.5,135.611 682.5,132.389 C682.5,129.167 685.112,126.556 688.333,126.556 C691.555,126.556 694.167,129.167 694.167,132.389 Z M701.944,132.389 C701.944,124.872 695.851,118.778 688.333,118.778 C680.816,118.778 674.722,124.872 674.722,132.389 C674.722,139.906 680.816,146 688.333,146 C695.851,146 701.944,139.906 701.944,132.389 Z" />
        </g>
    </g>
</svg>