<?xml version="1.0" encoding="UTF-8"?>
<svg height="600" width="800" xmlns="http://www.w3.org/2000/svg" xmlns:xlink="http://www.w3.org/1999/xlink">
    <g id="Notes" font-family="LucidaGrande, 'Lucida Grande', sans-serif" font-size="13">
        <rect fill="white" height="600.0" width="800.0" x="0.0" y="0.0" />
        <g font-size="13">
            <text x="18.0" y="176.0">Small</text>
            <text x="18.0" y="376.0">Medium</text>
            <text x="18.0" y="576.0">Large</text>
        </g>
        <g font-size="9">
            <text x="250.0" y="30.0">Ultralight</text>
            <text x="450.0" y="30.0">Regular</text>
            <text x="650.0" y="30.0">Black</text>
            <text id="template-version" fill="#505050" text-anchor="end" x="785.0" y="575.0">Template v.3.0</text>
            <a href="https://github.com/swhitty/SwiftDraw">
                <text fill="#505050" text-anchor="end" x="785.0" y="590.0">https://github.com/swhitty/SwiftDraw</text>
            </a>
        </g>
    </g>
    <g id="Guides" stroke="rgb(39, 170, 225)" stroke-width="0.5">
        <path id="Capline-S" d="M18,76 l800,0" />
        <path id="H-reference" d="M85,145.755 L87.685,145.755 L113.369,79.287 L114.052,79.287 L114.052,76 L112.148,76 L85,145.755 Z M95.693,121.536 L130.996,121.536 L130.263,119.313 L96.474,119.313 L95.693,121.536 Z M139.15,145.755 L141.787,145.755 L114.638,76 L113.466,76 L113.466,79.287 L139.15,145.755 Z" stroke="none" transform="translate(0,200)" />
        <path id="Baseline-S" d="M18,146 l800,0" />
        <path id="left-margin-Ultralight-M" d="M221,256 l0,110" />
        <path id="right-margin-Ultralight-M" d="M309,256 l0,110" />
        <path id="left-margin-Regular-M" d="M421,256 l0,110" />
        <path id="right-margin-Regular-M" d="M509,256 l0,110" />
        <path id="left-margin-Black-M" d="M621,256 l0,110" />
        <path id="right-margin-Black-M" d="M709,256 l0,110" />
        <path id="Capline-M" d="M18,276 l800,0" />
        <path id="Baseline-M" d="M18,346 l800,0" />
        <path id="Capline-L" d="M18,476 l800,0" />
        <path id="Baseline-L" d="M18,546 l800,0" />
    </g>
    <g id="Symbols">
        <g id="Ultralight-M" transform="translate(0,200)">
            <path d="M249.6,100 L249.6,97.8 C249.6,97.219 249.824,96.678 250.22,96.269 C251.066,95.397 251.044,94.004 250.172,93.158 C249.3,92.312 247.907,92.334 247.061,93.206 C245.877,94.428 245.2,96.064 245.2,97.8 L245.2,100 C245.2,101.215 246.185,102.2 247.4,102.2 C248.615,102.2 249.6,101.215 249.6,100 Z M258.4,130.8 L271.6,130.8 C272.815,130.8 273.8,129.815 273.8,128.6 C273.8,127.385 272.815,126.4 271.6,126.4 L258.4,126.4 C257.185,126.4 256.2,127.385 256.2,128.6 C256.2,129.815 257.185,130.8 258.4,130.8 Z M262.8,111 L262.8,128.6 C262.8,129.815 263.785,130.8 265,130.8 C266.215,130.8 267.2,129.815 267.2,128.6 L267.2,111 C267.2,109.785 266.215,108.8 265,108.8 C263.785,108.8 262.8,109.785 262.8,111 Z M243.644,92.756 L283.244,132.356 C284.104,133.215 285.496,133.215 286.356,132.356 C287.215,131.496 287.215,130.104 286.356,129.244 L246.756,89.644 C245.896,88.785 244.504,88.785 243.644,89.644 C242.785,90.504 242.785,91.896 243.644,92.756 Z M259.5,95.6 L276,95.6 C278.194,95.6 278.725,95.636 279.041,95.767 C279.581,95.99 280.01,96.419 280.233,96.958 C280.364,97.275 280.4,97.806 280.4,100 C280.4,101.215 281.385,102.2 282.6,102.2 C283.815,102.2 284.8,101.215 284.8,100 C284.8,97.068 284.753,96.372 284.298,95.275 C283.628,93.657 282.343,92.372 280.724,91.702 C279.628,91.247 278.932,91.2 276,91.2 L259.5,91.2 C258.285,91.2 257.3,92.185 257.3,93.4 C257.3,94.615 258.285,95.6 259.5,95.6 Z M262.8,93.4 L262.8,98.9 C262.8,100.115 263.785,101.1 265,101.1 C266.215,101.1 267.2,100.115 267.2,98.9 L267.2,93.4 C267.2,92.185 266.215,91.2 265,91.2 C263.785,91.2 262.8,92.185 262.8,93.4 Z" />
        </g>
        <g id="Regular-M" transform="translate(0,200)">
            <path d="M449.6,100 L449.6,97.8 C449.6,97.219 449.824,96.678 450.22,96.269 C451.066,95.397 451.044,94.004 450.172,93.158 C449.3,92.312 447.907,92.334 447.061,93.206 C445.877,94.428 445.2,96.064 445.2,97.8 L445.2,100 C445.2,101.215 446.185,102.2 447.4,102.2 C448.615,102.2 449.6,101.215 449.6,100 Z M458.4,130.8 L471.6,130.8 C472.815,130.8 473.8,129.815 473.8,128.6 C473.8,127.385 472.815,126.4 471.6,126.4 L458.4,126.4 C457.185,126.4 456.2,127.385 456.2,128.6 C456.2,129.815 457.185,130.8 458.4,130.8 Z M462.8,111 L462.8,128.6 C462.8,129.815 463.785,130.8 465,130.8 C466.215,130.8 467.2,129.815 467.2,128.6 L467.2,111 C467.2,109.785 466.215,108.8 465,108.8 C463.785,108.8 462.8,109.785 462.8,111 Z M443.644,92.756 L483.244,132.356 C484.104,133.215 485.496,133.215 486.356,132.356 C487.215,131.496 487.215,130.104 486.356,129.244 L446.756,89.644 C445.896,88.785 444.504,88.785 443.644,89.644 C442.785,90.504 442.785,91.896 443.644,92.756 Z M459.5,95.6 L476,95.6 C478.194,95.6 478.725,95.636 479.041,95.767 C479.581,95.99 480.01,96.419 480.233,96.958 C480.364,97.275 480.4,97.806 480.4,100 C480.4,101.215 481.385,102.2 482.6,102.2 C483.815,102.2 484.8,101.215 484.8,100 C484.8,97.068 484.753,96.372 484.298,95.275 C483.628,93.657 482.343,92.372 480.724,91.702 C479.628,91.247 478.932,91.2 476,91.2 L459.5,91.2 C458.285,91.2 457.3,92.185 457.3,93.4 C457.3,94.615 458.285,95.6 459.5,95.6 Z M462.8,93.4 L462.8,98.9 C462.8,100.115 463.785,101.1 465,101.1 C466.215,101.1 467.2,100.115 467.2,98.9 L467.2,93.4 C467.2,92.185 466.215,91.2 465,91.2 C463.785,91.2 462.8,92.185 462.8,93.4 Z" />
        </g>
        <g id="Black-M" transform="translate(0,200)">
            <path d="M649.6,100 L649.6,97.8 C649.6,97.219 649.824,96.678 650.22,96.269 C651.066,95.397 651.044,94.004 650.172,93.158 C649.3,92.312 647.907,92.334 647.061,93.206 C645.877,94.428 645.2,96.064 645.2,97.8 L645.2,100 C645.2,101.215 646.185,102.2 647.4,102.2 C648.615,102.2 649.6,101.215 649.6,100 Z M658.4,130.8 L671.6,130.8 C672.815,130.8 673.8,129.815 673.8,128.6 C673.8,127.385 672.815,126.4 671.6,126.4 L658.4,126.4 C657.185,126.4 656.2,127.385 656.2,128.6 C656.2,129.815 657.185,130.8 658.4,130.8 Z M662.8,111 L662.8,128.6 C662.8,129.815 663.785,130.8 665,130.8 C666.215,130.8 667.2,129.815 667.2,128.6 L667.2,111 C667.2,109.785 666.215,108.8 665,108.8 C663.785,108.8 662.8,109.785 662.8,111 Z M643.644,92.756 L683.244,132.356 C684.104,133.215 685.496,133.215 686.356,132.356 C687.215,131.496 687.215,130.104 686.356,129.244 L646.756,89.644 C645.896,88.785 644.503,88.785 643.644,89.644 C642.785,90.504 642.785,91.896 643.644,92.756 Z M659.5,95.6 L676,95.6 C678.194,95.6 678.725,95.636 679.041,95.767 C679.581,95.99 680.01,96.419 680.233,96.958 C680.364,97.275 680.4,97.806 680.4,100 C680.4,101.215 681.385,102.2 682.6,102.2 C683.815,102.2 684.8,101.215 684.8,100 C684.8,97.068 684.753,96.372 684.298,95.275 C683.628,93.657 682.343,92.372 680.724,91.702 C679.628,91.247 678.932,91.2 676,91.2 L659.5,91.2 C658.285,91.2 657.3,92.185 657.3,93.4 C657.3,94.615 658.285,95.6 659.5,95.6 Z M662.8,93.4 L662.8,98.9 C662.8,100.115 663.785,101.1 665,101.1 C666.215,101.1 667.2,100.115 667.2,98.9 L667.2,93.4 C667.2,92.185 666.215,91.2 665,91.2 C663.785,91.2 662.8,92.185 662.8,93.4 Z" />
        </g>
    </g>
</svg>