<?xml version="1.0" encoding="UTF-8"?>
<svg height="600" width="800" xmlns="http://www.w3.org/2000/svg" xmlns:xlink="http://www.w3.org/1999/xlink">
    <g id="Notes" font-family="LucidaGrande, 'Lucida Grande', sans-serif" font-size="13">
        <rect fill="white" height="600.0" width="800.0" x="0.0" y="0.0" />
        <g font-size="13">
            <text x="18.0" y="176.0">Small</text>
            <text x="18.0" y="376.0">Medium</text>
            <text x="18.0" y="576.0">Large</text>
        </g>
        <g font-size="9">
            <text x="250.0" y="30.0">Ultralight</text>
            <text x="450.0" y="30.0">Regular</text>
            <text x="650.0" y="30.0">Black</text>
            <text id="template-version" fill="#505050" text-anchor="end" x="785.0" y="575.0">Template v.3.0</text>
            <a href="https://github.com/swhitty/SwiftDraw">
                <text fill="#505050" text-anchor="end" x="785.0" y="590.0">https://github.com/swhitty/SwiftDraw</text>
            </a>
        </g>
    </g>
    <g id="Guides" stroke="rgb(39, 170, 225)" stroke-width="0.5">
        <path id="Capline-S" d="M18,76 l800,0" />
        <path id="H-reference" d="M85,145.755 L87.685,145.755 L113.369,79.287 L114.052,79.287 L114.052,76 L112.148,76 L85,145.755 Z M95.693,121.536 L130.996,121.536 L130.263,119.313 L96.474,119.313 L95.693,121.536 Z M139.15,145.755 L141.787,145.755 L114.638,76 L113.466,76 L113.466,79.287 L139.15,145.755 Z" stroke="none" transform="translate(0,200)" />
        <path id="Baseline-S" d="M18,146 l800,0" />
        <path id="left-margin-Ultralight-M" d="M221,256 l0,110" />
        <path id="right-margin-Ultralight-M" d="M309,256 l0,110" />
        <path id="left-margin-Regular-M" d="M421,256 l0,110" />
        <path id="right-margin-Regular-M" d="M509,256 l0,110" />
        <path id="left-margin-Black-M" d="M621,256 l0,110" />
        <path id="right-margin-Black-M" d="M709,256 l0,110" />
        <path id="Capline-M" d="M18,276 l800,0" />
        <path id="Baseline-M" d="M18,346 l800,0" />
        <path id="Capline-L" d="M18,476 l800,0" />
        <path id="Baseline-L" d="M18,546 l800,0" />
    </g>
    <g id="Symbols">
        <g id="Ultralight-M" transform="translate(0,200)">
            <path d="M252.429,126.505 C252.429,130.652 255.694,134.048 259.762,134.048 C263.83,134.048 267.095,130.652 267.095,126.505 L267.095,108.905 C267.095,107.748 266.157,106.81 265,106.81 C263.843,106.81 262.905,107.748 262.905,108.905 L262.905,126.505 C262.905,128.374 261.478,129.857 259.762,129.857 C258.046,129.857 256.619,128.374 256.619,126.505 C256.619,125.348 255.681,124.41 254.524,124.41 C253.367,124.41 252.429,125.348 252.429,126.505 Z M265,106.81 C264.062,106.81 263.023,106.937 261.889,107.171 C260.937,107.367 259.939,107.633 258.919,107.953 C258.146,108.195 257.404,108.453 256.716,108.712 C256.3,108.868 255.989,108.992 255.81,109.067 L257.843,109.299 C257.375,108.963 256.609,108.501 255.61,108.046 C253.921,107.276 252.145,106.81 250.333,106.81 C248.522,106.81 246.746,107.276 245.057,108.046 C244.057,108.501 243.292,108.963 242.824,109.299 L246.143,111 C246.143,100.585 254.585,92.143 265,92.143 C275.415,92.143 283.857,100.585 283.857,111 L287.176,109.299 C286.708,108.963 285.943,108.501 284.943,108.046 C283.254,107.276 281.478,106.81 279.667,106.81 C277.855,106.81 276.079,107.276 274.39,108.046 C273.391,108.501 272.625,108.963 272.157,109.299 L274.19,109.067 C274.011,108.992 273.7,108.868 273.284,108.712 C272.596,108.453 271.854,108.195 271.081,107.953 C270.061,107.633 269.063,107.367 268.111,107.171 C266.977,106.937 265.938,106.81 265,106.81 Z M265,111 C265.62,111 266.389,111.095 267.265,111.275 C268.069,111.44 268.934,111.672 269.83,111.952 C270.522,112.169 271.19,112.401 271.808,112.634 C272.175,112.772 272.438,112.877 272.572,112.933 C273.244,113.214 274.013,113.126 274.605,112.701 C274.865,112.513 275.402,112.189 276.127,111.859 C277.313,111.319 278.527,111 279.667,111 C280.807,111 282.02,111.319 283.206,111.859 C283.931,112.189 284.468,112.513 284.729,112.701 C286.115,113.698 288.048,112.707 288.048,111 C288.048,98.271 277.729,87.952 265,87.952 C252.271,87.952 241.952,98.271 241.952,111 C241.952,112.707 243.885,113.698 245.271,112.701 C245.532,112.513 246.069,112.189 246.794,111.859 C247.98,111.319 249.193,111 250.333,111 C251.473,111 252.687,111.319 253.873,111.859 C254.598,112.189 255.135,112.513 255.395,112.701 C255.987,113.126 256.756,113.214 257.428,112.933 C257.562,112.877 257.825,112.772 258.192,112.634 C258.81,112.401 259.478,112.169 260.17,111.952 C261.066,111.672 261.931,111.44 262.735,111.275 C263.611,111.095 264.38,111 265,111 Z" />
        </g>
        <g id="Regular-M" transform="translate(0,200)">
            <path d="M452.429,126.505 C452.429,130.652 455.694,134.048 459.762,134.048 C463.83,134.048 467.095,130.652 467.095,126.505 L467.095,108.905 C467.095,107.748 466.157,106.81 465,106.81 C463.843,106.81 462.905,107.748 462.905,108.905 L462.905,126.505 C462.905,128.374 461.478,129.857 459.762,129.857 C458.046,129.857 456.619,128.374 456.619,126.505 C456.619,125.348 455.681,124.41 454.524,124.41 C453.367,124.41 452.429,125.348 452.429,126.505 Z M465,106.81 C464.062,106.81 463.023,106.937 461.889,107.171 C460.937,107.367 459.939,107.633 458.919,107.953 C458.146,108.195 457.404,108.453 456.716,108.712 C456.3,108.868 455.989,108.992 455.81,109.067 L457.843,109.299 C457.375,108.963 456.609,108.501 455.61,108.046 C453.921,107.276 452.145,106.81 450.333,106.81 C448.522,106.81 446.746,107.276 445.057,108.046 C444.057,108.501 443.292,108.963 442.824,109.299 L446.143,111 C446.143,100.585 454.585,92.143 465,92.143 C475.415,92.143 483.857,100.585 483.857,111 L487.176,109.299 C486.708,108.963 485.943,108.501 484.943,108.046 C483.254,107.276 481.478,106.81 479.667,106.81 C477.855,106.81 476.079,107.276 474.39,108.046 C473.391,108.501 472.625,108.963 472.157,109.299 L474.19,109.067 C474.011,108.992 473.7,108.868 473.284,108.712 C472.596,108.453 471.854,108.195 471.081,107.953 C470.061,107.633 469.063,107.367 468.111,107.171 C466.977,106.937 465.938,106.81 465,106.81 Z M465,111 C465.62,111 466.389,111.095 467.265,111.275 C468.069,111.44 468.934,111.672 469.83,111.952 C470.522,112.169 471.19,112.401 471.808,112.634 C472.175,112.772 472.438,112.877 472.572,112.933 C473.244,113.214 474.013,113.126 474.605,112.701 C474.865,112.513 475.402,112.189 476.127,111.859 C477.313,111.319 478.527,111 479.667,111 C480.807,111 482.02,111.319 483.206,111.859 C483.931,112.189 484.468,112.513 484.729,112.701 C486.115,113.698 488.048,112.707 488.048,111 C488.048,98.271 477.729,87.952 465,87.952 C452.271,87.952 441.952,98.271 441.952,111 C441.952,112.707 443.885,113.698 445.271,112.701 C445.532,112.513 446.069,112.189 446.794,111.859 C447.98,111.319 449.193,111 450.333,111 C451.473,111 452.687,111.319 453.873,111.859 C454.598,112.189 455.135,112.513 455.395,112.701 C455.987,113.126 456.756,113.214 457.428,112.933 C457.562,112.877 457.825,112.772 458.192,112.634 C458.81,112.401 459.478,112.169 460.17,111.952 C461.066,111.672 461.931,111.44 462.735,111.275 C463.611,111.095 464.38,111 465,111 Z" />
        </g>
        <g id="Black-M" transform="translate(0,200)">
            <path d="M652.429,126.505 C652.429,130.652 655.694,134.048 659.762,134.048 C663.83,134.048 667.095,130.652 667.095,126.505 L667.095,108.905 C667.095,107.748 666.157,106.81 665,106.81 C663.843,106.81 662.905,107.748 662.905,108.905 L662.905,126.505 C662.905,128.374 661.478,129.857 659.762,129.857 C658.046,129.857 656.619,128.374 656.619,126.505 C656.619,125.348 655.681,124.41 654.524,124.41 C653.367,124.41 652.429,125.348 652.429,126.505 Z M665,106.81 C664.062,106.81 663.023,106.937 661.889,107.171 C660.937,107.367 659.939,107.633 658.919,107.953 C658.146,108.195 657.404,108.453 656.716,108.712 C656.3,108.868 655.989,108.992 655.81,109.067 L657.843,109.299 C657.375,108.963 656.609,108.501 655.61,108.046 C653.921,107.276 652.145,106.81 650.333,106.81 C648.522,106.81 646.746,107.276 645.057,108.046 C644.057,108.501 643.292,108.963 642.824,109.299 L646.143,111 C646.143,100.585 654.585,92.143 665,92.143 C675.415,92.143 683.857,100.585 683.857,111 L687.176,109.299 C686.708,108.963 685.943,108.501 684.943,108.046 C683.254,107.276 681.478,106.81 679.667,106.81 C677.855,106.81 676.079,107.276 674.39,108.046 C673.391,108.501 672.625,108.963 672.157,109.299 L674.19,109.067 C674.011,108.992 673.7,108.868 673.284,108.712 C672.596,108.453 671.854,108.195 671.081,107.953 C670.061,107.633 669.063,107.367 668.111,107.171 C666.977,106.937 665.938,106.81 665,106.81 Z M665,111 C665.62,111 666.389,111.095 667.265,111.275 C668.069,111.44 668.934,111.672 669.83,111.952 C670.522,112.169 671.19,112.401 671.808,112.634 C672.175,112.772 672.438,112.877 672.572,112.933 C673.244,113.214 674.013,113.126 674.605,112.701 C674.865,112.513 675.402,112.189 676.127,111.859 C677.313,111.319 678.527,111 679.667,111 C680.807,111 682.02,111.319 683.206,111.859 C683.931,112.189 684.468,112.513 684.729,112.701 C686.115,113.698 688.048,112.707 688.048,111 C688.048,98.271 677.729,87.952 665,87.952 C652.271,87.952 641.952,98.271 641.952,111 C641.952,112.707 643.885,113.698 645.271,112.701 C645.532,112.513 646.069,112.189 646.794,111.859 C647.98,111.319 649.193,111 650.333,111 C651.473,111 652.687,111.319 653.872,111.859 C654.598,112.189 655.135,112.513 655.395,112.701 C655.987,113.126 656.756,113.214 657.428,112.933 C657.562,112.877 657.825,112.772 658.192,112.634 C658.81,112.401 659.478,112.169 660.17,111.952 C661.066,111.672 661.931,111.44 662.735,111.275 C663.611,111.095 664.38,111 665,111 Z" />
        </g>
    </g>
</svg>