<?xml version="1.0" encoding="UTF-8"?>
<svg height="600" width="800" xmlns="http://www.w3.org/2000/svg" xmlns:xlink="http://www.w3.org/1999/xlink">
    <g id="Notes" font-family="LucidaGrande, 'Lucida Grande', sans-serif" font-size="13">
        <rect fill="white" height="600.0" width="800.0" x="0.0" y="0.0" />
        <g font-size="13">
            <text x="18.0" y="176.0">Small</text>
            <text x="18.0" y="376.0">Medium</text>
            <text x="18.0" y="576.0">Large</text>
        </g>
        <g font-size="9">
            <text x="250.0" y="30.0">Ultralight</text>
            <text x="450.0" y="30.0">Regular</text>
            <text x="650.0" y="30.0">Black</text>
            <text id="template-version" fill="#505050" text-anchor="end" x="785.0" y="575.0">Template v.3.0</text>
            <a href="https://github.com/swhitty/SwiftDraw">
                <text fill="#505050" text-anchor="end" x="785.0" y="590.0">https://github.com/swhitty/SwiftDraw</text>
            </a>
        </g>
    </g>
    <g id="Guides" stroke="rgb(39, 170, 225)" stroke-width="0.5">
        <path id="Capline-S" d="M18,76 l800,0" />
        <path id="H-reference" d="M85,145.755 L87.685,145.755 L113.369,79.287 L114.052,79.287 L114.052,76 L112.148,76 L85,145.755 Z M95.693,121.536 L130.996,121.536 L130.263,119.313 L96.474,119.313 L95.693,121.536 Z M139.15,145.755 L141.787,145.755 L114.638,76 L113.466,76 L113.466,79.287 L139.15,145.755 Z" stroke="none" transform="translate(0,200)" />
        <path id="Baseline-S" d="M18,146 l800,0" />
        <path id="left-margin-Ultralight-M" d="M230,256 l0,110" />
        <path id="right-margin-Ultralight-M" d="M300,256 l0,110" />
        <path id="left-margin-Regular-M" d="M430,256 l0,110" />
        <path id="right-margin-Regular-M" d="M500,256 l0,110" />
        <path id="left-margin-Black-M" d="M630,256 l0,110" />
        <path id="right-margin-Black-M" d="M700,256 l0,110" />
        <path id="Capline-M" d="M18,276 l800,0" />
        <path id="Baseline-M" d="M18,346 l800,0" />
        <path id="Capline-L" d="M18,476 l800,0" />
        <path id="Baseline-L" d="M18,546 l800,0" />
    </g>
    <g id="Symbols">
        <g id="Ultralight-M" transform="translate(0,200)">
            <path d="M249.458,144.282 L267.752,112.593 C268.631,111.071 268.109,109.125 266.588,108.247 C265.066,107.368 263.12,107.89 262.242,109.411 L243.948,141.1 C243.069,142.622 243.591,144.568 245.112,145.447 C246.634,146.325 248.58,145.804 249.458,144.282 Z M282.495,80.694 C267.555,72.068 248.629,75.646 237.858,88.897 C236.778,90.229 236.478,90.635 236.11,91.423 C235.879,91.917 235.721,92.426 235.632,92.966 C235.405,94.362 235.705,95.987 236.414,97.204 C236.792,97.855 237.276,98.392 237.881,98.877 C238.447,99.331 238.862,99.586 240.259,100.394 L286.552,127.12 C288.978,128.523 289.693,128.846 291.224,128.857 C292.742,128.818 294.103,128.335 295.221,127.477 C296.08,126.775 296.606,126.035 297.057,125.063 C297.248,124.652 297.374,124.333 297.71,123.454 C303.802,107.501 297.436,89.32 282.495,80.694 Z M279.314,86.205 C291.537,93.262 296.747,108.14 291.766,121.184 C291.489,121.908 291.388,122.161 291.284,122.385 C291.207,122.552 291.224,122.528 291.267,122.493 C291.293,122.47 291.229,122.493 291.162,122.495 C291.324,122.495 291.052,122.372 289.735,121.61 L243.442,94.884 C242.387,94.274 242.066,94.076 241.86,93.912 C241.834,93.891 241.871,93.932 241.912,94.001 C241.946,94.06 241.922,93.929 241.912,93.992 C241.904,94.037 241.889,94.087 241.875,94.117 C241.928,94.003 242.11,93.757 242.798,92.908 C251.602,82.076 267.091,79.148 279.314,86.205 Z M282.496,80.694 C274.198,75.901 260.811,86.434 251.221,103.048 C250.342,104.57 250.864,106.516 252.385,107.394 C253.907,108.273 255.853,107.751 256.731,106.229 C264.709,92.409 275.439,83.966 279.313,86.204 C280.835,87.083 282.781,86.562 283.659,85.041 C284.538,83.519 284.017,81.573 282.496,80.694 Z M279.313,86.204 C283.189,88.443 281.243,101.954 273.263,115.774 C272.384,117.296 272.905,119.242 274.427,120.121 C275.948,120.999 277.894,120.478 278.773,118.956 C288.365,102.344 290.794,85.487 282.496,80.694 C280.974,79.815 279.028,80.336 278.15,81.858 C277.271,83.379 277.792,85.325 279.313,86.204 Z M296.812,139.637 L233.182,139.637 C231.424,139.637 230,141.061 230,142.818 C230,144.576 231.424,146 233.182,146 L296.812,146 C298.569,146 299.994,144.576 299.994,142.818 C299.994,141.061 298.569,139.637 296.812,139.637 Z" />
        </g>
        <g id="Regular-M" transform="translate(0,200)">
            <path d="M449.458,144.282 L467.752,112.593 C468.631,111.071 468.109,109.125 466.588,108.247 C465.066,107.368 463.12,107.89 462.242,109.411 L443.948,141.1 C443.069,142.622 443.591,144.568 445.112,145.447 C446.634,146.325 448.58,145.804 449.458,144.282 Z M482.495,80.694 C467.555,72.068 448.629,75.646 437.858,88.897 C436.778,90.229 436.478,90.635 436.11,91.423 C435.879,91.917 435.721,92.426 435.632,92.966 C435.405,94.362 435.705,95.987 436.414,97.204 C436.792,97.855 437.276,98.392 437.881,98.877 C438.447,99.331 438.862,99.586 440.259,100.394 L486.552,127.12 C488.978,128.523 489.693,128.846 491.224,128.857 C492.742,128.818 494.103,128.335 495.221,127.477 C496.08,126.775 496.606,126.035 497.057,125.063 C497.248,124.652 497.374,124.333 497.71,123.454 C503.802,107.501 497.436,89.32 482.495,80.694 Z M479.314,86.205 C491.537,93.262 496.747,108.14 491.766,121.184 C491.489,121.908 491.388,122.161 491.284,122.385 C491.207,122.552 491.224,122.528 491.267,122.493 C491.293,122.47 491.229,122.493 491.162,122.495 C491.324,122.495 491.052,122.372 489.735,121.61 L443.442,94.884 C442.387,94.274 442.066,94.076 441.86,93.912 C441.834,93.891 441.871,93.932 441.912,94.001 C441.946,94.06 441.922,93.929 441.912,93.992 C441.904,94.037 441.889,94.087 441.875,94.117 C441.928,94.003 442.11,93.757 442.798,92.908 C451.602,82.076 467.091,79.148 479.314,86.205 Z M482.496,80.694 C474.198,75.901 460.811,86.434 451.221,103.048 C450.342,104.57 450.864,106.516 452.385,107.394 C453.907,108.273 455.853,107.751 456.731,106.229 C464.709,92.409 475.439,83.966 479.313,86.204 C480.835,87.083 482.781,86.562 483.659,85.041 C484.538,83.519 484.017,81.573 482.496,80.694 Z M479.313,86.204 C483.189,88.443 481.243,101.954 473.263,115.774 C472.384,117.296 472.905,119.242 474.427,120.121 C475.948,120.999 477.894,120.478 478.773,118.956 C488.365,102.344 490.794,85.487 482.496,80.694 C480.974,79.815 479.028,80.336 478.15,81.858 C477.271,83.379 477.792,85.325 479.313,86.204 Z M496.812,139.637 L433.182,139.637 C431.424,139.637 430,141.061 430,142.818 C430,144.576 431.424,146 433.182,146 L496.812,146 C498.569,146 499.994,144.576 499.994,142.818 C499.994,141.061 498.569,139.637 496.812,139.637 Z" />
        </g>
        <g id="Black-M" transform="translate(0,200)">
            <path d="M649.458,144.282 L667.752,112.593 C668.631,111.071 668.109,109.125 666.588,108.247 C665.066,107.368 663.12,107.89 662.242,109.411 L643.948,141.1 C643.069,142.622 643.591,144.568 645.112,145.447 C646.634,146.325 648.58,145.804 649.458,144.282 Z M682.495,80.694 C667.555,72.068 648.629,75.646 637.858,88.897 C636.778,90.229 636.478,90.635 636.11,91.423 C635.879,91.917 635.721,92.426 635.632,92.966 C635.405,94.362 635.705,95.987 636.414,97.204 C636.792,97.855 637.276,98.392 637.881,98.877 C638.447,99.331 638.862,99.586 640.259,100.394 L686.552,127.12 C688.978,128.523 689.693,128.846 691.224,128.857 C692.742,128.818 694.103,128.335 695.221,127.477 C696.08,126.775 696.606,126.035 697.057,125.063 C697.248,124.652 697.374,124.333 697.71,123.454 C703.802,107.501 697.436,89.32 682.495,80.694 Z M679.314,86.205 C691.537,93.262 696.747,108.14 691.766,121.184 C691.489,121.908 691.388,122.161 691.284,122.385 C691.207,122.552 691.224,122.528 691.267,122.493 C691.293,122.47 691.229,122.493 691.162,122.495 C691.324,122.495 691.052,122.372 689.735,121.61 L643.442,94.884 C642.387,94.274 642.066,94.076 641.86,93.912 C641.834,93.891 641.871,93.932 641.912,94.001 C641.946,94.06 641.922,93.929 641.912,93.992 C641.904,94.037 641.889,94.087 641.875,94.117 C641.928,94.003 642.11,93.757 642.798,92.908 C651.602,82.076 667.091,79.148 679.314,86.205 Z M682.496,80.694 C674.198,75.901 660.811,86.434 651.221,103.048 C650.342,104.57 650.864,106.516 652.385,107.394 C653.907,108.273 655.853,107.751 656.731,106.229 C664.709,92.409 675.439,83.966 679.313,86.204 C680.835,87.083 682.781,86.562 683.659,85.041 C684.538,83.519 684.017,81.573 682.496,80.694 Z M679.313,86.204 C683.189,88.443 681.243,101.954 673.263,115.774 C672.384,117.296 672.905,119.242 674.427,120.121 C675.948,120.999 677.894,120.478 678.773,118.956 C688.365,102.344 690.794,85.487 682.496,80.694 C680.974,79.815 679.028,80.336 678.15,81.858 C677.271,83.379 677.792,85.325 679.313,86.204 Z M696.812,139.637 L633.182,139.637 C631.424,139.637 630,141.061 630,142.818 C630,144.576 631.424,146 633.182,146 L696.812,146 C698.569,146 699.994,144.576 699.994,142.818 C699.994,141.061 698.569,139.637 696.812,139.637 Z" />
        </g>
    </g>
</svg>