<?xml version="1.0" encoding="UTF-8"?>
<svg height="600" width="800" xmlns="http://www.w3.org/2000/svg" xmlns:xlink="http://www.w3.org/1999/xlink">
    <g id="Notes" font-family="LucidaGrande, 'Lucida Grande', sans-serif" font-size="13">
        <rect fill="white" height="600.0" width="800.0" x="0.0" y="0.0" />
        <g font-size="13">
            <text x="18.0" y="176.0">Small</text>
            <text x="18.0" y="376.0">Medium</text>
            <text x="18.0" y="576.0">Large</text>
        </g>
        <g font-size="9">
            <text x="250.0" y="30.0">Ultralight</text>
            <text x="450.0" y="30.0">Regular</text>
            <text x="650.0" y="30.0">Black</text>
            <text id="template-version" fill="#505050" text-anchor="end" x="785.0" y="575.0">Template v.3.0</text>
            <a href="https://github.com/swhitty/SwiftDraw">
                <text fill="#505050" text-anchor="end" x="785.0" y="590.0">https://github.com/swhitty/SwiftDraw</text>
            </a>
        </g>
    </g>
    <g id="Guides" stroke="rgb(39, 170, 225)" stroke-width="0.5">
        <path id="Capline-S" d="M18,76 l800,0" />
        <path id="H-reference" d="M85,145.755 L87.685,145.755 L113.369,79.287 L114.052,79.287 L114.052,76 L112.148,76 L85,145.755 Z M95.693,121.536 L130.996,121.536 L130.263,119.313 L96.474,119.313 L95.693,121.536 Z M139.15,145.755 L141.787,145.755 L114.638,76 L113.466,76 L113.466,79.287 L139.15,145.755 Z" stroke="none" transform="translate(0,200)" />
        <path id="Baseline-S" d="M18,146 l800,0" />
        <path id="left-margin-Ultralight-M" d="M221,256 l0,110" />
        <path id="right-margin-Ultralight-M" d="M309,256 l0,110" />
        <path id="left-margin-Regular-M" d="M421,256 l0,110" />
        <path id="right-margin-Regular-M" d="M509,256 l0,110" />
        <path id="left-margin-Black-M" d="M621,256 l0,110" />
        <path id="right-margin-Black-M" d="M709,256 l0,110" />
        <path id="Capline-M" d="M18,276 l800,0" />
        <path id="Baseline-M" d="M18,346 l800,0" />
        <path id="Capline-L" d="M18,476 l800,0" />
        <path id="Baseline-L" d="M18,546 l800,0" />
    </g>
    <g id="Symbols">
        <g id="Ultralight-M" transform="translate(0,200)">
            <path d="M273.573,94.475 L284.175,105.078 C285.003,105.906 286.346,105.906 287.174,105.078 C288.002,104.25 288.002,102.907 287.174,102.079 L276.572,91.476 C275.744,90.648 274.401,90.648 273.573,91.476 C272.745,92.305 272.745,93.647 273.573,94.475 Z M284.175,91.476 L273.573,102.079 C272.745,102.907 272.745,104.25 273.573,105.078 C274.401,105.906 275.744,105.906 276.572,105.078 L287.174,94.475 C288.002,93.647 288.002,92.305 287.174,91.476 C286.346,90.648 285.003,90.648 284.175,91.476 Z M276.133,129.024 L276.133,126.48 C276.133,121.6 276.038,120.441 275.208,118.812 C274.395,117.216 273.097,115.918 271.501,115.105 C269.872,114.275 268.713,114.181 263.834,114.181 L254.504,114.181 C249.625,114.181 248.465,114.275 246.836,115.105 C245.24,115.918 243.943,117.216 243.129,118.812 C242.3,120.441 242.205,121.6 242.205,126.48 L242.205,129.024 C242.205,130.195 243.154,131.145 244.325,131.145 C245.496,131.145 246.446,130.195 246.446,129.024 L246.446,126.48 C246.446,122.453 246.524,121.49 246.908,120.737 C247.315,119.939 247.963,119.291 248.761,118.884 C249.515,118.5 250.477,118.422 254.504,118.422 L263.834,118.422 C267.861,118.422 268.823,118.5 269.576,118.884 C270.374,119.291 271.023,119.939 271.429,120.737 C271.813,121.49 271.892,122.453 271.892,126.48 L271.892,129.024 C271.892,130.195 272.841,131.145 274.012,131.145 C275.183,131.145 276.133,130.195 276.133,129.024 Z M264.47,100.398 C264.47,103.325 262.096,105.699 259.169,105.699 C256.241,105.699 253.867,103.325 253.867,100.398 C253.867,97.47 256.241,95.096 259.169,95.096 C262.096,95.096 264.47,97.47 264.47,100.398 Z M268.711,100.398 C268.711,95.128 264.439,90.855 259.169,90.855 C253.899,90.855 249.626,95.128 249.627,100.398 C249.627,105.668 253.899,109.94 259.169,109.94 C264.439,109.94 268.711,105.668 268.711,100.398 Z" />
        </g>
        <g id="Regular-M" transform="translate(0,200)">
            <path d="M473.573,94.475 L484.175,105.078 C485.003,105.906 486.346,105.906 487.174,105.078 C488.002,104.25 488.002,102.907 487.174,102.079 L476.572,91.476 C475.744,90.648 474.401,90.648 473.573,91.476 C472.745,92.305 472.745,93.647 473.573,94.475 Z M484.175,91.476 L473.573,102.079 C472.745,102.907 472.745,104.25 473.573,105.078 C474.401,105.906 475.744,105.906 476.572,105.078 L487.174,94.475 C488.002,93.647 488.002,92.305 487.174,91.476 C486.346,90.648 485.003,90.648 484.175,91.476 Z M476.133,129.024 L476.133,126.48 C476.133,121.6 476.038,120.441 475.208,118.812 C474.395,117.216 473.097,115.918 471.501,115.105 C469.872,114.275 468.713,114.181 463.834,114.181 L454.504,114.181 C449.625,114.181 448.465,114.275 446.836,115.105 C445.24,115.918 443.943,117.216 443.129,118.812 C442.3,120.441 442.205,121.6 442.205,126.48 L442.205,129.024 C442.205,130.195 443.154,131.145 444.325,131.145 C445.496,131.145 446.446,130.195 446.446,129.024 L446.446,126.48 C446.446,122.453 446.524,121.49 446.908,120.737 C447.315,119.939 447.963,119.291 448.761,118.884 C449.515,118.5 450.477,118.422 454.504,118.422 L463.834,118.422 C467.861,118.422 468.823,118.5 469.576,118.884 C470.374,119.291 471.023,119.939 471.429,120.737 C471.813,121.49 471.892,122.453 471.892,126.48 L471.892,129.024 C471.892,130.195 472.841,131.145 474.012,131.145 C475.183,131.145 476.133,130.195 476.133,129.024 Z M464.47,100.398 C464.47,103.325 462.096,105.699 459.169,105.699 C456.241,105.699 453.867,103.325 453.867,100.398 C453.867,97.47 456.241,95.096 459.169,95.096 C462.096,95.096 464.47,97.47 464.47,100.398 Z M468.711,100.398 C468.711,95.128 464.439,90.855 459.169,90.855 C453.899,90.855 449.627,95.128 449.627,100.398 C449.627,105.668 453.899,109.94 459.169,109.94 C464.439,109.94 468.711,105.668 468.711,100.398 Z" />
        </g>
        <g id="Black-M" transform="translate(0,200)">
            <path d="M673.573,94.475 L684.175,105.078 C685.003,105.906 686.346,105.906 687.174,105.078 C688.002,104.25 688.002,102.907 687.174,102.079 L676.572,91.476 C675.744,90.648 674.401,90.648 673.573,91.476 C672.745,92.305 672.745,93.647 673.573,94.475 Z M684.175,91.476 L673.573,102.079 C672.745,102.907 672.745,104.25 673.573,105.078 C674.401,105.906 675.744,105.906 676.572,105.078 L687.174,94.475 C688.002,93.647 688.002,92.305 687.174,91.476 C686.346,90.648 685.003,90.648 684.175,91.476 Z M676.133,129.024 L676.133,126.48 C676.133,121.6 676.038,120.441 675.208,118.812 C674.395,117.216 673.097,115.918 671.501,115.105 C669.872,114.275 668.713,114.181 663.834,114.181 L654.504,114.181 C649.625,114.181 648.465,114.275 646.836,115.105 C645.24,115.918 643.943,117.216 643.129,118.812 C642.3,120.441 642.205,121.6 642.205,126.48 L642.205,129.024 C642.205,130.195 643.154,131.145 644.325,131.145 C645.496,131.145 646.446,130.195 646.446,129.024 L646.446,126.48 C646.446,122.453 646.524,121.49 646.908,120.737 C647.315,119.939 647.963,119.291 648.761,118.884 C649.515,118.5 650.477,118.422 654.504,118.422 L663.834,118.422 C667.861,118.422 668.823,118.5 669.576,118.884 C670.374,119.291 671.023,119.939 671.429,120.737 C671.813,121.49 671.892,122.453 671.892,126.48 L671.892,129.024 C671.892,130.195 672.841,131.145 674.012,131.145 C675.183,131.145 676.133,130.195 676.133,129.024 Z M664.47,100.398 C664.47,103.325 662.096,105.699 659.169,105.699 C656.241,105.699 653.867,103.325 653.867,100.398 C653.867,97.47 656.241,95.096 659.169,95.096 C662.096,95.096 664.47,97.47 664.47,100.398 Z M668.711,100.398 C668.711,95.128 664.439,90.855 659.169,90.855 C653.899,90.855 649.627,95.128 649.627,100.398 C649.627,105.668 653.899,109.94 659.169,109.94 C664.439,109.94 668.711,105.668 668.711,100.398 Z" />
        </g>
    </g>
</svg>