<?xml version="1.0" encoding="UTF-8"?>
<svg height="600" width="800" xmlns="http://www.w3.org/2000/svg" xmlns:xlink="http://www.w3.org/1999/xlink">
    <g id="Notes" font-family="LucidaGrande, 'Lucida Grande', sans-serif" font-size="13">
        <rect fill="white" height="600.0" width="800.0" x="0.0" y="0.0" />
        <g font-size="13">
            <text x="18.0" y="176.0">Small</text>
            <text x="18.0" y="376.0">Medium</text>
            <text x="18.0" y="576.0">Large</text>
        </g>
        <g font-size="9">
            <text x="250.0" y="30.0">Ultralight</text>
            <text x="450.0" y="30.0">Regular</text>
            <text x="650.0" y="30.0">Black</text>
            <text id="template-version" fill="#505050" text-anchor="end" x="785.0" y="575.0">Template v.3.0</text>
            <a href="https://github.com/swhitty/SwiftDraw">
                <text fill="#505050" text-anchor="end" x="785.0" y="590.0">https://github.com/swhitty/SwiftDraw</text>
            </a>
        </g>
    </g>
    <g id="Guides" stroke="rgb(39, 170, 225)" stroke-width="0.5">
        <path id="Capline-S" d="M18,76 l800,0" />
        <path id="H-reference" d="M85,145.755 L87.685,145.755 L113.369,79.287 L114.052,79.287 L114.052,76 L112.148,76 L85,145.755 Z M95.693,121.536 L130.996,121.536 L130.263,119.313 L96.474,119.313 L95.693,121.536 Z M139.15,145.755 L141.787,145.755 L114.638,76 L113.466,76 L113.466,79.287 L139.15,145.755 Z" stroke="none" transform="translate(0,200)" />
        <path id="Baseline-S" d="M18,146 l800,0" />
        <path id="left-margin-Ultralight-M" d="M230,256 l0,110" />
        <path id="right-margin-Ultralight-M" d="M300,256 l0,110" />
        <path id="left-margin-Regular-M" d="M430,256 l0,110" />
        <path id="right-margin-Regular-M" d="M500,256 l0,110" />
        <path id="left-margin-Black-M" d="M630,256 l0,110" />
        <path id="right-margin-Black-M" d="M700,256 l0,110" />
        <path id="Capline-M" d="M18,276 l800,0" />
        <path id="Baseline-M" d="M18,346 l800,0" />
        <path id="Capline-L" d="M18,476 l800,0" />
        <path id="Baseline-L" d="M18,546 l800,0" />
    </g>
    <g id="Symbols">
        <g id="Ultralight-M" transform="translate(0,200)">
            <path d="M278.163,126.325 L294.442,142.605 C295.713,143.876 297.775,143.876 299.046,142.605 C300.318,141.333 300.318,139.272 299.046,138 L282.767,121.721 C281.496,120.45 279.434,120.45 278.163,121.721 C276.891,122.993 276.891,125.054 278.163,126.325 Z M294.442,121.721 L278.163,138 C276.891,139.272 276.891,141.333 278.163,142.605 C279.434,143.876 281.496,143.876 282.767,142.605 L299.046,126.325 C300.318,125.054 300.318,122.993 299.046,121.721 C297.775,120.45 295.713,120.45 294.442,121.721 Z M275.99,85.661 C279.684,87.152 282.103,90.737 282.103,94.721 C282.103,98.705 279.684,102.289 275.99,103.781 C274.323,104.454 273.517,106.352 274.19,108.019 C274.863,109.686 276.761,110.492 278.428,109.819 C284.584,107.334 288.615,101.36 288.615,94.721 C288.615,88.082 284.584,82.108 278.428,79.623 C276.761,78.95 274.864,79.756 274.19,81.423 C273.517,83.09 274.323,84.988 275.99,85.661 Z M265.814,117.512 L252.791,117.512 C244.657,117.512 242.719,117.644 240.048,118.754 C236.063,120.402 232.892,123.57 231.238,127.559 C230.132,130.233 230,132.171 230,140.302 C230,142.1 231.458,143.558 233.256,143.558 C235.054,143.558 236.512,142.1 236.512,140.302 C236.512,133.261 236.627,131.567 237.254,130.05 C238.245,127.66 240.148,125.759 242.542,124.769 C244.058,124.139 245.752,124.023 252.791,124.023 L265.814,124.023 C267.612,124.023 269.07,122.566 269.07,120.767 C269.07,118.969 267.612,117.512 265.814,117.512 Z M267.442,94.721 C267.442,100.115 263.069,104.488 257.674,104.488 C252.28,104.488 247.907,100.115 247.907,94.721 C247.907,89.327 252.28,84.953 257.674,84.953 C263.069,84.953 267.442,89.327 267.442,94.721 Z M273.953,94.721 C273.953,85.73 266.665,78.442 257.674,78.442 C248.684,78.442 241.395,85.73 241.395,94.721 C241.395,103.712 248.684,111 257.674,111 C266.665,111 273.953,103.712 273.953,94.721 Z" />
        </g>
        <g id="Regular-M" transform="translate(0,200)">
            <path d="M478.163,126.325 L494.442,142.605 C495.713,143.876 497.775,143.876 499.046,142.605 C500.318,141.333 500.318,139.272 499.046,138 L482.767,121.721 C481.496,120.45 479.434,120.45 478.163,121.721 C476.891,122.993 476.891,125.054 478.163,126.325 Z M494.442,121.721 L478.163,138 C476.891,139.272 476.891,141.333 478.163,142.605 C479.434,143.876 481.496,143.876 482.767,142.605 L499.046,126.325 C500.318,125.054 500.318,122.993 499.046,121.721 C497.775,120.45 495.713,120.45 494.442,121.721 Z M475.99,85.661 C479.684,87.152 482.103,90.737 482.103,94.721 C482.103,98.705 479.684,102.289 475.99,103.781 C474.323,104.454 473.517,106.352 474.19,108.019 C474.863,109.686 476.761,110.492 478.428,109.819 C484.584,107.334 488.615,101.36 488.615,94.721 C488.615,88.082 484.584,82.108 478.428,79.623 C476.761,78.95 474.864,79.756 474.19,81.423 C473.517,83.09 474.323,84.988 475.99,85.661 Z M465.814,117.512 L452.791,117.512 C444.657,117.512 442.719,117.644 440.048,118.754 C436.063,120.402 432.892,123.57 431.238,127.559 C430.132,130.233 430,132.171 430,140.302 C430,142.1 431.458,143.558 433.256,143.558 C435.054,143.558 436.512,142.1 436.512,140.302 C436.512,133.261 436.627,131.567 437.254,130.05 C438.245,127.66 440.148,125.759 442.542,124.769 C444.058,124.139 445.752,124.023 452.791,124.023 L465.814,124.023 C467.612,124.023 469.07,122.566 469.07,120.767 C469.07,118.969 467.612,117.512 465.814,117.512 Z M467.442,94.721 C467.442,100.115 463.069,104.488 457.674,104.488 C452.28,104.488 447.907,100.115 447.907,94.721 C447.907,89.327 452.28,84.953 457.674,84.953 C463.069,84.953 467.442,89.327 467.442,94.721 Z M473.953,94.721 C473.953,85.73 466.665,78.442 457.674,78.442 C448.684,78.442 441.395,85.73 441.395,94.721 C441.395,103.712 448.684,111 457.674,111 C466.665,111 473.953,103.712 473.953,94.721 Z" />
        </g>
        <g id="Black-M" transform="translate(0,200)">
            <path d="M678.163,126.325 L694.442,142.605 C695.713,143.876 697.775,143.876 699.046,142.605 C700.318,141.333 700.318,139.272 699.046,138 L682.767,121.721 C681.496,120.45 679.434,120.45 678.163,121.721 C676.891,122.993 676.891,125.054 678.163,126.325 Z M694.442,121.721 L678.163,138 C676.891,139.272 676.891,141.333 678.163,142.605 C679.434,143.876 681.496,143.876 682.767,142.605 L699.046,126.325 C700.318,125.054 700.318,122.993 699.046,121.721 C697.775,120.45 695.713,120.45 694.442,121.721 Z M675.99,85.661 C679.684,87.152 682.103,90.737 682.103,94.721 C682.103,98.705 679.684,102.289 675.99,103.781 C674.323,104.454 673.517,106.352 674.19,108.019 C674.864,109.686 676.761,110.492 678.428,109.819 C684.584,107.334 688.615,101.36 688.615,94.721 C688.615,88.082 684.584,82.108 678.428,79.623 C676.761,78.95 674.864,79.756 674.19,81.423 C673.517,83.09 674.323,84.988 675.99,85.661 Z M665.814,117.512 L652.791,117.512 C644.657,117.512 642.719,117.644 640.048,118.754 C636.063,120.402 632.892,123.57 631.238,127.559 C630.132,130.233 630,132.171 630,140.302 C630,142.1 631.458,143.558 633.256,143.558 C635.054,143.558 636.512,142.1 636.512,140.302 C636.512,133.261 636.627,131.567 637.254,130.05 C638.245,127.66 640.148,125.759 642.542,124.769 C644.058,124.139 645.752,124.023 652.791,124.023 L665.814,124.023 C667.612,124.023 669.07,122.566 669.07,120.767 C669.07,118.969 667.612,117.512 665.814,117.512 Z M667.442,94.721 C667.442,100.115 663.069,104.488 657.674,104.488 C652.28,104.488 647.907,100.115 647.907,94.721 C647.907,89.327 652.28,84.953 657.674,84.953 C663.069,84.953 667.442,89.327 667.442,94.721 Z M673.953,94.721 C673.953,85.73 666.665,78.442 657.674,78.442 C648.684,78.442 641.395,85.73 641.395,94.721 C641.395,103.712 648.684,111 657.674,111 C666.665,111 673.953,103.712 673.953,94.721 Z" />
        </g>
    </g>
</svg>