<?xml version="1.0" encoding="UTF-8"?>
<svg height="600" width="800" xmlns="http://www.w3.org/2000/svg" xmlns:xlink="http://www.w3.org/1999/xlink">
    <g id="Notes" font-family="LucidaGrande, 'Lucida Grande', sans-serif" font-size="13">
        <rect fill="white" height="600.0" width="800.0" x="0.0" y="0.0" />
        <g font-size="13">
            <text x="18.0" y="176.0">Small</text>
            <text x="18.0" y="376.0">Medium</text>
            <text x="18.0" y="576.0">Large</text>
        </g>
        <g font-size="9">
            <text x="250.0" y="30.0">Ultralight</text>
            <text x="450.0" y="30.0">Regular</text>
            <text x="650.0" y="30.0">Black</text>
            <text id="template-version" fill="#505050" text-anchor="end" x="785.0" y="575.0">Template v.3.0</text>
            <a href="https://github.com/swhitty/SwiftDraw">
                <text fill="#505050" text-anchor="end" x="785.0" y="590.0">https://github.com/swhitty/SwiftDraw</text>
            </a>
        </g>
    </g>
    <g id="Guides" stroke="rgb(39, 170, 225)" stroke-width="0.5">
        <path id="Capline-S" d="M18,76 l800,0" />
        <path id="H-reference" d="M85,145.755 L87.685,145.755 L113.369,79.287 L114.052,79.287 L114.052,76 L112.148,76 L85,145.755 Z M95.693,121.536 L130.996,121.536 L130.263,119.313 L96.474,119.313 L95.693,121.536 Z M139.15,145.755 L141.787,145.755 L114.638,76 L113.466,76 L113.466,79.287 L139.15,145.755 Z" stroke="none" transform="translate(0,200)" />
        <path id="Baseline-S" d="M18,146 l800,0" />
        <path id="left-margin-Ultralight-M" d="M230,256 l0,110" />
        <path id="right-margin-Ultralight-M" d="M300,256 l0,110" />
        <path id="left-margin-Regular-M" d="M430,256 l0,110" />
        <path id="right-margin-Regular-M" d="M500,256 l0,110" />
        <path id="left-margin-Black-M" d="M630,256 l0,110" />
        <path id="right-margin-Black-M" d="M700,256 l0,110" />
        <path id="Capline-M" d="M18,276 l800,0" />
        <path id="Baseline-M" d="M18,346 l800,0" />
        <path id="Capline-L" d="M18,476 l800,0" />
        <path id="Baseline-L" d="M18,546 l800,0" />
    </g>
    <g id="Symbols">
        <g id="Ultralight-M" transform="translate(0,200)">
            <path d="M265,116.833 C255.067,116.833 245.897,121.534 239.969,129.385 C238.615,131.178 238.256,131.725 237.933,132.803 C237.773,133.338 237.698,133.883 237.709,134.445 C237.74,136.095 238.636,137.9 239.938,138.922 C241.39,140.059 242.287,140.167 245.829,140.167 L284.171,140.167 C287.713,140.167 288.61,140.059 290.059,138.925 C291.364,137.9 292.26,136.095 292.291,134.44 C292.301,133.875 292.225,133.331 292.064,132.798 C291.741,131.724 291.384,131.18 290.032,129.387 C284.097,121.534 274.93,116.833 265,116.833 Z M265,122.667 C273.075,122.667 280.531,126.49 285.376,132.901 C286.223,134.024 286.442,134.358 286.478,134.479 C286.466,134.436 286.458,134.379 286.458,134.335 C286.46,134.236 286.381,134.396 286.458,134.335 C286.522,134.285 286.122,134.333 284.171,134.333 L245.829,134.333 C243.878,134.333 243.478,134.285 243.538,134.332 C243.619,134.396 243.54,134.236 243.542,134.331 C243.542,134.372 243.534,134.432 243.521,134.476 C243.557,134.357 243.776,134.023 244.624,132.901 C249.465,126.489 256.922,122.667 265,122.667 Z M265,113.917 C273.86,113.917 281.042,106.735 281.042,97.875 C281.042,89.015 273.86,81.833 265,81.833 C256.14,81.833 248.958,89.015 248.958,97.875 C248.958,106.735 256.14,113.917 265,113.917 Z M265,108.083 C259.362,108.083 254.792,103.513 254.792,97.875 C254.792,92.237 259.362,87.667 265,87.667 C270.638,87.667 275.208,92.237 275.208,97.875 C275.208,103.513 270.638,108.083 265,108.083 Z" />
        </g>
        <g id="Regular-M" transform="translate(0,200)">
            <path d="M465,116.833 C455.067,116.833 445.897,121.534 439.969,129.385 C438.615,131.178 438.256,131.725 437.933,132.803 C437.773,133.338 437.698,133.883 437.709,134.445 C437.74,136.095 438.636,137.9 439.938,138.922 C441.39,140.059 442.287,140.167 445.829,140.167 L484.171,140.167 C487.713,140.167 488.61,140.059 490.059,138.925 C491.364,137.9 492.26,136.095 492.291,134.44 C492.301,133.875 492.225,133.331 492.064,132.798 C491.741,131.724 491.384,131.18 490.032,129.387 C484.097,121.534 474.93,116.833 465,116.833 Z M465,122.667 C473.075,122.667 480.531,126.49 485.376,132.901 C486.223,134.024 486.442,134.358 486.478,134.479 C486.466,134.436 486.458,134.379 486.458,134.335 C486.46,134.236 486.381,134.396 486.458,134.335 C486.522,134.285 486.122,134.333 484.171,134.333 L445.829,134.333 C443.878,134.333 443.478,134.285 443.538,134.332 C443.619,134.396 443.54,134.236 443.542,134.331 C443.542,134.372 443.534,134.432 443.521,134.476 C443.557,134.357 443.776,134.023 444.624,132.901 C449.465,126.489 456.922,122.667 465,122.667 Z M465,113.917 C473.86,113.917 481.042,106.735 481.042,97.875 C481.042,89.015 473.86,81.833 465,81.833 C456.14,81.833 448.958,89.015 448.958,97.875 C448.958,106.735 456.14,113.917 465,113.917 Z M465,108.083 C459.362,108.083 454.792,103.513 454.792,97.875 C454.792,92.237 459.362,87.667 465,87.667 C470.638,87.667 475.208,92.237 475.208,97.875 C475.208,103.513 470.638,108.083 465,108.083 Z" />
        </g>
        <g id="Black-M" transform="translate(0,200)">
            <path d="M665,116.833 C655.067,116.833 645.897,121.534 639.969,129.385 C638.615,131.178 638.256,131.725 637.933,132.803 C637.773,133.338 637.698,133.883 637.709,134.445 C637.74,136.095 638.636,137.9 639.938,138.922 C641.39,140.059 642.287,140.167 645.829,140.167 L684.171,140.167 C687.713,140.167 688.61,140.059 690.059,138.925 C691.364,137.9 692.26,136.095 692.291,134.44 C692.301,133.875 692.225,133.331 692.064,132.798 C691.741,131.724 691.384,131.18 690.032,129.387 C684.097,121.534 674.93,116.833 665,116.833 Z M665,122.667 C673.075,122.667 680.531,126.49 685.376,132.901 C686.223,134.024 686.442,134.358 686.479,134.479 C686.466,134.436 686.458,134.379 686.458,134.335 C686.46,134.236 686.381,134.396 686.458,134.335 C686.522,134.285 686.122,134.333 684.171,134.333 L645.829,134.333 C643.878,134.333 643.478,134.285 643.538,134.332 C643.619,134.396 643.54,134.236 643.542,134.331 C643.542,134.372 643.534,134.432 643.521,134.476 C643.557,134.357 643.776,134.023 644.624,132.901 C649.465,126.489 656.922,122.667 665,122.667 Z M665,113.917 C673.86,113.917 681.042,106.735 681.042,97.875 C681.042,89.015 673.86,81.833 665,81.833 C656.14,81.833 648.958,89.015 648.958,97.875 C648.958,106.735 656.14,113.917 665,113.917 Z M665,108.083 C659.362,108.083 654.792,103.513 654.792,97.875 C654.792,92.237 659.362,87.667 665,87.667 C670.638,87.667 675.208,92.237 675.208,97.875 C675.208,103.513 670.638,108.083 665,108.083 Z" />
        </g>
    </g>
</svg>