<?xml version="1.0" encoding="UTF-8"?>
<svg height="600" width="800" xmlns="http://www.w3.org/2000/svg" xmlns:xlink="http://www.w3.org/1999/xlink">
    <g id="Notes" font-family="LucidaGrande, 'Lucida Grande', sans-serif" font-size="13">
        <rect fill="white" height="600.0" width="800.0" x="0.0" y="0.0" />
        <g font-size="13">
            <text x="18.0" y="176.0">Small</text>
            <text x="18.0" y="376.0">Medium</text>
            <text x="18.0" y="576.0">Large</text>
        </g>
        <g font-size="9">
            <text x="250.0" y="30.0">Ultralight</text>
            <text x="450.0" y="30.0">Regular</text>
            <text x="650.0" y="30.0">Black</text>
            <text id="template-version" fill="#505050" text-anchor="end" x="785.0" y="575.0">Template v.3.0</text>
            <a href="https://github.com/swhitty/SwiftDraw">
                <text fill="#505050" text-anchor="end" x="785.0" y="590.0">https://github.com/swhitty/SwiftDraw</text>
            </a>
        </g>
    </g>
    <g id="Guides" stroke="rgb(39, 170, 225)" stroke-width="0.5">
        <path id="Capline-S" d="M18,76 l800,0" />
        <path id="H-reference" d="M85,145.755 L87.685,145.755 L113.369,79.287 L114.052,79.287 L114.052,76 L112.148,76 L85,145.755 Z M95.693,121.536 L130.996,121.536 L130.263,119.313 L96.474,119.313 L95.693,121.536 Z M139.15,145.755 L141.787,145.755 L114.638,76 L113.466,76 L113.466,79.287 L139.15,145.755 Z" stroke="none" transform="translate(0,200)" />
        <path id="Baseline-S" d="M18,146 l800,0" />
        <path id="left-margin-Ultralight-M" d="M230,256 l0,110" />
        <path id="right-margin-Ultralight-M" d="M300,256 l0,110" />
        <path id="left-margin-Regular-M" d="M430,256 l0,110" />
        <path id="right-margin-Regular-M" d="M500,256 l0,110" />
        <path id="left-margin-Black-M" d="M630,256 l0,110" />
        <path id="right-margin-Black-M" d="M700,256 l0,110" />
        <path id="Capline-M" d="M18,276 l800,0" />
        <path id="Baseline-M" d="M18,346 l800,0" />
        <path id="Capline-L" d="M18,476 l800,0" />
        <path id="Baseline-L" d="M18,546 l800,0" />
    </g>
    <g id="Symbols">
        <g id="Ultralight-M" transform="translate(0,200)">
            <path d="M275.477,134.475 L285.023,144.975 C286.265,146.342 288.28,146.342 289.523,144.975 C290.765,143.608 290.765,141.392 289.523,140.025 L279.977,129.525 C278.735,128.158 276.72,128.158 275.477,129.525 C274.235,130.892 274.235,133.108 275.477,134.475 Z M289.523,144.975 L299.068,134.475 C300.311,133.108 300.311,130.892 299.068,129.525 C297.826,128.158 295.811,128.158 294.568,129.525 L285.023,140.025 C283.78,141.392 283.78,143.608 285.023,144.975 C286.265,146.342 288.28,146.342 289.523,144.975 Z M290.455,142.5 L290.455,121.5 C290.455,119.567 289.03,118 287.273,118 C285.515,118 284.091,119.567 284.091,121.5 L284.091,142.5 C284.091,144.433 285.515,146 287.273,146 C289.03,146 290.455,144.433 290.455,142.5 Z M274.945,83.76 C278.555,85.364 280.919,89.217 280.919,93.5 C280.919,97.783 278.555,101.636 274.945,103.24 C273.316,103.963 272.528,106.003 273.186,107.795 C273.844,109.588 275.698,110.454 277.328,109.73 C283.344,107.059 287.282,100.637 287.282,93.5 C287.282,86.363 283.344,79.941 277.328,77.27 C275.698,76.546 273.844,77.412 273.186,79.205 C272.528,80.997 273.316,83.037 274.945,83.76 Z M265,118 L252.273,118 C244.324,118 242.43,118.142 239.82,119.335 C235.925,121.107 232.826,124.513 231.21,128.801 C230.129,131.676 230,133.759 230,142.5 C230,144.433 231.425,146 233.182,146 C234.939,146 236.364,144.433 236.364,142.5 C236.364,134.931 236.476,133.109 237.089,131.479 C238.058,128.91 239.917,126.866 242.257,125.802 C243.739,125.124 245.394,125 252.273,125 L265,125 C266.757,125 268.182,123.433 268.182,121.5 C268.182,119.567 266.757,118 265,118 Z M266.591,93.5 C266.591,99.299 262.317,104 257.045,104 C251.774,104 247.5,99.299 247.5,93.5 C247.5,87.701 251.774,83 257.045,83 C262.317,83 266.591,87.701 266.591,93.5 Z M272.955,93.5 C272.955,83.835 265.832,76 257.045,76 C248.259,76 241.136,83.835 241.136,93.5 C241.136,103.165 248.259,111 257.045,111 C265.832,111 272.955,103.165 272.955,93.5 Z" />
        </g>
        <g id="Regular-M" transform="translate(0,200)">
            <path d="M475.477,134.475 L485.023,144.975 C486.265,146.342 488.28,146.342 489.523,144.975 C490.765,143.608 490.765,141.392 489.523,140.025 L479.977,129.525 C478.735,128.158 476.72,128.158 475.477,129.525 C474.235,130.892 474.235,133.108 475.477,134.475 Z M489.523,144.975 L499.068,134.475 C500.311,133.108 500.311,130.892 499.068,129.525 C497.826,128.158 495.811,128.158 494.568,129.525 L485.023,140.025 C483.78,141.392 483.78,143.608 485.023,144.975 C486.265,146.342 488.28,146.342 489.523,144.975 Z M490.455,142.5 L490.455,121.5 C490.455,119.567 489.03,118 487.273,118 C485.515,118 484.091,119.567 484.091,121.5 L484.091,142.5 C484.091,144.433 485.515,146 487.273,146 C489.03,146 490.455,144.433 490.455,142.5 Z M474.945,83.76 C478.555,85.364 480.919,89.217 480.919,93.5 C480.919,97.783 478.555,101.636 474.945,103.24 C473.316,103.963 472.528,106.003 473.186,107.795 C473.844,109.588 475.698,110.454 477.328,109.73 C483.344,107.059 487.282,100.637 487.282,93.5 C487.282,86.363 483.344,79.941 477.328,77.27 C475.698,76.546 473.844,77.412 473.186,79.205 C472.528,80.997 473.316,83.037 474.945,83.76 Z M465,118 L452.273,118 C444.324,118 442.43,118.142 439.82,119.335 C435.925,121.107 432.826,124.513 431.21,128.801 C430.129,131.676 430,133.759 430,142.5 C430,144.433 431.425,146 433.182,146 C434.939,146 436.364,144.433 436.364,142.5 C436.364,134.931 436.476,133.109 437.089,131.479 C438.058,128.91 439.917,126.866 442.257,125.802 C443.739,125.124 445.394,125 452.273,125 L465,125 C466.757,125 468.182,123.433 468.182,121.5 C468.182,119.567 466.757,118 465,118 Z M466.591,93.5 C466.591,99.299 462.317,104 457.045,104 C451.774,104 447.5,99.299 447.5,93.5 C447.5,87.701 451.774,83 457.045,83 C462.317,83 466.591,87.701 466.591,93.5 Z M472.955,93.5 C472.955,83.835 465.832,76 457.045,76 C448.259,76 441.136,83.835 441.136,93.5 C441.136,103.165 448.259,111 457.045,111 C465.832,111 472.955,103.165 472.955,93.5 Z" />
        </g>
        <g id="Black-M" transform="translate(0,200)">
            <path d="M675.477,134.475 L685.023,144.975 C686.265,146.342 688.28,146.342 689.523,144.975 C690.765,143.608 690.765,141.392 689.523,140.025 L679.977,129.525 C678.735,128.158 676.72,128.158 675.477,129.525 C674.235,130.892 674.235,133.108 675.477,134.475 Z M689.523,144.975 L699.068,134.475 C700.311,133.108 700.311,130.892 699.068,129.525 C697.826,128.158 695.811,128.158 694.568,129.525 L685.023,140.025 C683.78,141.392 683.78,143.608 685.023,144.975 C686.265,146.342 688.28,146.342 689.523,144.975 Z M690.455,142.5 L690.455,121.5 C690.455,119.567 689.03,118 687.273,118 C685.515,118 684.091,119.567 684.091,121.5 L684.091,142.5 C684.091,144.433 685.515,146 687.273,146 C689.03,146 690.455,144.433 690.455,142.5 Z M674.945,83.76 C678.555,85.364 680.919,89.217 680.919,93.5 C680.919,97.783 678.555,101.636 674.945,103.24 C673.316,103.963 672.528,106.003 673.186,107.795 C673.844,109.588 675.698,110.454 677.328,109.73 C683.344,107.059 687.282,100.637 687.282,93.5 C687.282,86.363 683.344,79.941 677.328,77.27 C675.698,76.546 673.844,77.412 673.186,79.205 C672.528,80.997 673.316,83.037 674.945,83.76 Z M665,118 L652.273,118 C644.324,118 642.43,118.142 639.82,119.335 C635.925,121.107 632.826,124.513 631.21,128.801 C630.129,131.676 630,133.759 630,142.5 C630,144.433 631.425,146 633.182,146 C634.939,146 636.364,144.433 636.364,142.5 C636.364,134.931 636.476,133.109 637.089,131.479 C638.058,128.91 639.917,126.866 642.257,125.802 C643.739,125.124 645.394,125 652.273,125 L665,125 C666.757,125 668.182,123.433 668.182,121.5 C668.182,119.567 666.757,118 665,118 Z M666.591,93.5 C666.591,99.299 662.317,104 657.045,104 C651.774,104 647.5,99.299 647.5,93.5 C647.5,87.701 651.774,83 657.045,83 C662.317,83 666.591,87.701 666.591,93.5 Z M672.955,93.5 C672.955,83.835 665.832,76 657.045,76 C648.259,76 641.136,83.835 641.136,93.5 C641.136,103.165 648.259,111 657.045,111 C665.832,111 672.955,103.165 672.955,93.5 Z" />
        </g>
    </g>
</svg>