<?xml version="1.0" encoding="UTF-8"?>
<svg height="600" width="800" xmlns="http://www.w3.org/2000/svg" xmlns:xlink="http://www.w3.org/1999/xlink">
    <g id="Notes" font-family="LucidaGrande, 'Lucida Grande', sans-serif" font-size="13">
        <rect fill="white" height="600.0" width="800.0" x="0.0" y="0.0" />
        <g font-size="13">
            <text x="18.0" y="176.0">Small</text>
            <text x="18.0" y="376.0">Medium</text>
            <text x="18.0" y="576.0">Large</text>
        </g>
        <g font-size="9">
            <text x="250.0" y="30.0">Ultralight</text>
            <text x="450.0" y="30.0">Regular</text>
            <text x="650.0" y="30.0">Black</text>
            <text id="template-version" fill="#505050" text-anchor="end" x="785.0" y="575.0">Template v.3.0</text>
            <a href="https://github.com/swhitty/SwiftDraw">
                <text fill="#505050" text-anchor="end" x="785.0" y="590.0">https://github.com/swhitty/SwiftDraw</text>
            </a>
        </g>
    </g>
    <g id="Guides" stroke="rgb(39, 170, 225)" stroke-width="0.5">
        <path id="Capline-S" d="M18,76 l800,0" />
        <path id="H-reference" d="M85,145.755 L87.685,145.755 L113.369,79.287 L114.052,79.287 L114.052,76 L112.148,76 L85,145.755 Z M95.693,121.536 L130.996,121.536 L130.263,119.313 L96.474,119.313 L95.693,121.536 Z M139.15,145.755 L141.787,145.755 L114.638,76 L113.466,76 L113.466,79.287 L139.15,145.755 Z" stroke="none" transform="translate(0,200)" />
        <path id="Baseline-S" d="M18,146 l800,0" />
        <path id="left-margin-Ultralight-M" d="M226.316,256 l0,110" />
        <path id="right-margin-Ultralight-M" d="M303.684,256 l0,110" />
        <path id="left-margin-Regular-M" d="M426.316,256 l0,110" />
        <path id="right-margin-Regular-M" d="M503.684,256 l0,110" />
        <path id="left-margin-Black-M" d="M626.316,256 l0,110" />
        <path id="right-margin-Black-M" d="M703.684,256 l0,110" />
        <path id="Capline-M" d="M18,276 l800,0" />
        <path id="Baseline-M" d="M18,346 l800,0" />
        <path id="Capline-L" d="M18,476 l800,0" />
        <path id="Baseline-L" d="M18,546 l800,0" />
    </g>
    <g id="Symbols">
        <g id="Ultralight-M" transform="translate(0,200)">
            <path d="M279.548,82.289 L297.541,100.71 C298.946,102.149 301.225,102.149 302.63,100.71 C304.036,99.272 304.036,96.939 302.63,95.5 L284.638,77.079 C283.232,75.64 280.954,75.64 279.548,77.079 C278.143,78.518 278.143,80.851 279.548,82.289 Z M297.541,77.079 L279.548,95.5 C278.143,96.939 278.143,99.272 279.548,100.71 C280.954,102.149 283.232,102.149 284.638,100.71 L302.63,82.289 C304.036,80.851 304.036,78.518 302.63,77.079 C301.225,75.64 298.946,75.64 297.541,77.079 Z M283.892,142.316 L283.892,137.895 C283.892,129.418 283.732,127.403 282.324,124.573 C280.943,121.8 278.741,119.545 276.033,118.133 C273.268,116.691 271.301,116.526 263.021,116.526 L247.187,116.526 C238.907,116.526 236.94,116.691 234.175,118.132 C231.467,119.545 229.265,121.8 227.885,124.573 C226.477,127.403 226.316,129.418 226.316,137.895 L226.316,142.316 C226.316,144.351 227.927,146 229.914,146 C231.902,146 233.513,144.351 233.513,142.316 L233.513,137.895 C233.513,130.898 233.646,129.227 234.298,127.917 C234.987,126.532 236.088,125.404 237.442,124.698 C238.721,124.031 240.353,123.895 247.187,123.895 L263.021,123.895 C269.855,123.895 271.487,124.031 272.766,124.698 C274.12,125.404 275.221,126.531 275.911,127.918 C276.562,129.227 276.695,130.898 276.695,137.895 L276.695,142.316 C276.695,144.351 278.306,146 280.294,146 C282.281,146 283.892,144.351 283.892,142.316 Z M264.1,92.579 C264.1,97.666 260.073,101.789 255.104,101.789 C250.136,101.789 246.108,97.666 246.108,92.579 C246.108,87.492 250.136,83.368 255.104,83.368 C260.073,83.368 264.1,87.492 264.1,92.579 Z M271.297,92.579 C271.297,83.423 264.047,76 255.104,76 C246.161,76 238.911,83.423 238.911,92.579 C238.911,101.735 246.161,109.158 255.104,109.158 C264.047,109.158 271.297,101.735 271.297,92.579 Z" />
        </g>
        <g id="Regular-M" transform="translate(0,200)">
            <path d="M479.548,82.289 L497.541,100.71 C498.946,102.149 501.225,102.149 502.63,100.71 C504.036,99.272 504.036,96.939 502.63,95.5 L484.638,77.079 C483.232,75.64 480.954,75.64 479.548,77.079 C478.143,78.518 478.143,80.851 479.548,82.289 Z M497.541,77.079 L479.548,95.5 C478.143,96.939 478.143,99.272 479.548,100.71 C480.954,102.149 483.232,102.149 484.638,100.71 L502.63,82.289 C504.036,80.851 504.036,78.518 502.63,77.079 C501.225,75.64 498.946,75.64 497.541,77.079 Z M483.892,142.316 L483.892,137.895 C483.892,129.418 483.732,127.403 482.324,124.573 C480.943,121.8 478.741,119.545 476.033,118.133 C473.268,116.691 471.301,116.526 463.021,116.526 L447.187,116.526 C438.907,116.526 436.94,116.691 434.175,118.132 C431.467,119.545 429.265,121.8 427.885,124.573 C426.477,127.403 426.316,129.418 426.316,137.895 L426.316,142.316 C426.316,144.351 427.927,146 429.914,146 C431.902,146 433.513,144.351 433.513,142.316 L433.513,137.895 C433.513,130.898 433.646,129.227 434.298,127.917 C434.987,126.532 436.088,125.404 437.442,124.698 C438.721,124.031 440.353,123.895 447.187,123.895 L463.021,123.895 C469.855,123.895 471.487,124.031 472.766,124.698 C474.12,125.404 475.221,126.531 475.911,127.918 C476.562,129.227 476.695,130.898 476.695,137.895 L476.695,142.316 C476.695,144.351 478.306,146 480.294,146 C482.281,146 483.892,144.351 483.892,142.316 Z M464.1,92.579 C464.1,97.666 460.073,101.789 455.104,101.789 C450.135,101.789 446.108,97.666 446.108,92.579 C446.108,87.492 450.135,83.368 455.104,83.368 C460.073,83.368 464.1,87.492 464.1,92.579 Z M471.297,92.579 C471.297,83.423 464.047,76 455.104,76 C446.161,76 438.911,83.423 438.911,92.579 C438.911,101.735 446.161,109.158 455.104,109.158 C464.047,109.158 471.297,101.735 471.297,92.579 Z" />
        </g>
        <g id="Black-M" transform="translate(0,200)">
            <path d="M679.548,82.289 L697.541,100.71 C698.946,102.149 701.225,102.149 702.63,100.71 C704.036,99.272 704.036,96.939 702.63,95.5 L684.638,77.079 C683.232,75.64 680.954,75.64 679.548,77.079 C678.143,78.518 678.143,80.851 679.548,82.289 Z M697.541,77.079 L679.548,95.5 C678.143,96.939 678.143,99.272 679.548,100.71 C680.954,102.149 683.232,102.149 684.638,100.71 L702.63,82.289 C704.036,80.851 704.036,78.518 702.63,77.079 C701.225,75.64 698.946,75.64 697.541,77.079 Z M683.892,142.316 L683.892,137.895 C683.892,129.418 683.732,127.403 682.324,124.573 C680.943,121.8 678.741,119.545 676.033,118.133 C673.268,116.691 671.301,116.526 663.021,116.526 L647.187,116.526 C638.907,116.526 636.94,116.691 634.175,118.132 C631.467,119.545 629.265,121.8 627.885,124.573 C626.477,127.403 626.316,129.418 626.316,137.895 L626.316,142.316 C626.316,144.351 627.927,146 629.914,146 C631.902,146 633.513,144.351 633.513,142.316 L633.513,137.895 C633.513,130.898 633.646,129.227 634.298,127.917 C634.987,126.532 636.088,125.404 637.442,124.698 C638.721,124.031 640.353,123.895 647.187,123.895 L663.021,123.895 C669.855,123.895 671.487,124.031 672.766,124.698 C674.12,125.404 675.221,126.531 675.911,127.918 C676.562,129.227 676.695,130.898 676.695,137.895 L676.695,142.316 C676.695,144.351 678.306,146 680.294,146 C682.281,146 683.892,144.351 683.892,142.316 Z M664.1,92.579 C664.1,97.666 660.073,101.789 655.104,101.789 C650.135,101.789 646.108,97.666 646.108,92.579 C646.108,87.492 650.135,83.368 655.104,83.368 C660.073,83.368 664.1,87.492 664.1,92.579 Z M671.297,92.579 C671.297,83.423 664.047,76 655.104,76 C646.161,76 638.911,83.423 638.911,92.579 C638.911,101.735 646.161,109.158 655.104,109.158 C664.047,109.158 671.297,101.735 671.297,92.579 Z" />
        </g>
    </g>
</svg>