<?xml version="1.0" encoding="UTF-8"?>
<svg height="600" width="800" xmlns="http://www.w3.org/2000/svg" xmlns:xlink="http://www.w3.org/1999/xlink">
    <g id="Notes" font-family="LucidaGrande, 'Lucida Grande', sans-serif" font-size="13">
        <rect fill="white" height="600.0" width="800.0" x="0.0" y="0.0" />
        <g font-size="13">
            <text x="18.0" y="176.0">Small</text>
            <text x="18.0" y="376.0">Medium</text>
            <text x="18.0" y="576.0">Large</text>
        </g>
        <g font-size="9">
            <text x="250.0" y="30.0">Ultralight</text>
            <text x="450.0" y="30.0">Regular</text>
            <text x="650.0" y="30.0">Black</text>
            <text id="template-version" fill="#505050" text-anchor="end" x="785.0" y="575.0">Template v.3.0</text>
            <a href="https://github.com/swhitty/SwiftDraw">
                <text fill="#505050" text-anchor="end" x="785.0" y="590.0">https://github.com/swhitty/SwiftDraw</text>
            </a>
        </g>
    </g>
    <g id="Guides" stroke="rgb(39, 170, 225)" stroke-width="0.5">
        <path id="Capline-S" d="M18,76 l800,0" />
        <path id="H-reference" d="M85,145.755 L87.685,145.755 L113.369,79.287 L114.052,79.287 L114.052,76 L112.148,76 L85,145.755 Z M95.693,121.536 L130.996,121.536 L130.263,119.313 L96.474,119.313 L95.693,121.536 Z M139.15,145.755 L141.787,145.755 L114.638,76 L113.466,76 L113.466,79.287 L139.15,145.755 Z" stroke="none" transform="translate(0,200)" />
        <path id="Baseline-S" d="M18,146 l800,0" />
        <path id="left-margin-Ultralight-M" d="M230,256 l0,110" />
        <path id="right-margin-Ultralight-M" d="M300,256 l0,110" />
        <path id="left-margin-Regular-M" d="M430,256 l0,110" />
        <path id="right-margin-Regular-M" d="M500,256 l0,110" />
        <path id="left-margin-Black-M" d="M630,256 l0,110" />
        <path id="right-margin-Black-M" d="M700,256 l0,110" />
        <path id="Capline-M" d="M18,276 l800,0" />
        <path id="Baseline-M" d="M18,346 l800,0" />
        <path id="Capline-L" d="M18,476 l800,0" />
        <path id="Baseline-L" d="M18,546 l800,0" />
    </g>
    <g id="Symbols">
        <g id="Ultralight-M" transform="translate(0,200)">
            <path d="M288.864,125.774 L288.864,96.231 C288.864,93.9 287.439,92.011 285.682,92.011 C283.925,92.011 282.5,93.9 282.5,96.231 L282.5,125.774 C282.5,128.104 283.925,129.994 285.682,129.994 C287.439,129.994 288.864,128.104 288.864,125.774 Z M274.545,115.223 L296.818,115.223 C298.575,115.223 300,113.333 300,111.002 C300,108.671 298.575,106.782 296.818,106.782 L274.545,106.782 C272.788,106.782 271.364,108.671 271.364,111.002 C271.364,113.333 272.788,115.223 274.545,115.223 Z M255.222,80.02 L245.155,93.373 C244.67,94.016 244.564,94.145 244.582,94.13 C244.596,94.118 244.596,94.118 244.596,94.118 C244.615,94.112 244.48,94.121 243.8,94.121 L238.273,94.121 C235.406,94.121 234.727,94.194 233.475,95.04 C232.277,95.85 231.304,97.141 230.694,98.729 C230.055,100.391 230,101.291 230,105.094 L230,116.911 C230,120.713 230.055,121.613 230.693,123.275 C231.304,124.863 232.277,126.154 233.475,126.964 C234.727,127.81 235.406,127.884 238.273,127.884 L243.8,127.884 C244.476,127.884 244.611,127.892 244.58,127.882 C244.593,127.886 244.593,127.886 244.593,127.886 C244.574,127.87 244.574,127.87 244.554,127.852 C244.573,127.87 244.694,128.02 245.158,128.631 L255.222,141.984 C257.834,145.449 258.159,145.809 259.862,145.981 C261.377,146.141 262.868,145.321 263.861,143.777 C264.963,142.057 265,141.501 265,136.616 L265,85.385 C265,80.508 264.962,79.94 263.859,78.222 C262.858,76.671 261.367,75.857 259.843,76.021 C258.157,76.192 257.838,76.546 255.222,80.016 C254.625,80.807 254.29,81.881 254.29,83 L254.29,83.004 L257.472,83.004 L255.222,80.02 Z M259.722,85.989 C260.318,85.197 260.654,84.124 260.654,83.004 L260.654,83 L257.472,83 L259.722,85.984 C260.578,84.848 260.874,84.468 261.122,84.192 C261.085,84.233 260.883,84.381 260.343,84.435 C259.849,84.488 259.352,84.217 259.02,83.704 C258.669,83.156 258.605,82.866 258.601,82.808 C258.63,83.235 258.636,83.78 258.636,85.385 L258.636,136.616 C258.636,138.219 258.63,138.764 258.601,139.193 C258.605,139.135 258.668,138.847 259.015,138.305 C259.349,137.785 259.846,137.512 260.355,137.566 C260.882,137.619 261.085,137.766 261.122,137.807 C260.874,137.531 260.578,137.152 259.722,136.016 L249.652,122.655 C248.86,121.611 248.655,121.357 248.205,120.939 C248.063,120.809 248.063,120.809 247.913,120.685 C247.348,120.225 246.725,119.884 246.073,119.677 C245.415,119.464 245.071,119.443 243.8,119.443 L238.273,119.443 C236.685,119.443 236.302,119.402 236.363,119.443 C236.364,119.443 236.364,119.443 236.364,119.443 C236.395,119.524 236.364,119.017 236.364,116.911 L236.364,105.094 C236.364,102.987 236.395,102.48 236.364,102.561 C236.364,102.562 236.364,102.562 236.364,102.562 C236.302,102.603 236.685,102.561 238.273,102.561 L243.8,102.561 C245.067,102.561 245.412,102.54 246.083,102.325 C246.728,102.121 247.351,101.779 247.922,101.315 C248.511,100.831 248.761,100.526 249.654,99.342 L259.722,85.989 Z" />
        </g>
        <g id="Regular-M" transform="translate(0,200)">
            <path d="M488.864,125.774 L488.864,96.231 C488.864,93.9 487.439,92.011 485.682,92.011 C483.925,92.011 482.5,93.9 482.5,96.231 L482.5,125.774 C482.5,128.104 483.925,129.994 485.682,129.994 C487.439,129.994 488.864,128.104 488.864,125.774 Z M474.545,115.223 L496.818,115.223 C498.575,115.223 500,113.333 500,111.002 C500,108.671 498.575,106.782 496.818,106.782 L474.545,106.782 C472.788,106.782 471.364,108.671 471.364,111.002 C471.364,113.333 472.788,115.223 474.545,115.223 Z M455.222,80.02 L445.155,93.373 C444.67,94.016 444.564,94.145 444.582,94.13 C444.596,94.118 444.596,94.118 444.596,94.118 C444.615,94.112 444.48,94.121 443.8,94.121 L438.273,94.121 C435.406,94.121 434.727,94.194 433.475,95.04 C432.277,95.85 431.304,97.141 430.694,98.729 C430.055,100.391 430,101.291 430,105.094 L430,116.911 C430,120.713 430.055,121.613 430.693,123.275 C431.304,124.863 432.277,126.154 433.475,126.964 C434.727,127.81 435.406,127.884 438.273,127.884 L443.8,127.884 C444.476,127.884 444.611,127.892 444.58,127.882 C444.593,127.886 444.593,127.886 444.593,127.886 C444.574,127.87 444.574,127.87 444.554,127.852 C444.573,127.87 444.694,128.02 445.158,128.631 L455.222,141.984 C457.834,145.449 458.159,145.809 459.862,145.981 C461.377,146.141 462.868,145.321 463.861,143.777 C464.963,142.057 465,141.501 465,136.616 L465,85.385 C465,80.508 464.962,79.94 463.859,78.222 C462.858,76.671 461.367,75.857 459.843,76.021 C458.157,76.192 457.838,76.546 455.222,80.016 C454.625,80.807 454.29,81.881 454.29,83 L454.29,83.004 L457.472,83.004 L455.222,80.02 Z M459.722,85.989 C460.318,85.197 460.654,84.124 460.654,83.004 L460.654,83 L457.472,83 L459.722,85.984 C460.578,84.848 460.874,84.468 461.122,84.192 C461.085,84.233 460.883,84.381 460.343,84.435 C459.849,84.488 459.352,84.217 459.02,83.704 C458.669,83.156 458.605,82.866 458.601,82.808 C458.63,83.235 458.636,83.78 458.636,85.385 L458.636,136.616 C458.636,138.219 458.63,138.764 458.601,139.193 C458.605,139.135 458.668,138.847 459.015,138.305 C459.349,137.785 459.846,137.512 460.355,137.566 C460.882,137.619 461.085,137.766 461.122,137.807 C460.874,137.531 460.578,137.152 459.722,136.016 L449.652,122.655 C448.86,121.611 448.655,121.357 448.205,120.939 C448.063,120.809 448.063,120.809 447.913,120.685 C447.348,120.225 446.725,119.884 446.073,119.677 C445.414,119.464 445.071,119.443 443.8,119.443 L438.273,119.443 C436.685,119.443 436.302,119.402 436.363,119.443 C436.364,119.443 436.364,119.443 436.364,119.443 C436.395,119.524 436.364,119.017 436.364,116.911 L436.364,105.094 C436.364,102.987 436.395,102.48 436.364,102.561 C436.364,102.562 436.364,102.562 436.364,102.562 C436.302,102.603 436.685,102.561 438.273,102.561 L443.8,102.561 C445.067,102.561 445.412,102.54 446.083,102.325 C446.728,102.121 447.351,101.779 447.922,101.315 C448.511,100.831 448.761,100.526 449.654,99.342 L459.722,85.989 Z" />
        </g>
        <g id="Black-M" transform="translate(0,200)">
            <path d="M688.864,125.774 L688.864,96.231 C688.864,93.9 687.439,92.011 685.682,92.011 C683.925,92.011 682.5,93.9 682.5,96.231 L682.5,125.774 C682.5,128.104 683.925,129.994 685.682,129.994 C687.439,129.994 688.864,128.104 688.864,125.774 Z M674.545,115.223 L696.818,115.223 C698.575,115.223 700,113.333 700,111.002 C700,108.671 698.575,106.782 696.818,106.782 L674.545,106.782 C672.788,106.782 671.364,108.671 671.364,111.002 C671.364,113.333 672.788,115.223 674.545,115.223 Z M655.222,80.02 L645.155,93.373 C644.67,94.016 644.564,94.145 644.582,94.13 C644.596,94.118 644.596,94.118 644.596,94.118 C644.615,94.112 644.48,94.121 643.8,94.121 L638.273,94.121 C635.406,94.121 634.727,94.194 633.475,95.04 C632.277,95.85 631.304,97.141 630.694,98.729 C630.055,100.391 630,101.291 630,105.094 L630,116.911 C630,120.713 630.055,121.613 630.693,123.275 C631.304,124.863 632.277,126.154 633.475,126.964 C634.727,127.81 635.406,127.884 638.273,127.884 L643.8,127.884 C644.476,127.884 644.611,127.892 644.58,127.882 C644.593,127.886 644.593,127.886 644.593,127.886 C644.574,127.87 644.574,127.87 644.554,127.852 C644.573,127.87 644.694,128.02 645.158,128.631 L655.222,141.984 C657.834,145.449 658.159,145.809 659.862,145.981 C661.377,146.141 662.868,145.321 663.861,143.777 C664.963,142.057 665,141.501 665,136.616 L665,85.385 C665,80.508 664.962,79.94 663.859,78.222 C662.858,76.671 661.367,75.857 659.843,76.021 C658.157,76.192 657.838,76.546 655.222,80.016 C654.625,80.807 654.29,81.881 654.29,83 L654.29,83.004 L657.472,83.004 L655.222,80.02 Z M659.722,85.989 C660.318,85.197 660.654,84.124 660.654,83.004 L660.654,83 L657.472,83 L659.722,85.984 C660.578,84.848 660.874,84.468 661.122,84.192 C661.085,84.233 660.883,84.381 660.343,84.435 C659.849,84.488 659.352,84.217 659.02,83.704 C658.669,83.156 658.605,82.866 658.601,82.808 C658.63,83.235 658.636,83.78 658.636,85.385 L658.636,136.616 C658.636,138.219 658.63,138.764 658.601,139.193 C658.605,139.135 658.668,138.847 659.015,138.305 C659.349,137.785 659.846,137.512 660.355,137.566 C660.882,137.619 661.085,137.766 661.122,137.807 C660.874,137.531 660.578,137.152 659.722,136.016 L649.652,122.655 C648.86,121.611 648.655,121.357 648.205,120.939 C648.063,120.809 648.063,120.809 647.913,120.685 C647.348,120.225 646.725,119.884 646.073,119.677 C645.414,119.464 645.071,119.443 643.8,119.443 L638.273,119.443 C636.685,119.443 636.302,119.402 636.363,119.443 C636.364,119.443 636.364,119.443 636.364,119.443 C636.395,119.524 636.364,119.017 636.364,116.911 L636.364,105.094 C636.364,102.987 636.395,102.48 636.364,102.561 C636.364,102.562 636.364,102.562 636.364,102.562 C636.302,102.603 636.685,102.561 638.273,102.561 L643.8,102.561 C645.067,102.561 645.412,102.54 646.083,102.325 C646.728,102.121 647.351,101.779 647.922,101.315 C648.511,100.831 648.761,100.526 649.654,99.342 L659.722,85.989 Z" />
        </g>
    </g>
</svg>