<?xml version="1.0" encoding="UTF-8"?>
<svg height="600" width="800" xmlns="http://www.w3.org/2000/svg" xmlns:xlink="http://www.w3.org/1999/xlink">
    <g id="Notes" font-family="LucidaGrande, 'Lucida Grande', sans-serif" font-size="13">
        <rect fill="white" height="600.0" width="800.0" x="0.0" y="0.0" />
        <g font-size="13">
            <text x="18.0" y="176.0">Small</text>
            <text x="18.0" y="376.0">Medium</text>
            <text x="18.0" y="576.0">Large</text>
        </g>
        <g font-size="9">
            <text x="250.0" y="30.0">Ultralight</text>
            <text x="450.0" y="30.0">Regular</text>
            <text x="650.0" y="30.0">Black</text>
            <text id="template-version" fill="#505050" text-anchor="end" x="785.0" y="575.0">Template v.3.0</text>
            <a href="https://github.com/swhitty/SwiftDraw">
                <text fill="#505050" text-anchor="end" x="785.0" y="590.0">https://github.com/swhitty/SwiftDraw</text>
            </a>
        </g>
    </g>
    <g id="Guides" stroke="rgb(39, 170, 225)" stroke-width="0.5">
        <path id="Capline-S" d="M18,76 l800,0" />
        <path id="H-reference" d="M85,145.755 L87.685,145.755 L113.369,79.287 L114.052,79.287 L114.052,76 L112.148,76 L85,145.755 Z M95.693,121.536 L130.996,121.536 L130.263,119.313 L96.474,119.313 L95.693,121.536 Z M139.15,145.755 L141.787,145.755 L114.638,76 L113.466,76 L113.466,79.287 L139.15,145.755 Z" stroke="none" transform="translate(0,200)" />
        <path id="Baseline-S" d="M18,146 l800,0" />
        <path id="left-margin-Ultralight-M" d="M230,256 l0,110" />
        <path id="right-margin-Ultralight-M" d="M300,256 l0,110" />
        <path id="left-margin-Regular-M" d="M430,256 l0,110" />
        <path id="right-margin-Regular-M" d="M500,256 l0,110" />
        <path id="left-margin-Black-M" d="M630,256 l0,110" />
        <path id="right-margin-Black-M" d="M700,256 l0,110" />
        <path id="Capline-M" d="M18,276 l800,0" />
        <path id="Baseline-M" d="M18,346 l800,0" />
        <path id="Capline-L" d="M18,476 l800,0" />
        <path id="Baseline-L" d="M18,546 l800,0" />
    </g>
    <g id="Symbols">
        <g id="Ultralight-M" transform="translate(0,200)">
            <path d="M296.818,96.682 L233.182,96.682 C231.425,96.682 230,98.106 230,99.864 C230,101.621 231.425,103.045 233.182,103.045 L296.818,103.045 C298.575,103.045 300,101.621 300,99.864 C300,98.106 298.575,96.682 296.818,96.682 Z M233.182,115.773 L244.468,115.773 C246.396,115.773 246.849,115.789 247.312,115.872 C247.802,115.957 248.277,116.101 248.75,116.307 C248.795,116.327 248.795,116.327 248.843,116.349 C249.256,116.542 249.648,116.787 251.174,117.804 L253.025,119.037 C254.884,120.277 255.36,120.575 256.184,120.959 C256.314,121.019 256.314,121.019 256.445,121.077 C257.344,121.472 258.307,121.763 259.298,121.938 C260.279,122.115 260.892,122.136 263.26,122.136 L266.74,122.136 C269.108,122.136 269.721,122.115 270.712,121.936 C271.669,121.772 272.632,121.478 273.562,121.073 C273.69,121.017 273.69,121.017 273.814,120.96 C274.638,120.574 275.133,120.264 276.974,119.038 L278.827,117.803 C280.363,116.779 280.74,116.543 281.145,116.354 C281.194,116.331 281.194,116.331 281.242,116.31 C281.711,116.104 282.185,115.961 282.678,115.874 C283.151,115.789 283.604,115.773 285.532,115.773 L296.818,115.773 C298.575,115.773 300,114.348 300,112.591 C300,110.834 298.575,109.409 296.818,109.409 L285.532,109.409 C283.165,109.409 282.551,109.431 281.561,109.609 C280.58,109.782 279.617,110.073 278.699,110.477 C278.586,110.526 278.586,110.526 278.456,110.586 C277.632,110.97 277.157,111.268 275.297,112.508 L273.445,113.743 C271.92,114.758 271.529,115.003 271.116,115.196 C271.068,115.219 271.068,115.219 271.021,115.239 C270.55,115.444 270.075,115.589 269.608,115.669 C269.122,115.757 268.668,115.773 266.74,115.773 L263.26,115.773 C261.332,115.773 260.878,115.757 260.416,115.674 C259.913,115.585 259.438,115.441 258.988,115.243 C258.921,115.214 258.921,115.214 258.873,115.192 C258.468,115.003 258.09,114.766 256.555,113.743 L254.703,112.508 C252.86,111.281 252.365,110.971 251.541,110.586 C251.417,110.528 251.417,110.528 251.292,110.473 C250.359,110.067 249.396,109.774 248.416,109.605 C247.449,109.431 246.835,109.409 244.468,109.409 L233.182,109.409 C231.425,109.409 230,110.834 230,112.591 C230,114.348 231.425,115.773 233.182,115.773 Z M230,95.727 L230,126.273 C230,131.367 230.099,132.576 231.04,134.424 C231.956,136.221 233.416,137.681 235.212,138.596 C237.061,139.538 238.27,139.636 243.364,139.636 L286.636,139.636 C291.73,139.636 292.939,139.538 294.788,138.596 C296.584,137.681 298.044,136.221 298.96,134.425 C299.901,132.576 300,131.367 300,126.273 L300,95.727 C300,90.633 299.901,89.424 298.96,87.576 C298.044,85.779 296.584,84.319 294.788,83.404 C292.939,82.462 291.73,82.364 286.636,82.364 L243.364,82.364 C238.27,82.364 237.061,82.462 235.212,83.404 C233.416,84.319 231.956,85.779 231.04,87.575 C230.099,89.424 230,90.633 230,95.727 Z M236.364,95.727 C236.364,91.912 236.438,90.999 236.711,90.464 C237.016,89.866 237.502,89.379 238.101,89.074 C238.635,88.802 239.548,88.727 243.364,88.727 L286.636,88.727 C290.452,88.727 291.365,88.802 291.9,89.074 C292.498,89.379 292.984,89.866 293.29,90.465 C293.562,90.999 293.636,91.912 293.636,95.727 L293.636,126.273 C293.636,130.088 293.562,131.001 293.289,131.536 C292.984,132.134 292.498,132.621 291.899,132.926 C291.365,133.198 290.452,133.273 286.636,133.273 L243.364,133.273 C239.548,133.273 238.635,133.198 238.1,132.926 C237.502,132.621 237.016,132.134 236.71,131.535 C236.438,131.001 236.364,130.088 236.364,126.273 L236.364,95.727 Z" />
        </g>
        <g id="Regular-M" transform="translate(0,200)">
            <path d="M496.818,96.682 L433.182,96.682 C431.425,96.682 430,98.106 430,99.864 C430,101.621 431.425,103.045 433.182,103.045 L496.818,103.045 C498.575,103.045 500,101.621 500,99.864 C500,98.106 498.575,96.682 496.818,96.682 Z M433.182,115.773 L444.468,115.773 C446.396,115.773 446.849,115.789 447.312,115.872 C447.802,115.957 448.277,116.101 448.75,116.307 C448.795,116.327 448.795,116.327 448.843,116.349 C449.256,116.542 449.648,116.787 451.174,117.804 L453.025,119.037 C454.884,120.277 455.36,120.575 456.184,120.959 C456.314,121.019 456.314,121.019 456.445,121.077 C457.344,121.472 458.307,121.763 459.298,121.938 C460.279,122.115 460.892,122.136 463.26,122.136 L466.74,122.136 C469.108,122.136 469.721,122.115 470.712,121.936 C471.669,121.772 472.632,121.478 473.562,121.073 C473.69,121.017 473.69,121.017 473.814,120.96 C474.638,120.574 475.133,120.264 476.974,119.038 L478.827,117.803 C480.363,116.779 480.74,116.543 481.145,116.354 C481.194,116.331 481.194,116.331 481.242,116.31 C481.711,116.104 482.185,115.961 482.678,115.874 C483.151,115.789 483.604,115.773 485.532,115.773 L496.818,115.773 C498.575,115.773 500,114.348 500,112.591 C500,110.834 498.575,109.409 496.818,109.409 L485.532,109.409 C483.165,109.409 482.551,109.431 481.561,109.609 C480.58,109.782 479.617,110.073 478.699,110.477 C478.586,110.526 478.586,110.526 478.456,110.586 C477.632,110.97 477.157,111.268 475.297,112.508 L473.445,113.743 C471.92,114.758 471.529,115.003 471.116,115.196 C471.068,115.219 471.068,115.219 471.021,115.239 C470.55,115.444 470.075,115.589 469.608,115.669 C469.122,115.757 468.668,115.773 466.74,115.773 L463.26,115.773 C461.332,115.773 460.878,115.757 460.416,115.674 C459.913,115.585 459.438,115.441 458.988,115.243 C458.921,115.214 458.921,115.214 458.873,115.192 C458.468,115.003 458.09,114.766 456.555,113.743 L454.703,112.508 C452.86,111.281 452.365,110.971 451.541,110.586 C451.417,110.528 451.417,110.528 451.292,110.473 C450.359,110.067 449.396,109.774 448.416,109.605 C447.449,109.431 446.835,109.409 444.468,109.409 L433.182,109.409 C431.425,109.409 430,110.834 430,112.591 C430,114.348 431.425,115.773 433.182,115.773 Z M430,95.727 L430,126.273 C430,131.367 430.099,132.576 431.04,134.424 C431.956,136.221 433.416,137.681 435.212,138.596 C437.061,139.538 438.27,139.636 443.364,139.636 L486.636,139.636 C491.73,139.636 492.939,139.538 494.788,138.596 C496.584,137.681 498.044,136.221 498.96,134.425 C499.901,132.576 500,131.367 500,126.273 L500,95.727 C500,90.633 499.901,89.424 498.96,87.576 C498.044,85.779 496.584,84.319 494.788,83.404 C492.939,82.462 491.73,82.364 486.636,82.364 L443.364,82.364 C438.27,82.364 437.061,82.462 435.212,83.404 C433.416,84.319 431.956,85.779 431.04,87.575 C430.099,89.424 430,90.633 430,95.727 Z M436.364,95.727 C436.364,91.912 436.438,90.999 436.711,90.464 C437.016,89.866 437.502,89.379 438.101,89.074 C438.635,88.802 439.548,88.727 443.364,88.727 L486.636,88.727 C490.452,88.727 491.365,88.802 491.9,89.074 C492.498,89.379 492.984,89.866 493.29,90.465 C493.562,90.999 493.636,91.912 493.636,95.727 L493.636,126.273 C493.636,130.088 493.562,131.001 493.289,131.536 C492.984,132.134 492.498,132.621 491.899,132.926 C491.365,133.198 490.452,133.273 486.636,133.273 L443.364,133.273 C439.548,133.273 438.635,133.198 438.1,132.926 C437.502,132.621 437.016,132.134 436.71,131.535 C436.438,131.001 436.364,130.088 436.364,126.273 L436.364,95.727 Z" />
        </g>
        <g id="Black-M" transform="translate(0,200)">
            <path d="M696.818,96.682 L633.182,96.682 C631.425,96.682 630,98.106 630,99.864 C630,101.621 631.425,103.045 633.182,103.045 L696.818,103.045 C698.575,103.045 700,101.621 700,99.864 C700,98.106 698.575,96.682 696.818,96.682 Z M633.182,115.773 L644.468,115.773 C646.396,115.773 646.849,115.789 647.312,115.872 C647.802,115.957 648.277,116.101 648.75,116.307 C648.795,116.327 648.795,116.327 648.843,116.349 C649.256,116.542 649.648,116.787 651.174,117.804 L653.025,119.037 C654.884,120.277 655.36,120.575 656.184,120.959 C656.314,121.019 656.314,121.019 656.445,121.077 C657.344,121.472 658.307,121.763 659.298,121.938 C660.279,122.115 660.892,122.136 663.26,122.136 L666.74,122.136 C669.108,122.136 669.721,122.115 670.712,121.936 C671.669,121.772 672.632,121.478 673.562,121.073 C673.69,121.017 673.69,121.017 673.814,120.96 C674.638,120.574 675.133,120.264 676.974,119.038 L678.827,117.803 C680.363,116.779 680.74,116.543 681.145,116.354 C681.194,116.331 681.194,116.331 681.242,116.31 C681.711,116.104 682.185,115.961 682.678,115.874 C683.151,115.789 683.604,115.773 685.532,115.773 L696.818,115.773 C698.575,115.773 700,114.348 700,112.591 C700,110.834 698.575,109.409 696.818,109.409 L685.532,109.409 C683.165,109.409 682.551,109.431 681.561,109.609 C680.58,109.782 679.617,110.073 678.699,110.477 C678.586,110.526 678.586,110.526 678.456,110.586 C677.632,110.97 677.157,111.268 675.297,112.508 L673.445,113.743 C671.92,114.758 671.529,115.003 671.116,115.196 C671.068,115.219 671.068,115.219 671.021,115.239 C670.55,115.444 670.075,115.589 669.608,115.669 C669.122,115.757 668.668,115.773 666.74,115.773 L663.26,115.773 C661.332,115.773 660.878,115.757 660.416,115.674 C659.913,115.585 659.438,115.441 658.988,115.243 C658.921,115.214 658.921,115.214 658.873,115.192 C658.468,115.003 658.09,114.766 656.555,113.743 L654.703,112.508 C652.86,111.281 652.365,110.971 651.541,110.586 C651.417,110.528 651.417,110.528 651.292,110.473 C650.359,110.067 649.396,109.774 648.416,109.605 C647.449,109.431 646.835,109.409 644.468,109.409 L633.182,109.409 C631.425,109.409 630,110.834 630,112.591 C630,114.348 631.425,115.773 633.182,115.773 Z M630,95.727 L630,126.273 C630,131.367 630.099,132.576 631.04,134.424 C631.956,136.221 633.416,137.681 635.212,138.596 C637.061,139.538 638.27,139.636 643.364,139.636 L686.636,139.636 C691.73,139.636 692.939,139.538 694.788,138.596 C696.584,137.681 698.044,136.221 698.96,134.425 C699.901,132.576 700,131.367 700,126.273 L700,95.727 C700,90.633 699.901,89.424 698.96,87.576 C698.044,85.779 696.584,84.319 694.788,83.404 C692.939,82.462 691.73,82.364 686.636,82.364 L643.364,82.364 C638.27,82.364 637.061,82.462 635.212,83.404 C633.416,84.319 631.956,85.779 631.04,87.575 C630.099,89.424 630,90.633 630,95.727 Z M636.364,95.727 C636.364,91.912 636.438,90.999 636.711,90.464 C637.016,89.866 637.502,89.379 638.101,89.074 C638.635,88.802 639.548,88.727 643.364,88.727 L686.636,88.727 C690.452,88.727 691.365,88.802 691.9,89.074 C692.498,89.379 692.984,89.866 693.29,90.465 C693.562,90.999 693.636,91.912 693.636,95.727 L693.636,126.273 C693.636,130.088 693.562,131.001 693.289,131.536 C692.984,132.134 692.498,132.621 691.899,132.926 C691.365,133.198 690.452,133.273 686.636,133.273 L643.364,133.273 C639.548,133.273 638.635,133.198 638.1,132.926 C637.502,132.621 637.016,132.134 636.71,131.535 C636.438,131.001 636.364,130.088 636.364,126.273 L636.364,95.727 Z" />
        </g>
    </g>
</svg>