<?xml version="1.0" encoding="UTF-8"?>
<svg height="600" width="800" xmlns="http://www.w3.org/2000/svg" xmlns:xlink="http://www.w3.org/1999/xlink">
    <g id="Notes" font-family="LucidaGrande, 'Lucida Grande', sans-serif" font-size="13">
        <rect fill="white" height="600.0" width="800.0" x="0.0" y="0.0" />
        <g font-size="13">
            <text x="18.0" y="176.0">Small</text>
            <text x="18.0" y="376.0">Medium</text>
            <text x="18.0" y="576.0">Large</text>
        </g>
        <g font-size="9">
            <text x="250.0" y="30.0">Ultralight</text>
            <text x="450.0" y="30.0">Regular</text>
            <text x="650.0" y="30.0">Black</text>
            <text id="template-version" fill="#505050" text-anchor="end" x="785.0" y="575.0">Template v.3.0</text>
            <a href="https://github.com/swhitty/SwiftDraw">
                <text fill="#505050" text-anchor="end" x="785.0" y="590.0">https://github.com/swhitty/SwiftDraw</text>
            </a>
        </g>
    </g>
    <g id="Guides" stroke="rgb(39, 170, 225)" stroke-width="0.5">
        <path id="Capline-S" d="M18,76 l800,0" />
        <path id="H-reference" d="M85,145.755 L87.685,145.755 L113.369,79.287 L114.052,79.287 L114.052,76 L112.148,76 L85,145.755 Z M95.693,121.536 L130.996,121.536 L130.263,119.313 L96.474,119.313 L95.693,121.536 Z M139.15,145.755 L141.787,145.755 L114.638,76 L113.466,76 L113.466,79.287 L139.15,145.755 Z" stroke="none" transform="translate(0,200)" />
        <path id="Baseline-S" d="M18,146 l800,0" />
        <path id="left-margin-Ultralight-M" d="M230,256 l0,110" />
        <path id="right-margin-Ultralight-M" d="M300,256 l0,110" />
        <path id="left-margin-Regular-M" d="M430,256 l0,110" />
        <path id="right-margin-Regular-M" d="M500,256 l0,110" />
        <path id="left-margin-Black-M" d="M630,256 l0,110" />
        <path id="right-margin-Black-M" d="M700,256 l0,110" />
        <path id="Capline-M" d="M18,276 l800,0" />
        <path id="Baseline-M" d="M18,346 l800,0" />
        <path id="Capline-L" d="M18,476 l800,0" />
        <path id="Baseline-L" d="M18,546 l800,0" />
    </g>
    <g id="Symbols">
        <g id="Ultralight-M" transform="translate(0,200)">
            <path d="M278.125,119.75 L278.154,119.75 C279.765,119.75 281.071,118.444 281.071,116.833 C281.071,115.223 279.765,113.917 278.154,113.917 L278.125,113.917 C276.514,113.917 275.208,115.223 275.208,116.833 C275.208,118.444 276.514,119.75 278.125,119.75 Z M235.833,90.583 L235.833,131.417 C235.833,133.737 236.755,135.963 238.396,137.604 C240.037,139.245 242.263,140.167 244.583,140.167 L285.417,140.167 C287.737,140.167 289.963,139.245 291.604,137.604 C293.245,135.963 294.167,133.737 294.167,131.417 L294.167,102.25 C294.167,99.929 293.245,97.704 291.604,96.063 C289.963,94.422 287.737,93.5 285.417,93.5 L244.583,93.5 C243.81,93.5 243.068,93.193 242.521,92.646 C241.974,92.099 241.667,91.357 241.667,90.583 L238.75,90.583 L235.833,90.583 Z M241.667,90.583 C241.667,86.694 235.833,86.694 235.833,90.583 C235.833,92.904 236.755,95.13 238.396,96.771 C240.037,98.411 242.263,99.333 244.583,99.333 L285.417,99.333 C286.19,99.333 286.932,99.641 287.479,100.188 C288.026,100.735 288.333,101.476 288.333,102.25 L288.333,131.417 C288.333,132.19 288.026,132.932 287.479,133.479 C286.932,134.026 286.19,134.333 285.417,134.333 L244.583,134.333 C243.81,134.333 243.068,134.026 242.521,133.479 C241.974,132.932 241.667,132.19 241.667,131.417 L241.667,90.583 Z M241.667,90.583 C241.667,89.81 241.974,89.068 242.521,88.521 C243.068,87.974 243.81,87.667 244.583,87.667 L279.583,87.667 C281.194,87.667 282.5,86.361 282.5,84.75 C282.5,83.139 281.194,81.833 279.583,81.833 L244.583,81.833 C242.263,81.833 240.037,82.755 238.396,84.396 C236.755,86.037 235.833,88.263 235.833,90.583 C235.833,92.194 237.139,93.5 238.75,93.5 C240.361,93.5 241.667,92.194 241.667,90.583 Z M276.667,116.833 C276.667,116.028 277.32,115.375 278.125,115.375 C278.93,115.375 279.583,116.028 279.583,116.833 C279.583,117.639 278.93,118.292 278.125,118.292 C277.32,118.292 276.667,117.639 276.667,116.833 Z M282.5,116.833 C282.5,114.417 280.541,112.458 278.125,112.458 C275.709,112.458 273.75,114.417 273.75,116.833 C273.75,119.25 275.709,121.208 278.125,121.208 C280.541,121.208 282.5,119.25 282.5,116.833 Z" />
        </g>
        <g id="Regular-M" transform="translate(0,200)">
            <path d="M478.125,119.75 L478.154,119.75 C479.765,119.75 481.071,118.444 481.071,116.833 C481.071,115.223 479.765,113.917 478.154,113.917 L478.125,113.917 C476.514,113.917 475.208,115.223 475.208,116.833 C475.208,118.444 476.514,119.75 478.125,119.75 Z M435.833,90.583 L435.833,131.417 C435.833,133.737 436.755,135.963 438.396,137.604 C440.037,139.245 442.263,140.167 444.583,140.167 L485.417,140.167 C487.737,140.167 489.963,139.245 491.604,137.604 C493.245,135.963 494.167,133.737 494.167,131.417 L494.167,102.25 C494.167,99.929 493.245,97.704 491.604,96.063 C489.963,94.422 487.737,93.5 485.417,93.5 L444.583,93.5 C443.81,93.5 443.068,93.193 442.521,92.646 C441.974,92.099 441.667,91.357 441.667,90.583 L438.75,90.583 L435.833,90.583 Z M441.667,90.583 C441.667,86.694 435.833,86.694 435.833,90.583 C435.833,92.904 436.755,95.13 438.396,96.771 C440.037,98.411 442.263,99.333 444.583,99.333 L485.417,99.333 C486.19,99.333 486.932,99.641 487.479,100.188 C488.026,100.735 488.333,101.476 488.333,102.25 L488.333,131.417 C488.333,132.19 488.026,132.932 487.479,133.479 C486.932,134.026 486.19,134.333 485.417,134.333 L444.583,134.333 C443.81,134.333 443.068,134.026 442.521,133.479 C441.974,132.932 441.667,132.19 441.667,131.417 L441.667,90.583 Z M441.667,90.583 C441.667,89.81 441.974,89.068 442.521,88.521 C443.068,87.974 443.81,87.667 444.583,87.667 L479.583,87.667 C481.194,87.667 482.5,86.361 482.5,84.75 C482.5,83.139 481.194,81.833 479.583,81.833 L444.583,81.833 C442.263,81.833 440.037,82.755 438.396,84.396 C436.755,86.037 435.833,88.263 435.833,90.583 C435.833,92.194 437.139,93.5 438.75,93.5 C440.361,93.5 441.667,92.194 441.667,90.583 Z M476.667,116.833 C476.667,116.028 477.32,115.375 478.125,115.375 C478.93,115.375 479.583,116.028 479.583,116.833 C479.583,117.639 478.93,118.292 478.125,118.292 C477.32,118.292 476.667,117.639 476.667,116.833 Z M482.5,116.833 C482.5,114.417 480.541,112.458 478.125,112.458 C475.709,112.458 473.75,114.417 473.75,116.833 C473.75,119.25 475.709,121.208 478.125,121.208 C480.541,121.208 482.5,119.25 482.5,116.833 Z" />
        </g>
        <g id="Black-M" transform="translate(0,200)">
            <path d="M678.125,119.75 L678.154,119.75 C679.765,119.75 681.071,118.444 681.071,116.833 C681.071,115.223 679.765,113.917 678.154,113.917 L678.125,113.917 C676.514,113.917 675.208,115.223 675.208,116.833 C675.208,118.444 676.514,119.75 678.125,119.75 Z M635.833,90.583 L635.833,131.417 C635.833,133.737 636.755,135.963 638.396,137.604 C640.037,139.245 642.263,140.167 644.583,140.167 L685.417,140.167 C687.737,140.167 689.963,139.245 691.604,137.604 C693.245,135.963 694.167,133.737 694.167,131.417 L694.167,102.25 C694.167,99.929 693.245,97.704 691.604,96.063 C689.963,94.422 687.737,93.5 685.417,93.5 L644.583,93.5 C643.81,93.5 643.068,93.193 642.521,92.646 C641.974,92.099 641.667,91.357 641.667,90.583 L638.75,90.583 L635.833,90.583 Z M641.667,90.583 C641.667,86.694 635.833,86.694 635.833,90.583 C635.833,92.904 636.755,95.13 638.396,96.771 C640.037,98.411 642.263,99.333 644.583,99.333 L685.417,99.333 C686.19,99.333 686.932,99.641 687.479,100.188 C688.026,100.735 688.333,101.476 688.333,102.25 L688.333,131.417 C688.333,132.19 688.026,132.932 687.479,133.479 C686.932,134.026 686.19,134.333 685.417,134.333 L644.583,134.333 C643.81,134.333 643.068,134.026 642.521,133.479 C641.974,132.932 641.667,132.19 641.667,131.417 L641.667,90.583 Z M641.667,90.583 C641.667,89.81 641.974,89.068 642.521,88.521 C643.068,87.974 643.81,87.667 644.583,87.667 L679.583,87.667 C681.194,87.667 682.5,86.361 682.5,84.75 C682.5,83.139 681.194,81.833 679.583,81.833 L644.583,81.833 C642.263,81.833 640.037,82.755 638.396,84.396 C636.755,86.037 635.833,88.263 635.833,90.583 C635.833,92.194 637.139,93.5 638.75,93.5 C640.361,93.5 641.667,92.194 641.667,90.583 Z M676.667,116.833 C676.667,116.028 677.32,115.375 678.125,115.375 C678.93,115.375 679.583,116.028 679.583,116.833 C679.583,117.639 678.93,118.292 678.125,118.292 C677.32,118.292 676.667,117.639 676.667,116.833 Z M682.5,116.833 C682.5,114.417 680.541,112.458 678.125,112.458 C675.709,112.458 673.75,114.417 673.75,116.833 C673.75,119.25 675.709,121.208 678.125,121.208 C680.541,121.208 682.5,119.25 682.5,116.833 Z" />
        </g>
    </g>
</svg>