<?xml version="1.0" encoding="UTF-8"?>
<svg height="600" width="800" xmlns="http://www.w3.org/2000/svg" xmlns:xlink="http://www.w3.org/1999/xlink">
    <g id="Notes" font-family="LucidaGrande, 'Lucida Grande', sans-serif" font-size="13">
        <rect fill="white" height="600.0" width="800.0" x="0.0" y="0.0" />
        <g font-size="13">
            <text x="18.0" y="176.0">Small</text>
            <text x="18.0" y="376.0">Medium</text>
            <text x="18.0" y="576.0">Large</text>
        </g>
        <g font-size="9">
            <text x="250.0" y="30.0">Ultralight</text>
            <text x="450.0" y="30.0">Regular</text>
            <text x="650.0" y="30.0">Black</text>
            <text id="template-version" fill="#505050" text-anchor="end" x="785.0" y="575.0">Template v.3.0</text>
            <a href="https://github.com/swhitty/SwiftDraw">
                <text fill="#505050" text-anchor="end" x="785.0" y="590.0">https://github.com/swhitty/SwiftDraw</text>
            </a>
        </g>
    </g>
    <g id="Guides" stroke="rgb(39, 170, 225)" stroke-width="0.5">
        <path id="Capline-S" d="M18,76 l800,0" />
        <path id="H-reference" d="M85,145.755 L87.685,145.755 L113.369,79.287 L114.052,79.287 L114.052,76 L112.148,76 L85,145.755 Z M95.693,121.536 L130.996,121.536 L130.263,119.313 L96.474,119.313 L95.693,121.536 Z M139.15,145.755 L141.787,145.755 L114.638,76 L113.466,76 L113.466,79.287 L139.15,145.755 Z" stroke="none" transform="translate(0,200)" />
        <path id="Baseline-S" d="M18,146 l800,0" />
        <path id="left-margin-Ultralight-M" d="M230,256 l0,110" />
        <path id="right-margin-Ultralight-M" d="M300,256 l0,110" />
        <path id="left-margin-Regular-M" d="M430,256 l0,110" />
        <path id="right-margin-Regular-M" d="M500,256 l0,110" />
        <path id="left-margin-Black-M" d="M630,256 l0,110" />
        <path id="right-margin-Black-M" d="M700,256 l0,110" />
        <path id="Capline-M" d="M18,276 l800,0" />
        <path id="Baseline-M" d="M18,346 l800,0" />
        <path id="Capline-L" d="M18,476 l800,0" />
        <path id="Baseline-L" d="M18,546 l800,0" />
    </g>
    <g id="Symbols">
        <g id="Ultralight-M" transform="translate(0,200)">
            <path d="M283.846,130.808 L282.273,134.563 C281.548,136.289 281.306,136.839 281.01,137.401 C280.721,137.949 280.508,138.234 280.298,138.415 C279.79,138.857 279.135,139.194 278.388,139.403 C277.721,139.588 276.714,139.636 272.401,139.636 L257.599,139.636 C253.289,139.636 252.278,139.588 251.6,139.4 C250.86,139.193 250.204,138.856 249.705,138.422 C249.495,138.24 249.283,137.957 248.997,137.416 C248.699,136.853 248.459,136.309 247.72,134.555 L246.155,130.81 C245.448,129.12 242.866,128.14 240.388,128.622 C237.909,129.103 236.472,130.864 237.179,132.554 L238.747,136.305 C239.557,138.229 239.819,138.823 240.217,139.576 C240.815,140.706 241.461,141.569 242.366,142.354 C243.863,143.653 245.831,144.666 248.076,145.292 C250.38,145.931 251.814,146 257.599,146 L272.401,146 C278.188,146 279.62,145.931 281.915,145.295 C284.17,144.665 286.136,143.652 287.632,142.351 C288.54,141.567 289.191,140.696 289.794,139.553 C290.189,138.803 290.453,138.202 291.247,136.312 L292.821,132.556 C293.528,130.866 292.093,129.105 289.615,128.622 C287.137,128.14 284.554,129.118 283.846,130.808 Z M292.821,89.444 L291.248,85.69 C290.453,83.798 290.189,83.197 289.794,82.447 C289.191,81.304 288.54,80.433 287.623,79.641 C286.136,78.348 284.17,77.335 281.927,76.709 C279.62,76.069 278.188,76 272.401,76 L257.599,76 C251.814,76 250.38,76.069 248.085,76.705 C245.831,77.334 243.863,78.347 242.364,79.648 C241.461,80.431 240.815,81.295 240.217,82.424 C239.819,83.177 239.557,83.771 238.749,85.688 L237.179,89.446 C236.472,91.136 237.909,92.897 240.388,93.378 C242.866,93.86 245.448,92.88 246.155,91.19 L247.723,87.439 C248.459,85.691 248.699,85.147 248.997,84.584 C249.283,84.043 249.495,83.76 249.703,83.58 C250.204,83.144 250.86,82.807 251.609,82.598 C252.278,82.412 253.289,82.364 257.599,82.364 L272.401,82.364 C276.714,82.364 277.721,82.412 278.4,82.6 C279.135,82.806 279.791,83.143 280.289,83.577 C280.508,83.766 280.721,84.051 281.01,84.599 C281.306,85.161 281.548,85.711 282.274,87.44 L283.846,91.192 C284.554,92.882 287.137,93.86 289.615,93.378 C292.093,92.895 293.528,91.134 292.821,89.444 Z M260.333,101.455 L260.333,111 C260.333,111.844 260.825,112.653 261.7,113.25 L268.7,118.023 C270.523,119.265 273.477,119.265 275.3,118.023 C277.122,116.78 277.122,114.765 275.3,113.523 L268.3,108.75 L269.667,111 L269.667,101.455 C269.667,99.697 267.577,98.273 265,98.273 C262.423,98.273 260.333,99.697 260.333,101.455 Z M249.6,134.864 L280.4,134.864 C287.871,134.864 289.645,134.765 292.355,133.823 C294.99,132.908 297.132,131.448 298.474,129.652 C299.855,127.803 300,126.594 300,121.5 L300,100.5 C300,95.406 299.855,94.197 298.474,92.349 C297.132,90.552 294.99,89.092 292.356,88.177 C289.645,87.235 287.871,87.136 280.4,87.136 L249.6,87.136 C242.129,87.136 240.355,87.235 237.645,88.177 C235.01,89.092 232.868,90.552 231.526,92.348 C230.145,94.197 230,95.406 230,100.5 L230,121.5 C230,126.594 230.145,127.803 231.526,129.651 C232.868,131.448 235.01,132.908 237.644,133.823 C240.355,134.765 242.129,134.864 249.6,134.864 Z M249.6,128.5 C244.004,128.5 242.665,128.425 241.881,128.153 C241.003,127.848 240.289,127.361 239.842,126.763 C239.443,126.228 239.333,125.315 239.333,121.5 L239.333,100.5 C239.333,96.685 239.443,95.772 239.842,95.237 C240.289,94.639 241.003,94.152 241.881,93.847 C242.665,93.575 244.004,93.5 249.6,93.5 L280.4,93.5 C285.996,93.5 287.335,93.575 288.119,93.847 C288.997,94.152 289.711,94.639 290.158,95.237 C290.557,95.772 290.667,96.685 290.667,100.5 L290.667,121.5 C290.667,125.315 290.557,126.228 290.158,126.763 C289.711,127.361 288.997,127.848 288.119,128.153 C287.335,128.425 285.996,128.5 280.4,128.5 L249.6,128.5 Z" />
        </g>
        <g id="Regular-M" transform="translate(0,200)">
            <path d="M483.846,130.808 L482.273,134.563 C481.548,136.289 481.306,136.839 481.01,137.401 C480.721,137.949 480.508,138.234 480.298,138.415 C479.79,138.857 479.135,139.194 478.388,139.403 C477.721,139.588 476.714,139.636 472.401,139.636 L457.599,139.636 C453.289,139.636 452.278,139.588 451.6,139.4 C450.86,139.193 450.204,138.856 449.705,138.422 C449.495,138.24 449.283,137.957 448.997,137.416 C448.699,136.853 448.459,136.309 447.72,134.555 L446.155,130.81 C445.448,129.12 442.866,128.14 440.388,128.622 C437.909,129.103 436.472,130.864 437.179,132.554 L438.747,136.305 C439.557,138.229 439.819,138.823 440.217,139.576 C440.815,140.706 441.461,141.569 442.366,142.354 C443.863,143.653 445.831,144.666 448.076,145.292 C450.38,145.931 451.814,146 457.599,146 L472.401,146 C478.188,146 479.62,145.931 481.915,145.295 C484.17,144.665 486.136,143.652 487.632,142.351 C488.54,141.567 489.191,140.696 489.794,139.553 C490.189,138.803 490.453,138.202 491.247,136.312 L492.821,132.556 C493.528,130.866 492.093,129.105 489.615,128.622 C487.137,128.14 484.554,129.118 483.846,130.808 Z M492.821,89.444 L491.248,85.69 C490.453,83.798 490.189,83.197 489.794,82.447 C489.191,81.304 488.54,80.433 487.623,79.641 C486.136,78.348 484.17,77.335 481.927,76.709 C479.62,76.069 478.188,76 472.401,76 L457.599,76 C451.814,76 450.38,76.069 448.085,76.705 C445.831,77.334 443.863,78.347 442.364,79.648 C441.461,80.431 440.815,81.295 440.217,82.424 C439.819,83.177 439.557,83.771 438.749,85.688 L437.179,89.446 C436.472,91.136 437.909,92.897 440.388,93.378 C442.866,93.86 445.448,92.88 446.155,91.19 L447.723,87.439 C448.459,85.691 448.699,85.147 448.997,84.584 C449.283,84.043 449.495,83.76 449.703,83.58 C450.204,83.144 450.86,82.807 451.609,82.598 C452.278,82.412 453.289,82.364 457.599,82.364 L472.401,82.364 C476.714,82.364 477.721,82.412 478.4,82.6 C479.135,82.806 479.791,83.143 480.289,83.577 C480.508,83.766 480.721,84.051 481.01,84.599 C481.306,85.161 481.548,85.711 482.274,87.44 L483.846,91.192 C484.554,92.882 487.137,93.86 489.615,93.378 C492.093,92.895 493.528,91.134 492.821,89.444 Z M460.333,101.455 L460.333,111 C460.333,111.844 460.825,112.653 461.7,113.25 L468.7,118.023 C470.523,119.265 473.477,119.265 475.3,118.023 C477.122,116.78 477.122,114.765 475.3,113.523 L468.3,108.75 L469.667,111 L469.667,101.455 C469.667,99.697 467.577,98.273 465,98.273 C462.423,98.273 460.333,99.697 460.333,101.455 Z M449.6,134.864 L480.4,134.864 C487.871,134.864 489.645,134.765 492.355,133.823 C494.99,132.908 497.132,131.448 498.474,129.652 C499.855,127.803 500,126.594 500,121.5 L500,100.5 C500,95.406 499.855,94.197 498.474,92.349 C497.132,90.552 494.99,89.092 492.356,88.177 C489.645,87.235 487.871,87.136 480.4,87.136 L449.6,87.136 C442.129,87.136 440.355,87.235 437.645,88.177 C435.01,89.092 432.868,90.552 431.526,92.348 C430.145,94.197 430,95.406 430,100.5 L430,121.5 C430,126.594 430.145,127.803 431.526,129.651 C432.868,131.448 435.01,132.908 437.644,133.823 C440.355,134.765 442.129,134.864 449.6,134.864 Z M449.6,128.5 C444.004,128.5 442.665,128.425 441.881,128.153 C441.003,127.848 440.289,127.361 439.842,126.763 C439.443,126.228 439.333,125.315 439.333,121.5 L439.333,100.5 C439.333,96.685 439.443,95.772 439.842,95.237 C440.289,94.639 441.003,94.152 441.881,93.847 C442.665,93.575 444.004,93.5 449.6,93.5 L480.4,93.5 C485.996,93.5 487.335,93.575 488.119,93.847 C488.997,94.152 489.711,94.639 490.158,95.237 C490.557,95.772 490.667,96.685 490.667,100.5 L490.667,121.5 C490.667,125.315 490.557,126.228 490.158,126.763 C489.711,127.361 488.997,127.848 488.119,128.153 C487.335,128.425 485.996,128.5 480.4,128.5 L449.6,128.5 Z" />
        </g>
        <g id="Black-M" transform="translate(0,200)">
            <path d="M683.846,130.808 L682.273,134.563 C681.548,136.289 681.306,136.839 681.01,137.401 C680.721,137.949 680.508,138.234 680.298,138.415 C679.79,138.857 679.135,139.194 678.388,139.403 C677.721,139.588 676.714,139.636 672.401,139.636 L657.599,139.636 C653.289,139.636 652.278,139.588 651.6,139.4 C650.86,139.193 650.204,138.856 649.705,138.422 C649.495,138.24 649.283,137.957 648.997,137.416 C648.699,136.853 648.459,136.309 647.72,134.555 L646.155,130.81 C645.448,129.12 642.866,128.14 640.388,128.622 C637.909,129.103 636.472,130.864 637.179,132.554 L638.747,136.305 C639.557,138.229 639.819,138.823 640.217,139.576 C640.815,140.706 641.461,141.569 642.366,142.354 C643.863,143.653 645.831,144.666 648.076,145.292 C650.38,145.931 651.814,146 657.599,146 L672.401,146 C678.188,146 679.62,145.931 681.915,145.295 C684.17,144.665 686.136,143.652 687.632,142.351 C688.54,141.567 689.191,140.696 689.794,139.553 C690.189,138.803 690.453,138.202 691.247,136.312 L692.821,132.556 C693.528,130.866 692.093,129.105 689.615,128.622 C687.137,128.14 684.554,129.118 683.846,130.808 Z M692.821,89.444 L691.248,85.69 C690.453,83.798 690.189,83.197 689.794,82.447 C689.191,81.304 688.54,80.433 687.623,79.641 C686.136,78.348 684.17,77.335 681.927,76.709 C679.62,76.069 678.188,76 672.401,76 L657.599,76 C651.814,76 650.38,76.069 648.085,76.705 C645.831,77.334 643.863,78.347 642.364,79.648 C641.461,80.431 640.815,81.295 640.217,82.424 C639.819,83.177 639.557,83.771 638.749,85.688 L637.179,89.446 C636.472,91.136 637.909,92.897 640.388,93.378 C642.866,93.86 645.448,92.88 646.155,91.19 L647.723,87.439 C648.459,85.691 648.699,85.147 648.997,84.584 C649.283,84.043 649.495,83.76 649.703,83.58 C650.204,83.144 650.86,82.807 651.609,82.598 C652.278,82.412 653.289,82.364 657.599,82.364 L672.401,82.364 C676.714,82.364 677.721,82.412 678.4,82.6 C679.135,82.806 679.791,83.143 680.289,83.577 C680.508,83.766 680.721,84.051 681.01,84.599 C681.306,85.161 681.548,85.711 682.274,87.44 L683.846,91.192 C684.554,92.882 687.137,93.86 689.615,93.378 C692.093,92.895 693.528,91.134 692.821,89.444 Z M660.333,101.455 L660.333,111 C660.333,111.844 660.825,112.653 661.7,113.25 L668.7,118.023 C670.523,119.265 673.477,119.265 675.3,118.023 C677.122,116.78 677.122,114.765 675.3,113.523 L668.3,108.75 L669.667,111 L669.667,101.455 C669.667,99.697 667.577,98.273 665,98.273 C662.423,98.273 660.333,99.697 660.333,101.455 Z M649.6,134.864 L680.4,134.864 C687.871,134.864 689.645,134.765 692.355,133.823 C694.99,132.908 697.132,131.448 698.474,129.652 C699.855,127.803 700,126.594 700,121.5 L700,100.5 C700,95.406 699.855,94.197 698.474,92.349 C697.132,90.552 694.99,89.092 692.356,88.177 C689.645,87.235 687.871,87.136 680.4,87.136 L649.6,87.136 C642.129,87.136 640.355,87.235 637.645,88.177 C635.01,89.092 632.868,90.552 631.526,92.348 C630.145,94.197 630,95.406 630,100.5 L630,121.5 C630,126.594 630.145,127.803 631.526,129.651 C632.868,131.448 635.01,132.908 637.644,133.823 C640.355,134.765 642.129,134.864 649.6,134.864 Z M649.6,128.5 C644.004,128.5 642.665,128.425 641.881,128.153 C641.003,127.848 640.289,127.361 639.842,126.763 C639.443,126.228 639.333,125.315 639.333,121.5 L639.333,100.5 C639.333,96.685 639.443,95.772 639.842,95.237 C640.289,94.639 641.003,94.152 641.881,93.847 C642.665,93.575 644.004,93.5 649.6,93.5 L680.4,93.5 C685.996,93.5 687.335,93.575 688.119,93.847 C688.997,94.152 689.711,94.639 690.158,95.237 C690.557,95.772 690.667,96.685 690.667,100.5 L690.667,121.5 C690.667,125.315 690.557,126.228 690.158,126.763 C689.711,127.361 688.997,127.848 688.119,128.153 C687.335,128.425 685.996,128.5 680.4,128.5 L649.6,128.5 Z" />
        </g>
    </g>
</svg>