<?xml version="1.0" encoding="UTF-8"?>
<svg height="600" width="800" xmlns="http://www.w3.org/2000/svg" xmlns:xlink="http://www.w3.org/1999/xlink">
    <g id="Notes" font-family="LucidaGrande, 'Lucida Grande', sans-serif" font-size="13">
        <rect fill="white" height="600.0" width="800.0" x="0.0" y="0.0" />
        <g font-size="13">
            <text x="18.0" y="176.0">Small</text>
            <text x="18.0" y="376.0">Medium</text>
            <text x="18.0" y="576.0">Large</text>
        </g>
        <g font-size="9">
            <text x="250.0" y="30.0">Ultralight</text>
            <text x="450.0" y="30.0">Regular</text>
            <text x="650.0" y="30.0">Black</text>
            <text id="template-version" fill="#505050" text-anchor="end" x="785.0" y="575.0">Template v.3.0</text>
            <a href="https://github.com/swhitty/SwiftDraw">
                <text fill="#505050" text-anchor="end" x="785.0" y="590.0">https://github.com/swhitty/SwiftDraw</text>
            </a>
        </g>
    </g>
    <g id="Guides" stroke="rgb(39, 170, 225)" stroke-width="0.5">
        <path id="Capline-S" d="M18,76 l800,0" />
        <path id="H-reference" d="M85,145.755 L87.685,145.755 L113.369,79.287 L114.052,79.287 L114.052,76 L112.148,76 L85,145.755 Z M95.693,121.536 L130.996,121.536 L130.263,119.313 L96.474,119.313 L95.693,121.536 Z M139.15,145.755 L141.787,145.755 L114.638,76 L113.466,76 L113.466,79.287 L139.15,145.755 Z" stroke="none" transform="translate(0,200)" />
        <path id="Baseline-S" d="M18,146 l800,0" />
        <path id="left-margin-Ultralight-M" d="M230,256 l0,110" />
        <path id="right-margin-Ultralight-M" d="M300,256 l0,110" />
        <path id="left-margin-Regular-M" d="M430,256 l0,110" />
        <path id="right-margin-Regular-M" d="M500,256 l0,110" />
        <path id="left-margin-Black-M" d="M630,256 l0,110" />
        <path id="right-margin-Black-M" d="M700,256 l0,110" />
        <path id="Capline-M" d="M18,276 l800,0" />
        <path id="Baseline-M" d="M18,346 l800,0" />
        <path id="Capline-L" d="M18,476 l800,0" />
        <path id="Baseline-L" d="M18,546 l800,0" />
    </g>
    <g id="Symbols">
        <g id="Ultralight-M" transform="translate(0,200)">
            <path d="M265,131.417 C279.497,131.417 291.25,119.664 291.25,105.167 C291.25,90.669 279.497,78.917 265,78.917 C250.503,78.917 238.75,90.669 238.75,105.167 C238.75,119.664 250.503,131.417 265,131.417 Z M265,125.583 C253.724,125.583 244.583,116.442 244.583,105.167 C244.583,93.891 253.724,84.75 265,84.75 C276.276,84.75 285.417,93.891 285.417,105.167 C285.417,116.442 276.276,125.583 265,125.583 Z M262.083,128.5 L262.083,140.167 C262.083,141.777 263.389,143.083 265,143.083 C266.611,143.083 267.917,141.777 267.917,140.167 L267.917,128.5 C267.917,126.889 266.611,125.583 265,125.583 C263.389,125.583 262.083,126.889 262.083,128.5 Z M265,137.25 L250.417,137.25 C248.806,137.25 247.5,138.556 247.5,140.167 C247.5,141.777 248.806,143.083 250.417,143.083 L265,143.083 C266.611,143.083 267.917,141.777 267.917,140.167 C267.917,138.556 266.611,137.25 265,137.25 Z M265,143.083 L279.583,143.083 C281.194,143.083 282.5,141.777 282.5,140.167 C282.5,138.556 281.194,137.25 279.583,137.25 L265,137.25 C263.389,137.25 262.083,138.556 262.083,140.167 C262.083,141.777 263.389,143.083 265,143.083 Z M270.833,105.167 C270.833,108.388 268.222,111 265,111 C261.778,111 259.167,108.388 259.167,105.167 C259.167,101.945 261.778,99.333 265,99.333 C268.222,99.333 270.833,101.945 270.833,105.167 Z M276.667,105.167 C276.667,98.723 271.443,93.5 265,93.5 C258.557,93.5 253.333,98.723 253.333,105.167 C253.333,111.61 258.557,116.833 265,116.833 C271.443,116.833 276.667,111.61 276.667,105.167 Z" />
        </g>
        <g id="Regular-M" transform="translate(0,200)">
            <path d="M465,131.417 C479.497,131.417 491.25,119.664 491.25,105.167 C491.25,90.669 479.497,78.917 465,78.917 C450.503,78.917 438.75,90.669 438.75,105.167 C438.75,119.664 450.503,131.417 465,131.417 Z M465,125.583 C453.724,125.583 444.583,116.442 444.583,105.167 C444.583,93.891 453.724,84.75 465,84.75 C476.276,84.75 485.417,93.891 485.417,105.167 C485.417,116.442 476.276,125.583 465,125.583 Z M462.083,128.5 L462.083,140.167 C462.083,141.777 463.389,143.083 465,143.083 C466.611,143.083 467.917,141.777 467.917,140.167 L467.917,128.5 C467.917,126.889 466.611,125.583 465,125.583 C463.389,125.583 462.083,126.889 462.083,128.5 Z M465,137.25 L450.417,137.25 C448.806,137.25 447.5,138.556 447.5,140.167 C447.5,141.777 448.806,143.083 450.417,143.083 L465,143.083 C466.611,143.083 467.917,141.777 467.917,140.167 C467.917,138.556 466.611,137.25 465,137.25 Z M465,143.083 L479.583,143.083 C481.194,143.083 482.5,141.777 482.5,140.167 C482.5,138.556 481.194,137.25 479.583,137.25 L465,137.25 C463.389,137.25 462.083,138.556 462.083,140.167 C462.083,141.777 463.389,143.083 465,143.083 Z M470.833,105.167 C470.833,108.388 468.222,111 465,111 C461.778,111 459.167,108.388 459.167,105.167 C459.167,101.945 461.778,99.333 465,99.333 C468.222,99.333 470.833,101.945 470.833,105.167 Z M476.667,105.167 C476.667,98.723 471.443,93.5 465,93.5 C458.557,93.5 453.333,98.723 453.333,105.167 C453.333,111.61 458.557,116.833 465,116.833 C471.443,116.833 476.667,111.61 476.667,105.167 Z" />
        </g>
        <g id="Black-M" transform="translate(0,200)">
            <path d="M665,131.417 C679.497,131.417 691.25,119.664 691.25,105.167 C691.25,90.669 679.497,78.917 665,78.917 C650.503,78.917 638.75,90.669 638.75,105.167 C638.75,119.664 650.503,131.417 665,131.417 Z M665,125.583 C653.724,125.583 644.583,116.442 644.583,105.167 C644.583,93.891 653.724,84.75 665,84.75 C676.276,84.75 685.417,93.891 685.417,105.167 C685.417,116.442 676.276,125.583 665,125.583 Z M662.083,128.5 L662.083,140.167 C662.083,141.777 663.389,143.083 665,143.083 C666.611,143.083 667.917,141.777 667.917,140.167 L667.917,128.5 C667.917,126.889 666.611,125.583 665,125.583 C663.389,125.583 662.083,126.889 662.083,128.5 Z M665,137.25 L650.417,137.25 C648.806,137.25 647.5,138.556 647.5,140.167 C647.5,141.777 648.806,143.083 650.417,143.083 L665,143.083 C666.611,143.083 667.917,141.777 667.917,140.167 C667.917,138.556 666.611,137.25 665,137.25 Z M665,143.083 L679.583,143.083 C681.194,143.083 682.5,141.777 682.5,140.167 C682.5,138.556 681.194,137.25 679.583,137.25 L665,137.25 C663.389,137.25 662.083,138.556 662.083,140.167 C662.083,141.777 663.389,143.083 665,143.083 Z M670.833,105.167 C670.833,108.388 668.222,111 665,111 C661.778,111 659.167,108.388 659.167,105.167 C659.167,101.945 661.778,99.333 665,99.333 C668.222,99.333 670.833,101.945 670.833,105.167 Z M676.667,105.167 C676.667,98.723 671.443,93.5 665,93.5 C658.557,93.5 653.333,98.723 653.333,105.167 C653.333,111.61 658.557,116.833 665,116.833 C671.443,116.833 676.667,111.61 676.667,105.167 Z" />
        </g>
    </g>
</svg>