<?xml version="1.0" encoding="UTF-8"?>
<svg height="600" width="800" xmlns="http://www.w3.org/2000/svg" xmlns:xlink="http://www.w3.org/1999/xlink">
    <g id="Notes" font-family="LucidaGrande, 'Lucida Grande', sans-serif" font-size="13">
        <rect fill="white" height="600.0" width="800.0" x="0.0" y="0.0" />
        <g font-size="13">
            <text x="18.0" y="176.0">Small</text>
            <text x="18.0" y="376.0">Medium</text>
            <text x="18.0" y="576.0">Large</text>
        </g>
        <g font-size="9">
            <text x="250.0" y="30.0">Ultralight</text>
            <text x="450.0" y="30.0">Regular</text>
            <text x="650.0" y="30.0">Black</text>
            <text id="template-version" fill="#505050" text-anchor="end" x="785.0" y="575.0">Template v.3.0</text>
            <a href="https://github.com/swhitty/SwiftDraw">
                <text fill="#505050" text-anchor="end" x="785.0" y="590.0">https://github.com/swhitty/SwiftDraw</text>
            </a>
        </g>
    </g>
    <g id="Guides" stroke="rgb(39, 170, 225)" stroke-width="0.5">
        <path id="Capline-S" d="M18,76 l800,0" />
        <path id="H-reference" d="M85,145.755 L87.685,145.755 L113.369,79.287 L114.052,79.287 L114.052,76 L112.148,76 L85,145.755 Z M95.693,121.536 L130.996,121.536 L130.263,119.313 L96.474,119.313 L95.693,121.536 Z M139.15,145.755 L141.787,145.755 L114.638,76 L113.466,76 L113.466,79.287 L139.15,145.755 Z" stroke="none" transform="translate(0,200)" />
        <path id="Baseline-S" d="M18,146 l800,0" />
        <path id="left-margin-Ultralight-M" d="M221,256 l0,110" />
        <path id="right-margin-Ultralight-M" d="M309,256 l0,110" />
        <path id="left-margin-Regular-M" d="M421,256 l0,110" />
        <path id="right-margin-Regular-M" d="M509,256 l0,110" />
        <path id="left-margin-Black-M" d="M621,256 l0,110" />
        <path id="right-margin-Black-M" d="M709,256 l0,110" />
        <path id="Capline-M" d="M18,276 l800,0" />
        <path id="Baseline-M" d="M18,346 l800,0" />
        <path id="Capline-L" d="M18,476 l800,0" />
        <path id="Baseline-L" d="M18,546 l800,0" />
    </g>
    <g id="Symbols">
        <g id="Ultralight-M" transform="translate(0,200)">
            <path d="M276.805,95.305 L249.305,122.805 C248.232,123.879 248.232,125.621 249.305,126.695 C250.379,127.768 252.121,127.768 253.195,126.695 L280.695,99.195 C281.768,98.121 281.768,96.379 280.695,95.305 C279.621,94.232 277.879,94.232 276.805,95.305 Z M249.305,99.195 L276.805,126.695 C277.879,127.768 279.621,127.768 280.695,126.695 C281.768,125.621 281.768,123.879 280.695,122.805 L253.195,95.305 C252.121,94.232 250.379,94.232 249.305,95.305 C248.232,96.379 248.232,98.121 249.305,99.195 Z" />
        </g>
        <g id="Regular-M" transform="translate(0,200)">
            <path d="M476.805,95.305 L449.305,122.805 C448.232,123.879 448.232,125.621 449.305,126.695 C450.379,127.768 452.121,127.768 453.195,126.695 L480.695,99.195 C481.768,98.121 481.768,96.379 480.695,95.305 C479.621,94.232 477.879,94.232 476.805,95.305 Z M449.305,99.195 L476.805,126.695 C477.879,127.768 479.621,127.768 480.695,126.695 C481.768,125.621 481.768,123.879 480.695,122.805 L453.195,95.305 C452.121,94.232 450.379,94.232 449.305,95.305 C448.232,96.379 448.232,98.121 449.305,99.195 Z" />
        </g>
        <g id="Black-M" transform="translate(0,200)">
            <path d="M676.805,95.305 L649.305,122.805 C648.232,123.879 648.232,125.621 649.305,126.695 C650.379,127.768 652.121,127.768 653.195,126.695 L680.695,99.195 C681.768,98.121 681.768,96.379 680.695,95.305 C679.621,94.232 677.879,94.232 676.805,95.305 Z M649.305,99.195 L676.805,126.695 C677.879,127.768 679.621,127.768 680.695,126.695 C681.768,125.621 681.768,123.879 680.695,122.805 L653.195,95.305 C652.121,94.232 650.379,94.232 649.305,95.305 C648.232,96.379 648.232,98.121 649.305,99.195 Z" />
        </g>
    </g>
</svg>