<?xml version="1.0" encoding="UTF-8"?>
<svg height="600" width="800" xmlns="http://www.w3.org/2000/svg" xmlns:xlink="http://www.w3.org/1999/xlink">
    <g id="Notes" font-family="LucidaGrande, 'Lucida Grande', sans-serif" font-size="13">
        <rect fill="white" height="600.0" width="800.0" x="0.0" y="0.0" />
        <g font-size="13">
            <text x="18.0" y="176.0">Small</text>
            <text x="18.0" y="376.0">Medium</text>
            <text x="18.0" y="576.0">Large</text>
        </g>
        <g font-size="9">
            <text x="250.0" y="30.0">Ultralight</text>
            <text x="450.0" y="30.0">Regular</text>
            <text x="650.0" y="30.0">Black</text>
            <text id="template-version" fill="#505050" text-anchor="end" x="785.0" y="575.0">Template v.3.0</text>
            <a href="https://github.com/swhitty/SwiftDraw">
                <text fill="#505050" text-anchor="end" x="785.0" y="590.0">https://github.com/swhitty/SwiftDraw</text>
            </a>
        </g>
    </g>
    <g id="Guides" stroke="rgb(39, 170, 225)" stroke-width="0.5">
        <path id="Capline-S" d="M18,76 l800,0" />
        <path id="H-reference" d="M85,145.755 L87.685,145.755 L113.369,79.287 L114.052,79.287 L114.052,76 L112.148,76 L85,145.755 Z M95.693,121.536 L130.996,121.536 L130.263,119.313 L96.474,119.313 L95.693,121.536 Z M139.15,145.755 L141.787,145.755 L114.638,76 L113.466,76 L113.466,79.287 L139.15,145.755 Z" stroke="none" transform="translate(0,200)" />
        <path id="Baseline-S" d="M18,146 l800,0" />
        <path id="left-margin-Ultralight-M" d="M230,256 l0,110" />
        <path id="right-margin-Ultralight-M" d="M300,256 l0,110" />
        <path id="left-margin-Regular-M" d="M430,256 l0,110" />
        <path id="right-margin-Regular-M" d="M500,256 l0,110" />
        <path id="left-margin-Black-M" d="M630,256 l0,110" />
        <path id="right-margin-Black-M" d="M700,256 l0,110" />
        <path id="Capline-M" d="M18,276 l800,0" />
        <path id="Baseline-M" d="M18,346 l800,0" />
        <path id="Capline-L" d="M18,476 l800,0" />
        <path id="Baseline-L" d="M18,546 l800,0" />
    </g>
    <g id="Symbols">
        <g id="Ultralight-M" transform="translate(0,200)">
            <path d="M262.378,88.516 L247.621,109.983 C245.898,112.481 245.67,112.889 245.762,114.449 C245.826,115.815 246.507,117.117 247.621,117.972 C248.865,118.912 249.329,118.955 252.34,118.955 L265,118.955 L261.818,115.773 L261.818,131.682 C261.818,134.807 265.852,136.059 267.622,133.484 L282.379,112.017 C284.102,109.519 284.33,109.111 284.238,107.551 C284.174,106.185 283.493,104.883 282.379,104.028 C281.135,103.088 280.671,103.045 277.66,103.045 L265,103.045 L268.182,106.227 L268.182,90.318 C268.182,87.193 264.148,85.941 262.378,88.516 Z M267.622,92.121 L261.818,90.318 L261.818,106.227 C261.818,107.985 263.243,109.409 265,109.409 L277.66,109.409 C278.623,109.409 278.95,109.415 279.19,109.437 C279.113,109.43 278.884,109.363 278.523,109.09 C278.133,108.791 277.906,108.357 277.884,107.889 C277.858,107.456 277.936,107.216 277.98,107.138 C277.863,107.346 277.682,107.618 277.138,108.408 L262.378,129.879 L268.182,131.682 L268.182,115.773 C268.182,114.015 266.757,112.591 265,112.591 L252.34,112.591 C251.377,112.591 251.05,112.585 250.81,112.563 C250.887,112.57 251.116,112.637 251.477,112.91 C251.867,113.209 252.094,113.643 252.116,114.111 C252.142,114.544 252.064,114.784 252.02,114.862 C252.137,114.654 252.318,114.382 252.862,113.592 L267.622,92.121 Z" />
            <path d="M265,146 C284.33,146 300,130.33 300,111 C300,91.67 284.33,76 265,76 C245.67,76 230,91.67 230,111 C230,130.33 245.67,146 265,146 Z M265,139.636 C249.184,139.636 236.364,126.816 236.364,111 C236.364,95.184 249.184,82.364 265,82.364 C280.816,82.364 293.636,95.184 293.636,111 C293.636,126.816 280.816,139.636 265,139.636 Z" />
        </g>
        <g id="Regular-M" transform="translate(0,200)">
            <path d="M462.378,88.516 L447.621,109.983 C445.898,112.481 445.67,112.889 445.762,114.449 C445.826,115.815 446.507,117.117 447.621,117.972 C448.865,118.912 449.329,118.955 452.34,118.955 L465,118.955 L461.818,115.773 L461.818,131.682 C461.818,134.807 465.852,136.059 467.622,133.484 L482.379,112.017 C484.102,109.519 484.33,109.111 484.238,107.551 C484.174,106.185 483.493,104.883 482.379,104.028 C481.135,103.088 480.671,103.045 477.66,103.045 L465,103.045 L468.182,106.227 L468.182,90.318 C468.182,87.193 464.148,85.941 462.378,88.516 Z M467.622,92.121 L461.818,90.318 L461.818,106.227 C461.818,107.985 463.243,109.409 465,109.409 L477.66,109.409 C478.623,109.409 478.95,109.415 479.19,109.437 C479.113,109.43 478.884,109.363 478.523,109.09 C478.133,108.791 477.906,108.357 477.884,107.889 C477.858,107.456 477.936,107.216 477.98,107.138 C477.863,107.346 477.682,107.618 477.138,108.408 L462.378,129.879 L468.182,131.682 L468.182,115.773 C468.182,114.015 466.757,112.591 465,112.591 L452.34,112.591 C451.377,112.591 451.05,112.585 450.81,112.563 C450.887,112.57 451.116,112.637 451.477,112.91 C451.867,113.209 452.094,113.643 452.116,114.111 C452.142,114.544 452.064,114.784 452.02,114.862 C452.137,114.654 452.318,114.382 452.862,113.592 L467.622,92.121 Z" />
            <path d="M465,146 C484.33,146 500,130.33 500,111 C500,91.67 484.33,76 465,76 C445.67,76 430,91.67 430,111 C430,130.33 445.67,146 465,146 Z M465,139.636 C449.184,139.636 436.364,126.816 436.364,111 C436.364,95.184 449.184,82.364 465,82.364 C480.816,82.364 493.636,95.184 493.636,111 C493.636,126.816 480.816,139.636 465,139.636 Z" />
        </g>
        <g id="Black-M" transform="translate(0,200)">
            <path d="M662.378,88.516 L647.621,109.983 C645.898,112.481 645.67,112.889 645.762,114.449 C645.826,115.815 646.507,117.117 647.621,117.972 C648.865,118.912 649.329,118.955 652.34,118.955 L665,118.955 L661.818,115.773 L661.818,131.682 C661.818,134.807 665.852,136.059 667.622,133.484 L682.379,112.017 C684.102,109.519 684.33,109.111 684.238,107.551 C684.174,106.185 683.493,104.883 682.379,104.028 C681.135,103.088 680.671,103.045 677.66,103.045 L665,103.045 L668.182,106.227 L668.182,90.318 C668.182,87.193 664.148,85.941 662.378,88.516 Z M667.622,92.121 L661.818,90.318 L661.818,106.227 C661.818,107.985 663.243,109.409 665,109.409 L677.66,109.409 C678.623,109.409 678.95,109.415 679.19,109.437 C679.113,109.43 678.884,109.363 678.523,109.09 C678.133,108.791 677.906,108.357 677.884,107.889 C677.858,107.456 677.936,107.216 677.98,107.138 C677.863,107.346 677.682,107.618 677.138,108.408 L662.378,129.879 L668.182,131.682 L668.182,115.773 C668.182,114.015 666.757,112.591 665,112.591 L652.34,112.591 C651.377,112.591 651.05,112.585 650.81,112.563 C650.887,112.57 651.116,112.637 651.477,112.91 C651.867,113.209 652.094,113.643 652.116,114.111 C652.142,114.544 652.064,114.784 652.02,114.862 C652.137,114.654 652.318,114.382 652.862,113.592 L667.622,92.121 Z" />
            <path d="M665,146 C684.33,146 700,130.33 700,111 C700,91.67 684.33,76 665,76 C645.67,76 630,91.67 630,111 C630,130.33 645.67,146 665,146 Z M665,139.636 C649.184,139.636 636.364,126.816 636.364,111 C636.364,95.184 649.184,82.364 665,82.364 C680.816,82.364 693.636,95.184 693.636,111 C693.636,126.816 680.816,139.636 665,139.636 Z" />
        </g>
    </g>
</svg>