<?xml version="1.0" encoding="UTF-8"?>
<svg height="600" width="800" xmlns="http://www.w3.org/2000/svg" xmlns:xlink="http://www.w3.org/1999/xlink">
    <g id="Notes" font-family="LucidaGrande, 'Lucida Grande', sans-serif" font-size="13">
        <rect fill="white" height="600.0" width="800.0" x="0.0" y="0.0" />
        <g font-size="13">
            <text x="18.0" y="176.0">Small</text>
            <text x="18.0" y="376.0">Medium</text>
            <text x="18.0" y="576.0">Large</text>
        </g>
        <g font-size="9">
            <text x="250.0" y="30.0">Ultralight</text>
            <text x="450.0" y="30.0">Regular</text>
            <text x="650.0" y="30.0">Black</text>
            <text id="template-version" fill="#505050" text-anchor="end" x="785.0" y="575.0">Template v.3.0</text>
            <a href="https://github.com/swhitty/SwiftDraw">
                <text fill="#505050" text-anchor="end" x="785.0" y="590.0">https://github.com/swhitty/SwiftDraw</text>
            </a>
        </g>
    </g>
    <g id="Guides" stroke="rgb(39, 170, 225)" stroke-width="0.5">
        <path id="Capline-S" d="M18,76 l800,0" />
        <path id="H-reference" d="M85,145.755 L87.685,145.755 L113.369,79.287 L114.052,79.287 L114.052,76 L112.148,76 L85,145.755 Z M95.693,121.536 L130.996,121.536 L130.263,119.313 L96.474,119.313 L95.693,121.536 Z M139.15,145.755 L141.787,145.755 L114.638,76 L113.466,76 L113.466,79.287 L139.15,145.755 Z" stroke="none" transform="translate(0,200)" />
        <path id="Baseline-S" d="M18,146 l800,0" />
        <path id="left-margin-Ultralight-M" d="M230,256 l0,110" />
        <path id="right-margin-Ultralight-M" d="M300,256 l0,110" />
        <path id="left-margin-Regular-M" d="M430,256 l0,110" />
        <path id="right-margin-Regular-M" d="M500,256 l0,110" />
        <path id="left-margin-Black-M" d="M630,256 l0,110" />
        <path id="right-margin-Black-M" d="M700,256 l0,110" />
        <path id="Capline-M" d="M18,276 l800,0" />
        <path id="Baseline-M" d="M18,346 l800,0" />
        <path id="Capline-L" d="M18,476 l800,0" />
        <path id="Baseline-L" d="M18,546 l800,0" />
    </g>
    <g id="Symbols">
        <g id="Ultralight-M" transform="translate(0,200)">
            <path d="M265,135.792 L265.029,135.792 C266.64,135.792 267.946,134.486 267.946,132.875 C267.946,131.264 266.64,129.958 265.029,129.958 L265,129.958 C263.389,129.958 262.083,131.264 262.083,132.875 C262.083,134.486 263.389,135.792 265,135.792 Z M298.49,99.227 C289.355,90.837 277.399,86.19 264.996,86.208 C252.432,86.208 240.59,90.906 231.509,99.224 C230.322,100.312 230.241,102.157 231.329,103.345 C232.417,104.533 234.262,104.614 235.45,103.526 C243.465,96.183 253.906,92.042 265,92.042 C275.943,92.026 286.488,96.124 294.545,103.523 C295.731,104.613 297.576,104.534 298.666,103.348 C299.755,102.161 299.677,100.316 298.49,99.227 Z M245.732,113.895 C251.05,109.201 257.902,106.615 264.996,106.625 C272.098,106.615 278.95,109.201 284.268,113.895 C285.476,114.961 287.319,114.847 288.385,113.639 C289.451,112.431 289.336,110.588 288.128,109.522 C281.742,103.885 273.514,100.78 264.996,100.792 C256.486,100.779 248.257,103.885 241.871,109.522 C240.664,110.588 240.549,112.431 241.615,113.639 C242.681,114.847 244.524,114.961 245.732,113.895 Z M277.587,119.716 C273.996,116.897 269.561,115.368 264.996,115.375 C260.304,115.375 255.846,116.967 252.255,119.841 C250.997,120.848 250.793,122.683 251.8,123.941 C252.807,125.199 254.642,125.402 255.9,124.395 C258.465,122.342 261.641,121.208 265,121.208 C268.261,121.203 271.424,122.294 273.985,124.305 C275.252,125.299 277.085,125.078 278.08,123.811 C279.075,122.544 278.854,120.711 277.587,119.716 Z" />
        </g>
        <g id="Regular-M" transform="translate(0,200)">
            <path d="M465,135.792 L465.029,135.792 C466.64,135.792 467.946,134.486 467.946,132.875 C467.946,131.264 466.64,129.958 465.029,129.958 L465,129.958 C463.389,129.958 462.083,131.264 462.083,132.875 C462.083,134.486 463.389,135.792 465,135.792 Z M498.49,99.227 C489.355,90.837 477.399,86.19 464.996,86.208 C452.432,86.208 440.59,90.906 431.509,99.224 C430.322,100.312 430.241,102.157 431.329,103.345 C432.417,104.533 434.262,104.614 435.45,103.526 C443.465,96.183 453.906,92.042 465,92.042 C475.943,92.026 486.488,96.124 494.545,103.523 C495.731,104.613 497.576,104.534 498.666,103.348 C499.755,102.161 499.677,100.316 498.49,99.227 Z M445.732,113.895 C451.05,109.201 457.902,106.615 464.996,106.625 C472.098,106.615 478.95,109.201 484.268,113.895 C485.476,114.961 487.319,114.847 488.385,113.639 C489.451,112.431 489.336,110.588 488.128,109.522 C481.742,103.885 473.514,100.78 464.996,100.792 C456.486,100.779 448.257,103.885 441.871,109.522 C440.664,110.588 440.549,112.431 441.615,113.639 C442.681,114.847 444.524,114.961 445.732,113.895 Z M477.587,119.716 C473.996,116.897 469.561,115.368 464.996,115.375 C460.304,115.375 455.846,116.967 452.255,119.841 C450.997,120.848 450.793,122.683 451.8,123.941 C452.807,125.199 454.642,125.402 455.9,124.395 C458.465,122.342 461.641,121.208 465,121.208 C468.261,121.203 471.424,122.294 473.985,124.305 C475.252,125.299 477.085,125.078 478.08,123.811 C479.075,122.544 478.854,120.711 477.587,119.716 Z" />
        </g>
        <g id="Black-M" transform="translate(0,200)">
            <path d="M665,135.792 L665.029,135.792 C666.64,135.792 667.946,134.486 667.946,132.875 C667.946,131.264 666.64,129.958 665.029,129.958 L665,129.958 C663.389,129.958 662.083,131.264 662.083,132.875 C662.083,134.486 663.389,135.792 665,135.792 Z M698.49,99.227 C689.355,90.837 677.399,86.19 664.996,86.208 C652.432,86.208 640.59,90.906 631.509,99.224 C630.322,100.312 630.241,102.157 631.329,103.345 C632.417,104.533 634.262,104.614 635.45,103.526 C643.465,96.183 653.906,92.042 665,92.042 C675.943,92.026 686.488,96.124 694.545,103.523 C695.731,104.613 697.576,104.534 698.666,103.348 C699.755,102.161 699.677,100.316 698.49,99.227 Z M645.732,113.895 C651.05,109.201 657.902,106.615 664.996,106.625 C672.098,106.615 678.95,109.201 684.268,113.895 C685.476,114.961 687.319,114.847 688.385,113.639 C689.451,112.431 689.336,110.588 688.128,109.522 C681.742,103.885 673.514,100.78 664.996,100.792 C656.486,100.779 648.257,103.885 641.871,109.522 C640.664,110.588 640.549,112.431 641.615,113.639 C642.681,114.847 644.524,114.961 645.732,113.895 Z M677.587,119.716 C673.996,116.897 669.561,115.368 664.996,115.375 C660.304,115.375 655.846,116.967 652.255,119.841 C650.997,120.848 650.793,122.683 651.8,123.941 C652.807,125.199 654.642,125.402 655.9,124.395 C658.465,122.342 661.641,121.208 665,121.208 C668.261,121.203 671.424,122.294 673.985,124.305 C675.252,125.299 677.085,125.078 678.08,123.811 C679.075,122.544 678.854,120.711 677.587,119.716 Z" />
        </g>
    </g>
</svg>