<?xml version="1.0" encoding="UTF-8"?>
<svg height="600" width="800" xmlns="http://www.w3.org/2000/svg" xmlns:xlink="http://www.w3.org/1999/xlink">
    <g id="Notes" font-family="LucidaGrande, 'Lucida Grande', sans-serif" font-size="13">
        <rect fill="white" height="600.0" width="800.0" x="0.0" y="0.0" />
        <g font-size="13">
            <text x="18.0" y="176.0">Small</text>
            <text x="18.0" y="376.0">Medium</text>
            <text x="18.0" y="576.0">Large</text>
        </g>
        <g font-size="9">
            <text x="250.0" y="30.0">Ultralight</text>
            <text x="450.0" y="30.0">Regular</text>
            <text x="650.0" y="30.0">Black</text>
            <text id="template-version" fill="#505050" text-anchor="end" x="785.0" y="575.0">Template v.3.0</text>
            <a href="https://github.com/swhitty/SwiftDraw">
                <text fill="#505050" text-anchor="end" x="785.0" y="590.0">https://github.com/swhitty/SwiftDraw</text>
            </a>
        </g>
    </g>
    <g id="Guides" stroke="rgb(39, 170, 225)" stroke-width="0.5">
        <path id="Capline-S" d="M18,76 l800,0" />
        <path id="H-reference" d="M85,145.755 L87.685,145.755 L113.369,79.287 L114.052,79.287 L114.052,76 L112.148,76 L85,145.755 Z M95.693,121.536 L130.996,121.536 L130.263,119.313 L96.474,119.313 L95.693,121.536 Z M139.15,145.755 L141.787,145.755 L114.638,76 L113.466,76 L113.466,79.287 L139.15,145.755 Z" stroke="none" transform="translate(0,200)" />
        <path id="Baseline-S" d="M18,146 l800,0" />
        <path id="left-margin-Ultralight-M" d="M230,256 l0,110" />
        <path id="right-margin-Ultralight-M" d="M300,256 l0,110" />
        <path id="left-margin-Regular-M" d="M430,256 l0,110" />
        <path id="right-margin-Regular-M" d="M500,256 l0,110" />
        <path id="left-margin-Black-M" d="M630,256 l0,110" />
        <path id="right-margin-Black-M" d="M700,256 l0,110" />
        <path id="Capline-M" d="M18,276 l800,0" />
        <path id="Baseline-M" d="M18,346 l800,0" />
        <path id="Capline-L" d="M18,476 l800,0" />
        <path id="Baseline-L" d="M18,546 l800,0" />
    </g>
    <g id="Symbols">
        <g id="Ultralight-M" transform="translate(0,200)">
            <path d="M300,126.909 L300,114.182 C300,94.851 284.33,79.182 265,79.182 C245.67,79.182 230,94.851 230,114.182 L230,126.909 C230,128.666 231.425,130.091 233.182,130.091 C234.939,130.091 236.364,128.666 236.364,126.909 L236.364,114.182 C236.364,98.366 249.184,85.545 265,85.545 C280.816,85.545 293.636,98.366 293.636,114.182 L293.636,126.909 C293.636,128.666 295.061,130.091 296.818,130.091 C298.575,130.091 300,128.666 300,126.909 Z M250.682,136.455 C249.416,136.455 248.202,135.952 247.307,135.057 C246.412,134.162 245.909,132.948 245.909,131.682 L245.909,122.136 C245.909,119.5 248.046,117.364 250.682,117.364 C253.318,117.364 255.455,119.5 255.455,122.136 L255.455,131.682 C255.455,132.948 254.952,134.162 254.057,135.057 C253.162,135.952 251.948,136.455 250.682,136.455 Z M250.682,142.818 C253.635,142.818 256.468,141.645 258.556,139.556 C260.645,137.468 261.818,134.635 261.818,131.682 L261.818,122.136 C261.818,115.986 256.832,111 250.682,111 C244.531,111 239.545,115.986 239.545,122.136 L239.545,131.682 C239.545,134.635 240.719,137.468 242.807,139.556 C244.896,141.645 247.728,142.818 250.682,142.818 Z M279.318,136.455 C278.052,136.455 276.838,135.952 275.943,135.057 C275.048,134.162 274.545,132.948 274.545,131.682 L274.545,122.136 C274.545,119.5 276.682,117.364 279.318,117.364 C281.954,117.364 284.091,119.5 284.091,122.136 L284.091,131.682 C284.091,132.948 283.588,134.162 282.693,135.057 C281.798,135.952 280.584,136.455 279.318,136.455 Z M279.318,142.818 C282.272,142.818 285.104,141.645 287.193,139.556 C289.281,137.468 290.455,134.635 290.455,131.682 L290.455,122.136 C290.455,115.986 285.469,111 279.318,111 C273.168,111 268.182,115.986 268.182,122.136 L268.182,131.682 C268.182,134.635 269.355,137.468 271.444,139.556 C273.532,141.645 276.365,142.818 279.318,142.818 Z" />
        </g>
        <g id="Regular-M" transform="translate(0,200)">
            <path d="M500,126.909 L500,114.182 C500,94.851 484.33,79.182 465,79.182 C445.67,79.182 430,94.851 430,114.182 L430,126.909 C430,128.666 431.425,130.091 433.182,130.091 C434.939,130.091 436.364,128.666 436.364,126.909 L436.364,114.182 C436.364,98.366 449.184,85.545 465,85.545 C480.816,85.545 493.636,98.366 493.636,114.182 L493.636,126.909 C493.636,128.666 495.061,130.091 496.818,130.091 C498.575,130.091 500,128.666 500,126.909 Z M450.682,136.455 C449.416,136.455 448.202,135.952 447.307,135.057 C446.412,134.162 445.909,132.948 445.909,131.682 L445.909,122.136 C445.909,119.5 448.046,117.364 450.682,117.364 C453.318,117.364 455.455,119.5 455.455,122.136 L455.455,131.682 C455.455,132.948 454.952,134.162 454.057,135.057 C453.162,135.952 451.948,136.455 450.682,136.455 Z M450.682,142.818 C453.635,142.818 456.468,141.645 458.556,139.556 C460.645,137.468 461.818,134.635 461.818,131.682 L461.818,122.136 C461.818,115.986 456.832,111 450.682,111 C444.531,111 439.545,115.986 439.545,122.136 L439.545,131.682 C439.545,134.635 440.719,137.468 442.807,139.556 C444.896,141.645 447.728,142.818 450.682,142.818 Z M479.318,136.455 C478.052,136.455 476.838,135.952 475.943,135.057 C475.048,134.162 474.545,132.948 474.545,131.682 L474.545,122.136 C474.545,119.5 476.682,117.364 479.318,117.364 C481.954,117.364 484.091,119.5 484.091,122.136 L484.091,131.682 C484.091,132.948 483.588,134.162 482.693,135.057 C481.798,135.952 480.584,136.455 479.318,136.455 Z M479.318,142.818 C482.272,142.818 485.104,141.645 487.193,139.556 C489.281,137.468 490.455,134.635 490.455,131.682 L490.455,122.136 C490.455,115.986 485.469,111 479.318,111 C473.168,111 468.182,115.986 468.182,122.136 L468.182,131.682 C468.182,134.635 469.355,137.468 471.444,139.556 C473.532,141.645 476.365,142.818 479.318,142.818 Z" />
        </g>
        <g id="Black-M" transform="translate(0,200)">
            <path d="M700,126.909 L700,114.182 C700,94.851 684.33,79.182 665,79.182 C645.67,79.182 630,94.851 630,114.182 L630,126.909 C630,128.666 631.425,130.091 633.182,130.091 C634.939,130.091 636.364,128.666 636.364,126.909 L636.364,114.182 C636.364,98.366 649.184,85.545 665,85.545 C680.816,85.545 693.636,98.366 693.636,114.182 L693.636,126.909 C693.636,128.666 695.061,130.091 696.818,130.091 C698.575,130.091 700,128.666 700,126.909 Z M650.682,136.455 C649.416,136.455 648.202,135.952 647.307,135.057 C646.412,134.162 645.909,132.948 645.909,131.682 L645.909,122.136 C645.909,119.5 648.046,117.364 650.682,117.364 C653.318,117.364 655.455,119.5 655.455,122.136 L655.455,131.682 C655.455,132.948 654.952,134.162 654.057,135.057 C653.162,135.952 651.948,136.455 650.682,136.455 Z M650.682,142.818 C653.635,142.818 656.468,141.645 658.556,139.556 C660.645,137.468 661.818,134.635 661.818,131.682 L661.818,122.136 C661.818,115.986 656.832,111 650.682,111 C644.531,111 639.545,115.986 639.545,122.136 L639.545,131.682 C639.545,134.635 640.719,137.468 642.807,139.556 C644.896,141.645 647.728,142.818 650.682,142.818 Z M679.318,136.455 C678.052,136.455 676.838,135.952 675.943,135.057 C675.048,134.162 674.545,132.948 674.545,131.682 L674.545,122.136 C674.545,119.5 676.682,117.364 679.318,117.364 C681.954,117.364 684.091,119.5 684.091,122.136 L684.091,131.682 C684.091,132.948 683.588,134.162 682.693,135.057 C681.798,135.952 680.584,136.455 679.318,136.455 Z M679.318,142.818 C682.272,142.818 685.104,141.645 687.193,139.556 C689.281,137.468 690.455,134.635 690.455,131.682 L690.455,122.136 C690.455,115.986 685.469,111 679.318,111 C673.168,111 668.182,115.986 668.182,122.136 L668.182,131.682 C668.182,134.635 669.355,137.468 671.444,139.556 C673.532,141.645 676.365,142.818 679.318,142.818 Z" />
        </g>
    </g>
</svg>