<?xml version="1.0" encoding="UTF-8"?>
<svg height="600" width="800" xmlns="http://www.w3.org/2000/svg" xmlns:xlink="http://www.w3.org/1999/xlink">
    <g id="Notes" font-family="LucidaGrande, 'Lucida Grande', sans-serif" font-size="13">
        <rect fill="white" height="600.0" width="800.0" x="0.0" y="0.0" />
        <g font-size="13">
            <text x="18.0" y="176.0">Small</text>
            <text x="18.0" y="376.0">Medium</text>
            <text x="18.0" y="576.0">Large</text>
        </g>
        <g font-size="9">
            <text x="250.0" y="30.0">Ultralight</text>
            <text x="450.0" y="30.0">Regular</text>
            <text x="650.0" y="30.0">Black</text>
            <text id="template-version" fill="#505050" text-anchor="end" x="785.0" y="575.0">Template v.3.0</text>
            <a href="https://github.com/swhitty/SwiftDraw">
                <text fill="#505050" text-anchor="end" x="785.0" y="590.0">https://github.com/swhitty/SwiftDraw</text>
            </a>
        </g>
    </g>
    <g id="Guides" stroke="rgb(39, 170, 225)" stroke-width="0.5">
        <path id="Capline-S" d="M18,76 l800,0" />
        <path id="H-reference" d="M85,145.755 L87.685,145.755 L113.369,79.287 L114.052,79.287 L114.052,76 L112.148,76 L85,145.755 Z M95.693,121.536 L130.996,121.536 L130.263,119.313 L96.474,119.313 L95.693,121.536 Z M139.15,145.755 L141.787,145.755 L114.638,76 L113.466,76 L113.466,79.287 L139.15,145.755 Z" stroke="none" transform="translate(0,200)" />
        <path id="Baseline-S" d="M18,146 l800,0" />
        <path id="left-margin-Ultralight-M" d="M230,256 l0,110" />
        <path id="right-margin-Ultralight-M" d="M300,256 l0,110" />
        <path id="left-margin-Regular-M" d="M430,256 l0,110" />
        <path id="right-margin-Regular-M" d="M500,256 l0,110" />
        <path id="left-margin-Black-M" d="M630,256 l0,110" />
        <path id="right-margin-Black-M" d="M700,256 l0,110" />
        <path id="Capline-M" d="M18,276 l800,0" />
        <path id="Baseline-M" d="M18,346 l800,0" />
        <path id="Capline-L" d="M18,476 l800,0" />
        <path id="Baseline-L" d="M18,546 l800,0" />
    </g>
    <g id="Symbols">
        <g id="Ultralight-M" transform="translate(0,200)">
            <path d="M275.208,106.625 L272.292,106.625 C271.187,106.625 270.177,107.249 269.683,108.237 L265.308,116.987 L270.684,117.369 L264.85,99.869 C264.029,97.404 260.637,97.163 259.475,99.487 L255.1,108.237 L257.708,106.625 L254.792,106.625 C253.181,106.625 251.875,107.931 251.875,109.542 C251.875,111.152 253.181,112.458 254.792,112.458 L257.708,112.458 C258.813,112.458 259.823,111.834 260.317,110.846 L264.692,102.096 L259.316,101.714 L265.15,119.214 C265.971,121.679 269.363,121.92 270.525,119.596 L274.9,110.846 L272.292,112.458 L275.208,112.458 C276.819,112.458 278.125,111.152 278.125,109.542 C278.125,107.931 276.819,106.625 275.208,106.625 Z M267.196,89.084 C260.084,80.771 248.521,79.266 240.224,86.353 C231.773,93.573 230.491,105.77 237.22,114.424 C240.89,119.149 249.63,127.485 259.99,136.728 C261.695,138.25 262.168,138.608 263.303,138.95 C264.388,139.274 265.568,139.274 266.651,138.952 C267.794,138.607 268.265,138.25 269.97,136.728 C280.327,127.487 289.069,119.149 292.742,114.423 C299.51,105.714 298.269,93.444 289.708,86.328 C281.279,79.324 269.851,80.794 262.763,89.085 L267.196,89.084 Z M262.763,92.876 C263.928,94.237 266.032,94.237 267.196,92.875 C272.281,86.929 280.094,85.924 285.979,90.814 C292.105,95.906 292.985,104.605 288.136,110.844 C284.776,115.167 276.119,123.424 266.086,132.376 C265.152,133.209 264.929,133.379 264.977,133.364 C264.992,133.359 264.97,133.359 264.978,133.362 C265.029,133.377 264.807,133.209 263.874,132.376 C253.839,123.422 245.184,115.167 241.826,110.844 C237.015,104.656 237.926,95.989 244.013,90.788 C249.754,85.884 257.663,86.914 262.763,92.876 Z" />
        </g>
        <g id="Regular-M" transform="translate(0,200)">
            <path d="M475.208,106.625 L472.292,106.625 C471.187,106.625 470.177,107.249 469.683,108.237 L465.308,116.987 L470.684,117.369 L464.85,99.869 C464.029,97.404 460.637,97.163 459.475,99.487 L455.1,108.237 L457.708,106.625 L454.792,106.625 C453.181,106.625 451.875,107.931 451.875,109.542 C451.875,111.152 453.181,112.458 454.792,112.458 L457.708,112.458 C458.813,112.458 459.823,111.834 460.317,110.846 L464.692,102.096 L459.316,101.714 L465.15,119.214 C465.971,121.679 469.363,121.92 470.525,119.596 L474.9,110.846 L472.292,112.458 L475.208,112.458 C476.819,112.458 478.125,111.152 478.125,109.542 C478.125,107.931 476.819,106.625 475.208,106.625 Z M467.196,89.084 C460.084,80.771 448.521,79.266 440.224,86.353 C431.773,93.573 430.491,105.77 437.22,114.424 C440.89,119.149 449.63,127.485 459.99,136.728 C461.695,138.25 462.168,138.608 463.303,138.95 C464.388,139.274 465.568,139.274 466.651,138.952 C467.794,138.607 468.265,138.25 469.97,136.728 C480.327,127.487 489.069,119.149 492.742,114.423 C499.51,105.714 498.269,93.444 489.708,86.328 C481.279,79.324 469.851,80.794 462.763,89.085 L467.196,89.084 Z M462.763,92.876 C463.928,94.237 466.032,94.237 467.196,92.875 C472.281,86.929 480.094,85.924 485.979,90.814 C492.105,95.906 492.985,104.605 488.136,110.844 C484.776,115.167 476.119,123.424 466.086,132.376 C465.152,133.209 464.929,133.379 464.977,133.364 C464.992,133.359 464.97,133.359 464.978,133.362 C465.029,133.377 464.807,133.209 463.874,132.376 C453.839,123.422 445.184,115.167 441.826,110.844 C437.015,104.656 437.926,95.989 444.013,90.788 C449.754,85.884 457.663,86.914 462.763,92.876 Z" />
        </g>
        <g id="Black-M" transform="translate(0,200)">
            <path d="M675.208,106.625 L672.292,106.625 C671.187,106.625 670.177,107.249 669.683,108.237 L665.308,116.987 L670.684,117.369 L664.85,99.869 C664.029,97.404 660.637,97.163 659.475,99.487 L655.1,108.237 L657.708,106.625 L654.792,106.625 C653.181,106.625 651.875,107.931 651.875,109.542 C651.875,111.152 653.181,112.458 654.792,112.458 L657.708,112.458 C658.813,112.458 659.823,111.834 660.317,110.846 L664.692,102.096 L659.316,101.714 L665.15,119.214 C665.971,121.679 669.363,121.92 670.525,119.596 L674.9,110.846 L672.292,112.458 L675.208,112.458 C676.819,112.458 678.125,111.152 678.125,109.542 C678.125,107.931 676.819,106.625 675.208,106.625 Z M667.196,89.084 C660.084,80.771 648.521,79.266 640.224,86.353 C631.773,93.573 630.491,105.77 637.22,114.424 C640.89,119.149 649.63,127.485 659.99,136.728 C661.695,138.25 662.168,138.608 663.303,138.95 C664.388,139.274 665.568,139.274 666.651,138.952 C667.794,138.607 668.265,138.25 669.97,136.728 C680.327,127.487 689.069,119.149 692.742,114.423 C699.51,105.714 698.269,93.444 689.708,86.328 C681.279,79.324 669.851,80.794 662.763,89.085 L667.196,89.084 Z M662.763,92.876 C663.928,94.237 666.032,94.237 667.196,92.875 C672.281,86.929 680.094,85.924 685.979,90.814 C692.105,95.906 692.985,104.605 688.136,110.844 C684.776,115.167 676.119,123.424 666.086,132.376 C665.152,133.209 664.929,133.379 664.977,133.364 C664.992,133.359 664.97,133.359 664.978,133.362 C665.029,133.377 664.807,133.209 663.874,132.376 C653.839,123.422 645.184,115.167 641.826,110.844 C637.015,104.656 637.926,95.989 644.013,90.788 C649.754,85.884 657.663,86.914 662.763,92.876 Z" />
        </g>
    </g>
</svg>