<?xml version="1.0" encoding="UTF-8"?>
<svg height="600" width="800" xmlns="http://www.w3.org/2000/svg" xmlns:xlink="http://www.w3.org/1999/xlink">
    <g id="Notes" font-family="LucidaGrande, 'Lucida Grande', sans-serif" font-size="13">
        <rect fill="white" height="600.0" width="800.0" x="0.0" y="0.0" />
        <g font-size="13">
            <text x="18.0" y="176.0">Small</text>
            <text x="18.0" y="376.0">Medium</text>
            <text x="18.0" y="576.0">Large</text>
        </g>
        <g font-size="9">
            <text x="250.0" y="30.0">Ultralight</text>
            <text x="450.0" y="30.0">Regular</text>
            <text x="650.0" y="30.0">Black</text>
            <text id="template-version" fill="#505050" text-anchor="end" x="785.0" y="575.0">Template v.3.0</text>
            <a href="https://github.com/swhitty/SwiftDraw">
                <text fill="#505050" text-anchor="end" x="785.0" y="590.0">https://github.com/swhitty/SwiftDraw</text>
            </a>
        </g>
    </g>
    <g id="Guides" stroke="rgb(39, 170, 225)" stroke-width="0.5">
        <path id="Capline-S" d="M18,76 l800,0" />
        <path id="H-reference" d="M85,145.755 L87.685,145.755 L113.369,79.287 L114.052,79.287 L114.052,76 L112.148,76 L85,145.755 Z M95.693,121.536 L130.996,121.536 L130.263,119.313 L96.474,119.313 L95.693,121.536 Z M139.15,145.755 L141.787,145.755 L114.638,76 L113.466,76 L113.466,79.287 L139.15,145.755 Z" stroke="none" transform="translate(0,200)" />
        <path id="Baseline-S" d="M18,146 l800,0" />
        <path id="left-margin-Ultralight-M" d="M221,256 l0,110" />
        <path id="right-margin-Ultralight-M" d="M309,256 l0,110" />
        <path id="left-margin-Regular-M" d="M421,256 l0,110" />
        <path id="right-margin-Regular-M" d="M509,256 l0,110" />
        <path id="left-margin-Black-M" d="M621,256 l0,110" />
        <path id="right-margin-Black-M" d="M709,256 l0,110" />
        <path id="Capline-M" d="M18,276 l800,0" />
        <path id="Baseline-M" d="M18,346 l800,0" />
        <path id="Capline-L" d="M18,476 l800,0" />
        <path id="Baseline-L" d="M18,546 l800,0" />
    </g>
    <g id="Symbols">
        <g id="Ultralight-M" transform="translate(0,200)">
            <path d="M249.6,122 C249.6,123.061 249.605,123.32 249.647,123.725 C250.029,127.439 252.717,130.51 256.352,131.38 C256.747,131.474 257.003,131.513 258.055,131.652 L272.554,133.588 C278.202,134.34 279.532,134.403 281.452,133.638 C283.325,132.894 284.888,131.527 285.876,129.767 C286.886,127.962 287,126.637 287,120.937 L287,101.06 C287,95.361 286.886,94.035 285.876,92.234 C284.888,90.473 283.325,89.106 281.45,88.361 C279.531,87.597 278.194,87.66 272.553,88.414 L258.052,90.346 C257.316,90.445 257.136,90.47 256.876,90.514 C256.684,90.547 256.514,90.581 256.348,90.621 C252.717,91.49 250.029,94.561 249.647,98.279 C249.605,98.679 249.6,98.939 249.6,100 C249.6,101.215 250.585,102.2 251.8,102.2 C253.015,102.2 254,101.215 254,100 C254,99.131 254.004,98.917 254.023,98.733 C254.215,96.87 255.559,95.334 257.376,94.899 C257.441,94.884 257.514,94.869 257.613,94.852 C257.8,94.821 257.969,94.797 258.636,94.707 L273.136,92.776 C277.802,92.151 278.94,92.098 279.823,92.45 C280.764,92.823 281.545,93.506 282.039,94.386 C282.503,95.214 282.6,96.347 282.6,101.06 L282.6,120.937 C282.6,125.653 282.503,126.785 282.038,127.615 C281.545,128.493 280.764,129.177 279.826,129.549 C278.941,129.902 277.806,129.849 273.136,129.226 L258.634,127.29 C257.769,127.176 257.559,127.144 257.378,127.101 C255.559,126.666 254.215,125.13 254.024,123.271 C254.004,123.083 254,122.87 254,122 C254,120.785 253.015,119.8 251.8,119.8 C250.585,119.8 249.6,120.785 249.6,122 Z M263.444,103.756 L272.244,112.556 C273.104,113.415 274.496,113.415 275.356,112.556 C276.215,111.696 276.215,110.303 275.356,109.444 L266.556,100.644 C265.696,99.785 264.304,99.785 263.444,100.644 C262.585,101.503 262.585,102.896 263.444,103.756 Z M272.244,109.444 L263.444,118.244 C262.585,119.103 262.585,120.496 263.444,121.356 C264.304,122.215 265.696,122.215 266.556,121.356 L275.356,112.556 C276.215,111.696 276.215,110.303 275.356,109.444 C274.496,108.585 273.104,108.585 272.244,109.444 Z M273.8,108.8 L245.2,108.8 C243.985,108.8 243,109.785 243,111 C243,112.215 243.985,113.2 245.2,113.2 L273.8,113.2 C275.015,113.2 276,112.215 276,111 C276,109.785 275.015,108.8 273.8,108.8 Z" />
        </g>
        <g id="Regular-M" transform="translate(0,200)">
            <path d="M449.6,122 C449.6,123.061 449.605,123.32 449.647,123.725 C450.029,127.439 452.717,130.51 456.352,131.38 C456.747,131.474 457.003,131.513 458.055,131.652 L472.554,133.588 C478.202,134.34 479.532,134.403 481.452,133.638 C483.325,132.894 484.888,131.527 485.876,129.767 C486.886,127.962 487,126.637 487,120.937 L487,101.06 C487,95.361 486.886,94.035 485.876,92.234 C484.888,90.473 483.325,89.106 481.45,88.361 C479.531,87.597 478.194,87.66 472.553,88.414 L458.052,90.346 C457.316,90.445 457.136,90.47 456.876,90.514 C456.684,90.547 456.514,90.581 456.348,90.621 C452.717,91.49 450.029,94.561 449.647,98.279 C449.605,98.679 449.6,98.939 449.6,100 C449.6,101.215 450.585,102.2 451.8,102.2 C453.015,102.2 454,101.215 454,100 C454,99.131 454.004,98.917 454.023,98.733 C454.215,96.87 455.559,95.334 457.376,94.899 C457.441,94.884 457.514,94.869 457.613,94.852 C457.8,94.821 457.969,94.797 458.636,94.707 L473.136,92.776 C477.802,92.151 478.94,92.098 479.823,92.45 C480.764,92.823 481.545,93.506 482.039,94.386 C482.503,95.214 482.6,96.347 482.6,101.06 L482.6,120.937 C482.6,125.653 482.503,126.785 482.038,127.615 C481.545,128.493 480.764,129.177 479.826,129.549 C478.941,129.902 477.806,129.849 473.136,129.226 L458.634,127.29 C457.769,127.176 457.559,127.144 457.378,127.101 C455.559,126.666 454.215,125.13 454.024,123.271 C454.004,123.083 454,122.87 454,122 C454,120.785 453.015,119.8 451.8,119.8 C450.585,119.8 449.6,120.785 449.6,122 Z M463.444,103.756 L472.244,112.556 C473.104,113.415 474.496,113.415 475.356,112.556 C476.215,111.696 476.215,110.303 475.356,109.444 L466.556,100.644 C465.696,99.785 464.304,99.785 463.444,100.644 C462.585,101.503 462.585,102.896 463.444,103.756 Z M472.244,109.444 L463.444,118.244 C462.585,119.103 462.585,120.496 463.444,121.356 C464.304,122.215 465.696,122.215 466.556,121.356 L475.356,112.556 C476.215,111.696 476.215,110.303 475.356,109.444 C474.496,108.585 473.104,108.585 472.244,109.444 Z M473.8,108.8 L445.2,108.8 C443.985,108.8 443,109.785 443,111 C443,112.215 443.985,113.2 445.2,113.2 L473.8,113.2 C475.015,113.2 476,112.215 476,111 C476,109.785 475.015,108.8 473.8,108.8 Z" />
        </g>
        <g id="Black-M" transform="translate(0,200)">
            <path d="M649.6,122 C649.6,123.061 649.605,123.32 649.647,123.725 C650.029,127.439 652.717,130.51 656.352,131.38 C656.747,131.474 657.003,131.513 658.055,131.652 L672.554,133.588 C678.202,134.34 679.532,134.403 681.452,133.638 C683.325,132.894 684.888,131.527 685.876,129.767 C686.886,127.962 687,126.637 687,120.937 L687,101.06 C687,95.361 686.886,94.035 685.876,92.234 C684.888,90.473 683.325,89.106 681.45,88.361 C679.531,87.597 678.194,87.66 672.553,88.414 L658.052,90.346 C657.316,90.445 657.136,90.47 656.876,90.514 C656.684,90.547 656.514,90.581 656.348,90.621 C652.717,91.49 650.029,94.561 649.647,98.279 C649.605,98.679 649.6,98.939 649.6,100 C649.6,101.215 650.585,102.2 651.8,102.2 C653.015,102.2 654,101.215 654,100 C654,99.131 654.004,98.917 654.023,98.733 C654.215,96.87 655.559,95.334 657.376,94.899 C657.441,94.884 657.514,94.869 657.613,94.852 C657.8,94.821 657.969,94.797 658.636,94.707 L673.136,92.776 C677.802,92.151 678.94,92.098 679.823,92.45 C680.764,92.823 681.545,93.506 682.039,94.386 C682.503,95.214 682.6,96.347 682.6,101.06 L682.6,120.937 C682.6,125.653 682.503,126.785 682.038,127.615 C681.545,128.493 680.764,129.177 679.826,129.549 C678.941,129.902 677.806,129.849 673.136,129.226 L658.634,127.29 C657.769,127.176 657.559,127.144 657.378,127.101 C655.559,126.666 654.215,125.13 654.024,123.271 C654.004,123.083 654,122.87 654,122 C654,120.785 653.015,119.8 651.8,119.8 C650.585,119.8 649.6,120.785 649.6,122 Z M663.444,103.756 L672.244,112.556 C673.104,113.415 674.496,113.415 675.356,112.556 C676.215,111.696 676.215,110.303 675.356,109.444 L666.556,100.644 C665.696,99.785 664.303,99.785 663.444,100.644 C662.585,101.503 662.585,102.896 663.444,103.756 Z M672.244,109.444 L663.444,118.244 C662.585,119.103 662.585,120.496 663.444,121.356 C664.303,122.215 665.696,122.215 666.556,121.356 L675.356,112.556 C676.215,111.696 676.215,110.303 675.356,109.444 C674.496,108.585 673.104,108.585 672.244,109.444 Z M673.8,108.8 L645.2,108.8 C643.985,108.8 643,109.785 643,111 C643,112.215 643.985,113.2 645.2,113.2 L673.8,113.2 C675.015,113.2 676,112.215 676,111 C676,109.785 675.015,108.8 673.8,108.8 Z" />
        </g>
    </g>
</svg>