<?xml version="1.0" encoding="UTF-8"?>
<svg height="600" width="800" xmlns="http://www.w3.org/2000/svg" xmlns:xlink="http://www.w3.org/1999/xlink">
    <g id="Notes" font-family="LucidaGrande, 'Lucida Grande', sans-serif" font-size="13">
        <rect fill="white" height="600.0" width="800.0" x="0.0" y="0.0" />
        <g font-size="13">
            <text x="18.0" y="176.0">Small</text>
            <text x="18.0" y="376.0">Medium</text>
            <text x="18.0" y="576.0">Large</text>
        </g>
        <g font-size="9">
            <text x="250.0" y="30.0">Ultralight</text>
            <text x="450.0" y="30.0">Regular</text>
            <text x="650.0" y="30.0">Black</text>
            <text id="template-version" fill="#505050" text-anchor="end" x="785.0" y="575.0">Template v.3.0</text>
            <a href="https://github.com/swhitty/SwiftDraw">
                <text fill="#505050" text-anchor="end" x="785.0" y="590.0">https://github.com/swhitty/SwiftDraw</text>
            </a>
        </g>
    </g>
    <g id="Guides" stroke="rgb(39, 170, 225)" stroke-width="0.5">
        <path id="Capline-S" d="M18,76 l800,0" />
        <path id="H-reference" d="M85,145.755 L87.685,145.755 L113.369,79.287 L114.052,79.287 L114.052,76 L112.148,76 L85,145.755 Z M95.693,121.536 L130.996,121.536 L130.263,119.313 L96.474,119.313 L95.693,121.536 Z M139.15,145.755 L141.787,145.755 L114.638,76 L113.466,76 L113.466,79.287 L139.15,145.755 Z" stroke="none" transform="translate(0,200)" />
        <path id="Baseline-S" d="M18,146 l800,0" />
        <path id="left-margin-Ultralight-M" d="M221,256 l0,110" />
        <path id="right-margin-Ultralight-M" d="M309,256 l0,110" />
        <path id="left-margin-Regular-M" d="M421,256 l0,110" />
        <path id="right-margin-Regular-M" d="M509,256 l0,110" />
        <path id="left-margin-Black-M" d="M621,256 l0,110" />
        <path id="right-margin-Black-M" d="M709,256 l0,110" />
        <path id="Capline-M" d="M18,276 l800,0" />
        <path id="Baseline-M" d="M18,346 l800,0" />
        <path id="Capline-L" d="M18,476 l800,0" />
        <path id="Baseline-L" d="M18,546 l800,0" />
    </g>
    <g id="Symbols">
        <g id="Ultralight-M" transform="translate(0,200)">
            <path d="M258.688,120.422 L247.172,120.422 C246.016,120.422 245.078,121.359 245.078,122.516 C245.078,123.672 246.016,124.609 247.172,124.609 L258.688,124.609 C259.844,124.609 260.781,123.672 260.781,122.516 C260.781,121.359 259.844,120.422 258.688,120.422 Z M253.453,108.906 L244.031,108.906 C242.875,108.906 241.938,109.844 241.938,111 C241.938,112.156 242.875,113.094 244.031,113.094 L253.453,113.094 C254.61,113.094 255.547,112.156 255.547,111 C255.547,109.844 254.61,108.906 253.453,108.906 Z M258.688,97.391 L248.219,97.391 C247.063,97.391 246.125,98.328 246.125,99.484 C246.125,100.641 247.063,101.578 248.219,101.578 L258.688,101.578 C259.844,101.578 260.781,100.641 260.781,99.484 C260.781,98.328 259.844,97.391 258.688,97.391 Z M273.734,90.939 L259.924,110.275 C258.746,111.925 258.594,112.183 258.63,113.207 C258.665,114.143 259.112,115.01 259.849,115.58 C260.663,116.207 260.965,116.234 262.99,116.234 L273.344,116.234 L271.269,113.864 L269.175,129.567 C268.887,131.73 271.686,132.837 272.954,131.061 L286.765,111.725 C287.942,110.075 288.094,109.817 288.058,108.793 C288.023,107.857 287.576,106.99 286.839,106.42 C286.025,105.793 285.723,105.766 283.698,105.766 L273.344,105.766 L275.419,108.136 L277.513,92.433 C277.802,90.27 275.002,89.163 273.734,90.939 Z M277.142,93.373 L273.362,91.879 L271.269,107.583 C271.101,108.838 272.078,109.953 273.344,109.953 L283.698,109.953 C284.344,109.953 284.564,109.957 284.727,109.972 C284.676,109.967 284.524,109.923 284.281,109.736 C284.033,109.544 283.885,109.255 283.873,108.945 C283.862,108.635 283.914,108.486 283.94,108.443 C283.857,108.584 283.734,108.762 283.357,109.291 L269.547,128.627 L273.326,130.121 L275.419,114.417 C275.587,113.162 274.61,112.047 273.344,112.047 L262.99,112.047 C262.344,112.047 262.124,112.043 261.961,112.028 C262.012,112.033 262.164,112.077 262.407,112.264 C262.655,112.456 262.804,112.745 262.815,113.055 C262.826,113.365 262.774,113.514 262.748,113.557 C262.831,113.416 262.954,113.238 263.331,112.709 L277.142,93.373 Z" />
        </g>
        <g id="Regular-M" transform="translate(0,200)">
            <path d="M458.688,120.422 L447.172,120.422 C446.016,120.422 445.078,121.359 445.078,122.516 C445.078,123.672 446.016,124.609 447.172,124.609 L458.688,124.609 C459.844,124.609 460.781,123.672 460.781,122.516 C460.781,121.359 459.844,120.422 458.688,120.422 Z M453.453,108.906 L444.031,108.906 C442.875,108.906 441.938,109.844 441.938,111 C441.938,112.156 442.875,113.094 444.031,113.094 L453.453,113.094 C454.61,113.094 455.547,112.156 455.547,111 C455.547,109.844 454.61,108.906 453.453,108.906 Z M458.688,97.391 L448.219,97.391 C447.063,97.391 446.125,98.328 446.125,99.484 C446.125,100.641 447.063,101.578 448.219,101.578 L458.688,101.578 C459.844,101.578 460.781,100.641 460.781,99.484 C460.781,98.328 459.844,97.391 458.688,97.391 Z M473.734,90.939 L459.924,110.275 C458.746,111.925 458.594,112.183 458.63,113.207 C458.665,114.143 459.112,115.01 459.849,115.58 C460.663,116.207 460.965,116.234 462.99,116.234 L473.344,116.234 L471.269,113.864 L469.175,129.567 C468.887,131.73 471.686,132.837 472.954,131.061 L486.765,111.725 C487.942,110.075 488.094,109.817 488.058,108.793 C488.023,107.857 487.576,106.99 486.839,106.42 C486.025,105.793 485.723,105.766 483.698,105.766 L473.344,105.766 L475.419,108.136 L477.513,92.433 C477.802,90.27 475.002,89.163 473.734,90.939 Z M477.142,93.373 L473.362,91.879 L471.269,107.583 C471.101,108.838 472.078,109.953 473.344,109.953 L483.698,109.953 C484.344,109.953 484.564,109.957 484.727,109.972 C484.676,109.967 484.524,109.923 484.281,109.736 C484.033,109.544 483.885,109.255 483.873,108.945 C483.862,108.635 483.914,108.486 483.94,108.443 C483.857,108.584 483.734,108.762 483.357,109.291 L469.547,128.627 L473.326,130.121 L475.419,114.417 C475.587,113.162 474.61,112.047 473.344,112.047 L462.99,112.047 C462.344,112.047 462.124,112.043 461.961,112.028 C462.012,112.033 462.164,112.077 462.407,112.264 C462.655,112.456 462.804,112.745 462.815,113.055 C462.826,113.365 462.774,113.514 462.748,113.557 C462.831,113.416 462.954,113.238 463.331,112.709 L477.142,93.373 Z" />
        </g>
        <g id="Black-M" transform="translate(0,200)">
            <path d="M658.688,120.422 L647.172,120.422 C646.016,120.422 645.078,121.359 645.078,122.516 C645.078,123.672 646.016,124.609 647.172,124.609 L658.688,124.609 C659.844,124.609 660.781,123.672 660.781,122.516 C660.781,121.359 659.844,120.422 658.688,120.422 Z M653.453,108.906 L644.031,108.906 C642.875,108.906 641.938,109.844 641.938,111 C641.938,112.156 642.875,113.094 644.031,113.094 L653.453,113.094 C654.61,113.094 655.547,112.156 655.547,111 C655.547,109.844 654.61,108.906 653.453,108.906 Z M658.688,97.391 L648.219,97.391 C647.063,97.391 646.125,98.328 646.125,99.484 C646.125,100.641 647.063,101.578 648.219,101.578 L658.688,101.578 C659.844,101.578 660.781,100.641 660.781,99.484 C660.781,98.328 659.844,97.391 658.688,97.391 Z M673.734,90.939 L659.924,110.275 C658.746,111.925 658.594,112.183 658.63,113.207 C658.665,114.143 659.112,115.01 659.849,115.58 C660.663,116.207 660.965,116.234 662.99,116.234 L673.344,116.234 L671.269,113.864 L669.175,129.567 C668.887,131.73 671.686,132.837 672.954,131.061 L686.765,111.725 C687.942,110.075 688.094,109.817 688.058,108.793 C688.023,107.857 687.576,106.99 686.839,106.42 C686.025,105.793 685.723,105.766 683.698,105.766 L673.344,105.766 L675.419,108.136 L677.513,92.433 C677.802,90.27 675.002,89.163 673.734,90.939 Z M677.142,93.373 L673.362,91.879 L671.269,107.583 C671.101,108.838 672.078,109.953 673.344,109.953 L683.698,109.953 C684.344,109.953 684.564,109.957 684.727,109.972 C684.676,109.967 684.524,109.923 684.281,109.736 C684.033,109.544 683.885,109.255 683.873,108.945 C683.862,108.635 683.914,108.486 683.94,108.443 C683.857,108.584 683.734,108.762 683.357,109.291 L669.547,128.627 L673.326,130.121 L675.419,114.417 C675.587,113.162 674.61,112.047 673.344,112.047 L662.99,112.047 C662.344,112.047 662.124,112.043 661.961,112.028 C662.012,112.033 662.164,112.077 662.407,112.264 C662.655,112.456 662.804,112.745 662.815,113.055 C662.826,113.365 662.774,113.514 662.748,113.557 C662.831,113.416 662.954,113.238 663.331,112.709 L677.142,93.373 Z" />
        </g>
    </g>
</svg>