<?xml version="1.0" encoding="UTF-8"?>
<svg height="600" width="800" xmlns="http://www.w3.org/2000/svg" xmlns:xlink="http://www.w3.org/1999/xlink">
    <g id="Notes" font-family="LucidaGrande, 'Lucida Grande', sans-serif" font-size="13">
        <rect fill="white" height="600.0" width="800.0" x="0.0" y="0.0" />
        <g font-size="13">
            <text x="18.0" y="176.0">Small</text>
            <text x="18.0" y="376.0">Medium</text>
            <text x="18.0" y="576.0">Large</text>
        </g>
        <g font-size="9">
            <text x="250.0" y="30.0">Ultralight</text>
            <text x="450.0" y="30.0">Regular</text>
            <text x="650.0" y="30.0">Black</text>
            <text id="template-version" fill="#505050" text-anchor="end" x="785.0" y="575.0">Template v.3.0</text>
            <a href="https://github.com/swhitty/SwiftDraw">
                <text fill="#505050" text-anchor="end" x="785.0" y="590.0">https://github.com/swhitty/SwiftDraw</text>
            </a>
        </g>
    </g>
    <g id="Guides" stroke="rgb(39, 170, 225)" stroke-width="0.5">
        <path id="Capline-S" d="M18,76 l800,0" />
        <path id="H-reference" d="M85,145.755 L87.685,145.755 L113.369,79.287 L114.052,79.287 L114.052,76 L112.148,76 L85,145.755 Z M95.693,121.536 L130.996,121.536 L130.263,119.313 L96.474,119.313 L95.693,121.536 Z M139.15,145.755 L141.787,145.755 L114.638,76 L113.466,76 L113.466,79.287 L139.15,145.755 Z" stroke="none" transform="translate(0,200)" />
        <path id="Baseline-S" d="M18,146 l800,0" />
        <path id="left-margin-Ultralight-M" d="M230,256 l0,110" />
        <path id="right-margin-Ultralight-M" d="M300,256 l0,110" />
        <path id="left-margin-Regular-M" d="M430,256 l0,110" />
        <path id="right-margin-Regular-M" d="M500,256 l0,110" />
        <path id="left-margin-Black-M" d="M630,256 l0,110" />
        <path id="right-margin-Black-M" d="M700,256 l0,110" />
        <path id="Capline-M" d="M18,276 l800,0" />
        <path id="Baseline-M" d="M18,346 l800,0" />
        <path id="Capline-L" d="M18,476 l800,0" />
        <path id="Baseline-L" d="M18,546 l800,0" />
    </g>
    <g id="Symbols">
        <g id="Ultralight-M" transform="translate(0,200)">
            <path d="M296.316,110.812 L296.316,94.455 C296.316,87.133 296.151,85.394 294.71,82.95 C293.297,80.554 291.042,78.607 288.269,77.387 C285.439,76.142 283.424,76 274.947,76 L251.368,76 C242.891,76 240.877,76.142 238.047,77.387 C235.274,78.607 233.019,80.554 231.606,82.949 C230.165,85.394 230,87.133 230,94.455 L230,127.545 C230,134.867 230.165,136.606 231.606,139.05 C233.019,141.446 235.274,143.393 238.046,144.613 C240.877,145.858 242.891,146 251.368,146 L270.526,146 C272.561,146 274.211,144.575 274.211,142.818 C274.211,141.061 272.561,139.636 270.526,139.636 L251.368,139.636 C244.372,139.636 242.7,139.518 241.391,138.943 C240.005,138.333 238.878,137.359 238.172,136.162 C237.505,135.032 237.368,133.588 237.368,127.545 L237.368,94.455 C237.368,88.412 237.505,86.968 238.172,85.838 C238.878,84.641 240.005,83.667 241.392,83.057 C242.7,82.482 244.372,82.364 251.368,82.364 L274.947,82.364 C281.944,82.364 283.616,82.482 284.925,83.058 C286.311,83.667 287.438,84.641 288.144,85.838 C288.811,86.968 288.947,88.412 288.947,94.455 L288.947,110.812 C288.947,112.57 290.597,113.994 292.632,113.994 C294.666,113.994 296.316,112.57 296.316,110.812 Z M274.211,130.091 L296.316,130.091 C298.351,130.091 300,128.666 300,126.909 C300,125.152 298.351,123.727 296.316,123.727 L274.211,123.727 C272.176,123.727 270.526,125.152 270.526,126.909 C270.526,128.666 272.176,130.091 274.211,130.091 Z" />
        </g>
        <g id="Regular-M" transform="translate(0,200)">
            <path d="M496.316,110.812 L496.316,94.455 C496.316,87.133 496.151,85.394 494.71,82.95 C493.297,80.554 491.042,78.607 488.269,77.387 C485.439,76.142 483.424,76 474.947,76 L451.368,76 C442.891,76 440.877,76.142 438.047,77.387 C435.274,78.607 433.019,80.554 431.606,82.949 C430.165,85.394 430,87.133 430,94.455 L430,127.545 C430,134.867 430.165,136.606 431.606,139.05 C433.019,141.446 435.273,143.393 438.046,144.613 C440.877,145.858 442.891,146 451.368,146 L470.526,146 C472.561,146 474.211,144.575 474.211,142.818 C474.211,141.061 472.561,139.636 470.526,139.636 L451.368,139.636 C444.372,139.636 442.7,139.518 441.391,138.943 C440.005,138.333 438.878,137.359 438.172,136.162 C437.505,135.032 437.368,133.588 437.368,127.545 L437.368,94.455 C437.368,88.412 437.505,86.968 438.172,85.838 C438.878,84.641 440.005,83.667 441.392,83.057 C442.7,82.482 444.372,82.364 451.368,82.364 L474.947,82.364 C481.944,82.364 483.616,82.482 484.925,83.058 C486.311,83.667 487.438,84.641 488.144,85.838 C488.811,86.968 488.947,88.412 488.947,94.455 L488.947,110.812 C488.947,112.57 490.597,113.994 492.632,113.994 C494.666,113.994 496.316,112.57 496.316,110.812 Z M474.211,130.091 L496.316,130.091 C498.351,130.091 500,128.666 500,126.909 C500,125.152 498.351,123.727 496.316,123.727 L474.211,123.727 C472.176,123.727 470.526,125.152 470.526,126.909 C470.526,128.666 472.176,130.091 474.211,130.091 Z" />
        </g>
        <g id="Black-M" transform="translate(0,200)">
            <path d="M696.316,110.812 L696.316,94.455 C696.316,87.133 696.151,85.394 694.71,82.95 C693.297,80.554 691.042,78.607 688.269,77.387 C685.439,76.142 683.424,76 674.947,76 L651.368,76 C642.891,76 640.877,76.142 638.047,77.387 C635.273,78.607 633.019,80.554 631.606,82.949 C630.165,85.394 630,87.133 630,94.455 L630,127.545 C630,134.867 630.165,136.606 631.606,139.05 C633.019,141.446 635.273,143.393 638.046,144.613 C640.877,145.858 642.891,146 651.368,146 L670.526,146 C672.561,146 674.211,144.575 674.211,142.818 C674.211,141.061 672.561,139.636 670.526,139.636 L651.368,139.636 C644.372,139.636 642.7,139.518 641.391,138.943 C640.005,138.333 638.878,137.359 638.172,136.162 C637.505,135.032 637.368,133.588 637.368,127.545 L637.368,94.455 C637.368,88.412 637.505,86.968 638.172,85.838 C638.878,84.641 640.005,83.667 641.392,83.057 C642.7,82.482 644.372,82.364 651.368,82.364 L674.947,82.364 C681.944,82.364 683.615,82.482 684.925,83.058 C686.311,83.667 687.438,84.641 688.144,85.838 C688.811,86.968 688.947,88.412 688.947,94.455 L688.947,110.812 C688.947,112.57 690.597,113.994 692.632,113.994 C694.666,113.994 696.316,112.57 696.316,110.812 Z M674.211,130.091 L696.316,130.091 C698.351,130.091 700,128.666 700,126.909 C700,125.152 698.351,123.727 696.316,123.727 L674.211,123.727 C672.176,123.727 670.526,125.152 670.526,126.909 C670.526,128.666 672.176,130.091 674.211,130.091 Z" />
        </g>
    </g>
</svg>