<?xml version="1.0" encoding="UTF-8"?>
<svg height="600" width="800" xmlns="http://www.w3.org/2000/svg" xmlns:xlink="http://www.w3.org/1999/xlink">
    <g id="Notes" font-family="LucidaGrande, 'Lucida Grande', sans-serif" font-size="13">
        <rect fill="white" height="600.0" width="800.0" x="0.0" y="0.0" />
        <g font-size="13">
            <text x="18.0" y="176.0">Small</text>
            <text x="18.0" y="376.0">Medium</text>
            <text x="18.0" y="576.0">Large</text>
        </g>
        <g font-size="9">
            <text x="250.0" y="30.0">Ultralight</text>
            <text x="450.0" y="30.0">Regular</text>
            <text x="650.0" y="30.0">Black</text>
            <text id="template-version" fill="#505050" text-anchor="end" x="785.0" y="575.0">Template v.3.0</text>
            <a href="https://github.com/swhitty/SwiftDraw">
                <text fill="#505050" text-anchor="end" x="785.0" y="590.0">https://github.com/swhitty/SwiftDraw</text>
            </a>
        </g>
    </g>
    <g id="Guides" stroke="rgb(39, 170, 225)" stroke-width="0.5">
        <path id="Capline-S" d="M18,76 l800,0" />
        <path id="H-reference" d="M85,145.755 L87.685,145.755 L113.369,79.287 L114.052,79.287 L114.052,76 L112.148,76 L85,145.755 Z M95.693,121.536 L130.996,121.536 L130.263,119.313 L96.474,119.313 L95.693,121.536 Z M139.15,145.755 L141.787,145.755 L114.638,76 L113.466,76 L113.466,79.287 L139.15,145.755 Z" stroke="none" transform="translate(0,200)" />
        <path id="Baseline-S" d="M18,146 l800,0" />
        <path id="left-margin-Ultralight-M" d="M230,256 l0,110" />
        <path id="right-margin-Ultralight-M" d="M300,256 l0,110" />
        <path id="left-margin-Regular-M" d="M430,256 l0,110" />
        <path id="right-margin-Regular-M" d="M500,256 l0,110" />
        <path id="left-margin-Black-M" d="M630,256 l0,110" />
        <path id="right-margin-Black-M" d="M700,256 l0,110" />
        <path id="Capline-M" d="M18,276 l800,0" />
        <path id="Baseline-M" d="M18,346 l800,0" />
        <path id="Capline-L" d="M18,476 l800,0" />
        <path id="Baseline-L" d="M18,546 l800,0" />
    </g>
    <g id="Symbols">
        <g id="Ultralight-M" transform="translate(0,200)">
            <path d="M269.375,108.083 L269.375,97.875 C269.375,96.264 268.069,94.958 266.458,94.958 C264.848,94.958 263.542,96.264 263.542,97.875 L263.542,108.083 C263.542,109.694 264.848,111 266.458,111 C268.069,111 269.375,109.694 269.375,108.083 Z M266.458,121.208 L266.487,121.208 C268.098,121.208 269.404,119.902 269.404,118.292 C269.404,116.681 268.098,115.375 266.487,115.375 L266.458,115.375 C264.848,115.375 263.542,116.681 263.542,118.292 C263.542,119.902 264.848,121.208 266.458,121.208 Z M266.459,137.25 C278.491,137.246 289.145,129.478 292.828,118.023 C296.511,106.569 292.381,94.047 282.607,87.032 C272.832,80.016 259.647,80.11 249.974,87.264 C240.3,94.419 236.349,106.998 240.195,118.399 C240.479,119.239 240.556,119.502 240.553,119.464 C240.554,119.475 240.557,119.439 240.567,119.404 C240.559,119.431 240.484,119.587 240.134,120.237 L235.365,129.062 C234.049,131.501 233.886,131.88 234.103,133.274 C234.302,134.547 235.051,135.668 236.151,136.337 C237.362,137.069 237.804,137.064 240.526,136.779 L255.459,135.237 C255.849,135.196 255.943,135.189 255.918,135.188 C255.965,135.19 255.925,135.185 255.951,135.19 C255.9,135.179 255.998,135.214 256.514,135.41 C259.678,136.628 263.056,137.254 266.461,137.25 Z M266.455,131.417 C263.768,131.42 261.103,130.926 258.596,129.961 C257.608,129.586 257.614,129.588 257.247,129.503 C256.846,129.413 256.516,129.37 256.126,129.359 C255.785,129.344 255.595,129.358 254.86,129.434 L239.923,130.977 C239.058,131.068 238.753,131.094 238.533,131.097 C238.605,131.096 238.82,131.134 239.176,131.35 C239.551,131.578 239.801,131.952 239.867,132.376 C239.932,132.791 239.885,133.006 239.856,133.074 C239.943,132.872 240.077,132.612 240.497,131.833 L245.268,123.006 C245.92,121.796 246.046,121.534 246.208,120.886 C246.371,120.3 246.429,119.619 246.363,118.945 C246.313,118.324 246.219,118.007 245.722,116.534 C242.686,107.534 245.805,97.602 253.442,91.954 C261.079,86.306 271.489,86.232 279.205,91.771 C286.922,97.309 290.182,107.195 287.275,116.238 C284.367,125.28 275.956,131.413 266.457,131.417 Z" />
        </g>
        <g id="Regular-M" transform="translate(0,200)">
            <path d="M469.375,108.083 L469.375,97.875 C469.375,96.264 468.069,94.958 466.458,94.958 C464.848,94.958 463.542,96.264 463.542,97.875 L463.542,108.083 C463.542,109.694 464.848,111 466.458,111 C468.069,111 469.375,109.694 469.375,108.083 Z M466.458,121.208 L466.487,121.208 C468.098,121.208 469.404,119.902 469.404,118.292 C469.404,116.681 468.098,115.375 466.487,115.375 L466.458,115.375 C464.848,115.375 463.542,116.681 463.542,118.292 C463.542,119.902 464.848,121.208 466.458,121.208 Z M466.459,137.25 C478.491,137.246 489.145,129.478 492.828,118.023 C496.511,106.569 492.381,94.047 482.607,87.032 C472.832,80.016 459.647,80.11 449.974,87.264 C440.3,94.419 436.349,106.998 440.195,118.399 C440.479,119.239 440.556,119.502 440.553,119.464 C440.554,119.475 440.557,119.439 440.567,119.404 C440.559,119.431 440.484,119.587 440.134,120.237 L435.365,129.062 C434.049,131.501 433.887,131.88 434.103,133.274 C434.302,134.547 435.051,135.668 436.151,136.337 C437.362,137.069 437.804,137.064 440.526,136.779 L455.459,135.237 C455.849,135.196 455.943,135.189 455.918,135.188 C455.965,135.19 455.925,135.185 455.951,135.19 C455.9,135.179 455.998,135.214 456.514,135.41 C459.678,136.628 463.056,137.254 466.461,137.25 Z M466.455,131.417 C463.768,131.42 461.103,130.926 458.596,129.961 C457.608,129.586 457.614,129.588 457.247,129.503 C456.846,129.413 456.516,129.37 456.126,129.359 C455.785,129.344 455.595,129.358 454.86,129.434 L439.923,130.977 C439.058,131.068 438.753,131.094 438.533,131.097 C438.605,131.096 438.82,131.134 439.176,131.35 C439.551,131.578 439.801,131.952 439.867,132.376 C439.932,132.791 439.885,133.006 439.856,133.074 C439.943,132.872 440.077,132.612 440.497,131.833 L445.268,123.006 C445.92,121.796 446.046,121.534 446.208,120.886 C446.371,120.3 446.429,119.619 446.363,118.945 C446.313,118.324 446.219,118.007 445.722,116.534 C442.686,107.534 445.805,97.602 453.442,91.954 C461.079,86.306 471.489,86.232 479.205,91.771 C486.922,97.309 490.182,107.195 487.275,116.238 C484.367,125.28 475.956,131.413 466.457,131.417 Z" />
        </g>
        <g id="Black-M" transform="translate(0,200)">
            <path d="M669.375,108.083 L669.375,97.875 C669.375,96.264 668.069,94.958 666.458,94.958 C664.848,94.958 663.542,96.264 663.542,97.875 L663.542,108.083 C663.542,109.694 664.848,111 666.458,111 C668.069,111 669.375,109.694 669.375,108.083 Z M666.458,121.208 L666.487,121.208 C668.098,121.208 669.404,119.902 669.404,118.292 C669.404,116.681 668.098,115.375 666.487,115.375 L666.458,115.375 C664.848,115.375 663.542,116.681 663.542,118.292 C663.542,119.902 664.848,121.208 666.458,121.208 Z M666.459,137.25 C678.491,137.246 689.145,129.478 692.828,118.023 C696.511,106.569 692.381,94.047 682.607,87.032 C672.832,80.016 659.647,80.11 649.974,87.264 C640.3,94.419 636.349,106.998 640.195,118.399 C640.479,119.239 640.556,119.502 640.553,119.464 C640.554,119.475 640.557,119.439 640.567,119.404 C640.559,119.431 640.484,119.587 640.134,120.237 L635.365,129.062 C634.049,131.501 633.886,131.88 634.103,133.274 C634.302,134.547 635.051,135.668 636.151,136.337 C637.362,137.069 637.804,137.064 640.526,136.779 L655.459,135.237 C655.849,135.196 655.943,135.189 655.918,135.188 C655.965,135.19 655.925,135.185 655.951,135.19 C655.9,135.179 655.998,135.214 656.513,135.41 C659.679,136.628 663.056,137.254 666.461,137.25 Z M666.455,131.417 C663.768,131.42 661.103,130.926 658.596,129.961 C657.608,129.586 657.614,129.588 657.247,129.503 C656.846,129.413 656.516,129.37 656.126,129.359 C655.785,129.344 655.595,129.358 654.86,129.434 L639.923,130.977 C639.058,131.068 638.753,131.094 638.533,131.097 C638.605,131.096 638.82,131.134 639.176,131.35 C639.551,131.578 639.801,131.952 639.867,132.376 C639.932,132.791 639.885,133.006 639.856,133.074 C639.943,132.872 640.077,132.612 640.497,131.833 L645.268,123.006 C645.92,121.796 646.046,121.534 646.208,120.886 C646.371,120.3 646.429,119.619 646.363,118.945 C646.313,118.324 646.219,118.007 645.722,116.534 C642.686,107.534 645.805,97.602 653.442,91.954 C661.079,86.306 671.489,86.232 679.205,91.771 C686.922,97.309 690.182,107.195 687.275,116.238 C684.367,125.28 675.956,131.413 666.457,131.417 Z" />
        </g>
    </g>
</svg>