<?xml version="1.0" encoding="UTF-8"?>
<svg height="600" width="800" xmlns="http://www.w3.org/2000/svg" xmlns:xlink="http://www.w3.org/1999/xlink">
    <g id="Notes" font-family="LucidaGrande, 'Lucida Grande', sans-serif" font-size="13">
        <rect fill="white" height="600.0" width="800.0" x="0.0" y="0.0" />
        <g font-size="13">
            <text x="18.0" y="176.0">Small</text>
            <text x="18.0" y="376.0">Medium</text>
            <text x="18.0" y="576.0">Large</text>
        </g>
        <g font-size="9">
            <text x="250.0" y="30.0">Ultralight</text>
            <text x="450.0" y="30.0">Regular</text>
            <text x="650.0" y="30.0">Black</text>
            <text id="template-version" fill="#505050" text-anchor="end" x="785.0" y="575.0">Template v.3.0</text>
            <a href="https://github.com/swhitty/SwiftDraw">
                <text fill="#505050" text-anchor="end" x="785.0" y="590.0">https://github.com/swhitty/SwiftDraw</text>
            </a>
        </g>
    </g>
    <g id="Guides" stroke="rgb(39, 170, 225)" stroke-width="0.5">
        <path id="Capline-S" d="M18,76 l800,0" />
        <path id="H-reference" d="M85,145.755 L87.685,145.755 L113.369,79.287 L114.052,79.287 L114.052,76 L112.148,76 L85,145.755 Z M95.693,121.536 L130.996,121.536 L130.263,119.313 L96.474,119.313 L95.693,121.536 Z M139.15,145.755 L141.787,145.755 L114.638,76 L113.466,76 L113.466,79.287 L139.15,145.755 Z" stroke="none" transform="translate(0,200)" />
        <path id="Baseline-S" d="M18,146 l800,0" />
        <path id="left-margin-Ultralight-M" d="M233.5,256 l0,110" />
        <path id="right-margin-Ultralight-M" d="M296.5,256 l0,110" />
        <path id="left-margin-Regular-M" d="M433.5,256 l0,110" />
        <path id="right-margin-Regular-M" d="M496.5,256 l0,110" />
        <path id="left-margin-Black-M" d="M633.5,256 l0,110" />
        <path id="right-margin-Black-M" d="M696.5,256 l0,110" />
        <path id="Capline-M" d="M18,276 l800,0" />
        <path id="Baseline-M" d="M18,346 l800,0" />
        <path id="Capline-L" d="M18,476 l800,0" />
        <path id="Baseline-L" d="M18,546 l800,0" />
    </g>
    <g id="Symbols">
        <g id="Ultralight-M" transform="translate(0,200)">
            <path d="M240.5,96.3 C240.5,89.653 240.63,88.065 241.263,86.822 C241.934,85.505 243.005,84.434 244.322,83.763 C245.565,83.13 247.153,83 253.8,83 L276.2,83 C282.847,83 284.435,83.13 285.678,83.763 C286.995,84.434 288.066,85.505 288.737,86.822 C289.37,88.065 289.5,89.653 289.5,96.3 L289.5,142.5 L295.059,139.669 L285.434,132.669 C284.158,131.742 282.42,131.782 281.189,132.767 L272.439,139.767 L276.684,139.669 L267.059,132.669 C265.831,131.777 264.169,131.777 262.941,132.669 L253.316,139.669 L257.561,139.767 L248.811,132.767 C247.58,131.782 245.842,131.742 244.566,132.669 L234.941,139.669 L240.5,142.5 L240.5,96.3 Z M233.5,96.3 L233.5,142.5 C233.5,145.361 236.745,147.013 239.059,145.331 L248.684,138.331 L244.439,138.233 L253.189,145.233 C254.42,146.218 256.158,146.258 257.434,145.331 L267.059,138.331 L262.941,138.331 L272.566,145.331 C273.842,146.258 275.58,146.218 276.811,145.233 L285.561,138.233 L281.316,138.331 L290.941,145.331 C293.255,147.013 296.5,145.361 296.5,142.5 L296.5,96.3 C296.5,88.247 296.344,86.333 294.974,83.644 C293.632,81.01 291.49,78.868 288.856,77.526 C286.167,76.156 284.253,76 276.2,76 L253.8,76 C245.747,76 243.833,76.156 241.144,77.526 C238.51,78.868 236.368,81.01 235.026,83.644 C233.656,86.333 233.5,88.247 233.5,96.3 Z" />
        </g>
        <g id="Regular-M" transform="translate(0,200)">
            <path d="M440.5,96.3 C440.5,89.653 440.63,88.065 441.263,86.822 C441.934,85.505 443.005,84.434 444.322,83.763 C445.565,83.13 447.153,83 453.8,83 L476.2,83 C482.847,83 484.435,83.13 485.678,83.763 C486.995,84.434 488.066,85.505 488.737,86.822 C489.37,88.065 489.5,89.653 489.5,96.3 L489.5,142.5 L495.059,139.669 L485.434,132.669 C484.158,131.742 482.42,131.782 481.189,132.767 L472.439,139.767 L476.684,139.669 L467.059,132.669 C465.831,131.777 464.169,131.777 462.941,132.669 L453.316,139.669 L457.561,139.767 L448.811,132.767 C447.58,131.782 445.842,131.742 444.566,132.669 L434.941,139.669 L440.5,142.5 L440.5,96.3 Z M433.5,96.3 L433.5,142.5 C433.5,145.361 436.745,147.013 439.059,145.331 L448.684,138.331 L444.439,138.233 L453.189,145.233 C454.42,146.218 456.158,146.258 457.434,145.331 L467.059,138.331 L462.941,138.331 L472.566,145.331 C473.842,146.258 475.58,146.218 476.811,145.233 L485.561,138.233 L481.316,138.331 L490.941,145.331 C493.255,147.013 496.5,145.361 496.5,142.5 L496.5,96.3 C496.5,88.247 496.344,86.333 494.974,83.644 C493.632,81.01 491.49,78.868 488.856,77.526 C486.167,76.156 484.253,76 476.2,76 L453.8,76 C445.747,76 443.833,76.156 441.144,77.526 C438.51,78.868 436.368,81.01 435.026,83.644 C433.656,86.333 433.5,88.247 433.5,96.3 Z" />
        </g>
        <g id="Black-M" transform="translate(0,200)">
            <path d="M640.5,96.3 C640.5,89.653 640.63,88.065 641.263,86.822 C641.934,85.505 643.005,84.434 644.322,83.763 C645.565,83.13 647.153,83 653.8,83 L676.2,83 C682.847,83 684.435,83.13 685.678,83.763 C686.995,84.434 688.066,85.505 688.737,86.822 C689.37,88.065 689.5,89.653 689.5,96.3 L689.5,142.5 L695.059,139.669 L685.434,132.669 C684.158,131.742 682.42,131.782 681.189,132.767 L672.439,139.767 L676.684,139.669 L667.059,132.669 C665.831,131.777 664.169,131.777 662.941,132.669 L653.316,139.669 L657.561,139.767 L648.811,132.767 C647.58,131.782 645.842,131.742 644.566,132.669 L634.941,139.669 L640.5,142.5 L640.5,96.3 Z M633.5,96.3 L633.5,142.5 C633.5,145.361 636.745,147.013 639.059,145.331 L648.684,138.331 L644.439,138.233 L653.189,145.233 C654.42,146.218 656.158,146.258 657.434,145.331 L667.059,138.331 L662.941,138.331 L672.566,145.331 C673.842,146.258 675.58,146.218 676.811,145.233 L685.561,138.233 L681.316,138.331 L690.941,145.331 C693.255,147.013 696.5,145.361 696.5,142.5 L696.5,96.3 C696.5,88.247 696.344,86.333 694.974,83.644 C693.632,81.01 691.49,78.868 688.856,77.526 C686.167,76.156 684.253,76 676.2,76 L653.8,76 C645.747,76 643.833,76.156 641.144,77.526 C638.51,78.868 636.368,81.01 635.026,83.644 C633.656,86.333 633.5,88.247 633.5,96.3 Z" />
        </g>
    </g>
</svg>