<?xml version="1.0" encoding="UTF-8"?>
<svg height="600" width="800" xmlns="http://www.w3.org/2000/svg" xmlns:xlink="http://www.w3.org/1999/xlink">
    <g id="Notes" font-family="LucidaGrande, 'Lucida Grande', sans-serif" font-size="13">
        <rect fill="white" height="600.0" width="800.0" x="0.0" y="0.0" />
        <g font-size="13">
            <text x="18.0" y="176.0">Small</text>
            <text x="18.0" y="376.0">Medium</text>
            <text x="18.0" y="576.0">Large</text>
        </g>
        <g font-size="9">
            <text x="250.0" y="30.0">Ultralight</text>
            <text x="450.0" y="30.0">Regular</text>
            <text x="650.0" y="30.0">Black</text>
            <text id="template-version" fill="#505050" text-anchor="end" x="785.0" y="575.0">Template v.3.0</text>
            <a href="https://github.com/swhitty/SwiftDraw">
                <text fill="#505050" text-anchor="end" x="785.0" y="590.0">https://github.com/swhitty/SwiftDraw</text>
            </a>
        </g>
    </g>
    <g id="Guides" stroke="rgb(39, 170, 225)" stroke-width="0.5">
        <path id="Capline-S" d="M18,76 l800,0" />
        <path id="H-reference" d="M85,145.755 L87.685,145.755 L113.369,79.287 L114.052,79.287 L114.052,76 L112.148,76 L85,145.755 Z M95.693,121.536 L130.996,121.536 L130.263,119.313 L96.474,119.313 L95.693,121.536 Z M139.15,145.755 L141.787,145.755 L114.638,76 L113.466,76 L113.466,79.287 L139.15,145.755 Z" stroke="none" transform="translate(0,200)" />
        <path id="Baseline-S" d="M18,146 l800,0" />
        <path id="left-margin-Ultralight-M" d="M230,256 l0,110" />
        <path id="right-margin-Ultralight-M" d="M300,256 l0,110" />
        <path id="left-margin-Regular-M" d="M430,256 l0,110" />
        <path id="right-margin-Regular-M" d="M500,256 l0,110" />
        <path id="left-margin-Black-M" d="M630,256 l0,110" />
        <path id="right-margin-Black-M" d="M700,256 l0,110" />
        <path id="Capline-M" d="M18,276 l800,0" />
        <path id="Baseline-M" d="M18,346 l800,0" />
        <path id="Capline-L" d="M18,476 l800,0" />
        <path id="Baseline-L" d="M18,546 l800,0" />
    </g>
    <g id="Symbols">
        <g id="Ultralight-M" transform="translate(0,200)">
            <path d="M266.458,84.75 L274.333,84.75 C279.872,84.75 281.196,84.858 282.232,85.386 C283.329,85.945 284.222,86.837 284.781,87.935 C285.309,88.971 285.417,90.294 285.417,95.833 L285.417,126.167 C285.417,131.706 285.309,133.029 284.781,134.065 C284.222,135.163 283.329,136.055 282.232,136.614 C281.196,137.142 279.872,137.25 274.333,137.25 L255.667,137.25 C250.128,137.25 248.804,137.142 247.768,136.614 C246.671,136.055 245.778,135.163 245.219,134.065 C244.691,133.029 244.583,131.706 244.583,126.167 L244.583,124.125 C244.583,122.514 243.277,121.208 241.667,121.208 C240.056,121.208 238.75,122.514 238.75,124.125 L238.75,126.167 C238.75,132.878 238.88,134.473 240.021,136.713 C241.14,138.908 242.925,140.693 245.12,141.812 C247.361,142.953 248.956,143.083 255.667,143.083 L274.333,143.083 C281.044,143.083 282.639,142.953 284.88,141.812 C287.075,140.693 288.86,138.908 289.978,136.713 C291.12,134.473 291.25,132.878 291.25,126.167 L291.25,95.833 C291.25,89.122 291.12,87.527 289.979,85.287 C288.86,83.092 287.075,81.307 284.88,80.188 C282.639,79.047 281.044,78.917 274.333,78.917 L266.458,78.917 C264.848,78.917 263.542,80.223 263.542,81.833 C263.542,83.444 264.848,84.75 266.458,84.75 Z M276.667,111 L263.542,111 C261.931,111 260.625,112.306 260.625,113.917 C260.625,115.527 261.931,116.833 263.542,116.833 L276.667,116.833 C278.277,116.833 279.583,115.527 279.583,113.917 C279.583,112.306 278.277,111 276.667,111 Z M276.667,99.333 L266.458,99.333 C264.848,99.333 263.542,100.639 263.542,102.25 C263.542,103.861 264.848,105.167 266.458,105.167 L276.667,105.167 C278.277,105.167 279.583,103.861 279.583,102.25 C279.583,100.639 278.277,99.333 276.667,99.333 Z M276.667,122.667 L253.333,122.667 C251.723,122.667 250.417,123.973 250.417,125.583 C250.417,127.194 251.723,128.5 253.333,128.5 L276.667,128.5 C278.277,128.5 279.583,127.194 279.583,125.583 C279.583,123.973 278.277,122.667 276.667,122.667 Z M250.417,105.167 L250.417,89.125 C250.417,88.32 251.07,87.667 251.875,87.667 C252.68,87.667 253.333,88.32 253.333,89.125 L253.333,105.167 C253.333,108.388 250.722,111 247.5,111 C244.278,111 241.667,108.388 241.667,105.167 L241.667,93.5 C241.667,91.889 240.361,90.583 238.75,90.583 C237.139,90.583 235.833,91.889 235.833,93.5 L235.833,105.167 C235.833,111.61 241.057,116.833 247.5,116.833 C253.943,116.833 259.167,111.61 259.167,105.167 L259.167,89.125 C259.167,85.098 255.902,81.833 251.875,81.833 C247.848,81.833 244.583,85.098 244.583,89.125 L244.583,105.167 C244.583,106.777 245.889,108.083 247.5,108.083 C249.111,108.083 250.417,106.777 250.417,105.167 Z" />
        </g>
        <g id="Regular-M" transform="translate(0,200)">
            <path d="M466.458,84.75 L474.333,84.75 C479.872,84.75 481.196,84.858 482.232,85.386 C483.329,85.945 484.222,86.837 484.781,87.935 C485.309,88.971 485.417,90.294 485.417,95.833 L485.417,126.167 C485.417,131.706 485.309,133.029 484.781,134.065 C484.222,135.163 483.329,136.055 482.232,136.614 C481.196,137.142 479.872,137.25 474.333,137.25 L455.667,137.25 C450.128,137.25 448.804,137.142 447.768,136.614 C446.671,136.055 445.778,135.163 445.219,134.065 C444.691,133.029 444.583,131.706 444.583,126.167 L444.583,124.125 C444.583,122.514 443.277,121.208 441.667,121.208 C440.056,121.208 438.75,122.514 438.75,124.125 L438.75,126.167 C438.75,132.878 438.88,134.473 440.021,136.713 C441.14,138.908 442.925,140.693 445.12,141.812 C447.361,142.953 448.956,143.083 455.667,143.083 L474.333,143.083 C481.044,143.083 482.639,142.953 484.88,141.812 C487.075,140.693 488.86,138.908 489.978,136.713 C491.12,134.473 491.25,132.878 491.25,126.167 L491.25,95.833 C491.25,89.122 491.12,87.527 489.979,85.287 C488.86,83.092 487.075,81.307 484.88,80.188 C482.639,79.047 481.044,78.917 474.333,78.917 L466.458,78.917 C464.848,78.917 463.542,80.223 463.542,81.833 C463.542,83.444 464.848,84.75 466.458,84.75 Z M476.667,111 L463.542,111 C461.931,111 460.625,112.306 460.625,113.917 C460.625,115.527 461.931,116.833 463.542,116.833 L476.667,116.833 C478.277,116.833 479.583,115.527 479.583,113.917 C479.583,112.306 478.277,111 476.667,111 Z M476.667,99.333 L466.458,99.333 C464.848,99.333 463.542,100.639 463.542,102.25 C463.542,103.861 464.848,105.167 466.458,105.167 L476.667,105.167 C478.277,105.167 479.583,103.861 479.583,102.25 C479.583,100.639 478.277,99.333 476.667,99.333 Z M476.667,122.667 L453.333,122.667 C451.723,122.667 450.417,123.973 450.417,125.583 C450.417,127.194 451.723,128.5 453.333,128.5 L476.667,128.5 C478.277,128.5 479.583,127.194 479.583,125.583 C479.583,123.973 478.277,122.667 476.667,122.667 Z M450.417,105.167 L450.417,89.125 C450.417,88.32 451.07,87.667 451.875,87.667 C452.68,87.667 453.333,88.32 453.333,89.125 L453.333,105.167 C453.333,108.388 450.722,111 447.5,111 C444.278,111 441.667,108.388 441.667,105.167 L441.667,93.5 C441.667,91.889 440.361,90.583 438.75,90.583 C437.139,90.583 435.833,91.889 435.833,93.5 L435.833,105.167 C435.833,111.61 441.057,116.833 447.5,116.833 C453.943,116.833 459.167,111.61 459.167,105.167 L459.167,89.125 C459.167,85.098 455.902,81.833 451.875,81.833 C447.848,81.833 444.583,85.098 444.583,89.125 L444.583,105.167 C444.583,106.777 445.889,108.083 447.5,108.083 C449.111,108.083 450.417,106.777 450.417,105.167 Z" />
        </g>
        <g id="Black-M" transform="translate(0,200)">
            <path d="M666.458,84.75 L674.333,84.75 C679.872,84.75 681.196,84.858 682.232,85.386 C683.329,85.945 684.222,86.837 684.781,87.935 C685.309,88.971 685.417,90.294 685.417,95.833 L685.417,126.167 C685.417,131.706 685.309,133.029 684.781,134.065 C684.222,135.163 683.329,136.055 682.232,136.614 C681.196,137.142 679.872,137.25 674.333,137.25 L655.667,137.25 C650.128,137.25 648.804,137.142 647.768,136.614 C646.671,136.055 645.778,135.163 645.219,134.065 C644.691,133.029 644.583,131.706 644.583,126.167 L644.583,124.125 C644.583,122.514 643.278,121.208 641.667,121.208 C640.056,121.208 638.75,122.514 638.75,124.125 L638.75,126.167 C638.75,132.878 638.88,134.473 640.021,136.713 C641.14,138.908 642.925,140.693 645.12,141.812 C647.361,142.953 648.956,143.083 655.667,143.083 L674.333,143.083 C681.044,143.083 682.639,142.953 684.88,141.812 C687.075,140.693 688.86,138.908 689.978,136.713 C691.12,134.473 691.25,132.878 691.25,126.167 L691.25,95.833 C691.25,89.122 691.12,87.527 689.979,85.287 C688.86,83.092 687.075,81.307 684.88,80.188 C682.639,79.047 681.044,78.917 674.333,78.917 L666.458,78.917 C664.848,78.917 663.542,80.223 663.542,81.833 C663.542,83.444 664.848,84.75 666.458,84.75 Z M676.667,111 L663.542,111 C661.931,111 660.625,112.306 660.625,113.917 C660.625,115.527 661.931,116.833 663.542,116.833 L676.667,116.833 C678.277,116.833 679.583,115.527 679.583,113.917 C679.583,112.306 678.277,111 676.667,111 Z M676.667,99.333 L666.458,99.333 C664.848,99.333 663.542,100.639 663.542,102.25 C663.542,103.861 664.848,105.167 666.458,105.167 L676.667,105.167 C678.277,105.167 679.583,103.861 679.583,102.25 C679.583,100.639 678.277,99.333 676.667,99.333 Z M676.667,122.667 L653.333,122.667 C651.723,122.667 650.417,123.973 650.417,125.583 C650.417,127.194 651.723,128.5 653.333,128.5 L676.667,128.5 C678.277,128.5 679.583,127.194 679.583,125.583 C679.583,123.973 678.277,122.667 676.667,122.667 Z M650.417,105.167 L650.417,89.125 C650.417,88.32 651.07,87.667 651.875,87.667 C652.68,87.667 653.333,88.32 653.333,89.125 L653.333,105.167 C653.333,108.388 650.722,111 647.5,111 C644.278,111 641.667,108.388 641.667,105.167 L641.667,93.5 C641.667,91.889 640.361,90.583 638.75,90.583 C637.139,90.583 635.833,91.889 635.833,93.5 L635.833,105.167 C635.833,111.61 641.057,116.833 647.5,116.833 C653.943,116.833 659.167,111.61 659.167,105.167 L659.167,89.125 C659.167,85.098 655.902,81.833 651.875,81.833 C647.848,81.833 644.583,85.098 644.583,89.125 L644.583,105.167 C644.583,106.777 645.889,108.083 647.5,108.083 C649.111,108.083 650.417,106.777 650.417,105.167 Z" />
        </g>
    </g>
</svg>