<?xml version="1.0" encoding="UTF-8"?>
<svg height="600" width="800" xmlns="http://www.w3.org/2000/svg" xmlns:xlink="http://www.w3.org/1999/xlink">
    <g id="Notes" font-family="LucidaGrande, 'Lucida Grande', sans-serif" font-size="13">
        <rect fill="white" height="600.0" width="800.0" x="0.0" y="0.0" />
        <g font-size="13">
            <text x="18.0" y="176.0">Small</text>
            <text x="18.0" y="376.0">Medium</text>
            <text x="18.0" y="576.0">Large</text>
        </g>
        <g font-size="9">
            <text x="250.0" y="30.0">Ultralight</text>
            <text x="450.0" y="30.0">Regular</text>
            <text x="650.0" y="30.0">Black</text>
            <text id="template-version" fill="#505050" text-anchor="end" x="785.0" y="575.0">Template v.3.0</text>
            <a href="https://github.com/swhitty/SwiftDraw">
                <text fill="#505050" text-anchor="end" x="785.0" y="590.0">https://github.com/swhitty/SwiftDraw</text>
            </a>
        </g>
    </g>
    <g id="Guides" stroke="rgb(39, 170, 225)" stroke-width="0.5">
        <path id="Capline-S" d="M18,76 l800,0" />
        <path id="H-reference" d="M85,145.755 L87.685,145.755 L113.369,79.287 L114.052,79.287 L114.052,76 L112.148,76 L85,145.755 Z M95.693,121.536 L130.996,121.536 L130.263,119.313 L96.474,119.313 L95.693,121.536 Z M139.15,145.755 L141.787,145.755 L114.638,76 L113.466,76 L113.466,79.287 L139.15,145.755 Z" stroke="none" transform="translate(0,200)" />
        <path id="Baseline-S" d="M18,146 l800,0" />
        <path id="left-margin-Ultralight-M" d="M235,256 l0,110" />
        <path id="right-margin-Ultralight-M" d="M295,256 l0,110" />
        <path id="left-margin-Regular-M" d="M435,256 l0,110" />
        <path id="right-margin-Regular-M" d="M495,256 l0,110" />
        <path id="left-margin-Black-M" d="M635,256 l0,110" />
        <path id="right-margin-Black-M" d="M695,256 l0,110" />
        <path id="Capline-M" d="M18,276 l800,0" />
        <path id="Baseline-M" d="M18,346 l800,0" />
        <path id="Capline-L" d="M18,476 l800,0" />
        <path id="Baseline-L" d="M18,546 l800,0" />
    </g>
    <g id="Symbols">
        <g id="Ultralight-M" transform="translate(0,200)">
            <path d="M271.34,133.272 C271.34,136.787 268.502,139.636 265,139.636 C261.498,139.636 258.66,136.787 258.66,133.272 C258.66,131.515 257.241,130.091 255.49,130.091 C253.739,130.091 252.32,131.515 252.32,133.272 C252.32,140.302 257.997,146 265,146 C272.003,146 277.68,140.302 277.68,133.272 C277.68,131.515 276.261,130.091 274.51,130.091 C272.759,130.091 271.34,131.515 271.34,133.272 Z M272.971,94.881 C277.2,90.496 277.124,83.511 272.801,79.219 C268.478,74.927 261.519,74.927 257.196,79.219 C252.873,83.511 252.797,90.496 257.025,94.881 C258.243,96.144 260.25,96.177 261.508,94.955 C262.766,93.733 262.799,91.719 261.581,90.456 C259.769,88.576 259.802,85.583 261.654,83.743 C263.507,81.904 266.49,81.904 268.342,83.743 C270.195,85.583 270.228,88.576 268.415,90.456 C267.198,91.719 267.231,93.733 268.489,94.955 C269.747,96.177 271.754,96.144 272.971,94.881 Z M287.191,108.454 C287.191,103.118 284.773,98.043 280.523,94.349 C276.37,90.736 270.793,88.726 265,88.726 C259.205,88.726 253.627,90.736 249.473,94.349 C245.227,98.043 242.809,103.122 242.809,108.454 C242.809,114.465 241.504,119.322 239.218,123.206 C234.444,131.301 234.86,130.545 235.017,132.148 C235.16,133.637 235.73,134.642 236.934,135.531 C238.23,136.477 237.59,136.454 245.529,136.454 L284.471,136.454 C292.439,136.454 291.776,136.477 293.059,135.534 C294.262,134.654 294.839,133.64 294.984,132.146 C295.14,130.547 295.679,131.526 290.782,123.206 C288.496,119.322 287.191,114.465 287.191,108.454 Z M280.85,108.454 C280.85,115.596 282.457,121.572 285.324,126.443 C287.103,129.466 287.629,130.37 288.141,131.3 C288.426,131.817 288.619,132.192 288.723,132.427 C288.654,132.272 288.614,132.138 288.674,131.527 C288.704,131.214 289.064,130.581 289.318,130.395 C289.767,130.065 289.954,130.013 290.132,129.99 C289.942,130.015 289.609,130.038 289.137,130.054 C288.253,130.085 287.31,130.091 284.471,130.091 L245.529,130.091 C242.689,130.091 241.745,130.085 240.862,130.054 C240.389,130.038 240.057,130.015 239.866,129.99 C240.039,130.013 240.225,130.064 240.676,130.394 C240.937,130.586 241.297,131.222 241.327,131.531 C241.386,132.136 241.346,132.27 241.278,132.424 C241.382,132.189 241.574,131.814 241.858,131.297 C242.376,130.357 242.976,129.326 244.675,126.445 C247.543,121.572 249.15,115.596 249.15,108.454 C249.15,105.009 250.74,101.669 253.626,99.159 C256.605,96.567 260.703,95.09 265,95.09 C269.294,95.09 273.392,96.567 276.371,99.159 C279.261,101.67 280.85,105.007 280.85,108.454 Z" />
        </g>
        <g id="Regular-M" transform="translate(0,200)">
            <path d="M471.34,133.272 C471.34,136.787 468.502,139.636 465,139.636 C461.498,139.636 458.66,136.787 458.66,133.272 C458.66,131.515 457.241,130.091 455.49,130.091 C453.739,130.091 452.32,131.515 452.32,133.272 C452.32,140.302 457.997,146 465,146 C472.003,146 477.68,140.302 477.68,133.272 C477.68,131.515 476.261,130.091 474.51,130.091 C472.759,130.091 471.34,131.515 471.34,133.272 Z M472.971,94.881 C477.2,90.496 477.124,83.511 472.801,79.219 C468.478,74.927 461.519,74.927 457.196,79.219 C452.873,83.511 452.797,90.496 457.025,94.881 C458.243,96.144 460.25,96.177 461.508,94.955 C462.766,93.733 462.799,91.719 461.581,90.456 C459.769,88.576 459.802,85.583 461.654,83.743 C463.507,81.904 466.49,81.904 468.342,83.743 C470.195,85.583 470.228,88.576 468.415,90.456 C467.198,91.719 467.231,93.733 468.489,94.955 C469.747,96.177 471.754,96.144 472.971,94.881 Z M487.191,108.454 C487.191,103.118 484.773,98.043 480.523,94.349 C476.37,90.736 470.793,88.726 465,88.726 C459.205,88.726 453.627,90.736 449.473,94.349 C445.227,98.043 442.809,103.122 442.809,108.454 C442.809,114.465 441.504,119.322 439.218,123.206 C434.444,131.301 434.86,130.545 435.017,132.148 C435.16,133.637 435.73,134.642 436.934,135.531 C438.23,136.477 437.59,136.454 445.529,136.454 L484.471,136.454 C492.439,136.454 491.776,136.477 493.059,135.534 C494.262,134.654 494.839,133.64 494.984,132.146 C495.14,130.547 495.679,131.526 490.782,123.206 C488.496,119.322 487.191,114.465 487.191,108.454 Z M480.85,108.454 C480.85,115.596 482.457,121.572 485.324,126.443 C487.103,129.466 487.629,130.37 488.141,131.3 C488.426,131.817 488.619,132.192 488.723,132.427 C488.654,132.272 488.614,132.138 488.674,131.527 C488.704,131.214 489.064,130.581 489.318,130.395 C489.767,130.065 489.954,130.013 490.132,129.99 C489.942,130.015 489.609,130.038 489.137,130.054 C488.253,130.085 487.31,130.091 484.471,130.091 L445.529,130.091 C442.689,130.091 441.745,130.085 440.862,130.054 C440.389,130.038 440.057,130.015 439.866,129.99 C440.039,130.013 440.225,130.064 440.676,130.394 C440.937,130.586 441.297,131.222 441.327,131.531 C441.386,132.136 441.346,132.27 441.278,132.424 C441.382,132.189 441.574,131.814 441.858,131.297 C442.376,130.357 442.976,129.326 444.675,126.445 C447.543,121.572 449.15,115.596 449.15,108.454 C449.15,105.009 450.74,101.669 453.626,99.159 C456.605,96.567 460.703,95.09 465,95.09 C469.294,95.09 473.392,96.567 476.371,99.159 C479.261,101.67 480.85,105.007 480.85,108.454 Z" />
        </g>
        <g id="Black-M" transform="translate(0,200)">
            <path d="M671.34,133.272 C671.34,136.787 668.502,139.636 665,139.636 C661.498,139.636 658.66,136.787 658.66,133.272 C658.66,131.515 657.241,130.091 655.49,130.091 C653.739,130.091 652.32,131.515 652.32,133.272 C652.32,140.302 657.997,146 665,146 C672.003,146 677.68,140.302 677.68,133.272 C677.68,131.515 676.261,130.091 674.51,130.091 C672.759,130.091 671.34,131.515 671.34,133.272 Z M672.971,94.881 C677.2,90.496 677.124,83.511 672.801,79.219 C668.478,74.927 661.519,74.927 657.196,79.219 C652.873,83.511 652.797,90.496 657.025,94.881 C658.243,96.144 660.25,96.177 661.508,94.955 C662.766,93.733 662.799,91.719 661.581,90.456 C659.769,88.576 659.802,85.583 661.654,83.743 C663.507,81.904 666.49,81.904 668.342,83.743 C670.195,85.583 670.228,88.576 668.415,90.456 C667.198,91.719 667.231,93.733 668.489,94.955 C669.747,96.177 671.754,96.144 672.971,94.881 Z M687.191,108.454 C687.191,103.118 684.773,98.043 680.523,94.349 C676.37,90.736 670.792,88.726 665,88.726 C659.205,88.726 653.627,90.736 649.473,94.349 C645.227,98.043 642.809,103.122 642.809,108.454 C642.809,114.465 641.504,119.322 639.218,123.206 C634.444,131.301 634.86,130.545 635.017,132.148 C635.16,133.637 635.73,134.642 636.934,135.531 C638.23,136.477 637.59,136.454 645.529,136.454 L684.471,136.454 C692.439,136.454 691.776,136.477 693.059,135.534 C694.262,134.654 694.839,133.64 694.984,132.146 C695.14,130.547 695.679,131.526 690.782,123.206 C688.496,119.322 687.191,114.465 687.191,108.454 Z M680.85,108.454 C680.85,115.596 682.457,121.572 685.324,126.443 C687.103,129.466 687.629,130.37 688.141,131.3 C688.426,131.817 688.619,132.192 688.723,132.427 C688.654,132.272 688.614,132.138 688.674,131.527 C688.704,131.214 689.064,130.581 689.318,130.395 C689.767,130.065 689.954,130.013 690.132,129.99 C689.942,130.015 689.609,130.038 689.137,130.054 C688.253,130.085 687.31,130.091 684.471,130.091 L645.529,130.091 C642.689,130.091 641.745,130.085 640.862,130.054 C640.389,130.038 640.057,130.015 639.866,129.99 C640.039,130.013 640.225,130.064 640.676,130.394 C640.937,130.586 641.297,131.222 641.327,131.531 C641.386,132.136 641.346,132.27 641.278,132.424 C641.382,132.189 641.574,131.814 641.858,131.297 C642.376,130.357 642.976,129.326 644.675,126.445 C647.543,121.572 649.15,115.596 649.15,108.454 C649.15,105.009 650.74,101.669 653.625,99.159 C656.605,96.567 660.703,95.09 665,95.09 C669.294,95.09 673.392,96.567 676.371,99.159 C679.261,101.67 680.85,105.007 680.85,108.454 Z" />
        </g>
    </g>
</svg>