<?xml version="1.0" encoding="UTF-8"?>
<svg height="600" width="800" xmlns="http://www.w3.org/2000/svg" xmlns:xlink="http://www.w3.org/1999/xlink">
    <g id="Notes" font-family="LucidaGrande, 'Lucida Grande', sans-serif" font-size="13">
        <rect fill="white" height="600.0" width="800.0" x="0.0" y="0.0" />
        <g font-size="13">
            <text x="18.0" y="176.0">Small</text>
            <text x="18.0" y="376.0">Medium</text>
            <text x="18.0" y="576.0">Large</text>
        </g>
        <g font-size="9">
            <text x="250.0" y="30.0">Ultralight</text>
            <text x="450.0" y="30.0">Regular</text>
            <text x="650.0" y="30.0">Black</text>
            <text id="template-version" fill="#505050" text-anchor="end" x="785.0" y="575.0">Template v.3.0</text>
            <a href="https://github.com/swhitty/SwiftDraw">
                <text fill="#505050" text-anchor="end" x="785.0" y="590.0">https://github.com/swhitty/SwiftDraw</text>
            </a>
        </g>
    </g>
    <g id="Guides" stroke="rgb(39, 170, 225)" stroke-width="0.5">
        <path id="Capline-S" d="M18,76 l800,0" />
        <path id="H-reference" d="M85,145.755 L87.685,145.755 L113.369,79.287 L114.052,79.287 L114.052,76 L112.148,76 L85,145.755 Z M95.693,121.536 L130.996,121.536 L130.263,119.313 L96.474,119.313 L95.693,121.536 Z M139.15,145.755 L141.787,145.755 L114.638,76 L113.466,76 L113.466,79.287 L139.15,145.755 Z" stroke="none" transform="translate(0,200)" />
        <path id="Baseline-S" d="M18,146 l800,0" />
        <path id="left-margin-Ultralight-M" d="M230,256 l0,110" />
        <path id="right-margin-Ultralight-M" d="M300,256 l0,110" />
        <path id="left-margin-Regular-M" d="M430,256 l0,110" />
        <path id="right-margin-Regular-M" d="M500,256 l0,110" />
        <path id="left-margin-Black-M" d="M630,256 l0,110" />
        <path id="right-margin-Black-M" d="M700,256 l0,110" />
        <path id="Capline-M" d="M18,276 l800,0" />
        <path id="Baseline-M" d="M18,346 l800,0" />
        <path id="Capline-L" d="M18,476 l800,0" />
        <path id="Baseline-L" d="M18,546 l800,0" />
    </g>
    <g id="Symbols">
        <g id="Ultralight-M" transform="translate(0,200)">
            <path d="M295.647,105.339 L271.671,81.364 C269.72,79.412 269.166,78.891 268.266,78.251 C268.072,78.114 267.877,77.984 267.678,77.862 C266.549,77.169 265.317,76.657 264.029,76.347 C262.721,76.037 261.904,76 258.724,76 L246.057,76 C244.313,76 242.9,77.414 242.9,79.157 C242.9,80.901 244.313,82.314 246.057,82.314 L258.724,82.314 C261.33,82.314 261.945,82.342 262.561,82.488 C263.193,82.641 263.809,82.896 264.374,83.243 C264.451,83.29 264.527,83.341 264.605,83.396 C265.094,83.744 265.555,84.177 267.207,85.829 L291.182,109.804 C292.415,111.037 294.414,111.037 295.647,109.804 C296.88,108.571 296.88,106.572 295.647,105.339 Z M233.428,100.31 L233.428,106.545 C233.428,108.765 233.455,109.342 233.689,110.32 C233.93,111.304 234.31,112.226 234.827,113.067 C234.915,113.21 235.01,113.355 235.111,113.498 C235.588,114.172 235.95,114.558 237.311,115.919 L261.937,140.545 C265.041,143.649 265.886,144.402 267.415,145.144 C267.732,145.297 268.054,145.428 268.385,145.535 C270.29,146.155 272.339,146.155 274.241,145.536 C274.574,145.428 274.896,145.297 275.214,145.144 C276.743,144.402 277.588,143.649 280.691,140.545 L288.502,132.734 C291.606,129.631 292.359,128.786 293.101,127.257 C293.254,126.939 293.385,126.617 293.492,126.287 C294.112,124.382 294.112,122.333 293.493,120.431 C293.385,120.097 293.254,119.775 293.101,119.458 C292.359,117.929 291.606,117.084 288.502,113.98 L265.455,90.933 C263.882,89.36 263.455,88.971 262.597,88.446 C261.752,87.927 260.826,87.543 259.859,87.311 C258.877,87.076 258.3,87.05 256.081,87.05 L246.689,87.05 C241.634,87.05 240.434,87.148 238.6,88.082 C236.818,88.99 235.369,90.439 234.461,92.221 C233.527,94.056 233.428,95.256 233.428,100.31 Z M239.743,100.31 C239.743,96.524 239.817,95.618 240.087,95.088 C240.39,94.494 240.873,94.011 241.467,93.708 C241.997,93.438 242.903,93.364 246.689,93.364 L256.081,93.364 C257.72,93.364 258.094,93.381 258.387,93.451 C258.707,93.528 259.016,93.656 259.299,93.83 C259.554,93.986 259.832,94.24 260.99,95.398 L284.037,118.445 C286.495,120.903 287.128,121.612 287.419,122.212 C287.449,122.274 287.472,122.331 287.489,122.385 C287.694,123.016 287.694,123.699 287.488,124.333 C287.472,124.384 287.449,124.44 287.419,124.502 C287.128,125.102 286.495,125.812 284.037,128.269 L276.227,136.08 C273.769,138.538 273.059,139.171 272.459,139.462 C272.397,139.492 272.341,139.515 272.287,139.532 C271.656,139.737 270.973,139.737 270.339,139.531 C270.288,139.515 270.231,139.492 270.169,139.462 C269.569,139.171 268.86,138.538 266.402,136.08 L241.776,111.454 C240.721,110.4 240.447,110.108 240.268,109.853 C240.246,109.823 240.227,109.794 240.21,109.766 C240.038,109.486 239.909,109.173 239.826,108.834 C239.76,108.559 239.743,108.184 239.743,106.545 L239.743,100.31 Z" />
        </g>
        <g id="Regular-M" transform="translate(0,200)">
            <path d="M495.647,105.339 L471.671,81.364 C469.72,79.412 469.166,78.891 468.266,78.251 C468.072,78.114 467.877,77.984 467.678,77.862 C466.549,77.169 465.317,76.657 464.029,76.347 C462.721,76.037 461.904,76 458.724,76 L446.057,76 C444.313,76 442.9,77.414 442.9,79.157 C442.9,80.901 444.313,82.314 446.057,82.314 L458.724,82.314 C461.33,82.314 461.945,82.342 462.561,82.488 C463.193,82.641 463.809,82.896 464.374,83.243 C464.451,83.29 464.527,83.341 464.605,83.396 C465.094,83.744 465.555,84.177 467.207,85.829 L491.182,109.804 C492.415,111.037 494.414,111.037 495.647,109.804 C496.88,108.571 496.88,106.572 495.647,105.339 Z M433.428,100.31 L433.428,106.545 C433.428,108.765 433.455,109.342 433.689,110.32 C433.93,111.304 434.31,112.226 434.827,113.067 C434.915,113.21 435.01,113.355 435.111,113.498 C435.588,114.172 435.95,114.558 437.311,115.919 L461.937,140.545 C465.041,143.649 465.886,144.402 467.415,145.144 C467.732,145.297 468.054,145.428 468.385,145.535 C470.29,146.155 472.339,146.155 474.241,145.536 C474.574,145.428 474.896,145.297 475.214,145.144 C476.743,144.402 477.588,143.649 480.691,140.545 L488.502,132.734 C491.606,129.631 492.359,128.786 493.101,127.257 C493.254,126.939 493.385,126.617 493.492,126.287 C494.112,124.382 494.112,122.333 493.493,120.431 C493.385,120.097 493.254,119.775 493.101,119.458 C492.359,117.929 491.606,117.084 488.502,113.98 L465.455,90.933 C463.882,89.36 463.455,88.971 462.597,88.446 C461.752,87.927 460.826,87.543 459.859,87.311 C458.877,87.076 458.3,87.05 456.081,87.05 L446.689,87.05 C441.634,87.05 440.434,87.148 438.6,88.082 C436.818,88.99 435.369,90.439 434.461,92.221 C433.527,94.056 433.428,95.256 433.428,100.31 Z M439.743,100.31 C439.743,96.524 439.817,95.618 440.087,95.088 C440.39,94.494 440.873,94.011 441.467,93.708 C441.997,93.438 442.903,93.364 446.689,93.364 L456.081,93.364 C457.72,93.364 458.094,93.381 458.387,93.451 C458.707,93.528 459.016,93.656 459.299,93.83 C459.554,93.986 459.832,94.24 460.99,95.398 L484.037,118.445 C486.495,120.903 487.128,121.612 487.419,122.212 C487.449,122.274 487.472,122.331 487.489,122.385 C487.694,123.016 487.694,123.699 487.488,124.333 C487.472,124.384 487.449,124.44 487.419,124.502 C487.128,125.102 486.495,125.812 484.037,128.269 L476.227,136.08 C473.769,138.538 473.059,139.171 472.459,139.462 C472.397,139.492 472.341,139.515 472.287,139.532 C471.656,139.737 470.973,139.737 470.339,139.531 C470.288,139.515 470.231,139.492 470.169,139.462 C469.569,139.171 468.86,138.538 466.402,136.08 L441.776,111.454 C440.721,110.4 440.447,110.108 440.268,109.853 C440.246,109.823 440.227,109.794 440.21,109.766 C440.038,109.486 439.909,109.173 439.826,108.834 C439.76,108.559 439.743,108.184 439.743,106.545 L439.743,100.31 Z" />
        </g>
        <g id="Black-M" transform="translate(0,200)">
            <path d="M695.647,105.339 L671.671,81.364 C669.719,79.412 669.166,78.891 668.266,78.251 C668.072,78.114 667.877,77.984 667.678,77.862 C666.549,77.169 665.317,76.657 664.029,76.347 C662.721,76.037 661.904,76 658.724,76 L646.057,76 C644.313,76 642.9,77.414 642.9,79.157 C642.9,80.901 644.313,82.314 646.057,82.314 L658.724,82.314 C661.33,82.314 661.945,82.342 662.561,82.488 C663.193,82.641 663.809,82.896 664.374,83.243 C664.451,83.29 664.527,83.341 664.605,83.396 C665.094,83.744 665.555,84.177 667.207,85.829 L691.182,109.804 C692.415,111.037 694.414,111.037 695.647,109.804 C696.88,108.571 696.88,106.572 695.647,105.339 Z M633.428,100.31 L633.428,106.545 C633.428,108.765 633.455,109.342 633.689,110.32 C633.93,111.304 634.31,112.226 634.827,113.067 C634.915,113.21 635.01,113.355 635.111,113.498 C635.588,114.172 635.95,114.558 637.311,115.919 L661.937,140.545 C665.041,143.649 665.886,144.402 667.415,145.144 C667.732,145.297 668.054,145.428 668.385,145.535 C670.29,146.155 672.339,146.155 674.241,145.536 C674.574,145.428 674.896,145.297 675.214,145.144 C676.743,144.402 677.588,143.649 680.691,140.545 L688.502,132.734 C691.606,129.631 692.359,128.786 693.101,127.257 C693.254,126.939 693.385,126.617 693.492,126.287 C694.112,124.382 694.112,122.333 693.494,120.431 C693.385,120.097 693.254,119.775 693.101,119.458 C692.359,117.929 691.606,117.084 688.502,113.98 L665.455,90.933 C663.882,89.36 663.455,88.971 662.597,88.446 C661.752,87.927 660.826,87.543 659.859,87.311 C658.878,87.076 658.3,87.05 656.081,87.05 L646.689,87.05 C641.634,87.05 640.434,87.148 638.6,88.082 C636.818,88.99 635.369,90.439 634.461,92.221 C633.526,94.056 633.428,95.256 633.428,100.31 Z M639.743,100.31 C639.743,96.524 639.817,95.618 640.087,95.088 C640.39,94.494 640.873,94.011 641.467,93.708 C641.997,93.438 642.903,93.364 646.689,93.364 L656.081,93.364 C657.72,93.364 658.094,93.381 658.387,93.451 C658.707,93.528 659.016,93.656 659.299,93.83 C659.554,93.986 659.832,94.24 660.99,95.398 L684.037,118.445 C686.495,120.903 687.128,121.612 687.419,122.212 C687.449,122.274 687.472,122.331 687.489,122.385 C687.694,123.016 687.694,123.699 687.488,124.333 C687.472,124.384 687.449,124.44 687.419,124.502 C687.128,125.102 686.495,125.812 684.037,128.269 L676.227,136.08 C673.769,138.538 673.059,139.171 672.459,139.462 C672.397,139.492 672.341,139.515 672.287,139.532 C671.656,139.737 670.973,139.737 670.339,139.531 C670.288,139.515 670.232,139.492 670.169,139.462 C669.569,139.171 668.86,138.538 666.402,136.08 L641.776,111.454 C640.721,110.4 640.447,110.108 640.268,109.853 C640.246,109.823 640.227,109.794 640.21,109.766 C640.038,109.486 639.909,109.173 639.826,108.834 C639.76,108.559 639.743,108.184 639.743,106.545 L639.743,100.31 Z" />
        </g>
    </g>
</svg>