<?xml version="1.0" encoding="UTF-8"?>
<svg height="600" width="800" xmlns="http://www.w3.org/2000/svg" xmlns:xlink="http://www.w3.org/1999/xlink">
    <g id="Notes" font-family="LucidaGrande, 'Lucida Grande', sans-serif" font-size="13">
        <rect fill="white" height="600.0" width="800.0" x="0.0" y="0.0" />
        <g font-size="13">
            <text x="18.0" y="176.0">Small</text>
            <text x="18.0" y="376.0">Medium</text>
            <text x="18.0" y="576.0">Large</text>
        </g>
        <g font-size="9">
            <text x="250.0" y="30.0">Ultralight</text>
            <text x="450.0" y="30.0">Regular</text>
            <text x="650.0" y="30.0">Black</text>
            <text id="template-version" fill="#505050" text-anchor="end" x="785.0" y="575.0">Template v.3.0</text>
            <a href="https://github.com/swhitty/SwiftDraw">
                <text fill="#505050" text-anchor="end" x="785.0" y="590.0">https://github.com/swhitty/SwiftDraw</text>
            </a>
        </g>
    </g>
    <g id="Guides" stroke="rgb(39, 170, 225)" stroke-width="0.5">
        <path id="Capline-S" d="M18,76 l800,0" />
        <path id="H-reference" d="M85,145.755 L87.685,145.755 L113.369,79.287 L114.052,79.287 L114.052,76 L112.148,76 L85,145.755 Z M95.693,121.536 L130.996,121.536 L130.263,119.313 L96.474,119.313 L95.693,121.536 Z M139.15,145.755 L141.787,145.755 L114.638,76 L113.466,76 L113.466,79.287 L139.15,145.755 Z" stroke="none" transform="translate(0,200)" />
        <path id="Baseline-S" d="M18,146 l800,0" />
        <path id="left-margin-Ultralight-M" d="M228.25,256 l0,110" />
        <path id="right-margin-Ultralight-M" d="M301.75,256 l0,110" />
        <path id="left-margin-Regular-M" d="M428.25,256 l0,110" />
        <path id="right-margin-Regular-M" d="M501.75,256 l0,110" />
        <path id="left-margin-Black-M" d="M628.25,256 l0,110" />
        <path id="right-margin-Black-M" d="M701.75,256 l0,110" />
        <path id="Capline-M" d="M18,276 l800,0" />
        <path id="Baseline-M" d="M18,346 l800,0" />
        <path id="Capline-L" d="M18,476 l800,0" />
        <path id="Baseline-L" d="M18,546 l800,0" />
    </g>
    <g id="Symbols">
        <g id="Ultralight-M" transform="translate(0,200)">
            <path d="M300.758,113.785 L293.984,106.786 C292.662,105.419 290.517,105.419 289.194,106.786 L282.421,113.785 C281.098,115.152 281.098,117.368 282.421,118.735 C283.743,120.101 285.888,120.101 287.211,118.735 L293.984,111.735 L289.194,111.735 L295.968,118.735 C297.291,120.101 299.435,120.101 300.758,118.735 C302.081,117.368 302.081,115.152 300.758,113.785 Z M289.219,111.009 C289.212,125.04 279.163,136.897 265.707,138.752 C252.252,140.607 239.545,131.889 235.98,118.355 C232.414,104.822 239.091,90.65 251.599,85.202 C264.107,79.754 278.587,84.71 285.473,96.798 C286.422,98.463 288.498,99.019 290.11,98.038 C291.722,97.057 292.259,94.912 291.31,93.247 C282.702,78.138 264.603,71.942 248.968,78.752 C233.333,85.563 224.987,103.277 229.444,120.194 C233.901,137.11 249.785,148.009 266.603,145.69 C283.422,143.371 295.984,128.55 295.992,111.012 C295.993,109.079 294.478,107.512 292.607,107.511 C290.737,107.51 289.219,109.076 289.219,111.009 Z M258.737,93.512 L258.737,111.011 C258.737,112.181 259.303,113.273 260.245,113.922 L270.405,120.922 C271.962,121.994 274.065,121.559 275.102,119.951 C276.14,118.343 275.719,116.17 274.163,115.098 L264.002,108.099 L265.51,111.011 L265.51,93.512 C265.51,91.579 263.994,90.013 262.124,90.013 C260.253,90.013 258.737,91.579 258.737,93.512 Z" />
        </g>
        <g id="Regular-M" transform="translate(0,200)">
            <path d="M500.758,113.785 L493.984,106.786 C492.662,105.419 490.517,105.419 489.194,106.786 L482.421,113.785 C481.098,115.152 481.098,117.368 482.421,118.735 C483.743,120.101 485.888,120.101 487.211,118.735 L493.984,111.735 L489.194,111.735 L495.968,118.735 C497.291,120.101 499.435,120.101 500.758,118.735 C502.081,117.368 502.081,115.152 500.758,113.785 Z M489.219,111.009 C489.212,125.04 479.163,136.897 465.707,138.752 C452.252,140.607 439.545,131.889 435.98,118.355 C432.414,104.822 439.091,90.65 451.599,85.202 C464.107,79.754 478.587,84.71 485.473,96.798 C486.422,98.463 488.498,99.019 490.11,98.038 C491.722,97.057 492.259,94.912 491.31,93.247 C482.702,78.138 464.603,71.942 448.968,78.752 C433.333,85.563 424.987,103.277 429.444,120.194 C433.901,137.11 449.785,148.009 466.603,145.69 C483.422,143.371 495.984,128.55 495.992,111.012 C495.993,109.079 494.478,107.512 492.607,107.511 C490.737,107.51 489.219,109.076 489.219,111.009 Z M458.737,93.512 L458.737,111.011 C458.737,112.181 459.303,113.273 460.245,113.922 L470.405,120.922 C471.962,121.994 474.065,121.559 475.102,119.951 C476.14,118.343 475.719,116.17 474.163,115.098 L464.002,108.099 L465.51,111.011 L465.51,93.512 C465.51,91.579 463.994,90.013 462.124,90.013 C460.253,90.013 458.737,91.579 458.737,93.512 Z" />
        </g>
        <g id="Black-M" transform="translate(0,200)">
            <path d="M700.758,113.785 L693.984,106.786 C692.662,105.419 690.517,105.419 689.194,106.786 L682.421,113.785 C681.098,115.152 681.098,117.368 682.421,118.735 C683.743,120.101 685.888,120.101 687.211,118.735 L693.984,111.735 L689.194,111.735 L695.968,118.735 C697.291,120.101 699.435,120.101 700.758,118.735 C702.081,117.368 702.081,115.152 700.758,113.785 Z M689.219,111.009 C689.212,125.04 679.163,136.897 665.707,138.752 C652.252,140.607 639.545,131.889 635.98,118.355 C632.414,104.822 639.091,90.65 651.599,85.202 C664.107,79.754 678.587,84.71 685.473,96.798 C686.422,98.463 688.498,99.019 690.11,98.038 C691.722,97.057 692.259,94.912 691.31,93.247 C682.702,78.138 664.603,71.942 648.968,78.752 C633.333,85.563 624.987,103.277 629.444,120.194 C633.901,137.11 649.785,148.009 666.603,145.69 C683.422,143.371 695.984,128.55 695.992,111.012 C695.993,109.079 694.478,107.512 692.607,107.511 C690.737,107.51 689.219,109.076 689.219,111.009 Z M658.737,93.512 L658.737,111.011 C658.737,112.181 659.303,113.273 660.245,113.922 L670.405,120.922 C671.962,121.994 674.065,121.559 675.102,119.951 C676.14,118.343 675.719,116.17 674.163,115.098 L664.002,108.099 L665.51,111.011 L665.51,93.512 C665.51,91.579 663.994,90.013 662.124,90.013 C660.253,90.013 658.737,91.579 658.737,93.512 Z" />
        </g>
    </g>
</svg>