<?xml version="1.0" encoding="UTF-8"?>
<svg height="600" width="800" xmlns="http://www.w3.org/2000/svg" xmlns:xlink="http://www.w3.org/1999/xlink">
    <g id="Notes" font-family="LucidaGrande, 'Lucida Grande', sans-serif" font-size="13">
        <rect fill="white" height="600.0" width="800.0" x="0.0" y="0.0" />
        <g font-size="13">
            <text x="18.0" y="176.0">Small</text>
            <text x="18.0" y="376.0">Medium</text>
            <text x="18.0" y="576.0">Large</text>
        </g>
        <g font-size="9">
            <text x="250.0" y="30.0">Ultralight</text>
            <text x="450.0" y="30.0">Regular</text>
            <text x="650.0" y="30.0">Black</text>
            <text id="template-version" fill="#505050" text-anchor="end" x="785.0" y="575.0">Template v.3.0</text>
            <a href="https://github.com/swhitty/SwiftDraw">
                <text fill="#505050" text-anchor="end" x="785.0" y="590.0">https://github.com/swhitty/SwiftDraw</text>
            </a>
        </g>
    </g>
    <g id="Guides" stroke="rgb(39, 170, 225)" stroke-width="0.5">
        <path id="Capline-S" d="M18,76 l800,0" />
        <path id="H-reference" d="M85,145.755 L87.685,145.755 L113.369,79.287 L114.052,79.287 L114.052,76 L112.148,76 L85,145.755 Z M95.693,121.536 L130.996,121.536 L130.263,119.313 L96.474,119.313 L95.693,121.536 Z M139.15,145.755 L141.787,145.755 L114.638,76 L113.466,76 L113.466,79.287 L139.15,145.755 Z" stroke="none" transform="translate(0,200)" />
        <path id="Baseline-S" d="M18,146 l800,0" />
        <path id="left-margin-Ultralight-M" d="M230,256 l0,110" />
        <path id="right-margin-Ultralight-M" d="M300,256 l0,110" />
        <path id="left-margin-Regular-M" d="M430,256 l0,110" />
        <path id="right-margin-Regular-M" d="M500,256 l0,110" />
        <path id="left-margin-Black-M" d="M630,256 l0,110" />
        <path id="right-margin-Black-M" d="M700,256 l0,110" />
        <path id="Capline-M" d="M18,276 l800,0" />
        <path id="Baseline-M" d="M18,346 l800,0" />
        <path id="Capline-L" d="M18,476 l800,0" />
        <path id="Baseline-L" d="M18,546 l800,0" />
    </g>
    <g id="Symbols">
        <g id="Ultralight-M" transform="translate(0,200)">
            <path d="M288.333,119.75 L288.333,123.25 C288.333,128.789 288.225,130.112 287.697,131.149 C287.138,132.246 286.246,133.138 285.148,133.698 C284.112,134.225 282.789,134.333 277.25,134.333 L252.75,134.333 C247.211,134.333 245.888,134.225 244.851,133.697 C243.754,133.138 242.862,132.246 242.303,131.148 C241.775,130.112 241.667,128.789 241.667,123.25 L241.667,119.75 C241.667,118.139 240.361,116.833 238.75,116.833 C237.139,116.833 235.833,118.139 235.833,119.75 L235.833,123.25 C235.833,129.961 235.964,131.556 237.105,133.796 C238.224,135.992 240.008,137.777 242.203,138.895 C244.444,140.036 246.039,140.167 252.75,140.167 L277.25,140.167 C283.961,140.167 285.556,140.036 287.796,138.895 C289.992,137.777 291.776,135.992 292.895,133.797 C294.036,131.556 294.167,129.961 294.167,123.25 L294.167,119.75 C294.167,118.139 292.861,116.833 291.25,116.833 C289.639,116.833 288.333,118.139 288.333,119.75 Z M281.646,97.271 L267.062,82.688 C265.923,81.549 264.077,81.549 262.938,82.688 C261.799,83.827 261.799,85.673 262.938,86.812 L277.521,101.396 C278.66,102.535 280.507,102.535 281.646,101.396 C282.785,100.257 282.785,98.41 281.646,97.271 Z M262.938,82.688 L248.354,97.271 C247.215,98.41 247.215,100.257 248.354,101.396 C249.493,102.535 251.34,102.535 252.479,101.396 L267.062,86.812 C268.201,85.673 268.201,83.827 267.062,82.688 C265.923,81.549 264.077,81.549 262.938,82.688 Z M262.083,84.75 L262.083,119.75 C262.083,121.361 263.389,122.667 265,122.667 C266.611,122.667 267.917,121.361 267.917,119.75 L267.917,84.75 C267.917,83.139 266.611,81.833 265,81.833 C263.389,81.833 262.083,83.139 262.083,84.75 Z" />
        </g>
        <g id="Regular-M" transform="translate(0,200)">
            <path d="M488.333,119.75 L488.333,123.25 C488.333,128.789 488.225,130.112 487.697,131.149 C487.138,132.246 486.246,133.138 485.148,133.698 C484.112,134.225 482.789,134.333 477.25,134.333 L452.75,134.333 C447.211,134.333 445.888,134.225 444.851,133.697 C443.754,133.138 442.862,132.246 442.302,131.148 C441.775,130.112 441.667,128.789 441.667,123.25 L441.667,119.75 C441.667,118.139 440.361,116.833 438.75,116.833 C437.139,116.833 435.833,118.139 435.833,119.75 L435.833,123.25 C435.833,129.961 435.964,131.556 437.105,133.796 C438.224,135.992 440.008,137.777 442.203,138.895 C444.444,140.036 446.039,140.167 452.75,140.167 L477.25,140.167 C483.961,140.167 485.556,140.036 487.796,138.895 C489.992,137.777 491.776,135.992 492.895,133.797 C494.036,131.556 494.167,129.961 494.167,123.25 L494.167,119.75 C494.167,118.139 492.861,116.833 491.25,116.833 C489.639,116.833 488.333,118.139 488.333,119.75 Z M481.646,97.271 L467.062,82.688 C465.923,81.549 464.077,81.549 462.938,82.688 C461.799,83.827 461.799,85.673 462.938,86.812 L477.521,101.396 C478.66,102.535 480.507,102.535 481.646,101.396 C482.785,100.257 482.785,98.41 481.646,97.271 Z M462.938,82.688 L448.354,97.271 C447.215,98.41 447.215,100.257 448.354,101.396 C449.493,102.535 451.34,102.535 452.479,101.396 L467.062,86.812 C468.201,85.673 468.201,83.827 467.062,82.688 C465.923,81.549 464.077,81.549 462.938,82.688 Z M462.083,84.75 L462.083,119.75 C462.083,121.361 463.389,122.667 465,122.667 C466.611,122.667 467.917,121.361 467.917,119.75 L467.917,84.75 C467.917,83.139 466.611,81.833 465,81.833 C463.389,81.833 462.083,83.139 462.083,84.75 Z" />
        </g>
        <g id="Black-M" transform="translate(0,200)">
            <path d="M688.333,119.75 L688.333,123.25 C688.333,128.789 688.225,130.112 687.697,131.149 C687.138,132.246 686.246,133.138 685.148,133.698 C684.112,134.225 682.789,134.333 677.25,134.333 L652.75,134.333 C647.211,134.333 645.888,134.225 644.851,133.697 C643.754,133.138 642.862,132.246 642.302,131.148 C641.775,130.112 641.667,128.789 641.667,123.25 L641.667,119.75 C641.667,118.139 640.361,116.833 638.75,116.833 C637.139,116.833 635.833,118.139 635.833,119.75 L635.833,123.25 C635.833,129.961 635.964,131.556 637.105,133.796 C638.224,135.992 640.008,137.777 642.203,138.895 C644.444,140.036 646.039,140.167 652.75,140.167 L677.25,140.167 C683.961,140.167 685.556,140.036 687.796,138.895 C689.992,137.777 691.776,135.992 692.895,133.797 C694.036,131.556 694.167,129.961 694.167,123.25 L694.167,119.75 C694.167,118.139 692.861,116.833 691.25,116.833 C689.639,116.833 688.333,118.139 688.333,119.75 Z M681.646,97.271 L667.062,82.688 C665.923,81.549 664.077,81.549 662.938,82.688 C661.799,83.827 661.799,85.673 662.938,86.812 L677.521,101.396 C678.66,102.535 680.507,102.535 681.646,101.396 C682.785,100.257 682.785,98.41 681.646,97.271 Z M662.938,82.688 L648.354,97.271 C647.215,98.41 647.215,100.257 648.354,101.396 C649.493,102.535 651.34,102.535 652.479,101.396 L667.062,86.812 C668.201,85.673 668.201,83.827 667.062,82.688 C665.923,81.549 664.077,81.549 662.938,82.688 Z M662.083,84.75 L662.083,119.75 C662.083,121.361 663.389,122.667 665,122.667 C666.611,122.667 667.917,121.361 667.917,119.75 L667.917,84.75 C667.917,83.139 666.611,81.833 665,81.833 C663.389,81.833 662.083,83.139 662.083,84.75 Z" />
        </g>
    </g>
</svg>