<?xml version="1.0" encoding="UTF-8"?>
<svg height="600" width="800" xmlns="http://www.w3.org/2000/svg" xmlns:xlink="http://www.w3.org/1999/xlink">
    <g id="Notes" font-family="LucidaGrande, 'Lucida Grande', sans-serif" font-size="13">
        <rect fill="white" height="600.0" width="800.0" x="0.0" y="0.0" />
        <g font-size="13">
            <text x="18.0" y="176.0">Small</text>
            <text x="18.0" y="376.0">Medium</text>
            <text x="18.0" y="576.0">Large</text>
        </g>
        <g font-size="9">
            <text x="250.0" y="30.0">Ultralight</text>
            <text x="450.0" y="30.0">Regular</text>
            <text x="650.0" y="30.0">Black</text>
            <text id="template-version" fill="#505050" text-anchor="end" x="785.0" y="575.0">Template v.3.0</text>
            <a href="https://github.com/swhitty/SwiftDraw">
                <text fill="#505050" text-anchor="end" x="785.0" y="590.0">https://github.com/swhitty/SwiftDraw</text>
            </a>
        </g>
    </g>
    <g id="Guides" stroke="rgb(39, 170, 225)" stroke-width="0.5">
        <path id="Capline-S" d="M18,76 l800,0" />
        <path id="H-reference" d="M85,145.755 L87.685,145.755 L113.369,79.287 L114.052,79.287 L114.052,76 L112.148,76 L85,145.755 Z M95.693,121.536 L130.996,121.536 L130.263,119.313 L96.474,119.313 L95.693,121.536 Z M139.15,145.755 L141.787,145.755 L114.638,76 L113.466,76 L113.466,79.287 L139.15,145.755 Z" stroke="none" transform="translate(0,200)" />
        <path id="Baseline-S" d="M18,146 l800,0" />
        <path id="left-margin-Ultralight-M" d="M230,256 l0,110" />
        <path id="right-margin-Ultralight-M" d="M300,256 l0,110" />
        <path id="left-margin-Regular-M" d="M430,256 l0,110" />
        <path id="right-margin-Regular-M" d="M500,256 l0,110" />
        <path id="left-margin-Black-M" d="M630,256 l0,110" />
        <path id="right-margin-Black-M" d="M700,256 l0,110" />
        <path id="Capline-M" d="M18,276 l800,0" />
        <path id="Baseline-M" d="M18,346 l800,0" />
        <path id="Capline-L" d="M18,476 l800,0" />
        <path id="Baseline-L" d="M18,546 l800,0" />
    </g>
    <g id="Symbols">
        <g id="Ultralight-M" transform="translate(0,200)">
            <path d="M238.75,113.917 L291.25,113.917 C292.861,113.917 294.167,112.611 294.167,111 C294.167,109.389 292.861,108.083 291.25,108.083 L238.75,108.083 C237.139,108.083 235.833,109.389 235.833,111 C235.833,112.611 237.139,113.917 238.75,113.917 Z M238.75,96.417 L291.25,96.417 C292.861,96.417 294.167,95.111 294.167,93.5 C294.167,91.889 292.861,90.583 291.25,90.583 L238.75,90.583 C237.139,90.583 235.833,91.889 235.833,93.5 C235.833,95.111 237.139,96.417 238.75,96.417 Z M238.75,131.417 L273.75,131.417 C275.361,131.417 276.667,130.111 276.667,128.5 C276.667,126.889 275.361,125.583 273.75,125.583 L238.75,125.583 C237.139,125.583 235.833,126.889 235.833,128.5 C235.833,130.111 237.139,131.417 238.75,131.417 Z" />
        </g>
        <g id="Regular-M" transform="translate(0,200)">
            <path d="M438.75,113.917 L491.25,113.917 C492.861,113.917 494.167,112.611 494.167,111 C494.167,109.389 492.861,108.083 491.25,108.083 L438.75,108.083 C437.139,108.083 435.833,109.389 435.833,111 C435.833,112.611 437.139,113.917 438.75,113.917 Z M438.75,96.417 L491.25,96.417 C492.861,96.417 494.167,95.111 494.167,93.5 C494.167,91.889 492.861,90.583 491.25,90.583 L438.75,90.583 C437.139,90.583 435.833,91.889 435.833,93.5 C435.833,95.111 437.139,96.417 438.75,96.417 Z M438.75,131.417 L473.75,131.417 C475.361,131.417 476.667,130.111 476.667,128.5 C476.667,126.889 475.361,125.583 473.75,125.583 L438.75,125.583 C437.139,125.583 435.833,126.889 435.833,128.5 C435.833,130.111 437.139,131.417 438.75,131.417 Z" />
        </g>
        <g id="Black-M" transform="translate(0,200)">
            <path d="M638.75,113.917 L691.25,113.917 C692.861,113.917 694.167,112.611 694.167,111 C694.167,109.389 692.861,108.083 691.25,108.083 L638.75,108.083 C637.139,108.083 635.833,109.389 635.833,111 C635.833,112.611 637.139,113.917 638.75,113.917 Z M638.75,96.417 L691.25,96.417 C692.861,96.417 694.167,95.111 694.167,93.5 C694.167,91.889 692.861,90.583 691.25,90.583 L638.75,90.583 C637.139,90.583 635.833,91.889 635.833,93.5 C635.833,95.111 637.139,96.417 638.75,96.417 Z M638.75,131.417 L673.75,131.417 C675.361,131.417 676.667,130.111 676.667,128.5 C676.667,126.889 675.361,125.583 673.75,125.583 L638.75,125.583 C637.139,125.583 635.833,126.889 635.833,128.5 C635.833,130.111 637.139,131.417 638.75,131.417 Z" />
        </g>
    </g>
</svg>