<?xml version="1.0" encoding="UTF-8"?>
<svg height="600" width="800" xmlns="http://www.w3.org/2000/svg" xmlns:xlink="http://www.w3.org/1999/xlink">
    <g id="Notes" font-family="LucidaGrande, 'Lucida Grande', sans-serif" font-size="13">
        <rect fill="white" height="600.0" width="800.0" x="0.0" y="0.0" />
        <g font-size="13">
            <text x="18.0" y="176.0">Small</text>
            <text x="18.0" y="376.0">Medium</text>
            <text x="18.0" y="576.0">Large</text>
        </g>
        <g font-size="9">
            <text x="250.0" y="30.0">Ultralight</text>
            <text x="450.0" y="30.0">Regular</text>
            <text x="650.0" y="30.0">Black</text>
            <text id="template-version" fill="#505050" text-anchor="end" x="785.0" y="575.0">Template v.3.0</text>
            <a href="https://github.com/swhitty/SwiftDraw">
                <text fill="#505050" text-anchor="end" x="785.0" y="590.0">https://github.com/swhitty/SwiftDraw</text>
            </a>
        </g>
    </g>
    <g id="Guides" stroke="rgb(39, 170, 225)" stroke-width="0.5">
        <path id="Capline-S" d="M18,76 l800,0" />
        <path id="H-reference" d="M85,145.755 L87.685,145.755 L113.369,79.287 L114.052,79.287 L114.052,76 L112.148,76 L85,145.755 Z M95.693,121.536 L130.996,121.536 L130.263,119.313 L96.474,119.313 L95.693,121.536 Z M139.15,145.755 L141.787,145.755 L114.638,76 L113.466,76 L113.466,79.287 L139.15,145.755 Z" stroke="none" transform="translate(0,200)" />
        <path id="Baseline-S" d="M18,146 l800,0" />
        <path id="left-margin-Ultralight-M" d="M230,256 l0,110" />
        <path id="right-margin-Ultralight-M" d="M300,256 l0,110" />
        <path id="left-margin-Regular-M" d="M430,256 l0,110" />
        <path id="right-margin-Regular-M" d="M500,256 l0,110" />
        <path id="left-margin-Black-M" d="M630,256 l0,110" />
        <path id="right-margin-Black-M" d="M700,256 l0,110" />
        <path id="Capline-M" d="M18,276 l800,0" />
        <path id="Baseline-M" d="M18,346 l800,0" />
        <path id="Capline-L" d="M18,476 l800,0" />
        <path id="Baseline-L" d="M18,546 l800,0" />
    </g>
    <g id="Symbols">
        <g id="Ultralight-M" transform="translate(0,200)">
            <path d="M244.583,105.167 L285.417,105.167 C287.027,105.167 288.333,103.861 288.333,102.25 C288.333,100.639 287.027,99.333 285.417,99.333 L244.583,99.333 C242.973,99.333 241.667,100.639 241.667,102.25 C241.667,103.861 242.973,105.167 244.583,105.167 Z M244.583,122.667 L285.417,122.667 C287.027,122.667 288.333,121.361 288.333,119.75 C288.333,118.139 287.027,116.833 285.417,116.833 L244.583,116.833 C242.973,116.833 241.667,118.139 241.667,119.75 C241.667,121.361 242.973,122.667 244.583,122.667 Z" />
        </g>
        <g id="Regular-M" transform="translate(0,200)">
            <path d="M444.583,105.167 L485.417,105.167 C487.027,105.167 488.333,103.861 488.333,102.25 C488.333,100.639 487.027,99.333 485.417,99.333 L444.583,99.333 C442.973,99.333 441.667,100.639 441.667,102.25 C441.667,103.861 442.973,105.167 444.583,105.167 Z M444.583,122.667 L485.417,122.667 C487.027,122.667 488.333,121.361 488.333,119.75 C488.333,118.139 487.027,116.833 485.417,116.833 L444.583,116.833 C442.973,116.833 441.667,118.139 441.667,119.75 C441.667,121.361 442.973,122.667 444.583,122.667 Z" />
        </g>
        <g id="Black-M" transform="translate(0,200)">
            <path d="M644.583,105.167 L685.417,105.167 C687.027,105.167 688.333,103.861 688.333,102.25 C688.333,100.639 687.027,99.333 685.417,99.333 L644.583,99.333 C642.973,99.333 641.667,100.639 641.667,102.25 C641.667,103.861 642.973,105.167 644.583,105.167 Z M644.583,122.667 L685.417,122.667 C687.027,122.667 688.333,121.361 688.333,119.75 C688.333,118.139 687.027,116.833 685.417,116.833 L644.583,116.833 C642.973,116.833 641.667,118.139 641.667,119.75 C641.667,121.361 642.973,122.667 644.583,122.667 Z" />
        </g>
    </g>
</svg>