<?xml version="1.0" encoding="UTF-8"?>
<svg height="600" width="800" xmlns="http://www.w3.org/2000/svg" xmlns:xlink="http://www.w3.org/1999/xlink">
    <g id="Notes" font-family="LucidaGrande, 'Lucida Grande', sans-serif" font-size="13">
        <rect fill="white" height="600.0" width="800.0" x="0.0" y="0.0" />
        <g font-size="13">
            <text x="18.0" y="176.0">Small</text>
            <text x="18.0" y="376.0">Medium</text>
            <text x="18.0" y="576.0">Large</text>
        </g>
        <g font-size="9">
            <text x="250.0" y="30.0">Ultralight</text>
            <text x="450.0" y="30.0">Regular</text>
            <text x="650.0" y="30.0">Black</text>
            <text id="template-version" fill="#505050" text-anchor="end" x="785.0" y="575.0">Template v.3.0</text>
            <a href="https://github.com/swhitty/SwiftDraw">
                <text fill="#505050" text-anchor="end" x="785.0" y="590.0">https://github.com/swhitty/SwiftDraw</text>
            </a>
        </g>
    </g>
    <g id="Guides" stroke="rgb(39, 170, 225)" stroke-width="0.5">
        <path id="Capline-S" d="M18,76 l800,0" />
        <path id="H-reference" d="M85,145.755 L87.685,145.755 L113.369,79.287 L114.052,79.287 L114.052,76 L112.148,76 L85,145.755 Z M95.693,121.536 L130.996,121.536 L130.263,119.313 L96.474,119.313 L95.693,121.536 Z M139.15,145.755 L141.787,145.755 L114.638,76 L113.466,76 L113.466,79.287 L139.15,145.755 Z" stroke="none" transform="translate(0,200)" />
        <path id="Baseline-S" d="M18,146 l800,0" />
        <path id="left-margin-Ultralight-M" d="M221,256 l0,110" />
        <path id="right-margin-Ultralight-M" d="M309,256 l0,110" />
        <path id="left-margin-Regular-M" d="M421,256 l0,110" />
        <path id="right-margin-Regular-M" d="M509,256 l0,110" />
        <path id="left-margin-Black-M" d="M621,256 l0,110" />
        <path id="right-margin-Black-M" d="M709,256 l0,110" />
        <path id="Capline-M" d="M18,276 l800,0" />
        <path id="Baseline-M" d="M18,346 l800,0" />
        <path id="Capline-L" d="M18,476 l800,0" />
        <path id="Baseline-L" d="M18,546 l800,0" />
    </g>
    <g id="Symbols">
        <g id="Ultralight-M" transform="translate(0,200)">
            <path d="M222.439,90.073 C226.691,93.616 229.552,95 235,95 C240.268,95 243.105,93.638 247.499,90.123 C250.605,87.638 251.935,87 255,87 C258.218,87 259.491,87.616 262.439,90.073 C266.691,93.616 269.552,95 275,95 C280.268,95 283.105,93.638 287.499,90.123 C290.605,87.638 291.935,87 295,87 C298.218,87 299.491,87.616 302.439,90.073 C304.136,91.487 306.659,91.258 308.073,89.561 C309.487,87.864 309.258,85.341 307.561,83.927 C303.309,80.384 300.448,79 295,79 C289.732,79 286.895,80.362 282.501,83.877 C279.395,86.362 278.065,87 275,87 C271.782,87 270.509,86.384 267.561,83.927 C263.309,80.384 260.448,79 255,79 C249.732,79 246.895,80.362 242.501,83.877 C239.395,86.362 238.065,87 235,87 C231.782,87 230.509,86.384 227.561,83.927 C225.864,82.513 223.341,82.742 221.927,84.439 C220.513,86.136 220.742,88.659 222.439,90.073 Z M222.439,138.073 C226.691,141.616 229.552,143 235,143 C240.268,143 243.105,141.638 247.499,138.123 C250.605,135.638 251.935,135 255,135 C258.218,135 259.491,135.616 262.439,138.073 C266.691,141.616 269.552,143 275,143 C280.268,143 283.105,141.638 287.499,138.123 C290.605,135.638 291.935,135 295,135 C298.218,135 299.491,135.616 302.439,138.073 C304.136,139.487 306.659,139.258 308.073,137.561 C309.487,135.864 309.258,133.341 307.561,131.927 C303.309,128.384 300.448,127 295,127 C289.732,127 286.895,128.362 282.501,131.877 C279.395,134.362 278.065,135 275,135 C271.782,135 270.509,134.384 267.561,131.927 C263.309,128.384 260.448,127 255,127 C249.732,127 246.895,128.362 242.501,131.877 C239.395,134.362 238.065,135 235,135 C231.782,135 230.509,134.384 227.561,131.927 C225.864,130.513 223.341,130.742 221.927,132.439 C220.513,134.136 220.742,136.659 222.439,138.073 Z M222.439,114.073 C226.691,117.616 229.552,119 235,119 C240.268,119 243.105,117.638 247.499,114.123 C250.605,111.638 251.935,111 255,111 C258.218,111 259.491,111.616 262.439,114.073 C266.691,117.616 269.552,119 275,119 C280.268,119 283.105,117.638 287.499,114.123 C290.605,111.638 291.935,111 295,111 C298.218,111 299.491,111.616 302.439,114.073 C304.136,115.487 306.659,115.258 308.073,113.561 C309.487,111.864 309.258,109.341 307.561,107.927 C303.309,104.384 300.448,103 295,103 C289.732,103 286.895,104.362 282.501,107.877 C279.395,110.362 278.065,111 275,111 C271.782,111 270.509,110.384 267.561,107.927 C263.309,104.384 260.448,103 255,103 C249.732,103 246.895,104.362 242.501,107.877 C239.395,110.362 238.065,111 235,111 C231.782,111 230.509,110.384 227.561,107.927 C225.864,106.513 223.341,106.742 221.927,108.439 C220.513,110.136 220.742,112.659 222.439,114.073 Z" />
        </g>
        <g id="Regular-M" transform="translate(0,200)">
            <path d="M422.439,90.073 C426.691,93.616 429.552,95 435,95 C440.268,95 443.105,93.638 447.499,90.123 C450.605,87.638 451.935,87 455,87 C458.218,87 459.491,87.616 462.439,90.073 C466.691,93.616 469.552,95 475,95 C480.268,95 483.105,93.638 487.499,90.123 C490.605,87.638 491.935,87 495,87 C498.218,87 499.491,87.616 502.439,90.073 C504.136,91.487 506.659,91.258 508.073,89.561 C509.487,87.864 509.258,85.341 507.561,83.927 C503.309,80.384 500.448,79 495,79 C489.732,79 486.895,80.362 482.501,83.877 C479.395,86.362 478.065,87 475,87 C471.782,87 470.509,86.384 467.561,83.927 C463.309,80.384 460.448,79 455,79 C449.732,79 446.895,80.362 442.501,83.877 C439.395,86.362 438.065,87 435,87 C431.782,87 430.509,86.384 427.561,83.927 C425.864,82.513 423.341,82.742 421.927,84.439 C420.513,86.136 420.742,88.659 422.439,90.073 Z M422.439,138.073 C426.691,141.616 429.552,143 435,143 C440.268,143 443.105,141.638 447.499,138.123 C450.605,135.638 451.935,135 455,135 C458.218,135 459.491,135.616 462.439,138.073 C466.691,141.616 469.552,143 475,143 C480.268,143 483.105,141.638 487.499,138.123 C490.605,135.638 491.935,135 495,135 C498.218,135 499.491,135.616 502.439,138.073 C504.136,139.487 506.659,139.258 508.073,137.561 C509.487,135.864 509.258,133.341 507.561,131.927 C503.309,128.384 500.448,127 495,127 C489.732,127 486.895,128.362 482.501,131.877 C479.395,134.362 478.065,135 475,135 C471.782,135 470.509,134.384 467.561,131.927 C463.309,128.384 460.448,127 455,127 C449.732,127 446.895,128.362 442.501,131.877 C439.395,134.362 438.065,135 435,135 C431.782,135 430.509,134.384 427.561,131.927 C425.864,130.513 423.341,130.742 421.927,132.439 C420.513,134.136 420.742,136.659 422.439,138.073 Z M422.439,114.073 C426.691,117.616 429.552,119 435,119 C440.268,119 443.105,117.638 447.499,114.123 C450.605,111.638 451.935,111 455,111 C458.218,111 459.491,111.616 462.439,114.073 C466.691,117.616 469.552,119 475,119 C480.268,119 483.105,117.638 487.499,114.123 C490.605,111.638 491.935,111 495,111 C498.218,111 499.491,111.616 502.439,114.073 C504.136,115.487 506.659,115.258 508.073,113.561 C509.487,111.864 509.258,109.341 507.561,107.927 C503.309,104.384 500.448,103 495,103 C489.732,103 486.895,104.362 482.501,107.877 C479.395,110.362 478.065,111 475,111 C471.782,111 470.509,110.384 467.561,107.927 C463.309,104.384 460.448,103 455,103 C449.732,103 446.895,104.362 442.501,107.877 C439.395,110.362 438.065,111 435,111 C431.782,111 430.509,110.384 427.561,107.927 C425.864,106.513 423.341,106.742 421.927,108.439 C420.513,110.136 420.742,112.659 422.439,114.073 Z" />
        </g>
        <g id="Black-M" transform="translate(0,200)">
            <path d="M622.439,90.073 C626.691,93.616 629.552,95 635,95 C640.268,95 643.105,93.638 647.499,90.123 C650.605,87.638 651.935,87 655,87 C658.218,87 659.491,87.616 662.439,90.073 C666.691,93.616 669.552,95 675,95 C680.268,95 683.105,93.638 687.499,90.123 C690.605,87.638 691.935,87 695,87 C698.218,87 699.491,87.616 702.439,90.073 C704.136,91.487 706.659,91.258 708.073,89.561 C709.487,87.864 709.258,85.341 707.561,83.927 C703.309,80.384 700.448,79 695,79 C689.732,79 686.895,80.362 682.501,83.877 C679.395,86.362 678.065,87 675,87 C671.782,87 670.509,86.384 667.561,83.927 C663.309,80.384 660.448,79 655,79 C649.732,79 646.895,80.362 642.501,83.877 C639.395,86.362 638.065,87 635,87 C631.782,87 630.509,86.384 627.561,83.927 C625.864,82.513 623.341,82.742 621.927,84.439 C620.513,86.136 620.742,88.659 622.439,90.073 Z M622.439,138.073 C626.691,141.616 629.552,143 635,143 C640.268,143 643.105,141.638 647.499,138.123 C650.605,135.638 651.935,135 655,135 C658.218,135 659.491,135.616 662.439,138.073 C666.691,141.616 669.552,143 675,143 C680.268,143 683.105,141.638 687.499,138.123 C690.605,135.638 691.935,135 695,135 C698.218,135 699.491,135.616 702.439,138.073 C704.136,139.487 706.659,139.258 708.073,137.561 C709.487,135.864 709.258,133.341 707.561,131.927 C703.309,128.384 700.448,127 695,127 C689.732,127 686.895,128.362 682.501,131.877 C679.395,134.362 678.065,135 675,135 C671.782,135 670.509,134.384 667.561,131.927 C663.309,128.384 660.448,127 655,127 C649.732,127 646.895,128.362 642.501,131.877 C639.395,134.362 638.065,135 635,135 C631.782,135 630.509,134.384 627.561,131.927 C625.864,130.513 623.341,130.742 621.927,132.439 C620.513,134.136 620.742,136.659 622.439,138.073 Z M622.439,114.073 C626.691,117.616 629.552,119 635,119 C640.268,119 643.105,117.638 647.499,114.123 C650.605,111.638 651.935,111 655,111 C658.218,111 659.491,111.616 662.439,114.073 C666.691,117.616 669.552,119 675,119 C680.268,119 683.105,117.638 687.499,114.123 C690.605,111.638 691.935,111 695,111 C698.218,111 699.491,111.616 702.439,114.073 C704.136,115.487 706.659,115.258 708.073,113.561 C709.487,111.864 709.258,109.341 707.561,107.927 C703.309,104.384 700.448,103 695,103 C689.732,103 686.895,104.362 682.501,107.877 C679.395,110.362 678.065,111 675,111 C671.782,111 670.509,110.384 667.561,107.927 C663.309,104.384 660.448,103 655,103 C649.732,103 646.895,104.362 642.501,107.877 C639.395,110.362 638.065,111 635,111 C631.782,111 630.509,110.384 627.561,107.927 C625.864,106.513 623.341,106.742 621.927,108.439 C620.513,110.136 620.742,112.659 622.439,114.073 Z" />
        </g>
    </g>
</svg>