<?xml version="1.0" encoding="UTF-8"?>
<svg height="600" width="800" xmlns="http://www.w3.org/2000/svg" xmlns:xlink="http://www.w3.org/1999/xlink">
    <g id="Notes" font-family="LucidaGrande, 'Lucida Grande', sans-serif" font-size="13">
        <rect fill="white" height="600.0" width="800.0" x="0.0" y="0.0" />
        <g font-size="13">
            <text x="18.0" y="176.0">Small</text>
            <text x="18.0" y="376.0">Medium</text>
            <text x="18.0" y="576.0">Large</text>
        </g>
        <g font-size="9">
            <text x="250.0" y="30.0">Ultralight</text>
            <text x="450.0" y="30.0">Regular</text>
            <text x="650.0" y="30.0">Black</text>
            <text id="template-version" fill="#505050" text-anchor="end" x="785.0" y="575.0">Template v.3.0</text>
            <a href="https://github.com/swhitty/SwiftDraw">
                <text fill="#505050" text-anchor="end" x="785.0" y="590.0">https://github.com/swhitty/SwiftDraw</text>
            </a>
        </g>
    </g>
    <g id="Guides" stroke="rgb(39, 170, 225)" stroke-width="0.5">
        <path id="Capline-S" d="M18,76 l800,0" />
        <path id="H-reference" d="M85,145.755 L87.685,145.755 L113.369,79.287 L114.052,79.287 L114.052,76 L112.148,76 L85,145.755 Z M95.693,121.536 L130.996,121.536 L130.263,119.313 L96.474,119.313 L95.693,121.536 Z M139.15,145.755 L141.787,145.755 L114.638,76 L113.466,76 L113.466,79.287 L139.15,145.755 Z" stroke="none" transform="translate(0,200)" />
        <path id="Baseline-S" d="M18,146 l800,0" />
        <path id="left-margin-Ultralight-M" d="M230,256 l0,110" />
        <path id="right-margin-Ultralight-M" d="M300,256 l0,110" />
        <path id="left-margin-Regular-M" d="M430,256 l0,110" />
        <path id="right-margin-Regular-M" d="M500,256 l0,110" />
        <path id="left-margin-Black-M" d="M630,256 l0,110" />
        <path id="right-margin-Black-M" d="M700,256 l0,110" />
        <path id="Capline-M" d="M18,276 l800,0" />
        <path id="Baseline-M" d="M18,346 l800,0" />
        <path id="Capline-L" d="M18,476 l800,0" />
        <path id="Baseline-L" d="M18,546 l800,0" />
    </g>
    <g id="Symbols">
        <g id="Ultralight-M" transform="translate(0,200)">
            <path d="M282.5,102.25 L282.5,119.75 C282.5,121.361 283.806,122.667 285.417,122.667 C287.027,122.667 288.333,121.361 288.333,119.75 L288.333,102.25 C288.333,100.639 287.027,99.333 285.417,99.333 C283.806,99.333 282.5,100.639 282.5,102.25 Z M241.667,96.417 L241.667,125.583 C241.667,127.194 242.973,128.5 244.583,128.5 C246.194,128.5 247.5,127.194 247.5,125.583 L247.5,96.417 C247.5,94.806 246.194,93.5 244.583,93.5 C242.973,93.5 241.667,94.806 241.667,96.417 Z M279.996,92.695 L250.829,88.53 C249.234,88.302 247.757,89.411 247.529,91.005 C247.302,92.6 248.41,94.077 250.004,94.305 L279.171,98.47 C280.766,98.698 282.243,97.589 282.471,95.995 C282.698,94.4 281.59,92.923 279.996,92.695 Z M279.171,123.53 L250.004,127.695 C248.41,127.923 247.302,129.4 247.529,130.995 C247.757,132.589 249.234,133.698 250.829,133.47 L279.996,129.305 C281.59,129.077 282.698,127.6 282.471,126.005 C282.243,124.411 280.766,123.302 279.171,123.53 Z M243.417,99.333 L245.75,99.333 C248.378,99.333 249,99.283 250.148,98.698 C251.246,98.138 252.138,97.246 252.698,96.148 C253.283,95 253.333,94.378 253.333,91.75 L253.333,89.417 C253.333,86.789 253.283,86.167 252.698,85.019 C252.138,83.921 251.246,83.028 250.148,82.469 C249,81.884 248.378,81.833 245.75,81.833 L243.417,81.833 C240.789,81.833 240.167,81.884 239.019,82.469 C237.921,83.028 237.028,83.921 236.469,85.018 C235.884,86.167 235.833,86.789 235.833,89.417 L235.833,91.75 C235.833,94.378 235.884,95 236.469,96.148 C237.028,97.246 237.921,98.138 239.018,98.698 C240.167,99.283 240.789,99.333 243.417,99.333 Z M243.417,93.5 C241.961,93.5 241.61,93.471 241.666,93.5 C241.667,93.5 241.667,93.5 241.667,93.5 C241.695,93.556 241.667,93.206 241.667,91.75 L241.667,89.417 C241.667,87.961 241.695,87.61 241.667,87.666 C241.667,87.667 241.667,87.667 241.667,87.667 C241.61,87.695 241.961,87.667 243.417,87.667 L245.75,87.667 C247.206,87.667 247.556,87.695 247.5,87.667 C247.5,87.667 247.5,87.667 247.5,87.667 C247.471,87.61 247.5,87.961 247.5,89.417 L247.5,91.75 C247.5,93.206 247.471,93.556 247.5,93.5 C247.5,93.5 247.5,93.5 247.5,93.5 C247.556,93.471 247.206,93.5 245.75,93.5 L243.417,93.5 Z M243.417,140.167 L245.75,140.167 C248.378,140.167 249,140.116 250.148,139.531 C251.246,138.972 252.138,138.079 252.698,136.982 C253.283,135.833 253.333,135.211 253.333,132.583 L253.333,130.25 C253.333,127.622 253.283,127 252.698,125.852 C252.138,124.754 251.246,123.862 250.148,123.303 C249,122.717 248.378,122.667 245.75,122.667 L243.417,122.667 C240.789,122.667 240.167,122.717 239.019,123.302 C237.921,123.862 237.028,124.754 236.469,125.852 C235.884,127 235.833,127.622 235.833,130.25 L235.833,132.583 C235.833,135.211 235.884,135.833 236.469,136.981 C237.028,138.079 237.921,138.972 239.018,139.531 C240.167,140.116 240.789,140.167 243.417,140.167 Z M243.417,134.333 C241.961,134.333 241.61,134.305 241.666,134.333 C241.667,134.333 241.667,134.333 241.667,134.333 C241.695,134.39 241.667,134.039 241.667,132.583 L241.667,130.25 C241.667,128.794 241.695,128.444 241.667,128.5 C241.667,128.5 241.667,128.5 241.667,128.5 C241.61,128.529 241.961,128.5 243.417,128.5 L245.75,128.5 C247.206,128.5 247.556,128.529 247.5,128.5 C247.5,128.5 247.5,128.5 247.5,128.5 C247.471,128.444 247.5,128.794 247.5,130.25 L247.5,132.583 C247.5,134.039 247.471,134.39 247.5,134.334 C247.5,134.333 247.5,134.333 247.5,134.333 C247.556,134.305 247.206,134.333 245.75,134.333 L243.417,134.333 Z M284.25,105.167 L286.583,105.167 C289.211,105.167 289.833,105.116 290.981,104.531 C292.079,103.972 292.972,103.079 293.531,101.982 C294.116,100.833 294.167,100.211 294.167,97.583 L294.167,95.25 C294.167,92.622 294.116,92 293.531,90.852 C292.972,89.754 292.079,88.862 290.982,88.302 C289.833,87.717 289.211,87.667 286.583,87.667 L284.25,87.667 C281.622,87.667 281,87.717 279.852,88.302 C278.754,88.862 277.862,89.754 277.302,90.852 C276.717,92 276.667,92.622 276.667,95.25 L276.667,97.583 C276.667,100.211 276.717,100.833 277.302,101.981 C277.862,103.079 278.754,103.972 279.852,104.531 C281,105.116 281.622,105.167 284.25,105.167 Z M284.25,99.333 C282.794,99.333 282.444,99.305 282.5,99.333 C282.5,99.333 282.5,99.333 282.5,99.333 C282.529,99.39 282.5,99.039 282.5,97.583 L282.5,95.25 C282.5,93.794 282.529,93.444 282.5,93.5 C282.5,93.5 282.5,93.5 282.5,93.5 C282.444,93.529 282.794,93.5 284.25,93.5 L286.583,93.5 C288.039,93.5 288.39,93.529 288.334,93.5 C288.333,93.5 288.333,93.5 288.333,93.5 C288.305,93.444 288.333,93.794 288.333,95.25 L288.333,97.583 C288.333,99.039 288.305,99.39 288.333,99.334 C288.333,99.333 288.333,99.333 288.333,99.333 C288.39,99.305 288.039,99.333 286.583,99.333 L284.25,99.333 Z M284.25,134.333 L286.583,134.333 C289.211,134.333 289.833,134.283 290.981,133.698 C292.079,133.138 292.972,132.246 293.531,131.148 C294.116,130 294.167,129.378 294.167,126.75 L294.167,124.417 C294.167,121.789 294.116,121.167 293.531,120.019 C292.972,118.921 292.079,118.028 290.982,117.469 C289.833,116.884 289.211,116.833 286.583,116.833 L284.25,116.833 C281.622,116.833 281,116.884 279.852,117.469 C278.754,118.028 277.862,118.921 277.302,120.018 C276.717,121.167 276.667,121.789 276.667,124.417 L276.667,126.75 C276.667,129.378 276.717,130 277.302,131.148 C277.862,132.246 278.754,133.138 279.852,133.698 C281,134.283 281.622,134.333 284.25,134.333 Z M284.25,128.5 C282.794,128.5 282.444,128.471 282.5,128.5 C282.5,128.5 282.5,128.5 282.5,128.5 C282.529,128.556 282.5,128.206 282.5,126.75 L282.5,124.417 C282.5,122.961 282.529,122.61 282.5,122.666 C282.5,122.667 282.5,122.667 282.5,122.667 C282.444,122.695 282.794,122.667 284.25,122.667 L286.583,122.667 C288.039,122.667 288.39,122.695 288.334,122.667 C288.333,122.667 288.333,122.667 288.333,122.667 C288.305,122.61 288.333,122.961 288.333,124.417 L288.333,126.75 C288.333,128.206 288.305,128.556 288.333,128.5 C288.333,128.5 288.333,128.5 288.333,128.5 C288.39,128.471 288.039,128.5 286.583,128.5 L284.25,128.5 Z" />
        </g>
        <g id="Regular-M" transform="translate(0,200)">
            <path d="M482.5,102.25 L482.5,119.75 C482.5,121.361 483.806,122.667 485.417,122.667 C487.027,122.667 488.333,121.361 488.333,119.75 L488.333,102.25 C488.333,100.639 487.027,99.333 485.417,99.333 C483.806,99.333 482.5,100.639 482.5,102.25 Z M441.667,96.417 L441.667,125.583 C441.667,127.194 442.973,128.5 444.583,128.5 C446.194,128.5 447.5,127.194 447.5,125.583 L447.5,96.417 C447.5,94.806 446.194,93.5 444.583,93.5 C442.973,93.5 441.667,94.806 441.667,96.417 Z M479.996,92.695 L450.829,88.53 C449.234,88.302 447.757,89.411 447.529,91.005 C447.302,92.6 448.41,94.077 450.004,94.305 L479.171,98.47 C480.766,98.698 482.243,97.589 482.471,95.995 C482.698,94.4 481.59,92.923 479.996,92.695 Z M479.171,123.53 L450.004,127.695 C448.41,127.923 447.302,129.4 447.529,130.995 C447.757,132.589 449.234,133.698 450.829,133.47 L479.996,129.305 C481.59,129.077 482.698,127.6 482.471,126.005 C482.243,124.411 480.766,123.302 479.171,123.53 Z M443.417,99.333 L445.75,99.333 C448.378,99.333 449,99.283 450.148,98.698 C451.246,98.138 452.138,97.246 452.698,96.148 C453.283,95 453.333,94.378 453.333,91.75 L453.333,89.417 C453.333,86.789 453.283,86.167 452.698,85.019 C452.138,83.921 451.246,83.028 450.148,82.469 C449,81.884 448.378,81.833 445.75,81.833 L443.417,81.833 C440.789,81.833 440.167,81.884 439.019,82.469 C437.921,83.028 437.028,83.921 436.469,85.018 C435.884,86.167 435.833,86.789 435.833,89.417 L435.833,91.75 C435.833,94.378 435.884,95 436.469,96.148 C437.028,97.246 437.921,98.138 439.018,98.698 C440.167,99.283 440.789,99.333 443.417,99.333 Z M443.417,93.5 C441.961,93.5 441.61,93.471 441.666,93.5 C441.667,93.5 441.667,93.5 441.667,93.5 C441.695,93.556 441.667,93.206 441.667,91.75 L441.667,89.417 C441.667,87.961 441.695,87.61 441.667,87.666 C441.667,87.667 441.667,87.667 441.667,87.667 C441.61,87.695 441.961,87.667 443.417,87.667 L445.75,87.667 C447.206,87.667 447.556,87.695 447.5,87.667 C447.5,87.667 447.5,87.667 447.5,87.667 C447.471,87.61 447.5,87.961 447.5,89.417 L447.5,91.75 C447.5,93.206 447.471,93.556 447.5,93.5 C447.5,93.5 447.5,93.5 447.5,93.5 C447.556,93.471 447.206,93.5 445.75,93.5 L443.417,93.5 Z M443.417,140.167 L445.75,140.167 C448.378,140.167 449,140.116 450.148,139.531 C451.246,138.972 452.138,138.079 452.698,136.982 C453.283,135.833 453.333,135.211 453.333,132.583 L453.333,130.25 C453.333,127.622 453.283,127 452.698,125.852 C452.138,124.754 451.246,123.862 450.148,123.303 C449,122.717 448.378,122.667 445.75,122.667 L443.417,122.667 C440.789,122.667 440.167,122.717 439.019,123.302 C437.921,123.862 437.028,124.754 436.469,125.852 C435.884,127 435.833,127.622 435.833,130.25 L435.833,132.583 C435.833,135.211 435.884,135.833 436.469,136.981 C437.028,138.079 437.921,138.972 439.018,139.531 C440.167,140.116 440.789,140.167 443.417,140.167 Z M443.417,134.333 C441.961,134.333 441.61,134.305 441.666,134.333 C441.667,134.333 441.667,134.333 441.667,134.333 C441.695,134.39 441.667,134.039 441.667,132.583 L441.667,130.25 C441.667,128.794 441.695,128.444 441.667,128.5 C441.667,128.5 441.667,128.5 441.667,128.5 C441.61,128.529 441.961,128.5 443.417,128.5 L445.75,128.5 C447.206,128.5 447.556,128.529 447.5,128.5 C447.5,128.5 447.5,128.5 447.5,128.5 C447.471,128.444 447.5,128.794 447.5,130.25 L447.5,132.583 C447.5,134.039 447.471,134.39 447.5,134.334 C447.5,134.333 447.5,134.333 447.5,134.333 C447.556,134.305 447.206,134.333 445.75,134.333 L443.417,134.333 Z M484.25,105.167 L486.583,105.167 C489.211,105.167 489.833,105.116 490.981,104.531 C492.079,103.972 492.972,103.079 493.531,101.982 C494.116,100.833 494.167,100.211 494.167,97.583 L494.167,95.25 C494.167,92.622 494.116,92 493.531,90.852 C492.972,89.754 492.079,88.862 490.982,88.302 C489.833,87.717 489.211,87.667 486.583,87.667 L484.25,87.667 C481.622,87.667 481,87.717 479.852,88.302 C478.754,88.862 477.862,89.754 477.302,90.852 C476.717,92 476.667,92.622 476.667,95.25 L476.667,97.583 C476.667,100.211 476.717,100.833 477.302,101.981 C477.862,103.079 478.754,103.972 479.852,104.531 C481,105.116 481.622,105.167 484.25,105.167 Z M484.25,99.333 C482.794,99.333 482.444,99.305 482.5,99.333 C482.5,99.333 482.5,99.333 482.5,99.333 C482.529,99.39 482.5,99.039 482.5,97.583 L482.5,95.25 C482.5,93.794 482.529,93.444 482.5,93.5 C482.5,93.5 482.5,93.5 482.5,93.5 C482.444,93.529 482.794,93.5 484.25,93.5 L486.583,93.5 C488.039,93.5 488.39,93.529 488.334,93.5 C488.333,93.5 488.333,93.5 488.333,93.5 C488.305,93.444 488.333,93.794 488.333,95.25 L488.333,97.583 C488.333,99.039 488.305,99.39 488.333,99.334 C488.333,99.333 488.333,99.333 488.333,99.333 C488.39,99.305 488.039,99.333 486.583,99.333 L484.25,99.333 Z M484.25,134.333 L486.583,134.333 C489.211,134.333 489.833,134.283 490.981,133.698 C492.079,133.138 492.972,132.246 493.531,131.148 C494.116,130 494.167,129.378 494.167,126.75 L494.167,124.417 C494.167,121.789 494.116,121.167 493.531,120.019 C492.972,118.921 492.079,118.028 490.982,117.469 C489.833,116.884 489.211,116.833 486.583,116.833 L484.25,116.833 C481.622,116.833 481,116.884 479.852,117.469 C478.754,118.028 477.862,118.921 477.302,120.018 C476.717,121.167 476.667,121.789 476.667,124.417 L476.667,126.75 C476.667,129.378 476.717,130 477.302,131.148 C477.862,132.246 478.754,133.138 479.852,133.698 C481,134.283 481.622,134.333 484.25,134.333 Z M484.25,128.5 C482.794,128.5 482.444,128.471 482.5,128.5 C482.5,128.5 482.5,128.5 482.5,128.5 C482.529,128.556 482.5,128.206 482.5,126.75 L482.5,124.417 C482.5,122.961 482.529,122.61 482.5,122.666 C482.5,122.667 482.5,122.667 482.5,122.667 C482.444,122.695 482.794,122.667 484.25,122.667 L486.583,122.667 C488.039,122.667 488.39,122.695 488.334,122.667 C488.333,122.667 488.333,122.667 488.333,122.667 C488.305,122.61 488.333,122.961 488.333,124.417 L488.333,126.75 C488.333,128.206 488.305,128.556 488.333,128.5 C488.333,128.5 488.333,128.5 488.333,128.5 C488.39,128.471 488.039,128.5 486.583,128.5 L484.25,128.5 Z" />
        </g>
        <g id="Black-M" transform="translate(0,200)">
            <path d="M682.5,102.25 L682.5,119.75 C682.5,121.361 683.806,122.667 685.417,122.667 C687.027,122.667 688.333,121.361 688.333,119.75 L688.333,102.25 C688.333,100.639 687.027,99.333 685.417,99.333 C683.806,99.333 682.5,100.639 682.5,102.25 Z M641.667,96.417 L641.667,125.583 C641.667,127.194 642.973,128.5 644.583,128.5 C646.194,128.5 647.5,127.194 647.5,125.583 L647.5,96.417 C647.5,94.806 646.194,93.5 644.583,93.5 C642.973,93.5 641.667,94.806 641.667,96.417 Z M679.996,92.695 L650.829,88.53 C649.234,88.302 647.757,89.411 647.529,91.005 C647.302,92.6 648.41,94.077 650.004,94.305 L679.171,98.47 C680.766,98.698 682.243,97.589 682.471,95.995 C682.698,94.4 681.59,92.923 679.996,92.695 Z M679.171,123.53 L650.004,127.695 C648.41,127.923 647.302,129.4 647.529,130.995 C647.757,132.589 649.234,133.698 650.829,133.47 L679.996,129.305 C681.59,129.077 682.698,127.6 682.471,126.005 C682.243,124.411 680.766,123.302 679.171,123.53 Z M643.417,99.333 L645.75,99.333 C648.378,99.333 649,99.283 650.148,98.698 C651.246,98.138 652.138,97.246 652.698,96.148 C653.283,95 653.333,94.378 653.333,91.75 L653.333,89.417 C653.333,86.789 653.283,86.167 652.698,85.019 C652.138,83.921 651.246,83.028 650.148,82.469 C649,81.884 648.378,81.833 645.75,81.833 L643.417,81.833 C640.789,81.833 640.167,81.884 639.019,82.469 C637.921,83.028 637.028,83.921 636.469,85.018 C635.884,86.167 635.833,86.789 635.833,89.417 L635.833,91.75 C635.833,94.378 635.884,95 636.469,96.148 C637.028,97.246 637.921,98.138 639.018,98.698 C640.167,99.283 640.789,99.333 643.417,99.333 Z M643.417,93.5 C641.961,93.5 641.61,93.471 641.666,93.5 C641.667,93.5 641.667,93.5 641.667,93.5 C641.695,93.556 641.667,93.206 641.667,91.75 L641.667,89.417 C641.667,87.961 641.695,87.61 641.667,87.666 C641.667,87.667 641.667,87.667 641.667,87.667 C641.61,87.695 641.961,87.667 643.417,87.667 L645.75,87.667 C647.206,87.667 647.556,87.695 647.5,87.667 C647.5,87.667 647.5,87.667 647.5,87.667 C647.471,87.61 647.5,87.961 647.5,89.417 L647.5,91.75 C647.5,93.206 647.471,93.556 647.5,93.5 C647.5,93.5 647.5,93.5 647.5,93.5 C647.556,93.471 647.206,93.5 645.75,93.5 L643.417,93.5 Z M643.417,140.167 L645.75,140.167 C648.378,140.167 649,140.116 650.148,139.531 C651.246,138.972 652.138,138.079 652.698,136.982 C653.282,135.833 653.333,135.211 653.333,132.583 L653.333,130.25 C653.333,127.622 653.283,127 652.698,125.852 C652.138,124.754 651.246,123.862 650.148,123.303 C649,122.717 648.378,122.667 645.75,122.667 L643.417,122.667 C640.789,122.667 640.167,122.717 639.019,123.302 C637.921,123.862 637.028,124.754 636.469,125.852 C635.884,127 635.833,127.622 635.833,130.25 L635.833,132.583 C635.833,135.211 635.884,135.833 636.469,136.981 C637.028,138.079 637.921,138.972 639.018,139.531 C640.167,140.116 640.789,140.167 643.417,140.167 Z M643.417,134.333 C641.961,134.333 641.61,134.305 641.666,134.333 C641.667,134.333 641.667,134.333 641.667,134.333 C641.695,134.39 641.667,134.039 641.667,132.583 L641.667,130.25 C641.667,128.794 641.695,128.444 641.667,128.5 C641.667,128.5 641.667,128.5 641.667,128.5 C641.61,128.529 641.961,128.5 643.417,128.5 L645.75,128.5 C647.206,128.5 647.556,128.529 647.5,128.5 C647.5,128.5 647.5,128.5 647.5,128.5 C647.471,128.444 647.5,128.794 647.5,130.25 L647.5,132.583 C647.5,134.039 647.471,134.39 647.5,134.334 C647.5,134.333 647.5,134.333 647.5,134.333 C647.556,134.305 647.206,134.333 645.75,134.333 L643.417,134.333 Z M684.25,105.167 L686.583,105.167 C689.211,105.167 689.833,105.116 690.981,104.531 C692.079,103.972 692.972,103.079 693.531,101.982 C694.116,100.833 694.167,100.211 694.167,97.583 L694.167,95.25 C694.167,92.622 694.116,92 693.531,90.852 C692.972,89.754 692.079,88.862 690.982,88.302 C689.833,87.717 689.211,87.667 686.583,87.667 L684.25,87.667 C681.622,87.667 681,87.717 679.852,88.302 C678.754,88.862 677.862,89.754 677.302,90.852 C676.718,92 676.667,92.622 676.667,95.25 L676.667,97.583 C676.667,100.211 676.718,100.833 677.302,101.981 C677.862,103.079 678.754,103.972 679.852,104.531 C681,105.116 681.622,105.167 684.25,105.167 Z M684.25,99.333 C682.794,99.333 682.444,99.305 682.5,99.333 C682.5,99.333 682.5,99.333 682.5,99.333 C682.529,99.39 682.5,99.039 682.5,97.583 L682.5,95.25 C682.5,93.794 682.529,93.444 682.5,93.5 C682.5,93.5 682.5,93.5 682.5,93.5 C682.444,93.529 682.794,93.5 684.25,93.5 L686.583,93.5 C688.039,93.5 688.39,93.529 688.334,93.5 C688.333,93.5 688.333,93.5 688.333,93.5 C688.305,93.444 688.333,93.794 688.333,95.25 L688.333,97.583 C688.333,99.039 688.305,99.39 688.333,99.334 C688.333,99.333 688.333,99.333 688.333,99.333 C688.39,99.305 688.039,99.333 686.583,99.333 L684.25,99.333 Z M684.25,134.333 L686.583,134.333 C689.211,134.333 689.833,134.283 690.981,133.698 C692.079,133.138 692.972,132.246 693.531,131.148 C694.116,130 694.167,129.378 694.167,126.75 L694.167,124.417 C694.167,121.789 694.116,121.167 693.531,120.019 C692.972,118.921 692.079,118.028 690.982,117.469 C689.833,116.884 689.211,116.833 686.583,116.833 L684.25,116.833 C681.622,116.833 681,116.884 679.852,117.469 C678.754,118.028 677.862,118.921 677.302,120.018 C676.718,121.167 676.667,121.789 676.667,124.417 L676.667,126.75 C676.667,129.378 676.718,130 677.302,131.148 C677.862,132.246 678.754,133.138 679.852,133.698 C681,134.283 681.622,134.333 684.25,134.333 Z M684.25,128.5 C682.794,128.5 682.444,128.471 682.5,128.5 C682.5,128.5 682.5,128.5 682.5,128.5 C682.529,128.556 682.5,128.206 682.5,126.75 L682.5,124.417 C682.5,122.961 682.529,122.61 682.5,122.666 C682.5,122.667 682.5,122.667 682.5,122.667 C682.444,122.695 682.794,122.667 684.25,122.667 L686.583,122.667 C688.039,122.667 688.39,122.695 688.334,122.667 C688.333,122.667 688.333,122.667 688.333,122.667 C688.305,122.61 688.333,122.961 688.333,124.417 L688.333,126.75 C688.333,128.206 688.305,128.556 688.333,128.5 C688.333,128.5 688.333,128.5 688.333,128.5 C688.39,128.471 688.039,128.5 686.583,128.5 L684.25,128.5 Z" />
        </g>
    </g>
</svg>