<?xml version="1.0" encoding="UTF-8"?>
<svg height="600" width="800" xmlns="http://www.w3.org/2000/svg" xmlns:xlink="http://www.w3.org/1999/xlink">
    <g id="Notes" font-family="LucidaGrande, 'Lucida Grande', sans-serif" font-size="13">
        <rect fill="white" height="600.0" width="800.0" x="0.0" y="0.0" />
        <g font-size="13">
            <text x="18.0" y="176.0">Small</text>
            <text x="18.0" y="376.0">Medium</text>
            <text x="18.0" y="576.0">Large</text>
        </g>
        <g font-size="9">
            <text x="250.0" y="30.0">Ultralight</text>
            <text x="450.0" y="30.0">Regular</text>
            <text x="650.0" y="30.0">Black</text>
            <text id="template-version" fill="#505050" text-anchor="end" x="785.0" y="575.0">Template v.3.0</text>
            <a href="https://github.com/swhitty/SwiftDraw">
                <text fill="#505050" text-anchor="end" x="785.0" y="590.0">https://github.com/swhitty/SwiftDraw</text>
            </a>
        </g>
    </g>
    <g id="Guides" stroke="rgb(39, 170, 225)" stroke-width="0.5">
        <path id="Capline-S" d="M18,76 l800,0" />
        <path id="H-reference" d="M85,145.755 L87.685,145.755 L113.369,79.287 L114.052,79.287 L114.052,76 L112.148,76 L85,145.755 Z M95.693,121.536 L130.996,121.536 L130.263,119.313 L96.474,119.313 L95.693,121.536 Z M139.15,145.755 L141.787,145.755 L114.638,76 L113.466,76 L113.466,79.287 L139.15,145.755 Z" stroke="none" transform="translate(0,200)" />
        <path id="Baseline-S" d="M18,146 l800,0" />
        <path id="left-margin-Ultralight-M" d="M221,256 l0,110" />
        <path id="right-margin-Ultralight-M" d="M309,256 l0,110" />
        <path id="left-margin-Regular-M" d="M421,256 l0,110" />
        <path id="right-margin-Regular-M" d="M509,256 l0,110" />
        <path id="left-margin-Black-M" d="M621,256 l0,110" />
        <path id="right-margin-Black-M" d="M709,256 l0,110" />
        <path id="Capline-M" d="M18,276 l800,0" />
        <path id="Baseline-M" d="M18,346 l800,0" />
        <path id="Capline-L" d="M18,476 l800,0" />
        <path id="Baseline-L" d="M18,546 l800,0" />
    </g>
    <g id="Symbols">
        <g id="Ultralight-M" transform="translate(0,200)">
            <path d="M225.4,115.4 L304.6,115.4 C307.03,115.4 309,113.43 309,111 C309,108.57 307.03,106.6 304.6,106.6 L225.4,106.6 C222.97,106.6 221,108.57 221,111 C221,113.43 222.97,115.4 225.4,115.4 Z M225.4,89 L304.6,89 C307.03,89 309,87.03 309,84.6 C309,82.17 307.03,80.2 304.6,80.2 L225.4,80.2 C222.97,80.2 221,82.17 221,84.6 C221,87.03 222.97,89 225.4,89 Z M251.8,141.8 L304.6,141.8 C307.03,141.8 309,139.83 309,137.4 C309,134.97 307.03,133 304.6,133 L251.8,133 C249.37,133 247.4,134.97 247.4,137.4 C247.4,139.83 249.37,141.8 251.8,141.8 Z" />
        </g>
        <g id="Regular-M" transform="translate(0,200)">
            <path d="M425.4,115.4 L504.6,115.4 C507.03,115.4 509,113.43 509,111 C509,108.57 507.03,106.6 504.6,106.6 L425.4,106.6 C422.97,106.6 421,108.57 421,111 C421,113.43 422.97,115.4 425.4,115.4 Z M425.4,89 L504.6,89 C507.03,89 509,87.03 509,84.6 C509,82.17 507.03,80.2 504.6,80.2 L425.4,80.2 C422.97,80.2 421,82.17 421,84.6 C421,87.03 422.97,89 425.4,89 Z M451.8,141.8 L504.6,141.8 C507.03,141.8 509,139.83 509,137.4 C509,134.97 507.03,133 504.6,133 L451.8,133 C449.37,133 447.4,134.97 447.4,137.4 C447.4,139.83 449.37,141.8 451.8,141.8 Z" />
        </g>
        <g id="Black-M" transform="translate(0,200)">
            <path d="M625.4,115.4 L704.6,115.4 C707.03,115.4 709,113.43 709,111 C709,108.57 707.03,106.6 704.6,106.6 L625.4,106.6 C622.97,106.6 621,108.57 621,111 C621,113.43 622.97,115.4 625.4,115.4 Z M625.4,89 L704.6,89 C707.03,89 709,87.03 709,84.6 C709,82.17 707.03,80.2 704.6,80.2 L625.4,80.2 C622.97,80.2 621,82.17 621,84.6 C621,87.03 622.97,89 625.4,89 Z M651.8,141.8 L704.6,141.8 C707.03,141.8 709,139.83 709,137.4 C709,134.97 707.03,133 704.6,133 L651.8,133 C649.37,133 647.4,134.97 647.4,137.4 C647.4,139.83 649.37,141.8 651.8,141.8 Z" />
        </g>
    </g>
</svg>