<?xml version="1.0" encoding="UTF-8"?>
<svg height="600" width="800" xmlns="http://www.w3.org/2000/svg" xmlns:xlink="http://www.w3.org/1999/xlink">
    <g id="Notes" font-family="LucidaGrande, 'Lucida Grande', sans-serif" font-size="13">
        <rect fill="white" height="600.0" width="800.0" x="0.0" y="0.0" />
        <g font-size="13">
            <text x="18.0" y="176.0">Small</text>
            <text x="18.0" y="376.0">Medium</text>
            <text x="18.0" y="576.0">Large</text>
        </g>
        <g font-size="9">
            <text x="250.0" y="30.0">Ultralight</text>
            <text x="450.0" y="30.0">Regular</text>
            <text x="650.0" y="30.0">Black</text>
            <text id="template-version" fill="#505050" text-anchor="end" x="785.0" y="575.0">Template v.3.0</text>
            <a href="https://github.com/swhitty/SwiftDraw">
                <text fill="#505050" text-anchor="end" x="785.0" y="590.0">https://github.com/swhitty/SwiftDraw</text>
            </a>
        </g>
    </g>
    <g id="Guides" stroke="rgb(39, 170, 225)" stroke-width="0.5">
        <path id="Capline-S" d="M18,76 l800,0" />
        <path id="H-reference" d="M85,145.755 L87.685,145.755 L113.369,79.287 L114.052,79.287 L114.052,76 L112.148,76 L85,145.755 Z M95.693,121.536 L130.996,121.536 L130.263,119.313 L96.474,119.313 L95.693,121.536 Z M139.15,145.755 L141.787,145.755 L114.638,76 L113.466,76 L113.466,79.287 L139.15,145.755 Z" stroke="none" transform="translate(0,200)" />
        <path id="Baseline-S" d="M18,146 l800,0" />
        <path id="left-margin-Ultralight-M" d="M230,256 l0,110" />
        <path id="right-margin-Ultralight-M" d="M300,256 l0,110" />
        <path id="left-margin-Regular-M" d="M430,256 l0,110" />
        <path id="right-margin-Regular-M" d="M500,256 l0,110" />
        <path id="left-margin-Black-M" d="M630,256 l0,110" />
        <path id="right-margin-Black-M" d="M700,256 l0,110" />
        <path id="Capline-M" d="M18,276 l800,0" />
        <path id="Baseline-M" d="M18,346 l800,0" />
        <path id="Capline-L" d="M18,476 l800,0" />
        <path id="Baseline-L" d="M18,546 l800,0" />
    </g>
    <g id="Symbols">
        <g id="Ultralight-M" transform="translate(0,200)">
            <path d="M269.979,138.104 L261.229,129.354 C260.09,128.215 258.243,128.215 257.104,129.354 C255.965,130.493 255.965,132.34 257.104,133.479 L265.854,142.229 C266.993,143.368 268.84,143.368 269.979,142.229 C271.118,141.09 271.118,139.243 269.979,138.104 Z M261.229,133.479 L269.979,124.729 C271.118,123.59 271.118,121.743 269.979,120.604 C268.84,119.465 266.993,119.465 265.854,120.604 L257.104,129.354 C255.965,130.493 255.965,132.34 257.104,133.479 C258.243,134.618 260.09,134.618 261.229,133.479 Z M259.167,134.333 L273.75,134.333 C284.665,134.338 294.125,126.774 296.523,116.125 C298.92,105.475 293.614,94.587 283.749,89.913 C282.293,89.224 280.554,89.845 279.864,91.3 C279.174,92.756 279.796,94.495 281.251,95.185 C288.65,98.69 292.63,106.856 290.832,114.843 C289.034,122.831 281.938,128.504 273.751,128.5 L259.167,128.5 C257.556,128.5 256.25,129.806 256.25,131.417 C256.25,133.027 257.556,134.333 259.167,134.333 Z M248.749,126.815 C241.35,123.31 237.37,115.144 239.168,107.157 C240.966,99.169 248.062,93.496 256.249,93.5 L270.833,93.5 C272.444,93.5 273.75,92.194 273.75,90.583 C273.75,88.973 272.444,87.667 270.833,87.667 L256.25,87.667 C245.335,87.662 235.875,95.226 233.477,105.875 C231.08,116.525 236.386,127.413 246.251,132.087 C247.707,132.776 249.446,132.155 250.136,130.7 C250.825,129.244 250.204,127.505 248.749,126.815 Z M272.896,88.521 L264.146,79.771 C263.007,78.632 261.16,78.632 260.021,79.771 C258.882,80.91 258.882,82.757 260.021,83.896 L268.771,92.646 C269.91,93.785 271.757,93.785 272.896,92.646 C274.035,91.507 274.035,89.66 272.896,88.521 Z M268.771,88.521 L260.021,97.271 C258.882,98.41 258.882,100.257 260.021,101.396 C261.16,102.535 263.007,102.535 264.146,101.396 L272.896,92.646 C274.035,91.507 274.035,89.66 272.896,88.521 C271.757,87.382 269.91,87.382 268.771,88.521 Z" />
        </g>
        <g id="Regular-M" transform="translate(0,200)">
            <path d="M469.979,138.104 L461.229,129.354 C460.09,128.215 458.243,128.215 457.104,129.354 C455.965,130.493 455.965,132.34 457.104,133.479 L465.854,142.229 C466.993,143.368 468.84,143.368 469.979,142.229 C471.118,141.09 471.118,139.243 469.979,138.104 Z M461.229,133.479 L469.979,124.729 C471.118,123.59 471.118,121.743 469.979,120.604 C468.84,119.465 466.993,119.465 465.854,120.604 L457.104,129.354 C455.965,130.493 455.965,132.34 457.104,133.479 C458.243,134.618 460.09,134.618 461.229,133.479 Z M459.167,134.333 L473.75,134.333 C484.665,134.338 494.125,126.774 496.523,116.125 C498.92,105.475 493.614,94.587 483.749,89.913 C482.293,89.224 480.554,89.845 479.864,91.3 C479.174,92.756 479.796,94.495 481.251,95.185 C488.65,98.69 492.63,106.856 490.832,114.843 C489.034,122.831 481.938,128.504 473.751,128.5 L459.167,128.5 C457.556,128.5 456.25,129.806 456.25,131.417 C456.25,133.027 457.556,134.333 459.167,134.333 Z M448.749,126.815 C441.35,123.31 437.37,115.144 439.168,107.157 C440.966,99.169 448.062,93.496 456.249,93.5 L470.833,93.5 C472.444,93.5 473.75,92.194 473.75,90.583 C473.75,88.973 472.444,87.667 470.833,87.667 L456.25,87.667 C445.335,87.662 435.875,95.226 433.477,105.875 C431.08,116.525 436.386,127.413 446.251,132.087 C447.707,132.776 449.446,132.155 450.136,130.7 C450.826,129.244 450.204,127.505 448.749,126.815 Z M472.896,88.521 L464.146,79.771 C463.007,78.632 461.16,78.632 460.021,79.771 C458.882,80.91 458.882,82.757 460.021,83.896 L468.771,92.646 C469.91,93.785 471.757,93.785 472.896,92.646 C474.035,91.507 474.035,89.66 472.896,88.521 Z M468.771,88.521 L460.021,97.271 C458.882,98.41 458.882,100.257 460.021,101.396 C461.16,102.535 463.007,102.535 464.146,101.396 L472.896,92.646 C474.035,91.507 474.035,89.66 472.896,88.521 C471.757,87.382 469.91,87.382 468.771,88.521 Z" />
        </g>
        <g id="Black-M" transform="translate(0,200)">
            <path d="M669.979,138.104 L661.229,129.354 C660.09,128.215 658.243,128.215 657.104,129.354 C655.965,130.493 655.965,132.34 657.104,133.479 L665.854,142.229 C666.993,143.368 668.84,143.368 669.979,142.229 C671.118,141.09 671.118,139.243 669.979,138.104 Z M661.229,133.479 L669.979,124.729 C671.118,123.59 671.118,121.743 669.979,120.604 C668.84,119.465 666.993,119.465 665.854,120.604 L657.104,129.354 C655.965,130.493 655.965,132.34 657.104,133.479 C658.243,134.618 660.09,134.618 661.229,133.479 Z M659.167,134.333 L673.75,134.333 C684.665,134.338 694.125,126.774 696.523,116.125 C698.92,105.475 693.614,94.587 683.749,89.913 C682.293,89.224 680.554,89.845 679.864,91.3 C679.174,92.756 679.796,94.495 681.251,95.185 C688.65,98.69 692.63,106.856 690.832,114.843 C689.034,122.831 681.938,128.504 673.751,128.5 L659.167,128.5 C657.556,128.5 656.25,129.806 656.25,131.417 C656.25,133.027 657.556,134.333 659.167,134.333 Z M648.749,126.815 C641.35,123.31 637.37,115.144 639.168,107.157 C640.966,99.169 648.062,93.496 656.249,93.5 L670.833,93.5 C672.444,93.5 673.75,92.194 673.75,90.583 C673.75,88.973 672.444,87.667 670.833,87.667 L656.25,87.667 C645.335,87.662 635.875,95.226 633.477,105.875 C631.08,116.525 636.386,127.413 646.251,132.087 C647.707,132.776 649.446,132.155 650.136,130.7 C650.826,129.244 650.204,127.505 648.749,126.815 Z M672.896,88.521 L664.146,79.771 C663.007,78.632 661.16,78.632 660.021,79.771 C658.882,80.91 658.882,82.757 660.021,83.896 L668.771,92.646 C669.91,93.785 671.757,93.785 672.896,92.646 C674.035,91.507 674.035,89.66 672.896,88.521 Z M668.771,88.521 L660.021,97.271 C658.882,98.41 658.882,100.257 660.021,101.396 C661.16,102.535 663.007,102.535 664.146,101.396 L672.896,92.646 C674.035,91.507 674.035,89.66 672.896,88.521 C671.757,87.382 669.91,87.382 668.771,88.521 Z" />
        </g>
    </g>
</svg>