<?xml version="1.0" encoding="UTF-8"?>
<svg height="600" width="800" xmlns="http://www.w3.org/2000/svg" xmlns:xlink="http://www.w3.org/1999/xlink">
    <g id="Notes" font-family="LucidaGrande, 'Lucida Grande', sans-serif" font-size="13">
        <rect fill="white" height="600.0" width="800.0" x="0.0" y="0.0" />
        <g font-size="13">
            <text x="18.0" y="176.0">Small</text>
            <text x="18.0" y="376.0">Medium</text>
            <text x="18.0" y="576.0">Large</text>
        </g>
        <g font-size="9">
            <text x="250.0" y="30.0">Ultralight</text>
            <text x="450.0" y="30.0">Regular</text>
            <text x="650.0" y="30.0">Black</text>
            <text id="template-version" fill="#505050" text-anchor="end" x="785.0" y="575.0">Template v.3.0</text>
            <a href="https://github.com/swhitty/SwiftDraw">
                <text fill="#505050" text-anchor="end" x="785.0" y="590.0">https://github.com/swhitty/SwiftDraw</text>
            </a>
        </g>
    </g>
    <g id="Guides" stroke="rgb(39, 170, 225)" stroke-width="0.5">
        <path id="Capline-S" d="M18,76 l800,0" />
        <path id="H-reference" d="M85,145.755 L87.685,145.755 L113.369,79.287 L114.052,79.287 L114.052,76 L112.148,76 L85,145.755 Z M95.693,121.536 L130.996,121.536 L130.263,119.313 L96.474,119.313 L95.693,121.536 Z M139.15,145.755 L141.787,145.755 L114.638,76 L113.466,76 L113.466,79.287 L139.15,145.755 Z" stroke="none" transform="translate(0,200)" />
        <path id="Baseline-S" d="M18,146 l800,0" />
        <path id="left-margin-Ultralight-M" d="M230,256 l0,110" />
        <path id="right-margin-Ultralight-M" d="M300,256 l0,110" />
        <path id="left-margin-Regular-M" d="M430,256 l0,110" />
        <path id="right-margin-Regular-M" d="M500,256 l0,110" />
        <path id="left-margin-Black-M" d="M630,256 l0,110" />
        <path id="right-margin-Black-M" d="M700,256 l0,110" />
        <path id="Capline-M" d="M18,276 l800,0" />
        <path id="Baseline-M" d="M18,346 l800,0" />
        <path id="Capline-L" d="M18,476 l800,0" />
        <path id="Baseline-L" d="M18,546 l800,0" />
    </g>
    <g id="Symbols">
        <g id="Ultralight-M" transform="translate(0,200)">
            <path d="M261.818,85.545 L261.818,91.909 C261.818,93.666 263.243,95.091 265,95.091 C266.757,95.091 268.182,93.666 268.182,91.909 L268.182,85.545 C268.182,83.788 266.757,82.364 265,82.364 C263.243,82.364 261.818,83.788 261.818,85.545 Z M245.976,97.022 L241.477,92.523 C240.235,91.28 238.22,91.28 236.977,92.523 C235.735,93.765 235.735,95.78 236.977,97.023 L241.476,101.522 C242.719,102.764 244.734,102.764 245.976,101.522 C247.219,100.279 247.219,98.265 245.976,97.022 Z M288.524,101.522 L293.023,97.023 C294.265,95.78 294.265,93.765 293.023,92.523 C291.78,91.28 289.765,91.28 288.523,92.523 L284.024,97.022 C282.781,98.265 282.781,100.279 284.024,101.522 C285.266,102.764 287.281,102.764 288.524,101.522 Z M249.091,123.727 C249.091,114.941 256.214,107.818 265,107.818 C273.786,107.818 280.909,114.941 280.909,123.727 C280.909,125.485 282.334,126.909 284.091,126.909 C285.848,126.909 287.273,125.485 287.273,123.727 C287.273,111.426 277.301,101.455 265,101.455 C252.699,101.455 242.727,111.426 242.727,123.727 C242.727,125.485 244.152,126.909 245.909,126.909 C247.666,126.909 249.091,125.485 249.091,123.727 Z M296.818,120.545 L233.182,120.545 C231.425,120.545 230,121.97 230,123.727 C230,125.485 231.425,126.909 233.182,126.909 L296.818,126.909 C298.575,126.909 300,125.485 300,123.727 C300,121.97 298.575,120.545 296.818,120.545 Z M287.273,133.273 L242.727,133.273 C240.97,133.273 239.545,134.697 239.545,136.455 C239.545,138.212 240.97,139.636 242.727,139.636 L287.273,139.636 C289.03,139.636 290.455,138.212 290.455,136.455 C290.455,134.697 289.03,133.273 287.273,133.273 Z" />
        </g>
        <g id="Regular-M" transform="translate(0,200)">
            <path d="M461.818,85.545 L461.818,91.909 C461.818,93.666 463.243,95.091 465,95.091 C466.757,95.091 468.182,93.666 468.182,91.909 L468.182,85.545 C468.182,83.788 466.757,82.364 465,82.364 C463.243,82.364 461.818,83.788 461.818,85.545 Z M445.976,97.022 L441.477,92.523 C440.235,91.28 438.22,91.28 436.977,92.523 C435.735,93.765 435.735,95.78 436.977,97.023 L441.476,101.522 C442.719,102.764 444.734,102.764 445.976,101.522 C447.219,100.279 447.219,98.265 445.976,97.022 Z M488.524,101.522 L493.023,97.023 C494.265,95.78 494.265,93.765 493.023,92.523 C491.78,91.28 489.765,91.28 488.523,92.523 L484.024,97.022 C482.781,98.265 482.781,100.279 484.024,101.522 C485.266,102.764 487.281,102.764 488.524,101.522 Z M449.091,123.727 C449.091,114.941 456.214,107.818 465,107.818 C473.786,107.818 480.909,114.941 480.909,123.727 C480.909,125.485 482.334,126.909 484.091,126.909 C485.848,126.909 487.273,125.485 487.273,123.727 C487.273,111.426 477.301,101.455 465,101.455 C452.699,101.455 442.727,111.426 442.727,123.727 C442.727,125.485 444.152,126.909 445.909,126.909 C447.666,126.909 449.091,125.485 449.091,123.727 Z M496.818,120.545 L433.182,120.545 C431.425,120.545 430,121.97 430,123.727 C430,125.485 431.425,126.909 433.182,126.909 L496.818,126.909 C498.575,126.909 500,125.485 500,123.727 C500,121.97 498.575,120.545 496.818,120.545 Z M487.273,133.273 L442.727,133.273 C440.97,133.273 439.545,134.697 439.545,136.455 C439.545,138.212 440.97,139.636 442.727,139.636 L487.273,139.636 C489.03,139.636 490.455,138.212 490.455,136.455 C490.455,134.697 489.03,133.273 487.273,133.273 Z" />
        </g>
        <g id="Black-M" transform="translate(0,200)">
            <path d="M661.818,85.545 L661.818,91.909 C661.818,93.666 663.243,95.091 665,95.091 C666.757,95.091 668.182,93.666 668.182,91.909 L668.182,85.545 C668.182,83.788 666.757,82.364 665,82.364 C663.243,82.364 661.818,83.788 661.818,85.545 Z M645.976,97.022 L641.477,92.523 C640.235,91.28 638.22,91.28 636.977,92.523 C635.735,93.765 635.735,95.78 636.977,97.023 L641.477,101.522 C642.719,102.764 644.734,102.764 645.976,101.522 C647.219,100.279 647.219,98.265 645.976,97.022 Z M688.523,101.522 L693.023,97.023 C694.265,95.78 694.265,93.765 693.023,92.523 C691.78,91.28 689.765,91.28 688.523,92.523 L684.024,97.022 C682.781,98.265 682.781,100.279 684.024,101.522 C685.266,102.764 687.281,102.764 688.523,101.522 Z M649.091,123.727 C649.091,114.941 656.214,107.818 665,107.818 C673.786,107.818 680.909,114.941 680.909,123.727 C680.909,125.485 682.334,126.909 684.091,126.909 C685.848,126.909 687.273,125.485 687.273,123.727 C687.273,111.426 677.301,101.455 665,101.455 C652.699,101.455 642.727,111.426 642.727,123.727 C642.727,125.485 644.152,126.909 645.909,126.909 C647.666,126.909 649.091,125.485 649.091,123.727 Z M696.818,120.545 L633.182,120.545 C631.425,120.545 630,121.97 630,123.727 C630,125.485 631.425,126.909 633.182,126.909 L696.818,126.909 C698.575,126.909 700,125.485 700,123.727 C700,121.97 698.575,120.545 696.818,120.545 Z M687.273,133.273 L642.727,133.273 C640.97,133.273 639.545,134.697 639.545,136.455 C639.545,138.212 640.97,139.636 642.727,139.636 L687.273,139.636 C689.03,139.636 690.455,138.212 690.455,136.455 C690.455,134.697 689.03,133.273 687.273,133.273 Z" />
        </g>
    </g>
</svg>