<?xml version="1.0" encoding="UTF-8"?>
<svg height="600" width="800" xmlns="http://www.w3.org/2000/svg" xmlns:xlink="http://www.w3.org/1999/xlink">
    <g id="Notes" font-family="LucidaGrande, 'Lucida Grande', sans-serif" font-size="13">
        <rect fill="white" height="600.0" width="800.0" x="0.0" y="0.0" />
        <g font-size="13">
            <text x="18.0" y="176.0">Small</text>
            <text x="18.0" y="376.0">Medium</text>
            <text x="18.0" y="576.0">Large</text>
        </g>
        <g font-size="9">
            <text x="250.0" y="30.0">Ultralight</text>
            <text x="450.0" y="30.0">Regular</text>
            <text x="650.0" y="30.0">Black</text>
            <text id="template-version" fill="#505050" text-anchor="end" x="785.0" y="575.0">Template v.3.0</text>
            <a href="https://github.com/swhitty/SwiftDraw">
                <text fill="#505050" text-anchor="end" x="785.0" y="590.0">https://github.com/swhitty/SwiftDraw</text>
            </a>
        </g>
    </g>
    <g id="Guides" stroke="rgb(39, 170, 225)" stroke-width="0.5">
        <path id="Capline-S" d="M18,76 l800,0" />
        <path id="H-reference" d="M85,145.755 L87.685,145.755 L113.369,79.287 L114.052,79.287 L114.052,76 L112.148,76 L85,145.755 Z M95.693,121.536 L130.996,121.536 L130.263,119.313 L96.474,119.313 L95.693,121.536 Z M139.15,145.755 L141.787,145.755 L114.638,76 L113.466,76 L113.466,79.287 L139.15,145.755 Z" stroke="none" transform="translate(0,200)" />
        <path id="Baseline-S" d="M18,146 l800,0" />
        <path id="left-margin-Ultralight-M" d="M230,256 l0,110" />
        <path id="right-margin-Ultralight-M" d="M300,256 l0,110" />
        <path id="left-margin-Regular-M" d="M430,256 l0,110" />
        <path id="right-margin-Regular-M" d="M500,256 l0,110" />
        <path id="left-margin-Black-M" d="M630,256 l0,110" />
        <path id="right-margin-Black-M" d="M700,256 l0,110" />
        <path id="Capline-M" d="M18,276 l800,0" />
        <path id="Baseline-M" d="M18,346 l800,0" />
        <path id="Capline-L" d="M18,476 l800,0" />
        <path id="Baseline-L" d="M18,546 l800,0" />
    </g>
    <g id="Symbols">
        <g id="Ultralight-M" transform="translate(0,200)">
            <path d="M262.083,87.667 L262.083,134.333 C262.083,135.944 263.389,137.25 265,137.25 C266.611,137.25 267.917,135.944 267.917,134.333 L267.917,87.667 C267.917,86.056 266.611,84.75 265,84.75 C263.389,84.75 262.083,86.056 262.083,87.667 Z M267.062,136.396 L284.562,118.896 C285.701,117.757 285.701,115.91 284.562,114.771 C283.423,113.632 281.577,113.632 280.438,114.771 L262.938,132.271 C261.799,133.41 261.799,135.257 262.938,136.396 C264.077,137.535 265.923,137.535 267.062,136.396 Z M267.062,132.271 L249.562,114.771 C248.423,113.632 246.577,113.632 245.438,114.771 C244.299,115.91 244.299,117.757 245.438,118.896 L262.938,136.396 C264.077,137.535 265.923,137.535 267.062,136.396 C268.201,135.257 268.201,133.41 267.062,132.271 Z" />
        </g>
        <g id="Regular-M" transform="translate(0,200)">
            <path d="M462.083,87.667 L462.083,134.333 C462.083,135.944 463.389,137.25 465,137.25 C466.611,137.25 467.917,135.944 467.917,134.333 L467.917,87.667 C467.917,86.056 466.611,84.75 465,84.75 C463.389,84.75 462.083,86.056 462.083,87.667 Z M467.062,136.396 L484.562,118.896 C485.701,117.757 485.701,115.91 484.562,114.771 C483.423,113.632 481.577,113.632 480.438,114.771 L462.938,132.271 C461.799,133.41 461.799,135.257 462.938,136.396 C464.077,137.535 465.923,137.535 467.062,136.396 Z M467.062,132.271 L449.562,114.771 C448.423,113.632 446.577,113.632 445.438,114.771 C444.299,115.91 444.299,117.757 445.438,118.896 L462.938,136.396 C464.077,137.535 465.923,137.535 467.062,136.396 C468.201,135.257 468.201,133.41 467.062,132.271 Z" />
        </g>
        <g id="Black-M" transform="translate(0,200)">
            <path d="M662.083,87.667 L662.083,134.333 C662.083,135.944 663.389,137.25 665,137.25 C666.611,137.25 667.917,135.944 667.917,134.333 L667.917,87.667 C667.917,86.056 666.611,84.75 665,84.75 C663.389,84.75 662.083,86.056 662.083,87.667 Z M667.062,136.396 L684.562,118.896 C685.701,117.757 685.701,115.91 684.562,114.771 C683.423,113.632 681.577,113.632 680.438,114.771 L662.938,132.271 C661.799,133.41 661.799,135.257 662.938,136.396 C664.077,137.535 665.923,137.535 667.062,136.396 Z M667.062,132.271 L649.562,114.771 C648.423,113.632 646.577,113.632 645.438,114.771 C644.299,115.91 644.299,117.757 645.438,118.896 L662.938,136.396 C664.077,137.535 665.923,137.535 667.062,136.396 C668.201,135.257 668.201,133.41 667.062,132.271 Z" />
        </g>
    </g>
</svg>