<?xml version="1.0" encoding="UTF-8"?>
<svg height="600" width="800" xmlns="http://www.w3.org/2000/svg" xmlns:xlink="http://www.w3.org/1999/xlink">
    <g id="Notes" font-family="LucidaGrande, 'Lucida Grande', sans-serif" font-size="13">
        <rect fill="white" height="600.0" width="800.0" x="0.0" y="0.0" />
        <g font-size="13">
            <text x="18.0" y="176.0">Small</text>
            <text x="18.0" y="376.0">Medium</text>
            <text x="18.0" y="576.0">Large</text>
        </g>
        <g font-size="9">
            <text x="250.0" y="30.0">Ultralight</text>
            <text x="450.0" y="30.0">Regular</text>
            <text x="650.0" y="30.0">Black</text>
            <text id="template-version" fill="#505050" text-anchor="end" x="785.0" y="575.0">Template v.3.0</text>
            <a href="https://github.com/swhitty/SwiftDraw">
                <text fill="#505050" text-anchor="end" x="785.0" y="590.0">https://github.com/swhitty/SwiftDraw</text>
            </a>
        </g>
    </g>
    <g id="Guides" stroke="rgb(39, 170, 225)" stroke-width="0.5">
        <path id="Capline-S" d="M18,76 l800,0" />
        <path id="H-reference" d="M85,145.755 L87.685,145.755 L113.369,79.287 L114.052,79.287 L114.052,76 L112.148,76 L85,145.755 Z M95.693,121.536 L130.996,121.536 L130.263,119.313 L96.474,119.313 L95.693,121.536 Z M139.15,145.755 L141.787,145.755 L114.638,76 L113.466,76 L113.466,79.287 L139.15,145.755 Z" stroke="none" transform="translate(0,200)" />
        <path id="Baseline-S" d="M18,146 l800,0" />
        <path id="left-margin-Ultralight-M" d="M221,256 l0,110" />
        <path id="right-margin-Ultralight-M" d="M309,256 l0,110" />
        <path id="left-margin-Regular-M" d="M421,256 l0,110" />
        <path id="right-margin-Regular-M" d="M509,256 l0,110" />
        <path id="left-margin-Black-M" d="M621,256 l0,110" />
        <path id="right-margin-Black-M" d="M709,256 l0,110" />
        <path id="Capline-M" d="M18,276 l800,0" />
        <path id="Baseline-M" d="M18,346 l800,0" />
        <path id="Capline-L" d="M18,476 l800,0" />
        <path id="Baseline-L" d="M18,546 l800,0" />
    </g>
    <g id="Symbols">
        <g id="Ultralight-M" transform="translate(0,200)">
            <path d="M245.084,103.241 L254.069,109.658 C254.956,110.291 255.171,110.422 255.81,110.545 C255.86,110.554 255.86,110.554 255.91,110.562 C256.548,110.664 257.209,110.563 257.794,110.272 C257.987,110.176 258.161,110.063 258.322,109.932 C258.659,109.66 258.782,109.511 259.275,108.856 L261.176,106.321 C261.229,106.25 261.242,106.234 261.203,106.276 C261.181,106.298 261.181,106.298 261.157,106.322 C261.122,106.356 261.066,106.401 261.005,106.44 C260.929,106.488 260.937,106.484 261.021,106.446 L269.117,102.849 C269.772,102.559 269.961,102.46 270.311,102.14 C270.649,101.83 270.915,101.45 271.09,101.027 C271.245,100.659 271.294,100.373 271.331,99.906 C271.34,99.789 271.34,99.789 271.349,99.669 L271.941,90.75 C272.018,89.595 271.144,88.597 269.989,88.521 C268.835,88.444 267.836,89.318 267.76,90.472 L267.169,99.375 C267.161,99.481 267.161,99.481 267.154,99.571 C267.151,99.614 267.159,99.565 267.224,99.411 C267.278,99.28 267.367,99.154 267.479,99.05 C267.608,98.933 267.586,98.944 267.417,99.019 L259.309,102.621 C259.025,102.749 258.932,102.795 258.76,102.902 C258.556,103.034 258.387,103.168 258.234,103.319 C258.202,103.351 258.202,103.351 258.156,103.398 C258.035,103.527 257.992,103.582 257.821,103.811 L255.926,106.338 C255.708,106.626 255.634,106.717 255.691,106.671 C255.757,106.618 255.836,106.566 255.925,106.522 C256.125,106.422 256.345,106.389 256.561,106.423 C256.578,106.426 256.578,106.426 256.603,106.43 C256.833,106.475 256.756,106.428 256.503,106.248 L247.52,99.831 C246.578,99.158 245.27,99.376 244.597,100.318 C243.925,101.26 244.143,102.568 245.084,103.241 Z M267.318,116.069 L272.799,118.417 C273.205,118.592 273.337,118.652 273.378,118.677 C273.293,118.626 273.182,118.532 273.071,118.384 C272.918,118.179 272.846,117.934 272.861,117.687 C272.876,117.463 272.923,117.33 272.956,117.271 C272.914,117.347 272.837,117.467 272.616,117.797 L270.039,121.664 C269.946,121.803 269.938,121.815 270.058,121.716 C270.167,121.626 270.29,121.56 270.421,121.521 C270.568,121.475 270.548,121.476 270.389,121.476 L266.209,121.476 C265.983,121.476 265.948,121.474 266.138,121.548 C266.301,121.613 266.445,121.716 266.557,121.85 C266.689,122.008 266.675,121.974 266.603,121.76 L265.113,117.282 C265.069,117.162 265.066,117.151 265.064,117.14 C265.089,117.37 265.082,117.481 265.058,117.588 C265.046,117.639 265.046,117.639 265.043,117.65 C265.016,117.752 265.028,117.725 265.092,117.596 L266.224,115.334 C266.347,115.088 266.376,115.04 266.195,115.187 C266.034,115.317 265.845,115.395 265.646,115.417 C265.4,115.442 265.46,115.457 265.721,115.544 L267.48,116.13 Z M268.806,112.155 L267.042,111.567 C266.067,111.245 265.833,111.186 265.207,111.25 C264.594,111.316 264.027,111.552 263.558,111.93 C263.061,112.334 262.93,112.552 262.476,113.459 L261.341,115.728 C261.109,116.197 261.07,116.283 260.991,116.581 C260.985,116.605 260.985,116.605 260.979,116.629 C260.897,116.991 260.876,117.322 260.907,117.65 C260.971,118.094 261.056,118.411 261.177,118.715 L262.629,123.087 C262.902,123.903 262.991,124.117 263.344,124.54 C263.683,124.944 264.115,125.256 264.603,125.448 C265.12,125.651 265.348,125.667 266.209,125.667 L270.389,125.667 C271.049,125.667 271.232,125.656 271.65,125.527 C272.034,125.41 272.401,125.214 272.72,124.952 C273.055,124.676 273.183,124.506 273.53,123.982 L276.101,120.124 C276.843,119.015 276.99,118.747 277.043,117.958 C277.09,117.207 276.872,116.472 276.427,115.875 C276.18,115.545 275.889,115.299 275.548,115.092 C275.266,114.922 275.08,114.836 274.45,114.566 L268.968,112.217 Z M283.857,111 C283.857,121.415 275.415,129.857 265,129.857 C254.585,129.857 246.143,121.415 246.143,111 C246.143,100.585 254.585,92.143 265,92.143 C275.415,92.143 283.857,100.585 283.857,111 Z M288.048,111 C288.048,98.271 277.729,87.952 265,87.952 C252.271,87.952 241.952,98.271 241.952,111 C241.952,123.729 252.271,134.048 265,134.048 C277.729,134.048 288.048,123.729 288.048,111 Z" />
        </g>
        <g id="Regular-M" transform="translate(0,200)">
            <path d="M445.084,103.241 L454.069,109.658 C454.956,110.291 455.171,110.422 455.81,110.545 C455.86,110.554 455.86,110.554 455.91,110.562 C456.548,110.664 457.209,110.563 457.794,110.272 C457.987,110.176 458.161,110.063 458.322,109.932 C458.659,109.66 458.782,109.511 459.275,108.856 L461.176,106.321 C461.229,106.25 461.242,106.234 461.203,106.276 C461.181,106.298 461.181,106.298 461.157,106.322 C461.122,106.356 461.066,106.401 461.005,106.44 C460.929,106.488 460.937,106.484 461.021,106.446 L469.117,102.849 C469.772,102.559 469.961,102.46 470.311,102.14 C470.649,101.83 470.915,101.45 471.09,101.027 C471.245,100.659 471.294,100.373 471.331,99.906 C471.34,99.789 471.34,99.789 471.349,99.669 L471.941,90.75 C472.018,89.595 471.144,88.597 469.989,88.521 C468.835,88.444 467.836,89.318 467.76,90.472 L467.169,99.375 C467.161,99.481 467.161,99.481 467.154,99.571 C467.151,99.614 467.159,99.565 467.224,99.411 C467.278,99.28 467.367,99.154 467.479,99.05 C467.608,98.933 467.586,98.944 467.417,99.019 L459.309,102.621 C459.025,102.749 458.932,102.795 458.76,102.902 C458.556,103.034 458.387,103.168 458.234,103.319 C458.202,103.351 458.202,103.351 458.156,103.398 C458.035,103.527 457.992,103.582 457.821,103.811 L455.926,106.338 C455.708,106.626 455.634,106.717 455.691,106.671 C455.757,106.618 455.836,106.566 455.925,106.522 C456.125,106.422 456.345,106.389 456.561,106.423 C456.578,106.426 456.578,106.426 456.603,106.43 C456.833,106.475 456.756,106.428 456.503,106.248 L447.52,99.831 C446.578,99.158 445.27,99.376 444.597,100.318 C443.925,101.26 444.143,102.568 445.084,103.241 Z M467.318,116.069 L472.799,118.417 C473.205,118.592 473.337,118.652 473.378,118.677 C473.293,118.626 473.182,118.532 473.071,118.384 C472.918,118.179 472.846,117.934 472.861,117.687 C472.876,117.463 472.923,117.33 472.956,117.271 C472.914,117.347 472.837,117.467 472.616,117.797 L470.039,121.664 C469.946,121.803 469.938,121.815 470.058,121.716 C470.167,121.626 470.29,121.56 470.421,121.521 C470.568,121.475 470.548,121.476 470.389,121.476 L466.209,121.476 C465.983,121.476 465.948,121.474 466.138,121.548 C466.301,121.613 466.445,121.716 466.557,121.85 C466.689,122.008 466.675,121.974 466.603,121.76 L465.113,117.282 C465.069,117.162 465.066,117.151 465.064,117.14 C465.089,117.37 465.082,117.481 465.058,117.588 C465.046,117.639 465.046,117.639 465.043,117.65 C465.016,117.752 465.028,117.725 465.092,117.596 L466.224,115.334 C466.347,115.088 466.376,115.04 466.195,115.187 C466.034,115.317 465.845,115.395 465.646,115.417 C465.4,115.442 465.46,115.457 465.721,115.544 L467.48,116.13 Z M468.806,112.155 L467.042,111.567 C466.067,111.245 465.833,111.186 465.207,111.25 C464.594,111.316 464.027,111.552 463.558,111.93 C463.061,112.334 462.93,112.552 462.476,113.459 L461.341,115.728 C461.109,116.197 461.07,116.283 460.991,116.581 C460.985,116.605 460.985,116.605 460.979,116.629 C460.897,116.991 460.876,117.322 460.907,117.65 C460.971,118.094 461.056,118.411 461.177,118.715 L462.629,123.087 C462.902,123.903 462.991,124.117 463.344,124.54 C463.683,124.944 464.115,125.256 464.603,125.448 C465.12,125.651 465.348,125.667 466.209,125.667 L470.389,125.667 C471.049,125.667 471.232,125.656 471.65,125.527 C472.034,125.41 472.401,125.214 472.72,124.952 C473.055,124.676 473.183,124.506 473.53,123.982 L476.101,120.124 C476.843,119.015 476.99,118.747 477.043,117.958 C477.09,117.207 476.872,116.472 476.427,115.875 C476.18,115.545 475.889,115.299 475.548,115.092 C475.266,114.922 475.08,114.836 474.45,114.566 L468.968,112.217 Z M483.857,111 C483.857,121.415 475.415,129.857 465,129.857 C454.585,129.857 446.143,121.415 446.143,111 C446.143,100.585 454.585,92.143 465,92.143 C475.415,92.143 483.857,100.585 483.857,111 Z M488.048,111 C488.048,98.271 477.729,87.952 465,87.952 C452.271,87.952 441.952,98.271 441.952,111 C441.952,123.729 452.271,134.048 465,134.048 C477.729,134.048 488.048,123.729 488.048,111 Z" />
        </g>
        <g id="Black-M" transform="translate(0,200)">
            <path d="M645.084,103.241 L654.069,109.658 C654.956,110.291 655.171,110.422 655.81,110.545 C655.86,110.554 655.86,110.554 655.91,110.562 C656.548,110.664 657.209,110.563 657.794,110.272 C657.987,110.176 658.161,110.063 658.322,109.932 C658.659,109.66 658.782,109.511 659.275,108.856 L661.176,106.321 C661.229,106.25 661.242,106.234 661.203,106.276 C661.181,106.298 661.181,106.298 661.157,106.322 C661.122,106.356 661.066,106.401 661.005,106.44 C660.929,106.488 660.937,106.484 661.021,106.446 L669.117,102.849 C669.772,102.559 669.961,102.46 670.311,102.14 C670.648,101.83 670.915,101.45 671.09,101.027 C671.245,100.659 671.294,100.373 671.331,99.906 C671.34,99.789 671.34,99.789 671.349,99.669 L671.941,90.75 C672.018,89.595 671.144,88.597 669.989,88.521 C668.835,88.444 667.836,89.318 667.76,90.472 L667.169,99.375 C667.161,99.481 667.161,99.481 667.154,99.571 C667.151,99.614 667.159,99.565 667.224,99.411 C667.278,99.28 667.367,99.154 667.479,99.05 C667.608,98.933 667.586,98.944 667.417,99.019 L659.309,102.621 C659.025,102.749 658.932,102.795 658.76,102.902 C658.555,103.034 658.387,103.168 658.234,103.319 C658.202,103.351 658.202,103.351 658.156,103.398 C658.035,103.527 657.992,103.582 657.821,103.811 L655.925,106.338 C655.708,106.626 655.634,106.717 655.691,106.671 C655.757,106.618 655.836,106.566 655.925,106.522 C656.125,106.422 656.345,106.389 656.561,106.423 C656.578,106.426 656.578,106.426 656.603,106.43 C656.832,106.475 656.756,106.428 656.503,106.248 L647.52,99.831 C646.578,99.158 645.27,99.376 644.597,100.318 C643.924,101.26 644.143,102.568 645.084,103.241 Z M667.318,116.069 L672.799,118.417 C673.205,118.592 673.337,118.652 673.378,118.677 C673.293,118.626 673.182,118.532 673.071,118.384 C672.918,118.179 672.846,117.934 672.861,117.687 C672.876,117.463 672.923,117.33 672.956,117.271 C672.914,117.347 672.837,117.467 672.616,117.797 L670.039,121.664 C669.946,121.803 669.938,121.815 670.057,121.716 C670.167,121.626 670.29,121.56 670.421,121.521 C670.568,121.475 670.548,121.476 670.389,121.476 L666.209,121.476 C665.983,121.476 665.948,121.474 666.138,121.548 C666.301,121.613 666.445,121.716 666.557,121.85 C666.689,122.008 666.675,121.974 666.603,121.76 L665.113,117.282 C665.069,117.162 665.066,117.151 665.064,117.14 C665.089,117.37 665.082,117.481 665.058,117.588 C665.046,117.639 665.046,117.639 665.043,117.65 C665.016,117.752 665.028,117.725 665.092,117.596 L666.224,115.334 C666.347,115.088 666.376,115.04 666.195,115.187 C666.034,115.317 665.845,115.395 665.646,115.417 C665.4,115.442 665.46,115.457 665.721,115.544 L667.48,116.13 Z M668.806,112.155 L667.042,111.567 C666.067,111.245 665.833,111.186 665.207,111.25 C664.594,111.316 664.027,111.552 663.558,111.93 C663.061,112.334 662.93,112.552 662.476,113.459 L661.341,115.728 C661.109,116.197 661.07,116.283 660.991,116.581 C660.985,116.605 660.985,116.605 660.979,116.629 C660.897,116.991 660.876,117.322 660.907,117.65 C660.971,118.094 661.056,118.411 661.177,118.715 L662.629,123.087 C662.902,123.903 662.99,124.117 663.344,124.54 C663.683,124.944 664.115,125.256 664.603,125.448 C665.12,125.651 665.348,125.667 666.209,125.667 L670.389,125.667 C671.049,125.667 671.232,125.656 671.65,125.527 C672.034,125.41 672.401,125.214 672.72,124.952 C673.055,124.676 673.183,124.506 673.53,123.982 L676.101,120.124 C676.843,119.015 676.99,118.747 677.043,117.958 C677.09,117.207 676.872,116.472 676.427,115.875 C676.18,115.545 675.889,115.299 675.548,115.092 C675.266,114.922 675.08,114.836 674.45,114.566 L668.968,112.217 Z M683.857,111 C683.857,121.415 675.415,129.857 665,129.857 C654.585,129.857 646.143,121.415 646.143,111 C646.143,100.585 654.585,92.143 665,92.143 C675.415,92.143 683.857,100.585 683.857,111 Z M688.048,111 C688.048,98.271 677.729,87.952 665,87.952 C652.271,87.952 641.952,98.271 641.952,111 C641.952,123.729 652.271,134.048 665,134.048 C677.729,134.048 688.048,123.729 688.048,111 Z" />
        </g>
    </g>
</svg>