<?xml version="1.0" encoding="UTF-8"?>
<svg height="600" width="800" xmlns="http://www.w3.org/2000/svg" xmlns:xlink="http://www.w3.org/1999/xlink">
    <g id="Notes" font-family="LucidaGrande, 'Lucida Grande', sans-serif" font-size="13">
        <rect fill="white" height="600.0" width="800.0" x="0.0" y="0.0" />
        <g font-size="13">
            <text x="18.0" y="176.0">Small</text>
            <text x="18.0" y="376.0">Medium</text>
            <text x="18.0" y="576.0">Large</text>
        </g>
        <g font-size="9">
            <text x="250.0" y="30.0">Ultralight</text>
            <text x="450.0" y="30.0">Regular</text>
            <text x="650.0" y="30.0">Black</text>
            <text id="template-version" fill="#505050" text-anchor="end" x="785.0" y="575.0">Template v.3.0</text>
            <a href="https://github.com/swhitty/SwiftDraw">
                <text fill="#505050" text-anchor="end" x="785.0" y="590.0">https://github.com/swhitty/SwiftDraw</text>
            </a>
        </g>
    </g>
    <g id="Guides" stroke="rgb(39, 170, 225)" stroke-width="0.5">
        <path id="Capline-S" d="M18,76 l800,0" />
        <path id="H-reference" d="M85,145.755 L87.685,145.755 L113.369,79.287 L114.052,79.287 L114.052,76 L112.148,76 L85,145.755 Z M95.693,121.536 L130.996,121.536 L130.263,119.313 L96.474,119.313 L95.693,121.536 Z M139.15,145.755 L141.787,145.755 L114.638,76 L113.466,76 L113.466,79.287 L139.15,145.755 Z" stroke="none" transform="translate(0,200)" />
        <path id="Baseline-S" d="M18,146 l800,0" />
        <path id="left-margin-Ultralight-M" d="M230,256 l0,110" />
        <path id="right-margin-Ultralight-M" d="M300,256 l0,110" />
        <path id="left-margin-Regular-M" d="M430,256 l0,110" />
        <path id="right-margin-Regular-M" d="M500,256 l0,110" />
        <path id="left-margin-Black-M" d="M630,256 l0,110" />
        <path id="right-margin-Black-M" d="M700,256 l0,110" />
        <path id="Capline-M" d="M18,276 l800,0" />
        <path id="Baseline-M" d="M18,346 l800,0" />
        <path id="Capline-L" d="M18,476 l800,0" />
        <path id="Baseline-L" d="M18,546 l800,0" />
    </g>
    <g id="Symbols">
        <g id="Ultralight-M" transform="translate(0,200)">
            <path d="M247.5,131.417 L247.5,90.583 C247.5,88.973 246.194,87.667 244.583,87.667 C242.973,87.667 241.667,88.973 241.667,90.583 L241.667,131.417 C241.667,133.027 242.973,134.333 244.583,134.333 C246.194,134.333 247.5,133.027 247.5,131.417 Z M276.011,91.456 L258.984,105.077 C256.974,106.688 256.51,107.102 255.925,108.02 C255.735,108.318 255.578,108.629 255.455,108.956 C254.963,110.275 254.963,111.725 255.454,113.042 C255.578,113.371 255.735,113.682 255.925,113.98 C256.51,114.898 256.974,115.312 258.982,116.922 L276.015,130.544 C279.859,133.622 280.573,134.095 282.489,134.1 C284.273,134.101 285.955,133.292 287.062,131.901 C288.256,130.406 288.333,129.555 288.333,124.624 L288.333,97.376 C288.333,92.445 288.256,91.594 287.06,90.096 C285.951,88.708 284.27,87.9 282.492,87.903 C280.577,87.903 279.863,88.375 276.014,91.456 L277.836,93.733 L277.838,90.817 L277.835,90.817 C277.172,90.816 276.529,91.042 276.011,91.456 Z M279.655,96.011 L277.833,93.733 L277.832,96.65 L277.835,96.65 C278.498,96.65 279.141,96.425 279.659,96.01 C281.243,94.742 281.784,94.324 282.303,93.981 C282.629,93.765 282.699,93.736 282.497,93.736 C282.502,93.736 282.502,93.736 282.502,93.736 C282.376,93.578 282.397,93.652 282.432,94.042 C282.489,94.662 282.5,95.346 282.5,97.376 L282.5,124.624 C282.5,126.654 282.489,127.338 282.432,127.958 C282.397,128.348 282.376,128.422 282.502,128.264 C282.499,128.267 282.499,128.267 282.499,128.267 C282.704,128.267 282.632,128.237 282.304,128.02 C281.785,127.677 281.243,127.258 279.659,125.99 L262.628,112.368 C261.296,111.301 260.921,110.966 260.843,110.844 C260.868,110.883 260.895,110.935 260.918,110.998 C260.919,111 260.919,111 260.919,111 C260.895,111.065 260.868,111.117 260.843,111.156 C260.921,111.034 261.296,110.699 262.63,109.63 L279.655,96.011 Z" />
        </g>
        <g id="Regular-M" transform="translate(0,200)">
            <path d="M447.5,131.417 L447.5,90.583 C447.5,88.973 446.194,87.667 444.583,87.667 C442.973,87.667 441.667,88.973 441.667,90.583 L441.667,131.417 C441.667,133.027 442.973,134.333 444.583,134.333 C446.194,134.333 447.5,133.027 447.5,131.417 Z M476.011,91.456 L458.984,105.077 C456.974,106.688 456.51,107.102 455.925,108.02 C455.735,108.318 455.578,108.629 455.455,108.956 C454.963,110.275 454.963,111.725 455.454,113.042 C455.578,113.371 455.735,113.682 455.925,113.98 C456.51,114.898 456.974,115.312 458.982,116.922 L476.015,130.544 C479.859,133.622 480.573,134.095 482.489,134.1 C484.273,134.101 485.955,133.292 487.062,131.901 C488.256,130.406 488.333,129.555 488.333,124.624 L488.333,97.376 C488.333,92.445 488.256,91.594 487.06,90.096 C485.951,88.708 484.27,87.9 482.492,87.903 C480.577,87.903 479.863,88.375 476.014,91.456 L477.836,93.733 L477.838,90.817 L477.835,90.817 C477.172,90.816 476.529,91.042 476.011,91.456 Z M479.655,96.011 L477.833,93.733 L477.832,96.65 L477.835,96.65 C478.498,96.65 479.141,96.425 479.659,96.01 C481.243,94.742 481.784,94.324 482.303,93.981 C482.629,93.765 482.699,93.736 482.497,93.736 C482.502,93.736 482.502,93.736 482.502,93.736 C482.376,93.578 482.397,93.652 482.432,94.042 C482.489,94.662 482.5,95.346 482.5,97.376 L482.5,124.624 C482.5,126.654 482.489,127.338 482.432,127.958 C482.397,128.348 482.376,128.422 482.502,128.264 C482.499,128.267 482.499,128.267 482.499,128.267 C482.704,128.267 482.632,128.237 482.304,128.02 C481.785,127.677 481.243,127.258 479.659,125.99 L462.628,112.368 C461.296,111.301 460.921,110.966 460.843,110.844 C460.868,110.883 460.895,110.935 460.918,110.998 C460.919,111 460.919,111 460.919,111 C460.895,111.065 460.868,111.117 460.843,111.156 C460.921,111.034 461.296,110.699 462.63,109.63 L479.655,96.011 Z" />
        </g>
        <g id="Black-M" transform="translate(0,200)">
            <path d="M647.5,131.417 L647.5,90.583 C647.5,88.973 646.194,87.667 644.583,87.667 C642.973,87.667 641.667,88.973 641.667,90.583 L641.667,131.417 C641.667,133.027 642.973,134.333 644.583,134.333 C646.194,134.333 647.5,133.027 647.5,131.417 Z M676.011,91.456 L658.984,105.077 C656.974,106.688 656.51,107.102 655.925,108.02 C655.735,108.318 655.578,108.629 655.455,108.956 C654.963,110.275 654.963,111.725 655.454,113.042 C655.578,113.371 655.735,113.682 655.925,113.98 C656.51,114.898 656.974,115.312 658.982,116.922 L676.015,130.544 C679.859,133.622 680.573,134.095 682.489,134.1 C684.273,134.101 685.955,133.292 687.062,131.901 C688.256,130.406 688.333,129.555 688.333,124.624 L688.333,97.376 C688.333,92.445 688.256,91.594 687.06,90.096 C685.951,88.708 684.27,87.9 682.492,87.903 C680.577,87.903 679.863,88.375 676.014,91.456 L677.836,93.733 L677.838,90.817 L677.835,90.817 C677.172,90.816 676.529,91.042 676.011,91.456 Z M679.655,96.011 L677.833,93.733 L677.832,96.65 L677.835,96.65 C678.498,96.65 679.141,96.425 679.659,96.01 C681.243,94.742 681.784,94.324 682.303,93.981 C682.629,93.765 682.699,93.736 682.497,93.736 C682.502,93.736 682.502,93.736 682.502,93.736 C682.376,93.578 682.397,93.652 682.432,94.042 C682.489,94.662 682.5,95.346 682.5,97.376 L682.5,124.624 C682.5,126.654 682.489,127.338 682.432,127.958 C682.397,128.348 682.376,128.422 682.502,128.264 C682.499,128.267 682.499,128.267 682.499,128.267 C682.704,128.267 682.632,128.237 682.304,128.02 C681.785,127.677 681.243,127.258 679.659,125.99 L662.628,112.368 C661.296,111.301 660.921,110.966 660.843,110.844 C660.868,110.883 660.895,110.935 660.918,110.998 C660.919,111 660.919,111 660.919,111 C660.895,111.065 660.868,111.117 660.843,111.156 C660.921,111.034 661.296,110.699 662.63,109.63 L679.655,96.011 Z" />
        </g>
    </g>
</svg>