<?xml version="1.0" encoding="UTF-8"?>
<svg height="600" width="800" xmlns="http://www.w3.org/2000/svg" xmlns:xlink="http://www.w3.org/1999/xlink">
    <g id="Notes" font-family="LucidaGrande, 'Lucida Grande', sans-serif" font-size="13">
        <rect fill="white" height="600.0" width="800.0" x="0.0" y="0.0" />
        <g font-size="13">
            <text x="18.0" y="176.0">Small</text>
            <text x="18.0" y="376.0">Medium</text>
            <text x="18.0" y="576.0">Large</text>
        </g>
        <g font-size="9">
            <text x="250.0" y="30.0">Ultralight</text>
            <text x="450.0" y="30.0">Regular</text>
            <text x="650.0" y="30.0">Black</text>
            <text id="template-version" fill="#505050" text-anchor="end" x="785.0" y="575.0">Template v.3.0</text>
            <a href="https://github.com/swhitty/SwiftDraw">
                <text fill="#505050" text-anchor="end" x="785.0" y="590.0">https://github.com/swhitty/SwiftDraw</text>
            </a>
        </g>
    </g>
    <g id="Guides" stroke="rgb(39, 170, 225)" stroke-width="0.5">
        <path id="Capline-S" d="M18,76 l800,0" />
        <path id="H-reference" d="M85,145.755 L87.685,145.755 L113.369,79.287 L114.052,79.287 L114.052,76 L112.148,76 L85,145.755 Z M95.693,121.536 L130.996,121.536 L130.263,119.313 L96.474,119.313 L95.693,121.536 Z M139.15,145.755 L141.787,145.755 L114.638,76 L113.466,76 L113.466,79.287 L139.15,145.755 Z" stroke="none" transform="translate(0,200)" />
        <path id="Baseline-S" d="M18,146 l800,0" />
        <path id="left-margin-Ultralight-M" d="M221,256 l0,110" />
        <path id="right-margin-Ultralight-M" d="M309,256 l0,110" />
        <path id="left-margin-Regular-M" d="M421,256 l0,110" />
        <path id="right-margin-Regular-M" d="M509,256 l0,110" />
        <path id="left-margin-Black-M" d="M621,256 l0,110" />
        <path id="right-margin-Black-M" d="M709,256 l0,110" />
        <path id="Capline-M" d="M18,276 l800,0" />
        <path id="Baseline-M" d="M18,346 l800,0" />
        <path id="Capline-L" d="M18,476 l800,0" />
        <path id="Baseline-L" d="M18,546 l800,0" />
    </g>
    <g id="Symbols">
        <g id="Ultralight-M" transform="translate(0,200)">
            <path d="M262.905,102.619 L262.905,119.381 C262.905,120.538 263.843,121.476 265,121.476 C266.157,121.476 267.095,120.538 267.095,119.381 L267.095,102.619 C267.095,101.462 266.157,100.524 265,100.524 C263.843,100.524 262.905,101.462 262.905,102.619 Z M267.095,102.619 L267.095,90.048 C267.095,88.89 266.157,87.952 265,87.952 C263.843,87.952 262.905,88.89 262.905,90.048 L262.905,102.619 C262.905,103.776 263.843,104.714 265,104.714 C266.157,104.714 267.095,103.776 267.095,102.619 Z M266.482,101.137 L256.005,90.661 C255.187,89.843 253.861,89.843 253.042,90.661 C252.224,91.48 252.224,92.806 253.042,93.624 L263.518,104.101 C264.337,104.919 265.663,104.919 266.482,104.101 C267.3,103.282 267.3,101.956 266.482,101.137 Z M266.482,104.101 L276.958,93.624 C277.776,92.806 277.776,91.48 276.958,90.661 C276.14,89.843 274.813,89.843 273.995,90.661 L263.518,101.137 C262.7,101.956 262.7,103.282 263.518,104.101 C264.337,104.919 265.663,104.919 266.482,104.101 Z M262.905,119.381 L262.905,131.952 C262.905,133.11 263.843,134.048 265,134.048 C266.157,134.048 267.095,133.11 267.095,131.952 L267.095,119.381 C267.095,118.224 266.157,117.286 265,117.286 C263.843,117.286 262.905,118.224 262.905,119.381 Z M263.518,117.899 L253.042,128.376 C252.224,129.194 252.224,130.52 253.042,131.339 C253.861,132.157 255.187,132.157 256.005,131.339 L266.482,120.863 C267.3,120.044 267.3,118.718 266.482,117.899 C265.663,117.081 264.337,117.081 263.518,117.899 Z M263.518,120.863 L273.995,131.339 C274.813,132.157 276.14,132.157 276.958,131.339 C277.776,130.52 277.776,129.194 276.958,128.376 L266.482,117.899 C265.663,117.081 264.337,117.081 263.518,117.899 C262.7,118.718 262.7,120.044 263.518,120.863 Z M273.381,108.905 L256.619,108.905 C255.462,108.905 254.524,109.843 254.524,111 C254.524,112.157 255.462,113.095 256.619,113.095 L273.381,113.095 C274.538,113.095 275.476,112.157 275.476,111 C275.476,109.843 274.538,108.905 273.381,108.905 Z M273.381,113.095 L285.952,113.095 C287.11,113.095 288.048,112.157 288.048,111 C288.048,109.843 287.11,108.905 285.952,108.905 L273.381,108.905 C272.224,108.905 271.286,109.843 271.286,111 C271.286,112.157 272.224,113.095 273.381,113.095 Z M274.863,112.482 L285.339,102.005 C286.157,101.187 286.157,99.86 285.339,99.042 C284.52,98.224 283.194,98.224 282.376,99.042 L271.899,109.518 C271.081,110.337 271.081,111.663 271.899,112.482 C272.718,113.3 274.044,113.3 274.863,112.482 Z M271.899,112.482 L282.376,122.958 C283.194,123.776 284.52,123.776 285.339,122.958 C286.157,122.14 286.157,120.813 285.339,119.995 L274.863,109.518 C274.044,108.7 272.718,108.7 271.899,109.518 C271.081,110.337 271.081,111.663 271.899,112.482 Z M256.619,108.905 L244.048,108.905 C242.89,108.905 241.952,109.843 241.952,111 C241.952,112.157 242.89,113.095 244.048,113.095 L256.619,113.095 C257.776,113.095 258.714,112.157 258.714,111 C258.714,109.843 257.776,108.905 256.619,108.905 Z M258.101,109.518 L247.624,99.042 C246.806,98.224 245.48,98.224 244.661,99.042 C243.843,99.86 243.843,101.187 244.661,102.005 L255.137,112.482 C255.956,113.3 257.282,113.3 258.101,112.482 C258.919,111.663 258.919,110.337 258.101,109.518 Z M255.137,109.518 L244.661,119.995 C243.843,120.813 243.843,122.14 244.661,122.958 C245.48,123.776 246.806,123.776 247.624,122.958 L258.101,112.482 C258.919,111.663 258.919,110.337 258.101,109.518 C257.282,108.7 255.956,108.7 255.137,109.518 Z" />
        </g>
        <g id="Regular-M" transform="translate(0,200)">
            <path d="M462.905,102.619 L462.905,119.381 C462.905,120.538 463.843,121.476 465,121.476 C466.157,121.476 467.095,120.538 467.095,119.381 L467.095,102.619 C467.095,101.462 466.157,100.524 465,100.524 C463.843,100.524 462.905,101.462 462.905,102.619 Z M467.095,102.619 L467.095,90.048 C467.095,88.89 466.157,87.952 465,87.952 C463.843,87.952 462.905,88.89 462.905,90.048 L462.905,102.619 C462.905,103.776 463.843,104.714 465,104.714 C466.157,104.714 467.095,103.776 467.095,102.619 Z M466.482,101.137 L456.005,90.661 C455.187,89.843 453.861,89.843 453.042,90.661 C452.224,91.48 452.224,92.806 453.042,93.624 L463.518,104.101 C464.337,104.919 465.663,104.919 466.482,104.101 C467.3,103.282 467.3,101.956 466.482,101.137 Z M466.482,104.101 L476.958,93.624 C477.776,92.806 477.776,91.48 476.958,90.661 C476.14,89.843 474.813,89.843 473.995,90.661 L463.518,101.137 C462.7,101.956 462.7,103.282 463.518,104.101 C464.337,104.919 465.663,104.919 466.482,104.101 Z M462.905,119.381 L462.905,131.952 C462.905,133.11 463.843,134.048 465,134.048 C466.157,134.048 467.095,133.11 467.095,131.952 L467.095,119.381 C467.095,118.224 466.157,117.286 465,117.286 C463.843,117.286 462.905,118.224 462.905,119.381 Z M463.518,117.899 L453.042,128.376 C452.224,129.194 452.224,130.52 453.042,131.339 C453.861,132.157 455.187,132.157 456.005,131.339 L466.482,120.863 C467.3,120.044 467.3,118.718 466.482,117.899 C465.663,117.081 464.337,117.081 463.518,117.899 Z M463.518,120.863 L473.995,131.339 C474.813,132.157 476.14,132.157 476.958,131.339 C477.776,130.52 477.776,129.194 476.958,128.376 L466.482,117.899 C465.663,117.081 464.337,117.081 463.518,117.899 C462.7,118.718 462.7,120.044 463.518,120.863 Z M473.381,108.905 L456.619,108.905 C455.462,108.905 454.524,109.843 454.524,111 C454.524,112.157 455.462,113.095 456.619,113.095 L473.381,113.095 C474.538,113.095 475.476,112.157 475.476,111 C475.476,109.843 474.538,108.905 473.381,108.905 Z M473.381,113.095 L485.952,113.095 C487.11,113.095 488.048,112.157 488.048,111 C488.048,109.843 487.11,108.905 485.952,108.905 L473.381,108.905 C472.224,108.905 471.286,109.843 471.286,111 C471.286,112.157 472.224,113.095 473.381,113.095 Z M474.863,112.482 L485.339,102.005 C486.157,101.187 486.157,99.86 485.339,99.042 C484.52,98.224 483.194,98.224 482.376,99.042 L471.899,109.518 C471.081,110.337 471.081,111.663 471.899,112.482 C472.718,113.3 474.044,113.3 474.863,112.482 Z M471.899,112.482 L482.376,122.958 C483.194,123.776 484.52,123.776 485.339,122.958 C486.157,122.14 486.157,120.813 485.339,119.995 L474.863,109.518 C474.044,108.7 472.718,108.7 471.899,109.518 C471.081,110.337 471.081,111.663 471.899,112.482 Z M456.619,108.905 L444.048,108.905 C442.89,108.905 441.952,109.843 441.952,111 C441.952,112.157 442.89,113.095 444.048,113.095 L456.619,113.095 C457.776,113.095 458.714,112.157 458.714,111 C458.714,109.843 457.776,108.905 456.619,108.905 Z M458.101,109.518 L447.624,99.042 C446.806,98.224 445.48,98.224 444.661,99.042 C443.843,99.86 443.843,101.187 444.661,102.005 L455.137,112.482 C455.956,113.3 457.282,113.3 458.101,112.482 C458.919,111.663 458.919,110.337 458.101,109.518 Z M455.137,109.518 L444.661,119.995 C443.843,120.813 443.843,122.14 444.661,122.958 C445.48,123.776 446.806,123.776 447.624,122.958 L458.101,112.482 C458.919,111.663 458.919,110.337 458.101,109.518 C457.282,108.7 455.956,108.7 455.137,109.518 Z" />
        </g>
        <g id="Black-M" transform="translate(0,200)">
            <path d="M662.905,102.619 L662.905,119.381 C662.905,120.538 663.843,121.476 665,121.476 C666.157,121.476 667.095,120.538 667.095,119.381 L667.095,102.619 C667.095,101.462 666.157,100.524 665,100.524 C663.843,100.524 662.905,101.462 662.905,102.619 Z M667.095,102.619 L667.095,90.048 C667.095,88.89 666.157,87.952 665,87.952 C663.843,87.952 662.905,88.89 662.905,90.048 L662.905,102.619 C662.905,103.776 663.843,104.714 665,104.714 C666.157,104.714 667.095,103.776 667.095,102.619 Z M666.482,101.137 L656.005,90.661 C655.187,89.843 653.86,89.843 653.042,90.661 C652.224,91.48 652.224,92.806 653.042,93.624 L663.518,104.101 C664.337,104.919 665.663,104.919 666.482,104.101 C667.3,103.282 667.3,101.956 666.482,101.137 Z M666.482,104.101 L676.958,93.624 C677.776,92.806 677.776,91.48 676.958,90.661 C676.139,89.843 674.813,89.843 673.995,90.661 L663.518,101.137 C662.7,101.956 662.7,103.282 663.518,104.101 C664.337,104.919 665.663,104.919 666.482,104.101 Z M662.905,119.381 L662.905,131.952 C662.905,133.11 663.843,134.048 665,134.048 C666.157,134.048 667.095,133.11 667.095,131.952 L667.095,119.381 C667.095,118.224 666.157,117.286 665,117.286 C663.843,117.286 662.905,118.224 662.905,119.381 Z M663.518,117.899 L653.042,128.376 C652.224,129.194 652.224,130.52 653.042,131.339 C653.86,132.157 655.187,132.157 656.005,131.339 L666.482,120.863 C667.3,120.044 667.3,118.718 666.482,117.899 C665.663,117.081 664.337,117.081 663.518,117.899 Z M663.518,120.863 L673.995,131.339 C674.813,132.157 676.139,132.157 676.958,131.339 C677.776,130.52 677.776,129.194 676.958,128.376 L666.482,117.899 C665.663,117.081 664.337,117.081 663.518,117.899 C662.7,118.718 662.7,120.044 663.518,120.863 Z M673.381,108.905 L656.619,108.905 C655.462,108.905 654.524,109.843 654.524,111 C654.524,112.157 655.462,113.095 656.619,113.095 L673.381,113.095 C674.538,113.095 675.476,112.157 675.476,111 C675.476,109.843 674.538,108.905 673.381,108.905 Z M673.381,113.095 L685.952,113.095 C687.109,113.095 688.048,112.157 688.048,111 C688.048,109.843 687.109,108.905 685.952,108.905 L673.381,108.905 C672.224,108.905 671.286,109.843 671.286,111 C671.286,112.157 672.224,113.095 673.381,113.095 Z M674.862,112.482 L685.339,102.005 C686.157,101.187 686.157,99.86 685.339,99.042 C684.52,98.224 683.194,98.224 682.376,99.042 L671.899,109.518 C671.081,110.337 671.081,111.663 671.899,112.482 C672.718,113.3 674.044,113.3 674.862,112.482 Z M671.899,112.482 L682.376,122.958 C683.194,123.776 684.52,123.776 685.339,122.958 C686.157,122.14 686.157,120.813 685.339,119.995 L674.862,109.518 C674.044,108.7 672.718,108.7 671.899,109.518 C671.081,110.337 671.081,111.663 671.899,112.482 Z M656.619,108.905 L644.048,108.905 C642.89,108.905 641.952,109.843 641.952,111 C641.952,112.157 642.89,113.095 644.048,113.095 L656.619,113.095 C657.776,113.095 658.714,112.157 658.714,111 C658.714,109.843 657.776,108.905 656.619,108.905 Z M658.101,109.518 L647.624,99.042 C646.806,98.224 645.479,98.224 644.661,99.042 C643.843,99.86 643.843,101.187 644.661,102.005 L655.137,112.482 C655.956,113.3 657.282,113.3 658.101,112.482 C658.919,111.663 658.919,110.337 658.101,109.518 Z M655.137,109.518 L644.661,119.995 C643.843,120.813 643.843,122.14 644.661,122.958 C645.479,123.776 646.806,123.776 647.624,122.958 L658.101,112.482 C658.919,111.663 658.919,110.337 658.101,109.518 C657.282,108.7 655.956,108.7 655.137,109.518 Z" />
        </g>
    </g>
</svg>