<?xml version="1.0" encoding="UTF-8"?>
<svg height="600" width="800" xmlns="http://www.w3.org/2000/svg" xmlns:xlink="http://www.w3.org/1999/xlink">
    <g id="Notes" font-family="LucidaGrande, 'Lucida Grande', sans-serif" font-size="13">
        <rect fill="white" height="600.0" width="800.0" x="0.0" y="0.0" />
        <g font-size="13">
            <text x="18.0" y="176.0">Small</text>
            <text x="18.0" y="376.0">Medium</text>
            <text x="18.0" y="576.0">Large</text>
        </g>
        <g font-size="9">
            <text x="250.0" y="30.0">Ultralight</text>
            <text x="450.0" y="30.0">Regular</text>
            <text x="650.0" y="30.0">Black</text>
            <text id="template-version" fill="#505050" text-anchor="end" x="785.0" y="575.0">Template v.3.0</text>
            <a href="https://github.com/swhitty/SwiftDraw">
                <text fill="#505050" text-anchor="end" x="785.0" y="590.0">https://github.com/swhitty/SwiftDraw</text>
            </a>
        </g>
    </g>
    <g id="Guides" stroke="rgb(39, 170, 225)" stroke-width="0.5">
        <path id="Capline-S" d="M18,76 l800,0" />
        <path id="H-reference" d="M85,145.755 L87.685,145.755 L113.369,79.287 L114.052,79.287 L114.052,76 L112.148,76 L85,145.755 Z M95.693,121.536 L130.996,121.536 L130.263,119.313 L96.474,119.313 L95.693,121.536 Z M139.15,145.755 L141.787,145.755 L114.638,76 L113.466,76 L113.466,79.287 L139.15,145.755 Z" stroke="none" transform="translate(0,200)" />
        <path id="Baseline-S" d="M18,146 l800,0" />
        <path id="left-margin-Ultralight-M" d="M226.111,256 l0,110" />
        <path id="right-margin-Ultralight-M" d="M303.889,256 l0,110" />
        <path id="left-margin-Regular-M" d="M426.111,256 l0,110" />
        <path id="right-margin-Regular-M" d="M503.889,256 l0,110" />
        <path id="left-margin-Black-M" d="M626.111,256 l0,110" />
        <path id="right-margin-Black-M" d="M703.889,256 l0,110" />
        <path id="Capline-M" d="M18,276 l800,0" />
        <path id="Baseline-M" d="M18,346 l800,0" />
        <path id="Capline-L" d="M18,476 l800,0" />
        <path id="Baseline-L" d="M18,546 l800,0" />
    </g>
    <g id="Symbols">
        <g id="Ultralight-M" transform="translate(0,200)">
            <path d="M249.444,142.111 L249.444,79.889 C249.444,77.741 247.703,76 245.556,76 C243.408,76 241.667,77.741 241.667,79.889 L241.667,142.111 C241.667,144.259 243.408,146 245.556,146 C247.703,146 249.444,144.259 249.444,142.111 Z M242.806,77.139 L227.25,92.695 C225.731,94.213 225.731,96.676 227.25,98.194 C228.769,99.713 231.231,99.713 232.75,98.194 L248.305,82.639 C249.824,81.12 249.824,78.658 248.305,77.139 C246.787,75.62 244.324,75.62 242.806,77.139 Z M242.806,82.639 L258.361,98.194 C259.88,99.713 262.342,99.713 263.861,98.194 C265.38,96.676 265.38,94.213 263.861,92.695 L248.305,77.139 C246.787,75.62 244.324,75.62 242.806,77.139 C241.287,78.658 241.287,81.12 242.806,82.639 Z M288.333,142.111 L288.333,99.333 C288.333,97.186 286.592,95.444 284.444,95.444 C282.297,95.444 280.556,97.186 280.556,99.333 L280.556,142.111 C280.556,144.259 282.297,146 284.444,146 C286.592,146 288.333,144.259 288.333,142.111 Z M281.695,96.583 L266.139,112.139 C264.62,113.658 264.62,116.12 266.139,117.639 C267.658,119.157 270.12,119.157 271.639,117.639 L287.194,102.083 C288.713,100.564 288.713,98.102 287.194,96.583 C285.676,95.065 283.213,95.065 281.695,96.583 Z M281.695,102.083 L297.25,117.639 C298.769,119.157 301.231,119.157 302.75,117.639 C304.269,116.12 304.269,113.658 302.75,112.139 L287.194,96.583 C285.676,95.065 283.213,95.065 281.695,96.583 C280.176,98.102 280.176,100.564 281.695,102.083 Z" />
        </g>
        <g id="Regular-M" transform="translate(0,200)">
            <path d="M449.444,142.111 L449.444,79.889 C449.444,77.741 447.703,76 445.556,76 C443.408,76 441.667,77.741 441.667,79.889 L441.667,142.111 C441.667,144.259 443.408,146 445.556,146 C447.703,146 449.444,144.259 449.444,142.111 Z M442.806,77.139 L427.25,92.695 C425.731,94.213 425.731,96.676 427.25,98.194 C428.769,99.713 431.231,99.713 432.75,98.194 L448.305,82.639 C449.824,81.12 449.824,78.658 448.305,77.139 C446.787,75.62 444.324,75.62 442.806,77.139 Z M442.806,82.639 L458.361,98.194 C459.88,99.713 462.342,99.713 463.861,98.194 C465.38,96.676 465.38,94.213 463.861,92.695 L448.305,77.139 C446.787,75.62 444.324,75.62 442.806,77.139 C441.287,78.658 441.287,81.12 442.806,82.639 Z M488.333,142.111 L488.333,99.333 C488.333,97.186 486.592,95.444 484.444,95.444 C482.297,95.444 480.556,97.186 480.556,99.333 L480.556,142.111 C480.556,144.259 482.297,146 484.444,146 C486.592,146 488.333,144.259 488.333,142.111 Z M481.695,96.583 L466.139,112.139 C464.62,113.658 464.62,116.12 466.139,117.639 C467.658,119.157 470.12,119.157 471.639,117.639 L487.194,102.083 C488.713,100.564 488.713,98.102 487.194,96.583 C485.676,95.065 483.213,95.065 481.695,96.583 Z M481.695,102.083 L497.25,117.639 C498.769,119.157 501.231,119.157 502.75,117.639 C504.269,116.12 504.269,113.658 502.75,112.139 L487.194,96.583 C485.676,95.065 483.213,95.065 481.695,96.583 C480.176,98.102 480.176,100.564 481.695,102.083 Z" />
        </g>
        <g id="Black-M" transform="translate(0,200)">
            <path d="M649.444,142.111 L649.444,79.889 C649.444,77.741 647.703,76 645.556,76 C643.408,76 641.667,77.741 641.667,79.889 L641.667,142.111 C641.667,144.259 643.408,146 645.556,146 C647.703,146 649.444,144.259 649.444,142.111 Z M642.806,77.139 L627.25,92.695 C625.731,94.213 625.731,96.676 627.25,98.194 C628.769,99.713 631.231,99.713 632.75,98.194 L648.305,82.639 C649.824,81.12 649.824,78.658 648.305,77.139 C646.787,75.62 644.324,75.62 642.806,77.139 Z M642.806,82.639 L658.361,98.194 C659.88,99.713 662.342,99.713 663.861,98.194 C665.38,96.676 665.38,94.213 663.861,92.695 L648.305,77.139 C646.787,75.62 644.324,75.62 642.806,77.139 C641.287,78.658 641.287,81.12 642.806,82.639 Z M688.333,142.111 L688.333,99.333 C688.333,97.186 686.592,95.444 684.444,95.444 C682.297,95.444 680.556,97.186 680.556,99.333 L680.556,142.111 C680.556,144.259 682.297,146 684.444,146 C686.592,146 688.333,144.259 688.333,142.111 Z M681.695,96.583 L666.139,112.139 C664.62,113.658 664.62,116.12 666.139,117.639 C667.658,119.157 670.12,119.157 671.639,117.639 L687.194,102.083 C688.713,100.564 688.713,98.102 687.194,96.583 C685.676,95.065 683.213,95.065 681.695,96.583 Z M681.695,102.083 L697.25,117.639 C698.769,119.157 701.231,119.157 702.75,117.639 C704.269,116.12 704.269,113.658 702.75,112.139 L687.194,96.583 C685.676,95.065 683.213,95.065 681.695,96.583 C680.176,98.102 680.176,100.564 681.695,102.083 Z" />
        </g>
    </g>
</svg>