<?xml version="1.0" encoding="UTF-8"?>
<svg height="600" width="800" xmlns="http://www.w3.org/2000/svg" xmlns:xlink="http://www.w3.org/1999/xlink">
    <g id="Notes" font-family="LucidaGrande, 'Lucida Grande', sans-serif" font-size="13">
        <rect fill="white" height="600.0" width="800.0" x="0.0" y="0.0" />
        <g font-size="13">
            <text x="18.0" y="176.0">Small</text>
            <text x="18.0" y="376.0">Medium</text>
            <text x="18.0" y="576.0">Large</text>
        </g>
        <g font-size="9">
            <text x="250.0" y="30.0">Ultralight</text>
            <text x="450.0" y="30.0">Regular</text>
            <text x="650.0" y="30.0">Black</text>
            <text id="template-version" fill="#505050" text-anchor="end" x="785.0" y="575.0">Template v.3.0</text>
            <a href="https://github.com/swhitty/SwiftDraw">
                <text fill="#505050" text-anchor="end" x="785.0" y="590.0">https://github.com/swhitty/SwiftDraw</text>
            </a>
        </g>
    </g>
    <g id="Guides" stroke="rgb(39, 170, 225)" stroke-width="0.5">
        <path id="Capline-S" d="M18,76 l800,0" />
        <path id="H-reference" d="M85,145.755 L87.685,145.755 L113.369,79.287 L114.052,79.287 L114.052,76 L112.148,76 L85,145.755 Z M95.693,121.536 L130.996,121.536 L130.263,119.313 L96.474,119.313 L95.693,121.536 Z M139.15,145.755 L141.787,145.755 L114.638,76 L113.466,76 L113.466,79.287 L139.15,145.755 Z" stroke="none" transform="translate(0,200)" />
        <path id="Baseline-S" d="M18,146 l800,0" />
        <path id="left-margin-Ultralight-M" d="M230,256 l0,110" />
        <path id="right-margin-Ultralight-M" d="M300,256 l0,110" />
        <path id="left-margin-Regular-M" d="M430,256 l0,110" />
        <path id="right-margin-Regular-M" d="M500,256 l0,110" />
        <path id="left-margin-Black-M" d="M630,256 l0,110" />
        <path id="right-margin-Black-M" d="M700,256 l0,110" />
        <path id="Capline-M" d="M18,276 l800,0" />
        <path id="Baseline-M" d="M18,346 l800,0" />
        <path id="Capline-L" d="M18,476 l800,0" />
        <path id="Baseline-L" d="M18,546 l800,0" />
    </g>
    <g id="Symbols">
        <g id="Ultralight-M" transform="translate(0,200)">
            <path d="M284.091,119.217 L284.091,108.341 C284.091,107.046 284.072,106.7 283.834,105.907 C283.598,105.131 283.22,104.438 282.723,103.863 C282.516,103.619 282.273,103.394 282.008,103.192 C281.7,102.957 281.529,102.855 280.915,102.508 L266.423,94.264 C264.852,93.37 262.94,94.094 262.154,95.882 C261.368,97.67 262.005,99.844 263.577,100.738 L278.076,108.986 C278.393,109.166 278.488,109.222 278.468,109.207 C278.375,109.136 278.271,109.04 278.166,108.916 C278.02,108.747 277.894,108.516 277.817,108.262 C277.725,107.956 277.727,108.007 277.727,108.341 L277.727,119.217 C277.727,121.216 279.152,122.836 280.909,122.836 C282.666,122.836 284.091,121.216 284.091,119.217 Z M236.364,101.12 L236.364,125.757 C236.364,127.942 236.395,128.506 236.734,129.583 C237.057,130.617 237.589,131.56 238.285,132.333 C239.012,133.133 239.463,133.41 241.188,134.309 L261.552,144.929 C262.786,145.568 263.099,145.712 263.784,145.866 C263.85,145.88 263.85,145.88 263.917,145.893 C264.628,146.037 265.372,146.037 266.099,145.89 C266.15,145.88 266.15,145.88 266.216,145.866 C266.901,145.712 267.214,145.568 268.441,144.933 L288.812,134.31 C289.887,133.749 290.197,133.578 290.65,133.263 C291.048,132.987 291.399,132.683 291.722,132.322 C292.403,131.571 292.936,130.63 293.265,129.589 C293.605,128.503 293.636,127.936 293.636,125.757 L293.636,101.12 C293.636,99.121 292.212,97.501 290.455,97.501 C288.697,97.501 287.273,99.121 287.273,101.12 L287.273,125.757 C287.273,126.94 287.258,127.198 287.272,127.153 C287.275,127.144 287.275,127.144 287.275,127.144 C287.305,127.111 287.337,127.083 287.333,127.085 C287.189,127.186 286.953,127.316 286.16,127.73 L265.796,138.349 C265.124,138.697 264.973,138.766 264.985,138.764 C264.995,138.761 264.995,138.761 265.005,138.759 C264.997,138.761 265.003,138.761 265.01,138.762 C265.005,138.761 265.005,138.761 265.015,138.764 C265.027,138.766 264.876,138.697 264.196,138.345 L243.84,127.729 C242.896,127.237 242.693,127.113 242.719,127.141 C242.728,127.151 242.728,127.151 242.728,127.151 C242.742,127.194 242.727,126.938 242.727,125.757 L242.727,101.12 C242.727,99.121 241.303,97.501 239.545,97.501 C237.788,97.501 236.364,99.121 236.364,101.12 Z M234.605,100.738 L265.284,83.289 C265.496,83.167 265.508,83.162 265.296,83.207 C265.099,83.249 264.901,83.249 264.707,83.208 C264.495,83.162 264.514,83.171 264.725,83.291 L295.395,100.738 L295.395,94.264 L264.716,111.712 C264.507,111.843 264.499,111.846 264.491,111.849 C264.901,111.753 265.099,111.753 265.292,111.794 C265.28,111.791 265.28,111.791 265.307,111.797 C265.518,111.846 265.48,111.827 265.275,111.711 L234.605,94.264 L234.605,100.738 Z M231.759,94.264 C229.414,95.597 229.414,99.404 231.759,100.738 L262.438,118.19 C263.26,118.655 263.475,118.762 264.05,118.893 C264.106,118.906 264.106,118.906 264.162,118.917 C264.703,119.032 265.297,119.032 265.877,118.909 C266.681,118.68 267.243,118.414 267.764,118.061 L298.241,100.738 C300.586,99.404 300.586,95.598 298.241,94.264 L267.562,76.811 C266.756,76.356 266.479,76.222 265.882,76.093 C265.298,75.969 264.702,75.969 264.122,76.093 C263.514,76.223 263.215,76.37 262.429,76.82 L231.759,94.264 Z" />
        </g>
        <g id="Regular-M" transform="translate(0,200)">
            <path d="M484.091,119.217 L484.091,108.341 C484.091,107.046 484.072,106.7 483.834,105.907 C483.598,105.131 483.22,104.438 482.723,103.863 C482.516,103.619 482.273,103.394 482.008,103.192 C481.7,102.957 481.529,102.855 480.915,102.508 L466.423,94.264 C464.852,93.37 462.94,94.094 462.154,95.882 C461.368,97.67 462.005,99.844 463.577,100.738 L478.076,108.986 C478.393,109.166 478.488,109.222 478.468,109.207 C478.375,109.136 478.271,109.04 478.166,108.916 C478.02,108.747 477.894,108.516 477.817,108.262 C477.725,107.956 477.727,108.007 477.727,108.341 L477.727,119.217 C477.727,121.216 479.152,122.836 480.909,122.836 C482.666,122.836 484.091,121.216 484.091,119.217 Z M436.364,101.12 L436.364,125.757 C436.364,127.942 436.395,128.506 436.734,129.583 C437.057,130.617 437.589,131.56 438.285,132.333 C439.012,133.133 439.463,133.41 441.188,134.309 L461.552,144.929 C462.786,145.568 463.099,145.712 463.784,145.866 C463.85,145.88 463.85,145.88 463.917,145.893 C464.628,146.037 465.372,146.037 466.099,145.89 C466.15,145.88 466.15,145.88 466.216,145.866 C466.901,145.712 467.214,145.568 468.441,144.933 L488.812,134.31 C489.887,133.749 490.197,133.578 490.65,133.263 C491.048,132.987 491.399,132.683 491.722,132.322 C492.403,131.571 492.936,130.63 493.265,129.589 C493.605,128.503 493.636,127.936 493.636,125.757 L493.636,101.12 C493.636,99.121 492.212,97.501 490.455,97.501 C488.697,97.501 487.273,99.121 487.273,101.12 L487.273,125.757 C487.273,126.94 487.258,127.198 487.272,127.153 C487.275,127.144 487.275,127.144 487.275,127.144 C487.305,127.111 487.337,127.083 487.333,127.085 C487.189,127.186 486.953,127.316 486.16,127.73 L465.796,138.349 C465.124,138.697 464.973,138.766 464.985,138.764 C464.995,138.761 464.995,138.761 465.005,138.759 C464.997,138.761 465.003,138.761 465.01,138.762 C465.005,138.761 465.005,138.761 465.015,138.764 C465.027,138.766 464.876,138.697 464.196,138.345 L443.84,127.729 C442.896,127.237 442.693,127.113 442.719,127.141 C442.728,127.151 442.728,127.151 442.728,127.151 C442.742,127.194 442.727,126.938 442.727,125.757 L442.727,101.12 C442.727,99.121 441.303,97.501 439.545,97.501 C437.788,97.501 436.364,99.121 436.364,101.12 Z M434.605,100.738 L465.284,83.289 C465.496,83.167 465.508,83.162 465.296,83.207 C465.099,83.249 464.901,83.249 464.707,83.208 C464.495,83.162 464.514,83.171 464.725,83.291 L495.395,100.738 L495.395,94.264 L464.716,111.712 C464.507,111.843 464.499,111.846 464.491,111.849 C464.901,111.753 465.099,111.753 465.292,111.794 C465.28,111.791 465.28,111.791 465.307,111.797 C465.518,111.846 465.48,111.827 465.275,111.711 L434.605,94.264 L434.605,100.738 Z M431.759,94.264 C429.414,95.597 429.414,99.404 431.759,100.738 L462.438,118.19 C463.26,118.655 463.475,118.762 464.05,118.893 C464.106,118.906 464.106,118.906 464.162,118.917 C464.703,119.032 465.297,119.032 465.877,118.909 C466.681,118.68 467.243,118.414 467.764,118.061 L498.241,100.738 C500.586,99.404 500.586,95.598 498.241,94.264 L467.562,76.811 C466.756,76.356 466.479,76.222 465.882,76.093 C465.298,75.969 464.702,75.969 464.122,76.093 C463.514,76.223 463.215,76.37 462.429,76.82 L431.759,94.264 Z" />
        </g>
        <g id="Black-M" transform="translate(0,200)">
            <path d="M684.091,119.217 L684.091,108.341 C684.091,107.046 684.072,106.7 683.834,105.907 C683.598,105.131 683.22,104.438 682.723,103.863 C682.516,103.619 682.273,103.394 682.008,103.192 C681.7,102.957 681.529,102.855 680.915,102.508 L666.423,94.264 C664.852,93.37 662.94,94.094 662.154,95.882 C661.368,97.67 662.005,99.844 663.577,100.738 L678.076,108.986 C678.393,109.166 678.488,109.222 678.468,109.207 C678.375,109.136 678.271,109.04 678.166,108.916 C678.02,108.747 677.894,108.516 677.817,108.262 C677.725,107.956 677.727,108.007 677.727,108.341 L677.727,119.217 C677.727,121.216 679.152,122.836 680.909,122.836 C682.666,122.836 684.091,121.216 684.091,119.217 Z M636.364,101.12 L636.364,125.757 C636.364,127.942 636.395,128.506 636.734,129.583 C637.057,130.617 637.589,131.56 638.285,132.333 C639.012,133.133 639.463,133.41 641.188,134.309 L661.552,144.929 C662.786,145.568 663.099,145.712 663.784,145.866 C663.85,145.88 663.85,145.88 663.917,145.893 C664.628,146.037 665.372,146.037 666.099,145.89 C666.15,145.88 666.15,145.88 666.216,145.866 C666.901,145.712 667.214,145.568 668.441,144.933 L688.812,134.31 C689.887,133.749 690.197,133.578 690.65,133.263 C691.048,132.987 691.399,132.683 691.722,132.322 C692.403,131.571 692.936,130.63 693.265,129.589 C693.605,128.503 693.636,127.936 693.636,125.757 L693.636,101.12 C693.636,99.121 692.212,97.501 690.455,97.501 C688.697,97.501 687.273,99.121 687.273,101.12 L687.273,125.757 C687.273,126.94 687.258,127.198 687.272,127.153 C687.275,127.144 687.275,127.144 687.275,127.144 C687.305,127.111 687.337,127.083 687.333,127.085 C687.189,127.186 686.953,127.316 686.16,127.73 L665.796,138.349 C665.124,138.697 664.973,138.766 664.985,138.764 C664.995,138.761 664.995,138.761 665.005,138.759 C664.997,138.761 665.003,138.761 665.01,138.762 C665.005,138.761 665.005,138.761 665.015,138.764 C665.027,138.766 664.876,138.697 664.196,138.345 L643.84,127.729 C642.896,127.237 642.693,127.113 642.719,127.141 C642.728,127.151 642.728,127.151 642.728,127.151 C642.742,127.194 642.727,126.938 642.727,125.757 L642.727,101.12 C642.727,99.121 641.303,97.501 639.545,97.501 C637.788,97.501 636.364,99.121 636.364,101.12 Z M634.605,100.738 L665.284,83.289 C665.496,83.167 665.508,83.162 665.296,83.207 C665.099,83.249 664.901,83.249 664.707,83.208 C664.495,83.162 664.514,83.171 664.725,83.291 L695.395,100.738 L695.395,94.264 L664.716,111.712 C664.507,111.843 664.499,111.846 664.491,111.849 C664.901,111.753 665.099,111.753 665.292,111.794 C665.28,111.791 665.28,111.791 665.307,111.797 C665.518,111.846 665.48,111.827 665.275,111.711 L634.605,94.264 L634.605,100.738 Z M631.759,94.264 C629.414,95.597 629.414,99.404 631.759,100.738 L662.438,118.19 C663.26,118.655 663.475,118.762 664.05,118.893 C664.106,118.906 664.106,118.906 664.162,118.917 C664.703,119.032 665.297,119.032 665.877,118.909 C666.681,118.68 667.243,118.414 667.764,118.061 L698.241,100.738 C700.586,99.404 700.586,95.598 698.241,94.264 L667.562,76.811 C666.756,76.356 666.479,76.222 665.882,76.093 C665.298,75.969 664.702,75.969 664.122,76.093 C663.514,76.223 663.215,76.37 662.429,76.82 L631.759,94.264 Z" />
        </g>
    </g>
</svg>