<?xml version="1.0" encoding="UTF-8"?>
<svg height="600" width="800" xmlns="http://www.w3.org/2000/svg" xmlns:xlink="http://www.w3.org/1999/xlink">
    <g id="Notes" font-family="LucidaGrande, 'Lucida Grande', sans-serif" font-size="13">
        <rect fill="white" height="600.0" width="800.0" x="0.0" y="0.0" />
        <g font-size="13">
            <text x="18.0" y="176.0">Small</text>
            <text x="18.0" y="376.0">Medium</text>
            <text x="18.0" y="576.0">Large</text>
        </g>
        <g font-size="9">
            <text x="250.0" y="30.0">Ultralight</text>
            <text x="450.0" y="30.0">Regular</text>
            <text x="650.0" y="30.0">Black</text>
            <text id="template-version" fill="#505050" text-anchor="end" x="785.0" y="575.0">Template v.3.0</text>
            <a href="https://github.com/swhitty/SwiftDraw">
                <text fill="#505050" text-anchor="end" x="785.0" y="590.0">https://github.com/swhitty/SwiftDraw</text>
            </a>
        </g>
    </g>
    <g id="Guides" stroke="rgb(39, 170, 225)" stroke-width="0.5">
        <path id="Capline-S" d="M18,76 l800,0" />
        <path id="H-reference" d="M85,145.755 L87.685,145.755 L113.369,79.287 L114.052,79.287 L114.052,76 L112.148,76 L85,145.755 Z M95.693,121.536 L130.996,121.536 L130.263,119.313 L96.474,119.313 L95.693,121.536 Z M139.15,145.755 L141.787,145.755 L114.638,76 L113.466,76 L113.466,79.287 L139.15,145.755 Z" stroke="none" transform="translate(0,200)" />
        <path id="Baseline-S" d="M18,146 l800,0" />
        <path id="left-margin-Ultralight-M" d="M230,256 l0,110" />
        <path id="right-margin-Ultralight-M" d="M300,256 l0,110" />
        <path id="left-margin-Regular-M" d="M430,256 l0,110" />
        <path id="right-margin-Regular-M" d="M500,256 l0,110" />
        <path id="left-margin-Black-M" d="M630,256 l0,110" />
        <path id="right-margin-Black-M" d="M700,256 l0,110" />
        <path id="Capline-M" d="M18,276 l800,0" />
        <path id="Baseline-M" d="M18,346 l800,0" />
        <path id="Capline-L" d="M18,476 l800,0" />
        <path id="Baseline-L" d="M18,546 l800,0" />
    </g>
    <g id="Symbols">
        <g id="Ultralight-M" transform="translate(0,200)">
            <path d="M277.521,94.354 L248.354,123.521 C247.215,124.66 247.215,126.507 248.354,127.646 C249.493,128.785 251.34,128.785 252.479,127.646 L281.646,98.479 C282.785,97.34 282.785,95.493 281.646,94.354 C280.507,93.215 278.66,93.215 277.521,94.354 Z M250.417,128.5 L279.583,128.5 C281.194,128.5 282.5,127.194 282.5,125.583 C282.5,123.973 281.194,122.667 279.583,122.667 L250.417,122.667 C248.806,122.667 247.5,123.973 247.5,125.583 C247.5,127.194 248.806,128.5 250.417,128.5 Z M253.333,125.583 L253.333,96.417 C253.333,94.806 252.027,93.5 250.417,93.5 C248.806,93.5 247.5,94.806 247.5,96.417 L247.5,125.583 C247.5,127.194 248.806,128.5 250.417,128.5 C252.027,128.5 253.333,127.194 253.333,125.583 Z" />
        </g>
        <g id="Regular-M" transform="translate(0,200)">
            <path d="M477.521,94.354 L448.354,123.521 C447.215,124.66 447.215,126.507 448.354,127.646 C449.493,128.785 451.34,128.785 452.479,127.646 L481.646,98.479 C482.785,97.34 482.785,95.493 481.646,94.354 C480.507,93.215 478.66,93.215 477.521,94.354 Z M450.417,128.5 L479.583,128.5 C481.194,128.5 482.5,127.194 482.5,125.583 C482.5,123.973 481.194,122.667 479.583,122.667 L450.417,122.667 C448.806,122.667 447.5,123.973 447.5,125.583 C447.5,127.194 448.806,128.5 450.417,128.5 Z M453.333,125.583 L453.333,96.417 C453.333,94.806 452.027,93.5 450.417,93.5 C448.806,93.5 447.5,94.806 447.5,96.417 L447.5,125.583 C447.5,127.194 448.806,128.5 450.417,128.5 C452.027,128.5 453.333,127.194 453.333,125.583 Z" />
        </g>
        <g id="Black-M" transform="translate(0,200)">
            <path d="M677.521,94.354 L648.354,123.521 C647.215,124.66 647.215,126.507 648.354,127.646 C649.493,128.785 651.34,128.785 652.479,127.646 L681.646,98.479 C682.785,97.34 682.785,95.493 681.646,94.354 C680.507,93.215 678.66,93.215 677.521,94.354 Z M650.417,128.5 L679.583,128.5 C681.194,128.5 682.5,127.194 682.5,125.583 C682.5,123.973 681.194,122.667 679.583,122.667 L650.417,122.667 C648.806,122.667 647.5,123.973 647.5,125.583 C647.5,127.194 648.806,128.5 650.417,128.5 Z M653.333,125.583 L653.333,96.417 C653.333,94.806 652.028,93.5 650.417,93.5 C648.806,93.5 647.5,94.806 647.5,96.417 L647.5,125.583 C647.5,127.194 648.806,128.5 650.417,128.5 C652.028,128.5 653.333,127.194 653.333,125.583 Z" />
        </g>
    </g>
</svg>