<?xml version="1.0" encoding="UTF-8"?>
<svg height="600" width="800" xmlns="http://www.w3.org/2000/svg" xmlns:xlink="http://www.w3.org/1999/xlink">
    <g id="Notes" font-family="LucidaGrande, 'Lucida Grande', sans-serif" font-size="13">
        <rect fill="white" height="600.0" width="800.0" x="0.0" y="0.0" />
        <g font-size="13">
            <text x="18.0" y="176.0">Small</text>
            <text x="18.0" y="376.0">Medium</text>
            <text x="18.0" y="576.0">Large</text>
        </g>
        <g font-size="9">
            <text x="250.0" y="30.0">Ultralight</text>
            <text x="450.0" y="30.0">Regular</text>
            <text x="650.0" y="30.0">Black</text>
            <text id="template-version" fill="#505050" text-anchor="end" x="785.0" y="575.0">Template v.3.0</text>
            <a href="https://github.com/swhitty/SwiftDraw">
                <text fill="#505050" text-anchor="end" x="785.0" y="590.0">https://github.com/swhitty/SwiftDraw</text>
            </a>
        </g>
    </g>
    <g id="Guides" stroke="rgb(39, 170, 225)" stroke-width="0.5">
        <path id="Capline-S" d="M18,76 l800,0" />
        <path id="H-reference" d="M85,145.755 L87.685,145.755 L113.369,79.287 L114.052,79.287 L114.052,76 L112.148,76 L85,145.755 Z M95.693,121.536 L130.996,121.536 L130.263,119.313 L96.474,119.313 L95.693,121.536 Z M139.15,145.755 L141.787,145.755 L114.638,76 L113.466,76 L113.466,79.287 L139.15,145.755 Z" stroke="none" transform="translate(0,200)" />
        <path id="Baseline-S" d="M18,146 l800,0" />
        <path id="left-margin-Ultralight-M" d="M221,256 l0,110" />
        <path id="right-margin-Ultralight-M" d="M309,256 l0,110" />
        <path id="left-margin-Regular-M" d="M421,256 l0,110" />
        <path id="right-margin-Regular-M" d="M509,256 l0,110" />
        <path id="left-margin-Black-M" d="M621,256 l0,110" />
        <path id="right-margin-Black-M" d="M709,256 l0,110" />
        <path id="Capline-M" d="M18,276 l800,0" />
        <path id="Baseline-M" d="M18,346 l800,0" />
        <path id="Capline-L" d="M18,476 l800,0" />
        <path id="Baseline-L" d="M18,546 l800,0" />
    </g>
    <g id="Symbols">
        <g id="Ultralight-M" transform="translate(0,200)">
            <path d="M258.714,122.857 L258.714,127.762 C258.714,131.233 261.529,134.048 265,134.048 C268.471,134.048 271.286,131.233 271.286,127.762 L271.286,122.857 C271.286,121.7 270.348,120.762 269.19,120.762 C268.033,120.762 267.095,121.7 267.095,122.857 L267.095,127.762 C267.095,128.919 266.157,129.857 265,129.857 C263.843,129.857 262.905,128.919 262.905,127.762 L262.905,122.857 C262.905,121.7 261.967,120.762 260.81,120.762 C259.652,120.762 258.714,121.7 258.714,122.857 Z M262.905,90.048 L262.905,92.143 C262.905,93.3 263.843,94.238 265,94.238 C266.157,94.238 267.095,93.3 267.095,92.143 L267.095,90.048 C267.095,88.89 266.157,87.952 265,87.952 C263.843,87.952 262.905,88.89 262.905,90.048 Z M246.143,108.905 L244.048,108.905 C242.89,108.905 241.952,109.843 241.952,111 C241.952,112.157 242.89,113.095 244.048,113.095 L246.143,113.095 C247.3,113.095 248.238,112.157 248.238,111 C248.238,109.843 247.3,108.905 246.143,108.905 Z M252.863,95.899 L251.605,94.642 C250.787,93.824 249.46,93.824 248.642,94.642 C247.824,95.46 247.824,96.787 248.642,97.605 L249.899,98.863 C250.718,99.681 252.044,99.681 252.863,98.863 C253.681,98.044 253.681,96.718 252.863,95.899 Z M280.101,98.863 L281.358,97.605 C282.176,96.787 282.176,95.46 281.358,94.642 C280.54,93.824 279.213,93.824 278.395,94.642 L277.138,95.899 C276.319,96.718 276.319,98.044 277.138,98.863 C277.956,99.681 279.282,99.681 280.101,98.863 Z M285.952,108.905 L283.857,108.905 C282.7,108.905 281.762,109.843 281.762,111 C281.762,112.157 282.7,113.095 283.857,113.095 L285.952,113.095 C287.11,113.095 288.048,112.157 288.048,111 C288.048,109.843 287.11,108.905 285.952,108.905 Z M275.476,111 C275.476,116.786 270.786,121.476 265,121.476 C259.214,121.476 254.524,116.786 254.524,111 C254.524,105.214 259.214,100.524 265,100.524 C270.786,100.524 275.476,105.214 275.476,111 Z M279.667,111 C279.667,102.9 273.1,96.333 265,96.333 C256.9,96.333 250.333,102.9 250.333,111 C250.333,119.1 256.9,125.667 265,125.667 C273.1,125.667 279.667,119.1 279.667,111 Z" />
        </g>
        <g id="Regular-M" transform="translate(0,200)">
            <path d="M458.714,122.857 L458.714,127.762 C458.714,131.233 461.529,134.048 465,134.048 C468.471,134.048 471.286,131.233 471.286,127.762 L471.286,122.857 C471.286,121.7 470.348,120.762 469.19,120.762 C468.033,120.762 467.095,121.7 467.095,122.857 L467.095,127.762 C467.095,128.919 466.157,129.857 465,129.857 C463.843,129.857 462.905,128.919 462.905,127.762 L462.905,122.857 C462.905,121.7 461.967,120.762 460.81,120.762 C459.652,120.762 458.714,121.7 458.714,122.857 Z M462.905,90.048 L462.905,92.143 C462.905,93.3 463.843,94.238 465,94.238 C466.157,94.238 467.095,93.3 467.095,92.143 L467.095,90.048 C467.095,88.89 466.157,87.952 465,87.952 C463.843,87.952 462.905,88.89 462.905,90.048 Z M446.143,108.905 L444.048,108.905 C442.89,108.905 441.952,109.843 441.952,111 C441.952,112.157 442.89,113.095 444.048,113.095 L446.143,113.095 C447.3,113.095 448.238,112.157 448.238,111 C448.238,109.843 447.3,108.905 446.143,108.905 Z M452.863,95.899 L451.605,94.642 C450.787,93.824 449.461,93.824 448.642,94.642 C447.824,95.46 447.824,96.787 448.642,97.605 L449.899,98.863 C450.718,99.681 452.044,99.681 452.863,98.863 C453.681,98.044 453.681,96.718 452.863,95.899 Z M480.101,98.863 L481.358,97.605 C482.176,96.787 482.176,95.46 481.358,94.642 C480.54,93.824 479.213,93.824 478.395,94.642 L477.138,95.899 C476.319,96.718 476.319,98.044 477.138,98.863 C477.956,99.681 479.282,99.681 480.101,98.863 Z M485.952,108.905 L483.857,108.905 C482.7,108.905 481.762,109.843 481.762,111 C481.762,112.157 482.7,113.095 483.857,113.095 L485.952,113.095 C487.11,113.095 488.048,112.157 488.048,111 C488.048,109.843 487.11,108.905 485.952,108.905 Z M475.476,111 C475.476,116.786 470.786,121.476 465,121.476 C459.214,121.476 454.524,116.786 454.524,111 C454.524,105.214 459.214,100.524 465,100.524 C470.786,100.524 475.476,105.214 475.476,111 Z M479.667,111 C479.667,102.9 473.1,96.333 465,96.333 C456.9,96.333 450.333,102.9 450.333,111 C450.333,119.1 456.9,125.667 465,125.667 C473.1,125.667 479.667,119.1 479.667,111 Z" />
        </g>
        <g id="Black-M" transform="translate(0,200)">
            <path d="M658.714,122.857 L658.714,127.762 C658.714,131.233 661.528,134.048 665,134.048 C668.471,134.048 671.286,131.233 671.286,127.762 L671.286,122.857 C671.286,121.7 670.348,120.762 669.19,120.762 C668.033,120.762 667.095,121.7 667.095,122.857 L667.095,127.762 C667.095,128.919 666.157,129.857 665,129.857 C663.843,129.857 662.905,128.919 662.905,127.762 L662.905,122.857 C662.905,121.7 661.967,120.762 660.81,120.762 C659.652,120.762 658.714,121.7 658.714,122.857 Z M662.905,90.048 L662.905,92.143 C662.905,93.3 663.843,94.238 665,94.238 C666.157,94.238 667.095,93.3 667.095,92.143 L667.095,90.048 C667.095,88.89 666.157,87.952 665,87.952 C663.843,87.952 662.905,88.89 662.905,90.048 Z M646.143,108.905 L644.048,108.905 C642.89,108.905 641.952,109.843 641.952,111 C641.952,112.157 642.89,113.095 644.048,113.095 L646.143,113.095 C647.3,113.095 648.238,112.157 648.238,111 C648.238,109.843 647.3,108.905 646.143,108.905 Z M652.862,95.899 L651.605,94.642 C650.787,93.824 649.46,93.824 648.642,94.642 C647.824,95.46 647.824,96.787 648.642,97.605 L649.899,98.863 C650.718,99.681 652.044,99.681 652.862,98.863 C653.681,98.044 653.681,96.718 652.862,95.899 Z M680.101,98.863 L681.358,97.605 C682.176,96.787 682.176,95.46 681.358,94.642 C680.539,93.824 679.213,93.824 678.395,94.642 L677.137,95.899 C676.319,96.718 676.319,98.044 677.137,98.863 C677.956,99.681 679.282,99.681 680.101,98.863 Z M685.952,108.905 L683.857,108.905 C682.7,108.905 681.762,109.843 681.762,111 C681.762,112.157 682.7,113.095 683.857,113.095 L685.952,113.095 C687.109,113.095 688.048,112.157 688.048,111 C688.048,109.843 687.109,108.905 685.952,108.905 Z M675.476,111 C675.476,116.786 670.786,121.476 665,121.476 C659.214,121.476 654.524,116.786 654.524,111 C654.524,105.214 659.214,100.524 665,100.524 C670.786,100.524 675.476,105.214 675.476,111 Z M679.667,111 C679.667,102.9 673.1,96.333 665,96.333 C656.9,96.333 650.333,102.9 650.333,111 C650.333,119.1 656.9,125.667 665,125.667 C673.1,125.667 679.667,119.1 679.667,111 Z" />
        </g>
    </g>
</svg>