<?xml version="1.0" encoding="UTF-8"?>
<svg height="600" width="800" xmlns="http://www.w3.org/2000/svg" xmlns:xlink="http://www.w3.org/1999/xlink">
    <g id="Notes" font-family="LucidaGrande, 'Lucida Grande', sans-serif" font-size="13">
        <rect fill="white" height="600.0" width="800.0" x="0.0" y="0.0" />
        <g font-size="13">
            <text x="18.0" y="176.0">Small</text>
            <text x="18.0" y="376.0">Medium</text>
            <text x="18.0" y="576.0">Large</text>
        </g>
        <g font-size="9">
            <text x="250.0" y="30.0">Ultralight</text>
            <text x="450.0" y="30.0">Regular</text>
            <text x="650.0" y="30.0">Black</text>
            <text id="template-version" fill="#505050" text-anchor="end" x="785.0" y="575.0">Template v.3.0</text>
            <a href="https://github.com/swhitty/SwiftDraw">
                <text fill="#505050" text-anchor="end" x="785.0" y="590.0">https://github.com/swhitty/SwiftDraw</text>
            </a>
        </g>
    </g>
    <g id="Guides" stroke="rgb(39, 170, 225)" stroke-width="0.5">
        <path id="Capline-S" d="M18,76 l800,0" />
        <path id="H-reference" d="M85,145.755 L87.685,145.755 L113.369,79.287 L114.052,79.287 L114.052,76 L112.148,76 L85,145.755 Z M95.693,121.536 L130.996,121.536 L130.263,119.313 L96.474,119.313 L95.693,121.536 Z M139.15,145.755 L141.787,145.755 L114.638,76 L113.466,76 L113.466,79.287 L139.15,145.755 Z" stroke="none" transform="translate(0,200)" />
        <path id="Baseline-S" d="M18,146 l800,0" />
        <path id="left-margin-Ultralight-M" d="M230,256 l0,110" />
        <path id="right-margin-Ultralight-M" d="M300,256 l0,110" />
        <path id="left-margin-Regular-M" d="M430,256 l0,110" />
        <path id="right-margin-Regular-M" d="M500,256 l0,110" />
        <path id="left-margin-Black-M" d="M630,256 l0,110" />
        <path id="right-margin-Black-M" d="M700,256 l0,110" />
        <path id="Capline-M" d="M18,276 l800,0" />
        <path id="Baseline-M" d="M18,346 l800,0" />
        <path id="Capline-L" d="M18,476 l800,0" />
        <path id="Baseline-L" d="M18,546 l800,0" />
    </g>
    <g id="Symbols">
        <g id="Ultralight-M" transform="translate(0,200)">
            <path d="M245.438,104.312 L262.938,121.812 C264.077,122.951 265.923,122.951 267.062,121.812 L284.562,104.312 C285.701,103.173 285.701,101.327 284.562,100.188 C283.423,99.049 281.577,99.049 280.438,100.188 L262.938,117.688 L267.062,117.688 L249.562,100.188 C248.423,99.049 246.577,99.049 245.438,100.188 C244.299,101.327 244.299,103.173 245.438,104.312 Z" />
        </g>
        <g id="Regular-M" transform="translate(0,200)">
            <path d="M445.438,104.312 L462.938,121.812 C464.077,122.951 465.923,122.951 467.062,121.812 L484.562,104.312 C485.701,103.173 485.701,101.327 484.562,100.188 C483.423,99.049 481.577,99.049 480.438,100.188 L462.938,117.688 L467.062,117.688 L449.562,100.188 C448.423,99.049 446.577,99.049 445.438,100.188 C444.299,101.327 444.299,103.173 445.438,104.312 Z" />
        </g>
        <g id="Black-M" transform="translate(0,200)">
            <path d="M645.438,104.312 L662.938,121.812 C664.077,122.951 665.923,122.951 667.062,121.812 L684.562,104.312 C685.701,103.173 685.701,101.327 684.562,100.188 C683.423,99.049 681.577,99.049 680.438,100.188 L662.938,117.688 L667.062,117.688 L649.562,100.188 C648.423,99.049 646.577,99.049 645.438,100.188 C644.299,101.327 644.299,103.173 645.438,104.312 Z" />
        </g>
    </g>
</svg>