<?xml version="1.0" encoding="UTF-8"?>
<svg height="600" width="800" xmlns="http://www.w3.org/2000/svg" xmlns:xlink="http://www.w3.org/1999/xlink">
    <g id="Notes" font-family="LucidaGrande, 'Lucida Grande', sans-serif" font-size="13">
        <rect fill="white" height="600.0" width="800.0" x="0.0" y="0.0" />
        <g font-size="13">
            <text x="18.0" y="176.0">Small</text>
            <text x="18.0" y="376.0">Medium</text>
            <text x="18.0" y="576.0">Large</text>
        </g>
        <g font-size="9">
            <text x="250.0" y="30.0">Ultralight</text>
            <text x="450.0" y="30.0">Regular</text>
            <text x="650.0" y="30.0">Black</text>
            <text id="template-version" fill="#505050" text-anchor="end" x="785.0" y="575.0">Template v.3.0</text>
            <a href="https://github.com/swhitty/SwiftDraw">
                <text fill="#505050" text-anchor="end" x="785.0" y="590.0">https://github.com/swhitty/SwiftDraw</text>
            </a>
        </g>
    </g>
    <g id="Guides" stroke="rgb(39, 170, 225)" stroke-width="0.5">
        <path id="Capline-S" d="M18,76 l800,0" />
        <path id="H-reference" d="M85,145.755 L87.685,145.755 L113.369,79.287 L114.052,79.287 L114.052,76 L112.148,76 L85,145.755 Z M95.693,121.536 L130.996,121.536 L130.263,119.313 L96.474,119.313 L95.693,121.536 Z M139.15,145.755 L141.787,145.755 L114.638,76 L113.466,76 L113.466,79.287 L139.15,145.755 Z" stroke="none" transform="translate(0,200)" />
        <path id="Baseline-S" d="M18,146 l800,0" />
        <path id="left-margin-Ultralight-M" d="M221,256 l0,110" />
        <path id="right-margin-Ultralight-M" d="M309,256 l0,110" />
        <path id="left-margin-Regular-M" d="M421,256 l0,110" />
        <path id="right-margin-Regular-M" d="M509,256 l0,110" />
        <path id="left-margin-Black-M" d="M621,256 l0,110" />
        <path id="right-margin-Black-M" d="M709,256 l0,110" />
        <path id="Capline-M" d="M18,276 l800,0" />
        <path id="Baseline-M" d="M18,346 l800,0" />
        <path id="Capline-L" d="M18,476 l800,0" />
        <path id="Baseline-L" d="M18,546 l800,0" />
    </g>
    <g id="Symbols">
        <g id="Ultralight-M" transform="translate(0,200)">
            <path d="M240.52,111 L256.84,111 C259.093,111 260.92,109.242 260.92,107.072 C260.92,104.902 259.093,103.143 256.84,103.143 L240.52,103.143 C238.267,103.143 236.44,104.902 236.44,107.072 C236.44,109.242 238.267,111 240.52,111 Z M244.6,99.215 L244.6,114.929 C244.6,117.099 246.427,118.858 248.68,118.858 C250.933,118.858 252.76,117.099 252.76,114.929 L252.76,99.215 C252.76,97.045 250.933,95.286 248.68,95.286 C246.427,95.286 244.6,97.045 244.6,99.215 Z M277.24,114.929 L277.281,114.929 C279.534,114.929 281.361,113.17 281.361,111 C281.361,108.831 279.534,107.072 277.281,107.072 L277.24,107.072 C274.986,107.072 273.16,108.831 273.16,111 C273.16,113.17 274.986,114.929 277.24,114.929 Z M289.48,107.072 L289.52,107.072 C291.774,107.072 293.6,105.313 293.6,103.143 C293.6,100.973 291.774,99.215 289.52,99.215 L289.48,99.215 C287.226,99.215 285.4,100.973 285.4,103.143 C285.4,105.313 287.226,107.072 289.48,107.072 Z M258.672,87.429 L271.328,87.429 C283.941,87.429 286.952,87.658 289.82,88.991 C292.779,90.367 295.239,92.574 296.875,95.32 C298.465,97.984 298.921,100.878 299.812,112.968 L300.82,126.501 C301.062,129.762 299.09,132.802 295.939,134.025 C292.789,135.247 289.179,134.373 287.004,131.86 L285.474,130.093 C283.566,127.887 283.038,127.315 282.088,126.536 C279.858,124.709 277.16,123.494 274.275,123.016 C273.051,122.811 272.284,122.786 269.272,122.786 L260.724,122.786 C257.712,122.786 256.944,122.811 255.714,123.018 C252.84,123.494 250.141,124.709 247.912,126.536 C246.962,127.315 246.433,127.887 244.524,130.094 L242.996,131.861 C240.821,134.372 237.212,135.246 234.062,134.025 C230.912,132.803 228.939,129.764 229.18,126.502 L230.183,112.97 C230.367,110.488 230.442,109.502 230.537,108.314 C231.154,100.651 231.753,97.611 233.12,95.317 C234.757,92.572 237.216,90.367 240.177,88.99 C243.044,87.658 246.057,87.429 258.676,87.429 L258.676,83.5 L258.676,79.571 L258.672,79.571 L258.672,83.5 L258.672,87.429 Z M258.672,79.571 C253.232,79.571 253.232,87.429 258.672,87.429 L258.676,87.429 C264.116,87.429 264.116,79.571 258.676,79.571 C244.51,79.571 241.115,79.83 236.629,81.914 C232.188,83.979 228.499,87.287 226.043,91.405 C223.865,95.059 223.112,98.885 222.402,107.707 C222.305,108.916 222.229,109.912 222.044,112.41 L221.04,125.944 C220.549,132.609 224.578,138.817 231.013,141.313 C237.449,143.809 244.821,142.023 249.264,136.891 L250.794,135.123 C252.356,133.316 252.755,132.885 253.201,132.519 C254.316,131.606 255.665,130.998 257.107,130.76 C257.686,130.662 258.269,130.644 260.724,130.644 L269.272,130.644 C271.731,130.644 272.311,130.662 272.885,130.758 C274.335,130.998 275.684,131.606 276.799,132.52 C277.244,132.885 277.644,133.316 279.204,135.122 L280.735,136.891 C285.179,142.024 292.553,143.81 298.989,141.312 C305.425,138.815 309.453,132.605 308.959,125.94 L307.951,112.409 C306.951,98.839 306.436,95.571 303.952,91.408 C301.498,87.29 297.809,83.981 293.368,81.915 C288.88,79.83 285.487,79.571 271.328,79.571 L258.672,79.571 Z" />
        </g>
        <g id="Regular-M" transform="translate(0,200)">
            <path d="M440.52,111 L456.84,111 C459.093,111 460.92,109.242 460.92,107.072 C460.92,104.902 459.093,103.143 456.84,103.143 L440.52,103.143 C438.267,103.143 436.44,104.902 436.44,107.072 C436.44,109.242 438.267,111 440.52,111 Z M444.6,99.215 L444.6,114.929 C444.6,117.099 446.427,118.858 448.68,118.858 C450.933,118.858 452.76,117.099 452.76,114.929 L452.76,99.215 C452.76,97.045 450.933,95.286 448.68,95.286 C446.427,95.286 444.6,97.045 444.6,99.215 Z M477.24,114.929 L477.281,114.929 C479.534,114.929 481.361,113.17 481.361,111 C481.361,108.831 479.534,107.072 477.281,107.072 L477.24,107.072 C474.986,107.072 473.16,108.831 473.16,111 C473.16,113.17 474.986,114.929 477.24,114.929 Z M489.48,107.072 L489.52,107.072 C491.774,107.072 493.6,105.313 493.6,103.143 C493.6,100.973 491.774,99.215 489.52,99.215 L489.48,99.215 C487.226,99.215 485.4,100.973 485.4,103.143 C485.4,105.313 487.226,107.072 489.48,107.072 Z M458.672,87.429 L471.328,87.429 C483.941,87.429 486.952,87.658 489.82,88.991 C492.779,90.367 495.239,92.574 496.875,95.32 C498.465,97.984 498.921,100.878 499.812,112.968 L500.82,126.501 C501.062,129.762 499.09,132.802 495.939,134.025 C492.789,135.247 489.179,134.373 487.004,131.86 L485.474,130.093 C483.566,127.887 483.038,127.315 482.088,126.536 C479.858,124.709 477.16,123.494 474.275,123.016 C473.051,122.811 472.284,122.786 469.272,122.786 L460.724,122.786 C457.712,122.786 456.944,122.811 455.714,123.018 C452.84,123.494 450.141,124.709 447.912,126.536 C446.962,127.315 446.433,127.887 444.524,130.094 L442.996,131.861 C440.821,134.372 437.212,135.246 434.062,134.025 C430.912,132.803 428.939,129.764 429.18,126.502 L430.183,112.97 C430.367,110.488 430.442,109.502 430.537,108.314 C431.154,100.651 431.753,97.611 433.12,95.317 C434.757,92.572 437.216,90.367 440.177,88.99 C443.044,87.658 446.057,87.429 458.676,87.429 L458.676,83.5 L458.676,79.571 L458.672,79.571 L458.672,83.5 L458.672,87.429 Z M458.672,79.571 C453.232,79.571 453.232,87.429 458.672,87.429 L458.676,87.429 C464.116,87.429 464.116,79.571 458.676,79.571 C444.51,79.571 441.115,79.83 436.629,81.914 C432.188,83.979 428.499,87.287 426.043,91.405 C423.865,95.059 423.112,98.885 422.402,107.707 C422.305,108.916 422.229,109.912 422.044,112.41 L421.04,125.944 C420.549,132.609 424.578,138.817 431.013,141.313 C437.449,143.809 444.821,142.023 449.264,136.891 L450.794,135.123 C452.356,133.316 452.755,132.885 453.201,132.519 C454.316,131.606 455.665,130.998 457.107,130.76 C457.686,130.662 458.269,130.644 460.724,130.644 L469.272,130.644 C471.731,130.644 472.311,130.662 472.885,130.758 C474.335,130.998 475.684,131.606 476.799,132.52 C477.244,132.885 477.644,133.316 479.204,135.122 L480.735,136.891 C485.179,142.024 492.553,143.81 498.989,141.312 C505.425,138.815 509.453,132.605 508.959,125.94 L507.951,112.409 C506.951,98.839 506.436,95.571 503.952,91.408 C501.498,87.29 497.809,83.981 493.368,81.915 C488.88,79.83 485.487,79.571 471.328,79.571 L458.672,79.571 Z" />
        </g>
        <g id="Black-M" transform="translate(0,200)">
            <path d="M640.52,111 L656.84,111 C659.093,111 660.92,109.242 660.92,107.072 C660.92,104.902 659.093,103.143 656.84,103.143 L640.52,103.143 C638.267,103.143 636.44,104.902 636.44,107.072 C636.44,109.242 638.267,111 640.52,111 Z M644.6,99.215 L644.6,114.929 C644.6,117.099 646.427,118.858 648.68,118.858 C650.933,118.858 652.76,117.099 652.76,114.929 L652.76,99.215 C652.76,97.045 650.933,95.286 648.68,95.286 C646.427,95.286 644.6,97.045 644.6,99.215 Z M677.24,114.929 L677.281,114.929 C679.534,114.929 681.361,113.17 681.361,111 C681.361,108.831 679.534,107.072 677.281,107.072 L677.24,107.072 C674.986,107.072 673.16,108.831 673.16,111 C673.16,113.17 674.986,114.929 677.24,114.929 Z M689.48,107.072 L689.52,107.072 C691.774,107.072 693.6,105.313 693.6,103.143 C693.6,100.973 691.774,99.215 689.52,99.215 L689.48,99.215 C687.226,99.215 685.4,100.973 685.4,103.143 C685.4,105.313 687.226,107.072 689.48,107.072 Z M658.672,87.429 L671.328,87.429 C683.941,87.429 686.952,87.658 689.82,88.991 C692.779,90.367 695.239,92.574 696.875,95.32 C698.465,97.984 698.921,100.878 699.812,112.968 L700.82,126.501 C701.062,129.762 699.09,132.802 695.939,134.025 C692.789,135.247 689.179,134.373 687.004,131.86 L685.474,130.093 C683.566,127.887 683.038,127.315 682.088,126.536 C679.858,124.709 677.16,123.494 674.275,123.016 C673.051,122.811 672.284,122.786 669.272,122.786 L660.724,122.786 C657.712,122.786 656.944,122.811 655.714,123.018 C652.84,123.494 650.141,124.709 647.912,126.536 C646.962,127.315 646.433,127.887 644.524,130.094 L642.996,131.861 C640.821,134.372 637.212,135.246 634.062,134.025 C630.912,132.803 628.939,129.764 629.18,126.502 L630.183,112.97 C630.367,110.488 630.442,109.502 630.537,108.314 C631.154,100.651 631.753,97.611 633.12,95.317 C634.757,92.572 637.216,90.367 640.177,88.99 C643.044,87.658 646.057,87.429 658.676,87.429 L658.676,83.5 L658.676,79.571 L658.672,79.571 L658.672,83.5 L658.672,87.429 Z M658.672,79.571 C653.232,79.571 653.232,87.429 658.672,87.429 L658.676,87.429 C664.116,87.429 664.116,79.571 658.676,79.571 C644.51,79.571 641.115,79.83 636.629,81.914 C632.188,83.979 628.499,87.287 626.043,91.405 C623.865,95.059 623.112,98.885 622.402,107.707 C622.305,108.916 622.229,109.912 622.044,112.41 L621.04,125.944 C620.549,132.609 624.578,138.817 631.013,141.313 C637.449,143.809 644.821,142.023 649.264,136.891 L650.794,135.123 C652.356,133.316 652.755,132.885 653.201,132.519 C654.316,131.606 655.665,130.998 657.107,130.76 C657.686,130.662 658.269,130.644 660.724,130.644 L669.272,130.644 C671.731,130.644 672.311,130.662 672.885,130.758 C674.335,130.998 675.684,131.606 676.799,132.52 C677.244,132.885 677.644,133.316 679.204,135.122 L680.735,136.891 C685.179,142.024 692.553,143.81 698.989,141.312 C705.425,138.815 709.453,132.605 708.959,125.94 L707.951,112.409 C706.951,98.839 706.436,95.571 703.952,91.408 C701.498,87.29 697.809,83.981 693.368,81.915 C688.88,79.83 685.487,79.571 671.328,79.571 L658.672,79.571 Z" />
        </g>
    </g>
</svg>