<?xml version="1.0" encoding="UTF-8"?>
<svg height="600" width="800" xmlns="http://www.w3.org/2000/svg" xmlns:xlink="http://www.w3.org/1999/xlink">
    <g id="Notes" font-family="LucidaGrande, 'Lucida Grande', sans-serif" font-size="13">
        <rect fill="white" height="600.0" width="800.0" x="0.0" y="0.0" />
        <g font-size="13">
            <text x="18.0" y="176.0">Small</text>
            <text x="18.0" y="376.0">Medium</text>
            <text x="18.0" y="576.0">Large</text>
        </g>
        <g font-size="9">
            <text x="250.0" y="30.0">Ultralight</text>
            <text x="450.0" y="30.0">Regular</text>
            <text x="650.0" y="30.0">Black</text>
            <text id="template-version" fill="#505050" text-anchor="end" x="785.0" y="575.0">Template v.3.0</text>
            <a href="https://github.com/swhitty/SwiftDraw">
                <text fill="#505050" text-anchor="end" x="785.0" y="590.0">https://github.com/swhitty/SwiftDraw</text>
            </a>
        </g>
    </g>
    <g id="Guides" stroke="rgb(39, 170, 225)" stroke-width="0.5">
        <path id="Capline-S" d="M18,76 l800,0" />
        <path id="H-reference" d="M85,145.755 L87.685,145.755 L113.369,79.287 L114.052,79.287 L114.052,76 L112.148,76 L85,145.755 Z M95.693,121.536 L130.996,121.536 L130.263,119.313 L96.474,119.313 L95.693,121.536 Z M139.15,145.755 L141.787,145.755 L114.638,76 L113.466,76 L113.466,79.287 L139.15,145.755 Z" stroke="none" transform="translate(0,200)" />
        <path id="Baseline-S" d="M18,146 l800,0" />
        <path id="left-margin-Ultralight-M" d="M221,256 l0,110" />
        <path id="right-margin-Ultralight-M" d="M309,256 l0,110" />
        <path id="left-margin-Regular-M" d="M421,256 l0,110" />
        <path id="right-margin-Regular-M" d="M509,256 l0,110" />
        <path id="left-margin-Black-M" d="M621,256 l0,110" />
        <path id="right-margin-Black-M" d="M709,256 l0,110" />
        <path id="Capline-M" d="M18,276 l800,0" />
        <path id="Baseline-M" d="M18,346 l800,0" />
        <path id="Capline-L" d="M18,476 l800,0" />
        <path id="Baseline-L" d="M18,546 l800,0" />
    </g>
    <g id="Symbols">
        <g id="Ultralight-M" transform="translate(0,200)">
            <path d="M254.524,117.286 L254.524,121.476 C254.524,122.633 255.462,123.571 256.619,123.571 C257.776,123.571 258.714,122.633 258.714,121.476 L258.714,117.286 C258.714,116.129 257.776,115.19 256.619,115.19 C255.462,115.19 254.524,116.129 254.524,117.286 Z M262.905,108.905 L262.905,121.476 C262.905,122.633 263.843,123.571 265,123.571 C266.157,123.571 267.095,122.633 267.095,121.476 L267.095,108.905 C267.095,107.748 266.157,106.81 265,106.81 C263.843,106.81 262.905,107.748 262.905,108.905 Z M271.286,100.524 L271.286,121.476 C271.286,122.633 272.224,123.571 273.381,123.571 C274.538,123.571 275.476,122.633 275.476,121.476 L275.476,100.524 C275.476,99.367 274.538,98.429 273.381,98.429 C272.224,98.429 271.286,99.367 271.286,100.524 Z M283.857,111 C283.857,121.415 275.415,129.857 265,129.857 C254.585,129.857 246.143,121.415 246.143,111 C246.143,100.585 254.585,92.143 265,92.143 C275.415,92.143 283.857,100.585 283.857,111 Z M288.048,111 C288.048,98.271 277.729,87.952 265,87.952 C252.271,87.952 241.952,98.271 241.952,111 C241.952,123.729 252.271,134.048 265,134.048 C277.729,134.048 288.048,123.729 288.048,111 Z" />
        </g>
        <g id="Regular-M" transform="translate(0,200)">
            <path d="M454.524,117.286 L454.524,121.476 C454.524,122.633 455.462,123.571 456.619,123.571 C457.776,123.571 458.714,122.633 458.714,121.476 L458.714,117.286 C458.714,116.129 457.776,115.19 456.619,115.19 C455.462,115.19 454.524,116.129 454.524,117.286 Z M462.905,108.905 L462.905,121.476 C462.905,122.633 463.843,123.571 465,123.571 C466.157,123.571 467.095,122.633 467.095,121.476 L467.095,108.905 C467.095,107.748 466.157,106.81 465,106.81 C463.843,106.81 462.905,107.748 462.905,108.905 Z M471.286,100.524 L471.286,121.476 C471.286,122.633 472.224,123.571 473.381,123.571 C474.538,123.571 475.476,122.633 475.476,121.476 L475.476,100.524 C475.476,99.367 474.538,98.429 473.381,98.429 C472.224,98.429 471.286,99.367 471.286,100.524 Z M483.857,111 C483.857,121.415 475.415,129.857 465,129.857 C454.585,129.857 446.143,121.415 446.143,111 C446.143,100.585 454.585,92.143 465,92.143 C475.415,92.143 483.857,100.585 483.857,111 Z M488.048,111 C488.048,98.271 477.729,87.952 465,87.952 C452.271,87.952 441.952,98.271 441.952,111 C441.952,123.729 452.271,134.048 465,134.048 C477.729,134.048 488.048,123.729 488.048,111 Z" />
        </g>
        <g id="Black-M" transform="translate(0,200)">
            <path d="M654.524,117.286 L654.524,121.476 C654.524,122.633 655.462,123.571 656.619,123.571 C657.776,123.571 658.714,122.633 658.714,121.476 L658.714,117.286 C658.714,116.129 657.776,115.19 656.619,115.19 C655.462,115.19 654.524,116.129 654.524,117.286 Z M662.905,108.905 L662.905,121.476 C662.905,122.633 663.843,123.571 665,123.571 C666.157,123.571 667.095,122.633 667.095,121.476 L667.095,108.905 C667.095,107.748 666.157,106.81 665,106.81 C663.843,106.81 662.905,107.748 662.905,108.905 Z M671.286,100.524 L671.286,121.476 C671.286,122.633 672.224,123.571 673.381,123.571 C674.538,123.571 675.476,122.633 675.476,121.476 L675.476,100.524 C675.476,99.367 674.538,98.429 673.381,98.429 C672.224,98.429 671.286,99.367 671.286,100.524 Z M683.857,111 C683.857,121.415 675.415,129.857 665,129.857 C654.585,129.857 646.143,121.415 646.143,111 C646.143,100.585 654.585,92.143 665,92.143 C675.415,92.143 683.857,100.585 683.857,111 Z M688.048,111 C688.048,98.271 677.729,87.952 665,87.952 C652.271,87.952 641.952,98.271 641.952,111 C641.952,123.729 652.271,134.048 665,134.048 C677.729,134.048 688.048,123.729 688.048,111 Z" />
        </g>
    </g>
</svg>