<?xml version="1.0" encoding="UTF-8"?>
<svg height="600" width="800" xmlns="http://www.w3.org/2000/svg" xmlns:xlink="http://www.w3.org/1999/xlink">
    <g id="Notes" font-family="LucidaGrande, 'Lucida Grande', sans-serif" font-size="13">
        <rect fill="white" height="600.0" width="800.0" x="0.0" y="0.0" />
        <g font-size="13">
            <text x="18.0" y="176.0">Small</text>
            <text x="18.0" y="376.0">Medium</text>
            <text x="18.0" y="576.0">Large</text>
        </g>
        <g font-size="9">
            <text x="250.0" y="30.0">Ultralight</text>
            <text x="450.0" y="30.0">Regular</text>
            <text x="650.0" y="30.0">Black</text>
            <text id="template-version" fill="#505050" text-anchor="end" x="785.0" y="575.0">Template v.3.0</text>
            <a href="https://github.com/swhitty/SwiftDraw">
                <text fill="#505050" text-anchor="end" x="785.0" y="590.0">https://github.com/swhitty/SwiftDraw</text>
            </a>
        </g>
    </g>
    <g id="Guides" stroke="rgb(39, 170, 225)" stroke-width="0.5">
        <path id="Capline-S" d="M18,76 l800,0" />
        <path id="H-reference" d="M85,145.755 L87.685,145.755 L113.369,79.287 L114.052,79.287 L114.052,76 L112.148,76 L85,145.755 Z M95.693,121.536 L130.996,121.536 L130.263,119.313 L96.474,119.313 L95.693,121.536 Z M139.15,145.755 L141.787,145.755 L114.638,76 L113.466,76 L113.466,79.287 L139.15,145.755 Z" stroke="none" transform="translate(0,200)" />
        <path id="Baseline-S" d="M18,146 l800,0" />
        <path id="left-margin-Ultralight-M" d="M221,256 l0,110" />
        <path id="right-margin-Ultralight-M" d="M309,256 l0,110" />
        <path id="left-margin-Regular-M" d="M421,256 l0,110" />
        <path id="right-margin-Regular-M" d="M509,256 l0,110" />
        <path id="left-margin-Black-M" d="M621,256 l0,110" />
        <path id="right-margin-Black-M" d="M709,256 l0,110" />
        <path id="Capline-M" d="M18,276 l800,0" />
        <path id="Baseline-M" d="M18,346 l800,0" />
        <path id="Capline-L" d="M18,476 l800,0" />
        <path id="Baseline-L" d="M18,546 l800,0" />
    </g>
    <g id="Symbols">
        <g id="Ultralight-M" transform="translate(0,200)">
            <path d="M262.675,102.43 C263.12,101.167 264.411,100.409 265.731,100.636 C267.051,100.862 268.015,102.007 268.014,103.346 C268.014,103.9 267.517,104.563 266.52,105.227 C265.782,105.718 265.018,106.057 264.569,106.207 C263.416,106.59 262.793,107.836 263.177,108.989 C263.56,110.142 264.806,110.765 265.959,110.381 C266.747,110.119 267.84,109.634 268.958,108.889 C271.055,107.493 272.414,105.682 272.414,103.348 C272.417,99.867 269.909,96.888 266.475,96.299 C263.042,95.71 259.684,97.681 258.525,100.967 C258.121,102.113 258.723,103.369 259.868,103.773 C261.014,104.177 262.271,103.576 262.675,102.43 Z M265.33,117.094 L265.352,117.094 C266.567,117.094 267.552,116.109 267.552,114.894 C267.552,113.679 266.567,112.694 265.352,112.694 L265.33,112.694 C264.115,112.694 263.13,113.679 263.13,114.894 C263.13,116.109 264.115,117.094 265.33,117.094 Z M251.8,123.694 L251.8,128.831 C251.8,131.085 251.829,131.401 252.527,132.27 C253.148,133.048 254.095,133.505 255.097,133.506 C256.213,133.506 256.47,133.336 258.235,131.924 L263.481,127.726 C264.681,126.765 264.979,126.546 265.315,126.373 C265.664,126.197 266.044,126.063 266.435,125.982 C266.798,125.908 267.16,125.894 268.705,125.894 L274.24,125.894 C279.302,125.894 280.505,125.796 282.195,124.935 C283.851,124.091 285.197,122.745 286.041,121.089 C286.902,119.399 287,118.196 287,113.134 L287,101.254 C287,96.192 286.902,94.989 286.041,93.299 C285.197,91.643 283.851,90.297 282.195,89.453 C280.505,88.592 279.302,88.494 274.24,88.494 L255.76,88.494 C250.698,88.494 249.495,88.592 247.805,89.453 C246.149,90.297 244.803,91.643 243.959,93.299 C243.098,94.989 243,96.192 243,101.254 L243,114.894 C243,117.696 243.03,118.366 243.299,119.371 C244.115,122.41 246.488,124.78 249.524,125.593 C250.525,125.863 251.194,125.894 254,125.894 L254,123.694 L251.8,123.694 Z M256.2,123.694 C256.2,122.479 255.215,121.494 254,121.494 C251.691,121.494 251.127,121.468 250.667,121.344 C249.143,120.936 247.957,119.751 247.549,118.233 C247.426,117.77 247.4,117.207 247.4,114.894 L247.4,101.254 C247.4,97.076 247.482,96.078 247.88,95.296 C248.301,94.469 248.975,93.795 249.802,93.374 C250.584,92.976 251.582,92.894 255.76,92.894 L274.24,92.894 C278.418,92.894 279.416,92.976 280.198,93.374 C281.025,93.795 281.699,94.469 282.12,95.296 C282.518,96.078 282.6,97.076 282.6,101.254 L282.6,113.134 C282.6,117.312 282.518,118.31 282.12,119.092 C281.699,119.919 281.025,120.593 280.198,121.014 C279.416,121.412 278.418,121.494 274.24,121.494 L268.705,121.494 C266.816,121.494 266.329,121.513 265.548,121.673 C264.769,121.834 264.022,122.096 263.318,122.453 C262.598,122.822 262.198,123.117 260.732,124.291 L255.486,128.488 C254.915,128.945 254.723,129.093 254.568,129.196 C254.608,129.169 254.762,129.106 255.1,129.106 C255.437,129.106 255.753,129.259 255.961,129.52 C256.17,129.779 256.217,129.939 256.221,129.988 C256.204,129.802 256.2,129.556 256.2,128.831 L256.2,123.694 Z" />
        </g>
        <g id="Regular-M" transform="translate(0,200)">
            <path d="M462.675,102.43 C463.12,101.167 464.411,100.409 465.731,100.636 C467.051,100.862 468.015,102.007 468.014,103.346 C468.014,103.9 467.517,104.563 466.52,105.227 C465.782,105.718 465.018,106.057 464.569,106.207 C463.416,106.59 462.793,107.836 463.177,108.989 C463.56,110.142 464.806,110.765 465.959,110.381 C466.747,110.119 467.84,109.634 468.958,108.889 C471.055,107.493 472.414,105.682 472.414,103.348 C472.417,99.867 469.909,96.888 466.475,96.299 C463.042,95.71 459.684,97.681 458.525,100.967 C458.121,102.113 458.723,103.369 459.868,103.773 C461.014,104.177 462.271,103.576 462.675,102.43 Z M465.33,117.094 L465.352,117.094 C466.567,117.094 467.552,116.109 467.552,114.894 C467.552,113.679 466.567,112.694 465.352,112.694 L465.33,112.694 C464.115,112.694 463.13,113.679 463.13,114.894 C463.13,116.109 464.115,117.094 465.33,117.094 Z M451.8,123.694 L451.8,128.831 C451.8,131.085 451.829,131.401 452.527,132.27 C453.148,133.048 454.095,133.505 455.097,133.506 C456.213,133.506 456.47,133.336 458.235,131.924 L463.481,127.726 C464.681,126.765 464.979,126.546 465.315,126.373 C465.664,126.197 466.044,126.063 466.435,125.982 C466.798,125.908 467.16,125.894 468.705,125.894 L474.24,125.894 C479.302,125.894 480.505,125.796 482.195,124.935 C483.851,124.091 485.197,122.745 486.041,121.089 C486.902,119.399 487,118.196 487,113.134 L487,101.254 C487,96.192 486.902,94.989 486.041,93.299 C485.197,91.643 483.851,90.297 482.195,89.453 C480.505,88.592 479.302,88.494 474.24,88.494 L455.76,88.494 C450.698,88.494 449.495,88.592 447.805,89.453 C446.149,90.297 444.803,91.643 443.959,93.299 C443.098,94.989 443,96.192 443,101.254 L443,114.894 C443,117.696 443.03,118.366 443.299,119.371 C444.115,122.41 446.488,124.78 449.524,125.593 C450.525,125.863 451.194,125.894 454,125.894 L454,123.694 L451.8,123.694 Z M456.2,123.694 C456.2,122.479 455.215,121.494 454,121.494 C451.691,121.494 451.127,121.468 450.667,121.344 C449.143,120.936 447.957,119.751 447.549,118.233 C447.426,117.77 447.4,117.207 447.4,114.894 L447.4,101.254 C447.4,97.076 447.482,96.078 447.88,95.296 C448.301,94.469 448.975,93.795 449.802,93.374 C450.584,92.976 451.582,92.894 455.76,92.894 L474.24,92.894 C478.418,92.894 479.416,92.976 480.198,93.374 C481.025,93.795 481.699,94.469 482.12,95.296 C482.518,96.078 482.6,97.076 482.6,101.254 L482.6,113.134 C482.6,117.312 482.518,118.31 482.12,119.092 C481.699,119.919 481.025,120.593 480.198,121.014 C479.416,121.412 478.418,121.494 474.24,121.494 L468.705,121.494 C466.816,121.494 466.329,121.513 465.548,121.673 C464.769,121.834 464.022,122.096 463.318,122.453 C462.598,122.822 462.198,123.117 460.732,124.291 L455.486,128.488 C454.915,128.945 454.723,129.093 454.568,129.196 C454.608,129.169 454.762,129.106 455.1,129.106 C455.437,129.106 455.753,129.259 455.961,129.52 C456.17,129.779 456.217,129.939 456.221,129.988 C456.204,129.802 456.2,129.556 456.2,128.831 L456.2,123.694 Z" />
        </g>
        <g id="Black-M" transform="translate(0,200)">
            <path d="M662.675,102.43 C663.12,101.167 664.411,100.409 665.731,100.636 C667.051,100.862 668.015,102.007 668.014,103.346 C668.014,103.9 667.517,104.563 666.519,105.227 C665.781,105.718 665.018,106.057 664.569,106.207 C663.416,106.59 662.793,107.836 663.177,108.989 C663.56,110.142 664.806,110.765 665.959,110.381 C666.747,110.119 667.84,109.634 668.958,108.889 C671.055,107.493 672.414,105.682 672.414,103.348 C672.417,99.867 669.909,96.888 666.475,96.299 C663.042,95.71 659.684,97.681 658.525,100.967 C658.121,102.113 658.722,103.369 659.868,103.773 C661.014,104.177 662.271,103.576 662.675,102.43 Z M665.33,117.094 L665.352,117.094 C666.567,117.094 667.552,116.109 667.552,114.894 C667.552,113.679 666.567,112.694 665.352,112.694 L665.33,112.694 C664.115,112.694 663.13,113.679 663.13,114.894 C663.13,116.109 664.115,117.094 665.33,117.094 Z M651.8,123.694 L651.8,128.831 C651.8,131.085 651.829,131.401 652.526,132.27 C653.148,133.048 654.095,133.505 655.097,133.506 C656.213,133.506 656.47,133.336 658.235,131.924 L663.481,127.726 C664.681,126.765 664.979,126.546 665.315,126.373 C665.664,126.197 666.044,126.063 666.435,125.982 C666.798,125.908 667.16,125.894 668.705,125.894 L674.24,125.894 C679.302,125.894 680.505,125.796 682.195,124.935 C683.851,124.091 685.197,122.745 686.041,121.089 C686.902,119.399 687,118.196 687,113.134 L687,101.254 C687,96.192 686.902,94.989 686.041,93.299 C685.197,91.643 683.851,90.297 682.195,89.453 C680.505,88.592 679.302,88.494 674.24,88.494 L655.76,88.494 C650.698,88.494 649.495,88.592 647.805,89.453 C646.149,90.297 644.803,91.643 643.959,93.299 C643.098,94.989 643,96.192 643,101.254 L643,114.894 C643,117.696 643.03,118.366 643.299,119.371 C644.115,122.41 646.488,124.78 649.524,125.593 C650.525,125.863 651.194,125.894 654,125.894 L654,123.694 L651.8,123.694 Z M656.2,123.694 C656.2,122.479 655.215,121.494 654,121.494 C651.691,121.494 651.127,121.468 650.667,121.344 C649.143,120.936 647.957,119.751 647.549,118.233 C647.426,117.77 647.4,117.207 647.4,114.894 L647.4,101.254 C647.4,97.076 647.482,96.078 647.88,95.296 C648.301,94.469 648.974,93.795 649.802,93.374 C650.584,92.976 651.582,92.894 655.76,92.894 L674.24,92.894 C678.418,92.894 679.416,92.976 680.198,93.374 C681.025,93.795 681.699,94.469 682.12,95.296 C682.518,96.078 682.6,97.076 682.6,101.254 L682.6,113.134 C682.6,117.312 682.518,118.31 682.12,119.092 C681.699,119.919 681.025,120.593 680.198,121.014 C679.416,121.412 678.418,121.494 674.24,121.494 L668.705,121.494 C666.816,121.494 666.329,121.513 665.548,121.673 C664.769,121.834 664.022,122.096 663.318,122.453 C662.598,122.822 662.198,123.117 660.732,124.291 L655.486,128.488 C654.915,128.945 654.723,129.093 654.568,129.196 C654.608,129.169 654.762,129.106 655.1,129.106 C655.437,129.106 655.753,129.259 655.961,129.52 C656.17,129.779 656.217,129.939 656.221,129.988 C656.204,129.802 656.2,129.556 656.2,128.831 L656.2,123.694 Z" />
        </g>
    </g>
</svg>