<?xml version="1.0" encoding="UTF-8"?>
<svg height="600" width="800" xmlns="http://www.w3.org/2000/svg" xmlns:xlink="http://www.w3.org/1999/xlink">
    <g id="Notes" font-family="LucidaGrande, 'Lucida Grande', sans-serif" font-size="13">
        <rect fill="white" height="600.0" width="800.0" x="0.0" y="0.0" />
        <g font-size="13">
            <text x="18.0" y="176.0">Small</text>
            <text x="18.0" y="376.0">Medium</text>
            <text x="18.0" y="576.0">Large</text>
        </g>
        <g font-size="9">
            <text x="250.0" y="30.0">Ultralight</text>
            <text x="450.0" y="30.0">Regular</text>
            <text x="650.0" y="30.0">Black</text>
            <text id="template-version" fill="#505050" text-anchor="end" x="785.0" y="575.0">Template v.3.0</text>
            <a href="https://github.com/swhitty/SwiftDraw">
                <text fill="#505050" text-anchor="end" x="785.0" y="590.0">https://github.com/swhitty/SwiftDraw</text>
            </a>
        </g>
    </g>
    <g id="Guides" stroke="rgb(39, 170, 225)" stroke-width="0.5">
        <path id="Capline-S" d="M18,76 l800,0" />
        <path id="H-reference" d="M85,145.755 L87.685,145.755 L113.369,79.287 L114.052,79.287 L114.052,76 L112.148,76 L85,145.755 Z M95.693,121.536 L130.996,121.536 L130.263,119.313 L96.474,119.313 L95.693,121.536 Z M139.15,145.755 L141.787,145.755 L114.638,76 L113.466,76 L113.466,79.287 L139.15,145.755 Z" stroke="none" transform="translate(0,200)" />
        <path id="Baseline-S" d="M18,146 l800,0" />
        <path id="left-margin-Ultralight-M" d="M230,256 l0,110" />
        <path id="right-margin-Ultralight-M" d="M300,256 l0,110" />
        <path id="left-margin-Regular-M" d="M430,256 l0,110" />
        <path id="right-margin-Regular-M" d="M500,256 l0,110" />
        <path id="left-margin-Black-M" d="M630,256 l0,110" />
        <path id="right-margin-Black-M" d="M700,256 l0,110" />
        <path id="Capline-M" d="M18,276 l800,0" />
        <path id="Baseline-M" d="M18,346 l800,0" />
        <path id="Capline-L" d="M18,476 l800,0" />
        <path id="Baseline-L" d="M18,546 l800,0" />
    </g>
    <g id="Symbols">
        <g id="Ultralight-M" transform="translate(0,200)">
            <path d="M261.917,100.309 C262.508,98.635 264.219,97.63 265.969,97.93 C267.719,98.23 268.997,99.748 268.996,101.524 C268.996,102.258 268.337,103.136 267.014,104.017 C266.036,104.669 265.024,105.118 264.429,105.316 C262.9,105.825 262.074,107.476 262.583,109.005 C263.091,110.533 264.743,111.359 266.271,110.851 C267.316,110.503 268.765,109.859 270.248,108.872 C273.027,107.021 274.829,104.621 274.829,101.527 C274.833,96.911 271.508,92.962 266.956,92.181 C262.404,91.4 257.952,94.014 256.416,98.369 C255.88,99.888 256.678,101.554 258.197,102.09 C259.716,102.626 261.382,101.828 261.917,100.309 Z M265.438,119.75 L265.467,119.75 C267.077,119.75 268.383,118.444 268.383,116.833 C268.383,115.223 267.077,113.917 265.467,113.917 L265.438,113.917 C263.827,113.917 262.521,115.223 262.521,116.833 C262.521,118.444 263.827,119.75 265.438,119.75 Z M247.5,128.5 L247.5,135.31 C247.5,138.299 247.538,138.717 248.463,139.869 C249.287,140.901 250.543,141.506 251.871,141.508 C253.351,141.508 253.691,141.283 256.031,139.41 L262.987,133.846 C264.578,132.572 264.973,132.28 265.418,132.052 C265.881,131.818 266.384,131.641 266.902,131.534 C267.383,131.436 267.863,131.417 269.912,131.417 L277.25,131.417 C283.961,131.417 285.556,131.286 287.796,130.145 C289.992,129.026 291.776,127.242 292.895,125.047 C294.036,122.806 294.167,121.211 294.167,114.5 L294.167,98.75 C294.167,92.039 294.036,90.444 292.895,88.204 C291.776,86.008 289.992,84.224 287.797,83.105 C285.556,81.964 283.961,81.833 277.25,81.833 L252.75,81.833 C246.039,81.833 244.444,81.964 242.204,83.105 C240.008,84.224 238.224,86.008 237.105,88.203 C235.964,90.444 235.833,92.039 235.833,98.75 L235.833,116.833 C235.833,120.549 235.874,121.436 236.23,122.769 C237.311,126.797 240.457,129.94 244.483,131.017 C245.81,131.376 246.697,131.417 250.417,131.417 L250.417,128.5 L247.5,128.5 Z M253.333,128.5 C253.333,126.889 252.027,125.583 250.417,125.583 C247.355,125.583 246.608,125.549 245.998,125.384 C243.978,124.843 242.405,123.272 241.864,121.26 C241.701,120.647 241.667,119.899 241.667,116.833 L241.667,98.75 C241.667,93.211 241.775,91.888 242.303,90.851 C242.862,89.754 243.754,88.862 244.852,88.303 C245.888,87.775 247.211,87.667 252.75,87.667 L277.25,87.667 C282.789,87.667 284.112,87.775 285.149,88.303 C286.246,88.862 287.138,89.754 287.698,90.852 C288.225,91.888 288.333,93.211 288.333,98.75 L288.333,114.5 C288.333,120.039 288.225,121.362 287.697,122.399 C287.138,123.496 286.246,124.388 285.148,124.947 C284.112,125.475 282.789,125.583 277.25,125.583 L269.912,125.583 C267.407,125.583 266.763,125.609 265.727,125.82 C264.694,126.034 263.704,126.382 262.77,126.854 C261.816,127.344 261.286,127.735 259.341,129.292 L252.386,134.856 C251.63,135.462 251.376,135.658 251.17,135.794 C251.223,135.759 251.427,135.675 251.875,135.675 C252.322,135.676 252.74,135.877 253.017,136.223 C253.293,136.567 253.355,136.78 253.361,136.845 C253.339,136.598 253.333,136.271 253.333,135.31 L253.333,128.5 Z" />
        </g>
        <g id="Regular-M" transform="translate(0,200)">
            <path d="M461.917,100.309 C462.508,98.635 464.219,97.63 465.969,97.93 C467.719,98.23 468.997,99.748 468.996,101.524 C468.996,102.258 468.337,103.136 467.014,104.017 C466.036,104.669 465.024,105.118 464.429,105.316 C462.9,105.825 462.074,107.476 462.583,109.005 C463.091,110.533 464.743,111.359 466.271,110.851 C467.316,110.503 468.765,109.859 470.248,108.872 C473.027,107.021 474.829,104.621 474.829,101.527 C474.833,96.911 471.508,92.962 466.956,92.181 C462.404,91.4 457.952,94.014 456.416,98.369 C455.88,99.888 456.678,101.554 458.197,102.09 C459.716,102.626 461.382,101.828 461.917,100.309 Z M465.438,119.75 L465.467,119.75 C467.077,119.75 468.383,118.444 468.383,116.833 C468.383,115.223 467.077,113.917 465.467,113.917 L465.438,113.917 C463.827,113.917 462.521,115.223 462.521,116.833 C462.521,118.444 463.827,119.75 465.438,119.75 Z M447.5,128.5 L447.5,135.31 C447.5,138.299 447.538,138.717 448.463,139.869 C449.287,140.901 450.543,141.506 451.871,141.508 C453.351,141.508 453.691,141.283 456.031,139.41 L462.987,133.846 C464.578,132.572 464.973,132.28 465.418,132.052 C465.881,131.818 466.384,131.641 466.902,131.534 C467.383,131.436 467.863,131.417 469.912,131.417 L477.25,131.417 C483.961,131.417 485.556,131.286 487.796,130.145 C489.992,129.026 491.776,127.242 492.895,125.047 C494.036,122.806 494.167,121.211 494.167,114.5 L494.167,98.75 C494.167,92.039 494.036,90.444 492.895,88.204 C491.776,86.008 489.992,84.224 487.797,83.105 C485.556,81.964 483.961,81.833 477.25,81.833 L452.75,81.833 C446.039,81.833 444.444,81.964 442.204,83.105 C440.008,84.224 438.224,86.008 437.105,88.203 C435.964,90.444 435.833,92.039 435.833,98.75 L435.833,116.833 C435.833,120.549 435.874,121.436 436.23,122.769 C437.311,126.797 440.457,129.94 444.483,131.017 C445.81,131.376 446.697,131.417 450.417,131.417 L450.417,128.5 L447.5,128.5 Z M453.333,128.5 C453.333,126.889 452.027,125.583 450.417,125.583 C447.355,125.583 446.608,125.549 445.998,125.384 C443.978,124.843 442.405,123.272 441.864,121.26 C441.701,120.647 441.667,119.899 441.667,116.833 L441.667,98.75 C441.667,93.211 441.775,91.888 442.303,90.851 C442.862,89.754 443.754,88.862 444.852,88.303 C445.888,87.775 447.211,87.667 452.75,87.667 L477.25,87.667 C482.789,87.667 484.112,87.775 485.149,88.303 C486.246,88.862 487.138,89.754 487.698,90.852 C488.225,91.888 488.333,93.211 488.333,98.75 L488.333,114.5 C488.333,120.039 488.225,121.362 487.697,122.399 C487.138,123.496 486.246,124.388 485.148,124.947 C484.112,125.475 482.789,125.583 477.25,125.583 L469.912,125.583 C467.407,125.583 466.763,125.609 465.727,125.82 C464.694,126.034 463.704,126.382 462.77,126.854 C461.816,127.344 461.286,127.735 459.341,129.292 L452.386,134.856 C451.63,135.462 451.376,135.658 451.17,135.794 C451.223,135.759 451.427,135.675 451.875,135.675 C452.322,135.676 452.74,135.877 453.017,136.223 C453.293,136.567 453.355,136.78 453.361,136.845 C453.339,136.598 453.333,136.271 453.333,135.31 L453.333,128.5 Z" />
        </g>
        <g id="Black-M" transform="translate(0,200)">
            <path d="M661.917,100.309 C662.508,98.635 664.219,97.63 665.969,97.93 C667.719,98.23 668.997,99.748 668.996,101.524 C668.996,102.258 668.337,103.136 667.014,104.017 C666.036,104.669 665.024,105.118 664.429,105.316 C662.9,105.825 662.074,107.476 662.583,109.005 C663.091,110.533 664.743,111.359 666.271,110.851 C667.316,110.503 668.765,109.859 670.248,108.872 C673.027,107.021 674.829,104.621 674.829,101.527 C674.833,96.911 671.508,92.962 666.956,92.181 C662.404,91.4 657.952,94.014 656.416,98.369 C655.88,99.888 656.678,101.554 658.197,102.09 C659.716,102.626 661.382,101.828 661.917,100.309 Z M665.438,119.75 L665.467,119.75 C667.078,119.75 668.383,118.444 668.383,116.833 C668.383,115.223 667.078,113.917 665.467,113.917 L665.438,113.917 C663.827,113.917 662.521,115.223 662.521,116.833 C662.521,118.444 663.827,119.75 665.438,119.75 Z M647.5,128.5 L647.5,135.31 C647.5,138.299 647.538,138.717 648.463,139.869 C649.287,140.901 650.543,141.506 651.871,141.508 C653.351,141.508 653.691,141.283 656.031,139.41 L662.987,133.846 C664.578,132.572 664.973,132.28 665.418,132.052 C665.881,131.818 666.384,131.641 666.902,131.534 C667.383,131.436 667.863,131.417 669.912,131.417 L677.25,131.417 C683.961,131.417 685.556,131.286 687.796,130.145 C689.992,129.026 691.776,127.242 692.895,125.047 C694.036,122.806 694.167,121.211 694.167,114.5 L694.167,98.75 C694.167,92.039 694.036,90.444 692.895,88.204 C691.776,86.008 689.992,84.224 687.797,83.105 C685.556,81.964 683.961,81.833 677.25,81.833 L652.75,81.833 C646.039,81.833 644.444,81.964 642.204,83.105 C640.008,84.224 638.224,86.008 637.105,88.203 C635.964,90.444 635.833,92.039 635.833,98.75 L635.833,116.833 C635.833,120.549 635.874,121.436 636.23,122.769 C637.311,126.797 640.457,129.94 644.483,131.017 C645.81,131.376 646.697,131.417 650.417,131.417 L650.417,128.5 L647.5,128.5 Z M653.333,128.5 C653.333,126.889 652.028,125.583 650.417,125.583 C647.355,125.583 646.608,125.549 645.998,125.384 C643.978,124.843 642.405,123.272 641.864,121.26 C641.701,120.647 641.667,119.899 641.667,116.833 L641.667,98.75 C641.667,93.211 641.775,91.888 642.303,90.851 C642.862,89.754 643.754,88.862 644.852,88.303 C645.888,87.775 647.211,87.667 652.75,87.667 L677.25,87.667 C682.789,87.667 684.112,87.775 685.149,88.303 C686.246,88.862 687.138,89.754 687.698,90.852 C688.225,91.888 688.333,93.211 688.333,98.75 L688.333,114.5 C688.333,120.039 688.225,121.362 687.697,122.399 C687.138,123.496 686.246,124.388 685.148,124.947 C684.112,125.475 682.789,125.583 677.25,125.583 L669.912,125.583 C667.407,125.583 666.763,125.609 665.727,125.82 C664.694,126.034 663.703,126.382 662.77,126.854 C661.816,127.344 661.286,127.735 659.341,129.292 L652.386,134.856 C651.63,135.462 651.376,135.658 651.17,135.794 C651.223,135.759 651.427,135.675 651.875,135.675 C652.322,135.676 652.74,135.877 653.017,136.223 C653.293,136.567 653.355,136.78 653.361,136.845 C653.339,136.598 653.333,136.271 653.333,135.31 L653.333,128.5 Z" />
        </g>
    </g>
</svg>