<?xml version="1.0" encoding="UTF-8"?>
<svg height="600" width="800" xmlns="http://www.w3.org/2000/svg" xmlns:xlink="http://www.w3.org/1999/xlink">
    <g id="Notes" font-family="LucidaGrande, 'Lucida Grande', sans-serif" font-size="13">
        <rect fill="white" height="600.0" width="800.0" x="0.0" y="0.0" />
        <g font-size="13">
            <text x="18.0" y="176.0">Small</text>
            <text x="18.0" y="376.0">Medium</text>
            <text x="18.0" y="576.0">Large</text>
        </g>
        <g font-size="9">
            <text x="250.0" y="30.0">Ultralight</text>
            <text x="450.0" y="30.0">Regular</text>
            <text x="650.0" y="30.0">Black</text>
            <text id="template-version" fill="#505050" text-anchor="end" x="785.0" y="575.0">Template v.3.0</text>
            <a href="https://github.com/swhitty/SwiftDraw">
                <text fill="#505050" text-anchor="end" x="785.0" y="590.0">https://github.com/swhitty/SwiftDraw</text>
            </a>
        </g>
    </g>
    <g id="Guides" stroke="rgb(39, 170, 225)" stroke-width="0.5">
        <path id="Capline-S" d="M18,76 l800,0" />
        <path id="H-reference" d="M85,145.755 L87.685,145.755 L113.369,79.287 L114.052,79.287 L114.052,76 L112.148,76 L85,145.755 Z M95.693,121.536 L130.996,121.536 L130.263,119.313 L96.474,119.313 L95.693,121.536 Z M139.15,145.755 L141.787,145.755 L114.638,76 L113.466,76 L113.466,79.287 L139.15,145.755 Z" stroke="none" transform="translate(0,200)" />
        <path id="Baseline-S" d="M18,146 l800,0" />
        <path id="left-margin-Ultralight-M" d="M230,256 l0,110" />
        <path id="right-margin-Ultralight-M" d="M300,256 l0,110" />
        <path id="left-margin-Regular-M" d="M430,256 l0,110" />
        <path id="right-margin-Regular-M" d="M500,256 l0,110" />
        <path id="left-margin-Black-M" d="M630,256 l0,110" />
        <path id="right-margin-Black-M" d="M700,256 l0,110" />
        <path id="Capline-M" d="M18,276 l800,0" />
        <path id="Baseline-M" d="M18,346 l800,0" />
        <path id="Capline-L" d="M18,476 l800,0" />
        <path id="Baseline-L" d="M18,546 l800,0" />
    </g>
    <g id="Symbols">
        <g id="Ultralight-M" transform="translate(0,200)">
            <path d="M273.75,99.333 L273.75,113.917 C273.75,120.36 278.973,125.583 285.417,125.583 C291.86,125.583 297.083,120.36 297.083,113.917 L297.083,111 C297.083,96.092 286.812,83.148 272.293,79.758 C257.774,76.369 242.834,83.429 236.233,96.797 C229.631,110.166 233.11,126.32 244.628,135.787 C256.145,145.254 272.667,145.539 284.505,136.475 C285.784,135.496 286.027,133.665 285.048,132.386 C284.068,131.107 282.238,130.864 280.959,131.844 C271.273,139.26 257.755,139.027 248.332,131.281 C238.908,123.535 236.062,110.318 241.463,99.38 C246.864,88.442 259.088,82.666 270.967,85.439 C282.846,88.212 291.25,98.803 291.25,111 L291.25,113.917 C291.25,117.138 288.638,119.75 285.417,119.75 C282.195,119.75 279.583,117.138 279.583,113.917 L279.583,99.333 C279.583,97.723 278.277,96.417 276.667,96.417 C275.056,96.417 273.75,97.723 273.75,99.333 Z M273.75,111 C273.75,115.832 269.832,119.75 265,119.75 C260.168,119.75 256.25,115.832 256.25,111 C256.25,106.168 260.168,102.25 265,102.25 C269.832,102.25 273.75,106.168 273.75,111 Z M279.583,111 C279.583,102.946 273.054,96.417 265,96.417 C256.946,96.417 250.417,102.946 250.417,111 C250.417,119.054 256.946,125.583 265,125.583 C273.054,125.583 279.583,119.054 279.583,111 Z" />
        </g>
        <g id="Regular-M" transform="translate(0,200)">
            <path d="M473.75,99.333 L473.75,113.917 C473.75,120.36 478.973,125.583 485.417,125.583 C491.86,125.583 497.083,120.36 497.083,113.917 L497.083,111 C497.083,96.092 486.812,83.148 472.293,79.758 C457.774,76.369 442.834,83.429 436.233,96.797 C429.632,110.166 433.11,126.32 444.628,135.787 C456.145,145.254 472.667,145.539 484.505,136.475 C485.784,135.496 486.027,133.665 485.048,132.386 C484.068,131.107 482.238,130.864 480.959,131.844 C471.273,139.26 457.755,139.027 448.332,131.281 C438.908,123.535 436.062,110.318 441.463,99.38 C446.864,88.442 459.088,82.666 470.967,85.439 C482.846,88.212 491.25,98.803 491.25,111 L491.25,113.917 C491.25,117.138 488.638,119.75 485.417,119.75 C482.195,119.75 479.583,117.138 479.583,113.917 L479.583,99.333 C479.583,97.723 478.277,96.417 476.667,96.417 C475.056,96.417 473.75,97.723 473.75,99.333 Z M473.75,111 C473.75,115.832 469.832,119.75 465,119.75 C460.168,119.75 456.25,115.832 456.25,111 C456.25,106.168 460.168,102.25 465,102.25 C469.832,102.25 473.75,106.168 473.75,111 Z M479.583,111 C479.583,102.946 473.054,96.417 465,96.417 C456.946,96.417 450.417,102.946 450.417,111 C450.417,119.054 456.946,125.583 465,125.583 C473.054,125.583 479.583,119.054 479.583,111 Z" />
        </g>
        <g id="Black-M" transform="translate(0,200)">
            <path d="M673.75,99.333 L673.75,113.917 C673.75,120.36 678.973,125.583 685.417,125.583 C691.86,125.583 697.083,120.36 697.083,113.917 L697.083,111 C697.083,96.092 686.812,83.148 672.293,79.758 C657.774,76.369 642.834,83.429 636.233,96.797 C629.631,110.166 633.11,126.32 644.628,135.787 C656.145,145.254 672.667,145.539 684.505,136.475 C685.784,135.496 686.027,133.665 685.048,132.386 C684.068,131.107 682.238,130.864 680.959,131.844 C671.273,139.26 657.755,139.027 648.332,131.281 C638.908,123.535 636.062,110.318 641.463,99.38 C646.864,88.442 659.088,82.666 670.967,85.439 C682.846,88.212 691.25,98.803 691.25,111 L691.25,113.917 C691.25,117.138 688.638,119.75 685.417,119.75 C682.195,119.75 679.583,117.138 679.583,113.917 L679.583,99.333 C679.583,97.723 678.277,96.417 676.667,96.417 C675.056,96.417 673.75,97.723 673.75,99.333 Z M673.75,111 C673.75,115.832 669.833,119.75 665,119.75 C660.167,119.75 656.25,115.832 656.25,111 C656.25,106.168 660.167,102.25 665,102.25 C669.833,102.25 673.75,106.168 673.75,111 Z M679.583,111 C679.583,102.946 673.054,96.417 665,96.417 C656.946,96.417 650.417,102.946 650.417,111 C650.417,119.054 656.946,125.583 665,125.583 C673.054,125.583 679.583,119.054 679.583,111 Z" />
        </g>
    </g>
</svg>