<?xml version="1.0" encoding="UTF-8"?>
<svg height="600" width="800" xmlns="http://www.w3.org/2000/svg" xmlns:xlink="http://www.w3.org/1999/xlink">
    <g id="Notes" font-family="LucidaGrande, 'Lucida Grande', sans-serif" font-size="13">
        <rect fill="white" height="600.0" width="800.0" x="0.0" y="0.0" />
        <g font-size="13">
            <text x="18.0" y="176.0">Small</text>
            <text x="18.0" y="376.0">Medium</text>
            <text x="18.0" y="576.0">Large</text>
        </g>
        <g font-size="9">
            <text x="250.0" y="30.0">Ultralight</text>
            <text x="450.0" y="30.0">Regular</text>
            <text x="650.0" y="30.0">Black</text>
            <text id="template-version" fill="#505050" text-anchor="end" x="785.0" y="575.0">Template v.3.0</text>
            <a href="https://github.com/swhitty/SwiftDraw">
                <text fill="#505050" text-anchor="end" x="785.0" y="590.0">https://github.com/swhitty/SwiftDraw</text>
            </a>
        </g>
    </g>
    <g id="Guides" stroke="rgb(39, 170, 225)" stroke-width="0.5">
        <path id="Capline-S" d="M18,76 l800,0" />
        <path id="H-reference" d="M85,145.755 L87.685,145.755 L113.369,79.287 L114.052,79.287 L114.052,76 L112.148,76 L85,145.755 Z M95.693,121.536 L130.996,121.536 L130.263,119.313 L96.474,119.313 L95.693,121.536 Z M139.15,145.755 L141.787,145.755 L114.638,76 L113.466,76 L113.466,79.287 L139.15,145.755 Z" stroke="none" transform="translate(0,200)" />
        <path id="Baseline-S" d="M18,146 l800,0" />
        <path id="left-margin-Ultralight-M" d="M230,256 l0,110" />
        <path id="right-margin-Ultralight-M" d="M300,256 l0,110" />
        <path id="left-margin-Regular-M" d="M430,256 l0,110" />
        <path id="right-margin-Regular-M" d="M500,256 l0,110" />
        <path id="left-margin-Black-M" d="M630,256 l0,110" />
        <path id="right-margin-Black-M" d="M700,256 l0,110" />
        <path id="Capline-M" d="M18,276 l800,0" />
        <path id="Baseline-M" d="M18,346 l800,0" />
        <path id="Capline-L" d="M18,476 l800,0" />
        <path id="Baseline-L" d="M18,546 l800,0" />
    </g>
    <g id="Symbols">
        <g id="Ultralight-M" transform="translate(0,200)">
            <path d="M291.416,122.13 C286.401,133.993 274.091,141.053 261.322,139.389 C248.554,137.725 238.463,127.746 236.654,114.994 C234.844,102.242 241.761,89.849 253.563,84.697 C255.175,83.994 255.911,82.117 255.208,80.505 C254.505,78.892 252.628,78.156 251.016,78.859 C236.592,85.156 228.138,100.303 230.349,115.889 C232.56,131.475 244.894,143.671 260.5,145.705 C276.106,147.739 291.151,139.11 297.281,124.611 C297.966,122.991 297.208,121.122 295.588,120.437 C293.969,119.752 292.101,120.51 291.416,122.13 Z M291.502,100.012 C292.646,102.778 293.35,105.706 293.588,108.69 C293.624,109.132 293.633,109.285 293.632,109.352 C293.635,109.213 293.675,108.992 293.787,108.739 C293.936,108.413 294.158,108.172 294.437,108.015 C294.735,107.852 294.948,107.797 295.073,107.786 C294.982,107.794 294.814,107.797 294.316,107.797 L267.572,107.797 C267.063,107.797 266.89,107.794 266.788,107.786 C266.896,107.795 267.092,107.841 267.35,107.974 C267.641,108.123 267.884,108.366 268.036,108.664 C268.165,108.915 268.211,109.111 268.22,109.218 C268.212,109.116 268.209,108.944 268.209,108.434 L268.209,81.683 C268.209,81.186 268.212,81.019 268.22,80.928 C268.209,81.05 268.155,81.259 268.017,81.516 C267.835,81.841 267.594,82.063 267.303,82.196 C266.998,82.329 266.785,82.367 266.655,82.369 C266.727,82.368 266.877,82.377 267.321,82.412 C278.041,83.271 287.381,90.069 291.499,100.013 C291.992,101.203 293.153,101.979 294.441,101.979 L294.444,101.979 L294.444,98.794 L291.502,100.012 Z M297.386,97.576 C296.893,96.386 295.732,95.609 294.444,95.609 L294.441,95.609 L294.441,98.794 L297.382,97.575 C292.349,85.422 280.933,77.113 267.823,76.062 C266.191,75.935 265.714,75.942 264.708,76.38 C263.718,76.833 262.944,77.545 262.441,78.44 C261.882,79.473 261.841,79.928 261.841,81.683 L261.841,108.434 C261.841,110.193 261.876,110.609 262.369,111.568 C262.822,112.457 263.551,113.186 264.447,113.643 C265.398,114.132 265.814,114.167 267.572,114.167 L294.316,114.167 C296.082,114.167 296.533,114.126 297.522,113.587 C298.453,113.063 299.165,112.289 299.593,111.356 C300.06,110.302 300.068,109.806 299.935,108.178 C299.645,104.537 298.784,100.957 297.386,97.576 Z" />
        </g>
        <g id="Regular-M" transform="translate(0,200)">
            <path d="M491.416,122.13 C486.401,133.993 474.091,141.053 461.322,139.389 C448.554,137.725 438.463,127.746 436.654,114.994 C434.844,102.242 441.761,89.849 453.563,84.697 C455.175,83.994 455.911,82.117 455.208,80.505 C454.505,78.892 452.628,78.156 451.016,78.859 C436.592,85.156 428.138,100.303 430.349,115.889 C432.56,131.475 444.894,143.671 460.5,145.705 C476.106,147.739 491.151,139.11 497.281,124.611 C497.966,122.991 497.208,121.122 495.588,120.437 C493.969,119.752 492.101,120.51 491.416,122.13 Z M491.502,100.012 C492.646,102.778 493.35,105.706 493.588,108.69 C493.624,109.132 493.633,109.285 493.632,109.352 C493.635,109.213 493.675,108.992 493.787,108.739 C493.936,108.413 494.158,108.172 494.437,108.015 C494.735,107.852 494.948,107.797 495.073,107.786 C494.982,107.794 494.814,107.797 494.316,107.797 L467.572,107.797 C467.063,107.797 466.89,107.794 466.788,107.786 C466.896,107.795 467.092,107.841 467.35,107.974 C467.641,108.123 467.884,108.366 468.036,108.664 C468.165,108.915 468.211,109.111 468.22,109.218 C468.212,109.116 468.209,108.944 468.209,108.434 L468.209,81.683 C468.209,81.186 468.212,81.019 468.22,80.928 C468.209,81.05 468.155,81.259 468.017,81.516 C467.835,81.841 467.594,82.063 467.303,82.196 C466.998,82.329 466.785,82.367 466.655,82.369 C466.727,82.368 466.877,82.377 467.321,82.412 C478.041,83.271 487.381,90.069 491.499,100.013 C491.992,101.203 493.153,101.979 494.441,101.979 L494.444,101.979 L494.444,98.794 L491.502,100.012 Z M497.386,97.576 C496.893,96.386 495.732,95.609 494.444,95.609 L494.441,95.609 L494.441,98.794 L497.382,97.575 C492.349,85.422 480.933,77.113 467.823,76.062 C466.191,75.935 465.714,75.942 464.708,76.38 C463.718,76.833 462.944,77.545 462.441,78.44 C461.882,79.473 461.841,79.928 461.841,81.683 L461.841,108.434 C461.841,110.193 461.876,110.609 462.369,111.568 C462.822,112.457 463.551,113.186 464.447,113.643 C465.398,114.132 465.814,114.167 467.572,114.167 L494.316,114.167 C496.082,114.167 496.533,114.126 497.522,113.587 C498.453,113.063 499.165,112.289 499.593,111.356 C500.06,110.302 500.068,109.806 499.935,108.178 C499.645,104.537 498.784,100.957 497.386,97.576 Z" />
        </g>
        <g id="Black-M" transform="translate(0,200)">
            <path d="M691.416,122.13 C686.401,133.993 674.091,141.053 661.322,139.389 C648.554,137.725 638.463,127.746 636.654,114.994 C634.844,102.242 641.761,89.849 653.563,84.697 C655.175,83.994 655.911,82.117 655.208,80.505 C654.505,78.892 652.628,78.156 651.016,78.859 C636.592,85.156 628.138,100.303 630.349,115.889 C632.56,131.475 644.894,143.671 660.5,145.705 C676.106,147.739 691.151,139.11 697.281,124.611 C697.966,122.991 697.208,121.122 695.588,120.437 C693.969,119.752 692.101,120.51 691.416,122.13 Z M691.502,100.012 C692.646,102.778 693.35,105.706 693.588,108.69 C693.624,109.132 693.633,109.285 693.632,109.352 C693.635,109.213 693.675,108.992 693.787,108.739 C693.936,108.413 694.158,108.172 694.437,108.015 C694.735,107.852 694.948,107.797 695.073,107.786 C694.982,107.794 694.813,107.797 694.316,107.797 L667.572,107.797 C667.062,107.797 666.89,107.794 666.788,107.786 C666.896,107.795 667.092,107.841 667.35,107.974 C667.641,108.123 667.883,108.366 668.036,108.664 C668.165,108.915 668.211,109.111 668.22,109.218 C668.212,109.116 668.209,108.944 668.209,108.434 L668.209,81.683 C668.209,81.186 668.212,81.019 668.22,80.928 C668.209,81.05 668.155,81.259 668.017,81.516 C667.835,81.841 667.594,82.063 667.303,82.196 C666.998,82.329 666.785,82.367 666.655,82.369 C666.727,82.368 666.877,82.377 667.321,82.412 C678.041,83.271 687.381,90.069 691.499,100.013 C691.992,101.203 693.153,101.979 694.441,101.979 L694.444,101.979 L694.444,98.794 L691.502,100.012 Z M697.386,97.576 C696.893,96.386 695.732,95.609 694.444,95.609 L694.441,95.609 L694.441,98.794 L697.382,97.575 C692.349,85.422 680.933,77.113 667.823,76.062 C666.191,75.935 665.714,75.942 664.708,76.38 C663.718,76.833 662.944,77.545 662.441,78.44 C661.882,79.473 661.841,79.928 661.841,81.683 L661.841,108.434 C661.841,110.193 661.876,110.609 662.369,111.568 C662.822,112.457 663.551,113.186 664.447,113.643 C665.398,114.132 665.814,114.167 667.572,114.167 L694.316,114.167 C696.082,114.167 696.534,114.126 697.522,113.587 C698.453,113.063 699.165,112.289 699.593,111.356 C700.06,110.302 700.068,109.806 699.935,108.178 C699.645,104.537 698.784,100.957 697.386,97.576 Z" />
        </g>
    </g>
</svg>