<?xml version="1.0" encoding="UTF-8"?>
<svg height="600" width="800" xmlns="http://www.w3.org/2000/svg" xmlns:xlink="http://www.w3.org/1999/xlink">
    <g id="Notes" font-family="LucidaGrande, 'Lucida Grande', sans-serif" font-size="13">
        <rect fill="white" height="600.0" width="800.0" x="0.0" y="0.0" />
        <g font-size="13">
            <text x="18.0" y="176.0">Small</text>
            <text x="18.0" y="376.0">Medium</text>
            <text x="18.0" y="576.0">Large</text>
        </g>
        <g font-size="9">
            <text x="250.0" y="30.0">Ultralight</text>
            <text x="450.0" y="30.0">Regular</text>
            <text x="650.0" y="30.0">Black</text>
            <text id="template-version" fill="#505050" text-anchor="end" x="785.0" y="575.0">Template v.3.0</text>
            <a href="https://github.com/swhitty/SwiftDraw">
                <text fill="#505050" text-anchor="end" x="785.0" y="590.0">https://github.com/swhitty/SwiftDraw</text>
            </a>
        </g>
    </g>
    <g id="Guides" stroke="rgb(39, 170, 225)" stroke-width="0.5">
        <path id="Capline-S" d="M18,76 l800,0" />
        <path id="H-reference" d="M85,145.755 L87.685,145.755 L113.369,79.287 L114.052,79.287 L114.052,76 L112.148,76 L85,145.755 Z M95.693,121.536 L130.996,121.536 L130.263,119.313 L96.474,119.313 L95.693,121.536 Z M139.15,145.755 L141.787,145.755 L114.638,76 L113.466,76 L113.466,79.287 L139.15,145.755 Z" stroke="none" transform="translate(0,200)" />
        <path id="Baseline-S" d="M18,146 l800,0" />
        <path id="left-margin-Ultralight-M" d="M221,256 l0,110" />
        <path id="right-margin-Ultralight-M" d="M309,256 l0,110" />
        <path id="left-margin-Regular-M" d="M421,256 l0,110" />
        <path id="right-margin-Regular-M" d="M509,256 l0,110" />
        <path id="left-margin-Black-M" d="M621,256 l0,110" />
        <path id="right-margin-Black-M" d="M709,256 l0,110" />
        <path id="Capline-M" d="M18,276 l800,0" />
        <path id="Baseline-M" d="M18,346 l800,0" />
        <path id="Capline-L" d="M18,476 l800,0" />
        <path id="Baseline-L" d="M18,546 l800,0" />
    </g>
    <g id="Symbols">
        <g id="Ultralight-M" transform="translate(0,200)">
            <path d="M271.285,110.994 L271.285,127.755 C271.285,128.912 272.223,129.85 273.38,129.85 C274.537,129.85 275.475,128.912 275.475,127.755 L275.475,110.994 C275.475,109.837 274.537,108.899 273.38,108.899 C272.223,108.899 271.285,109.837 271.285,110.994 Z M254.525,110.994 L254.525,127.755 C254.525,128.912 255.463,129.85 256.62,129.85 C257.777,129.85 258.715,128.912 258.715,127.755 L258.715,110.994 C258.715,109.837 257.777,108.899 256.62,108.899 C255.463,108.899 254.525,109.837 254.525,110.994 Z M262.905,115.184 L262.905,131.945 C262.905,133.102 263.843,134.04 265,134.04 C266.157,134.04 267.095,133.102 267.095,131.945 L267.095,115.184 C267.095,114.027 266.157,113.089 265,113.089 C263.843,113.089 262.905,114.027 262.905,115.184 Z M282.924,119.529 C286.981,116.82 288.893,111.849 287.697,107.12 C286.5,102.39 282.455,98.926 277.598,98.472 L279.469,100.213 C278.288,93.142 272.169,87.96 265,87.96 C257.831,87.96 251.712,93.142 250.531,100.213 L252.402,98.472 C247.545,98.926 243.5,102.39 242.303,107.12 C241.107,111.849 243.019,116.82 247.076,119.529 C248.038,120.171 249.339,119.912 249.982,118.95 C250.624,117.987 250.365,116.686 249.403,116.044 C246.821,114.32 245.604,111.157 246.366,108.147 C247.127,105.137 249.701,102.933 252.792,102.644 C253.739,102.556 254.507,101.841 254.664,100.904 C255.507,95.852 259.879,92.15 265,92.15 C270.121,92.15 274.493,95.852 275.336,100.904 C275.493,101.841 276.261,102.556 277.208,102.644 C280.299,102.933 282.873,105.137 283.634,108.147 C284.396,111.157 283.179,114.32 280.597,116.044 C279.635,116.686 279.376,117.987 280.018,118.95 C280.661,119.912 281.962,120.171 282.924,119.529 Z" />
        </g>
        <g id="Regular-M" transform="translate(0,200)">
            <path d="M471.285,110.994 L471.285,127.755 C471.285,128.912 472.223,129.85 473.38,129.85 C474.537,129.85 475.475,128.912 475.475,127.755 L475.475,110.994 C475.475,109.837 474.537,108.899 473.38,108.899 C472.223,108.899 471.285,109.837 471.285,110.994 Z M454.525,110.994 L454.525,127.755 C454.525,128.912 455.463,129.85 456.62,129.85 C457.777,129.85 458.715,128.912 458.715,127.755 L458.715,110.994 C458.715,109.837 457.777,108.899 456.62,108.899 C455.463,108.899 454.525,109.837 454.525,110.994 Z M462.905,115.184 L462.905,131.945 C462.905,133.102 463.843,134.04 465,134.04 C466.157,134.04 467.095,133.102 467.095,131.945 L467.095,115.184 C467.095,114.027 466.157,113.089 465,113.089 C463.843,113.089 462.905,114.027 462.905,115.184 Z M482.924,119.529 C486.981,116.82 488.893,111.849 487.697,107.12 C486.5,102.39 482.455,98.926 477.598,98.472 L479.469,100.213 C478.288,93.142 472.169,87.96 465,87.96 C457.831,87.96 451.712,93.142 450.531,100.213 L452.402,98.472 C447.545,98.926 443.5,102.39 442.303,107.12 C441.107,111.849 443.019,116.82 447.076,119.529 C448.038,120.171 449.339,119.912 449.982,118.95 C450.624,117.987 450.365,116.686 449.403,116.044 C446.821,114.32 445.604,111.157 446.366,108.147 C447.127,105.137 449.701,102.933 452.792,102.644 C453.739,102.556 454.507,101.841 454.664,100.904 C455.507,95.852 459.879,92.15 465,92.15 C470.121,92.15 474.493,95.852 475.336,100.904 C475.493,101.841 476.261,102.556 477.208,102.644 C480.299,102.933 482.873,105.137 483.634,108.147 C484.396,111.157 483.179,114.32 480.597,116.044 C479.635,116.686 479.376,117.987 480.018,118.95 C480.661,119.912 481.962,120.171 482.924,119.529 Z" />
        </g>
        <g id="Black-M" transform="translate(0,200)">
            <path d="M671.285,110.994 L671.285,127.755 C671.285,128.912 672.223,129.85 673.38,129.85 C674.537,129.85 675.475,128.912 675.475,127.755 L675.475,110.994 C675.475,109.837 674.537,108.899 673.38,108.899 C672.223,108.899 671.285,109.837 671.285,110.994 Z M654.525,110.994 L654.525,127.755 C654.525,128.912 655.463,129.85 656.62,129.85 C657.777,129.85 658.715,128.912 658.715,127.755 L658.715,110.994 C658.715,109.837 657.777,108.899 656.62,108.899 C655.463,108.899 654.525,109.837 654.525,110.994 Z M662.905,115.184 L662.905,131.945 C662.905,133.102 663.843,134.04 665,134.04 C666.157,134.04 667.095,133.102 667.095,131.945 L667.095,115.184 C667.095,114.027 666.157,113.089 665,113.089 C663.843,113.089 662.905,114.027 662.905,115.184 Z M682.924,119.529 C686.981,116.82 688.893,111.849 687.697,107.12 C686.5,102.39 682.455,98.926 677.598,98.472 L679.469,100.213 C678.288,93.142 672.169,87.96 665,87.96 C657.831,87.96 651.712,93.142 650.531,100.213 L652.402,98.472 C647.545,98.926 643.5,102.39 642.303,107.12 C641.107,111.849 643.019,116.82 647.076,119.529 C648.038,120.171 649.339,119.912 649.982,118.95 C650.624,117.987 650.365,116.686 649.403,116.044 C646.821,114.32 645.604,111.157 646.365,108.147 C647.127,105.137 649.701,102.933 652.792,102.644 C653.739,102.556 654.507,101.841 654.664,100.904 C655.507,95.852 659.878,92.15 665,92.15 C670.121,92.15 674.493,95.852 675.336,100.904 C675.493,101.841 676.261,102.556 677.208,102.644 C680.299,102.933 682.873,105.137 683.634,108.147 C684.396,111.157 683.179,114.32 680.597,116.044 C679.635,116.686 679.376,117.987 680.018,118.95 C680.661,119.912 681.962,120.171 682.924,119.529 Z" />
        </g>
    </g>
</svg>