<?xml version="1.0" encoding="UTF-8"?>
<svg height="600" width="800" xmlns="http://www.w3.org/2000/svg" xmlns:xlink="http://www.w3.org/1999/xlink">
    <g id="Notes" font-family="LucidaGrande, 'Lucida Grande', sans-serif" font-size="13">
        <rect fill="white" height="600.0" width="800.0" x="0.0" y="0.0" />
        <g font-size="13">
            <text x="18.0" y="176.0">Small</text>
            <text x="18.0" y="376.0">Medium</text>
            <text x="18.0" y="576.0">Large</text>
        </g>
        <g font-size="9">
            <text x="250.0" y="30.0">Ultralight</text>
            <text x="450.0" y="30.0">Regular</text>
            <text x="650.0" y="30.0">Black</text>
            <text id="template-version" fill="#505050" text-anchor="end" x="785.0" y="575.0">Template v.3.0</text>
            <a href="https://github.com/swhitty/SwiftDraw">
                <text fill="#505050" text-anchor="end" x="785.0" y="590.0">https://github.com/swhitty/SwiftDraw</text>
            </a>
        </g>
    </g>
    <g id="Guides" stroke="rgb(39, 170, 225)" stroke-width="0.5">
        <path id="Capline-S" d="M18,76 l800,0" />
        <path id="H-reference" d="M85,145.755 L87.685,145.755 L113.369,79.287 L114.052,79.287 L114.052,76 L112.148,76 L85,145.755 Z M95.693,121.536 L130.996,121.536 L130.263,119.313 L96.474,119.313 L95.693,121.536 Z M139.15,145.755 L141.787,145.755 L114.638,76 L113.466,76 L113.466,79.287 L139.15,145.755 Z" stroke="none" transform="translate(0,200)" />
        <path id="Baseline-S" d="M18,146 l800,0" />
        <path id="left-margin-Ultralight-M" d="M230,256 l0,110" />
        <path id="right-margin-Ultralight-M" d="M300,256 l0,110" />
        <path id="left-margin-Regular-M" d="M430,256 l0,110" />
        <path id="right-margin-Regular-M" d="M500,256 l0,110" />
        <path id="left-margin-Black-M" d="M630,256 l0,110" />
        <path id="right-margin-Black-M" d="M700,256 l0,110" />
        <path id="Capline-M" d="M18,276 l800,0" />
        <path id="Baseline-M" d="M18,346 l800,0" />
        <path id="Capline-L" d="M18,476 l800,0" />
        <path id="Baseline-L" d="M18,546 l800,0" />
    </g>
    <g id="Symbols">
        <g id="Ultralight-M" transform="translate(0,200)">
            <path d="M294.167,137.25 L294.167,84.75 C294.167,83.139 292.861,81.833 291.25,81.833 C289.639,81.833 288.333,83.139 288.333,84.75 L288.333,137.25 C288.333,138.861 289.639,140.167 291.25,140.167 C292.861,140.167 294.167,138.861 294.167,137.25 Z M238.75,113.917 L279.583,113.917 C281.194,113.917 282.5,112.611 282.5,111 C282.5,109.389 281.194,108.083 279.583,108.083 L238.75,108.083 C237.139,108.083 235.833,109.389 235.833,111 C235.833,112.611 237.139,113.917 238.75,113.917 Z M281.646,108.938 L261.229,88.521 C260.09,87.382 258.243,87.382 257.104,88.521 C255.965,89.66 255.965,91.507 257.104,92.646 L277.521,113.062 C278.66,114.201 280.507,114.201 281.646,113.062 C282.785,111.923 282.785,110.077 281.646,108.938 Z M277.521,108.938 L257.104,129.354 C255.965,130.493 255.965,132.34 257.104,133.479 C258.243,134.618 260.09,134.618 261.229,133.479 L281.646,113.062 C282.785,111.923 282.785,110.077 281.646,108.938 C280.507,107.799 278.66,107.799 277.521,108.938 Z" />
        </g>
        <g id="Regular-M" transform="translate(0,200)">
            <path d="M494.167,137.25 L494.167,84.75 C494.167,83.139 492.861,81.833 491.25,81.833 C489.639,81.833 488.333,83.139 488.333,84.75 L488.333,137.25 C488.333,138.861 489.639,140.167 491.25,140.167 C492.861,140.167 494.167,138.861 494.167,137.25 Z M438.75,113.917 L479.583,113.917 C481.194,113.917 482.5,112.611 482.5,111 C482.5,109.389 481.194,108.083 479.583,108.083 L438.75,108.083 C437.139,108.083 435.833,109.389 435.833,111 C435.833,112.611 437.139,113.917 438.75,113.917 Z M481.646,108.938 L461.229,88.521 C460.09,87.382 458.243,87.382 457.104,88.521 C455.965,89.66 455.965,91.507 457.104,92.646 L477.521,113.062 C478.66,114.201 480.507,114.201 481.646,113.062 C482.785,111.923 482.785,110.077 481.646,108.938 Z M477.521,108.938 L457.104,129.354 C455.965,130.493 455.965,132.34 457.104,133.479 C458.243,134.618 460.09,134.618 461.229,133.479 L481.646,113.062 C482.785,111.923 482.785,110.077 481.646,108.938 C480.507,107.799 478.66,107.799 477.521,108.938 Z" />
        </g>
        <g id="Black-M" transform="translate(0,200)">
            <path d="M694.167,137.25 L694.167,84.75 C694.167,83.139 692.861,81.833 691.25,81.833 C689.639,81.833 688.333,83.139 688.333,84.75 L688.333,137.25 C688.333,138.861 689.639,140.167 691.25,140.167 C692.861,140.167 694.167,138.861 694.167,137.25 Z M638.75,113.917 L679.583,113.917 C681.194,113.917 682.5,112.611 682.5,111 C682.5,109.389 681.194,108.083 679.583,108.083 L638.75,108.083 C637.139,108.083 635.833,109.389 635.833,111 C635.833,112.611 637.139,113.917 638.75,113.917 Z M681.646,108.938 L661.229,88.521 C660.09,87.382 658.243,87.382 657.104,88.521 C655.965,89.66 655.965,91.507 657.104,92.646 L677.521,113.062 C678.66,114.201 680.507,114.201 681.646,113.062 C682.785,111.923 682.785,110.077 681.646,108.938 Z M677.521,108.938 L657.104,129.354 C655.965,130.493 655.965,132.34 657.104,133.479 C658.243,134.618 660.09,134.618 661.229,133.479 L681.646,113.062 C682.785,111.923 682.785,110.077 681.646,108.938 C680.507,107.799 678.66,107.799 677.521,108.938 Z" />
        </g>
    </g>
</svg>