<?xml version="1.0" encoding="UTF-8"?>
<svg height="600" width="800" xmlns="http://www.w3.org/2000/svg" xmlns:xlink="http://www.w3.org/1999/xlink">
    <g id="Notes" font-family="LucidaGrande, 'Lucida Grande', sans-serif" font-size="13">
        <rect fill="white" height="600.0" width="800.0" x="0.0" y="0.0" />
        <g font-size="13">
            <text x="18.0" y="176.0">Small</text>
            <text x="18.0" y="376.0">Medium</text>
            <text x="18.0" y="576.0">Large</text>
        </g>
        <g font-size="9">
            <text x="250.0" y="30.0">Ultralight</text>
            <text x="450.0" y="30.0">Regular</text>
            <text x="650.0" y="30.0">Black</text>
            <text id="template-version" fill="#505050" text-anchor="end" x="785.0" y="575.0">Template v.3.0</text>
            <a href="https://github.com/swhitty/SwiftDraw">
                <text fill="#505050" text-anchor="end" x="785.0" y="590.0">https://github.com/swhitty/SwiftDraw</text>
            </a>
        </g>
    </g>
    <g id="Guides" stroke="rgb(39, 170, 225)" stroke-width="0.5">
        <path id="Capline-S" d="M18,76 l800,0" />
        <path id="H-reference" d="M85,145.755 L87.685,145.755 L113.369,79.287 L114.052,79.287 L114.052,76 L112.148,76 L85,145.755 Z M95.693,121.536 L130.996,121.536 L130.263,119.313 L96.474,119.313 L95.693,121.536 Z M139.15,145.755 L141.787,145.755 L114.638,76 L113.466,76 L113.466,79.287 L139.15,145.755 Z" stroke="none" transform="translate(0,200)" />
        <path id="Baseline-S" d="M18,146 l800,0" />
        <path id="left-margin-Ultralight-M" d="M230,256 l0,110" />
        <path id="right-margin-Ultralight-M" d="M300,256 l0,110" />
        <path id="left-margin-Regular-M" d="M430,256 l0,110" />
        <path id="right-margin-Regular-M" d="M500,256 l0,110" />
        <path id="left-margin-Black-M" d="M630,256 l0,110" />
        <path id="right-margin-Black-M" d="M700,256 l0,110" />
        <path id="Capline-M" d="M18,276 l800,0" />
        <path id="Baseline-M" d="M18,346 l800,0" />
        <path id="Capline-L" d="M18,476 l800,0" />
        <path id="Baseline-L" d="M18,546 l800,0" />
    </g>
    <g id="Symbols">
        <g id="Ultralight-M" transform="translate(0,200)">
            <path d="M257.708,143.083 L272.292,143.083 C273.902,143.083 275.208,141.777 275.208,140.167 C275.208,138.556 273.902,137.25 272.292,137.25 L257.708,137.25 C256.098,137.25 254.792,138.556 254.792,140.167 C254.792,141.777 256.098,143.083 257.708,143.083 Z M275,123.336 C284.859,118.66 290.16,107.775 287.764,97.129 C285.367,86.484 275.912,78.921 265,78.921 C254.088,78.921 244.633,86.484 242.236,97.129 C239.84,107.775 245.141,118.66 255,123.336 L256.25,120.701 L253.333,120.701 L253.333,122.667 C253.333,126.554 253.396,127.476 253.999,128.931 C254.887,131.076 256.591,132.78 258.737,133.668 C260.191,134.271 261.113,134.333 265,134.333 C268.887,134.333 269.809,134.271 271.264,133.668 C273.409,132.78 275.113,131.076 276.002,128.93 C276.604,127.476 276.667,126.554 276.667,122.667 L276.667,120.701 L273.75,120.701 L275,123.336 Z M272.5,118.066 C271.482,118.548 270.833,119.574 270.833,120.701 L270.833,122.667 C270.833,125.575 270.785,126.28 270.612,126.699 C270.316,127.414 269.748,127.982 269.032,128.278 C268.613,128.452 267.909,128.5 265,128.5 C262.091,128.5 261.387,128.452 260.968,128.279 C260.252,127.982 259.684,127.414 259.388,126.699 C259.215,126.28 259.167,125.575 259.167,122.667 L259.167,120.701 C259.167,119.574 258.518,118.548 257.5,118.066 C250.106,114.558 246.13,106.394 247.927,98.41 C249.725,90.426 256.816,84.754 265,84.754 C273.184,84.754 280.275,90.426 282.073,98.41 C283.87,106.394 279.894,114.558 272.5,118.066 Z" />
        </g>
        <g id="Regular-M" transform="translate(0,200)">
            <path d="M457.708,143.083 L472.292,143.083 C473.902,143.083 475.208,141.777 475.208,140.167 C475.208,138.556 473.902,137.25 472.292,137.25 L457.708,137.25 C456.098,137.25 454.792,138.556 454.792,140.167 C454.792,141.777 456.098,143.083 457.708,143.083 Z M475,123.336 C484.859,118.66 490.16,107.775 487.764,97.129 C485.367,86.484 475.912,78.921 465,78.921 C454.088,78.921 444.633,86.484 442.237,97.129 C439.84,107.775 445.141,118.66 455,123.336 L456.25,120.701 L453.333,120.701 L453.333,122.667 C453.333,126.554 453.396,127.476 453.999,128.931 C454.887,131.076 456.591,132.78 458.737,133.668 C460.191,134.271 461.113,134.333 465,134.333 C468.887,134.333 469.809,134.271 471.264,133.668 C473.409,132.78 475.113,131.076 476.002,128.93 C476.604,127.476 476.667,126.554 476.667,122.667 L476.667,120.701 L473.75,120.701 L475,123.336 Z M472.5,118.066 C471.482,118.548 470.833,119.574 470.833,120.701 L470.833,122.667 C470.833,125.575 470.785,126.28 470.612,126.699 C470.316,127.414 469.748,127.982 469.032,128.278 C468.613,128.452 467.909,128.5 465,128.5 C462.091,128.5 461.387,128.452 460.968,128.279 C460.252,127.982 459.684,127.414 459.388,126.699 C459.215,126.28 459.167,125.575 459.167,122.667 L459.167,120.701 C459.167,119.574 458.518,118.548 457.5,118.066 C450.106,114.558 446.13,106.394 447.927,98.41 C449.725,90.426 456.816,84.754 465,84.754 C473.184,84.754 480.275,90.426 482.073,98.41 C483.87,106.394 479.894,114.558 472.5,118.066 Z" />
        </g>
        <g id="Black-M" transform="translate(0,200)">
            <path d="M657.708,143.083 L672.292,143.083 C673.903,143.083 675.208,141.777 675.208,140.167 C675.208,138.556 673.903,137.25 672.292,137.25 L657.708,137.25 C656.097,137.25 654.792,138.556 654.792,140.167 C654.792,141.777 656.097,143.083 657.708,143.083 Z M675,123.336 C684.859,118.66 690.16,107.775 687.763,97.129 C685.367,86.484 675.912,78.921 665,78.921 C654.088,78.921 644.633,86.484 642.237,97.129 C639.84,107.775 645.141,118.66 655,123.336 L656.25,120.701 L653.333,120.701 L653.333,122.667 C653.333,126.554 653.396,127.476 653.999,128.931 C654.887,131.076 656.591,132.78 658.737,133.668 C660.191,134.271 661.113,134.333 665,134.333 C668.887,134.333 669.809,134.271 671.264,133.668 C673.409,132.78 675.113,131.076 676.002,128.93 C676.604,127.476 676.667,126.554 676.667,122.667 L676.667,120.701 L673.75,120.701 L675,123.336 Z M672.5,118.066 C671.482,118.548 670.833,119.574 670.833,120.701 L670.833,122.667 C670.833,125.575 670.785,126.28 670.612,126.699 C670.316,127.414 669.748,127.982 669.032,128.278 C668.613,128.452 667.909,128.5 665,128.5 C662.091,128.5 661.387,128.452 660.968,128.279 C660.252,127.982 659.684,127.414 659.388,126.699 C659.215,126.28 659.167,125.575 659.167,122.667 L659.167,120.701 C659.167,119.574 658.518,118.548 657.5,118.066 C650.106,114.558 646.13,106.394 647.927,98.41 C649.725,90.426 656.816,84.754 665,84.754 C673.184,84.754 680.275,90.426 682.073,98.41 C683.87,106.394 679.894,114.558 672.5,118.066 Z" />
        </g>
    </g>
</svg>