<?xml version="1.0" encoding="UTF-8"?>
<svg height="600" width="800" xmlns="http://www.w3.org/2000/svg" xmlns:xlink="http://www.w3.org/1999/xlink">
    <g id="Notes" font-family="LucidaGrande, 'Lucida Grande', sans-serif" font-size="13">
        <rect fill="white" height="600.0" width="800.0" x="0.0" y="0.0" />
        <g font-size="13">
            <text x="18.0" y="176.0">Small</text>
            <text x="18.0" y="376.0">Medium</text>
            <text x="18.0" y="576.0">Large</text>
        </g>
        <g font-size="9">
            <text x="250.0" y="30.0">Ultralight</text>
            <text x="450.0" y="30.0">Regular</text>
            <text x="650.0" y="30.0">Black</text>
            <text id="template-version" fill="#505050" text-anchor="end" x="785.0" y="575.0">Template v.3.0</text>
            <a href="https://github.com/swhitty/SwiftDraw">
                <text fill="#505050" text-anchor="end" x="785.0" y="590.0">https://github.com/swhitty/SwiftDraw</text>
            </a>
        </g>
    </g>
    <g id="Guides" stroke="rgb(39, 170, 225)" stroke-width="0.5">
        <path id="Capline-S" d="M18,76 l800,0" />
        <path id="H-reference" d="M85,145.755 L87.685,145.755 L113.369,79.287 L114.052,79.287 L114.052,76 L112.148,76 L85,145.755 Z M95.693,121.536 L130.996,121.536 L130.263,119.313 L96.474,119.313 L95.693,121.536 Z M139.15,145.755 L141.787,145.755 L114.638,76 L113.466,76 L113.466,79.287 L139.15,145.755 Z" stroke="none" transform="translate(0,200)" />
        <path id="Baseline-S" d="M18,146 l800,0" />
        <path id="left-margin-Ultralight-M" d="M221,256 l0,110" />
        <path id="right-margin-Ultralight-M" d="M309,256 l0,110" />
        <path id="left-margin-Regular-M" d="M421,256 l0,110" />
        <path id="right-margin-Regular-M" d="M509,256 l0,110" />
        <path id="left-margin-Black-M" d="M621,256 l0,110" />
        <path id="right-margin-Black-M" d="M709,256 l0,110" />
        <path id="Capline-M" d="M18,276 l800,0" />
        <path id="Baseline-M" d="M18,346 l800,0" />
        <path id="Capline-L" d="M18,476 l800,0" />
        <path id="Baseline-L" d="M18,546 l800,0" />
    </g>
    <g id="Symbols">
        <g id="Ultralight-M" transform="translate(0,200)">
            <path d="M291.4,97.8 L238.6,97.8 C236.17,97.8 234.2,99.77 234.2,102.2 C234.2,104.63 236.17,106.6 238.6,106.6 L291.4,106.6 C293.83,106.6 295.8,104.63 295.8,102.2 C295.8,99.77 293.83,97.8 291.4,97.8 Z M304.6,80.2 L225.4,80.2 C222.97,80.2 221,82.17 221,84.6 C221,87.03 222.97,89 225.4,89 L304.6,89 C307.03,89 309,87.03 309,84.6 C309,82.17 307.03,80.2 304.6,80.2 Z M304.6,115.4 L225.4,115.4 C222.97,115.4 221,117.37 221,119.8 C221,122.23 222.97,124.2 225.4,124.2 L304.6,124.2 C307.03,124.2 309,122.23 309,119.8 C309,117.37 307.03,115.4 304.6,115.4 Z M291.4,133 L238.6,133 C236.17,133 234.2,134.97 234.2,137.4 C234.2,139.83 236.17,141.8 238.6,141.8 L291.4,141.8 C293.83,141.8 295.8,139.83 295.8,137.4 C295.8,134.97 293.83,133 291.4,133 Z" />
        </g>
        <g id="Regular-M" transform="translate(0,200)">
            <path d="M491.4,97.8 L438.6,97.8 C436.17,97.8 434.2,99.77 434.2,102.2 C434.2,104.63 436.17,106.6 438.6,106.6 L491.4,106.6 C493.83,106.6 495.8,104.63 495.8,102.2 C495.8,99.77 493.83,97.8 491.4,97.8 Z M504.6,80.2 L425.4,80.2 C422.97,80.2 421,82.17 421,84.6 C421,87.03 422.97,89 425.4,89 L504.6,89 C507.03,89 509,87.03 509,84.6 C509,82.17 507.03,80.2 504.6,80.2 Z M504.6,115.4 L425.4,115.4 C422.97,115.4 421,117.37 421,119.8 C421,122.23 422.97,124.2 425.4,124.2 L504.6,124.2 C507.03,124.2 509,122.23 509,119.8 C509,117.37 507.03,115.4 504.6,115.4 Z M491.4,133 L438.6,133 C436.17,133 434.2,134.97 434.2,137.4 C434.2,139.83 436.17,141.8 438.6,141.8 L491.4,141.8 C493.83,141.8 495.8,139.83 495.8,137.4 C495.8,134.97 493.83,133 491.4,133 Z" />
        </g>
        <g id="Black-M" transform="translate(0,200)">
            <path d="M691.4,97.8 L638.6,97.8 C636.17,97.8 634.2,99.77 634.2,102.2 C634.2,104.63 636.17,106.6 638.6,106.6 L691.4,106.6 C693.83,106.6 695.8,104.63 695.8,102.2 C695.8,99.77 693.83,97.8 691.4,97.8 Z M704.6,80.2 L625.4,80.2 C622.97,80.2 621,82.17 621,84.6 C621,87.03 622.97,89 625.4,89 L704.6,89 C707.03,89 709,87.03 709,84.6 C709,82.17 707.03,80.2 704.6,80.2 Z M704.6,115.4 L625.4,115.4 C622.97,115.4 621,117.37 621,119.8 C621,122.23 622.97,124.2 625.4,124.2 L704.6,124.2 C707.03,124.2 709,122.23 709,119.8 C709,117.37 707.03,115.4 704.6,115.4 Z M691.4,133 L638.6,133 C636.17,133 634.2,134.97 634.2,137.4 C634.2,139.83 636.17,141.8 638.6,141.8 L691.4,141.8 C693.83,141.8 695.8,139.83 695.8,137.4 C695.8,134.97 693.83,133 691.4,133 Z" />
        </g>
    </g>
</svg>