<?xml version="1.0" encoding="UTF-8"?>
<svg height="600" width="800" xmlns="http://www.w3.org/2000/svg" xmlns:xlink="http://www.w3.org/1999/xlink">
    <g id="Notes" font-family="LucidaGrande, 'Lucida Grande', sans-serif" font-size="13">
        <rect fill="white" height="600.0" width="800.0" x="0.0" y="0.0" />
        <g font-size="13">
            <text x="18.0" y="176.0">Small</text>
            <text x="18.0" y="376.0">Medium</text>
            <text x="18.0" y="576.0">Large</text>
        </g>
        <g font-size="9">
            <text x="250.0" y="30.0">Ultralight</text>
            <text x="450.0" y="30.0">Regular</text>
            <text x="650.0" y="30.0">Black</text>
            <text id="template-version" fill="#505050" text-anchor="end" x="785.0" y="575.0">Template v.3.0</text>
            <a href="https://github.com/swhitty/SwiftDraw">
                <text fill="#505050" text-anchor="end" x="785.0" y="590.0">https://github.com/swhitty/SwiftDraw</text>
            </a>
        </g>
    </g>
    <g id="Guides" stroke="rgb(39, 170, 225)" stroke-width="0.5">
        <path id="Capline-S" d="M18,76 l800,0" />
        <path id="H-reference" d="M85,145.755 L87.685,145.755 L113.369,79.287 L114.052,79.287 L114.052,76 L112.148,76 L85,145.755 Z M95.693,121.536 L130.996,121.536 L130.263,119.313 L96.474,119.313 L95.693,121.536 Z M139.15,145.755 L141.787,145.755 L114.638,76 L113.466,76 L113.466,79.287 L139.15,145.755 Z" stroke="none" transform="translate(0,200)" />
        <path id="Baseline-S" d="M18,146 l800,0" />
        <path id="left-margin-Ultralight-M" d="M230,256 l0,110" />
        <path id="right-margin-Ultralight-M" d="M300,256 l0,110" />
        <path id="left-margin-Regular-M" d="M430,256 l0,110" />
        <path id="right-margin-Regular-M" d="M500,256 l0,110" />
        <path id="left-margin-Black-M" d="M630,256 l0,110" />
        <path id="right-margin-Black-M" d="M700,256 l0,110" />
        <path id="Capline-M" d="M18,276 l800,0" />
        <path id="Baseline-M" d="M18,346 l800,0" />
        <path id="Capline-L" d="M18,476 l800,0" />
        <path id="Baseline-L" d="M18,546 l800,0" />
    </g>
    <g id="Symbols">
        <g id="Ultralight-M" transform="translate(0,200)">
            <path d="M271.364,76 L254.818,76 C247.497,76 245.757,76.142 243.313,77.387 C240.918,78.607 238.971,80.554 237.751,82.949 C236.506,85.394 236.364,87.133 236.364,94.455 L236.364,127.545 C236.364,134.867 236.506,136.606 237.751,139.05 C238.971,141.446 240.918,143.393 243.313,144.613 C245.757,145.858 247.497,146 254.818,146 L275.182,146 C282.503,146 284.243,145.858 286.687,144.613 C289.082,143.393 291.029,141.446 292.249,139.051 C293.494,136.606 293.636,134.867 293.636,127.545 L293.636,98.273 C293.636,96.515 292.212,95.091 290.455,95.091 C288.697,95.091 287.273,96.515 287.273,98.273 L287.273,127.545 C287.273,133.588 287.155,135.032 286.579,136.162 C285.969,137.359 284.996,138.333 283.798,138.943 C282.668,139.518 281.224,139.636 275.182,139.636 L254.818,139.636 C248.776,139.636 247.332,139.518 246.201,138.943 C245.004,138.333 244.031,137.359 243.421,136.162 C242.845,135.032 242.727,133.588 242.727,127.545 L242.727,94.455 C242.727,88.412 242.845,86.968 243.421,85.838 C244.031,84.641 245.004,83.667 246.202,83.057 C247.332,82.482 248.776,82.364 254.818,82.364 L271.364,82.364 C273.121,82.364 274.545,80.939 274.545,79.182 C274.545,77.425 273.121,76 271.364,76 Z M269.114,81.432 L288.205,100.523 C289.447,101.765 291.462,101.765 292.704,100.523 C293.947,99.28 293.947,97.265 292.704,96.023 L273.614,76.932 C272.371,75.689 270.356,75.689 269.114,76.932 C267.871,78.175 267.871,80.189 269.114,81.432 Z M268.182,79.182 L268.182,98.273 C268.182,100.03 269.606,101.455 271.364,101.455 L290.455,101.455 C292.212,101.455 293.636,100.03 293.636,98.273 C293.636,96.515 292.212,95.091 290.455,95.091 L271.364,95.091 L274.545,98.273 L274.545,79.182 C274.545,77.425 273.121,76 271.364,76 C269.606,76 268.182,77.425 268.182,79.182 Z M266.369,132.963 C267.782,132.29 269.785,131.096 271.811,129.406 C275.447,126.373 277.727,122.84 277.727,118.716 L277.727,110.755 C277.727,109.411 276.882,108.211 275.616,107.759 L268.654,105.271 C266.291,104.424 263.703,104.424 261.337,105.272 L254.383,107.759 C253.117,108.212 252.273,109.411 252.273,110.755 L252.273,118.716 C252.273,122.84 254.553,126.373 258.189,129.406 C260.215,131.096 262.218,132.29 263.631,132.963 C264.497,133.376 265.503,133.376 266.369,132.963 Z M263.631,127.219 L266.369,127.219 C266.155,127.117 265.718,126.886 265.137,126.54 C264.154,125.954 263.17,125.274 262.265,124.519 C259.935,122.576 258.636,120.563 258.636,118.716 L258.636,110.755 L256.526,113.751 L263.482,111.263 C264.462,110.911 265.532,110.911 266.51,111.262 L273.475,113.751 L271.364,110.755 L271.364,118.716 C271.364,120.563 270.065,122.576 267.735,124.519 C266.83,125.274 265.846,125.954 264.863,126.54 C264.282,126.886 263.845,127.117 263.631,127.219 Z" />
        </g>
        <g id="Regular-M" transform="translate(0,200)">
            <path d="M471.364,76 L454.818,76 C447.497,76 445.757,76.142 443.313,77.387 C440.918,78.607 438.971,80.554 437.751,82.949 C436.506,85.394 436.364,87.133 436.364,94.455 L436.364,127.545 C436.364,134.867 436.506,136.606 437.751,139.05 C438.971,141.446 440.918,143.393 443.313,144.613 C445.757,145.858 447.497,146 454.818,146 L475.182,146 C482.503,146 484.243,145.858 486.687,144.613 C489.082,143.393 491.029,141.446 492.249,139.051 C493.494,136.606 493.636,134.867 493.636,127.545 L493.636,98.273 C493.636,96.515 492.212,95.091 490.455,95.091 C488.697,95.091 487.273,96.515 487.273,98.273 L487.273,127.545 C487.273,133.588 487.155,135.032 486.579,136.162 C485.969,137.359 484.996,138.333 483.798,138.943 C482.668,139.518 481.224,139.636 475.182,139.636 L454.818,139.636 C448.776,139.636 447.332,139.518 446.201,138.943 C445.004,138.333 444.031,137.359 443.421,136.162 C442.845,135.032 442.727,133.588 442.727,127.545 L442.727,94.455 C442.727,88.412 442.845,86.968 443.421,85.838 C444.031,84.641 445.004,83.667 446.202,83.057 C447.332,82.482 448.776,82.364 454.818,82.364 L471.364,82.364 C473.121,82.364 474.545,80.939 474.545,79.182 C474.545,77.425 473.121,76 471.364,76 Z M469.114,81.432 L488.205,100.523 C489.447,101.765 491.462,101.765 492.704,100.523 C493.947,99.28 493.947,97.265 492.704,96.023 L473.614,76.932 C472.371,75.689 470.356,75.689 469.114,76.932 C467.871,78.175 467.871,80.189 469.114,81.432 Z M468.182,79.182 L468.182,98.273 C468.182,100.03 469.606,101.455 471.364,101.455 L490.455,101.455 C492.212,101.455 493.636,100.03 493.636,98.273 C493.636,96.515 492.212,95.091 490.455,95.091 L471.364,95.091 L474.545,98.273 L474.545,79.182 C474.545,77.425 473.121,76 471.364,76 C469.606,76 468.182,77.425 468.182,79.182 Z M466.369,132.963 C467.782,132.29 469.785,131.096 471.811,129.406 C475.447,126.373 477.727,122.84 477.727,118.716 L477.727,110.755 C477.727,109.411 476.882,108.211 475.616,107.759 L468.654,105.271 C466.291,104.424 463.703,104.424 461.337,105.272 L454.383,107.759 C453.117,108.212 452.273,109.411 452.273,110.755 L452.273,118.716 C452.273,122.84 454.553,126.373 458.189,129.406 C460.215,131.096 462.218,132.29 463.631,132.963 C464.497,133.376 465.503,133.376 466.369,132.963 Z M463.631,127.219 L466.369,127.219 C466.155,127.117 465.718,126.886 465.137,126.54 C464.154,125.954 463.17,125.274 462.265,124.519 C459.935,122.576 458.636,120.563 458.636,118.716 L458.636,110.755 L456.526,113.751 L463.482,111.263 C464.462,110.911 465.532,110.911 466.51,111.262 L473.475,113.751 L471.364,110.755 L471.364,118.716 C471.364,120.563 470.065,122.576 467.735,124.519 C466.83,125.274 465.846,125.954 464.863,126.54 C464.282,126.886 463.845,127.117 463.631,127.219 Z" />
        </g>
        <g id="Black-M" transform="translate(0,200)">
            <path d="M671.364,76 L654.818,76 C647.497,76 645.757,76.142 643.313,77.387 C640.918,78.607 638.971,80.554 637.751,82.949 C636.506,85.394 636.364,87.133 636.364,94.455 L636.364,127.545 C636.364,134.867 636.506,136.606 637.751,139.05 C638.971,141.446 640.918,143.393 643.313,144.613 C645.757,145.858 647.497,146 654.818,146 L675.182,146 C682.503,146 684.243,145.858 686.687,144.613 C689.082,143.393 691.029,141.446 692.249,139.051 C693.494,136.606 693.636,134.867 693.636,127.545 L693.636,98.273 C693.636,96.515 692.212,95.091 690.455,95.091 C688.697,95.091 687.273,96.515 687.273,98.273 L687.273,127.545 C687.273,133.588 687.155,135.032 686.579,136.162 C685.969,137.359 684.996,138.333 683.798,138.943 C682.668,139.518 681.224,139.636 675.182,139.636 L654.818,139.636 C648.776,139.636 647.332,139.518 646.201,138.943 C645.004,138.333 644.031,137.359 643.421,136.162 C642.845,135.032 642.727,133.588 642.727,127.545 L642.727,94.455 C642.727,88.412 642.845,86.968 643.421,85.838 C644.031,84.641 645.004,83.667 646.202,83.057 C647.332,82.482 648.776,82.364 654.818,82.364 L671.364,82.364 C673.121,82.364 674.545,80.939 674.545,79.182 C674.545,77.425 673.121,76 671.364,76 Z M669.114,81.432 L688.205,100.523 C689.447,101.765 691.462,101.765 692.704,100.523 C693.947,99.28 693.947,97.265 692.704,96.023 L673.614,76.932 C672.371,75.689 670.356,75.689 669.114,76.932 C667.871,78.175 667.871,80.189 669.114,81.432 Z M668.182,79.182 L668.182,98.273 C668.182,100.03 669.606,101.455 671.364,101.455 L690.455,101.455 C692.212,101.455 693.636,100.03 693.636,98.273 C693.636,96.515 692.212,95.091 690.455,95.091 L671.364,95.091 L674.545,98.273 L674.545,79.182 C674.545,77.425 673.121,76 671.364,76 C669.606,76 668.182,77.425 668.182,79.182 Z M666.369,132.963 C667.782,132.29 669.785,131.096 671.811,129.406 C675.447,126.373 677.727,122.84 677.727,118.716 L677.727,110.755 C677.727,109.411 676.882,108.211 675.616,107.759 L668.654,105.271 C666.291,104.424 663.703,104.424 661.337,105.272 L654.383,107.759 C653.117,108.212 652.273,109.411 652.273,110.755 L652.273,118.716 C652.273,122.84 654.553,126.373 658.189,129.406 C660.215,131.096 662.218,132.29 663.631,132.963 C664.497,133.376 665.503,133.376 666.369,132.963 Z M663.631,127.219 L666.369,127.219 C666.155,127.117 665.718,126.886 665.137,126.54 C664.154,125.954 663.17,125.274 662.265,124.519 C659.935,122.576 658.636,120.563 658.636,118.716 L658.636,110.755 L656.526,113.751 L663.482,111.263 C664.462,110.911 665.532,110.911 666.51,111.262 L673.475,113.751 L671.364,110.755 L671.364,118.716 C671.364,120.563 670.065,122.576 667.735,124.519 C666.83,125.274 665.846,125.954 664.863,126.54 C664.282,126.886 663.845,127.117 663.631,127.219 Z" />
        </g>
    </g>
</svg>