<?xml version="1.0" encoding="UTF-8"?>
<svg height="600" width="800" xmlns="http://www.w3.org/2000/svg" xmlns:xlink="http://www.w3.org/1999/xlink">
    <g id="Notes" font-family="LucidaGrande, 'Lucida Grande', sans-serif" font-size="13">
        <rect fill="white" height="600.0" width="800.0" x="0.0" y="0.0" />
        <g font-size="13">
            <text x="18.0" y="176.0">Small</text>
            <text x="18.0" y="376.0">Medium</text>
            <text x="18.0" y="576.0">Large</text>
        </g>
        <g font-size="9">
            <text x="250.0" y="30.0">Ultralight</text>
            <text x="450.0" y="30.0">Regular</text>
            <text x="650.0" y="30.0">Black</text>
            <text id="template-version" fill="#505050" text-anchor="end" x="785.0" y="575.0">Template v.3.0</text>
            <a href="https://github.com/swhitty/SwiftDraw">
                <text fill="#505050" text-anchor="end" x="785.0" y="590.0">https://github.com/swhitty/SwiftDraw</text>
            </a>
        </g>
    </g>
    <g id="Guides" stroke="rgb(39, 170, 225)" stroke-width="0.5">
        <path id="Capline-S" d="M18,76 l800,0" />
        <path id="H-reference" d="M85,145.755 L87.685,145.755 L113.369,79.287 L114.052,79.287 L114.052,76 L112.148,76 L85,145.755 Z M95.693,121.536 L130.996,121.536 L130.263,119.313 L96.474,119.313 L95.693,121.536 Z M139.15,145.755 L141.787,145.755 L114.638,76 L113.466,76 L113.466,79.287 L139.15,145.755 Z" stroke="none" transform="translate(0,200)" />
        <path id="Baseline-S" d="M18,146 l800,0" />
        <path id="left-margin-Ultralight-M" d="M221,256 l0,110" />
        <path id="right-margin-Ultralight-M" d="M309,256 l0,110" />
        <path id="left-margin-Regular-M" d="M421,256 l0,110" />
        <path id="right-margin-Regular-M" d="M509,256 l0,110" />
        <path id="left-margin-Black-M" d="M621,256 l0,110" />
        <path id="right-margin-Black-M" d="M709,256 l0,110" />
        <path id="Capline-M" d="M18,276 l800,0" />
        <path id="Baseline-M" d="M18,346 l800,0" />
        <path id="Capline-L" d="M18,476 l800,0" />
        <path id="Baseline-L" d="M18,546 l800,0" />
    </g>
    <g id="Symbols">
        <g id="Ultralight-M" transform="translate(0,200)">
            <path d="M265.001,113.179 L265.023,113.179 C266.226,113.179 267.202,112.203 267.202,111 C267.202,109.796 266.226,108.821 265.023,108.821 L265.001,108.821 C263.798,108.821 262.822,109.796 262.822,111 C262.822,112.203 263.798,113.179 265.001,113.179 Z M271.163,117.164 C261.723,126.603 251.088,130.983 248.054,127.949 C245.018,124.913 249.397,114.278 258.837,104.838 C268.277,95.396 278.912,91.017 281.946,94.052 C284.982,97.086 280.603,107.721 271.163,117.161 C270.754,117.57 270.525,118.124 270.525,118.702 L270.525,118.704 L272.703,118.704 L271.163,117.164 Z M274.244,120.245 C274.653,119.836 274.882,119.282 274.882,118.704 L274.882,118.702 L272.703,118.702 L274.244,120.243 C285.225,109.262 290.503,96.444 285.027,90.971 C279.555,85.495 266.736,90.774 255.756,101.757 C244.775,112.738 239.498,125.556 244.972,131.03 C250.446,136.504 263.264,131.225 274.244,120.245 Z M271.163,104.836 C280.602,114.277 284.982,124.913 281.948,127.947 C278.913,130.983 268.277,126.603 258.837,117.162 C249.398,107.722 245.018,97.086 248.052,94.052 C251.087,91.017 261.723,95.396 271.163,104.838 C272.536,106.211 274.884,105.238 274.882,103.295 L274.882,103.293 L272.703,103.295 L271.163,104.836 Z M274.244,101.755 C272.871,100.381 270.523,101.355 270.525,103.297 L270.525,103.299 L272.703,103.297 L274.244,101.757 C263.264,90.774 250.446,85.496 244.97,90.971 C239.497,96.444 244.776,109.263 255.756,120.243 C266.736,131.225 279.554,136.504 285.03,131.028 C290.503,125.555 285.225,112.737 274.244,101.755 Z M263.909,111 C263.909,110.398 264.397,109.91 264.999,109.91 C265.601,109.91 266.088,110.398 266.088,111 C266.088,111.601 265.601,112.089 264.999,112.089 C264.397,112.089 263.909,111.601 263.909,111 Z M268.267,111 C268.267,109.195 266.804,107.731 264.999,107.731 C263.194,107.731 261.731,109.195 261.731,111 C261.731,112.805 263.194,114.268 264.999,114.268 C266.804,114.268 268.267,112.805 268.267,111 Z" />
        </g>
        <g id="Regular-M" transform="translate(0,200)">
            <path d="M465.001,113.179 L465.023,113.179 C466.226,113.179 467.202,112.203 467.202,111 C467.202,109.796 466.226,108.821 465.023,108.821 L465.001,108.821 C463.798,108.821 462.822,109.796 462.822,111 C462.822,112.203 463.798,113.179 465.001,113.179 Z M471.163,117.164 C461.723,126.603 451.088,130.983 448.054,127.949 C445.018,124.913 449.397,114.278 458.837,104.838 C468.277,95.396 478.912,91.017 481.946,94.052 C484.982,97.086 480.603,107.721 471.163,117.161 C470.754,117.57 470.525,118.124 470.525,118.702 L470.525,118.704 L472.703,118.704 L471.163,117.164 Z M474.244,120.245 C474.653,119.836 474.882,119.282 474.882,118.704 L474.882,118.702 L472.703,118.702 L474.244,120.243 C485.225,109.262 490.503,96.444 485.027,90.971 C479.555,85.495 466.736,90.774 455.756,101.757 C444.775,112.738 439.498,125.556 444.972,131.03 C450.446,136.504 463.264,131.225 474.244,120.245 Z M471.163,104.836 C480.602,114.277 484.982,124.913 481.948,127.947 C478.913,130.983 468.277,126.603 458.837,117.162 C449.398,107.722 445.018,97.086 448.052,94.052 C451.087,91.017 461.723,95.396 471.163,104.838 C472.536,106.211 474.884,105.238 474.882,103.295 L474.882,103.293 L472.703,103.295 L471.163,104.836 Z M474.244,101.755 C472.871,100.381 470.523,101.355 470.525,103.297 L470.525,103.299 L472.703,103.297 L474.244,101.757 C463.264,90.774 450.446,85.496 444.97,90.971 C439.497,96.444 444.776,109.263 455.756,120.243 C466.736,131.225 479.554,136.504 485.03,131.028 C490.503,125.555 485.225,112.737 474.244,101.755 Z M463.909,111 C463.909,110.398 464.397,109.91 464.999,109.91 C465.601,109.91 466.088,110.398 466.088,111 C466.088,111.601 465.601,112.089 464.999,112.089 C464.397,112.089 463.909,111.601 463.909,111 Z M468.267,111 C468.267,109.195 466.804,107.731 464.999,107.731 C463.194,107.731 461.731,109.195 461.731,111 C461.731,112.805 463.194,114.268 464.999,114.268 C466.804,114.268 468.267,112.805 468.267,111 Z" />
        </g>
        <g id="Black-M" transform="translate(0,200)">
            <path d="M665.001,113.179 L665.023,113.179 C666.226,113.179 667.202,112.203 667.202,111 C667.202,109.796 666.226,108.821 665.023,108.821 L665.001,108.821 C663.798,108.821 662.822,109.796 662.822,111 C662.822,112.203 663.798,113.179 665.001,113.179 Z M671.163,117.164 C661.723,126.603 651.088,130.983 648.054,127.949 C645.018,124.913 649.397,114.278 658.837,104.838 C668.277,95.396 678.912,91.017 681.946,94.052 C684.982,97.086 680.603,107.721 671.163,117.161 C670.754,117.57 670.525,118.124 670.525,118.702 L670.525,118.704 L672.703,118.704 L671.163,117.164 Z M674.244,120.245 C674.653,119.836 674.882,119.282 674.882,118.704 L674.882,118.702 L672.703,118.702 L674.244,120.243 C685.225,109.262 690.503,96.444 685.027,90.971 C679.555,85.495 666.736,90.774 655.756,101.757 C644.775,112.738 639.498,125.556 644.972,131.03 C650.446,136.504 663.264,131.225 674.244,120.245 Z M671.163,104.836 C680.602,114.277 684.982,124.913 681.948,127.947 C678.913,130.983 668.277,126.603 658.837,117.162 C649.398,107.722 645.018,97.086 648.052,94.052 C651.087,91.017 661.723,95.396 671.163,104.838 C672.536,106.211 674.884,105.238 674.882,103.295 L674.882,103.293 L672.703,103.295 L671.163,104.836 Z M674.244,101.755 C672.871,100.381 670.523,101.355 670.525,103.297 L670.525,103.299 L672.703,103.297 L674.244,101.757 C663.264,90.774 650.445,85.496 644.97,90.971 C639.497,96.444 644.776,109.263 655.756,120.243 C666.736,131.225 679.554,136.504 685.03,131.028 C690.503,125.555 685.225,112.737 674.244,101.755 Z M663.909,111 C663.909,110.398 664.397,109.91 664.999,109.91 C665.601,109.91 666.088,110.398 666.088,111 C666.088,111.601 665.601,112.089 664.999,112.089 C664.397,112.089 663.909,111.601 663.909,111 Z M668.267,111 C668.267,109.195 666.804,107.731 664.999,107.731 C663.194,107.731 661.731,109.195 661.731,111 C661.731,112.805 663.194,114.268 664.999,114.268 C666.804,114.268 668.267,112.805 668.267,111 Z" />
        </g>
    </g>
</svg>