<?xml version="1.0" encoding="UTF-8"?>
<svg height="600" width="800" xmlns="http://www.w3.org/2000/svg" xmlns:xlink="http://www.w3.org/1999/xlink">
    <g id="Notes" font-family="LucidaGrande, 'Lucida Grande', sans-serif" font-size="13">
        <rect fill="white" height="600.0" width="800.0" x="0.0" y="0.0" />
        <g font-size="13">
            <text x="18.0" y="176.0">Small</text>
            <text x="18.0" y="376.0">Medium</text>
            <text x="18.0" y="576.0">Large</text>
        </g>
        <g font-size="9">
            <text x="250.0" y="30.0">Ultralight</text>
            <text x="450.0" y="30.0">Regular</text>
            <text x="650.0" y="30.0">Black</text>
            <text id="template-version" fill="#505050" text-anchor="end" x="785.0" y="575.0">Template v.3.0</text>
            <a href="https://github.com/swhitty/SwiftDraw">
                <text fill="#505050" text-anchor="end" x="785.0" y="590.0">https://github.com/swhitty/SwiftDraw</text>
            </a>
        </g>
    </g>
    <g id="Guides" stroke="rgb(39, 170, 225)" stroke-width="0.5">
        <path id="Capline-S" d="M18,76 l800,0" />
        <path id="H-reference" d="M85,145.755 L87.685,145.755 L113.369,79.287 L114.052,79.287 L114.052,76 L112.148,76 L85,145.755 Z M95.693,121.536 L130.996,121.536 L130.263,119.313 L96.474,119.313 L95.693,121.536 Z M139.15,145.755 L141.787,145.755 L114.638,76 L113.466,76 L113.466,79.287 L139.15,145.755 Z" stroke="none" transform="translate(0,200)" />
        <path id="Baseline-S" d="M18,146 l800,0" />
        <path id="left-margin-Ultralight-M" d="M221,256 l0,110" />
        <path id="right-margin-Ultralight-M" d="M309,256 l0,110" />
        <path id="left-margin-Regular-M" d="M421,256 l0,110" />
        <path id="right-margin-Regular-M" d="M509,256 l0,110" />
        <path id="left-margin-Black-M" d="M621,256 l0,110" />
        <path id="right-margin-Black-M" d="M709,256 l0,110" />
        <path id="Capline-M" d="M18,276 l800,0" />
        <path id="Baseline-M" d="M18,346 l800,0" />
        <path id="Capline-L" d="M18,476 l800,0" />
        <path id="Baseline-L" d="M18,546 l800,0" />
    </g>
    <g id="Symbols">
        <g id="Ultralight-M" transform="translate(0,200)">
            <path d="M262.209,134.965 C263.052,135.461 263.387,135.624 264.034,135.761 C264.632,135.888 265.368,135.888 265.969,135.76 C266.186,135.714 266.397,135.652 266.605,135.573 C266.975,135.433 267.176,135.324 267.784,134.969 C278.028,128.995 285.842,120.855 285.842,110.703 L285.842,101.903 C285.842,98.361 285.79,97.574 285.266,96.367 C284.819,95.204 283.952,94.137 282.826,93.408 C282.328,93.054 281.654,92.77 280.75,92.507 C279.897,92.259 279.126,92.087 276.629,91.568 C273.705,90.96 271.396,89.889 269.182,88.175 C267.35,86.759 267.048,86.549 266.202,86.323 C265.461,86.079 264.539,86.079 263.683,86.357 C262.952,86.549 262.65,86.759 260.818,88.175 C258.604,89.889 256.295,90.96 253.371,91.568 C250.866,92.089 250.104,92.259 249.251,92.507 C248.346,92.77 247.672,93.054 247.097,93.46 C245.951,94.27 245.292,95.082 244.734,96.368 C244.21,97.574 244.158,98.361 244.158,101.903 L244.158,110.703 C244.158,120.855 251.972,128.995 262.217,134.97 Z M264.55,130.969 C255.635,125.77 248.789,118.638 248.789,110.703 L248.789,101.903 C248.789,99.23 248.834,98.554 248.982,98.213 C249.203,97.704 249.318,97.562 249.77,97.242 C249.845,97.19 250.09,97.087 250.545,96.954 C251.23,96.755 251.962,96.592 254.315,96.102 C257.93,95.35 260.885,93.979 263.652,91.838 C264.7,91.028 265.059,90.78 264.997,90.796 C265.04,90.786 264.96,90.786 264.887,90.762 C264.941,90.78 265.3,91.028 266.348,91.839 C269.115,93.979 272.07,95.35 275.686,96.102 C278.031,96.59 278.77,96.755 279.456,96.954 C279.91,97.086 280.155,97.189 280.232,97.244 C280.615,97.494 280.85,97.784 280.981,98.124 C281.166,98.554 281.211,99.23 281.211,101.903 L281.211,110.703 C281.211,118.638 274.365,125.77 265.45,130.969 C265.09,131.179 264.995,131.23 264.961,131.243 C264.975,131.238 264.994,131.232 265.007,131.229 C265.039,131.223 264.961,131.223 264.996,131.23 C265.003,131.232 264.967,131.214 264.558,130.973 Z" />
        </g>
        <g id="Regular-M" transform="translate(0,200)">
            <path d="M462.209,134.965 C463.052,135.461 463.387,135.624 464.034,135.761 C464.632,135.888 465.368,135.888 465.969,135.76 C466.186,135.714 466.397,135.652 466.605,135.573 C466.975,135.433 467.176,135.324 467.784,134.969 C478.028,128.995 485.842,120.855 485.842,110.703 L485.842,101.903 C485.842,98.361 485.79,97.574 485.266,96.367 C484.819,95.204 483.952,94.137 482.826,93.408 C482.328,93.054 481.654,92.77 480.75,92.507 C479.897,92.259 479.126,92.087 476.629,91.568 C473.705,90.96 471.396,89.889 469.182,88.175 C467.35,86.759 467.048,86.549 466.202,86.323 C465.461,86.079 464.539,86.079 463.683,86.357 C462.952,86.549 462.65,86.759 460.818,88.175 C458.604,89.889 456.295,90.96 453.371,91.568 C450.866,92.089 450.104,92.259 449.251,92.507 C448.346,92.77 447.672,93.054 447.097,93.46 C445.951,94.27 445.292,95.082 444.734,96.368 C444.21,97.574 444.158,98.361 444.158,101.903 L444.158,110.703 C444.158,120.855 451.972,128.995 462.217,134.97 Z M464.55,130.969 C455.635,125.77 448.789,118.638 448.789,110.703 L448.789,101.903 C448.789,99.23 448.834,98.554 448.982,98.213 C449.203,97.704 449.318,97.562 449.77,97.242 C449.845,97.19 450.09,97.087 450.545,96.954 C451.23,96.755 451.962,96.592 454.315,96.102 C457.93,95.35 460.885,93.979 463.652,91.838 C464.7,91.028 465.059,90.78 464.997,90.796 C465.04,90.786 464.96,90.786 464.887,90.762 C464.941,90.78 465.3,91.028 466.348,91.839 C469.115,93.979 472.07,95.35 475.686,96.102 C478.031,96.59 478.77,96.755 479.456,96.954 C479.91,97.086 480.155,97.189 480.232,97.244 C480.615,97.494 480.85,97.784 480.981,98.124 C481.166,98.554 481.211,99.23 481.211,101.903 L481.211,110.703 C481.211,118.638 474.365,125.77 465.45,130.969 C465.09,131.179 464.995,131.23 464.961,131.243 C464.975,131.238 464.994,131.232 465.007,131.229 C465.039,131.223 464.961,131.223 464.996,131.23 C465.003,131.232 464.967,131.214 464.558,130.973 Z" />
        </g>
        <g id="Black-M" transform="translate(0,200)">
            <path d="M662.209,134.965 C663.052,135.461 663.387,135.624 664.034,135.761 C664.632,135.888 665.368,135.888 665.969,135.76 C666.186,135.714 666.397,135.652 666.605,135.573 C666.975,135.433 667.176,135.324 667.784,134.969 C678.028,128.995 685.842,120.855 685.842,110.703 L685.842,101.903 C685.842,98.361 685.79,97.574 685.266,96.367 C684.819,95.204 683.952,94.137 682.826,93.408 C682.328,93.054 681.654,92.77 680.75,92.507 C679.897,92.259 679.126,92.087 676.629,91.568 C673.705,90.96 671.396,89.889 669.182,88.175 C667.35,86.759 667.048,86.549 666.202,86.323 C665.461,86.079 664.539,86.079 663.683,86.357 C662.952,86.549 662.65,86.759 660.818,88.175 C658.604,89.889 656.295,90.96 653.371,91.568 C650.866,92.089 650.104,92.259 649.251,92.507 C648.346,92.77 647.672,93.054 647.097,93.46 C645.951,94.27 645.292,95.082 644.734,96.368 C644.21,97.574 644.158,98.361 644.158,101.903 L644.158,110.703 C644.158,120.855 651.972,128.995 662.217,134.97 Z M664.55,130.969 C655.635,125.77 648.789,118.638 648.789,110.703 L648.789,101.903 C648.789,99.23 648.834,98.554 648.982,98.213 C649.203,97.704 649.318,97.562 649.77,97.242 C649.845,97.19 650.09,97.087 650.545,96.954 C651.23,96.755 651.962,96.592 654.315,96.102 C657.93,95.35 660.885,93.979 663.652,91.838 C664.7,91.028 665.059,90.78 664.997,90.796 C665.04,90.786 664.96,90.786 664.887,90.762 C664.941,90.78 665.3,91.028 666.348,91.839 C669.115,93.979 672.07,95.35 675.686,96.102 C678.031,96.59 678.77,96.755 679.456,96.954 C679.91,97.086 680.155,97.189 680.232,97.244 C680.615,97.494 680.85,97.784 680.981,98.124 C681.166,98.554 681.211,99.23 681.211,101.903 L681.211,110.703 C681.211,118.638 674.365,125.77 665.45,130.969 C665.09,131.179 664.995,131.23 664.961,131.243 C664.975,131.238 664.994,131.232 665.007,131.229 C665.039,131.223 664.961,131.223 664.996,131.23 C665.003,131.232 664.967,131.214 664.558,130.973 Z" />
        </g>
    </g>
</svg>