<?xml version="1.0" encoding="UTF-8"?>
<svg height="600" width="800" xmlns="http://www.w3.org/2000/svg" xmlns:xlink="http://www.w3.org/1999/xlink">
    <g id="Notes" font-family="LucidaGrande, 'Lucida Grande', sans-serif" font-size="13">
        <rect fill="white" height="600.0" width="800.0" x="0.0" y="0.0" />
        <g font-size="13">
            <text x="18.0" y="176.0">Small</text>
            <text x="18.0" y="376.0">Medium</text>
            <text x="18.0" y="576.0">Large</text>
        </g>
        <g font-size="9">
            <text x="250.0" y="30.0">Ultralight</text>
            <text x="450.0" y="30.0">Regular</text>
            <text x="650.0" y="30.0">Black</text>
            <text id="template-version" fill="#505050" text-anchor="end" x="785.0" y="575.0">Template v.3.0</text>
            <a href="https://github.com/swhitty/SwiftDraw">
                <text fill="#505050" text-anchor="end" x="785.0" y="590.0">https://github.com/swhitty/SwiftDraw</text>
            </a>
        </g>
    </g>
    <g id="Guides" stroke="rgb(39, 170, 225)" stroke-width="0.5">
        <path id="Capline-S" d="M18,76 l800,0" />
        <path id="H-reference" d="M85,145.755 L87.685,145.755 L113.369,79.287 L114.052,79.287 L114.052,76 L112.148,76 L85,145.755 Z M95.693,121.536 L130.996,121.536 L130.263,119.313 L96.474,119.313 L95.693,121.536 Z M139.15,145.755 L141.787,145.755 L114.638,76 L113.466,76 L113.466,79.287 L139.15,145.755 Z" stroke="none" transform="translate(0,200)" />
        <path id="Baseline-S" d="M18,146 l800,0" />
        <path id="left-margin-Ultralight-M" d="M230,256 l0,110" />
        <path id="right-margin-Ultralight-M" d="M300,256 l0,110" />
        <path id="left-margin-Regular-M" d="M430,256 l0,110" />
        <path id="right-margin-Regular-M" d="M500,256 l0,110" />
        <path id="left-margin-Black-M" d="M630,256 l0,110" />
        <path id="right-margin-Black-M" d="M700,256 l0,110" />
        <path id="Capline-M" d="M18,276 l800,0" />
        <path id="Baseline-M" d="M18,346 l800,0" />
        <path id="Capline-L" d="M18,476 l800,0" />
        <path id="Baseline-L" d="M18,546 l800,0" />
    </g>
    <g id="Symbols">
        <g id="Ultralight-M" transform="translate(0,200)">
            <path d="M285.682,126.909 C294.122,126.909 300,115.992 300,103.045 C300,90.099 294.122,79.182 285.682,79.182 C283.925,79.182 282.5,80.606 282.5,82.364 C282.5,84.121 283.925,85.545 285.682,85.545 C289.543,85.545 293.636,93.147 293.636,103.045 C293.636,112.944 289.543,120.545 285.682,120.545 C283.925,120.545 282.5,121.97 282.5,123.727 C282.5,125.485 283.925,126.909 285.682,126.909 Z M285.682,120.545 C281.82,120.545 277.727,112.944 277.727,103.045 C277.727,93.147 281.82,85.545 285.682,85.545 C287.439,85.545 288.864,84.121 288.864,82.364 C288.864,80.606 287.439,79.182 285.682,79.182 C277.242,79.182 271.364,90.099 271.364,103.045 C271.364,115.992 277.242,126.909 285.682,126.909 C287.439,126.909 288.864,125.485 288.864,123.727 C288.864,121.97 287.439,120.545 285.682,120.545 Z M286.251,120.597 L244.709,113.043 C241.401,112.444 240.585,112.253 239.919,111.927 C238.303,111.132 237.098,109.689 236.605,107.954 C236.404,107.245 236.364,106.431 236.364,103.045 C236.364,99.66 236.404,98.846 236.606,98.135 C237.098,96.402 238.303,94.958 239.921,94.163 C240.281,93.987 240.766,93.832 241.584,93.649 C242.244,93.502 242.859,93.385 244.71,93.048 L286.251,85.494 C287.98,85.18 289.127,83.523 288.812,81.794 C288.498,80.065 286.842,78.919 285.113,79.233 L243.571,86.787 C241.621,87.142 240.972,87.265 240.195,87.439 C238.928,87.723 237.997,88.019 237.116,88.451 C233.879,90.042 231.469,92.93 230.484,96.398 C230.05,97.928 230,98.931 230,103.045 C230,107.16 230.05,108.163 230.483,109.692 C231.469,113.161 233.879,116.049 237.115,117.639 C238.545,118.341 239.557,118.578 243.573,119.305 L285.113,126.858 C286.842,127.172 288.498,126.025 288.812,124.296 C289.127,122.568 287.98,120.911 286.251,120.597 Z M239.554,117.59 L240.807,135.135 C240.995,137.798 241.096,138.459 241.761,139.621 C242.402,140.735 243.36,141.627 244.513,142.183 C245.714,142.766 246.364,142.818 249.059,142.818 L254.729,142.818 C257.794,142.818 258.506,142.758 259.81,142.056 C261.051,141.389 262.035,140.329 262.609,139.041 C263.207,137.672 263.213,136.92 262.976,133.905 L261.809,118.711 C261.674,116.959 260.145,115.647 258.393,115.782 C256.641,115.917 255.329,117.446 255.464,119.198 L256.632,134.398 C256.765,136.097 256.762,136.529 256.787,136.472 C256.796,136.452 256.796,136.452 256.796,136.452 C256.857,136.419 256.437,136.455 254.729,136.455 L249.059,136.455 C247.576,136.455 247.226,136.427 247.286,136.456 C247.28,136.453 247.28,136.453 247.28,136.453 C247.312,136.508 247.259,136.161 247.155,134.684 L245.901,117.137 C245.776,115.384 244.253,114.065 242.501,114.19 C240.748,114.315 239.428,115.838 239.554,117.59 Z" />
        </g>
        <g id="Regular-M" transform="translate(0,200)">
            <path d="M485.682,126.909 C494.122,126.909 500,115.992 500,103.045 C500,90.099 494.122,79.182 485.682,79.182 C483.925,79.182 482.5,80.606 482.5,82.364 C482.5,84.121 483.925,85.545 485.682,85.545 C489.543,85.545 493.636,93.147 493.636,103.045 C493.636,112.944 489.543,120.545 485.682,120.545 C483.925,120.545 482.5,121.97 482.5,123.727 C482.5,125.485 483.925,126.909 485.682,126.909 Z M485.682,120.545 C481.82,120.545 477.727,112.944 477.727,103.045 C477.727,93.147 481.82,85.545 485.682,85.545 C487.439,85.545 488.864,84.121 488.864,82.364 C488.864,80.606 487.439,79.182 485.682,79.182 C477.242,79.182 471.364,90.099 471.364,103.045 C471.364,115.992 477.242,126.909 485.682,126.909 C487.439,126.909 488.864,125.485 488.864,123.727 C488.864,121.97 487.439,120.545 485.682,120.545 Z M486.251,120.597 L444.709,113.043 C441.401,112.444 440.585,112.253 439.919,111.927 C438.303,111.132 437.098,109.689 436.605,107.954 C436.404,107.245 436.364,106.431 436.364,103.045 C436.364,99.66 436.404,98.846 436.606,98.135 C437.098,96.402 438.303,94.958 439.921,94.163 C440.281,93.987 440.766,93.832 441.584,93.649 C442.244,93.502 442.859,93.385 444.71,93.048 L486.251,85.494 C487.98,85.18 489.127,83.523 488.812,81.794 C488.498,80.065 486.842,78.919 485.113,79.233 L443.571,86.787 C441.621,87.142 440.972,87.265 440.195,87.439 C438.928,87.723 437.997,88.019 437.116,88.451 C433.879,90.042 431.469,92.93 430.484,96.398 C430.05,97.928 430,98.931 430,103.045 C430,107.16 430.05,108.163 430.483,109.692 C431.469,113.161 433.879,116.049 437.115,117.639 C438.545,118.341 439.557,118.578 443.573,119.305 L485.113,126.858 C486.842,127.172 488.498,126.025 488.812,124.296 C489.127,122.568 487.98,120.911 486.251,120.597 Z M439.554,117.59 L440.807,135.135 C440.995,137.798 441.096,138.459 441.761,139.621 C442.402,140.735 443.36,141.627 444.513,142.183 C445.714,142.766 446.364,142.818 449.059,142.818 L454.729,142.818 C457.794,142.818 458.506,142.758 459.81,142.056 C461.051,141.389 462.035,140.329 462.609,139.041 C463.207,137.672 463.213,136.92 462.976,133.905 L461.809,118.711 C461.674,116.959 460.145,115.647 458.393,115.782 C456.641,115.917 455.329,117.446 455.464,119.198 L456.632,134.398 C456.765,136.097 456.762,136.529 456.787,136.472 C456.796,136.452 456.796,136.452 456.796,136.452 C456.857,136.419 456.437,136.455 454.729,136.455 L449.059,136.455 C447.576,136.455 447.226,136.427 447.286,136.456 C447.28,136.453 447.28,136.453 447.28,136.453 C447.312,136.508 447.259,136.161 447.155,134.684 L445.901,117.137 C445.776,115.384 444.253,114.065 442.5,114.19 C440.748,114.315 439.428,115.838 439.554,117.59 Z" />
        </g>
        <g id="Black-M" transform="translate(0,200)">
            <path d="M685.682,126.909 C694.122,126.909 700,115.992 700,103.045 C700,90.099 694.122,79.182 685.682,79.182 C683.925,79.182 682.5,80.606 682.5,82.364 C682.5,84.121 683.925,85.545 685.682,85.545 C689.543,85.545 693.636,93.147 693.636,103.045 C693.636,112.944 689.543,120.545 685.682,120.545 C683.925,120.545 682.5,121.97 682.5,123.727 C682.5,125.485 683.925,126.909 685.682,126.909 Z M685.682,120.545 C681.82,120.545 677.727,112.944 677.727,103.045 C677.727,93.147 681.82,85.545 685.682,85.545 C687.439,85.545 688.864,84.121 688.864,82.364 C688.864,80.606 687.439,79.182 685.682,79.182 C677.242,79.182 671.364,90.099 671.364,103.045 C671.364,115.992 677.242,126.909 685.682,126.909 C687.439,126.909 688.864,125.485 688.864,123.727 C688.864,121.97 687.439,120.545 685.682,120.545 Z M686.251,120.597 L644.709,113.043 C641.401,112.444 640.585,112.253 639.919,111.927 C638.303,111.132 637.098,109.689 636.605,107.954 C636.404,107.245 636.364,106.431 636.364,103.045 C636.364,99.66 636.404,98.846 636.606,98.135 C637.098,96.402 638.303,94.958 639.921,94.163 C640.281,93.987 640.766,93.832 641.584,93.649 C642.244,93.502 642.859,93.385 644.71,93.048 L686.251,85.494 C687.98,85.18 689.127,83.523 688.812,81.794 C688.498,80.065 686.841,78.919 685.113,79.233 L643.571,86.787 C641.621,87.142 640.972,87.265 640.195,87.439 C638.928,87.723 637.997,88.019 637.116,88.451 C633.879,90.042 631.469,92.93 630.484,96.398 C630.05,97.928 630,98.931 630,103.045 C630,107.16 630.05,108.163 630.483,109.692 C631.469,113.161 633.879,116.049 637.115,117.639 C638.545,118.341 639.557,118.578 643.573,119.305 L685.113,126.858 C686.841,127.172 688.498,126.025 688.812,124.296 C689.127,122.568 687.98,120.911 686.251,120.597 Z M639.554,117.59 L640.807,135.135 C640.995,137.798 641.096,138.459 641.761,139.621 C642.402,140.735 643.36,141.627 644.513,142.183 C645.714,142.766 646.364,142.818 649.059,142.818 L654.729,142.818 C657.794,142.818 658.506,142.758 659.81,142.056 C661.051,141.389 662.036,140.329 662.609,139.041 C663.207,137.672 663.213,136.92 662.976,133.905 L661.809,118.711 C661.674,116.959 660.145,115.647 658.393,115.782 C656.641,115.917 655.329,117.446 655.464,119.198 L656.632,134.398 C656.765,136.097 656.762,136.529 656.787,136.472 C656.796,136.452 656.796,136.452 656.796,136.452 C656.857,136.419 656.437,136.455 654.729,136.455 L649.059,136.455 C647.576,136.455 647.226,136.427 647.286,136.456 C647.28,136.453 647.28,136.453 647.28,136.453 C647.312,136.508 647.259,136.161 647.155,134.684 L645.901,117.137 C645.776,115.384 644.253,114.065 642.5,114.19 C640.748,114.315 639.428,115.838 639.554,117.59 Z" />
        </g>
    </g>
</svg>