<?xml version="1.0" encoding="UTF-8"?>
<svg height="600" width="800" xmlns="http://www.w3.org/2000/svg" xmlns:xlink="http://www.w3.org/1999/xlink">
    <g id="Notes" font-family="LucidaGrande, 'Lucida Grande', sans-serif" font-size="13">
        <rect fill="white" height="600.0" width="800.0" x="0.0" y="0.0" />
        <g font-size="13">
            <text x="18.0" y="176.0">Small</text>
            <text x="18.0" y="376.0">Medium</text>
            <text x="18.0" y="576.0">Large</text>
        </g>
        <g font-size="9">
            <text x="250.0" y="30.0">Ultralight</text>
            <text x="450.0" y="30.0">Regular</text>
            <text x="650.0" y="30.0">Black</text>
            <text id="template-version" fill="#505050" text-anchor="end" x="785.0" y="575.0">Template v.3.0</text>
            <a href="https://github.com/swhitty/SwiftDraw">
                <text fill="#505050" text-anchor="end" x="785.0" y="590.0">https://github.com/swhitty/SwiftDraw</text>
            </a>
        </g>
    </g>
    <g id="Guides" stroke="rgb(39, 170, 225)" stroke-width="0.5">
        <path id="Capline-S" d="M18,76 l800,0" />
        <path id="H-reference" d="M85,145.755 L87.685,145.755 L113.369,79.287 L114.052,79.287 L114.052,76 L112.148,76 L85,145.755 Z M95.693,121.536 L130.996,121.536 L130.263,119.313 L96.474,119.313 L95.693,121.536 Z M139.15,145.755 L141.787,145.755 L114.638,76 L113.466,76 L113.466,79.287 L139.15,145.755 Z" stroke="none" transform="translate(0,200)" />
        <path id="Baseline-S" d="M18,146 l800,0" />
        <path id="left-margin-Ultralight-M" d="M230,256 l0,110" />
        <path id="right-margin-Ultralight-M" d="M300,256 l0,110" />
        <path id="left-margin-Regular-M" d="M430,256 l0,110" />
        <path id="right-margin-Regular-M" d="M500,256 l0,110" />
        <path id="left-margin-Black-M" d="M630,256 l0,110" />
        <path id="right-margin-Black-M" d="M700,256 l0,110" />
        <path id="Capline-M" d="M18,276 l800,0" />
        <path id="Baseline-M" d="M18,346 l800,0" />
        <path id="Capline-L" d="M18,476 l800,0" />
        <path id="Baseline-L" d="M18,546 l800,0" />
    </g>
    <g id="Symbols">
        <g id="Ultralight-M" transform="translate(0,200)">
            <path d="M248.065,79.182 L248.065,85.545 C248.065,87.303 250.086,88.727 252.581,88.727 C255.075,88.727 257.097,87.303 257.097,85.545 L257.097,79.182 C257.097,77.425 255.075,76 252.581,76 C250.086,76 248.065,77.425 248.065,79.182 Z M248.065,136.455 L248.065,142.818 C248.065,144.575 250.086,146 252.581,146 C255.075,146 257.097,144.575 257.097,142.818 L257.097,136.455 C257.097,134.697 255.075,133.273 252.581,133.273 C250.086,133.273 248.065,134.697 248.065,136.455 Z M266.129,79.182 L266.129,85.545 C266.129,87.303 268.151,88.727 270.645,88.727 C273.139,88.727 275.161,87.303 275.161,85.545 L275.161,79.182 C275.161,77.425 273.139,76 270.645,76 C268.151,76 266.129,77.425 266.129,79.182 Z M266.129,136.455 L266.129,142.818 C266.129,144.575 268.151,146 270.645,146 C273.139,146 275.161,144.575 275.161,142.818 L275.161,136.455 C275.161,134.697 273.139,133.273 270.645,133.273 C268.151,133.273 266.129,134.697 266.129,136.455 Z M243.548,88.727 L272.903,88.727 C280.386,88.727 286.452,93.001 286.452,98.273 C286.452,103.545 280.386,107.818 272.903,107.818 L243.548,107.818 L243.548,114.182 L277.419,114.182 C284.902,114.182 290.968,118.455 290.968,123.727 C290.968,128.999 284.902,133.273 277.419,133.273 L243.548,133.273 C241.054,133.273 239.032,134.697 239.032,136.455 C239.032,138.212 241.054,139.636 243.548,139.636 L277.419,139.636 C289.89,139.636 300,132.514 300,123.727 C300,114.941 289.89,107.818 277.419,107.818 L243.548,107.818 C237.527,107.818 237.527,114.182 243.548,114.182 L272.903,114.182 C285.374,114.182 295.484,107.059 295.484,98.273 C295.484,89.486 285.374,82.364 272.903,82.364 L243.548,82.364 C241.054,82.364 239.032,83.788 239.032,85.545 C239.032,87.303 241.054,88.727 243.548,88.727 Z M243.548,82.364 L234.516,82.364 C232.022,82.364 230,83.788 230,85.545 C230,87.303 232.022,88.727 234.516,88.727 L243.548,88.727 C246.043,88.727 248.065,87.303 248.065,85.545 C248.065,83.788 246.043,82.364 243.548,82.364 Z M239.032,85.545 L239.032,136.455 C239.032,138.212 241.054,139.636 243.548,139.636 C246.043,139.636 248.065,138.212 248.065,136.455 L248.065,85.545 C248.065,83.788 246.043,82.364 243.548,82.364 C241.054,82.364 239.032,83.788 239.032,85.545 Z M243.548,133.273 L234.516,133.273 C232.022,133.273 230,134.697 230,136.455 C230,138.212 232.022,139.636 234.516,139.636 L243.548,139.636 C246.043,139.636 248.065,138.212 248.065,136.455 C248.065,134.697 246.043,133.273 243.548,133.273 Z" />
        </g>
        <g id="Regular-M" transform="translate(0,200)">
            <path d="M448.065,79.182 L448.065,85.545 C448.065,87.303 450.086,88.727 452.581,88.727 C455.075,88.727 457.097,87.303 457.097,85.545 L457.097,79.182 C457.097,77.425 455.075,76 452.581,76 C450.086,76 448.065,77.425 448.065,79.182 Z M448.065,136.455 L448.065,142.818 C448.065,144.575 450.086,146 452.581,146 C455.075,146 457.097,144.575 457.097,142.818 L457.097,136.455 C457.097,134.697 455.075,133.273 452.581,133.273 C450.086,133.273 448.065,134.697 448.065,136.455 Z M466.129,79.182 L466.129,85.545 C466.129,87.303 468.151,88.727 470.645,88.727 C473.139,88.727 475.161,87.303 475.161,85.545 L475.161,79.182 C475.161,77.425 473.139,76 470.645,76 C468.151,76 466.129,77.425 466.129,79.182 Z M466.129,136.455 L466.129,142.818 C466.129,144.575 468.151,146 470.645,146 C473.139,146 475.161,144.575 475.161,142.818 L475.161,136.455 C475.161,134.697 473.139,133.273 470.645,133.273 C468.151,133.273 466.129,134.697 466.129,136.455 Z M443.548,88.727 L472.903,88.727 C480.386,88.727 486.452,93.001 486.452,98.273 C486.452,103.545 480.386,107.818 472.903,107.818 L443.548,107.818 L443.548,114.182 L477.419,114.182 C484.902,114.182 490.968,118.455 490.968,123.727 C490.968,128.999 484.902,133.273 477.419,133.273 L443.548,133.273 C441.054,133.273 439.032,134.697 439.032,136.455 C439.032,138.212 441.054,139.636 443.548,139.636 L477.419,139.636 C489.89,139.636 500,132.514 500,123.727 C500,114.941 489.89,107.818 477.419,107.818 L443.548,107.818 C437.527,107.818 437.527,114.182 443.548,114.182 L472.903,114.182 C485.374,114.182 495.484,107.059 495.484,98.273 C495.484,89.486 485.374,82.364 472.903,82.364 L443.548,82.364 C441.054,82.364 439.032,83.788 439.032,85.545 C439.032,87.303 441.054,88.727 443.548,88.727 Z M443.548,82.364 L434.516,82.364 C432.022,82.364 430,83.788 430,85.545 C430,87.303 432.022,88.727 434.516,88.727 L443.548,88.727 C446.043,88.727 448.065,87.303 448.065,85.545 C448.065,83.788 446.043,82.364 443.548,82.364 Z M439.032,85.545 L439.032,136.455 C439.032,138.212 441.054,139.636 443.548,139.636 C446.043,139.636 448.065,138.212 448.065,136.455 L448.065,85.545 C448.065,83.788 446.043,82.364 443.548,82.364 C441.054,82.364 439.032,83.788 439.032,85.545 Z M443.548,133.273 L434.516,133.273 C432.022,133.273 430,134.697 430,136.455 C430,138.212 432.022,139.636 434.516,139.636 L443.548,139.636 C446.043,139.636 448.065,138.212 448.065,136.455 C448.065,134.697 446.043,133.273 443.548,133.273 Z" />
        </g>
        <g id="Black-M" transform="translate(0,200)">
            <path d="M648.065,79.182 L648.065,85.545 C648.065,87.303 650.086,88.727 652.581,88.727 C655.075,88.727 657.097,87.303 657.097,85.545 L657.097,79.182 C657.097,77.425 655.075,76 652.581,76 C650.086,76 648.065,77.425 648.065,79.182 Z M648.065,136.455 L648.065,142.818 C648.065,144.575 650.086,146 652.581,146 C655.075,146 657.097,144.575 657.097,142.818 L657.097,136.455 C657.097,134.697 655.075,133.273 652.581,133.273 C650.086,133.273 648.065,134.697 648.065,136.455 Z M666.129,79.182 L666.129,85.545 C666.129,87.303 668.151,88.727 670.645,88.727 C673.139,88.727 675.161,87.303 675.161,85.545 L675.161,79.182 C675.161,77.425 673.139,76 670.645,76 C668.151,76 666.129,77.425 666.129,79.182 Z M666.129,136.455 L666.129,142.818 C666.129,144.575 668.151,146 670.645,146 C673.139,146 675.161,144.575 675.161,142.818 L675.161,136.455 C675.161,134.697 673.139,133.273 670.645,133.273 C668.151,133.273 666.129,134.697 666.129,136.455 Z M643.548,88.727 L672.903,88.727 C680.386,88.727 686.452,93.001 686.452,98.273 C686.452,103.545 680.386,107.818 672.903,107.818 L643.548,107.818 L643.548,114.182 L677.419,114.182 C684.902,114.182 690.968,118.455 690.968,123.727 C690.968,128.999 684.902,133.273 677.419,133.273 L643.548,133.273 C641.054,133.273 639.032,134.697 639.032,136.455 C639.032,138.212 641.054,139.636 643.548,139.636 L677.419,139.636 C689.89,139.636 700,132.514 700,123.727 C700,114.941 689.89,107.818 677.419,107.818 L643.548,107.818 C637.527,107.818 637.527,114.182 643.548,114.182 L672.903,114.182 C685.374,114.182 695.484,107.059 695.484,98.273 C695.484,89.486 685.374,82.364 672.903,82.364 L643.548,82.364 C641.054,82.364 639.032,83.788 639.032,85.545 C639.032,87.303 641.054,88.727 643.548,88.727 Z M643.548,82.364 L634.516,82.364 C632.022,82.364 630,83.788 630,85.545 C630,87.303 632.022,88.727 634.516,88.727 L643.548,88.727 C646.043,88.727 648.065,87.303 648.065,85.545 C648.065,83.788 646.043,82.364 643.548,82.364 Z M639.032,85.545 L639.032,136.455 C639.032,138.212 641.054,139.636 643.548,139.636 C646.043,139.636 648.065,138.212 648.065,136.455 L648.065,85.545 C648.065,83.788 646.043,82.364 643.548,82.364 C641.054,82.364 639.032,83.788 639.032,85.545 Z M643.548,133.273 L634.516,133.273 C632.022,133.273 630,134.697 630,136.455 C630,138.212 632.022,139.636 634.516,139.636 L643.548,139.636 C646.043,139.636 648.065,138.212 648.065,136.455 C648.065,134.697 646.043,133.273 643.548,133.273 Z" />
        </g>
    </g>
</svg>