<?xml version="1.0" encoding="UTF-8"?>
<svg height="600" width="800" xmlns="http://www.w3.org/2000/svg" xmlns:xlink="http://www.w3.org/1999/xlink">
    <g id="Notes" font-family="LucidaGrande, 'Lucida Grande', sans-serif" font-size="13">
        <rect fill="white" height="600.0" width="800.0" x="0.0" y="0.0" />
        <g font-size="13">
            <text x="18.0" y="176.0">Small</text>
            <text x="18.0" y="376.0">Medium</text>
            <text x="18.0" y="576.0">Large</text>
        </g>
        <g font-size="9">
            <text x="250.0" y="30.0">Ultralight</text>
            <text x="450.0" y="30.0">Regular</text>
            <text x="650.0" y="30.0">Black</text>
            <text id="template-version" fill="#505050" text-anchor="end" x="785.0" y="575.0">Template v.3.0</text>
            <a href="https://github.com/swhitty/SwiftDraw">
                <text fill="#505050" text-anchor="end" x="785.0" y="590.0">https://github.com/swhitty/SwiftDraw</text>
            </a>
        </g>
    </g>
    <g id="Guides" stroke="rgb(39, 170, 225)" stroke-width="0.5">
        <path id="Capline-S" d="M18,76 l800,0" />
        <path id="H-reference" d="M85,145.755 L87.685,145.755 L113.369,79.287 L114.052,79.287 L114.052,76 L112.148,76 L85,145.755 Z M95.693,121.536 L130.996,121.536 L130.263,119.313 L96.474,119.313 L95.693,121.536 Z M139.15,145.755 L141.787,145.755 L114.638,76 L113.466,76 L113.466,79.287 L139.15,145.755 Z" stroke="none" transform="translate(0,200)" />
        <path id="Baseline-S" d="M18,146 l800,0" />
        <path id="left-margin-Ultralight-M" d="M226.111,256 l0,110" />
        <path id="right-margin-Ultralight-M" d="M303.889,256 l0,110" />
        <path id="left-margin-Regular-M" d="M426.111,256 l0,110" />
        <path id="right-margin-Regular-M" d="M503.889,256 l0,110" />
        <path id="left-margin-Black-M" d="M626.111,256 l0,110" />
        <path id="right-margin-Black-M" d="M703.889,256 l0,110" />
        <path id="Capline-M" d="M18,276 l800,0" />
        <path id="Baseline-M" d="M18,346 l800,0" />
        <path id="Capline-L" d="M18,476 l800,0" />
        <path id="Baseline-L" d="M18,546 l800,0" />
    </g>
    <g id="Symbols">
        <g id="Ultralight-M" transform="translate(0,200)">
            <path d="M296.341,110.98 C296.341,120.097 291.745,128.623 284.052,133.778 C276.36,138.933 266.561,140.056 257.856,136.78 C256.583,136.308 256.577,136.306 256.094,136.198 C255.638,136.092 255.141,136.03 254.642,136.018 C253.99,136.019 253.443,136.056 252.9,136.128 L233.696,138.067 C232.565,138.18 232.184,138.212 231.9,138.215 C231.997,138.214 232.28,138.264 232.743,138.541 C233.212,138.819 233.535,139.291 233.621,139.827 C233.705,140.35 233.644,140.624 233.606,140.711 C233.718,140.455 233.903,140.106 234.433,139.151 L240.609,127.992 C241.477,126.41 241.617,126.129 241.826,125.313 C242.036,124.572 242.112,123.711 242.026,122.859 C241.962,122.077 241.851,121.712 241.198,119.816 C237.636,109.444 240.676,97.993 248.953,90.616 C257.229,83.238 269.183,81.323 279.44,85.732 C289.696,90.141 296.323,100.043 296.341,110.986 Z M303.889,110.975 C303.866,97.113 295.472,84.57 282.481,78.986 C269.489,73.401 254.347,75.827 243.864,85.172 C233.38,94.517 229.529,109.021 234.043,122.163 C234.414,123.242 234.513,123.566 234.508,123.516 C234.509,123.53 234.513,123.484 234.526,123.44 C234.517,123.471 234.425,123.657 233.963,124.498 L227.794,135.643 C226.111,138.678 225.881,139.204 226.163,140.966 C226.42,142.571 227.389,143.987 228.812,144.833 C230.365,145.76 230.907,145.754 234.468,145.4 L253.796,143.446 C254.131,143.403 254.347,143.389 254.565,143.388 C254.435,143.386 254.409,143.383 254.383,143.377 C254.372,143.375 254.499,143.419 255.16,143.664 C266.168,147.807 278.58,146.385 288.323,139.856 C298.067,133.325 303.889,122.526 303.889,110.98 Z" />
        </g>
        <g id="Regular-M" transform="translate(0,200)">
            <path d="M496.341,110.98 C496.341,120.097 491.745,128.623 484.052,133.778 C476.36,138.933 466.561,140.056 457.856,136.78 C456.583,136.308 456.577,136.306 456.094,136.198 C455.638,136.092 455.141,136.03 454.642,136.018 C453.99,136.019 453.443,136.056 452.9,136.128 L433.696,138.067 C432.565,138.18 432.184,138.212 431.9,138.215 C431.997,138.214 432.28,138.264 432.743,138.541 C433.212,138.819 433.535,139.291 433.621,139.827 C433.705,140.35 433.644,140.624 433.606,140.711 C433.718,140.455 433.903,140.106 434.433,139.151 L440.609,127.992 C441.477,126.41 441.617,126.129 441.826,125.313 C442.036,124.572 442.112,123.711 442.026,122.859 C441.962,122.077 441.851,121.712 441.198,119.816 C437.636,109.444 440.676,97.993 448.953,90.616 C457.229,83.238 469.183,81.323 479.44,85.732 C489.696,90.141 496.323,100.043 496.341,110.986 Z M503.889,110.975 C503.866,97.113 495.472,84.57 482.481,78.986 C469.489,73.401 454.347,75.827 443.864,85.172 C433.38,94.517 429.529,109.021 434.043,122.163 C434.414,123.242 434.513,123.566 434.509,123.516 C434.509,123.53 434.513,123.484 434.526,123.44 C434.517,123.471 434.425,123.657 433.963,124.498 L427.794,135.643 C426.111,138.678 425.881,139.204 426.163,140.966 C426.42,142.571 427.389,143.987 428.812,144.833 C430.365,145.76 430.907,145.754 434.468,145.4 L453.796,143.446 C454.131,143.403 454.347,143.389 454.565,143.388 C454.435,143.386 454.409,143.383 454.383,143.377 C454.372,143.375 454.499,143.419 455.16,143.664 C466.168,147.807 478.58,146.385 488.323,139.856 C498.067,133.325 503.889,122.526 503.889,110.98 Z" />
        </g>
        <g id="Black-M" transform="translate(0,200)">
            <path d="M696.341,110.98 C696.341,120.097 691.745,128.623 684.052,133.778 C676.36,138.933 666.561,140.056 657.856,136.78 C656.583,136.308 656.577,136.306 656.094,136.198 C655.638,136.092 655.141,136.03 654.642,136.018 C653.99,136.019 653.443,136.056 652.9,136.128 L633.696,138.067 C632.565,138.18 632.184,138.212 631.9,138.215 C631.997,138.214 632.28,138.264 632.743,138.541 C633.212,138.819 633.535,139.291 633.621,139.827 C633.704,140.35 633.644,140.624 633.606,140.711 C633.718,140.455 633.903,140.106 634.433,139.151 L640.609,127.992 C641.477,126.41 641.617,126.129 641.826,125.313 C642.036,124.572 642.112,123.711 642.026,122.859 C641.962,122.077 641.851,121.712 641.198,119.816 C637.636,109.444 640.676,97.993 648.953,90.616 C657.229,83.238 669.183,81.323 679.439,85.732 C689.696,90.141 696.323,100.043 696.341,110.986 Z M703.889,110.975 C703.866,97.113 695.472,84.57 682.481,78.986 C669.489,73.401 654.347,75.827 643.864,85.172 C633.38,94.517 629.529,109.021 634.043,122.163 C634.414,123.242 634.513,123.566 634.508,123.516 C634.509,123.53 634.513,123.484 634.526,123.44 C634.517,123.471 634.424,123.657 633.963,124.498 L627.794,135.643 C626.111,138.678 625.881,139.204 626.163,140.966 C626.42,142.571 627.389,143.987 628.812,144.833 C630.365,145.76 630.907,145.754 634.468,145.4 L653.796,143.446 C654.13,143.403 654.347,143.389 654.565,143.388 C654.435,143.386 654.409,143.383 654.383,143.377 C654.372,143.375 654.499,143.419 655.16,143.664 C666.168,147.807 678.58,146.385 688.323,139.856 C698.067,133.325 703.889,122.526 703.889,110.98 Z" />
        </g>
    </g>
</svg>