<?xml version="1.0" encoding="UTF-8"?>
<svg height="600" width="800" xmlns="http://www.w3.org/2000/svg" xmlns:xlink="http://www.w3.org/1999/xlink">
    <g id="Notes" font-family="LucidaGrande, 'Lucida Grande', sans-serif" font-size="13">
        <rect fill="white" height="600.0" width="800.0" x="0.0" y="0.0" />
        <g font-size="13">
            <text x="18.0" y="176.0">Small</text>
            <text x="18.0" y="376.0">Medium</text>
            <text x="18.0" y="576.0">Large</text>
        </g>
        <g font-size="9">
            <text x="250.0" y="30.0">Ultralight</text>
            <text x="450.0" y="30.0">Regular</text>
            <text x="650.0" y="30.0">Black</text>
            <text id="template-version" fill="#505050" text-anchor="end" x="785.0" y="575.0">Template v.3.0</text>
            <a href="https://github.com/swhitty/SwiftDraw">
                <text fill="#505050" text-anchor="end" x="785.0" y="590.0">https://github.com/swhitty/SwiftDraw</text>
            </a>
        </g>
    </g>
    <g id="Guides" stroke="rgb(39, 170, 225)" stroke-width="0.5">
        <path id="Capline-S" d="M18,76 l800,0" />
        <path id="H-reference" d="M85,145.755 L87.685,145.755 L113.369,79.287 L114.052,79.287 L114.052,76 L112.148,76 L85,145.755 Z M95.693,121.536 L130.996,121.536 L130.263,119.313 L96.474,119.313 L95.693,121.536 Z M139.15,145.755 L141.787,145.755 L114.638,76 L113.466,76 L113.466,79.287 L139.15,145.755 Z" stroke="none" transform="translate(0,200)" />
        <path id="Baseline-S" d="M18,146 l800,0" />
        <path id="left-margin-Ultralight-M" d="M230,256 l0,110" />
        <path id="right-margin-Ultralight-M" d="M300,256 l0,110" />
        <path id="left-margin-Regular-M" d="M430,256 l0,110" />
        <path id="right-margin-Regular-M" d="M500,256 l0,110" />
        <path id="left-margin-Black-M" d="M630,256 l0,110" />
        <path id="right-margin-Black-M" d="M700,256 l0,110" />
        <path id="Capline-M" d="M18,276 l800,0" />
        <path id="Baseline-M" d="M18,346 l800,0" />
        <path id="Capline-L" d="M18,476 l800,0" />
        <path id="Baseline-L" d="M18,546 l800,0" />
    </g>
    <g id="Symbols">
        <g id="Ultralight-M" transform="translate(0,200)">
            <path d="M273.75,99.333 C273.75,104.166 269.832,108.083 265,108.083 C260.168,108.083 256.25,104.166 256.25,99.333 C256.25,97.723 254.944,96.417 253.333,96.417 C251.723,96.417 250.417,97.723 250.417,99.333 C250.417,107.387 256.946,113.917 265,113.917 C273.054,113.917 279.583,107.387 279.583,99.333 C279.583,97.723 278.277,96.417 276.667,96.417 C275.056,96.417 273.75,97.723 273.75,99.333 Z M237.69,97.344 L235.648,121.844 C235.047,129.072 235.049,130.754 236.118,133.186 C237.158,135.56 238.963,137.522 241.246,138.759 C243.58,140.024 245.275,140.167 252.505,140.167 L277.492,140.167 C284.721,140.167 286.417,140.023 288.752,138.758 C291.034,137.524 292.841,135.561 293.883,133.183 C294.949,130.751 294.951,129.05 294.352,121.845 L292.31,97.344 C292.205,96.09 292.162,95.586 292.107,94.984 C291.756,91.168 291.382,89.37 290.348,87.607 C289.172,85.596 287.419,83.983 285.317,82.977 C283.175,81.951 281.679,81.833 275.45,81.833 L254.547,81.833 C248.317,81.833 246.821,81.951 244.681,82.978 C242.582,83.981 240.828,85.592 239.649,87.604 C238.448,89.656 238.205,91.148 237.69,97.345 Z M243.503,97.828 C243.927,92.72 244.126,91.503 244.683,90.551 C245.271,89.548 246.148,88.742 247.2,88.239 C248.193,87.763 249.416,87.667 254.547,87.667 L275.45,87.667 C280.583,87.667 281.806,87.763 282.798,88.238 C283.849,88.741 284.726,89.548 285.314,90.554 C285.775,91.341 286.024,92.534 286.298,95.518 C286.351,96.099 286.394,96.593 286.497,97.83 L288.539,122.328 C289.034,128.284 289.032,129.72 288.541,130.841 C288.02,132.03 287.116,133.011 285.974,133.629 C284.897,134.212 283.464,134.333 277.492,134.333 L252.505,134.333 C246.531,134.333 245.1,134.213 244.025,133.63 C242.883,133.011 241.98,132.03 241.459,130.841 C240.967,129.72 240.965,128.297 241.461,122.328 L243.503,97.828 Z" />
        </g>
        <g id="Regular-M" transform="translate(0,200)">
            <path d="M473.75,99.333 C473.75,104.166 469.832,108.083 465,108.083 C460.168,108.083 456.25,104.166 456.25,99.333 C456.25,97.723 454.944,96.417 453.333,96.417 C451.723,96.417 450.417,97.723 450.417,99.333 C450.417,107.387 456.946,113.917 465,113.917 C473.054,113.917 479.583,107.387 479.583,99.333 C479.583,97.723 478.277,96.417 476.667,96.417 C475.056,96.417 473.75,97.723 473.75,99.333 Z M437.69,97.344 L435.648,121.844 C435.047,129.072 435.049,130.754 436.118,133.186 C437.158,135.56 438.963,137.522 441.246,138.759 C443.58,140.024 445.275,140.167 452.505,140.167 L477.492,140.167 C484.721,140.167 486.417,140.023 488.752,138.758 C491.034,137.524 492.841,135.561 493.883,133.183 C494.949,130.751 494.951,129.05 494.352,121.845 L492.31,97.344 C492.205,96.09 492.162,95.586 492.107,94.984 C491.756,91.168 491.382,89.37 490.348,87.607 C489.172,85.596 487.419,83.983 485.317,82.977 C483.175,81.951 481.679,81.833 475.45,81.833 L454.547,81.833 C448.317,81.833 446.821,81.951 444.681,82.978 C442.582,83.981 440.828,85.592 439.649,87.604 C438.448,89.656 438.205,91.148 437.69,97.345 Z M443.503,97.828 C443.927,92.72 444.126,91.503 444.683,90.551 C445.271,89.548 446.148,88.742 447.2,88.239 C448.193,87.763 449.416,87.667 454.547,87.667 L475.45,87.667 C480.583,87.667 481.806,87.763 482.798,88.238 C483.849,88.741 484.726,89.548 485.314,90.554 C485.775,91.341 486.024,92.534 486.298,95.518 C486.351,96.099 486.394,96.593 486.497,97.83 L488.539,122.328 C489.034,128.284 489.032,129.72 488.541,130.841 C488.02,132.03 487.116,133.011 485.974,133.629 C484.897,134.212 483.464,134.333 477.492,134.333 L452.505,134.333 C446.531,134.333 445.1,134.213 444.025,133.63 C442.883,133.011 441.98,132.03 441.459,130.841 C440.967,129.72 440.965,128.297 441.461,122.328 L443.503,97.828 Z" />
        </g>
        <g id="Black-M" transform="translate(0,200)">
            <path d="M673.75,99.333 C673.75,104.166 669.833,108.083 665,108.083 C660.167,108.083 656.25,104.166 656.25,99.333 C656.25,97.723 654.944,96.417 653.333,96.417 C651.723,96.417 650.417,97.723 650.417,99.333 C650.417,107.387 656.946,113.917 665,113.917 C673.054,113.917 679.583,107.387 679.583,99.333 C679.583,97.723 678.277,96.417 676.667,96.417 C675.056,96.417 673.75,97.723 673.75,99.333 Z M637.69,97.344 L635.648,121.844 C635.047,129.072 635.049,130.754 636.118,133.186 C637.158,135.56 638.963,137.522 641.246,138.759 C643.58,140.024 645.275,140.167 652.505,140.167 L677.492,140.167 C684.721,140.167 686.417,140.023 688.752,138.758 C691.034,137.524 692.841,135.561 693.883,133.183 C694.949,130.751 694.951,129.05 694.352,121.845 L692.31,97.344 C692.205,96.09 692.162,95.586 692.107,94.984 C691.756,91.168 691.382,89.37 690.348,87.607 C689.172,85.596 687.419,83.983 685.317,82.977 C683.175,81.951 681.679,81.833 675.45,81.833 L654.547,81.833 C648.317,81.833 646.821,81.951 644.681,82.978 C642.582,83.981 640.828,85.592 639.649,87.604 C638.448,89.656 638.205,91.148 637.69,97.345 Z M643.503,97.828 C643.927,92.72 644.126,91.503 644.683,90.551 C645.271,89.548 646.148,88.742 647.2,88.239 C648.193,87.763 649.416,87.667 654.547,87.667 L675.45,87.667 C680.583,87.667 681.806,87.763 682.798,88.238 C683.849,88.741 684.726,89.548 685.314,90.554 C685.775,91.341 686.024,92.534 686.298,95.518 C686.351,96.099 686.394,96.593 686.497,97.83 L688.539,122.328 C689.034,128.284 689.032,129.72 688.541,130.841 C688.019,132.03 687.116,133.011 685.974,133.629 C684.897,134.212 683.464,134.333 677.492,134.333 L652.505,134.333 C646.531,134.333 645.1,134.213 644.025,133.63 C642.883,133.011 641.98,132.03 641.459,130.841 C640.967,129.72 640.965,128.297 641.461,122.328 L643.503,97.828 Z" />
        </g>
    </g>
</svg>