<?xml version="1.0" encoding="UTF-8"?>
<svg height="600" width="800" xmlns="http://www.w3.org/2000/svg" xmlns:xlink="http://www.w3.org/1999/xlink">
    <g id="Notes" font-family="LucidaGrande, 'Lucida Grande', sans-serif" font-size="13">
        <rect fill="white" height="600.0" width="800.0" x="0.0" y="0.0" />
        <g font-size="13">
            <text x="18.0" y="176.0">Small</text>
            <text x="18.0" y="376.0">Medium</text>
            <text x="18.0" y="576.0">Large</text>
        </g>
        <g font-size="9">
            <text x="250.0" y="30.0">Ultralight</text>
            <text x="450.0" y="30.0">Regular</text>
            <text x="650.0" y="30.0">Black</text>
            <text id="template-version" fill="#505050" text-anchor="end" x="785.0" y="575.0">Template v.3.0</text>
            <a href="https://github.com/swhitty/SwiftDraw">
                <text fill="#505050" text-anchor="end" x="785.0" y="590.0">https://github.com/swhitty/SwiftDraw</text>
            </a>
        </g>
    </g>
    <g id="Guides" stroke="rgb(39, 170, 225)" stroke-width="0.5">
        <path id="Capline-S" d="M18,76 l800,0" />
        <path id="H-reference" d="M85,145.755 L87.685,145.755 L113.369,79.287 L114.052,79.287 L114.052,76 L112.148,76 L85,145.755 Z M95.693,121.536 L130.996,121.536 L130.263,119.313 L96.474,119.313 L95.693,121.536 Z M139.15,145.755 L141.787,145.755 L114.638,76 L113.466,76 L113.466,79.287 L139.15,145.755 Z" stroke="none" transform="translate(0,200)" />
        <path id="Baseline-S" d="M18,146 l800,0" />
        <path id="left-margin-Ultralight-M" d="M230,256 l0,110" />
        <path id="right-margin-Ultralight-M" d="M300,256 l0,110" />
        <path id="left-margin-Regular-M" d="M430,256 l0,110" />
        <path id="right-margin-Regular-M" d="M500,256 l0,110" />
        <path id="left-margin-Black-M" d="M630,256 l0,110" />
        <path id="right-margin-Black-M" d="M700,256 l0,110" />
        <path id="Capline-M" d="M18,276 l800,0" />
        <path id="Baseline-M" d="M18,346 l800,0" />
        <path id="Capline-L" d="M18,476 l800,0" />
        <path id="Baseline-L" d="M18,546 l800,0" />
    </g>
    <g id="Symbols">
        <g id="Ultralight-M" transform="translate(0,200)">
            <path d="M263.377,103.222 C263.965,101.547 265.677,100.54 267.427,100.841 C269.177,101.141 270.455,102.661 270.451,104.437 C270.451,105.174 269.792,106.052 268.47,106.933 C267.492,107.585 266.481,108.035 265.886,108.233 C264.358,108.743 263.532,110.395 264.041,111.923 C264.551,113.451 266.203,114.276 267.731,113.767 C268.775,113.419 270.224,112.775 271.706,111.787 C274.484,109.935 276.285,107.536 276.285,104.443 C276.295,99.828 272.969,95.874 268.414,95.092 C263.859,94.31 259.405,96.929 257.873,101.289 C257.339,102.809 258.139,104.474 259.659,105.008 C261.178,105.541 262.843,104.742 263.377,103.222 Z M266.89,122.667 L266.919,122.667 C268.53,122.667 269.836,121.361 269.836,119.75 C269.836,118.139 268.53,116.833 266.919,116.833 L266.89,116.833 C265.279,116.833 263.973,118.139 263.973,119.75 C263.973,121.361 265.279,122.667 266.89,122.667 Z M266.453,137.25 C278.485,137.247 289.14,129.48 292.824,118.026 C296.508,106.572 292.379,94.049 282.605,87.032 C272.831,80.016 259.645,80.109 249.971,87.264 C240.297,94.418 236.346,106.998 240.192,118.399 C240.476,119.239 240.553,119.502 240.55,119.464 C240.551,119.475 240.554,119.439 240.564,119.404 C240.556,119.431 240.481,119.587 240.131,120.237 L235.362,129.062 C234.046,131.501 233.884,131.88 234.101,133.274 C234.299,134.547 235.048,135.668 236.148,136.337 C237.359,137.069 237.801,137.064 240.523,136.779 L255.456,135.237 C255.846,135.196 255.94,135.189 255.915,135.188 C255.962,135.19 255.923,135.185 255.948,135.19 C255.897,135.179 255.995,135.214 256.511,135.41 C259.677,136.628 263.055,137.254 266.462,137.25 C270.348,137.245 270.345,131.417 266.458,131.417 L266.453,131.417 L266.453,134.333 L266.453,137.25 Z M266.452,131.417 C262.563,131.418 262.564,137.25 266.453,137.25 L266.458,137.25 L266.458,134.333 L266.455,131.417 C263.767,131.42 261.101,130.926 258.593,129.961 C257.605,129.586 257.611,129.588 257.244,129.503 C256.843,129.413 256.513,129.37 256.123,129.359 C255.782,129.344 255.592,129.358 254.857,129.434 L239.92,130.977 C239.055,131.068 238.75,131.094 238.53,131.097 C238.602,131.096 238.817,131.134 239.173,131.35 C239.548,131.578 239.798,131.952 239.864,132.376 C239.929,132.791 239.882,133.006 239.853,133.074 C239.94,132.872 240.074,132.612 240.495,131.833 L245.265,123.006 C245.917,121.796 246.043,121.534 246.205,120.886 C246.368,120.3 246.426,119.619 246.36,118.945 C246.31,118.324 246.217,118.007 245.719,116.534 C242.683,107.533 245.803,97.602 253.44,91.954 C261.077,86.306 271.487,86.232 279.203,91.771 C286.92,97.311 290.18,107.197 287.271,116.24 C284.363,125.282 275.951,131.415 266.452,131.417 Z" />
        </g>
        <g id="Regular-M" transform="translate(0,200)">
            <path d="M463.377,103.222 C463.965,101.547 465.677,100.54 467.427,100.841 C469.177,101.141 470.455,102.661 470.451,104.437 C470.451,105.174 469.792,106.052 468.47,106.933 C467.492,107.585 466.481,108.035 465.886,108.233 C464.358,108.743 463.532,110.395 464.041,111.923 C464.551,113.451 466.203,114.276 467.731,113.767 C468.775,113.419 470.224,112.775 471.706,111.787 C474.484,109.935 476.285,107.536 476.285,104.443 C476.295,99.828 472.969,95.874 468.414,95.092 C463.859,94.31 459.405,96.929 457.873,101.289 C457.339,102.809 458.139,104.474 459.659,105.008 C461.178,105.541 462.843,104.742 463.377,103.222 Z M466.89,122.667 L466.919,122.667 C468.53,122.667 469.836,121.361 469.836,119.75 C469.836,118.139 468.53,116.833 466.919,116.833 L466.89,116.833 C465.279,116.833 463.973,118.139 463.973,119.75 C463.973,121.361 465.279,122.667 466.89,122.667 Z M466.453,137.25 C478.485,137.247 489.14,129.48 492.824,118.026 C496.508,106.572 492.379,94.049 482.605,87.032 C472.831,80.016 459.645,80.109 449.971,87.264 C440.297,94.418 436.346,106.998 440.192,118.399 C440.476,119.239 440.553,119.502 440.55,119.464 C440.551,119.475 440.554,119.439 440.564,119.404 C440.556,119.431 440.481,119.587 440.131,120.237 L435.362,129.062 C434.046,131.501 433.884,131.88 434.101,133.274 C434.299,134.547 435.048,135.668 436.148,136.337 C437.359,137.069 437.801,137.064 440.523,136.779 L455.456,135.237 C455.846,135.196 455.94,135.189 455.915,135.188 C455.962,135.19 455.923,135.185 455.948,135.19 C455.897,135.179 455.995,135.214 456.511,135.41 C459.677,136.628 463.055,137.254 466.462,137.25 C470.348,137.245 470.345,131.417 466.458,131.417 L466.453,131.417 L466.453,134.333 L466.453,137.25 Z M466.452,131.417 C462.563,131.418 462.564,137.25 466.453,137.25 L466.458,137.25 L466.458,134.333 L466.455,131.417 C463.767,131.42 461.101,130.926 458.593,129.961 C457.605,129.586 457.611,129.588 457.244,129.503 C456.843,129.413 456.513,129.37 456.123,129.359 C455.782,129.344 455.592,129.358 454.857,129.434 L439.92,130.977 C439.055,131.068 438.75,131.094 438.53,131.097 C438.602,131.096 438.817,131.134 439.173,131.35 C439.548,131.578 439.798,131.952 439.864,132.376 C439.929,132.791 439.882,133.006 439.853,133.074 C439.94,132.872 440.074,132.612 440.495,131.833 L445.265,123.006 C445.917,121.796 446.043,121.534 446.205,120.886 C446.368,120.3 446.426,119.619 446.36,118.945 C446.31,118.324 446.217,118.007 445.719,116.534 C442.683,107.533 445.803,97.602 453.44,91.954 C461.077,86.306 471.487,86.232 479.203,91.771 C486.92,97.311 490.18,107.197 487.271,116.24 C484.363,125.282 475.951,131.415 466.452,131.417 Z" />
        </g>
        <g id="Black-M" transform="translate(0,200)">
            <path d="M663.377,103.222 C663.965,101.547 665.677,100.54 667.427,100.841 C669.177,101.141 670.455,102.661 670.451,104.437 C670.451,105.174 669.792,106.052 668.471,106.933 C667.492,107.585 666.481,108.035 665.886,108.233 C664.358,108.743 663.532,110.395 664.041,111.923 C664.551,113.451 666.203,114.276 667.731,113.767 C668.775,113.419 670.224,112.775 671.706,111.787 C674.484,109.935 676.285,107.536 676.285,104.443 C676.295,99.828 672.969,95.874 668.414,95.092 C663.859,94.31 659.404,96.929 657.873,101.289 C657.339,102.809 658.139,104.474 659.659,105.008 C661.178,105.541 662.843,104.742 663.377,103.222 Z M666.89,122.667 L666.919,122.667 C668.53,122.667 669.836,121.361 669.836,119.75 C669.836,118.139 668.53,116.833 666.919,116.833 L666.89,116.833 C665.279,116.833 663.973,118.139 663.973,119.75 C663.973,121.361 665.279,122.667 666.89,122.667 Z M666.453,137.25 C678.485,137.247 689.14,129.48 692.824,118.026 C696.508,106.572 692.379,94.049 682.605,87.032 C672.831,80.016 659.645,80.109 649.971,87.264 C640.297,94.418 636.346,106.998 640.192,118.399 C640.476,119.239 640.553,119.502 640.55,119.464 C640.551,119.475 640.554,119.439 640.564,119.404 C640.556,119.431 640.481,119.587 640.131,120.237 L635.362,129.062 C634.046,131.501 633.884,131.88 634.101,133.274 C634.299,134.547 635.048,135.668 636.148,136.337 C637.359,137.069 637.801,137.064 640.523,136.779 L655.456,135.237 C655.846,135.196 655.94,135.189 655.915,135.188 C655.962,135.19 655.923,135.185 655.948,135.19 C655.897,135.179 655.995,135.214 656.511,135.41 C659.677,136.628 663.055,137.254 666.462,137.25 C670.348,137.245 670.345,131.417 666.458,131.417 L666.453,131.417 L666.453,134.333 L666.453,137.25 Z M666.452,131.417 C662.563,131.418 662.564,137.25 666.453,137.25 L666.458,137.25 L666.458,134.333 L666.455,131.417 C663.767,131.42 661.101,130.926 658.593,129.961 C657.605,129.586 657.611,129.588 657.244,129.503 C656.843,129.413 656.513,129.37 656.123,129.359 C655.782,129.344 655.592,129.358 654.857,129.434 L639.92,130.977 C639.055,131.068 638.75,131.094 638.53,131.097 C638.602,131.096 638.817,131.134 639.173,131.35 C639.548,131.578 639.798,131.952 639.864,132.376 C639.929,132.791 639.882,133.006 639.853,133.074 C639.94,132.872 640.074,132.612 640.495,131.833 L645.265,123.006 C645.917,121.796 646.043,121.534 646.205,120.886 C646.368,120.3 646.426,119.619 646.36,118.945 C646.31,118.324 646.217,118.007 645.719,116.534 C642.683,107.533 645.803,97.602 653.44,91.954 C661.077,86.306 671.487,86.232 679.203,91.771 C686.92,97.311 690.18,107.197 687.271,116.24 C684.363,125.282 675.951,131.415 666.452,131.417 Z" />
        </g>
    </g>
</svg>