<?xml version="1.0" encoding="UTF-8"?>
<svg height="600" width="800" xmlns="http://www.w3.org/2000/svg" xmlns:xlink="http://www.w3.org/1999/xlink">
    <g id="Notes" font-family="LucidaGrande, 'Lucida Grande', sans-serif" font-size="13">
        <rect fill="white" height="600.0" width="800.0" x="0.0" y="0.0" />
        <g font-size="13">
            <text x="18.0" y="176.0">Small</text>
            <text x="18.0" y="376.0">Medium</text>
            <text x="18.0" y="576.0">Large</text>
        </g>
        <g font-size="9">
            <text x="250.0" y="30.0">Ultralight</text>
            <text x="450.0" y="30.0">Regular</text>
            <text x="650.0" y="30.0">Black</text>
            <text id="template-version" fill="#505050" text-anchor="end" x="785.0" y="575.0">Template v.3.0</text>
            <a href="https://github.com/swhitty/SwiftDraw">
                <text fill="#505050" text-anchor="end" x="785.0" y="590.0">https://github.com/swhitty/SwiftDraw</text>
            </a>
        </g>
    </g>
    <g id="Guides" stroke="rgb(39, 170, 225)" stroke-width="0.5">
        <path id="Capline-S" d="M18,76 l800,0" />
        <path id="H-reference" d="M85,145.755 L87.685,145.755 L113.369,79.287 L114.052,79.287 L114.052,76 L112.148,76 L85,145.755 Z M95.693,121.536 L130.996,121.536 L130.263,119.313 L96.474,119.313 L95.693,121.536 Z M139.15,145.755 L141.787,145.755 L114.638,76 L113.466,76 L113.466,79.287 L139.15,145.755 Z" stroke="none" transform="translate(0,200)" />
        <path id="Baseline-S" d="M18,146 l800,0" />
        <path id="left-margin-Ultralight-M" d="M230,256 l0,110" />
        <path id="right-margin-Ultralight-M" d="M300,256 l0,110" />
        <path id="left-margin-Regular-M" d="M430,256 l0,110" />
        <path id="right-margin-Regular-M" d="M500,256 l0,110" />
        <path id="left-margin-Black-M" d="M630,256 l0,110" />
        <path id="right-margin-Black-M" d="M700,256 l0,110" />
        <path id="Capline-M" d="M18,276 l800,0" />
        <path id="Baseline-M" d="M18,346 l800,0" />
        <path id="Capline-L" d="M18,476 l800,0" />
        <path id="Baseline-L" d="M18,546 l800,0" />
    </g>
    <g id="Symbols">
        <g id="Ultralight-M" transform="translate(0,200)">
            <path d="M288.864,98.273 L288.864,124.364 C288.864,130.406 288.746,131.85 288.17,132.98 C287.56,134.177 286.586,135.151 285.389,135.761 C284.259,136.337 282.815,136.455 276.773,136.455 L253.227,136.455 C247.185,136.455 245.741,136.337 244.61,135.761 C243.414,135.151 242.44,134.177 241.83,132.98 C241.254,131.85 241.136,130.406 241.136,124.364 L241.136,98.273 C241.136,96.515 239.712,95.091 237.955,95.091 C236.197,95.091 234.773,96.515 234.773,98.273 L234.773,124.364 C234.773,131.685 234.915,133.425 236.16,135.869 C237.38,138.264 239.327,140.211 241.722,141.431 C244.166,142.676 245.906,142.818 253.227,142.818 L276.773,142.818 C284.094,142.818 285.834,142.676 288.278,141.431 C290.673,140.211 292.62,138.264 293.84,135.869 C295.085,133.425 295.227,131.685 295.227,124.364 L295.227,98.273 C295.227,96.515 293.803,95.091 292.045,95.091 C290.288,95.091 288.864,96.515 288.864,98.273 Z M238.273,85.545 L291.727,85.545 C293.315,85.545 293.698,85.577 293.637,85.546 C293.636,85.545 293.636,85.545 293.636,85.545 C293.605,85.484 293.636,85.867 293.636,87.455 L293.636,93.182 C293.636,94.77 293.605,95.152 293.636,95.091 C293.636,95.091 293.636,95.091 293.636,95.091 C293.698,95.06 293.315,95.091 291.727,95.091 L238.273,95.091 C236.685,95.091 236.302,95.06 236.363,95.091 C236.364,95.091 236.364,95.091 236.364,95.091 C236.395,95.152 236.364,94.77 236.364,93.182 L236.364,87.455 C236.364,85.867 236.395,85.484 236.364,85.545 C236.364,85.545 236.364,85.545 236.364,85.545 C236.302,85.577 236.685,85.545 238.273,85.545 Z M238.273,79.182 C235.406,79.182 234.727,79.237 233.475,79.875 C232.277,80.486 231.304,81.459 230.694,82.656 C230.055,83.909 230,84.588 230,87.455 L230,93.182 C230,96.048 230.055,96.727 230.693,97.98 C231.304,99.177 232.277,100.151 233.475,100.761 C234.727,101.399 235.406,101.455 238.273,101.455 L291.727,101.455 C294.594,101.455 295.273,101.399 296.525,100.761 C297.723,100.151 298.696,99.177 299.306,97.98 C299.945,96.727 300,96.048 300,93.182 L300,87.455 C300,84.588 299.945,83.909 299.307,82.657 C298.696,81.459 297.723,80.486 296.525,79.875 C295.273,79.237 294.594,79.182 291.727,79.182 L238.273,79.182 Z M257.364,112.591 L272.636,112.591 C274.224,112.591 274.607,112.622 274.546,112.591 C274.545,112.591 274.545,112.591 274.545,112.591 C274.514,112.53 274.545,112.912 274.545,114.5 L274.545,117.045 C274.545,118.633 274.514,119.016 274.545,118.955 C274.545,118.955 274.545,118.955 274.545,118.955 C274.607,118.923 274.224,118.955 272.636,118.955 L257.364,118.955 C255.776,118.955 255.393,118.923 255.454,118.954 C255.455,118.955 255.455,118.955 255.455,118.955 C255.486,119.016 255.455,118.633 255.455,117.045 L255.455,114.5 C255.455,112.912 255.486,112.53 255.455,112.59 C255.455,112.591 255.455,112.591 255.455,112.591 C255.393,112.622 255.776,112.591 257.364,112.591 Z M257.364,106.227 C254.497,106.227 253.818,106.283 252.566,106.921 C251.368,107.531 250.395,108.504 249.785,109.702 C249.146,110.955 249.091,111.633 249.091,114.5 L249.091,117.045 C249.091,119.912 249.146,120.591 249.784,121.843 C250.395,123.041 251.368,124.014 252.565,124.625 C253.818,125.263 254.497,125.318 257.364,125.318 L272.636,125.318 C275.503,125.318 276.182,125.263 277.434,124.625 C278.632,124.014 279.605,123.041 280.215,121.844 C280.854,120.591 280.909,119.912 280.909,117.045 L280.909,114.5 C280.909,111.633 280.854,110.955 280.216,109.702 C279.605,108.504 278.632,107.531 277.435,106.921 C276.182,106.283 275.503,106.227 272.636,106.227 L257.364,106.227 Z" />
        </g>
        <g id="Regular-M" transform="translate(0,200)">
            <path d="M488.864,98.273 L488.864,124.364 C488.864,130.406 488.746,131.85 488.17,132.98 C487.56,134.177 486.586,135.151 485.389,135.761 C484.259,136.337 482.815,136.455 476.773,136.455 L453.227,136.455 C447.185,136.455 445.741,136.337 444.61,135.761 C443.414,135.151 442.44,134.177 441.83,132.98 C441.254,131.85 441.136,130.406 441.136,124.364 L441.136,98.273 C441.136,96.515 439.712,95.091 437.955,95.091 C436.197,95.091 434.773,96.515 434.773,98.273 L434.773,124.364 C434.773,131.685 434.915,133.425 436.16,135.869 C437.38,138.264 439.327,140.211 441.722,141.431 C444.166,142.676 445.906,142.818 453.227,142.818 L476.773,142.818 C484.094,142.818 485.834,142.676 488.278,141.431 C490.673,140.211 492.62,138.264 493.84,135.869 C495.085,133.425 495.227,131.685 495.227,124.364 L495.227,98.273 C495.227,96.515 493.803,95.091 492.045,95.091 C490.288,95.091 488.864,96.515 488.864,98.273 Z M438.273,85.545 L491.727,85.545 C493.315,85.545 493.698,85.577 493.637,85.546 C493.636,85.545 493.636,85.545 493.636,85.545 C493.605,85.484 493.636,85.867 493.636,87.455 L493.636,93.182 C493.636,94.77 493.605,95.152 493.636,95.091 C493.636,95.091 493.636,95.091 493.636,95.091 C493.698,95.06 493.315,95.091 491.727,95.091 L438.273,95.091 C436.685,95.091 436.302,95.06 436.363,95.091 C436.364,95.091 436.364,95.091 436.364,95.091 C436.395,95.152 436.364,94.77 436.364,93.182 L436.364,87.455 C436.364,85.867 436.395,85.484 436.364,85.545 C436.364,85.545 436.364,85.545 436.364,85.545 C436.302,85.577 436.685,85.545 438.273,85.545 Z M438.273,79.182 C435.406,79.182 434.727,79.237 433.475,79.875 C432.277,80.486 431.304,81.459 430.694,82.656 C430.055,83.909 430,84.588 430,87.455 L430,93.182 C430,96.048 430.055,96.727 430.693,97.98 C431.304,99.177 432.277,100.151 433.475,100.761 C434.727,101.399 435.406,101.455 438.273,101.455 L491.727,101.455 C494.594,101.455 495.273,101.399 496.525,100.761 C497.723,100.151 498.696,99.177 499.306,97.98 C499.945,96.727 500,96.048 500,93.182 L500,87.455 C500,84.588 499.945,83.909 499.307,82.657 C498.696,81.459 497.723,80.486 496.525,79.875 C495.273,79.237 494.594,79.182 491.727,79.182 L438.273,79.182 Z M457.364,112.591 L472.636,112.591 C474.224,112.591 474.607,112.622 474.546,112.591 C474.545,112.591 474.545,112.591 474.545,112.591 C474.514,112.53 474.545,112.912 474.545,114.5 L474.545,117.045 C474.545,118.633 474.514,119.016 474.545,118.955 C474.545,118.955 474.545,118.955 474.545,118.955 C474.607,118.923 474.224,118.955 472.636,118.955 L457.364,118.955 C455.776,118.955 455.393,118.923 455.454,118.954 C455.455,118.955 455.455,118.955 455.455,118.955 C455.486,119.016 455.455,118.633 455.455,117.045 L455.455,114.5 C455.455,112.912 455.486,112.53 455.455,112.59 C455.455,112.591 455.455,112.591 455.455,112.591 C455.393,112.622 455.776,112.591 457.364,112.591 Z M457.364,106.227 C454.497,106.227 453.818,106.283 452.566,106.921 C451.368,107.531 450.395,108.504 449.785,109.702 C449.146,110.955 449.091,111.633 449.091,114.5 L449.091,117.045 C449.091,119.912 449.146,120.591 449.784,121.843 C450.395,123.041 451.368,124.014 452.565,124.625 C453.818,125.263 454.497,125.318 457.364,125.318 L472.636,125.318 C475.503,125.318 476.182,125.263 477.434,124.625 C478.632,124.014 479.605,123.041 480.215,121.844 C480.854,120.591 480.909,119.912 480.909,117.045 L480.909,114.5 C480.909,111.633 480.854,110.955 480.216,109.702 C479.605,108.504 478.632,107.531 477.435,106.921 C476.182,106.283 475.503,106.227 472.636,106.227 L457.364,106.227 Z" />
        </g>
        <g id="Black-M" transform="translate(0,200)">
            <path d="M688.864,98.273 L688.864,124.364 C688.864,130.406 688.746,131.85 688.17,132.98 C687.56,134.177 686.586,135.151 685.389,135.761 C684.259,136.337 682.815,136.455 676.773,136.455 L653.227,136.455 C647.185,136.455 645.741,136.337 644.61,135.761 C643.414,135.151 642.44,134.177 641.83,132.98 C641.254,131.85 641.136,130.406 641.136,124.364 L641.136,98.273 C641.136,96.515 639.712,95.091 637.955,95.091 C636.197,95.091 634.773,96.515 634.773,98.273 L634.773,124.364 C634.773,131.685 634.915,133.425 636.16,135.869 C637.38,138.264 639.327,140.211 641.722,141.431 C644.166,142.676 645.906,142.818 653.227,142.818 L676.773,142.818 C684.094,142.818 685.834,142.676 688.278,141.431 C690.673,140.211 692.62,138.264 693.84,135.869 C695.085,133.425 695.227,131.685 695.227,124.364 L695.227,98.273 C695.227,96.515 693.803,95.091 692.045,95.091 C690.288,95.091 688.864,96.515 688.864,98.273 Z M638.273,85.545 L691.727,85.545 C693.315,85.545 693.698,85.577 693.637,85.546 C693.636,85.545 693.636,85.545 693.636,85.545 C693.605,85.484 693.636,85.867 693.636,87.455 L693.636,93.182 C693.636,94.77 693.605,95.152 693.636,95.091 C693.636,95.091 693.636,95.091 693.636,95.091 C693.698,95.06 693.315,95.091 691.727,95.091 L638.273,95.091 C636.685,95.091 636.302,95.06 636.363,95.091 C636.364,95.091 636.364,95.091 636.364,95.091 C636.395,95.152 636.364,94.77 636.364,93.182 L636.364,87.455 C636.364,85.867 636.395,85.484 636.364,85.545 C636.364,85.545 636.364,85.545 636.364,85.545 C636.302,85.577 636.685,85.545 638.273,85.545 Z M638.273,79.182 C635.406,79.182 634.727,79.237 633.475,79.875 C632.277,80.486 631.304,81.459 630.694,82.656 C630.055,83.909 630,84.588 630,87.455 L630,93.182 C630,96.048 630.055,96.727 630.693,97.98 C631.304,99.177 632.277,100.151 633.475,100.761 C634.727,101.399 635.406,101.455 638.273,101.455 L691.727,101.455 C694.594,101.455 695.273,101.399 696.525,100.761 C697.723,100.151 698.696,99.177 699.306,97.98 C699.945,96.727 700,96.048 700,93.182 L700,87.455 C700,84.588 699.945,83.909 699.307,82.657 C698.696,81.459 697.723,80.486 696.525,79.875 C695.273,79.237 694.594,79.182 691.727,79.182 L638.273,79.182 Z M657.364,112.591 L672.636,112.591 C674.224,112.591 674.607,112.622 674.546,112.591 C674.545,112.591 674.545,112.591 674.545,112.591 C674.514,112.53 674.545,112.912 674.545,114.5 L674.545,117.045 C674.545,118.633 674.514,119.016 674.545,118.955 C674.545,118.955 674.545,118.955 674.545,118.955 C674.607,118.923 674.224,118.955 672.636,118.955 L657.364,118.955 C655.776,118.955 655.393,118.923 655.454,118.954 C655.455,118.955 655.455,118.955 655.455,118.955 C655.486,119.016 655.455,118.633 655.455,117.045 L655.455,114.5 C655.455,112.912 655.486,112.53 655.455,112.59 C655.455,112.591 655.455,112.591 655.455,112.591 C655.393,112.622 655.776,112.591 657.364,112.591 Z M657.364,106.227 C654.497,106.227 653.818,106.283 652.566,106.921 C651.368,107.531 650.395,108.504 649.785,109.702 C649.146,110.955 649.091,111.633 649.091,114.5 L649.091,117.045 C649.091,119.912 649.146,120.591 649.784,121.843 C650.395,123.041 651.368,124.014 652.565,124.625 C653.818,125.263 654.497,125.318 657.364,125.318 L672.636,125.318 C675.503,125.318 676.182,125.263 677.434,124.625 C678.632,124.014 679.605,123.041 680.215,121.844 C680.854,120.591 680.909,119.912 680.909,117.045 L680.909,114.5 C680.909,111.633 680.854,110.955 680.216,109.702 C679.605,108.504 678.632,107.531 677.435,106.921 C676.182,106.283 675.503,106.227 672.636,106.227 L657.364,106.227 Z" />
        </g>
    </g>
</svg>