<?xml version="1.0" encoding="UTF-8"?>
<svg height="600" width="800" xmlns="http://www.w3.org/2000/svg" xmlns:xlink="http://www.w3.org/1999/xlink">
    <g id="Notes" font-family="LucidaGrande, 'Lucida Grande', sans-serif" font-size="13">
        <rect fill="white" height="600.0" width="800.0" x="0.0" y="0.0" />
        <g font-size="13">
            <text x="18.0" y="176.0">Small</text>
            <text x="18.0" y="376.0">Medium</text>
            <text x="18.0" y="576.0">Large</text>
        </g>
        <g font-size="9">
            <text x="250.0" y="30.0">Ultralight</text>
            <text x="450.0" y="30.0">Regular</text>
            <text x="650.0" y="30.0">Black</text>
            <text id="template-version" fill="#505050" text-anchor="end" x="785.0" y="575.0">Template v.3.0</text>
            <a href="https://github.com/swhitty/SwiftDraw">
                <text fill="#505050" text-anchor="end" x="785.0" y="590.0">https://github.com/swhitty/SwiftDraw</text>
            </a>
        </g>
    </g>
    <g id="Guides" stroke="rgb(39, 170, 225)" stroke-width="0.5">
        <path id="Capline-S" d="M18,76 l800,0" />
        <path id="H-reference" d="M85,145.755 L87.685,145.755 L113.369,79.287 L114.052,79.287 L114.052,76 L112.148,76 L85,145.755 Z M95.693,121.536 L130.996,121.536 L130.263,119.313 L96.474,119.313 L95.693,121.536 Z M139.15,145.755 L141.787,145.755 L114.638,76 L113.466,76 L113.466,79.287 L139.15,145.755 Z" stroke="none" transform="translate(0,200)" />
        <path id="Baseline-S" d="M18,146 l800,0" />
        <path id="left-margin-Ultralight-M" d="M224.75,256 l0,110" />
        <path id="right-margin-Ultralight-M" d="M305.25,256 l0,110" />
        <path id="left-margin-Regular-M" d="M424.75,256 l0,110" />
        <path id="right-margin-Regular-M" d="M505.25,256 l0,110" />
        <path id="left-margin-Black-M" d="M624.75,256 l0,110" />
        <path id="right-margin-Black-M" d="M705.25,256 l0,110" />
        <path id="Capline-M" d="M18,276 l800,0" />
        <path id="Baseline-M" d="M18,346 l800,0" />
        <path id="Capline-L" d="M18,476 l800,0" />
        <path id="Baseline-L" d="M18,546 l800,0" />
    </g>
    <g id="Symbols">
        <g id="Ultralight-M" transform="translate(0,200)">
            <path d="M275.767,107.342 C280.065,108.702 284.074,110.917 287.559,113.866 C289.021,115.102 291.191,114.899 292.407,113.413 C293.623,111.927 293.423,109.72 291.962,108.484 C287.782,104.949 282.973,102.292 277.814,100.658 C275.999,100.084 274.07,101.114 273.504,102.959 C272.939,104.805 273.952,106.767 275.767,107.342 Z M304.084,96.125 C291.68,85.005 275.228,79.742 258.797,81.636 C256.908,81.854 255.55,83.588 255.764,85.508 C255.979,87.429 257.683,88.809 259.572,88.592 C274.07,86.92 288.587,91.564 299.532,101.375 C300.958,102.654 303.133,102.515 304.39,101.064 C305.647,99.614 305.51,97.403 304.084,96.125 Z M255.44,126.488 C261.409,122.176 269.407,122.176 275.376,126.488 C276.925,127.608 279.074,127.238 280.175,125.662 C281.276,124.086 280.912,121.901 279.363,120.782 C271.007,114.745 259.809,114.745 251.453,120.782 C249.903,121.901 249.54,124.086 250.641,125.662 C251.742,127.238 253.89,127.608 255.44,126.488 Z M265.391,140.75 L265.425,140.75 C267.326,140.75 268.867,139.183 268.867,137.25 C268.867,135.317 267.326,133.75 265.425,133.75 L265.391,133.75 C263.49,133.75 261.949,135.317 261.949,137.25 C261.949,139.183 263.49,140.75 265.391,140.75 Z M230.517,102.031 C234.855,97.99 239.839,94.731 245.256,92.396 C247.006,91.642 247.823,89.587 247.081,87.808 C246.339,86.028 244.319,85.197 242.568,85.952 C236.431,88.598 230.782,92.29 225.867,96.869 C224.465,98.175 224.37,100.389 225.654,101.814 C226.938,103.24 229.116,103.336 230.517,102.031 Z M242.655,114.478 C247.102,110.486 252.491,107.736 258.296,106.494 C260.156,106.096 261.347,104.24 260.956,102.349 C260.565,100.457 258.739,99.246 256.879,99.644 C249.909,101.135 243.439,104.437 238.099,109.23 C236.674,110.509 236.538,112.721 237.796,114.17 C239.055,115.619 241.23,115.757 242.655,114.478 Z M280.249,121.464 C276.011,118.078 270.775,116.242 265.386,116.25 C259.849,116.25 254.587,118.16 250.349,121.609 C248.865,122.817 248.625,125.02 249.813,126.529 C251.001,128.038 253.167,128.282 254.651,127.075 C257.678,124.611 261.426,123.25 265.391,123.25 C269.24,123.244 272.974,124.554 275.997,126.968 C277.492,128.162 279.656,127.898 280.83,126.378 C282.004,124.858 281.744,122.658 280.249,121.464 Z M231.978,81.975 L293.936,144.975 C295.28,146.342 297.459,146.342 298.803,144.975 C300.148,143.608 300.148,141.392 298.803,140.025 L236.846,77.025 C235.502,75.658 233.322,75.658 231.978,77.025 C230.634,78.392 230.634,80.608 231.978,81.975 Z" />
        </g>
        <g id="Regular-M" transform="translate(0,200)">
            <path d="M475.767,107.342 C480.065,108.702 484.074,110.917 487.559,113.866 C489.021,115.102 491.191,114.899 492.407,113.413 C493.623,111.927 493.423,109.72 491.962,108.484 C487.782,104.949 482.973,102.292 477.814,100.658 C475.999,100.084 474.07,101.114 473.504,102.959 C472.939,104.805 473.952,106.767 475.767,107.342 Z M504.084,96.125 C491.68,85.005 475.228,79.742 458.797,81.636 C456.908,81.854 455.55,83.588 455.764,85.508 C455.979,87.429 457.683,88.809 459.572,88.592 C474.07,86.92 488.587,91.564 499.532,101.375 C500.958,102.654 503.133,102.515 504.39,101.064 C505.647,99.614 505.51,97.403 504.084,96.125 Z M455.44,126.488 C461.409,122.176 469.407,122.176 475.376,126.488 C476.925,127.608 479.074,127.238 480.175,125.662 C481.276,124.086 480.912,121.901 479.363,120.782 C471.007,114.745 459.809,114.745 451.453,120.782 C449.903,121.901 449.54,124.086 450.641,125.662 C451.742,127.238 453.89,127.608 455.44,126.488 Z M465.391,140.75 L465.425,140.75 C467.326,140.75 468.867,139.183 468.867,137.25 C468.867,135.317 467.326,133.75 465.425,133.75 L465.391,133.75 C463.49,133.75 461.949,135.317 461.949,137.25 C461.949,139.183 463.49,140.75 465.391,140.75 Z M430.517,102.031 C434.855,97.99 439.839,94.731 445.256,92.396 C447.006,91.642 447.823,89.587 447.081,87.808 C446.339,86.028 444.319,85.197 442.568,85.952 C436.431,88.598 430.782,92.29 425.867,96.869 C424.465,98.175 424.37,100.389 425.654,101.814 C426.938,103.24 429.116,103.336 430.517,102.031 Z M442.655,114.478 C447.102,110.486 452.491,107.736 458.296,106.494 C460.156,106.096 461.347,104.24 460.956,102.349 C460.565,100.457 458.739,99.246 456.879,99.644 C449.909,101.135 443.439,104.437 438.099,109.23 C436.674,110.509 436.538,112.721 437.797,114.17 C439.055,115.619 441.23,115.757 442.655,114.478 Z M480.249,121.464 C476.011,118.078 470.775,116.242 465.386,116.25 C459.849,116.25 454.587,118.16 450.349,121.609 C448.865,122.817 448.625,125.02 449.813,126.529 C451.001,128.038 453.167,128.282 454.651,127.075 C457.678,124.611 461.426,123.25 465.391,123.25 C469.24,123.244 472.974,124.554 475.997,126.968 C477.492,128.162 479.656,127.898 480.83,126.378 C482.004,124.858 481.744,122.658 480.249,121.464 Z M431.978,81.975 L493.936,144.975 C495.28,146.342 497.459,146.342 498.803,144.975 C500.148,143.608 500.148,141.392 498.803,140.025 L436.846,77.025 C435.502,75.658 433.322,75.658 431.978,77.025 C430.634,78.392 430.634,80.608 431.978,81.975 Z" />
        </g>
        <g id="Black-M" transform="translate(0,200)">
            <path d="M675.767,107.342 C680.065,108.702 684.074,110.917 687.559,113.866 C689.021,115.102 691.191,114.899 692.407,113.413 C693.623,111.927 693.423,109.72 691.962,108.484 C687.782,104.949 682.973,102.292 677.814,100.658 C675.999,100.084 674.07,101.114 673.504,102.959 C672.939,104.805 673.952,106.767 675.767,107.342 Z M704.084,96.125 C691.68,85.005 675.228,79.742 658.797,81.636 C656.908,81.854 655.55,83.588 655.764,85.508 C655.979,87.429 657.683,88.809 659.572,88.592 C674.07,86.92 688.587,91.564 699.532,101.375 C700.958,102.654 703.133,102.515 704.39,101.064 C705.647,99.614 705.51,97.403 704.084,96.125 Z M655.44,126.488 C661.409,122.176 669.407,122.176 675.376,126.488 C676.925,127.608 679.074,127.238 680.175,125.662 C681.276,124.086 680.912,121.901 679.363,120.782 C671.007,114.745 659.809,114.745 651.453,120.782 C649.903,121.901 649.54,124.086 650.641,125.662 C651.742,127.238 653.89,127.608 655.44,126.488 Z M665.391,140.75 L665.425,140.75 C667.326,140.75 668.867,139.183 668.867,137.25 C668.867,135.317 667.326,133.75 665.425,133.75 L665.391,133.75 C663.49,133.75 661.949,135.317 661.949,137.25 C661.949,139.183 663.49,140.75 665.391,140.75 Z M630.517,102.031 C634.855,97.99 639.839,94.731 645.256,92.396 C647.006,91.642 647.823,89.587 647.081,87.808 C646.339,86.028 644.319,85.197 642.568,85.952 C636.431,88.598 630.782,92.29 625.867,96.869 C624.465,98.175 624.37,100.389 625.654,101.814 C626.938,103.24 629.116,103.336 630.517,102.031 Z M642.655,114.478 C647.102,110.486 652.491,107.736 658.296,106.494 C660.156,106.096 661.347,104.24 660.956,102.349 C660.565,100.457 658.739,99.246 656.879,99.644 C649.909,101.135 643.439,104.437 638.099,109.23 C636.674,110.509 636.538,112.721 637.797,114.17 C639.055,115.619 641.23,115.757 642.655,114.478 Z M680.249,121.464 C676.011,118.078 670.775,116.242 665.386,116.25 C659.849,116.25 654.587,118.16 650.349,121.609 C648.865,122.817 648.625,125.02 649.813,126.529 C651.001,128.038 653.167,128.282 654.651,127.075 C657.678,124.611 661.426,123.25 665.391,123.25 C669.24,123.244 672.974,124.554 675.997,126.968 C677.492,128.162 679.656,127.898 680.83,126.378 C682.004,124.858 681.744,122.658 680.249,121.464 Z M631.978,81.975 L693.935,144.975 C695.28,146.342 697.459,146.342 698.803,144.975 C700.148,143.608 700.148,141.392 698.803,140.025 L636.846,77.025 C635.502,75.658 633.322,75.658 631.978,77.025 C630.634,78.392 630.634,80.608 631.978,81.975 Z" />
        </g>
    </g>
</svg>