<?xml version="1.0" encoding="UTF-8"?>
<svg height="600" width="800" xmlns="http://www.w3.org/2000/svg" xmlns:xlink="http://www.w3.org/1999/xlink">
    <g id="Notes" font-family="LucidaGrande, 'Lucida Grande', sans-serif" font-size="13">
        <rect fill="white" height="600.0" width="800.0" x="0.0" y="0.0" />
        <g font-size="13">
            <text x="18.0" y="176.0">Small</text>
            <text x="18.0" y="376.0">Medium</text>
            <text x="18.0" y="576.0">Large</text>
        </g>
        <g font-size="9">
            <text x="250.0" y="30.0">Ultralight</text>
            <text x="450.0" y="30.0">Regular</text>
            <text x="650.0" y="30.0">Black</text>
            <text id="template-version" fill="#505050" text-anchor="end" x="785.0" y="575.0">Template v.3.0</text>
            <a href="https://github.com/swhitty/SwiftDraw">
                <text fill="#505050" text-anchor="end" x="785.0" y="590.0">https://github.com/swhitty/SwiftDraw</text>
            </a>
        </g>
    </g>
    <g id="Guides" stroke="rgb(39, 170, 225)" stroke-width="0.5">
        <path id="Capline-S" d="M18,76 l800,0" />
        <path id="H-reference" d="M85,145.755 L87.685,145.755 L113.369,79.287 L114.052,79.287 L114.052,76 L112.148,76 L85,145.755 Z M95.693,121.536 L130.996,121.536 L130.263,119.313 L96.474,119.313 L95.693,121.536 Z M139.15,145.755 L141.787,145.755 L114.638,76 L113.466,76 L113.466,79.287 L139.15,145.755 Z" stroke="none" transform="translate(0,200)" />
        <path id="Baseline-S" d="M18,146 l800,0" />
        <path id="left-margin-Ultralight-M" d="M230,256 l0,110" />
        <path id="right-margin-Ultralight-M" d="M300,256 l0,110" />
        <path id="left-margin-Regular-M" d="M430,256 l0,110" />
        <path id="right-margin-Regular-M" d="M500,256 l0,110" />
        <path id="left-margin-Black-M" d="M630,256 l0,110" />
        <path id="right-margin-Black-M" d="M700,256 l0,110" />
        <path id="Capline-M" d="M18,276 l800,0" />
        <path id="Baseline-M" d="M18,346 l800,0" />
        <path id="Capline-L" d="M18,476 l800,0" />
        <path id="Baseline-L" d="M18,546 l800,0" />
    </g>
    <g id="Symbols">
        <g id="Ultralight-M" transform="translate(0,200)">
            <path d="M276.667,103.417 L276.667,90.583 C276.67,85.165 272.94,80.457 267.664,79.219 C262.387,77.982 256.953,80.541 254.547,85.397 C253.831,86.841 254.422,88.591 255.865,89.306 C257.308,90.021 259.058,89.431 259.773,87.988 C260.977,85.56 263.694,84.28 266.332,84.899 C268.97,85.517 270.835,87.872 270.833,90.582 L270.833,103.417 C270.833,105.027 272.139,106.333 273.75,106.333 C275.361,106.333 276.667,105.027 276.667,103.417 Z M262.083,131.417 L262.083,140.167 C262.083,141.777 263.389,143.083 265,143.083 C266.611,143.083 267.917,141.777 267.917,140.167 L267.917,131.417 C267.917,129.806 266.611,128.5 265,128.5 C263.389,128.5 262.083,129.806 262.083,131.417 Z M265,128.5 C260.359,128.5 255.908,126.656 252.626,123.374 C249.344,120.092 247.5,115.641 247.5,111 L247.5,105.167 C247.5,103.556 246.194,102.25 244.583,102.25 C242.973,102.25 241.667,103.556 241.667,105.167 L241.667,111 C241.667,117.188 244.125,123.123 248.501,127.499 C252.877,131.875 258.812,134.333 265,134.333 C266.611,134.333 267.917,133.027 267.917,131.417 C267.917,129.806 266.611,128.5 265,128.5 Z M265,134.333 C271.188,134.333 277.123,131.875 281.499,127.499 C285.875,123.123 288.333,117.188 288.333,111 L288.333,105.167 C288.333,103.556 287.027,102.25 285.417,102.25 C283.806,102.25 282.5,103.556 282.5,105.167 L282.5,111 C282.5,115.641 280.656,120.092 277.374,123.374 C274.092,126.656 269.641,128.5 265,128.5 C263.389,128.5 262.083,129.806 262.083,131.417 C262.083,133.027 263.389,134.333 265,134.333 Z M253.333,143.083 L276.667,143.083 C278.277,143.083 279.583,141.777 279.583,140.167 C279.583,138.556 278.277,137.25 276.667,137.25 L253.333,137.25 C251.723,137.25 250.417,138.556 250.417,140.167 C250.417,141.777 251.723,143.083 253.333,143.083 Z M233.771,83.896 L292.104,142.229 C293.243,143.368 295.09,143.368 296.229,142.229 C297.368,141.09 297.368,139.243 296.229,138.104 L237.896,79.771 C236.757,78.632 234.91,78.632 233.771,79.771 C232.632,80.91 232.632,82.757 233.771,83.896 Z M265,116.833 C263.453,116.833 261.969,116.219 260.875,115.125 C259.781,114.031 259.167,112.547 259.167,111 L259.167,102.25 L254.188,104.313 L269.13,119.246 L271.192,117.183 L269.126,115.125 C268.034,116.221 266.551,116.836 265.004,116.833 Z M264.996,122.667 C268.096,122.671 271.071,121.438 273.259,119.242 C274.394,118.102 274.392,116.258 273.254,115.12 L258.312,100.187 C256.474,98.35 253.333,99.652 253.333,102.25 L253.333,111 C253.333,114.094 254.562,117.062 256.75,119.25 C258.938,121.438 261.906,122.667 265,122.667 Z" />
        </g>
        <g id="Regular-M" transform="translate(0,200)">
            <path d="M476.667,103.417 L476.667,90.583 C476.67,85.165 472.94,80.457 467.664,79.219 C462.387,77.982 456.953,80.541 454.547,85.397 C453.831,86.841 454.422,88.591 455.865,89.306 C457.308,90.021 459.058,89.431 459.773,87.988 C460.977,85.56 463.694,84.28 466.332,84.899 C468.97,85.517 470.835,87.872 470.833,90.582 L470.833,103.417 C470.833,105.027 472.139,106.333 473.75,106.333 C475.361,106.333 476.667,105.027 476.667,103.417 Z M462.083,131.417 L462.083,140.167 C462.083,141.777 463.389,143.083 465,143.083 C466.611,143.083 467.917,141.777 467.917,140.167 L467.917,131.417 C467.917,129.806 466.611,128.5 465,128.5 C463.389,128.5 462.083,129.806 462.083,131.417 Z M465,128.5 C460.359,128.5 455.908,126.656 452.626,123.374 C449.344,120.092 447.5,115.641 447.5,111 L447.5,105.167 C447.5,103.556 446.194,102.25 444.583,102.25 C442.973,102.25 441.667,103.556 441.667,105.167 L441.667,111 C441.667,117.188 444.125,123.123 448.501,127.499 C452.877,131.875 458.812,134.333 465,134.333 C466.611,134.333 467.917,133.027 467.917,131.417 C467.917,129.806 466.611,128.5 465,128.5 Z M465,134.333 C471.188,134.333 477.123,131.875 481.499,127.499 C485.875,123.123 488.333,117.188 488.333,111 L488.333,105.167 C488.333,103.556 487.027,102.25 485.417,102.25 C483.806,102.25 482.5,103.556 482.5,105.167 L482.5,111 C482.5,115.641 480.656,120.092 477.374,123.374 C474.092,126.656 469.641,128.5 465,128.5 C463.389,128.5 462.083,129.806 462.083,131.417 C462.083,133.027 463.389,134.333 465,134.333 Z M453.333,143.083 L476.667,143.083 C478.277,143.083 479.583,141.777 479.583,140.167 C479.583,138.556 478.277,137.25 476.667,137.25 L453.333,137.25 C451.723,137.25 450.417,138.556 450.417,140.167 C450.417,141.777 451.723,143.083 453.333,143.083 Z M433.771,83.896 L492.104,142.229 C493.243,143.368 495.09,143.368 496.229,142.229 C497.368,141.09 497.368,139.243 496.229,138.104 L437.896,79.771 C436.757,78.632 434.91,78.632 433.771,79.771 C432.632,80.91 432.632,82.757 433.771,83.896 Z M465,116.833 C463.453,116.833 461.969,116.219 460.875,115.125 C459.781,114.031 459.167,112.547 459.167,111 L459.167,102.25 L454.188,104.313 L469.13,119.246 L471.192,117.183 L469.126,115.125 C468.034,116.221 466.551,116.836 465.004,116.833 Z M464.996,122.667 C468.096,122.671 471.071,121.438 473.259,119.242 C474.394,118.102 474.392,116.258 473.254,115.12 L458.312,100.187 C456.474,98.35 453.333,99.652 453.333,102.25 L453.333,111 C453.333,114.094 454.562,117.062 456.75,119.25 C458.938,121.438 461.906,122.667 465,122.667 Z" />
        </g>
        <g id="Black-M" transform="translate(0,200)">
            <path d="M676.667,103.417 L676.667,90.583 C676.67,85.165 672.94,80.457 667.664,79.219 C662.387,77.982 656.953,80.541 654.547,85.397 C653.831,86.841 654.422,88.591 655.865,89.306 C657.308,90.021 659.058,89.431 659.773,87.988 C660.977,85.56 663.694,84.28 666.332,84.899 C668.97,85.517 670.835,87.872 670.833,90.582 L670.833,103.417 C670.833,105.027 672.139,106.333 673.75,106.333 C675.361,106.333 676.667,105.027 676.667,103.417 Z M662.083,131.417 L662.083,140.167 C662.083,141.777 663.389,143.083 665,143.083 C666.611,143.083 667.917,141.777 667.917,140.167 L667.917,131.417 C667.917,129.806 666.611,128.5 665,128.5 C663.389,128.5 662.083,129.806 662.083,131.417 Z M665,128.5 C660.359,128.5 655.908,126.656 652.626,123.374 C649.344,120.092 647.5,115.641 647.5,111 L647.5,105.167 C647.5,103.556 646.194,102.25 644.583,102.25 C642.973,102.25 641.667,103.556 641.667,105.167 L641.667,111 C641.667,117.188 644.125,123.123 648.501,127.499 C652.877,131.875 658.812,134.333 665,134.333 C666.611,134.333 667.917,133.027 667.917,131.417 C667.917,129.806 666.611,128.5 665,128.5 Z M665,134.333 C671.188,134.333 677.123,131.875 681.499,127.499 C685.875,123.123 688.333,117.188 688.333,111 L688.333,105.167 C688.333,103.556 687.027,102.25 685.417,102.25 C683.806,102.25 682.5,103.556 682.5,105.167 L682.5,111 C682.5,115.641 680.656,120.092 677.374,123.374 C674.092,126.656 669.641,128.5 665,128.5 C663.389,128.5 662.083,129.806 662.083,131.417 C662.083,133.027 663.389,134.333 665,134.333 Z M653.333,143.083 L676.667,143.083 C678.277,143.083 679.583,141.777 679.583,140.167 C679.583,138.556 678.277,137.25 676.667,137.25 L653.333,137.25 C651.723,137.25 650.417,138.556 650.417,140.167 C650.417,141.777 651.723,143.083 653.333,143.083 Z M633.771,83.896 L692.104,142.229 C693.243,143.368 695.09,143.368 696.229,142.229 C697.368,141.09 697.368,139.243 696.229,138.104 L637.896,79.771 C636.757,78.632 634.91,78.632 633.771,79.771 C632.632,80.91 632.632,82.757 633.771,83.896 Z M665,116.833 C663.453,116.833 661.969,116.219 660.875,115.125 C659.781,114.031 659.167,112.547 659.167,111 L659.167,102.25 L654.188,104.313 L669.13,119.246 L671.192,117.183 L669.126,115.125 C668.034,116.221 666.551,116.836 665.004,116.833 Z M664.996,122.667 C668.096,122.671 671.071,121.438 673.259,119.242 C674.394,118.102 674.392,116.258 673.254,115.12 L658.312,100.187 C656.474,98.35 653.333,99.652 653.333,102.25 L653.333,111 C653.333,114.094 654.562,117.062 656.75,119.25 C658.938,121.438 661.906,122.667 665,122.667 Z" />
        </g>
    </g>
</svg>