<?xml version="1.0" encoding="UTF-8"?>
<svg height="600" width="800" xmlns="http://www.w3.org/2000/svg" xmlns:xlink="http://www.w3.org/1999/xlink">
    <g id="Notes" font-family="LucidaGrande, 'Lucida Grande', sans-serif" font-size="13">
        <rect fill="white" height="600.0" width="800.0" x="0.0" y="0.0" />
        <g font-size="13">
            <text x="18.0" y="176.0">Small</text>
            <text x="18.0" y="376.0">Medium</text>
            <text x="18.0" y="576.0">Large</text>
        </g>
        <g font-size="9">
            <text x="250.0" y="30.0">Ultralight</text>
            <text x="450.0" y="30.0">Regular</text>
            <text x="650.0" y="30.0">Black</text>
            <text id="template-version" fill="#505050" text-anchor="end" x="785.0" y="575.0">Template v.3.0</text>
            <a href="https://github.com/swhitty/SwiftDraw">
                <text fill="#505050" text-anchor="end" x="785.0" y="590.0">https://github.com/swhitty/SwiftDraw</text>
            </a>
        </g>
    </g>
    <g id="Guides" stroke="rgb(39, 170, 225)" stroke-width="0.5">
        <path id="Capline-S" d="M18,76 l800,0" />
        <path id="H-reference" d="M85,145.755 L87.685,145.755 L113.369,79.287 L114.052,79.287 L114.052,76 L112.148,76 L85,145.755 Z M95.693,121.536 L130.996,121.536 L130.263,119.313 L96.474,119.313 L95.693,121.536 Z M139.15,145.755 L141.787,145.755 L114.638,76 L113.466,76 L113.466,79.287 L139.15,145.755 Z" stroke="none" transform="translate(0,200)" />
        <path id="Baseline-S" d="M18,146 l800,0" />
        <path id="left-margin-Ultralight-M" d="M230,256 l0,110" />
        <path id="right-margin-Ultralight-M" d="M300,256 l0,110" />
        <path id="left-margin-Regular-M" d="M430,256 l0,110" />
        <path id="right-margin-Regular-M" d="M500,256 l0,110" />
        <path id="left-margin-Black-M" d="M630,256 l0,110" />
        <path id="right-margin-Black-M" d="M700,256 l0,110" />
        <path id="Capline-M" d="M18,276 l800,0" />
        <path id="Baseline-M" d="M18,346 l800,0" />
        <path id="Capline-L" d="M18,476 l800,0" />
        <path id="Baseline-L" d="M18,546 l800,0" />
    </g>
    <g id="Symbols">
        <g id="Ultralight-M" transform="translate(0,200)">
            <path d="M262.409,118.255 L297.025,83.638 C298.313,82.351 298.313,80.263 297.025,78.976 C295.738,77.688 293.651,77.688 292.363,78.976 L257.747,113.592 C256.459,114.88 256.459,116.967 257.747,118.255 C259.034,119.542 261.121,119.542 262.409,118.255 Z M257.424,118.2 L266.088,140.48 C266.922,142.623 267.146,143.145 267.643,143.885 C268.081,144.536 268.615,145.066 269.332,145.439 C270.764,146.185 272.469,146.185 273.901,145.439 C274.605,145.077 275.141,144.55 275.58,143.902 C276.084,143.159 276.313,142.626 277.148,140.486 L298.873,84.81 C300.198,81.422 300.326,80.984 299.78,79.348 C299.287,77.872 298.13,76.714 296.654,76.221 C295.014,75.678 294.61,75.795 291.193,77.123 L235.515,98.851 C233.354,99.697 232.834,99.921 232.091,100.426 C231.45,100.862 230.928,101.392 230.559,102.1 C229.814,103.532 229.814,105.234 230.557,106.663 C231.393,108.268 231.783,108.46 235.52,109.911 L257.798,118.577 C258.014,118.66 258.026,118.665 257.86,118.548 C257.687,118.423 257.557,118.293 257.452,118.144 C257.412,118.091 257.351,117.988 257.307,117.9 C257.301,117.887 257.327,117.952 257.423,118.199 Z M263.57,115.811 C263.381,115.326 263.342,115.229 263.224,114.99 C263.102,114.741 262.963,114.508 262.794,114.279 C262.519,113.89 262.132,113.499 261.688,113.179 C261.197,112.832 260.928,112.713 260.165,112.423 L237.909,103.765 C236.675,103.286 236.251,103.114 235.928,102.954 C235.958,102.969 236.14,103.109 236.406,103.62 C236.655,104.099 236.655,104.667 236.408,105.143 C236.209,105.524 235.986,105.751 235.796,105.88 C235.931,105.788 236.421,105.577 237.915,104.992 L293.585,83.267 C294.706,82.832 295.07,82.697 295.371,82.609 C295.318,82.625 295.079,82.646 294.574,82.478 C294.075,82.312 293.689,81.926 293.525,81.434 C293.355,80.922 293.376,80.682 293.392,80.626 C293.304,80.928 293.162,81.309 292.732,82.411 L271.005,138.089 C270.426,139.573 270.214,140.068 270.122,140.203 C270.253,140.01 270.483,139.783 270.869,139.585 C271.332,139.343 271.901,139.343 272.378,139.592 C272.76,139.791 272.988,140.016 273.115,140.206 C273.022,140.068 272.813,139.579 272.233,138.089 L263.569,115.81 Z" />
        </g>
        <g id="Regular-M" transform="translate(0,200)">
            <path d="M462.409,118.255 L497.025,83.638 C498.313,82.351 498.313,80.263 497.025,78.976 C495.738,77.688 493.651,77.688 492.363,78.976 L457.747,113.592 C456.459,114.88 456.459,116.967 457.747,118.255 C459.034,119.542 461.121,119.542 462.409,118.255 Z M457.424,118.2 L466.088,140.48 C466.922,142.623 467.146,143.145 467.643,143.885 C468.081,144.536 468.615,145.066 469.332,145.439 C470.764,146.185 472.469,146.185 473.901,145.439 C474.605,145.077 475.141,144.55 475.58,143.902 C476.084,143.159 476.313,142.626 477.148,140.486 L498.873,84.81 C500.198,81.422 500.326,80.984 499.78,79.348 C499.287,77.872 498.13,76.714 496.654,76.221 C495.014,75.678 494.61,75.795 491.193,77.123 L435.515,98.851 C433.354,99.697 432.834,99.921 432.091,100.426 C431.45,100.862 430.928,101.392 430.559,102.1 C429.814,103.532 429.814,105.234 430.557,106.663 C431.393,108.268 431.783,108.46 435.52,109.911 L457.798,118.577 C458.014,118.66 458.026,118.665 457.86,118.548 C457.687,118.423 457.557,118.293 457.452,118.144 C457.412,118.091 457.351,117.988 457.307,117.9 C457.301,117.887 457.327,117.952 457.423,118.199 Z M463.57,115.811 C463.381,115.326 463.342,115.229 463.224,114.99 C463.102,114.741 462.963,114.508 462.794,114.279 C462.519,113.89 462.132,113.499 461.688,113.179 C461.197,112.832 460.928,112.713 460.165,112.423 L437.909,103.765 C436.675,103.286 436.251,103.114 435.927,102.954 C435.958,102.969 436.14,103.109 436.406,103.62 C436.655,104.099 436.655,104.667 436.408,105.143 C436.209,105.524 435.986,105.751 435.797,105.88 C435.931,105.788 436.421,105.577 437.915,104.992 L493.585,83.267 C494.706,82.832 495.07,82.697 495.371,82.609 C495.318,82.625 495.079,82.646 494.574,82.478 C494.075,82.312 493.689,81.926 493.525,81.434 C493.355,80.922 493.376,80.682 493.392,80.626 C493.304,80.928 493.162,81.309 492.732,82.411 L471.005,138.089 C470.426,139.573 470.214,140.068 470.122,140.203 C470.253,140.01 470.483,139.783 470.869,139.585 C471.332,139.343 471.901,139.343 472.378,139.592 C472.76,139.791 472.988,140.016 473.115,140.206 C473.022,140.068 472.813,139.579 472.233,138.089 L463.569,115.81 Z" />
        </g>
        <g id="Black-M" transform="translate(0,200)">
            <path d="M662.409,118.255 L697.025,83.638 C698.313,82.351 698.313,80.263 697.025,78.976 C695.738,77.688 693.651,77.688 692.363,78.976 L657.747,113.592 C656.459,114.88 656.459,116.967 657.747,118.255 C659.034,119.542 661.121,119.542 662.409,118.255 Z M657.424,118.2 L666.088,140.48 C666.922,142.623 667.146,143.145 667.643,143.885 C668.081,144.536 668.615,145.066 669.332,145.439 C670.764,146.185 672.469,146.185 673.901,145.439 C674.605,145.077 675.141,144.55 675.58,143.902 C676.084,143.159 676.313,142.626 677.148,140.486 L698.873,84.81 C700.198,81.422 700.326,80.984 699.78,79.348 C699.287,77.872 698.13,76.714 696.654,76.221 C695.014,75.678 694.61,75.795 691.193,77.123 L635.515,98.851 C633.354,99.697 632.834,99.921 632.091,100.426 C631.45,100.862 630.928,101.392 630.559,102.1 C629.814,103.532 629.814,105.234 630.557,106.663 C631.393,108.268 631.783,108.46 635.52,109.911 L657.798,118.577 C658.014,118.66 658.026,118.665 657.86,118.548 C657.687,118.423 657.557,118.293 657.452,118.144 C657.412,118.091 657.351,117.988 657.307,117.9 C657.301,117.887 657.327,117.952 657.423,118.199 Z M663.57,115.811 C663.381,115.326 663.342,115.229 663.224,114.99 C663.102,114.741 662.963,114.508 662.794,114.279 C662.519,113.89 662.132,113.499 661.688,113.179 C661.197,112.832 660.928,112.713 660.165,112.423 L637.909,103.765 C636.675,103.286 636.251,103.114 635.927,102.954 C635.958,102.969 636.14,103.109 636.406,103.62 C636.655,104.099 636.655,104.667 636.408,105.143 C636.209,105.524 635.986,105.751 635.797,105.88 C635.931,105.788 636.421,105.577 637.915,104.992 L693.585,83.267 C694.706,82.832 695.07,82.697 695.371,82.609 C695.318,82.625 695.079,82.646 694.574,82.478 C694.075,82.312 693.689,81.926 693.525,81.434 C693.355,80.922 693.376,80.682 693.392,80.626 C693.304,80.928 693.162,81.309 692.732,82.411 L671.005,138.089 C670.426,139.573 670.214,140.068 670.122,140.203 C670.253,140.01 670.483,139.783 670.869,139.585 C671.332,139.343 671.901,139.343 672.378,139.592 C672.76,139.791 672.988,140.016 673.115,140.206 C673.022,140.068 672.813,139.579 672.233,138.089 L663.569,115.81 Z" />
        </g>
    </g>
</svg>