<?xml version="1.0" encoding="UTF-8"?>
<svg height="600" width="800" xmlns="http://www.w3.org/2000/svg" xmlns:xlink="http://www.w3.org/1999/xlink">
    <g id="Notes" font-family="LucidaGrande, 'Lucida Grande', sans-serif" font-size="13">
        <rect fill="white" height="600.0" width="800.0" x="0.0" y="0.0" />
        <g font-size="13">
            <text x="18.0" y="176.0">Small</text>
            <text x="18.0" y="376.0">Medium</text>
            <text x="18.0" y="576.0">Large</text>
        </g>
        <g font-size="9">
            <text x="250.0" y="30.0">Ultralight</text>
            <text x="450.0" y="30.0">Regular</text>
            <text x="650.0" y="30.0">Black</text>
            <text id="template-version" fill="#505050" text-anchor="end" x="785.0" y="575.0">Template v.3.0</text>
            <a href="https://github.com/swhitty/SwiftDraw">
                <text fill="#505050" text-anchor="end" x="785.0" y="590.0">https://github.com/swhitty/SwiftDraw</text>
            </a>
        </g>
    </g>
    <g id="Guides" stroke="rgb(39, 170, 225)" stroke-width="0.5">
        <path id="Capline-S" d="M18,76 l800,0" />
        <path id="H-reference" d="M85,145.755 L87.685,145.755 L113.369,79.287 L114.052,79.287 L114.052,76 L112.148,76 L85,145.755 Z M95.693,121.536 L130.996,121.536 L130.263,119.313 L96.474,119.313 L95.693,121.536 Z M139.15,145.755 L141.787,145.755 L114.638,76 L113.466,76 L113.466,79.287 L139.15,145.755 Z" stroke="none" transform="translate(0,200)" />
        <path id="Baseline-S" d="M18,146 l800,0" />
        <path id="left-margin-Ultralight-M" d="M230,256 l0,110" />
        <path id="right-margin-Ultralight-M" d="M300,256 l0,110" />
        <path id="left-margin-Regular-M" d="M430,256 l0,110" />
        <path id="right-margin-Regular-M" d="M500,256 l0,110" />
        <path id="left-margin-Black-M" d="M630,256 l0,110" />
        <path id="right-margin-Black-M" d="M700,256 l0,110" />
        <path id="Capline-M" d="M18,276 l800,0" />
        <path id="Baseline-M" d="M18,346 l800,0" />
        <path id="Capline-L" d="M18,476 l800,0" />
        <path id="Baseline-L" d="M18,546 l800,0" />
    </g>
    <g id="Symbols">
        <g id="Ultralight-M" transform="translate(0,200)">
            <path d="M260.325,144.77 C261.347,145.263 261.683,145.413 262.304,145.607 C262.654,145.717 263.008,145.803 263.379,145.868 C264.382,146.044 265.618,146.044 266.627,145.867 C267.715,145.671 268.259,145.453 269.675,144.77 C286.889,136.472 300,125.19 300,111.114 L300,95.751 C300,92.07 299.925,91.149 299.242,89.66 C298.565,88.191 297.468,86.885 296.043,85.849 C295.324,85.324 294.521,84.901 293.541,84.505 C292.601,84.125 291.853,83.881 289.405,83.121 L268.551,76.665 C267.279,76.271 266.927,76.174 266.212,76.079 C266.172,76.073 266.172,76.073 266.131,76.068 C265.375,75.978 264.625,75.978 263.888,76.066 C263.816,76.075 263.816,76.075 263.763,76.082 C263.06,76.178 262.751,76.263 261.455,76.663 L240.598,83.117 C236.456,84.398 235.408,84.791 233.956,85.847 C232.531,86.884 231.436,88.19 230.763,89.654 C230.075,91.146 230,92.069 230,95.751 L230,111.114 C230,125.19 243.111,136.472 260.325,144.77 Z M264.246,139.222 C249.265,132 237.778,122.116 237.778,111.114 L237.778,95.751 C237.778,93.016 237.83,92.378 238.033,91.938 C238.258,91.448 238.623,91.012 239.097,90.667 C239.526,90.355 240.245,90.085 243.326,89.133 L264.179,82.68 C264.895,82.459 265.043,82.418 265.034,82.42 C265.026,82.421 265.026,82.421 265.019,82.422 C265,82.424 265,82.424 265,82.424 C264.975,82.421 264.975,82.421 264.97,82.42 C264.961,82.419 265.116,82.461 265.82,82.68 L286.673,89.136 C288.836,89.807 289.504,90.025 290.124,90.276 C290.517,90.435 290.743,90.554 290.899,90.668 C291.38,91.017 291.746,91.453 291.971,91.941 C292.17,92.375 292.222,93.015 292.222,95.751 L292.222,111.114 C292.222,122.116 280.735,132 265.754,139.222 C265.051,139.562 264.985,139.588 264.989,139.587 C265.066,139.574 264.934,139.574 264.994,139.584 C265.01,139.587 265.041,139.594 265.065,139.602 C265.009,139.584 264.848,139.513 264.246,139.222 Z" />
        </g>
        <g id="Regular-M" transform="translate(0,200)">
            <path d="M460.325,144.77 C461.347,145.263 461.683,145.413 462.304,145.607 C462.654,145.717 463.008,145.803 463.379,145.868 C464.382,146.044 465.618,146.044 466.627,145.867 C467.715,145.671 468.259,145.453 469.675,144.77 C486.889,136.472 500,125.19 500,111.114 L500,95.751 C500,92.07 499.925,91.149 499.242,89.66 C498.565,88.191 497.468,86.885 496.043,85.849 C495.324,85.324 494.521,84.901 493.541,84.505 C492.601,84.125 491.853,83.881 489.405,83.121 L468.551,76.665 C467.279,76.271 466.927,76.174 466.212,76.079 C466.172,76.073 466.172,76.073 466.131,76.068 C465.375,75.978 464.625,75.978 463.888,76.066 C463.816,76.075 463.816,76.075 463.763,76.082 C463.06,76.178 462.751,76.263 461.455,76.663 L440.598,83.117 C436.456,84.398 435.408,84.791 433.956,85.847 C432.531,86.884 431.436,88.19 430.763,89.654 C430.075,91.146 430,92.069 430,95.751 L430,111.114 C430,125.19 443.111,136.472 460.325,144.77 Z M464.246,139.222 C449.265,132 437.778,122.116 437.778,111.114 L437.778,95.751 C437.778,93.016 437.83,92.378 438.033,91.938 C438.258,91.448 438.623,91.012 439.097,90.667 C439.526,90.355 440.245,90.085 443.326,89.133 L464.179,82.68 C464.895,82.459 465.043,82.418 465.034,82.42 C465.026,82.421 465.026,82.421 465.019,82.422 C465,82.424 465,82.424 465,82.424 C464.975,82.421 464.975,82.421 464.97,82.42 C464.961,82.419 465.116,82.461 465.82,82.68 L486.673,89.136 C488.836,89.807 489.504,90.025 490.124,90.276 C490.517,90.435 490.743,90.554 490.899,90.668 C491.38,91.017 491.746,91.453 491.971,91.941 C492.17,92.375 492.222,93.015 492.222,95.751 L492.222,111.114 C492.222,122.116 480.735,132 465.754,139.222 C465.051,139.562 464.985,139.588 464.989,139.587 C465.066,139.574 464.934,139.574 464.994,139.584 C465.01,139.587 465.041,139.594 465.065,139.602 C465.009,139.584 464.848,139.513 464.246,139.222 Z" />
        </g>
        <g id="Black-M" transform="translate(0,200)">
            <path d="M660.325,144.77 C661.347,145.263 661.683,145.413 662.304,145.607 C662.654,145.717 663.008,145.803 663.379,145.868 C664.382,146.044 665.618,146.044 666.627,145.867 C667.715,145.671 668.259,145.453 669.675,144.77 C686.889,136.472 700,125.19 700,111.114 L700,95.751 C700,92.07 699.925,91.149 699.242,89.66 C698.565,88.191 697.468,86.885 696.043,85.849 C695.324,85.324 694.521,84.901 693.541,84.505 C692.601,84.125 691.853,83.881 689.405,83.121 L668.551,76.665 C667.279,76.271 666.927,76.174 666.212,76.079 C666.172,76.073 666.172,76.073 666.131,76.068 C665.375,75.978 664.625,75.978 663.888,76.066 C663.816,76.075 663.816,76.075 663.763,76.082 C663.06,76.178 662.751,76.263 661.455,76.663 L640.598,83.117 C636.456,84.398 635.408,84.791 633.956,85.847 C632.531,86.884 631.436,88.19 630.763,89.654 C630.075,91.146 630,92.069 630,95.751 L630,111.114 C630,125.19 643.111,136.472 660.325,144.77 Z M664.246,139.222 C649.265,132 637.778,122.116 637.778,111.114 L637.778,95.751 C637.778,93.016 637.83,92.378 638.033,91.938 C638.258,91.448 638.623,91.012 639.097,90.667 C639.526,90.355 640.245,90.085 643.326,89.133 L664.179,82.68 C664.895,82.459 665.043,82.418 665.034,82.42 C665.026,82.421 665.026,82.421 665.019,82.422 C665,82.424 665,82.424 665,82.424 C664.975,82.421 664.975,82.421 664.97,82.42 C664.961,82.419 665.116,82.461 665.82,82.68 L686.673,89.136 C688.836,89.807 689.504,90.025 690.124,90.276 C690.517,90.435 690.743,90.554 690.899,90.668 C691.38,91.017 691.746,91.453 691.971,91.941 C692.17,92.375 692.222,93.015 692.222,95.751 L692.222,111.114 C692.222,122.116 680.735,132 665.754,139.222 C665.051,139.562 664.985,139.588 664.989,139.587 C665.066,139.574 664.934,139.574 664.994,139.584 C665.01,139.587 665.041,139.594 665.065,139.602 C665.009,139.584 664.848,139.513 664.246,139.222 Z" />
        </g>
    </g>
</svg>