<?xml version="1.0" encoding="UTF-8"?>
<svg height="600" width="800" xmlns="http://www.w3.org/2000/svg" xmlns:xlink="http://www.w3.org/1999/xlink">
    <g id="Notes" font-family="LucidaGrande, 'Lucida Grande', sans-serif" font-size="13">
        <rect fill="white" height="600.0" width="800.0" x="0.0" y="0.0" />
        <g font-size="13">
            <text x="18.0" y="176.0">Small</text>
            <text x="18.0" y="376.0">Medium</text>
            <text x="18.0" y="576.0">Large</text>
        </g>
        <g font-size="9">
            <text x="250.0" y="30.0">Ultralight</text>
            <text x="450.0" y="30.0">Regular</text>
            <text x="650.0" y="30.0">Black</text>
            <text id="template-version" fill="#505050" text-anchor="end" x="785.0" y="575.0">Template v.3.0</text>
            <a href="https://github.com/swhitty/SwiftDraw">
                <text fill="#505050" text-anchor="end" x="785.0" y="590.0">https://github.com/swhitty/SwiftDraw</text>
            </a>
        </g>
    </g>
    <g id="Guides" stroke="rgb(39, 170, 225)" stroke-width="0.5">
        <path id="Capline-S" d="M18,76 l800,0" />
        <path id="H-reference" d="M85,145.755 L87.685,145.755 L113.369,79.287 L114.052,79.287 L114.052,76 L112.148,76 L85,145.755 Z M95.693,121.536 L130.996,121.536 L130.263,119.313 L96.474,119.313 L95.693,121.536 Z M139.15,145.755 L141.787,145.755 L114.638,76 L113.466,76 L113.466,79.287 L139.15,145.755 Z" stroke="none" transform="translate(0,200)" />
        <path id="Baseline-S" d="M18,146 l800,0" />
        <path id="left-margin-Ultralight-M" d="M221,256 l0,110" />
        <path id="right-margin-Ultralight-M" d="M309,256 l0,110" />
        <path id="left-margin-Regular-M" d="M421,256 l0,110" />
        <path id="right-margin-Regular-M" d="M509,256 l0,110" />
        <path id="left-margin-Black-M" d="M621,256 l0,110" />
        <path id="right-margin-Black-M" d="M709,256 l0,110" />
        <path id="Capline-M" d="M18,276 l800,0" />
        <path id="Baseline-M" d="M18,346 l800,0" />
        <path id="Capline-L" d="M18,476 l800,0" />
        <path id="Baseline-L" d="M18,546 l800,0" />
    </g>
    <g id="Symbols">
        <g id="Ultralight-M" transform="translate(0,200)">
            <path d="M258.84,112.442 C262.554,110.306 267.125,110.306 270.838,112.442 C272.751,113.542 275.195,112.885 276.296,110.974 C277.398,109.063 276.74,106.622 274.827,105.521 C268.644,101.965 261.034,101.965 254.852,105.521 C252.939,106.622 252.281,109.063 253.382,110.974 C254.484,112.885 256.927,113.542 258.84,112.442 Z M249.367,102.401 C252.453,105.416 253.678,109.854 252.576,114.023 C251.475,118.192 248.215,121.447 244.043,122.547 C239.87,123.647 235.427,122.422 232.41,119.339 C227.817,114.646 227.86,107.134 232.506,102.494 C237.152,97.853 244.67,97.812 249.367,102.401 Z M254.956,96.692 C247.128,89.043 234.597,89.112 226.854,96.846 C219.111,104.581 219.04,117.1 226.695,124.922 C231.723,130.06 239.127,132.102 246.082,130.269 C253.037,128.436 258.469,123.01 260.305,116.062 C262.141,109.114 260.098,101.716 254.956,96.692 Z M297.346,102.418 C300.463,105.426 301.713,109.88 300.615,114.068 C299.518,118.256 296.244,121.527 292.052,122.623 C287.86,123.719 283.402,122.471 280.392,119.357 C275.848,114.656 275.913,107.185 280.538,102.564 C285.163,97.944 292.641,97.879 297.346,102.418 Z M302.899,96.674 C295.058,89.108 282.594,89.216 274.886,96.917 C267.177,104.619 267.069,117.071 274.642,124.905 C279.659,130.095 287.089,132.176 294.076,130.349 C301.063,128.522 306.52,123.071 308.348,116.09 C310.177,109.11 308.094,101.687 302.899,96.674 Z" />
        </g>
        <g id="Regular-M" transform="translate(0,200)">
            <path d="M458.84,112.442 C462.554,110.306 467.125,110.306 470.838,112.442 C472.751,113.542 475.195,112.885 476.296,110.974 C477.398,109.063 476.74,106.622 474.827,105.521 C468.644,101.965 461.034,101.965 454.852,105.521 C452.939,106.622 452.281,109.063 453.382,110.974 C454.484,112.885 456.927,113.542 458.84,112.442 Z M449.367,102.401 C452.453,105.416 453.678,109.854 452.576,114.023 C451.475,118.192 448.215,121.447 444.043,122.547 C439.87,123.647 435.427,122.422 432.41,119.339 C427.817,114.646 427.86,107.134 432.506,102.494 C437.152,97.853 444.67,97.812 449.367,102.401 Z M454.956,96.692 C447.128,89.043 434.597,89.112 426.854,96.846 C419.111,104.581 419.04,117.1 426.695,124.922 C431.723,130.06 439.127,132.102 446.082,130.269 C453.037,128.436 458.469,123.01 460.305,116.062 C462.141,109.114 460.098,101.716 454.956,96.692 Z M497.346,102.418 C500.463,105.426 501.713,109.88 500.615,114.068 C499.518,118.256 496.244,121.527 492.052,122.623 C487.86,123.719 483.402,122.471 480.392,119.357 C475.848,114.656 475.913,107.185 480.538,102.564 C485.163,97.944 492.641,97.879 497.346,102.418 Z M502.899,96.674 C495.058,89.108 482.594,89.216 474.886,96.917 C467.177,104.619 467.069,117.071 474.642,124.905 C479.659,130.095 487.089,132.176 494.076,130.349 C501.063,128.522 506.52,123.071 508.348,116.09 C510.177,109.11 508.094,101.687 502.899,96.674 Z" />
        </g>
        <g id="Black-M" transform="translate(0,200)">
            <path d="M658.84,112.442 C662.554,110.306 667.125,110.306 670.838,112.442 C672.751,113.542 675.195,112.885 676.296,110.974 C677.398,109.063 676.74,106.622 674.827,105.521 C668.644,101.965 661.034,101.965 654.852,105.521 C652.939,106.622 652.281,109.063 653.382,110.974 C654.484,112.885 656.927,113.542 658.84,112.442 Z M649.367,102.401 C652.453,105.416 653.678,109.854 652.576,114.023 C651.475,118.192 648.215,121.447 644.043,122.547 C639.87,123.647 635.427,122.422 632.41,119.339 C627.817,114.646 627.86,107.134 632.506,102.494 C637.152,97.853 644.67,97.812 649.367,102.401 Z M654.956,96.692 C647.128,89.043 634.597,89.112 626.854,96.846 C619.111,104.581 619.04,117.1 626.695,124.922 C631.723,130.06 639.127,132.102 646.082,130.269 C653.037,128.436 658.469,123.01 660.305,116.062 C662.141,109.114 660.099,101.716 654.956,96.692 Z M697.346,102.418 C700.463,105.426 701.713,109.88 700.615,114.068 C699.518,118.256 696.244,121.527 692.052,122.623 C687.86,123.719 683.402,122.471 680.392,119.357 C675.848,114.656 675.913,107.185 680.538,102.564 C685.163,97.944 692.641,97.879 697.346,102.418 Z M702.899,96.674 C695.058,89.108 682.594,89.216 674.885,96.917 C667.177,104.619 667.069,117.071 674.642,124.905 C679.659,130.095 687.089,132.176 694.076,130.349 C701.063,128.522 706.52,123.071 708.348,116.09 C710.177,109.11 708.094,101.687 702.899,96.674 Z" />
        </g>
    </g>
</svg>