<?xml version="1.0" encoding="UTF-8"?>
<svg height="600" width="800" xmlns="http://www.w3.org/2000/svg" xmlns:xlink="http://www.w3.org/1999/xlink">
    <g id="Notes" font-family="LucidaGrande, 'Lucida Grande', sans-serif" font-size="13">
        <rect fill="white" height="600.0" width="800.0" x="0.0" y="0.0" />
        <g font-size="13">
            <text x="18.0" y="176.0">Small</text>
            <text x="18.0" y="376.0">Medium</text>
            <text x="18.0" y="576.0">Large</text>
        </g>
        <g font-size="9">
            <text x="250.0" y="30.0">Ultralight</text>
            <text x="450.0" y="30.0">Regular</text>
            <text x="650.0" y="30.0">Black</text>
            <text id="template-version" fill="#505050" text-anchor="end" x="785.0" y="575.0">Template v.3.0</text>
            <a href="https://github.com/swhitty/SwiftDraw">
                <text fill="#505050" text-anchor="end" x="785.0" y="590.0">https://github.com/swhitty/SwiftDraw</text>
            </a>
        </g>
    </g>
    <g id="Guides" stroke="rgb(39, 170, 225)" stroke-width="0.5">
        <path id="Capline-S" d="M18,76 l800,0" />
        <path id="H-reference" d="M85,145.755 L87.685,145.755 L113.369,79.287 L114.052,79.287 L114.052,76 L112.148,76 L85,145.755 Z M95.693,121.536 L130.996,121.536 L130.263,119.313 L96.474,119.313 L95.693,121.536 Z M139.15,145.755 L141.787,145.755 L114.638,76 L113.466,76 L113.466,79.287 L139.15,145.755 Z" stroke="none" transform="translate(0,200)" />
        <path id="Baseline-S" d="M18,146 l800,0" />
        <path id="left-margin-Ultralight-M" d="M230,256 l0,110" />
        <path id="right-margin-Ultralight-M" d="M300,256 l0,110" />
        <path id="left-margin-Regular-M" d="M430,256 l0,110" />
        <path id="right-margin-Regular-M" d="M500,256 l0,110" />
        <path id="left-margin-Black-M" d="M630,256 l0,110" />
        <path id="right-margin-Black-M" d="M700,256 l0,110" />
        <path id="Capline-M" d="M18,276 l800,0" />
        <path id="Baseline-M" d="M18,346 l800,0" />
        <path id="Capline-L" d="M18,476 l800,0" />
        <path id="Baseline-L" d="M18,546 l800,0" />
    </g>
    <g id="Symbols">
        <g id="Ultralight-M" transform="translate(0,200)">
            <path d="M233.5,83.778 L245.4,83.778 C259.397,83.778 262.736,84.081 265.945,85.897 C269.238,87.761 271.915,90.736 273.592,94.394 C275.227,97.96 275.5,101.67 275.5,117.222 L275.5,142.111 C275.5,144.259 277.067,146 279,146 C280.933,146 282.5,144.259 282.5,142.111 L282.5,117.222 C282.5,100.108 282.201,96.036 279.83,90.864 C277.481,85.741 273.733,81.577 269.123,78.967 C264.468,76.333 260.803,76 245.4,76 L233.5,76 C231.567,76 230,77.741 230,79.889 C230,82.037 231.567,83.778 233.5,83.778 Z M281.475,139.361 L263.975,119.917 C262.608,118.398 260.392,118.398 259.025,119.917 C257.658,121.436 257.658,123.898 259.025,125.417 L276.525,144.861 C277.892,146.38 280.108,146.38 281.475,144.861 C282.842,143.342 282.842,140.88 281.475,139.361 Z M281.475,144.861 L298.975,125.417 C300.342,123.898 300.342,121.436 298.975,119.917 C297.608,118.398 295.392,118.398 294.025,119.917 L276.525,139.361 C275.158,140.88 275.158,143.342 276.525,144.861 C277.892,146.38 280.108,146.38 281.475,144.861 Z" />
        </g>
        <g id="Regular-M" transform="translate(0,200)">
            <path d="M433.5,83.778 L445.4,83.778 C459.397,83.778 462.736,84.081 465.945,85.897 C469.238,87.761 471.915,90.736 473.592,94.394 C475.227,97.96 475.5,101.67 475.5,117.222 L475.5,142.111 C475.5,144.259 477.067,146 479,146 C480.933,146 482.5,144.259 482.5,142.111 L482.5,117.222 C482.5,100.108 482.201,96.036 479.83,90.864 C477.481,85.741 473.733,81.577 469.123,78.967 C464.468,76.333 460.803,76 445.4,76 L433.5,76 C431.567,76 430,77.741 430,79.889 C430,82.037 431.567,83.778 433.5,83.778 Z M481.475,139.361 L463.975,119.917 C462.608,118.398 460.392,118.398 459.025,119.917 C457.658,121.436 457.658,123.898 459.025,125.417 L476.525,144.861 C477.892,146.38 480.108,146.38 481.475,144.861 C482.842,143.342 482.842,140.88 481.475,139.361 Z M481.475,144.861 L498.975,125.417 C500.342,123.898 500.342,121.436 498.975,119.917 C497.608,118.398 495.392,118.398 494.025,119.917 L476.525,139.361 C475.158,140.88 475.158,143.342 476.525,144.861 C477.892,146.38 480.108,146.38 481.475,144.861 Z" />
        </g>
        <g id="Black-M" transform="translate(0,200)">
            <path d="M633.5,83.778 L645.4,83.778 C659.397,83.778 662.736,84.081 665.945,85.897 C669.238,87.761 671.915,90.736 673.593,94.394 C675.227,97.96 675.5,101.67 675.5,117.222 L675.5,142.111 C675.5,144.259 677.067,146 679,146 C680.933,146 682.5,144.259 682.5,142.111 L682.5,117.222 C682.5,100.108 682.201,96.036 679.83,90.864 C677.481,85.741 673.733,81.577 669.123,78.967 C664.468,76.333 660.803,76 645.4,76 L633.5,76 C631.567,76 630,77.741 630,79.889 C630,82.037 631.567,83.778 633.5,83.778 Z M681.475,139.361 L663.975,119.917 C662.608,118.398 660.392,118.398 659.025,119.917 C657.658,121.436 657.658,123.898 659.025,125.417 L676.525,144.861 C677.892,146.38 680.108,146.38 681.475,144.861 C682.842,143.342 682.842,140.88 681.475,139.361 Z M681.475,144.861 L698.975,125.417 C700.342,123.898 700.342,121.436 698.975,119.917 C697.608,118.398 695.392,118.398 694.025,119.917 L676.525,139.361 C675.158,140.88 675.158,143.342 676.525,144.861 C677.892,146.38 680.108,146.38 681.475,144.861 Z" />
        </g>
    </g>
</svg>