<?xml version="1.0" encoding="UTF-8"?>
<svg height="600" width="800" xmlns="http://www.w3.org/2000/svg" xmlns:xlink="http://www.w3.org/1999/xlink">
    <g id="Notes" font-family="LucidaGrande, 'Lucida Grande', sans-serif" font-size="13">
        <rect fill="white" height="600.0" width="800.0" x="0.0" y="0.0" />
        <g font-size="13">
            <text x="18.0" y="176.0">Small</text>
            <text x="18.0" y="376.0">Medium</text>
            <text x="18.0" y="576.0">Large</text>
        </g>
        <g font-size="9">
            <text x="250.0" y="30.0">Ultralight</text>
            <text x="450.0" y="30.0">Regular</text>
            <text x="650.0" y="30.0">Black</text>
            <text id="template-version" fill="#505050" text-anchor="end" x="785.0" y="575.0">Template v.3.0</text>
            <a href="https://github.com/swhitty/SwiftDraw">
                <text fill="#505050" text-anchor="end" x="785.0" y="590.0">https://github.com/swhitty/SwiftDraw</text>
            </a>
        </g>
    </g>
    <g id="Guides" stroke="rgb(39, 170, 225)" stroke-width="0.5">
        <path id="Capline-S" d="M18,76 l800,0" />
        <path id="H-reference" d="M85,145.755 L87.685,145.755 L113.369,79.287 L114.052,79.287 L114.052,76 L112.148,76 L85,145.755 Z M95.693,121.536 L130.996,121.536 L130.263,119.313 L96.474,119.313 L95.693,121.536 Z M139.15,145.755 L141.787,145.755 L114.638,76 L113.466,76 L113.466,79.287 L139.15,145.755 Z" stroke="none" transform="translate(0,200)" />
        <path id="Baseline-S" d="M18,146 l800,0" />
        <path id="left-margin-Ultralight-M" d="M230,256 l0,110" />
        <path id="right-margin-Ultralight-M" d="M300,256 l0,110" />
        <path id="left-margin-Regular-M" d="M430,256 l0,110" />
        <path id="right-margin-Regular-M" d="M500,256 l0,110" />
        <path id="left-margin-Black-M" d="M630,256 l0,110" />
        <path id="right-margin-Black-M" d="M700,256 l0,110" />
        <path id="Capline-M" d="M18,276 l800,0" />
        <path id="Baseline-M" d="M18,346 l800,0" />
        <path id="Capline-L" d="M18,476 l800,0" />
        <path id="Baseline-L" d="M18,546 l800,0" />
    </g>
    <g id="Symbols">
        <g id="Ultralight-M" transform="translate(0,200)">
            <path d="M262.083,99.333 L262.083,96.417 C262.083,94.806 260.777,93.5 259.167,93.5 C257.556,93.5 256.25,94.806 256.25,96.417 L256.25,99.333 C256.25,100.944 257.556,102.25 259.167,102.25 C260.777,102.25 262.083,100.944 262.083,99.333 Z M262.083,112.458 L262.083,109.542 C262.083,107.931 260.777,106.625 259.167,106.625 C257.556,106.625 256.25,107.931 256.25,109.542 L256.25,112.458 C256.25,114.069 257.556,115.375 259.167,115.375 C260.777,115.375 262.083,114.069 262.083,112.458 Z M262.083,125.583 L262.083,122.667 C262.083,121.056 260.777,119.75 259.167,119.75 C257.556,119.75 256.25,121.056 256.25,122.667 L256.25,125.583 C256.25,127.194 257.556,128.5 259.167,128.5 C260.777,128.5 262.083,127.194 262.083,125.583 Z M245.167,90.583 L284.833,90.583 C288.331,90.583 289.168,90.652 289.658,90.901 C290.206,91.181 290.652,91.627 290.932,92.176 C291.182,92.666 291.25,93.503 291.25,97 L291.25,100.792 L294.167,97.875 C286.918,97.875 281.042,103.751 281.042,111 C281.042,118.249 286.918,124.125 294.167,124.125 L291.25,121.208 L291.25,125 C291.25,128.497 291.182,129.334 290.932,129.825 C290.652,130.373 290.206,130.819 289.658,131.099 C289.168,131.348 288.331,131.417 284.833,131.417 L245.167,131.417 C241.669,131.417 240.832,131.348 240.342,131.099 C239.794,130.819 239.348,130.373 239.068,129.824 C238.818,129.334 238.75,128.497 238.75,125 L238.75,121.208 L235.833,124.125 C243.082,124.125 248.958,118.249 248.958,111 C248.958,103.751 243.082,97.875 235.833,97.875 L238.75,100.792 L238.75,97 C238.75,93.503 238.818,92.666 239.068,92.175 C239.348,91.627 239.794,91.181 240.342,90.901 C240.832,90.652 241.669,90.583 245.167,90.583 Z M245.167,84.75 C240.497,84.75 239.389,84.841 237.695,85.704 C236.048,86.543 234.709,87.881 233.87,89.527 C233.007,91.222 232.917,92.331 232.917,97 L232.917,100.792 C232.917,102.402 234.223,103.708 235.833,103.708 C239.86,103.708 243.125,106.973 243.125,111 C243.125,115.027 239.86,118.292 235.833,118.292 C234.223,118.292 232.917,119.598 232.917,121.208 L232.917,125 C232.917,129.669 233.007,130.778 233.87,132.472 C234.709,134.119 236.048,135.457 237.694,136.296 C239.389,137.159 240.497,137.25 245.167,137.25 L284.833,137.25 C289.503,137.25 290.611,137.159 292.305,136.296 C293.952,135.457 295.291,134.119 296.13,132.473 C296.993,130.778 297.083,129.669 297.083,125 L297.083,121.208 C297.083,119.598 295.777,118.292 294.167,118.292 C290.14,118.292 286.875,115.027 286.875,111 C286.875,106.973 290.14,103.708 294.167,103.708 C295.777,103.708 297.083,102.402 297.083,100.792 L297.083,97 C297.083,92.331 296.993,91.222 296.13,89.528 C295.291,87.881 293.952,86.543 292.306,85.704 C290.611,84.841 289.503,84.75 284.833,84.75 L245.167,84.75 Z" />
        </g>
        <g id="Regular-M" transform="translate(0,200)">
            <path d="M462.083,99.333 L462.083,96.417 C462.083,94.806 460.777,93.5 459.167,93.5 C457.556,93.5 456.25,94.806 456.25,96.417 L456.25,99.333 C456.25,100.944 457.556,102.25 459.167,102.25 C460.777,102.25 462.083,100.944 462.083,99.333 Z M462.083,112.458 L462.083,109.542 C462.083,107.931 460.777,106.625 459.167,106.625 C457.556,106.625 456.25,107.931 456.25,109.542 L456.25,112.458 C456.25,114.069 457.556,115.375 459.167,115.375 C460.777,115.375 462.083,114.069 462.083,112.458 Z M462.083,125.583 L462.083,122.667 C462.083,121.056 460.777,119.75 459.167,119.75 C457.556,119.75 456.25,121.056 456.25,122.667 L456.25,125.583 C456.25,127.194 457.556,128.5 459.167,128.5 C460.777,128.5 462.083,127.194 462.083,125.583 Z M445.167,90.583 L484.833,90.583 C488.331,90.583 489.168,90.652 489.658,90.901 C490.206,91.181 490.652,91.627 490.932,92.176 C491.182,92.666 491.25,93.503 491.25,97 L491.25,100.792 L494.167,97.875 C486.918,97.875 481.042,103.751 481.042,111 C481.042,118.249 486.918,124.125 494.167,124.125 L491.25,121.208 L491.25,125 C491.25,128.497 491.182,129.334 490.932,129.825 C490.652,130.373 490.206,130.819 489.658,131.099 C489.168,131.348 488.331,131.417 484.833,131.417 L445.167,131.417 C441.669,131.417 440.832,131.348 440.342,131.099 C439.794,130.819 439.348,130.373 439.068,129.824 C438.818,129.334 438.75,128.497 438.75,125 L438.75,121.208 L435.833,124.125 C443.082,124.125 448.958,118.249 448.958,111 C448.958,103.751 443.082,97.875 435.833,97.875 L438.75,100.792 L438.75,97 C438.75,93.503 438.818,92.666 439.068,92.175 C439.348,91.627 439.794,91.181 440.342,90.901 C440.832,90.652 441.669,90.583 445.167,90.583 Z M445.167,84.75 C440.497,84.75 439.389,84.841 437.695,85.704 C436.048,86.543 434.709,87.881 433.87,89.527 C433.007,91.222 432.917,92.331 432.917,97 L432.917,100.792 C432.917,102.402 434.223,103.708 435.833,103.708 C439.86,103.708 443.125,106.973 443.125,111 C443.125,115.027 439.86,118.292 435.833,118.292 C434.223,118.292 432.917,119.598 432.917,121.208 L432.917,125 C432.917,129.669 433.007,130.778 433.87,132.472 C434.709,134.119 436.048,135.457 437.694,136.296 C439.389,137.159 440.497,137.25 445.167,137.25 L484.833,137.25 C489.503,137.25 490.611,137.159 492.305,136.296 C493.952,135.457 495.291,134.119 496.13,132.473 C496.993,130.778 497.083,129.669 497.083,125 L497.083,121.208 C497.083,119.598 495.777,118.292 494.167,118.292 C490.14,118.292 486.875,115.027 486.875,111 C486.875,106.973 490.14,103.708 494.167,103.708 C495.777,103.708 497.083,102.402 497.083,100.792 L497.083,97 C497.083,92.331 496.993,91.222 496.13,89.528 C495.291,87.881 493.952,86.543 492.306,85.704 C490.611,84.841 489.503,84.75 484.833,84.75 L445.167,84.75 Z" />
        </g>
        <g id="Black-M" transform="translate(0,200)">
            <path d="M662.083,99.333 L662.083,96.417 C662.083,94.806 660.778,93.5 659.167,93.5 C657.556,93.5 656.25,94.806 656.25,96.417 L656.25,99.333 C656.25,100.944 657.556,102.25 659.167,102.25 C660.778,102.25 662.083,100.944 662.083,99.333 Z M662.083,112.458 L662.083,109.542 C662.083,107.931 660.778,106.625 659.167,106.625 C657.556,106.625 656.25,107.931 656.25,109.542 L656.25,112.458 C656.25,114.069 657.556,115.375 659.167,115.375 C660.778,115.375 662.083,114.069 662.083,112.458 Z M662.083,125.583 L662.083,122.667 C662.083,121.056 660.778,119.75 659.167,119.75 C657.556,119.75 656.25,121.056 656.25,122.667 L656.25,125.583 C656.25,127.194 657.556,128.5 659.167,128.5 C660.778,128.5 662.083,127.194 662.083,125.583 Z M645.167,90.583 L684.833,90.583 C688.331,90.583 689.168,90.652 689.658,90.901 C690.206,91.181 690.652,91.627 690.932,92.176 C691.182,92.666 691.25,93.503 691.25,97 L691.25,100.792 L694.167,97.875 C686.918,97.875 681.042,103.751 681.042,111 C681.042,118.249 686.918,124.125 694.167,124.125 L691.25,121.208 L691.25,125 C691.25,128.497 691.182,129.334 690.932,129.825 C690.652,130.373 690.206,130.819 689.657,131.099 C689.168,131.348 688.331,131.417 684.833,131.417 L645.167,131.417 C641.669,131.417 640.832,131.348 640.342,131.099 C639.794,130.819 639.348,130.373 639.068,129.824 C638.818,129.334 638.75,128.497 638.75,125 L638.75,121.208 L635.833,124.125 C643.082,124.125 648.958,118.249 648.958,111 C648.958,103.751 643.082,97.875 635.833,97.875 L638.75,100.792 L638.75,97 C638.75,93.503 638.818,92.666 639.068,92.175 C639.348,91.627 639.794,91.181 640.343,90.901 C640.832,90.652 641.669,90.583 645.167,90.583 Z M645.167,84.75 C640.497,84.75 639.389,84.841 637.695,85.704 C636.048,86.543 634.709,87.881 633.87,89.527 C633.007,91.222 632.917,92.331 632.917,97 L632.917,100.792 C632.917,102.402 634.223,103.708 635.833,103.708 C639.86,103.708 643.125,106.973 643.125,111 C643.125,115.027 639.86,118.292 635.833,118.292 C634.222,118.292 632.917,119.598 632.917,121.208 L632.917,125 C632.917,129.669 633.007,130.778 633.87,132.472 C634.709,134.119 636.048,135.457 637.694,136.296 C639.389,137.159 640.497,137.25 645.167,137.25 L684.833,137.25 C689.503,137.25 690.611,137.159 692.305,136.296 C693.952,135.457 695.291,134.119 696.13,132.473 C696.993,130.778 697.083,129.669 697.083,125 L697.083,121.208 C697.083,119.598 695.777,118.292 694.167,118.292 C690.14,118.292 686.875,115.027 686.875,111 C686.875,106.973 690.14,103.708 694.167,103.708 C695.777,103.708 697.083,102.402 697.083,100.792 L697.083,97 C697.083,92.331 696.993,91.222 696.13,89.528 C695.291,87.881 693.952,86.543 692.306,85.704 C690.611,84.841 689.503,84.75 684.833,84.75 L645.167,84.75 Z" />
        </g>
    </g>
</svg>