<?xml version="1.0" encoding="UTF-8"?>
<svg height="600" width="800" xmlns="http://www.w3.org/2000/svg" xmlns:xlink="http://www.w3.org/1999/xlink">
    <g id="Notes" font-family="LucidaGrande, 'Lucida Grande', sans-serif" font-size="13">
        <rect fill="white" height="600.0" width="800.0" x="0.0" y="0.0" />
        <g font-size="13">
            <text x="18.0" y="176.0">Small</text>
            <text x="18.0" y="376.0">Medium</text>
            <text x="18.0" y="576.0">Large</text>
        </g>
        <g font-size="9">
            <text x="250.0" y="30.0">Ultralight</text>
            <text x="450.0" y="30.0">Regular</text>
            <text x="650.0" y="30.0">Black</text>
            <text id="template-version" fill="#505050" text-anchor="end" x="785.0" y="575.0">Template v.3.0</text>
            <a href="https://github.com/swhitty/SwiftDraw">
                <text fill="#505050" text-anchor="end" x="785.0" y="590.0">https://github.com/swhitty/SwiftDraw</text>
            </a>
        </g>
    </g>
    <g id="Guides" stroke="rgb(39, 170, 225)" stroke-width="0.5">
        <path id="Capline-S" d="M18,76 l800,0" />
        <path id="H-reference" d="M85,145.755 L87.685,145.755 L113.369,79.287 L114.052,79.287 L114.052,76 L112.148,76 L85,145.755 Z M95.693,121.536 L130.996,121.536 L130.263,119.313 L96.474,119.313 L95.693,121.536 Z M139.15,145.755 L141.787,145.755 L114.638,76 L113.466,76 L113.466,79.287 L139.15,145.755 Z" stroke="none" transform="translate(0,200)" />
        <path id="Baseline-S" d="M18,146 l800,0" />
        <path id="left-margin-Ultralight-M" d="M221,256 l0,110" />
        <path id="right-margin-Ultralight-M" d="M309,256 l0,110" />
        <path id="left-margin-Regular-M" d="M421,256 l0,110" />
        <path id="right-margin-Regular-M" d="M509,256 l0,110" />
        <path id="left-margin-Black-M" d="M621,256 l0,110" />
        <path id="right-margin-Black-M" d="M709,256 l0,110" />
        <path id="Capline-M" d="M18,276 l800,0" />
        <path id="Baseline-M" d="M18,346 l800,0" />
        <path id="Capline-L" d="M18,476 l800,0" />
        <path id="Baseline-L" d="M18,546 l800,0" />
    </g>
    <g id="Symbols">
        <g id="Ultralight-M" transform="translate(0,200)">
            <path d="M284.8,89 L245.2,89 C243.985,89 243,89.985 243,91.2 C243,92.415 243.985,93.4 245.2,93.4 L284.8,93.4 C286.015,93.4 287,92.415 287,91.2 C287,89.985 286.015,89 284.8,89 Z M267.2,130.8 L267.2,100 C267.2,98.785 266.215,97.8 265,97.8 C263.785,97.8 262.8,98.785 262.8,100 L262.8,130.8 C262.8,132.015 263.785,133 265,133 C266.215,133 267.2,132.015 267.2,130.8 Z M263.444,98.444 L248.044,113.844 C247.185,114.704 247.185,116.096 248.044,116.956 C248.904,117.815 250.296,117.815 251.156,116.956 L266.556,101.556 C267.415,100.696 267.415,99.304 266.556,98.444 C265.697,97.585 264.304,97.585 263.444,98.444 Z M263.444,101.556 L278.844,116.956 C279.704,117.815 281.096,117.815 281.956,116.956 C282.815,116.096 282.815,114.704 281.956,113.844 L266.556,98.444 C265.697,97.585 264.304,97.585 263.444,98.444 C262.585,99.304 262.585,100.696 263.444,101.556 Z" />
        </g>
        <g id="Regular-M" transform="translate(0,200)">
            <path d="M484.8,89 L445.2,89 C443.985,89 443,89.985 443,91.2 C443,92.415 443.985,93.4 445.2,93.4 L484.8,93.4 C486.015,93.4 487,92.415 487,91.2 C487,89.985 486.015,89 484.8,89 Z M467.2,130.8 L467.2,100 C467.2,98.785 466.215,97.8 465,97.8 C463.785,97.8 462.8,98.785 462.8,100 L462.8,130.8 C462.8,132.015 463.785,133 465,133 C466.215,133 467.2,132.015 467.2,130.8 Z M463.444,98.444 L448.044,113.844 C447.185,114.704 447.185,116.096 448.044,116.956 C448.904,117.815 450.296,117.815 451.156,116.956 L466.556,101.556 C467.415,100.696 467.415,99.304 466.556,98.444 C465.697,97.585 464.304,97.585 463.444,98.444 Z M463.444,101.556 L478.844,116.956 C479.704,117.815 481.096,117.815 481.956,116.956 C482.815,116.096 482.815,114.704 481.956,113.844 L466.556,98.444 C465.697,97.585 464.304,97.585 463.444,98.444 C462.585,99.304 462.585,100.696 463.444,101.556 Z" />
        </g>
        <g id="Black-M" transform="translate(0,200)">
            <path d="M684.8,89 L645.2,89 C643.985,89 643,89.985 643,91.2 C643,92.415 643.985,93.4 645.2,93.4 L684.8,93.4 C686.015,93.4 687,92.415 687,91.2 C687,89.985 686.015,89 684.8,89 Z M667.2,130.8 L667.2,100 C667.2,98.785 666.215,97.8 665,97.8 C663.785,97.8 662.8,98.785 662.8,100 L662.8,130.8 C662.8,132.015 663.785,133 665,133 C666.215,133 667.2,132.015 667.2,130.8 Z M663.444,98.444 L648.044,113.844 C647.185,114.704 647.185,116.096 648.044,116.956 C648.904,117.815 650.296,117.815 651.156,116.956 L666.556,101.556 C667.415,100.696 667.415,99.304 666.556,98.444 C665.696,97.585 664.303,97.585 663.444,98.444 Z M663.444,101.556 L678.844,116.956 C679.703,117.815 681.096,117.815 681.956,116.956 C682.815,116.096 682.815,114.704 681.956,113.844 L666.556,98.444 C665.696,97.585 664.303,97.585 663.444,98.444 C662.585,99.304 662.585,100.696 663.444,101.556 Z" />
        </g>
    </g>
</svg>