<?xml version="1.0" encoding="UTF-8"?>
<svg height="600" width="800" xmlns="http://www.w3.org/2000/svg" xmlns:xlink="http://www.w3.org/1999/xlink">
    <g id="Notes" font-family="LucidaGrande, 'Lucida Grande', sans-serif" font-size="13">
        <rect fill="white" height="600.0" width="800.0" x="0.0" y="0.0" />
        <g font-size="13">
            <text x="18.0" y="176.0">Small</text>
            <text x="18.0" y="376.0">Medium</text>
            <text x="18.0" y="576.0">Large</text>
        </g>
        <g font-size="9">
            <text x="250.0" y="30.0">Ultralight</text>
            <text x="450.0" y="30.0">Regular</text>
            <text x="650.0" y="30.0">Black</text>
            <text id="template-version" fill="#505050" text-anchor="end" x="785.0" y="575.0">Template v.3.0</text>
            <a href="https://github.com/swhitty/SwiftDraw">
                <text fill="#505050" text-anchor="end" x="785.0" y="590.0">https://github.com/swhitty/SwiftDraw</text>
            </a>
        </g>
    </g>
    <g id="Guides" stroke="rgb(39, 170, 225)" stroke-width="0.5">
        <path id="Capline-S" d="M18,76 l800,0" />
        <path id="H-reference" d="M85,145.755 L87.685,145.755 L113.369,79.287 L114.052,79.287 L114.052,76 L112.148,76 L85,145.755 Z M95.693,121.536 L130.996,121.536 L130.263,119.313 L96.474,119.313 L95.693,121.536 Z M139.15,145.755 L141.787,145.755 L114.638,76 L113.466,76 L113.466,79.287 L139.15,145.755 Z" stroke="none" transform="translate(0,200)" />
        <path id="Baseline-S" d="M18,146 l800,0" />
        <path id="left-margin-Ultralight-M" d="M230,256 l0,110" />
        <path id="right-margin-Ultralight-M" d="M300,256 l0,110" />
        <path id="left-margin-Regular-M" d="M430,256 l0,110" />
        <path id="right-margin-Regular-M" d="M500,256 l0,110" />
        <path id="left-margin-Black-M" d="M630,256 l0,110" />
        <path id="right-margin-Black-M" d="M700,256 l0,110" />
        <path id="Capline-M" d="M18,276 l800,0" />
        <path id="Baseline-M" d="M18,346 l800,0" />
        <path id="Capline-L" d="M18,476 l800,0" />
        <path id="Baseline-L" d="M18,546 l800,0" />
    </g>
    <g id="Symbols">
        <g id="Ultralight-M" transform="translate(0,200)">
            <path d="M238.835,127.534 L240.961,135.259 C241.407,136.88 241.57,137.451 241.797,138.138 C242.337,139.777 242.922,140.89 243.915,141.922 C245.296,143.361 247.202,144.498 249.418,145.202 C251.69,145.923 253.124,146 258.976,146 L271.024,146 C276.876,146 278.31,145.923 280.578,145.203 C282.797,144.499 284.705,143.363 286.091,141.92 C287.076,140.892 287.657,139.788 288.195,138.167 C288.424,137.476 288.585,136.916 289.042,135.261 L291.165,127.532 C291.639,125.809 290.101,124.133 287.732,123.789 C285.363,123.445 283.058,124.563 282.585,126.286 L280.463,134.011 C280.032,135.57 279.881,136.096 279.69,136.674 C279.384,137.593 279.156,138.027 278.915,138.279 C278.456,138.757 277.82,139.136 277.08,139.37 C276.416,139.581 275.388,139.636 271.024,139.636 L258.976,139.636 C254.612,139.636 253.584,139.581 252.919,139.37 C252.184,139.137 251.549,138.758 251.088,138.277 C250.842,138.021 250.612,137.585 250.305,136.654 C250.115,136.078 249.962,135.543 249.541,134.011 L247.415,126.285 C246.941,124.562 244.636,123.444 242.266,123.789 C239.897,124.134 238.361,125.811 238.835,127.534 Z M247.415,95.715 L249.541,87.99 C249.962,86.457 250.115,85.922 250.305,85.346 C250.612,84.415 250.842,83.979 251.085,83.726 C251.549,83.242 252.184,82.863 252.923,82.629 C253.584,82.419 254.612,82.364 258.976,82.364 L271.024,82.364 C275.388,82.364 276.416,82.419 277.081,82.63 C277.82,82.864 278.456,83.243 278.918,83.724 C279.156,83.973 279.384,84.407 279.69,85.326 C279.881,85.904 280.032,86.43 280.464,87.992 L282.585,95.714 C283.058,97.437 285.363,98.555 287.732,98.211 C290.101,97.867 291.639,96.191 291.165,94.468 L289.043,86.742 C288.585,85.084 288.424,84.524 288.195,83.833 C287.657,82.212 287.076,81.108 286.094,80.083 C284.705,78.637 282.797,77.501 280.579,76.797 C278.31,76.077 276.876,76 271.024,76 L258.976,76 C253.124,76 251.69,76.077 249.422,76.797 C247.202,77.502 245.296,78.639 243.912,80.081 C242.922,81.11 242.337,82.223 241.797,83.862 C241.57,84.549 241.407,85.12 240.961,86.742 L238.835,94.466 C238.361,96.189 239.897,97.866 242.266,98.211 C244.636,98.556 246.941,97.438 247.415,95.715 Z M260.625,101.455 L260.625,111 C260.625,111.844 261.086,112.653 261.906,113.25 L268.469,118.023 C270.177,119.265 272.948,119.265 274.656,118.023 C276.365,116.78 276.365,114.765 274.656,113.523 L268.094,108.75 L269.375,111 L269.375,101.455 C269.375,99.697 267.416,98.273 265,98.273 C262.584,98.273 260.625,99.697 260.625,101.455 Z M291.25,111 C291.25,121.544 279.497,130.091 265,130.091 C250.503,130.091 238.75,121.544 238.75,111 C238.75,100.456 250.503,91.909 265,91.909 C279.497,91.909 291.25,100.456 291.25,111 Z M300,111 C300,96.942 284.33,85.545 265,85.545 C245.67,85.545 230,96.942 230,111 C230,125.058 245.67,136.455 265,136.455 C284.33,136.455 300,125.058 300,111 Z" />
        </g>
        <g id="Regular-M" transform="translate(0,200)">
            <path d="M438.835,127.534 L440.961,135.259 C441.407,136.88 441.57,137.451 441.797,138.138 C442.337,139.777 442.922,140.89 443.915,141.922 C445.296,143.361 447.202,144.498 449.418,145.202 C451.69,145.923 453.124,146 458.976,146 L471.024,146 C476.876,146 478.31,145.923 480.578,145.203 C482.797,144.499 484.705,143.363 486.091,141.92 C487.076,140.892 487.657,139.788 488.195,138.167 C488.424,137.476 488.585,136.916 489.042,135.261 L491.165,127.532 C491.639,125.809 490.101,124.133 487.732,123.789 C485.363,123.445 483.058,124.563 482.585,126.286 L480.463,134.011 C480.032,135.57 479.881,136.096 479.69,136.674 C479.384,137.593 479.156,138.027 478.915,138.279 C478.456,138.757 477.82,139.136 477.08,139.37 C476.416,139.581 475.388,139.636 471.024,139.636 L458.976,139.636 C454.612,139.636 453.584,139.581 452.919,139.37 C452.184,139.137 451.549,138.758 451.088,138.277 C450.842,138.021 450.612,137.585 450.305,136.654 C450.115,136.078 449.962,135.543 449.541,134.011 L447.415,126.285 C446.941,124.562 444.636,123.444 442.266,123.789 C439.897,124.134 438.361,125.811 438.835,127.534 Z M447.415,95.715 L449.541,87.99 C449.962,86.457 450.115,85.922 450.305,85.346 C450.612,84.415 450.842,83.979 451.085,83.726 C451.549,83.242 452.184,82.863 452.923,82.629 C453.584,82.419 454.612,82.364 458.976,82.364 L471.024,82.364 C475.388,82.364 476.416,82.419 477.081,82.63 C477.82,82.864 478.456,83.243 478.918,83.724 C479.156,83.973 479.384,84.407 479.69,85.326 C479.881,85.904 480.032,86.43 480.464,87.992 L482.585,95.714 C483.058,97.437 485.363,98.555 487.732,98.211 C490.101,97.867 491.639,96.191 491.165,94.468 L489.043,86.742 C488.585,85.084 488.424,84.524 488.195,83.833 C487.657,82.212 487.076,81.108 486.094,80.083 C484.705,78.637 482.797,77.501 480.579,76.797 C478.31,76.077 476.876,76 471.024,76 L458.976,76 C453.124,76 451.69,76.077 449.422,76.797 C447.202,77.502 445.296,78.639 443.912,80.081 C442.922,81.11 442.337,82.223 441.797,83.862 C441.57,84.549 441.407,85.12 440.961,86.742 L438.835,94.466 C438.361,96.189 439.897,97.866 442.266,98.211 C444.636,98.556 446.941,97.438 447.415,95.715 Z M460.625,101.455 L460.625,111 C460.625,111.844 461.086,112.653 461.906,113.25 L468.469,118.023 C470.177,119.265 472.948,119.265 474.656,118.023 C476.365,116.78 476.365,114.765 474.656,113.523 L468.094,108.75 L469.375,111 L469.375,101.455 C469.375,99.697 467.416,98.273 465,98.273 C462.584,98.273 460.625,99.697 460.625,101.455 Z M491.25,111 C491.25,121.544 479.497,130.091 465,130.091 C450.503,130.091 438.75,121.544 438.75,111 C438.75,100.456 450.503,91.909 465,91.909 C479.497,91.909 491.25,100.456 491.25,111 Z M500,111 C500,96.942 484.33,85.545 465,85.545 C445.67,85.545 430,96.942 430,111 C430,125.058 445.67,136.455 465,136.455 C484.33,136.455 500,125.058 500,111 Z" />
        </g>
        <g id="Black-M" transform="translate(0,200)">
            <path d="M638.835,127.534 L640.961,135.259 C641.407,136.88 641.57,137.451 641.797,138.138 C642.337,139.777 642.922,140.89 643.915,141.922 C645.296,143.361 647.202,144.498 649.418,145.202 C651.69,145.923 653.124,146 658.976,146 L671.024,146 C676.876,146 678.31,145.923 680.578,145.203 C682.797,144.499 684.705,143.363 686.091,141.92 C687.076,140.892 687.657,139.788 688.195,138.167 C688.424,137.476 688.585,136.916 689.042,135.261 L691.165,127.532 C691.639,125.809 690.101,124.133 687.732,123.789 C685.363,123.445 683.058,124.563 682.585,126.286 L680.463,134.011 C680.032,135.57 679.881,136.096 679.69,136.674 C679.384,137.593 679.156,138.027 678.915,138.279 C678.456,138.757 677.82,139.136 677.08,139.37 C676.416,139.581 675.388,139.636 671.024,139.636 L658.976,139.636 C654.612,139.636 653.584,139.581 652.919,139.37 C652.184,139.137 651.549,138.758 651.088,138.277 C650.842,138.021 650.612,137.585 650.305,136.654 C650.115,136.078 649.962,135.543 649.542,134.011 L647.415,126.285 C646.941,124.562 644.636,123.444 642.266,123.789 C639.897,124.134 638.361,125.811 638.835,127.534 Z M647.415,95.715 L649.541,87.99 C649.962,86.457 650.115,85.922 650.305,85.346 C650.612,84.415 650.842,83.979 651.085,83.726 C651.549,83.242 652.184,82.863 652.923,82.629 C653.584,82.419 654.612,82.364 658.976,82.364 L671.024,82.364 C675.388,82.364 676.416,82.419 677.081,82.63 C677.82,82.864 678.456,83.243 678.918,83.724 C679.156,83.973 679.384,84.407 679.69,85.326 C679.881,85.904 680.032,86.43 680.464,87.992 L682.585,95.714 C683.058,97.437 685.363,98.555 687.732,98.211 C690.101,97.867 691.639,96.191 691.165,94.468 L689.043,86.742 C688.585,85.084 688.424,84.524 688.195,83.833 C687.657,82.212 687.076,81.108 686.094,80.083 C684.705,78.637 682.797,77.501 680.579,76.797 C678.31,76.077 676.876,76 671.024,76 L658.976,76 C653.124,76 651.69,76.077 649.422,76.797 C647.202,77.502 645.296,78.639 643.912,80.081 C642.922,81.11 642.337,82.223 641.797,83.862 C641.57,84.549 641.407,85.12 640.961,86.742 L638.835,94.466 C638.361,96.189 639.897,97.866 642.266,98.211 C644.636,98.556 646.941,97.438 647.415,95.715 Z M660.625,101.455 L660.625,111 C660.625,111.844 661.086,112.653 661.906,113.25 L668.469,118.023 C670.177,119.265 672.948,119.265 674.656,118.023 C676.365,116.78 676.365,114.765 674.656,113.523 L668.094,108.75 L669.375,111 L669.375,101.455 C669.375,99.697 667.416,98.273 665,98.273 C662.584,98.273 660.625,99.697 660.625,101.455 Z M691.25,111 C691.25,121.544 679.497,130.091 665,130.091 C650.503,130.091 638.75,121.544 638.75,111 C638.75,100.456 650.503,91.909 665,91.909 C679.497,91.909 691.25,100.456 691.25,111 Z M700,111 C700,96.942 684.33,85.545 665,85.545 C645.67,85.545 630,96.942 630,111 C630,125.058 645.67,136.455 665,136.455 C684.33,136.455 700,125.058 700,111 Z" />
        </g>
    </g>
</svg>