<?xml version="1.0" encoding="UTF-8"?>
<svg height="600" width="800" xmlns="http://www.w3.org/2000/svg" xmlns:xlink="http://www.w3.org/1999/xlink">
    <g id="Notes" font-family="LucidaGrande, 'Lucida Grande', sans-serif" font-size="13">
        <rect fill="white" height="600.0" width="800.0" x="0.0" y="0.0" />
        <g font-size="13">
            <text x="18.0" y="176.0">Small</text>
            <text x="18.0" y="376.0">Medium</text>
            <text x="18.0" y="576.0">Large</text>
        </g>
        <g font-size="9">
            <text x="250.0" y="30.0">Ultralight</text>
            <text x="450.0" y="30.0">Regular</text>
            <text x="650.0" y="30.0">Black</text>
            <text id="template-version" fill="#505050" text-anchor="end" x="785.0" y="575.0">Template v.3.0</text>
            <a href="https://github.com/swhitty/SwiftDraw">
                <text fill="#505050" text-anchor="end" x="785.0" y="590.0">https://github.com/swhitty/SwiftDraw</text>
            </a>
        </g>
    </g>
    <g id="Guides" stroke="rgb(39, 170, 225)" stroke-width="0.5">
        <path id="Capline-S" d="M18,76 l800,0" />
        <path id="H-reference" d="M85,145.755 L87.685,145.755 L113.369,79.287 L114.052,79.287 L114.052,76 L112.148,76 L85,145.755 Z M95.693,121.536 L130.996,121.536 L130.263,119.313 L96.474,119.313 L95.693,121.536 Z M139.15,145.755 L141.787,145.755 L114.638,76 L113.466,76 L113.466,79.287 L139.15,145.755 Z" stroke="none" transform="translate(0,200)" />
        <path id="Baseline-S" d="M18,146 l800,0" />
        <path id="left-margin-Ultralight-M" d="M221,256 l0,110" />
        <path id="right-margin-Ultralight-M" d="M309,256 l0,110" />
        <path id="left-margin-Regular-M" d="M421,256 l0,110" />
        <path id="right-margin-Regular-M" d="M509,256 l0,110" />
        <path id="left-margin-Black-M" d="M621,256 l0,110" />
        <path id="right-margin-Black-M" d="M709,256 l0,110" />
        <path id="Capline-M" d="M18,276 l800,0" />
        <path id="Baseline-M" d="M18,346 l800,0" />
        <path id="Capline-L" d="M18,476 l800,0" />
        <path id="Baseline-L" d="M18,546 l800,0" />
    </g>
    <g id="Symbols">
        <g id="Ultralight-M" transform="translate(0,200)">
            <path d="M284.104,111.921 C281.039,117.303 274.926,120.183 268.824,119.119 C262.722,118.056 257.944,113.277 256.881,107.175 C255.818,101.073 258.699,94.961 264.081,91.896 C266.045,90.778 265.095,87.772 262.845,87.985 C251.056,89.103 241.975,99.031 241.975,110.954 C241.975,123.696 252.304,134.025 265.046,134.025 C276.967,134.025 286.895,124.944 288.015,113.157 C288.228,110.907 285.222,109.957 284.104,111.921 Z M287.749,113.997 L283.839,112.76 C282.923,122.399 274.798,129.831 265.046,129.831 C254.621,129.831 246.169,121.379 246.169,110.954 C246.169,101.199 253.601,93.075 263.241,92.161 L262.006,88.251 C255.085,92.191 251.382,100.05 252.749,107.895 C254.115,115.741 260.259,121.884 268.104,123.252 C275.949,124.619 283.809,120.917 287.749,113.997 Z" />
        </g>
        <g id="Regular-M" transform="translate(0,200)">
            <path d="M484.104,111.921 C481.039,117.303 474.926,120.183 468.824,119.119 C462.722,118.056 457.944,113.277 456.881,107.175 C455.818,101.073 458.699,94.961 464.081,91.896 C466.045,90.778 465.095,87.772 462.846,87.985 C451.056,89.103 441.975,99.031 441.975,110.954 C441.975,123.696 452.304,134.025 465.047,134.025 C476.967,134.025 486.895,124.944 488.015,113.157 C488.228,110.907 485.222,109.957 484.104,111.921 Z M487.749,113.997 L483.839,112.76 C482.923,122.399 474.798,129.831 465.047,129.831 C454.621,129.831 446.169,121.379 446.169,110.954 C446.169,101.199 453.601,93.075 463.241,92.161 L462.006,88.251 C455.085,92.191 451.382,100.05 452.749,107.895 C454.115,115.741 460.259,121.884 468.104,123.252 C475.949,124.619 483.809,120.917 487.749,113.997 Z" />
        </g>
        <g id="Black-M" transform="translate(0,200)">
            <path d="M684.104,111.921 C681.039,117.303 674.926,120.183 668.824,119.119 C662.722,118.056 657.944,113.277 656.881,107.175 C655.818,101.073 658.699,94.961 664.081,91.896 C666.045,90.778 665.095,87.772 662.846,87.985 C651.056,89.103 641.975,99.031 641.975,110.954 C641.975,123.696 652.304,134.025 665.047,134.025 C676.967,134.025 686.895,124.944 688.015,113.157 C688.228,110.907 685.222,109.957 684.104,111.921 Z M687.749,113.997 L683.839,112.76 C682.923,122.399 674.799,129.831 665.047,129.831 C654.621,129.831 646.169,121.379 646.169,110.954 C646.169,101.199 653.601,93.075 663.241,92.161 L662.006,88.251 C655.085,92.191 651.382,100.05 652.749,107.895 C654.115,115.741 660.259,121.884 668.104,123.252 C675.949,124.619 683.809,120.917 687.749,113.997 Z" />
        </g>
    </g>
</svg>