<?xml version="1.0" encoding="UTF-8"?>
<svg height="600" width="800" xmlns="http://www.w3.org/2000/svg" xmlns:xlink="http://www.w3.org/1999/xlink">
    <g id="Notes" font-family="LucidaGrande, 'Lucida Grande', sans-serif" font-size="13">
        <rect fill="white" height="600.0" width="800.0" x="0.0" y="0.0" />
        <g font-size="13">
            <text x="18.0" y="176.0">Small</text>
            <text x="18.0" y="376.0">Medium</text>
            <text x="18.0" y="576.0">Large</text>
        </g>
        <g font-size="9">
            <text x="250.0" y="30.0">Ultralight</text>
            <text x="450.0" y="30.0">Regular</text>
            <text x="650.0" y="30.0">Black</text>
            <text id="template-version" fill="#505050" text-anchor="end" x="785.0" y="575.0">Template v.3.0</text>
            <a href="https://github.com/swhitty/SwiftDraw">
                <text fill="#505050" text-anchor="end" x="785.0" y="590.0">https://github.com/swhitty/SwiftDraw</text>
            </a>
        </g>
    </g>
    <g id="Guides" stroke="rgb(39, 170, 225)" stroke-width="0.5">
        <path id="Capline-S" d="M18,76 l800,0" />
        <path id="H-reference" d="M85,145.755 L87.685,145.755 L113.369,79.287 L114.052,79.287 L114.052,76 L112.148,76 L85,145.755 Z M95.693,121.536 L130.996,121.536 L130.263,119.313 L96.474,119.313 L95.693,121.536 Z M139.15,145.755 L141.787,145.755 L114.638,76 L113.466,76 L113.466,79.287 L139.15,145.755 Z" stroke="none" transform="translate(0,200)" />
        <path id="Baseline-S" d="M18,146 l800,0" />
        <path id="left-margin-Ultralight-M" d="M230,256 l0,110" />
        <path id="right-margin-Ultralight-M" d="M300,256 l0,110" />
        <path id="left-margin-Regular-M" d="M430,256 l0,110" />
        <path id="right-margin-Regular-M" d="M500,256 l0,110" />
        <path id="left-margin-Black-M" d="M630,256 l0,110" />
        <path id="right-margin-Black-M" d="M700,256 l0,110" />
        <path id="Capline-M" d="M18,276 l800,0" />
        <path id="Baseline-M" d="M18,346 l800,0" />
        <path id="Capline-L" d="M18,476 l800,0" />
        <path id="Baseline-L" d="M18,546 l800,0" />
    </g>
    <g id="Symbols">
        <g id="Ultralight-M" transform="translate(0,200)">
            <path d="M291.501,112.345 C287.239,119.829 278.738,123.834 270.253,122.355 C261.768,120.876 255.124,114.231 253.646,105.746 C252.167,97.261 256.173,88.761 263.658,84.499 C266.388,82.944 265.068,78.764 261.939,79.061 C245.545,80.615 232.917,94.42 232.917,111 C232.917,128.72 247.28,143.083 265,143.083 C281.576,143.083 295.382,130.455 296.939,114.064 C297.236,110.936 293.056,109.614 291.501,112.345 Z M296.57,115.232 L291.132,113.513 C289.859,126.916 278.561,137.25 265,137.25 C250.502,137.25 238.75,125.498 238.75,111 C238.75,97.436 249.084,86.139 262.49,84.868 L260.771,79.43 C251.148,84.909 245.998,95.838 247.899,106.747 C249.8,117.657 258.342,126.2 269.251,128.102 C280.161,130.004 291.09,124.855 296.57,115.232 Z" />
        </g>
        <g id="Regular-M" transform="translate(0,200)">
            <path d="M491.501,112.345 C487.239,119.829 478.738,123.834 470.253,122.355 C461.768,120.876 455.124,114.231 453.646,105.746 C452.167,97.261 456.173,88.761 463.658,84.499 C466.388,82.944 465.068,78.764 461.939,79.061 C445.545,80.615 432.917,94.42 432.917,111 C432.917,128.72 447.28,143.083 465,143.083 C481.576,143.083 495.382,130.455 496.939,114.064 C497.236,110.936 493.056,109.614 491.501,112.345 Z M496.57,115.232 L491.132,113.513 C489.859,126.916 478.561,137.25 465,137.25 C450.502,137.25 438.75,125.498 438.75,111 C438.75,97.436 449.084,86.139 462.49,84.868 L460.771,79.43 C451.148,84.909 445.998,95.838 447.899,106.747 C449.8,117.657 458.342,126.2 469.251,128.102 C480.161,130.004 491.09,124.855 496.57,115.232 Z" />
        </g>
        <g id="Black-M" transform="translate(0,200)">
            <path d="M691.501,112.345 C687.239,119.829 678.738,123.834 670.253,122.355 C661.768,120.876 655.124,114.231 653.646,105.746 C652.167,97.261 656.173,88.761 663.658,84.499 C666.388,82.944 665.068,78.764 661.939,79.061 C645.545,80.615 632.917,94.42 632.917,111 C632.917,128.72 647.28,143.083 665,143.083 C681.576,143.083 695.382,130.455 696.939,114.064 C697.236,110.936 693.056,109.614 691.501,112.345 Z M696.57,115.232 L691.132,113.513 C689.859,126.916 678.561,137.25 665,137.25 C650.502,137.25 638.75,125.498 638.75,111 C638.75,97.436 649.084,86.139 662.49,84.868 L660.771,79.43 C651.148,84.909 645.998,95.838 647.899,106.747 C649.8,117.657 658.342,126.2 669.251,128.102 C680.161,130.004 691.09,124.855 696.57,115.232 Z" />
        </g>
    </g>
</svg>