<?xml version="1.0" encoding="UTF-8"?>
<svg height="600" width="800" xmlns="http://www.w3.org/2000/svg" xmlns:xlink="http://www.w3.org/1999/xlink">
    <g id="Notes" font-family="LucidaGrande, 'Lucida Grande', sans-serif" font-size="13">
        <rect fill="white" height="600.0" width="800.0" x="0.0" y="0.0" />
        <g font-size="13">
            <text x="18.0" y="176.0">Small</text>
            <text x="18.0" y="376.0">Medium</text>
            <text x="18.0" y="576.0">Large</text>
        </g>
        <g font-size="9">
            <text x="250.0" y="30.0">Ultralight</text>
            <text x="450.0" y="30.0">Regular</text>
            <text x="650.0" y="30.0">Black</text>
            <text id="template-version" fill="#505050" text-anchor="end" x="785.0" y="575.0">Template v.3.0</text>
            <a href="https://github.com/swhitty/SwiftDraw">
                <text fill="#505050" text-anchor="end" x="785.0" y="590.0">https://github.com/swhitty/SwiftDraw</text>
            </a>
        </g>
    </g>
    <g id="Guides" stroke="rgb(39, 170, 225)" stroke-width="0.5">
        <path id="Capline-S" d="M18,76 l800,0" />
        <path id="H-reference" d="M85,145.755 L87.685,145.755 L113.369,79.287 L114.052,79.287 L114.052,76 L112.148,76 L85,145.755 Z M95.693,121.536 L130.996,121.536 L130.263,119.313 L96.474,119.313 L95.693,121.536 Z M139.15,145.755 L141.787,145.755 L114.638,76 L113.466,76 L113.466,79.287 L139.15,145.755 Z" stroke="none" transform="translate(0,200)" />
        <path id="Baseline-S" d="M18,146 l800,0" />
        <path id="left-margin-Ultralight-M" d="M230,256 l0,110" />
        <path id="right-margin-Ultralight-M" d="M300,256 l0,110" />
        <path id="left-margin-Regular-M" d="M430,256 l0,110" />
        <path id="right-margin-Regular-M" d="M500,256 l0,110" />
        <path id="left-margin-Black-M" d="M630,256 l0,110" />
        <path id="right-margin-Black-M" d="M700,256 l0,110" />
        <path id="Capline-M" d="M18,276 l800,0" />
        <path id="Baseline-M" d="M18,346 l800,0" />
        <path id="Capline-L" d="M18,476 l800,0" />
        <path id="Baseline-L" d="M18,546 l800,0" />
    </g>
    <g id="Symbols">
        <g id="Ultralight-M" transform="translate(0,200)">
            <path d="M261.818,125 L261.818,142.5 C261.818,144.433 263.243,146 265,146 C266.757,146 268.182,144.433 268.182,142.5 L268.182,125 C268.182,123.067 266.757,121.5 265,121.5 C263.243,121.5 261.818,123.067 261.818,125 Z M262.963,127.689 L282.054,145.189 C283.404,146.426 285.41,146.226 286.535,144.741 C287.66,143.256 287.478,141.049 286.128,139.811 L267.037,122.311 C265.687,121.074 263.681,121.274 262.556,122.759 C261.431,124.244 261.613,126.451 262.963,127.689 Z M262.963,122.311 L243.872,139.811 C242.522,141.049 242.34,143.256 243.465,144.741 C244.59,146.226 246.596,146.426 247.946,145.189 L267.037,127.689 C268.387,126.451 268.569,124.244 267.444,122.759 C266.319,121.274 264.313,121.074 262.963,122.311 Z M290.455,79.5 L290.455,108.2 C290.455,114.847 290.337,116.435 289.761,117.678 C289.151,118.995 288.177,120.066 286.98,120.737 C285.85,121.37 284.406,121.5 278.364,121.5 L251.636,121.5 C245.594,121.5 244.15,121.37 243.02,120.737 C241.823,120.066 240.849,118.995 240.239,117.678 C239.663,116.435 239.545,114.847 239.545,108.2 L239.545,79.5 C239.545,77.567 238.121,76 236.364,76 C234.606,76 233.182,77.567 233.182,79.5 L233.182,108.2 C233.182,116.253 233.324,118.167 234.569,120.856 C235.789,123.49 237.736,125.632 240.131,126.974 C242.575,128.344 244.315,128.5 251.636,128.5 L278.364,128.5 C285.685,128.5 287.425,128.344 289.869,126.974 C292.264,125.632 294.211,123.49 295.431,120.856 C296.676,118.167 296.818,116.253 296.818,108.2 L296.818,79.5 C296.818,77.567 295.394,76 293.636,76 C291.879,76 290.455,77.567 290.455,79.5 Z M249.091,100.5 L249.091,111 C249.091,112.933 250.515,114.5 252.273,114.5 C254.03,114.5 255.455,112.933 255.455,111 L255.455,100.5 C255.455,98.567 254.03,97 252.273,97 C250.515,97 249.091,98.567 249.091,100.5 Z M261.818,93.5 L261.818,111 C261.818,112.933 263.243,114.5 265,114.5 C266.757,114.5 268.182,112.933 268.182,111 L268.182,93.5 C268.182,91.567 266.757,90 265,90 C263.243,90 261.818,91.567 261.818,93.5 Z M274.545,107.5 L274.545,111 C274.545,112.933 275.97,114.5 277.727,114.5 C279.485,114.5 280.909,112.933 280.909,111 L280.909,107.5 C280.909,105.567 279.485,104 277.727,104 C275.97,104 274.545,105.567 274.545,107.5 Z M296.818,76 L233.182,76 C231.425,76 230,77.567 230,79.5 C230,81.433 231.425,83 233.182,83 L296.818,83 C298.575,83 300,81.433 300,79.5 C300,77.567 298.575,76 296.818,76 Z" />
        </g>
        <g id="Regular-M" transform="translate(0,200)">
            <path d="M461.818,125 L461.818,142.5 C461.818,144.433 463.243,146 465,146 C466.757,146 468.182,144.433 468.182,142.5 L468.182,125 C468.182,123.067 466.757,121.5 465,121.5 C463.243,121.5 461.818,123.067 461.818,125 Z M462.963,127.689 L482.054,145.189 C483.404,146.426 485.41,146.226 486.535,144.741 C487.66,143.256 487.478,141.049 486.128,139.811 L467.037,122.311 C465.687,121.074 463.681,121.274 462.556,122.759 C461.431,124.244 461.613,126.451 462.963,127.689 Z M462.963,122.311 L443.872,139.811 C442.522,141.049 442.34,143.256 443.465,144.741 C444.59,146.226 446.596,146.426 447.946,145.189 L467.037,127.689 C468.387,126.451 468.569,124.244 467.444,122.759 C466.319,121.274 464.313,121.074 462.963,122.311 Z M490.455,79.5 L490.455,108.2 C490.455,114.847 490.337,116.435 489.761,117.678 C489.151,118.995 488.177,120.066 486.98,120.737 C485.85,121.37 484.406,121.5 478.364,121.5 L451.636,121.5 C445.594,121.5 444.15,121.37 443.02,120.737 C441.823,120.066 440.849,118.995 440.239,117.678 C439.663,116.435 439.545,114.847 439.545,108.2 L439.545,79.5 C439.545,77.567 438.121,76 436.364,76 C434.606,76 433.182,77.567 433.182,79.5 L433.182,108.2 C433.182,116.253 433.324,118.167 434.569,120.856 C435.789,123.49 437.736,125.632 440.131,126.974 C442.575,128.344 444.315,128.5 451.636,128.5 L478.364,128.5 C485.685,128.5 487.425,128.344 489.869,126.974 C492.264,125.632 494.211,123.49 495.431,120.856 C496.676,118.167 496.818,116.253 496.818,108.2 L496.818,79.5 C496.818,77.567 495.394,76 493.636,76 C491.879,76 490.455,77.567 490.455,79.5 Z M449.091,100.5 L449.091,111 C449.091,112.933 450.515,114.5 452.273,114.5 C454.03,114.5 455.455,112.933 455.455,111 L455.455,100.5 C455.455,98.567 454.03,97 452.273,97 C450.515,97 449.091,98.567 449.091,100.5 Z M461.818,93.5 L461.818,111 C461.818,112.933 463.243,114.5 465,114.5 C466.757,114.5 468.182,112.933 468.182,111 L468.182,93.5 C468.182,91.567 466.757,90 465,90 C463.243,90 461.818,91.567 461.818,93.5 Z M474.545,107.5 L474.545,111 C474.545,112.933 475.97,114.5 477.727,114.5 C479.485,114.5 480.909,112.933 480.909,111 L480.909,107.5 C480.909,105.567 479.485,104 477.727,104 C475.97,104 474.545,105.567 474.545,107.5 Z M496.818,76 L433.182,76 C431.425,76 430,77.567 430,79.5 C430,81.433 431.425,83 433.182,83 L496.818,83 C498.575,83 500,81.433 500,79.5 C500,77.567 498.575,76 496.818,76 Z" />
        </g>
        <g id="Black-M" transform="translate(0,200)">
            <path d="M661.818,125 L661.818,142.5 C661.818,144.433 663.243,146 665,146 C666.757,146 668.182,144.433 668.182,142.5 L668.182,125 C668.182,123.067 666.757,121.5 665,121.5 C663.243,121.5 661.818,123.067 661.818,125 Z M662.963,127.689 L682.054,145.189 C683.404,146.426 685.41,146.226 686.535,144.741 C687.66,143.256 687.478,141.049 686.128,139.811 L667.037,122.311 C665.687,121.074 663.681,121.274 662.556,122.759 C661.431,124.244 661.613,126.451 662.963,127.689 Z M662.963,122.311 L643.872,139.811 C642.522,141.049 642.34,143.256 643.465,144.741 C644.59,146.226 646.596,146.426 647.946,145.189 L667.037,127.689 C668.387,126.451 668.569,124.244 667.444,122.759 C666.319,121.274 664.313,121.074 662.963,122.311 Z M690.455,79.5 L690.455,108.2 C690.455,114.847 690.337,116.435 689.761,117.678 C689.151,118.995 688.177,120.066 686.98,120.737 C685.85,121.37 684.406,121.5 678.364,121.5 L651.636,121.5 C645.594,121.5 644.15,121.37 643.02,120.737 C641.823,120.066 640.849,118.995 640.239,117.678 C639.663,116.435 639.545,114.847 639.545,108.2 L639.545,79.5 C639.545,77.567 638.121,76 636.364,76 C634.606,76 633.182,77.567 633.182,79.5 L633.182,108.2 C633.182,116.253 633.324,118.167 634.569,120.856 C635.789,123.49 637.736,125.632 640.131,126.974 C642.575,128.344 644.315,128.5 651.636,128.5 L678.364,128.5 C685.685,128.5 687.425,128.344 689.869,126.974 C692.264,125.632 694.211,123.49 695.431,120.856 C696.676,118.167 696.818,116.253 696.818,108.2 L696.818,79.5 C696.818,77.567 695.394,76 693.636,76 C691.879,76 690.455,77.567 690.455,79.5 Z M649.091,100.5 L649.091,111 C649.091,112.933 650.515,114.5 652.273,114.5 C654.03,114.5 655.455,112.933 655.455,111 L655.455,100.5 C655.455,98.567 654.03,97 652.273,97 C650.515,97 649.091,98.567 649.091,100.5 Z M661.818,93.5 L661.818,111 C661.818,112.933 663.243,114.5 665,114.5 C666.757,114.5 668.182,112.933 668.182,111 L668.182,93.5 C668.182,91.567 666.757,90 665,90 C663.243,90 661.818,91.567 661.818,93.5 Z M674.545,107.5 L674.545,111 C674.545,112.933 675.97,114.5 677.727,114.5 C679.485,114.5 680.909,112.933 680.909,111 L680.909,107.5 C680.909,105.567 679.485,104 677.727,104 C675.97,104 674.545,105.567 674.545,107.5 Z M696.818,76 L633.182,76 C631.425,76 630,77.567 630,79.5 C630,81.433 631.425,83 633.182,83 L696.818,83 C698.575,83 700,81.433 700,79.5 C700,77.567 698.575,76 696.818,76 Z" />
        </g>
    </g>
</svg>