<?xml version="1.0" encoding="UTF-8"?>
<svg height="600" width="800" xmlns="http://www.w3.org/2000/svg" xmlns:xlink="http://www.w3.org/1999/xlink">
    <g id="Notes" font-family="LucidaGrande, 'Lucida Grande', sans-serif" font-size="13">
        <rect fill="white" height="600.0" width="800.0" x="0.0" y="0.0" />
        <g font-size="13">
            <text x="18.0" y="176.0">Small</text>
            <text x="18.0" y="376.0">Medium</text>
            <text x="18.0" y="576.0">Large</text>
        </g>
        <g font-size="9">
            <text x="250.0" y="30.0">Ultralight</text>
            <text x="450.0" y="30.0">Regular</text>
            <text x="650.0" y="30.0">Black</text>
            <text id="template-version" fill="#505050" text-anchor="end" x="785.0" y="575.0">Template v.3.0</text>
            <a href="https://github.com/swhitty/SwiftDraw">
                <text fill="#505050" text-anchor="end" x="785.0" y="590.0">https://github.com/swhitty/SwiftDraw</text>
            </a>
        </g>
    </g>
    <g id="Guides" stroke="rgb(39, 170, 225)" stroke-width="0.5">
        <path id="Capline-S" d="M18,76 l800,0" />
        <path id="H-reference" d="M85,145.755 L87.685,145.755 L113.369,79.287 L114.052,79.287 L114.052,76 L112.148,76 L85,145.755 Z M95.693,121.536 L130.996,121.536 L130.263,119.313 L96.474,119.313 L95.693,121.536 Z M139.15,145.755 L141.787,145.755 L114.638,76 L113.466,76 L113.466,79.287 L139.15,145.755 Z" stroke="none" transform="translate(0,200)" />
        <path id="Baseline-S" d="M18,146 l800,0" />
        <path id="left-margin-Ultralight-M" d="M221,256 l0,110" />
        <path id="right-margin-Ultralight-M" d="M309,256 l0,110" />
        <path id="left-margin-Regular-M" d="M421,256 l0,110" />
        <path id="right-margin-Regular-M" d="M509,256 l0,110" />
        <path id="left-margin-Black-M" d="M621,256 l0,110" />
        <path id="right-margin-Black-M" d="M709,256 l0,110" />
        <path id="Capline-M" d="M18,276 l800,0" />
        <path id="Baseline-M" d="M18,346 l800,0" />
        <path id="Capline-L" d="M18,476 l800,0" />
        <path id="Baseline-L" d="M18,546 l800,0" />
    </g>
    <g id="Symbols">
        <g id="Ultralight-M" transform="translate(0,200)">
            <path d="M251.8,130.8 L251.8,117.6 C251.8,116.385 250.815,115.4 249.6,115.4 C248.385,115.4 247.4,116.385 247.4,117.6 L247.4,130.8 C247.4,132.015 248.385,133 249.6,133 C250.815,133 251.8,132.015 251.8,130.8 Z M249.6,119.8 C253.245,119.8 256.2,116.845 256.2,113.2 C256.2,109.555 253.245,106.6 249.6,106.6 C245.955,106.6 243,109.555 243,113.2 C243,116.845 245.955,119.8 249.6,119.8 Z M249.6,115.4 C248.385,115.4 247.4,114.415 247.4,113.2 C247.4,111.985 248.385,111 249.6,111 C250.815,111 251.8,111.985 251.8,113.2 C251.8,114.415 250.815,115.4 249.6,115.4 Z M251.8,100 L251.8,91.2 C251.8,89.985 250.815,89 249.6,89 C248.385,89 247.4,89.985 247.4,91.2 L247.4,100 C247.4,101.215 248.385,102.2 249.6,102.2 C250.815,102.2 251.8,101.215 251.8,100 Z M267.2,130.8 L267.2,117.6 C267.2,116.385 266.215,115.4 265,115.4 C263.785,115.4 262.8,116.385 262.8,117.6 L262.8,130.8 C262.8,132.015 263.785,133 265,133 C266.215,133 267.2,132.015 267.2,130.8 Z M267.2,100 L267.2,91.2 C267.2,89.985 266.215,89 265,89 C263.785,89 262.8,89.985 262.8,91.2 L262.8,100 C262.8,101.215 263.785,102.2 265,102.2 C266.215,102.2 267.2,101.215 267.2,100 Z M265,97.8 C261.355,97.8 258.4,100.755 258.4,104.4 C258.4,108.045 261.355,111 265,111 C268.645,111 271.6,108.045 271.6,104.4 C271.6,100.755 268.645,97.8 265,97.8 Z M265,102.2 C266.215,102.2 267.2,103.185 267.2,104.4 C267.2,105.615 266.215,106.6 265,106.6 C263.785,106.6 262.8,105.615 262.8,104.4 C262.8,103.185 263.785,102.2 265,102.2 Z M282.6,130.8 L282.6,122 C282.6,120.785 281.615,119.8 280.4,119.8 C279.185,119.8 278.2,120.785 278.2,122 L278.2,130.8 C278.2,132.015 279.185,133 280.4,133 C281.615,133 282.6,132.015 282.6,130.8 Z M280.4,124.2 C284.045,124.2 287,121.245 287,117.6 C287,113.955 284.045,111 280.4,111 C276.755,111 273.8,113.955 273.8,117.6 C273.8,121.245 276.755,124.2 280.4,124.2 Z M280.4,119.8 C279.185,119.8 278.2,118.815 278.2,117.6 C278.2,116.385 279.185,115.4 280.4,115.4 C281.615,115.4 282.6,116.385 282.6,117.6 C282.6,118.815 281.615,119.8 280.4,119.8 Z M282.6,104.4 L282.6,91.2 C282.6,89.985 281.615,89 280.4,89 C279.185,89 278.2,89.985 278.2,91.2 L278.2,104.4 C278.2,105.615 279.185,106.6 280.4,106.6 C281.615,106.6 282.6,105.615 282.6,104.4 Z" />
        </g>
        <g id="Regular-M" transform="translate(0,200)">
            <path d="M451.8,130.8 L451.8,117.6 C451.8,116.385 450.815,115.4 449.6,115.4 C448.385,115.4 447.4,116.385 447.4,117.6 L447.4,130.8 C447.4,132.015 448.385,133 449.6,133 C450.815,133 451.8,132.015 451.8,130.8 Z M449.6,119.8 C453.245,119.8 456.2,116.845 456.2,113.2 C456.2,109.555 453.245,106.6 449.6,106.6 C445.955,106.6 443,109.555 443,113.2 C443,116.845 445.955,119.8 449.6,119.8 Z M449.6,115.4 C448.385,115.4 447.4,114.415 447.4,113.2 C447.4,111.985 448.385,111 449.6,111 C450.815,111 451.8,111.985 451.8,113.2 C451.8,114.415 450.815,115.4 449.6,115.4 Z M451.8,100 L451.8,91.2 C451.8,89.985 450.815,89 449.6,89 C448.385,89 447.4,89.985 447.4,91.2 L447.4,100 C447.4,101.215 448.385,102.2 449.6,102.2 C450.815,102.2 451.8,101.215 451.8,100 Z M467.2,130.8 L467.2,117.6 C467.2,116.385 466.215,115.4 465,115.4 C463.785,115.4 462.8,116.385 462.8,117.6 L462.8,130.8 C462.8,132.015 463.785,133 465,133 C466.215,133 467.2,132.015 467.2,130.8 Z M467.2,100 L467.2,91.2 C467.2,89.985 466.215,89 465,89 C463.785,89 462.8,89.985 462.8,91.2 L462.8,100 C462.8,101.215 463.785,102.2 465,102.2 C466.215,102.2 467.2,101.215 467.2,100 Z M465,97.8 C461.355,97.8 458.4,100.755 458.4,104.4 C458.4,108.045 461.355,111 465,111 C468.645,111 471.6,108.045 471.6,104.4 C471.6,100.755 468.645,97.8 465,97.8 Z M465,102.2 C466.215,102.2 467.2,103.185 467.2,104.4 C467.2,105.615 466.215,106.6 465,106.6 C463.785,106.6 462.8,105.615 462.8,104.4 C462.8,103.185 463.785,102.2 465,102.2 Z M482.6,130.8 L482.6,122 C482.6,120.785 481.615,119.8 480.4,119.8 C479.185,119.8 478.2,120.785 478.2,122 L478.2,130.8 C478.2,132.015 479.185,133 480.4,133 C481.615,133 482.6,132.015 482.6,130.8 Z M480.4,124.2 C484.045,124.2 487,121.245 487,117.6 C487,113.955 484.045,111 480.4,111 C476.755,111 473.8,113.955 473.8,117.6 C473.8,121.245 476.755,124.2 480.4,124.2 Z M480.4,119.8 C479.185,119.8 478.2,118.815 478.2,117.6 C478.2,116.385 479.185,115.4 480.4,115.4 C481.615,115.4 482.6,116.385 482.6,117.6 C482.6,118.815 481.615,119.8 480.4,119.8 Z M482.6,104.4 L482.6,91.2 C482.6,89.985 481.615,89 480.4,89 C479.185,89 478.2,89.985 478.2,91.2 L478.2,104.4 C478.2,105.615 479.185,106.6 480.4,106.6 C481.615,106.6 482.6,105.615 482.6,104.4 Z" />
        </g>
        <g id="Black-M" transform="translate(0,200)">
            <path d="M651.8,130.8 L651.8,117.6 C651.8,116.385 650.815,115.4 649.6,115.4 C648.385,115.4 647.4,116.385 647.4,117.6 L647.4,130.8 C647.4,132.015 648.385,133 649.6,133 C650.815,133 651.8,132.015 651.8,130.8 Z M649.6,119.8 C653.245,119.8 656.2,116.845 656.2,113.2 C656.2,109.555 653.245,106.6 649.6,106.6 C645.955,106.6 643,109.555 643,113.2 C643,116.845 645.955,119.8 649.6,119.8 Z M649.6,115.4 C648.385,115.4 647.4,114.415 647.4,113.2 C647.4,111.985 648.385,111 649.6,111 C650.815,111 651.8,111.985 651.8,113.2 C651.8,114.415 650.815,115.4 649.6,115.4 Z M651.8,100 L651.8,91.2 C651.8,89.985 650.815,89 649.6,89 C648.385,89 647.4,89.985 647.4,91.2 L647.4,100 C647.4,101.215 648.385,102.2 649.6,102.2 C650.815,102.2 651.8,101.215 651.8,100 Z M667.2,130.8 L667.2,117.6 C667.2,116.385 666.215,115.4 665,115.4 C663.785,115.4 662.8,116.385 662.8,117.6 L662.8,130.8 C662.8,132.015 663.785,133 665,133 C666.215,133 667.2,132.015 667.2,130.8 Z M667.2,100 L667.2,91.2 C667.2,89.985 666.215,89 665,89 C663.785,89 662.8,89.985 662.8,91.2 L662.8,100 C662.8,101.215 663.785,102.2 665,102.2 C666.215,102.2 667.2,101.215 667.2,100 Z M665,97.8 C661.355,97.8 658.4,100.755 658.4,104.4 C658.4,108.045 661.355,111 665,111 C668.645,111 671.6,108.045 671.6,104.4 C671.6,100.755 668.645,97.8 665,97.8 Z M665,102.2 C666.215,102.2 667.2,103.185 667.2,104.4 C667.2,105.615 666.215,106.6 665,106.6 C663.785,106.6 662.8,105.615 662.8,104.4 C662.8,103.185 663.785,102.2 665,102.2 Z M682.6,130.8 L682.6,122 C682.6,120.785 681.615,119.8 680.4,119.8 C679.185,119.8 678.2,120.785 678.2,122 L678.2,130.8 C678.2,132.015 679.185,133 680.4,133 C681.615,133 682.6,132.015 682.6,130.8 Z M680.4,124.2 C684.045,124.2 687,121.245 687,117.6 C687,113.955 684.045,111 680.4,111 C676.755,111 673.8,113.955 673.8,117.6 C673.8,121.245 676.755,124.2 680.4,124.2 Z M680.4,119.8 C679.185,119.8 678.2,118.815 678.2,117.6 C678.2,116.385 679.185,115.4 680.4,115.4 C681.615,115.4 682.6,116.385 682.6,117.6 C682.6,118.815 681.615,119.8 680.4,119.8 Z M682.6,104.4 L682.6,91.2 C682.6,89.985 681.615,89 680.4,89 C679.185,89 678.2,89.985 678.2,91.2 L678.2,104.4 C678.2,105.615 679.185,106.6 680.4,106.6 C681.615,106.6 682.6,105.615 682.6,104.4 Z" />
        </g>
    </g>
</svg>