<?xml version="1.0" encoding="UTF-8"?>
<svg height="600" width="800" xmlns="http://www.w3.org/2000/svg" xmlns:xlink="http://www.w3.org/1999/xlink">
    <g id="Notes" font-family="LucidaGrande, 'Lucida Grande', sans-serif" font-size="13">
        <rect fill="white" height="600.0" width="800.0" x="0.0" y="0.0" />
        <g font-size="13">
            <text x="18.0" y="176.0">Small</text>
            <text x="18.0" y="376.0">Medium</text>
            <text x="18.0" y="576.0">Large</text>
        </g>
        <g font-size="9">
            <text x="250.0" y="30.0">Ultralight</text>
            <text x="450.0" y="30.0">Regular</text>
            <text x="650.0" y="30.0">Black</text>
            <text id="template-version" fill="#505050" text-anchor="end" x="785.0" y="575.0">Template v.3.0</text>
            <a href="https://github.com/swhitty/SwiftDraw">
                <text fill="#505050" text-anchor="end" x="785.0" y="590.0">https://github.com/swhitty/SwiftDraw</text>
            </a>
        </g>
    </g>
    <g id="Guides" stroke="rgb(39, 170, 225)" stroke-width="0.5">
        <path id="Capline-S" d="M18,76 l800,0" />
        <path id="H-reference" d="M85,145.755 L87.685,145.755 L113.369,79.287 L114.052,79.287 L114.052,76 L112.148,76 L85,145.755 Z M95.693,121.536 L130.996,121.536 L130.263,119.313 L96.474,119.313 L95.693,121.536 Z M139.15,145.755 L141.787,145.755 L114.638,76 L113.466,76 L113.466,79.287 L139.15,145.755 Z" stroke="none" transform="translate(0,200)" />
        <path id="Baseline-S" d="M18,146 l800,0" />
        <path id="left-margin-Ultralight-M" d="M221,256 l0,110" />
        <path id="right-margin-Ultralight-M" d="M309,256 l0,110" />
        <path id="left-margin-Regular-M" d="M421,256 l0,110" />
        <path id="right-margin-Regular-M" d="M509,256 l0,110" />
        <path id="left-margin-Black-M" d="M621,256 l0,110" />
        <path id="right-margin-Black-M" d="M709,256 l0,110" />
        <path id="Capline-M" d="M18,276 l800,0" />
        <path id="Baseline-M" d="M18,346 l800,0" />
        <path id="Capline-L" d="M18,476 l800,0" />
        <path id="Baseline-L" d="M18,546 l800,0" />
    </g>
    <g id="Symbols">
        <g id="Ultralight-M" transform="translate(0,200)">
            <path d="M258.714,119.381 L254.524,119.381 C249.895,119.381 246.143,115.629 246.143,111 C246.143,106.371 249.895,102.619 254.524,102.619 L258.714,102.619 C259.871,102.619 260.81,101.681 260.81,100.524 C260.81,99.367 259.871,98.429 258.714,98.429 L254.524,98.429 C247.581,98.429 241.952,104.057 241.952,111 C241.952,117.943 247.581,123.571 254.524,123.571 L258.714,123.571 C259.871,123.571 260.81,122.633 260.81,121.476 C260.81,120.319 259.871,119.381 258.714,119.381 Z M271.286,123.571 L275.476,123.571 C282.419,123.571 288.048,117.943 288.048,111 C288.048,104.057 282.419,98.429 275.476,98.429 L271.286,98.429 C270.129,98.429 269.19,99.367 269.19,100.524 C269.19,101.681 270.129,102.619 271.286,102.619 L275.476,102.619 C280.105,102.619 283.857,106.371 283.857,111 C283.857,115.629 280.105,119.381 275.476,119.381 L271.286,119.381 C270.129,119.381 269.19,120.319 269.19,121.476 C269.19,122.633 270.129,123.571 271.286,123.571 Z M254.524,113.095 L275.476,113.095 C276.633,113.095 277.571,112.157 277.571,111 C277.571,109.843 276.633,108.905 275.476,108.905 L254.524,108.905 C253.367,108.905 252.429,109.843 252.429,111 C252.429,112.157 253.367,113.095 254.524,113.095 Z" />
        </g>
        <g id="Regular-M" transform="translate(0,200)">
            <path d="M458.714,119.381 L454.524,119.381 C449.895,119.381 446.143,115.629 446.143,111 C446.143,106.371 449.895,102.619 454.524,102.619 L458.714,102.619 C459.871,102.619 460.81,101.681 460.81,100.524 C460.81,99.367 459.871,98.429 458.714,98.429 L454.524,98.429 C447.581,98.429 441.952,104.057 441.952,111 C441.952,117.943 447.581,123.571 454.524,123.571 L458.714,123.571 C459.871,123.571 460.81,122.633 460.81,121.476 C460.81,120.319 459.871,119.381 458.714,119.381 Z M471.286,123.571 L475.476,123.571 C482.419,123.571 488.048,117.943 488.048,111 C488.048,104.057 482.419,98.429 475.476,98.429 L471.286,98.429 C470.129,98.429 469.19,99.367 469.19,100.524 C469.19,101.681 470.129,102.619 471.286,102.619 L475.476,102.619 C480.105,102.619 483.857,106.371 483.857,111 C483.857,115.629 480.105,119.381 475.476,119.381 L471.286,119.381 C470.129,119.381 469.19,120.319 469.19,121.476 C469.19,122.633 470.129,123.571 471.286,123.571 Z M454.524,113.095 L475.476,113.095 C476.633,113.095 477.571,112.157 477.571,111 C477.571,109.843 476.633,108.905 475.476,108.905 L454.524,108.905 C453.367,108.905 452.429,109.843 452.429,111 C452.429,112.157 453.367,113.095 454.524,113.095 Z" />
        </g>
        <g id="Black-M" transform="translate(0,200)">
            <path d="M658.714,119.381 L654.524,119.381 C649.895,119.381 646.143,115.629 646.143,111 C646.143,106.371 649.895,102.619 654.524,102.619 L658.714,102.619 C659.871,102.619 660.81,101.681 660.81,100.524 C660.81,99.367 659.871,98.429 658.714,98.429 L654.524,98.429 C647.581,98.429 641.952,104.057 641.952,111 C641.952,117.943 647.581,123.571 654.524,123.571 L658.714,123.571 C659.871,123.571 660.81,122.633 660.81,121.476 C660.81,120.319 659.871,119.381 658.714,119.381 Z M671.286,123.571 L675.476,123.571 C682.419,123.571 688.048,117.943 688.048,111 C688.048,104.057 682.419,98.429 675.476,98.429 L671.286,98.429 C670.129,98.429 669.19,99.367 669.19,100.524 C669.19,101.681 670.129,102.619 671.286,102.619 L675.476,102.619 C680.105,102.619 683.857,106.371 683.857,111 C683.857,115.629 680.105,119.381 675.476,119.381 L671.286,119.381 C670.129,119.381 669.19,120.319 669.19,121.476 C669.19,122.633 670.129,123.571 671.286,123.571 Z M654.524,113.095 L675.476,113.095 C676.633,113.095 677.571,112.157 677.571,111 C677.571,109.843 676.633,108.905 675.476,108.905 L654.524,108.905 C653.367,108.905 652.429,109.843 652.429,111 C652.429,112.157 653.367,113.095 654.524,113.095 Z" />
        </g>
    </g>
</svg>