<?xml version="1.0" encoding="UTF-8"?>
<svg height="600" width="800" xmlns="http://www.w3.org/2000/svg" xmlns:xlink="http://www.w3.org/1999/xlink">
    <g id="Notes" font-family="LucidaGrande, 'Lucida Grande', sans-serif" font-size="13">
        <rect fill="white" height="600.0" width="800.0" x="0.0" y="0.0" />
        <g font-size="13">
            <text x="18.0" y="176.0">Small</text>
            <text x="18.0" y="376.0">Medium</text>
            <text x="18.0" y="576.0">Large</text>
        </g>
        <g font-size="9">
            <text x="250.0" y="30.0">Ultralight</text>
            <text x="450.0" y="30.0">Regular</text>
            <text x="650.0" y="30.0">Black</text>
            <text id="template-version" fill="#505050" text-anchor="end" x="785.0" y="575.0">Template v.3.0</text>
            <a href="https://github.com/swhitty/SwiftDraw">
                <text fill="#505050" text-anchor="end" x="785.0" y="590.0">https://github.com/swhitty/SwiftDraw</text>
            </a>
        </g>
    </g>
    <g id="Guides" stroke="rgb(39, 170, 225)" stroke-width="0.5">
        <path id="Capline-S" d="M18,76 l800,0" />
        <path id="H-reference" d="M85,145.755 L87.685,145.755 L113.369,79.287 L114.052,79.287 L114.052,76 L112.148,76 L85,145.755 Z M95.693,121.536 L130.996,121.536 L130.263,119.313 L96.474,119.313 L95.693,121.536 Z M139.15,145.755 L141.787,145.755 L114.638,76 L113.466,76 L113.466,79.287 L139.15,145.755 Z" stroke="none" transform="translate(0,200)" />
        <path id="Baseline-S" d="M18,146 l800,0" />
        <path id="left-margin-Ultralight-M" d="M230,256 l0,110" />
        <path id="right-margin-Ultralight-M" d="M300,256 l0,110" />
        <path id="left-margin-Regular-M" d="M430,256 l0,110" />
        <path id="right-margin-Regular-M" d="M500,256 l0,110" />
        <path id="left-margin-Black-M" d="M630,256 l0,110" />
        <path id="right-margin-Black-M" d="M700,256 l0,110" />
        <path id="Capline-M" d="M18,276 l800,0" />
        <path id="Baseline-M" d="M18,346 l800,0" />
        <path id="Capline-L" d="M18,476 l800,0" />
        <path id="Baseline-L" d="M18,546 l800,0" />
    </g>
    <g id="Symbols">
        <g id="Ultralight-M" transform="translate(0,200)">
            <path d="M278.163,127.475 L294.442,144.975 C295.713,146.342 297.775,146.342 299.046,144.975 C300.318,143.608 300.318,141.392 299.046,140.025 L282.767,122.525 C281.496,121.158 279.434,121.158 278.163,122.525 C276.891,123.892 276.891,126.108 278.163,127.475 Z M294.442,122.525 L278.163,140.025 C276.891,141.392 276.891,143.608 278.163,144.975 C279.434,146.342 281.496,146.342 282.767,144.975 L299.046,127.475 C300.318,126.108 300.318,123.892 299.046,122.525 C297.775,121.158 295.713,121.158 294.442,122.525 Z M265.814,119.75 L251.163,119.75 C245.075,119.75 243.62,119.83 241.555,120.502 C236.35,122.199 232.278,126.577 230.7,132.171 C230.074,134.392 230,135.955 230,142.5 C230,144.433 231.458,146 233.256,146 C235.054,146 236.512,144.433 236.512,142.5 C236.512,136.833 236.577,135.461 236.932,134.201 C237.878,130.846 240.322,128.219 243.444,127.201 C244.615,126.82 245.892,126.75 251.163,126.75 L265.814,126.75 C267.612,126.75 269.07,125.183 269.07,123.25 C269.07,121.317 267.612,119.75 265.814,119.75 Z M270.698,95.25 C270.698,102.015 265.596,107.5 259.302,107.5 C253.009,107.5 247.907,102.015 247.907,95.25 C247.907,88.485 253.009,83 259.302,83 C265.596,83 270.698,88.485 270.698,95.25 Z M277.209,95.25 C277.209,84.619 269.192,76 259.302,76 C249.413,76 241.395,84.619 241.395,95.25 C241.395,105.881 249.413,114.5 259.302,114.5 C269.192,114.5 277.209,105.881 277.209,95.25 Z" />
        </g>
        <g id="Regular-M" transform="translate(0,200)">
            <path d="M478.163,127.475 L494.442,144.975 C495.713,146.342 497.775,146.342 499.046,144.975 C500.318,143.608 500.318,141.392 499.046,140.025 L482.767,122.525 C481.496,121.158 479.434,121.158 478.163,122.525 C476.891,123.892 476.891,126.108 478.163,127.475 Z M494.442,122.525 L478.163,140.025 C476.891,141.392 476.891,143.608 478.163,144.975 C479.434,146.342 481.496,146.342 482.767,144.975 L499.046,127.475 C500.318,126.108 500.318,123.892 499.046,122.525 C497.775,121.158 495.713,121.158 494.442,122.525 Z M465.814,119.75 L451.163,119.75 C445.074,119.75 443.62,119.83 441.555,120.502 C436.35,122.199 432.278,126.577 430.7,132.171 C430.074,134.392 430,135.955 430,142.5 C430,144.433 431.458,146 433.256,146 C435.054,146 436.512,144.433 436.512,142.5 C436.512,136.833 436.577,135.461 436.932,134.201 C437.878,130.846 440.322,128.219 443.444,127.201 C444.615,126.82 445.892,126.75 451.163,126.75 L465.814,126.75 C467.612,126.75 469.07,125.183 469.07,123.25 C469.07,121.317 467.612,119.75 465.814,119.75 Z M470.698,95.25 C470.698,102.015 465.596,107.5 459.302,107.5 C453.009,107.5 447.907,102.015 447.907,95.25 C447.907,88.485 453.009,83 459.302,83 C465.596,83 470.698,88.485 470.698,95.25 Z M477.209,95.25 C477.209,84.619 469.192,76 459.302,76 C449.413,76 441.395,84.619 441.395,95.25 C441.395,105.881 449.413,114.5 459.302,114.5 C469.192,114.5 477.209,105.881 477.209,95.25 Z" />
        </g>
        <g id="Black-M" transform="translate(0,200)">
            <path d="M678.163,127.475 L694.442,144.975 C695.713,146.342 697.775,146.342 699.046,144.975 C700.318,143.608 700.318,141.392 699.046,140.025 L682.767,122.525 C681.496,121.158 679.434,121.158 678.163,122.525 C676.891,123.892 676.891,126.108 678.163,127.475 Z M694.442,122.525 L678.163,140.025 C676.891,141.392 676.891,143.608 678.163,144.975 C679.434,146.342 681.496,146.342 682.767,144.975 L699.046,127.475 C700.318,126.108 700.318,123.892 699.046,122.525 C697.775,121.158 695.713,121.158 694.442,122.525 Z M665.814,119.75 L651.163,119.75 C645.075,119.75 643.62,119.83 641.555,120.502 C636.35,122.199 632.278,126.577 630.7,132.171 C630.074,134.392 630,135.955 630,142.5 C630,144.433 631.458,146 633.256,146 C635.054,146 636.512,144.433 636.512,142.5 C636.512,136.833 636.577,135.461 636.932,134.201 C637.878,130.846 640.322,128.219 643.444,127.201 C644.615,126.82 645.892,126.75 651.163,126.75 L665.814,126.75 C667.612,126.75 669.07,125.183 669.07,123.25 C669.07,121.317 667.612,119.75 665.814,119.75 Z M670.698,95.25 C670.698,102.015 665.596,107.5 659.302,107.5 C653.009,107.5 647.907,102.015 647.907,95.25 C647.907,88.485 653.009,83 659.302,83 C665.596,83 670.698,88.485 670.698,95.25 Z M677.209,95.25 C677.209,84.619 669.192,76 659.302,76 C649.413,76 641.395,84.619 641.395,95.25 C641.395,105.881 649.413,114.5 659.302,114.5 C669.192,114.5 677.209,105.881 677.209,95.25 Z" />
        </g>
    </g>
</svg>