<?xml version="1.0" encoding="UTF-8"?>
<svg height="600" width="800" xmlns="http://www.w3.org/2000/svg" xmlns:xlink="http://www.w3.org/1999/xlink">
    <g id="Notes" font-family="LucidaGrande, 'Lucida Grande', sans-serif" font-size="13">
        <rect fill="white" height="600.0" width="800.0" x="0.0" y="0.0" />
        <g font-size="13">
            <text x="18.0" y="176.0">Small</text>
            <text x="18.0" y="376.0">Medium</text>
            <text x="18.0" y="576.0">Large</text>
        </g>
        <g font-size="9">
            <text x="250.0" y="30.0">Ultralight</text>
            <text x="450.0" y="30.0">Regular</text>
            <text x="650.0" y="30.0">Black</text>
            <text id="template-version" fill="#505050" text-anchor="end" x="785.0" y="575.0">Template v.3.0</text>
            <a href="https://github.com/swhitty/SwiftDraw">
                <text fill="#505050" text-anchor="end" x="785.0" y="590.0">https://github.com/swhitty/SwiftDraw</text>
            </a>
        </g>
    </g>
    <g id="Guides" stroke="rgb(39, 170, 225)" stroke-width="0.5">
        <path id="Capline-S" d="M18,76 l800,0" />
        <path id="H-reference" d="M85,145.755 L87.685,145.755 L113.369,79.287 L114.052,79.287 L114.052,76 L112.148,76 L85,145.755 Z M95.693,121.536 L130.996,121.536 L130.263,119.313 L96.474,119.313 L95.693,121.536 Z M139.15,145.755 L141.787,145.755 L114.638,76 L113.466,76 L113.466,79.287 L139.15,145.755 Z" stroke="none" transform="translate(0,200)" />
        <path id="Baseline-S" d="M18,146 l800,0" />
        <path id="left-margin-Ultralight-M" d="M230,256 l0,110" />
        <path id="right-margin-Ultralight-M" d="M300,256 l0,110" />
        <path id="left-margin-Regular-M" d="M430,256 l0,110" />
        <path id="right-margin-Regular-M" d="M500,256 l0,110" />
        <path id="left-margin-Black-M" d="M630,256 l0,110" />
        <path id="right-margin-Black-M" d="M700,256 l0,110" />
        <path id="Capline-M" d="M18,276 l800,0" />
        <path id="Baseline-M" d="M18,346 l800,0" />
        <path id="Capline-L" d="M18,476 l800,0" />
        <path id="Baseline-L" d="M18,546 l800,0" />
    </g>
    <g id="Symbols">
        <g id="Ultralight-M" transform="translate(0,200)">
            <path d="M292.222,101.455 L292.222,84.273 C292.222,81.406 292.154,80.727 291.375,79.475 C290.629,78.277 289.439,77.304 287.976,76.694 C286.444,76.055 285.615,76 282.111,76 L247.889,76 C244.385,76 243.556,76.055 242.025,76.693 C240.561,77.304 239.371,78.277 238.626,79.475 C237.846,80.727 237.778,81.406 237.778,84.273 L237.778,101.455 C237.778,103.212 239.519,104.636 241.667,104.636 C243.814,104.636 245.556,103.212 245.556,101.455 L245.556,84.273 C245.556,82.685 245.594,82.302 245.556,82.363 C245.556,82.364 245.556,82.364 245.556,82.364 C245.481,82.395 245.948,82.364 247.889,82.364 L282.111,82.364 C284.052,82.364 284.519,82.395 284.445,82.364 C284.444,82.364 284.444,82.364 284.444,82.364 C284.406,82.302 284.444,82.685 284.444,84.273 L284.444,101.455 C284.444,103.212 286.186,104.636 288.333,104.636 C290.481,104.636 292.222,103.212 292.222,101.455 Z M261.111,91.909 L261.111,88.727 C261.111,86.97 259.37,85.545 257.222,85.545 C255.074,85.545 253.333,86.97 253.333,88.727 L253.333,91.909 C253.333,93.666 255.074,95.091 257.222,95.091 C259.37,95.091 261.111,93.666 261.111,91.909 Z M276.667,91.909 L276.667,88.727 C276.667,86.97 274.926,85.545 272.778,85.545 C270.63,85.545 268.889,86.97 268.889,88.727 L268.889,91.909 C268.889,93.666 270.63,95.091 272.778,95.091 C274.926,95.091 276.667,93.666 276.667,91.909 Z M252.556,146 L277.444,146 C286.392,146 288.519,145.858 291.506,144.613 C294.434,143.393 296.813,141.446 298.304,139.051 C299.826,136.606 300,134.867 300,127.545 L300,111.636 C300,106.543 299.879,105.333 298.729,103.485 C297.61,101.689 295.825,100.228 293.63,99.313 C291.37,98.372 289.892,98.273 283.667,98.273 L246.333,98.273 C240.108,98.273 238.63,98.372 236.371,99.313 C234.175,100.228 232.39,101.689 231.272,103.485 C230.121,105.333 230,106.543 230,111.636 L230,127.545 C230,134.867 230.174,136.606 231.695,139.05 C233.187,141.446 235.566,143.393 238.493,144.613 C241.481,145.858 243.608,146 252.556,146 Z M252.556,139.636 C245.17,139.636 243.406,139.518 242.024,138.943 C240.561,138.333 239.371,137.359 238.626,136.162 C237.922,135.032 237.778,133.588 237.778,127.545 L237.778,111.636 C237.778,107.821 237.869,106.908 238.202,106.373 C238.575,105.775 239.169,105.288 239.901,104.983 C240.554,104.711 241.67,104.636 246.333,104.636 L283.667,104.636 C288.33,104.636 289.446,104.711 290.099,104.983 C290.831,105.288 291.426,105.775 291.798,106.374 C292.131,106.908 292.222,107.821 292.222,111.636 L292.222,127.545 C292.222,133.588 292.078,135.032 291.374,136.162 C290.629,137.359 289.439,138.333 287.976,138.943 C286.594,139.518 284.83,139.636 277.444,139.636 L252.556,139.636 Z" />
        </g>
        <g id="Regular-M" transform="translate(0,200)">
            <path d="M492.222,101.455 L492.222,84.273 C492.222,81.406 492.154,80.727 491.375,79.475 C490.629,78.277 489.439,77.304 487.976,76.694 C486.444,76.055 485.615,76 482.111,76 L447.889,76 C444.385,76 443.556,76.055 442.025,76.693 C440.561,77.304 439.371,78.277 438.626,79.475 C437.846,80.727 437.778,81.406 437.778,84.273 L437.778,101.455 C437.778,103.212 439.519,104.636 441.667,104.636 C443.814,104.636 445.556,103.212 445.556,101.455 L445.556,84.273 C445.556,82.685 445.594,82.302 445.556,82.363 C445.556,82.364 445.556,82.364 445.556,82.364 C445.481,82.395 445.948,82.364 447.889,82.364 L482.111,82.364 C484.052,82.364 484.519,82.395 484.445,82.364 C484.444,82.364 484.444,82.364 484.444,82.364 C484.406,82.302 484.444,82.685 484.444,84.273 L484.444,101.455 C484.444,103.212 486.186,104.636 488.333,104.636 C490.481,104.636 492.222,103.212 492.222,101.455 Z M461.111,91.909 L461.111,88.727 C461.111,86.97 459.37,85.545 457.222,85.545 C455.074,85.545 453.333,86.97 453.333,88.727 L453.333,91.909 C453.333,93.666 455.074,95.091 457.222,95.091 C459.37,95.091 461.111,93.666 461.111,91.909 Z M476.667,91.909 L476.667,88.727 C476.667,86.97 474.926,85.545 472.778,85.545 C470.63,85.545 468.889,86.97 468.889,88.727 L468.889,91.909 C468.889,93.666 470.63,95.091 472.778,95.091 C474.926,95.091 476.667,93.666 476.667,91.909 Z M452.556,146 L477.444,146 C486.392,146 488.519,145.858 491.506,144.613 C494.434,143.393 496.813,141.446 498.304,139.051 C499.826,136.606 500,134.867 500,127.545 L500,111.636 C500,106.543 499.879,105.333 498.729,103.485 C497.61,101.689 495.825,100.228 493.63,99.313 C491.37,98.372 489.892,98.273 483.667,98.273 L446.333,98.273 C440.108,98.273 438.63,98.372 436.371,99.313 C434.175,100.228 432.39,101.689 431.272,103.485 C430.121,105.333 430,106.543 430,111.636 L430,127.545 C430,134.867 430.174,136.606 431.695,139.05 C433.187,141.446 435.566,143.393 438.493,144.613 C441.481,145.858 443.608,146 452.556,146 Z M452.556,139.636 C445.17,139.636 443.406,139.518 442.024,138.943 C440.561,138.333 439.371,137.359 438.626,136.162 C437.922,135.032 437.778,133.588 437.778,127.545 L437.778,111.636 C437.778,107.821 437.869,106.908 438.202,106.373 C438.574,105.775 439.169,105.288 439.901,104.983 C440.554,104.711 441.67,104.636 446.333,104.636 L483.667,104.636 C488.33,104.636 489.446,104.711 490.099,104.983 C490.831,105.288 491.426,105.775 491.798,106.374 C492.131,106.908 492.222,107.821 492.222,111.636 L492.222,127.545 C492.222,133.588 492.078,135.032 491.374,136.162 C490.629,137.359 489.439,138.333 487.976,138.943 C486.594,139.518 484.83,139.636 477.444,139.636 L452.556,139.636 Z" />
        </g>
        <g id="Black-M" transform="translate(0,200)">
            <path d="M692.222,101.455 L692.222,84.273 C692.222,81.406 692.154,80.727 691.375,79.475 C690.629,78.277 689.439,77.304 687.976,76.694 C686.444,76.055 685.615,76 682.111,76 L647.889,76 C644.385,76 643.556,76.055 642.025,76.693 C640.561,77.304 639.371,78.277 638.626,79.475 C637.846,80.727 637.778,81.406 637.778,84.273 L637.778,101.455 C637.778,103.212 639.519,104.636 641.667,104.636 C643.814,104.636 645.556,103.212 645.556,101.455 L645.556,84.273 C645.556,82.685 645.594,82.302 645.556,82.363 C645.556,82.364 645.556,82.364 645.556,82.364 C645.481,82.395 645.948,82.364 647.889,82.364 L682.111,82.364 C684.052,82.364 684.519,82.395 684.445,82.364 C684.444,82.364 684.444,82.364 684.444,82.364 C684.406,82.302 684.444,82.685 684.444,84.273 L684.444,101.455 C684.444,103.212 686.186,104.636 688.333,104.636 C690.481,104.636 692.222,103.212 692.222,101.455 Z M661.111,91.909 L661.111,88.727 C661.111,86.97 659.37,85.545 657.222,85.545 C655.074,85.545 653.333,86.97 653.333,88.727 L653.333,91.909 C653.333,93.666 655.074,95.091 657.222,95.091 C659.37,95.091 661.111,93.666 661.111,91.909 Z M676.667,91.909 L676.667,88.727 C676.667,86.97 674.926,85.545 672.778,85.545 C670.63,85.545 668.889,86.97 668.889,88.727 L668.889,91.909 C668.889,93.666 670.63,95.091 672.778,95.091 C674.926,95.091 676.667,93.666 676.667,91.909 Z M652.556,146 L677.444,146 C686.393,146 688.519,145.858 691.506,144.613 C694.434,143.393 696.813,141.446 698.304,139.051 C699.826,136.606 700,134.867 700,127.545 L700,111.636 C700,106.543 699.879,105.333 698.729,103.485 C697.61,101.689 695.825,100.228 693.63,99.313 C691.37,98.372 689.893,98.273 683.667,98.273 L646.333,98.273 C640.107,98.273 638.63,98.372 636.371,99.313 C634.175,100.228 632.39,101.689 631.272,103.485 C630.121,105.333 630,106.543 630,111.636 L630,127.545 C630,134.867 630.174,136.606 631.695,139.05 C633.187,141.446 635.566,143.393 638.493,144.613 C641.481,145.858 643.608,146 652.556,146 Z M652.556,139.636 C645.17,139.636 643.406,139.518 642.024,138.943 C640.561,138.333 639.371,137.359 638.626,136.162 C637.922,135.032 637.778,133.588 637.778,127.545 L637.778,111.636 C637.778,107.821 637.869,106.908 638.202,106.373 C638.575,105.775 639.169,105.288 639.901,104.983 C640.554,104.711 641.67,104.636 646.333,104.636 L683.667,104.636 C688.33,104.636 689.446,104.711 690.099,104.983 C690.831,105.288 691.425,105.775 691.798,106.374 C692.131,106.908 692.222,107.821 692.222,111.636 L692.222,127.545 C692.222,133.588 692.078,135.032 691.374,136.162 C690.629,137.359 689.439,138.333 687.976,138.943 C686.594,139.518 684.83,139.636 677.444,139.636 L652.556,139.636 Z" />
        </g>
    </g>
</svg>