<?xml version="1.0" encoding="UTF-8"?>
<svg height="600" width="800" xmlns="http://www.w3.org/2000/svg" xmlns:xlink="http://www.w3.org/1999/xlink">
    <g id="Notes" font-family="LucidaGrande, 'Lucida Grande', sans-serif" font-size="13">
        <rect fill="white" height="600.0" width="800.0" x="0.0" y="0.0" />
        <g font-size="13">
            <text x="18.0" y="176.0">Small</text>
            <text x="18.0" y="376.0">Medium</text>
            <text x="18.0" y="576.0">Large</text>
        </g>
        <g font-size="9">
            <text x="250.0" y="30.0">Ultralight</text>
            <text x="450.0" y="30.0">Regular</text>
            <text x="650.0" y="30.0">Black</text>
            <text id="template-version" fill="#505050" text-anchor="end" x="785.0" y="575.0">Template v.3.0</text>
            <a href="https://github.com/swhitty/SwiftDraw">
                <text fill="#505050" text-anchor="end" x="785.0" y="590.0">https://github.com/swhitty/SwiftDraw</text>
            </a>
        </g>
    </g>
    <g id="Guides" stroke="rgb(39, 170, 225)" stroke-width="0.5">
        <path id="Capline-S" d="M18,76 l800,0" />
        <path id="H-reference" d="M85,145.755 L87.685,145.755 L113.369,79.287 L114.052,79.287 L114.052,76 L112.148,76 L85,145.755 Z M95.693,121.536 L130.996,121.536 L130.263,119.313 L96.474,119.313 L95.693,121.536 Z M139.15,145.755 L141.787,145.755 L114.638,76 L113.466,76 L113.466,79.287 L139.15,145.755 Z" stroke="none" transform="translate(0,200)" />
        <path id="Baseline-S" d="M18,146 l800,0" />
        <path id="left-margin-Ultralight-M" d="M230,256 l0,110" />
        <path id="right-margin-Ultralight-M" d="M300,256 l0,110" />
        <path id="left-margin-Regular-M" d="M430,256 l0,110" />
        <path id="right-margin-Regular-M" d="M500,256 l0,110" />
        <path id="left-margin-Black-M" d="M630,256 l0,110" />
        <path id="right-margin-Black-M" d="M700,256 l0,110" />
        <path id="Capline-M" d="M18,276 l800,0" />
        <path id="Baseline-M" d="M18,346 l800,0" />
        <path id="Capline-L" d="M18,476 l800,0" />
        <path id="Baseline-L" d="M18,546 l800,0" />
    </g>
    <g id="Symbols">
        <g id="Ultralight-M" transform="translate(0,200)">
            <path d="M299.72,115.429 C299.906,113.973 300,112.492 300,111 C300,91.67 284.33,76 265,76 C245.67,76 230,91.67 230,111 C230,130.33 245.67,146 265,146 C266.508,146 268.008,145.904 269.493,145.713 C271.236,145.49 272.468,143.895 272.245,142.152 C272.021,140.409 270.427,139.178 268.684,139.401 C267.467,139.557 266.237,139.636 265,139.636 C249.184,139.636 236.364,126.816 236.364,111 C236.364,95.184 249.184,82.364 265,82.364 C280.816,82.364 293.636,95.184 293.636,111 C293.636,112.222 293.56,113.433 293.408,114.621 C293.184,116.364 294.417,117.958 296.16,118.181 C297.903,118.404 299.497,117.172 299.72,115.429 Z M261.818,91.909 L261.818,111 C261.818,112.205 262.499,113.307 263.576,113.846 L275.47,119.796 C277.042,120.582 278.953,119.945 279.739,118.374 C280.525,116.802 279.889,114.891 278.317,114.104 L266.424,108.154 L268.182,111 L268.182,91.909 C268.182,90.152 266.757,88.727 265,88.727 C263.243,88.727 261.818,90.152 261.818,91.909 Z M290.455,142.818 L290.455,123.727 C290.455,121.97 289.03,120.545 287.273,120.545 C285.515,120.545 284.091,121.97 284.091,123.727 L284.091,142.818 C284.091,144.575 285.515,146 287.273,146 C289.03,146 290.455,144.575 290.455,142.818 Z M277.727,136.455 L296.818,136.455 C298.575,136.455 300,135.03 300,133.273 C300,131.515 298.575,130.091 296.818,130.091 L277.727,130.091 C275.97,130.091 274.545,131.515 274.545,133.273 C274.545,135.03 275.97,136.455 277.727,136.455 Z" />
        </g>
        <g id="Regular-M" transform="translate(0,200)">
            <path d="M499.72,115.429 C499.906,113.973 500,112.492 500,111 C500,91.67 484.33,76 465,76 C445.67,76 430,91.67 430,111 C430,130.33 445.67,146 465,146 C466.508,146 468.008,145.904 469.493,145.713 C471.236,145.49 472.468,143.895 472.245,142.152 C472.021,140.409 470.427,139.178 468.684,139.401 C467.467,139.557 466.237,139.636 465,139.636 C449.184,139.636 436.364,126.816 436.364,111 C436.364,95.184 449.184,82.364 465,82.364 C480.816,82.364 493.636,95.184 493.636,111 C493.636,112.222 493.56,113.433 493.408,114.621 C493.184,116.364 494.417,117.958 496.16,118.181 C497.903,118.404 499.497,117.172 499.72,115.429 Z M461.818,91.909 L461.818,111 C461.818,112.205 462.499,113.307 463.576,113.846 L475.47,119.796 C477.042,120.582 478.953,119.945 479.739,118.374 C480.525,116.802 479.889,114.891 478.317,114.104 L466.424,108.154 L468.182,111 L468.182,91.909 C468.182,90.152 466.757,88.727 465,88.727 C463.243,88.727 461.818,90.152 461.818,91.909 Z M490.455,142.818 L490.455,123.727 C490.455,121.97 489.03,120.545 487.273,120.545 C485.515,120.545 484.091,121.97 484.091,123.727 L484.091,142.818 C484.091,144.575 485.515,146 487.273,146 C489.03,146 490.455,144.575 490.455,142.818 Z M477.727,136.455 L496.818,136.455 C498.575,136.455 500,135.03 500,133.273 C500,131.515 498.575,130.091 496.818,130.091 L477.727,130.091 C475.97,130.091 474.545,131.515 474.545,133.273 C474.545,135.03 475.97,136.455 477.727,136.455 Z" />
        </g>
        <g id="Black-M" transform="translate(0,200)">
            <path d="M699.72,115.429 C699.906,113.973 700,112.492 700,111 C700,91.67 684.33,76 665,76 C645.67,76 630,91.67 630,111 C630,130.33 645.67,146 665,146 C666.508,146 668.008,145.904 669.493,145.713 C671.236,145.49 672.468,143.895 672.245,142.152 C672.021,140.409 670.427,139.178 668.684,139.401 C667.467,139.557 666.237,139.636 665,139.636 C649.184,139.636 636.364,126.816 636.364,111 C636.364,95.184 649.184,82.364 665,82.364 C680.816,82.364 693.636,95.184 693.636,111 C693.636,112.222 693.56,113.433 693.408,114.621 C693.184,116.364 694.417,117.958 696.16,118.181 C697.903,118.404 699.497,117.172 699.72,115.429 Z M661.818,91.909 L661.818,111 C661.818,112.205 662.499,113.307 663.576,113.846 L675.47,119.796 C677.042,120.582 678.953,119.945 679.739,118.374 C680.525,116.802 679.889,114.891 678.317,114.104 L666.424,108.154 L668.182,111 L668.182,91.909 C668.182,90.152 666.757,88.727 665,88.727 C663.243,88.727 661.818,90.152 661.818,91.909 Z M690.455,142.818 L690.455,123.727 C690.455,121.97 689.03,120.545 687.273,120.545 C685.515,120.545 684.091,121.97 684.091,123.727 L684.091,142.818 C684.091,144.575 685.515,146 687.273,146 C689.03,146 690.455,144.575 690.455,142.818 Z M677.727,136.455 L696.818,136.455 C698.575,136.455 700,135.03 700,133.273 C700,131.515 698.575,130.091 696.818,130.091 L677.727,130.091 C675.97,130.091 674.545,131.515 674.545,133.273 C674.545,135.03 675.97,136.455 677.727,136.455 Z" />
        </g>
    </g>
</svg>