<?xml version="1.0" encoding="UTF-8"?>
<svg height="600" width="800" xmlns="http://www.w3.org/2000/svg" xmlns:xlink="http://www.w3.org/1999/xlink">
    <g id="Notes" font-family="LucidaGrande, 'Lucida Grande', sans-serif" font-size="13">
        <rect fill="white" height="600.0" width="800.0" x="0.0" y="0.0" />
        <g font-size="13">
            <text x="18.0" y="176.0">Small</text>
            <text x="18.0" y="376.0">Medium</text>
            <text x="18.0" y="576.0">Large</text>
        </g>
        <g font-size="9">
            <text x="250.0" y="30.0">Ultralight</text>
            <text x="450.0" y="30.0">Regular</text>
            <text x="650.0" y="30.0">Black</text>
            <text id="template-version" fill="#505050" text-anchor="end" x="785.0" y="575.0">Template v.3.0</text>
            <a href="https://github.com/swhitty/SwiftDraw">
                <text fill="#505050" text-anchor="end" x="785.0" y="590.0">https://github.com/swhitty/SwiftDraw</text>
            </a>
        </g>
    </g>
    <g id="Guides" stroke="rgb(39, 170, 225)" stroke-width="0.5">
        <path id="Capline-S" d="M18,76 l800,0" />
        <path id="H-reference" d="M85,145.755 L87.685,145.755 L113.369,79.287 L114.052,79.287 L114.052,76 L112.148,76 L85,145.755 Z M95.693,121.536 L130.996,121.536 L130.263,119.313 L96.474,119.313 L95.693,121.536 Z M139.15,145.755 L141.787,145.755 L114.638,76 L113.466,76 L113.466,79.287 L139.15,145.755 Z" stroke="none" transform="translate(0,200)" />
        <path id="Baseline-S" d="M18,146 l800,0" />
        <path id="left-margin-Ultralight-M" d="M230,256 l0,110" />
        <path id="right-margin-Ultralight-M" d="M300,256 l0,110" />
        <path id="left-margin-Regular-M" d="M430,256 l0,110" />
        <path id="right-margin-Regular-M" d="M500,256 l0,110" />
        <path id="left-margin-Black-M" d="M630,256 l0,110" />
        <path id="right-margin-Black-M" d="M700,256 l0,110" />
        <path id="Capline-M" d="M18,276 l800,0" />
        <path id="Baseline-M" d="M18,346 l800,0" />
        <path id="Capline-L" d="M18,476 l800,0" />
        <path id="Baseline-L" d="M18,546 l800,0" />
    </g>
    <g id="Symbols">
        <g id="Ultralight-M" transform="translate(0,200)">
            <path d="M267.917,93.5 L245.167,93.5 C240.497,93.5 239.389,93.591 237.695,94.454 C236.048,95.293 234.709,96.631 233.87,98.277 C233.007,99.972 232.917,101.081 232.917,105.75 L232.917,116.25 C232.917,120.919 233.007,122.028 233.87,123.722 C234.709,125.369 236.048,126.707 237.694,127.546 C239.389,128.409 240.497,128.5 245.167,128.5 L267.917,128.5 C269.527,128.5 270.833,127.194 270.833,125.583 C270.833,123.973 269.527,122.667 267.917,122.667 L245.167,122.667 C241.669,122.667 240.832,122.598 240.342,122.349 C239.794,122.069 239.348,121.623 239.068,121.074 C238.818,120.584 238.75,119.747 238.75,116.25 L238.75,105.75 C238.75,102.253 238.818,101.416 239.068,100.925 C239.348,100.377 239.794,99.931 240.342,99.651 C240.832,99.402 241.669,99.333 245.167,99.333 L267.917,99.333 C269.527,99.333 270.833,98.027 270.833,96.417 C270.833,94.806 269.527,93.5 267.917,93.5 Z M279.583,99.333 L284.833,99.333 C288.331,99.333 289.168,99.402 289.658,99.651 C290.206,99.931 290.652,100.377 290.932,100.926 C291.182,101.416 291.25,102.253 291.25,105.75 L291.25,116.25 C291.25,119.747 291.182,120.584 290.932,121.075 C290.652,121.623 290.206,122.069 289.658,122.349 C289.168,122.598 288.331,122.667 284.833,122.667 L279.583,122.667 C277.973,122.667 276.667,123.973 276.667,125.583 C276.667,127.194 277.973,128.5 279.583,128.5 L284.833,128.5 C289.503,128.5 290.611,128.409 292.305,127.546 C293.952,126.707 295.291,125.369 296.13,123.723 C296.993,122.028 297.083,120.919 297.083,116.25 L297.083,105.75 C297.083,101.081 296.993,99.972 296.13,98.278 C295.291,96.631 293.952,95.293 292.306,94.454 C290.611,93.591 289.503,93.5 284.833,93.5 L279.583,93.5 C277.973,93.5 276.667,94.806 276.667,96.417 C276.667,98.027 277.973,99.333 279.583,99.333 Z M282.5,137.25 L282.5,84.75 C282.5,83.139 281.194,81.833 279.583,81.833 C277.973,81.833 276.667,83.139 276.667,84.75 L276.667,137.25 C276.667,138.861 277.973,140.167 279.583,140.167 C281.194,140.167 282.5,138.861 282.5,137.25 Z M286.875,81.833 L272.292,81.833 C270.681,81.833 269.375,83.139 269.375,84.75 C269.375,86.361 270.681,87.667 272.292,87.667 L286.875,87.667 C288.486,87.667 289.792,86.361 289.792,84.75 C289.792,83.139 288.486,81.833 286.875,81.833 Z M286.875,134.333 L272.292,134.333 C270.681,134.333 269.375,135.639 269.375,137.25 C269.375,138.861 270.681,140.167 272.292,140.167 L286.875,140.167 C288.486,140.167 289.792,138.861 289.792,137.25 C289.792,135.639 288.486,134.333 286.875,134.333 Z" />
        </g>
        <g id="Regular-M" transform="translate(0,200)">
            <path d="M467.917,93.5 L445.167,93.5 C440.497,93.5 439.389,93.591 437.695,94.454 C436.048,95.293 434.709,96.631 433.87,98.277 C433.007,99.972 432.917,101.081 432.917,105.75 L432.917,116.25 C432.917,120.919 433.007,122.028 433.87,123.722 C434.709,125.369 436.048,126.707 437.694,127.546 C439.389,128.409 440.497,128.5 445.167,128.5 L467.917,128.5 C469.527,128.5 470.833,127.194 470.833,125.583 C470.833,123.973 469.527,122.667 467.917,122.667 L445.167,122.667 C441.669,122.667 440.832,122.598 440.342,122.349 C439.794,122.069 439.348,121.623 439.068,121.074 C438.818,120.584 438.75,119.747 438.75,116.25 L438.75,105.75 C438.75,102.253 438.818,101.416 439.068,100.925 C439.348,100.377 439.794,99.931 440.342,99.651 C440.832,99.402 441.669,99.333 445.167,99.333 L467.917,99.333 C469.527,99.333 470.833,98.027 470.833,96.417 C470.833,94.806 469.527,93.5 467.917,93.5 Z M479.583,99.333 L484.833,99.333 C488.331,99.333 489.168,99.402 489.658,99.651 C490.206,99.931 490.652,100.377 490.932,100.926 C491.182,101.416 491.25,102.253 491.25,105.75 L491.25,116.25 C491.25,119.747 491.182,120.584 490.932,121.075 C490.652,121.623 490.206,122.069 489.658,122.349 C489.168,122.598 488.331,122.667 484.833,122.667 L479.583,122.667 C477.973,122.667 476.667,123.973 476.667,125.583 C476.667,127.194 477.973,128.5 479.583,128.5 L484.833,128.5 C489.503,128.5 490.611,128.409 492.305,127.546 C493.952,126.707 495.291,125.369 496.13,123.723 C496.993,122.028 497.083,120.919 497.083,116.25 L497.083,105.75 C497.083,101.081 496.993,99.972 496.13,98.278 C495.291,96.631 493.952,95.293 492.306,94.454 C490.611,93.591 489.503,93.5 484.833,93.5 L479.583,93.5 C477.973,93.5 476.667,94.806 476.667,96.417 C476.667,98.027 477.973,99.333 479.583,99.333 Z M482.5,137.25 L482.5,84.75 C482.5,83.139 481.194,81.833 479.583,81.833 C477.973,81.833 476.667,83.139 476.667,84.75 L476.667,137.25 C476.667,138.861 477.973,140.167 479.583,140.167 C481.194,140.167 482.5,138.861 482.5,137.25 Z M486.875,81.833 L472.292,81.833 C470.681,81.833 469.375,83.139 469.375,84.75 C469.375,86.361 470.681,87.667 472.292,87.667 L486.875,87.667 C488.486,87.667 489.792,86.361 489.792,84.75 C489.792,83.139 488.486,81.833 486.875,81.833 Z M486.875,134.333 L472.292,134.333 C470.681,134.333 469.375,135.639 469.375,137.25 C469.375,138.861 470.681,140.167 472.292,140.167 L486.875,140.167 C488.486,140.167 489.792,138.861 489.792,137.25 C489.792,135.639 488.486,134.333 486.875,134.333 Z" />
        </g>
        <g id="Black-M" transform="translate(0,200)">
            <path d="M667.917,93.5 L645.167,93.5 C640.497,93.5 639.389,93.591 637.695,94.454 C636.048,95.293 634.709,96.631 633.87,98.277 C633.007,99.972 632.917,101.081 632.917,105.75 L632.917,116.25 C632.917,120.919 633.007,122.028 633.87,123.722 C634.709,125.369 636.048,126.707 637.694,127.546 C639.389,128.409 640.497,128.5 645.167,128.5 L667.917,128.5 C669.528,128.5 670.833,127.194 670.833,125.583 C670.833,123.973 669.528,122.667 667.917,122.667 L645.167,122.667 C641.669,122.667 640.832,122.598 640.342,122.349 C639.794,122.069 639.348,121.623 639.068,121.074 C638.818,120.584 638.75,119.747 638.75,116.25 L638.75,105.75 C638.75,102.253 638.818,101.416 639.068,100.925 C639.348,100.377 639.794,99.931 640.343,99.651 C640.832,99.402 641.669,99.333 645.167,99.333 L667.917,99.333 C669.528,99.333 670.833,98.027 670.833,96.417 C670.833,94.806 669.528,93.5 667.917,93.5 Z M679.583,99.333 L684.833,99.333 C688.331,99.333 689.168,99.402 689.658,99.651 C690.206,99.931 690.652,100.377 690.932,100.926 C691.182,101.416 691.25,102.253 691.25,105.75 L691.25,116.25 C691.25,119.747 691.182,120.584 690.932,121.075 C690.652,121.623 690.206,122.069 689.657,122.349 C689.168,122.598 688.331,122.667 684.833,122.667 L679.583,122.667 C677.973,122.667 676.667,123.973 676.667,125.583 C676.667,127.194 677.973,128.5 679.583,128.5 L684.833,128.5 C689.503,128.5 690.611,128.409 692.305,127.546 C693.952,126.707 695.291,125.369 696.13,123.723 C696.993,122.028 697.083,120.919 697.083,116.25 L697.083,105.75 C697.083,101.081 696.993,99.972 696.13,98.278 C695.291,96.631 693.952,95.293 692.306,94.454 C690.611,93.591 689.503,93.5 684.833,93.5 L679.583,93.5 C677.973,93.5 676.667,94.806 676.667,96.417 C676.667,98.027 677.973,99.333 679.583,99.333 Z M682.5,137.25 L682.5,84.75 C682.5,83.139 681.194,81.833 679.583,81.833 C677.973,81.833 676.667,83.139 676.667,84.75 L676.667,137.25 C676.667,138.861 677.973,140.167 679.583,140.167 C681.194,140.167 682.5,138.861 682.5,137.25 Z M686.875,81.833 L672.292,81.833 C670.681,81.833 669.375,83.139 669.375,84.75 C669.375,86.361 670.681,87.667 672.292,87.667 L686.875,87.667 C688.486,87.667 689.792,86.361 689.792,84.75 C689.792,83.139 688.486,81.833 686.875,81.833 Z M686.875,134.333 L672.292,134.333 C670.681,134.333 669.375,135.639 669.375,137.25 C669.375,138.861 670.681,140.167 672.292,140.167 L686.875,140.167 C688.486,140.167 689.792,138.861 689.792,137.25 C689.792,135.639 688.486,134.333 686.875,134.333 Z" />
        </g>
    </g>
</svg>