<?xml version="1.0" encoding="UTF-8"?>
<svg height="600" width="800" xmlns="http://www.w3.org/2000/svg" xmlns:xlink="http://www.w3.org/1999/xlink">
    <g id="Notes" font-family="LucidaGrande, 'Lucida Grande', sans-serif" font-size="13">
        <rect fill="white" height="600.0" width="800.0" x="0.0" y="0.0" />
        <g font-size="13">
            <text x="18.0" y="176.0">Small</text>
            <text x="18.0" y="376.0">Medium</text>
            <text x="18.0" y="576.0">Large</text>
        </g>
        <g font-size="9">
            <text x="250.0" y="30.0">Ultralight</text>
            <text x="450.0" y="30.0">Regular</text>
            <text x="650.0" y="30.0">Black</text>
            <text id="template-version" fill="#505050" text-anchor="end" x="785.0" y="575.0">Template v.3.0</text>
            <a href="https://github.com/swhitty/SwiftDraw">
                <text fill="#505050" text-anchor="end" x="785.0" y="590.0">https://github.com/swhitty/SwiftDraw</text>
            </a>
        </g>
    </g>
    <g id="Guides" stroke="rgb(39, 170, 225)" stroke-width="0.5">
        <path id="Capline-S" d="M18,76 l800,0" />
        <path id="H-reference" d="M85,145.755 L87.685,145.755 L113.369,79.287 L114.052,79.287 L114.052,76 L112.148,76 L85,145.755 Z M95.693,121.536 L130.996,121.536 L130.263,119.313 L96.474,119.313 L95.693,121.536 Z M139.15,145.755 L141.787,145.755 L114.638,76 L113.466,76 L113.466,79.287 L139.15,145.755 Z" stroke="none" transform="translate(0,200)" />
        <path id="Baseline-S" d="M18,146 l800,0" />
        <path id="left-margin-Ultralight-M" d="M221,256 l0,110" />
        <path id="right-margin-Ultralight-M" d="M309,256 l0,110" />
        <path id="left-margin-Regular-M" d="M421,256 l0,110" />
        <path id="right-margin-Regular-M" d="M509,256 l0,110" />
        <path id="left-margin-Black-M" d="M621,256 l0,110" />
        <path id="right-margin-Black-M" d="M709,256 l0,110" />
        <path id="Capline-M" d="M18,276 l800,0" />
        <path id="Baseline-M" d="M18,346 l800,0" />
        <path id="Capline-L" d="M18,476 l800,0" />
        <path id="Baseline-L" d="M18,546 l800,0" />
    </g>
    <g id="Symbols">
        <g id="Ultralight-M" transform="translate(0,200)">
            <path d="M267.095,98.429 L250.752,98.429 C247.398,98.429 246.602,98.494 245.385,99.114 C244.202,99.716 243.24,100.678 242.638,101.861 C242.017,103.078 241.952,103.874 241.952,107.229 L241.952,114.771 C241.952,118.126 242.017,118.922 242.637,120.139 C243.24,121.322 244.202,122.284 245.384,122.886 C246.602,123.506 247.398,123.571 250.752,123.571 L267.095,123.571 C268.252,123.571 269.19,122.633 269.19,121.476 C269.19,120.319 268.252,119.381 267.095,119.381 L250.752,119.381 C248.24,119.381 247.639,119.332 247.287,119.152 C246.893,118.952 246.572,118.631 246.371,118.237 C246.192,117.885 246.143,117.284 246.143,114.771 L246.143,107.229 C246.143,104.716 246.192,104.115 246.371,103.763 C246.572,103.369 246.893,103.048 247.287,102.847 C247.639,102.668 248.24,102.619 250.752,102.619 L267.095,102.619 C268.252,102.619 269.19,101.681 269.19,100.524 C269.19,99.367 268.252,98.429 267.095,98.429 Z M275.476,102.619 L279.248,102.619 C281.76,102.619 282.361,102.668 282.713,102.848 C283.107,103.048 283.428,103.369 283.629,103.763 C283.808,104.115 283.857,104.716 283.857,107.229 L283.857,114.771 C283.857,117.284 283.808,117.885 283.629,118.237 C283.428,118.631 283.107,118.952 282.713,119.153 C282.361,119.332 281.76,119.381 279.248,119.381 L275.476,119.381 C274.319,119.381 273.381,120.319 273.381,121.476 C273.381,122.633 274.319,123.571 275.476,123.571 L279.248,123.571 C282.602,123.571 283.398,123.506 284.615,122.886 C285.798,122.284 286.76,121.322 287.362,120.139 C287.983,118.922 288.048,118.126 288.048,114.771 L288.048,107.229 C288.048,103.874 287.983,103.078 287.363,101.861 C286.76,100.678 285.798,99.716 284.616,99.114 C283.398,98.494 282.602,98.429 279.248,98.429 L275.476,98.429 C274.319,98.429 273.381,99.367 273.381,100.524 C273.381,101.681 274.319,102.619 275.476,102.619 Z M277.571,129.857 L277.571,92.143 C277.571,90.986 276.633,90.048 275.476,90.048 C274.319,90.048 273.381,90.986 273.381,92.143 L273.381,129.857 C273.381,131.014 274.319,131.952 275.476,131.952 C276.633,131.952 277.571,131.014 277.571,129.857 Z M280.714,90.048 L270.238,90.048 C269.081,90.048 268.143,90.986 268.143,92.143 C268.143,93.3 269.081,94.238 270.238,94.238 L280.714,94.238 C281.871,94.238 282.81,93.3 282.81,92.143 C282.81,90.986 281.871,90.048 280.714,90.048 Z M280.714,127.762 L270.238,127.762 C269.081,127.762 268.143,128.7 268.143,129.857 C268.143,131.014 269.081,131.952 270.238,131.952 L280.714,131.952 C281.871,131.952 282.81,131.014 282.81,129.857 C282.81,128.7 281.871,127.762 280.714,127.762 Z" />
        </g>
        <g id="Regular-M" transform="translate(0,200)">
            <path d="M467.095,98.429 L450.752,98.429 C447.398,98.429 446.602,98.494 445.385,99.114 C444.202,99.716 443.24,100.678 442.638,101.861 C442.017,103.078 441.952,103.874 441.952,107.229 L441.952,114.771 C441.952,118.126 442.017,118.922 442.637,120.139 C443.24,121.322 444.202,122.284 445.384,122.886 C446.602,123.506 447.398,123.571 450.752,123.571 L467.095,123.571 C468.252,123.571 469.19,122.633 469.19,121.476 C469.19,120.319 468.252,119.381 467.095,119.381 L450.752,119.381 C448.24,119.381 447.639,119.332 447.287,119.152 C446.893,118.952 446.572,118.631 446.371,118.237 C446.192,117.885 446.143,117.284 446.143,114.771 L446.143,107.229 C446.143,104.716 446.192,104.115 446.371,103.763 C446.572,103.369 446.893,103.048 447.287,102.847 C447.639,102.668 448.24,102.619 450.752,102.619 L467.095,102.619 C468.252,102.619 469.19,101.681 469.19,100.524 C469.19,99.367 468.252,98.429 467.095,98.429 Z M475.476,102.619 L479.248,102.619 C481.76,102.619 482.361,102.668 482.713,102.848 C483.107,103.048 483.428,103.369 483.629,103.763 C483.808,104.115 483.857,104.716 483.857,107.229 L483.857,114.771 C483.857,117.284 483.808,117.885 483.629,118.237 C483.428,118.631 483.107,118.952 482.713,119.153 C482.361,119.332 481.76,119.381 479.248,119.381 L475.476,119.381 C474.319,119.381 473.381,120.319 473.381,121.476 C473.381,122.633 474.319,123.571 475.476,123.571 L479.248,123.571 C482.602,123.571 483.398,123.506 484.615,122.886 C485.798,122.284 486.76,121.322 487.362,120.139 C487.983,118.922 488.048,118.126 488.048,114.771 L488.048,107.229 C488.048,103.874 487.983,103.078 487.363,101.861 C486.76,100.678 485.798,99.716 484.616,99.114 C483.398,98.494 482.602,98.429 479.248,98.429 L475.476,98.429 C474.319,98.429 473.381,99.367 473.381,100.524 C473.381,101.681 474.319,102.619 475.476,102.619 Z M477.571,129.857 L477.571,92.143 C477.571,90.986 476.633,90.048 475.476,90.048 C474.319,90.048 473.381,90.986 473.381,92.143 L473.381,129.857 C473.381,131.014 474.319,131.952 475.476,131.952 C476.633,131.952 477.571,131.014 477.571,129.857 Z M480.714,90.048 L470.238,90.048 C469.081,90.048 468.143,90.986 468.143,92.143 C468.143,93.3 469.081,94.238 470.238,94.238 L480.714,94.238 C481.871,94.238 482.81,93.3 482.81,92.143 C482.81,90.986 481.871,90.048 480.714,90.048 Z M480.714,127.762 L470.238,127.762 C469.081,127.762 468.143,128.7 468.143,129.857 C468.143,131.014 469.081,131.952 470.238,131.952 L480.714,131.952 C481.871,131.952 482.81,131.014 482.81,129.857 C482.81,128.7 481.871,127.762 480.714,127.762 Z" />
        </g>
        <g id="Black-M" transform="translate(0,200)">
            <path d="M667.095,98.429 L650.752,98.429 C647.398,98.429 646.602,98.494 645.385,99.114 C644.202,99.716 643.24,100.678 642.638,101.861 C642.017,103.078 641.952,103.874 641.952,107.229 L641.952,114.771 C641.952,118.126 642.017,118.922 642.637,120.139 C643.24,121.322 644.202,122.284 645.384,122.886 C646.602,123.506 647.398,123.571 650.752,123.571 L667.095,123.571 C668.252,123.571 669.19,122.633 669.19,121.476 C669.19,120.319 668.252,119.381 667.095,119.381 L650.752,119.381 C648.24,119.381 647.639,119.332 647.287,119.152 C646.893,118.952 646.572,118.631 646.371,118.237 C646.192,117.885 646.143,117.284 646.143,114.771 L646.143,107.229 C646.143,104.716 646.192,104.115 646.371,103.763 C646.572,103.369 646.893,103.048 647.287,102.847 C647.639,102.668 648.24,102.619 650.752,102.619 L667.095,102.619 C668.252,102.619 669.19,101.681 669.19,100.524 C669.19,99.367 668.252,98.429 667.095,98.429 Z M675.476,102.619 L679.248,102.619 C681.76,102.619 682.361,102.668 682.713,102.848 C683.107,103.048 683.428,103.369 683.629,103.763 C683.808,104.115 683.857,104.716 683.857,107.229 L683.857,114.771 C683.857,117.284 683.808,117.885 683.629,118.237 C683.428,118.631 683.107,118.952 682.713,119.153 C682.361,119.332 681.76,119.381 679.248,119.381 L675.476,119.381 C674.319,119.381 673.381,120.319 673.381,121.476 C673.381,122.633 674.319,123.571 675.476,123.571 L679.248,123.571 C682.602,123.571 683.398,123.506 684.615,122.886 C685.798,122.284 686.76,121.322 687.362,120.139 C687.983,118.922 688.048,118.126 688.048,114.771 L688.048,107.229 C688.048,103.874 687.983,103.078 687.363,101.861 C686.76,100.678 685.798,99.716 684.616,99.114 C683.398,98.494 682.602,98.429 679.248,98.429 L675.476,98.429 C674.319,98.429 673.381,99.367 673.381,100.524 C673.381,101.681 674.319,102.619 675.476,102.619 Z M677.571,129.857 L677.571,92.143 C677.571,90.986 676.633,90.048 675.476,90.048 C674.319,90.048 673.381,90.986 673.381,92.143 L673.381,129.857 C673.381,131.014 674.319,131.952 675.476,131.952 C676.633,131.952 677.571,131.014 677.571,129.857 Z M680.714,90.048 L670.238,90.048 C669.081,90.048 668.143,90.986 668.143,92.143 C668.143,93.3 669.081,94.238 670.238,94.238 L680.714,94.238 C681.871,94.238 682.81,93.3 682.81,92.143 C682.81,90.986 681.871,90.048 680.714,90.048 Z M680.714,127.762 L670.238,127.762 C669.081,127.762 668.143,128.7 668.143,129.857 C668.143,131.014 669.081,131.952 670.238,131.952 L680.714,131.952 C681.871,131.952 682.81,131.014 682.81,129.857 C682.81,128.7 681.871,127.762 680.714,127.762 Z" />
        </g>
    </g>
</svg>