<?xml version="1.0" encoding="UTF-8"?>
<svg height="600" width="800" xmlns="http://www.w3.org/2000/svg" xmlns:xlink="http://www.w3.org/1999/xlink">
    <g id="Notes" font-family="LucidaGrande, 'Lucida Grande', sans-serif" font-size="13">
        <rect fill="white" height="600.0" width="800.0" x="0.0" y="0.0" />
        <g font-size="13">
            <text x="18.0" y="176.0">Small</text>
            <text x="18.0" y="376.0">Medium</text>
            <text x="18.0" y="576.0">Large</text>
        </g>
        <g font-size="9">
            <text x="250.0" y="30.0">Ultralight</text>
            <text x="450.0" y="30.0">Regular</text>
            <text x="650.0" y="30.0">Black</text>
            <text id="template-version" fill="#505050" text-anchor="end" x="785.0" y="575.0">Template v.3.0</text>
            <a href="https://github.com/swhitty/SwiftDraw">
                <text fill="#505050" text-anchor="end" x="785.0" y="590.0">https://github.com/swhitty/SwiftDraw</text>
            </a>
        </g>
    </g>
    <g id="Guides" stroke="rgb(39, 170, 225)" stroke-width="0.5">
        <path id="Capline-S" d="M18,76 l800,0" />
        <path id="H-reference" d="M85,145.755 L87.685,145.755 L113.369,79.287 L114.052,79.287 L114.052,76 L112.148,76 L85,145.755 Z M95.693,121.536 L130.996,121.536 L130.263,119.313 L96.474,119.313 L95.693,121.536 Z M139.15,145.755 L141.787,145.755 L114.638,76 L113.466,76 L113.466,79.287 L139.15,145.755 Z" stroke="none" transform="translate(0,200)" />
        <path id="Baseline-S" d="M18,146 l800,0" />
        <path id="left-margin-Ultralight-M" d="M221,256 l0,110" />
        <path id="right-margin-Ultralight-M" d="M309,256 l0,110" />
        <path id="left-margin-Regular-M" d="M421,256 l0,110" />
        <path id="right-margin-Regular-M" d="M509,256 l0,110" />
        <path id="left-margin-Black-M" d="M621,256 l0,110" />
        <path id="right-margin-Black-M" d="M709,256 l0,110" />
        <path id="Capline-M" d="M18,276 l800,0" />
        <path id="Baseline-M" d="M18,346 l800,0" />
        <path id="Capline-L" d="M18,476 l800,0" />
        <path id="Baseline-L" d="M18,546 l800,0" />
    </g>
    <g id="Symbols">
        <g id="Ultralight-M" transform="translate(0,200)">
            <path d="M278.2,104.404 C278.204,102.651 277.506,100.968 276.263,99.73 C275.032,98.495 273.351,97.798 271.598,97.8 C270.383,97.801 269.399,98.787 269.4,100.002 C269.401,101.217 270.387,102.201 271.603,102.2 C272.184,102.199 272.742,102.431 273.153,102.843 C273.571,103.258 273.801,103.815 273.8,104.396 C273.798,105.611 274.781,106.598 275.996,106.6 C277.211,106.602 278.198,105.619 278.2,104.404 Z M271.6,119.8 C278.019,119.8 283.764,115.819 286.018,109.809 C288.272,103.8 286.563,97.023 281.729,92.801 C276.895,88.579 269.95,87.798 264.298,90.84 C258.647,93.883 255.476,100.112 256.339,106.471 C256.456,107.346 256.485,107.644 256.489,107.611 C256.487,107.623 256.502,107.578 256.526,107.538 C256.495,107.591 256.495,107.591 256.497,107.587 C256.507,107.571 256.388,107.701 255.918,108.171 L244.676,119.413 C244.146,119.943 244.003,120.095 243.785,120.403 C243.718,120.5 243.718,120.5 243.654,120.601 C243.406,121.005 243.228,121.436 243.12,121.887 C243.011,122.352 243,122.587 243,123.459 L243,127.28 C243,129.262 243.038,129.731 243.48,130.597 C243.902,131.426 244.575,132.099 245.403,132.521 C246.269,132.962 246.738,133 248.72,133 L254,133 C255.215,133 256.2,132.015 256.2,130.8 L256.2,126.4 L254,128.6 L258.4,128.6 C259.615,128.6 260.6,127.615 260.6,126.4 L260.6,122 L258.4,124.2 L262.8,124.2 C263.384,124.2 263.943,123.968 264.356,123.556 L267.832,120.08 C268.299,119.612 268.429,119.493 268.413,119.503 C268.409,119.505 268.409,119.505 268.406,119.507 C268.423,119.498 268.377,119.513 268.331,119.518 C268.359,119.516 268.649,119.544 269.533,119.662 C270.208,119.754 270.899,119.8 271.6,119.8 Z M271.6,115.4 C271.096,115.4 270.604,115.367 270.122,115.301 C268.553,115.092 268.345,115.072 267.773,115.154 C267.262,115.21 266.697,115.401 266.193,115.705 C266.233,115.681 266.233,115.681 266.216,115.69 C265.743,115.963 265.545,116.144 264.721,116.968 L261.245,120.445 L262.8,119.8 L258.4,119.8 C257.185,119.8 256.2,120.785 256.2,122 L256.2,126.4 L258.4,124.2 L254,124.2 C252.785,124.2 251.8,125.185 251.8,126.4 L251.8,130.8 L254,128.6 L248.72,128.6 C247.622,128.6 247.358,128.579 247.4,128.6 C247.4,128.6 247.4,128.6 247.4,128.6 C247.422,128.643 247.4,128.378 247.4,127.28 L247.4,123.459 C247.4,122.984 247.404,122.888 247.401,122.901 C247.399,122.91 247.399,122.91 247.399,122.91 C247.384,122.935 247.384,122.935 247.376,122.946 C247.388,122.929 247.469,122.842 247.788,122.524 L259.03,111.282 C259.856,110.455 260.037,110.258 260.31,109.784 C260.32,109.767 260.32,109.767 260.329,109.75 C260.6,109.303 260.79,108.739 260.855,108.153 C260.926,107.647 260.901,107.392 260.7,105.884 C260.082,101.337 262.348,96.888 266.384,94.715 C270.421,92.541 275.382,93.099 278.835,96.115 C282.288,99.131 283.509,103.972 281.898,108.264 C280.288,112.556 276.184,115.4 271.6,115.4 Z" />
        </g>
        <g id="Regular-M" transform="translate(0,200)">
            <path d="M478.2,104.404 C478.204,102.651 477.506,100.968 476.263,99.73 C475.032,98.495 473.351,97.798 471.598,97.8 C470.383,97.801 469.399,98.787 469.4,100.002 C469.402,101.217 470.388,102.201 471.603,102.2 C472.184,102.199 472.743,102.431 473.153,102.843 C473.571,103.258 473.801,103.815 473.8,104.396 C473.798,105.611 474.781,106.598 475.996,106.6 C477.211,106.602 478.198,105.619 478.2,104.404 Z M471.6,119.8 C478.019,119.8 483.764,115.819 486.018,109.809 C488.272,103.8 486.563,97.023 481.729,92.801 C476.895,88.579 469.95,87.798 464.298,90.84 C458.647,93.883 455.476,100.112 456.339,106.471 C456.456,107.346 456.485,107.644 456.489,107.611 C456.487,107.623 456.502,107.578 456.526,107.538 C456.495,107.591 456.495,107.591 456.497,107.587 C456.507,107.571 456.388,107.701 455.918,108.171 L444.676,119.413 C444.146,119.943 444.003,120.095 443.785,120.403 C443.718,120.5 443.718,120.5 443.654,120.601 C443.406,121.005 443.228,121.436 443.12,121.887 C443.011,122.352 443,122.587 443,123.459 L443,127.28 C443,129.262 443.038,129.731 443.48,130.597 C443.902,131.426 444.575,132.099 445.403,132.521 C446.269,132.962 446.738,133 448.72,133 L454,133 C455.215,133 456.2,132.015 456.2,130.8 L456.2,126.4 L454,128.6 L458.4,128.6 C459.615,128.6 460.6,127.615 460.6,126.4 L460.6,122 L458.4,124.2 L462.8,124.2 C463.384,124.2 463.943,123.968 464.356,123.556 L467.832,120.08 C468.299,119.612 468.429,119.493 468.413,119.503 C468.409,119.505 468.409,119.505 468.406,119.507 C468.423,119.498 468.377,119.513 468.331,119.518 C468.359,119.516 468.649,119.544 469.533,119.662 C470.208,119.754 470.899,119.8 471.6,119.8 Z M471.6,115.4 C471.096,115.4 470.604,115.367 470.122,115.301 C468.553,115.092 468.345,115.072 467.773,115.154 C467.262,115.21 466.697,115.401 466.193,115.705 C466.233,115.681 466.233,115.681 466.216,115.69 C465.743,115.963 465.545,116.144 464.721,116.968 L461.245,120.445 L462.8,119.8 L458.4,119.8 C457.185,119.8 456.2,120.785 456.2,122 L456.2,126.4 L458.4,124.2 L454,124.2 C452.785,124.2 451.8,125.185 451.8,126.4 L451.8,130.8 L454,128.6 L448.72,128.6 C447.622,128.6 447.358,128.579 447.4,128.6 C447.4,128.6 447.4,128.6 447.4,128.6 C447.422,128.643 447.4,128.378 447.4,127.28 L447.4,123.459 C447.4,122.984 447.404,122.888 447.401,122.901 C447.399,122.91 447.399,122.91 447.399,122.91 C447.384,122.935 447.384,122.935 447.376,122.946 C447.388,122.929 447.469,122.842 447.788,122.524 L459.03,111.282 C459.856,110.455 460.037,110.258 460.31,109.784 C460.32,109.767 460.32,109.767 460.329,109.75 C460.6,109.303 460.79,108.739 460.855,108.153 C460.926,107.647 460.901,107.392 460.7,105.884 C460.082,101.337 462.348,96.888 466.384,94.715 C470.421,92.541 475.382,93.099 478.835,96.115 C482.288,99.131 483.509,103.972 481.898,108.264 C480.288,112.556 476.185,115.4 471.6,115.4 Z" />
        </g>
        <g id="Black-M" transform="translate(0,200)">
            <path d="M678.2,104.404 C678.204,102.651 677.506,100.968 676.263,99.73 C675.032,98.495 673.351,97.798 671.598,97.8 C670.383,97.801 669.399,98.787 669.4,100.002 C669.401,101.217 670.388,102.201 671.603,102.2 C672.184,102.199 672.742,102.431 673.153,102.843 C673.571,103.258 673.801,103.815 673.8,104.396 C673.798,105.611 674.781,106.598 675.996,106.6 C677.211,106.602 678.198,105.619 678.2,104.404 Z M671.6,119.8 C678.019,119.8 683.764,115.819 686.018,109.809 C688.272,103.8 686.563,97.023 681.729,92.801 C676.895,88.579 669.95,87.798 664.298,90.84 C658.647,93.883 655.476,100.112 656.339,106.471 C656.456,107.346 656.485,107.644 656.489,107.611 C656.487,107.623 656.502,107.578 656.526,107.538 C656.495,107.591 656.495,107.591 656.497,107.587 C656.507,107.571 656.388,107.701 655.918,108.171 L644.676,119.413 C644.146,119.943 644.003,120.095 643.785,120.403 C643.718,120.5 643.718,120.5 643.654,120.601 C643.406,121.005 643.228,121.436 643.12,121.887 C643.011,122.352 643,122.587 643,123.459 L643,127.28 C643,129.262 643.038,129.731 643.48,130.597 C643.902,131.426 644.575,132.099 645.403,132.521 C646.269,132.962 646.738,133 648.72,133 L654,133 C655.215,133 656.2,132.015 656.2,130.8 L656.2,126.4 L654,128.6 L658.4,128.6 C659.615,128.6 660.6,127.615 660.6,126.4 L660.6,122 L658.4,124.2 L662.8,124.2 C663.384,124.2 663.943,123.968 664.356,123.556 L667.832,120.08 C668.299,119.612 668.429,119.493 668.413,119.503 C668.409,119.505 668.409,119.505 668.406,119.507 C668.423,119.498 668.377,119.513 668.331,119.518 C668.359,119.516 668.649,119.544 669.533,119.662 C670.208,119.754 670.899,119.8 671.6,119.8 Z M671.6,115.4 C671.096,115.4 670.604,115.367 670.122,115.301 C668.553,115.092 668.345,115.072 667.773,115.154 C667.262,115.21 666.697,115.401 666.193,115.705 C666.233,115.681 666.233,115.681 666.216,115.69 C665.743,115.963 665.545,116.144 664.721,116.968 L661.245,120.445 L662.8,119.8 L658.4,119.8 C657.185,119.8 656.2,120.785 656.2,122 L656.2,126.4 L658.4,124.2 L654,124.2 C652.785,124.2 651.8,125.185 651.8,126.4 L651.8,130.8 L654,128.6 L648.72,128.6 C647.622,128.6 647.358,128.579 647.4,128.6 C647.4,128.6 647.4,128.6 647.4,128.6 C647.422,128.643 647.4,128.378 647.4,127.28 L647.4,123.459 C647.4,122.984 647.404,122.888 647.401,122.901 C647.399,122.91 647.399,122.91 647.399,122.91 C647.384,122.935 647.384,122.935 647.376,122.946 C647.388,122.929 647.469,122.842 647.788,122.524 L659.03,111.282 C659.857,110.455 660.037,110.258 660.31,109.784 C660.32,109.767 660.32,109.767 660.329,109.75 C660.6,109.303 660.79,108.739 660.855,108.153 C660.926,107.647 660.901,107.392 660.7,105.884 C660.082,101.337 662.348,96.888 666.384,94.715 C670.421,92.541 675.382,93.099 678.835,96.115 C682.288,99.131 683.509,103.972 681.898,108.264 C680.288,112.556 676.185,115.4 671.6,115.4 Z" />
        </g>
    </g>
</svg>