<?xml version="1.0" encoding="UTF-8"?>
<svg height="600" width="800" xmlns="http://www.w3.org/2000/svg" xmlns:xlink="http://www.w3.org/1999/xlink">
    <g id="Notes" font-family="LucidaGrande, 'Lucida Grande', sans-serif" font-size="13">
        <rect fill="white" height="600.0" width="800.0" x="0.0" y="0.0" />
        <g font-size="13">
            <text x="18.0" y="176.0">Small</text>
            <text x="18.0" y="376.0">Medium</text>
            <text x="18.0" y="576.0">Large</text>
        </g>
        <g font-size="9">
            <text x="250.0" y="30.0">Ultralight</text>
            <text x="450.0" y="30.0">Regular</text>
            <text x="650.0" y="30.0">Black</text>
            <text id="template-version" fill="#505050" text-anchor="end" x="785.0" y="575.0">Template v.3.0</text>
            <a href="https://github.com/swhitty/SwiftDraw">
                <text fill="#505050" text-anchor="end" x="785.0" y="590.0">https://github.com/swhitty/SwiftDraw</text>
            </a>
        </g>
    </g>
    <g id="Guides" stroke="rgb(39, 170, 225)" stroke-width="0.5">
        <path id="Capline-S" d="M18,76 l800,0" />
        <path id="H-reference" d="M85,145.755 L87.685,145.755 L113.369,79.287 L114.052,79.287 L114.052,76 L112.148,76 L85,145.755 Z M95.693,121.536 L130.996,121.536 L130.263,119.313 L96.474,119.313 L95.693,121.536 Z M139.15,145.755 L141.787,145.755 L114.638,76 L113.466,76 L113.466,79.287 L139.15,145.755 Z" stroke="none" transform="translate(0,200)" />
        <path id="Baseline-S" d="M18,146 l800,0" />
        <path id="left-margin-Ultralight-M" d="M228.333,256 l0,110" />
        <path id="right-margin-Ultralight-M" d="M301.667,256 l0,110" />
        <path id="left-margin-Regular-M" d="M428.333,256 l0,110" />
        <path id="right-margin-Regular-M" d="M501.667,256 l0,110" />
        <path id="left-margin-Black-M" d="M628.333,256 l0,110" />
        <path id="right-margin-Black-M" d="M701.667,256 l0,110" />
        <path id="Capline-M" d="M18,276 l800,0" />
        <path id="Baseline-M" d="M18,346 l800,0" />
        <path id="Capline-L" d="M18,476 l800,0" />
        <path id="Baseline-L" d="M18,546 l800,0" />
    </g>
    <g id="Symbols">
        <g id="Ultralight-M" transform="translate(0,200)">
            <path d="M235.099,116.971 L240.349,137.853 C240.553,138.668 240.612,138.89 240.727,139.234 C242.017,143.009 245.422,145.647 249.398,145.966 C249.748,145.997 249.964,146 250.849,146 C251.946,146 252.21,145.995 252.657,145.949 C257.396,145.491 261.16,141.747 261.623,137.015 C261.664,136.575 261.668,136.32 261.668,135.235 L261.668,87.987 C261.668,86.156 260.176,84.672 258.335,84.672 C256.494,84.672 255.002,86.156 255.002,87.987 L255.002,135.235 C255.002,136.054 254.999,136.256 254.987,136.385 C254.834,137.95 253.579,139.199 251.993,139.352 C251.856,139.366 251.655,139.37 250.849,139.37 C250.207,139.37 250.05,139.367 249.956,139.359 C248.608,139.251 247.473,138.371 247.045,137.119 C247.014,137.027 246.972,136.869 246.817,136.249 L241.567,115.362 C241.12,113.586 239.31,112.506 237.524,112.95 C235.738,113.394 234.653,115.194 235.099,116.971 Z M286.667,117.824 C294.951,117.824 301.667,111.145 301.667,102.906 C301.667,94.666 294.951,87.987 286.667,87.987 C284.827,87.987 283.334,89.471 283.334,91.302 C283.334,93.133 284.827,94.617 286.667,94.617 C291.27,94.617 295,98.328 295,102.906 C295,107.483 291.27,111.194 286.667,111.194 C284.827,111.194 283.334,112.678 283.334,114.509 C283.334,116.34 284.827,117.824 286.667,117.824 Z M259.169,84.672 L246.666,84.672 C236.541,84.672 228.333,92.835 228.333,102.906 C228.333,112.976 236.541,121.139 246.666,121.139 L259.165,121.139 C263.586,121.139 269.607,123.303 276.215,126.888 C281.337,129.662 282.133,130.019 284.143,129.774 C285.982,129.596 287.719,128.568 288.801,126.98 C289.927,125.424 289.997,124.551 289.997,119.064 L289.997,86.747 C289.997,81.268 289.927,80.393 288.75,78.759 C287.719,77.243 285.982,76.215 284.063,76.028 C282.13,75.792 281.346,76.144 276.217,78.923 C269.607,82.508 263.586,84.672 259.165,84.672 L259.165,87.987 L259.165,91.302 L259.169,91.302 L259.169,87.987 L259.169,84.672 Z M259.169,91.302 C263.613,91.302 263.613,84.672 259.169,84.672 L259.165,84.672 C254.721,84.672 254.721,91.302 259.165,91.302 C264.987,91.302 271.894,88.819 279.407,84.745 C282.392,83.127 283.485,82.637 283.333,82.618 C283.359,82.622 283.311,82.593 283.281,82.549 C283.197,82.434 283.227,82.55 283.263,83.008 C283.32,83.71 283.331,84.475 283.331,86.747 L283.331,119.064 C283.331,121.336 283.32,122.102 283.263,122.804 C283.227,123.261 283.197,123.375 283.335,123.185 C283.311,123.218 283.359,123.189 283.412,123.184 C283.487,123.174 282.385,122.68 279.406,121.066 C271.894,116.992 264.987,114.509 259.165,114.509 L246.666,114.509 C240.223,114.509 235,109.314 235,102.906 C235,96.497 240.223,91.302 246.666,91.302 L259.169,91.302 Z" />
        </g>
        <g id="Regular-M" transform="translate(0,200)">
            <path d="M435.099,116.971 L440.349,137.853 C440.553,138.668 440.612,138.89 440.727,139.234 C442.017,143.009 445.422,145.647 449.398,145.966 C449.748,145.997 449.964,146 450.849,146 C451.946,146 452.21,145.995 452.657,145.949 C457.396,145.491 461.16,141.747 461.623,137.015 C461.664,136.575 461.668,136.32 461.668,135.235 L461.668,87.987 C461.668,86.156 460.176,84.672 458.335,84.672 C456.494,84.672 455.002,86.156 455.002,87.987 L455.002,135.235 C455.002,136.054 454.999,136.256 454.987,136.385 C454.834,137.95 453.579,139.199 451.993,139.352 C451.856,139.366 451.655,139.37 450.849,139.37 C450.207,139.37 450.05,139.367 449.956,139.359 C448.608,139.251 447.473,138.371 447.045,137.119 C447.014,137.027 446.972,136.869 446.817,136.249 L441.567,115.362 C441.12,113.586 439.31,112.506 437.524,112.95 C435.738,113.394 434.653,115.194 435.099,116.971 Z M486.667,117.824 C494.951,117.824 501.667,111.145 501.667,102.906 C501.667,94.666 494.951,87.987 486.667,87.987 C484.827,87.987 483.334,89.471 483.334,91.302 C483.334,93.133 484.827,94.617 486.667,94.617 C491.27,94.617 495,98.328 495,102.906 C495,107.483 491.27,111.194 486.667,111.194 C484.827,111.194 483.334,112.678 483.334,114.509 C483.334,116.34 484.827,117.824 486.667,117.824 Z M459.169,84.672 L446.666,84.672 C436.541,84.672 428.333,92.835 428.333,102.906 C428.333,112.976 436.541,121.139 446.666,121.139 L459.165,121.139 C463.586,121.139 469.607,123.303 476.215,126.888 C481.337,129.662 482.133,130.019 484.143,129.774 C485.982,129.596 487.719,128.568 488.801,126.98 C489.927,125.424 489.997,124.551 489.997,119.064 L489.997,86.747 C489.997,81.268 489.927,80.393 488.75,78.759 C487.719,77.243 485.982,76.215 484.063,76.028 C482.13,75.792 481.346,76.144 476.217,78.923 C469.607,82.508 463.586,84.672 459.165,84.672 L459.165,87.987 L459.165,91.302 L459.169,91.302 L459.169,87.987 L459.169,84.672 Z M459.169,91.302 C463.613,91.302 463.613,84.672 459.169,84.672 L459.165,84.672 C454.721,84.672 454.721,91.302 459.165,91.302 C464.987,91.302 471.894,88.819 479.407,84.745 C482.392,83.127 483.485,82.637 483.333,82.618 C483.359,82.622 483.311,82.593 483.281,82.549 C483.197,82.434 483.227,82.55 483.263,83.008 C483.32,83.71 483.331,84.475 483.331,86.747 L483.331,119.064 C483.331,121.336 483.32,122.102 483.263,122.804 C483.227,123.261 483.197,123.375 483.335,123.185 C483.311,123.218 483.359,123.189 483.412,123.184 C483.487,123.174 482.385,122.68 479.406,121.066 C471.894,116.992 464.987,114.509 459.165,114.509 L446.666,114.509 C440.223,114.509 435,109.314 435,102.906 C435,96.497 440.223,91.302 446.666,91.302 L459.169,91.302 Z" />
        </g>
        <g id="Black-M" transform="translate(0,200)">
            <path d="M635.099,116.971 L640.349,137.853 C640.553,138.668 640.612,138.89 640.727,139.234 C642.017,143.009 645.422,145.647 649.398,145.966 C649.748,145.997 649.964,146 650.849,146 C651.946,146 652.21,145.995 652.657,145.949 C657.395,145.491 661.16,141.747 661.623,137.015 C661.664,136.575 661.668,136.32 661.668,135.235 L661.668,87.987 C661.668,86.156 660.176,84.672 658.335,84.672 C656.494,84.672 655.002,86.156 655.002,87.987 L655.002,135.235 C655.002,136.054 654.999,136.256 654.987,136.385 C654.834,137.95 653.579,139.199 651.993,139.352 C651.856,139.366 651.655,139.37 650.849,139.37 C650.207,139.37 650.05,139.367 649.956,139.359 C648.608,139.251 647.473,138.371 647.045,137.119 C647.014,137.027 646.972,136.869 646.817,136.249 L641.566,115.362 C641.12,113.586 639.31,112.506 637.524,112.95 C635.738,113.394 634.653,115.194 635.099,116.971 Z M686.667,117.824 C694.951,117.824 701.667,111.145 701.667,102.906 C701.667,94.666 694.951,87.987 686.667,87.987 C684.826,87.987 683.334,89.471 683.334,91.302 C683.334,93.133 684.826,94.617 686.667,94.617 C691.269,94.617 695,98.328 695,102.906 C695,107.483 691.269,111.194 686.667,111.194 C684.826,111.194 683.334,112.678 683.334,114.509 C683.334,116.34 684.826,117.824 686.667,117.824 Z M659.169,84.672 L646.666,84.672 C636.541,84.672 628.333,92.835 628.333,102.906 C628.333,112.976 636.541,121.139 646.666,121.139 L659.165,121.139 C663.586,121.139 669.607,123.303 676.215,126.888 C681.337,129.662 682.133,130.019 684.143,129.774 C685.982,129.596 687.719,128.568 688.8,126.98 C689.927,125.424 689.997,124.551 689.997,119.064 L689.997,86.747 C689.997,81.268 689.927,80.393 688.75,78.759 C687.719,77.243 685.982,76.215 684.063,76.028 C682.13,75.792 681.346,76.144 676.217,78.923 C669.607,82.508 663.586,84.672 659.165,84.672 L659.165,87.987 L659.165,91.302 L659.169,91.302 L659.169,87.987 L659.169,84.672 Z M659.169,91.302 C663.613,91.302 663.613,84.672 659.169,84.672 L659.165,84.672 C654.721,84.672 654.721,91.302 659.165,91.302 C664.987,91.302 671.894,88.819 679.407,84.745 C682.392,83.127 683.485,82.637 683.333,82.618 C683.359,82.622 683.311,82.593 683.281,82.549 C683.197,82.434 683.227,82.55 683.263,83.008 C683.32,83.71 683.331,84.475 683.331,86.747 L683.331,119.064 C683.331,121.336 683.32,122.102 683.263,122.804 C683.227,123.261 683.197,123.375 683.335,123.185 C683.311,123.218 683.359,123.189 683.412,123.184 C683.487,123.174 682.385,122.68 679.405,121.066 C671.894,116.992 664.987,114.509 659.165,114.509 L646.666,114.509 C640.223,114.509 635,109.314 635,102.906 C635,96.497 640.223,91.302 646.666,91.302 L659.169,91.302 Z" />
        </g>
    </g>
</svg>