<?xml version="1.0" encoding="UTF-8"?>
<svg height="600" width="800" xmlns="http://www.w3.org/2000/svg" xmlns:xlink="http://www.w3.org/1999/xlink">
    <g id="Notes" font-family="LucidaGrande, 'Lucida Grande', sans-serif" font-size="13">
        <rect fill="white" height="600.0" width="800.0" x="0.0" y="0.0" />
        <g font-size="13">
            <text x="18.0" y="176.0">Small</text>
            <text x="18.0" y="376.0">Medium</text>
            <text x="18.0" y="576.0">Large</text>
        </g>
        <g font-size="9">
            <text x="250.0" y="30.0">Ultralight</text>
            <text x="450.0" y="30.0">Regular</text>
            <text x="650.0" y="30.0">Black</text>
            <text id="template-version" fill="#505050" text-anchor="end" x="785.0" y="575.0">Template v.3.0</text>
            <a href="https://github.com/swhitty/SwiftDraw">
                <text fill="#505050" text-anchor="end" x="785.0" y="590.0">https://github.com/swhitty/SwiftDraw</text>
            </a>
        </g>
    </g>
    <g id="Guides" stroke="rgb(39, 170, 225)" stroke-width="0.5">
        <path id="Capline-S" d="M18,76 l800,0" />
        <path id="H-reference" d="M85,145.755 L87.685,145.755 L113.369,79.287 L114.052,79.287 L114.052,76 L112.148,76 L85,145.755 Z M95.693,121.536 L130.996,121.536 L130.263,119.313 L96.474,119.313 L95.693,121.536 Z M139.15,145.755 L141.787,145.755 L114.638,76 L113.466,76 L113.466,79.287 L139.15,145.755 Z" stroke="none" transform="translate(0,200)" />
        <path id="Baseline-S" d="M18,146 l800,0" />
        <path id="left-margin-Ultralight-M" d="M230,256 l0,110" />
        <path id="right-margin-Ultralight-M" d="M300,256 l0,110" />
        <path id="left-margin-Regular-M" d="M430,256 l0,110" />
        <path id="right-margin-Regular-M" d="M500,256 l0,110" />
        <path id="left-margin-Black-M" d="M630,256 l0,110" />
        <path id="right-margin-Black-M" d="M700,256 l0,110" />
        <path id="Capline-M" d="M18,276 l800,0" />
        <path id="Baseline-M" d="M18,346 l800,0" />
        <path id="Capline-L" d="M18,476 l800,0" />
        <path id="Baseline-L" d="M18,546 l800,0" />
    </g>
    <g id="Symbols">
        <g id="Ultralight-M" transform="translate(0,200)">
            <path d="M236.458,116.971 L241.47,137.853 C241.664,138.668 241.72,138.89 241.83,139.234 C243.062,143.009 246.312,145.647 250.107,145.966 C250.441,145.997 250.648,146 251.492,146 C252.54,146 252.791,145.995 253.218,145.949 C257.741,145.491 261.335,141.747 261.776,137.015 C261.816,136.575 261.82,136.32 261.82,135.235 L261.82,87.987 C261.82,86.156 260.395,84.672 258.638,84.672 C256.881,84.672 255.457,86.156 255.457,87.987 L255.457,135.235 C255.457,136.054 255.453,136.256 255.442,136.385 C255.296,137.95 254.098,139.199 252.584,139.352 C252.453,139.366 252.262,139.37 251.492,139.37 C250.879,139.37 250.729,139.367 250.64,139.359 C249.353,139.251 248.27,138.371 247.861,137.119 C247.832,137.027 247.792,136.869 247.644,136.249 L242.632,115.362 C242.205,113.586 240.478,112.506 238.773,112.95 C237.069,113.394 236.032,115.194 236.458,116.971 Z M285.682,117.824 C293.59,117.824 300,111.145 300,102.906 C300,94.666 293.59,87.987 285.682,87.987 C283.925,87.987 282.501,89.471 282.501,91.302 C282.501,93.133 283.925,94.617 285.682,94.617 C290.075,94.617 293.637,98.328 293.637,102.906 C293.637,107.483 290.075,111.194 285.682,111.194 C283.925,111.194 282.501,112.678 282.501,114.509 C282.501,116.34 283.925,117.824 285.682,117.824 Z M259.434,84.672 L247.499,84.672 C237.835,84.672 230,92.835 230,102.906 C230,112.976 237.835,121.139 247.499,121.139 L259.43,121.139 C263.651,121.139 269.397,123.303 275.706,126.888 C280.594,129.662 281.354,130.019 283.273,129.774 C285.029,129.596 286.686,128.568 287.719,126.98 C288.794,125.424 288.861,124.551 288.861,119.064 L288.861,86.747 C288.861,81.268 288.794,80.393 287.671,78.759 C286.686,77.243 285.029,76.215 283.196,76.028 C281.351,75.792 280.603,76.144 275.707,78.923 C269.397,82.508 263.651,84.672 259.43,84.672 L259.43,87.987 L259.43,91.302 L259.434,91.302 L259.434,87.987 L259.434,84.672 Z M259.434,91.302 C263.676,91.302 263.676,84.672 259.434,84.672 L259.43,84.672 C255.188,84.672 255.188,91.302 259.43,91.302 C264.987,91.302 271.581,88.819 278.752,84.745 C281.602,83.127 282.645,82.637 282.5,82.618 C282.525,82.622 282.479,82.593 282.45,82.549 C282.37,82.434 282.398,82.55 282.433,83.008 C282.487,83.71 282.498,84.475 282.498,86.747 L282.498,119.064 C282.498,121.336 282.487,122.102 282.433,122.804 C282.398,123.261 282.37,123.375 282.501,123.185 C282.479,123.218 282.525,123.189 282.575,123.184 C282.646,123.174 281.595,122.68 278.751,121.066 C271.581,116.992 264.987,114.509 259.43,114.509 L247.499,114.509 C241.349,114.509 236.363,109.314 236.363,102.906 C236.363,96.497 241.349,91.302 247.499,91.302 L259.434,91.302 Z" />
        </g>
        <g id="Regular-M" transform="translate(0,200)">
            <path d="M436.458,116.971 L441.47,137.853 C441.664,138.668 441.72,138.89 441.83,139.234 C443.062,143.009 446.312,145.647 450.107,145.966 C450.441,145.997 450.648,146 451.492,146 C452.54,146 452.791,145.995 453.218,145.949 C457.741,145.491 461.335,141.747 461.776,137.015 C461.816,136.575 461.82,136.32 461.82,135.235 L461.82,87.987 C461.82,86.156 460.395,84.672 458.638,84.672 C456.881,84.672 455.457,86.156 455.457,87.987 L455.457,135.235 C455.457,136.054 455.453,136.256 455.442,136.385 C455.296,137.95 454.098,139.199 452.584,139.352 C452.453,139.366 452.262,139.37 451.492,139.37 C450.879,139.37 450.729,139.367 450.64,139.359 C449.353,139.251 448.27,138.371 447.861,137.119 C447.832,137.027 447.792,136.869 447.644,136.249 L442.632,115.362 C442.205,113.586 440.478,112.506 438.773,112.95 C437.069,113.394 436.032,115.194 436.458,116.971 Z M485.682,117.824 C493.59,117.824 500,111.145 500,102.906 C500,94.666 493.59,87.987 485.682,87.987 C483.925,87.987 482.501,89.471 482.501,91.302 C482.501,93.133 483.925,94.617 485.682,94.617 C490.075,94.617 493.637,98.328 493.637,102.906 C493.637,107.483 490.075,111.194 485.682,111.194 C483.925,111.194 482.501,112.678 482.501,114.509 C482.501,116.34 483.925,117.824 485.682,117.824 Z M459.434,84.672 L447.499,84.672 C437.835,84.672 430,92.835 430,102.906 C430,112.976 437.835,121.139 447.499,121.139 L459.43,121.139 C463.651,121.139 469.397,123.303 475.706,126.888 C480.594,129.662 481.354,130.019 483.273,129.774 C485.029,129.596 486.686,128.568 487.719,126.98 C488.794,125.424 488.861,124.551 488.861,119.064 L488.861,86.747 C488.861,81.268 488.794,80.393 487.671,78.759 C486.686,77.243 485.029,76.215 483.196,76.028 C481.351,75.792 480.603,76.144 475.707,78.923 C469.397,82.508 463.651,84.672 459.43,84.672 L459.43,87.987 L459.43,91.302 L459.434,91.302 L459.434,87.987 L459.434,84.672 Z M459.434,91.302 C463.676,91.302 463.676,84.672 459.434,84.672 L459.43,84.672 C455.188,84.672 455.188,91.302 459.43,91.302 C464.987,91.302 471.581,88.819 478.752,84.745 C481.602,83.127 482.645,82.637 482.5,82.618 C482.525,82.622 482.479,82.593 482.45,82.549 C482.37,82.434 482.398,82.55 482.433,83.008 C482.487,83.71 482.498,84.475 482.498,86.747 L482.498,119.064 C482.498,121.336 482.487,122.102 482.433,122.804 C482.398,123.261 482.37,123.375 482.501,123.185 C482.479,123.218 482.525,123.189 482.575,123.184 C482.646,123.174 481.595,122.68 478.751,121.066 C471.581,116.992 464.987,114.509 459.43,114.509 L447.499,114.509 C441.349,114.509 436.363,109.314 436.363,102.906 C436.363,96.497 441.349,91.302 447.499,91.302 L459.434,91.302 Z" />
        </g>
        <g id="Black-M" transform="translate(0,200)">
            <path d="M636.458,116.971 L641.469,137.853 C641.664,138.668 641.72,138.89 641.83,139.234 C643.062,143.009 646.312,145.647 650.107,145.966 C650.441,145.997 650.648,146 651.492,146 C652.54,146 652.791,145.995 653.218,145.949 C657.741,145.491 661.335,141.747 661.776,137.015 C661.816,136.575 661.82,136.32 661.82,135.235 L661.82,87.987 C661.82,86.156 660.395,84.672 658.638,84.672 C656.881,84.672 655.457,86.156 655.457,87.987 L655.457,135.235 C655.457,136.054 655.453,136.256 655.442,136.385 C655.296,137.95 654.098,139.199 652.584,139.352 C652.453,139.366 652.262,139.37 651.492,139.37 C650.879,139.37 650.729,139.367 650.64,139.359 C649.353,139.251 648.27,138.371 647.861,137.119 C647.832,137.027 647.792,136.869 647.644,136.249 L642.632,115.362 C642.205,113.586 640.478,112.506 638.773,112.95 C637.069,113.394 636.032,115.194 636.458,116.971 Z M685.682,117.824 C693.59,117.824 700,111.145 700,102.906 C700,94.666 693.59,87.987 685.682,87.987 C683.925,87.987 682.501,89.471 682.501,91.302 C682.501,93.133 683.925,94.617 685.682,94.617 C690.075,94.617 693.637,98.328 693.637,102.906 C693.637,107.483 690.075,111.194 685.682,111.194 C683.925,111.194 682.501,112.678 682.501,114.509 C682.501,116.34 683.925,117.824 685.682,117.824 Z M659.434,84.672 L647.499,84.672 C637.835,84.672 630,92.835 630,102.906 C630,112.976 637.835,121.139 647.499,121.139 L659.43,121.139 C663.651,121.139 669.397,123.303 675.706,126.888 C680.594,129.662 681.354,130.019 683.273,129.774 C685.029,129.596 686.686,128.568 687.719,126.98 C688.794,125.424 688.861,124.551 688.861,119.064 L688.861,86.747 C688.861,81.268 688.794,80.393 687.671,78.759 C686.686,77.243 685.029,76.215 683.196,76.028 C681.351,75.792 680.603,76.144 675.707,78.923 C669.397,82.508 663.651,84.672 659.43,84.672 L659.43,87.987 L659.43,91.302 L659.434,91.302 L659.434,87.987 L659.434,84.672 Z M659.434,91.302 C663.676,91.302 663.676,84.672 659.434,84.672 L659.43,84.672 C655.188,84.672 655.188,91.302 659.43,91.302 C664.987,91.302 671.581,88.819 678.752,84.745 C681.602,83.127 682.645,82.637 682.5,82.618 C682.525,82.622 682.479,82.593 682.45,82.549 C682.37,82.434 682.398,82.55 682.433,83.008 C682.487,83.71 682.498,84.475 682.498,86.747 L682.498,119.064 C682.498,121.336 682.487,122.102 682.433,122.804 C682.398,123.261 682.37,123.375 682.501,123.185 C682.479,123.218 682.525,123.189 682.576,123.184 C682.646,123.174 681.595,122.68 678.751,121.066 C671.581,116.992 664.987,114.509 659.43,114.509 L647.499,114.509 C641.349,114.509 636.363,109.314 636.363,102.906 C636.363,96.497 641.349,91.302 647.499,91.302 L659.434,91.302 Z" />
        </g>
    </g>
</svg>