<?xml version="1.0" encoding="UTF-8"?>
<svg height="600" width="800" xmlns="http://www.w3.org/2000/svg" xmlns:xlink="http://www.w3.org/1999/xlink">
    <g id="Notes" font-family="LucidaGrande, 'Lucida Grande', sans-serif" font-size="13">
        <rect fill="white" height="600.0" width="800.0" x="0.0" y="0.0" />
        <g font-size="13">
            <text x="18.0" y="176.0">Small</text>
            <text x="18.0" y="376.0">Medium</text>
            <text x="18.0" y="576.0">Large</text>
        </g>
        <g font-size="9">
            <text x="250.0" y="30.0">Ultralight</text>
            <text x="450.0" y="30.0">Regular</text>
            <text x="650.0" y="30.0">Black</text>
            <text id="template-version" fill="#505050" text-anchor="end" x="785.0" y="575.0">Template v.3.0</text>
            <a href="https://github.com/swhitty/SwiftDraw">
                <text fill="#505050" text-anchor="end" x="785.0" y="590.0">https://github.com/swhitty/SwiftDraw</text>
            </a>
        </g>
    </g>
    <g id="Guides" stroke="rgb(39, 170, 225)" stroke-width="0.5">
        <path id="Capline-S" d="M18,76 l800,0" />
        <path id="H-reference" d="M85,145.755 L87.685,145.755 L113.369,79.287 L114.052,79.287 L114.052,76 L112.148,76 L85,145.755 Z M95.693,121.536 L130.996,121.536 L130.263,119.313 L96.474,119.313 L95.693,121.536 Z M139.15,145.755 L141.787,145.755 L114.638,76 L113.466,76 L113.466,79.287 L139.15,145.755 Z" stroke="none" transform="translate(0,200)" />
        <path id="Baseline-S" d="M18,146 l800,0" />
        <path id="left-margin-Ultralight-M" d="M230,256 l0,110" />
        <path id="right-margin-Ultralight-M" d="M300,256 l0,110" />
        <path id="left-margin-Regular-M" d="M430,256 l0,110" />
        <path id="right-margin-Regular-M" d="M500,256 l0,110" />
        <path id="left-margin-Black-M" d="M630,256 l0,110" />
        <path id="right-margin-Black-M" d="M700,256 l0,110" />
        <path id="Capline-M" d="M18,276 l800,0" />
        <path id="Baseline-M" d="M18,346 l800,0" />
        <path id="Capline-L" d="M18,476 l800,0" />
        <path id="Baseline-L" d="M18,546 l800,0" />
    </g>
    <g id="Symbols">
        <g id="Ultralight-M" transform="translate(0,200)">
            <path d="M284.562,111.854 L264.146,91.438 C263.007,90.299 261.16,90.299 260.021,91.438 C258.882,92.577 258.882,94.423 260.021,95.562 L280.438,115.979 C281.577,117.118 283.423,117.118 284.562,115.979 C285.701,114.84 285.701,112.993 284.562,111.854 Z M291.25,134.333 L253.333,134.333 C251.723,134.333 250.417,135.639 250.417,137.25 C250.417,138.861 251.723,140.167 253.333,140.167 L291.25,140.167 C292.861,140.167 294.167,138.861 294.167,137.25 C294.167,135.639 292.861,134.333 291.25,134.333 Z M263.962,136.579 L289.244,111.295 C293.976,106.567 295.024,105.332 295.803,102.94 C296.564,100.595 296.564,98.072 295.803,95.729 C295.024,93.335 293.976,92.1 289.243,87.371 L288.633,86.758 C284.473,82.598 283.333,81.582 281.425,80.661 C281.046,80.478 280.662,80.323 280.27,80.196 C277.929,79.436 275.405,79.436 273.062,80.197 C272.668,80.324 272.281,80.48 271.898,80.666 C269.992,81.587 268.852,82.603 264.702,86.753 L240.753,110.705 C236.599,114.86 235.583,115.999 234.66,117.906 C234.477,118.285 234.322,118.668 234.195,119.06 C233.433,121.405 233.433,123.929 234.194,126.272 C234.973,128.665 236.023,129.902 240.754,134.629 L242.7,136.578 C244.136,138.014 244.551,138.392 245.345,138.877 C246.117,139.352 246.966,139.704 247.859,139.922 C248.778,140.142 249.313,140.167 251.365,140.167 L255.302,140.167 C257.351,140.167 257.886,140.142 258.789,139.926 C259.701,139.703 260.554,139.35 261.33,138.871 C262.114,138.394 262.52,138.023 263.962,136.576 L261.897,134.517 L261.902,137.434 L261.905,137.434 C262.677,137.432 263.416,137.125 263.962,136.579 Z M259.837,132.455 L261.9,134.517 L261.894,131.6 L261.891,131.6 C261.118,131.602 260.377,131.91 259.831,132.458 C258.773,133.519 258.513,133.756 258.28,133.898 C258.015,134.062 257.729,134.18 257.417,134.257 C257.162,134.318 256.815,134.333 255.302,134.333 L251.365,134.333 C249.849,134.333 249.501,134.318 249.231,134.253 C248.937,134.181 248.65,134.062 248.394,133.905 C248.153,133.757 247.885,133.513 246.827,132.455 L244.88,130.505 C240.971,126.599 240.102,125.576 239.741,124.468 C239.361,123.298 239.361,122.036 239.742,120.864 C239.786,120.728 239.842,120.59 239.912,120.446 C240.417,119.401 241.322,118.386 244.878,114.83 L268.827,90.878 C272.379,87.326 273.393,86.422 274.437,85.917 C274.582,85.847 274.722,85.791 274.861,85.746 C276.036,85.364 277.298,85.364 278.469,85.745 C278.609,85.79 278.746,85.845 278.89,85.915 C279.934,86.418 280.948,87.323 284.503,90.878 L285.114,91.492 C289.028,95.402 289.895,96.424 290.256,97.532 C290.636,98.702 290.636,99.964 290.255,101.136 C289.895,102.243 289.028,103.264 285.12,107.169 L259.837,132.455 Z" />
        </g>
        <g id="Regular-M" transform="translate(0,200)">
            <path d="M484.562,111.854 L464.146,91.438 C463.007,90.299 461.16,90.299 460.021,91.438 C458.882,92.577 458.882,94.423 460.021,95.562 L480.438,115.979 C481.577,117.118 483.423,117.118 484.562,115.979 C485.701,114.84 485.701,112.993 484.562,111.854 Z M491.25,134.333 L453.333,134.333 C451.723,134.333 450.417,135.639 450.417,137.25 C450.417,138.861 451.723,140.167 453.333,140.167 L491.25,140.167 C492.861,140.167 494.167,138.861 494.167,137.25 C494.167,135.639 492.861,134.333 491.25,134.333 Z M463.962,136.579 L489.244,111.295 C493.976,106.567 495.024,105.332 495.803,102.94 C496.564,100.595 496.564,98.072 495.803,95.729 C495.024,93.335 493.976,92.1 489.243,87.371 L488.633,86.758 C484.473,82.598 483.333,81.582 481.425,80.661 C481.046,80.478 480.662,80.323 480.27,80.196 C477.929,79.436 475.405,79.436 473.062,80.197 C472.668,80.324 472.281,80.48 471.898,80.666 C469.992,81.587 468.852,82.603 464.702,86.753 L440.753,110.705 C436.599,114.86 435.583,115.999 434.66,117.906 C434.477,118.285 434.322,118.668 434.195,119.06 C433.433,121.405 433.433,123.929 434.194,126.272 C434.973,128.665 436.023,129.902 440.754,134.629 L442.7,136.578 C444.136,138.014 444.551,138.392 445.345,138.877 C446.117,139.352 446.966,139.704 447.859,139.922 C448.778,140.142 449.313,140.167 451.365,140.167 L455.302,140.167 C457.351,140.167 457.886,140.142 458.789,139.926 C459.701,139.703 460.554,139.35 461.33,138.871 C462.114,138.394 462.52,138.023 463.962,136.576 L461.897,134.517 L461.902,137.434 L461.905,137.434 C462.677,137.432 463.416,137.125 463.962,136.579 Z M459.837,132.455 L461.9,134.517 L461.894,131.6 L461.891,131.6 C461.118,131.602 460.377,131.91 459.831,132.458 C458.773,133.519 458.513,133.756 458.28,133.898 C458.015,134.062 457.729,134.18 457.417,134.257 C457.162,134.318 456.815,134.333 455.302,134.333 L451.365,134.333 C449.849,134.333 449.501,134.318 449.231,134.253 C448.937,134.181 448.65,134.062 448.394,133.905 C448.153,133.757 447.885,133.513 446.827,132.455 L444.88,130.505 C440.971,126.599 440.102,125.576 439.741,124.468 C439.361,123.298 439.361,122.036 439.742,120.864 C439.786,120.728 439.842,120.59 439.912,120.446 C440.417,119.401 441.322,118.386 444.878,114.83 L468.827,90.878 C472.379,87.326 473.393,86.422 474.437,85.917 C474.582,85.847 474.722,85.791 474.861,85.746 C476.036,85.364 477.298,85.364 478.469,85.745 C478.609,85.79 478.746,85.845 478.89,85.915 C479.934,86.418 480.948,87.323 484.503,90.878 L485.114,91.492 C489.028,95.402 489.895,96.424 490.256,97.532 C490.636,98.702 490.636,99.964 490.255,101.136 C489.895,102.243 489.028,103.264 485.12,107.169 L459.837,132.455 Z" />
        </g>
        <g id="Black-M" transform="translate(0,200)">
            <path d="M684.562,111.854 L664.146,91.438 C663.007,90.299 661.16,90.299 660.021,91.438 C658.882,92.577 658.882,94.423 660.021,95.562 L680.438,115.979 C681.577,117.118 683.423,117.118 684.562,115.979 C685.701,114.84 685.701,112.993 684.562,111.854 Z M691.25,134.333 L653.333,134.333 C651.723,134.333 650.417,135.639 650.417,137.25 C650.417,138.861 651.723,140.167 653.333,140.167 L691.25,140.167 C692.861,140.167 694.167,138.861 694.167,137.25 C694.167,135.639 692.861,134.333 691.25,134.333 Z M663.962,136.579 L689.244,111.295 C693.976,106.567 695.024,105.332 695.803,102.94 C696.564,100.595 696.564,98.072 695.803,95.729 C695.024,93.335 693.976,92.1 689.243,87.371 L688.633,86.758 C684.473,82.598 683.333,81.582 681.425,80.661 C681.046,80.478 680.662,80.323 680.27,80.196 C677.929,79.436 675.405,79.436 673.062,80.197 C672.668,80.324 672.281,80.48 671.898,80.666 C669.992,81.587 668.852,82.603 664.702,86.753 L640.753,110.705 C636.599,114.86 635.583,115.999 634.66,117.906 C634.477,118.285 634.322,118.668 634.195,119.06 C633.433,121.405 633.433,123.929 634.194,126.272 C634.973,128.665 636.023,129.902 640.754,134.629 L642.7,136.578 C644.136,138.014 644.551,138.392 645.345,138.877 C646.117,139.352 646.966,139.704 647.859,139.922 C648.778,140.142 649.313,140.167 651.365,140.167 L655.302,140.167 C657.351,140.167 657.886,140.142 658.789,139.926 C659.701,139.703 660.554,139.35 661.33,138.871 C662.114,138.394 662.52,138.023 663.962,136.576 L661.897,134.517 L661.902,137.434 L661.905,137.434 C662.677,137.432 663.416,137.125 663.962,136.579 Z M659.837,132.455 L661.9,134.517 L661.894,131.6 L661.891,131.6 C661.118,131.602 660.377,131.91 659.831,132.458 C658.773,133.519 658.513,133.756 658.28,133.898 C658.015,134.062 657.729,134.18 657.417,134.257 C657.162,134.318 656.815,134.333 655.302,134.333 L651.365,134.333 C649.849,134.333 649.501,134.318 649.231,134.253 C648.937,134.181 648.65,134.062 648.394,133.905 C648.153,133.757 647.885,133.513 646.827,132.455 L644.88,130.505 C640.971,126.599 640.102,125.576 639.741,124.468 C639.361,123.298 639.361,122.036 639.742,120.864 C639.786,120.728 639.842,120.59 639.912,120.446 C640.417,119.401 641.322,118.386 644.878,114.83 L668.827,90.878 C672.379,87.326 673.393,86.422 674.437,85.917 C674.582,85.847 674.722,85.791 674.861,85.746 C676.036,85.364 677.298,85.364 678.469,85.745 C678.609,85.79 678.746,85.845 678.89,85.915 C679.934,86.418 680.948,87.323 684.503,90.878 L685.114,91.492 C689.028,95.402 689.895,96.424 690.256,97.532 C690.636,98.702 690.636,99.964 690.255,101.136 C689.895,102.243 689.028,103.264 685.12,107.169 L659.837,132.455 Z" />
        </g>
    </g>
</svg>