<?xml version="1.0" encoding="UTF-8"?>
<svg height="600" width="800" xmlns="http://www.w3.org/2000/svg" xmlns:xlink="http://www.w3.org/1999/xlink">
    <g id="Notes" font-family="LucidaGrande, 'Lucida Grande', sans-serif" font-size="13">
        <rect fill="white" height="600.0" width="800.0" x="0.0" y="0.0" />
        <g font-size="13">
            <text x="18.0" y="176.0">Small</text>
            <text x="18.0" y="376.0">Medium</text>
            <text x="18.0" y="576.0">Large</text>
        </g>
        <g font-size="9">
            <text x="250.0" y="30.0">Ultralight</text>
            <text x="450.0" y="30.0">Regular</text>
            <text x="650.0" y="30.0">Black</text>
            <text id="template-version" fill="#505050" text-anchor="end" x="785.0" y="575.0">Template v.3.0</text>
            <a href="https://github.com/swhitty/SwiftDraw">
                <text fill="#505050" text-anchor="end" x="785.0" y="590.0">https://github.com/swhitty/SwiftDraw</text>
            </a>
        </g>
    </g>
    <g id="Guides" stroke="rgb(39, 170, 225)" stroke-width="0.5">
        <path id="Capline-S" d="M18,76 l800,0" />
        <path id="H-reference" d="M85,145.755 L87.685,145.755 L113.369,79.287 L114.052,79.287 L114.052,76 L112.148,76 L85,145.755 Z M95.693,121.536 L130.996,121.536 L130.263,119.313 L96.474,119.313 L95.693,121.536 Z M139.15,145.755 L141.787,145.755 L114.638,76 L113.466,76 L113.466,79.287 L139.15,145.755 Z" stroke="none" transform="translate(0,200)" />
        <path id="Baseline-S" d="M18,146 l800,0" />
        <path id="left-margin-Ultralight-M" d="M230,256 l0,110" />
        <path id="right-margin-Ultralight-M" d="M300,256 l0,110" />
        <path id="left-margin-Regular-M" d="M430,256 l0,110" />
        <path id="right-margin-Regular-M" d="M500,256 l0,110" />
        <path id="left-margin-Black-M" d="M630,256 l0,110" />
        <path id="right-margin-Black-M" d="M700,256 l0,110" />
        <path id="Capline-M" d="M18,276 l800,0" />
        <path id="Baseline-M" d="M18,346 l800,0" />
        <path id="Capline-L" d="M18,476 l800,0" />
        <path id="Baseline-L" d="M18,546 l800,0" />
    </g>
    <g id="Symbols">
        <g id="Ultralight-M" transform="translate(0,200)">
            <path d="M255.702,119.75 L250.883,119.75 C244.875,119.75 243.44,119.83 241.403,120.502 C236.266,122.199 232.248,126.577 230.691,132.171 C230.074,134.392 230,135.955 230,142.5 C230,144.433 231.438,146 233.213,146 C234.987,146 236.425,144.433 236.425,142.5 C236.425,136.833 236.49,135.461 236.84,134.201 C237.774,130.846 240.185,128.219 243.266,127.201 C244.421,126.82 245.681,126.75 250.883,126.75 L255.702,126.75 C257.476,126.75 258.915,125.183 258.915,123.25 C258.915,121.317 257.476,119.75 255.702,119.75 Z M270.159,95.25 C270.159,102.015 265.125,107.5 258.915,107.5 C252.704,107.5 247.67,102.015 247.67,95.25 C247.67,88.485 252.704,83 258.915,83 C265.125,83 270.159,88.485 270.159,95.25 Z M276.585,95.25 C276.585,84.619 268.673,76 258.915,76 C249.156,76 241.245,84.619 241.245,95.25 C241.245,105.881 249.156,114.5 258.915,114.5 C268.673,114.5 276.585,105.881 276.585,95.25 Z M263.01,145.865 L272.973,142.764 C273.507,142.596 273.632,142.555 273.864,142.466 C274.113,142.366 274.211,142.323 274.38,142.238 C274.752,142.054 275.129,141.815 275.481,141.535 C275.857,141.233 276.039,141.046 276.595,140.435 L297.329,117.85 C299.6,115.456 300.524,111.857 299.709,108.472 C298.895,105.088 296.469,102.445 293.362,101.558 C290.256,100.67 286.951,101.677 284.718,104.191 L264.01,126.75 C263.737,127.023 263.407,127.41 263.104,127.822 C262.756,128.335 262.537,128.746 262.357,129.178 C262.126,129.78 261.973,130.286 261.856,130.803 L259.038,141.538 C258.346,144.179 260.586,146.62 263.01,145.865 Z M261.245,139.135 L265.216,143.462 L268.063,132.608 C268.133,132.31 268.186,132.133 268.251,131.961 C268.207,132.071 268.207,132.072 268.207,132.072 C268.225,132.054 268.343,131.915 268.471,131.786 L289.298,109.1 C289.954,108.362 290.871,108.083 291.733,108.329 C292.595,108.575 293.268,109.308 293.494,110.247 C293.72,111.186 293.463,112.185 292.823,112.86 L272.042,135.496 C271.736,135.832 271.67,135.9 271.683,135.889 C271.7,135.876 271.7,135.876 271.7,135.876 C271.7,135.876 271.72,135.867 271.721,135.867 C271.663,135.889 271.569,135.92 271.199,136.036 L261.245,139.135 Z" />
        </g>
        <g id="Regular-M" transform="translate(0,200)">
            <path d="M455.702,119.75 L450.883,119.75 C444.875,119.75 443.44,119.83 441.403,120.502 C436.266,122.199 432.248,126.577 430.691,132.171 C430.074,134.392 430,135.955 430,142.5 C430,144.433 431.438,146 433.213,146 C434.987,146 436.425,144.433 436.425,142.5 C436.425,136.833 436.49,135.461 436.84,134.201 C437.774,130.846 440.185,128.219 443.266,127.201 C444.421,126.82 445.681,126.75 450.883,126.75 L455.702,126.75 C457.476,126.75 458.915,125.183 458.915,123.25 C458.915,121.317 457.476,119.75 455.702,119.75 Z M470.159,95.25 C470.159,102.015 465.125,107.5 458.915,107.5 C452.704,107.5 447.67,102.015 447.67,95.25 C447.67,88.485 452.704,83 458.915,83 C465.125,83 470.159,88.485 470.159,95.25 Z M476.585,95.25 C476.585,84.619 468.673,76 458.915,76 C449.156,76 441.245,84.619 441.245,95.25 C441.245,105.881 449.156,114.5 458.915,114.5 C468.673,114.5 476.585,105.881 476.585,95.25 Z M463.01,145.865 L472.973,142.764 C473.507,142.596 473.632,142.555 473.864,142.466 C474.113,142.366 474.211,142.323 474.38,142.238 C474.752,142.054 475.129,141.815 475.481,141.535 C475.857,141.233 476.039,141.046 476.595,140.435 L497.329,117.85 C499.6,115.456 500.524,111.857 499.709,108.472 C498.895,105.088 496.469,102.445 493.362,101.558 C490.256,100.67 486.951,101.677 484.718,104.191 L464.01,126.75 C463.737,127.023 463.407,127.41 463.104,127.822 C462.756,128.335 462.537,128.746 462.357,129.178 C462.126,129.78 461.973,130.286 461.856,130.803 L459.038,141.538 C458.346,144.179 460.586,146.62 463.01,145.865 Z M461.245,139.135 L465.216,143.462 L468.063,132.608 C468.133,132.31 468.186,132.133 468.251,131.961 C468.207,132.071 468.207,132.072 468.207,132.072 C468.225,132.054 468.343,131.915 468.471,131.786 L489.298,109.1 C489.954,108.362 490.871,108.083 491.733,108.329 C492.595,108.575 493.268,109.308 493.494,110.247 C493.72,111.186 493.463,112.185 492.823,112.86 L472.042,135.496 C471.736,135.832 471.67,135.9 471.683,135.889 C471.7,135.876 471.7,135.876 471.7,135.876 C471.7,135.876 471.72,135.867 471.721,135.867 C471.663,135.889 471.569,135.92 471.199,136.036 L461.245,139.135 Z" />
        </g>
        <g id="Black-M" transform="translate(0,200)">
            <path d="M655.702,119.75 L650.883,119.75 C644.875,119.75 643.44,119.83 641.403,120.502 C636.266,122.199 632.248,126.577 630.691,132.171 C630.073,134.392 630,135.955 630,142.5 C630,144.433 631.438,146 633.213,146 C634.987,146 636.425,144.433 636.425,142.5 C636.425,136.833 636.49,135.461 636.84,134.201 C637.774,130.846 640.185,128.219 643.266,127.201 C644.421,126.82 645.681,126.75 650.883,126.75 L655.702,126.75 C657.476,126.75 658.915,125.183 658.915,123.25 C658.915,121.317 657.476,119.75 655.702,119.75 Z M670.159,95.25 C670.159,102.015 665.125,107.5 658.915,107.5 C652.704,107.5 647.67,102.015 647.67,95.25 C647.67,88.485 652.704,83 658.915,83 C665.125,83 670.159,88.485 670.159,95.25 Z M676.585,95.25 C676.585,84.619 668.673,76 658.915,76 C649.156,76 641.245,84.619 641.245,95.25 C641.245,105.881 649.156,114.5 658.915,114.5 C668.673,114.5 676.585,105.881 676.585,95.25 Z M663.01,145.865 L672.973,142.764 C673.507,142.596 673.632,142.555 673.864,142.466 C674.113,142.366 674.211,142.323 674.38,142.238 C674.752,142.054 675.129,141.815 675.481,141.535 C675.857,141.233 676.039,141.046 676.595,140.435 L697.329,117.85 C699.6,115.456 700.524,111.857 699.709,108.472 C698.895,105.088 696.469,102.445 693.362,101.558 C690.256,100.67 686.951,101.677 684.718,104.191 L664.01,126.75 C663.737,127.023 663.407,127.41 663.104,127.822 C662.756,128.335 662.537,128.746 662.357,129.178 C662.126,129.78 661.973,130.286 661.856,130.803 L659.038,141.538 C658.346,144.179 660.586,146.62 663.01,145.865 Z M661.245,139.135 L665.216,143.462 L668.063,132.608 C668.133,132.31 668.186,132.133 668.251,131.961 C668.208,132.071 668.207,132.072 668.207,132.072 C668.225,132.054 668.343,131.915 668.471,131.786 L689.298,109.1 C689.954,108.362 690.871,108.083 691.733,108.329 C692.595,108.575 693.268,109.308 693.494,110.247 C693.72,111.186 693.463,112.185 692.823,112.86 L672.042,135.496 C671.736,135.832 671.67,135.9 671.683,135.889 C671.7,135.876 671.7,135.876 671.7,135.876 C671.7,135.876 671.72,135.867 671.721,135.867 C671.663,135.889 671.569,135.92 671.199,136.036 L661.245,139.135 Z" />
        </g>
    </g>
</svg>