<?xml version="1.0" encoding="UTF-8"?>
<svg height="600" width="800" xmlns="http://www.w3.org/2000/svg" xmlns:xlink="http://www.w3.org/1999/xlink">
    <g id="Notes" font-family="LucidaGrande, 'Lucida Grande', sans-serif" font-size="13">
        <rect fill="white" height="600.0" width="800.0" x="0.0" y="0.0" />
        <g font-size="13">
            <text x="18.0" y="176.0">Small</text>
            <text x="18.0" y="376.0">Medium</text>
            <text x="18.0" y="576.0">Large</text>
        </g>
        <g font-size="9">
            <text x="250.0" y="30.0">Ultralight</text>
            <text x="450.0" y="30.0">Regular</text>
            <text x="650.0" y="30.0">Black</text>
            <text id="template-version" fill="#505050" text-anchor="end" x="785.0" y="575.0">Template v.3.0</text>
            <a href="https://github.com/swhitty/SwiftDraw">
                <text fill="#505050" text-anchor="end" x="785.0" y="590.0">https://github.com/swhitty/SwiftDraw</text>
            </a>
        </g>
    </g>
    <g id="Guides" stroke="rgb(39, 170, 225)" stroke-width="0.5">
        <path id="Capline-S" d="M18,76 l800,0" />
        <path id="H-reference" d="M85,145.755 L87.685,145.755 L113.369,79.287 L114.052,79.287 L114.052,76 L112.148,76 L85,145.755 Z M95.693,121.536 L130.996,121.536 L130.263,119.313 L96.474,119.313 L95.693,121.536 Z M139.15,145.755 L141.787,145.755 L114.638,76 L113.466,76 L113.466,79.287 L139.15,145.755 Z" stroke="none" transform="translate(0,200)" />
        <path id="Baseline-S" d="M18,146 l800,0" />
        <path id="left-margin-Ultralight-M" d="M230,256 l0,110" />
        <path id="right-margin-Ultralight-M" d="M300,256 l0,110" />
        <path id="left-margin-Regular-M" d="M430,256 l0,110" />
        <path id="right-margin-Regular-M" d="M500,256 l0,110" />
        <path id="left-margin-Black-M" d="M630,256 l0,110" />
        <path id="right-margin-Black-M" d="M700,256 l0,110" />
        <path id="Capline-M" d="M18,276 l800,0" />
        <path id="Baseline-M" d="M18,346 l800,0" />
        <path id="Capline-L" d="M18,476 l800,0" />
        <path id="Baseline-L" d="M18,546 l800,0" />
    </g>
    <g id="Symbols">
        <g id="Ultralight-M" transform="translate(0,200)">
            <path d="M277.761,82.472 L263.178,94.139 L266.822,94.139 L252.239,82.472 C250.981,81.466 249.145,81.67 248.139,82.928 C247.133,84.186 247.337,86.021 248.595,87.028 L263.178,98.694 C264.243,99.546 265.757,99.546 266.822,98.694 L281.405,87.028 C282.663,86.021 282.867,84.186 281.861,82.928 C280.855,81.67 279.019,81.466 277.761,82.472 Z M249.833,140.167 L280.167,140.167 C286.878,140.167 288.473,140.036 290.713,138.895 C292.908,137.776 294.693,135.992 295.812,133.797 C296.953,131.556 297.083,129.961 297.083,123.25 L297.083,110.417 C297.083,103.706 296.953,102.111 295.812,99.87 C294.693,97.675 292.908,95.89 290.713,94.772 C288.473,93.63 286.878,93.5 280.167,93.5 L249.833,93.5 C243.122,93.5 241.527,93.63 239.287,94.771 C237.092,95.89 235.307,97.675 234.188,99.87 C233.047,102.111 232.917,103.706 232.917,110.417 L232.917,123.25 C232.917,129.961 233.047,131.556 234.188,133.796 C235.307,135.992 237.092,137.777 239.287,138.895 C241.527,140.036 243.122,140.167 249.833,140.167 Z M249.833,134.333 C244.294,134.333 242.971,134.225 241.935,133.697 C240.837,133.138 239.945,132.246 239.386,131.148 C238.858,130.112 238.75,128.789 238.75,123.25 L238.75,110.417 C238.75,104.878 238.858,103.554 239.386,102.518 C239.945,101.421 240.837,100.528 241.935,99.969 C242.971,99.441 244.294,99.333 249.833,99.333 L280.167,99.333 C285.706,99.333 287.029,99.441 288.065,99.969 C289.163,100.528 290.055,101.421 290.614,102.518 C291.142,103.554 291.25,104.878 291.25,110.417 L291.25,123.25 C291.25,128.789 291.142,130.112 290.614,131.149 C290.055,132.246 289.163,133.138 288.065,133.698 C287.029,134.225 285.706,134.333 280.167,134.333 L249.833,134.333 Z" />
        </g>
        <g id="Regular-M" transform="translate(0,200)">
            <path d="M477.761,82.472 L463.178,94.139 L466.822,94.139 L452.239,82.472 C450.981,81.466 449.145,81.67 448.139,82.928 C447.133,84.186 447.337,86.021 448.595,87.028 L463.178,98.694 C464.243,99.546 465.757,99.546 466.822,98.694 L481.405,87.028 C482.663,86.021 482.867,84.186 481.861,82.928 C480.855,81.67 479.019,81.466 477.761,82.472 Z M449.833,140.167 L480.167,140.167 C486.878,140.167 488.473,140.036 490.713,138.895 C492.908,137.776 494.693,135.992 495.812,133.797 C496.953,131.556 497.083,129.961 497.083,123.25 L497.083,110.417 C497.083,103.706 496.953,102.111 495.812,99.87 C494.693,97.675 492.908,95.89 490.713,94.772 C488.473,93.63 486.878,93.5 480.167,93.5 L449.833,93.5 C443.122,93.5 441.527,93.63 439.287,94.771 C437.092,95.89 435.307,97.675 434.188,99.87 C433.047,102.111 432.917,103.706 432.917,110.417 L432.917,123.25 C432.917,129.961 433.047,131.556 434.188,133.796 C435.307,135.992 437.092,137.777 439.287,138.895 C441.527,140.036 443.122,140.167 449.833,140.167 Z M449.833,134.333 C444.294,134.333 442.971,134.225 441.935,133.697 C440.837,133.138 439.945,132.246 439.386,131.148 C438.858,130.112 438.75,128.789 438.75,123.25 L438.75,110.417 C438.75,104.878 438.858,103.554 439.386,102.518 C439.945,101.421 440.837,100.528 441.935,99.969 C442.971,99.441 444.294,99.333 449.833,99.333 L480.167,99.333 C485.706,99.333 487.029,99.441 488.065,99.969 C489.163,100.528 490.055,101.421 490.614,102.518 C491.142,103.554 491.25,104.878 491.25,110.417 L491.25,123.25 C491.25,128.789 491.142,130.112 490.614,131.149 C490.055,132.246 489.163,133.138 488.065,133.698 C487.029,134.225 485.706,134.333 480.167,134.333 L449.833,134.333 Z" />
        </g>
        <g id="Black-M" transform="translate(0,200)">
            <path d="M677.761,82.472 L663.178,94.139 L666.822,94.139 L652.239,82.472 C650.981,81.466 649.145,81.67 648.139,82.928 C647.133,84.186 647.337,86.021 648.595,87.028 L663.178,98.694 C664.243,99.546 665.757,99.546 666.822,98.694 L681.405,87.028 C682.663,86.021 682.867,84.186 681.861,82.928 C680.855,81.67 679.019,81.466 677.761,82.472 Z M649.833,140.167 L680.167,140.167 C686.878,140.167 688.473,140.036 690.713,138.895 C692.908,137.776 694.693,135.992 695.812,133.797 C696.953,131.556 697.083,129.961 697.083,123.25 L697.083,110.417 C697.083,103.706 696.953,102.111 695.812,99.87 C694.693,97.675 692.908,95.89 690.713,94.772 C688.473,93.63 686.878,93.5 680.167,93.5 L649.833,93.5 C643.122,93.5 641.527,93.63 639.287,94.771 C637.092,95.89 635.307,97.675 634.188,99.87 C633.047,102.111 632.917,103.706 632.917,110.417 L632.917,123.25 C632.917,129.961 633.047,131.556 634.188,133.796 C635.307,135.992 637.092,137.777 639.287,138.895 C641.527,140.036 643.122,140.167 649.833,140.167 Z M649.833,134.333 C644.294,134.333 642.971,134.225 641.935,133.697 C640.837,133.138 639.945,132.246 639.386,131.148 C638.858,130.112 638.75,128.789 638.75,123.25 L638.75,110.417 C638.75,104.878 638.858,103.554 639.386,102.518 C639.945,101.421 640.837,100.528 641.935,99.969 C642.971,99.441 644.294,99.333 649.833,99.333 L680.167,99.333 C685.706,99.333 687.029,99.441 688.065,99.969 C689.163,100.528 690.055,101.421 690.614,102.518 C691.142,103.554 691.25,104.878 691.25,110.417 L691.25,123.25 C691.25,128.789 691.142,130.112 690.614,131.149 C690.055,132.246 689.163,133.138 688.065,133.698 C687.029,134.225 685.706,134.333 680.167,134.333 L649.833,134.333 Z" />
        </g>
    </g>
</svg>