<?xml version="1.0" encoding="UTF-8"?>
<svg height="600" width="800" xmlns="http://www.w3.org/2000/svg" xmlns:xlink="http://www.w3.org/1999/xlink">
    <g id="Notes" font-family="LucidaGrande, 'Lucida Grande', sans-serif" font-size="13">
        <rect fill="white" height="600.0" width="800.0" x="0.0" y="0.0" />
        <g font-size="13">
            <text x="18.0" y="176.0">Small</text>
            <text x="18.0" y="376.0">Medium</text>
            <text x="18.0" y="576.0">Large</text>
        </g>
        <g font-size="9">
            <text x="250.0" y="30.0">Ultralight</text>
            <text x="450.0" y="30.0">Regular</text>
            <text x="650.0" y="30.0">Black</text>
            <text id="template-version" fill="#505050" text-anchor="end" x="785.0" y="575.0">Template v.3.0</text>
            <a href="https://github.com/swhitty/SwiftDraw">
                <text fill="#505050" text-anchor="end" x="785.0" y="590.0">https://github.com/swhitty/SwiftDraw</text>
            </a>
        </g>
    </g>
    <g id="Guides" stroke="rgb(39, 170, 225)" stroke-width="0.5">
        <path id="Capline-S" d="M18,76 l800,0" />
        <path id="H-reference" d="M85,145.755 L87.685,145.755 L113.369,79.287 L114.052,79.287 L114.052,76 L112.148,76 L85,145.755 Z M95.693,121.536 L130.996,121.536 L130.263,119.313 L96.474,119.313 L95.693,121.536 Z M139.15,145.755 L141.787,145.755 L114.638,76 L113.466,76 L113.466,79.287 L139.15,145.755 Z" stroke="none" transform="translate(0,200)" />
        <path id="Baseline-S" d="M18,146 l800,0" />
        <path id="left-margin-Ultralight-M" d="M230,256 l0,110" />
        <path id="right-margin-Ultralight-M" d="M300,256 l0,110" />
        <path id="left-margin-Regular-M" d="M430,256 l0,110" />
        <path id="right-margin-Regular-M" d="M500,256 l0,110" />
        <path id="left-margin-Black-M" d="M630,256 l0,110" />
        <path id="right-margin-Black-M" d="M700,256 l0,110" />
        <path id="Capline-M" d="M18,276 l800,0" />
        <path id="Baseline-M" d="M18,346 l800,0" />
        <path id="Capline-L" d="M18,476 l800,0" />
        <path id="Baseline-L" d="M18,546 l800,0" />
    </g>
    <g id="Symbols">
        <g id="Ultralight-M" transform="translate(0,200)">
            <path d="M258.601,93.512 L240.42,125.331 C239.548,126.856 240.078,128.8 241.604,129.672 C243.129,130.544 245.073,130.013 245.945,128.488 L264.126,96.669 C264.998,95.144 264.467,93.2 262.942,92.328 C261.416,91.456 259.472,91.987 258.601,93.512 Z M245.909,136.455 L284.091,136.455 C285.848,136.455 287.273,135.03 287.273,133.273 C287.273,131.515 285.848,130.091 284.091,130.091 L245.909,130.091 C244.152,130.091 242.727,131.515 242.727,133.273 C242.727,135.03 244.152,136.455 245.909,136.455 Z M289.58,125.331 L271.399,93.512 C270.528,91.987 268.584,91.456 267.058,92.328 C265.533,93.2 265.002,95.144 265.874,96.669 L284.055,128.488 C284.927,130.013 286.871,130.544 288.396,129.672 C289.922,128.8 290.452,126.856 289.58,125.331 Z M238.273,142.818 L240.818,142.818 C243.685,142.818 244.363,142.763 245.616,142.125 C246.814,141.514 247.787,140.541 248.397,139.344 C249.035,138.091 249.091,137.412 249.091,134.545 L249.091,132 C249.091,129.133 249.035,128.455 248.398,127.202 C247.787,126.004 246.814,125.031 245.616,124.421 C244.363,123.783 243.685,123.727 240.818,123.727 L238.273,123.727 C235.406,123.727 234.727,123.783 233.475,124.421 C232.277,125.031 231.304,126.004 230.694,127.202 C230.055,128.455 230,129.133 230,132 L230,134.545 C230,137.412 230.055,138.091 230.693,139.343 C231.304,140.541 232.277,141.514 233.475,142.125 C234.727,142.763 235.406,142.818 238.273,142.818 Z M238.273,136.455 C236.685,136.455 236.302,136.423 236.363,136.454 C236.364,136.455 236.364,136.455 236.364,136.455 C236.395,136.516 236.364,136.133 236.364,134.545 L236.364,132 C236.364,130.412 236.395,130.03 236.364,130.09 C236.364,130.091 236.364,130.091 236.364,130.091 C236.302,130.122 236.685,130.091 238.273,130.091 L240.818,130.091 C242.406,130.091 242.789,130.122 242.728,130.091 C242.727,130.091 242.727,130.091 242.727,130.091 C242.696,130.03 242.727,130.412 242.727,132 L242.727,134.545 C242.727,136.133 242.696,136.516 242.727,136.455 C242.727,136.455 242.727,136.455 242.727,136.455 C242.789,136.423 242.406,136.455 240.818,136.455 L238.273,136.455 Z M289.182,142.818 L291.727,142.818 C294.594,142.818 295.273,142.763 296.525,142.125 C297.723,141.514 298.696,140.541 299.306,139.344 C299.945,138.091 300,137.412 300,134.545 L300,132 C300,129.133 299.945,128.455 299.307,127.202 C298.696,126.004 297.723,125.031 296.525,124.421 C295.273,123.783 294.594,123.727 291.727,123.727 L289.182,123.727 C286.315,123.727 285.637,123.783 284.384,124.421 C283.186,125.031 282.213,126.004 281.603,127.202 C280.965,128.455 280.909,129.133 280.909,132 L280.909,134.545 C280.909,137.412 280.965,138.091 281.602,139.343 C282.213,140.541 283.186,141.514 284.384,142.125 C285.637,142.763 286.315,142.818 289.182,142.818 Z M289.182,136.455 C287.594,136.455 287.211,136.423 287.272,136.454 C287.273,136.455 287.273,136.455 287.273,136.455 C287.304,136.516 287.273,136.133 287.273,134.545 L287.273,132 C287.273,130.412 287.304,130.03 287.273,130.09 C287.273,130.091 287.273,130.091 287.273,130.091 C287.211,130.122 287.594,130.091 289.182,130.091 L291.727,130.091 C293.315,130.091 293.698,130.122 293.637,130.091 C293.636,130.091 293.636,130.091 293.636,130.091 C293.605,130.03 293.636,130.412 293.636,132 L293.636,134.545 C293.636,136.133 293.605,136.516 293.636,136.455 C293.636,136.455 293.636,136.455 293.636,136.455 C293.698,136.423 293.315,136.455 291.727,136.455 L289.182,136.455 Z M263.727,98.273 L266.273,98.273 C269.139,98.273 269.818,98.217 271.07,97.579 C272.268,96.969 273.242,95.996 273.852,94.798 C274.49,93.545 274.545,92.867 274.545,90 L274.545,87.455 C274.545,84.588 274.49,83.909 273.852,82.657 C273.242,81.459 272.268,80.486 271.071,79.875 C269.818,79.237 269.139,79.182 266.273,79.182 L263.727,79.182 C260.861,79.182 260.182,79.237 258.93,79.875 C257.732,80.486 256.758,81.459 256.148,82.656 C255.51,83.909 255.455,84.588 255.455,87.455 L255.455,90 C255.455,92.867 255.51,93.545 256.148,94.798 C256.758,95.996 257.732,96.969 258.929,97.579 C260.182,98.217 260.861,98.273 263.727,98.273 Z M263.727,91.909 C262.139,91.909 261.757,91.878 261.818,91.909 C261.818,91.909 261.818,91.909 261.818,91.909 C261.849,91.97 261.818,91.588 261.818,90 L261.818,87.455 C261.818,85.867 261.849,85.484 261.818,85.545 C261.818,85.545 261.818,85.545 261.818,85.545 C261.757,85.577 262.139,85.545 263.727,85.545 L266.273,85.545 C267.861,85.545 268.243,85.577 268.182,85.546 C268.182,85.545 268.182,85.545 268.182,85.545 C268.151,85.484 268.182,85.867 268.182,87.455 L268.182,90 C268.182,91.588 268.151,91.97 268.182,91.91 C268.182,91.909 268.182,91.909 268.182,91.909 C268.243,91.878 267.861,91.909 266.273,91.909 L263.727,91.909 Z" />
        </g>
        <g id="Regular-M" transform="translate(0,200)">
            <path d="M458.601,93.512 L440.42,125.331 C439.548,126.856 440.078,128.8 441.604,129.672 C443.129,130.544 445.073,130.013 445.945,128.488 L464.126,96.669 C464.998,95.144 464.467,93.2 462.942,92.328 C461.416,91.456 459.472,91.987 458.601,93.512 Z M445.909,136.455 L484.091,136.455 C485.848,136.455 487.273,135.03 487.273,133.273 C487.273,131.515 485.848,130.091 484.091,130.091 L445.909,130.091 C444.152,130.091 442.727,131.515 442.727,133.273 C442.727,135.03 444.152,136.455 445.909,136.455 Z M489.58,125.331 L471.399,93.512 C470.528,91.987 468.584,91.456 467.058,92.328 C465.533,93.2 465.002,95.144 465.874,96.669 L484.055,128.488 C484.927,130.013 486.871,130.544 488.396,129.672 C489.922,128.8 490.452,126.856 489.58,125.331 Z M438.273,142.818 L440.818,142.818 C443.685,142.818 444.363,142.763 445.616,142.125 C446.814,141.514 447.787,140.541 448.397,139.344 C449.035,138.091 449.091,137.412 449.091,134.545 L449.091,132 C449.091,129.133 449.035,128.455 448.397,127.202 C447.787,126.004 446.814,125.031 445.616,124.421 C444.363,123.783 443.685,123.727 440.818,123.727 L438.273,123.727 C435.406,123.727 434.727,123.783 433.475,124.421 C432.277,125.031 431.304,126.004 430.694,127.202 C430.055,128.455 430,129.133 430,132 L430,134.545 C430,137.412 430.055,138.091 430.693,139.343 C431.304,140.541 432.277,141.514 433.475,142.125 C434.727,142.763 435.406,142.818 438.273,142.818 Z M438.273,136.455 C436.685,136.455 436.302,136.423 436.363,136.454 C436.364,136.455 436.364,136.455 436.364,136.455 C436.395,136.516 436.364,136.133 436.364,134.545 L436.364,132 C436.364,130.412 436.395,130.03 436.364,130.09 C436.364,130.091 436.364,130.091 436.364,130.091 C436.302,130.122 436.685,130.091 438.273,130.091 L440.818,130.091 C442.406,130.091 442.789,130.122 442.728,130.091 C442.727,130.091 442.727,130.091 442.727,130.091 C442.696,130.03 442.727,130.412 442.727,132 L442.727,134.545 C442.727,136.133 442.696,136.516 442.727,136.455 C442.727,136.455 442.727,136.455 442.727,136.455 C442.789,136.423 442.406,136.455 440.818,136.455 L438.273,136.455 Z M489.182,142.818 L491.727,142.818 C494.594,142.818 495.273,142.763 496.525,142.125 C497.723,141.514 498.696,140.541 499.306,139.344 C499.945,138.091 500,137.412 500,134.545 L500,132 C500,129.133 499.945,128.455 499.307,127.202 C498.696,126.004 497.723,125.031 496.525,124.421 C495.273,123.783 494.594,123.727 491.727,123.727 L489.182,123.727 C486.315,123.727 485.637,123.783 484.384,124.421 C483.186,125.031 482.213,126.004 481.603,127.202 C480.965,128.455 480.909,129.133 480.909,132 L480.909,134.545 C480.909,137.412 480.965,138.091 481.602,139.343 C482.213,140.541 483.186,141.514 484.384,142.125 C485.637,142.763 486.315,142.818 489.182,142.818 Z M489.182,136.455 C487.594,136.455 487.211,136.423 487.272,136.454 C487.273,136.455 487.273,136.455 487.273,136.455 C487.304,136.516 487.273,136.133 487.273,134.545 L487.273,132 C487.273,130.412 487.304,130.03 487.273,130.09 C487.273,130.091 487.273,130.091 487.273,130.091 C487.211,130.122 487.594,130.091 489.182,130.091 L491.727,130.091 C493.315,130.091 493.698,130.122 493.637,130.091 C493.636,130.091 493.636,130.091 493.636,130.091 C493.605,130.03 493.636,130.412 493.636,132 L493.636,134.545 C493.636,136.133 493.605,136.516 493.636,136.455 C493.636,136.455 493.636,136.455 493.636,136.455 C493.698,136.423 493.315,136.455 491.727,136.455 L489.182,136.455 Z M463.727,98.273 L466.273,98.273 C469.139,98.273 469.818,98.217 471.07,97.579 C472.268,96.969 473.242,95.996 473.852,94.798 C474.49,93.545 474.545,92.867 474.545,90 L474.545,87.455 C474.545,84.588 474.49,83.909 473.852,82.657 C473.242,81.459 472.268,80.486 471.071,79.875 C469.818,79.237 469.139,79.182 466.273,79.182 L463.727,79.182 C460.861,79.182 460.182,79.237 458.93,79.875 C457.732,80.486 456.758,81.459 456.148,82.656 C455.51,83.909 455.455,84.588 455.455,87.455 L455.455,90 C455.455,92.867 455.51,93.545 456.148,94.798 C456.758,95.996 457.732,96.969 458.929,97.579 C460.182,98.217 460.861,98.273 463.727,98.273 Z M463.727,91.909 C462.139,91.909 461.757,91.878 461.818,91.909 C461.818,91.909 461.818,91.909 461.818,91.909 C461.849,91.97 461.818,91.588 461.818,90 L461.818,87.455 C461.818,85.867 461.849,85.484 461.818,85.545 C461.818,85.545 461.818,85.545 461.818,85.545 C461.757,85.577 462.139,85.545 463.727,85.545 L466.273,85.545 C467.861,85.545 468.243,85.577 468.182,85.546 C468.182,85.545 468.182,85.545 468.182,85.545 C468.151,85.484 468.182,85.867 468.182,87.455 L468.182,90 C468.182,91.588 468.151,91.97 468.182,91.91 C468.182,91.909 468.182,91.909 468.182,91.909 C468.243,91.878 467.861,91.909 466.273,91.909 L463.727,91.909 Z" />
        </g>
        <g id="Black-M" transform="translate(0,200)">
            <path d="M658.601,93.512 L640.42,125.331 C639.548,126.856 640.078,128.8 641.604,129.672 C643.129,130.544 645.073,130.013 645.945,128.488 L664.126,96.669 C664.998,95.144 664.468,93.2 662.942,92.328 C661.416,91.456 659.472,91.987 658.601,93.512 Z M645.909,136.455 L684.091,136.455 C685.848,136.455 687.273,135.03 687.273,133.273 C687.273,131.515 685.848,130.091 684.091,130.091 L645.909,130.091 C644.152,130.091 642.727,131.515 642.727,133.273 C642.727,135.03 644.152,136.455 645.909,136.455 Z M689.58,125.331 L671.399,93.512 C670.528,91.987 668.584,91.456 667.058,92.328 C665.532,93.2 665.002,95.144 665.874,96.669 L684.055,128.488 C684.927,130.013 686.871,130.544 688.396,129.672 C689.922,128.8 690.452,126.856 689.58,125.331 Z M638.273,142.818 L640.818,142.818 C643.685,142.818 644.363,142.763 645.616,142.125 C646.814,141.514 647.787,140.541 648.397,139.344 C649.035,138.091 649.091,137.412 649.091,134.545 L649.091,132 C649.091,129.133 649.035,128.455 648.398,127.202 C647.787,126.004 646.814,125.031 645.616,124.421 C644.363,123.783 643.685,123.727 640.818,123.727 L638.273,123.727 C635.406,123.727 634.727,123.783 633.475,124.421 C632.277,125.031 631.304,126.004 630.694,127.202 C630.055,128.455 630,129.133 630,132 L630,134.545 C630,137.412 630.055,138.091 630.693,139.343 C631.304,140.541 632.277,141.514 633.475,142.125 C634.727,142.763 635.406,142.818 638.273,142.818 Z M638.273,136.455 C636.685,136.455 636.302,136.423 636.363,136.454 C636.364,136.455 636.364,136.455 636.364,136.455 C636.395,136.516 636.364,136.133 636.364,134.545 L636.364,132 C636.364,130.412 636.395,130.03 636.364,130.09 C636.364,130.091 636.364,130.091 636.364,130.091 C636.302,130.122 636.685,130.091 638.273,130.091 L640.818,130.091 C642.406,130.091 642.789,130.122 642.728,130.091 C642.727,130.091 642.727,130.091 642.727,130.091 C642.696,130.03 642.727,130.412 642.727,132 L642.727,134.545 C642.727,136.133 642.696,136.516 642.727,136.455 C642.727,136.455 642.727,136.455 642.727,136.455 C642.789,136.423 642.406,136.455 640.818,136.455 L638.273,136.455 Z M689.182,142.818 L691.727,142.818 C694.594,142.818 695.273,142.763 696.525,142.125 C697.723,141.514 698.696,140.541 699.306,139.344 C699.945,138.091 700,137.412 700,134.545 L700,132 C700,129.133 699.945,128.455 699.307,127.202 C698.696,126.004 697.723,125.031 696.525,124.421 C695.273,123.783 694.594,123.727 691.727,123.727 L689.182,123.727 C686.315,123.727 685.637,123.783 684.384,124.421 C683.186,125.031 682.213,126.004 681.603,127.202 C680.965,128.455 680.909,129.133 680.909,132 L680.909,134.545 C680.909,137.412 680.965,138.091 681.602,139.343 C682.213,140.541 683.186,141.514 684.384,142.125 C685.637,142.763 686.315,142.818 689.182,142.818 Z M689.182,136.455 C687.594,136.455 687.211,136.423 687.272,136.454 C687.273,136.455 687.273,136.455 687.273,136.455 C687.304,136.516 687.273,136.133 687.273,134.545 L687.273,132 C687.273,130.412 687.304,130.03 687.273,130.09 C687.273,130.091 687.273,130.091 687.273,130.091 C687.211,130.122 687.594,130.091 689.182,130.091 L691.727,130.091 C693.315,130.091 693.698,130.122 693.637,130.091 C693.636,130.091 693.636,130.091 693.636,130.091 C693.605,130.03 693.636,130.412 693.636,132 L693.636,134.545 C693.636,136.133 693.605,136.516 693.636,136.455 C693.636,136.455 693.636,136.455 693.636,136.455 C693.698,136.423 693.315,136.455 691.727,136.455 L689.182,136.455 Z M663.727,98.273 L666.273,98.273 C669.139,98.273 669.818,98.217 671.07,97.579 C672.268,96.969 673.242,95.996 673.852,94.798 C674.49,93.545 674.545,92.867 674.545,90 L674.545,87.455 C674.545,84.588 674.49,83.909 673.852,82.657 C673.242,81.459 672.268,80.486 671.071,79.875 C669.818,79.237 669.139,79.182 666.273,79.182 L663.727,79.182 C660.861,79.182 660.182,79.237 658.93,79.875 C657.732,80.486 656.758,81.459 656.148,82.656 C655.51,83.909 655.455,84.588 655.455,87.455 L655.455,90 C655.455,92.867 655.51,93.545 656.148,94.798 C656.758,95.996 657.732,96.969 658.929,97.579 C660.182,98.217 660.861,98.273 663.727,98.273 Z M663.727,91.909 C662.139,91.909 661.757,91.878 661.818,91.909 C661.818,91.909 661.818,91.909 661.818,91.909 C661.849,91.97 661.818,91.588 661.818,90 L661.818,87.455 C661.818,85.867 661.849,85.484 661.818,85.545 C661.818,85.545 661.818,85.545 661.818,85.545 C661.757,85.577 662.139,85.545 663.727,85.545 L666.273,85.545 C667.861,85.545 668.243,85.577 668.182,85.546 C668.182,85.545 668.182,85.545 668.182,85.545 C668.151,85.484 668.182,85.867 668.182,87.455 L668.182,90 C668.182,91.588 668.151,91.97 668.182,91.91 C668.182,91.909 668.182,91.909 668.182,91.909 C668.243,91.878 667.861,91.909 666.273,91.909 L663.727,91.909 Z" />
        </g>
    </g>
</svg>