<?xml version="1.0" encoding="UTF-8"?>
<svg height="600" width="800" xmlns="http://www.w3.org/2000/svg" xmlns:xlink="http://www.w3.org/1999/xlink">
    <g id="Notes" font-family="LucidaGrande, 'Lucida Grande', sans-serif" font-size="13">
        <rect fill="white" height="600.0" width="800.0" x="0.0" y="0.0" />
        <g font-size="13">
            <text x="18.0" y="176.0">Small</text>
            <text x="18.0" y="376.0">Medium</text>
            <text x="18.0" y="576.0">Large</text>
        </g>
        <g font-size="9">
            <text x="250.0" y="30.0">Ultralight</text>
            <text x="450.0" y="30.0">Regular</text>
            <text x="650.0" y="30.0">Black</text>
            <text id="template-version" fill="#505050" text-anchor="end" x="785.0" y="575.0">Template v.3.0</text>
            <a href="https://github.com/swhitty/SwiftDraw">
                <text fill="#505050" text-anchor="end" x="785.0" y="590.0">https://github.com/swhitty/SwiftDraw</text>
            </a>
        </g>
    </g>
    <g id="Guides" stroke="rgb(39, 170, 225)" stroke-width="0.5">
        <path id="Capline-S" d="M18,76 l800,0" />
        <path id="H-reference" d="M85,145.755 L87.685,145.755 L113.369,79.287 L114.052,79.287 L114.052,76 L112.148,76 L85,145.755 Z M95.693,121.536 L130.996,121.536 L130.263,119.313 L96.474,119.313 L95.693,121.536 Z M139.15,145.755 L141.787,145.755 L114.638,76 L113.466,76 L113.466,79.287 L139.15,145.755 Z" stroke="none" transform="translate(0,200)" />
        <path id="Baseline-S" d="M18,146 l800,0" />
        <path id="left-margin-Ultralight-M" d="M230,256 l0,110" />
        <path id="right-margin-Ultralight-M" d="M300,256 l0,110" />
        <path id="left-margin-Regular-M" d="M430,256 l0,110" />
        <path id="right-margin-Regular-M" d="M500,256 l0,110" />
        <path id="left-margin-Black-M" d="M630,256 l0,110" />
        <path id="right-margin-Black-M" d="M700,256 l0,110" />
        <path id="Capline-M" d="M18,276 l800,0" />
        <path id="Baseline-M" d="M18,346 l800,0" />
        <path id="Capline-L" d="M18,476 l800,0" />
        <path id="Baseline-L" d="M18,546 l800,0" />
    </g>
    <g id="Symbols">
        <g id="Ultralight-M" transform="translate(0,200)">
            <path d="M237,121.5 L258,121.5 C259.933,121.5 261.5,119.933 261.5,118 C261.5,116.067 259.933,114.5 258,114.5 L237,114.5 C235.067,114.5 233.5,116.067 233.5,118 C233.5,119.933 235.067,121.5 237,121.5 Z M254.5,118 L254.5,139 C254.5,140.933 256.067,142.5 258,142.5 C259.933,142.5 261.5,140.933 261.5,139 L261.5,118 C261.5,116.067 259.933,114.5 258,114.5 C256.067,114.5 254.5,116.067 254.5,118 Z M255.525,115.525 L231.025,140.025 C229.658,141.392 229.658,143.608 231.025,144.975 C232.392,146.342 234.608,146.342 235.975,144.975 L260.475,120.475 C261.842,119.108 261.842,116.892 260.475,115.525 C259.108,114.158 256.892,114.158 255.525,115.525 Z M293,100.5 L272,100.5 C270.067,100.5 268.5,102.067 268.5,104 C268.5,105.933 270.067,107.5 272,107.5 L293,107.5 C294.933,107.5 296.5,105.933 296.5,104 C296.5,102.067 294.933,100.5 293,100.5 Z M275.5,104 L275.5,83 C275.5,81.067 273.933,79.5 272,79.5 C270.067,79.5 268.5,81.067 268.5,83 L268.5,104 C268.5,105.933 270.067,107.5 272,107.5 C273.933,107.5 275.5,105.933 275.5,104 Z M274.475,106.475 L298.975,81.975 C300.342,80.608 300.342,78.392 298.975,77.025 C297.608,75.658 295.392,75.658 294.025,77.025 L269.525,101.525 C268.158,102.892 268.158,105.108 269.525,106.475 C270.892,107.842 273.108,107.842 274.475,106.475 Z" />
        </g>
        <g id="Regular-M" transform="translate(0,200)">
            <path d="M437,121.5 L458,121.5 C459.933,121.5 461.5,119.933 461.5,118 C461.5,116.067 459.933,114.5 458,114.5 L437,114.5 C435.067,114.5 433.5,116.067 433.5,118 C433.5,119.933 435.067,121.5 437,121.5 Z M454.5,118 L454.5,139 C454.5,140.933 456.067,142.5 458,142.5 C459.933,142.5 461.5,140.933 461.5,139 L461.5,118 C461.5,116.067 459.933,114.5 458,114.5 C456.067,114.5 454.5,116.067 454.5,118 Z M455.525,115.525 L431.025,140.025 C429.658,141.392 429.658,143.608 431.025,144.975 C432.392,146.342 434.608,146.342 435.975,144.975 L460.475,120.475 C461.842,119.108 461.842,116.892 460.475,115.525 C459.108,114.158 456.892,114.158 455.525,115.525 Z M493,100.5 L472,100.5 C470.067,100.5 468.5,102.067 468.5,104 C468.5,105.933 470.067,107.5 472,107.5 L493,107.5 C494.933,107.5 496.5,105.933 496.5,104 C496.5,102.067 494.933,100.5 493,100.5 Z M475.5,104 L475.5,83 C475.5,81.067 473.933,79.5 472,79.5 C470.067,79.5 468.5,81.067 468.5,83 L468.5,104 C468.5,105.933 470.067,107.5 472,107.5 C473.933,107.5 475.5,105.933 475.5,104 Z M474.475,106.475 L498.975,81.975 C500.342,80.608 500.342,78.392 498.975,77.025 C497.608,75.658 495.392,75.658 494.025,77.025 L469.525,101.525 C468.158,102.892 468.158,105.108 469.525,106.475 C470.892,107.842 473.108,107.842 474.475,106.475 Z" />
        </g>
        <g id="Black-M" transform="translate(0,200)">
            <path d="M637,121.5 L658,121.5 C659.933,121.5 661.5,119.933 661.5,118 C661.5,116.067 659.933,114.5 658,114.5 L637,114.5 C635.067,114.5 633.5,116.067 633.5,118 C633.5,119.933 635.067,121.5 637,121.5 Z M654.5,118 L654.5,139 C654.5,140.933 656.067,142.5 658,142.5 C659.933,142.5 661.5,140.933 661.5,139 L661.5,118 C661.5,116.067 659.933,114.5 658,114.5 C656.067,114.5 654.5,116.067 654.5,118 Z M655.525,115.525 L631.025,140.025 C629.658,141.392 629.658,143.608 631.025,144.975 C632.392,146.342 634.608,146.342 635.975,144.975 L660.475,120.475 C661.842,119.108 661.842,116.892 660.475,115.525 C659.108,114.158 656.892,114.158 655.525,115.525 Z M693,100.5 L672,100.5 C670.067,100.5 668.5,102.067 668.5,104 C668.5,105.933 670.067,107.5 672,107.5 L693,107.5 C694.933,107.5 696.5,105.933 696.5,104 C696.5,102.067 694.933,100.5 693,100.5 Z M675.5,104 L675.5,83 C675.5,81.067 673.933,79.5 672,79.5 C670.067,79.5 668.5,81.067 668.5,83 L668.5,104 C668.5,105.933 670.067,107.5 672,107.5 C673.933,107.5 675.5,105.933 675.5,104 Z M674.475,106.475 L698.975,81.975 C700.342,80.608 700.342,78.392 698.975,77.025 C697.608,75.658 695.392,75.658 694.025,77.025 L669.525,101.525 C668.158,102.892 668.158,105.108 669.525,106.475 C670.892,107.842 673.108,107.842 674.475,106.475 Z" />
        </g>
    </g>
</svg>