<?xml version="1.0" encoding="UTF-8"?>
<svg height="600" width="800" xmlns="http://www.w3.org/2000/svg" xmlns:xlink="http://www.w3.org/1999/xlink">
    <g id="Notes" font-family="LucidaGrande, 'Lucida Grande', sans-serif" font-size="13">
        <rect fill="white" height="600.0" width="800.0" x="0.0" y="0.0" />
        <g font-size="13">
            <text x="18.0" y="176.0">Small</text>
            <text x="18.0" y="376.0">Medium</text>
            <text x="18.0" y="576.0">Large</text>
        </g>
        <g font-size="9">
            <text x="250.0" y="30.0">Ultralight</text>
            <text x="450.0" y="30.0">Regular</text>
            <text x="650.0" y="30.0">Black</text>
            <text id="template-version" fill="#505050" text-anchor="end" x="785.0" y="575.0">Template v.3.0</text>
            <a href="https://github.com/swhitty/SwiftDraw">
                <text fill="#505050" text-anchor="end" x="785.0" y="590.0">https://github.com/swhitty/SwiftDraw</text>
            </a>
        </g>
    </g>
    <g id="Guides" stroke="rgb(39, 170, 225)" stroke-width="0.5">
        <path id="Capline-S" d="M18,76 l800,0" />
        <path id="H-reference" d="M85,145.755 L87.685,145.755 L113.369,79.287 L114.052,79.287 L114.052,76 L112.148,76 L85,145.755 Z M95.693,121.536 L130.996,121.536 L130.263,119.313 L96.474,119.313 L95.693,121.536 Z M139.15,145.755 L141.787,145.755 L114.638,76 L113.466,76 L113.466,79.287 L139.15,145.755 Z" stroke="none" transform="translate(0,200)" />
        <path id="Baseline-S" d="M18,146 l800,0" />
        <path id="left-margin-Ultralight-M" d="M230,256 l0,110" />
        <path id="right-margin-Ultralight-M" d="M300,256 l0,110" />
        <path id="left-margin-Regular-M" d="M430,256 l0,110" />
        <path id="right-margin-Regular-M" d="M500,256 l0,110" />
        <path id="left-margin-Black-M" d="M630,256 l0,110" />
        <path id="right-margin-Black-M" d="M700,256 l0,110" />
        <path id="Capline-M" d="M18,276 l800,0" />
        <path id="Baseline-M" d="M18,346 l800,0" />
        <path id="Capline-L" d="M18,476 l800,0" />
        <path id="Baseline-L" d="M18,546 l800,0" />
    </g>
    <g id="Symbols">
        <g id="Ultralight-M" transform="translate(0,200)">
            <path d="M241.667,119.75 L259.167,119.75 C260.777,119.75 262.083,118.444 262.083,116.833 C262.083,115.223 260.777,113.917 259.167,113.917 L241.667,113.917 C240.056,113.917 238.75,115.223 238.75,116.833 C238.75,118.444 240.056,119.75 241.667,119.75 Z M256.25,116.833 L256.25,134.333 C256.25,135.944 257.556,137.25 259.167,137.25 C260.777,137.25 262.083,135.944 262.083,134.333 L262.083,116.833 C262.083,115.223 260.777,113.917 259.167,113.917 C257.556,113.917 256.25,115.223 256.25,116.833 Z M257.104,114.771 L236.688,135.188 C235.549,136.327 235.549,138.173 236.688,139.312 C237.827,140.451 239.673,140.451 240.812,139.312 L261.229,118.896 C262.368,117.757 262.368,115.91 261.229,114.771 C260.09,113.632 258.243,113.632 257.104,114.771 Z M288.333,102.25 L270.833,102.25 C269.223,102.25 267.917,103.556 267.917,105.167 C267.917,106.777 269.223,108.083 270.833,108.083 L288.333,108.083 C289.944,108.083 291.25,106.777 291.25,105.167 C291.25,103.556 289.944,102.25 288.333,102.25 Z M273.75,105.167 L273.75,87.667 C273.75,86.056 272.444,84.75 270.833,84.75 C269.223,84.75 267.917,86.056 267.917,87.667 L267.917,105.167 C267.917,106.777 269.223,108.083 270.833,108.083 C272.444,108.083 273.75,106.777 273.75,105.167 Z M272.896,107.229 L293.312,86.812 C294.451,85.673 294.451,83.827 293.312,82.688 C292.173,81.549 290.327,81.549 289.188,82.688 L268.771,103.104 C267.632,104.243 267.632,106.09 268.771,107.229 C269.91,108.368 271.757,108.368 272.896,107.229 Z" />
        </g>
        <g id="Regular-M" transform="translate(0,200)">
            <path d="M441.667,119.75 L459.167,119.75 C460.777,119.75 462.083,118.444 462.083,116.833 C462.083,115.223 460.777,113.917 459.167,113.917 L441.667,113.917 C440.056,113.917 438.75,115.223 438.75,116.833 C438.75,118.444 440.056,119.75 441.667,119.75 Z M456.25,116.833 L456.25,134.333 C456.25,135.944 457.556,137.25 459.167,137.25 C460.777,137.25 462.083,135.944 462.083,134.333 L462.083,116.833 C462.083,115.223 460.777,113.917 459.167,113.917 C457.556,113.917 456.25,115.223 456.25,116.833 Z M457.104,114.771 L436.688,135.188 C435.549,136.327 435.549,138.173 436.688,139.312 C437.827,140.451 439.673,140.451 440.812,139.312 L461.229,118.896 C462.368,117.757 462.368,115.91 461.229,114.771 C460.09,113.632 458.243,113.632 457.104,114.771 Z M488.333,102.25 L470.833,102.25 C469.223,102.25 467.917,103.556 467.917,105.167 C467.917,106.777 469.223,108.083 470.833,108.083 L488.333,108.083 C489.944,108.083 491.25,106.777 491.25,105.167 C491.25,103.556 489.944,102.25 488.333,102.25 Z M473.75,105.167 L473.75,87.667 C473.75,86.056 472.444,84.75 470.833,84.75 C469.223,84.75 467.917,86.056 467.917,87.667 L467.917,105.167 C467.917,106.777 469.223,108.083 470.833,108.083 C472.444,108.083 473.75,106.777 473.75,105.167 Z M472.896,107.229 L493.312,86.812 C494.451,85.673 494.451,83.827 493.312,82.688 C492.173,81.549 490.327,81.549 489.188,82.688 L468.771,103.104 C467.632,104.243 467.632,106.09 468.771,107.229 C469.91,108.368 471.757,108.368 472.896,107.229 Z" />
        </g>
        <g id="Black-M" transform="translate(0,200)">
            <path d="M641.667,119.75 L659.167,119.75 C660.778,119.75 662.083,118.444 662.083,116.833 C662.083,115.223 660.778,113.917 659.167,113.917 L641.667,113.917 C640.056,113.917 638.75,115.223 638.75,116.833 C638.75,118.444 640.056,119.75 641.667,119.75 Z M656.25,116.833 L656.25,134.333 C656.25,135.944 657.556,137.25 659.167,137.25 C660.778,137.25 662.083,135.944 662.083,134.333 L662.083,116.833 C662.083,115.223 660.778,113.917 659.167,113.917 C657.556,113.917 656.25,115.223 656.25,116.833 Z M657.104,114.771 L636.688,135.188 C635.549,136.327 635.549,138.173 636.688,139.312 C637.827,140.451 639.673,140.451 640.812,139.312 L661.229,118.896 C662.368,117.757 662.368,115.91 661.229,114.771 C660.09,113.632 658.243,113.632 657.104,114.771 Z M688.333,102.25 L670.833,102.25 C669.223,102.25 667.917,103.556 667.917,105.167 C667.917,106.777 669.223,108.083 670.833,108.083 L688.333,108.083 C689.944,108.083 691.25,106.777 691.25,105.167 C691.25,103.556 689.944,102.25 688.333,102.25 Z M673.75,105.167 L673.75,87.667 C673.75,86.056 672.444,84.75 670.833,84.75 C669.223,84.75 667.917,86.056 667.917,87.667 L667.917,105.167 C667.917,106.777 669.223,108.083 670.833,108.083 C672.444,108.083 673.75,106.777 673.75,105.167 Z M672.896,107.229 L693.312,86.812 C694.451,85.673 694.451,83.827 693.312,82.688 C692.173,81.549 690.327,81.549 689.188,82.688 L668.771,103.104 C667.632,104.243 667.632,106.09 668.771,107.229 C669.91,108.368 671.757,108.368 672.896,107.229 Z" />
        </g>
    </g>
</svg>