<?xml version="1.0" encoding="UTF-8"?>
<svg height="600" width="800" xmlns="http://www.w3.org/2000/svg" xmlns:xlink="http://www.w3.org/1999/xlink">
    <g id="Notes" font-family="LucidaGrande, 'Lucida Grande', sans-serif" font-size="13">
        <rect fill="white" height="600.0" width="800.0" x="0.0" y="0.0" />
        <g font-size="13">
            <text x="18.0" y="176.0">Small</text>
            <text x="18.0" y="376.0">Medium</text>
            <text x="18.0" y="576.0">Large</text>
        </g>
        <g font-size="9">
            <text x="250.0" y="30.0">Ultralight</text>
            <text x="450.0" y="30.0">Regular</text>
            <text x="650.0" y="30.0">Black</text>
            <text id="template-version" fill="#505050" text-anchor="end" x="785.0" y="575.0">Template v.3.0</text>
            <a href="https://github.com/swhitty/SwiftDraw">
                <text fill="#505050" text-anchor="end" x="785.0" y="590.0">https://github.com/swhitty/SwiftDraw</text>
            </a>
        </g>
    </g>
    <g id="Guides" stroke="rgb(39, 170, 225)" stroke-width="0.5">
        <path id="Capline-S" d="M18,76 l800,0" />
        <path id="H-reference" d="M85,145.755 L87.685,145.755 L113.369,79.287 L114.052,79.287 L114.052,76 L112.148,76 L85,145.755 Z M95.693,121.536 L130.996,121.536 L130.263,119.313 L96.474,119.313 L95.693,121.536 Z M139.15,145.755 L141.787,145.755 L114.638,76 L113.466,76 L113.466,79.287 L139.15,145.755 Z" stroke="none" transform="translate(0,200)" />
        <path id="Baseline-S" d="M18,146 l800,0" />
        <path id="left-margin-Ultralight-M" d="M221,256 l0,110" />
        <path id="right-margin-Ultralight-M" d="M309,256 l0,110" />
        <path id="left-margin-Regular-M" d="M421,256 l0,110" />
        <path id="right-margin-Regular-M" d="M509,256 l0,110" />
        <path id="left-margin-Black-M" d="M621,256 l0,110" />
        <path id="right-margin-Black-M" d="M709,256 l0,110" />
        <path id="Capline-M" d="M18,276 l800,0" />
        <path id="Baseline-M" d="M18,346 l800,0" />
        <path id="Capline-L" d="M18,476 l800,0" />
        <path id="Baseline-L" d="M18,546 l800,0" />
    </g>
    <g id="Symbols">
        <g id="Ultralight-M" transform="translate(0,200)">
            <path d="M258.27,129.871 C255.387,125.763 253.843,120.865 253.849,115.846 C253.848,112.886 255.022,110.05 257.112,107.958 C259.202,105.867 262.037,104.691 264.994,104.69 C267.949,104.691 270.784,105.867 272.875,107.958 C274.965,110.049 276.138,112.885 276.137,115.842 C276.137,117.048 277.114,118.025 278.319,118.025 C279.524,118.026 280.502,117.049 280.502,115.844 C280.504,111.729 278.871,107.783 275.962,104.872 C273.054,101.962 269.108,100.326 264.994,100.325 C260.878,100.326 256.933,101.962 254.024,104.873 C251.116,107.783 249.483,111.729 249.484,115.844 C249.477,121.758 251.297,127.535 254.697,132.379 C255.39,133.366 256.751,133.604 257.738,132.911 C258.724,132.219 258.963,130.858 258.27,129.871 Z" />
            <path d="M258.27,129.871 C255.387,125.763 253.843,120.865 253.849,115.846 C253.848,112.886 255.022,110.05 257.112,107.958 C259.202,105.867 262.037,104.691 264.994,104.69 C267.949,104.691 270.784,105.867 272.875,107.958 C274.965,110.049 276.138,112.885 276.137,115.842 C276.137,117.048 277.114,118.025 278.319,118.025 C279.524,118.026 280.502,117.049 280.502,115.844 C280.504,111.729 278.871,107.783 275.962,104.872 C273.054,101.962 269.108,100.326 264.994,100.325 C260.878,100.326 256.933,101.962 254.024,104.873 C251.116,107.783 249.483,111.729 249.484,115.844 C249.477,121.758 251.297,127.535 254.697,132.379 C255.39,133.366 256.751,133.604 257.738,132.911 C258.724,132.219 258.963,130.858 258.27,129.871 Z" />
            <path d="M278.924,126.962 C278.801,126.969 278.801,126.969 278.695,126.976 C278.655,126.979 278.655,126.979 278.617,126.981 C278.476,126.99 278.394,126.994 278.324,126.994 C275.368,126.993 272.533,125.817 270.443,123.726 C268.353,121.634 267.179,118.798 267.18,115.841 C267.181,114.636 266.204,113.659 264.999,113.658 C263.793,113.658 262.816,114.635 262.815,115.84 C262.814,119.954 264.447,123.901 267.355,126.811 C270.264,129.721 274.209,131.357 278.324,131.359 C278.507,131.359 278.668,131.352 278.895,131.337 C278.938,131.334 278.938,131.334 278.98,131.332 C279.078,131.325 279.078,131.325 279.161,131.32 C280.365,131.255 281.287,130.226 281.222,129.022 C281.156,127.819 280.127,126.896 278.924,126.962 Z" />
            <path d="M278.924,126.962 C278.801,126.969 278.801,126.969 278.695,126.976 C278.655,126.979 278.655,126.979 278.617,126.981 C278.476,126.99 278.394,126.994 278.324,126.994 C275.368,126.993 272.533,125.817 270.443,123.726 C268.353,121.634 267.179,118.798 267.18,115.841 C267.181,114.636 266.204,113.659 264.999,113.658 C263.793,113.658 262.816,114.635 262.815,115.84 C262.814,119.954 264.447,123.901 267.355,126.811 C270.264,129.721 274.209,131.357 278.324,131.359 C278.507,131.359 278.668,131.352 278.895,131.337 C278.938,131.334 278.938,131.334 278.98,131.332 C279.078,131.325 279.078,131.325 279.161,131.32 C280.365,131.255 281.287,130.226 281.222,129.022 C281.156,127.819 280.127,126.896 278.924,126.962 Z" />
            <path d="M268.92,130.972 C263.691,127.721 260.513,122 260.515,115.844 C260.485,114.183 261.333,112.672 262.732,111.854 C264.131,111.035 265.863,111.035 267.262,111.854 C268.66,112.672 269.508,114.183 269.479,115.803 C269.479,120.73 273.44,124.691 278.327,124.691 C283.213,124.691 287.175,120.73 287.175,115.843 C287.175,103.591 277.246,93.66 265,93.66 C252.752,93.66 242.825,103.59 242.825,115.843 C242.825,118.416 243.107,120.968 243.657,123.481 C243.915,124.659 245.078,125.405 246.256,125.147 C247.433,124.889 248.179,123.726 247.921,122.548 C247.438,120.338 247.19,118.099 247.19,115.843 C247.19,106.001 255.163,98.025 265,98.025 C274.835,98.025 282.81,106.001 282.81,115.843 C282.81,118.319 280.802,120.326 278.327,120.326 C275.851,120.326 273.844,118.319 273.844,115.843 C273.901,112.684 272.228,109.703 269.467,108.087 C266.706,106.47 263.288,106.47 260.527,108.087 C257.766,109.703 256.092,112.684 256.15,115.882 C256.147,123.508 260.105,130.632 266.615,134.679 C267.639,135.315 268.985,135.001 269.621,133.978 C270.257,132.954 269.943,131.608 268.92,130.972 Z" />
            <path d="M268.92,130.972 C263.691,127.721 260.513,122 260.515,115.844 C260.485,114.183 261.333,112.672 262.732,111.854 C264.131,111.035 265.863,111.035 267.262,111.854 C268.66,112.672 269.508,114.183 269.479,115.803 C269.479,120.73 273.44,124.691 278.327,124.691 C283.213,124.691 287.175,120.73 287.175,115.843 C287.175,103.591 277.246,93.66 265,93.66 C252.752,93.66 242.825,103.59 242.825,115.843 C242.825,118.416 243.107,120.968 243.657,123.481 C243.915,124.659 245.078,125.405 246.256,125.147 C247.433,124.889 248.179,123.726 247.921,122.548 C247.438,120.338 247.19,118.099 247.19,115.843 C247.19,106.001 255.163,98.025 265,98.025 C274.835,98.025 282.81,106.001 282.81,115.843 C282.81,118.319 280.802,120.326 278.327,120.326 C275.851,120.326 273.844,118.319 273.844,115.843 C273.901,112.684 272.228,109.703 269.467,108.087 C266.706,106.47 263.288,106.47 260.527,108.087 C257.766,109.703 256.092,112.684 256.15,115.882 C256.147,123.508 260.105,130.632 266.615,134.679 C267.639,135.315 268.985,135.001 269.621,133.978 C270.257,132.954 269.943,131.608 268.92,130.972 Z" />
            <path d="M285.246,96.167 C280.134,90.332 272.752,86.988 264.994,86.992 C257.24,86.988 249.859,90.333 244.748,96.167 C243.954,97.074 244.045,98.453 244.951,99.247 C245.858,100.042 247.237,99.95 248.031,99.044 C252.313,94.156 258.496,91.354 264.995,91.357 C271.496,91.354 277.68,94.155 281.962,99.044 C282.757,99.95 284.135,100.042 285.042,99.247 C285.949,98.453 286.04,97.074 285.246,96.167 Z" />
            <path d="M285.246,96.167 C280.134,90.332 272.752,86.988 264.994,86.992 C257.24,86.988 249.859,90.333 244.748,96.167 C243.954,97.074 244.045,98.453 244.951,99.247 C245.858,100.042 247.237,99.95 248.031,99.044 C252.313,94.156 258.496,91.354 264.995,91.357 C271.496,91.354 277.68,94.155 281.962,99.044 C282.757,99.95 284.135,100.042 285.042,99.247 C285.949,98.453 286.04,97.074 285.246,96.167 Z" />
        </g>
        <g id="Regular-M" transform="translate(0,200)">
            <path d="M458.27,129.871 C455.387,125.763 453.843,120.865 453.849,115.846 C453.848,112.886 455.022,110.05 457.112,107.958 C459.202,105.867 462.037,104.691 464.994,104.69 C467.949,104.691 470.784,105.867 472.875,107.958 C474.965,110.049 476.138,112.885 476.137,115.842 C476.137,117.048 477.114,118.025 478.319,118.025 C479.524,118.026 480.502,117.049 480.502,115.844 C480.504,111.729 478.871,107.783 475.962,104.872 C473.054,101.962 469.108,100.326 464.994,100.325 C460.878,100.326 456.933,101.962 454.024,104.873 C451.116,107.783 449.483,111.729 449.484,115.844 C449.477,121.758 451.297,127.535 454.697,132.379 C455.39,133.366 456.751,133.604 457.738,132.911 C458.724,132.219 458.963,130.858 458.27,129.871 Z" />
            <path d="M458.27,129.871 C455.387,125.763 453.843,120.865 453.849,115.846 C453.848,112.886 455.022,110.05 457.112,107.958 C459.202,105.867 462.037,104.691 464.994,104.69 C467.949,104.691 470.784,105.867 472.875,107.958 C474.965,110.049 476.138,112.885 476.137,115.842 C476.137,117.048 477.114,118.025 478.319,118.025 C479.524,118.026 480.502,117.049 480.502,115.844 C480.504,111.729 478.871,107.783 475.962,104.872 C473.054,101.962 469.108,100.326 464.994,100.325 C460.878,100.326 456.933,101.962 454.024,104.873 C451.116,107.783 449.483,111.729 449.484,115.844 C449.477,121.758 451.297,127.535 454.697,132.379 C455.39,133.366 456.751,133.604 457.738,132.911 C458.724,132.219 458.963,130.858 458.27,129.871 Z" />
            <path d="M478.924,126.962 C478.801,126.969 478.801,126.969 478.695,126.976 C478.655,126.979 478.655,126.979 478.617,126.981 C478.476,126.99 478.394,126.994 478.324,126.994 C475.368,126.993 472.533,125.817 470.443,123.726 C468.353,121.634 467.179,118.798 467.18,115.841 C467.181,114.636 466.204,113.659 464.999,113.658 C463.793,113.658 462.816,114.635 462.815,115.84 C462.814,119.954 464.447,123.901 467.355,126.811 C470.264,129.721 474.209,131.357 478.324,131.359 C478.507,131.359 478.668,131.352 478.895,131.337 C478.938,131.334 478.938,131.334 478.98,131.332 C479.078,131.325 479.078,131.325 479.161,131.32 C480.365,131.255 481.287,130.226 481.222,129.022 C481.156,127.819 480.127,126.896 478.924,126.962 Z" />
            <path d="M478.924,126.962 C478.801,126.969 478.801,126.969 478.695,126.976 C478.655,126.979 478.655,126.979 478.617,126.981 C478.476,126.99 478.394,126.994 478.324,126.994 C475.368,126.993 472.533,125.817 470.443,123.726 C468.353,121.634 467.179,118.798 467.18,115.841 C467.181,114.636 466.204,113.659 464.999,113.658 C463.793,113.658 462.816,114.635 462.815,115.84 C462.814,119.954 464.447,123.901 467.355,126.811 C470.264,129.721 474.209,131.357 478.324,131.359 C478.507,131.359 478.668,131.352 478.895,131.337 C478.938,131.334 478.938,131.334 478.98,131.332 C479.078,131.325 479.078,131.325 479.161,131.32 C480.365,131.255 481.287,130.226 481.222,129.022 C481.156,127.819 480.127,126.896 478.924,126.962 Z" />
            <path d="M468.92,130.972 C463.691,127.721 460.513,122 460.515,115.844 C460.485,114.183 461.333,112.672 462.732,111.854 C464.131,111.035 465.863,111.035 467.262,111.854 C468.66,112.672 469.508,114.183 469.479,115.803 C469.479,120.73 473.44,124.691 478.327,124.691 C483.213,124.691 487.175,120.73 487.175,115.843 C487.175,103.591 477.246,93.66 465,93.66 C452.752,93.66 442.825,103.59 442.825,115.843 C442.825,118.416 443.107,120.968 443.657,123.481 C443.915,124.659 445.078,125.405 446.256,125.147 C447.433,124.889 448.179,123.726 447.921,122.548 C447.438,120.338 447.19,118.099 447.19,115.843 C447.19,106.001 455.163,98.025 465,98.025 C474.835,98.025 482.81,106.001 482.81,115.843 C482.81,118.319 480.802,120.326 478.327,120.326 C475.851,120.326 473.844,118.319 473.844,115.843 C473.901,112.684 472.228,109.703 469.467,108.087 C466.706,106.47 463.288,106.47 460.527,108.087 C457.766,109.703 456.092,112.684 456.15,115.882 C456.147,123.508 460.105,130.632 466.615,134.679 C467.639,135.315 468.985,135.001 469.621,133.978 C470.257,132.954 469.943,131.608 468.92,130.972 Z" />
            <path d="M468.92,130.972 C463.691,127.721 460.513,122 460.515,115.844 C460.485,114.183 461.333,112.672 462.732,111.854 C464.131,111.035 465.863,111.035 467.262,111.854 C468.66,112.672 469.508,114.183 469.479,115.803 C469.479,120.73 473.44,124.691 478.327,124.691 C483.213,124.691 487.175,120.73 487.175,115.843 C487.175,103.591 477.246,93.66 465,93.66 C452.752,93.66 442.825,103.59 442.825,115.843 C442.825,118.416 443.107,120.968 443.657,123.481 C443.915,124.659 445.078,125.405 446.256,125.147 C447.433,124.889 448.179,123.726 447.921,122.548 C447.438,120.338 447.19,118.099 447.19,115.843 C447.19,106.001 455.163,98.025 465,98.025 C474.835,98.025 482.81,106.001 482.81,115.843 C482.81,118.319 480.802,120.326 478.327,120.326 C475.851,120.326 473.844,118.319 473.844,115.843 C473.901,112.684 472.228,109.703 469.467,108.087 C466.706,106.47 463.288,106.47 460.527,108.087 C457.766,109.703 456.092,112.684 456.15,115.882 C456.147,123.508 460.105,130.632 466.615,134.679 C467.639,135.315 468.985,135.001 469.621,133.978 C470.257,132.954 469.943,131.608 468.92,130.972 Z" />
            <path d="M485.246,96.167 C480.134,90.332 472.752,86.988 464.994,86.992 C457.24,86.988 449.859,90.333 444.748,96.167 C443.954,97.074 444.045,98.453 444.951,99.247 C445.858,100.042 447.237,99.95 448.031,99.044 C452.313,94.156 458.496,91.354 464.995,91.357 C471.496,91.354 477.68,94.155 481.962,99.044 C482.757,99.95 484.135,100.042 485.042,99.247 C485.949,98.453 486.04,97.074 485.246,96.167 Z" />
            <path d="M485.246,96.167 C480.134,90.332 472.752,86.988 464.994,86.992 C457.24,86.988 449.859,90.333 444.748,96.167 C443.954,97.074 444.045,98.453 444.951,99.247 C445.858,100.042 447.237,99.95 448.031,99.044 C452.313,94.156 458.496,91.354 464.995,91.357 C471.496,91.354 477.68,94.155 481.962,99.044 C482.757,99.95 484.135,100.042 485.042,99.247 C485.949,98.453 486.04,97.074 485.246,96.167 Z" />
        </g>
        <g id="Black-M" transform="translate(0,200)">
            <path d="M658.27,129.871 C655.387,125.763 653.843,120.865 653.849,115.846 C653.848,112.886 655.022,110.05 657.112,107.958 C659.202,105.867 662.037,104.691 664.994,104.69 C667.949,104.691 670.785,105.867 672.875,107.958 C674.965,110.049 676.138,112.885 676.137,115.842 C676.137,117.048 677.114,118.025 678.319,118.025 C679.524,118.026 680.502,117.049 680.502,115.844 C680.504,111.729 678.871,107.783 675.962,104.872 C673.054,101.962 669.108,100.326 664.994,100.325 C660.878,100.326 656.933,101.962 654.024,104.873 C651.116,107.783 649.483,111.729 649.484,115.844 C649.477,121.758 651.297,127.535 654.697,132.379 C655.39,133.366 656.751,133.604 657.738,132.911 C658.724,132.219 658.963,130.858 658.27,129.871 Z" />
            <path d="M658.27,129.871 C655.387,125.763 653.843,120.865 653.849,115.846 C653.848,112.886 655.022,110.05 657.112,107.958 C659.202,105.867 662.037,104.691 664.994,104.69 C667.949,104.691 670.785,105.867 672.875,107.958 C674.965,110.049 676.138,112.885 676.137,115.842 C676.137,117.048 677.114,118.025 678.319,118.025 C679.524,118.026 680.502,117.049 680.502,115.844 C680.504,111.729 678.871,107.783 675.962,104.872 C673.054,101.962 669.108,100.326 664.994,100.325 C660.878,100.326 656.933,101.962 654.024,104.873 C651.116,107.783 649.483,111.729 649.484,115.844 C649.477,121.758 651.297,127.535 654.697,132.379 C655.39,133.366 656.751,133.604 657.738,132.911 C658.724,132.219 658.963,130.858 658.27,129.871 Z" />
            <path d="M678.924,126.962 C678.801,126.969 678.801,126.969 678.695,126.976 C678.655,126.979 678.655,126.979 678.617,126.981 C678.476,126.99 678.394,126.994 678.324,126.994 C675.368,126.993 672.533,125.817 670.443,123.726 C668.353,121.634 667.179,118.798 667.18,115.841 C667.181,114.636 666.204,113.659 664.999,113.658 C663.793,113.658 662.816,114.635 662.815,115.84 C662.814,119.954 664.447,123.901 667.356,126.811 C670.264,129.721 674.209,131.357 678.324,131.359 C678.507,131.359 678.668,131.352 678.895,131.337 C678.938,131.334 678.938,131.334 678.98,131.332 C679.078,131.325 679.078,131.325 679.161,131.32 C680.365,131.255 681.287,130.226 681.222,129.022 C681.156,127.819 680.127,126.896 678.924,126.962 Z" />
            <path d="M678.924,126.962 C678.801,126.969 678.801,126.969 678.695,126.976 C678.655,126.979 678.655,126.979 678.617,126.981 C678.476,126.99 678.394,126.994 678.324,126.994 C675.368,126.993 672.533,125.817 670.443,123.726 C668.353,121.634 667.179,118.798 667.18,115.841 C667.181,114.636 666.204,113.659 664.999,113.658 C663.793,113.658 662.816,114.635 662.815,115.84 C662.814,119.954 664.447,123.901 667.356,126.811 C670.264,129.721 674.209,131.357 678.324,131.359 C678.507,131.359 678.668,131.352 678.895,131.337 C678.938,131.334 678.938,131.334 678.98,131.332 C679.078,131.325 679.078,131.325 679.161,131.32 C680.365,131.255 681.287,130.226 681.222,129.022 C681.156,127.819 680.127,126.896 678.924,126.962 Z" />
            <path d="M668.92,130.972 C663.691,127.721 660.513,122 660.515,115.844 C660.485,114.183 661.333,112.672 662.732,111.854 C664.131,111.035 665.863,111.035 667.262,111.854 C668.66,112.672 669.508,114.183 669.479,115.803 C669.479,120.73 673.44,124.691 678.327,124.691 C683.213,124.691 687.175,120.73 687.175,115.843 C687.175,103.591 677.246,93.66 665,93.66 C652.752,93.66 642.825,103.59 642.825,115.843 C642.825,118.416 643.107,120.968 643.657,123.481 C643.915,124.659 645.078,125.405 646.256,125.147 C647.433,124.889 648.179,123.726 647.921,122.548 C647.438,120.338 647.19,118.099 647.19,115.843 C647.19,106.001 655.164,98.025 665,98.025 C674.835,98.025 682.81,106.001 682.81,115.843 C682.81,118.319 680.802,120.326 678.327,120.326 C675.851,120.326 673.844,118.319 673.844,115.843 C673.901,112.684 672.228,109.703 669.467,108.087 C666.706,106.47 663.288,106.47 660.527,108.087 C657.766,109.703 656.092,112.684 656.15,115.882 C656.147,123.508 660.105,130.632 666.615,134.679 C667.639,135.315 668.985,135.001 669.621,133.978 C670.257,132.954 669.943,131.608 668.92,130.972 Z" />
            <path d="M668.92,130.972 C663.691,127.721 660.513,122 660.515,115.844 C660.485,114.183 661.333,112.672 662.732,111.854 C664.131,111.035 665.863,111.035 667.262,111.854 C668.66,112.672 669.508,114.183 669.479,115.803 C669.479,120.73 673.44,124.691 678.327,124.691 C683.213,124.691 687.175,120.73 687.175,115.843 C687.175,103.591 677.246,93.66 665,93.66 C652.752,93.66 642.825,103.59 642.825,115.843 C642.825,118.416 643.107,120.968 643.657,123.481 C643.915,124.659 645.078,125.405 646.256,125.147 C647.433,124.889 648.179,123.726 647.921,122.548 C647.438,120.338 647.19,118.099 647.19,115.843 C647.19,106.001 655.164,98.025 665,98.025 C674.835,98.025 682.81,106.001 682.81,115.843 C682.81,118.319 680.802,120.326 678.327,120.326 C675.851,120.326 673.844,118.319 673.844,115.843 C673.901,112.684 672.228,109.703 669.467,108.087 C666.706,106.47 663.288,106.47 660.527,108.087 C657.766,109.703 656.092,112.684 656.15,115.882 C656.147,123.508 660.105,130.632 666.615,134.679 C667.639,135.315 668.985,135.001 669.621,133.978 C670.257,132.954 669.943,131.608 668.92,130.972 Z" />
            <path d="M685.246,96.167 C680.134,90.332 672.752,86.988 664.995,86.992 C657.24,86.988 649.859,90.333 644.748,96.167 C643.954,97.074 644.045,98.453 644.951,99.247 C645.858,100.042 647.237,99.95 648.031,99.044 C652.313,94.156 658.496,91.354 664.995,91.357 C671.496,91.354 677.68,94.155 681.962,99.044 C682.757,99.95 684.135,100.042 685.042,99.247 C685.949,98.453 686.04,97.074 685.246,96.167 Z" />
            <path d="M685.246,96.167 C680.134,90.332 672.752,86.988 664.995,86.992 C657.24,86.988 649.859,90.333 644.748,96.167 C643.954,97.074 644.045,98.453 644.951,99.247 C645.858,100.042 647.237,99.95 648.031,99.044 C652.313,94.156 658.496,91.354 664.995,91.357 C671.496,91.354 677.68,94.155 681.962,99.044 C682.757,99.95 684.135,100.042 685.042,99.247 C685.949,98.453 686.04,97.074 685.246,96.167 Z" />
        </g>
    </g>
</svg>