<?xml version="1.0" encoding="UTF-8"?>
<svg height="600" width="800" xmlns="http://www.w3.org/2000/svg" xmlns:xlink="http://www.w3.org/1999/xlink">
    <g id="Notes" font-family="LucidaGrande, 'Lucida Grande', sans-serif" font-size="13">
        <rect fill="white" height="600.0" width="800.0" x="0.0" y="0.0" />
        <g font-size="13">
            <text x="18.0" y="176.0">Small</text>
            <text x="18.0" y="376.0">Medium</text>
            <text x="18.0" y="576.0">Large</text>
        </g>
        <g font-size="9">
            <text x="250.0" y="30.0">Ultralight</text>
            <text x="450.0" y="30.0">Regular</text>
            <text x="650.0" y="30.0">Black</text>
            <text id="template-version" fill="#505050" text-anchor="end" x="785.0" y="575.0">Template v.3.0</text>
            <a href="https://github.com/swhitty/SwiftDraw">
                <text fill="#505050" text-anchor="end" x="785.0" y="590.0">https://github.com/swhitty/SwiftDraw</text>
            </a>
        </g>
    </g>
    <g id="Guides" stroke="rgb(39, 170, 225)" stroke-width="0.5">
        <path id="Capline-S" d="M18,76 l800,0" />
        <path id="H-reference" d="M85,145.755 L87.685,145.755 L113.369,79.287 L114.052,79.287 L114.052,76 L112.148,76 L85,145.755 Z M95.693,121.536 L130.996,121.536 L130.263,119.313 L96.474,119.313 L95.693,121.536 Z M139.15,145.755 L141.787,145.755 L114.638,76 L113.466,76 L113.466,79.287 L139.15,145.755 Z" stroke="none" transform="translate(0,200)" />
        <path id="Baseline-S" d="M18,146 l800,0" />
        <path id="left-margin-Ultralight-M" d="M221,256 l0,110" />
        <path id="right-margin-Ultralight-M" d="M309,256 l0,110" />
        <path id="left-margin-Regular-M" d="M421,256 l0,110" />
        <path id="right-margin-Regular-M" d="M509,256 l0,110" />
        <path id="left-margin-Black-M" d="M621,256 l0,110" />
        <path id="right-margin-Black-M" d="M709,256 l0,110" />
        <path id="Capline-M" d="M18,276 l800,0" />
        <path id="Baseline-M" d="M18,346 l800,0" />
        <path id="Capline-L" d="M18,476 l800,0" />
        <path id="Baseline-L" d="M18,546 l800,0" />
    </g>
    <g id="Symbols">
        <g id="Ultralight-M" transform="translate(0,200)">
            <path d="M278.895,106.368 L278.895,101.737 C278.895,94.063 272.674,87.842 265,87.842 C257.326,87.842 251.105,94.063 251.105,101.737 L251.105,106.368 C251.105,107.647 252.142,108.684 253.421,108.684 C254.7,108.684 255.737,107.647 255.737,106.368 L255.737,101.737 C255.737,96.621 259.884,92.474 265,92.474 C270.116,92.474 274.263,96.621 274.263,101.737 L274.263,106.368 C274.263,107.647 275.3,108.684 276.579,108.684 C277.858,108.684 278.895,107.647 278.895,106.368 Z M262.684,116.789 L262.684,121.421 C262.684,122.7 263.721,123.737 265,123.737 C266.279,123.737 267.316,122.7 267.316,121.421 L267.316,116.789 C267.316,115.51 266.279,114.474 265,114.474 C263.721,114.474 262.684,115.51 262.684,116.789 Z M257.589,134.158 L272.411,134.158 C277.739,134.158 279.005,134.054 280.784,133.148 C282.527,132.26 283.944,130.843 284.832,129.1 C285.739,127.321 285.842,126.055 285.842,120.726 L285.842,117.484 C285.842,112.156 285.739,110.889 284.833,109.111 C283.944,107.367 282.527,105.95 280.784,105.062 C279.005,104.156 277.739,104.053 272.411,104.053 L257.589,104.053 C252.261,104.053 250.995,104.156 249.216,105.062 C247.473,105.95 246.056,107.367 245.168,109.11 C244.261,110.889 244.158,112.156 244.158,117.484 L244.158,120.726 C244.158,126.055 244.261,127.321 245.167,129.1 C246.056,130.843 247.473,132.26 249.216,133.148 C250.995,134.054 252.261,134.158 257.589,134.158 Z M257.589,129.526 C253.192,129.526 252.141,129.44 251.318,129.021 C250.447,128.577 249.738,127.869 249.294,126.997 C248.875,126.175 248.789,125.124 248.789,120.726 L248.789,117.484 C248.789,113.086 248.875,112.036 249.294,111.213 C249.738,110.342 250.447,109.633 251.318,109.189 C252.141,108.77 253.192,108.684 257.589,108.684 L272.411,108.684 C276.808,108.684 277.859,108.77 278.682,109.189 C279.553,109.633 280.262,110.342 280.706,111.213 C281.125,112.036 281.211,113.086 281.211,117.484 L281.211,120.726 C281.211,125.124 281.125,126.175 280.706,126.998 C280.262,127.869 279.553,128.577 278.682,129.021 C277.859,129.44 276.808,129.526 272.411,129.526 L257.589,129.526 Z" />
        </g>
        <g id="Regular-M" transform="translate(0,200)">
            <path d="M478.895,106.368 L478.895,101.737 C478.895,94.063 472.674,87.842 465,87.842 C457.326,87.842 451.105,94.063 451.105,101.737 L451.105,106.368 C451.105,107.647 452.142,108.684 453.421,108.684 C454.7,108.684 455.737,107.647 455.737,106.368 L455.737,101.737 C455.737,96.621 459.884,92.474 465,92.474 C470.116,92.474 474.263,96.621 474.263,101.737 L474.263,106.368 C474.263,107.647 475.3,108.684 476.579,108.684 C477.858,108.684 478.895,107.647 478.895,106.368 Z M462.684,116.789 L462.684,121.421 C462.684,122.7 463.721,123.737 465,123.737 C466.279,123.737 467.316,122.7 467.316,121.421 L467.316,116.789 C467.316,115.51 466.279,114.474 465,114.474 C463.721,114.474 462.684,115.51 462.684,116.789 Z M457.589,134.158 L472.411,134.158 C477.739,134.158 479.005,134.054 480.784,133.148 C482.527,132.26 483.944,130.843 484.832,129.1 C485.739,127.321 485.842,126.055 485.842,120.726 L485.842,117.484 C485.842,112.156 485.739,110.889 484.833,109.111 C483.944,107.367 482.527,105.95 480.784,105.062 C479.005,104.156 477.739,104.053 472.411,104.053 L457.589,104.053 C452.261,104.053 450.995,104.156 449.216,105.062 C447.473,105.95 446.056,107.367 445.168,109.11 C444.261,110.889 444.158,112.156 444.158,117.484 L444.158,120.726 C444.158,126.055 444.261,127.321 445.167,129.1 C446.056,130.843 447.473,132.26 449.216,133.148 C450.995,134.054 452.261,134.158 457.589,134.158 Z M457.589,129.526 C453.192,129.526 452.141,129.44 451.318,129.021 C450.447,128.577 449.738,127.869 449.294,126.997 C448.875,126.175 448.789,125.124 448.789,120.726 L448.789,117.484 C448.789,113.086 448.875,112.036 449.294,111.213 C449.738,110.342 450.447,109.633 451.318,109.189 C452.141,108.77 453.192,108.684 457.589,108.684 L472.411,108.684 C476.808,108.684 477.859,108.77 478.682,109.189 C479.553,109.633 480.262,110.342 480.706,111.213 C481.125,112.036 481.211,113.086 481.211,117.484 L481.211,120.726 C481.211,125.124 481.125,126.175 480.706,126.998 C480.262,127.869 479.553,128.577 478.682,129.021 C477.859,129.44 476.808,129.526 472.411,129.526 L457.589,129.526 Z" />
        </g>
        <g id="Black-M" transform="translate(0,200)">
            <path d="M678.895,106.368 L678.895,101.737 C678.895,94.063 672.674,87.842 665,87.842 C657.326,87.842 651.105,94.063 651.105,101.737 L651.105,106.368 C651.105,107.647 652.142,108.684 653.421,108.684 C654.7,108.684 655.737,107.647 655.737,106.368 L655.737,101.737 C655.737,96.621 659.884,92.474 665,92.474 C670.116,92.474 674.263,96.621 674.263,101.737 L674.263,106.368 C674.263,107.647 675.3,108.684 676.579,108.684 C677.858,108.684 678.895,107.647 678.895,106.368 Z M662.684,116.789 L662.684,121.421 C662.684,122.7 663.721,123.737 665,123.737 C666.279,123.737 667.316,122.7 667.316,121.421 L667.316,116.789 C667.316,115.51 666.279,114.474 665,114.474 C663.721,114.474 662.684,115.51 662.684,116.789 Z M657.589,134.158 L672.411,134.158 C677.739,134.158 679.005,134.054 680.784,133.148 C682.527,132.26 683.944,130.843 684.832,129.1 C685.739,127.321 685.842,126.055 685.842,120.726 L685.842,117.484 C685.842,112.156 685.739,110.889 684.833,109.111 C683.944,107.367 682.527,105.95 680.784,105.062 C679.005,104.156 677.739,104.053 672.411,104.053 L657.589,104.053 C652.261,104.053 650.995,104.156 649.216,105.062 C647.473,105.95 646.056,107.367 645.168,109.11 C644.261,110.889 644.158,112.156 644.158,117.484 L644.158,120.726 C644.158,126.055 644.261,127.321 645.167,129.1 C646.056,130.843 647.473,132.26 649.216,133.148 C650.995,134.054 652.261,134.158 657.589,134.158 Z M657.589,129.526 C653.192,129.526 652.141,129.44 651.318,129.021 C650.447,128.577 649.738,127.869 649.294,126.997 C648.875,126.175 648.789,125.124 648.789,120.726 L648.789,117.484 C648.789,113.086 648.875,112.036 649.294,111.213 C649.738,110.342 650.447,109.633 651.318,109.189 C652.141,108.77 653.192,108.684 657.589,108.684 L672.411,108.684 C676.808,108.684 677.859,108.77 678.682,109.189 C679.553,109.633 680.262,110.342 680.706,111.213 C681.125,112.036 681.211,113.086 681.211,117.484 L681.211,120.726 C681.211,125.124 681.125,126.175 680.706,126.998 C680.262,127.869 679.553,128.577 678.682,129.021 C677.859,129.44 676.808,129.526 672.411,129.526 L657.589,129.526 Z" />
        </g>
    </g>
</svg>