<?xml version="1.0" encoding="UTF-8"?>
<svg height="600" width="800" xmlns="http://www.w3.org/2000/svg" xmlns:xlink="http://www.w3.org/1999/xlink">
    <g id="Notes" font-family="LucidaGrande, 'Lucida Grande', sans-serif" font-size="13">
        <rect fill="white" height="600.0" width="800.0" x="0.0" y="0.0" />
        <g font-size="13">
            <text x="18.0" y="176.0">Small</text>
            <text x="18.0" y="376.0">Medium</text>
            <text x="18.0" y="576.0">Large</text>
        </g>
        <g font-size="9">
            <text x="250.0" y="30.0">Ultralight</text>
            <text x="450.0" y="30.0">Regular</text>
            <text x="650.0" y="30.0">Black</text>
            <text id="template-version" fill="#505050" text-anchor="end" x="785.0" y="575.0">Template v.3.0</text>
            <a href="https://github.com/swhitty/SwiftDraw">
                <text fill="#505050" text-anchor="end" x="785.0" y="590.0">https://github.com/swhitty/SwiftDraw</text>
            </a>
        </g>
    </g>
    <g id="Guides" stroke="rgb(39, 170, 225)" stroke-width="0.5">
        <path id="Capline-S" d="M18,76 l800,0" />
        <path id="H-reference" d="M85,145.755 L87.685,145.755 L113.369,79.287 L114.052,79.287 L114.052,76 L112.148,76 L85,145.755 Z M95.693,121.536 L130.996,121.536 L130.263,119.313 L96.474,119.313 L95.693,121.536 Z M139.15,145.755 L141.787,145.755 L114.638,76 L113.466,76 L113.466,79.287 L139.15,145.755 Z" stroke="none" transform="translate(0,200)" />
        <path id="Baseline-S" d="M18,146 l800,0" />
        <path id="left-margin-Ultralight-M" d="M230,256 l0,110" />
        <path id="right-margin-Ultralight-M" d="M300,256 l0,110" />
        <path id="left-margin-Regular-M" d="M430,256 l0,110" />
        <path id="right-margin-Regular-M" d="M500,256 l0,110" />
        <path id="left-margin-Black-M" d="M630,256 l0,110" />
        <path id="right-margin-Black-M" d="M700,256 l0,110" />
        <path id="Capline-M" d="M18,276 l800,0" />
        <path id="Baseline-M" d="M18,346 l800,0" />
        <path id="Capline-L" d="M18,476 l800,0" />
        <path id="Baseline-L" d="M18,546 l800,0" />
    </g>
    <g id="Symbols">
        <g id="Ultralight-M" transform="translate(0,200)">
            <path d="M257.55,112.471 L244.275,95.88 C243.405,94.793 243.211,94.529 243.094,94.298 C242.961,94.038 242.865,93.767 242.808,93.486 C242.755,93.229 242.743,92.914 242.743,91.51 L242.743,89.354 C242.743,85.542 242.817,84.629 243.089,84.095 C243.394,83.497 243.88,83.011 244.479,82.706 C245.013,82.434 245.925,82.359 249.738,82.359 L280.262,82.359 C284.075,82.359 284.987,82.434 285.522,82.706 C286.12,83.011 286.606,83.497 286.911,84.095 C287.183,84.629 287.257,85.542 287.257,89.354 L287.257,91.51 C287.257,92.918 287.245,93.24 287.193,93.501 C287.138,93.761 287.043,94.033 286.912,94.288 C286.789,94.529 286.595,94.793 285.725,95.88 L272.45,112.471 C271.353,113.842 271.576,115.843 272.947,116.94 C274.318,118.038 276.319,117.815 277.416,116.444 L290.691,99.853 C291.874,98.374 292.179,97.959 292.575,97.18 C292.962,96.427 293.249,95.614 293.423,94.773 C293.597,93.907 293.617,93.409 293.617,91.51 L293.617,89.354 C293.617,84.264 293.518,83.056 292.577,81.209 C291.662,79.413 290.203,77.954 288.408,77.04 C286.561,76.099 285.353,76 280.262,76 L249.738,76 C244.647,76 243.439,76.099 241.592,77.04 C239.797,77.954 238.338,79.413 237.423,81.208 C236.482,83.056 236.383,84.264 236.383,89.354 L236.383,91.51 C236.383,93.407 236.403,93.906 236.578,94.763 C236.752,95.608 237.037,96.422 237.428,97.186 C237.821,97.959 238.126,98.374 239.309,99.853 L252.584,116.444 C253.681,117.815 255.682,118.038 257.053,116.94 C258.424,115.843 258.647,113.842 257.55,112.471 Z M240.233,84.311 L262.49,112.928 C263.763,114.565 266.237,114.565 267.51,112.928 L289.767,84.311 C290.845,82.925 290.596,80.928 289.21,79.849 C287.823,78.771 285.826,79.021 284.748,80.407 L262.49,109.024 L267.51,109.024 L245.252,80.407 C244.174,79.021 242.177,78.771 240.79,79.849 C239.404,80.928 239.155,82.925 240.233,84.311 Z M274.005,117.889 C277.241,121.097 278.514,125.792 277.341,130.196 C276.168,134.599 272.728,138.039 268.325,139.212 C263.921,140.385 259.226,139.112 256.018,135.876 C251.227,130.915 251.296,122.982 256.202,118.076 C261.108,113.17 269.041,113.101 274.031,117.921 C275.267,119.115 277.228,119.111 278.459,117.911 L278.462,117.908 L276.243,115.631 L274.005,117.889 Z M278.482,113.373 C277.25,112.152 275.266,112.143 274.024,113.354 L274.021,113.357 L276.24,115.634 L278.449,113.347 C270.963,106.117 259.064,106.221 251.705,113.579 C244.346,120.938 244.243,132.837 251.473,140.323 C256.314,145.207 263.356,147.116 269.962,145.357 C276.567,143.597 281.726,138.438 283.486,131.833 C285.245,125.227 283.336,118.185 278.482,113.373 Z" />
        </g>
        <g id="Regular-M" transform="translate(0,200)">
            <path d="M457.55,112.471 L444.275,95.88 C443.405,94.793 443.211,94.529 443.094,94.298 C442.961,94.038 442.865,93.767 442.808,93.486 C442.755,93.229 442.743,92.914 442.743,91.51 L442.743,89.354 C442.743,85.542 442.817,84.629 443.089,84.095 C443.394,83.497 443.88,83.011 444.479,82.706 C445.013,82.434 445.925,82.359 449.738,82.359 L480.262,82.359 C484.075,82.359 484.987,82.434 485.522,82.706 C486.12,83.011 486.606,83.497 486.911,84.095 C487.183,84.629 487.257,85.542 487.257,89.354 L487.257,91.51 C487.257,92.918 487.245,93.24 487.193,93.501 C487.138,93.761 487.043,94.033 486.912,94.288 C486.789,94.529 486.595,94.793 485.725,95.88 L472.45,112.471 C471.353,113.842 471.576,115.843 472.947,116.94 C474.318,118.038 476.319,117.815 477.416,116.444 L490.691,99.853 C491.874,98.374 492.179,97.959 492.575,97.18 C492.962,96.427 493.249,95.614 493.423,94.773 C493.597,93.907 493.617,93.409 493.617,91.51 L493.617,89.354 C493.617,84.264 493.518,83.056 492.577,81.209 C491.662,79.413 490.203,77.954 488.408,77.04 C486.561,76.099 485.353,76 480.262,76 L449.738,76 C444.647,76 443.439,76.099 441.592,77.04 C439.797,77.954 438.338,79.413 437.423,81.208 C436.482,83.056 436.383,84.264 436.383,89.354 L436.383,91.51 C436.383,93.407 436.403,93.906 436.578,94.763 C436.752,95.608 437.037,96.422 437.428,97.186 C437.821,97.959 438.126,98.374 439.309,99.853 L452.584,116.444 C453.681,117.815 455.682,118.038 457.053,116.94 C458.424,115.843 458.647,113.842 457.55,112.471 Z M440.233,84.311 L462.49,112.928 C463.763,114.565 466.237,114.565 467.51,112.928 L489.767,84.311 C490.845,82.925 490.596,80.928 489.21,79.849 C487.823,78.771 485.826,79.021 484.748,80.407 L462.49,109.024 L467.51,109.024 L445.252,80.407 C444.174,79.021 442.177,78.771 440.79,79.849 C439.404,80.928 439.155,82.925 440.233,84.311 Z M474.005,117.889 C477.241,121.097 478.514,125.792 477.341,130.196 C476.168,134.599 472.728,138.039 468.325,139.212 C463.921,140.385 459.226,139.112 456.018,135.876 C451.227,130.915 451.296,122.982 456.202,118.076 C461.108,113.17 469.041,113.101 474.031,117.921 C475.267,119.115 477.228,119.111 478.459,117.911 L478.462,117.908 L476.243,115.631 L474.005,117.889 Z M478.482,113.373 C477.25,112.152 475.266,112.143 474.024,113.354 L474.021,113.357 L476.24,115.634 L478.449,113.347 C470.963,106.117 459.064,106.221 451.705,113.579 C444.346,120.938 444.243,132.837 451.473,140.323 C456.314,145.207 463.356,147.116 469.962,145.357 C476.567,143.597 481.726,138.438 483.486,131.833 C485.245,125.227 483.336,118.185 478.482,113.373 Z" />
        </g>
        <g id="Black-M" transform="translate(0,200)">
            <path d="M657.55,112.471 L644.275,95.88 C643.405,94.793 643.211,94.529 643.094,94.298 C642.961,94.038 642.865,93.767 642.808,93.486 C642.755,93.229 642.743,92.914 642.743,91.51 L642.743,89.354 C642.743,85.542 642.817,84.629 643.089,84.095 C643.394,83.497 643.88,83.011 644.479,82.706 C645.013,82.434 645.925,82.359 649.738,82.359 L680.262,82.359 C684.075,82.359 684.987,82.434 685.522,82.706 C686.12,83.011 686.606,83.497 686.911,84.095 C687.183,84.629 687.257,85.542 687.257,89.354 L687.257,91.51 C687.257,92.918 687.245,93.24 687.193,93.501 C687.138,93.761 687.043,94.033 686.912,94.288 C686.789,94.529 686.595,94.793 685.725,95.88 L672.45,112.471 C671.353,113.842 671.576,115.843 672.947,116.94 C674.318,118.038 676.319,117.815 677.416,116.444 L690.691,99.853 C691.874,98.374 692.179,97.959 692.575,97.18 C692.962,96.427 693.249,95.614 693.423,94.773 C693.597,93.907 693.617,93.409 693.617,91.51 L693.617,89.354 C693.617,84.264 693.518,83.056 692.577,81.209 C691.662,79.413 690.203,77.954 688.408,77.04 C686.561,76.099 685.353,76 680.262,76 L649.738,76 C644.647,76 643.439,76.099 641.592,77.04 C639.797,77.954 638.338,79.413 637.423,81.208 C636.482,83.056 636.383,84.264 636.383,89.354 L636.383,91.51 C636.383,93.407 636.403,93.906 636.578,94.763 C636.752,95.608 637.037,96.422 637.428,97.186 C637.821,97.959 638.126,98.374 639.309,99.853 L652.584,116.444 C653.681,117.815 655.682,118.038 657.053,116.94 C658.424,115.843 658.647,113.842 657.55,112.471 Z M640.233,84.311 L662.49,112.928 C663.763,114.565 666.237,114.565 667.51,112.928 L689.767,84.311 C690.845,82.925 690.596,80.928 689.21,79.849 C687.823,78.771 685.826,79.021 684.748,80.407 L662.49,109.024 L667.51,109.024 L645.252,80.407 C644.174,79.021 642.177,78.771 640.79,79.849 C639.404,80.928 639.155,82.925 640.233,84.311 Z M674.005,117.889 C677.241,121.097 678.514,125.792 677.341,130.196 C676.168,134.599 672.728,138.039 668.325,139.212 C663.921,140.385 659.226,139.112 656.018,135.876 C651.227,130.915 651.296,122.982 656.202,118.076 C661.108,113.17 669.041,113.101 674.031,117.921 C675.267,119.115 677.228,119.111 678.459,117.911 L678.462,117.908 L676.243,115.631 L674.005,117.889 Z M678.482,113.373 C677.25,112.152 675.266,112.143 674.024,113.354 L674.021,113.357 L676.24,115.634 L678.449,113.347 C670.963,106.117 659.064,106.221 651.705,113.579 C644.346,120.938 644.243,132.837 651.473,140.323 C656.314,145.207 663.356,147.116 669.962,145.357 C676.567,143.597 681.726,138.438 683.486,131.833 C685.245,125.227 683.336,118.185 678.482,113.373 Z" />
        </g>
    </g>
</svg>