<?xml version="1.0" encoding="UTF-8"?>
<svg height="600" width="800" xmlns="http://www.w3.org/2000/svg" xmlns:xlink="http://www.w3.org/1999/xlink">
    <g id="Notes" font-family="LucidaGrande, 'Lucida Grande', sans-serif" font-size="13">
        <rect fill="white" height="600.0" width="800.0" x="0.0" y="0.0" />
        <g font-size="13">
            <text x="18.0" y="176.0">Small</text>
            <text x="18.0" y="376.0">Medium</text>
            <text x="18.0" y="576.0">Large</text>
        </g>
        <g font-size="9">
            <text x="250.0" y="30.0">Ultralight</text>
            <text x="450.0" y="30.0">Regular</text>
            <text x="650.0" y="30.0">Black</text>
            <text id="template-version" fill="#505050" text-anchor="end" x="785.0" y="575.0">Template v.3.0</text>
            <a href="https://github.com/swhitty/SwiftDraw">
                <text fill="#505050" text-anchor="end" x="785.0" y="590.0">https://github.com/swhitty/SwiftDraw</text>
            </a>
        </g>
    </g>
    <g id="Guides" stroke="rgb(39, 170, 225)" stroke-width="0.5">
        <path id="Capline-S" d="M18,76 l800,0" />
        <path id="H-reference" d="M85,145.755 L87.685,145.755 L113.369,79.287 L114.052,79.287 L114.052,76 L112.148,76 L85,145.755 Z M95.693,121.536 L130.996,121.536 L130.263,119.313 L96.474,119.313 L95.693,121.536 Z M139.15,145.755 L141.787,145.755 L114.638,76 L113.466,76 L113.466,79.287 L139.15,145.755 Z" stroke="none" transform="translate(0,200)" />
        <path id="Baseline-S" d="M18,146 l800,0" />
        <path id="left-margin-Ultralight-M" d="M230,256 l0,110" />
        <path id="right-margin-Ultralight-M" d="M300,256 l0,110" />
        <path id="left-margin-Regular-M" d="M430,256 l0,110" />
        <path id="right-margin-Regular-M" d="M500,256 l0,110" />
        <path id="left-margin-Black-M" d="M630,256 l0,110" />
        <path id="right-margin-Black-M" d="M700,256 l0,110" />
        <path id="Capline-M" d="M18,276 l800,0" />
        <path id="Baseline-M" d="M18,346 l800,0" />
        <path id="Capline-L" d="M18,476 l800,0" />
        <path id="Baseline-L" d="M18,546 l800,0" />
    </g>
    <g id="Symbols">
        <g id="Ultralight-M" transform="translate(0,200)">
            <path d="M265.115,120.649 L280.371,143.027 C281.344,144.454 283.29,144.822 284.717,143.849 C286.144,142.876 286.512,140.93 285.539,139.503 L270.283,117.126 C269.31,115.698 267.364,115.33 265.937,116.303 C264.51,117.276 264.142,119.222 265.115,120.649 Z M258.1,117.125 L242.841,139.503 C241.868,140.93 242.236,142.876 243.663,143.849 C245.09,144.822 247.036,144.454 248.009,143.027 L263.268,120.649 C264.241,119.222 263.873,117.277 262.446,116.303 C261.019,115.33 259.073,115.698 258.1,117.125 Z M267.318,113.743 C267.318,115.47 265.917,116.87 264.19,116.87 C262.463,116.87 261.062,115.47 261.062,113.743 C261.062,112.015 262.463,110.615 264.19,110.615 C265.917,110.615 267.318,112.015 267.318,113.743 Z M273.573,113.743 C273.573,108.561 269.372,104.36 264.19,104.36 C259.008,104.36 254.807,108.561 254.807,113.743 C254.807,118.924 259.008,123.125 264.19,123.125 C269.372,123.125 273.573,118.924 273.573,113.743 Z M279.484,83.612 L242.629,93.489 C240.991,93.926 240.581,94.072 239.8,94.775 C239.066,95.433 238.557,96.31 238.348,97.278 C238.128,98.319 238.204,98.737 238.649,100.388 L241.4,110.655 C241.831,112.272 241.982,112.693 242.674,113.472 C243.356,114.226 244.237,114.732 245.206,114.936 C246.225,115.154 246.618,115.082 248.289,114.638 L285.15,104.76 C286.819,104.313 287.809,102.598 287.362,100.93 L283.315,85.824 C282.868,84.155 281.153,83.165 279.484,83.612 Z M281.103,89.654 L277.273,87.442 L281.32,102.548 L283.531,98.718 L246.676,108.595 C246.194,108.723 246.031,108.764 245.931,108.782 C246.032,108.763 246.227,108.758 246.504,108.817 C246.817,108.883 247.11,109.051 247.332,109.296 C247.529,109.519 247.618,109.684 247.651,109.775 C247.616,109.679 247.567,109.504 247.443,109.04 L244.689,98.765 C244.56,98.284 244.517,98.115 244.499,98.016 C244.518,98.116 244.523,98.311 244.465,98.584 C244.394,98.917 244.224,99.209 243.979,99.429 C243.772,99.615 243.602,99.706 243.507,99.74 C243.603,99.706 243.775,99.657 244.245,99.532 L281.103,89.654 Z M294.008,99.15 C290.397,100.118 289.5,100.281 288.917,100.158 C288.277,100.022 287.692,99.684 287.25,99.193 C287.051,98.972 286.844,98.57 286.566,97.743 C286.329,97.035 286.136,96.349 285.582,94.283 L285.093,92.467 C284.127,88.859 283.963,87.962 284.086,87.382 C284.222,86.742 284.56,86.156 285.051,85.714 C285.273,85.514 285.677,85.306 286.505,85.028 C287.214,84.789 287.92,84.59 289.961,84.043 C290.458,83.91 290.612,83.872 290.713,83.853 C290.611,83.872 290.415,83.878 290.133,83.818 C289.812,83.75 289.519,83.58 289.298,83.334 C289.096,83.107 289.013,82.945 288.99,82.877 C289.027,82.987 289.071,83.143 289.196,83.606 L293.567,99.915 C293.694,100.39 293.736,100.558 293.754,100.659 C293.736,100.558 293.73,100.365 293.789,100.088 C293.855,99.774 294.024,99.481 294.269,99.259 C294.505,99.05 294.666,98.967 294.733,98.944 C294.623,98.982 294.473,99.024 294.002,99.152 Z M295.634,105.19 C296.257,105.021 296.454,104.966 296.742,104.868 C297.397,104.646 297.933,104.371 298.444,103.917 C299.198,103.235 299.704,102.355 299.908,101.385 C300.126,100.367 300.052,99.957 299.61,98.3 L295.237,81.983 C295.07,81.365 295.011,81.156 294.913,80.866 C294.691,80.212 294.415,79.676 293.962,79.166 C293.289,78.416 292.408,77.907 291.437,77.7 C290.409,77.481 290.04,77.548 288.345,78 C286.153,78.588 285.393,78.802 284.508,79.1 C282.94,79.628 281.825,80.201 280.864,81.067 C279.394,82.391 278.379,84.148 277.966,86.085 C277.545,88.082 277.762,89.275 279.052,94.089 L279.541,95.905 C280.134,98.117 280.341,98.853 280.637,99.736 C281.165,101.304 281.736,102.419 282.603,103.38 C283.926,104.85 285.684,105.865 287.621,106.277 C289.621,106.699 290.815,106.481 295.628,105.192 Z M238.425,114.043 L242.65,112.91 C244.311,112.461 244.701,112.321 245.479,111.621 C246.213,110.963 246.723,110.086 246.931,109.119 C247.153,108.081 247.074,107.652 246.63,106.008 L245.5,101.787 C245.329,101.155 245.276,100.969 245.18,100.684 C244.953,100.01 244.671,99.463 244.197,98.943 C243.552,98.223 242.675,97.714 241.708,97.506 C240.671,97.284 240.241,97.362 238.597,97.807 L234.376,98.937 C233.745,99.108 233.558,99.16 233.273,99.257 C232.6,99.484 232.052,99.766 231.532,100.239 C230.812,100.884 230.303,101.761 230.095,102.729 C229.873,103.766 229.951,104.196 230.396,105.839 L231.526,110.06 C231.697,110.692 231.75,110.879 231.846,111.164 C232.073,111.837 232.355,112.385 232.828,112.905 C233.474,113.624 234.35,114.133 235.318,114.342 C236.355,114.563 236.785,114.485 238.428,114.041 L237.612,111.022 L237.612,114.149 L237.615,114.149 C237.889,114.149 238.161,114.113 238.425,114.043 Z M236.806,108.001 L237.615,111.022 L237.615,107.894 L237.612,107.894 C237.336,107.894 237.062,107.93 236.796,108.002 C236.327,108.129 236.154,108.173 236.055,108.191 C236.157,108.172 236.352,108.166 236.63,108.226 C236.957,108.296 237.25,108.466 237.47,108.712 C237.661,108.921 237.748,109.09 237.772,109.163 C237.735,109.053 237.694,108.909 237.566,108.435 L236.436,104.214 C236.307,103.738 236.264,103.565 236.246,103.465 C236.264,103.568 236.27,103.763 236.211,104.041 C236.14,104.368 235.971,104.661 235.725,104.881 C235.515,105.072 235.347,105.158 235.273,105.183 C235.384,105.146 235.528,105.105 236.001,104.977 L240.222,103.847 C240.698,103.718 240.872,103.675 240.971,103.656 C240.869,103.675 240.673,103.681 240.396,103.622 C240.068,103.551 239.776,103.381 239.556,103.136 C239.365,102.926 239.278,102.758 239.253,102.684 C239.291,102.795 239.331,102.939 239.459,103.412 L240.59,107.633 C240.718,108.109 240.762,108.283 240.78,108.382 C240.761,108.28 240.756,108.084 240.815,107.807 C240.885,107.479 241.055,107.187 241.301,106.967 C241.506,106.782 241.675,106.691 241.768,106.658 C241.671,106.692 241.505,106.74 241.024,106.87 L236.806,108.001 Z" />
        </g>
        <g id="Regular-M" transform="translate(0,200)">
            <path d="M465.115,120.649 L480.371,143.027 C481.344,144.454 483.29,144.822 484.717,143.849 C486.144,142.876 486.512,140.93 485.539,139.503 L470.283,117.126 C469.31,115.698 467.364,115.33 465.937,116.303 C464.51,117.276 464.142,119.222 465.115,120.649 Z M458.1,117.125 L442.841,139.503 C441.868,140.93 442.236,142.876 443.663,143.849 C445.09,144.822 447.036,144.454 448.009,143.027 L463.268,120.649 C464.241,119.222 463.873,117.277 462.446,116.303 C461.019,115.33 459.073,115.698 458.1,117.125 Z M467.318,113.743 C467.318,115.47 465.917,116.87 464.19,116.87 C462.463,116.87 461.062,115.47 461.062,113.743 C461.062,112.015 462.463,110.615 464.19,110.615 C465.917,110.615 467.318,112.015 467.318,113.743 Z M473.573,113.743 C473.573,108.561 469.372,104.36 464.19,104.36 C459.008,104.36 454.807,108.561 454.807,113.743 C454.807,118.924 459.008,123.125 464.19,123.125 C469.372,123.125 473.573,118.924 473.573,113.743 Z M479.484,83.612 L442.629,93.489 C440.991,93.926 440.581,94.072 439.8,94.775 C439.066,95.433 438.557,96.31 438.348,97.278 C438.128,98.319 438.204,98.737 438.649,100.388 L441.4,110.655 C441.831,112.272 441.982,112.693 442.674,113.472 C443.356,114.226 444.237,114.732 445.206,114.936 C446.225,115.154 446.618,115.082 448.289,114.638 L485.15,104.76 C486.819,104.313 487.809,102.598 487.362,100.93 L483.315,85.824 C482.868,84.155 481.153,83.165 479.484,83.612 Z M481.103,89.654 L477.273,87.442 L481.32,102.548 L483.531,98.718 L446.676,108.595 C446.194,108.723 446.031,108.764 445.931,108.782 C446.032,108.763 446.227,108.758 446.504,108.817 C446.817,108.883 447.11,109.051 447.332,109.296 C447.53,109.519 447.618,109.684 447.651,109.775 C447.616,109.679 447.567,109.504 447.443,109.04 L444.69,98.765 C444.56,98.284 444.517,98.115 444.499,98.016 C444.518,98.116 444.523,98.311 444.465,98.584 C444.394,98.917 444.224,99.209 443.978,99.429 C443.772,99.615 443.602,99.706 443.507,99.74 C443.603,99.706 443.775,99.657 444.245,99.532 L481.103,89.654 Z M494.008,99.15 C490.397,100.118 489.5,100.281 488.917,100.158 C488.277,100.022 487.692,99.684 487.25,99.193 C487.051,98.972 486.844,98.57 486.566,97.743 C486.329,97.035 486.136,96.349 485.582,94.283 L485.093,92.467 C484.127,88.859 483.963,87.962 484.086,87.382 C484.222,86.742 484.56,86.156 485.051,85.714 C485.273,85.514 485.677,85.306 486.505,85.028 C487.214,84.789 487.92,84.59 489.961,84.043 C490.458,83.91 490.612,83.872 490.713,83.853 C490.611,83.872 490.415,83.878 490.133,83.818 C489.812,83.75 489.519,83.58 489.298,83.334 C489.096,83.107 489.013,82.945 488.99,82.877 C489.027,82.987 489.071,83.143 489.196,83.606 L493.567,99.915 C493.694,100.39 493.736,100.558 493.754,100.659 C493.736,100.558 493.73,100.365 493.789,100.088 C493.855,99.774 494.024,99.481 494.269,99.259 C494.505,99.05 494.666,98.967 494.733,98.944 C494.623,98.982 494.473,99.024 494.002,99.152 Z M495.634,105.19 C496.257,105.021 496.454,104.966 496.742,104.868 C497.397,104.646 497.933,104.371 498.444,103.917 C499.198,103.235 499.704,102.355 499.908,101.385 C500.126,100.367 500.052,99.957 499.61,98.3 L495.237,81.983 C495.07,81.365 495.011,81.156 494.913,80.866 C494.691,80.212 494.415,79.676 493.962,79.166 C493.289,78.416 492.408,77.907 491.437,77.7 C490.409,77.481 490.04,77.548 488.345,78 C486.153,78.588 485.393,78.802 484.508,79.1 C482.94,79.628 481.825,80.201 480.864,81.067 C479.394,82.391 478.379,84.148 477.966,86.085 C477.545,88.082 477.762,89.275 479.052,94.089 L479.541,95.905 C480.134,98.117 480.341,98.853 480.637,99.736 C481.165,101.304 481.736,102.419 482.603,103.38 C483.926,104.85 485.684,105.865 487.621,106.277 C489.621,106.699 490.815,106.481 495.628,105.192 Z M438.425,114.043 L442.65,112.91 C444.311,112.461 444.701,112.321 445.479,111.621 C446.213,110.963 446.723,110.086 446.931,109.119 C447.152,108.081 447.074,107.652 446.63,106.008 L445.5,101.787 C445.329,101.155 445.276,100.969 445.18,100.684 C444.953,100.01 444.671,99.463 444.197,98.943 C443.552,98.223 442.675,97.714 441.708,97.506 C440.671,97.284 440.241,97.362 438.597,97.807 L434.376,98.937 C433.745,99.108 433.558,99.16 433.273,99.257 C432.6,99.484 432.052,99.766 431.532,100.239 C430.812,100.884 430.303,101.761 430.095,102.729 C429.873,103.766 429.951,104.196 430.396,105.839 L431.526,110.06 C431.697,110.692 431.75,110.879 431.846,111.164 C432.073,111.837 432.355,112.385 432.828,112.905 C433.474,113.624 434.35,114.133 435.318,114.342 C436.355,114.563 436.785,114.485 438.428,114.041 L437.612,111.022 L437.612,114.149 L437.615,114.149 C437.889,114.149 438.161,114.113 438.425,114.043 Z M436.806,108.001 L437.615,111.022 L437.615,107.894 L437.612,107.894 C437.336,107.894 437.062,107.93 436.796,108.002 C436.327,108.129 436.154,108.173 436.055,108.191 C436.157,108.172 436.352,108.166 436.63,108.226 C436.957,108.296 437.25,108.466 437.47,108.712 C437.661,108.921 437.748,109.09 437.772,109.163 C437.735,109.053 437.694,108.909 437.566,108.435 L436.436,104.214 C436.307,103.738 436.264,103.565 436.246,103.465 C436.264,103.568 436.27,103.763 436.211,104.041 C436.14,104.368 435.971,104.661 435.725,104.881 C435.515,105.072 435.347,105.158 435.273,105.183 C435.384,105.146 435.528,105.105 436.001,104.977 L440.223,103.847 C440.698,103.718 440.872,103.675 440.971,103.656 C440.869,103.675 440.673,103.681 440.396,103.622 C440.068,103.551 439.776,103.381 439.556,103.136 C439.365,102.926 439.278,102.758 439.253,102.684 C439.291,102.795 439.331,102.939 439.459,103.412 L440.59,107.633 C440.718,108.109 440.762,108.283 440.78,108.382 C440.761,108.28 440.756,108.084 440.815,107.807 C440.885,107.479 441.055,107.187 441.301,106.967 C441.506,106.782 441.675,106.691 441.768,106.658 C441.671,106.692 441.505,106.74 441.024,106.87 L436.806,108.001 Z" />
        </g>
        <g id="Black-M" transform="translate(0,200)">
            <path d="M665.115,120.649 L680.371,143.027 C681.344,144.454 683.29,144.822 684.717,143.849 C686.144,142.876 686.512,140.93 685.539,139.503 L670.283,117.126 C669.31,115.698 667.364,115.33 665.937,116.303 C664.51,117.276 664.142,119.222 665.115,120.649 Z M658.1,117.125 L642.841,139.503 C641.868,140.93 642.236,142.876 643.663,143.849 C645.09,144.822 647.036,144.454 648.009,143.027 L663.268,120.649 C664.241,119.222 663.873,117.277 662.446,116.303 C661.019,115.33 659.073,115.698 658.1,117.125 Z M667.318,113.743 C667.318,115.47 665.917,116.87 664.19,116.87 C662.463,116.87 661.062,115.47 661.062,113.743 C661.062,112.015 662.463,110.615 664.19,110.615 C665.917,110.615 667.318,112.015 667.318,113.743 Z M673.573,113.743 C673.573,108.561 669.372,104.36 664.19,104.36 C659.008,104.36 654.807,108.561 654.807,113.743 C654.807,118.924 659.008,123.125 664.19,123.125 C669.372,123.125 673.573,118.924 673.573,113.743 Z M679.484,83.612 L642.629,93.489 C640.991,93.926 640.581,94.072 639.8,94.775 C639.066,95.433 638.557,96.31 638.348,97.278 C638.128,98.319 638.204,98.737 638.649,100.388 L641.4,110.655 C641.831,112.272 641.982,112.693 642.674,113.472 C643.356,114.226 644.237,114.732 645.206,114.936 C646.225,115.154 646.618,115.082 648.289,114.638 L685.15,104.76 C686.819,104.313 687.809,102.598 687.362,100.93 L683.315,85.824 C682.868,84.155 681.153,83.165 679.484,83.612 Z M681.103,89.654 L677.273,87.442 L681.32,102.548 L683.531,98.718 L646.676,108.595 C646.194,108.723 646.031,108.764 645.931,108.782 C646.032,108.763 646.227,108.758 646.504,108.817 C646.817,108.883 647.11,109.051 647.332,109.296 C647.529,109.519 647.618,109.684 647.651,109.775 C647.616,109.679 647.567,109.504 647.443,109.04 L644.69,98.765 C644.56,98.284 644.517,98.115 644.499,98.016 C644.518,98.116 644.523,98.311 644.465,98.584 C644.394,98.917 644.224,99.209 643.979,99.429 C643.772,99.615 643.602,99.706 643.507,99.74 C643.603,99.706 643.775,99.657 644.245,99.532 L681.103,89.654 Z M694.008,99.15 C690.397,100.118 689.5,100.281 688.917,100.158 C688.277,100.022 687.692,99.684 687.25,99.193 C687.051,98.972 686.844,98.57 686.566,97.743 C686.329,97.035 686.136,96.349 685.582,94.283 L685.093,92.467 C684.127,88.859 683.963,87.962 684.086,87.382 C684.222,86.742 684.56,86.156 685.051,85.714 C685.273,85.514 685.677,85.306 686.505,85.028 C687.214,84.789 687.92,84.59 689.961,84.043 C690.458,83.91 690.612,83.872 690.713,83.853 C690.611,83.872 690.415,83.878 690.133,83.818 C689.812,83.75 689.519,83.58 689.298,83.334 C689.096,83.107 689.013,82.945 688.99,82.877 C689.027,82.987 689.071,83.143 689.196,83.606 L693.567,99.915 C693.694,100.39 693.736,100.558 693.754,100.659 C693.736,100.558 693.73,100.365 693.789,100.088 C693.855,99.774 694.024,99.481 694.269,99.259 C694.505,99.05 694.666,98.967 694.733,98.944 C694.623,98.982 694.473,99.024 694.002,99.152 Z M695.634,105.19 C696.257,105.021 696.454,104.966 696.742,104.868 C697.397,104.646 697.933,104.371 698.444,103.917 C699.198,103.235 699.704,102.355 699.908,101.385 C700.126,100.367 700.052,99.957 699.61,98.3 L695.237,81.983 C695.07,81.365 695.011,81.156 694.913,80.866 C694.691,80.212 694.415,79.676 693.962,79.166 C693.289,78.416 692.408,77.907 691.437,77.7 C690.409,77.481 690.039,77.548 688.345,78 C686.153,78.588 685.393,78.802 684.508,79.1 C682.94,79.628 681.825,80.201 680.864,81.067 C679.394,82.391 678.379,84.148 677.966,86.085 C677.545,88.082 677.762,89.275 679.052,94.089 L679.541,95.905 C680.134,98.117 680.341,98.853 680.637,99.736 C681.164,101.304 681.736,102.419 682.603,103.38 C683.926,104.85 685.684,105.865 687.621,106.277 C689.621,106.699 690.815,106.481 695.628,105.192 Z M638.425,114.043 L642.65,112.91 C644.311,112.461 644.701,112.321 645.479,111.621 C646.214,110.963 646.723,110.086 646.931,109.119 C647.153,108.081 647.074,107.652 646.63,106.008 L645.5,101.787 C645.329,101.155 645.276,100.969 645.18,100.684 C644.953,100.01 644.671,99.463 644.197,98.943 C643.552,98.223 642.675,97.714 641.708,97.506 C640.671,97.284 640.241,97.362 638.597,97.807 L634.376,98.937 C633.745,99.108 633.558,99.16 633.273,99.257 C632.6,99.484 632.052,99.766 631.532,100.239 C630.812,100.884 630.303,101.761 630.095,102.729 C629.873,103.766 629.951,104.196 630.396,105.839 L631.526,110.06 C631.697,110.692 631.75,110.879 631.846,111.164 C632.073,111.837 632.355,112.385 632.828,112.905 C633.474,113.624 634.35,114.133 635.318,114.342 C636.355,114.563 636.785,114.485 638.428,114.041 L637.612,111.022 L637.612,114.149 L637.615,114.149 C637.889,114.149 638.161,114.113 638.425,114.043 Z M636.806,108.001 L637.615,111.022 L637.615,107.894 L637.612,107.894 C637.336,107.894 637.062,107.93 636.796,108.002 C636.327,108.129 636.154,108.173 636.055,108.191 C636.157,108.172 636.352,108.166 636.63,108.226 C636.957,108.296 637.25,108.466 637.47,108.712 C637.661,108.921 637.747,109.09 637.772,109.163 C637.735,109.053 637.694,108.909 637.566,108.435 L636.436,104.214 C636.307,103.738 636.264,103.565 636.246,103.465 C636.264,103.568 636.27,103.763 636.211,104.041 C636.14,104.368 635.971,104.661 635.725,104.881 C635.515,105.072 635.347,105.158 635.273,105.183 C635.384,105.146 635.528,105.105 636.001,104.977 L640.222,103.847 C640.698,103.718 640.872,103.675 640.971,103.656 C640.869,103.675 640.673,103.681 640.396,103.622 C640.068,103.551 639.776,103.381 639.556,103.136 C639.365,102.926 639.278,102.758 639.253,102.684 C639.291,102.795 639.331,102.939 639.459,103.412 L640.59,107.633 C640.718,108.109 640.762,108.283 640.78,108.382 C640.761,108.28 640.756,108.084 640.815,107.807 C640.885,107.479 641.055,107.187 641.301,106.967 C641.506,106.782 641.675,106.691 641.768,106.658 C641.671,106.692 641.505,106.74 641.024,106.87 L636.806,108.001 Z" />
        </g>
    </g>
</svg>