<?xml version="1.0" encoding="UTF-8"?>
<svg height="600" width="800" xmlns="http://www.w3.org/2000/svg" xmlns:xlink="http://www.w3.org/1999/xlink">
    <g id="Notes" font-family="LucidaGrande, 'Lucida Grande', sans-serif" font-size="13">
        <rect fill="white" height="600.0" width="800.0" x="0.0" y="0.0" />
        <g font-size="13">
            <text x="18.0" y="176.0">Small</text>
            <text x="18.0" y="376.0">Medium</text>
            <text x="18.0" y="576.0">Large</text>
        </g>
        <g font-size="9">
            <text x="250.0" y="30.0">Ultralight</text>
            <text x="450.0" y="30.0">Regular</text>
            <text x="650.0" y="30.0">Black</text>
            <text id="template-version" fill="#505050" text-anchor="end" x="785.0" y="575.0">Template v.3.0</text>
            <a href="https://github.com/swhitty/SwiftDraw">
                <text fill="#505050" text-anchor="end" x="785.0" y="590.0">https://github.com/swhitty/SwiftDraw</text>
            </a>
        </g>
    </g>
    <g id="Guides" stroke="rgb(39, 170, 225)" stroke-width="0.5">
        <path id="Capline-S" d="M18,76 l800,0" />
        <path id="H-reference" d="M85,145.755 L87.685,145.755 L113.369,79.287 L114.052,79.287 L114.052,76 L112.148,76 L85,145.755 Z M95.693,121.536 L130.996,121.536 L130.263,119.313 L96.474,119.313 L95.693,121.536 Z M139.15,145.755 L141.787,145.755 L114.638,76 L113.466,76 L113.466,79.287 L139.15,145.755 Z" stroke="none" transform="translate(0,200)" />
        <path id="Baseline-S" d="M18,146 l800,0" />
        <path id="left-margin-Ultralight-M" d="M230,256 l0,110" />
        <path id="right-margin-Ultralight-M" d="M300,256 l0,110" />
        <path id="left-margin-Regular-M" d="M430,256 l0,110" />
        <path id="right-margin-Regular-M" d="M500,256 l0,110" />
        <path id="left-margin-Black-M" d="M630,256 l0,110" />
        <path id="right-margin-Black-M" d="M700,256 l0,110" />
        <path id="Capline-M" d="M18,276 l800,0" />
        <path id="Baseline-M" d="M18,346 l800,0" />
        <path id="Capline-L" d="M18,476 l800,0" />
        <path id="Baseline-L" d="M18,546 l800,0" />
    </g>
    <g id="Symbols">
        <g id="Ultralight-M" transform="translate(0,200)">
            <path d="M233.889,99.333 L272.778,99.333 C283.517,99.333 292.222,108.039 292.222,118.778 C292.222,129.517 283.517,138.222 272.778,138.222 L233.889,138.222 C231.741,138.222 230,139.963 230,142.111 C230,144.259 231.741,146 233.889,146 L272.778,146 C287.812,146 300,133.812 300,118.778 C300,103.743 287.812,91.556 272.778,91.556 L233.889,91.556 C231.741,91.556 230,93.297 230,95.444 C230,97.592 231.741,99.333 233.889,99.333 Z M236.639,98.194 L252.194,82.639 C253.713,81.12 253.713,78.658 252.194,77.139 C250.676,75.62 248.213,75.62 246.695,77.139 L231.139,92.695 C229.62,94.213 229.62,96.676 231.139,98.194 C232.658,99.713 235.12,99.713 236.639,98.194 Z M231.139,98.194 L246.695,113.75 C248.213,115.269 250.676,115.269 252.194,113.75 C253.713,112.231 253.713,109.769 252.194,108.25 L236.639,92.695 C235.12,91.176 232.658,91.176 231.139,92.695 C229.62,94.213 229.62,96.676 231.139,98.194 Z" />
        </g>
        <g id="Regular-M" transform="translate(0,200)">
            <path d="M433.889,99.333 L472.778,99.333 C483.517,99.333 492.222,108.039 492.222,118.778 C492.222,129.517 483.517,138.222 472.778,138.222 L433.889,138.222 C431.741,138.222 430,139.963 430,142.111 C430,144.259 431.741,146 433.889,146 L472.778,146 C487.812,146 500,133.812 500,118.778 C500,103.743 487.812,91.556 472.778,91.556 L433.889,91.556 C431.741,91.556 430,93.297 430,95.444 C430,97.592 431.741,99.333 433.889,99.333 Z M436.639,98.194 L452.194,82.639 C453.713,81.12 453.713,78.658 452.194,77.139 C450.676,75.62 448.213,75.62 446.695,77.139 L431.139,92.695 C429.62,94.213 429.62,96.676 431.139,98.194 C432.658,99.713 435.12,99.713 436.639,98.194 Z M431.139,98.194 L446.695,113.75 C448.213,115.269 450.676,115.269 452.194,113.75 C453.713,112.231 453.713,109.769 452.194,108.25 L436.639,92.695 C435.12,91.176 432.658,91.176 431.139,92.695 C429.62,94.213 429.62,96.676 431.139,98.194 Z" />
        </g>
        <g id="Black-M" transform="translate(0,200)">
            <path d="M633.889,99.333 L672.778,99.333 C683.517,99.333 692.222,108.039 692.222,118.778 C692.222,129.517 683.517,138.222 672.778,138.222 L633.889,138.222 C631.741,138.222 630,139.963 630,142.111 C630,144.259 631.741,146 633.889,146 L672.778,146 C687.812,146 700,133.812 700,118.778 C700,103.743 687.812,91.556 672.778,91.556 L633.889,91.556 C631.741,91.556 630,93.297 630,95.444 C630,97.592 631.741,99.333 633.889,99.333 Z M636.639,98.194 L652.194,82.639 C653.713,81.12 653.713,78.658 652.194,77.139 C650.676,75.62 648.213,75.62 646.695,77.139 L631.139,92.695 C629.62,94.213 629.62,96.676 631.139,98.194 C632.658,99.713 635.12,99.713 636.639,98.194 Z M631.139,98.194 L646.695,113.75 C648.213,115.269 650.676,115.269 652.194,113.75 C653.713,112.231 653.713,109.769 652.194,108.25 L636.639,92.695 C635.12,91.176 632.658,91.176 631.139,92.695 C629.62,94.213 629.62,96.676 631.139,98.194 Z" />
        </g>
    </g>
</svg>