<?xml version="1.0" encoding="UTF-8"?>
<svg height="600" width="800" xmlns="http://www.w3.org/2000/svg" xmlns:xlink="http://www.w3.org/1999/xlink">
    <g id="Notes" font-family="LucidaGrande, 'Lucida Grande', sans-serif" font-size="13">
        <rect fill="white" height="600.0" width="800.0" x="0.0" y="0.0" />
        <g font-size="13">
            <text x="18.0" y="176.0">Small</text>
            <text x="18.0" y="376.0">Medium</text>
            <text x="18.0" y="576.0">Large</text>
        </g>
        <g font-size="9">
            <text x="250.0" y="30.0">Ultralight</text>
            <text x="450.0" y="30.0">Regular</text>
            <text x="650.0" y="30.0">Black</text>
            <text id="template-version" fill="#505050" text-anchor="end" x="785.0" y="575.0">Template v.3.0</text>
            <a href="https://github.com/swhitty/SwiftDraw">
                <text fill="#505050" text-anchor="end" x="785.0" y="590.0">https://github.com/swhitty/SwiftDraw</text>
            </a>
        </g>
    </g>
    <g id="Guides" stroke="rgb(39, 170, 225)" stroke-width="0.5">
        <path id="Capline-S" d="M18,76 l800,0" />
        <path id="H-reference" d="M85,145.755 L87.685,145.755 L113.369,79.287 L114.052,79.287 L114.052,76 L112.148,76 L85,145.755 Z M95.693,121.536 L130.996,121.536 L130.263,119.313 L96.474,119.313 L95.693,121.536 Z M139.15,145.755 L141.787,145.755 L114.638,76 L113.466,76 L113.466,79.287 L139.15,145.755 Z" stroke="none" transform="translate(0,200)" />
        <path id="Baseline-S" d="M18,146 l800,0" />
        <path id="left-margin-Ultralight-M" d="M230,256 l0,110" />
        <path id="right-margin-Ultralight-M" d="M300,256 l0,110" />
        <path id="left-margin-Regular-M" d="M430,256 l0,110" />
        <path id="right-margin-Regular-M" d="M500,256 l0,110" />
        <path id="left-margin-Black-M" d="M630,256 l0,110" />
        <path id="right-margin-Black-M" d="M700,256 l0,110" />
        <path id="Capline-M" d="M18,276 l800,0" />
        <path id="Baseline-M" d="M18,346 l800,0" />
        <path id="Capline-L" d="M18,476 l800,0" />
        <path id="Baseline-L" d="M18,546 l800,0" />
    </g>
    <g id="Symbols">
        <g id="Ultralight-M" transform="translate(0,200)">
            <path d="M261.818,90.318 L285.045,90.318 C288.861,90.318 289.774,90.393 290.309,90.665 C290.907,90.97 291.394,91.457 291.699,92.055 C291.971,92.59 292.045,93.503 292.045,97.318 L292.045,101.455 C292.045,104.628 291.993,105.396 291.804,105.853 C291.481,106.634 290.861,107.254 290.081,107.576 C289.624,107.766 288.855,107.818 285.682,107.818 C283.925,107.818 282.5,109.243 282.5,111 C282.5,112.757 283.925,114.182 285.682,114.182 C289.922,114.182 290.928,114.113 292.515,113.456 C294.855,112.487 296.715,110.628 297.684,108.287 C298.341,106.701 298.409,105.695 298.409,101.455 L298.409,97.318 C298.409,92.224 298.31,91.015 297.369,89.167 C296.453,87.37 294.993,85.91 293.197,84.995 C291.349,84.053 290.139,83.955 285.045,83.955 L261.818,83.955 C260.061,83.955 258.636,85.379 258.636,87.136 C258.636,88.894 260.061,90.318 261.818,90.318 Z M268.182,131.682 L244.955,131.682 C241.139,131.682 240.226,131.607 239.691,131.335 C239.093,131.03 238.606,130.543 238.301,129.945 C238.029,129.41 237.955,128.497 237.955,124.682 L237.955,120.545 C237.955,117.372 238.007,116.604 238.196,116.147 C238.519,115.366 239.139,114.746 239.919,114.424 C240.376,114.234 241.145,114.182 244.318,114.182 C246.075,114.182 247.5,112.757 247.5,111 C247.5,109.243 246.075,107.818 244.318,107.818 C240.078,107.818 239.072,107.887 237.485,108.544 C235.145,109.513 233.285,111.372 232.316,113.713 C231.659,115.299 231.591,116.305 231.591,120.545 L231.591,124.682 C231.591,129.776 231.69,130.985 232.631,132.833 C233.546,134.63 235.007,136.09 236.803,137.005 C238.651,137.947 239.861,138.045 244.955,138.045 L268.182,138.045 C269.939,138.045 271.364,136.621 271.364,134.864 C271.364,133.106 269.939,131.682 268.182,131.682 Z M259.591,122.136 L270.409,122.136 C272.166,122.136 272.582,122.102 273.541,121.609 C274.428,121.156 275.156,120.428 275.613,119.533 C276.102,118.582 276.136,118.166 276.136,116.409 L276.136,105.591 C276.136,103.834 276.102,103.418 275.609,102.459 C275.156,101.572 274.428,100.844 273.533,100.387 C272.582,99.898 272.166,99.864 270.409,99.864 L259.591,99.864 C257.834,99.864 257.418,99.898 256.459,100.391 C255.572,100.844 254.844,101.572 254.387,102.467 C253.898,103.418 253.864,103.834 253.864,105.591 L253.864,116.409 C253.864,118.166 253.898,118.582 254.391,119.541 C254.844,120.428 255.572,121.156 256.467,121.613 C257.418,122.102 257.834,122.136 259.591,122.136 Z M259.591,115.773 C259.082,115.773 258.909,115.77 258.808,115.762 C258.915,115.77 259.111,115.817 259.369,115.95 C259.659,116.098 259.902,116.341 260.054,116.639 C260.183,116.889 260.23,117.085 260.238,117.192 C260.23,117.091 260.227,116.918 260.227,116.409 L260.227,105.591 C260.227,105.082 260.23,104.909 260.238,104.808 C260.23,104.915 260.183,105.111 260.05,105.369 C259.902,105.659 259.659,105.902 259.361,106.054 C259.111,106.183 258.915,106.23 258.808,106.238 C258.909,106.23 259.082,106.227 259.591,106.227 L270.409,106.227 C270.918,106.227 271.091,106.23 271.192,106.238 C271.085,106.23 270.889,106.183 270.631,106.05 C270.341,105.902 270.098,105.659 269.946,105.361 C269.817,105.111 269.77,104.915 269.762,104.808 C269.77,104.909 269.773,105.082 269.773,105.591 L269.773,116.409 C269.773,116.918 269.77,117.091 269.762,117.192 C269.77,117.085 269.817,116.889 269.95,116.631 C270.098,116.341 270.341,116.098 270.639,115.946 C270.889,115.817 271.085,115.77 271.192,115.762 C271.091,115.77 270.918,115.773 270.409,115.773 L259.591,115.773 Z M283.455,146 L294.273,146 C296.03,146 296.446,145.966 297.404,145.473 C298.292,145.02 299.02,144.292 299.477,143.396 C299.966,142.446 300,142.03 300,140.273 L300,129.455 C300,127.697 299.966,127.282 299.473,126.323 C299.02,125.436 298.292,124.707 297.396,124.25 C296.446,123.762 296.03,123.727 294.273,123.727 L283.455,123.727 C281.697,123.727 281.282,123.762 280.323,124.254 C279.436,124.707 278.707,125.436 278.25,126.331 C277.762,127.282 277.727,127.697 277.727,129.455 L277.727,140.273 C277.727,142.03 277.762,142.446 278.254,143.404 C278.707,144.292 279.436,145.02 280.331,145.477 C281.282,145.966 281.697,146 283.455,146 Z M283.455,139.636 C282.945,139.636 282.773,139.634 282.671,139.625 C282.778,139.634 282.974,139.681 283.232,139.813 C283.523,139.962 283.766,140.204 283.918,140.503 C284.047,140.753 284.093,140.949 284.102,141.056 C284.094,140.954 284.091,140.782 284.091,140.273 L284.091,129.455 C284.091,128.945 284.094,128.773 284.102,128.671 C284.093,128.778 284.047,128.974 283.914,129.232 C283.766,129.523 283.523,129.766 283.224,129.918 C282.974,130.047 282.778,130.093 282.671,130.102 C282.773,130.094 282.945,130.091 283.455,130.091 L294.273,130.091 C294.782,130.091 294.954,130.094 295.056,130.102 C294.949,130.093 294.753,130.047 294.495,129.914 C294.204,129.766 293.962,129.523 293.809,129.224 C293.681,128.974 293.634,128.778 293.625,128.671 C293.634,128.773 293.636,128.945 293.636,129.455 L293.636,140.273 C293.636,140.782 293.634,140.954 293.625,141.056 C293.634,140.949 293.681,140.753 293.813,140.495 C293.962,140.204 294.204,139.962 294.503,139.809 C294.753,139.681 294.949,139.634 295.056,139.625 C294.954,139.634 294.782,139.636 294.273,139.636 L283.455,139.636 Z M235.727,98.273 L246.545,98.273 C248.294,98.273 248.705,98.239 249.656,97.76 C250.57,97.291 251.299,96.559 251.754,95.66 C252.238,94.718 252.273,94.303 252.273,92.545 L252.273,81.727 C252.273,79.979 252.239,79.568 251.76,78.617 C251.297,77.708 250.565,76.976 249.665,76.518 C248.705,76.033 248.294,76 246.545,76 L235.727,76 C233.979,76 233.568,76.033 232.617,76.513 C231.708,76.976 230.976,77.708 230.518,78.608 C230.033,79.568 230,79.979 230,81.727 L230,92.545 C230,94.294 230.033,94.705 230.513,95.656 C230.982,96.57 231.713,97.299 232.612,97.754 C233.554,98.238 233.97,98.273 235.727,98.273 Z M235.727,91.909 C235.218,91.909 235.046,91.906 234.944,91.898 C235.051,91.907 235.247,91.953 235.505,92.086 C235.788,92.229 236.032,92.472 236.185,92.771 C236.322,93.042 236.367,93.232 236.375,93.334 C236.366,93.23 236.364,93.057 236.364,92.545 L236.364,81.727 C236.364,81.216 236.366,81.043 236.375,80.939 C236.367,81.04 236.322,81.23 236.194,81.484 C236.037,81.793 235.793,82.037 235.493,82.19 C235.23,82.322 235.04,82.367 234.939,82.375 C235.043,82.366 235.216,82.364 235.727,82.364 L246.545,82.364 C247.057,82.364 247.23,82.366 247.334,82.375 C247.232,82.367 247.042,82.322 246.789,82.194 C246.48,82.037 246.236,81.793 246.083,81.493 C245.951,81.23 245.906,81.04 245.898,80.939 C245.906,81.043 245.909,81.216 245.909,81.727 L245.909,92.545 C245.909,93.055 245.906,93.227 245.898,93.329 C245.907,93.222 245.953,93.026 246.086,92.768 C246.229,92.485 246.472,92.241 246.771,92.087 C247.042,91.95 247.232,91.906 247.334,91.898 C247.23,91.906 247.057,91.909 246.545,91.909 L235.727,91.909 Z" />
        </g>
        <g id="Regular-M" transform="translate(0,200)">
            <path d="M461.818,90.318 L485.045,90.318 C488.861,90.318 489.774,90.393 490.309,90.665 C490.907,90.97 491.394,91.457 491.699,92.055 C491.971,92.59 492.045,93.503 492.045,97.318 L492.045,101.455 C492.045,104.628 491.993,105.396 491.804,105.853 C491.481,106.634 490.861,107.254 490.081,107.576 C489.624,107.766 488.855,107.818 485.682,107.818 C483.925,107.818 482.5,109.243 482.5,111 C482.5,112.757 483.925,114.182 485.682,114.182 C489.922,114.182 490.928,114.113 492.515,113.456 C494.855,112.487 496.715,110.628 497.684,108.287 C498.341,106.701 498.409,105.695 498.409,101.455 L498.409,97.318 C498.409,92.224 498.31,91.015 497.369,89.167 C496.453,87.37 494.993,85.91 493.197,84.995 C491.349,84.053 490.139,83.955 485.045,83.955 L461.818,83.955 C460.061,83.955 458.636,85.379 458.636,87.136 C458.636,88.894 460.061,90.318 461.818,90.318 Z M468.182,131.682 L444.955,131.682 C441.139,131.682 440.226,131.607 439.691,131.335 C439.093,131.03 438.606,130.543 438.301,129.945 C438.029,129.41 437.955,128.497 437.955,124.682 L437.955,120.545 C437.955,117.372 438.007,116.604 438.196,116.147 C438.519,115.366 439.139,114.746 439.919,114.424 C440.376,114.234 441.145,114.182 444.318,114.182 C446.075,114.182 447.5,112.757 447.5,111 C447.5,109.243 446.075,107.818 444.318,107.818 C440.078,107.818 439.072,107.887 437.485,108.544 C435.145,109.513 433.285,111.372 432.316,113.713 C431.659,115.299 431.591,116.305 431.591,120.545 L431.591,124.682 C431.591,129.776 431.69,130.985 432.631,132.833 C433.547,134.63 435.007,136.09 436.803,137.005 C438.651,137.947 439.861,138.045 444.955,138.045 L468.182,138.045 C469.939,138.045 471.364,136.621 471.364,134.864 C471.364,133.106 469.939,131.682 468.182,131.682 Z M459.591,122.136 L470.409,122.136 C472.166,122.136 472.582,122.102 473.541,121.609 C474.428,121.156 475.156,120.428 475.613,119.533 C476.102,118.582 476.136,118.166 476.136,116.409 L476.136,105.591 C476.136,103.834 476.102,103.418 475.609,102.459 C475.156,101.572 474.428,100.844 473.533,100.387 C472.582,99.898 472.166,99.864 470.409,99.864 L459.591,99.864 C457.834,99.864 457.418,99.898 456.459,100.391 C455.572,100.844 454.844,101.572 454.387,102.467 C453.898,103.418 453.864,103.834 453.864,105.591 L453.864,116.409 C453.864,118.166 453.898,118.582 454.391,119.541 C454.844,120.428 455.572,121.156 456.467,121.613 C457.418,122.102 457.834,122.136 459.591,122.136 Z M459.591,115.773 C459.082,115.773 458.909,115.77 458.808,115.762 C458.915,115.77 459.111,115.817 459.369,115.95 C459.659,116.098 459.902,116.341 460.054,116.639 C460.183,116.889 460.23,117.085 460.238,117.192 C460.23,117.091 460.227,116.918 460.227,116.409 L460.227,105.591 C460.227,105.082 460.23,104.909 460.238,104.808 C460.23,104.915 460.183,105.111 460.05,105.369 C459.902,105.659 459.659,105.902 459.361,106.054 C459.111,106.183 458.915,106.23 458.808,106.238 C458.909,106.23 459.082,106.227 459.591,106.227 L470.409,106.227 C470.918,106.227 471.091,106.23 471.192,106.238 C471.085,106.23 470.889,106.183 470.631,106.05 C470.341,105.902 470.098,105.659 469.946,105.361 C469.817,105.111 469.77,104.915 469.762,104.808 C469.77,104.909 469.773,105.082 469.773,105.591 L469.773,116.409 C469.773,116.918 469.77,117.091 469.762,117.192 C469.77,117.085 469.817,116.889 469.95,116.631 C470.098,116.341 470.341,116.098 470.639,115.946 C470.889,115.817 471.085,115.77 471.192,115.762 C471.091,115.77 470.918,115.773 470.409,115.773 L459.591,115.773 Z M483.455,146 L494.273,146 C496.03,146 496.446,145.966 497.404,145.473 C498.292,145.02 499.02,144.292 499.477,143.396 C499.966,142.446 500,142.03 500,140.273 L500,129.455 C500,127.697 499.966,127.282 499.473,126.323 C499.02,125.436 498.292,124.707 497.396,124.25 C496.446,123.762 496.03,123.727 494.273,123.727 L483.455,123.727 C481.697,123.727 481.282,123.762 480.323,124.254 C479.436,124.707 478.707,125.436 478.25,126.331 C477.762,127.282 477.727,127.697 477.727,129.455 L477.727,140.273 C477.727,142.03 477.762,142.446 478.254,143.404 C478.707,144.292 479.436,145.02 480.331,145.477 C481.282,145.966 481.697,146 483.455,146 Z M483.455,139.636 C482.945,139.636 482.773,139.634 482.671,139.625 C482.778,139.634 482.974,139.681 483.232,139.813 C483.523,139.962 483.766,140.204 483.918,140.503 C484.047,140.753 484.093,140.949 484.102,141.056 C484.094,140.954 484.091,140.782 484.091,140.273 L484.091,129.455 C484.091,128.945 484.094,128.773 484.102,128.671 C484.093,128.778 484.047,128.974 483.914,129.232 C483.766,129.523 483.523,129.766 483.224,129.918 C482.974,130.047 482.778,130.093 482.671,130.102 C482.773,130.094 482.945,130.091 483.455,130.091 L494.273,130.091 C494.782,130.091 494.954,130.094 495.056,130.102 C494.949,130.093 494.753,130.047 494.495,129.914 C494.204,129.766 493.962,129.523 493.809,129.224 C493.681,128.974 493.634,128.778 493.625,128.671 C493.634,128.773 493.636,128.945 493.636,129.455 L493.636,140.273 C493.636,140.782 493.634,140.954 493.625,141.056 C493.634,140.949 493.681,140.753 493.813,140.495 C493.962,140.204 494.204,139.962 494.503,139.809 C494.753,139.681 494.949,139.634 495.056,139.625 C494.954,139.634 494.782,139.636 494.273,139.636 L483.455,139.636 Z M435.727,98.273 L446.545,98.273 C448.294,98.273 448.705,98.239 449.656,97.76 C450.57,97.291 451.299,96.559 451.754,95.66 C452.238,94.718 452.273,94.303 452.273,92.545 L452.273,81.727 C452.273,79.979 452.239,79.568 451.76,78.617 C451.297,77.708 450.565,76.976 449.665,76.518 C448.705,76.033 448.294,76 446.545,76 L435.727,76 C433.979,76 433.568,76.033 432.617,76.513 C431.708,76.976 430.976,77.708 430.518,78.608 C430.033,79.568 430,79.979 430,81.727 L430,92.545 C430,94.294 430.033,94.705 430.513,95.656 C430.982,96.57 431.713,97.299 432.612,97.754 C433.554,98.238 433.97,98.273 435.727,98.273 Z M435.727,91.909 C435.218,91.909 435.046,91.906 434.944,91.898 C435.051,91.907 435.247,91.953 435.505,92.086 C435.788,92.229 436.032,92.472 436.185,92.771 C436.322,93.042 436.367,93.232 436.375,93.334 C436.366,93.23 436.364,93.057 436.364,92.545 L436.364,81.727 C436.364,81.216 436.366,81.043 436.375,80.939 C436.367,81.04 436.322,81.23 436.194,81.484 C436.037,81.793 435.793,82.037 435.493,82.19 C435.23,82.322 435.04,82.367 434.939,82.375 C435.043,82.366 435.216,82.364 435.727,82.364 L446.545,82.364 C447.057,82.364 447.23,82.366 447.334,82.375 C447.232,82.367 447.042,82.322 446.789,82.194 C446.48,82.037 446.236,81.793 446.083,81.493 C445.951,81.23 445.906,81.04 445.898,80.939 C445.906,81.043 445.909,81.216 445.909,81.727 L445.909,92.545 C445.909,93.055 445.906,93.227 445.898,93.329 C445.907,93.222 445.953,93.026 446.086,92.768 C446.229,92.485 446.472,92.241 446.771,92.087 C447.042,91.95 447.232,91.906 447.334,91.898 C447.23,91.906 447.057,91.909 446.545,91.909 L435.727,91.909 Z" />
        </g>
        <g id="Black-M" transform="translate(0,200)">
            <path d="M661.818,90.318 L685.045,90.318 C688.861,90.318 689.774,90.393 690.309,90.665 C690.907,90.97 691.394,91.457 691.699,92.055 C691.971,92.59 692.045,93.503 692.045,97.318 L692.045,101.455 C692.045,104.628 691.993,105.396 691.804,105.853 C691.481,106.634 690.861,107.254 690.081,107.576 C689.624,107.766 688.855,107.818 685.682,107.818 C683.925,107.818 682.5,109.243 682.5,111 C682.5,112.757 683.925,114.182 685.682,114.182 C689.922,114.182 690.928,114.113 692.515,113.456 C694.855,112.487 696.715,110.628 697.684,108.287 C698.341,106.701 698.409,105.695 698.409,101.455 L698.409,97.318 C698.409,92.224 698.31,91.015 697.369,89.167 C696.453,87.37 694.993,85.91 693.197,84.995 C691.349,84.053 690.139,83.955 685.045,83.955 L661.818,83.955 C660.061,83.955 658.636,85.379 658.636,87.136 C658.636,88.894 660.061,90.318 661.818,90.318 Z M668.182,131.682 L644.955,131.682 C641.139,131.682 640.226,131.607 639.691,131.335 C639.093,131.03 638.606,130.543 638.301,129.945 C638.029,129.41 637.955,128.497 637.955,124.682 L637.955,120.545 C637.955,117.372 638.007,116.604 638.196,116.147 C638.519,115.366 639.139,114.746 639.919,114.424 C640.376,114.234 641.145,114.182 644.318,114.182 C646.075,114.182 647.5,112.757 647.5,111 C647.5,109.243 646.075,107.818 644.318,107.818 C640.078,107.818 639.072,107.887 637.485,108.544 C635.145,109.513 633.285,111.372 632.316,113.713 C631.659,115.299 631.591,116.305 631.591,120.545 L631.591,124.682 C631.591,129.776 631.69,130.985 632.631,132.833 C633.547,134.63 635.007,136.09 636.803,137.005 C638.651,137.947 639.861,138.045 644.955,138.045 L668.182,138.045 C669.939,138.045 671.364,136.621 671.364,134.864 C671.364,133.106 669.939,131.682 668.182,131.682 Z M659.591,122.136 L670.409,122.136 C672.166,122.136 672.582,122.102 673.541,121.609 C674.428,121.156 675.156,120.428 675.613,119.533 C676.102,118.582 676.136,118.166 676.136,116.409 L676.136,105.591 C676.136,103.834 676.102,103.418 675.609,102.459 C675.156,101.572 674.428,100.844 673.533,100.387 C672.582,99.898 672.166,99.864 670.409,99.864 L659.591,99.864 C657.834,99.864 657.418,99.898 656.459,100.391 C655.572,100.844 654.844,101.572 654.387,102.467 C653.898,103.418 653.864,103.834 653.864,105.591 L653.864,116.409 C653.864,118.166 653.898,118.582 654.391,119.541 C654.844,120.428 655.572,121.156 656.467,121.613 C657.418,122.102 657.834,122.136 659.591,122.136 Z M659.591,115.773 C659.082,115.773 658.909,115.77 658.808,115.762 C658.915,115.77 659.111,115.817 659.369,115.95 C659.659,116.098 659.902,116.341 660.054,116.639 C660.183,116.889 660.23,117.085 660.238,117.192 C660.23,117.091 660.227,116.918 660.227,116.409 L660.227,105.591 C660.227,105.082 660.23,104.909 660.238,104.808 C660.23,104.915 660.183,105.111 660.05,105.369 C659.902,105.659 659.659,105.902 659.361,106.054 C659.111,106.183 658.915,106.23 658.808,106.238 C658.909,106.23 659.082,106.227 659.591,106.227 L670.409,106.227 C670.918,106.227 671.091,106.23 671.192,106.238 C671.085,106.23 670.889,106.183 670.631,106.05 C670.341,105.902 670.098,105.659 669.946,105.361 C669.817,105.111 669.77,104.915 669.762,104.808 C669.77,104.909 669.773,105.082 669.773,105.591 L669.773,116.409 C669.773,116.918 669.77,117.091 669.762,117.192 C669.77,117.085 669.817,116.889 669.95,116.631 C670.098,116.341 670.341,116.098 670.639,115.946 C670.889,115.817 671.085,115.77 671.192,115.762 C671.091,115.77 670.918,115.773 670.409,115.773 L659.591,115.773 Z M683.455,146 L694.273,146 C696.03,146 696.446,145.966 697.404,145.473 C698.292,145.02 699.02,144.292 699.477,143.396 C699.966,142.446 700,142.03 700,140.273 L700,129.455 C700,127.697 699.966,127.282 699.473,126.323 C699.02,125.436 698.292,124.707 697.396,124.25 C696.446,123.762 696.03,123.727 694.273,123.727 L683.455,123.727 C681.697,123.727 681.282,123.762 680.323,124.254 C679.436,124.707 678.707,125.436 678.25,126.331 C677.762,127.282 677.727,127.697 677.727,129.455 L677.727,140.273 C677.727,142.03 677.762,142.446 678.254,143.404 C678.707,144.292 679.436,145.02 680.331,145.477 C681.282,145.966 681.697,146 683.455,146 Z M683.455,139.636 C682.945,139.636 682.773,139.634 682.671,139.625 C682.778,139.634 682.974,139.681 683.232,139.813 C683.523,139.962 683.766,140.204 683.918,140.503 C684.047,140.753 684.093,140.949 684.102,141.056 C684.094,140.954 684.091,140.782 684.091,140.273 L684.091,129.455 C684.091,128.945 684.094,128.773 684.102,128.671 C684.093,128.778 684.047,128.974 683.914,129.232 C683.766,129.523 683.523,129.766 683.224,129.918 C682.974,130.047 682.778,130.093 682.671,130.102 C682.773,130.094 682.945,130.091 683.455,130.091 L694.273,130.091 C694.782,130.091 694.954,130.094 695.056,130.102 C694.949,130.093 694.753,130.047 694.495,129.914 C694.204,129.766 693.962,129.523 693.809,129.224 C693.681,128.974 693.634,128.778 693.625,128.671 C693.634,128.773 693.636,128.945 693.636,129.455 L693.636,140.273 C693.636,140.782 693.634,140.954 693.625,141.056 C693.634,140.949 693.681,140.753 693.813,140.495 C693.962,140.204 694.204,139.962 694.503,139.809 C694.753,139.681 694.949,139.634 695.056,139.625 C694.954,139.634 694.782,139.636 694.273,139.636 L683.455,139.636 Z M635.727,98.273 L646.545,98.273 C648.294,98.273 648.705,98.239 649.656,97.76 C650.57,97.291 651.299,96.559 651.754,95.66 C652.238,94.718 652.273,94.303 652.273,92.545 L652.273,81.727 C652.273,79.979 652.239,79.568 651.76,78.617 C651.297,77.708 650.565,76.976 649.665,76.518 C648.705,76.033 648.294,76 646.545,76 L635.727,76 C633.979,76 633.568,76.033 632.617,76.513 C631.708,76.976 630.976,77.708 630.518,78.608 C630.033,79.568 630,79.979 630,81.727 L630,92.545 C630,94.294 630.033,94.705 630.513,95.656 C630.982,96.57 631.713,97.299 632.612,97.754 C633.554,98.238 633.97,98.273 635.727,98.273 Z M635.727,91.909 C635.218,91.909 635.046,91.906 634.944,91.898 C635.051,91.907 635.247,91.953 635.505,92.086 C635.788,92.229 636.032,92.472 636.185,92.771 C636.322,93.042 636.367,93.232 636.375,93.334 C636.366,93.23 636.364,93.057 636.364,92.545 L636.364,81.727 C636.364,81.216 636.366,81.043 636.375,80.939 C636.367,81.04 636.322,81.23 636.194,81.484 C636.037,81.793 635.793,82.037 635.493,82.19 C635.23,82.322 635.04,82.367 634.939,82.375 C635.043,82.366 635.216,82.364 635.727,82.364 L646.545,82.364 C647.057,82.364 647.23,82.366 647.334,82.375 C647.232,82.367 647.042,82.322 646.789,82.194 C646.48,82.037 646.236,81.793 646.083,81.493 C645.951,81.23 645.906,81.04 645.898,80.939 C645.906,81.043 645.909,81.216 645.909,81.727 L645.909,92.545 C645.909,93.055 645.906,93.227 645.898,93.329 C645.907,93.222 645.953,93.026 646.086,92.768 C646.229,92.485 646.472,92.241 646.771,92.087 C647.042,91.95 647.232,91.906 647.333,91.898 C647.23,91.906 647.057,91.909 646.545,91.909 L635.727,91.909 Z" />
        </g>
    </g>
</svg>