<?xml version="1.0" encoding="UTF-8"?>
<svg height="600" width="800" xmlns="http://www.w3.org/2000/svg" xmlns:xlink="http://www.w3.org/1999/xlink">
    <g id="Notes" font-family="LucidaGrande, 'Lucida Grande', sans-serif" font-size="13">
        <rect fill="white" height="600.0" width="800.0" x="0.0" y="0.0" />
        <g font-size="13">
            <text x="18.0" y="176.0">Small</text>
            <text x="18.0" y="376.0">Medium</text>
            <text x="18.0" y="576.0">Large</text>
        </g>
        <g font-size="9">
            <text x="250.0" y="30.0">Ultralight</text>
            <text x="450.0" y="30.0">Regular</text>
            <text x="650.0" y="30.0">Black</text>
            <text id="template-version" fill="#505050" text-anchor="end" x="785.0" y="575.0">Template v.3.0</text>
            <a href="https://github.com/swhitty/SwiftDraw">
                <text fill="#505050" text-anchor="end" x="785.0" y="590.0">https://github.com/swhitty/SwiftDraw</text>
            </a>
        </g>
    </g>
    <g id="Guides" stroke="rgb(39, 170, 225)" stroke-width="0.5">
        <path id="Capline-S" d="M18,76 l800,0" />
        <path id="H-reference" d="M85,145.755 L87.685,145.755 L113.369,79.287 L114.052,79.287 L114.052,76 L112.148,76 L85,145.755 Z M95.693,121.536 L130.996,121.536 L130.263,119.313 L96.474,119.313 L95.693,121.536 Z M139.15,145.755 L141.787,145.755 L114.638,76 L113.466,76 L113.466,79.287 L139.15,145.755 Z" stroke="none" transform="translate(0,200)" />
        <path id="Baseline-S" d="M18,146 l800,0" />
        <path id="left-margin-Ultralight-M" d="M230,256 l0,110" />
        <path id="right-margin-Ultralight-M" d="M300,256 l0,110" />
        <path id="left-margin-Regular-M" d="M430,256 l0,110" />
        <path id="right-margin-Regular-M" d="M500,256 l0,110" />
        <path id="left-margin-Black-M" d="M630,256 l0,110" />
        <path id="right-margin-Black-M" d="M700,256 l0,110" />
        <path id="Capline-M" d="M18,276 l800,0" />
        <path id="Baseline-M" d="M18,346 l800,0" />
        <path id="Capline-L" d="M18,476 l800,0" />
        <path id="Baseline-L" d="M18,546 l800,0" />
    </g>
    <g id="Symbols">
        <g id="Ultralight-M" transform="translate(0,200)">
            <path d="M262.083,92.042 L283.375,92.042 C286.872,92.042 287.709,92.11 288.2,92.36 C288.748,92.639 289.194,93.085 289.474,93.634 C289.723,94.124 289.792,94.961 289.792,98.458 L289.792,102.25 C289.792,105.159 289.744,105.863 289.57,106.282 C289.274,106.998 288.706,107.566 287.991,107.862 C287.572,108.035 286.867,108.083 283.958,108.083 C282.348,108.083 281.042,109.389 281.042,111 C281.042,112.611 282.348,113.917 283.958,113.917 C287.846,113.917 288.768,113.854 290.222,113.251 C292.367,112.363 294.072,110.659 294.96,108.513 C295.562,107.059 295.625,106.137 295.625,102.25 L295.625,98.458 C295.625,93.789 295.534,92.681 294.671,90.986 C293.832,89.339 292.494,88.001 290.848,87.162 C289.153,86.299 288.044,86.208 283.375,86.208 L262.083,86.208 C260.473,86.208 259.167,87.514 259.167,89.125 C259.167,90.736 260.473,92.042 262.083,92.042 Z M267.917,129.958 L246.625,129.958 C243.128,129.958 242.291,129.89 241.8,129.64 C241.252,129.361 240.806,128.915 240.526,128.366 C240.277,127.876 240.208,127.039 240.208,123.542 L240.208,119.75 C240.208,116.841 240.256,116.137 240.43,115.718 C240.726,115.002 241.294,114.434 242.009,114.138 C242.428,113.965 243.133,113.917 246.042,113.917 C247.652,113.917 248.958,112.611 248.958,111 C248.958,109.389 247.652,108.083 246.042,108.083 C242.154,108.083 241.232,108.146 239.778,108.749 C237.633,109.637 235.928,111.341 235.04,113.487 C234.438,114.941 234.375,115.863 234.375,119.75 L234.375,123.542 C234.375,128.211 234.466,129.319 235.329,131.014 C236.168,132.661 237.506,133.999 239.152,134.838 C240.847,135.701 241.956,135.792 246.625,135.792 L267.917,135.792 C269.527,135.792 270.833,134.486 270.833,132.875 C270.833,131.264 269.527,129.958 267.917,129.958 Z M260.042,121.208 L269.958,121.208 C271.569,121.208 271.95,121.177 272.829,120.725 C273.642,120.31 274.31,119.642 274.729,118.822 C275.177,117.95 275.208,117.569 275.208,115.958 L275.208,106.042 C275.208,104.431 275.177,104.05 274.725,103.171 C274.31,102.358 273.642,101.69 272.822,101.271 C271.95,100.823 271.569,100.792 269.958,100.792 L260.042,100.792 C258.431,100.792 258.05,100.823 257.171,101.275 C256.358,101.69 255.69,102.358 255.271,103.178 C254.823,104.05 254.792,104.431 254.792,106.042 L254.792,115.958 C254.792,117.569 254.823,117.95 255.275,118.829 C255.69,119.642 256.358,120.31 257.178,120.729 C258.05,121.177 258.431,121.208 260.042,121.208 Z M260.042,115.375 C259.575,115.375 259.417,115.372 259.324,115.365 C259.422,115.373 259.601,115.416 259.838,115.537 C260.104,115.673 260.327,115.896 260.467,116.169 C260.584,116.399 260.627,116.578 260.635,116.676 C260.628,116.583 260.625,116.425 260.625,115.958 L260.625,106.042 C260.625,105.575 260.628,105.417 260.635,105.324 C260.627,105.422 260.584,105.601 260.463,105.838 C260.327,106.104 260.104,106.327 259.831,106.467 C259.601,106.584 259.422,106.627 259.324,106.635 C259.417,106.628 259.575,106.625 260.042,106.625 L269.958,106.625 C270.425,106.625 270.583,106.628 270.676,106.635 C270.578,106.627 270.399,106.584 270.162,106.463 C269.896,106.327 269.673,106.104 269.533,105.831 C269.416,105.601 269.373,105.422 269.365,105.324 C269.372,105.417 269.375,105.575 269.375,106.042 L269.375,115.958 C269.375,116.425 269.372,116.583 269.365,116.676 C269.373,116.578 269.416,116.399 269.537,116.162 C269.673,115.896 269.896,115.673 270.169,115.533 C270.399,115.416 270.578,115.373 270.676,115.365 C270.583,115.372 270.425,115.375 269.958,115.375 L260.042,115.375 Z M281.917,143.083 L291.833,143.083 C293.444,143.083 293.825,143.052 294.704,142.6 C295.517,142.185 296.185,141.517 296.604,140.697 C297.052,139.825 297.083,139.444 297.083,137.833 L297.083,127.917 C297.083,126.306 297.052,125.925 296.6,125.046 C296.185,124.233 295.517,123.565 294.697,123.146 C293.825,122.698 293.444,122.667 291.833,122.667 L281.917,122.667 C280.306,122.667 279.925,122.698 279.046,123.15 C278.233,123.565 277.565,124.233 277.146,125.054 C276.698,125.925 276.667,126.306 276.667,127.917 L276.667,137.833 C276.667,139.444 276.698,139.825 277.15,140.704 C277.565,141.517 278.233,142.185 279.053,142.604 C279.925,143.052 280.306,143.083 281.917,143.083 Z M281.917,137.25 C281.45,137.25 281.292,137.247 281.199,137.24 C281.297,137.248 281.476,137.291 281.713,137.412 C281.979,137.548 282.202,137.771 282.341,138.044 C282.459,138.274 282.502,138.453 282.51,138.551 C282.503,138.458 282.5,138.3 282.5,137.833 L282.5,127.917 C282.5,127.45 282.503,127.292 282.51,127.199 C282.502,127.297 282.459,127.476 282.338,127.713 C282.202,127.979 281.979,128.202 281.706,128.341 C281.476,128.459 281.297,128.502 281.199,128.51 C281.292,128.503 281.45,128.5 281.917,128.5 L291.833,128.5 C292.3,128.5 292.458,128.503 292.551,128.51 C292.453,128.502 292.274,128.459 292.037,128.338 C291.771,128.202 291.548,127.979 291.409,127.706 C291.291,127.476 291.248,127.297 291.24,127.199 C291.247,127.292 291.25,127.45 291.25,127.917 L291.25,137.833 C291.25,138.3 291.247,138.458 291.24,138.551 C291.248,138.453 291.291,138.274 291.412,138.037 C291.548,137.771 291.771,137.548 292.044,137.409 C292.274,137.291 292.453,137.248 292.551,137.24 C292.458,137.247 292.3,137.25 291.833,137.25 L281.917,137.25 Z M238.167,99.333 L248.083,99.333 C249.686,99.333 250.063,99.303 250.935,98.863 C251.773,98.434 252.44,97.763 252.858,96.939 C253.302,96.075 253.333,95.694 253.333,94.083 L253.333,84.167 C253.333,82.564 253.303,82.187 252.863,81.315 C252.439,80.482 251.768,79.811 250.943,79.391 C250.063,78.947 249.686,78.917 248.083,78.917 L238.167,78.917 C236.564,78.917 236.187,78.947 235.315,79.387 C234.482,79.811 233.811,80.482 233.391,81.307 C232.947,82.187 232.917,82.564 232.917,84.167 L232.917,94.083 C232.917,95.686 232.947,96.063 233.387,96.935 C233.816,97.773 234.487,98.44 235.311,98.858 C236.175,99.302 236.556,99.333 238.167,99.333 Z M238.167,93.5 C237.7,93.5 237.542,93.497 237.449,93.49 C237.547,93.498 237.726,93.541 237.963,93.662 C238.223,93.794 238.446,94.016 238.587,94.29 C238.712,94.539 238.753,94.713 238.76,94.806 C238.752,94.711 238.75,94.552 238.75,94.083 L238.75,84.167 C238.75,83.698 238.752,83.539 238.76,83.444 C238.753,83.537 238.712,83.711 238.595,83.944 C238.451,84.227 238.227,84.451 237.952,84.591 C237.711,84.712 237.537,84.753 237.444,84.76 C237.539,84.752 237.698,84.75 238.167,84.75 L248.083,84.75 C248.552,84.75 248.711,84.752 248.806,84.76 C248.713,84.753 248.539,84.712 248.306,84.595 C248.023,84.451 247.799,84.227 247.659,83.952 C247.538,83.711 247.497,83.537 247.49,83.444 C247.498,83.539 247.5,83.698 247.5,84.167 L247.5,94.083 C247.5,94.55 247.497,94.708 247.49,94.801 C247.498,94.703 247.541,94.524 247.662,94.287 C247.794,94.027 248.016,93.804 248.29,93.663 C248.539,93.538 248.713,93.497 248.806,93.49 C248.711,93.498 248.552,93.5 248.083,93.5 L238.167,93.5 Z" />
        </g>
        <g id="Regular-M" transform="translate(0,200)">
            <path d="M462.083,92.042 L483.375,92.042 C486.872,92.042 487.709,92.11 488.2,92.36 C488.748,92.639 489.194,93.085 489.474,93.634 C489.723,94.124 489.792,94.961 489.792,98.458 L489.792,102.25 C489.792,105.159 489.744,105.863 489.57,106.282 C489.274,106.998 488.706,107.566 487.991,107.862 C487.572,108.035 486.867,108.083 483.958,108.083 C482.348,108.083 481.042,109.389 481.042,111 C481.042,112.611 482.348,113.917 483.958,113.917 C487.846,113.917 488.768,113.854 490.222,113.251 C492.367,112.363 494.072,110.659 494.96,108.513 C495.562,107.059 495.625,106.137 495.625,102.25 L495.625,98.458 C495.625,93.789 495.534,92.681 494.671,90.986 C493.832,89.339 492.494,88.001 490.848,87.162 C489.153,86.299 488.044,86.208 483.375,86.208 L462.083,86.208 C460.473,86.208 459.167,87.514 459.167,89.125 C459.167,90.736 460.473,92.042 462.083,92.042 Z M467.917,129.958 L446.625,129.958 C443.128,129.958 442.291,129.89 441.8,129.64 C441.252,129.361 440.806,128.915 440.526,128.366 C440.277,127.876 440.208,127.039 440.208,123.542 L440.208,119.75 C440.208,116.841 440.256,116.137 440.43,115.718 C440.726,115.002 441.294,114.434 442.009,114.138 C442.428,113.965 443.133,113.917 446.042,113.917 C447.652,113.917 448.958,112.611 448.958,111 C448.958,109.389 447.652,108.083 446.042,108.083 C442.154,108.083 441.232,108.146 439.778,108.749 C437.633,109.637 435.928,111.341 435.04,113.487 C434.438,114.941 434.375,115.863 434.375,119.75 L434.375,123.542 C434.375,128.211 434.466,129.319 435.329,131.014 C436.168,132.661 437.506,133.999 439.152,134.838 C440.847,135.701 441.956,135.792 446.625,135.792 L467.917,135.792 C469.527,135.792 470.833,134.486 470.833,132.875 C470.833,131.264 469.527,129.958 467.917,129.958 Z M460.042,121.208 L469.958,121.208 C471.569,121.208 471.95,121.177 472.829,120.725 C473.642,120.31 474.31,119.642 474.729,118.822 C475.177,117.95 475.208,117.569 475.208,115.958 L475.208,106.042 C475.208,104.431 475.177,104.05 474.725,103.171 C474.31,102.358 473.642,101.69 472.822,101.271 C471.95,100.823 471.569,100.792 469.958,100.792 L460.042,100.792 C458.431,100.792 458.05,100.823 457.171,101.275 C456.358,101.69 455.69,102.358 455.271,103.178 C454.823,104.05 454.792,104.431 454.792,106.042 L454.792,115.958 C454.792,117.569 454.823,117.95 455.275,118.829 C455.69,119.642 456.358,120.31 457.178,120.729 C458.05,121.177 458.431,121.208 460.042,121.208 Z M460.042,115.375 C459.575,115.375 459.417,115.372 459.324,115.365 C459.422,115.373 459.601,115.416 459.838,115.537 C460.104,115.673 460.327,115.896 460.467,116.169 C460.584,116.399 460.627,116.578 460.635,116.676 C460.628,116.583 460.625,116.425 460.625,115.958 L460.625,106.042 C460.625,105.575 460.628,105.417 460.635,105.324 C460.627,105.422 460.584,105.601 460.463,105.838 C460.327,106.104 460.104,106.327 459.831,106.467 C459.601,106.584 459.422,106.627 459.324,106.635 C459.417,106.628 459.575,106.625 460.042,106.625 L469.958,106.625 C470.425,106.625 470.583,106.628 470.676,106.635 C470.578,106.627 470.399,106.584 470.162,106.463 C469.896,106.327 469.673,106.104 469.533,105.831 C469.416,105.601 469.373,105.422 469.365,105.324 C469.372,105.417 469.375,105.575 469.375,106.042 L469.375,115.958 C469.375,116.425 469.372,116.583 469.365,116.676 C469.373,116.578 469.416,116.399 469.537,116.162 C469.673,115.896 469.896,115.673 470.169,115.533 C470.399,115.416 470.578,115.373 470.676,115.365 C470.583,115.372 470.425,115.375 469.958,115.375 L460.042,115.375 Z M481.917,143.083 L491.833,143.083 C493.444,143.083 493.825,143.052 494.704,142.6 C495.517,142.185 496.185,141.517 496.604,140.697 C497.052,139.825 497.083,139.444 497.083,137.833 L497.083,127.917 C497.083,126.306 497.052,125.925 496.6,125.046 C496.185,124.233 495.517,123.565 494.697,123.146 C493.825,122.698 493.444,122.667 491.833,122.667 L481.917,122.667 C480.306,122.667 479.925,122.698 479.046,123.15 C478.233,123.565 477.565,124.233 477.146,125.054 C476.698,125.925 476.667,126.306 476.667,127.917 L476.667,137.833 C476.667,139.444 476.698,139.825 477.15,140.704 C477.565,141.517 478.233,142.185 479.053,142.604 C479.925,143.052 480.306,143.083 481.917,143.083 Z M481.917,137.25 C481.45,137.25 481.292,137.247 481.199,137.24 C481.297,137.248 481.476,137.291 481.713,137.412 C481.979,137.548 482.202,137.771 482.341,138.044 C482.459,138.274 482.502,138.453 482.51,138.551 C482.503,138.458 482.5,138.3 482.5,137.833 L482.5,127.917 C482.5,127.45 482.503,127.292 482.51,127.199 C482.502,127.297 482.459,127.476 482.338,127.713 C482.202,127.979 481.979,128.202 481.706,128.341 C481.476,128.459 481.297,128.502 481.199,128.51 C481.292,128.503 481.45,128.5 481.917,128.5 L491.833,128.5 C492.3,128.5 492.458,128.503 492.551,128.51 C492.453,128.502 492.274,128.459 492.037,128.338 C491.771,128.202 491.548,127.979 491.409,127.706 C491.291,127.476 491.248,127.297 491.24,127.199 C491.247,127.292 491.25,127.45 491.25,127.917 L491.25,137.833 C491.25,138.3 491.247,138.458 491.24,138.551 C491.248,138.453 491.291,138.274 491.412,138.037 C491.548,137.771 491.771,137.548 492.044,137.409 C492.274,137.291 492.453,137.248 492.551,137.24 C492.458,137.247 492.3,137.25 491.833,137.25 L481.917,137.25 Z M438.167,99.333 L448.083,99.333 C449.686,99.333 450.063,99.303 450.935,98.863 C451.773,98.434 452.44,97.763 452.858,96.939 C453.302,96.075 453.333,95.694 453.333,94.083 L453.333,84.167 C453.333,82.564 453.303,82.187 452.863,81.315 C452.439,80.482 451.768,79.811 450.943,79.391 C450.063,78.947 449.686,78.917 448.083,78.917 L438.167,78.917 C436.564,78.917 436.187,78.947 435.315,79.387 C434.482,79.811 433.811,80.482 433.391,81.307 C432.947,82.187 432.917,82.564 432.917,84.167 L432.917,94.083 C432.917,95.686 432.947,96.063 433.387,96.935 C433.816,97.773 434.487,98.44 435.311,98.858 C436.175,99.302 436.556,99.333 438.167,99.333 Z M438.167,93.5 C437.7,93.5 437.542,93.497 437.449,93.49 C437.547,93.498 437.726,93.541 437.963,93.662 C438.223,93.794 438.446,94.016 438.587,94.29 C438.712,94.539 438.753,94.713 438.76,94.806 C438.752,94.711 438.75,94.552 438.75,94.083 L438.75,84.167 C438.75,83.698 438.752,83.539 438.76,83.444 C438.753,83.537 438.712,83.711 438.595,83.944 C438.451,84.227 438.227,84.451 437.952,84.591 C437.711,84.712 437.537,84.753 437.444,84.76 C437.539,84.752 437.698,84.75 438.167,84.75 L448.083,84.75 C448.552,84.75 448.711,84.752 448.806,84.76 C448.713,84.753 448.539,84.712 448.306,84.595 C448.023,84.451 447.799,84.227 447.659,83.952 C447.538,83.711 447.497,83.537 447.49,83.444 C447.498,83.539 447.5,83.698 447.5,84.167 L447.5,94.083 C447.5,94.55 447.497,94.708 447.49,94.801 C447.498,94.703 447.541,94.524 447.662,94.287 C447.794,94.027 448.016,93.804 448.29,93.663 C448.539,93.538 448.713,93.497 448.806,93.49 C448.711,93.498 448.552,93.5 448.083,93.5 L438.167,93.5 Z" />
        </g>
        <g id="Black-M" transform="translate(0,200)">
            <path d="M662.083,92.042 L683.375,92.042 C686.872,92.042 687.709,92.11 688.2,92.36 C688.748,92.639 689.194,93.085 689.474,93.634 C689.723,94.124 689.792,94.961 689.792,98.458 L689.792,102.25 C689.792,105.159 689.744,105.863 689.57,106.282 C689.274,106.998 688.706,107.566 687.991,107.862 C687.572,108.035 686.867,108.083 683.958,108.083 C682.348,108.083 681.042,109.389 681.042,111 C681.042,112.611 682.348,113.917 683.958,113.917 C687.846,113.917 688.768,113.854 690.222,113.251 C692.367,112.363 694.072,110.659 694.96,108.513 C695.562,107.059 695.625,106.137 695.625,102.25 L695.625,98.458 C695.625,93.789 695.534,92.681 694.671,90.986 C693.832,89.339 692.494,88.001 690.847,87.162 C689.153,86.299 688.044,86.208 683.375,86.208 L662.083,86.208 C660.472,86.208 659.167,87.514 659.167,89.125 C659.167,90.736 660.472,92.042 662.083,92.042 Z M667.917,129.958 L646.625,129.958 C643.128,129.958 642.291,129.89 641.8,129.64 C641.252,129.361 640.806,128.915 640.526,128.366 C640.277,127.876 640.208,127.039 640.208,123.542 L640.208,119.75 C640.208,116.841 640.256,116.137 640.43,115.718 C640.726,115.002 641.294,114.434 642.009,114.138 C642.428,113.965 643.133,113.917 646.042,113.917 C647.653,113.917 648.958,112.611 648.958,111 C648.958,109.389 647.653,108.083 646.042,108.083 C642.154,108.083 641.232,108.146 639.778,108.749 C637.633,109.637 635.928,111.341 635.04,113.487 C634.438,114.941 634.375,115.863 634.375,119.75 L634.375,123.542 C634.375,128.211 634.466,129.319 635.329,131.014 C636.168,132.661 637.506,133.999 639.152,134.838 C640.847,135.701 641.956,135.792 646.625,135.792 L667.917,135.792 C669.528,135.792 670.833,134.486 670.833,132.875 C670.833,131.264 669.528,129.958 667.917,129.958 Z M660.042,121.208 L669.958,121.208 C671.569,121.208 671.95,121.177 672.829,120.725 C673.642,120.31 674.31,119.642 674.729,118.822 C675.177,117.95 675.208,117.569 675.208,115.958 L675.208,106.042 C675.208,104.431 675.177,104.05 674.725,103.171 C674.31,102.358 673.642,101.69 672.822,101.271 C671.95,100.823 671.569,100.792 669.958,100.792 L660.042,100.792 C658.431,100.792 658.05,100.823 657.171,101.275 C656.358,101.69 655.69,102.358 655.271,103.178 C654.823,104.05 654.792,104.431 654.792,106.042 L654.792,115.958 C654.792,117.569 654.823,117.95 655.275,118.829 C655.69,119.642 656.358,120.31 657.178,120.729 C658.05,121.177 658.431,121.208 660.042,121.208 Z M660.042,115.375 C659.575,115.375 659.417,115.372 659.324,115.365 C659.422,115.373 659.601,115.416 659.838,115.537 C660.104,115.673 660.327,115.896 660.467,116.169 C660.584,116.399 660.627,116.578 660.635,116.676 C660.628,116.583 660.625,116.425 660.625,115.958 L660.625,106.042 C660.625,105.575 660.628,105.417 660.635,105.324 C660.627,105.422 660.584,105.601 660.463,105.838 C660.327,106.104 660.104,106.327 659.831,106.467 C659.601,106.584 659.422,106.627 659.324,106.635 C659.417,106.628 659.575,106.625 660.042,106.625 L669.958,106.625 C670.425,106.625 670.583,106.628 670.676,106.635 C670.578,106.627 670.399,106.584 670.162,106.463 C669.896,106.327 669.673,106.104 669.533,105.831 C669.416,105.601 669.373,105.422 669.365,105.324 C669.372,105.417 669.375,105.575 669.375,106.042 L669.375,115.958 C669.375,116.425 669.372,116.583 669.365,116.676 C669.373,116.578 669.416,116.399 669.537,116.162 C669.673,115.896 669.896,115.673 670.169,115.533 C670.399,115.416 670.578,115.373 670.676,115.365 C670.583,115.372 670.425,115.375 669.958,115.375 L660.042,115.375 Z M681.917,143.083 L691.833,143.083 C693.444,143.083 693.825,143.052 694.704,142.6 C695.517,142.185 696.185,141.517 696.604,140.697 C697.052,139.825 697.083,139.444 697.083,137.833 L697.083,127.917 C697.083,126.306 697.052,125.925 696.6,125.046 C696.185,124.233 695.517,123.565 694.696,123.146 C693.825,122.698 693.444,122.667 691.833,122.667 L681.917,122.667 C680.306,122.667 679.925,122.698 679.046,123.15 C678.233,123.565 677.565,124.233 677.146,125.054 C676.698,125.925 676.667,126.306 676.667,127.917 L676.667,137.833 C676.667,139.444 676.698,139.825 677.15,140.704 C677.565,141.517 678.233,142.185 679.054,142.604 C679.925,143.052 680.306,143.083 681.917,143.083 Z M681.917,137.25 C681.45,137.25 681.292,137.247 681.199,137.24 C681.297,137.248 681.476,137.291 681.713,137.412 C681.979,137.548 682.202,137.771 682.341,138.044 C682.459,138.274 682.502,138.453 682.51,138.551 C682.503,138.458 682.5,138.3 682.5,137.833 L682.5,127.917 C682.5,127.45 682.503,127.292 682.51,127.199 C682.502,127.297 682.459,127.476 682.338,127.713 C682.202,127.979 681.979,128.202 681.706,128.341 C681.476,128.459 681.297,128.502 681.199,128.51 C681.292,128.503 681.45,128.5 681.917,128.5 L691.833,128.5 C692.3,128.5 692.458,128.503 692.551,128.51 C692.453,128.502 692.274,128.459 692.037,128.338 C691.771,128.202 691.548,127.979 691.409,127.706 C691.291,127.476 691.248,127.297 691.24,127.199 C691.247,127.292 691.25,127.45 691.25,127.917 L691.25,137.833 C691.25,138.3 691.247,138.458 691.24,138.551 C691.248,138.453 691.291,138.274 691.412,138.037 C691.548,137.771 691.771,137.548 692.044,137.409 C692.274,137.291 692.453,137.248 692.551,137.24 C692.458,137.247 692.3,137.25 691.833,137.25 L681.917,137.25 Z M638.167,99.333 L648.083,99.333 C649.686,99.333 650.063,99.303 650.935,98.863 C651.773,98.434 652.44,97.763 652.858,96.939 C653.302,96.075 653.333,95.694 653.333,94.083 L653.333,84.167 C653.333,82.564 653.303,82.187 652.863,81.315 C652.439,80.482 651.768,79.811 650.943,79.391 C650.063,78.947 649.686,78.917 648.083,78.917 L638.167,78.917 C636.564,78.917 636.187,78.947 635.315,79.387 C634.482,79.811 633.811,80.482 633.391,81.307 C632.947,82.187 632.917,82.564 632.917,84.167 L632.917,94.083 C632.917,95.686 632.947,96.063 633.387,96.935 C633.816,97.773 634.487,98.44 635.311,98.858 C636.175,99.302 636.556,99.333 638.167,99.333 Z M638.167,93.5 C637.7,93.5 637.542,93.497 637.449,93.49 C637.547,93.498 637.726,93.541 637.963,93.662 C638.223,93.794 638.446,94.016 638.587,94.29 C638.712,94.539 638.753,94.713 638.76,94.806 C638.752,94.711 638.75,94.552 638.75,94.083 L638.75,84.167 C638.75,83.698 638.752,83.539 638.76,83.444 C638.753,83.537 638.712,83.711 638.595,83.944 C638.451,84.227 638.227,84.451 637.952,84.591 C637.711,84.712 637.537,84.753 637.444,84.76 C637.539,84.752 637.698,84.75 638.167,84.75 L648.083,84.75 C648.552,84.75 648.711,84.752 648.806,84.76 C648.713,84.753 648.539,84.712 648.306,84.595 C648.023,84.451 647.799,84.227 647.659,83.952 C647.538,83.711 647.497,83.537 647.49,83.444 C647.498,83.539 647.5,83.698 647.5,84.167 L647.5,94.083 C647.5,94.55 647.497,94.708 647.49,94.801 C647.498,94.703 647.541,94.524 647.662,94.287 C647.794,94.027 648.016,93.804 648.29,93.663 C648.539,93.538 648.713,93.497 648.806,93.49 C648.711,93.498 648.552,93.5 648.083,93.5 L638.167,93.5 Z" />
        </g>
    </g>
</svg>