<?xml version="1.0" encoding="UTF-8"?>
<svg height="600" width="800" xmlns="http://www.w3.org/2000/svg" xmlns:xlink="http://www.w3.org/1999/xlink">
    <g id="Notes" font-family="LucidaGrande, 'Lucida Grande', sans-serif" font-size="13">
        <rect fill="white" height="600.0" width="800.0" x="0.0" y="0.0" />
        <g font-size="13">
            <text x="18.0" y="176.0">Small</text>
            <text x="18.0" y="376.0">Medium</text>
            <text x="18.0" y="576.0">Large</text>
        </g>
        <g font-size="9">
            <text x="250.0" y="30.0">Ultralight</text>
            <text x="450.0" y="30.0">Regular</text>
            <text x="650.0" y="30.0">Black</text>
            <text id="template-version" fill="#505050" text-anchor="end" x="785.0" y="575.0">Template v.3.0</text>
            <a href="https://github.com/swhitty/SwiftDraw">
                <text fill="#505050" text-anchor="end" x="785.0" y="590.0">https://github.com/swhitty/SwiftDraw</text>
            </a>
        </g>
    </g>
    <g id="Guides" stroke="rgb(39, 170, 225)" stroke-width="0.5">
        <path id="Capline-S" d="M18,76 l800,0" />
        <path id="H-reference" d="M85,145.755 L87.685,145.755 L113.369,79.287 L114.052,79.287 L114.052,76 L112.148,76 L85,145.755 Z M95.693,121.536 L130.996,121.536 L130.263,119.313 L96.474,119.313 L95.693,121.536 Z M139.15,145.755 L141.787,145.755 L114.638,76 L113.466,76 L113.466,79.287 L139.15,145.755 Z" stroke="none" transform="translate(0,200)" />
        <path id="Baseline-S" d="M18,146 l800,0" />
        <path id="left-margin-Ultralight-M" d="M221,256 l0,110" />
        <path id="right-margin-Ultralight-M" d="M309,256 l0,110" />
        <path id="left-margin-Regular-M" d="M421,256 l0,110" />
        <path id="right-margin-Regular-M" d="M509,256 l0,110" />
        <path id="left-margin-Black-M" d="M621,256 l0,110" />
        <path id="right-margin-Black-M" d="M709,256 l0,110" />
        <path id="Capline-M" d="M18,276 l800,0" />
        <path id="Baseline-M" d="M18,346 l800,0" />
        <path id="Capline-L" d="M18,476 l800,0" />
        <path id="Baseline-L" d="M18,546 l800,0" />
    </g>
    <g id="Symbols">
        <g id="Ultralight-M" transform="translate(0,200)">
            <path d="M274.62,116.925 C274.053,117.568 273.456,118.203 272.83,118.829 C264.064,127.595 253.405,130.731 249.337,126.661 C246.71,124.035 247.003,118.421 250.439,112.059 C251.021,110.983 250.62,109.639 249.543,109.058 C248.467,108.476 247.123,108.877 246.542,109.954 C242.281,117.841 241.883,125.474 246.205,129.794 C252.514,136.106 265.696,132.228 275.962,121.961 C276.653,121.271 277.313,120.569 277.942,119.856 C278.751,118.939 278.664,117.539 277.746,116.73 C276.829,115.921 275.43,116.008 274.62,116.925 Z M255.298,105.161 C255.881,104.497 256.505,103.832 257.169,103.165 C265.931,94.403 276.591,91.269 280.662,95.339 C283.291,97.965 282.994,103.586 279.549,109.952 C278.967,111.028 279.367,112.372 280.443,112.954 C281.519,113.536 282.863,113.136 283.445,112.06 C287.716,104.169 288.119,96.528 283.794,92.205 C277.481,85.895 264.299,89.771 254.034,100.036 C253.303,100.769 252.615,101.503 251.969,102.238 C251.162,103.157 251.253,104.557 252.172,105.364 C253.091,106.171 254.491,106.08 255.298,105.161 Z M272.83,103.168 C281.596,111.934 284.732,122.593 280.662,126.661 C276.593,130.729 265.934,127.595 257.171,118.831 C248.404,110.066 245.269,99.407 249.339,95.339 C253.408,91.27 264.067,94.405 272.83,103.168 Z M275.962,100.036 C265.699,89.772 252.517,85.896 246.207,92.206 C239.894,98.516 243.771,111.699 254.039,121.964 C264.302,132.227 277.484,136.104 283.794,129.793 C290.107,123.484 286.229,110.302 275.962,100.036 Z M264.952,110.953 C264.952,110.953 264.952,110.953 264.952,110.953 C264.952,110.953 264.952,110.953 264.952,110.953 C264.952,110.953 264.952,110.953 264.952,110.953 C264.952,110.953 264.952,110.953 264.952,110.953 Z M269.382,110.953 C269.382,108.507 267.398,106.523 264.952,106.523 C262.505,106.523 260.522,108.507 260.522,110.953 C260.522,113.4 262.505,115.383 264.952,115.383 C267.398,115.383 269.382,113.4 269.382,110.953 Z" />
        </g>
        <g id="Regular-M" transform="translate(0,200)">
            <path d="M474.62,116.925 C474.053,117.568 473.456,118.203 472.83,118.829 C464.064,127.595 453.405,130.731 449.337,126.661 C446.71,124.035 447.003,118.421 450.439,112.059 C451.021,110.983 450.62,109.639 449.543,109.058 C448.467,108.476 447.123,108.877 446.542,109.954 C442.281,117.841 441.883,125.474 446.205,129.794 C452.514,136.106 465.696,132.228 475.962,121.961 C476.653,121.271 477.313,120.569 477.942,119.856 C478.751,118.939 478.664,117.539 477.746,116.73 C476.829,115.921 475.43,116.008 474.62,116.925 Z M455.298,105.161 C455.881,104.497 456.505,103.832 457.169,103.165 C465.931,94.403 476.591,91.269 480.662,95.339 C483.291,97.965 482.994,103.586 479.549,109.952 C478.967,111.028 479.367,112.372 480.443,112.954 C481.519,113.536 482.863,113.136 483.445,112.06 C487.716,104.169 488.119,96.528 483.794,92.205 C477.481,85.895 464.299,89.771 454.034,100.036 C453.303,100.769 452.615,101.503 451.969,102.238 C451.162,103.157 451.253,104.557 452.172,105.364 C453.091,106.171 454.491,106.08 455.298,105.161 Z M472.83,103.168 C481.596,111.934 484.732,122.593 480.662,126.661 C476.593,130.729 465.934,127.595 457.171,118.831 C448.404,110.066 445.269,99.407 449.339,95.339 C453.408,91.27 464.067,94.405 472.83,103.168 Z M475.962,100.036 C465.699,89.772 452.517,85.896 446.207,92.206 C439.894,98.516 443.771,111.699 454.039,121.964 C464.302,132.227 477.484,136.104 483.794,129.793 C490.107,123.484 486.229,110.302 475.962,100.036 Z M464.952,110.953 C464.952,110.953 464.952,110.953 464.952,110.953 C464.952,110.953 464.952,110.953 464.952,110.953 C464.952,110.953 464.952,110.953 464.952,110.953 C464.952,110.953 464.952,110.953 464.952,110.953 Z M469.382,110.953 C469.382,108.507 467.398,106.523 464.952,106.523 C462.505,106.523 460.522,108.507 460.522,110.953 C460.522,113.4 462.505,115.383 464.952,115.383 C467.398,115.383 469.382,113.4 469.382,110.953 Z" />
        </g>
        <g id="Black-M" transform="translate(0,200)">
            <path d="M674.62,116.925 C674.053,117.568 673.456,118.203 672.83,118.829 C664.064,127.595 653.405,130.731 649.337,126.661 C646.71,124.035 647.003,118.421 650.439,112.059 C651.021,110.983 650.62,109.639 649.543,109.058 C648.467,108.476 647.123,108.877 646.542,109.954 C642.281,117.841 641.883,125.474 646.205,129.794 C652.514,136.106 665.696,132.228 675.962,121.961 C676.653,121.271 677.313,120.569 677.942,119.856 C678.751,118.939 678.664,117.539 677.747,116.73 C676.829,115.921 675.43,116.008 674.62,116.925 Z M655.298,105.161 C655.881,104.497 656.505,103.832 657.169,103.165 C665.931,94.403 676.591,91.269 680.662,95.339 C683.291,97.965 682.994,103.586 679.549,109.952 C678.967,111.028 679.367,112.372 680.443,112.954 C681.519,113.536 682.863,113.136 683.445,112.06 C687.716,104.169 688.119,96.528 683.794,92.205 C677.481,85.895 664.299,89.771 654.034,100.036 C653.303,100.769 652.615,101.503 651.969,102.238 C651.162,103.157 651.253,104.557 652.172,105.364 C653.091,106.171 654.491,106.08 655.298,105.161 Z M672.83,103.168 C681.596,111.934 684.732,122.593 680.662,126.661 C676.594,130.729 665.934,127.595 657.171,118.831 C648.404,110.066 645.269,99.407 649.339,95.339 C653.408,91.27 664.067,94.405 672.83,103.168 Z M675.962,100.036 C665.699,89.772 652.517,85.896 646.207,92.206 C639.894,98.516 643.771,111.699 654.039,121.964 C664.302,132.227 677.484,136.104 683.794,129.793 C690.107,123.484 686.229,110.302 675.962,100.036 Z M664.952,110.953 C664.952,110.953 664.952,110.953 664.952,110.953 C664.952,110.953 664.952,110.953 664.952,110.953 C664.952,110.953 664.952,110.953 664.952,110.953 C664.952,110.953 664.952,110.953 664.952,110.953 Z M669.382,110.953 C669.382,108.507 667.398,106.523 664.952,106.523 C662.505,106.523 660.522,108.507 660.522,110.953 C660.522,113.4 662.505,115.383 664.952,115.383 C667.398,115.383 669.382,113.4 669.382,110.953 Z" />
        </g>
    </g>
</svg>