<?xml version="1.0" encoding="UTF-8"?>
<svg height="600" width="800" xmlns="http://www.w3.org/2000/svg" xmlns:xlink="http://www.w3.org/1999/xlink">
    <g id="Notes" font-family="LucidaGrande, 'Lucida Grande', sans-serif" font-size="13">
        <rect fill="white" height="600.0" width="800.0" x="0.0" y="0.0" />
        <g font-size="13">
            <text x="18.0" y="176.0">Small</text>
            <text x="18.0" y="376.0">Medium</text>
            <text x="18.0" y="576.0">Large</text>
        </g>
        <g font-size="9">
            <text x="250.0" y="30.0">Ultralight</text>
            <text x="450.0" y="30.0">Regular</text>
            <text x="650.0" y="30.0">Black</text>
            <text id="template-version" fill="#505050" text-anchor="end" x="785.0" y="575.0">Template v.3.0</text>
            <a href="https://github.com/swhitty/SwiftDraw">
                <text fill="#505050" text-anchor="end" x="785.0" y="590.0">https://github.com/swhitty/SwiftDraw</text>
            </a>
        </g>
    </g>
    <g id="Guides" stroke="rgb(39, 170, 225)" stroke-width="0.5">
        <path id="Capline-S" d="M18,76 l800,0" />
        <path id="H-reference" d="M85,145.755 L87.685,145.755 L113.369,79.287 L114.052,79.287 L114.052,76 L112.148,76 L85,145.755 Z M95.693,121.536 L130.996,121.536 L130.263,119.313 L96.474,119.313 L95.693,121.536 Z M139.15,145.755 L141.787,145.755 L114.638,76 L113.466,76 L113.466,79.287 L139.15,145.755 Z" stroke="none" transform="translate(0,200)" />
        <path id="Baseline-S" d="M18,146 l800,0" />
        <path id="left-margin-Ultralight-M" d="M230,256 l0,110" />
        <path id="right-margin-Ultralight-M" d="M300,256 l0,110" />
        <path id="left-margin-Regular-M" d="M430,256 l0,110" />
        <path id="right-margin-Regular-M" d="M500,256 l0,110" />
        <path id="left-margin-Black-M" d="M630,256 l0,110" />
        <path id="right-margin-Black-M" d="M700,256 l0,110" />
        <path id="Capline-M" d="M18,276 l800,0" />
        <path id="Baseline-M" d="M18,346 l800,0" />
        <path id="Capline-L" d="M18,476 l800,0" />
        <path id="Baseline-L" d="M18,546 l800,0" />
    </g>
    <g id="Symbols">
        <g id="Ultralight-M" transform="translate(0,200)">
            <path d="M267.917,128.5 L267.917,111 C267.917,109.389 266.611,108.083 265,108.083 C263.389,108.083 262.083,109.389 262.083,111 L262.083,128.5 C262.083,130.111 263.389,131.417 265,131.417 C266.611,131.417 267.917,130.111 267.917,128.5 Z M267.278,112.822 L278.944,98.239 C279.95,96.981 279.747,95.145 278.489,94.139 C277.231,93.133 275.395,93.337 274.389,94.595 L262.722,109.178 C261.716,110.436 261.92,112.271 263.178,113.278 C264.436,114.284 266.271,114.08 267.278,112.822 Z M267.278,109.178 L255.611,94.595 C254.605,93.337 252.769,93.133 251.511,94.139 C250.253,95.145 250.05,96.981 251.056,98.239 L262.722,112.822 C263.729,114.08 265.564,114.284 266.822,113.278 C268.08,112.271 268.284,110.436 267.278,109.178 Z M276.667,108.083 L253.333,108.083 C251.723,108.083 250.417,109.389 250.417,111 C250.417,112.611 251.723,113.917 253.333,113.917 L276.667,113.917 C278.277,113.917 279.583,112.611 279.583,111 C279.583,109.389 278.277,108.083 276.667,108.083 Z M275.208,116.833 L254.792,116.833 C253.181,116.833 251.875,118.139 251.875,119.75 C251.875,121.361 253.181,122.667 254.792,122.667 L275.208,122.667 C276.819,122.667 278.125,121.361 278.125,119.75 C278.125,118.139 276.819,116.833 275.208,116.833 Z M291.25,111 C291.25,125.498 279.498,137.25 265,137.25 C250.502,137.25 238.75,125.498 238.75,111 C238.75,96.502 250.502,84.75 265,84.75 C279.498,84.75 291.25,96.502 291.25,111 Z M297.083,111 C297.083,93.28 282.72,78.917 265,78.917 C247.28,78.917 232.917,93.28 232.917,111 C232.917,128.72 247.28,143.083 265,143.083 C282.72,143.083 297.083,128.72 297.083,111 Z" />
        </g>
        <g id="Regular-M" transform="translate(0,200)">
            <path d="M467.917,128.5 L467.917,111 C467.917,109.389 466.611,108.083 465,108.083 C463.389,108.083 462.083,109.389 462.083,111 L462.083,128.5 C462.083,130.111 463.389,131.417 465,131.417 C466.611,131.417 467.917,130.111 467.917,128.5 Z M467.278,112.822 L478.944,98.239 C479.95,96.981 479.747,95.145 478.489,94.139 C477.231,93.133 475.395,93.337 474.389,94.595 L462.722,109.178 C461.716,110.436 461.92,112.271 463.178,113.278 C464.436,114.284 466.271,114.08 467.278,112.822 Z M467.278,109.178 L455.611,94.595 C454.605,93.337 452.769,93.133 451.511,94.139 C450.253,95.145 450.05,96.981 451.056,98.239 L462.722,112.822 C463.729,114.08 465.564,114.284 466.822,113.278 C468.08,112.271 468.284,110.436 467.278,109.178 Z M476.667,108.083 L453.333,108.083 C451.723,108.083 450.417,109.389 450.417,111 C450.417,112.611 451.723,113.917 453.333,113.917 L476.667,113.917 C478.277,113.917 479.583,112.611 479.583,111 C479.583,109.389 478.277,108.083 476.667,108.083 Z M475.208,116.833 L454.792,116.833 C453.181,116.833 451.875,118.139 451.875,119.75 C451.875,121.361 453.181,122.667 454.792,122.667 L475.208,122.667 C476.819,122.667 478.125,121.361 478.125,119.75 C478.125,118.139 476.819,116.833 475.208,116.833 Z M491.25,111 C491.25,125.498 479.498,137.25 465,137.25 C450.502,137.25 438.75,125.498 438.75,111 C438.75,96.502 450.502,84.75 465,84.75 C479.498,84.75 491.25,96.502 491.25,111 Z M497.083,111 C497.083,93.28 482.72,78.917 465,78.917 C447.28,78.917 432.917,93.28 432.917,111 C432.917,128.72 447.28,143.083 465,143.083 C482.72,143.083 497.083,128.72 497.083,111 Z" />
        </g>
        <g id="Black-M" transform="translate(0,200)">
            <path d="M667.917,128.5 L667.917,111 C667.917,109.389 666.611,108.083 665,108.083 C663.389,108.083 662.083,109.389 662.083,111 L662.083,128.5 C662.083,130.111 663.389,131.417 665,131.417 C666.611,131.417 667.917,130.111 667.917,128.5 Z M667.278,112.822 L678.944,98.239 C679.951,96.981 679.747,95.145 678.489,94.139 C677.231,93.133 675.395,93.337 674.389,94.595 L662.722,109.178 C661.716,110.436 661.92,112.271 663.178,113.278 C664.436,114.284 666.271,114.08 667.278,112.822 Z M667.278,109.178 L655.611,94.595 C654.605,93.337 652.769,93.133 651.511,94.139 C650.253,95.145 650.049,96.981 651.056,98.239 L662.722,112.822 C663.729,114.08 665.564,114.284 666.822,113.278 C668.08,112.271 668.284,110.436 667.278,109.178 Z M676.667,108.083 L653.333,108.083 C651.723,108.083 650.417,109.389 650.417,111 C650.417,112.611 651.723,113.917 653.333,113.917 L676.667,113.917 C678.277,113.917 679.583,112.611 679.583,111 C679.583,109.389 678.277,108.083 676.667,108.083 Z M675.208,116.833 L654.792,116.833 C653.181,116.833 651.875,118.139 651.875,119.75 C651.875,121.361 653.181,122.667 654.792,122.667 L675.208,122.667 C676.819,122.667 678.125,121.361 678.125,119.75 C678.125,118.139 676.819,116.833 675.208,116.833 Z M691.25,111 C691.25,125.498 679.498,137.25 665,137.25 C650.502,137.25 638.75,125.498 638.75,111 C638.75,96.502 650.502,84.75 665,84.75 C679.498,84.75 691.25,96.502 691.25,111 Z M697.083,111 C697.083,93.28 682.72,78.917 665,78.917 C647.28,78.917 632.917,93.28 632.917,111 C632.917,128.72 647.28,143.083 665,143.083 C682.72,143.083 697.083,128.72 697.083,111 Z" />
        </g>
    </g>
</svg>