<?xml version="1.0" encoding="UTF-8"?>
<svg height="600" width="800" xmlns="http://www.w3.org/2000/svg" xmlns:xlink="http://www.w3.org/1999/xlink">
    <g id="Notes" font-family="LucidaGrande, 'Lucida Grande', sans-serif" font-size="13">
        <rect fill="white" height="600.0" width="800.0" x="0.0" y="0.0" />
        <g font-size="13">
            <text x="18.0" y="176.0">Small</text>
            <text x="18.0" y="376.0">Medium</text>
            <text x="18.0" y="576.0">Large</text>
        </g>
        <g font-size="9">
            <text x="250.0" y="30.0">Ultralight</text>
            <text x="450.0" y="30.0">Regular</text>
            <text x="650.0" y="30.0">Black</text>
            <text id="template-version" fill="#505050" text-anchor="end" x="785.0" y="575.0">Template v.3.0</text>
            <a href="https://github.com/swhitty/SwiftDraw">
                <text fill="#505050" text-anchor="end" x="785.0" y="590.0">https://github.com/swhitty/SwiftDraw</text>
            </a>
        </g>
    </g>
    <g id="Guides" stroke="rgb(39, 170, 225)" stroke-width="0.5">
        <path id="Capline-S" d="M18,76 l800,0" />
        <path id="H-reference" d="M85,145.755 L87.685,145.755 L113.369,79.287 L114.052,79.287 L114.052,76 L112.148,76 L85,145.755 Z M95.693,121.536 L130.996,121.536 L130.263,119.313 L96.474,119.313 L95.693,121.536 Z M139.15,145.755 L141.787,145.755 L114.638,76 L113.466,76 L113.466,79.287 L139.15,145.755 Z" stroke="none" transform="translate(0,200)" />
        <path id="Baseline-S" d="M18,146 l800,0" />
        <path id="left-margin-Ultralight-M" d="M230,256 l0,110" />
        <path id="right-margin-Ultralight-M" d="M300,256 l0,110" />
        <path id="left-margin-Regular-M" d="M430,256 l0,110" />
        <path id="right-margin-Regular-M" d="M500,256 l0,110" />
        <path id="left-margin-Black-M" d="M630,256 l0,110" />
        <path id="right-margin-Black-M" d="M700,256 l0,110" />
        <path id="Capline-M" d="M18,276 l800,0" />
        <path id="Baseline-M" d="M18,346 l800,0" />
        <path id="Capline-L" d="M18,476 l800,0" />
        <path id="Baseline-L" d="M18,546 l800,0" />
    </g>
    <g id="Symbols">
        <g id="Ultralight-M" transform="translate(0,200)">
            <path d="M261.818,79.5 L261.818,90 C261.818,91.933 263.243,93.5 265,93.5 C266.757,93.5 268.182,91.933 268.182,90 L268.182,79.5 C268.182,77.567 266.757,76 265,76 C263.243,76 261.818,77.567 261.818,79.5 Z M261.818,105.75 L261.818,116.25 C261.818,118.183 263.243,119.75 265,119.75 C266.757,119.75 268.182,118.183 268.182,116.25 L268.182,105.75 C268.182,103.817 266.757,102.25 265,102.25 C263.243,102.25 261.818,103.817 261.818,105.75 Z M261.818,132 L261.818,142.5 C261.818,144.433 263.243,146 265,146 C266.757,146 268.182,144.433 268.182,142.5 L268.182,132 C268.182,130.067 266.757,128.5 265,128.5 C263.243,128.5 261.818,130.067 261.818,132 Z M235.34,99.739 L249.302,111.555 C249.822,111.997 249.998,112.151 250.106,112.261 C250.028,112.182 249.891,111.985 249.765,111.622 C249.626,111.223 249.626,110.777 249.766,110.373 C249.89,110.017 250.026,109.822 250.104,109.743 C249.996,109.852 249.809,110.017 249.304,110.443 L235.34,122.261 C234.522,122.954 234.246,123.181 234.025,123.335 C234.086,123.292 234.311,123.195 234.79,123.201 C235.268,123.207 235.721,123.451 236.019,123.866 C236.325,124.303 236.388,124.544 236.393,124.61 C236.369,124.321 236.364,123.937 236.364,122.809 L236.364,99.184 C236.364,98.057 236.369,97.673 236.393,97.384 C236.387,97.459 236.322,97.708 236.03,98.118 C235.721,98.549 235.268,98.793 234.788,98.799 C234.309,98.805 234.086,98.709 234.025,98.666 C234.247,98.821 234.532,99.055 235.338,99.737 Z M239.222,94.193 C236.701,92.056 236.305,91.779 234.717,91.799 C233.278,91.816 231.92,92.549 231.026,93.794 C230.042,95.18 230,95.684 230,99.184 L230,122.809 C230,126.286 230.042,126.801 231.001,128.171 C231.92,129.451 233.278,130.184 234.72,130.201 C236.307,130.221 236.689,129.954 239.222,127.807 L253.182,115.993 C254.892,114.549 255.258,114.176 255.71,112.875 C256.13,111.669 256.13,110.331 255.708,109.12 C255.259,107.825 254.926,107.486 253.185,106.01 L239.22,94.191 Z M290.78,94.191 L276.818,106.007 C275.074,107.486 274.741,107.825 274.29,109.125 C273.87,110.331 273.87,111.669 274.292,112.88 C274.742,114.176 275.108,114.549 276.82,115.995 L290.78,127.806 C293.311,129.951 293.693,130.217 295.283,130.197 C296.725,130.177 298.079,129.444 298.971,128.202 C299.958,126.826 300,126.317 300,122.812 L300,99.188 C300,95.683 299.958,95.174 298.973,93.801 C298.079,92.556 296.725,91.823 295.287,91.803 C293.695,91.783 293.299,92.059 290.778,94.196 L292.72,96.968 L295.902,96.968 L295.902,96.965 C295.902,94.061 292.872,92.42 290.78,94.191 Z M294.66,99.739 L292.72,96.965 L289.538,96.965 L289.538,96.968 C289.538,99.874 292.57,101.514 294.662,99.741 C295.468,99.058 295.753,98.825 295.975,98.67 C295.914,98.712 295.691,98.808 295.21,98.802 C294.726,98.796 294.275,98.551 293.978,98.137 C293.68,97.722 293.613,97.469 293.607,97.391 C293.63,97.678 293.636,98.061 293.636,99.188 L293.636,122.812 C293.636,123.939 293.63,124.322 293.607,124.609 C293.613,124.531 293.68,124.278 293.976,123.866 C294.275,123.449 294.726,123.204 295.206,123.198 C295.689,123.192 295.914,123.288 295.975,123.331 C295.754,123.177 295.478,122.95 294.662,122.259 L280.698,110.445 C280.191,110.017 280.004,109.852 279.896,109.743 C279.974,109.822 280.11,110.017 280.235,110.378 C280.374,110.777 280.374,111.223 280.234,111.626 C280.109,111.985 279.972,112.182 279.894,112.261 C280.002,112.151 280.178,111.997 280.702,111.552 L294.66,99.739 Z" />
        </g>
        <g id="Regular-M" transform="translate(0,200)">
            <path d="M461.818,79.5 L461.818,90 C461.818,91.933 463.243,93.5 465,93.5 C466.757,93.5 468.182,91.933 468.182,90 L468.182,79.5 C468.182,77.567 466.757,76 465,76 C463.243,76 461.818,77.567 461.818,79.5 Z M461.818,105.75 L461.818,116.25 C461.818,118.183 463.243,119.75 465,119.75 C466.757,119.75 468.182,118.183 468.182,116.25 L468.182,105.75 C468.182,103.817 466.757,102.25 465,102.25 C463.243,102.25 461.818,103.817 461.818,105.75 Z M461.818,132 L461.818,142.5 C461.818,144.433 463.243,146 465,146 C466.757,146 468.182,144.433 468.182,142.5 L468.182,132 C468.182,130.067 466.757,128.5 465,128.5 C463.243,128.5 461.818,130.067 461.818,132 Z M435.34,99.739 L449.302,111.555 C449.822,111.997 449.998,112.151 450.106,112.261 C450.028,112.182 449.891,111.985 449.765,111.622 C449.626,111.223 449.626,110.777 449.766,110.373 C449.89,110.017 450.026,109.822 450.104,109.743 C449.996,109.852 449.809,110.017 449.304,110.443 L435.34,122.261 C434.522,122.954 434.246,123.181 434.025,123.335 C434.086,123.292 434.311,123.195 434.79,123.201 C435.268,123.207 435.721,123.451 436.019,123.866 C436.325,124.303 436.388,124.544 436.393,124.61 C436.369,124.321 436.364,123.937 436.364,122.809 L436.364,99.184 C436.364,98.057 436.369,97.673 436.393,97.384 C436.387,97.459 436.322,97.708 436.03,98.118 C435.721,98.549 435.268,98.793 434.788,98.799 C434.309,98.805 434.086,98.709 434.025,98.666 C434.247,98.821 434.532,99.055 435.338,99.737 Z M439.222,94.193 C436.701,92.056 436.305,91.779 434.717,91.799 C433.278,91.816 431.92,92.549 431.026,93.794 C430.042,95.18 430,95.684 430,99.184 L430,122.809 C430,126.286 430.042,126.801 431.001,128.171 C431.92,129.451 433.278,130.184 434.72,130.201 C436.307,130.221 436.689,129.954 439.222,127.807 L453.182,115.993 C454.892,114.549 455.258,114.176 455.71,112.875 C456.13,111.669 456.13,110.331 455.708,109.12 C455.259,107.825 454.926,107.486 453.185,106.01 L439.22,94.191 Z M490.78,94.191 L476.818,106.007 C475.074,107.486 474.741,107.825 474.29,109.125 C473.87,110.331 473.87,111.669 474.292,112.88 C474.742,114.176 475.108,114.549 476.82,115.995 L490.78,127.806 C493.311,129.951 493.693,130.217 495.283,130.197 C496.725,130.177 498.079,129.444 498.971,128.202 C499.958,126.826 500,126.317 500,122.812 L500,99.188 C500,95.683 499.958,95.174 498.973,93.801 C498.079,92.556 496.725,91.823 495.287,91.803 C493.695,91.783 493.299,92.059 490.778,94.196 L492.72,96.968 L495.902,96.968 L495.902,96.965 C495.902,94.061 492.872,92.42 490.78,94.191 Z M494.66,99.739 L492.72,96.965 L489.538,96.965 L489.538,96.968 C489.538,99.874 492.57,101.514 494.662,99.741 C495.468,99.058 495.753,98.825 495.975,98.67 C495.914,98.712 495.691,98.808 495.21,98.802 C494.726,98.796 494.275,98.551 493.978,98.137 C493.68,97.722 493.613,97.469 493.607,97.391 C493.63,97.678 493.636,98.061 493.636,99.188 L493.636,122.812 C493.636,123.939 493.63,124.322 493.607,124.609 C493.613,124.531 493.68,124.278 493.976,123.866 C494.275,123.449 494.726,123.204 495.206,123.198 C495.689,123.192 495.914,123.288 495.975,123.331 C495.754,123.177 495.478,122.95 494.662,122.259 L480.698,110.445 C480.191,110.017 480.004,109.852 479.896,109.743 C479.974,109.822 480.11,110.017 480.235,110.378 C480.374,110.777 480.374,111.223 480.234,111.626 C480.109,111.985 479.972,112.182 479.894,112.261 C480.002,112.151 480.178,111.997 480.702,111.552 L494.66,99.739 Z" />
        </g>
        <g id="Black-M" transform="translate(0,200)">
            <path d="M661.818,79.5 L661.818,90 C661.818,91.933 663.243,93.5 665,93.5 C666.757,93.5 668.182,91.933 668.182,90 L668.182,79.5 C668.182,77.567 666.757,76 665,76 C663.243,76 661.818,77.567 661.818,79.5 Z M661.818,105.75 L661.818,116.25 C661.818,118.183 663.243,119.75 665,119.75 C666.757,119.75 668.182,118.183 668.182,116.25 L668.182,105.75 C668.182,103.817 666.757,102.25 665,102.25 C663.243,102.25 661.818,103.817 661.818,105.75 Z M661.818,132 L661.818,142.5 C661.818,144.433 663.243,146 665,146 C666.757,146 668.182,144.433 668.182,142.5 L668.182,132 C668.182,130.067 666.757,128.5 665,128.5 C663.243,128.5 661.818,130.067 661.818,132 Z M635.34,99.739 L649.302,111.555 C649.822,111.997 649.998,112.151 650.106,112.261 C650.028,112.182 649.891,111.985 649.765,111.622 C649.626,111.223 649.626,110.777 649.766,110.373 C649.89,110.017 650.026,109.822 650.104,109.743 C649.996,109.852 649.809,110.017 649.304,110.443 L635.34,122.261 C634.522,122.954 634.245,123.181 634.025,123.335 C634.086,123.292 634.311,123.195 634.79,123.201 C635.268,123.207 635.721,123.451 636.019,123.866 C636.325,124.303 636.388,124.544 636.393,124.61 C636.369,124.321 636.364,123.937 636.364,122.809 L636.364,99.184 C636.364,98.057 636.369,97.673 636.393,97.384 C636.387,97.459 636.322,97.708 636.03,98.118 C635.721,98.549 635.268,98.793 634.788,98.799 C634.309,98.805 634.086,98.709 634.025,98.666 C634.247,98.821 634.532,99.055 635.338,99.737 Z M639.222,94.193 C636.701,92.056 636.305,91.779 634.717,91.799 C633.278,91.816 631.92,92.549 631.026,93.794 C630.042,95.18 630,95.684 630,99.184 L630,122.809 C630,126.286 630.042,126.801 631.001,128.171 C631.92,129.451 633.278,130.184 634.72,130.201 C636.307,130.221 636.689,129.954 639.222,127.807 L653.182,115.993 C654.892,114.549 655.258,114.176 655.71,112.875 C656.13,111.669 656.13,110.331 655.708,109.12 C655.259,107.825 654.926,107.486 653.185,106.01 L639.22,94.191 Z M690.78,94.191 L676.818,106.007 C675.074,107.486 674.741,107.825 674.29,109.125 C673.87,110.331 673.87,111.669 674.292,112.88 C674.742,114.176 675.108,114.549 676.82,115.995 L690.78,127.806 C693.311,129.951 693.693,130.217 695.283,130.197 C696.725,130.177 698.079,129.444 698.971,128.202 C699.958,126.826 700,126.317 700,122.812 L700,99.188 C700,95.683 699.958,95.174 698.973,93.801 C698.079,92.556 696.725,91.823 695.287,91.803 C693.695,91.783 693.299,92.059 690.778,94.196 L692.72,96.968 L695.902,96.968 L695.902,96.965 C695.902,94.061 692.872,92.42 690.78,94.191 Z M694.66,99.739 L692.72,96.965 L689.538,96.965 L689.538,96.968 C689.538,99.874 692.57,101.514 694.662,99.741 C695.468,99.058 695.753,98.825 695.975,98.67 C695.914,98.712 695.691,98.808 695.21,98.802 C694.727,98.796 694.275,98.551 693.978,98.137 C693.68,97.722 693.613,97.469 693.607,97.391 C693.63,97.678 693.636,98.061 693.636,99.188 L693.636,122.812 C693.636,123.939 693.63,124.322 693.607,124.609 C693.613,124.531 693.68,124.278 693.976,123.866 C694.275,123.449 694.727,123.204 695.206,123.198 C695.689,123.192 695.914,123.288 695.975,123.331 C695.755,123.177 695.478,122.95 694.662,122.259 L680.698,110.445 C680.191,110.017 680.004,109.852 679.896,109.743 C679.974,109.822 680.11,110.017 680.235,110.378 C680.374,110.777 680.374,111.223 680.234,111.626 C680.109,111.985 679.972,112.182 679.894,112.261 C680.002,112.151 680.178,111.997 680.702,111.552 L694.66,99.739 Z" />
        </g>
    </g>
</svg>