<?xml version="1.0" encoding="UTF-8"?>
<svg height="600" width="800" xmlns="http://www.w3.org/2000/svg" xmlns:xlink="http://www.w3.org/1999/xlink">
    <g id="Notes" font-family="LucidaGrande, 'Lucida Grande', sans-serif" font-size="13">
        <rect fill="white" height="600.0" width="800.0" x="0.0" y="0.0" />
        <g font-size="13">
            <text x="18.0" y="176.0">Small</text>
            <text x="18.0" y="376.0">Medium</text>
            <text x="18.0" y="576.0">Large</text>
        </g>
        <g font-size="9">
            <text x="250.0" y="30.0">Ultralight</text>
            <text x="450.0" y="30.0">Regular</text>
            <text x="650.0" y="30.0">Black</text>
            <text id="template-version" fill="#505050" text-anchor="end" x="785.0" y="575.0">Template v.3.0</text>
            <a href="https://github.com/swhitty/SwiftDraw">
                <text fill="#505050" text-anchor="end" x="785.0" y="590.0">https://github.com/swhitty/SwiftDraw</text>
            </a>
        </g>
    </g>
    <g id="Guides" stroke="rgb(39, 170, 225)" stroke-width="0.5">
        <path id="Capline-S" d="M18,76 l800,0" />
        <path id="H-reference" d="M85,145.755 L87.685,145.755 L113.369,79.287 L114.052,79.287 L114.052,76 L112.148,76 L85,145.755 Z M95.693,121.536 L130.996,121.536 L130.263,119.313 L96.474,119.313 L95.693,121.536 Z M139.15,145.755 L141.787,145.755 L114.638,76 L113.466,76 L113.466,79.287 L139.15,145.755 Z" stroke="none" transform="translate(0,200)" />
        <path id="Baseline-S" d="M18,146 l800,0" />
        <path id="left-margin-Ultralight-M" d="M236.364,256 l0,110" />
        <path id="right-margin-Ultralight-M" d="M293.636,256 l0,110" />
        <path id="left-margin-Regular-M" d="M436.364,256 l0,110" />
        <path id="right-margin-Regular-M" d="M493.636,256 l0,110" />
        <path id="left-margin-Black-M" d="M636.364,256 l0,110" />
        <path id="right-margin-Black-M" d="M693.636,256 l0,110" />
        <path id="Capline-M" d="M18,276 l800,0" />
        <path id="Baseline-M" d="M18,346 l800,0" />
        <path id="Capline-L" d="M18,476 l800,0" />
        <path id="Baseline-L" d="M18,546 l800,0" />
    </g>
    <g id="Symbols">
        <g id="Ultralight-M" transform="translate(0,200)">
            <path d="M265,131.682 L265.032,131.682 C266.789,131.682 268.214,130.257 268.214,128.5 C268.214,126.743 266.789,125.318 265.032,125.318 L265,125.318 C263.243,125.318 261.818,126.743 261.818,128.5 C261.818,130.257 263.243,131.682 265,131.682 Z M249.727,146 L280.273,146 C285.367,146 286.576,145.901 288.424,144.96 C290.221,144.044 291.681,142.584 292.596,140.788 C293.538,138.939 293.636,137.73 293.636,132.636 L293.636,89.364 C293.636,84.27 293.538,83.061 292.596,81.212 C291.681,79.416 290.221,77.956 288.425,77.04 C286.576,76.099 285.367,76 280.273,76 L249.727,76 C244.633,76 243.424,76.099 241.576,77.04 C239.779,77.956 238.319,79.416 237.404,81.212 C236.462,83.061 236.364,84.27 236.364,89.364 L236.364,132.636 C236.364,137.73 236.462,138.939 237.404,140.788 C238.319,142.584 239.779,144.044 241.575,144.96 C243.424,145.901 244.633,146 249.727,146 Z M249.727,139.636 C245.912,139.636 244.999,139.562 244.464,139.289 C243.866,138.984 243.379,138.498 243.074,137.899 C242.802,137.365 242.727,136.452 242.727,132.636 L242.727,89.364 C242.727,85.548 242.802,84.635 243.074,84.1 C243.379,83.502 243.866,83.016 244.465,82.71 C244.999,82.438 245.912,82.364 249.727,82.364 L280.273,82.364 C284.088,82.364 285.001,82.438 285.536,82.711 C286.134,83.016 286.621,83.502 286.926,84.101 C287.198,84.635 287.273,85.548 287.273,89.364 L287.273,132.636 C287.273,136.452 287.198,137.365 286.926,137.9 C286.621,138.498 286.134,138.984 285.535,139.29 C285.001,139.562 284.088,139.636 280.273,139.636 L249.727,139.636 Z M263.409,128.5 C263.409,127.621 264.121,126.909 265,126.909 C265.879,126.909 266.591,127.621 266.591,128.5 C266.591,129.379 265.879,130.091 265,130.091 C264.121,130.091 263.409,129.379 263.409,128.5 Z M269.773,128.5 C269.773,125.864 267.636,123.727 265,123.727 C262.364,123.727 260.227,125.864 260.227,128.5 C260.227,131.136 262.364,133.273 265,133.273 C267.636,133.273 269.773,131.136 269.773,128.5 Z" />
        </g>
        <g id="Regular-M" transform="translate(0,200)">
            <path d="M465,131.682 L465.032,131.682 C466.789,131.682 468.214,130.257 468.214,128.5 C468.214,126.743 466.789,125.318 465.032,125.318 L465,125.318 C463.243,125.318 461.818,126.743 461.818,128.5 C461.818,130.257 463.243,131.682 465,131.682 Z M449.727,146 L480.273,146 C485.367,146 486.576,145.901 488.424,144.96 C490.221,144.044 491.681,142.584 492.596,140.788 C493.538,138.939 493.636,137.73 493.636,132.636 L493.636,89.364 C493.636,84.27 493.538,83.061 492.596,81.212 C491.681,79.416 490.221,77.956 488.425,77.04 C486.576,76.099 485.367,76 480.273,76 L449.727,76 C444.633,76 443.424,76.099 441.576,77.04 C439.779,77.956 438.319,79.416 437.404,81.212 C436.462,83.061 436.364,84.27 436.364,89.364 L436.364,132.636 C436.364,137.73 436.462,138.939 437.404,140.788 C438.319,142.584 439.779,144.044 441.575,144.96 C443.424,145.901 444.633,146 449.727,146 Z M449.727,139.636 C445.912,139.636 444.999,139.562 444.464,139.289 C443.866,138.984 443.379,138.498 443.074,137.899 C442.802,137.365 442.727,136.452 442.727,132.636 L442.727,89.364 C442.727,85.548 442.802,84.635 443.074,84.1 C443.379,83.502 443.866,83.016 444.465,82.71 C444.999,82.438 445.912,82.364 449.727,82.364 L480.273,82.364 C484.088,82.364 485.001,82.438 485.536,82.711 C486.134,83.016 486.621,83.502 486.926,84.101 C487.198,84.635 487.273,85.548 487.273,89.364 L487.273,132.636 C487.273,136.452 487.198,137.365 486.926,137.9 C486.621,138.498 486.134,138.984 485.535,139.29 C485.001,139.562 484.088,139.636 480.273,139.636 L449.727,139.636 Z M463.409,128.5 C463.409,127.621 464.121,126.909 465,126.909 C465.879,126.909 466.591,127.621 466.591,128.5 C466.591,129.379 465.879,130.091 465,130.091 C464.121,130.091 463.409,129.379 463.409,128.5 Z M469.773,128.5 C469.773,125.864 467.636,123.727 465,123.727 C462.364,123.727 460.227,125.864 460.227,128.5 C460.227,131.136 462.364,133.273 465,133.273 C467.636,133.273 469.773,131.136 469.773,128.5 Z" />
        </g>
        <g id="Black-M" transform="translate(0,200)">
            <path d="M665,131.682 L665.032,131.682 C666.789,131.682 668.214,130.257 668.214,128.5 C668.214,126.743 666.789,125.318 665.032,125.318 L665,125.318 C663.243,125.318 661.818,126.743 661.818,128.5 C661.818,130.257 663.243,131.682 665,131.682 Z M649.727,146 L680.273,146 C685.367,146 686.576,145.901 688.424,144.96 C690.221,144.044 691.681,142.584 692.596,140.788 C693.538,138.939 693.636,137.73 693.636,132.636 L693.636,89.364 C693.636,84.27 693.538,83.061 692.596,81.212 C691.681,79.416 690.221,77.956 688.425,77.04 C686.576,76.099 685.367,76 680.273,76 L649.727,76 C644.633,76 643.424,76.099 641.576,77.04 C639.779,77.956 638.319,79.416 637.404,81.212 C636.462,83.061 636.364,84.27 636.364,89.364 L636.364,132.636 C636.364,137.73 636.462,138.939 637.404,140.788 C638.319,142.584 639.779,144.044 641.575,144.96 C643.424,145.901 644.633,146 649.727,146 Z M649.727,139.636 C645.912,139.636 644.999,139.562 644.464,139.289 C643.866,138.984 643.379,138.498 643.074,137.899 C642.802,137.365 642.727,136.452 642.727,132.636 L642.727,89.364 C642.727,85.548 642.802,84.635 643.074,84.1 C643.379,83.502 643.866,83.016 644.465,82.71 C644.999,82.438 645.912,82.364 649.727,82.364 L680.273,82.364 C684.088,82.364 685.001,82.438 685.536,82.711 C686.134,83.016 686.621,83.502 686.926,84.101 C687.198,84.635 687.273,85.548 687.273,89.364 L687.273,132.636 C687.273,136.452 687.198,137.365 686.926,137.9 C686.621,138.498 686.134,138.984 685.535,139.29 C685.001,139.562 684.088,139.636 680.273,139.636 L649.727,139.636 Z M663.409,128.5 C663.409,127.621 664.121,126.909 665,126.909 C665.879,126.909 666.591,127.621 666.591,128.5 C666.591,129.379 665.879,130.091 665,130.091 C664.121,130.091 663.409,129.379 663.409,128.5 Z M669.773,128.5 C669.773,125.864 667.636,123.727 665,123.727 C662.364,123.727 660.227,125.864 660.227,128.5 C660.227,131.136 662.364,133.273 665,133.273 C667.636,133.273 669.773,131.136 669.773,128.5 Z" />
        </g>
    </g>
</svg>