<?xml version="1.0" encoding="UTF-8"?>
<svg height="600" width="800" xmlns="http://www.w3.org/2000/svg" xmlns:xlink="http://www.w3.org/1999/xlink">
    <g id="Notes" font-family="LucidaGrande, 'Lucida Grande', sans-serif" font-size="13">
        <rect fill="white" height="600.0" width="800.0" x="0.0" y="0.0" />
        <g font-size="13">
            <text x="18.0" y="176.0">Small</text>
            <text x="18.0" y="376.0">Medium</text>
            <text x="18.0" y="576.0">Large</text>
        </g>
        <g font-size="9">
            <text x="250.0" y="30.0">Ultralight</text>
            <text x="450.0" y="30.0">Regular</text>
            <text x="650.0" y="30.0">Black</text>
            <text id="template-version" fill="#505050" text-anchor="end" x="785.0" y="575.0">Template v.3.0</text>
            <a href="https://github.com/swhitty/SwiftDraw">
                <text fill="#505050" text-anchor="end" x="785.0" y="590.0">https://github.com/swhitty/SwiftDraw</text>
            </a>
        </g>
    </g>
    <g id="Guides" stroke="rgb(39, 170, 225)" stroke-width="0.5">
        <path id="Capline-S" d="M18,76 l800,0" />
        <path id="H-reference" d="M85,145.755 L87.685,145.755 L113.369,79.287 L114.052,79.287 L114.052,76 L112.148,76 L85,145.755 Z M95.693,121.536 L130.996,121.536 L130.263,119.313 L96.474,119.313 L95.693,121.536 Z M139.15,145.755 L141.787,145.755 L114.638,76 L113.466,76 L113.466,79.287 L139.15,145.755 Z" stroke="none" transform="translate(0,200)" />
        <path id="Baseline-S" d="M18,146 l800,0" />
        <path id="left-margin-Ultralight-M" d="M230,256 l0,110" />
        <path id="right-margin-Ultralight-M" d="M300,256 l0,110" />
        <path id="left-margin-Regular-M" d="M430,256 l0,110" />
        <path id="right-margin-Regular-M" d="M500,256 l0,110" />
        <path id="left-margin-Black-M" d="M630,256 l0,110" />
        <path id="right-margin-Black-M" d="M700,256 l0,110" />
        <path id="Capline-M" d="M18,276 l800,0" />
        <path id="Baseline-M" d="M18,346 l800,0" />
        <path id="Capline-L" d="M18,476 l800,0" />
        <path id="Baseline-L" d="M18,546 l800,0" />
    </g>
    <g id="Symbols">
        <g id="Ultralight-M" transform="translate(0,200)">
            <path d="M230,128.5 L230,142.5 C230,144.433 231.567,146 233.5,146 C235.433,146 237,144.433 237,142.5 L237,128.5 C237,126.567 235.433,125 233.5,125 C231.567,125 230,126.567 230,128.5 Z M272,97 L272,142.5 C272,144.433 273.567,146 275.5,146 C277.433,146 279,144.433 279,142.5 L279,97 C279,95.067 277.433,93.5 275.5,93.5 C273.567,93.5 272,95.067 272,97 Z M251,114.5 L251,142.5 C251,144.433 252.567,146 254.5,146 C256.433,146 258,144.433 258,142.5 L258,114.5 C258,112.567 256.433,111 254.5,111 C252.567,111 251,112.567 251,114.5 Z M293,79.5 L293,142.5 C293,144.433 294.567,146 296.5,146 C298.433,146 300,144.433 300,142.5 L300,79.5 C300,77.567 298.433,76 296.5,76 C294.567,76 293,77.567 293,79.5 Z" />
        </g>
        <g id="Regular-M" transform="translate(0,200)">
            <path d="M430,128.5 L430,142.5 C430,144.433 431.567,146 433.5,146 C435.433,146 437,144.433 437,142.5 L437,128.5 C437,126.567 435.433,125 433.5,125 C431.567,125 430,126.567 430,128.5 Z M472,97 L472,142.5 C472,144.433 473.567,146 475.5,146 C477.433,146 479,144.433 479,142.5 L479,97 C479,95.067 477.433,93.5 475.5,93.5 C473.567,93.5 472,95.067 472,97 Z M451,114.5 L451,142.5 C451,144.433 452.567,146 454.5,146 C456.433,146 458,144.433 458,142.5 L458,114.5 C458,112.567 456.433,111 454.5,111 C452.567,111 451,112.567 451,114.5 Z M493,79.5 L493,142.5 C493,144.433 494.567,146 496.5,146 C498.433,146 500,144.433 500,142.5 L500,79.5 C500,77.567 498.433,76 496.5,76 C494.567,76 493,77.567 493,79.5 Z" />
        </g>
        <g id="Black-M" transform="translate(0,200)">
            <path d="M630,128.5 L630,142.5 C630,144.433 631.567,146 633.5,146 C635.433,146 637,144.433 637,142.5 L637,128.5 C637,126.567 635.433,125 633.5,125 C631.567,125 630,126.567 630,128.5 Z M672,97 L672,142.5 C672,144.433 673.567,146 675.5,146 C677.433,146 679,144.433 679,142.5 L679,97 C679,95.067 677.433,93.5 675.5,93.5 C673.567,93.5 672,95.067 672,97 Z M651,114.5 L651,142.5 C651,144.433 652.567,146 654.5,146 C656.433,146 658,144.433 658,142.5 L658,114.5 C658,112.567 656.433,111 654.5,111 C652.567,111 651,112.567 651,114.5 Z M693,79.5 L693,142.5 C693,144.433 694.567,146 696.5,146 C698.433,146 700,144.433 700,142.5 L700,79.5 C700,77.567 698.433,76 696.5,76 C694.567,76 693,77.567 693,79.5 Z" />
        </g>
    </g>
</svg>