<?xml version="1.0" encoding="UTF-8"?>
<svg height="600" width="800" xmlns="http://www.w3.org/2000/svg" xmlns:xlink="http://www.w3.org/1999/xlink">
    <g id="Notes" font-family="LucidaGrande, 'Lucida Grande', sans-serif" font-size="13">
        <rect fill="white" height="600.0" width="800.0" x="0.0" y="0.0" />
        <g font-size="13">
            <text x="18.0" y="176.0">Small</text>
            <text x="18.0" y="376.0">Medium</text>
            <text x="18.0" y="576.0">Large</text>
        </g>
        <g font-size="9">
            <text x="250.0" y="30.0">Ultralight</text>
            <text x="450.0" y="30.0">Regular</text>
            <text x="650.0" y="30.0">Black</text>
            <text id="template-version" fill="#505050" text-anchor="end" x="785.0" y="575.0">Template v.3.0</text>
            <a href="https://github.com/swhitty/SwiftDraw">
                <text fill="#505050" text-anchor="end" x="785.0" y="590.0">https://github.com/swhitty/SwiftDraw</text>
            </a>
        </g>
    </g>
    <g id="Guides" stroke="rgb(39, 170, 225)" stroke-width="0.5">
        <path id="Capline-S" d="M18,76 l800,0" />
        <path id="H-reference" d="M85,145.755 L87.685,145.755 L113.369,79.287 L114.052,79.287 L114.052,76 L112.148,76 L85,145.755 Z M95.693,121.536 L130.996,121.536 L130.263,119.313 L96.474,119.313 L95.693,121.536 Z M139.15,145.755 L141.787,145.755 L114.638,76 L113.466,76 L113.466,79.287 L139.15,145.755 Z" stroke="none" transform="translate(0,200)" />
        <path id="Baseline-S" d="M18,146 l800,0" />
        <path id="left-margin-Ultralight-M" d="M221,256 l0,110" />
        <path id="right-margin-Ultralight-M" d="M309,256 l0,110" />
        <path id="left-margin-Regular-M" d="M421,256 l0,110" />
        <path id="right-margin-Regular-M" d="M509,256 l0,110" />
        <path id="left-margin-Black-M" d="M621,256 l0,110" />
        <path id="right-margin-Black-M" d="M709,256 l0,110" />
        <path id="Capline-M" d="M18,276 l800,0" />
        <path id="Baseline-M" d="M18,346 l800,0" />
        <path id="Capline-L" d="M18,476 l800,0" />
        <path id="Baseline-L" d="M18,546 l800,0" />
    </g>
    <g id="Symbols">
        <g id="Ultralight-M" transform="translate(0,200)">
            <path d="M285.842,127.211 L285.842,120.263 C285.842,118.984 284.805,117.947 283.526,117.947 L253.421,117.947 C250.964,117.947 248.608,118.923 246.871,120.66 C245.134,122.398 244.158,124.754 244.158,127.211 C244.158,128.49 245.195,129.526 246.474,129.526 C247.753,129.526 248.789,128.49 248.789,127.211 C248.789,125.982 249.277,124.804 250.146,123.936 C251.015,123.067 252.193,122.579 253.421,122.579 L283.526,122.579 L281.211,120.263 L281.211,127.211 C281.211,128.49 282.247,129.526 283.526,129.526 C284.805,129.526 285.842,128.49 285.842,127.211 Z M257.589,136.474 L276.116,136.474 C279.823,136.474 280.703,136.402 282.049,135.717 C283.356,135.05 284.419,133.988 285.085,132.68 C285.77,131.335 285.842,130.455 285.842,126.747 L285.842,95.253 C285.842,91.545 285.77,90.665 285.085,89.32 C284.419,88.012 283.356,86.95 282.049,86.284 C280.703,85.598 279.823,85.526 276.116,85.526 L257.589,85.526 C252.261,85.526 250.995,85.63 249.216,86.536 C247.473,87.424 246.056,88.841 245.168,90.584 C244.261,92.363 244.158,93.629 244.158,98.958 L244.158,123.042 C244.158,128.371 244.261,129.637 245.167,131.416 C246.056,133.159 247.473,134.576 249.216,135.464 C250.995,136.37 252.261,136.474 257.589,136.474 Z M257.589,131.842 C253.192,131.842 252.141,131.756 251.318,131.337 C250.447,130.893 249.738,130.185 249.294,129.313 C248.875,128.491 248.789,127.44 248.789,123.042 L248.789,98.958 C248.789,94.56 248.875,93.509 249.294,92.686 C249.738,91.815 250.447,91.107 251.318,90.663 C252.141,90.244 253.192,90.158 257.589,90.158 L276.116,90.158 C278.893,90.158 279.557,90.212 279.946,90.41 C280.382,90.632 280.736,90.987 280.958,91.422 C281.156,91.811 281.211,92.476 281.211,95.253 L281.211,126.747 C281.211,129.524 281.156,130.189 280.958,130.578 C280.736,131.013 280.382,131.368 279.946,131.59 C279.557,131.788 278.893,131.842 276.116,131.842 L257.589,131.842 Z" />
        </g>
        <g id="Regular-M" transform="translate(0,200)">
            <path d="M485.842,127.211 L485.842,120.263 C485.842,118.984 484.805,117.947 483.526,117.947 L453.421,117.947 C450.964,117.947 448.608,118.923 446.871,120.66 C445.134,122.398 444.158,124.754 444.158,127.211 C444.158,128.49 445.195,129.526 446.474,129.526 C447.753,129.526 448.789,128.49 448.789,127.211 C448.789,125.982 449.277,124.804 450.146,123.936 C451.015,123.067 452.193,122.579 453.421,122.579 L483.526,122.579 L481.211,120.263 L481.211,127.211 C481.211,128.49 482.247,129.526 483.526,129.526 C484.805,129.526 485.842,128.49 485.842,127.211 Z M457.589,136.474 L476.116,136.474 C479.823,136.474 480.703,136.402 482.049,135.717 C483.356,135.05 484.419,133.988 485.085,132.68 C485.77,131.335 485.842,130.455 485.842,126.747 L485.842,95.253 C485.842,91.545 485.77,90.665 485.085,89.32 C484.419,88.012 483.356,86.95 482.049,86.284 C480.703,85.598 479.823,85.526 476.116,85.526 L457.589,85.526 C452.261,85.526 450.995,85.63 449.216,86.536 C447.473,87.424 446.056,88.841 445.168,90.584 C444.261,92.363 444.158,93.629 444.158,98.958 L444.158,123.042 C444.158,128.371 444.261,129.637 445.167,131.416 C446.056,133.159 447.473,134.576 449.216,135.464 C450.995,136.37 452.261,136.474 457.589,136.474 Z M457.589,131.842 C453.192,131.842 452.141,131.756 451.318,131.337 C450.447,130.893 449.738,130.185 449.294,129.313 C448.875,128.491 448.789,127.44 448.789,123.042 L448.789,98.958 C448.789,94.56 448.875,93.509 449.294,92.686 C449.738,91.815 450.447,91.107 451.318,90.663 C452.141,90.244 453.192,90.158 457.589,90.158 L476.116,90.158 C478.893,90.158 479.557,90.212 479.946,90.41 C480.382,90.632 480.736,90.987 480.958,91.422 C481.156,91.811 481.211,92.476 481.211,95.253 L481.211,126.747 C481.211,129.524 481.156,130.189 480.958,130.578 C480.736,131.013 480.382,131.368 479.946,131.59 C479.557,131.788 478.893,131.842 476.116,131.842 L457.589,131.842 Z" />
        </g>
        <g id="Black-M" transform="translate(0,200)">
            <path d="M685.842,127.211 L685.842,120.263 C685.842,118.984 684.805,117.947 683.526,117.947 L653.421,117.947 C650.964,117.947 648.608,118.923 646.871,120.66 C645.134,122.398 644.158,124.754 644.158,127.211 C644.158,128.49 645.195,129.526 646.474,129.526 C647.753,129.526 648.789,128.49 648.789,127.211 C648.789,125.982 649.277,124.804 650.146,123.936 C651.015,123.067 652.193,122.579 653.421,122.579 L683.526,122.579 L681.211,120.263 L681.211,127.211 C681.211,128.49 682.247,129.526 683.526,129.526 C684.805,129.526 685.842,128.49 685.842,127.211 Z M657.589,136.474 L676.116,136.474 C679.823,136.474 680.703,136.402 682.049,135.717 C683.356,135.05 684.419,133.988 685.085,132.68 C685.77,131.335 685.842,130.455 685.842,126.747 L685.842,95.253 C685.842,91.545 685.77,90.665 685.085,89.32 C684.419,88.012 683.356,86.95 682.049,86.284 C680.703,85.598 679.823,85.526 676.116,85.526 L657.589,85.526 C652.261,85.526 650.995,85.63 649.216,86.536 C647.473,87.424 646.056,88.841 645.168,90.584 C644.261,92.363 644.158,93.629 644.158,98.958 L644.158,123.042 C644.158,128.371 644.261,129.637 645.167,131.416 C646.056,133.159 647.473,134.576 649.216,135.464 C650.995,136.37 652.261,136.474 657.589,136.474 Z M657.589,131.842 C653.192,131.842 652.141,131.756 651.318,131.337 C650.447,130.893 649.738,130.185 649.294,129.313 C648.875,128.491 648.789,127.44 648.789,123.042 L648.789,98.958 C648.789,94.56 648.875,93.509 649.294,92.686 C649.738,91.815 650.447,91.107 651.318,90.663 C652.141,90.244 653.192,90.158 657.589,90.158 L676.116,90.158 C678.893,90.158 679.557,90.212 679.946,90.41 C680.382,90.632 680.736,90.987 680.958,91.422 C681.156,91.811 681.211,92.476 681.211,95.253 L681.211,126.747 C681.211,129.524 681.156,130.189 680.958,130.578 C680.736,131.013 680.382,131.368 679.946,131.59 C679.557,131.788 678.893,131.842 676.116,131.842 L657.589,131.842 Z" />
        </g>
    </g>
</svg>