<?xml version="1.0" encoding="UTF-8"?>
<svg height="600" width="800" xmlns="http://www.w3.org/2000/svg" xmlns:xlink="http://www.w3.org/1999/xlink">
    <g id="Notes" font-family="LucidaGrande, 'Lucida Grande', sans-serif" font-size="13">
        <rect fill="white" height="600.0" width="800.0" x="0.0" y="0.0" />
        <g font-size="13">
            <text x="18.0" y="176.0">Small</text>
            <text x="18.0" y="376.0">Medium</text>
            <text x="18.0" y="576.0">Large</text>
        </g>
        <g font-size="9">
            <text x="250.0" y="30.0">Ultralight</text>
            <text x="450.0" y="30.0">Regular</text>
            <text x="650.0" y="30.0">Black</text>
            <text id="template-version" fill="#505050" text-anchor="end" x="785.0" y="575.0">Template v.3.0</text>
            <a href="https://github.com/swhitty/SwiftDraw">
                <text fill="#505050" text-anchor="end" x="785.0" y="590.0">https://github.com/swhitty/SwiftDraw</text>
            </a>
        </g>
    </g>
    <g id="Guides" stroke="rgb(39, 170, 225)" stroke-width="0.5">
        <path id="Capline-S" d="M18,76 l800,0" />
        <path id="H-reference" d="M85,145.755 L87.685,145.755 L113.369,79.287 L114.052,79.287 L114.052,76 L112.148,76 L85,145.755 Z M95.693,121.536 L130.996,121.536 L130.263,119.313 L96.474,119.313 L95.693,121.536 Z M139.15,145.755 L141.787,145.755 L114.638,76 L113.466,76 L113.466,79.287 L139.15,145.755 Z" stroke="none" transform="translate(0,200)" />
        <path id="Baseline-S" d="M18,146 l800,0" />
        <path id="left-margin-Ultralight-M" d="M221,256 l0,110" />
        <path id="right-margin-Ultralight-M" d="M309,256 l0,110" />
        <path id="left-margin-Regular-M" d="M421,256 l0,110" />
        <path id="right-margin-Regular-M" d="M509,256 l0,110" />
        <path id="left-margin-Black-M" d="M621,256 l0,110" />
        <path id="right-margin-Black-M" d="M709,256 l0,110" />
        <path id="Capline-M" d="M18,276 l800,0" />
        <path id="Baseline-M" d="M18,346 l800,0" />
        <path id="Capline-L" d="M18,476 l800,0" />
        <path id="Baseline-L" d="M18,546 l800,0" />
    </g>
    <g id="Symbols">
        <g id="Ultralight-M" transform="translate(0,200)">
            <path d="M283.444,130.785 C286.483,124.632 288.058,117.859 288.048,110.997 C288.048,104.045 286.457,97.312 283.443,91.214 C282.931,90.177 281.674,89.752 280.637,90.265 C279.599,90.777 279.174,92.034 279.687,93.071 C282.417,98.595 283.857,104.692 283.857,111 C283.867,117.22 282.439,123.355 279.686,128.929 C279.174,129.967 279.6,131.223 280.637,131.736 C281.675,132.248 282.931,131.822 283.444,130.785 Z M246.556,91.215 C243.517,97.368 241.942,104.141 241.952,111.003 C241.952,117.955 243.543,124.688 246.557,130.786 C247.07,131.823 248.326,132.248 249.363,131.735 C250.401,131.223 250.826,129.966 250.313,128.929 C247.583,123.405 246.143,117.308 246.143,111 C246.133,104.78 247.561,98.645 250.314,93.071 C250.826,92.033 250.4,90.777 249.363,90.264 C248.325,89.752 247.069,90.178 246.556,91.215 Z M274.531,101.833 L274.343,101.833 C272.36,101.833 270.477,102.704 269.187,104.215 L257.927,117.422 C257.435,118.001 256.716,118.333 255.958,118.333 L255.77,118.333 C254.613,118.333 253.675,119.271 253.675,120.429 C253.675,121.586 254.613,122.524 255.77,122.524 L255.959,122.524 C257.945,122.523 259.83,121.652 261.117,120.139 L272.375,106.935 C272.869,106.356 273.588,106.024 274.343,106.024 L274.531,106.024 C275.688,106.024 276.626,105.086 276.626,103.929 C276.626,102.771 275.688,101.833 274.531,101.833 Z M258.117,106.024 L261.038,106.024 C261.147,106.024 261.245,106.098 261.277,106.21 L264.994,119.292 C265.532,121.2 267.277,122.522 269.264,122.524 L272.187,122.524 C273.344,122.524 274.282,121.586 274.282,120.429 C274.282,119.271 273.344,118.333 272.187,118.333 L269.266,118.333 C269.155,118.333 269.056,118.258 269.026,118.15 L265.308,105.066 C264.766,103.154 263.024,101.833 261.038,101.833 L258.117,101.833 C256.96,101.833 256.022,102.771 256.022,103.929 C256.022,105.086 256.96,106.024 258.117,106.024 Z" />
        </g>
        <g id="Regular-M" transform="translate(0,200)">
            <path d="M483.444,130.785 C486.483,124.632 488.058,117.859 488.048,110.997 C488.048,104.045 486.457,97.312 483.443,91.214 C482.931,90.177 481.674,89.752 480.637,90.265 C479.599,90.777 479.174,92.034 479.687,93.071 C482.417,98.595 483.857,104.692 483.857,111 C483.867,117.22 482.439,123.355 479.686,128.929 C479.174,129.967 479.6,131.223 480.637,131.736 C481.675,132.248 482.931,131.822 483.444,130.785 Z M446.556,91.215 C443.517,97.368 441.942,104.141 441.952,111.003 C441.952,117.955 443.543,124.688 446.557,130.786 C447.07,131.823 448.326,132.248 449.363,131.735 C450.401,131.223 450.826,129.966 450.313,128.929 C447.583,123.405 446.143,117.308 446.143,111 C446.133,104.78 447.561,98.645 450.314,93.071 C450.826,92.033 450.4,90.777 449.363,90.264 C448.325,89.752 447.069,90.178 446.556,91.215 Z M474.531,101.833 L474.343,101.833 C472.36,101.833 470.477,102.704 469.187,104.215 L457.927,117.422 C457.435,118.001 456.716,118.333 455.958,118.333 L455.771,118.333 C454.613,118.333 453.675,119.271 453.675,120.429 C453.675,121.586 454.613,122.524 455.771,122.524 L455.959,122.524 C457.945,122.523 459.83,121.652 461.117,120.139 L472.375,106.935 C472.869,106.356 473.588,106.024 474.343,106.024 L474.531,106.024 C475.688,106.024 476.626,105.086 476.626,103.929 C476.626,102.771 475.688,101.833 474.531,101.833 Z M458.117,106.024 L461.038,106.024 C461.147,106.024 461.245,106.098 461.277,106.21 L464.994,119.292 C465.532,121.2 467.277,122.522 469.264,122.524 L472.187,122.524 C473.344,122.524 474.282,121.586 474.282,120.429 C474.282,119.271 473.344,118.333 472.187,118.333 L469.266,118.333 C469.155,118.333 469.056,118.258 469.026,118.15 L465.308,105.066 C464.766,103.154 463.024,101.833 461.038,101.833 L458.117,101.833 C456.96,101.833 456.022,102.771 456.022,103.929 C456.022,105.086 456.96,106.024 458.117,106.024 Z" />
        </g>
        <g id="Black-M" transform="translate(0,200)">
            <path d="M683.444,130.785 C686.483,124.632 688.058,117.859 688.048,110.997 C688.048,104.045 686.457,97.312 683.443,91.214 C682.93,90.177 681.674,89.752 680.637,90.265 C679.599,90.777 679.174,92.034 679.687,93.071 C682.417,98.595 683.857,104.692 683.857,111 C683.867,117.22 682.439,123.355 679.686,128.929 C679.174,129.967 679.6,131.223 680.637,131.736 C681.675,132.248 682.931,131.822 683.444,130.785 Z M646.556,91.215 C643.517,97.368 641.942,104.141 641.952,111.003 C641.952,117.955 643.543,124.688 646.557,130.786 C647.07,131.823 648.326,132.248 649.363,131.735 C650.401,131.223 650.826,129.966 650.313,128.929 C647.583,123.405 646.143,117.308 646.143,111 C646.133,104.78 647.561,98.645 650.314,93.071 C650.826,92.033 650.4,90.777 649.363,90.264 C648.325,89.752 647.069,90.178 646.556,91.215 Z M674.531,101.833 L674.343,101.833 C672.36,101.833 670.477,102.704 669.187,104.215 L657.927,117.422 C657.435,118.001 656.716,118.333 655.958,118.333 L655.771,118.333 C654.613,118.333 653.675,119.271 653.675,120.429 C653.675,121.586 654.613,122.524 655.771,122.524 L655.959,122.524 C657.945,122.523 659.83,121.652 661.117,120.139 L672.375,106.935 C672.869,106.356 673.588,106.024 674.343,106.024 L674.531,106.024 C675.688,106.024 676.626,105.086 676.626,103.929 C676.626,102.771 675.688,101.833 674.531,101.833 Z M658.117,106.024 L661.038,106.024 C661.147,106.024 661.245,106.098 661.277,106.21 L664.994,119.292 C665.532,121.2 667.277,122.522 669.264,122.524 L672.187,122.524 C673.344,122.524 674.282,121.586 674.282,120.429 C674.282,119.271 673.344,118.333 672.187,118.333 L669.266,118.333 C669.155,118.333 669.056,118.258 669.026,118.15 L665.308,105.066 C664.766,103.154 663.024,101.833 661.038,101.833 L658.117,101.833 C656.96,101.833 656.022,102.771 656.022,103.929 C656.022,105.086 656.96,106.024 658.117,106.024 Z" />
        </g>
    </g>
</svg>