<?xml version="1.0" encoding="UTF-8"?>
<svg height="600" width="800" xmlns="http://www.w3.org/2000/svg" xmlns:xlink="http://www.w3.org/1999/xlink">
    <g id="Notes" font-family="LucidaGrande, 'Lucida Grande', sans-serif" font-size="13">
        <rect fill="white" height="600.0" width="800.0" x="0.0" y="0.0" />
        <g font-size="13">
            <text x="18.0" y="176.0">Small</text>
            <text x="18.0" y="376.0">Medium</text>
            <text x="18.0" y="576.0">Large</text>
        </g>
        <g font-size="9">
            <text x="250.0" y="30.0">Ultralight</text>
            <text x="450.0" y="30.0">Regular</text>
            <text x="650.0" y="30.0">Black</text>
            <text id="template-version" fill="#505050" text-anchor="end" x="785.0" y="575.0">Template v.3.0</text>
            <a href="https://github.com/swhitty/SwiftDraw">
                <text fill="#505050" text-anchor="end" x="785.0" y="590.0">https://github.com/swhitty/SwiftDraw</text>
            </a>
        </g>
    </g>
    <g id="Guides" stroke="rgb(39, 170, 225)" stroke-width="0.5">
        <path id="Capline-S" d="M18,76 l800,0" />
        <path id="H-reference" d="M85,145.755 L87.685,145.755 L113.369,79.287 L114.052,79.287 L114.052,76 L112.148,76 L85,145.755 Z M95.693,121.536 L130.996,121.536 L130.263,119.313 L96.474,119.313 L95.693,121.536 Z M139.15,145.755 L141.787,145.755 L114.638,76 L113.466,76 L113.466,79.287 L139.15,145.755 Z" stroke="none" transform="translate(0,200)" />
        <path id="Baseline-S" d="M18,146 l800,0" />
        <path id="left-margin-Ultralight-M" d="M230,256 l0,110" />
        <path id="right-margin-Ultralight-M" d="M300,256 l0,110" />
        <path id="left-margin-Regular-M" d="M430,256 l0,110" />
        <path id="right-margin-Regular-M" d="M500,256 l0,110" />
        <path id="left-margin-Black-M" d="M630,256 l0,110" />
        <path id="right-margin-Black-M" d="M700,256 l0,110" />
        <path id="Capline-M" d="M18,276 l800,0" />
        <path id="Baseline-M" d="M18,346 l800,0" />
        <path id="Capline-L" d="M18,476 l800,0" />
        <path id="Baseline-L" d="M18,546 l800,0" />
    </g>
    <g id="Symbols">
        <g id="Ultralight-M" transform="translate(0,200)">
            <path d="M241.679,96.408 C241.463,96.407 241.249,96.388 241.037,96.35 C239.94,96.132 239.035,95.227 238.805,94.069 C238.762,93.852 238.75,93.494 238.75,92.042 C238.75,90.589 238.762,90.232 238.806,90.009 C239.035,88.856 239.94,87.952 241.097,87.722 C241.315,87.679 241.673,87.667 243.125,87.667 L286.875,87.667 C288.327,87.667 288.685,87.679 288.907,87.723 C290.06,87.952 290.965,88.856 291.195,90.014 C291.238,90.232 291.25,90.589 291.25,92.042 C291.25,93.494 291.238,93.852 291.194,94.074 C290.965,95.227 290.06,96.132 288.903,96.362 C288.801,96.381 288.598,96.398 288.244,96.409 C286.634,96.458 285.369,97.803 285.418,99.413 C285.467,101.024 286.812,102.289 288.422,102.24 C289.051,102.221 289.532,102.178 290.007,102.09 C293.512,101.393 296.227,98.679 296.917,95.206 C297.068,94.438 297.083,93.979 297.083,92.042 C297.083,90.105 297.068,89.645 296.918,88.882 C296.227,85.405 293.512,82.69 290.039,82 C289.271,81.849 288.812,81.833 286.875,81.833 L243.125,81.833 C241.188,81.833 240.729,81.849 239.966,81.999 C236.488,82.69 233.773,85.405 233.083,88.878 C232.932,89.645 232.917,90.105 232.917,92.042 C232.917,93.979 232.932,94.438 233.082,95.201 C233.773,98.679 236.488,101.393 239.961,102.083 C240.561,102.19 241.107,102.239 241.655,102.241 C243.266,102.248 244.577,100.947 244.583,99.337 C244.59,97.726 243.289,96.415 241.679,96.408 Z M259.167,116.833 L270.833,116.833 C272.444,116.833 273.75,115.527 273.75,113.917 C273.75,112.306 272.444,111 270.833,111 L259.167,111 C257.556,111 256.25,112.306 256.25,113.917 C256.25,115.527 257.556,116.833 259.167,116.833 Z M241.667,102.25 L288.333,102.25 L285.417,99.333 L285.417,123.25 C285.417,128.789 285.309,130.112 284.781,131.149 C284.222,132.246 283.329,133.138 282.232,133.698 C281.196,134.225 279.872,134.333 274.333,134.333 L255.667,134.333 C250.128,134.333 248.804,134.225 247.768,133.697 C246.671,133.138 245.778,132.246 245.219,131.148 C244.691,130.112 244.583,128.789 244.583,123.25 L244.583,99.333 L241.667,102.25 Z M241.667,96.417 C240.056,96.417 238.75,97.723 238.75,99.333 L238.75,123.25 C238.75,129.961 238.88,131.556 240.021,133.796 C241.14,135.992 242.925,137.777 245.12,138.895 C247.361,140.036 248.956,140.167 255.667,140.167 L274.333,140.167 C281.044,140.167 282.639,140.036 284.88,138.895 C287.075,137.777 288.86,135.992 289.978,133.797 C291.12,131.556 291.25,129.961 291.25,123.25 L291.25,99.333 C291.25,97.723 289.944,96.417 288.333,96.417 L241.667,96.417 Z" />
        </g>
        <g id="Regular-M" transform="translate(0,200)">
            <path d="M441.679,96.408 C441.463,96.407 441.249,96.388 441.037,96.35 C439.94,96.132 439.035,95.227 438.805,94.069 C438.762,93.852 438.75,93.494 438.75,92.042 C438.75,90.589 438.762,90.232 438.806,90.009 C439.035,88.856 439.94,87.952 441.097,87.722 C441.315,87.679 441.673,87.667 443.125,87.667 L486.875,87.667 C488.327,87.667 488.685,87.679 488.907,87.723 C490.06,87.952 490.965,88.856 491.195,90.014 C491.238,90.232 491.25,90.589 491.25,92.042 C491.25,93.494 491.238,93.852 491.194,94.074 C490.965,95.227 490.06,96.132 488.903,96.362 C488.801,96.381 488.598,96.398 488.244,96.409 C486.634,96.458 485.369,97.803 485.418,99.413 C485.467,101.024 486.812,102.289 488.422,102.24 C489.051,102.221 489.532,102.178 490.007,102.09 C493.512,101.393 496.227,98.679 496.917,95.206 C497.068,94.438 497.083,93.979 497.083,92.042 C497.083,90.105 497.068,89.645 496.918,88.882 C496.227,85.405 493.512,82.69 490.039,82 C489.271,81.849 488.812,81.833 486.875,81.833 L443.125,81.833 C441.188,81.833 440.729,81.849 439.966,81.999 C436.488,82.69 433.773,85.405 433.083,88.878 C432.932,89.645 432.917,90.105 432.917,92.042 C432.917,93.979 432.932,94.438 433.082,95.201 C433.773,98.679 436.488,101.393 439.961,102.083 C440.561,102.19 441.107,102.239 441.655,102.241 C443.266,102.248 444.577,100.947 444.583,99.337 C444.59,97.726 443.289,96.415 441.679,96.408 Z M459.167,116.833 L470.833,116.833 C472.444,116.833 473.75,115.527 473.75,113.917 C473.75,112.306 472.444,111 470.833,111 L459.167,111 C457.556,111 456.25,112.306 456.25,113.917 C456.25,115.527 457.556,116.833 459.167,116.833 Z M441.667,102.25 L488.333,102.25 L485.417,99.333 L485.417,123.25 C485.417,128.789 485.309,130.112 484.781,131.149 C484.222,132.246 483.329,133.138 482.232,133.698 C481.196,134.225 479.872,134.333 474.333,134.333 L455.667,134.333 C450.128,134.333 448.804,134.225 447.768,133.697 C446.671,133.138 445.778,132.246 445.219,131.148 C444.691,130.112 444.583,128.789 444.583,123.25 L444.583,99.333 L441.667,102.25 Z M441.667,96.417 C440.056,96.417 438.75,97.723 438.75,99.333 L438.75,123.25 C438.75,129.961 438.88,131.556 440.021,133.796 C441.14,135.992 442.925,137.777 445.12,138.895 C447.361,140.036 448.956,140.167 455.667,140.167 L474.333,140.167 C481.044,140.167 482.639,140.036 484.88,138.895 C487.075,137.777 488.86,135.992 489.978,133.797 C491.12,131.556 491.25,129.961 491.25,123.25 L491.25,99.333 C491.25,97.723 489.944,96.417 488.333,96.417 L441.667,96.417 Z" />
        </g>
        <g id="Black-M" transform="translate(0,200)">
            <path d="M641.679,96.408 C641.463,96.407 641.249,96.388 641.037,96.35 C639.94,96.132 639.035,95.227 638.805,94.069 C638.762,93.852 638.75,93.494 638.75,92.042 C638.75,90.589 638.762,90.232 638.806,90.009 C639.035,88.856 639.94,87.952 641.097,87.722 C641.315,87.679 641.673,87.667 643.125,87.667 L686.875,87.667 C688.327,87.667 688.685,87.679 688.907,87.723 C690.06,87.952 690.965,88.856 691.195,90.014 C691.238,90.232 691.25,90.589 691.25,92.042 C691.25,93.494 691.238,93.852 691.194,94.074 C690.965,95.227 690.06,96.132 688.903,96.362 C688.8,96.381 688.598,96.398 688.244,96.409 C686.634,96.458 685.369,97.803 685.418,99.413 C685.467,101.024 686.812,102.289 688.422,102.24 C689.051,102.221 689.532,102.178 690.007,102.09 C693.512,101.393 696.227,98.679 696.917,95.206 C697.068,94.438 697.083,93.979 697.083,92.042 C697.083,90.105 697.068,89.645 696.918,88.882 C696.227,85.405 693.512,82.69 690.039,82 C689.271,81.849 688.812,81.833 686.875,81.833 L643.125,81.833 C641.188,81.833 640.729,81.849 639.966,81.999 C636.488,82.69 633.773,85.405 633.083,88.878 C632.932,89.645 632.917,90.105 632.917,92.042 C632.917,93.979 632.932,94.438 633.082,95.201 C633.773,98.679 636.488,101.393 639.961,102.083 C640.561,102.19 641.107,102.239 641.655,102.241 C643.266,102.248 644.577,100.947 644.583,99.337 C644.59,97.726 643.289,96.415 641.679,96.408 Z M659.167,116.833 L670.833,116.833 C672.444,116.833 673.75,115.527 673.75,113.917 C673.75,112.306 672.444,111 670.833,111 L659.167,111 C657.556,111 656.25,112.306 656.25,113.917 C656.25,115.527 657.556,116.833 659.167,116.833 Z M641.667,102.25 L688.333,102.25 L685.417,99.333 L685.417,123.25 C685.417,128.789 685.309,130.112 684.781,131.149 C684.222,132.246 683.329,133.138 682.232,133.698 C681.196,134.225 679.872,134.333 674.333,134.333 L655.667,134.333 C650.128,134.333 648.804,134.225 647.768,133.697 C646.671,133.138 645.778,132.246 645.219,131.148 C644.691,130.112 644.583,128.789 644.583,123.25 L644.583,99.333 L641.667,102.25 Z M641.667,96.417 C640.056,96.417 638.75,97.723 638.75,99.333 L638.75,123.25 C638.75,129.961 638.88,131.556 640.021,133.796 C641.14,135.992 642.925,137.777 645.12,138.895 C647.361,140.036 648.956,140.167 655.667,140.167 L674.333,140.167 C681.044,140.167 682.639,140.036 684.88,138.895 C687.075,137.777 688.86,135.992 689.978,133.797 C691.12,131.556 691.25,129.961 691.25,123.25 L691.25,99.333 C691.25,97.723 689.944,96.417 688.333,96.417 L641.667,96.417 Z" />
        </g>
    </g>
</svg>