<?xml version="1.0" encoding="UTF-8"?>
<svg height="600" width="800" xmlns="http://www.w3.org/2000/svg" xmlns:xlink="http://www.w3.org/1999/xlink">
    <g id="Notes" font-family="LucidaGrande, 'Lucida Grande', sans-serif" font-size="13">
        <rect fill="white" height="600.0" width="800.0" x="0.0" y="0.0" />
        <g font-size="13">
            <text x="18.0" y="176.0">Small</text>
            <text x="18.0" y="376.0">Medium</text>
            <text x="18.0" y="576.0">Large</text>
        </g>
        <g font-size="9">
            <text x="250.0" y="30.0">Ultralight</text>
            <text x="450.0" y="30.0">Regular</text>
            <text x="650.0" y="30.0">Black</text>
            <text id="template-version" fill="#505050" text-anchor="end" x="785.0" y="575.0">Template v.3.0</text>
            <a href="https://github.com/swhitty/SwiftDraw">
                <text fill="#505050" text-anchor="end" x="785.0" y="590.0">https://github.com/swhitty/SwiftDraw</text>
            </a>
        </g>
    </g>
    <g id="Guides" stroke="rgb(39, 170, 225)" stroke-width="0.5">
        <path id="Capline-S" d="M18,76 l800,0" />
        <path id="H-reference" d="M85,145.755 L87.685,145.755 L113.369,79.287 L114.052,79.287 L114.052,76 L112.148,76 L85,145.755 Z M95.693,121.536 L130.996,121.536 L130.263,119.313 L96.474,119.313 L95.693,121.536 Z M139.15,145.755 L141.787,145.755 L114.638,76 L113.466,76 L113.466,79.287 L139.15,145.755 Z" stroke="none" transform="translate(0,200)" />
        <path id="Baseline-S" d="M18,146 l800,0" />
        <path id="left-margin-Ultralight-M" d="M230,256 l0,110" />
        <path id="right-margin-Ultralight-M" d="M300,256 l0,110" />
        <path id="left-margin-Regular-M" d="M430,256 l0,110" />
        <path id="right-margin-Regular-M" d="M500,256 l0,110" />
        <path id="left-margin-Black-M" d="M630,256 l0,110" />
        <path id="right-margin-Black-M" d="M700,256 l0,110" />
        <path id="Capline-M" d="M18,276 l800,0" />
        <path id="Baseline-M" d="M18,346 l800,0" />
        <path id="Capline-L" d="M18,476 l800,0" />
        <path id="Baseline-L" d="M18,546 l800,0" />
    </g>
    <g id="Symbols">
        <g id="Ultralight-M" transform="translate(0,200)">
            <path d="M292.222,76 L257.222,76 C255.074,76 253.333,77.741 253.333,79.889 C253.333,82.037 255.074,83.778 257.222,83.778 L292.222,83.778 C294.37,83.778 296.111,82.037 296.111,79.889 C296.111,77.741 294.37,76 292.222,76 Z M272.778,138.222 L237.778,138.222 C235.63,138.222 233.889,139.963 233.889,142.111 C233.889,144.259 235.63,146 237.778,146 L272.778,146 C274.926,146 276.667,144.259 276.667,142.111 C276.667,139.963 274.926,138.222 272.778,138.222 Z M273.025,78.523 L249.692,140.746 C248.938,142.757 249.957,144.998 251.968,145.752 C253.979,146.507 256.22,145.488 256.975,143.477 L280.308,81.254 C281.062,79.243 280.043,77.002 278.032,76.248 C276.021,75.493 273.78,76.512 273.025,78.523 Z" />
        </g>
        <g id="Regular-M" transform="translate(0,200)">
            <path d="M492.222,76 L457.222,76 C455.074,76 453.333,77.741 453.333,79.889 C453.333,82.037 455.074,83.778 457.222,83.778 L492.222,83.778 C494.37,83.778 496.111,82.037 496.111,79.889 C496.111,77.741 494.37,76 492.222,76 Z M472.778,138.222 L437.778,138.222 C435.63,138.222 433.889,139.963 433.889,142.111 C433.889,144.259 435.63,146 437.778,146 L472.778,146 C474.926,146 476.667,144.259 476.667,142.111 C476.667,139.963 474.926,138.222 472.778,138.222 Z M473.025,78.523 L449.692,140.746 C448.938,142.757 449.957,144.998 451.968,145.752 C453.979,146.507 456.22,145.488 456.975,143.477 L480.308,81.254 C481.062,79.243 480.043,77.002 478.032,76.248 C476.021,75.493 473.78,76.512 473.025,78.523 Z" />
        </g>
        <g id="Black-M" transform="translate(0,200)">
            <path d="M692.222,76 L657.222,76 C655.074,76 653.333,77.741 653.333,79.889 C653.333,82.037 655.074,83.778 657.222,83.778 L692.222,83.778 C694.37,83.778 696.111,82.037 696.111,79.889 C696.111,77.741 694.37,76 692.222,76 Z M672.778,138.222 L637.778,138.222 C635.63,138.222 633.889,139.963 633.889,142.111 C633.889,144.259 635.63,146 637.778,146 L672.778,146 C674.926,146 676.667,144.259 676.667,142.111 C676.667,139.963 674.926,138.222 672.778,138.222 Z M673.025,78.523 L649.692,140.746 C648.938,142.757 649.957,144.998 651.968,145.752 C653.979,146.507 656.22,145.488 656.975,143.477 L680.308,81.254 C681.062,79.243 680.043,77.002 678.032,76.248 C676.021,75.493 673.78,76.512 673.025,78.523 Z" />
        </g>
    </g>
</svg>