<?xml version="1.0" encoding="UTF-8"?>
<svg height="600" width="800" xmlns="http://www.w3.org/2000/svg" xmlns:xlink="http://www.w3.org/1999/xlink">
    <g id="Notes" font-family="LucidaGrande, 'Lucida Grande', sans-serif" font-size="13">
        <rect fill="white" height="600.0" width="800.0" x="0.0" y="0.0" />
        <g font-size="13">
            <text x="18.0" y="176.0">Small</text>
            <text x="18.0" y="376.0">Medium</text>
            <text x="18.0" y="576.0">Large</text>
        </g>
        <g font-size="9">
            <text x="250.0" y="30.0">Ultralight</text>
            <text x="450.0" y="30.0">Regular</text>
            <text x="650.0" y="30.0">Black</text>
            <text id="template-version" fill="#505050" text-anchor="end" x="785.0" y="575.0">Template v.3.0</text>
            <a href="https://github.com/swhitty/SwiftDraw">
                <text fill="#505050" text-anchor="end" x="785.0" y="590.0">https://github.com/swhitty/SwiftDraw</text>
            </a>
        </g>
    </g>
    <g id="Guides" stroke="rgb(39, 170, 225)" stroke-width="0.5">
        <path id="Capline-S" d="M18,76 l800,0" />
        <path id="H-reference" d="M85,145.755 L87.685,145.755 L113.369,79.287 L114.052,79.287 L114.052,76 L112.148,76 L85,145.755 Z M95.693,121.536 L130.996,121.536 L130.263,119.313 L96.474,119.313 L95.693,121.536 Z M139.15,145.755 L141.787,145.755 L114.638,76 L113.466,76 L113.466,79.287 L139.15,145.755 Z" stroke="none" transform="translate(0,200)" />
        <path id="Baseline-S" d="M18,146 l800,0" />
        <path id="left-margin-Ultralight-M" d="M230,256 l0,110" />
        <path id="right-margin-Ultralight-M" d="M300,256 l0,110" />
        <path id="left-margin-Regular-M" d="M430,256 l0,110" />
        <path id="right-margin-Regular-M" d="M500,256 l0,110" />
        <path id="left-margin-Black-M" d="M630,256 l0,110" />
        <path id="right-margin-Black-M" d="M700,256 l0,110" />
        <path id="Capline-M" d="M18,276 l800,0" />
        <path id="Baseline-M" d="M18,346 l800,0" />
        <path id="Capline-L" d="M18,476 l800,0" />
        <path id="Baseline-L" d="M18,546 l800,0" />
    </g>
    <g id="Symbols">
        <g id="Ultralight-M" transform="translate(0,200)">
            <path d="M265.745,108.18 L237.547,100.731 C235.989,100.319 234.393,101.248 233.982,102.806 C229.853,118.433 237.995,134.692 252.982,140.748 C254.475,141.351 256.175,140.629 256.778,139.136 L267.704,112.093 C268.362,110.464 267.443,108.629 265.745,108.18 Z M264.255,113.82 L262.296,109.907 L251.37,136.951 L255.167,135.339 C242.905,130.385 236.244,117.082 239.622,104.296 L236.057,106.371 L264.255,113.82 Z M267.917,111.031 L268.223,81.864 C268.24,80.253 266.948,78.934 265.337,78.917 C250.689,78.763 237.796,88.55 234.008,102.7 C233.591,104.256 234.515,105.855 236.07,106.272 L264.245,113.817 C266.086,114.31 267.897,112.935 267.917,111.031 Z M262.083,110.969 L265.755,108.183 L237.58,100.637 L239.642,104.209 C242.742,92.631 253.291,84.624 265.276,84.75 L262.39,81.803 L262.083,110.969 Z M291.25,111 C291.25,125.498 279.498,137.25 265,137.25 C250.502,137.25 238.75,125.498 238.75,111 C238.75,96.502 250.502,84.75 265,84.75 C279.498,84.75 291.25,96.502 291.25,111 Z M297.083,111 C297.083,93.28 282.72,78.917 265,78.917 C247.28,78.917 232.917,93.28 232.917,111 C232.917,128.72 247.28,143.083 265,143.083 C282.72,143.083 297.083,128.72 297.083,111 Z" />
        </g>
        <g id="Regular-M" transform="translate(0,200)">
            <path d="M465.745,108.18 L437.547,100.731 C435.989,100.319 434.393,101.248 433.982,102.806 C429.853,118.433 437.995,134.692 452.982,140.748 C454.475,141.351 456.175,140.629 456.778,139.136 L467.704,112.093 C468.362,110.464 467.443,108.629 465.745,108.18 Z M464.255,113.82 L462.296,109.907 L451.37,136.951 L455.167,135.339 C442.905,130.385 436.244,117.082 439.622,104.296 L436.057,106.371 L464.255,113.82 Z M467.917,111.031 L468.223,81.864 C468.24,80.253 466.948,78.934 465.337,78.917 C450.689,78.763 437.796,88.55 434.008,102.7 C433.591,104.256 434.515,105.855 436.07,106.272 L464.245,113.817 C466.086,114.31 467.897,112.935 467.917,111.031 Z M462.083,110.969 L465.755,108.183 L437.58,100.637 L439.642,104.209 C442.742,92.631 453.291,84.624 465.276,84.75 L462.39,81.803 L462.083,110.969 Z M491.25,111 C491.25,125.498 479.498,137.25 465,137.25 C450.502,137.25 438.75,125.498 438.75,111 C438.75,96.502 450.502,84.75 465,84.75 C479.498,84.75 491.25,96.502 491.25,111 Z M497.083,111 C497.083,93.28 482.72,78.917 465,78.917 C447.28,78.917 432.917,93.28 432.917,111 C432.917,128.72 447.28,143.083 465,143.083 C482.72,143.083 497.083,128.72 497.083,111 Z" />
        </g>
        <g id="Black-M" transform="translate(0,200)">
            <path d="M665.745,108.18 L637.547,100.731 C635.989,100.319 634.393,101.248 633.982,102.806 C629.853,118.433 637.995,134.692 652.982,140.748 C654.475,141.351 656.175,140.629 656.778,139.136 L667.704,112.093 C668.362,110.464 667.443,108.629 665.745,108.18 Z M664.255,113.82 L662.296,109.907 L651.37,136.951 L655.167,135.339 C642.905,130.385 636.244,117.082 639.622,104.296 L636.057,106.371 L664.255,113.82 Z M667.917,111.031 L668.223,81.864 C668.24,80.253 666.948,78.934 665.337,78.917 C650.689,78.763 637.796,88.55 634.008,102.7 C633.591,104.256 634.515,105.855 636.07,106.272 L664.245,113.817 C666.086,114.31 667.896,112.935 667.917,111.031 Z M662.083,110.969 L665.755,108.183 L637.58,100.637 L639.642,104.209 C642.742,92.631 653.291,84.624 665.276,84.75 L662.39,81.803 L662.083,110.969 Z M691.25,111 C691.25,125.498 679.498,137.25 665,137.25 C650.502,137.25 638.75,125.498 638.75,111 C638.75,96.502 650.502,84.75 665,84.75 C679.498,84.75 691.25,96.502 691.25,111 Z M697.083,111 C697.083,93.28 682.72,78.917 665,78.917 C647.28,78.917 632.917,93.28 632.917,111 C632.917,128.72 647.28,143.083 665,143.083 C682.72,143.083 697.083,128.72 697.083,111 Z" />
        </g>
    </g>
</svg>