<?xml version="1.0" encoding="UTF-8"?>
<svg height="600" width="800" xmlns="http://www.w3.org/2000/svg" xmlns:xlink="http://www.w3.org/1999/xlink">
    <g id="Notes" font-family="LucidaGrande, 'Lucida Grande', sans-serif" font-size="13">
        <rect fill="white" height="600.0" width="800.0" x="0.0" y="0.0" />
        <g font-size="13">
            <text x="18.0" y="176.0">Small</text>
            <text x="18.0" y="376.0">Medium</text>
            <text x="18.0" y="576.0">Large</text>
        </g>
        <g font-size="9">
            <text x="250.0" y="30.0">Ultralight</text>
            <text x="450.0" y="30.0">Regular</text>
            <text x="650.0" y="30.0">Black</text>
            <text id="template-version" fill="#505050" text-anchor="end" x="785.0" y="575.0">Template v.3.0</text>
            <a href="https://github.com/swhitty/SwiftDraw">
                <text fill="#505050" text-anchor="end" x="785.0" y="590.0">https://github.com/swhitty/SwiftDraw</text>
            </a>
        </g>
    </g>
    <g id="Guides" stroke="rgb(39, 170, 225)" stroke-width="0.5">
        <path id="Capline-S" d="M18,76 l800,0" />
        <path id="H-reference" d="M85,145.755 L87.685,145.755 L113.369,79.287 L114.052,79.287 L114.052,76 L112.148,76 L85,145.755 Z M95.693,121.536 L130.996,121.536 L130.263,119.313 L96.474,119.313 L95.693,121.536 Z M139.15,145.755 L141.787,145.755 L114.638,76 L113.466,76 L113.466,79.287 L139.15,145.755 Z" stroke="none" transform="translate(0,200)" />
        <path id="Baseline-S" d="M18,146 l800,0" />
        <path id="left-margin-Ultralight-M" d="M230,256 l0,110" />
        <path id="right-margin-Ultralight-M" d="M300,256 l0,110" />
        <path id="left-margin-Regular-M" d="M430,256 l0,110" />
        <path id="right-margin-Regular-M" d="M500,256 l0,110" />
        <path id="left-margin-Black-M" d="M630,256 l0,110" />
        <path id="right-margin-Black-M" d="M700,256 l0,110" />
        <path id="Capline-M" d="M18,276 l800,0" />
        <path id="Baseline-M" d="M18,346 l800,0" />
        <path id="Capline-L" d="M18,476 l800,0" />
        <path id="Baseline-L" d="M18,546 l800,0" />
    </g>
    <g id="Symbols">
        <g id="Ultralight-M" transform="translate(0,200)">
            <path d="M285.263,138.631 L244.737,138.631 L247.017,145.209 C248.88,143.741 251.535,141.112 254.178,137.428 C258.624,131.23 261.316,124.214 261.316,116.526 C261.316,111.317 260.031,107.871 256.915,102.532 C256.499,101.823 256.292,101.468 256.105,101.144 C254.248,97.927 253.55,96.052 253.52,93.655 C253.522,87.746 256.497,84.523 261.721,83.606 C266.573,82.754 272.398,84.29 275.18,86.934 C276.655,88.335 278.987,88.276 280.389,86.801 C281.79,85.326 281.731,82.994 280.256,81.592 C275.706,77.268 267.512,75.108 260.447,76.348 C251.834,77.86 246.155,84.013 246.151,93.7 C246.202,97.688 247.291,100.613 249.723,104.827 C249.922,105.172 250.142,105.548 250.551,106.247 C253.066,110.556 253.947,112.919 253.947,116.526 C253.947,122.51 251.804,128.095 248.19,133.133 C246.907,134.922 245.53,136.508 244.159,137.865 C243.356,138.661 242.754,139.187 242.456,139.422 C239.71,141.587 241.241,146 244.737,146 L285.263,146 C287.298,146 288.948,144.35 288.948,142.316 C288.948,140.281 287.298,138.631 285.263,138.631 Z M244.737,120.21 L276.053,120.21 C278.088,120.21 279.737,118.561 279.737,116.526 C279.737,114.491 278.088,112.842 276.053,112.842 L244.737,112.842 C242.702,112.842 241.052,114.491 241.052,116.526 C241.052,118.561 242.702,120.21 244.737,120.21 Z" />
        </g>
        <g id="Regular-M" transform="translate(0,200)">
            <path d="M485.263,138.631 L444.737,138.631 L447.017,145.209 C448.88,143.741 451.535,141.112 454.178,137.428 C458.624,131.23 461.316,124.214 461.316,116.526 C461.316,111.317 460.031,107.871 456.915,102.532 C456.499,101.823 456.292,101.468 456.105,101.144 C454.248,97.927 453.55,96.052 453.52,93.655 C453.522,87.746 456.497,84.523 461.721,83.606 C466.573,82.754 472.398,84.29 475.18,86.934 C476.655,88.335 478.987,88.276 480.389,86.801 C481.79,85.326 481.731,82.994 480.256,81.592 C475.706,77.268 467.512,75.108 460.447,76.348 C451.834,77.86 446.155,84.013 446.151,93.7 C446.202,97.688 447.291,100.613 449.723,104.827 C449.922,105.172 450.142,105.548 450.551,106.247 C453.066,110.556 453.947,112.919 453.947,116.526 C453.947,122.51 451.804,128.095 448.19,133.133 C446.907,134.922 445.53,136.508 444.159,137.865 C443.356,138.661 442.754,139.187 442.456,139.422 C439.71,141.587 441.241,146 444.737,146 L485.263,146 C487.298,146 488.948,144.35 488.948,142.316 C488.948,140.281 487.298,138.631 485.263,138.631 Z M444.737,120.21 L476.053,120.21 C478.088,120.21 479.737,118.561 479.737,116.526 C479.737,114.491 478.088,112.842 476.053,112.842 L444.737,112.842 C442.702,112.842 441.052,114.491 441.052,116.526 C441.052,118.561 442.702,120.21 444.737,120.21 Z" />
        </g>
        <g id="Black-M" transform="translate(0,200)">
            <path d="M685.263,138.631 L644.737,138.631 L647.017,145.209 C648.88,143.741 651.535,141.112 654.178,137.428 C658.624,131.23 661.316,124.214 661.316,116.526 C661.316,111.317 660.031,107.871 656.915,102.532 C656.499,101.823 656.292,101.468 656.105,101.144 C654.248,97.927 653.55,96.052 653.52,93.655 C653.522,87.746 656.497,84.523 661.721,83.606 C666.573,82.754 672.398,84.29 675.18,86.934 C676.655,88.335 678.987,88.276 680.389,86.801 C681.79,85.326 681.731,82.994 680.256,81.592 C675.706,77.268 667.512,75.108 660.447,76.348 C651.834,77.86 646.155,84.013 646.151,93.7 C646.202,97.688 647.291,100.613 649.723,104.827 C649.922,105.172 650.142,105.548 650.551,106.247 C653.066,110.556 653.947,112.919 653.947,116.526 C653.947,122.51 651.804,128.095 648.19,133.133 C646.907,134.922 645.53,136.508 644.159,137.865 C643.356,138.661 642.754,139.187 642.456,139.422 C639.71,141.587 641.241,146 644.737,146 L685.263,146 C687.298,146 688.948,144.35 688.948,142.316 C688.948,140.281 687.298,138.631 685.263,138.631 Z M644.737,120.21 L676.053,120.21 C678.088,120.21 679.737,118.561 679.737,116.526 C679.737,114.491 678.088,112.842 676.053,112.842 L644.737,112.842 C642.702,112.842 641.052,114.491 641.052,116.526 C641.052,118.561 642.702,120.21 644.737,120.21 Z" />
        </g>
    </g>
</svg>