<?xml version="1.0" encoding="UTF-8"?>
<svg height="600" width="800" xmlns="http://www.w3.org/2000/svg" xmlns:xlink="http://www.w3.org/1999/xlink">
    <g id="Notes" font-family="LucidaGrande, 'Lucida Grande', sans-serif" font-size="13">
        <rect fill="white" height="600.0" width="800.0" x="0.0" y="0.0" />
        <g font-size="13">
            <text x="18.0" y="176.0">Small</text>
            <text x="18.0" y="376.0">Medium</text>
            <text x="18.0" y="576.0">Large</text>
        </g>
        <g font-size="9">
            <text x="250.0" y="30.0">Ultralight</text>
            <text x="450.0" y="30.0">Regular</text>
            <text x="650.0" y="30.0">Black</text>
            <text id="template-version" fill="#505050" text-anchor="end" x="785.0" y="575.0">Template v.3.0</text>
            <a href="https://github.com/swhitty/SwiftDraw">
                <text fill="#505050" text-anchor="end" x="785.0" y="590.0">https://github.com/swhitty/SwiftDraw</text>
            </a>
        </g>
    </g>
    <g id="Guides" stroke="rgb(39, 170, 225)" stroke-width="0.5">
        <path id="Capline-S" d="M18,76 l800,0" />
        <path id="H-reference" d="M85,145.755 L87.685,145.755 L113.369,79.287 L114.052,79.287 L114.052,76 L112.148,76 L85,145.755 Z M95.693,121.536 L130.996,121.536 L130.263,119.313 L96.474,119.313 L95.693,121.536 Z M139.15,145.755 L141.787,145.755 L114.638,76 L113.466,76 L113.466,79.287 L139.15,145.755 Z" stroke="none" transform="translate(0,200)" />
        <path id="Baseline-S" d="M18,146 l800,0" />
        <path id="left-margin-Ultralight-M" d="M239.722,256 l0,110" />
        <path id="right-margin-Ultralight-M" d="M290.278,256 l0,110" />
        <path id="left-margin-Regular-M" d="M439.722,256 l0,110" />
        <path id="right-margin-Regular-M" d="M490.278,256 l0,110" />
        <path id="left-margin-Black-M" d="M639.722,256 l0,110" />
        <path id="right-margin-Black-M" d="M690.278,256 l0,110" />
        <path id="Capline-M" d="M18,276 l800,0" />
        <path id="Baseline-M" d="M18,346 l800,0" />
        <path id="Capline-L" d="M18,476 l800,0" />
        <path id="Baseline-L" d="M18,546 l800,0" />
    </g>
    <g id="Symbols">
        <g id="Ultralight-M" transform="translate(0,200)">
            <path d="M286.389,138.631 L243.611,138.631 L246.019,145.209 C247.985,143.741 250.787,141.112 253.577,137.428 C258.269,131.23 261.111,124.214 261.111,116.526 C261.111,111.317 259.755,107.871 256.466,102.532 C256.027,101.823 255.808,101.468 255.611,101.144 C253.651,97.927 252.914,96.052 252.882,93.655 C252.885,87.746 256.025,84.523 261.539,83.606 C266.66,82.754 272.809,84.29 275.746,86.934 C277.302,88.335 279.764,88.276 281.243,86.801 C282.723,85.326 282.66,82.994 281.103,81.592 C276.301,77.268 267.651,75.108 260.194,76.348 C251.103,77.86 245.109,84.013 245.104,93.7 C245.158,97.688 246.307,100.613 248.874,104.827 C249.085,105.172 249.317,105.548 249.749,106.247 C252.403,110.556 253.333,112.919 253.333,116.526 C253.333,122.51 251.071,128.095 247.257,133.133 C245.902,134.922 244.449,136.508 243.002,137.865 C242.154,138.661 241.519,139.187 241.204,139.422 C238.306,141.587 239.921,146 243.611,146 L286.389,146 C288.537,146 290.278,144.35 290.278,142.316 C290.278,140.281 288.537,138.631 286.389,138.631 Z M243.611,120.21 L276.667,120.21 C278.814,120.21 280.556,118.561 280.556,116.526 C280.556,114.491 278.814,112.842 276.667,112.842 L243.611,112.842 C241.463,112.842 239.722,114.491 239.722,116.526 C239.722,118.561 241.463,120.21 243.611,120.21 Z" />
        </g>
        <g id="Regular-M" transform="translate(0,200)">
            <path d="M486.389,138.631 L443.611,138.631 L446.019,145.209 C447.985,143.741 450.787,141.112 453.577,137.428 C458.269,131.23 461.111,124.214 461.111,116.526 C461.111,111.317 459.755,107.871 456.466,102.532 C456.027,101.823 455.808,101.468 455.611,101.144 C453.651,97.927 452.914,96.052 452.882,93.655 C452.885,87.746 456.025,84.523 461.539,83.606 C466.66,82.754 472.809,84.29 475.746,86.934 C477.302,88.335 479.764,88.276 481.243,86.801 C482.723,85.326 482.66,82.994 481.103,81.592 C476.301,77.268 467.651,75.108 460.194,76.348 C451.103,77.86 445.109,84.013 445.104,93.7 C445.158,97.688 446.307,100.613 448.874,104.827 C449.085,105.172 449.317,105.548 449.749,106.247 C452.403,110.556 453.333,112.919 453.333,116.526 C453.333,122.51 451.071,128.095 447.257,133.133 C445.902,134.922 444.449,136.508 443.002,137.865 C442.154,138.661 441.519,139.187 441.204,139.422 C438.306,141.587 439.921,146 443.611,146 L486.389,146 C488.537,146 490.278,144.35 490.278,142.316 C490.278,140.281 488.537,138.631 486.389,138.631 Z M443.611,120.21 L476.667,120.21 C478.814,120.21 480.556,118.561 480.556,116.526 C480.556,114.491 478.814,112.842 476.667,112.842 L443.611,112.842 C441.463,112.842 439.722,114.491 439.722,116.526 C439.722,118.561 441.463,120.21 443.611,120.21 Z" />
        </g>
        <g id="Black-M" transform="translate(0,200)">
            <path d="M686.389,138.631 L643.611,138.631 L646.019,145.209 C647.985,143.741 650.787,141.112 653.577,137.428 C658.269,131.23 661.111,124.214 661.111,116.526 C661.111,111.317 659.755,107.871 656.466,102.532 C656.027,101.823 655.808,101.468 655.611,101.144 C653.651,97.927 652.914,96.052 652.882,93.655 C652.885,87.746 656.025,84.523 661.539,83.606 C666.66,82.754 672.809,84.29 675.746,86.934 C677.302,88.335 679.764,88.276 681.243,86.801 C682.723,85.326 682.66,82.994 681.103,81.592 C676.301,77.268 667.651,75.108 660.194,76.348 C651.103,77.86 645.109,84.013 645.104,93.7 C645.158,97.688 646.307,100.613 648.874,104.827 C649.085,105.172 649.317,105.548 649.749,106.247 C652.403,110.556 653.333,112.919 653.333,116.526 C653.333,122.51 651.071,128.095 647.257,133.133 C645.902,134.922 644.449,136.508 643.002,137.865 C642.154,138.661 641.519,139.187 641.204,139.422 C638.306,141.587 639.921,146 643.611,146 L686.389,146 C688.537,146 690.278,144.35 690.278,142.316 C690.278,140.281 688.537,138.631 686.389,138.631 Z M643.611,120.21 L676.667,120.21 C678.814,120.21 680.556,118.561 680.556,116.526 C680.556,114.491 678.814,112.842 676.667,112.842 L643.611,112.842 C641.463,112.842 639.722,114.491 639.722,116.526 C639.722,118.561 641.463,120.21 643.611,120.21 Z" />
        </g>
    </g>
</svg>