<?xml version="1.0" encoding="UTF-8"?>
<svg height="600" width="800" xmlns="http://www.w3.org/2000/svg" xmlns:xlink="http://www.w3.org/1999/xlink">
    <g id="Notes" font-family="LucidaGrande, 'Lucida Grande', sans-serif" font-size="13">
        <rect fill="white" height="600.0" width="800.0" x="0.0" y="0.0" />
        <g font-size="13">
            <text x="18.0" y="176.0">Small</text>
            <text x="18.0" y="376.0">Medium</text>
            <text x="18.0" y="576.0">Large</text>
        </g>
        <g font-size="9">
            <text x="250.0" y="30.0">Ultralight</text>
            <text x="450.0" y="30.0">Regular</text>
            <text x="650.0" y="30.0">Black</text>
            <text id="template-version" fill="#505050" text-anchor="end" x="785.0" y="575.0">Template v.3.0</text>
            <a href="https://github.com/swhitty/SwiftDraw">
                <text fill="#505050" text-anchor="end" x="785.0" y="590.0">https://github.com/swhitty/SwiftDraw</text>
            </a>
        </g>
    </g>
    <g id="Guides" stroke="rgb(39, 170, 225)" stroke-width="0.5">
        <path id="Capline-S" d="M18,76 l800,0" />
        <path id="H-reference" d="M85,145.755 L87.685,145.755 L113.369,79.287 L114.052,79.287 L114.052,76 L112.148,76 L85,145.755 Z M95.693,121.536 L130.996,121.536 L130.263,119.313 L96.474,119.313 L95.693,121.536 Z M139.15,145.755 L141.787,145.755 L114.638,76 L113.466,76 L113.466,79.287 L139.15,145.755 Z" stroke="none" transform="translate(0,200)" />
        <path id="Baseline-S" d="M18,146 l800,0" />
        <path id="left-margin-Ultralight-M" d="M221,256 l0,110" />
        <path id="right-margin-Ultralight-M" d="M309,256 l0,110" />
        <path id="left-margin-Regular-M" d="M421,256 l0,110" />
        <path id="right-margin-Regular-M" d="M509,256 l0,110" />
        <path id="left-margin-Black-M" d="M621,256 l0,110" />
        <path id="right-margin-Black-M" d="M709,256 l0,110" />
        <path id="Capline-M" d="M18,276 l800,0" />
        <path id="Baseline-M" d="M18,346 l800,0" />
        <path id="Capline-L" d="M18,476 l800,0" />
        <path id="Baseline-L" d="M18,546 l800,0" />
    </g>
    <g id="Symbols">
        <g id="Ultralight-M" transform="translate(0,200)">
            <path d="M279.668,130.998 L250.337,130.998 L251.988,135.759 C253.336,134.696 255.257,132.793 257.17,130.127 C260.388,125.641 262.336,120.563 262.336,114.999 C262.336,111.229 261.406,108.735 259.151,104.871 C258.85,104.357 258.7,104.1 258.565,103.866 C257.221,101.538 256.716,100.181 256.694,98.446 C256.696,94.169 258.849,91.837 262.629,91.173 C266.141,90.556 270.357,91.668 272.371,93.581 C273.438,94.596 275.126,94.553 276.14,93.485 C277.155,92.418 277.112,90.73 276.044,89.715 C272.751,86.586 266.821,85.023 261.707,85.92 C255.474,87.014 251.364,91.467 251.361,98.479 C251.397,101.365 252.185,103.482 253.946,106.532 C254.09,106.782 254.249,107.054 254.545,107.56 C256.365,110.678 257.003,112.389 257.003,114.999 C257.003,119.33 255.452,123.372 252.836,127.018 C251.908,128.313 250.911,129.461 249.919,130.444 C249.338,131.019 248.902,131.4 248.686,131.57 C246.699,133.137 247.807,136.331 250.337,136.331 L279.668,136.331 C281.141,136.331 282.335,135.137 282.335,133.665 C282.335,132.192 281.141,130.998 279.668,130.998 Z M250.337,117.665 L273.002,117.665 C274.475,117.665 275.669,116.472 275.669,114.999 C275.669,113.526 274.475,112.332 273.002,112.332 L250.337,112.332 C248.864,112.332 247.67,113.526 247.67,114.999 C247.67,116.472 248.864,117.665 250.337,117.665 Z" />
        </g>
        <g id="Regular-M" transform="translate(0,200)">
            <path d="M479.668,130.998 L450.337,130.998 L451.988,135.759 C453.336,134.696 455.257,132.793 457.17,130.127 C460.388,125.641 462.336,120.563 462.336,114.999 C462.336,111.229 461.406,108.735 459.151,104.871 C458.85,104.357 458.7,104.1 458.565,103.866 C457.221,101.538 456.716,100.181 456.694,98.446 C456.696,94.169 458.849,91.837 462.629,91.173 C466.141,90.556 470.357,91.668 472.371,93.581 C473.438,94.596 475.126,94.553 476.14,93.485 C477.155,92.418 477.112,90.73 476.044,89.715 C472.751,86.586 466.821,85.023 461.707,85.92 C455.474,87.014 451.364,91.467 451.361,98.479 C451.397,101.365 452.185,103.482 453.946,106.532 C454.09,106.782 454.249,107.054 454.545,107.56 C456.365,110.678 457.003,112.389 457.003,114.999 C457.003,119.33 455.452,123.372 452.836,127.018 C451.908,128.313 450.911,129.461 449.919,130.444 C449.338,131.019 448.902,131.4 448.686,131.57 C446.699,133.137 447.807,136.331 450.337,136.331 L479.668,136.331 C481.141,136.331 482.335,135.137 482.335,133.665 C482.335,132.192 481.141,130.998 479.668,130.998 Z M450.337,117.665 L473.002,117.665 C474.475,117.665 475.669,116.472 475.669,114.999 C475.669,113.526 474.475,112.332 473.002,112.332 L450.337,112.332 C448.864,112.332 447.67,113.526 447.67,114.999 C447.67,116.472 448.864,117.665 450.337,117.665 Z" />
        </g>
        <g id="Black-M" transform="translate(0,200)">
            <path d="M679.668,130.998 L650.337,130.998 L651.988,135.759 C653.336,134.696 655.257,132.793 657.17,130.127 C660.388,125.641 662.336,120.563 662.336,114.999 C662.336,111.229 661.406,108.735 659.151,104.871 C658.85,104.357 658.7,104.1 658.565,103.866 C657.221,101.538 656.716,100.181 656.694,98.446 C656.696,94.169 658.849,91.837 662.629,91.173 C666.141,90.556 670.357,91.668 672.371,93.581 C673.438,94.596 675.126,94.553 676.14,93.485 C677.155,92.418 677.112,90.73 676.044,89.715 C672.751,86.586 666.821,85.023 661.707,85.92 C655.474,87.014 651.364,91.467 651.361,98.479 C651.397,101.365 652.185,103.482 653.946,106.532 C654.09,106.782 654.249,107.054 654.545,107.56 C656.365,110.678 657.003,112.389 657.003,114.999 C657.003,119.33 655.452,123.372 652.836,127.018 C651.908,128.313 650.911,129.461 649.919,130.444 C649.338,131.019 648.902,131.4 648.686,131.57 C646.699,133.137 647.807,136.331 650.337,136.331 L679.668,136.331 C681.141,136.331 682.335,135.137 682.335,133.665 C682.335,132.192 681.141,130.998 679.668,130.998 Z M650.337,117.665 L673.002,117.665 C674.475,117.665 675.669,116.472 675.669,114.999 C675.669,113.526 674.475,112.332 673.002,112.332 L650.337,112.332 C648.864,112.332 647.67,113.526 647.67,114.999 C647.67,116.472 648.864,117.665 650.337,117.665 Z" />
        </g>
    </g>
</svg>