<?xml version="1.0" encoding="UTF-8"?>
<svg height="600" width="800" xmlns="http://www.w3.org/2000/svg" xmlns:xlink="http://www.w3.org/1999/xlink">
    <g id="Notes" font-family="LucidaGrande, 'Lucida Grande', sans-serif" font-size="13">
        <rect fill="white" height="600.0" width="800.0" x="0.0" y="0.0" />
        <g font-size="13">
            <text x="18.0" y="176.0">Small</text>
            <text x="18.0" y="376.0">Medium</text>
            <text x="18.0" y="576.0">Large</text>
        </g>
        <g font-size="9">
            <text x="250.0" y="30.0">Ultralight</text>
            <text x="450.0" y="30.0">Regular</text>
            <text x="650.0" y="30.0">Black</text>
            <text id="template-version" fill="#505050" text-anchor="end" x="785.0" y="575.0">Template v.3.0</text>
            <a href="https://github.com/swhitty/SwiftDraw">
                <text fill="#505050" text-anchor="end" x="785.0" y="590.0">https://github.com/swhitty/SwiftDraw</text>
            </a>
        </g>
    </g>
    <g id="Guides" stroke="rgb(39, 170, 225)" stroke-width="0.5">
        <path id="Capline-S" d="M18,76 l800,0" />
        <path id="H-reference" d="M85,145.755 L87.685,145.755 L113.369,79.287 L114.052,79.287 L114.052,76 L112.148,76 L85,145.755 Z M95.693,121.536 L130.996,121.536 L130.263,119.313 L96.474,119.313 L95.693,121.536 Z M139.15,145.755 L141.787,145.755 L114.638,76 L113.466,76 L113.466,79.287 L139.15,145.755 Z" stroke="none" transform="translate(0,200)" />
        <path id="Baseline-S" d="M18,146 l800,0" />
        <path id="left-margin-Ultralight-M" d="M221,256 l0,110" />
        <path id="right-margin-Ultralight-M" d="M309,256 l0,110" />
        <path id="left-margin-Regular-M" d="M421,256 l0,110" />
        <path id="right-margin-Regular-M" d="M509,256 l0,110" />
        <path id="left-margin-Black-M" d="M621,256 l0,110" />
        <path id="right-margin-Black-M" d="M709,256 l0,110" />
        <path id="Capline-M" d="M18,276 l800,0" />
        <path id="Baseline-M" d="M18,346 l800,0" />
        <path id="Capline-L" d="M18,476 l800,0" />
        <path id="Baseline-L" d="M18,546 l800,0" />
    </g>
    <g id="Symbols">
        <g id="Ultralight-M" transform="translate(0,200)">
            <path d="M265,134.048 C277.729,134.048 288.048,123.729 288.048,111 C288.048,98.271 277.729,87.952 265,87.952 C252.271,87.952 241.952,98.271 241.952,111 C241.952,123.729 252.271,134.048 265,134.048 Z M265,129.857 C254.585,129.857 246.143,121.415 246.143,111 C246.143,100.585 254.585,92.143 265,92.143 C275.415,92.143 283.857,100.585 283.857,111 C283.857,121.415 275.415,129.857 265,129.857 Z" />
            <path d="M258.714,105.971 C258.714,104.926 258.735,104.674 258.714,104.714 C258.714,104.714 258.714,104.714 258.714,104.714 C258.674,104.735 258.926,104.714 259.971,104.714 L270.029,104.714 C271.074,104.714 271.326,104.735 271.286,104.714 C271.286,104.714 271.286,104.714 271.286,104.714 C271.265,104.674 271.286,104.926 271.286,105.971 L271.286,116.029 C271.286,117.074 271.265,117.326 271.286,117.286 C271.286,117.286 271.286,117.286 271.286,117.286 C271.326,117.265 271.074,117.286 270.029,117.286 L259.971,117.286 C258.926,117.286 258.674,117.265 258.714,117.286 C258.714,117.286 258.714,117.286 258.714,117.286 C258.735,117.326 258.714,117.074 258.714,116.029 L258.714,105.971 Z M254.524,105.971 L254.524,116.029 C254.524,117.916 254.56,118.363 254.98,119.188 C255.382,119.977 256.023,120.618 256.812,121.019 C257.637,121.44 258.084,121.476 259.971,121.476 L270.029,121.476 C271.916,121.476 272.363,121.44 273.188,121.02 C273.977,120.618 274.618,119.977 275.019,119.188 C275.44,118.363 275.476,117.916 275.476,116.029 L275.476,105.971 C275.476,104.084 275.44,103.637 275.02,102.812 C274.618,102.023 273.977,101.382 273.188,100.981 C272.363,100.56 271.916,100.524 270.029,100.524 L259.971,100.524 C258.084,100.524 257.637,100.56 256.812,100.98 C256.023,101.382 255.382,102.023 254.981,102.812 C254.56,103.637 254.524,104.084 254.524,105.971 Z" />
        </g>
        <g id="Regular-M" transform="translate(0,200)">
            <path d="M465,134.048 C477.729,134.048 488.048,123.729 488.048,111 C488.048,98.271 477.729,87.952 465,87.952 C452.271,87.952 441.952,98.271 441.952,111 C441.952,123.729 452.271,134.048 465,134.048 Z M465,129.857 C454.585,129.857 446.143,121.415 446.143,111 C446.143,100.585 454.585,92.143 465,92.143 C475.415,92.143 483.857,100.585 483.857,111 C483.857,121.415 475.415,129.857 465,129.857 Z" />
            <path d="M458.714,105.971 C458.714,104.926 458.735,104.674 458.714,104.714 C458.714,104.714 458.714,104.714 458.714,104.714 C458.674,104.735 458.926,104.714 459.971,104.714 L470.029,104.714 C471.074,104.714 471.326,104.735 471.286,104.714 C471.286,104.714 471.286,104.714 471.286,104.714 C471.265,104.674 471.286,104.926 471.286,105.971 L471.286,116.029 C471.286,117.074 471.265,117.326 471.286,117.286 C471.286,117.286 471.286,117.286 471.286,117.286 C471.326,117.265 471.074,117.286 470.029,117.286 L459.971,117.286 C458.926,117.286 458.674,117.265 458.714,117.286 C458.714,117.286 458.714,117.286 458.714,117.286 C458.735,117.326 458.714,117.074 458.714,116.029 L458.714,105.971 Z M454.524,105.971 L454.524,116.029 C454.524,117.916 454.56,118.363 454.98,119.188 C455.382,119.977 456.023,120.618 456.812,121.019 C457.637,121.44 458.084,121.476 459.971,121.476 L470.029,121.476 C471.916,121.476 472.363,121.44 473.188,121.02 C473.977,120.618 474.618,119.977 475.019,119.188 C475.44,118.363 475.476,117.916 475.476,116.029 L475.476,105.971 C475.476,104.084 475.44,103.637 475.02,102.812 C474.618,102.023 473.977,101.382 473.188,100.981 C472.363,100.56 471.916,100.524 470.029,100.524 L459.971,100.524 C458.084,100.524 457.637,100.56 456.812,100.98 C456.023,101.382 455.382,102.023 454.981,102.812 C454.56,103.637 454.524,104.084 454.524,105.971 Z" />
        </g>
        <g id="Black-M" transform="translate(0,200)">
            <path d="M665,134.048 C677.729,134.048 688.048,123.729 688.048,111 C688.048,98.271 677.729,87.952 665,87.952 C652.271,87.952 641.952,98.271 641.952,111 C641.952,123.729 652.271,134.048 665,134.048 Z M665,129.857 C654.585,129.857 646.143,121.415 646.143,111 C646.143,100.585 654.585,92.143 665,92.143 C675.415,92.143 683.857,100.585 683.857,111 C683.857,121.415 675.415,129.857 665,129.857 Z" />
            <path d="M658.714,105.971 C658.714,104.926 658.735,104.674 658.714,104.714 C658.714,104.714 658.714,104.714 658.714,104.714 C658.674,104.735 658.926,104.714 659.971,104.714 L670.029,104.714 C671.074,104.714 671.326,104.735 671.286,104.714 C671.286,104.714 671.286,104.714 671.286,104.714 C671.265,104.674 671.286,104.926 671.286,105.971 L671.286,116.029 C671.286,117.074 671.265,117.326 671.286,117.286 C671.286,117.286 671.286,117.286 671.286,117.286 C671.326,117.265 671.074,117.286 670.029,117.286 L659.971,117.286 C658.926,117.286 658.674,117.265 658.714,117.286 C658.714,117.286 658.714,117.286 658.714,117.286 C658.735,117.326 658.714,117.074 658.714,116.029 L658.714,105.971 Z M654.524,105.971 L654.524,116.029 C654.524,117.916 654.56,118.363 654.98,119.188 C655.382,119.977 656.023,120.618 656.812,121.019 C657.637,121.44 658.084,121.476 659.971,121.476 L670.029,121.476 C671.916,121.476 672.363,121.44 673.188,121.02 C673.977,120.618 674.618,119.977 675.019,119.188 C675.44,118.363 675.476,117.916 675.476,116.029 L675.476,105.971 C675.476,104.084 675.44,103.637 675.02,102.812 C674.618,102.023 673.977,101.382 673.188,100.981 C672.363,100.56 671.916,100.524 670.029,100.524 L659.971,100.524 C658.084,100.524 657.637,100.56 656.812,100.98 C656.023,101.382 655.382,102.023 654.981,102.812 C654.56,103.637 654.524,104.084 654.524,105.971 Z" />
        </g>
    </g>
</svg>