<?xml version="1.0" encoding="UTF-8"?>
<svg height="600" width="800" xmlns="http://www.w3.org/2000/svg" xmlns:xlink="http://www.w3.org/1999/xlink">
    <g id="Notes" font-family="LucidaGrande, 'Lucida Grande', sans-serif" font-size="13">
        <rect fill="white" height="600.0" width="800.0" x="0.0" y="0.0" />
        <g font-size="13">
            <text x="18.0" y="176.0">Small</text>
            <text x="18.0" y="376.0">Medium</text>
            <text x="18.0" y="576.0">Large</text>
        </g>
        <g font-size="9">
            <text x="250.0" y="30.0">Ultralight</text>
            <text x="450.0" y="30.0">Regular</text>
            <text x="650.0" y="30.0">Black</text>
            <text id="template-version" fill="#505050" text-anchor="end" x="785.0" y="575.0">Template v.3.0</text>
            <a href="https://github.com/swhitty/SwiftDraw">
                <text fill="#505050" text-anchor="end" x="785.0" y="590.0">https://github.com/swhitty/SwiftDraw</text>
            </a>
        </g>
    </g>
    <g id="Guides" stroke="rgb(39, 170, 225)" stroke-width="0.5">
        <path id="Capline-S" d="M18,76 l800,0" />
        <path id="H-reference" d="M85,145.755 L87.685,145.755 L113.369,79.287 L114.052,79.287 L114.052,76 L112.148,76 L85,145.755 Z M95.693,121.536 L130.996,121.536 L130.263,119.313 L96.474,119.313 L95.693,121.536 Z M139.15,145.755 L141.787,145.755 L114.638,76 L113.466,76 L113.466,79.287 L139.15,145.755 Z" stroke="none" transform="translate(0,200)" />
        <path id="Baseline-S" d="M18,146 l800,0" />
        <path id="left-margin-Ultralight-M" d="M230,256 l0,110" />
        <path id="right-margin-Ultralight-M" d="M300,256 l0,110" />
        <path id="left-margin-Regular-M" d="M430,256 l0,110" />
        <path id="right-margin-Regular-M" d="M500,256 l0,110" />
        <path id="left-margin-Black-M" d="M630,256 l0,110" />
        <path id="right-margin-Black-M" d="M700,256 l0,110" />
        <path id="Capline-M" d="M18,276 l800,0" />
        <path id="Baseline-M" d="M18,346 l800,0" />
        <path id="Capline-L" d="M18,476 l800,0" />
        <path id="Baseline-L" d="M18,546 l800,0" />
    </g>
    <g id="Symbols">
        <g id="Ultralight-M" transform="translate(0,200)">
            <path d="M266.145,105.501 L235.172,136.474 C233.899,137.747 233.899,139.811 235.172,141.084 C236.445,142.357 238.51,142.357 239.783,141.084 L270.755,110.112 C272.029,108.839 272.029,106.774 270.755,105.501 C269.482,104.228 267.418,104.228 266.145,105.501 Z M269.964,86.193 C273.868,88.79 277.504,91.77 280.817,95.09 C284.169,98.435 287.171,102.104 289.783,106.047 C290.777,107.548 292.801,107.959 294.302,106.964 C295.803,105.97 296.213,103.947 295.219,102.445 C292.365,98.138 289.085,94.129 285.428,90.479 C281.813,86.857 277.841,83.601 273.574,80.764 C272.075,79.767 270.051,80.174 269.054,81.673 C268.057,83.172 268.464,85.196 269.964,86.193 Z M257.271,94.594 L247.898,91.47 C245.74,90.751 243.363,91.208 241.626,92.677 L232.307,100.561 C230.536,102.061 229.697,104.386 230.099,106.67 C230.502,108.953 232.087,110.85 234.261,111.654 L243.092,114.908 C244.782,115.531 246.656,114.666 247.279,112.977 C247.902,111.287 247.037,109.413 245.347,108.79 L236.518,105.536 C236.521,105.537 236.521,105.537 236.521,105.537 C236.521,105.537 236.521,105.537 236.521,105.537 L245.837,97.655 C245.836,97.656 245.836,97.656 245.836,97.656 L255.21,100.78 C256.918,101.349 258.764,100.426 259.333,98.717 C259.903,97.009 258.979,95.163 257.271,94.594 Z M261.09,132.902 L264.341,141.731 C265.143,143.909 267.042,145.496 269.328,145.899 C271.613,146.302 273.94,145.46 275.439,143.688 L283.318,134.374 C284.788,132.64 285.247,130.262 284.529,128.103 L281.402,118.727 C280.832,117.019 278.985,116.096 277.277,116.666 C275.569,117.236 274.647,119.082 275.216,120.79 L278.343,130.163 C278.342,130.16 278.342,130.16 278.342,130.16 L270.46,139.477 C270.46,139.478 270.46,139.478 270.46,139.478 C270.46,139.478 270.46,139.478 270.46,139.478 L267.209,130.649 C266.587,128.96 264.713,128.094 263.023,128.716 C261.334,129.338 260.468,131.213 261.09,132.902 Z M288.611,76.128 L272.616,78.792 C270.181,79.197 267.948,80.394 266.261,82.197 L244.701,105.254 C237.961,112.532 238.178,123.818 245.182,130.82 C252.186,137.823 263.471,138.039 270.737,131.308 L293.799,109.738 C295.6,108.047 296.796,105.815 297.2,103.386 L299.867,87.389 C300.386,84.272 299.368,81.098 297.134,78.865 C294.9,76.632 291.725,75.615 288.61,76.135 L289.146,79.351 L292.406,79.348 L292.406,79.341 C292.404,77.328 290.596,75.798 288.611,76.128 Z M289.682,82.56 L289.146,79.344 L285.886,79.348 L285.886,79.354 C285.888,81.368 287.697,82.898 289.683,82.567 C290.721,82.393 291.779,82.732 292.524,83.477 C293.269,84.221 293.608,85.279 293.435,86.318 L290.768,102.315 C290.599,103.331 290.097,104.27 289.341,104.979 L266.295,126.536 C261.611,130.874 254.318,130.734 249.792,126.209 C245.267,121.684 245.126,114.391 249.474,109.696 L271.024,86.651 C271.73,85.895 272.666,85.394 273.687,85.224 L289.682,82.56 Z" />
        </g>
        <g id="Regular-M" transform="translate(0,200)">
            <path d="M466.145,105.501 L435.172,136.474 C433.899,137.747 433.899,139.811 435.172,141.084 C436.445,142.357 438.51,142.357 439.783,141.084 L470.755,110.112 C472.029,108.839 472.029,106.774 470.755,105.501 C469.482,104.228 467.418,104.228 466.145,105.501 Z M469.964,86.193 C473.868,88.79 477.504,91.77 480.817,95.09 C484.169,98.435 487.171,102.104 489.783,106.047 C490.777,107.548 492.801,107.959 494.302,106.964 C495.803,105.97 496.213,103.947 495.219,102.445 C492.365,98.138 489.085,94.129 485.428,90.479 C481.813,86.857 477.841,83.601 473.574,80.764 C472.075,79.767 470.051,80.174 469.054,81.673 C468.057,83.172 468.464,85.196 469.964,86.193 Z M457.271,94.594 L447.898,91.47 C445.74,90.751 443.363,91.208 441.626,92.677 L432.307,100.561 C430.536,102.061 429.697,104.386 430.099,106.67 C430.502,108.953 432.087,110.85 434.261,111.654 L443.092,114.908 C444.782,115.531 446.656,114.666 447.279,112.977 C447.902,111.287 447.037,109.413 445.347,108.79 L436.518,105.536 C436.521,105.537 436.521,105.537 436.521,105.537 C436.521,105.537 436.521,105.537 436.521,105.537 L445.837,97.655 C445.836,97.656 445.836,97.656 445.836,97.656 L455.21,100.78 C456.918,101.349 458.764,100.426 459.333,98.717 C459.903,97.009 458.979,95.163 457.271,94.594 Z M461.09,132.902 L464.341,141.731 C465.143,143.909 467.042,145.496 469.328,145.899 C471.613,146.302 473.94,145.46 475.439,143.688 L483.318,134.374 C484.788,132.64 485.247,130.262 484.529,128.103 L481.402,118.727 C480.832,117.019 478.985,116.096 477.277,116.666 C475.569,117.236 474.647,119.082 475.216,120.79 L478.343,130.163 C478.342,130.16 478.342,130.16 478.342,130.16 L470.46,139.477 C470.46,139.478 470.46,139.478 470.46,139.478 C470.46,139.478 470.46,139.478 470.46,139.478 L467.209,130.649 C466.587,128.96 464.713,128.094 463.023,128.716 C461.334,129.338 460.468,131.213 461.09,132.902 Z M488.611,76.128 L472.616,78.792 C470.181,79.197 467.948,80.394 466.261,82.197 L444.701,105.254 C437.961,112.532 438.178,123.818 445.182,130.82 C452.186,137.823 463.471,138.039 470.737,131.308 L493.799,109.738 C495.6,108.047 496.796,105.815 497.2,103.386 L499.867,87.389 C500.386,84.272 499.368,81.098 497.134,78.865 C494.9,76.632 491.725,75.615 488.61,76.135 L489.146,79.351 L492.406,79.348 L492.406,79.341 C492.404,77.328 490.596,75.798 488.611,76.128 Z M489.682,82.56 L489.146,79.344 L485.886,79.348 L485.886,79.354 C485.888,81.368 487.697,82.898 489.683,82.567 C490.721,82.393 491.779,82.732 492.524,83.477 C493.269,84.221 493.608,85.279 493.435,86.318 L490.768,102.315 C490.599,103.331 490.097,104.27 489.341,104.979 L466.295,126.536 C461.611,130.874 454.318,130.734 449.792,126.209 C445.267,121.684 445.126,114.391 449.474,109.696 L471.024,86.651 C471.73,85.895 472.666,85.394 473.687,85.224 L489.682,82.56 Z" />
        </g>
        <g id="Black-M" transform="translate(0,200)">
            <path d="M666.145,105.501 L635.172,136.474 C633.899,137.747 633.899,139.811 635.172,141.084 C636.445,142.357 638.51,142.357 639.783,141.084 L670.755,110.112 C672.029,108.839 672.029,106.774 670.755,105.501 C669.482,104.228 667.418,104.228 666.145,105.501 Z M669.964,86.193 C673.868,88.79 677.504,91.77 680.817,95.09 C684.169,98.435 687.171,102.104 689.783,106.047 C690.777,107.548 692.801,107.959 694.302,106.964 C695.803,105.97 696.213,103.947 695.219,102.445 C692.365,98.138 689.085,94.129 685.428,90.479 C681.813,86.857 677.841,83.601 673.574,80.764 C672.075,79.767 670.051,80.174 669.054,81.673 C668.057,83.172 668.464,85.196 669.964,86.193 Z M657.271,94.594 L647.898,91.47 C645.74,90.751 643.363,91.208 641.626,92.677 L632.307,100.561 C630.536,102.061 629.696,104.386 630.099,106.67 C630.502,108.953 632.087,110.85 634.261,111.654 L643.092,114.908 C644.782,115.531 646.656,114.666 647.279,112.977 C647.902,111.287 647.037,109.413 645.347,108.79 L636.518,105.536 C636.521,105.537 636.521,105.537 636.521,105.537 C636.521,105.537 636.521,105.537 636.521,105.537 L645.837,97.655 C645.836,97.656 645.836,97.656 645.836,97.656 L655.21,100.78 C656.918,101.349 658.764,100.426 659.333,98.717 C659.903,97.009 658.979,95.163 657.271,94.594 Z M661.09,132.902 L664.341,141.731 C665.143,143.909 667.042,145.496 669.328,145.899 C671.613,146.302 673.94,145.46 675.439,143.688 L683.318,134.374 C684.788,132.64 685.247,130.262 684.529,128.103 L681.402,118.727 C680.832,117.019 678.985,116.096 677.277,116.666 C675.569,117.236 674.647,119.082 675.216,120.79 L678.343,130.163 C678.342,130.16 678.342,130.16 678.342,130.16 L670.46,139.477 C670.46,139.478 670.46,139.478 670.46,139.478 C670.46,139.478 670.46,139.478 670.46,139.478 L667.209,130.649 C666.587,128.96 664.713,128.094 663.023,128.716 C661.334,129.338 660.468,131.213 661.09,132.902 Z M688.611,76.128 L672.616,78.792 C670.181,79.197 667.948,80.394 666.261,82.197 L644.701,105.254 C637.961,112.532 638.178,123.818 645.182,130.82 C652.186,137.823 663.471,138.039 670.737,131.308 L693.799,109.738 C695.6,108.047 696.796,105.815 697.2,103.386 L699.867,87.389 C700.386,84.272 699.368,81.098 697.134,78.865 C694.9,76.632 691.725,75.615 688.61,76.135 L689.146,79.351 L692.406,79.348 L692.406,79.341 C692.404,77.328 690.596,75.798 688.611,76.128 Z M689.682,82.56 L689.146,79.344 L685.886,79.348 L685.886,79.354 C685.888,81.368 687.696,82.898 689.683,82.567 C690.721,82.393 691.779,82.732 692.524,83.477 C693.269,84.221 693.608,85.279 693.435,86.318 L690.768,102.315 C690.599,103.331 690.097,104.27 689.341,104.979 L666.295,126.536 C661.611,130.874 654.318,130.734 649.792,126.209 C645.267,121.684 645.126,114.391 649.474,109.696 L671.024,86.651 C671.73,85.895 672.666,85.394 673.687,85.224 L689.682,82.56 Z" />
        </g>
    </g>
</svg>