<?xml version="1.0" encoding="UTF-8"?>
<svg height="600" width="800" xmlns="http://www.w3.org/2000/svg" xmlns:xlink="http://www.w3.org/1999/xlink">
    <g id="Notes" font-family="LucidaGrande, 'Lucida Grande', sans-serif" font-size="13">
        <rect fill="white" height="600.0" width="800.0" x="0.0" y="0.0" />
        <g font-size="13">
            <text x="18.0" y="176.0">Small</text>
            <text x="18.0" y="376.0">Medium</text>
            <text x="18.0" y="576.0">Large</text>
        </g>
        <g font-size="9">
            <text x="250.0" y="30.0">Ultralight</text>
            <text x="450.0" y="30.0">Regular</text>
            <text x="650.0" y="30.0">Black</text>
            <text id="template-version" fill="#505050" text-anchor="end" x="785.0" y="575.0">Template v.3.0</text>
            <a href="https://github.com/swhitty/SwiftDraw">
                <text fill="#505050" text-anchor="end" x="785.0" y="590.0">https://github.com/swhitty/SwiftDraw</text>
            </a>
        </g>
    </g>
    <g id="Guides" stroke="rgb(39, 170, 225)" stroke-width="0.5">
        <path id="Capline-S" d="M18,76 l800,0" />
        <path id="H-reference" d="M85,145.755 L87.685,145.755 L113.369,79.287 L114.052,79.287 L114.052,76 L112.148,76 L85,145.755 Z M95.693,121.536 L130.996,121.536 L130.263,119.313 L96.474,119.313 L95.693,121.536 Z M139.15,145.755 L141.787,145.755 L114.638,76 L113.466,76 L113.466,79.287 L139.15,145.755 Z" stroke="none" transform="translate(0,200)" />
        <path id="Baseline-S" d="M18,146 l800,0" />
        <path id="left-margin-Ultralight-M" d="M230,256 l0,110" />
        <path id="right-margin-Ultralight-M" d="M300,256 l0,110" />
        <path id="left-margin-Regular-M" d="M430,256 l0,110" />
        <path id="right-margin-Regular-M" d="M500,256 l0,110" />
        <path id="left-margin-Black-M" d="M630,256 l0,110" />
        <path id="right-margin-Black-M" d="M700,256 l0,110" />
        <path id="Capline-M" d="M18,276 l800,0" />
        <path id="Baseline-M" d="M18,346 l800,0" />
        <path id="Capline-L" d="M18,476 l800,0" />
        <path id="Baseline-L" d="M18,546 l800,0" />
    </g>
    <g id="Symbols">
        <g id="Ultralight-M" transform="translate(0,200)">
            <path d="M233.5,146 L296.5,146 C298.433,146 300,144.433 300,142.5 C300,140.567 298.433,139 296.5,139 L233.5,139 C231.567,139 230,140.567 230,142.5 C230,144.433 231.567,146 233.5,146 Z M261.5,79.5 L261.5,128.5 C261.5,130.433 263.067,132 265,132 C266.933,132 268.5,130.433 268.5,128.5 L268.5,79.5 C268.5,77.567 266.933,76 265,76 C263.067,76 261.5,77.567 261.5,79.5 Z M267.475,130.975 L291.975,106.475 C293.342,105.108 293.342,102.892 291.975,101.525 C290.608,100.158 288.392,100.158 287.025,101.525 L262.525,126.025 C261.158,127.392 261.158,129.608 262.525,130.975 C263.892,132.342 266.108,132.342 267.475,130.975 Z M267.475,126.025 L242.975,101.525 C241.608,100.158 239.392,100.158 238.025,101.525 C236.658,102.892 236.658,105.108 238.025,106.475 L262.525,130.975 C263.892,132.342 266.108,132.342 267.475,130.975 C268.842,129.608 268.842,127.392 267.475,126.025 Z" />
        </g>
        <g id="Regular-M" transform="translate(0,200)">
            <path d="M433.5,146 L496.5,146 C498.433,146 500,144.433 500,142.5 C500,140.567 498.433,139 496.5,139 L433.5,139 C431.567,139 430,140.567 430,142.5 C430,144.433 431.567,146 433.5,146 Z M461.5,79.5 L461.5,128.5 C461.5,130.433 463.067,132 465,132 C466.933,132 468.5,130.433 468.5,128.5 L468.5,79.5 C468.5,77.567 466.933,76 465,76 C463.067,76 461.5,77.567 461.5,79.5 Z M467.475,130.975 L491.975,106.475 C493.342,105.108 493.342,102.892 491.975,101.525 C490.608,100.158 488.392,100.158 487.025,101.525 L462.525,126.025 C461.158,127.392 461.158,129.608 462.525,130.975 C463.892,132.342 466.108,132.342 467.475,130.975 Z M467.475,126.025 L442.975,101.525 C441.608,100.158 439.392,100.158 438.025,101.525 C436.658,102.892 436.658,105.108 438.025,106.475 L462.525,130.975 C463.892,132.342 466.108,132.342 467.475,130.975 C468.842,129.608 468.842,127.392 467.475,126.025 Z" />
        </g>
        <g id="Black-M" transform="translate(0,200)">
            <path d="M633.5,146 L696.5,146 C698.433,146 700,144.433 700,142.5 C700,140.567 698.433,139 696.5,139 L633.5,139 C631.567,139 630,140.567 630,142.5 C630,144.433 631.567,146 633.5,146 Z M661.5,79.5 L661.5,128.5 C661.5,130.433 663.067,132 665,132 C666.933,132 668.5,130.433 668.5,128.5 L668.5,79.5 C668.5,77.567 666.933,76 665,76 C663.067,76 661.5,77.567 661.5,79.5 Z M667.475,130.975 L691.975,106.475 C693.342,105.108 693.342,102.892 691.975,101.525 C690.608,100.158 688.392,100.158 687.025,101.525 L662.525,126.025 C661.158,127.392 661.158,129.608 662.525,130.975 C663.892,132.342 666.108,132.342 667.475,130.975 Z M667.475,126.025 L642.975,101.525 C641.608,100.158 639.392,100.158 638.025,101.525 C636.658,102.892 636.658,105.108 638.025,106.475 L662.525,130.975 C663.892,132.342 666.108,132.342 667.475,130.975 C668.842,129.608 668.842,127.392 667.475,126.025 Z" />
        </g>
    </g>
</svg>