<?xml version="1.0" encoding="UTF-8"?>
<svg height="600" width="800" xmlns="http://www.w3.org/2000/svg" xmlns:xlink="http://www.w3.org/1999/xlink">
    <g id="Notes" font-family="LucidaGrande, 'Lucida Grande', sans-serif" font-size="13">
        <rect fill="white" height="600.0" width="800.0" x="0.0" y="0.0" />
        <g font-size="13">
            <text x="18.0" y="176.0">Small</text>
            <text x="18.0" y="376.0">Medium</text>
            <text x="18.0" y="576.0">Large</text>
        </g>
        <g font-size="9">
            <text x="250.0" y="30.0">Ultralight</text>
            <text x="450.0" y="30.0">Regular</text>
            <text x="650.0" y="30.0">Black</text>
            <text id="template-version" fill="#505050" text-anchor="end" x="785.0" y="575.0">Template v.3.0</text>
            <a href="https://github.com/swhitty/SwiftDraw">
                <text fill="#505050" text-anchor="end" x="785.0" y="590.0">https://github.com/swhitty/SwiftDraw</text>
            </a>
        </g>
    </g>
    <g id="Guides" stroke="rgb(39, 170, 225)" stroke-width="0.5">
        <path id="Capline-S" d="M18,76 l800,0" />
        <path id="H-reference" d="M85,145.755 L87.685,145.755 L113.369,79.287 L114.052,79.287 L114.052,76 L112.148,76 L85,145.755 Z M95.693,121.536 L130.996,121.536 L130.263,119.313 L96.474,119.313 L95.693,121.536 Z M139.15,145.755 L141.787,145.755 L114.638,76 L113.466,76 L113.466,79.287 L139.15,145.755 Z" stroke="none" transform="translate(0,200)" />
        <path id="Baseline-S" d="M18,146 l800,0" />
        <path id="left-margin-Ultralight-M" d="M230,256 l0,110" />
        <path id="right-margin-Ultralight-M" d="M300,256 l0,110" />
        <path id="left-margin-Regular-M" d="M430,256 l0,110" />
        <path id="right-margin-Regular-M" d="M500,256 l0,110" />
        <path id="left-margin-Black-M" d="M630,256 l0,110" />
        <path id="right-margin-Black-M" d="M700,256 l0,110" />
        <path id="Capline-M" d="M18,276 l800,0" />
        <path id="Baseline-M" d="M18,346 l800,0" />
        <path id="Capline-L" d="M18,476 l800,0" />
        <path id="Baseline-L" d="M18,546 l800,0" />
    </g>
    <g id="Symbols">
        <g id="Ultralight-M" transform="translate(0,200)">
            <path d="M261.464,79.177 L250.475,79.177 C242.574,79.177 240.697,79.33 238.059,80.674 C235.474,81.991 233.373,84.092 232.056,86.676 C230.712,89.315 230.559,91.192 230.559,99.093 L230.559,116.949 C230.559,121.324 230.607,122.368 231.026,123.937 C232.299,128.681 236.003,132.38 240.742,133.648 C242.305,134.071 243.349,134.119 247.728,134.119 L247.728,130.685 L244.295,130.685 L244.295,138.703 C244.295,142.222 244.339,142.714 245.429,144.07 C246.399,145.285 247.877,145.998 249.44,146 C251.183,146 251.584,145.735 254.338,143.53 L262.527,136.979 C264.4,135.479 264.866,135.136 265.39,134.867 C265.935,134.591 266.527,134.383 267.137,134.257 C267.704,134.141 268.269,134.119 270.68,134.119 L275.886,134.119 C283.787,134.119 285.665,133.965 288.302,132.622 C290.887,131.305 292.989,129.204 294.305,126.619 C295.649,123.981 295.803,122.103 295.803,114.202 L295.803,113.516 C295.803,111.619 294.265,110.082 292.369,110.082 C290.472,110.082 288.935,111.619 288.935,113.516 L288.935,114.202 C288.935,120.724 288.807,122.282 288.186,123.502 C287.528,124.793 286.477,125.844 285.185,126.502 C283.965,127.124 282.407,127.251 275.886,127.251 L270.68,127.251 C267.732,127.251 266.973,127.281 265.753,127.53 C264.537,127.782 263.371,128.191 262.272,128.748 C261.149,129.324 260.525,129.784 258.236,131.617 L250.047,138.168 C249.156,138.881 248.857,139.112 248.615,139.273 C248.678,139.231 248.918,139.132 249.445,139.132 C249.971,139.133 250.464,139.371 250.789,139.778 C251.115,140.183 251.188,140.433 251.195,140.509 C251.169,140.219 251.162,139.834 251.162,138.703 L251.162,130.685 C251.162,128.788 249.625,127.251 247.728,127.251 C244.124,127.251 243.245,127.211 242.526,127.016 C240.147,126.38 238.296,124.53 237.66,122.161 C237.467,121.439 237.427,120.559 237.427,116.949 L237.427,99.093 C237.427,92.572 237.554,91.014 238.176,89.794 C238.834,88.502 239.884,87.452 241.177,86.793 C242.396,86.172 243.954,86.045 250.475,86.045 L261.464,86.045 C263.36,86.045 264.898,84.507 264.898,82.611 C264.898,80.714 263.36,79.177 261.464,79.177 Z M290.424,84.69 C292.24,86.407 292.98,88.975 292.355,91.395 C291.731,93.815 289.841,95.705 287.421,96.329 C285.001,96.954 282.433,96.214 280.716,94.399 C278.212,91.711 278.286,87.495 280.902,84.879 C283.517,82.264 287.734,82.19 290.44,84.711 C291.796,85.974 293.91,85.934 295.216,84.62 L295.22,84.616 L292.784,82.195 L290.424,84.69 Z M295.144,79.701 C293.79,78.42 291.662,78.453 290.349,79.774 L290.345,79.778 L292.781,82.199 L295.122,79.686 C289.71,74.644 281.276,74.792 276.045,80.023 C270.815,85.254 270.666,93.687 275.709,99.099 C279.161,102.749 284.297,104.228 289.137,102.979 C293.977,101.73 297.756,97.951 299.005,93.111 C300.254,88.271 298.775,83.135 295.144,79.701 Z" />
        </g>
        <g id="Regular-M" transform="translate(0,200)">
            <path d="M461.464,79.177 L450.475,79.177 C442.574,79.177 440.697,79.33 438.059,80.674 C435.474,81.991 433.373,84.092 432.056,86.676 C430.712,89.315 430.559,91.192 430.559,99.093 L430.559,116.949 C430.559,121.324 430.607,122.368 431.026,123.937 C432.299,128.681 436.003,132.38 440.742,133.648 C442.305,134.071 443.349,134.119 447.728,134.119 L447.728,130.685 L444.295,130.685 L444.295,138.703 C444.295,142.222 444.34,142.714 445.429,144.07 C446.399,145.285 447.877,145.998 449.44,146 C451.183,146 451.584,145.735 454.338,143.53 L462.527,136.979 C464.4,135.479 464.866,135.136 465.39,134.867 C465.935,134.591 466.527,134.383 467.137,134.257 C467.704,134.141 468.269,134.119 470.68,134.119 L475.886,134.119 C483.787,134.119 485.665,133.965 488.302,132.622 C490.887,131.305 492.989,129.204 494.305,126.619 C495.649,123.981 495.803,122.103 495.803,114.202 L495.803,113.516 C495.803,111.619 494.265,110.082 492.369,110.082 C490.472,110.082 488.935,111.619 488.935,113.516 L488.935,114.202 C488.935,120.724 488.807,122.282 488.186,123.502 C487.528,124.793 486.477,125.844 485.185,126.502 C483.965,127.124 482.407,127.251 475.886,127.251 L470.68,127.251 C467.732,127.251 466.973,127.281 465.753,127.53 C464.537,127.782 463.371,128.191 462.272,128.748 C461.149,129.324 460.525,129.784 458.236,131.617 L450.047,138.168 C449.156,138.881 448.857,139.112 448.615,139.273 C448.678,139.231 448.918,139.132 449.445,139.132 C449.971,139.133 450.464,139.371 450.789,139.778 C451.115,140.183 451.188,140.433 451.195,140.509 C451.169,140.219 451.162,139.834 451.162,138.703 L451.162,130.685 C451.162,128.788 449.625,127.251 447.728,127.251 C444.124,127.251 443.245,127.211 442.526,127.016 C440.147,126.38 438.296,124.53 437.66,122.161 C437.467,121.439 437.427,120.559 437.427,116.949 L437.427,99.093 C437.427,92.572 437.554,91.014 438.176,89.794 C438.834,88.502 439.884,87.452 441.177,86.793 C442.396,86.172 443.954,86.045 450.475,86.045 L461.464,86.045 C463.36,86.045 464.898,84.507 464.898,82.611 C464.898,80.714 463.36,79.177 461.464,79.177 Z M490.424,84.69 C492.24,86.407 492.98,88.975 492.355,91.395 C491.731,93.815 489.841,95.705 487.421,96.329 C485.001,96.954 482.433,96.214 480.716,94.399 C478.212,91.711 478.286,87.495 480.902,84.879 C483.517,82.264 487.734,82.19 490.44,84.711 C491.796,85.974 493.91,85.934 495.216,84.62 L495.22,84.616 L492.784,82.195 L490.424,84.69 Z M495.144,79.701 C493.79,78.42 491.662,78.453 490.349,79.774 L490.345,79.778 L492.781,82.199 L495.122,79.686 C489.71,74.644 481.276,74.792 476.045,80.023 C470.815,85.254 470.666,93.687 475.709,99.099 C479.161,102.749 484.297,104.228 489.137,102.979 C493.977,101.73 497.756,97.951 499.005,93.111 C500.254,88.271 498.775,83.135 495.144,79.701 Z" />
        </g>
        <g id="Black-M" transform="translate(0,200)">
            <path d="M661.464,79.177 L650.475,79.177 C642.574,79.177 640.697,79.33 638.059,80.674 C635.474,81.991 633.373,84.092 632.056,86.676 C630.712,89.315 630.559,91.192 630.559,99.093 L630.559,116.949 C630.559,121.324 630.607,122.368 631.026,123.937 C632.299,128.681 636.003,132.38 640.742,133.648 C642.305,134.071 643.349,134.119 647.728,134.119 L647.728,130.685 L644.294,130.685 L644.294,138.703 C644.294,142.222 644.339,142.714 645.429,144.07 C646.399,145.285 647.877,145.998 649.44,146 C651.183,146 651.584,145.735 654.338,143.53 L662.527,136.979 C664.4,135.479 664.866,135.136 665.39,134.867 C665.935,134.591 666.527,134.383 667.137,134.257 C667.704,134.141 668.269,134.119 670.68,134.119 L675.886,134.119 C683.787,134.119 685.665,133.965 688.302,132.622 C690.887,131.305 692.989,129.204 694.305,126.619 C695.649,123.981 695.803,122.103 695.803,114.202 L695.803,113.516 C695.803,111.619 694.265,110.082 692.369,110.082 C690.472,110.082 688.935,111.619 688.935,113.516 L688.935,114.202 C688.935,120.724 688.807,122.282 688.186,123.502 C687.528,124.793 686.477,125.844 685.185,126.502 C683.965,127.124 682.407,127.251 675.886,127.251 L670.68,127.251 C667.732,127.251 666.973,127.281 665.753,127.53 C664.537,127.782 663.371,128.191 662.272,128.748 C661.149,129.324 660.525,129.784 658.236,131.617 L650.047,138.168 C649.156,138.881 648.857,139.112 648.615,139.273 C648.678,139.231 648.918,139.132 649.445,139.132 C649.971,139.133 650.464,139.371 650.789,139.778 C651.115,140.183 651.188,140.433 651.195,140.509 C651.169,140.219 651.162,139.834 651.162,138.703 L651.162,130.685 C651.162,128.788 649.625,127.251 647.728,127.251 C644.124,127.251 643.245,127.211 642.526,127.016 C640.147,126.38 638.296,124.53 637.66,122.161 C637.467,121.439 637.427,120.559 637.427,116.949 L637.427,99.093 C637.427,92.572 637.554,91.014 638.176,89.794 C638.834,88.502 639.884,87.452 641.177,86.793 C642.396,86.172 643.954,86.045 650.475,86.045 L661.464,86.045 C663.36,86.045 664.898,84.507 664.898,82.611 C664.898,80.714 663.36,79.177 661.464,79.177 Z M690.424,84.69 C692.24,86.407 692.98,88.975 692.355,91.395 C691.731,93.815 689.841,95.705 687.421,96.329 C685.001,96.954 682.433,96.214 680.716,94.399 C678.212,91.711 678.286,87.495 680.902,84.879 C683.517,82.264 687.734,82.19 690.44,84.711 C691.796,85.974 693.91,85.934 695.216,84.62 L695.219,84.616 L692.784,82.195 L690.424,84.69 Z M695.144,79.701 C693.79,78.42 691.662,78.453 690.349,79.774 L690.345,79.778 L692.781,82.199 L695.122,79.686 C689.71,74.644 681.276,74.792 676.045,80.023 C670.815,85.254 670.666,93.687 675.709,99.099 C679.161,102.749 684.297,104.228 689.137,102.979 C693.977,101.73 697.756,97.951 699.005,93.111 C700.254,88.271 698.775,83.135 695.144,79.701 Z" />
        </g>
    </g>
</svg>