<?xml version="1.0" encoding="UTF-8"?>
<svg height="600" width="800" xmlns="http://www.w3.org/2000/svg" xmlns:xlink="http://www.w3.org/1999/xlink">
    <g id="Notes" font-family="LucidaGrande, 'Lucida Grande', sans-serif" font-size="13">
        <rect fill="white" height="600.0" width="800.0" x="0.0" y="0.0" />
        <g font-size="13">
            <text x="18.0" y="176.0">Small</text>
            <text x="18.0" y="376.0">Medium</text>
            <text x="18.0" y="576.0">Large</text>
        </g>
        <g font-size="9">
            <text x="250.0" y="30.0">Ultralight</text>
            <text x="450.0" y="30.0">Regular</text>
            <text x="650.0" y="30.0">Black</text>
            <text id="template-version" fill="#505050" text-anchor="end" x="785.0" y="575.0">Template v.3.0</text>
            <a href="https://github.com/swhitty/SwiftDraw">
                <text fill="#505050" text-anchor="end" x="785.0" y="590.0">https://github.com/swhitty/SwiftDraw</text>
            </a>
        </g>
    </g>
    <g id="Guides" stroke="rgb(39, 170, 225)" stroke-width="0.5">
        <path id="Capline-S" d="M18,76 l800,0" />
        <path id="H-reference" d="M85,145.755 L87.685,145.755 L113.369,79.287 L114.052,79.287 L114.052,76 L112.148,76 L85,145.755 Z M95.693,121.536 L130.996,121.536 L130.263,119.313 L96.474,119.313 L95.693,121.536 Z M139.15,145.755 L141.787,145.755 L114.638,76 L113.466,76 L113.466,79.287 L139.15,145.755 Z" stroke="none" transform="translate(0,200)" />
        <path id="Baseline-S" d="M18,146 l800,0" />
        <path id="left-margin-Ultralight-M" d="M230,256 l0,110" />
        <path id="right-margin-Ultralight-M" d="M300,256 l0,110" />
        <path id="left-margin-Regular-M" d="M430,256 l0,110" />
        <path id="right-margin-Regular-M" d="M500,256 l0,110" />
        <path id="left-margin-Black-M" d="M630,256 l0,110" />
        <path id="right-margin-Black-M" d="M700,256 l0,110" />
        <path id="Capline-M" d="M18,276 l800,0" />
        <path id="Baseline-M" d="M18,346 l800,0" />
        <path id="Capline-L" d="M18,476 l800,0" />
        <path id="Baseline-L" d="M18,546 l800,0" />
    </g>
    <g id="Symbols">
        <g id="Ultralight-M" transform="translate(0,200)">
            <path d="M261.406,79.177 L250.24,79.177 C242.21,79.177 240.302,79.33 237.622,80.674 C234.995,81.991 232.86,84.092 231.521,86.676 C230.156,89.315 230,91.192 230,99.093 L230,116.949 C230,121.324 230.048,122.368 230.474,123.937 C231.769,128.681 235.532,132.38 240.349,133.648 C241.936,134.071 242.998,134.119 247.448,134.119 L247.448,130.685 L243.958,130.685 L243.958,138.703 C243.958,142.222 244.004,142.714 245.111,144.07 C246.097,145.285 247.599,145.998 249.188,146 C250.959,146 251.366,145.735 254.165,143.53 L262.487,136.979 C264.391,135.479 264.863,135.136 265.396,134.867 C265.95,134.591 266.552,134.383 267.172,134.257 C267.748,134.141 268.322,134.119 270.773,134.119 L276.063,134.119 C284.092,134.119 286,133.965 288.681,132.622 C291.308,131.305 293.443,129.204 294.781,126.619 C296.147,123.981 296.303,122.103 296.303,114.202 L296.303,113.516 C296.303,111.619 294.74,110.082 292.813,110.082 C290.886,110.082 289.323,111.619 289.323,113.516 L289.323,114.202 C289.323,120.724 289.194,122.282 288.562,123.502 C287.893,124.793 286.826,125.844 285.513,126.502 C284.273,127.124 282.69,127.251 276.063,127.251 L270.773,127.251 C267.776,127.251 267.005,127.281 265.765,127.53 C264.53,127.782 263.345,128.191 262.228,128.748 C261.087,129.324 260.452,129.784 258.126,131.617 L249.805,138.168 C248.899,138.881 248.595,139.112 248.349,139.273 C248.413,139.231 248.657,139.132 249.193,139.132 C249.728,139.133 250.228,139.37 250.559,139.778 C250.889,140.183 250.964,140.433 250.971,140.509 C250.944,140.219 250.938,139.834 250.938,138.703 L250.938,130.685 C250.938,128.788 249.375,127.251 247.448,127.251 C243.785,127.251 242.892,127.211 242.161,127.016 C239.744,126.38 237.862,124.53 237.216,122.161 C237.02,121.439 236.979,120.559 236.979,116.949 L236.979,99.093 C236.979,92.572 237.109,91.014 237.74,89.794 C238.409,88.502 239.477,87.452 240.79,86.793 C242.029,86.172 243.613,86.045 250.24,86.045 L261.406,86.045 C263.334,86.045 264.896,84.507 264.896,82.611 C264.896,80.714 263.334,79.177 261.406,79.177 Z M290.837,84.69 C292.682,86.407 293.434,88.975 292.799,91.395 C292.165,93.815 290.244,95.705 287.785,96.329 C285.326,96.954 282.716,96.214 280.971,94.399 C278.426,91.711 278.502,87.495 281.16,84.879 C283.818,82.264 288.103,82.19 290.853,84.711 C292.231,85.974 294.379,85.934 295.707,84.62 L295.71,84.616 L293.235,82.195 L290.837,84.69 Z M295.633,79.701 C294.258,78.42 292.095,78.453 290.76,79.774 L290.757,79.778 L293.232,82.199 L295.611,79.686 C290.111,74.644 281.54,74.792 276.225,80.023 C270.909,85.254 270.758,93.687 275.883,99.099 C279.391,102.749 284.611,104.228 289.529,102.979 C294.447,101.73 298.288,97.951 299.557,93.111 C300.826,88.271 299.323,83.135 295.633,79.701 Z" />
        </g>
        <g id="Regular-M" transform="translate(0,200)">
            <path d="M461.406,79.177 L450.24,79.177 C442.21,79.177 440.302,79.33 437.622,80.674 C434.995,81.991 432.86,84.092 431.521,86.676 C430.156,89.315 430,91.192 430,99.093 L430,116.949 C430,121.324 430.048,122.368 430.474,123.937 C431.769,128.681 435.532,132.38 440.349,133.648 C441.936,134.071 442.998,134.119 447.448,134.119 L447.448,130.685 L443.958,130.685 L443.958,138.703 C443.958,142.222 444.004,142.714 445.111,144.07 C446.097,145.285 447.599,145.998 449.188,146 C450.959,146 451.366,145.735 454.165,143.53 L462.487,136.979 C464.391,135.479 464.863,135.136 465.396,134.867 C465.95,134.591 466.552,134.383 467.172,134.257 C467.748,134.141 468.322,134.119 470.773,134.119 L476.063,134.119 C484.092,134.119 486,133.965 488.681,132.622 C491.308,131.305 493.443,129.204 494.781,126.619 C496.147,123.981 496.303,122.103 496.303,114.202 L496.303,113.516 C496.303,111.619 494.74,110.082 492.813,110.082 C490.886,110.082 489.323,111.619 489.323,113.516 L489.323,114.202 C489.323,120.724 489.194,122.282 488.562,123.502 C487.893,124.793 486.826,125.844 485.513,126.502 C484.273,127.124 482.69,127.251 476.063,127.251 L470.773,127.251 C467.776,127.251 467.005,127.281 465.765,127.53 C464.53,127.782 463.345,128.191 462.228,128.748 C461.087,129.324 460.452,129.784 458.126,131.617 L449.805,138.168 C448.899,138.881 448.595,139.112 448.349,139.273 C448.413,139.231 448.657,139.132 449.193,139.132 C449.728,139.133 450.228,139.37 450.559,139.778 C450.889,140.183 450.964,140.433 450.971,140.509 C450.944,140.219 450.938,139.834 450.938,138.703 L450.938,130.685 C450.938,128.788 449.375,127.251 447.448,127.251 C443.785,127.251 442.892,127.211 442.161,127.016 C439.744,126.38 437.862,124.53 437.216,122.161 C437.02,121.439 436.979,120.559 436.979,116.949 L436.979,99.093 C436.979,92.572 437.109,91.014 437.74,89.794 C438.409,88.502 439.477,87.452 440.79,86.793 C442.029,86.172 443.613,86.045 450.24,86.045 L461.406,86.045 C463.334,86.045 464.896,84.507 464.896,82.611 C464.896,80.714 463.334,79.177 461.406,79.177 Z M490.837,84.69 C492.682,86.407 493.434,88.975 492.799,91.395 C492.165,93.815 490.244,95.705 487.785,96.329 C485.326,96.954 482.716,96.214 480.971,94.399 C478.426,91.711 478.502,87.495 481.16,84.879 C483.818,82.264 488.103,82.19 490.853,84.711 C492.231,85.974 494.379,85.934 495.707,84.62 L495.71,84.616 L493.235,82.195 L490.837,84.69 Z M495.633,79.701 C494.258,78.42 492.095,78.453 490.76,79.774 L490.757,79.778 L493.232,82.199 L495.611,79.686 C490.111,74.644 481.54,74.792 476.225,80.023 C470.909,85.254 470.758,93.687 475.883,99.099 C479.391,102.749 484.611,104.228 489.529,102.979 C494.447,101.73 498.288,97.951 499.557,93.111 C500.826,88.271 499.323,83.135 495.633,79.701 Z" />
        </g>
        <g id="Black-M" transform="translate(0,200)">
            <path d="M661.406,79.177 L650.24,79.177 C642.21,79.177 640.302,79.33 637.622,80.674 C634.995,81.991 632.86,84.092 631.521,86.676 C630.156,89.315 630,91.192 630,99.093 L630,116.949 C630,121.324 630.048,122.368 630.474,123.937 C631.768,128.681 635.532,132.38 640.349,133.648 C641.936,134.071 642.998,134.119 647.448,134.119 L647.448,130.685 L643.958,130.685 L643.958,138.703 C643.958,142.222 644.004,142.714 645.111,144.07 C646.097,145.285 647.599,145.998 649.188,146 C650.959,146 651.366,145.735 654.165,143.53 L662.487,136.979 C664.391,135.479 664.863,135.136 665.396,134.867 C665.95,134.591 666.552,134.383 667.172,134.257 C667.748,134.141 668.322,134.119 670.773,134.119 L676.063,134.119 C684.092,134.119 686,133.965 688.681,132.622 C691.308,131.305 693.443,129.204 694.781,126.619 C696.147,123.981 696.303,122.103 696.303,114.202 L696.303,113.516 C696.303,111.619 694.74,110.082 692.813,110.082 C690.886,110.082 689.323,111.619 689.323,113.516 L689.323,114.202 C689.323,120.724 689.194,122.282 688.562,123.502 C687.893,124.793 686.826,125.844 685.513,126.502 C684.273,127.124 682.69,127.251 676.063,127.251 L670.773,127.251 C667.776,127.251 667.005,127.281 665.765,127.53 C664.53,127.782 663.345,128.191 662.228,128.748 C661.086,129.324 660.452,129.784 658.126,131.617 L649.805,138.168 C648.899,138.881 648.595,139.112 648.349,139.273 C648.413,139.231 648.657,139.132 649.193,139.132 C649.728,139.133 650.228,139.37 650.559,139.778 C650.889,140.183 650.964,140.433 650.971,140.509 C650.944,140.219 650.938,139.834 650.938,138.703 L650.938,130.685 C650.938,128.788 649.375,127.251 647.448,127.251 C643.785,127.251 642.891,127.211 642.161,127.016 C639.744,126.38 637.862,124.53 637.216,122.161 C637.02,121.439 636.979,120.559 636.979,116.949 L636.979,99.093 C636.979,92.572 637.109,91.014 637.74,89.794 C638.409,88.502 639.477,87.452 640.79,86.793 C642.029,86.172 643.613,86.045 650.24,86.045 L661.406,86.045 C663.334,86.045 664.896,84.507 664.896,82.611 C664.896,80.714 663.334,79.177 661.406,79.177 Z M690.837,84.69 C692.682,86.407 693.434,88.975 692.799,91.395 C692.165,93.815 690.244,95.705 687.785,96.329 C685.326,96.954 682.716,96.214 680.971,94.399 C678.426,91.711 678.502,87.495 681.16,84.879 C683.818,82.264 688.103,82.19 690.853,84.711 C692.231,85.974 694.379,85.934 695.707,84.62 L695.71,84.616 L693.235,82.195 L690.837,84.69 Z M695.633,79.701 C694.258,78.42 692.095,78.453 690.76,79.774 L690.757,79.778 L693.232,82.199 L695.611,79.686 C690.111,74.644 681.54,74.792 676.225,80.023 C670.909,85.254 670.758,93.687 675.883,99.099 C679.391,102.749 684.611,104.228 689.529,102.979 C694.447,101.73 698.288,97.951 699.557,93.111 C700.826,88.271 699.323,83.135 695.633,79.701 Z" />
        </g>
    </g>
</svg>