<?xml version="1.0" encoding="UTF-8"?>
<svg height="600" width="800" xmlns="http://www.w3.org/2000/svg" xmlns:xlink="http://www.w3.org/1999/xlink">
    <g id="Notes" font-family="LucidaGrande, 'Lucida Grande', sans-serif" font-size="13">
        <rect fill="white" height="600.0" width="800.0" x="0.0" y="0.0" />
        <g font-size="13">
            <text x="18.0" y="176.0">Small</text>
            <text x="18.0" y="376.0">Medium</text>
            <text x="18.0" y="576.0">Large</text>
        </g>
        <g font-size="9">
            <text x="250.0" y="30.0">Ultralight</text>
            <text x="450.0" y="30.0">Regular</text>
            <text x="650.0" y="30.0">Black</text>
            <text id="template-version" fill="#505050" text-anchor="end" x="785.0" y="575.0">Template v.3.0</text>
            <a href="https://github.com/swhitty/SwiftDraw">
                <text fill="#505050" text-anchor="end" x="785.0" y="590.0">https://github.com/swhitty/SwiftDraw</text>
            </a>
        </g>
    </g>
    <g id="Guides" stroke="rgb(39, 170, 225)" stroke-width="0.5">
        <path id="Capline-S" d="M18,76 l800,0" />
        <path id="H-reference" d="M85,145.755 L87.685,145.755 L113.369,79.287 L114.052,79.287 L114.052,76 L112.148,76 L85,145.755 Z M95.693,121.536 L130.996,121.536 L130.263,119.313 L96.474,119.313 L95.693,121.536 Z M139.15,145.755 L141.787,145.755 L114.638,76 L113.466,76 L113.466,79.287 L139.15,145.755 Z" stroke="none" transform="translate(0,200)" />
        <path id="Baseline-S" d="M18,146 l800,0" />
        <path id="left-margin-Ultralight-M" d="M236.364,256 l0,110" />
        <path id="right-margin-Ultralight-M" d="M293.636,256 l0,110" />
        <path id="left-margin-Regular-M" d="M436.364,256 l0,110" />
        <path id="right-margin-Regular-M" d="M493.636,256 l0,110" />
        <path id="left-margin-Black-M" d="M636.364,256 l0,110" />
        <path id="right-margin-Black-M" d="M693.636,256 l0,110" />
        <path id="Capline-M" d="M18,276 l800,0" />
        <path id="Baseline-M" d="M18,346 l800,0" />
        <path id="Capline-L" d="M18,476 l800,0" />
        <path id="Baseline-L" d="M18,546 l800,0" />
    </g>
    <g id="Symbols">
        <g id="Ultralight-M" transform="translate(0,200)">
            <path d="M238.774,110.905 L264.228,117.269 C264.735,117.395 265.265,117.395 265.772,117.269 L291.226,110.905 C292.931,110.479 293.968,108.751 293.541,107.046 C293.115,105.342 291.388,104.305 289.683,104.731 L264.228,111.095 L265.772,111.095 L240.317,104.731 C238.612,104.305 236.885,105.342 236.459,107.046 C236.032,108.751 237.069,110.479 238.774,110.905 Z M241.924,109.932 L267.378,81.296 C268.546,79.982 268.427,77.971 267.114,76.804 C265.8,75.636 263.789,75.755 262.622,77.068 L237.167,105.704 C236,107.018 236.118,109.029 237.432,110.196 C238.745,111.364 240.756,111.245 241.924,109.932 Z M240.317,110.905 L265.772,104.541 C267.477,104.115 268.513,102.388 268.087,100.683 C267.661,98.978 265.933,97.942 264.228,98.368 L238.774,104.731 C237.069,105.158 236.032,106.885 236.459,108.59 C236.885,110.295 238.612,111.331 240.317,110.905 Z M292.833,105.704 L267.378,77.068 C266.211,75.755 264.2,75.636 262.886,76.804 C261.573,77.971 261.454,79.982 262.622,81.296 L288.076,109.932 C289.244,111.245 291.255,111.364 292.568,110.196 C293.882,109.029 294,107.018 292.833,105.704 Z M291.226,104.731 L265.772,98.368 C264.067,97.942 262.339,98.978 261.913,100.683 C261.487,102.388 262.523,104.115 264.228,104.541 L289.683,110.905 C291.388,111.331 293.115,110.295 293.541,108.59 C293.968,106.885 292.931,105.158 291.226,104.731 Z M261.818,79.182 L261.818,101.455 C261.818,103.212 263.243,104.636 265,104.636 C266.757,104.636 268.182,103.212 268.182,101.455 L268.182,79.182 C268.182,77.425 266.757,76 265,76 C263.243,76 261.818,77.425 261.818,79.182 Z M241.987,122.711 L262.668,144.983 C263.927,146.339 266.073,146.339 267.332,144.983 L288.013,122.711 C290.147,120.413 288.022,116.74 284.966,117.445 L264.285,122.218 L265.715,122.218 L245.034,117.445 C241.978,116.74 239.853,120.413 241.987,122.711 Z M246.65,118.38 L243.603,123.646 L264.285,128.419 C264.755,128.527 265.245,128.527 265.715,128.419 L286.397,123.646 L283.35,118.38 L262.668,140.653 L267.332,140.653 L246.65,118.38 Z" />
        </g>
        <g id="Regular-M" transform="translate(0,200)">
            <path d="M438.774,110.905 L464.228,117.269 C464.735,117.395 465.265,117.395 465.772,117.269 L491.226,110.905 C492.931,110.479 493.968,108.751 493.541,107.046 C493.115,105.342 491.388,104.305 489.683,104.731 L464.228,111.095 L465.772,111.095 L440.317,104.731 C438.612,104.305 436.885,105.342 436.459,107.046 C436.032,108.751 437.069,110.479 438.774,110.905 Z M441.924,109.932 L467.378,81.296 C468.546,79.982 468.427,77.971 467.114,76.804 C465.801,75.636 463.789,75.755 462.622,77.068 L437.167,105.704 C436,107.018 436.118,109.029 437.432,110.196 C438.745,111.364 440.756,111.245 441.924,109.932 Z M440.317,110.905 L465.772,104.541 C467.477,104.115 468.513,102.388 468.087,100.683 C467.661,98.978 465.933,97.942 464.228,98.368 L438.774,104.731 C437.069,105.158 436.032,106.885 436.459,108.59 C436.885,110.295 438.612,111.331 440.317,110.905 Z M492.833,105.704 L467.378,77.068 C466.211,75.755 464.2,75.636 462.886,76.804 C461.573,77.971 461.454,79.982 462.622,81.296 L488.076,109.932 C489.244,111.245 491.255,111.364 492.568,110.196 C493.882,109.029 494,107.018 492.833,105.704 Z M491.226,104.731 L465.772,98.368 C464.067,97.942 462.339,98.978 461.913,100.683 C461.487,102.388 462.523,104.115 464.228,104.541 L489.683,110.905 C491.388,111.331 493.115,110.295 493.541,108.59 C493.968,106.885 492.931,105.158 491.226,104.731 Z M461.818,79.182 L461.818,101.455 C461.818,103.212 463.243,104.636 465,104.636 C466.757,104.636 468.182,103.212 468.182,101.455 L468.182,79.182 C468.182,77.425 466.757,76 465,76 C463.243,76 461.818,77.425 461.818,79.182 Z M441.987,122.711 L462.668,144.983 C463.927,146.339 466.073,146.339 467.332,144.983 L488.013,122.711 C490.147,120.413 488.022,116.74 484.966,117.445 L464.285,122.218 L465.715,122.218 L445.034,117.445 C441.978,116.74 439.853,120.413 441.987,122.711 Z M446.65,118.38 L443.603,123.646 L464.285,128.419 C464.755,128.527 465.245,128.527 465.715,128.419 L486.397,123.646 L483.35,118.38 L462.668,140.653 L467.332,140.653 L446.65,118.38 Z" />
        </g>
        <g id="Black-M" transform="translate(0,200)">
            <path d="M638.774,110.905 L664.228,117.269 C664.735,117.395 665.265,117.395 665.772,117.269 L691.226,110.905 C692.931,110.479 693.968,108.751 693.541,107.046 C693.115,105.342 691.388,104.305 689.683,104.731 L664.228,111.095 L665.772,111.095 L640.317,104.731 C638.612,104.305 636.885,105.342 636.459,107.046 C636.032,108.751 637.069,110.479 638.774,110.905 Z M641.924,109.932 L667.378,81.296 C668.546,79.982 668.427,77.971 667.114,76.804 C665.8,75.636 663.789,75.755 662.622,77.068 L637.167,105.704 C636,107.018 636.118,109.029 637.432,110.196 C638.745,111.364 640.756,111.245 641.924,109.932 Z M640.317,110.905 L665.772,104.541 C667.477,104.115 668.513,102.388 668.087,100.683 C667.661,98.978 665.933,97.942 664.228,98.368 L638.774,104.731 C637.069,105.158 636.032,106.885 636.459,108.59 C636.885,110.295 638.612,111.331 640.317,110.905 Z M692.833,105.704 L667.378,77.068 C666.211,75.755 664.2,75.636 662.886,76.804 C661.573,77.971 661.454,79.982 662.622,81.296 L688.076,109.932 C689.244,111.245 691.255,111.364 692.568,110.196 C693.882,109.029 694,107.018 692.833,105.704 Z M691.226,104.731 L665.772,98.368 C664.067,97.942 662.339,98.978 661.913,100.683 C661.487,102.388 662.523,104.115 664.228,104.541 L689.683,110.905 C691.388,111.331 693.115,110.295 693.541,108.59 C693.968,106.885 692.931,105.158 691.226,104.731 Z M661.818,79.182 L661.818,101.455 C661.818,103.212 663.243,104.636 665,104.636 C666.757,104.636 668.182,103.212 668.182,101.455 L668.182,79.182 C668.182,77.425 666.757,76 665,76 C663.243,76 661.818,77.425 661.818,79.182 Z M641.987,122.711 L662.668,144.983 C663.927,146.339 666.073,146.339 667.332,144.983 L688.013,122.711 C690.147,120.413 688.022,116.74 684.966,117.445 L664.285,122.218 L665.715,122.218 L645.034,117.445 C641.978,116.74 639.853,120.413 641.987,122.711 Z M646.65,118.38 L643.603,123.646 L664.285,128.419 C664.755,128.527 665.245,128.527 665.715,128.419 L686.397,123.646 L683.35,118.38 L662.668,140.653 L667.332,140.653 L646.65,118.38 Z" />
        </g>
    </g>
</svg>