<?xml version="1.0" encoding="UTF-8"?>
<svg height="600" width="800" xmlns="http://www.w3.org/2000/svg" xmlns:xlink="http://www.w3.org/1999/xlink">
    <g id="Notes" font-family="LucidaGrande, 'Lucida Grande', sans-serif" font-size="13">
        <rect fill="white" height="600.0" width="800.0" x="0.0" y="0.0" />
        <g font-size="13">
            <text x="18.0" y="176.0">Small</text>
            <text x="18.0" y="376.0">Medium</text>
            <text x="18.0" y="576.0">Large</text>
        </g>
        <g font-size="9">
            <text x="250.0" y="30.0">Ultralight</text>
            <text x="450.0" y="30.0">Regular</text>
            <text x="650.0" y="30.0">Black</text>
            <text id="template-version" fill="#505050" text-anchor="end" x="785.0" y="575.0">Template v.3.0</text>
            <a href="https://github.com/swhitty/SwiftDraw">
                <text fill="#505050" text-anchor="end" x="785.0" y="590.0">https://github.com/swhitty/SwiftDraw</text>
            </a>
        </g>
    </g>
    <g id="Guides" stroke="rgb(39, 170, 225)" stroke-width="0.5">
        <path id="Capline-S" d="M18,76 l800,0" />
        <path id="H-reference" d="M85,145.755 L87.685,145.755 L113.369,79.287 L114.052,79.287 L114.052,76 L112.148,76 L85,145.755 Z M95.693,121.536 L130.996,121.536 L130.263,119.313 L96.474,119.313 L95.693,121.536 Z M139.15,145.755 L141.787,145.755 L114.638,76 L113.466,76 L113.466,79.287 L139.15,145.755 Z" stroke="none" transform="translate(0,200)" />
        <path id="Baseline-S" d="M18,146 l800,0" />
        <path id="left-margin-Ultralight-M" d="M230,256 l0,110" />
        <path id="right-margin-Ultralight-M" d="M300,256 l0,110" />
        <path id="left-margin-Regular-M" d="M430,256 l0,110" />
        <path id="right-margin-Regular-M" d="M500,256 l0,110" />
        <path id="left-margin-Black-M" d="M630,256 l0,110" />
        <path id="right-margin-Black-M" d="M700,256 l0,110" />
        <path id="Capline-M" d="M18,276 l800,0" />
        <path id="Baseline-M" d="M18,346 l800,0" />
        <path id="Capline-L" d="M18,476 l800,0" />
        <path id="Baseline-L" d="M18,546 l800,0" />
    </g>
    <g id="Symbols">
        <g id="Ultralight-M" transform="translate(0,200)">
            <path d="M250.583,77.709 L231.139,106.875 C229.62,109.153 229.62,112.847 231.139,115.125 L250.583,144.291 C252.102,146.57 254.564,146.57 256.083,144.291 C257.602,142.013 257.602,138.32 256.083,136.042 L236.639,106.875 L236.639,115.125 L256.083,85.958 C257.602,83.68 257.602,79.987 256.083,77.709 C254.564,75.43 252.102,75.43 250.583,77.709 Z M273.917,85.958 L293.361,115.125 L293.361,106.875 L273.917,136.042 C272.398,138.32 272.398,142.013 273.917,144.291 C275.436,146.57 277.898,146.57 279.417,144.291 L298.861,115.125 C300.38,112.847 300.38,109.153 298.861,106.875 L279.417,77.709 C277.898,75.43 275.436,75.43 273.917,77.709 C272.398,79.987 272.398,83.68 273.917,85.958 Z" />
        </g>
        <g id="Regular-M" transform="translate(0,200)">
            <path d="M450.583,77.709 L431.139,106.875 C429.62,109.153 429.62,112.847 431.139,115.125 L450.583,144.291 C452.102,146.57 454.564,146.57 456.083,144.291 C457.602,142.013 457.602,138.32 456.083,136.042 L436.639,106.875 L436.639,115.125 L456.083,85.958 C457.602,83.68 457.602,79.987 456.083,77.709 C454.564,75.43 452.102,75.43 450.583,77.709 Z M473.917,85.958 L493.361,115.125 L493.361,106.875 L473.917,136.042 C472.398,138.32 472.398,142.013 473.917,144.291 C475.436,146.57 477.898,146.57 479.417,144.291 L498.861,115.125 C500.38,112.847 500.38,109.153 498.861,106.875 L479.417,77.709 C477.898,75.43 475.436,75.43 473.917,77.709 C472.398,79.987 472.398,83.68 473.917,85.958 Z" />
        </g>
        <g id="Black-M" transform="translate(0,200)">
            <path d="M650.583,77.709 L631.139,106.875 C629.62,109.153 629.62,112.847 631.139,115.125 L650.583,144.291 C652.102,146.57 654.565,146.57 656.083,144.291 C657.602,142.013 657.602,138.32 656.083,136.042 L636.639,106.875 L636.639,115.125 L656.083,85.958 C657.602,83.68 657.602,79.987 656.083,77.709 C654.565,75.43 652.102,75.43 650.583,77.709 Z M673.917,85.958 L693.361,115.125 L693.361,106.875 L673.917,136.042 C672.398,138.32 672.398,142.013 673.917,144.291 C675.436,146.57 677.898,146.57 679.417,144.291 L698.861,115.125 C700.38,112.847 700.38,109.153 698.861,106.875 L679.417,77.709 C677.898,75.43 675.436,75.43 673.917,77.709 C672.398,79.987 672.398,83.68 673.917,85.958 Z" />
        </g>
    </g>
</svg>