<?xml version="1.0" encoding="UTF-8"?>
<svg height="600" width="800" xmlns="http://www.w3.org/2000/svg" xmlns:xlink="http://www.w3.org/1999/xlink">
    <g id="Notes" font-family="LucidaGrande, 'Lucida Grande', sans-serif" font-size="13">
        <rect fill="white" height="600.0" width="800.0" x="0.0" y="0.0" />
        <g font-size="13">
            <text x="18.0" y="176.0">Small</text>
            <text x="18.0" y="376.0">Medium</text>
            <text x="18.0" y="576.0">Large</text>
        </g>
        <g font-size="9">
            <text x="250.0" y="30.0">Ultralight</text>
            <text x="450.0" y="30.0">Regular</text>
            <text x="650.0" y="30.0">Black</text>
            <text id="template-version" fill="#505050" text-anchor="end" x="785.0" y="575.0">Template v.3.0</text>
            <a href="https://github.com/swhitty/SwiftDraw">
                <text fill="#505050" text-anchor="end" x="785.0" y="590.0">https://github.com/swhitty/SwiftDraw</text>
            </a>
        </g>
    </g>
    <g id="Guides" stroke="rgb(39, 170, 225)" stroke-width="0.5">
        <path id="Capline-S" d="M18,76 l800,0" />
        <path id="H-reference" d="M85,145.755 L87.685,145.755 L113.369,79.287 L114.052,79.287 L114.052,76 L112.148,76 L85,145.755 Z M95.693,121.536 L130.996,121.536 L130.263,119.313 L96.474,119.313 L95.693,121.536 Z M139.15,145.755 L141.787,145.755 L114.638,76 L113.466,76 L113.466,79.287 L139.15,145.755 Z" stroke="none" transform="translate(0,200)" />
        <path id="Baseline-S" d="M18,146 l800,0" />
        <path id="left-margin-Ultralight-M" d="M230,256 l0,110" />
        <path id="right-margin-Ultralight-M" d="M300,256 l0,110" />
        <path id="left-margin-Regular-M" d="M430,256 l0,110" />
        <path id="right-margin-Regular-M" d="M500,256 l0,110" />
        <path id="left-margin-Black-M" d="M630,256 l0,110" />
        <path id="right-margin-Black-M" d="M700,256 l0,110" />
        <path id="Capline-M" d="M18,276 l800,0" />
        <path id="Baseline-M" d="M18,346 l800,0" />
        <path id="Capline-L" d="M18,476 l800,0" />
        <path id="Baseline-L" d="M18,546 l800,0" />
    </g>
    <g id="Symbols">
        <g id="Ultralight-M" transform="translate(0,200)">
            <path d="M253.333,102.25 L253.333,119.75 C253.333,121.361 254.639,122.667 256.25,122.667 C257.861,122.667 259.167,121.361 259.167,119.75 L259.167,102.25 C259.167,100.639 257.861,99.333 256.25,99.333 C254.639,99.333 253.333,100.639 253.333,102.25 Z M256.25,122.667 L273.75,122.667 C275.361,122.667 276.667,121.361 276.667,119.75 C276.667,118.139 275.361,116.833 273.75,116.833 L256.25,116.833 C254.639,116.833 253.333,118.139 253.333,119.75 C253.333,121.361 254.639,122.667 256.25,122.667 Z M258.312,121.812 L275.812,104.312 C276.951,103.173 276.951,101.327 275.812,100.188 C274.673,99.049 272.827,99.049 271.688,100.188 L254.188,117.688 C253.049,118.827 253.049,120.673 254.188,121.812 C255.327,122.951 257.173,122.951 258.312,121.812 Z M291.25,111 C291.25,125.498 279.498,137.25 265,137.25 C250.502,137.25 238.75,125.498 238.75,111 C238.75,96.502 250.502,84.75 265,84.75 C279.498,84.75 291.25,96.502 291.25,111 Z M297.083,111 C297.083,93.28 282.72,78.917 265,78.917 C247.28,78.917 232.917,93.28 232.917,111 C232.917,128.72 247.28,143.083 265,143.083 C282.72,143.083 297.083,128.72 297.083,111 Z" />
        </g>
        <g id="Regular-M" transform="translate(0,200)">
            <path d="M453.333,102.25 L453.333,119.75 C453.333,121.361 454.639,122.667 456.25,122.667 C457.861,122.667 459.167,121.361 459.167,119.75 L459.167,102.25 C459.167,100.639 457.861,99.333 456.25,99.333 C454.639,99.333 453.333,100.639 453.333,102.25 Z M456.25,122.667 L473.75,122.667 C475.361,122.667 476.667,121.361 476.667,119.75 C476.667,118.139 475.361,116.833 473.75,116.833 L456.25,116.833 C454.639,116.833 453.333,118.139 453.333,119.75 C453.333,121.361 454.639,122.667 456.25,122.667 Z M458.312,121.812 L475.812,104.312 C476.951,103.173 476.951,101.327 475.812,100.188 C474.673,99.049 472.827,99.049 471.688,100.188 L454.188,117.688 C453.049,118.827 453.049,120.673 454.188,121.812 C455.327,122.951 457.173,122.951 458.312,121.812 Z M491.25,111 C491.25,125.498 479.498,137.25 465,137.25 C450.502,137.25 438.75,125.498 438.75,111 C438.75,96.502 450.502,84.75 465,84.75 C479.498,84.75 491.25,96.502 491.25,111 Z M497.083,111 C497.083,93.28 482.72,78.917 465,78.917 C447.28,78.917 432.917,93.28 432.917,111 C432.917,128.72 447.28,143.083 465,143.083 C482.72,143.083 497.083,128.72 497.083,111 Z" />
        </g>
        <g id="Black-M" transform="translate(0,200)">
            <path d="M653.333,102.25 L653.333,119.75 C653.333,121.361 654.639,122.667 656.25,122.667 C657.861,122.667 659.167,121.361 659.167,119.75 L659.167,102.25 C659.167,100.639 657.861,99.333 656.25,99.333 C654.639,99.333 653.333,100.639 653.333,102.25 Z M656.25,122.667 L673.75,122.667 C675.361,122.667 676.667,121.361 676.667,119.75 C676.667,118.139 675.361,116.833 673.75,116.833 L656.25,116.833 C654.639,116.833 653.333,118.139 653.333,119.75 C653.333,121.361 654.639,122.667 656.25,122.667 Z M658.312,121.812 L675.812,104.312 C676.951,103.173 676.951,101.327 675.812,100.188 C674.673,99.049 672.827,99.049 671.688,100.188 L654.188,117.688 C653.049,118.827 653.049,120.673 654.188,121.812 C655.327,122.951 657.173,122.951 658.312,121.812 Z M691.25,111 C691.25,125.498 679.498,137.25 665,137.25 C650.502,137.25 638.75,125.498 638.75,111 C638.75,96.502 650.502,84.75 665,84.75 C679.498,84.75 691.25,96.502 691.25,111 Z M697.083,111 C697.083,93.28 682.72,78.917 665,78.917 C647.28,78.917 632.917,93.28 632.917,111 C632.917,128.72 647.28,143.083 665,143.083 C682.72,143.083 697.083,128.72 697.083,111 Z" />
        </g>
    </g>
</svg>