<?xml version="1.0" encoding="UTF-8"?>
<svg height="600" width="800" xmlns="http://www.w3.org/2000/svg" xmlns:xlink="http://www.w3.org/1999/xlink">
    <g id="Notes" font-family="LucidaGrande, 'Lucida Grande', sans-serif" font-size="13">
        <rect fill="white" height="600.0" width="800.0" x="0.0" y="0.0" />
        <g font-size="13">
            <text x="18.0" y="176.0">Small</text>
            <text x="18.0" y="376.0">Medium</text>
            <text x="18.0" y="576.0">Large</text>
        </g>
        <g font-size="9">
            <text x="250.0" y="30.0">Ultralight</text>
            <text x="450.0" y="30.0">Regular</text>
            <text x="650.0" y="30.0">Black</text>
            <text id="template-version" fill="#505050" text-anchor="end" x="785.0" y="575.0">Template v.3.0</text>
            <a href="https://github.com/swhitty/SwiftDraw">
                <text fill="#505050" text-anchor="end" x="785.0" y="590.0">https://github.com/swhitty/SwiftDraw</text>
            </a>
        </g>
    </g>
    <g id="Guides" stroke="rgb(39, 170, 225)" stroke-width="0.5">
        <path id="Capline-S" d="M18,76 l800,0" />
        <path id="H-reference" d="M85,145.755 L87.685,145.755 L113.369,79.287 L114.052,79.287 L114.052,76 L112.148,76 L85,145.755 Z M95.693,121.536 L130.996,121.536 L130.263,119.313 L96.474,119.313 L95.693,121.536 Z M139.15,145.755 L141.787,145.755 L114.638,76 L113.466,76 L113.466,79.287 L139.15,145.755 Z" stroke="none" transform="translate(0,200)" />
        <path id="Baseline-S" d="M18,146 l800,0" />
        <path id="left-margin-Ultralight-M" d="M230,256 l0,110" />
        <path id="right-margin-Ultralight-M" d="M300,256 l0,110" />
        <path id="left-margin-Regular-M" d="M430,256 l0,110" />
        <path id="right-margin-Regular-M" d="M500,256 l0,110" />
        <path id="left-margin-Black-M" d="M630,256 l0,110" />
        <path id="right-margin-Black-M" d="M700,256 l0,110" />
        <path id="Capline-M" d="M18,276 l800,0" />
        <path id="Baseline-M" d="M18,346 l800,0" />
        <path id="Capline-L" d="M18,476 l800,0" />
        <path id="Baseline-L" d="M18,546 l800,0" />
    </g>
    <g id="Symbols">
        <g id="Ultralight-M" transform="translate(0,200)">
            <path d="M265,84.75 C259.362,84.75 254.792,89.32 254.792,94.958 C254.792,100.596 259.362,105.167 265,105.167 C270.638,105.167 275.208,100.596 275.208,94.958 C275.208,89.32 270.638,84.75 265,84.75 Z M265,90.583 C267.416,90.583 269.375,92.542 269.375,94.958 C269.375,97.375 267.416,99.333 265,99.333 C262.584,99.333 260.625,97.375 260.625,94.958 C260.625,92.542 262.584,90.583 265,90.583 Z M267.917,87.667 L267.917,81.833 C267.917,80.223 266.611,78.917 265,78.917 C263.389,78.917 262.083,80.223 262.083,81.833 L262.083,87.667 C262.083,89.277 263.389,90.583 265,90.583 C266.611,90.583 267.917,89.277 267.917,87.667 Z M289.061,117.642 C282.977,124.554 274.211,128.511 265.003,128.5 C255.789,128.51 247.023,124.552 240.94,117.64 C239.876,116.43 238.033,116.312 236.823,117.377 C235.614,118.441 235.496,120.284 236.56,121.493 C243.752,129.666 254.116,134.345 265.003,134.333 C275.883,134.346 286.247,129.668 293.439,121.496 C294.504,120.287 294.386,118.444 293.177,117.38 C291.968,116.315 290.125,116.433 289.061,117.642 Z M258.817,99.8 L236.228,138.702 C235.419,140.095 235.892,141.88 237.285,142.689 C238.678,143.498 240.463,143.024 241.272,141.631 L263.862,102.729 C264.671,101.336 264.197,99.551 262.804,98.742 C261.411,97.933 259.626,98.407 258.817,99.8 Z M266.138,102.729 L288.728,141.631 C289.537,143.024 291.322,143.498 292.715,142.689 C294.108,141.88 294.581,140.095 293.772,138.702 L271.183,99.8 C270.374,98.407 268.589,97.933 267.196,98.742 C265.803,99.551 265.329,101.336 266.138,102.729 Z" />
        </g>
        <g id="Regular-M" transform="translate(0,200)">
            <path d="M465,84.75 C459.362,84.75 454.792,89.32 454.792,94.958 C454.792,100.596 459.362,105.167 465,105.167 C470.638,105.167 475.208,100.596 475.208,94.958 C475.208,89.32 470.638,84.75 465,84.75 Z M465,90.583 C467.416,90.583 469.375,92.542 469.375,94.958 C469.375,97.375 467.416,99.333 465,99.333 C462.584,99.333 460.625,97.375 460.625,94.958 C460.625,92.542 462.584,90.583 465,90.583 Z M467.917,87.667 L467.917,81.833 C467.917,80.223 466.611,78.917 465,78.917 C463.389,78.917 462.083,80.223 462.083,81.833 L462.083,87.667 C462.083,89.277 463.389,90.583 465,90.583 C466.611,90.583 467.917,89.277 467.917,87.667 Z M489.061,117.642 C482.977,124.554 474.211,128.511 465.003,128.5 C455.789,128.51 447.023,124.552 440.94,117.64 C439.876,116.43 438.033,116.312 436.823,117.377 C435.614,118.441 435.496,120.284 436.56,121.493 C443.752,129.666 454.116,134.345 465.003,134.333 C475.883,134.346 486.247,129.668 493.439,121.496 C494.504,120.287 494.386,118.444 493.177,117.38 C491.968,116.315 490.125,116.433 489.061,117.642 Z M458.817,99.8 L436.228,138.702 C435.419,140.095 435.892,141.88 437.285,142.689 C438.678,143.498 440.463,143.024 441.272,141.631 L463.862,102.729 C464.671,101.336 464.197,99.551 462.804,98.742 C461.411,97.933 459.626,98.407 458.817,99.8 Z M466.138,102.729 L488.728,141.631 C489.537,143.024 491.322,143.498 492.715,142.689 C494.108,141.88 494.581,140.095 493.772,138.702 L471.183,99.8 C470.374,98.407 468.589,97.933 467.196,98.742 C465.803,99.551 465.329,101.336 466.138,102.729 Z" />
        </g>
        <g id="Black-M" transform="translate(0,200)">
            <path d="M665,84.75 C659.362,84.75 654.792,89.32 654.792,94.958 C654.792,100.596 659.362,105.167 665,105.167 C670.638,105.167 675.208,100.596 675.208,94.958 C675.208,89.32 670.638,84.75 665,84.75 Z M665,90.583 C667.416,90.583 669.375,92.542 669.375,94.958 C669.375,97.375 667.416,99.333 665,99.333 C662.584,99.333 660.625,97.375 660.625,94.958 C660.625,92.542 662.584,90.583 665,90.583 Z M667.917,87.667 L667.917,81.833 C667.917,80.223 666.611,78.917 665,78.917 C663.389,78.917 662.083,80.223 662.083,81.833 L662.083,87.667 C662.083,89.277 663.389,90.583 665,90.583 C666.611,90.583 667.917,89.277 667.917,87.667 Z M689.061,117.642 C682.977,124.554 674.211,128.511 665.003,128.5 C655.789,128.51 647.023,124.552 640.94,117.64 C639.876,116.43 638.033,116.312 636.823,117.377 C635.614,118.441 635.496,120.284 636.56,121.493 C643.752,129.666 654.116,134.345 665.003,134.333 C675.883,134.346 686.247,129.668 693.439,121.496 C694.504,120.287 694.386,118.444 693.177,117.38 C691.968,116.315 690.125,116.433 689.061,117.642 Z M658.817,99.8 L636.228,138.702 C635.419,140.095 635.892,141.88 637.285,142.689 C638.678,143.498 640.463,143.024 641.272,141.631 L663.862,102.729 C664.671,101.336 664.197,99.551 662.804,98.742 C661.411,97.933 659.626,98.407 658.817,99.8 Z M666.138,102.729 L688.728,141.631 C689.537,143.024 691.322,143.498 692.715,142.689 C694.108,141.88 694.581,140.095 693.772,138.702 L671.183,99.8 C670.374,98.407 668.589,97.933 667.196,98.742 C665.803,99.551 665.329,101.336 666.138,102.729 Z" />
        </g>
    </g>
</svg>