<?xml version="1.0" encoding="UTF-8"?>
<svg height="600" width="800" xmlns="http://www.w3.org/2000/svg" xmlns:xlink="http://www.w3.org/1999/xlink">
    <g id="Notes" font-family="LucidaGrande, 'Lucida Grande', sans-serif" font-size="13">
        <rect fill="white" height="600.0" width="800.0" x="0.0" y="0.0" />
        <g font-size="13">
            <text x="18.0" y="176.0">Small</text>
            <text x="18.0" y="376.0">Medium</text>
            <text x="18.0" y="576.0">Large</text>
        </g>
        <g font-size="9">
            <text x="250.0" y="30.0">Ultralight</text>
            <text x="450.0" y="30.0">Regular</text>
            <text x="650.0" y="30.0">Black</text>
            <text id="template-version" fill="#505050" text-anchor="end" x="785.0" y="575.0">Template v.3.0</text>
            <a href="https://github.com/swhitty/SwiftDraw">
                <text fill="#505050" text-anchor="end" x="785.0" y="590.0">https://github.com/swhitty/SwiftDraw</text>
            </a>
        </g>
    </g>
    <g id="Guides" stroke="rgb(39, 170, 225)" stroke-width="0.5">
        <path id="Capline-S" d="M18,76 l800,0" />
        <path id="H-reference" d="M85,145.755 L87.685,145.755 L113.369,79.287 L114.052,79.287 L114.052,76 L112.148,76 L85,145.755 Z M95.693,121.536 L130.996,121.536 L130.263,119.313 L96.474,119.313 L95.693,121.536 Z M139.15,145.755 L141.787,145.755 L114.638,76 L113.466,76 L113.466,79.287 L139.15,145.755 Z" stroke="none" transform="translate(0,200)" />
        <path id="Baseline-S" d="M18,146 l800,0" />
        <path id="left-margin-Ultralight-M" d="M231.667,256 l0,110" />
        <path id="right-margin-Ultralight-M" d="M298.333,256 l0,110" />
        <path id="left-margin-Regular-M" d="M431.667,256 l0,110" />
        <path id="right-margin-Regular-M" d="M498.333,256 l0,110" />
        <path id="left-margin-Black-M" d="M631.667,256 l0,110" />
        <path id="right-margin-Black-M" d="M698.333,256 l0,110" />
        <path id="Capline-M" d="M18,276 l800,0" />
        <path id="Baseline-M" d="M18,346 l800,0" />
        <path id="Capline-L" d="M18,476 l800,0" />
        <path id="Baseline-L" d="M18,546 l800,0" />
    </g>
    <g id="Symbols">
        <g id="Ultralight-M" transform="translate(0,200)">
            <path d="M271.667,133.273 C271.667,136.787 268.682,139.636 265,139.636 C261.318,139.636 258.333,136.787 258.333,133.273 C258.333,131.515 256.841,130.091 255,130.091 C253.159,130.091 251.667,131.515 251.667,133.273 C251.667,140.302 257.636,146 265,146 C272.364,146 278.333,140.302 278.333,133.273 C278.333,131.515 276.841,130.091 275,130.091 C273.159,130.091 271.667,131.515 271.667,133.273 Z M247.179,95.709 C243.635,99.252 241.667,103.766 241.667,108.454 C241.667,114.465 240.294,119.322 237.89,123.206 C232.87,131.301 233.308,130.545 233.473,132.148 C233.623,133.635 234.223,134.637 235.481,135.525 C236.851,136.477 236.178,136.454 244.53,136.454 L291.267,136.454 C293.108,136.454 294.6,135.03 294.6,133.273 C294.6,131.515 293.108,130.091 291.267,130.091 L244.53,130.091 C241.543,130.091 240.55,130.085 239.62,130.054 C239.123,130.038 238.773,130.015 238.572,129.99 C238.754,130.013 238.949,130.064 239.424,130.394 C239.699,130.588 240.076,131.218 240.108,131.531 C240.17,132.136 240.128,132.27 240.056,132.424 C240.166,132.189 240.368,131.814 240.667,131.297 C241.211,130.357 241.842,129.326 243.628,126.445 C246.644,121.573 248.333,115.597 248.333,108.454 C248.333,105.434 249.62,102.484 252.001,100.103 C253.272,98.832 253.223,96.818 251.892,95.605 C250.56,94.391 248.45,94.438 247.179,95.709 Z M265,88.726 C263.895,88.726 262.786,88.794 261.684,88.926 C260.578,89.059 260.393,89.068 260.435,89.078 C260.438,89.079 260.438,89.079 260.44,89.08 C260.481,89.089 260.389,89.038 260.312,88.971 C260.381,89.032 260.398,89.052 260.434,89.107 C260.457,89.143 260.468,89.163 260.463,89.153 C260.432,89.085 260.432,89.085 260.368,88.938 C259.424,86.751 260.322,84.215 262.48,83.014 C264.637,81.813 267.392,82.316 268.933,84.193 C270.474,86.069 270.328,88.743 268.591,90.456 L270.987,92.669 L271.859,89.598 C269.623,89.019 267.316,88.726 264.999,88.726 Z M265.001,95.09 C266.728,95.09 268.447,95.308 270.114,95.74 C271.286,96.043 272.538,95.714 273.382,94.881 C277.435,90.884 277.775,84.645 274.18,80.267 C270.585,75.888 264.156,74.714 259.122,77.516 C254.087,80.318 251.991,86.237 254.211,91.38 C254.289,91.557 254.289,91.557 254.381,91.758 C254.498,92.008 254.619,92.231 254.77,92.463 C255.026,92.858 255.327,93.207 255.71,93.573 C256.601,94.353 257.523,94.864 258.527,95.174 C258.689,95.22 258.689,95.22 258.711,95.226 C259.856,95.518 260.42,95.492 262.516,95.24 C263.345,95.141 264.176,95.09 265,95.09 Z M265,95.09 C269.515,95.09 273.825,96.567 276.961,99.16 C279.995,101.669 281.667,105.009 281.667,108.454 C281.667,109.52 281.698,110.585 281.758,111.689 C281.853,113.444 283.421,114.793 285.259,114.702 C287.098,114.611 288.511,113.115 288.416,111.36 C288.361,110.362 288.333,109.405 288.333,108.454 C288.333,103.122 285.791,98.043 281.326,94.35 C276.954,90.736 271.09,88.726 265,88.726 C263.159,88.726 261.667,90.151 261.667,91.908 C261.667,93.666 263.159,95.09 265,95.09 Z M297.215,134.076 L237.215,83.166 C235.839,81.999 233.732,82.117 232.509,83.431 C231.286,84.744 231.41,86.755 232.785,87.923 L292.785,138.833 C294.161,140 296.268,139.882 297.491,138.568 C298.714,137.255 298.59,135.244 297.215,134.076 Z" />
        </g>
        <g id="Regular-M" transform="translate(0,200)">
            <path d="M471.667,133.273 C471.667,136.787 468.682,139.636 465,139.636 C461.318,139.636 458.333,136.787 458.333,133.273 C458.333,131.515 456.841,130.091 455,130.091 C453.159,130.091 451.667,131.515 451.667,133.273 C451.667,140.302 457.636,146 465,146 C472.364,146 478.333,140.302 478.333,133.273 C478.333,131.515 476.841,130.091 475,130.091 C473.159,130.091 471.667,131.515 471.667,133.273 Z M447.179,95.709 C443.635,99.252 441.667,103.766 441.667,108.454 C441.667,114.465 440.294,119.322 437.89,123.206 C432.87,131.301 433.308,130.545 433.473,132.148 C433.623,133.635 434.223,134.637 435.48,135.525 C436.851,136.477 436.178,136.454 444.53,136.454 L491.267,136.454 C493.108,136.454 494.6,135.03 494.6,133.273 C494.6,131.515 493.108,130.091 491.267,130.091 L444.53,130.091 C441.543,130.091 440.55,130.085 439.62,130.054 C439.123,130.038 438.773,130.015 438.572,129.99 C438.754,130.013 438.949,130.064 439.424,130.394 C439.699,130.588 440.076,131.218 440.108,131.531 C440.17,132.136 440.128,132.27 440.056,132.424 C440.166,132.189 440.368,131.814 440.667,131.297 C441.211,130.357 441.842,129.326 443.628,126.445 C446.644,121.573 448.333,115.597 448.333,108.454 C448.333,105.434 449.62,102.484 452.001,100.103 C453.272,98.832 453.223,96.818 451.892,95.605 C450.56,94.391 448.45,94.438 447.179,95.709 Z M465,88.726 C463.895,88.726 462.786,88.794 461.684,88.926 C460.578,89.059 460.393,89.068 460.435,89.078 C460.438,89.079 460.438,89.079 460.44,89.08 C460.481,89.089 460.389,89.038 460.312,88.971 C460.381,89.032 460.398,89.052 460.434,89.107 C460.457,89.143 460.468,89.163 460.463,89.153 C460.432,89.085 460.432,89.085 460.368,88.938 C459.424,86.751 460.322,84.215 462.48,83.014 C464.637,81.813 467.392,82.316 468.933,84.193 C470.474,86.069 470.328,88.743 468.591,90.456 L470.987,92.669 L471.859,89.598 C469.623,89.019 467.316,88.726 464.999,88.726 Z M465.001,95.09 C466.728,95.09 468.447,95.308 470.114,95.74 C471.286,96.043 472.538,95.714 473.382,94.881 C477.435,90.884 477.775,84.645 474.18,80.267 C470.585,75.888 464.156,74.714 459.122,77.516 C454.087,80.318 451.991,86.237 454.211,91.38 C454.289,91.557 454.289,91.557 454.381,91.758 C454.498,92.008 454.619,92.231 454.77,92.463 C455.026,92.858 455.327,93.207 455.71,93.573 C456.601,94.353 457.523,94.864 458.526,95.174 C458.689,95.22 458.689,95.22 458.711,95.226 C459.856,95.518 460.42,95.492 462.516,95.24 C463.345,95.141 464.176,95.09 465,95.09 Z M465,95.09 C469.515,95.09 473.825,96.567 476.961,99.16 C479.995,101.669 481.667,105.009 481.667,108.454 C481.667,109.52 481.698,110.585 481.758,111.689 C481.853,113.444 483.421,114.793 485.259,114.702 C487.098,114.611 488.511,113.115 488.416,111.36 C488.361,110.362 488.333,109.405 488.333,108.454 C488.333,103.122 485.791,98.043 481.326,94.35 C476.954,90.736 471.09,88.726 465,88.726 C463.159,88.726 461.667,90.151 461.667,91.908 C461.667,93.666 463.159,95.09 465,95.09 Z M497.215,134.076 L437.215,83.166 C435.839,81.999 433.732,82.117 432.509,83.431 C431.286,84.744 431.41,86.755 432.785,87.923 L492.785,138.833 C494.161,140 496.268,139.882 497.491,138.568 C498.714,137.255 498.59,135.244 497.215,134.076 Z" />
        </g>
        <g id="Black-M" transform="translate(0,200)">
            <path d="M671.667,133.273 C671.667,136.787 668.682,139.636 665,139.636 C661.318,139.636 658.333,136.787 658.333,133.273 C658.333,131.515 656.841,130.091 655,130.091 C653.159,130.091 651.667,131.515 651.667,133.273 C651.667,140.302 657.636,146 665,146 C672.364,146 678.333,140.302 678.333,133.273 C678.333,131.515 676.841,130.091 675,130.091 C673.159,130.091 671.667,131.515 671.667,133.273 Z M647.179,95.709 C643.635,99.252 641.667,103.766 641.667,108.454 C641.667,114.465 640.294,119.322 637.89,123.206 C632.87,131.301 633.308,130.545 633.473,132.148 C633.623,133.635 634.223,134.637 635.481,135.525 C636.851,136.477 636.178,136.454 644.53,136.454 L691.267,136.454 C693.108,136.454 694.6,135.03 694.6,133.273 C694.6,131.515 693.108,130.091 691.267,130.091 L644.53,130.091 C641.543,130.091 640.55,130.085 639.62,130.054 C639.123,130.038 638.773,130.015 638.572,129.99 C638.754,130.013 638.949,130.064 639.424,130.394 C639.699,130.588 640.076,131.218 640.108,131.531 C640.17,132.136 640.128,132.27 640.056,132.424 C640.166,132.189 640.368,131.814 640.667,131.297 C641.211,130.357 641.842,129.326 643.629,126.445 C646.644,121.573 648.333,115.597 648.333,108.454 C648.333,105.434 649.62,102.484 652.001,100.103 C653.272,98.832 653.223,96.818 651.892,95.605 C650.56,94.391 648.45,94.438 647.179,95.709 Z M665,88.726 C663.895,88.726 662.786,88.794 661.684,88.926 C660.578,89.059 660.393,89.068 660.435,89.078 C660.438,89.079 660.438,89.079 660.44,89.08 C660.481,89.089 660.389,89.038 660.312,88.971 C660.381,89.032 660.398,89.052 660.434,89.107 C660.457,89.143 660.468,89.163 660.463,89.153 C660.432,89.085 660.432,89.085 660.368,88.938 C659.424,86.751 660.322,84.215 662.48,83.014 C664.637,81.813 667.392,82.316 668.933,84.193 C670.474,86.069 670.328,88.743 668.591,90.456 L670.987,92.669 L671.859,89.598 C669.623,89.019 667.316,88.726 664.999,88.726 Z M665.001,95.09 C666.728,95.09 668.447,95.308 670.114,95.74 C671.286,96.043 672.538,95.714 673.382,94.881 C677.435,90.884 677.775,84.645 674.18,80.267 C670.585,75.888 664.156,74.714 659.122,77.516 C654.087,80.318 651.991,86.237 654.211,91.38 C654.289,91.557 654.289,91.557 654.381,91.758 C654.498,92.008 654.619,92.231 654.77,92.463 C655.026,92.858 655.327,93.207 655.71,93.573 C656.601,94.353 657.523,94.864 658.527,95.174 C658.689,95.22 658.689,95.22 658.711,95.226 C659.856,95.518 660.42,95.492 662.516,95.24 C663.345,95.141 664.176,95.09 665,95.09 Z M665,95.09 C669.515,95.09 673.825,96.567 676.961,99.16 C679.995,101.669 681.667,105.009 681.667,108.454 C681.667,109.52 681.698,110.585 681.758,111.689 C681.853,113.444 683.421,114.793 685.259,114.702 C687.098,114.611 688.511,113.115 688.416,111.36 C688.361,110.362 688.333,109.405 688.333,108.454 C688.333,103.122 685.791,98.043 681.326,94.35 C676.954,90.736 671.09,88.726 665,88.726 C663.159,88.726 661.667,90.151 661.667,91.908 C661.667,93.666 663.159,95.09 665,95.09 Z M697.215,134.076 L637.215,83.166 C635.839,81.999 633.732,82.117 632.509,83.431 C631.286,84.744 631.41,86.755 632.785,87.923 L692.785,138.833 C694.161,140 696.268,139.882 697.491,138.568 C698.714,137.255 698.591,135.244 697.215,134.076 Z" />
        </g>
    </g>
</svg>