<?xml version="1.0" encoding="UTF-8"?>
<svg height="600" width="800" xmlns="http://www.w3.org/2000/svg" xmlns:xlink="http://www.w3.org/1999/xlink">
    <g id="Notes" font-family="LucidaGrande, 'Lucida Grande', sans-serif" font-size="13">
        <rect fill="white" height="600.0" width="800.0" x="0.0" y="0.0" />
        <g font-size="13">
            <text x="18.0" y="176.0">Small</text>
            <text x="18.0" y="376.0">Medium</text>
            <text x="18.0" y="576.0">Large</text>
        </g>
        <g font-size="9">
            <text x="250.0" y="30.0">Ultralight</text>
            <text x="450.0" y="30.0">Regular</text>
            <text x="650.0" y="30.0">Black</text>
            <text id="template-version" fill="#505050" text-anchor="end" x="785.0" y="575.0">Template v.3.0</text>
            <a href="https://github.com/swhitty/SwiftDraw">
                <text fill="#505050" text-anchor="end" x="785.0" y="590.0">https://github.com/swhitty/SwiftDraw</text>
            </a>
        </g>
    </g>
    <g id="Guides" stroke="rgb(39, 170, 225)" stroke-width="0.5">
        <path id="Capline-S" d="M18,76 l800,0" />
        <path id="H-reference" d="M85,145.755 L87.685,145.755 L113.369,79.287 L114.052,79.287 L114.052,76 L112.148,76 L85,145.755 Z M95.693,121.536 L130.996,121.536 L130.263,119.313 L96.474,119.313 L95.693,121.536 Z M139.15,145.755 L141.787,145.755 L114.638,76 L113.466,76 L113.466,79.287 L139.15,145.755 Z" stroke="none" transform="translate(0,200)" />
        <path id="Baseline-S" d="M18,146 l800,0" />
        <path id="left-margin-Ultralight-M" d="M230,256 l0,110" />
        <path id="right-margin-Ultralight-M" d="M300,256 l0,110" />
        <path id="left-margin-Regular-M" d="M430,256 l0,110" />
        <path id="right-margin-Regular-M" d="M500,256 l0,110" />
        <path id="left-margin-Black-M" d="M630,256 l0,110" />
        <path id="right-margin-Black-M" d="M700,256 l0,110" />
        <path id="Capline-M" d="M18,276 l800,0" />
        <path id="Baseline-M" d="M18,346 l800,0" />
        <path id="Capline-L" d="M18,476 l800,0" />
        <path id="Baseline-L" d="M18,546 l800,0" />
    </g>
    <g id="Symbols">
        <g id="Ultralight-M" transform="translate(0,200)">
            <path d="M274.545,104.636 L274.577,104.636 C276.335,104.636 277.759,103.212 277.759,101.455 C277.759,99.697 276.335,98.273 274.577,98.273 L274.545,98.273 C272.788,98.273 271.364,99.697 271.364,101.455 C271.364,103.212 272.788,104.636 274.545,104.636 Z M255.455,104.636 L255.486,104.636 C257.244,104.636 258.668,103.212 258.668,101.455 C258.668,99.697 257.244,98.273 255.486,98.273 L255.455,98.273 C253.697,98.273 252.273,99.697 252.273,101.455 C252.273,103.212 253.697,104.636 255.455,104.636 Z M293.636,111 C293.636,126.816 280.816,139.636 265,139.636 C249.184,139.636 236.364,126.816 236.364,111 C236.364,95.184 249.184,82.364 265,82.364 C280.816,82.364 293.636,95.184 293.636,111 Z M300,111 C300,91.67 284.33,76 265,76 C245.67,76 230,91.67 230,111 C230,130.33 245.67,146 265,146 C284.33,146 300,130.33 300,111 Z M272.955,101.455 C272.955,100.576 273.667,99.864 274.545,99.864 C275.424,99.864 276.136,100.576 276.136,101.455 C276.136,102.333 275.424,103.045 274.545,103.045 C273.667,103.045 272.955,102.333 272.955,101.455 Z M279.318,101.455 C279.318,98.819 277.181,96.682 274.545,96.682 C271.91,96.682 269.773,98.819 269.773,101.455 C269.773,104.09 271.91,106.227 274.545,106.227 C277.181,106.227 279.318,104.09 279.318,101.455 Z M253.864,101.455 C253.864,100.576 254.576,99.864 255.455,99.864 C256.333,99.864 257.045,100.576 257.045,101.455 C257.045,102.333 256.333,103.045 255.455,103.045 C254.576,103.045 253.864,102.333 253.864,101.455 Z M260.227,101.455 C260.227,98.819 258.09,96.682 255.455,96.682 C252.819,96.682 250.682,98.819 250.682,101.455 C250.682,104.09 252.819,106.227 255.455,106.227 C258.09,106.227 260.227,104.09 260.227,101.455 Z M265,131.682 C274.216,131.682 282.5,124.885 282.5,117.364 C282.5,115.606 281.075,114.182 279.318,114.182 L250.682,114.182 C248.925,114.182 247.5,115.606 247.5,117.364 C247.5,124.885 255.784,131.682 265,131.682 Z M265,125.318 C259.052,125.318 253.864,121.062 253.864,117.364 L250.682,120.545 L279.318,120.545 L276.136,117.364 C276.136,121.062 270.948,125.318 265,125.318 Z" />
        </g>
        <g id="Regular-M" transform="translate(0,200)">
            <path d="M474.545,104.636 L474.577,104.636 C476.335,104.636 477.759,103.212 477.759,101.455 C477.759,99.697 476.335,98.273 474.577,98.273 L474.545,98.273 C472.788,98.273 471.364,99.697 471.364,101.455 C471.364,103.212 472.788,104.636 474.545,104.636 Z M455.455,104.636 L455.486,104.636 C457.244,104.636 458.668,103.212 458.668,101.455 C458.668,99.697 457.244,98.273 455.486,98.273 L455.455,98.273 C453.697,98.273 452.273,99.697 452.273,101.455 C452.273,103.212 453.697,104.636 455.455,104.636 Z M493.636,111 C493.636,126.816 480.816,139.636 465,139.636 C449.184,139.636 436.364,126.816 436.364,111 C436.364,95.184 449.184,82.364 465,82.364 C480.816,82.364 493.636,95.184 493.636,111 Z M500,111 C500,91.67 484.33,76 465,76 C445.67,76 430,91.67 430,111 C430,130.33 445.67,146 465,146 C484.33,146 500,130.33 500,111 Z M472.955,101.455 C472.955,100.576 473.667,99.864 474.545,99.864 C475.424,99.864 476.136,100.576 476.136,101.455 C476.136,102.333 475.424,103.045 474.545,103.045 C473.667,103.045 472.955,102.333 472.955,101.455 Z M479.318,101.455 C479.318,98.819 477.181,96.682 474.545,96.682 C471.91,96.682 469.773,98.819 469.773,101.455 C469.773,104.09 471.91,106.227 474.545,106.227 C477.181,106.227 479.318,104.09 479.318,101.455 Z M453.864,101.455 C453.864,100.576 454.576,99.864 455.455,99.864 C456.333,99.864 457.045,100.576 457.045,101.455 C457.045,102.333 456.333,103.045 455.455,103.045 C454.576,103.045 453.864,102.333 453.864,101.455 Z M460.227,101.455 C460.227,98.819 458.09,96.682 455.455,96.682 C452.819,96.682 450.682,98.819 450.682,101.455 C450.682,104.09 452.819,106.227 455.455,106.227 C458.09,106.227 460.227,104.09 460.227,101.455 Z M465,131.682 C474.216,131.682 482.5,124.885 482.5,117.364 C482.5,115.606 481.075,114.182 479.318,114.182 L450.682,114.182 C448.925,114.182 447.5,115.606 447.5,117.364 C447.5,124.885 455.784,131.682 465,131.682 Z M465,125.318 C459.052,125.318 453.864,121.062 453.864,117.364 L450.682,120.545 L479.318,120.545 L476.136,117.364 C476.136,121.062 470.948,125.318 465,125.318 Z" />
        </g>
        <g id="Black-M" transform="translate(0,200)">
            <path d="M674.545,104.636 L674.577,104.636 C676.335,104.636 677.759,103.212 677.759,101.455 C677.759,99.697 676.335,98.273 674.577,98.273 L674.545,98.273 C672.788,98.273 671.364,99.697 671.364,101.455 C671.364,103.212 672.788,104.636 674.545,104.636 Z M655.455,104.636 L655.486,104.636 C657.244,104.636 658.668,103.212 658.668,101.455 C658.668,99.697 657.244,98.273 655.486,98.273 L655.455,98.273 C653.697,98.273 652.273,99.697 652.273,101.455 C652.273,103.212 653.697,104.636 655.455,104.636 Z M693.636,111 C693.636,126.816 680.816,139.636 665,139.636 C649.184,139.636 636.364,126.816 636.364,111 C636.364,95.184 649.184,82.364 665,82.364 C680.816,82.364 693.636,95.184 693.636,111 Z M700,111 C700,91.67 684.33,76 665,76 C645.67,76 630,91.67 630,111 C630,130.33 645.67,146 665,146 C684.33,146 700,130.33 700,111 Z M672.955,101.455 C672.955,100.576 673.667,99.864 674.545,99.864 C675.424,99.864 676.136,100.576 676.136,101.455 C676.136,102.333 675.424,103.045 674.545,103.045 C673.667,103.045 672.955,102.333 672.955,101.455 Z M679.318,101.455 C679.318,98.819 677.181,96.682 674.545,96.682 C671.91,96.682 669.773,98.819 669.773,101.455 C669.773,104.09 671.91,106.227 674.545,106.227 C677.181,106.227 679.318,104.09 679.318,101.455 Z M653.864,101.455 C653.864,100.576 654.576,99.864 655.455,99.864 C656.333,99.864 657.045,100.576 657.045,101.455 C657.045,102.333 656.333,103.045 655.455,103.045 C654.576,103.045 653.864,102.333 653.864,101.455 Z M660.227,101.455 C660.227,98.819 658.09,96.682 655.455,96.682 C652.819,96.682 650.682,98.819 650.682,101.455 C650.682,104.09 652.819,106.227 655.455,106.227 C658.09,106.227 660.227,104.09 660.227,101.455 Z M665,131.682 C674.216,131.682 682.5,124.885 682.5,117.364 C682.5,115.606 681.075,114.182 679.318,114.182 L650.682,114.182 C648.925,114.182 647.5,115.606 647.5,117.364 C647.5,124.885 655.784,131.682 665,131.682 Z M665,125.318 C659.052,125.318 653.864,121.062 653.864,117.364 L650.682,120.545 L679.318,120.545 L676.136,117.364 C676.136,121.062 670.948,125.318 665,125.318 Z" />
        </g>
    </g>
</svg>