<?xml version="1.0" encoding="UTF-8"?>
<svg height="600" width="800" xmlns="http://www.w3.org/2000/svg" xmlns:xlink="http://www.w3.org/1999/xlink">
    <g id="Notes" font-family="LucidaGrande, 'Lucida Grande', sans-serif" font-size="13">
        <rect fill="white" height="600.0" width="800.0" x="0.0" y="0.0" />
        <g font-size="13">
            <text x="18.0" y="176.0">Small</text>
            <text x="18.0" y="376.0">Medium</text>
            <text x="18.0" y="576.0">Large</text>
        </g>
        <g font-size="9">
            <text x="250.0" y="30.0">Ultralight</text>
            <text x="450.0" y="30.0">Regular</text>
            <text x="650.0" y="30.0">Black</text>
            <text id="template-version" fill="#505050" text-anchor="end" x="785.0" y="575.0">Template v.3.0</text>
            <a href="https://github.com/swhitty/SwiftDraw">
                <text fill="#505050" text-anchor="end" x="785.0" y="590.0">https://github.com/swhitty/SwiftDraw</text>
            </a>
        </g>
    </g>
    <g id="Guides" stroke="rgb(39, 170, 225)" stroke-width="0.5">
        <path id="Capline-S" d="M18,76 l800,0" />
        <path id="H-reference" d="M85,145.755 L87.685,145.755 L113.369,79.287 L114.052,79.287 L114.052,76 L112.148,76 L85,145.755 Z M95.693,121.536 L130.996,121.536 L130.263,119.313 L96.474,119.313 L95.693,121.536 Z M139.15,145.755 L141.787,145.755 L114.638,76 L113.466,76 L113.466,79.287 L139.15,145.755 Z" stroke="none" transform="translate(0,200)" />
        <path id="Baseline-S" d="M18,146 l800,0" />
        <path id="left-margin-Ultralight-M" d="M237,256 l0,110" />
        <path id="right-margin-Ultralight-M" d="M293,256 l0,110" />
        <path id="left-margin-Regular-M" d="M437,256 l0,110" />
        <path id="right-margin-Regular-M" d="M493,256 l0,110" />
        <path id="left-margin-Black-M" d="M637,256 l0,110" />
        <path id="right-margin-Black-M" d="M693,256 l0,110" />
        <path id="Capline-M" d="M18,276 l800,0" />
        <path id="Baseline-M" d="M18,346 l800,0" />
        <path id="Capline-L" d="M18,476 l800,0" />
        <path id="Baseline-L" d="M18,546 l800,0" />
    </g>
    <g id="Symbols">
        <g id="Ultralight-M" transform="translate(0,200)">
            <path d="M240.5,96.3 C240.5,90.42 240.5,87.48 241.645,85.233 C242.651,83.257 244.257,81.651 246.233,80.645 C248.48,79.5 251.42,79.5 257.3,79.5 L272.7,79.5 C278.58,79.5 281.52,79.5 283.767,80.645 C285.743,81.651 287.349,83.257 288.355,85.233 C289.5,87.48 289.5,90.42 289.5,96.3 L289.5,142.5 L265,128.5 L240.5,142.5 L240.5,96.3 Z" />
        </g>
        <g id="Regular-M" transform="translate(0,200)">
            <path d="M440.5,96.3 C440.5,90.42 440.5,87.48 441.645,85.233 C442.651,83.257 444.257,81.651 446.233,80.645 C448.48,79.5 451.42,79.5 457.3,79.5 L472.7,79.5 C478.58,79.5 481.52,79.5 483.767,80.645 C485.743,81.651 487.349,83.257 488.355,85.233 C489.5,87.48 489.5,90.42 489.5,96.3 L489.5,142.5 L465,128.5 L440.5,142.5 L440.5,96.3 Z" />
        </g>
        <g id="Black-M" transform="translate(0,200)">
            <path d="M640.5,96.3 C640.5,90.42 640.5,87.48 641.645,85.233 C642.651,83.257 644.257,81.651 646.233,80.645 C648.48,79.5 651.42,79.5 657.3,79.5 L672.7,79.5 C678.58,79.5 681.52,79.5 683.767,80.645 C685.743,81.651 687.349,83.257 688.356,85.233 C689.5,87.48 689.5,90.42 689.5,96.3 L689.5,142.5 L665,128.5 L640.5,142.5 L640.5,96.3 Z" />
        </g>
    </g>
</svg>